M48
; DRILL file {KiCad (5.1.5)-3} date 7/12/2020 3:15:09 PM
; FORMAT={-:-/ absolute / inch / decimal}
; #@! TF.CreationDate,2020-07-12T15:15:09-04:00
; #@! TF.GenerationSoftware,Kicad,Pcbnew,(5.1.5)-3
; #@! TF.FileFunction,Plated,1,2,PTH
FMAT,2
INCH
T1C0.0250
T2C0.0315
T3C0.0350
T4C0.0354
T5C0.0360
T6C0.0362
T7C0.0394
T8C0.0917
T9C0.1510
%
G90
G05
T1
X0.542Y-1.168
X1.19Y-2.64
X1.276Y-3.233
X1.68Y-2.732
X2.087Y-3.363
X2.37Y-1.77
X2.375Y-3.35
X2.45Y-3.13
X2.55Y-1.84
X2.56Y-1.67
X2.57Y-1.79
X2.58Y-2.13
X2.5895Y-2.779
X2.61Y-1.31
X2.62Y-2.08
X2.63Y-1.52
X2.63Y-1.7
X2.64Y-2.03
X2.65Y-1.42
X2.67Y-1.2152
X2.6796Y-1.9904
X2.71Y-1.96
X2.72Y-2.828
X2.75Y-1.57
X2.75Y-1.92
X2.86Y-2.8
X2.91Y-2.86
X2.94Y-1.7413
X3.0196Y-3.14
X3.0196Y-3.3
X3.0196Y-3.46
X3.0666Y-2.8234
X3.08Y-1.81
X3.1Y-2.13
X3.1Y-2.265
X3.105Y-2.365
X3.5Y-2.81
T2
X3.685Y-1.1299
X3.685Y-1.3976
X3.7953Y-1.1299
X3.7953Y-1.2126
X3.7953Y-1.315
X3.7953Y-1.3976
T3
X3.5921Y-3.0305
T4
X3.976Y-2.321
X4.076Y-2.321
X3.977Y-1.665
X4.077Y-1.665
T5
X3.5921Y-2.8503
X3.5921Y-2.9405
X3.5921Y-3.1208
X3.5921Y-3.2109
X3.6921Y-2.8052
X3.6921Y-2.8954
X3.6921Y-2.9856
X3.6921Y-3.0757
X3.6921Y-3.1659
X3.792Y-3.0306
X3.7921Y-2.8503
X3.7921Y-2.9405
X3.7921Y-3.1208
X3.7921Y-3.2109
T6
X3.643Y-1.942
X3.643Y-2.0404
X3.7217Y-1.942
X3.7217Y-2.0404
T7
X1.481Y-1.003
X1.481Y-1.103
X1.581Y-1.003
X1.581Y-1.103
X1.681Y-1.003
X1.681Y-1.103
X1.2Y-2.08
X1.2Y-2.18
X1.2Y-2.28
X3.5512Y-1.1142
X3.5512Y-1.2142
X3.5512Y-1.3142
X3.5512Y-1.4142
X3.3169Y-0.7152
X3.3169Y-0.8152
X3.3169Y-0.9152
X3.3169Y-1.0152
X3.3169Y-1.1152
X3.3169Y-1.2152
X3.3169Y-1.3152
X3.3169Y-1.4152
X3.3169Y-1.5152
X3.3169Y-1.6152
X3.3169Y-1.7152
X3.3169Y-1.8152
X3.3169Y-1.9152
X3.3169Y-2.0152
X3.3169Y-2.1152
X3.3169Y-2.2152
X3.3169Y-2.3152
X3.3169Y-2.4152
X3.3169Y-2.5152
X3.3169Y-2.6152
X3.3169Y-2.7152
X3.3169Y-2.8152
X3.3169Y-2.9152
X3.3169Y-3.0152
X3.3169Y-3.1152
X3.3169Y-3.2152
X3.3169Y-3.3152
X3.3169Y-3.4152
X3.3169Y-3.5152
X3.3169Y-3.6152
X3.3169Y-3.7152
X3.3169Y-3.8152
X3.4169Y-0.7152
X3.4169Y-0.8152
X3.4169Y-0.9152
X3.4169Y-1.0152
X3.4169Y-1.1152
X3.4169Y-1.2152
X3.4169Y-1.3152
X3.4169Y-1.4152
X3.4169Y-1.5152
X3.4169Y-1.6152
X3.4169Y-1.7152
X3.4169Y-1.8152
X3.4169Y-1.9152
X3.4169Y-2.0152
X3.4169Y-2.1152
X3.4169Y-2.2152
X3.4169Y-2.3152
X3.4169Y-2.4152
X3.4169Y-2.5152
X3.4169Y-2.6152
X3.4169Y-2.7152
X3.4169Y-2.8152
X3.4169Y-2.9152
X3.4169Y-3.0152
X3.4169Y-3.1152
X3.4169Y-3.2152
X3.4169Y-3.3152
X3.4169Y-3.4152
X3.4169Y-3.5152
X3.4169Y-3.6152
X3.4169Y-3.7152
X3.4169Y-3.8152
X0.5961Y-1.0157
X0.5961Y-1.1157
X0.5961Y-1.2157
X0.5961Y-1.3157
X0.5961Y-1.4157
X0.5961Y-1.5157
X0.5961Y-1.6157
X0.5961Y-1.7157
X0.5961Y-1.8157
X0.5961Y-1.9157
X0.5961Y-2.0157
X0.5961Y-2.1157
X0.5961Y-2.2157
X0.5961Y-2.3157
X0.5961Y-2.4157
X0.5961Y-2.5157
X0.5961Y-2.6157
X0.5961Y-2.7157
X0.5961Y-2.8157
X0.5961Y-2.9157
X0.5961Y-3.0157
X0.5961Y-3.1157
X0.5961Y-3.2157
X0.5961Y-3.3157
X0.5961Y-3.4157
X0.6961Y-1.0157
X0.6961Y-1.1157
X0.6961Y-1.2157
X0.6961Y-1.3157
X0.6961Y-1.4157
X0.6961Y-1.5157
X0.6961Y-1.6157
X0.6961Y-1.7157
X0.6961Y-1.8157
X0.6961Y-1.9157
X0.6961Y-2.0157
X0.6961Y-2.1157
X0.6961Y-2.2157
X0.6961Y-2.3157
X0.6961Y-2.4157
X0.6961Y-2.5157
X0.6961Y-2.6157
X0.6961Y-2.7157
X0.6961Y-2.8157
X0.6961Y-2.9157
X0.6961Y-3.0157
X0.6961Y-3.1157
X0.6961Y-3.2157
X0.6961Y-3.3157
X0.6961Y-3.4157
X0.9177Y-0.7152
X0.9177Y-0.8152
X0.9177Y-0.9152
X0.9177Y-1.0152
X0.9177Y-1.1152
X0.9177Y-1.2152
X0.9177Y-1.3152
X0.9177Y-1.4152
X0.9177Y-1.5152
X0.9177Y-1.6152
X0.9177Y-1.7152
X0.9177Y-1.8152
X0.9177Y-1.9152
X0.9177Y-2.0152
X0.9177Y-2.1152
X0.9177Y-2.2152
X0.9177Y-2.3152
X0.9177Y-2.4152
X0.9177Y-2.5152
X0.9177Y-2.6152
X0.9177Y-2.7152
X0.9177Y-2.8152
X0.9177Y-2.9152
X0.9177Y-3.0152
X0.9177Y-3.1152
X0.9177Y-3.2152
X0.9177Y-3.3152
X0.9177Y-3.4152
X0.9177Y-3.5152
X0.9177Y-3.6152
X0.9177Y-3.7152
X0.9177Y-3.8152
X1.0177Y-0.7152
X1.0177Y-0.8152
X1.0177Y-0.9152
X1.0177Y-1.0152
X1.0177Y-1.1152
X1.0177Y-1.2152
X1.0177Y-1.3152
X1.0177Y-1.4152
X1.0177Y-1.5152
X1.0177Y-1.6152
X1.0177Y-1.7152
X1.0177Y-1.8152
X1.0177Y-1.9152
X1.0177Y-2.0152
X1.0177Y-2.1152
X1.0177Y-2.2152
X1.0177Y-2.3152
X1.0177Y-2.4152
X1.0177Y-2.5152
X1.0177Y-2.6152
X1.0177Y-2.7152
X1.0177Y-2.8152
X1.0177Y-2.9152
X1.0177Y-3.0152
X1.0177Y-3.1152
X1.0177Y-3.2152
X1.0177Y-3.3152
X1.0177Y-3.4152
X1.0177Y-3.5152
X1.0177Y-3.6152
X1.0177Y-3.7152
X1.0177Y-3.8152
X3.57Y-2.33
X3.67Y-2.33
X1.15Y-3.88
X1.15Y-3.98
X1.25Y-3.88
X1.25Y-3.98
X1.35Y-3.88
X1.35Y-3.98
X1.45Y-3.88
X1.45Y-3.98
X1.55Y-3.88
X1.55Y-3.98
X1.65Y-3.88
X1.65Y-3.98
T8
X3.8284Y-1.7542
X3.8284Y-2.2282
T9
X0.6299Y-3.8976
X0.6299Y-0.6299
X3.8976Y-3.8976
X3.8976Y-0.6299
T7
G00X3.878Y-0.9941
M15
G01X3.937Y-0.9941
M16
G05
G00X3.878Y-1.5335
M15
G01X3.937Y-1.5335
M16
G05
G00X3.939Y-1.3031
M15
G01X3.939Y-1.2244
M16
G05
T0
M30
