M48
;DRILL file {KiCad (5.0.2)-1} date 11/17/2019 6:02:06 PM
;FORMAT={-:-/ absolute / inch / decimal}
FMAT,2
INCH,TZ
T1C0.0197
T2C0.0250
T3C0.0315
T4C0.0354
T5C0.0394
T6C0.1260
T7C0.1510
%
G90
G05
T2
X0.542Y-1.168
X1.276Y-3.233
X1.383Y-1.955
X1.383Y-2.404
X1.608Y-2.648
X1.7231Y-2.981
X2.087Y-3.363
X2.375Y-3.35
X2.709Y-2.32
X2.715Y-2.203
X2.7625Y-2.187
X2.7625Y-2.322
X2.825Y-1.849
X2.836Y-2.06
X2.846Y-1.9775
X3.248Y-2.3637
X3.485Y-1.99
X3.545Y-1.77
X3.61Y-1.91
X3.656Y-2.225
X3.73Y-1.9703
X3.895Y-1.895
X3.895Y-2.015
X3.895Y-2.115
X3.91Y-1.9655
T3
X3.685Y-1.1299
X3.685Y-1.3976
X3.7953Y-1.1299
X3.7953Y-1.2126
X3.7953Y-1.315
X3.7953Y-1.3976
T4
X3.96Y-2.26
X3.96Y-2.36
X3.96Y-1.635
X3.96Y-1.735
T5
X0.9177Y-0.7152
X0.9177Y-0.8152
X0.9177Y-0.9152
X0.9177Y-1.0152
X0.9177Y-1.1152
X0.9177Y-1.2152
X0.9177Y-1.3152
X0.9177Y-1.4152
X0.9177Y-1.5152
X0.9177Y-1.6152
X0.9177Y-1.7152
X0.9177Y-1.8152
X0.9177Y-1.9152
X0.9177Y-2.0152
X0.9177Y-2.1152
X0.9177Y-2.2152
X0.9177Y-2.3152
X0.9177Y-2.4152
X0.9177Y-2.5152
X0.9177Y-2.6152
X0.9177Y-2.7152
X0.9177Y-2.8152
X0.9177Y-2.9152
X0.9177Y-3.0152
X0.9177Y-3.1152
X0.9177Y-3.2152
X0.9177Y-3.3152
X0.9177Y-3.4152
X0.9177Y-3.5152
X0.9177Y-3.6152
X0.9177Y-3.7152
X0.9177Y-3.8152
X1.0177Y-0.7152
X1.0177Y-0.8152
X1.0177Y-0.9152
X1.0177Y-1.0152
X1.0177Y-1.1152
X1.0177Y-1.2152
X1.0177Y-1.3152
X1.0177Y-1.4152
X1.0177Y-1.5152
X1.0177Y-1.6152
X1.0177Y-1.7152
X1.0177Y-1.8152
X1.0177Y-1.9152
X1.0177Y-2.0152
X1.0177Y-2.1152
X1.0177Y-2.2152
X1.0177Y-2.3152
X1.0177Y-2.4152
X1.0177Y-2.5152
X1.0177Y-2.6152
X1.0177Y-2.7152
X1.0177Y-2.8152
X1.0177Y-2.9152
X1.0177Y-3.0152
X1.0177Y-3.1152
X1.0177Y-3.2152
X1.0177Y-3.3152
X1.0177Y-3.4152
X1.0177Y-3.5152
X1.0177Y-3.6152
X1.0177Y-3.7152
X1.0177Y-3.8152
X0.5961Y-1.0157
X0.5961Y-1.1157
X0.5961Y-1.2157
X0.5961Y-1.3157
X0.5961Y-1.4157
X0.5961Y-1.5157
X0.5961Y-1.6157
X0.5961Y-1.7157
X0.5961Y-1.8157
X0.5961Y-1.9157
X0.5961Y-2.0157
X0.5961Y-2.1157
X0.5961Y-2.2157
X0.5961Y-2.3157
X0.5961Y-2.4157
X0.5961Y-2.5157
X0.5961Y-2.6157
X0.5961Y-2.7157
X0.5961Y-2.8157
X0.5961Y-2.9157
X0.5961Y-3.0157
X0.5961Y-3.1157
X0.5961Y-3.2157
X0.5961Y-3.3157
X0.5961Y-3.4157
X0.6961Y-1.0157
X0.6961Y-1.1157
X0.6961Y-1.2157
X0.6961Y-1.3157
X0.6961Y-1.4157
X0.6961Y-1.5157
X0.6961Y-1.6157
X0.6961Y-1.7157
X0.6961Y-1.8157
X0.6961Y-1.9157
X0.6961Y-2.0157
X0.6961Y-2.1157
X0.6961Y-2.2157
X0.6961Y-2.3157
X0.6961Y-2.4157
X0.6961Y-2.5157
X0.6961Y-2.6157
X0.6961Y-2.7157
X0.6961Y-2.8157
X0.6961Y-2.9157
X0.6961Y-3.0157
X0.6961Y-3.1157
X0.6961Y-3.2157
X0.6961Y-3.3157
X0.6961Y-3.4157
X3.5512Y-1.1142
X3.5512Y-1.2142
X3.5512Y-1.3142
X3.5512Y-1.4142
X3.3181Y-0.7152
X3.3181Y-0.8152
X3.3181Y-0.9152
X3.3181Y-1.0152
X3.3181Y-1.1152
X3.3181Y-1.2152
X3.3181Y-1.3152
X3.3181Y-1.4152
X3.3181Y-1.5152
X3.3181Y-1.6152
X3.3181Y-1.7152
X3.3181Y-1.8152
X3.3181Y-1.9152
X3.3181Y-2.0152
X3.3181Y-2.1152
X3.3181Y-2.2152
X3.3181Y-2.3152
X3.3181Y-2.4152
X3.3181Y-2.5152
X3.3181Y-2.6152
X3.3181Y-2.7152
X3.3181Y-2.8152
X3.3181Y-2.9152
X3.3181Y-3.0152
X3.3181Y-3.1152
X3.3181Y-3.2152
X3.3181Y-3.3152
X3.3181Y-3.4152
X3.3181Y-3.5152
X3.3181Y-3.6152
X3.3181Y-3.7152
X3.3181Y-3.8152
X3.4181Y-0.7152
X3.4181Y-0.8152
X3.4181Y-0.9152
X3.4181Y-1.0152
X3.4181Y-1.1152
X3.4181Y-1.2152
X3.4181Y-1.3152
X3.4181Y-1.4152
X3.4181Y-1.5152
X3.4181Y-1.6152
X3.4181Y-1.7152
X3.4181Y-1.8152
X3.4181Y-1.9152
X3.4181Y-2.0152
X3.4181Y-2.1152
X3.4181Y-2.2152
X3.4181Y-2.3152
X3.4181Y-2.4152
X3.4181Y-2.5152
X3.4181Y-2.6152
X3.4181Y-2.7152
X3.4181Y-2.8152
X3.4181Y-2.9152
X3.4181Y-3.0152
X3.4181Y-3.1152
X3.4181Y-3.2152
X3.4181Y-3.3152
X3.4181Y-3.4152
X3.4181Y-3.5152
X3.4181Y-3.6152
X3.4181Y-3.7152
X3.4181Y-3.8152
X3.55Y-2.35
X3.65Y-2.35
X1.566Y-1.951
X1.566Y-2.051
X3.591Y-2.859
X3.591Y-2.9492
X3.591Y-3.0393
X3.591Y-3.1295
X3.591Y-3.2196
X3.669Y-2.8139
X3.669Y-2.9041
X3.669Y-2.9942
X3.669Y-3.0844
X3.669Y-3.1746
X3.7469Y-2.859
X3.7469Y-2.9492
X3.7469Y-3.0393
X3.7469Y-3.1295
X3.7469Y-3.2196
T6
X3.6717Y-2.5368
X3.6717Y-3.521
T7
X3.8976Y-3.8976
X3.8976Y-0.6299
X0.6299Y-0.6299
X0.6299Y-3.8976
T1
X3.8457Y-1.8324G85X3.8694Y-1.8324
G05
X3.8457Y-2.1576G85X3.8694Y-2.1576
G05
X4.08Y-1.8182G85X4.1036Y-1.8182
G05
X4.08Y-2.1718G85X4.1036Y-2.1718
G05
T5
X3.878Y-0.9941G85X3.937Y-0.9941
G05
X3.878Y-1.5335G85X3.937Y-1.5335
G05
X3.939Y-1.3031G85X3.939Y-1.2244
G05
T0
M30
