%TF.GenerationSoftware,KiCad,Pcbnew,(6.0.1)*%
%TF.CreationDate,2022-05-28T15:37:13-04:00*%
%TF.ProjectId,PC-Case-USB,50432d43-6173-4652-9d55-53422e6b6963,X1*%
%TF.SameCoordinates,Original*%
%TF.FileFunction,Copper,L1,Top*%
%TF.FilePolarity,Positive*%
%FSLAX46Y46*%
G04 Gerber Fmt 4.6, Leading zero omitted, Abs format (unit mm)*
G04 Created by KiCad (PCBNEW (6.0.1)) date 2022-05-28 15:37:13*
%MOMM*%
%LPD*%
G01*
G04 APERTURE LIST*
%TA.AperFunction,SMDPad,CuDef*%
%ADD10C,1.000000*%
%TD*%
%TA.AperFunction,SMDPad,CuDef*%
%ADD11R,1.800000X0.400000*%
%TD*%
%TA.AperFunction,SMDPad,CuDef*%
%ADD12R,1.900000X1.900000*%
%TD*%
%TA.AperFunction,ComponentPad*%
%ADD13R,1.727200X1.727200*%
%TD*%
%TA.AperFunction,ComponentPad*%
%ADD14O,1.727200X1.727200*%
%TD*%
%TA.AperFunction,ViaPad*%
%ADD15C,0.889000*%
%TD*%
%TA.AperFunction,Conductor*%
%ADD16C,0.254000*%
%TD*%
G04 APERTURE END LIST*
D10*
%TO.P,FID1,1*%
%TO.N,N/C*%
X13800000Y-9550000D03*
%TD*%
D11*
%TO.P,J1,1*%
%TO.N,Net-(J1-Pad1)*%
X4400000Y-24700000D03*
%TO.P,J1,2*%
%TO.N,Net-(J1-Pad2)*%
X4400000Y-25350000D03*
%TO.P,J1,3*%
%TO.N,Net-(J1-Pad3)*%
X4400000Y-26000000D03*
%TO.P,J1,4*%
%TO.N,N/C*%
X4400000Y-26650000D03*
%TO.P,J1,5*%
%TO.N,Net-(J1-Pad5)*%
X4400000Y-27300000D03*
D12*
%TO.P,J1,6*%
%TO.N,N/C*%
X1375000Y-29950000D03*
%TO.P,J1,7*%
X1375000Y-22050000D03*
%TD*%
D11*
%TO.P,J2,1*%
%TO.N,Net-(J2-Pad1)*%
X4400000Y-11300000D03*
%TO.P,J2,2*%
%TO.N,Net-(J2-Pad2)*%
X4400000Y-11950000D03*
%TO.P,J2,3*%
%TO.N,Net-(J2-Pad3)*%
X4400000Y-12600000D03*
%TO.P,J2,4*%
%TO.N,N/C*%
X4400000Y-13250000D03*
%TO.P,J2,5*%
%TO.N,Net-(J2-Pad5)*%
X4400000Y-13900000D03*
D12*
%TO.P,J2,6*%
%TO.N,N/C*%
X1375000Y-16550000D03*
%TO.P,J2,7*%
X1375000Y-8650000D03*
%TD*%
D10*
%TO.P,FID2,1*%
%TO.N,N/C*%
X8150000Y-31500000D03*
%TD*%
D13*
%TO.P,J3,1*%
%TO.N,Net-(J1-Pad1)*%
X9400000Y-14700000D03*
D14*
%TO.P,J3,2*%
%TO.N,Net-(J2-Pad1)*%
X11940000Y-14700000D03*
%TO.P,J3,3*%
%TO.N,Net-(J1-Pad2)*%
X9400000Y-17240000D03*
%TO.P,J3,4*%
%TO.N,Net-(J2-Pad2)*%
X11940000Y-17240000D03*
%TO.P,J3,5*%
%TO.N,Net-(J1-Pad3)*%
X9400000Y-19780000D03*
%TO.P,J3,6*%
%TO.N,Net-(J2-Pad3)*%
X11940000Y-19780000D03*
%TO.P,J3,7*%
%TO.N,Net-(J1-Pad5)*%
X9400000Y-22320000D03*
%TO.P,J3,8*%
%TO.N,Net-(J2-Pad5)*%
X11940000Y-22320000D03*
%TO.P,J3,9*%
%TO.N,N/C*%
X9400000Y-24860000D03*
%TO.P,J3,10*%
X11940000Y-24860000D03*
%TD*%
D15*
%TO.N,Net-(J1-Pad1)*%
X4500000Y-16000000D03*
%TO.N,Net-(J1-Pad2)*%
X5950000Y-19650000D03*
%TO.N,Net-(J1-Pad3)*%
X7000000Y-21000000D03*
%TD*%
D16*
%TO.N,Net-(J1-Pad1)*%
X4400000Y-16100000D02*
X4500000Y-16000000D01*
X4400000Y-24700000D02*
X4400000Y-16100000D01*
%TO.N,Net-(J1-Pad2)*%
X5650000Y-25350000D02*
X6000000Y-25000000D01*
X6000000Y-25000000D02*
X6000000Y-24150000D01*
X6000000Y-19700000D02*
X5950000Y-19650000D01*
X4400000Y-25350000D02*
X5650000Y-25350000D01*
X6000000Y-24150000D02*
X6000000Y-22050000D01*
X6000000Y-22050000D02*
X6000000Y-19700000D01*
%TO.N,Net-(J1-Pad3)*%
X6000000Y-26000000D02*
X7000000Y-25000000D01*
X7000000Y-25000000D02*
X7000000Y-21000000D01*
X4400000Y-26000000D02*
X6000000Y-26000000D01*
%TO.N,Net-(J1-Pad5)*%
X6700000Y-27300000D02*
X8000000Y-26000000D01*
X8000000Y-26000000D02*
X8000000Y-23720000D01*
X8000000Y-23720000D02*
X9400000Y-22320000D01*
X4400000Y-27300000D02*
X6700000Y-27300000D01*
%TO.N,Net-(J2-Pad1)*%
X10284000Y-11300000D02*
X11940000Y-12956000D01*
X11940000Y-12956000D02*
X11940000Y-14700000D01*
X4400000Y-11300000D02*
X10284000Y-11300000D01*
%TO.N,Net-(J2-Pad2)*%
X7450000Y-11950000D02*
X8000000Y-12500000D01*
X8000000Y-12500000D02*
X8000000Y-16002000D01*
X8000000Y-16002000D02*
X8002000Y-16000000D01*
X8002000Y-16000000D02*
X10700000Y-16000000D01*
X10700000Y-16000000D02*
X11940000Y-17240000D01*
X4400000Y-11950000D02*
X7450000Y-11950000D01*
%TO.N,Net-(J2-Pad3)*%
X8128000Y-18542000D02*
X10702000Y-18542000D01*
X10702000Y-18542000D02*
X11940000Y-19780000D01*
X7142798Y-12600000D02*
X7542798Y-13000000D01*
X7542798Y-13000000D02*
X7542798Y-17956798D01*
X7542798Y-17956798D02*
X8128000Y-18542000D01*
X4400000Y-12600000D02*
X7142798Y-12600000D01*
%TO.N,Net-(J2-Pad5)*%
X10620000Y-21000000D02*
X11940000Y-22320000D01*
X6485596Y-13900000D02*
X7000000Y-14414404D01*
X7000000Y-14414404D02*
X7000000Y-19500000D01*
X7000000Y-19500000D02*
X8500000Y-21000000D01*
X8500000Y-21000000D02*
X10620000Y-21000000D01*
X4400000Y-13900000D02*
X6485596Y-13900000D01*
%TD*%
M02*
