G04 #@! TF.FileFunction,Copper,L1,Top,Signal*
%FSLAX46Y46*%
G04 Gerber Fmt 4.6, Leading zero omitted, Abs format (unit mm)*
G04 Created by KiCad (PCBNEW (after 2015-mar-04 BZR unknown)-product) date 5/16/2015 9:05:16 AM*
%MOMM*%
G01*
G04 APERTURE LIST*
%ADD10C,0.150000*%
%ADD11C,9.525000*%
%ADD12C,1.000000*%
%ADD13R,1.524000X1.524000*%
%ADD14C,1.524000*%
%ADD15C,3.810000*%
%ADD16R,1.524000X2.032000*%
%ADD17R,1.727200X1.727200*%
%ADD18O,1.727200X1.727200*%
%ADD19R,2.032000X2.032000*%
%ADD20O,2.032000X2.032000*%
%ADD21O,2.286000X1.574800*%
%ADD22R,2.286000X1.574800*%
%ADD23R,1.300000X1.300000*%
%ADD24C,1.300000*%
%ADD25C,0.889000*%
%ADD26C,0.254000*%
G04 APERTURE END LIST*
D10*
D11*
X16000000Y-16000000D03*
X99000000Y-16000000D03*
X16000000Y-99000000D03*
X99000000Y-99000000D03*
D12*
X23335000Y-13810000D03*
X92550000Y-102710000D03*
D13*
X98900000Y-55720000D03*
D14*
X98900000Y-53180000D03*
X98900000Y-50640000D03*
X98900000Y-48100000D03*
D15*
X15730000Y-34005000D03*
X15730000Y-80995000D03*
D13*
X18270000Y-74010000D03*
D14*
X18270000Y-71216000D03*
X18270000Y-68549000D03*
X18270000Y-65755000D03*
X18270000Y-62961000D03*
X18270000Y-60167000D03*
X18270000Y-57500000D03*
X18270000Y-54706000D03*
X18270000Y-51912000D03*
X18270000Y-49118000D03*
X18270000Y-46451000D03*
X18270000Y-43657000D03*
X18270000Y-40863000D03*
X15730000Y-72435200D03*
X15730000Y-69895200D03*
X15730000Y-67101200D03*
X15730000Y-64358000D03*
X15730000Y-61614800D03*
X15730000Y-58820800D03*
X15730000Y-56077600D03*
X15730000Y-53334400D03*
X15730000Y-50489600D03*
X15730000Y-47797200D03*
X15730000Y-45054000D03*
X15730000Y-42260000D03*
D13*
X93820000Y-55720000D03*
D14*
X93820000Y-53180000D03*
X93820000Y-50640000D03*
X93820000Y-48100000D03*
D13*
X98900000Y-31590000D03*
D14*
X98900000Y-29050000D03*
X98900000Y-26510000D03*
D13*
X98900000Y-88740000D03*
D14*
X98900000Y-86200000D03*
X98900000Y-83660000D03*
D16*
X40861000Y-82390000D03*
X37559000Y-82390000D03*
D14*
X31590000Y-22065000D03*
X31590000Y-33495000D03*
X34130000Y-22065000D03*
X34130000Y-33495000D03*
D17*
X43401000Y-19398000D03*
D18*
X45941000Y-19398000D03*
X43401000Y-21938000D03*
X45941000Y-21938000D03*
D19*
X44544000Y-27018000D03*
D20*
X42004000Y-27018000D03*
D14*
X46830000Y-36797000D03*
X46830000Y-48227000D03*
X44290000Y-48227000D03*
X44290000Y-36797000D03*
X84676000Y-65753000D03*
X84676000Y-77183000D03*
X89756000Y-65753000D03*
X89756000Y-77183000D03*
X87216000Y-65753000D03*
X87216000Y-77183000D03*
X41750000Y-48227000D03*
X41750000Y-36797000D03*
D17*
X101313000Y-68928000D03*
D18*
X98773000Y-68928000D03*
X101313000Y-66388000D03*
X98773000Y-66388000D03*
X101313000Y-63848000D03*
X98773000Y-63848000D03*
D21*
X59530000Y-70960000D03*
X59530000Y-68420000D03*
X59530000Y-65880000D03*
X59530000Y-63340000D03*
X59530000Y-60800000D03*
X59530000Y-58260000D03*
X59530000Y-55720000D03*
X59530000Y-53180000D03*
X59530000Y-50640000D03*
X59530000Y-48100000D03*
X59530000Y-45560000D03*
X59530000Y-43020000D03*
X59530000Y-40480000D03*
D22*
X59530000Y-73500000D03*
D21*
X51910000Y-40480000D03*
X51910000Y-43020000D03*
X51910000Y-45560000D03*
X51910000Y-48100000D03*
X51910000Y-50640000D03*
X51910000Y-53180000D03*
X51910000Y-55720000D03*
X51910000Y-58260000D03*
X51910000Y-60800000D03*
X51910000Y-63340000D03*
X51910000Y-65880000D03*
X51910000Y-68420000D03*
X51910000Y-70960000D03*
X51910000Y-73500000D03*
D22*
X59530000Y-27145000D03*
D21*
X59530000Y-24605000D03*
X59530000Y-22065000D03*
X59530000Y-19525000D03*
X51910000Y-19525000D03*
X51910000Y-22065000D03*
X51910000Y-24605000D03*
X51910000Y-27145000D03*
D23*
X53350000Y-31106000D03*
D24*
X58350000Y-31106000D03*
D23*
X53096000Y-78858000D03*
D24*
X58096000Y-78858000D03*
D25*
X87089000Y-40734000D03*
X62832000Y-27272000D03*
X62832000Y-41750000D03*
X88867000Y-44163000D03*
X64991000Y-29050000D03*
X65372000Y-44290000D03*
X84676000Y-46830000D03*
X68928000Y-23589000D03*
X70071000Y-46830000D03*
X91026000Y-43147000D03*
X67912000Y-86708000D03*
X67912000Y-54704000D03*
D26*
X88740000Y-63848000D02*
X98773000Y-63848000D01*
X87216000Y-65372000D02*
X88740000Y-63848000D01*
X87216000Y-65753000D02*
X87216000Y-65372000D01*
X62832000Y-41750000D02*
X57117000Y-41750000D01*
X86073000Y-41750000D02*
X62832000Y-41750000D01*
X87089000Y-40734000D02*
X86073000Y-41750000D01*
X56482000Y-41115000D02*
X55847000Y-40480000D01*
X57117000Y-41750000D02*
X56482000Y-41115000D01*
X55847000Y-40480000D02*
X56482000Y-41115000D01*
X51910000Y-40480000D02*
X55847000Y-40480000D01*
X62705000Y-27145000D02*
X62832000Y-27272000D01*
X59530000Y-27145000D02*
X62705000Y-27145000D01*
X88867000Y-44163000D02*
X67404000Y-44163000D01*
X67404000Y-44163000D02*
X67277000Y-44290000D01*
X65372000Y-44290000D02*
X56736000Y-44290000D01*
X67277000Y-44290000D02*
X65372000Y-44290000D01*
X56736000Y-44290000D02*
X55466000Y-43020000D01*
X55466000Y-43020000D02*
X51910000Y-43020000D01*
X62832000Y-24478000D02*
X64991000Y-26637000D01*
X64991000Y-26637000D02*
X64991000Y-29050000D01*
X59784000Y-24478000D02*
X62832000Y-24478000D01*
X93947000Y-65753000D02*
X94582000Y-66388000D01*
X94582000Y-66388000D02*
X98773000Y-66388000D01*
X89756000Y-65753000D02*
X93947000Y-65753000D01*
X85565000Y-68928000D02*
X84676000Y-68039000D01*
X84676000Y-68039000D02*
X84676000Y-65753000D01*
X98773000Y-68928000D02*
X85565000Y-68928000D01*
X55085000Y-45560000D02*
X56355000Y-46830000D01*
X70071000Y-46830000D02*
X84676000Y-46830000D01*
X56355000Y-46830000D02*
X70071000Y-46830000D01*
X51910000Y-45560000D02*
X55085000Y-45560000D01*
X67150000Y-21938000D02*
X68801000Y-23589000D01*
X68801000Y-23589000D02*
X68928000Y-23589000D01*
X59784000Y-21938000D02*
X67150000Y-21938000D01*
X93820000Y-48100000D02*
X98900000Y-48100000D01*
X91280000Y-45560000D02*
X93820000Y-48100000D01*
X59530000Y-45560000D02*
X91280000Y-45560000D01*
X52164000Y-21938000D02*
X45941000Y-21938000D01*
X93820000Y-50640000D02*
X98900000Y-50640000D01*
X91026000Y-43147000D02*
X90899000Y-43020000D01*
X90899000Y-43020000D02*
X59530000Y-43020000D01*
X45941000Y-19398000D02*
X52164000Y-19398000D01*
X98900000Y-55720000D02*
X93820000Y-55720000D01*
X68420000Y-86200000D02*
X67912000Y-86708000D01*
X67912000Y-54704000D02*
X67658000Y-54450000D01*
X67658000Y-54450000D02*
X55974000Y-54450000D01*
X55974000Y-54450000D02*
X54704000Y-53180000D01*
X54704000Y-53180000D02*
X51910000Y-53180000D01*
X98900000Y-86200000D02*
X68420000Y-86200000D01*
X41750000Y-50513000D02*
X44417000Y-53180000D01*
X44417000Y-53180000D02*
X51910000Y-53180000D01*
X41750000Y-48227000D02*
X41750000Y-50513000D01*
X51910000Y-48100000D02*
X50132000Y-48100000D01*
X48481000Y-50386000D02*
X49370000Y-49497000D01*
X49370000Y-49497000D02*
X49370000Y-48862000D01*
X49370000Y-48862000D02*
X50132000Y-48100000D01*
X44290000Y-49497000D02*
X45179000Y-50386000D01*
X45179000Y-50386000D02*
X48481000Y-50386000D01*
X44290000Y-48227000D02*
X44290000Y-49497000D01*
X18270000Y-71216000D02*
X18270000Y-74010000D01*
X15730000Y-72435200D02*
X17050800Y-72435200D01*
X17050800Y-72435200D02*
X18270000Y-71216000D01*
X25200000Y-74010000D02*
X18270000Y-74010000D01*
X34130000Y-82390000D02*
X25750000Y-74010000D01*
X25750000Y-74010000D02*
X25200000Y-74010000D01*
X37559000Y-82390000D02*
X34130000Y-82390000D01*
X31463000Y-21557000D02*
X31463000Y-22065000D01*
X31590000Y-21557000D02*
X31590000Y-22065000D01*
X33749000Y-19398000D02*
X31590000Y-21557000D01*
X43401000Y-19398000D02*
X33749000Y-19398000D01*
X43274000Y-22065000D02*
X43401000Y-21938000D01*
X34130000Y-22065000D02*
X43274000Y-22065000D01*
X46449000Y-27018000D02*
X48989000Y-24478000D01*
X48989000Y-24478000D02*
X52164000Y-24478000D01*
X44544000Y-27018000D02*
X46449000Y-27018000D01*
X24140000Y-68549000D02*
X18270000Y-68549000D01*
X31590000Y-70960000D02*
X51910000Y-70960000D01*
X29179000Y-68549000D02*
X31590000Y-70960000D01*
X24140000Y-68549000D02*
X29179000Y-68549000D01*
X24550000Y-65755000D02*
X18270000Y-65755000D01*
X24550000Y-65755000D02*
X51785000Y-65755000D01*
X51785000Y-65755000D02*
X51910000Y-65880000D01*
X25100000Y-62961000D02*
X18270000Y-62961000D01*
X47209000Y-62961000D02*
X49370000Y-60800000D01*
X25100000Y-62961000D02*
X47209000Y-62961000D01*
X49370000Y-60800000D02*
X51910000Y-60800000D01*
X24700000Y-60167000D02*
X18270000Y-60167000D01*
X24700000Y-60167000D02*
X45177000Y-60167000D01*
X45177000Y-60167000D02*
X49624000Y-55720000D01*
X49624000Y-55720000D02*
X51910000Y-55720000D01*
X25120000Y-69895200D02*
X15730000Y-69895200D01*
X31590000Y-73500000D02*
X51910000Y-73500000D01*
X27985200Y-69895200D02*
X31590000Y-73500000D01*
X25120000Y-69895200D02*
X27985200Y-69895200D01*
X23500000Y-67101200D02*
X15730000Y-67101200D01*
X31590000Y-68420000D02*
X51910000Y-68420000D01*
X30271200Y-67101200D02*
X31590000Y-68420000D01*
X23500000Y-67101200D02*
X30271200Y-67101200D01*
X21840000Y-64358000D02*
X15730000Y-64358000D01*
X49370000Y-63340000D02*
X51910000Y-63340000D01*
X48352000Y-64358000D02*
X49370000Y-63340000D01*
X21840000Y-64358000D02*
X48352000Y-64358000D01*
X22880000Y-61614800D02*
X15730000Y-61614800D01*
X46015200Y-61614800D02*
X49370000Y-58260000D01*
X22880000Y-61614800D02*
X46015200Y-61614800D01*
X49370000Y-58260000D02*
X51910000Y-58260000D01*
G36*
X104569000Y-96348473D02*
X104224815Y-95515482D01*
X102581983Y-93869780D01*
X102581983Y-66388000D01*
X102581983Y-63848000D01*
X102487243Y-63371712D01*
X102217448Y-62967935D01*
X101813671Y-62698140D01*
X101337383Y-62603400D01*
X101288617Y-62603400D01*
X100812329Y-62698140D01*
X100408552Y-62967935D01*
X100309144Y-63116709D01*
X100309144Y-53387698D01*
X100309144Y-29257698D01*
X100281362Y-28702632D01*
X100122397Y-28318857D01*
X100043198Y-28296140D01*
X100043198Y-26283641D01*
X99869554Y-25863388D01*
X99548303Y-25541577D01*
X99128354Y-25367199D01*
X98673641Y-25366802D01*
X98253388Y-25540446D01*
X97931577Y-25861697D01*
X97757199Y-26281646D01*
X97756802Y-26736359D01*
X97930446Y-27156612D01*
X98251697Y-27478423D01*
X98671646Y-27652801D01*
X98865660Y-27652970D01*
X98552632Y-27668638D01*
X98168857Y-27827603D01*
X98099392Y-28069787D01*
X98900000Y-28870395D01*
X99700608Y-28069787D01*
X99631143Y-27827603D01*
X99133741Y-27650147D01*
X99546612Y-27479554D01*
X99868423Y-27158303D01*
X100042801Y-26738354D01*
X100043198Y-26283641D01*
X100043198Y-28296140D01*
X99880213Y-28249392D01*
X99079605Y-29050000D01*
X99880213Y-29850608D01*
X100122397Y-29781143D01*
X100309144Y-29257698D01*
X100309144Y-53387698D01*
X100281362Y-52832632D01*
X100122397Y-52448857D01*
X100050464Y-52428224D01*
X100050464Y-32352000D01*
X100050464Y-30828000D01*
X100022278Y-30682726D01*
X99938404Y-30555044D01*
X99811784Y-30469574D01*
X99662000Y-30439536D01*
X99084056Y-30439536D01*
X99247368Y-30431362D01*
X99631143Y-30272397D01*
X99700608Y-30030213D01*
X98900000Y-29229605D01*
X98720395Y-29409210D01*
X98720395Y-29050000D01*
X97919787Y-28249392D01*
X97677603Y-28318857D01*
X97490856Y-28842302D01*
X97518638Y-29397368D01*
X97677603Y-29781143D01*
X97919787Y-29850608D01*
X98720395Y-29050000D01*
X98720395Y-29409210D01*
X98099392Y-30030213D01*
X98168857Y-30272397D01*
X98637341Y-30439536D01*
X98138000Y-30439536D01*
X97992726Y-30467722D01*
X97865044Y-30551596D01*
X97779574Y-30678216D01*
X97749536Y-30828000D01*
X97749536Y-32352000D01*
X97777722Y-32497274D01*
X97861596Y-32624956D01*
X97988216Y-32710426D01*
X98138000Y-32740464D01*
X99662000Y-32740464D01*
X99807274Y-32712278D01*
X99934956Y-32628404D01*
X100020426Y-32501784D01*
X100050464Y-32352000D01*
X100050464Y-52428224D01*
X100043198Y-52426140D01*
X100043198Y-50413641D01*
X100043198Y-47873641D01*
X99869554Y-47453388D01*
X99548303Y-47131577D01*
X99128354Y-46957199D01*
X98673641Y-46956802D01*
X98253388Y-47130446D01*
X97931577Y-47451697D01*
X97873318Y-47592000D01*
X94846826Y-47592000D01*
X94789554Y-47453388D01*
X94468303Y-47131577D01*
X94048354Y-46957199D01*
X93593641Y-46956802D01*
X93453236Y-47014815D01*
X91639210Y-45200790D01*
X91474403Y-45090669D01*
X91280000Y-45052000D01*
X65689510Y-45052000D01*
X65838998Y-44990233D01*
X66031566Y-44798000D01*
X67277000Y-44798000D01*
X67471403Y-44759331D01*
X67603599Y-44671000D01*
X88207697Y-44671000D01*
X88398781Y-44862417D01*
X88702077Y-44988357D01*
X89030482Y-44988643D01*
X89333998Y-44863233D01*
X89566417Y-44631219D01*
X89692357Y-44327923D01*
X89692643Y-43999518D01*
X89567233Y-43696002D01*
X89399523Y-43528000D01*
X90290233Y-43528000D01*
X90325767Y-43613998D01*
X90557781Y-43846417D01*
X90861077Y-43972357D01*
X91189482Y-43972643D01*
X91492998Y-43847233D01*
X91725417Y-43615219D01*
X91851357Y-43311923D01*
X91851643Y-42983518D01*
X91726233Y-42680002D01*
X91494219Y-42447583D01*
X91190923Y-42321643D01*
X90862518Y-42321357D01*
X90559002Y-42446767D01*
X90493655Y-42512000D01*
X63149510Y-42512000D01*
X63298998Y-42450233D01*
X63491566Y-42258000D01*
X86073000Y-42258000D01*
X86267403Y-42219331D01*
X86432210Y-42109210D01*
X86982012Y-41559407D01*
X87252482Y-41559643D01*
X87555998Y-41434233D01*
X87788417Y-41202219D01*
X87914357Y-40898923D01*
X87914643Y-40570518D01*
X87789233Y-40267002D01*
X87557219Y-40034583D01*
X87253923Y-39908643D01*
X86925518Y-39908357D01*
X86622002Y-40033767D01*
X86389583Y-40265781D01*
X86263643Y-40569077D01*
X86263406Y-40841173D01*
X85862580Y-41242000D01*
X69753643Y-41242000D01*
X69753643Y-23425518D01*
X69628233Y-23122002D01*
X69396219Y-22889583D01*
X69092923Y-22763643D01*
X68764518Y-22763357D01*
X68714460Y-22784040D01*
X67509210Y-21578790D01*
X67344403Y-21468669D01*
X67150000Y-21430000D01*
X61083857Y-21430000D01*
X61083857Y-19525000D01*
X60994918Y-19077873D01*
X60741641Y-18698816D01*
X60362584Y-18445539D01*
X59915457Y-18356600D01*
X59144543Y-18356600D01*
X58697416Y-18445539D01*
X58318359Y-18698816D01*
X58065082Y-19077873D01*
X57976143Y-19525000D01*
X58065082Y-19972127D01*
X58318359Y-20351184D01*
X58697416Y-20604461D01*
X59144543Y-20693400D01*
X59915457Y-20693400D01*
X60362584Y-20604461D01*
X60741641Y-20351184D01*
X60994918Y-19972127D01*
X61083857Y-19525000D01*
X61083857Y-21430000D01*
X60869385Y-21430000D01*
X60741641Y-21238816D01*
X60362584Y-20985539D01*
X59915457Y-20896600D01*
X59144543Y-20896600D01*
X58697416Y-20985539D01*
X58318359Y-21238816D01*
X58065082Y-21617873D01*
X57976143Y-22065000D01*
X58065082Y-22512127D01*
X58318359Y-22891184D01*
X58697416Y-23144461D01*
X59144543Y-23233400D01*
X59915457Y-23233400D01*
X60362584Y-23144461D01*
X60741641Y-22891184D01*
X60994918Y-22512127D01*
X61008071Y-22446000D01*
X66939579Y-22446000D01*
X68102482Y-23608902D01*
X68102357Y-23752482D01*
X68227767Y-24055998D01*
X68459781Y-24288417D01*
X68763077Y-24414357D01*
X69091482Y-24414643D01*
X69394998Y-24289233D01*
X69627417Y-24057219D01*
X69753357Y-23753923D01*
X69753643Y-23425518D01*
X69753643Y-41242000D01*
X65816643Y-41242000D01*
X65816643Y-28886518D01*
X65691233Y-28583002D01*
X65499000Y-28390433D01*
X65499000Y-26637000D01*
X65460331Y-26442597D01*
X65460331Y-26442596D01*
X65350210Y-26277790D01*
X63191210Y-24118790D01*
X63026403Y-24008669D01*
X62832000Y-23970000D01*
X60869385Y-23970000D01*
X60741641Y-23778816D01*
X60362584Y-23525539D01*
X59915457Y-23436600D01*
X59144543Y-23436600D01*
X58697416Y-23525539D01*
X58318359Y-23778816D01*
X58065082Y-24157873D01*
X57976143Y-24605000D01*
X58065082Y-25052127D01*
X58318359Y-25431184D01*
X58697416Y-25684461D01*
X59144543Y-25773400D01*
X59915457Y-25773400D01*
X60362584Y-25684461D01*
X60741641Y-25431184D01*
X60994918Y-25052127D01*
X61008071Y-24986000D01*
X62621580Y-24986000D01*
X64483000Y-26847420D01*
X64483000Y-28390697D01*
X64291583Y-28581781D01*
X64165643Y-28885077D01*
X64165357Y-29213482D01*
X64290767Y-29516998D01*
X64522781Y-29749417D01*
X64826077Y-29875357D01*
X65154482Y-29875643D01*
X65457998Y-29750233D01*
X65690417Y-29518219D01*
X65816357Y-29214923D01*
X65816643Y-28886518D01*
X65816643Y-41242000D01*
X63657643Y-41242000D01*
X63657643Y-27108518D01*
X63532233Y-26805002D01*
X63300219Y-26572583D01*
X62996923Y-26446643D01*
X62668518Y-26446357D01*
X62365002Y-26571767D01*
X62299655Y-26637000D01*
X61061464Y-26637000D01*
X61061464Y-26357600D01*
X61033278Y-26212326D01*
X60949404Y-26084644D01*
X60822784Y-25999174D01*
X60673000Y-25969136D01*
X58387000Y-25969136D01*
X58241726Y-25997322D01*
X58114044Y-26081196D01*
X58028574Y-26207816D01*
X57998536Y-26357600D01*
X57998536Y-27932400D01*
X58026722Y-28077674D01*
X58110596Y-28205356D01*
X58237216Y-28290826D01*
X58387000Y-28320864D01*
X60673000Y-28320864D01*
X60818274Y-28292678D01*
X60945956Y-28208804D01*
X61031426Y-28082184D01*
X61061464Y-27932400D01*
X61061464Y-27653000D01*
X62096233Y-27653000D01*
X62131767Y-27738998D01*
X62363781Y-27971417D01*
X62667077Y-28097357D01*
X62995482Y-28097643D01*
X63298998Y-27972233D01*
X63531417Y-27740219D01*
X63657357Y-27436923D01*
X63657643Y-27108518D01*
X63657643Y-41242000D01*
X63491302Y-41242000D01*
X63300219Y-41050583D01*
X62996923Y-40924643D01*
X62668518Y-40924357D01*
X62365002Y-41049767D01*
X62172433Y-41242000D01*
X61689000Y-41242000D01*
X60784527Y-41242000D01*
X60994918Y-40927127D01*
X61083857Y-40480000D01*
X60994918Y-40032873D01*
X60741641Y-39653816D01*
X60362584Y-39400539D01*
X59915457Y-39311600D01*
X59381178Y-39311600D01*
X59381178Y-30901821D01*
X59224549Y-30522749D01*
X58934777Y-30232471D01*
X58555978Y-30075180D01*
X58145821Y-30074822D01*
X57766749Y-30231451D01*
X57476471Y-30521223D01*
X57319180Y-30900022D01*
X57318822Y-31310179D01*
X57475451Y-31689251D01*
X57765223Y-31979529D01*
X58144022Y-32136820D01*
X58554179Y-32137178D01*
X58933251Y-31980549D01*
X59223529Y-31690777D01*
X59380820Y-31311978D01*
X59381178Y-30901821D01*
X59381178Y-39311600D01*
X59144543Y-39311600D01*
X58697416Y-39400539D01*
X58318359Y-39653816D01*
X58065082Y-40032873D01*
X57976143Y-40480000D01*
X58065082Y-40927127D01*
X58275472Y-41242000D01*
X57327420Y-41242000D01*
X56841213Y-40755793D01*
X56841211Y-40755790D01*
X56206210Y-40120790D01*
X56041403Y-40010669D01*
X55847000Y-39972000D01*
X54635000Y-39972000D01*
X54635000Y-31882310D01*
X54635000Y-31629691D01*
X54635000Y-31391750D01*
X54635000Y-30820250D01*
X54635000Y-30582309D01*
X54635000Y-30329690D01*
X54538327Y-30096301D01*
X54359698Y-29917673D01*
X54126309Y-29821000D01*
X53645010Y-29821000D01*
X53645010Y-27492060D01*
X53645010Y-26797940D01*
X53628327Y-26718004D01*
X53361191Y-26229014D01*
X52927262Y-25879475D01*
X52456535Y-25741359D01*
X52742584Y-25684461D01*
X53121641Y-25431184D01*
X53374918Y-25052127D01*
X53463857Y-24605000D01*
X53463857Y-22065000D01*
X53463857Y-19525000D01*
X53374918Y-19077873D01*
X53121641Y-18698816D01*
X52742584Y-18445539D01*
X52295457Y-18356600D01*
X51524543Y-18356600D01*
X51077416Y-18445539D01*
X50698359Y-18698816D01*
X50570614Y-18890000D01*
X47094053Y-18890000D01*
X46845448Y-18517935D01*
X46441671Y-18248140D01*
X45965383Y-18153400D01*
X45916617Y-18153400D01*
X45440329Y-18248140D01*
X45036552Y-18517935D01*
X44766757Y-18921712D01*
X44672017Y-19398000D01*
X44766757Y-19874288D01*
X45036552Y-20278065D01*
X45440329Y-20547860D01*
X45916617Y-20642600D01*
X45965383Y-20642600D01*
X46441671Y-20547860D01*
X46845448Y-20278065D01*
X47094053Y-19906000D01*
X50431928Y-19906000D01*
X50445082Y-19972127D01*
X50698359Y-20351184D01*
X51077416Y-20604461D01*
X51524543Y-20693400D01*
X52295457Y-20693400D01*
X52742584Y-20604461D01*
X53121641Y-20351184D01*
X53374918Y-19972127D01*
X53463857Y-19525000D01*
X53463857Y-22065000D01*
X53374918Y-21617873D01*
X53121641Y-21238816D01*
X52742584Y-20985539D01*
X52295457Y-20896600D01*
X51524543Y-20896600D01*
X51077416Y-20985539D01*
X50698359Y-21238816D01*
X50570614Y-21430000D01*
X47094053Y-21430000D01*
X46845448Y-21057935D01*
X46441671Y-20788140D01*
X45965383Y-20693400D01*
X45916617Y-20693400D01*
X45440329Y-20788140D01*
X45036552Y-21057935D01*
X44766757Y-21461712D01*
X44672017Y-21938000D01*
X44766757Y-22414288D01*
X45036552Y-22818065D01*
X45440329Y-23087860D01*
X45916617Y-23182600D01*
X45965383Y-23182600D01*
X46441671Y-23087860D01*
X46845448Y-22818065D01*
X47094053Y-22446000D01*
X50431928Y-22446000D01*
X50445082Y-22512127D01*
X50698359Y-22891184D01*
X51077416Y-23144461D01*
X51524543Y-23233400D01*
X52295457Y-23233400D01*
X52742584Y-23144461D01*
X53121641Y-22891184D01*
X53374918Y-22512127D01*
X53463857Y-22065000D01*
X53463857Y-24605000D01*
X53374918Y-24157873D01*
X53121641Y-23778816D01*
X52742584Y-23525539D01*
X52295457Y-23436600D01*
X51524543Y-23436600D01*
X51077416Y-23525539D01*
X50698359Y-23778816D01*
X50570614Y-23970000D01*
X48989000Y-23970000D01*
X48794597Y-24008669D01*
X48739910Y-24045209D01*
X48629789Y-24118790D01*
X46238579Y-26510000D01*
X45948464Y-26510000D01*
X45948464Y-26002000D01*
X45920278Y-25856726D01*
X45836404Y-25729044D01*
X45709784Y-25643574D01*
X45560000Y-25613536D01*
X44669983Y-25613536D01*
X44669983Y-21938000D01*
X44653064Y-21852942D01*
X44653064Y-20261600D01*
X44653064Y-18534400D01*
X44624878Y-18389126D01*
X44541004Y-18261444D01*
X44414384Y-18175974D01*
X44264600Y-18145936D01*
X42537400Y-18145936D01*
X42392126Y-18174122D01*
X42264444Y-18257996D01*
X42178974Y-18384616D01*
X42148936Y-18534400D01*
X42148936Y-18890000D01*
X33749000Y-18890000D01*
X33554596Y-18928669D01*
X33389790Y-19038790D01*
X31506653Y-20921926D01*
X31363641Y-20921802D01*
X30943388Y-21095446D01*
X30621577Y-21416697D01*
X30447199Y-21836646D01*
X30446802Y-22291359D01*
X30620446Y-22711612D01*
X30941697Y-23033423D01*
X31361646Y-23207801D01*
X31816359Y-23208198D01*
X32236612Y-23034554D01*
X32558423Y-22713303D01*
X32732801Y-22293354D01*
X32733198Y-21838641D01*
X32559554Y-21418388D01*
X32503341Y-21362078D01*
X33959420Y-19906000D01*
X42148936Y-19906000D01*
X42148936Y-20261600D01*
X42177122Y-20406874D01*
X42260996Y-20534556D01*
X42387616Y-20620026D01*
X42537400Y-20650064D01*
X44264600Y-20650064D01*
X44409874Y-20621878D01*
X44537556Y-20538004D01*
X44623026Y-20411384D01*
X44653064Y-20261600D01*
X44653064Y-21852942D01*
X44575243Y-21461712D01*
X44305448Y-21057935D01*
X43901671Y-20788140D01*
X43425383Y-20693400D01*
X43376617Y-20693400D01*
X42900329Y-20788140D01*
X42496552Y-21057935D01*
X42226757Y-21461712D01*
X42207802Y-21557000D01*
X35156826Y-21557000D01*
X35099554Y-21418388D01*
X34778303Y-21096577D01*
X34358354Y-20922199D01*
X33903641Y-20921802D01*
X33483388Y-21095446D01*
X33161577Y-21416697D01*
X32987199Y-21836646D01*
X32986802Y-22291359D01*
X33160446Y-22711612D01*
X33481697Y-23033423D01*
X33901646Y-23207801D01*
X34356359Y-23208198D01*
X34776612Y-23034554D01*
X35098423Y-22713303D01*
X35156681Y-22573000D01*
X42332804Y-22573000D01*
X42496552Y-22818065D01*
X42900329Y-23087860D01*
X43376617Y-23182600D01*
X43425383Y-23182600D01*
X43901671Y-23087860D01*
X44305448Y-22818065D01*
X44575243Y-22414288D01*
X44669983Y-21938000D01*
X44669983Y-25613536D01*
X43528000Y-25613536D01*
X43382726Y-25641722D01*
X43255044Y-25725596D01*
X43169574Y-25852216D01*
X43139536Y-26002000D01*
X43139536Y-26223863D01*
X42991828Y-26002803D01*
X42538609Y-25699971D01*
X42004000Y-25593631D01*
X41469391Y-25699971D01*
X41016172Y-26002803D01*
X40713340Y-26456022D01*
X40607000Y-26990631D01*
X40607000Y-27045369D01*
X40713340Y-27579978D01*
X41016172Y-28033197D01*
X41469391Y-28336029D01*
X42004000Y-28442369D01*
X42538609Y-28336029D01*
X42991828Y-28033197D01*
X43139536Y-27812136D01*
X43139536Y-28034000D01*
X43167722Y-28179274D01*
X43251596Y-28306956D01*
X43378216Y-28392426D01*
X43528000Y-28422464D01*
X45560000Y-28422464D01*
X45705274Y-28394278D01*
X45832956Y-28310404D01*
X45918426Y-28183784D01*
X45948464Y-28034000D01*
X45948464Y-27526000D01*
X46449000Y-27526000D01*
X46643403Y-27487331D01*
X46808210Y-27377210D01*
X49199420Y-24986000D01*
X50431928Y-24986000D01*
X50445082Y-25052127D01*
X50698359Y-25431184D01*
X51077416Y-25684461D01*
X51363464Y-25741359D01*
X50892738Y-25879475D01*
X50458809Y-26229014D01*
X50191673Y-26718004D01*
X50174990Y-26797940D01*
X50297148Y-27018000D01*
X51783000Y-27018000D01*
X51783000Y-26998000D01*
X52037000Y-26998000D01*
X52037000Y-27018000D01*
X53522852Y-27018000D01*
X53645010Y-26797940D01*
X53645010Y-27492060D01*
X53522852Y-27272000D01*
X52037000Y-27272000D01*
X52037000Y-28567400D01*
X52392600Y-28567400D01*
X52927262Y-28410525D01*
X53361191Y-28060986D01*
X53628327Y-27571996D01*
X53645010Y-27492060D01*
X53645010Y-29821000D01*
X53635750Y-29821000D01*
X53477000Y-29979750D01*
X53477000Y-30979000D01*
X54476250Y-30979000D01*
X54635000Y-30820250D01*
X54635000Y-31391750D01*
X54476250Y-31233000D01*
X53477000Y-31233000D01*
X53477000Y-32232250D01*
X53635750Y-32391000D01*
X54126309Y-32391000D01*
X54359698Y-32294327D01*
X54538327Y-32115699D01*
X54635000Y-31882310D01*
X54635000Y-39972000D01*
X53334244Y-39972000D01*
X53223000Y-39805510D01*
X53223000Y-32232250D01*
X53223000Y-31233000D01*
X53223000Y-30979000D01*
X53223000Y-29979750D01*
X53064250Y-29821000D01*
X52573691Y-29821000D01*
X52340302Y-29917673D01*
X52161673Y-30096301D01*
X52065000Y-30329690D01*
X52065000Y-30582309D01*
X52065000Y-30820250D01*
X52223750Y-30979000D01*
X53223000Y-30979000D01*
X53223000Y-31233000D01*
X52223750Y-31233000D01*
X52065000Y-31391750D01*
X52065000Y-31629691D01*
X52065000Y-31882310D01*
X52161673Y-32115699D01*
X52340302Y-32294327D01*
X52573691Y-32391000D01*
X53064250Y-32391000D01*
X53223000Y-32232250D01*
X53223000Y-39805510D01*
X53121641Y-39653816D01*
X52742584Y-39400539D01*
X52295457Y-39311600D01*
X51783000Y-39311600D01*
X51783000Y-28567400D01*
X51783000Y-27272000D01*
X50297148Y-27272000D01*
X50174990Y-27492060D01*
X50191673Y-27571996D01*
X50458809Y-28060986D01*
X50892738Y-28410525D01*
X51427400Y-28567400D01*
X51783000Y-28567400D01*
X51783000Y-39311600D01*
X51524543Y-39311600D01*
X51077416Y-39400539D01*
X50698359Y-39653816D01*
X50445082Y-40032873D01*
X50356143Y-40480000D01*
X50445082Y-40927127D01*
X50698359Y-41306184D01*
X51077416Y-41559461D01*
X51524543Y-41648400D01*
X52295457Y-41648400D01*
X52742584Y-41559461D01*
X53121641Y-41306184D01*
X53334244Y-40988000D01*
X55636579Y-40988000D01*
X56122790Y-41474211D01*
X56122793Y-41474213D01*
X56757790Y-42109211D01*
X56922597Y-42219331D01*
X57117000Y-42258000D01*
X58275472Y-42258000D01*
X58065082Y-42572873D01*
X57976143Y-43020000D01*
X58065082Y-43467127D01*
X58275472Y-43782000D01*
X56946420Y-43782000D01*
X55825210Y-42660790D01*
X55660403Y-42550669D01*
X55466000Y-42512000D01*
X53334244Y-42512000D01*
X53121641Y-42193816D01*
X52742584Y-41940539D01*
X52295457Y-41851600D01*
X51524543Y-41851600D01*
X51077416Y-41940539D01*
X50698359Y-42193816D01*
X50445082Y-42572873D01*
X50356143Y-43020000D01*
X50445082Y-43467127D01*
X50698359Y-43846184D01*
X51077416Y-44099461D01*
X51524543Y-44188400D01*
X52295457Y-44188400D01*
X52742584Y-44099461D01*
X53121641Y-43846184D01*
X53334244Y-43528000D01*
X55255580Y-43528000D01*
X56376790Y-44649210D01*
X56541596Y-44759331D01*
X56541597Y-44759331D01*
X56573849Y-44765746D01*
X56736000Y-44798000D01*
X58275472Y-44798000D01*
X58065082Y-45112873D01*
X57976143Y-45560000D01*
X58065082Y-46007127D01*
X58275472Y-46322000D01*
X56565420Y-46322000D01*
X55444210Y-45200790D01*
X55279403Y-45090669D01*
X55085000Y-45052000D01*
X53334244Y-45052000D01*
X53121641Y-44733816D01*
X52742584Y-44480539D01*
X52295457Y-44391600D01*
X51524543Y-44391600D01*
X51077416Y-44480539D01*
X50698359Y-44733816D01*
X50445082Y-45112873D01*
X50356143Y-45560000D01*
X50445082Y-46007127D01*
X50698359Y-46386184D01*
X51077416Y-46639461D01*
X51524543Y-46728400D01*
X52295457Y-46728400D01*
X52742584Y-46639461D01*
X53121641Y-46386184D01*
X53334244Y-46068000D01*
X54874580Y-46068000D01*
X55995790Y-47189210D01*
X56160596Y-47299331D01*
X56160597Y-47299331D01*
X56192849Y-47305746D01*
X56355000Y-47338000D01*
X58275472Y-47338000D01*
X58065082Y-47652873D01*
X57976143Y-48100000D01*
X58065082Y-48547127D01*
X58318359Y-48926184D01*
X58697416Y-49179461D01*
X59144543Y-49268400D01*
X59915457Y-49268400D01*
X60362584Y-49179461D01*
X60741641Y-48926184D01*
X60994918Y-48547127D01*
X61083857Y-48100000D01*
X60994918Y-47652873D01*
X60784527Y-47338000D01*
X69411697Y-47338000D01*
X69602781Y-47529417D01*
X69906077Y-47655357D01*
X70234482Y-47655643D01*
X70537998Y-47530233D01*
X70730566Y-47338000D01*
X84016697Y-47338000D01*
X84207781Y-47529417D01*
X84511077Y-47655357D01*
X84839482Y-47655643D01*
X85142998Y-47530233D01*
X85375417Y-47298219D01*
X85501357Y-46994923D01*
X85501643Y-46666518D01*
X85376233Y-46363002D01*
X85144219Y-46130583D01*
X84993502Y-46068000D01*
X91069579Y-46068000D01*
X92734713Y-47733134D01*
X92677199Y-47871646D01*
X92676802Y-48326359D01*
X92850446Y-48746612D01*
X93171697Y-49068423D01*
X93591646Y-49242801D01*
X94046359Y-49243198D01*
X94466612Y-49069554D01*
X94788423Y-48748303D01*
X94846681Y-48608000D01*
X97873173Y-48608000D01*
X97930446Y-48746612D01*
X98251697Y-49068423D01*
X98671646Y-49242801D01*
X99126359Y-49243198D01*
X99546612Y-49069554D01*
X99868423Y-48748303D01*
X100042801Y-48328354D01*
X100043198Y-47873641D01*
X100043198Y-50413641D01*
X99869554Y-49993388D01*
X99548303Y-49671577D01*
X99128354Y-49497199D01*
X98673641Y-49496802D01*
X98253388Y-49670446D01*
X97931577Y-49991697D01*
X97873318Y-50132000D01*
X94846826Y-50132000D01*
X94789554Y-49993388D01*
X94468303Y-49671577D01*
X94048354Y-49497199D01*
X93593641Y-49496802D01*
X93173388Y-49670446D01*
X92851577Y-49991697D01*
X92677199Y-50411646D01*
X92676802Y-50866359D01*
X92850446Y-51286612D01*
X93171697Y-51608423D01*
X93591646Y-51782801D01*
X93785660Y-51782970D01*
X93472632Y-51798638D01*
X93088857Y-51957603D01*
X93019392Y-52199787D01*
X93820000Y-53000395D01*
X94620608Y-52199787D01*
X94551143Y-51957603D01*
X94053741Y-51780147D01*
X94466612Y-51609554D01*
X94788423Y-51288303D01*
X94846681Y-51148000D01*
X97873173Y-51148000D01*
X97930446Y-51286612D01*
X98251697Y-51608423D01*
X98671646Y-51782801D01*
X98865660Y-51782970D01*
X98552632Y-51798638D01*
X98168857Y-51957603D01*
X98099392Y-52199787D01*
X98900000Y-53000395D01*
X99700608Y-52199787D01*
X99631143Y-51957603D01*
X99133741Y-51780147D01*
X99546612Y-51609554D01*
X99868423Y-51288303D01*
X100042801Y-50868354D01*
X100043198Y-50413641D01*
X100043198Y-52426140D01*
X99880213Y-52379392D01*
X99079605Y-53180000D01*
X99880213Y-53980608D01*
X100122397Y-53911143D01*
X100309144Y-53387698D01*
X100309144Y-63116709D01*
X100138757Y-63371712D01*
X100050464Y-63815588D01*
X100050464Y-56482000D01*
X100050464Y-54958000D01*
X100022278Y-54812726D01*
X99938404Y-54685044D01*
X99811784Y-54599574D01*
X99662000Y-54569536D01*
X99084056Y-54569536D01*
X99247368Y-54561362D01*
X99631143Y-54402397D01*
X99700608Y-54160213D01*
X98900000Y-53359605D01*
X98720395Y-53539210D01*
X98720395Y-53180000D01*
X97919787Y-52379392D01*
X97677603Y-52448857D01*
X97490856Y-52972302D01*
X97518638Y-53527368D01*
X97677603Y-53911143D01*
X97919787Y-53980608D01*
X98720395Y-53180000D01*
X98720395Y-53539210D01*
X98099392Y-54160213D01*
X98168857Y-54402397D01*
X98637341Y-54569536D01*
X98138000Y-54569536D01*
X97992726Y-54597722D01*
X97865044Y-54681596D01*
X97779574Y-54808216D01*
X97749536Y-54958000D01*
X97749536Y-55212000D01*
X95229144Y-55212000D01*
X95229144Y-53387698D01*
X95201362Y-52832632D01*
X95042397Y-52448857D01*
X94800213Y-52379392D01*
X93999605Y-53180000D01*
X94800213Y-53980608D01*
X95042397Y-53911143D01*
X95229144Y-53387698D01*
X95229144Y-55212000D01*
X94970464Y-55212000D01*
X94970464Y-54958000D01*
X94942278Y-54812726D01*
X94858404Y-54685044D01*
X94731784Y-54599574D01*
X94582000Y-54569536D01*
X94004056Y-54569536D01*
X94167368Y-54561362D01*
X94551143Y-54402397D01*
X94620608Y-54160213D01*
X93820000Y-53359605D01*
X93640395Y-53539210D01*
X93640395Y-53180000D01*
X92839787Y-52379392D01*
X92597603Y-52448857D01*
X92410856Y-52972302D01*
X92438638Y-53527368D01*
X92597603Y-53911143D01*
X92839787Y-53980608D01*
X93640395Y-53180000D01*
X93640395Y-53539210D01*
X93019392Y-54160213D01*
X93088857Y-54402397D01*
X93557341Y-54569536D01*
X93058000Y-54569536D01*
X92912726Y-54597722D01*
X92785044Y-54681596D01*
X92699574Y-54808216D01*
X92669536Y-54958000D01*
X92669536Y-56482000D01*
X92697722Y-56627274D01*
X92781596Y-56754956D01*
X92908216Y-56840426D01*
X93058000Y-56870464D01*
X94582000Y-56870464D01*
X94727274Y-56842278D01*
X94854956Y-56758404D01*
X94940426Y-56631784D01*
X94970464Y-56482000D01*
X94970464Y-56228000D01*
X97749536Y-56228000D01*
X97749536Y-56482000D01*
X97777722Y-56627274D01*
X97861596Y-56754956D01*
X97988216Y-56840426D01*
X98138000Y-56870464D01*
X99662000Y-56870464D01*
X99807274Y-56842278D01*
X99934956Y-56758404D01*
X100020426Y-56631784D01*
X100050464Y-56482000D01*
X100050464Y-63815588D01*
X100044017Y-63848000D01*
X100138757Y-64324288D01*
X100408552Y-64728065D01*
X100812329Y-64997860D01*
X101288617Y-65092600D01*
X101337383Y-65092600D01*
X101813671Y-64997860D01*
X102217448Y-64728065D01*
X102487243Y-64324288D01*
X102581983Y-63848000D01*
X102581983Y-66388000D01*
X102487243Y-65911712D01*
X102217448Y-65507935D01*
X101813671Y-65238140D01*
X101337383Y-65143400D01*
X101288617Y-65143400D01*
X100812329Y-65238140D01*
X100408552Y-65507935D01*
X100138757Y-65911712D01*
X100044017Y-66388000D01*
X100138757Y-66864288D01*
X100408552Y-67268065D01*
X100812329Y-67537860D01*
X101288617Y-67632600D01*
X101337383Y-67632600D01*
X101813671Y-67537860D01*
X102217448Y-67268065D01*
X102487243Y-66864288D01*
X102581983Y-66388000D01*
X102581983Y-93869780D01*
X102565064Y-93852831D01*
X102565064Y-69791600D01*
X102565064Y-68064400D01*
X102536878Y-67919126D01*
X102453004Y-67791444D01*
X102326384Y-67705974D01*
X102176600Y-67675936D01*
X100449400Y-67675936D01*
X100304126Y-67704122D01*
X100176444Y-67787996D01*
X100090974Y-67914616D01*
X100060936Y-68064400D01*
X100060936Y-69791600D01*
X100089122Y-69936874D01*
X100172996Y-70064556D01*
X100299616Y-70150026D01*
X100449400Y-70180064D01*
X102176600Y-70180064D01*
X102321874Y-70151878D01*
X102449556Y-70068004D01*
X102535026Y-69941384D01*
X102565064Y-69791600D01*
X102565064Y-93852831D01*
X102493632Y-93781275D01*
X100230575Y-92841571D01*
X100050464Y-92841413D01*
X100050464Y-89502000D01*
X100050464Y-87978000D01*
X100043198Y-87940550D01*
X100043198Y-85973641D01*
X100043198Y-83433641D01*
X100041983Y-83430700D01*
X100041983Y-68928000D01*
X100041983Y-66388000D01*
X100041983Y-63848000D01*
X99947243Y-63371712D01*
X99677448Y-62967935D01*
X99273671Y-62698140D01*
X98797383Y-62603400D01*
X98748617Y-62603400D01*
X98272329Y-62698140D01*
X97868552Y-62967935D01*
X97619946Y-63340000D01*
X88740000Y-63340000D01*
X88545597Y-63378669D01*
X88490910Y-63415209D01*
X88380789Y-63488790D01*
X87259542Y-64610037D01*
X86989641Y-64609802D01*
X86569388Y-64783446D01*
X86247577Y-65104697D01*
X86073199Y-65524646D01*
X86072802Y-65979359D01*
X86246446Y-66399612D01*
X86567697Y-66721423D01*
X86987646Y-66895801D01*
X87442359Y-66896198D01*
X87862612Y-66722554D01*
X88184423Y-66401303D01*
X88358801Y-65981354D01*
X88359198Y-65526641D01*
X88189787Y-65116633D01*
X88950420Y-64356000D01*
X97619946Y-64356000D01*
X97868552Y-64728065D01*
X98272329Y-64997860D01*
X98748617Y-65092600D01*
X98797383Y-65092600D01*
X99273671Y-64997860D01*
X99677448Y-64728065D01*
X99947243Y-64324288D01*
X100041983Y-63848000D01*
X100041983Y-66388000D01*
X99947243Y-65911712D01*
X99677448Y-65507935D01*
X99273671Y-65238140D01*
X98797383Y-65143400D01*
X98748617Y-65143400D01*
X98272329Y-65238140D01*
X97868552Y-65507935D01*
X97619946Y-65880000D01*
X94792420Y-65880000D01*
X94306210Y-65393790D01*
X94141403Y-65283669D01*
X93947000Y-65245000D01*
X90782826Y-65245000D01*
X90725554Y-65106388D01*
X90404303Y-64784577D01*
X89984354Y-64610199D01*
X89529641Y-64609802D01*
X89109388Y-64783446D01*
X88787577Y-65104697D01*
X88613199Y-65524646D01*
X88612802Y-65979359D01*
X88786446Y-66399612D01*
X89107697Y-66721423D01*
X89527646Y-66895801D01*
X89982359Y-66896198D01*
X90402612Y-66722554D01*
X90724423Y-66401303D01*
X90782681Y-66261000D01*
X93736579Y-66261000D01*
X94222790Y-66747211D01*
X94387597Y-66857331D01*
X94582000Y-66896000D01*
X97619946Y-66896000D01*
X97868552Y-67268065D01*
X98272329Y-67537860D01*
X98748617Y-67632600D01*
X98797383Y-67632600D01*
X99273671Y-67537860D01*
X99677448Y-67268065D01*
X99947243Y-66864288D01*
X100041983Y-66388000D01*
X100041983Y-68928000D01*
X99947243Y-68451712D01*
X99677448Y-68047935D01*
X99273671Y-67778140D01*
X98797383Y-67683400D01*
X98748617Y-67683400D01*
X98272329Y-67778140D01*
X97868552Y-68047935D01*
X97619946Y-68420000D01*
X85775420Y-68420000D01*
X85184000Y-67828580D01*
X85184000Y-66779826D01*
X85322612Y-66722554D01*
X85644423Y-66401303D01*
X85818801Y-65981354D01*
X85819198Y-65526641D01*
X85645554Y-65106388D01*
X85324303Y-64784577D01*
X84904354Y-64610199D01*
X84449641Y-64609802D01*
X84029388Y-64783446D01*
X83707577Y-65104697D01*
X83533199Y-65524646D01*
X83532802Y-65979359D01*
X83706446Y-66399612D01*
X84027697Y-66721423D01*
X84168000Y-66779681D01*
X84168000Y-68039000D01*
X84206669Y-68233403D01*
X84316790Y-68398210D01*
X85205790Y-69287210D01*
X85370597Y-69397331D01*
X85565000Y-69436000D01*
X97619946Y-69436000D01*
X97868552Y-69808065D01*
X98272329Y-70077860D01*
X98748617Y-70172600D01*
X98797383Y-70172600D01*
X99273671Y-70077860D01*
X99677448Y-69808065D01*
X99947243Y-69404288D01*
X100041983Y-68928000D01*
X100041983Y-83430700D01*
X99869554Y-83013388D01*
X99548303Y-82691577D01*
X99128354Y-82517199D01*
X98673641Y-82516802D01*
X98253388Y-82690446D01*
X97931577Y-83011697D01*
X97757199Y-83431646D01*
X97756802Y-83886359D01*
X97930446Y-84306612D01*
X98251697Y-84628423D01*
X98671646Y-84802801D01*
X99126359Y-84803198D01*
X99546612Y-84629554D01*
X99868423Y-84308303D01*
X100042801Y-83888354D01*
X100043198Y-83433641D01*
X100043198Y-85973641D01*
X99869554Y-85553388D01*
X99548303Y-85231577D01*
X99128354Y-85057199D01*
X98673641Y-85056802D01*
X98253388Y-85230446D01*
X97931577Y-85551697D01*
X97873318Y-85692000D01*
X91165144Y-85692000D01*
X91165144Y-77390698D01*
X91137362Y-76835632D01*
X90978397Y-76451857D01*
X90736213Y-76382392D01*
X90556608Y-76561997D01*
X90556608Y-76202787D01*
X90487143Y-75960603D01*
X89963698Y-75773856D01*
X89408632Y-75801638D01*
X89024857Y-75960603D01*
X88955392Y-76202787D01*
X89756000Y-77003395D01*
X90556608Y-76202787D01*
X90556608Y-76561997D01*
X89935605Y-77183000D01*
X90736213Y-77983608D01*
X90978397Y-77914143D01*
X91165144Y-77390698D01*
X91165144Y-85692000D01*
X90556608Y-85692000D01*
X90556608Y-78163213D01*
X89756000Y-77362605D01*
X89576395Y-77542210D01*
X89576395Y-77183000D01*
X88775787Y-76382392D01*
X88533603Y-76451857D01*
X88489547Y-76575344D01*
X88438397Y-76451857D01*
X88196213Y-76382392D01*
X88016608Y-76561997D01*
X88016608Y-76202787D01*
X87947143Y-75960603D01*
X87423698Y-75773856D01*
X86868632Y-75801638D01*
X86484857Y-75960603D01*
X86415392Y-76202787D01*
X87216000Y-77003395D01*
X88016608Y-76202787D01*
X88016608Y-76561997D01*
X87395605Y-77183000D01*
X88196213Y-77983608D01*
X88438397Y-77914143D01*
X88482452Y-77790655D01*
X88533603Y-77914143D01*
X88775787Y-77983608D01*
X89576395Y-77183000D01*
X89576395Y-77542210D01*
X88955392Y-78163213D01*
X89024857Y-78405397D01*
X89548302Y-78592144D01*
X90103368Y-78564362D01*
X90487143Y-78405397D01*
X90556608Y-78163213D01*
X90556608Y-85692000D01*
X88016608Y-85692000D01*
X88016608Y-78163213D01*
X87216000Y-77362605D01*
X87036395Y-77542210D01*
X87036395Y-77183000D01*
X86235787Y-76382392D01*
X85993603Y-76451857D01*
X85949547Y-76575344D01*
X85898397Y-76451857D01*
X85656213Y-76382392D01*
X85476608Y-76561997D01*
X85476608Y-76202787D01*
X85407143Y-75960603D01*
X84883698Y-75773856D01*
X84328632Y-75801638D01*
X83944857Y-75960603D01*
X83875392Y-76202787D01*
X84676000Y-77003395D01*
X85476608Y-76202787D01*
X85476608Y-76561997D01*
X84855605Y-77183000D01*
X85656213Y-77983608D01*
X85898397Y-77914143D01*
X85942452Y-77790655D01*
X85993603Y-77914143D01*
X86235787Y-77983608D01*
X87036395Y-77183000D01*
X87036395Y-77542210D01*
X86415392Y-78163213D01*
X86484857Y-78405397D01*
X87008302Y-78592144D01*
X87563368Y-78564362D01*
X87947143Y-78405397D01*
X88016608Y-78163213D01*
X88016608Y-85692000D01*
X85476608Y-85692000D01*
X85476608Y-78163213D01*
X84676000Y-77362605D01*
X84496395Y-77542210D01*
X84496395Y-77183000D01*
X83695787Y-76382392D01*
X83453603Y-76451857D01*
X83266856Y-76975302D01*
X83294638Y-77530368D01*
X83453603Y-77914143D01*
X83695787Y-77983608D01*
X84496395Y-77183000D01*
X84496395Y-77542210D01*
X83875392Y-78163213D01*
X83944857Y-78405397D01*
X84468302Y-78592144D01*
X85023368Y-78564362D01*
X85407143Y-78405397D01*
X85476608Y-78163213D01*
X85476608Y-85692000D01*
X68737643Y-85692000D01*
X68737643Y-54540518D01*
X68612233Y-54237002D01*
X68380219Y-54004583D01*
X68076923Y-53878643D01*
X67748518Y-53878357D01*
X67594489Y-53942000D01*
X61065313Y-53942000D01*
X61248327Y-53606996D01*
X61265010Y-53527060D01*
X61265010Y-52832940D01*
X61248327Y-52753004D01*
X60981191Y-52264014D01*
X60547262Y-51914475D01*
X60076535Y-51776359D01*
X60362584Y-51719461D01*
X60741641Y-51466184D01*
X60994918Y-51087127D01*
X61083857Y-50640000D01*
X60994918Y-50192873D01*
X60741641Y-49813816D01*
X60362584Y-49560539D01*
X59915457Y-49471600D01*
X59144543Y-49471600D01*
X58697416Y-49560539D01*
X58318359Y-49813816D01*
X58065082Y-50192873D01*
X57976143Y-50640000D01*
X58065082Y-51087127D01*
X58318359Y-51466184D01*
X58697416Y-51719461D01*
X58983464Y-51776359D01*
X58512738Y-51914475D01*
X58078809Y-52264014D01*
X57811673Y-52753004D01*
X57794990Y-52832940D01*
X57917148Y-53053000D01*
X59403000Y-53053000D01*
X59403000Y-53033000D01*
X59657000Y-53033000D01*
X59657000Y-53053000D01*
X61142852Y-53053000D01*
X61265010Y-52832940D01*
X61265010Y-53527060D01*
X61142852Y-53307000D01*
X59657000Y-53307000D01*
X59657000Y-53327000D01*
X59403000Y-53327000D01*
X59403000Y-53307000D01*
X57917148Y-53307000D01*
X57794990Y-53527060D01*
X57811673Y-53606996D01*
X57994686Y-53942000D01*
X56184420Y-53942000D01*
X55063210Y-52820790D01*
X54898403Y-52710669D01*
X54704000Y-52672000D01*
X53463857Y-52672000D01*
X53463857Y-50640000D01*
X53463857Y-48100000D01*
X53374918Y-47652873D01*
X53121641Y-47273816D01*
X52742584Y-47020539D01*
X52295457Y-46931600D01*
X51524543Y-46931600D01*
X51077416Y-47020539D01*
X50698359Y-47273816D01*
X50485755Y-47592000D01*
X50132000Y-47592000D01*
X49937597Y-47630669D01*
X49772790Y-47740790D01*
X49010790Y-48502790D01*
X48900669Y-48667597D01*
X48862000Y-48862000D01*
X48862000Y-49286580D01*
X48270580Y-49878000D01*
X48239144Y-49878000D01*
X48239144Y-48434698D01*
X48211362Y-47879632D01*
X48052397Y-47495857D01*
X47973198Y-47473140D01*
X47973198Y-36570641D01*
X47799554Y-36150388D01*
X47478303Y-35828577D01*
X47058354Y-35654199D01*
X46603641Y-35653802D01*
X46183388Y-35827446D01*
X45861577Y-36148697D01*
X45687199Y-36568646D01*
X45687029Y-36762660D01*
X45671362Y-36449632D01*
X45512397Y-36065857D01*
X45270213Y-35996392D01*
X45090608Y-36175997D01*
X45090608Y-35816787D01*
X45021143Y-35574603D01*
X44497698Y-35387856D01*
X43942632Y-35415638D01*
X43558857Y-35574603D01*
X43489392Y-35816787D01*
X44290000Y-36617395D01*
X45090608Y-35816787D01*
X45090608Y-36175997D01*
X44469605Y-36797000D01*
X45270213Y-37597608D01*
X45512397Y-37528143D01*
X45689852Y-37030741D01*
X45860446Y-37443612D01*
X46181697Y-37765423D01*
X46601646Y-37939801D01*
X47056359Y-37940198D01*
X47476612Y-37766554D01*
X47798423Y-37445303D01*
X47972801Y-37025354D01*
X47973198Y-36570641D01*
X47973198Y-47473140D01*
X47810213Y-47426392D01*
X47630608Y-47605997D01*
X47630608Y-47246787D01*
X47561143Y-47004603D01*
X47037698Y-46817856D01*
X46482632Y-46845638D01*
X46098857Y-47004603D01*
X46029392Y-47246787D01*
X46830000Y-48047395D01*
X47630608Y-47246787D01*
X47630608Y-47605997D01*
X47009605Y-48227000D01*
X47810213Y-49027608D01*
X48052397Y-48958143D01*
X48239144Y-48434698D01*
X48239144Y-49878000D01*
X47630608Y-49878000D01*
X47630608Y-49207213D01*
X46830000Y-48406605D01*
X46029392Y-49207213D01*
X46098857Y-49449397D01*
X46622302Y-49636144D01*
X47177368Y-49608362D01*
X47561143Y-49449397D01*
X47630608Y-49207213D01*
X47630608Y-49878000D01*
X45389420Y-49878000D01*
X44798000Y-49286580D01*
X44798000Y-49253826D01*
X44936612Y-49196554D01*
X45258423Y-48875303D01*
X45432801Y-48455354D01*
X45432970Y-48261339D01*
X45448638Y-48574368D01*
X45607603Y-48958143D01*
X45849787Y-49027608D01*
X46650395Y-48227000D01*
X45849787Y-47426392D01*
X45607603Y-47495857D01*
X45430147Y-47993258D01*
X45259554Y-47580388D01*
X45090608Y-47411147D01*
X45090608Y-37777213D01*
X44290000Y-36976605D01*
X44110395Y-37156210D01*
X44110395Y-36797000D01*
X43309787Y-35996392D01*
X43067603Y-36065857D01*
X43023547Y-36189344D01*
X42972397Y-36065857D01*
X42730213Y-35996392D01*
X42550608Y-36175997D01*
X42550608Y-35816787D01*
X42481143Y-35574603D01*
X41957698Y-35387856D01*
X41402632Y-35415638D01*
X41018857Y-35574603D01*
X40949392Y-35816787D01*
X41750000Y-36617395D01*
X42550608Y-35816787D01*
X42550608Y-36175997D01*
X41929605Y-36797000D01*
X42730213Y-37597608D01*
X42972397Y-37528143D01*
X43016452Y-37404655D01*
X43067603Y-37528143D01*
X43309787Y-37597608D01*
X44110395Y-36797000D01*
X44110395Y-37156210D01*
X43489392Y-37777213D01*
X43558857Y-38019397D01*
X44082302Y-38206144D01*
X44637368Y-38178362D01*
X45021143Y-38019397D01*
X45090608Y-37777213D01*
X45090608Y-47411147D01*
X44938303Y-47258577D01*
X44518354Y-47084199D01*
X44063641Y-47083802D01*
X43643388Y-47257446D01*
X43321577Y-47578697D01*
X43147199Y-47998646D01*
X43146802Y-48453359D01*
X43320446Y-48873612D01*
X43641697Y-49195423D01*
X43782000Y-49253681D01*
X43782000Y-49497000D01*
X43820669Y-49691403D01*
X43930790Y-49856210D01*
X44819790Y-50745210D01*
X44984597Y-50855331D01*
X45179000Y-50894000D01*
X48481000Y-50894000D01*
X48675403Y-50855331D01*
X48840210Y-50745210D01*
X49729210Y-49856210D01*
X49839331Y-49691403D01*
X49878000Y-49497000D01*
X49878000Y-49072420D01*
X50342420Y-48608000D01*
X50485755Y-48608000D01*
X50698359Y-48926184D01*
X51077416Y-49179461D01*
X51524543Y-49268400D01*
X52295457Y-49268400D01*
X52742584Y-49179461D01*
X53121641Y-48926184D01*
X53374918Y-48547127D01*
X53463857Y-48100000D01*
X53463857Y-50640000D01*
X53374918Y-50192873D01*
X53121641Y-49813816D01*
X52742584Y-49560539D01*
X52295457Y-49471600D01*
X51524543Y-49471600D01*
X51077416Y-49560539D01*
X50698359Y-49813816D01*
X50445082Y-50192873D01*
X50356143Y-50640000D01*
X50445082Y-51087127D01*
X50698359Y-51466184D01*
X51077416Y-51719461D01*
X51524543Y-51808400D01*
X52295457Y-51808400D01*
X52742584Y-51719461D01*
X53121641Y-51466184D01*
X53374918Y-51087127D01*
X53463857Y-50640000D01*
X53463857Y-52672000D01*
X53334244Y-52672000D01*
X53121641Y-52353816D01*
X52742584Y-52100539D01*
X52295457Y-52011600D01*
X51524543Y-52011600D01*
X51077416Y-52100539D01*
X50698359Y-52353816D01*
X50485755Y-52672000D01*
X44627420Y-52672000D01*
X42258000Y-50302579D01*
X42258000Y-49253826D01*
X42396612Y-49196554D01*
X42718423Y-48875303D01*
X42892801Y-48455354D01*
X42893198Y-48000641D01*
X42719554Y-47580388D01*
X42550608Y-47411147D01*
X42550608Y-37777213D01*
X41750000Y-36976605D01*
X41570395Y-37156210D01*
X41570395Y-36797000D01*
X40769787Y-35996392D01*
X40527603Y-36065857D01*
X40340856Y-36589302D01*
X40368638Y-37144368D01*
X40527603Y-37528143D01*
X40769787Y-37597608D01*
X41570395Y-36797000D01*
X41570395Y-37156210D01*
X40949392Y-37777213D01*
X41018857Y-38019397D01*
X41542302Y-38206144D01*
X42097368Y-38178362D01*
X42481143Y-38019397D01*
X42550608Y-37777213D01*
X42550608Y-47411147D01*
X42398303Y-47258577D01*
X41978354Y-47084199D01*
X41523641Y-47083802D01*
X41103388Y-47257446D01*
X40781577Y-47578697D01*
X40607199Y-47998646D01*
X40606802Y-48453359D01*
X40780446Y-48873612D01*
X41101697Y-49195423D01*
X41242000Y-49253681D01*
X41242000Y-50513000D01*
X41280669Y-50707403D01*
X41390790Y-50872210D01*
X44057790Y-53539211D01*
X44222597Y-53649331D01*
X44417000Y-53688000D01*
X50485755Y-53688000D01*
X50698359Y-54006184D01*
X51077416Y-54259461D01*
X51524543Y-54348400D01*
X52295457Y-54348400D01*
X52742584Y-54259461D01*
X53121641Y-54006184D01*
X53334244Y-53688000D01*
X54493580Y-53688000D01*
X55614790Y-54809210D01*
X55779596Y-54919331D01*
X55779597Y-54919331D01*
X55811849Y-54925746D01*
X55974000Y-54958000D01*
X58275472Y-54958000D01*
X58065082Y-55272873D01*
X57976143Y-55720000D01*
X58065082Y-56167127D01*
X58318359Y-56546184D01*
X58697416Y-56799461D01*
X59144543Y-56888400D01*
X59915457Y-56888400D01*
X60362584Y-56799461D01*
X60741641Y-56546184D01*
X60994918Y-56167127D01*
X61083857Y-55720000D01*
X60994918Y-55272873D01*
X60784527Y-54958000D01*
X67123758Y-54958000D01*
X67211767Y-55170998D01*
X67443781Y-55403417D01*
X67747077Y-55529357D01*
X68075482Y-55529643D01*
X68378998Y-55404233D01*
X68611417Y-55172219D01*
X68737357Y-54868923D01*
X68737643Y-54540518D01*
X68737643Y-85692000D01*
X68420000Y-85692000D01*
X68225597Y-85730669D01*
X68170910Y-85767209D01*
X68060789Y-85840790D01*
X68018986Y-85882592D01*
X67748518Y-85882357D01*
X67445002Y-86007767D01*
X67212583Y-86239781D01*
X67086643Y-86543077D01*
X67086357Y-86871482D01*
X67211767Y-87174998D01*
X67443781Y-87407417D01*
X67747077Y-87533357D01*
X68075482Y-87533643D01*
X68378998Y-87408233D01*
X68611417Y-87176219D01*
X68737357Y-86872923D01*
X68737500Y-86708000D01*
X97873173Y-86708000D01*
X97930446Y-86846612D01*
X98251697Y-87168423D01*
X98671646Y-87342801D01*
X99126359Y-87343198D01*
X99546612Y-87169554D01*
X99868423Y-86848303D01*
X100042801Y-86428354D01*
X100043198Y-85973641D01*
X100043198Y-87940550D01*
X100022278Y-87832726D01*
X99938404Y-87705044D01*
X99811784Y-87619574D01*
X99662000Y-87589536D01*
X98138000Y-87589536D01*
X97992726Y-87617722D01*
X97865044Y-87701596D01*
X97779574Y-87828216D01*
X97749536Y-87978000D01*
X97749536Y-89502000D01*
X97777722Y-89647274D01*
X97861596Y-89774956D01*
X97988216Y-89860426D01*
X98138000Y-89890464D01*
X99662000Y-89890464D01*
X99807274Y-89862278D01*
X99934956Y-89778404D01*
X100020426Y-89651784D01*
X100050464Y-89502000D01*
X100050464Y-92841413D01*
X97780175Y-92839433D01*
X95515482Y-93775185D01*
X93781275Y-95506368D01*
X92841571Y-97769425D01*
X92839433Y-100219825D01*
X93262719Y-101244257D01*
X92875050Y-101083283D01*
X92227789Y-101082718D01*
X91629582Y-101329892D01*
X91171501Y-101787175D01*
X90923283Y-102384950D01*
X90922718Y-103032211D01*
X91169892Y-103630418D01*
X91627175Y-104088499D01*
X92224950Y-104336717D01*
X92872211Y-104337282D01*
X93470418Y-104090108D01*
X93928499Y-103632825D01*
X94176717Y-103035050D01*
X94176846Y-102886880D01*
X95506368Y-104218725D01*
X96349923Y-104569000D01*
X61083857Y-104569000D01*
X61083857Y-70960000D01*
X61083857Y-68420000D01*
X61083857Y-65880000D01*
X61083857Y-63340000D01*
X61083857Y-60800000D01*
X61083857Y-58260000D01*
X60994918Y-57812873D01*
X60741641Y-57433816D01*
X60362584Y-57180539D01*
X59915457Y-57091600D01*
X59144543Y-57091600D01*
X58697416Y-57180539D01*
X58318359Y-57433816D01*
X58065082Y-57812873D01*
X57976143Y-58260000D01*
X58065082Y-58707127D01*
X58318359Y-59086184D01*
X58697416Y-59339461D01*
X59144543Y-59428400D01*
X59915457Y-59428400D01*
X60362584Y-59339461D01*
X60741641Y-59086184D01*
X60994918Y-58707127D01*
X61083857Y-58260000D01*
X61083857Y-60800000D01*
X60994918Y-60352873D01*
X60741641Y-59973816D01*
X60362584Y-59720539D01*
X59915457Y-59631600D01*
X59144543Y-59631600D01*
X58697416Y-59720539D01*
X58318359Y-59973816D01*
X58065082Y-60352873D01*
X57976143Y-60800000D01*
X58065082Y-61247127D01*
X58318359Y-61626184D01*
X58697416Y-61879461D01*
X59144543Y-61968400D01*
X59915457Y-61968400D01*
X60362584Y-61879461D01*
X60741641Y-61626184D01*
X60994918Y-61247127D01*
X61083857Y-60800000D01*
X61083857Y-63340000D01*
X60994918Y-62892873D01*
X60741641Y-62513816D01*
X60362584Y-62260539D01*
X59915457Y-62171600D01*
X59144543Y-62171600D01*
X58697416Y-62260539D01*
X58318359Y-62513816D01*
X58065082Y-62892873D01*
X57976143Y-63340000D01*
X58065082Y-63787127D01*
X58318359Y-64166184D01*
X58697416Y-64419461D01*
X59144543Y-64508400D01*
X59915457Y-64508400D01*
X60362584Y-64419461D01*
X60741641Y-64166184D01*
X60994918Y-63787127D01*
X61083857Y-63340000D01*
X61083857Y-65880000D01*
X60994918Y-65432873D01*
X60741641Y-65053816D01*
X60362584Y-64800539D01*
X59915457Y-64711600D01*
X59144543Y-64711600D01*
X58697416Y-64800539D01*
X58318359Y-65053816D01*
X58065082Y-65432873D01*
X57976143Y-65880000D01*
X58065082Y-66327127D01*
X58318359Y-66706184D01*
X58697416Y-66959461D01*
X59144543Y-67048400D01*
X59915457Y-67048400D01*
X60362584Y-66959461D01*
X60741641Y-66706184D01*
X60994918Y-66327127D01*
X61083857Y-65880000D01*
X61083857Y-68420000D01*
X60994918Y-67972873D01*
X60741641Y-67593816D01*
X60362584Y-67340539D01*
X59915457Y-67251600D01*
X59144543Y-67251600D01*
X58697416Y-67340539D01*
X58318359Y-67593816D01*
X58065082Y-67972873D01*
X57976143Y-68420000D01*
X58065082Y-68867127D01*
X58318359Y-69246184D01*
X58697416Y-69499461D01*
X59144543Y-69588400D01*
X59915457Y-69588400D01*
X60362584Y-69499461D01*
X60741641Y-69246184D01*
X60994918Y-68867127D01*
X61083857Y-68420000D01*
X61083857Y-70960000D01*
X60994918Y-70512873D01*
X60741641Y-70133816D01*
X60362584Y-69880539D01*
X59915457Y-69791600D01*
X59144543Y-69791600D01*
X58697416Y-69880539D01*
X58318359Y-70133816D01*
X58065082Y-70512873D01*
X57976143Y-70960000D01*
X58065082Y-71407127D01*
X58318359Y-71786184D01*
X58697416Y-72039461D01*
X59144543Y-72128400D01*
X59915457Y-72128400D01*
X60362584Y-72039461D01*
X60741641Y-71786184D01*
X60994918Y-71407127D01*
X61083857Y-70960000D01*
X61083857Y-104569000D01*
X61061464Y-104569000D01*
X61061464Y-74287400D01*
X61061464Y-72712600D01*
X61033278Y-72567326D01*
X60949404Y-72439644D01*
X60822784Y-72354174D01*
X60673000Y-72324136D01*
X58387000Y-72324136D01*
X58241726Y-72352322D01*
X58114044Y-72436196D01*
X58028574Y-72562816D01*
X57998536Y-72712600D01*
X57998536Y-74287400D01*
X58026722Y-74432674D01*
X58110596Y-74560356D01*
X58237216Y-74645826D01*
X58387000Y-74675864D01*
X60673000Y-74675864D01*
X60818274Y-74647678D01*
X60945956Y-74563804D01*
X61031426Y-74437184D01*
X61061464Y-74287400D01*
X61061464Y-104569000D01*
X59127178Y-104569000D01*
X59127178Y-78653821D01*
X58970549Y-78274749D01*
X58680777Y-77984471D01*
X58301978Y-77827180D01*
X57891821Y-77826822D01*
X57512749Y-77983451D01*
X57222471Y-78273223D01*
X57065180Y-78652022D01*
X57064822Y-79062179D01*
X57221451Y-79441251D01*
X57511223Y-79731529D01*
X57890022Y-79888820D01*
X58300179Y-79889178D01*
X58679251Y-79732549D01*
X58969529Y-79442777D01*
X59126820Y-79063978D01*
X59127178Y-78653821D01*
X59127178Y-104569000D01*
X54381000Y-104569000D01*
X54381000Y-79634310D01*
X54381000Y-79381691D01*
X54381000Y-79143750D01*
X54381000Y-78572250D01*
X54381000Y-78334309D01*
X54381000Y-78081690D01*
X54284327Y-77848301D01*
X54105698Y-77669673D01*
X53872309Y-77573000D01*
X53463857Y-77573000D01*
X53463857Y-73500000D01*
X53374918Y-73052873D01*
X53121641Y-72673816D01*
X52742584Y-72420539D01*
X52295457Y-72331600D01*
X51524543Y-72331600D01*
X51077416Y-72420539D01*
X50698359Y-72673816D01*
X50485755Y-72992000D01*
X31800420Y-72992000D01*
X28344410Y-69535990D01*
X28179603Y-69425869D01*
X27985200Y-69387200D01*
X24748194Y-69387200D01*
X24938423Y-69197303D01*
X24996681Y-69057000D01*
X28968580Y-69057000D01*
X31230790Y-71319210D01*
X31395597Y-71429331D01*
X31590000Y-71468000D01*
X50485755Y-71468000D01*
X50698359Y-71786184D01*
X51077416Y-72039461D01*
X51524543Y-72128400D01*
X52295457Y-72128400D01*
X52742584Y-72039461D01*
X53121641Y-71786184D01*
X53374918Y-71407127D01*
X53463857Y-70960000D01*
X53374918Y-70512873D01*
X53121641Y-70133816D01*
X52742584Y-69880539D01*
X52295457Y-69791600D01*
X51524543Y-69791600D01*
X51077416Y-69880539D01*
X50698359Y-70133816D01*
X50485755Y-70452000D01*
X31800420Y-70452000D01*
X29538210Y-68189790D01*
X29373403Y-68079669D01*
X29179000Y-68041000D01*
X24996826Y-68041000D01*
X24939554Y-67902388D01*
X24646876Y-67609200D01*
X30060780Y-67609200D01*
X31230790Y-68779210D01*
X31395597Y-68889331D01*
X31590000Y-68928000D01*
X50485755Y-68928000D01*
X50698359Y-69246184D01*
X51077416Y-69499461D01*
X51524543Y-69588400D01*
X52295457Y-69588400D01*
X52742584Y-69499461D01*
X53121641Y-69246184D01*
X53374918Y-68867127D01*
X53463857Y-68420000D01*
X53374918Y-67972873D01*
X53121641Y-67593816D01*
X52742584Y-67340539D01*
X52295457Y-67251600D01*
X51524543Y-67251600D01*
X51077416Y-67340539D01*
X50698359Y-67593816D01*
X50485755Y-67912000D01*
X31800420Y-67912000D01*
X30630410Y-66741990D01*
X30465603Y-66631869D01*
X30271200Y-66593200D01*
X24748194Y-66593200D01*
X24938423Y-66403303D01*
X24996681Y-66263000D01*
X50432326Y-66263000D01*
X50445082Y-66327127D01*
X50698359Y-66706184D01*
X51077416Y-66959461D01*
X51524543Y-67048400D01*
X52295457Y-67048400D01*
X52742584Y-66959461D01*
X53121641Y-66706184D01*
X53374918Y-66327127D01*
X53463857Y-65880000D01*
X53374918Y-65432873D01*
X53121641Y-65053816D01*
X52742584Y-64800539D01*
X52295457Y-64711600D01*
X51524543Y-64711600D01*
X51077416Y-64800539D01*
X50698359Y-65053816D01*
X50569277Y-65247000D01*
X24996826Y-65247000D01*
X24939554Y-65108388D01*
X24697587Y-64866000D01*
X48352000Y-64866000D01*
X48546403Y-64827331D01*
X48711210Y-64717210D01*
X49580420Y-63848000D01*
X50485755Y-63848000D01*
X50698359Y-64166184D01*
X51077416Y-64419461D01*
X51524543Y-64508400D01*
X52295457Y-64508400D01*
X52742584Y-64419461D01*
X53121641Y-64166184D01*
X53374918Y-63787127D01*
X53463857Y-63340000D01*
X53374918Y-62892873D01*
X53121641Y-62513816D01*
X52742584Y-62260539D01*
X52295457Y-62171600D01*
X51524543Y-62171600D01*
X51077416Y-62260539D01*
X50698359Y-62513816D01*
X50485755Y-62832000D01*
X49370000Y-62832000D01*
X49207849Y-62864253D01*
X49175596Y-62870669D01*
X49010789Y-62980790D01*
X48141579Y-63850000D01*
X24697306Y-63850000D01*
X24938423Y-63609303D01*
X24996681Y-63469000D01*
X47209000Y-63469000D01*
X47403403Y-63430331D01*
X47568210Y-63320210D01*
X49580420Y-61308000D01*
X50485755Y-61308000D01*
X50698359Y-61626184D01*
X51077416Y-61879461D01*
X51524543Y-61968400D01*
X52295457Y-61968400D01*
X52742584Y-61879461D01*
X53121641Y-61626184D01*
X53374918Y-61247127D01*
X53463857Y-60800000D01*
X53374918Y-60352873D01*
X53121641Y-59973816D01*
X52742584Y-59720539D01*
X52295457Y-59631600D01*
X51524543Y-59631600D01*
X51077416Y-59720539D01*
X50698359Y-59973816D01*
X50485755Y-60292000D01*
X49370000Y-60292000D01*
X49175597Y-60330669D01*
X49010790Y-60440789D01*
X46998579Y-62453000D01*
X24996826Y-62453000D01*
X24939554Y-62314388D01*
X24748299Y-62122800D01*
X46015200Y-62122800D01*
X46209603Y-62084131D01*
X46374410Y-61974010D01*
X49580420Y-58768000D01*
X50485755Y-58768000D01*
X50698359Y-59086184D01*
X51077416Y-59339461D01*
X51524543Y-59428400D01*
X52295457Y-59428400D01*
X52742584Y-59339461D01*
X53121641Y-59086184D01*
X53374918Y-58707127D01*
X53463857Y-58260000D01*
X53374918Y-57812873D01*
X53121641Y-57433816D01*
X52742584Y-57180539D01*
X52295457Y-57091600D01*
X51524543Y-57091600D01*
X51077416Y-57180539D01*
X50698359Y-57433816D01*
X50485755Y-57752000D01*
X49370000Y-57752000D01*
X49175597Y-57790669D01*
X49010790Y-57900790D01*
X45804780Y-61106800D01*
X24646417Y-61106800D01*
X24938423Y-60815303D01*
X24996681Y-60675000D01*
X39083000Y-60675000D01*
X45177000Y-60675000D01*
X45371403Y-60636331D01*
X45536210Y-60526210D01*
X49834420Y-56228000D01*
X50485755Y-56228000D01*
X50698359Y-56546184D01*
X51077416Y-56799461D01*
X51524543Y-56888400D01*
X52295457Y-56888400D01*
X52742584Y-56799461D01*
X53121641Y-56546184D01*
X53374918Y-56167127D01*
X53463857Y-55720000D01*
X53374918Y-55272873D01*
X53121641Y-54893816D01*
X52742584Y-54640539D01*
X52295457Y-54551600D01*
X51524543Y-54551600D01*
X51077416Y-54640539D01*
X50698359Y-54893816D01*
X50485755Y-55212000D01*
X49624000Y-55212000D01*
X49429597Y-55250669D01*
X49264790Y-55360790D01*
X44966580Y-59659000D01*
X39083000Y-59659000D01*
X35539144Y-59659000D01*
X35539144Y-33702698D01*
X35511362Y-33147632D01*
X35352397Y-32763857D01*
X35110213Y-32694392D01*
X34930608Y-32873997D01*
X34930608Y-32514787D01*
X34861143Y-32272603D01*
X34337698Y-32085856D01*
X33782632Y-32113638D01*
X33398857Y-32272603D01*
X33329392Y-32514787D01*
X34130000Y-33315395D01*
X34930608Y-32514787D01*
X34930608Y-32873997D01*
X34309605Y-33495000D01*
X35110213Y-34295608D01*
X35352397Y-34226143D01*
X35539144Y-33702698D01*
X35539144Y-59659000D01*
X34930608Y-59659000D01*
X34930608Y-34475213D01*
X34130000Y-33674605D01*
X33950395Y-33854210D01*
X33950395Y-33495000D01*
X33149787Y-32694392D01*
X32907603Y-32763857D01*
X32863547Y-32887344D01*
X32812397Y-32763857D01*
X32570213Y-32694392D01*
X32390608Y-32873997D01*
X32390608Y-32514787D01*
X32321143Y-32272603D01*
X31797698Y-32085856D01*
X31242632Y-32113638D01*
X30858857Y-32272603D01*
X30789392Y-32514787D01*
X31590000Y-33315395D01*
X32390608Y-32514787D01*
X32390608Y-32873997D01*
X31769605Y-33495000D01*
X32570213Y-34295608D01*
X32812397Y-34226143D01*
X32856452Y-34102655D01*
X32907603Y-34226143D01*
X33149787Y-34295608D01*
X33950395Y-33495000D01*
X33950395Y-33854210D01*
X33329392Y-34475213D01*
X33398857Y-34717397D01*
X33922302Y-34904144D01*
X34477368Y-34876362D01*
X34861143Y-34717397D01*
X34930608Y-34475213D01*
X34930608Y-59659000D01*
X32390608Y-59659000D01*
X32390608Y-34475213D01*
X31590000Y-33674605D01*
X31410395Y-33854210D01*
X31410395Y-33495000D01*
X30609787Y-32694392D01*
X30367603Y-32763857D01*
X30180856Y-33287302D01*
X30208638Y-33842368D01*
X30367603Y-34226143D01*
X30609787Y-34295608D01*
X31410395Y-33495000D01*
X31410395Y-33854210D01*
X30789392Y-34475213D01*
X30858857Y-34717397D01*
X31382302Y-34904144D01*
X31937368Y-34876362D01*
X32321143Y-34717397D01*
X32390608Y-34475213D01*
X32390608Y-59659000D01*
X25113198Y-59659000D01*
X25113198Y-57273641D01*
X25113198Y-54479641D01*
X25113198Y-51685641D01*
X25113198Y-48891641D01*
X25113198Y-46224641D01*
X25113198Y-43430641D01*
X25113198Y-40636641D01*
X24962282Y-40271394D01*
X24962282Y-13487789D01*
X24715108Y-12889582D01*
X24257825Y-12431501D01*
X23660050Y-12183283D01*
X23012789Y-12182718D01*
X22414582Y-12429892D01*
X21956501Y-12887175D01*
X21708283Y-13484950D01*
X21707718Y-14132211D01*
X21954892Y-14730418D01*
X22412175Y-15188499D01*
X23009950Y-15436717D01*
X23657211Y-15437282D01*
X24255418Y-15190108D01*
X24713499Y-14732825D01*
X24961717Y-14135050D01*
X24962282Y-13487789D01*
X24962282Y-40271394D01*
X24939554Y-40216388D01*
X24618303Y-39894577D01*
X24198354Y-39720199D01*
X23743641Y-39719802D01*
X23716396Y-39731059D01*
X23716396Y-33552281D01*
X23369106Y-32711777D01*
X22726605Y-32068154D01*
X21886708Y-31719398D01*
X20977281Y-31718604D01*
X20136777Y-32065894D01*
X19493154Y-32708395D01*
X19144398Y-33548292D01*
X19143604Y-34457719D01*
X19490894Y-35298223D01*
X20133395Y-35941846D01*
X20973292Y-36290602D01*
X21882719Y-36291396D01*
X22723223Y-35944106D01*
X23366846Y-35301605D01*
X23715602Y-34461708D01*
X23716396Y-33552281D01*
X23716396Y-39731059D01*
X23323388Y-39893446D01*
X23001577Y-40214697D01*
X22827199Y-40634646D01*
X22826802Y-41089359D01*
X23000446Y-41509612D01*
X23321697Y-41831423D01*
X23741646Y-42005801D01*
X24196359Y-42006198D01*
X24616612Y-41832554D01*
X24938423Y-41511303D01*
X25112801Y-41091354D01*
X25113198Y-40636641D01*
X25113198Y-43430641D01*
X24939554Y-43010388D01*
X24618303Y-42688577D01*
X24198354Y-42514199D01*
X23743641Y-42513802D01*
X23323388Y-42687446D01*
X23001577Y-43008697D01*
X22827199Y-43428646D01*
X22826802Y-43883359D01*
X23000446Y-44303612D01*
X23321697Y-44625423D01*
X23741646Y-44799801D01*
X24196359Y-44800198D01*
X24616612Y-44626554D01*
X24938423Y-44305303D01*
X25112801Y-43885354D01*
X25113198Y-43430641D01*
X25113198Y-46224641D01*
X24939554Y-45804388D01*
X24618303Y-45482577D01*
X24198354Y-45308199D01*
X23743641Y-45307802D01*
X23323388Y-45481446D01*
X23001577Y-45802697D01*
X22827199Y-46222646D01*
X22826802Y-46677359D01*
X23000446Y-47097612D01*
X23321697Y-47419423D01*
X23741646Y-47593801D01*
X24196359Y-47594198D01*
X24616612Y-47420554D01*
X24938423Y-47099303D01*
X25112801Y-46679354D01*
X25113198Y-46224641D01*
X25113198Y-48891641D01*
X24939554Y-48471388D01*
X24618303Y-48149577D01*
X24198354Y-47975199D01*
X23743641Y-47974802D01*
X23323388Y-48148446D01*
X23001577Y-48469697D01*
X22827199Y-48889646D01*
X22826802Y-49344359D01*
X23000446Y-49764612D01*
X23321697Y-50086423D01*
X23741646Y-50260801D01*
X24196359Y-50261198D01*
X24616612Y-50087554D01*
X24938423Y-49766303D01*
X25112801Y-49346354D01*
X25113198Y-48891641D01*
X25113198Y-51685641D01*
X24939554Y-51265388D01*
X24618303Y-50943577D01*
X24198354Y-50769199D01*
X23743641Y-50768802D01*
X23323388Y-50942446D01*
X23001577Y-51263697D01*
X22827199Y-51683646D01*
X22826802Y-52138359D01*
X23000446Y-52558612D01*
X23321697Y-52880423D01*
X23741646Y-53054801D01*
X24196359Y-53055198D01*
X24616612Y-52881554D01*
X24938423Y-52560303D01*
X25112801Y-52140354D01*
X25113198Y-51685641D01*
X25113198Y-54479641D01*
X24939554Y-54059388D01*
X24618303Y-53737577D01*
X24198354Y-53563199D01*
X23743641Y-53562802D01*
X23323388Y-53736446D01*
X23001577Y-54057697D01*
X22827199Y-54477646D01*
X22826802Y-54932359D01*
X23000446Y-55352612D01*
X23321697Y-55674423D01*
X23741646Y-55848801D01*
X24196359Y-55849198D01*
X24616612Y-55675554D01*
X24938423Y-55354303D01*
X25112801Y-54934354D01*
X25113198Y-54479641D01*
X25113198Y-57273641D01*
X24939554Y-56853388D01*
X24618303Y-56531577D01*
X24198354Y-56357199D01*
X23743641Y-56356802D01*
X23323388Y-56530446D01*
X23001577Y-56851697D01*
X22827199Y-57271646D01*
X22826802Y-57726359D01*
X23000446Y-58146612D01*
X23321697Y-58468423D01*
X23741646Y-58642801D01*
X24196359Y-58643198D01*
X24616612Y-58469554D01*
X24938423Y-58148303D01*
X25112801Y-57728354D01*
X25113198Y-57273641D01*
X25113198Y-59659000D01*
X24996826Y-59659000D01*
X24939554Y-59520388D01*
X24618303Y-59198577D01*
X24198354Y-59024199D01*
X23743641Y-59023802D01*
X23323388Y-59197446D01*
X23001577Y-59518697D01*
X22827199Y-59938646D01*
X22826802Y-60393359D01*
X23000446Y-60813612D01*
X23293123Y-61106800D01*
X22573198Y-61106800D01*
X22573198Y-58594441D01*
X22573198Y-55851241D01*
X22573198Y-53108041D01*
X22573198Y-50263241D01*
X22573198Y-47570841D01*
X22573198Y-44827641D01*
X22573198Y-42033641D01*
X22399554Y-41613388D01*
X22078303Y-41291577D01*
X21658354Y-41117199D01*
X21203641Y-41116802D01*
X20783388Y-41290446D01*
X20461577Y-41611697D01*
X20287199Y-42031646D01*
X20286802Y-42486359D01*
X20460446Y-42906612D01*
X20781697Y-43228423D01*
X21201646Y-43402801D01*
X21656359Y-43403198D01*
X22076612Y-43229554D01*
X22398423Y-42908303D01*
X22572801Y-42488354D01*
X22573198Y-42033641D01*
X22573198Y-44827641D01*
X22399554Y-44407388D01*
X22078303Y-44085577D01*
X21658354Y-43911199D01*
X21203641Y-43910802D01*
X20783388Y-44084446D01*
X20461577Y-44405697D01*
X20287199Y-44825646D01*
X20286802Y-45280359D01*
X20460446Y-45700612D01*
X20781697Y-46022423D01*
X21201646Y-46196801D01*
X21656359Y-46197198D01*
X22076612Y-46023554D01*
X22398423Y-45702303D01*
X22572801Y-45282354D01*
X22573198Y-44827641D01*
X22573198Y-47570841D01*
X22399554Y-47150588D01*
X22078303Y-46828777D01*
X21658354Y-46654399D01*
X21203641Y-46654002D01*
X20783388Y-46827646D01*
X20461577Y-47148897D01*
X20287199Y-47568846D01*
X20286802Y-48023559D01*
X20460446Y-48443812D01*
X20781697Y-48765623D01*
X21201646Y-48940001D01*
X21656359Y-48940398D01*
X22076612Y-48766754D01*
X22398423Y-48445503D01*
X22572801Y-48025554D01*
X22573198Y-47570841D01*
X22573198Y-50263241D01*
X22399554Y-49842988D01*
X22078303Y-49521177D01*
X21658354Y-49346799D01*
X21203641Y-49346402D01*
X20783388Y-49520046D01*
X20461577Y-49841297D01*
X20287199Y-50261246D01*
X20286802Y-50715959D01*
X20460446Y-51136212D01*
X20781697Y-51458023D01*
X21201646Y-51632401D01*
X21656359Y-51632798D01*
X22076612Y-51459154D01*
X22398423Y-51137903D01*
X22572801Y-50717954D01*
X22573198Y-50263241D01*
X22573198Y-53108041D01*
X22399554Y-52687788D01*
X22078303Y-52365977D01*
X21658354Y-52191599D01*
X21203641Y-52191202D01*
X20783388Y-52364846D01*
X20461577Y-52686097D01*
X20287199Y-53106046D01*
X20286802Y-53560759D01*
X20460446Y-53981012D01*
X20781697Y-54302823D01*
X21201646Y-54477201D01*
X21656359Y-54477598D01*
X22076612Y-54303954D01*
X22398423Y-53982703D01*
X22572801Y-53562754D01*
X22573198Y-53108041D01*
X22573198Y-55851241D01*
X22399554Y-55430988D01*
X22078303Y-55109177D01*
X21658354Y-54934799D01*
X21203641Y-54934402D01*
X20783388Y-55108046D01*
X20461577Y-55429297D01*
X20287199Y-55849246D01*
X20286802Y-56303959D01*
X20460446Y-56724212D01*
X20781697Y-57046023D01*
X21201646Y-57220401D01*
X21656359Y-57220798D01*
X22076612Y-57047154D01*
X22398423Y-56725903D01*
X22572801Y-56305954D01*
X22573198Y-55851241D01*
X22573198Y-58594441D01*
X22399554Y-58174188D01*
X22078303Y-57852377D01*
X21658354Y-57677999D01*
X21203641Y-57677602D01*
X20783388Y-57851246D01*
X20461577Y-58172497D01*
X20287199Y-58592446D01*
X20286802Y-59047159D01*
X20460446Y-59467412D01*
X20781697Y-59789223D01*
X21201646Y-59963601D01*
X21656359Y-59963998D01*
X22076612Y-59790354D01*
X22398423Y-59469103D01*
X22572801Y-59049154D01*
X22573198Y-58594441D01*
X22573198Y-61106800D01*
X22456826Y-61106800D01*
X22399554Y-60968188D01*
X22078303Y-60646377D01*
X21658354Y-60471999D01*
X21203641Y-60471602D01*
X20783388Y-60645246D01*
X20461577Y-60966497D01*
X20287199Y-61386446D01*
X20286802Y-61841159D01*
X20460446Y-62261412D01*
X20781697Y-62583223D01*
X21201646Y-62757601D01*
X21656359Y-62757998D01*
X22076612Y-62584354D01*
X22398423Y-62263103D01*
X22456681Y-62122800D01*
X23191805Y-62122800D01*
X23001577Y-62312697D01*
X22827199Y-62732646D01*
X22826802Y-63187359D01*
X23000446Y-63607612D01*
X23242412Y-63850000D01*
X22456826Y-63850000D01*
X22399554Y-63711388D01*
X22078303Y-63389577D01*
X21658354Y-63215199D01*
X21203641Y-63214802D01*
X20783388Y-63388446D01*
X20461577Y-63709697D01*
X20287199Y-64129646D01*
X20286802Y-64584359D01*
X20460446Y-65004612D01*
X20781697Y-65326423D01*
X21201646Y-65500801D01*
X21656359Y-65501198D01*
X22076612Y-65327554D01*
X22398423Y-65006303D01*
X22456681Y-64866000D01*
X23242693Y-64866000D01*
X23001577Y-65106697D01*
X22827199Y-65526646D01*
X22826802Y-65981359D01*
X23000446Y-66401612D01*
X23191700Y-66593200D01*
X22456826Y-66593200D01*
X22399554Y-66454588D01*
X22078303Y-66132777D01*
X21658354Y-65958399D01*
X21203641Y-65958002D01*
X20783388Y-66131646D01*
X20461577Y-66452897D01*
X20287199Y-66872846D01*
X20286802Y-67327559D01*
X20460446Y-67747812D01*
X20781697Y-68069623D01*
X21201646Y-68244001D01*
X21656359Y-68244398D01*
X22076612Y-68070754D01*
X22398423Y-67749503D01*
X22456681Y-67609200D01*
X23293582Y-67609200D01*
X23001577Y-67900697D01*
X22827199Y-68320646D01*
X22826802Y-68775359D01*
X23000446Y-69195612D01*
X23191700Y-69387200D01*
X22456826Y-69387200D01*
X22399554Y-69248588D01*
X22078303Y-68926777D01*
X21658354Y-68752399D01*
X21203641Y-68752002D01*
X20783388Y-68925646D01*
X20461577Y-69246897D01*
X20287199Y-69666846D01*
X20286802Y-70121559D01*
X20460446Y-70541812D01*
X20781697Y-70863623D01*
X21201646Y-71038001D01*
X21656359Y-71038398D01*
X22076612Y-70864754D01*
X22398423Y-70543503D01*
X22456681Y-70403200D01*
X23166360Y-70403200D01*
X23001577Y-70567697D01*
X22827199Y-70987646D01*
X22826802Y-71442359D01*
X23000446Y-71862612D01*
X23321697Y-72184423D01*
X23462000Y-72242681D01*
X23462000Y-72783579D01*
X22754410Y-72075990D01*
X22589603Y-71965869D01*
X22462345Y-71940556D01*
X22399554Y-71788588D01*
X22078303Y-71466777D01*
X21658354Y-71292399D01*
X21203641Y-71292002D01*
X20783388Y-71465646D01*
X20461577Y-71786897D01*
X20287199Y-72206846D01*
X20286802Y-72661559D01*
X20460446Y-73081812D01*
X20781697Y-73403623D01*
X21201646Y-73578001D01*
X21656359Y-73578398D01*
X22076612Y-73404754D01*
X22361720Y-73120141D01*
X22819536Y-73577956D01*
X22819536Y-74772000D01*
X22847722Y-74917274D01*
X22931596Y-75044956D01*
X23058216Y-75130426D01*
X23208000Y-75160464D01*
X24732000Y-75160464D01*
X24877274Y-75132278D01*
X25004956Y-75048404D01*
X25090426Y-74921784D01*
X25120464Y-74772000D01*
X25120464Y-74518000D01*
X25539580Y-74518000D01*
X33770790Y-82749210D01*
X33935597Y-82859331D01*
X34130000Y-82898000D01*
X36408536Y-82898000D01*
X36408536Y-83406000D01*
X36436722Y-83551274D01*
X36520596Y-83678956D01*
X36647216Y-83764426D01*
X36797000Y-83794464D01*
X38321000Y-83794464D01*
X38466274Y-83766278D01*
X38593956Y-83682404D01*
X38679426Y-83555784D01*
X38709464Y-83406000D01*
X38709464Y-81374000D01*
X38681278Y-81228726D01*
X38597404Y-81101044D01*
X38470784Y-81015574D01*
X38321000Y-80985536D01*
X36797000Y-80985536D01*
X36651726Y-81013722D01*
X36524044Y-81097596D01*
X36438574Y-81224216D01*
X36408536Y-81374000D01*
X36408536Y-81882000D01*
X34340420Y-81882000D01*
X26109210Y-73650790D01*
X25944403Y-73540669D01*
X25750000Y-73502000D01*
X25120464Y-73502000D01*
X25120464Y-73248000D01*
X25092278Y-73102726D01*
X25008404Y-72975044D01*
X24881784Y-72889574D01*
X24732000Y-72859536D01*
X24478000Y-72859536D01*
X24478000Y-72242826D01*
X24616612Y-72185554D01*
X24938423Y-71864303D01*
X25112801Y-71444354D01*
X25113198Y-70989641D01*
X24939554Y-70569388D01*
X24773655Y-70403200D01*
X27774780Y-70403200D01*
X31230790Y-73859210D01*
X31395597Y-73969331D01*
X31590000Y-74008000D01*
X50485755Y-74008000D01*
X50698359Y-74326184D01*
X51077416Y-74579461D01*
X51524543Y-74668400D01*
X52295457Y-74668400D01*
X52742584Y-74579461D01*
X53121641Y-74326184D01*
X53374918Y-73947127D01*
X53463857Y-73500000D01*
X53463857Y-77573000D01*
X53381750Y-77573000D01*
X53223000Y-77731750D01*
X53223000Y-78731000D01*
X54222250Y-78731000D01*
X54381000Y-78572250D01*
X54381000Y-79143750D01*
X54222250Y-78985000D01*
X53223000Y-78985000D01*
X53223000Y-79984250D01*
X53381750Y-80143000D01*
X53872309Y-80143000D01*
X54105698Y-80046327D01*
X54284327Y-79867699D01*
X54381000Y-79634310D01*
X54381000Y-104569000D01*
X52969000Y-104569000D01*
X52969000Y-79984250D01*
X52969000Y-78985000D01*
X52969000Y-78731000D01*
X52969000Y-77731750D01*
X52810250Y-77573000D01*
X52319691Y-77573000D01*
X52086302Y-77669673D01*
X51907673Y-77848301D01*
X51811000Y-78081690D01*
X51811000Y-78334309D01*
X51811000Y-78572250D01*
X51969750Y-78731000D01*
X52969000Y-78731000D01*
X52969000Y-78985000D01*
X51969750Y-78985000D01*
X51811000Y-79143750D01*
X51811000Y-79381691D01*
X51811000Y-79634310D01*
X51907673Y-79867699D01*
X52086302Y-80046327D01*
X52319691Y-80143000D01*
X52810250Y-80143000D01*
X52969000Y-79984250D01*
X52969000Y-104569000D01*
X42258000Y-104569000D01*
X42258000Y-83532310D01*
X42258000Y-83279691D01*
X42258000Y-82675750D01*
X42258000Y-82104250D01*
X42258000Y-81500309D01*
X42258000Y-81247690D01*
X42161327Y-81014301D01*
X41982698Y-80835673D01*
X41749309Y-80739000D01*
X41146750Y-80739000D01*
X40988000Y-80897750D01*
X40988000Y-82263000D01*
X42099250Y-82263000D01*
X42258000Y-82104250D01*
X42258000Y-82675750D01*
X42099250Y-82517000D01*
X40988000Y-82517000D01*
X40988000Y-83882250D01*
X41146750Y-84041000D01*
X41749309Y-84041000D01*
X41982698Y-83944327D01*
X42161327Y-83765699D01*
X42258000Y-83532310D01*
X42258000Y-104569000D01*
X40734000Y-104569000D01*
X40734000Y-83882250D01*
X40734000Y-82517000D01*
X40734000Y-82263000D01*
X40734000Y-80897750D01*
X40575250Y-80739000D01*
X39972691Y-80739000D01*
X39739302Y-80835673D01*
X39560673Y-81014301D01*
X39464000Y-81247690D01*
X39464000Y-81500309D01*
X39464000Y-82104250D01*
X39622750Y-82263000D01*
X40734000Y-82263000D01*
X40734000Y-82517000D01*
X39622750Y-82517000D01*
X39464000Y-82675750D01*
X39464000Y-83279691D01*
X39464000Y-83532310D01*
X39560673Y-83765699D01*
X39739302Y-83944327D01*
X39972691Y-84041000D01*
X40575250Y-84041000D01*
X40734000Y-83882250D01*
X40734000Y-104569000D01*
X23716396Y-104569000D01*
X23716396Y-80542281D01*
X23369106Y-79701777D01*
X22726605Y-79058154D01*
X21886708Y-78709398D01*
X20977281Y-78708604D01*
X20136777Y-79055894D01*
X19493154Y-79698395D01*
X19144398Y-80538292D01*
X19143604Y-81447719D01*
X19490894Y-82288223D01*
X20133395Y-82931846D01*
X20973292Y-83280602D01*
X21882719Y-83281396D01*
X22723223Y-82934106D01*
X23366846Y-82291605D01*
X23715602Y-81451708D01*
X23716396Y-80542281D01*
X23716396Y-104569000D01*
X16042452Y-104569000D01*
X15675641Y-104496036D01*
X15322515Y-104142910D01*
X17018617Y-104144391D01*
X18909752Y-103362990D01*
X20357904Y-101917363D01*
X21142605Y-100027594D01*
X21144391Y-97981383D01*
X20362990Y-96090248D01*
X18917363Y-94642096D01*
X17027594Y-93857395D01*
X14981383Y-93855609D01*
X13090248Y-94637010D01*
X11642096Y-96082637D01*
X10857395Y-97972406D01*
X10855907Y-99676302D01*
X10503961Y-99324356D01*
X10431000Y-98957552D01*
X10431000Y-16042447D01*
X10489656Y-15747563D01*
X10856993Y-15432703D01*
X10855609Y-17018617D01*
X11637010Y-18909752D01*
X13082637Y-20357904D01*
X14972406Y-21142605D01*
X17018617Y-21144391D01*
X18909752Y-20362990D01*
X20357904Y-18917363D01*
X21142605Y-17027594D01*
X21144391Y-14981383D01*
X20362990Y-13090248D01*
X18917363Y-11642096D01*
X17027594Y-10857395D01*
X16195699Y-10856668D01*
X16692313Y-10431000D01*
X96348473Y-10431000D01*
X95515482Y-10775185D01*
X93781275Y-12506368D01*
X92841571Y-14769425D01*
X92839433Y-17219825D01*
X93775185Y-19484518D01*
X95506368Y-21218725D01*
X97769425Y-22158429D01*
X100219825Y-22160567D01*
X102484518Y-21224815D01*
X104218725Y-19493632D01*
X104569000Y-18650076D01*
X104569000Y-96348473D01*
X104569000Y-96348473D01*
G37*
X104569000Y-96348473D02*
X104224815Y-95515482D01*
X102581983Y-93869780D01*
X102581983Y-66388000D01*
X102581983Y-63848000D01*
X102487243Y-63371712D01*
X102217448Y-62967935D01*
X101813671Y-62698140D01*
X101337383Y-62603400D01*
X101288617Y-62603400D01*
X100812329Y-62698140D01*
X100408552Y-62967935D01*
X100309144Y-63116709D01*
X100309144Y-53387698D01*
X100309144Y-29257698D01*
X100281362Y-28702632D01*
X100122397Y-28318857D01*
X100043198Y-28296140D01*
X100043198Y-26283641D01*
X99869554Y-25863388D01*
X99548303Y-25541577D01*
X99128354Y-25367199D01*
X98673641Y-25366802D01*
X98253388Y-25540446D01*
X97931577Y-25861697D01*
X97757199Y-26281646D01*
X97756802Y-26736359D01*
X97930446Y-27156612D01*
X98251697Y-27478423D01*
X98671646Y-27652801D01*
X98865660Y-27652970D01*
X98552632Y-27668638D01*
X98168857Y-27827603D01*
X98099392Y-28069787D01*
X98900000Y-28870395D01*
X99700608Y-28069787D01*
X99631143Y-27827603D01*
X99133741Y-27650147D01*
X99546612Y-27479554D01*
X99868423Y-27158303D01*
X100042801Y-26738354D01*
X100043198Y-26283641D01*
X100043198Y-28296140D01*
X99880213Y-28249392D01*
X99079605Y-29050000D01*
X99880213Y-29850608D01*
X100122397Y-29781143D01*
X100309144Y-29257698D01*
X100309144Y-53387698D01*
X100281362Y-52832632D01*
X100122397Y-52448857D01*
X100050464Y-52428224D01*
X100050464Y-32352000D01*
X100050464Y-30828000D01*
X100022278Y-30682726D01*
X99938404Y-30555044D01*
X99811784Y-30469574D01*
X99662000Y-30439536D01*
X99084056Y-30439536D01*
X99247368Y-30431362D01*
X99631143Y-30272397D01*
X99700608Y-30030213D01*
X98900000Y-29229605D01*
X98720395Y-29409210D01*
X98720395Y-29050000D01*
X97919787Y-28249392D01*
X97677603Y-28318857D01*
X97490856Y-28842302D01*
X97518638Y-29397368D01*
X97677603Y-29781143D01*
X97919787Y-29850608D01*
X98720395Y-29050000D01*
X98720395Y-29409210D01*
X98099392Y-30030213D01*
X98168857Y-30272397D01*
X98637341Y-30439536D01*
X98138000Y-30439536D01*
X97992726Y-30467722D01*
X97865044Y-30551596D01*
X97779574Y-30678216D01*
X97749536Y-30828000D01*
X97749536Y-32352000D01*
X97777722Y-32497274D01*
X97861596Y-32624956D01*
X97988216Y-32710426D01*
X98138000Y-32740464D01*
X99662000Y-32740464D01*
X99807274Y-32712278D01*
X99934956Y-32628404D01*
X100020426Y-32501784D01*
X100050464Y-32352000D01*
X100050464Y-52428224D01*
X100043198Y-52426140D01*
X100043198Y-50413641D01*
X100043198Y-47873641D01*
X99869554Y-47453388D01*
X99548303Y-47131577D01*
X99128354Y-46957199D01*
X98673641Y-46956802D01*
X98253388Y-47130446D01*
X97931577Y-47451697D01*
X97873318Y-47592000D01*
X94846826Y-47592000D01*
X94789554Y-47453388D01*
X94468303Y-47131577D01*
X94048354Y-46957199D01*
X93593641Y-46956802D01*
X93453236Y-47014815D01*
X91639210Y-45200790D01*
X91474403Y-45090669D01*
X91280000Y-45052000D01*
X65689510Y-45052000D01*
X65838998Y-44990233D01*
X66031566Y-44798000D01*
X67277000Y-44798000D01*
X67471403Y-44759331D01*
X67603599Y-44671000D01*
X88207697Y-44671000D01*
X88398781Y-44862417D01*
X88702077Y-44988357D01*
X89030482Y-44988643D01*
X89333998Y-44863233D01*
X89566417Y-44631219D01*
X89692357Y-44327923D01*
X89692643Y-43999518D01*
X89567233Y-43696002D01*
X89399523Y-43528000D01*
X90290233Y-43528000D01*
X90325767Y-43613998D01*
X90557781Y-43846417D01*
X90861077Y-43972357D01*
X91189482Y-43972643D01*
X91492998Y-43847233D01*
X91725417Y-43615219D01*
X91851357Y-43311923D01*
X91851643Y-42983518D01*
X91726233Y-42680002D01*
X91494219Y-42447583D01*
X91190923Y-42321643D01*
X90862518Y-42321357D01*
X90559002Y-42446767D01*
X90493655Y-42512000D01*
X63149510Y-42512000D01*
X63298998Y-42450233D01*
X63491566Y-42258000D01*
X86073000Y-42258000D01*
X86267403Y-42219331D01*
X86432210Y-42109210D01*
X86982012Y-41559407D01*
X87252482Y-41559643D01*
X87555998Y-41434233D01*
X87788417Y-41202219D01*
X87914357Y-40898923D01*
X87914643Y-40570518D01*
X87789233Y-40267002D01*
X87557219Y-40034583D01*
X87253923Y-39908643D01*
X86925518Y-39908357D01*
X86622002Y-40033767D01*
X86389583Y-40265781D01*
X86263643Y-40569077D01*
X86263406Y-40841173D01*
X85862580Y-41242000D01*
X69753643Y-41242000D01*
X69753643Y-23425518D01*
X69628233Y-23122002D01*
X69396219Y-22889583D01*
X69092923Y-22763643D01*
X68764518Y-22763357D01*
X68714460Y-22784040D01*
X67509210Y-21578790D01*
X67344403Y-21468669D01*
X67150000Y-21430000D01*
X61083857Y-21430000D01*
X61083857Y-19525000D01*
X60994918Y-19077873D01*
X60741641Y-18698816D01*
X60362584Y-18445539D01*
X59915457Y-18356600D01*
X59144543Y-18356600D01*
X58697416Y-18445539D01*
X58318359Y-18698816D01*
X58065082Y-19077873D01*
X57976143Y-19525000D01*
X58065082Y-19972127D01*
X58318359Y-20351184D01*
X58697416Y-20604461D01*
X59144543Y-20693400D01*
X59915457Y-20693400D01*
X60362584Y-20604461D01*
X60741641Y-20351184D01*
X60994918Y-19972127D01*
X61083857Y-19525000D01*
X61083857Y-21430000D01*
X60869385Y-21430000D01*
X60741641Y-21238816D01*
X60362584Y-20985539D01*
X59915457Y-20896600D01*
X59144543Y-20896600D01*
X58697416Y-20985539D01*
X58318359Y-21238816D01*
X58065082Y-21617873D01*
X57976143Y-22065000D01*
X58065082Y-22512127D01*
X58318359Y-22891184D01*
X58697416Y-23144461D01*
X59144543Y-23233400D01*
X59915457Y-23233400D01*
X60362584Y-23144461D01*
X60741641Y-22891184D01*
X60994918Y-22512127D01*
X61008071Y-22446000D01*
X66939579Y-22446000D01*
X68102482Y-23608902D01*
X68102357Y-23752482D01*
X68227767Y-24055998D01*
X68459781Y-24288417D01*
X68763077Y-24414357D01*
X69091482Y-24414643D01*
X69394998Y-24289233D01*
X69627417Y-24057219D01*
X69753357Y-23753923D01*
X69753643Y-23425518D01*
X69753643Y-41242000D01*
X65816643Y-41242000D01*
X65816643Y-28886518D01*
X65691233Y-28583002D01*
X65499000Y-28390433D01*
X65499000Y-26637000D01*
X65460331Y-26442597D01*
X65460331Y-26442596D01*
X65350210Y-26277790D01*
X63191210Y-24118790D01*
X63026403Y-24008669D01*
X62832000Y-23970000D01*
X60869385Y-23970000D01*
X60741641Y-23778816D01*
X60362584Y-23525539D01*
X59915457Y-23436600D01*
X59144543Y-23436600D01*
X58697416Y-23525539D01*
X58318359Y-23778816D01*
X58065082Y-24157873D01*
X57976143Y-24605000D01*
X58065082Y-25052127D01*
X58318359Y-25431184D01*
X58697416Y-25684461D01*
X59144543Y-25773400D01*
X59915457Y-25773400D01*
X60362584Y-25684461D01*
X60741641Y-25431184D01*
X60994918Y-25052127D01*
X61008071Y-24986000D01*
X62621580Y-24986000D01*
X64483000Y-26847420D01*
X64483000Y-28390697D01*
X64291583Y-28581781D01*
X64165643Y-28885077D01*
X64165357Y-29213482D01*
X64290767Y-29516998D01*
X64522781Y-29749417D01*
X64826077Y-29875357D01*
X65154482Y-29875643D01*
X65457998Y-29750233D01*
X65690417Y-29518219D01*
X65816357Y-29214923D01*
X65816643Y-28886518D01*
X65816643Y-41242000D01*
X63657643Y-41242000D01*
X63657643Y-27108518D01*
X63532233Y-26805002D01*
X63300219Y-26572583D01*
X62996923Y-26446643D01*
X62668518Y-26446357D01*
X62365002Y-26571767D01*
X62299655Y-26637000D01*
X61061464Y-26637000D01*
X61061464Y-26357600D01*
X61033278Y-26212326D01*
X60949404Y-26084644D01*
X60822784Y-25999174D01*
X60673000Y-25969136D01*
X58387000Y-25969136D01*
X58241726Y-25997322D01*
X58114044Y-26081196D01*
X58028574Y-26207816D01*
X57998536Y-26357600D01*
X57998536Y-27932400D01*
X58026722Y-28077674D01*
X58110596Y-28205356D01*
X58237216Y-28290826D01*
X58387000Y-28320864D01*
X60673000Y-28320864D01*
X60818274Y-28292678D01*
X60945956Y-28208804D01*
X61031426Y-28082184D01*
X61061464Y-27932400D01*
X61061464Y-27653000D01*
X62096233Y-27653000D01*
X62131767Y-27738998D01*
X62363781Y-27971417D01*
X62667077Y-28097357D01*
X62995482Y-28097643D01*
X63298998Y-27972233D01*
X63531417Y-27740219D01*
X63657357Y-27436923D01*
X63657643Y-27108518D01*
X63657643Y-41242000D01*
X63491302Y-41242000D01*
X63300219Y-41050583D01*
X62996923Y-40924643D01*
X62668518Y-40924357D01*
X62365002Y-41049767D01*
X62172433Y-41242000D01*
X61689000Y-41242000D01*
X60784527Y-41242000D01*
X60994918Y-40927127D01*
X61083857Y-40480000D01*
X60994918Y-40032873D01*
X60741641Y-39653816D01*
X60362584Y-39400539D01*
X59915457Y-39311600D01*
X59381178Y-39311600D01*
X59381178Y-30901821D01*
X59224549Y-30522749D01*
X58934777Y-30232471D01*
X58555978Y-30075180D01*
X58145821Y-30074822D01*
X57766749Y-30231451D01*
X57476471Y-30521223D01*
X57319180Y-30900022D01*
X57318822Y-31310179D01*
X57475451Y-31689251D01*
X57765223Y-31979529D01*
X58144022Y-32136820D01*
X58554179Y-32137178D01*
X58933251Y-31980549D01*
X59223529Y-31690777D01*
X59380820Y-31311978D01*
X59381178Y-30901821D01*
X59381178Y-39311600D01*
X59144543Y-39311600D01*
X58697416Y-39400539D01*
X58318359Y-39653816D01*
X58065082Y-40032873D01*
X57976143Y-40480000D01*
X58065082Y-40927127D01*
X58275472Y-41242000D01*
X57327420Y-41242000D01*
X56841213Y-40755793D01*
X56841211Y-40755790D01*
X56206210Y-40120790D01*
X56041403Y-40010669D01*
X55847000Y-39972000D01*
X54635000Y-39972000D01*
X54635000Y-31882310D01*
X54635000Y-31629691D01*
X54635000Y-31391750D01*
X54635000Y-30820250D01*
X54635000Y-30582309D01*
X54635000Y-30329690D01*
X54538327Y-30096301D01*
X54359698Y-29917673D01*
X54126309Y-29821000D01*
X53645010Y-29821000D01*
X53645010Y-27492060D01*
X53645010Y-26797940D01*
X53628327Y-26718004D01*
X53361191Y-26229014D01*
X52927262Y-25879475D01*
X52456535Y-25741359D01*
X52742584Y-25684461D01*
X53121641Y-25431184D01*
X53374918Y-25052127D01*
X53463857Y-24605000D01*
X53463857Y-22065000D01*
X53463857Y-19525000D01*
X53374918Y-19077873D01*
X53121641Y-18698816D01*
X52742584Y-18445539D01*
X52295457Y-18356600D01*
X51524543Y-18356600D01*
X51077416Y-18445539D01*
X50698359Y-18698816D01*
X50570614Y-18890000D01*
X47094053Y-18890000D01*
X46845448Y-18517935D01*
X46441671Y-18248140D01*
X45965383Y-18153400D01*
X45916617Y-18153400D01*
X45440329Y-18248140D01*
X45036552Y-18517935D01*
X44766757Y-18921712D01*
X44672017Y-19398000D01*
X44766757Y-19874288D01*
X45036552Y-20278065D01*
X45440329Y-20547860D01*
X45916617Y-20642600D01*
X45965383Y-20642600D01*
X46441671Y-20547860D01*
X46845448Y-20278065D01*
X47094053Y-19906000D01*
X50431928Y-19906000D01*
X50445082Y-19972127D01*
X50698359Y-20351184D01*
X51077416Y-20604461D01*
X51524543Y-20693400D01*
X52295457Y-20693400D01*
X52742584Y-20604461D01*
X53121641Y-20351184D01*
X53374918Y-19972127D01*
X53463857Y-19525000D01*
X53463857Y-22065000D01*
X53374918Y-21617873D01*
X53121641Y-21238816D01*
X52742584Y-20985539D01*
X52295457Y-20896600D01*
X51524543Y-20896600D01*
X51077416Y-20985539D01*
X50698359Y-21238816D01*
X50570614Y-21430000D01*
X47094053Y-21430000D01*
X46845448Y-21057935D01*
X46441671Y-20788140D01*
X45965383Y-20693400D01*
X45916617Y-20693400D01*
X45440329Y-20788140D01*
X45036552Y-21057935D01*
X44766757Y-21461712D01*
X44672017Y-21938000D01*
X44766757Y-22414288D01*
X45036552Y-22818065D01*
X45440329Y-23087860D01*
X45916617Y-23182600D01*
X45965383Y-23182600D01*
X46441671Y-23087860D01*
X46845448Y-22818065D01*
X47094053Y-22446000D01*
X50431928Y-22446000D01*
X50445082Y-22512127D01*
X50698359Y-22891184D01*
X51077416Y-23144461D01*
X51524543Y-23233400D01*
X52295457Y-23233400D01*
X52742584Y-23144461D01*
X53121641Y-22891184D01*
X53374918Y-22512127D01*
X53463857Y-22065000D01*
X53463857Y-24605000D01*
X53374918Y-24157873D01*
X53121641Y-23778816D01*
X52742584Y-23525539D01*
X52295457Y-23436600D01*
X51524543Y-23436600D01*
X51077416Y-23525539D01*
X50698359Y-23778816D01*
X50570614Y-23970000D01*
X48989000Y-23970000D01*
X48794597Y-24008669D01*
X48739910Y-24045209D01*
X48629789Y-24118790D01*
X46238579Y-26510000D01*
X45948464Y-26510000D01*
X45948464Y-26002000D01*
X45920278Y-25856726D01*
X45836404Y-25729044D01*
X45709784Y-25643574D01*
X45560000Y-25613536D01*
X44669983Y-25613536D01*
X44669983Y-21938000D01*
X44653064Y-21852942D01*
X44653064Y-20261600D01*
X44653064Y-18534400D01*
X44624878Y-18389126D01*
X44541004Y-18261444D01*
X44414384Y-18175974D01*
X44264600Y-18145936D01*
X42537400Y-18145936D01*
X42392126Y-18174122D01*
X42264444Y-18257996D01*
X42178974Y-18384616D01*
X42148936Y-18534400D01*
X42148936Y-18890000D01*
X33749000Y-18890000D01*
X33554596Y-18928669D01*
X33389790Y-19038790D01*
X31506653Y-20921926D01*
X31363641Y-20921802D01*
X30943388Y-21095446D01*
X30621577Y-21416697D01*
X30447199Y-21836646D01*
X30446802Y-22291359D01*
X30620446Y-22711612D01*
X30941697Y-23033423D01*
X31361646Y-23207801D01*
X31816359Y-23208198D01*
X32236612Y-23034554D01*
X32558423Y-22713303D01*
X32732801Y-22293354D01*
X32733198Y-21838641D01*
X32559554Y-21418388D01*
X32503341Y-21362078D01*
X33959420Y-19906000D01*
X42148936Y-19906000D01*
X42148936Y-20261600D01*
X42177122Y-20406874D01*
X42260996Y-20534556D01*
X42387616Y-20620026D01*
X42537400Y-20650064D01*
X44264600Y-20650064D01*
X44409874Y-20621878D01*
X44537556Y-20538004D01*
X44623026Y-20411384D01*
X44653064Y-20261600D01*
X44653064Y-21852942D01*
X44575243Y-21461712D01*
X44305448Y-21057935D01*
X43901671Y-20788140D01*
X43425383Y-20693400D01*
X43376617Y-20693400D01*
X42900329Y-20788140D01*
X42496552Y-21057935D01*
X42226757Y-21461712D01*
X42207802Y-21557000D01*
X35156826Y-21557000D01*
X35099554Y-21418388D01*
X34778303Y-21096577D01*
X34358354Y-20922199D01*
X33903641Y-20921802D01*
X33483388Y-21095446D01*
X33161577Y-21416697D01*
X32987199Y-21836646D01*
X32986802Y-22291359D01*
X33160446Y-22711612D01*
X33481697Y-23033423D01*
X33901646Y-23207801D01*
X34356359Y-23208198D01*
X34776612Y-23034554D01*
X35098423Y-22713303D01*
X35156681Y-22573000D01*
X42332804Y-22573000D01*
X42496552Y-22818065D01*
X42900329Y-23087860D01*
X43376617Y-23182600D01*
X43425383Y-23182600D01*
X43901671Y-23087860D01*
X44305448Y-22818065D01*
X44575243Y-22414288D01*
X44669983Y-21938000D01*
X44669983Y-25613536D01*
X43528000Y-25613536D01*
X43382726Y-25641722D01*
X43255044Y-25725596D01*
X43169574Y-25852216D01*
X43139536Y-26002000D01*
X43139536Y-26223863D01*
X42991828Y-26002803D01*
X42538609Y-25699971D01*
X42004000Y-25593631D01*
X41469391Y-25699971D01*
X41016172Y-26002803D01*
X40713340Y-26456022D01*
X40607000Y-26990631D01*
X40607000Y-27045369D01*
X40713340Y-27579978D01*
X41016172Y-28033197D01*
X41469391Y-28336029D01*
X42004000Y-28442369D01*
X42538609Y-28336029D01*
X42991828Y-28033197D01*
X43139536Y-27812136D01*
X43139536Y-28034000D01*
X43167722Y-28179274D01*
X43251596Y-28306956D01*
X43378216Y-28392426D01*
X43528000Y-28422464D01*
X45560000Y-28422464D01*
X45705274Y-28394278D01*
X45832956Y-28310404D01*
X45918426Y-28183784D01*
X45948464Y-28034000D01*
X45948464Y-27526000D01*
X46449000Y-27526000D01*
X46643403Y-27487331D01*
X46808210Y-27377210D01*
X49199420Y-24986000D01*
X50431928Y-24986000D01*
X50445082Y-25052127D01*
X50698359Y-25431184D01*
X51077416Y-25684461D01*
X51363464Y-25741359D01*
X50892738Y-25879475D01*
X50458809Y-26229014D01*
X50191673Y-26718004D01*
X50174990Y-26797940D01*
X50297148Y-27018000D01*
X51783000Y-27018000D01*
X51783000Y-26998000D01*
X52037000Y-26998000D01*
X52037000Y-27018000D01*
X53522852Y-27018000D01*
X53645010Y-26797940D01*
X53645010Y-27492060D01*
X53522852Y-27272000D01*
X52037000Y-27272000D01*
X52037000Y-28567400D01*
X52392600Y-28567400D01*
X52927262Y-28410525D01*
X53361191Y-28060986D01*
X53628327Y-27571996D01*
X53645010Y-27492060D01*
X53645010Y-29821000D01*
X53635750Y-29821000D01*
X53477000Y-29979750D01*
X53477000Y-30979000D01*
X54476250Y-30979000D01*
X54635000Y-30820250D01*
X54635000Y-31391750D01*
X54476250Y-31233000D01*
X53477000Y-31233000D01*
X53477000Y-32232250D01*
X53635750Y-32391000D01*
X54126309Y-32391000D01*
X54359698Y-32294327D01*
X54538327Y-32115699D01*
X54635000Y-31882310D01*
X54635000Y-39972000D01*
X53334244Y-39972000D01*
X53223000Y-39805510D01*
X53223000Y-32232250D01*
X53223000Y-31233000D01*
X53223000Y-30979000D01*
X53223000Y-29979750D01*
X53064250Y-29821000D01*
X52573691Y-29821000D01*
X52340302Y-29917673D01*
X52161673Y-30096301D01*
X52065000Y-30329690D01*
X52065000Y-30582309D01*
X52065000Y-30820250D01*
X52223750Y-30979000D01*
X53223000Y-30979000D01*
X53223000Y-31233000D01*
X52223750Y-31233000D01*
X52065000Y-31391750D01*
X52065000Y-31629691D01*
X52065000Y-31882310D01*
X52161673Y-32115699D01*
X52340302Y-32294327D01*
X52573691Y-32391000D01*
X53064250Y-32391000D01*
X53223000Y-32232250D01*
X53223000Y-39805510D01*
X53121641Y-39653816D01*
X52742584Y-39400539D01*
X52295457Y-39311600D01*
X51783000Y-39311600D01*
X51783000Y-28567400D01*
X51783000Y-27272000D01*
X50297148Y-27272000D01*
X50174990Y-27492060D01*
X50191673Y-27571996D01*
X50458809Y-28060986D01*
X50892738Y-28410525D01*
X51427400Y-28567400D01*
X51783000Y-28567400D01*
X51783000Y-39311600D01*
X51524543Y-39311600D01*
X51077416Y-39400539D01*
X50698359Y-39653816D01*
X50445082Y-40032873D01*
X50356143Y-40480000D01*
X50445082Y-40927127D01*
X50698359Y-41306184D01*
X51077416Y-41559461D01*
X51524543Y-41648400D01*
X52295457Y-41648400D01*
X52742584Y-41559461D01*
X53121641Y-41306184D01*
X53334244Y-40988000D01*
X55636579Y-40988000D01*
X56122790Y-41474211D01*
X56122793Y-41474213D01*
X56757790Y-42109211D01*
X56922597Y-42219331D01*
X57117000Y-42258000D01*
X58275472Y-42258000D01*
X58065082Y-42572873D01*
X57976143Y-43020000D01*
X58065082Y-43467127D01*
X58275472Y-43782000D01*
X56946420Y-43782000D01*
X55825210Y-42660790D01*
X55660403Y-42550669D01*
X55466000Y-42512000D01*
X53334244Y-42512000D01*
X53121641Y-42193816D01*
X52742584Y-41940539D01*
X52295457Y-41851600D01*
X51524543Y-41851600D01*
X51077416Y-41940539D01*
X50698359Y-42193816D01*
X50445082Y-42572873D01*
X50356143Y-43020000D01*
X50445082Y-43467127D01*
X50698359Y-43846184D01*
X51077416Y-44099461D01*
X51524543Y-44188400D01*
X52295457Y-44188400D01*
X52742584Y-44099461D01*
X53121641Y-43846184D01*
X53334244Y-43528000D01*
X55255580Y-43528000D01*
X56376790Y-44649210D01*
X56541596Y-44759331D01*
X56541597Y-44759331D01*
X56573849Y-44765746D01*
X56736000Y-44798000D01*
X58275472Y-44798000D01*
X58065082Y-45112873D01*
X57976143Y-45560000D01*
X58065082Y-46007127D01*
X58275472Y-46322000D01*
X56565420Y-46322000D01*
X55444210Y-45200790D01*
X55279403Y-45090669D01*
X55085000Y-45052000D01*
X53334244Y-45052000D01*
X53121641Y-44733816D01*
X52742584Y-44480539D01*
X52295457Y-44391600D01*
X51524543Y-44391600D01*
X51077416Y-44480539D01*
X50698359Y-44733816D01*
X50445082Y-45112873D01*
X50356143Y-45560000D01*
X50445082Y-46007127D01*
X50698359Y-46386184D01*
X51077416Y-46639461D01*
X51524543Y-46728400D01*
X52295457Y-46728400D01*
X52742584Y-46639461D01*
X53121641Y-46386184D01*
X53334244Y-46068000D01*
X54874580Y-46068000D01*
X55995790Y-47189210D01*
X56160596Y-47299331D01*
X56160597Y-47299331D01*
X56192849Y-47305746D01*
X56355000Y-47338000D01*
X58275472Y-47338000D01*
X58065082Y-47652873D01*
X57976143Y-48100000D01*
X58065082Y-48547127D01*
X58318359Y-48926184D01*
X58697416Y-49179461D01*
X59144543Y-49268400D01*
X59915457Y-49268400D01*
X60362584Y-49179461D01*
X60741641Y-48926184D01*
X60994918Y-48547127D01*
X61083857Y-48100000D01*
X60994918Y-47652873D01*
X60784527Y-47338000D01*
X69411697Y-47338000D01*
X69602781Y-47529417D01*
X69906077Y-47655357D01*
X70234482Y-47655643D01*
X70537998Y-47530233D01*
X70730566Y-47338000D01*
X84016697Y-47338000D01*
X84207781Y-47529417D01*
X84511077Y-47655357D01*
X84839482Y-47655643D01*
X85142998Y-47530233D01*
X85375417Y-47298219D01*
X85501357Y-46994923D01*
X85501643Y-46666518D01*
X85376233Y-46363002D01*
X85144219Y-46130583D01*
X84993502Y-46068000D01*
X91069579Y-46068000D01*
X92734713Y-47733134D01*
X92677199Y-47871646D01*
X92676802Y-48326359D01*
X92850446Y-48746612D01*
X93171697Y-49068423D01*
X93591646Y-49242801D01*
X94046359Y-49243198D01*
X94466612Y-49069554D01*
X94788423Y-48748303D01*
X94846681Y-48608000D01*
X97873173Y-48608000D01*
X97930446Y-48746612D01*
X98251697Y-49068423D01*
X98671646Y-49242801D01*
X99126359Y-49243198D01*
X99546612Y-49069554D01*
X99868423Y-48748303D01*
X100042801Y-48328354D01*
X100043198Y-47873641D01*
X100043198Y-50413641D01*
X99869554Y-49993388D01*
X99548303Y-49671577D01*
X99128354Y-49497199D01*
X98673641Y-49496802D01*
X98253388Y-49670446D01*
X97931577Y-49991697D01*
X97873318Y-50132000D01*
X94846826Y-50132000D01*
X94789554Y-49993388D01*
X94468303Y-49671577D01*
X94048354Y-49497199D01*
X93593641Y-49496802D01*
X93173388Y-49670446D01*
X92851577Y-49991697D01*
X92677199Y-50411646D01*
X92676802Y-50866359D01*
X92850446Y-51286612D01*
X93171697Y-51608423D01*
X93591646Y-51782801D01*
X93785660Y-51782970D01*
X93472632Y-51798638D01*
X93088857Y-51957603D01*
X93019392Y-52199787D01*
X93820000Y-53000395D01*
X94620608Y-52199787D01*
X94551143Y-51957603D01*
X94053741Y-51780147D01*
X94466612Y-51609554D01*
X94788423Y-51288303D01*
X94846681Y-51148000D01*
X97873173Y-51148000D01*
X97930446Y-51286612D01*
X98251697Y-51608423D01*
X98671646Y-51782801D01*
X98865660Y-51782970D01*
X98552632Y-51798638D01*
X98168857Y-51957603D01*
X98099392Y-52199787D01*
X98900000Y-53000395D01*
X99700608Y-52199787D01*
X99631143Y-51957603D01*
X99133741Y-51780147D01*
X99546612Y-51609554D01*
X99868423Y-51288303D01*
X100042801Y-50868354D01*
X100043198Y-50413641D01*
X100043198Y-52426140D01*
X99880213Y-52379392D01*
X99079605Y-53180000D01*
X99880213Y-53980608D01*
X100122397Y-53911143D01*
X100309144Y-53387698D01*
X100309144Y-63116709D01*
X100138757Y-63371712D01*
X100050464Y-63815588D01*
X100050464Y-56482000D01*
X100050464Y-54958000D01*
X100022278Y-54812726D01*
X99938404Y-54685044D01*
X99811784Y-54599574D01*
X99662000Y-54569536D01*
X99084056Y-54569536D01*
X99247368Y-54561362D01*
X99631143Y-54402397D01*
X99700608Y-54160213D01*
X98900000Y-53359605D01*
X98720395Y-53539210D01*
X98720395Y-53180000D01*
X97919787Y-52379392D01*
X97677603Y-52448857D01*
X97490856Y-52972302D01*
X97518638Y-53527368D01*
X97677603Y-53911143D01*
X97919787Y-53980608D01*
X98720395Y-53180000D01*
X98720395Y-53539210D01*
X98099392Y-54160213D01*
X98168857Y-54402397D01*
X98637341Y-54569536D01*
X98138000Y-54569536D01*
X97992726Y-54597722D01*
X97865044Y-54681596D01*
X97779574Y-54808216D01*
X97749536Y-54958000D01*
X97749536Y-55212000D01*
X95229144Y-55212000D01*
X95229144Y-53387698D01*
X95201362Y-52832632D01*
X95042397Y-52448857D01*
X94800213Y-52379392D01*
X93999605Y-53180000D01*
X94800213Y-53980608D01*
X95042397Y-53911143D01*
X95229144Y-53387698D01*
X95229144Y-55212000D01*
X94970464Y-55212000D01*
X94970464Y-54958000D01*
X94942278Y-54812726D01*
X94858404Y-54685044D01*
X94731784Y-54599574D01*
X94582000Y-54569536D01*
X94004056Y-54569536D01*
X94167368Y-54561362D01*
X94551143Y-54402397D01*
X94620608Y-54160213D01*
X93820000Y-53359605D01*
X93640395Y-53539210D01*
X93640395Y-53180000D01*
X92839787Y-52379392D01*
X92597603Y-52448857D01*
X92410856Y-52972302D01*
X92438638Y-53527368D01*
X92597603Y-53911143D01*
X92839787Y-53980608D01*
X93640395Y-53180000D01*
X93640395Y-53539210D01*
X93019392Y-54160213D01*
X93088857Y-54402397D01*
X93557341Y-54569536D01*
X93058000Y-54569536D01*
X92912726Y-54597722D01*
X92785044Y-54681596D01*
X92699574Y-54808216D01*
X92669536Y-54958000D01*
X92669536Y-56482000D01*
X92697722Y-56627274D01*
X92781596Y-56754956D01*
X92908216Y-56840426D01*
X93058000Y-56870464D01*
X94582000Y-56870464D01*
X94727274Y-56842278D01*
X94854956Y-56758404D01*
X94940426Y-56631784D01*
X94970464Y-56482000D01*
X94970464Y-56228000D01*
X97749536Y-56228000D01*
X97749536Y-56482000D01*
X97777722Y-56627274D01*
X97861596Y-56754956D01*
X97988216Y-56840426D01*
X98138000Y-56870464D01*
X99662000Y-56870464D01*
X99807274Y-56842278D01*
X99934956Y-56758404D01*
X100020426Y-56631784D01*
X100050464Y-56482000D01*
X100050464Y-63815588D01*
X100044017Y-63848000D01*
X100138757Y-64324288D01*
X100408552Y-64728065D01*
X100812329Y-64997860D01*
X101288617Y-65092600D01*
X101337383Y-65092600D01*
X101813671Y-64997860D01*
X102217448Y-64728065D01*
X102487243Y-64324288D01*
X102581983Y-63848000D01*
X102581983Y-66388000D01*
X102487243Y-65911712D01*
X102217448Y-65507935D01*
X101813671Y-65238140D01*
X101337383Y-65143400D01*
X101288617Y-65143400D01*
X100812329Y-65238140D01*
X100408552Y-65507935D01*
X100138757Y-65911712D01*
X100044017Y-66388000D01*
X100138757Y-66864288D01*
X100408552Y-67268065D01*
X100812329Y-67537860D01*
X101288617Y-67632600D01*
X101337383Y-67632600D01*
X101813671Y-67537860D01*
X102217448Y-67268065D01*
X102487243Y-66864288D01*
X102581983Y-66388000D01*
X102581983Y-93869780D01*
X102565064Y-93852831D01*
X102565064Y-69791600D01*
X102565064Y-68064400D01*
X102536878Y-67919126D01*
X102453004Y-67791444D01*
X102326384Y-67705974D01*
X102176600Y-67675936D01*
X100449400Y-67675936D01*
X100304126Y-67704122D01*
X100176444Y-67787996D01*
X100090974Y-67914616D01*
X100060936Y-68064400D01*
X100060936Y-69791600D01*
X100089122Y-69936874D01*
X100172996Y-70064556D01*
X100299616Y-70150026D01*
X100449400Y-70180064D01*
X102176600Y-70180064D01*
X102321874Y-70151878D01*
X102449556Y-70068004D01*
X102535026Y-69941384D01*
X102565064Y-69791600D01*
X102565064Y-93852831D01*
X102493632Y-93781275D01*
X100230575Y-92841571D01*
X100050464Y-92841413D01*
X100050464Y-89502000D01*
X100050464Y-87978000D01*
X100043198Y-87940550D01*
X100043198Y-85973641D01*
X100043198Y-83433641D01*
X100041983Y-83430700D01*
X100041983Y-68928000D01*
X100041983Y-66388000D01*
X100041983Y-63848000D01*
X99947243Y-63371712D01*
X99677448Y-62967935D01*
X99273671Y-62698140D01*
X98797383Y-62603400D01*
X98748617Y-62603400D01*
X98272329Y-62698140D01*
X97868552Y-62967935D01*
X97619946Y-63340000D01*
X88740000Y-63340000D01*
X88545597Y-63378669D01*
X88490910Y-63415209D01*
X88380789Y-63488790D01*
X87259542Y-64610037D01*
X86989641Y-64609802D01*
X86569388Y-64783446D01*
X86247577Y-65104697D01*
X86073199Y-65524646D01*
X86072802Y-65979359D01*
X86246446Y-66399612D01*
X86567697Y-66721423D01*
X86987646Y-66895801D01*
X87442359Y-66896198D01*
X87862612Y-66722554D01*
X88184423Y-66401303D01*
X88358801Y-65981354D01*
X88359198Y-65526641D01*
X88189787Y-65116633D01*
X88950420Y-64356000D01*
X97619946Y-64356000D01*
X97868552Y-64728065D01*
X98272329Y-64997860D01*
X98748617Y-65092600D01*
X98797383Y-65092600D01*
X99273671Y-64997860D01*
X99677448Y-64728065D01*
X99947243Y-64324288D01*
X100041983Y-63848000D01*
X100041983Y-66388000D01*
X99947243Y-65911712D01*
X99677448Y-65507935D01*
X99273671Y-65238140D01*
X98797383Y-65143400D01*
X98748617Y-65143400D01*
X98272329Y-65238140D01*
X97868552Y-65507935D01*
X97619946Y-65880000D01*
X94792420Y-65880000D01*
X94306210Y-65393790D01*
X94141403Y-65283669D01*
X93947000Y-65245000D01*
X90782826Y-65245000D01*
X90725554Y-65106388D01*
X90404303Y-64784577D01*
X89984354Y-64610199D01*
X89529641Y-64609802D01*
X89109388Y-64783446D01*
X88787577Y-65104697D01*
X88613199Y-65524646D01*
X88612802Y-65979359D01*
X88786446Y-66399612D01*
X89107697Y-66721423D01*
X89527646Y-66895801D01*
X89982359Y-66896198D01*
X90402612Y-66722554D01*
X90724423Y-66401303D01*
X90782681Y-66261000D01*
X93736579Y-66261000D01*
X94222790Y-66747211D01*
X94387597Y-66857331D01*
X94582000Y-66896000D01*
X97619946Y-66896000D01*
X97868552Y-67268065D01*
X98272329Y-67537860D01*
X98748617Y-67632600D01*
X98797383Y-67632600D01*
X99273671Y-67537860D01*
X99677448Y-67268065D01*
X99947243Y-66864288D01*
X100041983Y-66388000D01*
X100041983Y-68928000D01*
X99947243Y-68451712D01*
X99677448Y-68047935D01*
X99273671Y-67778140D01*
X98797383Y-67683400D01*
X98748617Y-67683400D01*
X98272329Y-67778140D01*
X97868552Y-68047935D01*
X97619946Y-68420000D01*
X85775420Y-68420000D01*
X85184000Y-67828580D01*
X85184000Y-66779826D01*
X85322612Y-66722554D01*
X85644423Y-66401303D01*
X85818801Y-65981354D01*
X85819198Y-65526641D01*
X85645554Y-65106388D01*
X85324303Y-64784577D01*
X84904354Y-64610199D01*
X84449641Y-64609802D01*
X84029388Y-64783446D01*
X83707577Y-65104697D01*
X83533199Y-65524646D01*
X83532802Y-65979359D01*
X83706446Y-66399612D01*
X84027697Y-66721423D01*
X84168000Y-66779681D01*
X84168000Y-68039000D01*
X84206669Y-68233403D01*
X84316790Y-68398210D01*
X85205790Y-69287210D01*
X85370597Y-69397331D01*
X85565000Y-69436000D01*
X97619946Y-69436000D01*
X97868552Y-69808065D01*
X98272329Y-70077860D01*
X98748617Y-70172600D01*
X98797383Y-70172600D01*
X99273671Y-70077860D01*
X99677448Y-69808065D01*
X99947243Y-69404288D01*
X100041983Y-68928000D01*
X100041983Y-83430700D01*
X99869554Y-83013388D01*
X99548303Y-82691577D01*
X99128354Y-82517199D01*
X98673641Y-82516802D01*
X98253388Y-82690446D01*
X97931577Y-83011697D01*
X97757199Y-83431646D01*
X97756802Y-83886359D01*
X97930446Y-84306612D01*
X98251697Y-84628423D01*
X98671646Y-84802801D01*
X99126359Y-84803198D01*
X99546612Y-84629554D01*
X99868423Y-84308303D01*
X100042801Y-83888354D01*
X100043198Y-83433641D01*
X100043198Y-85973641D01*
X99869554Y-85553388D01*
X99548303Y-85231577D01*
X99128354Y-85057199D01*
X98673641Y-85056802D01*
X98253388Y-85230446D01*
X97931577Y-85551697D01*
X97873318Y-85692000D01*
X91165144Y-85692000D01*
X91165144Y-77390698D01*
X91137362Y-76835632D01*
X90978397Y-76451857D01*
X90736213Y-76382392D01*
X90556608Y-76561997D01*
X90556608Y-76202787D01*
X90487143Y-75960603D01*
X89963698Y-75773856D01*
X89408632Y-75801638D01*
X89024857Y-75960603D01*
X88955392Y-76202787D01*
X89756000Y-77003395D01*
X90556608Y-76202787D01*
X90556608Y-76561997D01*
X89935605Y-77183000D01*
X90736213Y-77983608D01*
X90978397Y-77914143D01*
X91165144Y-77390698D01*
X91165144Y-85692000D01*
X90556608Y-85692000D01*
X90556608Y-78163213D01*
X89756000Y-77362605D01*
X89576395Y-77542210D01*
X89576395Y-77183000D01*
X88775787Y-76382392D01*
X88533603Y-76451857D01*
X88489547Y-76575344D01*
X88438397Y-76451857D01*
X88196213Y-76382392D01*
X88016608Y-76561997D01*
X88016608Y-76202787D01*
X87947143Y-75960603D01*
X87423698Y-75773856D01*
X86868632Y-75801638D01*
X86484857Y-75960603D01*
X86415392Y-76202787D01*
X87216000Y-77003395D01*
X88016608Y-76202787D01*
X88016608Y-76561997D01*
X87395605Y-77183000D01*
X88196213Y-77983608D01*
X88438397Y-77914143D01*
X88482452Y-77790655D01*
X88533603Y-77914143D01*
X88775787Y-77983608D01*
X89576395Y-77183000D01*
X89576395Y-77542210D01*
X88955392Y-78163213D01*
X89024857Y-78405397D01*
X89548302Y-78592144D01*
X90103368Y-78564362D01*
X90487143Y-78405397D01*
X90556608Y-78163213D01*
X90556608Y-85692000D01*
X88016608Y-85692000D01*
X88016608Y-78163213D01*
X87216000Y-77362605D01*
X87036395Y-77542210D01*
X87036395Y-77183000D01*
X86235787Y-76382392D01*
X85993603Y-76451857D01*
X85949547Y-76575344D01*
X85898397Y-76451857D01*
X85656213Y-76382392D01*
X85476608Y-76561997D01*
X85476608Y-76202787D01*
X85407143Y-75960603D01*
X84883698Y-75773856D01*
X84328632Y-75801638D01*
X83944857Y-75960603D01*
X83875392Y-76202787D01*
X84676000Y-77003395D01*
X85476608Y-76202787D01*
X85476608Y-76561997D01*
X84855605Y-77183000D01*
X85656213Y-77983608D01*
X85898397Y-77914143D01*
X85942452Y-77790655D01*
X85993603Y-77914143D01*
X86235787Y-77983608D01*
X87036395Y-77183000D01*
X87036395Y-77542210D01*
X86415392Y-78163213D01*
X86484857Y-78405397D01*
X87008302Y-78592144D01*
X87563368Y-78564362D01*
X87947143Y-78405397D01*
X88016608Y-78163213D01*
X88016608Y-85692000D01*
X85476608Y-85692000D01*
X85476608Y-78163213D01*
X84676000Y-77362605D01*
X84496395Y-77542210D01*
X84496395Y-77183000D01*
X83695787Y-76382392D01*
X83453603Y-76451857D01*
X83266856Y-76975302D01*
X83294638Y-77530368D01*
X83453603Y-77914143D01*
X83695787Y-77983608D01*
X84496395Y-77183000D01*
X84496395Y-77542210D01*
X83875392Y-78163213D01*
X83944857Y-78405397D01*
X84468302Y-78592144D01*
X85023368Y-78564362D01*
X85407143Y-78405397D01*
X85476608Y-78163213D01*
X85476608Y-85692000D01*
X68737643Y-85692000D01*
X68737643Y-54540518D01*
X68612233Y-54237002D01*
X68380219Y-54004583D01*
X68076923Y-53878643D01*
X67748518Y-53878357D01*
X67594489Y-53942000D01*
X61065313Y-53942000D01*
X61248327Y-53606996D01*
X61265010Y-53527060D01*
X61265010Y-52832940D01*
X61248327Y-52753004D01*
X60981191Y-52264014D01*
X60547262Y-51914475D01*
X60076535Y-51776359D01*
X60362584Y-51719461D01*
X60741641Y-51466184D01*
X60994918Y-51087127D01*
X61083857Y-50640000D01*
X60994918Y-50192873D01*
X60741641Y-49813816D01*
X60362584Y-49560539D01*
X59915457Y-49471600D01*
X59144543Y-49471600D01*
X58697416Y-49560539D01*
X58318359Y-49813816D01*
X58065082Y-50192873D01*
X57976143Y-50640000D01*
X58065082Y-51087127D01*
X58318359Y-51466184D01*
X58697416Y-51719461D01*
X58983464Y-51776359D01*
X58512738Y-51914475D01*
X58078809Y-52264014D01*
X57811673Y-52753004D01*
X57794990Y-52832940D01*
X57917148Y-53053000D01*
X59403000Y-53053000D01*
X59403000Y-53033000D01*
X59657000Y-53033000D01*
X59657000Y-53053000D01*
X61142852Y-53053000D01*
X61265010Y-52832940D01*
X61265010Y-53527060D01*
X61142852Y-53307000D01*
X59657000Y-53307000D01*
X59657000Y-53327000D01*
X59403000Y-53327000D01*
X59403000Y-53307000D01*
X57917148Y-53307000D01*
X57794990Y-53527060D01*
X57811673Y-53606996D01*
X57994686Y-53942000D01*
X56184420Y-53942000D01*
X55063210Y-52820790D01*
X54898403Y-52710669D01*
X54704000Y-52672000D01*
X53463857Y-52672000D01*
X53463857Y-50640000D01*
X53463857Y-48100000D01*
X53374918Y-47652873D01*
X53121641Y-47273816D01*
X52742584Y-47020539D01*
X52295457Y-46931600D01*
X51524543Y-46931600D01*
X51077416Y-47020539D01*
X50698359Y-47273816D01*
X50485755Y-47592000D01*
X50132000Y-47592000D01*
X49937597Y-47630669D01*
X49772790Y-47740790D01*
X49010790Y-48502790D01*
X48900669Y-48667597D01*
X48862000Y-48862000D01*
X48862000Y-49286580D01*
X48270580Y-49878000D01*
X48239144Y-49878000D01*
X48239144Y-48434698D01*
X48211362Y-47879632D01*
X48052397Y-47495857D01*
X47973198Y-47473140D01*
X47973198Y-36570641D01*
X47799554Y-36150388D01*
X47478303Y-35828577D01*
X47058354Y-35654199D01*
X46603641Y-35653802D01*
X46183388Y-35827446D01*
X45861577Y-36148697D01*
X45687199Y-36568646D01*
X45687029Y-36762660D01*
X45671362Y-36449632D01*
X45512397Y-36065857D01*
X45270213Y-35996392D01*
X45090608Y-36175997D01*
X45090608Y-35816787D01*
X45021143Y-35574603D01*
X44497698Y-35387856D01*
X43942632Y-35415638D01*
X43558857Y-35574603D01*
X43489392Y-35816787D01*
X44290000Y-36617395D01*
X45090608Y-35816787D01*
X45090608Y-36175997D01*
X44469605Y-36797000D01*
X45270213Y-37597608D01*
X45512397Y-37528143D01*
X45689852Y-37030741D01*
X45860446Y-37443612D01*
X46181697Y-37765423D01*
X46601646Y-37939801D01*
X47056359Y-37940198D01*
X47476612Y-37766554D01*
X47798423Y-37445303D01*
X47972801Y-37025354D01*
X47973198Y-36570641D01*
X47973198Y-47473140D01*
X47810213Y-47426392D01*
X47630608Y-47605997D01*
X47630608Y-47246787D01*
X47561143Y-47004603D01*
X47037698Y-46817856D01*
X46482632Y-46845638D01*
X46098857Y-47004603D01*
X46029392Y-47246787D01*
X46830000Y-48047395D01*
X47630608Y-47246787D01*
X47630608Y-47605997D01*
X47009605Y-48227000D01*
X47810213Y-49027608D01*
X48052397Y-48958143D01*
X48239144Y-48434698D01*
X48239144Y-49878000D01*
X47630608Y-49878000D01*
X47630608Y-49207213D01*
X46830000Y-48406605D01*
X46029392Y-49207213D01*
X46098857Y-49449397D01*
X46622302Y-49636144D01*
X47177368Y-49608362D01*
X47561143Y-49449397D01*
X47630608Y-49207213D01*
X47630608Y-49878000D01*
X45389420Y-49878000D01*
X44798000Y-49286580D01*
X44798000Y-49253826D01*
X44936612Y-49196554D01*
X45258423Y-48875303D01*
X45432801Y-48455354D01*
X45432970Y-48261339D01*
X45448638Y-48574368D01*
X45607603Y-48958143D01*
X45849787Y-49027608D01*
X46650395Y-48227000D01*
X45849787Y-47426392D01*
X45607603Y-47495857D01*
X45430147Y-47993258D01*
X45259554Y-47580388D01*
X45090608Y-47411147D01*
X45090608Y-37777213D01*
X44290000Y-36976605D01*
X44110395Y-37156210D01*
X44110395Y-36797000D01*
X43309787Y-35996392D01*
X43067603Y-36065857D01*
X43023547Y-36189344D01*
X42972397Y-36065857D01*
X42730213Y-35996392D01*
X42550608Y-36175997D01*
X42550608Y-35816787D01*
X42481143Y-35574603D01*
X41957698Y-35387856D01*
X41402632Y-35415638D01*
X41018857Y-35574603D01*
X40949392Y-35816787D01*
X41750000Y-36617395D01*
X42550608Y-35816787D01*
X42550608Y-36175997D01*
X41929605Y-36797000D01*
X42730213Y-37597608D01*
X42972397Y-37528143D01*
X43016452Y-37404655D01*
X43067603Y-37528143D01*
X43309787Y-37597608D01*
X44110395Y-36797000D01*
X44110395Y-37156210D01*
X43489392Y-37777213D01*
X43558857Y-38019397D01*
X44082302Y-38206144D01*
X44637368Y-38178362D01*
X45021143Y-38019397D01*
X45090608Y-37777213D01*
X45090608Y-47411147D01*
X44938303Y-47258577D01*
X44518354Y-47084199D01*
X44063641Y-47083802D01*
X43643388Y-47257446D01*
X43321577Y-47578697D01*
X43147199Y-47998646D01*
X43146802Y-48453359D01*
X43320446Y-48873612D01*
X43641697Y-49195423D01*
X43782000Y-49253681D01*
X43782000Y-49497000D01*
X43820669Y-49691403D01*
X43930790Y-49856210D01*
X44819790Y-50745210D01*
X44984597Y-50855331D01*
X45179000Y-50894000D01*
X48481000Y-50894000D01*
X48675403Y-50855331D01*
X48840210Y-50745210D01*
X49729210Y-49856210D01*
X49839331Y-49691403D01*
X49878000Y-49497000D01*
X49878000Y-49072420D01*
X50342420Y-48608000D01*
X50485755Y-48608000D01*
X50698359Y-48926184D01*
X51077416Y-49179461D01*
X51524543Y-49268400D01*
X52295457Y-49268400D01*
X52742584Y-49179461D01*
X53121641Y-48926184D01*
X53374918Y-48547127D01*
X53463857Y-48100000D01*
X53463857Y-50640000D01*
X53374918Y-50192873D01*
X53121641Y-49813816D01*
X52742584Y-49560539D01*
X52295457Y-49471600D01*
X51524543Y-49471600D01*
X51077416Y-49560539D01*
X50698359Y-49813816D01*
X50445082Y-50192873D01*
X50356143Y-50640000D01*
X50445082Y-51087127D01*
X50698359Y-51466184D01*
X51077416Y-51719461D01*
X51524543Y-51808400D01*
X52295457Y-51808400D01*
X52742584Y-51719461D01*
X53121641Y-51466184D01*
X53374918Y-51087127D01*
X53463857Y-50640000D01*
X53463857Y-52672000D01*
X53334244Y-52672000D01*
X53121641Y-52353816D01*
X52742584Y-52100539D01*
X52295457Y-52011600D01*
X51524543Y-52011600D01*
X51077416Y-52100539D01*
X50698359Y-52353816D01*
X50485755Y-52672000D01*
X44627420Y-52672000D01*
X42258000Y-50302579D01*
X42258000Y-49253826D01*
X42396612Y-49196554D01*
X42718423Y-48875303D01*
X42892801Y-48455354D01*
X42893198Y-48000641D01*
X42719554Y-47580388D01*
X42550608Y-47411147D01*
X42550608Y-37777213D01*
X41750000Y-36976605D01*
X41570395Y-37156210D01*
X41570395Y-36797000D01*
X40769787Y-35996392D01*
X40527603Y-36065857D01*
X40340856Y-36589302D01*
X40368638Y-37144368D01*
X40527603Y-37528143D01*
X40769787Y-37597608D01*
X41570395Y-36797000D01*
X41570395Y-37156210D01*
X40949392Y-37777213D01*
X41018857Y-38019397D01*
X41542302Y-38206144D01*
X42097368Y-38178362D01*
X42481143Y-38019397D01*
X42550608Y-37777213D01*
X42550608Y-47411147D01*
X42398303Y-47258577D01*
X41978354Y-47084199D01*
X41523641Y-47083802D01*
X41103388Y-47257446D01*
X40781577Y-47578697D01*
X40607199Y-47998646D01*
X40606802Y-48453359D01*
X40780446Y-48873612D01*
X41101697Y-49195423D01*
X41242000Y-49253681D01*
X41242000Y-50513000D01*
X41280669Y-50707403D01*
X41390790Y-50872210D01*
X44057790Y-53539211D01*
X44222597Y-53649331D01*
X44417000Y-53688000D01*
X50485755Y-53688000D01*
X50698359Y-54006184D01*
X51077416Y-54259461D01*
X51524543Y-54348400D01*
X52295457Y-54348400D01*
X52742584Y-54259461D01*
X53121641Y-54006184D01*
X53334244Y-53688000D01*
X54493580Y-53688000D01*
X55614790Y-54809210D01*
X55779596Y-54919331D01*
X55779597Y-54919331D01*
X55811849Y-54925746D01*
X55974000Y-54958000D01*
X58275472Y-54958000D01*
X58065082Y-55272873D01*
X57976143Y-55720000D01*
X58065082Y-56167127D01*
X58318359Y-56546184D01*
X58697416Y-56799461D01*
X59144543Y-56888400D01*
X59915457Y-56888400D01*
X60362584Y-56799461D01*
X60741641Y-56546184D01*
X60994918Y-56167127D01*
X61083857Y-55720000D01*
X60994918Y-55272873D01*
X60784527Y-54958000D01*
X67123758Y-54958000D01*
X67211767Y-55170998D01*
X67443781Y-55403417D01*
X67747077Y-55529357D01*
X68075482Y-55529643D01*
X68378998Y-55404233D01*
X68611417Y-55172219D01*
X68737357Y-54868923D01*
X68737643Y-54540518D01*
X68737643Y-85692000D01*
X68420000Y-85692000D01*
X68225597Y-85730669D01*
X68170910Y-85767209D01*
X68060789Y-85840790D01*
X68018986Y-85882592D01*
X67748518Y-85882357D01*
X67445002Y-86007767D01*
X67212583Y-86239781D01*
X67086643Y-86543077D01*
X67086357Y-86871482D01*
X67211767Y-87174998D01*
X67443781Y-87407417D01*
X67747077Y-87533357D01*
X68075482Y-87533643D01*
X68378998Y-87408233D01*
X68611417Y-87176219D01*
X68737357Y-86872923D01*
X68737500Y-86708000D01*
X97873173Y-86708000D01*
X97930446Y-86846612D01*
X98251697Y-87168423D01*
X98671646Y-87342801D01*
X99126359Y-87343198D01*
X99546612Y-87169554D01*
X99868423Y-86848303D01*
X100042801Y-86428354D01*
X100043198Y-85973641D01*
X100043198Y-87940550D01*
X100022278Y-87832726D01*
X99938404Y-87705044D01*
X99811784Y-87619574D01*
X99662000Y-87589536D01*
X98138000Y-87589536D01*
X97992726Y-87617722D01*
X97865044Y-87701596D01*
X97779574Y-87828216D01*
X97749536Y-87978000D01*
X97749536Y-89502000D01*
X97777722Y-89647274D01*
X97861596Y-89774956D01*
X97988216Y-89860426D01*
X98138000Y-89890464D01*
X99662000Y-89890464D01*
X99807274Y-89862278D01*
X99934956Y-89778404D01*
X100020426Y-89651784D01*
X100050464Y-89502000D01*
X100050464Y-92841413D01*
X97780175Y-92839433D01*
X95515482Y-93775185D01*
X93781275Y-95506368D01*
X92841571Y-97769425D01*
X92839433Y-100219825D01*
X93262719Y-101244257D01*
X92875050Y-101083283D01*
X92227789Y-101082718D01*
X91629582Y-101329892D01*
X91171501Y-101787175D01*
X90923283Y-102384950D01*
X90922718Y-103032211D01*
X91169892Y-103630418D01*
X91627175Y-104088499D01*
X92224950Y-104336717D01*
X92872211Y-104337282D01*
X93470418Y-104090108D01*
X93928499Y-103632825D01*
X94176717Y-103035050D01*
X94176846Y-102886880D01*
X95506368Y-104218725D01*
X96349923Y-104569000D01*
X61083857Y-104569000D01*
X61083857Y-70960000D01*
X61083857Y-68420000D01*
X61083857Y-65880000D01*
X61083857Y-63340000D01*
X61083857Y-60800000D01*
X61083857Y-58260000D01*
X60994918Y-57812873D01*
X60741641Y-57433816D01*
X60362584Y-57180539D01*
X59915457Y-57091600D01*
X59144543Y-57091600D01*
X58697416Y-57180539D01*
X58318359Y-57433816D01*
X58065082Y-57812873D01*
X57976143Y-58260000D01*
X58065082Y-58707127D01*
X58318359Y-59086184D01*
X58697416Y-59339461D01*
X59144543Y-59428400D01*
X59915457Y-59428400D01*
X60362584Y-59339461D01*
X60741641Y-59086184D01*
X60994918Y-58707127D01*
X61083857Y-58260000D01*
X61083857Y-60800000D01*
X60994918Y-60352873D01*
X60741641Y-59973816D01*
X60362584Y-59720539D01*
X59915457Y-59631600D01*
X59144543Y-59631600D01*
X58697416Y-59720539D01*
X58318359Y-59973816D01*
X58065082Y-60352873D01*
X57976143Y-60800000D01*
X58065082Y-61247127D01*
X58318359Y-61626184D01*
X58697416Y-61879461D01*
X59144543Y-61968400D01*
X59915457Y-61968400D01*
X60362584Y-61879461D01*
X60741641Y-61626184D01*
X60994918Y-61247127D01*
X61083857Y-60800000D01*
X61083857Y-63340000D01*
X60994918Y-62892873D01*
X60741641Y-62513816D01*
X60362584Y-62260539D01*
X59915457Y-62171600D01*
X59144543Y-62171600D01*
X58697416Y-62260539D01*
X58318359Y-62513816D01*
X58065082Y-62892873D01*
X57976143Y-63340000D01*
X58065082Y-63787127D01*
X58318359Y-64166184D01*
X58697416Y-64419461D01*
X59144543Y-64508400D01*
X59915457Y-64508400D01*
X60362584Y-64419461D01*
X60741641Y-64166184D01*
X60994918Y-63787127D01*
X61083857Y-63340000D01*
X61083857Y-65880000D01*
X60994918Y-65432873D01*
X60741641Y-65053816D01*
X60362584Y-64800539D01*
X59915457Y-64711600D01*
X59144543Y-64711600D01*
X58697416Y-64800539D01*
X58318359Y-65053816D01*
X58065082Y-65432873D01*
X57976143Y-65880000D01*
X58065082Y-66327127D01*
X58318359Y-66706184D01*
X58697416Y-66959461D01*
X59144543Y-67048400D01*
X59915457Y-67048400D01*
X60362584Y-66959461D01*
X60741641Y-66706184D01*
X60994918Y-66327127D01*
X61083857Y-65880000D01*
X61083857Y-68420000D01*
X60994918Y-67972873D01*
X60741641Y-67593816D01*
X60362584Y-67340539D01*
X59915457Y-67251600D01*
X59144543Y-67251600D01*
X58697416Y-67340539D01*
X58318359Y-67593816D01*
X58065082Y-67972873D01*
X57976143Y-68420000D01*
X58065082Y-68867127D01*
X58318359Y-69246184D01*
X58697416Y-69499461D01*
X59144543Y-69588400D01*
X59915457Y-69588400D01*
X60362584Y-69499461D01*
X60741641Y-69246184D01*
X60994918Y-68867127D01*
X61083857Y-68420000D01*
X61083857Y-70960000D01*
X60994918Y-70512873D01*
X60741641Y-70133816D01*
X60362584Y-69880539D01*
X59915457Y-69791600D01*
X59144543Y-69791600D01*
X58697416Y-69880539D01*
X58318359Y-70133816D01*
X58065082Y-70512873D01*
X57976143Y-70960000D01*
X58065082Y-71407127D01*
X58318359Y-71786184D01*
X58697416Y-72039461D01*
X59144543Y-72128400D01*
X59915457Y-72128400D01*
X60362584Y-72039461D01*
X60741641Y-71786184D01*
X60994918Y-71407127D01*
X61083857Y-70960000D01*
X61083857Y-104569000D01*
X61061464Y-104569000D01*
X61061464Y-74287400D01*
X61061464Y-72712600D01*
X61033278Y-72567326D01*
X60949404Y-72439644D01*
X60822784Y-72354174D01*
X60673000Y-72324136D01*
X58387000Y-72324136D01*
X58241726Y-72352322D01*
X58114044Y-72436196D01*
X58028574Y-72562816D01*
X57998536Y-72712600D01*
X57998536Y-74287400D01*
X58026722Y-74432674D01*
X58110596Y-74560356D01*
X58237216Y-74645826D01*
X58387000Y-74675864D01*
X60673000Y-74675864D01*
X60818274Y-74647678D01*
X60945956Y-74563804D01*
X61031426Y-74437184D01*
X61061464Y-74287400D01*
X61061464Y-104569000D01*
X59127178Y-104569000D01*
X59127178Y-78653821D01*
X58970549Y-78274749D01*
X58680777Y-77984471D01*
X58301978Y-77827180D01*
X57891821Y-77826822D01*
X57512749Y-77983451D01*
X57222471Y-78273223D01*
X57065180Y-78652022D01*
X57064822Y-79062179D01*
X57221451Y-79441251D01*
X57511223Y-79731529D01*
X57890022Y-79888820D01*
X58300179Y-79889178D01*
X58679251Y-79732549D01*
X58969529Y-79442777D01*
X59126820Y-79063978D01*
X59127178Y-78653821D01*
X59127178Y-104569000D01*
X54381000Y-104569000D01*
X54381000Y-79634310D01*
X54381000Y-79381691D01*
X54381000Y-79143750D01*
X54381000Y-78572250D01*
X54381000Y-78334309D01*
X54381000Y-78081690D01*
X54284327Y-77848301D01*
X54105698Y-77669673D01*
X53872309Y-77573000D01*
X53463857Y-77573000D01*
X53463857Y-73500000D01*
X53374918Y-73052873D01*
X53121641Y-72673816D01*
X52742584Y-72420539D01*
X52295457Y-72331600D01*
X51524543Y-72331600D01*
X51077416Y-72420539D01*
X50698359Y-72673816D01*
X50485755Y-72992000D01*
X31800420Y-72992000D01*
X28344410Y-69535990D01*
X28179603Y-69425869D01*
X27985200Y-69387200D01*
X24748194Y-69387200D01*
X24938423Y-69197303D01*
X24996681Y-69057000D01*
X28968580Y-69057000D01*
X31230790Y-71319210D01*
X31395597Y-71429331D01*
X31590000Y-71468000D01*
X50485755Y-71468000D01*
X50698359Y-71786184D01*
X51077416Y-72039461D01*
X51524543Y-72128400D01*
X52295457Y-72128400D01*
X52742584Y-72039461D01*
X53121641Y-71786184D01*
X53374918Y-71407127D01*
X53463857Y-70960000D01*
X53374918Y-70512873D01*
X53121641Y-70133816D01*
X52742584Y-69880539D01*
X52295457Y-69791600D01*
X51524543Y-69791600D01*
X51077416Y-69880539D01*
X50698359Y-70133816D01*
X50485755Y-70452000D01*
X31800420Y-70452000D01*
X29538210Y-68189790D01*
X29373403Y-68079669D01*
X29179000Y-68041000D01*
X24996826Y-68041000D01*
X24939554Y-67902388D01*
X24646876Y-67609200D01*
X30060780Y-67609200D01*
X31230790Y-68779210D01*
X31395597Y-68889331D01*
X31590000Y-68928000D01*
X50485755Y-68928000D01*
X50698359Y-69246184D01*
X51077416Y-69499461D01*
X51524543Y-69588400D01*
X52295457Y-69588400D01*
X52742584Y-69499461D01*
X53121641Y-69246184D01*
X53374918Y-68867127D01*
X53463857Y-68420000D01*
X53374918Y-67972873D01*
X53121641Y-67593816D01*
X52742584Y-67340539D01*
X52295457Y-67251600D01*
X51524543Y-67251600D01*
X51077416Y-67340539D01*
X50698359Y-67593816D01*
X50485755Y-67912000D01*
X31800420Y-67912000D01*
X30630410Y-66741990D01*
X30465603Y-66631869D01*
X30271200Y-66593200D01*
X24748194Y-66593200D01*
X24938423Y-66403303D01*
X24996681Y-66263000D01*
X50432326Y-66263000D01*
X50445082Y-66327127D01*
X50698359Y-66706184D01*
X51077416Y-66959461D01*
X51524543Y-67048400D01*
X52295457Y-67048400D01*
X52742584Y-66959461D01*
X53121641Y-66706184D01*
X53374918Y-66327127D01*
X53463857Y-65880000D01*
X53374918Y-65432873D01*
X53121641Y-65053816D01*
X52742584Y-64800539D01*
X52295457Y-64711600D01*
X51524543Y-64711600D01*
X51077416Y-64800539D01*
X50698359Y-65053816D01*
X50569277Y-65247000D01*
X24996826Y-65247000D01*
X24939554Y-65108388D01*
X24697587Y-64866000D01*
X48352000Y-64866000D01*
X48546403Y-64827331D01*
X48711210Y-64717210D01*
X49580420Y-63848000D01*
X50485755Y-63848000D01*
X50698359Y-64166184D01*
X51077416Y-64419461D01*
X51524543Y-64508400D01*
X52295457Y-64508400D01*
X52742584Y-64419461D01*
X53121641Y-64166184D01*
X53374918Y-63787127D01*
X53463857Y-63340000D01*
X53374918Y-62892873D01*
X53121641Y-62513816D01*
X52742584Y-62260539D01*
X52295457Y-62171600D01*
X51524543Y-62171600D01*
X51077416Y-62260539D01*
X50698359Y-62513816D01*
X50485755Y-62832000D01*
X49370000Y-62832000D01*
X49207849Y-62864253D01*
X49175596Y-62870669D01*
X49010789Y-62980790D01*
X48141579Y-63850000D01*
X24697306Y-63850000D01*
X24938423Y-63609303D01*
X24996681Y-63469000D01*
X47209000Y-63469000D01*
X47403403Y-63430331D01*
X47568210Y-63320210D01*
X49580420Y-61308000D01*
X50485755Y-61308000D01*
X50698359Y-61626184D01*
X51077416Y-61879461D01*
X51524543Y-61968400D01*
X52295457Y-61968400D01*
X52742584Y-61879461D01*
X53121641Y-61626184D01*
X53374918Y-61247127D01*
X53463857Y-60800000D01*
X53374918Y-60352873D01*
X53121641Y-59973816D01*
X52742584Y-59720539D01*
X52295457Y-59631600D01*
X51524543Y-59631600D01*
X51077416Y-59720539D01*
X50698359Y-59973816D01*
X50485755Y-60292000D01*
X49370000Y-60292000D01*
X49175597Y-60330669D01*
X49010790Y-60440789D01*
X46998579Y-62453000D01*
X24996826Y-62453000D01*
X24939554Y-62314388D01*
X24748299Y-62122800D01*
X46015200Y-62122800D01*
X46209603Y-62084131D01*
X46374410Y-61974010D01*
X49580420Y-58768000D01*
X50485755Y-58768000D01*
X50698359Y-59086184D01*
X51077416Y-59339461D01*
X51524543Y-59428400D01*
X52295457Y-59428400D01*
X52742584Y-59339461D01*
X53121641Y-59086184D01*
X53374918Y-58707127D01*
X53463857Y-58260000D01*
X53374918Y-57812873D01*
X53121641Y-57433816D01*
X52742584Y-57180539D01*
X52295457Y-57091600D01*
X51524543Y-57091600D01*
X51077416Y-57180539D01*
X50698359Y-57433816D01*
X50485755Y-57752000D01*
X49370000Y-57752000D01*
X49175597Y-57790669D01*
X49010790Y-57900790D01*
X45804780Y-61106800D01*
X24646417Y-61106800D01*
X24938423Y-60815303D01*
X24996681Y-60675000D01*
X39083000Y-60675000D01*
X45177000Y-60675000D01*
X45371403Y-60636331D01*
X45536210Y-60526210D01*
X49834420Y-56228000D01*
X50485755Y-56228000D01*
X50698359Y-56546184D01*
X51077416Y-56799461D01*
X51524543Y-56888400D01*
X52295457Y-56888400D01*
X52742584Y-56799461D01*
X53121641Y-56546184D01*
X53374918Y-56167127D01*
X53463857Y-55720000D01*
X53374918Y-55272873D01*
X53121641Y-54893816D01*
X52742584Y-54640539D01*
X52295457Y-54551600D01*
X51524543Y-54551600D01*
X51077416Y-54640539D01*
X50698359Y-54893816D01*
X50485755Y-55212000D01*
X49624000Y-55212000D01*
X49429597Y-55250669D01*
X49264790Y-55360790D01*
X44966580Y-59659000D01*
X39083000Y-59659000D01*
X35539144Y-59659000D01*
X35539144Y-33702698D01*
X35511362Y-33147632D01*
X35352397Y-32763857D01*
X35110213Y-32694392D01*
X34930608Y-32873997D01*
X34930608Y-32514787D01*
X34861143Y-32272603D01*
X34337698Y-32085856D01*
X33782632Y-32113638D01*
X33398857Y-32272603D01*
X33329392Y-32514787D01*
X34130000Y-33315395D01*
X34930608Y-32514787D01*
X34930608Y-32873997D01*
X34309605Y-33495000D01*
X35110213Y-34295608D01*
X35352397Y-34226143D01*
X35539144Y-33702698D01*
X35539144Y-59659000D01*
X34930608Y-59659000D01*
X34930608Y-34475213D01*
X34130000Y-33674605D01*
X33950395Y-33854210D01*
X33950395Y-33495000D01*
X33149787Y-32694392D01*
X32907603Y-32763857D01*
X32863547Y-32887344D01*
X32812397Y-32763857D01*
X32570213Y-32694392D01*
X32390608Y-32873997D01*
X32390608Y-32514787D01*
X32321143Y-32272603D01*
X31797698Y-32085856D01*
X31242632Y-32113638D01*
X30858857Y-32272603D01*
X30789392Y-32514787D01*
X31590000Y-33315395D01*
X32390608Y-32514787D01*
X32390608Y-32873997D01*
X31769605Y-33495000D01*
X32570213Y-34295608D01*
X32812397Y-34226143D01*
X32856452Y-34102655D01*
X32907603Y-34226143D01*
X33149787Y-34295608D01*
X33950395Y-33495000D01*
X33950395Y-33854210D01*
X33329392Y-34475213D01*
X33398857Y-34717397D01*
X33922302Y-34904144D01*
X34477368Y-34876362D01*
X34861143Y-34717397D01*
X34930608Y-34475213D01*
X34930608Y-59659000D01*
X32390608Y-59659000D01*
X32390608Y-34475213D01*
X31590000Y-33674605D01*
X31410395Y-33854210D01*
X31410395Y-33495000D01*
X30609787Y-32694392D01*
X30367603Y-32763857D01*
X30180856Y-33287302D01*
X30208638Y-33842368D01*
X30367603Y-34226143D01*
X30609787Y-34295608D01*
X31410395Y-33495000D01*
X31410395Y-33854210D01*
X30789392Y-34475213D01*
X30858857Y-34717397D01*
X31382302Y-34904144D01*
X31937368Y-34876362D01*
X32321143Y-34717397D01*
X32390608Y-34475213D01*
X32390608Y-59659000D01*
X25113198Y-59659000D01*
X25113198Y-57273641D01*
X25113198Y-54479641D01*
X25113198Y-51685641D01*
X25113198Y-48891641D01*
X25113198Y-46224641D01*
X25113198Y-43430641D01*
X25113198Y-40636641D01*
X24962282Y-40271394D01*
X24962282Y-13487789D01*
X24715108Y-12889582D01*
X24257825Y-12431501D01*
X23660050Y-12183283D01*
X23012789Y-12182718D01*
X22414582Y-12429892D01*
X21956501Y-12887175D01*
X21708283Y-13484950D01*
X21707718Y-14132211D01*
X21954892Y-14730418D01*
X22412175Y-15188499D01*
X23009950Y-15436717D01*
X23657211Y-15437282D01*
X24255418Y-15190108D01*
X24713499Y-14732825D01*
X24961717Y-14135050D01*
X24962282Y-13487789D01*
X24962282Y-40271394D01*
X24939554Y-40216388D01*
X24618303Y-39894577D01*
X24198354Y-39720199D01*
X23743641Y-39719802D01*
X23716396Y-39731059D01*
X23716396Y-33552281D01*
X23369106Y-32711777D01*
X22726605Y-32068154D01*
X21886708Y-31719398D01*
X20977281Y-31718604D01*
X20136777Y-32065894D01*
X19493154Y-32708395D01*
X19144398Y-33548292D01*
X19143604Y-34457719D01*
X19490894Y-35298223D01*
X20133395Y-35941846D01*
X20973292Y-36290602D01*
X21882719Y-36291396D01*
X22723223Y-35944106D01*
X23366846Y-35301605D01*
X23715602Y-34461708D01*
X23716396Y-33552281D01*
X23716396Y-39731059D01*
X23323388Y-39893446D01*
X23001577Y-40214697D01*
X22827199Y-40634646D01*
X22826802Y-41089359D01*
X23000446Y-41509612D01*
X23321697Y-41831423D01*
X23741646Y-42005801D01*
X24196359Y-42006198D01*
X24616612Y-41832554D01*
X24938423Y-41511303D01*
X25112801Y-41091354D01*
X25113198Y-40636641D01*
X25113198Y-43430641D01*
X24939554Y-43010388D01*
X24618303Y-42688577D01*
X24198354Y-42514199D01*
X23743641Y-42513802D01*
X23323388Y-42687446D01*
X23001577Y-43008697D01*
X22827199Y-43428646D01*
X22826802Y-43883359D01*
X23000446Y-44303612D01*
X23321697Y-44625423D01*
X23741646Y-44799801D01*
X24196359Y-44800198D01*
X24616612Y-44626554D01*
X24938423Y-44305303D01*
X25112801Y-43885354D01*
X25113198Y-43430641D01*
X25113198Y-46224641D01*
X24939554Y-45804388D01*
X24618303Y-45482577D01*
X24198354Y-45308199D01*
X23743641Y-45307802D01*
X23323388Y-45481446D01*
X23001577Y-45802697D01*
X22827199Y-46222646D01*
X22826802Y-46677359D01*
X23000446Y-47097612D01*
X23321697Y-47419423D01*
X23741646Y-47593801D01*
X24196359Y-47594198D01*
X24616612Y-47420554D01*
X24938423Y-47099303D01*
X25112801Y-46679354D01*
X25113198Y-46224641D01*
X25113198Y-48891641D01*
X24939554Y-48471388D01*
X24618303Y-48149577D01*
X24198354Y-47975199D01*
X23743641Y-47974802D01*
X23323388Y-48148446D01*
X23001577Y-48469697D01*
X22827199Y-48889646D01*
X22826802Y-49344359D01*
X23000446Y-49764612D01*
X23321697Y-50086423D01*
X23741646Y-50260801D01*
X24196359Y-50261198D01*
X24616612Y-50087554D01*
X24938423Y-49766303D01*
X25112801Y-49346354D01*
X25113198Y-48891641D01*
X25113198Y-51685641D01*
X24939554Y-51265388D01*
X24618303Y-50943577D01*
X24198354Y-50769199D01*
X23743641Y-50768802D01*
X23323388Y-50942446D01*
X23001577Y-51263697D01*
X22827199Y-51683646D01*
X22826802Y-52138359D01*
X23000446Y-52558612D01*
X23321697Y-52880423D01*
X23741646Y-53054801D01*
X24196359Y-53055198D01*
X24616612Y-52881554D01*
X24938423Y-52560303D01*
X25112801Y-52140354D01*
X25113198Y-51685641D01*
X25113198Y-54479641D01*
X24939554Y-54059388D01*
X24618303Y-53737577D01*
X24198354Y-53563199D01*
X23743641Y-53562802D01*
X23323388Y-53736446D01*
X23001577Y-54057697D01*
X22827199Y-54477646D01*
X22826802Y-54932359D01*
X23000446Y-55352612D01*
X23321697Y-55674423D01*
X23741646Y-55848801D01*
X24196359Y-55849198D01*
X24616612Y-55675554D01*
X24938423Y-55354303D01*
X25112801Y-54934354D01*
X25113198Y-54479641D01*
X25113198Y-57273641D01*
X24939554Y-56853388D01*
X24618303Y-56531577D01*
X24198354Y-56357199D01*
X23743641Y-56356802D01*
X23323388Y-56530446D01*
X23001577Y-56851697D01*
X22827199Y-57271646D01*
X22826802Y-57726359D01*
X23000446Y-58146612D01*
X23321697Y-58468423D01*
X23741646Y-58642801D01*
X24196359Y-58643198D01*
X24616612Y-58469554D01*
X24938423Y-58148303D01*
X25112801Y-57728354D01*
X25113198Y-57273641D01*
X25113198Y-59659000D01*
X24996826Y-59659000D01*
X24939554Y-59520388D01*
X24618303Y-59198577D01*
X24198354Y-59024199D01*
X23743641Y-59023802D01*
X23323388Y-59197446D01*
X23001577Y-59518697D01*
X22827199Y-59938646D01*
X22826802Y-60393359D01*
X23000446Y-60813612D01*
X23293123Y-61106800D01*
X22573198Y-61106800D01*
X22573198Y-58594441D01*
X22573198Y-55851241D01*
X22573198Y-53108041D01*
X22573198Y-50263241D01*
X22573198Y-47570841D01*
X22573198Y-44827641D01*
X22573198Y-42033641D01*
X22399554Y-41613388D01*
X22078303Y-41291577D01*
X21658354Y-41117199D01*
X21203641Y-41116802D01*
X20783388Y-41290446D01*
X20461577Y-41611697D01*
X20287199Y-42031646D01*
X20286802Y-42486359D01*
X20460446Y-42906612D01*
X20781697Y-43228423D01*
X21201646Y-43402801D01*
X21656359Y-43403198D01*
X22076612Y-43229554D01*
X22398423Y-42908303D01*
X22572801Y-42488354D01*
X22573198Y-42033641D01*
X22573198Y-44827641D01*
X22399554Y-44407388D01*
X22078303Y-44085577D01*
X21658354Y-43911199D01*
X21203641Y-43910802D01*
X20783388Y-44084446D01*
X20461577Y-44405697D01*
X20287199Y-44825646D01*
X20286802Y-45280359D01*
X20460446Y-45700612D01*
X20781697Y-46022423D01*
X21201646Y-46196801D01*
X21656359Y-46197198D01*
X22076612Y-46023554D01*
X22398423Y-45702303D01*
X22572801Y-45282354D01*
X22573198Y-44827641D01*
X22573198Y-47570841D01*
X22399554Y-47150588D01*
X22078303Y-46828777D01*
X21658354Y-46654399D01*
X21203641Y-46654002D01*
X20783388Y-46827646D01*
X20461577Y-47148897D01*
X20287199Y-47568846D01*
X20286802Y-48023559D01*
X20460446Y-48443812D01*
X20781697Y-48765623D01*
X21201646Y-48940001D01*
X21656359Y-48940398D01*
X22076612Y-48766754D01*
X22398423Y-48445503D01*
X22572801Y-48025554D01*
X22573198Y-47570841D01*
X22573198Y-50263241D01*
X22399554Y-49842988D01*
X22078303Y-49521177D01*
X21658354Y-49346799D01*
X21203641Y-49346402D01*
X20783388Y-49520046D01*
X20461577Y-49841297D01*
X20287199Y-50261246D01*
X20286802Y-50715959D01*
X20460446Y-51136212D01*
X20781697Y-51458023D01*
X21201646Y-51632401D01*
X21656359Y-51632798D01*
X22076612Y-51459154D01*
X22398423Y-51137903D01*
X22572801Y-50717954D01*
X22573198Y-50263241D01*
X22573198Y-53108041D01*
X22399554Y-52687788D01*
X22078303Y-52365977D01*
X21658354Y-52191599D01*
X21203641Y-52191202D01*
X20783388Y-52364846D01*
X20461577Y-52686097D01*
X20287199Y-53106046D01*
X20286802Y-53560759D01*
X20460446Y-53981012D01*
X20781697Y-54302823D01*
X21201646Y-54477201D01*
X21656359Y-54477598D01*
X22076612Y-54303954D01*
X22398423Y-53982703D01*
X22572801Y-53562754D01*
X22573198Y-53108041D01*
X22573198Y-55851241D01*
X22399554Y-55430988D01*
X22078303Y-55109177D01*
X21658354Y-54934799D01*
X21203641Y-54934402D01*
X20783388Y-55108046D01*
X20461577Y-55429297D01*
X20287199Y-55849246D01*
X20286802Y-56303959D01*
X20460446Y-56724212D01*
X20781697Y-57046023D01*
X21201646Y-57220401D01*
X21656359Y-57220798D01*
X22076612Y-57047154D01*
X22398423Y-56725903D01*
X22572801Y-56305954D01*
X22573198Y-55851241D01*
X22573198Y-58594441D01*
X22399554Y-58174188D01*
X22078303Y-57852377D01*
X21658354Y-57677999D01*
X21203641Y-57677602D01*
X20783388Y-57851246D01*
X20461577Y-58172497D01*
X20287199Y-58592446D01*
X20286802Y-59047159D01*
X20460446Y-59467412D01*
X20781697Y-59789223D01*
X21201646Y-59963601D01*
X21656359Y-59963998D01*
X22076612Y-59790354D01*
X22398423Y-59469103D01*
X22572801Y-59049154D01*
X22573198Y-58594441D01*
X22573198Y-61106800D01*
X22456826Y-61106800D01*
X22399554Y-60968188D01*
X22078303Y-60646377D01*
X21658354Y-60471999D01*
X21203641Y-60471602D01*
X20783388Y-60645246D01*
X20461577Y-60966497D01*
X20287199Y-61386446D01*
X20286802Y-61841159D01*
X20460446Y-62261412D01*
X20781697Y-62583223D01*
X21201646Y-62757601D01*
X21656359Y-62757998D01*
X22076612Y-62584354D01*
X22398423Y-62263103D01*
X22456681Y-62122800D01*
X23191805Y-62122800D01*
X23001577Y-62312697D01*
X22827199Y-62732646D01*
X22826802Y-63187359D01*
X23000446Y-63607612D01*
X23242412Y-63850000D01*
X22456826Y-63850000D01*
X22399554Y-63711388D01*
X22078303Y-63389577D01*
X21658354Y-63215199D01*
X21203641Y-63214802D01*
X20783388Y-63388446D01*
X20461577Y-63709697D01*
X20287199Y-64129646D01*
X20286802Y-64584359D01*
X20460446Y-65004612D01*
X20781697Y-65326423D01*
X21201646Y-65500801D01*
X21656359Y-65501198D01*
X22076612Y-65327554D01*
X22398423Y-65006303D01*
X22456681Y-64866000D01*
X23242693Y-64866000D01*
X23001577Y-65106697D01*
X22827199Y-65526646D01*
X22826802Y-65981359D01*
X23000446Y-66401612D01*
X23191700Y-66593200D01*
X22456826Y-66593200D01*
X22399554Y-66454588D01*
X22078303Y-66132777D01*
X21658354Y-65958399D01*
X21203641Y-65958002D01*
X20783388Y-66131646D01*
X20461577Y-66452897D01*
X20287199Y-66872846D01*
X20286802Y-67327559D01*
X20460446Y-67747812D01*
X20781697Y-68069623D01*
X21201646Y-68244001D01*
X21656359Y-68244398D01*
X22076612Y-68070754D01*
X22398423Y-67749503D01*
X22456681Y-67609200D01*
X23293582Y-67609200D01*
X23001577Y-67900697D01*
X22827199Y-68320646D01*
X22826802Y-68775359D01*
X23000446Y-69195612D01*
X23191700Y-69387200D01*
X22456826Y-69387200D01*
X22399554Y-69248588D01*
X22078303Y-68926777D01*
X21658354Y-68752399D01*
X21203641Y-68752002D01*
X20783388Y-68925646D01*
X20461577Y-69246897D01*
X20287199Y-69666846D01*
X20286802Y-70121559D01*
X20460446Y-70541812D01*
X20781697Y-70863623D01*
X21201646Y-71038001D01*
X21656359Y-71038398D01*
X22076612Y-70864754D01*
X22398423Y-70543503D01*
X22456681Y-70403200D01*
X23166360Y-70403200D01*
X23001577Y-70567697D01*
X22827199Y-70987646D01*
X22826802Y-71442359D01*
X23000446Y-71862612D01*
X23321697Y-72184423D01*
X23462000Y-72242681D01*
X23462000Y-72783579D01*
X22754410Y-72075990D01*
X22589603Y-71965869D01*
X22462345Y-71940556D01*
X22399554Y-71788588D01*
X22078303Y-71466777D01*
X21658354Y-71292399D01*
X21203641Y-71292002D01*
X20783388Y-71465646D01*
X20461577Y-71786897D01*
X20287199Y-72206846D01*
X20286802Y-72661559D01*
X20460446Y-73081812D01*
X20781697Y-73403623D01*
X21201646Y-73578001D01*
X21656359Y-73578398D01*
X22076612Y-73404754D01*
X22361720Y-73120141D01*
X22819536Y-73577956D01*
X22819536Y-74772000D01*
X22847722Y-74917274D01*
X22931596Y-75044956D01*
X23058216Y-75130426D01*
X23208000Y-75160464D01*
X24732000Y-75160464D01*
X24877274Y-75132278D01*
X25004956Y-75048404D01*
X25090426Y-74921784D01*
X25120464Y-74772000D01*
X25120464Y-74518000D01*
X25539580Y-74518000D01*
X33770790Y-82749210D01*
X33935597Y-82859331D01*
X34130000Y-82898000D01*
X36408536Y-82898000D01*
X36408536Y-83406000D01*
X36436722Y-83551274D01*
X36520596Y-83678956D01*
X36647216Y-83764426D01*
X36797000Y-83794464D01*
X38321000Y-83794464D01*
X38466274Y-83766278D01*
X38593956Y-83682404D01*
X38679426Y-83555784D01*
X38709464Y-83406000D01*
X38709464Y-81374000D01*
X38681278Y-81228726D01*
X38597404Y-81101044D01*
X38470784Y-81015574D01*
X38321000Y-80985536D01*
X36797000Y-80985536D01*
X36651726Y-81013722D01*
X36524044Y-81097596D01*
X36438574Y-81224216D01*
X36408536Y-81374000D01*
X36408536Y-81882000D01*
X34340420Y-81882000D01*
X26109210Y-73650790D01*
X25944403Y-73540669D01*
X25750000Y-73502000D01*
X25120464Y-73502000D01*
X25120464Y-73248000D01*
X25092278Y-73102726D01*
X25008404Y-72975044D01*
X24881784Y-72889574D01*
X24732000Y-72859536D01*
X24478000Y-72859536D01*
X24478000Y-72242826D01*
X24616612Y-72185554D01*
X24938423Y-71864303D01*
X25112801Y-71444354D01*
X25113198Y-70989641D01*
X24939554Y-70569388D01*
X24773655Y-70403200D01*
X27774780Y-70403200D01*
X31230790Y-73859210D01*
X31395597Y-73969331D01*
X31590000Y-74008000D01*
X50485755Y-74008000D01*
X50698359Y-74326184D01*
X51077416Y-74579461D01*
X51524543Y-74668400D01*
X52295457Y-74668400D01*
X52742584Y-74579461D01*
X53121641Y-74326184D01*
X53374918Y-73947127D01*
X53463857Y-73500000D01*
X53463857Y-77573000D01*
X53381750Y-77573000D01*
X53223000Y-77731750D01*
X53223000Y-78731000D01*
X54222250Y-78731000D01*
X54381000Y-78572250D01*
X54381000Y-79143750D01*
X54222250Y-78985000D01*
X53223000Y-78985000D01*
X53223000Y-79984250D01*
X53381750Y-80143000D01*
X53872309Y-80143000D01*
X54105698Y-80046327D01*
X54284327Y-79867699D01*
X54381000Y-79634310D01*
X54381000Y-104569000D01*
X52969000Y-104569000D01*
X52969000Y-79984250D01*
X52969000Y-78985000D01*
X52969000Y-78731000D01*
X52969000Y-77731750D01*
X52810250Y-77573000D01*
X52319691Y-77573000D01*
X52086302Y-77669673D01*
X51907673Y-77848301D01*
X51811000Y-78081690D01*
X51811000Y-78334309D01*
X51811000Y-78572250D01*
X51969750Y-78731000D01*
X52969000Y-78731000D01*
X52969000Y-78985000D01*
X51969750Y-78985000D01*
X51811000Y-79143750D01*
X51811000Y-79381691D01*
X51811000Y-79634310D01*
X51907673Y-79867699D01*
X52086302Y-80046327D01*
X52319691Y-80143000D01*
X52810250Y-80143000D01*
X52969000Y-79984250D01*
X52969000Y-104569000D01*
X42258000Y-104569000D01*
X42258000Y-83532310D01*
X42258000Y-83279691D01*
X42258000Y-82675750D01*
X42258000Y-82104250D01*
X42258000Y-81500309D01*
X42258000Y-81247690D01*
X42161327Y-81014301D01*
X41982698Y-80835673D01*
X41749309Y-80739000D01*
X41146750Y-80739000D01*
X40988000Y-80897750D01*
X40988000Y-82263000D01*
X42099250Y-82263000D01*
X42258000Y-82104250D01*
X42258000Y-82675750D01*
X42099250Y-82517000D01*
X40988000Y-82517000D01*
X40988000Y-83882250D01*
X41146750Y-84041000D01*
X41749309Y-84041000D01*
X41982698Y-83944327D01*
X42161327Y-83765699D01*
X42258000Y-83532310D01*
X42258000Y-104569000D01*
X40734000Y-104569000D01*
X40734000Y-83882250D01*
X40734000Y-82517000D01*
X40734000Y-82263000D01*
X40734000Y-80897750D01*
X40575250Y-80739000D01*
X39972691Y-80739000D01*
X39739302Y-80835673D01*
X39560673Y-81014301D01*
X39464000Y-81247690D01*
X39464000Y-81500309D01*
X39464000Y-82104250D01*
X39622750Y-82263000D01*
X40734000Y-82263000D01*
X40734000Y-82517000D01*
X39622750Y-82517000D01*
X39464000Y-82675750D01*
X39464000Y-83279691D01*
X39464000Y-83532310D01*
X39560673Y-83765699D01*
X39739302Y-83944327D01*
X39972691Y-84041000D01*
X40575250Y-84041000D01*
X40734000Y-83882250D01*
X40734000Y-104569000D01*
X23716396Y-104569000D01*
X23716396Y-80542281D01*
X23369106Y-79701777D01*
X22726605Y-79058154D01*
X21886708Y-78709398D01*
X20977281Y-78708604D01*
X20136777Y-79055894D01*
X19493154Y-79698395D01*
X19144398Y-80538292D01*
X19143604Y-81447719D01*
X19490894Y-82288223D01*
X20133395Y-82931846D01*
X20973292Y-83280602D01*
X21882719Y-83281396D01*
X22723223Y-82934106D01*
X23366846Y-82291605D01*
X23715602Y-81451708D01*
X23716396Y-80542281D01*
X23716396Y-104569000D01*
X16042452Y-104569000D01*
X15675641Y-104496036D01*
X15322515Y-104142910D01*
X17018617Y-104144391D01*
X18909752Y-103362990D01*
X20357904Y-101917363D01*
X21142605Y-100027594D01*
X21144391Y-97981383D01*
X20362990Y-96090248D01*
X18917363Y-94642096D01*
X17027594Y-93857395D01*
X14981383Y-93855609D01*
X13090248Y-94637010D01*
X11642096Y-96082637D01*
X10857395Y-97972406D01*
X10855907Y-99676302D01*
X10503961Y-99324356D01*
X10431000Y-98957552D01*
X10431000Y-16042447D01*
X10489656Y-15747563D01*
X10856993Y-15432703D01*
X10855609Y-17018617D01*
X11637010Y-18909752D01*
X13082637Y-20357904D01*
X14972406Y-21142605D01*
X17018617Y-21144391D01*
X18909752Y-20362990D01*
X20357904Y-18917363D01*
X21142605Y-17027594D01*
X21144391Y-14981383D01*
X20362990Y-13090248D01*
X18917363Y-11642096D01*
X17027594Y-10857395D01*
X16195699Y-10856668D01*
X16692313Y-10431000D01*
X96348473Y-10431000D01*
X95515482Y-10775185D01*
X93781275Y-12506368D01*
X92841571Y-14769425D01*
X92839433Y-17219825D01*
X93775185Y-19484518D01*
X95506368Y-21218725D01*
X97769425Y-22158429D01*
X100219825Y-22160567D01*
X102484518Y-21224815D01*
X104218725Y-19493632D01*
X104569000Y-18650076D01*
X104569000Y-96348473D01*
M02*
