G04 #@! TF.GenerationSoftware,KiCad,Pcbnew,(6.0.1)*
G04 #@! TF.CreationDate,2022-09-12T09:28:13-04:00*
G04 #@! TF.ProjectId,SIMPLE-6802,53494d50-4c45-42d3-9638-30322e6b6963,1*
G04 #@! TF.SameCoordinates,Original*
G04 #@! TF.FileFunction,Legend,Bot*
G04 #@! TF.FilePolarity,Positive*
%FSLAX46Y46*%
G04 Gerber Fmt 4.6, Leading zero omitted, Abs format (unit mm)*
G04 Created by KiCad (PCBNEW (6.0.1)) date 2022-09-12 09:28:13*
%MOMM*%
%LPD*%
G01*
G04 APERTURE LIST*
%ADD10C,0.381000*%
%ADD11C,0.635000*%
%ADD12C,0.304800*%
%ADD13C,0.650000*%
G04 APERTURE END LIST*
D10*
X158090507Y-51010154D02*
X158598507Y-50254202D01*
X158961364Y-51010154D02*
X158961364Y-49422654D01*
X158380792Y-49422654D01*
X158235650Y-49498250D01*
X158163078Y-49573845D01*
X158090507Y-49725035D01*
X158090507Y-49951821D01*
X158163078Y-50103011D01*
X158235650Y-50178607D01*
X158380792Y-50254202D01*
X158961364Y-50254202D01*
X157655078Y-49422654D02*
X156784221Y-49422654D01*
X157219650Y-51010154D02*
X157219650Y-49422654D01*
X156348792Y-50934559D02*
X156131078Y-51010154D01*
X155768221Y-51010154D01*
X155623078Y-50934559D01*
X155550507Y-50858964D01*
X155477935Y-50707773D01*
X155477935Y-50556583D01*
X155550507Y-50405392D01*
X155623078Y-50329797D01*
X155768221Y-50254202D01*
X156058507Y-50178607D01*
X156203650Y-50103011D01*
X156276221Y-50027416D01*
X156348792Y-49876226D01*
X156348792Y-49725035D01*
X156276221Y-49573845D01*
X156203650Y-49498250D01*
X156058507Y-49422654D01*
X155695650Y-49422654D01*
X155477935Y-49498250D01*
D11*
X116330488Y-50727428D02*
X114395250Y-50727428D01*
X115362869Y-51695047D02*
X115362869Y-49759809D01*
X111976202Y-49155047D02*
X113185726Y-49155047D01*
X113306678Y-50364571D01*
X113185726Y-50243619D01*
X112943821Y-50122666D01*
X112339059Y-50122666D01*
X112097154Y-50243619D01*
X111976202Y-50364571D01*
X111855250Y-50606476D01*
X111855250Y-51211238D01*
X111976202Y-51453142D01*
X112097154Y-51574095D01*
X112339059Y-51695047D01*
X112943821Y-51695047D01*
X113185726Y-51574095D01*
X113306678Y-51453142D01*
X111129535Y-49155047D02*
X110282869Y-51695047D01*
X109436202Y-49155047D01*
D10*
X156385078Y-56534654D02*
X155514221Y-56534654D01*
X155949650Y-58122154D02*
X155949650Y-56534654D01*
X155151364Y-56534654D02*
X154135364Y-58122154D01*
X154135364Y-56534654D02*
X155151364Y-58122154D01*
D11*
X168730083Y-137039047D02*
X169576750Y-135829523D01*
X170181511Y-137039047D02*
X170181511Y-134499047D01*
X169213892Y-134499047D01*
X168971988Y-134620000D01*
X168851035Y-134740952D01*
X168730083Y-134982857D01*
X168730083Y-135345714D01*
X168851035Y-135587619D01*
X168971988Y-135708571D01*
X169213892Y-135829523D01*
X170181511Y-135829523D01*
X167641511Y-135708571D02*
X166794845Y-135708571D01*
X166431988Y-137039047D02*
X167641511Y-137039047D01*
X167641511Y-134499047D01*
X166431988Y-134499047D01*
X165706273Y-134499047D02*
X164859607Y-137039047D01*
X164012940Y-134499047D01*
X159900559Y-137039047D02*
X161351988Y-137039047D01*
X160626273Y-137039047D02*
X160626273Y-134499047D01*
X160868178Y-134861904D01*
X161110083Y-135103809D01*
X161351988Y-135224761D01*
D10*
X123233467Y-49500064D02*
X121645967Y-49500064D01*
X123233467Y-50370921D01*
X121645967Y-50370921D01*
X121570372Y-52185207D02*
X123611443Y-50878921D01*
X123082277Y-53564064D02*
X123157872Y-53491492D01*
X123233467Y-53273778D01*
X123233467Y-53128635D01*
X123157872Y-52910921D01*
X123006682Y-52765778D01*
X122855491Y-52693207D01*
X122553110Y-52620635D01*
X122326324Y-52620635D01*
X122023943Y-52693207D01*
X121872753Y-52765778D01*
X121721563Y-52910921D01*
X121645967Y-53128635D01*
X121645967Y-53273778D01*
X121721563Y-53491492D01*
X121797158Y-53564064D01*
X124731009Y-50878921D02*
X125184580Y-49717778D01*
X125638152Y-50878921D01*
X124201842Y-51386921D02*
X124201842Y-52257778D01*
X125789342Y-51822350D02*
X124201842Y-51822350D01*
X124201842Y-52620635D02*
X125789342Y-53636635D01*
X124201842Y-53636635D02*
X125789342Y-52620635D01*
X128345217Y-50225778D02*
X127589265Y-49717778D01*
X128345217Y-49354921D02*
X126757717Y-49354921D01*
X126757717Y-49935492D01*
X126833313Y-50080635D01*
X126908908Y-50153207D01*
X127060098Y-50225778D01*
X127286884Y-50225778D01*
X127438074Y-50153207D01*
X127513670Y-50080635D01*
X127589265Y-49935492D01*
X127589265Y-49354921D01*
X126757717Y-50733778D02*
X128345217Y-51749778D01*
X126757717Y-51749778D02*
X128345217Y-50733778D01*
X127286884Y-52330350D02*
X127740455Y-53491492D01*
X128194027Y-52330350D01*
X130296330Y-49572635D02*
X130296330Y-50733778D01*
X130901092Y-50153207D02*
X129691568Y-50153207D01*
X129313592Y-52185207D02*
X129313592Y-51459492D01*
X130069545Y-51386921D01*
X129993949Y-51459492D01*
X129918354Y-51604635D01*
X129918354Y-51967492D01*
X129993949Y-52112635D01*
X130069545Y-52185207D01*
X130220735Y-52257778D01*
X130598711Y-52257778D01*
X130749902Y-52185207D01*
X130825497Y-52112635D01*
X130901092Y-51967492D01*
X130901092Y-51604635D01*
X130825497Y-51459492D01*
X130749902Y-51386921D01*
X129313592Y-52693207D02*
X130901092Y-53201207D01*
X129313592Y-53709207D01*
X133456967Y-49500064D02*
X131869467Y-49500064D01*
X133456967Y-50370921D01*
X131869467Y-50370921D01*
X131793872Y-52185207D02*
X133834943Y-50878921D01*
X133305777Y-53564064D02*
X133381372Y-53491492D01*
X133456967Y-53273778D01*
X133456967Y-53128635D01*
X133381372Y-52910921D01*
X133230182Y-52765778D01*
X133078991Y-52693207D01*
X132776610Y-52620635D01*
X132549824Y-52620635D01*
X132247443Y-52693207D01*
X132096253Y-52765778D01*
X131945063Y-52910921D01*
X131869467Y-53128635D01*
X131869467Y-53273778D01*
X131945063Y-53491492D01*
X132020658Y-53564064D01*
X134500938Y-50370921D02*
X134425342Y-50225778D01*
X134425342Y-50008064D01*
X134500938Y-49790350D01*
X134652128Y-49645207D01*
X134803318Y-49572635D01*
X135105699Y-49500064D01*
X135332485Y-49500064D01*
X135634866Y-49572635D01*
X135786057Y-49645207D01*
X135937247Y-49790350D01*
X136012842Y-50008064D01*
X136012842Y-50153207D01*
X135937247Y-50370921D01*
X135861652Y-50443492D01*
X135332485Y-50443492D01*
X135332485Y-50153207D01*
X136012842Y-51096635D02*
X134425342Y-51096635D01*
X136012842Y-51967492D01*
X134425342Y-51967492D01*
X136012842Y-52693207D02*
X134425342Y-52693207D01*
X134425342Y-53056064D01*
X134500938Y-53273778D01*
X134652128Y-53418921D01*
X134803318Y-53491492D01*
X135105699Y-53564064D01*
X135332485Y-53564064D01*
X135634866Y-53491492D01*
X135786057Y-53418921D01*
X135937247Y-53273778D01*
X136012842Y-53056064D01*
X136012842Y-52693207D01*
X158961364Y-58122154D02*
X159469364Y-57366202D01*
X159832221Y-58122154D02*
X159832221Y-56534654D01*
X159251650Y-56534654D01*
X159106507Y-56610250D01*
X159033935Y-56685845D01*
X158961364Y-56837035D01*
X158961364Y-57063821D01*
X159033935Y-57215011D01*
X159106507Y-57290607D01*
X159251650Y-57366202D01*
X159832221Y-57366202D01*
X158453364Y-56534654D02*
X157437364Y-58122154D01*
X157437364Y-56534654D02*
X158453364Y-58122154D01*
D11*
X115254011Y-59944000D02*
X115495916Y-59823047D01*
X115858773Y-59823047D01*
X116221630Y-59944000D01*
X116463535Y-60185904D01*
X116584488Y-60427809D01*
X116705440Y-60911619D01*
X116705440Y-61274476D01*
X116584488Y-61758285D01*
X116463535Y-62000190D01*
X116221630Y-62242095D01*
X115858773Y-62363047D01*
X115616869Y-62363047D01*
X115254011Y-62242095D01*
X115133059Y-62121142D01*
X115133059Y-61274476D01*
X115616869Y-61274476D01*
X114044488Y-62363047D02*
X114044488Y-59823047D01*
X112593059Y-62363047D01*
X112593059Y-59823047D01*
X111383535Y-62363047D02*
X111383535Y-59823047D01*
X110778773Y-59823047D01*
X110415916Y-59944000D01*
X110174011Y-60185904D01*
X110053059Y-60427809D01*
X109932107Y-60911619D01*
X109932107Y-61274476D01*
X110053059Y-61758285D01*
X110174011Y-62000190D01*
X110415916Y-62242095D01*
X110778773Y-62363047D01*
X111383535Y-62363047D01*
D10*
X162843935Y-56090154D02*
X163714792Y-56090154D01*
X163279364Y-56090154D02*
X163279364Y-54502654D01*
X163424507Y-54729440D01*
X163569650Y-54880630D01*
X163714792Y-54956226D01*
D12*
X139808857Y-132825428D02*
X138938000Y-132825428D01*
X139373428Y-134349428D02*
X139373428Y-132825428D01*
X138430000Y-133551142D02*
X137922000Y-133551142D01*
X137704285Y-134349428D02*
X138430000Y-134349428D01*
X138430000Y-132825428D01*
X137704285Y-132825428D01*
X137123714Y-134276857D02*
X136906000Y-134349428D01*
X136543142Y-134349428D01*
X136398000Y-134276857D01*
X136325428Y-134204285D01*
X136252857Y-134059142D01*
X136252857Y-133914000D01*
X136325428Y-133768857D01*
X136398000Y-133696285D01*
X136543142Y-133623714D01*
X136833428Y-133551142D01*
X136978571Y-133478571D01*
X137051142Y-133406000D01*
X137123714Y-133260857D01*
X137123714Y-133115714D01*
X137051142Y-132970571D01*
X136978571Y-132898000D01*
X136833428Y-132825428D01*
X136470571Y-132825428D01*
X136252857Y-132898000D01*
X135817428Y-132825428D02*
X134946571Y-132825428D01*
X135382000Y-134349428D02*
X135382000Y-132825428D01*
X133640285Y-134349428D02*
X134511142Y-134349428D01*
X134075714Y-134349428D02*
X134075714Y-132825428D01*
X134220857Y-133043142D01*
X134366000Y-133188285D01*
X134511142Y-133260857D01*
D13*
X134652000Y-135160000D02*
X138652000Y-135160000D01*
X138652000Y-135160000D02*
X138652000Y-139160000D01*
X138652000Y-139160000D02*
X134652000Y-139160000D01*
X134652000Y-139160000D02*
X134652000Y-135160000D01*
X134652000Y-135160000D02*
X134652000Y-135660000D01*
X134652000Y-135660000D02*
X138652000Y-135660000D01*
X138652000Y-135660000D02*
X138652000Y-136160000D01*
X138652000Y-136160000D02*
X134652000Y-136160000D01*
X134652000Y-136160000D02*
X134652000Y-136660000D01*
X134652000Y-136660000D02*
X138652000Y-136660000D01*
X138652000Y-136660000D02*
X138652000Y-137160000D01*
X138652000Y-137160000D02*
X134652000Y-137160000D01*
X134652000Y-137160000D02*
X134652000Y-137660000D01*
X134652000Y-137660000D02*
X138152000Y-137660000D01*
X138152000Y-137660000D02*
X138652000Y-137660000D01*
X138652000Y-137660000D02*
X138652000Y-138160000D01*
X138652000Y-138160000D02*
X134652000Y-138160000D01*
X134652000Y-138160000D02*
X134652000Y-138660000D01*
X134652000Y-138660000D02*
X138652000Y-138660000D01*
M02*
