G04 #@! TF.FileFunction,Legend,Top*
%FSLAX46Y46*%
G04 Gerber Fmt 4.6, Leading zero omitted, Abs format (unit mm)*
G04 Created by KiCad (PCBNEW (after 2015-mar-04 BZR unknown)-product) date 10/26/2016 1:01:30 PM*
%MOMM*%
G01*
G04 APERTURE LIST*
%ADD10C,0.150000*%
%ADD11C,0.300000*%
%ADD12C,0.200000*%
%ADD13C,0.396875*%
%ADD14C,0.508000*%
%ADD15C,0.127000*%
%ADD16C,0.317500*%
G04 APERTURE END LIST*
D10*
D11*
X26662572Y-14394571D02*
X26662572Y-12894571D01*
X27019715Y-12894571D01*
X27234000Y-12966000D01*
X27376858Y-13108857D01*
X27448286Y-13251714D01*
X27519715Y-13537429D01*
X27519715Y-13751714D01*
X27448286Y-14037429D01*
X27376858Y-14180286D01*
X27234000Y-14323143D01*
X27019715Y-14394571D01*
X26662572Y-14394571D01*
X28662572Y-13608857D02*
X28876858Y-13680286D01*
X28948286Y-13751714D01*
X29019715Y-13894571D01*
X29019715Y-14108857D01*
X28948286Y-14251714D01*
X28876858Y-14323143D01*
X28734000Y-14394571D01*
X28162572Y-14394571D01*
X28162572Y-12894571D01*
X28662572Y-12894571D01*
X28805429Y-12966000D01*
X28876858Y-13037429D01*
X28948286Y-13180286D01*
X28948286Y-13323143D01*
X28876858Y-13466000D01*
X28805429Y-13537429D01*
X28662572Y-13608857D01*
X28162572Y-13608857D01*
X30805429Y-14394571D02*
X30805429Y-12894571D01*
X31376857Y-12894571D01*
X31519715Y-12966000D01*
X31591143Y-13037429D01*
X31662572Y-13180286D01*
X31662572Y-13394571D01*
X31591143Y-13537429D01*
X31519715Y-13608857D01*
X31376857Y-13680286D01*
X30805429Y-13680286D01*
X32162572Y-12894571D02*
X32519715Y-14394571D01*
X32805429Y-13323143D01*
X33091143Y-14394571D01*
X33448286Y-12894571D01*
X34876858Y-14394571D02*
X34376858Y-13680286D01*
X34019715Y-14394571D02*
X34019715Y-12894571D01*
X34591143Y-12894571D01*
X34734001Y-12966000D01*
X34805429Y-13037429D01*
X34876858Y-13180286D01*
X34876858Y-13394571D01*
X34805429Y-13537429D01*
X34734001Y-13608857D01*
X34591143Y-13680286D01*
X34019715Y-13680286D01*
X52014286Y-79418571D02*
X51514286Y-78704286D01*
X51157143Y-79418571D02*
X51157143Y-77918571D01*
X51728571Y-77918571D01*
X51871429Y-77990000D01*
X51942857Y-78061429D01*
X52014286Y-78204286D01*
X52014286Y-78418571D01*
X51942857Y-78561429D01*
X51871429Y-78632857D01*
X51728571Y-78704286D01*
X51157143Y-78704286D01*
X52585714Y-79347143D02*
X52800000Y-79418571D01*
X53157143Y-79418571D01*
X53300000Y-79347143D01*
X53371429Y-79275714D01*
X53442857Y-79132857D01*
X53442857Y-78990000D01*
X53371429Y-78847143D01*
X53300000Y-78775714D01*
X53157143Y-78704286D01*
X52871429Y-78632857D01*
X52728571Y-78561429D01*
X52657143Y-78490000D01*
X52585714Y-78347143D01*
X52585714Y-78204286D01*
X52657143Y-78061429D01*
X52728571Y-77990000D01*
X52871429Y-77918571D01*
X53228571Y-77918571D01*
X53442857Y-77990000D01*
X53871428Y-77918571D02*
X54728571Y-77918571D01*
X54300000Y-79418571D02*
X54300000Y-77918571D01*
X50800000Y-77660000D02*
X54871428Y-77660000D01*
X51157143Y-56558571D02*
X51157143Y-55058571D01*
X52371429Y-55772857D02*
X52585715Y-55844286D01*
X52657143Y-55915714D01*
X52728572Y-56058571D01*
X52728572Y-56272857D01*
X52657143Y-56415714D01*
X52585715Y-56487143D01*
X52442857Y-56558571D01*
X51871429Y-56558571D01*
X51871429Y-55058571D01*
X52371429Y-55058571D01*
X52514286Y-55130000D01*
X52585715Y-55201429D01*
X52657143Y-55344286D01*
X52657143Y-55487143D01*
X52585715Y-55630000D01*
X52514286Y-55701429D01*
X52371429Y-55772857D01*
X51871429Y-55772857D01*
X51157143Y-54018571D02*
X51157143Y-52518571D01*
X51800000Y-53590000D02*
X52514286Y-53590000D01*
X51657143Y-54018571D02*
X52157143Y-52518571D01*
X52657143Y-54018571D01*
X51442857Y-75378571D02*
X51585714Y-75378571D01*
X51728571Y-75450000D01*
X51800000Y-75521429D01*
X51871429Y-75664286D01*
X51942857Y-75950000D01*
X51942857Y-76307143D01*
X51871429Y-76592857D01*
X51800000Y-76735714D01*
X51728571Y-76807143D01*
X51585714Y-76878571D01*
X51442857Y-76878571D01*
X51300000Y-76807143D01*
X51228571Y-76735714D01*
X51157143Y-76592857D01*
X51085714Y-76307143D01*
X51085714Y-75950000D01*
X51157143Y-75664286D01*
X51228571Y-75521429D01*
X51300000Y-75450000D01*
X51442857Y-75378571D01*
X51942857Y-74338571D02*
X51085714Y-74338571D01*
X51514286Y-74338571D02*
X51514286Y-72838571D01*
X51371429Y-73052857D01*
X51228571Y-73195714D01*
X51085714Y-73267143D01*
X51085714Y-70441429D02*
X51157143Y-70370000D01*
X51300000Y-70298571D01*
X51657143Y-70298571D01*
X51800000Y-70370000D01*
X51871429Y-70441429D01*
X51942857Y-70584286D01*
X51942857Y-70727143D01*
X51871429Y-70941429D01*
X51014286Y-71798571D01*
X51942857Y-71798571D01*
X51014286Y-67758571D02*
X51942857Y-67758571D01*
X51442857Y-68330000D01*
X51657143Y-68330000D01*
X51800000Y-68401429D01*
X51871429Y-68472857D01*
X51942857Y-68615714D01*
X51942857Y-68972857D01*
X51871429Y-69115714D01*
X51800000Y-69187143D01*
X51657143Y-69258571D01*
X51228571Y-69258571D01*
X51085714Y-69187143D01*
X51014286Y-69115714D01*
X51800000Y-65718571D02*
X51800000Y-66718571D01*
X51442857Y-65147143D02*
X51085714Y-66218571D01*
X52014286Y-66218571D01*
X51871429Y-62678571D02*
X51157143Y-62678571D01*
X51085714Y-63392857D01*
X51157143Y-63321429D01*
X51300000Y-63250000D01*
X51657143Y-63250000D01*
X51800000Y-63321429D01*
X51871429Y-63392857D01*
X51942857Y-63535714D01*
X51942857Y-63892857D01*
X51871429Y-64035714D01*
X51800000Y-64107143D01*
X51657143Y-64178571D01*
X51300000Y-64178571D01*
X51157143Y-64107143D01*
X51085714Y-64035714D01*
X51800000Y-60138571D02*
X51514286Y-60138571D01*
X51371429Y-60210000D01*
X51300000Y-60281429D01*
X51157143Y-60495714D01*
X51085714Y-60781429D01*
X51085714Y-61352857D01*
X51157143Y-61495714D01*
X51228571Y-61567143D01*
X51371429Y-61638571D01*
X51657143Y-61638571D01*
X51800000Y-61567143D01*
X51871429Y-61495714D01*
X51942857Y-61352857D01*
X51942857Y-60995714D01*
X51871429Y-60852857D01*
X51800000Y-60781429D01*
X51657143Y-60710000D01*
X51371429Y-60710000D01*
X51228571Y-60781429D01*
X51157143Y-60852857D01*
X51085714Y-60995714D01*
X51014286Y-57598571D02*
X52014286Y-57598571D01*
X51371429Y-59098571D01*
X51942857Y-51478571D02*
X51085714Y-51478571D01*
X51514286Y-51478571D02*
X51514286Y-49978571D01*
X51371429Y-50192857D01*
X51228571Y-50335714D01*
X51085714Y-50407143D01*
X53300000Y-49978571D02*
X52585714Y-49978571D01*
X52514285Y-50692857D01*
X52585714Y-50621429D01*
X52728571Y-50550000D01*
X53085714Y-50550000D01*
X53228571Y-50621429D01*
X53300000Y-50692857D01*
X53371428Y-50835714D01*
X53371428Y-51192857D01*
X53300000Y-51335714D01*
X53228571Y-51407143D01*
X53085714Y-51478571D01*
X52728571Y-51478571D01*
X52585714Y-51407143D01*
X52514285Y-51335714D01*
X51942857Y-48938571D02*
X51085714Y-48938571D01*
X51514286Y-48938571D02*
X51514286Y-47438571D01*
X51371429Y-47652857D01*
X51228571Y-47795714D01*
X51085714Y-47867143D01*
X53228571Y-47938571D02*
X53228571Y-48938571D01*
X52871428Y-47367143D02*
X52514285Y-48438571D01*
X53442857Y-48438571D01*
X51942857Y-46398571D02*
X51085714Y-46398571D01*
X51514286Y-46398571D02*
X51514286Y-44898571D01*
X51371429Y-45112857D01*
X51228571Y-45255714D01*
X51085714Y-45327143D01*
X52442857Y-44898571D02*
X53371428Y-44898571D01*
X52871428Y-45470000D01*
X53085714Y-45470000D01*
X53228571Y-45541429D01*
X53300000Y-45612857D01*
X53371428Y-45755714D01*
X53371428Y-46112857D01*
X53300000Y-46255714D01*
X53228571Y-46327143D01*
X53085714Y-46398571D01*
X52657142Y-46398571D01*
X52514285Y-46327143D01*
X52442857Y-46255714D01*
X51942857Y-43858571D02*
X51085714Y-43858571D01*
X51514286Y-43858571D02*
X51514286Y-42358571D01*
X51371429Y-42572857D01*
X51228571Y-42715714D01*
X51085714Y-42787143D01*
X52514285Y-42501429D02*
X52585714Y-42430000D01*
X52728571Y-42358571D01*
X53085714Y-42358571D01*
X53228571Y-42430000D01*
X53300000Y-42501429D01*
X53371428Y-42644286D01*
X53371428Y-42787143D01*
X53300000Y-43001429D01*
X52442857Y-43858571D01*
X53371428Y-43858571D01*
X51942857Y-41318571D02*
X51085714Y-41318571D01*
X51514286Y-41318571D02*
X51514286Y-39818571D01*
X51371429Y-40032857D01*
X51228571Y-40175714D01*
X51085714Y-40247143D01*
X53371428Y-41318571D02*
X52514285Y-41318571D01*
X52942857Y-41318571D02*
X52942857Y-39818571D01*
X52800000Y-40032857D01*
X52657142Y-40175714D01*
X52514285Y-40247143D01*
X51942857Y-38778571D02*
X51085714Y-38778571D01*
X51514286Y-38778571D02*
X51514286Y-37278571D01*
X51371429Y-37492857D01*
X51228571Y-37635714D01*
X51085714Y-37707143D01*
X52871428Y-37278571D02*
X53014285Y-37278571D01*
X53157142Y-37350000D01*
X53228571Y-37421429D01*
X53300000Y-37564286D01*
X53371428Y-37850000D01*
X53371428Y-38207143D01*
X53300000Y-38492857D01*
X53228571Y-38635714D01*
X53157142Y-38707143D01*
X53014285Y-38778571D01*
X52871428Y-38778571D01*
X52728571Y-38707143D01*
X52657142Y-38635714D01*
X52585714Y-38492857D01*
X52514285Y-38207143D01*
X52514285Y-37850000D01*
X52585714Y-37564286D01*
X52657142Y-37421429D01*
X52728571Y-37350000D01*
X52871428Y-37278571D01*
X51228571Y-36238571D02*
X51514286Y-36238571D01*
X51657143Y-36167143D01*
X51728571Y-36095714D01*
X51871429Y-35881429D01*
X51942857Y-35595714D01*
X51942857Y-35024286D01*
X51871429Y-34881429D01*
X51800000Y-34810000D01*
X51657143Y-34738571D01*
X51371429Y-34738571D01*
X51228571Y-34810000D01*
X51157143Y-34881429D01*
X51085714Y-35024286D01*
X51085714Y-35381429D01*
X51157143Y-35524286D01*
X51228571Y-35595714D01*
X51371429Y-35667143D01*
X51657143Y-35667143D01*
X51800000Y-35595714D01*
X51871429Y-35524286D01*
X51942857Y-35381429D01*
X51371429Y-32841429D02*
X51228571Y-32770000D01*
X51157143Y-32698571D01*
X51085714Y-32555714D01*
X51085714Y-32484286D01*
X51157143Y-32341429D01*
X51228571Y-32270000D01*
X51371429Y-32198571D01*
X51657143Y-32198571D01*
X51800000Y-32270000D01*
X51871429Y-32341429D01*
X51942857Y-32484286D01*
X51942857Y-32555714D01*
X51871429Y-32698571D01*
X51800000Y-32770000D01*
X51657143Y-32841429D01*
X51371429Y-32841429D01*
X51228571Y-32912857D01*
X51157143Y-32984286D01*
X51085714Y-33127143D01*
X51085714Y-33412857D01*
X51157143Y-33555714D01*
X51228571Y-33627143D01*
X51371429Y-33698571D01*
X51657143Y-33698571D01*
X51800000Y-33627143D01*
X51871429Y-33555714D01*
X51942857Y-33412857D01*
X51942857Y-33127143D01*
X51871429Y-32984286D01*
X51800000Y-32912857D01*
X51657143Y-32841429D01*
X23685715Y-79418571D02*
X22828572Y-79418571D01*
X23257144Y-79418571D02*
X23257144Y-77918571D01*
X23114287Y-78132857D01*
X22971429Y-78275714D01*
X22828572Y-78347143D01*
X25042858Y-77918571D02*
X24328572Y-77918571D01*
X24257143Y-78632857D01*
X24328572Y-78561429D01*
X24471429Y-78490000D01*
X24828572Y-78490000D01*
X24971429Y-78561429D01*
X25042858Y-78632857D01*
X25114286Y-78775714D01*
X25114286Y-79132857D01*
X25042858Y-79275714D01*
X24971429Y-79347143D01*
X24828572Y-79418571D01*
X24471429Y-79418571D01*
X24328572Y-79347143D01*
X24257143Y-79275714D01*
X24185715Y-75378571D02*
X25114286Y-75378571D01*
X24614286Y-75950000D01*
X24828572Y-75950000D01*
X24971429Y-76021429D01*
X25042858Y-76092857D01*
X25114286Y-76235714D01*
X25114286Y-76592857D01*
X25042858Y-76735714D01*
X24971429Y-76807143D01*
X24828572Y-76878571D01*
X24400000Y-76878571D01*
X24257143Y-76807143D01*
X24185715Y-76735714D01*
X23685715Y-74338571D02*
X22828572Y-74338571D01*
X23257144Y-74338571D02*
X23257144Y-72838571D01*
X23114287Y-73052857D01*
X22971429Y-73195714D01*
X22828572Y-73267143D01*
X24971429Y-72838571D02*
X24685715Y-72838571D01*
X24542858Y-72910000D01*
X24471429Y-72981429D01*
X24328572Y-73195714D01*
X24257143Y-73481429D01*
X24257143Y-74052857D01*
X24328572Y-74195714D01*
X24400000Y-74267143D01*
X24542858Y-74338571D01*
X24828572Y-74338571D01*
X24971429Y-74267143D01*
X25042858Y-74195714D01*
X25114286Y-74052857D01*
X25114286Y-73695714D01*
X25042858Y-73552857D01*
X24971429Y-73481429D01*
X24828572Y-73410000D01*
X24542858Y-73410000D01*
X24400000Y-73481429D01*
X24328572Y-73552857D01*
X24257143Y-73695714D01*
X24971429Y-70798571D02*
X24971429Y-71798571D01*
X24614286Y-70227143D02*
X24257143Y-71298571D01*
X25185715Y-71298571D01*
X23685715Y-69258571D02*
X22828572Y-69258571D01*
X23257144Y-69258571D02*
X23257144Y-67758571D01*
X23114287Y-67972857D01*
X22971429Y-68115714D01*
X22828572Y-68187143D01*
X24185715Y-67758571D02*
X25185715Y-67758571D01*
X24542858Y-69258571D01*
X25042858Y-65218571D02*
X24328572Y-65218571D01*
X24257143Y-65932857D01*
X24328572Y-65861429D01*
X24471429Y-65790000D01*
X24828572Y-65790000D01*
X24971429Y-65861429D01*
X25042858Y-65932857D01*
X25114286Y-66075714D01*
X25114286Y-66432857D01*
X25042858Y-66575714D01*
X24971429Y-66647143D01*
X24828572Y-66718571D01*
X24471429Y-66718571D01*
X24328572Y-66647143D01*
X24257143Y-66575714D01*
X23685715Y-64178571D02*
X22828572Y-64178571D01*
X23257144Y-64178571D02*
X23257144Y-62678571D01*
X23114287Y-62892857D01*
X22971429Y-63035714D01*
X22828572Y-63107143D01*
X24542858Y-63321429D02*
X24400000Y-63250000D01*
X24328572Y-63178571D01*
X24257143Y-63035714D01*
X24257143Y-62964286D01*
X24328572Y-62821429D01*
X24400000Y-62750000D01*
X24542858Y-62678571D01*
X24828572Y-62678571D01*
X24971429Y-62750000D01*
X25042858Y-62821429D01*
X25114286Y-62964286D01*
X25114286Y-63035714D01*
X25042858Y-63178571D01*
X24971429Y-63250000D01*
X24828572Y-63321429D01*
X24542858Y-63321429D01*
X24400000Y-63392857D01*
X24328572Y-63464286D01*
X24257143Y-63607143D01*
X24257143Y-63892857D01*
X24328572Y-64035714D01*
X24400000Y-64107143D01*
X24542858Y-64178571D01*
X24828572Y-64178571D01*
X24971429Y-64107143D01*
X25042858Y-64035714D01*
X25114286Y-63892857D01*
X25114286Y-63607143D01*
X25042858Y-63464286D01*
X24971429Y-63392857D01*
X24828572Y-63321429D01*
X24971429Y-60138571D02*
X24685715Y-60138571D01*
X24542858Y-60210000D01*
X24471429Y-60281429D01*
X24328572Y-60495714D01*
X24257143Y-60781429D01*
X24257143Y-61352857D01*
X24328572Y-61495714D01*
X24400000Y-61567143D01*
X24542858Y-61638571D01*
X24828572Y-61638571D01*
X24971429Y-61567143D01*
X25042858Y-61495714D01*
X25114286Y-61352857D01*
X25114286Y-60995714D01*
X25042858Y-60852857D01*
X24971429Y-60781429D01*
X24828572Y-60710000D01*
X24542858Y-60710000D01*
X24400000Y-60781429D01*
X24328572Y-60852857D01*
X24257143Y-60995714D01*
X23685715Y-59098571D02*
X22828572Y-59098571D01*
X23257144Y-59098571D02*
X23257144Y-57598571D01*
X23114287Y-57812857D01*
X22971429Y-57955714D01*
X22828572Y-58027143D01*
X24400000Y-59098571D02*
X24685715Y-59098571D01*
X24828572Y-59027143D01*
X24900000Y-58955714D01*
X25042858Y-58741429D01*
X25114286Y-58455714D01*
X25114286Y-57884286D01*
X25042858Y-57741429D01*
X24971429Y-57670000D01*
X24828572Y-57598571D01*
X24542858Y-57598571D01*
X24400000Y-57670000D01*
X24328572Y-57741429D01*
X24257143Y-57884286D01*
X24257143Y-58241429D01*
X24328572Y-58384286D01*
X24400000Y-58455714D01*
X24542858Y-58527143D01*
X24828572Y-58527143D01*
X24971429Y-58455714D01*
X25042858Y-58384286D01*
X25114286Y-58241429D01*
X24185715Y-55058571D02*
X25185715Y-55058571D01*
X24542858Y-56558571D01*
X24185715Y-52518571D02*
X25185715Y-52518571D01*
X24542858Y-54018571D01*
X22733143Y-81450571D02*
X22733143Y-79950571D01*
X23090286Y-79950571D01*
X23304571Y-80022000D01*
X23447429Y-80164857D01*
X23518857Y-80307714D01*
X23590286Y-80593429D01*
X23590286Y-80807714D01*
X23518857Y-81093429D01*
X23447429Y-81236286D01*
X23304571Y-81379143D01*
X23090286Y-81450571D01*
X22733143Y-81450571D01*
X24733143Y-80664857D02*
X24947429Y-80736286D01*
X25018857Y-80807714D01*
X25090286Y-80950571D01*
X25090286Y-81164857D01*
X25018857Y-81307714D01*
X24947429Y-81379143D01*
X24804571Y-81450571D01*
X24233143Y-81450571D01*
X24233143Y-79950571D01*
X24733143Y-79950571D01*
X24876000Y-80022000D01*
X24947429Y-80093429D01*
X25018857Y-80236286D01*
X25018857Y-80379143D01*
X24947429Y-80522000D01*
X24876000Y-80593429D01*
X24733143Y-80664857D01*
X24233143Y-80664857D01*
X43311143Y-81680857D02*
X43525429Y-81752286D01*
X43596857Y-81823714D01*
X43668286Y-81966571D01*
X43668286Y-82180857D01*
X43596857Y-82323714D01*
X43525429Y-82395143D01*
X43382571Y-82466571D01*
X42811143Y-82466571D01*
X42811143Y-80966571D01*
X43311143Y-80966571D01*
X43454000Y-81038000D01*
X43525429Y-81109429D01*
X43596857Y-81252286D01*
X43596857Y-81395143D01*
X43525429Y-81538000D01*
X43454000Y-81609429D01*
X43311143Y-81680857D01*
X42811143Y-81680857D01*
X44311143Y-80966571D02*
X44311143Y-82180857D01*
X44382571Y-82323714D01*
X44454000Y-82395143D01*
X44596857Y-82466571D01*
X44882571Y-82466571D01*
X45025429Y-82395143D01*
X45096857Y-82323714D01*
X45168286Y-82180857D01*
X45168286Y-80966571D01*
X45811143Y-82395143D02*
X46025429Y-82466571D01*
X46382572Y-82466571D01*
X46525429Y-82395143D01*
X46596858Y-82323714D01*
X46668286Y-82180857D01*
X46668286Y-82038000D01*
X46596858Y-81895143D01*
X46525429Y-81823714D01*
X46382572Y-81752286D01*
X46096858Y-81680857D01*
X45954000Y-81609429D01*
X45882572Y-81538000D01*
X45811143Y-81395143D01*
X45811143Y-81252286D01*
X45882572Y-81109429D01*
X45954000Y-81038000D01*
X46096858Y-80966571D01*
X46454000Y-80966571D01*
X46668286Y-81038000D01*
X30611143Y-81680857D02*
X30825429Y-81752286D01*
X30896857Y-81823714D01*
X30968286Y-81966571D01*
X30968286Y-82180857D01*
X30896857Y-82323714D01*
X30825429Y-82395143D01*
X30682571Y-82466571D01*
X30111143Y-82466571D01*
X30111143Y-80966571D01*
X30611143Y-80966571D01*
X30754000Y-81038000D01*
X30825429Y-81109429D01*
X30896857Y-81252286D01*
X30896857Y-81395143D01*
X30825429Y-81538000D01*
X30754000Y-81609429D01*
X30611143Y-81680857D01*
X30111143Y-81680857D01*
X31611143Y-80966571D02*
X31611143Y-82180857D01*
X31682571Y-82323714D01*
X31754000Y-82395143D01*
X31896857Y-82466571D01*
X32182571Y-82466571D01*
X32325429Y-82395143D01*
X32396857Y-82323714D01*
X32468286Y-82180857D01*
X32468286Y-80966571D01*
X33111143Y-82395143D02*
X33325429Y-82466571D01*
X33682572Y-82466571D01*
X33825429Y-82395143D01*
X33896858Y-82323714D01*
X33968286Y-82180857D01*
X33968286Y-82038000D01*
X33896858Y-81895143D01*
X33825429Y-81823714D01*
X33682572Y-81752286D01*
X33396858Y-81680857D01*
X33254000Y-81609429D01*
X33182572Y-81538000D01*
X33111143Y-81395143D01*
X33111143Y-81252286D01*
X33182572Y-81109429D01*
X33254000Y-81038000D01*
X33396858Y-80966571D01*
X33754000Y-80966571D01*
X33968286Y-81038000D01*
X30611143Y-26816857D02*
X30825429Y-26888286D01*
X30896857Y-26959714D01*
X30968286Y-27102571D01*
X30968286Y-27316857D01*
X30896857Y-27459714D01*
X30825429Y-27531143D01*
X30682571Y-27602571D01*
X30111143Y-27602571D01*
X30111143Y-26102571D01*
X30611143Y-26102571D01*
X30754000Y-26174000D01*
X30825429Y-26245429D01*
X30896857Y-26388286D01*
X30896857Y-26531143D01*
X30825429Y-26674000D01*
X30754000Y-26745429D01*
X30611143Y-26816857D01*
X30111143Y-26816857D01*
X31611143Y-26102571D02*
X31611143Y-27316857D01*
X31682571Y-27459714D01*
X31754000Y-27531143D01*
X31896857Y-27602571D01*
X32182571Y-27602571D01*
X32325429Y-27531143D01*
X32396857Y-27459714D01*
X32468286Y-27316857D01*
X32468286Y-26102571D01*
X33111143Y-27531143D02*
X33325429Y-27602571D01*
X33682572Y-27602571D01*
X33825429Y-27531143D01*
X33896858Y-27459714D01*
X33968286Y-27316857D01*
X33968286Y-27174000D01*
X33896858Y-27031143D01*
X33825429Y-26959714D01*
X33682572Y-26888286D01*
X33396858Y-26816857D01*
X33254000Y-26745429D01*
X33182572Y-26674000D01*
X33111143Y-26531143D01*
X33111143Y-26388286D01*
X33182572Y-26245429D01*
X33254000Y-26174000D01*
X33396858Y-26102571D01*
X33754000Y-26102571D01*
X33968286Y-26174000D01*
X43311143Y-26816857D02*
X43525429Y-26888286D01*
X43596857Y-26959714D01*
X43668286Y-27102571D01*
X43668286Y-27316857D01*
X43596857Y-27459714D01*
X43525429Y-27531143D01*
X43382571Y-27602571D01*
X42811143Y-27602571D01*
X42811143Y-26102571D01*
X43311143Y-26102571D01*
X43454000Y-26174000D01*
X43525429Y-26245429D01*
X43596857Y-26388286D01*
X43596857Y-26531143D01*
X43525429Y-26674000D01*
X43454000Y-26745429D01*
X43311143Y-26816857D01*
X42811143Y-26816857D01*
X44311143Y-26102571D02*
X44311143Y-27316857D01*
X44382571Y-27459714D01*
X44454000Y-27531143D01*
X44596857Y-27602571D01*
X44882571Y-27602571D01*
X45025429Y-27531143D01*
X45096857Y-27459714D01*
X45168286Y-27316857D01*
X45168286Y-26102571D01*
X45811143Y-27531143D02*
X46025429Y-27602571D01*
X46382572Y-27602571D01*
X46525429Y-27531143D01*
X46596858Y-27459714D01*
X46668286Y-27316857D01*
X46668286Y-27174000D01*
X46596858Y-27031143D01*
X46525429Y-26959714D01*
X46382572Y-26888286D01*
X46096858Y-26816857D01*
X45954000Y-26745429D01*
X45882572Y-26674000D01*
X45811143Y-26531143D01*
X45811143Y-26388286D01*
X45882572Y-26245429D01*
X45954000Y-26174000D01*
X46096858Y-26102571D01*
X46454000Y-26102571D01*
X46668286Y-26174000D01*
X22733143Y-28618571D02*
X22733143Y-27118571D01*
X23090286Y-27118571D01*
X23304571Y-27190000D01*
X23447429Y-27332857D01*
X23518857Y-27475714D01*
X23590286Y-27761429D01*
X23590286Y-27975714D01*
X23518857Y-28261429D01*
X23447429Y-28404286D01*
X23304571Y-28547143D01*
X23090286Y-28618571D01*
X22733143Y-28618571D01*
X24733143Y-27832857D02*
X24947429Y-27904286D01*
X25018857Y-27975714D01*
X25090286Y-28118571D01*
X25090286Y-28332857D01*
X25018857Y-28475714D01*
X24947429Y-28547143D01*
X24804571Y-28618571D01*
X24233143Y-28618571D01*
X24233143Y-27118571D01*
X24733143Y-27118571D01*
X24876000Y-27190000D01*
X24947429Y-27261429D01*
X25018857Y-27404286D01*
X25018857Y-27547143D01*
X24947429Y-27690000D01*
X24876000Y-27761429D01*
X24733143Y-27832857D01*
X24233143Y-27832857D01*
X22828572Y-50121429D02*
X22900001Y-50050000D01*
X23042858Y-49978571D01*
X23400001Y-49978571D01*
X23542858Y-50050000D01*
X23614287Y-50121429D01*
X23685715Y-50264286D01*
X23685715Y-50407143D01*
X23614287Y-50621429D01*
X22757144Y-51478571D01*
X23685715Y-51478571D01*
X24614286Y-49978571D02*
X24757143Y-49978571D01*
X24900000Y-50050000D01*
X24971429Y-50121429D01*
X25042858Y-50264286D01*
X25114286Y-50550000D01*
X25114286Y-50907143D01*
X25042858Y-51192857D01*
X24971429Y-51335714D01*
X24900000Y-51407143D01*
X24757143Y-51478571D01*
X24614286Y-51478571D01*
X24471429Y-51407143D01*
X24400000Y-51335714D01*
X24328572Y-51192857D01*
X24257143Y-50907143D01*
X24257143Y-50550000D01*
X24328572Y-50264286D01*
X24400000Y-50121429D01*
X24471429Y-50050000D01*
X24614286Y-49978571D01*
X24542858Y-48081429D02*
X24400000Y-48010000D01*
X24328572Y-47938571D01*
X24257143Y-47795714D01*
X24257143Y-47724286D01*
X24328572Y-47581429D01*
X24400000Y-47510000D01*
X24542858Y-47438571D01*
X24828572Y-47438571D01*
X24971429Y-47510000D01*
X25042858Y-47581429D01*
X25114286Y-47724286D01*
X25114286Y-47795714D01*
X25042858Y-47938571D01*
X24971429Y-48010000D01*
X24828572Y-48081429D01*
X24542858Y-48081429D01*
X24400000Y-48152857D01*
X24328572Y-48224286D01*
X24257143Y-48367143D01*
X24257143Y-48652857D01*
X24328572Y-48795714D01*
X24400000Y-48867143D01*
X24542858Y-48938571D01*
X24828572Y-48938571D01*
X24971429Y-48867143D01*
X25042858Y-48795714D01*
X25114286Y-48652857D01*
X25114286Y-48367143D01*
X25042858Y-48224286D01*
X24971429Y-48152857D01*
X24828572Y-48081429D01*
X22828572Y-45041429D02*
X22900001Y-44970000D01*
X23042858Y-44898571D01*
X23400001Y-44898571D01*
X23542858Y-44970000D01*
X23614287Y-45041429D01*
X23685715Y-45184286D01*
X23685715Y-45327143D01*
X23614287Y-45541429D01*
X22757144Y-46398571D01*
X23685715Y-46398571D01*
X25114286Y-46398571D02*
X24257143Y-46398571D01*
X24685715Y-46398571D02*
X24685715Y-44898571D01*
X24542858Y-45112857D01*
X24400000Y-45255714D01*
X24257143Y-45327143D01*
X24400000Y-43858571D02*
X24685715Y-43858571D01*
X24828572Y-43787143D01*
X24900000Y-43715714D01*
X25042858Y-43501429D01*
X25114286Y-43215714D01*
X25114286Y-42644286D01*
X25042858Y-42501429D01*
X24971429Y-42430000D01*
X24828572Y-42358571D01*
X24542858Y-42358571D01*
X24400000Y-42430000D01*
X24328572Y-42501429D01*
X24257143Y-42644286D01*
X24257143Y-43001429D01*
X24328572Y-43144286D01*
X24400000Y-43215714D01*
X24542858Y-43287143D01*
X24828572Y-43287143D01*
X24971429Y-43215714D01*
X25042858Y-43144286D01*
X25114286Y-43001429D01*
X22828572Y-39961429D02*
X22900001Y-39890000D01*
X23042858Y-39818571D01*
X23400001Y-39818571D01*
X23542858Y-39890000D01*
X23614287Y-39961429D01*
X23685715Y-40104286D01*
X23685715Y-40247143D01*
X23614287Y-40461429D01*
X22757144Y-41318571D01*
X23685715Y-41318571D01*
X24257143Y-39961429D02*
X24328572Y-39890000D01*
X24471429Y-39818571D01*
X24828572Y-39818571D01*
X24971429Y-39890000D01*
X25042858Y-39961429D01*
X25114286Y-40104286D01*
X25114286Y-40247143D01*
X25042858Y-40461429D01*
X24185715Y-41318571D01*
X25114286Y-41318571D01*
X23685715Y-38778571D02*
X22828572Y-38778571D01*
X23257144Y-38778571D02*
X23257144Y-37278571D01*
X23114287Y-37492857D01*
X22971429Y-37635714D01*
X22828572Y-37707143D01*
X24614286Y-37278571D02*
X24757143Y-37278571D01*
X24900000Y-37350000D01*
X24971429Y-37421429D01*
X25042858Y-37564286D01*
X25114286Y-37850000D01*
X25114286Y-38207143D01*
X25042858Y-38492857D01*
X24971429Y-38635714D01*
X24900000Y-38707143D01*
X24757143Y-38778571D01*
X24614286Y-38778571D01*
X24471429Y-38707143D01*
X24400000Y-38635714D01*
X24328572Y-38492857D01*
X24257143Y-38207143D01*
X24257143Y-37850000D01*
X24328572Y-37564286D01*
X24400000Y-37421429D01*
X24471429Y-37350000D01*
X24614286Y-37278571D01*
X22828572Y-34881429D02*
X22900001Y-34810000D01*
X23042858Y-34738571D01*
X23400001Y-34738571D01*
X23542858Y-34810000D01*
X23614287Y-34881429D01*
X23685715Y-35024286D01*
X23685715Y-35167143D01*
X23614287Y-35381429D01*
X22757144Y-36238571D01*
X23685715Y-36238571D01*
X24185715Y-34738571D02*
X25114286Y-34738571D01*
X24614286Y-35310000D01*
X24828572Y-35310000D01*
X24971429Y-35381429D01*
X25042858Y-35452857D01*
X25114286Y-35595714D01*
X25114286Y-35952857D01*
X25042858Y-36095714D01*
X24971429Y-36167143D01*
X24828572Y-36238571D01*
X24400000Y-36238571D01*
X24257143Y-36167143D01*
X24185715Y-36095714D01*
X23685715Y-33698571D02*
X22828572Y-33698571D01*
X23257144Y-33698571D02*
X23257144Y-32198571D01*
X23114287Y-32412857D01*
X22971429Y-32555714D01*
X22828572Y-32627143D01*
X25114286Y-33698571D02*
X24257143Y-33698571D01*
X24685715Y-33698571D02*
X24685715Y-32198571D01*
X24542858Y-32412857D01*
X24400000Y-32555714D01*
X24257143Y-32627143D01*
X22828572Y-29801429D02*
X22900001Y-29730000D01*
X23042858Y-29658571D01*
X23400001Y-29658571D01*
X23542858Y-29730000D01*
X23614287Y-29801429D01*
X23685715Y-29944286D01*
X23685715Y-30087143D01*
X23614287Y-30301429D01*
X22757144Y-31158571D01*
X23685715Y-31158571D01*
X24971429Y-30158571D02*
X24971429Y-31158571D01*
X24614286Y-29587143D02*
X24257143Y-30658571D01*
X25185715Y-30658571D01*
X50462571Y-28459714D02*
X48962571Y-28459714D01*
X48962571Y-28102571D01*
X49034000Y-27888286D01*
X49176857Y-27745428D01*
X49319714Y-27674000D01*
X49605429Y-27602571D01*
X49819714Y-27602571D01*
X50105429Y-27674000D01*
X50248286Y-27745428D01*
X50391143Y-27888286D01*
X50462571Y-28102571D01*
X50462571Y-28459714D01*
X50462571Y-26959714D02*
X48962571Y-26959714D01*
X48962571Y-25959714D02*
X48962571Y-25674000D01*
X49034000Y-25531142D01*
X49176857Y-25388285D01*
X49462571Y-25316857D01*
X49962571Y-25316857D01*
X50248286Y-25388285D01*
X50391143Y-25531142D01*
X50462571Y-25674000D01*
X50462571Y-25959714D01*
X50391143Y-26102571D01*
X50248286Y-26245428D01*
X49962571Y-26316857D01*
X49462571Y-26316857D01*
X49176857Y-26245428D01*
X49034000Y-26102571D01*
X48962571Y-25959714D01*
X50462571Y-83831714D02*
X48962571Y-83831714D01*
X48962571Y-83474571D01*
X49034000Y-83260286D01*
X49176857Y-83117428D01*
X49319714Y-83046000D01*
X49605429Y-82974571D01*
X49819714Y-82974571D01*
X50105429Y-83046000D01*
X50248286Y-83117428D01*
X50391143Y-83260286D01*
X50462571Y-83474571D01*
X50462571Y-83831714D01*
X50462571Y-82331714D02*
X48962571Y-82331714D01*
X48962571Y-81331714D02*
X48962571Y-81046000D01*
X49034000Y-80903142D01*
X49176857Y-80760285D01*
X49462571Y-80688857D01*
X49962571Y-80688857D01*
X50248286Y-80760285D01*
X50391143Y-80903142D01*
X50462571Y-81046000D01*
X50462571Y-81331714D01*
X50391143Y-81474571D01*
X50248286Y-81617428D01*
X49962571Y-81688857D01*
X49462571Y-81688857D01*
X49176857Y-81617428D01*
X49034000Y-81474571D01*
X48962571Y-81331714D01*
X27602571Y-82930857D02*
X26102571Y-82930857D01*
X26102571Y-82573714D01*
X26174000Y-82359429D01*
X26316857Y-82216571D01*
X26459714Y-82145143D01*
X26745429Y-82073714D01*
X26959714Y-82073714D01*
X27245429Y-82145143D01*
X27388286Y-82216571D01*
X27531143Y-82359429D01*
X27602571Y-82573714D01*
X27602571Y-82930857D01*
X26816857Y-80930857D02*
X26888286Y-80716571D01*
X26959714Y-80645143D01*
X27102571Y-80573714D01*
X27316857Y-80573714D01*
X27459714Y-80645143D01*
X27531143Y-80716571D01*
X27602571Y-80859429D01*
X27602571Y-81430857D01*
X26102571Y-81430857D01*
X26102571Y-80930857D01*
X26174000Y-80788000D01*
X26245429Y-80716571D01*
X26388286Y-80645143D01*
X26531143Y-80645143D01*
X26674000Y-80716571D01*
X26745429Y-80788000D01*
X26816857Y-80930857D01*
X26816857Y-81430857D01*
X27602571Y-28574857D02*
X26102571Y-28574857D01*
X26102571Y-28217714D01*
X26174000Y-28003429D01*
X26316857Y-27860571D01*
X26459714Y-27789143D01*
X26745429Y-27717714D01*
X26959714Y-27717714D01*
X27245429Y-27789143D01*
X27388286Y-27860571D01*
X27531143Y-28003429D01*
X27602571Y-28217714D01*
X27602571Y-28574857D01*
X26816857Y-26574857D02*
X26888286Y-26360571D01*
X26959714Y-26289143D01*
X27102571Y-26217714D01*
X27316857Y-26217714D01*
X27459714Y-26289143D01*
X27531143Y-26360571D01*
X27602571Y-26503429D01*
X27602571Y-27074857D01*
X26102571Y-27074857D01*
X26102571Y-26574857D01*
X26174000Y-26432000D01*
X26245429Y-26360571D01*
X26388286Y-26289143D01*
X26531143Y-26289143D01*
X26674000Y-26360571D01*
X26745429Y-26432000D01*
X26816857Y-26574857D01*
X26816857Y-27074857D01*
X38802571Y-84296000D02*
X40302571Y-83796000D01*
X38802571Y-83296000D01*
X40159714Y-81938857D02*
X40231143Y-82010286D01*
X40302571Y-82224572D01*
X40302571Y-82367429D01*
X40231143Y-82581714D01*
X40088286Y-82724572D01*
X39945429Y-82796000D01*
X39659714Y-82867429D01*
X39445429Y-82867429D01*
X39159714Y-82796000D01*
X39016857Y-82724572D01*
X38874000Y-82581714D01*
X38802571Y-82367429D01*
X38802571Y-82224572D01*
X38874000Y-82010286D01*
X38945429Y-81938857D01*
X40159714Y-80438857D02*
X40231143Y-80510286D01*
X40302571Y-80724572D01*
X40302571Y-80867429D01*
X40231143Y-81081714D01*
X40088286Y-81224572D01*
X39945429Y-81296000D01*
X39659714Y-81367429D01*
X39445429Y-81367429D01*
X39159714Y-81296000D01*
X39016857Y-81224572D01*
X38874000Y-81081714D01*
X38802571Y-80867429D01*
X38802571Y-80724572D01*
X38874000Y-80510286D01*
X38945429Y-80438857D01*
X36334000Y-83438857D02*
X36262571Y-83581714D01*
X36262571Y-83796000D01*
X36334000Y-84010285D01*
X36476857Y-84153143D01*
X36619714Y-84224571D01*
X36905429Y-84296000D01*
X37119714Y-84296000D01*
X37405429Y-84224571D01*
X37548286Y-84153143D01*
X37691143Y-84010285D01*
X37762571Y-83796000D01*
X37762571Y-83653143D01*
X37691143Y-83438857D01*
X37619714Y-83367428D01*
X37119714Y-83367428D01*
X37119714Y-83653143D01*
X37762571Y-82724571D02*
X36262571Y-82724571D01*
X37762571Y-81867428D01*
X36262571Y-81867428D01*
X37762571Y-81153142D02*
X36262571Y-81153142D01*
X36262571Y-80795999D01*
X36334000Y-80581714D01*
X36476857Y-80438856D01*
X36619714Y-80367428D01*
X36905429Y-80295999D01*
X37119714Y-80295999D01*
X37405429Y-80367428D01*
X37548286Y-80438856D01*
X37691143Y-80581714D01*
X37762571Y-80795999D01*
X37762571Y-81153142D01*
X38802571Y-28416000D02*
X40302571Y-27916000D01*
X38802571Y-27416000D01*
X40159714Y-26058857D02*
X40231143Y-26130286D01*
X40302571Y-26344572D01*
X40302571Y-26487429D01*
X40231143Y-26701714D01*
X40088286Y-26844572D01*
X39945429Y-26916000D01*
X39659714Y-26987429D01*
X39445429Y-26987429D01*
X39159714Y-26916000D01*
X39016857Y-26844572D01*
X38874000Y-26701714D01*
X38802571Y-26487429D01*
X38802571Y-26344572D01*
X38874000Y-26130286D01*
X38945429Y-26058857D01*
X40159714Y-24558857D02*
X40231143Y-24630286D01*
X40302571Y-24844572D01*
X40302571Y-24987429D01*
X40231143Y-25201714D01*
X40088286Y-25344572D01*
X39945429Y-25416000D01*
X39659714Y-25487429D01*
X39445429Y-25487429D01*
X39159714Y-25416000D01*
X39016857Y-25344572D01*
X38874000Y-25201714D01*
X38802571Y-24987429D01*
X38802571Y-24844572D01*
X38874000Y-24630286D01*
X38945429Y-24558857D01*
X36334000Y-27558857D02*
X36262571Y-27701714D01*
X36262571Y-27916000D01*
X36334000Y-28130285D01*
X36476857Y-28273143D01*
X36619714Y-28344571D01*
X36905429Y-28416000D01*
X37119714Y-28416000D01*
X37405429Y-28344571D01*
X37548286Y-28273143D01*
X37691143Y-28130285D01*
X37762571Y-27916000D01*
X37762571Y-27773143D01*
X37691143Y-27558857D01*
X37619714Y-27487428D01*
X37119714Y-27487428D01*
X37119714Y-27773143D01*
X37762571Y-26844571D02*
X36262571Y-26844571D01*
X37762571Y-25987428D01*
X36262571Y-25987428D01*
X37762571Y-25273142D02*
X36262571Y-25273142D01*
X36262571Y-24915999D01*
X36334000Y-24701714D01*
X36476857Y-24558856D01*
X36619714Y-24487428D01*
X36905429Y-24415999D01*
X37119714Y-24415999D01*
X37405429Y-24487428D01*
X37548286Y-24558856D01*
X37691143Y-24701714D01*
X37762571Y-24915999D01*
X37762571Y-25273142D01*
D12*
X41148000Y-80772000D02*
X41148000Y-80264000D01*
X47752000Y-80772000D02*
X41148000Y-80772000D01*
X47752000Y-80264000D02*
X47752000Y-80772000D01*
X41148000Y-80264000D02*
X47752000Y-80264000D01*
X28448000Y-80772000D02*
X28448000Y-80264000D01*
X35052000Y-80772000D02*
X28448000Y-80772000D01*
X35052000Y-80264000D02*
X35052000Y-80772000D01*
X28448000Y-80264000D02*
X35052000Y-80264000D01*
X47752000Y-27940000D02*
X47752000Y-28448000D01*
X41148000Y-27940000D02*
X47752000Y-27940000D01*
X41148000Y-28448000D02*
X41148000Y-27940000D01*
X35052000Y-27940000D02*
X35052000Y-28448000D01*
X28448000Y-27940000D02*
X35052000Y-27940000D01*
X28448000Y-28448000D02*
X28448000Y-27940000D01*
X41148000Y-28448000D02*
X47752000Y-28448000D01*
X28448000Y-28448000D02*
X35052000Y-28448000D01*
D11*
X82562095Y-54183643D02*
X82501619Y-54262262D01*
X82320190Y-54340881D01*
X82199238Y-54340881D01*
X82017810Y-54262262D01*
X81896857Y-54105024D01*
X81836381Y-53947786D01*
X81775905Y-53633310D01*
X81775905Y-53397452D01*
X81836381Y-53082976D01*
X81896857Y-52925738D01*
X82017810Y-52768500D01*
X82199238Y-52689881D01*
X82320190Y-52689881D01*
X82501619Y-52768500D01*
X82562095Y-52847119D01*
X83106381Y-54340881D02*
X83106381Y-52689881D01*
X83590190Y-52689881D01*
X83711143Y-52768500D01*
X83771619Y-52847119D01*
X83832095Y-53004357D01*
X83832095Y-53240214D01*
X83771619Y-53397452D01*
X83711143Y-53476071D01*
X83590190Y-53554690D01*
X83106381Y-53554690D01*
X81534000Y-52405280D02*
X84074000Y-52405280D01*
X81521905Y-68994262D02*
X81703333Y-69072881D01*
X82005714Y-69072881D01*
X82126667Y-68994262D01*
X82187143Y-68915643D01*
X82247619Y-68758405D01*
X82247619Y-68601167D01*
X82187143Y-68443929D01*
X82126667Y-68365310D01*
X82005714Y-68286690D01*
X81763810Y-68208071D01*
X81642857Y-68129452D01*
X81582381Y-68050833D01*
X81521905Y-67893595D01*
X81521905Y-67736357D01*
X81582381Y-67579119D01*
X81642857Y-67500500D01*
X81763810Y-67421881D01*
X82066190Y-67421881D01*
X82247619Y-67500500D01*
X83517619Y-68915643D02*
X83457143Y-68994262D01*
X83275714Y-69072881D01*
X83154762Y-69072881D01*
X82973334Y-68994262D01*
X82852381Y-68837024D01*
X82791905Y-68679786D01*
X82731429Y-68365310D01*
X82731429Y-68129452D01*
X82791905Y-67814976D01*
X82852381Y-67657738D01*
X82973334Y-67500500D01*
X83154762Y-67421881D01*
X83275714Y-67421881D01*
X83457143Y-67500500D01*
X83517619Y-67579119D01*
X84666667Y-69072881D02*
X84061905Y-69072881D01*
X84061905Y-67421881D01*
D13*
X81924072Y-58097208D02*
X82680024Y-58097208D01*
X81772881Y-58550780D02*
X82302048Y-56963280D01*
X82831215Y-58550780D01*
X84191929Y-58550780D02*
X83284786Y-58550780D01*
X83738357Y-58550780D02*
X83738357Y-56963280D01*
X83587167Y-57190065D01*
X83435976Y-57341256D01*
X83284786Y-57416851D01*
X81924072Y-63335958D02*
X82680024Y-63335958D01*
X81772881Y-63789530D02*
X82302048Y-62202030D01*
X82831215Y-63789530D01*
X83284786Y-62353220D02*
X83360381Y-62277625D01*
X83511572Y-62202030D01*
X83889548Y-62202030D01*
X84040738Y-62277625D01*
X84116334Y-62353220D01*
X84191929Y-62504411D01*
X84191929Y-62655601D01*
X84116334Y-62882387D01*
X83209191Y-63789530D01*
X84191929Y-63789530D01*
D11*
X57574571Y-54847427D02*
X56074571Y-54847427D01*
X57146000Y-54347427D01*
X56074571Y-53847427D01*
X57574571Y-53847427D01*
X57431714Y-52275998D02*
X57503143Y-52347427D01*
X57574571Y-52561713D01*
X57574571Y-52704570D01*
X57503143Y-52918855D01*
X57360286Y-53061713D01*
X57217429Y-53133141D01*
X56931714Y-53204570D01*
X56717429Y-53204570D01*
X56431714Y-53133141D01*
X56288857Y-53061713D01*
X56146000Y-52918855D01*
X56074571Y-52704570D01*
X56074571Y-52561713D01*
X56146000Y-52347427D01*
X56217429Y-52275998D01*
X57574571Y-51633141D02*
X56074571Y-51633141D01*
X56074571Y-51061713D01*
X56146000Y-50918855D01*
X56217429Y-50847427D01*
X56360286Y-50775998D01*
X56574571Y-50775998D01*
X56717429Y-50847427D01*
X56788857Y-50918855D01*
X56860286Y-51061713D01*
X56860286Y-51633141D01*
X56217429Y-50204570D02*
X56146000Y-50133141D01*
X56074571Y-49990284D01*
X56074571Y-49633141D01*
X56146000Y-49490284D01*
X56217429Y-49418855D01*
X56360286Y-49347427D01*
X56503143Y-49347427D01*
X56717429Y-49418855D01*
X57574571Y-50275998D01*
X57574571Y-49347427D01*
X56074571Y-48847427D02*
X56074571Y-47918856D01*
X56646000Y-48418856D01*
X56646000Y-48204570D01*
X56717429Y-48061713D01*
X56788857Y-47990284D01*
X56931714Y-47918856D01*
X57288857Y-47918856D01*
X57431714Y-47990284D01*
X57503143Y-48061713D01*
X57574571Y-48204570D01*
X57574571Y-48633142D01*
X57503143Y-48775999D01*
X57431714Y-48847427D01*
X56074571Y-46990285D02*
X56074571Y-46847428D01*
X56146000Y-46704571D01*
X56217429Y-46633142D01*
X56360286Y-46561713D01*
X56646000Y-46490285D01*
X57003143Y-46490285D01*
X57288857Y-46561713D01*
X57431714Y-46633142D01*
X57503143Y-46704571D01*
X57574571Y-46847428D01*
X57574571Y-46990285D01*
X57503143Y-47133142D01*
X57431714Y-47204571D01*
X57288857Y-47275999D01*
X57003143Y-47347428D01*
X56646000Y-47347428D01*
X56360286Y-47275999D01*
X56217429Y-47204571D01*
X56146000Y-47133142D01*
X56074571Y-46990285D01*
X57574571Y-45061714D02*
X57574571Y-45918857D01*
X57574571Y-45490285D02*
X56074571Y-45490285D01*
X56288857Y-45633142D01*
X56431714Y-45776000D01*
X56503143Y-45918857D01*
X56074571Y-44561714D02*
X56074571Y-43561714D01*
X57574571Y-44204571D01*
X79085714Y-25570571D02*
X79085714Y-24070571D01*
X79657142Y-24070571D01*
X79800000Y-24142000D01*
X79871428Y-24213429D01*
X79942857Y-24356286D01*
X79942857Y-24570571D01*
X79871428Y-24713429D01*
X79800000Y-24784857D01*
X79657142Y-24856286D01*
X79085714Y-24856286D01*
X80871428Y-24070571D02*
X81157142Y-24070571D01*
X81300000Y-24142000D01*
X81442857Y-24284857D01*
X81514285Y-24570571D01*
X81514285Y-25070571D01*
X81442857Y-25356286D01*
X81300000Y-25499143D01*
X81157142Y-25570571D01*
X80871428Y-25570571D01*
X80728571Y-25499143D01*
X80585714Y-25356286D01*
X80514285Y-25070571D01*
X80514285Y-24570571D01*
X80585714Y-24284857D01*
X80728571Y-24142000D01*
X80871428Y-24070571D01*
X82014286Y-24070571D02*
X82371429Y-25570571D01*
X82657143Y-24499143D01*
X82942857Y-25570571D01*
X83300000Y-24070571D01*
X83871429Y-24784857D02*
X84371429Y-24784857D01*
X84585715Y-25570571D02*
X83871429Y-25570571D01*
X83871429Y-24070571D01*
X84585715Y-24070571D01*
X86085715Y-25570571D02*
X85585715Y-24856286D01*
X85228572Y-25570571D02*
X85228572Y-24070571D01*
X85800000Y-24070571D01*
X85942858Y-24142000D01*
X86014286Y-24213429D01*
X86085715Y-24356286D01*
X86085715Y-24570571D01*
X86014286Y-24713429D01*
X85942858Y-24784857D01*
X85800000Y-24856286D01*
X85228572Y-24856286D01*
X40307143Y-97314857D02*
X40807143Y-97314857D01*
X41021429Y-98100571D02*
X40307143Y-98100571D01*
X40307143Y-96600571D01*
X41021429Y-96600571D01*
X41664286Y-97314857D02*
X42164286Y-97314857D01*
X42378572Y-98100571D02*
X41664286Y-98100571D01*
X41664286Y-96600571D01*
X42378572Y-96600571D01*
X43021429Y-98100571D02*
X43021429Y-96600571D01*
X43592857Y-96600571D01*
X43735715Y-96672000D01*
X43807143Y-96743429D01*
X43878572Y-96886286D01*
X43878572Y-97100571D01*
X43807143Y-97243429D01*
X43735715Y-97314857D01*
X43592857Y-97386286D01*
X43021429Y-97386286D01*
X45378572Y-98100571D02*
X44878572Y-97386286D01*
X44521429Y-98100571D02*
X44521429Y-96600571D01*
X45092857Y-96600571D01*
X45235715Y-96672000D01*
X45307143Y-96743429D01*
X45378572Y-96886286D01*
X45378572Y-97100571D01*
X45307143Y-97243429D01*
X45235715Y-97314857D01*
X45092857Y-97386286D01*
X44521429Y-97386286D01*
X46307143Y-96600571D02*
X46592857Y-96600571D01*
X46735715Y-96672000D01*
X46878572Y-96814857D01*
X46950000Y-97100571D01*
X46950000Y-97600571D01*
X46878572Y-97886286D01*
X46735715Y-98029143D01*
X46592857Y-98100571D01*
X46307143Y-98100571D01*
X46164286Y-98029143D01*
X46021429Y-97886286D01*
X45950000Y-97600571D01*
X45950000Y-97100571D01*
X46021429Y-96814857D01*
X46164286Y-96672000D01*
X46307143Y-96600571D01*
X47592858Y-98100571D02*
X47592858Y-96600571D01*
X48092858Y-97672000D01*
X48592858Y-96600571D01*
X48592858Y-98100571D01*
X41450000Y-99000571D02*
X41807143Y-100500571D01*
X42092857Y-99429143D01*
X42378571Y-100500571D01*
X42735714Y-99000571D01*
X44164286Y-100500571D02*
X43664286Y-99786286D01*
X43307143Y-100500571D02*
X43307143Y-99000571D01*
X43878571Y-99000571D01*
X44021429Y-99072000D01*
X44092857Y-99143429D01*
X44164286Y-99286286D01*
X44164286Y-99500571D01*
X44092857Y-99643429D01*
X44021429Y-99714857D01*
X43878571Y-99786286D01*
X43307143Y-99786286D01*
X44807143Y-100500571D02*
X44807143Y-99000571D01*
X45307143Y-99000571D02*
X46164286Y-99000571D01*
X45735715Y-100500571D02*
X45735715Y-99000571D01*
X46664286Y-99714857D02*
X47164286Y-99714857D01*
X47378572Y-100500571D02*
X46664286Y-100500571D01*
X46664286Y-99000571D01*
X47378572Y-99000571D01*
X40664286Y-102114857D02*
X41164286Y-102114857D01*
X41378572Y-102900571D02*
X40664286Y-102900571D01*
X40664286Y-101400571D01*
X41378572Y-101400571D01*
X42021429Y-102900571D02*
X42021429Y-101400571D01*
X42878572Y-102900571D01*
X42878572Y-101400571D01*
X43521429Y-102472000D02*
X44235715Y-102472000D01*
X43378572Y-102900571D02*
X43878572Y-101400571D01*
X44378572Y-102900571D01*
X45378572Y-102114857D02*
X45592858Y-102186286D01*
X45664286Y-102257714D01*
X45735715Y-102400571D01*
X45735715Y-102614857D01*
X45664286Y-102757714D01*
X45592858Y-102829143D01*
X45450000Y-102900571D01*
X44878572Y-102900571D01*
X44878572Y-101400571D01*
X45378572Y-101400571D01*
X45521429Y-101472000D01*
X45592858Y-101543429D01*
X45664286Y-101686286D01*
X45664286Y-101829143D01*
X45592858Y-101972000D01*
X45521429Y-102043429D01*
X45378572Y-102114857D01*
X44878572Y-102114857D01*
X47092858Y-102900571D02*
X46378572Y-102900571D01*
X46378572Y-101400571D01*
X47592858Y-102114857D02*
X48092858Y-102114857D01*
X48307144Y-102900571D02*
X47592858Y-102900571D01*
X47592858Y-101400571D01*
X48307144Y-101400571D01*
X69552429Y-101416856D02*
X69481000Y-101345427D01*
X69409571Y-101202570D01*
X69409571Y-100845427D01*
X69481000Y-100702570D01*
X69552429Y-100631141D01*
X69695286Y-100559713D01*
X69838143Y-100559713D01*
X70052429Y-100631141D01*
X70909571Y-101488284D01*
X70909571Y-100559713D01*
X69909571Y-99273999D02*
X70909571Y-99273999D01*
X69338143Y-99631142D02*
X70409571Y-99988285D01*
X70409571Y-99059713D01*
X70909571Y-97773999D02*
X70909571Y-98488285D01*
X69409571Y-98488285D01*
X70766714Y-96416856D02*
X70838143Y-96488285D01*
X70909571Y-96702571D01*
X70909571Y-96845428D01*
X70838143Y-97059713D01*
X70695286Y-97202571D01*
X70552429Y-97273999D01*
X70266714Y-97345428D01*
X70052429Y-97345428D01*
X69766714Y-97273999D01*
X69623857Y-97202571D01*
X69481000Y-97059713D01*
X69409571Y-96845428D01*
X69409571Y-96702571D01*
X69481000Y-96488285D01*
X69552429Y-96416856D01*
X69409571Y-95488285D02*
X69409571Y-95345428D01*
X69481000Y-95202571D01*
X69552429Y-95131142D01*
X69695286Y-95059713D01*
X69981000Y-94988285D01*
X70338143Y-94988285D01*
X70623857Y-95059713D01*
X70766714Y-95131142D01*
X70838143Y-95202571D01*
X70909571Y-95345428D01*
X70909571Y-95488285D01*
X70838143Y-95631142D01*
X70766714Y-95702571D01*
X70623857Y-95773999D01*
X70338143Y-95845428D01*
X69981000Y-95845428D01*
X69695286Y-95773999D01*
X69552429Y-95702571D01*
X69481000Y-95631142D01*
X69409571Y-95488285D01*
X69552429Y-94416857D02*
X69481000Y-94345428D01*
X69409571Y-94202571D01*
X69409571Y-93845428D01*
X69481000Y-93702571D01*
X69552429Y-93631142D01*
X69695286Y-93559714D01*
X69838143Y-93559714D01*
X70052429Y-93631142D01*
X70909571Y-94488285D01*
X70909571Y-93559714D01*
X69909571Y-92274000D02*
X70909571Y-92274000D01*
X69338143Y-92631143D02*
X70409571Y-92988286D01*
X70409571Y-92059714D01*
D13*
X58270322Y-74262873D02*
X58497108Y-74338468D01*
X58875084Y-74338468D01*
X59026274Y-74262873D01*
X59101870Y-74187277D01*
X59177465Y-74036087D01*
X59177465Y-73884896D01*
X59101870Y-73733706D01*
X59026274Y-73658111D01*
X58875084Y-73582515D01*
X58572703Y-73506920D01*
X58421512Y-73431325D01*
X58345917Y-73355730D01*
X58270322Y-73204539D01*
X58270322Y-73053349D01*
X58345917Y-72902158D01*
X58421512Y-72826563D01*
X58572703Y-72750968D01*
X58950679Y-72750968D01*
X59177465Y-72826563D01*
X59857822Y-74338468D02*
X59857822Y-72750968D01*
X60235798Y-72750968D01*
X60462584Y-72826563D01*
X60613775Y-72977753D01*
X60689370Y-73128944D01*
X60764965Y-73431325D01*
X60764965Y-73658111D01*
X60689370Y-73960492D01*
X60613775Y-74111682D01*
X60462584Y-74262873D01*
X60235798Y-74338468D01*
X59857822Y-74338468D01*
X61369727Y-73884896D02*
X62125679Y-73884896D01*
X61218536Y-74338468D02*
X61747703Y-72750968D01*
X62276870Y-74338468D01*
X58156929Y-76882248D02*
X58383715Y-76957843D01*
X58761691Y-76957843D01*
X58912881Y-76882248D01*
X58988477Y-76806652D01*
X59064072Y-76655462D01*
X59064072Y-76504271D01*
X58988477Y-76353081D01*
X58912881Y-76277486D01*
X58761691Y-76201890D01*
X58459310Y-76126295D01*
X58308119Y-76050700D01*
X58232524Y-75975105D01*
X58156929Y-75823914D01*
X58156929Y-75672724D01*
X58232524Y-75521533D01*
X58308119Y-75445938D01*
X58459310Y-75370343D01*
X58837286Y-75370343D01*
X59064072Y-75445938D01*
X60651572Y-76806652D02*
X60575977Y-76882248D01*
X60349191Y-76957843D01*
X60198001Y-76957843D01*
X59971215Y-76882248D01*
X59820024Y-76731057D01*
X59744429Y-76579867D01*
X59668834Y-76277486D01*
X59668834Y-76050700D01*
X59744429Y-75748319D01*
X59820024Y-75597128D01*
X59971215Y-75445938D01*
X60198001Y-75370343D01*
X60349191Y-75370343D01*
X60575977Y-75445938D01*
X60651572Y-75521533D01*
X61331929Y-76957843D02*
X61331929Y-75370343D01*
X62239072Y-76957843D02*
X61558715Y-76050700D01*
X62239072Y-75370343D02*
X61331929Y-76277486D01*
D11*
X55104571Y-76394285D02*
X53604571Y-76394285D01*
X53747429Y-75751428D02*
X53676000Y-75679999D01*
X53604571Y-75537142D01*
X53604571Y-75179999D01*
X53676000Y-75037142D01*
X53747429Y-74965713D01*
X53890286Y-74894285D01*
X54033143Y-74894285D01*
X54247429Y-74965713D01*
X55104571Y-75822856D01*
X55104571Y-74894285D01*
X54961714Y-73394285D02*
X55033143Y-73465714D01*
X55104571Y-73680000D01*
X55104571Y-73822857D01*
X55033143Y-74037142D01*
X54890286Y-74180000D01*
X54747429Y-74251428D01*
X54461714Y-74322857D01*
X54247429Y-74322857D01*
X53961714Y-74251428D01*
X53818857Y-74180000D01*
X53676000Y-74037142D01*
X53604571Y-73822857D01*
X53604571Y-73680000D01*
X53676000Y-73465714D01*
X53747429Y-73394285D01*
X56004571Y-77644286D02*
X56004571Y-76787143D01*
X57504571Y-77215714D02*
X56004571Y-77215714D01*
X56718857Y-76287143D02*
X56718857Y-75787143D01*
X57504571Y-75572857D02*
X57504571Y-76287143D01*
X56004571Y-76287143D01*
X56004571Y-75572857D01*
X57504571Y-74072857D02*
X56790286Y-74572857D01*
X57504571Y-74930000D02*
X56004571Y-74930000D01*
X56004571Y-74358572D01*
X56076000Y-74215714D01*
X56147429Y-74144286D01*
X56290286Y-74072857D01*
X56504571Y-74072857D01*
X56647429Y-74144286D01*
X56718857Y-74215714D01*
X56790286Y-74358572D01*
X56790286Y-74930000D01*
X57504571Y-73430000D02*
X56004571Y-73430000D01*
X57076000Y-72930000D01*
X56004571Y-72430000D01*
X57504571Y-72430000D01*
X77501714Y-56892000D02*
X78216000Y-56892000D01*
X77358857Y-57320571D02*
X77858857Y-55820571D01*
X78358857Y-57320571D01*
X78858857Y-57320571D02*
X78858857Y-55820571D01*
X79216000Y-55820571D01*
X79430285Y-55892000D01*
X79573143Y-56034857D01*
X79644571Y-56177714D01*
X79716000Y-56463429D01*
X79716000Y-56677714D01*
X79644571Y-56963429D01*
X79573143Y-57106286D01*
X79430285Y-57249143D01*
X79216000Y-57320571D01*
X78858857Y-57320571D01*
X81216000Y-57320571D02*
X80716000Y-56606286D01*
X80358857Y-57320571D02*
X80358857Y-55820571D01*
X80930285Y-55820571D01*
X81073143Y-55892000D01*
X81144571Y-55963429D01*
X81216000Y-56106286D01*
X81216000Y-56320571D01*
X81144571Y-56463429D01*
X81073143Y-56534857D01*
X80930285Y-56606286D01*
X80358857Y-56606286D01*
X74596572Y-46906571D02*
X73739429Y-46906571D01*
X74168001Y-46906571D02*
X74168001Y-45406571D01*
X74025144Y-45620857D01*
X73882286Y-45763714D01*
X73739429Y-45835143D01*
X71802572Y-71544571D02*
X70945429Y-71544571D01*
X71374001Y-71544571D02*
X71374001Y-70044571D01*
X71231144Y-70258857D01*
X71088286Y-70401714D01*
X70945429Y-70473143D01*
X71519143Y-27225700D02*
X71398191Y-27147081D01*
X71216762Y-27147081D01*
X71035334Y-27225700D01*
X70914381Y-27382938D01*
X70853905Y-27540176D01*
X70793429Y-27854652D01*
X70793429Y-28090510D01*
X70853905Y-28404986D01*
X70914381Y-28562224D01*
X71035334Y-28719462D01*
X71216762Y-28798081D01*
X71337714Y-28798081D01*
X71519143Y-28719462D01*
X71579619Y-28640843D01*
X71579619Y-28090510D01*
X71337714Y-28090510D01*
X72123905Y-28798081D02*
X72123905Y-27147081D01*
X72849619Y-28798081D01*
X72849619Y-27147081D01*
X73454381Y-28798081D02*
X73454381Y-27147081D01*
X73756762Y-27147081D01*
X73938190Y-27225700D01*
X74059143Y-27382938D01*
X74119619Y-27540176D01*
X74180095Y-27854652D01*
X74180095Y-28090510D01*
X74119619Y-28404986D01*
X74059143Y-28562224D01*
X73938190Y-28719462D01*
X73756762Y-28798081D01*
X73454381Y-28798081D01*
X72063429Y-30780529D02*
X73031048Y-30780529D01*
X72547238Y-31409481D02*
X72547238Y-30151576D01*
X73454381Y-29758481D02*
X73877715Y-31409481D01*
X74301048Y-29758481D01*
X71519143Y-32448500D02*
X71398191Y-32369881D01*
X71216762Y-32369881D01*
X71035334Y-32448500D01*
X70914381Y-32605738D01*
X70853905Y-32762976D01*
X70793429Y-33077452D01*
X70793429Y-33313310D01*
X70853905Y-33627786D01*
X70914381Y-33785024D01*
X71035334Y-33942262D01*
X71216762Y-34020881D01*
X71337714Y-34020881D01*
X71519143Y-33942262D01*
X71579619Y-33863643D01*
X71579619Y-33313310D01*
X71337714Y-33313310D01*
X72123905Y-34020881D02*
X72123905Y-32369881D01*
X72849619Y-34020881D01*
X72849619Y-32369881D01*
X73454381Y-34020881D02*
X73454381Y-32369881D01*
X73756762Y-32369881D01*
X73938190Y-32448500D01*
X74059143Y-32605738D01*
X74119619Y-32762976D01*
X74180095Y-33077452D01*
X74180095Y-33313310D01*
X74119619Y-33627786D01*
X74059143Y-33785024D01*
X73938190Y-33942262D01*
X73756762Y-34020881D01*
X73454381Y-34020881D01*
X72063429Y-36003329D02*
X73031048Y-36003329D01*
X72547238Y-36632281D02*
X72547238Y-35374376D01*
X73454381Y-34981281D02*
X73877715Y-36632281D01*
X74301048Y-34981281D01*
X71519143Y-37671300D02*
X71398191Y-37592681D01*
X71216762Y-37592681D01*
X71035334Y-37671300D01*
X70914381Y-37828538D01*
X70853905Y-37985776D01*
X70793429Y-38300252D01*
X70793429Y-38536110D01*
X70853905Y-38850586D01*
X70914381Y-39007824D01*
X71035334Y-39165062D01*
X71216762Y-39243681D01*
X71337714Y-39243681D01*
X71519143Y-39165062D01*
X71579619Y-39086443D01*
X71579619Y-38536110D01*
X71337714Y-38536110D01*
X72123905Y-39243681D02*
X72123905Y-37592681D01*
X72849619Y-39243681D01*
X72849619Y-37592681D01*
X73454381Y-39243681D02*
X73454381Y-37592681D01*
X73756762Y-37592681D01*
X73938190Y-37671300D01*
X74059143Y-37828538D01*
X74119619Y-37985776D01*
X74180095Y-38300252D01*
X74180095Y-38536110D01*
X74119619Y-38850586D01*
X74059143Y-39007824D01*
X73938190Y-39165062D01*
X73756762Y-39243681D01*
X73454381Y-39243681D01*
X81933143Y-43624500D02*
X81812191Y-43545881D01*
X81630762Y-43545881D01*
X81449334Y-43624500D01*
X81328381Y-43781738D01*
X81267905Y-43938976D01*
X81207429Y-44253452D01*
X81207429Y-44489310D01*
X81267905Y-44803786D01*
X81328381Y-44961024D01*
X81449334Y-45118262D01*
X81630762Y-45196881D01*
X81751714Y-45196881D01*
X81933143Y-45118262D01*
X81993619Y-45039643D01*
X81993619Y-44489310D01*
X81751714Y-44489310D01*
X82537905Y-45196881D02*
X82537905Y-43545881D01*
X83263619Y-45196881D01*
X83263619Y-43545881D01*
X83868381Y-45196881D02*
X83868381Y-43545881D01*
X84170762Y-43545881D01*
X84352190Y-43624500D01*
X84473143Y-43781738D01*
X84533619Y-43938976D01*
X84594095Y-44253452D01*
X84594095Y-44489310D01*
X84533619Y-44803786D01*
X84473143Y-44961024D01*
X84352190Y-45118262D01*
X84170762Y-45196881D01*
X83868381Y-45196881D01*
X72839144Y-84360857D02*
X73053430Y-84432286D01*
X73124858Y-84503714D01*
X73196287Y-84646571D01*
X73196287Y-84860857D01*
X73124858Y-85003714D01*
X73053430Y-85075143D01*
X72910572Y-85146571D01*
X72339144Y-85146571D01*
X72339144Y-83646571D01*
X72839144Y-83646571D01*
X72982001Y-83718000D01*
X73053430Y-83789429D01*
X73124858Y-83932286D01*
X73124858Y-84075143D01*
X73053430Y-84218000D01*
X72982001Y-84289429D01*
X72839144Y-84360857D01*
X72339144Y-84360857D01*
X73767715Y-84718000D02*
X74482001Y-84718000D01*
X73624858Y-85146571D02*
X74124858Y-83646571D01*
X74624858Y-85146571D01*
X75053429Y-85075143D02*
X75267715Y-85146571D01*
X75624858Y-85146571D01*
X75767715Y-85075143D01*
X75839144Y-85003714D01*
X75910572Y-84860857D01*
X75910572Y-84718000D01*
X75839144Y-84575143D01*
X75767715Y-84503714D01*
X75624858Y-84432286D01*
X75339144Y-84360857D01*
X75196286Y-84289429D01*
X75124858Y-84218000D01*
X75053429Y-84075143D01*
X75053429Y-83932286D01*
X75124858Y-83789429D01*
X75196286Y-83718000D01*
X75339144Y-83646571D01*
X75696286Y-83646571D01*
X75910572Y-83718000D01*
X76553429Y-84360857D02*
X77053429Y-84360857D01*
X77267715Y-85146571D02*
X76553429Y-85146571D01*
X76553429Y-83646571D01*
X77267715Y-83646571D01*
X78982000Y-84718000D02*
X79696286Y-84718000D01*
X78839143Y-85146571D02*
X79339143Y-83646571D01*
X79839143Y-85146571D01*
X80339143Y-85146571D02*
X80339143Y-83646571D01*
X80696286Y-83646571D01*
X80910571Y-83718000D01*
X81053429Y-83860857D01*
X81124857Y-84003714D01*
X81196286Y-84289429D01*
X81196286Y-84503714D01*
X81124857Y-84789429D01*
X81053429Y-84932286D01*
X80910571Y-85075143D01*
X80696286Y-85146571D01*
X80339143Y-85146571D01*
X81839143Y-85146571D02*
X81839143Y-83646571D01*
X82196286Y-83646571D01*
X82410571Y-83718000D01*
X82553429Y-83860857D01*
X82624857Y-84003714D01*
X82696286Y-84289429D01*
X82696286Y-84503714D01*
X82624857Y-84789429D01*
X82553429Y-84932286D01*
X82410571Y-85075143D01*
X82196286Y-85146571D01*
X81839143Y-85146571D01*
X84196286Y-85146571D02*
X83696286Y-84432286D01*
X83339143Y-85146571D02*
X83339143Y-83646571D01*
X83910571Y-83646571D01*
X84053429Y-83718000D01*
X84124857Y-83789429D01*
X84196286Y-83932286D01*
X84196286Y-84146571D01*
X84124857Y-84289429D01*
X84053429Y-84360857D01*
X83910571Y-84432286D01*
X83339143Y-84432286D01*
X73517715Y-86760857D02*
X74017715Y-86760857D01*
X74232001Y-87546571D02*
X73517715Y-87546571D01*
X73517715Y-86046571D01*
X74232001Y-86046571D01*
X74874858Y-86760857D02*
X75374858Y-86760857D01*
X75589144Y-87546571D02*
X74874858Y-87546571D01*
X74874858Y-86046571D01*
X75589144Y-86046571D01*
X76232001Y-87546571D02*
X76232001Y-86046571D01*
X76803429Y-86046571D01*
X76946287Y-86118000D01*
X77017715Y-86189429D01*
X77089144Y-86332286D01*
X77089144Y-86546571D01*
X77017715Y-86689429D01*
X76946287Y-86760857D01*
X76803429Y-86832286D01*
X76232001Y-86832286D01*
X77732001Y-86975143D02*
X78874858Y-86975143D01*
X79446287Y-87546571D02*
X80232001Y-86546571D01*
X79446287Y-86546571D02*
X80232001Y-87546571D01*
X81517716Y-86046571D02*
X80803430Y-86046571D01*
X80732001Y-86760857D01*
X80803430Y-86689429D01*
X80946287Y-86618000D01*
X81303430Y-86618000D01*
X81446287Y-86689429D01*
X81517716Y-86760857D01*
X81589144Y-86903714D01*
X81589144Y-87260857D01*
X81517716Y-87403714D01*
X81446287Y-87475143D01*
X81303430Y-87546571D01*
X80946287Y-87546571D01*
X80803430Y-87475143D01*
X80732001Y-87403714D01*
X82517715Y-86046571D02*
X82660572Y-86046571D01*
X82803429Y-86118000D01*
X82874858Y-86189429D01*
X82946287Y-86332286D01*
X83017715Y-86618000D01*
X83017715Y-86975143D01*
X82946287Y-87260857D01*
X82874858Y-87403714D01*
X82803429Y-87475143D01*
X82660572Y-87546571D01*
X82517715Y-87546571D01*
X82374858Y-87475143D01*
X82303429Y-87403714D01*
X82232001Y-87260857D01*
X82160572Y-86975143D01*
X82160572Y-86618000D01*
X82232001Y-86332286D01*
X82303429Y-86189429D01*
X82374858Y-86118000D01*
X82517715Y-86046571D01*
X73696286Y-89946571D02*
X73696286Y-88446571D01*
X75482000Y-88375143D02*
X74196286Y-90303714D01*
X76267715Y-88446571D02*
X76553429Y-88446571D01*
X76696287Y-88518000D01*
X76839144Y-88660857D01*
X76910572Y-88946571D01*
X76910572Y-89446571D01*
X76839144Y-89732286D01*
X76696287Y-89875143D01*
X76553429Y-89946571D01*
X76267715Y-89946571D01*
X76124858Y-89875143D01*
X75982001Y-89732286D01*
X75910572Y-89446571D01*
X75910572Y-88946571D01*
X75982001Y-88660857D01*
X76124858Y-88518000D01*
X76267715Y-88446571D01*
X77553430Y-89375143D02*
X78696287Y-89375143D01*
X79267716Y-89946571D02*
X80053430Y-88946571D01*
X79267716Y-88946571D02*
X80053430Y-89946571D01*
X80553430Y-88589429D02*
X80624859Y-88518000D01*
X80767716Y-88446571D01*
X81124859Y-88446571D01*
X81267716Y-88518000D01*
X81339145Y-88589429D01*
X81410573Y-88732286D01*
X81410573Y-88875143D01*
X81339145Y-89089429D01*
X80482002Y-89946571D01*
X81410573Y-89946571D01*
X82339144Y-88446571D02*
X82482001Y-88446571D01*
X82624858Y-88518000D01*
X82696287Y-88589429D01*
X82767716Y-88732286D01*
X82839144Y-89018000D01*
X82839144Y-89375143D01*
X82767716Y-89660857D01*
X82696287Y-89803714D01*
X82624858Y-89875143D01*
X82482001Y-89946571D01*
X82339144Y-89946571D01*
X82196287Y-89875143D01*
X82124858Y-89803714D01*
X82053430Y-89660857D01*
X81982001Y-89375143D01*
X81982001Y-89018000D01*
X82053430Y-88732286D01*
X82124858Y-88589429D01*
X82196287Y-88518000D01*
X82339144Y-88446571D01*
D14*
X39140192Y-16389048D02*
X38898287Y-16268095D01*
X38777335Y-16026190D01*
X38777335Y-13849048D01*
X41196382Y-16389048D02*
X41196382Y-15058571D01*
X41075430Y-14816667D01*
X40833525Y-14695714D01*
X40349716Y-14695714D01*
X40107811Y-14816667D01*
X41196382Y-16268095D02*
X40954478Y-16389048D01*
X40349716Y-16389048D01*
X40107811Y-16268095D01*
X39986859Y-16026190D01*
X39986859Y-15784286D01*
X40107811Y-15542381D01*
X40349716Y-15421429D01*
X40954478Y-15421429D01*
X41196382Y-15300476D01*
X42405906Y-14695714D02*
X42405906Y-16389048D01*
X42405906Y-14937619D02*
X42526858Y-14816667D01*
X42768763Y-14695714D01*
X43131620Y-14695714D01*
X43373525Y-14816667D01*
X43494477Y-15058571D01*
X43494477Y-16389048D01*
X45792572Y-16389048D02*
X45792572Y-13849048D01*
X45792572Y-16268095D02*
X45550668Y-16389048D01*
X45066858Y-16389048D01*
X44824953Y-16268095D01*
X44704001Y-16147143D01*
X44583049Y-15905238D01*
X44583049Y-15179524D01*
X44704001Y-14937619D01*
X44824953Y-14816667D01*
X45066858Y-14695714D01*
X45550668Y-14695714D01*
X45792572Y-14816667D01*
X47002096Y-15421429D02*
X48937334Y-15421429D01*
X50146858Y-16389048D02*
X50146858Y-13849048D01*
X50146858Y-14816667D02*
X50388763Y-14695714D01*
X50872572Y-14695714D01*
X51114477Y-14816667D01*
X51235429Y-14937619D01*
X51356382Y-15179524D01*
X51356382Y-15905238D01*
X51235429Y-16147143D01*
X51114477Y-16268095D01*
X50872572Y-16389048D01*
X50388763Y-16389048D01*
X50146858Y-16268095D01*
X52807810Y-16389048D02*
X52565905Y-16268095D01*
X52444953Y-16147143D01*
X52324001Y-15905238D01*
X52324001Y-15179524D01*
X52444953Y-14937619D01*
X52565905Y-14816667D01*
X52807810Y-14695714D01*
X53170667Y-14695714D01*
X53412572Y-14816667D01*
X53533524Y-14937619D01*
X53654477Y-15179524D01*
X53654477Y-15905238D01*
X53533524Y-16147143D01*
X53412572Y-16268095D01*
X53170667Y-16389048D01*
X52807810Y-16389048D01*
X55831619Y-16389048D02*
X55831619Y-15058571D01*
X55710667Y-14816667D01*
X55468762Y-14695714D01*
X54984953Y-14695714D01*
X54743048Y-14816667D01*
X55831619Y-16268095D02*
X55589715Y-16389048D01*
X54984953Y-16389048D01*
X54743048Y-16268095D01*
X54622096Y-16026190D01*
X54622096Y-15784286D01*
X54743048Y-15542381D01*
X54984953Y-15421429D01*
X55589715Y-15421429D01*
X55831619Y-15300476D01*
X57041143Y-16389048D02*
X57041143Y-14695714D01*
X57041143Y-15179524D02*
X57162095Y-14937619D01*
X57283048Y-14816667D01*
X57524952Y-14695714D01*
X57766857Y-14695714D01*
X59702095Y-16389048D02*
X59702095Y-13849048D01*
X59702095Y-16268095D02*
X59460191Y-16389048D01*
X58976381Y-16389048D01*
X58734476Y-16268095D01*
X58613524Y-16147143D01*
X58492572Y-15905238D01*
X58492572Y-15179524D01*
X58613524Y-14937619D01*
X58734476Y-14816667D01*
X58976381Y-14695714D01*
X59460191Y-14695714D01*
X59702095Y-14816667D01*
X60790667Y-16268095D02*
X61032571Y-16389048D01*
X61516381Y-16389048D01*
X61758286Y-16268095D01*
X61879238Y-16026190D01*
X61879238Y-15905238D01*
X61758286Y-15663333D01*
X61516381Y-15542381D01*
X61153524Y-15542381D01*
X60911619Y-15421429D01*
X60790667Y-15179524D01*
X60790667Y-15058571D01*
X60911619Y-14816667D01*
X61153524Y-14695714D01*
X61516381Y-14695714D01*
X61758286Y-14816667D01*
X62967809Y-16147143D02*
X63088761Y-16268095D01*
X62967809Y-16389048D01*
X62846857Y-16268095D01*
X62967809Y-16147143D01*
X62967809Y-16389048D01*
X65265904Y-16268095D02*
X65024000Y-16389048D01*
X64540190Y-16389048D01*
X64298285Y-16268095D01*
X64177333Y-16147143D01*
X64056381Y-15905238D01*
X64056381Y-15179524D01*
X64177333Y-14937619D01*
X64298285Y-14816667D01*
X64540190Y-14695714D01*
X65024000Y-14695714D01*
X65265904Y-14816667D01*
X66717333Y-16389048D02*
X66475428Y-16268095D01*
X66354476Y-16147143D01*
X66233524Y-15905238D01*
X66233524Y-15179524D01*
X66354476Y-14937619D01*
X66475428Y-14816667D01*
X66717333Y-14695714D01*
X67080190Y-14695714D01*
X67322095Y-14816667D01*
X67443047Y-14937619D01*
X67564000Y-15179524D01*
X67564000Y-15905238D01*
X67443047Y-16147143D01*
X67322095Y-16268095D01*
X67080190Y-16389048D01*
X66717333Y-16389048D01*
X68652571Y-16389048D02*
X68652571Y-14695714D01*
X68652571Y-14937619D02*
X68773523Y-14816667D01*
X69015428Y-14695714D01*
X69378285Y-14695714D01*
X69620190Y-14816667D01*
X69741142Y-15058571D01*
X69741142Y-16389048D01*
X69741142Y-15058571D02*
X69862095Y-14816667D01*
X70103999Y-14695714D01*
X70466857Y-14695714D01*
X70708761Y-14816667D01*
X70829714Y-15058571D01*
X70829714Y-16389048D01*
X73853524Y-13728095D02*
X71676381Y-16993810D01*
X43494476Y-20453048D02*
X43494476Y-17913048D01*
X44462095Y-17913048D01*
X44704000Y-18034000D01*
X44824952Y-18154952D01*
X44945904Y-18396857D01*
X44945904Y-18759714D01*
X44824952Y-19001619D01*
X44704000Y-19122571D01*
X44462095Y-19243524D01*
X43494476Y-19243524D01*
X47485904Y-20453048D02*
X46639238Y-19243524D01*
X46034476Y-20453048D02*
X46034476Y-17913048D01*
X47002095Y-17913048D01*
X47244000Y-18034000D01*
X47364952Y-18154952D01*
X47485904Y-18396857D01*
X47485904Y-18759714D01*
X47364952Y-19001619D01*
X47244000Y-19122571D01*
X47002095Y-19243524D01*
X46034476Y-19243524D01*
X49058285Y-17913048D02*
X49542095Y-17913048D01*
X49784000Y-18034000D01*
X50025904Y-18275905D01*
X50146857Y-18759714D01*
X50146857Y-19606381D01*
X50025904Y-20090190D01*
X49784000Y-20332095D01*
X49542095Y-20453048D01*
X49058285Y-20453048D01*
X48816381Y-20332095D01*
X48574476Y-20090190D01*
X48453524Y-19606381D01*
X48453524Y-18759714D01*
X48574476Y-18275905D01*
X48816381Y-18034000D01*
X49058285Y-17913048D01*
X50872571Y-17913048D02*
X52323999Y-17913048D01*
X51598285Y-20453048D02*
X51598285Y-17913048D01*
X53654475Y-17913048D02*
X54138285Y-17913048D01*
X54380190Y-18034000D01*
X54622094Y-18275905D01*
X54743047Y-18759714D01*
X54743047Y-19606381D01*
X54622094Y-20090190D01*
X54380190Y-20332095D01*
X54138285Y-20453048D01*
X53654475Y-20453048D01*
X53412571Y-20332095D01*
X53170666Y-20090190D01*
X53049714Y-19606381D01*
X53049714Y-18759714D01*
X53170666Y-18275905D01*
X53412571Y-18034000D01*
X53654475Y-17913048D01*
X57162094Y-20453048D02*
X55710666Y-20453048D01*
X56436380Y-20453048D02*
X56436380Y-17913048D01*
X56194475Y-18275905D01*
X55952570Y-18517810D01*
X55710666Y-18638762D01*
X59339237Y-17913048D02*
X58855428Y-17913048D01*
X58613523Y-18034000D01*
X58492571Y-18154952D01*
X58250666Y-18517810D01*
X58129714Y-19001619D01*
X58129714Y-19969238D01*
X58250666Y-20211143D01*
X58371618Y-20332095D01*
X58613523Y-20453048D01*
X59097333Y-20453048D01*
X59339237Y-20332095D01*
X59460190Y-20211143D01*
X59581142Y-19969238D01*
X59581142Y-19364476D01*
X59460190Y-19122571D01*
X59339237Y-19001619D01*
X59097333Y-18880667D01*
X58613523Y-18880667D01*
X58371618Y-19001619D01*
X58250666Y-19122571D01*
X58129714Y-19364476D01*
X60669714Y-19485429D02*
X62604952Y-19485429D01*
X63814476Y-20453048D02*
X63814476Y-17913048D01*
X64903048Y-18154952D02*
X65024000Y-18034000D01*
X65265905Y-17913048D01*
X65870667Y-17913048D01*
X66112571Y-18034000D01*
X66233524Y-18154952D01*
X66354476Y-18396857D01*
X66354476Y-18638762D01*
X66233524Y-19001619D01*
X64782095Y-20453048D01*
X66354476Y-20453048D01*
X68894476Y-20211143D02*
X68773524Y-20332095D01*
X68410667Y-20453048D01*
X68168762Y-20453048D01*
X67805905Y-20332095D01*
X67564000Y-20090190D01*
X67443048Y-19848286D01*
X67322096Y-19364476D01*
X67322096Y-19001619D01*
X67443048Y-18517810D01*
X67564000Y-18275905D01*
X67805905Y-18034000D01*
X68168762Y-17913048D01*
X68410667Y-17913048D01*
X68773524Y-18034000D01*
X68894476Y-18154952D01*
D13*
X76936298Y-68790155D02*
X76936298Y-67202655D01*
X77616655Y-67353845D02*
X77692250Y-67278250D01*
X77843441Y-67202655D01*
X78221417Y-67202655D01*
X78372607Y-67278250D01*
X78448203Y-67353845D01*
X78523798Y-67505036D01*
X78523798Y-67656226D01*
X78448203Y-67883012D01*
X77541060Y-68790155D01*
X78523798Y-68790155D01*
X80111298Y-68638964D02*
X80035703Y-68714560D01*
X79808917Y-68790155D01*
X79657727Y-68790155D01*
X79430941Y-68714560D01*
X79279750Y-68563369D01*
X79204155Y-68412179D01*
X79128560Y-68109798D01*
X79128560Y-67883012D01*
X79204155Y-67580631D01*
X79279750Y-67429440D01*
X79430941Y-67278250D01*
X79657727Y-67202655D01*
X79808917Y-67202655D01*
X80035703Y-67278250D01*
X80111298Y-67353845D01*
D11*
X82247619Y-79438500D02*
X82126667Y-79359881D01*
X81945238Y-79359881D01*
X81763810Y-79438500D01*
X81642857Y-79595738D01*
X81582381Y-79752976D01*
X81521905Y-80067452D01*
X81521905Y-80303310D01*
X81582381Y-80617786D01*
X81642857Y-80775024D01*
X81763810Y-80932262D01*
X81945238Y-81010881D01*
X82066190Y-81010881D01*
X82247619Y-80932262D01*
X82308095Y-80853643D01*
X82308095Y-80303310D01*
X82066190Y-80303310D01*
X82852381Y-81010881D02*
X82852381Y-79359881D01*
X83578095Y-81010881D01*
X83578095Y-79359881D01*
X84182857Y-81010881D02*
X84182857Y-79359881D01*
X84485238Y-79359881D01*
X84666666Y-79438500D01*
X84787619Y-79595738D01*
X84848095Y-79752976D01*
X84908571Y-80067452D01*
X84908571Y-80303310D01*
X84848095Y-80617786D01*
X84787619Y-80775024D01*
X84666666Y-80932262D01*
X84485238Y-81010881D01*
X84182857Y-81010881D01*
D15*
X31242000Y-24765000D02*
X31242000Y-22479000D01*
X31242000Y-22479000D02*
X29591000Y-22479000D01*
X27813000Y-24765000D02*
X26162000Y-24765000D01*
X26162000Y-24765000D02*
X26162000Y-22479000D01*
X26162000Y-22479000D02*
X27813000Y-22479000D01*
X29591000Y-24765000D02*
X31242000Y-24765000D01*
D10*
X43942000Y-92710000D02*
X46482000Y-92710000D01*
X41122000Y-92430000D02*
X42672000Y-92430000D01*
X43942000Y-92710000D02*
X43942000Y-95250000D01*
X42672000Y-95530000D02*
X41122000Y-95530000D01*
X41122000Y-95530000D02*
X41122000Y-92430000D01*
X43942000Y-95250000D02*
X46482000Y-95250000D01*
X46482000Y-95250000D02*
X46482000Y-92710000D01*
X67040000Y-71104000D02*
X60040000Y-71104000D01*
X60040000Y-71104000D02*
X60040000Y-69104000D01*
X60040000Y-69104000D02*
X67040000Y-69104000D01*
X67040000Y-69104000D02*
X67040000Y-71104000D01*
X64881000Y-89646000D02*
X57881000Y-89646000D01*
X57881000Y-89646000D02*
X57881000Y-87646000D01*
X57881000Y-87646000D02*
X64881000Y-87646000D01*
X64881000Y-87646000D02*
X64881000Y-89646000D01*
X59825000Y-30725000D02*
X59825000Y-31995000D01*
X67175000Y-30725000D02*
X67175000Y-31995000D01*
X67175000Y-68335000D02*
X67175000Y-67065000D01*
X59825000Y-68335000D02*
X59825000Y-67065000D01*
X59825000Y-30725000D02*
X67175000Y-30725000D01*
X59825000Y-68335000D02*
X67175000Y-68335000D01*
X59825000Y-31995000D02*
X58890000Y-31995000D01*
X58428000Y-91050000D02*
X58428000Y-92320000D01*
X65778000Y-91050000D02*
X65778000Y-92320000D01*
X65778000Y-103260000D02*
X65778000Y-101990000D01*
X58428000Y-103260000D02*
X58428000Y-101990000D01*
X58428000Y-91050000D02*
X65778000Y-91050000D01*
X58428000Y-103260000D02*
X65778000Y-103260000D01*
X58428000Y-92320000D02*
X57493000Y-92320000D01*
X73406000Y-69316000D02*
X72256000Y-69316000D01*
X72256000Y-69316000D02*
X72256000Y-70866000D01*
X74930000Y-78740000D02*
X74422000Y-78740000D01*
X74930000Y-78232000D02*
X74422000Y-78232000D01*
X74930000Y-76200000D02*
X74422000Y-76200000D01*
X74930000Y-75692000D02*
X74422000Y-75692000D01*
X74930000Y-73660000D02*
X74422000Y-73660000D01*
X74930000Y-73152000D02*
X74422000Y-73152000D01*
X74930000Y-71120000D02*
X74422000Y-71120000D01*
X74930000Y-70612000D02*
X74422000Y-70612000D01*
X77470000Y-70612000D02*
X76962000Y-70612000D01*
X77470000Y-71120000D02*
X76962000Y-71120000D01*
X77470000Y-73152000D02*
X76962000Y-73152000D01*
X77470000Y-73660000D02*
X76962000Y-73660000D01*
X77470000Y-78740000D02*
X76962000Y-78740000D01*
X77470000Y-78232000D02*
X76962000Y-78232000D01*
X77470000Y-76200000D02*
X76962000Y-76200000D01*
X77470000Y-75692000D02*
X76962000Y-75692000D01*
X80010000Y-70739000D02*
X85979000Y-70739000D01*
X85979000Y-70739000D02*
X85979000Y-70993000D01*
X85979000Y-70993000D02*
X80137000Y-70993000D01*
X80137000Y-70993000D02*
X80137000Y-70866000D01*
X80137000Y-70866000D02*
X85979000Y-70866000D01*
X77470000Y-79756000D02*
X80010000Y-79756000D01*
X77470000Y-74676000D02*
X80010000Y-74676000D01*
X77470000Y-74676000D02*
X77470000Y-77216000D01*
X77470000Y-77216000D02*
X80010000Y-77216000D01*
X80010000Y-75692000D02*
X86106000Y-75692000D01*
X86106000Y-75692000D02*
X86106000Y-76200000D01*
X86106000Y-76200000D02*
X80010000Y-76200000D01*
X80010000Y-77216000D02*
X80010000Y-74676000D01*
X80010000Y-79756000D02*
X80010000Y-77216000D01*
X86106000Y-78740000D02*
X80010000Y-78740000D01*
X86106000Y-78232000D02*
X86106000Y-78740000D01*
X80010000Y-78232000D02*
X86106000Y-78232000D01*
X77470000Y-79756000D02*
X80010000Y-79756000D01*
X77470000Y-77216000D02*
X77470000Y-79756000D01*
X77470000Y-77216000D02*
X80010000Y-77216000D01*
X77470000Y-72136000D02*
X80010000Y-72136000D01*
X77470000Y-72136000D02*
X77470000Y-74676000D01*
X77470000Y-74676000D02*
X80010000Y-74676000D01*
X80010000Y-73152000D02*
X86106000Y-73152000D01*
X86106000Y-73152000D02*
X86106000Y-73660000D01*
X86106000Y-73660000D02*
X80010000Y-73660000D01*
X80010000Y-74676000D02*
X80010000Y-72136000D01*
X80010000Y-72136000D02*
X80010000Y-69596000D01*
X86106000Y-71120000D02*
X80010000Y-71120000D01*
X86106000Y-70612000D02*
X86106000Y-71120000D01*
X80010000Y-70612000D02*
X86106000Y-70612000D01*
X77470000Y-72136000D02*
X80010000Y-72136000D01*
X77470000Y-69596000D02*
X77470000Y-72136000D01*
X77470000Y-69596000D02*
X80010000Y-69596000D01*
X74900000Y-26898000D02*
X74900000Y-28448000D01*
X76200000Y-26898000D02*
X74900000Y-26898000D01*
X80391000Y-28321000D02*
X86233000Y-28321000D01*
X86233000Y-28321000D02*
X86233000Y-28575000D01*
X86233000Y-28575000D02*
X80391000Y-28575000D01*
X80391000Y-28575000D02*
X80391000Y-28448000D01*
X80391000Y-28448000D02*
X86233000Y-28448000D01*
X77724000Y-28194000D02*
X77343000Y-28194000D01*
X77724000Y-28702000D02*
X77343000Y-28702000D01*
X77724000Y-30734000D02*
X77343000Y-30734000D01*
X77724000Y-31242000D02*
X77343000Y-31242000D01*
X77724000Y-33274000D02*
X77343000Y-33274000D01*
X77724000Y-33782000D02*
X77343000Y-33782000D01*
X77724000Y-35814000D02*
X77343000Y-35814000D01*
X77724000Y-36322000D02*
X77343000Y-36322000D01*
X77724000Y-38862000D02*
X77343000Y-38862000D01*
X77724000Y-38354000D02*
X77343000Y-38354000D01*
X80264000Y-29718000D02*
X80264000Y-27178000D01*
X86360000Y-28702000D02*
X80264000Y-28702000D01*
X86360000Y-28194000D02*
X86360000Y-28702000D01*
X80264000Y-28194000D02*
X86360000Y-28194000D01*
X77724000Y-29718000D02*
X80264000Y-29718000D01*
X77724000Y-27178000D02*
X77724000Y-29718000D01*
X77724000Y-27178000D02*
X80264000Y-27178000D01*
X77724000Y-32258000D02*
X80264000Y-32258000D01*
X77724000Y-32258000D02*
X77724000Y-34798000D01*
X77724000Y-34798000D02*
X80264000Y-34798000D01*
X80264000Y-33274000D02*
X86360000Y-33274000D01*
X86360000Y-33274000D02*
X86360000Y-33782000D01*
X86360000Y-33782000D02*
X80264000Y-33782000D01*
X80264000Y-34798000D02*
X80264000Y-32258000D01*
X80264000Y-32258000D02*
X80264000Y-29718000D01*
X86360000Y-31242000D02*
X80264000Y-31242000D01*
X86360000Y-30734000D02*
X86360000Y-31242000D01*
X80264000Y-30734000D02*
X86360000Y-30734000D01*
X77724000Y-32258000D02*
X80264000Y-32258000D01*
X77724000Y-29718000D02*
X77724000Y-32258000D01*
X77724000Y-29718000D02*
X80264000Y-29718000D01*
X77724000Y-37338000D02*
X80264000Y-37338000D01*
X77724000Y-37338000D02*
X77724000Y-39878000D01*
X77724000Y-39878000D02*
X80264000Y-39878000D01*
X80264000Y-38354000D02*
X86360000Y-38354000D01*
X86360000Y-38354000D02*
X86360000Y-38862000D01*
X86360000Y-38862000D02*
X80264000Y-38862000D01*
X80264000Y-39878000D02*
X80264000Y-37338000D01*
X80264000Y-37338000D02*
X80264000Y-34798000D01*
X86360000Y-36322000D02*
X80264000Y-36322000D01*
X86360000Y-35814000D02*
X86360000Y-36322000D01*
X80264000Y-35814000D02*
X86360000Y-35814000D01*
X77724000Y-37338000D02*
X80264000Y-37338000D01*
X77724000Y-34798000D02*
X77724000Y-37338000D01*
X77724000Y-34798000D02*
X80264000Y-34798000D01*
X64262000Y-81788000D02*
X59182000Y-81788000D01*
X59182000Y-81788000D02*
X59182000Y-79248000D01*
X59182000Y-79248000D02*
X64262000Y-79248000D01*
X64262000Y-79248000D02*
X64262000Y-81788000D01*
X64262000Y-80518000D02*
X65532000Y-80518000D01*
X59182000Y-80518000D02*
X57912000Y-80518000D01*
X64262000Y-85344000D02*
X59182000Y-85344000D01*
X59182000Y-85344000D02*
X59182000Y-82804000D01*
X59182000Y-82804000D02*
X64262000Y-82804000D01*
X64262000Y-82804000D02*
X64262000Y-85344000D01*
X64262000Y-84074000D02*
X65532000Y-84074000D01*
X59182000Y-84074000D02*
X57912000Y-84074000D01*
X69730000Y-48460000D02*
X69730000Y-43380000D01*
X69730000Y-43380000D02*
X72270000Y-43380000D01*
X72270000Y-43380000D02*
X72270000Y-48460000D01*
X72270000Y-48460000D02*
X69730000Y-48460000D01*
X71000000Y-48460000D02*
X71000000Y-49730000D01*
X71000000Y-43380000D02*
X71000000Y-42110000D01*
X72270000Y-56540000D02*
X72270000Y-61620000D01*
X72270000Y-61620000D02*
X69730000Y-61620000D01*
X69730000Y-61620000D02*
X69730000Y-56540000D01*
X69730000Y-56540000D02*
X72270000Y-56540000D01*
X71000000Y-56540000D02*
X71000000Y-55270000D01*
X71000000Y-61620000D02*
X71000000Y-62890000D01*
X35052000Y-96774000D02*
X35052000Y-91694000D01*
X35052000Y-91694000D02*
X37592000Y-91694000D01*
X37592000Y-91694000D02*
X37592000Y-96774000D01*
X37592000Y-96774000D02*
X35052000Y-96774000D01*
X36322000Y-96774000D02*
X36322000Y-98044000D01*
X36322000Y-91694000D02*
X36322000Y-90424000D01*
X25908000Y-96774000D02*
X25908000Y-91694000D01*
X25908000Y-91694000D02*
X28448000Y-91694000D01*
X28448000Y-91694000D02*
X28448000Y-96774000D01*
X28448000Y-96774000D02*
X25908000Y-96774000D01*
X27178000Y-96774000D02*
X27178000Y-98044000D01*
X27178000Y-91694000D02*
X27178000Y-90424000D01*
X28956000Y-96774000D02*
X28956000Y-91694000D01*
X28956000Y-91694000D02*
X31496000Y-91694000D01*
X31496000Y-91694000D02*
X31496000Y-96774000D01*
X31496000Y-96774000D02*
X28956000Y-96774000D01*
X30226000Y-96774000D02*
X30226000Y-98044000D01*
X30226000Y-91694000D02*
X30226000Y-90424000D01*
X75438000Y-61976000D02*
X74930000Y-61976000D01*
X75438000Y-61468000D02*
X74930000Y-61468000D01*
X75438000Y-59436000D02*
X74930000Y-59436000D01*
X75438000Y-58928000D02*
X74930000Y-58928000D01*
X77978000Y-58928000D02*
X77470000Y-58928000D01*
X77978000Y-59436000D02*
X77470000Y-59436000D01*
X77978000Y-61468000D02*
X77470000Y-61468000D01*
X77978000Y-61976000D02*
X77470000Y-61976000D01*
X73914000Y-57632000D02*
X72764000Y-57632000D01*
X72764000Y-57632000D02*
X72764000Y-59182000D01*
X80518000Y-59055000D02*
X86487000Y-59055000D01*
X86487000Y-59055000D02*
X86487000Y-59309000D01*
X86487000Y-59309000D02*
X80645000Y-59309000D01*
X80645000Y-59309000D02*
X80645000Y-59182000D01*
X80645000Y-59182000D02*
X86487000Y-59182000D01*
X77978000Y-62992000D02*
X80518000Y-62992000D01*
X77978000Y-60452000D02*
X80518000Y-60452000D01*
X77978000Y-60452000D02*
X77978000Y-62992000D01*
X77978000Y-62992000D02*
X80518000Y-62992000D01*
X80518000Y-61468000D02*
X86614000Y-61468000D01*
X86614000Y-61468000D02*
X86614000Y-61976000D01*
X86614000Y-61976000D02*
X80518000Y-61976000D01*
X80518000Y-62992000D02*
X80518000Y-60452000D01*
X80518000Y-60452000D02*
X80518000Y-57912000D01*
X86614000Y-59436000D02*
X80518000Y-59436000D01*
X86614000Y-58928000D02*
X86614000Y-59436000D01*
X80518000Y-58928000D02*
X86614000Y-58928000D01*
X77978000Y-60452000D02*
X80518000Y-60452000D01*
X77978000Y-57912000D02*
X77978000Y-60452000D01*
X77978000Y-57912000D02*
X80518000Y-57912000D01*
X62712000Y-74168000D02*
X62712000Y-72618000D01*
X64262000Y-72618000D02*
X62712000Y-72618000D01*
X62992000Y-75438000D02*
X65532000Y-75438000D01*
X65532000Y-75438000D02*
X65532000Y-72898000D01*
X65532000Y-72898000D02*
X68072000Y-72898000D01*
X68072000Y-72898000D02*
X68072000Y-77978000D01*
X68072000Y-77978000D02*
X62992000Y-77978000D01*
X62992000Y-77978000D02*
X62992000Y-75438000D01*
X66603000Y-22647000D02*
X66603000Y-27645000D01*
X66743000Y-22655000D02*
X66743000Y-27637000D01*
X66883000Y-22671000D02*
X66883000Y-25051000D01*
X66883000Y-25241000D02*
X66883000Y-27621000D01*
X67023000Y-22695000D02*
X67023000Y-24656000D01*
X67023000Y-25636000D02*
X67023000Y-27597000D01*
X67163000Y-22728000D02*
X67163000Y-24489000D01*
X67163000Y-25803000D02*
X67163000Y-27564000D01*
X67303000Y-22769000D02*
X67303000Y-24382000D01*
X67303000Y-25910000D02*
X67303000Y-27523000D01*
X67443000Y-22819000D02*
X67443000Y-24311000D01*
X67443000Y-25981000D02*
X67443000Y-27473000D01*
X67583000Y-22880000D02*
X67583000Y-24267000D01*
X67583000Y-26025000D02*
X67583000Y-27412000D01*
X67723000Y-22950000D02*
X67723000Y-24248000D01*
X67723000Y-26044000D02*
X67723000Y-27342000D01*
X67863000Y-23032000D02*
X67863000Y-24250000D01*
X67863000Y-26042000D02*
X67863000Y-27260000D01*
X68003000Y-23127000D02*
X68003000Y-24275000D01*
X68003000Y-26017000D02*
X68003000Y-27165000D01*
X68143000Y-23238000D02*
X68143000Y-24323000D01*
X68143000Y-25969000D02*
X68143000Y-27054000D01*
X68283000Y-23366000D02*
X68283000Y-24401000D01*
X68283000Y-25891000D02*
X68283000Y-26926000D01*
X68423000Y-23515000D02*
X68423000Y-24518000D01*
X68423000Y-25774000D02*
X68423000Y-26777000D01*
X68563000Y-23694000D02*
X68563000Y-24706000D01*
X68563000Y-25586000D02*
X68563000Y-26598000D01*
X68703000Y-23913000D02*
X68703000Y-26379000D01*
X68843000Y-24202000D02*
X68843000Y-26090000D01*
X68983000Y-24674000D02*
X68983000Y-25618000D01*
X68678000Y-25146000D02*
G75*
G03X68678000Y-25146000I-900000J0D01*
G01*
X69065500Y-25146000D02*
G75*
G03X69065500Y-25146000I-2537500J0D01*
G01*
X5080000Y-30480000D02*
X19050000Y-30480000D01*
X10160000Y-38100000D02*
X19050000Y-38100000D01*
X5080000Y-36195000D02*
X10160000Y-36195000D01*
X5080000Y-78105000D02*
X10160000Y-78105000D01*
X10160000Y-76200000D02*
X19050000Y-76200000D01*
X19050000Y-83820000D02*
X5080000Y-83820000D01*
X10160000Y-30480000D02*
X10160000Y-38100000D01*
X10160000Y-83820000D02*
X10160000Y-76200000D01*
X8255000Y-36830000D02*
X5080000Y-36830000D01*
X8255000Y-77470000D02*
X5080000Y-77470000D01*
X-1905000Y-36830000D02*
X3810000Y-36830000D01*
X-1905000Y-77470000D02*
X3810000Y-77470000D01*
X5080000Y-30480000D02*
X3810000Y-30480000D01*
X3810000Y-30480000D02*
X3810000Y-83820000D01*
X3810000Y-83820000D02*
X5080000Y-83820000D01*
X5080000Y-83820000D02*
X5080000Y-30480000D01*
X19050000Y-38100000D02*
X19050000Y-30480000D01*
X8255000Y-77470000D02*
X8255000Y-36830000D01*
X-1905000Y-77470000D02*
X-1905000Y-36830000D01*
X19050000Y-83820000D02*
X19050000Y-76200000D01*
X43180000Y-31750000D02*
X43180000Y-54610000D01*
X43180000Y-54610000D02*
X40640000Y-54610000D01*
X40640000Y-54610000D02*
X40640000Y-31750000D01*
X43460000Y-28930000D02*
X43460000Y-30480000D01*
X43180000Y-31750000D02*
X40640000Y-31750000D01*
X40360000Y-30480000D02*
X40360000Y-28930000D01*
X40360000Y-28930000D02*
X43460000Y-28930000D01*
X45720000Y-57150000D02*
X45720000Y-80010000D01*
X45720000Y-80010000D02*
X43180000Y-80010000D01*
X43180000Y-80010000D02*
X43180000Y-57150000D01*
X46000000Y-54330000D02*
X46000000Y-55880000D01*
X45720000Y-57150000D02*
X43180000Y-57150000D01*
X42900000Y-55880000D02*
X42900000Y-54330000D01*
X42900000Y-54330000D02*
X46000000Y-54330000D01*
X48260000Y-31750000D02*
X48260000Y-54610000D01*
X48260000Y-54610000D02*
X45720000Y-54610000D01*
X45720000Y-54610000D02*
X45720000Y-31750000D01*
X48540000Y-28930000D02*
X48540000Y-30480000D01*
X48260000Y-31750000D02*
X45720000Y-31750000D01*
X45440000Y-30480000D02*
X45440000Y-28930000D01*
X45440000Y-28930000D02*
X48540000Y-28930000D01*
X48260000Y-57150000D02*
X48260000Y-80010000D01*
X48260000Y-80010000D02*
X45720000Y-80010000D01*
X45720000Y-80010000D02*
X45720000Y-57150000D01*
X48540000Y-54330000D02*
X48540000Y-55880000D01*
X48260000Y-57150000D02*
X45720000Y-57150000D01*
X45440000Y-55880000D02*
X45440000Y-54330000D01*
X45440000Y-54330000D02*
X48540000Y-54330000D01*
X45720000Y-31750000D02*
X45720000Y-54610000D01*
X45720000Y-54610000D02*
X43180000Y-54610000D01*
X43180000Y-54610000D02*
X43180000Y-31750000D01*
X46000000Y-28930000D02*
X46000000Y-30480000D01*
X45720000Y-31750000D02*
X43180000Y-31750000D01*
X42900000Y-30480000D02*
X42900000Y-28930000D01*
X42900000Y-28930000D02*
X46000000Y-28930000D01*
X43180000Y-57150000D02*
X43180000Y-80010000D01*
X43180000Y-80010000D02*
X40640000Y-80010000D01*
X40640000Y-80010000D02*
X40640000Y-57150000D01*
X43460000Y-54330000D02*
X43460000Y-55880000D01*
X43180000Y-57150000D02*
X40640000Y-57150000D01*
X40360000Y-55880000D02*
X40360000Y-54330000D01*
X40360000Y-54330000D02*
X43460000Y-54330000D01*
X33020000Y-57150000D02*
X33020000Y-80010000D01*
X33020000Y-80010000D02*
X30480000Y-80010000D01*
X30480000Y-80010000D02*
X30480000Y-57150000D01*
X33300000Y-54330000D02*
X33300000Y-55880000D01*
X33020000Y-57150000D02*
X30480000Y-57150000D01*
X30200000Y-55880000D02*
X30200000Y-54330000D01*
X30200000Y-54330000D02*
X33300000Y-54330000D01*
X35560000Y-31750000D02*
X35560000Y-54610000D01*
X35560000Y-54610000D02*
X33020000Y-54610000D01*
X33020000Y-54610000D02*
X33020000Y-31750000D01*
X35840000Y-28930000D02*
X35840000Y-30480000D01*
X35560000Y-31750000D02*
X33020000Y-31750000D01*
X32740000Y-30480000D02*
X32740000Y-28930000D01*
X32740000Y-28930000D02*
X35840000Y-28930000D01*
X30480000Y-57150000D02*
X30480000Y-80010000D01*
X30480000Y-80010000D02*
X27940000Y-80010000D01*
X27940000Y-80010000D02*
X27940000Y-57150000D01*
X30760000Y-54330000D02*
X30760000Y-55880000D01*
X30480000Y-57150000D02*
X27940000Y-57150000D01*
X27660000Y-55880000D02*
X27660000Y-54330000D01*
X27660000Y-54330000D02*
X30760000Y-54330000D01*
X30480000Y-31750000D02*
X30480000Y-54610000D01*
X30480000Y-54610000D02*
X27940000Y-54610000D01*
X27940000Y-54610000D02*
X27940000Y-31750000D01*
X30760000Y-28930000D02*
X30760000Y-30480000D01*
X30480000Y-31750000D02*
X27940000Y-31750000D01*
X27660000Y-30480000D02*
X27660000Y-28930000D01*
X27660000Y-28930000D02*
X30760000Y-28930000D01*
X33020000Y-31750000D02*
X33020000Y-54610000D01*
X33020000Y-54610000D02*
X30480000Y-54610000D01*
X30480000Y-54610000D02*
X30480000Y-31750000D01*
X33300000Y-28930000D02*
X33300000Y-30480000D01*
X33020000Y-31750000D02*
X30480000Y-31750000D01*
X30200000Y-30480000D02*
X30200000Y-28930000D01*
X30200000Y-28930000D02*
X33300000Y-28930000D01*
X35560000Y-57150000D02*
X35560000Y-80010000D01*
X35560000Y-80010000D02*
X33020000Y-80010000D01*
X33020000Y-80010000D02*
X33020000Y-57150000D01*
X35840000Y-54330000D02*
X35840000Y-55880000D01*
X35560000Y-57150000D02*
X33020000Y-57150000D01*
X32740000Y-55880000D02*
X32740000Y-54330000D01*
X32740000Y-54330000D02*
X35840000Y-54330000D01*
X40640000Y-57150000D02*
X40640000Y-80010000D01*
X40640000Y-80010000D02*
X38100000Y-80010000D01*
X38100000Y-80010000D02*
X38100000Y-57150000D01*
X40920000Y-54330000D02*
X40920000Y-55880000D01*
X40640000Y-57150000D02*
X38100000Y-57150000D01*
X37820000Y-55880000D02*
X37820000Y-54330000D01*
X37820000Y-54330000D02*
X40920000Y-54330000D01*
X40640000Y-31750000D02*
X40640000Y-54610000D01*
X40640000Y-54610000D02*
X38100000Y-54610000D01*
X38100000Y-54610000D02*
X38100000Y-31750000D01*
X40920000Y-28930000D02*
X40920000Y-30480000D01*
X40640000Y-31750000D02*
X38100000Y-31750000D01*
X37820000Y-30480000D02*
X37820000Y-28930000D01*
X37820000Y-28930000D02*
X40920000Y-28930000D01*
X38100000Y-31750000D02*
X38100000Y-54610000D01*
X38100000Y-54610000D02*
X35560000Y-54610000D01*
X35560000Y-54610000D02*
X35560000Y-31750000D01*
X38380000Y-28930000D02*
X38380000Y-30480000D01*
X38100000Y-31750000D02*
X35560000Y-31750000D01*
X35280000Y-30480000D02*
X35280000Y-28930000D01*
X35280000Y-28930000D02*
X38380000Y-28930000D01*
X38100000Y-57150000D02*
X38100000Y-80010000D01*
X38100000Y-80010000D02*
X35560000Y-80010000D01*
X35560000Y-80010000D02*
X35560000Y-57150000D01*
X38380000Y-54330000D02*
X38380000Y-55880000D01*
X38100000Y-57150000D02*
X35560000Y-57150000D01*
X35280000Y-55880000D02*
X35280000Y-54330000D01*
X35280000Y-54330000D02*
X38380000Y-54330000D01*
X27940000Y-31750000D02*
X27940000Y-54610000D01*
X27940000Y-54610000D02*
X25400000Y-54610000D01*
X25400000Y-54610000D02*
X25400000Y-31750000D01*
X28220000Y-28930000D02*
X28220000Y-30480000D01*
X27940000Y-31750000D02*
X25400000Y-31750000D01*
X25120000Y-30480000D02*
X25120000Y-28930000D01*
X25120000Y-28930000D02*
X28220000Y-28930000D01*
X27940000Y-57150000D02*
X27940000Y-80010000D01*
X27940000Y-80010000D02*
X25400000Y-80010000D01*
X25400000Y-80010000D02*
X25400000Y-57150000D01*
X28220000Y-54330000D02*
X28220000Y-55880000D01*
X27940000Y-57150000D02*
X25400000Y-57150000D01*
X25120000Y-55880000D02*
X25120000Y-54330000D01*
X25120000Y-54330000D02*
X28220000Y-54330000D01*
X50800000Y-57150000D02*
X50800000Y-80010000D01*
X50800000Y-80010000D02*
X48260000Y-80010000D01*
X48260000Y-80010000D02*
X48260000Y-57150000D01*
X51080000Y-54330000D02*
X51080000Y-55880000D01*
X50800000Y-57150000D02*
X48260000Y-57150000D01*
X47980000Y-55880000D02*
X47980000Y-54330000D01*
X47980000Y-54330000D02*
X51080000Y-54330000D01*
X50800000Y-31750000D02*
X50800000Y-54610000D01*
X50800000Y-54610000D02*
X48260000Y-54610000D01*
X48260000Y-54610000D02*
X48260000Y-31750000D01*
X51080000Y-28930000D02*
X51080000Y-30480000D01*
X50800000Y-31750000D02*
X48260000Y-31750000D01*
X47980000Y-30480000D02*
X47980000Y-28930000D01*
X47980000Y-28930000D02*
X51080000Y-28930000D01*
X74900000Y-44678000D02*
X74900000Y-46228000D01*
X76200000Y-44678000D02*
X74900000Y-44678000D01*
X80391000Y-46101000D02*
X86233000Y-46101000D01*
X86233000Y-46101000D02*
X86233000Y-46355000D01*
X86233000Y-46355000D02*
X80391000Y-46355000D01*
X80391000Y-46355000D02*
X80391000Y-46228000D01*
X80391000Y-46228000D02*
X86233000Y-46228000D01*
X77724000Y-45974000D02*
X77343000Y-45974000D01*
X77724000Y-46482000D02*
X77343000Y-46482000D01*
X77724000Y-48514000D02*
X77343000Y-48514000D01*
X77724000Y-49022000D02*
X77343000Y-49022000D01*
X77724000Y-51054000D02*
X77343000Y-51054000D01*
X77724000Y-51562000D02*
X77343000Y-51562000D01*
X80264000Y-47498000D02*
X80264000Y-44958000D01*
X86360000Y-46482000D02*
X80264000Y-46482000D01*
X86360000Y-45974000D02*
X86360000Y-46482000D01*
X80264000Y-45974000D02*
X86360000Y-45974000D01*
X77724000Y-47498000D02*
X80264000Y-47498000D01*
X77724000Y-44958000D02*
X77724000Y-47498000D01*
X77724000Y-44958000D02*
X80264000Y-44958000D01*
X77724000Y-50038000D02*
X80264000Y-50038000D01*
X77724000Y-50038000D02*
X77724000Y-52578000D01*
X80264000Y-51054000D02*
X86360000Y-51054000D01*
X86360000Y-51054000D02*
X86360000Y-51562000D01*
X86360000Y-51562000D02*
X80264000Y-51562000D01*
X80264000Y-52578000D02*
X80264000Y-50038000D01*
X80264000Y-50038000D02*
X80264000Y-47498000D01*
X86360000Y-49022000D02*
X80264000Y-49022000D01*
X86360000Y-48514000D02*
X86360000Y-49022000D01*
X80264000Y-48514000D02*
X86360000Y-48514000D01*
X77724000Y-50038000D02*
X80264000Y-50038000D01*
X77724000Y-47498000D02*
X77724000Y-50038000D01*
X77724000Y-47498000D02*
X80264000Y-47498000D01*
X77724000Y-52578000D02*
X80264000Y-52578000D01*
X23338000Y-15214000D02*
X23338000Y-16764000D01*
X24638000Y-15214000D02*
X23338000Y-15214000D01*
X28829000Y-16637000D02*
X34671000Y-16637000D01*
X34671000Y-16637000D02*
X34671000Y-16891000D01*
X34671000Y-16891000D02*
X28829000Y-16891000D01*
X28829000Y-16891000D02*
X28829000Y-16764000D01*
X28829000Y-16764000D02*
X34671000Y-16764000D01*
X26162000Y-16510000D02*
X25781000Y-16510000D01*
X26162000Y-17018000D02*
X25781000Y-17018000D01*
X26162000Y-19050000D02*
X25781000Y-19050000D01*
X26162000Y-19558000D02*
X25781000Y-19558000D01*
X26162000Y-15494000D02*
X28702000Y-15494000D01*
X26162000Y-18034000D02*
X28702000Y-18034000D01*
X26162000Y-18034000D02*
X26162000Y-20574000D01*
X26162000Y-20574000D02*
X28702000Y-20574000D01*
X28702000Y-19050000D02*
X34798000Y-19050000D01*
X34798000Y-19050000D02*
X34798000Y-19558000D01*
X34798000Y-19558000D02*
X28702000Y-19558000D01*
X28702000Y-20574000D02*
X28702000Y-18034000D01*
X28702000Y-18034000D02*
X28702000Y-15494000D01*
X34798000Y-17018000D02*
X28702000Y-17018000D01*
X34798000Y-16510000D02*
X34798000Y-17018000D01*
X28702000Y-16510000D02*
X34798000Y-16510000D01*
X26162000Y-18034000D02*
X28702000Y-18034000D01*
X26162000Y-15494000D02*
X26162000Y-18034000D01*
D16*
X32513286Y-24159333D02*
X32513286Y-24582666D01*
X33178524Y-24582666D02*
X31908524Y-24582666D01*
X31908524Y-23977904D01*
X33178524Y-22828857D02*
X33178524Y-23554571D01*
X33178524Y-23191714D02*
X31908524Y-23191714D01*
X32089952Y-23312666D01*
X32210905Y-23433619D01*
X32271381Y-23554571D01*
X41450381Y-91760524D02*
X41450381Y-90490524D01*
X41450381Y-91095286D02*
X42176095Y-91095286D01*
X42176095Y-91760524D02*
X42176095Y-90490524D01*
X43385619Y-90490524D02*
X42780857Y-90490524D01*
X42720381Y-91095286D01*
X42780857Y-91034810D01*
X42901809Y-90974333D01*
X43204190Y-90974333D01*
X43325143Y-91034810D01*
X43385619Y-91095286D01*
X43446095Y-91216238D01*
X43446095Y-91518619D01*
X43385619Y-91639571D01*
X43325143Y-91700048D01*
X43204190Y-91760524D01*
X42901809Y-91760524D01*
X42780857Y-91700048D01*
X42720381Y-91639571D01*
X68368333Y-70557571D02*
X68307857Y-70618048D01*
X68126428Y-70678524D01*
X68005476Y-70678524D01*
X67824048Y-70618048D01*
X67703095Y-70497095D01*
X67642619Y-70376143D01*
X67582143Y-70134238D01*
X67582143Y-69952810D01*
X67642619Y-69710905D01*
X67703095Y-69589952D01*
X67824048Y-69469000D01*
X68005476Y-69408524D01*
X68126428Y-69408524D01*
X68307857Y-69469000D01*
X68368333Y-69529476D01*
X69577857Y-70678524D02*
X68852143Y-70678524D01*
X69215000Y-70678524D02*
X69215000Y-69408524D01*
X69094048Y-69589952D01*
X68973095Y-69710905D01*
X68852143Y-69771381D01*
X66620571Y-88857667D02*
X66681048Y-88918143D01*
X66741524Y-89099572D01*
X66741524Y-89220524D01*
X66681048Y-89401952D01*
X66560095Y-89522905D01*
X66439143Y-89583381D01*
X66197238Y-89643857D01*
X66015810Y-89643857D01*
X65773905Y-89583381D01*
X65652952Y-89522905D01*
X65532000Y-89401952D01*
X65471524Y-89220524D01*
X65471524Y-89099572D01*
X65532000Y-88918143D01*
X65592476Y-88857667D01*
X65592476Y-88373857D02*
X65532000Y-88313381D01*
X65471524Y-88192429D01*
X65471524Y-87890048D01*
X65532000Y-87769095D01*
X65592476Y-87708619D01*
X65713429Y-87648143D01*
X65834381Y-87648143D01*
X66015810Y-87708619D01*
X66741524Y-88434333D01*
X66741524Y-87648143D01*
X57198381Y-29784524D02*
X57198381Y-30812619D01*
X57258857Y-30933571D01*
X57319333Y-30994048D01*
X57440286Y-31054524D01*
X57682190Y-31054524D01*
X57803143Y-30994048D01*
X57863619Y-30933571D01*
X57924095Y-30812619D01*
X57924095Y-29784524D01*
X59194095Y-31054524D02*
X58468381Y-31054524D01*
X58831238Y-31054524D02*
X58831238Y-29784524D01*
X58710286Y-29965952D01*
X58589333Y-30086905D01*
X58468381Y-30147381D01*
X56055381Y-89855524D02*
X56055381Y-90883619D01*
X56115857Y-91004571D01*
X56176333Y-91065048D01*
X56297286Y-91125524D01*
X56539190Y-91125524D01*
X56660143Y-91065048D01*
X56720619Y-91004571D01*
X56781095Y-90883619D01*
X56781095Y-89855524D01*
X57325381Y-89976476D02*
X57385857Y-89916000D01*
X57506809Y-89855524D01*
X57809190Y-89855524D01*
X57930143Y-89916000D01*
X57990619Y-89976476D01*
X58051095Y-90097429D01*
X58051095Y-90218381D01*
X57990619Y-90399810D01*
X57264905Y-91125524D01*
X58051095Y-91125524D01*
X72184381Y-68900524D02*
X72184381Y-67630524D01*
X72184381Y-68235286D02*
X72910095Y-68235286D01*
X72910095Y-68900524D02*
X72910095Y-67630524D01*
X74059143Y-68053857D02*
X74059143Y-68900524D01*
X73756762Y-67570048D02*
X73454381Y-68477190D01*
X74240571Y-68477190D01*
X75232381Y-26228524D02*
X75232381Y-24958524D01*
X75232381Y-25563286D02*
X75958095Y-25563286D01*
X75958095Y-26228524D02*
X75958095Y-24958524D01*
X77228095Y-26228524D02*
X76502381Y-26228524D01*
X76865238Y-26228524D02*
X76865238Y-24958524D01*
X76744286Y-25139952D01*
X76623333Y-25260905D01*
X76502381Y-25321381D01*
X54930524Y-81491667D02*
X54325762Y-81915000D01*
X54930524Y-82217381D02*
X53660524Y-82217381D01*
X53660524Y-81733572D01*
X53721000Y-81612619D01*
X53781476Y-81552143D01*
X53902429Y-81491667D01*
X54083857Y-81491667D01*
X54204810Y-81552143D01*
X54265286Y-81612619D01*
X54325762Y-81733572D01*
X54325762Y-82217381D01*
X53660524Y-80342619D02*
X53660524Y-80947381D01*
X54265286Y-81007857D01*
X54204810Y-80947381D01*
X54144333Y-80826429D01*
X54144333Y-80524048D01*
X54204810Y-80403095D01*
X54265286Y-80342619D01*
X54386238Y-80282143D01*
X54688619Y-80282143D01*
X54809571Y-80342619D01*
X54870048Y-80403095D01*
X54930524Y-80524048D01*
X54930524Y-80826429D01*
X54870048Y-80947381D01*
X54809571Y-81007857D01*
X54930524Y-84793667D02*
X54325762Y-85217000D01*
X54930524Y-85519381D02*
X53660524Y-85519381D01*
X53660524Y-85035572D01*
X53721000Y-84914619D01*
X53781476Y-84854143D01*
X53902429Y-84793667D01*
X54083857Y-84793667D01*
X54204810Y-84854143D01*
X54265286Y-84914619D01*
X54325762Y-85035572D01*
X54325762Y-85519381D01*
X54083857Y-83705095D02*
X54930524Y-83705095D01*
X53600048Y-84007476D02*
X54507190Y-84309857D01*
X54507190Y-83523667D01*
X73788333Y-43574524D02*
X73365000Y-42969762D01*
X73062619Y-43574524D02*
X73062619Y-42304524D01*
X73546428Y-42304524D01*
X73667381Y-42365000D01*
X73727857Y-42425476D01*
X73788333Y-42546429D01*
X73788333Y-42727857D01*
X73727857Y-42848810D01*
X73667381Y-42909286D01*
X73546428Y-42969762D01*
X73062619Y-42969762D01*
X74211667Y-42304524D02*
X75058333Y-42304524D01*
X74514048Y-43574524D01*
X73956333Y-54930524D02*
X73533000Y-54325762D01*
X73230619Y-54930524D02*
X73230619Y-53660524D01*
X73714428Y-53660524D01*
X73835381Y-53721000D01*
X73895857Y-53781476D01*
X73956333Y-53902429D01*
X73956333Y-54083857D01*
X73895857Y-54204810D01*
X73835381Y-54265286D01*
X73714428Y-54325762D01*
X73230619Y-54325762D01*
X75044905Y-53660524D02*
X74803000Y-53660524D01*
X74682048Y-53721000D01*
X74621571Y-53781476D01*
X74500619Y-53962905D01*
X74440143Y-54204810D01*
X74440143Y-54688619D01*
X74500619Y-54809571D01*
X74561095Y-54870048D01*
X74682048Y-54930524D01*
X74923952Y-54930524D01*
X75044905Y-54870048D01*
X75105381Y-54809571D01*
X75165857Y-54688619D01*
X75165857Y-54386238D01*
X75105381Y-54265286D01*
X75044905Y-54204810D01*
X74923952Y-54144333D01*
X74682048Y-54144333D01*
X74561095Y-54204810D01*
X74500619Y-54265286D01*
X74440143Y-54386238D01*
X34610524Y-94699667D02*
X34005762Y-95123000D01*
X34610524Y-95425381D02*
X33340524Y-95425381D01*
X33340524Y-94941572D01*
X33401000Y-94820619D01*
X33461476Y-94760143D01*
X33582429Y-94699667D01*
X33763857Y-94699667D01*
X33884810Y-94760143D01*
X33945286Y-94820619D01*
X34005762Y-94941572D01*
X34005762Y-95425381D01*
X33340524Y-94276333D02*
X33340524Y-93490143D01*
X33824333Y-93913476D01*
X33824333Y-93732048D01*
X33884810Y-93611095D01*
X33945286Y-93550619D01*
X34066238Y-93490143D01*
X34368619Y-93490143D01*
X34489571Y-93550619D01*
X34550048Y-93611095D01*
X34610524Y-93732048D01*
X34610524Y-94094905D01*
X34550048Y-94215857D01*
X34489571Y-94276333D01*
X26966333Y-102174524D02*
X26543000Y-101569762D01*
X26240619Y-102174524D02*
X26240619Y-100904524D01*
X26724428Y-100904524D01*
X26845381Y-100965000D01*
X26905857Y-101025476D01*
X26966333Y-101146429D01*
X26966333Y-101327857D01*
X26905857Y-101448810D01*
X26845381Y-101509286D01*
X26724428Y-101569762D01*
X26240619Y-101569762D01*
X28175857Y-102174524D02*
X27450143Y-102174524D01*
X27813000Y-102174524D02*
X27813000Y-100904524D01*
X27692048Y-101085952D01*
X27571095Y-101206905D01*
X27450143Y-101267381D01*
X30014333Y-102174524D02*
X29591000Y-101569762D01*
X29288619Y-102174524D02*
X29288619Y-100904524D01*
X29772428Y-100904524D01*
X29893381Y-100965000D01*
X29953857Y-101025476D01*
X30014333Y-101146429D01*
X30014333Y-101327857D01*
X29953857Y-101448810D01*
X29893381Y-101509286D01*
X29772428Y-101569762D01*
X29288619Y-101569762D01*
X30498143Y-101025476D02*
X30558619Y-100965000D01*
X30679571Y-100904524D01*
X30981952Y-100904524D01*
X31102905Y-100965000D01*
X31163381Y-101025476D01*
X31223857Y-101146429D01*
X31223857Y-101267381D01*
X31163381Y-101448810D01*
X30437667Y-102174524D01*
X31223857Y-102174524D01*
X73200381Y-57470524D02*
X73200381Y-56200524D01*
X73200381Y-56805286D02*
X73926095Y-56805286D01*
X73926095Y-57470524D02*
X73926095Y-56200524D01*
X74409905Y-56200524D02*
X75196095Y-56200524D01*
X74772762Y-56684333D01*
X74954190Y-56684333D01*
X75075143Y-56744810D01*
X75135619Y-56805286D01*
X75196095Y-56926238D01*
X75196095Y-57228619D01*
X75135619Y-57349571D01*
X75075143Y-57410048D01*
X74954190Y-57470524D01*
X74591333Y-57470524D01*
X74470381Y-57410048D01*
X74409905Y-57349571D01*
X63032381Y-72574524D02*
X63032381Y-71304524D01*
X63032381Y-71909286D02*
X63758095Y-71909286D01*
X63758095Y-72574524D02*
X63758095Y-71304524D01*
X64907143Y-71304524D02*
X64665238Y-71304524D01*
X64544286Y-71365000D01*
X64483809Y-71425476D01*
X64362857Y-71606905D01*
X64302381Y-71848810D01*
X64302381Y-72332619D01*
X64362857Y-72453571D01*
X64423333Y-72514048D01*
X64544286Y-72574524D01*
X64786190Y-72574524D01*
X64907143Y-72514048D01*
X64967619Y-72453571D01*
X65028095Y-72332619D01*
X65028095Y-72030238D01*
X64967619Y-71909286D01*
X64907143Y-71848810D01*
X64786190Y-71788333D01*
X64544286Y-71788333D01*
X64423333Y-71848810D01*
X64362857Y-71909286D01*
X64302381Y-72030238D01*
X62272333Y-26615571D02*
X62211857Y-26676048D01*
X62030428Y-26736524D01*
X61909476Y-26736524D01*
X61728048Y-26676048D01*
X61607095Y-26555095D01*
X61546619Y-26434143D01*
X61486143Y-26192238D01*
X61486143Y-26010810D01*
X61546619Y-25768905D01*
X61607095Y-25647952D01*
X61728048Y-25527000D01*
X61909476Y-25466524D01*
X62030428Y-25466524D01*
X62211857Y-25527000D01*
X62272333Y-25587476D01*
X62695667Y-25466524D02*
X63481857Y-25466524D01*
X63058524Y-25950333D01*
X63239952Y-25950333D01*
X63360905Y-26010810D01*
X63421381Y-26071286D01*
X63481857Y-26192238D01*
X63481857Y-26494619D01*
X63421381Y-26615571D01*
X63360905Y-26676048D01*
X63239952Y-26736524D01*
X62877095Y-26736524D01*
X62756143Y-26676048D01*
X62695667Y-26615571D01*
X20386524Y-76877333D02*
X21293667Y-76877333D01*
X21475095Y-76937809D01*
X21596048Y-77058761D01*
X21656524Y-77240190D01*
X21656524Y-77361142D01*
X21656524Y-75607333D02*
X21656524Y-76333047D01*
X21656524Y-75970190D02*
X20386524Y-75970190D01*
X20567952Y-76091142D01*
X20688905Y-76212095D01*
X20749381Y-76333047D01*
X77264381Y-44262524D02*
X77264381Y-42992524D01*
X77264381Y-43597286D02*
X77990095Y-43597286D01*
X77990095Y-44262524D02*
X77990095Y-42992524D01*
X78534381Y-43113476D02*
X78594857Y-43053000D01*
X78715809Y-42992524D01*
X79018190Y-42992524D01*
X79139143Y-43053000D01*
X79199619Y-43113476D01*
X79260095Y-43234429D01*
X79260095Y-43355381D01*
X79199619Y-43536810D01*
X78473905Y-44262524D01*
X79260095Y-44262524D01*
X23670381Y-15052524D02*
X23670381Y-13782524D01*
X23670381Y-14387286D02*
X24396095Y-14387286D01*
X24396095Y-15052524D02*
X24396095Y-13782524D01*
X24879905Y-13782524D02*
X25726571Y-13782524D01*
X25182286Y-15052524D01*
M02*
