  0
SECTION
  2
HEADER
  9
$ANGBASE
  50
0.0
  9
$ANGDIR
  70
  1
  9
$MEASUREMENT
  70
0
  0
ENDSEC
  0
SECTION
  2
TABLES
  0
TABLE
  2
LTYPE
  70
1
  0
LTYPE
  2
CONTINUOUS
  70
0
  3
Solid line
  72
65
  73
0
  40
0.0
  0
ENDTAB
  0
TABLE
  2
STYLE
  70
4
  0
STYLE
  2
KICAD
  70
0
  40
0
  41
1
  42
1
  50
0
  71
0
  3
isocp.shx
  0
STYLE
  2
KICADB
  70
0
  40
0
  41
1
  42
1
  50
0
  71
0
  3
isocp.shx
  0
STYLE
  2
KICADI
  70
0
  40
0
  41
1
  42
1
  50
15
  71
0
  3
isocp.shx
  0
STYLE
  2
KICADBI
  70
0
  40
0
  41
1
  42
1
  50
15
  71
0
  3
isocp.shx
  0
ENDTAB
  0
TABLE
  2
LAYER
  70
24
  0
LAYER
  2
BLACK
  70
0
  62
250
  6
CONTINUOUS
  0
LAYER
  2
BLUE
  70
0
  62
5
  6
CONTINUOUS
  0
LAYER
  2
GREEN
  70
0
  62
3
  6
CONTINUOUS
  0
LAYER
  2
CYAN
  70
0
  62
4
  6
CONTINUOUS
  0
LAYER
  2
RED
  70
0
  62
1
  6
CONTINUOUS
  0
LAYER
  2
MAGENTA
  70
0
  62
6
  6
CONTINUOUS
  0
LAYER
  2
BROWN
  70
0
  62
54
  6
CONTINUOUS
  0
LAYER
  2
LIGHTGRAY
  70
0
  62
9
  6
CONTINUOUS
  0
LAYER
  2
DARKGRAY
  70
0
  62
8
  6
CONTINUOUS
  0
LAYER
  2
LIGHTBLUE
  70
0
  62
171
  6
CONTINUOUS
  0
LAYER
  2
LIGHTGREEN
  70
0
  62
91
  6
CONTINUOUS
  0
LAYER
  2
LIGHTCYAN
  70
0
  62
131
  6
CONTINUOUS
  0
LAYER
  2
LIGHTRED
  70
0
  62
11
  6
CONTINUOUS
  0
LAYER
  2
LIGHTMAGENTA
  70
0
  62
221
  6
CONTINUOUS
  0
LAYER
  2
YELLOW
  70
0
  62
2
  6
CONTINUOUS
  0
LAYER
  2
WHITE
  70
0
  62
7
  6
CONTINUOUS
  0
LAYER
  2
DARKDARKGRAY
  70
0
  62
251
  6
CONTINUOUS
  0
LAYER
  2
DARKBLUE
  70
0
  62
178
  6
CONTINUOUS
  0
LAYER
  2
DARKGREEN
  70
0
  62
98
  6
CONTINUOUS
  0
LAYER
  2
DARKCYAN
  70
0
  62
138
  6
CONTINUOUS
  0
LAYER
  2
DARKRED
  70
0
  62
18
  6
CONTINUOUS
  0
LAYER
  2
DARKMAGENTA
  70
0
  62
228
  6
CONTINUOUS
  0
LAYER
  2
DARKBROWN
  70
0
  62
58
  6
CONTINUOUS
  0
LAYER
  2
LIGHTYELLOW
  70
0
  62
51
  6
CONTINUOUS
  0
ENDTAB
  0
ENDSEC
  0
SECTION
  2
ENTITIES
0
LINE
8
BLACK
10
1.905
20
-26.8605
11
5.715
21
-26.8605
0
LINE
8
BLACK
10
1.905
20
-26.4795
11
5.715
21
-26.4795
0
ARC
8
BLACK
10
5.715
20
-26.67
40
0.1905
50
270
51
450
0
ARC
8
BLACK
10
1.905
20
-26.67
40
0.1905
50
90
51
270
0
LINE
8
BLACK
10
1.905
20
-15.4305
11
5.715
21
-15.4305
0
LINE
8
BLACK
10
1.905
20
-15.0495
11
5.715
21
-15.0495
0
ARC
8
BLACK
10
5.715
20
-15.24
40
0.1905
50
270
51
450
0
ARC
8
BLACK
10
1.905
20
-15.24
40
0.1905
50
90
51
270
0
LINE
8
BLACK
10
4.0005
20
-29.845
11
4.0005
21
-8.255
0
LINE
8
BLACK
10
3.6195
20
-29.845
11
3.6195
21
-8.255
0
ARC
8
BLACK
10
3.81
20
-8.255
40
0.1905
50
360
51
540
0
ARC
8
BLACK
10
3.81
20
-29.845
40
0.1905
50
180
51
360
0
LINE
8
BLACK
10
21
20
-35.1905
11
23
21
-35.1905
0
LINE
8
BLACK
10
21
20
-34.8095
11
23
21
-34.8095
0
ARC
8
BLACK
10
23
20
-35
40
0.1905
50
270
51
450
0
ARC
8
BLACK
10
21
20
-35
40
0.1905
50
90
51
270
0
LINE
8
BLACK
10
22.1905
20
-36
11
22.1905
21
-34
0
LINE
8
BLACK
10
21.8095
20
-36
11
21.8095
21
-34
0
ARC
8
BLACK
10
22
20
-34
40
0.1905
50
360
51
540
0
ARC
8
BLACK
10
22
20
-36
40
0.1905
50
180
51
360
0
LINE
8
BLACK
10
4.1905
20
-36
11
4.1905
21
-34
0
LINE
8
BLACK
10
3.8095
20
-36
11
3.8095
21
-34
0
ARC
8
BLACK
10
4
20
-34
40
0.1905
50
360
51
540
0
ARC
8
BLACK
10
4
20
-36
40
0.1905
50
180
51
360
0
LINE
8
BLACK
10
3
20
-35.1905
11
5
21
-35.1905
0
LINE
8
BLACK
10
3
20
-34.8095
11
5
21
-34.8095
0
ARC
8
BLACK
10
5
20
-35
40
0.1905
50
270
51
450
0
ARC
8
BLACK
10
3
20
-35
40
0.1905
50
90
51
270
0
LINE
8
BLACK
10
22.1905
20
-5
11
22.1905
21
-3
0
LINE
8
BLACK
10
21.8095
20
-5
11
21.8095
21
-3
0
ARC
8
BLACK
10
22
20
-3
40
0.1905
50
360
51
540
0
ARC
8
BLACK
10
22
20
-5
40
0.1905
50
180
51
360
0
LINE
8
BLACK
10
21
20
-4.1905
11
23
21
-4.1905
0
LINE
8
BLACK
10
21
20
-3.8095
11
23
21
-3.8095
0
ARC
8
BLACK
10
23
20
-4
40
0.1905
50
270
51
450
0
ARC
8
BLACK
10
21
20
-4
40
0.1905
50
90
51
270
0
LINE
8
BLACK
10
4.1905
20
-5
11
4.1905
21
-3
0
LINE
8
BLACK
10
3.8095
20
-5
11
3.8095
21
-3
0
ARC
8
BLACK
10
4
20
-3
40
0.1905
50
360
51
540
0
ARC
8
BLACK
10
4
20
-5
40
0.1905
50
180
51
360
0
LINE
8
BLACK
10
3
20
-4.1905
11
5
21
-4.1905
0
LINE
8
BLACK
10
3
20
-3.8095
11
5
21
-3.8095
0
ARC
8
BLACK
10
5
20
-4
40
0.1905
50
270
51
450
0
ARC
8
BLACK
10
3
20
-4
40
0.1905
50
90
51
270
0
LINE
8
BLACK
10
0.1905
20
-39
11
0.1905
21
0
0
LINE
8
BLACK
10
-0.1905
20
-39
11
-0.1905
21
0
0
ARC
8
BLACK
10
0
20
0
40
0.1905
50
360
51
540
0
ARC
8
BLACK
10
0
20
-39
40
0.1905
50
180
51
360
0
LINE
8
BLACK
10
0
20
-39.1905
11
26
21
-39.1905
0
LINE
8
BLACK
10
0
20
-38.8095
11
26
21
-38.8095
0
ARC
8
BLACK
10
26
20
-39
40
0.1905
50
270
51
450
0
ARC
8
BLACK
10
0
20
-39
40
0.1905
50
90
51
270
0
LINE
8
BLACK
10
26.1905
20
-39
11
26.1905
21
0
0
LINE
8
BLACK
10
25.8095
20
-39
11
25.8095
21
0
0
ARC
8
BLACK
10
26
20
0
40
0.1905
50
360
51
540
0
ARC
8
BLACK
10
26
20
-39
40
0.1905
50
180
51
360
0
LINE
8
BLACK
10
0
20
-0.1905
11
26
21
-0.1905
0
LINE
8
BLACK
10
0
20
0.1905
11
26
21
0.1905
0
ARC
8
BLACK
10
26
20
0
40
0.1905
50
270
51
450
0
ARC
8
BLACK
10
0
20
0
40
0.1905
50
90
51
270
0
LINE
8
BLACK
10
13.5255
20
-35.56
11
13.5255
21
-33.02
0
LINE
8
BLACK
10
13.1445
20
-35.56
11
13.1445
21
-33.02
0
ARC
8
BLACK
10
13.335
20
-33.02
40
0.1905
50
360
51
540
0
ARC
8
BLACK
10
13.335
20
-35.56
40
0.1905
50
180
51
360
0
LINE
8
BLACK
10
12.065
20
-34.4805
11
14.605
21
-34.4805
0
LINE
8
BLACK
10
12.065
20
-34.0995
11
14.605
21
-34.0995
0
ARC
8
BLACK
10
14.605
20
-34.29
40
0.1905
50
270
51
450
0
ARC
8
BLACK
10
12.065
20
-34.29
40
0.1905
50
90
51
270
0
LINE
8
BLACK
10
12.065
20
-4.6355
11
14.605
21
-4.6355
0
LINE
8
BLACK
10
12.065
20
-4.2545
11
14.605
21
-4.2545
0
ARC
8
BLACK
10
14.605
20
-4.445
40
0.1905
50
270
51
450
0
ARC
8
BLACK
10
12.065
20
-4.445
40
0.1905
50
90
51
270
0
LINE
8
BLACK
10
13.5255
20
-5.715
11
13.5255
21
-3.175
0
LINE
8
BLACK
10
13.1445
20
-5.715
11
13.1445
21
-3.175
0
ARC
8
BLACK
10
13.335
20
-3.175
40
0.1905
50
360
51
540
0
ARC
8
BLACK
10
13.335
20
-5.715
40
0.1905
50
180
51
360
0
LINE
8
BLACK
10
30.0934
20
-6.86229
11
31.4481
21
-6.86229
0
LINE
8
BLACK
10
29.3193
20
-7.22514
11
30.7707
21
-7.588
0
LINE
8
BLACK
10
30.7707
20
-7.588
11
30.7707
21
-6.64457
0
LINE
8
BLACK
10
31.2546
20
-6.064
11
31.3513
21
-5.99143
0
LINE
8
BLACK
10
31.3513
20
-5.99143
11
31.4481
21
-6.064
0
LINE
8
BLACK
10
31.4481
20
-6.064
11
31.3513
21
-6.13657
0
LINE
8
BLACK
10
31.3513
20
-6.13657
11
31.2546
21
-6.064
0
LINE
8
BLACK
10
31.2546
20
-6.064
11
31.4481
21
-6.064
0
LINE
8
BLACK
10
29.4161
20
-5.048
11
29.4161
21
-4.90286
0
LINE
8
BLACK
10
29.4161
20
-4.90286
11
29.5128
21
-4.75771
0
LINE
8
BLACK
10
29.5128
20
-4.75771
11
29.6096
21
-4.68514
0
LINE
8
BLACK
10
29.6096
20
-4.68514
11
29.8031
21
-4.61257
0
LINE
8
BLACK
10
29.8031
20
-4.61257
11
30.1902
21
-4.54
0
LINE
8
BLACK
10
30.1902
20
-4.54
11
30.674
21
-4.54
0
LINE
8
BLACK
10
30.674
20
-4.54
11
31.061
21
-4.61257
0
LINE
8
BLACK
10
31.061
20
-4.61257
11
31.2546
21
-4.68514
0
LINE
8
BLACK
10
31.2546
20
-4.68514
11
31.3513
21
-4.75771
0
LINE
8
BLACK
10
31.3513
20
-4.75771
11
31.4481
21
-4.90286
0
LINE
8
BLACK
10
31.4481
20
-4.90286
11
31.4481
21
-5.048
0
LINE
8
BLACK
10
31.4481
20
-5.048
11
31.3513
21
-5.19314
0
LINE
8
BLACK
10
31.3513
20
-5.19314
11
31.2546
21
-5.26571
0
LINE
8
BLACK
10
31.2546
20
-5.26571
11
31.061
21
-5.33829
0
LINE
8
BLACK
10
31.061
20
-5.33829
11
30.674
21
-5.41086
0
LINE
8
BLACK
10
30.674
20
-5.41086
11
30.1902
21
-5.41086
0
LINE
8
BLACK
10
30.1902
20
-5.41086
11
29.8031
21
-5.33829
0
LINE
8
BLACK
10
29.8031
20
-5.33829
11
29.6096
21
-5.26571
0
LINE
8
BLACK
10
29.6096
20
-5.26571
11
29.5128
21
-5.19314
0
LINE
8
BLACK
10
29.5128
20
-5.19314
11
29.4161
21
-5.048
0
LINE
8
BLACK
10
29.4161
20
-3.59657
11
29.4161
21
-3.45143
0
LINE
8
BLACK
10
29.4161
20
-3.45143
11
29.5128
21
-3.30629
0
LINE
8
BLACK
10
29.5128
20
-3.30629
11
29.6096
21
-3.23371
0
LINE
8
BLACK
10
29.6096
20
-3.23371
11
29.8031
21
-3.16114
0
LINE
8
BLACK
10
29.8031
20
-3.16114
11
30.1902
21
-3.08857
0
LINE
8
BLACK
10
30.1902
20
-3.08857
11
30.674
21
-3.08857
0
LINE
8
BLACK
10
30.674
20
-3.08857
11
31.061
21
-3.16114
0
LINE
8
BLACK
10
31.061
20
-3.16114
11
31.2546
21
-3.23371
0
LINE
8
BLACK
10
31.2546
20
-3.23371
11
31.3513
21
-3.30629
0
LINE
8
BLACK
10
31.3513
20
-3.30629
11
31.4481
21
-3.45143
0
LINE
8
BLACK
10
31.4481
20
-3.45143
11
31.4481
21
-3.59657
0
LINE
8
BLACK
10
31.4481
20
-3.59657
11
31.3513
21
-3.74171
0
LINE
8
BLACK
10
31.3513
20
-3.74171
11
31.2546
21
-3.81429
0
LINE
8
BLACK
10
31.2546
20
-3.81429
11
31.061
21
-3.88686
0
LINE
8
BLACK
10
31.061
20
-3.88686
11
30.674
21
-3.95943
0
LINE
8
BLACK
10
30.674
20
-3.95943
11
30.1902
21
-3.95943
0
LINE
8
BLACK
10
30.1902
20
-3.95943
11
29.8031
21
-3.88686
0
LINE
8
BLACK
10
29.8031
20
-3.88686
11
29.6096
21
-3.81429
0
LINE
8
BLACK
10
29.6096
20
-3.81429
11
29.5128
21
-3.74171
0
LINE
8
BLACK
10
29.5128
20
-3.74171
11
29.4161
21
-3.59657
0
LINE
8
BLACK
10
29.4161
20
-2.14514
11
29.4161
21
-2
0
LINE
8
BLACK
10
29.4161
20
-2
11
29.5128
21
-1.85486
0
LINE
8
BLACK
10
29.5128
20
-1.85486
11
29.6096
21
-1.78229
0
LINE
8
BLACK
10
29.6096
20
-1.78229
11
29.8031
21
-1.70971
0
LINE
8
BLACK
10
29.8031
20
-1.70971
11
30.1902
21
-1.63714
0
LINE
8
BLACK
10
30.1902
20
-1.63714
11
30.674
21
-1.63714
0
LINE
8
BLACK
10
30.674
20
-1.63714
11
31.061
21
-1.70971
0
LINE
8
BLACK
10
31.061
20
-1.70971
11
31.2546
21
-1.78229
0
LINE
8
BLACK
10
31.2546
20
-1.78229
11
31.3513
21
-1.85486
0
LINE
8
BLACK
10
31.3513
20
-1.85486
11
31.4481
21
-2
0
LINE
8
BLACK
10
31.4481
20
-2
11
31.4481
21
-2.14514
0
LINE
8
BLACK
10
31.4481
20
-2.14514
11
31.3513
21
-2.29029
0
LINE
8
BLACK
10
31.3513
20
-2.29029
11
31.2546
21
-2.36286
0
LINE
8
BLACK
10
31.2546
20
-2.36286
11
31.061
21
-2.43543
0
LINE
8
BLACK
10
31.061
20
-2.43543
11
30.674
21
-2.508
0
LINE
8
BLACK
10
30.674
20
-2.508
11
30.1902
21
-2.508
0
LINE
8
BLACK
10
30.1902
20
-2.508
11
29.8031
21
-2.43543
0
LINE
8
BLACK
10
29.8031
20
-2.43543
11
29.6096
21
-2.36286
0
LINE
8
BLACK
10
29.6096
20
-2.36286
11
29.5128
21
-2.29029
0
LINE
8
BLACK
10
29.5128
20
-2.29029
11
29.4161
21
-2.14514
0
LINE
8
BLACK
10
31.4481
20
0.177144
11
30.0934
21
0.177144
0
LINE
8
BLACK
10
30.2869
20
0.177144
11
30.1902
21
0.249716
0
LINE
8
BLACK
10
30.1902
20
0.249716
11
30.0934
21
0.394858
0
LINE
8
BLACK
10
30.0934
20
0.394858
11
30.0934
21
0.612573
0
LINE
8
BLACK
10
30.0934
20
0.612573
11
30.1902
21
0.757716
0
LINE
8
BLACK
10
30.1902
20
0.757716
11
30.3837
21
0.830287
0
LINE
8
BLACK
10
30.3837
20
0.830287
11
31.4481
21
0.830287
0
LINE
8
BLACK
10
30.3837
20
0.830287
11
30.1902
21
0.902858
0
LINE
8
BLACK
10
30.1902
20
0.902858
11
30.0934
21
1.048
0
LINE
8
BLACK
10
30.0934
20
1.048
11
30.0934
21
1.26572
0
LINE
8
BLACK
10
30.0934
20
1.26572
11
30.1902
21
1.41086
0
LINE
8
BLACK
10
30.1902
20
1.41086
11
30.3837
21
1.48343
0
LINE
8
BLACK
10
30.3837
20
1.48343
11
31.4481
21
1.48343
0
LINE
8
BLACK
10
31.4481
20
2.20914
11
30.0934
21
2.20914
0
LINE
8
BLACK
10
30.2869
20
2.20914
11
30.1902
21
2.28172
0
LINE
8
BLACK
10
30.1902
20
2.28172
11
30.0934
21
2.42686
0
LINE
8
BLACK
10
30.0934
20
2.42686
11
30.0934
21
2.64457
0
LINE
8
BLACK
10
30.0934
20
2.64457
11
30.1902
21
2.78972
0
LINE
8
BLACK
10
30.1902
20
2.78972
11
30.3837
21
2.86229
0
LINE
8
BLACK
10
30.3837
20
2.86229
11
31.4481
21
2.86229
0
LINE
8
BLACK
10
30.3837
20
2.86229
11
30.1902
21
2.93486
0
LINE
8
BLACK
10
30.1902
20
2.93486
11
30.0934
21
3.08
0
LINE
8
BLACK
10
30.0934
20
3.08
11
30.0934
21
3.29772
0
LINE
8
BLACK
10
30.0934
20
3.29772
11
30.1902
21
3.44286
0
LINE
8
BLACK
10
30.1902
20
3.44286
11
30.3837
21
3.51543
0
LINE
8
BLACK
10
30.3837
20
3.51543
11
31.4481
21
3.51543
0
LINE
8
BLACK
10
29.1524
20
-4
11
29.1524
21
0
0
LINE
8
BLACK
10
28.8476
20
-4
11
28.8476
21
0
0
ARC
8
BLACK
10
29
20
0
40
0.1524
50
360
51
540
0
ARC
8
BLACK
10
29
20
-4
40
0.1524
50
180
51
360
0
LINE
8
BLACK
10
28
20
-4.1524
11
32.2512
21
-4.1524
0
LINE
8
BLACK
10
28
20
-3.8476
11
32.2512
21
-3.8476
0
ARC
8
BLACK
10
32.2512
20
-4
40
0.1524
50
270
51
450
0
ARC
8
BLACK
10
28
20
-4
40
0.1524
50
90
51
270
0
LINE
8
BLACK
10
28
20
-0.1524
11
32.2512
21
-0.1524
0
LINE
8
BLACK
10
28
20
0.1524
11
32.2512
21
0.1524
0
ARC
8
BLACK
10
32.2512
20
0
40
0.1524
50
270
51
450
0
ARC
8
BLACK
10
28
20
0
40
0.1524
50
90
51
270
0
LINE
8
BLACK
10
28.8648
20
-0.07037
11
29.4512
21
-1.19687
0
LINE
8
BLACK
10
29.1352
20
0.07037
11
29.7216
21
-1.05613
0
ARC
8
BLACK
10
29.5864
20
-1.1265
40
0.1524
50
207.5
51
387.5
0
ARC
8
BLACK
10
29
20
0
40
0.1524
50
27.5
51
207.5
0
LINE
8
BLACK
10
28.8637
20
0.070645
11
28.2793
21
-1.05688
0
LINE
8
BLACK
10
29.1343
20
-0.069624
11
28.5499
21
-1.19715
0
ARC
8
BLACK
10
28.4146
20
-1.12701
40
0.1524
50
152.6
51
332.6
0
ARC
8
BLACK
10
28.999
20
0.000511
40
0.1524
50
-27.4
51
152.6
0
LINE
8
BLACK
10
29.1352
20
-4.07037
11
29.7216
21
-2.94387
0
LINE
8
BLACK
10
28.8648
20
-3.92963
11
29.4512
21
-2.80313
0
ARC
8
BLACK
10
29.5864
20
-2.8735
40
0.1524
50
332.5
51
512.5
0
ARC
8
BLACK
10
29
20
-4
40
0.1524
50
152.5
51
332.5
0
LINE
8
BLACK
10
29.1343
20
-3.93038
11
28.5499
21
-2.80285
0
LINE
8
BLACK
10
28.8637
20
-4.07064
11
28.2793
21
-2.94312
0
ARC
8
BLACK
10
28.4146
20
-2.87299
40
0.1524
50
387.4
51
567.4
0
ARC
8
BLACK
10
28.999
20
-4.00051
40
0.1524
50
207.4
51
387.4
0
LINE
8
BLACK
10
6.68629
20
11.6416
11
6.75886
21
11.7384
0
LINE
8
BLACK
10
6.75886
20
11.7384
11
6.904
21
11.8351
0
LINE
8
BLACK
10
6.904
20
11.8351
11
7.26686
21
11.8351
0
LINE
8
BLACK
10
7.26686
20
11.8351
11
7.412
21
11.7384
0
LINE
8
BLACK
10
7.412
20
11.7384
11
7.48457
21
11.6416
0
LINE
8
BLACK
10
7.48457
20
11.6416
11
7.55714
21
11.4481
0
LINE
8
BLACK
10
7.55714
20
11.4481
11
7.55714
21
11.2546
0
LINE
8
BLACK
10
7.55714
20
11.2546
11
7.48457
21
10.9643
0
LINE
8
BLACK
10
7.48457
20
10.9643
11
6.61371
21
9.80312
0
LINE
8
BLACK
10
6.61371
20
9.80312
11
7.55714
21
9.80312
0
LINE
8
BLACK
10
8.86343
20
11.8351
11
8.57314
21
11.8351
0
LINE
8
BLACK
10
8.57314
20
11.8351
11
8.428
21
11.7384
0
LINE
8
BLACK
10
8.428
20
11.7384
11
8.35543
21
11.6416
0
LINE
8
BLACK
10
8.35543
20
11.6416
11
8.21029
21
11.3513
0
LINE
8
BLACK
10
8.21029
20
11.3513
11
8.13771
21
10.9643
0
LINE
8
BLACK
10
8.13771
20
10.9643
11
8.13771
21
10.1902
0
LINE
8
BLACK
10
8.13771
20
10.1902
11
8.21029
21
9.99665
0
LINE
8
BLACK
10
8.21029
20
9.99665
11
8.28286
21
9.89989
0
LINE
8
BLACK
10
8.28286
20
9.89989
11
8.428
21
9.80312
0
LINE
8
BLACK
10
8.428
20
9.80312
11
8.71829
21
9.80312
0
LINE
8
BLACK
10
8.71829
20
9.80312
11
8.86343
21
9.89989
0
LINE
8
BLACK
10
8.86343
20
9.89989
11
8.936
21
9.99665
0
LINE
8
BLACK
10
8.936
20
9.99665
11
9.00857
21
10.1902
0
LINE
8
BLACK
10
9.00857
20
10.1902
11
9.00857
21
10.674
0
LINE
8
BLACK
10
9.00857
20
10.674
11
8.936
21
10.8675
0
LINE
8
BLACK
10
8.936
20
10.8675
11
8.86343
21
10.9643
0
LINE
8
BLACK
10
8.86343
20
10.9643
11
8.71829
21
11.061
0
LINE
8
BLACK
10
8.71829
20
11.061
11
8.428
21
11.061
0
LINE
8
BLACK
10
8.428
20
11.061
11
8.28286
21
10.9643
0
LINE
8
BLACK
10
8.28286
20
10.9643
11
8.21029
21
10.8675
0
LINE
8
BLACK
10
8.21029
20
10.8675
11
8.13771
21
10.674
0
LINE
8
BLACK
10
9.66171
20
9.99665
11
9.73429
21
9.89989
0
LINE
8
BLACK
10
9.73429
20
9.89989
11
9.66171
21
9.80312
0
LINE
8
BLACK
10
9.66171
20
9.80312
11
9.58914
21
9.89989
0
LINE
8
BLACK
10
9.58914
20
9.89989
11
9.66171
21
9.99665
0
LINE
8
BLACK
10
9.66171
20
9.99665
11
9.66171
21
9.80312
0
LINE
8
BLACK
10
10.6777
20
11.8351
11
10.8229
21
11.8351
0
LINE
8
BLACK
10
10.8229
20
11.8351
11
10.968
21
11.7384
0
LINE
8
BLACK
10
10.968
20
11.7384
11
11.0406
21
11.6416
0
LINE
8
BLACK
10
11.0406
20
11.6416
11
11.1131
21
11.4481
0
LINE
8
BLACK
10
11.1131
20
11.4481
11
11.1857
21
11.061
0
LINE
8
BLACK
10
11.1857
20
11.061
11
11.1857
21
10.5772
0
LINE
8
BLACK
10
11.1857
20
10.5772
11
11.1131
21
10.1902
0
LINE
8
BLACK
10
11.1131
20
10.1902
11
11.0406
21
9.99665
0
LINE
8
BLACK
10
11.0406
20
9.99665
11
10.968
21
9.89989
0
LINE
8
BLACK
10
10.968
20
9.89989
11
10.8229
21
9.80312
0
LINE
8
BLACK
10
10.8229
20
9.80312
11
10.6777
21
9.80312
0
LINE
8
BLACK
10
10.6777
20
9.80312
11
10.5326
21
9.89989
0
LINE
8
BLACK
10
10.5326
20
9.89989
11
10.46
21
9.99665
0
LINE
8
BLACK
10
10.46
20
9.99665
11
10.3874
21
10.1902
0
LINE
8
BLACK
10
10.3874
20
10.1902
11
10.3149
21
10.5772
0
LINE
8
BLACK
10
10.3149
20
10.5772
11
10.3149
21
11.061
0
LINE
8
BLACK
10
10.3149
20
11.061
11
10.3874
21
11.4481
0
LINE
8
BLACK
10
10.3874
20
11.4481
11
10.46
21
11.6416
0
LINE
8
BLACK
10
10.46
20
11.6416
11
10.5326
21
11.7384
0
LINE
8
BLACK
10
10.5326
20
11.7384
11
10.6777
21
11.8351
0
LINE
8
BLACK
10
12.1291
20
11.8351
11
12.2743
21
11.8351
0
LINE
8
BLACK
10
12.2743
20
11.8351
11
12.4194
21
11.7384
0
LINE
8
BLACK
10
12.4194
20
11.7384
11
12.492
21
11.6416
0
LINE
8
BLACK
10
12.492
20
11.6416
11
12.5646
21
11.4481
0
LINE
8
BLACK
10
12.5646
20
11.4481
11
12.6371
21
11.061
0
LINE
8
BLACK
10
12.6371
20
11.061
11
12.6371
21
10.5772
0
LINE
8
BLACK
10
12.6371
20
10.5772
11
12.5646
21
10.1902
0
LINE
8
BLACK
10
12.5646
20
10.1902
11
12.492
21
9.99665
0
LINE
8
BLACK
10
12.492
20
9.99665
11
12.4194
21
9.89989
0
LINE
8
BLACK
10
12.4194
20
9.89989
11
12.2743
21
9.80312
0
LINE
8
BLACK
10
12.2743
20
9.80312
11
12.1291
21
9.80312
0
LINE
8
BLACK
10
12.1291
20
9.80312
11
11.984
21
9.89989
0
LINE
8
BLACK
10
11.984
20
9.89989
11
11.9114
21
9.99665
0
LINE
8
BLACK
10
11.9114
20
9.99665
11
11.8389
21
10.1902
0
LINE
8
BLACK
10
11.8389
20
10.1902
11
11.7663
21
10.5772
0
LINE
8
BLACK
10
11.7663
20
10.5772
11
11.7663
21
11.061
0
LINE
8
BLACK
10
11.7663
20
11.061
11
11.8389
21
11.4481
0
LINE
8
BLACK
10
11.8389
20
11.4481
11
11.9114
21
11.6416
0
LINE
8
BLACK
10
11.9114
20
11.6416
11
11.984
21
11.7384
0
LINE
8
BLACK
10
11.984
20
11.7384
11
12.1291
21
11.8351
0
LINE
8
BLACK
10
13.5806
20
11.8351
11
13.7257
21
11.8351
0
LINE
8
BLACK
10
13.7257
20
11.8351
11
13.8709
21
11.7384
0
LINE
8
BLACK
10
13.8709
20
11.7384
11
13.9434
21
11.6416
0
LINE
8
BLACK
10
13.9434
20
11.6416
11
14.016
21
11.4481
0
LINE
8
BLACK
10
14.016
20
11.4481
11
14.0886
21
11.061
0
LINE
8
BLACK
10
14.0886
20
11.061
11
14.0886
21
10.5772
0
LINE
8
BLACK
10
14.0886
20
10.5772
11
14.016
21
10.1902
0
LINE
8
BLACK
10
14.016
20
10.1902
11
13.9434
21
9.99665
0
LINE
8
BLACK
10
13.9434
20
9.99665
11
13.8709
21
9.89989
0
LINE
8
BLACK
10
13.8709
20
9.89989
11
13.7257
21
9.80312
0
LINE
8
BLACK
10
13.7257
20
9.80312
11
13.5806
21
9.80312
0
LINE
8
BLACK
10
13.5806
20
9.80312
11
13.4354
21
9.89989
0
LINE
8
BLACK
10
13.4354
20
9.89989
11
13.3629
21
9.99665
0
LINE
8
BLACK
10
13.3629
20
9.99665
11
13.2903
21
10.1902
0
LINE
8
BLACK
10
13.2903
20
10.1902
11
13.2177
21
10.5772
0
LINE
8
BLACK
10
13.2177
20
10.5772
11
13.2177
21
11.061
0
LINE
8
BLACK
10
13.2177
20
11.061
11
13.2903
21
11.4481
0
LINE
8
BLACK
10
13.2903
20
11.4481
11
13.3629
21
11.6416
0
LINE
8
BLACK
10
13.3629
20
11.6416
11
13.4354
21
11.7384
0
LINE
8
BLACK
10
13.4354
20
11.7384
11
13.5806
21
11.8351
0
LINE
8
BLACK
10
15.9029
20
9.80312
11
15.9029
21
11.1578
0
LINE
8
BLACK
10
15.9029
20
10.9643
11
15.9754
21
11.061
0
LINE
8
BLACK
10
15.9754
20
11.061
11
16.1206
21
11.1578
0
LINE
8
BLACK
10
16.1206
20
11.1578
11
16.3383
21
11.1578
0
LINE
8
BLACK
10
16.3383
20
11.1578
11
16.4834
21
11.061
0
LINE
8
BLACK
10
16.4834
20
11.061
11
16.556
21
10.8675
0
LINE
8
BLACK
10
16.556
20
10.8675
11
16.556
21
9.80312
0
LINE
8
BLACK
10
16.556
20
10.8675
11
16.6286
21
11.061
0
LINE
8
BLACK
10
16.6286
20
11.061
11
16.7737
21
11.1578
0
LINE
8
BLACK
10
16.7737
20
11.1578
11
16.9914
21
11.1578
0
LINE
8
BLACK
10
16.9914
20
11.1578
11
17.1366
21
11.061
0
LINE
8
BLACK
10
17.1366
20
11.061
11
17.2091
21
10.8675
0
LINE
8
BLACK
10
17.2091
20
10.8675
11
17.2091
21
9.80312
0
LINE
8
BLACK
10
17.9349
20
9.80312
11
17.9349
21
11.1578
0
LINE
8
BLACK
10
17.9349
20
10.9643
11
18.0074
21
11.061
0
LINE
8
BLACK
10
18.0074
20
11.061
11
18.1526
21
11.1578
0
LINE
8
BLACK
10
18.1526
20
11.1578
11
18.3703
21
11.1578
0
LINE
8
BLACK
10
18.3703
20
11.1578
11
18.5154
21
11.061
0
LINE
8
BLACK
10
18.5154
20
11.061
11
18.588
21
10.8675
0
LINE
8
BLACK
10
18.588
20
10.8675
11
18.588
21
9.80312
0
LINE
8
BLACK
10
18.588
20
10.8675
11
18.6606
21
11.061
0
LINE
8
BLACK
10
18.6606
20
11.061
11
18.8057
21
11.1578
0
LINE
8
BLACK
10
18.8057
20
11.1578
11
19.0234
21
11.1578
0
LINE
8
BLACK
10
19.0234
20
11.1578
11
19.1686
21
11.061
0
LINE
8
BLACK
10
19.1686
20
11.061
11
19.2411
21
10.8675
0
LINE
8
BLACK
10
19.2411
20
10.8675
11
19.2411
21
9.80312
0
LINE
8
BLACK
10
0
20
8.8476
11
26
21
8.8476
0
LINE
8
BLACK
10
0
20
9.1524
11
26
21
9.1524
0
ARC
8
BLACK
10
26
20
9
40
0.1524
50
270
51
450
0
ARC
8
BLACK
10
0
20
9
40
0.1524
50
90
51
270
0
LINE
8
BLACK
10
0.1524
20
-4
11
0.1524
21
12.2512
0
LINE
8
BLACK
10
-0.1524
20
-4
11
-0.1524
21
12.2512
0
ARC
8
BLACK
10
0
20
12.2512
40
0.1524
50
360
51
540
0
ARC
8
BLACK
10
0
20
-4
40
0.1524
50
180
51
360
0
LINE
8
BLACK
10
26.1524
20
-4
11
26.1524
21
12.2512
0
LINE
8
BLACK
10
25.8476
20
-4
11
25.8476
21
12.2512
0
ARC
8
BLACK
10
26
20
12.2512
40
0.1524
50
360
51
540
0
ARC
8
BLACK
10
26
20
-4
40
0.1524
50
180
51
360
0
LINE
8
BLACK
10
25.9296
20
9.13518
11
24.8031
21
8.54876
0
LINE
8
BLACK
10
26.0704
20
8.86482
11
24.9439
21
8.2784
0
ARC
8
BLACK
10
24.8735
20
8.41358
40
0.1524
50
117.5
51
297.5
0
ARC
8
BLACK
10
26
20
9
40
0.1524
50
-62.5
51
117.5
0
LINE
8
BLACK
10
26.0704
20
9.13518
11
24.9439
21
9.7216
0
LINE
8
BLACK
10
25.9296
20
8.86482
11
24.8031
21
9.45124
0
ARC
8
BLACK
10
24.8735
20
9.58642
40
0.1524
50
422.5
51
602.5
0
ARC
8
BLACK
10
26
20
9
40
0.1524
50
242.5
51
422.5
0
LINE
8
BLACK
10
-0.070645
20
8.86371
11
1.05688
21
8.27926
0
LINE
8
BLACK
10
0.069624
20
9.13432
11
1.19715
21
8.54987
0
ARC
8
BLACK
10
1.12701
20
8.41456
40
0.1524
50
242.6
51
422.6
0
ARC
8
BLACK
10
-0.000511
20
8.99902
40
0.1524
50
62.6
51
242.6
0
LINE
8
BLACK
10
0.069624
20
8.86568
11
1.19715
21
9.45013
0
LINE
8
BLACK
10
-0.070645
20
9.13629
11
1.05688
21
9.72074
0
ARC
8
BLACK
10
1.12701
20
9.58544
40
0.1524
50
297.4
51
477.4
0
ARC
8
BLACK
10
-0.000511
20
9.00098
40
0.1524
50
117.4
51
297.4
0
LINE
8
BLACK
10
-2.86229
20
7.15779
11
-2.86229
21
5.80312
0
LINE
8
BLACK
10
-3.22514
20
7.93189
11
-3.588
21
6.48046
0
LINE
8
BLACK
10
-3.588
20
6.48046
11
-2.64457
21
6.48046
0
LINE
8
BLACK
10
-2.064
20
5.99665
11
-1.99143
21
5.89989
0
LINE
8
BLACK
10
-1.99143
20
5.89989
11
-2.064
21
5.80312
0
LINE
8
BLACK
10
-2.064
20
5.80312
11
-2.13657
21
5.89989
0
LINE
8
BLACK
10
-2.13657
20
5.89989
11
-2.064
21
5.99665
0
LINE
8
BLACK
10
-2.064
20
5.99665
11
-2.064
21
5.80312
0
LINE
8
BLACK
10
-1.048
20
7.83512
11
-0.902857
21
7.83512
0
LINE
8
BLACK
10
-0.902857
20
7.83512
11
-0.757714
21
7.73836
0
LINE
8
BLACK
10
-0.757714
20
7.73836
11
-0.685143
21
7.6416
0
LINE
8
BLACK
10
-0.685143
20
7.6416
11
-0.612572
21
7.44808
0
LINE
8
BLACK
10
-0.612572
20
7.44808
11
-0.54
21
7.06103
0
LINE
8
BLACK
10
-0.54
20
7.06103
11
-0.54
21
6.57722
0
LINE
8
BLACK
10
-0.54
20
6.57722
11
-0.612572
21
6.19017
0
LINE
8
BLACK
10
-0.612572
20
6.19017
11
-0.685143
21
5.99665
0
LINE
8
BLACK
10
-0.685143
20
5.99665
11
-0.757714
21
5.89989
0
LINE
8
BLACK
10
-0.757714
20
5.89989
11
-0.902857
21
5.80312
0
LINE
8
BLACK
10
-0.902857
20
5.80312
11
-1.048
21
5.80312
0
LINE
8
BLACK
10
-1.048
20
5.80312
11
-1.19314
21
5.89989
0
LINE
8
BLACK
10
-1.19314
20
5.89989
11
-1.26571
21
5.99665
0
LINE
8
BLACK
10
-1.26571
20
5.99665
11
-1.33829
21
6.19017
0
LINE
8
BLACK
10
-1.33829
20
6.19017
11
-1.41086
21
6.57722
0
LINE
8
BLACK
10
-1.41086
20
6.57722
11
-1.41086
21
7.06103
0
LINE
8
BLACK
10
-1.41086
20
7.06103
11
-1.33829
21
7.44808
0
LINE
8
BLACK
10
-1.33829
20
7.44808
11
-1.26571
21
7.6416
0
LINE
8
BLACK
10
-1.26571
20
7.6416
11
-1.19314
21
7.73836
0
LINE
8
BLACK
10
-1.19314
20
7.73836
11
-1.048
21
7.83512
0
LINE
8
BLACK
10
0.403429
20
7.83512
11
0.548572
21
7.83512
0
LINE
8
BLACK
10
0.548572
20
7.83512
11
0.693715
21
7.73836
0
LINE
8
BLACK
10
0.693715
20
7.73836
11
0.766286
21
7.6416
0
LINE
8
BLACK
10
0.766286
20
7.6416
11
0.838857
21
7.44808
0
LINE
8
BLACK
10
0.838857
20
7.44808
11
0.911429
21
7.06103
0
LINE
8
BLACK
10
0.911429
20
7.06103
11
0.911429
21
6.57722
0
LINE
8
BLACK
10
0.911429
20
6.57722
11
0.838857
21
6.19017
0
LINE
8
BLACK
10
0.838857
20
6.19017
11
0.766286
21
5.99665
0
LINE
8
BLACK
10
0.766286
20
5.99665
11
0.693715
21
5.89989
0
LINE
8
BLACK
10
0.693715
20
5.89989
11
0.548572
21
5.80312
0
LINE
8
BLACK
10
0.548572
20
5.80312
11
0.403429
21
5.80312
0
LINE
8
BLACK
10
0.403429
20
5.80312
11
0.258286
21
5.89989
0
LINE
8
BLACK
10
0.258286
20
5.89989
11
0.185715
21
5.99665
0
LINE
8
BLACK
10
0.185715
20
5.99665
11
0.113143
21
6.19017
0
LINE
8
BLACK
10
0.113143
20
6.19017
11
0.040572
21
6.57722
0
LINE
8
BLACK
10
0.040572
20
6.57722
11
0.040572
21
7.06103
0
LINE
8
BLACK
10
0.040572
20
7.06103
11
0.113143
21
7.44808
0
LINE
8
BLACK
10
0.113143
20
7.44808
11
0.185715
21
7.6416
0
LINE
8
BLACK
10
0.185715
20
7.6416
11
0.258286
21
7.73836
0
LINE
8
BLACK
10
0.258286
20
7.73836
11
0.403429
21
7.83512
0
LINE
8
BLACK
10
1.85486
20
7.83512
11
2
21
7.83512
0
LINE
8
BLACK
10
2
20
7.83512
11
2.14514
21
7.73836
0
LINE
8
BLACK
10
2.14514
20
7.73836
11
2.21772
21
7.6416
0
LINE
8
BLACK
10
2.21772
20
7.6416
11
2.29029
21
7.44808
0
LINE
8
BLACK
10
2.29029
20
7.44808
11
2.36286
21
7.06103
0
LINE
8
BLACK
10
2.36286
20
7.06103
11
2.36286
21
6.57722
0
LINE
8
BLACK
10
2.36286
20
6.57722
11
2.29029
21
6.19017
0
LINE
8
BLACK
10
2.29029
20
6.19017
11
2.21772
21
5.99665
0
LINE
8
BLACK
10
2.21772
20
5.99665
11
2.14514
21
5.89989
0
LINE
8
BLACK
10
2.14514
20
5.89989
11
2
21
5.80312
0
LINE
8
BLACK
10
2
20
5.80312
11
1.85486
21
5.80312
0
LINE
8
BLACK
10
1.85486
20
5.80312
11
1.70972
21
5.89989
0
LINE
8
BLACK
10
1.70972
20
5.89989
11
1.63714
21
5.99665
0
LINE
8
BLACK
10
1.63714
20
5.99665
11
1.56457
21
6.19017
0
LINE
8
BLACK
10
1.56457
20
6.19017
11
1.492
21
6.57722
0
LINE
8
BLACK
10
1.492
20
6.57722
11
1.492
21
7.06103
0
LINE
8
BLACK
10
1.492
20
7.06103
11
1.56457
21
7.44808
0
LINE
8
BLACK
10
1.56457
20
7.44808
11
1.63714
21
7.6416
0
LINE
8
BLACK
10
1.63714
20
7.6416
11
1.70972
21
7.73836
0
LINE
8
BLACK
10
1.70972
20
7.73836
11
1.85486
21
7.83512
0
LINE
8
BLACK
10
4.17714
20
5.80312
11
4.17714
21
7.15779
0
LINE
8
BLACK
10
4.17714
20
6.96427
11
4.24972
21
7.06103
0
LINE
8
BLACK
10
4.24972
20
7.06103
11
4.39486
21
7.15779
0
LINE
8
BLACK
10
4.39486
20
7.15779
11
4.61257
21
7.15779
0
LINE
8
BLACK
10
4.61257
20
7.15779
11
4.75772
21
7.06103
0
LINE
8
BLACK
10
4.75772
20
7.06103
11
4.83029
21
6.8675
0
LINE
8
BLACK
10
4.83029
20
6.8675
11
4.83029
21
5.80312
0
LINE
8
BLACK
10
4.83029
20
6.8675
11
4.90286
21
7.06103
0
LINE
8
BLACK
10
4.90286
20
7.06103
11
5.048
21
7.15779
0
LINE
8
BLACK
10
5.048
20
7.15779
11
5.26572
21
7.15779
0
LINE
8
BLACK
10
5.26572
20
7.15779
11
5.41086
21
7.06103
0
LINE
8
BLACK
10
5.41086
20
7.06103
11
5.48343
21
6.8675
0
LINE
8
BLACK
10
5.48343
20
6.8675
11
5.48343
21
5.80312
0
LINE
8
BLACK
10
6.20914
20
5.80312
11
6.20914
21
7.15779
0
LINE
8
BLACK
10
6.20914
20
6.96427
11
6.28172
21
7.06103
0
LINE
8
BLACK
10
6.28172
20
7.06103
11
6.42686
21
7.15779
0
LINE
8
BLACK
10
6.42686
20
7.15779
11
6.64457
21
7.15779
0
LINE
8
BLACK
10
6.64457
20
7.15779
11
6.78972
21
7.06103
0
LINE
8
BLACK
10
6.78972
20
7.06103
11
6.86229
21
6.8675
0
LINE
8
BLACK
10
6.86229
20
6.8675
11
6.86229
21
5.80312
0
LINE
8
BLACK
10
6.86229
20
6.8675
11
6.93486
21
7.06103
0
LINE
8
BLACK
10
6.93486
20
7.06103
11
7.08
21
7.15779
0
LINE
8
BLACK
10
7.08
20
7.15779
11
7.29772
21
7.15779
0
LINE
8
BLACK
10
7.29772
20
7.15779
11
7.44286
21
7.06103
0
LINE
8
BLACK
10
7.44286
20
7.06103
11
7.51543
21
6.8675
0
LINE
8
BLACK
10
7.51543
20
6.8675
11
7.51543
21
5.80312
0
LINE
8
BLACK
10
0
20
4.8476
11
4
21
4.8476
0
LINE
8
BLACK
10
0
20
5.1524
11
4
21
5.1524
0
ARC
8
BLACK
10
4
20
5
40
0.1524
50
270
51
450
0
ARC
8
BLACK
10
0
20
5
40
0.1524
50
90
51
270
0
LINE
8
BLACK
10
0.1524
20
-4
11
0.1524
21
8.2512
0
LINE
8
BLACK
10
-0.1524
20
-4
11
-0.1524
21
8.2512
0
ARC
8
BLACK
10
0
20
8.2512
40
0.1524
50
360
51
540
0
ARC
8
BLACK
10
0
20
-4
40
0.1524
50
180
51
360
0
LINE
8
BLACK
10
4.1524
20
-4
11
4.1524
21
8.2512
0
LINE
8
BLACK
10
3.8476
20
-4
11
3.8476
21
8.2512
0
ARC
8
BLACK
10
4
20
8.2512
40
0.1524
50
360
51
540
0
ARC
8
BLACK
10
4
20
-4
40
0.1524
50
180
51
360
0
LINE
8
BLACK
10
3.92963
20
5.13518
11
2.80313
21
4.54876
0
LINE
8
BLACK
10
4.07037
20
4.86482
11
2.94387
21
4.2784
0
ARC
8
BLACK
10
2.8735
20
4.41358
40
0.1524
50
117.5
51
297.5
0
ARC
8
BLACK
10
4
20
5
40
0.1524
50
-62.5
51
117.5
0
LINE
8
BLACK
10
4.07037
20
5.13518
11
2.94387
21
5.7216
0
LINE
8
BLACK
10
3.92963
20
4.86482
11
2.80313
21
5.45124
0
ARC
8
BLACK
10
2.8735
20
5.58642
40
0.1524
50
422.5
51
602.5
0
ARC
8
BLACK
10
4
20
5
40
0.1524
50
242.5
51
422.5
0
LINE
8
BLACK
10
-0.070645
20
4.86371
11
1.05688
21
4.27926
0
LINE
8
BLACK
10
0.069624
20
5.13432
11
1.19715
21
4.54987
0
ARC
8
BLACK
10
1.12701
20
4.41456
40
0.1524
50
242.6
51
422.6
0
ARC
8
BLACK
10
-0.000511
20
4.99902
40
0.1524
50
62.6
51
242.6
0
LINE
8
BLACK
10
0.069624
20
4.86568
11
1.19715
21
5.45013
0
LINE
8
BLACK
10
-0.070645
20
5.13629
11
1.05688
21
5.72074
0
ARC
8
BLACK
10
1.12701
20
5.58544
40
0.1524
50
297.4
51
477.4
0
ARC
8
BLACK
10
-0.000511
20
5.00098
40
0.1524
50
117.4
51
297.4
0
LINE
8
BLACK
10
7.55714
20
2.80312
11
6.68629
21
2.80312
0
LINE
8
BLACK
10
7.12171
20
2.80312
11
7.12171
21
4.83512
0
LINE
8
BLACK
10
7.12171
20
4.83512
11
6.97657
21
4.54484
0
LINE
8
BLACK
10
6.97657
20
4.54484
11
6.83143
21
4.35131
0
LINE
8
BLACK
10
6.83143
20
4.35131
11
6.68629
21
4.25455
0
LINE
8
BLACK
10
8.428
20
3.96427
11
8.28286
21
4.06103
0
LINE
8
BLACK
10
8.28286
20
4.06103
11
8.21029
21
4.15779
0
LINE
8
BLACK
10
8.21029
20
4.15779
11
8.13771
21
4.35131
0
LINE
8
BLACK
10
8.13771
20
4.35131
11
8.13771
21
4.44808
0
LINE
8
BLACK
10
8.13771
20
4.44808
11
8.21029
21
4.6416
0
LINE
8
BLACK
10
8.21029
20
4.6416
11
8.28286
21
4.73836
0
LINE
8
BLACK
10
8.28286
20
4.73836
11
8.428
21
4.83512
0
LINE
8
BLACK
10
8.428
20
4.83512
11
8.71829
21
4.83512
0
LINE
8
BLACK
10
8.71829
20
4.83512
11
8.86343
21
4.73836
0
LINE
8
BLACK
10
8.86343
20
4.73836
11
8.936
21
4.6416
0
LINE
8
BLACK
10
8.936
20
4.6416
11
9.00857
21
4.44808
0
LINE
8
BLACK
10
9.00857
20
4.44808
11
9.00857
21
4.35131
0
LINE
8
BLACK
10
9.00857
20
4.35131
11
8.936
21
4.15779
0
LINE
8
BLACK
10
8.936
20
4.15779
11
8.86343
21
4.06103
0
LINE
8
BLACK
10
8.86343
20
4.06103
11
8.71829
21
3.96427
0
LINE
8
BLACK
10
8.71829
20
3.96427
11
8.428
21
3.96427
0
LINE
8
BLACK
10
8.428
20
3.96427
11
8.28286
21
3.8675
0
LINE
8
BLACK
10
8.28286
20
3.8675
11
8.21029
21
3.77074
0
LINE
8
BLACK
10
8.21029
20
3.77074
11
8.13771
21
3.57722
0
LINE
8
BLACK
10
8.13771
20
3.57722
11
8.13771
21
3.19017
0
LINE
8
BLACK
10
8.13771
20
3.19017
11
8.21029
21
2.99665
0
LINE
8
BLACK
10
8.21029
20
2.99665
11
8.28286
21
2.89989
0
LINE
8
BLACK
10
8.28286
20
2.89989
11
8.428
21
2.80312
0
LINE
8
BLACK
10
8.428
20
2.80312
11
8.71829
21
2.80312
0
LINE
8
BLACK
10
8.71829
20
2.80312
11
8.86343
21
2.89989
0
LINE
8
BLACK
10
8.86343
20
2.89989
11
8.936
21
2.99665
0
LINE
8
BLACK
10
8.936
20
2.99665
11
9.00857
21
3.19017
0
LINE
8
BLACK
10
9.00857
20
3.19017
11
9.00857
21
3.57722
0
LINE
8
BLACK
10
9.00857
20
3.57722
11
8.936
21
3.77074
0
LINE
8
BLACK
10
8.936
20
3.77074
11
8.86343
21
3.8675
0
LINE
8
BLACK
10
8.86343
20
3.8675
11
8.71829
21
3.96427
0
LINE
8
BLACK
10
9.66171
20
2.99665
11
9.73429
21
2.89989
0
LINE
8
BLACK
10
9.73429
20
2.89989
11
9.66171
21
2.80312
0
LINE
8
BLACK
10
9.66171
20
2.80312
11
9.58914
21
2.89989
0
LINE
8
BLACK
10
9.58914
20
2.89989
11
9.66171
21
2.99665
0
LINE
8
BLACK
10
9.66171
20
2.99665
11
9.66171
21
2.80312
0
LINE
8
BLACK
10
10.6777
20
4.83512
11
10.8229
21
4.83512
0
LINE
8
BLACK
10
10.8229
20
4.83512
11
10.968
21
4.73836
0
LINE
8
BLACK
10
10.968
20
4.73836
11
11.0406
21
4.6416
0
LINE
8
BLACK
10
11.0406
20
4.6416
11
11.1131
21
4.44808
0
LINE
8
BLACK
10
11.1131
20
4.44808
11
11.1857
21
4.06103
0
LINE
8
BLACK
10
11.1857
20
4.06103
11
11.1857
21
3.57722
0
LINE
8
BLACK
10
11.1857
20
3.57722
11
11.1131
21
3.19017
0
LINE
8
BLACK
10
11.1131
20
3.19017
11
11.0406
21
2.99665
0
LINE
8
BLACK
10
11.0406
20
2.99665
11
10.968
21
2.89989
0
LINE
8
BLACK
10
10.968
20
2.89989
11
10.8229
21
2.80312
0
LINE
8
BLACK
10
10.8229
20
2.80312
11
10.6777
21
2.80312
0
LINE
8
BLACK
10
10.6777
20
2.80312
11
10.5326
21
2.89989
0
LINE
8
BLACK
10
10.5326
20
2.89989
11
10.46
21
2.99665
0
LINE
8
BLACK
10
10.46
20
2.99665
11
10.3874
21
3.19017
0
LINE
8
BLACK
10
10.3874
20
3.19017
11
10.3149
21
3.57722
0
LINE
8
BLACK
10
10.3149
20
3.57722
11
10.3149
21
4.06103
0
LINE
8
BLACK
10
10.3149
20
4.06103
11
10.3874
21
4.44808
0
LINE
8
BLACK
10
10.3874
20
4.44808
11
10.46
21
4.6416
0
LINE
8
BLACK
10
10.46
20
4.6416
11
10.5326
21
4.73836
0
LINE
8
BLACK
10
10.5326
20
4.73836
11
10.6777
21
4.83512
0
LINE
8
BLACK
10
12.1291
20
4.83512
11
12.2743
21
4.83512
0
LINE
8
BLACK
10
12.2743
20
4.83512
11
12.4194
21
4.73836
0
LINE
8
BLACK
10
12.4194
20
4.73836
11
12.492
21
4.6416
0
LINE
8
BLACK
10
12.492
20
4.6416
11
12.5646
21
4.44808
0
LINE
8
BLACK
10
12.5646
20
4.44808
11
12.6371
21
4.06103
0
LINE
8
BLACK
10
12.6371
20
4.06103
11
12.6371
21
3.57722
0
LINE
8
BLACK
10
12.6371
20
3.57722
11
12.5646
21
3.19017
0
LINE
8
BLACK
10
12.5646
20
3.19017
11
12.492
21
2.99665
0
LINE
8
BLACK
10
12.492
20
2.99665
11
12.4194
21
2.89989
0
LINE
8
BLACK
10
12.4194
20
2.89989
11
12.2743
21
2.80312
0
LINE
8
BLACK
10
12.2743
20
2.80312
11
12.1291
21
2.80312
0
LINE
8
BLACK
10
12.1291
20
2.80312
11
11.984
21
2.89989
0
LINE
8
BLACK
10
11.984
20
2.89989
11
11.9114
21
2.99665
0
LINE
8
BLACK
10
11.9114
20
2.99665
11
11.8389
21
3.19017
0
LINE
8
BLACK
10
11.8389
20
3.19017
11
11.7663
21
3.57722
0
LINE
8
BLACK
10
11.7663
20
3.57722
11
11.7663
21
4.06103
0
LINE
8
BLACK
10
11.7663
20
4.06103
11
11.8389
21
4.44808
0
LINE
8
BLACK
10
11.8389
20
4.44808
11
11.9114
21
4.6416
0
LINE
8
BLACK
10
11.9114
20
4.6416
11
11.984
21
4.73836
0
LINE
8
BLACK
10
11.984
20
4.73836
11
12.1291
21
4.83512
0
LINE
8
BLACK
10
13.5806
20
4.83512
11
13.7257
21
4.83512
0
LINE
8
BLACK
10
13.7257
20
4.83512
11
13.8709
21
4.73836
0
LINE
8
BLACK
10
13.8709
20
4.73836
11
13.9434
21
4.6416
0
LINE
8
BLACK
10
13.9434
20
4.6416
11
14.016
21
4.44808
0
LINE
8
BLACK
10
14.016
20
4.44808
11
14.0886
21
4.06103
0
LINE
8
BLACK
10
14.0886
20
4.06103
11
14.0886
21
3.57722
0
LINE
8
BLACK
10
14.0886
20
3.57722
11
14.016
21
3.19017
0
LINE
8
BLACK
10
14.016
20
3.19017
11
13.9434
21
2.99665
0
LINE
8
BLACK
10
13.9434
20
2.99665
11
13.8709
21
2.89989
0
LINE
8
BLACK
10
13.8709
20
2.89989
11
13.7257
21
2.80312
0
LINE
8
BLACK
10
13.7257
20
2.80312
11
13.5806
21
2.80312
0
LINE
8
BLACK
10
13.5806
20
2.80312
11
13.4354
21
2.89989
0
LINE
8
BLACK
10
13.4354
20
2.89989
11
13.3629
21
2.99665
0
LINE
8
BLACK
10
13.3629
20
2.99665
11
13.2903
21
3.19017
0
LINE
8
BLACK
10
13.2903
20
3.19017
11
13.2177
21
3.57722
0
LINE
8
BLACK
10
13.2177
20
3.57722
11
13.2177
21
4.06103
0
LINE
8
BLACK
10
13.2177
20
4.06103
11
13.2903
21
4.44808
0
LINE
8
BLACK
10
13.2903
20
4.44808
11
13.3629
21
4.6416
0
LINE
8
BLACK
10
13.3629
20
4.6416
11
13.4354
21
4.73836
0
LINE
8
BLACK
10
13.4354
20
4.73836
11
13.5806
21
4.83512
0
LINE
8
BLACK
10
15.9029
20
2.80312
11
15.9029
21
4.15779
0
LINE
8
BLACK
10
15.9029
20
3.96427
11
15.9754
21
4.06103
0
LINE
8
BLACK
10
15.9754
20
4.06103
11
16.1206
21
4.15779
0
LINE
8
BLACK
10
16.1206
20
4.15779
11
16.3383
21
4.15779
0
LINE
8
BLACK
10
16.3383
20
4.15779
11
16.4834
21
4.06103
0
LINE
8
BLACK
10
16.4834
20
4.06103
11
16.556
21
3.8675
0
LINE
8
BLACK
10
16.556
20
3.8675
11
16.556
21
2.80312
0
LINE
8
BLACK
10
16.556
20
3.8675
11
16.6286
21
4.06103
0
LINE
8
BLACK
10
16.6286
20
4.06103
11
16.7737
21
4.15779
0
LINE
8
BLACK
10
16.7737
20
4.15779
11
16.9914
21
4.15779
0
LINE
8
BLACK
10
16.9914
20
4.15779
11
17.1366
21
4.06103
0
LINE
8
BLACK
10
17.1366
20
4.06103
11
17.2091
21
3.8675
0
LINE
8
BLACK
10
17.2091
20
3.8675
11
17.2091
21
2.80312
0
LINE
8
BLACK
10
17.9349
20
2.80312
11
17.9349
21
4.15779
0
LINE
8
BLACK
10
17.9349
20
3.96427
11
18.0074
21
4.06103
0
LINE
8
BLACK
10
18.0074
20
4.06103
11
18.1526
21
4.15779
0
LINE
8
BLACK
10
18.1526
20
4.15779
11
18.3703
21
4.15779
0
LINE
8
BLACK
10
18.3703
20
4.15779
11
18.5154
21
4.06103
0
LINE
8
BLACK
10
18.5154
20
4.06103
11
18.588
21
3.8675
0
LINE
8
BLACK
10
18.588
20
3.8675
11
18.588
21
2.80312
0
LINE
8
BLACK
10
18.588
20
3.8675
11
18.6606
21
4.06103
0
LINE
8
BLACK
10
18.6606
20
4.06103
11
18.8057
21
4.15779
0
LINE
8
BLACK
10
18.8057
20
4.15779
11
19.0234
21
4.15779
0
LINE
8
BLACK
10
19.0234
20
4.15779
11
19.1686
21
4.06103
0
LINE
8
BLACK
10
19.1686
20
4.06103
11
19.2411
21
3.8675
0
LINE
8
BLACK
10
19.2411
20
3.8675
11
19.2411
21
2.80312
0
LINE
8
BLACK
10
4
20
1.8476
11
22
21
1.8476
0
LINE
8
BLACK
10
4
20
2.1524
11
22
21
2.1524
0
ARC
8
BLACK
10
22
20
2
40
0.1524
50
270
51
450
0
ARC
8
BLACK
10
4
20
2
40
0.1524
50
90
51
270
0
LINE
8
BLACK
10
4.1524
20
-4
11
4.1524
21
5.2512
0
LINE
8
BLACK
10
3.8476
20
-4
11
3.8476
21
5.2512
0
ARC
8
BLACK
10
4
20
5.2512
40
0.1524
50
360
51
540
0
ARC
8
BLACK
10
4
20
-4
40
0.1524
50
180
51
360
0
LINE
8
BLACK
10
22.1524
20
-4
11
22.1524
21
5.2512
0
LINE
8
BLACK
10
21.8476
20
-4
11
21.8476
21
5.2512
0
ARC
8
BLACK
10
22
20
5.2512
40
0.1524
50
360
51
540
0
ARC
8
BLACK
10
22
20
-4
40
0.1524
50
180
51
360
0
LINE
8
BLACK
10
21.9296
20
2.13518
11
20.8031
21
1.54876
0
LINE
8
BLACK
10
22.0704
20
1.86482
11
20.9439
21
1.2784
0
ARC
8
BLACK
10
20.8735
20
1.41358
40
0.1524
50
117.5
51
297.5
0
ARC
8
BLACK
10
22
20
2
40
0.1524
50
-62.5
51
117.5
0
LINE
8
BLACK
10
22.0704
20
2.13518
11
20.9439
21
2.7216
0
LINE
8
BLACK
10
21.9296
20
1.86482
11
20.8031
21
2.45124
0
ARC
8
BLACK
10
20.8735
20
2.58642
40
0.1524
50
422.5
51
602.5
0
ARC
8
BLACK
10
22
20
2
40
0.1524
50
242.5
51
422.5
0
LINE
8
BLACK
10
3.92936
20
1.86371
11
5.05688
21
1.27926
0
LINE
8
BLACK
10
4.06962
20
2.13432
11
5.19715
21
1.54987
0
ARC
8
BLACK
10
5.12701
20
1.41456
40
0.1524
50
242.6
51
422.6
0
ARC
8
BLACK
10
3.99949
20
1.99902
40
0.1524
50
62.6
51
242.6
0
LINE
8
BLACK
10
4.06962
20
1.86568
11
5.19715
21
2.45013
0
LINE
8
BLACK
10
3.92936
20
2.13629
11
5.05688
21
2.72074
0
ARC
8
BLACK
10
5.12701
20
2.58544
40
0.1524
50
297.4
51
477.4
0
ARC
8
BLACK
10
3.99949
20
2.00098
40
0.1524
50
117.4
51
297.4
0
LINE
8
BLACK
10
34.4161
20
-25.8863
11
34.4161
21
-24.9429
0
LINE
8
BLACK
10
34.4161
20
-24.9429
11
35.1902
21
-25.4509
0
LINE
8
BLACK
10
35.1902
20
-25.4509
11
35.1902
21
-25.2331
0
LINE
8
BLACK
10
35.1902
20
-25.2331
11
35.2869
21
-25.088
0
LINE
8
BLACK
10
35.2869
20
-25.088
11
35.3837
21
-25.0154
0
LINE
8
BLACK
10
35.3837
20
-25.0154
11
35.5772
21
-24.9429
0
LINE
8
BLACK
10
35.5772
20
-24.9429
11
36.061
21
-24.9429
0
LINE
8
BLACK
10
36.061
20
-24.9429
11
36.2546
21
-25.0154
0
LINE
8
BLACK
10
36.2546
20
-25.0154
11
36.3513
21
-25.088
0
LINE
8
BLACK
10
36.3513
20
-25.088
11
36.4481
21
-25.2331
0
LINE
8
BLACK
10
36.4481
20
-25.2331
11
36.4481
21
-25.6686
0
LINE
8
BLACK
10
36.4481
20
-25.6686
11
36.3513
21
-25.8137
0
LINE
8
BLACK
10
36.3513
20
-25.8137
11
36.2546
21
-25.8863
0
LINE
8
BLACK
10
36.4481
20
-24.2171
11
36.4481
21
-23.9269
0
LINE
8
BLACK
10
36.4481
20
-23.9269
11
36.3513
21
-23.7817
0
LINE
8
BLACK
10
36.3513
20
-23.7817
11
36.2546
21
-23.7091
0
LINE
8
BLACK
10
36.2546
20
-23.7091
11
35.9643
21
-23.564
0
LINE
8
BLACK
10
35.9643
20
-23.564
11
35.5772
21
-23.4914
0
LINE
8
BLACK
10
35.5772
20
-23.4914
11
34.8031
21
-23.4914
0
LINE
8
BLACK
10
34.8031
20
-23.4914
11
34.6096
21
-23.564
0
LINE
8
BLACK
10
34.6096
20
-23.564
11
34.5128
21
-23.6366
0
LINE
8
BLACK
10
34.5128
20
-23.6366
11
34.4161
21
-23.7817
0
LINE
8
BLACK
10
34.4161
20
-23.7817
11
34.4161
21
-24.072
0
LINE
8
BLACK
10
34.4161
20
-24.072
11
34.5128
21
-24.2171
0
LINE
8
BLACK
10
34.5128
20
-24.2171
11
34.6096
21
-24.2897
0
LINE
8
BLACK
10
34.6096
20
-24.2897
11
34.8031
21
-24.3623
0
LINE
8
BLACK
10
34.8031
20
-24.3623
11
35.2869
21
-24.3623
0
LINE
8
BLACK
10
35.2869
20
-24.3623
11
35.4805
21
-24.2897
0
LINE
8
BLACK
10
35.4805
20
-24.2897
11
35.5772
21
-24.2171
0
LINE
8
BLACK
10
35.5772
20
-24.2171
11
35.674
21
-24.072
0
LINE
8
BLACK
10
35.674
20
-24.072
11
35.674
21
-23.7817
0
LINE
8
BLACK
10
35.674
20
-23.7817
11
35.5772
21
-23.6366
0
LINE
8
BLACK
10
35.5772
20
-23.6366
11
35.4805
21
-23.564
0
LINE
8
BLACK
10
35.4805
20
-23.564
11
35.2869
21
-23.4914
0
LINE
8
BLACK
10
36.2546
20
-22.8383
11
36.3513
21
-22.7657
0
LINE
8
BLACK
10
36.3513
20
-22.7657
11
36.4481
21
-22.8383
0
LINE
8
BLACK
10
36.4481
20
-22.8383
11
36.3513
21
-22.9109
0
LINE
8
BLACK
10
36.3513
20
-22.9109
11
36.2546
21
-22.8383
0
LINE
8
BLACK
10
36.2546
20
-22.8383
11
36.4481
21
-22.8383
0
LINE
8
BLACK
10
34.4161
20
-21.8223
11
34.4161
21
-21.6771
0
LINE
8
BLACK
10
34.4161
20
-21.6771
11
34.5128
21
-21.532
0
LINE
8
BLACK
10
34.5128
20
-21.532
11
34.6096
21
-21.4594
0
LINE
8
BLACK
10
34.6096
20
-21.4594
11
34.8031
21
-21.3869
0
LINE
8
BLACK
10
34.8031
20
-21.3869
11
35.1902
21
-21.3143
0
LINE
8
BLACK
10
35.1902
20
-21.3143
11
35.674
21
-21.3143
0
LINE
8
BLACK
10
35.674
20
-21.3143
11
36.061
21
-21.3869
0
LINE
8
BLACK
10
36.061
20
-21.3869
11
36.2546
21
-21.4594
0
LINE
8
BLACK
10
36.2546
20
-21.4594
11
36.3513
21
-21.532
0
LINE
8
BLACK
10
36.3513
20
-21.532
11
36.4481
21
-21.6771
0
LINE
8
BLACK
10
36.4481
20
-21.6771
11
36.4481
21
-21.8223
0
LINE
8
BLACK
10
36.4481
20
-21.8223
11
36.3513
21
-21.9674
0
LINE
8
BLACK
10
36.3513
20
-21.9674
11
36.2546
21
-22.04
0
LINE
8
BLACK
10
36.2546
20
-22.04
11
36.061
21
-22.1126
0
LINE
8
BLACK
10
36.061
20
-22.1126
11
35.674
21
-22.1851
0
LINE
8
BLACK
10
35.674
20
-22.1851
11
35.1902
21
-22.1851
0
LINE
8
BLACK
10
35.1902
20
-22.1851
11
34.8031
21
-22.1126
0
LINE
8
BLACK
10
34.8031
20
-22.1126
11
34.6096
21
-22.04
0
LINE
8
BLACK
10
34.6096
20
-22.04
11
34.5128
21
-21.9674
0
LINE
8
BLACK
10
34.5128
20
-21.9674
11
34.4161
21
-21.8223
0
LINE
8
BLACK
10
34.4161
20
-20.3709
11
34.4161
21
-20.2257
0
LINE
8
BLACK
10
34.4161
20
-20.2257
11
34.5128
21
-20.0806
0
LINE
8
BLACK
10
34.5128
20
-20.0806
11
34.6096
21
-20.008
0
LINE
8
BLACK
10
34.6096
20
-20.008
11
34.8031
21
-19.9354
0
LINE
8
BLACK
10
34.8031
20
-19.9354
11
35.1902
21
-19.8629
0
LINE
8
BLACK
10
35.1902
20
-19.8629
11
35.674
21
-19.8629
0
LINE
8
BLACK
10
35.674
20
-19.8629
11
36.061
21
-19.9354
0
LINE
8
BLACK
10
36.061
20
-19.9354
11
36.2546
21
-20.008
0
LINE
8
BLACK
10
36.2546
20
-20.008
11
36.3513
21
-20.0806
0
LINE
8
BLACK
10
36.3513
20
-20.0806
11
36.4481
21
-20.2257
0
LINE
8
BLACK
10
36.4481
20
-20.2257
11
36.4481
21
-20.3709
0
LINE
8
BLACK
10
36.4481
20
-20.3709
11
36.3513
21
-20.516
0
LINE
8
BLACK
10
36.3513
20
-20.516
11
36.2546
21
-20.5886
0
LINE
8
BLACK
10
36.2546
20
-20.5886
11
36.061
21
-20.6611
0
LINE
8
BLACK
10
36.061
20
-20.6611
11
35.674
21
-20.7337
0
LINE
8
BLACK
10
35.674
20
-20.7337
11
35.1902
21
-20.7337
0
LINE
8
BLACK
10
35.1902
20
-20.7337
11
34.8031
21
-20.6611
0
LINE
8
BLACK
10
34.8031
20
-20.6611
11
34.6096
21
-20.5886
0
LINE
8
BLACK
10
34.6096
20
-20.5886
11
34.5128
21
-20.516
0
LINE
8
BLACK
10
34.5128
20
-20.516
11
34.4161
21
-20.3709
0
LINE
8
BLACK
10
34.4161
20
-18.9194
11
34.4161
21
-18.7743
0
LINE
8
BLACK
10
34.4161
20
-18.7743
11
34.5128
21
-18.6291
0
LINE
8
BLACK
10
34.5128
20
-18.6291
11
34.6096
21
-18.5566
0
LINE
8
BLACK
10
34.6096
20
-18.5566
11
34.8031
21
-18.484
0
LINE
8
BLACK
10
34.8031
20
-18.484
11
35.1902
21
-18.4114
0
LINE
8
BLACK
10
35.1902
20
-18.4114
11
35.674
21
-18.4114
0
LINE
8
BLACK
10
35.674
20
-18.4114
11
36.061
21
-18.484
0
LINE
8
BLACK
10
36.061
20
-18.484
11
36.2546
21
-18.5566
0
LINE
8
BLACK
10
36.2546
20
-18.5566
11
36.3513
21
-18.6291
0
LINE
8
BLACK
10
36.3513
20
-18.6291
11
36.4481
21
-18.7743
0
LINE
8
BLACK
10
36.4481
20
-18.7743
11
36.4481
21
-18.9194
0
LINE
8
BLACK
10
36.4481
20
-18.9194
11
36.3513
21
-19.0646
0
LINE
8
BLACK
10
36.3513
20
-19.0646
11
36.2546
21
-19.1371
0
LINE
8
BLACK
10
36.2546
20
-19.1371
11
36.061
21
-19.2097
0
LINE
8
BLACK
10
36.061
20
-19.2097
11
35.674
21
-19.2823
0
LINE
8
BLACK
10
35.674
20
-19.2823
11
35.1902
21
-19.2823
0
LINE
8
BLACK
10
35.1902
20
-19.2823
11
34.8031
21
-19.2097
0
LINE
8
BLACK
10
34.8031
20
-19.2097
11
34.6096
21
-19.1371
0
LINE
8
BLACK
10
34.6096
20
-19.1371
11
34.5128
21
-19.0646
0
LINE
8
BLACK
10
34.5128
20
-19.0646
11
34.4161
21
-18.9194
0
LINE
8
BLACK
10
36.4481
20
-16.5971
11
35.0934
21
-16.5971
0
LINE
8
BLACK
10
35.2869
20
-16.5971
11
35.1902
21
-16.5246
0
LINE
8
BLACK
10
35.1902
20
-16.5246
11
35.0934
21
-16.3794
0
LINE
8
BLACK
10
35.0934
20
-16.3794
11
35.0934
21
-16.1617
0
LINE
8
BLACK
10
35.0934
20
-16.1617
11
35.1902
21
-16.0166
0
LINE
8
BLACK
10
35.1902
20
-16.0166
11
35.3837
21
-15.944
0
LINE
8
BLACK
10
35.3837
20
-15.944
11
36.4481
21
-15.944
0
LINE
8
BLACK
10
35.3837
20
-15.944
11
35.1902
21
-15.8714
0
LINE
8
BLACK
10
35.1902
20
-15.8714
11
35.0934
21
-15.7263
0
LINE
8
BLACK
10
35.0934
20
-15.7263
11
35.0934
21
-15.5086
0
LINE
8
BLACK
10
35.0934
20
-15.5086
11
35.1902
21
-15.3634
0
LINE
8
BLACK
10
35.1902
20
-15.3634
11
35.3837
21
-15.2909
0
LINE
8
BLACK
10
35.3837
20
-15.2909
11
36.4481
21
-15.2909
0
LINE
8
BLACK
10
36.4481
20
-14.5651
11
35.0934
21
-14.5651
0
LINE
8
BLACK
10
35.2869
20
-14.5651
11
35.1902
21
-14.4926
0
LINE
8
BLACK
10
35.1902
20
-14.4926
11
35.0934
21
-14.3474
0
LINE
8
BLACK
10
35.0934
20
-14.3474
11
35.0934
21
-14.1297
0
LINE
8
BLACK
10
35.0934
20
-14.1297
11
35.1902
21
-13.9846
0
LINE
8
BLACK
10
35.1902
20
-13.9846
11
35.3837
21
-13.912
0
LINE
8
BLACK
10
35.3837
20
-13.912
11
36.4481
21
-13.912
0
LINE
8
BLACK
10
35.3837
20
-13.912
11
35.1902
21
-13.8394
0
LINE
8
BLACK
10
35.1902
20
-13.8394
11
35.0934
21
-13.6943
0
LINE
8
BLACK
10
35.0934
20
-13.6943
11
35.0934
21
-13.4766
0
LINE
8
BLACK
10
35.0934
20
-13.4766
11
35.1902
21
-13.3314
0
LINE
8
BLACK
10
35.1902
20
-13.3314
11
35.3837
21
-13.2589
0
LINE
8
BLACK
10
35.3837
20
-13.2589
11
36.4481
21
-13.2589
0
LINE
8
BLACK
10
34.1524
20
-39
11
34.1524
21
0
0
LINE
8
BLACK
10
33.8476
20
-39
11
33.8476
21
0
0
ARC
8
BLACK
10
34
20
0
40
0.1524
50
360
51
540
0
ARC
8
BLACK
10
34
20
-39
40
0.1524
50
180
51
360
0
LINE
8
BLACK
10
22
20
-39.1524
11
37.2512
21
-39.1524
0
LINE
8
BLACK
10
22
20
-38.8476
11
37.2512
21
-38.8476
0
ARC
8
BLACK
10
37.2512
20
-39
40
0.1524
50
270
51
450
0
ARC
8
BLACK
10
22
20
-39
40
0.1524
50
90
51
270
0
LINE
8
BLACK
10
22
20
-0.1524
11
37.2512
21
-0.1524
0
LINE
8
BLACK
10
22
20
0.1524
11
37.2512
21
0.1524
0
ARC
8
BLACK
10
37.2512
20
0
40
0.1524
50
270
51
450
0
ARC
8
BLACK
10
22
20
0
40
0.1524
50
90
51
270
0
LINE
8
BLACK
10
33.8648
20
-0.07037
11
34.4512
21
-1.19687
0
LINE
8
BLACK
10
34.1352
20
0.07037
11
34.7216
21
-1.05613
0
ARC
8
BLACK
10
34.5864
20
-1.1265
40
0.1524
50
207.5
51
387.5
0
ARC
8
BLACK
10
34
20
0
40
0.1524
50
27.5
51
207.5
0
LINE
8
BLACK
10
33.8637
20
0.070645
11
33.2793
21
-1.05688
0
LINE
8
BLACK
10
34.1343
20
-0.069624
11
33.5499
21
-1.19715
0
ARC
8
BLACK
10
33.4146
20
-1.12701
40
0.1524
50
152.6
51
332.6
0
ARC
8
BLACK
10
33.999
20
0.000511
40
0.1524
50
-27.4
51
152.6
0
LINE
8
BLACK
10
34.1352
20
-39.0704
11
34.7216
21
-37.9439
0
LINE
8
BLACK
10
33.8648
20
-38.9296
11
34.4512
21
-37.8031
0
ARC
8
BLACK
10
34.5864
20
-37.8735
40
0.1524
50
332.5
51
512.5
0
ARC
8
BLACK
10
34
20
-39
40
0.1524
50
152.5
51
332.5
0
LINE
8
BLACK
10
34.1343
20
-38.9304
11
33.5499
21
-37.8029
0
LINE
8
BLACK
10
33.8637
20
-39.0706
11
33.2793
21
-37.9431
0
ARC
8
BLACK
10
33.4146
20
-37.873
40
0.1524
50
387.4
51
567.4
0
ARC
8
BLACK
10
33.999
20
-39.0005
40
0.1524
50
207.4
51
387.4
0
LINE
8
BLACK
10
28.4161
20
-25.8863
11
28.4161
21
-24.9429
0
LINE
8
BLACK
10
28.4161
20
-24.9429
11
29.1902
21
-25.4509
0
LINE
8
BLACK
10
29.1902
20
-25.4509
11
29.1902
21
-25.2331
0
LINE
8
BLACK
10
29.1902
20
-25.2331
11
29.2869
21
-25.088
0
LINE
8
BLACK
10
29.2869
20
-25.088
11
29.3837
21
-25.0154
0
LINE
8
BLACK
10
29.3837
20
-25.0154
11
29.5772
21
-24.9429
0
LINE
8
BLACK
10
29.5772
20
-24.9429
11
30.061
21
-24.9429
0
LINE
8
BLACK
10
30.061
20
-24.9429
11
30.2546
21
-25.0154
0
LINE
8
BLACK
10
30.2546
20
-25.0154
11
30.3513
21
-25.088
0
LINE
8
BLACK
10
30.3513
20
-25.088
11
30.4481
21
-25.2331
0
LINE
8
BLACK
10
30.4481
20
-25.2331
11
30.4481
21
-25.6686
0
LINE
8
BLACK
10
30.4481
20
-25.6686
11
30.3513
21
-25.8137
0
LINE
8
BLACK
10
30.3513
20
-25.8137
11
30.2546
21
-25.8863
0
LINE
8
BLACK
10
30.4481
20
-23.4914
11
30.4481
21
-24.3623
0
LINE
8
BLACK
10
30.4481
20
-23.9269
11
28.4161
21
-23.9269
0
LINE
8
BLACK
10
28.4161
20
-23.9269
11
28.7064
21
-24.072
0
LINE
8
BLACK
10
28.7064
20
-24.072
11
28.8999
21
-24.2171
0
LINE
8
BLACK
10
28.8999
20
-24.2171
11
28.9966
21
-24.3623
0
LINE
8
BLACK
10
30.2546
20
-22.8383
11
30.3513
21
-22.7657
0
LINE
8
BLACK
10
30.3513
20
-22.7657
11
30.4481
21
-22.8383
0
LINE
8
BLACK
10
30.4481
20
-22.8383
11
30.3513
21
-22.9109
0
LINE
8
BLACK
10
30.3513
20
-22.9109
11
30.2546
21
-22.8383
0
LINE
8
BLACK
10
30.2546
20
-22.8383
11
30.4481
21
-22.8383
0
LINE
8
BLACK
10
28.4161
20
-21.8223
11
28.4161
21
-21.6771
0
LINE
8
BLACK
10
28.4161
20
-21.6771
11
28.5128
21
-21.532
0
LINE
8
BLACK
10
28.5128
20
-21.532
11
28.6096
21
-21.4594
0
LINE
8
BLACK
10
28.6096
20
-21.4594
11
28.8031
21
-21.3869
0
LINE
8
BLACK
10
28.8031
20
-21.3869
11
29.1902
21
-21.3143
0
LINE
8
BLACK
10
29.1902
20
-21.3143
11
29.674
21
-21.3143
0
LINE
8
BLACK
10
29.674
20
-21.3143
11
30.061
21
-21.3869
0
LINE
8
BLACK
10
30.061
20
-21.3869
11
30.2546
21
-21.4594
0
LINE
8
BLACK
10
30.2546
20
-21.4594
11
30.3513
21
-21.532
0
LINE
8
BLACK
10
30.3513
20
-21.532
11
30.4481
21
-21.6771
0
LINE
8
BLACK
10
30.4481
20
-21.6771
11
30.4481
21
-21.8223
0
LINE
8
BLACK
10
30.4481
20
-21.8223
11
30.3513
21
-21.9674
0
LINE
8
BLACK
10
30.3513
20
-21.9674
11
30.2546
21
-22.04
0
LINE
8
BLACK
10
30.2546
20
-22.04
11
30.061
21
-22.1126
0
LINE
8
BLACK
10
30.061
20
-22.1126
11
29.674
21
-22.1851
0
LINE
8
BLACK
10
29.674
20
-22.1851
11
29.1902
21
-22.1851
0
LINE
8
BLACK
10
29.1902
20
-22.1851
11
28.8031
21
-22.1126
0
LINE
8
BLACK
10
28.8031
20
-22.1126
11
28.6096
21
-22.04
0
LINE
8
BLACK
10
28.6096
20
-22.04
11
28.5128
21
-21.9674
0
LINE
8
BLACK
10
28.5128
20
-21.9674
11
28.4161
21
-21.8223
0
LINE
8
BLACK
10
28.4161
20
-20.3709
11
28.4161
21
-20.2257
0
LINE
8
BLACK
10
28.4161
20
-20.2257
11
28.5128
21
-20.0806
0
LINE
8
BLACK
10
28.5128
20
-20.0806
11
28.6096
21
-20.008
0
LINE
8
BLACK
10
28.6096
20
-20.008
11
28.8031
21
-19.9354
0
LINE
8
BLACK
10
28.8031
20
-19.9354
11
29.1902
21
-19.8629
0
LINE
8
BLACK
10
29.1902
20
-19.8629
11
29.674
21
-19.8629
0
LINE
8
BLACK
10
29.674
20
-19.8629
11
30.061
21
-19.9354
0
LINE
8
BLACK
10
30.061
20
-19.9354
11
30.2546
21
-20.008
0
LINE
8
BLACK
10
30.2546
20
-20.008
11
30.3513
21
-20.0806
0
LINE
8
BLACK
10
30.3513
20
-20.0806
11
30.4481
21
-20.2257
0
LINE
8
BLACK
10
30.4481
20
-20.2257
11
30.4481
21
-20.3709
0
LINE
8
BLACK
10
30.4481
20
-20.3709
11
30.3513
21
-20.516
0
LINE
8
BLACK
10
30.3513
20
-20.516
11
30.2546
21
-20.5886
0
LINE
8
BLACK
10
30.2546
20
-20.5886
11
30.061
21
-20.6611
0
LINE
8
BLACK
10
30.061
20
-20.6611
11
29.674
21
-20.7337
0
LINE
8
BLACK
10
29.674
20
-20.7337
11
29.1902
21
-20.7337
0
LINE
8
BLACK
10
29.1902
20
-20.7337
11
28.8031
21
-20.6611
0
LINE
8
BLACK
10
28.8031
20
-20.6611
11
28.6096
21
-20.5886
0
LINE
8
BLACK
10
28.6096
20
-20.5886
11
28.5128
21
-20.516
0
LINE
8
BLACK
10
28.5128
20
-20.516
11
28.4161
21
-20.3709
0
LINE
8
BLACK
10
28.4161
20
-18.9194
11
28.4161
21
-18.7743
0
LINE
8
BLACK
10
28.4161
20
-18.7743
11
28.5128
21
-18.6291
0
LINE
8
BLACK
10
28.5128
20
-18.6291
11
28.6096
21
-18.5566
0
LINE
8
BLACK
10
28.6096
20
-18.5566
11
28.8031
21
-18.484
0
LINE
8
BLACK
10
28.8031
20
-18.484
11
29.1902
21
-18.4114
0
LINE
8
BLACK
10
29.1902
20
-18.4114
11
29.674
21
-18.4114
0
LINE
8
BLACK
10
29.674
20
-18.4114
11
30.061
21
-18.484
0
LINE
8
BLACK
10
30.061
20
-18.484
11
30.2546
21
-18.5566
0
LINE
8
BLACK
10
30.2546
20
-18.5566
11
30.3513
21
-18.6291
0
LINE
8
BLACK
10
30.3513
20
-18.6291
11
30.4481
21
-18.7743
0
LINE
8
BLACK
10
30.4481
20
-18.7743
11
30.4481
21
-18.9194
0
LINE
8
BLACK
10
30.4481
20
-18.9194
11
30.3513
21
-19.0646
0
LINE
8
BLACK
10
30.3513
20
-19.0646
11
30.2546
21
-19.1371
0
LINE
8
BLACK
10
30.2546
20
-19.1371
11
30.061
21
-19.2097
0
LINE
8
BLACK
10
30.061
20
-19.2097
11
29.674
21
-19.2823
0
LINE
8
BLACK
10
29.674
20
-19.2823
11
29.1902
21
-19.2823
0
LINE
8
BLACK
10
29.1902
20
-19.2823
11
28.8031
21
-19.2097
0
LINE
8
BLACK
10
28.8031
20
-19.2097
11
28.6096
21
-19.1371
0
LINE
8
BLACK
10
28.6096
20
-19.1371
11
28.5128
21
-19.0646
0
LINE
8
BLACK
10
28.5128
20
-19.0646
11
28.4161
21
-18.9194
0
LINE
8
BLACK
10
30.4481
20
-16.5971
11
29.0934
21
-16.5971
0
LINE
8
BLACK
10
29.2869
20
-16.5971
11
29.1902
21
-16.5246
0
LINE
8
BLACK
10
29.1902
20
-16.5246
11
29.0934
21
-16.3794
0
LINE
8
BLACK
10
29.0934
20
-16.3794
11
29.0934
21
-16.1617
0
LINE
8
BLACK
10
29.0934
20
-16.1617
11
29.1902
21
-16.0166
0
LINE
8
BLACK
10
29.1902
20
-16.0166
11
29.3837
21
-15.944
0
LINE
8
BLACK
10
29.3837
20
-15.944
11
30.4481
21
-15.944
0
LINE
8
BLACK
10
29.3837
20
-15.944
11
29.1902
21
-15.8714
0
LINE
8
BLACK
10
29.1902
20
-15.8714
11
29.0934
21
-15.7263
0
LINE
8
BLACK
10
29.0934
20
-15.7263
11
29.0934
21
-15.5086
0
LINE
8
BLACK
10
29.0934
20
-15.5086
11
29.1902
21
-15.3634
0
LINE
8
BLACK
10
29.1902
20
-15.3634
11
29.3837
21
-15.2909
0
LINE
8
BLACK
10
29.3837
20
-15.2909
11
30.4481
21
-15.2909
0
LINE
8
BLACK
10
30.4481
20
-14.5651
11
29.0934
21
-14.5651
0
LINE
8
BLACK
10
29.2869
20
-14.5651
11
29.1902
21
-14.4926
0
LINE
8
BLACK
10
29.1902
20
-14.4926
11
29.0934
21
-14.3474
0
LINE
8
BLACK
10
29.0934
20
-14.3474
11
29.0934
21
-14.1297
0
LINE
8
BLACK
10
29.0934
20
-14.1297
11
29.1902
21
-13.9846
0
LINE
8
BLACK
10
29.1902
20
-13.9846
11
29.3837
21
-13.912
0
LINE
8
BLACK
10
29.3837
20
-13.912
11
30.4481
21
-13.912
0
LINE
8
BLACK
10
29.3837
20
-13.912
11
29.1902
21
-13.8394
0
LINE
8
BLACK
10
29.1902
20
-13.8394
11
29.0934
21
-13.6943
0
LINE
8
BLACK
10
29.0934
20
-13.6943
11
29.0934
21
-13.4766
0
LINE
8
BLACK
10
29.0934
20
-13.4766
11
29.1902
21
-13.3314
0
LINE
8
BLACK
10
29.1902
20
-13.3314
11
29.3837
21
-13.2589
0
LINE
8
BLACK
10
29.3837
20
-13.2589
11
30.4481
21
-13.2589
0
LINE
8
BLACK
10
28.1524
20
-35
11
28.1524
21
-4
0
LINE
8
BLACK
10
27.8476
20
-35
11
27.8476
21
-4
0
ARC
8
BLACK
10
28
20
-4
40
0.1524
50
360
51
540
0
ARC
8
BLACK
10
28
20
-35
40
0.1524
50
180
51
360
0
LINE
8
BLACK
10
22
20
-35.1524
11
31.2512
21
-35.1524
0
LINE
8
BLACK
10
22
20
-34.8476
11
31.2512
21
-34.8476
0
ARC
8
BLACK
10
31.2512
20
-35
40
0.1524
50
270
51
450
0
ARC
8
BLACK
10
22
20
-35
40
0.1524
50
90
51
270
0
LINE
8
BLACK
10
22
20
-4.1524
11
31.2512
21
-4.1524
0
LINE
8
BLACK
10
22
20
-3.8476
11
31.2512
21
-3.8476
0
ARC
8
BLACK
10
31.2512
20
-4
40
0.1524
50
270
51
450
0
ARC
8
BLACK
10
22
20
-4
40
0.1524
50
90
51
270
0
LINE
8
BLACK
10
27.8648
20
-4.07037
11
28.4512
21
-5.19687
0
LINE
8
BLACK
10
28.1352
20
-3.92963
11
28.7216
21
-5.05613
0
ARC
8
BLACK
10
28.5864
20
-5.1265
40
0.1524
50
207.5
51
387.5
0
ARC
8
BLACK
10
28
20
-4
40
0.1524
50
27.5
51
207.5
0
LINE
8
BLACK
10
27.8637
20
-3.92936
11
27.2793
21
-5.05688
0
LINE
8
BLACK
10
28.1343
20
-4.06962
11
27.5499
21
-5.19715
0
ARC
8
BLACK
10
27.4146
20
-5.12701
40
0.1524
50
152.6
51
332.6
0
ARC
8
BLACK
10
27.999
20
-3.99949
40
0.1524
50
-27.4
51
152.6
0
LINE
8
BLACK
10
28.1352
20
-35.0704
11
28.7216
21
-33.9439
0
LINE
8
BLACK
10
27.8648
20
-34.9296
11
28.4512
21
-33.8031
0
ARC
8
BLACK
10
28.5864
20
-33.8735
40
0.1524
50
332.5
51
512.5
0
ARC
8
BLACK
10
28
20
-35
40
0.1524
50
152.5
51
332.5
0
LINE
8
BLACK
10
28.1343
20
-34.9304
11
27.5499
21
-33.8029
0
LINE
8
BLACK
10
27.8637
20
-35.0706
11
27.2793
21
-33.9431
0
ARC
8
BLACK
10
27.4146
20
-33.873
40
0.1524
50
387.4
51
567.4
0
ARC
8
BLACK
10
27.999
20
-35.0005
40
0.1524
50
207.4
51
387.4
0
LINE
8
BLACK
10
4
20
-39.1905
11
22
21
-39.1905
0
LINE
8
BLACK
10
4
20
-38.8095
11
22
21
-38.8095
0
ARC
8
BLACK
10
22
20
-39
40
0.1905
50
270
51
450
0
ARC
8
BLACK
10
4
20
-39
40
0.1905
50
90
51
270
0
LINE
8
BLACK
10
0.1905
20
-35
11
0.1905
21
-4
0
LINE
8
BLACK
10
-0.1905
20
-35
11
-0.1905
21
-4
0
ARC
8
BLACK
10
0
20
-4
40
0.1905
50
360
51
540
0
ARC
8
BLACK
10
0
20
-35
40
0.1905
50
180
51
360
0
LINE
8
BLACK
10
26.1905
20
-35
11
26.1905
21
-4
0
LINE
8
BLACK
10
25.8095
20
-35
11
25.8095
21
-4
0
ARC
8
BLACK
10
26
20
-4
40
0.1905
50
360
51
540
0
ARC
8
BLACK
10
26
20
-35
40
0.1905
50
180
51
360
0
LINE
8
BLACK
10
4
20
-0.1905
11
22
21
-0.1905
0
LINE
8
BLACK
10
4
20
0.1905
11
22
21
0.1905
0
ARC
8
BLACK
10
22
20
0
40
0.1905
50
270
51
450
0
ARC
8
BLACK
10
4
20
0
40
0.1905
50
90
51
270
0
ARC
8
BLACK
10
4
20
-35
40
4
50
-180
51
-90
0
ARC
8
BLACK
10
22
20
-4
40
4
50
0
51
90
0
ARC
8
BLACK
10
22
20
-35
40
4
50
-90
51
0
0
ARC
8
BLACK
10
4
20
-4
40
4
50
90
51
180
  0
ENDSEC
  0
EOF
