999
dxflib 3.7.0.0
  0
SECTION
  2
HEADER
  9
$ACADVER
  1
AC1015
  9
$HANDSEED
  5
FFFF
  9
$ANGBASE
 50
0.0
  9
$ATTMODE
 70
1
  9
$AUNITS
 70
0
  9
$AUPREC
 70
0
  9
$CELTSCALE
 40
1.0
  9
$CHAMFERA
 40
0.0
  9
$CHAMFERB
 40
0.0
  9
$CHAMFERC
 40
0.0
  9
$CHAMFERD
 40
0.0
  9
$CMLJUST
 70
0
  9
$CMLSCALE
 40
1.0
  9
$DIMADEC
 70
0
  9
$DIMALTD
 70
2
  9
$DIMALTF
 40
25.399999999999999
  9
$DIMALTRND
 40
0.0
  9
$DIMALTTD
 70
2
  9
$DIMALTTZ
 70
0
  9
$DIMALTU
 70
2
  9
$DIMALTZ
 70
0
  9
$DIMAPOST
  1

  9
$DIMASZ
 40
0.18
  9
$DIMATFIT
 70
3
  9
$DIMAUNIT
 70
0
  9
$DIMAZIN
 70
0
  9
$DIMCEN
 40
0.09
  9
$DIMDEC
 70
4
  9
$DIMDLE
 40
0.0
  9
$DIMDLI
 40
0.38
  9
$DIMDSEP
 70
46
  9
$DIMEXE
 40
0.18
  9
$DIMEXO
 40
0.0625
  9
$DIMFRAC
 70
0
  9
$DIMGAP
 40
0.09
  9
$DIMJUST
 70
0
  9
$DIMLFAC
 40
1.0
  9
$DIMLUNIT
 70
2
  9
$DIMLWD
 70
-2
  9
$DIMLWE
 70
-2
  9
$DIMPOST
  1

  9
$DIMRND
 40
0.0
  9
$DIMSCALE
 40
1.0
  9
$DIMTAD
 70
0
  9
$DIMTDEC
 70
4
  9
$DIMTFAC
 40
1.0
  9
$DIMTM
 40
0.0
  9
$DIMTOLJ
 70
1
  9
$DIMTP
 40
0.0
  9
$DIMTSZ
 40
0.0
  9
$DIMTVP
 40
0.0
  9
$DIMTXT
 40
1.0
  9
$DIMTZIN
 70
0
  9
$DIMZIN
 70
0
  9
$DWGCODEPAGE
  3
ANSI_1252
  9
$ELEVATION
 40
0.0
  9
$EXTMAX
 10
-100000000000000000000.0
 20
-100000000000000000000.0
 30
-100000000000000000000.0
  9
$EXTMIN
 10
100000000000000000000.0
 20
100000000000000000000.0
 30
100000000000000000000.0
  9
$FILLETRAD
 40
0.5
  9
$INSBASE
 10
0.0
 20
0.0
 30
0.0
  9
$INSUNITS
 70
0
  9
$LIMMAX
 10
12.0
 20
9.0
  9
$LIMMIN
 10
0.0
 20
0.0
  9
$LTSCALE
 40
1.0
  9
$LUNITS
 70
2
  9
$LUPREC
 70
4
  9
$MAXACTVP
 70
2
  9
$PDMODE
 70
0
  9
$PDSIZE
 40
0.0
  9
$PELEVATION
 40
0.0
  9
$PEXTMAX
 10
-100000000000000000000.0
 20
-100000000000000000000.0
 30
-100000000000000000000.0
  9
$PEXTMIN
 10
100000000000000000000.0
 20
100000000000000000000.0
 30
100000000000000000000.0
  9
$PINSBASE
 10
0.0
 20
0.0
 30
0.0
  9
$PLIMMAX
 10
12.0
 20
9.0
  9
$PLIMMIN
 10
0.0
 20
0.0
  9
$PLINEWID
 40
0.0
  9
$PROXYGRAPHICS
 70
1
  9
$PUCSORG
 10
0.0
 20
0.0
 30
0.0
  9
$PUCSXDIR
 10
1.0
 20
0.0
 30
0.0
  9
$PUCSYDIR
 10
0.0
 20
1.0
 30
0.0
  9
$SHADEDGE
 70
3
  9
$SHADEDIF
 70
70
  9
$SKETCHINC
 40
0.1
  9
$SPLINESEGS
 70
8
  9
$SPLINETYPE
 70
6
  9
$SURFTAB1
 70
6
  9
$SURFTAB2
 70
6
  9
$SURFTYPE
 70
6
  9
$SURFU
 70
6
  9
$SURFV
 70
6
  9
$TEXTSIZE
 40
0.2
  9
$THICKNESS
 40
0.0
  9
$TRACEWID
 40
0.05
  9
$TREEDEPTH
 70
3020
  9
$UCSORG
 10
0.0
 20
0.0
 30
0.0
  9
$UCSXDIR
 10
1.0
 20
0.0
 30
0.0
  9
$UCSYDIR
 10
0.0
 20
1.0
 30
0.0
  9
$UNITMODE
 70
0
  9
$USERI1
 70
0
  9
$USERI2
 70
0
  9
$USERI3
 70
0
  9
$USERI4
 70
0
  9
$USERI5
 70
0
  9
$USERR1
 40
0.0
  9
$USERR2
 40
0.0
  9
$USERR3
 40
0.0
  9
$USERR4
 40
0.0
  9
$USERR5
 40
0.0
  0
ENDSEC
  0
SECTION
  2
TABLES
  0
TABLE
  2
VPORT
  5
8
100
AcDbSymbolTable
 70
1
  0
VPORT
  5
30
100
AcDbSymbolTableRecord
100
AcDbViewportTableRecord
  2
*Active
 70
0
 10
0.0
 20
0.0
 11
1.0
 21
1.0
 12
286.30555555555549
 22
148.5
 13
0.0
 23
0.0
 14
10.0
 24
10.0
 15
10.0
 25
10.0
 16
0.0
 26
0.0
 36
1.0
 17
0.0
 27
0.0
 37
0.0
 40
297.0
 41
1.92798353909465
 42
50.0
 43
0.0
 44
0.0
 50
0.0
 51
0.0
 71
0
 72
100
 73
1
 74
3
 75
1
 76
1
 77
0
 78
0
281
0
 65
1
110
0.0
120
0.0
130
0.0
111
1.0
121
0.0
131
0.0
112
0.0
122
1.0
132
0.0
 79
0
146
0.0
  0
ENDTAB
  0
TABLE
  2
LTYPE
  5
5
100
AcDbSymbolTable
 70
41
  0
LTYPE
  5
16
100
AcDbSymbolTableRecord
100
AcDbLinetypeTableRecord
  2
CONTINUOUS
 70
0
  3
Solid line
 72
65
 73
0
 40
0.0
  0
LTYPE
  5
31
100
AcDbSymbolTableRecord
100
AcDbLinetypeTableRecord
  2
ACAD_ISO15W100
 70
0
  3
ISO double-dash triple-dot __ __ . . . __ __ . .
 72
65
 73
10
 40
39.0
 49
12.0
 74
0
 49
-3.0
 74
0
 49
12.0
 74
0
 49
-3.0
 74
0
 49
0.0
 74
0
 49
-3.0
 74
0
 49
0.0
 74
0
 49
-3.0
 74
0
 49
0.0
 74
0
 49
-3.0
 74
0
  0
LTYPE
  5
32
100
AcDbSymbolTableRecord
100
AcDbLinetypeTableRecord
  2
DIVIDE
 70
0
  3
Divide ____ . . ____ . . ____ . . ____ . . ____
 72
65
 73
6
 40
31.75
 49
12.699999999999999
 74
0
 49
-6.3499999999999996
 74
0
 49
0.0
 74
0
 49
-6.3499999999999996
 74
0
 49
0.0
 74
0
 49
-6.3499999999999996
 74
0
  0
LTYPE
  5
33
100
AcDbSymbolTableRecord
100
AcDbLinetypeTableRecord
  2
ACAD_ISO10W100
 70
0
  3
ISO dash dot __ . __ . __ . __ . __ . __ . __ . 
 72
65
 73
4
 40
18.0
 49
12.0
 74
0
 49
-3.0
 74
0
 49
0.0
 74
0
 49
-3.0
 74
0
  0
LTYPE
  5
34
100
AcDbSymbolTableRecord
100
AcDbLinetypeTableRecord
  2
ACAD_ISO04W100
 70
0
  3
ISO long-dash dot ____ . ____ . ____ . ____ . _
 72
65
 73
4
 40
30.0
 49
24.0
 74
0
 49
-3.0
 74
0
 49
0.0
 74
0
 49
-3.0
 74
0
  0
LTYPE
  5
14
100
AcDbSymbolTableRecord
100
AcDbLinetypeTableRecord
  2
ByBlock
 70
0
  3

 72
65
 73
0
 40
0.0
  0
LTYPE
  5
35
100
AcDbSymbolTableRecord
100
AcDbLinetypeTableRecord
  2
CENTER2
 70
0
  3
Center (.5x) ___ _ ___ _ ___ _ ___ _ ___ _ ___
 72
65
 73
4
 40
28.575000000000003
 49
19.050000000000001
 74
0
 49
-3.1749999999999998
 74
0
 49
3.1749999999999998
 74
0
 49
-3.1749999999999998
 74
0
  0
LTYPE
  5
36
100
AcDbSymbolTableRecord
100
AcDbLinetypeTableRecord
  2
ACAD_ISO11W100
 70
0
  3
ISO double-dash dot __ __ . __ __ . __ __ . __ _
 72
65
 73
6
 40
33.0
 49
12.0
 74
0
 49
-3.0
 74
0
 49
12.0
 74
0
 49
-3.0
 74
0
 49
0.0
 74
0
 49
-3.0
 74
0
  0
LTYPE
  5
37
100
AcDbSymbolTableRecord
100
AcDbLinetypeTableRecord
  2
HIDDEN2
 70
0
  3
Hidden (.5x) _ _ _ _ _ _ _ _ _ _ _ _ _ _ _ _ _ 
 72
65
 73
2
 40
4.7624999999999993
 49
3.1749999999999998
 74
0
 49
-1.5874999999999999
 74
0
  0
LTYPE
  5
38
100
AcDbSymbolTableRecord
100
AcDbLinetypeTableRecord
  2
BORDERX2
 70
0
  3
Border (2x) ____  ____  .  ____  ____  .  ___
 72
65
 73
6
 40
88.899999999999991
 49
25.399999999999999
 74
0
 49
-12.699999999999999
 74
0
 49
25.399999999999999
 74
0
 49
-12.699999999999999
 74
0
 49
0.0
 74
0
 49
-12.699999999999999
 74
0
  0
LTYPE
  5
39
100
AcDbSymbolTableRecord
100
AcDbLinetypeTableRecord
  2
ACAD_ISO05W100
 70
0
  3
ISO long-dash double-dot ____ .. ____ .. ____ . 
 72
65
 73
6
 40
33.0
 49
24.0
 74
0
 49
-3.0
 74
0
 49
0.0
 74
0
 49
-3.0
 74
0
 49
0.0
 74
0
 49
-3.0
 74
0
  0
LTYPE
  5
3A
100
AcDbSymbolTableRecord
100
AcDbLinetypeTableRecord
  2
DASHDOTX2
 70
0
  3
Dash dot (2x) ____  .  ____  .  ____  .  ___
 72
65
 73
4
 40
50.799999999999997
 49
25.399999999999999
 74
0
 49
-12.699999999999999
 74
0
 49
0.0
 74
0
 49
-12.699999999999999
 74
0
  0
LTYPE
  5
3B
100
AcDbSymbolTableRecord
100
AcDbLinetypeTableRecord
  2
HIDDENX2
 70
0
  3
Hidden (2x) ____ ____ ____ ____ ____ ____ ____ 
 72
65
 73
2
 40
19.049999999999997
 49
12.699999999999999
 74
0
 49
-6.3499999999999996
 74
0
  0
LTYPE
  5
3C
100
AcDbSymbolTableRecord
100
AcDbLinetypeTableRecord
  2
CENTERX2
 70
0
  3
Center (2x) ________  __  ________  __  _____
 72
65
 73
4
 40
101.60000000000001
 49
63.5
 74
0
 49
-12.699999999999999
 74
0
 49
12.699999999999999
 74
0
 49
-12.699999999999999
 74
0
  0
LTYPE
  5
3D
100
AcDbSymbolTableRecord
100
AcDbLinetypeTableRecord
  2
BORDER2
 70
0
  3
Border (.5x) __.__.__.__.__.__.__.__.__.__.__.
 72
65
 73
6
 40
22.224999999999998
 49
6.3499999999999996
 74
0
 49
-3.1749999999999998
 74
0
 49
6.3499999999999996
 74
0
 49
-3.1749999999999998
 74
0
 49
0.0
 74
0
 49
-3.1749999999999998
 74
0
  0
LTYPE
  5
3E
100
AcDbSymbolTableRecord
100
AcDbLinetypeTableRecord
  2
DASHDOT2
 70
0
  3
Dash dot (.5x) _._._._._._._._._._._._._._._.
 72
65
 73
4
 40
12.699999999999999
 49
6.3499999999999996
 74
0
 49
-3.1749999999999998
 74
0
 49
0.0
 74
0
 49
-3.1749999999999998
 74
0
  0
LTYPE
  5
3F
100
AcDbSymbolTableRecord
100
AcDbLinetypeTableRecord
  2
ACAD_ISO12W100
 70
0
  3
ISO dash double-dot __ . . __ . . __ . . __ . . 
 72
65
 73
6
 40
21.0
 49
12.0
 74
0
 49
-3.0
 74
0
 49
0.0
 74
0
 49
-3.0
 74
0
 49
0.0
 74
0
 49
-3.0
 74
0
  0
LTYPE
  5
40
100
AcDbSymbolTableRecord
100
AcDbLinetypeTableRecord
  2
ACAD_ISO07W100
 70
0
  3
ISO dot . . . . . . . . . . . . . . . . . . . . 
 72
65
 73
2
 40
3.0
 49
0.0
 74
0
 49
-3.0
 74
0
  0
LTYPE
  5
41
100
AcDbSymbolTableRecord
100
AcDbLinetypeTableRecord
  2
HIDDEN
 70
0
  3
Hidden __ __ __ __ __ __ __ __ __ __ __ __ __ __
 72
65
 73
2
 40
9.5249999999999986
 49
6.3499999999999996
 74
0
 49
-3.1749999999999998
 74
0
  0
LTYPE
  5
42
100
AcDbSymbolTableRecord
100
AcDbLinetypeTableRecord
  2
ACAD_ISO06W100
 70
0
  3
ISO long-dash triple-dot ____ ... ____ ... ____
 72
65
 73
8
 40
36.0
 49
24.0
 74
0
 49
-3.0
 74
0
 49
0.0
 74
0
 49
-3.0
 74
0
 49
0.0
 74
0
 49
-3.0
 74
0
 49
0.0
 74
0
 49
-3.0
 74
0
  0
LTYPE
  5
43
100
AcDbSymbolTableRecord
100
AcDbLinetypeTableRecord
  2
CENTER
 70
0
  3
Center ____ _ ____ _ ____ _ ____ _ ____ _ ____
 72
65
 73
4
 40
50.800000000000004
 49
31.75
 74
0
 49
-6.3499999999999996
 74
0
 49
6.3499999999999996
 74
0
 49
-6.3499999999999996
 74
0
  0
LTYPE
  5
44
100
AcDbSymbolTableRecord
100
AcDbLinetypeTableRecord
  2
DOTX2
 70
0
  3
Dot (2x) .  .  .  .  .  .  .  .  .  .  .  .  .  .
 72
65
 73
2
 40
12.699999999999999
 49
0.0
 74
0
 49
-12.699999999999999
 74
0
  0
LTYPE
  5
45
100
AcDbSymbolTableRecord
100
AcDbLinetypeTableRecord
  2
PHANTOM
 70
0
  3
Phantom ______  __  __  ______  __  __  ______ 
 72
65
 73
6
 40
63.500000000000007
 49
31.75
 74
0
 49
-6.3499999999999996
 74
0
 49
6.3499999999999996
 74
0
 49
-6.3499999999999996
 74
0
 49
6.3499999999999996
 74
0
 49
-6.3499999999999996
 74
0
  0
LTYPE
  5
46
100
AcDbSymbolTableRecord
100
AcDbLinetypeTableRecord
  2
ACAD_ISO08W100
 70
0
  3
ISO long-dash short-dash ____ __ ____ __ ____ _
 72
65
 73
4
 40
36.0
 49
24.0
 74
0
 49
-3.0
 74
0
 49
6.0
 74
0
 49
-3.0
 74
0
  0
LTYPE
  5
47
100
AcDbSymbolTableRecord
100
AcDbLinetypeTableRecord
  2
DASHEDX2
 70
0
  3
Dashed (2x) ____  ____  ____  ____  ____  ___
 72
65
 73
2
 40
38.099999999999994
 49
25.399999999999999
 74
0
 49
-12.699999999999999
 74
0
  0
LTYPE
  5
48
100
AcDbSymbolTableRecord
100
AcDbLinetypeTableRecord
  2
ACAD_ISO02W100
 70
0
  3
ISO dash __ __ __ __ __ __ __ __ __ __ __ __ __
 72
65
 73
2
 40
15.0
 49
12.0
 74
0
 49
-3.0
 74
0
  0
LTYPE
  5
49
100
AcDbSymbolTableRecord
100
AcDbLinetypeTableRecord
  2
PHANTOM2
 70
0
  3
Phantom (.5x) ___ _ _ ___ _ _ ___ _ _ ___ _ _
 72
65
 73
6
 40
31.750000000000004
 49
15.875
 74
0
 49
-3.1749999999999998
 74
0
 49
3.1749999999999998
 74
0
 49
-3.1749999999999998
 74
0
 49
3.1749999999999998
 74
0
 49
-3.1749999999999998
 74
0
  0
LTYPE
  5
4A
100
AcDbSymbolTableRecord
100
AcDbLinetypeTableRecord
  2
DASHED2
 70
0
  3
Dashed (.5x) _ _ _ _ _ _ _ _ _ _ _ _ _ _ _ _ _ 
 72
65
 73
2
 40
9.5249999999999986
 49
6.3499999999999996
 74
0
 49
-3.1749999999999998
 74
0
  0
LTYPE
  5
4B
100
AcDbSymbolTableRecord
100
AcDbLinetypeTableRecord
  2
ACAD_ISO09W100
 70
0
  3
ISO long-dash double-short-dash ____ __ __ ____
 72
65
 73
6
 40
45.0
 49
24.0
 74
0
 49
-3.0
 74
0
 49
6.0
 74
0
 49
-3.0
 74
0
 49
6.0
 74
0
 49
-3.0
 74
0
  0
LTYPE
  5
4C
100
AcDbSymbolTableRecord
100
AcDbLinetypeTableRecord
  2
ACAD_ISO13W100
 70
0
  3
ISO double-dash double-dot __ __ . . __ __ . . _
 72
65
 73
8
 40
36.0
 49
12.0
 74
0
 49
-3.0
 74
0
 49
12.0
 74
0
 49
-3.0
 74
0
 49
0.0
 74
0
 49
-3.0
 74
0
 49
0.0
 74
0
 49
-3.0
 74
0
  0
LTYPE
  5
4D
100
AcDbSymbolTableRecord
100
AcDbLinetypeTableRecord
  2
DOT2
 70
0
  3
Dot (.5x) ........................................
 72
65
 73
2
 40
3.1749999999999998
 49
0.0
 74
0
 49
-3.1749999999999998
 74
0
  0
LTYPE
  5
4E
100
AcDbSymbolTableRecord
100
AcDbLinetypeTableRecord
  2
DASHED
 70
0
  3
Dashed __ __ __ __ __ __ __ __ __ __ __ __ __ _
 72
65
 73
2
 40
19.049999999999997
 49
12.699999999999999
 74
0
 49
-6.3499999999999996
 74
0
  0
LTYPE
  5
4F
100
AcDbSymbolTableRecord
100
AcDbLinetypeTableRecord
  2
ACAD_ISO14W100
 70
0
  3
ISO dash triple-dot __ . . . __ . . . __ . . . _
 72
65
 73
8
 40
24.0
 49
12.0
 74
0
 49
-3.0
 74
0
 49
0.0
 74
0
 49
-3.0
 74
0
 49
0.0
 74
0
 49
-3.0
 74
0
 49
0.0
 74
0
 49
-3.0
 74
0
  0
LTYPE
  5
50
100
AcDbSymbolTableRecord
100
AcDbLinetypeTableRecord
  2
PHANTOMX2
 70
0
  3
Phantom (2x) ____________    ____    ____   _
 72
65
 73
6
 40
127.00000000000001
 49
63.5
 74
0
 49
-12.699999999999999
 74
0
 49
12.699999999999999
 74
0
 49
-12.699999999999999
 74
0
 49
12.699999999999999
 74
0
 49
-12.699999999999999
 74
0
  0
LTYPE
  5
51
100
AcDbSymbolTableRecord
100
AcDbLinetypeTableRecord
  2
DIVIDEX2
 70
0
  3
Divide (2x) ________  .  .  ________  .  .  _
 72
65
 73
6
 40
63.5
 49
25.399999999999999
 74
0
 49
-12.699999999999999
 74
0
 49
0.0
 74
0
 49
-12.699999999999999
 74
0
 49
0.0
 74
0
 49
-12.699999999999999
 74
0
  0
LTYPE
  5
52
100
AcDbSymbolTableRecord
100
AcDbLinetypeTableRecord
  2
BORDER
 70
0
  3
Border __ __ . __ __ . __ __ . __ __ . __ __ .
 72
65
 73
6
 40
44.449999999999996
 49
12.699999999999999
 74
0
 49
-6.3499999999999996
 74
0
 49
12.699999999999999
 74
0
 49
-6.3499999999999996
 74
0
 49
0.0
 74
0
 49
-6.3499999999999996
 74
0
  0
LTYPE
  5
53
100
AcDbSymbolTableRecord
100
AcDbLinetypeTableRecord
  2
DIVIDE2
 70
0
  3
Divide (.5x) __..__..__..__..__..__..__..__.._
 72
65
 73
6
 40
15.875
 49
6.3499999999999996
 74
0
 49
-3.1749999999999998
 74
0
 49
0.0
 74
0
 49
-3.1749999999999998
 74
0
 49
0.0
 74
0
 49
-3.1749999999999998
 74
0
  0
LTYPE
  5
54
100
AcDbSymbolTableRecord
100
AcDbLinetypeTableRecord
  2
DOT
 70
0
  3
Dot . . . . . . . . . . . . . . . . . . . . . . . .
 72
65
 73
2
 40
6.3499999999999996
 49
0.0
 74
0
 49
-6.3499999999999996
 74
0
  0
LTYPE
  5
55
100
AcDbSymbolTableRecord
100
AcDbLinetypeTableRecord
  2
DASHDOT
 70
0
  3
Dash dot __ . __ . __ . __ . __ . __ . __ . __
 72
65
 73
4
 40
25.399999999999999
 49
12.699999999999999
 74
0
 49
-6.3499999999999996
 74
0
 49
0.0
 74
0
 49
-6.3499999999999996
 74
0
  0
LTYPE
  5
56
100
AcDbSymbolTableRecord
100
AcDbLinetypeTableRecord
  2
ACAD_ISO03W100
 70
0
  3
ISO dash space __    __    __    __    __    __
 72
65
 73
2
 40
30.0
 49
12.0
 74
0
 49
-18.0
 74
0
  0
LTYPE
  5
15
100
AcDbSymbolTableRecord
100
AcDbLinetypeTableRecord
  2
ByLayer
 70
0
  3

 72
65
 73
0
 40
0.0
  0
ENDTAB
  0
TABLE
  2
LAYER
  5
2
100
AcDbSymbolTable
 70
25
  0
LAYER
  5
57
100
AcDbSymbolTableRecord
100
AcDbLayerTableRecord
  2
BROWN
 70
0
 62
52
420
10066176
  6
CONTINUOUS
370
-3
390
F
  0
LAYER
  5
58
100
AcDbSymbolTableRecord
100
AcDbLayerTableRecord
  2
WHITE
 70
0
 62
7
420
16777215
  6
CONTINUOUS
370
-3
390
F
  0
LAYER
  5
59
100
AcDbSymbolTableRecord
100
AcDbLayerTableRecord
  2
RED
 70
0
 62
1
420
16711680
  6
CONTINUOUS
370
-3
390
F
  0
LAYER
  5
5A
100
AcDbSymbolTableRecord
100
AcDbLayerTableRecord
  2
CYAN
 70
0
 62
4
420
65535
  6
CONTINUOUS
370
-3
390
F
  0
LAYER
  5
5B
100
AcDbSymbolTableRecord
100
AcDbLayerTableRecord
  2
LIGHTBLUE
 70
0
 62
171
420
8355839
  6
CONTINUOUS
370
-3
390
F
  0
LAYER
  5
5C
100
AcDbSymbolTableRecord
100
AcDbLayerTableRecord
  2
MAGENTA
 70
0
 62
6
420
16711935
  6
CONTINUOUS
370
-3
390
F
  0
LAYER
  5
5D
100
AcDbSymbolTableRecord
100
AcDbLayerTableRecord
  2
LIGHTYELLOW
 70
0
 62
51
420
16777087
  6
CONTINUOUS
370
-3
390
F
  0
LAYER
  5
5E
100
AcDbSymbolTableRecord
100
AcDbLayerTableRecord
  2
LIGHTMAGENTA
 70
0
 62
221
420
16744415
  6
CONTINUOUS
370
-3
390
F
  0
LAYER
  5
5F
100
AcDbSymbolTableRecord
100
AcDbLayerTableRecord
  2
BLACK
 70
0
 62
27
420
3355443
  6
CONTINUOUS
370
-3
390
F
  0
LAYER
  5
60
100
AcDbSymbolTableRecord
100
AcDbLayerTableRecord
  2
GREEN
 70
0
 62
3
420
65280
  6
CONTINUOUS
370
-3
390
F
  0
LAYER
  5
61
100
AcDbSymbolTableRecord
100
AcDbLayerTableRecord
  2
DARKGREEN
 70
0
 62
96
420
19456
  6
CONTINUOUS
370
-3
390
F
  0
LAYER
  5
62
100
AcDbSymbolTableRecord
100
AcDbLayerTableRecord
  2
DARKRED
 70
0
 62
16
420
4980736
  6
CONTINUOUS
370
-3
390
F
  0
LAYER
  5
10
100
AcDbSymbolTableRecord
100
AcDbLayerTableRecord
  2
0
 70
0
 62
7
420
16777215
  6
CONTINUOUS
370
-3
390
F
  0
LAYER
  5
63
100
AcDbSymbolTableRecord
100
AcDbLayerTableRecord
  2
DARKMAGENTA
 70
0
 62
226
420
4980793
  6
CONTINUOUS
370
-3
390
F
  0
LAYER
  5
64
100
AcDbSymbolTableRecord
100
AcDbLayerTableRecord
  2
DARKCYAN
 70
0
 62
136
420
19532
  6
CONTINUOUS
370
-3
390
F
  0
LAYER
  5
65
100
AcDbSymbolTableRecord
100
AcDbLayerTableRecord
  2
LIGHTGRAY
 70
0
 62
9
420
12632256
  6
CONTINUOUS
370
-3
390
F
  0
LAYER
  5
66
100
AcDbSymbolTableRecord
100
AcDbLayerTableRecord
  2
DARKBROWN
 70
0
 62
56
420
5000192
  6
CONTINUOUS
370
-3
390
F
  0
LAYER
  5
67
100
AcDbSymbolTableRecord
100
AcDbLayerTableRecord
  2
DARKGRAY
 70
0
 62
8
420
8421504
  6
CONTINUOUS
370
-3
390
F
  0
LAYER
  5
68
100
AcDbSymbolTableRecord
100
AcDbLayerTableRecord
  2
LIGHTGREEN
 70
0
 62
91
420
8388479
  6
CONTINUOUS
370
-3
390
F
  0
LAYER
  5
69
100
AcDbSymbolTableRecord
100
AcDbLayerTableRecord
  2
LIGHTCYAN
 70
0
 62
131
420
8388607
  6
CONTINUOUS
370
-3
390
F
  0
LAYER
  5
6A
100
AcDbSymbolTableRecord
100
AcDbLayerTableRecord
  2
BLUE
 70
0
 62
5
420
255
  6
CONTINUOUS
370
-3
390
F
  0
LAYER
  5
6B
100
AcDbSymbolTableRecord
100
AcDbLayerTableRecord
  2
LIGHTRED
 70
0
 62
11
420
16744319
  6
CONTINUOUS
370
-3
390
F
  0
LAYER
  5
6C
100
AcDbSymbolTableRecord
100
AcDbLayerTableRecord
  2
YELLOW
 70
0
 62
2
420
16776960
  6
CONTINUOUS
370
-3
390
F
  0
LAYER
  5
6D
100
AcDbSymbolTableRecord
100
AcDbLayerTableRecord
  2
DARKBLUE
 70
0
 62
176
420
76
  6
CONTINUOUS
370
-3
390
F
  0
LAYER
  5
6E
100
AcDbSymbolTableRecord
100
AcDbLayerTableRecord
  2
DARKDARKGRAY
 70
0
 62
250
420
5987163
  6
CONTINUOUS
370
-3
390
F
  0
ENDTAB
  0
TABLE
  2
STYLE
  5
3
100
AcDbSymbolTable
 70
1
  0
STYLE
  5
6F
100
AcDbSymbolTableRecord
100
AcDbTextStyleTableRecord
  2
Standard
 70
0
 40
0.0
 41
1.0
 50
0.0
 71
0
 42
2.5
  3

  4

1001
ACAD
1000
txt
1071
0
  0
ENDTAB
  0
TABLE
  2
VIEW
  5
6
100
AcDbSymbolTable
 70
0
  0
ENDTAB
  0
TABLE
  2
UCS
  5
7
100
AcDbSymbolTable
 70
0
  0
ENDTAB
  0
TABLE
  2
APPID
  5
9
100
AcDbSymbolTable
 70
1
  0
APPID
  5
12
100
AcDbSymbolTableRecord
100
AcDbRegAppTableRecord
  2
ACAD
 70
0
  0
APPID
  5
70
100
AcDbSymbolTableRecord
100
AcDbRegAppTableRecord
  2
QCAD
 70
0
  0
ENDTAB
  0
TABLE
  2
DIMSTYLE
  5
A
100
AcDbSymbolTable
 70
1
100
AcDbDimStyleTable
 71
0
  0
DIMSTYLE
105
27
100
AcDbSymbolTableRecord
100
AcDbDimStyleTableRecord
  2
Standard
 41
0.18
 42
0.0625
 43
3.75
 44
0.18
 70
0
 73
0
 74
0
 77
1
 78
8
140
1.0
141
2.5
143
0.03937007874016
147
0.09
171
3
172
1
271
2
272
2
274
3
278
44
283
0
284
8
340
6F
  0
ENDTAB
  0
TABLE
  2
BLOCK_RECORD
  5
1
100
AcDbSymbolTable
 70
1
  0
BLOCK_RECORD
  5
1F
100
AcDbSymbolTableRecord
100
AcDbBlockTableRecord
  2
*Model_Space
340
22
  0
BLOCK_RECORD
  5
1B
100
AcDbSymbolTableRecord
100
AcDbBlockTableRecord
  2
*Paper_Space
340
1E
  0
BLOCK_RECORD
  5
23
100
AcDbSymbolTableRecord
100
AcDbBlockTableRecord
  2
*Paper_Space0
340
26
  0
ENDTAB
  0
ENDSEC
  0
SECTION
  2
BLOCKS
  0
BLOCK
  5
20
100
AcDbEntity
  8
0
100
AcDbBlockBegin
  2
*Model_Space
 70
0
 10
0.0
 20
0.0
 30
0.0
  3
*Model_Space
  1

  0
ENDBLK
  5
21
100
AcDbEntity
  8
0
100
AcDbBlockEnd
  0
BLOCK
  5
1C
100
AcDbEntity
 67
1
  8
0
100
AcDbBlockBegin
  2
*Paper_Space
 70
0
 10
0.0
 20
0.0
 30
0.0
  3
*Paper_Space
  1

  0
ENDBLK
  5
1D
100
AcDbEntity
 67
1
  8
0
100
AcDbBlockEnd
  0
BLOCK
  5
24
100
AcDbEntity
  8
0
100
AcDbBlockBegin
  2
*Paper_Space0
 70
0
 10
0.0
 20
0.0
 30
0.0
  3
*Paper_Space0
  1

  0
ENDBLK
  5
25
100
AcDbEntity
  8
0
100
AcDbBlockEnd
  0
ENDSEC
  0
SECTION
  2
ENTITIES
  0
LINE
  5
71
100
AcDbEntity
100
AcDbLine
  8
BLACK
 62
256
370
-1
 48
1.0
  6
ByLayer
 10
1.905
 20
-26.860499999999998
 30
0.0
 11
5.7149999999999999
 21
-26.860499999999998
 31
0.0
  0
LINE
  5
72
100
AcDbEntity
100
AcDbLine
  8
BLACK
 62
256
370
-1
 48
1.0
  6
ByLayer
 10
1.905
 20
-26.479500000000002
 30
0.0
 11
5.7149999999999999
 21
-26.479500000000002
 31
0.0
  0
ARC
  5
73
100
AcDbEntity
  8
BLACK
 62
256
370
-1
 48
1.0
  6
ByLayer
100
AcDbCircle
 10
5.7149999999999999
 20
-26.670000000000002
 30
0.0
 40
0.1905
100
AcDbArc
 50
270.0
 51
90.0
  0
ARC
  5
74
100
AcDbEntity
  8
BLACK
 62
256
370
-1
 48
1.0
  6
ByLayer
100
AcDbCircle
 10
1.905
 20
-26.670000000000002
 30
0.0
 40
0.1905
100
AcDbArc
 50
90.0
 51
270.0
  0
LINE
  5
75
100
AcDbEntity
100
AcDbLine
  8
BLACK
 62
256
370
-1
 48
1.0
  6
ByLayer
 10
1.905
 20
-15.4305
 30
0.0
 11
5.7149999999999999
 21
-15.4305
 31
0.0
  0
LINE
  5
76
100
AcDbEntity
100
AcDbLine
  8
BLACK
 62
256
370
-1
 48
1.0
  6
ByLayer
 10
1.905
 20
-15.0495
 30
0.0
 11
5.7149999999999999
 21
-15.0495
 31
0.0
  0
ARC
  5
77
100
AcDbEntity
  8
BLACK
 62
256
370
-1
 48
1.0
  6
ByLayer
100
AcDbCircle
 10
5.7149999999999999
 20
-15.24
 30
0.0
 40
0.1905
100
AcDbArc
 50
270.0
 51
90.0
  0
ARC
  5
78
100
AcDbEntity
  8
BLACK
 62
256
370
-1
 48
1.0
  6
ByLayer
100
AcDbCircle
 10
1.905
 20
-15.24
 30
0.0
 40
0.1905
100
AcDbArc
 50
90.0
 51
270.0
  0
LINE
  5
79
100
AcDbEntity
100
AcDbLine
  8
BLACK
 62
256
370
-1
 48
1.0
  6
ByLayer
 10
4.0004999999999997
 20
-29.844999999999999
 30
0.0
 11
4.0004999999999997
 21
-8.2550000000000008
 31
0.0
  0
LINE
  5
7A
100
AcDbEntity
100
AcDbLine
  8
BLACK
 62
256
370
-1
 48
1.0
  6
ByLayer
 10
3.6194999999999999
 20
-29.844999999999999
 30
0.0
 11
3.6194999999999999
 21
-8.2550000000000008
 31
0.0
  0
ARC
  5
7B
100
AcDbEntity
  8
BLACK
 62
256
370
-1
 48
1.0
  6
ByLayer
100
AcDbCircle
 10
3.8100000000000001
 20
-8.2550000000000008
 30
0.0
 40
0.1905
100
AcDbArc
 50
0.0
 51
180.0
  0
ARC
  5
7C
100
AcDbEntity
  8
BLACK
 62
256
370
-1
 48
1.0
  6
ByLayer
100
AcDbCircle
 10
3.8100000000000001
 20
-29.844999999999999
 30
0.0
 40
0.1905
100
AcDbArc
 50
180.0
 51
0.0
  0
LINE
  5
7D
100
AcDbEntity
100
AcDbLine
  8
BLACK
 62
256
370
-1
 48
1.0
  6
ByLayer
 10
21.0
 20
-35.1905
 30
0.0
 11
23.0
 21
-35.1905
 31
0.0
  0
LINE
  5
7E
100
AcDbEntity
100
AcDbLine
  8
BLACK
 62
256
370
-1
 48
1.0
  6
ByLayer
 10
21.0
 20
-34.8095
 30
0.0
 11
23.0
 21
-34.8095
 31
0.0
  0
ARC
  5
7F
100
AcDbEntity
  8
BLACK
 62
256
370
-1
 48
1.0
  6
ByLayer
100
AcDbCircle
 10
23.0
 20
-35.0
 30
0.0
 40
0.1905
100
AcDbArc
 50
270.0
 51
90.0
  0
ARC
  5
80
100
AcDbEntity
  8
BLACK
 62
256
370
-1
 48
1.0
  6
ByLayer
100
AcDbCircle
 10
21.0
 20
-35.0
 30
0.0
 40
0.1905
100
AcDbArc
 50
90.0
 51
270.0
  0
LINE
  5
81
100
AcDbEntity
100
AcDbLine
  8
BLACK
 62
256
370
-1
 48
1.0
  6
ByLayer
 10
22.1905
 20
-36.0
 30
0.0
 11
22.1905
 21
-34.0
 31
0.0
  0
LINE
  5
82
100
AcDbEntity
100
AcDbLine
  8
BLACK
 62
256
370
-1
 48
1.0
  6
ByLayer
 10
21.8095
 20
-36.0
 30
0.0
 11
21.8095
 21
-34.0
 31
0.0
  0
ARC
  5
83
100
AcDbEntity
  8
BLACK
 62
256
370
-1
 48
1.0
  6
ByLayer
100
AcDbCircle
 10
22.0
 20
-34.0
 30
0.0
 40
0.1905
100
AcDbArc
 50
0.0
 51
180.0
  0
ARC
  5
84
100
AcDbEntity
  8
BLACK
 62
256
370
-1
 48
1.0
  6
ByLayer
100
AcDbCircle
 10
22.0
 20
-36.0
 30
0.0
 40
0.1905
100
AcDbArc
 50
180.0
 51
0.0
  0
LINE
  5
85
100
AcDbEntity
100
AcDbLine
  8
BLACK
 62
256
370
-1
 48
1.0
  6
ByLayer
 10
4.1905000000000001
 20
-36.0
 30
0.0
 11
4.1905000000000001
 21
-34.0
 31
0.0
  0
LINE
  5
86
100
AcDbEntity
100
AcDbLine
  8
BLACK
 62
256
370
-1
 48
1.0
  6
ByLayer
 10
3.8094999999999999
 20
-36.0
 30
0.0
 11
3.8094999999999999
 21
-34.0
 31
0.0
  0
ARC
  5
87
100
AcDbEntity
  8
BLACK
 62
256
370
-1
 48
1.0
  6
ByLayer
100
AcDbCircle
 10
4.0
 20
-34.0
 30
0.0
 40
0.1905
100
AcDbArc
 50
0.0
 51
180.0
  0
ARC
  5
88
100
AcDbEntity
  8
BLACK
 62
256
370
-1
 48
1.0
  6
ByLayer
100
AcDbCircle
 10
4.0
 20
-36.0
 30
0.0
 40
0.1905
100
AcDbArc
 50
180.0
 51
0.0
  0
LINE
  5
89
100
AcDbEntity
100
AcDbLine
  8
BLACK
 62
256
370
-1
 48
1.0
  6
ByLayer
 10
3.0
 20
-35.1905
 30
0.0
 11
5.0
 21
-35.1905
 31
0.0
  0
LINE
  5
8A
100
AcDbEntity
100
AcDbLine
  8
BLACK
 62
256
370
-1
 48
1.0
  6
ByLayer
 10
3.0
 20
-34.8095
 30
0.0
 11
5.0
 21
-34.8095
 31
0.0
  0
ARC
  5
8B
100
AcDbEntity
  8
BLACK
 62
256
370
-1
 48
1.0
  6
ByLayer
100
AcDbCircle
 10
5.0
 20
-35.0
 30
0.0
 40
0.1905
100
AcDbArc
 50
270.0
 51
90.0
  0
ARC
  5
8C
100
AcDbEntity
  8
BLACK
 62
256
370
-1
 48
1.0
  6
ByLayer
100
AcDbCircle
 10
3.0
 20
-35.0
 30
0.0
 40
0.1905
100
AcDbArc
 50
90.0
 51
270.0
  0
LINE
  5
8D
100
AcDbEntity
100
AcDbLine
  8
BLACK
 62
256
370
-1
 48
1.0
  6
ByLayer
 10
22.1905
 20
-5.0
 30
0.0
 11
22.1905
 21
-3.0
 31
0.0
  0
LINE
  5
8E
100
AcDbEntity
100
AcDbLine
  8
BLACK
 62
256
370
-1
 48
1.0
  6
ByLayer
 10
21.8095
 20
-5.0
 30
0.0
 11
21.8095
 21
-3.0
 31
0.0
  0
ARC
  5
8F
100
AcDbEntity
  8
BLACK
 62
256
370
-1
 48
1.0
  6
ByLayer
100
AcDbCircle
 10
22.0
 20
-3.0
 30
0.0
 40
0.1905
100
AcDbArc
 50
0.0
 51
180.0
  0
ARC
  5
90
100
AcDbEntity
  8
BLACK
 62
256
370
-1
 48
1.0
  6
ByLayer
100
AcDbCircle
 10
22.0
 20
-5.0
 30
0.0
 40
0.1905
100
AcDbArc
 50
180.0
 51
0.0
  0
LINE
  5
91
100
AcDbEntity
100
AcDbLine
  8
BLACK
 62
256
370
-1
 48
1.0
  6
ByLayer
 10
21.0
 20
-4.1905000000000001
 30
0.0
 11
23.0
 21
-4.1905000000000001
 31
0.0
  0
LINE
  5
92
100
AcDbEntity
100
AcDbLine
  8
BLACK
 62
256
370
-1
 48
1.0
  6
ByLayer
 10
21.0
 20
-3.8094999999999999
 30
0.0
 11
23.0
 21
-3.8094999999999999
 31
0.0
  0
ARC
  5
93
100
AcDbEntity
  8
BLACK
 62
256
370
-1
 48
1.0
  6
ByLayer
100
AcDbCircle
 10
23.0
 20
-4.0
 30
0.0
 40
0.1905
100
AcDbArc
 50
270.0
 51
90.0
  0
ARC
  5
94
100
AcDbEntity
  8
BLACK
 62
256
370
-1
 48
1.0
  6
ByLayer
100
AcDbCircle
 10
21.0
 20
-4.0
 30
0.0
 40
0.1905
100
AcDbArc
 50
90.0
 51
270.0
  0
LINE
  5
95
100
AcDbEntity
100
AcDbLine
  8
BLACK
 62
256
370
-1
 48
1.0
  6
ByLayer
 10
4.1905000000000001
 20
-5.0
 30
0.0
 11
4.1905000000000001
 21
-3.0
 31
0.0
  0
LINE
  5
96
100
AcDbEntity
100
AcDbLine
  8
BLACK
 62
256
370
-1
 48
1.0
  6
ByLayer
 10
3.8094999999999999
 20
-5.0
 30
0.0
 11
3.8094999999999999
 21
-3.0
 31
0.0
  0
ARC
  5
97
100
AcDbEntity
  8
BLACK
 62
256
370
-1
 48
1.0
  6
ByLayer
100
AcDbCircle
 10
4.0
 20
-3.0
 30
0.0
 40
0.1905
100
AcDbArc
 50
0.0
 51
180.0
  0
ARC
  5
98
100
AcDbEntity
  8
BLACK
 62
256
370
-1
 48
1.0
  6
ByLayer
100
AcDbCircle
 10
4.0
 20
-5.0
 30
0.0
 40
0.1905
100
AcDbArc
 50
180.0
 51
0.0
  0
LINE
  5
99
100
AcDbEntity
100
AcDbLine
  8
BLACK
 62
256
370
-1
 48
1.0
  6
ByLayer
 10
3.0
 20
-4.1905000000000001
 30
0.0
 11
5.0
 21
-4.1905000000000001
 31
0.0
  0
LINE
  5
9A
100
AcDbEntity
100
AcDbLine
  8
BLACK
 62
256
370
-1
 48
1.0
  6
ByLayer
 10
3.0
 20
-3.8094999999999999
 30
0.0
 11
5.0
 21
-3.8094999999999999
 31
0.0
  0
ARC
  5
9B
100
AcDbEntity
  8
BLACK
 62
256
370
-1
 48
1.0
  6
ByLayer
100
AcDbCircle
 10
5.0
 20
-4.0
 30
0.0
 40
0.1905
100
AcDbArc
 50
270.0
 51
90.0
  0
ARC
  5
9C
100
AcDbEntity
  8
BLACK
 62
256
370
-1
 48
1.0
  6
ByLayer
100
AcDbCircle
 10
3.0
 20
-4.0
 30
0.0
 40
0.1905
100
AcDbArc
 50
90.0
 51
270.0
  0
LINE
  5
9D
100
AcDbEntity
100
AcDbLine
  8
BLACK
 62
256
370
-1
 48
1.0
  6
ByLayer
 10
0.1905
 20
-39.0
 30
0.0
 11
0.1905
 21
0.0
 31
0.0
  0
LINE
  5
9E
100
AcDbEntity
100
AcDbLine
  8
BLACK
 62
256
370
-1
 48
1.0
  6
ByLayer
 10
-0.1905
 20
-39.0
 30
0.0
 11
-0.1905
 21
0.0
 31
0.0
  0
ARC
  5
9F
100
AcDbEntity
  8
BLACK
 62
256
370
-1
 48
1.0
  6
ByLayer
100
AcDbCircle
 10
0.0
 20
0.0
 30
0.0
 40
0.1905
100
AcDbArc
 50
0.0
 51
180.0
  0
ARC
  5
A0
100
AcDbEntity
  8
BLACK
 62
256
370
-1
 48
1.0
  6
ByLayer
100
AcDbCircle
 10
0.0
 20
-39.0
 30
0.0
 40
0.1905
100
AcDbArc
 50
180.0
 51
0.0
  0
LINE
  5
A1
100
AcDbEntity
100
AcDbLine
  8
BLACK
 62
256
370
-1
 48
1.0
  6
ByLayer
 10
0.0
 20
-39.1905
 30
0.0
 11
26.0
 21
-39.1905
 31
0.0
  0
LINE
  5
A2
100
AcDbEntity
100
AcDbLine
  8
BLACK
 62
256
370
-1
 48
1.0
  6
ByLayer
 10
0.0
 20
-38.8095
 30
0.0
 11
26.0
 21
-38.8095
 31
0.0
  0
ARC
  5
A3
100
AcDbEntity
  8
BLACK
 62
256
370
-1
 48
1.0
  6
ByLayer
100
AcDbCircle
 10
26.0
 20
-39.0
 30
0.0
 40
0.1905
100
AcDbArc
 50
270.0
 51
90.0
  0
ARC
  5
A4
100
AcDbEntity
  8
BLACK
 62
256
370
-1
 48
1.0
  6
ByLayer
100
AcDbCircle
 10
0.0
 20
-39.0
 30
0.0
 40
0.1905
100
AcDbArc
 50
90.0
 51
270.0
  0
LINE
  5
A5
100
AcDbEntity
100
AcDbLine
  8
BLACK
 62
256
370
-1
 48
1.0
  6
ByLayer
 10
26.1905
 20
-39.0
 30
0.0
 11
26.1905
 21
0.0
 31
0.0
  0
LINE
  5
A6
100
AcDbEntity
100
AcDbLine
  8
BLACK
 62
256
370
-1
 48
1.0
  6
ByLayer
 10
25.8095
 20
-39.0
 30
0.0
 11
25.8095
 21
0.0
 31
0.0
  0
ARC
  5
A7
100
AcDbEntity
  8
BLACK
 62
256
370
-1
 48
1.0
  6
ByLayer
100
AcDbCircle
 10
26.0
 20
0.0
 30
0.0
 40
0.1905
100
AcDbArc
 50
0.0
 51
180.0
  0
ARC
  5
A8
100
AcDbEntity
  8
BLACK
 62
256
370
-1
 48
1.0
  6
ByLayer
100
AcDbCircle
 10
26.0
 20
-39.0
 30
0.0
 40
0.1905
100
AcDbArc
 50
180.0
 51
0.0
  0
LINE
  5
A9
100
AcDbEntity
100
AcDbLine
  8
BLACK
 62
256
370
-1
 48
1.0
  6
ByLayer
 10
0.0
 20
-0.1905
 30
0.0
 11
26.0
 21
-0.1905
 31
0.0
  0
LINE
  5
AA
100
AcDbEntity
100
AcDbLine
  8
BLACK
 62
256
370
-1
 48
1.0
  6
ByLayer
 10
0.0
 20
0.1905
 30
0.0
 11
26.0
 21
0.1905
 31
0.0
  0
ARC
  5
AB
100
AcDbEntity
  8
BLACK
 62
256
370
-1
 48
1.0
  6
ByLayer
100
AcDbCircle
 10
26.0
 20
0.0
 30
0.0
 40
0.1905
100
AcDbArc
 50
270.0
 51
90.0
  0
ARC
  5
AC
100
AcDbEntity
  8
BLACK
 62
256
370
-1
 48
1.0
  6
ByLayer
100
AcDbCircle
 10
0.0
 20
0.0
 30
0.0
 40
0.1905
100
AcDbArc
 50
90.0
 51
270.0
  0
LINE
  5
AD
100
AcDbEntity
100
AcDbLine
  8
BLACK
 62
256
370
-1
 48
1.0
  6
ByLayer
 10
13.525499999999999
 20
-35.560000000000002
 30
0.0
 11
13.525499999999999
 21
-33.020000000000003
 31
0.0
  0
LINE
  5
AE
100
AcDbEntity
100
AcDbLine
  8
BLACK
 62
256
370
-1
 48
1.0
  6
ByLayer
 10
13.144500000000001
 20
-35.560000000000002
 30
0.0
 11
13.144500000000001
 21
-33.020000000000003
 31
0.0
  0
ARC
  5
AF
100
AcDbEntity
  8
BLACK
 62
256
370
-1
 48
1.0
  6
ByLayer
100
AcDbCircle
 10
13.335000000000001
 20
-33.020000000000003
 30
0.0
 40
0.1905
100
AcDbArc
 50
0.0
 51
180.0
  0
ARC
  5
B0
100
AcDbEntity
  8
BLACK
 62
256
370
-1
 48
1.0
  6
ByLayer
100
AcDbCircle
 10
13.335000000000001
 20
-35.560000000000002
 30
0.0
 40
0.1905
100
AcDbArc
 50
180.0
 51
0.0
  0
LINE
  5
B1
100
AcDbEntity
100
AcDbLine
  8
BLACK
 62
256
370
-1
 48
1.0
  6
ByLayer
 10
12.065
 20
-34.480499999999999
 30
0.0
 11
14.605
 21
-34.480499999999999
 31
0.0
  0
LINE
  5
B2
100
AcDbEntity
100
AcDbLine
  8
BLACK
 62
256
370
-1
 48
1.0
  6
ByLayer
 10
12.065
 20
-34.099499999999999
 30
0.0
 11
14.605
 21
-34.099499999999999
 31
0.0
  0
ARC
  5
B3
100
AcDbEntity
  8
BLACK
 62
256
370
-1
 48
1.0
  6
ByLayer
100
AcDbCircle
 10
14.605
 20
-34.289999999999999
 30
0.0
 40
0.1905
100
AcDbArc
 50
270.0
 51
90.0
  0
ARC
  5
B4
100
AcDbEntity
  8
BLACK
 62
256
370
-1
 48
1.0
  6
ByLayer
100
AcDbCircle
 10
12.065
 20
-34.289999999999999
 30
0.0
 40
0.1905
100
AcDbArc
 50
90.0
 51
270.0
  0
LINE
  5
B5
100
AcDbEntity
100
AcDbLine
  8
BLACK
 62
256
370
-1
 48
1.0
  6
ByLayer
 10
12.065
 20
-4.6355000000000004
 30
0.0
 11
14.605
 21
-4.6355000000000004
 31
0.0
  0
LINE
  5
B6
100
AcDbEntity
100
AcDbLine
  8
BLACK
 62
256
370
-1
 48
1.0
  6
ByLayer
 10
12.065
 20
-4.2545000000000002
 30
0.0
 11
14.605
 21
-4.2545000000000002
 31
0.0
  0
ARC
  5
B7
100
AcDbEntity
  8
BLACK
 62
256
370
-1
 48
1.0
  6
ByLayer
100
AcDbCircle
 10
14.605
 20
-4.4450000000000003
 30
0.0
 40
0.1905
100
AcDbArc
 50
270.0
 51
90.0
  0
ARC
  5
B8
100
AcDbEntity
  8
BLACK
 62
256
370
-1
 48
1.0
  6
ByLayer
100
AcDbCircle
 10
12.065
 20
-4.4450000000000003
 30
0.0
 40
0.1905
100
AcDbArc
 50
90.0
 51
270.0
  0
LINE
  5
B9
100
AcDbEntity
100
AcDbLine
  8
BLACK
 62
256
370
-1
 48
1.0
  6
ByLayer
 10
13.525499999999999
 20
-5.7149999999999999
 30
0.0
 11
13.525499999999999
 21
-3.1749999999999998
 31
0.0
  0
LINE
  5
BA
100
AcDbEntity
100
AcDbLine
  8
BLACK
 62
256
370
-1
 48
1.0
  6
ByLayer
 10
13.144500000000001
 20
-5.7149999999999999
 30
0.0
 11
13.144500000000001
 21
-3.1749999999999998
 31
0.0
  0
ARC
  5
BB
100
AcDbEntity
  8
BLACK
 62
256
370
-1
 48
1.0
  6
ByLayer
100
AcDbCircle
 10
13.335000000000001
 20
-3.1749999999999998
 30
0.0
 40
0.1905
100
AcDbArc
 50
0.0
 51
180.0
  0
ARC
  5
BC
100
AcDbEntity
  8
BLACK
 62
256
370
-1
 48
1.0
  6
ByLayer
100
AcDbCircle
 10
13.335000000000001
 20
-5.7149999999999999
 30
0.0
 40
0.1905
100
AcDbArc
 50
180.0
 51
0.0
  0
LINE
  5
BD
100
AcDbEntity
100
AcDbLine
  8
BLACK
 62
256
370
-1
 48
1.0
  6
ByLayer
 10
30.093399999999999
 20
-6.8622899999999998
 30
0.0
 11
31.4481
 21
-6.8622899999999998
 31
0.0
  0
LINE
  5
BE
100
AcDbEntity
100
AcDbLine
  8
BLACK
 62
256
370
-1
 48
1.0
  6
ByLayer
 10
29.319299999999998
 20
-7.2251399999999997
 30
0.0
 11
30.770700000000001
 21
-7.5880000000000001
 31
0.0
  0
LINE
  5
BF
100
AcDbEntity
100
AcDbLine
  8
BLACK
 62
256
370
-1
 48
1.0
  6
ByLayer
 10
30.770700000000001
 20
-7.5880000000000001
 30
0.0
 11
30.770700000000001
 21
-6.6445699999999999
 31
0.0
  0
LINE
  5
C0
100
AcDbEntity
100
AcDbLine
  8
BLACK
 62
256
370
-1
 48
1.0
  6
ByLayer
 10
31.2546
 20
-6.0640000000000001
 30
0.0
 11
31.351299999999998
 21
-5.9914300000000003
 31
0.0
  0
LINE
  5
C1
100
AcDbEntity
100
AcDbLine
  8
BLACK
 62
256
370
-1
 48
1.0
  6
ByLayer
 10
31.351299999999998
 20
-5.9914300000000003
 30
0.0
 11
31.4481
 21
-6.0640000000000001
 31
0.0
  0
LINE
  5
C2
100
AcDbEntity
100
AcDbLine
  8
BLACK
 62
256
370
-1
 48
1.0
  6
ByLayer
 10
31.4481
 20
-6.0640000000000001
 30
0.0
 11
31.351299999999998
 21
-6.1365699999999999
 31
0.0
  0
LINE
  5
C3
100
AcDbEntity
100
AcDbLine
  8
BLACK
 62
256
370
-1
 48
1.0
  6
ByLayer
 10
31.351299999999998
 20
-6.1365699999999999
 30
0.0
 11
31.2546
 21
-6.0640000000000001
 31
0.0
  0
LINE
  5
C4
100
AcDbEntity
100
AcDbLine
  8
BLACK
 62
256
370
-1
 48
1.0
  6
ByLayer
 10
31.2546
 20
-6.0640000000000001
 30
0.0
 11
31.4481
 21
-6.0640000000000001
 31
0.0
  0
LINE
  5
C5
100
AcDbEntity
100
AcDbLine
  8
BLACK
 62
256
370
-1
 48
1.0
  6
ByLayer
 10
29.4161
 20
-5.048
 30
0.0
 11
29.4161
 21
-4.9028600000000004
 31
0.0
  0
LINE
  5
C6
100
AcDbEntity
100
AcDbLine
  8
BLACK
 62
256
370
-1
 48
1.0
  6
ByLayer
 10
29.4161
 20
-4.9028600000000004
 30
0.0
 11
29.512799999999999
 21
-4.7577100000000003
 31
0.0
  0
LINE
  5
C7
100
AcDbEntity
100
AcDbLine
  8
BLACK
 62
256
370
-1
 48
1.0
  6
ByLayer
 10
29.512799999999999
 20
-4.7577100000000003
 30
0.0
 11
29.6096
 21
-4.6851399999999996
 31
0.0
  0
LINE
  5
C8
100
AcDbEntity
100
AcDbLine
  8
BLACK
 62
256
370
-1
 48
1.0
  6
ByLayer
 10
29.6096
 20
-4.6851399999999996
 30
0.0
 11
29.803100000000001
 21
-4.6125699999999998
 31
0.0
  0
LINE
  5
C9
100
AcDbEntity
100
AcDbLine
  8
BLACK
 62
256
370
-1
 48
1.0
  6
ByLayer
 10
29.803100000000001
 20
-4.6125699999999998
 30
0.0
 11
30.190200000000001
 21
-4.54
 31
0.0
  0
LINE
  5
CA
100
AcDbEntity
100
AcDbLine
  8
BLACK
 62
256
370
-1
 48
1.0
  6
ByLayer
 10
30.190200000000001
 20
-4.54
 30
0.0
 11
30.673999999999999
 21
-4.54
 31
0.0
  0
LINE
  5
CB
100
AcDbEntity
100
AcDbLine
  8
BLACK
 62
256
370
-1
 48
1.0
  6
ByLayer
 10
30.673999999999999
 20
-4.54
 30
0.0
 11
31.061
 21
-4.6125699999999998
 31
0.0
  0
LINE
  5
CC
100
AcDbEntity
100
AcDbLine
  8
BLACK
 62
256
370
-1
 48
1.0
  6
ByLayer
 10
31.061
 20
-4.6125699999999998
 30
0.0
 11
31.2546
 21
-4.6851399999999996
 31
0.0
  0
LINE
  5
CD
100
AcDbEntity
100
AcDbLine
  8
BLACK
 62
256
370
-1
 48
1.0
  6
ByLayer
 10
31.2546
 20
-4.6851399999999996
 30
0.0
 11
31.351299999999998
 21
-4.7577100000000003
 31
0.0
  0
LINE
  5
CE
100
AcDbEntity
100
AcDbLine
  8
BLACK
 62
256
370
-1
 48
1.0
  6
ByLayer
 10
31.351299999999998
 20
-4.7577100000000003
 30
0.0
 11
31.4481
 21
-4.9028600000000004
 31
0.0
  0
LINE
  5
CF
100
AcDbEntity
100
AcDbLine
  8
BLACK
 62
256
370
-1
 48
1.0
  6
ByLayer
 10
31.4481
 20
-4.9028600000000004
 30
0.0
 11
31.4481
 21
-5.048
 31
0.0
  0
LINE
  5
D0
100
AcDbEntity
100
AcDbLine
  8
BLACK
 62
256
370
-1
 48
1.0
  6
ByLayer
 10
31.4481
 20
-5.048
 30
0.0
 11
31.351299999999998
 21
-5.1931399999999996
 31
0.0
  0
LINE
  5
D1
100
AcDbEntity
100
AcDbLine
  8
BLACK
 62
256
370
-1
 48
1.0
  6
ByLayer
 10
31.351299999999998
 20
-5.1931399999999996
 30
0.0
 11
31.2546
 21
-5.2657100000000003
 31
0.0
  0
LINE
  5
D2
100
AcDbEntity
100
AcDbLine
  8
BLACK
 62
256
370
-1
 48
1.0
  6
ByLayer
 10
31.2546
 20
-5.2657100000000003
 30
0.0
 11
31.061
 21
-5.3382899999999998
 31
0.0
  0
LINE
  5
D3
100
AcDbEntity
100
AcDbLine
  8
BLACK
 62
256
370
-1
 48
1.0
  6
ByLayer
 10
31.061
 20
-5.3382899999999998
 30
0.0
 11
30.673999999999999
 21
-5.4108599999999996
 31
0.0
  0
LINE
  5
D4
100
AcDbEntity
100
AcDbLine
  8
BLACK
 62
256
370
-1
 48
1.0
  6
ByLayer
 10
30.673999999999999
 20
-5.4108599999999996
 30
0.0
 11
30.190200000000001
 21
-5.4108599999999996
 31
0.0
  0
LINE
  5
D5
100
AcDbEntity
100
AcDbLine
  8
BLACK
 62
256
370
-1
 48
1.0
  6
ByLayer
 10
30.190200000000001
 20
-5.4108599999999996
 30
0.0
 11
29.803100000000001
 21
-5.3382899999999998
 31
0.0
  0
LINE
  5
D6
100
AcDbEntity
100
AcDbLine
  8
BLACK
 62
256
370
-1
 48
1.0
  6
ByLayer
 10
29.803100000000001
 20
-5.3382899999999998
 30
0.0
 11
29.6096
 21
-5.2657100000000003
 31
0.0
  0
LINE
  5
D7
100
AcDbEntity
100
AcDbLine
  8
BLACK
 62
256
370
-1
 48
1.0
  6
ByLayer
 10
29.6096
 20
-5.2657100000000003
 30
0.0
 11
29.512799999999999
 21
-5.1931399999999996
 31
0.0
  0
LINE
  5
D8
100
AcDbEntity
100
AcDbLine
  8
BLACK
 62
256
370
-1
 48
1.0
  6
ByLayer
 10
29.512799999999999
 20
-5.1931399999999996
 30
0.0
 11
29.4161
 21
-5.048
 31
0.0
  0
LINE
  5
D9
100
AcDbEntity
100
AcDbLine
  8
BLACK
 62
256
370
-1
 48
1.0
  6
ByLayer
 10
29.4161
 20
-3.5965699999999998
 30
0.0
 11
29.4161
 21
-3.4514300000000002
 31
0.0
  0
LINE
  5
DA
100
AcDbEntity
100
AcDbLine
  8
BLACK
 62
256
370
-1
 48
1.0
  6
ByLayer
 10
29.4161
 20
-3.4514300000000002
 30
0.0
 11
29.512799999999999
 21
-3.3062900000000002
 31
0.0
  0
LINE
  5
DB
100
AcDbEntity
100
AcDbLine
  8
BLACK
 62
256
370
-1
 48
1.0
  6
ByLayer
 10
29.512799999999999
 20
-3.3062900000000002
 30
0.0
 11
29.6096
 21
-3.2337099999999999
 31
0.0
  0
LINE
  5
DC
100
AcDbEntity
100
AcDbLine
  8
BLACK
 62
256
370
-1
 48
1.0
  6
ByLayer
 10
29.6096
 20
-3.2337099999999999
 30
0.0
 11
29.803100000000001
 21
-3.1611400000000001
 31
0.0
  0
LINE
  5
DD
100
AcDbEntity
100
AcDbLine
  8
BLACK
 62
256
370
-1
 48
1.0
  6
ByLayer
 10
29.803100000000001
 20
-3.1611400000000001
 30
0.0
 11
30.190200000000001
 21
-3.0885699999999998
 31
0.0
  0
LINE
  5
DE
100
AcDbEntity
100
AcDbLine
  8
BLACK
 62
256
370
-1
 48
1.0
  6
ByLayer
 10
30.190200000000001
 20
-3.0885699999999998
 30
0.0
 11
30.673999999999999
 21
-3.0885699999999998
 31
0.0
  0
LINE
  5
DF
100
AcDbEntity
100
AcDbLine
  8
BLACK
 62
256
370
-1
 48
1.0
  6
ByLayer
 10
30.673999999999999
 20
-3.0885699999999998
 30
0.0
 11
31.061
 21
-3.1611400000000001
 31
0.0
  0
LINE
  5
E0
100
AcDbEntity
100
AcDbLine
  8
BLACK
 62
256
370
-1
 48
1.0
  6
ByLayer
 10
31.061
 20
-3.1611400000000001
 30
0.0
 11
31.2546
 21
-3.2337099999999999
 31
0.0
  0
LINE
  5
E1
100
AcDbEntity
100
AcDbLine
  8
BLACK
 62
256
370
-1
 48
1.0
  6
ByLayer
 10
31.2546
 20
-3.2337099999999999
 30
0.0
 11
31.351299999999998
 21
-3.3062900000000002
 31
0.0
  0
LINE
  5
E2
100
AcDbEntity
100
AcDbLine
  8
BLACK
 62
256
370
-1
 48
1.0
  6
ByLayer
 10
31.351299999999998
 20
-3.3062900000000002
 30
0.0
 11
31.4481
 21
-3.4514300000000002
 31
0.0
  0
LINE
  5
E3
100
AcDbEntity
100
AcDbLine
  8
BLACK
 62
256
370
-1
 48
1.0
  6
ByLayer
 10
31.4481
 20
-3.4514300000000002
 30
0.0
 11
31.4481
 21
-3.5965699999999998
 31
0.0
  0
LINE
  5
E4
100
AcDbEntity
100
AcDbLine
  8
BLACK
 62
256
370
-1
 48
1.0
  6
ByLayer
 10
31.4481
 20
-3.5965699999999998
 30
0.0
 11
31.351299999999998
 21
-3.7417099999999999
 31
0.0
  0
LINE
  5
E5
100
AcDbEntity
100
AcDbLine
  8
BLACK
 62
256
370
-1
 48
1.0
  6
ByLayer
 10
31.351299999999998
 20
-3.7417099999999999
 30
0.0
 11
31.2546
 21
-3.8142900000000002
 31
0.0
  0
LINE
  5
E6
100
AcDbEntity
100
AcDbLine
  8
BLACK
 62
256
370
-1
 48
1.0
  6
ByLayer
 10
31.2546
 20
-3.8142900000000002
 30
0.0
 11
31.061
 21
-3.88686
 31
0.0
  0
LINE
  5
E7
100
AcDbEntity
100
AcDbLine
  8
BLACK
 62
256
370
-1
 48
1.0
  6
ByLayer
 10
31.061
 20
-3.88686
 30
0.0
 11
30.673999999999999
 21
-3.9594299999999998
 31
0.0
  0
LINE
  5
E8
100
AcDbEntity
100
AcDbLine
  8
BLACK
 62
256
370
-1
 48
1.0
  6
ByLayer
 10
30.673999999999999
 20
-3.9594299999999998
 30
0.0
 11
30.190200000000001
 21
-3.9594299999999998
 31
0.0
  0
LINE
  5
E9
100
AcDbEntity
100
AcDbLine
  8
BLACK
 62
256
370
-1
 48
1.0
  6
ByLayer
 10
30.190200000000001
 20
-3.9594299999999998
 30
0.0
 11
29.803100000000001
 21
-3.88686
 31
0.0
  0
LINE
  5
EA
100
AcDbEntity
100
AcDbLine
  8
BLACK
 62
256
370
-1
 48
1.0
  6
ByLayer
 10
29.803100000000001
 20
-3.88686
 30
0.0
 11
29.6096
 21
-3.8142900000000002
 31
0.0
  0
LINE
  5
EB
100
AcDbEntity
100
AcDbLine
  8
BLACK
 62
256
370
-1
 48
1.0
  6
ByLayer
 10
29.6096
 20
-3.8142900000000002
 30
0.0
 11
29.512799999999999
 21
-3.7417099999999999
 31
0.0
  0
LINE
  5
EC
100
AcDbEntity
100
AcDbLine
  8
BLACK
 62
256
370
-1
 48
1.0
  6
ByLayer
 10
29.512799999999999
 20
-3.7417099999999999
 30
0.0
 11
29.4161
 21
-3.5965699999999998
 31
0.0
  0
LINE
  5
ED
100
AcDbEntity
100
AcDbLine
  8
BLACK
 62
256
370
-1
 48
1.0
  6
ByLayer
 10
29.4161
 20
-2.14514
 30
0.0
 11
29.4161
 21
-2.0
 31
0.0
  0
LINE
  5
EE
100
AcDbEntity
100
AcDbLine
  8
BLACK
 62
256
370
-1
 48
1.0
  6
ByLayer
 10
29.4161
 20
-2.0
 30
0.0
 11
29.512799999999999
 21
-1.85486
 31
0.0
  0
LINE
  5
EF
100
AcDbEntity
100
AcDbLine
  8
BLACK
 62
256
370
-1
 48
1.0
  6
ByLayer
 10
29.512799999999999
 20
-1.85486
 30
0.0
 11
29.6096
 21
-1.7822899999999999
 31
0.0
  0
LINE
  5
F0
100
AcDbEntity
100
AcDbLine
  8
BLACK
 62
256
370
-1
 48
1.0
  6
ByLayer
 10
29.6096
 20
-1.7822899999999999
 30
0.0
 11
29.803100000000001
 21
-1.7097100000000001
 31
0.0
  0
LINE
  5
F1
100
AcDbEntity
100
AcDbLine
  8
BLACK
 62
256
370
-1
 48
1.0
  6
ByLayer
 10
29.803100000000001
 20
-1.7097100000000001
 30
0.0
 11
30.190200000000001
 21
-1.63714
 31
0.0
  0
LINE
  5
F2
100
AcDbEntity
100
AcDbLine
  8
BLACK
 62
256
370
-1
 48
1.0
  6
ByLayer
 10
30.190200000000001
 20
-1.63714
 30
0.0
 11
30.673999999999999
 21
-1.63714
 31
0.0
  0
LINE
  5
F3
100
AcDbEntity
100
AcDbLine
  8
BLACK
 62
256
370
-1
 48
1.0
  6
ByLayer
 10
30.673999999999999
 20
-1.63714
 30
0.0
 11
31.061
 21
-1.7097100000000001
 31
0.0
  0
LINE
  5
F4
100
AcDbEntity
100
AcDbLine
  8
BLACK
 62
256
370
-1
 48
1.0
  6
ByLayer
 10
31.061
 20
-1.7097100000000001
 30
0.0
 11
31.2546
 21
-1.7822899999999999
 31
0.0
  0
LINE
  5
F5
100
AcDbEntity
100
AcDbLine
  8
BLACK
 62
256
370
-1
 48
1.0
  6
ByLayer
 10
31.2546
 20
-1.7822899999999999
 30
0.0
 11
31.351299999999998
 21
-1.85486
 31
0.0
  0
LINE
  5
F6
100
AcDbEntity
100
AcDbLine
  8
BLACK
 62
256
370
-1
 48
1.0
  6
ByLayer
 10
31.351299999999998
 20
-1.85486
 30
0.0
 11
31.4481
 21
-2.0
 31
0.0
  0
LINE
  5
F7
100
AcDbEntity
100
AcDbLine
  8
BLACK
 62
256
370
-1
 48
1.0
  6
ByLayer
 10
31.4481
 20
-2.0
 30
0.0
 11
31.4481
 21
-2.14514
 31
0.0
  0
LINE
  5
F8
100
AcDbEntity
100
AcDbLine
  8
BLACK
 62
256
370
-1
 48
1.0
  6
ByLayer
 10
31.4481
 20
-2.14514
 30
0.0
 11
31.351299999999998
 21
-2.2902900000000002
 31
0.0
  0
LINE
  5
F9
100
AcDbEntity
100
AcDbLine
  8
BLACK
 62
256
370
-1
 48
1.0
  6
ByLayer
 10
31.351299999999998
 20
-2.2902900000000002
 30
0.0
 11
31.2546
 21
-2.36286
 31
0.0
  0
LINE
  5
FA
100
AcDbEntity
100
AcDbLine
  8
BLACK
 62
256
370
-1
 48
1.0
  6
ByLayer
 10
31.2546
 20
-2.36286
 30
0.0
 11
31.061
 21
-2.4354300000000002
 31
0.0
  0
LINE
  5
FB
100
AcDbEntity
100
AcDbLine
  8
BLACK
 62
256
370
-1
 48
1.0
  6
ByLayer
 10
31.061
 20
-2.4354300000000002
 30
0.0
 11
30.673999999999999
 21
-2.508
 31
0.0
  0
LINE
  5
FC
100
AcDbEntity
100
AcDbLine
  8
BLACK
 62
256
370
-1
 48
1.0
  6
ByLayer
 10
30.673999999999999
 20
-2.508
 30
0.0
 11
30.190200000000001
 21
-2.508
 31
0.0
  0
LINE
  5
FD
100
AcDbEntity
100
AcDbLine
  8
BLACK
 62
256
370
-1
 48
1.0
  6
ByLayer
 10
30.190200000000001
 20
-2.508
 30
0.0
 11
29.803100000000001
 21
-2.4354300000000002
 31
0.0
  0
LINE
  5
FE
100
AcDbEntity
100
AcDbLine
  8
BLACK
 62
256
370
-1
 48
1.0
  6
ByLayer
 10
29.803100000000001
 20
-2.4354300000000002
 30
0.0
 11
29.6096
 21
-2.36286
 31
0.0
  0
LINE
  5
FF
100
AcDbEntity
100
AcDbLine
  8
BLACK
 62
256
370
-1
 48
1.0
  6
ByLayer
 10
29.6096
 20
-2.36286
 30
0.0
 11
29.512799999999999
 21
-2.2902900000000002
 31
0.0
  0
LINE
  5
100
100
AcDbEntity
100
AcDbLine
  8
BLACK
 62
256
370
-1
 48
1.0
  6
ByLayer
 10
29.512799999999999
 20
-2.2902900000000002
 30
0.0
 11
29.4161
 21
-2.14514
 31
0.0
  0
LINE
  5
101
100
AcDbEntity
100
AcDbLine
  8
BLACK
 62
256
370
-1
 48
1.0
  6
ByLayer
 10
31.4481
 20
0.177144
 30
0.0
 11
30.093399999999999
 21
0.177144
 31
0.0
  0
LINE
  5
102
100
AcDbEntity
100
AcDbLine
  8
BLACK
 62
256
370
-1
 48
1.0
  6
ByLayer
 10
30.286899999999999
 20
0.177144
 30
0.0
 11
30.190200000000001
 21
0.249716
 31
0.0
  0
LINE
  5
103
100
AcDbEntity
100
AcDbLine
  8
BLACK
 62
256
370
-1
 48
1.0
  6
ByLayer
 10
30.190200000000001
 20
0.249716
 30
0.0
 11
30.093399999999999
 21
0.394858
 31
0.0
  0
LINE
  5
104
100
AcDbEntity
100
AcDbLine
  8
BLACK
 62
256
370
-1
 48
1.0
  6
ByLayer
 10
30.093399999999999
 20
0.394858
 30
0.0
 11
30.093399999999999
 21
0.612573
 31
0.0
  0
LINE
  5
105
100
AcDbEntity
100
AcDbLine
  8
BLACK
 62
256
370
-1
 48
1.0
  6
ByLayer
 10
30.093399999999999
 20
0.612573
 30
0.0
 11
30.190200000000001
 21
0.757716
 31
0.0
  0
LINE
  5
106
100
AcDbEntity
100
AcDbLine
  8
BLACK
 62
256
370
-1
 48
1.0
  6
ByLayer
 10
30.190200000000001
 20
0.757716
 30
0.0
 11
30.383700000000001
 21
0.830287
 31
0.0
  0
LINE
  5
107
100
AcDbEntity
100
AcDbLine
  8
BLACK
 62
256
370
-1
 48
1.0
  6
ByLayer
 10
30.383700000000001
 20
0.830287
 30
0.0
 11
31.4481
 21
0.830287
 31
0.0
  0
LINE
  5
108
100
AcDbEntity
100
AcDbLine
  8
BLACK
 62
256
370
-1
 48
1.0
  6
ByLayer
 10
30.383700000000001
 20
0.830287
 30
0.0
 11
30.190200000000001
 21
0.9028580000000001
 31
0.0
  0
LINE
  5
109
100
AcDbEntity
100
AcDbLine
  8
BLACK
 62
256
370
-1
 48
1.0
  6
ByLayer
 10
30.190200000000001
 20
0.9028580000000001
 30
0.0
 11
30.093399999999999
 21
1.048
 31
0.0
  0
LINE
  5
10A
100
AcDbEntity
100
AcDbLine
  8
BLACK
 62
256
370
-1
 48
1.0
  6
ByLayer
 10
30.093399999999999
 20
1.048
 30
0.0
 11
30.093399999999999
 21
1.26572
 31
0.0
  0
LINE
  5
10B
100
AcDbEntity
100
AcDbLine
  8
BLACK
 62
256
370
-1
 48
1.0
  6
ByLayer
 10
30.093399999999999
 20
1.26572
 30
0.0
 11
30.190200000000001
 21
1.41086
 31
0.0
  0
LINE
  5
10C
100
AcDbEntity
100
AcDbLine
  8
BLACK
 62
256
370
-1
 48
1.0
  6
ByLayer
 10
30.190200000000001
 20
1.41086
 30
0.0
 11
30.383700000000001
 21
1.48343
 31
0.0
  0
LINE
  5
10D
100
AcDbEntity
100
AcDbLine
  8
BLACK
 62
256
370
-1
 48
1.0
  6
ByLayer
 10
30.383700000000001
 20
1.48343
 30
0.0
 11
31.4481
 21
1.48343
 31
0.0
  0
LINE
  5
10E
100
AcDbEntity
100
AcDbLine
  8
BLACK
 62
256
370
-1
 48
1.0
  6
ByLayer
 10
31.4481
 20
2.2091400000000001
 30
0.0
 11
30.093399999999999
 21
2.2091400000000001
 31
0.0
  0
LINE
  5
10F
100
AcDbEntity
100
AcDbLine
  8
BLACK
 62
256
370
-1
 48
1.0
  6
ByLayer
 10
30.286899999999999
 20
2.2091400000000001
 30
0.0
 11
30.190200000000001
 21
2.28172
 31
0.0
  0
LINE
  5
110
100
AcDbEntity
100
AcDbLine
  8
BLACK
 62
256
370
-1
 48
1.0
  6
ByLayer
 10
30.190200000000001
 20
2.28172
 30
0.0
 11
30.093399999999999
 21
2.42686
 31
0.0
  0
LINE
  5
111
100
AcDbEntity
100
AcDbLine
  8
BLACK
 62
256
370
-1
 48
1.0
  6
ByLayer
 10
30.093399999999999
 20
2.42686
 30
0.0
 11
30.093399999999999
 21
2.6445699999999999
 31
0.0
  0
LINE
  5
112
100
AcDbEntity
100
AcDbLine
  8
BLACK
 62
256
370
-1
 48
1.0
  6
ByLayer
 10
30.093399999999999
 20
2.6445699999999999
 30
0.0
 11
30.190200000000001
 21
2.78972
 31
0.0
  0
LINE
  5
113
100
AcDbEntity
100
AcDbLine
  8
BLACK
 62
256
370
-1
 48
1.0
  6
ByLayer
 10
30.190200000000001
 20
2.78972
 30
0.0
 11
30.383700000000001
 21
2.8622899999999998
 31
0.0
  0
LINE
  5
114
100
AcDbEntity
100
AcDbLine
  8
BLACK
 62
256
370
-1
 48
1.0
  6
ByLayer
 10
30.383700000000001
 20
2.8622899999999998
 30
0.0
 11
31.4481
 21
2.8622899999999998
 31
0.0
  0
LINE
  5
115
100
AcDbEntity
100
AcDbLine
  8
BLACK
 62
256
370
-1
 48
1.0
  6
ByLayer
 10
30.383700000000001
 20
2.8622899999999998
 30
0.0
 11
30.190200000000001
 21
2.93486
 31
0.0
  0
LINE
  5
116
100
AcDbEntity
100
AcDbLine
  8
BLACK
 62
256
370
-1
 48
1.0
  6
ByLayer
 10
30.190200000000001
 20
2.93486
 30
0.0
 11
30.093399999999999
 21
3.0800000000000001
 31
0.0
  0
LINE
  5
117
100
AcDbEntity
100
AcDbLine
  8
BLACK
 62
256
370
-1
 48
1.0
  6
ByLayer
 10
30.093399999999999
 20
3.0800000000000001
 30
0.0
 11
30.093399999999999
 21
3.29772
 31
0.0
  0
LINE
  5
118
100
AcDbEntity
100
AcDbLine
  8
BLACK
 62
256
370
-1
 48
1.0
  6
ByLayer
 10
30.093399999999999
 20
3.29772
 30
0.0
 11
30.190200000000001
 21
3.44286
 31
0.0
  0
LINE
  5
119
100
AcDbEntity
100
AcDbLine
  8
BLACK
 62
256
370
-1
 48
1.0
  6
ByLayer
 10
30.190200000000001
 20
3.44286
 30
0.0
 11
30.383700000000001
 21
3.5154299999999998
 31
0.0
  0
LINE
  5
11A
100
AcDbEntity
100
AcDbLine
  8
BLACK
 62
256
370
-1
 48
1.0
  6
ByLayer
 10
30.383700000000001
 20
3.5154299999999998
 30
0.0
 11
31.4481
 21
3.5154299999999998
 31
0.0
  0
LINE
  5
11B
100
AcDbEntity
100
AcDbLine
  8
BLACK
 62
256
370
-1
 48
1.0
  6
ByLayer
 10
29.1524
 20
-4.0
 30
0.0
 11
29.1524
 21
0.0
 31
0.0
  0
LINE
  5
11C
100
AcDbEntity
100
AcDbLine
  8
BLACK
 62
256
370
-1
 48
1.0
  6
ByLayer
 10
28.8476
 20
-4.0
 30
0.0
 11
28.8476
 21
0.0
 31
0.0
  0
ARC
  5
11D
100
AcDbEntity
  8
BLACK
 62
256
370
-1
 48
1.0
  6
ByLayer
100
AcDbCircle
 10
29.0
 20
0.0
 30
0.0
 40
0.1524
100
AcDbArc
 50
0.0
 51
180.0
  0
ARC
  5
11E
100
AcDbEntity
  8
BLACK
 62
256
370
-1
 48
1.0
  6
ByLayer
100
AcDbCircle
 10
29.0
 20
-4.0
 30
0.0
 40
0.1524
100
AcDbArc
 50
180.0
 51
0.0
  0
LINE
  5
11F
100
AcDbEntity
100
AcDbLine
  8
BLACK
 62
256
370
-1
 48
1.0
  6
ByLayer
 10
28.0
 20
-4.1524000000000001
 30
0.0
 11
32.251199999999997
 21
-4.1524000000000001
 31
0.0
  0
LINE
  5
120
100
AcDbEntity
100
AcDbLine
  8
BLACK
 62
256
370
-1
 48
1.0
  6
ByLayer
 10
28.0
 20
-3.8475999999999999
 30
0.0
 11
32.251199999999997
 21
-3.8475999999999999
 31
0.0
  0
ARC
  5
121
100
AcDbEntity
  8
BLACK
 62
256
370
-1
 48
1.0
  6
ByLayer
100
AcDbCircle
 10
32.251199999999997
 20
-4.0
 30
0.0
 40
0.1524
100
AcDbArc
 50
270.0
 51
90.0
  0
ARC
  5
122
100
AcDbEntity
  8
BLACK
 62
256
370
-1
 48
1.0
  6
ByLayer
100
AcDbCircle
 10
28.0
 20
-4.0
 30
0.0
 40
0.1524
100
AcDbArc
 50
90.0
 51
270.0
  0
LINE
  5
123
100
AcDbEntity
100
AcDbLine
  8
BLACK
 62
256
370
-1
 48
1.0
  6
ByLayer
 10
28.0
 20
-0.1524
 30
0.0
 11
32.251199999999997
 21
-0.1524
 31
0.0
  0
LINE
  5
124
100
AcDbEntity
100
AcDbLine
  8
BLACK
 62
256
370
-1
 48
1.0
  6
ByLayer
 10
28.0
 20
0.1524
 30
0.0
 11
32.251199999999997
 21
0.1524
 31
0.0
  0
ARC
  5
125
100
AcDbEntity
  8
BLACK
 62
256
370
-1
 48
1.0
  6
ByLayer
100
AcDbCircle
 10
32.251199999999997
 20
0.0
 30
0.0
 40
0.1524
100
AcDbArc
 50
270.0
 51
90.0
  0
ARC
  5
126
100
AcDbEntity
  8
BLACK
 62
256
370
-1
 48
1.0
  6
ByLayer
100
AcDbCircle
 10
28.0
 20
0.0
 30
0.0
 40
0.1524
100
AcDbArc
 50
90.0
 51
270.0
  0
LINE
  5
127
100
AcDbEntity
100
AcDbLine
  8
BLACK
 62
256
370
-1
 48
1.0
  6
ByLayer
 10
28.864799999999999
 20
-0.07037
 30
0.0
 11
29.4512
 21
-1.1968700000000001
 31
0.0
  0
LINE
  5
128
100
AcDbEntity
100
AcDbLine
  8
BLACK
 62
256
370
-1
 48
1.0
  6
ByLayer
 10
29.135200000000001
 20
0.07037
 30
0.0
 11
29.721599999999999
 21
-1.05613
 31
0.0
  0
ARC
  5
129
100
AcDbEntity
  8
BLACK
 62
256
370
-1
 48
1.0
  6
ByLayer
100
AcDbCircle
 10
29.586400000000001
 20
-1.1265000000000001
 30
0.0
 40
0.1524
100
AcDbArc
 50
207.49999999999997
 51
27.500000000000004
  0
ARC
  5
12A
100
AcDbEntity
  8
BLACK
 62
256
370
-1
 48
1.0
  6
ByLayer
100
AcDbCircle
 10
29.0
 20
0.0
 30
0.0
 40
0.1524
100
AcDbArc
 50
27.500000000000004
 51
207.49999999999997
  0
LINE
  5
12B
100
AcDbEntity
100
AcDbLine
  8
BLACK
 62
256
370
-1
 48
1.0
  6
ByLayer
 10
28.863700000000001
 20
0.070645
 30
0.0
 11
28.279299999999999
 21
-1.05688
 31
0.0
  0
LINE
  5
12C
100
AcDbEntity
100
AcDbLine
  8
BLACK
 62
256
370
-1
 48
1.0
  6
ByLayer
 10
29.1343
 20
-0.069624
 30
0.0
 11
28.549900000000001
 21
-1.1971499999999999
 31
0.0
  0
ARC
  5
12D
100
AcDbEntity
  8
BLACK
 62
256
370
-1
 48
1.0
  6
ByLayer
100
AcDbCircle
 10
28.4146
 20
-1.1270100000000001
 30
0.0
 40
0.1524
100
AcDbArc
 50
152.59999999999997
 51
332.60000000000002
  0
ARC
  5
12E
100
AcDbEntity
  8
BLACK
 62
256
370
-1
 48
1.0
  6
ByLayer
100
AcDbCircle
 10
28.998999999999999
 20
0.000511
 30
0.0
 40
0.1524
100
AcDbArc
 50
332.60000000000002
 51
152.59999999999997
  0
LINE
  5
12F
100
AcDbEntity
100
AcDbLine
  8
BLACK
 62
256
370
-1
 48
1.0
  6
ByLayer
 10
29.135200000000001
 20
-4.0703699999999996
 30
0.0
 11
29.721599999999999
 21
-2.94387
 31
0.0
  0
LINE
  5
130
100
AcDbEntity
100
AcDbLine
  8
BLACK
 62
256
370
-1
 48
1.0
  6
ByLayer
 10
28.864799999999999
 20
-3.92963
 30
0.0
 11
29.4512
 21
-2.8031299999999999
 31
0.0
  0
ARC
  5
131
100
AcDbEntity
  8
BLACK
 62
256
370
-1
 48
1.0
  6
ByLayer
100
AcDbCircle
 10
29.586400000000001
 20
-2.8734999999999999
 30
0.0
 40
0.1524
100
AcDbArc
 50
332.5
 51
152.5
  0
ARC
  5
132
100
AcDbEntity
  8
BLACK
 62
256
370
-1
 48
1.0
  6
ByLayer
100
AcDbCircle
 10
29.0
 20
-4.0
 30
0.0
 40
0.1524
100
AcDbArc
 50
152.5
 51
332.5
  0
LINE
  5
133
100
AcDbEntity
100
AcDbLine
  8
BLACK
 62
256
370
-1
 48
1.0
  6
ByLayer
 10
29.1343
 20
-3.93038
 30
0.0
 11
28.549900000000001
 21
-2.8028499999999998
 31
0.0
  0
LINE
  5
134
100
AcDbEntity
100
AcDbLine
  8
BLACK
 62
256
370
-1
 48
1.0
  6
ByLayer
 10
28.863700000000001
 20
-4.07064
 30
0.0
 11
28.279299999999999
 21
-2.94312
 31
0.0
  0
ARC
  5
135
100
AcDbEntity
  8
BLACK
 62
256
370
-1
 48
1.0
  6
ByLayer
100
AcDbCircle
 10
28.4146
 20
-2.8729900000000002
 30
0.0
 40
0.1524
100
AcDbArc
 50
27.399999999999977
 51
207.39999999999998
  0
ARC
  5
136
100
AcDbEntity
  8
BLACK
 62
256
370
-1
 48
1.0
  6
ByLayer
100
AcDbCircle
 10
28.998999999999999
 20
-4.0005100000000002
 30
0.0
 40
0.1524
100
AcDbArc
 50
207.40000000000001
 51
27.399999999999977
  0
LINE
  5
137
100
AcDbEntity
100
AcDbLine
  8
BLACK
 62
256
370
-1
 48
1.0
  6
ByLayer
 10
6.6862899999999996
 20
11.6416
 30
0.0
 11
6.7588600000000003
 21
11.7384
 31
0.0
  0
LINE
  5
138
100
AcDbEntity
100
AcDbLine
  8
BLACK
 62
256
370
-1
 48
1.0
  6
ByLayer
 10
6.7588600000000003
 20
11.7384
 30
0.0
 11
6.9039999999999999
 21
11.835100000000001
 31
0.0
  0
LINE
  5
139
100
AcDbEntity
100
AcDbLine
  8
BLACK
 62
256
370
-1
 48
1.0
  6
ByLayer
 10
6.9039999999999999
 20
11.835100000000001
 30
0.0
 11
7.2668600000000003
 21
11.835100000000001
 31
0.0
  0
LINE
  5
13A
100
AcDbEntity
100
AcDbLine
  8
BLACK
 62
256
370
-1
 48
1.0
  6
ByLayer
 10
7.2668600000000003
 20
11.835100000000001
 30
0.0
 11
7.4119999999999999
 21
11.7384
 31
0.0
  0
LINE
  5
13B
100
AcDbEntity
100
AcDbLine
  8
BLACK
 62
256
370
-1
 48
1.0
  6
ByLayer
 10
7.4119999999999999
 20
11.7384
 30
0.0
 11
7.4845699999999997
 21
11.6416
 31
0.0
  0
LINE
  5
13C
100
AcDbEntity
100
AcDbLine
  8
BLACK
 62
256
370
-1
 48
1.0
  6
ByLayer
 10
7.4845699999999997
 20
11.6416
 30
0.0
 11
7.5571400000000004
 21
11.4481
 31
0.0
  0
LINE
  5
13D
100
AcDbEntity
100
AcDbLine
  8
BLACK
 62
256
370
-1
 48
1.0
  6
ByLayer
 10
7.5571400000000004
 20
11.4481
 30
0.0
 11
7.5571400000000004
 21
11.2546
 31
0.0
  0
LINE
  5
13E
100
AcDbEntity
100
AcDbLine
  8
BLACK
 62
256
370
-1
 48
1.0
  6
ByLayer
 10
7.5571400000000004
 20
11.2546
 30
0.0
 11
7.4845699999999997
 21
10.9643
 31
0.0
  0
LINE
  5
13F
100
AcDbEntity
100
AcDbLine
  8
BLACK
 62
256
370
-1
 48
1.0
  6
ByLayer
 10
7.4845699999999997
 20
10.9643
 30
0.0
 11
6.6137100000000002
 21
9.8031199999999998
 31
0.0
  0
LINE
  5
140
100
AcDbEntity
100
AcDbLine
  8
BLACK
 62
256
370
-1
 48
1.0
  6
ByLayer
 10
6.6137100000000002
 20
9.8031199999999998
 30
0.0
 11
7.5571400000000004
 21
9.8031199999999998
 31
0.0
  0
LINE
  5
141
100
AcDbEntity
100
AcDbLine
  8
BLACK
 62
256
370
-1
 48
1.0
  6
ByLayer
 10
8.8634299999999993
 20
11.835100000000001
 30
0.0
 11
8.5731400000000004
 21
11.835100000000001
 31
0.0
  0
LINE
  5
142
100
AcDbEntity
100
AcDbLine
  8
BLACK
 62
256
370
-1
 48
1.0
  6
ByLayer
 10
8.5731400000000004
 20
11.835100000000001
 30
0.0
 11
8.4280000000000008
 21
11.7384
 31
0.0
  0
LINE
  5
143
100
AcDbEntity
100
AcDbLine
  8
BLACK
 62
256
370
-1
 48
1.0
  6
ByLayer
 10
8.4280000000000008
 20
11.7384
 30
0.0
 11
8.3554300000000001
 21
11.6416
 31
0.0
  0
LINE
  5
144
100
AcDbEntity
100
AcDbLine
  8
BLACK
 62
256
370
-1
 48
1.0
  6
ByLayer
 10
8.3554300000000001
 20
11.6416
 30
0.0
 11
8.2102900000000005
 21
11.3513
 31
0.0
  0
LINE
  5
145
100
AcDbEntity
100
AcDbLine
  8
BLACK
 62
256
370
-1
 48
1.0
  6
ByLayer
 10
8.2102900000000005
 20
11.3513
 30
0.0
 11
8.1377100000000002
 21
10.9643
 31
0.0
  0
LINE
  5
146
100
AcDbEntity
100
AcDbLine
  8
BLACK
 62
256
370
-1
 48
1.0
  6
ByLayer
 10
8.1377100000000002
 20
10.9643
 30
0.0
 11
8.1377100000000002
 21
10.190200000000001
 31
0.0
  0
LINE
  5
147
100
AcDbEntity
100
AcDbLine
  8
BLACK
 62
256
370
-1
 48
1.0
  6
ByLayer
 10
8.1377100000000002
 20
10.190200000000001
 30
0.0
 11
8.2102900000000005
 21
9.9966500000000007
 31
0.0
  0
LINE
  5
148
100
AcDbEntity
100
AcDbLine
  8
BLACK
 62
256
370
-1
 48
1.0
  6
ByLayer
 10
8.2102900000000005
 20
9.9966500000000007
 30
0.0
 11
8.2828599999999994
 21
9.8998899999999992
 31
0.0
  0
LINE
  5
149
100
AcDbEntity
100
AcDbLine
  8
BLACK
 62
256
370
-1
 48
1.0
  6
ByLayer
 10
8.2828599999999994
 20
9.8998899999999992
 30
0.0
 11
8.4280000000000008
 21
9.8031199999999998
 31
0.0
  0
LINE
  5
14A
100
AcDbEntity
100
AcDbLine
  8
BLACK
 62
256
370
-1
 48
1.0
  6
ByLayer
 10
8.4280000000000008
 20
9.8031199999999998
 30
0.0
 11
8.7182899999999997
 21
9.8031199999999998
 31
0.0
  0
LINE
  5
14B
100
AcDbEntity
100
AcDbLine
  8
BLACK
 62
256
370
-1
 48
1.0
  6
ByLayer
 10
8.7182899999999997
 20
9.8031199999999998
 30
0.0
 11
8.8634299999999993
 21
9.8998899999999992
 31
0.0
  0
LINE
  5
14C
100
AcDbEntity
100
AcDbLine
  8
BLACK
 62
256
370
-1
 48
1.0
  6
ByLayer
 10
8.8634299999999993
 20
9.8998899999999992
 30
0.0
 11
8.9359999999999999
 21
9.9966500000000007
 31
0.0
  0
LINE
  5
14D
100
AcDbEntity
100
AcDbLine
  8
BLACK
 62
256
370
-1
 48
1.0
  6
ByLayer
 10
8.9359999999999999
 20
9.9966500000000007
 30
0.0
 11
9.0085700000000006
 21
10.190200000000001
 31
0.0
  0
LINE
  5
14E
100
AcDbEntity
100
AcDbLine
  8
BLACK
 62
256
370
-1
 48
1.0
  6
ByLayer
 10
9.0085700000000006
 20
10.190200000000001
 30
0.0
 11
9.0085700000000006
 21
10.673999999999999
 31
0.0
  0
LINE
  5
14F
100
AcDbEntity
100
AcDbLine
  8
BLACK
 62
256
370
-1
 48
1.0
  6
ByLayer
 10
9.0085700000000006
 20
10.673999999999999
 30
0.0
 11
8.9359999999999999
 21
10.8675
 31
0.0
  0
LINE
  5
150
100
AcDbEntity
100
AcDbLine
  8
BLACK
 62
256
370
-1
 48
1.0
  6
ByLayer
 10
8.9359999999999999
 20
10.8675
 30
0.0
 11
8.8634299999999993
 21
10.9643
 31
0.0
  0
LINE
  5
151
100
AcDbEntity
100
AcDbLine
  8
BLACK
 62
256
370
-1
 48
1.0
  6
ByLayer
 10
8.8634299999999993
 20
10.9643
 30
0.0
 11
8.7182899999999997
 21
11.061
 31
0.0
  0
LINE
  5
152
100
AcDbEntity
100
AcDbLine
  8
BLACK
 62
256
370
-1
 48
1.0
  6
ByLayer
 10
8.7182899999999997
 20
11.061
 30
0.0
 11
8.4280000000000008
 21
11.061
 31
0.0
  0
LINE
  5
153
100
AcDbEntity
100
AcDbLine
  8
BLACK
 62
256
370
-1
 48
1.0
  6
ByLayer
 10
8.4280000000000008
 20
11.061
 30
0.0
 11
8.2828599999999994
 21
10.9643
 31
0.0
  0
LINE
  5
154
100
AcDbEntity
100
AcDbLine
  8
BLACK
 62
256
370
-1
 48
1.0
  6
ByLayer
 10
8.2828599999999994
 20
10.9643
 30
0.0
 11
8.2102900000000005
 21
10.8675
 31
0.0
  0
LINE
  5
155
100
AcDbEntity
100
AcDbLine
  8
BLACK
 62
256
370
-1
 48
1.0
  6
ByLayer
 10
8.2102900000000005
 20
10.8675
 30
0.0
 11
8.1377100000000002
 21
10.673999999999999
 31
0.0
  0
LINE
  5
156
100
AcDbEntity
100
AcDbLine
  8
BLACK
 62
256
370
-1
 48
1.0
  6
ByLayer
 10
9.6617099999999994
 20
9.9966500000000007
 30
0.0
 11
9.7342899999999997
 21
9.8998899999999992
 31
0.0
  0
LINE
  5
157
100
AcDbEntity
100
AcDbLine
  8
BLACK
 62
256
370
-1
 48
1.0
  6
ByLayer
 10
9.7342899999999997
 20
9.8998899999999992
 30
0.0
 11
9.6617099999999994
 21
9.8031199999999998
 31
0.0
  0
LINE
  5
158
100
AcDbEntity
100
AcDbLine
  8
BLACK
 62
256
370
-1
 48
1.0
  6
ByLayer
 10
9.6617099999999994
 20
9.8031199999999998
 30
0.0
 11
9.5891400000000004
 21
9.8998899999999992
 31
0.0
  0
LINE
  5
159
100
AcDbEntity
100
AcDbLine
  8
BLACK
 62
256
370
-1
 48
1.0
  6
ByLayer
 10
9.5891400000000004
 20
9.8998899999999992
 30
0.0
 11
9.6617099999999994
 21
9.9966500000000007
 31
0.0
  0
LINE
  5
15A
100
AcDbEntity
100
AcDbLine
  8
BLACK
 62
256
370
-1
 48
1.0
  6
ByLayer
 10
9.6617099999999994
 20
9.9966500000000007
 30
0.0
 11
9.6617099999999994
 21
9.8031199999999998
 31
0.0
  0
LINE
  5
15B
100
AcDbEntity
100
AcDbLine
  8
BLACK
 62
256
370
-1
 48
1.0
  6
ByLayer
 10
10.6777
 20
11.835100000000001
 30
0.0
 11
10.822900000000001
 21
11.835100000000001
 31
0.0
  0
LINE
  5
15C
100
AcDbEntity
100
AcDbLine
  8
BLACK
 62
256
370
-1
 48
1.0
  6
ByLayer
 10
10.822900000000001
 20
11.835100000000001
 30
0.0
 11
10.968
 21
11.7384
 31
0.0
  0
LINE
  5
15D
100
AcDbEntity
100
AcDbLine
  8
BLACK
 62
256
370
-1
 48
1.0
  6
ByLayer
 10
10.968
 20
11.7384
 30
0.0
 11
11.0406
 21
11.6416
 31
0.0
  0
LINE
  5
15E
100
AcDbEntity
100
AcDbLine
  8
BLACK
 62
256
370
-1
 48
1.0
  6
ByLayer
 10
11.0406
 20
11.6416
 30
0.0
 11
11.113099999999999
 21
11.4481
 31
0.0
  0
LINE
  5
15F
100
AcDbEntity
100
AcDbLine
  8
BLACK
 62
256
370
-1
 48
1.0
  6
ByLayer
 10
11.113099999999999
 20
11.4481
 30
0.0
 11
11.185700000000001
 21
11.061
 31
0.0
  0
LINE
  5
160
100
AcDbEntity
100
AcDbLine
  8
BLACK
 62
256
370
-1
 48
1.0
  6
ByLayer
 10
11.185700000000001
 20
11.061
 30
0.0
 11
11.185700000000001
 21
10.577199999999999
 31
0.0
  0
LINE
  5
161
100
AcDbEntity
100
AcDbLine
  8
BLACK
 62
256
370
-1
 48
1.0
  6
ByLayer
 10
11.185700000000001
 20
10.577199999999999
 30
0.0
 11
11.113099999999999
 21
10.190200000000001
 31
0.0
  0
LINE
  5
162
100
AcDbEntity
100
AcDbLine
  8
BLACK
 62
256
370
-1
 48
1.0
  6
ByLayer
 10
11.113099999999999
 20
10.190200000000001
 30
0.0
 11
11.0406
 21
9.9966500000000007
 31
0.0
  0
LINE
  5
163
100
AcDbEntity
100
AcDbLine
  8
BLACK
 62
256
370
-1
 48
1.0
  6
ByLayer
 10
11.0406
 20
9.9966500000000007
 30
0.0
 11
10.968
 21
9.8998899999999992
 31
0.0
  0
LINE
  5
164
100
AcDbEntity
100
AcDbLine
  8
BLACK
 62
256
370
-1
 48
1.0
  6
ByLayer
 10
10.968
 20
9.8998899999999992
 30
0.0
 11
10.822900000000001
 21
9.8031199999999998
 31
0.0
  0
LINE
  5
165
100
AcDbEntity
100
AcDbLine
  8
BLACK
 62
256
370
-1
 48
1.0
  6
ByLayer
 10
10.822900000000001
 20
9.8031199999999998
 30
0.0
 11
10.6777
 21
9.8031199999999998
 31
0.0
  0
LINE
  5
166
100
AcDbEntity
100
AcDbLine
  8
BLACK
 62
256
370
-1
 48
1.0
  6
ByLayer
 10
10.6777
 20
9.8031199999999998
 30
0.0
 11
10.5326
 21
9.8998899999999992
 31
0.0
  0
LINE
  5
167
100
AcDbEntity
100
AcDbLine
  8
BLACK
 62
256
370
-1
 48
1.0
  6
ByLayer
 10
10.5326
 20
9.8998899999999992
 30
0.0
 11
10.460000000000001
 21
9.9966500000000007
 31
0.0
  0
LINE
  5
168
100
AcDbEntity
100
AcDbLine
  8
BLACK
 62
256
370
-1
 48
1.0
  6
ByLayer
 10
10.460000000000001
 20
9.9966500000000007
 30
0.0
 11
10.3874
 21
10.190200000000001
 31
0.0
  0
LINE
  5
169
100
AcDbEntity
100
AcDbLine
  8
BLACK
 62
256
370
-1
 48
1.0
  6
ByLayer
 10
10.3874
 20
10.190200000000001
 30
0.0
 11
10.3149
 21
10.577199999999999
 31
0.0
  0
LINE
  5
16A
100
AcDbEntity
100
AcDbLine
  8
BLACK
 62
256
370
-1
 48
1.0
  6
ByLayer
 10
10.3149
 20
10.577199999999999
 30
0.0
 11
10.3149
 21
11.061
 31
0.0
  0
LINE
  5
16B
100
AcDbEntity
100
AcDbLine
  8
BLACK
 62
256
370
-1
 48
1.0
  6
ByLayer
 10
10.3149
 20
11.061
 30
0.0
 11
10.3874
 21
11.4481
 31
0.0
  0
LINE
  5
16C
100
AcDbEntity
100
AcDbLine
  8
BLACK
 62
256
370
-1
 48
1.0
  6
ByLayer
 10
10.3874
 20
11.4481
 30
0.0
 11
10.460000000000001
 21
11.6416
 31
0.0
  0
LINE
  5
16D
100
AcDbEntity
100
AcDbLine
  8
BLACK
 62
256
370
-1
 48
1.0
  6
ByLayer
 10
10.460000000000001
 20
11.6416
 30
0.0
 11
10.5326
 21
11.7384
 31
0.0
  0
LINE
  5
16E
100
AcDbEntity
100
AcDbLine
  8
BLACK
 62
256
370
-1
 48
1.0
  6
ByLayer
 10
10.5326
 20
11.7384
 30
0.0
 11
10.6777
 21
11.835100000000001
 31
0.0
  0
LINE
  5
16F
100
AcDbEntity
100
AcDbLine
  8
BLACK
 62
256
370
-1
 48
1.0
  6
ByLayer
 10
12.129099999999999
 20
11.835100000000001
 30
0.0
 11
12.2743
 21
11.835100000000001
 31
0.0
  0
LINE
  5
170
100
AcDbEntity
100
AcDbLine
  8
BLACK
 62
256
370
-1
 48
1.0
  6
ByLayer
 10
12.2743
 20
11.835100000000001
 30
0.0
 11
12.4194
 21
11.7384
 31
0.0
  0
LINE
  5
171
100
AcDbEntity
100
AcDbLine
  8
BLACK
 62
256
370
-1
 48
1.0
  6
ByLayer
 10
12.4194
 20
11.7384
 30
0.0
 11
12.492000000000001
 21
11.6416
 31
0.0
  0
LINE
  5
172
100
AcDbEntity
100
AcDbLine
  8
BLACK
 62
256
370
-1
 48
1.0
  6
ByLayer
 10
12.492000000000001
 20
11.6416
 30
0.0
 11
12.5646
 21
11.4481
 31
0.0
  0
LINE
  5
173
100
AcDbEntity
100
AcDbLine
  8
BLACK
 62
256
370
-1
 48
1.0
  6
ByLayer
 10
12.5646
 20
11.4481
 30
0.0
 11
12.6371
 21
11.061
 31
0.0
  0
LINE
  5
174
100
AcDbEntity
100
AcDbLine
  8
BLACK
 62
256
370
-1
 48
1.0
  6
ByLayer
 10
12.6371
 20
11.061
 30
0.0
 11
12.6371
 21
10.577199999999999
 31
0.0
  0
LINE
  5
175
100
AcDbEntity
100
AcDbLine
  8
BLACK
 62
256
370
-1
 48
1.0
  6
ByLayer
 10
12.6371
 20
10.577199999999999
 30
0.0
 11
12.5646
 21
10.190200000000001
 31
0.0
  0
LINE
  5
176
100
AcDbEntity
100
AcDbLine
  8
BLACK
 62
256
370
-1
 48
1.0
  6
ByLayer
 10
12.5646
 20
10.190200000000001
 30
0.0
 11
12.492000000000001
 21
9.9966500000000007
 31
0.0
  0
LINE
  5
177
100
AcDbEntity
100
AcDbLine
  8
BLACK
 62
256
370
-1
 48
1.0
  6
ByLayer
 10
12.492000000000001
 20
9.9966500000000007
 30
0.0
 11
12.4194
 21
9.8998899999999992
 31
0.0
  0
LINE
  5
178
100
AcDbEntity
100
AcDbLine
  8
BLACK
 62
256
370
-1
 48
1.0
  6
ByLayer
 10
12.4194
 20
9.8998899999999992
 30
0.0
 11
12.2743
 21
9.8031199999999998
 31
0.0
  0
LINE
  5
179
100
AcDbEntity
100
AcDbLine
  8
BLACK
 62
256
370
-1
 48
1.0
  6
ByLayer
 10
12.2743
 20
9.8031199999999998
 30
0.0
 11
12.129099999999999
 21
9.8031199999999998
 31
0.0
  0
LINE
  5
17A
100
AcDbEntity
100
AcDbLine
  8
BLACK
 62
256
370
-1
 48
1.0
  6
ByLayer
 10
12.129099999999999
 20
9.8031199999999998
 30
0.0
 11
11.984
 21
9.8998899999999992
 31
0.0
  0
LINE
  5
17B
100
AcDbEntity
100
AcDbLine
  8
BLACK
 62
256
370
-1
 48
1.0
  6
ByLayer
 10
11.984
 20
9.8998899999999992
 30
0.0
 11
11.9114
 21
9.9966500000000007
 31
0.0
  0
LINE
  5
17C
100
AcDbEntity
100
AcDbLine
  8
BLACK
 62
256
370
-1
 48
1.0
  6
ByLayer
 10
11.9114
 20
9.9966500000000007
 30
0.0
 11
11.838900000000001
 21
10.190200000000001
 31
0.0
  0
LINE
  5
17D
100
AcDbEntity
100
AcDbLine
  8
BLACK
 62
256
370
-1
 48
1.0
  6
ByLayer
 10
11.838900000000001
 20
10.190200000000001
 30
0.0
 11
11.766299999999999
 21
10.577199999999999
 31
0.0
  0
LINE
  5
17E
100
AcDbEntity
100
AcDbLine
  8
BLACK
 62
256
370
-1
 48
1.0
  6
ByLayer
 10
11.766299999999999
 20
10.577199999999999
 30
0.0
 11
11.766299999999999
 21
11.061
 31
0.0
  0
LINE
  5
17F
100
AcDbEntity
100
AcDbLine
  8
BLACK
 62
256
370
-1
 48
1.0
  6
ByLayer
 10
11.766299999999999
 20
11.061
 30
0.0
 11
11.838900000000001
 21
11.4481
 31
0.0
  0
LINE
  5
180
100
AcDbEntity
100
AcDbLine
  8
BLACK
 62
256
370
-1
 48
1.0
  6
ByLayer
 10
11.838900000000001
 20
11.4481
 30
0.0
 11
11.9114
 21
11.6416
 31
0.0
  0
LINE
  5
181
100
AcDbEntity
100
AcDbLine
  8
BLACK
 62
256
370
-1
 48
1.0
  6
ByLayer
 10
11.9114
 20
11.6416
 30
0.0
 11
11.984
 21
11.7384
 31
0.0
  0
LINE
  5
182
100
AcDbEntity
100
AcDbLine
  8
BLACK
 62
256
370
-1
 48
1.0
  6
ByLayer
 10
11.984
 20
11.7384
 30
0.0
 11
12.129099999999999
 21
11.835100000000001
 31
0.0
  0
LINE
  5
183
100
AcDbEntity
100
AcDbLine
  8
BLACK
 62
256
370
-1
 48
1.0
  6
ByLayer
 10
13.5806
 20
11.835100000000001
 30
0.0
 11
13.7257
 21
11.835100000000001
 31
0.0
  0
LINE
  5
184
100
AcDbEntity
100
AcDbLine
  8
BLACK
 62
256
370
-1
 48
1.0
  6
ByLayer
 10
13.7257
 20
11.835100000000001
 30
0.0
 11
13.870900000000001
 21
11.7384
 31
0.0
  0
LINE
  5
185
100
AcDbEntity
100
AcDbLine
  8
BLACK
 62
256
370
-1
 48
1.0
  6
ByLayer
 10
13.870900000000001
 20
11.7384
 30
0.0
 11
13.9434
 21
11.6416
 31
0.0
  0
LINE
  5
186
100
AcDbEntity
100
AcDbLine
  8
BLACK
 62
256
370
-1
 48
1.0
  6
ByLayer
 10
13.9434
 20
11.6416
 30
0.0
 11
14.016
 21
11.4481
 31
0.0
  0
LINE
  5
187
100
AcDbEntity
100
AcDbLine
  8
BLACK
 62
256
370
-1
 48
1.0
  6
ByLayer
 10
14.016
 20
11.4481
 30
0.0
 11
14.0886
 21
11.061
 31
0.0
  0
LINE
  5
188
100
AcDbEntity
100
AcDbLine
  8
BLACK
 62
256
370
-1
 48
1.0
  6
ByLayer
 10
14.0886
 20
11.061
 30
0.0
 11
14.0886
 21
10.577199999999999
 31
0.0
  0
LINE
  5
189
100
AcDbEntity
100
AcDbLine
  8
BLACK
 62
256
370
-1
 48
1.0
  6
ByLayer
 10
14.0886
 20
10.577199999999999
 30
0.0
 11
14.016
 21
10.190200000000001
 31
0.0
  0
LINE
  5
18A
100
AcDbEntity
100
AcDbLine
  8
BLACK
 62
256
370
-1
 48
1.0
  6
ByLayer
 10
14.016
 20
10.190200000000001
 30
0.0
 11
13.9434
 21
9.9966500000000007
 31
0.0
  0
LINE
  5
18B
100
AcDbEntity
100
AcDbLine
  8
BLACK
 62
256
370
-1
 48
1.0
  6
ByLayer
 10
13.9434
 20
9.9966500000000007
 30
0.0
 11
13.870900000000001
 21
9.8998899999999992
 31
0.0
  0
LINE
  5
18C
100
AcDbEntity
100
AcDbLine
  8
BLACK
 62
256
370
-1
 48
1.0
  6
ByLayer
 10
13.870900000000001
 20
9.8998899999999992
 30
0.0
 11
13.7257
 21
9.8031199999999998
 31
0.0
  0
LINE
  5
18D
100
AcDbEntity
100
AcDbLine
  8
BLACK
 62
256
370
-1
 48
1.0
  6
ByLayer
 10
13.7257
 20
9.8031199999999998
 30
0.0
 11
13.5806
 21
9.8031199999999998
 31
0.0
  0
LINE
  5
18E
100
AcDbEntity
100
AcDbLine
  8
BLACK
 62
256
370
-1
 48
1.0
  6
ByLayer
 10
13.5806
 20
9.8031199999999998
 30
0.0
 11
13.4354
 21
9.8998899999999992
 31
0.0
  0
LINE
  5
18F
100
AcDbEntity
100
AcDbLine
  8
BLACK
 62
256
370
-1
 48
1.0
  6
ByLayer
 10
13.4354
 20
9.8998899999999992
 30
0.0
 11
13.3629
 21
9.9966500000000007
 31
0.0
  0
LINE
  5
190
100
AcDbEntity
100
AcDbLine
  8
BLACK
 62
256
370
-1
 48
1.0
  6
ByLayer
 10
13.3629
 20
9.9966500000000007
 30
0.0
 11
13.2903
 21
10.190200000000001
 31
0.0
  0
LINE
  5
191
100
AcDbEntity
100
AcDbLine
  8
BLACK
 62
256
370
-1
 48
1.0
  6
ByLayer
 10
13.2903
 20
10.190200000000001
 30
0.0
 11
13.217700000000001
 21
10.577199999999999
 31
0.0
  0
LINE
  5
192
100
AcDbEntity
100
AcDbLine
  8
BLACK
 62
256
370
-1
 48
1.0
  6
ByLayer
 10
13.217700000000001
 20
10.577199999999999
 30
0.0
 11
13.217700000000001
 21
11.061
 31
0.0
  0
LINE
  5
193
100
AcDbEntity
100
AcDbLine
  8
BLACK
 62
256
370
-1
 48
1.0
  6
ByLayer
 10
13.217700000000001
 20
11.061
 30
0.0
 11
13.2903
 21
11.4481
 31
0.0
  0
LINE
  5
194
100
AcDbEntity
100
AcDbLine
  8
BLACK
 62
256
370
-1
 48
1.0
  6
ByLayer
 10
13.2903
 20
11.4481
 30
0.0
 11
13.3629
 21
11.6416
 31
0.0
  0
LINE
  5
195
100
AcDbEntity
100
AcDbLine
  8
BLACK
 62
256
370
-1
 48
1.0
  6
ByLayer
 10
13.3629
 20
11.6416
 30
0.0
 11
13.4354
 21
11.7384
 31
0.0
  0
LINE
  5
196
100
AcDbEntity
100
AcDbLine
  8
BLACK
 62
256
370
-1
 48
1.0
  6
ByLayer
 10
13.4354
 20
11.7384
 30
0.0
 11
13.5806
 21
11.835100000000001
 31
0.0
  0
LINE
  5
197
100
AcDbEntity
100
AcDbLine
  8
BLACK
 62
256
370
-1
 48
1.0
  6
ByLayer
 10
15.902900000000001
 20
9.8031199999999998
 30
0.0
 11
15.902900000000001
 21
11.1578
 31
0.0
  0
LINE
  5
198
100
AcDbEntity
100
AcDbLine
  8
BLACK
 62
256
370
-1
 48
1.0
  6
ByLayer
 10
15.902900000000001
 20
10.9643
 30
0.0
 11
15.9754
 21
11.061
 31
0.0
  0
LINE
  5
199
100
AcDbEntity
100
AcDbLine
  8
BLACK
 62
256
370
-1
 48
1.0
  6
ByLayer
 10
15.9754
 20
11.061
 30
0.0
 11
16.1206
 21
11.1578
 31
0.0
  0
LINE
  5
19A
100
AcDbEntity
100
AcDbLine
  8
BLACK
 62
256
370
-1
 48
1.0
  6
ByLayer
 10
16.1206
 20
11.1578
 30
0.0
 11
16.3383
 21
11.1578
 31
0.0
  0
LINE
  5
19B
100
AcDbEntity
100
AcDbLine
  8
BLACK
 62
256
370
-1
 48
1.0
  6
ByLayer
 10
16.3383
 20
11.1578
 30
0.0
 11
16.4834
 21
11.061
 31
0.0
  0
LINE
  5
19C
100
AcDbEntity
100
AcDbLine
  8
BLACK
 62
256
370
-1
 48
1.0
  6
ByLayer
 10
16.4834
 20
11.061
 30
0.0
 11
16.556000000000001
 21
10.8675
 31
0.0
  0
LINE
  5
19D
100
AcDbEntity
100
AcDbLine
  8
BLACK
 62
256
370
-1
 48
1.0
  6
ByLayer
 10
16.556000000000001
 20
10.8675
 30
0.0
 11
16.556000000000001
 21
9.8031199999999998
 31
0.0
  0
LINE
  5
19E
100
AcDbEntity
100
AcDbLine
  8
BLACK
 62
256
370
-1
 48
1.0
  6
ByLayer
 10
16.556000000000001
 20
10.8675
 30
0.0
 11
16.628599999999999
 21
11.061
 31
0.0
  0
LINE
  5
19F
100
AcDbEntity
100
AcDbLine
  8
BLACK
 62
256
370
-1
 48
1.0
  6
ByLayer
 10
16.628599999999999
 20
11.061
 30
0.0
 11
16.773700000000002
 21
11.1578
 31
0.0
  0
LINE
  5
1A0
100
AcDbEntity
100
AcDbLine
  8
BLACK
 62
256
370
-1
 48
1.0
  6
ByLayer
 10
16.773700000000002
 20
11.1578
 30
0.0
 11
16.991399999999999
 21
11.1578
 31
0.0
  0
LINE
  5
1A1
100
AcDbEntity
100
AcDbLine
  8
BLACK
 62
256
370
-1
 48
1.0
  6
ByLayer
 10
16.991399999999999
 20
11.1578
 30
0.0
 11
17.136600000000001
 21
11.061
 31
0.0
  0
LINE
  5
1A2
100
AcDbEntity
100
AcDbLine
  8
BLACK
 62
256
370
-1
 48
1.0
  6
ByLayer
 10
17.136600000000001
 20
11.061
 30
0.0
 11
17.209099999999999
 21
10.8675
 31
0.0
  0
LINE
  5
1A3
100
AcDbEntity
100
AcDbLine
  8
BLACK
 62
256
370
-1
 48
1.0
  6
ByLayer
 10
17.209099999999999
 20
10.8675
 30
0.0
 11
17.209099999999999
 21
9.8031199999999998
 31
0.0
  0
LINE
  5
1A4
100
AcDbEntity
100
AcDbLine
  8
BLACK
 62
256
370
-1
 48
1.0
  6
ByLayer
 10
17.934899999999999
 20
9.8031199999999998
 30
0.0
 11
17.934899999999999
 21
11.1578
 31
0.0
  0
LINE
  5
1A5
100
AcDbEntity
100
AcDbLine
  8
BLACK
 62
256
370
-1
 48
1.0
  6
ByLayer
 10
17.934899999999999
 20
10.9643
 30
0.0
 11
18.007400000000001
 21
11.061
 31
0.0
  0
LINE
  5
1A6
100
AcDbEntity
100
AcDbLine
  8
BLACK
 62
256
370
-1
 48
1.0
  6
ByLayer
 10
18.007400000000001
 20
11.061
 30
0.0
 11
18.1526
 21
11.1578
 31
0.0
  0
LINE
  5
1A7
100
AcDbEntity
100
AcDbLine
  8
BLACK
 62
256
370
-1
 48
1.0
  6
ByLayer
 10
18.1526
 20
11.1578
 30
0.0
 11
18.3703
 21
11.1578
 31
0.0
  0
LINE
  5
1A8
100
AcDbEntity
100
AcDbLine
  8
BLACK
 62
256
370
-1
 48
1.0
  6
ByLayer
 10
18.3703
 20
11.1578
 30
0.0
 11
18.5154
 21
11.061
 31
0.0
  0
LINE
  5
1A9
100
AcDbEntity
100
AcDbLine
  8
BLACK
 62
256
370
-1
 48
1.0
  6
ByLayer
 10
18.5154
 20
11.061
 30
0.0
 11
18.588000000000001
 21
10.8675
 31
0.0
  0
LINE
  5
1AA
100
AcDbEntity
100
AcDbLine
  8
BLACK
 62
256
370
-1
 48
1.0
  6
ByLayer
 10
18.588000000000001
 20
10.8675
 30
0.0
 11
18.588000000000001
 21
9.8031199999999998
 31
0.0
  0
LINE
  5
1AB
100
AcDbEntity
100
AcDbLine
  8
BLACK
 62
256
370
-1
 48
1.0
  6
ByLayer
 10
18.588000000000001
 20
10.8675
 30
0.0
 11
18.660599999999999
 21
11.061
 31
0.0
  0
LINE
  5
1AC
100
AcDbEntity
100
AcDbLine
  8
BLACK
 62
256
370
-1
 48
1.0
  6
ByLayer
 10
18.660599999999999
 20
11.061
 30
0.0
 11
18.805700000000002
 21
11.1578
 31
0.0
  0
LINE
  5
1AD
100
AcDbEntity
100
AcDbLine
  8
BLACK
 62
256
370
-1
 48
1.0
  6
ByLayer
 10
18.805700000000002
 20
11.1578
 30
0.0
 11
19.023399999999999
 21
11.1578
 31
0.0
  0
LINE
  5
1AE
100
AcDbEntity
100
AcDbLine
  8
BLACK
 62
256
370
-1
 48
1.0
  6
ByLayer
 10
19.023399999999999
 20
11.1578
 30
0.0
 11
19.168600000000001
 21
11.061
 31
0.0
  0
LINE
  5
1AF
100
AcDbEntity
100
AcDbLine
  8
BLACK
 62
256
370
-1
 48
1.0
  6
ByLayer
 10
19.168600000000001
 20
11.061
 30
0.0
 11
19.241099999999999
 21
10.8675
 31
0.0
  0
LINE
  5
1B0
100
AcDbEntity
100
AcDbLine
  8
BLACK
 62
256
370
-1
 48
1.0
  6
ByLayer
 10
19.241099999999999
 20
10.8675
 30
0.0
 11
19.241099999999999
 21
9.8031199999999998
 31
0.0
  0
LINE
  5
1B1
100
AcDbEntity
100
AcDbLine
  8
BLACK
 62
256
370
-1
 48
1.0
  6
ByLayer
 10
0.0
 20
8.8475999999999999
 30
0.0
 11
26.0
 21
8.8475999999999999
 31
0.0
  0
LINE
  5
1B2
100
AcDbEntity
100
AcDbLine
  8
BLACK
 62
256
370
-1
 48
1.0
  6
ByLayer
 10
0.0
 20
9.1524000000000001
 30
0.0
 11
26.0
 21
9.1524000000000001
 31
0.0
  0
ARC
  5
1B3
100
AcDbEntity
  8
BLACK
 62
256
370
-1
 48
1.0
  6
ByLayer
100
AcDbCircle
 10
26.0
 20
9.0
 30
0.0
 40
0.1524
100
AcDbArc
 50
270.0
 51
90.0
  0
ARC
  5
1B4
100
AcDbEntity
  8
BLACK
 62
256
370
-1
 48
1.0
  6
ByLayer
100
AcDbCircle
 10
0.0
 20
9.0
 30
0.0
 40
0.1524
100
AcDbArc
 50
90.0
 51
270.0
  0
LINE
  5
1B5
100
AcDbEntity
100
AcDbLine
  8
BLACK
 62
256
370
-1
 48
1.0
  6
ByLayer
 10
0.1524
 20
-4.0
 30
0.0
 11
0.1524
 21
12.251200000000001
 31
0.0
  0
LINE
  5
1B6
100
AcDbEntity
100
AcDbLine
  8
BLACK
 62
256
370
-1
 48
1.0
  6
ByLayer
 10
-0.1524
 20
-4.0
 30
0.0
 11
-0.1524
 21
12.251200000000001
 31
0.0
  0
ARC
  5
1B7
100
AcDbEntity
  8
BLACK
 62
256
370
-1
 48
1.0
  6
ByLayer
100
AcDbCircle
 10
0.0
 20
12.251200000000001
 30
0.0
 40
0.1524
100
AcDbArc
 50
0.0
 51
180.0
  0
ARC
  5
1B8
100
AcDbEntity
  8
BLACK
 62
256
370
-1
 48
1.0
  6
ByLayer
100
AcDbCircle
 10
0.0
 20
-4.0
 30
0.0
 40
0.1524
100
AcDbArc
 50
180.0
 51
0.0
  0
LINE
  5
1B9
100
AcDbEntity
100
AcDbLine
  8
BLACK
 62
256
370
-1
 48
1.0
  6
ByLayer
 10
26.1524
 20
-4.0
 30
0.0
 11
26.1524
 21
12.251200000000001
 31
0.0
  0
LINE
  5
1BA
100
AcDbEntity
100
AcDbLine
  8
BLACK
 62
256
370
-1
 48
1.0
  6
ByLayer
 10
25.8476
 20
-4.0
 30
0.0
 11
25.8476
 21
12.251200000000001
 31
0.0
  0
ARC
  5
1BB
100
AcDbEntity
  8
BLACK
 62
256
370
-1
 48
1.0
  6
ByLayer
100
AcDbCircle
 10
26.0
 20
12.251200000000001
 30
0.0
 40
0.1524
100
AcDbArc
 50
0.0
 51
180.0
  0
ARC
  5
1BC
100
AcDbEntity
  8
BLACK
 62
256
370
-1
 48
1.0
  6
ByLayer
100
AcDbCircle
 10
26.0
 20
-4.0
 30
0.0
 40
0.1524
100
AcDbArc
 50
180.0
 51
0.0
  0
LINE
  5
1BD
100
AcDbEntity
100
AcDbLine
  8
BLACK
 62
256
370
-1
 48
1.0
  6
ByLayer
 10
25.929600000000001
 20
9.1351800000000001
 30
0.0
 11
24.803100000000001
 21
8.5487599999999997
 31
0.0
  0
LINE
  5
1BE
100
AcDbEntity
100
AcDbLine
  8
BLACK
 62
256
370
-1
 48
1.0
  6
ByLayer
 10
26.070399999999999
 20
8.8648199999999999
 30
0.0
 11
24.943899999999999
 21
8.2783999999999995
 31
0.0
  0
ARC
  5
1BF
100
AcDbEntity
  8
BLACK
 62
256
370
-1
 48
1.0
  6
ByLayer
100
AcDbCircle
 10
24.8735
 20
8.4135799999999996
 30
0.0
 40
0.1524
100
AcDbArc
 50
117.5
 51
297.5
  0
ARC
  5
1C0
100
AcDbEntity
  8
BLACK
 62
256
370
-1
 48
1.0
  6
ByLayer
100
AcDbCircle
 10
26.0
 20
9.0
 30
0.0
 40
0.1524
100
AcDbArc
 50
297.5
 51
117.5
  0
LINE
  5
1C1
100
AcDbEntity
100
AcDbLine
  8
BLACK
 62
256
370
-1
 48
1.0
  6
ByLayer
 10
26.070399999999999
 20
9.1351800000000001
 30
0.0
 11
24.943899999999999
 21
9.7216000000000005
 31
0.0
  0
LINE
  5
1C2
100
AcDbEntity
100
AcDbLine
  8
BLACK
 62
256
370
-1
 48
1.0
  6
ByLayer
 10
25.929600000000001
 20
8.8648199999999999
 30
0.0
 11
24.803100000000001
 21
9.4512400000000003
 31
0.0
  0
ARC
  5
1C3
100
AcDbEntity
  8
BLACK
 62
256
370
-1
 48
1.0
  6
ByLayer
100
AcDbCircle
 10
24.8735
 20
9.5864200000000004
 30
0.0
 40
0.1524
100
AcDbArc
 50
62.5
 51
242.49999999999997
  0
ARC
  5
1C4
100
AcDbEntity
  8
BLACK
 62
256
370
-1
 48
1.0
  6
ByLayer
100
AcDbCircle
 10
26.0
 20
9.0
 30
0.0
 40
0.1524
100
AcDbArc
 50
242.49999999999997
 51
62.5
  0
LINE
  5
1C5
100
AcDbEntity
100
AcDbLine
  8
BLACK
 62
256
370
-1
 48
1.0
  6
ByLayer
 10
-0.070645
 20
8.8637099999999993
 30
0.0
 11
1.05688
 21
8.2792600000000007
 31
0.0
  0
LINE
  5
1C6
100
AcDbEntity
100
AcDbLine
  8
BLACK
 62
256
370
-1
 48
1.0
  6
ByLayer
 10
0.069624
 20
9.1343200000000007
 30
0.0
 11
1.1971499999999999
 21
8.5498700000000003
 31
0.0
  0
ARC
  5
1C7
100
AcDbEntity
  8
BLACK
 62
256
370
-1
 48
1.0
  6
ByLayer
100
AcDbCircle
 10
1.1270100000000001
 20
8.4145599999999998
 30
0.0
 40
0.1524
100
AcDbArc
 50
242.59999999999999
 51
62.600000000000023
  0
ARC
  5
1C8
100
AcDbEntity
  8
BLACK
 62
256
370
-1
 48
1.0
  6
ByLayer
100
AcDbCircle
 10
-0.000511
 20
8.9990199999999998
 30
0.0
 40
0.1524
100
AcDbArc
 50
62.600000000000001
 51
242.59999999999999
  0
LINE
  5
1C9
100
AcDbEntity
100
AcDbLine
  8
BLACK
 62
256
370
-1
 48
1.0
  6
ByLayer
 10
0.069624
 20
8.8656799999999993
 30
0.0
 11
1.1971499999999999
 21
9.4501299999999997
 31
0.0
  0
LINE
  5
1CA
100
AcDbEntity
100
AcDbLine
  8
BLACK
 62
256
370
-1
 48
1.0
  6
ByLayer
 10
-0.070645
 20
9.1362900000000007
 30
0.0
 11
1.05688
 21
9.7207399999999993
 31
0.0
  0
ARC
  5
1CB
100
AcDbEntity
  8
BLACK
 62
256
370
-1
 48
1.0
  6
ByLayer
100
AcDbCircle
 10
1.1270100000000001
 20
9.5854400000000002
 30
0.0
 40
0.1524
100
AcDbArc
 50
297.39999999999998
 51
117.39999999999996
  0
ARC
  5
1CC
100
AcDbEntity
  8
BLACK
 62
256
370
-1
 48
1.0
  6
ByLayer
100
AcDbCircle
 10
-0.000511
 20
9.0009800000000002
 30
0.0
 40
0.1524
100
AcDbArc
 50
117.40000000000001
 51
297.39999999999998
  0
LINE
  5
1CD
100
AcDbEntity
100
AcDbLine
  8
BLACK
 62
256
370
-1
 48
1.0
  6
ByLayer
 10
-2.8622899999999998
 20
7.1577900000000003
 30
0.0
 11
-2.8622899999999998
 21
5.8031199999999998
 31
0.0
  0
LINE
  5
1CE
100
AcDbEntity
100
AcDbLine
  8
BLACK
 62
256
370
-1
 48
1.0
  6
ByLayer
 10
-3.2251400000000001
 20
7.9318900000000001
 30
0.0
 11
-3.5880000000000001
 21
6.4804599999999999
 31
0.0
  0
LINE
  5
1CF
100
AcDbEntity
100
AcDbLine
  8
BLACK
 62
256
370
-1
 48
1.0
  6
ByLayer
 10
-3.5880000000000001
 20
6.4804599999999999
 30
0.0
 11
-2.6445699999999999
 21
6.4804599999999999
 31
0.0
  0
LINE
  5
1D0
100
AcDbEntity
100
AcDbLine
  8
BLACK
 62
256
370
-1
 48
1.0
  6
ByLayer
 10
-2.0640000000000001
 20
5.9966499999999998
 30
0.0
 11
-1.99143
 21
5.8998900000000001
 31
0.0
  0
LINE
  5
1D1
100
AcDbEntity
100
AcDbLine
  8
BLACK
 62
256
370
-1
 48
1.0
  6
ByLayer
 10
-1.99143
 20
5.8998900000000001
 30
0.0
 11
-2.0640000000000001
 21
5.8031199999999998
 31
0.0
  0
LINE
  5
1D2
100
AcDbEntity
100
AcDbLine
  8
BLACK
 62
256
370
-1
 48
1.0
  6
ByLayer
 10
-2.0640000000000001
 20
5.8031199999999998
 30
0.0
 11
-2.1365699999999999
 21
5.8998900000000001
 31
0.0
  0
LINE
  5
1D3
100
AcDbEntity
100
AcDbLine
  8
BLACK
 62
256
370
-1
 48
1.0
  6
ByLayer
 10
-2.1365699999999999
 20
5.8998900000000001
 30
0.0
 11
-2.0640000000000001
 21
5.9966499999999998
 31
0.0
  0
LINE
  5
1D4
100
AcDbEntity
100
AcDbLine
  8
BLACK
 62
256
370
-1
 48
1.0
  6
ByLayer
 10
-2.0640000000000001
 20
5.9966499999999998
 30
0.0
 11
-2.0640000000000001
 21
5.8031199999999998
 31
0.0
  0
LINE
  5
1D5
100
AcDbEntity
100
AcDbLine
  8
BLACK
 62
256
370
-1
 48
1.0
  6
ByLayer
 10
-1.048
 20
7.8351199999999999
 30
0.0
 11
-0.902857
 21
7.8351199999999999
 31
0.0
  0
LINE
  5
1D6
100
AcDbEntity
100
AcDbLine
  8
BLACK
 62
256
370
-1
 48
1.0
  6
ByLayer
 10
-0.902857
 20
7.8351199999999999
 30
0.0
 11
-0.757714
 21
7.7383600000000001
 31
0.0
  0
LINE
  5
1D7
100
AcDbEntity
100
AcDbLine
  8
BLACK
 62
256
370
-1
 48
1.0
  6
ByLayer
 10
-0.757714
 20
7.7383600000000001
 30
0.0
 11
-0.685143
 21
7.6416000000000004
 31
0.0
  0
LINE
  5
1D8
100
AcDbEntity
100
AcDbLine
  8
BLACK
 62
256
370
-1
 48
1.0
  6
ByLayer
 10
-0.685143
 20
7.6416000000000004
 30
0.0
 11
-0.612572
 21
7.44808
 31
0.0
  0
LINE
  5
1D9
100
AcDbEntity
100
AcDbLine
  8
BLACK
 62
256
370
-1
 48
1.0
  6
ByLayer
 10
-0.612572
 20
7.44808
 30
0.0
 11
-0.54
 21
7.0610299999999997
 31
0.0
  0
LINE
  5
1DA
100
AcDbEntity
100
AcDbLine
  8
BLACK
 62
256
370
-1
 48
1.0
  6
ByLayer
 10
-0.54
 20
7.0610299999999997
 30
0.0
 11
-0.54
 21
6.5772199999999996
 31
0.0
  0
LINE
  5
1DB
100
AcDbEntity
100
AcDbLine
  8
BLACK
 62
256
370
-1
 48
1.0
  6
ByLayer
 10
-0.54
 20
6.5772199999999996
 30
0.0
 11
-0.612572
 21
6.1901700000000002
 31
0.0
  0
LINE
  5
1DC
100
AcDbEntity
100
AcDbLine
  8
BLACK
 62
256
370
-1
 48
1.0
  6
ByLayer
 10
-0.612572
 20
6.1901700000000002
 30
0.0
 11
-0.685143
 21
5.9966499999999998
 31
0.0
  0
LINE
  5
1DD
100
AcDbEntity
100
AcDbLine
  8
BLACK
 62
256
370
-1
 48
1.0
  6
ByLayer
 10
-0.685143
 20
5.9966499999999998
 30
0.0
 11
-0.757714
 21
5.8998900000000001
 31
0.0
  0
LINE
  5
1DE
100
AcDbEntity
100
AcDbLine
  8
BLACK
 62
256
370
-1
 48
1.0
  6
ByLayer
 10
-0.757714
 20
5.8998900000000001
 30
0.0
 11
-0.902857
 21
5.8031199999999998
 31
0.0
  0
LINE
  5
1DF
100
AcDbEntity
100
AcDbLine
  8
BLACK
 62
256
370
-1
 48
1.0
  6
ByLayer
 10
-0.902857
 20
5.8031199999999998
 30
0.0
 11
-1.048
 21
5.8031199999999998
 31
0.0
  0
LINE
  5
1E0
100
AcDbEntity
100
AcDbLine
  8
BLACK
 62
256
370
-1
 48
1.0
  6
ByLayer
 10
-1.048
 20
5.8031199999999998
 30
0.0
 11
-1.1931400000000001
 21
5.8998900000000001
 31
0.0
  0
LINE
  5
1E1
100
AcDbEntity
100
AcDbLine
  8
BLACK
 62
256
370
-1
 48
1.0
  6
ByLayer
 10
-1.1931400000000001
 20
5.8998900000000001
 30
0.0
 11
-1.2657099999999999
 21
5.9966499999999998
 31
0.0
  0
LINE
  5
1E2
100
AcDbEntity
100
AcDbLine
  8
BLACK
 62
256
370
-1
 48
1.0
  6
ByLayer
 10
-1.2657099999999999
 20
5.9966499999999998
 30
0.0
 11
-1.33829
 21
6.1901700000000002
 31
0.0
  0
LINE
  5
1E3
100
AcDbEntity
100
AcDbLine
  8
BLACK
 62
256
370
-1
 48
1.0
  6
ByLayer
 10
-1.33829
 20
6.1901700000000002
 30
0.0
 11
-1.41086
 21
6.5772199999999996
 31
0.0
  0
LINE
  5
1E4
100
AcDbEntity
100
AcDbLine
  8
BLACK
 62
256
370
-1
 48
1.0
  6
ByLayer
 10
-1.41086
 20
6.5772199999999996
 30
0.0
 11
-1.41086
 21
7.0610299999999997
 31
0.0
  0
LINE
  5
1E5
100
AcDbEntity
100
AcDbLine
  8
BLACK
 62
256
370
-1
 48
1.0
  6
ByLayer
 10
-1.41086
 20
7.0610299999999997
 30
0.0
 11
-1.33829
 21
7.44808
 31
0.0
  0
LINE
  5
1E6
100
AcDbEntity
100
AcDbLine
  8
BLACK
 62
256
370
-1
 48
1.0
  6
ByLayer
 10
-1.33829
 20
7.44808
 30
0.0
 11
-1.2657099999999999
 21
7.6416000000000004
 31
0.0
  0
LINE
  5
1E7
100
AcDbEntity
100
AcDbLine
  8
BLACK
 62
256
370
-1
 48
1.0
  6
ByLayer
 10
-1.2657099999999999
 20
7.6416000000000004
 30
0.0
 11
-1.1931400000000001
 21
7.7383600000000001
 31
0.0
  0
LINE
  5
1E8
100
AcDbEntity
100
AcDbLine
  8
BLACK
 62
256
370
-1
 48
1.0
  6
ByLayer
 10
-1.1931400000000001
 20
7.7383600000000001
 30
0.0
 11
-1.048
 21
7.8351199999999999
 31
0.0
  0
LINE
  5
1E9
100
AcDbEntity
100
AcDbLine
  8
BLACK
 62
256
370
-1
 48
1.0
  6
ByLayer
 10
0.403429
 20
7.8351199999999999
 30
0.0
 11
0.548572
 21
7.8351199999999999
 31
0.0
  0
LINE
  5
1EA
100
AcDbEntity
100
AcDbLine
  8
BLACK
 62
256
370
-1
 48
1.0
  6
ByLayer
 10
0.548572
 20
7.8351199999999999
 30
0.0
 11
0.693715
 21
7.7383600000000001
 31
0.0
  0
LINE
  5
1EB
100
AcDbEntity
100
AcDbLine
  8
BLACK
 62
256
370
-1
 48
1.0
  6
ByLayer
 10
0.693715
 20
7.7383600000000001
 30
0.0
 11
0.766286
 21
7.6416000000000004
 31
0.0
  0
LINE
  5
1EC
100
AcDbEntity
100
AcDbLine
  8
BLACK
 62
256
370
-1
 48
1.0
  6
ByLayer
 10
0.766286
 20
7.6416000000000004
 30
0.0
 11
0.838857
 21
7.44808
 31
0.0
  0
LINE
  5
1ED
100
AcDbEntity
100
AcDbLine
  8
BLACK
 62
256
370
-1
 48
1.0
  6
ByLayer
 10
0.838857
 20
7.44808
 30
0.0
 11
0.911429
 21
7.0610299999999997
 31
0.0
  0
LINE
  5
1EE
100
AcDbEntity
100
AcDbLine
  8
BLACK
 62
256
370
-1
 48
1.0
  6
ByLayer
 10
0.911429
 20
7.0610299999999997
 30
0.0
 11
0.911429
 21
6.5772199999999996
 31
0.0
  0
LINE
  5
1EF
100
AcDbEntity
100
AcDbLine
  8
BLACK
 62
256
370
-1
 48
1.0
  6
ByLayer
 10
0.911429
 20
6.5772199999999996
 30
0.0
 11
0.838857
 21
6.1901700000000002
 31
0.0
  0
LINE
  5
1F0
100
AcDbEntity
100
AcDbLine
  8
BLACK
 62
256
370
-1
 48
1.0
  6
ByLayer
 10
0.838857
 20
6.1901700000000002
 30
0.0
 11
0.766286
 21
5.9966499999999998
 31
0.0
  0
LINE
  5
1F1
100
AcDbEntity
100
AcDbLine
  8
BLACK
 62
256
370
-1
 48
1.0
  6
ByLayer
 10
0.766286
 20
5.9966499999999998
 30
0.0
 11
0.693715
 21
5.8998900000000001
 31
0.0
  0
LINE
  5
1F2
100
AcDbEntity
100
AcDbLine
  8
BLACK
 62
256
370
-1
 48
1.0
  6
ByLayer
 10
0.693715
 20
5.8998900000000001
 30
0.0
 11
0.548572
 21
5.8031199999999998
 31
0.0
  0
LINE
  5
1F3
100
AcDbEntity
100
AcDbLine
  8
BLACK
 62
256
370
-1
 48
1.0
  6
ByLayer
 10
0.548572
 20
5.8031199999999998
 30
0.0
 11
0.403429
 21
5.8031199999999998
 31
0.0
  0
LINE
  5
1F4
100
AcDbEntity
100
AcDbLine
  8
BLACK
 62
256
370
-1
 48
1.0
  6
ByLayer
 10
0.403429
 20
5.8031199999999998
 30
0.0
 11
0.258286
 21
5.8998900000000001
 31
0.0
  0
LINE
  5
1F5
100
AcDbEntity
100
AcDbLine
  8
BLACK
 62
256
370
-1
 48
1.0
  6
ByLayer
 10
0.258286
 20
5.8998900000000001
 30
0.0
 11
0.185715
 21
5.9966499999999998
 31
0.0
  0
LINE
  5
1F6
100
AcDbEntity
100
AcDbLine
  8
BLACK
 62
256
370
-1
 48
1.0
  6
ByLayer
 10
0.185715
 20
5.9966499999999998
 30
0.0
 11
0.113143
 21
6.1901700000000002
 31
0.0
  0
LINE
  5
1F7
100
AcDbEntity
100
AcDbLine
  8
BLACK
 62
256
370
-1
 48
1.0
  6
ByLayer
 10
0.113143
 20
6.1901700000000002
 30
0.0
 11
0.040572
 21
6.5772199999999996
 31
0.0
  0
LINE
  5
1F8
100
AcDbEntity
100
AcDbLine
  8
BLACK
 62
256
370
-1
 48
1.0
  6
ByLayer
 10
0.040572
 20
6.5772199999999996
 30
0.0
 11
0.040572
 21
7.0610299999999997
 31
0.0
  0
LINE
  5
1F9
100
AcDbEntity
100
AcDbLine
  8
BLACK
 62
256
370
-1
 48
1.0
  6
ByLayer
 10
0.040572
 20
7.0610299999999997
 30
0.0
 11
0.113143
 21
7.44808
 31
0.0
  0
LINE
  5
1FA
100
AcDbEntity
100
AcDbLine
  8
BLACK
 62
256
370
-1
 48
1.0
  6
ByLayer
 10
0.113143
 20
7.44808
 30
0.0
 11
0.185715
 21
7.6416000000000004
 31
0.0
  0
LINE
  5
1FB
100
AcDbEntity
100
AcDbLine
  8
BLACK
 62
256
370
-1
 48
1.0
  6
ByLayer
 10
0.185715
 20
7.6416000000000004
 30
0.0
 11
0.258286
 21
7.7383600000000001
 31
0.0
  0
LINE
  5
1FC
100
AcDbEntity
100
AcDbLine
  8
BLACK
 62
256
370
-1
 48
1.0
  6
ByLayer
 10
0.258286
 20
7.7383600000000001
 30
0.0
 11
0.403429
 21
7.8351199999999999
 31
0.0
  0
LINE
  5
1FD
100
AcDbEntity
100
AcDbLine
  8
BLACK
 62
256
370
-1
 48
1.0
  6
ByLayer
 10
1.85486
 20
7.8351199999999999
 30
0.0
 11
2.0
 21
7.8351199999999999
 31
0.0
  0
LINE
  5
1FE
100
AcDbEntity
100
AcDbLine
  8
BLACK
 62
256
370
-1
 48
1.0
  6
ByLayer
 10
2.0
 20
7.8351199999999999
 30
0.0
 11
2.14514
 21
7.7383600000000001
 31
0.0
  0
LINE
  5
1FF
100
AcDbEntity
100
AcDbLine
  8
BLACK
 62
256
370
-1
 48
1.0
  6
ByLayer
 10
2.14514
 20
7.7383600000000001
 30
0.0
 11
2.2177199999999999
 21
7.6416000000000004
 31
0.0
  0
LINE
  5
200
100
AcDbEntity
100
AcDbLine
  8
BLACK
 62
256
370
-1
 48
1.0
  6
ByLayer
 10
2.2177199999999999
 20
7.6416000000000004
 30
0.0
 11
2.2902900000000002
 21
7.44808
 31
0.0
  0
LINE
  5
201
100
AcDbEntity
100
AcDbLine
  8
BLACK
 62
256
370
-1
 48
1.0
  6
ByLayer
 10
2.2902900000000002
 20
7.44808
 30
0.0
 11
2.36286
 21
7.0610299999999997
 31
0.0
  0
LINE
  5
202
100
AcDbEntity
100
AcDbLine
  8
BLACK
 62
256
370
-1
 48
1.0
  6
ByLayer
 10
2.36286
 20
7.0610299999999997
 30
0.0
 11
2.36286
 21
6.5772199999999996
 31
0.0
  0
LINE
  5
203
100
AcDbEntity
100
AcDbLine
  8
BLACK
 62
256
370
-1
 48
1.0
  6
ByLayer
 10
2.36286
 20
6.5772199999999996
 30
0.0
 11
2.2902900000000002
 21
6.1901700000000002
 31
0.0
  0
LINE
  5
204
100
AcDbEntity
100
AcDbLine
  8
BLACK
 62
256
370
-1
 48
1.0
  6
ByLayer
 10
2.2902900000000002
 20
6.1901700000000002
 30
0.0
 11
2.2177199999999999
 21
5.9966499999999998
 31
0.0
  0
LINE
  5
205
100
AcDbEntity
100
AcDbLine
  8
BLACK
 62
256
370
-1
 48
1.0
  6
ByLayer
 10
2.2177199999999999
 20
5.9966499999999998
 30
0.0
 11
2.14514
 21
5.8998900000000001
 31
0.0
  0
LINE
  5
206
100
AcDbEntity
100
AcDbLine
  8
BLACK
 62
256
370
-1
 48
1.0
  6
ByLayer
 10
2.14514
 20
5.8998900000000001
 30
0.0
 11
2.0
 21
5.8031199999999998
 31
0.0
  0
LINE
  5
207
100
AcDbEntity
100
AcDbLine
  8
BLACK
 62
256
370
-1
 48
1.0
  6
ByLayer
 10
2.0
 20
5.8031199999999998
 30
0.0
 11
1.85486
 21
5.8031199999999998
 31
0.0
  0
LINE
  5
208
100
AcDbEntity
100
AcDbLine
  8
BLACK
 62
256
370
-1
 48
1.0
  6
ByLayer
 10
1.85486
 20
5.8031199999999998
 30
0.0
 11
1.7097199999999999
 21
5.8998900000000001
 31
0.0
  0
LINE
  5
209
100
AcDbEntity
100
AcDbLine
  8
BLACK
 62
256
370
-1
 48
1.0
  6
ByLayer
 10
1.7097199999999999
 20
5.8998900000000001
 30
0.0
 11
1.63714
 21
5.9966499999999998
 31
0.0
  0
LINE
  5
20A
100
AcDbEntity
100
AcDbLine
  8
BLACK
 62
256
370
-1
 48
1.0
  6
ByLayer
 10
1.63714
 20
5.9966499999999998
 30
0.0
 11
1.56457
 21
6.1901700000000002
 31
0.0
  0
LINE
  5
20B
100
AcDbEntity
100
AcDbLine
  8
BLACK
 62
256
370
-1
 48
1.0
  6
ByLayer
 10
1.56457
 20
6.1901700000000002
 30
0.0
 11
1.492
 21
6.5772199999999996
 31
0.0
  0
LINE
  5
20C
100
AcDbEntity
100
AcDbLine
  8
BLACK
 62
256
370
-1
 48
1.0
  6
ByLayer
 10
1.492
 20
6.5772199999999996
 30
0.0
 11
1.492
 21
7.0610299999999997
 31
0.0
  0
LINE
  5
20D
100
AcDbEntity
100
AcDbLine
  8
BLACK
 62
256
370
-1
 48
1.0
  6
ByLayer
 10
1.492
 20
7.0610299999999997
 30
0.0
 11
1.56457
 21
7.44808
 31
0.0
  0
LINE
  5
20E
100
AcDbEntity
100
AcDbLine
  8
BLACK
 62
256
370
-1
 48
1.0
  6
ByLayer
 10
1.56457
 20
7.44808
 30
0.0
 11
1.63714
 21
7.6416000000000004
 31
0.0
  0
LINE
  5
20F
100
AcDbEntity
100
AcDbLine
  8
BLACK
 62
256
370
-1
 48
1.0
  6
ByLayer
 10
1.63714
 20
7.6416000000000004
 30
0.0
 11
1.7097199999999999
 21
7.7383600000000001
 31
0.0
  0
LINE
  5
210
100
AcDbEntity
100
AcDbLine
  8
BLACK
 62
256
370
-1
 48
1.0
  6
ByLayer
 10
1.7097199999999999
 20
7.7383600000000001
 30
0.0
 11
1.85486
 21
7.8351199999999999
 31
0.0
  0
LINE
  5
211
100
AcDbEntity
100
AcDbLine
  8
BLACK
 62
256
370
-1
 48
1.0
  6
ByLayer
 10
4.1771399999999996
 20
5.8031199999999998
 30
0.0
 11
4.1771399999999996
 21
7.1577900000000003
 31
0.0
  0
LINE
  5
212
100
AcDbEntity
100
AcDbLine
  8
BLACK
 62
256
370
-1
 48
1.0
  6
ByLayer
 10
4.1771399999999996
 20
6.96427
 30
0.0
 11
4.2497199999999999
 21
7.0610299999999997
 31
0.0
  0
LINE
  5
213
100
AcDbEntity
100
AcDbLine
  8
BLACK
 62
256
370
-1
 48
1.0
  6
ByLayer
 10
4.2497199999999999
 20
7.0610299999999997
 30
0.0
 11
4.3948600000000004
 21
7.1577900000000003
 31
0.0
  0
LINE
  5
214
100
AcDbEntity
100
AcDbLine
  8
BLACK
 62
256
370
-1
 48
1.0
  6
ByLayer
 10
4.3948600000000004
 20
7.1577900000000003
 30
0.0
 11
4.6125699999999998
 21
7.1577900000000003
 31
0.0
  0
LINE
  5
215
100
AcDbEntity
100
AcDbLine
  8
BLACK
 62
256
370
-1
 48
1.0
  6
ByLayer
 10
4.6125699999999998
 20
7.1577900000000003
 30
0.0
 11
4.7577199999999999
 21
7.0610299999999997
 31
0.0
  0
LINE
  5
216
100
AcDbEntity
100
AcDbLine
  8
BLACK
 62
256
370
-1
 48
1.0
  6
ByLayer
 10
4.7577199999999999
 20
7.0610299999999997
 30
0.0
 11
4.8302899999999998
 21
6.8674999999999997
 31
0.0
  0
LINE
  5
217
100
AcDbEntity
100
AcDbLine
  8
BLACK
 62
256
370
-1
 48
1.0
  6
ByLayer
 10
4.8302899999999998
 20
6.8674999999999997
 30
0.0
 11
4.8302899999999998
 21
5.8031199999999998
 31
0.0
  0
LINE
  5
218
100
AcDbEntity
100
AcDbLine
  8
BLACK
 62
256
370
-1
 48
1.0
  6
ByLayer
 10
4.8302899999999998
 20
6.8674999999999997
 30
0.0
 11
4.9028600000000004
 21
7.0610299999999997
 31
0.0
  0
LINE
  5
219
100
AcDbEntity
100
AcDbLine
  8
BLACK
 62
256
370
-1
 48
1.0
  6
ByLayer
 10
4.9028600000000004
 20
7.0610299999999997
 30
0.0
 11
5.048
 21
7.1577900000000003
 31
0.0
  0
LINE
  5
21A
100
AcDbEntity
100
AcDbLine
  8
BLACK
 62
256
370
-1
 48
1.0
  6
ByLayer
 10
5.048
 20
7.1577900000000003
 30
0.0
 11
5.26572
 21
7.1577900000000003
 31
0.0
  0
LINE
  5
21B
100
AcDbEntity
100
AcDbLine
  8
BLACK
 62
256
370
-1
 48
1.0
  6
ByLayer
 10
5.26572
 20
7.1577900000000003
 30
0.0
 11
5.4108599999999996
 21
7.0610299999999997
 31
0.0
  0
LINE
  5
21C
100
AcDbEntity
100
AcDbLine
  8
BLACK
 62
256
370
-1
 48
1.0
  6
ByLayer
 10
5.4108599999999996
 20
7.0610299999999997
 30
0.0
 11
5.4834300000000002
 21
6.8674999999999997
 31
0.0
  0
LINE
  5
21D
100
AcDbEntity
100
AcDbLine
  8
BLACK
 62
256
370
-1
 48
1.0
  6
ByLayer
 10
5.4834300000000002
 20
6.8674999999999997
 30
0.0
 11
5.4834300000000002
 21
5.8031199999999998
 31
0.0
  0
LINE
  5
21E
100
AcDbEntity
100
AcDbLine
  8
BLACK
 62
256
370
-1
 48
1.0
  6
ByLayer
 10
6.2091399999999997
 20
5.8031199999999998
 30
0.0
 11
6.2091399999999997
 21
7.1577900000000003
 31
0.0
  0
LINE
  5
21F
100
AcDbEntity
100
AcDbLine
  8
BLACK
 62
256
370
-1
 48
1.0
  6
ByLayer
 10
6.2091399999999997
 20
6.96427
 30
0.0
 11
6.28172
 21
7.0610299999999997
 31
0.0
  0
LINE
  5
220
100
AcDbEntity
100
AcDbLine
  8
BLACK
 62
256
370
-1
 48
1.0
  6
ByLayer
 10
6.28172
 20
7.0610299999999997
 30
0.0
 11
6.4268599999999996
 21
7.1577900000000003
 31
0.0
  0
LINE
  5
221
100
AcDbEntity
100
AcDbLine
  8
BLACK
 62
256
370
-1
 48
1.0
  6
ByLayer
 10
6.4268599999999996
 20
7.1577900000000003
 30
0.0
 11
6.6445699999999999
 21
7.1577900000000003
 31
0.0
  0
LINE
  5
222
100
AcDbEntity
100
AcDbLine
  8
BLACK
 62
256
370
-1
 48
1.0
  6
ByLayer
 10
6.6445699999999999
 20
7.1577900000000003
 30
0.0
 11
6.78972
 21
7.0610299999999997
 31
0.0
  0
LINE
  5
223
100
AcDbEntity
100
AcDbLine
  8
BLACK
 62
256
370
-1
 48
1.0
  6
ByLayer
 10
6.78972
 20
7.0610299999999997
 30
0.0
 11
6.8622899999999998
 21
6.8674999999999997
 31
0.0
  0
LINE
  5
224
100
AcDbEntity
100
AcDbLine
  8
BLACK
 62
256
370
-1
 48
1.0
  6
ByLayer
 10
6.8622899999999998
 20
6.8674999999999997
 30
0.0
 11
6.8622899999999998
 21
5.8031199999999998
 31
0.0
  0
LINE
  5
225
100
AcDbEntity
100
AcDbLine
  8
BLACK
 62
256
370
-1
 48
1.0
  6
ByLayer
 10
6.8622899999999998
 20
6.8674999999999997
 30
0.0
 11
6.9348599999999996
 21
7.0610299999999997
 31
0.0
  0
LINE
  5
226
100
AcDbEntity
100
AcDbLine
  8
BLACK
 62
256
370
-1
 48
1.0
  6
ByLayer
 10
6.9348599999999996
 20
7.0610299999999997
 30
0.0
 11
7.0800000000000001
 21
7.1577900000000003
 31
0.0
  0
LINE
  5
227
100
AcDbEntity
100
AcDbLine
  8
BLACK
 62
256
370
-1
 48
1.0
  6
ByLayer
 10
7.0800000000000001
 20
7.1577900000000003
 30
0.0
 11
7.29772
 21
7.1577900000000003
 31
0.0
  0
LINE
  5
228
100
AcDbEntity
100
AcDbLine
  8
BLACK
 62
256
370
-1
 48
1.0
  6
ByLayer
 10
7.29772
 20
7.1577900000000003
 30
0.0
 11
7.4428599999999996
 21
7.0610299999999997
 31
0.0
  0
LINE
  5
229
100
AcDbEntity
100
AcDbLine
  8
BLACK
 62
256
370
-1
 48
1.0
  6
ByLayer
 10
7.4428599999999996
 20
7.0610299999999997
 30
0.0
 11
7.5154300000000003
 21
6.8674999999999997
 31
0.0
  0
LINE
  5
22A
100
AcDbEntity
100
AcDbLine
  8
BLACK
 62
256
370
-1
 48
1.0
  6
ByLayer
 10
7.5154300000000003
 20
6.8674999999999997
 30
0.0
 11
7.5154300000000003
 21
5.8031199999999998
 31
0.0
  0
LINE
  5
22B
100
AcDbEntity
100
AcDbLine
  8
BLACK
 62
256
370
-1
 48
1.0
  6
ByLayer
 10
0.0
 20
4.8475999999999999
 30
0.0
 11
4.0
 21
4.8475999999999999
 31
0.0
  0
LINE
  5
22C
100
AcDbEntity
100
AcDbLine
  8
BLACK
 62
256
370
-1
 48
1.0
  6
ByLayer
 10
0.0
 20
5.1524000000000001
 30
0.0
 11
4.0
 21
5.1524000000000001
 31
0.0
  0
ARC
  5
22D
100
AcDbEntity
  8
BLACK
 62
256
370
-1
 48
1.0
  6
ByLayer
100
AcDbCircle
 10
4.0
 20
5.0
 30
0.0
 40
0.1524
100
AcDbArc
 50
270.0
 51
90.0
  0
ARC
  5
22E
100
AcDbEntity
  8
BLACK
 62
256
370
-1
 48
1.0
  6
ByLayer
100
AcDbCircle
 10
0.0
 20
5.0
 30
0.0
 40
0.1524
100
AcDbArc
 50
90.0
 51
270.0
  0
LINE
  5
22F
100
AcDbEntity
100
AcDbLine
  8
BLACK
 62
256
370
-1
 48
1.0
  6
ByLayer
 10
0.1524
 20
-4.0
 30
0.0
 11
0.1524
 21
8.2512000000000008
 31
0.0
  0
LINE
  5
230
100
AcDbEntity
100
AcDbLine
  8
BLACK
 62
256
370
-1
 48
1.0
  6
ByLayer
 10
-0.1524
 20
-4.0
 30
0.0
 11
-0.1524
 21
8.2512000000000008
 31
0.0
  0
ARC
  5
231
100
AcDbEntity
  8
BLACK
 62
256
370
-1
 48
1.0
  6
ByLayer
100
AcDbCircle
 10
0.0
 20
8.2512000000000008
 30
0.0
 40
0.1524
100
AcDbArc
 50
0.0
 51
180.0
  0
ARC
  5
232
100
AcDbEntity
  8
BLACK
 62
256
370
-1
 48
1.0
  6
ByLayer
100
AcDbCircle
 10
0.0
 20
-4.0
 30
0.0
 40
0.1524
100
AcDbArc
 50
180.0
 51
0.0
  0
LINE
  5
233
100
AcDbEntity
100
AcDbLine
  8
BLACK
 62
256
370
-1
 48
1.0
  6
ByLayer
 10
4.1524000000000001
 20
-4.0
 30
0.0
 11
4.1524000000000001
 21
8.2512000000000008
 31
0.0
  0
LINE
  5
234
100
AcDbEntity
100
AcDbLine
  8
BLACK
 62
256
370
-1
 48
1.0
  6
ByLayer
 10
3.8475999999999999
 20
-4.0
 30
0.0
 11
3.8475999999999999
 21
8.2512000000000008
 31
0.0
  0
ARC
  5
235
100
AcDbEntity
  8
BLACK
 62
256
370
-1
 48
1.0
  6
ByLayer
100
AcDbCircle
 10
4.0
 20
8.2512000000000008
 30
0.0
 40
0.1524
100
AcDbArc
 50
0.0
 51
180.0
  0
ARC
  5
236
100
AcDbEntity
  8
BLACK
 62
256
370
-1
 48
1.0
  6
ByLayer
100
AcDbCircle
 10
4.0
 20
-4.0
 30
0.0
 40
0.1524
100
AcDbArc
 50
180.0
 51
0.0
  0
LINE
  5
237
100
AcDbEntity
100
AcDbLine
  8
BLACK
 62
256
370
-1
 48
1.0
  6
ByLayer
 10
3.92963
 20
5.1351800000000001
 30
0.0
 11
2.8031299999999999
 21
4.5487599999999997
 31
0.0
  0
LINE
  5
238
100
AcDbEntity
100
AcDbLine
  8
BLACK
 62
256
370
-1
 48
1.0
  6
ByLayer
 10
4.0703699999999996
 20
4.8648199999999999
 30
0.0
 11
2.94387
 21
4.2784000000000004
 31
0.0
  0
ARC
  5
239
100
AcDbEntity
  8
BLACK
 62
256
370
-1
 48
1.0
  6
ByLayer
100
AcDbCircle
 10
2.8734999999999999
 20
4.4135799999999996
 30
0.0
 40
0.1524
100
AcDbArc
 50
117.5
 51
297.5
  0
ARC
  5
23A
100
AcDbEntity
  8
BLACK
 62
256
370
-1
 48
1.0
  6
ByLayer
100
AcDbCircle
 10
4.0
 20
5.0
 30
0.0
 40
0.1524
100
AcDbArc
 50
297.5
 51
117.5
  0
LINE
  5
23B
100
AcDbEntity
100
AcDbLine
  8
BLACK
 62
256
370
-1
 48
1.0
  6
ByLayer
 10
4.0703699999999996
 20
5.1351800000000001
 30
0.0
 11
2.94387
 21
5.7215999999999996
 31
0.0
  0
LINE
  5
23C
100
AcDbEntity
100
AcDbLine
  8
BLACK
 62
256
370
-1
 48
1.0
  6
ByLayer
 10
3.92963
 20
4.8648199999999999
 30
0.0
 11
2.8031299999999999
 21
5.4512400000000003
 31
0.0
  0
ARC
  5
23D
100
AcDbEntity
  8
BLACK
 62
256
370
-1
 48
1.0
  6
ByLayer
100
AcDbCircle
 10
2.8734999999999999
 20
5.5864200000000004
 30
0.0
 40
0.1524
100
AcDbArc
 50
62.5
 51
242.49999999999997
  0
ARC
  5
23E
100
AcDbEntity
  8
BLACK
 62
256
370
-1
 48
1.0
  6
ByLayer
100
AcDbCircle
 10
4.0
 20
5.0
 30
0.0
 40
0.1524
100
AcDbArc
 50
242.49999999999997
 51
62.5
  0
LINE
  5
23F
100
AcDbEntity
100
AcDbLine
  8
BLACK
 62
256
370
-1
 48
1.0
  6
ByLayer
 10
-0.070645
 20
4.8637100000000002
 30
0.0
 11
1.05688
 21
4.2792599999999998
 31
0.0
  0
LINE
  5
240
100
AcDbEntity
100
AcDbLine
  8
BLACK
 62
256
370
-1
 48
1.0
  6
ByLayer
 10
0.069624
 20
5.1343199999999998
 30
0.0
 11
1.1971499999999999
 21
4.5498700000000003
 31
0.0
  0
ARC
  5
241
100
AcDbEntity
  8
BLACK
 62
256
370
-1
 48
1.0
  6
ByLayer
100
AcDbCircle
 10
1.1270100000000001
 20
4.4145599999999998
 30
0.0
 40
0.1524
100
AcDbArc
 50
242.59999999999999
 51
62.600000000000023
  0
ARC
  5
242
100
AcDbEntity
  8
BLACK
 62
256
370
-1
 48
1.0
  6
ByLayer
100
AcDbCircle
 10
-0.000511
 20
4.9990199999999998
 30
0.0
 40
0.1524
100
AcDbArc
 50
62.600000000000001
 51
242.59999999999999
  0
LINE
  5
243
100
AcDbEntity
100
AcDbLine
  8
BLACK
 62
256
370
-1
 48
1.0
  6
ByLayer
 10
0.069624
 20
4.8656800000000002
 30
0.0
 11
1.1971499999999999
 21
5.4501299999999997
 31
0.0
  0
LINE
  5
244
100
AcDbEntity
100
AcDbLine
  8
BLACK
 62
256
370
-1
 48
1.0
  6
ByLayer
 10
-0.070645
 20
5.1362899999999998
 30
0.0
 11
1.05688
 21
5.7207400000000002
 31
0.0
  0
ARC
  5
245
100
AcDbEntity
  8
BLACK
 62
256
370
-1
 48
1.0
  6
ByLayer
100
AcDbCircle
 10
1.1270100000000001
 20
5.5854400000000002
 30
0.0
 40
0.1524
100
AcDbArc
 50
297.39999999999998
 51
117.39999999999996
  0
ARC
  5
246
100
AcDbEntity
  8
BLACK
 62
256
370
-1
 48
1.0
  6
ByLayer
100
AcDbCircle
 10
-0.000511
 20
5.0009800000000002
 30
0.0
 40
0.1524
100
AcDbArc
 50
117.40000000000001
 51
297.39999999999998
  0
LINE
  5
247
100
AcDbEntity
100
AcDbLine
  8
BLACK
 62
256
370
-1
 48
1.0
  6
ByLayer
 10
7.5571400000000004
 20
2.8031199999999998
 30
0.0
 11
6.6862899999999996
 21
2.8031199999999998
 31
0.0
  0
LINE
  5
248
100
AcDbEntity
100
AcDbLine
  8
BLACK
 62
256
370
-1
 48
1.0
  6
ByLayer
 10
7.1217100000000002
 20
2.8031199999999998
 30
0.0
 11
7.1217100000000002
 21
4.8351199999999999
 31
0.0
  0
LINE
  5
249
100
AcDbEntity
100
AcDbLine
  8
BLACK
 62
256
370
-1
 48
1.0
  6
ByLayer
 10
7.1217100000000002
 20
4.8351199999999999
 30
0.0
 11
6.9765699999999997
 21
4.5448399999999998
 31
0.0
  0
LINE
  5
24A
100
AcDbEntity
100
AcDbLine
  8
BLACK
 62
256
370
-1
 48
1.0
  6
ByLayer
 10
6.9765699999999997
 20
4.5448399999999998
 30
0.0
 11
6.8314300000000001
 21
4.3513099999999998
 31
0.0
  0
LINE
  5
24B
100
AcDbEntity
100
AcDbLine
  8
BLACK
 62
256
370
-1
 48
1.0
  6
ByLayer
 10
6.8314300000000001
 20
4.3513099999999998
 30
0.0
 11
6.6862899999999996
 21
4.2545500000000001
 31
0.0
  0
LINE
  5
24C
100
AcDbEntity
100
AcDbLine
  8
BLACK
 62
256
370
-1
 48
1.0
  6
ByLayer
 10
8.4280000000000008
 20
3.96427
 30
0.0
 11
8.2828599999999994
 21
4.0610299999999997
 31
0.0
  0
LINE
  5
24D
100
AcDbEntity
100
AcDbLine
  8
BLACK
 62
256
370
-1
 48
1.0
  6
ByLayer
 10
8.2828599999999994
 20
4.0610299999999997
 30
0.0
 11
8.2102900000000005
 21
4.1577900000000003
 31
0.0
  0
LINE
  5
24E
100
AcDbEntity
100
AcDbLine
  8
BLACK
 62
256
370
-1
 48
1.0
  6
ByLayer
 10
8.2102900000000005
 20
4.1577900000000003
 30
0.0
 11
8.1377100000000002
 21
4.3513099999999998
 31
0.0
  0
LINE
  5
24F
100
AcDbEntity
100
AcDbLine
  8
BLACK
 62
256
370
-1
 48
1.0
  6
ByLayer
 10
8.1377100000000002
 20
4.3513099999999998
 30
0.0
 11
8.1377100000000002
 21
4.44808
 31
0.0
  0
LINE
  5
250
100
AcDbEntity
100
AcDbLine
  8
BLACK
 62
256
370
-1
 48
1.0
  6
ByLayer
 10
8.1377100000000002
 20
4.44808
 30
0.0
 11
8.2102900000000005
 21
4.6416000000000004
 31
0.0
  0
LINE
  5
251
100
AcDbEntity
100
AcDbLine
  8
BLACK
 62
256
370
-1
 48
1.0
  6
ByLayer
 10
8.2102900000000005
 20
4.6416000000000004
 30
0.0
 11
8.2828599999999994
 21
4.7383600000000001
 31
0.0
  0
LINE
  5
252
100
AcDbEntity
100
AcDbLine
  8
BLACK
 62
256
370
-1
 48
1.0
  6
ByLayer
 10
8.2828599999999994
 20
4.7383600000000001
 30
0.0
 11
8.4280000000000008
 21
4.8351199999999999
 31
0.0
  0
LINE
  5
253
100
AcDbEntity
100
AcDbLine
  8
BLACK
 62
256
370
-1
 48
1.0
  6
ByLayer
 10
8.4280000000000008
 20
4.8351199999999999
 30
0.0
 11
8.7182899999999997
 21
4.8351199999999999
 31
0.0
  0
LINE
  5
254
100
AcDbEntity
100
AcDbLine
  8
BLACK
 62
256
370
-1
 48
1.0
  6
ByLayer
 10
8.7182899999999997
 20
4.8351199999999999
 30
0.0
 11
8.8634299999999993
 21
4.7383600000000001
 31
0.0
  0
LINE
  5
255
100
AcDbEntity
100
AcDbLine
  8
BLACK
 62
256
370
-1
 48
1.0
  6
ByLayer
 10
8.8634299999999993
 20
4.7383600000000001
 30
0.0
 11
8.9359999999999999
 21
4.6416000000000004
 31
0.0
  0
LINE
  5
256
100
AcDbEntity
100
AcDbLine
  8
BLACK
 62
256
370
-1
 48
1.0
  6
ByLayer
 10
8.9359999999999999
 20
4.6416000000000004
 30
0.0
 11
9.0085700000000006
 21
4.44808
 31
0.0
  0
LINE
  5
257
100
AcDbEntity
100
AcDbLine
  8
BLACK
 62
256
370
-1
 48
1.0
  6
ByLayer
 10
9.0085700000000006
 20
4.44808
 30
0.0
 11
9.0085700000000006
 21
4.3513099999999998
 31
0.0
  0
LINE
  5
258
100
AcDbEntity
100
AcDbLine
  8
BLACK
 62
256
370
-1
 48
1.0
  6
ByLayer
 10
9.0085700000000006
 20
4.3513099999999998
 30
0.0
 11
8.9359999999999999
 21
4.1577900000000003
 31
0.0
  0
LINE
  5
259
100
AcDbEntity
100
AcDbLine
  8
BLACK
 62
256
370
-1
 48
1.0
  6
ByLayer
 10
8.9359999999999999
 20
4.1577900000000003
 30
0.0
 11
8.8634299999999993
 21
4.0610299999999997
 31
0.0
  0
LINE
  5
25A
100
AcDbEntity
100
AcDbLine
  8
BLACK
 62
256
370
-1
 48
1.0
  6
ByLayer
 10
8.8634299999999993
 20
4.0610299999999997
 30
0.0
 11
8.7182899999999997
 21
3.96427
 31
0.0
  0
LINE
  5
25B
100
AcDbEntity
100
AcDbLine
  8
BLACK
 62
256
370
-1
 48
1.0
  6
ByLayer
 10
8.7182899999999997
 20
3.96427
 30
0.0
 11
8.4280000000000008
 21
3.96427
 31
0.0
  0
LINE
  5
25C
100
AcDbEntity
100
AcDbLine
  8
BLACK
 62
256
370
-1
 48
1.0
  6
ByLayer
 10
8.4280000000000008
 20
3.96427
 30
0.0
 11
8.2828599999999994
 21
3.8675000000000002
 31
0.0
  0
LINE
  5
25D
100
AcDbEntity
100
AcDbLine
  8
BLACK
 62
256
370
-1
 48
1.0
  6
ByLayer
 10
8.2828599999999994
 20
3.8675000000000002
 30
0.0
 11
8.2102900000000005
 21
3.77074
 31
0.0
  0
LINE
  5
25E
100
AcDbEntity
100
AcDbLine
  8
BLACK
 62
256
370
-1
 48
1.0
  6
ByLayer
 10
8.2102900000000005
 20
3.77074
 30
0.0
 11
8.1377100000000002
 21
3.5772200000000001
 31
0.0
  0
LINE
  5
25F
100
AcDbEntity
100
AcDbLine
  8
BLACK
 62
256
370
-1
 48
1.0
  6
ByLayer
 10
8.1377100000000002
 20
3.5772200000000001
 30
0.0
 11
8.1377100000000002
 21
3.1901700000000002
 31
0.0
  0
LINE
  5
260
100
AcDbEntity
100
AcDbLine
  8
BLACK
 62
256
370
-1
 48
1.0
  6
ByLayer
 10
8.1377100000000002
 20
3.1901700000000002
 30
0.0
 11
8.2102900000000005
 21
2.9966499999999998
 31
0.0
  0
LINE
  5
261
100
AcDbEntity
100
AcDbLine
  8
BLACK
 62
256
370
-1
 48
1.0
  6
ByLayer
 10
8.2102900000000005
 20
2.9966499999999998
 30
0.0
 11
8.2828599999999994
 21
2.8998900000000001
 31
0.0
  0
LINE
  5
262
100
AcDbEntity
100
AcDbLine
  8
BLACK
 62
256
370
-1
 48
1.0
  6
ByLayer
 10
8.2828599999999994
 20
2.8998900000000001
 30
0.0
 11
8.4280000000000008
 21
2.8031199999999998
 31
0.0
  0
LINE
  5
263
100
AcDbEntity
100
AcDbLine
  8
BLACK
 62
256
370
-1
 48
1.0
  6
ByLayer
 10
8.4280000000000008
 20
2.8031199999999998
 30
0.0
 11
8.7182899999999997
 21
2.8031199999999998
 31
0.0
  0
LINE
  5
264
100
AcDbEntity
100
AcDbLine
  8
BLACK
 62
256
370
-1
 48
1.0
  6
ByLayer
 10
8.7182899999999997
 20
2.8031199999999998
 30
0.0
 11
8.8634299999999993
 21
2.8998900000000001
 31
0.0
  0
LINE
  5
265
100
AcDbEntity
100
AcDbLine
  8
BLACK
 62
256
370
-1
 48
1.0
  6
ByLayer
 10
8.8634299999999993
 20
2.8998900000000001
 30
0.0
 11
8.9359999999999999
 21
2.9966499999999998
 31
0.0
  0
LINE
  5
266
100
AcDbEntity
100
AcDbLine
  8
BLACK
 62
256
370
-1
 48
1.0
  6
ByLayer
 10
8.9359999999999999
 20
2.9966499999999998
 30
0.0
 11
9.0085700000000006
 21
3.1901700000000002
 31
0.0
  0
LINE
  5
267
100
AcDbEntity
100
AcDbLine
  8
BLACK
 62
256
370
-1
 48
1.0
  6
ByLayer
 10
9.0085700000000006
 20
3.1901700000000002
 30
0.0
 11
9.0085700000000006
 21
3.5772200000000001
 31
0.0
  0
LINE
  5
268
100
AcDbEntity
100
AcDbLine
  8
BLACK
 62
256
370
-1
 48
1.0
  6
ByLayer
 10
9.0085700000000006
 20
3.5772200000000001
 30
0.0
 11
8.9359999999999999
 21
3.77074
 31
0.0
  0
LINE
  5
269
100
AcDbEntity
100
AcDbLine
  8
BLACK
 62
256
370
-1
 48
1.0
  6
ByLayer
 10
8.9359999999999999
 20
3.77074
 30
0.0
 11
8.8634299999999993
 21
3.8675000000000002
 31
0.0
  0
LINE
  5
26A
100
AcDbEntity
100
AcDbLine
  8
BLACK
 62
256
370
-1
 48
1.0
  6
ByLayer
 10
8.8634299999999993
 20
3.8675000000000002
 30
0.0
 11
8.7182899999999997
 21
3.96427
 31
0.0
  0
LINE
  5
26B
100
AcDbEntity
100
AcDbLine
  8
BLACK
 62
256
370
-1
 48
1.0
  6
ByLayer
 10
9.6617099999999994
 20
2.9966499999999998
 30
0.0
 11
9.7342899999999997
 21
2.8998900000000001
 31
0.0
  0
LINE
  5
26C
100
AcDbEntity
100
AcDbLine
  8
BLACK
 62
256
370
-1
 48
1.0
  6
ByLayer
 10
9.7342899999999997
 20
2.8998900000000001
 30
0.0
 11
9.6617099999999994
 21
2.8031199999999998
 31
0.0
  0
LINE
  5
26D
100
AcDbEntity
100
AcDbLine
  8
BLACK
 62
256
370
-1
 48
1.0
  6
ByLayer
 10
9.6359621737202481
 20
3.7739842886833497
 30
0.0
 11
9.5891400000000004
 21
2.8998900000000001
 31
0.0
  0
LINE
  5
26E
100
AcDbEntity
100
AcDbLine
  8
BLACK
 62
256
370
-1
 48
1.0
  6
ByLayer
 10
9.5891400000000004
 20
2.8998900000000001
 30
0.0
 11
9.6617099999999994
 21
2.9966499999999998
 31
0.0
  0
LINE
  5
26F
100
AcDbEntity
100
AcDbLine
  8
BLACK
 62
256
370
-1
 48
1.0
  6
ByLayer
 10
9.6617099999999994
 20
2.9966499999999998
 30
0.0
 11
9.6617099999999994
 21
2.8031199999999998
 31
0.0
  0
LINE
  5
270
100
AcDbEntity
100
AcDbLine
  8
BLACK
 62
256
370
-1
 48
1.0
  6
ByLayer
 10
10.6777
 20
4.8351199999999999
 30
0.0
 11
10.822900000000001
 21
4.8351199999999999
 31
0.0
  0
LINE
  5
271
100
AcDbEntity
100
AcDbLine
  8
BLACK
 62
256
370
-1
 48
1.0
  6
ByLayer
 10
10.822900000000001
 20
4.8351199999999999
 30
0.0
 11
10.968
 21
4.7383600000000001
 31
0.0
  0
LINE
  5
272
100
AcDbEntity
100
AcDbLine
  8
BLACK
 62
256
370
-1
 48
1.0
  6
ByLayer
 10
10.968
 20
4.7383600000000001
 30
0.0
 11
11.0406
 21
4.6416000000000004
 31
0.0
  0
LINE
  5
273
100
AcDbEntity
100
AcDbLine
  8
BLACK
 62
256
370
-1
 48
1.0
  6
ByLayer
 10
11.0406
 20
4.6416000000000004
 30
0.0
 11
11.113099999999999
 21
4.44808
 31
0.0
  0
LINE
  5
274
100
AcDbEntity
100
AcDbLine
  8
BLACK
 62
256
370
-1
 48
1.0
  6
ByLayer
 10
11.113099999999999
 20
4.44808
 30
0.0
 11
11.185700000000001
 21
4.0610299999999997
 31
0.0
  0
LINE
  5
275
100
AcDbEntity
100
AcDbLine
  8
BLACK
 62
256
370
-1
 48
1.0
  6
ByLayer
 10
11.185700000000001
 20
4.0610299999999997
 30
0.0
 11
11.185700000000001
 21
3.5772200000000001
 31
0.0
  0
LINE
  5
276
100
AcDbEntity
100
AcDbLine
  8
BLACK
 62
256
370
-1
 48
1.0
  6
ByLayer
 10
11.185700000000001
 20
3.5772200000000001
 30
0.0
 11
11.113099999999999
 21
3.1901700000000002
 31
0.0
  0
LINE
  5
277
100
AcDbEntity
100
AcDbLine
  8
BLACK
 62
256
370
-1
 48
1.0
  6
ByLayer
 10
11.113099999999999
 20
3.1901700000000002
 30
0.0
 11
11.0406
 21
2.9966499999999998
 31
0.0
  0
LINE
  5
278
100
AcDbEntity
100
AcDbLine
  8
BLACK
 62
256
370
-1
 48
1.0
  6
ByLayer
 10
11.0406
 20
2.9966499999999998
 30
0.0
 11
10.968
 21
2.8998900000000001
 31
0.0
  0
LINE
  5
279
100
AcDbEntity
100
AcDbLine
  8
BLACK
 62
256
370
-1
 48
1.0
  6
ByLayer
 10
10.968
 20
2.8998900000000001
 30
0.0
 11
10.822900000000001
 21
2.8031199999999998
 31
0.0
  0
LINE
  5
27A
100
AcDbEntity
100
AcDbLine
  8
BLACK
 62
256
370
-1
 48
1.0
  6
ByLayer
 10
10.822900000000001
 20
2.8031199999999998
 30
0.0
 11
10.6777
 21
2.8031199999999998
 31
0.0
  0
LINE
  5
27B
100
AcDbEntity
100
AcDbLine
  8
BLACK
 62
256
370
-1
 48
1.0
  6
ByLayer
 10
10.6777
 20
2.8031199999999998
 30
0.0
 11
10.5326
 21
2.8998900000000001
 31
0.0
  0
LINE
  5
27C
100
AcDbEntity
100
AcDbLine
  8
BLACK
 62
256
370
-1
 48
1.0
  6
ByLayer
 10
10.5326
 20
2.8998900000000001
 30
0.0
 11
10.460000000000001
 21
2.9966499999999998
 31
0.0
  0
LINE
  5
27D
100
AcDbEntity
100
AcDbLine
  8
BLACK
 62
256
370
-1
 48
1.0
  6
ByLayer
 10
10.460000000000001
 20
2.9966499999999998
 30
0.0
 11
10.3874
 21
3.1901700000000002
 31
0.0
  0
LINE
  5
27E
100
AcDbEntity
100
AcDbLine
  8
BLACK
 62
256
370
-1
 48
1.0
  6
ByLayer
 10
10.3874
 20
3.1901700000000002
 30
0.0
 11
10.3149
 21
3.5772200000000001
 31
0.0
  0
LINE
  5
27F
100
AcDbEntity
100
AcDbLine
  8
BLACK
 62
256
370
-1
 48
1.0
  6
ByLayer
 10
10.3149
 20
3.5772200000000001
 30
0.0
 11
10.3149
 21
4.0610299999999997
 31
0.0
  0
LINE
  5
280
100
AcDbEntity
100
AcDbLine
  8
BLACK
 62
256
370
-1
 48
1.0
  6
ByLayer
 10
10.3149
 20
4.0610299999999997
 30
0.0
 11
10.3874
 21
4.44808
 31
0.0
  0
LINE
  5
281
100
AcDbEntity
100
AcDbLine
  8
BLACK
 62
256
370
-1
 48
1.0
  6
ByLayer
 10
10.3874
 20
4.44808
 30
0.0
 11
10.460000000000001
 21
4.6416000000000004
 31
0.0
  0
LINE
  5
282
100
AcDbEntity
100
AcDbLine
  8
BLACK
 62
256
370
-1
 48
1.0
  6
ByLayer
 10
10.460000000000001
 20
4.6416000000000004
 30
0.0
 11
10.5326
 21
4.7383600000000001
 31
0.0
  0
LINE
  5
283
100
AcDbEntity
100
AcDbLine
  8
BLACK
 62
256
370
-1
 48
1.0
  6
ByLayer
 10
10.5326
 20
4.7383600000000001
 30
0.0
 11
10.6777
 21
4.8351199999999999
 31
0.0
  0
LINE
  5
284
100
AcDbEntity
100
AcDbLine
  8
BLACK
 62
256
370
-1
 48
1.0
  6
ByLayer
 10
12.129099999999999
 20
4.8351199999999999
 30
0.0
 11
12.2743
 21
4.8351199999999999
 31
0.0
  0
LINE
  5
285
100
AcDbEntity
100
AcDbLine
  8
BLACK
 62
256
370
-1
 48
1.0
  6
ByLayer
 10
12.2743
 20
4.8351199999999999
 30
0.0
 11
12.4194
 21
4.7383600000000001
 31
0.0
  0
LINE
  5
286
100
AcDbEntity
100
AcDbLine
  8
BLACK
 62
256
370
-1
 48
1.0
  6
ByLayer
 10
12.4194
 20
4.7383600000000001
 30
0.0
 11
12.492000000000001
 21
4.6416000000000004
 31
0.0
  0
LINE
  5
287
100
AcDbEntity
100
AcDbLine
  8
BLACK
 62
256
370
-1
 48
1.0
  6
ByLayer
 10
12.492000000000001
 20
4.6416000000000004
 30
0.0
 11
12.5646
 21
4.44808
 31
0.0
  0
LINE
  5
288
100
AcDbEntity
100
AcDbLine
  8
BLACK
 62
256
370
-1
 48
1.0
  6
ByLayer
 10
12.5646
 20
4.44808
 30
0.0
 11
12.6371
 21
4.0610299999999997
 31
0.0
  0
LINE
  5
289
100
AcDbEntity
100
AcDbLine
  8
BLACK
 62
256
370
-1
 48
1.0
  6
ByLayer
 10
12.6371
 20
4.0610299999999997
 30
0.0
 11
12.6371
 21
3.5772200000000001
 31
0.0
  0
LINE
  5
28A
100
AcDbEntity
100
AcDbLine
  8
BLACK
 62
256
370
-1
 48
1.0
  6
ByLayer
 10
12.6371
 20
3.5772200000000001
 30
0.0
 11
12.5646
 21
3.1901700000000002
 31
0.0
  0
LINE
  5
28B
100
AcDbEntity
100
AcDbLine
  8
BLACK
 62
256
370
-1
 48
1.0
  6
ByLayer
 10
12.5646
 20
3.1901700000000002
 30
0.0
 11
12.492000000000001
 21
2.9966499999999998
 31
0.0
  0
LINE
  5
28C
100
AcDbEntity
100
AcDbLine
  8
BLACK
 62
256
370
-1
 48
1.0
  6
ByLayer
 10
12.492000000000001
 20
2.9966499999999998
 30
0.0
 11
12.4194
 21
2.8998900000000001
 31
0.0
  0
LINE
  5
28D
100
AcDbEntity
100
AcDbLine
  8
BLACK
 62
256
370
-1
 48
1.0
  6
ByLayer
 10
12.4194
 20
2.8998900000000001
 30
0.0
 11
12.2743
 21
2.8031199999999998
 31
0.0
  0
LINE
  5
28E
100
AcDbEntity
100
AcDbLine
  8
BLACK
 62
256
370
-1
 48
1.0
  6
ByLayer
 10
12.2743
 20
2.8031199999999998
 30
0.0
 11
12.129099999999999
 21
2.8031199999999998
 31
0.0
  0
LINE
  5
28F
100
AcDbEntity
100
AcDbLine
  8
BLACK
 62
256
370
-1
 48
1.0
  6
ByLayer
 10
12.129099999999999
 20
2.8031199999999998
 30
0.0
 11
8.7182899999999997
 21
2.8031199999999994
 31
0.0
  0
LINE
  5
290
100
AcDbEntity
100
AcDbLine
  8
BLACK
 62
256
370
-1
 48
1.0
  6
ByLayer
 10
11.984
 20
2.8998900000000001
 30
0.0
 11
11.9114
 21
2.9966499999999998
 31
0.0
  0
LINE
  5
291
100
AcDbEntity
100
AcDbLine
  8
BLACK
 62
256
370
-1
 48
1.0
  6
ByLayer
 10
11.9114
 20
2.9966499999999998
 30
0.0
 11
11.838900000000001
 21
3.1901700000000002
 31
0.0
  0
LINE
  5
292
100
AcDbEntity
100
AcDbLine
  8
BLACK
 62
256
370
-1
 48
1.0
  6
ByLayer
 10
11.838900000000001
 20
3.1901700000000002
 30
0.0
 11
11.766299999999999
 21
3.5772200000000001
 31
0.0
  0
LINE
  5
293
100
AcDbEntity
100
AcDbLine
  8
BLACK
 62
256
370
-1
 48
1.0
  6
ByLayer
 10
11.766299999999999
 20
3.5772200000000001
 30
0.0
 11
11.766299999999999
 21
4.0610299999999997
 31
0.0
  0
LINE
  5
294
100
AcDbEntity
100
AcDbLine
  8
BLACK
 62
256
370
-1
 48
1.0
  6
ByLayer
 10
11.766299999999999
 20
4.0610299999999997
 30
0.0
 11
11.838900000000001
 21
4.44808
 31
0.0
  0
LINE
  5
295
100
AcDbEntity
100
AcDbLine
  8
BLACK
 62
256
370
-1
 48
1.0
  6
ByLayer
 10
11.838900000000001
 20
4.44808
 30
0.0
 11
11.9114
 21
4.6416000000000004
 31
0.0
  0
LINE
  5
296
100
AcDbEntity
100
AcDbLine
  8
BLACK
 62
256
370
-1
 48
1.0
  6
ByLayer
 10
11.9114
 20
4.6416000000000004
 30
0.0
 11
11.984
 21
4.7383600000000001
 31
0.0
  0
LINE
  5
297
100
AcDbEntity
100
AcDbLine
  8
BLACK
 62
256
370
-1
 48
1.0
  6
ByLayer
 10
11.984
 20
4.7383600000000001
 30
0.0
 11
12.129099999999999
 21
4.8351199999999999
 31
0.0
  0
LINE
  5
298
100
AcDbEntity
100
AcDbLine
  8
BLACK
 62
256
370
-1
 48
1.0
  6
ByLayer
 10
13.5806
 20
4.8351199999999999
 30
0.0
 11
13.7257
 21
4.8351199999999999
 31
0.0
  0
LINE
  5
299
100
AcDbEntity
100
AcDbLine
  8
BLACK
 62
256
370
-1
 48
1.0
  6
ByLayer
 10
13.7257
 20
4.8351199999999999
 30
0.0
 11
13.870900000000001
 21
4.7383600000000001
 31
0.0
  0
LINE
  5
29A
100
AcDbEntity
100
AcDbLine
  8
BLACK
 62
256
370
-1
 48
1.0
  6
ByLayer
 10
13.870900000000001
 20
4.7383600000000001
 30
0.0
 11
13.9434
 21
4.6416000000000004
 31
0.0
  0
LINE
  5
29B
100
AcDbEntity
100
AcDbLine
  8
BLACK
 62
256
370
-1
 48
1.0
  6
ByLayer
 10
13.9434
 20
4.6416000000000004
 30
0.0
 11
14.016
 21
4.44808
 31
0.0
  0
LINE
  5
29C
100
AcDbEntity
100
AcDbLine
  8
BLACK
 62
256
370
-1
 48
1.0
  6
ByLayer
 10
14.016
 20
4.44808
 30
0.0
 11
14.0886
 21
4.0610299999999997
 31
0.0
  0
LINE
  5
29D
100
AcDbEntity
100
AcDbLine
  8
BLACK
 62
256
370
-1
 48
1.0
  6
ByLayer
 10
14.0886
 20
4.0610299999999997
 30
0.0
 11
14.0886
 21
3.5772200000000001
 31
0.0
  0
LINE
  5
29E
100
AcDbEntity
100
AcDbLine
  8
BLACK
 62
256
370
-1
 48
1.0
  6
ByLayer
 10
14.0886
 20
3.5772200000000001
 30
0.0
 11
14.016
 21
3.1901700000000002
 31
0.0
  0
LINE
  5
29F
100
AcDbEntity
100
AcDbLine
  8
BLACK
 62
256
370
-1
 48
1.0
  6
ByLayer
 10
14.016
 20
3.1901700000000002
 30
0.0
 11
13.9434
 21
2.9966499999999998
 31
0.0
  0
LINE
  5
2A0
100
AcDbEntity
100
AcDbLine
  8
BLACK
 62
256
370
-1
 48
1.0
  6
ByLayer
 10
13.9434
 20
2.9966499999999998
 30
0.0
 11
13.870900000000001
 21
2.8998900000000001
 31
0.0
  0
LINE
  5
2A1
100
AcDbEntity
100
AcDbLine
  8
BLACK
 62
256
370
-1
 48
1.0
  6
ByLayer
 10
13.870900000000001
 20
2.8998900000000001
 30
0.0
 11
13.7257
 21
2.8031199999999998
 31
0.0
  0
LINE
  5
2A2
100
AcDbEntity
100
AcDbLine
  8
BLACK
 62
256
370
-1
 48
1.0
  6
ByLayer
 10
13.7257
 20
2.8031199999999998
 30
0.0
 11
13.5806
 21
2.8031199999999998
 31
0.0
  0
LINE
  5
2A3
100
AcDbEntity
100
AcDbLine
  8
BLACK
 62
256
370
-1
 48
1.0
  6
ByLayer
 10
13.5806
 20
2.8031199999999998
 30
0.0
 11
13.4354
 21
2.8998900000000001
 31
0.0
  0
LINE
  5
2A4
100
AcDbEntity
100
AcDbLine
  8
BLACK
 62
256
370
-1
 48
1.0
  6
ByLayer
 10
13.4354
 20
2.8998900000000001
 30
0.0
 11
13.3629
 21
2.9966499999999998
 31
0.0
  0
LINE
  5
2A5
100
AcDbEntity
100
AcDbLine
  8
BLACK
 62
256
370
-1
 48
1.0
  6
ByLayer
 10
13.3629
 20
2.9966499999999998
 30
0.0
 11
13.2903
 21
3.1901700000000002
 31
0.0
  0
LINE
  5
2A6
100
AcDbEntity
100
AcDbLine
  8
BLACK
 62
256
370
-1
 48
1.0
  6
ByLayer
 10
13.2903
 20
3.1901700000000002
 30
0.0
 11
13.217700000000001
 21
3.5772200000000001
 31
0.0
  0
LINE
  5
2A7
100
AcDbEntity
100
AcDbLine
  8
BLACK
 62
256
370
-1
 48
1.0
  6
ByLayer
 10
13.217700000000001
 20
3.5772200000000001
 30
0.0
 11
13.217700000000001
 21
4.0610299999999997
 31
0.0
  0
LINE
  5
2A8
100
AcDbEntity
100
AcDbLine
  8
BLACK
 62
256
370
-1
 48
1.0
  6
ByLayer
 10
13.217700000000001
 20
4.0610299999999997
 30
0.0
 11
13.2903
 21
4.44808
 31
0.0
  0
LINE
  5
2A9
100
AcDbEntity
100
AcDbLine
  8
BLACK
 62
256
370
-1
 48
1.0
  6
ByLayer
 10
13.2903
 20
4.44808
 30
0.0
 11
13.3629
 21
4.6416000000000004
 31
0.0
  0
LINE
  5
2AA
100
AcDbEntity
100
AcDbLine
  8
BLACK
 62
256
370
-1
 48
1.0
  6
ByLayer
 10
13.3629
 20
4.6416000000000004
 30
0.0
 11
13.4354
 21
4.7383600000000001
 31
0.0
  0
LINE
  5
2AB
100
AcDbEntity
100
AcDbLine
  8
BLACK
 62
256
370
-1
 48
1.0
  6
ByLayer
 10
13.4354
 20
4.7383600000000001
 30
0.0
 11
13.5806
 21
4.8351199999999999
 31
0.0
  0
LINE
  5
2AC
100
AcDbEntity
100
AcDbLine
  8
BLACK
 62
256
370
-1
 48
1.0
  6
ByLayer
 10
15.902900000000001
 20
2.8031199999999998
 30
0.0
 11
15.902900000000001
 21
4.1577900000000003
 31
0.0
  0
LINE
  5
2AD
100
AcDbEntity
100
AcDbLine
  8
BLACK
 62
256
370
-1
 48
1.0
  6
ByLayer
 10
15.902900000000001
 20
3.96427
 30
0.0
 11
15.9754
 21
4.0610299999999997
 31
0.0
  0
LINE
  5
2AE
100
AcDbEntity
100
AcDbLine
  8
BLACK
 62
256
370
-1
 48
1.0
  6
ByLayer
 10
15.9754
 20
4.0610299999999997
 30
0.0
 11
16.1206
 21
4.1577900000000003
 31
0.0
  0
LINE
  5
2AF
100
AcDbEntity
100
AcDbLine
  8
BLACK
 62
256
370
-1
 48
1.0
  6
ByLayer
 10
16.1206
 20
4.1577900000000003
 30
0.0
 11
16.3383
 21
4.1577900000000003
 31
0.0
  0
LINE
  5
2B0
100
AcDbEntity
100
AcDbLine
  8
BLACK
 62
256
370
-1
 48
1.0
  6
ByLayer
 10
16.3383
 20
4.1577900000000003
 30
0.0
 11
16.4834
 21
4.0610299999999997
 31
0.0
  0
LINE
  5
2B1
100
AcDbEntity
100
AcDbLine
  8
BLACK
 62
256
370
-1
 48
1.0
  6
ByLayer
 10
16.4834
 20
4.0610299999999997
 30
0.0
 11
16.556000000000001
 21
3.8675000000000002
 31
0.0
  0
LINE
  5
2B2
100
AcDbEntity
100
AcDbLine
  8
BLACK
 62
256
370
-1
 48
1.0
  6
ByLayer
 10
16.556000000000001
 20
3.8675000000000002
 30
0.0
 11
16.556000000000001
 21
2.8031199999999998
 31
0.0
  0
LINE
  5
2B3
100
AcDbEntity
100
AcDbLine
  8
BLACK
 62
256
370
-1
 48
1.0
  6
ByLayer
 10
16.556000000000001
 20
3.8675000000000002
 30
0.0
 11
16.628599999999999
 21
4.0610299999999997
 31
0.0
  0
LINE
  5
2B4
100
AcDbEntity
100
AcDbLine
  8
BLACK
 62
256
370
-1
 48
1.0
  6
ByLayer
 10
16.628599999999999
 20
4.0610299999999997
 30
0.0
 11
16.773700000000002
 21
4.1577900000000003
 31
0.0
  0
LINE
  5
2B5
100
AcDbEntity
100
AcDbLine
  8
BLACK
 62
256
370
-1
 48
1.0
  6
ByLayer
 10
16.773700000000002
 20
4.1577900000000003
 30
0.0
 11
16.991399999999999
 21
4.1577900000000003
 31
0.0
  0
LINE
  5
2B6
100
AcDbEntity
100
AcDbLine
  8
BLACK
 62
256
370
-1
 48
1.0
  6
ByLayer
 10
16.991399999999999
 20
4.1577900000000003
 30
0.0
 11
17.136600000000001
 21
4.0610299999999997
 31
0.0
  0
LINE
  5
2B7
100
AcDbEntity
100
AcDbLine
  8
BLACK
 62
256
370
-1
 48
1.0
  6
ByLayer
 10
17.136600000000001
 20
4.0610299999999997
 30
0.0
 11
17.209099999999999
 21
3.8675000000000002
 31
0.0
  0
LINE
  5
2B8
100
AcDbEntity
100
AcDbLine
  8
BLACK
 62
256
370
-1
 48
1.0
  6
ByLayer
 10
17.209099999999999
 20
3.8675000000000002
 30
0.0
 11
17.209099999999999
 21
2.8031199999999998
 31
0.0
  0
LINE
  5
2B9
100
AcDbEntity
100
AcDbLine
  8
BLACK
 62
256
370
-1
 48
1.0
  6
ByLayer
 10
17.934899999999999
 20
2.8031199999999998
 30
0.0
 11
17.934899999999999
 21
4.1577900000000003
 31
0.0
  0
LINE
  5
2BA
100
AcDbEntity
100
AcDbLine
  8
BLACK
 62
256
370
-1
 48
1.0
  6
ByLayer
 10
17.934899999999999
 20
3.96427
 30
0.0
 11
18.007400000000001
 21
4.0610299999999997
 31
0.0
  0
LINE
  5
2BB
100
AcDbEntity
100
AcDbLine
  8
BLACK
 62
256
370
-1
 48
1.0
  6
ByLayer
 10
18.007400000000001
 20
4.0610299999999997
 30
0.0
 11
18.1526
 21
4.1577900000000003
 31
0.0
  0
LINE
  5
2BC
100
AcDbEntity
100
AcDbLine
  8
BLACK
 62
256
370
-1
 48
1.0
  6
ByLayer
 10
18.1526
 20
4.1577900000000003
 30
0.0
 11
18.3703
 21
4.1577900000000003
 31
0.0
  0
LINE
  5
2BD
100
AcDbEntity
100
AcDbLine
  8
BLACK
 62
256
370
-1
 48
1.0
  6
ByLayer
 10
18.3703
 20
4.1577900000000003
 30
0.0
 11
18.5154
 21
4.0610299999999997
 31
0.0
  0
LINE
  5
2BE
100
AcDbEntity
100
AcDbLine
  8
BLACK
 62
256
370
-1
 48
1.0
  6
ByLayer
 10
18.5154
 20
4.0610299999999997
 30
0.0
 11
18.588000000000001
 21
3.8675000000000002
 31
0.0
  0
LINE
  5
2BF
100
AcDbEntity
100
AcDbLine
  8
BLACK
 62
256
370
-1
 48
1.0
  6
ByLayer
 10
18.588000000000001
 20
3.8675000000000002
 30
0.0
 11
18.588000000000001
 21
2.8031199999999998
 31
0.0
  0
LINE
  5
2C0
100
AcDbEntity
100
AcDbLine
  8
BLACK
 62
256
370
-1
 48
1.0
  6
ByLayer
 10
18.588000000000001
 20
3.8675000000000002
 30
0.0
 11
18.660599999999999
 21
4.0610299999999997
 31
0.0
  0
LINE
  5
2C1
100
AcDbEntity
100
AcDbLine
  8
BLACK
 62
256
370
-1
 48
1.0
  6
ByLayer
 10
18.660599999999999
 20
4.0610299999999997
 30
0.0
 11
18.805700000000002
 21
4.1577900000000003
 31
0.0
  0
LINE
  5
2C2
100
AcDbEntity
100
AcDbLine
  8
BLACK
 62
256
370
-1
 48
1.0
  6
ByLayer
 10
18.805700000000002
 20
4.1577900000000003
 30
0.0
 11
19.023399999999999
 21
4.1577900000000003
 31
0.0
  0
LINE
  5
2C3
100
AcDbEntity
100
AcDbLine
  8
BLACK
 62
256
370
-1
 48
1.0
  6
ByLayer
 10
19.023399999999999
 20
4.1577900000000003
 30
0.0
 11
19.168600000000001
 21
4.0610299999999997
 31
0.0
  0
LINE
  5
2C4
100
AcDbEntity
100
AcDbLine
  8
BLACK
 62
256
370
-1
 48
1.0
  6
ByLayer
 10
19.168600000000001
 20
4.0610299999999997
 30
0.0
 11
19.241099999999999
 21
3.8675000000000002
 31
0.0
  0
LINE
  5
2C5
100
AcDbEntity
100
AcDbLine
  8
BLACK
 62
256
370
-1
 48
1.0
  6
ByLayer
 10
19.241099999999999
 20
3.8675000000000002
 30
0.0
 11
19.241099999999999
 21
2.8031199999999998
 31
0.0
  0
LINE
  5
2C6
100
AcDbEntity
100
AcDbLine
  8
BLACK
 62
256
370
-1
 48
1.0
  6
ByLayer
 10
4.0
 20
1.8475999999999999
 30
0.0
 11
22.0
 21
1.8475999999999999
 31
0.0
  0
LINE
  5
2C7
100
AcDbEntity
100
AcDbLine
  8
BLACK
 62
256
370
-1
 48
1.0
  6
ByLayer
 10
4.0
 20
2.1524000000000001
 30
0.0
 11
22.0
 21
2.1524000000000001
 31
0.0
  0
ARC
  5
2C8
100
AcDbEntity
  8
BLACK
 62
256
370
-1
 48
1.0
  6
ByLayer
100
AcDbCircle
 10
22.0
 20
2.0
 30
0.0
 40
0.1524
100
AcDbArc
 50
270.0
 51
90.0
  0
ARC
  5
2C9
100
AcDbEntity
  8
BLACK
 62
256
370
-1
 48
1.0
  6
ByLayer
100
AcDbCircle
 10
4.0
 20
2.0
 30
0.0
 40
0.1524
100
AcDbArc
 50
90.0
 51
270.0
  0
LINE
  5
2CA
100
AcDbEntity
100
AcDbLine
  8
BLACK
 62
256
370
-1
 48
1.0
  6
ByLayer
 10
4.1524000000000001
 20
-4.0
 30
0.0
 11
4.1524000000000001
 21
5.2511999999999999
 31
0.0
  0
LINE
  5
2CB
100
AcDbEntity
100
AcDbLine
  8
BLACK
 62
256
370
-1
 48
1.0
  6
ByLayer
 10
3.8475999999999999
 20
-4.0
 30
0.0
 11
3.8475999999999999
 21
5.2511999999999999
 31
0.0
  0
ARC
  5
2CC
100
AcDbEntity
  8
BLACK
 62
256
370
-1
 48
1.0
  6
ByLayer
100
AcDbCircle
 10
4.0
 20
5.2511999999999999
 30
0.0
 40
0.1524
100
AcDbArc
 50
0.0
 51
180.0
  0
ARC
  5
2CD
100
AcDbEntity
  8
BLACK
 62
256
370
-1
 48
1.0
  6
ByLayer
100
AcDbCircle
 10
4.0
 20
-4.0
 30
0.0
 40
0.1524
100
AcDbArc
 50
180.0
 51
0.0
  0
LINE
  5
2CE
100
AcDbEntity
100
AcDbLine
  8
BLACK
 62
256
370
-1
 48
1.0
  6
ByLayer
 10
22.1524
 20
-4.0
 30
0.0
 11
22.1524
 21
5.2511999999999999
 31
0.0
  0
LINE
  5
2CF
100
AcDbEntity
100
AcDbLine
  8
BLACK
 62
256
370
-1
 48
1.0
  6
ByLayer
 10
21.8476
 20
-4.0
 30
0.0
 11
21.8476
 21
5.2511999999999999
 31
0.0
  0
ARC
  5
2D0
100
AcDbEntity
  8
BLACK
 62
256
370
-1
 48
1.0
  6
ByLayer
100
AcDbCircle
 10
22.0
 20
5.2511999999999999
 30
0.0
 40
0.1524
100
AcDbArc
 50
0.0
 51
180.0
  0
ARC
  5
2D1
100
AcDbEntity
  8
BLACK
 62
256
370
-1
 48
1.0
  6
ByLayer
100
AcDbCircle
 10
22.0
 20
-4.0
 30
0.0
 40
0.1524
100
AcDbArc
 50
180.0
 51
0.0
  0
LINE
  5
2D2
100
AcDbEntity
100
AcDbLine
  8
BLACK
 62
256
370
-1
 48
1.0
  6
ByLayer
 10
21.929600000000001
 20
2.1351800000000001
 30
0.0
 11
20.803100000000001
 21
1.5487599999999999
 31
0.0
  0
LINE
  5
2D3
100
AcDbEntity
100
AcDbLine
  8
BLACK
 62
256
370
-1
 48
1.0
  6
ByLayer
 10
22.070399999999999
 20
1.8648199999999999
 30
0.0
 11
20.943899999999999
 21
1.2784
 31
0.0
  0
ARC
  5
2D4
100
AcDbEntity
  8
BLACK
 62
256
370
-1
 48
1.0
  6
ByLayer
100
AcDbCircle
 10
20.8735
 20
1.4135800000000001
 30
0.0
 40
0.1524
100
AcDbArc
 50
117.5
 51
297.5
  0
ARC
  5
2D5
100
AcDbEntity
  8
BLACK
 62
256
370
-1
 48
1.0
  6
ByLayer
100
AcDbCircle
 10
22.0
 20
2.0
 30
0.0
 40
0.1524
100
AcDbArc
 50
297.5
 51
117.5
  0
LINE
  5
2D6
100
AcDbEntity
100
AcDbLine
  8
BLACK
 62
256
370
-1
 48
1.0
  6
ByLayer
 10
22.070399999999999
 20
2.1351800000000001
 30
0.0
 11
20.943899999999999
 21
2.7216
 31
0.0
  0
LINE
  5
2D7
100
AcDbEntity
100
AcDbLine
  8
BLACK
 62
256
370
-1
 48
1.0
  6
ByLayer
 10
21.929600000000001
 20
1.8648199999999999
 30
0.0
 11
20.803100000000001
 21
2.4512399999999999
 31
0.0
  0
ARC
  5
2D8
100
AcDbEntity
  8
BLACK
 62
256
370
-1
 48
1.0
  6
ByLayer
100
AcDbCircle
 10
20.8735
 20
2.5864199999999999
 30
0.0
 40
0.1524
100
AcDbArc
 50
62.5
 51
242.49999999999997
  0
ARC
  5
2D9
100
AcDbEntity
  8
BLACK
 62
256
370
-1
 48
1.0
  6
ByLayer
100
AcDbCircle
 10
22.0
 20
2.0
 30
0.0
 40
0.1524
100
AcDbArc
 50
242.49999999999997
 51
62.5
  0
LINE
  5
2DA
100
AcDbEntity
100
AcDbLine
  8
BLACK
 62
256
370
-1
 48
1.0
  6
ByLayer
 10
3.92936
 20
1.86371
 30
0.0
 11
5.0568799999999996
 21
1.2792600000000001
 31
0.0
  0
LINE
  5
2DB
100
AcDbEntity
100
AcDbLine
  8
BLACK
 62
256
370
-1
 48
1.0
  6
ByLayer
 10
4.0696199999999996
 20
2.1343200000000002
 30
0.0
 11
5.1971499999999997
 21
1.5498700000000001
 31
0.0
  0
ARC
  5
2DC
100
AcDbEntity
  8
BLACK
 62
256
370
-1
 48
1.0
  6
ByLayer
100
AcDbCircle
 10
5.1270100000000003
 20
1.41456
 30
0.0
 40
0.1524
100
AcDbArc
 50
242.59999999999999
 51
62.600000000000023
  0
ARC
  5
2DD
100
AcDbEntity
  8
BLACK
 62
256
370
-1
 48
1.0
  6
ByLayer
100
AcDbCircle
 10
3.9994900000000002
 20
1.99902
 30
0.0
 40
0.1524
100
AcDbArc
 50
62.600000000000001
 51
242.59999999999999
  0
LINE
  5
2DE
100
AcDbEntity
100
AcDbLine
  8
BLACK
 62
256
370
-1
 48
1.0
  6
ByLayer
 10
4.0696199999999996
 20
1.86568
 30
0.0
 11
5.1971499999999997
 21
2.4501300000000001
 31
0.0
  0
LINE
  5
2DF
100
AcDbEntity
100
AcDbLine
  8
BLACK
 62
256
370
-1
 48
1.0
  6
ByLayer
 10
3.92936
 20
2.1362899999999998
 30
0.0
 11
5.0568799999999996
 21
2.7207400000000002
 31
0.0
  0
ARC
  5
2E0
100
AcDbEntity
  8
BLACK
 62
256
370
-1
 48
1.0
  6
ByLayer
100
AcDbCircle
 10
5.1270100000000003
 20
2.5854400000000002
 30
0.0
 40
0.1524
100
AcDbArc
 50
297.39999999999998
 51
117.39999999999996
  0
ARC
  5
2E1
100
AcDbEntity
  8
BLACK
 62
256
370
-1
 48
1.0
  6
ByLayer
100
AcDbCircle
 10
3.9994900000000002
 20
2.0009800000000002
 30
0.0
 40
0.1524
100
AcDbArc
 50
117.40000000000001
 51
297.39999999999998
  0
LINE
  5
2E2
100
AcDbEntity
100
AcDbLine
  8
BLACK
 62
256
370
-1
 48
1.0
  6
ByLayer
 10
34.4161
 20
-25.886299999999999
 30
0.0
 11
34.4161
 21
-24.942900000000002
 31
0.0
  0
LINE
  5
2E3
100
AcDbEntity
100
AcDbLine
  8
BLACK
 62
256
370
-1
 48
1.0
  6
ByLayer
 10
34.4161
 20
-24.942900000000002
 30
0.0
 11
35.190199999999997
 21
-25.450900000000001
 31
0.0
  0
LINE
  5
2E4
100
AcDbEntity
100
AcDbLine
  8
BLACK
 62
256
370
-1
 48
1.0
  6
ByLayer
 10
35.190199999999997
 20
-25.450900000000001
 30
0.0
 11
35.190199999999997
 21
-25.2331
 31
0.0
  0
LINE
  5
2E5
100
AcDbEntity
100
AcDbLine
  8
BLACK
 62
256
370
-1
 48
1.0
  6
ByLayer
 10
35.190199999999997
 20
-25.2331
 30
0.0
 11
35.286900000000003
 21
-25.088000000000001
 31
0.0
  0
LINE
  5
2E6
100
AcDbEntity
100
AcDbLine
  8
BLACK
 62
256
370
-1
 48
1.0
  6
ByLayer
 10
35.286900000000003
 20
-25.088000000000001
 30
0.0
 11
35.383699999999997
 21
-25.0154
 31
0.0
  0
LINE
  5
2E7
100
AcDbEntity
100
AcDbLine
  8
BLACK
 62
256
370
-1
 48
1.0
  6
ByLayer
 10
35.383699999999997
 20
-25.0154
 30
0.0
 11
35.577199999999998
 21
-24.942900000000002
 31
0.0
  0
LINE
  5
2E8
100
AcDbEntity
100
AcDbLine
  8
BLACK
 62
256
370
-1
 48
1.0
  6
ByLayer
 10
35.577199999999998
 20
-24.942900000000002
 30
0.0
 11
36.061
 21
-24.942900000000002
 31
0.0
  0
LINE
  5
2E9
100
AcDbEntity
100
AcDbLine
  8
BLACK
 62
256
370
-1
 48
1.0
  6
ByLayer
 10
36.061
 20
-24.942900000000002
 30
0.0
 11
36.254600000000003
 21
-25.0154
 31
0.0
  0
LINE
  5
2EA
100
AcDbEntity
100
AcDbLine
  8
BLACK
 62
256
370
-1
 48
1.0
  6
ByLayer
 10
36.254600000000003
 20
-25.0154
 30
0.0
 11
36.351300000000002
 21
-25.088000000000001
 31
0.0
  0
LINE
  5
2EB
100
AcDbEntity
100
AcDbLine
  8
BLACK
 62
256
370
-1
 48
1.0
  6
ByLayer
 10
36.351300000000002
 20
-25.088000000000001
 30
0.0
 11
36.448099999999997
 21
-25.2331
 31
0.0
  0
LINE
  5
2EC
100
AcDbEntity
100
AcDbLine
  8
BLACK
 62
256
370
-1
 48
1.0
  6
ByLayer
 10
36.448099999999997
 20
-25.2331
 30
0.0
 11
36.448099999999997
 21
-25.668600000000001
 31
0.0
  0
LINE
  5
2ED
100
AcDbEntity
100
AcDbLine
  8
BLACK
 62
256
370
-1
 48
1.0
  6
ByLayer
 10
36.448099999999997
 20
-25.668600000000001
 30
0.0
 11
36.351300000000002
 21
-25.813700000000001
 31
0.0
  0
LINE
  5
2EE
100
AcDbEntity
100
AcDbLine
  8
BLACK
 62
256
370
-1
 48
1.0
  6
ByLayer
 10
36.351300000000002
 20
-25.813700000000001
 30
0.0
 11
36.254600000000003
 21
-25.886299999999999
 31
0.0
  0
LINE
  5
2EF
100
AcDbEntity
100
AcDbLine
  8
BLACK
 62
256
370
-1
 48
1.0
  6
ByLayer
 10
36.448099999999997
 20
-24.217099999999999
 30
0.0
 11
36.448099999999997
 21
-23.9269
 31
0.0
  0
LINE
  5
2F0
100
AcDbEntity
100
AcDbLine
  8
BLACK
 62
256
370
-1
 48
1.0
  6
ByLayer
 10
36.448099999999997
 20
-23.9269
 30
0.0
 11
36.351300000000002
 21
-23.781700000000001
 31
0.0
  0
LINE
  5
2F1
100
AcDbEntity
100
AcDbLine
  8
BLACK
 62
256
370
-1
 48
1.0
  6
ByLayer
 10
36.351300000000002
 20
-23.781700000000001
 30
0.0
 11
36.254600000000003
 21
-23.709099999999999
 31
0.0
  0
LINE
  5
2F2
100
AcDbEntity
100
AcDbLine
  8
BLACK
 62
256
370
-1
 48
1.0
  6
ByLayer
 10
36.254600000000003
 20
-23.709099999999999
 30
0.0
 11
35.964300000000001
 21
-23.564
 31
0.0
  0
LINE
  5
2F3
100
AcDbEntity
100
AcDbLine
  8
BLACK
 62
256
370
-1
 48
1.0
  6
ByLayer
 10
35.964300000000001
 20
-23.564
 30
0.0
 11
35.577199999999998
 21
-23.491399999999999
 31
0.0
  0
LINE
  5
2F4
100
AcDbEntity
100
AcDbLine
  8
BLACK
 62
256
370
-1
 48
1.0
  6
ByLayer
 10
35.577199999999998
 20
-23.491399999999999
 30
0.0
 11
34.803100000000001
 21
-23.491399999999999
 31
0.0
  0
LINE
  5
2F5
100
AcDbEntity
100
AcDbLine
  8
BLACK
 62
256
370
-1
 48
1.0
  6
ByLayer
 10
34.803100000000001
 20
-23.491399999999999
 30
0.0
 11
34.6096
 21
-23.564
 31
0.0
  0
LINE
  5
2F6
100
AcDbEntity
100
AcDbLine
  8
BLACK
 62
256
370
-1
 48
1.0
  6
ByLayer
 10
34.6096
 20
-23.564
 30
0.0
 11
34.512799999999999
 21
-23.636600000000001
 31
0.0
  0
LINE
  5
2F7
100
AcDbEntity
100
AcDbLine
  8
BLACK
 62
256
370
-1
 48
1.0
  6
ByLayer
 10
34.512799999999999
 20
-23.636600000000001
 30
0.0
 11
34.4161
 21
-23.781700000000001
 31
0.0
  0
LINE
  5
2F8
100
AcDbEntity
100
AcDbLine
  8
BLACK
 62
256
370
-1
 48
1.0
  6
ByLayer
 10
34.4161
 20
-23.781700000000001
 30
0.0
 11
34.4161
 21
-24.071999999999999
 31
0.0
  0
LINE
  5
2F9
100
AcDbEntity
100
AcDbLine
  8
BLACK
 62
256
370
-1
 48
1.0
  6
ByLayer
 10
34.4161
 20
-24.071999999999999
 30
0.0
 11
34.512799999999999
 21
-24.217099999999999
 31
0.0
  0
LINE
  5
2FA
100
AcDbEntity
100
AcDbLine
  8
BLACK
 62
256
370
-1
 48
1.0
  6
ByLayer
 10
34.512799999999999
 20
-24.217099999999999
 30
0.0
 11
34.6096
 21
-24.2897
 31
0.0
  0
LINE
  5
2FB
100
AcDbEntity
100
AcDbLine
  8
BLACK
 62
256
370
-1
 48
1.0
  6
ByLayer
 10
34.6096
 20
-24.2897
 30
0.0
 11
34.803100000000001
 21
-24.362300000000001
 31
0.0
  0
LINE
  5
2FC
100
AcDbEntity
100
AcDbLine
  8
BLACK
 62
256
370
-1
 48
1.0
  6
ByLayer
 10
34.803100000000001
 20
-24.362300000000001
 30
0.0
 11
35.286900000000003
 21
-24.362300000000001
 31
0.0
  0
LINE
  5
2FD
100
AcDbEntity
100
AcDbLine
  8
BLACK
 62
256
370
-1
 48
1.0
  6
ByLayer
 10
35.286900000000003
 20
-24.362300000000001
 30
0.0
 11
35.480499999999999
 21
-24.2897
 31
0.0
  0
LINE
  5
2FE
100
AcDbEntity
100
AcDbLine
  8
BLACK
 62
256
370
-1
 48
1.0
  6
ByLayer
 10
35.480499999999999
 20
-24.2897
 30
0.0
 11
35.577199999999998
 21
-24.217099999999999
 31
0.0
  0
LINE
  5
2FF
100
AcDbEntity
100
AcDbLine
  8
BLACK
 62
256
370
-1
 48
1.0
  6
ByLayer
 10
35.577199999999998
 20
-24.217099999999999
 30
0.0
 11
35.673999999999999
 21
-24.071999999999999
 31
0.0
  0
LINE
  5
300
100
AcDbEntity
100
AcDbLine
  8
BLACK
 62
256
370
-1
 48
1.0
  6
ByLayer
 10
35.673999999999999
 20
-24.071999999999999
 30
0.0
 11
35.673999999999999
 21
-23.781700000000001
 31
0.0
  0
LINE
  5
301
100
AcDbEntity
100
AcDbLine
  8
BLACK
 62
256
370
-1
 48
1.0
  6
ByLayer
 10
35.673999999999999
 20
-23.781700000000001
 30
0.0
 11
35.577199999999998
 21
-23.636600000000001
 31
0.0
  0
LINE
  5
302
100
AcDbEntity
100
AcDbLine
  8
BLACK
 62
256
370
-1
 48
1.0
  6
ByLayer
 10
35.577199999999998
 20
-23.636600000000001
 30
0.0
 11
35.480499999999999
 21
-23.564
 31
0.0
  0
LINE
  5
303
100
AcDbEntity
100
AcDbLine
  8
BLACK
 62
256
370
-1
 48
1.0
  6
ByLayer
 10
35.480499999999999
 20
-23.564
 30
0.0
 11
35.286900000000003
 21
-23.491399999999999
 31
0.0
  0
LINE
  5
304
100
AcDbEntity
100
AcDbLine
  8
BLACK
 62
256
370
-1
 48
1.0
  6
ByLayer
 10
36.254600000000003
 20
-22.8383
 30
0.0
 11
36.351300000000002
 21
-22.765699999999999
 31
0.0
  0
LINE
  5
305
100
AcDbEntity
100
AcDbLine
  8
BLACK
 62
256
370
-1
 48
1.0
  6
ByLayer
 10
36.351300000000002
 20
-22.765699999999999
 30
0.0
 11
36.448099999999997
 21
-22.8383
 31
0.0
  0
LINE
  5
306
100
AcDbEntity
100
AcDbLine
  8
BLACK
 62
256
370
-1
 48
1.0
  6
ByLayer
 10
36.448099999999997
 20
-22.8383
 30
0.0
 11
36.351300000000002
 21
-22.910900000000002
 31
0.0
  0
LINE
  5
307
100
AcDbEntity
100
AcDbLine
  8
BLACK
 62
256
370
-1
 48
1.0
  6
ByLayer
 10
36.351300000000002
 20
-22.910900000000002
 30
0.0
 11
36.254600000000003
 21
-22.8383
 31
0.0
  0
LINE
  5
308
100
AcDbEntity
100
AcDbLine
  8
BLACK
 62
256
370
-1
 48
1.0
  6
ByLayer
 10
36.254600000000003
 20
-22.8383
 30
0.0
 11
36.448099999999997
 21
-22.8383
 31
0.0
  0
LINE
  5
309
100
AcDbEntity
100
AcDbLine
  8
BLACK
 62
256
370
-1
 48
1.0
  6
ByLayer
 10
34.4161
 20
-21.822299999999998
 30
0.0
 11
34.4161
 21
-21.677099999999999
 31
0.0
  0
LINE
  5
30A
100
AcDbEntity
100
AcDbLine
  8
BLACK
 62
256
370
-1
 48
1.0
  6
ByLayer
 10
34.4161
 20
-21.677099999999999
 30
0.0
 11
34.512799999999999
 21
-21.532
 31
0.0
  0
LINE
  5
30B
100
AcDbEntity
100
AcDbLine
  8
BLACK
 62
256
370
-1
 48
1.0
  6
ByLayer
 10
34.512799999999999
 20
-21.532
 30
0.0
 11
34.6096
 21
-21.459399999999999
 31
0.0
  0
LINE
  5
30C
100
AcDbEntity
100
AcDbLine
  8
BLACK
 62
256
370
-1
 48
1.0
  6
ByLayer
 10
34.6096
 20
-21.459399999999999
 30
0.0
 11
34.803100000000001
 21
-21.386900000000001
 31
0.0
  0
LINE
  5
30D
100
AcDbEntity
100
AcDbLine
  8
BLACK
 62
256
370
-1
 48
1.0
  6
ByLayer
 10
34.803100000000001
 20
-21.386900000000001
 30
0.0
 11
35.190199999999997
 21
-21.314299999999999
 31
0.0
  0
LINE
  5
30E
100
AcDbEntity
100
AcDbLine
  8
BLACK
 62
256
370
-1
 48
1.0
  6
ByLayer
 10
35.190199999999997
 20
-21.314299999999999
 30
0.0
 11
35.673999999999999
 21
-21.314299999999999
 31
0.0
  0
LINE
  5
30F
100
AcDbEntity
100
AcDbLine
  8
BLACK
 62
256
370
-1
 48
1.0
  6
ByLayer
 10
35.673999999999999
 20
-21.314299999999999
 30
0.0
 11
36.061
 21
-21.386900000000001
 31
0.0
  0
LINE
  5
310
100
AcDbEntity
100
AcDbLine
  8
BLACK
 62
256
370
-1
 48
1.0
  6
ByLayer
 10
36.061
 20
-21.386900000000001
 30
0.0
 11
36.254600000000003
 21
-21.459399999999999
 31
0.0
  0
LINE
  5
311
100
AcDbEntity
100
AcDbLine
  8
BLACK
 62
256
370
-1
 48
1.0
  6
ByLayer
 10
36.254600000000003
 20
-21.459399999999999
 30
0.0
 11
36.351300000000002
 21
-21.532
 31
0.0
  0
LINE
  5
312
100
AcDbEntity
100
AcDbLine
  8
BLACK
 62
256
370
-1
 48
1.0
  6
ByLayer
 10
36.351300000000002
 20
-21.532
 30
0.0
 11
36.448099999999997
 21
-21.677099999999999
 31
0.0
  0
LINE
  5
313
100
AcDbEntity
100
AcDbLine
  8
BLACK
 62
256
370
-1
 48
1.0
  6
ByLayer
 10
36.448099999999997
 20
-21.677099999999999
 30
0.0
 11
36.448099999999997
 21
-21.822299999999998
 31
0.0
  0
LINE
  5
314
100
AcDbEntity
100
AcDbLine
  8
BLACK
 62
256
370
-1
 48
1.0
  6
ByLayer
 10
36.448099999999997
 20
-21.822299999999998
 30
0.0
 11
36.351300000000002
 21
-21.967400000000001
 31
0.0
  0
LINE
  5
315
100
AcDbEntity
100
AcDbLine
  8
BLACK
 62
256
370
-1
 48
1.0
  6
ByLayer
 10
36.351300000000002
 20
-21.967400000000001
 30
0.0
 11
36.254600000000003
 21
-22.039999999999999
 31
0.0
  0
LINE
  5
316
100
AcDbEntity
100
AcDbLine
  8
BLACK
 62
256
370
-1
 48
1.0
  6
ByLayer
 10
36.254600000000003
 20
-22.039999999999999
 30
0.0
 11
36.061
 21
-22.1126
 31
0.0
  0
LINE
  5
317
100
AcDbEntity
100
AcDbLine
  8
BLACK
 62
256
370
-1
 48
1.0
  6
ByLayer
 10
36.061
 20
-22.1126
 30
0.0
 11
35.673999999999999
 21
-22.185099999999998
 31
0.0
  0
LINE
  5
318
100
AcDbEntity
100
AcDbLine
  8
BLACK
 62
256
370
-1
 48
1.0
  6
ByLayer
 10
35.673999999999999
 20
-22.185099999999998
 30
0.0
 11
35.190199999999997
 21
-22.185099999999998
 31
0.0
  0
LINE
  5
319
100
AcDbEntity
100
AcDbLine
  8
BLACK
 62
256
370
-1
 48
1.0
  6
ByLayer
 10
35.190199999999997
 20
-22.185099999999998
 30
0.0
 11
34.803100000000001
 21
-22.1126
 31
0.0
  0
LINE
  5
31A
100
AcDbEntity
100
AcDbLine
  8
BLACK
 62
256
370
-1
 48
1.0
  6
ByLayer
 10
34.803100000000001
 20
-22.1126
 30
0.0
 11
34.6096
 21
-22.039999999999999
 31
0.0
  0
LINE
  5
31B
100
AcDbEntity
100
AcDbLine
  8
BLACK
 62
256
370
-1
 48
1.0
  6
ByLayer
 10
34.6096
 20
-22.039999999999999
 30
0.0
 11
34.512799999999999
 21
-21.967400000000001
 31
0.0
  0
LINE
  5
31C
100
AcDbEntity
100
AcDbLine
  8
BLACK
 62
256
370
-1
 48
1.0
  6
ByLayer
 10
34.512799999999999
 20
-21.967400000000001
 30
0.0
 11
34.4161
 21
-21.822299999999998
 31
0.0
  0
LINE
  5
31D
100
AcDbEntity
100
AcDbLine
  8
BLACK
 62
256
370
-1
 48
1.0
  6
ByLayer
 10
34.4161
 20
-20.370899999999999
 30
0.0
 11
34.4161
 21
-20.2257
 31
0.0
  0
LINE
  5
31E
100
AcDbEntity
100
AcDbLine
  8
BLACK
 62
256
370
-1
 48
1.0
  6
ByLayer
 10
34.4161
 20
-20.2257
 30
0.0
 11
34.512799999999999
 21
-20.0806
 31
0.0
  0
LINE
  5
31F
100
AcDbEntity
100
AcDbLine
  8
BLACK
 62
256
370
-1
 48
1.0
  6
ByLayer
 10
34.512799999999999
 20
-20.0806
 30
0.0
 11
34.6096
 21
-20.007999999999999
 31
0.0
  0
LINE
  5
320
100
AcDbEntity
100
AcDbLine
  8
BLACK
 62
256
370
-1
 48
1.0
  6
ByLayer
 10
34.6096
 20
-20.007999999999999
 30
0.0
 11
34.803100000000001
 21
-19.935400000000001
 31
0.0
  0
LINE
  5
321
100
AcDbEntity
100
AcDbLine
  8
BLACK
 62
256
370
-1
 48
1.0
  6
ByLayer
 10
34.803100000000001
 20
-19.935400000000001
 30
0.0
 11
35.190199999999997
 21
-19.8629
 31
0.0
  0
LINE
  5
322
100
AcDbEntity
100
AcDbLine
  8
BLACK
 62
256
370
-1
 48
1.0
  6
ByLayer
 10
35.190199999999997
 20
-19.8629
 30
0.0
 11
35.673999999999999
 21
-19.8629
 31
0.0
  0
LINE
  5
323
100
AcDbEntity
100
AcDbLine
  8
BLACK
 62
256
370
-1
 48
1.0
  6
ByLayer
 10
35.673999999999999
 20
-19.8629
 30
0.0
 11
36.061
 21
-19.935400000000001
 31
0.0
  0
LINE
  5
324
100
AcDbEntity
100
AcDbLine
  8
BLACK
 62
256
370
-1
 48
1.0
  6
ByLayer
 10
36.061
 20
-19.935400000000001
 30
0.0
 11
36.254600000000003
 21
-20.007999999999999
 31
0.0
  0
LINE
  5
325
100
AcDbEntity
100
AcDbLine
  8
BLACK
 62
256
370
-1
 48
1.0
  6
ByLayer
 10
36.254600000000003
 20
-20.007999999999999
 30
0.0
 11
36.351300000000002
 21
-20.0806
 31
0.0
  0
LINE
  5
326
100
AcDbEntity
100
AcDbLine
  8
BLACK
 62
256
370
-1
 48
1.0
  6
ByLayer
 10
36.351300000000002
 20
-20.0806
 30
0.0
 11
36.448099999999997
 21
-20.2257
 31
0.0
  0
LINE
  5
327
100
AcDbEntity
100
AcDbLine
  8
BLACK
 62
256
370
-1
 48
1.0
  6
ByLayer
 10
36.448099999999997
 20
-20.2257
 30
0.0
 11
36.448099999999997
 21
-20.370899999999999
 31
0.0
  0
LINE
  5
328
100
AcDbEntity
100
AcDbLine
  8
BLACK
 62
256
370
-1
 48
1.0
  6
ByLayer
 10
36.448099999999997
 20
-20.370899999999999
 30
0.0
 11
36.351300000000002
 21
-20.515999999999998
 31
0.0
  0
LINE
  5
329
100
AcDbEntity
100
AcDbLine
  8
BLACK
 62
256
370
-1
 48
1.0
  6
ByLayer
 10
36.351300000000002
 20
-20.515999999999998
 30
0.0
 11
36.254600000000003
 21
-20.5886
 31
0.0
  0
LINE
  5
32A
100
AcDbEntity
100
AcDbLine
  8
BLACK
 62
256
370
-1
 48
1.0
  6
ByLayer
 10
36.254600000000003
 20
-20.5886
 30
0.0
 11
36.061
 21
-20.661100000000001
 31
0.0
  0
LINE
  5
32B
100
AcDbEntity
100
AcDbLine
  8
BLACK
 62
256
370
-1
 48
1.0
  6
ByLayer
 10
36.061
 20
-20.661100000000001
 30
0.0
 11
35.673999999999999
 21
-20.733699999999999
 31
0.0
  0
LINE
  5
32C
100
AcDbEntity
100
AcDbLine
  8
BLACK
 62
256
370
-1
 48
1.0
  6
ByLayer
 10
35.673999999999999
 20
-20.733699999999999
 30
0.0
 11
35.190199999999997
 21
-20.733699999999999
 31
0.0
  0
LINE
  5
32D
100
AcDbEntity
100
AcDbLine
  8
BLACK
 62
256
370
-1
 48
1.0
  6
ByLayer
 10
35.190199999999997
 20
-20.733699999999999
 30
0.0
 11
34.803100000000001
 21
-20.661100000000001
 31
0.0
  0
LINE
  5
32E
100
AcDbEntity
100
AcDbLine
  8
BLACK
 62
256
370
-1
 48
1.0
  6
ByLayer
 10
34.803100000000001
 20
-20.661100000000001
 30
0.0
 11
34.6096
 21
-20.5886
 31
0.0
  0
LINE
  5
32F
100
AcDbEntity
100
AcDbLine
  8
BLACK
 62
256
370
-1
 48
1.0
  6
ByLayer
 10
34.6096
 20
-20.5886
 30
0.0
 11
34.512799999999999
 21
-20.515999999999998
 31
0.0
  0
LINE
  5
330
100
AcDbEntity
100
AcDbLine
  8
BLACK
 62
256
370
-1
 48
1.0
  6
ByLayer
 10
34.512799999999999
 20
-20.515999999999998
 30
0.0
 11
34.4161
 21
-20.370899999999999
 31
0.0
  0
LINE
  5
331
100
AcDbEntity
100
AcDbLine
  8
BLACK
 62
256
370
-1
 48
1.0
  6
ByLayer
 10
34.4161
 20
-18.9194
 30
0.0
 11
34.4161
 21
-18.7743
 31
0.0
  0
LINE
  5
332
100
AcDbEntity
100
AcDbLine
  8
BLACK
 62
256
370
-1
 48
1.0
  6
ByLayer
 10
34.4161
 20
-18.7743
 30
0.0
 11
34.512799999999999
 21
-18.629100000000001
 31
0.0
  0
LINE
  5
333
100
AcDbEntity
100
AcDbLine
  8
BLACK
 62
256
370
-1
 48
1.0
  6
ByLayer
 10
34.512799999999999
 20
-18.629100000000001
 30
0.0
 11
34.6096
 21
-18.5566
 31
0.0
  0
LINE
  5
334
100
AcDbEntity
100
AcDbLine
  8
BLACK
 62
256
370
-1
 48
1.0
  6
ByLayer
 10
34.6096
 20
-18.5566
 30
0.0
 11
34.803100000000001
 21
-18.484000000000002
 31
0.0
  0
LINE
  5
335
100
AcDbEntity
100
AcDbLine
  8
BLACK
 62
256
370
-1
 48
1.0
  6
ByLayer
 10
34.803100000000001
 20
-18.484000000000002
 30
0.0
 11
35.190199999999997
 21
-18.4114
 31
0.0
  0
LINE
  5
336
100
AcDbEntity
100
AcDbLine
  8
BLACK
 62
256
370
-1
 48
1.0
  6
ByLayer
 10
35.190199999999997
 20
-18.4114
 30
0.0
 11
35.673999999999999
 21
-18.4114
 31
0.0
  0
LINE
  5
337
100
AcDbEntity
100
AcDbLine
  8
BLACK
 62
256
370
-1
 48
1.0
  6
ByLayer
 10
35.673999999999999
 20
-18.4114
 30
0.0
 11
36.061
 21
-18.484000000000002
 31
0.0
  0
LINE
  5
338
100
AcDbEntity
100
AcDbLine
  8
BLACK
 62
256
370
-1
 48
1.0
  6
ByLayer
 10
36.061
 20
-18.484000000000002
 30
0.0
 11
36.254600000000003
 21
-18.5566
 31
0.0
  0
LINE
  5
339
100
AcDbEntity
100
AcDbLine
  8
BLACK
 62
256
370
-1
 48
1.0
  6
ByLayer
 10
36.254600000000003
 20
-18.5566
 30
0.0
 11
36.351300000000002
 21
-18.629100000000001
 31
0.0
  0
LINE
  5
33A
100
AcDbEntity
100
AcDbLine
  8
BLACK
 62
256
370
-1
 48
1.0
  6
ByLayer
 10
36.351300000000002
 20
-18.629100000000001
 30
0.0
 11
36.448099999999997
 21
-18.7743
 31
0.0
  0
LINE
  5
33B
100
AcDbEntity
100
AcDbLine
  8
BLACK
 62
256
370
-1
 48
1.0
  6
ByLayer
 10
36.448099999999997
 20
-18.7743
 30
0.0
 11
36.448099999999997
 21
-18.9194
 31
0.0
  0
LINE
  5
33C
100
AcDbEntity
100
AcDbLine
  8
BLACK
 62
256
370
-1
 48
1.0
  6
ByLayer
 10
36.448099999999997
 20
-18.9194
 30
0.0
 11
36.351300000000002
 21
-19.064599999999999
 31
0.0
  0
LINE
  5
33D
100
AcDbEntity
100
AcDbLine
  8
BLACK
 62
256
370
-1
 48
1.0
  6
ByLayer
 10
36.351300000000002
 20
-19.064599999999999
 30
0.0
 11
36.254600000000003
 21
-19.1371
 31
0.0
  0
LINE
  5
33E
100
AcDbEntity
100
AcDbLine
  8
BLACK
 62
256
370
-1
 48
1.0
  6
ByLayer
 10
36.254600000000003
 20
-19.1371
 30
0.0
 11
36.061
 21
-19.209700000000002
 31
0.0
  0
LINE
  5
33F
100
AcDbEntity
100
AcDbLine
  8
BLACK
 62
256
370
-1
 48
1.0
  6
ByLayer
 10
36.061
 20
-19.209700000000002
 30
0.0
 11
35.673999999999999
 21
-19.282299999999999
 31
0.0
  0
LINE
  5
340
100
AcDbEntity
100
AcDbLine
  8
BLACK
 62
256
370
-1
 48
1.0
  6
ByLayer
 10
35.673999999999999
 20
-19.282299999999999
 30
0.0
 11
35.190199999999997
 21
-19.282299999999999
 31
0.0
  0
LINE
  5
341
100
AcDbEntity
100
AcDbLine
  8
BLACK
 62
256
370
-1
 48
1.0
  6
ByLayer
 10
35.190199999999997
 20
-19.282299999999999
 30
0.0
 11
34.803100000000001
 21
-19.209700000000002
 31
0.0
  0
LINE
  5
342
100
AcDbEntity
100
AcDbLine
  8
BLACK
 62
256
370
-1
 48
1.0
  6
ByLayer
 10
34.803100000000001
 20
-19.209700000000002
 30
0.0
 11
34.6096
 21
-19.1371
 31
0.0
  0
LINE
  5
343
100
AcDbEntity
100
AcDbLine
  8
BLACK
 62
256
370
-1
 48
1.0
  6
ByLayer
 10
34.6096
 20
-19.1371
 30
0.0
 11
34.512799999999999
 21
-19.064599999999999
 31
0.0
  0
LINE
  5
344
100
AcDbEntity
100
AcDbLine
  8
BLACK
 62
256
370
-1
 48
1.0
  6
ByLayer
 10
34.512799999999999
 20
-19.064599999999999
 30
0.0
 11
34.4161
 21
-18.9194
 31
0.0
  0
LINE
  5
345
100
AcDbEntity
100
AcDbLine
  8
BLACK
 62
256
370
-1
 48
1.0
  6
ByLayer
 10
36.448099999999997
 20
-16.597100000000001
 30
0.0
 11
35.093400000000003
 21
-16.597100000000001
 31
0.0
  0
LINE
  5
346
100
AcDbEntity
100
AcDbLine
  8
BLACK
 62
256
370
-1
 48
1.0
  6
ByLayer
 10
35.286900000000003
 20
-16.597100000000001
 30
0.0
 11
35.190199999999997
 21
-16.5246
 31
0.0
  0
LINE
  5
347
100
AcDbEntity
100
AcDbLine
  8
BLACK
 62
256
370
-1
 48
1.0
  6
ByLayer
 10
35.190199999999997
 20
-16.5246
 30
0.0
 11
35.093400000000003
 21
-16.3794
 31
0.0
  0
LINE
  5
348
100
AcDbEntity
100
AcDbLine
  8
BLACK
 62
256
370
-1
 48
1.0
  6
ByLayer
 10
35.093400000000003
 20
-16.3794
 30
0.0
 11
35.093400000000003
 21
-16.1617
 31
0.0
  0
LINE
  5
349
100
AcDbEntity
100
AcDbLine
  8
BLACK
 62
256
370
-1
 48
1.0
  6
ByLayer
 10
35.093400000000003
 20
-16.1617
 30
0.0
 11
35.190199999999997
 21
-16.0166
 31
0.0
  0
LINE
  5
34A
100
AcDbEntity
100
AcDbLine
  8
BLACK
 62
256
370
-1
 48
1.0
  6
ByLayer
 10
35.190199999999997
 20
-16.0166
 30
0.0
 11
35.383699999999997
 21
-15.944000000000001
 31
0.0
  0
LINE
  5
34B
100
AcDbEntity
100
AcDbLine
  8
BLACK
 62
256
370
-1
 48
1.0
  6
ByLayer
 10
35.383699999999997
 20
-15.944000000000001
 30
0.0
 11
36.448099999999997
 21
-15.944000000000001
 31
0.0
  0
LINE
  5
34C
100
AcDbEntity
100
AcDbLine
  8
BLACK
 62
256
370
-1
 48
1.0
  6
ByLayer
 10
35.383699999999997
 20
-15.944000000000001
 30
0.0
 11
35.190199999999997
 21
-15.8714
 31
0.0
  0
LINE
  5
34D
100
AcDbEntity
100
AcDbLine
  8
BLACK
 62
256
370
-1
 48
1.0
  6
ByLayer
 10
35.190199999999997
 20
-15.8714
 30
0.0
 11
35.093400000000003
 21
-15.7263
 31
0.0
  0
LINE
  5
34E
100
AcDbEntity
100
AcDbLine
  8
BLACK
 62
256
370
-1
 48
1.0
  6
ByLayer
 10
35.093400000000003
 20
-15.7263
 30
0.0
 11
35.093400000000003
 21
-15.508599999999999
 31
0.0
  0
LINE
  5
34F
100
AcDbEntity
100
AcDbLine
  8
BLACK
 62
256
370
-1
 48
1.0
  6
ByLayer
 10
35.093400000000003
 20
-15.508599999999999
 30
0.0
 11
35.190199999999997
 21
-15.3634
 31
0.0
  0
LINE
  5
350
100
AcDbEntity
100
AcDbLine
  8
BLACK
 62
256
370
-1
 48
1.0
  6
ByLayer
 10
35.190199999999997
 20
-15.3634
 30
0.0
 11
35.383699999999997
 21
-15.290900000000001
 31
0.0
  0
LINE
  5
351
100
AcDbEntity
100
AcDbLine
  8
BLACK
 62
256
370
-1
 48
1.0
  6
ByLayer
 10
35.383699999999997
 20
-15.290900000000001
 30
0.0
 11
36.448099999999997
 21
-15.290900000000001
 31
0.0
  0
LINE
  5
352
100
AcDbEntity
100
AcDbLine
  8
BLACK
 62
256
370
-1
 48
1.0
  6
ByLayer
 10
36.448099999999997
 20
-14.565099999999999
 30
0.0
 11
35.093400000000003
 21
-14.565099999999999
 31
0.0
  0
LINE
  5
353
100
AcDbEntity
100
AcDbLine
  8
BLACK
 62
256
370
-1
 48
1.0
  6
ByLayer
 10
35.286900000000003
 20
-14.565099999999999
 30
0.0
 11
35.190199999999997
 21
-14.492599999999999
 31
0.0
  0
LINE
  5
354
100
AcDbEntity
100
AcDbLine
  8
BLACK
 62
256
370
-1
 48
1.0
  6
ByLayer
 10
35.190199999999997
 20
-14.492599999999999
 30
0.0
 11
35.093400000000003
 21
-14.3474
 31
0.0
  0
LINE
  5
355
100
AcDbEntity
100
AcDbLine
  8
BLACK
 62
256
370
-1
 48
1.0
  6
ByLayer
 10
35.093400000000003
 20
-14.3474
 30
0.0
 11
35.093400000000003
 21
-14.1297
 31
0.0
  0
LINE
  5
356
100
AcDbEntity
100
AcDbLine
  8
BLACK
 62
256
370
-1
 48
1.0
  6
ByLayer
 10
35.093400000000003
 20
-14.1297
 30
0.0
 11
35.190199999999997
 21
-13.9846
 31
0.0
  0
LINE
  5
357
100
AcDbEntity
100
AcDbLine
  8
BLACK
 62
256
370
-1
 48
1.0
  6
ByLayer
 10
35.190199999999997
 20
-13.9846
 30
0.0
 11
35.383699999999997
 21
-13.912000000000001
 31
0.0
  0
LINE
  5
358
100
AcDbEntity
100
AcDbLine
  8
BLACK
 62
256
370
-1
 48
1.0
  6
ByLayer
 10
35.383699999999997
 20
-13.912000000000001
 30
0.0
 11
36.448099999999997
 21
-13.912000000000001
 31
0.0
  0
LINE
  5
359
100
AcDbEntity
100
AcDbLine
  8
BLACK
 62
256
370
-1
 48
1.0
  6
ByLayer
 10
35.383699999999997
 20
-13.912000000000001
 30
0.0
 11
35.190199999999997
 21
-13.839399999999999
 31
0.0
  0
LINE
  5
35A
100
AcDbEntity
100
AcDbLine
  8
BLACK
 62
256
370
-1
 48
1.0
  6
ByLayer
 10
35.190199999999997
 20
-13.839399999999999
 30
0.0
 11
35.093400000000003
 21
-13.6943
 31
0.0
  0
LINE
  5
35B
100
AcDbEntity
100
AcDbLine
  8
BLACK
 62
256
370
-1
 48
1.0
  6
ByLayer
 10
35.093400000000003
 20
-13.6943
 30
0.0
 11
35.093400000000003
 21
-13.476599999999999
 31
0.0
  0
LINE
  5
35C
100
AcDbEntity
100
AcDbLine
  8
BLACK
 62
256
370
-1
 48
1.0
  6
ByLayer
 10
35.093400000000003
 20
-13.476599999999999
 30
0.0
 11
35.190199999999997
 21
-13.3314
 31
0.0
  0
LINE
  5
35D
100
AcDbEntity
100
AcDbLine
  8
BLACK
 62
256
370
-1
 48
1.0
  6
ByLayer
 10
35.190199999999997
 20
-13.3314
 30
0.0
 11
35.383699999999997
 21
-13.258900000000001
 31
0.0
  0
LINE
  5
35E
100
AcDbEntity
100
AcDbLine
  8
BLACK
 62
256
370
-1
 48
1.0
  6
ByLayer
 10
35.383699999999997
 20
-13.258900000000001
 30
0.0
 11
36.448099999999997
 21
-13.258900000000001
 31
0.0
  0
LINE
  5
35F
100
AcDbEntity
100
AcDbLine
  8
BLACK
 62
256
370
-1
 48
1.0
  6
ByLayer
 10
34.1524
 20
-39.0
 30
0.0
 11
34.1524
 21
0.0
 31
0.0
  0
LINE
  5
360
100
AcDbEntity
100
AcDbLine
  8
BLACK
 62
256
370
-1
 48
1.0
  6
ByLayer
 10
33.8476
 20
-39.0
 30
0.0
 11
33.8476
 21
0.0
 31
0.0
  0
ARC
  5
361
100
AcDbEntity
  8
BLACK
 62
256
370
-1
 48
1.0
  6
ByLayer
100
AcDbCircle
 10
34.0
 20
0.0
 30
0.0
 40
0.1524
100
AcDbArc
 50
0.0
 51
180.0
  0
ARC
  5
362
100
AcDbEntity
  8
BLACK
 62
256
370
-1
 48
1.0
  6
ByLayer
100
AcDbCircle
 10
34.0
 20
-39.0
 30
0.0
 40
0.1524
100
AcDbArc
 50
180.0
 51
0.0
  0
LINE
  5
363
100
AcDbEntity
100
AcDbLine
  8
BLACK
 62
256
370
-1
 48
1.0
  6
ByLayer
 10
22.0
 20
-39.1524
 30
0.0
 11
37.251199999999997
 21
-39.1524
 31
0.0
  0
LINE
  5
364
100
AcDbEntity
100
AcDbLine
  8
BLACK
 62
256
370
-1
 48
1.0
  6
ByLayer
 10
22.0
 20
-38.8476
 30
0.0
 11
37.251199999999997
 21
-38.8476
 31
0.0
  0
ARC
  5
365
100
AcDbEntity
  8
BLACK
 62
256
370
-1
 48
1.0
  6
ByLayer
100
AcDbCircle
 10
37.251199999999997
 20
-39.0
 30
0.0
 40
0.1524
100
AcDbArc
 50
270.0
 51
90.0
  0
ARC
  5
366
100
AcDbEntity
  8
BLACK
 62
256
370
-1
 48
1.0
  6
ByLayer
100
AcDbCircle
 10
22.0
 20
-39.0
 30
0.0
 40
0.1524
100
AcDbArc
 50
90.0
 51
270.0
  0
LINE
  5
367
100
AcDbEntity
100
AcDbLine
  8
BLACK
 62
256
370
-1
 48
1.0
  6
ByLayer
 10
22.0
 20
-0.1524
 30
0.0
 11
37.251199999999997
 21
-0.1524
 31
0.0
  0
LINE
  5
368
100
AcDbEntity
100
AcDbLine
  8
BLACK
 62
256
370
-1
 48
1.0
  6
ByLayer
 10
22.0
 20
0.1524
 30
0.0
 11
37.251199999999997
 21
0.1524
 31
0.0
  0
ARC
  5
369
100
AcDbEntity
  8
BLACK
 62
256
370
-1
 48
1.0
  6
ByLayer
100
AcDbCircle
 10
37.251199999999997
 20
0.0
 30
0.0
 40
0.1524
100
AcDbArc
 50
270.0
 51
90.0
  0
ARC
  5
36A
100
AcDbEntity
  8
BLACK
 62
256
370
-1
 48
1.0
  6
ByLayer
100
AcDbCircle
 10
22.0
 20
0.0
 30
0.0
 40
0.1524
100
AcDbArc
 50
90.0
 51
270.0
  0
LINE
  5
36B
100
AcDbEntity
100
AcDbLine
  8
BLACK
 62
256
370
-1
 48
1.0
  6
ByLayer
 10
33.864800000000002
 20
-0.07037
 30
0.0
 11
34.4512
 21
-1.1968700000000001
 31
0.0
  0
LINE
  5
36C
100
AcDbEntity
100
AcDbLine
  8
BLACK
 62
256
370
-1
 48
1.0
  6
ByLayer
 10
34.135199999999998
 20
0.07037
 30
0.0
 11
34.721600000000002
 21
-1.05613
 31
0.0
  0
ARC
  5
36D
100
AcDbEntity
  8
BLACK
 62
256
370
-1
 48
1.0
  6
ByLayer
100
AcDbCircle
 10
34.586399999999998
 20
-1.1265000000000001
 30
0.0
 40
0.1524
100
AcDbArc
 50
207.49999999999997
 51
27.500000000000004
  0
ARC
  5
36E
100
AcDbEntity
  8
BLACK
 62
256
370
-1
 48
1.0
  6
ByLayer
100
AcDbCircle
 10
34.0
 20
0.0
 30
0.0
 40
0.1524
100
AcDbArc
 50
27.500000000000004
 51
207.49999999999997
  0
LINE
  5
36F
100
AcDbEntity
100
AcDbLine
  8
BLACK
 62
256
370
-1
 48
1.0
  6
ByLayer
 10
33.863700000000001
 20
0.070645
 30
0.0
 11
33.279299999999999
 21
-1.05688
 31
0.0
  0
LINE
  5
370
100
AcDbEntity
100
AcDbLine
  8
BLACK
 62
256
370
-1
 48
1.0
  6
ByLayer
 10
34.134300000000003
 20
-0.069624
 30
0.0
 11
33.549900000000001
 21
-1.1971499999999999
 31
0.0
  0
ARC
  5
371
100
AcDbEntity
  8
BLACK
 62
256
370
-1
 48
1.0
  6
ByLayer
100
AcDbCircle
 10
33.4146
 20
-1.1270100000000001
 30
0.0
 40
0.1524
100
AcDbArc
 50
152.59999999999997
 51
332.60000000000002
  0
ARC
  5
372
100
AcDbEntity
  8
BLACK
 62
256
370
-1
 48
1.0
  6
ByLayer
100
AcDbCircle
 10
33.999000000000002
 20
0.000511
 30
0.0
 40
0.1524
100
AcDbArc
 50
332.60000000000002
 51
152.59999999999997
  0
LINE
  5
373
100
AcDbEntity
100
AcDbLine
  8
BLACK
 62
256
370
-1
 48
1.0
  6
ByLayer
 10
34.135199999999998
 20
-39.070399999999999
 30
0.0
 11
34.721600000000002
 21
-37.943899999999999
 31
0.0
  0
LINE
  5
374
100
AcDbEntity
100
AcDbLine
  8
BLACK
 62
256
370
-1
 48
1.0
  6
ByLayer
 10
33.864800000000002
 20
-38.929600000000001
 30
0.0
 11
34.4512
 21
-37.803100000000001
 31
0.0
  0
ARC
  5
375
100
AcDbEntity
  8
BLACK
 62
256
370
-1
 48
1.0
  6
ByLayer
100
AcDbCircle
 10
34.586399999999998
 20
-37.8735
 30
0.0
 40
0.1524
100
AcDbArc
 50
332.5
 51
152.5
  0
ARC
  5
376
100
AcDbEntity
  8
BLACK
 62
256
370
-1
 48
1.0
  6
ByLayer
100
AcDbCircle
 10
34.0
 20
-39.0
 30
0.0
 40
0.1524
100
AcDbArc
 50
152.5
 51
332.5
  0
LINE
  5
377
100
AcDbEntity
100
AcDbLine
  8
BLACK
 62
256
370
-1
 48
1.0
  6
ByLayer
 10
34.134300000000003
 20
-38.930399999999999
 30
0.0
 11
33.549900000000001
 21
-37.802900000000001
 31
0.0
  0
LINE
  5
378
100
AcDbEntity
100
AcDbLine
  8
BLACK
 62
256
370
-1
 48
1.0
  6
ByLayer
 10
33.863700000000001
 20
-39.070599999999999
 30
0.0
 11
33.279299999999999
 21
-37.943100000000001
 31
0.0
  0
ARC
  5
379
100
AcDbEntity
  8
BLACK
 62
256
370
-1
 48
1.0
  6
ByLayer
100
AcDbCircle
 10
33.4146
 20
-37.872999999999998
 30
0.0
 40
0.1524
100
AcDbArc
 50
27.399999999999977
 51
207.39999999999998
  0
ARC
  5
37A
100
AcDbEntity
  8
BLACK
 62
256
370
-1
 48
1.0
  6
ByLayer
100
AcDbCircle
 10
33.999000000000002
 20
-39.000500000000002
 30
0.0
 40
0.1524
100
AcDbArc
 50
207.40000000000001
 51
27.399999999999977
  0
LINE
  5
37B
100
AcDbEntity
100
AcDbLine
  8
BLACK
 62
256
370
-1
 48
1.0
  6
ByLayer
 10
28.4161
 20
-25.886299999999999
 30
0.0
 11
28.4161
 21
-24.942900000000002
 31
0.0
  0
LINE
  5
37C
100
AcDbEntity
100
AcDbLine
  8
BLACK
 62
256
370
-1
 48
1.0
  6
ByLayer
 10
28.4161
 20
-24.942900000000002
 30
0.0
 11
29.190200000000001
 21
-25.450900000000001
 31
0.0
  0
LINE
  5
37D
100
AcDbEntity
100
AcDbLine
  8
BLACK
 62
256
370
-1
 48
1.0
  6
ByLayer
 10
29.190200000000001
 20
-25.450900000000001
 30
0.0
 11
29.190200000000001
 21
-25.2331
 31
0.0
  0
LINE
  5
37E
100
AcDbEntity
100
AcDbLine
  8
BLACK
 62
256
370
-1
 48
1.0
  6
ByLayer
 10
29.190200000000001
 20
-25.2331
 30
0.0
 11
29.286899999999999
 21
-25.088000000000001
 31
0.0
  0
LINE
  5
37F
100
AcDbEntity
100
AcDbLine
  8
BLACK
 62
256
370
-1
 48
1.0
  6
ByLayer
 10
29.286899999999999
 20
-25.088000000000001
 30
0.0
 11
29.383700000000001
 21
-25.0154
 31
0.0
  0
LINE
  5
380
100
AcDbEntity
100
AcDbLine
  8
BLACK
 62
256
370
-1
 48
1.0
  6
ByLayer
 10
29.383700000000001
 20
-25.0154
 30
0.0
 11
29.577200000000001
 21
-24.942900000000002
 31
0.0
  0
LINE
  5
381
100
AcDbEntity
100
AcDbLine
  8
BLACK
 62
256
370
-1
 48
1.0
  6
ByLayer
 10
29.577200000000001
 20
-24.942900000000002
 30
0.0
 11
30.061
 21
-24.942900000000002
 31
0.0
  0
LINE
  5
382
100
AcDbEntity
100
AcDbLine
  8
BLACK
 62
256
370
-1
 48
1.0
  6
ByLayer
 10
30.061
 20
-24.942900000000002
 30
0.0
 11
30.2546
 21
-25.0154
 31
0.0
  0
LINE
  5
383
100
AcDbEntity
100
AcDbLine
  8
BLACK
 62
256
370
-1
 48
1.0
  6
ByLayer
 10
30.2546
 20
-25.0154
 30
0.0
 11
30.351299999999998
 21
-25.088000000000001
 31
0.0
  0
LINE
  5
384
100
AcDbEntity
100
AcDbLine
  8
BLACK
 62
256
370
-1
 48
1.0
  6
ByLayer
 10
30.351299999999998
 20
-25.088000000000001
 30
0.0
 11
30.4481
 21
-25.2331
 31
0.0
  0
LINE
  5
385
100
AcDbEntity
100
AcDbLine
  8
BLACK
 62
256
370
-1
 48
1.0
  6
ByLayer
 10
30.4481
 20
-25.2331
 30
0.0
 11
30.4481
 21
-25.668600000000001
 31
0.0
  0
LINE
  5
386
100
AcDbEntity
100
AcDbLine
  8
BLACK
 62
256
370
-1
 48
1.0
  6
ByLayer
 10
30.4481
 20
-25.668600000000001
 30
0.0
 11
30.351299999999998
 21
-25.813700000000001
 31
0.0
  0
LINE
  5
387
100
AcDbEntity
100
AcDbLine
  8
BLACK
 62
256
370
-1
 48
1.0
  6
ByLayer
 10
30.351299999999998
 20
-25.813700000000001
 30
0.0
 11
30.2546
 21
-25.886299999999999
 31
0.0
  0
LINE
  5
388
100
AcDbEntity
100
AcDbLine
  8
BLACK
 62
256
370
-1
 48
1.0
  6
ByLayer
 10
30.4481
 20
-23.491399999999999
 30
0.0
 11
30.4481
 21
-24.362300000000001
 31
0.0
  0
LINE
  5
389
100
AcDbEntity
100
AcDbLine
  8
BLACK
 62
256
370
-1
 48
1.0
  6
ByLayer
 10
30.4481
 20
-23.9269
 30
0.0
 11
28.4161
 21
-23.9269
 31
0.0
  0
LINE
  5
38A
100
AcDbEntity
100
AcDbLine
  8
BLACK
 62
256
370
-1
 48
1.0
  6
ByLayer
 10
28.4161
 20
-23.9269
 30
0.0
 11
28.706399999999999
 21
-24.071999999999999
 31
0.0
  0
LINE
  5
38B
100
AcDbEntity
100
AcDbLine
  8
BLACK
 62
256
370
-1
 48
1.0
  6
ByLayer
 10
28.706399999999999
 20
-24.071999999999999
 30
0.0
 11
28.899899999999999
 21
-24.217099999999999
 31
0.0
  0
LINE
  5
38C
100
AcDbEntity
100
AcDbLine
  8
BLACK
 62
256
370
-1
 48
1.0
  6
ByLayer
 10
28.899899999999999
 20
-24.217099999999999
 30
0.0
 11
28.996600000000001
 21
-24.362300000000001
 31
0.0
  0
LINE
  5
38D
100
AcDbEntity
100
AcDbLine
  8
BLACK
 62
256
370
-1
 48
1.0
  6
ByLayer
 10
30.2546
 20
-22.8383
 30
0.0
 11
30.351299999999998
 21
-22.765699999999999
 31
0.0
  0
LINE
  5
38E
100
AcDbEntity
100
AcDbLine
  8
BLACK
 62
256
370
-1
 48
1.0
  6
ByLayer
 10
30.351299999999998
 20
-22.765699999999999
 30
0.0
 11
30.4481
 21
-22.8383
 31
0.0
  0
LINE
  5
38F
100
AcDbEntity
100
AcDbLine
  8
BLACK
 62
256
370
-1
 48
1.0
  6
ByLayer
 10
30.4481
 20
-22.8383
 30
0.0
 11
30.351299999999998
 21
-22.910900000000002
 31
0.0
  0
LINE
  5
390
100
AcDbEntity
100
AcDbLine
  8
BLACK
 62
256
370
-1
 48
1.0
  6
ByLayer
 10
30.351299999999998
 20
-22.910900000000002
 30
0.0
 11
30.2546
 21
-22.8383
 31
0.0
  0
LINE
  5
391
100
AcDbEntity
100
AcDbLine
  8
BLACK
 62
256
370
-1
 48
1.0
  6
ByLayer
 10
30.2546
 20
-22.8383
 30
0.0
 11
30.4481
 21
-22.8383
 31
0.0
  0
LINE
  5
392
100
AcDbEntity
100
AcDbLine
  8
BLACK
 62
256
370
-1
 48
1.0
  6
ByLayer
 10
28.4161
 20
-21.822299999999998
 30
0.0
 11
28.4161
 21
-21.677099999999999
 31
0.0
  0
LINE
  5
393
100
AcDbEntity
100
AcDbLine
  8
BLACK
 62
256
370
-1
 48
1.0
  6
ByLayer
 10
28.4161
 20
-21.677099999999999
 30
0.0
 11
28.512799999999999
 21
-21.532
 31
0.0
  0
LINE
  5
394
100
AcDbEntity
100
AcDbLine
  8
BLACK
 62
256
370
-1
 48
1.0
  6
ByLayer
 10
28.512799999999999
 20
-21.532
 30
0.0
 11
28.6096
 21
-21.459399999999999
 31
0.0
  0
LINE
  5
395
100
AcDbEntity
100
AcDbLine
  8
BLACK
 62
256
370
-1
 48
1.0
  6
ByLayer
 10
28.6096
 20
-21.459399999999999
 30
0.0
 11
28.803100000000001
 21
-21.386900000000001
 31
0.0
  0
LINE
  5
396
100
AcDbEntity
100
AcDbLine
  8
BLACK
 62
256
370
-1
 48
1.0
  6
ByLayer
 10
28.803100000000001
 20
-21.386900000000001
 30
0.0
 11
29.190200000000001
 21
-21.314299999999999
 31
0.0
  0
LINE
  5
397
100
AcDbEntity
100
AcDbLine
  8
BLACK
 62
256
370
-1
 48
1.0
  6
ByLayer
 10
29.190200000000001
 20
-21.314299999999999
 30
0.0
 11
29.673999999999999
 21
-21.314299999999999
 31
0.0
  0
LINE
  5
398
100
AcDbEntity
100
AcDbLine
  8
BLACK
 62
256
370
-1
 48
1.0
  6
ByLayer
 10
29.673999999999999
 20
-21.314299999999999
 30
0.0
 11
30.061
 21
-21.386900000000001
 31
0.0
  0
LINE
  5
399
100
AcDbEntity
100
AcDbLine
  8
BLACK
 62
256
370
-1
 48
1.0
  6
ByLayer
 10
30.061
 20
-21.386900000000001
 30
0.0
 11
30.2546
 21
-21.459399999999999
 31
0.0
  0
LINE
  5
39A
100
AcDbEntity
100
AcDbLine
  8
BLACK
 62
256
370
-1
 48
1.0
  6
ByLayer
 10
30.2546
 20
-21.459399999999999
 30
0.0
 11
30.351299999999998
 21
-21.532
 31
0.0
  0
LINE
  5
39B
100
AcDbEntity
100
AcDbLine
  8
BLACK
 62
256
370
-1
 48
1.0
  6
ByLayer
 10
30.351299999999998
 20
-21.532
 30
0.0
 11
30.4481
 21
-21.677099999999999
 31
0.0
  0
LINE
  5
39C
100
AcDbEntity
100
AcDbLine
  8
BLACK
 62
256
370
-1
 48
1.0
  6
ByLayer
 10
30.4481
 20
-21.677099999999999
 30
0.0
 11
30.4481
 21
-21.822299999999998
 31
0.0
  0
LINE
  5
39D
100
AcDbEntity
100
AcDbLine
  8
BLACK
 62
256
370
-1
 48
1.0
  6
ByLayer
 10
30.4481
 20
-21.822299999999998
 30
0.0
 11
30.351299999999998
 21
-21.967400000000001
 31
0.0
  0
LINE
  5
39E
100
AcDbEntity
100
AcDbLine
  8
BLACK
 62
256
370
-1
 48
1.0
  6
ByLayer
 10
30.351299999999998
 20
-21.967400000000001
 30
0.0
 11
30.2546
 21
-22.039999999999999
 31
0.0
  0
LINE
  5
39F
100
AcDbEntity
100
AcDbLine
  8
BLACK
 62
256
370
-1
 48
1.0
  6
ByLayer
 10
30.2546
 20
-22.039999999999999
 30
0.0
 11
30.061
 21
-22.1126
 31
0.0
  0
LINE
  5
3A0
100
AcDbEntity
100
AcDbLine
  8
BLACK
 62
256
370
-1
 48
1.0
  6
ByLayer
 10
30.061
 20
-22.1126
 30
0.0
 11
29.673999999999999
 21
-22.185099999999998
 31
0.0
  0
LINE
  5
3A1
100
AcDbEntity
100
AcDbLine
  8
BLACK
 62
256
370
-1
 48
1.0
  6
ByLayer
 10
29.673999999999999
 20
-22.185099999999998
 30
0.0
 11
29.190200000000001
 21
-22.185099999999998
 31
0.0
  0
LINE
  5
3A2
100
AcDbEntity
100
AcDbLine
  8
BLACK
 62
256
370
-1
 48
1.0
  6
ByLayer
 10
29.190200000000001
 20
-22.185099999999998
 30
0.0
 11
28.803100000000001
 21
-22.1126
 31
0.0
  0
LINE
  5
3A3
100
AcDbEntity
100
AcDbLine
  8
BLACK
 62
256
370
-1
 48
1.0
  6
ByLayer
 10
28.803100000000001
 20
-22.1126
 30
0.0
 11
28.6096
 21
-22.039999999999999
 31
0.0
  0
LINE
  5
3A4
100
AcDbEntity
100
AcDbLine
  8
BLACK
 62
256
370
-1
 48
1.0
  6
ByLayer
 10
28.6096
 20
-22.039999999999999
 30
0.0
 11
28.512799999999999
 21
-21.967400000000001
 31
0.0
  0
LINE
  5
3A5
100
AcDbEntity
100
AcDbLine
  8
BLACK
 62
256
370
-1
 48
1.0
  6
ByLayer
 10
28.512799999999999
 20
-21.967400000000001
 30
0.0
 11
28.4161
 21
-21.822299999999998
 31
0.0
  0
LINE
  5
3A6
100
AcDbEntity
100
AcDbLine
  8
BLACK
 62
256
370
-1
 48
1.0
  6
ByLayer
 10
28.4161
 20
-20.370899999999999
 30
0.0
 11
28.4161
 21
-20.2257
 31
0.0
  0
LINE
  5
3A7
100
AcDbEntity
100
AcDbLine
  8
BLACK
 62
256
370
-1
 48
1.0
  6
ByLayer
 10
28.4161
 20
-20.2257
 30
0.0
 11
28.512799999999999
 21
-20.0806
 31
0.0
  0
LINE
  5
3A8
100
AcDbEntity
100
AcDbLine
  8
BLACK
 62
256
370
-1
 48
1.0
  6
ByLayer
 10
28.512799999999999
 20
-20.0806
 30
0.0
 11
28.6096
 21
-20.007999999999999
 31
0.0
  0
LINE
  5
3A9
100
AcDbEntity
100
AcDbLine
  8
BLACK
 62
256
370
-1
 48
1.0
  6
ByLayer
 10
28.6096
 20
-20.007999999999999
 30
0.0
 11
28.803100000000001
 21
-19.935400000000001
 31
0.0
  0
LINE
  5
3AA
100
AcDbEntity
100
AcDbLine
  8
BLACK
 62
256
370
-1
 48
1.0
  6
ByLayer
 10
28.803100000000001
 20
-19.935400000000001
 30
0.0
 11
29.190200000000001
 21
-19.8629
 31
0.0
  0
LINE
  5
3AB
100
AcDbEntity
100
AcDbLine
  8
BLACK
 62
256
370
-1
 48
1.0
  6
ByLayer
 10
29.190200000000001
 20
-19.8629
 30
0.0
 11
29.673999999999999
 21
-19.8629
 31
0.0
  0
LINE
  5
3AC
100
AcDbEntity
100
AcDbLine
  8
BLACK
 62
256
370
-1
 48
1.0
  6
ByLayer
 10
29.673999999999999
 20
-19.8629
 30
0.0
 11
30.061
 21
-19.935400000000001
 31
0.0
  0
LINE
  5
3AD
100
AcDbEntity
100
AcDbLine
  8
BLACK
 62
256
370
-1
 48
1.0
  6
ByLayer
 10
30.061
 20
-19.935400000000001
 30
0.0
 11
30.2546
 21
-20.007999999999999
 31
0.0
  0
LINE
  5
3AE
100
AcDbEntity
100
AcDbLine
  8
BLACK
 62
256
370
-1
 48
1.0
  6
ByLayer
 10
30.2546
 20
-20.007999999999999
 30
0.0
 11
30.351299999999998
 21
-20.0806
 31
0.0
  0
LINE
  5
3AF
100
AcDbEntity
100
AcDbLine
  8
BLACK
 62
256
370
-1
 48
1.0
  6
ByLayer
 10
30.351299999999998
 20
-20.0806
 30
0.0
 11
30.4481
 21
-20.2257
 31
0.0
  0
LINE
  5
3B0
100
AcDbEntity
100
AcDbLine
  8
BLACK
 62
256
370
-1
 48
1.0
  6
ByLayer
 10
30.4481
 20
-20.2257
 30
0.0
 11
30.4481
 21
-20.370899999999999
 31
0.0
  0
LINE
  5
3B1
100
AcDbEntity
100
AcDbLine
  8
BLACK
 62
256
370
-1
 48
1.0
  6
ByLayer
 10
30.4481
 20
-20.370899999999999
 30
0.0
 11
30.351299999999998
 21
-20.515999999999998
 31
0.0
  0
LINE
  5
3B2
100
AcDbEntity
100
AcDbLine
  8
BLACK
 62
256
370
-1
 48
1.0
  6
ByLayer
 10
30.351299999999998
 20
-20.515999999999998
 30
0.0
 11
30.2546
 21
-20.5886
 31
0.0
  0
LINE
  5
3B3
100
AcDbEntity
100
AcDbLine
  8
BLACK
 62
256
370
-1
 48
1.0
  6
ByLayer
 10
30.2546
 20
-20.5886
 30
0.0
 11
30.061
 21
-20.661100000000001
 31
0.0
  0
LINE
  5
3B4
100
AcDbEntity
100
AcDbLine
  8
BLACK
 62
256
370
-1
 48
1.0
  6
ByLayer
 10
30.061
 20
-20.661100000000001
 30
0.0
 11
29.673999999999999
 21
-20.733699999999999
 31
0.0
  0
LINE
  5
3B5
100
AcDbEntity
100
AcDbLine
  8
BLACK
 62
256
370
-1
 48
1.0
  6
ByLayer
 10
29.673999999999999
 20
-20.733699999999999
 30
0.0
 11
29.190200000000001
 21
-20.733699999999999
 31
0.0
  0
LINE
  5
3B6
100
AcDbEntity
100
AcDbLine
  8
BLACK
 62
256
370
-1
 48
1.0
  6
ByLayer
 10
29.190200000000001
 20
-20.733699999999999
 30
0.0
 11
28.803100000000001
 21
-20.661100000000001
 31
0.0
  0
LINE
  5
3B7
100
AcDbEntity
100
AcDbLine
  8
BLACK
 62
256
370
-1
 48
1.0
  6
ByLayer
 10
28.803100000000001
 20
-20.661100000000001
 30
0.0
 11
28.6096
 21
-20.5886
 31
0.0
  0
LINE
  5
3B8
100
AcDbEntity
100
AcDbLine
  8
BLACK
 62
256
370
-1
 48
1.0
  6
ByLayer
 10
28.6096
 20
-20.5886
 30
0.0
 11
28.512799999999999
 21
-20.515999999999998
 31
0.0
  0
LINE
  5
3B9
100
AcDbEntity
100
AcDbLine
  8
BLACK
 62
256
370
-1
 48
1.0
  6
ByLayer
 10
28.512799999999999
 20
-20.515999999999998
 30
0.0
 11
28.4161
 21
-20.370899999999999
 31
0.0
  0
LINE
  5
3BA
100
AcDbEntity
100
AcDbLine
  8
BLACK
 62
256
370
-1
 48
1.0
  6
ByLayer
 10
28.4161
 20
-18.9194
 30
0.0
 11
28.4161
 21
-18.7743
 31
0.0
  0
LINE
  5
3BB
100
AcDbEntity
100
AcDbLine
  8
BLACK
 62
256
370
-1
 48
1.0
  6
ByLayer
 10
28.4161
 20
-18.7743
 30
0.0
 11
28.512799999999999
 21
-18.629100000000001
 31
0.0
  0
LINE
  5
3BC
100
AcDbEntity
100
AcDbLine
  8
BLACK
 62
256
370
-1
 48
1.0
  6
ByLayer
 10
28.512799999999999
 20
-18.629100000000001
 30
0.0
 11
28.6096
 21
-18.5566
 31
0.0
  0
LINE
  5
3BD
100
AcDbEntity
100
AcDbLine
  8
BLACK
 62
256
370
-1
 48
1.0
  6
ByLayer
 10
28.6096
 20
-18.5566
 30
0.0
 11
28.803100000000001
 21
-18.484000000000002
 31
0.0
  0
LINE
  5
3BE
100
AcDbEntity
100
AcDbLine
  8
BLACK
 62
256
370
-1
 48
1.0
  6
ByLayer
 10
28.803100000000001
 20
-18.484000000000002
 30
0.0
 11
29.190200000000001
 21
-18.4114
 31
0.0
  0
LINE
  5
3BF
100
AcDbEntity
100
AcDbLine
  8
BLACK
 62
256
370
-1
 48
1.0
  6
ByLayer
 10
29.190200000000001
 20
-18.4114
 30
0.0
 11
29.673999999999999
 21
-18.4114
 31
0.0
  0
LINE
  5
3C0
100
AcDbEntity
100
AcDbLine
  8
BLACK
 62
256
370
-1
 48
1.0
  6
ByLayer
 10
29.673999999999999
 20
-18.4114
 30
0.0
 11
30.061
 21
-18.484000000000002
 31
0.0
  0
LINE
  5
3C1
100
AcDbEntity
100
AcDbLine
  8
BLACK
 62
256
370
-1
 48
1.0
  6
ByLayer
 10
30.061
 20
-18.484000000000002
 30
0.0
 11
30.2546
 21
-18.5566
 31
0.0
  0
LINE
  5
3C2
100
AcDbEntity
100
AcDbLine
  8
BLACK
 62
256
370
-1
 48
1.0
  6
ByLayer
 10
30.2546
 20
-18.5566
 30
0.0
 11
30.351299999999998
 21
-18.629100000000001
 31
0.0
  0
LINE
  5
3C3
100
AcDbEntity
100
AcDbLine
  8
BLACK
 62
256
370
-1
 48
1.0
  6
ByLayer
 10
30.351299999999998
 20
-18.629100000000001
 30
0.0
 11
30.4481
 21
-18.7743
 31
0.0
  0
LINE
  5
3C4
100
AcDbEntity
100
AcDbLine
  8
BLACK
 62
256
370
-1
 48
1.0
  6
ByLayer
 10
30.4481
 20
-18.7743
 30
0.0
 11
30.4481
 21
-18.9194
 31
0.0
  0
LINE
  5
3C5
100
AcDbEntity
100
AcDbLine
  8
BLACK
 62
256
370
-1
 48
1.0
  6
ByLayer
 10
30.4481
 20
-18.9194
 30
0.0
 11
30.351299999999998
 21
-19.064599999999999
 31
0.0
  0
LINE
  5
3C6
100
AcDbEntity
100
AcDbLine
  8
BLACK
 62
256
370
-1
 48
1.0
  6
ByLayer
 10
30.351299999999998
 20
-19.064599999999999
 30
0.0
 11
30.2546
 21
-19.1371
 31
0.0
  0
LINE
  5
3C7
100
AcDbEntity
100
AcDbLine
  8
BLACK
 62
256
370
-1
 48
1.0
  6
ByLayer
 10
30.2546
 20
-19.1371
 30
0.0
 11
30.061
 21
-19.209700000000002
 31
0.0
  0
LINE
  5
3C8
100
AcDbEntity
100
AcDbLine
  8
BLACK
 62
256
370
-1
 48
1.0
  6
ByLayer
 10
30.061
 20
-19.209700000000002
 30
0.0
 11
29.673999999999999
 21
-19.282299999999999
 31
0.0
  0
LINE
  5
3C9
100
AcDbEntity
100
AcDbLine
  8
BLACK
 62
256
370
-1
 48
1.0
  6
ByLayer
 10
29.673999999999999
 20
-19.282299999999999
 30
0.0
 11
29.190200000000001
 21
-19.282299999999999
 31
0.0
  0
LINE
  5
3CA
100
AcDbEntity
100
AcDbLine
  8
BLACK
 62
256
370
-1
 48
1.0
  6
ByLayer
 10
29.190200000000001
 20
-19.282299999999999
 30
0.0
 11
28.803100000000001
 21
-19.209700000000002
 31
0.0
  0
LINE
  5
3CB
100
AcDbEntity
100
AcDbLine
  8
BLACK
 62
256
370
-1
 48
1.0
  6
ByLayer
 10
28.803100000000001
 20
-19.209700000000002
 30
0.0
 11
28.6096
 21
-19.1371
 31
0.0
  0
LINE
  5
3CC
100
AcDbEntity
100
AcDbLine
  8
BLACK
 62
256
370
-1
 48
1.0
  6
ByLayer
 10
28.6096
 20
-19.1371
 30
0.0
 11
28.512799999999999
 21
-19.064599999999999
 31
0.0
  0
LINE
  5
3CD
100
AcDbEntity
100
AcDbLine
  8
BLACK
 62
256
370
-1
 48
1.0
  6
ByLayer
 10
28.512799999999999
 20
-19.064599999999999
 30
0.0
 11
28.4161
 21
-18.9194
 31
0.0
  0
LINE
  5
3CE
100
AcDbEntity
100
AcDbLine
  8
BLACK
 62
256
370
-1
 48
1.0
  6
ByLayer
 10
30.4481
 20
-16.597100000000001
 30
0.0
 11
29.093399999999999
 21
-16.597100000000001
 31
0.0
  0
LINE
  5
3CF
100
AcDbEntity
100
AcDbLine
  8
BLACK
 62
256
370
-1
 48
1.0
  6
ByLayer
 10
29.286899999999999
 20
-16.597100000000001
 30
0.0
 11
29.190200000000001
 21
-16.5246
 31
0.0
  0
LINE
  5
3D0
100
AcDbEntity
100
AcDbLine
  8
BLACK
 62
256
370
-1
 48
1.0
  6
ByLayer
 10
29.190200000000001
 20
-16.5246
 30
0.0
 11
29.093399999999999
 21
-16.3794
 31
0.0
  0
LINE
  5
3D1
100
AcDbEntity
100
AcDbLine
  8
BLACK
 62
256
370
-1
 48
1.0
  6
ByLayer
 10
29.093399999999999
 20
-16.3794
 30
0.0
 11
29.093399999999999
 21
-16.1617
 31
0.0
  0
LINE
  5
3D2
100
AcDbEntity
100
AcDbLine
  8
BLACK
 62
256
370
-1
 48
1.0
  6
ByLayer
 10
29.093399999999999
 20
-16.1617
 30
0.0
 11
29.190200000000001
 21
-16.0166
 31
0.0
  0
LINE
  5
3D3
100
AcDbEntity
100
AcDbLine
  8
BLACK
 62
256
370
-1
 48
1.0
  6
ByLayer
 10
29.190200000000001
 20
-16.0166
 30
0.0
 11
29.383700000000001
 21
-15.944000000000001
 31
0.0
  0
LINE
  5
3D4
100
AcDbEntity
100
AcDbLine
  8
BLACK
 62
256
370
-1
 48
1.0
  6
ByLayer
 10
29.383700000000001
 20
-15.944000000000001
 30
0.0
 11
30.4481
 21
-15.944000000000001
 31
0.0
  0
LINE
  5
3D5
100
AcDbEntity
100
AcDbLine
  8
BLACK
 62
256
370
-1
 48
1.0
  6
ByLayer
 10
29.383700000000001
 20
-15.944000000000001
 30
0.0
 11
29.190200000000001
 21
-15.8714
 31
0.0
  0
LINE
  5
3D6
100
AcDbEntity
100
AcDbLine
  8
BLACK
 62
256
370
-1
 48
1.0
  6
ByLayer
 10
29.190200000000001
 20
-15.8714
 30
0.0
 11
29.093399999999999
 21
-15.7263
 31
0.0
  0
LINE
  5
3D7
100
AcDbEntity
100
AcDbLine
  8
BLACK
 62
256
370
-1
 48
1.0
  6
ByLayer
 10
29.093399999999999
 20
-15.7263
 30
0.0
 11
29.093399999999999
 21
-15.508599999999999
 31
0.0
  0
LINE
  5
3D8
100
AcDbEntity
100
AcDbLine
  8
BLACK
 62
256
370
-1
 48
1.0
  6
ByLayer
 10
29.093399999999999
 20
-15.508599999999999
 30
0.0
 11
29.190200000000001
 21
-15.3634
 31
0.0
  0
LINE
  5
3D9
100
AcDbEntity
100
AcDbLine
  8
BLACK
 62
256
370
-1
 48
1.0
  6
ByLayer
 10
29.190200000000001
 20
-15.3634
 30
0.0
 11
29.383700000000001
 21
-15.290900000000001
 31
0.0
  0
LINE
  5
3DA
100
AcDbEntity
100
AcDbLine
  8
BLACK
 62
256
370
-1
 48
1.0
  6
ByLayer
 10
29.383700000000001
 20
-15.290900000000001
 30
0.0
 11
30.4481
 21
-15.290900000000001
 31
0.0
  0
LINE
  5
3DB
100
AcDbEntity
100
AcDbLine
  8
BLACK
 62
256
370
-1
 48
1.0
  6
ByLayer
 10
30.4481
 20
-14.565099999999999
 30
0.0
 11
29.093399999999999
 21
-14.565099999999999
 31
0.0
  0
LINE
  5
3DC
100
AcDbEntity
100
AcDbLine
  8
BLACK
 62
256
370
-1
 48
1.0
  6
ByLayer
 10
29.286899999999999
 20
-14.565099999999999
 30
0.0
 11
29.190200000000001
 21
-14.492599999999999
 31
0.0
  0
LINE
  5
3DD
100
AcDbEntity
100
AcDbLine
  8
BLACK
 62
256
370
-1
 48
1.0
  6
ByLayer
 10
29.190200000000001
 20
-14.492599999999999
 30
0.0
 11
29.093399999999999
 21
-14.3474
 31
0.0
  0
LINE
  5
3DE
100
AcDbEntity
100
AcDbLine
  8
BLACK
 62
256
370
-1
 48
1.0
  6
ByLayer
 10
29.093399999999999
 20
-14.3474
 30
0.0
 11
29.093399999999999
 21
-14.1297
 31
0.0
  0
LINE
  5
3DF
100
AcDbEntity
100
AcDbLine
  8
BLACK
 62
256
370
-1
 48
1.0
  6
ByLayer
 10
29.093399999999999
 20
-14.1297
 30
0.0
 11
29.190200000000001
 21
-13.9846
 31
0.0
  0
LINE
  5
3E0
100
AcDbEntity
100
AcDbLine
  8
BLACK
 62
256
370
-1
 48
1.0
  6
ByLayer
 10
29.190200000000001
 20
-13.9846
 30
0.0
 11
29.383700000000001
 21
-13.912000000000001
 31
0.0
  0
LINE
  5
3E1
100
AcDbEntity
100
AcDbLine
  8
BLACK
 62
256
370
-1
 48
1.0
  6
ByLayer
 10
29.383700000000001
 20
-13.912000000000001
 30
0.0
 11
30.4481
 21
-13.912000000000001
 31
0.0
  0
LINE
  5
3E2
100
AcDbEntity
100
AcDbLine
  8
BLACK
 62
256
370
-1
 48
1.0
  6
ByLayer
 10
29.383700000000001
 20
-13.912000000000001
 30
0.0
 11
29.190200000000001
 21
-13.839399999999999
 31
0.0
  0
LINE
  5
3E3
100
AcDbEntity
100
AcDbLine
  8
BLACK
 62
256
370
-1
 48
1.0
  6
ByLayer
 10
29.190200000000001
 20
-13.839399999999999
 30
0.0
 11
29.093399999999999
 21
-13.6943
 31
0.0
  0
LINE
  5
3E4
100
AcDbEntity
100
AcDbLine
  8
BLACK
 62
256
370
-1
 48
1.0
  6
ByLayer
 10
29.093399999999999
 20
-13.6943
 30
0.0
 11
29.093399999999999
 21
-13.476599999999999
 31
0.0
  0
LINE
  5
3E5
100
AcDbEntity
100
AcDbLine
  8
BLACK
 62
256
370
-1
 48
1.0
  6
ByLayer
 10
29.093399999999999
 20
-13.476599999999999
 30
0.0
 11
29.190200000000001
 21
-13.3314
 31
0.0
  0
LINE
  5
3E6
100
AcDbEntity
100
AcDbLine
  8
BLACK
 62
256
370
-1
 48
1.0
  6
ByLayer
 10
29.190200000000001
 20
-13.3314
 30
0.0
 11
29.383700000000001
 21
-13.258900000000001
 31
0.0
  0
LINE
  5
3E7
100
AcDbEntity
100
AcDbLine
  8
BLACK
 62
256
370
-1
 48
1.0
  6
ByLayer
 10
29.383700000000001
 20
-13.258900000000001
 30
0.0
 11
30.4481
 21
-13.258900000000001
 31
0.0
  0
LINE
  5
3E8
100
AcDbEntity
100
AcDbLine
  8
BLACK
 62
256
370
-1
 48
1.0
  6
ByLayer
 10
28.1524
 20
-35.0
 30
0.0
 11
28.1524
 21
-4.0
 31
0.0
  0
LINE
  5
3E9
100
AcDbEntity
100
AcDbLine
  8
BLACK
 62
256
370
-1
 48
1.0
  6
ByLayer
 10
27.8476
 20
-35.0
 30
0.0
 11
27.8476
 21
-4.0
 31
0.0
  0
ARC
  5
3EA
100
AcDbEntity
  8
BLACK
 62
256
370
-1
 48
1.0
  6
ByLayer
100
AcDbCircle
 10
28.0
 20
-4.0
 30
0.0
 40
0.1524
100
AcDbArc
 50
0.0
 51
180.0
  0
ARC
  5
3EB
100
AcDbEntity
  8
BLACK
 62
256
370
-1
 48
1.0
  6
ByLayer
100
AcDbCircle
 10
28.0
 20
-35.0
 30
0.0
 40
0.1524
100
AcDbArc
 50
180.0
 51
0.0
  0
LINE
  5
3EC
100
AcDbEntity
100
AcDbLine
  8
BLACK
 62
256
370
-1
 48
1.0
  6
ByLayer
 10
22.0
 20
-35.1524
 30
0.0
 11
31.251200000000001
 21
-35.1524
 31
0.0
  0
LINE
  5
3ED
100
AcDbEntity
100
AcDbLine
  8
BLACK
 62
256
370
-1
 48
1.0
  6
ByLayer
 10
22.0
 20
-34.8476
 30
0.0
 11
31.251200000000001
 21
-34.8476
 31
0.0
  0
ARC
  5
3EE
100
AcDbEntity
  8
BLACK
 62
256
370
-1
 48
1.0
  6
ByLayer
100
AcDbCircle
 10
31.251200000000001
 20
-35.0
 30
0.0
 40
0.1524
100
AcDbArc
 50
270.0
 51
90.0
  0
ARC
  5
3EF
100
AcDbEntity
  8
BLACK
 62
256
370
-1
 48
1.0
  6
ByLayer
100
AcDbCircle
 10
22.0
 20
-35.0
 30
0.0
 40
0.1524
100
AcDbArc
 50
90.0
 51
270.0
  0
LINE
  5
3F0
100
AcDbEntity
100
AcDbLine
  8
BLACK
 62
256
370
-1
 48
1.0
  6
ByLayer
 10
22.0
 20
-4.1524000000000001
 30
0.0
 11
31.251200000000001
 21
-4.1524000000000001
 31
0.0
  0
LINE
  5
3F1
100
AcDbEntity
100
AcDbLine
  8
BLACK
 62
256
370
-1
 48
1.0
  6
ByLayer
 10
22.0
 20
-3.8475999999999999
 30
0.0
 11
31.251200000000001
 21
-3.8475999999999999
 31
0.0
  0
ARC
  5
3F2
100
AcDbEntity
  8
BLACK
 62
256
370
-1
 48
1.0
  6
ByLayer
100
AcDbCircle
 10
31.251200000000001
 20
-4.0
 30
0.0
 40
0.1524
100
AcDbArc
 50
270.0
 51
90.0
  0
ARC
  5
3F3
100
AcDbEntity
  8
BLACK
 62
256
370
-1
 48
1.0
  6
ByLayer
100
AcDbCircle
 10
22.0
 20
-4.0
 30
0.0
 40
0.1524
100
AcDbArc
 50
90.0
 51
270.0
  0
LINE
  5
3F4
100
AcDbEntity
100
AcDbLine
  8
BLACK
 62
256
370
-1
 48
1.0
  6
ByLayer
 10
27.864799999999999
 20
-4.0703699999999996
 30
0.0
 11
28.4512
 21
-5.1968699999999997
 31
0.0
  0
LINE
  5
3F5
100
AcDbEntity
100
AcDbLine
  8
BLACK
 62
256
370
-1
 48
1.0
  6
ByLayer
 10
28.135200000000001
 20
-3.92963
 30
0.0
 11
28.721599999999999
 21
-5.0561299999999996
 31
0.0
  0
ARC
  5
3F6
100
AcDbEntity
  8
BLACK
 62
256
370
-1
 48
1.0
  6
ByLayer
100
AcDbCircle
 10
28.586400000000001
 20
-5.1265000000000001
 30
0.0
 40
0.1524
100
AcDbArc
 50
207.49999999999997
 51
27.500000000000004
  0
ARC
  5
3F7
100
AcDbEntity
  8
BLACK
 62
256
370
-1
 48
1.0
  6
ByLayer
100
AcDbCircle
 10
28.0
 20
-4.0
 30
0.0
 40
0.1524
100
AcDbArc
 50
27.500000000000004
 51
207.49999999999997
  0
LINE
  5
3F8
100
AcDbEntity
100
AcDbLine
  8
BLACK
 62
256
370
-1
 48
1.0
  6
ByLayer
 10
27.863700000000001
 20
-3.92936
 30
0.0
 11
27.279299999999999
 21
-5.0568799999999996
 31
0.0
  0
LINE
  5
3F9
100
AcDbEntity
100
AcDbLine
  8
BLACK
 62
256
370
-1
 48
1.0
  6
ByLayer
 10
28.1343
 20
-4.0696199999999996
 30
0.0
 11
27.549900000000001
 21
-5.1971499999999997
 31
0.0
  0
ARC
  5
3FA
100
AcDbEntity
  8
BLACK
 62
256
370
-1
 48
1.0
  6
ByLayer
100
AcDbCircle
 10
27.4146
 20
-5.1270100000000003
 30
0.0
 40
0.1524
100
AcDbArc
 50
152.59999999999997
 51
332.60000000000002
  0
ARC
  5
3FB
100
AcDbEntity
  8
BLACK
 62
256
370
-1
 48
1.0
  6
ByLayer
100
AcDbCircle
 10
27.998999999999999
 20
-3.9994900000000002
 30
0.0
 40
0.1524
100
AcDbArc
 50
332.60000000000002
 51
152.59999999999997
  0
LINE
  5
3FC
100
AcDbEntity
100
AcDbLine
  8
BLACK
 62
256
370
-1
 48
1.0
  6
ByLayer
 10
28.135200000000001
 20
-35.070399999999999
 30
0.0
 11
28.721599999999999
 21
-33.943899999999999
 31
0.0
  0
LINE
  5
3FD
100
AcDbEntity
100
AcDbLine
  8
BLACK
 62
256
370
-1
 48
1.0
  6
ByLayer
 10
27.864799999999999
 20
-34.929600000000001
 30
0.0
 11
28.4512
 21
-33.803100000000001
 31
0.0
  0
ARC
  5
3FE
100
AcDbEntity
  8
BLACK
 62
256
370
-1
 48
1.0
  6
ByLayer
100
AcDbCircle
 10
28.586400000000001
 20
-33.8735
 30
0.0
 40
0.1524
100
AcDbArc
 50
332.5
 51
152.5
  0
ARC
  5
3FF
100
AcDbEntity
  8
BLACK
 62
256
370
-1
 48
1.0
  6
ByLayer
100
AcDbCircle
 10
28.0
 20
-35.0
 30
0.0
 40
0.1524
100
AcDbArc
 50
152.5
 51
332.5
  0
LINE
  5
400
100
AcDbEntity
100
AcDbLine
  8
BLACK
 62
256
370
-1
 48
1.0
  6
ByLayer
 10
28.1343
 20
-34.930399999999999
 30
0.0
 11
27.549900000000001
 21
-33.802900000000001
 31
0.0
  0
LINE
  5
401
100
AcDbEntity
100
AcDbLine
  8
BLACK
 62
256
370
-1
 48
1.0
  6
ByLayer
 10
27.863700000000001
 20
-35.070599999999999
 30
0.0
 11
27.279299999999999
 21
-33.943100000000001
 31
0.0
  0
ARC
  5
402
100
AcDbEntity
  8
BLACK
 62
256
370
-1
 48
1.0
  6
ByLayer
100
AcDbCircle
 10
27.4146
 20
-33.872999999999998
 30
0.0
 40
0.1524
100
AcDbArc
 50
27.399999999999977
 51
207.39999999999998
  0
ARC
  5
403
100
AcDbEntity
  8
BLACK
 62
256
370
-1
 48
1.0
  6
ByLayer
100
AcDbCircle
 10
27.998999999999999
 20
-35.000500000000002
 30
0.0
 40
0.1524
100
AcDbArc
 50
207.40000000000001
 51
27.399999999999977
  0
LINE
  5
404
100
AcDbEntity
100
AcDbLine
  8
BLACK
 62
256
370
-1
 48
1.0
  6
ByLayer
 10
4.0
 20
-39.1905
 30
0.0
 11
22.0
 21
-39.1905
 31
0.0
  0
LINE
  5
405
100
AcDbEntity
100
AcDbLine
  8
BLACK
 62
256
370
-1
 48
1.0
  6
ByLayer
 10
4.0
 20
-38.8095
 30
0.0
 11
22.0
 21
-38.8095
 31
0.0
  0
ARC
  5
406
100
AcDbEntity
  8
BLACK
 62
256
370
-1
 48
1.0
  6
ByLayer
100
AcDbCircle
 10
22.0
 20
-39.0
 30
0.0
 40
0.1905
100
AcDbArc
 50
270.0
 51
90.0
  0
ARC
  5
407
100
AcDbEntity
  8
BLACK
 62
256
370
-1
 48
1.0
  6
ByLayer
100
AcDbCircle
 10
4.0
 20
-39.0
 30
0.0
 40
0.1905
100
AcDbArc
 50
90.0
 51
270.0
  0
LINE
  5
408
100
AcDbEntity
100
AcDbLine
  8
BLACK
 62
256
370
-1
 48
1.0
  6
ByLayer
 10
0.1905
 20
-35.0
 30
0.0
 11
0.1905
 21
-4.0
 31
0.0
  0
LINE
  5
409
100
AcDbEntity
100
AcDbLine
  8
BLACK
 62
256
370
-1
 48
1.0
  6
ByLayer
 10
-0.1905
 20
-35.0
 30
0.0
 11
-0.1905
 21
-4.0
 31
0.0
  0
ARC
  5
40A
100
AcDbEntity
  8
BLACK
 62
256
370
-1
 48
1.0
  6
ByLayer
100
AcDbCircle
 10
0.0
 20
-4.0
 30
0.0
 40
0.1905
100
AcDbArc
 50
0.0
 51
180.0
  0
ARC
  5
40B
100
AcDbEntity
  8
BLACK
 62
256
370
-1
 48
1.0
  6
ByLayer
100
AcDbCircle
 10
0.0
 20
-35.0
 30
0.0
 40
0.1905
100
AcDbArc
 50
180.0
 51
0.0
  0
LINE
  5
40C
100
AcDbEntity
100
AcDbLine
  8
BLACK
 62
256
370
-1
 48
1.0
  6
ByLayer
 10
26.1905
 20
-35.0
 30
0.0
 11
26.1905
 21
-4.0
 31
0.0
  0
LINE
  5
40D
100
AcDbEntity
100
AcDbLine
  8
BLACK
 62
256
370
-1
 48
1.0
  6
ByLayer
 10
25.8095
 20
-35.0
 30
0.0
 11
25.8095
 21
-4.0
 31
0.0
  0
ARC
  5
40E
100
AcDbEntity
  8
BLACK
 62
256
370
-1
 48
1.0
  6
ByLayer
100
AcDbCircle
 10
26.0
 20
-4.0
 30
0.0
 40
0.1905
100
AcDbArc
 50
0.0
 51
180.0
  0
ARC
  5
40F
100
AcDbEntity
  8
BLACK
 62
256
370
-1
 48
1.0
  6
ByLayer
100
AcDbCircle
 10
26.0
 20
-35.0
 30
0.0
 40
0.1905
100
AcDbArc
 50
180.0
 51
0.0
  0
LINE
  5
410
100
AcDbEntity
100
AcDbLine
  8
BLACK
 62
256
370
-1
 48
1.0
  6
ByLayer
 10
4.0
 20
-0.1905
 30
0.0
 11
22.0
 21
-0.1905
 31
0.0
  0
LINE
  5
411
100
AcDbEntity
100
AcDbLine
  8
BLACK
 62
256
370
-1
 48
1.0
  6
ByLayer
 10
4.0
 20
0.1905
 30
0.0
 11
22.0
 21
0.1905
 31
0.0
  0
ARC
  5
412
100
AcDbEntity
  8
BLACK
 62
256
370
-1
 48
1.0
  6
ByLayer
100
AcDbCircle
 10
22.0
 20
0.0
 30
0.0
 40
0.1905
100
AcDbArc
 50
270.0
 51
90.0
  0
ARC
  5
413
100
AcDbEntity
  8
BLACK
 62
256
370
-1
 48
1.0
  6
ByLayer
100
AcDbCircle
 10
4.0
 20
0.0
 30
0.0
 40
0.1905
100
AcDbArc
 50
90.0
 51
270.0
  0
ARC
  5
414
100
AcDbEntity
  8
BLACK
 62
256
370
-1
 48
1.0
  6
ByLayer
100
AcDbCircle
 10
4.0
 20
-35.0
 30
0.0
 40
4.0
100
AcDbArc
 50
180.0
 51
270.0
  0
ARC
  5
415
100
AcDbEntity
  8
BLACK
 62
256
370
-1
 48
1.0
  6
ByLayer
100
AcDbCircle
 10
22.0
 20
-4.0
 30
0.0
 40
4.0
100
AcDbArc
 50
0.0
 51
90.0
  0
ARC
  5
416
100
AcDbEntity
  8
BLACK
 62
256
370
-1
 48
1.0
  6
ByLayer
100
AcDbCircle
 10
22.0
 20
-35.0
 30
0.0
 40
4.0
100
AcDbArc
 50
270.0
 51
0.0
  0
ARC
  5
417
100
AcDbEntity
  8
BLACK
 62
256
370
-1
 48
1.0
  6
ByLayer
100
AcDbCircle
 10
4.0
 20
-4.0
 30
0.0
 40
4.0
100
AcDbArc
 50
90.0
 51
180.0
  0
DIMENSION
  5
418
100
AcDbEntity
  8
0
 62
256
370
-1
 48
1.0
  6
ByLayer
100
AcDbDimension
 10
26.0
 20
7.0
 30
0.0
 11
13.0
 21
7.5899999999999999
 31
0.0
 70
0
 71
8
 72
2
 41
1.0
 42
0.0
  1

  3
Standard
100
AcDbAlignedDimension
 13
0.0
 23
0.0
 33
0.0
 14
26.0
 24
0.0
 34
0.0
 50
0.0
100
AcDbRotatedDimension
1001
ACAD
1000
DSTYLE
1002
{
1070
144
1040
1
1002
}
  0
DIMENSION
  5
419
100
AcDbEntity
  8
0
 62
256
370
-1
 48
1.0
  6
ByLayer
100
AcDbDimension
 10
2.0
 20
2.0
 30
0.0
 11
2.0
 21
2.5899999999999999
 31
0.0
 70
0
 71
8
 72
2
 41
1.0
 42
0.0
  1

  3
Standard
100
AcDbAlignedDimension
 13
0.0
 23
0.0
 33
0.0
 14
4.0
 24
-4.0
 34
0.0
 50
0.0
100
AcDbRotatedDimension
1001
ACAD
1000
DSTYLE
1002
{
1070
144
1040
1
1002
}
  0
DIMENSION
  5
41A
100
AcDbEntity
  8
0
 62
256
370
-1
 48
1.0
  6
ByLayer
100
AcDbDimension
 10
14.015999999999998
 20
4.4480800000000018
 30
0.0
 11
6.6741966530847439
 21
5.0380800000000026
 31
0.0
 70
0
 71
8
 72
2
 41
1.0
 42
0.0
  1

  3
Standard
100
AcDbAlignedDimension
 13
0.0
 23
0.0
 33
0.0
 14
13.348393306169488
 24
-4.4500226464198622
 34
0.0
 50
0.0
100
AcDbRotatedDimension
1001
ACAD
1000
DSTYLE
1002
{
1070
144
1040
1
1002
}
  0
DIMENSION
  5
41B
100
AcDbEntity
  8
0
 62
256
370
-1
 48
1.0
  6
ByLayer
100
AcDbDimension
 10
22.542303289245488
 20
2.0304298888237673
 30
0.0
 11
9.9379742265143527
 21
2.6369649820316492
 31
0.0
 70
128
 71
8
 72
2
 41
1.0
 42
0.0
  1

  3
Standard
100
AcDbAlignedDimension
 13
4.0
 23
-4.0
 33
0.0
 14
22.0
 24
-4.0
 34
0.0
 50
0.0
100
AcDbRotatedDimension
1001
ACAD
1000
DSTYLE
1002
{
1070
144
1040
1
1002
}
  0
DIMENSION
  5
41C
100
AcDbEntity
  8
0
 62
256
370
-1
 48
1.0
  6
ByLayer
100
AcDbDimension
 10
1.7145000000000001
 20
-26.670000000000002
 30
0.0
 11
1.905
 21
-26.080000000000002
 31
0.0
 70
0
 71
8
 72
2
 41
1.0
 42
0.0
  1

  3
Standard
100
AcDbAlignedDimension
 13
0.0
 23
0.0
 33
0.0
 14
3.8100000000000001
 24
-30.035499999999999
 34
0.0
 50
0.0
100
AcDbRotatedDimension
1001
ACAD
1000
DSTYLE
1002
{
1070
144
1040
1
1002
}
  0
DIMENSION
  5
41D
100
AcDbEntity
  8
0
 62
256
370
-1
 48
1.0
  6
ByLayer
100
AcDbDimension
 10
-2.0
 20
-39.0
 30
0.0
 11
-2.5899999999999999
 21
-19.5
 31
0.0
 70
0
 71
8
 72
2
 41
1.0
 42
0.0
  1

  3
Standard
100
AcDbAlignedDimension
 13
0.0
 23
0.0
 33
0.0
 14
0.0
 24
-39.0
 34
0.0
 50
90.0
100
AcDbRotatedDimension
1001
ACAD
1000
DSTYLE
1002
{
1070
144
1040
1
1002
}
  0
CIRCLE
  5
41E
100
AcDbEntity
100
AcDbCircle
  8
0
 62
256
370
-1
 48
1.0
  6
ByLayer
 10
13.35
 20
-4.4500000000000002
 30
0.0
 40
2.5504901489713685
  0
CIRCLE
  5
41F
100
AcDbEntity
100
AcDbCircle
  8
0
 62
256
370
-1
 48
1.0
  6
ByLayer
 10
13.299999999999999
 20
-34.299999999999997
 30
0.0
 40
2.5019992006393608
  0
DIMENSION
  5
420
100
AcDbEntity
  8
0
 62
256
370
-1
 48
1.0
  6
ByLayer
100
AcDbDimension
 10
28.0
 20
-15.0
 30
0.0
 11
26.833260856288547
 21
-19.536043784464272
 31
0.0
 70
128
 71
8
 72
2
 41
1.0
 42
0.0
  1

  3
Standard
100
AcDbAlignedDimension
 13
23.1905
 23
-35.0
 33
0.0
 14
20.8095
 24
-4.0
 34
0.0
 50
90.0
100
AcDbRotatedDimension
1001
ACAD
1000
DSTYLE
1002
{
1070
144
1040
1
1002
}
  0
DIMENSION
  5
421
100
AcDbEntity
  8
0
 62
256
370
-1
 48
1.0
  6
ByLayer
100
AcDbDimension
 10
28.0
 20
-0.1524
 30
0.0
 11
29.4161
 21
-1.9999999999999998
 31
0.0
 70
128
 71
8
 72
2
 41
1.0
 42
0.0
  1

  3
Standard
100
AcDbAlignedDimension
 13
22.0
 23
-4.0
 33
0.0
 14
22.0
 24
0.0
 34
0.0
 50
90.0
100
AcDbRotatedDimension
1001
ACAD
1000
DSTYLE
1002
{
1070
144
1040
1
1002
}
  0
DIMENSION
  5
422
100
AcDbEntity
  8
0
 62
256
370
-1
 48
1.0
  6
ByLayer
100
AcDbDimension
 10
26.247787775914816
 20
3.6103308698082159
 30
0.0
 11
19.6675
 21
4.2003308698082158
 31
0.0
 70
0
 71
8
 72
2
 41
1.0
 42
0.0
  1

  3
Standard
100
AcDbAlignedDimension
 13
13.335000000000001
 23
-5.9055
 33
0.0
 14
26.0
 24
0.1905
 34
0.0
 50
0.0
100
AcDbRotatedDimension
1001
ACAD
1000
DSTYLE
1002
{
1070
144
1040
1
1002
}
  0
ENDSEC
  0
SECTION
  2
OBJECTS
  0
DICTIONARY
  5
C
100
AcDbDictionary
280
0
281
1
  3
ACAD_GROUP
350
D
  3
ACAD_LAYOUT
350
1A
  3
ACAD_MLINESTYLE
350
17
  3
ACAD_PLOTSETTINGS
350
19
  3
ACAD_PLOTSTYLENAME
350
E
  3
AcDbVariableDictionary
350
423
  3
QCAD_OBJECTS
350
424
  0
DICTIONARY
  5
D
100
AcDbDictionary
280
0
281
1
  0
ACDBDICTIONARYWDFLT
  5
E
100
AcDbDictionary
281
1
  3
Normal
350
F
100
AcDbDictionaryWithDefault
340
F
  0
ACDBPLACEHOLDER
  5
F
  0
DICTIONARY
  5
17
100
AcDbDictionary
280
0
281
1
  3
Standard
350
18
  0
MLINESTYLE
  5
18
100
AcDbMlineStyle
  2
STANDARD
 70
0
  3

 62
256
 51
90.0
 52
90.0
 71
2
 49
0.5
 62
256
  6
BYLAYER
 49
-0.5
 62
256
  6
BYLAYER
  0
DICTIONARY
  5
19
100
AcDbDictionary
280
0
281
1
  0
DICTIONARY
  5
1A
100
AcDbDictionary
281
1
  3
Layout1
350
1E
  3
Layout2
350
26
  3
Model
350
22
  0
LAYOUT
  5
1E
100
AcDbPlotSettings
  1

  2
none_device
  4

  6

 40
0.0
 41
0.0
 42
0.0
 43
0.0
 44
0.0
 45
0.0
 46
0.0
 47
0.0
 48
0.0
 49
0.0
140
0.0
141
0.0
142
1.0
143
1.0
 70
688
 72
0
 73
0
 74
5
  7

 75
16
147
1.0
148
0.0
149
0.0
100
AcDbLayout
  1
Layout1
 70
1
 71
1
 10
0.0
 20
0.0
 11
420.0
 21
297.0
 12
0.0
 22
0.0
 32
0.0
 14
100000000000000000000.0
 24
100000000000000000000.0
 34
100000000000000000000.0
 15
-100000000000000000000.0
 25
-100000000000000000000.0
 35
-100000000000000000000.0
146
0.0
 13
0.0
 23
0.0
 33
0.0
 16
1.0
 26
0.0
 36
0.0
 17
0.0
 27
1.0
 37
0.0
 76
0
330
1B
  0
LAYOUT
  5
22
100
AcDbPlotSettings
  1

  2
none_device
  4

  6

 40
0.0
 41
0.0
 42
0.0
 43
0.0
 44
0.0
 45
0.0
 46
0.0
 47
0.0
 48
0.0
 49
0.0
140
0.0
141
0.0
142
1.0
143
1.0
 70
1712
 72
0
 73
0
 74
0
  7

 75
0
147
1.0
148
0.0
149
0.0
100
AcDbLayout
  1
Model
 70
1
 71
0
 10
0.0
 20
0.0
 11
12.0
 21
9.0
 12
0.0
 22
0.0
 32
0.0
 14
0.0
 24
0.0
 34
0.0
 15
0.0
 25
0.0
 35
0.0
146
0.0
 13
0.0
 23
0.0
 33
0.0
 16
1.0
 26
0.0
 36
0.0
 17
0.0
 27
1.0
 37
0.0
 76
0
330
1F
  0
LAYOUT
  5
26
100
AcDbPlotSettings
  1

  2
none_device
  4

  6

 40
0.0
 41
0.0
 42
0.0
 43
0.0
 44
0.0
 45
0.0
 46
0.0
 47
0.0
 48
0.0
 49
0.0
140
0.0
141
0.0
142
1.0
143
1.0
 70
688
 72
0
 73
0
 74
5
  7

 75
16
147
1.0
148
0.0
149
0.0
100
AcDbLayout
  1
Layout2
 70
1
 71
2
 10
0.0
 20
0.0
 11
12.0
 21
9.0
 12
0.0
 22
0.0
 32
0.0
 14
0.0
 24
0.0
 34
0.0
 15
0.0
 25
0.0
 35
0.0
146
0.0
 13
0.0
 23
0.0
 33
0.0
 16
1.0
 26
0.0
 36
0.0
 17
0.0
 27
1.0
 37
0.0
 76
0
330
23
  0
DICTIONARY
  5
423
100
AcDbDictionary
281
1
  3
DIMASSOC
350
426
  3
HIDETEXT
350
425
  0
DICTIONARYVAR
  5
425
100
DictionaryVariables
280
0
  1
2
  0
DICTIONARYVAR
  5
426
100
DictionaryVariables
280
0
  1
1
  0
DICTIONARY
  5
424
100
AcDbDictionary
281
1
  3
DimensionSettings/AngularFormat
350
427
  3
DimensionSettings/AngularPrecision
350
428
  3
DimensionSettings/DimensionFont
350
429
  3
DimensionSettings/KeepProportions
350
42A
  3
DimensionSettings/LinearFormat
350
42B
  3
DimensionSettings/LinearPrecision
350
42C
  3
Grid/DisplayGrid00
350
42D
  3
Grid/DisplayGrid01
350
42E
  3
Grid/DisplayGrid02
350
42F
  3
Grid/DisplayGrid03
350
430
  3
Grid/GridSpacingX00
350
431
  3
Grid/GridSpacingX01
350
432
  3
Grid/GridSpacingX02
350
433
  3
Grid/GridSpacingX03
350
434
  3
Grid/GridSpacingY00
350
435
  3
Grid/GridSpacingY01
350
436
  3
Grid/GridSpacingY02
350
437
  3
Grid/GridSpacingY03
350
438
  3
Grid/IsometricGrid00
350
439
  3
Grid/IsometricGrid01
350
43A
  3
Grid/IsometricGrid02
350
43B
  3
Grid/IsometricGrid03
350
43C
  3
Grid/IsometricProjection00
350
43D
  3
Grid/IsometricProjection01
350
43E
  3
Grid/IsometricProjection02
350
43F
  3
Grid/IsometricProjection03
350
440
  3
Grid/MetaGridSpacingX00
350
441
  3
Grid/MetaGridSpacingX01
350
442
  3
Grid/MetaGridSpacingX02
350
443
  3
Grid/MetaGridSpacingX03
350
444
  3
Grid/MetaGridSpacingY00
350
445
  3
Grid/MetaGridSpacingY01
350
446
  3
Grid/MetaGridSpacingY02
350
447
  3
Grid/MetaGridSpacingY03
350
448
  3
MultiPageSettings/Columns
350
449
  3
MultiPageSettings/GlueMarginsBottom
350
44A
  3
MultiPageSettings/GlueMarginsLeft
350
44B
  3
MultiPageSettings/GlueMarginsRight
350
44C
  3
MultiPageSettings/GlueMarginsTop
350
44D
  3
MultiPageSettings/PrintCropMarks
350
44E
  3
MultiPageSettings/Rows
350
44F
  3
PageSettings/OffsetX
350
450
  3
PageSettings/OffsetY
350
451
  3
PageSettings/PageOrientation
350
452
  3
PageSettings/PaperHeight
350
453
  3
PageSettings/PaperWidth
350
454
  3
PageSettings/Scale
350
455
  3
PageSettings/ShowPaperBorders
350
456
  3
UnitSettings/PaperUnit
350
457
  0
XRECORD
  5
427
330
424
100
AcDbXrecord
280
1
 40
0.0
  0
XRECORD
  5
428
330
424
100
AcDbXrecord
280
1
 40
0.0
  0
XRECORD
  5
429
330
424
100
AcDbXrecord
280
1
1000
Standard
  0
XRECORD
  5
42A
330
424
100
AcDbXrecord
280
1
290
0
  0
XRECORD
  5
42B
330
424
100
AcDbXrecord
280
1
 40
2.0
  0
XRECORD
  5
42C
330
424
100
AcDbXrecord
280
1
 40
4.0
  0
XRECORD
  5
42D
330
424
100
AcDbXrecord
280
1
290
1
  0
XRECORD
  5
42E
330
424
100
AcDbXrecord
280
1
290
1
  0
XRECORD
  5
42F
330
424
100
AcDbXrecord
280
1
290
1
  0
XRECORD
  5
430
330
424
100
AcDbXrecord
280
1
290
1
  0
XRECORD
  5
431
330
424
100
AcDbXrecord
280
1
1000
auto
  0
XRECORD
  5
432
330
424
100
AcDbXrecord
280
1
1000
auto
  0
XRECORD
  5
433
330
424
100
AcDbXrecord
280
1
1000
auto
  0
XRECORD
  5
434
330
424
100
AcDbXrecord
280
1
1000
auto
  0
XRECORD
  5
435
330
424
100
AcDbXrecord
280
1
1000
auto
  0
XRECORD
  5
436
330
424
100
AcDbXrecord
280
1
1000
auto
  0
XRECORD
  5
437
330
424
100
AcDbXrecord
280
1
1000
auto
  0
XRECORD
  5
438
330
424
100
AcDbXrecord
280
1
1000
auto
  0
XRECORD
  5
439
330
424
100
AcDbXrecord
280
1
290
0
  0
XRECORD
  5
43A
330
424
100
AcDbXrecord
280
1
290
0
  0
XRECORD
  5
43B
330
424
100
AcDbXrecord
280
1
290
0
  0
XRECORD
  5
43C
330
424
100
AcDbXrecord
280
1
290
0
  0
XRECORD
  5
43D
330
424
100
AcDbXrecord
280
1
 90
0
  0
XRECORD
  5
43E
330
424
100
AcDbXrecord
280
1
 90
0
  0
XRECORD
  5
43F
330
424
100
AcDbXrecord
280
1
 90
0
  0
XRECORD
  5
440
330
424
100
AcDbXrecord
280
1
 90
0
  0
XRECORD
  5
441
330
424
100
AcDbXrecord
280
1
1000
auto
  0
XRECORD
  5
442
330
424
100
AcDbXrecord
280
1
1000
auto
  0
XRECORD
  5
443
330
424
100
AcDbXrecord
280
1
1000
auto
  0
XRECORD
  5
444
330
424
100
AcDbXrecord
280
1
1000
auto
  0
XRECORD
  5
445
330
424
100
AcDbXrecord
280
1
1000
auto
  0
XRECORD
  5
446
330
424
100
AcDbXrecord
280
1
1000
auto
  0
XRECORD
  5
447
330
424
100
AcDbXrecord
280
1
1000
auto
  0
XRECORD
  5
448
330
424
100
AcDbXrecord
280
1
1000
auto
  0
XRECORD
  5
449
330
424
100
AcDbXrecord
280
1
 90
1
  0
XRECORD
  5
44A
330
424
100
AcDbXrecord
280
1
 40
10.0
  0
XRECORD
  5
44B
330
424
100
AcDbXrecord
280
1
 40
10.0
  0
XRECORD
  5
44C
330
424
100
AcDbXrecord
280
1
 40
10.0
  0
XRECORD
  5
44D
330
424
100
AcDbXrecord
280
1
 40
10.0
  0
XRECORD
  5
44E
330
424
100
AcDbXrecord
280
1
290
0
  0
XRECORD
  5
44F
330
424
100
AcDbXrecord
280
1
 90
1
  0
XRECORD
  5
450
330
424
100
AcDbXrecord
280
1
 40
0.0
  0
XRECORD
  5
451
330
424
100
AcDbXrecord
280
1
 40
0.0
  0
XRECORD
  5
452
330
424
100
AcDbXrecord
280
1
1000
Portrait
  0
XRECORD
  5
453
330
424
100
AcDbXrecord
280
1
 40
304.80000000000001
  0
XRECORD
  5
454
330
424
100
AcDbXrecord
280
1
 40
228.59999999999999
  0
XRECORD
  5
455
330
424
100
AcDbXrecord
280
1
1000
1:1
  0
XRECORD
  5
456
330
424
100
AcDbXrecord
280
1
290
1
  0
XRECORD
  5
457
330
424
100
AcDbXrecord
280
1
 90
4
  0
ENDSEC
  0
EOF
