M48
;DRILL file {kicad (after 2015-mar-04 BZR unknown)-product} date 7/25/2016 1:55:12 PM
;FORMAT={-:-/ absolute / inch / decimal}
FMAT,2
INCH,TZ
T1C0.022
T2C0.025
T3C0.032
T4C0.040
%
G90
G05
M72
T1
X0.5213Y-0.7207
T2
X0.2389Y-0.5257
X0.2489Y-0.3457
X0.25Y-1.225
X0.2589Y-0.7257
X0.275Y-0.625
X0.29Y-0.465
X0.2989Y-0.9657
X0.3289Y-0.3857
X0.3489Y-0.6957
X0.3789Y-0.7357
X0.6889Y-0.3357
X0.7Y-0.675
X0.71Y-0.47
X0.7789Y-0.4757
X0.78Y-0.525
X0.825Y-0.1
X0.8289Y-0.7257
X0.8389Y-0.4257
X0.8389Y-0.5757
T3
X1.045Y-1.09
X1.145Y-1.09
T4
X0.075Y-0.075
X0.075Y-0.175
X0.075Y-0.275
X0.075Y-0.375
X0.075Y-0.475
X0.075Y-0.575
X0.075Y-0.675
X0.075Y-0.775
X0.075Y-0.875
X0.075Y-0.975
X0.075Y-1.075
X0.075Y-1.175
X0.075Y-1.275
X0.175Y-0.075
X0.175Y-0.175
X0.175Y-0.275
X0.175Y-0.375
X0.175Y-0.475
X0.175Y-0.575
X0.175Y-0.675
X0.175Y-0.775
X0.175Y-0.875
X0.175Y-0.975
X0.175Y-1.075
X0.175Y-1.175
X0.175Y-1.275
X0.55Y-0.575
X0.65Y-0.575
X1.07Y-0.28
X1.07Y-0.38
X1.07Y-0.48
X1.07Y-0.58
X1.07Y-0.68
X1.17Y-0.28
X1.17Y-0.38
X1.17Y-0.48
X1.17Y-0.58
X1.17Y-0.68
T1
X0.6787Y-0.7207G85X0.6787Y-0.7207
G05
T0
M30
