<?xml version="1.0" encoding="UTF-8"?>
<!DOCTYPE svg PUBLIC "-//W3C//DTD SVG 1.1//EN" "http://www.w3.org/Graphics/SVG/1.1/DTD/svg11.dtd">
<svg version="1.1" xmlns="http://www.w3.org/2000/svg" x="0" y="0" width="450" height="300" viewBox="0 0 450 300">
<style type="text/css">
	.st0{fill:#B3B3B3;stroke:#000;stroke-width:8;stroke-linejoin:round;}
	.st1{fill:#E6E6E6;stroke:#000;stroke-width:4;stroke-linejoin:round;}
	.st2{fill:#FCEE21;stroke:#000;stroke-linejoin:round;}
	.st3{fill:#F2F2F2;stroke:#000;stroke-linejoin:round;}
	.st4{fill:#B3B3B3;stroke:#000;stroke-width:2;stroke-linejoin:round;}
	.st5{font-family:Liberation Sans,Arial;}
	.st6{font-size:48px;}
	.st7{font-size:60px;}
</style>
<g id="usb">
	<path class="st0" d="M69,95.5v34.7c0,3.4,1.4,6.7,4,9l26.4,24.1c2.2,2,5.1,3.2,8.2,3.2h234.9c3,0,5.9-1.1,8.2-3.2l26.4-24.1   c2.5-2.3,4-5.5,4-9V95.5c0-2.7-2.2-4.9-4.9-4.9H73.9C71.2,90.5,69,92.8,69,95.5z"/>
	<rect x="141" y="92.5" class="st1" width="168" height="37"/>
	<path d="M158.5,86.6h-13.3c-1,0-1.9-0.8-1.9-1.9v-0.3c0-1,0.8-1.9,1.9-1.9h13.3c1,0,1.9,0.8,1.9,1.9v0.3   C160.4,85.8,159.6,86.6,158.5,86.6z"/>
	<path d="M231.6,86.6h-13.3c-1,0-1.9-0.8-1.9-1.9v-0.3c0-1,0.8-1.9,1.9-1.9h13.3c1,0,1.9,0.8,1.9,1.9v0.3   C233.5,85.8,232.7,86.6,231.6,86.6z"/>
	<path d="M309.5,86.6h-13.3c-1,0-1.9-0.8-1.9-1.9v-0.3c0-1,0.8-1.9,1.9-1.9h13.3c1,0,1.9,0.8,1.9,1.9v0.3   C311.4,85.8,310.6,86.6,309.5,86.6z"/>
	<g id="pins">
		<rect x="221.5" y="115" class="st2" width="7" height="25"/>
		<rect x="190.9" y="115" class="st2" width="7" height="25"/>
		<rect x="160.3" y="115" class="st2" width="7" height="25"/>
		<rect x="252.1" y="115" class="st2" width="7" height="25"/>
		<rect x="282.7" y="115" class="st2" width="7" height="25"/>
		<rect x="160.3" y="140" class="st3" width="7" height="10"/>
		<rect x="190.9" y="140" class="st3" width="7" height="10"/>
		<rect x="221.5" y="140" class="st3" width="7" height="10"/>
		<rect x="252.1" y="140" class="st3" width="7" height="10"/>
		<rect x="282.7" y="140" class="st3" width="7" height="10"/>
	</g>
	<rect x="108.1" y="62.6" class="st4" width="18" height="25"/>
	<rect x="323.9" y="62.6" class="st4" width="18" height="25"/>
</g>
<g id="text">
	<text transform="matrix(1 0 0 1 150 71)" class="st5 st6">5</text>
	<text transform="matrix(1 0 0 1 181 71)" class="st5 st6">4</text>
	<text transform="matrix(1 0 0 1 122 261)" class="st5 st7">Micro-B</text>
	<text transform="matrix(1 0 0 1 211 71)" class="st5 st6">3</text>
	<text transform="matrix(1 0 0 1 242 71)" class="st5 st6">2</text>
	<text transform="matrix(1 0 0 1 273 71)" class="st5 st6">1</text>
</g>
</svg>