G04 #@! TF.FileFunction,Soldermask,Top*
%FSLAX46Y46*%
G04 Gerber Fmt 4.6, Leading zero omitted, Abs format (unit mm)*
G04 Created by KiCad (PCBNEW (after 2015-mar-04 BZR unknown)-product) date 10/16/2015 4:42:27 PM*
%MOMM*%
G01*
G04 APERTURE LIST*
%ADD10C,0.150000*%
%ADD11R,2.540000X2.540000*%
%ADD12O,2.540000X2.540000*%
%ADD13R,1.808000X2.008000*%
%ADD14R,2.008000X1.808000*%
%ADD15C,6.858000*%
%ADD16R,2.540000X2.235200*%
%ADD17O,2.540000X2.235200*%
%ADD18R,1.958000X0.958000*%
%ADD19R,2.008000X1.758000*%
G04 APERTURE END LIST*
D10*
D11*
X36068000Y-44069000D03*
D12*
X36068000Y-46609000D03*
D13*
X22733000Y-46689000D03*
X22733000Y-43989000D03*
X30988000Y-46689000D03*
X30988000Y-43989000D03*
X39243000Y-46689000D03*
X39243000Y-43989000D03*
D14*
X22780000Y-17780000D03*
X25480000Y-17780000D03*
X22780000Y-10160000D03*
X25480000Y-10160000D03*
D15*
X4000000Y-45000000D03*
X4000000Y-4000000D03*
X45000000Y-45000000D03*
X45000000Y-4000000D03*
D11*
X19558000Y-44069000D03*
D12*
X19558000Y-46609000D03*
D11*
X27813000Y-44069000D03*
D12*
X27813000Y-46609000D03*
D11*
X25400000Y-12700000D03*
D12*
X22860000Y-12700000D03*
D11*
X25400000Y-15240000D03*
D12*
X22860000Y-15240000D03*
D16*
X11430000Y-20320000D03*
D17*
X11430000Y-17780000D03*
X11430000Y-15240000D03*
X11430000Y-12700000D03*
X11430000Y-10160000D03*
D16*
X11430000Y-36830000D03*
D17*
X11430000Y-34290000D03*
X11430000Y-31750000D03*
X11430000Y-29210000D03*
X11430000Y-26670000D03*
D18*
X24470000Y-25695000D03*
X24470000Y-26345000D03*
X24470000Y-26995000D03*
X24470000Y-27645000D03*
X28870000Y-27645000D03*
X28870000Y-26995000D03*
X28870000Y-26345000D03*
X28870000Y-25695000D03*
D14*
X25607000Y-21844000D03*
X22907000Y-21844000D03*
D19*
X27666000Y-31750000D03*
X25166000Y-31750000D03*
M02*
