%TF.GenerationSoftware,KiCad,Pcbnew,(6.0.1)*%
%TF.CreationDate,2022-10-17T21:35:44-04:00*%
%TF.ProjectId,ER-MIXER5-01,45522d4d-4958-4455-9235-2d30312e6b69,1*%
%TF.SameCoordinates,Original*%
%TF.FileFunction,Copper,L1,Top*%
%TF.FilePolarity,Positive*%
%FSLAX46Y46*%
G04 Gerber Fmt 4.6, Leading zero omitted, Abs format (unit mm)*
G04 Created by KiCad (PCBNEW (6.0.1)) date 2022-10-17 21:35:44*
%MOMM*%
%LPD*%
G01*
G04 APERTURE LIST*
G04 Aperture macros list*
%AMRoundRect*
0 Rectangle with rounded corners*
0 $1 Rounding radius*
0 $2 $3 $4 $5 $6 $7 $8 $9 X,Y pos of 4 corners*
0 Add a 4 corners polygon primitive as box body*
4,1,4,$2,$3,$4,$5,$6,$7,$8,$9,$2,$3,0*
0 Add four circle primitives for the rounded corners*
1,1,$1+$1,$2,$3*
1,1,$1+$1,$4,$5*
1,1,$1+$1,$6,$7*
1,1,$1+$1,$8,$9*
0 Add four rect primitives between the rounded corners*
20,1,$1+$1,$2,$3,$4,$5,0*
20,1,$1+$1,$4,$5,$6,$7,0*
20,1,$1+$1,$6,$7,$8,$9,0*
20,1,$1+$1,$8,$9,$2,$3,0*%
G04 Aperture macros list end*
%TA.AperFunction,WasherPad*%
%ADD10C,4.000000*%
%TD*%
%TA.AperFunction,ComponentPad*%
%ADD11C,1.800000*%
%TD*%
%TA.AperFunction,ComponentPad*%
%ADD12C,1.400000*%
%TD*%
%TA.AperFunction,ComponentPad*%
%ADD13O,1.400000X1.400000*%
%TD*%
%TA.AperFunction,ComponentPad*%
%ADD14O,4.500000X3.000000*%
%TD*%
%TA.AperFunction,ComponentPad*%
%ADD15O,3.800000X3.000000*%
%TD*%
%TA.AperFunction,ComponentPad*%
%ADD16O,2.000000X4.000000*%
%TD*%
%TA.AperFunction,ComponentPad*%
%ADD17R,1.600000X1.600000*%
%TD*%
%TA.AperFunction,ComponentPad*%
%ADD18C,1.600000*%
%TD*%
%TA.AperFunction,ComponentPad*%
%ADD19RoundRect,0.250000X-0.600000X0.600000X-0.600000X-0.600000X0.600000X-0.600000X0.600000X0.600000X0*%
%TD*%
%TA.AperFunction,ComponentPad*%
%ADD20C,1.700000*%
%TD*%
%TA.AperFunction,ComponentPad*%
%ADD21O,1.600000X1.600000*%
%TD*%
%TA.AperFunction,ViaPad*%
%ADD22C,0.800000*%
%TD*%
%TA.AperFunction,Conductor*%
%ADD23C,0.304800*%
%TD*%
%TA.AperFunction,Conductor*%
%ADD24C,0.250000*%
%TD*%
G04 APERTURE END LIST*
D10*
%TO.P,RV5,*%
%TO.N,*%
X13000000Y-58550000D03*
X4200000Y-58550000D03*
D11*
%TO.P,RV5,1,1*%
%TO.N,/VI_4*%
X11100000Y-65550000D03*
%TO.P,RV5,2,2*%
%TO.N,/POTWIPER_4*%
X8600000Y-65550000D03*
%TO.P,RV5,3,3*%
%TO.N,GND*%
X6100000Y-65550000D03*
%TD*%
D12*
%TO.P,R4,1*%
%TO.N,/POTWIPER_4*%
X14780000Y-65500000D03*
D13*
%TO.P,R4,2*%
%TO.N,/VSUM*%
X17320000Y-65500000D03*
%TD*%
D10*
%TO.P,RV1,*%
%TO.N,*%
X13000000Y-87550000D03*
X4200000Y-87550000D03*
D11*
%TO.P,RV1,1,1*%
%TO.N,unconnected-(RV1-Pad1)*%
X11100000Y-94550000D03*
%TO.P,RV1,2,2*%
%TO.N,/VOL2*%
X8600000Y-94550000D03*
%TO.P,RV1,3,3*%
%TO.N,/VOL1*%
X6100000Y-94550000D03*
%TD*%
D10*
%TO.P,RV3,*%
%TO.N,*%
X4200000Y-29550000D03*
X13000000Y-29550000D03*
D11*
%TO.P,RV3,1,1*%
%TO.N,/VI_2*%
X11100000Y-36550000D03*
%TO.P,RV3,2,2*%
%TO.N,/POTWIPER_2*%
X8600000Y-36550000D03*
%TO.P,RV3,3,3*%
%TO.N,GND*%
X6100000Y-36550000D03*
%TD*%
D10*
%TO.P,RV6,*%
%TO.N,*%
X4200000Y-73050000D03*
X13000000Y-73050000D03*
D11*
%TO.P,RV6,1,1*%
%TO.N,/VI_5*%
X11100000Y-80050000D03*
%TO.P,RV6,2,2*%
%TO.N,/POTWIPER_5*%
X8600000Y-80050000D03*
%TO.P,RV6,3,3*%
%TO.N,GND*%
X6100000Y-80050000D03*
%TD*%
D14*
%TO.P,J5,S*%
%TO.N,GND*%
X23200000Y-63200000D03*
D15*
X23200000Y-53800000D03*
D16*
%TO.P,J5,T*%
%TO.N,/VI_4*%
X17800000Y-58500000D03*
%TO.P,J5,TN*%
%TO.N,GND*%
X25900000Y-58500000D03*
%TD*%
D14*
%TO.P,J6,S*%
%TO.N,GND*%
X23200000Y-77700000D03*
D15*
X23200000Y-68300000D03*
D16*
%TO.P,J6,T*%
%TO.N,/VI_5*%
X17800000Y-73000000D03*
%TO.P,J6,TN*%
%TO.N,GND*%
X25900000Y-73000000D03*
%TD*%
D12*
%TO.P,R10,1*%
%TO.N,/VO*%
X15000000Y-93220000D03*
D13*
%TO.P,R10,2*%
%TO.N,/OUT*%
X15000000Y-90680000D03*
%TD*%
D17*
%TO.P,C3,1*%
%TO.N,+12V*%
X24384000Y-102500000D03*
D18*
%TO.P,C3,2*%
%TO.N,GND*%
X26884000Y-102500000D03*
%TD*%
D12*
%TO.P,R7,1*%
%TO.N,/VSUM*%
X21580000Y-97800000D03*
D13*
%TO.P,R7,2*%
%TO.N,Net-(R7-Pad2)*%
X24120000Y-97800000D03*
%TD*%
D18*
%TO.P,C1,1*%
%TO.N,+12V*%
X27100000Y-107250000D03*
%TO.P,C1,2*%
%TO.N,GND*%
X27100000Y-109750000D03*
%TD*%
D12*
%TO.P,R5,1*%
%TO.N,/POTWIPER_5*%
X15280000Y-80000000D03*
D13*
%TO.P,R5,2*%
%TO.N,/VSUM*%
X17820000Y-80000000D03*
%TD*%
D14*
%TO.P,J2,S*%
%TO.N,GND*%
X23200000Y-19700000D03*
D15*
X23200000Y-10300000D03*
D16*
%TO.P,J2,T*%
%TO.N,/VI_1*%
X17800000Y-15000000D03*
%TO.P,J2,TN*%
%TO.N,GND*%
X25900000Y-15000000D03*
%TD*%
D15*
%TO.P,J1,S*%
%TO.N,GND*%
X23200000Y-82800000D03*
D14*
X23200000Y-92200000D03*
D16*
%TO.P,J1,T*%
%TO.N,/OUT*%
X17800000Y-87500000D03*
%TO.P,J1,TN*%
%TO.N,unconnected-(J1-PadTN)*%
X25900000Y-87500000D03*
%TD*%
D18*
%TO.P,C2,1*%
%TO.N,GND*%
X3100000Y-107250000D03*
%TO.P,C2,2*%
%TO.N,-12V*%
X3100000Y-109750000D03*
%TD*%
D12*
%TO.P,R8,1*%
%TO.N,Net-(R7-Pad2)*%
X24220000Y-95400000D03*
D13*
%TO.P,R8,2*%
%TO.N,/VOL2*%
X21680000Y-95400000D03*
%TD*%
D12*
%TO.P,R3,1*%
%TO.N,/POTWIPER_3*%
X14780000Y-51000000D03*
D13*
%TO.P,R3,2*%
%TO.N,/VSUM*%
X17320000Y-51000000D03*
%TD*%
D12*
%TO.P,R9,1*%
%TO.N,/VOL1*%
X13512000Y-97536000D03*
D13*
%TO.P,R9,2*%
%TO.N,/VO*%
X16052000Y-97536000D03*
%TD*%
D14*
%TO.P,J4,S*%
%TO.N,GND*%
X23200000Y-48700000D03*
D15*
X23200000Y-39300000D03*
D16*
%TO.P,J4,T*%
%TO.N,/VI_3*%
X17800000Y-44000000D03*
%TO.P,J4,TN*%
%TO.N,GND*%
X25900000Y-44000000D03*
%TD*%
D10*
%TO.P,RV2,*%
%TO.N,*%
X13000000Y-15050000D03*
X4200000Y-15050000D03*
D11*
%TO.P,RV2,1,1*%
%TO.N,/VI_1*%
X11100000Y-22050000D03*
%TO.P,RV2,2,2*%
%TO.N,/POTWIPER_1*%
X8600000Y-22050000D03*
%TO.P,RV2,3,3*%
%TO.N,GND*%
X6100000Y-22050000D03*
%TD*%
D12*
%TO.P,R1,1*%
%TO.N,/POTWIPER_1*%
X14780000Y-22000000D03*
D13*
%TO.P,R1,2*%
%TO.N,/VSUM*%
X17320000Y-22000000D03*
%TD*%
D10*
%TO.P,RV4,*%
%TO.N,*%
X13000000Y-44050000D03*
X4200000Y-44050000D03*
D11*
%TO.P,RV4,1,1*%
%TO.N,/VI_3*%
X11100000Y-51050000D03*
%TO.P,RV4,2,2*%
%TO.N,/POTWIPER_3*%
X8600000Y-51050000D03*
%TO.P,RV4,3,3*%
%TO.N,GND*%
X6100000Y-51050000D03*
%TD*%
D12*
%TO.P,R2,1*%
%TO.N,/POTWIPER_2*%
X14780000Y-36500000D03*
D13*
%TO.P,R2,2*%
%TO.N,/VSUM*%
X17320000Y-36500000D03*
%TD*%
D18*
%TO.P,C5,1*%
%TO.N,/VO*%
X18600001Y-94750001D03*
%TO.P,C5,2*%
%TO.N,/VOL2*%
X18600001Y-97250001D03*
%TD*%
D17*
%TO.P,C4,1*%
%TO.N,GND*%
X3394888Y-102500000D03*
D18*
%TO.P,C4,2*%
%TO.N,-12V*%
X5894888Y-102500000D03*
%TD*%
D15*
%TO.P,J3,S*%
%TO.N,GND*%
X23200000Y-24800000D03*
D14*
X23200000Y-34200000D03*
D16*
%TO.P,J3,T*%
%TO.N,/VI_2*%
X17800000Y-29500000D03*
%TO.P,J3,TN*%
%TO.N,GND*%
X25900000Y-29500000D03*
%TD*%
D19*
%TO.P,J8,1,Pin_1*%
%TO.N,-12V*%
X10020000Y-114247500D03*
D20*
%TO.P,J8,2,Pin_2*%
X10020000Y-116787500D03*
%TO.P,J8,3,Pin_3*%
%TO.N,GND*%
X12560000Y-114247500D03*
%TO.P,J8,4,Pin_4*%
X12560000Y-116787500D03*
%TO.P,J8,5,Pin_5*%
X15100000Y-114247500D03*
%TO.P,J8,6,Pin_6*%
X15100000Y-116787500D03*
%TO.P,J8,7,Pin_7*%
X17640000Y-114247500D03*
%TO.P,J8,8,Pin_8*%
X17640000Y-116787500D03*
%TO.P,J8,9,Pin_9*%
%TO.N,+12V*%
X20180000Y-114247500D03*
%TO.P,J8,10,Pin_10*%
X20180000Y-116787500D03*
%TD*%
D17*
%TO.P,U1,1*%
%TO.N,Net-(R7-Pad2)*%
X18900000Y-108300012D03*
D21*
%TO.P,U1,2,-*%
%TO.N,/VSUM*%
X16360000Y-108300012D03*
%TO.P,U1,3,+*%
%TO.N,GND*%
X13820000Y-108300012D03*
%TO.P,U1,4,V-*%
%TO.N,-12V*%
X11280000Y-108300012D03*
%TO.P,U1,5,+*%
%TO.N,GND*%
X11280000Y-100680012D03*
%TO.P,U1,6,-*%
%TO.N,/VOL2*%
X13820000Y-100680012D03*
%TO.P,U1,7*%
%TO.N,/VO*%
X16360000Y-100680012D03*
%TO.P,U1,8,V+*%
%TO.N,+12V*%
X18900000Y-100680012D03*
%TD*%
D22*
%TO.N,/VSUM*%
X20066000Y-93726000D03*
%TD*%
D23*
%TO.N,+12V*%
X20719988Y-102500000D02*
X18900000Y-100680012D01*
X24384000Y-102500000D02*
X20719988Y-102500000D01*
D24*
X20180000Y-114247500D02*
X27100000Y-107327500D01*
X20180000Y-116787500D02*
X20180000Y-114247500D01*
D23*
X24384000Y-104534000D02*
X27100000Y-107250000D01*
X24384000Y-102500000D02*
X24384000Y-104534000D01*
D24*
%TO.N,-12V*%
X10000000Y-111500000D02*
X10000000Y-114227500D01*
X11280000Y-108300000D02*
X11280000Y-110220000D01*
X10020000Y-114247500D02*
X10020000Y-116787500D01*
X9830000Y-109750000D02*
X11280000Y-108300000D01*
X3100000Y-109750000D02*
X9830000Y-109750000D01*
X11280000Y-110220000D02*
X10000000Y-111500000D01*
%TO.N,/VOL2*%
X17000000Y-99000000D02*
X17000000Y-98850000D01*
X15500000Y-99000000D02*
X17000000Y-99000000D01*
X17000000Y-98850000D02*
X18600000Y-97250000D01*
D23*
X19830000Y-97250000D02*
X18600000Y-97250000D01*
X21680000Y-95400000D02*
X19830000Y-97250000D01*
D24*
X13820000Y-100680000D02*
X15500000Y-99000000D01*
%TO.N,/VOL1*%
X6100000Y-94550000D02*
X6100000Y-96016000D01*
X6100000Y-96016000D02*
X7620000Y-97536000D01*
X7620000Y-97536000D02*
X13512000Y-97536000D01*
%TO.N,/VSUM*%
X19812000Y-78008000D02*
X17820000Y-80000000D01*
X19812000Y-51054000D02*
X19812000Y-65532000D01*
X17320000Y-51000000D02*
X19758000Y-51000000D01*
X17820000Y-80000000D02*
X20066000Y-82246000D01*
X17320000Y-65500000D02*
X19780000Y-65500000D01*
X17320000Y-22000000D02*
X19812000Y-24492000D01*
X20066000Y-82246000D02*
X20066000Y-93726000D01*
X19812000Y-36576000D02*
X19812000Y-51054000D01*
X19812000Y-65532000D02*
X19812000Y-78008000D01*
X17320000Y-36500000D02*
X19736000Y-36500000D01*
X19780000Y-65500000D02*
X19812000Y-65532000D01*
X19812000Y-24492000D02*
X19812000Y-36576000D01*
X19758000Y-51000000D02*
X19812000Y-51054000D01*
X19736000Y-36500000D02*
X19812000Y-36576000D01*
%TD*%
M02*
