<?xml version="1.0" encoding="UTF-8"?>
<!DOCTYPE svg PUBLIC "-//W3C//DTD SVG 1.1//EN" "http://www.w3.org/Graphics/SVG/1.1/DTD/svg11.dtd">
<svg version="1.1" xmlns="http://www.w3.org/2000/svg" xmlns:xlink="http://www.w3.org/1999/xlink" x="0" y="0" width="1075.036" height="464.468" viewBox="0, 0, 1075.036, 464.468">
  <g id="Layer_1">
    <path d="M1013.129,173.874 L1043.722,173.874" fill-opacity="0" stroke="#626262" stroke-width="3"/>
    <g>
      <path d="M871.222,173.874 L913.622,173.874" fill-opacity="0" stroke="#626262" stroke-width="3"/>
      <path d="M913.622,178.074 L924.822,173.874 L913.622,169.674 z" fill="#626262" fill-opacity="1" stroke="#626262" stroke-width="3" stroke-opacity="1"/>
    </g>
    <g>
      <path d="M562.029,173.374 L626.335,173.374" fill-opacity="0" stroke="#626262" stroke-width="3"/>
      <path d="M626.335,177.574 L637.535,173.374 L626.335,169.174 z" fill="#626262" fill-opacity="1" stroke="#626262" stroke-width="3" stroke-opacity="1"/>
    </g>
    <g>
      <path d="M542.129,288.374 L542.129,236.974" fill-opacity="0" stroke="#626262" stroke-width="3"/>
      <path d="M546.329,236.974 L542.129,225.774 L537.929,236.974 z" fill="#626262" fill-opacity="1" stroke="#626262" stroke-width="3" stroke-opacity="1"/>
    </g>
    <g>
      <path d="M497.129,123.374 L587.129,123.374 L587.129,223.374 L497.129,223.374 L497.129,123.374 z" fill="#DBDBDB" fill-opacity="0.968"/>
      <path d="M497.129,123.374 L587.129,123.374 L587.129,223.374 L497.129,223.374 L497.129,123.374 z" fill-opacity="0" stroke="#474545" stroke-width="2"/>
    </g>
    <g>
      <path d="M497.129,279.374 L587.129,279.374 L587.129,379.374 L497.129,379.374 L497.129,279.374 z" fill="#DBDBDB" fill-opacity="0.968"/>
      <path d="M497.129,279.374 L587.129,279.374 L587.129,379.374 L497.129,379.374 L497.129,279.374 z" fill-opacity="0" stroke="#474545" stroke-width="2"/>
    </g>
    <g>
      <path d="M642.129,123.374 L732.129,123.374 L732.129,223.374 L642.129,223.374 L642.129,123.374 z" fill="#DBDBDB" fill-opacity="0.968"/>
      <path d="M642.129,123.374 L732.129,123.374 L732.129,223.374 L642.129,223.374 L642.129,123.374 z" fill-opacity="0" stroke="#474545" stroke-width="2"/>
    </g>
    <g>
      <path d="M434.629,171.874 L483.529,171.874" fill-opacity="0" stroke="#626262" stroke-width="3"/>
      <path d="M483.529,176.074 L494.729,171.874 L483.529,167.674 z" fill="#626262" fill-opacity="1" stroke="#626262" stroke-width="3" stroke-opacity="1"/>
    </g>
    <g>
      <path d="M732.129,170.374 L774.529,170.374" fill-opacity="0" stroke="#626262" stroke-width="3"/>
      <path d="M774.529,174.574 L785.729,170.374 L774.529,166.174 z" fill="#626262" fill-opacity="1" stroke="#626262" stroke-width="3" stroke-opacity="1"/>
    </g>
    <text transform="matrix(1, 0, 0, 1, 541.629, 329.374)">
      <tspan x="-36.3" y="-21.5" font-family="Avenir-Medium" font-size="20" fill="#656565">Variable </tspan>
      <tspan x="-23.54" y="5.5" font-family="Avenir-Medium" font-size="20" fill="#656565">Local</tspan>
      <tspan x="-43.31" y="32.5" font-family="Avenir-Medium" font-size="20" fill="#656565">Oscillator</tspan>
    </text>
    <g>
      <path d="M258.942,288.374 L258.942,236.974" fill-opacity="0" stroke="#626262" stroke-width="3"/>
      <path d="M263.142,236.974 L258.942,225.774 L254.742,236.974 z" fill="#626262" fill-opacity="1" stroke="#626262" stroke-width="3" stroke-opacity="1"/>
    </g>
    <g>
      <path d="M213.942,279.374 L303.942,279.374 L303.942,379.374 L213.942,379.374 L213.942,279.374 z" fill="#DBDBDB" fill-opacity="0.968"/>
      <path d="M213.942,279.374 L303.942,279.374 L303.942,379.374 L213.942,379.374 L213.942,279.374 z" fill-opacity="0" stroke="#474545" stroke-width="2"/>
    </g>
    <text transform="matrix(1, 0, 0, 1, 258.442, 332.874)">
      <tspan x="-31.47" y="-12" font-family="Avenir-Medium" font-size="20" fill="#656565">Crystal</tspan>
      <tspan x="-43.31" y="15" font-family="Avenir-Medium" font-size="20" fill="#656565">Oscillator</tspan>
    </text>
    <text transform="matrix(1, 0, 0, 1, 541.629, 177.428)">
      <tspan x="-17.23" y="-8" font-family="Avenir-Medium" font-size="20" fill="#656565">2nd </tspan>
      <tspan x="-25.91" y="19" font-family="Avenir-Medium" font-size="20" fill="#656565">Mixer</tspan>
    </text>
    <text transform="matrix(1, 0, 0, 1, 686.629, 176.874)">
      <tspan x="-32.97" y="-8" font-family="Avenir-Medium" font-size="20" fill="#656565">IF Amp</tspan>
      <tspan x="-33.5" y="19" font-family="Avenir-Medium" font-size="20" fill="#656565">&amp; Filter</tspan>
    </text>
    <g>
      <path d="M355.535,124.874 L445.535,124.874 L445.535,224.874 L355.535,224.874 L355.535,124.874 z" fill="#DBDBDB" fill-opacity="0.968"/>
      <path d="M355.535,124.874 L445.535,124.874 L445.535,224.874 L355.535,224.874 L355.535,124.874 z" fill-opacity="0" stroke="#474545" stroke-width="2"/>
    </g>
    <text transform="matrix(1, 0, 0, 1, 400.035, 172.874)">
      <tspan x="-43.34" y="-8.883" font-family="Avenir-Medium" font-size="20" fill="#656565">Bandpass </tspan>
      <tspan x="-21.09" y="18.117" font-family="Avenir-Medium" font-size="20" fill="#656565">filter</tspan>
    </text>
    <g>
      <path d="M293.036,171.874 L341.936,171.874" fill-opacity="0" stroke="#626262" stroke-width="3"/>
      <path d="M341.936,176.074 L353.136,171.874 L341.936,167.674 z" fill="#626262" fill-opacity="1" stroke="#626262" stroke-width="3" stroke-opacity="1"/>
    </g>
    <g>
      <path d="M213.942,124.874 L303.942,124.874 L303.942,224.874 L213.942,224.874 L213.942,124.874 z" fill="#DBDBDB" fill-opacity="0.968"/>
      <path d="M213.942,124.874 L303.942,124.874 L303.942,224.874 L213.942,224.874 L213.942,124.874 z" fill-opacity="0" stroke="#474545" stroke-width="2"/>
    </g>
    <text transform="matrix(1, 0, 0, 1, 258.442, 176.874)">
      <tspan x="-13.7" y="-14.637" font-family="Avenir-Medium" font-size="20" fill="#656565">1st </tspan>
      <tspan x="-25.91" y="12.363" font-family="Avenir-Medium" font-size="20" fill="#656565">Mixer</tspan>
    </text>
    <g>
      <path d="M151.442,170.874 L200.342,170.874" fill-opacity="0" stroke="#626262" stroke-width="3"/>
      <path d="M200.342,175.074 L211.542,170.874 L200.342,166.674 z" fill="#626262" fill-opacity="1" stroke="#626262" stroke-width="3" stroke-opacity="1"/>
    </g>
    <g>
      <path d="M72.349,123.874 L162.349,123.874 L162.349,223.874 L72.349,223.874 L72.349,123.874 z" fill="#DBDBDB" fill-opacity="0.968"/>
      <path d="M72.349,123.874 L162.349,123.874 L162.349,223.874 L72.349,223.874 L72.349,123.874 z" fill-opacity="0" stroke="#474545" stroke-width="2"/>
    </g>
    <text transform="matrix(1, 0, 0, 1, 116.849, 177.428)">
      <tspan x="-11.85" y="-25.946" font-family="Avenir-Medium" font-size="20" fill="#656565">RF </tspan>
      <tspan x="-39.61" y="1.054" font-family="Avenir-Medium" font-size="20" fill="#656565">amplifier </tspan>
      <tspan x="-38.89" y="28.054" font-family="Avenir-Medium" font-size="20" fill="#656565">&amp; tuning</tspan>
    </text>
    <g>
      <path d="M788.129,123.374 L878.129,123.374 L878.129,223.374 L788.129,223.374 L788.129,123.374 z" fill="#DBDBDB" fill-opacity="0.968"/>
      <path d="M788.129,123.374 L878.129,123.374 L878.129,223.374 L788.129,223.374 L788.129,123.374 z" fill-opacity="0" stroke="#474545" stroke-width="2"/>
    </g>
    <text transform="matrix(1, 0, 0, 1, 832.629, 176.874)">
      <tspan x="-36.7" y="-8" font-family="Avenir-Medium" font-size="20" fill="#656565">Demod-</tspan>
      <tspan x="-26.49" y="19" font-family="Avenir-Medium" font-size="20" fill="#656565">ulator</tspan>
    </text>
    <g>
      <path d="M930.035,123.374 L1020.035,123.374 L1020.035,223.374 L930.035,223.374 L930.035,123.374 z" fill="#DBDBDB" fill-opacity="0.968"/>
      <path d="M930.035,123.374 L1020.035,123.374 L1020.035,223.374 L930.035,223.374 L930.035,123.374 z" fill-opacity="0" stroke="#474545" stroke-width="2"/>
    </g>
    <text transform="matrix(1, 0, 0, 1, 974.942, 182.374)">
      <tspan x="-27.05" y="-13.5" font-family="Avenir-Medium" font-size="20" fill="#656565">Audio</tspan>
      <tspan x="-41.46" y="13.5" font-family="Avenir-Medium" font-size="20" fill="#656565">Amplifier</tspan>
    </text>
    <g>
      <path d="M72.347,142.737 L22.167,142.737" fill-opacity="0" stroke="#000000" stroke-width="2"/>
      <g>
        <path d="M22.168,142.737 L22.168,59.404" fill-opacity="0" stroke="#000000" stroke-width="2"/>
        <path d="M22.168,94.737 L35.501,64.737" fill-opacity="0" stroke="#000000" stroke-width="2"/>
        <path d="M22.168,94.737 L10.168,64.737" fill-opacity="0" stroke="#000000" stroke-width="2"/>
      </g>
    </g>
    <g>
      <path d="M72.347,205.929 L22.167,205.929" fill-opacity="0" stroke="#000000" stroke-width="2"/>
      <g>
        <path d="M22.167,205.928 L22.167,244.303" fill-opacity="0" stroke="#000000" stroke-width="2"/>
        <path d="M40.167,244.303 L5.5,244.303" fill-opacity="0" stroke="#000000" stroke-width="2"/>
        <path d="M35.5,250.382 L11.264,250.382" fill-opacity="0" stroke="#000000" stroke-width="2"/>
        <path d="M30.889,256.382 L15.514,256.382" fill-opacity="0" stroke="#000000" stroke-width="2"/>
        <path d="M25.514,261.882 L20.139,261.882" fill-opacity="0" stroke="#000000" stroke-width="2"/>
      </g>
    </g>
    <g>
      <g>
        <path d="M1043.72,155.279 L1057.72,155.279 L1057.72,191.654 L1043.72,191.654 L1043.72,155.279 z" fill="#DBDBDB" fill-opacity="0.968"/>
        <path d="M1043.72,155.279 L1057.72,155.279 L1057.72,191.654 L1043.72,191.654 L1043.72,155.279 z" fill-opacity="0" stroke="#474545" stroke-width="2"/>
      </g>
      <g>
        <path d="M1057.72,155.279 L1070.536,143.249 L1070.536,203.499 L1057.72,190.683" fill="#DCDCDC"/>
        <path d="M1057.72,155.279 L1070.536,143.249 L1070.536,203.499 L1057.72,190.683" fill-opacity="0" stroke="#474545" stroke-width="2"/>
      </g>
    </g>
    <g>
      <path d="M832.179,279.374 C818.267,259.803 724.171,265.814 694.794,238.118" fill-opacity="0" stroke="#A3A3A3" stroke-width="4"/>
      <path d="M694.794,238.118 L700.559,237.918 L689.195,230.32 L692.761,243.517 z" fill="#A3A3A3" fill-opacity="1" stroke="#A3A3A3" stroke-width="4" stroke-opacity="1"/>
    </g>
    <g>
      <path d="M537.929,66.749 C524.017,86.32 429.921,80.309 400.544,108.005" fill-opacity="0" stroke="#A3A3A3" stroke-width="4"/>
      <path d="M400.544,108.005 L398.511,102.606 L394.945,115.803 L406.309,108.205 z" fill="#A3A3A3" fill-opacity="1" stroke="#A3A3A3" stroke-width="4" stroke-opacity="1"/>
    </g>
    <text transform="matrix(1, 0, 0, 1, 849.711, 325.437)">
      <tspan x="-127.368" y="-29.437" font-family="Avenir-Medium" font-size="24" fill="#656565">Intermediate frequency</tspan>
      <tspan x="-95.328" y="3.563" font-family="Avenir-Medium" font-size="24" fill="#656565">typically between</tspan>
      <tspan x="-79.38" y="36.563" font-family="Avenir-Medium" font-size="24" fill="#656565">455 &amp; 470 kHz</tspan>
    </text>
    <text transform="matrix(1, 0, 0, 1, 579.953, 45.437)">
      <tspan x="-128.412" y="-21.437" font-family="Avenir-Medium" font-size="24" fill="#656565">Bandpass filter typically </tspan>
      <tspan x="-85.824" y="11.563" font-family="Avenir-Medium" font-size="24" fill="#656565">5.00 - 5.50 MHz</tspan>
    </text>
    <path d="M355.535,412.937 L405.349,412.937" fill-opacity="0" stroke="#000000" stroke-width="2" stroke-dasharray="6,4"/>
    <path d="M363.562,359.374 L396.562,359.134" fill-opacity="0" stroke="#000000" stroke-width="2" stroke-dasharray="6,4"/>
    <path d="M376.349,318.937 C373.036,318.937 370.349,316.251 370.349,312.937 C370.349,309.623 373.036,306.937 376.349,306.937 C379.663,306.937 382.349,309.623 382.349,312.937 C382.349,316.251 379.663,318.937 376.349,318.937 z" fill-opacity="0" stroke="#000000" stroke-width="2"/>
    <g>
      <path d="M428.629,459.968 C426.788,459.968 425.296,458.475 425.296,456.634 C425.296,454.793 426.788,453.301 428.629,453.301 C430.47,453.301 431.962,454.793 431.962,456.634 C431.962,458.475 430.47,459.968 428.629,459.968 z" fill="#000000"/>
      <path d="M428.629,459.968 C426.788,459.968 425.296,458.475 425.296,456.634 C425.296,454.793 426.788,453.301 428.629,453.301 C430.47,453.301 431.962,454.793 431.962,456.634 C431.962,458.475 430.47,459.968 428.629,459.968 z" fill-opacity="0" stroke="#000000" stroke-width="2"/>
    </g>
    <g>
      <path d="M330.654,459.968 C328.813,459.968 327.32,458.475 327.32,456.634 C327.32,454.793 328.813,453.301 330.654,453.301 C332.495,453.301 333.987,454.793 333.987,456.634 C333.987,458.475 332.495,459.968 330.654,459.968 z" fill="#000000"/>
      <path d="M330.654,459.968 C328.813,459.968 327.32,458.475 327.32,456.634 C327.32,454.793 328.813,453.301 330.654,453.301 C332.495,453.301 333.987,454.793 333.987,456.634 C333.987,458.475 332.495,459.968 330.654,459.968 z" fill-opacity="0" stroke="#000000" stroke-width="2"/>
    </g>
    <path d="M428.629,365.374 C425.315,365.374 422.629,362.688 422.629,359.374 C422.629,356.06 425.315,353.374 428.629,353.374 C431.943,353.374 434.629,356.06 434.629,359.374 C434.629,362.688 431.943,365.374 428.629,365.374 z" fill-opacity="0" stroke="#000000" stroke-width="2"/>
    <path d="M405.772,365.374 C402.458,365.374 399.772,362.688 399.772,359.374 C399.772,356.06 402.458,353.374 405.772,353.374 C409.086,353.374 411.772,356.06 411.772,359.374 C411.772,362.688 409.086,365.374 405.772,365.374 z" fill-opacity="0" stroke="#000000" stroke-width="2"/>
    <path d="M330.654,365.374 C327.34,365.374 324.654,362.688 324.654,359.374 C324.654,356.06 327.34,353.374 330.654,353.374 C333.968,353.374 336.654,356.06 336.654,359.374 C336.654,362.688 333.968,365.374 330.654,365.374 z" fill-opacity="0" stroke="#000000" stroke-width="2"/>
    <path d="M353.536,365.374 C350.222,365.374 347.536,362.688 347.536,359.374 C347.536,356.06 350.222,353.374 353.536,353.374 C356.849,353.374 359.536,356.06 359.536,359.374 C359.536,362.688 356.849,365.374 353.536,365.374 z" fill-opacity="0" stroke="#000000" stroke-width="2"/>
    <g>
      <path d="M370.35,317.19 L343.09,344.954" fill-opacity="0" stroke="#000000" stroke-width="2"/>
      <path d="M340.522,342.432 L336.365,351.804 L345.659,347.476 z" fill="#000000" fill-opacity="1" stroke="#000000" stroke-width="2" stroke-opacity="1"/>
    </g>
    <path d="M370.349,312.937 L303.942,312.937" fill-opacity="0" stroke="#000000" stroke-width="2"/>
    <path d="M330.654,365.374 L330.654,456.634" fill-opacity="0" stroke="#000000" stroke-width="2"/>
    <path d="M428.629,365.374 L428.629,456.634" fill-opacity="0" stroke="#000000" stroke-width="2"/>
    <path d="M405.772,365.374 L405.772,376.634" fill-opacity="0" stroke="#000000" stroke-width="2"/>
    <path d="M353.536,365.374 L353.536,379.374" fill-opacity="0" stroke="#000000" stroke-width="2"/>
    <path d="M307.536,456.634 L448.562,456.634" fill-opacity="0" stroke="#000000" stroke-width="2"/>
    <g>
      <path d="M411.27,401.437 L445.033,401.437 L445.033,421.437 L411.27,421.437 L411.27,401.437 z" fill="#FFFFFF"/>
      <path d="M416.809,401.937 L440.506,401.937" fill-opacity="0" stroke="#000000" stroke-width="4"/>
      <path d="M416.809,421.937 L440.506,421.937" fill-opacity="0" stroke="#000000" stroke-width="4"/>
      <g>
        <path d="M412.851,406.346 L444.464,406.346 L444.464,417.958 L412.851,417.958 L412.851,406.346 z" fill="#FFFFFF"/>
        <path d="M412.851,406.346 L444.464,406.346 L444.464,417.958 L412.851,417.958 L412.851,406.346 z" fill-opacity="0" stroke="#000000" stroke-width="3"/>
      </g>
    </g>
    <g>
      <path d="M313.27,401.437 L347.033,401.437 L347.033,421.437 L313.27,421.437 L313.27,401.437 z" fill="#FFFFFF"/>
      <path d="M318.809,401.937 L342.506,401.937" fill-opacity="0" stroke="#000000" stroke-width="4"/>
      <path d="M318.809,421.937 L342.506,421.937" fill-opacity="0" stroke="#000000" stroke-width="4"/>
      <g>
        <path d="M314.851,406.346 L346.464,406.346 L346.464,417.958 L314.851,417.958 L314.851,406.346 z" fill="#FFFFFF"/>
        <path d="M314.851,406.346 L346.464,406.346 L346.464,417.958 L314.851,417.958 L314.851,406.346 z" fill-opacity="0" stroke="#000000" stroke-width="3"/>
      </g>
    </g>
  </g>
</svg>
