G04 (created by PCBNEW-RS274X (2012-01-19 BZR 3256)-stable) date 12/5/2012 9:45:34 AM*
G01*
G70*
G90*
%MOIN*%
G04 Gerber Fmt 3.4, Leading zero omitted, Abs format*
%FSLAX34Y34*%
G04 APERTURE LIST*
%ADD10C,0.006000*%
%ADD11C,0.250000*%
%ADD12R,0.060000X0.060000*%
%ADD13C,0.060000*%
%ADD14C,0.035000*%
%ADD15C,0.008000*%
%ADD16C,0.025000*%
%ADD17C,0.010000*%
G04 APERTURE END LIST*
G54D10*
G54D11*
X73250Y-43500D03*
X73250Y-34000D03*
X58500Y-43500D03*
X58500Y-34000D03*
G54D12*
X66000Y-33225D03*
G54D13*
X67000Y-33225D03*
G54D12*
X66350Y-35170D03*
G54D13*
X65350Y-35170D03*
G54D12*
X70060Y-43770D03*
G54D13*
X71060Y-43770D03*
G54D14*
X66866Y-39249D03*
X73290Y-40230D03*
X65600Y-42200D03*
X67550Y-42150D03*
X66900Y-41200D03*
X64900Y-40900D03*
X68190Y-35230D03*
X66500Y-37200D03*
X63290Y-38390D03*
X66490Y-36300D03*
X70800Y-34500D03*
X66870Y-37870D03*
X64450Y-34670D03*
X63650Y-33300D03*
X66850Y-40480D03*
X59840Y-44510D03*
X62640Y-36330D03*
X67300Y-43350D03*
X58130Y-38760D03*
X68575Y-34325D03*
X73224Y-40821D03*
X68600Y-37300D03*
X72970Y-36670D03*
X63450Y-40900D03*
X62300Y-38900D03*
X58000Y-36000D03*
X59470Y-35610D03*
X62125Y-35672D03*
X69750Y-42600D03*
X65010Y-37650D03*
X57380Y-41510D03*
X57510Y-39290D03*
X61844Y-34052D03*
X63056Y-35140D03*
G54D15*
X66965Y-39150D02*
X67194Y-39150D01*
X66866Y-39249D02*
X66965Y-39150D01*
X67194Y-39150D02*
X72210Y-39150D01*
X72210Y-39150D02*
X73290Y-40230D01*
X65600Y-42200D02*
X65650Y-42150D01*
X65650Y-42150D02*
X67550Y-42150D01*
X66600Y-40900D02*
X64900Y-40900D01*
X66900Y-41200D02*
X66600Y-40900D01*
X66500Y-37200D02*
X66960Y-37200D01*
X66960Y-37200D02*
X68190Y-35970D01*
X68190Y-35970D02*
X68190Y-35230D01*
X66490Y-36300D02*
X66350Y-36160D01*
X66350Y-36160D02*
X66350Y-35170D01*
X63290Y-38080D02*
X65070Y-36300D01*
X63290Y-38390D02*
X63290Y-38080D01*
X65070Y-36300D02*
X66490Y-36300D01*
G54D16*
X66990Y-33235D02*
X67000Y-33225D01*
X67000Y-33225D02*
X69525Y-33225D01*
X64450Y-34670D02*
X65120Y-34000D01*
X65120Y-34000D02*
X66700Y-34000D01*
X66990Y-33710D02*
X66990Y-33235D01*
G54D15*
X66870Y-37870D02*
X66890Y-37890D01*
G54D16*
X66700Y-34000D02*
X66990Y-33710D01*
G54D15*
X66890Y-37890D02*
X69540Y-37890D01*
X69540Y-37890D02*
X70800Y-36630D01*
X70800Y-36630D02*
X70800Y-34500D01*
G54D16*
X69525Y-33225D02*
X70800Y-34500D01*
G54D15*
X73224Y-40821D02*
X73225Y-40821D01*
X62829Y-34052D02*
X63056Y-34279D01*
X61844Y-34052D02*
X62829Y-34052D01*
X63056Y-34279D02*
X63056Y-35140D01*
G54D10*
G36*
X74425Y-42554D02*
X74101Y-42229D01*
X73715Y-42069D01*
X73715Y-40315D01*
X73715Y-40146D01*
X73651Y-39990D01*
X73531Y-39870D01*
X73375Y-39805D01*
X73275Y-39805D01*
X72415Y-38945D01*
X72321Y-38882D01*
X72210Y-38860D01*
X67194Y-38860D01*
X67037Y-38860D01*
X66951Y-38824D01*
X66782Y-38824D01*
X66626Y-38888D01*
X66506Y-39008D01*
X66441Y-39164D01*
X66441Y-39333D01*
X66505Y-39489D01*
X66625Y-39609D01*
X66781Y-39674D01*
X66950Y-39674D01*
X67106Y-39610D01*
X67226Y-39490D01*
X67246Y-39440D01*
X72090Y-39440D01*
X72865Y-40215D01*
X72865Y-40314D01*
X72929Y-40470D01*
X73049Y-40590D01*
X73205Y-40655D01*
X73374Y-40655D01*
X73530Y-40591D01*
X73650Y-40471D01*
X73715Y-40315D01*
X73715Y-42069D01*
X73550Y-42001D01*
X72953Y-42000D01*
X72402Y-42228D01*
X71979Y-42649D01*
X71751Y-43200D01*
X71750Y-43797D01*
X71978Y-44348D01*
X72303Y-44675D01*
X71603Y-44675D01*
X71603Y-43849D01*
X71592Y-43636D01*
X71532Y-43489D01*
X71438Y-43462D01*
X71368Y-43532D01*
X71368Y-43392D01*
X71341Y-43298D01*
X71139Y-43227D01*
X70926Y-43238D01*
X70779Y-43298D01*
X70752Y-43392D01*
X71060Y-43699D01*
X71368Y-43392D01*
X71368Y-43532D01*
X71131Y-43770D01*
X71438Y-44078D01*
X71532Y-44051D01*
X71603Y-43849D01*
X71603Y-44675D01*
X71368Y-44675D01*
X71368Y-44148D01*
X71060Y-43841D01*
X70989Y-43911D01*
X70989Y-43770D01*
X70682Y-43462D01*
X70609Y-43482D01*
X70609Y-43421D01*
X70571Y-43329D01*
X70501Y-43259D01*
X70410Y-43221D01*
X70311Y-43221D01*
X69711Y-43221D01*
X69619Y-43259D01*
X69549Y-43329D01*
X69511Y-43420D01*
X69511Y-43519D01*
X69511Y-44119D01*
X69549Y-44211D01*
X69619Y-44281D01*
X69710Y-44319D01*
X69809Y-44319D01*
X70409Y-44319D01*
X70501Y-44281D01*
X70571Y-44211D01*
X70609Y-44120D01*
X70609Y-44057D01*
X70682Y-44078D01*
X70989Y-43770D01*
X70989Y-43911D01*
X70752Y-44148D01*
X70779Y-44242D01*
X70981Y-44313D01*
X71194Y-44302D01*
X71341Y-44242D01*
X71368Y-44148D01*
X71368Y-44675D01*
X67975Y-44675D01*
X67975Y-42235D01*
X67975Y-42066D01*
X67911Y-41910D01*
X67791Y-41790D01*
X67635Y-41725D01*
X67466Y-41725D01*
X67325Y-41782D01*
X67325Y-41285D01*
X67325Y-41116D01*
X67261Y-40960D01*
X67141Y-40840D01*
X66985Y-40775D01*
X66885Y-40775D01*
X66805Y-40695D01*
X66711Y-40632D01*
X66600Y-40610D01*
X65211Y-40610D01*
X65141Y-40540D01*
X64985Y-40475D01*
X64816Y-40475D01*
X64660Y-40539D01*
X64540Y-40659D01*
X64475Y-40815D01*
X64475Y-40984D01*
X64539Y-41140D01*
X64659Y-41260D01*
X64815Y-41325D01*
X64984Y-41325D01*
X65140Y-41261D01*
X65211Y-41190D01*
X66475Y-41190D01*
X66475Y-41284D01*
X66539Y-41440D01*
X66659Y-41560D01*
X66815Y-41625D01*
X66984Y-41625D01*
X67140Y-41561D01*
X67260Y-41441D01*
X67325Y-41285D01*
X67325Y-41782D01*
X67310Y-41789D01*
X67239Y-41860D01*
X65861Y-41860D01*
X65841Y-41840D01*
X65685Y-41775D01*
X65516Y-41775D01*
X65360Y-41839D01*
X65240Y-41959D01*
X65175Y-42115D01*
X65175Y-42284D01*
X65239Y-42440D01*
X65359Y-42560D01*
X65515Y-42625D01*
X65684Y-42625D01*
X65840Y-42561D01*
X65960Y-42441D01*
X65960Y-42440D01*
X67239Y-42440D01*
X67309Y-42510D01*
X67465Y-42575D01*
X67634Y-42575D01*
X67790Y-42511D01*
X67910Y-42391D01*
X67975Y-42235D01*
X67975Y-44675D01*
X59445Y-44675D01*
X59771Y-44351D01*
X59999Y-43800D01*
X60000Y-43203D01*
X59772Y-42652D01*
X59351Y-42229D01*
X58800Y-42001D01*
X58203Y-42000D01*
X57652Y-42228D01*
X57325Y-42553D01*
X57325Y-34945D01*
X57649Y-35271D01*
X58200Y-35499D01*
X58797Y-35500D01*
X59348Y-35272D01*
X59771Y-34851D01*
X59999Y-34300D01*
X60000Y-33703D01*
X59772Y-33152D01*
X59446Y-32825D01*
X65471Y-32825D01*
X65451Y-32875D01*
X65451Y-32974D01*
X65451Y-33574D01*
X65472Y-33625D01*
X65120Y-33625D01*
X64976Y-33654D01*
X64915Y-33694D01*
X64854Y-33735D01*
X64330Y-34259D01*
X64210Y-34309D01*
X64090Y-34429D01*
X64025Y-34585D01*
X64025Y-34754D01*
X64089Y-34910D01*
X64209Y-35030D01*
X64365Y-35095D01*
X64534Y-35095D01*
X64690Y-35031D01*
X64810Y-34911D01*
X64860Y-34789D01*
X65275Y-34375D01*
X66700Y-34375D01*
X66843Y-34346D01*
X66844Y-34346D01*
X66965Y-34265D01*
X67255Y-33975D01*
X67336Y-33854D01*
X67336Y-33853D01*
X67365Y-33710D01*
X67365Y-33636D01*
X67401Y-33600D01*
X69370Y-33600D01*
X70389Y-34619D01*
X70439Y-34740D01*
X70510Y-34811D01*
X70510Y-36510D01*
X69420Y-37600D01*
X67201Y-37600D01*
X67111Y-37510D01*
X67029Y-37476D01*
X67071Y-37468D01*
X67165Y-37405D01*
X68395Y-36175D01*
X68458Y-36081D01*
X68480Y-35970D01*
X68480Y-35541D01*
X68550Y-35471D01*
X68615Y-35315D01*
X68615Y-35146D01*
X68551Y-34990D01*
X68431Y-34870D01*
X68275Y-34805D01*
X68106Y-34805D01*
X67950Y-34869D01*
X67830Y-34989D01*
X67765Y-35145D01*
X67765Y-35314D01*
X67829Y-35470D01*
X67900Y-35541D01*
X67900Y-35850D01*
X66915Y-36835D01*
X66915Y-36385D01*
X66915Y-36216D01*
X66851Y-36060D01*
X66731Y-35940D01*
X66640Y-35902D01*
X66640Y-35719D01*
X66699Y-35719D01*
X66791Y-35681D01*
X66861Y-35611D01*
X66899Y-35520D01*
X66899Y-35421D01*
X66899Y-34821D01*
X66861Y-34729D01*
X66791Y-34659D01*
X66700Y-34621D01*
X66601Y-34621D01*
X66001Y-34621D01*
X65909Y-34659D01*
X65839Y-34729D01*
X65801Y-34820D01*
X65801Y-34882D01*
X65728Y-34862D01*
X65658Y-34932D01*
X65658Y-34792D01*
X65631Y-34698D01*
X65429Y-34627D01*
X65216Y-34638D01*
X65069Y-34698D01*
X65042Y-34792D01*
X65350Y-35099D01*
X65658Y-34792D01*
X65658Y-34932D01*
X65421Y-35170D01*
X65728Y-35478D01*
X65801Y-35457D01*
X65801Y-35519D01*
X65839Y-35611D01*
X65909Y-35681D01*
X66000Y-35719D01*
X66060Y-35719D01*
X66060Y-36010D01*
X65658Y-36010D01*
X65658Y-35548D01*
X65350Y-35241D01*
X65279Y-35311D01*
X65279Y-35170D01*
X64972Y-34862D01*
X64878Y-34889D01*
X64807Y-35091D01*
X64818Y-35304D01*
X64878Y-35451D01*
X64972Y-35478D01*
X65279Y-35170D01*
X65279Y-35311D01*
X65042Y-35548D01*
X65069Y-35642D01*
X65271Y-35713D01*
X65484Y-35702D01*
X65631Y-35642D01*
X65658Y-35548D01*
X65658Y-36010D01*
X65070Y-36010D01*
X64959Y-36032D01*
X64865Y-36095D01*
X63481Y-37479D01*
X63481Y-35225D01*
X63481Y-35056D01*
X63417Y-34900D01*
X63346Y-34829D01*
X63346Y-34279D01*
X63324Y-34168D01*
X63261Y-34074D01*
X63034Y-33847D01*
X62940Y-33784D01*
X62829Y-33762D01*
X62155Y-33762D01*
X62085Y-33692D01*
X61929Y-33627D01*
X61760Y-33627D01*
X61604Y-33691D01*
X61484Y-33811D01*
X61419Y-33967D01*
X61419Y-34136D01*
X61483Y-34292D01*
X61603Y-34412D01*
X61759Y-34477D01*
X61928Y-34477D01*
X62084Y-34413D01*
X62155Y-34342D01*
X62709Y-34342D01*
X62766Y-34399D01*
X62766Y-34829D01*
X62696Y-34899D01*
X62631Y-35055D01*
X62631Y-35224D01*
X62695Y-35380D01*
X62815Y-35500D01*
X62971Y-35565D01*
X63140Y-35565D01*
X63296Y-35501D01*
X63416Y-35381D01*
X63481Y-35225D01*
X63481Y-37479D01*
X63085Y-37875D01*
X63022Y-37969D01*
X63000Y-38078D01*
X62930Y-38149D01*
X62865Y-38305D01*
X62865Y-38474D01*
X62929Y-38630D01*
X63049Y-38750D01*
X63205Y-38815D01*
X63374Y-38815D01*
X63530Y-38751D01*
X63650Y-38631D01*
X63715Y-38475D01*
X63715Y-38306D01*
X63651Y-38150D01*
X63640Y-38139D01*
X65190Y-36590D01*
X66179Y-36590D01*
X66249Y-36660D01*
X66405Y-36725D01*
X66574Y-36725D01*
X66730Y-36661D01*
X66850Y-36541D01*
X66915Y-36385D01*
X66915Y-36835D01*
X66840Y-36910D01*
X66811Y-36910D01*
X66741Y-36840D01*
X66585Y-36775D01*
X66416Y-36775D01*
X66260Y-36839D01*
X66140Y-36959D01*
X66075Y-37115D01*
X66075Y-37284D01*
X66139Y-37440D01*
X66259Y-37560D01*
X66415Y-37625D01*
X66514Y-37625D01*
X66510Y-37629D01*
X66445Y-37785D01*
X66445Y-37954D01*
X66509Y-38110D01*
X66629Y-38230D01*
X66785Y-38295D01*
X66954Y-38295D01*
X67110Y-38231D01*
X67161Y-38180D01*
X69540Y-38180D01*
X69651Y-38158D01*
X69745Y-38095D01*
X71004Y-36836D01*
X71004Y-36835D01*
X71005Y-36835D01*
X71067Y-36742D01*
X71068Y-36741D01*
X71089Y-36631D01*
X71090Y-36630D01*
X71090Y-34811D01*
X71160Y-34741D01*
X71225Y-34585D01*
X71225Y-34416D01*
X71161Y-34260D01*
X71041Y-34140D01*
X70919Y-34089D01*
X69790Y-32960D01*
X69669Y-32879D01*
X69525Y-32850D01*
X67401Y-32850D01*
X67376Y-32825D01*
X72304Y-32825D01*
X71979Y-33149D01*
X71751Y-33700D01*
X71750Y-34297D01*
X71978Y-34848D01*
X72399Y-35271D01*
X72950Y-35499D01*
X73547Y-35500D01*
X74098Y-35272D01*
X74425Y-34946D01*
X74425Y-42554D01*
X74425Y-42554D01*
G37*
G54D17*
X74425Y-42554D02*
X74101Y-42229D01*
X73715Y-42069D01*
X73715Y-40315D01*
X73715Y-40146D01*
X73651Y-39990D01*
X73531Y-39870D01*
X73375Y-39805D01*
X73275Y-39805D01*
X72415Y-38945D01*
X72321Y-38882D01*
X72210Y-38860D01*
X67194Y-38860D01*
X67037Y-38860D01*
X66951Y-38824D01*
X66782Y-38824D01*
X66626Y-38888D01*
X66506Y-39008D01*
X66441Y-39164D01*
X66441Y-39333D01*
X66505Y-39489D01*
X66625Y-39609D01*
X66781Y-39674D01*
X66950Y-39674D01*
X67106Y-39610D01*
X67226Y-39490D01*
X67246Y-39440D01*
X72090Y-39440D01*
X72865Y-40215D01*
X72865Y-40314D01*
X72929Y-40470D01*
X73049Y-40590D01*
X73205Y-40655D01*
X73374Y-40655D01*
X73530Y-40591D01*
X73650Y-40471D01*
X73715Y-40315D01*
X73715Y-42069D01*
X73550Y-42001D01*
X72953Y-42000D01*
X72402Y-42228D01*
X71979Y-42649D01*
X71751Y-43200D01*
X71750Y-43797D01*
X71978Y-44348D01*
X72303Y-44675D01*
X71603Y-44675D01*
X71603Y-43849D01*
X71592Y-43636D01*
X71532Y-43489D01*
X71438Y-43462D01*
X71368Y-43532D01*
X71368Y-43392D01*
X71341Y-43298D01*
X71139Y-43227D01*
X70926Y-43238D01*
X70779Y-43298D01*
X70752Y-43392D01*
X71060Y-43699D01*
X71368Y-43392D01*
X71368Y-43532D01*
X71131Y-43770D01*
X71438Y-44078D01*
X71532Y-44051D01*
X71603Y-43849D01*
X71603Y-44675D01*
X71368Y-44675D01*
X71368Y-44148D01*
X71060Y-43841D01*
X70989Y-43911D01*
X70989Y-43770D01*
X70682Y-43462D01*
X70609Y-43482D01*
X70609Y-43421D01*
X70571Y-43329D01*
X70501Y-43259D01*
X70410Y-43221D01*
X70311Y-43221D01*
X69711Y-43221D01*
X69619Y-43259D01*
X69549Y-43329D01*
X69511Y-43420D01*
X69511Y-43519D01*
X69511Y-44119D01*
X69549Y-44211D01*
X69619Y-44281D01*
X69710Y-44319D01*
X69809Y-44319D01*
X70409Y-44319D01*
X70501Y-44281D01*
X70571Y-44211D01*
X70609Y-44120D01*
X70609Y-44057D01*
X70682Y-44078D01*
X70989Y-43770D01*
X70989Y-43911D01*
X70752Y-44148D01*
X70779Y-44242D01*
X70981Y-44313D01*
X71194Y-44302D01*
X71341Y-44242D01*
X71368Y-44148D01*
X71368Y-44675D01*
X67975Y-44675D01*
X67975Y-42235D01*
X67975Y-42066D01*
X67911Y-41910D01*
X67791Y-41790D01*
X67635Y-41725D01*
X67466Y-41725D01*
X67325Y-41782D01*
X67325Y-41285D01*
X67325Y-41116D01*
X67261Y-40960D01*
X67141Y-40840D01*
X66985Y-40775D01*
X66885Y-40775D01*
X66805Y-40695D01*
X66711Y-40632D01*
X66600Y-40610D01*
X65211Y-40610D01*
X65141Y-40540D01*
X64985Y-40475D01*
X64816Y-40475D01*
X64660Y-40539D01*
X64540Y-40659D01*
X64475Y-40815D01*
X64475Y-40984D01*
X64539Y-41140D01*
X64659Y-41260D01*
X64815Y-41325D01*
X64984Y-41325D01*
X65140Y-41261D01*
X65211Y-41190D01*
X66475Y-41190D01*
X66475Y-41284D01*
X66539Y-41440D01*
X66659Y-41560D01*
X66815Y-41625D01*
X66984Y-41625D01*
X67140Y-41561D01*
X67260Y-41441D01*
X67325Y-41285D01*
X67325Y-41782D01*
X67310Y-41789D01*
X67239Y-41860D01*
X65861Y-41860D01*
X65841Y-41840D01*
X65685Y-41775D01*
X65516Y-41775D01*
X65360Y-41839D01*
X65240Y-41959D01*
X65175Y-42115D01*
X65175Y-42284D01*
X65239Y-42440D01*
X65359Y-42560D01*
X65515Y-42625D01*
X65684Y-42625D01*
X65840Y-42561D01*
X65960Y-42441D01*
X65960Y-42440D01*
X67239Y-42440D01*
X67309Y-42510D01*
X67465Y-42575D01*
X67634Y-42575D01*
X67790Y-42511D01*
X67910Y-42391D01*
X67975Y-42235D01*
X67975Y-44675D01*
X59445Y-44675D01*
X59771Y-44351D01*
X59999Y-43800D01*
X60000Y-43203D01*
X59772Y-42652D01*
X59351Y-42229D01*
X58800Y-42001D01*
X58203Y-42000D01*
X57652Y-42228D01*
X57325Y-42553D01*
X57325Y-34945D01*
X57649Y-35271D01*
X58200Y-35499D01*
X58797Y-35500D01*
X59348Y-35272D01*
X59771Y-34851D01*
X59999Y-34300D01*
X60000Y-33703D01*
X59772Y-33152D01*
X59446Y-32825D01*
X65471Y-32825D01*
X65451Y-32875D01*
X65451Y-32974D01*
X65451Y-33574D01*
X65472Y-33625D01*
X65120Y-33625D01*
X64976Y-33654D01*
X64915Y-33694D01*
X64854Y-33735D01*
X64330Y-34259D01*
X64210Y-34309D01*
X64090Y-34429D01*
X64025Y-34585D01*
X64025Y-34754D01*
X64089Y-34910D01*
X64209Y-35030D01*
X64365Y-35095D01*
X64534Y-35095D01*
X64690Y-35031D01*
X64810Y-34911D01*
X64860Y-34789D01*
X65275Y-34375D01*
X66700Y-34375D01*
X66843Y-34346D01*
X66844Y-34346D01*
X66965Y-34265D01*
X67255Y-33975D01*
X67336Y-33854D01*
X67336Y-33853D01*
X67365Y-33710D01*
X67365Y-33636D01*
X67401Y-33600D01*
X69370Y-33600D01*
X70389Y-34619D01*
X70439Y-34740D01*
X70510Y-34811D01*
X70510Y-36510D01*
X69420Y-37600D01*
X67201Y-37600D01*
X67111Y-37510D01*
X67029Y-37476D01*
X67071Y-37468D01*
X67165Y-37405D01*
X68395Y-36175D01*
X68458Y-36081D01*
X68480Y-35970D01*
X68480Y-35541D01*
X68550Y-35471D01*
X68615Y-35315D01*
X68615Y-35146D01*
X68551Y-34990D01*
X68431Y-34870D01*
X68275Y-34805D01*
X68106Y-34805D01*
X67950Y-34869D01*
X67830Y-34989D01*
X67765Y-35145D01*
X67765Y-35314D01*
X67829Y-35470D01*
X67900Y-35541D01*
X67900Y-35850D01*
X66915Y-36835D01*
X66915Y-36385D01*
X66915Y-36216D01*
X66851Y-36060D01*
X66731Y-35940D01*
X66640Y-35902D01*
X66640Y-35719D01*
X66699Y-35719D01*
X66791Y-35681D01*
X66861Y-35611D01*
X66899Y-35520D01*
X66899Y-35421D01*
X66899Y-34821D01*
X66861Y-34729D01*
X66791Y-34659D01*
X66700Y-34621D01*
X66601Y-34621D01*
X66001Y-34621D01*
X65909Y-34659D01*
X65839Y-34729D01*
X65801Y-34820D01*
X65801Y-34882D01*
X65728Y-34862D01*
X65658Y-34932D01*
X65658Y-34792D01*
X65631Y-34698D01*
X65429Y-34627D01*
X65216Y-34638D01*
X65069Y-34698D01*
X65042Y-34792D01*
X65350Y-35099D01*
X65658Y-34792D01*
X65658Y-34932D01*
X65421Y-35170D01*
X65728Y-35478D01*
X65801Y-35457D01*
X65801Y-35519D01*
X65839Y-35611D01*
X65909Y-35681D01*
X66000Y-35719D01*
X66060Y-35719D01*
X66060Y-36010D01*
X65658Y-36010D01*
X65658Y-35548D01*
X65350Y-35241D01*
X65279Y-35311D01*
X65279Y-35170D01*
X64972Y-34862D01*
X64878Y-34889D01*
X64807Y-35091D01*
X64818Y-35304D01*
X64878Y-35451D01*
X64972Y-35478D01*
X65279Y-35170D01*
X65279Y-35311D01*
X65042Y-35548D01*
X65069Y-35642D01*
X65271Y-35713D01*
X65484Y-35702D01*
X65631Y-35642D01*
X65658Y-35548D01*
X65658Y-36010D01*
X65070Y-36010D01*
X64959Y-36032D01*
X64865Y-36095D01*
X63481Y-37479D01*
X63481Y-35225D01*
X63481Y-35056D01*
X63417Y-34900D01*
X63346Y-34829D01*
X63346Y-34279D01*
X63324Y-34168D01*
X63261Y-34074D01*
X63034Y-33847D01*
X62940Y-33784D01*
X62829Y-33762D01*
X62155Y-33762D01*
X62085Y-33692D01*
X61929Y-33627D01*
X61760Y-33627D01*
X61604Y-33691D01*
X61484Y-33811D01*
X61419Y-33967D01*
X61419Y-34136D01*
X61483Y-34292D01*
X61603Y-34412D01*
X61759Y-34477D01*
X61928Y-34477D01*
X62084Y-34413D01*
X62155Y-34342D01*
X62709Y-34342D01*
X62766Y-34399D01*
X62766Y-34829D01*
X62696Y-34899D01*
X62631Y-35055D01*
X62631Y-35224D01*
X62695Y-35380D01*
X62815Y-35500D01*
X62971Y-35565D01*
X63140Y-35565D01*
X63296Y-35501D01*
X63416Y-35381D01*
X63481Y-35225D01*
X63481Y-37479D01*
X63085Y-37875D01*
X63022Y-37969D01*
X63000Y-38078D01*
X62930Y-38149D01*
X62865Y-38305D01*
X62865Y-38474D01*
X62929Y-38630D01*
X63049Y-38750D01*
X63205Y-38815D01*
X63374Y-38815D01*
X63530Y-38751D01*
X63650Y-38631D01*
X63715Y-38475D01*
X63715Y-38306D01*
X63651Y-38150D01*
X63640Y-38139D01*
X65190Y-36590D01*
X66179Y-36590D01*
X66249Y-36660D01*
X66405Y-36725D01*
X66574Y-36725D01*
X66730Y-36661D01*
X66850Y-36541D01*
X66915Y-36385D01*
X66915Y-36835D01*
X66840Y-36910D01*
X66811Y-36910D01*
X66741Y-36840D01*
X66585Y-36775D01*
X66416Y-36775D01*
X66260Y-36839D01*
X66140Y-36959D01*
X66075Y-37115D01*
X66075Y-37284D01*
X66139Y-37440D01*
X66259Y-37560D01*
X66415Y-37625D01*
X66514Y-37625D01*
X66510Y-37629D01*
X66445Y-37785D01*
X66445Y-37954D01*
X66509Y-38110D01*
X66629Y-38230D01*
X66785Y-38295D01*
X66954Y-38295D01*
X67110Y-38231D01*
X67161Y-38180D01*
X69540Y-38180D01*
X69651Y-38158D01*
X69745Y-38095D01*
X71004Y-36836D01*
X71004Y-36835D01*
X71005Y-36835D01*
X71067Y-36742D01*
X71068Y-36741D01*
X71089Y-36631D01*
X71090Y-36630D01*
X71090Y-34811D01*
X71160Y-34741D01*
X71225Y-34585D01*
X71225Y-34416D01*
X71161Y-34260D01*
X71041Y-34140D01*
X70919Y-34089D01*
X69790Y-32960D01*
X69669Y-32879D01*
X69525Y-32850D01*
X67401Y-32850D01*
X67376Y-32825D01*
X72304Y-32825D01*
X71979Y-33149D01*
X71751Y-33700D01*
X71750Y-34297D01*
X71978Y-34848D01*
X72399Y-35271D01*
X72950Y-35499D01*
X73547Y-35500D01*
X74098Y-35272D01*
X74425Y-34946D01*
X74425Y-42554D01*
M02*
