G04 #@! TF.FileFunction,Legend,Bot*
%FSLAX46Y46*%
G04 Gerber Fmt 4.6, Leading zero omitted, Abs format (unit mm)*
G04 Created by KiCad (PCBNEW (after 2015-mar-04 BZR unknown)-product) date 10/25/2016 5:34:20 PM*
%MOMM*%
G01*
G04 APERTURE LIST*
%ADD10C,0.150000*%
%ADD11C,0.300000*%
%ADD12C,0.650000*%
%ADD13C,0.317500*%
G04 APERTURE END LIST*
D10*
D11*
X47314570Y-103548571D02*
X47814570Y-102834286D01*
X48171713Y-103548571D02*
X48171713Y-102048571D01*
X47600285Y-102048571D01*
X47457427Y-102120000D01*
X47385999Y-102191429D01*
X47314570Y-102334286D01*
X47314570Y-102548571D01*
X47385999Y-102691429D01*
X47457427Y-102762857D01*
X47600285Y-102834286D01*
X48171713Y-102834286D01*
X46671713Y-102762857D02*
X46171713Y-102762857D01*
X45957427Y-103548571D02*
X46671713Y-103548571D01*
X46671713Y-102048571D01*
X45957427Y-102048571D01*
X45528856Y-102048571D02*
X45028856Y-103548571D01*
X44528856Y-102048571D01*
X43028856Y-102048571D02*
X42028856Y-103548571D01*
X42028856Y-102048571D02*
X43028856Y-103548571D01*
X40671714Y-103548571D02*
X41528857Y-103548571D01*
X41100285Y-103548571D02*
X41100285Y-102048571D01*
X41243142Y-102262857D01*
X41386000Y-102405714D01*
X41528857Y-102477143D01*
D12*
X16034000Y-87916000D02*
X20034000Y-87916000D01*
X20034000Y-87916000D02*
X20034000Y-91916000D01*
X20034000Y-91916000D02*
X16034000Y-91916000D01*
X16034000Y-91916000D02*
X16034000Y-87916000D01*
X16034000Y-87916000D02*
X16034000Y-88416000D01*
X16034000Y-88416000D02*
X20034000Y-88416000D01*
X20034000Y-88416000D02*
X20034000Y-88916000D01*
X20034000Y-88916000D02*
X16034000Y-88916000D01*
X16034000Y-88916000D02*
X16034000Y-89416000D01*
X16034000Y-89416000D02*
X20034000Y-89416000D01*
X20034000Y-89416000D02*
X20034000Y-89916000D01*
X20034000Y-89916000D02*
X16034000Y-89916000D01*
X16034000Y-89916000D02*
X16034000Y-90416000D01*
X16034000Y-90416000D02*
X19534000Y-90416000D01*
X19534000Y-90416000D02*
X20034000Y-90416000D01*
X20034000Y-90416000D02*
X20034000Y-90916000D01*
X20034000Y-90916000D02*
X16034000Y-90916000D01*
X16034000Y-90916000D02*
X16034000Y-91416000D01*
X16034000Y-91416000D02*
X20034000Y-91416000D01*
D13*
X21269477Y-85720524D02*
X20543762Y-85720524D01*
X20906619Y-86990524D02*
X20906619Y-85720524D01*
X20120429Y-86325286D02*
X19697096Y-86325286D01*
X19515667Y-86990524D02*
X20120429Y-86990524D01*
X20120429Y-85720524D01*
X19515667Y-85720524D01*
X19031857Y-86930048D02*
X18850429Y-86990524D01*
X18548048Y-86990524D01*
X18427095Y-86930048D01*
X18366619Y-86869571D01*
X18306143Y-86748619D01*
X18306143Y-86627667D01*
X18366619Y-86506714D01*
X18427095Y-86446238D01*
X18548048Y-86385762D01*
X18789952Y-86325286D01*
X18910905Y-86264810D01*
X18971381Y-86204333D01*
X19031857Y-86083381D01*
X19031857Y-85962429D01*
X18971381Y-85841476D01*
X18910905Y-85781000D01*
X18789952Y-85720524D01*
X18487572Y-85720524D01*
X18306143Y-85781000D01*
X17943286Y-85720524D02*
X17217571Y-85720524D01*
X17580428Y-86990524D02*
X17580428Y-85720524D01*
X16794238Y-86325286D02*
X16370905Y-86325286D01*
X16189476Y-86990524D02*
X16794238Y-86990524D01*
X16794238Y-85720524D01*
X16189476Y-85720524D01*
X15645190Y-86990524D02*
X15645190Y-85720524D01*
X15342809Y-85720524D01*
X15161381Y-85781000D01*
X15040428Y-85901952D01*
X14979952Y-86022905D01*
X14919476Y-86264810D01*
X14919476Y-86446238D01*
X14979952Y-86688143D01*
X15040428Y-86809095D01*
X15161381Y-86930048D01*
X15342809Y-86990524D01*
X15645190Y-86990524D01*
M02*
