G04 #@! TF.GenerationSoftware,KiCad,Pcbnew,(5.1.10)-1*
G04 #@! TF.CreationDate,2021-10-24T18:12:00-04:00*
G04 #@! TF.ProjectId,AudioAmp380,41756469-6f41-46d7-9033-38302e6b6963,1*
G04 #@! TF.SameCoordinates,Original*
G04 #@! TF.FileFunction,Copper,L2,Bot*
G04 #@! TF.FilePolarity,Positive*
%FSLAX46Y46*%
G04 Gerber Fmt 4.6, Leading zero omitted, Abs format (unit mm)*
G04 Created by KiCad (PCBNEW (5.1.10)-1) date 2021-10-24 18:12:00*
%MOMM*%
%LPD*%
G01*
G04 APERTURE LIST*
G04 #@! TA.AperFunction,ComponentPad*
%ADD10C,2.540000*%
G04 #@! TD*
G04 #@! TA.AperFunction,ComponentPad*
%ADD11C,4.445000*%
G04 #@! TD*
G04 #@! TA.AperFunction,ComponentPad*
%ADD12R,1.600000X1.600000*%
G04 #@! TD*
G04 #@! TA.AperFunction,ComponentPad*
%ADD13O,1.600000X1.600000*%
G04 #@! TD*
G04 #@! TA.AperFunction,ComponentPad*
%ADD14C,1.600000*%
G04 #@! TD*
G04 #@! TA.AperFunction,ComponentPad*
%ADD15C,6.350000*%
G04 #@! TD*
G04 #@! TA.AperFunction,ComponentPad*
%ADD16R,1.700000X1.700000*%
G04 #@! TD*
G04 #@! TA.AperFunction,ComponentPad*
%ADD17O,1.700000X1.700000*%
G04 #@! TD*
G04 #@! TA.AperFunction,ComponentPad*
%ADD18R,2.000000X2.000000*%
G04 #@! TD*
G04 #@! TA.AperFunction,ComponentPad*
%ADD19C,2.000000*%
G04 #@! TD*
G04 #@! TA.AperFunction,ComponentPad*
%ADD20O,2.000000X4.600000*%
G04 #@! TD*
G04 #@! TA.AperFunction,ComponentPad*
%ADD21O,4.600000X2.000000*%
G04 #@! TD*
G04 #@! TA.AperFunction,ComponentPad*
%ADD22C,1.440000*%
G04 #@! TD*
G04 #@! TA.AperFunction,Conductor*
%ADD23C,0.635000*%
G04 #@! TD*
G04 #@! TA.AperFunction,Conductor*
%ADD24C,0.203200*%
G04 #@! TD*
G04 #@! TA.AperFunction,Conductor*
%ADD25C,0.152400*%
G04 #@! TD*
G04 APERTURE END LIST*
D10*
X40533000Y-56654400D03*
D11*
X40533000Y-51409300D03*
X40533000Y-61899500D03*
X35021200Y-56654400D03*
D10*
X104405000Y-56613400D03*
D11*
X104405000Y-61858500D03*
X104405000Y-51368300D03*
X109916800Y-56613400D03*
D12*
X50058000Y-63258400D03*
D13*
X57678000Y-55638400D03*
X52598000Y-63258400D03*
X55138000Y-55638400D03*
X55138000Y-63258400D03*
X52598000Y-55638400D03*
X57678000Y-63258400D03*
X50058000Y-55638400D03*
X64282000Y-49542400D03*
D14*
X74442000Y-49542400D03*
D13*
X74442000Y-56654400D03*
D14*
X64282000Y-56654400D03*
X45740000Y-63766400D03*
D13*
X45740000Y-53606400D03*
D12*
X93746000Y-78244400D03*
D14*
X93746000Y-81744400D03*
D15*
X97302000Y-71386400D03*
D16*
X60980000Y-77736400D03*
D17*
X60980000Y-80276400D03*
X60980000Y-82816400D03*
X60980000Y-85356400D03*
X60980000Y-87896400D03*
D14*
X63774000Y-63512400D03*
X63774000Y-66012400D03*
D12*
X75204000Y-80784400D03*
D13*
X67584000Y-65544400D03*
X75204000Y-78244400D03*
X67584000Y-68084400D03*
X75204000Y-75704400D03*
X67584000Y-70624400D03*
X75204000Y-73164400D03*
X67584000Y-73164400D03*
X75204000Y-70624400D03*
X67584000Y-75704400D03*
X75204000Y-68084400D03*
X67584000Y-78244400D03*
X75204000Y-65544400D03*
X67584000Y-80784400D03*
D14*
X47010000Y-48272400D03*
X44510000Y-48272400D03*
X61234000Y-55678400D03*
X61234000Y-58178400D03*
X74442000Y-53098400D03*
D13*
X64282000Y-53098400D03*
D14*
X74442000Y-60210400D03*
D13*
X64282000Y-60210400D03*
D14*
X60980000Y-73251400D03*
D12*
X60980000Y-70751400D03*
X80030000Y-80784400D03*
D14*
X80030000Y-78284400D03*
D18*
X96540000Y-61734400D03*
D19*
X96540000Y-56734400D03*
D14*
X85872000Y-81038400D03*
X85872000Y-78538400D03*
D20*
X107905000Y-79613400D03*
X101805000Y-79613400D03*
D21*
X104705000Y-75013400D03*
D22*
X57932000Y-49288400D03*
X55392000Y-49288400D03*
X52852000Y-49288400D03*
D14*
X44470000Y-50812400D03*
X46970000Y-50812400D03*
D23*
X67290000Y-62496400D02*
X73934000Y-62496400D01*
X74442000Y-61988400D02*
X74442000Y-60210400D01*
X73934000Y-62496400D02*
X74442000Y-61988400D01*
X63774000Y-66012400D02*
X64920000Y-66012400D01*
X64920000Y-66012400D02*
X65820000Y-65112400D01*
X65820000Y-63966400D02*
X67290000Y-62496400D01*
X65820000Y-65112400D02*
X65820000Y-63966400D01*
X60980000Y-87896400D02*
X60980000Y-85356400D01*
X60980000Y-80276400D02*
X60980000Y-77736400D01*
X55138000Y-63258400D02*
X55138000Y-61734400D01*
X55138000Y-61734400D02*
X56408000Y-60464400D01*
X64282000Y-57785770D02*
X64282000Y-56654400D01*
X61603370Y-60464400D02*
X64282000Y-57785770D01*
X56408000Y-60464400D02*
X61603370Y-60464400D01*
X47010000Y-48272400D02*
X48280000Y-48272400D01*
X48280000Y-48272400D02*
X49296000Y-49288400D01*
X49296000Y-49288400D02*
X49296000Y-53352400D01*
X49296000Y-53352400D02*
X48280000Y-54368400D01*
X48280000Y-54368400D02*
X48280000Y-58686400D01*
X50058000Y-60464400D02*
X56408000Y-60464400D01*
X48280000Y-58686400D02*
X50058000Y-60464400D01*
X55138000Y-57670400D02*
X55138000Y-55638400D01*
X55646000Y-58178400D02*
X55138000Y-57670400D01*
X61234000Y-58178400D02*
X55646000Y-58178400D01*
X52598000Y-55638400D02*
X52598000Y-53352400D01*
X52598000Y-53352400D02*
X53360000Y-52590400D01*
X53360000Y-52590400D02*
X58948000Y-52590400D01*
X61996000Y-49542400D02*
X64282000Y-49542400D01*
X58948000Y-52590400D02*
X61996000Y-49542400D01*
D24*
X111858901Y-54531622D02*
X111820975Y-54493696D01*
X111710508Y-54604163D01*
X111463827Y-54224823D01*
X110968113Y-53968909D01*
X110431997Y-53814621D01*
X109876083Y-53767889D01*
X109321734Y-53830508D01*
X108790252Y-54000073D01*
X108369773Y-54224823D01*
X108123091Y-54604165D01*
X109916800Y-56397874D01*
X109930943Y-56383732D01*
X110146469Y-56599258D01*
X110132326Y-56613400D01*
X110146469Y-56627543D01*
X109930943Y-56843069D01*
X109916800Y-56828926D01*
X108123091Y-58622635D01*
X108369773Y-59001977D01*
X108865487Y-59257891D01*
X109401603Y-59412179D01*
X109957517Y-59458911D01*
X110511866Y-59396292D01*
X111043348Y-59226727D01*
X111463827Y-59001977D01*
X111710508Y-58622637D01*
X111820975Y-58733104D01*
X111858901Y-58695178D01*
X111858900Y-92067300D01*
X58224100Y-92067300D01*
X58224100Y-88274007D01*
X59570090Y-88274007D01*
X59597911Y-88365738D01*
X59716031Y-88626352D01*
X59882724Y-88858914D01*
X60091585Y-89054487D01*
X60334587Y-89205556D01*
X60602392Y-89306315D01*
X60827600Y-89195628D01*
X60827600Y-88048800D01*
X61132400Y-88048800D01*
X61132400Y-89195628D01*
X61357608Y-89306315D01*
X61625413Y-89205556D01*
X61868415Y-89054487D01*
X62077276Y-88858914D01*
X62243969Y-88626352D01*
X62362089Y-88365738D01*
X62389910Y-88274007D01*
X62278286Y-88048800D01*
X61132400Y-88048800D01*
X60827600Y-88048800D01*
X59681714Y-88048800D01*
X59570090Y-88274007D01*
X58224100Y-88274007D01*
X58224100Y-85734007D01*
X59570090Y-85734007D01*
X59597911Y-85825738D01*
X59716031Y-86086352D01*
X59882724Y-86318914D01*
X60091585Y-86514487D01*
X60271603Y-86626400D01*
X60091585Y-86738313D01*
X59882724Y-86933886D01*
X59716031Y-87166448D01*
X59597911Y-87427062D01*
X59570090Y-87518793D01*
X59681714Y-87744000D01*
X60827600Y-87744000D01*
X60827600Y-85508800D01*
X61132400Y-85508800D01*
X61132400Y-87744000D01*
X62278286Y-87744000D01*
X62389910Y-87518793D01*
X62362089Y-87427062D01*
X62243969Y-87166448D01*
X62077276Y-86933886D01*
X61868415Y-86738313D01*
X61688397Y-86626400D01*
X61868415Y-86514487D01*
X62077276Y-86318914D01*
X62243969Y-86086352D01*
X62362089Y-85825738D01*
X62389910Y-85734007D01*
X62278286Y-85508800D01*
X61132400Y-85508800D01*
X60827600Y-85508800D01*
X59681714Y-85508800D01*
X59570090Y-85734007D01*
X58224100Y-85734007D01*
X58224100Y-84978793D01*
X59570090Y-84978793D01*
X59681714Y-85204000D01*
X60827600Y-85204000D01*
X60827600Y-85184000D01*
X61132400Y-85184000D01*
X61132400Y-85204000D01*
X62278286Y-85204000D01*
X62389910Y-84978793D01*
X62362089Y-84887062D01*
X62243969Y-84626448D01*
X62077276Y-84393886D01*
X61868415Y-84198313D01*
X61625413Y-84047244D01*
X61380932Y-83955260D01*
X61551066Y-83884789D01*
X61748525Y-83752850D01*
X61916450Y-83584925D01*
X62048389Y-83387466D01*
X62139269Y-83168060D01*
X62185600Y-82935141D01*
X62185600Y-82739440D01*
X92966486Y-82739440D01*
X93041577Y-82973233D01*
X93294845Y-83087048D01*
X93565452Y-83149266D01*
X93842997Y-83157495D01*
X94116814Y-83111420D01*
X94376381Y-83012811D01*
X94450423Y-82973233D01*
X94525514Y-82739440D01*
X93746000Y-81959926D01*
X92966486Y-82739440D01*
X62185600Y-82739440D01*
X62185600Y-82697659D01*
X62139269Y-82464740D01*
X62048389Y-82245334D01*
X61916450Y-82047875D01*
X61902015Y-82033440D01*
X85092486Y-82033440D01*
X85167577Y-82267233D01*
X85420845Y-82381048D01*
X85691452Y-82443266D01*
X85968997Y-82451495D01*
X86242814Y-82405420D01*
X86502381Y-82306811D01*
X86576423Y-82267233D01*
X86651514Y-82033440D01*
X86459471Y-81841397D01*
X92332905Y-81841397D01*
X92378980Y-82115214D01*
X92477589Y-82374781D01*
X92517167Y-82448823D01*
X92750960Y-82523914D01*
X93530474Y-81744400D01*
X93961526Y-81744400D01*
X94741040Y-82523914D01*
X94974833Y-82448823D01*
X95088648Y-82195555D01*
X95150866Y-81924948D01*
X95159095Y-81647403D01*
X95113020Y-81373586D01*
X95014411Y-81114019D01*
X94974833Y-81039977D01*
X94788072Y-80979992D01*
X100449400Y-80979992D01*
X100469015Y-81179143D01*
X100546529Y-81434675D01*
X100672406Y-81670174D01*
X100841808Y-81876591D01*
X101048225Y-82045994D01*
X101283724Y-82171871D01*
X101539256Y-82249385D01*
X101805000Y-82275559D01*
X102070743Y-82249385D01*
X102326275Y-82171871D01*
X102561774Y-82045994D01*
X102768191Y-81876592D01*
X102937594Y-81670175D01*
X103063471Y-81434676D01*
X103140985Y-81179144D01*
X103160600Y-80979993D01*
X103160600Y-79765800D01*
X106295400Y-79765800D01*
X106295400Y-81065800D01*
X106356060Y-81376889D01*
X106476245Y-81670166D01*
X106651336Y-81934361D01*
X106874604Y-82159321D01*
X107137470Y-82336401D01*
X107429832Y-82458796D01*
X107503811Y-82472201D01*
X107752600Y-82362609D01*
X107752600Y-79765800D01*
X108057400Y-79765800D01*
X108057400Y-82362609D01*
X108306189Y-82472201D01*
X108380168Y-82458796D01*
X108672530Y-82336401D01*
X108935396Y-82159321D01*
X109158664Y-81934361D01*
X109333755Y-81670166D01*
X109453940Y-81376889D01*
X109514600Y-81065800D01*
X109514600Y-79765800D01*
X108057400Y-79765800D01*
X107752600Y-79765800D01*
X106295400Y-79765800D01*
X103160600Y-79765800D01*
X103160600Y-78246807D01*
X103152149Y-78161000D01*
X106295400Y-78161000D01*
X106295400Y-79461000D01*
X107752600Y-79461000D01*
X107752600Y-76864191D01*
X108057400Y-76864191D01*
X108057400Y-79461000D01*
X109514600Y-79461000D01*
X109514600Y-78161000D01*
X109453940Y-77849911D01*
X109333755Y-77556634D01*
X109158664Y-77292439D01*
X108935396Y-77067479D01*
X108672530Y-76890399D01*
X108380168Y-76768004D01*
X108306189Y-76754599D01*
X108057400Y-76864191D01*
X107752600Y-76864191D01*
X107503811Y-76754599D01*
X107429832Y-76768004D01*
X107137470Y-76890399D01*
X106874604Y-77067479D01*
X106651336Y-77292439D01*
X106476245Y-77556634D01*
X106356060Y-77849911D01*
X106295400Y-78161000D01*
X103152149Y-78161000D01*
X103140985Y-78047656D01*
X103063471Y-77792124D01*
X102937594Y-77556625D01*
X102768192Y-77350208D01*
X102561775Y-77180806D01*
X102326276Y-77054929D01*
X102070744Y-76977415D01*
X101805000Y-76951241D01*
X101539257Y-76977415D01*
X101283725Y-77054929D01*
X101048226Y-77180806D01*
X100841809Y-77350208D01*
X100672407Y-77556625D01*
X100546530Y-77792124D01*
X100469016Y-78047656D01*
X100449401Y-78246807D01*
X100449400Y-80979992D01*
X94788072Y-80979992D01*
X94741040Y-80964886D01*
X93961526Y-81744400D01*
X93530474Y-81744400D01*
X92750960Y-80964886D01*
X92517167Y-81039977D01*
X92403352Y-81293245D01*
X92341134Y-81563852D01*
X92332905Y-81841397D01*
X86459471Y-81841397D01*
X85872000Y-81253926D01*
X85092486Y-82033440D01*
X61902015Y-82033440D01*
X61748525Y-81879950D01*
X61551066Y-81748011D01*
X61331660Y-81657131D01*
X61098741Y-81610800D01*
X60861259Y-81610800D01*
X60628340Y-81657131D01*
X60408934Y-81748011D01*
X60211475Y-81879950D01*
X60043550Y-82047875D01*
X59911611Y-82245334D01*
X59820731Y-82464740D01*
X59774400Y-82697659D01*
X59774400Y-82935141D01*
X59820731Y-83168060D01*
X59911611Y-83387466D01*
X60043550Y-83584925D01*
X60211475Y-83752850D01*
X60408934Y-83884789D01*
X60579068Y-83955260D01*
X60334587Y-84047244D01*
X60091585Y-84198313D01*
X59882724Y-84393886D01*
X59716031Y-84626448D01*
X59597911Y-84887062D01*
X59570090Y-84978793D01*
X58224100Y-84978793D01*
X58224100Y-76886400D01*
X59772680Y-76886400D01*
X59772680Y-78586400D01*
X59779546Y-78656110D01*
X59799879Y-78723140D01*
X59832899Y-78784916D01*
X59877337Y-78839063D01*
X59931484Y-78883501D01*
X59993260Y-78916521D01*
X60060290Y-78936854D01*
X60130000Y-78943720D01*
X60306901Y-78943720D01*
X60306900Y-79276188D01*
X60211475Y-79339950D01*
X60043550Y-79507875D01*
X59911611Y-79705334D01*
X59820731Y-79924740D01*
X59774400Y-80157659D01*
X59774400Y-80395141D01*
X59820731Y-80628060D01*
X59911611Y-80847466D01*
X60043550Y-81044925D01*
X60211475Y-81212850D01*
X60408934Y-81344789D01*
X60628340Y-81435669D01*
X60861259Y-81482000D01*
X61098741Y-81482000D01*
X61331660Y-81435669D01*
X61551066Y-81344789D01*
X61748525Y-81212850D01*
X61916450Y-81044925D01*
X62048389Y-80847466D01*
X62121655Y-80670583D01*
X66428400Y-80670583D01*
X66428400Y-80898217D01*
X66472809Y-81121476D01*
X66559921Y-81331782D01*
X66686387Y-81521052D01*
X66847348Y-81682013D01*
X67036618Y-81808479D01*
X67246924Y-81895591D01*
X67470183Y-81940000D01*
X67697817Y-81940000D01*
X67921076Y-81895591D01*
X68131382Y-81808479D01*
X68320652Y-81682013D01*
X68481613Y-81521052D01*
X68608079Y-81331782D01*
X68695191Y-81121476D01*
X68739600Y-80898217D01*
X68739600Y-80670583D01*
X68695191Y-80447324D01*
X68608079Y-80237018D01*
X68481613Y-80047748D01*
X68418265Y-79984400D01*
X74046680Y-79984400D01*
X74046680Y-81584400D01*
X74053546Y-81654110D01*
X74073879Y-81721140D01*
X74106899Y-81782916D01*
X74151337Y-81837063D01*
X74205484Y-81881501D01*
X74267260Y-81914521D01*
X74334290Y-81934854D01*
X74404000Y-81941720D01*
X76004000Y-81941720D01*
X76073710Y-81934854D01*
X76140740Y-81914521D01*
X76202516Y-81881501D01*
X76256663Y-81837063D01*
X76301101Y-81782916D01*
X76334121Y-81721140D01*
X76354454Y-81654110D01*
X76361320Y-81584400D01*
X76361320Y-79984400D01*
X78872680Y-79984400D01*
X78872680Y-81584400D01*
X78879546Y-81654110D01*
X78899879Y-81721140D01*
X78932899Y-81782916D01*
X78977337Y-81837063D01*
X79031484Y-81881501D01*
X79093260Y-81914521D01*
X79160290Y-81934854D01*
X79230000Y-81941720D01*
X80830000Y-81941720D01*
X80899710Y-81934854D01*
X80966740Y-81914521D01*
X81028516Y-81881501D01*
X81082663Y-81837063D01*
X81127101Y-81782916D01*
X81160121Y-81721140D01*
X81180454Y-81654110D01*
X81187320Y-81584400D01*
X81187320Y-81135397D01*
X84458905Y-81135397D01*
X84504980Y-81409214D01*
X84603589Y-81668781D01*
X84643167Y-81742823D01*
X84876960Y-81817914D01*
X85656474Y-81038400D01*
X86087526Y-81038400D01*
X86867040Y-81817914D01*
X87100833Y-81742823D01*
X87214648Y-81489555D01*
X87276866Y-81218948D01*
X87285095Y-80941403D01*
X87252781Y-80749360D01*
X92966486Y-80749360D01*
X93746000Y-81528874D01*
X94525514Y-80749360D01*
X94450423Y-80515567D01*
X94197155Y-80401752D01*
X93926548Y-80339534D01*
X93649003Y-80331305D01*
X93375186Y-80377380D01*
X93115619Y-80475989D01*
X93041577Y-80515567D01*
X92966486Y-80749360D01*
X87252781Y-80749360D01*
X87239020Y-80667586D01*
X87140411Y-80408019D01*
X87100833Y-80333977D01*
X86867040Y-80258886D01*
X86087526Y-81038400D01*
X85656474Y-81038400D01*
X84876960Y-80258886D01*
X84643167Y-80333977D01*
X84529352Y-80587245D01*
X84467134Y-80857852D01*
X84458905Y-81135397D01*
X81187320Y-81135397D01*
X81187320Y-79984400D01*
X81180454Y-79914690D01*
X81160121Y-79847660D01*
X81127101Y-79785884D01*
X81082663Y-79731737D01*
X81028516Y-79687299D01*
X80966740Y-79654279D01*
X80899710Y-79633946D01*
X80830000Y-79627080D01*
X80464884Y-79627080D01*
X80660381Y-79552811D01*
X80734423Y-79513233D01*
X80809514Y-79279440D01*
X80030000Y-78499926D01*
X79250486Y-79279440D01*
X79325577Y-79513233D01*
X79578845Y-79627048D01*
X79578984Y-79627080D01*
X79230000Y-79627080D01*
X79160290Y-79633946D01*
X79093260Y-79654279D01*
X79031484Y-79687299D01*
X78977337Y-79731737D01*
X78932899Y-79785884D01*
X78899879Y-79847660D01*
X78879546Y-79914690D01*
X78872680Y-79984400D01*
X76361320Y-79984400D01*
X76354454Y-79914690D01*
X76334121Y-79847660D01*
X76301101Y-79785884D01*
X76256663Y-79731737D01*
X76202516Y-79687299D01*
X76140740Y-79654279D01*
X76073710Y-79633946D01*
X76004000Y-79627080D01*
X74404000Y-79627080D01*
X74334290Y-79633946D01*
X74267260Y-79654279D01*
X74205484Y-79687299D01*
X74151337Y-79731737D01*
X74106899Y-79785884D01*
X74073879Y-79847660D01*
X74053546Y-79914690D01*
X74046680Y-79984400D01*
X68418265Y-79984400D01*
X68320652Y-79886787D01*
X68131382Y-79760321D01*
X67921076Y-79673209D01*
X67697817Y-79628800D01*
X67470183Y-79628800D01*
X67246924Y-79673209D01*
X67036618Y-79760321D01*
X66847348Y-79886787D01*
X66686387Y-80047748D01*
X66559921Y-80237018D01*
X66472809Y-80447324D01*
X66428400Y-80670583D01*
X62121655Y-80670583D01*
X62139269Y-80628060D01*
X62185600Y-80395141D01*
X62185600Y-80157659D01*
X62139269Y-79924740D01*
X62048389Y-79705334D01*
X61916450Y-79507875D01*
X61748525Y-79339950D01*
X61653100Y-79276189D01*
X61653100Y-78943720D01*
X61830000Y-78943720D01*
X61899710Y-78936854D01*
X61966740Y-78916521D01*
X62028516Y-78883501D01*
X62082663Y-78839063D01*
X62127101Y-78784916D01*
X62160121Y-78723140D01*
X62180454Y-78656110D01*
X62187320Y-78586400D01*
X62187320Y-76886400D01*
X62180454Y-76816690D01*
X62160121Y-76749660D01*
X62127101Y-76687884D01*
X62082663Y-76633737D01*
X62028516Y-76589299D01*
X61966740Y-76556279D01*
X61899710Y-76535946D01*
X61830000Y-76529080D01*
X60130000Y-76529080D01*
X60060290Y-76535946D01*
X59993260Y-76556279D01*
X59931484Y-76589299D01*
X59877337Y-76633737D01*
X59832899Y-76687884D01*
X59799879Y-76749660D01*
X59779546Y-76816690D01*
X59772680Y-76886400D01*
X58224100Y-76886400D01*
X58224100Y-76074141D01*
X66223756Y-76074141D01*
X66247577Y-76152685D01*
X66360712Y-76404795D01*
X66520857Y-76629989D01*
X66721858Y-76819613D01*
X66955991Y-76966380D01*
X67214258Y-77064650D01*
X67431598Y-76953344D01*
X67431598Y-77096475D01*
X67246924Y-77133209D01*
X67036618Y-77220321D01*
X66847348Y-77346787D01*
X66686387Y-77507748D01*
X66559921Y-77697018D01*
X66472809Y-77907324D01*
X66428400Y-78130583D01*
X66428400Y-78358217D01*
X66472809Y-78581476D01*
X66559921Y-78791782D01*
X66686387Y-78981052D01*
X66847348Y-79142013D01*
X67036618Y-79268479D01*
X67246924Y-79355591D01*
X67470183Y-79400000D01*
X67697817Y-79400000D01*
X67921076Y-79355591D01*
X68131382Y-79268479D01*
X68320652Y-79142013D01*
X68481613Y-78981052D01*
X68608079Y-78791782D01*
X68695191Y-78581476D01*
X68739600Y-78358217D01*
X68739600Y-78130583D01*
X68695191Y-77907324D01*
X68608079Y-77697018D01*
X68481613Y-77507748D01*
X68320652Y-77346787D01*
X68131382Y-77220321D01*
X67921076Y-77133209D01*
X67736402Y-77096475D01*
X67736402Y-76953344D01*
X67953742Y-77064650D01*
X68212009Y-76966380D01*
X68446142Y-76819613D01*
X68647143Y-76629989D01*
X68807288Y-76404795D01*
X68920423Y-76152685D01*
X68944244Y-76074141D01*
X73843756Y-76074141D01*
X73867577Y-76152685D01*
X73980712Y-76404795D01*
X74140857Y-76629989D01*
X74341858Y-76819613D01*
X74575991Y-76966380D01*
X74834258Y-77064650D01*
X75051598Y-76953344D01*
X75051598Y-77096475D01*
X74866924Y-77133209D01*
X74656618Y-77220321D01*
X74467348Y-77346787D01*
X74306387Y-77507748D01*
X74179921Y-77697018D01*
X74092809Y-77907324D01*
X74048400Y-78130583D01*
X74048400Y-78358217D01*
X74092809Y-78581476D01*
X74179921Y-78791782D01*
X74306387Y-78981052D01*
X74467348Y-79142013D01*
X74656618Y-79268479D01*
X74866924Y-79355591D01*
X75090183Y-79400000D01*
X75317817Y-79400000D01*
X75541076Y-79355591D01*
X75751382Y-79268479D01*
X75940652Y-79142013D01*
X76101613Y-78981052D01*
X76228079Y-78791782D01*
X76315191Y-78581476D01*
X76354989Y-78381397D01*
X78616905Y-78381397D01*
X78662980Y-78655214D01*
X78761589Y-78914781D01*
X78801167Y-78988823D01*
X79034960Y-79063914D01*
X79814474Y-78284400D01*
X80245526Y-78284400D01*
X81025040Y-79063914D01*
X81258833Y-78988823D01*
X81372648Y-78735555D01*
X81434866Y-78464948D01*
X81436062Y-78424583D01*
X84716400Y-78424583D01*
X84716400Y-78652217D01*
X84760809Y-78875476D01*
X84847921Y-79085782D01*
X84974387Y-79275052D01*
X85135348Y-79436013D01*
X85324618Y-79562479D01*
X85534924Y-79649591D01*
X85578804Y-79658319D01*
X85501186Y-79671380D01*
X85241619Y-79769989D01*
X85167577Y-79809567D01*
X85092486Y-80043360D01*
X85872000Y-80822874D01*
X86651514Y-80043360D01*
X86576423Y-79809567D01*
X86323155Y-79695752D01*
X86162596Y-79658836D01*
X86209076Y-79649591D01*
X86419382Y-79562479D01*
X86608652Y-79436013D01*
X86769613Y-79275052D01*
X86896079Y-79085782D01*
X86983191Y-78875476D01*
X87027600Y-78652217D01*
X87027600Y-78424583D01*
X86983191Y-78201324D01*
X86896079Y-77991018D01*
X86769613Y-77801748D01*
X86608652Y-77640787D01*
X86419382Y-77514321D01*
X86250579Y-77444400D01*
X92588680Y-77444400D01*
X92588680Y-79044400D01*
X92595546Y-79114110D01*
X92615879Y-79181140D01*
X92648899Y-79242916D01*
X92693337Y-79297063D01*
X92747484Y-79341501D01*
X92809260Y-79374521D01*
X92876290Y-79394854D01*
X92946000Y-79401720D01*
X94546000Y-79401720D01*
X94615710Y-79394854D01*
X94682740Y-79374521D01*
X94744516Y-79341501D01*
X94798663Y-79297063D01*
X94843101Y-79242916D01*
X94876121Y-79181140D01*
X94896454Y-79114110D01*
X94903320Y-79044400D01*
X94903320Y-77444400D01*
X94896454Y-77374690D01*
X94876121Y-77307660D01*
X94843101Y-77245884D01*
X94798663Y-77191737D01*
X94744516Y-77147299D01*
X94682740Y-77114279D01*
X94615710Y-77093946D01*
X94546000Y-77087080D01*
X92946000Y-77087080D01*
X92876290Y-77093946D01*
X92809260Y-77114279D01*
X92747484Y-77147299D01*
X92693337Y-77191737D01*
X92648899Y-77245884D01*
X92615879Y-77307660D01*
X92595546Y-77374690D01*
X92588680Y-77444400D01*
X86250579Y-77444400D01*
X86209076Y-77427209D01*
X85985817Y-77382800D01*
X85758183Y-77382800D01*
X85534924Y-77427209D01*
X85324618Y-77514321D01*
X85135348Y-77640787D01*
X84974387Y-77801748D01*
X84847921Y-77991018D01*
X84760809Y-78201324D01*
X84716400Y-78424583D01*
X81436062Y-78424583D01*
X81443095Y-78187403D01*
X81397020Y-77913586D01*
X81298411Y-77654019D01*
X81258833Y-77579977D01*
X81025040Y-77504886D01*
X80245526Y-78284400D01*
X79814474Y-78284400D01*
X79034960Y-77504886D01*
X78801167Y-77579977D01*
X78687352Y-77833245D01*
X78625134Y-78103852D01*
X78616905Y-78381397D01*
X76354989Y-78381397D01*
X76359600Y-78358217D01*
X76359600Y-78130583D01*
X76315191Y-77907324D01*
X76228079Y-77697018D01*
X76101613Y-77507748D01*
X75940652Y-77346787D01*
X75854707Y-77289360D01*
X79250486Y-77289360D01*
X80030000Y-78068874D01*
X80809514Y-77289360D01*
X80734423Y-77055567D01*
X80481155Y-76941752D01*
X80210548Y-76879534D01*
X79933003Y-76871305D01*
X79659186Y-76917380D01*
X79399619Y-77015989D01*
X79325577Y-77055567D01*
X79250486Y-77289360D01*
X75854707Y-77289360D01*
X75751382Y-77220321D01*
X75541076Y-77133209D01*
X75356402Y-77096475D01*
X75356402Y-76953344D01*
X75573742Y-77064650D01*
X75832009Y-76966380D01*
X76066142Y-76819613D01*
X76267143Y-76629989D01*
X76427288Y-76404795D01*
X76540423Y-76152685D01*
X76564244Y-76074141D01*
X76451929Y-75856800D01*
X75356400Y-75856800D01*
X75356400Y-75876800D01*
X75051600Y-75876800D01*
X75051600Y-75856800D01*
X73956071Y-75856800D01*
X73843756Y-76074141D01*
X68944244Y-76074141D01*
X68831929Y-75856800D01*
X67736400Y-75856800D01*
X67736400Y-75876800D01*
X67431600Y-75876800D01*
X67431600Y-75856800D01*
X66336071Y-75856800D01*
X66223756Y-76074141D01*
X58224100Y-76074141D01*
X58224100Y-73137583D01*
X59824400Y-73137583D01*
X59824400Y-73365217D01*
X59868809Y-73588476D01*
X59955921Y-73798782D01*
X60082387Y-73988052D01*
X60243348Y-74149013D01*
X60432618Y-74275479D01*
X60642924Y-74362591D01*
X60866183Y-74407000D01*
X61093817Y-74407000D01*
X61317076Y-74362591D01*
X61527382Y-74275479D01*
X61716652Y-74149013D01*
X61877613Y-73988052D01*
X62004079Y-73798782D01*
X62091191Y-73588476D01*
X62101998Y-73534141D01*
X66223756Y-73534141D01*
X66247577Y-73612685D01*
X66360712Y-73864795D01*
X66520857Y-74089989D01*
X66721858Y-74279613D01*
X66955991Y-74426380D01*
X66977069Y-74434400D01*
X66955991Y-74442420D01*
X66721858Y-74589187D01*
X66520857Y-74778811D01*
X66360712Y-75004005D01*
X66247577Y-75256115D01*
X66223756Y-75334659D01*
X66336071Y-75552000D01*
X67431600Y-75552000D01*
X67431600Y-74455457D01*
X67390483Y-74434400D01*
X67431600Y-74413343D01*
X67431600Y-73316800D01*
X67736400Y-73316800D01*
X67736400Y-74413343D01*
X67777517Y-74434400D01*
X67736400Y-74455457D01*
X67736400Y-75552000D01*
X68831929Y-75552000D01*
X68944244Y-75334659D01*
X68920423Y-75256115D01*
X68807288Y-75004005D01*
X68647143Y-74778811D01*
X68446142Y-74589187D01*
X68212009Y-74442420D01*
X68190931Y-74434400D01*
X68212009Y-74426380D01*
X68446142Y-74279613D01*
X68647143Y-74089989D01*
X68807288Y-73864795D01*
X68920423Y-73612685D01*
X68944244Y-73534141D01*
X73843756Y-73534141D01*
X73867577Y-73612685D01*
X73980712Y-73864795D01*
X74140857Y-74089989D01*
X74341858Y-74279613D01*
X74575991Y-74426380D01*
X74597069Y-74434400D01*
X74575991Y-74442420D01*
X74341858Y-74589187D01*
X74140857Y-74778811D01*
X73980712Y-75004005D01*
X73867577Y-75256115D01*
X73843756Y-75334659D01*
X73956071Y-75552000D01*
X75051600Y-75552000D01*
X75051600Y-74455457D01*
X75010483Y-74434400D01*
X75051600Y-74413343D01*
X75051600Y-73316800D01*
X75356400Y-73316800D01*
X75356400Y-74413343D01*
X75397517Y-74434400D01*
X75356400Y-74455457D01*
X75356400Y-75552000D01*
X76451929Y-75552000D01*
X76522938Y-75414589D01*
X101846199Y-75414589D01*
X101859604Y-75488568D01*
X101981999Y-75780930D01*
X102159079Y-76043796D01*
X102384039Y-76267064D01*
X102648234Y-76442155D01*
X102941511Y-76562340D01*
X103252600Y-76623000D01*
X104552600Y-76623000D01*
X104552600Y-75165800D01*
X104857400Y-75165800D01*
X104857400Y-76623000D01*
X106157400Y-76623000D01*
X106468489Y-76562340D01*
X106761766Y-76442155D01*
X107025961Y-76267064D01*
X107250921Y-76043796D01*
X107428001Y-75780930D01*
X107550396Y-75488568D01*
X107563801Y-75414589D01*
X107454209Y-75165800D01*
X104857400Y-75165800D01*
X104552600Y-75165800D01*
X101955791Y-75165800D01*
X101846199Y-75414589D01*
X76522938Y-75414589D01*
X76564244Y-75334659D01*
X76540423Y-75256115D01*
X76427288Y-75004005D01*
X76267143Y-74778811D01*
X76066142Y-74589187D01*
X75832009Y-74442420D01*
X75810931Y-74434400D01*
X75832009Y-74426380D01*
X76066142Y-74279613D01*
X76267143Y-74089989D01*
X76427288Y-73864795D01*
X76540423Y-73612685D01*
X76564244Y-73534141D01*
X76451929Y-73316800D01*
X75356400Y-73316800D01*
X75051600Y-73316800D01*
X73956071Y-73316800D01*
X73843756Y-73534141D01*
X68944244Y-73534141D01*
X68831929Y-73316800D01*
X67736400Y-73316800D01*
X67431600Y-73316800D01*
X66336071Y-73316800D01*
X66223756Y-73534141D01*
X62101998Y-73534141D01*
X62135600Y-73365217D01*
X62135600Y-73137583D01*
X62091191Y-72914324D01*
X62004079Y-72704018D01*
X61877613Y-72514748D01*
X61716652Y-72353787D01*
X61527382Y-72227321D01*
X61317076Y-72140209D01*
X61093817Y-72095800D01*
X60866183Y-72095800D01*
X60642924Y-72140209D01*
X60432618Y-72227321D01*
X60243348Y-72353787D01*
X60082387Y-72514748D01*
X59955921Y-72704018D01*
X59868809Y-72914324D01*
X59824400Y-73137583D01*
X58224100Y-73137583D01*
X58224100Y-69951400D01*
X59822680Y-69951400D01*
X59822680Y-71551400D01*
X59829546Y-71621110D01*
X59849879Y-71688140D01*
X59882899Y-71749916D01*
X59927337Y-71804063D01*
X59981484Y-71848501D01*
X60043260Y-71881521D01*
X60110290Y-71901854D01*
X60180000Y-71908720D01*
X61780000Y-71908720D01*
X61849710Y-71901854D01*
X61916740Y-71881521D01*
X61978516Y-71848501D01*
X62032663Y-71804063D01*
X62077101Y-71749916D01*
X62110121Y-71688140D01*
X62130454Y-71621110D01*
X62137320Y-71551400D01*
X62137320Y-70994141D01*
X66223756Y-70994141D01*
X66247577Y-71072685D01*
X66360712Y-71324795D01*
X66520857Y-71549989D01*
X66721858Y-71739613D01*
X66955991Y-71886380D01*
X66977069Y-71894400D01*
X66955991Y-71902420D01*
X66721858Y-72049187D01*
X66520857Y-72238811D01*
X66360712Y-72464005D01*
X66247577Y-72716115D01*
X66223756Y-72794659D01*
X66336071Y-73012000D01*
X67431600Y-73012000D01*
X67431600Y-71915457D01*
X67390483Y-71894400D01*
X67431600Y-71873343D01*
X67431600Y-70776800D01*
X67736400Y-70776800D01*
X67736400Y-71873343D01*
X67777517Y-71894400D01*
X67736400Y-71915457D01*
X67736400Y-73012000D01*
X68831929Y-73012000D01*
X68944244Y-72794659D01*
X68920423Y-72716115D01*
X68807288Y-72464005D01*
X68647143Y-72238811D01*
X68446142Y-72049187D01*
X68212009Y-71902420D01*
X68190931Y-71894400D01*
X68212009Y-71886380D01*
X68446142Y-71739613D01*
X68647143Y-71549989D01*
X68807288Y-71324795D01*
X68920423Y-71072685D01*
X68944244Y-70994141D01*
X73843756Y-70994141D01*
X73867577Y-71072685D01*
X73980712Y-71324795D01*
X74140857Y-71549989D01*
X74341858Y-71739613D01*
X74575991Y-71886380D01*
X74597069Y-71894400D01*
X74575991Y-71902420D01*
X74341858Y-72049187D01*
X74140857Y-72238811D01*
X73980712Y-72464005D01*
X73867577Y-72716115D01*
X73843756Y-72794659D01*
X73956071Y-73012000D01*
X75051600Y-73012000D01*
X75051600Y-71915457D01*
X75010483Y-71894400D01*
X75051600Y-71873343D01*
X75051600Y-70776800D01*
X75356400Y-70776800D01*
X75356400Y-71873343D01*
X75397517Y-71894400D01*
X75356400Y-71915457D01*
X75356400Y-73012000D01*
X76451929Y-73012000D01*
X76564244Y-72794659D01*
X76540423Y-72716115D01*
X76427288Y-72464005D01*
X76267143Y-72238811D01*
X76066142Y-72049187D01*
X75832009Y-71902420D01*
X75810931Y-71894400D01*
X75832009Y-71886380D01*
X76066142Y-71739613D01*
X76267143Y-71549989D01*
X76427288Y-71324795D01*
X76540423Y-71072685D01*
X76550740Y-71038666D01*
X93771400Y-71038666D01*
X93771400Y-71734134D01*
X93907079Y-72416238D01*
X94173223Y-73058766D01*
X94559604Y-73637026D01*
X95051374Y-74128796D01*
X95629634Y-74515177D01*
X96272162Y-74781321D01*
X96954266Y-74917000D01*
X97649734Y-74917000D01*
X98331838Y-74781321D01*
X98740105Y-74612211D01*
X101846199Y-74612211D01*
X101955791Y-74861000D01*
X104552600Y-74861000D01*
X104552600Y-73403800D01*
X104857400Y-73403800D01*
X104857400Y-74861000D01*
X107454209Y-74861000D01*
X107563801Y-74612211D01*
X107550396Y-74538232D01*
X107428001Y-74245870D01*
X107250921Y-73983004D01*
X107025961Y-73759736D01*
X106761766Y-73584645D01*
X106468489Y-73464460D01*
X106157400Y-73403800D01*
X104857400Y-73403800D01*
X104552600Y-73403800D01*
X103252600Y-73403800D01*
X102941511Y-73464460D01*
X102648234Y-73584645D01*
X102384039Y-73759736D01*
X102159079Y-73983004D01*
X101981999Y-74245870D01*
X101859604Y-74538232D01*
X101846199Y-74612211D01*
X98740105Y-74612211D01*
X98974366Y-74515177D01*
X99552626Y-74128796D01*
X100044396Y-73637026D01*
X100430777Y-73058766D01*
X100696921Y-72416238D01*
X100832600Y-71734134D01*
X100832600Y-71038666D01*
X100696921Y-70356562D01*
X100430777Y-69714034D01*
X100044396Y-69135774D01*
X99552626Y-68644004D01*
X98974366Y-68257623D01*
X98331838Y-67991479D01*
X97649734Y-67855800D01*
X96954266Y-67855800D01*
X96272162Y-67991479D01*
X95629634Y-68257623D01*
X95051374Y-68644004D01*
X94559604Y-69135774D01*
X94173223Y-69714034D01*
X93907079Y-70356562D01*
X93771400Y-71038666D01*
X76550740Y-71038666D01*
X76564244Y-70994141D01*
X76451929Y-70776800D01*
X75356400Y-70776800D01*
X75051600Y-70776800D01*
X73956071Y-70776800D01*
X73843756Y-70994141D01*
X68944244Y-70994141D01*
X68831929Y-70776800D01*
X67736400Y-70776800D01*
X67431600Y-70776800D01*
X66336071Y-70776800D01*
X66223756Y-70994141D01*
X62137320Y-70994141D01*
X62137320Y-70254659D01*
X66223756Y-70254659D01*
X66336071Y-70472000D01*
X67431600Y-70472000D01*
X67431600Y-70452000D01*
X67736400Y-70452000D01*
X67736400Y-70472000D01*
X68831929Y-70472000D01*
X68944244Y-70254659D01*
X68920423Y-70176115D01*
X68807288Y-69924005D01*
X68647143Y-69698811D01*
X68446142Y-69509187D01*
X68212009Y-69362420D01*
X67953742Y-69264150D01*
X67736402Y-69375456D01*
X67736402Y-69232325D01*
X67921076Y-69195591D01*
X68131382Y-69108479D01*
X68320652Y-68982013D01*
X68481613Y-68821052D01*
X68608079Y-68631782D01*
X68681660Y-68454141D01*
X73843756Y-68454141D01*
X73867577Y-68532685D01*
X73980712Y-68784795D01*
X74140857Y-69009989D01*
X74341858Y-69199613D01*
X74575991Y-69346380D01*
X74597069Y-69354400D01*
X74575991Y-69362420D01*
X74341858Y-69509187D01*
X74140857Y-69698811D01*
X73980712Y-69924005D01*
X73867577Y-70176115D01*
X73843756Y-70254659D01*
X73956071Y-70472000D01*
X75051600Y-70472000D01*
X75051600Y-69375457D01*
X75010483Y-69354400D01*
X75051600Y-69333343D01*
X75051600Y-68236800D01*
X75356400Y-68236800D01*
X75356400Y-69333343D01*
X75397517Y-69354400D01*
X75356400Y-69375457D01*
X75356400Y-70472000D01*
X76451929Y-70472000D01*
X76564244Y-70254659D01*
X76540423Y-70176115D01*
X76427288Y-69924005D01*
X76267143Y-69698811D01*
X76066142Y-69509187D01*
X75832009Y-69362420D01*
X75810931Y-69354400D01*
X75832009Y-69346380D01*
X76066142Y-69199613D01*
X76267143Y-69009989D01*
X76427288Y-68784795D01*
X76540423Y-68532685D01*
X76564244Y-68454141D01*
X76451929Y-68236800D01*
X75356400Y-68236800D01*
X75051600Y-68236800D01*
X73956071Y-68236800D01*
X73843756Y-68454141D01*
X68681660Y-68454141D01*
X68695191Y-68421476D01*
X68739600Y-68198217D01*
X68739600Y-67970583D01*
X68695191Y-67747324D01*
X68608079Y-67537018D01*
X68481613Y-67347748D01*
X68320652Y-67186787D01*
X68131382Y-67060321D01*
X67921076Y-66973209D01*
X67697817Y-66928800D01*
X67470183Y-66928800D01*
X67246924Y-66973209D01*
X67036618Y-67060321D01*
X66847348Y-67186787D01*
X66686387Y-67347748D01*
X66559921Y-67537018D01*
X66472809Y-67747324D01*
X66428400Y-67970583D01*
X66428400Y-68198217D01*
X66472809Y-68421476D01*
X66559921Y-68631782D01*
X66686387Y-68821052D01*
X66847348Y-68982013D01*
X67036618Y-69108479D01*
X67246924Y-69195591D01*
X67431598Y-69232325D01*
X67431598Y-69375456D01*
X67214258Y-69264150D01*
X66955991Y-69362420D01*
X66721858Y-69509187D01*
X66520857Y-69698811D01*
X66360712Y-69924005D01*
X66247577Y-70176115D01*
X66223756Y-70254659D01*
X62137320Y-70254659D01*
X62137320Y-69951400D01*
X62130454Y-69881690D01*
X62110121Y-69814660D01*
X62077101Y-69752884D01*
X62032663Y-69698737D01*
X61978516Y-69654299D01*
X61916740Y-69621279D01*
X61849710Y-69600946D01*
X61780000Y-69594080D01*
X60180000Y-69594080D01*
X60110290Y-69600946D01*
X60043260Y-69621279D01*
X59981484Y-69654299D01*
X59927337Y-69698737D01*
X59882899Y-69752884D01*
X59849879Y-69814660D01*
X59829546Y-69881690D01*
X59822680Y-69951400D01*
X58224100Y-69951400D01*
X58224100Y-65898583D01*
X62618400Y-65898583D01*
X62618400Y-66126217D01*
X62662809Y-66349476D01*
X62749921Y-66559782D01*
X62876387Y-66749052D01*
X63037348Y-66910013D01*
X63226618Y-67036479D01*
X63436924Y-67123591D01*
X63660183Y-67168000D01*
X63887817Y-67168000D01*
X64111076Y-67123591D01*
X64321382Y-67036479D01*
X64510652Y-66910013D01*
X64671613Y-66749052D01*
X64714077Y-66685500D01*
X64886944Y-66685500D01*
X64920000Y-66688756D01*
X64953056Y-66685500D01*
X64953059Y-66685500D01*
X65051951Y-66675760D01*
X65178830Y-66637271D01*
X65295763Y-66574769D01*
X65398256Y-66490656D01*
X65419334Y-66464972D01*
X66272581Y-65611726D01*
X66298255Y-65590656D01*
X66319326Y-65564981D01*
X66319329Y-65564978D01*
X66382369Y-65488164D01*
X66427672Y-65403407D01*
X66437441Y-65385130D01*
X66428400Y-65430583D01*
X66428400Y-65658217D01*
X66472809Y-65881476D01*
X66559921Y-66091782D01*
X66686387Y-66281052D01*
X66847348Y-66442013D01*
X67036618Y-66568479D01*
X67246924Y-66655591D01*
X67470183Y-66700000D01*
X67697817Y-66700000D01*
X67921076Y-66655591D01*
X68131382Y-66568479D01*
X68320652Y-66442013D01*
X68481613Y-66281052D01*
X68608079Y-66091782D01*
X68681660Y-65914141D01*
X73843756Y-65914141D01*
X73867577Y-65992685D01*
X73980712Y-66244795D01*
X74140857Y-66469989D01*
X74341858Y-66659613D01*
X74575991Y-66806380D01*
X74597069Y-66814400D01*
X74575991Y-66822420D01*
X74341858Y-66969187D01*
X74140857Y-67158811D01*
X73980712Y-67384005D01*
X73867577Y-67636115D01*
X73843756Y-67714659D01*
X73956071Y-67932000D01*
X75051600Y-67932000D01*
X75051600Y-66835457D01*
X75010483Y-66814400D01*
X75051600Y-66793343D01*
X75051600Y-65696800D01*
X75356400Y-65696800D01*
X75356400Y-66793343D01*
X75397517Y-66814400D01*
X75356400Y-66835457D01*
X75356400Y-67932000D01*
X76451929Y-67932000D01*
X76564244Y-67714659D01*
X76540423Y-67636115D01*
X76427288Y-67384005D01*
X76267143Y-67158811D01*
X76066142Y-66969187D01*
X75832009Y-66822420D01*
X75810931Y-66814400D01*
X75832009Y-66806380D01*
X76066142Y-66659613D01*
X76267143Y-66469989D01*
X76427288Y-66244795D01*
X76540423Y-65992685D01*
X76564244Y-65914141D01*
X76451929Y-65696800D01*
X75356400Y-65696800D01*
X75051600Y-65696800D01*
X73956071Y-65696800D01*
X73843756Y-65914141D01*
X68681660Y-65914141D01*
X68695191Y-65881476D01*
X68739600Y-65658217D01*
X68739600Y-65430583D01*
X68695191Y-65207324D01*
X68681661Y-65174659D01*
X73843756Y-65174659D01*
X73956071Y-65392000D01*
X75051600Y-65392000D01*
X75051600Y-64295457D01*
X75356400Y-64295457D01*
X75356400Y-65392000D01*
X76451929Y-65392000D01*
X76564244Y-65174659D01*
X76540423Y-65096115D01*
X76427288Y-64844005D01*
X76267143Y-64618811D01*
X76066142Y-64429187D01*
X75832009Y-64282420D01*
X75573742Y-64184150D01*
X75356400Y-64295457D01*
X75051600Y-64295457D01*
X74834258Y-64184150D01*
X74575991Y-64282420D01*
X74341858Y-64429187D01*
X74140857Y-64618811D01*
X73980712Y-64844005D01*
X73867577Y-65096115D01*
X73843756Y-65174659D01*
X68681661Y-65174659D01*
X68608079Y-64997018D01*
X68481613Y-64807748D01*
X68320652Y-64646787D01*
X68131382Y-64520321D01*
X67921076Y-64433209D01*
X67697817Y-64388800D01*
X67470183Y-64388800D01*
X67246924Y-64433209D01*
X67036618Y-64520321D01*
X66847348Y-64646787D01*
X66686387Y-64807748D01*
X66559921Y-64997018D01*
X66491436Y-65162355D01*
X66493100Y-65145459D01*
X66493100Y-65145449D01*
X66496355Y-65112401D01*
X66493100Y-65079352D01*
X66493100Y-64245206D01*
X66870571Y-63867735D01*
X102611291Y-63867735D01*
X102857973Y-64247077D01*
X103353687Y-64502991D01*
X103889803Y-64657279D01*
X104445717Y-64704011D01*
X105000066Y-64641392D01*
X105531548Y-64471827D01*
X105952027Y-64247077D01*
X106198709Y-63867735D01*
X104405000Y-62074026D01*
X102611291Y-63867735D01*
X66870571Y-63867735D01*
X67568807Y-63169500D01*
X73900944Y-63169500D01*
X73934000Y-63172756D01*
X73967056Y-63169500D01*
X73967059Y-63169500D01*
X74065951Y-63159760D01*
X74192830Y-63121271D01*
X74309763Y-63058769D01*
X74412256Y-62974656D01*
X74433334Y-62948972D01*
X74894581Y-62487726D01*
X74920255Y-62466656D01*
X74941326Y-62440981D01*
X74941329Y-62440978D01*
X75004369Y-62364164D01*
X75066870Y-62247231D01*
X75066871Y-62247230D01*
X75105360Y-62120351D01*
X75115100Y-62021459D01*
X75115100Y-62021449D01*
X75118355Y-61988401D01*
X75115100Y-61955352D01*
X75115100Y-61150477D01*
X75178652Y-61108013D01*
X75339613Y-60947052D01*
X75466079Y-60757782D01*
X75475764Y-60734400D01*
X95182680Y-60734400D01*
X95182680Y-62734400D01*
X95189546Y-62804110D01*
X95209879Y-62871140D01*
X95242899Y-62932916D01*
X95287337Y-62987063D01*
X95341484Y-63031501D01*
X95403260Y-63064521D01*
X95470290Y-63084854D01*
X95540000Y-63091720D01*
X97540000Y-63091720D01*
X97609710Y-63084854D01*
X97676740Y-63064521D01*
X97738516Y-63031501D01*
X97792663Y-62987063D01*
X97837101Y-62932916D01*
X97870121Y-62871140D01*
X97890454Y-62804110D01*
X97897320Y-62734400D01*
X97897320Y-61899217D01*
X101559489Y-61899217D01*
X101622108Y-62453566D01*
X101791673Y-62985048D01*
X102016423Y-63405527D01*
X102395765Y-63652209D01*
X104189474Y-61858500D01*
X104620526Y-61858500D01*
X106414235Y-63652209D01*
X106793577Y-63405527D01*
X107049491Y-62909813D01*
X107203779Y-62373697D01*
X107250511Y-61817783D01*
X107187892Y-61263434D01*
X107018327Y-60731952D01*
X106793577Y-60311473D01*
X106414235Y-60064791D01*
X104620526Y-61858500D01*
X104189474Y-61858500D01*
X102395765Y-60064791D01*
X102016423Y-60311473D01*
X101760509Y-60807187D01*
X101606221Y-61343303D01*
X101559489Y-61899217D01*
X97897320Y-61899217D01*
X97897320Y-60734400D01*
X97890454Y-60664690D01*
X97870121Y-60597660D01*
X97837101Y-60535884D01*
X97792663Y-60481737D01*
X97738516Y-60437299D01*
X97676740Y-60404279D01*
X97609710Y-60383946D01*
X97540000Y-60377080D01*
X95540000Y-60377080D01*
X95470290Y-60383946D01*
X95403260Y-60404279D01*
X95341484Y-60437299D01*
X95287337Y-60481737D01*
X95242899Y-60535884D01*
X95209879Y-60597660D01*
X95189546Y-60664690D01*
X95182680Y-60734400D01*
X75475764Y-60734400D01*
X75553191Y-60547476D01*
X75597600Y-60324217D01*
X75597600Y-60096583D01*
X75553191Y-59873324D01*
X75543226Y-59849265D01*
X102611291Y-59849265D01*
X104405000Y-61642974D01*
X106198709Y-59849265D01*
X105952027Y-59469923D01*
X105456313Y-59214009D01*
X104920197Y-59059721D01*
X104364283Y-59012989D01*
X103809934Y-59075608D01*
X103278452Y-59245173D01*
X102857973Y-59469923D01*
X102611291Y-59849265D01*
X75543226Y-59849265D01*
X75466079Y-59663018D01*
X75339613Y-59473748D01*
X75178652Y-59312787D01*
X74989382Y-59186321D01*
X74779076Y-59099209D01*
X74555817Y-59054800D01*
X74328183Y-59054800D01*
X74104924Y-59099209D01*
X73894618Y-59186321D01*
X73705348Y-59312787D01*
X73544387Y-59473748D01*
X73417921Y-59663018D01*
X73330809Y-59873324D01*
X73286400Y-60096583D01*
X73286400Y-60324217D01*
X73330809Y-60547476D01*
X73417921Y-60757782D01*
X73544387Y-60947052D01*
X73705348Y-61108013D01*
X73768900Y-61150477D01*
X73768900Y-61709593D01*
X73655194Y-61823300D01*
X67323056Y-61823300D01*
X67290000Y-61820044D01*
X67256944Y-61823300D01*
X67256941Y-61823300D01*
X67158049Y-61833040D01*
X67060700Y-61862571D01*
X67031169Y-61871529D01*
X66936788Y-61921977D01*
X66914237Y-61934031D01*
X66811744Y-62018144D01*
X66790670Y-62043823D01*
X65367424Y-63467070D01*
X65341745Y-63488144D01*
X65320671Y-63513823D01*
X65257631Y-63590638D01*
X65195130Y-63707570D01*
X65156641Y-63834450D01*
X65143644Y-63966400D01*
X65146901Y-63999466D01*
X65146900Y-64833593D01*
X64684884Y-65295610D01*
X64671613Y-65275748D01*
X64510652Y-65114787D01*
X64321382Y-64988321D01*
X64111076Y-64901209D01*
X63887817Y-64856800D01*
X63660183Y-64856800D01*
X63436924Y-64901209D01*
X63226618Y-64988321D01*
X63037348Y-65114787D01*
X62876387Y-65275748D01*
X62749921Y-65465018D01*
X62662809Y-65675324D01*
X62618400Y-65898583D01*
X58224100Y-65898583D01*
X58224100Y-65640223D01*
X58226742Y-65613400D01*
X58216198Y-65506346D01*
X58184972Y-65403406D01*
X58134262Y-65308535D01*
X58066019Y-65225381D01*
X57982865Y-65157138D01*
X57887994Y-65106428D01*
X57785054Y-65075202D01*
X57704824Y-65067300D01*
X57678000Y-65064658D01*
X57651176Y-65067300D01*
X32951100Y-65067300D01*
X32951100Y-63908735D01*
X38739291Y-63908735D01*
X38985973Y-64288077D01*
X39481687Y-64543991D01*
X40017803Y-64698279D01*
X40573717Y-64745011D01*
X41128066Y-64682392D01*
X41659548Y-64512827D01*
X42080027Y-64288077D01*
X42326709Y-63908735D01*
X40533000Y-62115026D01*
X38739291Y-63908735D01*
X32951100Y-63908735D01*
X32951100Y-61940217D01*
X37687489Y-61940217D01*
X37750108Y-62494566D01*
X37919673Y-63026048D01*
X38144423Y-63446527D01*
X38523765Y-63693209D01*
X40317474Y-61899500D01*
X40748526Y-61899500D01*
X42542235Y-63693209D01*
X42604708Y-63652583D01*
X44584400Y-63652583D01*
X44584400Y-63880217D01*
X44628809Y-64103476D01*
X44715921Y-64313782D01*
X44842387Y-64503052D01*
X45003348Y-64664013D01*
X45192618Y-64790479D01*
X45402924Y-64877591D01*
X45626183Y-64922000D01*
X45853817Y-64922000D01*
X46077076Y-64877591D01*
X46287382Y-64790479D01*
X46476652Y-64664013D01*
X46637613Y-64503052D01*
X46764079Y-64313782D01*
X46851191Y-64103476D01*
X46895600Y-63880217D01*
X46895600Y-63652583D01*
X46851191Y-63429324D01*
X46764079Y-63219018D01*
X46637613Y-63029748D01*
X46476652Y-62868787D01*
X46287382Y-62742321D01*
X46077076Y-62655209D01*
X45853817Y-62610800D01*
X45626183Y-62610800D01*
X45402924Y-62655209D01*
X45192618Y-62742321D01*
X45003348Y-62868787D01*
X44842387Y-63029748D01*
X44715921Y-63219018D01*
X44628809Y-63429324D01*
X44584400Y-63652583D01*
X42604708Y-63652583D01*
X42921577Y-63446527D01*
X43177491Y-62950813D01*
X43319201Y-62458400D01*
X48900680Y-62458400D01*
X48900680Y-64058400D01*
X48907546Y-64128110D01*
X48927879Y-64195140D01*
X48960899Y-64256916D01*
X49005337Y-64311063D01*
X49059484Y-64355501D01*
X49121260Y-64388521D01*
X49188290Y-64408854D01*
X49258000Y-64415720D01*
X50858000Y-64415720D01*
X50927710Y-64408854D01*
X50994740Y-64388521D01*
X51056516Y-64355501D01*
X51110663Y-64311063D01*
X51155101Y-64256916D01*
X51188121Y-64195140D01*
X51208454Y-64128110D01*
X51215320Y-64058400D01*
X51215320Y-63144583D01*
X51442400Y-63144583D01*
X51442400Y-63372217D01*
X51486809Y-63595476D01*
X51573921Y-63805782D01*
X51700387Y-63995052D01*
X51861348Y-64156013D01*
X52050618Y-64282479D01*
X52260924Y-64369591D01*
X52484183Y-64414000D01*
X52711817Y-64414000D01*
X52935076Y-64369591D01*
X53145382Y-64282479D01*
X53334652Y-64156013D01*
X53495613Y-63995052D01*
X53622079Y-63805782D01*
X53709191Y-63595476D01*
X53753600Y-63372217D01*
X53753600Y-63144583D01*
X53709191Y-62921324D01*
X53622079Y-62711018D01*
X53495613Y-62521748D01*
X53334652Y-62360787D01*
X53145382Y-62234321D01*
X52935076Y-62147209D01*
X52711817Y-62102800D01*
X52484183Y-62102800D01*
X52260924Y-62147209D01*
X52050618Y-62234321D01*
X51861348Y-62360787D01*
X51700387Y-62521748D01*
X51573921Y-62711018D01*
X51486809Y-62921324D01*
X51442400Y-63144583D01*
X51215320Y-63144583D01*
X51215320Y-62458400D01*
X51208454Y-62388690D01*
X51188121Y-62321660D01*
X51155101Y-62259884D01*
X51110663Y-62205737D01*
X51056516Y-62161299D01*
X50994740Y-62128279D01*
X50927710Y-62107946D01*
X50858000Y-62101080D01*
X49258000Y-62101080D01*
X49188290Y-62107946D01*
X49121260Y-62128279D01*
X49059484Y-62161299D01*
X49005337Y-62205737D01*
X48960899Y-62259884D01*
X48927879Y-62321660D01*
X48907546Y-62388690D01*
X48900680Y-62458400D01*
X43319201Y-62458400D01*
X43331779Y-62414697D01*
X43378511Y-61858783D01*
X43315892Y-61304434D01*
X43146327Y-60772952D01*
X42921577Y-60352473D01*
X42542235Y-60105791D01*
X40748526Y-61899500D01*
X40317474Y-61899500D01*
X38523765Y-60105791D01*
X38144423Y-60352473D01*
X37888509Y-60848187D01*
X37734221Y-61384303D01*
X37687489Y-61940217D01*
X32951100Y-61940217D01*
X32951100Y-59890265D01*
X38739291Y-59890265D01*
X40533000Y-61683974D01*
X42326709Y-59890265D01*
X42080027Y-59510923D01*
X41584313Y-59255009D01*
X41048197Y-59100721D01*
X40492283Y-59053989D01*
X39937934Y-59116608D01*
X39406452Y-59286173D01*
X38985973Y-59510923D01*
X38739291Y-59890265D01*
X32951100Y-59890265D01*
X32951100Y-58663635D01*
X33227491Y-58663635D01*
X33474173Y-59042977D01*
X33969887Y-59298891D01*
X34506003Y-59453179D01*
X35061917Y-59499911D01*
X35616266Y-59437292D01*
X36147748Y-59267727D01*
X36568227Y-59042977D01*
X36814909Y-58663635D01*
X35021200Y-56869926D01*
X33227491Y-58663635D01*
X32951100Y-58663635D01*
X32951100Y-58408529D01*
X33011965Y-58448109D01*
X34805674Y-56654400D01*
X35236726Y-56654400D01*
X37030435Y-58448109D01*
X37409777Y-58201427D01*
X37665691Y-57705713D01*
X37819979Y-57169597D01*
X37866711Y-56613683D01*
X37853225Y-56494292D01*
X38907400Y-56494292D01*
X38907400Y-56814508D01*
X38969870Y-57128570D01*
X39092412Y-57424411D01*
X39270314Y-57690660D01*
X39496740Y-57917086D01*
X39762989Y-58094988D01*
X40058830Y-58217530D01*
X40372892Y-58280000D01*
X40693108Y-58280000D01*
X41007170Y-58217530D01*
X41303011Y-58094988D01*
X41569260Y-57917086D01*
X41795686Y-57690660D01*
X41973588Y-57424411D01*
X42096130Y-57128570D01*
X42158600Y-56814508D01*
X42158600Y-56494292D01*
X42096130Y-56180230D01*
X41973588Y-55884389D01*
X41795686Y-55618140D01*
X41569260Y-55391714D01*
X41303011Y-55213812D01*
X41007170Y-55091270D01*
X40693108Y-55028800D01*
X40372892Y-55028800D01*
X40058830Y-55091270D01*
X39762989Y-55213812D01*
X39496740Y-55391714D01*
X39270314Y-55618140D01*
X39092412Y-55884389D01*
X38969870Y-56180230D01*
X38907400Y-56494292D01*
X37853225Y-56494292D01*
X37804092Y-56059334D01*
X37634527Y-55527852D01*
X37409777Y-55107373D01*
X37030435Y-54860691D01*
X35236726Y-56654400D01*
X34805674Y-56654400D01*
X33011965Y-54860691D01*
X32951100Y-54900271D01*
X32951100Y-54645165D01*
X33227491Y-54645165D01*
X35021200Y-56438874D01*
X36814909Y-54645165D01*
X36568227Y-54265823D01*
X36072513Y-54009909D01*
X35536397Y-53855621D01*
X34980483Y-53808889D01*
X34426134Y-53871508D01*
X33894652Y-54041073D01*
X33474173Y-54265823D01*
X33227491Y-54645165D01*
X32951100Y-54645165D01*
X32951100Y-53418535D01*
X38739291Y-53418535D01*
X38985973Y-53797877D01*
X39481687Y-54053791D01*
X40017803Y-54208079D01*
X40573717Y-54254811D01*
X41128066Y-54192192D01*
X41659548Y-54022627D01*
X42080027Y-53797877D01*
X42278556Y-53492583D01*
X44584400Y-53492583D01*
X44584400Y-53720217D01*
X44628809Y-53943476D01*
X44715921Y-54153782D01*
X44842387Y-54343052D01*
X45003348Y-54504013D01*
X45192618Y-54630479D01*
X45402924Y-54717591D01*
X45626183Y-54762000D01*
X45853817Y-54762000D01*
X46077076Y-54717591D01*
X46287382Y-54630479D01*
X46476652Y-54504013D01*
X46637613Y-54343052D01*
X46764079Y-54153782D01*
X46851191Y-53943476D01*
X46895600Y-53720217D01*
X46895600Y-53492583D01*
X46851191Y-53269324D01*
X46764079Y-53059018D01*
X46637613Y-52869748D01*
X46476652Y-52708787D01*
X46287382Y-52582321D01*
X46077076Y-52495209D01*
X45853817Y-52450800D01*
X45626183Y-52450800D01*
X45402924Y-52495209D01*
X45192618Y-52582321D01*
X45003348Y-52708787D01*
X44842387Y-52869748D01*
X44715921Y-53059018D01*
X44628809Y-53269324D01*
X44584400Y-53492583D01*
X42278556Y-53492583D01*
X42326709Y-53418535D01*
X40533000Y-51624826D01*
X38739291Y-53418535D01*
X32951100Y-53418535D01*
X32951100Y-51450017D01*
X37687489Y-51450017D01*
X37750108Y-52004366D01*
X37919673Y-52535848D01*
X38144423Y-52956327D01*
X38523765Y-53203009D01*
X40317474Y-51409300D01*
X40748526Y-51409300D01*
X42542235Y-53203009D01*
X42921577Y-52956327D01*
X43177491Y-52460613D01*
X43331779Y-51924497D01*
X43378511Y-51368583D01*
X43347126Y-51090744D01*
X43358809Y-51149476D01*
X43445921Y-51359782D01*
X43572387Y-51549052D01*
X43733348Y-51710013D01*
X43922618Y-51836479D01*
X44132924Y-51923591D01*
X44356183Y-51968000D01*
X44583817Y-51968000D01*
X44807076Y-51923591D01*
X45017382Y-51836479D01*
X45206652Y-51710013D01*
X45367613Y-51549052D01*
X45494079Y-51359782D01*
X45581191Y-51149476D01*
X45625600Y-50926217D01*
X45625600Y-50698583D01*
X45814400Y-50698583D01*
X45814400Y-50926217D01*
X45858809Y-51149476D01*
X45945921Y-51359782D01*
X46072387Y-51549052D01*
X46233348Y-51710013D01*
X46422618Y-51836479D01*
X46632924Y-51923591D01*
X46856183Y-51968000D01*
X47083817Y-51968000D01*
X47307076Y-51923591D01*
X47517382Y-51836479D01*
X47706652Y-51710013D01*
X47867613Y-51549052D01*
X47994079Y-51359782D01*
X48081191Y-51149476D01*
X48125600Y-50926217D01*
X48125600Y-50698583D01*
X48081191Y-50475324D01*
X47994079Y-50265018D01*
X47867613Y-50075748D01*
X47706652Y-49914787D01*
X47517382Y-49788321D01*
X47307076Y-49701209D01*
X47083817Y-49656800D01*
X46856183Y-49656800D01*
X46632924Y-49701209D01*
X46422618Y-49788321D01*
X46233348Y-49914787D01*
X46072387Y-50075748D01*
X45945921Y-50265018D01*
X45858809Y-50475324D01*
X45814400Y-50698583D01*
X45625600Y-50698583D01*
X45581191Y-50475324D01*
X45494079Y-50265018D01*
X45367613Y-50075748D01*
X45206652Y-49914787D01*
X45017382Y-49788321D01*
X44807076Y-49701209D01*
X44672589Y-49674458D01*
X44880814Y-49639420D01*
X45140381Y-49540811D01*
X45214423Y-49501233D01*
X45289514Y-49267440D01*
X44510000Y-48487926D01*
X43730486Y-49267440D01*
X43805577Y-49501233D01*
X44058845Y-49615048D01*
X44294126Y-49669144D01*
X44132924Y-49701209D01*
X43922618Y-49788321D01*
X43733348Y-49914787D01*
X43572387Y-50075748D01*
X43445921Y-50265018D01*
X43358809Y-50475324D01*
X43314400Y-50698583D01*
X43314400Y-50809557D01*
X43146327Y-50282752D01*
X42921577Y-49862273D01*
X42542235Y-49615591D01*
X40748526Y-51409300D01*
X40317474Y-51409300D01*
X38523765Y-49615591D01*
X38144423Y-49862273D01*
X37888509Y-50357987D01*
X37734221Y-50894103D01*
X37687489Y-51450017D01*
X32951100Y-51450017D01*
X32951100Y-49400065D01*
X38739291Y-49400065D01*
X40533000Y-51193774D01*
X42326709Y-49400065D01*
X42080027Y-49020723D01*
X41584313Y-48764809D01*
X41048197Y-48610521D01*
X40492283Y-48563789D01*
X39937934Y-48626408D01*
X39406452Y-48795973D01*
X38985973Y-49020723D01*
X38739291Y-49400065D01*
X32951100Y-49400065D01*
X32951100Y-48369397D01*
X43096905Y-48369397D01*
X43142980Y-48643214D01*
X43241589Y-48902781D01*
X43281167Y-48976823D01*
X43514960Y-49051914D01*
X44294474Y-48272400D01*
X44725526Y-48272400D01*
X45505040Y-49051914D01*
X45738833Y-48976823D01*
X45852648Y-48723555D01*
X45889564Y-48562996D01*
X45898809Y-48609476D01*
X45985921Y-48819782D01*
X46112387Y-49009052D01*
X46273348Y-49170013D01*
X46462618Y-49296479D01*
X46672924Y-49383591D01*
X46896183Y-49428000D01*
X47123817Y-49428000D01*
X47347076Y-49383591D01*
X47557382Y-49296479D01*
X47746652Y-49170013D01*
X47907613Y-49009052D01*
X47950077Y-48945500D01*
X48001194Y-48945500D01*
X48622900Y-49567207D01*
X48622901Y-53073592D01*
X47827424Y-53869070D01*
X47801744Y-53890145D01*
X47717631Y-53992638D01*
X47655129Y-54109571D01*
X47616640Y-54236450D01*
X47606900Y-54335341D01*
X47603644Y-54368400D01*
X47606900Y-54401456D01*
X47606901Y-58653334D01*
X47603644Y-58686400D01*
X47615156Y-58803270D01*
X47616641Y-58818351D01*
X47655130Y-58945230D01*
X47717631Y-59062162D01*
X47749275Y-59100721D01*
X47801745Y-59164656D01*
X47827424Y-59185730D01*
X49558674Y-60916982D01*
X49579744Y-60942656D01*
X49605417Y-60963725D01*
X49605422Y-60963730D01*
X49682237Y-61026770D01*
X49765062Y-61071040D01*
X49799170Y-61089271D01*
X49926049Y-61127760D01*
X50024941Y-61137500D01*
X50024944Y-61137500D01*
X50058000Y-61140756D01*
X50091056Y-61137500D01*
X54782994Y-61137500D01*
X54685424Y-61235070D01*
X54659745Y-61256144D01*
X54638671Y-61281823D01*
X54575631Y-61358638D01*
X54514835Y-61472380D01*
X54513130Y-61475570D01*
X54484288Y-61570650D01*
X54474641Y-61602450D01*
X54461644Y-61734400D01*
X54464901Y-61767466D01*
X54464901Y-62318323D01*
X54401348Y-62360787D01*
X54240387Y-62521748D01*
X54113921Y-62711018D01*
X54026809Y-62921324D01*
X53982400Y-63144583D01*
X53982400Y-63372217D01*
X54026809Y-63595476D01*
X54113921Y-63805782D01*
X54240387Y-63995052D01*
X54401348Y-64156013D01*
X54590618Y-64282479D01*
X54800924Y-64369591D01*
X55024183Y-64414000D01*
X55251817Y-64414000D01*
X55475076Y-64369591D01*
X55685382Y-64282479D01*
X55874652Y-64156013D01*
X56035613Y-63995052D01*
X56162079Y-63805782D01*
X56249191Y-63595476D01*
X56285925Y-63410802D01*
X56429056Y-63410802D01*
X56317750Y-63628142D01*
X56416020Y-63886409D01*
X56562787Y-64120542D01*
X56752411Y-64321543D01*
X56977605Y-64481688D01*
X57229715Y-64594823D01*
X57308259Y-64618644D01*
X57525600Y-64506329D01*
X57525600Y-63410800D01*
X57830400Y-63410800D01*
X57830400Y-64506329D01*
X58047741Y-64618644D01*
X58126285Y-64594823D01*
X58378395Y-64481688D01*
X58603589Y-64321543D01*
X58793213Y-64120542D01*
X58939980Y-63886409D01*
X59038250Y-63628142D01*
X58926943Y-63410800D01*
X57830400Y-63410800D01*
X57525600Y-63410800D01*
X57505600Y-63410800D01*
X57505600Y-63398583D01*
X62618400Y-63398583D01*
X62618400Y-63626217D01*
X62662809Y-63849476D01*
X62749921Y-64059782D01*
X62876387Y-64249052D01*
X63037348Y-64410013D01*
X63226618Y-64536479D01*
X63436924Y-64623591D01*
X63660183Y-64668000D01*
X63887817Y-64668000D01*
X64111076Y-64623591D01*
X64321382Y-64536479D01*
X64510652Y-64410013D01*
X64671613Y-64249052D01*
X64798079Y-64059782D01*
X64885191Y-63849476D01*
X64929600Y-63626217D01*
X64929600Y-63398583D01*
X64885191Y-63175324D01*
X64798079Y-62965018D01*
X64671613Y-62775748D01*
X64510652Y-62614787D01*
X64321382Y-62488321D01*
X64111076Y-62401209D01*
X63887817Y-62356800D01*
X63660183Y-62356800D01*
X63436924Y-62401209D01*
X63226618Y-62488321D01*
X63037348Y-62614787D01*
X62876387Y-62775748D01*
X62749921Y-62965018D01*
X62662809Y-63175324D01*
X62618400Y-63398583D01*
X57505600Y-63398583D01*
X57505600Y-63106000D01*
X57525600Y-63106000D01*
X57525600Y-62010471D01*
X57830400Y-62010471D01*
X57830400Y-63106000D01*
X58926943Y-63106000D01*
X59038250Y-62888658D01*
X58939980Y-62630391D01*
X58793213Y-62396258D01*
X58603589Y-62195257D01*
X58378395Y-62035112D01*
X58126285Y-61921977D01*
X58047741Y-61898156D01*
X57830400Y-62010471D01*
X57525600Y-62010471D01*
X57308259Y-61898156D01*
X57229715Y-61921977D01*
X56977605Y-62035112D01*
X56752411Y-62195257D01*
X56562787Y-62396258D01*
X56416020Y-62630391D01*
X56317750Y-62888658D01*
X56429056Y-63105998D01*
X56285925Y-63105998D01*
X56249191Y-62921324D01*
X56162079Y-62711018D01*
X56035613Y-62521748D01*
X55874652Y-62360787D01*
X55811100Y-62318323D01*
X55811100Y-62013206D01*
X56686807Y-61137500D01*
X61570314Y-61137500D01*
X61603370Y-61140756D01*
X61636426Y-61137500D01*
X61636429Y-61137500D01*
X61735321Y-61127760D01*
X61862200Y-61089271D01*
X61979133Y-61026769D01*
X62081626Y-60942656D01*
X62102705Y-60916972D01*
X62439535Y-60580141D01*
X62921756Y-60580141D01*
X62945577Y-60658685D01*
X63058712Y-60910795D01*
X63218857Y-61135989D01*
X63419858Y-61325613D01*
X63653991Y-61472380D01*
X63912258Y-61570650D01*
X64129600Y-61459343D01*
X64129600Y-60362800D01*
X64434400Y-60362800D01*
X64434400Y-61459343D01*
X64651742Y-61570650D01*
X64910009Y-61472380D01*
X65144142Y-61325613D01*
X65345143Y-61135989D01*
X65505288Y-60910795D01*
X65618423Y-60658685D01*
X65642244Y-60580141D01*
X65529929Y-60362800D01*
X64434400Y-60362800D01*
X64129600Y-60362800D01*
X63034071Y-60362800D01*
X62921756Y-60580141D01*
X62439535Y-60580141D01*
X63009406Y-60010270D01*
X63034071Y-60058000D01*
X64129600Y-60058000D01*
X64129600Y-58961457D01*
X64434400Y-58961457D01*
X64434400Y-60058000D01*
X65529929Y-60058000D01*
X65642244Y-59840659D01*
X65618423Y-59762115D01*
X65505288Y-59510005D01*
X65345143Y-59284811D01*
X65144142Y-59095187D01*
X64910009Y-58948420D01*
X64651742Y-58850150D01*
X64434400Y-58961457D01*
X64129600Y-58961457D01*
X64082395Y-58937282D01*
X64734581Y-58285096D01*
X64760255Y-58264026D01*
X64781326Y-58238351D01*
X64781329Y-58238348D01*
X64844369Y-58161533D01*
X64906871Y-58044600D01*
X64915956Y-58014650D01*
X64945360Y-57917721D01*
X64955100Y-57818829D01*
X64955100Y-57818826D01*
X64958356Y-57785770D01*
X64955100Y-57752714D01*
X64955100Y-57594477D01*
X65018652Y-57552013D01*
X65179613Y-57391052D01*
X65306079Y-57201782D01*
X65379660Y-57024141D01*
X73081756Y-57024141D01*
X73105577Y-57102685D01*
X73218712Y-57354795D01*
X73378857Y-57579989D01*
X73579858Y-57769613D01*
X73813991Y-57916380D01*
X74072258Y-58014650D01*
X74289600Y-57903343D01*
X74289600Y-56806800D01*
X74594400Y-56806800D01*
X74594400Y-57903343D01*
X74811742Y-58014650D01*
X75070009Y-57916380D01*
X75304142Y-57769613D01*
X75505143Y-57579989D01*
X75665288Y-57354795D01*
X75778423Y-57102685D01*
X75802244Y-57024141D01*
X75689929Y-56806800D01*
X74594400Y-56806800D01*
X74289600Y-56806800D01*
X73194071Y-56806800D01*
X73081756Y-57024141D01*
X65379660Y-57024141D01*
X65393191Y-56991476D01*
X65437600Y-56768217D01*
X65437600Y-56600885D01*
X95184400Y-56600885D01*
X95184400Y-56867915D01*
X95236495Y-57129814D01*
X95338683Y-57376517D01*
X95487037Y-57598545D01*
X95675855Y-57787363D01*
X95897883Y-57935717D01*
X96144586Y-58037905D01*
X96406485Y-58090000D01*
X96673515Y-58090000D01*
X96935414Y-58037905D01*
X97182117Y-57935717D01*
X97404145Y-57787363D01*
X97592963Y-57598545D01*
X97741317Y-57376517D01*
X97843505Y-57129814D01*
X97895600Y-56867915D01*
X97895600Y-56600885D01*
X97866242Y-56453292D01*
X102779400Y-56453292D01*
X102779400Y-56773508D01*
X102841870Y-57087570D01*
X102964412Y-57383411D01*
X103142314Y-57649660D01*
X103368740Y-57876086D01*
X103634989Y-58053988D01*
X103930830Y-58176530D01*
X104244892Y-58239000D01*
X104565108Y-58239000D01*
X104879170Y-58176530D01*
X105175011Y-58053988D01*
X105441260Y-57876086D01*
X105667686Y-57649660D01*
X105845588Y-57383411D01*
X105968130Y-57087570D01*
X106030600Y-56773508D01*
X106030600Y-56654117D01*
X107071289Y-56654117D01*
X107133908Y-57208466D01*
X107303473Y-57739948D01*
X107528223Y-58160427D01*
X107907565Y-58407109D01*
X109701274Y-56613400D01*
X107907565Y-54819691D01*
X107528223Y-55066373D01*
X107272309Y-55562087D01*
X107118021Y-56098203D01*
X107071289Y-56654117D01*
X106030600Y-56654117D01*
X106030600Y-56453292D01*
X105968130Y-56139230D01*
X105845588Y-55843389D01*
X105667686Y-55577140D01*
X105441260Y-55350714D01*
X105175011Y-55172812D01*
X104879170Y-55050270D01*
X104565108Y-54987800D01*
X104244892Y-54987800D01*
X103930830Y-55050270D01*
X103634989Y-55172812D01*
X103368740Y-55350714D01*
X103142314Y-55577140D01*
X102964412Y-55843389D01*
X102841870Y-56139230D01*
X102779400Y-56453292D01*
X97866242Y-56453292D01*
X97843505Y-56338986D01*
X97741317Y-56092283D01*
X97592963Y-55870255D01*
X97404145Y-55681437D01*
X97182117Y-55533083D01*
X96935414Y-55430895D01*
X96673515Y-55378800D01*
X96406485Y-55378800D01*
X96144586Y-55430895D01*
X95897883Y-55533083D01*
X95675855Y-55681437D01*
X95487037Y-55870255D01*
X95338683Y-56092283D01*
X95236495Y-56338986D01*
X95184400Y-56600885D01*
X65437600Y-56600885D01*
X65437600Y-56540583D01*
X65393191Y-56317324D01*
X65379661Y-56284659D01*
X73081756Y-56284659D01*
X73194071Y-56502000D01*
X74289600Y-56502000D01*
X74289600Y-55405457D01*
X74594400Y-55405457D01*
X74594400Y-56502000D01*
X75689929Y-56502000D01*
X75802244Y-56284659D01*
X75778423Y-56206115D01*
X75665288Y-55954005D01*
X75505143Y-55728811D01*
X75304142Y-55539187D01*
X75070009Y-55392420D01*
X74811742Y-55294150D01*
X74594400Y-55405457D01*
X74289600Y-55405457D01*
X74072258Y-55294150D01*
X73813991Y-55392420D01*
X73579858Y-55539187D01*
X73378857Y-55728811D01*
X73218712Y-55954005D01*
X73105577Y-56206115D01*
X73081756Y-56284659D01*
X65379661Y-56284659D01*
X65306079Y-56107018D01*
X65179613Y-55917748D01*
X65018652Y-55756787D01*
X64829382Y-55630321D01*
X64619076Y-55543209D01*
X64395817Y-55498800D01*
X64168183Y-55498800D01*
X63944924Y-55543209D01*
X63734618Y-55630321D01*
X63545348Y-55756787D01*
X63384387Y-55917748D01*
X63257921Y-56107018D01*
X63170809Y-56317324D01*
X63126400Y-56540583D01*
X63126400Y-56768217D01*
X63170809Y-56991476D01*
X63257921Y-57201782D01*
X63384387Y-57391052D01*
X63545348Y-57552013D01*
X63556439Y-57559424D01*
X61324564Y-59791300D01*
X56441048Y-59791300D01*
X56407999Y-59788045D01*
X56374951Y-59791300D01*
X50336808Y-59791300D01*
X48953100Y-58407594D01*
X48953100Y-55990664D01*
X49033921Y-56185782D01*
X49160387Y-56375052D01*
X49321348Y-56536013D01*
X49510618Y-56662479D01*
X49720924Y-56749591D01*
X49944183Y-56794000D01*
X50171817Y-56794000D01*
X50395076Y-56749591D01*
X50605382Y-56662479D01*
X50794652Y-56536013D01*
X50955613Y-56375052D01*
X51082079Y-56185782D01*
X51169191Y-55975476D01*
X51213600Y-55752217D01*
X51213600Y-55524583D01*
X51442400Y-55524583D01*
X51442400Y-55752217D01*
X51486809Y-55975476D01*
X51573921Y-56185782D01*
X51700387Y-56375052D01*
X51861348Y-56536013D01*
X52050618Y-56662479D01*
X52260924Y-56749591D01*
X52484183Y-56794000D01*
X52711817Y-56794000D01*
X52935076Y-56749591D01*
X53145382Y-56662479D01*
X53334652Y-56536013D01*
X53495613Y-56375052D01*
X53622079Y-56185782D01*
X53709191Y-55975476D01*
X53753600Y-55752217D01*
X53753600Y-55524583D01*
X53982400Y-55524583D01*
X53982400Y-55752217D01*
X54026809Y-55975476D01*
X54113921Y-56185782D01*
X54240387Y-56375052D01*
X54401348Y-56536013D01*
X54464901Y-56578477D01*
X54464900Y-57637344D01*
X54461644Y-57670400D01*
X54464900Y-57703456D01*
X54464900Y-57703458D01*
X54474640Y-57802350D01*
X54513129Y-57929229D01*
X54575631Y-58046162D01*
X54659744Y-58148655D01*
X54685424Y-58169730D01*
X55146670Y-58630977D01*
X55167744Y-58656656D01*
X55193422Y-58677729D01*
X55270236Y-58740769D01*
X55332738Y-58774176D01*
X55387170Y-58803271D01*
X55514049Y-58841760D01*
X55612941Y-58851500D01*
X55612951Y-58851500D01*
X55645999Y-58854755D01*
X55679048Y-58851500D01*
X60293923Y-58851500D01*
X60336387Y-58915052D01*
X60497348Y-59076013D01*
X60686618Y-59202479D01*
X60896924Y-59289591D01*
X61120183Y-59334000D01*
X61347817Y-59334000D01*
X61571076Y-59289591D01*
X61781382Y-59202479D01*
X61970652Y-59076013D01*
X62131613Y-58915052D01*
X62258079Y-58725782D01*
X62345191Y-58515476D01*
X62389600Y-58292217D01*
X62389600Y-58064583D01*
X62345191Y-57841324D01*
X62258079Y-57631018D01*
X62131613Y-57441748D01*
X61970652Y-57280787D01*
X61781382Y-57154321D01*
X61571076Y-57067209D01*
X61347817Y-57022800D01*
X61120183Y-57022800D01*
X60896924Y-57067209D01*
X60686618Y-57154321D01*
X60497348Y-57280787D01*
X60336387Y-57441748D01*
X60293923Y-57505300D01*
X55924807Y-57505300D01*
X55811100Y-57391594D01*
X55811100Y-56578477D01*
X55874652Y-56536013D01*
X56035613Y-56375052D01*
X56162079Y-56185782D01*
X56249191Y-55975476D01*
X56293600Y-55752217D01*
X56293600Y-55524583D01*
X56522400Y-55524583D01*
X56522400Y-55752217D01*
X56566809Y-55975476D01*
X56653921Y-56185782D01*
X56780387Y-56375052D01*
X56941348Y-56536013D01*
X57130618Y-56662479D01*
X57340924Y-56749591D01*
X57564183Y-56794000D01*
X57791817Y-56794000D01*
X58015076Y-56749591D01*
X58225382Y-56662479D01*
X58414652Y-56536013D01*
X58575613Y-56375052D01*
X58702079Y-56185782D01*
X58789191Y-55975476D01*
X58833600Y-55752217D01*
X58833600Y-55564583D01*
X60078400Y-55564583D01*
X60078400Y-55792217D01*
X60122809Y-56015476D01*
X60209921Y-56225782D01*
X60336387Y-56415052D01*
X60497348Y-56576013D01*
X60686618Y-56702479D01*
X60896924Y-56789591D01*
X61120183Y-56834000D01*
X61347817Y-56834000D01*
X61571076Y-56789591D01*
X61781382Y-56702479D01*
X61970652Y-56576013D01*
X62131613Y-56415052D01*
X62258079Y-56225782D01*
X62345191Y-56015476D01*
X62389600Y-55792217D01*
X62389600Y-55564583D01*
X62345191Y-55341324D01*
X62258079Y-55131018D01*
X62131613Y-54941748D01*
X61970652Y-54780787D01*
X61781382Y-54654321D01*
X61571076Y-54567209D01*
X61347817Y-54522800D01*
X61120183Y-54522800D01*
X60896924Y-54567209D01*
X60686618Y-54654321D01*
X60497348Y-54780787D01*
X60336387Y-54941748D01*
X60209921Y-55131018D01*
X60122809Y-55341324D01*
X60078400Y-55564583D01*
X58833600Y-55564583D01*
X58833600Y-55524583D01*
X58789191Y-55301324D01*
X58702079Y-55091018D01*
X58575613Y-54901748D01*
X58414652Y-54740787D01*
X58225382Y-54614321D01*
X58015076Y-54527209D01*
X57791817Y-54482800D01*
X57564183Y-54482800D01*
X57340924Y-54527209D01*
X57130618Y-54614321D01*
X56941348Y-54740787D01*
X56780387Y-54901748D01*
X56653921Y-55091018D01*
X56566809Y-55301324D01*
X56522400Y-55524583D01*
X56293600Y-55524583D01*
X56249191Y-55301324D01*
X56162079Y-55091018D01*
X56035613Y-54901748D01*
X55874652Y-54740787D01*
X55685382Y-54614321D01*
X55475076Y-54527209D01*
X55251817Y-54482800D01*
X55024183Y-54482800D01*
X54800924Y-54527209D01*
X54590618Y-54614321D01*
X54401348Y-54740787D01*
X54240387Y-54901748D01*
X54113921Y-55091018D01*
X54026809Y-55301324D01*
X53982400Y-55524583D01*
X53753600Y-55524583D01*
X53709191Y-55301324D01*
X53622079Y-55091018D01*
X53495613Y-54901748D01*
X53334652Y-54740787D01*
X53271100Y-54698323D01*
X53271100Y-53631207D01*
X53638807Y-53263500D01*
X58914944Y-53263500D01*
X58948000Y-53266756D01*
X58981056Y-53263500D01*
X58981059Y-53263500D01*
X59079951Y-53253760D01*
X59206830Y-53215271D01*
X59323763Y-53152769D01*
X59426256Y-53068656D01*
X59447335Y-53042971D01*
X59505723Y-52984583D01*
X63126400Y-52984583D01*
X63126400Y-53212217D01*
X63170809Y-53435476D01*
X63257921Y-53645782D01*
X63384387Y-53835052D01*
X63545348Y-53996013D01*
X63734618Y-54122479D01*
X63944924Y-54209591D01*
X64168183Y-54254000D01*
X64395817Y-54254000D01*
X64619076Y-54209591D01*
X64829382Y-54122479D01*
X65018652Y-53996013D01*
X65179613Y-53835052D01*
X65306079Y-53645782D01*
X65393191Y-53435476D01*
X65437600Y-53212217D01*
X65437600Y-52984583D01*
X73286400Y-52984583D01*
X73286400Y-53212217D01*
X73330809Y-53435476D01*
X73417921Y-53645782D01*
X73544387Y-53835052D01*
X73705348Y-53996013D01*
X73894618Y-54122479D01*
X74104924Y-54209591D01*
X74328183Y-54254000D01*
X74555817Y-54254000D01*
X74779076Y-54209591D01*
X74989382Y-54122479D01*
X75178652Y-53996013D01*
X75339613Y-53835052D01*
X75466079Y-53645782D01*
X75553191Y-53435476D01*
X75564716Y-53377535D01*
X102611291Y-53377535D01*
X102857973Y-53756877D01*
X103353687Y-54012791D01*
X103889803Y-54167079D01*
X104445717Y-54213811D01*
X105000066Y-54151192D01*
X105531548Y-53981627D01*
X105952027Y-53756877D01*
X106198709Y-53377535D01*
X104405000Y-51583826D01*
X102611291Y-53377535D01*
X75564716Y-53377535D01*
X75597600Y-53212217D01*
X75597600Y-52984583D01*
X75553191Y-52761324D01*
X75466079Y-52551018D01*
X75339613Y-52361748D01*
X75178652Y-52200787D01*
X74989382Y-52074321D01*
X74779076Y-51987209D01*
X74555817Y-51942800D01*
X74328183Y-51942800D01*
X74104924Y-51987209D01*
X73894618Y-52074321D01*
X73705348Y-52200787D01*
X73544387Y-52361748D01*
X73417921Y-52551018D01*
X73330809Y-52761324D01*
X73286400Y-52984583D01*
X65437600Y-52984583D01*
X65393191Y-52761324D01*
X65306079Y-52551018D01*
X65179613Y-52361748D01*
X65018652Y-52200787D01*
X64829382Y-52074321D01*
X64619076Y-51987209D01*
X64395817Y-51942800D01*
X64168183Y-51942800D01*
X63944924Y-51987209D01*
X63734618Y-52074321D01*
X63545348Y-52200787D01*
X63384387Y-52361748D01*
X63257921Y-52551018D01*
X63170809Y-52761324D01*
X63126400Y-52984583D01*
X59505723Y-52984583D01*
X61081289Y-51409017D01*
X101559489Y-51409017D01*
X101622108Y-51963366D01*
X101791673Y-52494848D01*
X102016423Y-52915327D01*
X102395765Y-53162009D01*
X104189474Y-51368300D01*
X104620526Y-51368300D01*
X106414235Y-53162009D01*
X106793577Y-52915327D01*
X107049491Y-52419613D01*
X107203779Y-51883497D01*
X107250511Y-51327583D01*
X107187892Y-50773234D01*
X107018327Y-50241752D01*
X106793577Y-49821273D01*
X106414235Y-49574591D01*
X104620526Y-51368300D01*
X104189474Y-51368300D01*
X102395765Y-49574591D01*
X102016423Y-49821273D01*
X101760509Y-50316987D01*
X101606221Y-50853103D01*
X101559489Y-51409017D01*
X61081289Y-51409017D01*
X62274807Y-50215500D01*
X63341923Y-50215500D01*
X63384387Y-50279052D01*
X63545348Y-50440013D01*
X63734618Y-50566479D01*
X63944924Y-50653591D01*
X64168183Y-50698000D01*
X64395817Y-50698000D01*
X64619076Y-50653591D01*
X64829382Y-50566479D01*
X65018652Y-50440013D01*
X65179613Y-50279052D01*
X65306079Y-50089782D01*
X65393191Y-49879476D01*
X65437600Y-49656217D01*
X65437600Y-49428583D01*
X73286400Y-49428583D01*
X73286400Y-49656217D01*
X73330809Y-49879476D01*
X73417921Y-50089782D01*
X73544387Y-50279052D01*
X73705348Y-50440013D01*
X73894618Y-50566479D01*
X74104924Y-50653591D01*
X74328183Y-50698000D01*
X74555817Y-50698000D01*
X74779076Y-50653591D01*
X74989382Y-50566479D01*
X75178652Y-50440013D01*
X75339613Y-50279052D01*
X75466079Y-50089782D01*
X75553191Y-49879476D01*
X75597600Y-49656217D01*
X75597600Y-49428583D01*
X75583773Y-49359065D01*
X102611291Y-49359065D01*
X104405000Y-51152774D01*
X106198709Y-49359065D01*
X105952027Y-48979723D01*
X105456313Y-48723809D01*
X104920197Y-48569521D01*
X104364283Y-48522789D01*
X103809934Y-48585408D01*
X103278452Y-48754973D01*
X102857973Y-48979723D01*
X102611291Y-49359065D01*
X75583773Y-49359065D01*
X75553191Y-49205324D01*
X75466079Y-48995018D01*
X75339613Y-48805748D01*
X75178652Y-48644787D01*
X74989382Y-48518321D01*
X74779076Y-48431209D01*
X74555817Y-48386800D01*
X74328183Y-48386800D01*
X74104924Y-48431209D01*
X73894618Y-48518321D01*
X73705348Y-48644787D01*
X73544387Y-48805748D01*
X73417921Y-48995018D01*
X73330809Y-49205324D01*
X73286400Y-49428583D01*
X65437600Y-49428583D01*
X65393191Y-49205324D01*
X65306079Y-48995018D01*
X65179613Y-48805748D01*
X65018652Y-48644787D01*
X64829382Y-48518321D01*
X64619076Y-48431209D01*
X64395817Y-48386800D01*
X64168183Y-48386800D01*
X63944924Y-48431209D01*
X63734618Y-48518321D01*
X63545348Y-48644787D01*
X63384387Y-48805748D01*
X63341923Y-48869300D01*
X62029056Y-48869300D01*
X61996000Y-48866044D01*
X61962944Y-48869300D01*
X61962941Y-48869300D01*
X61864049Y-48879040D01*
X61785787Y-48902781D01*
X61737169Y-48917529D01*
X61630287Y-48974659D01*
X61620237Y-48980031D01*
X61517744Y-49064144D01*
X61496670Y-49089823D01*
X58669194Y-51917300D01*
X53393056Y-51917300D01*
X53360000Y-51914044D01*
X53326944Y-51917300D01*
X53326941Y-51917300D01*
X53228049Y-51927040D01*
X53101170Y-51965529D01*
X52984237Y-52028031D01*
X52907422Y-52091070D01*
X52907417Y-52091075D01*
X52881744Y-52112144D01*
X52860674Y-52137818D01*
X52145423Y-52853071D01*
X52119745Y-52874144D01*
X52098671Y-52899823D01*
X52035631Y-52976638D01*
X52000172Y-53042978D01*
X51973130Y-53093570D01*
X51939932Y-53203009D01*
X51934641Y-53220450D01*
X51921644Y-53352400D01*
X51924901Y-53385466D01*
X51924900Y-54698323D01*
X51861348Y-54740787D01*
X51700387Y-54901748D01*
X51573921Y-55091018D01*
X51486809Y-55301324D01*
X51442400Y-55524583D01*
X51213600Y-55524583D01*
X51169191Y-55301324D01*
X51082079Y-55091018D01*
X50955613Y-54901748D01*
X50794652Y-54740787D01*
X50605382Y-54614321D01*
X50395076Y-54527209D01*
X50171817Y-54482800D01*
X49944183Y-54482800D01*
X49720924Y-54527209D01*
X49510618Y-54614321D01*
X49321348Y-54740787D01*
X49160387Y-54901748D01*
X49033921Y-55091018D01*
X48953100Y-55286136D01*
X48953100Y-54647206D01*
X49748578Y-53851729D01*
X49774256Y-53830656D01*
X49858369Y-53728163D01*
X49920871Y-53611230D01*
X49959360Y-53484351D01*
X49969100Y-53385459D01*
X49969100Y-53385456D01*
X49972356Y-53352400D01*
X49969100Y-53319341D01*
X49969100Y-49321456D01*
X49972356Y-49288400D01*
X49969100Y-49255341D01*
X49961923Y-49182463D01*
X51776400Y-49182463D01*
X51776400Y-49394337D01*
X51817735Y-49602141D01*
X51898816Y-49797887D01*
X52016527Y-49974055D01*
X52166345Y-50123873D01*
X52342513Y-50241584D01*
X52538259Y-50322665D01*
X52746063Y-50364000D01*
X52957937Y-50364000D01*
X53165741Y-50322665D01*
X53361487Y-50241584D01*
X53537655Y-50123873D01*
X53687473Y-49974055D01*
X53805184Y-49797887D01*
X53886265Y-49602141D01*
X53927600Y-49394337D01*
X53927600Y-49182463D01*
X54316400Y-49182463D01*
X54316400Y-49394337D01*
X54357735Y-49602141D01*
X54438816Y-49797887D01*
X54556527Y-49974055D01*
X54706345Y-50123873D01*
X54882513Y-50241584D01*
X55078259Y-50322665D01*
X55286063Y-50364000D01*
X55497937Y-50364000D01*
X55705741Y-50322665D01*
X55901487Y-50241584D01*
X56077655Y-50123873D01*
X56227473Y-49974055D01*
X56345184Y-49797887D01*
X56426265Y-49602141D01*
X56467600Y-49394337D01*
X56467600Y-49182463D01*
X56856400Y-49182463D01*
X56856400Y-49394337D01*
X56897735Y-49602141D01*
X56978816Y-49797887D01*
X57096527Y-49974055D01*
X57246345Y-50123873D01*
X57422513Y-50241584D01*
X57618259Y-50322665D01*
X57826063Y-50364000D01*
X58037937Y-50364000D01*
X58245741Y-50322665D01*
X58441487Y-50241584D01*
X58617655Y-50123873D01*
X58767473Y-49974055D01*
X58885184Y-49797887D01*
X58966265Y-49602141D01*
X59007600Y-49394337D01*
X59007600Y-49182463D01*
X58966265Y-48974659D01*
X58885184Y-48778913D01*
X58767473Y-48602745D01*
X58617655Y-48452927D01*
X58441487Y-48335216D01*
X58245741Y-48254135D01*
X58037937Y-48212800D01*
X57826063Y-48212800D01*
X57618259Y-48254135D01*
X57422513Y-48335216D01*
X57246345Y-48452927D01*
X57096527Y-48602745D01*
X56978816Y-48778913D01*
X56897735Y-48974659D01*
X56856400Y-49182463D01*
X56467600Y-49182463D01*
X56426265Y-48974659D01*
X56345184Y-48778913D01*
X56227473Y-48602745D01*
X56077655Y-48452927D01*
X55901487Y-48335216D01*
X55705741Y-48254135D01*
X55497937Y-48212800D01*
X55286063Y-48212800D01*
X55078259Y-48254135D01*
X54882513Y-48335216D01*
X54706345Y-48452927D01*
X54556527Y-48602745D01*
X54438816Y-48778913D01*
X54357735Y-48974659D01*
X54316400Y-49182463D01*
X53927600Y-49182463D01*
X53886265Y-48974659D01*
X53805184Y-48778913D01*
X53687473Y-48602745D01*
X53537655Y-48452927D01*
X53361487Y-48335216D01*
X53165741Y-48254135D01*
X52957937Y-48212800D01*
X52746063Y-48212800D01*
X52538259Y-48254135D01*
X52342513Y-48335216D01*
X52166345Y-48452927D01*
X52016527Y-48602745D01*
X51898816Y-48778913D01*
X51817735Y-48974659D01*
X51776400Y-49182463D01*
X49961923Y-49182463D01*
X49959360Y-49156449D01*
X49920871Y-49029570D01*
X49858369Y-48912637D01*
X49850280Y-48902781D01*
X49795329Y-48835822D01*
X49795326Y-48835819D01*
X49774255Y-48810144D01*
X49748581Y-48789074D01*
X48779334Y-47819828D01*
X48758256Y-47794144D01*
X48655763Y-47710031D01*
X48538830Y-47647529D01*
X48411951Y-47609040D01*
X48313059Y-47599300D01*
X48313056Y-47599300D01*
X48280000Y-47596044D01*
X48246944Y-47599300D01*
X47950077Y-47599300D01*
X47907613Y-47535748D01*
X47746652Y-47374787D01*
X47557382Y-47248321D01*
X47347076Y-47161209D01*
X47123817Y-47116800D01*
X46896183Y-47116800D01*
X46672924Y-47161209D01*
X46462618Y-47248321D01*
X46273348Y-47374787D01*
X46112387Y-47535748D01*
X45985921Y-47725018D01*
X45898809Y-47935324D01*
X45890081Y-47979204D01*
X45877020Y-47901586D01*
X45778411Y-47642019D01*
X45738833Y-47567977D01*
X45505040Y-47492886D01*
X44725526Y-48272400D01*
X44294474Y-48272400D01*
X43514960Y-47492886D01*
X43281167Y-47567977D01*
X43167352Y-47821245D01*
X43105134Y-48091852D01*
X43096905Y-48369397D01*
X32951100Y-48369397D01*
X32951100Y-47277360D01*
X43730486Y-47277360D01*
X44510000Y-48056874D01*
X45289514Y-47277360D01*
X45214423Y-47043567D01*
X44961155Y-46929752D01*
X44690548Y-46867534D01*
X44413003Y-46859305D01*
X44139186Y-46905380D01*
X43879619Y-47003989D01*
X43805577Y-47043567D01*
X43730486Y-47277360D01*
X32951100Y-47277360D01*
X32951100Y-46659500D01*
X111858901Y-46659500D01*
X111858901Y-54531622D01*
G04 #@! TA.AperFunction,Conductor*
D25*
G36*
X111858901Y-54531622D02*
G01*
X111820975Y-54493696D01*
X111710508Y-54604163D01*
X111463827Y-54224823D01*
X110968113Y-53968909D01*
X110431997Y-53814621D01*
X109876083Y-53767889D01*
X109321734Y-53830508D01*
X108790252Y-54000073D01*
X108369773Y-54224823D01*
X108123091Y-54604165D01*
X109916800Y-56397874D01*
X109930943Y-56383732D01*
X110146469Y-56599258D01*
X110132326Y-56613400D01*
X110146469Y-56627543D01*
X109930943Y-56843069D01*
X109916800Y-56828926D01*
X108123091Y-58622635D01*
X108369773Y-59001977D01*
X108865487Y-59257891D01*
X109401603Y-59412179D01*
X109957517Y-59458911D01*
X110511866Y-59396292D01*
X111043348Y-59226727D01*
X111463827Y-59001977D01*
X111710508Y-58622637D01*
X111820975Y-58733104D01*
X111858901Y-58695178D01*
X111858900Y-92067300D01*
X58224100Y-92067300D01*
X58224100Y-88274007D01*
X59570090Y-88274007D01*
X59597911Y-88365738D01*
X59716031Y-88626352D01*
X59882724Y-88858914D01*
X60091585Y-89054487D01*
X60334587Y-89205556D01*
X60602392Y-89306315D01*
X60827600Y-89195628D01*
X60827600Y-88048800D01*
X61132400Y-88048800D01*
X61132400Y-89195628D01*
X61357608Y-89306315D01*
X61625413Y-89205556D01*
X61868415Y-89054487D01*
X62077276Y-88858914D01*
X62243969Y-88626352D01*
X62362089Y-88365738D01*
X62389910Y-88274007D01*
X62278286Y-88048800D01*
X61132400Y-88048800D01*
X60827600Y-88048800D01*
X59681714Y-88048800D01*
X59570090Y-88274007D01*
X58224100Y-88274007D01*
X58224100Y-85734007D01*
X59570090Y-85734007D01*
X59597911Y-85825738D01*
X59716031Y-86086352D01*
X59882724Y-86318914D01*
X60091585Y-86514487D01*
X60271603Y-86626400D01*
X60091585Y-86738313D01*
X59882724Y-86933886D01*
X59716031Y-87166448D01*
X59597911Y-87427062D01*
X59570090Y-87518793D01*
X59681714Y-87744000D01*
X60827600Y-87744000D01*
X60827600Y-85508800D01*
X61132400Y-85508800D01*
X61132400Y-87744000D01*
X62278286Y-87744000D01*
X62389910Y-87518793D01*
X62362089Y-87427062D01*
X62243969Y-87166448D01*
X62077276Y-86933886D01*
X61868415Y-86738313D01*
X61688397Y-86626400D01*
X61868415Y-86514487D01*
X62077276Y-86318914D01*
X62243969Y-86086352D01*
X62362089Y-85825738D01*
X62389910Y-85734007D01*
X62278286Y-85508800D01*
X61132400Y-85508800D01*
X60827600Y-85508800D01*
X59681714Y-85508800D01*
X59570090Y-85734007D01*
X58224100Y-85734007D01*
X58224100Y-84978793D01*
X59570090Y-84978793D01*
X59681714Y-85204000D01*
X60827600Y-85204000D01*
X60827600Y-85184000D01*
X61132400Y-85184000D01*
X61132400Y-85204000D01*
X62278286Y-85204000D01*
X62389910Y-84978793D01*
X62362089Y-84887062D01*
X62243969Y-84626448D01*
X62077276Y-84393886D01*
X61868415Y-84198313D01*
X61625413Y-84047244D01*
X61380932Y-83955260D01*
X61551066Y-83884789D01*
X61748525Y-83752850D01*
X61916450Y-83584925D01*
X62048389Y-83387466D01*
X62139269Y-83168060D01*
X62185600Y-82935141D01*
X62185600Y-82739440D01*
X92966486Y-82739440D01*
X93041577Y-82973233D01*
X93294845Y-83087048D01*
X93565452Y-83149266D01*
X93842997Y-83157495D01*
X94116814Y-83111420D01*
X94376381Y-83012811D01*
X94450423Y-82973233D01*
X94525514Y-82739440D01*
X93746000Y-81959926D01*
X92966486Y-82739440D01*
X62185600Y-82739440D01*
X62185600Y-82697659D01*
X62139269Y-82464740D01*
X62048389Y-82245334D01*
X61916450Y-82047875D01*
X61902015Y-82033440D01*
X85092486Y-82033440D01*
X85167577Y-82267233D01*
X85420845Y-82381048D01*
X85691452Y-82443266D01*
X85968997Y-82451495D01*
X86242814Y-82405420D01*
X86502381Y-82306811D01*
X86576423Y-82267233D01*
X86651514Y-82033440D01*
X86459471Y-81841397D01*
X92332905Y-81841397D01*
X92378980Y-82115214D01*
X92477589Y-82374781D01*
X92517167Y-82448823D01*
X92750960Y-82523914D01*
X93530474Y-81744400D01*
X93961526Y-81744400D01*
X94741040Y-82523914D01*
X94974833Y-82448823D01*
X95088648Y-82195555D01*
X95150866Y-81924948D01*
X95159095Y-81647403D01*
X95113020Y-81373586D01*
X95014411Y-81114019D01*
X94974833Y-81039977D01*
X94788072Y-80979992D01*
X100449400Y-80979992D01*
X100469015Y-81179143D01*
X100546529Y-81434675D01*
X100672406Y-81670174D01*
X100841808Y-81876591D01*
X101048225Y-82045994D01*
X101283724Y-82171871D01*
X101539256Y-82249385D01*
X101805000Y-82275559D01*
X102070743Y-82249385D01*
X102326275Y-82171871D01*
X102561774Y-82045994D01*
X102768191Y-81876592D01*
X102937594Y-81670175D01*
X103063471Y-81434676D01*
X103140985Y-81179144D01*
X103160600Y-80979993D01*
X103160600Y-79765800D01*
X106295400Y-79765800D01*
X106295400Y-81065800D01*
X106356060Y-81376889D01*
X106476245Y-81670166D01*
X106651336Y-81934361D01*
X106874604Y-82159321D01*
X107137470Y-82336401D01*
X107429832Y-82458796D01*
X107503811Y-82472201D01*
X107752600Y-82362609D01*
X107752600Y-79765800D01*
X108057400Y-79765800D01*
X108057400Y-82362609D01*
X108306189Y-82472201D01*
X108380168Y-82458796D01*
X108672530Y-82336401D01*
X108935396Y-82159321D01*
X109158664Y-81934361D01*
X109333755Y-81670166D01*
X109453940Y-81376889D01*
X109514600Y-81065800D01*
X109514600Y-79765800D01*
X108057400Y-79765800D01*
X107752600Y-79765800D01*
X106295400Y-79765800D01*
X103160600Y-79765800D01*
X103160600Y-78246807D01*
X103152149Y-78161000D01*
X106295400Y-78161000D01*
X106295400Y-79461000D01*
X107752600Y-79461000D01*
X107752600Y-76864191D01*
X108057400Y-76864191D01*
X108057400Y-79461000D01*
X109514600Y-79461000D01*
X109514600Y-78161000D01*
X109453940Y-77849911D01*
X109333755Y-77556634D01*
X109158664Y-77292439D01*
X108935396Y-77067479D01*
X108672530Y-76890399D01*
X108380168Y-76768004D01*
X108306189Y-76754599D01*
X108057400Y-76864191D01*
X107752600Y-76864191D01*
X107503811Y-76754599D01*
X107429832Y-76768004D01*
X107137470Y-76890399D01*
X106874604Y-77067479D01*
X106651336Y-77292439D01*
X106476245Y-77556634D01*
X106356060Y-77849911D01*
X106295400Y-78161000D01*
X103152149Y-78161000D01*
X103140985Y-78047656D01*
X103063471Y-77792124D01*
X102937594Y-77556625D01*
X102768192Y-77350208D01*
X102561775Y-77180806D01*
X102326276Y-77054929D01*
X102070744Y-76977415D01*
X101805000Y-76951241D01*
X101539257Y-76977415D01*
X101283725Y-77054929D01*
X101048226Y-77180806D01*
X100841809Y-77350208D01*
X100672407Y-77556625D01*
X100546530Y-77792124D01*
X100469016Y-78047656D01*
X100449401Y-78246807D01*
X100449400Y-80979992D01*
X94788072Y-80979992D01*
X94741040Y-80964886D01*
X93961526Y-81744400D01*
X93530474Y-81744400D01*
X92750960Y-80964886D01*
X92517167Y-81039977D01*
X92403352Y-81293245D01*
X92341134Y-81563852D01*
X92332905Y-81841397D01*
X86459471Y-81841397D01*
X85872000Y-81253926D01*
X85092486Y-82033440D01*
X61902015Y-82033440D01*
X61748525Y-81879950D01*
X61551066Y-81748011D01*
X61331660Y-81657131D01*
X61098741Y-81610800D01*
X60861259Y-81610800D01*
X60628340Y-81657131D01*
X60408934Y-81748011D01*
X60211475Y-81879950D01*
X60043550Y-82047875D01*
X59911611Y-82245334D01*
X59820731Y-82464740D01*
X59774400Y-82697659D01*
X59774400Y-82935141D01*
X59820731Y-83168060D01*
X59911611Y-83387466D01*
X60043550Y-83584925D01*
X60211475Y-83752850D01*
X60408934Y-83884789D01*
X60579068Y-83955260D01*
X60334587Y-84047244D01*
X60091585Y-84198313D01*
X59882724Y-84393886D01*
X59716031Y-84626448D01*
X59597911Y-84887062D01*
X59570090Y-84978793D01*
X58224100Y-84978793D01*
X58224100Y-76886400D01*
X59772680Y-76886400D01*
X59772680Y-78586400D01*
X59779546Y-78656110D01*
X59799879Y-78723140D01*
X59832899Y-78784916D01*
X59877337Y-78839063D01*
X59931484Y-78883501D01*
X59993260Y-78916521D01*
X60060290Y-78936854D01*
X60130000Y-78943720D01*
X60306901Y-78943720D01*
X60306900Y-79276188D01*
X60211475Y-79339950D01*
X60043550Y-79507875D01*
X59911611Y-79705334D01*
X59820731Y-79924740D01*
X59774400Y-80157659D01*
X59774400Y-80395141D01*
X59820731Y-80628060D01*
X59911611Y-80847466D01*
X60043550Y-81044925D01*
X60211475Y-81212850D01*
X60408934Y-81344789D01*
X60628340Y-81435669D01*
X60861259Y-81482000D01*
X61098741Y-81482000D01*
X61331660Y-81435669D01*
X61551066Y-81344789D01*
X61748525Y-81212850D01*
X61916450Y-81044925D01*
X62048389Y-80847466D01*
X62121655Y-80670583D01*
X66428400Y-80670583D01*
X66428400Y-80898217D01*
X66472809Y-81121476D01*
X66559921Y-81331782D01*
X66686387Y-81521052D01*
X66847348Y-81682013D01*
X67036618Y-81808479D01*
X67246924Y-81895591D01*
X67470183Y-81940000D01*
X67697817Y-81940000D01*
X67921076Y-81895591D01*
X68131382Y-81808479D01*
X68320652Y-81682013D01*
X68481613Y-81521052D01*
X68608079Y-81331782D01*
X68695191Y-81121476D01*
X68739600Y-80898217D01*
X68739600Y-80670583D01*
X68695191Y-80447324D01*
X68608079Y-80237018D01*
X68481613Y-80047748D01*
X68418265Y-79984400D01*
X74046680Y-79984400D01*
X74046680Y-81584400D01*
X74053546Y-81654110D01*
X74073879Y-81721140D01*
X74106899Y-81782916D01*
X74151337Y-81837063D01*
X74205484Y-81881501D01*
X74267260Y-81914521D01*
X74334290Y-81934854D01*
X74404000Y-81941720D01*
X76004000Y-81941720D01*
X76073710Y-81934854D01*
X76140740Y-81914521D01*
X76202516Y-81881501D01*
X76256663Y-81837063D01*
X76301101Y-81782916D01*
X76334121Y-81721140D01*
X76354454Y-81654110D01*
X76361320Y-81584400D01*
X76361320Y-79984400D01*
X78872680Y-79984400D01*
X78872680Y-81584400D01*
X78879546Y-81654110D01*
X78899879Y-81721140D01*
X78932899Y-81782916D01*
X78977337Y-81837063D01*
X79031484Y-81881501D01*
X79093260Y-81914521D01*
X79160290Y-81934854D01*
X79230000Y-81941720D01*
X80830000Y-81941720D01*
X80899710Y-81934854D01*
X80966740Y-81914521D01*
X81028516Y-81881501D01*
X81082663Y-81837063D01*
X81127101Y-81782916D01*
X81160121Y-81721140D01*
X81180454Y-81654110D01*
X81187320Y-81584400D01*
X81187320Y-81135397D01*
X84458905Y-81135397D01*
X84504980Y-81409214D01*
X84603589Y-81668781D01*
X84643167Y-81742823D01*
X84876960Y-81817914D01*
X85656474Y-81038400D01*
X86087526Y-81038400D01*
X86867040Y-81817914D01*
X87100833Y-81742823D01*
X87214648Y-81489555D01*
X87276866Y-81218948D01*
X87285095Y-80941403D01*
X87252781Y-80749360D01*
X92966486Y-80749360D01*
X93746000Y-81528874D01*
X94525514Y-80749360D01*
X94450423Y-80515567D01*
X94197155Y-80401752D01*
X93926548Y-80339534D01*
X93649003Y-80331305D01*
X93375186Y-80377380D01*
X93115619Y-80475989D01*
X93041577Y-80515567D01*
X92966486Y-80749360D01*
X87252781Y-80749360D01*
X87239020Y-80667586D01*
X87140411Y-80408019D01*
X87100833Y-80333977D01*
X86867040Y-80258886D01*
X86087526Y-81038400D01*
X85656474Y-81038400D01*
X84876960Y-80258886D01*
X84643167Y-80333977D01*
X84529352Y-80587245D01*
X84467134Y-80857852D01*
X84458905Y-81135397D01*
X81187320Y-81135397D01*
X81187320Y-79984400D01*
X81180454Y-79914690D01*
X81160121Y-79847660D01*
X81127101Y-79785884D01*
X81082663Y-79731737D01*
X81028516Y-79687299D01*
X80966740Y-79654279D01*
X80899710Y-79633946D01*
X80830000Y-79627080D01*
X80464884Y-79627080D01*
X80660381Y-79552811D01*
X80734423Y-79513233D01*
X80809514Y-79279440D01*
X80030000Y-78499926D01*
X79250486Y-79279440D01*
X79325577Y-79513233D01*
X79578845Y-79627048D01*
X79578984Y-79627080D01*
X79230000Y-79627080D01*
X79160290Y-79633946D01*
X79093260Y-79654279D01*
X79031484Y-79687299D01*
X78977337Y-79731737D01*
X78932899Y-79785884D01*
X78899879Y-79847660D01*
X78879546Y-79914690D01*
X78872680Y-79984400D01*
X76361320Y-79984400D01*
X76354454Y-79914690D01*
X76334121Y-79847660D01*
X76301101Y-79785884D01*
X76256663Y-79731737D01*
X76202516Y-79687299D01*
X76140740Y-79654279D01*
X76073710Y-79633946D01*
X76004000Y-79627080D01*
X74404000Y-79627080D01*
X74334290Y-79633946D01*
X74267260Y-79654279D01*
X74205484Y-79687299D01*
X74151337Y-79731737D01*
X74106899Y-79785884D01*
X74073879Y-79847660D01*
X74053546Y-79914690D01*
X74046680Y-79984400D01*
X68418265Y-79984400D01*
X68320652Y-79886787D01*
X68131382Y-79760321D01*
X67921076Y-79673209D01*
X67697817Y-79628800D01*
X67470183Y-79628800D01*
X67246924Y-79673209D01*
X67036618Y-79760321D01*
X66847348Y-79886787D01*
X66686387Y-80047748D01*
X66559921Y-80237018D01*
X66472809Y-80447324D01*
X66428400Y-80670583D01*
X62121655Y-80670583D01*
X62139269Y-80628060D01*
X62185600Y-80395141D01*
X62185600Y-80157659D01*
X62139269Y-79924740D01*
X62048389Y-79705334D01*
X61916450Y-79507875D01*
X61748525Y-79339950D01*
X61653100Y-79276189D01*
X61653100Y-78943720D01*
X61830000Y-78943720D01*
X61899710Y-78936854D01*
X61966740Y-78916521D01*
X62028516Y-78883501D01*
X62082663Y-78839063D01*
X62127101Y-78784916D01*
X62160121Y-78723140D01*
X62180454Y-78656110D01*
X62187320Y-78586400D01*
X62187320Y-76886400D01*
X62180454Y-76816690D01*
X62160121Y-76749660D01*
X62127101Y-76687884D01*
X62082663Y-76633737D01*
X62028516Y-76589299D01*
X61966740Y-76556279D01*
X61899710Y-76535946D01*
X61830000Y-76529080D01*
X60130000Y-76529080D01*
X60060290Y-76535946D01*
X59993260Y-76556279D01*
X59931484Y-76589299D01*
X59877337Y-76633737D01*
X59832899Y-76687884D01*
X59799879Y-76749660D01*
X59779546Y-76816690D01*
X59772680Y-76886400D01*
X58224100Y-76886400D01*
X58224100Y-76074141D01*
X66223756Y-76074141D01*
X66247577Y-76152685D01*
X66360712Y-76404795D01*
X66520857Y-76629989D01*
X66721858Y-76819613D01*
X66955991Y-76966380D01*
X67214258Y-77064650D01*
X67431598Y-76953344D01*
X67431598Y-77096475D01*
X67246924Y-77133209D01*
X67036618Y-77220321D01*
X66847348Y-77346787D01*
X66686387Y-77507748D01*
X66559921Y-77697018D01*
X66472809Y-77907324D01*
X66428400Y-78130583D01*
X66428400Y-78358217D01*
X66472809Y-78581476D01*
X66559921Y-78791782D01*
X66686387Y-78981052D01*
X66847348Y-79142013D01*
X67036618Y-79268479D01*
X67246924Y-79355591D01*
X67470183Y-79400000D01*
X67697817Y-79400000D01*
X67921076Y-79355591D01*
X68131382Y-79268479D01*
X68320652Y-79142013D01*
X68481613Y-78981052D01*
X68608079Y-78791782D01*
X68695191Y-78581476D01*
X68739600Y-78358217D01*
X68739600Y-78130583D01*
X68695191Y-77907324D01*
X68608079Y-77697018D01*
X68481613Y-77507748D01*
X68320652Y-77346787D01*
X68131382Y-77220321D01*
X67921076Y-77133209D01*
X67736402Y-77096475D01*
X67736402Y-76953344D01*
X67953742Y-77064650D01*
X68212009Y-76966380D01*
X68446142Y-76819613D01*
X68647143Y-76629989D01*
X68807288Y-76404795D01*
X68920423Y-76152685D01*
X68944244Y-76074141D01*
X73843756Y-76074141D01*
X73867577Y-76152685D01*
X73980712Y-76404795D01*
X74140857Y-76629989D01*
X74341858Y-76819613D01*
X74575991Y-76966380D01*
X74834258Y-77064650D01*
X75051598Y-76953344D01*
X75051598Y-77096475D01*
X74866924Y-77133209D01*
X74656618Y-77220321D01*
X74467348Y-77346787D01*
X74306387Y-77507748D01*
X74179921Y-77697018D01*
X74092809Y-77907324D01*
X74048400Y-78130583D01*
X74048400Y-78358217D01*
X74092809Y-78581476D01*
X74179921Y-78791782D01*
X74306387Y-78981052D01*
X74467348Y-79142013D01*
X74656618Y-79268479D01*
X74866924Y-79355591D01*
X75090183Y-79400000D01*
X75317817Y-79400000D01*
X75541076Y-79355591D01*
X75751382Y-79268479D01*
X75940652Y-79142013D01*
X76101613Y-78981052D01*
X76228079Y-78791782D01*
X76315191Y-78581476D01*
X76354989Y-78381397D01*
X78616905Y-78381397D01*
X78662980Y-78655214D01*
X78761589Y-78914781D01*
X78801167Y-78988823D01*
X79034960Y-79063914D01*
X79814474Y-78284400D01*
X80245526Y-78284400D01*
X81025040Y-79063914D01*
X81258833Y-78988823D01*
X81372648Y-78735555D01*
X81434866Y-78464948D01*
X81436062Y-78424583D01*
X84716400Y-78424583D01*
X84716400Y-78652217D01*
X84760809Y-78875476D01*
X84847921Y-79085782D01*
X84974387Y-79275052D01*
X85135348Y-79436013D01*
X85324618Y-79562479D01*
X85534924Y-79649591D01*
X85578804Y-79658319D01*
X85501186Y-79671380D01*
X85241619Y-79769989D01*
X85167577Y-79809567D01*
X85092486Y-80043360D01*
X85872000Y-80822874D01*
X86651514Y-80043360D01*
X86576423Y-79809567D01*
X86323155Y-79695752D01*
X86162596Y-79658836D01*
X86209076Y-79649591D01*
X86419382Y-79562479D01*
X86608652Y-79436013D01*
X86769613Y-79275052D01*
X86896079Y-79085782D01*
X86983191Y-78875476D01*
X87027600Y-78652217D01*
X87027600Y-78424583D01*
X86983191Y-78201324D01*
X86896079Y-77991018D01*
X86769613Y-77801748D01*
X86608652Y-77640787D01*
X86419382Y-77514321D01*
X86250579Y-77444400D01*
X92588680Y-77444400D01*
X92588680Y-79044400D01*
X92595546Y-79114110D01*
X92615879Y-79181140D01*
X92648899Y-79242916D01*
X92693337Y-79297063D01*
X92747484Y-79341501D01*
X92809260Y-79374521D01*
X92876290Y-79394854D01*
X92946000Y-79401720D01*
X94546000Y-79401720D01*
X94615710Y-79394854D01*
X94682740Y-79374521D01*
X94744516Y-79341501D01*
X94798663Y-79297063D01*
X94843101Y-79242916D01*
X94876121Y-79181140D01*
X94896454Y-79114110D01*
X94903320Y-79044400D01*
X94903320Y-77444400D01*
X94896454Y-77374690D01*
X94876121Y-77307660D01*
X94843101Y-77245884D01*
X94798663Y-77191737D01*
X94744516Y-77147299D01*
X94682740Y-77114279D01*
X94615710Y-77093946D01*
X94546000Y-77087080D01*
X92946000Y-77087080D01*
X92876290Y-77093946D01*
X92809260Y-77114279D01*
X92747484Y-77147299D01*
X92693337Y-77191737D01*
X92648899Y-77245884D01*
X92615879Y-77307660D01*
X92595546Y-77374690D01*
X92588680Y-77444400D01*
X86250579Y-77444400D01*
X86209076Y-77427209D01*
X85985817Y-77382800D01*
X85758183Y-77382800D01*
X85534924Y-77427209D01*
X85324618Y-77514321D01*
X85135348Y-77640787D01*
X84974387Y-77801748D01*
X84847921Y-77991018D01*
X84760809Y-78201324D01*
X84716400Y-78424583D01*
X81436062Y-78424583D01*
X81443095Y-78187403D01*
X81397020Y-77913586D01*
X81298411Y-77654019D01*
X81258833Y-77579977D01*
X81025040Y-77504886D01*
X80245526Y-78284400D01*
X79814474Y-78284400D01*
X79034960Y-77504886D01*
X78801167Y-77579977D01*
X78687352Y-77833245D01*
X78625134Y-78103852D01*
X78616905Y-78381397D01*
X76354989Y-78381397D01*
X76359600Y-78358217D01*
X76359600Y-78130583D01*
X76315191Y-77907324D01*
X76228079Y-77697018D01*
X76101613Y-77507748D01*
X75940652Y-77346787D01*
X75854707Y-77289360D01*
X79250486Y-77289360D01*
X80030000Y-78068874D01*
X80809514Y-77289360D01*
X80734423Y-77055567D01*
X80481155Y-76941752D01*
X80210548Y-76879534D01*
X79933003Y-76871305D01*
X79659186Y-76917380D01*
X79399619Y-77015989D01*
X79325577Y-77055567D01*
X79250486Y-77289360D01*
X75854707Y-77289360D01*
X75751382Y-77220321D01*
X75541076Y-77133209D01*
X75356402Y-77096475D01*
X75356402Y-76953344D01*
X75573742Y-77064650D01*
X75832009Y-76966380D01*
X76066142Y-76819613D01*
X76267143Y-76629989D01*
X76427288Y-76404795D01*
X76540423Y-76152685D01*
X76564244Y-76074141D01*
X76451929Y-75856800D01*
X75356400Y-75856800D01*
X75356400Y-75876800D01*
X75051600Y-75876800D01*
X75051600Y-75856800D01*
X73956071Y-75856800D01*
X73843756Y-76074141D01*
X68944244Y-76074141D01*
X68831929Y-75856800D01*
X67736400Y-75856800D01*
X67736400Y-75876800D01*
X67431600Y-75876800D01*
X67431600Y-75856800D01*
X66336071Y-75856800D01*
X66223756Y-76074141D01*
X58224100Y-76074141D01*
X58224100Y-73137583D01*
X59824400Y-73137583D01*
X59824400Y-73365217D01*
X59868809Y-73588476D01*
X59955921Y-73798782D01*
X60082387Y-73988052D01*
X60243348Y-74149013D01*
X60432618Y-74275479D01*
X60642924Y-74362591D01*
X60866183Y-74407000D01*
X61093817Y-74407000D01*
X61317076Y-74362591D01*
X61527382Y-74275479D01*
X61716652Y-74149013D01*
X61877613Y-73988052D01*
X62004079Y-73798782D01*
X62091191Y-73588476D01*
X62101998Y-73534141D01*
X66223756Y-73534141D01*
X66247577Y-73612685D01*
X66360712Y-73864795D01*
X66520857Y-74089989D01*
X66721858Y-74279613D01*
X66955991Y-74426380D01*
X66977069Y-74434400D01*
X66955991Y-74442420D01*
X66721858Y-74589187D01*
X66520857Y-74778811D01*
X66360712Y-75004005D01*
X66247577Y-75256115D01*
X66223756Y-75334659D01*
X66336071Y-75552000D01*
X67431600Y-75552000D01*
X67431600Y-74455457D01*
X67390483Y-74434400D01*
X67431600Y-74413343D01*
X67431600Y-73316800D01*
X67736400Y-73316800D01*
X67736400Y-74413343D01*
X67777517Y-74434400D01*
X67736400Y-74455457D01*
X67736400Y-75552000D01*
X68831929Y-75552000D01*
X68944244Y-75334659D01*
X68920423Y-75256115D01*
X68807288Y-75004005D01*
X68647143Y-74778811D01*
X68446142Y-74589187D01*
X68212009Y-74442420D01*
X68190931Y-74434400D01*
X68212009Y-74426380D01*
X68446142Y-74279613D01*
X68647143Y-74089989D01*
X68807288Y-73864795D01*
X68920423Y-73612685D01*
X68944244Y-73534141D01*
X73843756Y-73534141D01*
X73867577Y-73612685D01*
X73980712Y-73864795D01*
X74140857Y-74089989D01*
X74341858Y-74279613D01*
X74575991Y-74426380D01*
X74597069Y-74434400D01*
X74575991Y-74442420D01*
X74341858Y-74589187D01*
X74140857Y-74778811D01*
X73980712Y-75004005D01*
X73867577Y-75256115D01*
X73843756Y-75334659D01*
X73956071Y-75552000D01*
X75051600Y-75552000D01*
X75051600Y-74455457D01*
X75010483Y-74434400D01*
X75051600Y-74413343D01*
X75051600Y-73316800D01*
X75356400Y-73316800D01*
X75356400Y-74413343D01*
X75397517Y-74434400D01*
X75356400Y-74455457D01*
X75356400Y-75552000D01*
X76451929Y-75552000D01*
X76522938Y-75414589D01*
X101846199Y-75414589D01*
X101859604Y-75488568D01*
X101981999Y-75780930D01*
X102159079Y-76043796D01*
X102384039Y-76267064D01*
X102648234Y-76442155D01*
X102941511Y-76562340D01*
X103252600Y-76623000D01*
X104552600Y-76623000D01*
X104552600Y-75165800D01*
X104857400Y-75165800D01*
X104857400Y-76623000D01*
X106157400Y-76623000D01*
X106468489Y-76562340D01*
X106761766Y-76442155D01*
X107025961Y-76267064D01*
X107250921Y-76043796D01*
X107428001Y-75780930D01*
X107550396Y-75488568D01*
X107563801Y-75414589D01*
X107454209Y-75165800D01*
X104857400Y-75165800D01*
X104552600Y-75165800D01*
X101955791Y-75165800D01*
X101846199Y-75414589D01*
X76522938Y-75414589D01*
X76564244Y-75334659D01*
X76540423Y-75256115D01*
X76427288Y-75004005D01*
X76267143Y-74778811D01*
X76066142Y-74589187D01*
X75832009Y-74442420D01*
X75810931Y-74434400D01*
X75832009Y-74426380D01*
X76066142Y-74279613D01*
X76267143Y-74089989D01*
X76427288Y-73864795D01*
X76540423Y-73612685D01*
X76564244Y-73534141D01*
X76451929Y-73316800D01*
X75356400Y-73316800D01*
X75051600Y-73316800D01*
X73956071Y-73316800D01*
X73843756Y-73534141D01*
X68944244Y-73534141D01*
X68831929Y-73316800D01*
X67736400Y-73316800D01*
X67431600Y-73316800D01*
X66336071Y-73316800D01*
X66223756Y-73534141D01*
X62101998Y-73534141D01*
X62135600Y-73365217D01*
X62135600Y-73137583D01*
X62091191Y-72914324D01*
X62004079Y-72704018D01*
X61877613Y-72514748D01*
X61716652Y-72353787D01*
X61527382Y-72227321D01*
X61317076Y-72140209D01*
X61093817Y-72095800D01*
X60866183Y-72095800D01*
X60642924Y-72140209D01*
X60432618Y-72227321D01*
X60243348Y-72353787D01*
X60082387Y-72514748D01*
X59955921Y-72704018D01*
X59868809Y-72914324D01*
X59824400Y-73137583D01*
X58224100Y-73137583D01*
X58224100Y-69951400D01*
X59822680Y-69951400D01*
X59822680Y-71551400D01*
X59829546Y-71621110D01*
X59849879Y-71688140D01*
X59882899Y-71749916D01*
X59927337Y-71804063D01*
X59981484Y-71848501D01*
X60043260Y-71881521D01*
X60110290Y-71901854D01*
X60180000Y-71908720D01*
X61780000Y-71908720D01*
X61849710Y-71901854D01*
X61916740Y-71881521D01*
X61978516Y-71848501D01*
X62032663Y-71804063D01*
X62077101Y-71749916D01*
X62110121Y-71688140D01*
X62130454Y-71621110D01*
X62137320Y-71551400D01*
X62137320Y-70994141D01*
X66223756Y-70994141D01*
X66247577Y-71072685D01*
X66360712Y-71324795D01*
X66520857Y-71549989D01*
X66721858Y-71739613D01*
X66955991Y-71886380D01*
X66977069Y-71894400D01*
X66955991Y-71902420D01*
X66721858Y-72049187D01*
X66520857Y-72238811D01*
X66360712Y-72464005D01*
X66247577Y-72716115D01*
X66223756Y-72794659D01*
X66336071Y-73012000D01*
X67431600Y-73012000D01*
X67431600Y-71915457D01*
X67390483Y-71894400D01*
X67431600Y-71873343D01*
X67431600Y-70776800D01*
X67736400Y-70776800D01*
X67736400Y-71873343D01*
X67777517Y-71894400D01*
X67736400Y-71915457D01*
X67736400Y-73012000D01*
X68831929Y-73012000D01*
X68944244Y-72794659D01*
X68920423Y-72716115D01*
X68807288Y-72464005D01*
X68647143Y-72238811D01*
X68446142Y-72049187D01*
X68212009Y-71902420D01*
X68190931Y-71894400D01*
X68212009Y-71886380D01*
X68446142Y-71739613D01*
X68647143Y-71549989D01*
X68807288Y-71324795D01*
X68920423Y-71072685D01*
X68944244Y-70994141D01*
X73843756Y-70994141D01*
X73867577Y-71072685D01*
X73980712Y-71324795D01*
X74140857Y-71549989D01*
X74341858Y-71739613D01*
X74575991Y-71886380D01*
X74597069Y-71894400D01*
X74575991Y-71902420D01*
X74341858Y-72049187D01*
X74140857Y-72238811D01*
X73980712Y-72464005D01*
X73867577Y-72716115D01*
X73843756Y-72794659D01*
X73956071Y-73012000D01*
X75051600Y-73012000D01*
X75051600Y-71915457D01*
X75010483Y-71894400D01*
X75051600Y-71873343D01*
X75051600Y-70776800D01*
X75356400Y-70776800D01*
X75356400Y-71873343D01*
X75397517Y-71894400D01*
X75356400Y-71915457D01*
X75356400Y-73012000D01*
X76451929Y-73012000D01*
X76564244Y-72794659D01*
X76540423Y-72716115D01*
X76427288Y-72464005D01*
X76267143Y-72238811D01*
X76066142Y-72049187D01*
X75832009Y-71902420D01*
X75810931Y-71894400D01*
X75832009Y-71886380D01*
X76066142Y-71739613D01*
X76267143Y-71549989D01*
X76427288Y-71324795D01*
X76540423Y-71072685D01*
X76550740Y-71038666D01*
X93771400Y-71038666D01*
X93771400Y-71734134D01*
X93907079Y-72416238D01*
X94173223Y-73058766D01*
X94559604Y-73637026D01*
X95051374Y-74128796D01*
X95629634Y-74515177D01*
X96272162Y-74781321D01*
X96954266Y-74917000D01*
X97649734Y-74917000D01*
X98331838Y-74781321D01*
X98740105Y-74612211D01*
X101846199Y-74612211D01*
X101955791Y-74861000D01*
X104552600Y-74861000D01*
X104552600Y-73403800D01*
X104857400Y-73403800D01*
X104857400Y-74861000D01*
X107454209Y-74861000D01*
X107563801Y-74612211D01*
X107550396Y-74538232D01*
X107428001Y-74245870D01*
X107250921Y-73983004D01*
X107025961Y-73759736D01*
X106761766Y-73584645D01*
X106468489Y-73464460D01*
X106157400Y-73403800D01*
X104857400Y-73403800D01*
X104552600Y-73403800D01*
X103252600Y-73403800D01*
X102941511Y-73464460D01*
X102648234Y-73584645D01*
X102384039Y-73759736D01*
X102159079Y-73983004D01*
X101981999Y-74245870D01*
X101859604Y-74538232D01*
X101846199Y-74612211D01*
X98740105Y-74612211D01*
X98974366Y-74515177D01*
X99552626Y-74128796D01*
X100044396Y-73637026D01*
X100430777Y-73058766D01*
X100696921Y-72416238D01*
X100832600Y-71734134D01*
X100832600Y-71038666D01*
X100696921Y-70356562D01*
X100430777Y-69714034D01*
X100044396Y-69135774D01*
X99552626Y-68644004D01*
X98974366Y-68257623D01*
X98331838Y-67991479D01*
X97649734Y-67855800D01*
X96954266Y-67855800D01*
X96272162Y-67991479D01*
X95629634Y-68257623D01*
X95051374Y-68644004D01*
X94559604Y-69135774D01*
X94173223Y-69714034D01*
X93907079Y-70356562D01*
X93771400Y-71038666D01*
X76550740Y-71038666D01*
X76564244Y-70994141D01*
X76451929Y-70776800D01*
X75356400Y-70776800D01*
X75051600Y-70776800D01*
X73956071Y-70776800D01*
X73843756Y-70994141D01*
X68944244Y-70994141D01*
X68831929Y-70776800D01*
X67736400Y-70776800D01*
X67431600Y-70776800D01*
X66336071Y-70776800D01*
X66223756Y-70994141D01*
X62137320Y-70994141D01*
X62137320Y-70254659D01*
X66223756Y-70254659D01*
X66336071Y-70472000D01*
X67431600Y-70472000D01*
X67431600Y-70452000D01*
X67736400Y-70452000D01*
X67736400Y-70472000D01*
X68831929Y-70472000D01*
X68944244Y-70254659D01*
X68920423Y-70176115D01*
X68807288Y-69924005D01*
X68647143Y-69698811D01*
X68446142Y-69509187D01*
X68212009Y-69362420D01*
X67953742Y-69264150D01*
X67736402Y-69375456D01*
X67736402Y-69232325D01*
X67921076Y-69195591D01*
X68131382Y-69108479D01*
X68320652Y-68982013D01*
X68481613Y-68821052D01*
X68608079Y-68631782D01*
X68681660Y-68454141D01*
X73843756Y-68454141D01*
X73867577Y-68532685D01*
X73980712Y-68784795D01*
X74140857Y-69009989D01*
X74341858Y-69199613D01*
X74575991Y-69346380D01*
X74597069Y-69354400D01*
X74575991Y-69362420D01*
X74341858Y-69509187D01*
X74140857Y-69698811D01*
X73980712Y-69924005D01*
X73867577Y-70176115D01*
X73843756Y-70254659D01*
X73956071Y-70472000D01*
X75051600Y-70472000D01*
X75051600Y-69375457D01*
X75010483Y-69354400D01*
X75051600Y-69333343D01*
X75051600Y-68236800D01*
X75356400Y-68236800D01*
X75356400Y-69333343D01*
X75397517Y-69354400D01*
X75356400Y-69375457D01*
X75356400Y-70472000D01*
X76451929Y-70472000D01*
X76564244Y-70254659D01*
X76540423Y-70176115D01*
X76427288Y-69924005D01*
X76267143Y-69698811D01*
X76066142Y-69509187D01*
X75832009Y-69362420D01*
X75810931Y-69354400D01*
X75832009Y-69346380D01*
X76066142Y-69199613D01*
X76267143Y-69009989D01*
X76427288Y-68784795D01*
X76540423Y-68532685D01*
X76564244Y-68454141D01*
X76451929Y-68236800D01*
X75356400Y-68236800D01*
X75051600Y-68236800D01*
X73956071Y-68236800D01*
X73843756Y-68454141D01*
X68681660Y-68454141D01*
X68695191Y-68421476D01*
X68739600Y-68198217D01*
X68739600Y-67970583D01*
X68695191Y-67747324D01*
X68608079Y-67537018D01*
X68481613Y-67347748D01*
X68320652Y-67186787D01*
X68131382Y-67060321D01*
X67921076Y-66973209D01*
X67697817Y-66928800D01*
X67470183Y-66928800D01*
X67246924Y-66973209D01*
X67036618Y-67060321D01*
X66847348Y-67186787D01*
X66686387Y-67347748D01*
X66559921Y-67537018D01*
X66472809Y-67747324D01*
X66428400Y-67970583D01*
X66428400Y-68198217D01*
X66472809Y-68421476D01*
X66559921Y-68631782D01*
X66686387Y-68821052D01*
X66847348Y-68982013D01*
X67036618Y-69108479D01*
X67246924Y-69195591D01*
X67431598Y-69232325D01*
X67431598Y-69375456D01*
X67214258Y-69264150D01*
X66955991Y-69362420D01*
X66721858Y-69509187D01*
X66520857Y-69698811D01*
X66360712Y-69924005D01*
X66247577Y-70176115D01*
X66223756Y-70254659D01*
X62137320Y-70254659D01*
X62137320Y-69951400D01*
X62130454Y-69881690D01*
X62110121Y-69814660D01*
X62077101Y-69752884D01*
X62032663Y-69698737D01*
X61978516Y-69654299D01*
X61916740Y-69621279D01*
X61849710Y-69600946D01*
X61780000Y-69594080D01*
X60180000Y-69594080D01*
X60110290Y-69600946D01*
X60043260Y-69621279D01*
X59981484Y-69654299D01*
X59927337Y-69698737D01*
X59882899Y-69752884D01*
X59849879Y-69814660D01*
X59829546Y-69881690D01*
X59822680Y-69951400D01*
X58224100Y-69951400D01*
X58224100Y-65898583D01*
X62618400Y-65898583D01*
X62618400Y-66126217D01*
X62662809Y-66349476D01*
X62749921Y-66559782D01*
X62876387Y-66749052D01*
X63037348Y-66910013D01*
X63226618Y-67036479D01*
X63436924Y-67123591D01*
X63660183Y-67168000D01*
X63887817Y-67168000D01*
X64111076Y-67123591D01*
X64321382Y-67036479D01*
X64510652Y-66910013D01*
X64671613Y-66749052D01*
X64714077Y-66685500D01*
X64886944Y-66685500D01*
X64920000Y-66688756D01*
X64953056Y-66685500D01*
X64953059Y-66685500D01*
X65051951Y-66675760D01*
X65178830Y-66637271D01*
X65295763Y-66574769D01*
X65398256Y-66490656D01*
X65419334Y-66464972D01*
X66272581Y-65611726D01*
X66298255Y-65590656D01*
X66319326Y-65564981D01*
X66319329Y-65564978D01*
X66382369Y-65488164D01*
X66427672Y-65403407D01*
X66437441Y-65385130D01*
X66428400Y-65430583D01*
X66428400Y-65658217D01*
X66472809Y-65881476D01*
X66559921Y-66091782D01*
X66686387Y-66281052D01*
X66847348Y-66442013D01*
X67036618Y-66568479D01*
X67246924Y-66655591D01*
X67470183Y-66700000D01*
X67697817Y-66700000D01*
X67921076Y-66655591D01*
X68131382Y-66568479D01*
X68320652Y-66442013D01*
X68481613Y-66281052D01*
X68608079Y-66091782D01*
X68681660Y-65914141D01*
X73843756Y-65914141D01*
X73867577Y-65992685D01*
X73980712Y-66244795D01*
X74140857Y-66469989D01*
X74341858Y-66659613D01*
X74575991Y-66806380D01*
X74597069Y-66814400D01*
X74575991Y-66822420D01*
X74341858Y-66969187D01*
X74140857Y-67158811D01*
X73980712Y-67384005D01*
X73867577Y-67636115D01*
X73843756Y-67714659D01*
X73956071Y-67932000D01*
X75051600Y-67932000D01*
X75051600Y-66835457D01*
X75010483Y-66814400D01*
X75051600Y-66793343D01*
X75051600Y-65696800D01*
X75356400Y-65696800D01*
X75356400Y-66793343D01*
X75397517Y-66814400D01*
X75356400Y-66835457D01*
X75356400Y-67932000D01*
X76451929Y-67932000D01*
X76564244Y-67714659D01*
X76540423Y-67636115D01*
X76427288Y-67384005D01*
X76267143Y-67158811D01*
X76066142Y-66969187D01*
X75832009Y-66822420D01*
X75810931Y-66814400D01*
X75832009Y-66806380D01*
X76066142Y-66659613D01*
X76267143Y-66469989D01*
X76427288Y-66244795D01*
X76540423Y-65992685D01*
X76564244Y-65914141D01*
X76451929Y-65696800D01*
X75356400Y-65696800D01*
X75051600Y-65696800D01*
X73956071Y-65696800D01*
X73843756Y-65914141D01*
X68681660Y-65914141D01*
X68695191Y-65881476D01*
X68739600Y-65658217D01*
X68739600Y-65430583D01*
X68695191Y-65207324D01*
X68681661Y-65174659D01*
X73843756Y-65174659D01*
X73956071Y-65392000D01*
X75051600Y-65392000D01*
X75051600Y-64295457D01*
X75356400Y-64295457D01*
X75356400Y-65392000D01*
X76451929Y-65392000D01*
X76564244Y-65174659D01*
X76540423Y-65096115D01*
X76427288Y-64844005D01*
X76267143Y-64618811D01*
X76066142Y-64429187D01*
X75832009Y-64282420D01*
X75573742Y-64184150D01*
X75356400Y-64295457D01*
X75051600Y-64295457D01*
X74834258Y-64184150D01*
X74575991Y-64282420D01*
X74341858Y-64429187D01*
X74140857Y-64618811D01*
X73980712Y-64844005D01*
X73867577Y-65096115D01*
X73843756Y-65174659D01*
X68681661Y-65174659D01*
X68608079Y-64997018D01*
X68481613Y-64807748D01*
X68320652Y-64646787D01*
X68131382Y-64520321D01*
X67921076Y-64433209D01*
X67697817Y-64388800D01*
X67470183Y-64388800D01*
X67246924Y-64433209D01*
X67036618Y-64520321D01*
X66847348Y-64646787D01*
X66686387Y-64807748D01*
X66559921Y-64997018D01*
X66491436Y-65162355D01*
X66493100Y-65145459D01*
X66493100Y-65145449D01*
X66496355Y-65112401D01*
X66493100Y-65079352D01*
X66493100Y-64245206D01*
X66870571Y-63867735D01*
X102611291Y-63867735D01*
X102857973Y-64247077D01*
X103353687Y-64502991D01*
X103889803Y-64657279D01*
X104445717Y-64704011D01*
X105000066Y-64641392D01*
X105531548Y-64471827D01*
X105952027Y-64247077D01*
X106198709Y-63867735D01*
X104405000Y-62074026D01*
X102611291Y-63867735D01*
X66870571Y-63867735D01*
X67568807Y-63169500D01*
X73900944Y-63169500D01*
X73934000Y-63172756D01*
X73967056Y-63169500D01*
X73967059Y-63169500D01*
X74065951Y-63159760D01*
X74192830Y-63121271D01*
X74309763Y-63058769D01*
X74412256Y-62974656D01*
X74433334Y-62948972D01*
X74894581Y-62487726D01*
X74920255Y-62466656D01*
X74941326Y-62440981D01*
X74941329Y-62440978D01*
X75004369Y-62364164D01*
X75066870Y-62247231D01*
X75066871Y-62247230D01*
X75105360Y-62120351D01*
X75115100Y-62021459D01*
X75115100Y-62021449D01*
X75118355Y-61988401D01*
X75115100Y-61955352D01*
X75115100Y-61150477D01*
X75178652Y-61108013D01*
X75339613Y-60947052D01*
X75466079Y-60757782D01*
X75475764Y-60734400D01*
X95182680Y-60734400D01*
X95182680Y-62734400D01*
X95189546Y-62804110D01*
X95209879Y-62871140D01*
X95242899Y-62932916D01*
X95287337Y-62987063D01*
X95341484Y-63031501D01*
X95403260Y-63064521D01*
X95470290Y-63084854D01*
X95540000Y-63091720D01*
X97540000Y-63091720D01*
X97609710Y-63084854D01*
X97676740Y-63064521D01*
X97738516Y-63031501D01*
X97792663Y-62987063D01*
X97837101Y-62932916D01*
X97870121Y-62871140D01*
X97890454Y-62804110D01*
X97897320Y-62734400D01*
X97897320Y-61899217D01*
X101559489Y-61899217D01*
X101622108Y-62453566D01*
X101791673Y-62985048D01*
X102016423Y-63405527D01*
X102395765Y-63652209D01*
X104189474Y-61858500D01*
X104620526Y-61858500D01*
X106414235Y-63652209D01*
X106793577Y-63405527D01*
X107049491Y-62909813D01*
X107203779Y-62373697D01*
X107250511Y-61817783D01*
X107187892Y-61263434D01*
X107018327Y-60731952D01*
X106793577Y-60311473D01*
X106414235Y-60064791D01*
X104620526Y-61858500D01*
X104189474Y-61858500D01*
X102395765Y-60064791D01*
X102016423Y-60311473D01*
X101760509Y-60807187D01*
X101606221Y-61343303D01*
X101559489Y-61899217D01*
X97897320Y-61899217D01*
X97897320Y-60734400D01*
X97890454Y-60664690D01*
X97870121Y-60597660D01*
X97837101Y-60535884D01*
X97792663Y-60481737D01*
X97738516Y-60437299D01*
X97676740Y-60404279D01*
X97609710Y-60383946D01*
X97540000Y-60377080D01*
X95540000Y-60377080D01*
X95470290Y-60383946D01*
X95403260Y-60404279D01*
X95341484Y-60437299D01*
X95287337Y-60481737D01*
X95242899Y-60535884D01*
X95209879Y-60597660D01*
X95189546Y-60664690D01*
X95182680Y-60734400D01*
X75475764Y-60734400D01*
X75553191Y-60547476D01*
X75597600Y-60324217D01*
X75597600Y-60096583D01*
X75553191Y-59873324D01*
X75543226Y-59849265D01*
X102611291Y-59849265D01*
X104405000Y-61642974D01*
X106198709Y-59849265D01*
X105952027Y-59469923D01*
X105456313Y-59214009D01*
X104920197Y-59059721D01*
X104364283Y-59012989D01*
X103809934Y-59075608D01*
X103278452Y-59245173D01*
X102857973Y-59469923D01*
X102611291Y-59849265D01*
X75543226Y-59849265D01*
X75466079Y-59663018D01*
X75339613Y-59473748D01*
X75178652Y-59312787D01*
X74989382Y-59186321D01*
X74779076Y-59099209D01*
X74555817Y-59054800D01*
X74328183Y-59054800D01*
X74104924Y-59099209D01*
X73894618Y-59186321D01*
X73705348Y-59312787D01*
X73544387Y-59473748D01*
X73417921Y-59663018D01*
X73330809Y-59873324D01*
X73286400Y-60096583D01*
X73286400Y-60324217D01*
X73330809Y-60547476D01*
X73417921Y-60757782D01*
X73544387Y-60947052D01*
X73705348Y-61108013D01*
X73768900Y-61150477D01*
X73768900Y-61709593D01*
X73655194Y-61823300D01*
X67323056Y-61823300D01*
X67290000Y-61820044D01*
X67256944Y-61823300D01*
X67256941Y-61823300D01*
X67158049Y-61833040D01*
X67060700Y-61862571D01*
X67031169Y-61871529D01*
X66936788Y-61921977D01*
X66914237Y-61934031D01*
X66811744Y-62018144D01*
X66790670Y-62043823D01*
X65367424Y-63467070D01*
X65341745Y-63488144D01*
X65320671Y-63513823D01*
X65257631Y-63590638D01*
X65195130Y-63707570D01*
X65156641Y-63834450D01*
X65143644Y-63966400D01*
X65146901Y-63999466D01*
X65146900Y-64833593D01*
X64684884Y-65295610D01*
X64671613Y-65275748D01*
X64510652Y-65114787D01*
X64321382Y-64988321D01*
X64111076Y-64901209D01*
X63887817Y-64856800D01*
X63660183Y-64856800D01*
X63436924Y-64901209D01*
X63226618Y-64988321D01*
X63037348Y-65114787D01*
X62876387Y-65275748D01*
X62749921Y-65465018D01*
X62662809Y-65675324D01*
X62618400Y-65898583D01*
X58224100Y-65898583D01*
X58224100Y-65640223D01*
X58226742Y-65613400D01*
X58216198Y-65506346D01*
X58184972Y-65403406D01*
X58134262Y-65308535D01*
X58066019Y-65225381D01*
X57982865Y-65157138D01*
X57887994Y-65106428D01*
X57785054Y-65075202D01*
X57704824Y-65067300D01*
X57678000Y-65064658D01*
X57651176Y-65067300D01*
X32951100Y-65067300D01*
X32951100Y-63908735D01*
X38739291Y-63908735D01*
X38985973Y-64288077D01*
X39481687Y-64543991D01*
X40017803Y-64698279D01*
X40573717Y-64745011D01*
X41128066Y-64682392D01*
X41659548Y-64512827D01*
X42080027Y-64288077D01*
X42326709Y-63908735D01*
X40533000Y-62115026D01*
X38739291Y-63908735D01*
X32951100Y-63908735D01*
X32951100Y-61940217D01*
X37687489Y-61940217D01*
X37750108Y-62494566D01*
X37919673Y-63026048D01*
X38144423Y-63446527D01*
X38523765Y-63693209D01*
X40317474Y-61899500D01*
X40748526Y-61899500D01*
X42542235Y-63693209D01*
X42604708Y-63652583D01*
X44584400Y-63652583D01*
X44584400Y-63880217D01*
X44628809Y-64103476D01*
X44715921Y-64313782D01*
X44842387Y-64503052D01*
X45003348Y-64664013D01*
X45192618Y-64790479D01*
X45402924Y-64877591D01*
X45626183Y-64922000D01*
X45853817Y-64922000D01*
X46077076Y-64877591D01*
X46287382Y-64790479D01*
X46476652Y-64664013D01*
X46637613Y-64503052D01*
X46764079Y-64313782D01*
X46851191Y-64103476D01*
X46895600Y-63880217D01*
X46895600Y-63652583D01*
X46851191Y-63429324D01*
X46764079Y-63219018D01*
X46637613Y-63029748D01*
X46476652Y-62868787D01*
X46287382Y-62742321D01*
X46077076Y-62655209D01*
X45853817Y-62610800D01*
X45626183Y-62610800D01*
X45402924Y-62655209D01*
X45192618Y-62742321D01*
X45003348Y-62868787D01*
X44842387Y-63029748D01*
X44715921Y-63219018D01*
X44628809Y-63429324D01*
X44584400Y-63652583D01*
X42604708Y-63652583D01*
X42921577Y-63446527D01*
X43177491Y-62950813D01*
X43319201Y-62458400D01*
X48900680Y-62458400D01*
X48900680Y-64058400D01*
X48907546Y-64128110D01*
X48927879Y-64195140D01*
X48960899Y-64256916D01*
X49005337Y-64311063D01*
X49059484Y-64355501D01*
X49121260Y-64388521D01*
X49188290Y-64408854D01*
X49258000Y-64415720D01*
X50858000Y-64415720D01*
X50927710Y-64408854D01*
X50994740Y-64388521D01*
X51056516Y-64355501D01*
X51110663Y-64311063D01*
X51155101Y-64256916D01*
X51188121Y-64195140D01*
X51208454Y-64128110D01*
X51215320Y-64058400D01*
X51215320Y-63144583D01*
X51442400Y-63144583D01*
X51442400Y-63372217D01*
X51486809Y-63595476D01*
X51573921Y-63805782D01*
X51700387Y-63995052D01*
X51861348Y-64156013D01*
X52050618Y-64282479D01*
X52260924Y-64369591D01*
X52484183Y-64414000D01*
X52711817Y-64414000D01*
X52935076Y-64369591D01*
X53145382Y-64282479D01*
X53334652Y-64156013D01*
X53495613Y-63995052D01*
X53622079Y-63805782D01*
X53709191Y-63595476D01*
X53753600Y-63372217D01*
X53753600Y-63144583D01*
X53709191Y-62921324D01*
X53622079Y-62711018D01*
X53495613Y-62521748D01*
X53334652Y-62360787D01*
X53145382Y-62234321D01*
X52935076Y-62147209D01*
X52711817Y-62102800D01*
X52484183Y-62102800D01*
X52260924Y-62147209D01*
X52050618Y-62234321D01*
X51861348Y-62360787D01*
X51700387Y-62521748D01*
X51573921Y-62711018D01*
X51486809Y-62921324D01*
X51442400Y-63144583D01*
X51215320Y-63144583D01*
X51215320Y-62458400D01*
X51208454Y-62388690D01*
X51188121Y-62321660D01*
X51155101Y-62259884D01*
X51110663Y-62205737D01*
X51056516Y-62161299D01*
X50994740Y-62128279D01*
X50927710Y-62107946D01*
X50858000Y-62101080D01*
X49258000Y-62101080D01*
X49188290Y-62107946D01*
X49121260Y-62128279D01*
X49059484Y-62161299D01*
X49005337Y-62205737D01*
X48960899Y-62259884D01*
X48927879Y-62321660D01*
X48907546Y-62388690D01*
X48900680Y-62458400D01*
X43319201Y-62458400D01*
X43331779Y-62414697D01*
X43378511Y-61858783D01*
X43315892Y-61304434D01*
X43146327Y-60772952D01*
X42921577Y-60352473D01*
X42542235Y-60105791D01*
X40748526Y-61899500D01*
X40317474Y-61899500D01*
X38523765Y-60105791D01*
X38144423Y-60352473D01*
X37888509Y-60848187D01*
X37734221Y-61384303D01*
X37687489Y-61940217D01*
X32951100Y-61940217D01*
X32951100Y-59890265D01*
X38739291Y-59890265D01*
X40533000Y-61683974D01*
X42326709Y-59890265D01*
X42080027Y-59510923D01*
X41584313Y-59255009D01*
X41048197Y-59100721D01*
X40492283Y-59053989D01*
X39937934Y-59116608D01*
X39406452Y-59286173D01*
X38985973Y-59510923D01*
X38739291Y-59890265D01*
X32951100Y-59890265D01*
X32951100Y-58663635D01*
X33227491Y-58663635D01*
X33474173Y-59042977D01*
X33969887Y-59298891D01*
X34506003Y-59453179D01*
X35061917Y-59499911D01*
X35616266Y-59437292D01*
X36147748Y-59267727D01*
X36568227Y-59042977D01*
X36814909Y-58663635D01*
X35021200Y-56869926D01*
X33227491Y-58663635D01*
X32951100Y-58663635D01*
X32951100Y-58408529D01*
X33011965Y-58448109D01*
X34805674Y-56654400D01*
X35236726Y-56654400D01*
X37030435Y-58448109D01*
X37409777Y-58201427D01*
X37665691Y-57705713D01*
X37819979Y-57169597D01*
X37866711Y-56613683D01*
X37853225Y-56494292D01*
X38907400Y-56494292D01*
X38907400Y-56814508D01*
X38969870Y-57128570D01*
X39092412Y-57424411D01*
X39270314Y-57690660D01*
X39496740Y-57917086D01*
X39762989Y-58094988D01*
X40058830Y-58217530D01*
X40372892Y-58280000D01*
X40693108Y-58280000D01*
X41007170Y-58217530D01*
X41303011Y-58094988D01*
X41569260Y-57917086D01*
X41795686Y-57690660D01*
X41973588Y-57424411D01*
X42096130Y-57128570D01*
X42158600Y-56814508D01*
X42158600Y-56494292D01*
X42096130Y-56180230D01*
X41973588Y-55884389D01*
X41795686Y-55618140D01*
X41569260Y-55391714D01*
X41303011Y-55213812D01*
X41007170Y-55091270D01*
X40693108Y-55028800D01*
X40372892Y-55028800D01*
X40058830Y-55091270D01*
X39762989Y-55213812D01*
X39496740Y-55391714D01*
X39270314Y-55618140D01*
X39092412Y-55884389D01*
X38969870Y-56180230D01*
X38907400Y-56494292D01*
X37853225Y-56494292D01*
X37804092Y-56059334D01*
X37634527Y-55527852D01*
X37409777Y-55107373D01*
X37030435Y-54860691D01*
X35236726Y-56654400D01*
X34805674Y-56654400D01*
X33011965Y-54860691D01*
X32951100Y-54900271D01*
X32951100Y-54645165D01*
X33227491Y-54645165D01*
X35021200Y-56438874D01*
X36814909Y-54645165D01*
X36568227Y-54265823D01*
X36072513Y-54009909D01*
X35536397Y-53855621D01*
X34980483Y-53808889D01*
X34426134Y-53871508D01*
X33894652Y-54041073D01*
X33474173Y-54265823D01*
X33227491Y-54645165D01*
X32951100Y-54645165D01*
X32951100Y-53418535D01*
X38739291Y-53418535D01*
X38985973Y-53797877D01*
X39481687Y-54053791D01*
X40017803Y-54208079D01*
X40573717Y-54254811D01*
X41128066Y-54192192D01*
X41659548Y-54022627D01*
X42080027Y-53797877D01*
X42278556Y-53492583D01*
X44584400Y-53492583D01*
X44584400Y-53720217D01*
X44628809Y-53943476D01*
X44715921Y-54153782D01*
X44842387Y-54343052D01*
X45003348Y-54504013D01*
X45192618Y-54630479D01*
X45402924Y-54717591D01*
X45626183Y-54762000D01*
X45853817Y-54762000D01*
X46077076Y-54717591D01*
X46287382Y-54630479D01*
X46476652Y-54504013D01*
X46637613Y-54343052D01*
X46764079Y-54153782D01*
X46851191Y-53943476D01*
X46895600Y-53720217D01*
X46895600Y-53492583D01*
X46851191Y-53269324D01*
X46764079Y-53059018D01*
X46637613Y-52869748D01*
X46476652Y-52708787D01*
X46287382Y-52582321D01*
X46077076Y-52495209D01*
X45853817Y-52450800D01*
X45626183Y-52450800D01*
X45402924Y-52495209D01*
X45192618Y-52582321D01*
X45003348Y-52708787D01*
X44842387Y-52869748D01*
X44715921Y-53059018D01*
X44628809Y-53269324D01*
X44584400Y-53492583D01*
X42278556Y-53492583D01*
X42326709Y-53418535D01*
X40533000Y-51624826D01*
X38739291Y-53418535D01*
X32951100Y-53418535D01*
X32951100Y-51450017D01*
X37687489Y-51450017D01*
X37750108Y-52004366D01*
X37919673Y-52535848D01*
X38144423Y-52956327D01*
X38523765Y-53203009D01*
X40317474Y-51409300D01*
X40748526Y-51409300D01*
X42542235Y-53203009D01*
X42921577Y-52956327D01*
X43177491Y-52460613D01*
X43331779Y-51924497D01*
X43378511Y-51368583D01*
X43347126Y-51090744D01*
X43358809Y-51149476D01*
X43445921Y-51359782D01*
X43572387Y-51549052D01*
X43733348Y-51710013D01*
X43922618Y-51836479D01*
X44132924Y-51923591D01*
X44356183Y-51968000D01*
X44583817Y-51968000D01*
X44807076Y-51923591D01*
X45017382Y-51836479D01*
X45206652Y-51710013D01*
X45367613Y-51549052D01*
X45494079Y-51359782D01*
X45581191Y-51149476D01*
X45625600Y-50926217D01*
X45625600Y-50698583D01*
X45814400Y-50698583D01*
X45814400Y-50926217D01*
X45858809Y-51149476D01*
X45945921Y-51359782D01*
X46072387Y-51549052D01*
X46233348Y-51710013D01*
X46422618Y-51836479D01*
X46632924Y-51923591D01*
X46856183Y-51968000D01*
X47083817Y-51968000D01*
X47307076Y-51923591D01*
X47517382Y-51836479D01*
X47706652Y-51710013D01*
X47867613Y-51549052D01*
X47994079Y-51359782D01*
X48081191Y-51149476D01*
X48125600Y-50926217D01*
X48125600Y-50698583D01*
X48081191Y-50475324D01*
X47994079Y-50265018D01*
X47867613Y-50075748D01*
X47706652Y-49914787D01*
X47517382Y-49788321D01*
X47307076Y-49701209D01*
X47083817Y-49656800D01*
X46856183Y-49656800D01*
X46632924Y-49701209D01*
X46422618Y-49788321D01*
X46233348Y-49914787D01*
X46072387Y-50075748D01*
X45945921Y-50265018D01*
X45858809Y-50475324D01*
X45814400Y-50698583D01*
X45625600Y-50698583D01*
X45581191Y-50475324D01*
X45494079Y-50265018D01*
X45367613Y-50075748D01*
X45206652Y-49914787D01*
X45017382Y-49788321D01*
X44807076Y-49701209D01*
X44672589Y-49674458D01*
X44880814Y-49639420D01*
X45140381Y-49540811D01*
X45214423Y-49501233D01*
X45289514Y-49267440D01*
X44510000Y-48487926D01*
X43730486Y-49267440D01*
X43805577Y-49501233D01*
X44058845Y-49615048D01*
X44294126Y-49669144D01*
X44132924Y-49701209D01*
X43922618Y-49788321D01*
X43733348Y-49914787D01*
X43572387Y-50075748D01*
X43445921Y-50265018D01*
X43358809Y-50475324D01*
X43314400Y-50698583D01*
X43314400Y-50809557D01*
X43146327Y-50282752D01*
X42921577Y-49862273D01*
X42542235Y-49615591D01*
X40748526Y-51409300D01*
X40317474Y-51409300D01*
X38523765Y-49615591D01*
X38144423Y-49862273D01*
X37888509Y-50357987D01*
X37734221Y-50894103D01*
X37687489Y-51450017D01*
X32951100Y-51450017D01*
X32951100Y-49400065D01*
X38739291Y-49400065D01*
X40533000Y-51193774D01*
X42326709Y-49400065D01*
X42080027Y-49020723D01*
X41584313Y-48764809D01*
X41048197Y-48610521D01*
X40492283Y-48563789D01*
X39937934Y-48626408D01*
X39406452Y-48795973D01*
X38985973Y-49020723D01*
X38739291Y-49400065D01*
X32951100Y-49400065D01*
X32951100Y-48369397D01*
X43096905Y-48369397D01*
X43142980Y-48643214D01*
X43241589Y-48902781D01*
X43281167Y-48976823D01*
X43514960Y-49051914D01*
X44294474Y-48272400D01*
X44725526Y-48272400D01*
X45505040Y-49051914D01*
X45738833Y-48976823D01*
X45852648Y-48723555D01*
X45889564Y-48562996D01*
X45898809Y-48609476D01*
X45985921Y-48819782D01*
X46112387Y-49009052D01*
X46273348Y-49170013D01*
X46462618Y-49296479D01*
X46672924Y-49383591D01*
X46896183Y-49428000D01*
X47123817Y-49428000D01*
X47347076Y-49383591D01*
X47557382Y-49296479D01*
X47746652Y-49170013D01*
X47907613Y-49009052D01*
X47950077Y-48945500D01*
X48001194Y-48945500D01*
X48622900Y-49567207D01*
X48622901Y-53073592D01*
X47827424Y-53869070D01*
X47801744Y-53890145D01*
X47717631Y-53992638D01*
X47655129Y-54109571D01*
X47616640Y-54236450D01*
X47606900Y-54335341D01*
X47603644Y-54368400D01*
X47606900Y-54401456D01*
X47606901Y-58653334D01*
X47603644Y-58686400D01*
X47615156Y-58803270D01*
X47616641Y-58818351D01*
X47655130Y-58945230D01*
X47717631Y-59062162D01*
X47749275Y-59100721D01*
X47801745Y-59164656D01*
X47827424Y-59185730D01*
X49558674Y-60916982D01*
X49579744Y-60942656D01*
X49605417Y-60963725D01*
X49605422Y-60963730D01*
X49682237Y-61026770D01*
X49765062Y-61071040D01*
X49799170Y-61089271D01*
X49926049Y-61127760D01*
X50024941Y-61137500D01*
X50024944Y-61137500D01*
X50058000Y-61140756D01*
X50091056Y-61137500D01*
X54782994Y-61137500D01*
X54685424Y-61235070D01*
X54659745Y-61256144D01*
X54638671Y-61281823D01*
X54575631Y-61358638D01*
X54514835Y-61472380D01*
X54513130Y-61475570D01*
X54484288Y-61570650D01*
X54474641Y-61602450D01*
X54461644Y-61734400D01*
X54464901Y-61767466D01*
X54464901Y-62318323D01*
X54401348Y-62360787D01*
X54240387Y-62521748D01*
X54113921Y-62711018D01*
X54026809Y-62921324D01*
X53982400Y-63144583D01*
X53982400Y-63372217D01*
X54026809Y-63595476D01*
X54113921Y-63805782D01*
X54240387Y-63995052D01*
X54401348Y-64156013D01*
X54590618Y-64282479D01*
X54800924Y-64369591D01*
X55024183Y-64414000D01*
X55251817Y-64414000D01*
X55475076Y-64369591D01*
X55685382Y-64282479D01*
X55874652Y-64156013D01*
X56035613Y-63995052D01*
X56162079Y-63805782D01*
X56249191Y-63595476D01*
X56285925Y-63410802D01*
X56429056Y-63410802D01*
X56317750Y-63628142D01*
X56416020Y-63886409D01*
X56562787Y-64120542D01*
X56752411Y-64321543D01*
X56977605Y-64481688D01*
X57229715Y-64594823D01*
X57308259Y-64618644D01*
X57525600Y-64506329D01*
X57525600Y-63410800D01*
X57830400Y-63410800D01*
X57830400Y-64506329D01*
X58047741Y-64618644D01*
X58126285Y-64594823D01*
X58378395Y-64481688D01*
X58603589Y-64321543D01*
X58793213Y-64120542D01*
X58939980Y-63886409D01*
X59038250Y-63628142D01*
X58926943Y-63410800D01*
X57830400Y-63410800D01*
X57525600Y-63410800D01*
X57505600Y-63410800D01*
X57505600Y-63398583D01*
X62618400Y-63398583D01*
X62618400Y-63626217D01*
X62662809Y-63849476D01*
X62749921Y-64059782D01*
X62876387Y-64249052D01*
X63037348Y-64410013D01*
X63226618Y-64536479D01*
X63436924Y-64623591D01*
X63660183Y-64668000D01*
X63887817Y-64668000D01*
X64111076Y-64623591D01*
X64321382Y-64536479D01*
X64510652Y-64410013D01*
X64671613Y-64249052D01*
X64798079Y-64059782D01*
X64885191Y-63849476D01*
X64929600Y-63626217D01*
X64929600Y-63398583D01*
X64885191Y-63175324D01*
X64798079Y-62965018D01*
X64671613Y-62775748D01*
X64510652Y-62614787D01*
X64321382Y-62488321D01*
X64111076Y-62401209D01*
X63887817Y-62356800D01*
X63660183Y-62356800D01*
X63436924Y-62401209D01*
X63226618Y-62488321D01*
X63037348Y-62614787D01*
X62876387Y-62775748D01*
X62749921Y-62965018D01*
X62662809Y-63175324D01*
X62618400Y-63398583D01*
X57505600Y-63398583D01*
X57505600Y-63106000D01*
X57525600Y-63106000D01*
X57525600Y-62010471D01*
X57830400Y-62010471D01*
X57830400Y-63106000D01*
X58926943Y-63106000D01*
X59038250Y-62888658D01*
X58939980Y-62630391D01*
X58793213Y-62396258D01*
X58603589Y-62195257D01*
X58378395Y-62035112D01*
X58126285Y-61921977D01*
X58047741Y-61898156D01*
X57830400Y-62010471D01*
X57525600Y-62010471D01*
X57308259Y-61898156D01*
X57229715Y-61921977D01*
X56977605Y-62035112D01*
X56752411Y-62195257D01*
X56562787Y-62396258D01*
X56416020Y-62630391D01*
X56317750Y-62888658D01*
X56429056Y-63105998D01*
X56285925Y-63105998D01*
X56249191Y-62921324D01*
X56162079Y-62711018D01*
X56035613Y-62521748D01*
X55874652Y-62360787D01*
X55811100Y-62318323D01*
X55811100Y-62013206D01*
X56686807Y-61137500D01*
X61570314Y-61137500D01*
X61603370Y-61140756D01*
X61636426Y-61137500D01*
X61636429Y-61137500D01*
X61735321Y-61127760D01*
X61862200Y-61089271D01*
X61979133Y-61026769D01*
X62081626Y-60942656D01*
X62102705Y-60916972D01*
X62439535Y-60580141D01*
X62921756Y-60580141D01*
X62945577Y-60658685D01*
X63058712Y-60910795D01*
X63218857Y-61135989D01*
X63419858Y-61325613D01*
X63653991Y-61472380D01*
X63912258Y-61570650D01*
X64129600Y-61459343D01*
X64129600Y-60362800D01*
X64434400Y-60362800D01*
X64434400Y-61459343D01*
X64651742Y-61570650D01*
X64910009Y-61472380D01*
X65144142Y-61325613D01*
X65345143Y-61135989D01*
X65505288Y-60910795D01*
X65618423Y-60658685D01*
X65642244Y-60580141D01*
X65529929Y-60362800D01*
X64434400Y-60362800D01*
X64129600Y-60362800D01*
X63034071Y-60362800D01*
X62921756Y-60580141D01*
X62439535Y-60580141D01*
X63009406Y-60010270D01*
X63034071Y-60058000D01*
X64129600Y-60058000D01*
X64129600Y-58961457D01*
X64434400Y-58961457D01*
X64434400Y-60058000D01*
X65529929Y-60058000D01*
X65642244Y-59840659D01*
X65618423Y-59762115D01*
X65505288Y-59510005D01*
X65345143Y-59284811D01*
X65144142Y-59095187D01*
X64910009Y-58948420D01*
X64651742Y-58850150D01*
X64434400Y-58961457D01*
X64129600Y-58961457D01*
X64082395Y-58937282D01*
X64734581Y-58285096D01*
X64760255Y-58264026D01*
X64781326Y-58238351D01*
X64781329Y-58238348D01*
X64844369Y-58161533D01*
X64906871Y-58044600D01*
X64915956Y-58014650D01*
X64945360Y-57917721D01*
X64955100Y-57818829D01*
X64955100Y-57818826D01*
X64958356Y-57785770D01*
X64955100Y-57752714D01*
X64955100Y-57594477D01*
X65018652Y-57552013D01*
X65179613Y-57391052D01*
X65306079Y-57201782D01*
X65379660Y-57024141D01*
X73081756Y-57024141D01*
X73105577Y-57102685D01*
X73218712Y-57354795D01*
X73378857Y-57579989D01*
X73579858Y-57769613D01*
X73813991Y-57916380D01*
X74072258Y-58014650D01*
X74289600Y-57903343D01*
X74289600Y-56806800D01*
X74594400Y-56806800D01*
X74594400Y-57903343D01*
X74811742Y-58014650D01*
X75070009Y-57916380D01*
X75304142Y-57769613D01*
X75505143Y-57579989D01*
X75665288Y-57354795D01*
X75778423Y-57102685D01*
X75802244Y-57024141D01*
X75689929Y-56806800D01*
X74594400Y-56806800D01*
X74289600Y-56806800D01*
X73194071Y-56806800D01*
X73081756Y-57024141D01*
X65379660Y-57024141D01*
X65393191Y-56991476D01*
X65437600Y-56768217D01*
X65437600Y-56600885D01*
X95184400Y-56600885D01*
X95184400Y-56867915D01*
X95236495Y-57129814D01*
X95338683Y-57376517D01*
X95487037Y-57598545D01*
X95675855Y-57787363D01*
X95897883Y-57935717D01*
X96144586Y-58037905D01*
X96406485Y-58090000D01*
X96673515Y-58090000D01*
X96935414Y-58037905D01*
X97182117Y-57935717D01*
X97404145Y-57787363D01*
X97592963Y-57598545D01*
X97741317Y-57376517D01*
X97843505Y-57129814D01*
X97895600Y-56867915D01*
X97895600Y-56600885D01*
X97866242Y-56453292D01*
X102779400Y-56453292D01*
X102779400Y-56773508D01*
X102841870Y-57087570D01*
X102964412Y-57383411D01*
X103142314Y-57649660D01*
X103368740Y-57876086D01*
X103634989Y-58053988D01*
X103930830Y-58176530D01*
X104244892Y-58239000D01*
X104565108Y-58239000D01*
X104879170Y-58176530D01*
X105175011Y-58053988D01*
X105441260Y-57876086D01*
X105667686Y-57649660D01*
X105845588Y-57383411D01*
X105968130Y-57087570D01*
X106030600Y-56773508D01*
X106030600Y-56654117D01*
X107071289Y-56654117D01*
X107133908Y-57208466D01*
X107303473Y-57739948D01*
X107528223Y-58160427D01*
X107907565Y-58407109D01*
X109701274Y-56613400D01*
X107907565Y-54819691D01*
X107528223Y-55066373D01*
X107272309Y-55562087D01*
X107118021Y-56098203D01*
X107071289Y-56654117D01*
X106030600Y-56654117D01*
X106030600Y-56453292D01*
X105968130Y-56139230D01*
X105845588Y-55843389D01*
X105667686Y-55577140D01*
X105441260Y-55350714D01*
X105175011Y-55172812D01*
X104879170Y-55050270D01*
X104565108Y-54987800D01*
X104244892Y-54987800D01*
X103930830Y-55050270D01*
X103634989Y-55172812D01*
X103368740Y-55350714D01*
X103142314Y-55577140D01*
X102964412Y-55843389D01*
X102841870Y-56139230D01*
X102779400Y-56453292D01*
X97866242Y-56453292D01*
X97843505Y-56338986D01*
X97741317Y-56092283D01*
X97592963Y-55870255D01*
X97404145Y-55681437D01*
X97182117Y-55533083D01*
X96935414Y-55430895D01*
X96673515Y-55378800D01*
X96406485Y-55378800D01*
X96144586Y-55430895D01*
X95897883Y-55533083D01*
X95675855Y-55681437D01*
X95487037Y-55870255D01*
X95338683Y-56092283D01*
X95236495Y-56338986D01*
X95184400Y-56600885D01*
X65437600Y-56600885D01*
X65437600Y-56540583D01*
X65393191Y-56317324D01*
X65379661Y-56284659D01*
X73081756Y-56284659D01*
X73194071Y-56502000D01*
X74289600Y-56502000D01*
X74289600Y-55405457D01*
X74594400Y-55405457D01*
X74594400Y-56502000D01*
X75689929Y-56502000D01*
X75802244Y-56284659D01*
X75778423Y-56206115D01*
X75665288Y-55954005D01*
X75505143Y-55728811D01*
X75304142Y-55539187D01*
X75070009Y-55392420D01*
X74811742Y-55294150D01*
X74594400Y-55405457D01*
X74289600Y-55405457D01*
X74072258Y-55294150D01*
X73813991Y-55392420D01*
X73579858Y-55539187D01*
X73378857Y-55728811D01*
X73218712Y-55954005D01*
X73105577Y-56206115D01*
X73081756Y-56284659D01*
X65379661Y-56284659D01*
X65306079Y-56107018D01*
X65179613Y-55917748D01*
X65018652Y-55756787D01*
X64829382Y-55630321D01*
X64619076Y-55543209D01*
X64395817Y-55498800D01*
X64168183Y-55498800D01*
X63944924Y-55543209D01*
X63734618Y-55630321D01*
X63545348Y-55756787D01*
X63384387Y-55917748D01*
X63257921Y-56107018D01*
X63170809Y-56317324D01*
X63126400Y-56540583D01*
X63126400Y-56768217D01*
X63170809Y-56991476D01*
X63257921Y-57201782D01*
X63384387Y-57391052D01*
X63545348Y-57552013D01*
X63556439Y-57559424D01*
X61324564Y-59791300D01*
X56441048Y-59791300D01*
X56407999Y-59788045D01*
X56374951Y-59791300D01*
X50336808Y-59791300D01*
X48953100Y-58407594D01*
X48953100Y-55990664D01*
X49033921Y-56185782D01*
X49160387Y-56375052D01*
X49321348Y-56536013D01*
X49510618Y-56662479D01*
X49720924Y-56749591D01*
X49944183Y-56794000D01*
X50171817Y-56794000D01*
X50395076Y-56749591D01*
X50605382Y-56662479D01*
X50794652Y-56536013D01*
X50955613Y-56375052D01*
X51082079Y-56185782D01*
X51169191Y-55975476D01*
X51213600Y-55752217D01*
X51213600Y-55524583D01*
X51442400Y-55524583D01*
X51442400Y-55752217D01*
X51486809Y-55975476D01*
X51573921Y-56185782D01*
X51700387Y-56375052D01*
X51861348Y-56536013D01*
X52050618Y-56662479D01*
X52260924Y-56749591D01*
X52484183Y-56794000D01*
X52711817Y-56794000D01*
X52935076Y-56749591D01*
X53145382Y-56662479D01*
X53334652Y-56536013D01*
X53495613Y-56375052D01*
X53622079Y-56185782D01*
X53709191Y-55975476D01*
X53753600Y-55752217D01*
X53753600Y-55524583D01*
X53982400Y-55524583D01*
X53982400Y-55752217D01*
X54026809Y-55975476D01*
X54113921Y-56185782D01*
X54240387Y-56375052D01*
X54401348Y-56536013D01*
X54464901Y-56578477D01*
X54464900Y-57637344D01*
X54461644Y-57670400D01*
X54464900Y-57703456D01*
X54464900Y-57703458D01*
X54474640Y-57802350D01*
X54513129Y-57929229D01*
X54575631Y-58046162D01*
X54659744Y-58148655D01*
X54685424Y-58169730D01*
X55146670Y-58630977D01*
X55167744Y-58656656D01*
X55193422Y-58677729D01*
X55270236Y-58740769D01*
X55332738Y-58774176D01*
X55387170Y-58803271D01*
X55514049Y-58841760D01*
X55612941Y-58851500D01*
X55612951Y-58851500D01*
X55645999Y-58854755D01*
X55679048Y-58851500D01*
X60293923Y-58851500D01*
X60336387Y-58915052D01*
X60497348Y-59076013D01*
X60686618Y-59202479D01*
X60896924Y-59289591D01*
X61120183Y-59334000D01*
X61347817Y-59334000D01*
X61571076Y-59289591D01*
X61781382Y-59202479D01*
X61970652Y-59076013D01*
X62131613Y-58915052D01*
X62258079Y-58725782D01*
X62345191Y-58515476D01*
X62389600Y-58292217D01*
X62389600Y-58064583D01*
X62345191Y-57841324D01*
X62258079Y-57631018D01*
X62131613Y-57441748D01*
X61970652Y-57280787D01*
X61781382Y-57154321D01*
X61571076Y-57067209D01*
X61347817Y-57022800D01*
X61120183Y-57022800D01*
X60896924Y-57067209D01*
X60686618Y-57154321D01*
X60497348Y-57280787D01*
X60336387Y-57441748D01*
X60293923Y-57505300D01*
X55924807Y-57505300D01*
X55811100Y-57391594D01*
X55811100Y-56578477D01*
X55874652Y-56536013D01*
X56035613Y-56375052D01*
X56162079Y-56185782D01*
X56249191Y-55975476D01*
X56293600Y-55752217D01*
X56293600Y-55524583D01*
X56522400Y-55524583D01*
X56522400Y-55752217D01*
X56566809Y-55975476D01*
X56653921Y-56185782D01*
X56780387Y-56375052D01*
X56941348Y-56536013D01*
X57130618Y-56662479D01*
X57340924Y-56749591D01*
X57564183Y-56794000D01*
X57791817Y-56794000D01*
X58015076Y-56749591D01*
X58225382Y-56662479D01*
X58414652Y-56536013D01*
X58575613Y-56375052D01*
X58702079Y-56185782D01*
X58789191Y-55975476D01*
X58833600Y-55752217D01*
X58833600Y-55564583D01*
X60078400Y-55564583D01*
X60078400Y-55792217D01*
X60122809Y-56015476D01*
X60209921Y-56225782D01*
X60336387Y-56415052D01*
X60497348Y-56576013D01*
X60686618Y-56702479D01*
X60896924Y-56789591D01*
X61120183Y-56834000D01*
X61347817Y-56834000D01*
X61571076Y-56789591D01*
X61781382Y-56702479D01*
X61970652Y-56576013D01*
X62131613Y-56415052D01*
X62258079Y-56225782D01*
X62345191Y-56015476D01*
X62389600Y-55792217D01*
X62389600Y-55564583D01*
X62345191Y-55341324D01*
X62258079Y-55131018D01*
X62131613Y-54941748D01*
X61970652Y-54780787D01*
X61781382Y-54654321D01*
X61571076Y-54567209D01*
X61347817Y-54522800D01*
X61120183Y-54522800D01*
X60896924Y-54567209D01*
X60686618Y-54654321D01*
X60497348Y-54780787D01*
X60336387Y-54941748D01*
X60209921Y-55131018D01*
X60122809Y-55341324D01*
X60078400Y-55564583D01*
X58833600Y-55564583D01*
X58833600Y-55524583D01*
X58789191Y-55301324D01*
X58702079Y-55091018D01*
X58575613Y-54901748D01*
X58414652Y-54740787D01*
X58225382Y-54614321D01*
X58015076Y-54527209D01*
X57791817Y-54482800D01*
X57564183Y-54482800D01*
X57340924Y-54527209D01*
X57130618Y-54614321D01*
X56941348Y-54740787D01*
X56780387Y-54901748D01*
X56653921Y-55091018D01*
X56566809Y-55301324D01*
X56522400Y-55524583D01*
X56293600Y-55524583D01*
X56249191Y-55301324D01*
X56162079Y-55091018D01*
X56035613Y-54901748D01*
X55874652Y-54740787D01*
X55685382Y-54614321D01*
X55475076Y-54527209D01*
X55251817Y-54482800D01*
X55024183Y-54482800D01*
X54800924Y-54527209D01*
X54590618Y-54614321D01*
X54401348Y-54740787D01*
X54240387Y-54901748D01*
X54113921Y-55091018D01*
X54026809Y-55301324D01*
X53982400Y-55524583D01*
X53753600Y-55524583D01*
X53709191Y-55301324D01*
X53622079Y-55091018D01*
X53495613Y-54901748D01*
X53334652Y-54740787D01*
X53271100Y-54698323D01*
X53271100Y-53631207D01*
X53638807Y-53263500D01*
X58914944Y-53263500D01*
X58948000Y-53266756D01*
X58981056Y-53263500D01*
X58981059Y-53263500D01*
X59079951Y-53253760D01*
X59206830Y-53215271D01*
X59323763Y-53152769D01*
X59426256Y-53068656D01*
X59447335Y-53042971D01*
X59505723Y-52984583D01*
X63126400Y-52984583D01*
X63126400Y-53212217D01*
X63170809Y-53435476D01*
X63257921Y-53645782D01*
X63384387Y-53835052D01*
X63545348Y-53996013D01*
X63734618Y-54122479D01*
X63944924Y-54209591D01*
X64168183Y-54254000D01*
X64395817Y-54254000D01*
X64619076Y-54209591D01*
X64829382Y-54122479D01*
X65018652Y-53996013D01*
X65179613Y-53835052D01*
X65306079Y-53645782D01*
X65393191Y-53435476D01*
X65437600Y-53212217D01*
X65437600Y-52984583D01*
X73286400Y-52984583D01*
X73286400Y-53212217D01*
X73330809Y-53435476D01*
X73417921Y-53645782D01*
X73544387Y-53835052D01*
X73705348Y-53996013D01*
X73894618Y-54122479D01*
X74104924Y-54209591D01*
X74328183Y-54254000D01*
X74555817Y-54254000D01*
X74779076Y-54209591D01*
X74989382Y-54122479D01*
X75178652Y-53996013D01*
X75339613Y-53835052D01*
X75466079Y-53645782D01*
X75553191Y-53435476D01*
X75564716Y-53377535D01*
X102611291Y-53377535D01*
X102857973Y-53756877D01*
X103353687Y-54012791D01*
X103889803Y-54167079D01*
X104445717Y-54213811D01*
X105000066Y-54151192D01*
X105531548Y-53981627D01*
X105952027Y-53756877D01*
X106198709Y-53377535D01*
X104405000Y-51583826D01*
X102611291Y-53377535D01*
X75564716Y-53377535D01*
X75597600Y-53212217D01*
X75597600Y-52984583D01*
X75553191Y-52761324D01*
X75466079Y-52551018D01*
X75339613Y-52361748D01*
X75178652Y-52200787D01*
X74989382Y-52074321D01*
X74779076Y-51987209D01*
X74555817Y-51942800D01*
X74328183Y-51942800D01*
X74104924Y-51987209D01*
X73894618Y-52074321D01*
X73705348Y-52200787D01*
X73544387Y-52361748D01*
X73417921Y-52551018D01*
X73330809Y-52761324D01*
X73286400Y-52984583D01*
X65437600Y-52984583D01*
X65393191Y-52761324D01*
X65306079Y-52551018D01*
X65179613Y-52361748D01*
X65018652Y-52200787D01*
X64829382Y-52074321D01*
X64619076Y-51987209D01*
X64395817Y-51942800D01*
X64168183Y-51942800D01*
X63944924Y-51987209D01*
X63734618Y-52074321D01*
X63545348Y-52200787D01*
X63384387Y-52361748D01*
X63257921Y-52551018D01*
X63170809Y-52761324D01*
X63126400Y-52984583D01*
X59505723Y-52984583D01*
X61081289Y-51409017D01*
X101559489Y-51409017D01*
X101622108Y-51963366D01*
X101791673Y-52494848D01*
X102016423Y-52915327D01*
X102395765Y-53162009D01*
X104189474Y-51368300D01*
X104620526Y-51368300D01*
X106414235Y-53162009D01*
X106793577Y-52915327D01*
X107049491Y-52419613D01*
X107203779Y-51883497D01*
X107250511Y-51327583D01*
X107187892Y-50773234D01*
X107018327Y-50241752D01*
X106793577Y-49821273D01*
X106414235Y-49574591D01*
X104620526Y-51368300D01*
X104189474Y-51368300D01*
X102395765Y-49574591D01*
X102016423Y-49821273D01*
X101760509Y-50316987D01*
X101606221Y-50853103D01*
X101559489Y-51409017D01*
X61081289Y-51409017D01*
X62274807Y-50215500D01*
X63341923Y-50215500D01*
X63384387Y-50279052D01*
X63545348Y-50440013D01*
X63734618Y-50566479D01*
X63944924Y-50653591D01*
X64168183Y-50698000D01*
X64395817Y-50698000D01*
X64619076Y-50653591D01*
X64829382Y-50566479D01*
X65018652Y-50440013D01*
X65179613Y-50279052D01*
X65306079Y-50089782D01*
X65393191Y-49879476D01*
X65437600Y-49656217D01*
X65437600Y-49428583D01*
X73286400Y-49428583D01*
X73286400Y-49656217D01*
X73330809Y-49879476D01*
X73417921Y-50089782D01*
X73544387Y-50279052D01*
X73705348Y-50440013D01*
X73894618Y-50566479D01*
X74104924Y-50653591D01*
X74328183Y-50698000D01*
X74555817Y-50698000D01*
X74779076Y-50653591D01*
X74989382Y-50566479D01*
X75178652Y-50440013D01*
X75339613Y-50279052D01*
X75466079Y-50089782D01*
X75553191Y-49879476D01*
X75597600Y-49656217D01*
X75597600Y-49428583D01*
X75583773Y-49359065D01*
X102611291Y-49359065D01*
X104405000Y-51152774D01*
X106198709Y-49359065D01*
X105952027Y-48979723D01*
X105456313Y-48723809D01*
X104920197Y-48569521D01*
X104364283Y-48522789D01*
X103809934Y-48585408D01*
X103278452Y-48754973D01*
X102857973Y-48979723D01*
X102611291Y-49359065D01*
X75583773Y-49359065D01*
X75553191Y-49205324D01*
X75466079Y-48995018D01*
X75339613Y-48805748D01*
X75178652Y-48644787D01*
X74989382Y-48518321D01*
X74779076Y-48431209D01*
X74555817Y-48386800D01*
X74328183Y-48386800D01*
X74104924Y-48431209D01*
X73894618Y-48518321D01*
X73705348Y-48644787D01*
X73544387Y-48805748D01*
X73417921Y-48995018D01*
X73330809Y-49205324D01*
X73286400Y-49428583D01*
X65437600Y-49428583D01*
X65393191Y-49205324D01*
X65306079Y-48995018D01*
X65179613Y-48805748D01*
X65018652Y-48644787D01*
X64829382Y-48518321D01*
X64619076Y-48431209D01*
X64395817Y-48386800D01*
X64168183Y-48386800D01*
X63944924Y-48431209D01*
X63734618Y-48518321D01*
X63545348Y-48644787D01*
X63384387Y-48805748D01*
X63341923Y-48869300D01*
X62029056Y-48869300D01*
X61996000Y-48866044D01*
X61962944Y-48869300D01*
X61962941Y-48869300D01*
X61864049Y-48879040D01*
X61785787Y-48902781D01*
X61737169Y-48917529D01*
X61630287Y-48974659D01*
X61620237Y-48980031D01*
X61517744Y-49064144D01*
X61496670Y-49089823D01*
X58669194Y-51917300D01*
X53393056Y-51917300D01*
X53360000Y-51914044D01*
X53326944Y-51917300D01*
X53326941Y-51917300D01*
X53228049Y-51927040D01*
X53101170Y-51965529D01*
X52984237Y-52028031D01*
X52907422Y-52091070D01*
X52907417Y-52091075D01*
X52881744Y-52112144D01*
X52860674Y-52137818D01*
X52145423Y-52853071D01*
X52119745Y-52874144D01*
X52098671Y-52899823D01*
X52035631Y-52976638D01*
X52000172Y-53042978D01*
X51973130Y-53093570D01*
X51939932Y-53203009D01*
X51934641Y-53220450D01*
X51921644Y-53352400D01*
X51924901Y-53385466D01*
X51924900Y-54698323D01*
X51861348Y-54740787D01*
X51700387Y-54901748D01*
X51573921Y-55091018D01*
X51486809Y-55301324D01*
X51442400Y-55524583D01*
X51213600Y-55524583D01*
X51169191Y-55301324D01*
X51082079Y-55091018D01*
X50955613Y-54901748D01*
X50794652Y-54740787D01*
X50605382Y-54614321D01*
X50395076Y-54527209D01*
X50171817Y-54482800D01*
X49944183Y-54482800D01*
X49720924Y-54527209D01*
X49510618Y-54614321D01*
X49321348Y-54740787D01*
X49160387Y-54901748D01*
X49033921Y-55091018D01*
X48953100Y-55286136D01*
X48953100Y-54647206D01*
X49748578Y-53851729D01*
X49774256Y-53830656D01*
X49858369Y-53728163D01*
X49920871Y-53611230D01*
X49959360Y-53484351D01*
X49969100Y-53385459D01*
X49969100Y-53385456D01*
X49972356Y-53352400D01*
X49969100Y-53319341D01*
X49969100Y-49321456D01*
X49972356Y-49288400D01*
X49969100Y-49255341D01*
X49961923Y-49182463D01*
X51776400Y-49182463D01*
X51776400Y-49394337D01*
X51817735Y-49602141D01*
X51898816Y-49797887D01*
X52016527Y-49974055D01*
X52166345Y-50123873D01*
X52342513Y-50241584D01*
X52538259Y-50322665D01*
X52746063Y-50364000D01*
X52957937Y-50364000D01*
X53165741Y-50322665D01*
X53361487Y-50241584D01*
X53537655Y-50123873D01*
X53687473Y-49974055D01*
X53805184Y-49797887D01*
X53886265Y-49602141D01*
X53927600Y-49394337D01*
X53927600Y-49182463D01*
X54316400Y-49182463D01*
X54316400Y-49394337D01*
X54357735Y-49602141D01*
X54438816Y-49797887D01*
X54556527Y-49974055D01*
X54706345Y-50123873D01*
X54882513Y-50241584D01*
X55078259Y-50322665D01*
X55286063Y-50364000D01*
X55497937Y-50364000D01*
X55705741Y-50322665D01*
X55901487Y-50241584D01*
X56077655Y-50123873D01*
X56227473Y-49974055D01*
X56345184Y-49797887D01*
X56426265Y-49602141D01*
X56467600Y-49394337D01*
X56467600Y-49182463D01*
X56856400Y-49182463D01*
X56856400Y-49394337D01*
X56897735Y-49602141D01*
X56978816Y-49797887D01*
X57096527Y-49974055D01*
X57246345Y-50123873D01*
X57422513Y-50241584D01*
X57618259Y-50322665D01*
X57826063Y-50364000D01*
X58037937Y-50364000D01*
X58245741Y-50322665D01*
X58441487Y-50241584D01*
X58617655Y-50123873D01*
X58767473Y-49974055D01*
X58885184Y-49797887D01*
X58966265Y-49602141D01*
X59007600Y-49394337D01*
X59007600Y-49182463D01*
X58966265Y-48974659D01*
X58885184Y-48778913D01*
X58767473Y-48602745D01*
X58617655Y-48452927D01*
X58441487Y-48335216D01*
X58245741Y-48254135D01*
X58037937Y-48212800D01*
X57826063Y-48212800D01*
X57618259Y-48254135D01*
X57422513Y-48335216D01*
X57246345Y-48452927D01*
X57096527Y-48602745D01*
X56978816Y-48778913D01*
X56897735Y-48974659D01*
X56856400Y-49182463D01*
X56467600Y-49182463D01*
X56426265Y-48974659D01*
X56345184Y-48778913D01*
X56227473Y-48602745D01*
X56077655Y-48452927D01*
X55901487Y-48335216D01*
X55705741Y-48254135D01*
X55497937Y-48212800D01*
X55286063Y-48212800D01*
X55078259Y-48254135D01*
X54882513Y-48335216D01*
X54706345Y-48452927D01*
X54556527Y-48602745D01*
X54438816Y-48778913D01*
X54357735Y-48974659D01*
X54316400Y-49182463D01*
X53927600Y-49182463D01*
X53886265Y-48974659D01*
X53805184Y-48778913D01*
X53687473Y-48602745D01*
X53537655Y-48452927D01*
X53361487Y-48335216D01*
X53165741Y-48254135D01*
X52957937Y-48212800D01*
X52746063Y-48212800D01*
X52538259Y-48254135D01*
X52342513Y-48335216D01*
X52166345Y-48452927D01*
X52016527Y-48602745D01*
X51898816Y-48778913D01*
X51817735Y-48974659D01*
X51776400Y-49182463D01*
X49961923Y-49182463D01*
X49959360Y-49156449D01*
X49920871Y-49029570D01*
X49858369Y-48912637D01*
X49850280Y-48902781D01*
X49795329Y-48835822D01*
X49795326Y-48835819D01*
X49774255Y-48810144D01*
X49748581Y-48789074D01*
X48779334Y-47819828D01*
X48758256Y-47794144D01*
X48655763Y-47710031D01*
X48538830Y-47647529D01*
X48411951Y-47609040D01*
X48313059Y-47599300D01*
X48313056Y-47599300D01*
X48280000Y-47596044D01*
X48246944Y-47599300D01*
X47950077Y-47599300D01*
X47907613Y-47535748D01*
X47746652Y-47374787D01*
X47557382Y-47248321D01*
X47347076Y-47161209D01*
X47123817Y-47116800D01*
X46896183Y-47116800D01*
X46672924Y-47161209D01*
X46462618Y-47248321D01*
X46273348Y-47374787D01*
X46112387Y-47535748D01*
X45985921Y-47725018D01*
X45898809Y-47935324D01*
X45890081Y-47979204D01*
X45877020Y-47901586D01*
X45778411Y-47642019D01*
X45738833Y-47567977D01*
X45505040Y-47492886D01*
X44725526Y-48272400D01*
X44294474Y-48272400D01*
X43514960Y-47492886D01*
X43281167Y-47567977D01*
X43167352Y-47821245D01*
X43105134Y-48091852D01*
X43096905Y-48369397D01*
X32951100Y-48369397D01*
X32951100Y-47277360D01*
X43730486Y-47277360D01*
X44510000Y-48056874D01*
X45289514Y-47277360D01*
X45214423Y-47043567D01*
X44961155Y-46929752D01*
X44690548Y-46867534D01*
X44413003Y-46859305D01*
X44139186Y-46905380D01*
X43879619Y-47003989D01*
X43805577Y-47043567D01*
X43730486Y-47277360D01*
X32951100Y-47277360D01*
X32951100Y-46659500D01*
X111858901Y-46659500D01*
X111858901Y-54531622D01*
G37*
G04 #@! TD.AperFunction*
M02*
