G04 #@! TF.FileFunction,Copper,L1,Top,Signal*
%FSLAX46Y46*%
G04 Gerber Fmt 4.6, Leading zero omitted, Abs format (unit mm)*
G04 Created by KiCad (PCBNEW (after 2015-mar-04 BZR unknown)-product) date 6/9/2017 4:16:11 PM*
%MOMM*%
G01*
G04 APERTURE LIST*
%ADD10C,0.150000*%
%ADD11R,1.700000X1.700000*%
%ADD12O,1.700000X1.700000*%
%ADD13R,1.520000X1.520000*%
%ADD14C,1.520000*%
%ADD15C,3.810000*%
%ADD16C,9.525000*%
%ADD17C,0.203200*%
G04 APERTURE END LIST*
D10*
D11*
X24384000Y-12700000D03*
D12*
X24384000Y-10160000D03*
X26924000Y-12700000D03*
X26924000Y-10160000D03*
X29464000Y-12700000D03*
X29464000Y-10160000D03*
X32004000Y-12700000D03*
X32004000Y-10160000D03*
X34544000Y-12700000D03*
X34544000Y-10160000D03*
X37084000Y-12700000D03*
X37084000Y-10160000D03*
X39624000Y-12700000D03*
X39624000Y-10160000D03*
X42164000Y-12700000D03*
X42164000Y-10160000D03*
X44704000Y-12700000D03*
X44704000Y-10160000D03*
X47244000Y-12700000D03*
X47244000Y-10160000D03*
X49784000Y-12700000D03*
X49784000Y-10160000D03*
X52324000Y-12700000D03*
X52324000Y-10160000D03*
X54864000Y-12700000D03*
X54864000Y-10160000D03*
X57404000Y-12700000D03*
X57404000Y-10160000D03*
X59944000Y-12700000D03*
X59944000Y-10160000D03*
X62484000Y-12700000D03*
X62484000Y-10160000D03*
X65024000Y-12700000D03*
X65024000Y-10160000D03*
X67564000Y-12700000D03*
X67564000Y-10160000D03*
X70104000Y-12700000D03*
X70104000Y-10160000D03*
X72644000Y-12700000D03*
X72644000Y-10160000D03*
D13*
X72390000Y-19558000D03*
D14*
X69620000Y-19558000D03*
X66850000Y-19558000D03*
X64080000Y-19558000D03*
X61320000Y-19558000D03*
X58550000Y-19558000D03*
X55780000Y-19558000D03*
X53010000Y-19558000D03*
X50240000Y-19558000D03*
D15*
X79100000Y-20978000D03*
X15600000Y-20978000D03*
D14*
X47470000Y-19558000D03*
X44700000Y-19558000D03*
X41940000Y-19558000D03*
X39170000Y-19558000D03*
X36400000Y-19558000D03*
X33630000Y-19558000D03*
X30860000Y-19558000D03*
X28090000Y-19558000D03*
X25320000Y-19558000D03*
X22560000Y-19558000D03*
X71020000Y-22398000D03*
X68250000Y-22398000D03*
X65480000Y-22398000D03*
X62710000Y-22398000D03*
X59940000Y-22398000D03*
X57180000Y-22398000D03*
X54410000Y-22398000D03*
X51640000Y-22398000D03*
X48870000Y-22398000D03*
X46100000Y-22398000D03*
X43330000Y-22398000D03*
X40560000Y-22398000D03*
X37800000Y-22398000D03*
X35030000Y-22398000D03*
X32260000Y-22398000D03*
X29490000Y-22398000D03*
X26720000Y-22398000D03*
X23950000Y-22398000D03*
D16*
X89000000Y-6000000D03*
X6000000Y-6000000D03*
X6000000Y-25000000D03*
X89000000Y-25000000D03*
D17*
X72390000Y-19558000D02*
X72390000Y-16764000D01*
X70104000Y-14478000D02*
X70104000Y-12700000D01*
X72390000Y-16764000D02*
X70104000Y-14478000D01*
X69620000Y-19558000D02*
X69620000Y-18058000D01*
X67564000Y-16002000D02*
X67564000Y-12700000D01*
X69620000Y-18058000D02*
X67564000Y-16002000D01*
X67564000Y-12954000D02*
X67564000Y-12700000D01*
X66850000Y-19558000D02*
X66850000Y-18336000D01*
X65024000Y-16510000D02*
X65024000Y-12700000D01*
X66850000Y-18336000D02*
X65024000Y-16510000D01*
X65024000Y-13208000D02*
X65024000Y-12700000D01*
X64080000Y-19558000D02*
X64080000Y-18106000D01*
X62484000Y-16510000D02*
X62484000Y-12700000D01*
X64080000Y-18106000D02*
X62484000Y-16510000D01*
X62484000Y-13462000D02*
X62484000Y-12700000D01*
X61320000Y-19558000D02*
X61320000Y-18394000D01*
X59944000Y-17018000D02*
X59944000Y-12700000D01*
X61320000Y-18394000D02*
X59944000Y-17018000D01*
X59944000Y-13462000D02*
X59944000Y-12700000D01*
X58550000Y-19558000D02*
X58550000Y-18418000D01*
X57404000Y-17272000D02*
X57404000Y-12700000D01*
X58550000Y-18418000D02*
X57404000Y-17272000D01*
X57404000Y-13208000D02*
X57404000Y-12700000D01*
X55780000Y-19558000D02*
X55780000Y-15140000D01*
X54864000Y-14224000D02*
X54864000Y-12700000D01*
X55780000Y-15140000D02*
X54864000Y-14224000D01*
X54864000Y-13208000D02*
X54864000Y-12700000D01*
X53010000Y-19558000D02*
X53010000Y-14910000D01*
X53010000Y-14910000D02*
X52324000Y-14224000D01*
X52324000Y-14224000D02*
X52324000Y-12700000D01*
X50240000Y-19558000D02*
X50240000Y-17474000D01*
X49784000Y-17018000D02*
X49784000Y-12700000D01*
X50240000Y-17474000D02*
X49784000Y-17018000D01*
X50240000Y-13156000D02*
X49784000Y-12700000D01*
X47470000Y-19558000D02*
X47470000Y-15720000D01*
X47244000Y-15494000D02*
X47244000Y-12700000D01*
X47470000Y-15720000D02*
X47244000Y-15494000D01*
X44700000Y-19558000D02*
X44700000Y-12704000D01*
X44700000Y-12704000D02*
X44704000Y-12700000D01*
X41940000Y-19558000D02*
X41940000Y-14762000D01*
X42164000Y-14538000D02*
X42164000Y-12700000D01*
X41940000Y-14762000D02*
X42164000Y-14538000D01*
X39170000Y-19558000D02*
X39170000Y-14678000D01*
X39624000Y-14224000D02*
X39624000Y-12700000D01*
X39170000Y-14678000D02*
X39624000Y-14224000D01*
X36400000Y-19558000D02*
X36400000Y-14400000D01*
X37084000Y-13716000D02*
X37084000Y-12700000D01*
X36400000Y-14400000D02*
X37084000Y-13716000D01*
X33630000Y-19558000D02*
X33630000Y-14630000D01*
X34544000Y-13716000D02*
X34544000Y-12700000D01*
X33630000Y-14630000D02*
X34544000Y-13716000D01*
X30860000Y-19558000D02*
X30860000Y-15114000D01*
X32004000Y-13970000D02*
X32004000Y-12700000D01*
X30860000Y-15114000D02*
X32004000Y-13970000D01*
X28090000Y-19558000D02*
X28090000Y-14836000D01*
X29464000Y-13716000D02*
X29464000Y-12700000D01*
X29210000Y-13970000D02*
X29464000Y-13716000D01*
X28956000Y-13970000D02*
X29210000Y-13970000D01*
X28090000Y-14836000D02*
X28956000Y-13970000D01*
X29464000Y-13462000D02*
X29464000Y-12700000D01*
X25320000Y-19558000D02*
X25320000Y-15828000D01*
X26924000Y-14224000D02*
X26924000Y-12700000D01*
X25320000Y-15828000D02*
X26924000Y-14224000D01*
X22560000Y-19558000D02*
X22560000Y-13508000D01*
X23368000Y-12700000D02*
X24384000Y-12700000D01*
X22560000Y-13508000D02*
X23368000Y-12700000D01*
X71020000Y-22398000D02*
X71020000Y-17426000D01*
X68834000Y-11430000D02*
X67564000Y-10160000D01*
X68834000Y-15240000D02*
X68834000Y-11430000D01*
X71020000Y-17426000D02*
X68834000Y-15240000D01*
X68250000Y-22398000D02*
X68250000Y-18212000D01*
X66294000Y-11430000D02*
X65024000Y-10160000D01*
X66294000Y-16256000D02*
X66294000Y-11430000D01*
X68250000Y-18212000D02*
X66294000Y-16256000D01*
X65480000Y-22398000D02*
X65480000Y-18490000D01*
X63754000Y-11430000D02*
X62484000Y-10160000D01*
X63754000Y-16764000D02*
X63754000Y-11430000D01*
X65480000Y-18490000D02*
X63754000Y-16764000D01*
X62710000Y-22398000D02*
X62710000Y-18260000D01*
X61214000Y-11430000D02*
X59944000Y-10160000D01*
X61214000Y-16764000D02*
X61214000Y-11430000D01*
X62710000Y-18260000D02*
X61214000Y-16764000D01*
X59940000Y-22398000D02*
X59940000Y-18284000D01*
X58674000Y-11430000D02*
X57404000Y-10160000D01*
X58674000Y-17018000D02*
X58674000Y-11430000D01*
X59940000Y-18284000D02*
X58674000Y-17018000D01*
X57180000Y-22398000D02*
X57180000Y-18064000D01*
X56134000Y-11430000D02*
X54864000Y-10160000D01*
X56134000Y-14478000D02*
X56134000Y-11430000D01*
X56388000Y-14732000D02*
X56134000Y-14478000D01*
X56388000Y-17272000D02*
X56388000Y-14732000D01*
X57180000Y-18064000D02*
X56388000Y-17272000D01*
X54410000Y-22398000D02*
X54410000Y-15040000D01*
X53594000Y-11430000D02*
X52324000Y-10160000D01*
X53594000Y-14224000D02*
X53594000Y-11430000D01*
X54410000Y-15040000D02*
X53594000Y-14224000D01*
X51640000Y-22398000D02*
X51640000Y-14556000D01*
X51054000Y-11430000D02*
X49784000Y-10160000D01*
X51054000Y-13970000D02*
X51054000Y-11430000D01*
X51640000Y-14556000D02*
X51054000Y-13970000D01*
X48870000Y-22398000D02*
X48870000Y-14326000D01*
X48514000Y-11430000D02*
X47244000Y-10160000D01*
X48514000Y-13970000D02*
X48514000Y-11430000D01*
X48870000Y-14326000D02*
X48514000Y-13970000D01*
X46100000Y-22398000D02*
X46100000Y-13588000D01*
X45974000Y-11430000D02*
X44704000Y-10160000D01*
X45974000Y-13462000D02*
X45974000Y-11430000D01*
X46100000Y-13588000D02*
X45974000Y-13462000D01*
X43330000Y-22398000D02*
X43330000Y-13566000D01*
X43434000Y-11430000D02*
X42164000Y-10160000D01*
X43434000Y-13462000D02*
X43434000Y-11430000D01*
X43330000Y-13566000D02*
X43434000Y-13462000D01*
X40560000Y-22398000D02*
X40560000Y-14050000D01*
X40894000Y-11430000D02*
X39624000Y-10160000D01*
X40894000Y-13716000D02*
X40894000Y-11430000D01*
X40560000Y-14050000D02*
X40894000Y-13716000D01*
X37800000Y-22398000D02*
X37800000Y-14016000D01*
X38354000Y-11430000D02*
X37084000Y-10160000D01*
X38354000Y-13462000D02*
X38354000Y-11430000D01*
X37800000Y-14016000D02*
X38354000Y-13462000D01*
X35030000Y-22398000D02*
X35030000Y-14500000D01*
X35814000Y-11430000D02*
X34544000Y-10160000D01*
X35814000Y-13716000D02*
X35814000Y-11430000D01*
X35030000Y-14500000D02*
X35814000Y-13716000D01*
X32260000Y-22398000D02*
X32260000Y-14730000D01*
X33274000Y-11430000D02*
X32004000Y-10160000D01*
X33274000Y-13716000D02*
X33274000Y-11430000D01*
X32260000Y-14730000D02*
X33274000Y-13716000D01*
X29490000Y-22398000D02*
X29490000Y-14960000D01*
X30734000Y-11430000D02*
X29464000Y-10160000D01*
X30734000Y-13716000D02*
X30734000Y-11430000D01*
X29490000Y-14960000D02*
X30734000Y-13716000D01*
X26720000Y-22398000D02*
X26720000Y-15444000D01*
X28194000Y-11430000D02*
X26924000Y-10160000D01*
X28194000Y-13970000D02*
X28194000Y-11430000D01*
X26720000Y-15444000D02*
X28194000Y-13970000D01*
X23950000Y-22398000D02*
X23950000Y-15674000D01*
X25654000Y-11430000D02*
X24384000Y-10160000D01*
X25654000Y-13970000D02*
X25654000Y-11430000D01*
X23950000Y-15674000D02*
X25654000Y-13970000D01*
M02*
