M48
; DRILL file {KiCad (6.0.1)} date Wed Jun 22 13:41:04 2022
; FORMAT={-:-/ absolute / inch / decimal}
; #@! TF.CreationDate,2022-06-22T13:41:04-04:00
; #@! TF.GenerationSoftware,Kicad,Pcbnew,(6.0.1)
; #@! TF.FileFunction,MixedPlating,1,2
FMAT,2
INCH
; #@! TA.AperFunction,Plated,PTH,ComponentDrill
T1C0.0394
; #@! TA.AperFunction,Plated,PTH,ComponentDrill
T2C0.0402
; #@! TA.AperFunction,Plated,PTH,ComponentDrill
T3C0.1200
; #@! TA.AperFunction,Plated,PTH,ComponentDrill
T4C0.1510
%
G90
G05
T1
X0.96Y-0.4
X0.96Y-0.5
X1.06Y-0.4
X1.06Y-0.5
X1.16Y-0.4
X1.16Y-0.5
X1.26Y-0.4
X1.26Y-0.5
X1.36Y-0.4
X1.36Y-0.5
X1.46Y-0.4
X1.46Y-0.5
X1.56Y-0.4
X1.56Y-0.5
X1.66Y-0.4
X1.66Y-0.5
X1.76Y-0.4
X1.76Y-0.5
X1.86Y-0.4
X1.86Y-0.5
X1.96Y-0.4
X1.96Y-0.5
X2.06Y-0.4
X2.06Y-0.5
X2.16Y-0.4
X2.16Y-0.5
X2.26Y-0.4
X2.26Y-0.5
X2.36Y-0.4
X2.36Y-0.5
X2.46Y-0.4
X2.46Y-0.5
X2.56Y-0.4
X2.56Y-0.5
X2.66Y-0.4
X2.66Y-0.5
X2.76Y-0.4
X2.76Y-0.5
X2.86Y-0.4
X2.86Y-0.5
T2
X0.8882Y-0.7847
X0.9429Y-0.8965
X0.9969Y-0.7847
X1.052Y-0.8965
X1.1059Y-0.7847
X1.161Y-0.8965
X1.215Y-0.7847
X1.2701Y-0.8965
X1.324Y-0.7847
X1.3791Y-0.8965
X1.4331Y-0.7847
X1.4882Y-0.8965
X1.5421Y-0.7847
X1.5969Y-0.8965
X1.6512Y-0.7847
X1.7059Y-0.8965
X1.7598Y-0.7847
X1.815Y-0.8965
X1.8689Y-0.7847
X1.924Y-0.8965
X1.978Y-0.7847
X2.0331Y-0.8965
X2.087Y-0.7847
X2.1421Y-0.8965
X2.1961Y-0.7847
X2.2512Y-0.8965
X2.3051Y-0.7847
X2.3598Y-0.8965
X2.4142Y-0.7847
X2.4689Y-0.8965
X2.5228Y-0.7847
X2.578Y-0.8965
X2.6319Y-0.7847
X2.687Y-0.8965
X2.7409Y-0.7847
X2.7961Y-0.8965
X2.85Y-0.7847
T3
X0.6142Y-0.8406
X3.1142Y-0.8406
T4
X0.2362Y-0.2362
X0.2362Y-0.9843
X3.5039Y-0.2362
X3.5039Y-0.9843
T0
M30
