%
M48
METRIC,000.000
T01C0.64
T02C0.89
T03C1.00
T04C2.01
T05C3.18
%
T01
X006675Y013461
X006726Y018439
X015819Y018795
X016962Y010413
X018232Y021462
X019502Y010413
X020772Y021589
X022042Y010413
X024709Y007111
X025517Y005841
X048675Y013461
X048726Y018439
X057819Y018795
X058962Y010413
X060232Y021462
X061502Y010413
X062772Y021589
X064042Y010413
X066709Y007111
X067517Y005841
X006675Y047461
X006726Y052439
X015819Y052795
X016962Y044413
X018232Y055462
X019502Y044413
X020772Y055589
X022042Y044413
X024709Y041111
X025517Y039841
X006675Y081461
X006726Y086439
X015819Y086795
X016962Y078413
X018232Y089462
X019502Y078413
X020772Y089589
X022042Y078413
X024709Y075111
X025517Y073841
X048675Y047461
X048726Y052439
X057819Y052795
X058962Y044413
X060232Y055462
X061502Y044413
X062772Y055589
X064042Y044413
X066709Y041111
X067517Y039841
X048675Y081461
X048726Y086439
X057819Y086795
X058962Y078413
X060232Y089462
X061502Y078413
X062772Y089589
X064042Y078413
X066709Y075111
X067517Y073841
T02
X013325Y015955
X013325Y013415
X055325Y015955
X055325Y013415
X013325Y049955
X013325Y047415
X013325Y083955
X013325Y081415
X055325Y049955
X055325Y047415
X055325Y083955
X055325Y081415
T03
X028714Y017636
X028714Y015096
X028714Y012556
X070714Y017636
X070714Y015096
X070714Y012556
X028714Y051636
X028714Y049096
X028714Y046556
X028714Y085636
X028714Y083096
X028714Y080556
X070714Y051636
X070714Y049096
X070714Y046556
X070714Y085636
X070714Y083096
X070714Y080556
T04
X008245Y021035
X008245Y010875
X050245Y021035
X050245Y010875
X008245Y055035
X008245Y044875
X008245Y089035
X008245Y078875
X050245Y055035
X050245Y044875
X050245Y089035
X050245Y078875
T05
X003876Y028106
X004003Y004106
X035999Y028233
X035999Y003979
X045876Y028106
X046003Y004106
X077999Y028233
X077999Y003979
X003876Y062106
X004003Y038106
X035999Y062233
X035999Y037979
X003876Y096106
X004003Y072106
X035999Y096233
X035999Y071979
X045876Y062106
X046003Y038106
X077999Y062233
X077999Y037979
X045876Y096106
X046003Y072106
X077999Y096233
X077999Y071979
M30