%TF.GenerationSoftware,KiCad,Pcbnew,(6.0.1)*%
%TF.CreationDate,2022-09-27T15:47:34-04:00*%
%TF.ProjectId,SYNTH-VCO-02,53594e54-482d-4564-934f-2d30322e6b69,1*%
%TF.SameCoordinates,Original*%
%TF.FileFunction,Legend,Bot*%
%TF.FilePolarity,Positive*%
%FSLAX46Y46*%
G04 Gerber Fmt 4.6, Leading zero omitted, Abs format (unit mm)*
G04 Created by KiCad (PCBNEW (6.0.1)) date 2022-09-27 15:47:34*
%MOMM*%
%LPD*%
G01*
G04 APERTURE LIST*
%ADD10C,0.381000*%
%ADD11C,0.375000*%
%ADD12C,0.150000*%
%ADD13C,0.254000*%
%ADD14C,0.200000*%
%ADD15C,0.120000*%
G04 APERTURE END LIST*
D10*
X193548000Y-22479000D02*
X193693142Y-22406428D01*
X193910857Y-22406428D01*
X194128571Y-22479000D01*
X194273714Y-22624142D01*
X194346285Y-22769285D01*
X194418857Y-23059571D01*
X194418857Y-23277285D01*
X194346285Y-23567571D01*
X194273714Y-23712714D01*
X194128571Y-23857857D01*
X193910857Y-23930428D01*
X193765714Y-23930428D01*
X193548000Y-23857857D01*
X193475428Y-23785285D01*
X193475428Y-23277285D01*
X193765714Y-23277285D01*
X192894857Y-23495000D02*
X192169142Y-23495000D01*
X193040000Y-23930428D02*
X192532000Y-22406428D01*
X192024000Y-23930428D01*
X191733714Y-22406428D02*
X190862857Y-22406428D01*
X191298285Y-23930428D02*
X191298285Y-22406428D01*
X190354857Y-23132142D02*
X189846857Y-23132142D01*
X189629142Y-23930428D02*
X190354857Y-23930428D01*
X190354857Y-22406428D01*
X189629142Y-22406428D01*
X208388857Y-23368000D02*
X207663142Y-23368000D01*
X208534000Y-23803428D02*
X208026000Y-22279428D01*
X207518000Y-23803428D01*
X207010000Y-22279428D02*
X207010000Y-23513142D01*
X206937428Y-23658285D01*
X206864857Y-23730857D01*
X206719714Y-23803428D01*
X206429428Y-23803428D01*
X206284285Y-23730857D01*
X206211714Y-23658285D01*
X206139142Y-23513142D01*
X206139142Y-22279428D01*
X205413428Y-23803428D02*
X205413428Y-22279428D01*
X205050571Y-22279428D01*
X204832857Y-22352000D01*
X204687714Y-22497142D01*
X204615142Y-22642285D01*
X204542571Y-22932571D01*
X204542571Y-23150285D01*
X204615142Y-23440571D01*
X204687714Y-23585714D01*
X204832857Y-23730857D01*
X205050571Y-23803428D01*
X205413428Y-23803428D01*
X202438000Y-22279428D02*
X202147714Y-22279428D01*
X202002571Y-22352000D01*
X201857428Y-22497142D01*
X201784857Y-22787428D01*
X201784857Y-23295428D01*
X201857428Y-23585714D01*
X202002571Y-23730857D01*
X202147714Y-23803428D01*
X202438000Y-23803428D01*
X202583142Y-23730857D01*
X202728285Y-23585714D01*
X202800857Y-23295428D01*
X202800857Y-22787428D01*
X202728285Y-22497142D01*
X202583142Y-22352000D01*
X202438000Y-22279428D01*
X201131714Y-22279428D02*
X201131714Y-23513142D01*
X201059142Y-23658285D01*
X200986571Y-23730857D01*
X200841428Y-23803428D01*
X200551142Y-23803428D01*
X200406000Y-23730857D01*
X200333428Y-23658285D01*
X200260857Y-23513142D01*
X200260857Y-22279428D01*
X199752857Y-22279428D02*
X198882000Y-22279428D01*
X199317428Y-23803428D02*
X199317428Y-22279428D01*
D11*
X209632714Y-38246857D02*
X210132714Y-38246857D01*
X210132714Y-39032571D02*
X210132714Y-37532571D01*
X209418428Y-37532571D01*
X207989857Y-39032571D02*
X208489857Y-38318285D01*
X208847000Y-39032571D02*
X208847000Y-37532571D01*
X208275571Y-37532571D01*
X208132714Y-37604000D01*
X208061285Y-37675428D01*
X207989857Y-37818285D01*
X207989857Y-38032571D01*
X208061285Y-38175428D01*
X208132714Y-38246857D01*
X208275571Y-38318285D01*
X208847000Y-38318285D01*
X207347000Y-38246857D02*
X206847000Y-38246857D01*
X206632714Y-39032571D02*
X207347000Y-39032571D01*
X207347000Y-37532571D01*
X206632714Y-37532571D01*
X204989857Y-39175428D02*
X205132714Y-39104000D01*
X205275571Y-38961142D01*
X205489857Y-38746857D01*
X205632714Y-38675428D01*
X205775571Y-38675428D01*
X205704142Y-39032571D02*
X205847000Y-38961142D01*
X205989857Y-38818285D01*
X206061285Y-38532571D01*
X206061285Y-38032571D01*
X205989857Y-37746857D01*
X205847000Y-37604000D01*
X205704142Y-37532571D01*
X205418428Y-37532571D01*
X205275571Y-37604000D01*
X205132714Y-37746857D01*
X205061285Y-38032571D01*
X205061285Y-38532571D01*
X205132714Y-38818285D01*
X205275571Y-38961142D01*
X205418428Y-39032571D01*
X205704142Y-39032571D01*
X202775571Y-38246857D02*
X203275571Y-38246857D01*
X203275571Y-39032571D02*
X203275571Y-37532571D01*
X202561285Y-37532571D01*
X201989857Y-39032571D02*
X201989857Y-37532571D01*
X201275571Y-39032571D02*
X201275571Y-37532571D01*
X200418428Y-39032571D01*
X200418428Y-37532571D01*
X199704142Y-38246857D02*
X199204142Y-38246857D01*
X198989857Y-39032571D02*
X199704142Y-39032571D01*
X199704142Y-37532571D01*
X198989857Y-37532571D01*
X209287428Y-54526571D02*
X209287428Y-53026571D01*
X208787428Y-54098000D01*
X208287428Y-53026571D01*
X208287428Y-54526571D01*
X207287428Y-53026571D02*
X207001714Y-53026571D01*
X206858857Y-53098000D01*
X206716000Y-53240857D01*
X206644571Y-53526571D01*
X206644571Y-54026571D01*
X206716000Y-54312285D01*
X206858857Y-54455142D01*
X207001714Y-54526571D01*
X207287428Y-54526571D01*
X207430285Y-54455142D01*
X207573142Y-54312285D01*
X207644571Y-54026571D01*
X207644571Y-53526571D01*
X207573142Y-53240857D01*
X207430285Y-53098000D01*
X207287428Y-53026571D01*
X206001714Y-54526571D02*
X206001714Y-53026571D01*
X205644571Y-53026571D01*
X205430285Y-53098000D01*
X205287428Y-53240857D01*
X205216000Y-53383714D01*
X205144571Y-53669428D01*
X205144571Y-53883714D01*
X205216000Y-54169428D01*
X205287428Y-54312285D01*
X205430285Y-54455142D01*
X205644571Y-54526571D01*
X206001714Y-54526571D01*
X202858857Y-53740857D02*
X203358857Y-53740857D01*
X203358857Y-54526571D02*
X203358857Y-53026571D01*
X202644571Y-53026571D01*
X202073142Y-54526571D02*
X202073142Y-53026571D01*
X201358857Y-54526571D02*
X201358857Y-53026571D01*
X200501714Y-54526571D01*
X200501714Y-53026571D01*
X199787428Y-53740857D02*
X199287428Y-53740857D01*
X199073142Y-54526571D02*
X199787428Y-54526571D01*
X199787428Y-53026571D01*
X199073142Y-53026571D01*
D10*
X196088000Y-55045428D02*
X196088000Y-53521428D01*
X195580000Y-54610000D01*
X195072000Y-53521428D01*
X195072000Y-55045428D01*
X194056000Y-53521428D02*
X193765714Y-53521428D01*
X193620571Y-53594000D01*
X193475428Y-53739142D01*
X193402857Y-54029428D01*
X193402857Y-54537428D01*
X193475428Y-54827714D01*
X193620571Y-54972857D01*
X193765714Y-55045428D01*
X194056000Y-55045428D01*
X194201142Y-54972857D01*
X194346285Y-54827714D01*
X194418857Y-54537428D01*
X194418857Y-54029428D01*
X194346285Y-53739142D01*
X194201142Y-53594000D01*
X194056000Y-53521428D01*
X192749714Y-55045428D02*
X192749714Y-53521428D01*
X192386857Y-53521428D01*
X192169142Y-53594000D01*
X192024000Y-53739142D01*
X191951428Y-53884285D01*
X191878857Y-54174571D01*
X191878857Y-54392285D01*
X191951428Y-54682571D01*
X192024000Y-54827714D01*
X192169142Y-54972857D01*
X192386857Y-55045428D01*
X192749714Y-55045428D01*
X189193714Y-54900285D02*
X189266285Y-54972857D01*
X189484000Y-55045428D01*
X189629142Y-55045428D01*
X189846857Y-54972857D01*
X189992000Y-54827714D01*
X190064571Y-54682571D01*
X190137142Y-54392285D01*
X190137142Y-54174571D01*
X190064571Y-53884285D01*
X189992000Y-53739142D01*
X189846857Y-53594000D01*
X189629142Y-53521428D01*
X189484000Y-53521428D01*
X189266285Y-53594000D01*
X189193714Y-53666571D01*
X188758285Y-53521428D02*
X188250285Y-55045428D01*
X187742285Y-53521428D01*
X195344142Y-37773428D02*
X194836142Y-39297428D01*
X194328142Y-37773428D01*
X192731571Y-37700857D02*
X194037857Y-39660285D01*
X191933285Y-37773428D02*
X191643000Y-37773428D01*
X191497857Y-37846000D01*
X191352714Y-37991142D01*
X191280142Y-38281428D01*
X191280142Y-38789428D01*
X191352714Y-39079714D01*
X191497857Y-39224857D01*
X191643000Y-39297428D01*
X191933285Y-39297428D01*
X192078428Y-39224857D01*
X192223571Y-39079714D01*
X192296142Y-38789428D01*
X192296142Y-38281428D01*
X192223571Y-37991142D01*
X192078428Y-37846000D01*
X191933285Y-37773428D01*
X189756142Y-39152285D02*
X189828714Y-39224857D01*
X190046428Y-39297428D01*
X190191571Y-39297428D01*
X190409285Y-39224857D01*
X190554428Y-39079714D01*
X190627000Y-38934571D01*
X190699571Y-38644285D01*
X190699571Y-38426571D01*
X190627000Y-38136285D01*
X190554428Y-37991142D01*
X190409285Y-37846000D01*
X190191571Y-37773428D01*
X190046428Y-37773428D01*
X189828714Y-37846000D01*
X189756142Y-37918571D01*
X189320714Y-37773428D02*
X188449857Y-37773428D01*
X188885285Y-39297428D02*
X188885285Y-37773428D01*
D11*
X223499714Y-101953142D02*
X223285428Y-102024571D01*
X222928285Y-102024571D01*
X222785428Y-101953142D01*
X222714000Y-101881714D01*
X222642571Y-101738857D01*
X222642571Y-101596000D01*
X222714000Y-101453142D01*
X222785428Y-101381714D01*
X222928285Y-101310285D01*
X223214000Y-101238857D01*
X223356857Y-101167428D01*
X223428285Y-101096000D01*
X223499714Y-100953142D01*
X223499714Y-100810285D01*
X223428285Y-100667428D01*
X223356857Y-100596000D01*
X223214000Y-100524571D01*
X222856857Y-100524571D01*
X222642571Y-100596000D01*
X222214000Y-100524571D02*
X221356857Y-100524571D01*
X221785428Y-102024571D02*
X221785428Y-100524571D01*
X219999714Y-102024571D02*
X220499714Y-101310285D01*
X220856857Y-102024571D02*
X220856857Y-100524571D01*
X220285428Y-100524571D01*
X220142571Y-100596000D01*
X220071142Y-100667428D01*
X219999714Y-100810285D01*
X219999714Y-101024571D01*
X220071142Y-101167428D01*
X220142571Y-101238857D01*
X220285428Y-101310285D01*
X220856857Y-101310285D01*
X219356857Y-102024571D02*
X219356857Y-100524571D01*
X218642571Y-102024571D02*
X218642571Y-100524571D01*
X218071142Y-100524571D01*
X217928285Y-100596000D01*
X217856857Y-100667428D01*
X217785428Y-100810285D01*
X217785428Y-101024571D01*
X217856857Y-101167428D01*
X217928285Y-101238857D01*
X218071142Y-101310285D01*
X218642571Y-101310285D01*
X217142571Y-101238857D02*
X216642571Y-101238857D01*
X216428285Y-102024571D02*
X217142571Y-102024571D01*
X217142571Y-100524571D01*
X216428285Y-100524571D01*
D12*
%TO.C,J2*%
X205192380Y-35607666D02*
X205906666Y-35607666D01*
X206049523Y-35560047D01*
X206144761Y-35464809D01*
X206192380Y-35321952D01*
X206192380Y-35226714D01*
X205287619Y-36036238D02*
X205240000Y-36083857D01*
X205192380Y-36179095D01*
X205192380Y-36417190D01*
X205240000Y-36512428D01*
X205287619Y-36560047D01*
X205382857Y-36607666D01*
X205478095Y-36607666D01*
X205620952Y-36560047D01*
X206192380Y-35988619D01*
X206192380Y-36607666D01*
%TO.C,J4*%
X193508380Y-66849667D02*
X194222666Y-66849667D01*
X194365523Y-66802048D01*
X194460761Y-66706810D01*
X194508380Y-66563953D01*
X194508380Y-66468715D01*
X193841714Y-67754429D02*
X194508380Y-67754429D01*
X193460761Y-67516334D02*
X194175047Y-67278239D01*
X194175047Y-67897286D01*
%TO.C,J3*%
X193508380Y-51355667D02*
X194222666Y-51355667D01*
X194365523Y-51308048D01*
X194460761Y-51212810D01*
X194508380Y-51069953D01*
X194508380Y-50974715D01*
X193508380Y-51736620D02*
X193508380Y-52355667D01*
X193889333Y-52022334D01*
X193889333Y-52165191D01*
X193936952Y-52260429D01*
X193984571Y-52308048D01*
X194079809Y-52355667D01*
X194317904Y-52355667D01*
X194413142Y-52308048D01*
X194460761Y-52260429D01*
X194508380Y-52165191D01*
X194508380Y-51879477D01*
X194460761Y-51784239D01*
X194413142Y-51736620D01*
%TO.C,J1*%
X193127381Y-35734666D02*
X193841667Y-35734666D01*
X193984524Y-35687047D01*
X194079762Y-35591809D01*
X194127381Y-35448952D01*
X194127381Y-35353714D01*
X194127381Y-36734666D02*
X194127381Y-36163238D01*
X194127381Y-36448952D02*
X193127381Y-36448952D01*
X193270239Y-36353714D01*
X193365477Y-36258476D01*
X193413096Y-36163238D01*
D13*
%TO.C,RV2*%
X201010761Y-40845619D02*
X201349428Y-40361809D01*
X201591333Y-40845619D02*
X201591333Y-39829619D01*
X201204285Y-39829619D01*
X201107523Y-39878000D01*
X201059142Y-39926380D01*
X201010761Y-40023142D01*
X201010761Y-40168285D01*
X201059142Y-40265047D01*
X201107523Y-40313428D01*
X201204285Y-40361809D01*
X201591333Y-40361809D01*
X200720476Y-39829619D02*
X200381809Y-40845619D01*
X200043142Y-39829619D01*
X199752857Y-39926380D02*
X199704476Y-39878000D01*
X199607714Y-39829619D01*
X199365809Y-39829619D01*
X199269047Y-39878000D01*
X199220666Y-39926380D01*
X199172285Y-40023142D01*
X199172285Y-40119904D01*
X199220666Y-40265047D01*
X199801238Y-40845619D01*
X199172285Y-40845619D01*
%TO.C,RV1*%
X200502761Y-56085619D02*
X200841428Y-55601809D01*
X201083333Y-56085619D02*
X201083333Y-55069619D01*
X200696285Y-55069619D01*
X200599523Y-55118000D01*
X200551142Y-55166380D01*
X200502761Y-55263142D01*
X200502761Y-55408285D01*
X200551142Y-55505047D01*
X200599523Y-55553428D01*
X200696285Y-55601809D01*
X201083333Y-55601809D01*
X200212476Y-55069619D02*
X199873809Y-56085619D01*
X199535142Y-55069619D01*
X198664285Y-56085619D02*
X199244857Y-56085619D01*
X198954571Y-56085619D02*
X198954571Y-55069619D01*
X199051333Y-55214761D01*
X199148095Y-55311523D01*
X199244857Y-55359904D01*
D14*
%TO.C,J2*%
X197746000Y-34980000D02*
X197746000Y-25980000D01*
X197746000Y-34980000D02*
X199646000Y-34980000D01*
X197746000Y-25980000D02*
X200046000Y-25980000D01*
X208646000Y-25980000D02*
X204646000Y-25980000D01*
X208646000Y-34980000D02*
X205046000Y-34980000D01*
X208646000Y-34980000D02*
X208646000Y-32480000D01*
X208646000Y-25980000D02*
X208646000Y-28480000D01*
%TO.C,J4*%
X186062000Y-66176001D02*
X186062000Y-57176001D01*
X186062000Y-66176001D02*
X187962000Y-66176001D01*
X186062000Y-57176001D02*
X188362000Y-57176001D01*
X196962000Y-57176001D02*
X192962000Y-57176001D01*
X196962000Y-66176001D02*
X193362000Y-66176001D01*
X196962000Y-66176001D02*
X196962000Y-63676001D01*
X196962000Y-57176001D02*
X196962000Y-59676001D01*
%TO.C,J3*%
X186062000Y-50682001D02*
X186062000Y-41682001D01*
X186062000Y-50682001D02*
X187962000Y-50682001D01*
X186062000Y-41682001D02*
X188362000Y-41682001D01*
X196962000Y-41682001D02*
X192962000Y-41682001D01*
X196962000Y-50682001D02*
X193362000Y-50682001D01*
X196962000Y-50682001D02*
X196962000Y-48182001D01*
X196962000Y-41682001D02*
X196962000Y-44182001D01*
%TO.C,J1*%
X185870001Y-34980000D02*
X185870001Y-25980000D01*
X185870001Y-34980000D02*
X187770001Y-34980000D01*
X185870001Y-25980000D02*
X188170001Y-25980000D01*
X196770001Y-25980000D02*
X192770001Y-25980000D01*
X196770001Y-34980000D02*
X193170001Y-34980000D01*
X196770001Y-34980000D02*
X196770001Y-32480000D01*
X196770001Y-25980000D02*
X196770001Y-28480000D01*
D15*
%TO.C,RV2*%
X202281000Y-51198000D02*
X198416000Y-51198000D01*
X210656000Y-51198000D02*
X206791000Y-51198000D01*
X210656000Y-49598000D02*
X210656000Y-51198000D01*
X210656000Y-44599000D02*
X210656000Y-45358000D01*
X198416000Y-41258000D02*
X198416000Y-51198000D01*
X202281000Y-41258000D02*
X198416000Y-41258000D01*
X210656000Y-47099000D02*
X210656000Y-47858000D01*
X210656000Y-41258000D02*
X210656000Y-42857000D01*
X210656000Y-41258000D02*
X206791000Y-41258000D01*
%TO.C,RV1*%
X210402000Y-64838000D02*
X210402000Y-66438000D01*
X210402000Y-56498000D02*
X206537000Y-56498000D01*
X210402000Y-56498000D02*
X210402000Y-58097000D01*
X210402000Y-59839000D02*
X210402000Y-60598000D01*
X202027000Y-66438000D02*
X198162000Y-66438000D01*
X210402000Y-62339000D02*
X210402000Y-63098000D01*
X210402000Y-66438000D02*
X206537000Y-66438000D01*
X198162000Y-56498000D02*
X198162000Y-66438000D01*
X202027000Y-56498000D02*
X198162000Y-56498000D01*
%TD*%
M02*
