  0
SECTION
  2
HEADER
  9
$ANGBASE
  50
0.0
  9
$ANGDIR
  70
  1
  9
$MEASUREMENT
  70
0
  0
ENDSEC
  0
SECTION
  2
TABLES
  0
TABLE
  2
LTYPE
  70
1
  0
LTYPE
  2
CONTINUOUS
  70
0
  3
Solid line
  72
65
  73
0
  40
0.0
  0
ENDTAB
  0
TABLE
  2
STYLE
  70
4
  0
STYLE
  2
KICAD
  70
0
  40
0
  41
1
  42
1
  50
0
  71
0
  3
isocp.shx
  0
STYLE
  2
KICADB
  70
0
  40
0
  41
1
  42
1
  50
0
  71
0
  3
isocp.shx
  0
STYLE
  2
KICADI
  70
0
  40
0
  41
1
  42
1
  50
15
  71
0
  3
isocp.shx
  0
STYLE
  2
KICADBI
  70
0
  40
0
  41
1
  42
1
  50
15
  71
0
  3
isocp.shx
  0
ENDTAB
  0
TABLE
  2
LAYER
  70
30
  0
LAYER
  2
BLACK
  70
0
  62
7
  6
CONTINUOUS
  0
LAYER
  2
GRAY1
  70
0
  62
251
  6
CONTINUOUS
  0
LAYER
  2
GRAY2
  70
0
  62
8
  6
CONTINUOUS
  0
LAYER
  2
GRAY3
  70
0
  62
9
  6
CONTINUOUS
  0
LAYER
  2
WHITE
  70
0
  62
7
  6
CONTINUOUS
  0
LAYER
  2
LYELLOW
  70
0
  62
51
  6
CONTINUOUS
  0
LAYER
  2
BLUE1
  70
0
  62
178
  6
CONTINUOUS
  0
LAYER
  2
GREEN1
  70
0
  62
98
  6
CONTINUOUS
  0
LAYER
  2
CYAN1
  70
0
  62
138
  6
CONTINUOUS
  0
LAYER
  2
RED1
  70
0
  62
18
  6
CONTINUOUS
  0
LAYER
  2
MAGENTA1
  70
0
  62
228
  6
CONTINUOUS
  0
LAYER
  2
BROWN1
  70
0
  62
58
  6
CONTINUOUS
  0
LAYER
  2
BLUE2
  70
0
  62
5
  6
CONTINUOUS
  0
LAYER
  2
GREEN2
  70
0
  62
3
  6
CONTINUOUS
  0
LAYER
  2
CYAN2
  70
0
  62
4
  6
CONTINUOUS
  0
LAYER
  2
RED2
  70
0
  62
1
  6
CONTINUOUS
  0
LAYER
  2
MAGENTA2
  70
0
  62
6
  6
CONTINUOUS
  0
LAYER
  2
BROWN2
  70
0
  62
54
  6
CONTINUOUS
  0
LAYER
  2
BLUE3
  70
0
  62
171
  6
CONTINUOUS
  0
LAYER
  2
GREEN3
  70
0
  62
91
  6
CONTINUOUS
  0
LAYER
  2
CYAN3
  70
0
  62
131
  6
CONTINUOUS
  0
LAYER
  2
RED3
  70
0
  62
11
  6
CONTINUOUS
  0
LAYER
  2
MAGENTA3
  70
0
  62
221
  6
CONTINUOUS
  0
LAYER
  2
YELLOW3
  70
0
  62
2
  6
CONTINUOUS
  0
LAYER
  2
BLUE4
  70
0
  62
5
  6
CONTINUOUS
  0
LAYER
  2
GREEN4
  70
0
  62
3
  6
CONTINUOUS
  0
LAYER
  2
CYAN4
  70
0
  62
4
  6
CONTINUOUS
  0
LAYER
  2
RED4
  70
0
  62
1
  6
CONTINUOUS
  0
LAYER
  2
MAGENTA4
  70
0
  62
6
  6
CONTINUOUS
  0
LAYER
  2
YELLOW4
  70
0
  62
2
  6
CONTINUOUS
  0
ENDTAB
  0
ENDSEC
  0
SECTION
  2
ENTITIES
0
LINE
8
Black
10
136
20
-145.05
11
179
21
-145.05
0
LINE
8
Black
10
136
20
-144.95
11
179
21
-144.95
0
ARC
8
Black
10
179
20
-145
40
0.05
50
270
51
450
0
ARC
8
Black
10
136
20
-145
40
0.05
50
90
51
270
0
LINE
8
Black
10
136
20
-50.05
11
179
21
-50.05
0
LINE
8
Black
10
136
20
-49.95
11
179
21
-49.95
0
ARC
8
Black
10
179
20
-50
40
0.05
50
270
51
450
0
ARC
8
Black
10
136
20
-50
40
0.05
50
90
51
270
0
LINE
8
Black
10
130.05
20
-139
11
130.05
21
-56
0
LINE
8
Black
10
129.95
20
-139
11
129.95
21
-56
0
ARC
8
Black
10
130
20
-56
40
0.05
50
360
51
540
0
ARC
8
Black
10
130
20
-139
40
0.05
50
180
51
360
0
LINE
8
Black
10
185.05
20
-139
11
185.05
21
-56
0
LINE
8
Black
10
184.95
20
-139
11
184.95
21
-56
0
ARC
8
Black
10
185
20
-56
40
0.05
50
360
51
540
0
ARC
8
Black
10
185
20
-139
40
0.05
50
180
51
360
0
ARC
8
Black
10
136
20
-139
40
6
50
-180
51
-90
0
ARC
8
Black
10
179
20
-139
40
6
50
-90
51
-0
0
ARC
8
Black
10
179
20
-56
40
6
50
-0
51
90
0
ARC
8
Black
10
136
20
-56
40
6
50
90
51
180
0
LINE
8
Black
10
150.925
20
-99.8805
11
151.56
21
-100.516
0
LINE
8
Black
10
151.56
20
-99.8805
11
150.925
21
-100.516
0
LINE
8
Black
10
151.179
20
-136.203
11
151.814
21
-136.838
0
LINE
8
Black
10
151.814
20
-136.203
11
151.179
21
-136.838
0
LINE
8
Black
10
152.195
20
-97.5945
11
152.83
21
-98.2295
0
LINE
8
Black
10
152.83
20
-97.5945
11
152.195
21
-98.2295
0
LINE
8
Black
10
152.957
20
-93.0225
11
153.592
21
-93.6575
0
LINE
8
Black
10
153.592
20
-93.0225
11
152.957
21
-93.6575
0
LINE
8
Black
10
153.211
20
-102.421
11
153.846
21
-103.056
0
LINE
8
Black
10
153.846
20
-102.421
11
153.211
21
-103.056
0
LINE
8
Black
10
156.767
20
-102.675
11
157.402
21
-103.31
0
LINE
8
Black
10
157.402
20
-102.675
11
156.767
21
-103.31
0
LINE
8
Black
10
156.767
20
-117.153
11
157.402
21
-117.788
0
LINE
8
Black
10
157.402
20
-117.153
11
156.767
21
-117.788
0
LINE
8
Black
10
157.021
20
-126.043
11
157.656
21
-126.678
0
LINE
8
Black
10
157.656
20
-126.043
11
157.021
21
-126.678
0
LINE
8
Black
10
157.021
20
-129.853
11
157.656
21
-130.488
0
LINE
8
Black
10
157.656
20
-129.853
11
157.021
21
-130.488
0
LINE
8
Black
10
157.783
20
-82.1005
11
158.418
21
-82.7355
0
LINE
8
Black
10
158.418
20
-82.1005
11
157.783
21
-82.7355
0
LINE
8
Black
10
157.783
20
-130.869
11
158.418
21
-131.504
0
LINE
8
Black
10
158.418
20
-130.869
11
157.783
21
-131.504
0
LINE
8
Black
10
158.037
20
-127.313
11
158.672
21
-127.948
0
LINE
8
Black
10
158.672
20
-127.313
11
158.037
21
-127.948
0
LINE
8
Black
10
158.799
20
-116.899
11
159.434
21
-117.534
0
LINE
8
Black
10
159.434
20
-116.899
11
158.799
21
-117.534
0
LINE
8
Black
10
160.577
20
-98.8645
11
161.212
21
-99.4995
0
LINE
8
Black
10
161.212
20
-98.8645
11
160.577
21
-99.4995
0
LINE
8
Black
10
160.577
20
-111.057
11
161.212
21
-111.692
0
LINE
8
Black
10
161.212
20
-111.057
11
160.577
21
-111.692
0
LINE
8
Black
10
161.339
20
-104.707
11
161.974
21
-105.342
0
LINE
8
Black
10
161.974
20
-104.707
11
161.339
21
-105.342
0
LINE
8
Black
10
162.355
20
-82.6085
11
162.99
21
-83.2435
0
LINE
8
Black
10
162.99
20
-82.6085
11
162.355
21
-83.2435
0
LINE
8
Black
10
162.355
20
-100.643
11
162.99
21
-101.278
0
LINE
8
Black
10
162.99
20
-100.643
11
162.355
21
-101.278
0
LINE
8
Black
10
163.371
20
-98.6105
11
164.006
21
-99.2455
0
LINE
8
Black
10
164.006
20
-98.6105
11
163.371
21
-99.2455
0
LINE
8
Black
10
165.149
20
-81.5925
11
165.784
21
-82.2275
0
LINE
8
Black
10
165.784
20
-81.5925
11
165.149
21
-82.2275
0
LINE
8
Black
10
168.705
20
-106.485
11
169.34
21
-107.12
0
LINE
8
Black
10
169.34
20
-106.485
11
168.705
21
-107.12
0
LINE
8
Black
10
169.213
20
-98.8645
11
169.848
21
-99.4995
0
LINE
8
Black
10
169.848
20
-98.8645
11
169.213
21
-99.4995
0
LINE
8
Black
10
169.975
20
-109.025
11
170.61
21
-109.66
0
LINE
8
Black
10
170.61
20
-109.025
11
169.975
21
-109.66
0
LINE
8
Black
10
170.483
20
-101.151
11
171.118
21
-101.786
0
LINE
8
Black
10
171.118
20
-101.151
11
170.483
21
-101.786
0
CIRCLE
8
Black
10
147.94
20
-67.94
40
0.4
0
CIRCLE
8
Black
10
147.94
20
-70.48
40
0.4
0
CIRCLE
8
Black
10
147.94
20
-73.02
40
0.4
0
CIRCLE
8
Black
10
147.94
20
-75.56
40
0.4
0
CIRCLE
8
Black
10
147.94
20
-78.1
40
0.4
0
CIRCLE
8
Black
10
147.94
20
-80.64
40
0.4
0
CIRCLE
8
Black
10
147.94
20
-83.18
40
0.4
0
CIRCLE
8
Black
10
147.94
20
-85.72
40
0.4
0
CIRCLE
8
Black
10
147.94
20
-88.26
40
0.4
0
CIRCLE
8
Black
10
147.94
20
-90.8
40
0.4
0
CIRCLE
8
Black
10
147.94
20
-93.34
40
0.4
0
CIRCLE
8
Black
10
147.94
20
-95.88
40
0.4
0
CIRCLE
8
Black
10
147.94
20
-98.42
40
0.4
0
CIRCLE
8
Black
10
147.94
20
-100.96
40
0.4
0
CIRCLE
8
Black
10
147.94
20
-108.58
40
0.4
0
CIRCLE
8
Black
10
147.94
20
-111.12
40
0.4
0
CIRCLE
8
Black
10
147.94
20
-113.66
40
0.4
0
CIRCLE
8
Black
10
147.94
20
-116.2
40
0.4
0
CIRCLE
8
Black
10
147.94
20
-118.74
40
0.4
0
CIRCLE
8
Black
10
147.94
20
-121.28
40
0.4
0
CIRCLE
8
Black
10
147.94
20
-123.82
40
0.4
0
CIRCLE
8
Black
10
147.94
20
-126.36
40
0.4
0
CIRCLE
8
Black
10
147.94
20
-128.9
40
0.4
0
CIRCLE
8
Black
10
147.94
20
-131.44
40
0.4
0
CIRCLE
8
Black
10
147.94
20
-133.98
40
0.4
0
CIRCLE
8
Black
10
147.94
20
-136.52
40
0.4
0
CIRCLE
8
Black
10
147.94
20
-139.06
40
0.4
0
CIRCLE
8
Black
10
147.94
20
-141.6
40
0.4
0
CIRCLE
8
Black
10
149.036
20
-63.622
40
0.4
0
CIRCLE
8
Black
10
149.29
20
-104.77
40
0.4
0
CIRCLE
8
Black
10
154.036
20
-63.622
40
0.4
0
CIRCLE
8
Black
10
154.29
20
-104.77
40
0.4
0
CIRCLE
8
Black
10
155.56
20
-67.94
40
0.4
0
CIRCLE
8
Black
10
155.56
20
-70.48
40
0.4
0
CIRCLE
8
Black
10
155.56
20
-73.02
40
0.4
0
CIRCLE
8
Black
10
155.56
20
-75.56
40
0.4
0
CIRCLE
8
Black
10
155.56
20
-78.1
40
0.4
0
CIRCLE
8
Black
10
155.56
20
-80.64
40
0.4
0
CIRCLE
8
Black
10
155.56
20
-83.18
40
0.4
0
CIRCLE
8
Black
10
155.56
20
-85.72
40
0.4
0
CIRCLE
8
Black
10
155.56
20
-88.26
40
0.4
0
CIRCLE
8
Black
10
155.56
20
-90.8
40
0.4
0
CIRCLE
8
Black
10
155.56
20
-93.34
40
0.4
0
CIRCLE
8
Black
10
155.56
20
-95.88
40
0.4
0
CIRCLE
8
Black
10
155.56
20
-98.42
40
0.4
0
CIRCLE
8
Black
10
155.56
20
-100.96
40
0.4
0
CIRCLE
8
Black
10
155.56
20
-108.58
40
0.4
0
CIRCLE
8
Black
10
155.56
20
-111.12
40
0.4
0
CIRCLE
8
Black
10
155.56
20
-113.66
40
0.4
0
CIRCLE
8
Black
10
155.56
20
-116.2
40
0.4
0
CIRCLE
8
Black
10
155.56
20
-118.74
40
0.4
0
CIRCLE
8
Black
10
155.56
20
-121.28
40
0.4
0
CIRCLE
8
Black
10
155.56
20
-123.82
40
0.4
0
CIRCLE
8
Black
10
155.56
20
-126.36
40
0.4
0
CIRCLE
8
Black
10
155.56
20
-128.9
40
0.4
0
CIRCLE
8
Black
10
155.56
20
-131.44
40
0.4
0
CIRCLE
8
Black
10
155.56
20
-133.98
40
0.4
0
CIRCLE
8
Black
10
155.56
20
-136.52
40
0.4
0
CIRCLE
8
Black
10
155.56
20
-139.06
40
0.4
0
CIRCLE
8
Black
10
155.56
20
-141.6
40
0.4
0
CIRCLE
8
Black
10
159.624
20
-101.976
40
0.4
0
CIRCLE
8
Black
10
159.624
20
-104.516
40
0.4
0
CIRCLE
8
Black
10
159.624
20
-107.056
40
0.4
0
CIRCLE
8
Black
10
159.624
20
-109.596
40
0.4
0
CIRCLE
8
Black
10
160.894
20
-113.914
40
0.4
0
CIRCLE
8
Black
10
165.894
20
-113.914
40
0.4
0
CIRCLE
8
Black
10
167.244
20
-101.976
40
0.4
0
CIRCLE
8
Black
10
167.244
20
-104.516
40
0.4
0
CIRCLE
8
Black
10
167.244
20
-107.056
40
0.4
0
CIRCLE
8
Black
10
167.244
20
-109.596
40
0.4
0
CIRCLE
8
Black
10
169.276
20
-63.114
40
0.4
0
CIRCLE
8
Black
10
171.776
20
-63.114
40
0.4
0
LINE
8
Black
10
159.624
20
-66.4236
11
159.624
21
-67.4244
0
LINE
8
Black
10
159.124
20
-66.924
11
160.124
21
-66.924
0
LINE
8
Black
10
159.624
20
-76.5836
11
159.624
21
-77.5844
0
LINE
8
Black
10
159.124
20
-77.084
11
160.124
21
-77.084
0
LINE
8
Black
10
159.878
20
-120.526
11
159.878
21
-121.526
0
LINE
8
Black
10
159.378
20
-121.026
11
160.378
21
-121.026
0
LINE
8
Black
10
159.878
20
-130.686
11
159.878
21
-131.686
0
LINE
8
Black
10
159.378
20
-131.186
11
160.378
21
-131.186
0
LINE
8
Black
10
162.672
20
-66.4236
11
162.672
21
-67.4244
0
LINE
8
Black
10
162.172
20
-66.924
11
163.172
21
-66.924
0
LINE
8
Black
10
162.672
20
-76.5836
11
162.672
21
-77.5844
0
LINE
8
Black
10
162.172
20
-77.084
11
163.172
21
-77.084
0
LINE
8
Black
10
163.688
20
-120.526
11
163.688
21
-121.526
0
LINE
8
Black
10
163.188
20
-121.026
11
164.188
21
-121.026
0
LINE
8
Black
10
163.688
20
-130.686
11
163.688
21
-131.686
0
LINE
8
Black
10
163.188
20
-131.186
11
164.188
21
-131.186
0
LINE
8
Black
10
165.72
20
-66.4236
11
165.72
21
-67.4244
0
LINE
8
Black
10
165.22
20
-66.924
11
166.22
21
-66.924
0
LINE
8
Black
10
165.72
20
-76.5836
11
165.72
21
-77.5844
0
LINE
8
Black
10
165.22
20
-77.084
11
166.22
21
-77.084
0
LINE
8
Black
10
166.99
20
-86.7436
11
166.99
21
-87.7444
0
LINE
8
Black
10
166.49
20
-87.244
11
167.49
21
-87.244
0
LINE
8
Black
10
166.99
20
-96.9036
11
166.99
21
-97.9044
0
LINE
8
Black
10
166.49
20
-97.404
11
167.49
21
-97.404
0
LINE
8
Black
10
167.498
20
-120.526
11
167.498
21
-121.526
0
LINE
8
Black
10
166.998
20
-121.026
11
167.998
21
-121.026
0
LINE
8
Black
10
167.498
20
-130.686
11
167.498
21
-131.686
0
LINE
8
Black
10
166.998
20
-131.186
11
167.998
21
-131.186
0
LINE
8
Black
10
171.308
20
-120.526
11
171.308
21
-121.526
0
LINE
8
Black
10
170.808
20
-121.026
11
171.808
21
-121.026
0
LINE
8
Black
10
171.308
20
-130.686
11
171.308
21
-131.686
0
LINE
8
Black
10
170.808
20
-131.186
11
171.808
21
-131.186
0
LINE
8
Black
10
135.937
20
-74.3388
11
135.937
21
-73.6204
0
LINE
8
Black
10
135.937
20
-73.6204
11
135.218
21
-73.6204
0
LINE
8
Black
10
135.218
20
-73.6204
11
135.218
21
-74.3388
0
LINE
8
Black
10
135.218
20
-74.3388
11
135.937
21
-74.3388
0
LINE
8
Black
10
135.937
20
-77.1074
11
135.937
21
-76.389
0
LINE
8
Black
10
135.937
20
-76.389
11
135.218
21
-76.389
0
LINE
8
Black
10
135.218
20
-76.389
11
135.218
21
-77.1074
0
LINE
8
Black
10
135.218
20
-77.1074
11
135.937
21
-77.1074
0
LINE
8
Black
10
135.937
20
-79.876
11
135.937
21
-79.1576
0
LINE
8
Black
10
135.937
20
-79.1576
11
135.218
21
-79.1576
0
LINE
8
Black
10
135.218
20
-79.1576
11
135.218
21
-79.876
0
LINE
8
Black
10
135.218
20
-79.876
11
135.937
21
-79.876
0
LINE
8
Black
10
135.937
20
-82.6446
11
135.937
21
-81.9262
0
LINE
8
Black
10
135.937
20
-81.9262
11
135.218
21
-81.9262
0
LINE
8
Black
10
135.218
20
-81.9262
11
135.218
21
-82.6446
0
LINE
8
Black
10
135.218
20
-82.6446
11
135.937
21
-82.6446
0
LINE
8
Black
10
135.937
20
-85.4132
11
135.937
21
-84.6948
0
LINE
8
Black
10
135.937
20
-84.6948
11
135.218
21
-84.6948
0
LINE
8
Black
10
135.218
20
-84.6948
11
135.218
21
-85.4132
0
LINE
8
Black
10
135.218
20
-85.4132
11
135.937
21
-85.4132
0
LINE
8
Black
10
135.937
20
-88.1818
11
135.937
21
-87.4634
0
LINE
8
Black
10
135.937
20
-87.4634
11
135.218
21
-87.4634
0
LINE
8
Black
10
135.218
20
-87.4634
11
135.218
21
-88.1818
0
LINE
8
Black
10
135.218
20
-88.1818
11
135.937
21
-88.1818
0
LINE
8
Black
10
135.937
20
-90.9504
11
135.937
21
-90.232
0
LINE
8
Black
10
135.937
20
-90.232
11
135.218
21
-90.232
0
LINE
8
Black
10
135.218
20
-90.232
11
135.218
21
-90.9504
0
LINE
8
Black
10
135.218
20
-90.9504
11
135.937
21
-90.9504
0
LINE
8
Black
10
135.937
20
-93.719
11
135.937
21
-93.0006
0
LINE
8
Black
10
135.937
20
-93.0006
11
135.218
21
-93.0006
0
LINE
8
Black
10
135.218
20
-93.0006
11
135.218
21
-93.719
0
LINE
8
Black
10
135.218
20
-93.719
11
135.937
21
-93.719
0
LINE
8
Black
10
135.937
20
-96.4876
11
135.937
21
-95.7692
0
LINE
8
Black
10
135.937
20
-95.7692
11
135.218
21
-95.7692
0
LINE
8
Black
10
135.218
20
-95.7692
11
135.218
21
-96.4876
0
LINE
8
Black
10
135.218
20
-96.4876
11
135.937
21
-96.4876
0
LINE
8
Black
10
135.937
20
-99.2562
11
135.937
21
-98.5378
0
LINE
8
Black
10
135.937
20
-98.5378
11
135.218
21
-98.5378
0
LINE
8
Black
10
135.218
20
-98.5378
11
135.218
21
-99.2562
0
LINE
8
Black
10
135.218
20
-99.2562
11
135.937
21
-99.2562
0
LINE
8
Black
10
135.937
20
-102.025
11
135.937
21
-101.306
0
LINE
8
Black
10
135.937
20
-101.306
11
135.218
21
-101.306
0
LINE
8
Black
10
135.218
20
-101.306
11
135.218
21
-102.025
0
LINE
8
Black
10
135.218
20
-102.025
11
135.937
21
-102.025
0
LINE
8
Black
10
135.937
20
-104.793
11
135.937
21
-104.075
0
LINE
8
Black
10
135.937
20
-104.075
11
135.218
21
-104.075
0
LINE
8
Black
10
135.218
20
-104.075
11
135.218
21
-104.793
0
LINE
8
Black
10
135.218
20
-104.793
11
135.937
21
-104.793
0
LINE
8
Black
10
135.937
20
-107.562
11
135.937
21
-106.844
0
LINE
8
Black
10
135.937
20
-106.844
11
135.218
21
-106.844
0
LINE
8
Black
10
135.218
20
-106.844
11
135.218
21
-107.562
0
LINE
8
Black
10
135.218
20
-107.562
11
135.937
21
-107.562
0
LINE
8
Black
10
135.937
20
-110.331
11
135.937
21
-109.612
0
LINE
8
Black
10
135.937
20
-109.612
11
135.218
21
-109.612
0
LINE
8
Black
10
135.218
20
-109.612
11
135.218
21
-110.331
0
LINE
8
Black
10
135.218
20
-110.331
11
135.937
21
-110.331
0
LINE
8
Black
10
135.937
20
-113.099
11
135.937
21
-112.381
0
LINE
8
Black
10
135.937
20
-112.381
11
135.218
21
-112.381
0
LINE
8
Black
10
135.218
20
-112.381
11
135.218
21
-113.099
0
LINE
8
Black
10
135.218
20
-113.099
11
135.937
21
-113.099
0
LINE
8
Black
10
135.937
20
-115.868
11
135.937
21
-115.149
0
LINE
8
Black
10
135.937
20
-115.149
11
135.218
21
-115.149
0
LINE
8
Black
10
135.218
20
-115.149
11
135.218
21
-115.868
0
LINE
8
Black
10
135.218
20
-115.868
11
135.937
21
-115.868
0
LINE
8
Black
10
135.937
20
-118.636
11
135.937
21
-117.918
0
LINE
8
Black
10
135.937
20
-117.918
11
135.218
21
-117.918
0
LINE
8
Black
10
135.218
20
-117.918
11
135.218
21
-118.636
0
LINE
8
Black
10
135.218
20
-118.636
11
135.937
21
-118.636
0
LINE
8
Black
10
135.937
20
-121.405
11
135.937
21
-120.687
0
LINE
8
Black
10
135.937
20
-120.687
11
135.218
21
-120.687
0
LINE
8
Black
10
135.218
20
-120.687
11
135.218
21
-121.405
0
LINE
8
Black
10
135.218
20
-121.405
11
135.937
21
-121.405
0
LINE
8
Black
10
138.782
20
-72.9418
11
138.782
21
-72.2234
0
LINE
8
Black
10
138.782
20
-72.2234
11
138.063
21
-72.2234
0
LINE
8
Black
10
138.063
20
-72.2234
11
138.063
21
-72.9418
0
LINE
8
Black
10
138.063
20
-72.9418
11
138.782
21
-72.9418
0
LINE
8
Black
10
138.782
20
-75.7104
11
138.782
21
-74.992
0
LINE
8
Black
10
138.782
20
-74.992
11
138.063
21
-74.992
0
LINE
8
Black
10
138.063
20
-74.992
11
138.063
21
-75.7104
0
LINE
8
Black
10
138.063
20
-75.7104
11
138.782
21
-75.7104
0
LINE
8
Black
10
138.782
20
-78.479
11
138.782
21
-77.7606
0
LINE
8
Black
10
138.782
20
-77.7606
11
138.063
21
-77.7606
0
LINE
8
Black
10
138.063
20
-77.7606
11
138.063
21
-78.479
0
LINE
8
Black
10
138.063
20
-78.479
11
138.782
21
-78.479
0
LINE
8
Black
10
138.782
20
-81.2476
11
138.782
21
-80.5292
0
LINE
8
Black
10
138.782
20
-80.5292
11
138.063
21
-80.5292
0
LINE
8
Black
10
138.063
20
-80.5292
11
138.063
21
-81.2476
0
LINE
8
Black
10
138.063
20
-81.2476
11
138.782
21
-81.2476
0
LINE
8
Black
10
138.782
20
-84.0162
11
138.782
21
-83.2978
0
LINE
8
Black
10
138.782
20
-83.2978
11
138.063
21
-83.2978
0
LINE
8
Black
10
138.063
20
-83.2978
11
138.063
21
-84.0162
0
LINE
8
Black
10
138.063
20
-84.0162
11
138.782
21
-84.0162
0
LINE
8
Black
10
138.782
20
-86.7848
11
138.782
21
-86.0664
0
LINE
8
Black
10
138.782
20
-86.0664
11
138.063
21
-86.0664
0
LINE
8
Black
10
138.063
20
-86.0664
11
138.063
21
-86.7848
0
LINE
8
Black
10
138.063
20
-86.7848
11
138.782
21
-86.7848
0
LINE
8
Black
10
138.782
20
-89.5534
11
138.782
21
-88.835
0
LINE
8
Black
10
138.782
20
-88.835
11
138.063
21
-88.835
0
LINE
8
Black
10
138.063
20
-88.835
11
138.063
21
-89.5534
0
LINE
8
Black
10
138.063
20
-89.5534
11
138.782
21
-89.5534
0
LINE
8
Black
10
138.782
20
-92.322
11
138.782
21
-91.6036
0
LINE
8
Black
10
138.782
20
-91.6036
11
138.063
21
-91.6036
0
LINE
8
Black
10
138.063
20
-91.6036
11
138.063
21
-92.322
0
LINE
8
Black
10
138.063
20
-92.322
11
138.782
21
-92.322
0
LINE
8
Black
10
138.782
20
-95.0906
11
138.782
21
-94.3722
0
LINE
8
Black
10
138.782
20
-94.3722
11
138.063
21
-94.3722
0
LINE
8
Black
10
138.063
20
-94.3722
11
138.063
21
-95.0906
0
LINE
8
Black
10
138.063
20
-95.0906
11
138.782
21
-95.0906
0
LINE
8
Black
10
138.782
20
-97.8592
11
138.782
21
-97.1408
0
LINE
8
Black
10
138.782
20
-97.1408
11
138.063
21
-97.1408
0
LINE
8
Black
10
138.063
20
-97.1408
11
138.063
21
-97.8592
0
LINE
8
Black
10
138.063
20
-97.8592
11
138.782
21
-97.8592
0
LINE
8
Black
10
138.782
20
-100.628
11
138.782
21
-99.9094
0
LINE
8
Black
10
138.782
20
-99.9094
11
138.063
21
-99.9094
0
LINE
8
Black
10
138.063
20
-99.9094
11
138.063
21
-100.628
0
LINE
8
Black
10
138.063
20
-100.628
11
138.782
21
-100.628
0
LINE
8
Black
10
138.782
20
-103.396
11
138.782
21
-102.678
0
LINE
8
Black
10
138.782
20
-102.678
11
138.063
21
-102.678
0
LINE
8
Black
10
138.063
20
-102.678
11
138.063
21
-103.396
0
LINE
8
Black
10
138.063
20
-103.396
11
138.782
21
-103.396
0
LINE
8
Black
10
138.782
20
-106.165
11
138.782
21
-105.447
0
LINE
8
Black
10
138.782
20
-105.447
11
138.063
21
-105.447
0
LINE
8
Black
10
138.063
20
-105.447
11
138.063
21
-106.165
0
LINE
8
Black
10
138.063
20
-106.165
11
138.782
21
-106.165
0
LINE
8
Black
10
138.782
20
-108.934
11
138.782
21
-108.215
0
LINE
8
Black
10
138.782
20
-108.215
11
138.063
21
-108.215
0
LINE
8
Black
10
138.063
20
-108.215
11
138.063
21
-108.934
0
LINE
8
Black
10
138.063
20
-108.934
11
138.782
21
-108.934
0
LINE
8
Black
10
138.782
20
-111.702
11
138.782
21
-110.984
0
LINE
8
Black
10
138.782
20
-110.984
11
138.063
21
-110.984
0
LINE
8
Black
10
138.063
20
-110.984
11
138.063
21
-111.702
0
LINE
8
Black
10
138.063
20
-111.702
11
138.782
21
-111.702
0
LINE
8
Black
10
138.782
20
-114.471
11
138.782
21
-113.752
0
LINE
8
Black
10
138.782
20
-113.752
11
138.063
21
-113.752
0
LINE
8
Black
10
138.063
20
-113.752
11
138.063
21
-114.471
0
LINE
8
Black
10
138.063
20
-114.471
11
138.782
21
-114.471
0
LINE
8
Black
10
138.782
20
-117.239
11
138.782
21
-116.521
0
LINE
8
Black
10
138.782
20
-116.521
11
138.063
21
-116.521
0
LINE
8
Black
10
138.063
20
-116.521
11
138.063
21
-117.239
0
LINE
8
Black
10
138.063
20
-117.239
11
138.782
21
-117.239
0
LINE
8
Black
10
138.782
20
-120.008
11
138.782
21
-119.29
0
LINE
8
Black
10
138.782
20
-119.29
11
138.063
21
-119.29
0
LINE
8
Black
10
138.063
20
-119.29
11
138.063
21
-120.008
0
LINE
8
Black
10
138.063
20
-120.008
11
138.782
21
-120.008
0
LINE
8
Black
10
138.782
20
-122.777
11
138.782
21
-122.058
0
LINE
8
Black
10
138.782
20
-122.058
11
138.063
21
-122.058
0
LINE
8
Black
10
138.063
20
-122.058
11
138.063
21
-122.777
0
LINE
8
Black
10
138.063
20
-122.777
11
138.782
21
-122.777
0
LINE
8
Black
10
160.999
20
-138.149
11
160.999
21
-137.431
0
LINE
8
Black
10
160.999
20
-137.431
11
160.281
21
-137.431
0
LINE
8
Black
10
160.281
20
-137.431
11
160.281
21
-138.149
0
LINE
8
Black
10
160.281
20
-138.149
11
160.999
21
-138.149
0
LINE
8
Black
10
160.999
20
-140.689
11
160.999
21
-139.971
0
LINE
8
Black
10
160.999
20
-139.971
11
160.281
21
-139.971
0
LINE
8
Black
10
160.281
20
-139.971
11
160.281
21
-140.689
0
LINE
8
Black
10
160.281
20
-140.689
11
160.999
21
-140.689
0
LINE
8
Black
10
162.015
20
-92.4292
11
162.015
21
-91.7108
0
LINE
8
Black
10
162.015
20
-91.7108
11
161.297
21
-91.7108
0
LINE
8
Black
10
161.297
20
-91.7108
11
161.297
21
-92.4292
0
LINE
8
Black
10
161.297
20
-92.4292
11
162.015
21
-92.4292
0
LINE
8
Black
10
162.015
20
-94.9692
11
162.015
21
-94.2508
0
LINE
8
Black
10
162.015
20
-94.2508
11
161.297
21
-94.2508
0
LINE
8
Black
10
161.297
20
-94.2508
11
161.297
21
-94.9692
0
LINE
8
Black
10
161.297
20
-94.9692
11
162.015
21
-94.9692
0
LINE
8
Black
10
163.539
20
-138.149
11
163.539
21
-137.431
0
LINE
8
Black
10
163.539
20
-137.431
11
162.821
21
-137.431
0
LINE
8
Black
10
162.821
20
-137.431
11
162.821
21
-138.149
0
LINE
8
Black
10
162.821
20
-138.149
11
163.539
21
-138.149
0
LINE
8
Black
10
163.539
20
-140.689
11
163.539
21
-139.971
0
LINE
8
Black
10
163.539
20
-139.971
11
162.821
21
-139.971
0
LINE
8
Black
10
162.821
20
-139.971
11
162.821
21
-140.689
0
LINE
8
Black
10
162.821
20
-140.689
11
163.539
21
-140.689
0
LINE
8
Black
10
173.191
20
-99.2872
11
173.191
21
-98.5688
0
LINE
8
Black
10
173.191
20
-98.5688
11
172.473
21
-98.5688
0
LINE
8
Black
10
172.473
20
-98.5688
11
172.473
21
-99.2872
0
LINE
8
Black
10
172.473
20
-99.2872
11
173.191
21
-99.2872
0
LINE
8
Black
10
173.191
20
-101.827
11
173.191
21
-101.109
0
LINE
8
Black
10
173.191
20
-101.109
11
172.473
21
-101.109
0
LINE
8
Black
10
172.473
20
-101.109
11
172.473
21
-101.827
0
LINE
8
Black
10
172.473
20
-101.827
11
173.191
21
-101.827
0
LINE
8
Black
10
173.191
20
-104.367
11
173.191
21
-103.649
0
LINE
8
Black
10
173.191
20
-103.649
11
172.473
21
-103.649
0
LINE
8
Black
10
172.473
20
-103.649
11
172.473
21
-104.367
0
LINE
8
Black
10
172.473
20
-104.367
11
173.191
21
-104.367
0
LINE
8
Black
10
173.191
20
-106.907
11
173.191
21
-106.189
0
LINE
8
Black
10
173.191
20
-106.189
11
172.473
21
-106.189
0
LINE
8
Black
10
172.473
20
-106.189
11
172.473
21
-106.907
0
LINE
8
Black
10
172.473
20
-106.907
11
173.191
21
-106.907
0
LINE
8
Black
10
173.191
20
-114.019
11
173.191
21
-113.301
0
LINE
8
Black
10
173.191
20
-113.301
11
172.473
21
-113.301
0
LINE
8
Black
10
172.473
20
-113.301
11
172.473
21
-114.019
0
LINE
8
Black
10
172.473
20
-114.019
11
173.191
21
-114.019
0
LINE
8
Black
10
173.191
20
-116.559
11
173.191
21
-115.841
0
LINE
8
Black
10
173.191
20
-115.841
11
172.473
21
-115.841
0
LINE
8
Black
10
172.473
20
-115.841
11
172.473
21
-116.559
0
LINE
8
Black
10
172.473
20
-116.559
11
173.191
21
-116.559
0
LINE
8
Black
10
174.461
20
-69.3152
11
174.461
21
-68.5968
0
LINE
8
Black
10
174.461
20
-68.5968
11
173.743
21
-68.5968
0
LINE
8
Black
10
173.743
20
-68.5968
11
173.743
21
-69.3152
0
LINE
8
Black
10
173.743
20
-69.3152
11
174.461
21
-69.3152
0
LINE
8
Black
10
174.461
20
-71.8552
11
174.461
21
-71.1368
0
LINE
8
Black
10
174.461
20
-71.1368
11
173.743
21
-71.1368
0
LINE
8
Black
10
173.743
20
-71.1368
11
173.743
21
-71.8552
0
LINE
8
Black
10
173.743
20
-71.8552
11
174.461
21
-71.8552
0
LINE
8
Black
10
174.461
20
-74.3952
11
174.461
21
-73.6768
0
LINE
8
Black
10
174.461
20
-73.6768
11
173.743
21
-73.6768
0
LINE
8
Black
10
173.743
20
-73.6768
11
173.743
21
-74.3952
0
LINE
8
Black
10
173.743
20
-74.3952
11
174.461
21
-74.3952
0
LINE
8
Black
10
174.461
20
-76.9352
11
174.461
21
-76.2168
0
LINE
8
Black
10
174.461
20
-76.2168
11
173.743
21
-76.2168
0
LINE
8
Black
10
173.743
20
-76.2168
11
173.743
21
-76.9352
0
LINE
8
Black
10
173.743
20
-76.9352
11
174.461
21
-76.9352
0
LINE
8
Black
10
174.461
20
-79.4752
11
174.461
21
-78.7568
0
LINE
8
Black
10
174.461
20
-78.7568
11
173.743
21
-78.7568
0
LINE
8
Black
10
173.743
20
-78.7568
11
173.743
21
-79.4752
0
LINE
8
Black
10
173.743
20
-79.4752
11
174.461
21
-79.4752
0
LINE
8
Black
10
175.477
20
-122.909
11
175.477
21
-122.191
0
LINE
8
Black
10
175.477
20
-122.191
11
174.759
21
-122.191
0
LINE
8
Black
10
174.759
20
-122.191
11
174.759
21
-122.909
0
LINE
8
Black
10
174.759
20
-122.909
11
175.477
21
-122.909
0
LINE
8
Black
10
175.477
20
-125.449
11
175.477
21
-124.731
0
LINE
8
Black
10
175.477
20
-124.731
11
174.759
21
-124.731
0
LINE
8
Black
10
174.759
20
-124.731
11
174.759
21
-125.449
0
LINE
8
Black
10
174.759
20
-125.449
11
175.477
21
-125.449
0
LINE
8
Black
10
175.477
20
-127.989
11
175.477
21
-127.271
0
LINE
8
Black
10
175.477
20
-127.271
11
174.759
21
-127.271
0
LINE
8
Black
10
174.759
20
-127.271
11
174.759
21
-127.989
0
LINE
8
Black
10
174.759
20
-127.989
11
175.477
21
-127.989
0
LINE
8
Black
10
175.477
20
-130.529
11
175.477
21
-129.811
0
LINE
8
Black
10
175.477
20
-129.811
11
174.759
21
-129.811
0
LINE
8
Black
10
174.759
20
-129.811
11
174.759
21
-130.529
0
LINE
8
Black
10
174.759
20
-130.529
11
175.477
21
-130.529
0
LINE
8
Black
10
175.731
20
-99.2872
11
175.731
21
-98.5688
0
LINE
8
Black
10
175.731
20
-98.5688
11
175.013
21
-98.5688
0
LINE
8
Black
10
175.013
20
-98.5688
11
175.013
21
-99.2872
0
LINE
8
Black
10
175.013
20
-99.2872
11
175.731
21
-99.2872
0
LINE
8
Black
10
175.731
20
-101.827
11
175.731
21
-101.109
0
LINE
8
Black
10
175.731
20
-101.109
11
175.013
21
-101.109
0
LINE
8
Black
10
175.013
20
-101.109
11
175.013
21
-101.827
0
LINE
8
Black
10
175.013
20
-101.827
11
175.731
21
-101.827
0
LINE
8
Black
10
175.731
20
-104.367
11
175.731
21
-103.649
0
LINE
8
Black
10
175.731
20
-103.649
11
175.013
21
-103.649
0
LINE
8
Black
10
175.013
20
-103.649
11
175.013
21
-104.367
0
LINE
8
Black
10
175.013
20
-104.367
11
175.731
21
-104.367
0
LINE
8
Black
10
175.731
20
-106.907
11
175.731
21
-106.189
0
LINE
8
Black
10
175.731
20
-106.189
11
175.013
21
-106.189
0
LINE
8
Black
10
175.013
20
-106.189
11
175.013
21
-106.907
0
LINE
8
Black
10
175.013
20
-106.907
11
175.731
21
-106.907
0
LINE
8
Black
10
175.731
20
-114.019
11
175.731
21
-113.301
0
LINE
8
Black
10
175.731
20
-113.301
11
175.013
21
-113.301
0
LINE
8
Black
10
175.013
20
-113.301
11
175.013
21
-114.019
0
LINE
8
Black
10
175.013
20
-114.019
11
175.731
21
-114.019
0
LINE
8
Black
10
175.731
20
-116.559
11
175.731
21
-115.841
0
LINE
8
Black
10
175.731
20
-115.841
11
175.013
21
-115.841
0
LINE
8
Black
10
175.013
20
-115.841
11
175.013
21
-116.559
0
LINE
8
Black
10
175.013
20
-116.559
11
175.731
21
-116.559
0
LINE
8
Black
10
137
20
-67.147
11
138.524
21
-65.623
0
LINE
8
Black
10
138.524
20
-65.623
11
137
21
-64.099
0
LINE
8
Black
10
137
20
-64.099
11
135.476
21
-65.623
0
LINE
8
Black
10
135.476
20
-65.623
11
137
21
-67.147
0
LINE
8
Black
10
137
20
-130.647
11
138.524
21
-129.123
0
LINE
8
Black
10
138.524
20
-129.123
11
137
21
-127.599
0
LINE
8
Black
10
137
20
-127.599
11
135.476
21
-129.123
0
LINE
8
Black
10
135.476
20
-129.123
11
137
21
-130.647
0
LINE
8
Black
10
134.082
20
-54.0823
11
137.918
21
-57.9177
0
LINE
8
Black
10
137.918
20
-54.0823
11
134.082
21
-57.9177
0
CIRCLE
8
Black
10
136
20
-56
40
1.9177
0
LINE
8
Black
10
134.082
20
-137.082
11
137.918
21
-140.918
0
LINE
8
Black
10
137.918
20
-137.082
11
134.082
21
-140.918
0
CIRCLE
8
Black
10
136
20
-139
40
1.9177
0
LINE
8
Black
10
177.082
20
-54.0823
11
180.918
21
-57.9177
0
LINE
8
Black
10
180.918
20
-54.0823
11
177.082
21
-57.9177
0
CIRCLE
8
Black
10
179
20
-56
40
1.9177
0
LINE
8
Black
10
177.082
20
-137.082
11
180.918
21
-140.918
0
LINE
8
Black
10
180.918
20
-137.082
11
177.082
21
-140.918
0
CIRCLE
8
Black
10
179
20
-139
40
1.9177
0
LINE
8
Black
10
132.664
20
-149.707
11
132.664
21
-146.707
0
LINE
8
Black
10
132.664
20
-146.707
11
133.379
21
-146.707
0
LINE
8
Black
10
133.379
20
-146.707
11
133.807
21
-146.85
0
LINE
8
Black
10
133.807
20
-146.85
11
134.093
21
-147.136
0
LINE
8
Black
10
134.093
20
-147.136
11
134.236
21
-147.421
0
LINE
8
Black
10
134.236
20
-147.421
11
134.379
21
-147.993
0
LINE
8
Black
10
134.379
20
-147.993
11
134.379
21
-148.421
0
LINE
8
Black
10
134.379
20
-148.421
11
134.236
21
-148.993
0
LINE
8
Black
10
134.236
20
-148.993
11
134.093
21
-149.279
0
LINE
8
Black
10
134.093
20
-149.279
11
133.807
21
-149.564
0
LINE
8
Black
10
133.807
20
-149.564
11
133.379
21
-149.707
0
LINE
8
Black
10
133.379
20
-149.707
11
132.664
21
-149.707
0
LINE
8
Black
10
135.664
20
-149.707
11
135.664
21
-147.707
0
LINE
8
Black
10
135.664
20
-148.279
11
135.807
21
-147.993
0
LINE
8
Black
10
135.807
20
-147.993
11
135.95
21
-147.85
0
LINE
8
Black
10
135.95
20
-147.85
11
136.236
21
-147.707
0
LINE
8
Black
10
136.236
20
-147.707
11
136.521
21
-147.707
0
LINE
8
Black
10
137.521
20
-149.707
11
137.521
21
-147.707
0
LINE
8
Black
10
137.521
20
-146.707
11
137.379
21
-146.85
0
LINE
8
Black
10
137.379
20
-146.85
11
137.521
21
-146.993
0
LINE
8
Black
10
137.521
20
-146.993
11
137.664
21
-146.85
0
LINE
8
Black
10
137.664
20
-146.85
11
137.521
21
-146.707
0
LINE
8
Black
10
137.521
20
-146.707
11
137.521
21
-146.993
0
LINE
8
Black
10
139.379
20
-149.707
11
139.093
21
-149.564
0
LINE
8
Black
10
139.093
20
-149.564
11
138.95
21
-149.279
0
LINE
8
Black
10
138.95
20
-149.279
11
138.95
21
-146.707
0
LINE
8
Black
10
140.95
20
-149.707
11
140.664
21
-149.564
0
LINE
8
Black
10
140.664
20
-149.564
11
140.521
21
-149.279
0
LINE
8
Black
10
140.521
20
-149.279
11
140.521
21
-146.707
0
LINE
8
Black
10
144.379
20
-149.707
11
144.379
21
-146.707
0
LINE
8
Black
10
144.379
20
-146.707
11
145.379
21
-148.85
0
LINE
8
Black
10
145.379
20
-148.85
11
146.379
21
-146.707
0
LINE
8
Black
10
146.379
20
-146.707
11
146.379
21
-149.707
0
LINE
8
Black
10
149.093
20
-149.707
11
149.093
21
-148.136
0
LINE
8
Black
10
149.093
20
-148.136
11
148.95
21
-147.85
0
LINE
8
Black
10
148.95
20
-147.85
11
148.664
21
-147.707
0
LINE
8
Black
10
148.664
20
-147.707
11
148.093
21
-147.707
0
LINE
8
Black
10
148.093
20
-147.707
11
147.807
21
-147.85
0
LINE
8
Black
10
149.093
20
-149.564
11
148.807
21
-149.707
0
LINE
8
Black
10
148.807
20
-149.707
11
148.093
21
-149.707
0
LINE
8
Black
10
148.093
20
-149.707
11
147.807
21
-149.564
0
LINE
8
Black
10
147.807
20
-149.564
11
147.664
21
-149.279
0
LINE
8
Black
10
147.664
20
-149.279
11
147.664
21
-148.993
0
LINE
8
Black
10
147.664
20
-148.993
11
147.807
21
-148.707
0
LINE
8
Black
10
147.807
20
-148.707
11
148.093
21
-148.564
0
LINE
8
Black
10
148.093
20
-148.564
11
148.807
21
-148.564
0
LINE
8
Black
10
148.807
20
-148.564
11
149.093
21
-148.421
0
LINE
8
Black
10
150.521
20
-147.707
11
150.521
21
-150.707
0
LINE
8
Black
10
150.521
20
-147.85
11
150.807
21
-147.707
0
LINE
8
Black
10
150.807
20
-147.707
11
151.379
21
-147.707
0
LINE
8
Black
10
151.379
20
-147.707
11
151.664
21
-147.85
0
LINE
8
Black
10
151.664
20
-147.85
11
151.807
21
-147.993
0
LINE
8
Black
10
151.807
20
-147.993
11
151.95
21
-148.279
0
LINE
8
Black
10
151.95
20
-148.279
11
151.95
21
-149.136
0
LINE
8
Black
10
151.95
20
-149.136
11
151.807
21
-149.421
0
LINE
8
Black
10
151.807
20
-149.421
11
151.664
21
-149.564
0
LINE
8
Black
10
151.664
20
-149.564
11
151.379
21
-149.707
0
LINE
8
Black
10
151.379
20
-149.707
11
150.807
21
-149.707
0
LINE
8
Black
10
150.807
20
-149.707
11
150.521
21
-149.564
0
LINE
8
Black
10
153.236
20
-149.421
11
153.379
21
-149.564
0
LINE
8
Black
10
153.379
20
-149.564
11
153.236
21
-149.707
0
LINE
8
Black
10
153.236
20
-149.707
11
153.093
21
-149.564
0
LINE
8
Black
10
153.093
20
-149.564
11
153.236
21
-149.421
0
LINE
8
Black
10
153.236
20
-149.421
11
153.236
21
-149.707
0
LINE
8
Black
10
153.236
20
-147.85
11
153.379
21
-147.993
0
LINE
8
Black
10
153.379
20
-147.993
11
153.236
21
-148.136
0
LINE
8
Black
10
153.236
20
-148.136
11
153.093
21
-147.993
0
LINE
8
Black
10
153.093
20
-147.993
11
153.236
21
-147.85
0
LINE
8
Black
10
153.236
20
-147.85
11
153.236
21
-148.136
0
LINE
8
Black
10
129.315
20
-154.333
11
129.95
21
-154.968
0
LINE
8
Black
10
129.95
20
-154.333
11
129.315
21
-154.968
0
LINE
8
Black
10
133.236
20
-153.007
11
133.521
21
-153.007
0
LINE
8
Black
10
133.521
20
-153.007
11
133.807
21
-153.15
0
LINE
8
Black
10
133.807
20
-153.15
11
133.95
21
-153.293
0
LINE
8
Black
10
133.95
20
-153.293
11
134.093
21
-153.579
0
LINE
8
Black
10
134.093
20
-153.579
11
134.236
21
-154.15
0
LINE
8
Black
10
134.236
20
-154.15
11
134.236
21
-154.864
0
LINE
8
Black
10
134.236
20
-154.864
11
134.093
21
-155.436
0
LINE
8
Black
10
134.093
20
-155.436
11
133.95
21
-155.721
0
LINE
8
Black
10
133.95
20
-155.721
11
133.807
21
-155.864
0
LINE
8
Black
10
133.807
20
-155.864
11
133.521
21
-156.007
0
LINE
8
Black
10
133.521
20
-156.007
11
133.236
21
-156.007
0
LINE
8
Black
10
133.236
20
-156.007
11
132.95
21
-155.864
0
LINE
8
Black
10
132.95
20
-155.864
11
132.807
21
-155.721
0
LINE
8
Black
10
132.807
20
-155.721
11
132.664
21
-155.436
0
LINE
8
Black
10
132.664
20
-155.436
11
132.521
21
-154.864
0
LINE
8
Black
10
132.521
20
-154.864
11
132.521
21
-154.15
0
LINE
8
Black
10
132.521
20
-154.15
11
132.664
21
-153.579
0
LINE
8
Black
10
132.664
20
-153.579
11
132.807
21
-153.293
0
LINE
8
Black
10
132.807
20
-153.293
11
132.95
21
-153.15
0
LINE
8
Black
10
132.95
20
-153.15
11
133.236
21
-153.007
0
LINE
8
Black
10
135.521
20
-155.721
11
135.664
21
-155.864
0
LINE
8
Black
10
135.664
20
-155.864
11
135.521
21
-156.007
0
LINE
8
Black
10
135.521
20
-156.007
11
135.379
21
-155.864
0
LINE
8
Black
10
135.379
20
-155.864
11
135.521
21
-155.721
0
LINE
8
Black
10
135.521
20
-155.721
11
135.521
21
-156.007
0
LINE
8
Black
10
138.236
20
-153.007
11
137.664
21
-153.007
0
LINE
8
Black
10
137.664
20
-153.007
11
137.379
21
-153.15
0
LINE
8
Black
10
137.379
20
-153.15
11
137.236
21
-153.293
0
LINE
8
Black
10
137.236
20
-153.293
11
136.95
21
-153.721
0
LINE
8
Black
10
136.95
20
-153.721
11
136.807
21
-154.293
0
LINE
8
Black
10
136.807
20
-154.293
11
136.807
21
-155.436
0
LINE
8
Black
10
136.807
20
-155.436
11
136.95
21
-155.721
0
LINE
8
Black
10
136.95
20
-155.721
11
137.093
21
-155.864
0
LINE
8
Black
10
137.093
20
-155.864
11
137.379
21
-156.007
0
LINE
8
Black
10
137.379
20
-156.007
11
137.95
21
-156.007
0
LINE
8
Black
10
137.95
20
-156.007
11
138.236
21
-155.864
0
LINE
8
Black
10
138.236
20
-155.864
11
138.379
21
-155.721
0
LINE
8
Black
10
138.379
20
-155.721
11
138.521
21
-155.436
0
LINE
8
Black
10
138.521
20
-155.436
11
138.521
21
-154.721
0
LINE
8
Black
10
138.521
20
-154.721
11
138.379
21
-154.436
0
LINE
8
Black
10
138.379
20
-154.436
11
138.236
21
-154.293
0
LINE
8
Black
10
138.236
20
-154.293
11
137.95
21
-154.15
0
LINE
8
Black
10
137.95
20
-154.15
11
137.379
21
-154.15
0
LINE
8
Black
10
137.379
20
-154.15
11
137.093
21
-154.293
0
LINE
8
Black
10
137.093
20
-154.293
11
136.95
21
-154.436
0
LINE
8
Black
10
136.95
20
-154.436
11
136.807
21
-154.721
0
LINE
8
Black
10
141.093
20
-154.007
11
141.093
21
-156.007
0
LINE
8
Black
10
140.379
20
-152.864
11
139.664
21
-155.007
0
LINE
8
Black
10
139.664
20
-155.007
11
141.521
21
-155.007
0
LINE
8
Black
10
142.664
20
-156.007
11
142.664
21
-154.007
0
LINE
8
Black
10
142.664
20
-154.293
11
142.807
21
-154.15
0
LINE
8
Black
10
142.807
20
-154.15
11
143.093
21
-154.007
0
LINE
8
Black
10
143.093
20
-154.007
11
143.521
21
-154.007
0
LINE
8
Black
10
143.521
20
-154.007
11
143.807
21
-154.15
0
LINE
8
Black
10
143.807
20
-154.15
11
143.95
21
-154.436
0
LINE
8
Black
10
143.95
20
-154.436
11
143.95
21
-156.007
0
LINE
8
Black
10
143.95
20
-154.436
11
144.093
21
-154.15
0
LINE
8
Black
10
144.093
20
-154.15
11
144.379
21
-154.007
0
LINE
8
Black
10
144.379
20
-154.007
11
144.807
21
-154.007
0
LINE
8
Black
10
144.807
20
-154.007
11
145.093
21
-154.15
0
LINE
8
Black
10
145.093
20
-154.15
11
145.236
21
-154.436
0
LINE
8
Black
10
145.236
20
-154.436
11
145.236
21
-156.007
0
LINE
8
Black
10
146.664
20
-156.007
11
146.664
21
-154.007
0
LINE
8
Black
10
146.664
20
-154.293
11
146.807
21
-154.15
0
LINE
8
Black
10
146.807
20
-154.15
11
147.093
21
-154.007
0
LINE
8
Black
10
147.093
20
-154.007
11
147.521
21
-154.007
0
LINE
8
Black
10
147.521
20
-154.007
11
147.807
21
-154.15
0
LINE
8
Black
10
147.807
20
-154.15
11
147.95
21
-154.436
0
LINE
8
Black
10
147.95
20
-154.436
11
147.95
21
-156.007
0
LINE
8
Black
10
147.95
20
-154.436
11
148.093
21
-154.15
0
LINE
8
Black
10
148.093
20
-154.15
11
148.379
21
-154.007
0
LINE
8
Black
10
148.379
20
-154.007
11
148.807
21
-154.007
0
LINE
8
Black
10
148.807
20
-154.007
11
149.093
21
-154.15
0
LINE
8
Black
10
149.093
20
-154.15
11
149.236
21
-154.436
0
LINE
8
Black
10
149.236
20
-154.436
11
149.236
21
-156.007
0
LINE
8
Black
10
155.093
20
-152.864
11
152.521
21
-156.721
0
LINE
8
Black
10
158.95
20
-153.007
11
159.236
21
-153.007
0
LINE
8
Black
10
159.236
20
-153.007
11
159.521
21
-153.15
0
LINE
8
Black
10
159.521
20
-153.15
11
159.664
21
-153.293
0
LINE
8
Black
10
159.664
20
-153.293
11
159.807
21
-153.579
0
LINE
8
Black
10
159.807
20
-153.579
11
159.95
21
-154.15
0
LINE
8
Black
10
159.95
20
-154.15
11
159.95
21
-154.864
0
LINE
8
Black
10
159.95
20
-154.864
11
159.807
21
-155.436
0
LINE
8
Black
10
159.807
20
-155.436
11
159.664
21
-155.721
0
LINE
8
Black
10
159.664
20
-155.721
11
159.521
21
-155.864
0
LINE
8
Black
10
159.521
20
-155.864
11
159.236
21
-156.007
0
LINE
8
Black
10
159.236
20
-156.007
11
158.95
21
-156.007
0
LINE
8
Black
10
158.95
20
-156.007
11
158.664
21
-155.864
0
LINE
8
Black
10
158.664
20
-155.864
11
158.521
21
-155.721
0
LINE
8
Black
10
158.521
20
-155.721
11
158.379
21
-155.436
0
LINE
8
Black
10
158.379
20
-155.436
11
158.236
21
-154.864
0
LINE
8
Black
10
158.236
20
-154.864
11
158.236
21
-154.15
0
LINE
8
Black
10
158.236
20
-154.15
11
158.379
21
-153.579
0
LINE
8
Black
10
158.379
20
-153.579
11
158.521
21
-153.293
0
LINE
8
Black
10
158.521
20
-153.293
11
158.664
21
-153.15
0
LINE
8
Black
10
158.664
20
-153.15
11
158.95
21
-153.007
0
LINE
8
Black
10
161.236
20
-155.721
11
161.379
21
-155.864
0
LINE
8
Black
10
161.379
20
-155.864
11
161.236
21
-156.007
0
LINE
8
Black
10
161.236
20
-156.007
11
161.093
21
-155.864
0
LINE
8
Black
10
161.093
20
-155.864
11
161.236
21
-155.721
0
LINE
8
Black
10
161.236
20
-155.721
11
161.236
21
-156.007
0
LINE
8
Black
10
163.236
20
-153.007
11
163.521
21
-153.007
0
LINE
8
Black
10
163.521
20
-153.007
11
163.807
21
-153.15
0
LINE
8
Black
10
163.807
20
-153.15
11
163.95
21
-153.293
0
LINE
8
Black
10
163.95
20
-153.293
11
164.093
21
-153.579
0
LINE
8
Black
10
164.093
20
-153.579
11
164.236
21
-154.15
0
LINE
8
Black
10
164.236
20
-154.15
11
164.236
21
-154.864
0
LINE
8
Black
10
164.236
20
-154.864
11
164.093
21
-155.436
0
LINE
8
Black
10
164.093
20
-155.436
11
163.95
21
-155.721
0
LINE
8
Black
10
163.95
20
-155.721
11
163.807
21
-155.864
0
LINE
8
Black
10
163.807
20
-155.864
11
163.521
21
-156.007
0
LINE
8
Black
10
163.521
20
-156.007
11
163.236
21
-156.007
0
LINE
8
Black
10
163.236
20
-156.007
11
162.95
21
-155.864
0
LINE
8
Black
10
162.95
20
-155.864
11
162.807
21
-155.721
0
LINE
8
Black
10
162.807
20
-155.721
11
162.664
21
-155.436
0
LINE
8
Black
10
162.664
20
-155.436
11
162.521
21
-154.864
0
LINE
8
Black
10
162.521
20
-154.864
11
162.521
21
-154.15
0
LINE
8
Black
10
162.521
20
-154.15
11
162.664
21
-153.579
0
LINE
8
Black
10
162.664
20
-153.579
11
162.807
21
-153.293
0
LINE
8
Black
10
162.807
20
-153.293
11
162.95
21
-153.15
0
LINE
8
Black
10
162.95
20
-153.15
11
163.236
21
-153.007
0
LINE
8
Black
10
165.379
20
-153.293
11
165.521
21
-153.15
0
LINE
8
Black
10
165.521
20
-153.15
11
165.807
21
-153.007
0
LINE
8
Black
10
165.807
20
-153.007
11
166.521
21
-153.007
0
LINE
8
Black
10
166.521
20
-153.007
11
166.807
21
-153.15
0
LINE
8
Black
10
166.807
20
-153.15
11
166.95
21
-153.293
0
LINE
8
Black
10
166.95
20
-153.293
11
167.093
21
-153.579
0
LINE
8
Black
10
167.093
20
-153.579
11
167.093
21
-153.864
0
LINE
8
Black
10
167.093
20
-153.864
11
166.95
21
-154.293
0
LINE
8
Black
10
166.95
20
-154.293
11
165.236
21
-156.007
0
LINE
8
Black
10
165.236
20
-156.007
11
167.093
21
-156.007
0
LINE
8
Black
10
169.807
20
-153.007
11
168.379
21
-153.007
0
LINE
8
Black
10
168.379
20
-153.007
11
168.236
21
-154.436
0
LINE
8
Black
10
168.236
20
-154.436
11
168.379
21
-154.293
0
LINE
8
Black
10
168.379
20
-154.293
11
168.664
21
-154.15
0
LINE
8
Black
10
168.664
20
-154.15
11
169.379
21
-154.15
0
LINE
8
Black
10
169.379
20
-154.15
11
169.664
21
-154.293
0
LINE
8
Black
10
169.664
20
-154.293
11
169.807
21
-154.436
0
LINE
8
Black
10
169.807
20
-154.436
11
169.95
21
-154.721
0
LINE
8
Black
10
169.95
20
-154.721
11
169.95
21
-155.436
0
LINE
8
Black
10
169.95
20
-155.436
11
169.807
21
-155.721
0
LINE
8
Black
10
169.807
20
-155.721
11
169.664
21
-155.864
0
LINE
8
Black
10
169.664
20
-155.864
11
169.379
21
-156.007
0
LINE
8
Black
10
169.379
20
-156.007
11
168.664
21
-156.007
0
LINE
8
Black
10
168.664
20
-156.007
11
168.379
21
-155.864
0
LINE
8
Black
10
168.379
20
-155.864
11
168.236
21
-155.721
0
LINE
8
Black
10
171.093
20
-153.007
11
171.093
21
-153.579
0
LINE
8
Black
10
172.236
20
-153.007
11
172.236
21
-153.579
0
LINE
8
Black
10
176.664
20
-157.15
11
176.521
21
-157.007
0
LINE
8
Black
10
176.521
20
-157.007
11
176.236
21
-156.579
0
LINE
8
Black
10
176.236
20
-156.579
11
176.093
21
-156.293
0
LINE
8
Black
10
176.093
20
-156.293
11
175.95
21
-155.864
0
LINE
8
Black
10
175.95
20
-155.864
11
175.807
21
-155.15
0
LINE
8
Black
10
175.807
20
-155.15
11
175.807
21
-154.579
0
LINE
8
Black
10
175.807
20
-154.579
11
175.95
21
-153.864
0
LINE
8
Black
10
175.95
20
-153.864
11
176.093
21
-153.436
0
LINE
8
Black
10
176.093
20
-153.436
11
176.236
21
-153.15
0
LINE
8
Black
10
176.236
20
-153.15
11
176.521
21
-152.721
0
LINE
8
Black
10
176.521
20
-152.721
11
176.664
21
-152.579
0
LINE
8
Black
10
177.664
20
-153.293
11
177.807
21
-153.15
0
LINE
8
Black
10
177.807
20
-153.15
11
178.093
21
-153.007
0
LINE
8
Black
10
178.093
20
-153.007
11
178.807
21
-153.007
0
LINE
8
Black
10
178.807
20
-153.007
11
179.093
21
-153.15
0
LINE
8
Black
10
179.093
20
-153.15
11
179.236
21
-153.293
0
LINE
8
Black
10
179.236
20
-153.293
11
179.379
21
-153.579
0
LINE
8
Black
10
179.379
20
-153.579
11
179.379
21
-153.864
0
LINE
8
Black
10
179.379
20
-153.864
11
179.236
21
-154.293
0
LINE
8
Black
10
179.236
20
-154.293
11
177.521
21
-156.007
0
LINE
8
Black
10
177.521
20
-156.007
11
179.379
21
-156.007
0
LINE
8
Black
10
181.95
20
-154.007
11
181.95
21
-156.007
0
LINE
8
Black
10
181.236
20
-152.864
11
180.521
21
-155.007
0
LINE
8
Black
10
180.521
20
-155.007
11
182.379
21
-155.007
0
LINE
8
Black
10
185.807
20
-156.007
11
185.807
21
-153.007
0
LINE
8
Black
10
187.093
20
-156.007
11
187.093
21
-154.436
0
LINE
8
Black
10
187.093
20
-154.436
11
186.95
21
-154.15
0
LINE
8
Black
10
186.95
20
-154.15
11
186.664
21
-154.007
0
LINE
8
Black
10
186.664
20
-154.007
11
186.236
21
-154.007
0
LINE
8
Black
10
186.236
20
-154.007
11
185.95
21
-154.15
0
LINE
8
Black
10
185.95
20
-154.15
11
185.807
21
-154.293
0
LINE
8
Black
10
188.95
20
-156.007
11
188.664
21
-155.864
0
LINE
8
Black
10
188.664
20
-155.864
11
188.521
21
-155.721
0
LINE
8
Black
10
188.521
20
-155.721
11
188.379
21
-155.436
0
LINE
8
Black
10
188.379
20
-155.436
11
188.379
21
-154.579
0
LINE
8
Black
10
188.379
20
-154.579
11
188.521
21
-154.293
0
LINE
8
Black
10
188.521
20
-154.293
11
188.664
21
-154.15
0
LINE
8
Black
10
188.664
20
-154.15
11
188.95
21
-154.007
0
LINE
8
Black
10
188.95
20
-154.007
11
189.379
21
-154.007
0
LINE
8
Black
10
189.379
20
-154.007
11
189.664
21
-154.15
0
LINE
8
Black
10
189.664
20
-154.15
11
189.807
21
-154.293
0
LINE
8
Black
10
189.807
20
-154.293
11
189.95
21
-154.579
0
LINE
8
Black
10
189.95
20
-154.579
11
189.95
21
-155.436
0
LINE
8
Black
10
189.95
20
-155.436
11
189.807
21
-155.721
0
LINE
8
Black
10
189.807
20
-155.721
11
189.664
21
-155.864
0
LINE
8
Black
10
189.664
20
-155.864
11
189.379
21
-156.007
0
LINE
8
Black
10
189.379
20
-156.007
11
188.95
21
-156.007
0
LINE
8
Black
10
191.664
20
-156.007
11
191.379
21
-155.864
0
LINE
8
Black
10
191.379
20
-155.864
11
191.236
21
-155.579
0
LINE
8
Black
10
191.236
20
-155.579
11
191.236
21
-153.007
0
LINE
8
Black
10
193.95
20
-155.864
11
193.664
21
-156.007
0
LINE
8
Black
10
193.664
20
-156.007
11
193.093
21
-156.007
0
LINE
8
Black
10
193.093
20
-156.007
11
192.807
21
-155.864
0
LINE
8
Black
10
192.807
20
-155.864
11
192.664
21
-155.579
0
LINE
8
Black
10
192.664
20
-155.579
11
192.664
21
-154.436
0
LINE
8
Black
10
192.664
20
-154.436
11
192.807
21
-154.15
0
LINE
8
Black
10
192.807
20
-154.15
11
193.093
21
-154.007
0
LINE
8
Black
10
193.093
20
-154.007
11
193.664
21
-154.007
0
LINE
8
Black
10
193.664
20
-154.007
11
193.95
21
-154.15
0
LINE
8
Black
10
193.95
20
-154.15
11
194.093
21
-154.436
0
LINE
8
Black
10
194.093
20
-154.436
11
194.093
21
-154.721
0
LINE
8
Black
10
194.093
20
-154.721
11
192.664
21
-155.007
0
LINE
8
Black
10
195.236
20
-155.864
11
195.521
21
-156.007
0
LINE
8
Black
10
195.521
20
-156.007
11
196.093
21
-156.007
0
LINE
8
Black
10
196.093
20
-156.007
11
196.379
21
-155.864
0
LINE
8
Black
10
196.379
20
-155.864
11
196.521
21
-155.579
0
LINE
8
Black
10
196.521
20
-155.579
11
196.521
21
-155.436
0
LINE
8
Black
10
196.521
20
-155.436
11
196.379
21
-155.15
0
LINE
8
Black
10
196.379
20
-155.15
11
196.093
21
-155.007
0
LINE
8
Black
10
196.093
20
-155.007
11
195.664
21
-155.007
0
LINE
8
Black
10
195.664
20
-155.007
11
195.379
21
-154.864
0
LINE
8
Black
10
195.379
20
-154.864
11
195.236
21
-154.579
0
LINE
8
Black
10
195.236
20
-154.579
11
195.236
21
-154.436
0
LINE
8
Black
10
195.236
20
-154.436
11
195.379
21
-154.15
0
LINE
8
Black
10
195.379
20
-154.15
11
195.664
21
-154.007
0
LINE
8
Black
10
195.664
20
-154.007
11
196.093
21
-154.007
0
LINE
8
Black
10
196.093
20
-154.007
11
196.379
21
-154.15
0
LINE
8
Black
10
197.521
20
-157.15
11
197.664
21
-157.007
0
LINE
8
Black
10
197.664
20
-157.007
11
197.95
21
-156.579
0
LINE
8
Black
10
197.95
20
-156.579
11
198.093
21
-156.293
0
LINE
8
Black
10
198.093
20
-156.293
11
198.236
21
-155.864
0
LINE
8
Black
10
198.236
20
-155.864
11
198.379
21
-155.15
0
LINE
8
Black
10
198.379
20
-155.15
11
198.379
21
-154.579
0
LINE
8
Black
10
198.379
20
-154.579
11
198.236
21
-153.864
0
LINE
8
Black
10
198.236
20
-153.864
11
198.093
21
-153.436
0
LINE
8
Black
10
198.093
20
-153.436
11
197.95
21
-153.15
0
LINE
8
Black
10
197.95
20
-153.15
11
197.664
21
-152.721
0
LINE
8
Black
10
197.664
20
-152.721
11
197.521
21
-152.579
0
CIRCLE
8
Black
10
129.55
20
-158.61
40
0.4
0
LINE
8
Black
10
133.236
20
-156.967
11
133.521
21
-156.967
0
LINE
8
Black
10
133.521
20
-156.967
11
133.807
21
-157.11
0
LINE
8
Black
10
133.807
20
-157.11
11
133.95
21
-157.253
0
LINE
8
Black
10
133.95
20
-157.253
11
134.093
21
-157.539
0
LINE
8
Black
10
134.093
20
-157.539
11
134.236
21
-158.11
0
LINE
8
Black
10
134.236
20
-158.11
11
134.236
21
-158.824
0
LINE
8
Black
10
134.236
20
-158.824
11
134.093
21
-159.396
0
LINE
8
Black
10
134.093
20
-159.396
11
133.95
21
-159.681
0
LINE
8
Black
10
133.95
20
-159.681
11
133.807
21
-159.824
0
LINE
8
Black
10
133.807
20
-159.824
11
133.521
21
-159.967
0
LINE
8
Black
10
133.521
20
-159.967
11
133.236
21
-159.967
0
LINE
8
Black
10
133.236
20
-159.967
11
132.95
21
-159.824
0
LINE
8
Black
10
132.95
20
-159.824
11
132.807
21
-159.681
0
LINE
8
Black
10
132.807
20
-159.681
11
132.664
21
-159.396
0
LINE
8
Black
10
132.664
20
-159.396
11
132.521
21
-158.824
0
LINE
8
Black
10
132.521
20
-158.824
11
132.521
21
-158.11
0
LINE
8
Black
10
132.521
20
-158.11
11
132.664
21
-157.539
0
LINE
8
Black
10
132.664
20
-157.539
11
132.807
21
-157.253
0
LINE
8
Black
10
132.807
20
-157.253
11
132.95
21
-157.11
0
LINE
8
Black
10
132.95
20
-157.11
11
133.236
21
-156.967
0
LINE
8
Black
10
135.521
20
-159.681
11
135.664
21
-159.824
0
LINE
8
Black
10
135.664
20
-159.824
11
135.521
21
-159.967
0
LINE
8
Black
10
135.521
20
-159.967
11
135.379
21
-159.824
0
LINE
8
Black
10
135.379
20
-159.824
11
135.521
21
-159.681
0
LINE
8
Black
10
135.521
20
-159.681
11
135.521
21
-159.967
0
LINE
8
Black
10
137.379
20
-158.253
11
137.093
21
-158.11
0
LINE
8
Black
10
137.093
20
-158.11
11
136.95
21
-157.967
0
LINE
8
Black
10
136.95
20
-157.967
11
136.807
21
-157.681
0
LINE
8
Black
10
136.807
20
-157.681
11
136.807
21
-157.539
0
LINE
8
Black
10
136.807
20
-157.539
11
136.95
21
-157.253
0
LINE
8
Black
10
136.95
20
-157.253
11
137.093
21
-157.11
0
LINE
8
Black
10
137.093
20
-157.11
11
137.379
21
-156.967
0
LINE
8
Black
10
137.379
20
-156.967
11
137.95
21
-156.967
0
LINE
8
Black
10
137.95
20
-156.967
11
138.236
21
-157.11
0
LINE
8
Black
10
138.236
20
-157.11
11
138.379
21
-157.253
0
LINE
8
Black
10
138.379
20
-157.253
11
138.521
21
-157.539
0
LINE
8
Black
10
138.521
20
-157.539
11
138.521
21
-157.681
0
LINE
8
Black
10
138.521
20
-157.681
11
138.379
21
-157.967
0
LINE
8
Black
10
138.379
20
-157.967
11
138.236
21
-158.11
0
LINE
8
Black
10
138.236
20
-158.11
11
137.95
21
-158.253
0
LINE
8
Black
10
137.95
20
-158.253
11
137.379
21
-158.253
0
LINE
8
Black
10
137.379
20
-158.253
11
137.093
21
-158.396
0
LINE
8
Black
10
137.093
20
-158.396
11
136.95
21
-158.539
0
LINE
8
Black
10
136.95
20
-158.539
11
136.807
21
-158.824
0
LINE
8
Black
10
136.807
20
-158.824
11
136.807
21
-159.396
0
LINE
8
Black
10
136.807
20
-159.396
11
136.95
21
-159.681
0
LINE
8
Black
10
136.95
20
-159.681
11
137.093
21
-159.824
0
LINE
8
Black
10
137.093
20
-159.824
11
137.379
21
-159.967
0
LINE
8
Black
10
137.379
20
-159.967
11
137.95
21
-159.967
0
LINE
8
Black
10
137.95
20
-159.967
11
138.236
21
-159.824
0
LINE
8
Black
10
138.236
20
-159.824
11
138.379
21
-159.681
0
LINE
8
Black
10
138.379
20
-159.681
11
138.521
21
-159.396
0
LINE
8
Black
10
138.521
20
-159.396
11
138.521
21
-158.824
0
LINE
8
Black
10
138.521
20
-158.824
11
138.379
21
-158.539
0
LINE
8
Black
10
138.379
20
-158.539
11
138.236
21
-158.396
0
LINE
8
Black
10
138.236
20
-158.396
11
137.95
21
-158.253
0
LINE
8
Black
10
140.379
20
-156.967
11
140.664
21
-156.967
0
LINE
8
Black
10
140.664
20
-156.967
11
140.95
21
-157.11
0
LINE
8
Black
10
140.95
20
-157.11
11
141.093
21
-157.253
0
LINE
8
Black
10
141.093
20
-157.253
11
141.236
21
-157.539
0
LINE
8
Black
10
141.236
20
-157.539
11
141.379
21
-158.11
0
LINE
8
Black
10
141.379
20
-158.11
11
141.379
21
-158.824
0
LINE
8
Black
10
141.379
20
-158.824
11
141.236
21
-159.396
0
LINE
8
Black
10
141.236
20
-159.396
11
141.093
21
-159.681
0
LINE
8
Black
10
141.093
20
-159.681
11
140.95
21
-159.824
0
LINE
8
Black
10
140.95
20
-159.824
11
140.664
21
-159.967
0
LINE
8
Black
10
140.664
20
-159.967
11
140.379
21
-159.967
0
LINE
8
Black
10
140.379
20
-159.967
11
140.093
21
-159.824
0
LINE
8
Black
10
140.093
20
-159.824
11
139.95
21
-159.681
0
LINE
8
Black
10
139.95
20
-159.681
11
139.807
21
-159.396
0
LINE
8
Black
10
139.807
20
-159.396
11
139.664
21
-158.824
0
LINE
8
Black
10
139.664
20
-158.824
11
139.664
21
-158.11
0
LINE
8
Black
10
139.664
20
-158.11
11
139.807
21
-157.539
0
LINE
8
Black
10
139.807
20
-157.539
11
139.95
21
-157.253
0
LINE
8
Black
10
139.95
20
-157.253
11
140.093
21
-157.11
0
LINE
8
Black
10
140.093
20
-157.11
11
140.379
21
-156.967
0
LINE
8
Black
10
142.664
20
-159.967
11
142.664
21
-157.967
0
LINE
8
Black
10
142.664
20
-158.253
11
142.807
21
-158.11
0
LINE
8
Black
10
142.807
20
-158.11
11
143.093
21
-157.967
0
LINE
8
Black
10
143.093
20
-157.967
11
143.521
21
-157.967
0
LINE
8
Black
10
143.521
20
-157.967
11
143.807
21
-158.11
0
LINE
8
Black
10
143.807
20
-158.11
11
143.95
21
-158.396
0
LINE
8
Black
10
143.95
20
-158.396
11
143.95
21
-159.967
0
LINE
8
Black
10
143.95
20
-158.396
11
144.093
21
-158.11
0
LINE
8
Black
10
144.093
20
-158.11
11
144.379
21
-157.967
0
LINE
8
Black
10
144.379
20
-157.967
11
144.807
21
-157.967
0
LINE
8
Black
10
144.807
20
-157.967
11
145.093
21
-158.11
0
LINE
8
Black
10
145.093
20
-158.11
11
145.236
21
-158.396
0
LINE
8
Black
10
145.236
20
-158.396
11
145.236
21
-159.967
0
LINE
8
Black
10
146.664
20
-159.967
11
146.664
21
-157.967
0
LINE
8
Black
10
146.664
20
-158.253
11
146.807
21
-158.11
0
LINE
8
Black
10
146.807
20
-158.11
11
147.093
21
-157.967
0
LINE
8
Black
10
147.093
20
-157.967
11
147.521
21
-157.967
0
LINE
8
Black
10
147.521
20
-157.967
11
147.807
21
-158.11
0
LINE
8
Black
10
147.807
20
-158.11
11
147.95
21
-158.396
0
LINE
8
Black
10
147.95
20
-158.396
11
147.95
21
-159.967
0
LINE
8
Black
10
147.95
20
-158.396
11
148.093
21
-158.11
0
LINE
8
Black
10
148.093
20
-158.11
11
148.379
21
-157.967
0
LINE
8
Black
10
148.379
20
-157.967
11
148.807
21
-157.967
0
LINE
8
Black
10
148.807
20
-157.967
11
149.093
21
-158.11
0
LINE
8
Black
10
149.093
20
-158.11
11
149.236
21
-158.396
0
LINE
8
Black
10
149.236
20
-158.396
11
149.236
21
-159.967
0
LINE
8
Black
10
155.093
20
-156.824
11
152.521
21
-160.681
0
LINE
8
Black
10
158.95
20
-156.967
11
159.236
21
-156.967
0
LINE
8
Black
10
159.236
20
-156.967
11
159.521
21
-157.11
0
LINE
8
Black
10
159.521
20
-157.11
11
159.664
21
-157.253
0
LINE
8
Black
10
159.664
20
-157.253
11
159.807
21
-157.539
0
LINE
8
Black
10
159.807
20
-157.539
11
159.95
21
-158.11
0
LINE
8
Black
10
159.95
20
-158.11
11
159.95
21
-158.824
0
LINE
8
Black
10
159.95
20
-158.824
11
159.807
21
-159.396
0
LINE
8
Black
10
159.807
20
-159.396
11
159.664
21
-159.681
0
LINE
8
Black
10
159.664
20
-159.681
11
159.521
21
-159.824
0
LINE
8
Black
10
159.521
20
-159.824
11
159.236
21
-159.967
0
LINE
8
Black
10
159.236
20
-159.967
11
158.95
21
-159.967
0
LINE
8
Black
10
158.95
20
-159.967
11
158.664
21
-159.824
0
LINE
8
Black
10
158.664
20
-159.824
11
158.521
21
-159.681
0
LINE
8
Black
10
158.521
20
-159.681
11
158.379
21
-159.396
0
LINE
8
Black
10
158.379
20
-159.396
11
158.236
21
-158.824
0
LINE
8
Black
10
158.236
20
-158.824
11
158.236
21
-158.11
0
LINE
8
Black
10
158.236
20
-158.11
11
158.379
21
-157.539
0
LINE
8
Black
10
158.379
20
-157.539
11
158.521
21
-157.253
0
LINE
8
Black
10
158.521
20
-157.253
11
158.664
21
-157.11
0
LINE
8
Black
10
158.664
20
-157.11
11
158.95
21
-156.967
0
LINE
8
Black
10
161.236
20
-159.681
11
161.379
21
-159.824
0
LINE
8
Black
10
161.379
20
-159.824
11
161.236
21
-159.967
0
LINE
8
Black
10
161.236
20
-159.967
11
161.093
21
-159.824
0
LINE
8
Black
10
161.093
20
-159.824
11
161.236
21
-159.681
0
LINE
8
Black
10
161.236
20
-159.681
11
161.236
21
-159.967
0
LINE
8
Black
10
163.236
20
-156.967
11
163.521
21
-156.967
0
LINE
8
Black
10
163.521
20
-156.967
11
163.807
21
-157.11
0
LINE
8
Black
10
163.807
20
-157.11
11
163.95
21
-157.253
0
LINE
8
Black
10
163.95
20
-157.253
11
164.093
21
-157.539
0
LINE
8
Black
10
164.093
20
-157.539
11
164.236
21
-158.11
0
LINE
8
Black
10
164.236
20
-158.11
11
164.236
21
-158.824
0
LINE
8
Black
10
164.236
20
-158.824
11
164.093
21
-159.396
0
LINE
8
Black
10
164.093
20
-159.396
11
163.95
21
-159.681
0
LINE
8
Black
10
163.95
20
-159.681
11
163.807
21
-159.824
0
LINE
8
Black
10
163.807
20
-159.824
11
163.521
21
-159.967
0
LINE
8
Black
10
163.521
20
-159.967
11
163.236
21
-159.967
0
LINE
8
Black
10
163.236
20
-159.967
11
162.95
21
-159.824
0
LINE
8
Black
10
162.95
20
-159.824
11
162.807
21
-159.681
0
LINE
8
Black
10
162.807
20
-159.681
11
162.664
21
-159.396
0
LINE
8
Black
10
162.664
20
-159.396
11
162.521
21
-158.824
0
LINE
8
Black
10
162.521
20
-158.824
11
162.521
21
-158.11
0
LINE
8
Black
10
162.521
20
-158.11
11
162.664
21
-157.539
0
LINE
8
Black
10
162.664
20
-157.539
11
162.807
21
-157.253
0
LINE
8
Black
10
162.807
20
-157.253
11
162.95
21
-157.11
0
LINE
8
Black
10
162.95
20
-157.11
11
163.236
21
-156.967
0
LINE
8
Black
10
165.236
20
-156.967
11
167.093
21
-156.967
0
LINE
8
Black
10
167.093
20
-156.967
11
166.093
21
-158.11
0
LINE
8
Black
10
166.093
20
-158.11
11
166.521
21
-158.11
0
LINE
8
Black
10
166.521
20
-158.11
11
166.807
21
-158.253
0
LINE
8
Black
10
166.807
20
-158.253
11
166.95
21
-158.396
0
LINE
8
Black
10
166.95
20
-158.396
11
167.093
21
-158.681
0
LINE
8
Black
10
167.093
20
-158.681
11
167.093
21
-159.396
0
LINE
8
Black
10
167.093
20
-159.396
11
166.95
21
-159.681
0
LINE
8
Black
10
166.95
20
-159.681
11
166.807
21
-159.824
0
LINE
8
Black
10
166.807
20
-159.824
11
166.521
21
-159.967
0
LINE
8
Black
10
166.521
20
-159.967
11
165.664
21
-159.967
0
LINE
8
Black
10
165.664
20
-159.967
11
165.379
21
-159.824
0
LINE
8
Black
10
165.379
20
-159.824
11
165.236
21
-159.681
0
LINE
8
Black
10
169.95
20
-159.967
11
168.236
21
-159.967
0
LINE
8
Black
10
169.093
20
-159.967
11
169.093
21
-156.967
0
LINE
8
Black
10
169.093
20
-156.967
11
168.807
21
-157.396
0
LINE
8
Black
10
168.807
20
-157.396
11
168.521
21
-157.681
0
LINE
8
Black
10
168.521
20
-157.681
11
168.236
21
-157.824
0
LINE
8
Black
10
171.093
20
-156.967
11
171.093
21
-157.539
0
LINE
8
Black
10
172.236
20
-156.967
11
172.236
21
-157.539
0
LINE
8
Black
10
176.664
20
-161.11
11
176.521
21
-160.967
0
LINE
8
Black
10
176.521
20
-160.967
11
176.236
21
-160.539
0
LINE
8
Black
10
176.236
20
-160.539
11
176.093
21
-160.253
0
LINE
8
Black
10
176.093
20
-160.253
11
175.95
21
-159.824
0
LINE
8
Black
10
175.95
20
-159.824
11
175.807
21
-159.11
0
LINE
8
Black
10
175.807
20
-159.11
11
175.807
21
-158.539
0
LINE
8
Black
10
175.807
20
-158.539
11
175.95
21
-157.824
0
LINE
8
Black
10
175.95
20
-157.824
11
176.093
21
-157.396
0
LINE
8
Black
10
176.093
20
-157.396
11
176.236
21
-157.11
0
LINE
8
Black
10
176.236
20
-157.11
11
176.521
21
-156.681
0
LINE
8
Black
10
176.521
20
-156.681
11
176.664
21
-156.539
0
LINE
8
Black
10
177.521
20
-156.967
11
179.521
21
-156.967
0
LINE
8
Black
10
179.521
20
-156.967
11
178.236
21
-159.967
0
LINE
8
Black
10
180.521
20
-157.253
11
180.664
21
-157.11
0
LINE
8
Black
10
180.664
20
-157.11
11
180.95
21
-156.967
0
LINE
8
Black
10
180.95
20
-156.967
11
181.664
21
-156.967
0
LINE
8
Black
10
181.664
20
-156.967
11
181.95
21
-157.11
0
LINE
8
Black
10
181.95
20
-157.11
11
182.093
21
-157.253
0
LINE
8
Black
10
182.093
20
-157.253
11
182.236
21
-157.539
0
LINE
8
Black
10
182.236
20
-157.539
11
182.236
21
-157.824
0
LINE
8
Black
10
182.236
20
-157.824
11
182.093
21
-158.253
0
LINE
8
Black
10
182.093
20
-158.253
11
180.379
21
-159.967
0
LINE
8
Black
10
180.379
20
-159.967
11
182.236
21
-159.967
0
LINE
8
Black
10
185.807
20
-159.967
11
185.807
21
-156.967
0
LINE
8
Black
10
187.093
20
-159.967
11
187.093
21
-158.396
0
LINE
8
Black
10
187.093
20
-158.396
11
186.95
21
-158.11
0
LINE
8
Black
10
186.95
20
-158.11
11
186.664
21
-157.967
0
LINE
8
Black
10
186.664
20
-157.967
11
186.236
21
-157.967
0
LINE
8
Black
10
186.236
20
-157.967
11
185.95
21
-158.11
0
LINE
8
Black
10
185.95
20
-158.11
11
185.807
21
-158.253
0
LINE
8
Black
10
188.95
20
-159.967
11
188.664
21
-159.824
0
LINE
8
Black
10
188.664
20
-159.824
11
188.521
21
-159.681
0
LINE
8
Black
10
188.521
20
-159.681
11
188.379
21
-159.396
0
LINE
8
Black
10
188.379
20
-159.396
11
188.379
21
-158.539
0
LINE
8
Black
10
188.379
20
-158.539
11
188.521
21
-158.253
0
LINE
8
Black
10
188.521
20
-158.253
11
188.664
21
-158.11
0
LINE
8
Black
10
188.664
20
-158.11
11
188.95
21
-157.967
0
LINE
8
Black
10
188.95
20
-157.967
11
189.379
21
-157.967
0
LINE
8
Black
10
189.379
20
-157.967
11
189.664
21
-158.11
0
LINE
8
Black
10
189.664
20
-158.11
11
189.807
21
-158.253
0
LINE
8
Black
10
189.807
20
-158.253
11
189.95
21
-158.539
0
LINE
8
Black
10
189.95
20
-158.539
11
189.95
21
-159.396
0
LINE
8
Black
10
189.95
20
-159.396
11
189.807
21
-159.681
0
LINE
8
Black
10
189.807
20
-159.681
11
189.664
21
-159.824
0
LINE
8
Black
10
189.664
20
-159.824
11
189.379
21
-159.967
0
LINE
8
Black
10
189.379
20
-159.967
11
188.95
21
-159.967
0
LINE
8
Black
10
191.664
20
-159.967
11
191.379
21
-159.824
0
LINE
8
Black
10
191.379
20
-159.824
11
191.236
21
-159.539
0
LINE
8
Black
10
191.236
20
-159.539
11
191.236
21
-156.967
0
LINE
8
Black
10
193.95
20
-159.824
11
193.664
21
-159.967
0
LINE
8
Black
10
193.664
20
-159.967
11
193.093
21
-159.967
0
LINE
8
Black
10
193.093
20
-159.967
11
192.807
21
-159.824
0
LINE
8
Black
10
192.807
20
-159.824
11
192.664
21
-159.539
0
LINE
8
Black
10
192.664
20
-159.539
11
192.664
21
-158.396
0
LINE
8
Black
10
192.664
20
-158.396
11
192.807
21
-158.11
0
LINE
8
Black
10
192.807
20
-158.11
11
193.093
21
-157.967
0
LINE
8
Black
10
193.093
20
-157.967
11
193.664
21
-157.967
0
LINE
8
Black
10
193.664
20
-157.967
11
193.95
21
-158.11
0
LINE
8
Black
10
193.95
20
-158.11
11
194.093
21
-158.396
0
LINE
8
Black
10
194.093
20
-158.396
11
194.093
21
-158.681
0
LINE
8
Black
10
194.093
20
-158.681
11
192.664
21
-158.967
0
LINE
8
Black
10
195.236
20
-159.824
11
195.521
21
-159.967
0
LINE
8
Black
10
195.521
20
-159.967
11
196.093
21
-159.967
0
LINE
8
Black
10
196.093
20
-159.967
11
196.379
21
-159.824
0
LINE
8
Black
10
196.379
20
-159.824
11
196.521
21
-159.539
0
LINE
8
Black
10
196.521
20
-159.539
11
196.521
21
-159.396
0
LINE
8
Black
10
196.521
20
-159.396
11
196.379
21
-159.11
0
LINE
8
Black
10
196.379
20
-159.11
11
196.093
21
-158.967
0
LINE
8
Black
10
196.093
20
-158.967
11
195.664
21
-158.967
0
LINE
8
Black
10
195.664
20
-158.967
11
195.379
21
-158.824
0
LINE
8
Black
10
195.379
20
-158.824
11
195.236
21
-158.539
0
LINE
8
Black
10
195.236
20
-158.539
11
195.236
21
-158.396
0
LINE
8
Black
10
195.236
20
-158.396
11
195.379
21
-158.11
0
LINE
8
Black
10
195.379
20
-158.11
11
195.664
21
-157.967
0
LINE
8
Black
10
195.664
20
-157.967
11
196.093
21
-157.967
0
LINE
8
Black
10
196.093
20
-157.967
11
196.379
21
-158.11
0
LINE
8
Black
10
197.521
20
-161.11
11
197.664
21
-160.967
0
LINE
8
Black
10
197.664
20
-160.967
11
197.95
21
-160.539
0
LINE
8
Black
10
197.95
20
-160.539
11
198.093
21
-160.253
0
LINE
8
Black
10
198.093
20
-160.253
11
198.236
21
-159.824
0
LINE
8
Black
10
198.236
20
-159.824
11
198.379
21
-159.11
0
LINE
8
Black
10
198.379
20
-159.11
11
198.379
21
-158.539
0
LINE
8
Black
10
198.379
20
-158.539
11
198.236
21
-157.824
0
LINE
8
Black
10
198.236
20
-157.824
11
198.093
21
-157.396
0
LINE
8
Black
10
198.093
20
-157.396
11
197.95
21
-157.11
0
LINE
8
Black
10
197.95
20
-157.11
11
197.664
21
-156.681
0
LINE
8
Black
10
197.664
20
-156.681
11
197.521
21
-156.539
0
LINE
8
Black
10
129.45
20
-162.07
11
129.45
21
-163.07
0
LINE
8
Black
10
128.949
20
-162.57
11
129.95
21
-162.57
0
LINE
8
Black
10
134.236
20
-163.927
11
132.521
21
-163.927
0
LINE
8
Black
10
133.379
20
-163.927
11
133.379
21
-160.927
0
LINE
8
Black
10
133.379
20
-160.927
11
133.093
21
-161.356
0
LINE
8
Black
10
133.093
20
-161.356
11
132.807
21
-161.641
0
LINE
8
Black
10
132.807
20
-161.641
11
132.521
21
-161.784
0
LINE
8
Black
10
135.521
20
-163.641
11
135.664
21
-163.784
0
LINE
8
Black
10
135.664
20
-163.784
11
135.521
21
-163.927
0
LINE
8
Black
10
135.521
20
-163.927
11
135.379
21
-163.784
0
LINE
8
Black
10
135.379
20
-163.784
11
135.521
21
-163.641
0
LINE
8
Black
10
135.521
20
-163.641
11
135.521
21
-163.927
0
LINE
8
Black
10
137.521
20
-160.927
11
137.807
21
-160.927
0
LINE
8
Black
10
137.807
20
-160.927
11
138.093
21
-161.07
0
LINE
8
Black
10
138.093
20
-161.07
11
138.236
21
-161.213
0
LINE
8
Black
10
138.236
20
-161.213
11
138.379
21
-161.499
0
LINE
8
Black
10
138.379
20
-161.499
11
138.521
21
-162.07
0
LINE
8
Black
10
138.521
20
-162.07
11
138.521
21
-162.784
0
LINE
8
Black
10
138.521
20
-162.784
11
138.379
21
-163.356
0
LINE
8
Black
10
138.379
20
-163.356
11
138.236
21
-163.641
0
LINE
8
Black
10
138.236
20
-163.641
11
138.093
21
-163.784
0
LINE
8
Black
10
138.093
20
-163.784
11
137.807
21
-163.927
0
LINE
8
Black
10
137.807
20
-163.927
11
137.521
21
-163.927
0
LINE
8
Black
10
137.521
20
-163.927
11
137.236
21
-163.784
0
LINE
8
Black
10
137.236
20
-163.784
11
137.093
21
-163.641
0
LINE
8
Black
10
137.093
20
-163.641
11
136.95
21
-163.356
0
LINE
8
Black
10
136.95
20
-163.356
11
136.807
21
-162.784
0
LINE
8
Black
10
136.807
20
-162.784
11
136.807
21
-162.07
0
LINE
8
Black
10
136.807
20
-162.07
11
136.95
21
-161.499
0
LINE
8
Black
10
136.95
20
-161.499
11
137.093
21
-161.213
0
LINE
8
Black
10
137.093
20
-161.213
11
137.236
21
-161.07
0
LINE
8
Black
10
137.236
20
-161.07
11
137.521
21
-160.927
0
LINE
8
Black
10
140.379
20
-160.927
11
140.664
21
-160.927
0
LINE
8
Black
10
140.664
20
-160.927
11
140.95
21
-161.07
0
LINE
8
Black
10
140.95
20
-161.07
11
141.093
21
-161.213
0
LINE
8
Black
10
141.093
20
-161.213
11
141.236
21
-161.499
0
LINE
8
Black
10
141.236
20
-161.499
11
141.379
21
-162.07
0
LINE
8
Black
10
141.379
20
-162.07
11
141.379
21
-162.784
0
LINE
8
Black
10
141.379
20
-162.784
11
141.236
21
-163.356
0
LINE
8
Black
10
141.236
20
-163.356
11
141.093
21
-163.641
0
LINE
8
Black
10
141.093
20
-163.641
11
140.95
21
-163.784
0
LINE
8
Black
10
140.95
20
-163.784
11
140.664
21
-163.927
0
LINE
8
Black
10
140.664
20
-163.927
11
140.379
21
-163.927
0
LINE
8
Black
10
140.379
20
-163.927
11
140.093
21
-163.784
0
LINE
8
Black
10
140.093
20
-163.784
11
139.95
21
-163.641
0
LINE
8
Black
10
139.95
20
-163.641
11
139.807
21
-163.356
0
LINE
8
Black
10
139.807
20
-163.356
11
139.664
21
-162.784
0
LINE
8
Black
10
139.664
20
-162.784
11
139.664
21
-162.07
0
LINE
8
Black
10
139.664
20
-162.07
11
139.807
21
-161.499
0
LINE
8
Black
10
139.807
20
-161.499
11
139.95
21
-161.213
0
LINE
8
Black
10
139.95
20
-161.213
11
140.093
21
-161.07
0
LINE
8
Black
10
140.093
20
-161.07
11
140.379
21
-160.927
0
LINE
8
Black
10
142.664
20
-163.927
11
142.664
21
-161.927
0
LINE
8
Black
10
142.664
20
-162.213
11
142.807
21
-162.07
0
LINE
8
Black
10
142.807
20
-162.07
11
143.093
21
-161.927
0
LINE
8
Black
10
143.093
20
-161.927
11
143.521
21
-161.927
0
LINE
8
Black
10
143.521
20
-161.927
11
143.807
21
-162.07
0
LINE
8
Black
10
143.807
20
-162.07
11
143.95
21
-162.356
0
LINE
8
Black
10
143.95
20
-162.356
11
143.95
21
-163.927
0
LINE
8
Black
10
143.95
20
-162.356
11
144.093
21
-162.07
0
LINE
8
Black
10
144.093
20
-162.07
11
144.379
21
-161.927
0
LINE
8
Black
10
144.379
20
-161.927
11
144.807
21
-161.927
0
LINE
8
Black
10
144.807
20
-161.927
11
145.093
21
-162.07
0
LINE
8
Black
10
145.093
20
-162.07
11
145.236
21
-162.356
0
LINE
8
Black
10
145.236
20
-162.356
11
145.236
21
-163.927
0
LINE
8
Black
10
146.664
20
-163.927
11
146.664
21
-161.927
0
LINE
8
Black
10
146.664
20
-162.213
11
146.807
21
-162.07
0
LINE
8
Black
10
146.807
20
-162.07
11
147.093
21
-161.927
0
LINE
8
Black
10
147.093
20
-161.927
11
147.521
21
-161.927
0
LINE
8
Black
10
147.521
20
-161.927
11
147.807
21
-162.07
0
LINE
8
Black
10
147.807
20
-162.07
11
147.95
21
-162.356
0
LINE
8
Black
10
147.95
20
-162.356
11
147.95
21
-163.927
0
LINE
8
Black
10
147.95
20
-162.356
11
148.093
21
-162.07
0
LINE
8
Black
10
148.093
20
-162.07
11
148.379
21
-161.927
0
LINE
8
Black
10
148.379
20
-161.927
11
148.807
21
-161.927
0
LINE
8
Black
10
148.807
20
-161.927
11
149.093
21
-162.07
0
LINE
8
Black
10
149.093
20
-162.07
11
149.236
21
-162.356
0
LINE
8
Black
10
149.236
20
-162.356
11
149.236
21
-163.927
0
LINE
8
Black
10
155.093
20
-160.784
11
152.521
21
-164.641
0
LINE
8
Black
10
158.95
20
-160.927
11
159.236
21
-160.927
0
LINE
8
Black
10
159.236
20
-160.927
11
159.521
21
-161.07
0
LINE
8
Black
10
159.521
20
-161.07
11
159.664
21
-161.213
0
LINE
8
Black
10
159.664
20
-161.213
11
159.807
21
-161.499
0
LINE
8
Black
10
159.807
20
-161.499
11
159.95
21
-162.07
0
LINE
8
Black
10
159.95
20
-162.07
11
159.95
21
-162.784
0
LINE
8
Black
10
159.95
20
-162.784
11
159.807
21
-163.356
0
LINE
8
Black
10
159.807
20
-163.356
11
159.664
21
-163.641
0
LINE
8
Black
10
159.664
20
-163.641
11
159.521
21
-163.784
0
LINE
8
Black
10
159.521
20
-163.784
11
159.236
21
-163.927
0
LINE
8
Black
10
159.236
20
-163.927
11
158.95
21
-163.927
0
LINE
8
Black
10
158.95
20
-163.927
11
158.664
21
-163.784
0
LINE
8
Black
10
158.664
20
-163.784
11
158.521
21
-163.641
0
LINE
8
Black
10
158.521
20
-163.641
11
158.379
21
-163.356
0
LINE
8
Black
10
158.379
20
-163.356
11
158.236
21
-162.784
0
LINE
8
Black
10
158.236
20
-162.784
11
158.236
21
-162.07
0
LINE
8
Black
10
158.236
20
-162.07
11
158.379
21
-161.499
0
LINE
8
Black
10
158.379
20
-161.499
11
158.521
21
-161.213
0
LINE
8
Black
10
158.521
20
-161.213
11
158.664
21
-161.07
0
LINE
8
Black
10
158.664
20
-161.07
11
158.95
21
-160.927
0
LINE
8
Black
10
161.236
20
-163.641
11
161.379
21
-163.784
0
LINE
8
Black
10
161.379
20
-163.784
11
161.236
21
-163.927
0
LINE
8
Black
10
161.236
20
-163.927
11
161.093
21
-163.784
0
LINE
8
Black
10
161.093
20
-163.784
11
161.236
21
-163.641
0
LINE
8
Black
10
161.236
20
-163.641
11
161.236
21
-163.927
0
LINE
8
Black
10
163.236
20
-160.927
11
163.521
21
-160.927
0
LINE
8
Black
10
163.521
20
-160.927
11
163.807
21
-161.07
0
LINE
8
Black
10
163.807
20
-161.07
11
163.95
21
-161.213
0
LINE
8
Black
10
163.95
20
-161.213
11
164.093
21
-161.499
0
LINE
8
Black
10
164.093
20
-161.499
11
164.236
21
-162.07
0
LINE
8
Black
10
164.236
20
-162.07
11
164.236
21
-162.784
0
LINE
8
Black
10
164.236
20
-162.784
11
164.093
21
-163.356
0
LINE
8
Black
10
164.093
20
-163.356
11
163.95
21
-163.641
0
LINE
8
Black
10
163.95
20
-163.641
11
163.807
21
-163.784
0
LINE
8
Black
10
163.807
20
-163.784
11
163.521
21
-163.927
0
LINE
8
Black
10
163.521
20
-163.927
11
163.236
21
-163.927
0
LINE
8
Black
10
163.236
20
-163.927
11
162.95
21
-163.784
0
LINE
8
Black
10
162.95
20
-163.784
11
162.807
21
-163.641
0
LINE
8
Black
10
162.807
20
-163.641
11
162.664
21
-163.356
0
LINE
8
Black
10
162.664
20
-163.356
11
162.521
21
-162.784
0
LINE
8
Black
10
162.521
20
-162.784
11
162.521
21
-162.07
0
LINE
8
Black
10
162.521
20
-162.07
11
162.664
21
-161.499
0
LINE
8
Black
10
162.664
20
-161.499
11
162.807
21
-161.213
0
LINE
8
Black
10
162.807
20
-161.213
11
162.95
21
-161.07
0
LINE
8
Black
10
162.95
20
-161.07
11
163.236
21
-160.927
0
LINE
8
Black
10
165.236
20
-160.927
11
167.093
21
-160.927
0
LINE
8
Black
10
167.093
20
-160.927
11
166.093
21
-162.07
0
LINE
8
Black
10
166.093
20
-162.07
11
166.521
21
-162.07
0
LINE
8
Black
10
166.521
20
-162.07
11
166.807
21
-162.213
0
LINE
8
Black
10
166.807
20
-162.213
11
166.95
21
-162.356
0
LINE
8
Black
10
166.95
20
-162.356
11
167.093
21
-162.641
0
LINE
8
Black
10
167.093
20
-162.641
11
167.093
21
-163.356
0
LINE
8
Black
10
167.093
20
-163.356
11
166.95
21
-163.641
0
LINE
8
Black
10
166.95
20
-163.641
11
166.807
21
-163.784
0
LINE
8
Black
10
166.807
20
-163.784
11
166.521
21
-163.927
0
LINE
8
Black
10
166.521
20
-163.927
11
165.664
21
-163.927
0
LINE
8
Black
10
165.664
20
-163.927
11
165.379
21
-163.784
0
LINE
8
Black
10
165.379
20
-163.784
11
165.236
21
-163.641
0
LINE
8
Black
10
168.521
20
-163.927
11
169.093
21
-163.927
0
LINE
8
Black
10
169.093
20
-163.927
11
169.379
21
-163.784
0
LINE
8
Black
10
169.379
20
-163.784
11
169.521
21
-163.641
0
LINE
8
Black
10
169.521
20
-163.641
11
169.807
21
-163.213
0
LINE
8
Black
10
169.807
20
-163.213
11
169.95
21
-162.641
0
LINE
8
Black
10
169.95
20
-162.641
11
169.95
21
-161.499
0
LINE
8
Black
10
169.95
20
-161.499
11
169.807
21
-161.213
0
LINE
8
Black
10
169.807
20
-161.213
11
169.664
21
-161.07
0
LINE
8
Black
10
169.664
20
-161.07
11
169.379
21
-160.927
0
LINE
8
Black
10
169.379
20
-160.927
11
168.807
21
-160.927
0
LINE
8
Black
10
168.807
20
-160.927
11
168.521
21
-161.07
0
LINE
8
Black
10
168.521
20
-161.07
11
168.379
21
-161.213
0
LINE
8
Black
10
168.379
20
-161.213
11
168.236
21
-161.499
0
LINE
8
Black
10
168.236
20
-161.499
11
168.236
21
-162.213
0
LINE
8
Black
10
168.236
20
-162.213
11
168.379
21
-162.499
0
LINE
8
Black
10
168.379
20
-162.499
11
168.521
21
-162.641
0
LINE
8
Black
10
168.521
20
-162.641
11
168.807
21
-162.784
0
LINE
8
Black
10
168.807
20
-162.784
11
169.379
21
-162.784
0
LINE
8
Black
10
169.379
20
-162.784
11
169.664
21
-162.641
0
LINE
8
Black
10
169.664
20
-162.641
11
169.807
21
-162.499
0
LINE
8
Black
10
169.807
20
-162.499
11
169.95
21
-162.213
0
LINE
8
Black
10
171.093
20
-160.927
11
171.093
21
-161.499
0
LINE
8
Black
10
172.236
20
-160.927
11
172.236
21
-161.499
0
LINE
8
Black
10
176.664
20
-165.07
11
176.521
21
-164.927
0
LINE
8
Black
10
176.521
20
-164.927
11
176.236
21
-164.499
0
LINE
8
Black
10
176.236
20
-164.499
11
176.093
21
-164.213
0
LINE
8
Black
10
176.093
20
-164.213
11
175.95
21
-163.784
0
LINE
8
Black
10
175.95
20
-163.784
11
175.807
21
-163.07
0
LINE
8
Black
10
175.807
20
-163.07
11
175.807
21
-162.499
0
LINE
8
Black
10
175.807
20
-162.499
11
175.95
21
-161.784
0
LINE
8
Black
10
175.95
20
-161.784
11
176.093
21
-161.356
0
LINE
8
Black
10
176.093
20
-161.356
11
176.236
21
-161.07
0
LINE
8
Black
10
176.236
20
-161.07
11
176.521
21
-160.641
0
LINE
8
Black
10
176.521
20
-160.641
11
176.664
21
-160.499
0
LINE
8
Black
10
179.379
20
-163.927
11
177.664
21
-163.927
0
LINE
8
Black
10
178.521
20
-163.927
11
178.521
21
-160.927
0
LINE
8
Black
10
178.521
20
-160.927
11
178.236
21
-161.356
0
LINE
8
Black
10
178.236
20
-161.356
11
177.95
21
-161.641
0
LINE
8
Black
10
177.95
20
-161.641
11
177.664
21
-161.784
0
LINE
8
Black
10
181.95
20
-160.927
11
181.379
21
-160.927
0
LINE
8
Black
10
181.379
20
-160.927
11
181.093
21
-161.07
0
LINE
8
Black
10
181.093
20
-161.07
11
180.95
21
-161.213
0
LINE
8
Black
10
180.95
20
-161.213
11
180.664
21
-161.641
0
LINE
8
Black
10
180.664
20
-161.641
11
180.521
21
-162.213
0
LINE
8
Black
10
180.521
20
-162.213
11
180.521
21
-163.356
0
LINE
8
Black
10
180.521
20
-163.356
11
180.664
21
-163.641
0
LINE
8
Black
10
180.664
20
-163.641
11
180.807
21
-163.784
0
LINE
8
Black
10
180.807
20
-163.784
11
181.093
21
-163.927
0
LINE
8
Black
10
181.093
20
-163.927
11
181.664
21
-163.927
0
LINE
8
Black
10
181.664
20
-163.927
11
181.95
21
-163.784
0
LINE
8
Black
10
181.95
20
-163.784
11
182.093
21
-163.641
0
LINE
8
Black
10
182.093
20
-163.641
11
182.236
21
-163.356
0
LINE
8
Black
10
182.236
20
-163.356
11
182.236
21
-162.641
0
LINE
8
Black
10
182.236
20
-162.641
11
182.093
21
-162.356
0
LINE
8
Black
10
182.093
20
-162.356
11
181.95
21
-162.213
0
LINE
8
Black
10
181.95
20
-162.213
11
181.664
21
-162.07
0
LINE
8
Black
10
181.664
20
-162.07
11
181.093
21
-162.07
0
LINE
8
Black
10
181.093
20
-162.07
11
180.807
21
-162.213
0
LINE
8
Black
10
180.807
20
-162.213
11
180.664
21
-162.356
0
LINE
8
Black
10
180.664
20
-162.356
11
180.521
21
-162.641
0
LINE
8
Black
10
185.807
20
-163.927
11
185.807
21
-160.927
0
LINE
8
Black
10
187.093
20
-163.927
11
187.093
21
-162.356
0
LINE
8
Black
10
187.093
20
-162.356
11
186.95
21
-162.07
0
LINE
8
Black
10
186.95
20
-162.07
11
186.664
21
-161.927
0
LINE
8
Black
10
186.664
20
-161.927
11
186.236
21
-161.927
0
LINE
8
Black
10
186.236
20
-161.927
11
185.95
21
-162.07
0
LINE
8
Black
10
185.95
20
-162.07
11
185.807
21
-162.213
0
LINE
8
Black
10
188.95
20
-163.927
11
188.664
21
-163.784
0
LINE
8
Black
10
188.664
20
-163.784
11
188.521
21
-163.641
0
LINE
8
Black
10
188.521
20
-163.641
11
188.379
21
-163.356
0
LINE
8
Black
10
188.379
20
-163.356
11
188.379
21
-162.499
0
LINE
8
Black
10
188.379
20
-162.499
11
188.521
21
-162.213
0
LINE
8
Black
10
188.521
20
-162.213
11
188.664
21
-162.07
0
LINE
8
Black
10
188.664
20
-162.07
11
188.95
21
-161.927
0
LINE
8
Black
10
188.95
20
-161.927
11
189.379
21
-161.927
0
LINE
8
Black
10
189.379
20
-161.927
11
189.664
21
-162.07
0
LINE
8
Black
10
189.664
20
-162.07
11
189.807
21
-162.213
0
LINE
8
Black
10
189.807
20
-162.213
11
189.95
21
-162.499
0
LINE
8
Black
10
189.95
20
-162.499
11
189.95
21
-163.356
0
LINE
8
Black
10
189.95
20
-163.356
11
189.807
21
-163.641
0
LINE
8
Black
10
189.807
20
-163.641
11
189.664
21
-163.784
0
LINE
8
Black
10
189.664
20
-163.784
11
189.379
21
-163.927
0
LINE
8
Black
10
189.379
20
-163.927
11
188.95
21
-163.927
0
LINE
8
Black
10
191.664
20
-163.927
11
191.379
21
-163.784
0
LINE
8
Black
10
191.379
20
-163.784
11
191.236
21
-163.499
0
LINE
8
Black
10
191.236
20
-163.499
11
191.236
21
-160.927
0
LINE
8
Black
10
193.95
20
-163.784
11
193.664
21
-163.927
0
LINE
8
Black
10
193.664
20
-163.927
11
193.093
21
-163.927
0
LINE
8
Black
10
193.093
20
-163.927
11
192.807
21
-163.784
0
LINE
8
Black
10
192.807
20
-163.784
11
192.664
21
-163.499
0
LINE
8
Black
10
192.664
20
-163.499
11
192.664
21
-162.356
0
LINE
8
Black
10
192.664
20
-162.356
11
192.807
21
-162.07
0
LINE
8
Black
10
192.807
20
-162.07
11
193.093
21
-161.927
0
LINE
8
Black
10
193.093
20
-161.927
11
193.664
21
-161.927
0
LINE
8
Black
10
193.664
20
-161.927
11
193.95
21
-162.07
0
LINE
8
Black
10
193.95
20
-162.07
11
194.093
21
-162.356
0
LINE
8
Black
10
194.093
20
-162.356
11
194.093
21
-162.641
0
LINE
8
Black
10
194.093
20
-162.641
11
192.664
21
-162.927
0
LINE
8
Black
10
195.236
20
-163.784
11
195.521
21
-163.927
0
LINE
8
Black
10
195.521
20
-163.927
11
196.093
21
-163.927
0
LINE
8
Black
10
196.093
20
-163.927
11
196.379
21
-163.784
0
LINE
8
Black
10
196.379
20
-163.784
11
196.521
21
-163.499
0
LINE
8
Black
10
196.521
20
-163.499
11
196.521
21
-163.356
0
LINE
8
Black
10
196.521
20
-163.356
11
196.379
21
-163.07
0
LINE
8
Black
10
196.379
20
-163.07
11
196.093
21
-162.927
0
LINE
8
Black
10
196.093
20
-162.927
11
195.664
21
-162.927
0
LINE
8
Black
10
195.664
20
-162.927
11
195.379
21
-162.784
0
LINE
8
Black
10
195.379
20
-162.784
11
195.236
21
-162.499
0
LINE
8
Black
10
195.236
20
-162.499
11
195.236
21
-162.356
0
LINE
8
Black
10
195.236
20
-162.356
11
195.379
21
-162.07
0
LINE
8
Black
10
195.379
20
-162.07
11
195.664
21
-161.927
0
LINE
8
Black
10
195.664
20
-161.927
11
196.093
21
-161.927
0
LINE
8
Black
10
196.093
20
-161.927
11
196.379
21
-162.07
0
LINE
8
Black
10
197.521
20
-165.07
11
197.664
21
-164.927
0
LINE
8
Black
10
197.664
20
-164.927
11
197.95
21
-164.499
0
LINE
8
Black
10
197.95
20
-164.499
11
198.093
21
-164.213
0
LINE
8
Black
10
198.093
20
-164.213
11
198.236
21
-163.784
0
LINE
8
Black
10
198.236
20
-163.784
11
198.379
21
-163.07
0
LINE
8
Black
10
198.379
20
-163.07
11
198.379
21
-162.499
0
LINE
8
Black
10
198.379
20
-162.499
11
198.236
21
-161.784
0
LINE
8
Black
10
198.236
20
-161.784
11
198.093
21
-161.356
0
LINE
8
Black
10
198.093
20
-161.356
11
197.95
21
-161.07
0
LINE
8
Black
10
197.95
20
-161.07
11
197.664
21
-160.641
0
LINE
8
Black
10
197.664
20
-160.641
11
197.521
21
-160.499
0
LINE
8
Black
10
129.801
20
-166.889
11
129.801
21
-166.171
0
LINE
8
Black
10
129.801
20
-166.171
11
129.083
21
-166.171
0
LINE
8
Black
10
129.083
20
-166.171
11
129.083
21
-166.889
0
LINE
8
Black
10
129.083
20
-166.889
11
129.801
21
-166.889
0
LINE
8
Black
10
134.236
20
-167.887
11
132.521
21
-167.887
0
LINE
8
Black
10
133.379
20
-167.887
11
133.379
21
-164.887
0
LINE
8
Black
10
133.379
20
-164.887
11
133.093
21
-165.316
0
LINE
8
Black
10
133.093
20
-165.316
11
132.807
21
-165.601
0
LINE
8
Black
10
132.807
20
-165.601
11
132.521
21
-165.744
0
LINE
8
Black
10
135.521
20
-167.601
11
135.664
21
-167.744
0
LINE
8
Black
10
135.664
20
-167.744
11
135.521
21
-167.887
0
LINE
8
Black
10
135.521
20
-167.887
11
135.379
21
-167.744
0
LINE
8
Black
10
135.379
20
-167.744
11
135.521
21
-167.601
0
LINE
8
Black
10
135.521
20
-167.601
11
135.521
21
-167.887
0
LINE
8
Black
10
137.521
20
-164.887
11
137.807
21
-164.887
0
LINE
8
Black
10
137.807
20
-164.887
11
138.093
21
-165.03
0
LINE
8
Black
10
138.093
20
-165.03
11
138.236
21
-165.173
0
LINE
8
Black
10
138.236
20
-165.173
11
138.379
21
-165.459
0
LINE
8
Black
10
138.379
20
-165.459
11
138.521
21
-166.03
0
LINE
8
Black
10
138.521
20
-166.03
11
138.521
21
-166.744
0
LINE
8
Black
10
138.521
20
-166.744
11
138.379
21
-167.316
0
LINE
8
Black
10
138.379
20
-167.316
11
138.236
21
-167.601
0
LINE
8
Black
10
138.236
20
-167.601
11
138.093
21
-167.744
0
LINE
8
Black
10
138.093
20
-167.744
11
137.807
21
-167.887
0
LINE
8
Black
10
137.807
20
-167.887
11
137.521
21
-167.887
0
LINE
8
Black
10
137.521
20
-167.887
11
137.236
21
-167.744
0
LINE
8
Black
10
137.236
20
-167.744
11
137.093
21
-167.601
0
LINE
8
Black
10
137.093
20
-167.601
11
136.95
21
-167.316
0
LINE
8
Black
10
136.95
20
-167.316
11
136.807
21
-166.744
0
LINE
8
Black
10
136.807
20
-166.744
11
136.807
21
-166.03
0
LINE
8
Black
10
136.807
20
-166.03
11
136.95
21
-165.459
0
LINE
8
Black
10
136.95
20
-165.459
11
137.093
21
-165.173
0
LINE
8
Black
10
137.093
20
-165.173
11
137.236
21
-165.03
0
LINE
8
Black
10
137.236
20
-165.03
11
137.521
21
-164.887
0
LINE
8
Black
10
139.664
20
-165.173
11
139.807
21
-165.03
0
LINE
8
Black
10
139.807
20
-165.03
11
140.093
21
-164.887
0
LINE
8
Black
10
140.093
20
-164.887
11
140.807
21
-164.887
0
LINE
8
Black
10
140.807
20
-164.887
11
141.093
21
-165.03
0
LINE
8
Black
10
141.093
20
-165.03
11
141.236
21
-165.173
0
LINE
8
Black
10
141.236
20
-165.173
11
141.379
21
-165.459
0
LINE
8
Black
10
141.379
20
-165.459
11
141.379
21
-165.744
0
LINE
8
Black
10
141.379
20
-165.744
11
141.236
21
-166.173
0
LINE
8
Black
10
141.236
20
-166.173
11
139.521
21
-167.887
0
LINE
8
Black
10
139.521
20
-167.887
11
141.379
21
-167.887
0
LINE
8
Black
10
142.664
20
-167.887
11
142.664
21
-165.887
0
LINE
8
Black
10
142.664
20
-166.173
11
142.807
21
-166.03
0
LINE
8
Black
10
142.807
20
-166.03
11
143.093
21
-165.887
0
LINE
8
Black
10
143.093
20
-165.887
11
143.521
21
-165.887
0
LINE
8
Black
10
143.521
20
-165.887
11
143.807
21
-166.03
0
LINE
8
Black
10
143.807
20
-166.03
11
143.95
21
-166.316
0
LINE
8
Black
10
143.95
20
-166.316
11
143.95
21
-167.887
0
LINE
8
Black
10
143.95
20
-166.316
11
144.093
21
-166.03
0
LINE
8
Black
10
144.093
20
-166.03
11
144.379
21
-165.887
0
LINE
8
Black
10
144.379
20
-165.887
11
144.807
21
-165.887
0
LINE
8
Black
10
144.807
20
-165.887
11
145.093
21
-166.03
0
LINE
8
Black
10
145.093
20
-166.03
11
145.236
21
-166.316
0
LINE
8
Black
10
145.236
20
-166.316
11
145.236
21
-167.887
0
LINE
8
Black
10
146.664
20
-167.887
11
146.664
21
-165.887
0
LINE
8
Black
10
146.664
20
-166.173
11
146.807
21
-166.03
0
LINE
8
Black
10
146.807
20
-166.03
11
147.093
21
-165.887
0
LINE
8
Black
10
147.093
20
-165.887
11
147.521
21
-165.887
0
LINE
8
Black
10
147.521
20
-165.887
11
147.807
21
-166.03
0
LINE
8
Black
10
147.807
20
-166.03
11
147.95
21
-166.316
0
LINE
8
Black
10
147.95
20
-166.316
11
147.95
21
-167.887
0
LINE
8
Black
10
147.95
20
-166.316
11
148.093
21
-166.03
0
LINE
8
Black
10
148.093
20
-166.03
11
148.379
21
-165.887
0
LINE
8
Black
10
148.379
20
-165.887
11
148.807
21
-165.887
0
LINE
8
Black
10
148.807
20
-165.887
11
149.093
21
-166.03
0
LINE
8
Black
10
149.093
20
-166.03
11
149.236
21
-166.316
0
LINE
8
Black
10
149.236
20
-166.316
11
149.236
21
-167.887
0
LINE
8
Black
10
155.093
20
-164.744
11
152.521
21
-168.601
0
LINE
8
Black
10
158.95
20
-164.887
11
159.236
21
-164.887
0
LINE
8
Black
10
159.236
20
-164.887
11
159.521
21
-165.03
0
LINE
8
Black
10
159.521
20
-165.03
11
159.664
21
-165.173
0
LINE
8
Black
10
159.664
20
-165.173
11
159.807
21
-165.459
0
LINE
8
Black
10
159.807
20
-165.459
11
159.95
21
-166.03
0
LINE
8
Black
10
159.95
20
-166.03
11
159.95
21
-166.744
0
LINE
8
Black
10
159.95
20
-166.744
11
159.807
21
-167.316
0
LINE
8
Black
10
159.807
20
-167.316
11
159.664
21
-167.601
0
LINE
8
Black
10
159.664
20
-167.601
11
159.521
21
-167.744
0
LINE
8
Black
10
159.521
20
-167.744
11
159.236
21
-167.887
0
LINE
8
Black
10
159.236
20
-167.887
11
158.95
21
-167.887
0
LINE
8
Black
10
158.95
20
-167.887
11
158.664
21
-167.744
0
LINE
8
Black
10
158.664
20
-167.744
11
158.521
21
-167.601
0
LINE
8
Black
10
158.521
20
-167.601
11
158.379
21
-167.316
0
LINE
8
Black
10
158.379
20
-167.316
11
158.236
21
-166.744
0
LINE
8
Black
10
158.236
20
-166.744
11
158.236
21
-166.03
0
LINE
8
Black
10
158.236
20
-166.03
11
158.379
21
-165.459
0
LINE
8
Black
10
158.379
20
-165.459
11
158.521
21
-165.173
0
LINE
8
Black
10
158.521
20
-165.173
11
158.664
21
-165.03
0
LINE
8
Black
10
158.664
20
-165.03
11
158.95
21
-164.887
0
LINE
8
Black
10
161.236
20
-167.601
11
161.379
21
-167.744
0
LINE
8
Black
10
161.379
20
-167.744
11
161.236
21
-167.887
0
LINE
8
Black
10
161.236
20
-167.887
11
161.093
21
-167.744
0
LINE
8
Black
10
161.093
20
-167.744
11
161.236
21
-167.601
0
LINE
8
Black
10
161.236
20
-167.601
11
161.236
21
-167.887
0
LINE
8
Black
10
163.236
20
-164.887
11
163.521
21
-164.887
0
LINE
8
Black
10
163.521
20
-164.887
11
163.807
21
-165.03
0
LINE
8
Black
10
163.807
20
-165.03
11
163.95
21
-165.173
0
LINE
8
Black
10
163.95
20
-165.173
11
164.093
21
-165.459
0
LINE
8
Black
10
164.093
20
-165.459
11
164.236
21
-166.03
0
LINE
8
Black
10
164.236
20
-166.03
11
164.236
21
-166.744
0
LINE
8
Black
10
164.236
20
-166.744
11
164.093
21
-167.316
0
LINE
8
Black
10
164.093
20
-167.316
11
163.95
21
-167.601
0
LINE
8
Black
10
163.95
20
-167.601
11
163.807
21
-167.744
0
LINE
8
Black
10
163.807
20
-167.744
11
163.521
21
-167.887
0
LINE
8
Black
10
163.521
20
-167.887
11
163.236
21
-167.887
0
LINE
8
Black
10
163.236
20
-167.887
11
162.95
21
-167.744
0
LINE
8
Black
10
162.95
20
-167.744
11
162.807
21
-167.601
0
LINE
8
Black
10
162.807
20
-167.601
11
162.664
21
-167.316
0
LINE
8
Black
10
162.664
20
-167.316
11
162.521
21
-166.744
0
LINE
8
Black
10
162.521
20
-166.744
11
162.521
21
-166.03
0
LINE
8
Black
10
162.521
20
-166.03
11
162.664
21
-165.459
0
LINE
8
Black
10
162.664
20
-165.459
11
162.807
21
-165.173
0
LINE
8
Black
10
162.807
20
-165.173
11
162.95
21
-165.03
0
LINE
8
Black
10
162.95
20
-165.03
11
163.236
21
-164.887
0
LINE
8
Black
10
166.807
20
-165.887
11
166.807
21
-167.887
0
LINE
8
Black
10
166.093
20
-164.744
11
165.379
21
-166.887
0
LINE
8
Black
10
165.379
20
-166.887
11
167.236
21
-166.887
0
LINE
8
Black
10
168.95
20
-164.887
11
169.236
21
-164.887
0
LINE
8
Black
10
169.236
20
-164.887
11
169.521
21
-165.03
0
LINE
8
Black
10
169.521
20
-165.03
11
169.664
21
-165.173
0
LINE
8
Black
10
169.664
20
-165.173
11
169.807
21
-165.459
0
LINE
8
Black
10
169.807
20
-165.459
11
169.95
21
-166.03
0
LINE
8
Black
10
169.95
20
-166.03
11
169.95
21
-166.744
0
LINE
8
Black
10
169.95
20
-166.744
11
169.807
21
-167.316
0
LINE
8
Black
10
169.807
20
-167.316
11
169.664
21
-167.601
0
LINE
8
Black
10
169.664
20
-167.601
11
169.521
21
-167.744
0
LINE
8
Black
10
169.521
20
-167.744
11
169.236
21
-167.887
0
LINE
8
Black
10
169.236
20
-167.887
11
168.95
21
-167.887
0
LINE
8
Black
10
168.95
20
-167.887
11
168.664
21
-167.744
0
LINE
8
Black
10
168.664
20
-167.744
11
168.521
21
-167.601
0
LINE
8
Black
10
168.521
20
-167.601
11
168.379
21
-167.316
0
LINE
8
Black
10
168.379
20
-167.316
11
168.236
21
-166.744
0
LINE
8
Black
10
168.236
20
-166.744
11
168.236
21
-166.03
0
LINE
8
Black
10
168.236
20
-166.03
11
168.379
21
-165.459
0
LINE
8
Black
10
168.379
20
-165.459
11
168.521
21
-165.173
0
LINE
8
Black
10
168.521
20
-165.173
11
168.664
21
-165.03
0
LINE
8
Black
10
168.664
20
-165.03
11
168.95
21
-164.887
0
LINE
8
Black
10
171.093
20
-164.887
11
171.093
21
-165.459
0
LINE
8
Black
10
172.236
20
-164.887
11
172.236
21
-165.459
0
LINE
8
Black
10
176.664
20
-169.03
11
176.521
21
-168.887
0
LINE
8
Black
10
176.521
20
-168.887
11
176.236
21
-168.459
0
LINE
8
Black
10
176.236
20
-168.459
11
176.093
21
-168.173
0
LINE
8
Black
10
176.093
20
-168.173
11
175.95
21
-167.744
0
LINE
8
Black
10
175.95
20
-167.744
11
175.807
21
-167.03
0
LINE
8
Black
10
175.807
20
-167.03
11
175.807
21
-166.459
0
LINE
8
Black
10
175.807
20
-166.459
11
175.95
21
-165.744
0
LINE
8
Black
10
175.95
20
-165.744
11
176.093
21
-165.316
0
LINE
8
Black
10
176.093
20
-165.316
11
176.236
21
-165.03
0
LINE
8
Black
10
176.236
20
-165.03
11
176.521
21
-164.601
0
LINE
8
Black
10
176.521
20
-164.601
11
176.664
21
-164.459
0
LINE
8
Black
10
179.093
20
-164.887
11
178.521
21
-164.887
0
LINE
8
Black
10
178.521
20
-164.887
11
178.236
21
-165.03
0
LINE
8
Black
10
178.236
20
-165.03
11
178.093
21
-165.173
0
LINE
8
Black
10
178.093
20
-165.173
11
177.807
21
-165.601
0
LINE
8
Black
10
177.807
20
-165.601
11
177.664
21
-166.173
0
LINE
8
Black
10
177.664
20
-166.173
11
177.664
21
-167.316
0
LINE
8
Black
10
177.664
20
-167.316
11
177.807
21
-167.601
0
LINE
8
Black
10
177.807
20
-167.601
11
177.95
21
-167.744
0
LINE
8
Black
10
177.95
20
-167.744
11
178.236
21
-167.887
0
LINE
8
Black
10
178.236
20
-167.887
11
178.807
21
-167.887
0
LINE
8
Black
10
178.807
20
-167.887
11
179.093
21
-167.744
0
LINE
8
Black
10
179.093
20
-167.744
11
179.236
21
-167.601
0
LINE
8
Black
10
179.236
20
-167.601
11
179.379
21
-167.316
0
LINE
8
Black
10
179.379
20
-167.316
11
179.379
21
-166.601
0
LINE
8
Black
10
179.379
20
-166.601
11
179.236
21
-166.316
0
LINE
8
Black
10
179.236
20
-166.316
11
179.093
21
-166.173
0
LINE
8
Black
10
179.093
20
-166.173
11
178.807
21
-166.03
0
LINE
8
Black
10
178.807
20
-166.03
11
178.236
21
-166.03
0
LINE
8
Black
10
178.236
20
-166.03
11
177.95
21
-166.173
0
LINE
8
Black
10
177.95
20
-166.173
11
177.807
21
-166.316
0
LINE
8
Black
10
177.807
20
-166.316
11
177.664
21
-166.601
0
LINE
8
Black
10
181.95
20
-165.887
11
181.95
21
-167.887
0
LINE
8
Black
10
181.236
20
-164.744
11
180.521
21
-166.887
0
LINE
8
Black
10
180.521
20
-166.887
11
182.379
21
-166.887
0
LINE
8
Black
10
185.807
20
-167.887
11
185.807
21
-164.887
0
LINE
8
Black
10
187.093
20
-167.887
11
187.093
21
-166.316
0
LINE
8
Black
10
187.093
20
-166.316
11
186.95
21
-166.03
0
LINE
8
Black
10
186.95
20
-166.03
11
186.664
21
-165.887
0
LINE
8
Black
10
186.664
20
-165.887
11
186.236
21
-165.887
0
LINE
8
Black
10
186.236
20
-165.887
11
185.95
21
-166.03
0
LINE
8
Black
10
185.95
20
-166.03
11
185.807
21
-166.173
0
LINE
8
Black
10
188.95
20
-167.887
11
188.664
21
-167.744
0
LINE
8
Black
10
188.664
20
-167.744
11
188.521
21
-167.601
0
LINE
8
Black
10
188.521
20
-167.601
11
188.379
21
-167.316
0
LINE
8
Black
10
188.379
20
-167.316
11
188.379
21
-166.459
0
LINE
8
Black
10
188.379
20
-166.459
11
188.521
21
-166.173
0
LINE
8
Black
10
188.521
20
-166.173
11
188.664
21
-166.03
0
LINE
8
Black
10
188.664
20
-166.03
11
188.95
21
-165.887
0
LINE
8
Black
10
188.95
20
-165.887
11
189.379
21
-165.887
0
LINE
8
Black
10
189.379
20
-165.887
11
189.664
21
-166.03
0
LINE
8
Black
10
189.664
20
-166.03
11
189.807
21
-166.173
0
LINE
8
Black
10
189.807
20
-166.173
11
189.95
21
-166.459
0
LINE
8
Black
10
189.95
20
-166.459
11
189.95
21
-167.316
0
LINE
8
Black
10
189.95
20
-167.316
11
189.807
21
-167.601
0
LINE
8
Black
10
189.807
20
-167.601
11
189.664
21
-167.744
0
LINE
8
Black
10
189.664
20
-167.744
11
189.379
21
-167.887
0
LINE
8
Black
10
189.379
20
-167.887
11
188.95
21
-167.887
0
LINE
8
Black
10
191.664
20
-167.887
11
191.379
21
-167.744
0
LINE
8
Black
10
191.379
20
-167.744
11
191.236
21
-167.459
0
LINE
8
Black
10
191.236
20
-167.459
11
191.236
21
-164.887
0
LINE
8
Black
10
193.95
20
-167.744
11
193.664
21
-167.887
0
LINE
8
Black
10
193.664
20
-167.887
11
193.093
21
-167.887
0
LINE
8
Black
10
193.093
20
-167.887
11
192.807
21
-167.744
0
LINE
8
Black
10
192.807
20
-167.744
11
192.664
21
-167.459
0
LINE
8
Black
10
192.664
20
-167.459
11
192.664
21
-166.316
0
LINE
8
Black
10
192.664
20
-166.316
11
192.807
21
-166.03
0
LINE
8
Black
10
192.807
20
-166.03
11
193.093
21
-165.887
0
LINE
8
Black
10
193.093
20
-165.887
11
193.664
21
-165.887
0
LINE
8
Black
10
193.664
20
-165.887
11
193.95
21
-166.03
0
LINE
8
Black
10
193.95
20
-166.03
11
194.093
21
-166.316
0
LINE
8
Black
10
194.093
20
-166.316
11
194.093
21
-166.601
0
LINE
8
Black
10
194.093
20
-166.601
11
192.664
21
-166.887
0
LINE
8
Black
10
195.236
20
-167.744
11
195.521
21
-167.887
0
LINE
8
Black
10
195.521
20
-167.887
11
196.093
21
-167.887
0
LINE
8
Black
10
196.093
20
-167.887
11
196.379
21
-167.744
0
LINE
8
Black
10
196.379
20
-167.744
11
196.521
21
-167.459
0
LINE
8
Black
10
196.521
20
-167.459
11
196.521
21
-167.316
0
LINE
8
Black
10
196.521
20
-167.316
11
196.379
21
-167.03
0
LINE
8
Black
10
196.379
20
-167.03
11
196.093
21
-166.887
0
LINE
8
Black
10
196.093
20
-166.887
11
195.664
21
-166.887
0
LINE
8
Black
10
195.664
20
-166.887
11
195.379
21
-166.744
0
LINE
8
Black
10
195.379
20
-166.744
11
195.236
21
-166.459
0
LINE
8
Black
10
195.236
20
-166.459
11
195.236
21
-166.316
0
LINE
8
Black
10
195.236
20
-166.316
11
195.379
21
-166.03
0
LINE
8
Black
10
195.379
20
-166.03
11
195.664
21
-165.887
0
LINE
8
Black
10
195.664
20
-165.887
11
196.093
21
-165.887
0
LINE
8
Black
10
196.093
20
-165.887
11
196.379
21
-166.03
0
LINE
8
Black
10
197.521
20
-169.03
11
197.664
21
-168.887
0
LINE
8
Black
10
197.664
20
-168.887
11
197.95
21
-168.459
0
LINE
8
Black
10
197.95
20
-168.459
11
198.093
21
-168.173
0
LINE
8
Black
10
198.093
20
-168.173
11
198.236
21
-167.744
0
LINE
8
Black
10
198.236
20
-167.744
11
198.379
21
-167.03
0
LINE
8
Black
10
198.379
20
-167.03
11
198.379
21
-166.459
0
LINE
8
Black
10
198.379
20
-166.459
11
198.236
21
-165.744
0
LINE
8
Black
10
198.236
20
-165.744
11
198.093
21
-165.316
0
LINE
8
Black
10
198.093
20
-165.316
11
197.95
21
-165.03
0
LINE
8
Black
10
197.95
20
-165.03
11
197.664
21
-164.601
0
LINE
8
Black
10
197.664
20
-164.601
11
197.521
21
-164.459
0
LINE
8
Black
10
128.426
20
-172.014
11
129.95
21
-170.49
0
LINE
8
Black
10
129.95
20
-170.49
11
128.426
21
-168.966
0
LINE
8
Black
10
128.426
20
-168.966
11
126.902
21
-170.49
0
LINE
8
Black
10
126.902
20
-170.49
11
128.426
21
-172.014
0
LINE
8
Black
10
132.379
20
-168.847
11
134.236
21
-168.847
0
LINE
8
Black
10
134.236
20
-168.847
11
133.236
21
-169.99
0
LINE
8
Black
10
133.236
20
-169.99
11
133.664
21
-169.99
0
LINE
8
Black
10
133.664
20
-169.99
11
133.95
21
-170.133
0
LINE
8
Black
10
133.95
20
-170.133
11
134.093
21
-170.276
0
LINE
8
Black
10
134.093
20
-170.276
11
134.236
21
-170.561
0
LINE
8
Black
10
134.236
20
-170.561
11
134.236
21
-171.276
0
LINE
8
Black
10
134.236
20
-171.276
11
134.093
21
-171.561
0
LINE
8
Black
10
134.093
20
-171.561
11
133.95
21
-171.704
0
LINE
8
Black
10
133.95
20
-171.704
11
133.664
21
-171.847
0
LINE
8
Black
10
133.664
20
-171.847
11
132.807
21
-171.847
0
LINE
8
Black
10
132.807
20
-171.847
11
132.521
21
-171.704
0
LINE
8
Black
10
132.521
20
-171.704
11
132.379
21
-171.561
0
LINE
8
Black
10
135.521
20
-171.561
11
135.664
21
-171.704
0
LINE
8
Black
10
135.664
20
-171.704
11
135.521
21
-171.847
0
LINE
8
Black
10
135.521
20
-171.847
11
135.379
21
-171.704
0
LINE
8
Black
10
135.379
20
-171.704
11
135.521
21
-171.561
0
LINE
8
Black
10
135.521
20
-171.561
11
135.521
21
-171.847
0
LINE
8
Black
10
137.521
20
-168.847
11
137.807
21
-168.847
0
LINE
8
Black
10
137.807
20
-168.847
11
138.093
21
-168.99
0
LINE
8
Black
10
138.093
20
-168.99
11
138.236
21
-169.133
0
LINE
8
Black
10
138.236
20
-169.133
11
138.379
21
-169.419
0
LINE
8
Black
10
138.379
20
-169.419
11
138.521
21
-169.99
0
LINE
8
Black
10
138.521
20
-169.99
11
138.521
21
-170.704
0
LINE
8
Black
10
138.521
20
-170.704
11
138.379
21
-171.276
0
LINE
8
Black
10
138.379
20
-171.276
11
138.236
21
-171.561
0
LINE
8
Black
10
138.236
20
-171.561
11
138.093
21
-171.704
0
LINE
8
Black
10
138.093
20
-171.704
11
137.807
21
-171.847
0
LINE
8
Black
10
137.807
20
-171.847
11
137.521
21
-171.847
0
LINE
8
Black
10
137.521
20
-171.847
11
137.236
21
-171.704
0
LINE
8
Black
10
137.236
20
-171.704
11
137.093
21
-171.561
0
LINE
8
Black
10
137.093
20
-171.561
11
136.95
21
-171.276
0
LINE
8
Black
10
136.95
20
-171.276
11
136.807
21
-170.704
0
LINE
8
Black
10
136.807
20
-170.704
11
136.807
21
-169.99
0
LINE
8
Black
10
136.807
20
-169.99
11
136.95
21
-169.419
0
LINE
8
Black
10
136.95
20
-169.419
11
137.093
21
-169.133
0
LINE
8
Black
10
137.093
20
-169.133
11
137.236
21
-168.99
0
LINE
8
Black
10
137.236
20
-168.99
11
137.521
21
-168.847
0
LINE
8
Black
10
141.236
20
-168.847
11
139.807
21
-168.847
0
LINE
8
Black
10
139.807
20
-168.847
11
139.664
21
-170.276
0
LINE
8
Black
10
139.664
20
-170.276
11
139.807
21
-170.133
0
LINE
8
Black
10
139.807
20
-170.133
11
140.093
21
-169.99
0
LINE
8
Black
10
140.093
20
-169.99
11
140.807
21
-169.99
0
LINE
8
Black
10
140.807
20
-169.99
11
141.093
21
-170.133
0
LINE
8
Black
10
141.093
20
-170.133
11
141.236
21
-170.276
0
LINE
8
Black
10
141.236
20
-170.276
11
141.379
21
-170.561
0
LINE
8
Black
10
141.379
20
-170.561
11
141.379
21
-171.276
0
LINE
8
Black
10
141.379
20
-171.276
11
141.236
21
-171.561
0
LINE
8
Black
10
141.236
20
-171.561
11
141.093
21
-171.704
0
LINE
8
Black
10
141.093
20
-171.704
11
140.807
21
-171.847
0
LINE
8
Black
10
140.807
20
-171.847
11
140.093
21
-171.847
0
LINE
8
Black
10
140.093
20
-171.847
11
139.807
21
-171.704
0
LINE
8
Black
10
139.807
20
-171.704
11
139.664
21
-171.561
0
LINE
8
Black
10
142.664
20
-171.847
11
142.664
21
-169.847
0
LINE
8
Black
10
142.664
20
-170.133
11
142.807
21
-169.99
0
LINE
8
Black
10
142.807
20
-169.99
11
143.093
21
-169.847
0
LINE
8
Black
10
143.093
20
-169.847
11
143.521
21
-169.847
0
LINE
8
Black
10
143.521
20
-169.847
11
143.807
21
-169.99
0
LINE
8
Black
10
143.807
20
-169.99
11
143.95
21
-170.276
0
LINE
8
Black
10
143.95
20
-170.276
11
143.95
21
-171.847
0
LINE
8
Black
10
143.95
20
-170.276
11
144.093
21
-169.99
0
LINE
8
Black
10
144.093
20
-169.99
11
144.379
21
-169.847
0
LINE
8
Black
10
144.379
20
-169.847
11
144.807
21
-169.847
0
LINE
8
Black
10
144.807
20
-169.847
11
145.093
21
-169.99
0
LINE
8
Black
10
145.093
20
-169.99
11
145.236
21
-170.276
0
LINE
8
Black
10
145.236
20
-170.276
11
145.236
21
-171.847
0
LINE
8
Black
10
146.664
20
-171.847
11
146.664
21
-169.847
0
LINE
8
Black
10
146.664
20
-170.133
11
146.807
21
-169.99
0
LINE
8
Black
10
146.807
20
-169.99
11
147.093
21
-169.847
0
LINE
8
Black
10
147.093
20
-169.847
11
147.521
21
-169.847
0
LINE
8
Black
10
147.521
20
-169.847
11
147.807
21
-169.99
0
LINE
8
Black
10
147.807
20
-169.99
11
147.95
21
-170.276
0
LINE
8
Black
10
147.95
20
-170.276
11
147.95
21
-171.847
0
LINE
8
Black
10
147.95
20
-170.276
11
148.093
21
-169.99
0
LINE
8
Black
10
148.093
20
-169.99
11
148.379
21
-169.847
0
LINE
8
Black
10
148.379
20
-169.847
11
148.807
21
-169.847
0
LINE
8
Black
10
148.807
20
-169.847
11
149.093
21
-169.99
0
LINE
8
Black
10
149.093
20
-169.99
11
149.236
21
-170.276
0
LINE
8
Black
10
149.236
20
-170.276
11
149.236
21
-171.847
0
LINE
8
Black
10
155.093
20
-168.704
11
152.521
21
-172.561
0
LINE
8
Black
10
158.95
20
-168.847
11
159.236
21
-168.847
0
LINE
8
Black
10
159.236
20
-168.847
11
159.521
21
-168.99
0
LINE
8
Black
10
159.521
20
-168.99
11
159.664
21
-169.133
0
LINE
8
Black
10
159.664
20
-169.133
11
159.807
21
-169.419
0
LINE
8
Black
10
159.807
20
-169.419
11
159.95
21
-169.99
0
LINE
8
Black
10
159.95
20
-169.99
11
159.95
21
-170.704
0
LINE
8
Black
10
159.95
20
-170.704
11
159.807
21
-171.276
0
LINE
8
Black
10
159.807
20
-171.276
11
159.664
21
-171.561
0
LINE
8
Black
10
159.664
20
-171.561
11
159.521
21
-171.704
0
LINE
8
Black
10
159.521
20
-171.704
11
159.236
21
-171.847
0
LINE
8
Black
10
159.236
20
-171.847
11
158.95
21
-171.847
0
LINE
8
Black
10
158.95
20
-171.847
11
158.664
21
-171.704
0
LINE
8
Black
10
158.664
20
-171.704
11
158.521
21
-171.561
0
LINE
8
Black
10
158.521
20
-171.561
11
158.379
21
-171.276
0
LINE
8
Black
10
158.379
20
-171.276
11
158.236
21
-170.704
0
LINE
8
Black
10
158.236
20
-170.704
11
158.236
21
-169.99
0
LINE
8
Black
10
158.236
20
-169.99
11
158.379
21
-169.419
0
LINE
8
Black
10
158.379
20
-169.419
11
158.521
21
-169.133
0
LINE
8
Black
10
158.521
20
-169.133
11
158.664
21
-168.99
0
LINE
8
Black
10
158.664
20
-168.99
11
158.95
21
-168.847
0
LINE
8
Black
10
161.236
20
-171.561
11
161.379
21
-171.704
0
LINE
8
Black
10
161.379
20
-171.704
11
161.236
21
-171.847
0
LINE
8
Black
10
161.236
20
-171.847
11
161.093
21
-171.704
0
LINE
8
Black
10
161.093
20
-171.704
11
161.236
21
-171.561
0
LINE
8
Black
10
161.236
20
-171.561
11
161.236
21
-171.847
0
LINE
8
Black
10
164.236
20
-171.847
11
162.521
21
-171.847
0
LINE
8
Black
10
163.379
20
-171.847
11
163.379
21
-168.847
0
LINE
8
Black
10
163.379
20
-168.847
11
163.093
21
-169.276
0
LINE
8
Black
10
163.093
20
-169.276
11
162.807
21
-169.561
0
LINE
8
Black
10
162.807
20
-169.561
11
162.521
21
-169.704
0
LINE
8
Black
10
165.379
20
-169.133
11
165.521
21
-168.99
0
LINE
8
Black
10
165.521
20
-168.99
11
165.807
21
-168.847
0
LINE
8
Black
10
165.807
20
-168.847
11
166.521
21
-168.847
0
LINE
8
Black
10
166.521
20
-168.847
11
166.807
21
-168.99
0
LINE
8
Black
10
166.807
20
-168.99
11
166.95
21
-169.133
0
LINE
8
Black
10
166.95
20
-169.133
11
167.093
21
-169.419
0
LINE
8
Black
10
167.093
20
-169.419
11
167.093
21
-169.704
0
LINE
8
Black
10
167.093
20
-169.704
11
166.95
21
-170.133
0
LINE
8
Black
10
166.95
20
-170.133
11
165.236
21
-171.847
0
LINE
8
Black
10
165.236
20
-171.847
11
167.093
21
-171.847
0
LINE
8
Black
10
168.95
20
-168.847
11
169.236
21
-168.847
0
LINE
8
Black
10
169.236
20
-168.847
11
169.521
21
-168.99
0
LINE
8
Black
10
169.521
20
-168.99
11
169.664
21
-169.133
0
LINE
8
Black
10
169.664
20
-169.133
11
169.807
21
-169.419
0
LINE
8
Black
10
169.807
20
-169.419
11
169.95
21
-169.99
0
LINE
8
Black
10
169.95
20
-169.99
11
169.95
21
-170.704
0
LINE
8
Black
10
169.95
20
-170.704
11
169.807
21
-171.276
0
LINE
8
Black
10
169.807
20
-171.276
11
169.664
21
-171.561
0
LINE
8
Black
10
169.664
20
-171.561
11
169.521
21
-171.704
0
LINE
8
Black
10
169.521
20
-171.704
11
169.236
21
-171.847
0
LINE
8
Black
10
169.236
20
-171.847
11
168.95
21
-171.847
0
LINE
8
Black
10
168.95
20
-171.847
11
168.664
21
-171.704
0
LINE
8
Black
10
168.664
20
-171.704
11
168.521
21
-171.561
0
LINE
8
Black
10
168.521
20
-171.561
11
168.379
21
-171.276
0
LINE
8
Black
10
168.379
20
-171.276
11
168.236
21
-170.704
0
LINE
8
Black
10
168.236
20
-170.704
11
168.236
21
-169.99
0
LINE
8
Black
10
168.236
20
-169.99
11
168.379
21
-169.419
0
LINE
8
Black
10
168.379
20
-169.419
11
168.521
21
-169.133
0
LINE
8
Black
10
168.521
20
-169.133
11
168.664
21
-168.99
0
LINE
8
Black
10
168.664
20
-168.99
11
168.95
21
-168.847
0
LINE
8
Black
10
171.093
20
-168.847
11
171.093
21
-169.419
0
LINE
8
Black
10
172.236
20
-168.847
11
172.236
21
-169.419
0
LINE
8
Black
10
176.664
20
-172.99
11
176.521
21
-172.847
0
LINE
8
Black
10
176.521
20
-172.847
11
176.236
21
-172.419
0
LINE
8
Black
10
176.236
20
-172.419
11
176.093
21
-172.133
0
LINE
8
Black
10
176.093
20
-172.133
11
175.95
21
-171.704
0
LINE
8
Black
10
175.95
20
-171.704
11
175.807
21
-170.99
0
LINE
8
Black
10
175.807
20
-170.99
11
175.807
21
-170.419
0
LINE
8
Black
10
175.807
20
-170.419
11
175.95
21
-169.704
0
LINE
8
Black
10
175.95
20
-169.704
11
176.093
21
-169.276
0
LINE
8
Black
10
176.093
20
-169.276
11
176.236
21
-168.99
0
LINE
8
Black
10
176.236
20
-168.99
11
176.521
21
-168.561
0
LINE
8
Black
10
176.521
20
-168.561
11
176.664
21
-168.419
0
LINE
8
Black
10
177.664
20
-169.133
11
177.807
21
-168.99
0
LINE
8
Black
10
177.807
20
-168.99
11
178.093
21
-168.847
0
LINE
8
Black
10
178.093
20
-168.847
11
178.807
21
-168.847
0
LINE
8
Black
10
178.807
20
-168.847
11
179.093
21
-168.99
0
LINE
8
Black
10
179.093
20
-168.99
11
179.236
21
-169.133
0
LINE
8
Black
10
179.236
20
-169.133
11
179.379
21
-169.419
0
LINE
8
Black
10
179.379
20
-169.419
11
179.379
21
-169.704
0
LINE
8
Black
10
179.379
20
-169.704
11
179.236
21
-170.133
0
LINE
8
Black
10
179.236
20
-170.133
11
177.521
21
-171.847
0
LINE
8
Black
10
177.521
20
-171.847
11
179.379
21
-171.847
0
LINE
8
Black
10
182.95
20
-171.847
11
182.95
21
-168.847
0
LINE
8
Black
10
184.236
20
-171.847
11
184.236
21
-170.276
0
LINE
8
Black
10
184.236
20
-170.276
11
184.093
21
-169.99
0
LINE
8
Black
10
184.093
20
-169.99
11
183.807
21
-169.847
0
LINE
8
Black
10
183.807
20
-169.847
11
183.379
21
-169.847
0
LINE
8
Black
10
183.379
20
-169.847
11
183.093
21
-169.99
0
LINE
8
Black
10
183.093
20
-169.99
11
182.95
21
-170.133
0
LINE
8
Black
10
186.093
20
-171.847
11
185.807
21
-171.704
0
LINE
8
Black
10
185.807
20
-171.704
11
185.664
21
-171.561
0
LINE
8
Black
10
185.664
20
-171.561
11
185.521
21
-171.276
0
LINE
8
Black
10
185.521
20
-171.276
11
185.521
21
-170.419
0
LINE
8
Black
10
185.521
20
-170.419
11
185.664
21
-170.133
0
LINE
8
Black
10
185.664
20
-170.133
11
185.807
21
-169.99
0
LINE
8
Black
10
185.807
20
-169.99
11
186.093
21
-169.847
0
LINE
8
Black
10
186.093
20
-169.847
11
186.521
21
-169.847
0
LINE
8
Black
10
186.521
20
-169.847
11
186.807
21
-169.99
0
LINE
8
Black
10
186.807
20
-169.99
11
186.95
21
-170.133
0
LINE
8
Black
10
186.95
20
-170.133
11
187.093
21
-170.419
0
LINE
8
Black
10
187.093
20
-170.419
11
187.093
21
-171.276
0
LINE
8
Black
10
187.093
20
-171.276
11
186.95
21
-171.561
0
LINE
8
Black
10
186.95
20
-171.561
11
186.807
21
-171.704
0
LINE
8
Black
10
186.807
20
-171.704
11
186.521
21
-171.847
0
LINE
8
Black
10
186.521
20
-171.847
11
186.093
21
-171.847
0
LINE
8
Black
10
188.807
20
-171.847
11
188.521
21
-171.704
0
LINE
8
Black
10
188.521
20
-171.704
11
188.379
21
-171.419
0
LINE
8
Black
10
188.379
20
-171.419
11
188.379
21
-168.847
0
LINE
8
Black
10
191.093
20
-171.704
11
190.807
21
-171.847
0
LINE
8
Black
10
190.807
20
-171.847
11
190.236
21
-171.847
0
LINE
8
Black
10
190.236
20
-171.847
11
189.95
21
-171.704
0
LINE
8
Black
10
189.95
20
-171.704
11
189.807
21
-171.419
0
LINE
8
Black
10
189.807
20
-171.419
11
189.807
21
-170.276
0
LINE
8
Black
10
189.807
20
-170.276
11
189.95
21
-169.99
0
LINE
8
Black
10
189.95
20
-169.99
11
190.236
21
-169.847
0
LINE
8
Black
10
190.236
20
-169.847
11
190.807
21
-169.847
0
LINE
8
Black
10
190.807
20
-169.847
11
191.093
21
-169.99
0
LINE
8
Black
10
191.093
20
-169.99
11
191.236
21
-170.276
0
LINE
8
Black
10
191.236
20
-170.276
11
191.236
21
-170.561
0
LINE
8
Black
10
191.236
20
-170.561
11
189.807
21
-170.847
0
LINE
8
Black
10
192.379
20
-171.704
11
192.664
21
-171.847
0
LINE
8
Black
10
192.664
20
-171.847
11
193.236
21
-171.847
0
LINE
8
Black
10
193.236
20
-171.847
11
193.521
21
-171.704
0
LINE
8
Black
10
193.521
20
-171.704
11
193.664
21
-171.419
0
LINE
8
Black
10
193.664
20
-171.419
11
193.664
21
-171.276
0
LINE
8
Black
10
193.664
20
-171.276
11
193.521
21
-170.99
0
LINE
8
Black
10
193.521
20
-170.99
11
193.236
21
-170.847
0
LINE
8
Black
10
193.236
20
-170.847
11
192.807
21
-170.847
0
LINE
8
Black
10
192.807
20
-170.847
11
192.521
21
-170.704
0
LINE
8
Black
10
192.521
20
-170.704
11
192.379
21
-170.419
0
LINE
8
Black
10
192.379
20
-170.419
11
192.379
21
-170.276
0
LINE
8
Black
10
192.379
20
-170.276
11
192.521
21
-169.99
0
LINE
8
Black
10
192.521
20
-169.99
11
192.807
21
-169.847
0
LINE
8
Black
10
192.807
20
-169.847
11
193.236
21
-169.847
0
LINE
8
Black
10
193.236
20
-169.847
11
193.521
21
-169.99
0
LINE
8
Black
10
194.664
20
-172.99
11
194.807
21
-172.847
0
LINE
8
Black
10
194.807
20
-172.847
11
195.093
21
-172.419
0
LINE
8
Black
10
195.093
20
-172.419
11
195.236
21
-172.133
0
LINE
8
Black
10
195.236
20
-172.133
11
195.379
21
-171.704
0
LINE
8
Black
10
195.379
20
-171.704
11
195.521
21
-170.99
0
LINE
8
Black
10
195.521
20
-170.99
11
195.521
21
-170.419
0
LINE
8
Black
10
195.521
20
-170.419
11
195.379
21
-169.704
0
LINE
8
Black
10
195.379
20
-169.704
11
195.236
21
-169.276
0
LINE
8
Black
10
195.236
20
-169.276
11
195.093
21
-168.99
0
LINE
8
Black
10
195.093
20
-168.99
11
194.807
21
-168.561
0
LINE
8
Black
10
194.807
20
-168.561
11
194.664
21
-168.419
0
LINE
8
Black
10
126.115
20
-172.92
11
129.95
21
-176.756
0
LINE
8
Black
10
129.95
20
-172.92
11
126.115
21
-176.756
0
CIRCLE
8
Black
10
128.032
20
-174.838
40
1.9177
0
LINE
8
Black
10
132.379
20
-173.195
11
134.236
21
-173.195
0
LINE
8
Black
10
134.236
20
-173.195
11
133.236
21
-174.338
0
LINE
8
Black
10
133.236
20
-174.338
11
133.664
21
-174.338
0
LINE
8
Black
10
133.664
20
-174.338
11
133.95
21
-174.481
0
LINE
8
Black
10
133.95
20
-174.481
11
134.093
21
-174.624
0
LINE
8
Black
10
134.093
20
-174.624
11
134.236
21
-174.909
0
LINE
8
Black
10
134.236
20
-174.909
11
134.236
21
-175.624
0
LINE
8
Black
10
134.236
20
-175.624
11
134.093
21
-175.909
0
LINE
8
Black
10
134.093
20
-175.909
11
133.95
21
-176.052
0
LINE
8
Black
10
133.95
20
-176.052
11
133.664
21
-176.195
0
LINE
8
Black
10
133.664
20
-176.195
11
132.807
21
-176.195
0
LINE
8
Black
10
132.807
20
-176.195
11
132.521
21
-176.052
0
LINE
8
Black
10
132.521
20
-176.052
11
132.379
21
-175.909
0
LINE
8
Black
10
135.521
20
-175.909
11
135.664
21
-176.052
0
LINE
8
Black
10
135.664
20
-176.052
11
135.521
21
-176.195
0
LINE
8
Black
10
135.521
20
-176.195
11
135.379
21
-176.052
0
LINE
8
Black
10
135.379
20
-176.052
11
135.521
21
-175.909
0
LINE
8
Black
10
135.521
20
-175.909
11
135.521
21
-176.195
0
LINE
8
Black
10
137.379
20
-174.481
11
137.093
21
-174.338
0
LINE
8
Black
10
137.093
20
-174.338
11
136.95
21
-174.195
0
LINE
8
Black
10
136.95
20
-174.195
11
136.807
21
-173.909
0
LINE
8
Black
10
136.807
20
-173.909
11
136.807
21
-173.767
0
LINE
8
Black
10
136.807
20
-173.767
11
136.95
21
-173.481
0
LINE
8
Black
10
136.95
20
-173.481
11
137.093
21
-173.338
0
LINE
8
Black
10
137.093
20
-173.338
11
137.379
21
-173.195
0
LINE
8
Black
10
137.379
20
-173.195
11
137.95
21
-173.195
0
LINE
8
Black
10
137.95
20
-173.195
11
138.236
21
-173.338
0
LINE
8
Black
10
138.236
20
-173.338
11
138.379
21
-173.481
0
LINE
8
Black
10
138.379
20
-173.481
11
138.521
21
-173.767
0
LINE
8
Black
10
138.521
20
-173.767
11
138.521
21
-173.909
0
LINE
8
Black
10
138.521
20
-173.909
11
138.379
21
-174.195
0
LINE
8
Black
10
138.379
20
-174.195
11
138.236
21
-174.338
0
LINE
8
Black
10
138.236
20
-174.338
11
137.95
21
-174.481
0
LINE
8
Black
10
137.95
20
-174.481
11
137.379
21
-174.481
0
LINE
8
Black
10
137.379
20
-174.481
11
137.093
21
-174.624
0
LINE
8
Black
10
137.093
20
-174.624
11
136.95
21
-174.767
0
LINE
8
Black
10
136.95
20
-174.767
11
136.807
21
-175.052
0
LINE
8
Black
10
136.807
20
-175.052
11
136.807
21
-175.624
0
LINE
8
Black
10
136.807
20
-175.624
11
136.95
21
-175.909
0
LINE
8
Black
10
136.95
20
-175.909
11
137.093
21
-176.052
0
LINE
8
Black
10
137.093
20
-176.052
11
137.379
21
-176.195
0
LINE
8
Black
10
137.379
20
-176.195
11
137.95
21
-176.195
0
LINE
8
Black
10
137.95
20
-176.195
11
138.236
21
-176.052
0
LINE
8
Black
10
138.236
20
-176.052
11
138.379
21
-175.909
0
LINE
8
Black
10
138.379
20
-175.909
11
138.521
21
-175.624
0
LINE
8
Black
10
138.521
20
-175.624
11
138.521
21
-175.052
0
LINE
8
Black
10
138.521
20
-175.052
11
138.379
21
-174.767
0
LINE
8
Black
10
138.379
20
-174.767
11
138.236
21
-174.624
0
LINE
8
Black
10
138.236
20
-174.624
11
137.95
21
-174.481
0
LINE
8
Black
10
141.093
20
-174.195
11
141.093
21
-176.195
0
LINE
8
Black
10
140.379
20
-173.052
11
139.664
21
-175.195
0
LINE
8
Black
10
139.664
20
-175.195
11
141.521
21
-175.195
0
LINE
8
Black
10
142.664
20
-176.195
11
142.664
21
-174.195
0
LINE
8
Black
10
142.664
20
-174.481
11
142.807
21
-174.338
0
LINE
8
Black
10
142.807
20
-174.338
11
143.093
21
-174.195
0
LINE
8
Black
10
143.093
20
-174.195
11
143.521
21
-174.195
0
LINE
8
Black
10
143.521
20
-174.195
11
143.807
21
-174.338
0
LINE
8
Black
10
143.807
20
-174.338
11
143.95
21
-174.624
0
LINE
8
Black
10
143.95
20
-174.624
11
143.95
21
-176.195
0
LINE
8
Black
10
143.95
20
-174.624
11
144.093
21
-174.338
0
LINE
8
Black
10
144.093
20
-174.338
11
144.379
21
-174.195
0
LINE
8
Black
10
144.379
20
-174.195
11
144.807
21
-174.195
0
LINE
8
Black
10
144.807
20
-174.195
11
145.093
21
-174.338
0
LINE
8
Black
10
145.093
20
-174.338
11
145.236
21
-174.624
0
LINE
8
Black
10
145.236
20
-174.624
11
145.236
21
-176.195
0
LINE
8
Black
10
146.664
20
-176.195
11
146.664
21
-174.195
0
LINE
8
Black
10
146.664
20
-174.481
11
146.807
21
-174.338
0
LINE
8
Black
10
146.807
20
-174.338
11
147.093
21
-174.195
0
LINE
8
Black
10
147.093
20
-174.195
11
147.521
21
-174.195
0
LINE
8
Black
10
147.521
20
-174.195
11
147.807
21
-174.338
0
LINE
8
Black
10
147.807
20
-174.338
11
147.95
21
-174.624
0
LINE
8
Black
10
147.95
20
-174.624
11
147.95
21
-176.195
0
LINE
8
Black
10
147.95
20
-174.624
11
148.093
21
-174.338
0
LINE
8
Black
10
148.093
20
-174.338
11
148.379
21
-174.195
0
LINE
8
Black
10
148.379
20
-174.195
11
148.807
21
-174.195
0
LINE
8
Black
10
148.807
20
-174.195
11
149.093
21
-174.338
0
LINE
8
Black
10
149.093
20
-174.338
11
149.236
21
-174.624
0
LINE
8
Black
10
149.236
20
-174.624
11
149.236
21
-176.195
0
LINE
8
Black
10
155.093
20
-173.052
11
152.521
21
-176.909
0
LINE
8
Black
10
158.95
20
-173.195
11
159.236
21
-173.195
0
LINE
8
Black
10
159.236
20
-173.195
11
159.521
21
-173.338
0
LINE
8
Black
10
159.521
20
-173.338
11
159.664
21
-173.481
0
LINE
8
Black
10
159.664
20
-173.481
11
159.807
21
-173.767
0
LINE
8
Black
10
159.807
20
-173.767
11
159.95
21
-174.338
0
LINE
8
Black
10
159.95
20
-174.338
11
159.95
21
-175.052
0
LINE
8
Black
10
159.95
20
-175.052
11
159.807
21
-175.624
0
LINE
8
Black
10
159.807
20
-175.624
11
159.664
21
-175.909
0
LINE
8
Black
10
159.664
20
-175.909
11
159.521
21
-176.052
0
LINE
8
Black
10
159.521
20
-176.052
11
159.236
21
-176.195
0
LINE
8
Black
10
159.236
20
-176.195
11
158.95
21
-176.195
0
LINE
8
Black
10
158.95
20
-176.195
11
158.664
21
-176.052
0
LINE
8
Black
10
158.664
20
-176.052
11
158.521
21
-175.909
0
LINE
8
Black
10
158.521
20
-175.909
11
158.379
21
-175.624
0
LINE
8
Black
10
158.379
20
-175.624
11
158.236
21
-175.052
0
LINE
8
Black
10
158.236
20
-175.052
11
158.236
21
-174.338
0
LINE
8
Black
10
158.236
20
-174.338
11
158.379
21
-173.767
0
LINE
8
Black
10
158.379
20
-173.767
11
158.521
21
-173.481
0
LINE
8
Black
10
158.521
20
-173.481
11
158.664
21
-173.338
0
LINE
8
Black
10
158.664
20
-173.338
11
158.95
21
-173.195
0
LINE
8
Black
10
161.236
20
-175.909
11
161.379
21
-176.052
0
LINE
8
Black
10
161.379
20
-176.052
11
161.236
21
-176.195
0
LINE
8
Black
10
161.236
20
-176.195
11
161.093
21
-176.052
0
LINE
8
Black
10
161.093
20
-176.052
11
161.236
21
-175.909
0
LINE
8
Black
10
161.236
20
-175.909
11
161.236
21
-176.195
0
LINE
8
Black
10
164.236
20
-176.195
11
162.521
21
-176.195
0
LINE
8
Black
10
163.379
20
-176.195
11
163.379
21
-173.195
0
LINE
8
Black
10
163.379
20
-173.195
11
163.093
21
-173.624
0
LINE
8
Black
10
163.093
20
-173.624
11
162.807
21
-173.909
0
LINE
8
Black
10
162.807
20
-173.909
11
162.521
21
-174.052
0
LINE
8
Black
10
166.95
20
-173.195
11
165.521
21
-173.195
0
LINE
8
Black
10
165.521
20
-173.195
11
165.379
21
-174.624
0
LINE
8
Black
10
165.379
20
-174.624
11
165.521
21
-174.481
0
LINE
8
Black
10
165.521
20
-174.481
11
165.807
21
-174.338
0
LINE
8
Black
10
165.807
20
-174.338
11
166.521
21
-174.338
0
LINE
8
Black
10
166.521
20
-174.338
11
166.807
21
-174.481
0
LINE
8
Black
10
166.807
20
-174.481
11
166.95
21
-174.624
0
LINE
8
Black
10
166.95
20
-174.624
11
167.093
21
-174.909
0
LINE
8
Black
10
167.093
20
-174.909
11
167.093
21
-175.624
0
LINE
8
Black
10
167.093
20
-175.624
11
166.95
21
-175.909
0
LINE
8
Black
10
166.95
20
-175.909
11
166.807
21
-176.052
0
LINE
8
Black
10
166.807
20
-176.052
11
166.521
21
-176.195
0
LINE
8
Black
10
166.521
20
-176.195
11
165.807
21
-176.195
0
LINE
8
Black
10
165.807
20
-176.195
11
165.521
21
-176.052
0
LINE
8
Black
10
165.521
20
-176.052
11
165.379
21
-175.909
0
LINE
8
Black
10
169.95
20
-176.195
11
168.236
21
-176.195
0
LINE
8
Black
10
169.093
20
-176.195
11
169.093
21
-173.195
0
LINE
8
Black
10
169.093
20
-173.195
11
168.807
21
-173.624
0
LINE
8
Black
10
168.807
20
-173.624
11
168.521
21
-173.909
0
LINE
8
Black
10
168.521
20
-173.909
11
168.236
21
-174.052
0
LINE
8
Black
10
171.093
20
-173.195
11
171.093
21
-173.767
0
LINE
8
Black
10
172.236
20
-173.195
11
172.236
21
-173.767
0
LINE
8
Black
10
176.664
20
-177.338
11
176.521
21
-177.195
0
LINE
8
Black
10
176.521
20
-177.195
11
176.236
21
-176.767
0
LINE
8
Black
10
176.236
20
-176.767
11
176.093
21
-176.481
0
LINE
8
Black
10
176.093
20
-176.481
11
175.95
21
-176.052
0
LINE
8
Black
10
175.95
20
-176.052
11
175.807
21
-175.338
0
LINE
8
Black
10
175.807
20
-175.338
11
175.807
21
-174.767
0
LINE
8
Black
10
175.807
20
-174.767
11
175.95
21
-174.052
0
LINE
8
Black
10
175.95
20
-174.052
11
176.093
21
-173.624
0
LINE
8
Black
10
176.093
20
-173.624
11
176.236
21
-173.338
0
LINE
8
Black
10
176.236
20
-173.338
11
176.521
21
-172.909
0
LINE
8
Black
10
176.521
20
-172.909
11
176.664
21
-172.767
0
LINE
8
Black
10
179.093
20
-174.195
11
179.093
21
-176.195
0
LINE
8
Black
10
178.379
20
-173.052
11
177.664
21
-175.195
0
LINE
8
Black
10
177.664
20
-175.195
11
179.521
21
-175.195
0
LINE
8
Black
10
182.95
20
-176.195
11
182.95
21
-173.195
0
LINE
8
Black
10
184.236
20
-176.195
11
184.236
21
-174.624
0
LINE
8
Black
10
184.236
20
-174.624
11
184.093
21
-174.338
0
LINE
8
Black
10
184.093
20
-174.338
11
183.807
21
-174.195
0
LINE
8
Black
10
183.807
20
-174.195
11
183.379
21
-174.195
0
LINE
8
Black
10
183.379
20
-174.195
11
183.093
21
-174.338
0
LINE
8
Black
10
183.093
20
-174.338
11
182.95
21
-174.481
0
LINE
8
Black
10
186.093
20
-176.195
11
185.807
21
-176.052
0
LINE
8
Black
10
185.807
20
-176.052
11
185.664
21
-175.909
0
LINE
8
Black
10
185.664
20
-175.909
11
185.521
21
-175.624
0
LINE
8
Black
10
185.521
20
-175.624
11
185.521
21
-174.767
0
LINE
8
Black
10
185.521
20
-174.767
11
185.664
21
-174.481
0
LINE
8
Black
10
185.664
20
-174.481
11
185.807
21
-174.338
0
LINE
8
Black
10
185.807
20
-174.338
11
186.093
21
-174.195
0
LINE
8
Black
10
186.093
20
-174.195
11
186.521
21
-174.195
0
LINE
8
Black
10
186.521
20
-174.195
11
186.807
21
-174.338
0
LINE
8
Black
10
186.807
20
-174.338
11
186.95
21
-174.481
0
LINE
8
Black
10
186.95
20
-174.481
11
187.093
21
-174.767
0
LINE
8
Black
10
187.093
20
-174.767
11
187.093
21
-175.624
0
LINE
8
Black
10
187.093
20
-175.624
11
186.95
21
-175.909
0
LINE
8
Black
10
186.95
20
-175.909
11
186.807
21
-176.052
0
LINE
8
Black
10
186.807
20
-176.052
11
186.521
21
-176.195
0
LINE
8
Black
10
186.521
20
-176.195
11
186.093
21
-176.195
0
LINE
8
Black
10
188.807
20
-176.195
11
188.521
21
-176.052
0
LINE
8
Black
10
188.521
20
-176.052
11
188.379
21
-175.767
0
LINE
8
Black
10
188.379
20
-175.767
11
188.379
21
-173.195
0
LINE
8
Black
10
191.093
20
-176.052
11
190.807
21
-176.195
0
LINE
8
Black
10
190.807
20
-176.195
11
190.236
21
-176.195
0
LINE
8
Black
10
190.236
20
-176.195
11
189.95
21
-176.052
0
LINE
8
Black
10
189.95
20
-176.052
11
189.807
21
-175.767
0
LINE
8
Black
10
189.807
20
-175.767
11
189.807
21
-174.624
0
LINE
8
Black
10
189.807
20
-174.624
11
189.95
21
-174.338
0
LINE
8
Black
10
189.95
20
-174.338
11
190.236
21
-174.195
0
LINE
8
Black
10
190.236
20
-174.195
11
190.807
21
-174.195
0
LINE
8
Black
10
190.807
20
-174.195
11
191.093
21
-174.338
0
LINE
8
Black
10
191.093
20
-174.338
11
191.236
21
-174.624
0
LINE
8
Black
10
191.236
20
-174.624
11
191.236
21
-174.909
0
LINE
8
Black
10
191.236
20
-174.909
11
189.807
21
-175.195
0
LINE
8
Black
10
192.379
20
-176.052
11
192.664
21
-176.195
0
LINE
8
Black
10
192.664
20
-176.195
11
193.236
21
-176.195
0
LINE
8
Black
10
193.236
20
-176.195
11
193.521
21
-176.052
0
LINE
8
Black
10
193.521
20
-176.052
11
193.664
21
-175.767
0
LINE
8
Black
10
193.664
20
-175.767
11
193.664
21
-175.624
0
LINE
8
Black
10
193.664
20
-175.624
11
193.521
21
-175.338
0
LINE
8
Black
10
193.521
20
-175.338
11
193.236
21
-175.195
0
LINE
8
Black
10
193.236
20
-175.195
11
192.807
21
-175.195
0
LINE
8
Black
10
192.807
20
-175.195
11
192.521
21
-175.052
0
LINE
8
Black
10
192.521
20
-175.052
11
192.379
21
-174.767
0
LINE
8
Black
10
192.379
20
-174.767
11
192.379
21
-174.624
0
LINE
8
Black
10
192.379
20
-174.624
11
192.521
21
-174.338
0
LINE
8
Black
10
192.521
20
-174.338
11
192.807
21
-174.195
0
LINE
8
Black
10
192.807
20
-174.195
11
193.236
21
-174.195
0
LINE
8
Black
10
193.236
20
-174.195
11
193.521
21
-174.338
0
LINE
8
Black
10
194.664
20
-177.338
11
194.807
21
-177.195
0
LINE
8
Black
10
194.807
20
-177.195
11
195.093
21
-176.767
0
LINE
8
Black
10
195.093
20
-176.767
11
195.236
21
-176.481
0
LINE
8
Black
10
195.236
20
-176.481
11
195.379
21
-176.052
0
LINE
8
Black
10
195.379
20
-176.052
11
195.521
21
-175.338
0
LINE
8
Black
10
195.521
20
-175.338
11
195.521
21
-174.767
0
LINE
8
Black
10
195.521
20
-174.767
11
195.379
21
-174.052
0
LINE
8
Black
10
195.379
20
-174.052
11
195.236
21
-173.624
0
LINE
8
Black
10
195.236
20
-173.624
11
195.093
21
-173.338
0
LINE
8
Black
10
195.093
20
-173.338
11
194.807
21
-172.909
0
LINE
8
Black
10
194.807
20
-172.909
11
194.664
21
-172.767
  0
ENDSEC
  0
EOF
