G04 #@! TF.FileFunction,Legend,Top*
%FSLAX46Y46*%
G04 Gerber Fmt 4.6, Leading zero omitted, Abs format (unit mm)*
G04 Created by KiCad (PCBNEW (after 2015-mar-04 BZR unknown)-product) date 10/20/2015 10:11:34 AM*
%MOMM*%
G01*
G04 APERTURE LIST*
%ADD10C,0.150000*%
%ADD11C,0.254000*%
%ADD12C,0.381000*%
%ADD13C,0.476250*%
%ADD14C,0.203200*%
%ADD15C,0.304800*%
%ADD16C,0.152400*%
%ADD17C,0.650000*%
G04 APERTURE END LIST*
D10*
D11*
X111157667Y-90121881D02*
X111708000Y-91772881D01*
X112258334Y-90121881D01*
X112140405Y-92232500D02*
X111983167Y-92153881D01*
X111747310Y-92153881D01*
X111511452Y-92232500D01*
X111354214Y-92389738D01*
X111275595Y-92546976D01*
X111196976Y-92861452D01*
X111196976Y-93097310D01*
X111275595Y-93411786D01*
X111354214Y-93569024D01*
X111511452Y-93726262D01*
X111747310Y-93804881D01*
X111904548Y-93804881D01*
X112140405Y-93726262D01*
X112219024Y-93647643D01*
X112219024Y-93097310D01*
X111904548Y-93097310D01*
X94393667Y-70055881D02*
X94944000Y-71706881D01*
X95494334Y-70055881D01*
X95376405Y-67594500D02*
X95219167Y-67515881D01*
X94983310Y-67515881D01*
X94747452Y-67594500D01*
X94590214Y-67751738D01*
X94511595Y-67908976D01*
X94432976Y-68223452D01*
X94432976Y-68459310D01*
X94511595Y-68773786D01*
X94590214Y-68931024D01*
X94747452Y-69088262D01*
X94983310Y-69166881D01*
X95140548Y-69166881D01*
X95376405Y-69088262D01*
X95455024Y-69009643D01*
X95455024Y-68459310D01*
X95140548Y-68459310D01*
X131731667Y-70055881D02*
X132282000Y-71706881D01*
X132832334Y-70055881D01*
X132714405Y-67340500D02*
X132557167Y-67261881D01*
X132321310Y-67261881D01*
X132085452Y-67340500D01*
X131928214Y-67497738D01*
X131849595Y-67654976D01*
X131770976Y-67969452D01*
X131770976Y-68205310D01*
X131849595Y-68519786D01*
X131928214Y-68677024D01*
X132085452Y-68834262D01*
X132321310Y-68912881D01*
X132478548Y-68912881D01*
X132714405Y-68834262D01*
X132793024Y-68755643D01*
X132793024Y-68205310D01*
X132478548Y-68205310D01*
X116748619Y-66721666D02*
X115732619Y-66721666D01*
X115732619Y-66334619D01*
X115781000Y-66237857D01*
X115829381Y-66189476D01*
X115926143Y-66141095D01*
X116071286Y-66141095D01*
X116168048Y-66189476D01*
X116216429Y-66237857D01*
X116264810Y-66334619D01*
X116264810Y-66721666D01*
X115732619Y-65802428D02*
X116748619Y-65560523D01*
X116022905Y-65367000D01*
X116748619Y-65173476D01*
X115732619Y-64931571D01*
X116748619Y-63963952D02*
X116264810Y-64302618D01*
X116748619Y-64544523D02*
X115732619Y-64544523D01*
X115732619Y-64157476D01*
X115781000Y-64060714D01*
X115829381Y-64012333D01*
X115926143Y-63963952D01*
X116071286Y-63963952D01*
X116168048Y-64012333D01*
X116216429Y-64060714D01*
X116264810Y-64157476D01*
X116264810Y-64544523D01*
D12*
X120017429Y-63267429D02*
X119146572Y-63267429D01*
X119582000Y-63267429D02*
X119582000Y-61743429D01*
X119436857Y-61961143D01*
X119291715Y-62106286D01*
X119146572Y-62178857D01*
X122503000Y-56736000D02*
X122503000Y-56672500D01*
X126948000Y-56926500D02*
X126948000Y-56609000D01*
X128154500Y-56926500D02*
X126948000Y-56926500D01*
X128154500Y-58577500D02*
X128154500Y-56926500D01*
X122503000Y-56926500D02*
X122503000Y-56799500D01*
X120471000Y-56926500D02*
X122503000Y-56926500D01*
X120471000Y-58577500D02*
X120471000Y-56926500D01*
D11*
X112639333Y-66605714D02*
X112639333Y-66121905D01*
X112929619Y-66702476D02*
X111913619Y-66363809D01*
X112929619Y-66025143D01*
X112929619Y-65686476D02*
X111913619Y-65686476D01*
X111913619Y-65299429D01*
X111962000Y-65202667D01*
X112010381Y-65154286D01*
X112107143Y-65105905D01*
X112252286Y-65105905D01*
X112349048Y-65154286D01*
X112397429Y-65202667D01*
X112445810Y-65299429D01*
X112445810Y-65686476D01*
X112881238Y-64718857D02*
X112929619Y-64573714D01*
X112929619Y-64331810D01*
X112881238Y-64235048D01*
X112832857Y-64186667D01*
X112736095Y-64138286D01*
X112639333Y-64138286D01*
X112542571Y-64186667D01*
X112494190Y-64235048D01*
X112445810Y-64331810D01*
X112397429Y-64525333D01*
X112349048Y-64622095D01*
X112300667Y-64670476D01*
X112203905Y-64718857D01*
X112107143Y-64718857D01*
X112010381Y-64670476D01*
X111962000Y-64622095D01*
X111913619Y-64525333D01*
X111913619Y-64283429D01*
X111962000Y-64138286D01*
D13*
X122405029Y-97628186D02*
X121770029Y-96721043D01*
X121316457Y-97628186D02*
X121316457Y-95723186D01*
X122042172Y-95723186D01*
X122223600Y-95813900D01*
X122314315Y-95904614D01*
X122405029Y-96086043D01*
X122405029Y-96358186D01*
X122314315Y-96539614D01*
X122223600Y-96630329D01*
X122042172Y-96721043D01*
X121316457Y-96721043D01*
X123221457Y-96630329D02*
X123856457Y-96630329D01*
X124128600Y-97628186D02*
X123221457Y-97628186D01*
X123221457Y-95723186D01*
X124128600Y-95723186D01*
X124672886Y-95723186D02*
X125307886Y-97628186D01*
X125942886Y-95723186D01*
X127847886Y-95723186D02*
X129117886Y-97628186D01*
X129117886Y-95723186D02*
X127847886Y-97628186D01*
X130660029Y-95723186D02*
X130297172Y-95723186D01*
X130115743Y-95813900D01*
X130025029Y-95904614D01*
X129843600Y-96176757D01*
X129752886Y-96539614D01*
X129752886Y-97265329D01*
X129843600Y-97446757D01*
X129934315Y-97537471D01*
X130115743Y-97628186D01*
X130478600Y-97628186D01*
X130660029Y-97537471D01*
X130750743Y-97446757D01*
X130841458Y-97265329D01*
X130841458Y-96811757D01*
X130750743Y-96630329D01*
X130660029Y-96539614D01*
X130478600Y-96448900D01*
X130115743Y-96448900D01*
X129934315Y-96539614D01*
X129843600Y-96630329D01*
X129752886Y-96811757D01*
D12*
X123174286Y-58060429D02*
X123174286Y-56536429D01*
X123827429Y-57987857D02*
X124045143Y-58060429D01*
X124408000Y-58060429D01*
X124553143Y-57987857D01*
X124625714Y-57915286D01*
X124698286Y-57770143D01*
X124698286Y-57625000D01*
X124625714Y-57479857D01*
X124553143Y-57407286D01*
X124408000Y-57334714D01*
X124117714Y-57262143D01*
X123972572Y-57189571D01*
X123900000Y-57117000D01*
X123827429Y-56971857D01*
X123827429Y-56826714D01*
X123900000Y-56681571D01*
X123972572Y-56609000D01*
X124117714Y-56536429D01*
X124480572Y-56536429D01*
X124698286Y-56609000D01*
X125351429Y-58060429D02*
X125351429Y-56536429D01*
X125932001Y-56536429D01*
X126077143Y-56609000D01*
X126149715Y-56681571D01*
X126222286Y-56826714D01*
X126222286Y-57044429D01*
X126149715Y-57189571D01*
X126077143Y-57262143D01*
X125932001Y-57334714D01*
X125351429Y-57334714D01*
D11*
X97350953Y-59983571D02*
X98125048Y-59983571D01*
X97738000Y-60370619D02*
X97738000Y-59596524D01*
X119749667Y-89695881D02*
X120300000Y-91346881D01*
X120850334Y-89695881D01*
X133282881Y-87926595D02*
X131631881Y-87926595D01*
X131631881Y-87533500D01*
X131710500Y-87297642D01*
X131867738Y-87140404D01*
X132024976Y-87061785D01*
X132339452Y-86983166D01*
X132575310Y-86983166D01*
X132889786Y-87061785D01*
X133047024Y-87140404D01*
X133204262Y-87297642D01*
X133282881Y-87533500D01*
X133282881Y-87926595D01*
X132339452Y-86039738D02*
X132260833Y-86196976D01*
X132182214Y-86275595D01*
X132024976Y-86354214D01*
X131946357Y-86354214D01*
X131789119Y-86275595D01*
X131710500Y-86196976D01*
X131631881Y-86039738D01*
X131631881Y-85725261D01*
X131710500Y-85568023D01*
X131789119Y-85489404D01*
X131946357Y-85410785D01*
X132024976Y-85410785D01*
X132182214Y-85489404D01*
X132260833Y-85568023D01*
X132339452Y-85725261D01*
X132339452Y-86039738D01*
X132418071Y-86196976D01*
X132496690Y-86275595D01*
X132653929Y-86354214D01*
X132968405Y-86354214D01*
X133125643Y-86275595D01*
X133204262Y-86196976D01*
X133282881Y-86039738D01*
X133282881Y-85725261D01*
X133204262Y-85568023D01*
X133125643Y-85489404D01*
X132968405Y-85410785D01*
X132653929Y-85410785D01*
X132496690Y-85489404D01*
X132418071Y-85568023D01*
X132339452Y-85725261D01*
X135174576Y-84966285D02*
X135108052Y-85111427D01*
X134975005Y-85183999D01*
X133777576Y-85183999D01*
X135174576Y-83732570D02*
X134442814Y-83732570D01*
X134309767Y-83805141D01*
X134243243Y-83950284D01*
X134243243Y-84240570D01*
X134309767Y-84385713D01*
X135108052Y-83732570D02*
X135174576Y-83877713D01*
X135174576Y-84240570D01*
X135108052Y-84385713D01*
X134975005Y-84458284D01*
X134841957Y-84458284D01*
X134708910Y-84385713D01*
X134642386Y-84240570D01*
X134642386Y-83877713D01*
X134575862Y-83732570D01*
X134243243Y-83006856D02*
X135174576Y-83006856D01*
X134376290Y-83006856D02*
X134309767Y-82934284D01*
X134243243Y-82789142D01*
X134243243Y-82571427D01*
X134309767Y-82426284D01*
X134442814Y-82353713D01*
X135174576Y-82353713D01*
X135174576Y-80974856D02*
X133777576Y-80974856D01*
X135108052Y-80974856D02*
X135174576Y-81119999D01*
X135174576Y-81410285D01*
X135108052Y-81555427D01*
X135041529Y-81627999D01*
X134908481Y-81700570D01*
X134509338Y-81700570D01*
X134376290Y-81627999D01*
X134309767Y-81555427D01*
X134243243Y-81410285D01*
X134243243Y-81119999D01*
X134309767Y-80974856D01*
X134642386Y-80249142D02*
X134642386Y-79087999D01*
X135174576Y-78362285D02*
X133777576Y-78362285D01*
X134309767Y-78362285D02*
X134243243Y-78217142D01*
X134243243Y-77926856D01*
X134309767Y-77781713D01*
X134376290Y-77709142D01*
X134509338Y-77636571D01*
X134908481Y-77636571D01*
X135041529Y-77709142D01*
X135108052Y-77781713D01*
X135174576Y-77926856D01*
X135174576Y-78217142D01*
X135108052Y-78362285D01*
X135174576Y-76765714D02*
X135108052Y-76910856D01*
X135041529Y-76983428D01*
X134908481Y-77055999D01*
X134509338Y-77055999D01*
X134376290Y-76983428D01*
X134309767Y-76910856D01*
X134243243Y-76765714D01*
X134243243Y-76547999D01*
X134309767Y-76402856D01*
X134376290Y-76330285D01*
X134509338Y-76257714D01*
X134908481Y-76257714D01*
X135041529Y-76330285D01*
X135108052Y-76402856D01*
X135174576Y-76547999D01*
X135174576Y-76765714D01*
X135174576Y-74951428D02*
X134442814Y-74951428D01*
X134309767Y-75023999D01*
X134243243Y-75169142D01*
X134243243Y-75459428D01*
X134309767Y-75604571D01*
X135108052Y-74951428D02*
X135174576Y-75096571D01*
X135174576Y-75459428D01*
X135108052Y-75604571D01*
X134975005Y-75677142D01*
X134841957Y-75677142D01*
X134708910Y-75604571D01*
X134642386Y-75459428D01*
X134642386Y-75096571D01*
X134575862Y-74951428D01*
X135174576Y-74225714D02*
X134243243Y-74225714D01*
X134509338Y-74225714D02*
X134376290Y-74153142D01*
X134309767Y-74080571D01*
X134243243Y-73935428D01*
X134243243Y-73790285D01*
X135174576Y-72629142D02*
X133777576Y-72629142D01*
X135108052Y-72629142D02*
X135174576Y-72774285D01*
X135174576Y-73064571D01*
X135108052Y-73209713D01*
X135041529Y-73282285D01*
X134908481Y-73354856D01*
X134509338Y-73354856D01*
X134376290Y-73282285D01*
X134309767Y-73209713D01*
X134243243Y-73064571D01*
X134243243Y-72774285D01*
X134309767Y-72629142D01*
X135108052Y-71975999D02*
X135174576Y-71830856D01*
X135174576Y-71540571D01*
X135108052Y-71395428D01*
X134975005Y-71322856D01*
X134908481Y-71322856D01*
X134775433Y-71395428D01*
X134708910Y-71540571D01*
X134708910Y-71758285D01*
X134642386Y-71903428D01*
X134509338Y-71975999D01*
X134442814Y-71975999D01*
X134309767Y-71903428D01*
X134243243Y-71758285D01*
X134243243Y-71540571D01*
X134309767Y-71395428D01*
X135041529Y-70669714D02*
X135108052Y-70597142D01*
X135174576Y-70669714D01*
X135108052Y-70742285D01*
X135041529Y-70669714D01*
X135174576Y-70669714D01*
X135108052Y-69290857D02*
X135174576Y-69436000D01*
X135174576Y-69726286D01*
X135108052Y-69871428D01*
X135041529Y-69944000D01*
X134908481Y-70016571D01*
X134509338Y-70016571D01*
X134376290Y-69944000D01*
X134309767Y-69871428D01*
X134243243Y-69726286D01*
X134243243Y-69436000D01*
X134309767Y-69290857D01*
X135174576Y-68420000D02*
X135108052Y-68565142D01*
X135041529Y-68637714D01*
X134908481Y-68710285D01*
X134509338Y-68710285D01*
X134376290Y-68637714D01*
X134309767Y-68565142D01*
X134243243Y-68420000D01*
X134243243Y-68202285D01*
X134309767Y-68057142D01*
X134376290Y-67984571D01*
X134509338Y-67912000D01*
X134908481Y-67912000D01*
X135041529Y-67984571D01*
X135108052Y-68057142D01*
X135174576Y-68202285D01*
X135174576Y-68420000D01*
X135174576Y-67258857D02*
X134243243Y-67258857D01*
X134376290Y-67258857D02*
X134309767Y-67186285D01*
X134243243Y-67041143D01*
X134243243Y-66823428D01*
X134309767Y-66678285D01*
X134442814Y-66605714D01*
X135174576Y-66605714D01*
X134442814Y-66605714D02*
X134309767Y-66533143D01*
X134243243Y-66388000D01*
X134243243Y-66170285D01*
X134309767Y-66025143D01*
X134442814Y-65952571D01*
X135174576Y-65952571D01*
X133711052Y-64138285D02*
X135507195Y-65444571D01*
X136053900Y-78942857D02*
X135987376Y-79088000D01*
X135987376Y-79305714D01*
X136053900Y-79523429D01*
X136186948Y-79668571D01*
X136319995Y-79741143D01*
X136586090Y-79813714D01*
X136785662Y-79813714D01*
X137051757Y-79741143D01*
X137184805Y-79668571D01*
X137317852Y-79523429D01*
X137384376Y-79305714D01*
X137384376Y-79160571D01*
X137317852Y-78942857D01*
X137251329Y-78870286D01*
X136785662Y-78870286D01*
X136785662Y-79160571D01*
X135987376Y-78434857D02*
X137384376Y-77926857D01*
X135987376Y-77418857D01*
X137317852Y-76983428D02*
X137384376Y-76765714D01*
X137384376Y-76402857D01*
X137317852Y-76257714D01*
X137251329Y-76185143D01*
X137118281Y-76112571D01*
X136985233Y-76112571D01*
X136852186Y-76185143D01*
X136785662Y-76257714D01*
X136719138Y-76402857D01*
X136652614Y-76693143D01*
X136586090Y-76838285D01*
X136519567Y-76910857D01*
X136386519Y-76983428D01*
X136253471Y-76983428D01*
X136120424Y-76910857D01*
X136053900Y-76838285D01*
X135987376Y-76693143D01*
X135987376Y-76330285D01*
X136053900Y-76112571D01*
X137384376Y-75459428D02*
X135987376Y-75459428D01*
X135987376Y-75096571D01*
X136053900Y-74878856D01*
X136186948Y-74733714D01*
X136319995Y-74661142D01*
X136586090Y-74588571D01*
X136785662Y-74588571D01*
X137051757Y-74661142D01*
X137184805Y-74733714D01*
X137317852Y-74878856D01*
X137384376Y-75096571D01*
X137384376Y-75459428D01*
X136453043Y-73282285D02*
X137384376Y-73282285D01*
X136453043Y-73935428D02*
X137184805Y-73935428D01*
X137317852Y-73862856D01*
X137384376Y-73717714D01*
X137384376Y-73499999D01*
X137317852Y-73354856D01*
X137251329Y-73282285D01*
X137384376Y-72556571D02*
X136453043Y-72556571D01*
X135987376Y-72556571D02*
X136053900Y-72629142D01*
X136120424Y-72556571D01*
X136053900Y-72483999D01*
X135987376Y-72556571D01*
X136120424Y-72556571D01*
X136453043Y-71830857D02*
X137384376Y-71830857D01*
X136586090Y-71830857D02*
X136519567Y-71758285D01*
X136453043Y-71613143D01*
X136453043Y-71395428D01*
X136519567Y-71250285D01*
X136652614Y-71177714D01*
X137384376Y-71177714D01*
X137384376Y-70234286D02*
X137317852Y-70379428D01*
X137251329Y-70452000D01*
X137118281Y-70524571D01*
X136719138Y-70524571D01*
X136586090Y-70452000D01*
X136519567Y-70379428D01*
X136453043Y-70234286D01*
X136453043Y-70016571D01*
X136519567Y-69871428D01*
X136586090Y-69798857D01*
X136719138Y-69726286D01*
X137118281Y-69726286D01*
X137251329Y-69798857D01*
X137317852Y-69871428D01*
X137384376Y-70016571D01*
X137384376Y-70234286D01*
X118121429Y-73724810D02*
X118121429Y-74063476D01*
X118653619Y-74063476D02*
X117637619Y-74063476D01*
X117637619Y-73579667D01*
X117637619Y-73337762D02*
X117637619Y-72757191D01*
X118653619Y-73047476D02*
X117637619Y-73047476D01*
X118653619Y-72418524D02*
X117637619Y-72418524D01*
X117637619Y-72176619D01*
X117686000Y-72031477D01*
X117782762Y-71934715D01*
X117879524Y-71886334D01*
X118073048Y-71837953D01*
X118218190Y-71837953D01*
X118411714Y-71886334D01*
X118508476Y-71934715D01*
X118605238Y-72031477D01*
X118653619Y-72176619D01*
X118653619Y-72418524D01*
X118653619Y-71402524D02*
X117637619Y-71402524D01*
X118526619Y-69830143D02*
X118042810Y-70168809D01*
X118526619Y-70410714D02*
X117510619Y-70410714D01*
X117510619Y-70023667D01*
X117559000Y-69926905D01*
X117607381Y-69878524D01*
X117704143Y-69830143D01*
X117849286Y-69830143D01*
X117946048Y-69878524D01*
X117994429Y-69926905D01*
X118042810Y-70023667D01*
X118042810Y-70410714D01*
X117994429Y-69394714D02*
X117994429Y-69056048D01*
X118526619Y-68910905D02*
X118526619Y-69394714D01*
X117510619Y-69394714D01*
X117510619Y-68910905D01*
X117559000Y-67943286D02*
X117510619Y-68040048D01*
X117510619Y-68185191D01*
X117559000Y-68330333D01*
X117655762Y-68427095D01*
X117752524Y-68475476D01*
X117946048Y-68523857D01*
X118091190Y-68523857D01*
X118284714Y-68475476D01*
X118381476Y-68427095D01*
X118478238Y-68330333D01*
X118526619Y-68185191D01*
X118526619Y-68088429D01*
X118478238Y-67943286D01*
X118429857Y-67894905D01*
X118091190Y-67894905D01*
X118091190Y-68088429D01*
X109062096Y-86781619D02*
X109062096Y-85765619D01*
X109304001Y-85765619D01*
X109449143Y-85814000D01*
X109545905Y-85910762D01*
X109594286Y-86007524D01*
X109642667Y-86201048D01*
X109642667Y-86346190D01*
X109594286Y-86539714D01*
X109545905Y-86636476D01*
X109449143Y-86733238D01*
X109304001Y-86781619D01*
X109062096Y-86781619D01*
X110513524Y-86104286D02*
X110513524Y-86781619D01*
X110271620Y-85717238D02*
X110029715Y-86442952D01*
X110658667Y-86442952D01*
X98563448Y-96626800D02*
X98411067Y-96550610D01*
X98182495Y-96550610D01*
X97953924Y-96626800D01*
X97801543Y-96779181D01*
X97725352Y-96931562D01*
X97649162Y-97236324D01*
X97649162Y-97464895D01*
X97725352Y-97769657D01*
X97801543Y-97922038D01*
X97953924Y-98074419D01*
X98182495Y-98150610D01*
X98334876Y-98150610D01*
X98563448Y-98074419D01*
X98639638Y-97998229D01*
X98639638Y-97464895D01*
X98334876Y-97464895D01*
X120970524Y-88948381D02*
X119700524Y-88948381D01*
X119700524Y-88646000D01*
X119761000Y-88464572D01*
X119881952Y-88343619D01*
X120002905Y-88283143D01*
X120244810Y-88222667D01*
X120426238Y-88222667D01*
X120668143Y-88283143D01*
X120789095Y-88343619D01*
X120910048Y-88464572D01*
X120970524Y-88646000D01*
X120970524Y-88948381D01*
X119700524Y-87073619D02*
X119700524Y-87678381D01*
X120305286Y-87738857D01*
X120244810Y-87678381D01*
X120184333Y-87557429D01*
X120184333Y-87255048D01*
X120244810Y-87134095D01*
X120305286Y-87073619D01*
X120426238Y-87013143D01*
X120728619Y-87013143D01*
X120849571Y-87073619D01*
X120910048Y-87134095D01*
X120970524Y-87255048D01*
X120970524Y-87557429D01*
X120910048Y-87678381D01*
X120849571Y-87738857D01*
X105412953Y-95072571D02*
X106187048Y-95072571D01*
X105800000Y-95459619D02*
X105800000Y-94685524D01*
X120912405Y-92608500D02*
X120755167Y-92529881D01*
X120519310Y-92529881D01*
X120283452Y-92608500D01*
X120126214Y-92765738D01*
X120047595Y-92922976D01*
X119968976Y-93237452D01*
X119968976Y-93473310D01*
X120047595Y-93787786D01*
X120126214Y-93945024D01*
X120283452Y-94102262D01*
X120519310Y-94180881D01*
X120676548Y-94180881D01*
X120912405Y-94102262D01*
X120991024Y-94023643D01*
X120991024Y-93473310D01*
X120676548Y-93473310D01*
X98110524Y-88948381D02*
X96840524Y-88948381D01*
X96840524Y-88646000D01*
X96901000Y-88464572D01*
X97021952Y-88343619D01*
X97142905Y-88283143D01*
X97384810Y-88222667D01*
X97566238Y-88222667D01*
X97808143Y-88283143D01*
X97929095Y-88343619D01*
X98050048Y-88464572D01*
X98110524Y-88646000D01*
X98110524Y-88948381D01*
X96840524Y-87436476D02*
X96840524Y-87315524D01*
X96901000Y-87194572D01*
X96961476Y-87134095D01*
X97082429Y-87073619D01*
X97324333Y-87013143D01*
X97626714Y-87013143D01*
X97868619Y-87073619D01*
X97989571Y-87134095D01*
X98050048Y-87194572D01*
X98110524Y-87315524D01*
X98110524Y-87436476D01*
X98050048Y-87557429D01*
X97989571Y-87617905D01*
X97868619Y-87678381D01*
X97626714Y-87738857D01*
X97324333Y-87738857D01*
X97082429Y-87678381D01*
X96961476Y-87617905D01*
X96901000Y-87557429D01*
X96840524Y-87436476D01*
X133536881Y-75226595D02*
X131885881Y-75226595D01*
X131885881Y-74833500D01*
X131964500Y-74597642D01*
X132121738Y-74440404D01*
X132278976Y-74361785D01*
X132593452Y-74283166D01*
X132829310Y-74283166D01*
X133143786Y-74361785D01*
X133301024Y-74440404D01*
X133458262Y-74597642D01*
X133536881Y-74833500D01*
X133536881Y-75226595D01*
X133536881Y-73496976D02*
X133536881Y-73182500D01*
X133458262Y-73025261D01*
X133379643Y-72946642D01*
X133143786Y-72789404D01*
X132829310Y-72710785D01*
X132200357Y-72710785D01*
X132043119Y-72789404D01*
X131964500Y-72868023D01*
X131885881Y-73025261D01*
X131885881Y-73339738D01*
X131964500Y-73496976D01*
X132043119Y-73575595D01*
X132200357Y-73654214D01*
X132593452Y-73654214D01*
X132750690Y-73575595D01*
X132829310Y-73496976D01*
X132907929Y-73339738D01*
X132907929Y-73025261D01*
X132829310Y-72868023D01*
X132750690Y-72789404D01*
X132593452Y-72710785D01*
X95291667Y-74601714D02*
X95291667Y-74117905D01*
X95654524Y-74698476D02*
X94384524Y-74359809D01*
X95654524Y-74021143D01*
X95654524Y-73682476D02*
X94384524Y-73682476D01*
X94384524Y-73440571D01*
X94445000Y-73295429D01*
X94565952Y-73198667D01*
X94686905Y-73150286D01*
X94928810Y-73101905D01*
X95110238Y-73101905D01*
X95352143Y-73150286D01*
X95473095Y-73198667D01*
X95594048Y-73295429D01*
X95654524Y-73440571D01*
X95654524Y-73682476D01*
X94384524Y-72182667D02*
X94384524Y-72666476D01*
X94989286Y-72714857D01*
X94928810Y-72666476D01*
X94868333Y-72569714D01*
X94868333Y-72327810D01*
X94928810Y-72231048D01*
X94989286Y-72182667D01*
X95110238Y-72134286D01*
X95412619Y-72134286D01*
X95533571Y-72182667D01*
X95594048Y-72231048D01*
X95654524Y-72327810D01*
X95654524Y-72569714D01*
X95594048Y-72666476D01*
X95533571Y-72714857D01*
X115831715Y-97497457D02*
X115331715Y-97497457D01*
X115331715Y-98283171D02*
X115331715Y-96783171D01*
X116046001Y-96783171D01*
X116403143Y-96783171D02*
X117260286Y-96783171D01*
X116831715Y-98283171D02*
X116831715Y-96783171D01*
X117760286Y-98283171D02*
X117760286Y-96783171D01*
X118117429Y-96783171D01*
X118331714Y-96854600D01*
X118474572Y-96997457D01*
X118546000Y-97140314D01*
X118617429Y-97426029D01*
X118617429Y-97640314D01*
X118546000Y-97926029D01*
X118474572Y-98068886D01*
X118331714Y-98211743D01*
X118117429Y-98283171D01*
X117760286Y-98283171D01*
X119260286Y-98283171D02*
X119260286Y-96783171D01*
D14*
X111962000Y-56736000D02*
X111962000Y-59784000D01*
X111962000Y-59784000D02*
X119074000Y-59784000D01*
X119074000Y-59784000D02*
X119074000Y-56736000D01*
X111962000Y-53688000D02*
X111962000Y-52926000D01*
X111962000Y-52926000D02*
X113486000Y-50640000D01*
X113486000Y-50640000D02*
X117550000Y-50640000D01*
X117550000Y-50640000D02*
X119074000Y-52926000D01*
X119074000Y-52926000D02*
X119074000Y-53688000D01*
D15*
X118007200Y-63086000D02*
X112978000Y-63086000D01*
X112978000Y-63086000D02*
X112978000Y-60546000D01*
X112978000Y-60546000D02*
X118058000Y-60546000D01*
X118058000Y-60546000D02*
X118058000Y-63086000D01*
X118058000Y-62451000D02*
X117423000Y-63086000D01*
X96163200Y-89502000D02*
X91134000Y-89502000D01*
X91134000Y-89502000D02*
X91134000Y-86962000D01*
X91134000Y-86962000D02*
X96214000Y-86962000D01*
X96214000Y-86962000D02*
X96214000Y-89502000D01*
X96214000Y-88867000D02*
X95579000Y-89502000D01*
X109625200Y-66134000D02*
X104596000Y-66134000D01*
X104596000Y-66134000D02*
X104596000Y-63594000D01*
X104596000Y-63594000D02*
X109676000Y-63594000D01*
X109676000Y-63594000D02*
X109676000Y-66134000D01*
X109676000Y-65499000D02*
X109041000Y-66134000D01*
D12*
X94572000Y-78194000D02*
X132672000Y-78194000D01*
X132672000Y-78194000D02*
X132672000Y-83274000D01*
X132672000Y-83274000D02*
X94572000Y-83274000D01*
X94572000Y-83274000D02*
X94572000Y-78194000D01*
X94572000Y-79464000D02*
X95842000Y-79464000D01*
X95842000Y-79464000D02*
X95842000Y-82004000D01*
X95842000Y-82004000D02*
X94572000Y-82004000D01*
D15*
X99380000Y-98270000D02*
X99380000Y-95730000D01*
X99380000Y-95730000D02*
X114620000Y-95730000D01*
X114620000Y-95730000D02*
X114620000Y-98270000D01*
X114620000Y-98270000D02*
X99380000Y-98270000D01*
X101920000Y-98270000D02*
X101920000Y-95730000D01*
D16*
X111082000Y-94450000D02*
X108542000Y-94450000D01*
X108542000Y-94450000D02*
X108542000Y-86830000D01*
X108542000Y-86830000D02*
X111082000Y-86830000D01*
X111082000Y-86830000D02*
X111082000Y-94450000D01*
X108542000Y-91910000D02*
X111082000Y-91910000D01*
X118702000Y-67018000D02*
X121242000Y-67018000D01*
X121242000Y-67018000D02*
X121242000Y-74638000D01*
X121242000Y-74638000D02*
X118702000Y-74638000D01*
X118702000Y-74638000D02*
X118702000Y-67018000D01*
X121242000Y-69558000D02*
X118702000Y-69558000D01*
X121242000Y-67018000D02*
X123782000Y-67018000D01*
X123782000Y-67018000D02*
X123782000Y-74638000D01*
X123782000Y-74638000D02*
X121242000Y-74638000D01*
X121242000Y-74638000D02*
X121242000Y-67018000D01*
X123782000Y-69558000D02*
X121242000Y-69558000D01*
X123782000Y-67018000D02*
X126322000Y-67018000D01*
X126322000Y-67018000D02*
X126322000Y-74638000D01*
X126322000Y-74638000D02*
X123782000Y-74638000D01*
X123782000Y-74638000D02*
X123782000Y-67018000D01*
X126322000Y-69558000D02*
X123782000Y-69558000D01*
X126322000Y-67018000D02*
X128862000Y-67018000D01*
X128862000Y-67018000D02*
X128862000Y-74638000D01*
X128862000Y-74638000D02*
X126322000Y-74638000D01*
X126322000Y-74638000D02*
X126322000Y-67018000D01*
X128862000Y-69558000D02*
X126322000Y-69558000D01*
X128862000Y-67018000D02*
X131402000Y-67018000D01*
X131402000Y-67018000D02*
X131402000Y-74638000D01*
X131402000Y-74638000D02*
X128862000Y-74638000D01*
X128862000Y-74638000D02*
X128862000Y-67018000D01*
X131402000Y-69558000D02*
X128862000Y-69558000D01*
X131402000Y-94450000D02*
X128862000Y-94450000D01*
X128862000Y-94450000D02*
X128862000Y-86830000D01*
X128862000Y-86830000D02*
X131402000Y-86830000D01*
X131402000Y-86830000D02*
X131402000Y-94450000D01*
X128862000Y-91910000D02*
X131402000Y-91910000D01*
X128862000Y-94450000D02*
X126322000Y-94450000D01*
X126322000Y-94450000D02*
X126322000Y-86830000D01*
X126322000Y-86830000D02*
X128862000Y-86830000D01*
X128862000Y-86830000D02*
X128862000Y-94450000D01*
X126322000Y-91910000D02*
X128862000Y-91910000D01*
X126322000Y-94450000D02*
X123782000Y-94450000D01*
X123782000Y-94450000D02*
X123782000Y-86830000D01*
X123782000Y-86830000D02*
X126322000Y-86830000D01*
X126322000Y-86830000D02*
X126322000Y-94450000D01*
X123782000Y-91910000D02*
X126322000Y-91910000D01*
X123782000Y-94450000D02*
X121242000Y-94450000D01*
X121242000Y-94450000D02*
X121242000Y-86830000D01*
X121242000Y-86830000D02*
X123782000Y-86830000D01*
X123782000Y-86830000D02*
X123782000Y-94450000D01*
X121242000Y-91910000D02*
X123782000Y-91910000D01*
X108542000Y-67018000D02*
X111082000Y-67018000D01*
X111082000Y-67018000D02*
X111082000Y-74638000D01*
X111082000Y-74638000D02*
X108542000Y-74638000D01*
X108542000Y-74638000D02*
X108542000Y-67018000D01*
X111082000Y-69558000D02*
X108542000Y-69558000D01*
X108542000Y-94450000D02*
X106002000Y-94450000D01*
X106002000Y-94450000D02*
X106002000Y-86830000D01*
X106002000Y-86830000D02*
X108542000Y-86830000D01*
X108542000Y-86830000D02*
X108542000Y-94450000D01*
X106002000Y-91910000D02*
X108542000Y-91910000D01*
X106002000Y-94450000D02*
X103462000Y-94450000D01*
X103462000Y-94450000D02*
X103462000Y-86830000D01*
X103462000Y-86830000D02*
X106002000Y-86830000D01*
X106002000Y-86830000D02*
X106002000Y-94450000D01*
X103462000Y-91910000D02*
X106002000Y-91910000D01*
X103462000Y-94450000D02*
X100922000Y-94450000D01*
X100922000Y-94450000D02*
X100922000Y-86830000D01*
X100922000Y-86830000D02*
X103462000Y-86830000D01*
X103462000Y-86830000D02*
X103462000Y-94450000D01*
X100922000Y-91910000D02*
X103462000Y-91910000D01*
X100922000Y-94450000D02*
X98382000Y-94450000D01*
X98382000Y-94450000D02*
X98382000Y-86830000D01*
X98382000Y-86830000D02*
X100922000Y-86830000D01*
X100922000Y-86830000D02*
X100922000Y-94450000D01*
X98382000Y-91910000D02*
X100922000Y-91910000D01*
X95842000Y-67018000D02*
X98382000Y-67018000D01*
X98382000Y-67018000D02*
X98382000Y-74638000D01*
X98382000Y-74638000D02*
X95842000Y-74638000D01*
X95842000Y-74638000D02*
X95842000Y-67018000D01*
X98382000Y-69558000D02*
X95842000Y-69558000D01*
X98382000Y-67018000D02*
X100922000Y-67018000D01*
X100922000Y-67018000D02*
X100922000Y-74638000D01*
X100922000Y-74638000D02*
X98382000Y-74638000D01*
X98382000Y-74638000D02*
X98382000Y-67018000D01*
X100922000Y-69558000D02*
X98382000Y-69558000D01*
X100922000Y-67018000D02*
X103462000Y-67018000D01*
X103462000Y-67018000D02*
X103462000Y-74638000D01*
X103462000Y-74638000D02*
X100922000Y-74638000D01*
X100922000Y-74638000D02*
X100922000Y-67018000D01*
X103462000Y-69558000D02*
X100922000Y-69558000D01*
X103462000Y-67018000D02*
X106002000Y-67018000D01*
X106002000Y-67018000D02*
X106002000Y-74638000D01*
X106002000Y-74638000D02*
X103462000Y-74638000D01*
X103462000Y-74638000D02*
X103462000Y-67018000D01*
X106002000Y-69558000D02*
X103462000Y-69558000D01*
X106002000Y-67018000D02*
X108542000Y-67018000D01*
X108542000Y-67018000D02*
X108542000Y-74638000D01*
X108542000Y-74638000D02*
X106002000Y-74638000D01*
X106002000Y-74638000D02*
X106002000Y-67018000D01*
X108542000Y-69558000D02*
X106002000Y-69558000D01*
D15*
X93810000Y-75908000D02*
X93810000Y-83528000D01*
X93810000Y-83528000D02*
X91270000Y-83528000D01*
X91270000Y-83528000D02*
X91270000Y-75908000D01*
X91270000Y-75908000D02*
X93810000Y-75908000D01*
X93810000Y-82893000D02*
X91270000Y-82893000D01*
X91270000Y-82258000D02*
X93810000Y-82258000D01*
X92540000Y-75908000D02*
X92540000Y-74638000D01*
X92540000Y-83528000D02*
X92540000Y-84798000D01*
X92540000Y-61938000D02*
X92540000Y-62954000D01*
X92540000Y-62954000D02*
X93556000Y-62954000D01*
X93556000Y-62954000D02*
X93556000Y-71082000D01*
X93556000Y-71082000D02*
X91524000Y-71082000D01*
X91524000Y-71082000D02*
X91524000Y-62954000D01*
X91524000Y-62954000D02*
X92540000Y-62954000D01*
X93048000Y-62954000D02*
X93556000Y-63462000D01*
X92540000Y-72098000D02*
X92540000Y-71082000D01*
D16*
X111082000Y-67018000D02*
X113622000Y-67018000D01*
X113622000Y-67018000D02*
X113622000Y-74638000D01*
X113622000Y-74638000D02*
X111082000Y-74638000D01*
X111082000Y-74638000D02*
X111082000Y-67018000D01*
X113622000Y-69558000D02*
X111082000Y-69558000D01*
X114892000Y-67018000D02*
X117432000Y-67018000D01*
X117432000Y-67018000D02*
X117432000Y-74638000D01*
X117432000Y-74638000D02*
X114892000Y-74638000D01*
X114892000Y-74638000D02*
X114892000Y-67018000D01*
X117432000Y-69558000D02*
X114892000Y-69558000D01*
D12*
X112402800Y-86857940D02*
X118905200Y-86857940D01*
X118905200Y-86857940D02*
X118905200Y-90358060D01*
X118905200Y-90358060D02*
X112402800Y-90358060D01*
X112402800Y-90358060D02*
X112402800Y-86857940D01*
D15*
X120480000Y-58636000D02*
X135720000Y-58636000D01*
X135720000Y-58636000D02*
X135720000Y-63716000D01*
X135720000Y-63716000D02*
X120480000Y-63716000D01*
X120480000Y-63716000D02*
X120480000Y-58636000D01*
X114044800Y-92550000D02*
X119074000Y-92550000D01*
X119074000Y-92550000D02*
X119074000Y-95090000D01*
X119074000Y-95090000D02*
X113994000Y-95090000D01*
X113994000Y-95090000D02*
X113994000Y-92550000D01*
X113994000Y-93185000D02*
X114629000Y-92550000D01*
X137616000Y-86250800D02*
X137616000Y-91280000D01*
X137616000Y-91280000D02*
X135076000Y-91280000D01*
X135076000Y-91280000D02*
X135076000Y-86200000D01*
X135076000Y-86200000D02*
X137616000Y-86200000D01*
X136981000Y-86200000D02*
X137616000Y-86835000D01*
D10*
X97937000Y-64569000D02*
X97937000Y-59571000D01*
X97797000Y-64561000D02*
X97797000Y-59579000D01*
X97657000Y-64545000D02*
X97657000Y-62165000D01*
X97657000Y-61975000D02*
X97657000Y-59595000D01*
X97517000Y-64521000D02*
X97517000Y-62560000D01*
X97517000Y-61580000D02*
X97517000Y-59619000D01*
X97377000Y-64488000D02*
X97377000Y-62727000D01*
X97377000Y-61413000D02*
X97377000Y-59652000D01*
X97237000Y-64447000D02*
X97237000Y-62834000D01*
X97237000Y-61306000D02*
X97237000Y-59693000D01*
X97097000Y-64397000D02*
X97097000Y-62905000D01*
X97097000Y-61235000D02*
X97097000Y-59743000D01*
X96957000Y-64336000D02*
X96957000Y-62949000D01*
X96957000Y-61191000D02*
X96957000Y-59804000D01*
X96817000Y-64266000D02*
X96817000Y-62968000D01*
X96817000Y-61172000D02*
X96817000Y-59874000D01*
X96677000Y-64184000D02*
X96677000Y-62966000D01*
X96677000Y-61174000D02*
X96677000Y-59956000D01*
X96537000Y-64089000D02*
X96537000Y-62941000D01*
X96537000Y-61199000D02*
X96537000Y-60051000D01*
X96397000Y-63978000D02*
X96397000Y-62893000D01*
X96397000Y-61247000D02*
X96397000Y-60162000D01*
X96257000Y-63850000D02*
X96257000Y-62815000D01*
X96257000Y-61325000D02*
X96257000Y-60290000D01*
X96117000Y-63701000D02*
X96117000Y-62698000D01*
X96117000Y-61442000D02*
X96117000Y-60439000D01*
X95977000Y-63522000D02*
X95977000Y-62510000D01*
X95977000Y-61630000D02*
X95977000Y-60618000D01*
X95837000Y-63303000D02*
X95837000Y-60837000D01*
X95697000Y-63014000D02*
X95697000Y-61126000D01*
X95557000Y-62542000D02*
X95557000Y-61598000D01*
X97662000Y-62070000D02*
G75*
G03X97662000Y-62070000I-900000J0D01*
G01*
X100549500Y-62070000D02*
G75*
G03X100549500Y-62070000I-2537500J0D01*
G01*
X125115000Y-55933000D02*
X125115000Y-50935000D01*
X124975000Y-55925000D02*
X124975000Y-50943000D01*
X124835000Y-55909000D02*
X124835000Y-53529000D01*
X124835000Y-53339000D02*
X124835000Y-50959000D01*
X124695000Y-55885000D02*
X124695000Y-53924000D01*
X124695000Y-52944000D02*
X124695000Y-50983000D01*
X124555000Y-55852000D02*
X124555000Y-54091000D01*
X124555000Y-52777000D02*
X124555000Y-51016000D01*
X124415000Y-55811000D02*
X124415000Y-54198000D01*
X124415000Y-52670000D02*
X124415000Y-51057000D01*
X124275000Y-55761000D02*
X124275000Y-54269000D01*
X124275000Y-52599000D02*
X124275000Y-51107000D01*
X124135000Y-55700000D02*
X124135000Y-54313000D01*
X124135000Y-52555000D02*
X124135000Y-51168000D01*
X123995000Y-55630000D02*
X123995000Y-54332000D01*
X123995000Y-52536000D02*
X123995000Y-51238000D01*
X123855000Y-55548000D02*
X123855000Y-54330000D01*
X123855000Y-52538000D02*
X123855000Y-51320000D01*
X123715000Y-55453000D02*
X123715000Y-54305000D01*
X123715000Y-52563000D02*
X123715000Y-51415000D01*
X123575000Y-55342000D02*
X123575000Y-54257000D01*
X123575000Y-52611000D02*
X123575000Y-51526000D01*
X123435000Y-55214000D02*
X123435000Y-54179000D01*
X123435000Y-52689000D02*
X123435000Y-51654000D01*
X123295000Y-55065000D02*
X123295000Y-54062000D01*
X123295000Y-52806000D02*
X123295000Y-51803000D01*
X123155000Y-54886000D02*
X123155000Y-53874000D01*
X123155000Y-52994000D02*
X123155000Y-51982000D01*
X123015000Y-54667000D02*
X123015000Y-52201000D01*
X122875000Y-54378000D02*
X122875000Y-52490000D01*
X122735000Y-53906000D02*
X122735000Y-52962000D01*
X124840000Y-53434000D02*
G75*
G03X124840000Y-53434000I-900000J0D01*
G01*
X127727500Y-53434000D02*
G75*
G03X127727500Y-53434000I-2537500J0D01*
G01*
D17*
X101620000Y-49869000D02*
X110620000Y-49869000D01*
X110620000Y-46569000D02*
X101620000Y-46569000D01*
X110620000Y-46569000D02*
X110620000Y-60069000D01*
X110620000Y-60069000D02*
X101620000Y-60069000D01*
X101620000Y-46569000D02*
X101620000Y-60069000D01*
D15*
X119436857Y-50821429D02*
X119436857Y-52055143D01*
X119509429Y-52200286D01*
X119582000Y-52272857D01*
X119727143Y-52345429D01*
X120017429Y-52345429D01*
X120162571Y-52272857D01*
X120235143Y-52200286D01*
X120307714Y-52055143D01*
X120307714Y-50821429D01*
X120960857Y-50966571D02*
X121033428Y-50894000D01*
X121178571Y-50821429D01*
X121541428Y-50821429D01*
X121686571Y-50894000D01*
X121759142Y-50966571D01*
X121831714Y-51111714D01*
X121831714Y-51256857D01*
X121759142Y-51474571D01*
X120888285Y-52345429D01*
X121831714Y-52345429D01*
X112506286Y-62070000D02*
X112578857Y-62142571D01*
X112651429Y-62360285D01*
X112651429Y-62505428D01*
X112578857Y-62723143D01*
X112433714Y-62868285D01*
X112288571Y-62940857D01*
X111998286Y-63013428D01*
X111780571Y-63013428D01*
X111490286Y-62940857D01*
X111345143Y-62868285D01*
X111200000Y-62723143D01*
X111127429Y-62505428D01*
X111127429Y-62360285D01*
X111200000Y-62142571D01*
X111272571Y-62070000D01*
X111127429Y-61562000D02*
X111127429Y-60618571D01*
X111708000Y-61126571D01*
X111708000Y-60908857D01*
X111780571Y-60763714D01*
X111853143Y-60691143D01*
X111998286Y-60618571D01*
X112361143Y-60618571D01*
X112506286Y-60691143D01*
X112578857Y-60763714D01*
X112651429Y-60908857D01*
X112651429Y-61344285D01*
X112578857Y-61489428D01*
X112506286Y-61562000D01*
X96564000Y-91318286D02*
X96491429Y-91390857D01*
X96273715Y-91463429D01*
X96128572Y-91463429D01*
X95910857Y-91390857D01*
X95765715Y-91245714D01*
X95693143Y-91100571D01*
X95620572Y-90810286D01*
X95620572Y-90592571D01*
X95693143Y-90302286D01*
X95765715Y-90157143D01*
X95910857Y-90012000D01*
X96128572Y-89939429D01*
X96273715Y-89939429D01*
X96491429Y-90012000D01*
X96564000Y-90084571D01*
X97144572Y-90084571D02*
X97217143Y-90012000D01*
X97362286Y-89939429D01*
X97725143Y-89939429D01*
X97870286Y-90012000D01*
X97942857Y-90084571D01*
X98015429Y-90229714D01*
X98015429Y-90374857D01*
X97942857Y-90592571D01*
X97072000Y-91463429D01*
X98015429Y-91463429D01*
X103870286Y-65118000D02*
X103942857Y-65190571D01*
X104015429Y-65408285D01*
X104015429Y-65553428D01*
X103942857Y-65771143D01*
X103797714Y-65916285D01*
X103652571Y-65988857D01*
X103362286Y-66061428D01*
X103144571Y-66061428D01*
X102854286Y-65988857D01*
X102709143Y-65916285D01*
X102564000Y-65771143D01*
X102491429Y-65553428D01*
X102491429Y-65408285D01*
X102564000Y-65190571D01*
X102636571Y-65118000D01*
X104015429Y-63666571D02*
X104015429Y-64537428D01*
X104015429Y-64102000D02*
X102491429Y-64102000D01*
X102709143Y-64247143D01*
X102854286Y-64392285D01*
X102926857Y-64537428D01*
X94363429Y-86091143D02*
X95597143Y-86091143D01*
X95742286Y-86018571D01*
X95814857Y-85946000D01*
X95887429Y-85800857D01*
X95887429Y-85510571D01*
X95814857Y-85365429D01*
X95742286Y-85292857D01*
X95597143Y-85220286D01*
X94363429Y-85220286D01*
X95887429Y-83696286D02*
X95887429Y-84567143D01*
X95887429Y-84131715D02*
X94363429Y-84131715D01*
X94581143Y-84276858D01*
X94726286Y-84422000D01*
X94798857Y-84567143D01*
X97792000Y-94565429D02*
X97792000Y-95654000D01*
X97719428Y-95871714D01*
X97574285Y-96016857D01*
X97356571Y-96089429D01*
X97211428Y-96089429D01*
X99170857Y-95073429D02*
X99170857Y-96089429D01*
X98808000Y-94492857D02*
X98445143Y-95581429D01*
X99388571Y-95581429D01*
X95633429Y-77418857D02*
X94109429Y-77418857D01*
X94109429Y-77056000D01*
X94182000Y-76838285D01*
X94327143Y-76693143D01*
X94472286Y-76620571D01*
X94762571Y-76548000D01*
X94980286Y-76548000D01*
X95270571Y-76620571D01*
X95415714Y-76693143D01*
X95560857Y-76838285D01*
X95633429Y-77056000D01*
X95633429Y-77418857D01*
X95633429Y-75096571D02*
X95633429Y-75967428D01*
X95633429Y-75532000D02*
X94109429Y-75532000D01*
X94327143Y-75677143D01*
X94472286Y-75822285D01*
X94544857Y-75967428D01*
X95379429Y-64864000D02*
X94653714Y-65372000D01*
X95379429Y-65734857D02*
X93855429Y-65734857D01*
X93855429Y-65154285D01*
X93928000Y-65009143D01*
X94000571Y-64936571D01*
X94145714Y-64864000D01*
X94363429Y-64864000D01*
X94508571Y-64936571D01*
X94581143Y-65009143D01*
X94653714Y-65154285D01*
X94653714Y-65734857D01*
X95379429Y-63412571D02*
X95379429Y-64283428D01*
X95379429Y-63848000D02*
X93855429Y-63848000D01*
X94073143Y-63993143D01*
X94218286Y-64138285D01*
X94290857Y-64283428D01*
X114877486Y-86072354D02*
X114877486Y-86798069D01*
X114369486Y-85274069D02*
X114877486Y-86072354D01*
X115385486Y-85274069D01*
X116691772Y-86798069D02*
X115820915Y-86798069D01*
X116256343Y-86798069D02*
X116256343Y-85274069D01*
X116111200Y-85491783D01*
X115966058Y-85636926D01*
X115820915Y-85709497D01*
X120892000Y-64265429D02*
X120892000Y-65354000D01*
X120819428Y-65571714D01*
X120674285Y-65716857D01*
X120456571Y-65789429D01*
X120311428Y-65789429D01*
X121472571Y-64265429D02*
X122416000Y-64265429D01*
X121908000Y-64846000D01*
X122125714Y-64846000D01*
X122270857Y-64918571D01*
X122343428Y-64991143D01*
X122416000Y-65136286D01*
X122416000Y-65499143D01*
X122343428Y-65644286D01*
X122270857Y-65716857D01*
X122125714Y-65789429D01*
X121690286Y-65789429D01*
X121545143Y-65716857D01*
X121472571Y-65644286D01*
X116534000Y-92078286D02*
X116461429Y-92150857D01*
X116243715Y-92223429D01*
X116098572Y-92223429D01*
X115880857Y-92150857D01*
X115735715Y-92005714D01*
X115663143Y-91860571D01*
X115590572Y-91570286D01*
X115590572Y-91352571D01*
X115663143Y-91062286D01*
X115735715Y-90917143D01*
X115880857Y-90772000D01*
X116098572Y-90699429D01*
X116243715Y-90699429D01*
X116461429Y-90772000D01*
X116534000Y-90844571D01*
X117840286Y-90699429D02*
X117550000Y-90699429D01*
X117404857Y-90772000D01*
X117332286Y-90844571D01*
X117187143Y-91062286D01*
X117114572Y-91352571D01*
X117114572Y-91933143D01*
X117187143Y-92078286D01*
X117259715Y-92150857D01*
X117404857Y-92223429D01*
X117695143Y-92223429D01*
X117840286Y-92150857D01*
X117912857Y-92078286D01*
X117985429Y-91933143D01*
X117985429Y-91570286D01*
X117912857Y-91425143D01*
X117840286Y-91352571D01*
X117695143Y-91280000D01*
X117404857Y-91280000D01*
X117259715Y-91352571D01*
X117187143Y-91425143D01*
X117114572Y-91570286D01*
X134794786Y-90264000D02*
X134867357Y-90336571D01*
X134939929Y-90554285D01*
X134939929Y-90699428D01*
X134867357Y-90917143D01*
X134722214Y-91062285D01*
X134577071Y-91134857D01*
X134286786Y-91207428D01*
X134069071Y-91207428D01*
X133778786Y-91134857D01*
X133633643Y-91062285D01*
X133488500Y-90917143D01*
X133415929Y-90699428D01*
X133415929Y-90554285D01*
X133488500Y-90336571D01*
X133561071Y-90264000D01*
X133415929Y-89756000D02*
X133415929Y-88740000D01*
X134939929Y-89393143D01*
X94182000Y-60074286D02*
X94109429Y-60146857D01*
X93891715Y-60219429D01*
X93746572Y-60219429D01*
X93528857Y-60146857D01*
X93383715Y-60001714D01*
X93311143Y-59856571D01*
X93238572Y-59566286D01*
X93238572Y-59348571D01*
X93311143Y-59058286D01*
X93383715Y-58913143D01*
X93528857Y-58768000D01*
X93746572Y-58695429D01*
X93891715Y-58695429D01*
X94109429Y-58768000D01*
X94182000Y-58840571D01*
X95488286Y-59203429D02*
X95488286Y-60219429D01*
X95125429Y-58622857D02*
X94762572Y-59711429D01*
X95706000Y-59711429D01*
X120598000Y-55248286D02*
X120525429Y-55320857D01*
X120307715Y-55393429D01*
X120162572Y-55393429D01*
X119944857Y-55320857D01*
X119799715Y-55175714D01*
X119727143Y-55030571D01*
X119654572Y-54740286D01*
X119654572Y-54522571D01*
X119727143Y-54232286D01*
X119799715Y-54087143D01*
X119944857Y-53942000D01*
X120162572Y-53869429D01*
X120307715Y-53869429D01*
X120525429Y-53942000D01*
X120598000Y-54014571D01*
X121976857Y-53869429D02*
X121251143Y-53869429D01*
X121178572Y-54595143D01*
X121251143Y-54522571D01*
X121396286Y-54450000D01*
X121759143Y-54450000D01*
X121904286Y-54522571D01*
X121976857Y-54595143D01*
X122049429Y-54740286D01*
X122049429Y-55103143D01*
X121976857Y-55248286D01*
X121904286Y-55320857D01*
X121759143Y-55393429D01*
X121396286Y-55393429D01*
X121251143Y-55320857D01*
X121178572Y-55248286D01*
M02*
