G04 #@! TF.FileFunction,Copper,L2,Bot,Signal*
%FSLAX46Y46*%
G04 Gerber Fmt 4.6, Leading zero omitted, Abs format (unit mm)*
G04 Created by KiCad (PCBNEW (after 2015-mar-04 BZR unknown)-product) date 12/26/2015 8:30:32 PM*
%MOMM*%
G01*
G04 APERTURE LIST*
%ADD10C,0.150000*%
%ADD11C,6.350000*%
%ADD12R,1.524000X1.524000*%
%ADD13C,1.524000*%
%ADD14R,1.727200X2.032000*%
%ADD15O,1.727200X2.032000*%
%ADD16C,0.889000*%
%ADD17C,0.254000*%
%ADD18C,0.635000*%
G04 APERTURE END LIST*
D10*
D11*
X43600000Y-38600000D03*
X43600000Y-56600000D03*
X77400000Y-56600000D03*
X77400000Y-38700000D03*
D12*
X73940200Y-48849600D03*
D13*
X73940200Y-46309600D03*
X76480200Y-48849600D03*
X76480200Y-46309600D03*
X79020200Y-48849600D03*
X79020200Y-46309600D03*
D14*
X57410000Y-57950000D03*
D15*
X59950000Y-57950000D03*
X62490000Y-57950000D03*
D16*
X69485400Y-53011000D03*
X67504200Y-53036400D03*
X62932200Y-38533000D03*
X61967000Y-39371200D03*
X51705400Y-43028800D03*
X56300000Y-47300000D03*
X47463600Y-54179400D03*
X62500000Y-47800000D03*
X45076000Y-50090000D03*
X68200000Y-36700000D03*
X57600000Y-49600000D03*
X53800000Y-47800000D03*
X52598220Y-51701780D03*
D17*
X62932200Y-38533000D02*
X62932200Y-38507600D01*
D18*
X52598220Y-51701780D02*
X52598220Y-49401780D01*
X52598220Y-49401780D02*
X53800000Y-47800000D01*
D17*
G36*
X80694800Y-54596993D02*
X80631844Y-54444628D01*
X80429344Y-54241774D01*
X80429344Y-49057298D01*
X80401562Y-48502232D01*
X80242597Y-48118457D01*
X80163398Y-48095740D01*
X80163398Y-46083241D01*
X79989754Y-45662988D01*
X79668503Y-45341177D01*
X79248554Y-45166799D01*
X78793841Y-45166402D01*
X78373588Y-45340046D01*
X78051777Y-45661297D01*
X77877399Y-46081246D01*
X77877002Y-46535959D01*
X78050646Y-46956212D01*
X78371897Y-47278023D01*
X78791846Y-47452401D01*
X78985860Y-47452570D01*
X78672832Y-47468238D01*
X78289057Y-47627203D01*
X78219592Y-47869387D01*
X79020200Y-48669995D01*
X79820808Y-47869387D01*
X79751343Y-47627203D01*
X79253941Y-47449747D01*
X79666812Y-47279154D01*
X79988623Y-46957903D01*
X80163001Y-46537954D01*
X80163398Y-46083241D01*
X80163398Y-48095740D01*
X80000413Y-48048992D01*
X79199805Y-48849600D01*
X80000413Y-49650208D01*
X80242597Y-49580743D01*
X80429344Y-49057298D01*
X80429344Y-54241774D01*
X79820808Y-53632175D01*
X79820808Y-49829813D01*
X79020200Y-49029205D01*
X78840595Y-49208810D01*
X78840595Y-48849600D01*
X78039987Y-48048992D01*
X77797803Y-48118457D01*
X77753747Y-48241944D01*
X77702597Y-48118457D01*
X77623398Y-48095740D01*
X77623398Y-46083241D01*
X77449754Y-45662988D01*
X77128503Y-45341177D01*
X76708554Y-45166799D01*
X76253841Y-45166402D01*
X75833588Y-45340046D01*
X75511777Y-45661297D01*
X75337399Y-46081246D01*
X75337002Y-46535959D01*
X75510646Y-46956212D01*
X75831897Y-47278023D01*
X76251846Y-47452401D01*
X76445860Y-47452570D01*
X76132832Y-47468238D01*
X75749057Y-47627203D01*
X75679592Y-47869387D01*
X76480200Y-48669995D01*
X77280808Y-47869387D01*
X77211343Y-47627203D01*
X76713941Y-47449747D01*
X77126812Y-47279154D01*
X77448623Y-46957903D01*
X77623001Y-46537954D01*
X77623398Y-46083241D01*
X77623398Y-48095740D01*
X77460413Y-48048992D01*
X76659805Y-48849600D01*
X77460413Y-49650208D01*
X77702597Y-49580743D01*
X77746652Y-49457255D01*
X77797803Y-49580743D01*
X78039987Y-49650208D01*
X78840595Y-48849600D01*
X78840595Y-49208810D01*
X78219592Y-49829813D01*
X78289057Y-50071997D01*
X78812502Y-50258744D01*
X79367568Y-50230962D01*
X79751343Y-50071997D01*
X79820808Y-49829813D01*
X79820808Y-53632175D01*
X79561009Y-53371923D01*
X78161181Y-52790663D01*
X77280808Y-52789894D01*
X77280808Y-49829813D01*
X76480200Y-49029205D01*
X76300595Y-49208810D01*
X76300595Y-48849600D01*
X75499987Y-48048992D01*
X75337200Y-48095683D01*
X75337200Y-47961290D01*
X75240527Y-47727901D01*
X75083398Y-47570772D01*
X75061898Y-47549273D01*
X74828509Y-47452600D01*
X74225950Y-47452600D01*
X74067202Y-47611348D01*
X74067202Y-47452711D01*
X74166559Y-47452798D01*
X74586812Y-47279154D01*
X74908623Y-46957903D01*
X75083001Y-46537954D01*
X75083398Y-46083241D01*
X74909754Y-45662988D01*
X74588503Y-45341177D01*
X74168554Y-45166799D01*
X73713841Y-45166402D01*
X73293588Y-45340046D01*
X72971777Y-45661297D01*
X72797399Y-46081246D01*
X72797002Y-46535959D01*
X72970646Y-46956212D01*
X73291897Y-47278023D01*
X73711846Y-47452401D01*
X73939775Y-47452600D01*
X73813198Y-47452600D01*
X73813198Y-47611348D01*
X73654450Y-47452600D01*
X73051891Y-47452600D01*
X72818502Y-47549273D01*
X72639873Y-47727901D01*
X72543200Y-47961290D01*
X72543200Y-48213909D01*
X72543200Y-48563850D01*
X72701950Y-48722600D01*
X73813200Y-48722600D01*
X73813200Y-48702600D01*
X74067200Y-48702600D01*
X74067200Y-48722600D01*
X74087200Y-48722600D01*
X74087200Y-48976600D01*
X74067200Y-48976600D01*
X74067200Y-50087850D01*
X74225950Y-50246600D01*
X74828509Y-50246600D01*
X75061898Y-50149927D01*
X75240527Y-49971299D01*
X75337200Y-49737910D01*
X75337200Y-49603516D01*
X75499987Y-49650208D01*
X76300595Y-48849600D01*
X76300595Y-49208810D01*
X75679592Y-49829813D01*
X75749057Y-50071997D01*
X76272502Y-50258744D01*
X76827568Y-50230962D01*
X77211343Y-50071997D01*
X77280808Y-49829813D01*
X77280808Y-52789894D01*
X76645469Y-52789340D01*
X75244628Y-53368156D01*
X74171923Y-54438991D01*
X73813200Y-55302890D01*
X73813200Y-50087850D01*
X73813200Y-48976600D01*
X72701950Y-48976600D01*
X72543200Y-49135350D01*
X72543200Y-49485291D01*
X72543200Y-49737910D01*
X72639873Y-49971299D01*
X72818502Y-50149927D01*
X73051891Y-50246600D01*
X73654450Y-50246600D01*
X73813200Y-50087850D01*
X73813200Y-55302890D01*
X73590663Y-55838819D01*
X73589340Y-57354531D01*
X74168156Y-58755372D01*
X75238991Y-59828077D01*
X75640504Y-59994800D01*
X63734600Y-59994800D01*
X63734600Y-58129769D01*
X63734600Y-57770231D01*
X63639860Y-57293943D01*
X63370065Y-56890166D01*
X62966288Y-56620371D01*
X62490000Y-56525631D01*
X62013712Y-56620371D01*
X61609935Y-56890166D01*
X61340140Y-57293943D01*
X61245400Y-57770231D01*
X61245400Y-58129769D01*
X61340140Y-58606057D01*
X61609935Y-59009834D01*
X62013712Y-59279629D01*
X62490000Y-59374369D01*
X62966288Y-59279629D01*
X63370065Y-59009834D01*
X63639860Y-58606057D01*
X63734600Y-58129769D01*
X63734600Y-59994800D01*
X61194600Y-59994800D01*
X61194600Y-58129769D01*
X61194600Y-57770231D01*
X61099860Y-57293943D01*
X60830065Y-56890166D01*
X60426288Y-56620371D01*
X59950000Y-56525631D01*
X59473712Y-56620371D01*
X59069935Y-56890166D01*
X58800140Y-57293943D01*
X58705400Y-57770231D01*
X58705400Y-58129769D01*
X58800140Y-58606057D01*
X59069935Y-59009834D01*
X59473712Y-59279629D01*
X59950000Y-59374369D01*
X60426288Y-59279629D01*
X60830065Y-59009834D01*
X61099860Y-58606057D01*
X61194600Y-58129769D01*
X61194600Y-59994800D01*
X58662064Y-59994800D01*
X58662064Y-58966000D01*
X58662064Y-56934000D01*
X58633878Y-56788726D01*
X58550004Y-56661044D01*
X58423384Y-56575574D01*
X58273600Y-56545536D01*
X56546400Y-56545536D01*
X56401126Y-56573722D01*
X56273444Y-56657596D01*
X56187974Y-56784216D01*
X56157936Y-56934000D01*
X56157936Y-58966000D01*
X56186122Y-59111274D01*
X56269996Y-59238956D01*
X56396616Y-59324426D01*
X56546400Y-59354464D01*
X58273600Y-59354464D01*
X58418874Y-59326278D01*
X58546556Y-59242404D01*
X58632026Y-59115784D01*
X58662064Y-58966000D01*
X58662064Y-59994800D01*
X54625643Y-59994800D01*
X54625643Y-47636518D01*
X54500233Y-47333002D01*
X54268219Y-47100583D01*
X53964923Y-46974643D01*
X53636518Y-46974357D01*
X53333002Y-47099767D01*
X53100583Y-47331781D01*
X52974643Y-47635077D01*
X52974554Y-47736295D01*
X52039495Y-48982581D01*
X52001583Y-49061600D01*
X51952890Y-49134476D01*
X51943165Y-49183363D01*
X51921604Y-49228305D01*
X51916818Y-49315820D01*
X51899720Y-49401780D01*
X51899720Y-51232645D01*
X51898803Y-51233561D01*
X51772863Y-51536857D01*
X51772577Y-51865262D01*
X51897987Y-52168778D01*
X52130001Y-52401197D01*
X52433297Y-52527137D01*
X52761702Y-52527423D01*
X53065218Y-52402013D01*
X53297637Y-52169999D01*
X53423577Y-51866703D01*
X53423863Y-51538298D01*
X53298453Y-51234782D01*
X53296720Y-51233045D01*
X53296720Y-49634681D01*
X54094348Y-48571570D01*
X54266998Y-48500233D01*
X54499417Y-48268219D01*
X54625357Y-47964923D01*
X54625643Y-47636518D01*
X54625643Y-59994800D01*
X45360988Y-59994800D01*
X45755372Y-59831844D01*
X46828077Y-58761009D01*
X47409337Y-57361181D01*
X47410660Y-55845469D01*
X46831844Y-54444628D01*
X45761009Y-53371923D01*
X44361181Y-52790663D01*
X43995305Y-52790343D01*
X43995305Y-49630146D01*
X43995305Y-45630146D01*
X43903363Y-45407629D01*
X43733266Y-45237235D01*
X43510910Y-45144905D01*
X43270146Y-45144695D01*
X43047629Y-45236637D01*
X42877235Y-45406734D01*
X42784905Y-45629090D01*
X42784695Y-45869854D01*
X42876637Y-46092371D01*
X43046734Y-46262765D01*
X43269090Y-46355095D01*
X43509854Y-46355305D01*
X43732371Y-46263363D01*
X43902765Y-46093266D01*
X43995095Y-45870910D01*
X43995305Y-45630146D01*
X43995305Y-49630146D01*
X43903363Y-49407629D01*
X43733266Y-49237235D01*
X43510910Y-49144905D01*
X43270146Y-49144695D01*
X43047629Y-49236637D01*
X42877235Y-49406734D01*
X42784905Y-49629090D01*
X42784695Y-49869854D01*
X42876637Y-50092371D01*
X43046734Y-50262765D01*
X43269090Y-50355095D01*
X43509854Y-50355305D01*
X43732371Y-50263363D01*
X43902765Y-50093266D01*
X43995095Y-49870910D01*
X43995305Y-49630146D01*
X43995305Y-52790343D01*
X42845469Y-52789340D01*
X41444628Y-53368156D01*
X40405200Y-54405772D01*
X40405200Y-40792480D01*
X41438991Y-41828077D01*
X42838819Y-42409337D01*
X44354531Y-42410660D01*
X45755372Y-41831844D01*
X46828077Y-40761009D01*
X47409337Y-39361181D01*
X47410660Y-37845469D01*
X46831844Y-36444628D01*
X45794227Y-35405200D01*
X49280093Y-35405200D01*
X49544580Y-35457809D01*
X49734972Y-35585024D01*
X49862190Y-35775419D01*
X49914800Y-36039906D01*
X49914800Y-36800000D01*
X49922586Y-36839142D01*
X49922586Y-36889050D01*
X49998705Y-37271732D01*
X49998706Y-37271734D01*
X50059208Y-37417800D01*
X50275981Y-37742224D01*
X50387775Y-37854018D01*
X50387776Y-37854019D01*
X50712199Y-38070790D01*
X50712200Y-38070791D01*
X50712201Y-38070792D01*
X50797764Y-38106233D01*
X50858266Y-38131294D01*
X50858267Y-38131294D01*
X51240950Y-38207414D01*
X51280857Y-38207414D01*
X51320000Y-38215200D01*
X54320000Y-38215200D01*
X54359142Y-38207414D01*
X54399050Y-38207414D01*
X54781732Y-38131294D01*
X54781733Y-38131294D01*
X54781734Y-38131294D01*
X54927799Y-38070792D01*
X54927800Y-38070792D01*
X55252224Y-37854019D01*
X55252224Y-37854018D01*
X55364018Y-37742225D01*
X55364018Y-37742224D01*
X55364019Y-37742224D01*
X55580790Y-37417800D01*
X55580791Y-37417800D01*
X55580792Y-37417799D01*
X55616233Y-37332236D01*
X55641294Y-37271734D01*
X55641294Y-37271733D01*
X55717414Y-36889050D01*
X55717414Y-36730949D01*
X55715200Y-36725603D01*
X55715200Y-36039906D01*
X55767809Y-35775419D01*
X55895024Y-35585027D01*
X56085419Y-35457809D01*
X56349906Y-35405200D01*
X75396993Y-35405200D01*
X75244628Y-35468156D01*
X74171923Y-36538991D01*
X73590663Y-37938819D01*
X73589340Y-39454531D01*
X74168156Y-40855372D01*
X75238991Y-41928077D01*
X76638819Y-42509337D01*
X78154531Y-42510660D01*
X79555372Y-41931844D01*
X80628077Y-40861009D01*
X80694800Y-40700322D01*
X80694800Y-54596993D01*
X80694800Y-54596993D01*
G37*
X80694800Y-54596993D02*
X80631844Y-54444628D01*
X80429344Y-54241774D01*
X80429344Y-49057298D01*
X80401562Y-48502232D01*
X80242597Y-48118457D01*
X80163398Y-48095740D01*
X80163398Y-46083241D01*
X79989754Y-45662988D01*
X79668503Y-45341177D01*
X79248554Y-45166799D01*
X78793841Y-45166402D01*
X78373588Y-45340046D01*
X78051777Y-45661297D01*
X77877399Y-46081246D01*
X77877002Y-46535959D01*
X78050646Y-46956212D01*
X78371897Y-47278023D01*
X78791846Y-47452401D01*
X78985860Y-47452570D01*
X78672832Y-47468238D01*
X78289057Y-47627203D01*
X78219592Y-47869387D01*
X79020200Y-48669995D01*
X79820808Y-47869387D01*
X79751343Y-47627203D01*
X79253941Y-47449747D01*
X79666812Y-47279154D01*
X79988623Y-46957903D01*
X80163001Y-46537954D01*
X80163398Y-46083241D01*
X80163398Y-48095740D01*
X80000413Y-48048992D01*
X79199805Y-48849600D01*
X80000413Y-49650208D01*
X80242597Y-49580743D01*
X80429344Y-49057298D01*
X80429344Y-54241774D01*
X79820808Y-53632175D01*
X79820808Y-49829813D01*
X79020200Y-49029205D01*
X78840595Y-49208810D01*
X78840595Y-48849600D01*
X78039987Y-48048992D01*
X77797803Y-48118457D01*
X77753747Y-48241944D01*
X77702597Y-48118457D01*
X77623398Y-48095740D01*
X77623398Y-46083241D01*
X77449754Y-45662988D01*
X77128503Y-45341177D01*
X76708554Y-45166799D01*
X76253841Y-45166402D01*
X75833588Y-45340046D01*
X75511777Y-45661297D01*
X75337399Y-46081246D01*
X75337002Y-46535959D01*
X75510646Y-46956212D01*
X75831897Y-47278023D01*
X76251846Y-47452401D01*
X76445860Y-47452570D01*
X76132832Y-47468238D01*
X75749057Y-47627203D01*
X75679592Y-47869387D01*
X76480200Y-48669995D01*
X77280808Y-47869387D01*
X77211343Y-47627203D01*
X76713941Y-47449747D01*
X77126812Y-47279154D01*
X77448623Y-46957903D01*
X77623001Y-46537954D01*
X77623398Y-46083241D01*
X77623398Y-48095740D01*
X77460413Y-48048992D01*
X76659805Y-48849600D01*
X77460413Y-49650208D01*
X77702597Y-49580743D01*
X77746652Y-49457255D01*
X77797803Y-49580743D01*
X78039987Y-49650208D01*
X78840595Y-48849600D01*
X78840595Y-49208810D01*
X78219592Y-49829813D01*
X78289057Y-50071997D01*
X78812502Y-50258744D01*
X79367568Y-50230962D01*
X79751343Y-50071997D01*
X79820808Y-49829813D01*
X79820808Y-53632175D01*
X79561009Y-53371923D01*
X78161181Y-52790663D01*
X77280808Y-52789894D01*
X77280808Y-49829813D01*
X76480200Y-49029205D01*
X76300595Y-49208810D01*
X76300595Y-48849600D01*
X75499987Y-48048992D01*
X75337200Y-48095683D01*
X75337200Y-47961290D01*
X75240527Y-47727901D01*
X75083398Y-47570772D01*
X75061898Y-47549273D01*
X74828509Y-47452600D01*
X74225950Y-47452600D01*
X74067202Y-47611348D01*
X74067202Y-47452711D01*
X74166559Y-47452798D01*
X74586812Y-47279154D01*
X74908623Y-46957903D01*
X75083001Y-46537954D01*
X75083398Y-46083241D01*
X74909754Y-45662988D01*
X74588503Y-45341177D01*
X74168554Y-45166799D01*
X73713841Y-45166402D01*
X73293588Y-45340046D01*
X72971777Y-45661297D01*
X72797399Y-46081246D01*
X72797002Y-46535959D01*
X72970646Y-46956212D01*
X73291897Y-47278023D01*
X73711846Y-47452401D01*
X73939775Y-47452600D01*
X73813198Y-47452600D01*
X73813198Y-47611348D01*
X73654450Y-47452600D01*
X73051891Y-47452600D01*
X72818502Y-47549273D01*
X72639873Y-47727901D01*
X72543200Y-47961290D01*
X72543200Y-48213909D01*
X72543200Y-48563850D01*
X72701950Y-48722600D01*
X73813200Y-48722600D01*
X73813200Y-48702600D01*
X74067200Y-48702600D01*
X74067200Y-48722600D01*
X74087200Y-48722600D01*
X74087200Y-48976600D01*
X74067200Y-48976600D01*
X74067200Y-50087850D01*
X74225950Y-50246600D01*
X74828509Y-50246600D01*
X75061898Y-50149927D01*
X75240527Y-49971299D01*
X75337200Y-49737910D01*
X75337200Y-49603516D01*
X75499987Y-49650208D01*
X76300595Y-48849600D01*
X76300595Y-49208810D01*
X75679592Y-49829813D01*
X75749057Y-50071997D01*
X76272502Y-50258744D01*
X76827568Y-50230962D01*
X77211343Y-50071997D01*
X77280808Y-49829813D01*
X77280808Y-52789894D01*
X76645469Y-52789340D01*
X75244628Y-53368156D01*
X74171923Y-54438991D01*
X73813200Y-55302890D01*
X73813200Y-50087850D01*
X73813200Y-48976600D01*
X72701950Y-48976600D01*
X72543200Y-49135350D01*
X72543200Y-49485291D01*
X72543200Y-49737910D01*
X72639873Y-49971299D01*
X72818502Y-50149927D01*
X73051891Y-50246600D01*
X73654450Y-50246600D01*
X73813200Y-50087850D01*
X73813200Y-55302890D01*
X73590663Y-55838819D01*
X73589340Y-57354531D01*
X74168156Y-58755372D01*
X75238991Y-59828077D01*
X75640504Y-59994800D01*
X63734600Y-59994800D01*
X63734600Y-58129769D01*
X63734600Y-57770231D01*
X63639860Y-57293943D01*
X63370065Y-56890166D01*
X62966288Y-56620371D01*
X62490000Y-56525631D01*
X62013712Y-56620371D01*
X61609935Y-56890166D01*
X61340140Y-57293943D01*
X61245400Y-57770231D01*
X61245400Y-58129769D01*
X61340140Y-58606057D01*
X61609935Y-59009834D01*
X62013712Y-59279629D01*
X62490000Y-59374369D01*
X62966288Y-59279629D01*
X63370065Y-59009834D01*
X63639860Y-58606057D01*
X63734600Y-58129769D01*
X63734600Y-59994800D01*
X61194600Y-59994800D01*
X61194600Y-58129769D01*
X61194600Y-57770231D01*
X61099860Y-57293943D01*
X60830065Y-56890166D01*
X60426288Y-56620371D01*
X59950000Y-56525631D01*
X59473712Y-56620371D01*
X59069935Y-56890166D01*
X58800140Y-57293943D01*
X58705400Y-57770231D01*
X58705400Y-58129769D01*
X58800140Y-58606057D01*
X59069935Y-59009834D01*
X59473712Y-59279629D01*
X59950000Y-59374369D01*
X60426288Y-59279629D01*
X60830065Y-59009834D01*
X61099860Y-58606057D01*
X61194600Y-58129769D01*
X61194600Y-59994800D01*
X58662064Y-59994800D01*
X58662064Y-58966000D01*
X58662064Y-56934000D01*
X58633878Y-56788726D01*
X58550004Y-56661044D01*
X58423384Y-56575574D01*
X58273600Y-56545536D01*
X56546400Y-56545536D01*
X56401126Y-56573722D01*
X56273444Y-56657596D01*
X56187974Y-56784216D01*
X56157936Y-56934000D01*
X56157936Y-58966000D01*
X56186122Y-59111274D01*
X56269996Y-59238956D01*
X56396616Y-59324426D01*
X56546400Y-59354464D01*
X58273600Y-59354464D01*
X58418874Y-59326278D01*
X58546556Y-59242404D01*
X58632026Y-59115784D01*
X58662064Y-58966000D01*
X58662064Y-59994800D01*
X54625643Y-59994800D01*
X54625643Y-47636518D01*
X54500233Y-47333002D01*
X54268219Y-47100583D01*
X53964923Y-46974643D01*
X53636518Y-46974357D01*
X53333002Y-47099767D01*
X53100583Y-47331781D01*
X52974643Y-47635077D01*
X52974554Y-47736295D01*
X52039495Y-48982581D01*
X52001583Y-49061600D01*
X51952890Y-49134476D01*
X51943165Y-49183363D01*
X51921604Y-49228305D01*
X51916818Y-49315820D01*
X51899720Y-49401780D01*
X51899720Y-51232645D01*
X51898803Y-51233561D01*
X51772863Y-51536857D01*
X51772577Y-51865262D01*
X51897987Y-52168778D01*
X52130001Y-52401197D01*
X52433297Y-52527137D01*
X52761702Y-52527423D01*
X53065218Y-52402013D01*
X53297637Y-52169999D01*
X53423577Y-51866703D01*
X53423863Y-51538298D01*
X53298453Y-51234782D01*
X53296720Y-51233045D01*
X53296720Y-49634681D01*
X54094348Y-48571570D01*
X54266998Y-48500233D01*
X54499417Y-48268219D01*
X54625357Y-47964923D01*
X54625643Y-47636518D01*
X54625643Y-59994800D01*
X45360988Y-59994800D01*
X45755372Y-59831844D01*
X46828077Y-58761009D01*
X47409337Y-57361181D01*
X47410660Y-55845469D01*
X46831844Y-54444628D01*
X45761009Y-53371923D01*
X44361181Y-52790663D01*
X43995305Y-52790343D01*
X43995305Y-49630146D01*
X43995305Y-45630146D01*
X43903363Y-45407629D01*
X43733266Y-45237235D01*
X43510910Y-45144905D01*
X43270146Y-45144695D01*
X43047629Y-45236637D01*
X42877235Y-45406734D01*
X42784905Y-45629090D01*
X42784695Y-45869854D01*
X42876637Y-46092371D01*
X43046734Y-46262765D01*
X43269090Y-46355095D01*
X43509854Y-46355305D01*
X43732371Y-46263363D01*
X43902765Y-46093266D01*
X43995095Y-45870910D01*
X43995305Y-45630146D01*
X43995305Y-49630146D01*
X43903363Y-49407629D01*
X43733266Y-49237235D01*
X43510910Y-49144905D01*
X43270146Y-49144695D01*
X43047629Y-49236637D01*
X42877235Y-49406734D01*
X42784905Y-49629090D01*
X42784695Y-49869854D01*
X42876637Y-50092371D01*
X43046734Y-50262765D01*
X43269090Y-50355095D01*
X43509854Y-50355305D01*
X43732371Y-50263363D01*
X43902765Y-50093266D01*
X43995095Y-49870910D01*
X43995305Y-49630146D01*
X43995305Y-52790343D01*
X42845469Y-52789340D01*
X41444628Y-53368156D01*
X40405200Y-54405772D01*
X40405200Y-40792480D01*
X41438991Y-41828077D01*
X42838819Y-42409337D01*
X44354531Y-42410660D01*
X45755372Y-41831844D01*
X46828077Y-40761009D01*
X47409337Y-39361181D01*
X47410660Y-37845469D01*
X46831844Y-36444628D01*
X45794227Y-35405200D01*
X49280093Y-35405200D01*
X49544580Y-35457809D01*
X49734972Y-35585024D01*
X49862190Y-35775419D01*
X49914800Y-36039906D01*
X49914800Y-36800000D01*
X49922586Y-36839142D01*
X49922586Y-36889050D01*
X49998705Y-37271732D01*
X49998706Y-37271734D01*
X50059208Y-37417800D01*
X50275981Y-37742224D01*
X50387775Y-37854018D01*
X50387776Y-37854019D01*
X50712199Y-38070790D01*
X50712200Y-38070791D01*
X50712201Y-38070792D01*
X50797764Y-38106233D01*
X50858266Y-38131294D01*
X50858267Y-38131294D01*
X51240950Y-38207414D01*
X51280857Y-38207414D01*
X51320000Y-38215200D01*
X54320000Y-38215200D01*
X54359142Y-38207414D01*
X54399050Y-38207414D01*
X54781732Y-38131294D01*
X54781733Y-38131294D01*
X54781734Y-38131294D01*
X54927799Y-38070792D01*
X54927800Y-38070792D01*
X55252224Y-37854019D01*
X55252224Y-37854018D01*
X55364018Y-37742225D01*
X55364018Y-37742224D01*
X55364019Y-37742224D01*
X55580790Y-37417800D01*
X55580791Y-37417800D01*
X55580792Y-37417799D01*
X55616233Y-37332236D01*
X55641294Y-37271734D01*
X55641294Y-37271733D01*
X55717414Y-36889050D01*
X55717414Y-36730949D01*
X55715200Y-36725603D01*
X55715200Y-36039906D01*
X55767809Y-35775419D01*
X55895024Y-35585027D01*
X56085419Y-35457809D01*
X56349906Y-35405200D01*
X75396993Y-35405200D01*
X75244628Y-35468156D01*
X74171923Y-36538991D01*
X73590663Y-37938819D01*
X73589340Y-39454531D01*
X74168156Y-40855372D01*
X75238991Y-41928077D01*
X76638819Y-42509337D01*
X78154531Y-42510660D01*
X79555372Y-41931844D01*
X80628077Y-40861009D01*
X80694800Y-40700322D01*
X80694800Y-54596993D01*
M02*
