999
dxflib 2.0.4.8
  0
SECTION
  2
HEADER
  9
$ACADVER
  1
AC1015
  9
$HANDSEED
  5
FFFF
  9
$USERR4
 40
0.0
  9
$DIMTDEC
 70
4
  9
$DIMTAD
 70
0
  9
$CMLSTYLE
  2
STANDARD
  9
$VISRETAIN
 70
0
  9
$TILEMODE
 70
1
  9
$SHADEDIF
 70
70
  9
$USERR5
 40
0.0
  9
$UCSYDIR
 10
0.0
 20
1.0
 30
0.0
  9
$ATTREQ
 70
1
  9
$CHAMFERA
 40
0.5
  9
$MENU
  1
.
  9
$DIMUNIT
 70
2
  9
$DIMALTZ
 70
0
  9
$DELOBJ
 70
1
  9
$CLAYER
  8
0
  9
$DIMASZ
 40
0.18
  9
$GRIDUNIT
 10
0.0
 20
0.0
  9
$DIMADEC
 70
0
  9
$UCSXDIR
 10
1.0
 20
0.0
 30
0.0
  9
$CHAMFERB
 40
0.5
  9
$DIMUPT
 70
0
  9
$TRACEWID
 40
0.05
  9
$REGENMODE
 70
1
  9
$ORTHOMODE
 70
0
  9
$EXTMIN
 10
42.960000000000001
 20
41.159998999999999
 30
0.0
  9
$DIMGAP
 40
0.09
  9
$MEASUREMENT
 70
1
  9
$CMLJUST
 70
0
  9
$PICKSTYLE
 70
1
  9
$PUCSYDIR
 10
0.0
 20
1.0
 30
0.0
  9
$ANGBASE
 50
0.0
  9
$USRTIMER
 70
1
  9
$CHAMFERC
 40
1.0
  9
$SKETCHINC
 40
0.1
  9
$DIMTFAC
 40
1.0
  9
$DIMSAH
 70
0
  9
$DIMALT
 70
0
  9
$DIMSHO
 70
1
  9
$PUCSXDIR
 10
1.0
 20
0.0
 30
0.0
  9
$SURFTYPE
 70
6
  9
$SPLFRAME
 70
0
  9
$CHAMFERD
 40
0.0
  9
$DIMALTTD
 70
2
  9
$DIMTSZ
 40
0.0
  9
$LIMMIN
 10
43.222499499999977
 20
41.059998998509883
  9
$SPLINESEGS
 70
8
  9
$AUPREC
 70
0
  9
$LUNITS
 70
2
  9
$SURFTAB1
 70
6
  9
$DWGCODEPAGE
  3
ANSI_1252
  9
$UNITMODE
 70
0
  9
$USERI1
 70
0
  9
$SURFTAB2
 70
6
  9
$SKPOLY
 70
0
  9
$ELEVATION
 40
0.0
  9
$DIMCEN
 40
0.09
  9
$DIMRND
 40
0.0
  9
$INSBASE
 10
0.0
 20
0.0
 30
0.0
  9
$DIMEXO
 40
0.0625
  9
$INSUNITS
 70
4
  9
$USERI2
 70
0
  9
$UCSORG
 10
0.0
 20
0.0
 30
0.0
  9
$PELEVATION
 40
0.0
  9
$TEXTSIZE
 40
0.0
  9
$DRAGMODE
 70
2
  9
$FILLMODE
 70
1
  9
$EXTMAX
 10
153.48499899999999
 20
105.61
 30
0.0
  9
$USERI3
 70
0
  9
$SURFU
 70
6
  9
$ANGDIR
 70
0
  9
$TDUSRTIMER
 40
0.0
  9
$DIMTZIN
 70
0
  9
$DIMTOLJ
 70
1
  9
$DIMZIN
 70
0
  9
$DIMDLE
 40
0.0
  9
$DIMSCALE
 40
1.0
  9
$DIMLUNIT
 70
2
  9
$WORLDVIEW
 70
1
  9
$USERI4
 70
0
  9
$SURFV
 70
6
  9
$DIMALTTZ
 70
0
  9
$DIMJUST
 70
0
  9
$OSMODE
 70
37
  9
$QTEXTMODE
 70
0
  9
$LIMMAX
 10
2855.6374741756972
 20
1683.170024474208
  9
$ACADMAINTVER
 70
9
  9
$DIMTXT
 40
1.0
  9
$GRIDMODE
 70
1
  9
$PROXYGRAPHICS
 70
1
  9
$USERI5
 70
0
  9
$HANDLING
 70
1
  9
$PDMODE
 70
0
  9
$LIMCHECK
 70
0
  9
$THICKNESS
 40
0.0
  9
$DIMSE1
 70
0
  9
$DIMLIM
 70
0
  9
$ATTMODE
 70
1
  9
$LUPREC
 70
4
  9
$PEXTMAX
 10
12.0
 20
9.0
 30
0.0
  9
$PEXTMIN
 10
0.0
 20
0.0
 30
0.0
  9
$PUCSORG
 10
0.0
 20
0.0
 30
0.0
  9
$SPLINETYPE
 70
6
  9
$TDINDWG
 40
0.0
  9
$DIMSOXD
 70
0
  9
$DIMLFAC
 40
1.0
  9
$DIMAPOST
  1
^B2147483648l^B
  9
$DIMSE2
 70
0
  9
$DIMTOH
 70
1
  9
$CELTYPE
  6
BYLAYER
  9
$PLIMCHECK
 70
0
  9
$PLINEWID
 40
0.0
  9
$DIMSTYLE
  2
STANDARD
  9
$DIMTVP
 40
0.0
  9
$DIMASO
 70
1
  9
$DIMTM
 40
0.0
  9
$DIMDLI
 40
0.38
  9
$DISPSILH
 70
0
  9
$CECOLOR
 62
7
  9
$PLIMMAX
 10
279.39999999999998
 20
215.90000000000001
  9
$PLIMMIN
 10
0.0
 20
0.0
  9
$TREEDEPTH
 70
3020
  9
$MAXACTVP
 70
64
  9
$TDUPDATE
 40
2456154.5960094789
  9
$FILLETRAD
 40
0.0
  9
$DIMALTU
 70
2
  9
$DIMDEC
 70
4
  9
$DIMCLRT
 70
0
  9
$DIMALTD
 70
2
  9
$DIMTIH
 70
1
  9
$LTSCALE
 40
1.0
  9
$DIMEXE
 40
0.18
  9
$CMLSCALE
 40
1.0
  9
$PINSBASE
 10
0.0
 20
0.0
 30
0.0
  9
$USERR1
 40
0.0
  9
$ATTDIA
 70
0
  9
$PDSIZE
 40
0.0
  9
$DIMTXSTY
  7
STANDARD
  9
$DIMCLRD
 70
0
  9
$CELTSCALE
 40
1.0
  9
$DIMAUNIT
 70
0
  9
$PSLTSCALE
 70
1
  9
$PLINEGEN
 70
0
  9
$SHADEDGE
 70
3
  9
$USERR2
 40
0.0
  9
$COORDS
 70
1
  9
$TDCREATE
 40
2456154.5960088889
  9
$DIMFIT
 70
0
  9
$DIMSD1
 70
0
  9
$DIMCLRE
 70
0
  9
$DIMTOFL
 70
0
  9
$DIMALTF
 40
25.399999999999999
  9
$DIMTOL
 70
0
  9
$DIMTP
 40
0.0
  9
$TEXTSTYLE
  7
STANDARD
  9
$AUNITS
 70
0
  9
$USERR3
 40
0.0
  9
$DIMSD2
 70
0
  9
$DIMTIX
 70
0
  9
$MIRRTEXT
 70
1
  0
ENDSEC
  0
SECTION
  2
TABLES
  0
TABLE
  2
VPORT
  5
8
100
AcDbSymbolTable
 70
1
  0
VPORT
  5
30
100
AcDbSymbolTableRecord
100
AcDbViewportTableRecord
  2
*Active
 70
0
 10
0.0
 20
0.0
 11
1.0
 21
1.0
 12
286.30555555555549
 22
148.5
 13
0.0
 23
0.0
 14
10.0
 24
10.0
 15
10.0
 25
10.0
 16
0.0
 26
0.0
 36
1.0
 17
0.0
 27
0.0
 37
0.0
 40
297.0
 41
1.92798353909465
 42
50.0
 43
0.0
 44
0.0
 50
0.0
 51
0.0
 71
0
 72
100
 73
1
 74
3
 75
1
 76
1
 77
0
 78
0
281
0
 65
1
110
0.0
120
0.0
130
0.0
111
1.0
121
0.0
131
0.0
112
0.0
122
1.0
132
0.0
 79
0
146
0.0
  0
ENDTAB
  0
TABLE
  2
LTYPE
  5
5
100
AcDbSymbolTable
 70
21
  0
LTYPE
  5
14
100
AcDbSymbolTableRecord
100
AcDbLinetypeTableRecord
  2
ByBlock
 70
0
  3

 72
65
 73
0
 40
0.0
  0
LTYPE
  5
15
100
AcDbSymbolTableRecord
100
AcDbLinetypeTableRecord
  2
ByLayer
 70
0
  3

 72
65
 73
0
 40
0.0
  0
LTYPE
  5
16
100
AcDbSymbolTableRecord
100
AcDbLinetypeTableRecord
  2
CONTINUOUS
 70
0
  3
Solid line
 72
65
 73
0
 40
0.0
  0
LTYPE
  5
31
100
AcDbSymbolTableRecord
100
AcDbLinetypeTableRecord
  2
DOT
 70
0
  3
Dot . . . . . . . . . . . . . . . . . . . . . .
 72
65
 73
2
 40
6.3499999999999996
 49
0.0
 74
0
 49
-6.3499999999999996
 74
0
  0
LTYPE
  5
32
100
AcDbSymbolTableRecord
100
AcDbLinetypeTableRecord
  2
DOT2
 70
0
  3
Dot (.5x) .....................................
 72
65
 73
2
 40
3.1749999999999998
 49
0.0
 74
0
 49
-3.1749999999999998
 74
0
  0
LTYPE
  5
33
100
AcDbSymbolTableRecord
100
AcDbLinetypeTableRecord
  2
DOTX2
 70
0
  3
Dot (2x) .  .  .  .  .  .  .  .  .  .  .  .  .
 72
65
 73
2
 40
12.699999999999999
 49
0.0
 74
0
 49
-12.699999999999999
 74
0
  0
LTYPE
  5
34
100
AcDbSymbolTableRecord
100
AcDbLinetypeTableRecord
  2
DASHED
 70
0
  3
Dashed __ __ __ __ __ __ __ __ __ __ __ __ __ _
 72
65
 73
2
 40
19.050000000000001
 49
12.699999999999999
 74
0
 49
-6.3499999999999996
 74
0
  0
LTYPE
  5
35
100
AcDbSymbolTableRecord
100
AcDbLinetypeTableRecord
  2
DASHED2
 70
0
  3
Dashed (.5x) _ _ _ _ _ _ _ _ _ _ _ _ _ _ _ _ _
 72
65
 73
2
 40
9.5250000000000004
 49
6.3499999999999996
 74
0
 49
-3.1749999999999998
 74
0
  0
LTYPE
  5
36
100
AcDbSymbolTableRecord
100
AcDbLinetypeTableRecord
  2
DASHEDX2
 70
0
  3
Dashed (2x) ____  ____  ____  ____  ____  ___
 72
65
 73
2
 40
38.100000000000001
 49
25.399999999999999
 74
0
 49
-12.699999999999999
 74
0
  0
LTYPE
  5
37
100
AcDbSymbolTableRecord
100
AcDbLinetypeTableRecord
  2
DASHDOT
 70
0
  3
Dash dot __ . __ . __ . __ . __ . __ . __ . __
 72
65
 73
4
 40
25.399999999999999
 49
12.699999999999999
 74
0
 49
-6.3499999999999996
 74
0
 49
0.0
 74
0
 49
-6.3499999999999996
 74
0
  0
LTYPE
  5
38
100
AcDbSymbolTableRecord
100
AcDbLinetypeTableRecord
  2
DASHDOT2
 70
0
  3
Dash dot (.5x) _._._._._._._._._._._._._._._.
 72
65
 73
4
 40
12.699999999999999
 49
6.3499999999999996
 74
0
 49
-3.1749999999999998
 74
0
 49
0.0
 74
0
 49
-3.1749999999999998
 74
0
  0
LTYPE
  5
39
100
AcDbSymbolTableRecord
100
AcDbLinetypeTableRecord
  2
DASHDOTX2
 70
0
  3
Dash dot (2x) ____  .  ____  .  ____  .  ___
 72
65
 73
4
 40
50.799999999999997
 49
25.399999999999999
 74
0
 49
-12.699999999999999
 74
0
 49
0.0
 74
0
 49
-12.699999999999999
 74
0
  0
LTYPE
  5
3A
100
AcDbSymbolTableRecord
100
AcDbLinetypeTableRecord
  2
DIVIDE
 70
0
  3
Divide ____ . . ____ . . ____ . . ____ . . ____
 72
65
 73
6
 40
31.75
 49
12.699999999999999
 74
0
 49
-6.3499999999999996
 74
0
 49
0.0
 74
0
 49
-6.3499999999999996
 74
0
 49
0.0
 74
0
 49
-6.3499999999999996
 74
0
  0
LTYPE
  5
3B
100
AcDbSymbolTableRecord
100
AcDbLinetypeTableRecord
  2
DIVIDE2
 70
0
  3
Divide (.5x) __..__..__..__..__..__..__..__.._
 72
65
 73
6
 40
15.875
 49
6.3499999999999996
 74
0
 49
-3.1749999999999998
 74
0
 49
0.0
 74
0
 49
-3.1749999999999998
 74
0
 49
0.0
 74
0
 49
-3.1749999999999998
 74
0
  0
LTYPE
  5
3C
100
AcDbSymbolTableRecord
100
AcDbLinetypeTableRecord
  2
DIVIDEX2
 70
0
  3
Divide (2x) ________  .  .  ________  .  .  _
 72
65
 73
6
 40
63.5
 49
25.399999999999999
 74
0
 49
-12.699999999999999
 74
0
 49
0.0
 74
0
 49
-12.699999999999999
 74
0
 49
0.0
 74
0
 49
-12.699999999999999
 74
0
  0
LTYPE
  5
3D
100
AcDbSymbolTableRecord
100
AcDbLinetypeTableRecord
  2
CENTER
 70
0
  3
Center ____ _ ____ _ ____ _ ____ _ ____ _ ____
 72
65
 73
4
 40
50.799999999999997
 49
31.75
 74
0
 49
-6.3499999999999996
 74
0
 49
6.3499999999999996
 74
0
 49
-6.3499999999999996
 74
0
  0
LTYPE
  5
3E
100
AcDbSymbolTableRecord
100
AcDbLinetypeTableRecord
  2
CENTER2
 70
0
  3
Center (.5x) ___ _ ___ _ ___ _ ___ _ ___ _ ___
 72
65
 73
4
 40
28.574999999999999
 49
19.050000000000001
 74
0
 49
-3.1749999999999998
 74
0
 49
3.1749999999999998
 74
0
 49
-3.1749999999999998
 74
0
  0
LTYPE
  5
3F
100
AcDbSymbolTableRecord
100
AcDbLinetypeTableRecord
  2
CENTERX2
 70
0
  3
Center (2x) ________  __  ________  __  _____
 72
65
 73
4
 40
101.59999999999999
 49
63.5
 74
0
 49
-12.699999999999999
 74
0
 49
12.699999999999999
 74
0
 49
-12.699999999999999
 74
0
  0
LTYPE
  5
40
100
AcDbSymbolTableRecord
100
AcDbLinetypeTableRecord
  2
BORDER
 70
0
  3
Border __ __ . __ __ . __ __ . __ __ . __ __ .
 72
65
 73
6
 40
44.450000000000003
 49
12.699999999999999
 74
0
 49
-6.3499999999999996
 74
0
 49
12.699999999999999
 74
0
 49
-6.3499999999999996
 74
0
 49
0.0
 74
0
 49
-6.3499999999999996
 74
0
  0
LTYPE
  5
41
100
AcDbSymbolTableRecord
100
AcDbLinetypeTableRecord
  2
BORDER2
 70
0
  3
Border (.5x) __.__.__.__.__.__.__.__.__.__.__.
 72
65
 73
6
 40
22.225000000000001
 49
6.3499999999999996
 74
0
 49
-3.1749999999999998
 74
0
 49
6.3499999999999996
 74
0
 49
-3.1749999999999998
 74
0
 49
0.0
 74
0
 49
-3.1749999999999998
 74
0
  0
LTYPE
  5
42
100
AcDbSymbolTableRecord
100
AcDbLinetypeTableRecord
  2
BORDERX2
 70
0
  3
Border (2x) ____  ____  .  ____  ____  .  ___
 72
65
 73
6
 40
88.900000000000006
 49
25.399999999999999
 74
0
 49
-12.699999999999999
 74
0
 49
25.399999999999999
 74
0
 49
-12.699999999999999
 74
0
 49
0.0
 74
0
 49
-12.699999999999999
 74
0
  0
ENDTAB
  0
TABLE
  2
LAYER
  5
2
100
AcDbSymbolTable
 70
4
  0
LAYER
  5
10
100
AcDbSymbolTableRecord
100
AcDbLayerTableRecord
  2
0
 70
0
 62
7
  6
CONTINUOUS
390
F
  0
LAYER
  5
43
100
AcDbSymbolTableRecord
100
AcDbLayerTableRecord
  2
MECHANICAL1
 70
0
 62
211
  6
CONTINUOUS
390
F
  0
LAYER
  5
44
100
AcDbSymbolTableRecord
100
AcDbLayerTableRecord
  2
MULTILAYER
 70
0
 62
9
  6
CONTINUOUS
390
F
  0
LAYER
  5
45
100
AcDbSymbolTableRecord
100
AcDbLayerTableRecord
  2
TOPOVERLAY
 70
0
 62
222
  6
CONTINUOUS
390
F
  0
ENDTAB
  0
TABLE
  2
STYLE
  5
3
100
AcDbSymbolTable
 70
1
  0
STYLE
  5
11
100
AcDbSymbolTableRecord
100
AcDbTextStyleTableRecord
  2
Standard
 70
0
 40
0.0
 41
0.75
 50
0.0
 71
0
 42
2.5
  3
txt
  4

  0
ENDTAB
  0
TABLE
  2
VIEW
  5
6
100
AcDbSymbolTable
 70
0
  0
ENDTAB
  0
TABLE
  2
UCS
  5
7
100
AcDbSymbolTable
 70
0
  0
ENDTAB
  0
TABLE
  2
APPID
  5
9
100
AcDbSymbolTable
 70
1
  0
APPID
  5
12
100
AcDbSymbolTableRecord
100
AcDbRegAppTableRecord
  2
ACAD
 70
0
  0
ENDTAB
  0
TABLE
  2
DIMSTYLE
  5
A
100
AcDbSymbolTable
 70
1
100
AcDbDimStyleTable
 71
0
  0
DIMSTYLE
105
27
100
AcDbSymbolTableRecord
100
AcDbDimStyleTableRecord
  2
Standard
 41
0.18
 42
0.0625
 43
3.75
 44
0.18
 70
0
 73
0
 74
0
 77
1
 78
8
140
1.0
141
2.5
143
0.03937007874016
147
0.09
171
3
172
1
271
2
272
2
274
3
278
44
283
0
284
8
340
11
  0
ENDTAB
  0
TABLE
  2
BLOCK_RECORD
  5
1
100
AcDbSymbolTable
 70
1
  0
BLOCK_RECORD
  5
1F
100
AcDbSymbolTableRecord
100
AcDbBlockTableRecord
  2
*Model_Space
340
22
  0
BLOCK_RECORD
  5
1B
100
AcDbSymbolTableRecord
100
AcDbBlockTableRecord
  2
*Paper_Space
340
1E
  0
BLOCK_RECORD
  5
23
100
AcDbSymbolTableRecord
100
AcDbBlockTableRecord
  2
*Paper_Space0
340
26
  0
ENDTAB
  0
ENDSEC
  0
SECTION
  2
BLOCKS
  0
BLOCK
  5
20
100
AcDbEntity
  8
0
100
AcDbBlockBegin
  2
*Model_Space
 70
0
 10
0.0
 20
0.0
 30
0.0
  3
*Model_Space
  1

  0
ENDBLK
  5
21
100
AcDbEntity
  8
0
100
AcDbBlockEnd
  0
BLOCK
  5
1C
100
AcDbEntity
 67
1
  8
0
100
AcDbBlockBegin
  2
*Paper_Space
 70
0
 10
0.0
 20
0.0
 30
0.0
  3
*Paper_Space
  1

  0
ENDBLK
  5
1D
100
AcDbEntity
 67
1
  8
0
100
AcDbBlockEnd
  0
BLOCK
  5
24
100
AcDbEntity
  8
0
100
AcDbBlockBegin
  2
*Paper_Space0
 70
0
 10
0.0
 20
0.0
 30
0.0
  3
*Paper_Space0
  1

  0
ENDBLK
  5
25
100
AcDbEntity
  8
0
100
AcDbBlockEnd
  0
ENDSEC
  0
SECTION
  2
ENTITIES
  0
LINE
  5
46
100
AcDbEntity
100
AcDbLine
  8
MECHANICAL1
 62
256
370
-1
  6
ByLayer
 10
120.705568
 20
82.510000000000005
 30
0.0
 11
120.705568
 21
103.92709000000001
 31
0.0
  0
LINE
  5
47
100
AcDbEntity
100
AcDbLine
  8
MECHANICAL1
 62
256
370
-1
  6
ByLayer
 10
117.70695499999999
 20
103.92709000000001
 30
0.0
 11
120.705568
 21
103.92709000000001
 31
0.0
  0
LINE
  5
48
100
AcDbEntity
100
AcDbLine
  8
MECHANICAL1
 62
256
370
-1
  6
ByLayer
 10
117.70695499999999
 20
82.510000000000005
 30
0.0
 11
117.70695499999999
 21
103.92709000000001
 31
0.0
  0
LINE
  5
49
100
AcDbEntity
100
AcDbLine
  8
MECHANICAL1
 62
256
370
-1
  6
ByLayer
 10
117.70695499999999
 20
82.510000000000005
 30
0.0
 11
120.705568
 21
82.510000000000005
 31
0.0
  0
LINE
  5
4A
100
AcDbEntity
100
AcDbLine
  8
MECHANICAL1
 62
256
370
-1
  6
ByLayer
 10
74.05068
 20
64.768735000000007
 30
0.0
 11
74.05068
 21
86.260000000000005
 31
0.0
  0
LINE
  5
4B
100
AcDbEntity
100
AcDbLine
  8
MECHANICAL1
 62
256
370
-1
  6
ByLayer
 10
71.140262000000007
 20
86.260000000000005
 30
0.0
 11
74.05068
 21
86.260000000000005
 31
0.0
  0
LINE
  5
4C
100
AcDbEntity
100
AcDbLine
  8
MECHANICAL1
 62
256
370
-1
  6
ByLayer
 10
71.140262000000007
 20
64.768735000000007
 30
0.0
 11
71.140262000000007
 21
86.260000000000005
 31
0.0
  0
LINE
  5
4D
100
AcDbEntity
100
AcDbLine
  8
MECHANICAL1
 62
256
370
-1
  6
ByLayer
 10
71.140262000000007
 20
64.768735000000007
 30
0.0
 11
74.05068
 21
64.768735000000007
 31
0.0
  0
LINE
  5
4E
100
AcDbEntity
100
AcDbLine
  8
MECHANICAL1
 62
256
370
-1
  6
ByLayer
 10
78.460403999999997
 20
62.034703999999998
 30
0.0
 11
78.460403999999997
 21
86.288189000000003
 31
0.0
  0
LINE
  5
4F
100
AcDbEntity
100
AcDbLine
  8
MECHANICAL1
 62
256
370
-1
  6
ByLayer
 10
60.960000000000001
 20
62.034703999999998
 30
0.0
 11
78.460403999999997
 21
62.034703999999998
 31
0.0
  0
LINE
  5
50
100
AcDbEntity
100
AcDbLine
  8
MECHANICAL1
 62
256
370
-1
  6
ByLayer
 10
60.960000000000001
 20
86.288189000000003
 30
0.0
 11
78.460403999999997
 21
86.288189000000003
 31
0.0
  0
LINE
  5
51
100
AcDbEntity
100
AcDbLine
  8
MECHANICAL1
 62
256
370
-1
  6
ByLayer
 10
65.259998999999993
 20
92.990971999999999
 30
0.0
 11
65.259998999999993
 21
100.57569700000001
 31
0.0
  0
LINE
  5
52
100
AcDbEntity
100
AcDbLine
  8
MECHANICAL1
 62
256
370
-1
  6
ByLayer
 10
60.960000000000001
 20
92.990971999999999
 30
0.0
 11
65.259998999999993
 21
92.990971999999999
 31
0.0
  0
LINE
  5
53
100
AcDbEntity
100
AcDbLine
  8
MECHANICAL1
 62
256
370
-1
  6
ByLayer
 10
60.960000000000001
 20
100.57569700000001
 30
0.0
 11
65.259998999999993
 21
100.57569700000001
 31
0.0
  0
LINE
  5
54
100
AcDbEntity
100
AcDbLine
  8
MECHANICAL1
 62
256
370
-1
  6
ByLayer
 10
112.944453
 20
93.696528000000001
 30
0.0
 11
112.944453
 21
104.459999
 31
0.0
  0
LINE
  5
55
100
AcDbEntity
100
AcDbLine
  8
MECHANICAL1
 62
256
370
-1
  6
ByLayer
 10
98.039582999999993
 20
93.696528000000001
 30
0.0
 11
98.039582999999993
 21
104.459999
 31
0.0
  0
LINE
  5
56
100
AcDbEntity
100
AcDbLine
  8
MECHANICAL1
 62
256
370
-1
  6
ByLayer
 10
98.039582999999993
 20
93.696528000000001
 30
0.0
 11
112.944453
 21
93.696528000000001
 31
0.0
  0
LINE
  5
57
100
AcDbEntity
100
AcDbLine
  8
MECHANICAL1
 62
256
370
-1
  6
ByLayer
 10
126.702792
 20
102.16319900000001
 30
0.0
 11
145.96000000000001
 21
102.16319900000001
 31
0.0
  0
LINE
  5
58
100
AcDbEntity
100
AcDbLine
  8
MECHANICAL1
 62
256
370
-1
  6
ByLayer
 10
126.702792
 20
86.376385999999997
 30
0.0
 11
126.702792
 21
102.16319900000001
 31
0.0
  0
LINE
  5
59
100
AcDbEntity
100
AcDbLine
  8
MECHANICAL1
 62
256
370
-1
  6
ByLayer
 10
126.702792
 20
86.376385999999997
 30
0.0
 11
145.96000000000001
 21
86.376385999999997
 31
0.0
  0
LINE
  5
5A
100
AcDbEntity
100
AcDbLine
  8
MECHANICAL1
 62
256
370
-1
  6
ByLayer
 10
136.315991
 20
66.797207
 30
0.0
 11
136.315991
 21
80.114574000000005
 31
0.0
  0
LINE
  5
5B
100
AcDbEntity
100
AcDbLine
  8
MECHANICAL1
 62
256
370
-1
  6
ByLayer
 10
136.315991
 20
66.797207
 30
0.0
 11
145.96000000000001
 21
66.797207
 31
0.0
  0
LINE
  5
5C
100
AcDbEntity
100
AcDbLine
  8
MECHANICAL1
 62
256
370
-1
  6
ByLayer
 10
136.315991
 20
80.114574000000005
 30
0.0
 11
145.96000000000001
 21
80.114574000000005
 31
0.0
  0
LINE
  5
5D
100
AcDbEntity
100
AcDbLine
  8
MECHANICAL1
 62
256
370
-1
  6
ByLayer
 10
131.72987900000001
 20
48.259999999999998
 30
0.0
 11
131.72987900000001
 21
58.947898000000002
 31
0.0
  0
LINE
  5
5E
100
AcDbEntity
100
AcDbLine
  8
MECHANICAL1
 62
256
370
-1
  6
ByLayer
 10
119.470843
 20
48.259999999999998
 30
0.0
 11
119.470843
 21
58.947898000000002
 31
0.0
  0
LINE
  5
5F
100
AcDbEntity
100
AcDbLine
  8
MECHANICAL1
 62
256
370
-1
  6
ByLayer
 10
119.470843
 20
58.947898000000002
 30
0.0
 11
131.72987900000001
 21
58.947898000000002
 31
0.0
  0
LINE
  5
60
100
AcDbEntity
100
AcDbLine
  8
MECHANICAL1
 62
256
370
-1
  6
ByLayer
 10
112.415284
 20
50.569420999999998
 30
0.0
 11
112.415284
 21
60.711785999999996
 31
0.0
  0
LINE
  5
61
100
AcDbEntity
100
AcDbLine
  8
MECHANICAL1
 62
256
370
-1
  6
ByLayer
 10
101.655557
 20
60.711785999999996
 30
0.0
 11
112.415284
 21
60.711785999999996
 31
0.0
  0
LINE
  5
62
100
AcDbEntity
100
AcDbLine
  8
MECHANICAL1
 62
256
370
-1
  6
ByLayer
 10
101.655557
 20
50.569420999999998
 30
0.0
 11
101.655557
 21
60.711785999999996
 31
0.0
  0
LINE
  5
63
100
AcDbEntity
100
AcDbLine
  8
MECHANICAL1
 62
256
370
-1
  6
ByLayer
 10
101.655557
 20
50.569420999999998
 30
0.0
 11
112.415284
 21
50.569420999999998
 31
0.0
  0
LINE
  5
64
100
AcDbEntity
100
AcDbLine
  8
MECHANICAL1
 62
256
370
-1
  6
ByLayer
 10
111.09236900000001
 20
48.259999999999998
 30
0.0
 11
111.09236900000001
 21
50.569420999999998
 31
0.0
  0
LINE
  5
65
100
AcDbEntity
100
AcDbLine
  8
MECHANICAL1
 62
256
370
-1
  6
ByLayer
 10
102.80208500000001
 20
48.259999999999998
 30
0.0
 11
102.80208500000001
 21
50.569420999999998
 31
0.0
  0
LINE
  5
66
100
AcDbEntity
100
AcDbLine
  8
MECHANICAL1
 62
256
370
-1
  6
ByLayer
 10
102.80208500000001
 20
50.569420999999998
 30
0.0
 11
111.09236900000001
 21
50.569420999999998
 31
0.0
  0
LINE
  5
67
100
AcDbEntity
100
AcDbLine
  8
MECHANICAL1
 62
256
370
-1
  6
ByLayer
 10
60.960000000000001
 20
48.259999999999998
 30
0.0
 11
145.96019799999999
 21
48.259999999999998
 31
0.0
  0
LINE
  5
68
100
AcDbEntity
100
AcDbLine
  8
MECHANICAL1
 62
256
370
-1
  6
ByLayer
 10
60.960000000000001
 20
48.259999999999998
 30
0.0
 11
60.960000000000001
 21
104.4597
 31
0.0
  0
LINE
  5
69
100
AcDbEntity
100
AcDbLine
  8
TOPOVERLAY
 62
256
370
-1
  6
ByLayer
 10
60.960000000000001
 20
48.259999999999998
 30
0.0
 11
145.96000000000001
 21
48.259999999999998
 31
0.0
  0
LINE
  5
6A
100
AcDbEntity
100
AcDbLine
  8
TOPOVERLAY
 62
256
370
-1
  6
ByLayer
 10
60.960000000000001
 20
104.459999
 30
0.0
 11
145.96000000000001
 21
104.459999
 31
0.0
  0
LINE
  5
6B
100
AcDbEntity
100
AcDbLine
  8
TOPOVERLAY
 62
256
370
-1
  6
ByLayer
 10
61.589998999999999
 20
54.380000000000003
 30
0.0
 11
94.609999000000002
 21
54.380000000000003
 31
0.0
  0
LINE
  5
6C
100
AcDbEntity
100
AcDbLine
  8
TOPOVERLAY
 62
256
370
-1
  6
ByLayer
 10
122.11
 20
44.359999999999999
 30
0.0
 11
129.184999
 21
44.359999999999999
 31
0.0
  0
LINE
  5
6D
100
AcDbEntity
100
AcDbLine
  8
TOPOVERLAY
 62
256
370
-1
  6
ByLayer
 10
119.45999999999999
 20
47.884999000000001
 30
0.0
 11
131.73499899999999
 21
47.884999000000001
 31
0.0
  0
LINE
  5
6E
100
AcDbEntity
100
AcDbLine
  8
TOPOVERLAY
 62
256
370
-1
  6
ByLayer
 10
61.589998999999999
 20
49.299999999999997
 30
0.0
 11
94.609999000000002
 21
49.299999999999997
 31
0.0
  0
LINE
  5
6F
100
AcDbEntity
100
AcDbLine
  8
TOPOVERLAY
 62
256
370
-1
  6
ByLayer
 10
145.96000000000001
 20
66.784999999999997
 30
0.0
 11
153.48499899999999
 21
66.784999999999997
 31
0.0
  0
LINE
  5
70
100
AcDbEntity
100
AcDbLine
  8
TOPOVERLAY
 62
256
370
-1
  6
ByLayer
 10
145.96000000000001
 20
80.109999999999999
 30
0.0
 11
153.48499899999999
 21
80.109999999999999
 31
0.0
  0
LINE
  5
71
100
AcDbEntity
100
AcDbLine
  8
TOPOVERLAY
 62
256
370
-1
  6
ByLayer
 10
102.81
 20
41.159998999999999
 30
0.0
 11
111.08499999999999
 21
41.159998999999999
 31
0.0
  0
LINE
  5
72
100
AcDbEntity
100
AcDbLine
  8
TOPOVERLAY
 62
256
370
-1
  6
ByLayer
 10
115.35499900000001
 20
59.649999999999999
 30
0.0
 11
117.894999
 21
59.649999999999999
 31
0.0
  0
LINE
  5
73
100
AcDbEntity
100
AcDbLine
  8
TOPOVERLAY
 62
256
370
-1
  6
ByLayer
 10
115.35499900000001
 20
74.890000000000001
 30
0.0
 11
117.894999
 21
74.890000000000001
 31
0.0
  0
LINE
  5
74
100
AcDbEntity
100
AcDbLine
  8
TOPOVERLAY
 62
256
370
-1
  6
ByLayer
 10
115.35499900000001
 20
77.430000000000007
 30
0.0
 11
117.894999
 21
77.430000000000007
 31
0.0
  0
LINE
  5
75
100
AcDbEntity
100
AcDbLine
  8
TOPOVERLAY
 62
256
370
-1
  6
ByLayer
 10
98.035000999999994
 20
105.61
 30
0.0
 11
112.95999999999999
 21
105.61
 31
0.0
  0
LINE
  5
76
100
AcDbEntity
100
AcDbLine
  8
TOPOVERLAY
 62
256
370
-1
  6
ByLayer
 10
42.960000000000001
 20
62.034998999999999
 30
0.0
 11
60.935001
 21
62.034998999999999
 31
0.0
  0
LINE
  5
77
100
AcDbEntity
100
AcDbLine
  8
TOPOVERLAY
 62
256
370
-1
  6
ByLayer
 10
42.960000000000001
 20
86.284998999999999
 30
0.0
 11
60.960000000000001
 21
86.284998999999999
 31
0.0
  0
LINE
  5
78
100
AcDbEntity
100
AcDbLine
  8
TOPOVERLAY
 62
256
370
-1
  6
ByLayer
 10
60.960000000000001
 20
48.259999999999998
 30
0.0
 11
60.960000000000001
 21
104.459999
 31
0.0
  0
LINE
  5
79
100
AcDbEntity
100
AcDbLine
  8
TOPOVERLAY
 62
256
370
-1
  6
ByLayer
 10
117.894999
 20
59.649999999999999
 30
0.0
 11
117.894999
 21
77.430000000000007
 31
0.0
  0
LINE
  5
7A
100
AcDbEntity
100
AcDbLine
  8
TOPOVERLAY
 62
256
370
-1
  6
ByLayer
 10
60.209999000000003
 20
92.985000999999997
 30
0.0
 11
60.960000000000001
 21
92.985000999999997
 31
0.0
  0
LINE
  5
7B
100
AcDbEntity
100
AcDbLine
  8
TOPOVERLAY
 62
256
370
-1
  6
ByLayer
 10
145.96000000000001
 20
86.385001000000003
 30
0.0
 11
146.96000100000001
 21
86.385001000000003
 31
0.0
  0
LINE
  5
7C
100
AcDbEntity
100
AcDbLine
  8
TOPOVERLAY
 62
256
370
-1
  6
ByLayer
 10
145.96000000000001
 20
102.159999
 30
0.0
 11
146.96000100000001
 21
102.159999
 31
0.0
  0
LINE
  5
7D
100
AcDbEntity
100
AcDbLine
  8
TOPOVERLAY
 62
256
370
-1
  6
ByLayer
 10
112.814999
 20
57.109999999999999
 30
0.0
 11
115.35499900000001
 21
57.109999999999999
 31
0.0
  0
LINE
  5
7E
100
AcDbEntity
100
AcDbLine
  8
TOPOVERLAY
 62
256
370
-1
  6
ByLayer
 10
112.814999
 20
74.890000000000001
 30
0.0
 11
115.35499900000001
 21
74.890000000000001
 31
0.0
  0
LINE
  5
7F
100
AcDbEntity
100
AcDbLine
  8
TOPOVERLAY
 62
256
370
-1
  6
ByLayer
 10
112.814999
 20
77.430000000000007
 30
0.0
 11
115.35499900000001
 21
77.430000000000007
 31
0.0
  0
LINE
  5
80
100
AcDbEntity
100
AcDbLine
  8
TOPOVERLAY
 62
256
370
-1
  6
ByLayer
 10
60.209999000000003
 20
100.58500100000001
 30
0.0
 11
60.960000000000001
 21
100.58500100000001
 31
0.0
  0
LINE
  5
81
100
AcDbEntity
100
AcDbLine
  8
TOPOVERLAY
 62
256
370
-1
  6
ByLayer
 10
153.48499899999999
 20
66.784999999999997
 30
0.0
 11
153.48499899999999
 21
80.109999999999999
 31
0.0
  0
LINE
  5
82
100
AcDbEntity
100
AcDbLine
  8
TOPOVERLAY
 62
256
370
-1
  6
ByLayer
 10
145.96000000000001
 20
48.259999999999998
 30
0.0
 11
145.96000000000001
 21
104.459999
 31
0.0
  0
LINE
  5
83
100
AcDbEntity
100
AcDbLine
  8
TOPOVERLAY
 62
256
370
-1
  6
ByLayer
 10
111.08499999999999
 20
41.159998999999999
 30
0.0
 11
111.08499999999999
 21
48.259999999999998
 31
0.0
  0
LINE
  5
84
100
AcDbEntity
100
AcDbLine
  8
TOPOVERLAY
 62
256
370
-1
  6
ByLayer
 10
102.81
 20
41.159998999999999
 30
0.0
 11
102.81
 21
48.259999999999998
 31
0.0
  0
LINE
  5
85
100
AcDbEntity
100
AcDbLine
  8
TOPOVERLAY
 62
256
370
-1
  6
ByLayer
 10
42.960000000000001
 20
62.034998999999999
 30
0.0
 11
42.960000000000001
 21
86.284998999999999
 31
0.0
  0
LINE
  5
86
100
AcDbEntity
100
AcDbLine
  8
TOPOVERLAY
 62
256
370
-1
  6
ByLayer
 10
146.96000100000001
 20
86.385001000000003
 30
0.0
 11
146.96000100000001
 21
102.159999
 31
0.0
  0
LINE
  5
87
100
AcDbEntity
100
AcDbLine
  8
TOPOVERLAY
 62
256
370
-1
  6
ByLayer
 10
115.35499900000001
 20
59.649999999999999
 30
0.0
 11
115.35499900000001
 21
77.430000000000007
 31
0.0
  0
LINE
  5
88
100
AcDbEntity
100
AcDbLine
  8
TOPOVERLAY
 62
256
370
-1
  6
ByLayer
 10
115.35499900000001
 20
57.109999999999999
 30
0.0
 11
115.35499900000001
 21
77.430000000000007
 31
0.0
  0
LINE
  5
89
100
AcDbEntity
100
AcDbLine
  8
TOPOVERLAY
 62
256
370
-1
  6
ByLayer
 10
112.814999
 20
57.109999999999999
 30
0.0
 11
112.814999
 21
77.430000000000007
 31
0.0
  0
LINE
  5
8A
100
AcDbEntity
100
AcDbLine
  8
TOPOVERLAY
 62
256
370
-1
  6
ByLayer
 10
94.609999000000002
 20
49.299999999999997
 30
0.0
 11
94.609999000000002
 21
54.380000000000003
 31
0.0
  0
LINE
  5
8B
100
AcDbEntity
100
AcDbLine
  8
TOPOVERLAY
 62
256
370
-1
  6
ByLayer
 10
61.589998999999999
 20
49.299999999999997
 30
0.0
 11
61.589998999999999
 21
54.380000000000003
 31
0.0
  0
LINE
  5
8C
100
AcDbEntity
100
AcDbLine
  8
TOPOVERLAY
 62
256
370
-1
  6
ByLayer
 10
60.209999000000003
 20
92.985000999999997
 30
0.0
 11
60.209999000000003
 21
100.58500100000001
 31
0.0
  0
LINE
  5
8D
100
AcDbEntity
100
AcDbLine
  8
TOPOVERLAY
 62
256
370
-1
  6
ByLayer
 10
131.73499899999999
 20
47.884999000000001
 30
0.0
 11
131.73499899999999
 21
48.259999999999998
 31
0.0
  0
LINE
  5
8E
100
AcDbEntity
100
AcDbLine
  8
TOPOVERLAY
 62
256
370
-1
  6
ByLayer
 10
129.184999
 20
44.359999999999999
 30
0.0
 11
129.184999
 21
47.884999000000001
 31
0.0
  0
LINE
  5
8F
100
AcDbEntity
100
AcDbLine
  8
TOPOVERLAY
 62
256
370
-1
  6
ByLayer
 10
122.11
 20
44.359999999999999
 30
0.0
 11
122.11
 21
47.884999000000001
 31
0.0
  0
LINE
  5
90
100
AcDbEntity
100
AcDbLine
  8
TOPOVERLAY
 62
256
370
-1
  6
ByLayer
 10
119.45999999999999
 20
47.884999000000001
 30
0.0
 11
119.45999999999999
 21
48.259999999999998
 31
0.0
  0
LINE
  5
91
100
AcDbEntity
100
AcDbLine
  8
TOPOVERLAY
 62
256
370
-1
  6
ByLayer
 10
112.95999999999999
 20
104.459999
 30
0.0
 11
112.95999999999999
 21
105.61
 31
0.0
  0
LINE
  5
92
100
AcDbEntity
100
AcDbLine
  8
TOPOVERLAY
 62
256
370
-1
  6
ByLayer
 10
98.035000999999994
 20
104.459999
 30
0.0
 11
98.035000999999994
 21
105.61
 31
0.0
  0
LWPOLYLINE
  5
93
  8
MULTILAYER
 62
256
370
-1
  6
ByLayer
100
AcDbEntity
100
AcDbPolyline
 90
4
 70
1
 10
62.097999000000002
 20
52.347999999999999
 10
63.621999000000002
 20
52.347999999999999
 10
63.621999000000002
 20
53.872
 10
62.097999000000002
 20
53.872
  0
LWPOLYLINE
  5
94
  8
MULTILAYER
 62
256
370
-1
  6
ByLayer
100
AcDbEntity
100
AcDbPolyline
 90
4
 70
1
 10
62.097999000000002
 20
49.808
 10
63.621999000000002
 20
49.808
 10
63.621999000000002
 20
51.332000000000001
 10
62.097999000000002
 20
51.332000000000001
  0
LWPOLYLINE
  5
95
  8
MULTILAYER
 62
256
370
-1
  6
ByLayer
100
AcDbEntity
100
AcDbPolyline
 90
4
 70
1
 10
64.637998999999994
 20
52.347999999999999
 10
66.161998999999994
 20
52.347999999999999
 10
66.161998999999994
 20
53.872
 10
64.637998999999994
 20
53.872
  0
LWPOLYLINE
  5
96
  8
MULTILAYER
 62
256
370
-1
  6
ByLayer
100
AcDbEntity
100
AcDbPolyline
 90
4
 70
1
 10
64.637998999999994
 20
49.808
 10
66.161998999999994
 20
49.808
 10
66.161998999999994
 20
51.332000000000001
 10
64.637998999999994
 20
51.332000000000001
  0
LWPOLYLINE
  5
97
  8
MULTILAYER
 62
256
370
-1
  6
ByLayer
100
AcDbEntity
100
AcDbPolyline
 90
4
 70
1
 10
67.177999
 20
52.347999999999999
 10
68.701999000000001
 20
52.347999999999999
 10
68.701999000000001
 20
53.872
 10
67.177999
 20
53.872
  0
LWPOLYLINE
  5
98
  8
MULTILAYER
 62
256
370
-1
  6
ByLayer
100
AcDbEntity
100
AcDbPolyline
 90
4
 70
1
 10
67.177999
 20
49.808
 10
68.701999000000001
 20
49.808
 10
68.701999000000001
 20
51.332000000000001
 10
67.177999
 20
51.332000000000001
  0
LWPOLYLINE
  5
99
  8
MULTILAYER
 62
256
370
-1
  6
ByLayer
100
AcDbEntity
100
AcDbPolyline
 90
4
 70
1
 10
69.717999000000006
 20
52.347999999999999
 10
71.241999000000007
 20
52.347999999999999
 10
71.241999000000007
 20
53.872
 10
69.717999000000006
 20
53.872
  0
LWPOLYLINE
  5
9A
  8
MULTILAYER
 62
256
370
-1
  6
ByLayer
100
AcDbEntity
100
AcDbPolyline
 90
4
 70
1
 10
69.717999000000006
 20
49.808
 10
71.241999000000007
 20
49.808
 10
71.241999000000007
 20
51.332000000000001
 10
69.717999000000006
 20
51.332000000000001
  0
LWPOLYLINE
  5
9B
  8
MULTILAYER
 62
256
370
-1
  6
ByLayer
100
AcDbEntity
100
AcDbPolyline
 90
4
 70
1
 10
72.257998999999998
 20
52.347999999999999
 10
73.781998999999999
 20
52.347999999999999
 10
73.781998999999999
 20
53.872
 10
72.257998999999998
 20
53.872
  0
LWPOLYLINE
  5
9C
  8
MULTILAYER
 62
256
370
-1
  6
ByLayer
100
AcDbEntity
100
AcDbPolyline
 90
4
 70
1
 10
72.257998999999998
 20
49.808
 10
73.781998999999999
 20
49.808
 10
73.781998999999999
 20
51.332000000000001
 10
72.257998999999998
 20
51.332000000000001
  0
LWPOLYLINE
  5
9D
  8
MULTILAYER
 62
256
370
-1
  6
ByLayer
100
AcDbEntity
100
AcDbPolyline
 90
4
 70
1
 10
74.797999000000004
 20
52.347999999999999
 10
76.321999000000005
 20
52.347999999999999
 10
76.321999000000005
 20
53.872
 10
74.797999000000004
 20
53.872
  0
LWPOLYLINE
  5
9E
  8
MULTILAYER
 62
256
370
-1
  6
ByLayer
100
AcDbEntity
100
AcDbPolyline
 90
4
 70
1
 10
74.797999000000004
 20
49.808
 10
76.321999000000005
 20
49.808
 10
76.321999000000005
 20
51.332000000000001
 10
74.797999000000004
 20
51.332000000000001
  0
LWPOLYLINE
  5
9F
  8
MULTILAYER
 62
256
370
-1
  6
ByLayer
100
AcDbEntity
100
AcDbPolyline
 90
4
 70
1
 10
77.337998999999996
 20
52.347999999999999
 10
78.861998999999997
 20
52.347999999999999
 10
78.861998999999997
 20
53.872
 10
77.337998999999996
 20
53.872
  0
LWPOLYLINE
  5
A0
  8
MULTILAYER
 62
256
370
-1
  6
ByLayer
100
AcDbEntity
100
AcDbPolyline
 90
4
 70
1
 10
77.337998999999996
 20
49.808
 10
78.861998999999997
 20
49.808
 10
78.861998999999997
 20
51.332000000000001
 10
77.337998999999996
 20
51.332000000000001
  0
LWPOLYLINE
  5
A1
  8
MULTILAYER
 62
256
370
-1
  6
ByLayer
100
AcDbEntity
100
AcDbPolyline
 90
4
 70
1
 10
79.877999000000003
 20
52.347999999999999
 10
81.401999000000004
 20
52.347999999999999
 10
81.401999000000004
 20
53.872
 10
79.877999000000003
 20
53.872
  0
LWPOLYLINE
  5
A2
  8
MULTILAYER
 62
256
370
-1
  6
ByLayer
100
AcDbEntity
100
AcDbPolyline
 90
4
 70
1
 10
79.877999000000003
 20
49.808
 10
81.401999000000004
 20
49.808
 10
81.401999000000004
 20
51.332000000000001
 10
79.877999000000003
 20
51.332000000000001
  0
LWPOLYLINE
  5
A3
  8
MULTILAYER
 62
256
370
-1
  6
ByLayer
100
AcDbEntity
100
AcDbPolyline
 90
4
 70
1
 10
82.417998999999995
 20
52.347999999999999
 10
83.941998999999996
 20
52.347999999999999
 10
83.941998999999996
 20
53.872
 10
82.417998999999995
 20
53.872
  0
LWPOLYLINE
  5
A4
  8
MULTILAYER
 62
256
370
-1
  6
ByLayer
100
AcDbEntity
100
AcDbPolyline
 90
4
 70
1
 10
82.417998999999995
 20
49.808
 10
83.941998999999996
 20
49.808
 10
83.941998999999996
 20
51.332000000000001
 10
82.417998999999995
 20
51.332000000000001
  0
LWPOLYLINE
  5
A5
  8
MULTILAYER
 62
256
370
-1
  6
ByLayer
100
AcDbEntity
100
AcDbPolyline
 90
4
 70
1
 10
84.957999000000001
 20
52.347999999999999
 10
86.481999000000002
 20
52.347999999999999
 10
86.481999000000002
 20
53.872
 10
84.957999000000001
 20
53.872
  0
LWPOLYLINE
  5
A6
  8
MULTILAYER
 62
256
370
-1
  6
ByLayer
100
AcDbEntity
100
AcDbPolyline
 90
4
 70
1
 10
84.957999000000001
 20
49.808
 10
86.481999000000002
 20
49.808
 10
86.481999000000002
 20
51.332000000000001
 10
84.957999000000001
 20
51.332000000000001
  0
LWPOLYLINE
  5
A7
  8
MULTILAYER
 62
256
370
-1
  6
ByLayer
100
AcDbEntity
100
AcDbPolyline
 90
4
 70
1
 10
87.497998999999993
 20
52.347999999999999
 10
89.021998999999994
 20
52.347999999999999
 10
89.021998999999994
 20
53.872
 10
87.497998999999993
 20
53.872
  0
LWPOLYLINE
  5
A8
  8
MULTILAYER
 62
256
370
-1
  6
ByLayer
100
AcDbEntity
100
AcDbPolyline
 90
4
 70
1
 10
87.497998999999993
 20
49.808
 10
89.021998999999994
 20
49.808
 10
89.021998999999994
 20
51.332000000000001
 10
87.497998999999993
 20
51.332000000000001
  0
LWPOLYLINE
  5
A9
  8
MULTILAYER
 62
256
370
-1
  6
ByLayer
100
AcDbEntity
100
AcDbPolyline
 90
4
 70
1
 10
90.037998999999999
 20
52.347999999999999
 10
91.561999
 20
52.347999999999999
 10
91.561999
 20
53.872
 10
90.037998999999999
 20
53.872
  0
LWPOLYLINE
  5
AA
  8
MULTILAYER
 62
256
370
-1
  6
ByLayer
100
AcDbEntity
100
AcDbPolyline
 90
4
 70
1
 10
90.037998999999999
 20
49.808
 10
91.561999
 20
49.808
 10
91.561999
 20
51.332000000000001
 10
90.037998999999999
 20
51.332000000000001
  0
LWPOLYLINE
  5
AB
  8
MULTILAYER
 62
256
370
-1
  6
ByLayer
100
AcDbEntity
100
AcDbPolyline
 90
4
 70
1
 10
92.577999000000005
 20
52.347999999999999
 10
94.101999000000006
 20
52.347999999999999
 10
94.101999000000006
 20
53.872
 10
92.577999000000005
 20
53.872
  0
LWPOLYLINE
  5
AC
  8
MULTILAYER
 62
256
370
-1
  6
ByLayer
100
AcDbEntity
100
AcDbPolyline
 90
4
 70
1
 10
92.577999000000005
 20
49.808
 10
94.101999000000006
 20
49.808
 10
94.101999000000006
 20
51.332000000000001
 10
92.577999000000005
 20
51.332000000000001
  0
LWPOLYLINE
  5
AD
  8
MULTILAYER
 62
256
370
-1
  6
ByLayer
100
AcDbEntity
100
AcDbPolyline
 90
4
 70
1
 10
114.846999
 20
57.618000000000002
 10
114.846999
 20
59.142000000000003
 10
113.322999
 20
59.142000000000003
 10
113.322999
 20
57.618000000000002
  0
LWPOLYLINE
  5
AE
  8
MULTILAYER
 62
256
370
-1
  6
ByLayer
100
AcDbEntity
100
AcDbPolyline
 90
4
 70
1
 10
114.846999
 20
65.238
 10
114.846999
 20
66.762
 10
113.322999
 20
66.762
 10
113.322999
 20
65.238
  0
LWPOLYLINE
  5
AF
  8
MULTILAYER
 62
256
370
-1
  6
ByLayer
100
AcDbEntity
100
AcDbPolyline
 90
4
 70
1
 10
114.846999
 20
67.778000000000006
 10
114.846999
 20
69.302000000000007
 10
113.322999
 20
69.302000000000007
 10
113.322999
 20
67.778000000000006
  0
LWPOLYLINE
  5
B0
  8
MULTILAYER
 62
256
370
-1
  6
ByLayer
100
AcDbEntity
100
AcDbPolyline
 90
4
 70
1
 10
114.846999
 20
70.317999999999998
 10
114.846999
 20
71.841999999999999
 10
113.322999
 20
71.841999999999999
 10
113.322999
 20
70.317999999999998
  0
LWPOLYLINE
  5
B1
  8
MULTILAYER
 62
256
370
-1
  6
ByLayer
100
AcDbEntity
100
AcDbPolyline
 90
4
 70
1
 10
114.846999
 20
72.858000000000004
 10
114.846999
 20
74.382000000000005
 10
113.322999
 20
74.382000000000005
 10
113.322999
 20
72.858000000000004
  0
LWPOLYLINE
  5
B2
  8
MULTILAYER
 62
256
370
-1
  6
ByLayer
100
AcDbEntity
100
AcDbPolyline
 90
4
 70
1
 10
114.846999
 20
75.397999999999996
 10
114.846999
 20
76.921999999999997
 10
113.322999
 20
76.921999999999997
 10
113.322999
 20
75.397999999999996
  0
LWPOLYLINE
  5
B3
  8
MULTILAYER
 62
256
370
-1
  6
ByLayer
100
AcDbEntity
100
AcDbPolyline
 90
4
 70
1
 10
114.846999
 20
60.158000000000001
 10
114.846999
 20
61.682000000000002
 10
113.322999
 20
61.682000000000002
 10
113.322999
 20
60.158000000000001
  0
LWPOLYLINE
  5
B4
  8
MULTILAYER
 62
256
370
-1
  6
ByLayer
100
AcDbEntity
100
AcDbPolyline
 90
4
 70
1
 10
114.846999
 20
62.698
 10
114.846999
 20
64.221999999999994
 10
113.322999
 20
64.221999999999994
 10
113.322999
 20
62.698
  0
LWPOLYLINE
  5
B5
  8
MULTILAYER
 62
256
370
-1
  6
ByLayer
100
AcDbEntity
100
AcDbPolyline
 90
4
 70
1
 10
117.386999
 20
65.238
 10
117.386999
 20
66.762
 10
115.862999
 20
66.762
 10
115.862999
 20
65.238
  0
LWPOLYLINE
  5
B6
  8
MULTILAYER
 62
256
370
-1
  6
ByLayer
100
AcDbEntity
100
AcDbPolyline
 90
4
 70
1
 10
117.386999
 20
67.778000000000006
 10
117.386999
 20
69.302000000000007
 10
115.862999
 20
69.302000000000007
 10
115.862999
 20
67.778000000000006
  0
LWPOLYLINE
  5
B7
  8
MULTILAYER
 62
256
370
-1
  6
ByLayer
100
AcDbEntity
100
AcDbPolyline
 90
4
 70
1
 10
117.386999
 20
70.317999999999998
 10
117.386999
 20
71.841999999999999
 10
115.862999
 20
71.841999999999999
 10
115.862999
 20
70.317999999999998
  0
LWPOLYLINE
  5
B8
  8
MULTILAYER
 62
256
370
-1
  6
ByLayer
100
AcDbEntity
100
AcDbPolyline
 90
4
 70
1
 10
117.386999
 20
72.858000000000004
 10
117.386999
 20
74.382000000000005
 10
115.862999
 20
74.382000000000005
 10
115.862999
 20
72.858000000000004
  0
LWPOLYLINE
  5
B9
  8
MULTILAYER
 62
256
370
-1
  6
ByLayer
100
AcDbEntity
100
AcDbPolyline
 90
4
 70
1
 10
117.386999
 20
75.397999999999996
 10
117.386999
 20
76.921999999999997
 10
115.862999
 20
76.921999999999997
 10
115.862999
 20
75.397999999999996
  0
LWPOLYLINE
  5
BA
  8
MULTILAYER
 62
256
370
-1
  6
ByLayer
100
AcDbEntity
100
AcDbPolyline
 90
4
 70
1
 10
117.386999
 20
60.158000000000001
 10
117.386999
 20
61.682000000000002
 10
115.862999
 20
61.682000000000002
 10
115.862999
 20
60.158000000000001
  0
LWPOLYLINE
  5
BB
  8
MULTILAYER
 62
256
370
-1
  6
ByLayer
100
AcDbEntity
100
AcDbPolyline
 90
4
 70
1
 10
117.386999
 20
62.698
 10
117.386999
 20
64.221999999999994
 10
115.862999
 20
64.221999999999994
 10
115.862999
 20
62.698
  0
LWPOLYLINE
  5
BC
  8
MULTILAYER
 62
256
370
-1
  6
ByLayer
100
AcDbEntity
100
AcDbPolyline
 90
4
 70
1
 10
99.472001000000006
 20
49.347999000000002
 10
99.472001000000006
 20
50.871999000000002
 10
97.948001000000005
 20
50.871999000000002
 10
97.948001000000005
 20
49.347999000000002
  0
LWPOLYLINE
  5
BD
  8
MULTILAYER
 62
256
370
-1
  6
ByLayer
100
AcDbEntity
100
AcDbPolyline
 90
4
 70
1
 10
86.321999000000005
 20
87.998000000000005
 10
86.321999000000005
 20
89.522000000000006
 10
84.797999000000004
 20
89.522000000000006
 10
84.797999000000004
 20
87.998000000000005
  0
MTEXT
  5
BE
100
AcDbEntity
100
AcDbMText
  8
TOPOVERLAY
 62
256
370
-1
  6
CONTINUOUS
 10
95.634999999999991
 20
49.885000999999988
 30
0.0
 40
0.7500010013580322
 41
100.0
 71
7
 72
2
  1
26
  7
STANDARD
 50
90.0
 73
0
 44
1.0
  0
MTEXT
  5
BF
100
AcDbEntity
100
AcDbMText
  8
TOPOVERLAY
 62
256
370
-1
  6
CONTINUOUS
 10
95.635000000000019
 20
52.484999999999992
 30
0.0
 40
0.7500010013580322
 41
100.0
 71
7
 72
2
  1
25
  7
STANDARD
 50
90.0
 73
0
 44
1.0
  0
MTEXT
  5
C0
100
AcDbEntity
100
AcDbMText
  8
TOPOVERLAY
 62
256
370
-1
  6
CONTINUOUS
 10
63.259999999999998
 20
48.509998999999993
 30
0.0
 40
0.7500010013580322
 41
100.0
 71
7
 72
2
  1
2
  7
STANDARD
 50
90.0
 73
0
 44
1.0
  0
MTEXT
  5
C1
100
AcDbEntity
100
AcDbMText
  8
TOPOVERLAY
 62
256
370
-1
  6
CONTINUOUS
 10
63.184999000000012
 20
54.785000999999987
 30
0.0
 40
0.7500010013580322
 41
100.0
 71
7
 72
2
  1
1
  7
STANDARD
 50
90.0
 73
0
 44
1.0
  0
DIMENSION
  5
C2
100
AcDbEntity
  8
TOPOVERLAY
 62
256
370
-1
  6
ByLayer
100
AcDbDimension
 10
145.96000000000001
 20
106.91575315988011
 30
0.0
 11
103.46000000000001
 21
107.50575315988011
 31
0.0
 70
0
 71
5
 72
1
 41
1.0
 42
0.0
  1

  3
Standard
100
AcDbAlignedDimension
 13
60.960000000000001
 23
104.459999
 33
0.0
 14
145.96000000000001
 24
104.459999
 34
0.0
 50
0.0
100
AcDbRotatedDimension
  0
DIMENSION
  5
C3
100
AcDbEntity
  8
TOPOVERLAY
 62
256
370
-1
  6
ByLayer
100
AcDbDimension
 10
149.18601801802799
 20
104.459999
 30
0.0
 11
148.59601801802799
 21
76.359999500000001
 31
0.0
 70
0
 71
5
 72
1
 41
1.0
 42
0.0
  1

  3
Standard
100
AcDbAlignedDimension
 13
145.96000000000001
 23
48.259999999999998
 33
0.0
 14
145.96000000000001
 24
104.459999
 34
0.0
 50
90.0
100
AcDbRotatedDimension
  0
DIMENSION
  5
C4
100
AcDbEntity
  8
TOPOVERLAY
 62
256
370
-1
  6
ByLayer
100
AcDbDimension
 10
58.595818683584646
 20
53.109999999999999
 30
0.0
 11
58.005818683584643
 21
50.685000000000002
 31
0.0
 70
0
 71
5
 72
1
 41
1.0
 42
0.0
  1

  3
Standard
100
AcDbAlignedDimension
 13
60.960000000000001
 23
48.259999999999998
 33
0.0
 14
60.960000000000001
 24
53.109999999999999
 34
0.0
 50
90.0
100
AcDbRotatedDimension
  0
DIMENSION
  5
C5
100
AcDbEntity
  8
TOPOVERLAY
 62
256
370
-1
  6
ByLayer
100
AcDbDimension
 10
62.859999000000002
 20
45.559745514478784
 30
0.0
 11
61.909999499999998
 21
46.149745514478788
 31
0.0
 70
0
 71
5
 72
1
 41
1.0
 42
0.0
  1

  3
Standard
100
AcDbAlignedDimension
 13
60.960000000000001
 23
48.259999999999998
 33
0.0
 14
62.859999000000002
 24
48.259999999999998
 34
0.0
 50
0.0
100
AcDbRotatedDimension
  0
ENDSEC
  0
SECTION
  2
OBJECTS
  0
DICTIONARY
  5
C
100
AcDbDictionary
280
0
281
1
  3
ACAD_GROUP
350
D
  3
ACAD_LAYOUT
350
1A
  3
ACAD_MLINESTYLE
350
17
  3
ACAD_PLOTSETTINGS
350
19
  3
ACAD_PLOTSTYLENAME
350
E
  3
AcDbVariableDictionary
350
C6
  0
DICTIONARY
  5
D
100
AcDbDictionary
280
0
281
1
  0
ACDBDICTIONARYWDFLT
  5
E
100
AcDbDictionary
281
1
  3
Normal
350
F
100
AcDbDictionaryWithDefault
340
F
  0
ACDBPLACEHOLDER
  5
F
  0
DICTIONARY
  5
17
100
AcDbDictionary
280
0
281
1
  3
Standard
350
18
  0
MLINESTYLE
  5
18
100
AcDbMlineStyle
  2
STANDARD
 70
0
  3

 62
256
 51
90.0
 52
90.0
 71
2
 49
0.5
 62
256
  6
BYLAYER
 49
-0.5
 62
256
  6
BYLAYER
  0
DICTIONARY
  5
19
100
AcDbDictionary
280
0
281
1
  0
DICTIONARY
  5
1A
100
AcDbDictionary
281
1
  3
Layout1
350
1E
  3
Layout2
350
26
  3
Model
350
22
  0
LAYOUT
  5
1E
100
AcDbPlotSettings
  1

  2
C:\Program Files\AutoCAD 2002\plotters\DWF ePlot (optimized for plotting).pc3
  4

  6

 40
0.0
 41
0.0
 42
0.0
 43
0.0
 44
0.0
 45
0.0
 46
0.0
 47
0.0
 48
0.0
 49
0.0
140
0.0
141
0.0
142
1.0
143
1.0
 70
688
 72
0
 73
0
 74
5
  7

 75
16
147
1.0
148
0.0
149
0.0
100
AcDbLayout
  1
Layout1
 70
1
 71
1
 10
0.0
 20
0.0
 11
420.0
 21
297.0
 12
0.0
 22
0.0
 32
0.0
 14
100000000000000000000.0
 24
100000000000000000000.0
 34
100000000000000000000.0
 15
-100000000000000000000.0
 25
-100000000000000000000.0
 35
-100000000000000000000.0
146
0.0
 13
0.0
 23
0.0
 33
0.0
 16
1.0
 26
0.0
 36
0.0
 17
0.0
 27
1.0
 37
0.0
 76
0
330
1B
  0
LAYOUT
  5
22
100
AcDbPlotSettings
  1

  2
C:\Program Files\AutoCAD 2002\plotters\DWF ePlot (optimized for plotting).pc3
  4

  6

 40
0.0
 41
0.0
 42
0.0
 43
0.0
 44
0.0
 45
0.0
 46
0.0
 47
0.0
 48
0.0
 49
0.0
140
0.0
141
0.0
142
1.0
143
1.0
 70
1712
 72
0
 73
0
 74
0
  7

 75
0
147
1.0
148
0.0
149
0.0
100
AcDbLayout
  1
Model
 70
1
 71
0
 10
0.0
 20
0.0
 11
12.0
 21
9.0
 12
0.0
 22
0.0
 32
0.0
 14
0.0
 24
0.0
 34
0.0
 15
0.0
 25
0.0
 35
0.0
146
0.0
 13
0.0
 23
0.0
 33
0.0
 16
1.0
 26
0.0
 36
0.0
 17
0.0
 27
1.0
 37
0.0
 76
0
330
1F
  0
LAYOUT
  5
26
100
AcDbPlotSettings
  1

  2
C:\Program Files\AutoCAD 2002\plotters\DWF ePlot (optimized for plotting).pc3
  4

  6

 40
0.0
 41
0.0
 42
0.0
 43
0.0
 44
0.0
 45
0.0
 46
0.0
 47
0.0
 48
0.0
 49
0.0
140
0.0
141
0.0
142
1.0
143
1.0
 70
688
 72
0
 73
0
 74
5
  7

 75
16
147
1.0
148
0.0
149
0.0
100
AcDbLayout
  1
Layout2
 70
1
 71
2
 10
0.0
 20
0.0
 11
12.0
 21
9.0
 12
0.0
 22
0.0
 32
0.0
 14
0.0
 24
0.0
 34
0.0
 15
0.0
 25
0.0
 35
0.0
146
0.0
 13
0.0
 23
0.0
 33
0.0
 16
1.0
 26
0.0
 36
0.0
 17
0.0
 27
1.0
 37
0.0
 76
0
330
23
  0
DICTIONARY
  5
C6
100
AcDbDictionary
281
1
  3
DIMASSOC
350
C8
  3
HIDETEXT
350
C7
  0
DICTIONARYVAR
  5
C7
100
DictionaryVariables
280
0
  1
2
  0
DICTIONARYVAR
  5
C8
100
DictionaryVariables
280
0
  1
1
  0
ENDSEC
  0
EOF
