M48
;DRILL file {kicad (after 2015-mar-04 BZR unknown)-product} date 11/19/2015 2:21:36 PM
;FORMAT={-:-/ absolute / inch / decimal}
FMAT,2
INCH,TZ
T1C0.025
T2C0.040
T3C0.108
%
G90
G05
M72
T1
X0.0624Y-1.9218
X0.2274Y-0.8178
X0.2824Y-0.7098
X0.4344Y-1.0278
X0.4564Y-1.0998
X0.4784Y-1.1998
X0.4984Y-1.0078
X0.5024Y-1.0538
X0.54Y-0.96
X0.5724Y-0.9228
X0.6049Y-0.8878
X0.6424Y-1.1298
X0.6549Y-0.8778
X0.7044Y-1.0898
X0.71Y-0.8
X0.7174Y-1.2478
X0.7984Y-1.6338
X0.8124Y-1.1278
X0.9774Y-1.2128
X1.0074Y-0.9278
X1.0724Y-0.7928
X1.1274Y-0.2628
X1.2524Y-0.6778
X1.2624Y-1.0738
X1.2674Y-0.7278
X1.2924Y-0.4628
X1.2984Y-0.9718
X1.3274Y-0.7778
X1.3324Y-0.4878
X1.3504Y-0.8318
X1.3524Y-0.3928
X1.3524Y-1.752
X1.3964Y-1.1458
X1.3974Y-0.8128
X1.4024Y-1.4578
X1.4274Y-0.7728
X1.4474Y-0.7328
X1.4824Y-0.7028
X1.4824Y-1.1078
X1.5504Y-1.1378
X1.5799Y-0.7753
X1.6249Y-0.7728
X1.6299Y-0.4003
X1.6699Y-0.7803
X1.6799Y-0.5228
X1.7084Y-1.2498
X1.7444Y-1.4618
X1.7474Y-0.9528
X1.7949Y-0.9528
X1.8399Y-0.9503
X1.85Y-0.77
X1.8824Y-1.5578
X1.8874Y-0.9503
X1.9324Y-0.9528
X2.0374Y-1.3478
X2.05Y-0.96
X2.1444Y-1.2098
X2.5099Y-0.6953
T2
X0.1024Y-1.1778
X0.1024Y-1.2778
X0.1024Y-1.3778
X0.2504Y-1.7518
X0.2504Y-1.8518
X0.3295Y-0.0878
X0.3295Y-0.1878
X0.3504Y-1.7518
X0.3504Y-1.8518
X0.4295Y-0.0878
X0.4295Y-0.1878
X0.4504Y-1.7518
X0.4504Y-1.8518
X0.5295Y-0.0878
X0.5295Y-0.1878
X0.5504Y-1.7518
X0.5504Y-1.8518
X0.6295Y-0.0878
X0.6295Y-0.1878
X0.6504Y-1.7518
X0.6504Y-1.8518
X0.7295Y-0.0878
X0.7295Y-0.1878
X0.7504Y-1.7518
X0.7504Y-1.8518
X0.8074Y-0.6148
X0.8295Y-0.0878
X0.8295Y-0.1878
X0.8504Y-1.7518
X0.8504Y-1.8518
X0.9074Y-0.6148
X0.9295Y-0.0878
X0.9295Y-0.1878
X0.9504Y-1.7518
X0.9504Y-1.8518
X1.0074Y-0.6148
X1.0295Y-0.0878
X1.0295Y-0.1878
X1.0504Y-1.7518
X1.0504Y-1.8518
X1.1074Y-0.6148
X1.1295Y-0.0878
X1.1295Y-0.1878
X1.1504Y-1.7518
X1.1504Y-1.8518
X1.2074Y-0.6148
X1.2295Y-0.0878
X1.2295Y-0.1878
X1.3295Y-0.0878
X1.3295Y-0.1878
X1.4295Y-0.0878
X1.4295Y-0.1878
X1.4944Y-1.7518
X1.4944Y-1.8518
X1.5295Y-0.0878
X1.5295Y-0.1878
X1.5944Y-1.7518
X1.5944Y-1.8518
X1.6295Y-0.0878
X1.6295Y-0.1878
X1.6944Y-1.7518
X1.6944Y-1.8518
X1.7295Y-0.0878
X1.7295Y-0.1878
X1.7944Y-1.7518
X1.7944Y-1.8518
X1.8295Y-0.0878
X1.8295Y-0.1878
X1.8944Y-1.7518
X1.8944Y-1.8518
X1.9295Y-0.0878
X1.9295Y-0.1878
X1.9944Y-1.7518
X1.9944Y-1.8518
X2.0295Y-0.0878
X2.0295Y-0.1878
X2.0944Y-1.7518
X2.0944Y-1.8518
X2.1295Y-0.0878
X2.1295Y-0.1878
X2.1944Y-1.7518
X2.1944Y-1.8518
X2.2295Y-0.0878
X2.2295Y-0.1878
X2.2944Y-1.7518
X2.2944Y-1.8518
X2.3599Y-0.8228
X2.3944Y-1.7518
X2.3944Y-1.8518
X2.4599Y-0.8228
X2.4624Y-1.1778
X2.4624Y-1.2778
X2.4624Y-1.3778
T3
X0.1378Y-0.1378
X0.1378Y-2.0669
X2.4213Y-0.1378
X2.4213Y-2.0669
T0
M30
