<?xml version="1.0" standalone="no"?>
<!-- Generated by Visual Integrity Suite v8.5 -->
<!DOCTYPE svg PUBLIC "-//W3C//DTD SVG 1.1//EN"
	"http://www.w3.org/Graphics/SVG/1.1/DTD/svg11.dtd" [
<!ENTITY sto0 "fill:none;  fill-rule:nonzero; stroke:#000000; stroke-width:0.54; stroke-linecap:square; stroke-linejoin:miter">
<!ENTITY sto1 "fill:none;  fill-rule:nonzero; stroke:#000000; stroke-width:1.08; stroke-linecap:butt; stroke-linejoin:miter">
<!ENTITY sto2 "fill:none;  fill-rule:nonzero; stroke:#000000; stroke-width:0.54; stroke-linecap:butt; stroke-linejoin:miter">
<!ENTITY sto3 "fill:#000000;  fill-rule:nonzero; stroke:#000000; stroke-width:0.72; stroke-linecap:butt; stroke-linejoin:miter">
<!ENTITY sto4 "fill:#000000;  fill-rule:nonzero; stroke:none; stroke-width:0.54; stroke-linecap:butt; stroke-linejoin:miter">
<!ENTITY sto5 "fill:#000000;  fill-rule:nonzero; stroke:none; stroke-width:0.54; stroke-linecap:square; stroke-linejoin:miter">
<!ENTITY sto6 "fill:#000000;  fill-rule:nonzero; stroke:none; stroke-width:1.08; stroke-linecap:butt; stroke-linejoin:miter">
<!ENTITY sto7 "fill:#000000;  fill-rule:nonzero; stroke:#000000; stroke-width:0.72; stroke-linecap:square; stroke-linejoin:miter">
<!ENTITY sto8 "fill:none;  fill-rule:nonzero; stroke:#000000; stroke-width:1.08; stroke-linecap:square; stroke-linejoin:miter">
<!ENTITY sto9 "fill:#000000;  fill-rule:nonzero; stroke:none; stroke-width:1.08; stroke-linecap:square; stroke-linejoin:miter">
<!ENTITY stt0 "font-family:Arial; font-size:7.00px; fill:#000000">
<!ENTITY stt1 "font-family:Arial; font-size:6.00px; font-style:italic; fill:#000000">
<!ENTITY stt2 "font-family:Arial; font-size:6.00px; fill:#000000">
<!ENTITY stt3 "font-family:Arial; font-size:8.00px; font-weight:bold; fill:#000000">
]>
<svg version="1.1" baseProfile="full" xmlns="http://www.w3.org/2000/svg" xmlns:xlink="http://www.w3.org/1999/xlink" xml:space="preserve" width="167.78mm" height="104.41mm" viewBox="0 0 475.59 295.97">
<polyline style="&sto0;"
	points="361.94,186.17 226.94,186.17 "/>
<polyline style="&sto1;"
	points="170.86,41.82 286.94,41.82 286.94,118.98 170.86,118.98 
	170.86,41.82 170.86,41.82 "/>
<polyline style="&sto1;"
	points="42.99,18.63 447.40,18.63 447.40,286.49 42.99,286.49 
	42.99,18.63 42.99,18.63 "/>
<polyline style="&sto2;"
	points="183.33,41.82 183.33,8.99 "/>
<polyline style="&sto2;"
	points="201.34,41.82 201.34,8.99 "/>
<polyline style="&sto2;"
	points="219.34,41.82 219.34,8.99 "/>
<polyline style="&sto2;"
	points="237.34,41.82 237.34,8.99 "/>
<polyline style="&sto2;"
	points="255.34,41.82 255.34,8.99 "/>
<polyline style="&sto2;"
	points="273.34,41.82 273.34,8.99 "/>
<text x="179.24" y="6.79"
	style="&stt0;">A</text>
<text x="183.92" y="6.79"
	style="&stt0;">0</text>
<text x="187.70" y="6.79"
	style="&stt0;"> </text>
<text x="197.24" y="6.79"
	style="&stt0;">A</text>
<text x="201.74" y="6.79"
	style="&stt0;">1</text>
<text x="205.70" y="6.79"
	style="&stt0;"> </text>
<text x="215.06" y="6.79"
	style="&stt0;">A</text>
<text x="219.74" y="6.79"
	style="&stt0;">2</text>
<text x="223.70" y="6.79"
	style="&stt0;"> </text>
<text x="233.06" y="6.79"
	style="&stt0;">A</text>
<text x="237.74" y="6.79"
	style="&stt0;">3</text>
<text x="241.70" y="6.79"
	style="&stt0;"> </text>
<text x="251.06" y="6.79"
	style="&stt0;">A</text>
<text x="255.74" y="6.79"
	style="&stt0;">4</text>
<text x="259.70" y="6.79"
	style="&stt0;"> </text>
<text x="269.06" y="6.79"
	style="&stt0;">A</text>
<text x="273.74" y="6.79"
	style="&stt0;">5</text>
<text x="277.70" y="6.79"
	style="&stt0;"> </text>
<text x="418.46" y="294.61"
	style="&stt1;">0</text>
<text x="421.88" y="294.61"
	style="&stt1;">0</text>
<text x="425.12" y="294.61"
	style="&stt1;">2</text>
<text x="428.54" y="294.61"
	style="&stt1;">a</text>
<text x="431.78" y="294.61"
	style="&stt1;">a</text>
<text x="435.20" y="294.61"
	style="&stt1;">c</text>
<text x="438.26" y="294.61"
	style="&stt1;">8</text>
<text x="441.50" y="294.61"
	style="&stt1;">2</text>
<text x="444.92" y="294.61"
	style="&stt1;">4</text>
<path style="&sto3;"
d="M 58.91 58.82 C 58.91 59.27 58.55 59.62 58.11 59.62 C 57.66 59.62 57.31 59.27 57.31 58.82
	 C 57.31 58.38 57.66 58.02 58.11 58.02 C 58.55 58.02 58.91 58.38 58.91 58.82 L 58.91 58.82"/>
<polyline style="&sto0;"
	points="58.11,84.49 58.11,80.49 "/>
<polyline style="&sto2;"
	points="62.11,88.49 54.11,88.49 54.11,84.49 62.11,84.49 
	62.11,88.49 62.11,88.49 "/>
<polyline style="&sto4;"
	points="64.51,75.09 67.71,73.49 64.51,71.89 64.51,75.09 
	64.51,75.09 "/>
<polyline style="&sto0;"
	points="70.11,73.49 62.11,73.49 62.11,77.49 "/>
<polyline style="&sto0;"
	points="70.11,69.49 58.11,69.49 "/>
<polyline style="&sto0;"
	points="70.11,77.49 58.11,77.49 "/>
<polyline style="&sto1;"
	points="70.11,67.89 70.11,70.89 "/>
<polyline style="&sto1;"
	points="70.11,76.09 70.11,79.09 "/>
<polyline style="&sto1;"
	points="70.11,72.00 70.11,75.00 "/>
<polyline style="&sto2;"
	points="72.51,77.49 72.51,69.49 "/>
<polyline style="&sto0;"
	points="78.11,77.49 72.51,77.49 "/>
<polyline style="&sto5;"
	points="420.51,234.76 423.71,233.16 420.51,231.56 420.51,234.76 
	420.51,234.76 "/>
<polyline style="&sto1;"
	points="426.11,222.76 426.11,235.56 "/>
<polyline style="&sto0;"
	points="426.11,225.16 434.11,225.16 "/>
<polyline style="&sto0;"
	points="418.11,233.16 434.11,233.16 "/>
<polyline style="&sto1;"
	points="426.11,130.58 426.11,143.38 "/>
<polyline style="&sto0;"
	points="426.11,132.98 434.11,132.98 "/>
<polyline style="&sto5;"
	points="423.71,142.58 420.51,140.98 423.71,139.38 423.71,142.58 
	423.71,142.58 "/>
<text x="217.40" y="77.35"
	style="&stt0;">I</text>
<text x="219.38" y="75.37"
	style="&stt2;">2</text>
<text x="222.62" y="77.35"
	style="&stt0;">C</text>
<text x="227.66" y="77.35"
	style="&stt0;">-</text>
<text x="230.00" y="77.35"
	style="&stt0;">B</text>
<text x="234.68" y="77.35"
	style="&stt0;">U</text>
<text x="239.72" y="77.35"
	style="&stt0;">S</text>
<text x="244.40" y="77.35"
	style="&stt0;"> </text>
<text x="213.80" y="85.99"
	style="&stt0;">C</text>
<text x="218.84" y="85.99"
	style="&stt0;">O</text>
<text x="224.24" y="85.99"
	style="&stt0;">N</text>
<text x="229.28" y="85.99"
	style="&stt0;">T</text>
<text x="233.60" y="85.99"
	style="&stt0;">R</text>
<text x="238.64" y="85.99"
	style="&stt0;">O</text>
<text x="244.04" y="85.99"
	style="&stt0;">L</text>
<polyline style="&sto1;"
	points="78.44,41.82 146.86,41.82 146.86,62.18 78.44,62.18 
	78.44,41.82 78.44,41.82 "/>
<polyline style="&sto6;"
	points="170.36,45.82 167.16,44.22 167.16,47.42 170.36,45.82 
	170.36,45.82 "/>
<polyline style="&sto0;"
	points="168.36,45.82 146.94,45.82 "/>
<polyline style="&sto5;"
	points="170.36,58.82 167.16,57.22 167.16,60.42 170.36,58.82 
	170.36,58.82 "/>
<polyline style="&sto0;"
	points="168.36,58.82 155.31,58.82 "/>
<polyline style="&sto5;"
	points="147.31,58.82 150.51,60.42 150.51,57.22 147.31,58.82 
	147.31,58.82 "/>
<polyline style="&sto0;"
	points="149.31,58.82 155.31,58.82 "/>
<polyline style="&sto0;"
	points="170.86,77.49 78.11,77.49 "/>
<text x="89.60" y="54.13"
	style="&stt0;">I</text>
<text x="91.40" y="54.13"
	style="&stt0;">N</text>
<text x="96.62" y="54.13"
	style="&stt0;">P</text>
<text x="101.12" y="54.13"
	style="&stt0;">U</text>
<text x="106.34" y="54.13"
	style="&stt0;">T</text>
<text x="110.48" y="54.13"
	style="&stt0;"> </text>
<text x="112.46" y="54.13"
	style="&stt0;">F</text>
<text x="116.78" y="54.13"
	style="&stt0;">I</text>
<text x="118.76" y="54.13"
	style="&stt0;">L</text>
<text x="121.82" y="54.13"
	style="&stt0;">T</text>
<text x="126.14" y="54.13"
	style="&stt0;">E</text>
<text x="130.82" y="54.13"
	style="&stt0;">R</text>
<polyline style="&sto5;"
	points="78.03,45.82 74.83,44.22 74.83,47.42 78.03,45.82 
	78.03,45.82 "/>
<polyline style="&sto0;"
	points="76.03,45.82 31.61,45.82 "/>
<polyline style="&sto5;"
	points="78.03,58.82 74.83,57.22 74.83,60.42 78.03,58.82 
	78.03,58.82 "/>
<polyline style="&sto0;"
	points="76.03,58.82 52.98,58.82 "/>
<polyline style="&sto5;"
	points="31.98,58.82 35.18,60.42 35.18,57.22 31.98,58.82 
	31.98,58.82 "/>
<polyline style="&sto0;"
	points="33.98,58.82 52.98,58.82 "/>
<polyline style="&sto2;"
	points="58.11,69.49 58.11,58.82 "/>
<text x="49.10" y="31.45"
	style="&stt3;">P</text>
<text x="54.32" y="31.45"
	style="&stt3;">C</text>
<text x="60.08" y="31.45"
	style="&stt3;">A</text>
<text x="65.84" y="31.45"
	style="&stt3;">9</text>
<text x="70.34" y="31.45"
	style="&stt3;">6</text>
<text x="74.84" y="31.45"
	style="&stt3;">8</text>
<text x="79.16" y="31.45"
	style="&stt3;">5</text>
<polyline style="&sto1;"
	points="78.44,92.49 146.86,92.49 146.86,115.85 78.44,115.85 
	78.44,92.49 78.44,92.49 "/>
<text x="93.20" y="102.73"
	style="&stt0;">P</text>
<text x="97.88" y="102.73"
	style="&stt0;">O</text>
<text x="103.10" y="102.73"
	style="&stt0;">W</text>
<text x="109.58" y="102.73"
	style="&stt0;">E</text>
<text x="114.26" y="102.73"
	style="&stt0;">R</text>
<text x="119.30" y="102.73"
	style="&stt0;">-</text>
<text x="121.64" y="102.73"
	style="&stt0;">O</text>
<text x="127.22" y="102.73"
	style="&stt0;">N</text>
<text x="132.26" y="102.73"
	style="&stt0;"> </text>
<text x="100.94" y="111.19"
	style="&stt0;">R</text>
<text x="105.98" y="111.19"
	style="&stt0;">E</text>
<text x="110.66" y="111.19"
	style="&stt0;">S</text>
<text x="115.34" y="111.19"
	style="&stt0;">E</text>
<text x="120.02" y="111.19"
	style="&stt0;">T</text>
<polyline style="&sto6;"
	points="78.03,104.49 74.83,102.89 74.83,106.09 78.03,104.49 
	78.03,104.49 "/>
<polyline style="&sto0;"
	points="76.03,104.49 31.11,104.49 "/>
<text x="15.08" y="48.37"
	style="&stt0;">S</text>
<text x="19.76" y="48.37"
	style="&stt0;">C</text>
<text x="24.80" y="48.37"
	style="&stt0;">L</text>
<text x="14.54" y="61.15"
	style="&stt0;">S</text>
<text x="19.22" y="61.15"
	style="&stt0;">D</text>
<text x="24.08" y="61.15"
	style="&stt0;">A</text>
<text x="15.44" y="107.05"
	style="&stt0;">V</text>
<text x="19.94" y="108.49"
	style="&stt2;">D</text>
<text x="24.44" y="108.49"
	style="&stt2;">D</text>
<polyline style="&sto2;"
	points="58.11,80.49 58.11,77.49 "/>
<polyline style="&sto4;"
	points="170.36,104.49 167.16,102.89 167.16,106.09 170.36,104.49 
	170.36,104.49 "/>
<polyline style="&sto0;"
	points="168.36,104.49 146.94,104.49 "/>
<polyline style="&sto0;"
	points="58.11,129.82 58.11,125.82 "/>
<polyline style="&sto2;"
	points="62.11,133.82 54.11,133.82 54.11,129.82 62.11,129.82 
	62.11,133.82 62.11,133.82 "/>
<polyline style="&sto0;"
	points="58.11,125.49 31.11,125.49 "/>
<text x="15.98" y="128.11"
	style="&stt0;">V</text>
<text x="20.66" y="129.55"
	style="&stt2;">S</text>
<text x="24.62" y="129.55"
	style="&stt2;">S</text>
<polyline style="&sto2;"
	points="291.24,153.39 295.24,146.99 291.24,140.59 "/>
<polyline style="&sto2;"
	points="237.26,123.74 230.86,119.74 224.46,123.74 "/>
<text x="315.50" y="136.39"
	style="&stt0;">L</text>
<text x="319.46" y="136.39"
	style="&stt0;">E</text>
<text x="324.14" y="136.39"
	style="&stt0;">D</text>
<text x="329.18" y="136.39"
	style="&stt0;"> </text>
<text x="311.90" y="144.85"
	style="&stt0;">S</text>
<text x="316.58" y="144.85"
	style="&stt0;">T</text>
<text x="320.00" y="144.85"
	style="&stt0;">A</text>
<text x="323.78" y="144.85"
	style="&stt0;">T</text>
<text x="328.10" y="144.85"
	style="&stt0;">E</text>
<text x="332.78" y="144.85"
	style="&stt0;"> </text>
<text x="308.66" y="153.31"
	style="&stt0;">S</text>
<text x="313.34" y="153.31"
	style="&stt0;">E</text>
<text x="318.02" y="153.31"
	style="&stt0;">L</text>
<text x="321.98" y="153.31"
	style="&stt0;">E</text>
<text x="326.66" y="153.31"
	style="&stt0;">C</text>
<text x="331.70" y="153.31"
	style="&stt0;">T</text>
<text x="336.02" y="153.31"
	style="&stt0;"> </text>
<text x="304.52" y="161.95"
	style="&stt0;">R</text>
<text x="309.56" y="161.95"
	style="&stt0;">E</text>
<text x="314.24" y="161.95"
	style="&stt0;">G</text>
<text x="319.64" y="161.95"
	style="&stt0;">I</text>
<text x="321.62" y="161.95"
	style="&stt0;">S</text>
<text x="326.30" y="161.95"
	style="&stt0;">T</text>
<text x="330.44" y="161.95"
	style="&stt0;">E</text>
<text x="335.12" y="161.95"
	style="&stt0;">R</text>
<polyline style="&sto1;"
	points="295.94,126.98 348.94,126.98 348.94,166.98 295.94,166.98 
	295.94,126.98 295.94,126.98 "/>
<text x="187.52" y="175.45"
	style="&stt0;">P</text>
<text x="192.20" y="175.45"
	style="&stt0;">W</text>
<text x="198.86" y="175.45"
	style="&stt0;">M</text>
<text x="204.62" y="175.45"
	style="&stt0;"> </text>
<text x="174.92" y="183.91"
	style="&stt0;">R</text>
<text x="179.96" y="183.91"
	style="&stt0;">E</text>
<text x="184.64" y="183.91"
	style="&stt0;">G</text>
<text x="190.04" y="183.91"
	style="&stt0;">I</text>
<text x="192.02" y="183.91"
	style="&stt0;">S</text>
<text x="196.70" y="183.91"
	style="&stt0;">T</text>
<text x="201.02" y="183.91"
	style="&stt0;">E</text>
<text x="205.70" y="183.91"
	style="&stt0;">R</text>
<text x="210.74" y="183.91"
	style="&stt0;"> </text>
<text x="212.72" y="183.91"
	style="&stt0;">X</text>
<text x="217.40" y="183.91"
	style="&stt0;"> </text>
<text x="173.30" y="192.37"
	style="&stt0;">B</text>
<text x="177.98" y="192.37"
	style="&stt0;">R</text>
<text x="183.02" y="192.37"
	style="&stt0;">I</text>
<text x="185.00" y="192.37"
	style="&stt0;">G</text>
<text x="190.58" y="192.37"
	style="&stt0;">H</text>
<text x="195.62" y="192.37"
	style="&stt0;">T</text>
<text x="199.76" y="192.37"
	style="&stt0;">N</text>
<text x="204.80" y="192.37"
	style="&stt0;">E</text>
<text x="209.48" y="192.37"
	style="&stt0;">S</text>
<text x="214.16" y="192.37"
	style="&stt0;">S</text>
<text x="218.84" y="192.37"
	style="&stt0;"> </text>
<text x="179.06" y="200.83"
	style="&stt0;">C</text>
<text x="184.10" y="200.83"
	style="&stt0;">O</text>
<text x="189.68" y="200.83"
	style="&stt0;">N</text>
<text x="194.72" y="200.83"
	style="&stt0;">T</text>
<text x="198.86" y="200.83"
	style="&stt0;">R</text>
<text x="203.90" y="200.83"
	style="&stt0;">O</text>
<text x="209.30" y="200.83"
	style="&stt0;">L</text>
<polyline style="&sto1;"
	points="166.68,165.82 227.11,165.82 227.11,206.17 166.68,206.17 
	166.68,165.82 166.68,165.82 "/>
<polyline style="&sto2;"
	points="189.12,161.16 195.52,165.16 201.92,161.16 "/>
<polyline style="&sto2;"
	points="226.86,122.14 226.86,142.99 191.44,142.99 191.44,162.76 "/>
<polyline style="&sto2;"
	points="292.84,142.99 234.86,142.99 234.86,122.14 "/>
<polyline style="&sto4;"
	points="166.18,186.19 162.98,184.59 162.98,187.79 166.18,186.19 
	166.18,186.19 "/>
<polyline style="&sto0;"
	points="164.18,186.19 149.44,186.19 "/>
<polyline style="&sto2;"
	points="199.48,162.76 199.48,150.99 292.84,150.99 "/>
<polyline style="&sto1;"
	points="401.77,240.16 362.11,267.44 362.11,176.17 401.77,202.49 
	401.77,240.16 401.77,240.16 "/>
<text x="373.28" y="219.01"
	style="&stt0;">M</text>
<text x="379.04" y="219.01"
	style="&stt0;">U</text>
<text x="384.08" y="219.01"
	style="&stt0;">X</text>
<text x="388.76" y="219.01"
	style="&stt0;">/</text>
<text x="390.74" y="219.01"
	style="&stt0;"> </text>
<text x="365.00" y="227.65"
	style="&stt0;">C</text>
<text x="370.04" y="227.65"
	style="&stt0;">O</text>
<text x="375.44" y="227.65"
	style="&stt0;">N</text>
<text x="380.48" y="227.65"
	style="&stt0;">T</text>
<text x="384.80" y="227.65"
	style="&stt0;">R</text>
<text x="389.66" y="227.65"
	style="&stt0;">O</text>
<text x="395.24" y="227.65"
	style="&stt0;">L</text>
<polyline style="&sto0;"
	points="391.36,195.49 391.36,140.98 348.94,140.98 "/>
<polyline style="&sto0;"
	points="378.36,186.99 378.36,153.98 348.94,153.98 "/>
<polyline style="&sto0;"
	points="30.44,276.99 384.77,276.99 384.77,251.82 "/>
<text x="18.50" y="279.67"
	style="&stt0;">O</text>
<text x="24.08" y="279.67"
	style="&stt0;">E</text>
<text x="28.76" y="279.67"
	style="&stt0;"> </text>
<polyline style="&sto0;"
	points="28.77,273.35 18.81,273.35 "/>
<polyline style="&sto2;"
	points="401.77,233.16 418.11,233.16 "/>
<polyline style="&sto2;"
	points="344.44,260.44 362.11,260.44 "/>
<polyline style="&sto2;"
	points="347.44,250.44 362.11,250.44 "/>
<text x="275.36" y="251.77"
	style="&stt0;">'</text>
<text x="276.62" y="251.77"
	style="&stt0;">0</text>
<text x="280.58" y="251.77"
	style="&stt0;">'</text>
<text x="281.84" y="251.77"
	style="&stt0;"> </text>
<text x="283.82" y="251.77"
	style="&stt0;">-</text>
<text x="287.42" y="251.77"
	style="&stt0;"> </text>
<text x="289.22" y="251.77"
	style="&stt0;">p</text>
<text x="293.18" y="251.77"
	style="&stt0;">e</text>
<text x="297.14" y="251.77"
	style="&stt0;">r</text>
<text x="299.66" y="251.77"
	style="&stt0;">m</text>
<text x="305.42" y="251.77"
	style="&stt0;">a</text>
<text x="309.38" y="251.77"
	style="&stt0;">n</text>
<text x="313.16" y="251.77"
	style="&stt0;">e</text>
<text x="317.12" y="251.77"
	style="&stt0;">n</text>
<text x="321.08" y="251.77"
	style="&stt0;">t</text>
<text x="322.88" y="251.77"
	style="&stt0;">l</text>
<text x="324.50" y="251.77"
	style="&stt0;">y</text>
<text x="327.92" y="251.77"
	style="&stt0;"> </text>
<text x="329.90" y="251.77"
	style="&stt0;">O</text>
<text x="335.30" y="251.77"
	style="&stt0;">F</text>
<text x="339.62" y="251.77"
	style="&stt0;">F</text>
<text x="275.36" y="261.67"
	style="&stt0;">'</text>
<text x="276.62" y="261.67"
	style="&stt0;">1</text>
<text x="280.58" y="261.67"
	style="&stt0;">'</text>
<text x="281.84" y="261.67"
	style="&stt0;"> </text>
<text x="283.82" y="261.67"
	style="&stt0;">-</text>
<text x="287.42" y="261.67"
	style="&stt0;"> </text>
<text x="289.22" y="261.67"
	style="&stt0;">p</text>
<text x="293.18" y="261.67"
	style="&stt0;">e</text>
<text x="297.14" y="261.67"
	style="&stt0;">r</text>
<text x="299.66" y="261.67"
	style="&stt0;">m</text>
<text x="305.42" y="261.67"
	style="&stt0;">a</text>
<text x="309.38" y="261.67"
	style="&stt0;">n</text>
<text x="313.16" y="261.67"
	style="&stt0;">e</text>
<text x="317.12" y="261.67"
	style="&stt0;">n</text>
<text x="321.08" y="261.67"
	style="&stt0;">t</text>
<text x="322.88" y="261.67"
	style="&stt0;">l</text>
<text x="324.50" y="261.67"
	style="&stt0;">y</text>
<text x="327.92" y="261.67"
	style="&stt0;"> </text>
<text x="329.90" y="261.67"
	style="&stt0;">O</text>
<text x="335.30" y="261.67"
	style="&stt0;">N</text>
<polyline style="&sto0;"
	points="418.11,140.98 409.44,140.98 409.44,209.49 401.77,209.49 "/>
<polyline style="&sto2;"
	points="434.11,132.98 434.11,109.15 "/>
<polyline style="&sto0;"
	points="440.11,109.15 422.68,109.15 "/>
<path style="&sto7;"
d="M 434.91 109.15 C 434.91 109.59 434.55 109.95 434.11 109.95 C 433.67 109.95 433.31 109.59 433.31 109.15
	 C 433.31 108.71 433.67 108.35 434.11 108.35 C 434.55 108.35 434.91 108.71 434.91 109.15 L 434.91 109.15"/>
<polyline style="&sto2;"
	points="434.11,225.16 434.11,140.98 418.11,140.98 "/>
<text x="406.76" y="111.55"
	style="&stt0;">V</text>
<text x="411.44" y="112.99"
	style="&stt2;">D</text>
<text x="415.76" y="112.99"
	style="&stt2;">D</text>
<polyline style="&sto0;"
	points="454.53,191.16 434.11,191.16 "/>
<path style="&sto7;"
d="M 434.91 191.16 C 434.91 191.60 434.55 191.96 434.11 191.96 C 433.67 191.96 433.31 191.60 433.31 191.16
	 C 433.31 190.72 433.67 190.36 434.11 190.36 C 434.55 190.36 434.91 190.72 434.91 191.16 L 434.91 191.16"/>
<text x="456.62" y="193.81"
	style="&stt0;">L</text>
<text x="460.58" y="193.81"
	style="&stt0;">E</text>
<text x="465.26" y="193.81"
	style="&stt0;">D</text>
<text x="470.30" y="193.81"
	style="&stt0;">n</text>
<polyline style="&sto0;"
	points="434.11,240.16 434.11,233.16 "/>
<polyline style="&sto2;"
	points="438.11,244.16 430.11,244.16 430.11,240.16 438.11,240.16 
	438.11,244.16 438.11,244.16 "/>
<polyline style="&sto8;"
	points="149.44,192.77 86.94,192.77 86.94,179.27 149.44,179.27 
	149.44,192.77 149.44,192.77 "/>
<text x="100.40" y="188.41"
	style="&stt0;">P</text>
<text x="105.08" y="188.41"
	style="&stt0;">R</text>
<text x="110.12" y="188.41"
	style="&stt0;">E</text>
<text x="114.80" y="188.41"
	style="&stt0;">S</text>
<text x="119.48" y="188.41"
	style="&stt0;">C</text>
<text x="124.52" y="188.41"
	style="&stt0;">A</text>
<text x="129.20" y="188.41"
	style="&stt0;">L</text>
<text x="132.98" y="188.41"
	style="&stt0;">E</text>
<text x="61.88" y="210.73"
	style="&stt0;">2</text>
<text x="65.84" y="210.73"
	style="&stt0;">5</text>
<text x="69.80" y="210.73"
	style="&stt0;"> </text>
<text x="71.60" y="210.73"
	style="&stt0;">M</text>
<text x="77.54" y="210.73"
	style="&stt0;">H</text>
<text x="82.58" y="210.73"
	style="&stt0;">z</text>
<text x="86.00" y="210.73"
	style="&stt0;"> </text>
<text x="51.44" y="219.19"
	style="&stt0;"> </text>
<text x="53.42" y="219.19"
	style="&stt0;">O</text>
<text x="58.82" y="219.19"
	style="&stt0;">S</text>
<text x="63.50" y="219.19"
	style="&stt0;">C</text>
<text x="68.54" y="219.19"
	style="&stt0;">I</text>
<text x="70.52" y="219.19"
	style="&stt0;">L</text>
<text x="74.30" y="219.19"
	style="&stt0;">L</text>
<text x="78.26" y="219.19"
	style="&stt0;">A</text>
<text x="82.04" y="219.19"
	style="&stt0;">T</text>
<text x="86.18" y="219.19"
	style="&stt0;">O</text>
<text x="91.58" y="219.19"
	style="&stt0;">R</text>
<polyline style="&sto8;"
	points="100.77,223.20 50.44,223.20 50.44,202.87 100.77,202.87 
	100.77,223.20 100.77,223.20 "/>
<polyline style="&sto9;"
	points="114.11,91.82 115.71,88.62 112.51,88.62 114.11,91.82 
	114.11,91.82 "/>
<polyline style="&sto0;"
	points="114.11,89.82 114.11,84.16 "/>
<polyline style="&sto0;"
	points="170.86,84.16 114.11,84.16 "/>
<text x="126.14" y="219.55"
	style="&stt0;">C</text>
<text x="131.18" y="219.55"
	style="&stt0;">L</text>
<text x="135.14" y="219.55"
	style="&stt0;">O</text>
<text x="140.54" y="219.55"
	style="&stt0;">C</text>
<text x="145.58" y="219.55"
	style="&stt0;">K</text>
<text x="150.26" y="219.55"
	style="&stt0;"> </text>
<text x="124.52" y="228.01"
	style="&stt0;">S</text>
<text x="129.02" y="228.01"
	style="&stt0;">W</text>
<text x="135.68" y="228.01"
	style="&stt0;">I</text>
<text x="137.66" y="228.01"
	style="&stt0;">T</text>
<text x="141.98" y="228.01"
	style="&stt0;">C</text>
<text x="147.02" y="228.01"
	style="&stt0;">H</text>
<text x="152.06" y="228.01"
	style="&stt0;"> </text>
<polyline style="&sto8;"
	points="158.00,239.82 118.66,239.82 118.66,202.87 158.00,202.87 
	158.00,239.82 158.00,239.82 "/>
<polyline style="&sto2;"
	points="138.33,203.16 138.33,192.77 "/>
<polyline style="&sto0;"
	points="118.66,231.53 31.11,231.53 "/>
<polyline style="&sto0;"
	points="118.66,214.20 100.77,214.20 "/>
<text x="1.40" y="234.31"
	style="&stt0;">E</text>
<text x="6.08" y="234.31"
	style="&stt0;">X</text>
<text x="10.76" y="234.31"
	style="&stt0;">T</text>
<text x="15.08" y="234.31"
	style="&stt0;">C</text>
<text x="20.12" y="234.31"
	style="&stt0;">L</text>
<text x="24.08" y="234.31"
	style="&stt0;">K</text>
<text x="28.76" y="234.31"
	style="&stt0;"> </text>
</svg>
