%TF.GenerationSoftware,KiCad,Pcbnew,(6.0.1)*%
%TF.CreationDate,2022-11-08T11:41:08-05:00*%
%TF.ProjectId,ER-MIDI-CV4-02_DB,45522d4d-4944-4492-9d43-56342d30325f,1*%
%TF.SameCoordinates,Original*%
%TF.FileFunction,Legend,Bot*%
%TF.FilePolarity,Positive*%
%FSLAX46Y46*%
G04 Gerber Fmt 4.6, Leading zero omitted, Abs format (unit mm)*
G04 Created by KiCad (PCBNEW (6.0.1)) date 2022-11-08 11:41:08*
%MOMM*%
%LPD*%
G01*
G04 APERTURE LIST*
%ADD10C,0.285750*%
%ADD11C,0.635000*%
%ADD12C,0.349250*%
%ADD13C,0.150000*%
%ADD14C,0.412750*%
%ADD15C,0.120000*%
%ADD16O,1.524000X2.000000*%
%ADD17O,2.000000X1.524000*%
G04 APERTURE END LIST*
D10*
X120283428Y-108070385D02*
X119739142Y-108070385D01*
X120392285Y-108396956D02*
X120011285Y-107253956D01*
X119630285Y-108396956D01*
X118596142Y-108396956D02*
X118977142Y-107852670D01*
X119249285Y-108396956D02*
X119249285Y-107253956D01*
X118813857Y-107253956D01*
X118705000Y-107308385D01*
X118650571Y-107362813D01*
X118596142Y-107471670D01*
X118596142Y-107634956D01*
X118650571Y-107743813D01*
X118705000Y-107798242D01*
X118813857Y-107852670D01*
X119249285Y-107852670D01*
X118106285Y-108396956D02*
X118106285Y-107253956D01*
X117834142Y-107253956D01*
X117670857Y-107308385D01*
X117562000Y-107417242D01*
X117507571Y-107526099D01*
X117453142Y-107743813D01*
X117453142Y-107907099D01*
X117507571Y-108124813D01*
X117562000Y-108233670D01*
X117670857Y-108342527D01*
X117834142Y-108396956D01*
X118106285Y-108396956D01*
X116963285Y-107253956D02*
X116963285Y-108179242D01*
X116908857Y-108288099D01*
X116854428Y-108342527D01*
X116745571Y-108396956D01*
X116527857Y-108396956D01*
X116419000Y-108342527D01*
X116364571Y-108288099D01*
X116310142Y-108179242D01*
X116310142Y-107253956D01*
X115765857Y-108396956D02*
X115765857Y-107253956D01*
X115221571Y-108396956D02*
X115221571Y-107253956D01*
X114568428Y-108396956D01*
X114568428Y-107253956D01*
X113806428Y-107253956D02*
X113588714Y-107253956D01*
X113479857Y-107308385D01*
X113371000Y-107417242D01*
X113316571Y-107634956D01*
X113316571Y-108015956D01*
X113371000Y-108233670D01*
X113479857Y-108342527D01*
X113588714Y-108396956D01*
X113806428Y-108396956D01*
X113915285Y-108342527D01*
X114024142Y-108233670D01*
X114078571Y-108015956D01*
X114078571Y-107634956D01*
X114024142Y-107417242D01*
X113915285Y-107308385D01*
X113806428Y-107253956D01*
X120773285Y-110237186D02*
X120773285Y-109094186D01*
X120337857Y-109094186D01*
X120229000Y-109148615D01*
X120174571Y-109203043D01*
X120120142Y-109311900D01*
X120120142Y-109475186D01*
X120174571Y-109584043D01*
X120229000Y-109638472D01*
X120337857Y-109692900D01*
X120773285Y-109692900D01*
X118977142Y-110237186D02*
X119358142Y-109692900D01*
X119630285Y-110237186D02*
X119630285Y-109094186D01*
X119194857Y-109094186D01*
X119086000Y-109148615D01*
X119031571Y-109203043D01*
X118977142Y-109311900D01*
X118977142Y-109475186D01*
X119031571Y-109584043D01*
X119086000Y-109638472D01*
X119194857Y-109692900D01*
X119630285Y-109692900D01*
X118269571Y-109094186D02*
X118051857Y-109094186D01*
X117943000Y-109148615D01*
X117834142Y-109257472D01*
X117779714Y-109475186D01*
X117779714Y-109856186D01*
X117834142Y-110073900D01*
X117943000Y-110182757D01*
X118051857Y-110237186D01*
X118269571Y-110237186D01*
X118378428Y-110182757D01*
X118487285Y-110073900D01*
X118541714Y-109856186D01*
X118541714Y-109475186D01*
X118487285Y-109257472D01*
X118378428Y-109148615D01*
X118269571Y-109094186D01*
X117289857Y-109801757D02*
X116419000Y-109801757D01*
X115874714Y-110237186D02*
X115874714Y-109094186D01*
X115493714Y-109910615D01*
X115112714Y-109094186D01*
X115112714Y-110237186D01*
X114568428Y-110237186D02*
X114568428Y-109094186D01*
X114024142Y-110237186D02*
X114024142Y-109094186D01*
X113371000Y-110237186D01*
X113371000Y-109094186D01*
X112826714Y-110237186D02*
X112826714Y-109094186D01*
D11*
X119254523Y-76049571D02*
X120101190Y-76049571D01*
X120101190Y-77380047D02*
X120101190Y-74840047D01*
X118891666Y-74840047D01*
X118286904Y-74840047D02*
X116835476Y-74840047D01*
X117561190Y-77380047D02*
X117561190Y-74840047D01*
X115988809Y-77380047D02*
X115988809Y-74840047D01*
X115384047Y-74840047D01*
X115021190Y-74961000D01*
X114779285Y-75202904D01*
X114658333Y-75444809D01*
X114537380Y-75928619D01*
X114537380Y-76291476D01*
X114658333Y-76775285D01*
X114779285Y-77017190D01*
X115021190Y-77259095D01*
X115384047Y-77380047D01*
X115988809Y-77380047D01*
X113448809Y-77380047D02*
X113448809Y-74840047D01*
D12*
X104839380Y-102693600D02*
X104972428Y-102618609D01*
X105172000Y-102618609D01*
X105371571Y-102693600D01*
X105504619Y-102843580D01*
X105571142Y-102993561D01*
X105637666Y-103293523D01*
X105637666Y-103518495D01*
X105571142Y-103818457D01*
X105504619Y-103968438D01*
X105371571Y-104118419D01*
X105172000Y-104193409D01*
X105038952Y-104193409D01*
X104839380Y-104118419D01*
X104772857Y-104043428D01*
X104772857Y-103518495D01*
X105038952Y-103518495D01*
X104174142Y-104193409D02*
X104174142Y-102618609D01*
X103375857Y-104193409D01*
X103375857Y-102618609D01*
X102710619Y-104193409D02*
X102710619Y-102618609D01*
X102378000Y-102618609D01*
X102178428Y-102693600D01*
X102045380Y-102843580D01*
X101978857Y-102993561D01*
X101912333Y-103293523D01*
X101912333Y-103518495D01*
X101978857Y-103818457D01*
X102045380Y-103968438D01*
X102178428Y-104118419D01*
X102378000Y-104193409D01*
X102710619Y-104193409D01*
X116940368Y-119631976D02*
X116940368Y-118234976D01*
X116142082Y-119631976D01*
X116142082Y-118234976D01*
X115210749Y-118234976D02*
X114944654Y-118234976D01*
X114811606Y-118301500D01*
X114678558Y-118434547D01*
X114612035Y-118700642D01*
X114612035Y-119166309D01*
X114678558Y-119432404D01*
X114811606Y-119565452D01*
X114944654Y-119631976D01*
X115210749Y-119631976D01*
X115343797Y-119565452D01*
X115476844Y-119432404D01*
X115543368Y-119166309D01*
X115543368Y-118700642D01*
X115476844Y-118434547D01*
X115343797Y-118301500D01*
X115210749Y-118234976D01*
X112150654Y-119631976D02*
X112616320Y-118966738D01*
X112948939Y-119631976D02*
X112948939Y-118234976D01*
X112416749Y-118234976D01*
X112283701Y-118301500D01*
X112217177Y-118368023D01*
X112150654Y-118501071D01*
X112150654Y-118700642D01*
X112217177Y-118833690D01*
X112283701Y-118900214D01*
X112416749Y-118966738D01*
X112948939Y-118966738D01*
X111684987Y-118234976D02*
X110753654Y-119631976D01*
X110753654Y-118234976D02*
X111684987Y-119631976D01*
X102634544Y-130892927D02*
X102568020Y-130693356D01*
X102568020Y-130360737D01*
X102634544Y-130227689D01*
X102701068Y-130161165D01*
X102834116Y-130094641D01*
X102967163Y-130094641D01*
X103100211Y-130161165D01*
X103166735Y-130227689D01*
X103233258Y-130360737D01*
X103299782Y-130626832D01*
X103366306Y-130759879D01*
X103432830Y-130826403D01*
X103565877Y-130892927D01*
X103698925Y-130892927D01*
X103831973Y-130826403D01*
X103898497Y-130759879D01*
X103965020Y-130626832D01*
X103965020Y-130294213D01*
X103898497Y-130094641D01*
X103965020Y-129695499D02*
X103965020Y-128897213D01*
X102568020Y-129296356D02*
X103965020Y-129296356D01*
X102568020Y-127633260D02*
X103233258Y-128098927D01*
X102568020Y-128431546D02*
X103965020Y-128431546D01*
X103965020Y-127899356D01*
X103898497Y-127766308D01*
X103831973Y-127699784D01*
X103698925Y-127633260D01*
X103499354Y-127633260D01*
X103366306Y-127699784D01*
X103299782Y-127766308D01*
X103233258Y-127899356D01*
X103233258Y-128431546D01*
X102568020Y-127034546D02*
X103965020Y-127034546D01*
X102568020Y-126369308D02*
X103965020Y-126369308D01*
X103965020Y-125837118D01*
X103898497Y-125704070D01*
X103831973Y-125637546D01*
X103698925Y-125571022D01*
X103499354Y-125571022D01*
X103366306Y-125637546D01*
X103299782Y-125704070D01*
X103233258Y-125837118D01*
X103233258Y-126369308D01*
X103299782Y-124972308D02*
X103299782Y-124506641D01*
X102568020Y-124307070D02*
X102568020Y-124972308D01*
X103965020Y-124972308D01*
X103965020Y-124307070D01*
D13*
%TO.C,D14*%
X104592285Y-52522380D02*
X104592285Y-51522380D01*
X104354190Y-51522380D01*
X104211333Y-51570000D01*
X104116095Y-51665238D01*
X104068476Y-51760476D01*
X104020857Y-51950952D01*
X104020857Y-52093809D01*
X104068476Y-52284285D01*
X104116095Y-52379523D01*
X104211333Y-52474761D01*
X104354190Y-52522380D01*
X104592285Y-52522380D01*
X103068476Y-52522380D02*
X103639904Y-52522380D01*
X103354190Y-52522380D02*
X103354190Y-51522380D01*
X103449428Y-51665238D01*
X103544666Y-51760476D01*
X103639904Y-51808095D01*
X102211333Y-51855714D02*
X102211333Y-52522380D01*
X102449428Y-51474761D02*
X102687523Y-52189047D01*
X102068476Y-52189047D01*
X110929590Y-52522380D02*
X110929590Y-51522380D01*
X110358162Y-52522380D02*
X110786733Y-51950952D01*
X110358162Y-51522380D02*
X110929590Y-52093809D01*
%TO.C,D15*%
X113228285Y-54808380D02*
X113228285Y-53808380D01*
X112990190Y-53808380D01*
X112847333Y-53856000D01*
X112752095Y-53951238D01*
X112704476Y-54046476D01*
X112656857Y-54236952D01*
X112656857Y-54379809D01*
X112704476Y-54570285D01*
X112752095Y-54665523D01*
X112847333Y-54760761D01*
X112990190Y-54808380D01*
X113228285Y-54808380D01*
X111704476Y-54808380D02*
X112275904Y-54808380D01*
X111990190Y-54808380D02*
X111990190Y-53808380D01*
X112085428Y-53951238D01*
X112180666Y-54046476D01*
X112275904Y-54094095D01*
X110799714Y-53808380D02*
X111275904Y-53808380D01*
X111323523Y-54284571D01*
X111275904Y-54236952D01*
X111180666Y-54189333D01*
X110942571Y-54189333D01*
X110847333Y-54236952D01*
X110799714Y-54284571D01*
X110752095Y-54379809D01*
X110752095Y-54617904D01*
X110799714Y-54713142D01*
X110847333Y-54760761D01*
X110942571Y-54808380D01*
X111180666Y-54808380D01*
X111275904Y-54760761D01*
X111323523Y-54713142D01*
X104887904Y-55062380D02*
X104887904Y-54062380D01*
X104316476Y-55062380D02*
X104745047Y-54490952D01*
X104316476Y-54062380D02*
X104887904Y-54633809D01*
%TO.C,D8*%
X113738098Y-47452388D02*
X113738098Y-46452388D01*
X113500003Y-46452388D01*
X113357145Y-46500008D01*
X113261907Y-46595246D01*
X113214288Y-46690484D01*
X113166669Y-46880960D01*
X113166669Y-47023817D01*
X113214288Y-47214293D01*
X113261907Y-47309531D01*
X113357145Y-47404769D01*
X113500003Y-47452388D01*
X113738098Y-47452388D01*
X112595241Y-46880960D02*
X112690479Y-46833341D01*
X112738098Y-46785722D01*
X112785717Y-46690484D01*
X112785717Y-46642865D01*
X112738098Y-46547627D01*
X112690479Y-46500008D01*
X112595241Y-46452388D01*
X112404764Y-46452388D01*
X112309526Y-46500008D01*
X112261907Y-46547627D01*
X112214288Y-46642865D01*
X112214288Y-46690484D01*
X112261907Y-46785722D01*
X112309526Y-46833341D01*
X112404764Y-46880960D01*
X112595241Y-46880960D01*
X112690479Y-46928579D01*
X112738098Y-46976198D01*
X112785717Y-47071436D01*
X112785717Y-47261912D01*
X112738098Y-47357150D01*
X112690479Y-47404769D01*
X112595241Y-47452388D01*
X112404764Y-47452388D01*
X112309526Y-47404769D01*
X112261907Y-47357150D01*
X112214288Y-47261912D01*
X112214288Y-47071436D01*
X112261907Y-46976198D01*
X112309526Y-46928579D01*
X112404764Y-46880960D01*
X113545904Y-46045380D02*
X113545904Y-45045380D01*
X112974476Y-46045380D02*
X113403047Y-45473952D01*
X112974476Y-45045380D02*
X113545904Y-45616809D01*
%TO.C,R1*%
X112688666Y-113990380D02*
X113022000Y-113514190D01*
X113260095Y-113990380D02*
X113260095Y-112990380D01*
X112879142Y-112990380D01*
X112783904Y-113038000D01*
X112736285Y-113085619D01*
X112688666Y-113180857D01*
X112688666Y-113323714D01*
X112736285Y-113418952D01*
X112783904Y-113466571D01*
X112879142Y-113514190D01*
X113260095Y-113514190D01*
X111736285Y-113990380D02*
X112307714Y-113990380D01*
X112022000Y-113990380D02*
X112022000Y-112990380D01*
X112117238Y-113133238D01*
X112212476Y-113228476D01*
X112307714Y-113276095D01*
D14*
%TO.C,J5*%
X125650333Y-118095880D02*
X125650333Y-119275166D01*
X125728952Y-119511023D01*
X125886190Y-119668261D01*
X126122047Y-119746880D01*
X126279285Y-119746880D01*
X124077952Y-118095880D02*
X124864142Y-118095880D01*
X124942761Y-118882071D01*
X124864142Y-118803452D01*
X124706904Y-118724833D01*
X124313809Y-118724833D01*
X124156571Y-118803452D01*
X124077952Y-118882071D01*
X123999333Y-119039309D01*
X123999333Y-119432404D01*
X124077952Y-119589642D01*
X124156571Y-119668261D01*
X124313809Y-119746880D01*
X124706904Y-119746880D01*
X124864142Y-119668261D01*
X124942761Y-119589642D01*
D13*
%TO.C,D3*%
X104938090Y-41452374D02*
X104938090Y-40452374D01*
X104699995Y-40452374D01*
X104557137Y-40499994D01*
X104461899Y-40595232D01*
X104414280Y-40690470D01*
X104366661Y-40880946D01*
X104366661Y-41023803D01*
X104414280Y-41214279D01*
X104461899Y-41309517D01*
X104557137Y-41404755D01*
X104699995Y-41452374D01*
X104938090Y-41452374D01*
X104033328Y-40452374D02*
X103414280Y-40452374D01*
X103747614Y-40833327D01*
X103604756Y-40833327D01*
X103509518Y-40880946D01*
X103461899Y-40928565D01*
X103414280Y-41023803D01*
X103414280Y-41261898D01*
X103461899Y-41357136D01*
X103509518Y-41404755D01*
X103604756Y-41452374D01*
X103890471Y-41452374D01*
X103985709Y-41404755D01*
X104033328Y-41357136D01*
X104861904Y-40052380D02*
X104861904Y-39052380D01*
X104290476Y-40052380D02*
X104719047Y-39480952D01*
X104290476Y-39052380D02*
X104861904Y-39623809D01*
D10*
%TO.C,C1*%
X122690500Y-55908214D02*
X122744928Y-55962642D01*
X122908214Y-56017071D01*
X123017071Y-56017071D01*
X123180357Y-55962642D01*
X123289214Y-55853785D01*
X123343642Y-55744928D01*
X123398071Y-55527214D01*
X123398071Y-55363928D01*
X123343642Y-55146214D01*
X123289214Y-55037357D01*
X123180357Y-54928500D01*
X123017071Y-54874071D01*
X122908214Y-54874071D01*
X122744928Y-54928500D01*
X122690500Y-54982928D01*
X121601928Y-56017071D02*
X122255071Y-56017071D01*
X121928500Y-56017071D02*
X121928500Y-54874071D01*
X122037357Y-55037357D01*
X122146214Y-55146214D01*
X122255071Y-55200642D01*
D13*
%TO.C,R3*%
X102814380Y-120219333D02*
X102338190Y-119886000D01*
X102814380Y-119647904D02*
X101814380Y-119647904D01*
X101814380Y-120028857D01*
X101862000Y-120124095D01*
X101909619Y-120171714D01*
X102004857Y-120219333D01*
X102147714Y-120219333D01*
X102242952Y-120171714D01*
X102290571Y-120124095D01*
X102338190Y-120028857D01*
X102338190Y-119647904D01*
X101814380Y-120552666D02*
X101814380Y-121171714D01*
X102195333Y-120838380D01*
X102195333Y-120981238D01*
X102242952Y-121076476D01*
X102290571Y-121124095D01*
X102385809Y-121171714D01*
X102623904Y-121171714D01*
X102719142Y-121124095D01*
X102766761Y-121076476D01*
X102814380Y-120981238D01*
X102814380Y-120695523D01*
X102766761Y-120600285D01*
X102719142Y-120552666D01*
%TO.C,D12*%
X105014281Y-48966380D02*
X105014281Y-47966380D01*
X104776186Y-47966380D01*
X104633329Y-48014000D01*
X104538091Y-48109238D01*
X104490472Y-48204476D01*
X104442853Y-48394952D01*
X104442853Y-48537809D01*
X104490472Y-48728285D01*
X104538091Y-48823523D01*
X104633329Y-48918761D01*
X104776186Y-48966380D01*
X105014281Y-48966380D01*
X103490472Y-48966380D02*
X104061900Y-48966380D01*
X103776186Y-48966380D02*
X103776186Y-47966380D01*
X103871424Y-48109238D01*
X103966662Y-48204476D01*
X104061900Y-48252095D01*
X103109519Y-48061619D02*
X103061900Y-48014000D01*
X102966662Y-47966380D01*
X102728567Y-47966380D01*
X102633329Y-48014000D01*
X102585710Y-48061619D01*
X102538091Y-48156857D01*
X102538091Y-48252095D01*
X102585710Y-48394952D01*
X103157138Y-48966380D01*
X102538091Y-48966380D01*
X104909904Y-50236380D02*
X104909904Y-49236380D01*
X104338476Y-50236380D02*
X104767047Y-49664952D01*
X104338476Y-49236380D02*
X104909904Y-49807809D01*
D12*
%TO.C,U1*%
X127564380Y-58734976D02*
X127564380Y-59865880D01*
X127497857Y-59998928D01*
X127431333Y-60065452D01*
X127298285Y-60131976D01*
X127032190Y-60131976D01*
X126899142Y-60065452D01*
X126832619Y-59998928D01*
X126766095Y-59865880D01*
X126766095Y-58734976D01*
X125369095Y-60131976D02*
X126167380Y-60131976D01*
X125768238Y-60131976D02*
X125768238Y-58734976D01*
X125901285Y-58934547D01*
X126034333Y-59067595D01*
X126167380Y-59134119D01*
D10*
%TO.C,C4*%
X103965502Y-81984226D02*
X104019930Y-82038654D01*
X104183216Y-82093083D01*
X104292073Y-82093083D01*
X104455359Y-82038654D01*
X104564216Y-81929797D01*
X104618644Y-81820940D01*
X104673073Y-81603226D01*
X104673073Y-81439940D01*
X104618644Y-81222226D01*
X104564216Y-81113369D01*
X104455359Y-81004512D01*
X104292073Y-80950083D01*
X104183216Y-80950083D01*
X104019930Y-81004512D01*
X103965502Y-81058940D01*
X102985787Y-81331083D02*
X102985787Y-82093083D01*
X103257930Y-80895654D02*
X103530073Y-81712083D01*
X102822502Y-81712083D01*
D12*
%TO.C,U2*%
X115664379Y-58734976D02*
X115664379Y-59865880D01*
X115597856Y-59998928D01*
X115531332Y-60065452D01*
X115398284Y-60131976D01*
X115132189Y-60131976D01*
X114999141Y-60065452D01*
X114932618Y-59998928D01*
X114866094Y-59865880D01*
X114866094Y-58734976D01*
X114267379Y-58868023D02*
X114200856Y-58801500D01*
X114067808Y-58734976D01*
X113735189Y-58734976D01*
X113602141Y-58801500D01*
X113535618Y-58868023D01*
X113469094Y-59001071D01*
X113469094Y-59134119D01*
X113535618Y-59333690D01*
X114333903Y-60131976D01*
X113469094Y-60131976D01*
D13*
%TO.C,D5*%
X113488085Y-42952371D02*
X113488085Y-41952371D01*
X113249990Y-41952371D01*
X113107132Y-41999991D01*
X113011894Y-42095229D01*
X112964275Y-42190467D01*
X112916656Y-42380943D01*
X112916656Y-42523800D01*
X112964275Y-42714276D01*
X113011894Y-42809514D01*
X113107132Y-42904752D01*
X113249990Y-42952371D01*
X113488085Y-42952371D01*
X112011894Y-41952371D02*
X112488085Y-41952371D01*
X112535704Y-42428562D01*
X112488085Y-42380943D01*
X112392847Y-42333324D01*
X112154751Y-42333324D01*
X112059513Y-42380943D01*
X112011894Y-42428562D01*
X111964275Y-42523800D01*
X111964275Y-42761895D01*
X112011894Y-42857133D01*
X112059513Y-42904752D01*
X112154751Y-42952371D01*
X112392847Y-42952371D01*
X112488085Y-42904752D01*
X112535704Y-42857133D01*
X113672904Y-44452380D02*
X113672904Y-43452380D01*
X113101476Y-44452380D02*
X113530047Y-43880952D01*
X113101476Y-43452380D02*
X113672904Y-44023809D01*
%TO.C,D7*%
X127338096Y-46652389D02*
X127338096Y-45652389D01*
X127100001Y-45652389D01*
X126957143Y-45700009D01*
X126861905Y-45795247D01*
X126814286Y-45890485D01*
X126766667Y-46080961D01*
X126766667Y-46223818D01*
X126814286Y-46414294D01*
X126861905Y-46509532D01*
X126957143Y-46604770D01*
X127100001Y-46652389D01*
X127338096Y-46652389D01*
X126433334Y-45652389D02*
X125766667Y-45652389D01*
X126195239Y-46652389D01*
X120403904Y-46680380D02*
X120403904Y-45680380D01*
X119832476Y-46680380D02*
X120261047Y-46108952D01*
X119832476Y-45680380D02*
X120403904Y-46251809D01*
%TO.C,D1*%
X126738097Y-40702388D02*
X126738097Y-39702388D01*
X126500002Y-39702388D01*
X126357144Y-39750008D01*
X126261906Y-39845246D01*
X126214287Y-39940484D01*
X126166668Y-40130960D01*
X126166668Y-40273817D01*
X126214287Y-40464293D01*
X126261906Y-40559531D01*
X126357144Y-40654769D01*
X126500002Y-40702388D01*
X126738097Y-40702388D01*
X125214287Y-40702388D02*
X125785716Y-40702388D01*
X125500002Y-40702388D02*
X125500002Y-39702388D01*
X125595240Y-39845246D01*
X125690478Y-39940484D01*
X125785716Y-39988103D01*
X124261904Y-38702380D02*
X124261904Y-37702380D01*
X123690476Y-38702380D02*
X124119047Y-38130952D01*
X123690476Y-37702380D02*
X124261904Y-38273809D01*
%TO.C,J1*%
X102695333Y-122642380D02*
X102695333Y-123356666D01*
X102742952Y-123499523D01*
X102838190Y-123594761D01*
X102981047Y-123642380D01*
X103076285Y-123642380D01*
X101695333Y-123642380D02*
X102266761Y-123642380D01*
X101981047Y-123642380D02*
X101981047Y-122642380D01*
X102076285Y-122785238D01*
X102171523Y-122880476D01*
X102266761Y-122928095D01*
%TO.C,D11*%
X113214290Y-49452384D02*
X113214290Y-48452384D01*
X112976195Y-48452384D01*
X112833338Y-48500004D01*
X112738100Y-48595242D01*
X112690481Y-48690480D01*
X112642862Y-48880956D01*
X112642862Y-49023813D01*
X112690481Y-49214289D01*
X112738100Y-49309527D01*
X112833338Y-49404765D01*
X112976195Y-49452384D01*
X113214290Y-49452384D01*
X111690481Y-49452384D02*
X112261909Y-49452384D01*
X111976195Y-49452384D02*
X111976195Y-48452384D01*
X112071433Y-48595242D01*
X112166671Y-48690480D01*
X112261909Y-48738099D01*
X110738100Y-49452384D02*
X111309528Y-49452384D01*
X111023814Y-49452384D02*
X111023814Y-48452384D01*
X111119052Y-48595242D01*
X111214290Y-48690480D01*
X111309528Y-48738099D01*
X119133904Y-49452380D02*
X119133904Y-48452380D01*
X118562476Y-49452380D02*
X118991047Y-48880952D01*
X118562476Y-48452380D02*
X119133904Y-49023809D01*
%TO.C,D2*%
X113238099Y-40702388D02*
X113238099Y-39702388D01*
X113000004Y-39702388D01*
X112857146Y-39750008D01*
X112761908Y-39845246D01*
X112714289Y-39940484D01*
X112666670Y-40130960D01*
X112666670Y-40273817D01*
X112714289Y-40464293D01*
X112761908Y-40559531D01*
X112857146Y-40654769D01*
X113000004Y-40702388D01*
X113238099Y-40702388D01*
X112285718Y-39797627D02*
X112238099Y-39750008D01*
X112142861Y-39702388D01*
X111904765Y-39702388D01*
X111809527Y-39750008D01*
X111761908Y-39797627D01*
X111714289Y-39892865D01*
X111714289Y-39988103D01*
X111761908Y-40130960D01*
X112333337Y-40702388D01*
X111714289Y-40702388D01*
X119261904Y-40702380D02*
X119261904Y-39702380D01*
X118690476Y-40702380D02*
X119119047Y-40130952D01*
X118690476Y-39702380D02*
X119261904Y-40273809D01*
D12*
%TO.C,U3*%
X126564380Y-76234976D02*
X126564380Y-77365880D01*
X126497857Y-77498928D01*
X126431333Y-77565452D01*
X126298285Y-77631976D01*
X126032190Y-77631976D01*
X125899142Y-77565452D01*
X125832619Y-77498928D01*
X125766095Y-77365880D01*
X125766095Y-76234976D01*
X125233904Y-76234976D02*
X124369095Y-76234976D01*
X124834761Y-76767166D01*
X124635190Y-76767166D01*
X124502142Y-76833690D01*
X124435619Y-76900214D01*
X124369095Y-77033261D01*
X124369095Y-77365880D01*
X124435619Y-77498928D01*
X124502142Y-77565452D01*
X124635190Y-77631976D01*
X125034333Y-77631976D01*
X125167380Y-77565452D01*
X125233904Y-77498928D01*
D10*
%TO.C,C3*%
X103965502Y-73210202D02*
X104019930Y-73264630D01*
X104183216Y-73319059D01*
X104292073Y-73319059D01*
X104455359Y-73264630D01*
X104564216Y-73155773D01*
X104618644Y-73046916D01*
X104673073Y-72829202D01*
X104673073Y-72665916D01*
X104618644Y-72448202D01*
X104564216Y-72339345D01*
X104455359Y-72230488D01*
X104292073Y-72176059D01*
X104183216Y-72176059D01*
X104019930Y-72230488D01*
X103965502Y-72284916D01*
X103584502Y-72176059D02*
X102876930Y-72176059D01*
X103257930Y-72611488D01*
X103094644Y-72611488D01*
X102985787Y-72665916D01*
X102931359Y-72720345D01*
X102876930Y-72829202D01*
X102876930Y-73101345D01*
X102931359Y-73210202D01*
X102985787Y-73264630D01*
X103094644Y-73319059D01*
X103421216Y-73319059D01*
X103530073Y-73264630D01*
X103584502Y-73210202D01*
D13*
%TO.C,D6*%
X104738090Y-43702382D02*
X104738090Y-42702382D01*
X104499995Y-42702382D01*
X104357137Y-42750002D01*
X104261899Y-42845240D01*
X104214280Y-42940478D01*
X104166661Y-43130954D01*
X104166661Y-43273811D01*
X104214280Y-43464287D01*
X104261899Y-43559525D01*
X104357137Y-43654763D01*
X104499995Y-43702382D01*
X104738090Y-43702382D01*
X103309518Y-42702382D02*
X103499995Y-42702382D01*
X103595233Y-42750002D01*
X103642852Y-42797621D01*
X103738090Y-42940478D01*
X103785709Y-43130954D01*
X103785709Y-43511906D01*
X103738090Y-43607144D01*
X103690471Y-43654763D01*
X103595233Y-43702382D01*
X103404756Y-43702382D01*
X103309518Y-43654763D01*
X103261899Y-43607144D01*
X103214280Y-43511906D01*
X103214280Y-43273811D01*
X103261899Y-43178573D01*
X103309518Y-43130954D01*
X103404756Y-43083335D01*
X103595233Y-43083335D01*
X103690471Y-43130954D01*
X103738090Y-43178573D01*
X103785709Y-43273811D01*
X110624904Y-43702380D02*
X110624904Y-42702380D01*
X110053476Y-43702380D02*
X110482047Y-43130952D01*
X110053476Y-42702380D02*
X110624904Y-43273809D01*
D10*
%TO.C,C2*%
X113728500Y-56288214D02*
X113782928Y-56342642D01*
X113946214Y-56397071D01*
X114055071Y-56397071D01*
X114218357Y-56342642D01*
X114327214Y-56233785D01*
X114381642Y-56124928D01*
X114436071Y-55907214D01*
X114436071Y-55743928D01*
X114381642Y-55526214D01*
X114327214Y-55417357D01*
X114218357Y-55308500D01*
X114055071Y-55254071D01*
X113946214Y-55254071D01*
X113782928Y-55308500D01*
X113728500Y-55362928D01*
X113293071Y-55362928D02*
X113238642Y-55308500D01*
X113129785Y-55254071D01*
X112857642Y-55254071D01*
X112748785Y-55308500D01*
X112694357Y-55362928D01*
X112639928Y-55471785D01*
X112639928Y-55580642D01*
X112694357Y-55743928D01*
X113347500Y-56397071D01*
X112639928Y-56397071D01*
%TO.C,J3*%
X104156002Y-89445062D02*
X104156002Y-90261491D01*
X104210430Y-90424776D01*
X104319287Y-90533633D01*
X104482573Y-90588062D01*
X104591430Y-90588062D01*
X103720573Y-89445062D02*
X103013002Y-89445062D01*
X103394002Y-89880491D01*
X103230716Y-89880491D01*
X103121859Y-89934919D01*
X103067430Y-89989348D01*
X103013002Y-90098205D01*
X103013002Y-90370348D01*
X103067430Y-90479205D01*
X103121859Y-90533633D01*
X103230716Y-90588062D01*
X103557287Y-90588062D01*
X103666144Y-90533633D01*
X103720573Y-90479205D01*
D13*
%TO.C,Q1*%
X112109238Y-121853619D02*
X112204476Y-121806000D01*
X112299714Y-121710761D01*
X112442571Y-121567904D01*
X112537809Y-121520285D01*
X112633047Y-121520285D01*
X112585428Y-121758380D02*
X112680666Y-121710761D01*
X112775904Y-121615523D01*
X112823523Y-121425047D01*
X112823523Y-121091714D01*
X112775904Y-120901238D01*
X112680666Y-120806000D01*
X112585428Y-120758380D01*
X112394952Y-120758380D01*
X112299714Y-120806000D01*
X112204476Y-120901238D01*
X112156857Y-121091714D01*
X112156857Y-121425047D01*
X112204476Y-121615523D01*
X112299714Y-121710761D01*
X112394952Y-121758380D01*
X112585428Y-121758380D01*
X111204476Y-121758380D02*
X111775904Y-121758380D01*
X111490190Y-121758380D02*
X111490190Y-120758380D01*
X111585428Y-120901238D01*
X111680666Y-120996476D01*
X111775904Y-121044095D01*
%TO.C,R2*%
X106338666Y-115514380D02*
X106672000Y-115038190D01*
X106910095Y-115514380D02*
X106910095Y-114514380D01*
X106529142Y-114514380D01*
X106433904Y-114562000D01*
X106386285Y-114609619D01*
X106338666Y-114704857D01*
X106338666Y-114847714D01*
X106386285Y-114942952D01*
X106433904Y-114990571D01*
X106529142Y-115038190D01*
X106910095Y-115038190D01*
X105957714Y-114609619D02*
X105910095Y-114562000D01*
X105814857Y-114514380D01*
X105576761Y-114514380D01*
X105481523Y-114562000D01*
X105433904Y-114609619D01*
X105386285Y-114704857D01*
X105386285Y-114800095D01*
X105433904Y-114942952D01*
X106005333Y-115514380D01*
X105386285Y-115514380D01*
X107790476Y-117125380D02*
X108361904Y-117125380D01*
X108076190Y-117125380D02*
X108076190Y-116125380D01*
X108171428Y-116268238D01*
X108266666Y-116363476D01*
X108361904Y-116411095D01*
X107171428Y-116125380D02*
X107076190Y-116125380D01*
X106980952Y-116173000D01*
X106933333Y-116220619D01*
X106885714Y-116315857D01*
X106838095Y-116506333D01*
X106838095Y-116744428D01*
X106885714Y-116934904D01*
X106933333Y-117030142D01*
X106980952Y-117077761D01*
X107076190Y-117125380D01*
X107171428Y-117125380D01*
X107266666Y-117077761D01*
X107314285Y-117030142D01*
X107361904Y-116934904D01*
X107409523Y-116744428D01*
X107409523Y-116506333D01*
X107361904Y-116315857D01*
X107314285Y-116220619D01*
X107266666Y-116173000D01*
X107171428Y-116125380D01*
%TO.C,D9*%
X104738090Y-46702376D02*
X104738090Y-45702376D01*
X104499995Y-45702376D01*
X104357137Y-45749996D01*
X104261899Y-45845234D01*
X104214280Y-45940472D01*
X104166661Y-46130948D01*
X104166661Y-46273805D01*
X104214280Y-46464281D01*
X104261899Y-46559519D01*
X104357137Y-46654757D01*
X104499995Y-46702376D01*
X104738090Y-46702376D01*
X103690471Y-46702376D02*
X103499995Y-46702376D01*
X103404756Y-46654757D01*
X103357137Y-46607138D01*
X103261899Y-46464281D01*
X103214280Y-46273805D01*
X103214280Y-45892853D01*
X103261899Y-45797615D01*
X103309518Y-45749996D01*
X103404756Y-45702376D01*
X103595233Y-45702376D01*
X103690471Y-45749996D01*
X103738090Y-45797615D01*
X103785709Y-45892853D01*
X103785709Y-46130948D01*
X103738090Y-46226186D01*
X103690471Y-46273805D01*
X103595233Y-46321424D01*
X103404756Y-46321424D01*
X103309518Y-46273805D01*
X103261899Y-46226186D01*
X103214280Y-46130948D01*
X110624904Y-46680380D02*
X110624904Y-45680380D01*
X110053476Y-46680380D02*
X110482047Y-46108952D01*
X110053476Y-45680380D02*
X110624904Y-46251809D01*
%TO.C,D13*%
X106538380Y-108858714D02*
X105538380Y-108858714D01*
X105538380Y-109096809D01*
X105586000Y-109239666D01*
X105681238Y-109334904D01*
X105776476Y-109382523D01*
X105966952Y-109430142D01*
X106109809Y-109430142D01*
X106300285Y-109382523D01*
X106395523Y-109334904D01*
X106490761Y-109239666D01*
X106538380Y-109096809D01*
X106538380Y-108858714D01*
X106538380Y-110382523D02*
X106538380Y-109811095D01*
X106538380Y-110096809D02*
X105538380Y-110096809D01*
X105681238Y-110001571D01*
X105776476Y-109906333D01*
X105824095Y-109811095D01*
X105538380Y-110715857D02*
X105538380Y-111334904D01*
X105919333Y-111001571D01*
X105919333Y-111144428D01*
X105966952Y-111239666D01*
X106014571Y-111287285D01*
X106109809Y-111334904D01*
X106347904Y-111334904D01*
X106443142Y-111287285D01*
X106490761Y-111239666D01*
X106538380Y-111144428D01*
X106538380Y-110858714D01*
X106490761Y-110763476D01*
X106443142Y-110715857D01*
X106194380Y-106128095D02*
X105194380Y-106128095D01*
X106194380Y-106699523D02*
X105622952Y-106270952D01*
X105194380Y-106699523D02*
X105765809Y-106128095D01*
%TO.C,D4*%
X126988084Y-43702382D02*
X126988084Y-42702382D01*
X126749989Y-42702382D01*
X126607131Y-42750002D01*
X126511893Y-42845240D01*
X126464274Y-42940478D01*
X126416655Y-43130954D01*
X126416655Y-43273811D01*
X126464274Y-43464287D01*
X126511893Y-43559525D01*
X126607131Y-43654763D01*
X126749989Y-43702382D01*
X126988084Y-43702382D01*
X125559512Y-43035716D02*
X125559512Y-43702382D01*
X125797608Y-42654763D02*
X126035703Y-43369049D01*
X125416655Y-43369049D01*
X120149904Y-43702380D02*
X120149904Y-42702380D01*
X119578476Y-43702380D02*
X120007047Y-43130952D01*
X119578476Y-42702380D02*
X120149904Y-43273809D01*
%TO.C,D10*%
X127814286Y-50252382D02*
X127814286Y-49252382D01*
X127576191Y-49252382D01*
X127433334Y-49300002D01*
X127338096Y-49395240D01*
X127290477Y-49490478D01*
X127242858Y-49680954D01*
X127242858Y-49823811D01*
X127290477Y-50014287D01*
X127338096Y-50109525D01*
X127433334Y-50204763D01*
X127576191Y-50252382D01*
X127814286Y-50252382D01*
X126290477Y-50252382D02*
X126861905Y-50252382D01*
X126576191Y-50252382D02*
X126576191Y-49252382D01*
X126671429Y-49395240D01*
X126766667Y-49490478D01*
X126861905Y-49538097D01*
X125671429Y-49252382D02*
X125576191Y-49252382D01*
X125480953Y-49300002D01*
X125433334Y-49347621D01*
X125385715Y-49442859D01*
X125338096Y-49633335D01*
X125338096Y-49871430D01*
X125385715Y-50061906D01*
X125433334Y-50157144D01*
X125480953Y-50204763D01*
X125576191Y-50252382D01*
X125671429Y-50252382D01*
X125766667Y-50204763D01*
X125814286Y-50157144D01*
X125861905Y-50061906D01*
X125909524Y-49871430D01*
X125909524Y-49633335D01*
X125861905Y-49442859D01*
X125814286Y-49347621D01*
X125766667Y-49300002D01*
X125671429Y-49252382D01*
X126261904Y-48852380D02*
X126261904Y-47852380D01*
X125690476Y-48852380D02*
X126119047Y-48280952D01*
X125690476Y-47852380D02*
X126261904Y-48423809D01*
D15*
%TO.C,D14*%
X107654057Y-52070000D02*
X107767686Y-52070000D01*
X107654057Y-52070000D02*
G75*
G03*
X107654057Y-52070000I-1326371J0D01*
G01*
%TO.C,D15*%
X107639629Y-54610000D02*
X107526000Y-54610000D01*
X110292371Y-54610000D02*
G75*
G03*
X110292371Y-54610000I-1326371J0D01*
G01*
%TO.C,D8*%
X116037944Y-46250000D02*
X115924315Y-46250000D01*
X118690686Y-46250000D02*
G75*
G03*
X118690686Y-46250000I-1326371J0D01*
G01*
%TO.C,R1*%
X108820000Y-113538000D02*
X109440000Y-113538000D01*
X108820000Y-113538000D02*
G75*
G03*
X108820000Y-113538000I-920000J0D01*
G01*
%TO.C,J5*%
X120505000Y-120330000D02*
X117905000Y-120330000D01*
X117905000Y-120330000D02*
X117905000Y-117670000D01*
X120505000Y-120330000D02*
X120505000Y-117670000D01*
X120505000Y-117670000D02*
X117905000Y-117670000D01*
X121775000Y-120330000D02*
X123105000Y-120330000D01*
X123105000Y-120330000D02*
X123105000Y-119000000D01*
%TO.C,D3*%
X107537944Y-40250000D02*
X107424315Y-40250000D01*
X110190686Y-40250000D02*
G75*
G03*
X110190686Y-40250000I-1326371J0D01*
G01*
%TO.C,C1*%
X124520000Y-56630000D02*
X124520000Y-57335000D01*
X124520000Y-58665000D02*
X124520000Y-59370000D01*
X124520000Y-56630000D02*
X120280000Y-56630000D01*
X124520000Y-59370000D02*
X120280000Y-59370000D01*
X120280000Y-56630000D02*
X120280000Y-57335000D01*
X120280000Y-58665000D02*
X120280000Y-59370000D01*
%TO.C,R3*%
X103886000Y-120696000D02*
X103886000Y-120076000D01*
X104806000Y-121616000D02*
G75*
G03*
X104806000Y-121616000I-920000J0D01*
G01*
%TO.C,D12*%
X107537944Y-49000000D02*
X107424315Y-49000000D01*
X110190686Y-49000000D02*
G75*
G03*
X110190686Y-49000000I-1326371J0D01*
G01*
%TO.C,U1*%
X127240000Y-60560000D02*
X127240000Y-70960000D01*
X124240000Y-60620000D02*
X124240000Y-70900000D01*
X119740000Y-60620000D02*
X120990000Y-60620000D01*
X119740000Y-70900000D02*
X119740000Y-60620000D01*
X124240000Y-70900000D02*
X119740000Y-70900000D01*
X127240000Y-70960000D02*
X116740000Y-70960000D01*
X116740000Y-60560000D02*
X127240000Y-60560000D01*
X116740000Y-70960000D02*
X116740000Y-60560000D01*
X122990000Y-60620000D02*
X124240000Y-60620000D01*
X120990000Y-60620000D02*
G75*
G03*
X122990000Y-60620000I1000000J0D01*
G01*
%TO.C,C4*%
X105145000Y-82611000D02*
X105145000Y-86851000D01*
X104440000Y-82611000D02*
X105145000Y-82611000D01*
X102405000Y-82611000D02*
X103110000Y-82611000D01*
X102405000Y-86851000D02*
X103110000Y-86851000D01*
X102405000Y-82611000D02*
X102405000Y-86851000D01*
X104440000Y-86851000D02*
X105145000Y-86851000D01*
%TO.C,U2*%
X103740000Y-70960000D02*
X103740000Y-60560000D01*
X106740000Y-70900000D02*
X106740000Y-60620000D01*
X114240000Y-60560000D02*
X114240000Y-70960000D01*
X114240000Y-70960000D02*
X103740000Y-70960000D01*
X111240000Y-70900000D02*
X106740000Y-70900000D01*
X106740000Y-60620000D02*
X107990000Y-60620000D01*
X103740000Y-60560000D02*
X114240000Y-60560000D01*
X111240000Y-60620000D02*
X111240000Y-70900000D01*
X109990000Y-60620000D02*
X111240000Y-60620000D01*
X107990000Y-60620000D02*
G75*
G03*
X109990000Y-60620000I1000000J0D01*
G01*
%TO.C,D5*%
X116037944Y-43250000D02*
X115924315Y-43250000D01*
X118690686Y-43250000D02*
G75*
G03*
X118690686Y-43250000I-1326371J0D01*
G01*
%TO.C,D7*%
X122862258Y-46250000D02*
X122748629Y-46250000D01*
X125515000Y-46250000D02*
G75*
G03*
X125515000Y-46250000I-1326371J0D01*
G01*
%TO.C,D1*%
X122712057Y-40250000D02*
X122825686Y-40250000D01*
X122712057Y-40250000D02*
G75*
G03*
X122712057Y-40250000I-1326371J0D01*
G01*
%TO.C,J1*%
X104899000Y-122957500D02*
X104899000Y-132077500D01*
X117239000Y-124267500D02*
X117239000Y-122957500D01*
X113139000Y-124267500D02*
X106199000Y-124267500D01*
X124179000Y-124267500D02*
X117239000Y-124267500D01*
X117239000Y-124267500D02*
X117239000Y-124267500D01*
X104899000Y-132077500D02*
X125479000Y-132077500D01*
X110609000Y-121567500D02*
X110109000Y-122567500D01*
X110109000Y-122567500D02*
X109609000Y-121567500D01*
X125479000Y-122957500D02*
X104899000Y-122957500D01*
X113139000Y-122957500D02*
X113139000Y-124267500D01*
X109609000Y-121567500D02*
X110609000Y-121567500D01*
X106199000Y-130767500D02*
X124179000Y-130767500D01*
X106199000Y-124267500D02*
X106199000Y-130767500D01*
X124179000Y-130767500D02*
X124179000Y-124267500D01*
X125479000Y-132077500D02*
X125479000Y-122957500D01*
%TO.C,D11*%
X116212057Y-49000000D02*
X116325686Y-49000000D01*
X116212057Y-49000000D02*
G75*
G03*
X116212057Y-49000000I-1326371J0D01*
G01*
%TO.C,D2*%
X116212057Y-40250000D02*
X116325686Y-40250000D01*
X116212057Y-40250000D02*
G75*
G03*
X116212057Y-40250000I-1326371J0D01*
G01*
%TO.C,C3*%
X105145000Y-74111000D02*
X104440000Y-74111000D01*
X103110000Y-78351000D02*
X102405000Y-78351000D01*
X102405000Y-78351000D02*
X102405000Y-74111000D01*
X105145000Y-78351000D02*
X104440000Y-78351000D01*
X105145000Y-78351000D02*
X105145000Y-74111000D01*
X103110000Y-74111000D02*
X102405000Y-74111000D01*
%TO.C,D6*%
X107712057Y-43250000D02*
X107825686Y-43250000D01*
X107712057Y-43250000D02*
G75*
G03*
X107712057Y-43250000I-1326371J0D01*
G01*
%TO.C,C2*%
X108880000Y-58765000D02*
X108880000Y-59470000D01*
X108880000Y-56730000D02*
X108880000Y-57435000D01*
X113120000Y-56730000D02*
X113120000Y-57435000D01*
X113120000Y-56730000D02*
X108880000Y-56730000D01*
X113120000Y-59470000D02*
X108880000Y-59470000D01*
X113120000Y-58765000D02*
X113120000Y-59470000D01*
%TO.C,J3*%
X102445000Y-93671000D02*
X102445000Y-101351000D01*
X105105000Y-93671000D02*
X102445000Y-93671000D01*
X105105000Y-93671000D02*
X105105000Y-101351000D01*
X105105000Y-92401000D02*
X105105000Y-91071000D01*
X105105000Y-101351000D02*
X102445000Y-101351000D01*
X105105000Y-91071000D02*
X103775000Y-91071000D01*
%TO.C,Q1*%
X109750000Y-122500000D02*
X106150000Y-122500000D01*
X109788478Y-122488478D02*
G75*
G03*
X107950000Y-118050000I-1838478J1838478D01*
G01*
X107950000Y-118049999D02*
G75*
G03*
X106111522Y-122488478I0J-2600001D01*
G01*
%TO.C,R2*%
X105680000Y-117720000D02*
X105680000Y-115880000D01*
X109520000Y-117720000D02*
X105680000Y-117720000D01*
X110470000Y-116800000D02*
X109520000Y-116800000D01*
X105680000Y-115880000D02*
X109520000Y-115880000D01*
X104730000Y-116800000D02*
X105680000Y-116800000D01*
X109520000Y-115880000D02*
X109520000Y-117720000D01*
%TO.C,D9*%
X107712057Y-46250000D02*
X107825686Y-46250000D01*
X107712057Y-46250000D02*
G75*
G03*
X107712057Y-46250000I-1326371J0D01*
G01*
%TO.C,D13*%
X102680000Y-108680000D02*
X104920000Y-108680000D01*
X103800000Y-112970000D02*
X103800000Y-112320000D01*
X102680000Y-108800000D02*
X104920000Y-108800000D01*
X104920000Y-108080000D02*
X104920000Y-112320000D01*
X104920000Y-112320000D02*
X102680000Y-112320000D01*
X102680000Y-108080000D02*
X104920000Y-108080000D01*
X102680000Y-108920000D02*
X104920000Y-108920000D01*
X103800000Y-107430000D02*
X103800000Y-108080000D01*
X102680000Y-112320000D02*
X102680000Y-108080000D01*
%TO.C,D4*%
X122537944Y-43250000D02*
X122424315Y-43250000D01*
X125190686Y-43250000D02*
G75*
G03*
X125190686Y-43250000I-1326371J0D01*
G01*
%TO.C,D10*%
X122962057Y-49000000D02*
X123075686Y-49000000D01*
X122962057Y-49000000D02*
G75*
G03*
X122962057Y-49000000I-1326371J0D01*
G01*
%TD*%
D16*
%TO.C,U3*%
X123230005Y-80890008D03*
X120690005Y-80890008D03*
X118150005Y-80890008D03*
X115610005Y-80890008D03*
X113070005Y-80890008D03*
X110530005Y-80890008D03*
D17*
X124500005Y-83430008D03*
X124500005Y-85970008D03*
X124500005Y-88510008D03*
X124500005Y-91050008D03*
X124500005Y-93590008D03*
X124500005Y-96130008D03*
X124500005Y-98670008D03*
X124500005Y-101210008D03*
X124500005Y-103750008D03*
X124500005Y-106290008D03*
X124500005Y-108830008D03*
X124500005Y-111370008D03*
X109260005Y-83430008D03*
X109260005Y-85970008D03*
X109260005Y-88510008D03*
X109260005Y-91050008D03*
X109260005Y-93590008D03*
X109260005Y-96130008D03*
X109260005Y-98670008D03*
X109260005Y-101210008D03*
X109260005Y-103750008D03*
X109260005Y-106290008D03*
X109260005Y-108830008D03*
X109260005Y-111370008D03*
X111800005Y-92193008D03*
X111800005Y-94733008D03*
X112181005Y-102607008D03*
X112181005Y-105147008D03*
%TD*%
M02*
