G04 #@! TF.GenerationSoftware,KiCad,Pcbnew,(5.0.2)-1*
G04 #@! TF.CreationDate,2020-03-10T11:29:15-04:00*
G04 #@! TF.ProjectId,FTDI-USB-TTL-49MM,46544449-2d55-4534-922d-54544c2d3439,1*
G04 #@! TF.SameCoordinates,Original*
G04 #@! TF.FileFunction,Soldermask,Top*
G04 #@! TF.FilePolarity,Negative*
%FSLAX46Y46*%
G04 Gerber Fmt 4.6, Leading zero omitted, Abs format (unit mm)*
G04 Created by KiCad (PCBNEW (5.0.2)-1) date 3/10/2020 11:29:15 AM*
%MOMM*%
%LPD*%
G01*
G04 APERTURE LIST*
%ADD10C,0.150000*%
G04 APERTURE END LIST*
D10*
G36*
X45668964Y-41636887D02*
X46000202Y-41702775D01*
X46258686Y-41809843D01*
X46624239Y-41961259D01*
X47185863Y-42336524D01*
X47663476Y-42814137D01*
X48038741Y-43375761D01*
X48297225Y-43999799D01*
X48429000Y-44662272D01*
X48429000Y-45337728D01*
X48297225Y-46000201D01*
X48038741Y-46624239D01*
X47663476Y-47185863D01*
X47185863Y-47663476D01*
X46624239Y-48038741D01*
X46258686Y-48190157D01*
X46000202Y-48297225D01*
X45668964Y-48363113D01*
X45337728Y-48429000D01*
X44662272Y-48429000D01*
X44331035Y-48363112D01*
X43999798Y-48297225D01*
X43741314Y-48190157D01*
X43375761Y-48038741D01*
X42814137Y-47663476D01*
X42336524Y-47185863D01*
X41961259Y-46624239D01*
X41702775Y-46000201D01*
X41571000Y-45337728D01*
X41571000Y-44662272D01*
X41702775Y-43999799D01*
X41961259Y-43375761D01*
X42336524Y-42814137D01*
X42814137Y-42336524D01*
X43375761Y-41961259D01*
X43741314Y-41809843D01*
X43999798Y-41702775D01*
X44331036Y-41636887D01*
X44662272Y-41571000D01*
X45337728Y-41571000D01*
X45668964Y-41636887D01*
X45668964Y-41636887D01*
G37*
G36*
X4668964Y-41636887D02*
X5000202Y-41702775D01*
X5258686Y-41809843D01*
X5624239Y-41961259D01*
X6185863Y-42336524D01*
X6663476Y-42814137D01*
X7038741Y-43375761D01*
X7297225Y-43999799D01*
X7429000Y-44662272D01*
X7429000Y-45337728D01*
X7297225Y-46000201D01*
X7038741Y-46624239D01*
X6663476Y-47185863D01*
X6185863Y-47663476D01*
X5624239Y-48038741D01*
X5258686Y-48190157D01*
X5000202Y-48297225D01*
X4668965Y-48363112D01*
X4337728Y-48429000D01*
X3662272Y-48429000D01*
X3331035Y-48363112D01*
X2999798Y-48297225D01*
X2741314Y-48190157D01*
X2375761Y-48038741D01*
X1814137Y-47663476D01*
X1336524Y-47185863D01*
X961259Y-46624239D01*
X702775Y-46000201D01*
X571000Y-45337728D01*
X571000Y-44662272D01*
X702775Y-43999799D01*
X961259Y-43375761D01*
X1336524Y-42814137D01*
X1814137Y-42336524D01*
X2375761Y-41961259D01*
X2741314Y-41809843D01*
X2999798Y-41702775D01*
X3331036Y-41636887D01*
X3662272Y-41571000D01*
X4337728Y-41571000D01*
X4668964Y-41636887D01*
X4668964Y-41636887D01*
G37*
G36*
X41336610Y-35466347D02*
X41546623Y-35553337D01*
X41735635Y-35679631D01*
X41896369Y-35840365D01*
X42022663Y-36029377D01*
X42109653Y-36239390D01*
X42154000Y-36462339D01*
X42154000Y-36689661D01*
X42109653Y-36912610D01*
X42022663Y-37122623D01*
X41896369Y-37311635D01*
X41735635Y-37472369D01*
X41546623Y-37598663D01*
X41336610Y-37685653D01*
X41192078Y-37714402D01*
X41168629Y-37721515D01*
X41147018Y-37733066D01*
X41128076Y-37748612D01*
X41112530Y-37767554D01*
X41100979Y-37789165D01*
X41093866Y-37812614D01*
X41091464Y-37837000D01*
X41093866Y-37861386D01*
X41100979Y-37884835D01*
X41112530Y-37906446D01*
X41128076Y-37925388D01*
X41147018Y-37940934D01*
X41168629Y-37952485D01*
X41192078Y-37959598D01*
X41216464Y-37962000D01*
X42154000Y-37962000D01*
X42154000Y-40270000D01*
X39846000Y-40270000D01*
X39846000Y-37962000D01*
X40783536Y-37962000D01*
X40807922Y-37959598D01*
X40831371Y-37952485D01*
X40852982Y-37940934D01*
X40871924Y-37925388D01*
X40887470Y-37906446D01*
X40899021Y-37884835D01*
X40906134Y-37861386D01*
X40908536Y-37837000D01*
X40906134Y-37812614D01*
X40899021Y-37789165D01*
X40887470Y-37767554D01*
X40871924Y-37748612D01*
X40852982Y-37733066D01*
X40831371Y-37721515D01*
X40807922Y-37714402D01*
X40663390Y-37685653D01*
X40453377Y-37598663D01*
X40264365Y-37472369D01*
X40103631Y-37311635D01*
X39977337Y-37122623D01*
X39890347Y-36912610D01*
X39846000Y-36689661D01*
X39846000Y-36462339D01*
X39890347Y-36239390D01*
X39977337Y-36029377D01*
X40103631Y-35840365D01*
X40264365Y-35679631D01*
X40453377Y-35553337D01*
X40663390Y-35466347D01*
X40886339Y-35422000D01*
X41113661Y-35422000D01*
X41336610Y-35466347D01*
X41336610Y-35466347D01*
G37*
G36*
X36620632Y-35628161D02*
X36674885Y-35644618D01*
X36724873Y-35671337D01*
X36768697Y-35707303D01*
X36804663Y-35751127D01*
X36831382Y-35801115D01*
X36847839Y-35855368D01*
X36854000Y-35917922D01*
X36854000Y-37234078D01*
X36847839Y-37296632D01*
X36831382Y-37350885D01*
X36804663Y-37400873D01*
X36768697Y-37444697D01*
X36724873Y-37480663D01*
X36674885Y-37507382D01*
X36620632Y-37523839D01*
X36558078Y-37530000D01*
X35491922Y-37530000D01*
X35429368Y-37523839D01*
X35375115Y-37507382D01*
X35325127Y-37480663D01*
X35281303Y-37444697D01*
X35245337Y-37400873D01*
X35218618Y-37350885D01*
X35202161Y-37296632D01*
X35196000Y-37234078D01*
X35196000Y-35917922D01*
X35202161Y-35855368D01*
X35218618Y-35801115D01*
X35245337Y-35751127D01*
X35281303Y-35707303D01*
X35325127Y-35671337D01*
X35375115Y-35644618D01*
X35429368Y-35628161D01*
X35491922Y-35622000D01*
X36558078Y-35622000D01*
X36620632Y-35628161D01*
X36620632Y-35628161D01*
G37*
G36*
X34570632Y-35628161D02*
X34624885Y-35644618D01*
X34674873Y-35671337D01*
X34718697Y-35707303D01*
X34754663Y-35751127D01*
X34781382Y-35801115D01*
X34797839Y-35855368D01*
X34804000Y-35917922D01*
X34804000Y-37234078D01*
X34797839Y-37296632D01*
X34781382Y-37350885D01*
X34754663Y-37400873D01*
X34718697Y-37444697D01*
X34674873Y-37480663D01*
X34624885Y-37507382D01*
X34570632Y-37523839D01*
X34508078Y-37530000D01*
X33441922Y-37530000D01*
X33379368Y-37523839D01*
X33325115Y-37507382D01*
X33275127Y-37480663D01*
X33231303Y-37444697D01*
X33195337Y-37400873D01*
X33168618Y-37350885D01*
X33152161Y-37296632D01*
X33146000Y-37234078D01*
X33146000Y-35917922D01*
X33152161Y-35855368D01*
X33168618Y-35801115D01*
X33195337Y-35751127D01*
X33231303Y-35707303D01*
X33275127Y-35671337D01*
X33325115Y-35644618D01*
X33379368Y-35628161D01*
X33441922Y-35622000D01*
X34508078Y-35622000D01*
X34570632Y-35628161D01*
X34570632Y-35628161D01*
G37*
G36*
X17627225Y-34054550D02*
X17675512Y-34069197D01*
X17720012Y-34092983D01*
X17759011Y-34124989D01*
X17791017Y-34163988D01*
X17814803Y-34208488D01*
X17829450Y-34256775D01*
X17835000Y-34313123D01*
X17835000Y-35717877D01*
X17829450Y-35774225D01*
X17814803Y-35822512D01*
X17791017Y-35867012D01*
X17759011Y-35906011D01*
X17720012Y-35938017D01*
X17675512Y-35961803D01*
X17627225Y-35976450D01*
X17570877Y-35982000D01*
X14941123Y-35982000D01*
X14884775Y-35976450D01*
X14836488Y-35961803D01*
X14791988Y-35938017D01*
X14752989Y-35906011D01*
X14720983Y-35867012D01*
X14697197Y-35822512D01*
X14682550Y-35774225D01*
X14677000Y-35717877D01*
X14677000Y-34313123D01*
X14682550Y-34256775D01*
X14697197Y-34208488D01*
X14720983Y-34163988D01*
X14752989Y-34124989D01*
X14791988Y-34092983D01*
X14836488Y-34069197D01*
X14884775Y-34054550D01*
X14941123Y-34049000D01*
X17570877Y-34049000D01*
X17627225Y-34054550D01*
X17627225Y-34054550D01*
G37*
G36*
X17627225Y-31079550D02*
X17675512Y-31094197D01*
X17720012Y-31117983D01*
X17759011Y-31149989D01*
X17791017Y-31188988D01*
X17814803Y-31233488D01*
X17829450Y-31281775D01*
X17835000Y-31338123D01*
X17835000Y-32742877D01*
X17829450Y-32799225D01*
X17814803Y-32847512D01*
X17791017Y-32892012D01*
X17759011Y-32931011D01*
X17720012Y-32963017D01*
X17675512Y-32986803D01*
X17627225Y-33001450D01*
X17570877Y-33007000D01*
X14941123Y-33007000D01*
X14884775Y-33001450D01*
X14836488Y-32986803D01*
X14791988Y-32963017D01*
X14752989Y-32931011D01*
X14720983Y-32892012D01*
X14697197Y-32847512D01*
X14682550Y-32799225D01*
X14677000Y-32742877D01*
X14677000Y-31338123D01*
X14682550Y-31281775D01*
X14697197Y-31233488D01*
X14720983Y-31188988D01*
X14752989Y-31149989D01*
X14791988Y-31117983D01*
X14836488Y-31094197D01*
X14884775Y-31079550D01*
X14941123Y-31074000D01*
X17570877Y-31074000D01*
X17627225Y-31079550D01*
X17627225Y-31079550D01*
G37*
G36*
X42124545Y-28457013D02*
X42489249Y-28608078D01*
X42817478Y-28827394D01*
X43096606Y-29106522D01*
X43315922Y-29434751D01*
X43466987Y-29799455D01*
X43544000Y-30186623D01*
X43544000Y-30581377D01*
X43466987Y-30968545D01*
X43315922Y-31333249D01*
X43096606Y-31661478D01*
X42817478Y-31940606D01*
X42489249Y-32159922D01*
X42124545Y-32310987D01*
X41737377Y-32388000D01*
X41342623Y-32388000D01*
X40955455Y-32310987D01*
X40590751Y-32159922D01*
X40262522Y-31940606D01*
X39983394Y-31661478D01*
X39764078Y-31333249D01*
X39613013Y-30968545D01*
X39536000Y-30581377D01*
X39536000Y-30186623D01*
X39613013Y-29799455D01*
X39764078Y-29434751D01*
X39983394Y-29106522D01*
X40262522Y-28827394D01*
X40590751Y-28608078D01*
X40955455Y-28457013D01*
X41342623Y-28380000D01*
X41737377Y-28380000D01*
X42124545Y-28457013D01*
X42124545Y-28457013D01*
G37*
G36*
X11716423Y-29391974D02*
X11924526Y-29455102D01*
X12116313Y-29557614D01*
X12284423Y-29695577D01*
X12422386Y-29863687D01*
X12524898Y-30055474D01*
X12588026Y-30263577D01*
X12609341Y-30480000D01*
X12588026Y-30696423D01*
X12524898Y-30904526D01*
X12422386Y-31096313D01*
X12422384Y-31096316D01*
X12422383Y-31096317D01*
X12284423Y-31264423D01*
X12194619Y-31338123D01*
X12116313Y-31402386D01*
X11924526Y-31504898D01*
X11716423Y-31568026D01*
X11554231Y-31584000D01*
X11445769Y-31584000D01*
X11283577Y-31568026D01*
X11075474Y-31504898D01*
X10883687Y-31402386D01*
X10805382Y-31338123D01*
X10715577Y-31264423D01*
X10577617Y-31096317D01*
X10577616Y-31096316D01*
X10577614Y-31096313D01*
X10475102Y-30904526D01*
X10411974Y-30696423D01*
X10390659Y-30480000D01*
X10411974Y-30263577D01*
X10475102Y-30055474D01*
X10577614Y-29863687D01*
X10715577Y-29695577D01*
X10883687Y-29557614D01*
X11075474Y-29455102D01*
X11283577Y-29391974D01*
X11445769Y-29376000D01*
X11554231Y-29376000D01*
X11716423Y-29391974D01*
X11716423Y-29391974D01*
G37*
G36*
X25676500Y-29454000D02*
X20323500Y-29454000D01*
X20323500Y-27746000D01*
X25676500Y-27746000D01*
X25676500Y-29454000D01*
X25676500Y-29454000D01*
G37*
G36*
X11716423Y-26851974D02*
X11924526Y-26915102D01*
X12116313Y-27017614D01*
X12284423Y-27155577D01*
X12422386Y-27323687D01*
X12524898Y-27515474D01*
X12588026Y-27723577D01*
X12609341Y-27940000D01*
X12588026Y-28156423D01*
X12524898Y-28364526D01*
X12422386Y-28556313D01*
X12422384Y-28556316D01*
X12422383Y-28556317D01*
X12284423Y-28724423D01*
X12158952Y-28827394D01*
X12116313Y-28862386D01*
X11924526Y-28964898D01*
X11716423Y-29028026D01*
X11554231Y-29044000D01*
X11445769Y-29044000D01*
X11283577Y-29028026D01*
X11075474Y-28964898D01*
X10883687Y-28862386D01*
X10841049Y-28827394D01*
X10715577Y-28724423D01*
X10577617Y-28556317D01*
X10577616Y-28556316D01*
X10577614Y-28556313D01*
X10475102Y-28364526D01*
X10411974Y-28156423D01*
X10390659Y-27940000D01*
X10411974Y-27723577D01*
X10475102Y-27515474D01*
X10577614Y-27323687D01*
X10715577Y-27155577D01*
X10883687Y-27017614D01*
X11075474Y-26915102D01*
X11283577Y-26851974D01*
X11445769Y-26836000D01*
X11554231Y-26836000D01*
X11716423Y-26851974D01*
X11716423Y-26851974D01*
G37*
G36*
X28945633Y-26552161D02*
X28999886Y-26568618D01*
X29049874Y-26595337D01*
X29093698Y-26631303D01*
X29129664Y-26675127D01*
X29156383Y-26725115D01*
X29172840Y-26779368D01*
X29179001Y-26841922D01*
X29179001Y-28158078D01*
X29172840Y-28220632D01*
X29156383Y-28274885D01*
X29129664Y-28324873D01*
X29093698Y-28368697D01*
X29049874Y-28404663D01*
X28999886Y-28431382D01*
X28945633Y-28447839D01*
X28883079Y-28454000D01*
X27816923Y-28454000D01*
X27754369Y-28447839D01*
X27700116Y-28431382D01*
X27650128Y-28404663D01*
X27606304Y-28368697D01*
X27570338Y-28324873D01*
X27543619Y-28274885D01*
X27527162Y-28220632D01*
X27521001Y-28158078D01*
X27521001Y-26841922D01*
X27527162Y-26779368D01*
X27543619Y-26725115D01*
X27570338Y-26675127D01*
X27606304Y-26631303D01*
X27650128Y-26595337D01*
X27700116Y-26568618D01*
X27754369Y-26552161D01*
X27816923Y-26546000D01*
X28883079Y-26546000D01*
X28945633Y-26552161D01*
X28945633Y-26552161D01*
G37*
G36*
X30995633Y-26552161D02*
X31049886Y-26568618D01*
X31099874Y-26595337D01*
X31143698Y-26631303D01*
X31179664Y-26675127D01*
X31206383Y-26725115D01*
X31222840Y-26779368D01*
X31229001Y-26841922D01*
X31229001Y-28158078D01*
X31222840Y-28220632D01*
X31206383Y-28274885D01*
X31179664Y-28324873D01*
X31143698Y-28368697D01*
X31099874Y-28404663D01*
X31049886Y-28431382D01*
X30995633Y-28447839D01*
X30933079Y-28454000D01*
X29866923Y-28454000D01*
X29804369Y-28447839D01*
X29750116Y-28431382D01*
X29700128Y-28404663D01*
X29656304Y-28368697D01*
X29620338Y-28324873D01*
X29593619Y-28274885D01*
X29577162Y-28220632D01*
X29571001Y-28158078D01*
X29571001Y-26841922D01*
X29577162Y-26779368D01*
X29593619Y-26725115D01*
X29620338Y-26675127D01*
X29656304Y-26631303D01*
X29700128Y-26595337D01*
X29750116Y-26568618D01*
X29804369Y-26552161D01*
X29866923Y-26546000D01*
X30933079Y-26546000D01*
X30995633Y-26552161D01*
X30995633Y-26552161D01*
G37*
G36*
X37152023Y-24552425D02*
X37352941Y-24635648D01*
X37533762Y-24756469D01*
X37687531Y-24910238D01*
X37726066Y-24967910D01*
X37741611Y-24986852D01*
X37760553Y-25002397D01*
X37782164Y-25013949D01*
X37805613Y-25021062D01*
X37830000Y-25023464D01*
X37854386Y-25021062D01*
X37877835Y-25013949D01*
X37899446Y-25002398D01*
X37918388Y-24986853D01*
X37933934Y-24967910D01*
X37972469Y-24910238D01*
X38126238Y-24756469D01*
X38307059Y-24635648D01*
X38507977Y-24552425D01*
X38721264Y-24510000D01*
X38938736Y-24510000D01*
X39152023Y-24552425D01*
X39352941Y-24635648D01*
X39533762Y-24756469D01*
X39687531Y-24910238D01*
X39808352Y-25091059D01*
X39891575Y-25291977D01*
X39934000Y-25505264D01*
X39934000Y-25722736D01*
X39891575Y-25936023D01*
X39808352Y-26136941D01*
X39687531Y-26317762D01*
X39533762Y-26471531D01*
X39352941Y-26592352D01*
X39152023Y-26675575D01*
X38938736Y-26718000D01*
X38721264Y-26718000D01*
X38507977Y-26675575D01*
X38307059Y-26592352D01*
X38126238Y-26471531D01*
X37972469Y-26317762D01*
X37933934Y-26260090D01*
X37918389Y-26241148D01*
X37899447Y-26225603D01*
X37877836Y-26214051D01*
X37854387Y-26206938D01*
X37830000Y-26204536D01*
X37805614Y-26206938D01*
X37782165Y-26214051D01*
X37760554Y-26225602D01*
X37741612Y-26241147D01*
X37726066Y-26260090D01*
X37687531Y-26317762D01*
X37533762Y-26471531D01*
X37352941Y-26592352D01*
X37152023Y-26675575D01*
X36938736Y-26718000D01*
X36721264Y-26718000D01*
X36507977Y-26675575D01*
X36307059Y-26592352D01*
X36126238Y-26471531D01*
X35972469Y-26317762D01*
X35851648Y-26136941D01*
X35768425Y-25936023D01*
X35726000Y-25722736D01*
X35726000Y-25505264D01*
X35768425Y-25291977D01*
X35851648Y-25091059D01*
X35972469Y-24910238D01*
X36126238Y-24756469D01*
X36307059Y-24635648D01*
X36507977Y-24552425D01*
X36721264Y-24510000D01*
X36938736Y-24510000D01*
X37152023Y-24552425D01*
X37152023Y-24552425D01*
G37*
G36*
X17104000Y-26504000D02*
X14896000Y-26504000D01*
X14896000Y-24296000D01*
X17104000Y-24296000D01*
X17104000Y-26504000D01*
X17104000Y-26504000D01*
G37*
G36*
X11716423Y-24311974D02*
X11924526Y-24375102D01*
X12116313Y-24477614D01*
X12116316Y-24477616D01*
X12116317Y-24477617D01*
X12284423Y-24615577D01*
X12400048Y-24756467D01*
X12422386Y-24783687D01*
X12524898Y-24975474D01*
X12588026Y-25183577D01*
X12609341Y-25400000D01*
X12588026Y-25616423D01*
X12524898Y-25824526D01*
X12422386Y-26016313D01*
X12422384Y-26016316D01*
X12422383Y-26016317D01*
X12284423Y-26184423D01*
X12121948Y-26317762D01*
X12116313Y-26322386D01*
X11924526Y-26424898D01*
X11716423Y-26488026D01*
X11554231Y-26504000D01*
X11445769Y-26504000D01*
X11283577Y-26488026D01*
X11075474Y-26424898D01*
X10883687Y-26322386D01*
X10878053Y-26317762D01*
X10715577Y-26184423D01*
X10577617Y-26016317D01*
X10577616Y-26016316D01*
X10577614Y-26016313D01*
X10475102Y-25824526D01*
X10411974Y-25616423D01*
X10390659Y-25400000D01*
X10411974Y-25183577D01*
X10475102Y-24975474D01*
X10577614Y-24783687D01*
X10599953Y-24756467D01*
X10715577Y-24615577D01*
X10883683Y-24477617D01*
X10883684Y-24477616D01*
X10883687Y-24477614D01*
X11075474Y-24375102D01*
X11283577Y-24311974D01*
X11445769Y-24296000D01*
X11554231Y-24296000D01*
X11716423Y-24311974D01*
X11716423Y-24311974D01*
G37*
G36*
X30995633Y-23527162D02*
X31049886Y-23543619D01*
X31099874Y-23570338D01*
X31143698Y-23606304D01*
X31179664Y-23650128D01*
X31206383Y-23700116D01*
X31222840Y-23754369D01*
X31229001Y-23816923D01*
X31229001Y-25133079D01*
X31222840Y-25195633D01*
X31206383Y-25249886D01*
X31179664Y-25299874D01*
X31143698Y-25343698D01*
X31099874Y-25379664D01*
X31049886Y-25406383D01*
X30995633Y-25422840D01*
X30933079Y-25429001D01*
X29866923Y-25429001D01*
X29804369Y-25422840D01*
X29750116Y-25406383D01*
X29700128Y-25379664D01*
X29656304Y-25343698D01*
X29620338Y-25299874D01*
X29593619Y-25249886D01*
X29577162Y-25195633D01*
X29571001Y-25133079D01*
X29571001Y-23816923D01*
X29577162Y-23754369D01*
X29593619Y-23700116D01*
X29620338Y-23650128D01*
X29656304Y-23606304D01*
X29700128Y-23570338D01*
X29750116Y-23543619D01*
X29804369Y-23527162D01*
X29866923Y-23521001D01*
X30933079Y-23521001D01*
X30995633Y-23527162D01*
X30995633Y-23527162D01*
G37*
G36*
X28945633Y-23527162D02*
X28999886Y-23543619D01*
X29049874Y-23570338D01*
X29093698Y-23606304D01*
X29129664Y-23650128D01*
X29156383Y-23700116D01*
X29172840Y-23754369D01*
X29179001Y-23816923D01*
X29179001Y-25133079D01*
X29172840Y-25195633D01*
X29156383Y-25249886D01*
X29129664Y-25299874D01*
X29093698Y-25343698D01*
X29049874Y-25379664D01*
X28999886Y-25406383D01*
X28945633Y-25422840D01*
X28883079Y-25429001D01*
X27816923Y-25429001D01*
X27754369Y-25422840D01*
X27700116Y-25406383D01*
X27650128Y-25379664D01*
X27606304Y-25343698D01*
X27570338Y-25299874D01*
X27543619Y-25249886D01*
X27527162Y-25195633D01*
X27521001Y-25133079D01*
X27521001Y-23816923D01*
X27527162Y-23754369D01*
X27543619Y-23700116D01*
X27570338Y-23650128D01*
X27606304Y-23606304D01*
X27650128Y-23570338D01*
X27700116Y-23543619D01*
X27754369Y-23527162D01*
X27816923Y-23521001D01*
X28883079Y-23521001D01*
X28945633Y-23527162D01*
X28945633Y-23527162D01*
G37*
G36*
X25676500Y-24254000D02*
X20323500Y-24254000D01*
X20323500Y-22546000D01*
X25676500Y-22546000D01*
X25676500Y-24254000D01*
X25676500Y-24254000D01*
G37*
G36*
X37934000Y-22151060D02*
X37936402Y-22175446D01*
X37943515Y-22198895D01*
X37955066Y-22220506D01*
X37970612Y-22239448D01*
X37989554Y-22254994D01*
X38011165Y-22266545D01*
X38034614Y-22273658D01*
X38059000Y-22276060D01*
X38083386Y-22273658D01*
X38106835Y-22266545D01*
X38128446Y-22254994D01*
X38307059Y-22135648D01*
X38507977Y-22052425D01*
X38721264Y-22010000D01*
X38938736Y-22010000D01*
X39152023Y-22052425D01*
X39352941Y-22135648D01*
X39533762Y-22256469D01*
X39687531Y-22410238D01*
X39808352Y-22591059D01*
X39891575Y-22791977D01*
X39934000Y-23005264D01*
X39934000Y-23222736D01*
X39891575Y-23436023D01*
X39808352Y-23636941D01*
X39687531Y-23817762D01*
X39533762Y-23971531D01*
X39352941Y-24092352D01*
X39152023Y-24175575D01*
X38938736Y-24218000D01*
X38721264Y-24218000D01*
X38507977Y-24175575D01*
X38307059Y-24092352D01*
X38128446Y-23973006D01*
X38106836Y-23961455D01*
X38083386Y-23954342D01*
X38059000Y-23951940D01*
X38034614Y-23954342D01*
X38011165Y-23961455D01*
X37989554Y-23973006D01*
X37970612Y-23988552D01*
X37955066Y-24007494D01*
X37943515Y-24029104D01*
X37936402Y-24052554D01*
X37934000Y-24076940D01*
X37934000Y-24218000D01*
X35726000Y-24218000D01*
X35726000Y-22010000D01*
X37934000Y-22010000D01*
X37934000Y-22151060D01*
X37934000Y-22151060D01*
G37*
G36*
X11716423Y-21771974D02*
X11924526Y-21835102D01*
X12116313Y-21937614D01*
X12116316Y-21937616D01*
X12116317Y-21937617D01*
X12256212Y-22052425D01*
X12284423Y-22075577D01*
X12422386Y-22243687D01*
X12524898Y-22435474D01*
X12588026Y-22643577D01*
X12609341Y-22860000D01*
X12588026Y-23076423D01*
X12524898Y-23284526D01*
X12422386Y-23476313D01*
X12422384Y-23476316D01*
X12422383Y-23476317D01*
X12335861Y-23581745D01*
X12284423Y-23644423D01*
X12116313Y-23782386D01*
X11924526Y-23884898D01*
X11716423Y-23948026D01*
X11554231Y-23964000D01*
X11445769Y-23964000D01*
X11283577Y-23948026D01*
X11075474Y-23884898D01*
X10883687Y-23782386D01*
X10715577Y-23644423D01*
X10664139Y-23581745D01*
X10577617Y-23476317D01*
X10577616Y-23476316D01*
X10577614Y-23476313D01*
X10475102Y-23284526D01*
X10411974Y-23076423D01*
X10390659Y-22860000D01*
X10411974Y-22643577D01*
X10475102Y-22435474D01*
X10577614Y-22243687D01*
X10715577Y-22075577D01*
X10743788Y-22052425D01*
X10883683Y-21937617D01*
X10883684Y-21937616D01*
X10883687Y-21937614D01*
X11075474Y-21835102D01*
X11283577Y-21771974D01*
X11445769Y-21756000D01*
X11554231Y-21756000D01*
X11716423Y-21771974D01*
X11716423Y-21771974D01*
G37*
G36*
X16216423Y-21771974D02*
X16424526Y-21835102D01*
X16616313Y-21937614D01*
X16616316Y-21937616D01*
X16616317Y-21937617D01*
X16756212Y-22052425D01*
X16784423Y-22075577D01*
X16922386Y-22243687D01*
X17024898Y-22435474D01*
X17088026Y-22643577D01*
X17109341Y-22860000D01*
X17088026Y-23076423D01*
X17024898Y-23284526D01*
X16922386Y-23476313D01*
X16922384Y-23476316D01*
X16922383Y-23476317D01*
X16835861Y-23581745D01*
X16784423Y-23644423D01*
X16616313Y-23782386D01*
X16424526Y-23884898D01*
X16216423Y-23948026D01*
X16054231Y-23964000D01*
X15945769Y-23964000D01*
X15783577Y-23948026D01*
X15575474Y-23884898D01*
X15383687Y-23782386D01*
X15215577Y-23644423D01*
X15164139Y-23581745D01*
X15077617Y-23476317D01*
X15077616Y-23476316D01*
X15077614Y-23476313D01*
X14975102Y-23284526D01*
X14911974Y-23076423D01*
X14890659Y-22860000D01*
X14911974Y-22643577D01*
X14975102Y-22435474D01*
X15077614Y-22243687D01*
X15215577Y-22075577D01*
X15243788Y-22052425D01*
X15383683Y-21937617D01*
X15383684Y-21937616D01*
X15383687Y-21937614D01*
X15575474Y-21835102D01*
X15783577Y-21771974D01*
X15945769Y-21756000D01*
X16054231Y-21756000D01*
X16216423Y-21771974D01*
X16216423Y-21771974D01*
G37*
G36*
X16216423Y-19231974D02*
X16424526Y-19295102D01*
X16616313Y-19397614D01*
X16616316Y-19397616D01*
X16616317Y-19397617D01*
X16784423Y-19535577D01*
X16854920Y-19621478D01*
X16922386Y-19703687D01*
X17024898Y-19895474D01*
X17088026Y-20103577D01*
X17109341Y-20320000D01*
X17088026Y-20536423D01*
X17024898Y-20744526D01*
X16922386Y-20936313D01*
X16784423Y-21104423D01*
X16616313Y-21242386D01*
X16424526Y-21344898D01*
X16216423Y-21408026D01*
X16054231Y-21424000D01*
X15945769Y-21424000D01*
X15783577Y-21408026D01*
X15575474Y-21344898D01*
X15383687Y-21242386D01*
X15215577Y-21104423D01*
X15077614Y-20936313D01*
X14975102Y-20744526D01*
X14911974Y-20536423D01*
X14890659Y-20320000D01*
X14911974Y-20103577D01*
X14975102Y-19895474D01*
X15077614Y-19703687D01*
X15145081Y-19621478D01*
X15215577Y-19535577D01*
X15383683Y-19397617D01*
X15383684Y-19397616D01*
X15383687Y-19397614D01*
X15575474Y-19295102D01*
X15783577Y-19231974D01*
X15945769Y-19216000D01*
X16054231Y-19216000D01*
X16216423Y-19231974D01*
X16216423Y-19231974D01*
G37*
G36*
X11716423Y-19231974D02*
X11924526Y-19295102D01*
X12116313Y-19397614D01*
X12116316Y-19397616D01*
X12116317Y-19397617D01*
X12284423Y-19535577D01*
X12354920Y-19621478D01*
X12422386Y-19703687D01*
X12524898Y-19895474D01*
X12588026Y-20103577D01*
X12609341Y-20320000D01*
X12588026Y-20536423D01*
X12524898Y-20744526D01*
X12422386Y-20936313D01*
X12284423Y-21104423D01*
X12116313Y-21242386D01*
X11924526Y-21344898D01*
X11716423Y-21408026D01*
X11554231Y-21424000D01*
X11445769Y-21424000D01*
X11283577Y-21408026D01*
X11075474Y-21344898D01*
X10883687Y-21242386D01*
X10715577Y-21104423D01*
X10577614Y-20936313D01*
X10475102Y-20744526D01*
X10411974Y-20536423D01*
X10390659Y-20320000D01*
X10411974Y-20103577D01*
X10475102Y-19895474D01*
X10577614Y-19703687D01*
X10645081Y-19621478D01*
X10715577Y-19535577D01*
X10883683Y-19397617D01*
X10883684Y-19397616D01*
X10883687Y-19397614D01*
X11075474Y-19295102D01*
X11283577Y-19231974D01*
X11445769Y-19216000D01*
X11554231Y-19216000D01*
X11716423Y-19231974D01*
X11716423Y-19231974D01*
G37*
G36*
X42124545Y-16417013D02*
X42489249Y-16568078D01*
X42817478Y-16787394D01*
X43096606Y-17066522D01*
X43315922Y-17394751D01*
X43466987Y-17759455D01*
X43544000Y-18146623D01*
X43544000Y-18541377D01*
X43466987Y-18928545D01*
X43315922Y-19293249D01*
X43096606Y-19621478D01*
X42817478Y-19900606D01*
X42489249Y-20119922D01*
X42124545Y-20270987D01*
X41737377Y-20348000D01*
X41342623Y-20348000D01*
X40955455Y-20270987D01*
X40590751Y-20119922D01*
X40262522Y-19900606D01*
X39983394Y-19621478D01*
X39764078Y-19293249D01*
X39613013Y-18928545D01*
X39536000Y-18541377D01*
X39536000Y-18146623D01*
X39613013Y-17759455D01*
X39764078Y-17394751D01*
X39983394Y-17066522D01*
X40262522Y-16787394D01*
X40590751Y-16568078D01*
X40955455Y-16417013D01*
X41342623Y-16340000D01*
X41737377Y-16340000D01*
X42124545Y-16417013D01*
X42124545Y-16417013D01*
G37*
G36*
X22938632Y-17052161D02*
X22992885Y-17068618D01*
X23042873Y-17095337D01*
X23086697Y-17131303D01*
X23122663Y-17175127D01*
X23149382Y-17225115D01*
X23165839Y-17279368D01*
X23172000Y-17341922D01*
X23172000Y-18658078D01*
X23165839Y-18720632D01*
X23149382Y-18774885D01*
X23122663Y-18824873D01*
X23086697Y-18868697D01*
X23042873Y-18904663D01*
X22992885Y-18931382D01*
X22938632Y-18947839D01*
X22876078Y-18954000D01*
X21809922Y-18954000D01*
X21747368Y-18947839D01*
X21693115Y-18931382D01*
X21643127Y-18904663D01*
X21599303Y-18868697D01*
X21563337Y-18824873D01*
X21536618Y-18774885D01*
X21520161Y-18720632D01*
X21514000Y-18658078D01*
X21514000Y-17341922D01*
X21520161Y-17279368D01*
X21536618Y-17225115D01*
X21563337Y-17175127D01*
X21599303Y-17131303D01*
X21643127Y-17095337D01*
X21693115Y-17068618D01*
X21747368Y-17052161D01*
X21809922Y-17046000D01*
X22876078Y-17046000D01*
X22938632Y-17052161D01*
X22938632Y-17052161D01*
G37*
G36*
X24988632Y-17052161D02*
X25042885Y-17068618D01*
X25092873Y-17095337D01*
X25136697Y-17131303D01*
X25172663Y-17175127D01*
X25199382Y-17225115D01*
X25215839Y-17279368D01*
X25222000Y-17341922D01*
X25222000Y-18658078D01*
X25215839Y-18720632D01*
X25199382Y-18774885D01*
X25172663Y-18824873D01*
X25136697Y-18868697D01*
X25092873Y-18904663D01*
X25042885Y-18931382D01*
X24988632Y-18947839D01*
X24926078Y-18954000D01*
X23859922Y-18954000D01*
X23797368Y-18947839D01*
X23743115Y-18931382D01*
X23693127Y-18904663D01*
X23649303Y-18868697D01*
X23613337Y-18824873D01*
X23586618Y-18774885D01*
X23570161Y-18720632D01*
X23564000Y-18658078D01*
X23564000Y-17341922D01*
X23570161Y-17279368D01*
X23586618Y-17225115D01*
X23613337Y-17175127D01*
X23649303Y-17131303D01*
X23693127Y-17095337D01*
X23743115Y-17068618D01*
X23797368Y-17052161D01*
X23859922Y-17046000D01*
X24926078Y-17046000D01*
X24988632Y-17052161D01*
X24988632Y-17052161D01*
G37*
G36*
X12604000Y-18884000D02*
X10396000Y-18884000D01*
X10396000Y-16676000D01*
X12604000Y-16676000D01*
X12604000Y-18884000D01*
X12604000Y-18884000D01*
G37*
G36*
X41336610Y-11080347D02*
X41546623Y-11167337D01*
X41735635Y-11293631D01*
X41896369Y-11454365D01*
X42022663Y-11643377D01*
X42109653Y-11853390D01*
X42154000Y-12076339D01*
X42154000Y-12303661D01*
X42109653Y-12526610D01*
X42022663Y-12736623D01*
X41896369Y-12925635D01*
X41735635Y-13086369D01*
X41546623Y-13212663D01*
X41336610Y-13299653D01*
X41192078Y-13328402D01*
X41168629Y-13335515D01*
X41147018Y-13347066D01*
X41128076Y-13362612D01*
X41112530Y-13381554D01*
X41100979Y-13403165D01*
X41093866Y-13426614D01*
X41091464Y-13451000D01*
X41093866Y-13475386D01*
X41100979Y-13498835D01*
X41112530Y-13520446D01*
X41128076Y-13539388D01*
X41147018Y-13554934D01*
X41168629Y-13566485D01*
X41192078Y-13573598D01*
X41216464Y-13576000D01*
X42154000Y-13576000D01*
X42154000Y-15884000D01*
X39846000Y-15884000D01*
X39846000Y-13576000D01*
X40783536Y-13576000D01*
X40807922Y-13573598D01*
X40831371Y-13566485D01*
X40852982Y-13554934D01*
X40871924Y-13539388D01*
X40887470Y-13520446D01*
X40899021Y-13498835D01*
X40906134Y-13475386D01*
X40908536Y-13451000D01*
X40906134Y-13426614D01*
X40899021Y-13403165D01*
X40887470Y-13381554D01*
X40871924Y-13362612D01*
X40852982Y-13347066D01*
X40831371Y-13335515D01*
X40807922Y-13328402D01*
X40663390Y-13299653D01*
X40453377Y-13212663D01*
X40264365Y-13086369D01*
X40103631Y-12925635D01*
X39977337Y-12736623D01*
X39890347Y-12526610D01*
X39846000Y-12303661D01*
X39846000Y-12076339D01*
X39890347Y-11853390D01*
X39977337Y-11643377D01*
X40103631Y-11454365D01*
X40264365Y-11293631D01*
X40453377Y-11167337D01*
X40663390Y-11080347D01*
X40886339Y-11036000D01*
X41113661Y-11036000D01*
X41336610Y-11080347D01*
X41336610Y-11080347D01*
G37*
G36*
X29680423Y-12373974D02*
X29888526Y-12437102D01*
X30080313Y-12539614D01*
X30080316Y-12539616D01*
X30080317Y-12539617D01*
X30248423Y-12677577D01*
X30337047Y-12785566D01*
X30386386Y-12845687D01*
X30488898Y-13037474D01*
X30552026Y-13245577D01*
X30573341Y-13462000D01*
X30552026Y-13678423D01*
X30488898Y-13886526D01*
X30386386Y-14078313D01*
X30248423Y-14246423D01*
X30080313Y-14384386D01*
X29888526Y-14486898D01*
X29680423Y-14550026D01*
X29518231Y-14566000D01*
X29409769Y-14566000D01*
X29247577Y-14550026D01*
X29039474Y-14486898D01*
X28847687Y-14384386D01*
X28679577Y-14246423D01*
X28541614Y-14078313D01*
X28439102Y-13886526D01*
X28375974Y-13678423D01*
X28354659Y-13462000D01*
X28375974Y-13245577D01*
X28439102Y-13037474D01*
X28541614Y-12845687D01*
X28590954Y-12785566D01*
X28679577Y-12677577D01*
X28847683Y-12539617D01*
X28847684Y-12539616D01*
X28847687Y-12539614D01*
X29039474Y-12437102D01*
X29247577Y-12373974D01*
X29409769Y-12358000D01*
X29518231Y-12358000D01*
X29680423Y-12373974D01*
X29680423Y-12373974D01*
G37*
G36*
X32220423Y-12373974D02*
X32428526Y-12437102D01*
X32620313Y-12539614D01*
X32620316Y-12539616D01*
X32620317Y-12539617D01*
X32788423Y-12677577D01*
X32877047Y-12785566D01*
X32926386Y-12845687D01*
X33028898Y-13037474D01*
X33092026Y-13245577D01*
X33113341Y-13462000D01*
X33092026Y-13678423D01*
X33028898Y-13886526D01*
X32926386Y-14078313D01*
X32788423Y-14246423D01*
X32620313Y-14384386D01*
X32428526Y-14486898D01*
X32220423Y-14550026D01*
X32058231Y-14566000D01*
X31949769Y-14566000D01*
X31787577Y-14550026D01*
X31579474Y-14486898D01*
X31387687Y-14384386D01*
X31219577Y-14246423D01*
X31081614Y-14078313D01*
X30979102Y-13886526D01*
X30915974Y-13678423D01*
X30894659Y-13462000D01*
X30915974Y-13245577D01*
X30979102Y-13037474D01*
X31081614Y-12845687D01*
X31130954Y-12785566D01*
X31219577Y-12677577D01*
X31387683Y-12539617D01*
X31387684Y-12539616D01*
X31387687Y-12539614D01*
X31579474Y-12437102D01*
X31787577Y-12373974D01*
X31949769Y-12358000D01*
X32058231Y-12358000D01*
X32220423Y-12373974D01*
X32220423Y-12373974D01*
G37*
G36*
X27140423Y-12373974D02*
X27348526Y-12437102D01*
X27540313Y-12539614D01*
X27540316Y-12539616D01*
X27540317Y-12539617D01*
X27708423Y-12677577D01*
X27797047Y-12785566D01*
X27846386Y-12845687D01*
X27948898Y-13037474D01*
X28012026Y-13245577D01*
X28033341Y-13462000D01*
X28012026Y-13678423D01*
X27948898Y-13886526D01*
X27846386Y-14078313D01*
X27708423Y-14246423D01*
X27540313Y-14384386D01*
X27348526Y-14486898D01*
X27140423Y-14550026D01*
X26978231Y-14566000D01*
X26869769Y-14566000D01*
X26707577Y-14550026D01*
X26499474Y-14486898D01*
X26307687Y-14384386D01*
X26139577Y-14246423D01*
X26001614Y-14078313D01*
X25899102Y-13886526D01*
X25835974Y-13678423D01*
X25814659Y-13462000D01*
X25835974Y-13245577D01*
X25899102Y-13037474D01*
X26001614Y-12845687D01*
X26050954Y-12785566D01*
X26139577Y-12677577D01*
X26307683Y-12539617D01*
X26307684Y-12539616D01*
X26307687Y-12539614D01*
X26499474Y-12437102D01*
X26707577Y-12373974D01*
X26869769Y-12358000D01*
X26978231Y-12358000D01*
X27140423Y-12373974D01*
X27140423Y-12373974D01*
G37*
G36*
X24600423Y-12373974D02*
X24808526Y-12437102D01*
X25000313Y-12539614D01*
X25000316Y-12539616D01*
X25000317Y-12539617D01*
X25168423Y-12677577D01*
X25257047Y-12785566D01*
X25306386Y-12845687D01*
X25408898Y-13037474D01*
X25472026Y-13245577D01*
X25493341Y-13462000D01*
X25472026Y-13678423D01*
X25408898Y-13886526D01*
X25306386Y-14078313D01*
X25168423Y-14246423D01*
X25000313Y-14384386D01*
X24808526Y-14486898D01*
X24600423Y-14550026D01*
X24438231Y-14566000D01*
X24329769Y-14566000D01*
X24167577Y-14550026D01*
X23959474Y-14486898D01*
X23767687Y-14384386D01*
X23599577Y-14246423D01*
X23461614Y-14078313D01*
X23359102Y-13886526D01*
X23295974Y-13678423D01*
X23274659Y-13462000D01*
X23295974Y-13245577D01*
X23359102Y-13037474D01*
X23461614Y-12845687D01*
X23510954Y-12785566D01*
X23599577Y-12677577D01*
X23767683Y-12539617D01*
X23767684Y-12539616D01*
X23767687Y-12539614D01*
X23959474Y-12437102D01*
X24167577Y-12373974D01*
X24329769Y-12358000D01*
X24438231Y-12358000D01*
X24600423Y-12373974D01*
X24600423Y-12373974D01*
G37*
G36*
X22060423Y-12373974D02*
X22268526Y-12437102D01*
X22460313Y-12539614D01*
X22460316Y-12539616D01*
X22460317Y-12539617D01*
X22628423Y-12677577D01*
X22717047Y-12785566D01*
X22766386Y-12845687D01*
X22868898Y-13037474D01*
X22932026Y-13245577D01*
X22953341Y-13462000D01*
X22932026Y-13678423D01*
X22868898Y-13886526D01*
X22766386Y-14078313D01*
X22628423Y-14246423D01*
X22460313Y-14384386D01*
X22268526Y-14486898D01*
X22060423Y-14550026D01*
X21898231Y-14566000D01*
X21789769Y-14566000D01*
X21627577Y-14550026D01*
X21419474Y-14486898D01*
X21227687Y-14384386D01*
X21059577Y-14246423D01*
X20921614Y-14078313D01*
X20819102Y-13886526D01*
X20755974Y-13678423D01*
X20734659Y-13462000D01*
X20755974Y-13245577D01*
X20819102Y-13037474D01*
X20921614Y-12845687D01*
X20970954Y-12785566D01*
X21059577Y-12677577D01*
X21227683Y-12539617D01*
X21227684Y-12539616D01*
X21227687Y-12539614D01*
X21419474Y-12437102D01*
X21627577Y-12373974D01*
X21789769Y-12358000D01*
X21898231Y-12358000D01*
X22060423Y-12373974D01*
X22060423Y-12373974D01*
G37*
G36*
X20408000Y-14566000D02*
X18200000Y-14566000D01*
X18200000Y-12358000D01*
X20408000Y-12358000D01*
X20408000Y-14566000D01*
X20408000Y-14566000D01*
G37*
G36*
X37942632Y-11244161D02*
X37996885Y-11260618D01*
X38046873Y-11287337D01*
X38090697Y-11323303D01*
X38126663Y-11367127D01*
X38153382Y-11417115D01*
X38169839Y-11471368D01*
X38176000Y-11533922D01*
X38176000Y-12850078D01*
X38169839Y-12912632D01*
X38153382Y-12966885D01*
X38126663Y-13016873D01*
X38090697Y-13060697D01*
X38046873Y-13096663D01*
X37996885Y-13123382D01*
X37942632Y-13139839D01*
X37880078Y-13146000D01*
X36813922Y-13146000D01*
X36751368Y-13139839D01*
X36697115Y-13123382D01*
X36647127Y-13096663D01*
X36603303Y-13060697D01*
X36567337Y-13016873D01*
X36540618Y-12966885D01*
X36524161Y-12912632D01*
X36518000Y-12850078D01*
X36518000Y-11533922D01*
X36524161Y-11471368D01*
X36540618Y-11417115D01*
X36567337Y-11367127D01*
X36603303Y-11323303D01*
X36647127Y-11287337D01*
X36697115Y-11260618D01*
X36751368Y-11244161D01*
X36813922Y-11238000D01*
X37880078Y-11238000D01*
X37942632Y-11244161D01*
X37942632Y-11244161D01*
G37*
G36*
X35892632Y-11244161D02*
X35946885Y-11260618D01*
X35996873Y-11287337D01*
X36040697Y-11323303D01*
X36076663Y-11367127D01*
X36103382Y-11417115D01*
X36119839Y-11471368D01*
X36126000Y-11533922D01*
X36126000Y-12850078D01*
X36119839Y-12912632D01*
X36103382Y-12966885D01*
X36076663Y-13016873D01*
X36040697Y-13060697D01*
X35996873Y-13096663D01*
X35946885Y-13123382D01*
X35892632Y-13139839D01*
X35830078Y-13146000D01*
X34763922Y-13146000D01*
X34701368Y-13139839D01*
X34647115Y-13123382D01*
X34597127Y-13096663D01*
X34553303Y-13060697D01*
X34517337Y-13016873D01*
X34490618Y-12966885D01*
X34474161Y-12912632D01*
X34468000Y-12850078D01*
X34468000Y-11533922D01*
X34474161Y-11471368D01*
X34490618Y-11417115D01*
X34517337Y-11367127D01*
X34553303Y-11323303D01*
X34597127Y-11287337D01*
X34647115Y-11260618D01*
X34701368Y-11244161D01*
X34763922Y-11238000D01*
X35830078Y-11238000D01*
X35892632Y-11244161D01*
X35892632Y-11244161D01*
G37*
G36*
X32220423Y-9833974D02*
X32428526Y-9897102D01*
X32620313Y-9999614D01*
X32788423Y-10137577D01*
X32926386Y-10305687D01*
X33028898Y-10497474D01*
X33092026Y-10705577D01*
X33113341Y-10922000D01*
X33092026Y-11138423D01*
X33028898Y-11346526D01*
X32926386Y-11538313D01*
X32926384Y-11538316D01*
X32926383Y-11538317D01*
X32840164Y-11643376D01*
X32788423Y-11706423D01*
X32620313Y-11844386D01*
X32428526Y-11946898D01*
X32220423Y-12010026D01*
X32058231Y-12026000D01*
X31949769Y-12026000D01*
X31787577Y-12010026D01*
X31579474Y-11946898D01*
X31387687Y-11844386D01*
X31219577Y-11706423D01*
X31167836Y-11643376D01*
X31081617Y-11538317D01*
X31081616Y-11538316D01*
X31081614Y-11538313D01*
X30979102Y-11346526D01*
X30915974Y-11138423D01*
X30894659Y-10922000D01*
X30915974Y-10705577D01*
X30979102Y-10497474D01*
X31081614Y-10305687D01*
X31219577Y-10137577D01*
X31387687Y-9999614D01*
X31579474Y-9897102D01*
X31787577Y-9833974D01*
X31949769Y-9818000D01*
X32058231Y-9818000D01*
X32220423Y-9833974D01*
X32220423Y-9833974D01*
G37*
G36*
X29680423Y-9833974D02*
X29888526Y-9897102D01*
X30080313Y-9999614D01*
X30248423Y-10137577D01*
X30386386Y-10305687D01*
X30488898Y-10497474D01*
X30552026Y-10705577D01*
X30573341Y-10922000D01*
X30552026Y-11138423D01*
X30488898Y-11346526D01*
X30386386Y-11538313D01*
X30386384Y-11538316D01*
X30386383Y-11538317D01*
X30300164Y-11643376D01*
X30248423Y-11706423D01*
X30080313Y-11844386D01*
X29888526Y-11946898D01*
X29680423Y-12010026D01*
X29518231Y-12026000D01*
X29409769Y-12026000D01*
X29247577Y-12010026D01*
X29039474Y-11946898D01*
X28847687Y-11844386D01*
X28679577Y-11706423D01*
X28627836Y-11643376D01*
X28541617Y-11538317D01*
X28541616Y-11538316D01*
X28541614Y-11538313D01*
X28439102Y-11346526D01*
X28375974Y-11138423D01*
X28354659Y-10922000D01*
X28375974Y-10705577D01*
X28439102Y-10497474D01*
X28541614Y-10305687D01*
X28679577Y-10137577D01*
X28847687Y-9999614D01*
X29039474Y-9897102D01*
X29247577Y-9833974D01*
X29409769Y-9818000D01*
X29518231Y-9818000D01*
X29680423Y-9833974D01*
X29680423Y-9833974D01*
G37*
G36*
X27140423Y-9833974D02*
X27348526Y-9897102D01*
X27540313Y-9999614D01*
X27708423Y-10137577D01*
X27846386Y-10305687D01*
X27948898Y-10497474D01*
X28012026Y-10705577D01*
X28033341Y-10922000D01*
X28012026Y-11138423D01*
X27948898Y-11346526D01*
X27846386Y-11538313D01*
X27846384Y-11538316D01*
X27846383Y-11538317D01*
X27760164Y-11643376D01*
X27708423Y-11706423D01*
X27540313Y-11844386D01*
X27348526Y-11946898D01*
X27140423Y-12010026D01*
X26978231Y-12026000D01*
X26869769Y-12026000D01*
X26707577Y-12010026D01*
X26499474Y-11946898D01*
X26307687Y-11844386D01*
X26139577Y-11706423D01*
X26087836Y-11643376D01*
X26001617Y-11538317D01*
X26001616Y-11538316D01*
X26001614Y-11538313D01*
X25899102Y-11346526D01*
X25835974Y-11138423D01*
X25814659Y-10922000D01*
X25835974Y-10705577D01*
X25899102Y-10497474D01*
X26001614Y-10305687D01*
X26139577Y-10137577D01*
X26307687Y-9999614D01*
X26499474Y-9897102D01*
X26707577Y-9833974D01*
X26869769Y-9818000D01*
X26978231Y-9818000D01*
X27140423Y-9833974D01*
X27140423Y-9833974D01*
G37*
G36*
X24600423Y-9833974D02*
X24808526Y-9897102D01*
X25000313Y-9999614D01*
X25168423Y-10137577D01*
X25306386Y-10305687D01*
X25408898Y-10497474D01*
X25472026Y-10705577D01*
X25493341Y-10922000D01*
X25472026Y-11138423D01*
X25408898Y-11346526D01*
X25306386Y-11538313D01*
X25306384Y-11538316D01*
X25306383Y-11538317D01*
X25220164Y-11643376D01*
X25168423Y-11706423D01*
X25000313Y-11844386D01*
X24808526Y-11946898D01*
X24600423Y-12010026D01*
X24438231Y-12026000D01*
X24329769Y-12026000D01*
X24167577Y-12010026D01*
X23959474Y-11946898D01*
X23767687Y-11844386D01*
X23599577Y-11706423D01*
X23547836Y-11643376D01*
X23461617Y-11538317D01*
X23461616Y-11538316D01*
X23461614Y-11538313D01*
X23359102Y-11346526D01*
X23295974Y-11138423D01*
X23274659Y-10922000D01*
X23295974Y-10705577D01*
X23359102Y-10497474D01*
X23461614Y-10305687D01*
X23599577Y-10137577D01*
X23767687Y-9999614D01*
X23959474Y-9897102D01*
X24167577Y-9833974D01*
X24329769Y-9818000D01*
X24438231Y-9818000D01*
X24600423Y-9833974D01*
X24600423Y-9833974D01*
G37*
G36*
X22060423Y-9833974D02*
X22268526Y-9897102D01*
X22460313Y-9999614D01*
X22628423Y-10137577D01*
X22766386Y-10305687D01*
X22868898Y-10497474D01*
X22932026Y-10705577D01*
X22953341Y-10922000D01*
X22932026Y-11138423D01*
X22868898Y-11346526D01*
X22766386Y-11538313D01*
X22766384Y-11538316D01*
X22766383Y-11538317D01*
X22680164Y-11643376D01*
X22628423Y-11706423D01*
X22460313Y-11844386D01*
X22268526Y-11946898D01*
X22060423Y-12010026D01*
X21898231Y-12026000D01*
X21789769Y-12026000D01*
X21627577Y-12010026D01*
X21419474Y-11946898D01*
X21227687Y-11844386D01*
X21059577Y-11706423D01*
X21007836Y-11643376D01*
X20921617Y-11538317D01*
X20921616Y-11538316D01*
X20921614Y-11538313D01*
X20819102Y-11346526D01*
X20755974Y-11138423D01*
X20734659Y-10922000D01*
X20755974Y-10705577D01*
X20819102Y-10497474D01*
X20921614Y-10305687D01*
X21059577Y-10137577D01*
X21227687Y-9999614D01*
X21419474Y-9897102D01*
X21627577Y-9833974D01*
X21789769Y-9818000D01*
X21898231Y-9818000D01*
X22060423Y-9833974D01*
X22060423Y-9833974D01*
G37*
G36*
X19520423Y-9833974D02*
X19728526Y-9897102D01*
X19920313Y-9999614D01*
X20088423Y-10137577D01*
X20226386Y-10305687D01*
X20328898Y-10497474D01*
X20392026Y-10705577D01*
X20413341Y-10922000D01*
X20392026Y-11138423D01*
X20328898Y-11346526D01*
X20226386Y-11538313D01*
X20226384Y-11538316D01*
X20226383Y-11538317D01*
X20140164Y-11643376D01*
X20088423Y-11706423D01*
X19920313Y-11844386D01*
X19728526Y-11946898D01*
X19520423Y-12010026D01*
X19358231Y-12026000D01*
X19249769Y-12026000D01*
X19087577Y-12010026D01*
X18879474Y-11946898D01*
X18687687Y-11844386D01*
X18519577Y-11706423D01*
X18467836Y-11643376D01*
X18381617Y-11538317D01*
X18381616Y-11538316D01*
X18381614Y-11538313D01*
X18279102Y-11346526D01*
X18215974Y-11138423D01*
X18194659Y-10922000D01*
X18215974Y-10705577D01*
X18279102Y-10497474D01*
X18381614Y-10305687D01*
X18519577Y-10137577D01*
X18687687Y-9999614D01*
X18879474Y-9897102D01*
X19087577Y-9833974D01*
X19249769Y-9818000D01*
X19358231Y-9818000D01*
X19520423Y-9833974D01*
X19520423Y-9833974D01*
G37*
G36*
X45668965Y-636888D02*
X46000202Y-702775D01*
X46258686Y-809843D01*
X46624239Y-961259D01*
X47185863Y-1336524D01*
X47663476Y-1814137D01*
X48038741Y-2375761D01*
X48297225Y-2999799D01*
X48429000Y-3662272D01*
X48429000Y-4337728D01*
X48297225Y-5000201D01*
X48038741Y-5624239D01*
X47663476Y-6185863D01*
X47185863Y-6663476D01*
X46624239Y-7038741D01*
X46258686Y-7190157D01*
X46000202Y-7297225D01*
X45668965Y-7363112D01*
X45337728Y-7429000D01*
X44662272Y-7429000D01*
X44331035Y-7363112D01*
X43999798Y-7297225D01*
X43741314Y-7190157D01*
X43375761Y-7038741D01*
X42814137Y-6663476D01*
X42336524Y-6185863D01*
X41961259Y-5624239D01*
X41702775Y-5000201D01*
X41571000Y-4337728D01*
X41571000Y-3662272D01*
X41702775Y-2999799D01*
X41961259Y-2375761D01*
X42336524Y-1814137D01*
X42814137Y-1336524D01*
X43375761Y-961259D01*
X43741314Y-809843D01*
X43999798Y-702775D01*
X44331035Y-636888D01*
X44662272Y-571000D01*
X45337728Y-571000D01*
X45668965Y-636888D01*
X45668965Y-636888D01*
G37*
G36*
X4668964Y-636887D02*
X5000202Y-702775D01*
X5258686Y-809843D01*
X5624239Y-961259D01*
X6185863Y-1336524D01*
X6663476Y-1814137D01*
X7038741Y-2375761D01*
X7297225Y-2999799D01*
X7429000Y-3662272D01*
X7429000Y-4337728D01*
X7297225Y-5000201D01*
X7038741Y-5624239D01*
X6663476Y-6185863D01*
X6185863Y-6663476D01*
X5624239Y-7038741D01*
X5258686Y-7190157D01*
X5000202Y-7297225D01*
X4668965Y-7363112D01*
X4337728Y-7429000D01*
X3662272Y-7429000D01*
X3331035Y-7363112D01*
X2999798Y-7297225D01*
X2741314Y-7190157D01*
X2375761Y-7038741D01*
X1814137Y-6663476D01*
X1336524Y-6185863D01*
X961259Y-5624239D01*
X702775Y-5000201D01*
X571000Y-4337728D01*
X571000Y-3662272D01*
X702775Y-2999799D01*
X961259Y-2375761D01*
X1336524Y-1814137D01*
X1814137Y-1336524D01*
X2375761Y-961259D01*
X2741314Y-809843D01*
X2999798Y-702775D01*
X3331036Y-636887D01*
X3662272Y-571000D01*
X4337728Y-571000D01*
X4668964Y-636887D01*
X4668964Y-636887D01*
G37*
M02*
