%TF.GenerationSoftware,KiCad,Pcbnew,(6.0.1)*%
%TF.CreationDate,2022-10-04T11:21:56-04:00*%
%TF.ProjectId,ER-PWR-01,45522d50-5752-42d3-9031-2e6b69636164,rev?*%
%TF.SameCoordinates,Original*%
%TF.FileFunction,Soldermask,Top*%
%TF.FilePolarity,Negative*%
%FSLAX46Y46*%
G04 Gerber Fmt 4.6, Leading zero omitted, Abs format (unit mm)*
G04 Created by KiCad (PCBNEW (6.0.1)) date 2022-10-04 11:21:56*
%MOMM*%
%LPD*%
G01*
G04 APERTURE LIST*
G04 Aperture macros list*
%AMRoundRect*
0 Rectangle with rounded corners*
0 $1 Rounding radius*
0 $2 $3 $4 $5 $6 $7 $8 $9 X,Y pos of 4 corners*
0 Add a 4 corners polygon primitive as box body*
4,1,4,$2,$3,$4,$5,$6,$7,$8,$9,$2,$3,0*
0 Add four circle primitives for the rounded corners*
1,1,$1+$1,$2,$3*
1,1,$1+$1,$4,$5*
1,1,$1+$1,$6,$7*
1,1,$1+$1,$8,$9*
0 Add four rect primitives between the rounded corners*
20,1,$1+$1,$2,$3,$4,$5,0*
20,1,$1+$1,$4,$5,$6,$7,0*
20,1,$1+$1,$6,$7,$8,$9,0*
20,1,$1+$1,$8,$9,$2,$3,0*%
G04 Aperture macros list end*
%ADD10C,6.350000*%
%ADD11RoundRect,0.250000X0.600000X0.600000X-0.600000X0.600000X-0.600000X-0.600000X0.600000X-0.600000X0*%
%ADD12C,1.700000*%
%ADD13R,3.000000X3.000000*%
%ADD14C,3.000000*%
G04 APERTURE END LIST*
D10*
%TO.C,MTG1*%
X94000000Y-83000000D03*
%TD*%
D11*
%TO.C,J7*%
X169000000Y-72500000D03*
D12*
X166460000Y-72500000D03*
X169000000Y-69960000D03*
X166460000Y-69960000D03*
X169000000Y-67420000D03*
X166460000Y-67420000D03*
X169000000Y-64880000D03*
X166460000Y-64880000D03*
X169000000Y-62340000D03*
X166460000Y-62340000D03*
X169000000Y-59800000D03*
X166460000Y-59800000D03*
X169000000Y-57260000D03*
X166460000Y-57260000D03*
X169000000Y-54720000D03*
X166460000Y-54720000D03*
%TD*%
D13*
%TO.C,J8*%
X180000000Y-51300000D03*
D14*
X180000000Y-56380000D03*
X180000000Y-61460000D03*
X180000000Y-66540000D03*
X180000000Y-71620000D03*
X180000000Y-76700000D03*
%TD*%
D11*
%TO.C,J2*%
X109000000Y-72500000D03*
D12*
X106460000Y-72500000D03*
X109000000Y-69960000D03*
X106460000Y-69960000D03*
X109000000Y-67420000D03*
X106460000Y-67420000D03*
X109000000Y-64880000D03*
X106460000Y-64880000D03*
X109000000Y-62340000D03*
X106460000Y-62340000D03*
X109000000Y-59800000D03*
X106460000Y-59800000D03*
X109000000Y-57260000D03*
X106460000Y-57260000D03*
X109000000Y-54720000D03*
X106460000Y-54720000D03*
%TD*%
D11*
%TO.C,J6*%
X157000000Y-72500000D03*
D12*
X154460000Y-72500000D03*
X157000000Y-69960000D03*
X154460000Y-69960000D03*
X157000000Y-67420000D03*
X154460000Y-67420000D03*
X157000000Y-64880000D03*
X154460000Y-64880000D03*
X157000000Y-62340000D03*
X154460000Y-62340000D03*
X157000000Y-59800000D03*
X154460000Y-59800000D03*
X157000000Y-57260000D03*
X154460000Y-57260000D03*
X157000000Y-54720000D03*
X154460000Y-54720000D03*
%TD*%
D11*
%TO.C,J5*%
X145000000Y-72500000D03*
D12*
X142460000Y-72500000D03*
X145000000Y-69960000D03*
X142460000Y-69960000D03*
X145000000Y-67420000D03*
X142460000Y-67420000D03*
X145000000Y-64880000D03*
X142460000Y-64880000D03*
X145000000Y-62340000D03*
X142460000Y-62340000D03*
X145000000Y-59800000D03*
X142460000Y-59800000D03*
X145000000Y-57260000D03*
X142460000Y-57260000D03*
X145000000Y-54720000D03*
X142460000Y-54720000D03*
%TD*%
D11*
%TO.C,J1*%
X97000000Y-72500000D03*
D12*
X94460000Y-72500000D03*
X97000000Y-69960000D03*
X94460000Y-69960000D03*
X97000000Y-67420000D03*
X94460000Y-67420000D03*
X97000000Y-64880000D03*
X94460000Y-64880000D03*
X97000000Y-62340000D03*
X94460000Y-62340000D03*
X97000000Y-59800000D03*
X94460000Y-59800000D03*
X97000000Y-57260000D03*
X94460000Y-57260000D03*
X97000000Y-54720000D03*
X94460000Y-54720000D03*
%TD*%
D10*
%TO.C,MTG3*%
X94000000Y-44000000D03*
%TD*%
D11*
%TO.C,J4*%
X133000000Y-72500000D03*
D12*
X130460000Y-72500000D03*
X133000000Y-69960000D03*
X130460000Y-69960000D03*
X133000000Y-67420000D03*
X130460000Y-67420000D03*
X133000000Y-64880000D03*
X130460000Y-64880000D03*
X133000000Y-62340000D03*
X130460000Y-62340000D03*
X133000000Y-59800000D03*
X130460000Y-59800000D03*
X133000000Y-57260000D03*
X130460000Y-57260000D03*
X133000000Y-54720000D03*
X130460000Y-54720000D03*
%TD*%
D11*
%TO.C,J3*%
X121000000Y-72500000D03*
D12*
X118460000Y-72500000D03*
X121000000Y-69960000D03*
X118460000Y-69960000D03*
X121000000Y-67420000D03*
X118460000Y-67420000D03*
X121000000Y-64880000D03*
X118460000Y-64880000D03*
X121000000Y-62340000D03*
X118460000Y-62340000D03*
X121000000Y-59800000D03*
X118460000Y-59800000D03*
X121000000Y-57260000D03*
X118460000Y-57260000D03*
X121000000Y-54720000D03*
X118460000Y-54720000D03*
%TD*%
D10*
%TO.C,MTG2*%
X186000000Y-83000000D03*
%TD*%
%TO.C,MTG4*%
X186000000Y-44000000D03*
%TD*%
M02*
