0
SECTION
2
HEADER
9
$ANGBASE
50
0.0
9
$ANGDIR
70
0
0
ENDSEC
0
SECTION
2
TABLES
0
TABLE
2
LTYPE
70
1
0
LTYPE
2
CONTINUOUS
70
0
3
Solid line
72
65
73
0
40
0.0
0
ENDTAB
0
TABLE
2
LAYER
70
24
0
LAYER
2
BLACK
70
0
62
1
6
CONTINUOUS
0
LAYER
2
BLUE
70
0
62
2
6
CONTINUOUS
0
LAYER
2
GREEN
70
0
62
3
6
CONTINUOUS
0
LAYER
2
CYAN
70
0
62
4
6
CONTINUOUS
0
LAYER
2
RED
70
0
62
5
6
CONTINUOUS
0
LAYER
2
MAGENTA
70
0
62
6
6
CONTINUOUS
0
LAYER
2
BROWN
70
0
62
7
6
CONTINUOUS
0
LAYER
2
GRAY
70
0
62
8
6
CONTINUOUS
0
LAYER
2
DARKGRAY
70
0
62
9
6
CONTINUOUS
0
LAYER
2
LIGHTBLUE
70
0
62
10
6
CONTINUOUS
0
LAYER
2
LIGHTGREEN
70
0
62
11
6
CONTINUOUS
0
LAYER
2
LIGHTCYAN
70
0
62
12
6
CONTINUOUS
0
LAYER
2
LIGHTRED
70
0
62
13
6
CONTINUOUS
0
LAYER
2
LIGHTMAGENTA
70
0
62
14
6
CONTINUOUS
0
LAYER
2
YELLOW
70
0
62
15
6
CONTINUOUS
0
LAYER
2
WHITE
70
0
62
16
6
CONTINUOUS
0
LAYER
2
DARKDARKGRAY
70
0
62
17
6
CONTINUOUS
0
LAYER
2
DARKBLUE
70
0
62
18
6
CONTINUOUS
0
LAYER
2
DARKGREEN
70
0
62
19
6
CONTINUOUS
0
LAYER
2
DARKCYAN
70
0
62
20
6
CONTINUOUS
0
LAYER
2
DARKRED
70
0
62
21
6
CONTINUOUS
0
LAYER
2
DARKMAGENTA
70
0
62
22
6
CONTINUOUS
0
LAYER
2
DARKBROWN
70
0
62
23
6
CONTINUOUS
0
LAYER
2
LIGHTYELLOW
70
0
62
24
6
CONTINUOUS
0
ENDTAB
0
ENDSEC
0
SECTION
2
ENTITIES
0
LINE
8
BLACK
10
64350.0
20
56645.0
11
82750.0
21
56645.0
0
LINE
8
BLACK
10
64350.0
20
56795.0
11
82750.0
21
56795.0
0
ARC
8
BLACK
10
82750.0
20
56720.0
40
75.0
50
270.0
51
450.0
0
ARC
8
BLACK
10
64350.0
20
56720.0
40
75.0
50
90.0
51
270.0
0
LINE
8
BLACK
10
84225.0
20
48220.0
11
84225.0
21
55270.0
0
LINE
8
BLACK
10
84075.0
20
48220.0
11
84075.0
21
55270.0
0
ARC
8
BLACK
10
84150.0
20
55270.0
40
75.0
50
360.0
51
540.0
0
ARC
8
BLACK
10
84150.0
20
48220.0
40
75.0
50
180.0
51
360.0
0
LINE
8
BLACK
10
63050.0
20
46645.0
11
82800.0
21
46645.0
0
LINE
8
BLACK
10
63050.0
20
46795.0
11
82800.0
21
46795.0
0
ARC
8
BLACK
10
82800.0
20
46720.0
40
75.0
50
270.0
51
450.0
0
ARC
8
BLACK
10
63050.0
20
46720.0
40
75.0
50
90.0
51
270.0
0
LINE
8
BLACK
10
62875.0
20
46970.0
11
62875.0
21
55420.0
0
LINE
8
BLACK
10
62725.0
20
46970.0
11
62725.0
21
55420.0
0
ARC
8
BLACK
10
62800.0
20
55420.0
40
75.0
50
360.0
51
540.0
0
ARC
8
BLACK
10
62800.0
20
46970.0
40
75.0
50
180.0
51
360.0
0
ARC
8
BLACK
10
82700.0
20
48170.0
40
1453.0
50
-86.0
51
3.0
0
ARC
8
BLACK
10
64250.0
20
55270.0
40
1453.0
50
86.0
51
176.0
0
ARC
8
BLACK
10
82700.0
20
55270.0
40
1450.0
50
0.0
51
90.0
0
ARC
8
BLACK
10
63050.0
20
46970.0
40
250.0
50
-180.0
51
-90.0
0
LINE
8
BLACK
10
63948.0
20
48341.0
11
63948.0
21
48579.0
0
LINE
8
BLACK
10
63948.0
20
48579.0
11
64448.0
21
48579.0
0
LINE
8
BLACK
10
64210.0
20
48174.0
11
64210.0
21
48007.0
0
LINE
8
BLACK
10
63948.0
20
47936.0
11
63948.0
21
48174.0
0
LINE
8
BLACK
10
63948.0
20
48174.0
11
64448.0
21
48174.0
0
LINE
8
BLACK
10
64448.0
20
48174.0
11
64448.0
21
47936.0
0
LINE
8
BLACK
10
63948.0
20
47722.0
11
64448.0
21
47722.0
0
LINE
8
BLACK
10
64448.0
20
47722.0
11
64448.0
21
47603.0
0
LINE
8
BLACK
10
64448.0
20
47603.0
11
64424.0
21
47531.0
0
LINE
8
BLACK
10
64424.0
20
47531.0
11
64376.0
21
47484.0
0
LINE
8
BLACK
10
64376.0
20
47484.0
11
64329.0
21
47460.0
0
LINE
8
BLACK
10
64329.0
20
47460.0
11
64233.0
21
47436.0
0
LINE
8
BLACK
10
64233.0
20
47436.0
11
64162.0
21
47436.0
0
LINE
8
BLACK
10
64162.0
20
47436.0
11
64067.0
21
47460.0
0
LINE
8
BLACK
10
64067.0
20
47460.0
11
64019.0
21
47484.0
0
LINE
8
BLACK
10
64019.0
20
47484.0
11
63971.0
21
47531.0
0
LINE
8
BLACK
10
63971.0
20
47531.0
11
63948.0
21
47603.0
0
LINE
8
BLACK
10
63948.0
20
47603.0
11
63948.0
21
47722.0
0
LINE
8
BLACK
10
63270.0
20
49092.0
11
63270.0
21
48854.0
0
LINE
8
BLACK
10
63128.0
20
49139.0
11
63628.0
21
48973.0
0
LINE
8
BLACK
10
63628.0
20
48973.0
11
63128.0
21
48806.0
0
LINE
8
BLACK
10
63270.0
20
48663.0
11
63270.0
21
48425.0
0
LINE
8
BLACK
10
63128.0
20
48710.0
11
63628.0
21
48544.0
0
LINE
8
BLACK
10
63628.0
20
48544.0
11
63128.0
21
48377.0
0
LINE
8
BLACK
10
63628.0
20
47996.0
11
63628.0
21
48091.0
0
LINE
8
BLACK
10
63628.0
20
48091.0
11
63604.0
21
48139.0
0
LINE
8
BLACK
10
63604.0
20
48139.0
11
63580.0
21
48162.0
0
LINE
8
BLACK
10
63580.0
20
48162.0
11
63509.0
21
48210.0
0
LINE
8
BLACK
10
63509.0
20
48210.0
11
63413.0
21
48234.0
0
LINE
8
BLACK
10
63413.0
20
48234.0
11
63223.0
21
48234.0
0
LINE
8
BLACK
10
63223.0
20
48234.0
11
63175.0
21
48210.0
0
LINE
8
BLACK
10
63175.0
20
48210.0
11
63151.0
21
48186.0
0
LINE
8
BLACK
10
63151.0
20
48186.0
11
63128.0
21
48139.0
0
LINE
8
BLACK
10
63128.0
20
48139.0
11
63128.0
21
48043.0
0
LINE
8
BLACK
10
63128.0
20
48043.0
11
63151.0
21
47996.0
0
LINE
8
BLACK
10
63151.0
20
47996.0
11
63175.0
21
47972.0
0
LINE
8
BLACK
10
63175.0
20
47972.0
11
63223.0
21
47948.0
0
LINE
8
BLACK
10
63223.0
20
47948.0
11
63342.0
21
47948.0
0
LINE
8
BLACK
10
63342.0
20
47948.0
11
63390.0
21
47972.0
0
LINE
8
BLACK
10
63390.0
20
47972.0
11
63413.0
21
47996.0
0
LINE
8
BLACK
10
63413.0
20
47996.0
11
63437.0
21
48043.0
0
LINE
8
BLACK
10
63437.0
20
48043.0
11
63437.0
21
48139.0
0
LINE
8
BLACK
10
63437.0
20
48139.0
11
63413.0
21
48186.0
0
LINE
8
BLACK
10
63413.0
20
48186.0
11
63390.0
21
48210.0
0
LINE
8
BLACK
10
63390.0
20
48210.0
11
63342.0
21
48234.0
0
LINE
8
BLACK
10
63128.0
20
47734.0
11
63628.0
21
47734.0
0
LINE
8
BLACK
10
63628.0
20
47734.0
11
63628.0
21
47543.0
0
LINE
8
BLACK
10
63628.0
20
47543.0
11
63604.0
21
47496.0
0
LINE
8
BLACK
10
63604.0
20
47496.0
11
63580.0
21
47472.0
0
LINE
8
BLACK
10
63580.0
20
47472.0
11
63532.0
21
47448.0
0
LINE
8
BLACK
10
63532.0
20
47448.0
11
63461.0
21
47448.0
0
LINE
8
BLACK
10
63461.0
20
47448.0
11
63413.0
21
47472.0
0
LINE
8
BLACK
10
63413.0
20
47472.0
11
63390.0
21
47496.0
0
LINE
8
BLACK
10
63390.0
20
47496.0
11
63366.0
21
47543.0
0
LINE
8
BLACK
10
63366.0
20
47543.0
11
63366.0
21
47734.0
0
LINE
8
BLACK
10
63128.0
20
46948.0
11
63366.0
21
47115.0
0
LINE
8
BLACK
10
63128.0
20
47234.0
11
63628.0
21
47234.0
0
LINE
8
BLACK
10
63628.0
20
47234.0
11
63628.0
21
47043.0
0
LINE
8
BLACK
10
63628.0
20
47043.0
11
63604.0
21
46996.0
0
LINE
8
BLACK
10
63604.0
20
46996.0
11
63580.0
21
46972.0
0
LINE
8
BLACK
10
63580.0
20
46972.0
11
63532.0
21
46948.0
0
LINE
8
BLACK
10
63532.0
20
46948.0
11
63461.0
21
46948.0
0
LINE
8
BLACK
10
63461.0
20
46948.0
11
63413.0
21
46972.0
0
LINE
8
BLACK
10
63413.0
20
46972.0
11
63390.0
21
46996.0
0
LINE
8
BLACK
10
63390.0
20
46996.0
11
63366.0
21
47043.0
0
LINE
8
BLACK
10
63366.0
20
47043.0
11
63366.0
21
47234.0
0
LINE
8
BLACK
10
81472.0
20
56501.0
11
81929.0
21
56501.0
0
LINE
8
BLACK
10
78872.0
20
56351.0
11
79329.0
21
56351.0
0
LINE
8
BLACK
10
79100.0
20
56046.0
11
79100.0
21
56656.0
0
LINE
8
BLACK
10
76943.0
20
46928.0
11
78442.0
21
48427.0
0
LINE
8
BLACK
10
76858.0
20
47013.0
11
78357.0
21
48512.0
0
ARC
8
BLACK
10
78400.0
20
48470.0
40
60.0
50
315.0
51
495.0
0
ARC
8
BLACK
10
76900.0
20
46970.0
40
60.0
50
135.0
51
315.0
0
LINE
8
BLACK
10
78460.0
20
48470.0
11
78460.0
21
48970.0
0
LINE
8
BLACK
10
78340.0
20
48470.0
11
78340.0
21
48970.0
0
ARC
8
BLACK
10
78400.0
20
48970.0
40
60.0
50
360.0
51
540.0
0
ARC
8
BLACK
10
78400.0
20
48470.0
40
60.0
50
180.0
51
360.0
0
LINE
8
BLACK
10
78442.0
20
49013.0
11
77943.0
21
49512.0
0
LINE
8
BLACK
10
78357.0
20
48928.0
11
77858.0
21
49427.0
0
ARC
8
BLACK
10
77900.0
20
49470.0
40
60.0
50
405.0
51
585.0
0
ARC
8
BLACK
10
78400.0
20
48970.0
40
60.0
50
225.0
51
405.0
0
LINE
8
BLACK
10
76900.0
20
49410.0
11
77900.0
21
49410.0
0
LINE
8
BLACK
10
76900.0
20
49530.0
11
77900.0
21
49530.0
0
ARC
8
BLACK
10
77900.0
20
49470.0
40
60.0
50
270.0
51
450.0
0
ARC
8
BLACK
10
76900.0
20
49470.0
40
60.0
50
90.0
51
270.0
0
LINE
8
BLACK
10
76857.0
20
49512.0
11
75858.0
21
48513.0
0
LINE
8
BLACK
10
76942.0
20
49427.0
11
75943.0
21
48428.0
0
ARC
8
BLACK
10
75900.0
20
48470.0
40
60.0
50
135.0
51
315.0
0
ARC
8
BLACK
10
76900.0
20
49470.0
40
60.0
50
-45.0
51
135.0
0
LINE
8
BLACK
10
75960.0
20
47470.0
11
75960.0
21
48470.0
0
LINE
8
BLACK
10
75840.0
20
47470.0
11
75840.0
21
48470.0
0
ARC
8
BLACK
10
75900.0
20
48470.0
40
60.0
50
360.0
51
540.0
0
ARC
8
BLACK
10
75900.0
20
47470.0
40
60.0
50
180.0
51
360.0
0
LINE
8
BLACK
10
75858.0
20
47427.0
11
76357.0
21
46928.0
0
LINE
8
BLACK
10
75943.0
20
47512.0
11
76442.0
21
47013.0
0
ARC
8
BLACK
10
76400.0
20
46970.0
40
60.0
50
225.0
51
405.0
0
ARC
8
BLACK
10
75900.0
20
47470.0
40
60.0
50
45.0
51
225.0
0
LINE
8
BLACK
10
76400.0
20
46910.0
11
76900.0
21
46910.0
0
LINE
8
BLACK
10
76400.0
20
47030.0
11
76900.0
21
47030.0
0
ARC
8
BLACK
10
76900.0
20
46970.0
40
60.0
50
270.0
51
450.0
0
ARC
8
BLACK
10
76400.0
20
46970.0
40
60.0
50
90.0
51
270.0
0
LINE
8
BLACK
10
78107.0
20
52212.0
11
76608.0
21
50713.0
0
LINE
8
BLACK
10
78192.0
20
52127.0
11
76693.0
21
50628.0
0
ARC
8
BLACK
10
76650.0
20
50670.0
40
60.0
50
135.0
51
315.0
0
ARC
8
BLACK
10
78150.0
20
52170.0
40
60.0
50
-45.0
51
135.0
0
LINE
8
BLACK
10
76710.0
20
50170.0
11
76710.0
21
50670.0
0
LINE
8
BLACK
10
76590.0
20
50170.0
11
76590.0
21
50670.0
0
ARC
8
BLACK
10
76650.0
20
50670.0
40
60.0
50
360.0
51
540.0
0
ARC
8
BLACK
10
76650.0
20
50170.0
40
60.0
50
180.0
51
360.0
0
LINE
8
BLACK
10
76608.0
20
50127.0
11
77107.0
21
49628.0
0
LINE
8
BLACK
10
76693.0
20
50212.0
11
77192.0
21
49713.0
0
ARC
8
BLACK
10
77150.0
20
49670.0
40
60.0
50
225.0
51
405.0
0
ARC
8
BLACK
10
76650.0
20
50170.0
40
60.0
50
45.0
51
225.0
0
LINE
8
BLACK
10
77150.0
20
49610.0
11
78150.0
21
49610.0
0
LINE
8
BLACK
10
77150.0
20
49730.0
11
78150.0
21
49730.0
0
ARC
8
BLACK
10
78150.0
20
49670.0
40
60.0
50
270.0
51
450.0
0
ARC
8
BLACK
10
77150.0
20
49670.0
40
60.0
50
90.0
51
270.0
0
LINE
8
BLACK
10
78193.0
20
49628.0
11
79192.0
21
50627.0
0
LINE
8
BLACK
10
78108.0
20
49713.0
11
79107.0
21
50712.0
0
ARC
8
BLACK
10
79150.0
20
50670.0
40
60.0
50
315.0
51
495.0
0
ARC
8
BLACK
10
78150.0
20
49670.0
40
60.0
50
135.0
51
315.0
0
LINE
8
BLACK
10
79210.0
20
50670.0
11
79210.0
21
51670.0
0
LINE
8
BLACK
10
79090.0
20
50670.0
11
79090.0
21
51670.0
0
ARC
8
BLACK
10
79150.0
20
51670.0
40
60.0
50
360.0
51
540.0
0
ARC
8
BLACK
10
79150.0
20
50670.0
40
60.0
50
180.0
51
360.0
0
LINE
8
BLACK
10
79192.0
20
51713.0
11
78693.0
21
52212.0
0
LINE
8
BLACK
10
79107.0
20
51628.0
11
78608.0
21
52127.0
0
ARC
8
BLACK
10
78650.0
20
52170.0
40
60.0
50
405.0
51
585.0
0
ARC
8
BLACK
10
79150.0
20
51670.0
40
60.0
50
225.0
51
405.0
0
LINE
8
BLACK
10
78150.0
20
52110.0
11
78650.0
21
52110.0
0
LINE
8
BLACK
10
78150.0
20
52230.0
11
78650.0
21
52230.0
0
ARC
8
BLACK
10
78650.0
20
52170.0
40
60.0
50
270.0
51
450.0
0
ARC
8
BLACK
10
78150.0
20
52170.0
40
60.0
50
90.0
51
270.0
0
LINE
8
BLACK
10
76843.0
20
51378.0
11
78342.0
21
52877.0
0
LINE
8
BLACK
10
76758.0
20
51463.0
11
78257.0
21
52962.0
0
ARC
8
BLACK
10
78300.0
20
52920.0
40
60.0
50
315.0
51
495.0
0
ARC
8
BLACK
10
76800.0
20
51420.0
40
60.0
50
135.0
51
315.0
0
LINE
8
BLACK
10
78360.0
20
52920.0
11
78360.0
21
53420.0
0
LINE
8
BLACK
10
78240.0
20
52920.0
11
78240.0
21
53420.0
0
ARC
8
BLACK
10
78300.0
20
53420.0
40
60.0
50
360.0
51
540.0
0
ARC
8
BLACK
10
78300.0
20
52920.0
40
60.0
50
180.0
51
360.0
0
LINE
8
BLACK
10
78342.0
20
53463.0
11
77843.0
21
53962.0
0
LINE
8
BLACK
10
78257.0
20
53378.0
11
77758.0
21
53877.0
0
ARC
8
BLACK
10
77800.0
20
53920.0
40
60.0
50
405.0
51
585.0
0
ARC
8
BLACK
10
78300.0
20
53420.0
40
60.0
50
225.0
51
405.0
0
LINE
8
BLACK
10
76800.0
20
53860.0
11
77800.0
21
53860.0
0
LINE
8
BLACK
10
76800.0
20
53980.0
11
77800.0
21
53980.0
0
ARC
8
BLACK
10
77800.0
20
53920.0
40
60.0
50
270.0
51
450.0
0
ARC
8
BLACK
10
76800.0
20
53920.0
40
60.0
50
90.0
51
270.0
0
LINE
8
BLACK
10
76757.0
20
53962.0
11
75758.0
21
52963.0
0
LINE
8
BLACK
10
76842.0
20
53877.0
11
75843.0
21
52878.0
0
ARC
8
BLACK
10
75800.0
20
52920.0
40
60.0
50
135.0
51
315.0
0
ARC
8
BLACK
10
76800.0
20
53920.0
40
60.0
50
-45.0
51
135.0
0
LINE
8
BLACK
10
75860.0
20
51920.0
11
75860.0
21
52920.0
0
LINE
8
BLACK
10
75740.0
20
51920.0
11
75740.0
21
52920.0
0
ARC
8
BLACK
10
75800.0
20
52920.0
40
60.0
50
360.0
51
540.0
0
ARC
8
BLACK
10
75800.0
20
51920.0
40
60.0
50
180.0
51
360.0
0
LINE
8
BLACK
10
75758.0
20
51877.0
11
76257.0
21
51378.0
0
LINE
8
BLACK
10
75843.0
20
51962.0
11
76342.0
21
51463.0
0
ARC
8
BLACK
10
76300.0
20
51420.0
40
60.0
50
225.0
51
405.0
0
ARC
8
BLACK
10
75800.0
20
51920.0
40
60.0
50
45.0
51
225.0
0
LINE
8
BLACK
10
76300.0
20
51360.0
11
76800.0
21
51360.0
0
LINE
8
BLACK
10
76300.0
20
51480.0
11
76800.0
21
51480.0
0
ARC
8
BLACK
10
76800.0
20
51420.0
40
60.0
50
270.0
51
450.0
0
ARC
8
BLACK
10
76300.0
20
51420.0
40
60.0
50
90.0
51
270.0
0
LINE
8
BLACK
10
78107.0
20
56512.0
11
76608.0
21
55013.0
0
LINE
8
BLACK
10
78192.0
20
56427.0
11
76693.0
21
54928.0
0
ARC
8
BLACK
10
76650.0
20
54970.0
40
60.0
50
135.0
51
315.0
0
ARC
8
BLACK
10
78150.0
20
56470.0
40
60.0
50
-45.0
51
135.0
0
LINE
8
BLACK
10
76710.0
20
54470.0
11
76710.0
21
54970.0
0
LINE
8
BLACK
10
76590.0
20
54470.0
11
76590.0
21
54970.0
0
ARC
8
BLACK
10
76650.0
20
54970.0
40
60.0
50
360.0
51
540.0
0
ARC
8
BLACK
10
76650.0
20
54470.0
40
60.0
50
180.0
51
360.0
0
LINE
8
BLACK
10
76608.0
20
54427.0
11
77107.0
21
53928.0
0
LINE
8
BLACK
10
76693.0
20
54512.0
11
77192.0
21
54013.0
0
ARC
8
BLACK
10
77150.0
20
53970.0
40
60.0
50
225.0
51
405.0
0
ARC
8
BLACK
10
76650.0
20
54470.0
40
60.0
50
45.0
51
225.0
0
LINE
8
BLACK
10
77150.0
20
53910.0
11
78150.0
21
53910.0
0
LINE
8
BLACK
10
77150.0
20
54030.0
11
78150.0
21
54030.0
0
ARC
8
BLACK
10
78150.0
20
53970.0
40
60.0
50
270.0
51
450.0
0
ARC
8
BLACK
10
77150.0
20
53970.0
40
60.0
50
90.0
51
270.0
0
LINE
8
BLACK
10
78193.0
20
53928.0
11
79192.0
21
54927.0
0
LINE
8
BLACK
10
78108.0
20
54013.0
11
79107.0
21
55012.0
0
ARC
8
BLACK
10
79150.0
20
54970.0
40
60.0
50
315.0
51
495.0
0
ARC
8
BLACK
10
78150.0
20
53970.0
40
60.0
50
135.0
51
315.0
0
LINE
8
BLACK
10
79210.0
20
54970.0
11
79210.0
21
55970.0
0
LINE
8
BLACK
10
79090.0
20
54970.0
11
79090.0
21
55970.0
0
ARC
8
BLACK
10
79150.0
20
55970.0
40
60.0
50
360.0
51
540.0
0
ARC
8
BLACK
10
79150.0
20
54970.0
40
60.0
50
180.0
51
360.0
0
LINE
8
BLACK
10
79192.0
20
56013.0
11
78693.0
21
56512.0
0
LINE
8
BLACK
10
79107.0
20
55928.0
11
78608.0
21
56427.0
0
ARC
8
BLACK
10
78650.0
20
56470.0
40
60.0
50
405.0
51
585.0
0
ARC
8
BLACK
10
79150.0
20
55970.0
40
60.0
50
225.0
51
405.0
0
LINE
8
BLACK
10
78150.0
20
56410.0
11
78650.0
21
56410.0
0
LINE
8
BLACK
10
78150.0
20
56530.0
11
78650.0
21
56530.0
0
ARC
8
BLACK
10
78650.0
20
56470.0
40
60.0
50
270.0
51
450.0
0
ARC
8
BLACK
10
78150.0
20
56470.0
40
60.0
50
90.0
51
270.0
0
LINE
8
BLACK
10
78900.0
20
48310.0
11
80880.0
21
48310.0
0
LINE
8
BLACK
10
78900.0
20
48430.0
11
80880.0
21
48430.0
0
ARC
8
BLACK
10
80880.0
20
48370.0
40
60.0
50
270.0
51
450.0
0
ARC
8
BLACK
10
78900.0
20
48370.0
40
60.0
50
90.0
51
270.0
0
LINE
8
BLACK
10
78960.0
20
48370.0
11
78960.0
21
49370.0
0
LINE
8
BLACK
10
78840.0
20
48370.0
11
78840.0
21
49370.0
0
ARC
8
BLACK
10
78900.0
20
49370.0
40
60.0
50
360.0
51
540.0
0
ARC
8
BLACK
10
78900.0
20
48370.0
40
60.0
50
180.0
51
360.0
0
LINE
8
BLACK
10
78900.0
20
49310.0
11
80900.0
21
49310.0
0
LINE
8
BLACK
10
78900.0
20
49430.0
11
80900.0
21
49430.0
0
ARC
8
BLACK
10
80900.0
20
49370.0
40
60.0
50
270.0
51
450.0
0
ARC
8
BLACK
10
78900.0
20
49370.0
40
60.0
50
90.0
51
270.0
0
LINE
8
BLACK
10
80960.0
20
48370.0
11
80960.0
21
49370.0
0
LINE
8
BLACK
10
80840.0
20
48370.0
11
80840.0
21
49370.0
0
ARC
8
BLACK
10
80900.0
20
49370.0
40
60.0
50
360.0
51
540.0
0
ARC
8
BLACK
10
80900.0
20
48370.0
40
60.0
50
180.0
51
360.0
0
LINE
8
BLACK
10
80857.0
20
48662.0
11
80608.0
21
48413.0
0
LINE
8
BLACK
10
80942.0
20
48577.0
11
80693.0
21
48328.0
0
ARC
8
BLACK
10
80651.0
20
48371.0
40
60.0
50
135.0
51
315.0
0
ARC
8
BLACK
10
80899.0
20
48619.0
40
60.0
50
-45.0
51
135.0
0
LINE
8
BLACK
10
79320.0
20
55160.0
11
81300.0
21
55160.0
0
LINE
8
BLACK
10
79320.0
20
55280.0
11
81300.0
21
55280.0
0
ARC
8
BLACK
10
81300.0
20
55220.0
40
60.0
50
270.0
51
450.0
0
ARC
8
BLACK
10
79320.0
20
55220.0
40
60.0
50
90.0
51
270.0
0
LINE
8
BLACK
10
81360.0
20
54220.0
11
81360.0
21
55220.0
0
LINE
8
BLACK
10
81240.0
20
54220.0
11
81240.0
21
55220.0
0
ARC
8
BLACK
10
81300.0
20
55220.0
40
60.0
50
360.0
51
540.0
0
ARC
8
BLACK
10
81300.0
20
54220.0
40
60.0
50
180.0
51
360.0
0
LINE
8
BLACK
10
79300.0
20
54160.0
11
81300.0
21
54160.0
0
LINE
8
BLACK
10
79300.0
20
54280.0
11
81300.0
21
54280.0
0
ARC
8
BLACK
10
81300.0
20
54220.0
40
60.0
50
270.0
51
450.0
0
ARC
8
BLACK
10
79300.0
20
54220.0
40
60.0
50
90.0
51
270.0
0
LINE
8
BLACK
10
79360.0
20
54220.0
11
79360.0
21
55220.0
0
LINE
8
BLACK
10
79240.0
20
54220.0
11
79240.0
21
55220.0
0
ARC
8
BLACK
10
79300.0
20
55220.0
40
60.0
50
360.0
51
540.0
0
ARC
8
BLACK
10
79300.0
20
54220.0
40
60.0
50
180.0
51
360.0
0
LINE
8
BLACK
10
79343.0
20
54928.0
11
79592.0
21
55177.0
0
LINE
8
BLACK
10
79258.0
20
55013.0
11
79507.0
21
55262.0
0
ARC
8
BLACK
10
79549.0
20
55219.0
40
60.0
50
315.0
51
495.0
0
ARC
8
BLACK
10
79301.0
20
54971.0
40
60.0
50
135.0
51
315.0
0
LINE
8
BLACK
10
82750.0
20
51195.0
11
83250.0
21
51195.0
0
LINE
8
BLACK
10
82750.0
20
51345.0
11
83250.0
21
51345.0
0
ARC
8
BLACK
10
83250.0
20
51270.0
40
75.0
50
270.0
51
450.0
0
ARC
8
BLACK
10
82750.0
20
51270.0
40
75.0
50
90.0
51
270.0
0
LINE
8
BLACK
10
82825.0
20
51270.0
11
82825.0
21
52270.0
0
LINE
8
BLACK
10
82675.0
20
51270.0
11
82675.0
21
52270.0
0
ARC
8
BLACK
10
82750.0
20
52270.0
40
75.0
50
360.0
51
540.0
0
ARC
8
BLACK
10
82750.0
20
51270.0
40
75.0
50
180.0
51
360.0
0
LINE
8
BLACK
10
82750.0
20
52195.0
11
83250.0
21
52195.0
0
LINE
8
BLACK
10
82750.0
20
52345.0
11
83250.0
21
52345.0
0
ARC
8
BLACK
10
83250.0
20
52270.0
40
75.0
50
270.0
51
450.0
0
ARC
8
BLACK
10
82750.0
20
52270.0
40
75.0
50
90.0
51
270.0
0
LINE
8
BLACK
10
79250.0
20
50695.0
11
83250.0
21
50695.0
0
LINE
8
BLACK
10
79250.0
20
50845.0
11
83250.0
21
50845.0
0
ARC
8
BLACK
10
83250.0
20
50770.0
40
75.0
50
270.0
51
450.0
0
ARC
8
BLACK
10
79250.0
20
50770.0
40
75.0
50
90.0
51
270.0
0
LINE
8
BLACK
10
79325.0
20
50770.0
11
79325.0
21
52770.0
0
LINE
8
BLACK
10
79175.0
20
50770.0
11
79175.0
21
52770.0
0
ARC
8
BLACK
10
79250.0
20
52770.0
40
75.0
50
360.0
51
540.0
0
ARC
8
BLACK
10
79250.0
20
50770.0
40
75.0
50
180.0
51
360.0
0
LINE
8
BLACK
10
79250.0
20
52695.0
11
83250.0
21
52695.0
0
LINE
8
BLACK
10
79250.0
20
52845.0
11
83250.0
21
52845.0
0
ARC
8
BLACK
10
83250.0
20
52770.0
40
75.0
50
270.0
51
450.0
0
ARC
8
BLACK
10
79250.0
20
52770.0
40
75.0
50
90.0
51
270.0
0
LINE
8
BLACK
10
83325.0
20
50770.0
11
83325.0
21
52770.0
0
LINE
8
BLACK
10
83175.0
20
50770.0
11
83175.0
21
52770.0
0
ARC
8
BLACK
10
83250.0
20
52770.0
40
75.0
50
360.0
51
540.0
0
ARC
8
BLACK
10
83250.0
20
50770.0
40
75.0
50
180.0
51
360.0
0
LINE
8
BLACK
10
79330.0
20
55470.0
11
79330.0
21
56470.0
0
LINE
8
BLACK
10
79270.0
20
55470.0
11
79270.0
21
56470.0
0
ARC
8
BLACK
10
79300.0
20
56470.0
40
30.0
50
360.0
51
540.0
0
ARC
8
BLACK
10
79300.0
20
55470.0
40
30.0
50
180.0
51
360.0
0
LINE
8
BLACK
10
79300.0
20
56440.0
11
81300.0
21
56440.0
0
LINE
8
BLACK
10
79300.0
20
56500.0
11
81300.0
21
56500.0
0
ARC
8
BLACK
10
81300.0
20
56470.0
40
30.0
50
270.0
51
450.0
0
ARC
8
BLACK
10
79300.0
20
56470.0
40
30.0
50
90.0
51
270.0
0
LINE
8
BLACK
10
81330.0
20
55470.0
11
81330.0
21
56470.0
0
LINE
8
BLACK
10
81270.0
20
55470.0
11
81270.0
21
56470.0
0
ARC
8
BLACK
10
81300.0
20
56470.0
40
30.0
50
360.0
51
540.0
0
ARC
8
BLACK
10
81300.0
20
55470.0
40
30.0
50
180.0
51
360.0
0
LINE
8
BLACK
10
79300.0
20
55440.0
11
81300.0
21
55440.0
0
LINE
8
BLACK
10
79300.0
20
55500.0
11
81300.0
21
55500.0
0
ARC
8
BLACK
10
81300.0
20
55470.0
40
30.0
50
270.0
51
450.0
0
ARC
8
BLACK
10
79300.0
20
55470.0
40
30.0
50
90.0
51
270.0
0
LINE
8
BLACK
10
78330.0
20
46920.0
11
78330.0
21
47920.0
0
LINE
8
BLACK
10
78270.0
20
46920.0
11
78270.0
21
47920.0
0
ARC
8
BLACK
10
78300.0
20
47920.0
40
30.0
50
360.0
51
540.0
0
ARC
8
BLACK
10
78300.0
20
46920.0
40
30.0
50
180.0
51
360.0
0
LINE
8
BLACK
10
78300.0
20
47890.0
11
81300.0
21
47890.0
0
LINE
8
BLACK
10
78300.0
20
47950.0
11
81300.0
21
47950.0
0
ARC
8
BLACK
10
81300.0
20
47920.0
40
30.0
50
270.0
51
450.0
0
ARC
8
BLACK
10
78300.0
20
47920.0
40
30.0
50
90.0
51
270.0
0
LINE
8
BLACK
10
81330.0
20
46920.0
11
81330.0
21
47920.0
0
LINE
8
BLACK
10
81270.0
20
46920.0
11
81270.0
21
47920.0
0
ARC
8
BLACK
10
81300.0
20
47920.0
40
30.0
50
360.0
51
540.0
0
ARC
8
BLACK
10
81300.0
20
46920.0
40
30.0
50
180.0
51
360.0
0
LINE
8
BLACK
10
78300.0
20
46890.0
11
81300.0
21
46890.0
0
LINE
8
BLACK
10
78300.0
20
46950.0
11
81300.0
21
46950.0
0
ARC
8
BLACK
10
81300.0
20
46920.0
40
30.0
50
270.0
51
450.0
0
ARC
8
BLACK
10
78300.0
20
46920.0
40
30.0
50
90.0
51
270.0
0
LINE
8
BLACK
10
79330.0
20
46920.0
11
79330.0
21
47920.0
0
LINE
8
BLACK
10
79270.0
20
46920.0
11
79270.0
21
47920.0
0
ARC
8
BLACK
10
79300.0
20
47920.0
40
30.0
50
360.0
51
540.0
0
ARC
8
BLACK
10
79300.0
20
46920.0
40
30.0
50
180.0
51
360.0
0
LINE
8
BLACK
10
75950.0
20
54860.0
11
76150.0
21
54860.0
0
LINE
8
BLACK
10
75950.0
20
54980.0
11
76150.0
21
54980.0
0
ARC
8
BLACK
10
76150.0
20
54920.0
40
60.0
50
270.0
51
450.0
0
ARC
8
BLACK
10
75950.0
20
54920.0
40
60.0
50
90.0
51
270.0
0
LINE
8
BLACK
10
73150.0
20
54860.0
11
73350.0
21
54860.0
0
LINE
8
BLACK
10
73150.0
20
54980.0
11
73350.0
21
54980.0
0
ARC
8
BLACK
10
73350.0
20
54920.0
40
60.0
50
270.0
51
450.0
0
ARC
8
BLACK
10
73150.0
20
54920.0
40
60.0
50
90.0
51
270.0
0
LINE
8
BLACK
10
73410.0
20
54520.0
11
73410.0
21
54920.0
0
LINE
8
BLACK
10
73290.0
20
54520.0
11
73290.0
21
54920.0
0
ARC
8
BLACK
10
73350.0
20
54920.0
40
60.0
50
360.0
51
540.0
0
ARC
8
BLACK
10
73350.0
20
54520.0
40
60.0
50
180.0
51
360.0
0
LINE
8
BLACK
10
73350.0
20
54460.0
11
75950.0
21
54460.0
0
LINE
8
BLACK
10
73350.0
20
54580.0
11
75950.0
21
54580.0
0
ARC
8
BLACK
10
75950.0
20
54520.0
40
60.0
50
270.0
51
450.0
0
ARC
8
BLACK
10
73350.0
20
54520.0
40
60.0
50
90.0
51
270.0
0
LINE
8
BLACK
10
76010.0
20
54520.0
11
76010.0
21
55320.0
0
LINE
8
BLACK
10
75890.0
20
54520.0
11
75890.0
21
55320.0
0
ARC
8
BLACK
10
75950.0
20
55320.0
40
60.0
50
360.0
51
540.0
0
ARC
8
BLACK
10
75950.0
20
54520.0
40
60.0
50
180.0
51
360.0
0
LINE
8
BLACK
10
73350.0
20
55260.0
11
75950.0
21
55260.0
0
LINE
8
BLACK
10
73350.0
20
55380.0
11
75950.0
21
55380.0
0
ARC
8
BLACK
10
75950.0
20
55320.0
40
60.0
50
270.0
51
450.0
0
ARC
8
BLACK
10
73350.0
20
55320.0
40
60.0
50
90.0
51
270.0
0
LINE
8
BLACK
10
73410.0
20
54920.0
11
73410.0
21
55320.0
0
LINE
8
BLACK
10
73290.0
20
54920.0
11
73290.0
21
55320.0
0
ARC
8
BLACK
10
73350.0
20
55320.0
40
60.0
50
360.0
51
540.0
0
ARC
8
BLACK
10
73350.0
20
54920.0
40
60.0
50
180.0
51
360.0
0
LINE
8
BLACK
10
75907.0
20
54762.0
11
75708.0
21
54563.0
0
LINE
8
BLACK
10
75992.0
20
54677.0
11
75793.0
21
54478.0
0
ARC
8
BLACK
10
75750.0
20
54520.0
40
60.0
50
135.0
51
315.0
0
ARC
8
BLACK
10
75950.0
20
54720.0
40
60.0
50
-45.0
51
135.0
0
LINE
8
BLACK
10
75100.0
20
52260.0
11
75300.0
21
52260.0
0
LINE
8
BLACK
10
75100.0
20
52380.0
11
75300.0
21
52380.0
0
ARC
8
BLACK
10
75300.0
20
52320.0
40
60.0
50
270.0
51
450.0
0
ARC
8
BLACK
10
75100.0
20
52320.0
40
60.0
50
90.0
51
270.0
0
LINE
8
BLACK
10
72300.0
20
52260.0
11
72500.0
21
52260.0
0
LINE
8
BLACK
10
72300.0
20
52380.0
11
72500.0
21
52380.0
0
ARC
8
BLACK
10
72500.0
20
52320.0
40
60.0
50
270.0
51
450.0
0
ARC
8
BLACK
10
72300.0
20
52320.0
40
60.0
50
90.0
51
270.0
0
LINE
8
BLACK
10
72560.0
20
51920.0
11
72560.0
21
52320.0
0
LINE
8
BLACK
10
72440.0
20
51920.0
11
72440.0
21
52320.0
0
ARC
8
BLACK
10
72500.0
20
52320.0
40
60.0
50
360.0
51
540.0
0
ARC
8
BLACK
10
72500.0
20
51920.0
40
60.0
50
180.0
51
360.0
0
LINE
8
BLACK
10
72500.0
20
51860.0
11
75100.0
21
51860.0
0
LINE
8
BLACK
10
72500.0
20
51980.0
11
75100.0
21
51980.0
0
ARC
8
BLACK
10
75100.0
20
51920.0
40
60.0
50
270.0
51
450.0
0
ARC
8
BLACK
10
72500.0
20
51920.0
40
60.0
50
90.0
51
270.0
0
LINE
8
BLACK
10
75160.0
20
51920.0
11
75160.0
21
52720.0
0
LINE
8
BLACK
10
75040.0
20
51920.0
11
75040.0
21
52720.0
0
ARC
8
BLACK
10
75100.0
20
52720.0
40
60.0
50
360.0
51
540.0
0
ARC
8
BLACK
10
75100.0
20
51920.0
40
60.0
50
180.0
51
360.0
0
LINE
8
BLACK
10
72500.0
20
52660.0
11
75100.0
21
52660.0
0
LINE
8
BLACK
10
72500.0
20
52780.0
11
75100.0
21
52780.0
0
ARC
8
BLACK
10
75100.0
20
52720.0
40
60.0
50
270.0
51
450.0
0
ARC
8
BLACK
10
72500.0
20
52720.0
40
60.0
50
90.0
51
270.0
0
LINE
8
BLACK
10
72560.0
20
52320.0
11
72560.0
21
52720.0
0
LINE
8
BLACK
10
72440.0
20
52320.0
11
72440.0
21
52720.0
0
ARC
8
BLACK
10
72500.0
20
52720.0
40
60.0
50
360.0
51
540.0
0
ARC
8
BLACK
10
72500.0
20
52320.0
40
60.0
50
180.0
51
360.0
0
LINE
8
BLACK
10
75057.0
20
52162.0
11
74858.0
21
51963.0
0
LINE
8
BLACK
10
75142.0
20
52077.0
11
74943.0
21
51878.0
0
ARC
8
BLACK
10
74900.0
20
51920.0
40
60.0
50
135.0
51
315.0
0
ARC
8
BLACK
10
75100.0
20
52120.0
40
60.0
50
-45.0
51
135.0
0
LINE
8
BLACK
10
76050.0
20
49810.0
11
76250.0
21
49810.0
0
LINE
8
BLACK
10
76050.0
20
49930.0
11
76250.0
21
49930.0
0
ARC
8
BLACK
10
76250.0
20
49870.0
40
60.0
50
270.0
51
450.0
0
ARC
8
BLACK
10
76050.0
20
49870.0
40
60.0
50
90.0
51
270.0
0
LINE
8
BLACK
10
73250.0
20
49810.0
11
73450.0
21
49810.0
0
LINE
8
BLACK
10
73250.0
20
49930.0
11
73450.0
21
49930.0
0
ARC
8
BLACK
10
73450.0
20
49870.0
40
60.0
50
270.0
51
450.0
0
ARC
8
BLACK
10
73250.0
20
49870.0
40
60.0
50
90.0
51
270.0
0
LINE
8
BLACK
10
73510.0
20
49470.0
11
73510.0
21
49870.0
0
LINE
8
BLACK
10
73390.0
20
49470.0
11
73390.0
21
49870.0
0
ARC
8
BLACK
10
73450.0
20
49870.0
40
60.0
50
360.0
51
540.0
0
ARC
8
BLACK
10
73450.0
20
49470.0
40
60.0
50
180.0
51
360.0
0
LINE
8
BLACK
10
73450.0
20
49410.0
11
76050.0
21
49410.0
0
LINE
8
BLACK
10
73450.0
20
49530.0
11
76050.0
21
49530.0
0
ARC
8
BLACK
10
76050.0
20
49470.0
40
60.0
50
270.0
51
450.0
0
ARC
8
BLACK
10
73450.0
20
49470.0
40
60.0
50
90.0
51
270.0
0
LINE
8
BLACK
10
76110.0
20
49470.0
11
76110.0
21
50270.0
0
LINE
8
BLACK
10
75990.0
20
49470.0
11
75990.0
21
50270.0
0
ARC
8
BLACK
10
76050.0
20
50270.0
40
60.0
50
360.0
51
540.0
0
ARC
8
BLACK
10
76050.0
20
49470.0
40
60.0
50
180.0
51
360.0
0
LINE
8
BLACK
10
73450.0
20
50210.0
11
76050.0
21
50210.0
0
LINE
8
BLACK
10
73450.0
20
50330.0
11
76050.0
21
50330.0
0
ARC
8
BLACK
10
76050.0
20
50270.0
40
60.0
50
270.0
51
450.0
0
ARC
8
BLACK
10
73450.0
20
50270.0
40
60.0
50
90.0
51
270.0
0
LINE
8
BLACK
10
73510.0
20
49870.0
11
73510.0
21
50270.0
0
LINE
8
BLACK
10
73390.0
20
49870.0
11
73390.0
21
50270.0
0
ARC
8
BLACK
10
73450.0
20
50270.0
40
60.0
50
360.0
51
540.0
0
ARC
8
BLACK
10
73450.0
20
49870.0
40
60.0
50
180.0
51
360.0
0
LINE
8
BLACK
10
76007.0
20
49712.0
11
75808.0
21
49513.0
0
LINE
8
BLACK
10
76092.0
20
49627.0
11
75893.0
21
49428.0
0
ARC
8
BLACK
10
75850.0
20
49470.0
40
60.0
50
135.0
51
315.0
0
ARC
8
BLACK
10
76050.0
20
49670.0
40
60.0
50
-45.0
51
135.0
0
LINE
8
BLACK
10
75250.0
20
47410.0
11
75450.0
21
47410.0
0
LINE
8
BLACK
10
75250.0
20
47530.0
11
75450.0
21
47530.0
0
ARC
8
BLACK
10
75450.0
20
47470.0
40
60.0
50
270.0
51
450.0
0
ARC
8
BLACK
10
75250.0
20
47470.0
40
60.0
50
90.0
51
270.0
0
LINE
8
BLACK
10
72450.0
20
47410.0
11
72650.0
21
47410.0
0
LINE
8
BLACK
10
72450.0
20
47530.0
11
72650.0
21
47530.0
0
ARC
8
BLACK
10
72650.0
20
47470.0
40
60.0
50
270.0
51
450.0
0
ARC
8
BLACK
10
72450.0
20
47470.0
40
60.0
50
90.0
51
270.0
0
LINE
8
BLACK
10
72710.0
20
47070.0
11
72710.0
21
47470.0
0
LINE
8
BLACK
10
72590.0
20
47070.0
11
72590.0
21
47470.0
0
ARC
8
BLACK
10
72650.0
20
47470.0
40
60.0
50
360.0
51
540.0
0
ARC
8
BLACK
10
72650.0
20
47070.0
40
60.0
50
180.0
51
360.0
0
LINE
8
BLACK
10
72650.0
20
47010.0
11
75250.0
21
47010.0
0
LINE
8
BLACK
10
72650.0
20
47130.0
11
75250.0
21
47130.0
0
ARC
8
BLACK
10
75250.0
20
47070.0
40
60.0
50
270.0
51
450.0
0
ARC
8
BLACK
10
72650.0
20
47070.0
40
60.0
50
90.0
51
270.0
0
LINE
8
BLACK
10
75310.0
20
47070.0
11
75310.0
21
47870.0
0
LINE
8
BLACK
10
75190.0
20
47070.0
11
75190.0
21
47870.0
0
ARC
8
BLACK
10
75250.0
20
47870.0
40
60.0
50
360.0
51
540.0
0
ARC
8
BLACK
10
75250.0
20
47070.0
40
60.0
50
180.0
51
360.0
0
LINE
8
BLACK
10
72650.0
20
47810.0
11
75250.0
21
47810.0
0
LINE
8
BLACK
10
72650.0
20
47930.0
11
75250.0
21
47930.0
0
ARC
8
BLACK
10
75250.0
20
47870.0
40
60.0
50
270.0
51
450.0
0
ARC
8
BLACK
10
72650.0
20
47870.0
40
60.0
50
90.0
51
270.0
0
LINE
8
BLACK
10
72710.0
20
47470.0
11
72710.0
21
47870.0
0
LINE
8
BLACK
10
72590.0
20
47470.0
11
72590.0
21
47870.0
0
ARC
8
BLACK
10
72650.0
20
47870.0
40
60.0
50
360.0
51
540.0
0
ARC
8
BLACK
10
72650.0
20
47470.0
40
60.0
50
180.0
51
360.0
0
LINE
8
BLACK
10
75207.0
20
47312.0
11
75008.0
21
47113.0
0
LINE
8
BLACK
10
75292.0
20
47227.0
11
75093.0
21
47028.0
0
ARC
8
BLACK
10
75050.0
20
47070.0
40
60.0
50
135.0
51
315.0
0
ARC
8
BLACK
10
75250.0
20
47270.0
40
60.0
50
-45.0
51
135.0
0
LINE
8
BLACK
10
73200.0
20
55860.0
11
73400.0
21
55860.0
0
LINE
8
BLACK
10
73200.0
20
55980.0
11
73400.0
21
55980.0
0
ARC
8
BLACK
10
73400.0
20
55920.0
40
60.0
50
270.0
51
450.0
0
ARC
8
BLACK
10
73200.0
20
55920.0
40
60.0
50
90.0
51
270.0
0
LINE
8
BLACK
10
76000.0
20
55860.0
11
76200.0
21
55860.0
0
LINE
8
BLACK
10
76000.0
20
55980.0
11
76200.0
21
55980.0
0
ARC
8
BLACK
10
76200.0
20
55920.0
40
60.0
50
270.0
51
450.0
0
ARC
8
BLACK
10
76000.0
20
55920.0
40
60.0
50
90.0
51
270.0
0
LINE
8
BLACK
10
76060.0
20
55920.0
11
76060.0
21
56320.0
0
LINE
8
BLACK
10
75940.0
20
55920.0
11
75940.0
21
56320.0
0
ARC
8
BLACK
10
76000.0
20
56320.0
40
60.0
50
360.0
51
540.0
0
ARC
8
BLACK
10
76000.0
20
55920.0
40
60.0
50
180.0
51
360.0
0
LINE
8
BLACK
10
73400.0
20
56260.0
11
76000.0
21
56260.0
0
LINE
8
BLACK
10
73400.0
20
56380.0
11
76000.0
21
56380.0
0
ARC
8
BLACK
10
76000.0
20
56320.0
40
60.0
50
270.0
51
450.0
0
ARC
8
BLACK
10
73400.0
20
56320.0
40
60.0
50
90.0
51
270.0
0
LINE
8
BLACK
10
73460.0
20
55520.0
11
73460.0
21
56320.0
0
LINE
8
BLACK
10
73340.0
20
55520.0
11
73340.0
21
56320.0
0
ARC
8
BLACK
10
73400.0
20
56320.0
40
60.0
50
360.0
51
540.0
0
ARC
8
BLACK
10
73400.0
20
55520.0
40
60.0
50
180.0
51
360.0
0
LINE
8
BLACK
10
73400.0
20
55460.0
11
76000.0
21
55460.0
0
LINE
8
BLACK
10
73400.0
20
55580.0
11
76000.0
21
55580.0
0
ARC
8
BLACK
10
76000.0
20
55520.0
40
60.0
50
270.0
51
450.0
0
ARC
8
BLACK
10
73400.0
20
55520.0
40
60.0
50
90.0
51
270.0
0
LINE
8
BLACK
10
76060.0
20
55520.0
11
76060.0
21
55920.0
0
LINE
8
BLACK
10
75940.0
20
55520.0
11
75940.0
21
55920.0
0
ARC
8
BLACK
10
76000.0
20
55920.0
40
60.0
50
360.0
51
540.0
0
ARC
8
BLACK
10
76000.0
20
55520.0
40
60.0
50
180.0
51
360.0
0
LINE
8
BLACK
10
73443.0
20
56078.0
11
73642.0
21
56277.0
0
LINE
8
BLACK
10
73358.0
20
56163.0
11
73557.0
21
56362.0
0
ARC
8
BLACK
10
73600.0
20
56320.0
40
60.0
50
315.0
51
495.0
0
ARC
8
BLACK
10
73400.0
20
56120.0
40
60.0
50
135.0
51
315.0
0
LINE
8
BLACK
10
72250.0
20
53260.0
11
72450.0
21
53260.0
0
LINE
8
BLACK
10
72250.0
20
53380.0
11
72450.0
21
53380.0
0
ARC
8
BLACK
10
72450.0
20
53320.0
40
60.0
50
270.0
51
450.0
0
ARC
8
BLACK
10
72250.0
20
53320.0
40
60.0
50
90.0
51
270.0
0
LINE
8
BLACK
10
75050.0
20
53260.0
11
75250.0
21
53260.0
0
LINE
8
BLACK
10
75050.0
20
53380.0
11
75250.0
21
53380.0
0
ARC
8
BLACK
10
75250.0
20
53320.0
40
60.0
50
270.0
51
450.0
0
ARC
8
BLACK
10
75050.0
20
53320.0
40
60.0
50
90.0
51
270.0
0
LINE
8
BLACK
10
75110.0
20
53320.0
11
75110.0
21
53720.0
0
LINE
8
BLACK
10
74990.0
20
53320.0
11
74990.0
21
53720.0
0
ARC
8
BLACK
10
75050.0
20
53720.0
40
60.0
50
360.0
51
540.0
0
ARC
8
BLACK
10
75050.0
20
53320.0
40
60.0
50
180.0
51
360.0
0
LINE
8
BLACK
10
72450.0
20
53660.0
11
75050.0
21
53660.0
0
LINE
8
BLACK
10
72450.0
20
53780.0
11
75050.0
21
53780.0
0
ARC
8
BLACK
10
75050.0
20
53720.0
40
60.0
50
270.0
51
450.0
0
ARC
8
BLACK
10
72450.0
20
53720.0
40
60.0
50
90.0
51
270.0
0
LINE
8
BLACK
10
72510.0
20
52920.0
11
72510.0
21
53720.0
0
LINE
8
BLACK
10
72390.0
20
52920.0
11
72390.0
21
53720.0
0
ARC
8
BLACK
10
72450.0
20
53720.0
40
60.0
50
360.0
51
540.0
0
ARC
8
BLACK
10
72450.0
20
52920.0
40
60.0
50
180.0
51
360.0
0
LINE
8
BLACK
10
72450.0
20
52860.0
11
75050.0
21
52860.0
0
LINE
8
BLACK
10
72450.0
20
52980.0
11
75050.0
21
52980.0
0
ARC
8
BLACK
10
75050.0
20
52920.0
40
60.0
50
270.0
51
450.0
0
ARC
8
BLACK
10
72450.0
20
52920.0
40
60.0
50
90.0
51
270.0
0
LINE
8
BLACK
10
75110.0
20
52920.0
11
75110.0
21
53320.0
0
LINE
8
BLACK
10
74990.0
20
52920.0
11
74990.0
21
53320.0
0
ARC
8
BLACK
10
75050.0
20
53320.0
40
60.0
50
360.0
51
540.0
0
ARC
8
BLACK
10
75050.0
20
52920.0
40
60.0
50
180.0
51
360.0
0
LINE
8
BLACK
10
72493.0
20
53478.0
11
72692.0
21
53677.0
0
LINE
8
BLACK
10
72408.0
20
53563.0
11
72607.0
21
53762.0
0
ARC
8
BLACK
10
72650.0
20
53720.0
40
60.0
50
315.0
51
495.0
0
ARC
8
BLACK
10
72450.0
20
53520.0
40
60.0
50
135.0
51
315.0
0
LINE
8
BLACK
10
73250.0
20
50860.0
11
73450.0
21
50860.0
0
LINE
8
BLACK
10
73250.0
20
50980.0
11
73450.0
21
50980.0
0
ARC
8
BLACK
10
73450.0
20
50920.0
40
60.0
50
270.0
51
450.0
0
ARC
8
BLACK
10
73250.0
20
50920.0
40
60.0
50
90.0
51
270.0
0
LINE
8
BLACK
10
76050.0
20
50860.0
11
76250.0
21
50860.0
0
LINE
8
BLACK
10
76050.0
20
50980.0
11
76250.0
21
50980.0
0
ARC
8
BLACK
10
76250.0
20
50920.0
40
60.0
50
270.0
51
450.0
0
ARC
8
BLACK
10
76050.0
20
50920.0
40
60.0
50
90.0
51
270.0
0
LINE
8
BLACK
10
76110.0
20
50920.0
11
76110.0
21
51320.0
0
LINE
8
BLACK
10
75990.0
20
50920.0
11
75990.0
21
51320.0
0
ARC
8
BLACK
10
76050.0
20
51320.0
40
60.0
50
360.0
51
540.0
0
ARC
8
BLACK
10
76050.0
20
50920.0
40
60.0
50
180.0
51
360.0
0
LINE
8
BLACK
10
73450.0
20
51260.0
11
76050.0
21
51260.0
0
LINE
8
BLACK
10
73450.0
20
51380.0
11
76050.0
21
51380.0
0
ARC
8
BLACK
10
76050.0
20
51320.0
40
60.0
50
270.0
51
450.0
0
ARC
8
BLACK
10
73450.0
20
51320.0
40
60.0
50
90.0
51
270.0
0
LINE
8
BLACK
10
73510.0
20
50520.0
11
73510.0
21
51320.0
0
LINE
8
BLACK
10
73390.0
20
50520.0
11
73390.0
21
51320.0
0
ARC
8
BLACK
10
73450.0
20
51320.0
40
60.0
50
360.0
51
540.0
0
ARC
8
BLACK
10
73450.0
20
50520.0
40
60.0
50
180.0
51
360.0
0
LINE
8
BLACK
10
73450.0
20
50460.0
11
76050.0
21
50460.0
0
LINE
8
BLACK
10
73450.0
20
50580.0
11
76050.0
21
50580.0
0
ARC
8
BLACK
10
76050.0
20
50520.0
40
60.0
50
270.0
51
450.0
0
ARC
8
BLACK
10
73450.0
20
50520.0
40
60.0
50
90.0
51
270.0
0
LINE
8
BLACK
10
76110.0
20
50520.0
11
76110.0
21
50920.0
0
LINE
8
BLACK
10
75990.0
20
50520.0
11
75990.0
21
50920.0
0
ARC
8
BLACK
10
76050.0
20
50920.0
40
60.0
50
360.0
51
540.0
0
ARC
8
BLACK
10
76050.0
20
50520.0
40
60.0
50
180.0
51
360.0
0
LINE
8
BLACK
10
73493.0
20
51078.0
11
73692.0
21
51277.0
0
LINE
8
BLACK
10
73408.0
20
51163.0
11
73607.0
21
51362.0
0
ARC
8
BLACK
10
73650.0
20
51320.0
40
60.0
50
315.0
51
495.0
0
ARC
8
BLACK
10
73450.0
20
51120.0
40
60.0
50
135.0
51
315.0
0
LINE
8
BLACK
10
72450.0
20
48460.0
11
72650.0
21
48460.0
0
LINE
8
BLACK
10
72450.0
20
48580.0
11
72650.0
21
48580.0
0
ARC
8
BLACK
10
72650.0
20
48520.0
40
60.0
50
270.0
51
450.0
0
ARC
8
BLACK
10
72450.0
20
48520.0
40
60.0
50
90.0
51
270.0
0
LINE
8
BLACK
10
75250.0
20
48460.0
11
75450.0
21
48460.0
0
LINE
8
BLACK
10
75250.0
20
48580.0
11
75450.0
21
48580.0
0
ARC
8
BLACK
10
75450.0
20
48520.0
40
60.0
50
270.0
51
450.0
0
ARC
8
BLACK
10
75250.0
20
48520.0
40
60.0
50
90.0
51
270.0
0
LINE
8
BLACK
10
75310.0
20
48520.0
11
75310.0
21
48920.0
0
LINE
8
BLACK
10
75190.0
20
48520.0
11
75190.0
21
48920.0
0
ARC
8
BLACK
10
75250.0
20
48920.0
40
60.0
50
360.0
51
540.0
0
ARC
8
BLACK
10
75250.0
20
48520.0
40
60.0
50
180.0
51
360.0
0
LINE
8
BLACK
10
72650.0
20
48860.0
11
75250.0
21
48860.0
0
LINE
8
BLACK
10
72650.0
20
48980.0
11
75250.0
21
48980.0
0
ARC
8
BLACK
10
75250.0
20
48920.0
40
60.0
50
270.0
51
450.0
0
ARC
8
BLACK
10
72650.0
20
48920.0
40
60.0
50
90.0
51
270.0
0
LINE
8
BLACK
10
72710.0
20
48120.0
11
72710.0
21
48920.0
0
LINE
8
BLACK
10
72590.0
20
48120.0
11
72590.0
21
48920.0
0
ARC
8
BLACK
10
72650.0
20
48920.0
40
60.0
50
360.0
51
540.0
0
ARC
8
BLACK
10
72650.0
20
48120.0
40
60.0
50
180.0
51
360.0
0
LINE
8
BLACK
10
72650.0
20
48060.0
11
75250.0
21
48060.0
0
LINE
8
BLACK
10
72650.0
20
48180.0
11
75250.0
21
48180.0
0
ARC
8
BLACK
10
75250.0
20
48120.0
40
60.0
50
270.0
51
450.0
0
ARC
8
BLACK
10
72650.0
20
48120.0
40
60.0
50
90.0
51
270.0
0
LINE
8
BLACK
10
75310.0
20
48120.0
11
75310.0
21
48520.0
0
LINE
8
BLACK
10
75190.0
20
48120.0
11
75190.0
21
48520.0
0
ARC
8
BLACK
10
75250.0
20
48520.0
40
60.0
50
360.0
51
540.0
0
ARC
8
BLACK
10
75250.0
20
48120.0
40
60.0
50
180.0
51
360.0
0
LINE
8
BLACK
10
72693.0
20
48678.0
11
72892.0
21
48877.0
0
LINE
8
BLACK
10
72608.0
20
48763.0
11
72807.0
21
48962.0
0
ARC
8
BLACK
10
72850.0
20
48920.0
40
60.0
50
315.0
51
495.0
0
ARC
8
BLACK
10
72650.0
20
48720.0
40
60.0
50
135.0
51
315.0
0
LINE
8
BLACK
10
68060.0
20
49670.0
11
68060.0
21
51170.0
0
LINE
8
BLACK
10
67980.0
20
49670.0
11
67980.0
21
51170.0
0
ARC
8
BLACK
10
68020.0
20
51170.0
40
40.0
50
360.0
51
540.0
0
ARC
8
BLACK
10
68020.0
20
49670.0
40
40.0
50
180.0
51
360.0
0
CIRCLE
8
BLACK
10
67000.0
20
50420.0
40
707
0
ARC
8
BLACK
10
67000.0
20
50420.0
40
1250.0
50
-323.0
51
-36.0
0
ARC
8
BLACK
10
67000.0
20
50420.0
40
450.0
50
90.0
51
180.0
0
ARC
8
BLACK
10
67000.0
20
50420.0
40
450.0
50
-90.0
51
0.0
0
ARC
8
BLACK
10
67000.0
20
50420.0
40
650.0
50
90.0
51
180.0
0
ARC
8
BLACK
10
67000.0
20
50420.0
40
650.0
50
-90.0
51
0.0
0
ARC
8
BLACK
10
67000.0
20
50420.0
40
850.0
50
90.0
51
180.0
0
ARC
8
BLACK
10
67000.0
20
50420.0
40
850.0
50
-90.0
51
0.0
0
LINE
8
BLACK
10
71960.0
20
47170.0
11
71960.0
21
48670.0
0
LINE
8
BLACK
10
71880.0
20
47170.0
11
71880.0
21
48670.0
0
ARC
8
BLACK
10
71920.0
20
48670.0
40
40.0
50
360.0
51
540.0
0
ARC
8
BLACK
10
71920.0
20
47170.0
40
40.0
50
180.0
51
360.0
0
CIRCLE
8
BLACK
10
70900.0
20
47920.0
40
707
0
ARC
8
BLACK
10
70900.0
20
47920.0
40
1250.0
50
-323.0
51
-36.0
0
ARC
8
BLACK
10
70900.0
20
47920.0
40
450.0
50
90.0
51
180.0
0
ARC
8
BLACK
10
70900.0
20
47920.0
40
450.0
50
-90.0
51
0.0
0
ARC
8
BLACK
10
70900.0
20
47920.0
40
650.0
50
90.0
51
180.0
0
ARC
8
BLACK
10
70900.0
20
47920.0
40
650.0
50
-90.0
51
0.0
0
ARC
8
BLACK
10
70900.0
20
47920.0
40
850.0
50
90.0
51
180.0
0
ARC
8
BLACK
10
70900.0
20
47920.0
40
850.0
50
-90.0
51
0.0
0
LINE
8
BLACK
10
69560.0
20
47170.0
11
69560.0
21
48670.0
0
LINE
8
BLACK
10
69480.0
20
47170.0
11
69480.0
21
48670.0
0
ARC
8
BLACK
10
69520.0
20
48670.0
40
40.0
50
360.0
51
540.0
0
ARC
8
BLACK
10
69520.0
20
47170.0
40
40.0
50
180.0
51
360.0
0
CIRCLE
8
BLACK
10
68500.0
20
47920.0
40
707
0
ARC
8
BLACK
10
68500.0
20
47920.0
40
1250.0
50
-323.0
51
-36.0
0
ARC
8
BLACK
10
68500.0
20
47920.0
40
450.0
50
90.0
51
180.0
0
ARC
8
BLACK
10
68500.0
20
47920.0
40
450.0
50
-90.0
51
0.0
0
ARC
8
BLACK
10
68500.0
20
47920.0
40
650.0
50
90.0
51
180.0
0
ARC
8
BLACK
10
68500.0
20
47920.0
40
650.0
50
-90.0
51
0.0
0
ARC
8
BLACK
10
68500.0
20
47920.0
40
850.0
50
90.0
51
180.0
0
ARC
8
BLACK
10
68500.0
20
47920.0
40
850.0
50
-90.0
51
0.0
0
LINE
8
BLACK
10
67160.0
20
47170.0
11
67160.0
21
48670.0
0
LINE
8
BLACK
10
67080.0
20
47170.0
11
67080.0
21
48670.0
0
ARC
8
BLACK
10
67120.0
20
48670.0
40
40.0
50
360.0
51
540.0
0
ARC
8
BLACK
10
67120.0
20
47170.0
40
40.0
50
180.0
51
360.0
0
CIRCLE
8
BLACK
10
66100.0
20
47920.0
40
707
0
ARC
8
BLACK
10
66100.0
20
47920.0
40
1250.0
50
-323.0
51
-36.0
0
ARC
8
BLACK
10
66100.0
20
47920.0
40
450.0
50
90.0
51
180.0
0
ARC
8
BLACK
10
66100.0
20
47920.0
40
450.0
50
-90.0
51
0.0
0
ARC
8
BLACK
10
66100.0
20
47920.0
40
650.0
50
90.0
51
180.0
0
ARC
8
BLACK
10
66100.0
20
47920.0
40
650.0
50
-90.0
51
0.0
0
ARC
8
BLACK
10
66100.0
20
47920.0
40
850.0
50
90.0
51
180.0
0
ARC
8
BLACK
10
66100.0
20
47920.0
40
850.0
50
-90.0
51
0.0
0
LINE
8
BLACK
10
72860.0
20
49670.0
11
72860.0
21
51170.0
0
LINE
8
BLACK
10
72780.0
20
49670.0
11
72780.0
21
51170.0
0
ARC
8
BLACK
10
72820.0
20
51170.0
40
40.0
50
360.0
51
540.0
0
ARC
8
BLACK
10
72820.0
20
49670.0
40
40.0
50
180.0
51
360.0
0
CIRCLE
8
BLACK
10
71800.0
20
50420.0
40
707
0
ARC
8
BLACK
10
71800.0
20
50420.0
40
1250.0
50
-323.0
51
-36.0
0
ARC
8
BLACK
10
71800.0
20
50420.0
40
450.0
50
90.0
51
180.0
0
ARC
8
BLACK
10
71800.0
20
50420.0
40
450.0
50
-90.0
51
0.0
0
ARC
8
BLACK
10
71800.0
20
50420.0
40
650.0
50
90.0
51
180.0
0
ARC
8
BLACK
10
71800.0
20
50420.0
40
650.0
50
-90.0
51
0.0
0
ARC
8
BLACK
10
71800.0
20
50420.0
40
850.0
50
90.0
51
180.0
0
ARC
8
BLACK
10
71800.0
20
50420.0
40
850.0
50
-90.0
51
0.0
0
LINE
8
BLACK
10
70460.0
20
49670.0
11
70460.0
21
51170.0
0
LINE
8
BLACK
10
70380.0
20
49670.0
11
70380.0
21
51170.0
0
ARC
8
BLACK
10
70420.0
20
51170.0
40
40.0
50
360.0
51
540.0
0
ARC
8
BLACK
10
70420.0
20
49670.0
40
40.0
50
180.0
51
360.0
0
CIRCLE
8
BLACK
10
69400.0
20
50420.0
40
707
0
ARC
8
BLACK
10
69400.0
20
50420.0
40
1250.0
50
-323.0
51
-36.0
0
ARC
8
BLACK
10
69400.0
20
50420.0
40
450.0
50
90.0
51
180.0
0
ARC
8
BLACK
10
69400.0
20
50420.0
40
450.0
50
-90.0
51
0.0
0
ARC
8
BLACK
10
69400.0
20
50420.0
40
650.0
50
90.0
51
180.0
0
ARC
8
BLACK
10
69400.0
20
50420.0
40
650.0
50
-90.0
51
0.0
0
ARC
8
BLACK
10
69400.0
20
50420.0
40
850.0
50
90.0
51
180.0
0
ARC
8
BLACK
10
69400.0
20
50420.0
40
850.0
50
-90.0
51
0.0
0
LINE
8
BLACK
10
71710.0
20
52020.0
11
71710.0
21
53520.0
0
LINE
8
BLACK
10
71630.0
20
52020.0
11
71630.0
21
53520.0
0
ARC
8
BLACK
10
71670.0
20
53520.0
40
40.0
50
360.0
51
540.0
0
ARC
8
BLACK
10
71670.0
20
52020.0
40
40.0
50
180.0
51
360.0
0
CIRCLE
8
BLACK
10
70650.0
20
52770.0
40
707
0
ARC
8
BLACK
10
70650.0
20
52770.0
40
1250.0
50
-323.0
51
-36.0
0
ARC
8
BLACK
10
70650.0
20
52770.0
40
450.0
50
90.0
51
180.0
0
ARC
8
BLACK
10
70650.0
20
52770.0
40
450.0
50
-90.0
51
0.0
0
ARC
8
BLACK
10
70650.0
20
52770.0
40
650.0
50
90.0
51
180.0
0
ARC
8
BLACK
10
70650.0
20
52770.0
40
650.0
50
-90.0
51
0.0
0
ARC
8
BLACK
10
70650.0
20
52770.0
40
850.0
50
90.0
51
180.0
0
ARC
8
BLACK
10
70650.0
20
52770.0
40
850.0
50
-90.0
51
0.0
0
LINE
8
BLACK
10
69310.0
20
52020.0
11
69310.0
21
53520.0
0
LINE
8
BLACK
10
69230.0
20
52020.0
11
69230.0
21
53520.0
0
ARC
8
BLACK
10
69270.0
20
53520.0
40
40.0
50
360.0
51
540.0
0
ARC
8
BLACK
10
69270.0
20
52020.0
40
40.0
50
180.0
51
360.0
0
CIRCLE
8
BLACK
10
68250.0
20
52770.0
40
707
0
ARC
8
BLACK
10
68250.0
20
52770.0
40
1250.0
50
-323.0
51
-36.0
0
ARC
8
BLACK
10
68250.0
20
52770.0
40
450.0
50
90.0
51
180.0
0
ARC
8
BLACK
10
68250.0
20
52770.0
40
450.0
50
-90.0
51
0.0
0
ARC
8
BLACK
10
68250.0
20
52770.0
40
650.0
50
90.0
51
180.0
0
ARC
8
BLACK
10
68250.0
20
52770.0
40
650.0
50
-90.0
51
0.0
0
ARC
8
BLACK
10
68250.0
20
52770.0
40
850.0
50
90.0
51
180.0
0
ARC
8
BLACK
10
68250.0
20
52770.0
40
850.0
50
-90.0
51
0.0
0
LINE
8
BLACK
10
66910.0
20
51970.0
11
66910.0
21
53470.0
0
LINE
8
BLACK
10
66830.0
20
51970.0
11
66830.0
21
53470.0
0
ARC
8
BLACK
10
66870.0
20
53470.0
40
40.0
50
360.0
51
540.0
0
ARC
8
BLACK
10
66870.0
20
51970.0
40
40.0
50
180.0
51
360.0
0
CIRCLE
8
BLACK
10
65850.0
20
52720.0
40
707
0
ARC
8
BLACK
10
65850.0
20
52720.0
40
1250.0
50
-323.0
51
-36.0
0
ARC
8
BLACK
10
65850.0
20
52720.0
40
450.0
50
90.0
51
180.0
0
ARC
8
BLACK
10
65850.0
20
52720.0
40
450.0
50
-90.0
51
0.0
0
ARC
8
BLACK
10
65850.0
20
52720.0
40
650.0
50
90.0
51
180.0
0
ARC
8
BLACK
10
65850.0
20
52720.0
40
650.0
50
-90.0
51
0.0
0
ARC
8
BLACK
10
65850.0
20
52720.0
40
850.0
50
90.0
51
180.0
0
ARC
8
BLACK
10
65850.0
20
52720.0
40
850.0
50
-90.0
51
0.0
0
LINE
8
BLACK
10
72760.0
20
54370.0
11
72760.0
21
55870.0
0
LINE
8
BLACK
10
72680.0
20
54370.0
11
72680.0
21
55870.0
0
ARC
8
BLACK
10
72720.0
20
55870.0
40
40.0
50
360.0
51
540.0
0
ARC
8
BLACK
10
72720.0
20
54370.0
40
40.0
50
180.0
51
360.0
0
CIRCLE
8
BLACK
10
71700.0
20
55120.0
40
707
0
ARC
8
BLACK
10
71700.0
20
55120.0
40
1250.0
50
-323.0
51
-36.0
0
ARC
8
BLACK
10
71700.0
20
55120.0
40
450.0
50
90.0
51
180.0
0
ARC
8
BLACK
10
71700.0
20
55120.0
40
450.0
50
-90.0
51
0.0
0
ARC
8
BLACK
10
71700.0
20
55120.0
40
650.0
50
90.0
51
180.0
0
ARC
8
BLACK
10
71700.0
20
55120.0
40
650.0
50
-90.0
51
0.0
0
ARC
8
BLACK
10
71700.0
20
55120.0
40
850.0
50
90.0
51
180.0
0
ARC
8
BLACK
10
71700.0
20
55120.0
40
850.0
50
-90.0
51
0.0
0
LINE
8
BLACK
10
70360.0
20
54370.0
11
70360.0
21
55870.0
0
LINE
8
BLACK
10
70280.0
20
54370.0
11
70280.0
21
55870.0
0
ARC
8
BLACK
10
70320.0
20
55870.0
40
40.0
50
360.0
51
540.0
0
ARC
8
BLACK
10
70320.0
20
54370.0
40
40.0
50
180.0
51
360.0
0
CIRCLE
8
BLACK
10
69300.0
20
55120.0
40
707
0
ARC
8
BLACK
10
69300.0
20
55120.0
40
1250.0
50
-323.0
51
-36.0
0
ARC
8
BLACK
10
69300.0
20
55120.0
40
450.0
50
90.0
51
180.0
0
ARC
8
BLACK
10
69300.0
20
55120.0
40
450.0
50
-90.0
51
0.0
0
ARC
8
BLACK
10
69300.0
20
55120.0
40
650.0
50
90.0
51
180.0
0
ARC
8
BLACK
10
69300.0
20
55120.0
40
650.0
50
-90.0
51
0.0
0
ARC
8
BLACK
10
69300.0
20
55120.0
40
850.0
50
90.0
51
180.0
0
ARC
8
BLACK
10
69300.0
20
55120.0
40
850.0
50
-90.0
51
0.0
0
LINE
8
BLACK
10
67960.0
20
54370.0
11
67960.0
21
55870.0
0
LINE
8
BLACK
10
67880.0
20
54370.0
11
67880.0
21
55870.0
0
ARC
8
BLACK
10
67920.0
20
55870.0
40
40.0
50
360.0
51
540.0
0
ARC
8
BLACK
10
67920.0
20
54370.0
40
40.0
50
180.0
51
360.0
0
CIRCLE
8
BLACK
10
66900.0
20
55120.0
40
707
0
ARC
8
BLACK
10
66900.0
20
55120.0
40
1250.0
50
-323.0
51
-36.0
0
ARC
8
BLACK
10
66900.0
20
55120.0
40
450.0
50
90.0
51
180.0
0
ARC
8
BLACK
10
66900.0
20
55120.0
40
450.0
50
-90.0
51
0.0
0
ARC
8
BLACK
10
66900.0
20
55120.0
40
650.0
50
90.0
51
180.0
0
ARC
8
BLACK
10
66900.0
20
55120.0
40
650.0
50
-90.0
51
0.0
0
ARC
8
BLACK
10
66900.0
20
55120.0
40
850.0
50
90.0
51
180.0
0
ARC
8
BLACK
10
66900.0
20
55120.0
40
850.0
50
-90.0
51
0.0
0
LINE
8
BLACK
10
76212.0
20
48920.0
11
76174.0
21
48939.0
0
LINE
8
BLACK
10
76174.0
20
48939.0
11
76136.0
21
48977.0
0
LINE
8
BLACK
10
76136.0
20
48977.0
11
76079.0
21
49034.0
0
LINE
8
BLACK
10
76079.0
20
49034.0
11
76040.0
21
49053.0
0
LINE
8
BLACK
10
76040.0
20
49053.0
11
76002.0
21
49053.0
0
LINE
8
BLACK
10
76021.0
20
48958.0
11
75983.0
21
48977.0
0
LINE
8
BLACK
10
75983.0
20
48977.0
11
75945.0
21
49015.0
0
LINE
8
BLACK
10
75945.0
20
49015.0
11
75926.0
21
49091.0
0
LINE
8
BLACK
10
75926.0
20
49091.0
11
75926.0
21
49225.0
0
LINE
8
BLACK
10
75926.0
20
49225.0
11
75945.0
21
49301.0
0
LINE
8
BLACK
10
75945.0
20
49301.0
11
75983.0
21
49339.0
0
LINE
8
BLACK
10
75983.0
20
49339.0
11
76021.0
21
49358.0
0
LINE
8
BLACK
10
76021.0
20
49358.0
11
76098.0
21
49358.0
0
LINE
8
BLACK
10
76098.0
20
49358.0
11
76136.0
21
49339.0
0
LINE
8
BLACK
10
76136.0
20
49339.0
11
76174.0
21
49301.0
0
LINE
8
BLACK
10
76174.0
20
49301.0
11
76193.0
21
49225.0
0
LINE
8
BLACK
10
76193.0
20
49225.0
11
76193.0
21
49091.0
0
LINE
8
BLACK
10
76193.0
20
49091.0
11
76174.0
21
49015.0
0
LINE
8
BLACK
10
76174.0
20
49015.0
11
76136.0
21
48977.0
0
LINE
8
BLACK
10
76136.0
20
48977.0
11
76098.0
21
48958.0
0
LINE
8
BLACK
10
76098.0
20
48958.0
11
76021.0
21
48958.0
0
LINE
8
BLACK
10
76536.0
20
49225.0
11
76536.0
21
48958.0
0
LINE
8
BLACK
10
76440.0
20
49377.0
11
76345.0
21
49091.0
0
LINE
8
BLACK
10
76345.0
20
49091.0
11
76593.0
21
49091.0
0
LINE
8
BLACK
10
78562.0
20
52370.0
11
78524.0
21
52389.0
0
LINE
8
BLACK
10
78524.0
20
52389.0
11
78486.0
21
52427.0
0
LINE
8
BLACK
10
78486.0
20
52427.0
11
78429.0
21
52484.0
0
LINE
8
BLACK
10
78429.0
20
52484.0
11
78390.0
21
52503.0
0
LINE
8
BLACK
10
78390.0
20
52503.0
11
78352.0
21
52503.0
0
LINE
8
BLACK
10
78371.0
20
52408.0
11
78333.0
21
52427.0
0
LINE
8
BLACK
10
78333.0
20
52427.0
11
78295.0
21
52465.0
0
LINE
8
BLACK
10
78295.0
20
52465.0
11
78276.0
21
52541.0
0
LINE
8
BLACK
10
78276.0
20
52541.0
11
78276.0
21
52675.0
0
LINE
8
BLACK
10
78276.0
20
52675.0
11
78295.0
21
52751.0
0
LINE
8
BLACK
10
78295.0
20
52751.0
11
78333.0
21
52789.0
0
LINE
8
BLACK
10
78333.0
20
52789.0
11
78371.0
21
52808.0
0
LINE
8
BLACK
10
78371.0
20
52808.0
11
78448.0
21
52808.0
0
LINE
8
BLACK
10
78448.0
20
52808.0
11
78486.0
21
52789.0
0
LINE
8
BLACK
10
78486.0
20
52789.0
11
78524.0
21
52751.0
0
LINE
8
BLACK
10
78524.0
20
52751.0
11
78543.0
21
52675.0
0
LINE
8
BLACK
10
78543.0
20
52675.0
11
78543.0
21
52541.0
0
LINE
8
BLACK
10
78543.0
20
52541.0
11
78524.0
21
52465.0
0
LINE
8
BLACK
10
78524.0
20
52465.0
11
78486.0
21
52427.0
0
LINE
8
BLACK
10
78486.0
20
52427.0
11
78448.0
21
52408.0
0
LINE
8
BLACK
10
78448.0
20
52408.0
11
78371.0
21
52408.0
0
LINE
8
BLACK
10
78676.0
20
52808.0
11
78924.0
21
52808.0
0
LINE
8
BLACK
10
78924.0
20
52808.0
11
78790.0
21
52656.0
0
LINE
8
BLACK
10
78790.0
20
52656.0
11
78848.0
21
52656.0
0
LINE
8
BLACK
10
78848.0
20
52656.0
11
78886.0
21
52637.0
0
LINE
8
BLACK
10
78886.0
20
52637.0
11
78905.0
21
52618.0
0
LINE
8
BLACK
10
78905.0
20
52618.0
11
78924.0
21
52580.0
0
LINE
8
BLACK
10
78924.0
20
52580.0
11
78924.0
21
52484.0
0
LINE
8
BLACK
10
78924.0
20
52484.0
11
78905.0
21
52446.0
0
LINE
8
BLACK
10
78905.0
20
52446.0
11
78886.0
21
52427.0
0
LINE
8
BLACK
10
78886.0
20
52427.0
11
78848.0
21
52408.0
0
LINE
8
BLACK
10
78848.0
20
52408.0
11
78733.0
21
52408.0
0
LINE
8
BLACK
10
78733.0
20
52408.0
11
78695.0
21
52427.0
0
LINE
8
BLACK
10
78695.0
20
52427.0
11
78676.0
21
52446.0
0
LINE
8
BLACK
10
78812.0
20
49670.0
11
78774.0
21
49689.0
0
LINE
8
BLACK
10
78774.0
20
49689.0
11
78736.0
21
49727.0
0
LINE
8
BLACK
10
78736.0
20
49727.0
11
78679.0
21
49784.0
0
LINE
8
BLACK
10
78679.0
20
49784.0
11
78640.0
21
49803.0
0
LINE
8
BLACK
10
78640.0
20
49803.0
11
78602.0
21
49803.0
0
LINE
8
BLACK
10
78621.0
20
49708.0
11
78583.0
21
49727.0
0
LINE
8
BLACK
10
78583.0
20
49727.0
11
78545.0
21
49765.0
0
LINE
8
BLACK
10
78545.0
20
49765.0
11
78526.0
21
49841.0
0
LINE
8
BLACK
10
78526.0
20
49841.0
11
78526.0
21
49975.0
0
LINE
8
BLACK
10
78526.0
20
49975.0
11
78545.0
21
50051.0
0
LINE
8
BLACK
10
78545.0
20
50051.0
11
78583.0
21
50089.0
0
LINE
8
BLACK
10
78583.0
20
50089.0
11
78621.0
21
50108.0
0
LINE
8
BLACK
10
78621.0
20
50108.0
11
78698.0
21
50108.0
0
LINE
8
BLACK
10
78698.0
20
50108.0
11
78736.0
21
50089.0
0
LINE
8
BLACK
10
78736.0
20
50089.0
11
78774.0
21
50051.0
0
LINE
8
BLACK
10
78774.0
20
50051.0
11
78793.0
21
49975.0
0
LINE
8
BLACK
10
78793.0
20
49975.0
11
78793.0
21
49841.0
0
LINE
8
BLACK
10
78793.0
20
49841.0
11
78774.0
21
49765.0
0
LINE
8
BLACK
10
78774.0
20
49765.0
11
78736.0
21
49727.0
0
LINE
8
BLACK
10
78736.0
20
49727.0
11
78698.0
21
49708.0
0
LINE
8
BLACK
10
78698.0
20
49708.0
11
78621.0
21
49708.0
0
LINE
8
BLACK
10
78945.0
20
50070.0
11
78964.0
21
50089.0
0
LINE
8
BLACK
10
78964.0
20
50089.0
11
79002.0
21
50108.0
0
LINE
8
BLACK
10
79002.0
20
50108.0
11
79098.0
21
50108.0
0
LINE
8
BLACK
10
79098.0
20
50108.0
11
79136.0
21
50089.0
0
LINE
8
BLACK
10
79136.0
20
50089.0
11
79155.0
21
50070.0
0
LINE
8
BLACK
10
79155.0
20
50070.0
11
79174.0
21
50032.0
0
LINE
8
BLACK
10
79174.0
20
50032.0
11
79174.0
21
49994.0
0
LINE
8
BLACK
10
79174.0
20
49994.0
11
79155.0
21
49937.0
0
LINE
8
BLACK
10
79155.0
20
49937.0
11
78926.0
21
49708.0
0
LINE
8
BLACK
10
78926.0
20
49708.0
11
79174.0
21
49708.0
0
LINE
8
BLACK
10
77112.0
20
55970.0
11
77074.0
21
55989.0
0
LINE
8
BLACK
10
77074.0
20
55989.0
11
77036.0
21
56027.0
0
LINE
8
BLACK
10
77036.0
20
56027.0
11
76979.0
21
56084.0
0
LINE
8
BLACK
10
76979.0
20
56084.0
11
76940.0
21
56103.0
0
LINE
8
BLACK
10
76940.0
20
56103.0
11
76902.0
21
56103.0
0
LINE
8
BLACK
10
76921.0
20
56008.0
11
76883.0
21
56027.0
0
LINE
8
BLACK
10
76883.0
20
56027.0
11
76845.0
21
56065.0
0
LINE
8
BLACK
10
76845.0
20
56065.0
11
76826.0
21
56141.0
0
LINE
8
BLACK
10
76826.0
20
56141.0
11
76826.0
21
56275.0
0
LINE
8
BLACK
10
76826.0
20
56275.0
11
76845.0
21
56351.0
0
LINE
8
BLACK
10
76845.0
20
56351.0
11
76883.0
21
56389.0
0
LINE
8
BLACK
10
76883.0
20
56389.0
11
76921.0
21
56408.0
0
LINE
8
BLACK
10
76921.0
20
56408.0
11
76998.0
21
56408.0
0
LINE
8
BLACK
10
76998.0
20
56408.0
11
77036.0
21
56389.0
0
LINE
8
BLACK
10
77036.0
20
56389.0
11
77074.0
21
56351.0
0
LINE
8
BLACK
10
77074.0
20
56351.0
11
77093.0
21
56275.0
0
LINE
8
BLACK
10
77093.0
20
56275.0
11
77093.0
21
56141.0
0
LINE
8
BLACK
10
77093.0
20
56141.0
11
77074.0
21
56065.0
0
LINE
8
BLACK
10
77074.0
20
56065.0
11
77036.0
21
56027.0
0
LINE
8
BLACK
10
77036.0
20
56027.0
11
76998.0
21
56008.0
0
LINE
8
BLACK
10
76998.0
20
56008.0
11
76921.0
21
56008.0
0
LINE
8
BLACK
10
77474.0
20
56008.0
11
77245.0
21
56008.0
0
LINE
8
BLACK
10
77359.0
20
56008.0
11
77359.0
21
56408.0
0
LINE
8
BLACK
10
77359.0
20
56408.0
11
77321.0
21
56351.0
0
LINE
8
BLACK
10
77321.0
20
56351.0
11
77283.0
21
56313.0
0
LINE
8
BLACK
10
77283.0
20
56313.0
11
77245.0
21
56294.0
0
LINE
8
BLACK
10
81284.0
20
49196.0
11
81265.0
21
49177.0
0
LINE
8
BLACK
10
81265.0
20
49177.0
11
81208.0
21
49158.0
0
LINE
8
BLACK
10
81208.0
20
49158.0
11
81170.0
21
49158.0
0
LINE
8
BLACK
10
81170.0
20
49158.0
11
81112.0
21
49177.0
0
LINE
8
BLACK
10
81112.0
20
49177.0
11
81074.0
21
49215.0
0
LINE
8
BLACK
10
81074.0
20
49215.0
11
81055.0
21
49253.0
0
LINE
8
BLACK
10
81055.0
20
49253.0
11
81036.0
21
49330.0
0
LINE
8
BLACK
10
81036.0
20
49330.0
11
81036.0
21
49387.0
0
LINE
8
BLACK
10
81036.0
20
49387.0
11
81055.0
21
49463.0
0
LINE
8
BLACK
10
81055.0
20
49463.0
11
81074.0
21
49501.0
0
LINE
8
BLACK
10
81074.0
20
49501.0
11
81112.0
21
49539.0
0
LINE
8
BLACK
10
81112.0
20
49539.0
11
81170.0
21
49558.0
0
LINE
8
BLACK
10
81170.0
20
49558.0
11
81208.0
21
49558.0
0
LINE
8
BLACK
10
81208.0
20
49558.0
11
81265.0
21
49539.0
0
LINE
8
BLACK
10
81265.0
20
49539.0
11
81284.0
21
49520.0
0
LINE
8
BLACK
10
81665.0
20
49158.0
11
81436.0
21
49158.0
0
LINE
8
BLACK
10
81550.0
20
49158.0
11
81550.0
21
49558.0
0
LINE
8
BLACK
10
81550.0
20
49558.0
11
81512.0
21
49501.0
0
LINE
8
BLACK
10
81512.0
20
49501.0
11
81474.0
21
49463.0
0
LINE
8
BLACK
10
81474.0
20
49463.0
11
81436.0
21
49444.0
0
LINE
8
BLACK
10
78884.0
20
53896.0
11
78865.0
21
53877.0
0
LINE
8
BLACK
10
78865.0
20
53877.0
11
78808.0
21
53858.0
0
LINE
8
BLACK
10
78808.0
20
53858.0
11
78770.0
21
53858.0
0
LINE
8
BLACK
10
78770.0
20
53858.0
11
78712.0
21
53877.0
0
LINE
8
BLACK
10
78712.0
20
53877.0
11
78674.0
21
53915.0
0
LINE
8
BLACK
10
78674.0
20
53915.0
11
78655.0
21
53953.0
0
LINE
8
BLACK
10
78655.0
20
53953.0
11
78636.0
21
54030.0
0
LINE
8
BLACK
10
78636.0
20
54030.0
11
78636.0
21
54087.0
0
LINE
8
BLACK
10
78636.0
20
54087.0
11
78655.0
21
54163.0
0
LINE
8
BLACK
10
78655.0
20
54163.0
11
78674.0
21
54201.0
0
LINE
8
BLACK
10
78674.0
20
54201.0
11
78712.0
21
54239.0
0
LINE
8
BLACK
10
78712.0
20
54239.0
11
78770.0
21
54258.0
0
LINE
8
BLACK
10
78770.0
20
54258.0
11
78808.0
21
54258.0
0
LINE
8
BLACK
10
78808.0
20
54258.0
11
78865.0
21
54239.0
0
LINE
8
BLACK
10
78865.0
20
54239.0
11
78884.0
21
54220.0
0
LINE
8
BLACK
10
79036.0
20
54220.0
11
79055.0
21
54239.0
0
LINE
8
BLACK
10
79055.0
20
54239.0
11
79093.0
21
54258.0
0
LINE
8
BLACK
10
79093.0
20
54258.0
11
79189.0
21
54258.0
0
LINE
8
BLACK
10
79189.0
20
54258.0
11
79227.0
21
54239.0
0
LINE
8
BLACK
10
79227.0
20
54239.0
11
79246.0
21
54220.0
0
LINE
8
BLACK
10
79246.0
20
54220.0
11
79265.0
21
54182.0
0
LINE
8
BLACK
10
79265.0
20
54182.0
11
79265.0
21
54144.0
0
LINE
8
BLACK
10
79265.0
20
54144.0
11
79246.0
21
54087.0
0
LINE
8
BLACK
10
79246.0
20
54087.0
11
79017.0
21
53858.0
0
LINE
8
BLACK
10
79017.0
20
53858.0
11
79265.0
21
53858.0
0
LINE
8
BLACK
10
81757.0
20
52137.0
11
81757.0
21
51570.0
0
LINE
8
BLACK
10
81757.0
20
51570.0
11
81779.0
21
51503.0
0
LINE
8
BLACK
10
81779.0
20
51503.0
11
81800.0
21
51470.0
0
LINE
8
BLACK
10
81800.0
20
51470.0
11
81843.0
21
51437.0
0
LINE
8
BLACK
10
81843.0
20
51437.0
11
81929.0
21
51437.0
0
LINE
8
BLACK
10
81929.0
20
51437.0
11
81971.0
21
51470.0
0
LINE
8
BLACK
10
81971.0
20
51470.0
11
81993.0
21
51503.0
0
LINE
8
BLACK
10
81993.0
20
51503.0
11
82014.0
21
51570.0
0
LINE
8
BLACK
10
82014.0
20
51570.0
11
82014.0
21
52137.0
0
LINE
8
BLACK
10
82464.0
20
51437.0
11
82207.0
21
51437.0
0
LINE
8
BLACK
10
82335.0
20
51437.0
11
82335.0
21
52137.0
0
LINE
8
BLACK
10
82335.0
20
52137.0
11
82292.0
21
52037.0
0
LINE
8
BLACK
10
82292.0
20
52037.0
11
82250.0
21
51970.0
0
LINE
8
BLACK
10
82250.0
20
51970.0
11
82207.0
21
51937.0
0
LINE
8
BLACK
10
78212.0
20
47182.0
11
78021.0
21
47048.0
0
LINE
8
BLACK
10
78212.0
20
46953.0
11
77812.0
21
46953.0
0
LINE
8
BLACK
10
77812.0
20
46953.0
11
77812.0
21
47106.0
0
LINE
8
BLACK
10
77812.0
20
47106.0
11
77831.0
21
47144.0
0
LINE
8
BLACK
10
77831.0
20
47144.0
11
77850.0
21
47163.0
0
LINE
8
BLACK
10
77850.0
20
47163.0
11
77888.0
21
47182.0
0
LINE
8
BLACK
10
77888.0
20
47182.0
11
77945.0
21
47182.0
0
LINE
8
BLACK
10
77945.0
20
47182.0
11
77983.0
21
47163.0
0
LINE
8
BLACK
10
77983.0
20
47163.0
11
78002.0
21
47144.0
0
LINE
8
BLACK
10
78002.0
20
47144.0
11
78021.0
21
47106.0
0
LINE
8
BLACK
10
78021.0
20
47106.0
11
78021.0
21
46953.0
0
LINE
8
BLACK
10
77812.0
20
47296.0
11
78212.0
21
47429.0
0
LINE
8
BLACK
10
78212.0
20
47429.0
11
77812.0
21
47563.0
0
LINE
8
BLACK
10
78212.0
20
47906.0
11
78212.0
21
47677.0
0
LINE
8
BLACK
10
78212.0
20
47791.0
11
77812.0
21
47791.0
0
LINE
8
BLACK
10
77812.0
20
47791.0
11
77869.0
21
47753.0
0
LINE
8
BLACK
10
77869.0
20
47753.0
11
77907.0
21
47715.0
0
LINE
8
BLACK
10
77907.0
20
47715.0
11
77926.0
21
47677.0
0
LINE
8
BLACK
10
74567.0
20
54697.0
11
74400.0
21
54959.0
0
LINE
8
BLACK
10
74281.0
20
54697.0
11
74281.0
21
55247.0
0
LINE
8
BLACK
10
74281.0
20
55247.0
11
74472.0
21
55247.0
0
LINE
8
BLACK
10
74472.0
20
55247.0
11
74519.0
21
55221.0
0
LINE
8
BLACK
10
74519.0
20
55221.0
11
74543.0
21
55195.0
0
LINE
8
BLACK
10
74543.0
20
55195.0
11
74567.0
21
55143.0
0
LINE
8
BLACK
10
74567.0
20
55143.0
11
74567.0
21
55064.0
0
LINE
8
BLACK
10
74567.0
20
55064.0
11
74543.0
21
55012.0
0
LINE
8
BLACK
10
74543.0
20
55012.0
11
74519.0
21
54985.0
0
LINE
8
BLACK
10
74519.0
20
54985.0
11
74472.0
21
54959.0
0
LINE
8
BLACK
10
74472.0
20
54959.0
11
74281.0
21
54959.0
0
LINE
8
BLACK
10
74733.0
20
55247.0
11
75043.0
21
55247.0
0
LINE
8
BLACK
10
75043.0
20
55247.0
11
74876.0
21
55038.0
0
LINE
8
BLACK
10
74876.0
20
55038.0
11
74948.0
21
55038.0
0
LINE
8
BLACK
10
74948.0
20
55038.0
11
74995.0
21
55012.0
0
LINE
8
BLACK
10
74995.0
20
55012.0
11
75019.0
21
54985.0
0
LINE
8
BLACK
10
75019.0
20
54985.0
11
75043.0
21
54933.0
0
LINE
8
BLACK
10
75043.0
20
54933.0
11
75043.0
21
54802.0
0
LINE
8
BLACK
10
75043.0
20
54802.0
11
75019.0
21
54750.0
0
LINE
8
BLACK
10
75019.0
20
54750.0
11
74995.0
21
54724.0
0
LINE
8
BLACK
10
74995.0
20
54724.0
11
74948.0
21
54697.0
0
LINE
8
BLACK
10
74948.0
20
54697.0
11
74805.0
21
54697.0
0
LINE
8
BLACK
10
74805.0
20
54697.0
11
74757.0
21
54724.0
0
LINE
8
BLACK
10
74757.0
20
54724.0
11
74733.0
21
54750.0
0
LINE
8
BLACK
10
73717.0
20
52097.0
11
73550.0
21
52359.0
0
LINE
8
BLACK
10
73431.0
20
52097.0
11
73431.0
21
52647.0
0
LINE
8
BLACK
10
73431.0
20
52647.0
11
73622.0
21
52647.0
0
LINE
8
BLACK
10
73622.0
20
52647.0
11
73669.0
21
52621.0
0
LINE
8
BLACK
10
73669.0
20
52621.0
11
73693.0
21
52595.0
0
LINE
8
BLACK
10
73693.0
20
52595.0
11
73717.0
21
52543.0
0
LINE
8
BLACK
10
73717.0
20
52543.0
11
73717.0
21
52464.0
0
LINE
8
BLACK
10
73717.0
20
52464.0
11
73693.0
21
52412.0
0
LINE
8
BLACK
10
73693.0
20
52412.0
11
73669.0
21
52385.0
0
LINE
8
BLACK
10
73669.0
20
52385.0
11
73622.0
21
52359.0
0
LINE
8
BLACK
10
73622.0
20
52359.0
11
73431.0
21
52359.0
0
LINE
8
BLACK
10
74145.0
20
52464.0
11
74145.0
21
52097.0
0
LINE
8
BLACK
10
74026.0
20
52674.0
11
73907.0
21
52281.0
0
LINE
8
BLACK
10
73907.0
20
52281.0
11
74217.0
21
52281.0
0
LINE
8
BLACK
10
74667.0
20
49647.0
11
74500.0
21
49909.0
0
LINE
8
BLACK
10
74381.0
20
49647.0
11
74381.0
21
50197.0
0
LINE
8
BLACK
10
74381.0
20
50197.0
11
74572.0
21
50197.0
0
LINE
8
BLACK
10
74572.0
20
50197.0
11
74619.0
21
50171.0
0
LINE
8
BLACK
10
74619.0
20
50171.0
11
74643.0
21
50145.0
0
LINE
8
BLACK
10
74643.0
20
50145.0
11
74667.0
21
50093.0
0
LINE
8
BLACK
10
74667.0
20
50093.0
11
74667.0
21
50014.0
0
LINE
8
BLACK
10
74667.0
20
50014.0
11
74643.0
21
49962.0
0
LINE
8
BLACK
10
74643.0
20
49962.0
11
74619.0
21
49935.0
0
LINE
8
BLACK
10
74619.0
20
49935.0
11
74572.0
21
49909.0
0
LINE
8
BLACK
10
74572.0
20
49909.0
11
74381.0
21
49909.0
0
LINE
8
BLACK
10
75119.0
20
50197.0
11
74881.0
21
50197.0
0
LINE
8
BLACK
10
74881.0
20
50197.0
11
74857.0
21
49935.0
0
LINE
8
BLACK
10
74857.0
20
49935.0
11
74881.0
21
49962.0
0
LINE
8
BLACK
10
74881.0
20
49962.0
11
74929.0
21
49988.0
0
LINE
8
BLACK
10
74929.0
20
49988.0
11
75048.0
21
49988.0
0
LINE
8
BLACK
10
75048.0
20
49988.0
11
75095.0
21
49962.0
0
LINE
8
BLACK
10
75095.0
20
49962.0
11
75119.0
21
49935.0
0
LINE
8
BLACK
10
75119.0
20
49935.0
11
75143.0
21
49883.0
0
LINE
8
BLACK
10
75143.0
20
49883.0
11
75143.0
21
49752.0
0
LINE
8
BLACK
10
75143.0
20
49752.0
11
75119.0
21
49700.0
0
LINE
8
BLACK
10
75119.0
20
49700.0
11
75095.0
21
49674.0
0
LINE
8
BLACK
10
75095.0
20
49674.0
11
75048.0
21
49647.0
0
LINE
8
BLACK
10
75048.0
20
49647.0
11
74929.0
21
49647.0
0
LINE
8
BLACK
10
74929.0
20
49647.0
11
74881.0
21
49674.0
0
LINE
8
BLACK
10
74881.0
20
49674.0
11
74857.0
21
49700.0
0
LINE
8
BLACK
10
73867.0
20
47247.0
11
73700.0
21
47509.0
0
LINE
8
BLACK
10
73581.0
20
47247.0
11
73581.0
21
47797.0
0
LINE
8
BLACK
10
73581.0
20
47797.0
11
73772.0
21
47797.0
0
LINE
8
BLACK
10
73772.0
20
47797.0
11
73819.0
21
47771.0
0
LINE
8
BLACK
10
73819.0
20
47771.0
11
73843.0
21
47745.0
0
LINE
8
BLACK
10
73843.0
20
47745.0
11
73867.0
21
47693.0
0
LINE
8
BLACK
10
73867.0
20
47693.0
11
73867.0
21
47614.0
0
LINE
8
BLACK
10
73867.0
20
47614.0
11
73843.0
21
47562.0
0
LINE
8
BLACK
10
73843.0
20
47562.0
11
73819.0
21
47535.0
0
LINE
8
BLACK
10
73819.0
20
47535.0
11
73772.0
21
47509.0
0
LINE
8
BLACK
10
73772.0
20
47509.0
11
73581.0
21
47509.0
0
LINE
8
BLACK
10
74295.0
20
47797.0
11
74200.0
21
47797.0
0
LINE
8
BLACK
10
74200.0
20
47797.0
11
74152.0
21
47771.0
0
LINE
8
BLACK
10
74152.0
20
47771.0
11
74129.0
21
47745.0
0
LINE
8
BLACK
10
74129.0
20
47745.0
11
74081.0
21
47666.0
0
LINE
8
BLACK
10
74081.0
20
47666.0
11
74057.0
21
47562.0
0
LINE
8
BLACK
10
74057.0
20
47562.0
11
74057.0
21
47352.0
0
LINE
8
BLACK
10
74057.0
20
47352.0
11
74081.0
21
47300.0
0
LINE
8
BLACK
10
74081.0
20
47300.0
11
74105.0
21
47274.0
0
LINE
8
BLACK
10
74105.0
20
47274.0
11
74152.0
21
47247.0
0
LINE
8
BLACK
10
74152.0
20
47247.0
11
74248.0
21
47247.0
0
LINE
8
BLACK
10
74248.0
20
47247.0
11
74295.0
21
47274.0
0
LINE
8
BLACK
10
74295.0
20
47274.0
11
74319.0
21
47300.0
0
LINE
8
BLACK
10
74319.0
20
47300.0
11
74343.0
21
47352.0
0
LINE
8
BLACK
10
74343.0
20
47352.0
11
74343.0
21
47483.0
0
LINE
8
BLACK
10
74343.0
20
47483.0
11
74319.0
21
47535.0
0
LINE
8
BLACK
10
74319.0
20
47535.0
11
74295.0
21
47562.0
0
LINE
8
BLACK
10
74295.0
20
47562.0
11
74248.0
21
47588.0
0
LINE
8
BLACK
10
74248.0
20
47588.0
11
74152.0
21
47588.0
0
LINE
8
BLACK
10
74152.0
20
47588.0
11
74105.0
21
47562.0
0
LINE
8
BLACK
10
74105.0
20
47562.0
11
74081.0
21
47535.0
0
LINE
8
BLACK
10
74081.0
20
47535.0
11
74057.0
21
47483.0
0
LINE
8
BLACK
10
74617.0
20
55697.0
11
74450.0
21
55959.0
0
LINE
8
BLACK
10
74331.0
20
55697.0
11
74331.0
21
56247.0
0
LINE
8
BLACK
10
74331.0
20
56247.0
11
74522.0
21
56247.0
0
LINE
8
BLACK
10
74522.0
20
56247.0
11
74569.0
21
56221.0
0
LINE
8
BLACK
10
74569.0
20
56221.0
11
74593.0
21
56195.0
0
LINE
8
BLACK
10
74593.0
20
56195.0
11
74617.0
21
56143.0
0
LINE
8
BLACK
10
74617.0
20
56143.0
11
74617.0
21
56064.0
0
LINE
8
BLACK
10
74617.0
20
56064.0
11
74593.0
21
56012.0
0
LINE
8
BLACK
10
74593.0
20
56012.0
11
74569.0
21
55985.0
0
LINE
8
BLACK
10
74569.0
20
55985.0
11
74522.0
21
55959.0
0
LINE
8
BLACK
10
74522.0
20
55959.0
11
74331.0
21
55959.0
0
LINE
8
BLACK
10
74783.0
20
56247.0
11
75117.0
21
56247.0
0
LINE
8
BLACK
10
75117.0
20
56247.0
11
74902.0
21
55697.0
0
LINE
8
BLACK
10
73667.0
20
53097.0
11
73500.0
21
53359.0
0
LINE
8
BLACK
10
73381.0
20
53097.0
11
73381.0
21
53647.0
0
LINE
8
BLACK
10
73381.0
20
53647.0
11
73572.0
21
53647.0
0
LINE
8
BLACK
10
73572.0
20
53647.0
11
73619.0
21
53621.0
0
LINE
8
BLACK
10
73619.0
20
53621.0
11
73643.0
21
53595.0
0
LINE
8
BLACK
10
73643.0
20
53595.0
11
73667.0
21
53543.0
0
LINE
8
BLACK
10
73667.0
20
53543.0
11
73667.0
21
53464.0
0
LINE
8
BLACK
10
73667.0
20
53464.0
11
73643.0
21
53412.0
0
LINE
8
BLACK
10
73643.0
20
53412.0
11
73619.0
21
53385.0
0
LINE
8
BLACK
10
73619.0
20
53385.0
11
73572.0
21
53359.0
0
LINE
8
BLACK
10
73572.0
20
53359.0
11
73381.0
21
53359.0
0
LINE
8
BLACK
10
73952.0
20
53412.0
11
73905.0
21
53438.0
0
LINE
8
BLACK
10
73905.0
20
53438.0
11
73881.0
21
53464.0
0
LINE
8
BLACK
10
73881.0
20
53464.0
11
73857.0
21
53516.0
0
LINE
8
BLACK
10
73857.0
20
53516.0
11
73857.0
21
53543.0
0
LINE
8
BLACK
10
73857.0
20
53543.0
11
73881.0
21
53595.0
0
LINE
8
BLACK
10
73881.0
20
53595.0
11
73905.0
21
53621.0
0
LINE
8
BLACK
10
73905.0
20
53621.0
11
73952.0
21
53647.0
0
LINE
8
BLACK
10
73952.0
20
53647.0
11
74048.0
21
53647.0
0
LINE
8
BLACK
10
74048.0
20
53647.0
11
74095.0
21
53621.0
0
LINE
8
BLACK
10
74095.0
20
53621.0
11
74119.0
21
53595.0
0
LINE
8
BLACK
10
74119.0
20
53595.0
11
74143.0
21
53543.0
0
LINE
8
BLACK
10
74143.0
20
53543.0
11
74143.0
21
53516.0
0
LINE
8
BLACK
10
74143.0
20
53516.0
11
74119.0
21
53464.0
0
LINE
8
BLACK
10
74119.0
20
53464.0
11
74095.0
21
53438.0
0
LINE
8
BLACK
10
74095.0
20
53438.0
11
74048.0
21
53412.0
0
LINE
8
BLACK
10
74048.0
20
53412.0
11
73952.0
21
53412.0
0
LINE
8
BLACK
10
73952.0
20
53412.0
11
73905.0
21
53385.0
0
LINE
8
BLACK
10
73905.0
20
53385.0
11
73881.0
21
53359.0
0
LINE
8
BLACK
10
73881.0
20
53359.0
11
73857.0
21
53307.0
0
LINE
8
BLACK
10
73857.0
20
53307.0
11
73857.0
21
53202.0
0
LINE
8
BLACK
10
73857.0
20
53202.0
11
73881.0
21
53150.0
0
LINE
8
BLACK
10
73881.0
20
53150.0
11
73905.0
21
53124.0
0
LINE
8
BLACK
10
73905.0
20
53124.0
11
73952.0
21
53097.0
0
LINE
8
BLACK
10
73952.0
20
53097.0
11
74048.0
21
53097.0
0
LINE
8
BLACK
10
74048.0
20
53097.0
11
74095.0
21
53124.0
0
LINE
8
BLACK
10
74095.0
20
53124.0
11
74119.0
21
53150.0
0
LINE
8
BLACK
10
74119.0
20
53150.0
11
74143.0
21
53202.0
0
LINE
8
BLACK
10
74143.0
20
53202.0
11
74143.0
21
53307.0
0
LINE
8
BLACK
10
74143.0
20
53307.0
11
74119.0
21
53359.0
0
LINE
8
BLACK
10
74119.0
20
53359.0
11
74095.0
21
53385.0
0
LINE
8
BLACK
10
74095.0
20
53385.0
11
74048.0
21
53412.0
0
LINE
8
BLACK
10
74667.0
20
50697.0
11
74500.0
21
50959.0
0
LINE
8
BLACK
10
74381.0
20
50697.0
11
74381.0
21
51247.0
0
LINE
8
BLACK
10
74381.0
20
51247.0
11
74572.0
21
51247.0
0
LINE
8
BLACK
10
74572.0
20
51247.0
11
74619.0
21
51221.0
0
LINE
8
BLACK
10
74619.0
20
51221.0
11
74643.0
21
51195.0
0
LINE
8
BLACK
10
74643.0
20
51195.0
11
74667.0
21
51143.0
0
LINE
8
BLACK
10
74667.0
20
51143.0
11
74667.0
21
51064.0
0
LINE
8
BLACK
10
74667.0
20
51064.0
11
74643.0
21
51012.0
0
LINE
8
BLACK
10
74643.0
20
51012.0
11
74619.0
21
50985.0
0
LINE
8
BLACK
10
74619.0
20
50985.0
11
74572.0
21
50959.0
0
LINE
8
BLACK
10
74572.0
20
50959.0
11
74381.0
21
50959.0
0
LINE
8
BLACK
10
74905.0
20
50697.0
11
75000.0
21
50697.0
0
LINE
8
BLACK
10
75000.0
20
50697.0
11
75048.0
21
50724.0
0
LINE
8
BLACK
10
75048.0
20
50724.0
11
75072.0
21
50750.0
0
LINE
8
BLACK
10
75072.0
20
50750.0
11
75119.0
21
50828.0
0
LINE
8
BLACK
10
75119.0
20
50828.0
11
75143.0
21
50933.0
0
LINE
8
BLACK
10
75143.0
20
50933.0
11
75143.0
21
51143.0
0
LINE
8
BLACK
10
75143.0
20
51143.0
11
75119.0
21
51195.0
0
LINE
8
BLACK
10
75119.0
20
51195.0
11
75095.0
21
51221.0
0
LINE
8
BLACK
10
75095.0
20
51221.0
11
75048.0
21
51247.0
0
LINE
8
BLACK
10
75048.0
20
51247.0
11
74952.0
21
51247.0
0
LINE
8
BLACK
10
74952.0
20
51247.0
11
74905.0
21
51221.0
0
LINE
8
BLACK
10
74905.0
20
51221.0
11
74881.0
21
51195.0
0
LINE
8
BLACK
10
74881.0
20
51195.0
11
74857.0
21
51143.0
0
LINE
8
BLACK
10
74857.0
20
51143.0
11
74857.0
21
51012.0
0
LINE
8
BLACK
10
74857.0
20
51012.0
11
74881.0
21
50959.0
0
LINE
8
BLACK
10
74881.0
20
50959.0
11
74905.0
21
50933.0
0
LINE
8
BLACK
10
74905.0
20
50933.0
11
74952.0
21
50907.0
0
LINE
8
BLACK
10
74952.0
20
50907.0
11
75048.0
21
50907.0
0
LINE
8
BLACK
10
75048.0
20
50907.0
11
75095.0
21
50933.0
0
LINE
8
BLACK
10
75095.0
20
50933.0
11
75119.0
21
50959.0
0
LINE
8
BLACK
10
75119.0
20
50959.0
11
75143.0
21
51012.0
0
LINE
8
BLACK
10
73629.0
20
48297.0
11
73462.0
21
48559.0
0
LINE
8
BLACK
10
73343.0
20
48297.0
11
73343.0
21
48847.0
0
LINE
8
BLACK
10
73343.0
20
48847.0
11
73534.0
21
48847.0
0
LINE
8
BLACK
10
73534.0
20
48847.0
11
73581.0
21
48821.0
0
LINE
8
BLACK
10
73581.0
20
48821.0
11
73605.0
21
48795.0
0
LINE
8
BLACK
10
73605.0
20
48795.0
11
73629.0
21
48743.0
0
LINE
8
BLACK
10
73629.0
20
48743.0
11
73629.0
21
48664.0
0
LINE
8
BLACK
10
73629.0
20
48664.0
11
73605.0
21
48612.0
0
LINE
8
BLACK
10
73605.0
20
48612.0
11
73581.0
21
48585.0
0
LINE
8
BLACK
10
73581.0
20
48585.0
11
73534.0
21
48559.0
0
LINE
8
BLACK
10
73534.0
20
48559.0
11
73343.0
21
48559.0
0
LINE
8
BLACK
10
74105.0
20
48297.0
11
73819.0
21
48297.0
0
LINE
8
BLACK
10
73962.0
20
48297.0
11
73962.0
21
48847.0
0
LINE
8
BLACK
10
73962.0
20
48847.0
11
73914.0
21
48769.0
0
LINE
8
BLACK
10
73914.0
20
48769.0
11
73867.0
21
48716.0
0
LINE
8
BLACK
10
73867.0
20
48716.0
11
73819.0
21
48690.0
0
LINE
8
BLACK
10
74414.0
20
48847.0
11
74462.0
21
48847.0
0
LINE
8
BLACK
10
74462.0
20
48847.0
11
74510.0
21
48821.0
0
LINE
8
BLACK
10
74510.0
20
48821.0
11
74533.0
21
48795.0
0
LINE
8
BLACK
10
74533.0
20
48795.0
11
74557.0
21
48743.0
0
LINE
8
BLACK
10
74557.0
20
48743.0
11
74581.0
21
48638.0
0
LINE
8
BLACK
10
74581.0
20
48638.0
11
74581.0
21
48507.0
0
LINE
8
BLACK
10
74581.0
20
48507.0
11
74557.0
21
48402.0
0
LINE
8
BLACK
10
74557.0
20
48402.0
11
74533.0
21
48350.0
0
LINE
8
BLACK
10
74533.0
20
48350.0
11
74510.0
21
48324.0
0
LINE
8
BLACK
10
74510.0
20
48324.0
11
74462.0
21
48297.0
0
LINE
8
BLACK
10
74462.0
20
48297.0
11
74414.0
21
48297.0
0
LINE
8
BLACK
10
74414.0
20
48297.0
11
74367.0
21
48324.0
0
LINE
8
BLACK
10
74367.0
20
48324.0
11
74343.0
21
48350.0
0
LINE
8
BLACK
10
74343.0
20
48350.0
11
74319.0
21
48402.0
0
LINE
8
BLACK
10
74319.0
20
48402.0
11
74295.0
21
48507.0
0
LINE
8
BLACK
10
74295.0
20
48507.0
11
74295.0
21
48638.0
0
LINE
8
BLACK
10
74295.0
20
48638.0
11
74319.0
21
48743.0
0
LINE
8
BLACK
10
74319.0
20
48743.0
11
74343.0
21
48795.0
0
LINE
8
BLACK
10
74343.0
20
48795.0
11
74367.0
21
48821.0
0
LINE
8
BLACK
10
74367.0
20
48821.0
11
74414.0
21
48847.0
0
LINE
8
BLACK
10
65478.0
20
51049.0
11
65478.0
21
51349.0
0
LINE
8
BLACK
10
65478.0
20
51349.0
11
65550.0
21
51349.0
0
LINE
8
BLACK
10
65550.0
20
51349.0
11
65593.0
21
51334.0
0
LINE
8
BLACK
10
65593.0
20
51334.0
11
65621.0
21
51306.0
0
LINE
8
BLACK
10
65621.0
20
51306.0
11
65636.0
21
51277.0
0
LINE
8
BLACK
10
65636.0
20
51277.0
11
65650.0
21
51220.0
0
LINE
8
BLACK
10
65650.0
20
51220.0
11
65650.0
21
51177.0
0
LINE
8
BLACK
10
65650.0
20
51177.0
11
65636.0
21
51120.0
0
LINE
8
BLACK
10
65636.0
20
51120.0
11
65621.0
21
51091.0
0
LINE
8
BLACK
10
65621.0
20
51091.0
11
65593.0
21
51063.0
0
LINE
8
BLACK
10
65593.0
20
51063.0
11
65550.0
21
51049.0
0
LINE
8
BLACK
10
65550.0
20
51049.0
11
65478.0
21
51049.0
0
LINE
8
BLACK
10
65750.0
20
51349.0
11
65950.0
21
51349.0
0
LINE
8
BLACK
10
65950.0
20
51349.0
11
65821.0
21
51049.0
0
LINE
8
BLACK
10
69285.0
20
48799.0
11
69285.0
21
49099.0
0
LINE
8
BLACK
10
69285.0
20
49099.0
11
69357.0
21
49099.0
0
LINE
8
BLACK
10
69357.0
20
49099.0
11
69400.0
21
49084.0
0
LINE
8
BLACK
10
69400.0
20
49084.0
11
69428.0
21
49056.0
0
LINE
8
BLACK
10
69428.0
20
49056.0
11
69443.0
21
49027.0
0
LINE
8
BLACK
10
69443.0
20
49027.0
11
69457.0
21
48970.0
0
LINE
8
BLACK
10
69457.0
20
48970.0
11
69457.0
21
48927.0
0
LINE
8
BLACK
10
69457.0
20
48927.0
11
69443.0
21
48870.0
0
LINE
8
BLACK
10
69443.0
20
48870.0
11
69428.0
21
48841.0
0
LINE
8
BLACK
10
69428.0
20
48841.0
11
69400.0
21
48813.0
0
LINE
8
BLACK
10
69400.0
20
48813.0
11
69357.0
21
48799.0
0
LINE
8
BLACK
10
69357.0
20
48799.0
11
69285.0
21
48799.0
0
LINE
8
BLACK
10
69743.0
20
48799.0
11
69571.0
21
48799.0
0
LINE
8
BLACK
10
69657.0
20
48799.0
11
69657.0
21
49099.0
0
LINE
8
BLACK
10
69657.0
20
49099.0
11
69628.0
21
49056.0
0
LINE
8
BLACK
10
69628.0
20
49056.0
11
69600.0
21
49027.0
0
LINE
8
BLACK
10
69600.0
20
49027.0
11
69571.0
21
49013.0
0
LINE
8
BLACK
10
69857.0
20
49070.0
11
69871.0
21
49084.0
0
LINE
8
BLACK
10
69871.0
20
49084.0
11
69900.0
21
49099.0
0
LINE
8
BLACK
10
69900.0
20
49099.0
11
69971.0
21
49099.0
0
LINE
8
BLACK
10
69971.0
20
49099.0
11
70000.0
21
49084.0
0
LINE
8
BLACK
10
70000.0
20
49084.0
11
70014.0
21
49070.0
0
LINE
8
BLACK
10
70014.0
20
49070.0
11
70029.0
21
49041.0
0
LINE
8
BLACK
10
70029.0
20
49041.0
11
70029.0
21
49013.0
0
LINE
8
BLACK
10
70029.0
20
49013.0
11
70014.0
21
48970.0
0
LINE
8
BLACK
10
70014.0
20
48970.0
11
69843.0
21
48799.0
0
LINE
8
BLACK
10
69843.0
20
48799.0
11
70029.0
21
48799.0
0
LINE
8
BLACK
10
66935.0
20
48849.0
11
66935.0
21
49149.0
0
LINE
8
BLACK
10
66935.0
20
49149.0
11
67007.0
21
49149.0
0
LINE
8
BLACK
10
67007.0
20
49149.0
11
67050.0
21
49134.0
0
LINE
8
BLACK
10
67050.0
20
49134.0
11
67078.0
21
49106.0
0
LINE
8
BLACK
10
67078.0
20
49106.0
11
67093.0
21
49077.0
0
LINE
8
BLACK
10
67093.0
20
49077.0
11
67107.0
21
49020.0
0
LINE
8
BLACK
10
67107.0
20
49020.0
11
67107.0
21
48977.0
0
LINE
8
BLACK
10
67107.0
20
48977.0
11
67093.0
21
48920.0
0
LINE
8
BLACK
10
67093.0
20
48920.0
11
67078.0
21
48891.0
0
LINE
8
BLACK
10
67078.0
20
48891.0
11
67050.0
21
48863.0
0
LINE
8
BLACK
10
67050.0
20
48863.0
11
67007.0
21
48849.0
0
LINE
8
BLACK
10
67007.0
20
48849.0
11
66935.0
21
48849.0
0
LINE
8
BLACK
10
67393.0
20
48849.0
11
67221.0
21
48849.0
0
LINE
8
BLACK
10
67307.0
20
48849.0
11
67307.0
21
49149.0
0
LINE
8
BLACK
10
67307.0
20
49149.0
11
67278.0
21
49106.0
0
LINE
8
BLACK
10
67278.0
20
49106.0
11
67250.0
21
49077.0
0
LINE
8
BLACK
10
67250.0
20
49077.0
11
67221.0
21
49063.0
0
LINE
8
BLACK
10
67679.0
20
48849.0
11
67507.0
21
48849.0
0
LINE
8
BLACK
10
67593.0
20
48849.0
11
67593.0
21
49149.0
0
LINE
8
BLACK
10
67593.0
20
49149.0
11
67564.0
21
49106.0
0
LINE
8
BLACK
10
67564.0
20
49106.0
11
67536.0
21
49077.0
0
LINE
8
BLACK
10
67536.0
20
49077.0
11
67507.0
21
49063.0
0
LINE
8
BLACK
10
65335.0
20
49149.0
11
65335.0
21
49449.0
0
LINE
8
BLACK
10
65335.0
20
49449.0
11
65407.0
21
49449.0
0
LINE
8
BLACK
10
65407.0
20
49449.0
11
65450.0
21
49434.0
0
LINE
8
BLACK
10
65450.0
20
49434.0
11
65478.0
21
49406.0
0
LINE
8
BLACK
10
65478.0
20
49406.0
11
65493.0
21
49377.0
0
LINE
8
BLACK
10
65493.0
20
49377.0
11
65507.0
21
49320.0
0
LINE
8
BLACK
10
65507.0
20
49320.0
11
65507.0
21
49277.0
0
LINE
8
BLACK
10
65507.0
20
49277.0
11
65493.0
21
49220.0
0
LINE
8
BLACK
10
65493.0
20
49220.0
11
65478.0
21
49191.0
0
LINE
8
BLACK
10
65478.0
20
49191.0
11
65450.0
21
49163.0
0
LINE
8
BLACK
10
65450.0
20
49163.0
11
65407.0
21
49149.0
0
LINE
8
BLACK
10
65407.0
20
49149.0
11
65335.0
21
49149.0
0
LINE
8
BLACK
10
65793.0
20
49149.0
11
65621.0
21
49149.0
0
LINE
8
BLACK
10
65707.0
20
49149.0
11
65707.0
21
49449.0
0
LINE
8
BLACK
10
65707.0
20
49449.0
11
65678.0
21
49406.0
0
LINE
8
BLACK
10
65678.0
20
49406.0
11
65650.0
21
49377.0
0
LINE
8
BLACK
10
65650.0
20
49377.0
11
65621.0
21
49363.0
0
LINE
8
BLACK
10
65979.0
20
49449.0
11
66007.0
21
49449.0
0
LINE
8
BLACK
10
66007.0
20
49449.0
11
66036.0
21
49434.0
0
LINE
8
BLACK
10
66036.0
20
49434.0
11
66050.0
21
49420.0
0
LINE
8
BLACK
10
66050.0
20
49420.0
11
66064.0
21
49391.0
0
LINE
8
BLACK
10
66064.0
20
49391.0
11
66079.0
21
49334.0
0
LINE
8
BLACK
10
66079.0
20
49334.0
11
66079.0
21
49263.0
0
LINE
8
BLACK
10
66079.0
20
49263.0
11
66064.0
21
49206.0
0
LINE
8
BLACK
10
66064.0
20
49206.0
11
66050.0
21
49177.0
0
LINE
8
BLACK
10
66050.0
20
49177.0
11
66036.0
21
49163.0
0
LINE
8
BLACK
10
66036.0
20
49163.0
11
66007.0
21
49149.0
0
LINE
8
BLACK
10
66007.0
20
49149.0
11
65979.0
21
49149.0
0
LINE
8
BLACK
10
65979.0
20
49149.0
11
65950.0
21
49163.0
0
LINE
8
BLACK
10
65950.0
20
49163.0
11
65936.0
21
49177.0
0
LINE
8
BLACK
10
65936.0
20
49177.0
11
65921.0
21
49206.0
0
LINE
8
BLACK
10
65921.0
20
49206.0
11
65907.0
21
49263.0
0
LINE
8
BLACK
10
65907.0
20
49263.0
11
65907.0
21
49334.0
0
LINE
8
BLACK
10
65907.0
20
49334.0
11
65921.0
21
49391.0
0
LINE
8
BLACK
10
65921.0
20
49391.0
11
65936.0
21
49420.0
0
LINE
8
BLACK
10
65936.0
20
49420.0
11
65950.0
21
49434.0
0
LINE
8
BLACK
10
65950.0
20
49434.0
11
65979.0
21
49449.0
0
LINE
8
BLACK
10
70378.0
20
51199.0
11
70378.0
21
51499.0
0
LINE
8
BLACK
10
70378.0
20
51499.0
11
70450.0
21
51499.0
0
LINE
8
BLACK
10
70450.0
20
51499.0
11
70493.0
21
51484.0
0
LINE
8
BLACK
10
70493.0
20
51484.0
11
70521.0
21
51456.0
0
LINE
8
BLACK
10
70521.0
20
51456.0
11
70536.0
21
51427.0
0
LINE
8
BLACK
10
70536.0
20
51427.0
11
70550.0
21
51370.0
0
LINE
8
BLACK
10
70550.0
20
51370.0
11
70550.0
21
51327.0
0
LINE
8
BLACK
10
70550.0
20
51327.0
11
70536.0
21
51270.0
0
LINE
8
BLACK
10
70536.0
20
51270.0
11
70521.0
21
51241.0
0
LINE
8
BLACK
10
70521.0
20
51241.0
11
70493.0
21
51213.0
0
LINE
8
BLACK
10
70493.0
20
51213.0
11
70450.0
21
51199.0
0
LINE
8
BLACK
10
70450.0
20
51199.0
11
70378.0
21
51199.0
0
LINE
8
BLACK
10
70693.0
20
51199.0
11
70750.0
21
51199.0
0
LINE
8
BLACK
10
70750.0
20
51199.0
11
70778.0
21
51213.0
0
LINE
8
BLACK
10
70778.0
20
51213.0
11
70793.0
21
51227.0
0
LINE
8
BLACK
10
70793.0
20
51227.0
11
70821.0
21
51270.0
0
LINE
8
BLACK
10
70821.0
20
51270.0
11
70836.0
21
51327.0
0
LINE
8
BLACK
10
70836.0
20
51327.0
11
70836.0
21
51441.0
0
LINE
8
BLACK
10
70836.0
20
51441.0
11
70821.0
21
51470.0
0
LINE
8
BLACK
10
70821.0
20
51470.0
11
70807.0
21
51484.0
0
LINE
8
BLACK
10
70807.0
20
51484.0
11
70778.0
21
51499.0
0
LINE
8
BLACK
10
70778.0
20
51499.0
11
70721.0
21
51499.0
0
LINE
8
BLACK
10
70721.0
20
51499.0
11
70693.0
21
51484.0
0
LINE
8
BLACK
10
70693.0
20
51484.0
11
70678.0
21
51470.0
0
LINE
8
BLACK
10
70678.0
20
51470.0
11
70664.0
21
51441.0
0
LINE
8
BLACK
10
70664.0
20
51441.0
11
70664.0
21
51370.0
0
LINE
8
BLACK
10
70664.0
20
51370.0
11
70678.0
21
51341.0
0
LINE
8
BLACK
10
70678.0
20
51341.0
11
70693.0
21
51327.0
0
LINE
8
BLACK
10
70693.0
20
51327.0
11
70721.0
21
51313.0
0
LINE
8
BLACK
10
70721.0
20
51313.0
11
70778.0
21
51313.0
0
LINE
8
BLACK
10
70778.0
20
51313.0
11
70807.0
21
51327.0
0
LINE
8
BLACK
10
70807.0
20
51327.0
11
70821.0
21
51341.0
0
LINE
8
BLACK
10
70821.0
20
51341.0
11
70836.0
21
51370.0
0
LINE
8
BLACK
10
67798.0
20
51185.0
11
67798.0
21
51485.0
0
LINE
8
BLACK
10
67798.0
20
51485.0
11
67870.0
21
51485.0
0
LINE
8
BLACK
10
67870.0
20
51485.0
11
67913.0
21
51470.0
0
LINE
8
BLACK
10
67913.0
20
51470.0
11
67941.0
21
51442.0
0
LINE
8
BLACK
10
67941.0
20
51442.0
11
67956.0
21
51413.0
0
LINE
8
BLACK
10
67956.0
20
51413.0
11
67970.0
21
51356.0
0
LINE
8
BLACK
10
67970.0
20
51356.0
11
67970.0
21
51313.0
0
LINE
8
BLACK
10
67970.0
20
51313.0
11
67956.0
21
51256.0
0
LINE
8
BLACK
10
67956.0
20
51256.0
11
67941.0
21
51227.0
0
LINE
8
BLACK
10
67941.0
20
51227.0
11
67913.0
21
51199.0
0
LINE
8
BLACK
10
67913.0
20
51199.0
11
67870.0
21
51185.0
0
LINE
8
BLACK
10
67870.0
20
51185.0
11
67798.0
21
51185.0
0
LINE
8
BLACK
10
68141.0
20
51356.0
11
68113.0
21
51370.0
0
LINE
8
BLACK
10
68113.0
20
51370.0
11
68098.0
21
51385.0
0
LINE
8
BLACK
10
68098.0
20
51385.0
11
68084.0
21
51413.0
0
LINE
8
BLACK
10
68084.0
20
51413.0
11
68084.0
21
51427.0
0
LINE
8
BLACK
10
68084.0
20
51427.0
11
68098.0
21
51456.0
0
LINE
8
BLACK
10
68098.0
20
51456.0
11
68113.0
21
51470.0
0
LINE
8
BLACK
10
68113.0
20
51470.0
11
68141.0
21
51485.0
0
LINE
8
BLACK
10
68141.0
20
51485.0
11
68198.0
21
51485.0
0
LINE
8
BLACK
10
68198.0
20
51485.0
11
68227.0
21
51470.0
0
LINE
8
BLACK
10
68227.0
20
51470.0
11
68241.0
21
51456.0
0
LINE
8
BLACK
10
68241.0
20
51456.0
11
68256.0
21
51427.0
0
LINE
8
BLACK
10
68256.0
20
51427.0
11
68256.0
21
51413.0
0
LINE
8
BLACK
10
68256.0
20
51413.0
11
68241.0
21
51385.0
0
LINE
8
BLACK
10
68241.0
20
51385.0
11
68227.0
21
51370.0
0
LINE
8
BLACK
10
68227.0
20
51370.0
11
68198.0
21
51356.0
0
LINE
8
BLACK
10
68198.0
20
51356.0
11
68141.0
21
51356.0
0
LINE
8
BLACK
10
68141.0
20
51356.0
11
68113.0
21
51342.0
0
LINE
8
BLACK
10
68113.0
20
51342.0
11
68098.0
21
51327.0
0
LINE
8
BLACK
10
68098.0
20
51327.0
11
68084.0
21
51299.0
0
LINE
8
BLACK
10
68084.0
20
51299.0
11
68084.0
21
51242.0
0
LINE
8
BLACK
10
68084.0
20
51242.0
11
68098.0
21
51213.0
0
LINE
8
BLACK
10
68098.0
20
51213.0
11
68113.0
21
51199.0
0
LINE
8
BLACK
10
68113.0
20
51199.0
11
68141.0
21
51185.0
0
LINE
8
BLACK
10
68141.0
20
51185.0
11
68198.0
21
51185.0
0
LINE
8
BLACK
10
68198.0
20
51185.0
11
68227.0
21
51199.0
0
LINE
8
BLACK
10
68227.0
20
51199.0
11
68241.0
21
51213.0
0
LINE
8
BLACK
10
68241.0
20
51213.0
11
68256.0
21
51242.0
0
LINE
8
BLACK
10
68256.0
20
51242.0
11
68256.0
21
51299.0
0
LINE
8
BLACK
10
68256.0
20
51299.0
11
68241.0
21
51327.0
0
LINE
8
BLACK
10
68241.0
20
51327.0
11
68227.0
21
51342.0
0
LINE
8
BLACK
10
68227.0
20
51342.0
11
68198.0
21
51356.0
0
LINE
8
BLACK
10
69328.0
20
53549.0
11
69328.0
21
53849.0
0
LINE
8
BLACK
10
69328.0
20
53849.0
11
69400.0
21
53849.0
0
LINE
8
BLACK
10
69400.0
20
53849.0
11
69443.0
21
53834.0
0
LINE
8
BLACK
10
69443.0
20
53834.0
11
69471.0
21
53806.0
0
LINE
8
BLACK
10
69471.0
20
53806.0
11
69486.0
21
53777.0
0
LINE
8
BLACK
10
69486.0
20
53777.0
11
69500.0
21
53720.0
0
LINE
8
BLACK
10
69500.0
20
53720.0
11
69500.0
21
53677.0
0
LINE
8
BLACK
10
69500.0
20
53677.0
11
69486.0
21
53620.0
0
LINE
8
BLACK
10
69486.0
20
53620.0
11
69471.0
21
53591.0
0
LINE
8
BLACK
10
69471.0
20
53591.0
11
69443.0
21
53563.0
0
LINE
8
BLACK
10
69443.0
20
53563.0
11
69400.0
21
53549.0
0
LINE
8
BLACK
10
69400.0
20
53549.0
11
69328.0
21
53549.0
0
LINE
8
BLACK
10
69757.0
20
53849.0
11
69700.0
21
53849.0
0
LINE
8
BLACK
10
69700.0
20
53849.0
11
69671.0
21
53834.0
0
LINE
8
BLACK
10
69671.0
20
53834.0
11
69657.0
21
53820.0
0
LINE
8
BLACK
10
69657.0
20
53820.0
11
69628.0
21
53777.0
0
LINE
8
BLACK
10
69628.0
20
53777.0
11
69614.0
21
53720.0
0
LINE
8
BLACK
10
69614.0
20
53720.0
11
69614.0
21
53606.0
0
LINE
8
BLACK
10
69614.0
20
53606.0
11
69628.0
21
53577.0
0
LINE
8
BLACK
10
69628.0
20
53577.0
11
69643.0
21
53563.0
0
LINE
8
BLACK
10
69643.0
20
53563.0
11
69671.0
21
53549.0
0
LINE
8
BLACK
10
69671.0
20
53549.0
11
69728.0
21
53549.0
0
LINE
8
BLACK
10
69728.0
20
53549.0
11
69757.0
21
53563.0
0
LINE
8
BLACK
10
69757.0
20
53563.0
11
69771.0
21
53577.0
0
LINE
8
BLACK
10
69771.0
20
53577.0
11
69786.0
21
53606.0
0
LINE
8
BLACK
10
69786.0
20
53606.0
11
69786.0
21
53677.0
0
LINE
8
BLACK
10
69786.0
20
53677.0
11
69771.0
21
53706.0
0
LINE
8
BLACK
10
69771.0
20
53706.0
11
69757.0
21
53720.0
0
LINE
8
BLACK
10
69757.0
20
53720.0
11
69728.0
21
53734.0
0
LINE
8
BLACK
10
69728.0
20
53734.0
11
69671.0
21
53734.0
0
LINE
8
BLACK
10
69671.0
20
53734.0
11
69643.0
21
53720.0
0
LINE
8
BLACK
10
69643.0
20
53720.0
11
69628.0
21
53706.0
0
LINE
8
BLACK
10
69628.0
20
53706.0
11
69614.0
21
53677.0
0
LINE
8
BLACK
10
66828.0
20
53549.0
11
66828.0
21
53849.0
0
LINE
8
BLACK
10
66828.0
20
53849.0
11
66900.0
21
53849.0
0
LINE
8
BLACK
10
66900.0
20
53849.0
11
66943.0
21
53834.0
0
LINE
8
BLACK
10
66943.0
20
53834.0
11
66971.0
21
53806.0
0
LINE
8
BLACK
10
66971.0
20
53806.0
11
66986.0
21
53777.0
0
LINE
8
BLACK
10
66986.0
20
53777.0
11
67000.0
21
53720.0
0
LINE
8
BLACK
10
67000.0
20
53720.0
11
67000.0
21
53677.0
0
LINE
8
BLACK
10
67000.0
20
53677.0
11
66986.0
21
53620.0
0
LINE
8
BLACK
10
66986.0
20
53620.0
11
66971.0
21
53591.0
0
LINE
8
BLACK
10
66971.0
20
53591.0
11
66943.0
21
53563.0
0
LINE
8
BLACK
10
66943.0
20
53563.0
11
66900.0
21
53549.0
0
LINE
8
BLACK
10
66900.0
20
53549.0
11
66828.0
21
53549.0
0
LINE
8
BLACK
10
67271.0
20
53849.0
11
67128.0
21
53849.0
0
LINE
8
BLACK
10
67128.0
20
53849.0
11
67114.0
21
53706.0
0
LINE
8
BLACK
10
67114.0
20
53706.0
11
67128.0
21
53720.0
0
LINE
8
BLACK
10
67128.0
20
53720.0
11
67157.0
21
53734.0
0
LINE
8
BLACK
10
67157.0
20
53734.0
11
67228.0
21
53734.0
0
LINE
8
BLACK
10
67228.0
20
53734.0
11
67257.0
21
53720.0
0
LINE
8
BLACK
10
67257.0
20
53720.0
11
67271.0
21
53706.0
0
LINE
8
BLACK
10
67271.0
20
53706.0
11
67286.0
21
53677.0
0
LINE
8
BLACK
10
67286.0
20
53677.0
11
67286.0
21
53606.0
0
LINE
8
BLACK
10
67286.0
20
53606.0
11
67271.0
21
53577.0
0
LINE
8
BLACK
10
67271.0
20
53577.0
11
67257.0
21
53563.0
0
LINE
8
BLACK
10
67257.0
20
53563.0
11
67228.0
21
53549.0
0
LINE
8
BLACK
10
67228.0
20
53549.0
11
67157.0
21
53549.0
0
LINE
8
BLACK
10
67157.0
20
53549.0
11
67128.0
21
53563.0
0
LINE
8
BLACK
10
67128.0
20
53563.0
11
67114.0
21
53577.0
0
LINE
8
BLACK
10
65378.0
20
54049.0
11
65378.0
21
54349.0
0
LINE
8
BLACK
10
65378.0
20
54349.0
11
65450.0
21
54349.0
0
LINE
8
BLACK
10
65450.0
20
54349.0
11
65493.0
21
54334.0
0
LINE
8
BLACK
10
65493.0
20
54334.0
11
65521.0
21
54306.0
0
LINE
8
BLACK
10
65521.0
20
54306.0
11
65536.0
21
54277.0
0
LINE
8
BLACK
10
65536.0
20
54277.0
11
65550.0
21
54220.0
0
LINE
8
BLACK
10
65550.0
20
54220.0
11
65550.0
21
54177.0
0
LINE
8
BLACK
10
65550.0
20
54177.0
11
65536.0
21
54120.0
0
LINE
8
BLACK
10
65536.0
20
54120.0
11
65521.0
21
54091.0
0
LINE
8
BLACK
10
65521.0
20
54091.0
11
65493.0
21
54063.0
0
LINE
8
BLACK
10
65493.0
20
54063.0
11
65450.0
21
54049.0
0
LINE
8
BLACK
10
65450.0
20
54049.0
11
65378.0
21
54049.0
0
LINE
8
BLACK
10
65807.0
20
54249.0
11
65807.0
21
54049.0
0
LINE
8
BLACK
10
65736.0
20
54363.0
11
65664.0
21
54149.0
0
LINE
8
BLACK
10
65664.0
20
54149.0
11
65850.0
21
54149.0
0
LINE
8
BLACK
10
70328.0
20
56099.0
11
70328.0
21
56399.0
0
LINE
8
BLACK
10
70328.0
20
56399.0
11
70400.0
21
56399.0
0
LINE
8
BLACK
10
70400.0
20
56399.0
11
70443.0
21
56384.0
0
LINE
8
BLACK
10
70443.0
20
56384.0
11
70471.0
21
56356.0
0
LINE
8
BLACK
10
70471.0
20
56356.0
11
70486.0
21
56327.0
0
LINE
8
BLACK
10
70486.0
20
56327.0
11
70500.0
21
56270.0
0
LINE
8
BLACK
10
70500.0
20
56270.0
11
70500.0
21
56227.0
0
LINE
8
BLACK
10
70500.0
20
56227.0
11
70486.0
21
56170.0
0
LINE
8
BLACK
10
70486.0
20
56170.0
11
70471.0
21
56141.0
0
LINE
8
BLACK
10
70471.0
20
56141.0
11
70443.0
21
56113.0
0
LINE
8
BLACK
10
70443.0
20
56113.0
11
70400.0
21
56099.0
0
LINE
8
BLACK
10
70400.0
20
56099.0
11
70328.0
21
56099.0
0
LINE
8
BLACK
10
70600.0
20
56399.0
11
70786.0
21
56399.0
0
LINE
8
BLACK
10
70786.0
20
56399.0
11
70686.0
21
56284.0
0
LINE
8
BLACK
10
70686.0
20
56284.0
11
70728.0
21
56284.0
0
LINE
8
BLACK
10
70728.0
20
56284.0
11
70757.0
21
56270.0
0
LINE
8
BLACK
10
70757.0
20
56270.0
11
70771.0
21
56256.0
0
LINE
8
BLACK
10
70771.0
20
56256.0
11
70786.0
21
56227.0
0
LINE
8
BLACK
10
70786.0
20
56227.0
11
70786.0
21
56156.0
0
LINE
8
BLACK
10
70786.0
20
56156.0
11
70771.0
21
56127.0
0
LINE
8
BLACK
10
70771.0
20
56127.0
11
70757.0
21
56113.0
0
LINE
8
BLACK
10
70757.0
20
56113.0
11
70728.0
21
56099.0
0
LINE
8
BLACK
10
70728.0
20
56099.0
11
70643.0
21
56099.0
0
LINE
8
BLACK
10
70643.0
20
56099.0
11
70614.0
21
56113.0
0
LINE
8
BLACK
10
70614.0
20
56113.0
11
70600.0
21
56127.0
0
LINE
8
BLACK
10
67878.0
20
56049.0
11
67878.0
21
56349.0
0
LINE
8
BLACK
10
67878.0
20
56349.0
11
67950.0
21
56349.0
0
LINE
8
BLACK
10
67950.0
20
56349.0
11
67993.0
21
56334.0
0
LINE
8
BLACK
10
67993.0
20
56334.0
11
68021.0
21
56306.0
0
LINE
8
BLACK
10
68021.0
20
56306.0
11
68036.0
21
56277.0
0
LINE
8
BLACK
10
68036.0
20
56277.0
11
68050.0
21
56220.0
0
LINE
8
BLACK
10
68050.0
20
56220.0
11
68050.0
21
56177.0
0
LINE
8
BLACK
10
68050.0
20
56177.0
11
68036.0
21
56120.0
0
LINE
8
BLACK
10
68036.0
20
56120.0
11
68021.0
21
56091.0
0
LINE
8
BLACK
10
68021.0
20
56091.0
11
67993.0
21
56063.0
0
LINE
8
BLACK
10
67993.0
20
56063.0
11
67950.0
21
56049.0
0
LINE
8
BLACK
10
67950.0
20
56049.0
11
67878.0
21
56049.0
0
LINE
8
BLACK
10
68164.0
20
56320.0
11
68178.0
21
56334.0
0
LINE
8
BLACK
10
68178.0
20
56334.0
11
68207.0
21
56349.0
0
LINE
8
BLACK
10
68207.0
20
56349.0
11
68278.0
21
56349.0
0
LINE
8
BLACK
10
68278.0
20
56349.0
11
68307.0
21
56334.0
0
LINE
8
BLACK
10
68307.0
20
56334.0
11
68321.0
21
56320.0
0
LINE
8
BLACK
10
68321.0
20
56320.0
11
68336.0
21
56291.0
0
LINE
8
BLACK
10
68336.0
20
56291.0
11
68336.0
21
56263.0
0
LINE
8
BLACK
10
68336.0
20
56263.0
11
68321.0
21
56220.0
0
LINE
8
BLACK
10
68321.0
20
56220.0
11
68150.0
21
56049.0
0
LINE
8
BLACK
10
68150.0
20
56049.0
11
68336.0
21
56049.0
0
LINE
8
BLACK
10
65478.0
20
56099.0
11
65478.0
21
56399.0
0
LINE
8
BLACK
10
65478.0
20
56399.0
11
65550.0
21
56399.0
0
LINE
8
BLACK
10
65550.0
20
56399.0
11
65593.0
21
56384.0
0
LINE
8
BLACK
10
65593.0
20
56384.0
11
65621.0
21
56356.0
0
LINE
8
BLACK
10
65621.0
20
56356.0
11
65636.0
21
56327.0
0
LINE
8
BLACK
10
65636.0
20
56327.0
11
65650.0
21
56270.0
0
LINE
8
BLACK
10
65650.0
20
56270.0
11
65650.0
21
56227.0
0
LINE
8
BLACK
10
65650.0
20
56227.0
11
65636.0
21
56170.0
0
LINE
8
BLACK
10
65636.0
20
56170.0
11
65621.0
21
56141.0
0
LINE
8
BLACK
10
65621.0
20
56141.0
11
65593.0
21
56113.0
0
LINE
8
BLACK
10
65593.0
20
56113.0
11
65550.0
21
56099.0
0
LINE
8
BLACK
10
65550.0
20
56099.0
11
65478.0
21
56099.0
0
LINE
8
BLACK
10
65936.0
20
56099.0
11
65764.0
21
56099.0
0
LINE
8
BLACK
10
65850.0
20
56099.0
11
65850.0
21
56399.0
0
LINE
8
BLACK
10
65850.0
20
56399.0
11
65821.0
21
56356.0
0
LINE
8
BLACK
10
65821.0
20
56356.0
11
65793.0
21
56327.0
0
LINE
8
BLACK
10
65793.0
20
56327.0
11
65764.0
21
56313.0
0
ENDSEC
0
EOF
