0
SECTION
2
HEADER
9
$ANGBASE
50
0.0
9
$ANGDIR
70
0
0
ENDSEC
0
SECTION
2
TABLES
0
TABLE
2
LTYPE
70
1
0
LTYPE
2
CONTINUOUS
70
0
3
Solid line
72
65
73
0
40
0.0
0
ENDTAB
0
TABLE
2
LAYER
70
24
0
LAYER
2
BLACK
70
0
62
1
6
CONTINUOUS
0
LAYER
2
BLUE
70
0
62
2
6
CONTINUOUS
0
LAYER
2
GREEN
70
0
62
3
6
CONTINUOUS
0
LAYER
2
CYAN
70
0
62
4
6
CONTINUOUS
0
LAYER
2
RED
70
0
62
5
6
CONTINUOUS
0
LAYER
2
MAGENTA
70
0
62
6
6
CONTINUOUS
0
LAYER
2
BROWN
70
0
62
7
6
CONTINUOUS
0
LAYER
2
GRAY
70
0
62
8
6
CONTINUOUS
0
LAYER
2
DARKGRAY
70
0
62
9
6
CONTINUOUS
0
LAYER
2
LIGHTBLUE
70
0
62
10
6
CONTINUOUS
0
LAYER
2
LIGHTGREEN
70
0
62
11
6
CONTINUOUS
0
LAYER
2
LIGHTCYAN
70
0
62
12
6
CONTINUOUS
0
LAYER
2
LIGHTRED
70
0
62
13
6
CONTINUOUS
0
LAYER
2
LIGHTMAGENTA
70
0
62
14
6
CONTINUOUS
0
LAYER
2
YELLOW
70
0
62
15
6
CONTINUOUS
0
LAYER
2
WHITE
70
0
62
16
6
CONTINUOUS
0
LAYER
2
DARKDARKGRAY
70
0
62
17
6
CONTINUOUS
0
LAYER
2
DARKBLUE
70
0
62
18
6
CONTINUOUS
0
LAYER
2
DARKGREEN
70
0
62
19
6
CONTINUOUS
0
LAYER
2
DARKCYAN
70
0
62
20
6
CONTINUOUS
0
LAYER
2
DARKRED
70
0
62
21
6
CONTINUOUS
0
LAYER
2
DARKMAGENTA
70
0
62
22
6
CONTINUOUS
0
LAYER
2
DARKBROWN
70
0
62
23
6
CONTINUOUS
0
LAYER
2
LIGHTYELLOW
70
0
62
24
6
CONTINUOUS
0
ENDTAB
0
ENDSEC
0
SECTION
2
ENTITIES
0
LINE
8
BLACK
10
64350.0
20
56645.0
11
82750.0
21
56645.0
0
LINE
8
BLACK
10
64350.0
20
56795.0
11
82750.0
21
56795.0
0
ARC
8
BLACK
10
82750.0
20
56720.0
40
75.0
50
270.0
51
450.0
0
ARC
8
BLACK
10
64350.0
20
56720.0
40
75.0
50
90.0
51
270.0
0
LINE
8
BLACK
10
84225.0
20
48220.0
11
84225.0
21
55270.0
0
LINE
8
BLACK
10
84075.0
20
48220.0
11
84075.0
21
55270.0
0
ARC
8
BLACK
10
84150.0
20
55270.0
40
75.0
50
360.0
51
540.0
0
ARC
8
BLACK
10
84150.0
20
48220.0
40
75.0
50
180.0
51
360.0
0
LINE
8
BLACK
10
63050.0
20
46645.0
11
82800.0
21
46645.0
0
LINE
8
BLACK
10
63050.0
20
46795.0
11
82800.0
21
46795.0
0
ARC
8
BLACK
10
82800.0
20
46720.0
40
75.0
50
270.0
51
450.0
0
ARC
8
BLACK
10
63050.0
20
46720.0
40
75.0
50
90.0
51
270.0
0
LINE
8
BLACK
10
62875.0
20
46970.0
11
62875.0
21
55420.0
0
LINE
8
BLACK
10
62725.0
20
46970.0
11
62725.0
21
55420.0
0
ARC
8
BLACK
10
62800.0
20
55420.0
40
75.0
50
360.0
51
540.0
0
ARC
8
BLACK
10
62800.0
20
46970.0
40
75.0
50
180.0
51
360.0
0
ARC
8
BLACK
10
82700.0
20
48170.0
40
1453.0
50
-86.0
51
3.0
0
ARC
8
BLACK
10
64250.0
20
55270.0
40
1453.0
50
86.0
51
176.0
0
ARC
8
BLACK
10
82700.0
20
55270.0
40
1450.0
50
0.0
51
90.0
0
ARC
8
BLACK
10
63050.0
20
46970.0
40
250.0
50
-180.0
51
-90.0
0
CIRCLE
8
BLACK
10
64250.0
20
50270.0
40
1350
0
CIRCLE
8
BLACK
10
64250.0
20
55270.0
40
1350
0
CIRCLE
8
BLACK
10
82700.0
20
55270.0
40
1350
0
CIRCLE
8
BLACK
10
82700.0
20
48170.0
40
1350
0
LINE
8
BLACK
10
77525.0
20
48845.0
11
77525.0
21
48095.0
0
LINE
8
BLACK
10
77525.0
20
48095.0
11
78275.0
21
48095.0
0
LINE
8
BLACK
10
78275.0
20
48095.0
11
78275.0
21
48845.0
0
LINE
8
BLACK
10
78275.0
20
48845.0
11
77525.0
21
48845.0
0
CIRCLE
8
BLACK
10
76900.0
20
48470.0
40
375
0
CIRCLE
8
BLACK
10
76900.0
20
47470.0
40
375
0
LINE
8
BLACK
10
77525.0
20
50295.0
11
77525.0
21
51045.0
0
LINE
8
BLACK
10
77525.0
20
51045.0
11
76775.0
21
51045.0
0
LINE
8
BLACK
10
76775.0
20
51045.0
11
76775.0
21
50295.0
0
LINE
8
BLACK
10
76775.0
20
50295.0
11
77525.0
21
50295.0
0
CIRCLE
8
BLACK
10
78150.0
20
50670.0
40
375
0
CIRCLE
8
BLACK
10
78150.0
20
51670.0
40
375
0
LINE
8
BLACK
10
77425.0
20
53295.0
11
77425.0
21
52545.0
0
LINE
8
BLACK
10
77425.0
20
52545.0
11
78175.0
21
52545.0
0
LINE
8
BLACK
10
78175.0
20
52545.0
11
78175.0
21
53295.0
0
LINE
8
BLACK
10
78175.0
20
53295.0
11
77425.0
21
53295.0
0
CIRCLE
8
BLACK
10
76800.0
20
52920.0
40
375
0
CIRCLE
8
BLACK
10
76800.0
20
51920.0
40
375
0
LINE
8
BLACK
10
77525.0
20
54595.0
11
77525.0
21
55345.0
0
LINE
8
BLACK
10
77525.0
20
55345.0
11
76775.0
21
55345.0
0
LINE
8
BLACK
10
76775.0
20
55345.0
11
76775.0
21
54595.0
0
LINE
8
BLACK
10
76775.0
20
54595.0
11
77525.0
21
54595.0
0
CIRCLE
8
BLACK
10
78150.0
20
54970.0
40
375
0
CIRCLE
8
BLACK
10
78150.0
20
55970.0
40
375
0
CIRCLE
8
BLACK
10
80400.0
20
48870.0
40
375
0
CIRCLE
8
BLACK
10
79400.0
20
48870.0
40
375
0
CIRCLE
8
BLACK
10
79800.0
20
54720.0
40
375
0
CIRCLE
8
BLACK
10
80800.0
20
54720.0
40
375
0
LINE
8
BLACK
10
83160.0
20
52720.0
11
83160.0
21
53820.0
0
LINE
8
BLACK
10
83160.0
20
53820.0
11
82340.0
21
53820.0
0
LINE
8
BLACK
10
82340.0
20
53820.0
11
82340.0
21
52720.0
0
LINE
8
BLACK
10
82340.0
20
52720.0
11
83160.0
21
52720.0
0
LINE
8
BLACK
10
82160.0
20
53130.0
11
82160.0
21
53410.0
0
LINE
8
BLACK
10
81340.0
20
53130.0
11
81340.0
21
53410.0
0
ARC
8
BLACK
10
81750.0
20
53410.0
40
410.0
50
360.0
51
540.0
0
ARC
8
BLACK
10
81750.0
20
53130.0
40
410.0
50
180.0
51
360.0
0
LINE
8
BLACK
10
81160.0
20
53130.0
11
81160.0
21
53410.0
0
LINE
8
BLACK
10
80340.0
20
53130.0
11
80340.0
21
53410.0
0
ARC
8
BLACK
10
80750.0
20
53410.0
40
410.0
50
360.0
51
540.0
0
ARC
8
BLACK
10
80750.0
20
53130.0
40
410.0
50
180.0
51
360.0
0
LINE
8
BLACK
10
80160.0
20
53130.0
11
80160.0
21
53410.0
0
LINE
8
BLACK
10
79340.0
20
53130.0
11
79340.0
21
53410.0
0
ARC
8
BLACK
10
79750.0
20
53410.0
40
410.0
50
360.0
51
540.0
0
ARC
8
BLACK
10
79750.0
20
53130.0
40
410.0
50
180.0
51
360.0
0
LINE
8
BLACK
10
80160.0
20
50130.0
11
80160.0
21
50410.0
0
LINE
8
BLACK
10
79340.0
20
50130.0
11
79340.0
21
50410.0
0
ARC
8
BLACK
10
79750.0
20
50410.0
40
410.0
50
360.0
51
540.0
0
ARC
8
BLACK
10
79750.0
20
50130.0
40
410.0
50
180.0
51
360.0
0
LINE
8
BLACK
10
81160.0
20
50130.0
11
81160.0
21
50410.0
0
LINE
8
BLACK
10
80340.0
20
50130.0
11
80340.0
21
50410.0
0
ARC
8
BLACK
10
80750.0
20
50410.0
40
410.0
50
360.0
51
540.0
0
ARC
8
BLACK
10
80750.0
20
50130.0
40
410.0
50
180.0
51
360.0
0
LINE
8
BLACK
10
82160.0
20
50130.0
11
82160.0
21
50410.0
0
LINE
8
BLACK
10
81340.0
20
50130.0
11
81340.0
21
50410.0
0
ARC
8
BLACK
10
81750.0
20
50410.0
40
410.0
50
360.0
51
540.0
0
ARC
8
BLACK
10
81750.0
20
50130.0
40
410.0
50
180.0
51
360.0
0
LINE
8
BLACK
10
83160.0
20
50130.0
11
83160.0
21
50410.0
0
LINE
8
BLACK
10
82340.0
20
50130.0
11
82340.0
21
50410.0
0
ARC
8
BLACK
10
82750.0
20
50410.0
40
410.0
50
360.0
51
540.0
0
ARC
8
BLACK
10
82750.0
20
50130.0
40
410.0
50
180.0
51
360.0
0
LINE
8
BLACK
10
79400.0
20
56370.0
11
79400.0
21
55570.0
0
LINE
8
BLACK
10
79400.0
20
55570.0
11
80200.0
21
55570.0
0
LINE
8
BLACK
10
80200.0
20
55570.0
11
80200.0
21
56370.0
0
LINE
8
BLACK
10
80200.0
20
56370.0
11
79400.0
21
56370.0
0
CIRCLE
8
BLACK
10
80800.0
20
55970.0
40
400
0
LINE
8
BLACK
10
78400.0
20
47820.0
11
78400.0
21
47020.0
0
LINE
8
BLACK
10
78400.0
20
47020.0
11
79200.0
21
47020.0
0
LINE
8
BLACK
10
79200.0
20
47020.0
11
79200.0
21
47820.0
0
LINE
8
BLACK
10
79200.0
20
47820.0
11
78400.0
21
47820.0
0
CIRCLE
8
BLACK
10
79800.0
20
47420.0
40
400
0
CIRCLE
8
BLACK
10
80800.0
20
47420.0
40
400
0
CIRCLE
8
BLACK
10
76150.0
20
54920.0
40
375
0
CIRCLE
8
BLACK
10
73150.0
20
54920.0
40
375
0
CIRCLE
8
BLACK
10
75300.0
20
52320.0
40
375
0
CIRCLE
8
BLACK
10
72300.0
20
52320.0
40
375
0
CIRCLE
8
BLACK
10
76250.0
20
49870.0
40
375
0
CIRCLE
8
BLACK
10
73250.0
20
49870.0
40
375
0
CIRCLE
8
BLACK
10
75450.0
20
47470.0
40
375
0
CIRCLE
8
BLACK
10
72450.0
20
47470.0
40
375
0
CIRCLE
8
BLACK
10
73200.0
20
55920.0
40
375
0
CIRCLE
8
BLACK
10
76200.0
20
55920.0
40
375
0
CIRCLE
8
BLACK
10
72250.0
20
53320.0
40
375
0
CIRCLE
8
BLACK
10
75250.0
20
53320.0
40
375
0
CIRCLE
8
BLACK
10
73250.0
20
50920.0
40
375
0
CIRCLE
8
BLACK
10
76250.0
20
50920.0
40
375
0
CIRCLE
8
BLACK
10
72450.0
20
48520.0
40
375
0
CIRCLE
8
BLACK
10
75450.0
20
48520.0
40
375
0
CIRCLE
8
BLACK
10
66400.0
20
50420.0
40
430
0
CIRCLE
8
BLACK
10
67400.0
20
50420.0
40
430
0
CIRCLE
8
BLACK
10
70300.0
20
47920.0
40
430
0
CIRCLE
8
BLACK
10
71300.0
20
47920.0
40
430
0
CIRCLE
8
BLACK
10
67900.0
20
47920.0
40
430
0
CIRCLE
8
BLACK
10
68900.0
20
47920.0
40
430
0
CIRCLE
8
BLACK
10
65500.0
20
47920.0
40
430
0
CIRCLE
8
BLACK
10
66500.0
20
47920.0
40
430
0
CIRCLE
8
BLACK
10
71200.0
20
50420.0
40
430
0
CIRCLE
8
BLACK
10
72200.0
20
50420.0
40
430
0
CIRCLE
8
BLACK
10
68800.0
20
50420.0
40
430
0
CIRCLE
8
BLACK
10
69800.0
20
50420.0
40
430
0
CIRCLE
8
BLACK
10
70050.0
20
52770.0
40
430
0
CIRCLE
8
BLACK
10
71050.0
20
52770.0
40
430
0
CIRCLE
8
BLACK
10
67650.0
20
52770.0
40
430
0
CIRCLE
8
BLACK
10
68650.0
20
52770.0
40
430
0
CIRCLE
8
BLACK
10
65250.0
20
52720.0
40
430
0
CIRCLE
8
BLACK
10
66250.0
20
52720.0
40
430
0
CIRCLE
8
BLACK
10
71100.0
20
55120.0
40
430
0
CIRCLE
8
BLACK
10
72100.0
20
55120.0
40
430
0
CIRCLE
8
BLACK
10
68700.0
20
55120.0
40
430
0
CIRCLE
8
BLACK
10
69700.0
20
55120.0
40
430
0
CIRCLE
8
BLACK
10
66300.0
20
55120.0
40
430
0
CIRCLE
8
BLACK
10
67300.0
20
55120.0
40
430
0
ENDSEC
0
EOF
