0
SECTION
2
HEADER
9
$ANGBASE
50
0.0
9
$ANGDIR
70
0
0
ENDSEC
0
SECTION
2
TABLES
0
TABLE
2
LTYPE
70
1
0
LTYPE
2
CONTINUOUS
70
0
3
Solid line
72
65
73
0
40
0.0
0
ENDTAB
0
TABLE
2
LAYER
70
24
0
LAYER
2
BLACK
70
0
62
1
6
CONTINUOUS
0
LAYER
2
BLUE
70
0
62
2
6
CONTINUOUS
0
LAYER
2
GREEN
70
0
62
3
6
CONTINUOUS
0
LAYER
2
CYAN
70
0
62
4
6
CONTINUOUS
0
LAYER
2
RED
70
0
62
5
6
CONTINUOUS
0
LAYER
2
MAGENTA
70
0
62
6
6
CONTINUOUS
0
LAYER
2
BROWN
70
0
62
7
6
CONTINUOUS
0
LAYER
2
GRAY
70
0
62
8
6
CONTINUOUS
0
LAYER
2
DARKGRAY
70
0
62
9
6
CONTINUOUS
0
LAYER
2
LIGHTBLUE
70
0
62
10
6
CONTINUOUS
0
LAYER
2
LIGHTGREEN
70
0
62
11
6
CONTINUOUS
0
LAYER
2
LIGHTCYAN
70
0
62
12
6
CONTINUOUS
0
LAYER
2
LIGHTRED
70
0
62
13
6
CONTINUOUS
0
LAYER
2
LIGHTMAGENTA
70
0
62
14
6
CONTINUOUS
0
LAYER
2
YELLOW
70
0
62
15
6
CONTINUOUS
0
LAYER
2
WHITE
70
0
62
16
6
CONTINUOUS
0
LAYER
2
DARKDARKGRAY
70
0
62
17
6
CONTINUOUS
0
LAYER
2
DARKBLUE
70
0
62
18
6
CONTINUOUS
0
LAYER
2
DARKGREEN
70
0
62
19
6
CONTINUOUS
0
LAYER
2
DARKCYAN
70
0
62
20
6
CONTINUOUS
0
LAYER
2
DARKRED
70
0
62
21
6
CONTINUOUS
0
LAYER
2
DARKMAGENTA
70
0
62
22
6
CONTINUOUS
0
LAYER
2
DARKBROWN
70
0
62
23
6
CONTINUOUS
0
LAYER
2
LIGHTYELLOW
70
0
62
24
6
CONTINUOUS
0
ENDTAB
0
ENDSEC
0
SECTION
2
ENTITIES
0
LINE
8
BLACK
10
64350.0
20
56645.0
11
82750.0
21
56645.0
0
LINE
8
BLACK
10
64350.0
20
56795.0
11
82750.0
21
56795.0
0
ARC
8
BLACK
10
82750.0
20
56720.0
40
75.0
50
270.0
51
450.0
0
ARC
8
BLACK
10
64350.0
20
56720.0
40
75.0
50
90.0
51
270.0
0
LINE
8
BLACK
10
84225.0
20
48220.0
11
84225.0
21
55270.0
0
LINE
8
BLACK
10
84075.0
20
48220.0
11
84075.0
21
55270.0
0
ARC
8
BLACK
10
84150.0
20
55270.0
40
75.0
50
360.0
51
540.0
0
ARC
8
BLACK
10
84150.0
20
48220.0
40
75.0
50
180.0
51
360.0
0
LINE
8
BLACK
10
63050.0
20
46645.0
11
82800.0
21
46645.0
0
LINE
8
BLACK
10
63050.0
20
46795.0
11
82800.0
21
46795.0
0
ARC
8
BLACK
10
82800.0
20
46720.0
40
75.0
50
270.0
51
450.0
0
ARC
8
BLACK
10
63050.0
20
46720.0
40
75.0
50
90.0
51
270.0
0
LINE
8
BLACK
10
62875.0
20
46970.0
11
62875.0
21
55420.0
0
LINE
8
BLACK
10
62725.0
20
46970.0
11
62725.0
21
55420.0
0
ARC
8
BLACK
10
62800.0
20
55420.0
40
75.0
50
360.0
51
540.0
0
ARC
8
BLACK
10
62800.0
20
46970.0
40
75.0
50
180.0
51
360.0
0
ARC
8
BLACK
10
82700.0
20
48170.0
40
1453.0
50
-86.0
51
3.0
0
ARC
8
BLACK
10
64250.0
20
55270.0
40
1453.0
50
86.0
51
176.0
0
ARC
8
BLACK
10
82700.0
20
55270.0
40
1450.0
50
0.0
51
90.0
0
ARC
8
BLACK
10
63050.0
20
46970.0
40
250.0
50
-180.0
51
-90.0
0
CIRCLE
8
BLACK
10
64250.0
20
50270.0
40
1250
0
CIRCLE
8
BLACK
10
64250.0
20
55270.0
40
1250
0
CIRCLE
8
BLACK
10
82700.0
20
55270.0
40
1250
0
CIRCLE
8
BLACK
10
82700.0
20
48170.0
40
1250
0
LINE
8
BLACK
10
77625.0
20
48745.0
11
77625.0
21
48195.0
0
LINE
8
BLACK
10
77625.0
20
48195.0
11
78175.0
21
48195.0
0
LINE
8
BLACK
10
78175.0
20
48195.0
11
78175.0
21
48745.0
0
LINE
8
BLACK
10
78175.0
20
48745.0
11
77625.0
21
48745.0
0
CIRCLE
8
BLACK
10
76900.0
20
48470.0
40
275
0
CIRCLE
8
BLACK
10
76900.0
20
47470.0
40
275
0
LINE
8
BLACK
10
77425.0
20
50395.0
11
77425.0
21
50945.0
0
LINE
8
BLACK
10
77425.0
20
50945.0
11
76875.0
21
50945.0
0
LINE
8
BLACK
10
76875.0
20
50945.0
11
76875.0
21
50395.0
0
LINE
8
BLACK
10
76875.0
20
50395.0
11
77425.0
21
50395.0
0
CIRCLE
8
BLACK
10
78150.0
20
50670.0
40
275
0
CIRCLE
8
BLACK
10
78150.0
20
51670.0
40
275
0
LINE
8
BLACK
10
77525.0
20
53195.0
11
77525.0
21
52645.0
0
LINE
8
BLACK
10
77525.0
20
52645.0
11
78075.0
21
52645.0
0
LINE
8
BLACK
10
78075.0
20
52645.0
11
78075.0
21
53195.0
0
LINE
8
BLACK
10
78075.0
20
53195.0
11
77525.0
21
53195.0
0
CIRCLE
8
BLACK
10
76800.0
20
52920.0
40
275
0
CIRCLE
8
BLACK
10
76800.0
20
51920.0
40
275
0
LINE
8
BLACK
10
77425.0
20
54695.0
11
77425.0
21
55245.0
0
LINE
8
BLACK
10
77425.0
20
55245.0
11
76875.0
21
55245.0
0
LINE
8
BLACK
10
76875.0
20
55245.0
11
76875.0
21
54695.0
0
LINE
8
BLACK
10
76875.0
20
54695.0
11
77425.0
21
54695.0
0
CIRCLE
8
BLACK
10
78150.0
20
54970.0
40
275
0
CIRCLE
8
BLACK
10
78150.0
20
55970.0
40
275
0
CIRCLE
8
BLACK
10
80400.0
20
48870.0
40
275
0
CIRCLE
8
BLACK
10
79400.0
20
48870.0
40
275
0
CIRCLE
8
BLACK
10
79800.0
20
54720.0
40
275
0
CIRCLE
8
BLACK
10
80800.0
20
54720.0
40
275
0
LINE
8
BLACK
10
83060.0
20
52820.0
11
83060.0
21
53720.0
0
LINE
8
BLACK
10
83060.0
20
53720.0
11
82440.0
21
53720.0
0
LINE
8
BLACK
10
82440.0
20
53720.0
11
82440.0
21
52820.0
0
LINE
8
BLACK
10
82440.0
20
52820.0
11
83060.0
21
52820.0
0
LINE
8
BLACK
10
82060.0
20
53130.0
11
82060.0
21
53410.0
0
LINE
8
BLACK
10
81440.0
20
53130.0
11
81440.0
21
53410.0
0
ARC
8
BLACK
10
81750.0
20
53410.0
40
310.0
50
360.0
51
540.0
0
ARC
8
BLACK
10
81750.0
20
53130.0
40
310.0
50
180.0
51
360.0
0
LINE
8
BLACK
10
81060.0
20
53130.0
11
81060.0
21
53410.0
0
LINE
8
BLACK
10
80440.0
20
53130.0
11
80440.0
21
53410.0
0
ARC
8
BLACK
10
80750.0
20
53410.0
40
310.0
50
360.0
51
540.0
0
ARC
8
BLACK
10
80750.0
20
53130.0
40
310.0
50
180.0
51
360.0
0
LINE
8
BLACK
10
80060.0
20
53130.0
11
80060.0
21
53410.0
0
LINE
8
BLACK
10
79440.0
20
53130.0
11
79440.0
21
53410.0
0
ARC
8
BLACK
10
79750.0
20
53410.0
40
310.0
50
360.0
51
540.0
0
ARC
8
BLACK
10
79750.0
20
53130.0
40
310.0
50
180.0
51
360.0
0
LINE
8
BLACK
10
80060.0
20
50130.0
11
80060.0
21
50410.0
0
LINE
8
BLACK
10
79440.0
20
50130.0
11
79440.0
21
50410.0
0
ARC
8
BLACK
10
79750.0
20
50410.0
40
310.0
50
360.0
51
540.0
0
ARC
8
BLACK
10
79750.0
20
50130.0
40
310.0
50
180.0
51
360.0
0
LINE
8
BLACK
10
81060.0
20
50130.0
11
81060.0
21
50410.0
0
LINE
8
BLACK
10
80440.0
20
50130.0
11
80440.0
21
50410.0
0
ARC
8
BLACK
10
80750.0
20
50410.0
40
310.0
50
360.0
51
540.0
0
ARC
8
BLACK
10
80750.0
20
50130.0
40
310.0
50
180.0
51
360.0
0
LINE
8
BLACK
10
82060.0
20
50130.0
11
82060.0
21
50410.0
0
LINE
8
BLACK
10
81440.0
20
50130.0
11
81440.0
21
50410.0
0
ARC
8
BLACK
10
81750.0
20
50410.0
40
310.0
50
360.0
51
540.0
0
ARC
8
BLACK
10
81750.0
20
50130.0
40
310.0
50
180.0
51
360.0
0
LINE
8
BLACK
10
83060.0
20
50130.0
11
83060.0
21
50410.0
0
LINE
8
BLACK
10
82440.0
20
50130.0
11
82440.0
21
50410.0
0
ARC
8
BLACK
10
82750.0
20
50410.0
40
310.0
50
360.0
51
540.0
0
ARC
8
BLACK
10
82750.0
20
50130.0
40
310.0
50
180.0
51
360.0
0
LINE
8
BLACK
10
79500.0
20
56270.0
11
79500.0
21
55670.0
0
LINE
8
BLACK
10
79500.0
20
55670.0
11
80100.0
21
55670.0
0
LINE
8
BLACK
10
80100.0
20
55670.0
11
80100.0
21
56270.0
0
LINE
8
BLACK
10
80100.0
20
56270.0
11
79500.0
21
56270.0
0
CIRCLE
8
BLACK
10
80800.0
20
55970.0
40
300
0
LINE
8
BLACK
10
78500.0
20
47720.0
11
78500.0
21
47120.0
0
LINE
8
BLACK
10
78500.0
20
47120.0
11
79100.0
21
47120.0
0
LINE
8
BLACK
10
79100.0
20
47120.0
11
79100.0
21
47720.0
0
LINE
8
BLACK
10
79100.0
20
47720.0
11
78500.0
21
47720.0
0
CIRCLE
8
BLACK
10
79800.0
20
47420.0
40
300
0
CIRCLE
8
BLACK
10
80800.0
20
47420.0
40
300
0
CIRCLE
8
BLACK
10
76150.0
20
54920.0
40
275
0
CIRCLE
8
BLACK
10
73150.0
20
54920.0
40
275
0
CIRCLE
8
BLACK
10
75300.0
20
52320.0
40
275
0
CIRCLE
8
BLACK
10
72300.0
20
52320.0
40
275
0
CIRCLE
8
BLACK
10
76250.0
20
49870.0
40
275
0
CIRCLE
8
BLACK
10
73250.0
20
49870.0
40
275
0
CIRCLE
8
BLACK
10
75450.0
20
47470.0
40
275
0
CIRCLE
8
BLACK
10
72450.0
20
47470.0
40
275
0
CIRCLE
8
BLACK
10
73200.0
20
55920.0
40
275
0
CIRCLE
8
BLACK
10
76200.0
20
55920.0
40
275
0
CIRCLE
8
BLACK
10
72250.0
20
53320.0
40
275
0
CIRCLE
8
BLACK
10
75250.0
20
53320.0
40
275
0
CIRCLE
8
BLACK
10
73250.0
20
50920.0
40
275
0
CIRCLE
8
BLACK
10
76250.0
20
50920.0
40
275
0
CIRCLE
8
BLACK
10
72450.0
20
48520.0
40
275
0
CIRCLE
8
BLACK
10
75450.0
20
48520.0
40
275
0
CIRCLE
8
BLACK
10
66400.0
20
50420.0
40
330
0
CIRCLE
8
BLACK
10
67400.0
20
50420.0
40
330
0
CIRCLE
8
BLACK
10
70300.0
20
47920.0
40
330
0
CIRCLE
8
BLACK
10
71300.0
20
47920.0
40
330
0
CIRCLE
8
BLACK
10
67900.0
20
47920.0
40
330
0
CIRCLE
8
BLACK
10
68900.0
20
47920.0
40
330
0
CIRCLE
8
BLACK
10
65500.0
20
47920.0
40
330
0
CIRCLE
8
BLACK
10
66500.0
20
47920.0
40
330
0
CIRCLE
8
BLACK
10
71200.0
20
50420.0
40
330
0
CIRCLE
8
BLACK
10
72200.0
20
50420.0
40
330
0
CIRCLE
8
BLACK
10
68800.0
20
50420.0
40
330
0
CIRCLE
8
BLACK
10
69800.0
20
50420.0
40
330
0
CIRCLE
8
BLACK
10
70050.0
20
52770.0
40
330
0
CIRCLE
8
BLACK
10
71050.0
20
52770.0
40
330
0
CIRCLE
8
BLACK
10
67650.0
20
52770.0
40
330
0
CIRCLE
8
BLACK
10
68650.0
20
52770.0
40
330
0
CIRCLE
8
BLACK
10
65250.0
20
52720.0
40
330
0
CIRCLE
8
BLACK
10
66250.0
20
52720.0
40
330
0
CIRCLE
8
BLACK
10
71100.0
20
55120.0
40
330
0
CIRCLE
8
BLACK
10
72100.0
20
55120.0
40
330
0
CIRCLE
8
BLACK
10
68700.0
20
55120.0
40
330
0
CIRCLE
8
BLACK
10
69700.0
20
55120.0
40
330
0
CIRCLE
8
BLACK
10
66300.0
20
55120.0
40
330
0
CIRCLE
8
BLACK
10
67300.0
20
55120.0
40
330
0
CIRCLE
8
BLACK
10
78450.0
20
53870.0
40
175
0
CIRCLE
8
BLACK
10
81050.0
20
51920.0
40
175
0
LINE
8
BLACK
10
67400.0
20
50380.0
11
68800.0
21
50380.0
0
LINE
8
BLACK
10
67400.0
20
50460.0
11
68800.0
21
50460.0
0
ARC
8
BLACK
10
68800.0
20
50420.0
40
40.0
50
270.0
51
450.0
0
ARC
8
BLACK
10
67400.0
20
50420.0
40
40.0
50
90.0
51
270.0
0
LINE
8
BLACK
10
66500.0
20
47880.0
11
67900.0
21
47880.0
0
LINE
8
BLACK
10
66500.0
20
47960.0
11
67900.0
21
47960.0
0
ARC
8
BLACK
10
67900.0
20
47920.0
40
40.0
50
270.0
51
450.0
0
ARC
8
BLACK
10
66500.0
20
47920.0
40
40.0
50
90.0
51
270.0
0
LINE
8
BLACK
10
68900.0
20
47880.0
11
70300.0
21
47880.0
0
LINE
8
BLACK
10
68900.0
20
47960.0
11
70300.0
21
47960.0
0
ARC
8
BLACK
10
70300.0
20
47920.0
40
40.0
50
270.0
51
450.0
0
ARC
8
BLACK
10
68900.0
20
47920.0
40
40.0
50
90.0
51
270.0
0
LINE
8
BLACK
10
71340.0
20
47920.0
11
71340.0
21
47970.0
0
LINE
8
BLACK
10
71260.0
20
47920.0
11
71260.0
21
47970.0
0
ARC
8
BLACK
10
71300.0
20
47970.0
40
40.0
50
360.0
51
540.0
0
ARC
8
BLACK
10
71300.0
20
47920.0
40
40.0
50
180.0
51
360.0
0
LINE
8
BLACK
10
71850.0
20
48480.0
11
72450.0
21
48480.0
0
LINE
8
BLACK
10
71850.0
20
48560.0
11
72450.0
21
48560.0
0
ARC
8
BLACK
10
72450.0
20
48520.0
40
40.0
50
270.0
51
450.0
0
ARC
8
BLACK
10
71850.0
20
48520.0
40
40.0
50
90.0
51
270.0
0
LINE
8
BLACK
10
71329.0
20
47942.0
11
71878.0
21
48491.0
0
LINE
8
BLACK
10
71272.0
20
47999.0
11
71821.0
21
48548.0
0
ARC
8
BLACK
10
71849.0
20
48519.0
40
40.0
50
315.0
51
495.0
0
ARC
8
BLACK
10
71301.0
20
47971.0
40
40.0
50
135.0
51
315.0
0
LINE
8
BLACK
10
71600.0
20
53280.0
11
72250.0
21
53280.0
0
LINE
8
BLACK
10
71600.0
20
53360.0
11
72250.0
21
53360.0
0
ARC
8
BLACK
10
72250.0
20
53320.0
40
40.0
50
270.0
51
450.0
0
ARC
8
BLACK
10
71600.0
20
53320.0
40
40.0
50
90.0
51
270.0
0
LINE
8
BLACK
10
71571.0
20
53348.0
11
71022.0
21
52799.0
0
LINE
8
BLACK
10
71628.0
20
53291.0
11
71079.0
21
52742.0
0
ARC
8
BLACK
10
71051.0
20
52771.0
40
40.0
50
135.0
51
315.0
0
ARC
8
BLACK
10
71599.0
20
53319.0
40
40.0
50
-45.0
51
135.0
0
LINE
8
BLACK
10
68650.0
20
52730.0
11
70050.0
21
52730.0
0
LINE
8
BLACK
10
68650.0
20
52810.0
11
70050.0
21
52810.0
0
ARC
8
BLACK
10
70050.0
20
52770.0
40
40.0
50
270.0
51
450.0
0
ARC
8
BLACK
10
68650.0
20
52770.0
40
40.0
50
90.0
51
270.0
0
LINE
8
BLACK
10
66250.0
20
52680.0
11
67600.0
21
52680.0
0
LINE
8
BLACK
10
66250.0
20
52760.0
11
67600.0
21
52760.0
0
ARC
8
BLACK
10
67600.0
20
52720.0
40
40.0
50
270.0
51
450.0
0
ARC
8
BLACK
10
66250.0
20
52720.0
40
40.0
50
90.0
51
270.0
0
LINE
8
BLACK
10
67629.0
20
52692.0
11
67678.0
21
52741.0
0
LINE
8
BLACK
10
67572.0
20
52749.0
11
67621.0
21
52798.0
0
ARC
8
BLACK
10
67650.0
20
52770.0
40
40.0
50
315.0
51
495.0
0
ARC
8
BLACK
10
67600.0
20
52720.0
40
40.0
50
135.0
51
315.0
0
LINE
8
BLACK
10
76250.0
20
49830.0
11
77600.0
21
49830.0
0
LINE
8
BLACK
10
76250.0
20
49910.0
11
77600.0
21
49910.0
0
ARC
8
BLACK
10
77600.0
20
49870.0
40
40.0
50
270.0
51
450.0
0
ARC
8
BLACK
10
76250.0
20
49870.0
40
40.0
50
90.0
51
270.0
0
LINE
8
BLACK
10
77629.0
20
49842.0
11
78178.0
21
50391.0
0
LINE
8
BLACK
10
77572.0
20
49899.0
11
78121.0
21
50448.0
0
ARC
8
BLACK
10
78149.0
20
50419.0
40
40.0
50
315.0
51
495.0
0
ARC
8
BLACK
10
77601.0
20
49871.0
40
40.0
50
135.0
51
315.0
0
LINE
8
BLACK
10
78190.0
20
50420.0
11
78190.0
21
50670.0
0
LINE
8
BLACK
10
78110.0
20
50420.0
11
78110.0
21
50670.0
0
ARC
8
BLACK
10
78150.0
20
50670.0
40
40.0
50
360.0
51
540.0
0
ARC
8
BLACK
10
78150.0
20
50420.0
40
40.0
50
180.0
51
360.0
0
LINE
8
BLACK
10
76190.0
20
54820.0
11
76190.0
21
54920.0
0
LINE
8
BLACK
10
76110.0
20
54820.0
11
76110.0
21
54920.0
0
ARC
8
BLACK
10
76150.0
20
54920.0
40
40.0
50
360.0
51
540.0
0
ARC
8
BLACK
10
76150.0
20
54820.0
40
40.0
50
180.0
51
360.0
0
LINE
8
BLACK
10
77578.0
20
54342.0
11
78178.0
21
54942.0
0
LINE
8
BLACK
10
77522.0
20
54398.0
11
78122.0
21
54998.0
0
ARC
8
BLACK
10
78150.0
20
54970.0
40
40.0
50
315.0
51
495.0
0
ARC
8
BLACK
10
77550.0
20
54370.0
40
40.0
50
135.0
51
315.0
0
LINE
8
BLACK
10
76600.0
20
54330.0
11
77550.0
21
54330.0
0
LINE
8
BLACK
10
76600.0
20
54410.0
11
77550.0
21
54410.0
0
ARC
8
BLACK
10
77550.0
20
54370.0
40
40.0
50
270.0
51
450.0
0
ARC
8
BLACK
10
76600.0
20
54370.0
40
40.0
50
90.0
51
270.0
0
LINE
8
BLACK
10
76122.0
20
54792.0
11
76572.0
21
54342.0
0
LINE
8
BLACK
10
76178.0
20
54848.0
11
76628.0
21
54398.0
0
ARC
8
BLACK
10
76600.0
20
54370.0
40
40.0
50
225.0
51
405.0
0
ARC
8
BLACK
10
76150.0
20
54820.0
40
40.0
50
45.0
51
225.0
0
LINE
8
BLACK
10
69800.0
20
50380.0
11
71200.0
21
50380.0
0
LINE
8
BLACK
10
69800.0
20
50460.0
11
71200.0
21
50460.0
0
ARC
8
BLACK
10
71200.0
20
50420.0
40
40.0
50
270.0
51
450.0
0
ARC
8
BLACK
10
69800.0
20
50420.0
40
40.0
50
90.0
51
270.0
0
LINE
8
BLACK
10
72700.0
20
50880.0
11
73250.0
21
50880.0
0
LINE
8
BLACK
10
72700.0
20
50960.0
11
73250.0
21
50960.0
0
ARC
8
BLACK
10
73250.0
20
50920.0
40
40.0
50
270.0
51
450.0
0
ARC
8
BLACK
10
72700.0
20
50920.0
40
40.0
50
90.0
51
270.0
0
LINE
8
BLACK
10
72671.0
20
50948.0
11
72172.0
21
50449.0
0
LINE
8
BLACK
10
72728.0
20
50891.0
11
72229.0
21
50392.0
0
ARC
8
BLACK
10
72200.0
20
50420.0
40
40.0
50
135.0
51
315.0
0
ARC
8
BLACK
10
72700.0
20
50920.0
40
40.0
50
-45.0
51
135.0
0
LINE
8
BLACK
10
80428.0
20
49249.0
11
79779.0
21
49898.0
0
LINE
8
BLACK
10
80371.0
20
49192.0
11
79722.0
21
49841.0
0
ARC
8
BLACK
10
79750.0
20
49870.0
40
40.0
50
405.0
51
585.0
0
ARC
8
BLACK
10
80400.0
20
49220.0
40
40.0
50
225.0
51
405.0
0
LINE
8
BLACK
10
79790.0
20
49870.0
11
79790.0
21
50270.0
0
LINE
8
BLACK
10
79710.0
20
49870.0
11
79710.0
21
50270.0
0
ARC
8
BLACK
10
79750.0
20
50270.0
40
40.0
50
360.0
51
540.0
0
ARC
8
BLACK
10
79750.0
20
49870.0
40
40.0
50
180.0
51
360.0
0
LINE
8
BLACK
10
80440.0
20
48870.0
11
80440.0
21
49220.0
0
LINE
8
BLACK
10
80360.0
20
48870.0
11
80360.0
21
49220.0
0
ARC
8
BLACK
10
80400.0
20
49220.0
40
40.0
50
360.0
51
540.0
0
ARC
8
BLACK
10
80400.0
20
48870.0
40
40.0
50
180.0
51
360.0
0
LINE
8
BLACK
10
73290.0
20
48270.0
11
73290.0
21
49870.0
0
LINE
8
BLACK
10
73210.0
20
48270.0
11
73210.0
21
49870.0
0
ARC
8
BLACK
10
73250.0
20
49870.0
40
40.0
50
360.0
51
540.0
0
ARC
8
BLACK
10
73250.0
20
48270.0
40
40.0
50
180.0
51
360.0
0
LINE
8
BLACK
10
73122.0
20
53198.0
11
72272.0
21
52348.0
0
LINE
8
BLACK
10
73178.0
20
53142.0
11
72328.0
21
52292.0
0
ARC
8
BLACK
10
72300.0
20
52320.0
40
40.0
50
135.0
51
315.0
0
ARC
8
BLACK
10
73150.0
20
53170.0
40
40.0
50
-45.0
51
135.0
0
LINE
8
BLACK
10
73190.0
20
53170.0
11
73190.0
21
54920.0
0
LINE
8
BLACK
10
73110.0
20
53170.0
11
73110.0
21
54920.0
0
ARC
8
BLACK
10
73150.0
20
54920.0
40
40.0
50
360.0
51
540.0
0
ARC
8
BLACK
10
73150.0
20
53170.0
40
40.0
50
180.0
51
360.0
0
LINE
8
BLACK
10
73778.0
20
49842.0
11
74078.0
21
50142.0
0
LINE
8
BLACK
10
73722.0
20
49898.0
11
74022.0
21
50198.0
0
ARC
8
BLACK
10
74050.0
20
50170.0
40
40.0
50
315.0
51
495.0
0
ARC
8
BLACK
10
73750.0
20
49870.0
40
40.0
50
135.0
51
315.0
0
LINE
8
BLACK
10
74090.0
20
50170.0
11
74090.0
21
51120.0
0
LINE
8
BLACK
10
74010.0
20
50170.0
11
74010.0
21
51120.0
0
ARC
8
BLACK
10
74050.0
20
51120.0
40
40.0
50
360.0
51
540.0
0
ARC
8
BLACK
10
74050.0
20
50170.0
40
40.0
50
180.0
51
360.0
0
LINE
8
BLACK
10
74078.0
20
51149.0
11
72879.0
21
52348.0
0
LINE
8
BLACK
10
74021.0
20
51092.0
11
72822.0
21
52291.0
0
ARC
8
BLACK
10
72850.0
20
52320.0
40
40.0
50
405.0
51
585.0
0
ARC
8
BLACK
10
74050.0
20
51120.0
40
40.0
50
225.0
51
405.0
0
LINE
8
BLACK
10
72300.0
20
52280.0
11
72850.0
21
52280.0
0
LINE
8
BLACK
10
72300.0
20
52360.0
11
72850.0
21
52360.0
0
ARC
8
BLACK
10
72850.0
20
52320.0
40
40.0
50
270.0
51
450.0
0
ARC
8
BLACK
10
72300.0
20
52320.0
40
40.0
50
90.0
51
270.0
0
LINE
8
BLACK
10
73250.0
20
49830.0
11
73750.0
21
49830.0
0
LINE
8
BLACK
10
73250.0
20
49910.0
11
73750.0
21
49910.0
0
ARC
8
BLACK
10
73750.0
20
49870.0
40
40.0
50
270.0
51
450.0
0
ARC
8
BLACK
10
73250.0
20
49870.0
40
40.0
50
90.0
51
270.0
0
LINE
8
BLACK
10
73221.0
20
48298.0
11
72422.0
21
47499.0
0
LINE
8
BLACK
10
73278.0
20
48241.0
11
72479.0
21
47442.0
0
ARC
8
BLACK
10
72450.0
20
47470.0
40
40.0
50
135.0
51
315.0
0
ARC
8
BLACK
10
73250.0
20
48270.0
40
40.0
50
-45.0
51
135.0
0
LINE
8
BLACK
10
80721.0
20
52898.0
11
80472.0
21
52649.0
0
LINE
8
BLACK
10
80778.0
20
52841.0
11
80529.0
21
52592.0
0
ARC
8
BLACK
10
80501.0
20
52621.0
40
40.0
50
135.0
51
315.0
0
ARC
8
BLACK
10
80749.0
20
52869.0
40
40.0
50
-45.0
51
135.0
0
LINE
8
BLACK
10
79050.0
20
52580.0
11
80500.0
21
52580.0
0
LINE
8
BLACK
10
79050.0
20
52660.0
11
80500.0
21
52660.0
0
ARC
8
BLACK
10
80500.0
20
52620.0
40
40.0
50
270.0
51
450.0
0
ARC
8
BLACK
10
79050.0
20
52620.0
40
40.0
50
90.0
51
270.0
0
LINE
8
BLACK
10
79078.0
20
52649.0
11
78729.0
21
52998.0
0
LINE
8
BLACK
10
79021.0
20
52592.0
11
78672.0
21
52941.0
0
ARC
8
BLACK
10
78700.0
20
52970.0
40
40.0
50
405.0
51
585.0
0
ARC
8
BLACK
10
79050.0
20
52620.0
40
40.0
50
225.0
51
405.0
0
LINE
8
BLACK
10
78740.0
20
52970.0
11
78740.0
21
53620.0
0
LINE
8
BLACK
10
78660.0
20
52970.0
11
78660.0
21
53620.0
0
ARC
8
BLACK
10
78700.0
20
53620.0
40
40.0
50
360.0
51
540.0
0
ARC
8
BLACK
10
78700.0
20
52970.0
40
40.0
50
180.0
51
360.0
0
LINE
8
BLACK
10
78728.0
20
53649.0
11
78479.0
21
53898.0
0
LINE
8
BLACK
10
78671.0
20
53592.0
11
78422.0
21
53841.0
0
ARC
8
BLACK
10
78451.0
20
53869.0
40
40.0
50
405.0
51
585.0
0
ARC
8
BLACK
10
78699.0
20
53621.0
40
40.0
50
225.0
51
405.0
0
LINE
8
BLACK
10
80790.0
20
52870.0
11
80790.0
21
53270.0
0
LINE
8
BLACK
10
80710.0
20
52870.0
11
80710.0
21
53270.0
0
ARC
8
BLACK
10
80750.0
20
53270.0
40
40.0
50
360.0
51
540.0
0
ARC
8
BLACK
10
80750.0
20
52870.0
40
40.0
50
180.0
51
360.0
0
LINE
8
BLACK
10
80878.0
20
48392.0
11
81028.0
21
48542.0
0
LINE
8
BLACK
10
80822.0
20
48448.0
11
80972.0
21
48598.0
0
ARC
8
BLACK
10
81000.0
20
48570.0
40
40.0
50
315.0
51
495.0
0
ARC
8
BLACK
10
80850.0
20
48420.0
40
40.0
50
135.0
51
315.0
0
LINE
8
BLACK
10
81790.0
20
49820.0
11
81790.0
21
50270.0
0
LINE
8
BLACK
10
81710.0
20
49820.0
11
81710.0
21
50270.0
0
ARC
8
BLACK
10
81750.0
20
50270.0
40
40.0
50
360.0
51
540.0
0
ARC
8
BLACK
10
81750.0
20
49820.0
40
40.0
50
180.0
51
360.0
0
LINE
8
BLACK
10
80600.0
20
48380.0
11
80850.0
21
48380.0
0
LINE
8
BLACK
10
80600.0
20
48460.0
11
80850.0
21
48460.0
0
ARC
8
BLACK
10
80850.0
20
48420.0
40
40.0
50
270.0
51
450.0
0
ARC
8
BLACK
10
80600.0
20
48420.0
40
40.0
50
90.0
51
270.0
0
LINE
8
BLACK
10
79829.0
20
47592.0
11
80628.0
21
48391.0
0
LINE
8
BLACK
10
79772.0
20
47649.0
11
80571.0
21
48448.0
0
ARC
8
BLACK
10
80600.0
20
48420.0
40
40.0
50
315.0
51
495.0
0
ARC
8
BLACK
10
79800.0
20
47620.0
40
40.0
50
135.0
51
315.0
0
LINE
8
BLACK
10
81029.0
20
49042.0
11
81778.0
21
49791.0
0
LINE
8
BLACK
10
80972.0
20
49099.0
11
81721.0
21
49848.0
0
ARC
8
BLACK
10
81750.0
20
49820.0
40
40.0
50
315.0
51
495.0
0
ARC
8
BLACK
10
81000.0
20
49070.0
40
40.0
50
135.0
51
315.0
0
LINE
8
BLACK
10
79840.0
20
47420.0
11
79840.0
21
47620.0
0
LINE
8
BLACK
10
79760.0
20
47420.0
11
79760.0
21
47620.0
0
ARC
8
BLACK
10
79800.0
20
47620.0
40
40.0
50
360.0
51
540.0
0
ARC
8
BLACK
10
79800.0
20
47420.0
40
40.0
50
180.0
51
360.0
0
LINE
8
BLACK
10
81040.0
20
48570.0
11
81040.0
21
49070.0
0
LINE
8
BLACK
10
80960.0
20
48570.0
11
80960.0
21
49070.0
0
ARC
8
BLACK
10
81000.0
20
49070.0
40
40.0
50
360.0
51
540.0
0
ARC
8
BLACK
10
81000.0
20
48570.0
40
40.0
50
180.0
51
360.0
0
LINE
8
BLACK
10
77940.0
20
48470.0
11
77940.0
21
48720.0
0
LINE
8
BLACK
10
77860.0
20
48470.0
11
77860.0
21
48720.0
0
ARC
8
BLACK
10
77900.0
20
48720.0
40
40.0
50
360.0
51
540.0
0
ARC
8
BLACK
10
77900.0
20
48470.0
40
40.0
50
180.0
51
360.0
0
LINE
8
BLACK
10
75821.0
20
48948.0
11
75422.0
21
48549.0
0
LINE
8
BLACK
10
75878.0
20
48891.0
11
75479.0
21
48492.0
0
ARC
8
BLACK
10
75451.0
20
48521.0
40
40.0
50
135.0
51
315.0
0
ARC
8
BLACK
10
75849.0
20
48919.0
40
40.0
50
-45.0
51
135.0
0
LINE
8
BLACK
10
75850.0
20
48880.0
11
77700.0
21
48880.0
0
LINE
8
BLACK
10
75850.0
20
48960.0
11
77700.0
21
48960.0
0
ARC
8
BLACK
10
77700.0
20
48920.0
40
40.0
50
270.0
51
450.0
0
ARC
8
BLACK
10
75850.0
20
48920.0
40
40.0
50
90.0
51
270.0
0
LINE
8
BLACK
10
77928.0
20
48749.0
11
77729.0
21
48948.0
0
LINE
8
BLACK
10
77871.0
20
48692.0
11
77672.0
21
48891.0
0
ARC
8
BLACK
10
77700.0
20
48920.0
40
40.0
50
405.0
51
585.0
0
ARC
8
BLACK
10
77900.0
20
48720.0
40
40.0
50
225.0
51
405.0
0
LINE
8
BLACK
10
67300.0
20
55080.0
11
68700.0
21
55080.0
0
LINE
8
BLACK
10
67300.0
20
55160.0
11
68700.0
21
55160.0
0
ARC
8
BLACK
10
68700.0
20
55120.0
40
40.0
50
270.0
51
450.0
0
ARC
8
BLACK
10
67300.0
20
55120.0
40
40.0
50
90.0
51
270.0
0
LINE
8
BLACK
10
69700.0
20
55080.0
11
71100.0
21
55080.0
0
LINE
8
BLACK
10
69700.0
20
55160.0
11
71100.0
21
55160.0
0
ARC
8
BLACK
10
71100.0
20
55120.0
40
40.0
50
270.0
51
450.0
0
ARC
8
BLACK
10
69700.0
20
55120.0
40
40.0
50
90.0
51
270.0
0
LINE
8
BLACK
10
72871.0
20
55948.0
11
72072.0
21
55149.0
0
LINE
8
BLACK
10
72928.0
20
55891.0
11
72129.0
21
55092.0
0
ARC
8
BLACK
10
72100.0
20
55120.0
40
40.0
50
135.0
51
315.0
0
ARC
8
BLACK
10
72900.0
20
55920.0
40
40.0
50
-45.0
51
135.0
0
LINE
8
BLACK
10
72900.0
20
55880.0
11
73200.0
21
55880.0
0
LINE
8
BLACK
10
72900.0
20
55960.0
11
73200.0
21
55960.0
0
ARC
8
BLACK
10
73200.0
20
55920.0
40
40.0
50
270.0
51
450.0
0
ARC
8
BLACK
10
72900.0
20
55920.0
40
40.0
50
90.0
51
270.0
0
LINE
8
BLACK
10
76450.0
20
48430.0
11
76900.0
21
48430.0
0
LINE
8
BLACK
10
76450.0
20
48510.0
11
76900.0
21
48510.0
0
ARC
8
BLACK
10
76900.0
20
48470.0
40
40.0
50
270.0
51
450.0
0
ARC
8
BLACK
10
76450.0
20
48470.0
40
40.0
50
90.0
51
270.0
0
LINE
8
BLACK
10
76422.0
20
48498.0
11
75422.0
21
47498.0
0
LINE
8
BLACK
10
76478.0
20
48442.0
11
75478.0
21
47442.0
0
ARC
8
BLACK
10
75450.0
20
47470.0
40
40.0
50
135.0
51
315.0
0
ARC
8
BLACK
10
76450.0
20
48470.0
40
40.0
50
-45.0
51
135.0
0
LINE
8
BLACK
10
76500.0
20
50630.0
11
77150.0
21
50630.0
0
LINE
8
BLACK
10
76500.0
20
50710.0
11
77150.0
21
50710.0
0
ARC
8
BLACK
10
77150.0
20
50670.0
40
40.0
50
270.0
51
450.0
0
ARC
8
BLACK
10
76500.0
20
50670.0
40
40.0
50
90.0
51
270.0
0
LINE
8
BLACK
10
76528.0
20
50699.0
11
76279.0
21
50948.0
0
LINE
8
BLACK
10
76471.0
20
50642.0
11
76222.0
21
50891.0
0
ARC
8
BLACK
10
76251.0
20
50919.0
40
40.0
50
405.0
51
585.0
0
ARC
8
BLACK
10
76499.0
20
50671.0
40
40.0
50
225.0
51
405.0
0
LINE
8
BLACK
10
76450.0
20
52880.0
11
76800.0
21
52880.0
0
LINE
8
BLACK
10
76450.0
20
52960.0
11
76800.0
21
52960.0
0
ARC
8
BLACK
10
76800.0
20
52920.0
40
40.0
50
270.0
51
450.0
0
ARC
8
BLACK
10
76450.0
20
52920.0
40
40.0
50
90.0
51
270.0
0
LINE
8
BLACK
10
75300.0
20
52280.0
11
75850.0
21
52280.0
0
LINE
8
BLACK
10
75300.0
20
52360.0
11
75850.0
21
52360.0
0
ARC
8
BLACK
10
75850.0
20
52320.0
40
40.0
50
270.0
51
450.0
0
ARC
8
BLACK
10
75300.0
20
52320.0
40
40.0
50
90.0
51
270.0
0
LINE
8
BLACK
10
76422.0
20
52948.0
11
75822.0
21
52348.0
0
LINE
8
BLACK
10
76478.0
20
52892.0
11
75878.0
21
52292.0
0
ARC
8
BLACK
10
75850.0
20
52320.0
40
40.0
50
135.0
51
315.0
0
ARC
8
BLACK
10
76450.0
20
52920.0
40
40.0
50
-45.0
51
135.0
0
LINE
8
BLACK
10
76050.0
20
53530.0
11
77150.0
21
53530.0
0
LINE
8
BLACK
10
76050.0
20
53610.0
11
77150.0
21
53610.0
0
ARC
8
BLACK
10
77150.0
20
53570.0
40
40.0
50
270.0
51
450.0
0
ARC
8
BLACK
10
76050.0
20
53570.0
40
40.0
50
90.0
51
270.0
0
LINE
8
BLACK
10
75829.0
20
53292.0
11
76078.0
21
53541.0
0
LINE
8
BLACK
10
75772.0
20
53349.0
11
76021.0
21
53598.0
0
ARC
8
BLACK
10
76049.0
20
53569.0
40
40.0
50
315.0
51
495.0
0
ARC
8
BLACK
10
75801.0
20
53321.0
40
40.0
50
135.0
51
315.0
0
LINE
8
BLACK
10
75250.0
20
53280.0
11
75800.0
21
53280.0
0
LINE
8
BLACK
10
75250.0
20
53360.0
11
75800.0
21
53360.0
0
ARC
8
BLACK
10
75800.0
20
53320.0
40
40.0
50
270.0
51
450.0
0
ARC
8
BLACK
10
75250.0
20
53320.0
40
40.0
50
90.0
51
270.0
0
LINE
8
BLACK
10
77122.0
20
53541.0
11
77771.0
21
52892.0
0
LINE
8
BLACK
10
77179.0
20
53598.0
11
77828.0
21
52949.0
0
ARC
8
BLACK
10
77800.0
20
52920.0
40
40.0
50
225.0
51
405.0
0
ARC
8
BLACK
10
77150.0
20
53570.0
40
40.0
50
45.0
51
225.0
0
LINE
8
BLACK
10
76200.0
20
55880.0
11
76600.0
21
55880.0
0
LINE
8
BLACK
10
76200.0
20
55960.0
11
76600.0
21
55960.0
0
ARC
8
BLACK
10
76600.0
20
55920.0
40
40.0
50
270.0
51
450.0
0
ARC
8
BLACK
10
76200.0
20
55920.0
40
40.0
50
90.0
51
270.0
0
LINE
8
BLACK
10
77190.0
20
54970.0
11
77190.0
21
55370.0
0
LINE
8
BLACK
10
77110.0
20
54970.0
11
77110.0
21
55370.0
0
ARC
8
BLACK
10
77150.0
20
55370.0
40
40.0
50
360.0
51
540.0
0
ARC
8
BLACK
10
77150.0
20
54970.0
40
40.0
50
180.0
51
360.0
0
LINE
8
BLACK
10
76572.0
20
55891.0
11
77121.0
21
55342.0
0
LINE
8
BLACK
10
76629.0
20
55948.0
11
77178.0
21
55399.0
0
ARC
8
BLACK
10
77149.0
20
55371.0
40
40.0
50
225.0
51
405.0
0
ARC
8
BLACK
10
76601.0
20
55919.0
40
40.0
50
45.0
51
225.0
0
LINE
8
BLACK
10
81022.0
20
51948.0
11
80722.0
21
51648.0
0
LINE
8
BLACK
10
81078.0
20
51892.0
11
80778.0
21
51592.0
0
ARC
8
BLACK
10
80750.0
20
51620.0
40
40.0
50
135.0
51
315.0
0
ARC
8
BLACK
10
81050.0
20
51920.0
40
40.0
50
-45.0
51
135.0
0
LINE
8
BLACK
10
80790.0
20
50270.0
11
80790.0
21
51620.0
0
LINE
8
BLACK
10
80710.0
20
50270.0
11
80710.0
21
51620.0
0
ARC
8
BLACK
10
80750.0
20
51620.0
40
40.0
50
360.0
51
540.0
0
ARC
8
BLACK
10
80750.0
20
50270.0
40
40.0
50
180.0
51
360.0
0
LINE
8
BLACK
10
83825.0
20
49166.0
11
83551.0
21
49441.0
0
LINE
8
BLACK
10
83551.0
20
49441.0
11
83310.0
21
49541.0
0
LINE
8
BLACK
10
83310.0
20
49541.0
11
83310.0
21
53158.0
0
LINE
8
BLACK
10
83310.0
20
53158.0
11
83248.0
21
53220.0
0
LINE
8
BLACK
10
83248.0
20
53220.0
11
82800.0
21
53220.0
0
LINE
8
BLACK
10
82800.0
20
53220.0
11
82800.0
21
52632.0
0
LINE
8
BLACK
10
82800.0
20
52632.0
11
82862.0
21
52570.0
0
LINE
8
BLACK
10
82862.0
20
52570.0
11
83109.0
21
52571.0
0
LINE
8
BLACK
10
83109.0
20
52571.0
11
83201.0
21
52609.0
0
LINE
8
BLACK
10
83201.0
20
52609.0
11
83271.0
21
52679.0
0
LINE
8
BLACK
10
83271.0
20
52679.0
11
83309.0
21
52770.0
0
LINE
8
BLACK
10
83309.0
20
52770.0
11
83309.0
21
52869.0
0
LINE
8
BLACK
10
83309.0
20
52869.0
11
83310.0
21
53158.0
0
LINE
8
BLACK
10
83310.0
20
53158.0
11
83310.0
21
49541.0
0
LINE
8
BLACK
10
83310.0
20
49541.0
11
83051.0
21
49648.0
0
LINE
8
BLACK
10
83051.0
20
49648.0
11
83061.0
21
49652.0
0
LINE
8
BLACK
10
83061.0
20
49652.0
11
83215.0
21
49806.0
0
LINE
8
BLACK
10
83215.0
20
49806.0
11
83299.0
21
50008.0
0
LINE
8
BLACK
10
83299.0
20
50008.0
11
83299.0
21
50226.0
0
LINE
8
BLACK
10
83299.0
20
50226.0
11
83299.0
21
50532.0
0
LINE
8
BLACK
10
83299.0
20
50532.0
11
83215.0
21
50734.0
0
LINE
8
BLACK
10
83215.0
20
50734.0
11
83061.0
21
50888.0
0
LINE
8
BLACK
10
83061.0
20
50888.0
11
82859.0
21
50972.0
0
LINE
8
BLACK
10
82859.0
20
50972.0
11
82641.0
21
50972.0
0
LINE
8
BLACK
10
82641.0
20
50972.0
11
82439.0
21
50888.0
0
LINE
8
BLACK
10
82439.0
20
50888.0
11
82285.0
21
50734.0
0
LINE
8
BLACK
10
82285.0
20
50734.0
11
82250.0
21
50650.0
0
LINE
8
BLACK
10
82250.0
20
50650.0
11
82215.0
21
50734.0
0
LINE
8
BLACK
10
82215.0
20
50734.0
11
82061.0
21
50888.0
0
LINE
8
BLACK
10
82061.0
20
50888.0
11
81859.0
21
50972.0
0
LINE
8
BLACK
10
81859.0
20
50972.0
11
81641.0
21
50972.0
0
LINE
8
BLACK
10
81641.0
20
50972.0
11
81439.0
21
50888.0
0
LINE
8
BLACK
10
81439.0
20
50888.0
11
81285.0
21
50734.0
0
LINE
8
BLACK
10
81285.0
20
50734.0
11
81250.0
21
50650.0
0
LINE
8
BLACK
10
81250.0
20
50650.0
11
81215.0
21
50734.0
0
LINE
8
BLACK
10
81215.0
20
50734.0
11
81061.0
21
50888.0
0
LINE
8
BLACK
10
81061.0
20
50888.0
11
81040.0
21
50897.0
0
LINE
8
BLACK
10
81040.0
20
50897.0
11
81040.0
21
51495.0
0
LINE
8
BLACK
10
81040.0
20
51495.0
11
81134.0
21
51495.0
0
LINE
8
BLACK
10
81134.0
20
51495.0
11
81290.0
21
51559.0
0
LINE
8
BLACK
10
81290.0
20
51559.0
11
81410.0
21
51679.0
0
LINE
8
BLACK
10
81410.0
20
51679.0
11
81475.0
21
51835.0
0
LINE
8
BLACK
10
81475.0
20
51835.0
11
81475.0
21
52004.0
0
LINE
8
BLACK
10
81475.0
20
52004.0
11
81411.0
21
52160.0
0
LINE
8
BLACK
10
81411.0
20
52160.0
11
81291.0
21
52280.0
0
LINE
8
BLACK
10
81291.0
20
52280.0
11
81135.0
21
52345.0
0
LINE
8
BLACK
10
81135.0
20
52345.0
11
80966.0
21
52345.0
0
LINE
8
BLACK
10
80966.0
20
52345.0
11
80810.0
21
52281.0
0
LINE
8
BLACK
10
80810.0
20
52281.0
11
80690.0
21
52161.0
0
LINE
8
BLACK
10
80690.0
20
52161.0
11
80625.0
21
52005.0
0
LINE
8
BLACK
10
80625.0
20
52005.0
11
80625.0
21
51905.0
0
LINE
8
BLACK
10
80625.0
20
51905.0
11
80545.0
21
51825.0
0
LINE
8
BLACK
10
80545.0
20
51825.0
11
80482.0
21
51731.0
0
LINE
8
BLACK
10
80482.0
20
51731.0
11
80460.0
21
51620.0
0
LINE
8
BLACK
10
80460.0
20
51620.0
11
80460.0
21
50897.0
0
LINE
8
BLACK
10
80460.0
20
50897.0
11
80439.0
21
50888.0
0
LINE
8
BLACK
10
80439.0
20
50888.0
11
80285.0
21
50734.0
0
LINE
8
BLACK
10
80285.0
20
50734.0
11
80250.0
21
50650.0
0
LINE
8
BLACK
10
80250.0
20
50650.0
11
80215.0
21
50734.0
0
LINE
8
BLACK
10
80215.0
20
50734.0
11
80061.0
21
50888.0
0
LINE
8
BLACK
10
80061.0
20
50888.0
11
79859.0
21
50972.0
0
LINE
8
BLACK
10
79859.0
20
50972.0
11
79641.0
21
50972.0
0
LINE
8
BLACK
10
79641.0
20
50972.0
11
79439.0
21
50888.0
0
LINE
8
BLACK
10
79439.0
20
50888.0
11
79285.0
21
50734.0
0
LINE
8
BLACK
10
79285.0
20
50734.0
11
79201.0
21
50532.0
0
LINE
8
BLACK
10
79201.0
20
50532.0
11
79201.0
21
50314.0
0
LINE
8
BLACK
10
79201.0
20
50314.0
11
79201.0
21
50008.0
0
LINE
8
BLACK
10
79201.0
20
50008.0
11
79285.0
21
49806.0
0
LINE
8
BLACK
10
79285.0
20
49806.0
11
79439.0
21
49652.0
0
LINE
8
BLACK
10
79439.0
20
49652.0
11
79641.0
21
49568.0
0
LINE
8
BLACK
10
79641.0
20
49568.0
11
79642.0
21
49568.0
0
LINE
8
BLACK
10
79642.0
20
49568.0
11
79998.0
21
49212.0
0
LINE
8
BLACK
10
79998.0
20
49212.0
11
79955.0
21
49168.0
0
LINE
8
BLACK
10
79955.0
20
49168.0
11
79896.0
21
49028.0
0
LINE
8
BLACK
10
79896.0
20
49028.0
11
79852.0
21
49137.0
0
LINE
8
BLACK
10
79852.0
20
49137.0
11
79761.0
21
49160.0
0
LINE
8
BLACK
10
79761.0
20
49160.0
11
79690.0
21
49089.0
0
LINE
8
BLACK
10
79690.0
20
49089.0
11
79690.0
21
49231.0
0
LINE
8
BLACK
10
79690.0
20
49231.0
11
79667.0
21
49322.0
0
LINE
8
BLACK
10
79667.0
20
49322.0
11
79474.0
21
49389.0
0
LINE
8
BLACK
10
79474.0
20
49389.0
11
79270.0
21
49378.0
0
LINE
8
BLACK
10
79270.0
20
49378.0
11
79133.0
21
49322.0
0
LINE
8
BLACK
10
79133.0
20
49322.0
11
79110.0
21
49231.0
0
LINE
8
BLACK
10
79110.0
20
49231.0
11
79400.0
21
48941.0
0
LINE
8
BLACK
10
79400.0
20
48941.0
11
79690.0
21
49231.0
0
LINE
8
BLACK
10
79690.0
20
49231.0
11
79690.0
21
49089.0
0
LINE
8
BLACK
10
79690.0
20
49089.0
11
79471.0
21
48870.0
0
LINE
8
BLACK
10
79471.0
20
48870.0
11
79761.0
21
48580.0
0
LINE
8
BLACK
10
79761.0
20
48580.0
11
79852.0
21
48603.0
0
LINE
8
BLACK
10
79852.0
20
48603.0
11
79893.0
21
48722.0
0
LINE
8
BLACK
10
79893.0
20
48722.0
11
79955.0
21
48573.0
0
LINE
8
BLACK
10
79955.0
20
48573.0
11
80102.0
21
48425.0
0
LINE
8
BLACK
10
80102.0
20
48425.0
11
80167.0
21
48398.0
0
LINE
8
BLACK
10
80167.0
20
48398.0
11
79739.0
21
47969.0
0
LINE
8
BLACK
10
79739.0
20
47969.0
11
79691.0
21
47969.0
0
LINE
8
BLACK
10
79691.0
20
47969.0
11
79690.0
21
47969.0
0
LINE
8
BLACK
10
79690.0
20
47969.0
11
79690.0
21
48509.0
0
LINE
8
BLACK
10
79690.0
20
48509.0
11
79400.0
21
48799.0
0
LINE
8
BLACK
10
79400.0
20
48799.0
11
79329.0
21
48728.0
0
LINE
8
BLACK
10
79329.0
20
48728.0
11
79329.0
21
48870.0
0
LINE
8
BLACK
10
79329.0
20
48870.0
11
79039.0
21
49160.0
0
LINE
8
BLACK
10
79039.0
20
49160.0
11
78948.0
21
49137.0
0
LINE
8
BLACK
10
78948.0
20
49137.0
11
78881.0
21
48944.0
0
LINE
8
BLACK
10
78881.0
20
48944.0
11
78892.0
21
48740.0
0
LINE
8
BLACK
10
78892.0
20
48740.0
11
78948.0
21
48603.0
0
LINE
8
BLACK
10
78948.0
20
48603.0
11
79039.0
21
48580.0
0
LINE
8
BLACK
10
79039.0
20
48580.0
11
79329.0
21
48870.0
0
LINE
8
BLACK
10
79329.0
20
48870.0
11
79329.0
21
48728.0
0
LINE
8
BLACK
10
79329.0
20
48728.0
11
79110.0
21
48509.0
0
LINE
8
BLACK
10
79110.0
20
48509.0
11
79133.0
21
48418.0
0
LINE
8
BLACK
10
79133.0
20
48418.0
11
79326.0
21
48351.0
0
LINE
8
BLACK
10
79326.0
20
48351.0
11
79530.0
21
48362.0
0
LINE
8
BLACK
10
79530.0
20
48362.0
11
79667.0
21
48418.0
0
LINE
8
BLACK
10
79667.0
20
48418.0
11
79690.0
21
48509.0
0
LINE
8
BLACK
10
79690.0
20
48509.0
11
79690.0
21
47969.0
0
LINE
8
BLACK
10
79690.0
20
47969.0
11
79489.0
21
47885.0
0
LINE
8
BLACK
10
79489.0
20
47885.0
11
79349.0
21
47745.0
0
LINE
8
BLACK
10
79349.0
20
47745.0
11
79349.0
21
47769.0
0
LINE
8
BLACK
10
79349.0
20
47769.0
11
79311.0
21
47861.0
0
LINE
8
BLACK
10
79311.0
20
47861.0
11
79241.0
21
47931.0
0
LINE
8
BLACK
10
79241.0
20
47931.0
11
79150.0
21
47969.0
0
LINE
8
BLACK
10
79150.0
20
47969.0
11
79051.0
21
47969.0
0
LINE
8
BLACK
10
79051.0
20
47969.0
11
78451.0
21
47969.0
0
LINE
8
BLACK
10
78451.0
20
47969.0
11
78359.0
21
47931.0
0
LINE
8
BLACK
10
78359.0
20
47931.0
11
78289.0
21
47861.0
0
LINE
8
BLACK
10
78289.0
20
47861.0
11
78251.0
21
47770.0
0
LINE
8
BLACK
10
78251.0
20
47770.0
11
78251.0
21
47671.0
0
LINE
8
BLACK
10
78251.0
20
47671.0
11
78251.0
21
47071.0
0
LINE
8
BLACK
10
78251.0
20
47071.0
11
78261.0
21
47045.0
0
LINE
8
BLACK
10
78261.0
20
47045.0
11
77419.0
21
47045.0
0
LINE
8
BLACK
10
77419.0
20
47045.0
11
77419.0
21
47396.0
0
LINE
8
BLACK
10
77419.0
20
47396.0
11
77408.0
21
47600.0
0
LINE
8
BLACK
10
77408.0
20
47600.0
11
77352.0
21
47737.0
0
LINE
8
BLACK
10
77352.0
20
47737.0
11
77261.0
21
47760.0
0
LINE
8
BLACK
10
77261.0
20
47760.0
11
76971.0
21
47470.0
0
LINE
8
BLACK
10
76971.0
20
47470.0
11
77261.0
21
47180.0
0
LINE
8
BLACK
10
77261.0
20
47180.0
11
77352.0
21
47203.0
0
LINE
8
BLACK
10
77352.0
20
47203.0
11
77419.0
21
47396.0
0
LINE
8
BLACK
10
77419.0
20
47396.0
11
77419.0
21
47045.0
0
LINE
8
BLACK
10
77419.0
20
47045.0
11
77173.0
21
47045.0
0
LINE
8
BLACK
10
77173.0
20
47045.0
11
77190.0
21
47109.0
0
LINE
8
BLACK
10
77190.0
20
47109.0
11
76900.0
21
47399.0
0
LINE
8
BLACK
10
76900.0
20
47399.0
11
76829.0
21
47328.0
0
LINE
8
BLACK
10
76829.0
20
47328.0
11
76829.0
21
47470.0
0
LINE
8
BLACK
10
76829.0
20
47470.0
11
76539.0
21
47760.0
0
LINE
8
BLACK
10
76539.0
20
47760.0
11
76448.0
21
47737.0
0
LINE
8
BLACK
10
76448.0
20
47737.0
11
76381.0
21
47544.0
0
LINE
8
BLACK
10
76381.0
20
47544.0
11
76392.0
21
47340.0
0
LINE
8
BLACK
10
76392.0
20
47340.0
11
76448.0
21
47203.0
0
LINE
8
BLACK
10
76448.0
20
47203.0
11
76539.0
21
47180.0
0
LINE
8
BLACK
10
76539.0
20
47180.0
11
76829.0
21
47470.0
0
LINE
8
BLACK
10
76829.0
20
47470.0
11
76829.0
21
47328.0
0
LINE
8
BLACK
10
76829.0
20
47328.0
11
76610.0
21
47109.0
0
LINE
8
BLACK
10
76610.0
20
47109.0
11
76626.0
21
47045.0
0
LINE
8
BLACK
10
76626.0
20
47045.0
11
75798.0
21
47045.0
0
LINE
8
BLACK
10
75798.0
20
47045.0
11
75798.0
21
47077.0
0
LINE
8
BLACK
10
75798.0
20
47077.0
11
75895.0
21
47172.0
0
LINE
8
BLACK
10
75895.0
20
47172.0
11
75975.0
21
47365.0
0
LINE
8
BLACK
10
75975.0
20
47365.0
11
75975.0
21
47574.0
0
LINE
8
BLACK
10
75975.0
20
47574.0
11
75971.0
21
47582.0
0
LINE
8
BLACK
10
75971.0
20
47582.0
11
76508.0
21
48119.0
0
LINE
8
BLACK
10
76508.0
20
48119.0
11
76602.0
21
48025.0
0
LINE
8
BLACK
10
76602.0
20
48025.0
11
76742.0
21
47967.0
0
LINE
8
BLACK
10
76742.0
20
47967.0
11
76633.0
21
47922.0
0
LINE
8
BLACK
10
76633.0
20
47922.0
11
76610.0
21
47831.0
0
LINE
8
BLACK
10
76610.0
20
47831.0
11
76900.0
21
47541.0
0
LINE
8
BLACK
10
76900.0
20
47541.0
11
77190.0
21
47831.0
0
LINE
8
BLACK
10
77190.0
20
47831.0
11
77167.0
21
47922.0
0
LINE
8
BLACK
10
77167.0
20
47922.0
11
77048.0
21
47964.0
0
LINE
8
BLACK
10
77048.0
20
47964.0
11
77197.0
21
48025.0
0
LINE
8
BLACK
10
77197.0
20
48025.0
11
77345.0
21
48172.0
0
LINE
8
BLACK
10
77345.0
20
48172.0
11
77376.0
21
48247.0
0
LINE
8
BLACK
10
77376.0
20
48247.0
11
77376.0
21
48146.0
0
LINE
8
BLACK
10
77376.0
20
48146.0
11
77414.0
21
48054.0
0
LINE
8
BLACK
10
77414.0
20
48054.0
11
77484.0
21
47984.0
0
LINE
8
BLACK
10
77484.0
20
47984.0
11
77575.0
21
47946.0
0
LINE
8
BLACK
10
77575.0
20
47946.0
11
77674.0
21
47946.0
0
LINE
8
BLACK
10
77674.0
20
47946.0
11
78224.0
21
47946.0
0
LINE
8
BLACK
10
78224.0
20
47946.0
11
78316.0
21
47984.0
0
LINE
8
BLACK
10
78316.0
20
47984.0
11
78386.0
21
48054.0
0
LINE
8
BLACK
10
78386.0
20
48054.0
11
78424.0
21
48145.0
0
LINE
8
BLACK
10
78424.0
20
48145.0
11
78424.0
21
48244.0
0
LINE
8
BLACK
10
78424.0
20
48244.0
11
78424.0
21
48794.0
0
LINE
8
BLACK
10
78424.0
20
48794.0
11
78386.0
21
48886.0
0
LINE
8
BLACK
10
78386.0
20
48886.0
11
78316.0
21
48956.0
0
LINE
8
BLACK
10
78316.0
20
48956.0
11
78225.0
21
48994.0
0
LINE
8
BLACK
10
78225.0
20
48994.0
11
78126.0
21
48994.0
0
LINE
8
BLACK
10
78126.0
20
48994.0
11
78036.0
21
48994.0
0
LINE
8
BLACK
10
78036.0
20
48994.0
11
77905.0
21
49125.0
0
LINE
8
BLACK
10
77905.0
20
49125.0
11
77811.0
21
49188.0
0
LINE
8
BLACK
10
77811.0
20
49188.0
11
77700.0
21
49210.0
0
LINE
8
BLACK
10
77700.0
20
49210.0
11
75850.0
21
49210.0
0
LINE
8
BLACK
10
75850.0
20
49210.0
11
75787.0
21
49198.0
0
LINE
8
BLACK
10
75787.0
20
49198.0
11
75785.0
21
49620.0
0
LINE
8
BLACK
10
75785.0
20
49620.0
11
75805.0
21
49573.0
0
LINE
8
BLACK
10
75805.0
20
49573.0
11
75952.0
21
49425.0
0
LINE
8
BLACK
10
75952.0
20
49425.0
11
76145.0
21
49345.0
0
LINE
8
BLACK
10
76145.0
20
49345.0
11
76354.0
21
49345.0
0
LINE
8
BLACK
10
76354.0
20
49345.0
11
76547.0
21
49425.0
0
LINE
8
BLACK
10
76547.0
20
49425.0
11
76695.0
21
49572.0
0
LINE
8
BLACK
10
76695.0
20
49572.0
11
76698.0
21
49580.0
0
LINE
8
BLACK
10
76698.0
20
49580.0
11
77600.0
21
49580.0
0
LINE
8
BLACK
10
77600.0
20
49580.0
11
77711.0
21
49602.0
0
LINE
8
BLACK
10
77711.0
20
49602.0
11
77805.0
21
49665.0
0
LINE
8
BLACK
10
77805.0
20
49665.0
11
78306.0
21
50167.0
0
LINE
8
BLACK
10
78306.0
20
50167.0
11
78447.0
21
50225.0
0
LINE
8
BLACK
10
78447.0
20
50225.0
11
78595.0
21
50372.0
0
LINE
8
BLACK
10
78595.0
20
50372.0
11
78675.0
21
50565.0
0
LINE
8
BLACK
10
78675.0
20
50565.0
11
78675.0
21
50774.0
0
LINE
8
BLACK
10
78675.0
20
50774.0
11
78669.0
21
50789.0
0
LINE
8
BLACK
10
78669.0
20
50789.0
11
78669.0
21
51596.0
0
LINE
8
BLACK
10
78669.0
20
51596.0
11
78658.0
21
51800.0
0
LINE
8
BLACK
10
78658.0
20
51800.0
11
78602.0
21
51937.0
0
LINE
8
BLACK
10
78602.0
20
51937.0
11
78511.0
21
51960.0
0
LINE
8
BLACK
10
78511.0
20
51960.0
11
78440.0
21
51889.0
0
LINE
8
BLACK
10
78440.0
20
51889.0
11
78440.0
21
52031.0
0
LINE
8
BLACK
10
78440.0
20
52031.0
11
78417.0
21
52122.0
0
LINE
8
BLACK
10
78417.0
20
52122.0
11
78224.0
21
52189.0
0
LINE
8
BLACK
10
78224.0
20
52189.0
11
78020.0
21
52178.0
0
LINE
8
BLACK
10
78020.0
20
52178.0
11
77883.0
21
52122.0
0
LINE
8
BLACK
10
77883.0
20
52122.0
11
77860.0
21
52031.0
0
LINE
8
BLACK
10
77860.0
20
52031.0
11
78150.0
21
51741.0
0
LINE
8
BLACK
10
78150.0
20
51741.0
11
78440.0
21
52031.0
0
LINE
8
BLACK
10
78440.0
20
52031.0
11
78440.0
21
51889.0
0
LINE
8
BLACK
10
78440.0
20
51889.0
11
78221.0
21
51670.0
0
LINE
8
BLACK
10
78221.0
20
51670.0
11
78511.0
21
51380.0
0
LINE
8
BLACK
10
78511.0
20
51380.0
11
78602.0
21
51403.0
0
LINE
8
BLACK
10
78602.0
20
51403.0
11
78669.0
21
51596.0
0
LINE
8
BLACK
10
78669.0
20
51596.0
11
78669.0
21
50789.0
0
LINE
8
BLACK
10
78669.0
20
50789.0
11
78595.0
21
50967.0
0
LINE
8
BLACK
10
78595.0
20
50967.0
11
78448.0
21
51115.0
0
LINE
8
BLACK
10
78448.0
20
51115.0
11
78307.0
21
51174.0
0
LINE
8
BLACK
10
78307.0
20
51174.0
11
78417.0
21
51218.0
0
LINE
8
BLACK
10
78417.0
20
51218.0
11
78440.0
21
51309.0
0
LINE
8
BLACK
10
78440.0
20
51309.0
11
78150.0
21
51599.0
0
LINE
8
BLACK
10
78150.0
20
51599.0
11
78079.0
21
51528.0
0
LINE
8
BLACK
10
78079.0
20
51528.0
11
78079.0
21
51670.0
0
LINE
8
BLACK
10
78079.0
20
51670.0
11
77789.0
21
51960.0
0
LINE
8
BLACK
10
77789.0
20
51960.0
11
77698.0
21
51937.0
0
LINE
8
BLACK
10
77698.0
20
51937.0
11
77631.0
21
51744.0
0
LINE
8
BLACK
10
77631.0
20
51744.0
11
77642.0
21
51540.0
0
LINE
8
BLACK
10
77642.0
20
51540.0
11
77698.0
21
51403.0
0
LINE
8
BLACK
10
77698.0
20
51403.0
11
77789.0
21
51380.0
0
LINE
8
BLACK
10
77789.0
20
51380.0
11
78079.0
21
51670.0
0
LINE
8
BLACK
10
78079.0
20
51670.0
11
78079.0
21
51528.0
0
LINE
8
BLACK
10
78079.0
20
51528.0
11
77860.0
21
51309.0
0
LINE
8
BLACK
10
77860.0
20
51309.0
11
77883.0
21
51218.0
0
LINE
8
BLACK
10
77883.0
20
51218.0
11
78001.0
21
51177.0
0
LINE
8
BLACK
10
78001.0
20
51177.0
11
77853.0
21
51115.0
0
LINE
8
BLACK
10
77853.0
20
51115.0
11
77705.0
21
50968.0
0
LINE
8
BLACK
10
77705.0
20
50968.0
11
77674.0
21
50894.0
0
LINE
8
BLACK
10
77674.0
20
50894.0
11
77674.0
21
50994.0
0
LINE
8
BLACK
10
77674.0
20
50994.0
11
77636.0
21
51086.0
0
LINE
8
BLACK
10
77636.0
20
51086.0
11
77566.0
21
51156.0
0
LINE
8
BLACK
10
77566.0
20
51156.0
11
77475.0
21
51194.0
0
LINE
8
BLACK
10
77475.0
20
51194.0
11
77376.0
21
51194.0
0
LINE
8
BLACK
10
77376.0
20
51194.0
11
77319.0
21
51194.0
0
LINE
8
BLACK
10
77319.0
20
51194.0
11
77319.0
21
51846.0
0
LINE
8
BLACK
10
77319.0
20
51846.0
11
77308.0
21
52050.0
0
LINE
8
BLACK
10
77308.0
20
52050.0
11
77252.0
21
52187.0
0
LINE
8
BLACK
10
77252.0
20
52187.0
11
77161.0
21
52210.0
0
LINE
8
BLACK
10
77161.0
20
52210.0
11
76871.0
21
51920.0
0
LINE
8
BLACK
10
76871.0
20
51920.0
11
77161.0
21
51630.0
0
LINE
8
BLACK
10
77161.0
20
51630.0
11
77252.0
21
51653.0
0
LINE
8
BLACK
10
77252.0
20
51653.0
11
77319.0
21
51846.0
0
LINE
8
BLACK
10
77319.0
20
51846.0
11
77319.0
21
51194.0
0
LINE
8
BLACK
10
77319.0
20
51194.0
11
77090.0
21
51194.0
0
LINE
8
BLACK
10
77090.0
20
51194.0
11
77090.0
21
51559.0
0
LINE
8
BLACK
10
77090.0
20
51559.0
11
76800.0
21
51849.0
0
LINE
8
BLACK
10
76800.0
20
51849.0
11
76729.0
21
51778.0
0
LINE
8
BLACK
10
76729.0
20
51778.0
11
76729.0
21
51920.0
0
LINE
8
BLACK
10
76729.0
20
51920.0
11
76439.0
21
52210.0
0
LINE
8
BLACK
10
76439.0
20
52210.0
11
76348.0
21
52187.0
0
LINE
8
BLACK
10
76348.0
20
52187.0
11
76281.0
21
51994.0
0
LINE
8
BLACK
10
76281.0
20
51994.0
11
76292.0
21
51790.0
0
LINE
8
BLACK
10
76292.0
20
51790.0
11
76348.0
21
51653.0
0
LINE
8
BLACK
10
76348.0
20
51653.0
11
76439.0
21
51630.0
0
LINE
8
BLACK
10
76439.0
20
51630.0
11
76729.0
21
51920.0
0
LINE
8
BLACK
10
76729.0
20
51920.0
11
76729.0
21
51778.0
0
LINE
8
BLACK
10
76729.0
20
51778.0
11
76510.0
21
51559.0
0
LINE
8
BLACK
10
76510.0
20
51559.0
11
76533.0
21
51468.0
0
LINE
8
BLACK
10
76533.0
20
51468.0
11
76726.0
21
51401.0
0
LINE
8
BLACK
10
76726.0
20
51401.0
11
76930.0
21
51412.0
0
LINE
8
BLACK
10
76930.0
20
51412.0
11
77067.0
21
51468.0
0
LINE
8
BLACK
10
77067.0
20
51468.0
11
77090.0
21
51559.0
0
LINE
8
BLACK
10
77090.0
20
51559.0
11
77090.0
21
51194.0
0
LINE
8
BLACK
10
77090.0
20
51194.0
11
76826.0
21
51194.0
0
LINE
8
BLACK
10
76826.0
20
51194.0
11
76734.0
21
51156.0
0
LINE
8
BLACK
10
76734.0
20
51156.0
11
76724.0
21
51147.0
0
LINE
8
BLACK
10
76724.0
20
51147.0
11
76695.0
21
51217.0
0
LINE
8
BLACK
10
76695.0
20
51217.0
11
76548.0
21
51365.0
0
LINE
8
BLACK
10
76548.0
20
51365.0
11
76355.0
21
51445.0
0
LINE
8
BLACK
10
76355.0
20
51445.0
11
76146.0
21
51445.0
0
LINE
8
BLACK
10
76146.0
20
51445.0
11
75953.0
21
51365.0
0
LINE
8
BLACK
10
75953.0
20
51365.0
11
75805.0
21
51218.0
0
LINE
8
BLACK
10
75805.0
20
51218.0
11
75778.0
21
51153.0
0
LINE
8
BLACK
10
75778.0
20
51153.0
11
75773.0
21
52030.0
0
LINE
8
BLACK
10
75773.0
20
52030.0
11
75850.0
21
52030.0
0
LINE
8
BLACK
10
75850.0
20
52030.0
11
75961.0
21
52052.0
0
LINE
8
BLACK
10
75961.0
20
52052.0
11
76055.0
21
52115.0
0
LINE
8
BLACK
10
76055.0
20
52115.0
11
76458.0
21
52519.0
0
LINE
8
BLACK
10
76458.0
20
52519.0
11
76502.0
21
52475.0
0
LINE
8
BLACK
10
76502.0
20
52475.0
11
76642.0
21
52417.0
0
LINE
8
BLACK
10
76642.0
20
52417.0
11
76533.0
21
52372.0
0
LINE
8
BLACK
10
76533.0
20
52372.0
11
76510.0
21
52281.0
0
LINE
8
BLACK
10
76510.0
20
52281.0
11
76800.0
21
51991.0
0
LINE
8
BLACK
10
76800.0
20
51991.0
11
77090.0
21
52281.0
0
LINE
8
BLACK
10
77090.0
20
52281.0
11
77067.0
21
52372.0
0
LINE
8
BLACK
10
77067.0
20
52372.0
11
76948.0
21
52414.0
0
LINE
8
BLACK
10
76948.0
20
52414.0
11
77097.0
21
52475.0
0
LINE
8
BLACK
10
77097.0
20
52475.0
11
77245.0
21
52622.0
0
LINE
8
BLACK
10
77245.0
20
52622.0
11
77276.0
21
52697.0
0
LINE
8
BLACK
10
77276.0
20
52697.0
11
77276.0
21
52596.0
0
LINE
8
BLACK
10
77276.0
20
52596.0
11
77314.0
21
52504.0
0
LINE
8
BLACK
10
77314.0
20
52504.0
11
77384.0
21
52434.0
0
LINE
8
BLACK
10
77384.0
20
52434.0
11
77475.0
21
52396.0
0
LINE
8
BLACK
10
77475.0
20
52396.0
11
77574.0
21
52396.0
0
LINE
8
BLACK
10
77574.0
20
52396.0
11
78124.0
21
52396.0
0
LINE
8
BLACK
10
78124.0
20
52396.0
11
78216.0
21
52434.0
0
LINE
8
BLACK
10
78216.0
20
52434.0
11
78286.0
21
52504.0
0
LINE
8
BLACK
10
78286.0
20
52504.0
11
78324.0
21
52595.0
0
LINE
8
BLACK
10
78324.0
20
52595.0
11
78324.0
21
52694.0
0
LINE
8
BLACK
10
78324.0
20
52694.0
11
78324.0
21
53244.0
0
LINE
8
BLACK
10
78324.0
20
53244.0
11
78286.0
21
53336.0
0
LINE
8
BLACK
10
78286.0
20
53336.0
11
78216.0
21
53406.0
0
LINE
8
BLACK
10
78216.0
20
53406.0
11
78125.0
21
53444.0
0
LINE
8
BLACK
10
78125.0
20
53444.0
11
78026.0
21
53444.0
0
LINE
8
BLACK
10
78026.0
20
53444.0
11
77686.0
21
53444.0
0
LINE
8
BLACK
10
77686.0
20
53444.0
11
77355.0
21
53775.0
0
LINE
8
BLACK
10
77355.0
20
53775.0
11
77261.0
21
53838.0
0
LINE
8
BLACK
10
77261.0
20
53838.0
11
77150.0
21
53860.0
0
LINE
8
BLACK
10
77150.0
20
53860.0
11
76050.0
21
53860.0
0
LINE
8
BLACK
10
76050.0
20
53860.0
11
75939.0
21
53838.0
0
LINE
8
BLACK
10
75939.0
20
53838.0
11
75845.0
21
53775.0
0
LINE
8
BLACK
10
75845.0
20
53775.0
11
75765.0
21
53696.0
0
LINE
8
BLACK
10
75765.0
20
53696.0
11
75760.0
21
54567.0
0
LINE
8
BLACK
10
75760.0
20
54567.0
11
75852.0
21
54475.0
0
LINE
8
BLACK
10
75852.0
20
54475.0
11
76045.0
21
54395.0
0
LINE
8
BLACK
10
76045.0
20
54395.0
11
76165.0
21
54395.0
0
LINE
8
BLACK
10
76165.0
20
54395.0
11
76395.0
21
54165.0
0
LINE
8
BLACK
10
76395.0
20
54165.0
11
76489.0
21
54102.0
0
LINE
8
BLACK
10
76489.0
20
54102.0
11
76600.0
21
54080.0
0
LINE
8
BLACK
10
76600.0
20
54080.0
11
77550.0
21
54080.0
0
LINE
8
BLACK
10
77550.0
20
54080.0
11
77661.0
21
54102.0
0
LINE
8
BLACK
10
77661.0
20
54102.0
11
77755.0
21
54165.0
0
LINE
8
BLACK
10
77755.0
20
54165.0
11
78037.0
21
54448.0
0
LINE
8
BLACK
10
78037.0
20
54448.0
11
78045.0
21
54445.0
0
LINE
8
BLACK
10
78045.0
20
54445.0
11
78254.0
21
54445.0
0
LINE
8
BLACK
10
78254.0
20
54445.0
11
78447.0
21
54525.0
0
LINE
8
BLACK
10
78447.0
20
54525.0
11
78595.0
21
54672.0
0
LINE
8
BLACK
10
78595.0
20
54672.0
11
78675.0
21
54865.0
0
LINE
8
BLACK
10
78675.0
20
54865.0
11
78675.0
21
55074.0
0
LINE
8
BLACK
10
78675.0
20
55074.0
11
78669.0
21
55089.0
0
LINE
8
BLACK
10
78669.0
20
55089.0
11
78669.0
21
55896.0
0
LINE
8
BLACK
10
78669.0
20
55896.0
11
78658.0
21
56100.0
0
LINE
8
BLACK
10
78658.0
20
56100.0
11
78602.0
21
56237.0
0
LINE
8
BLACK
10
78602.0
20
56237.0
11
78511.0
21
56260.0
0
LINE
8
BLACK
10
78511.0
20
56260.0
11
78221.0
21
55970.0
0
LINE
8
BLACK
10
78221.0
20
55970.0
11
78511.0
21
55680.0
0
LINE
8
BLACK
10
78511.0
20
55680.0
11
78602.0
21
55703.0
0
LINE
8
BLACK
10
78602.0
20
55703.0
11
78669.0
21
55896.0
0
LINE
8
BLACK
10
78669.0
20
55896.0
11
78669.0
21
55089.0
0
LINE
8
BLACK
10
78669.0
20
55089.0
11
78595.0
21
55267.0
0
LINE
8
BLACK
10
78595.0
20
55267.0
11
78448.0
21
55415.0
0
LINE
8
BLACK
10
78448.0
20
55415.0
11
78307.0
21
55474.0
0
LINE
8
BLACK
10
78307.0
20
55474.0
11
78417.0
21
55518.0
0
LINE
8
BLACK
10
78417.0
20
55518.0
11
78440.0
21
55609.0
0
LINE
8
BLACK
10
78440.0
20
55609.0
11
78150.0
21
55899.0
0
LINE
8
BLACK
10
78150.0
20
55899.0
11
78079.0
21
55828.0
0
LINE
8
BLACK
10
78079.0
20
55828.0
11
78079.0
21
55970.0
0
LINE
8
BLACK
10
78079.0
20
55970.0
11
77789.0
21
56260.0
0
LINE
8
BLACK
10
77789.0
20
56260.0
11
77698.0
21
56237.0
0
LINE
8
BLACK
10
77698.0
20
56237.0
11
77631.0
21
56044.0
0
LINE
8
BLACK
10
77631.0
20
56044.0
11
77642.0
21
55840.0
0
LINE
8
BLACK
10
77642.0
20
55840.0
11
77698.0
21
55703.0
0
LINE
8
BLACK
10
77698.0
20
55703.0
11
77789.0
21
55680.0
0
LINE
8
BLACK
10
77789.0
20
55680.0
11
78079.0
21
55970.0
0
LINE
8
BLACK
10
78079.0
20
55970.0
11
78079.0
21
55828.0
0
LINE
8
BLACK
10
78079.0
20
55828.0
11
77860.0
21
55609.0
0
LINE
8
BLACK
10
77860.0
20
55609.0
11
77883.0
21
55518.0
0
LINE
8
BLACK
10
77883.0
20
55518.0
11
78001.0
21
55477.0
0
LINE
8
BLACK
10
78001.0
20
55477.0
11
77853.0
21
55415.0
0
LINE
8
BLACK
10
77853.0
20
55415.0
11
77705.0
21
55268.0
0
LINE
8
BLACK
10
77705.0
20
55268.0
11
77674.0
21
55194.0
0
LINE
8
BLACK
10
77674.0
20
55194.0
11
77674.0
21
55294.0
0
LINE
8
BLACK
10
77674.0
20
55294.0
11
77636.0
21
55386.0
0
LINE
8
BLACK
10
77636.0
20
55386.0
11
77566.0
21
55456.0
0
LINE
8
BLACK
10
77566.0
20
55456.0
11
77475.0
21
55494.0
0
LINE
8
BLACK
10
77475.0
20
55494.0
11
77409.0
21
55494.0
0
LINE
8
BLACK
10
77409.0
20
55494.0
11
77355.0
21
55575.0
0
LINE
8
BLACK
10
77355.0
20
55575.0
11
77354.0
21
55576.0
0
LINE
8
BLACK
10
77354.0
20
55576.0
11
76805.0
21
56125.0
0
LINE
8
BLACK
10
76805.0
20
56125.0
11
76711.0
21
56188.0
0
LINE
8
BLACK
10
76711.0
20
56188.0
11
76652.0
21
56200.0
0
LINE
8
BLACK
10
76652.0
20
56200.0
11
76645.0
21
56217.0
0
LINE
8
BLACK
10
76645.0
20
56217.0
11
76498.0
21
56365.0
0
LINE
8
BLACK
10
76498.0
20
56365.0
11
76425.0
21
56395.0
0
LINE
8
BLACK
10
76425.0
20
56395.0
11
77876.0
21
56395.0
0
LINE
8
BLACK
10
77876.0
20
56395.0
11
77860.0
21
56331.0
0
LINE
8
BLACK
10
77860.0
20
56331.0
11
78150.0
21
56041.0
0
LINE
8
BLACK
10
78150.0
20
56041.0
11
78440.0
21
56331.0
0
LINE
8
BLACK
10
78440.0
20
56331.0
11
78423.0
21
56395.0
0
LINE
8
BLACK
10
78423.0
20
56395.0
11
79282.0
21
56395.0
0
LINE
8
BLACK
10
79282.0
20
56395.0
11
79251.0
21
56320.0
0
LINE
8
BLACK
10
79251.0
20
56320.0
11
79251.0
21
56221.0
0
LINE
8
BLACK
10
79251.0
20
56221.0
11
79251.0
21
55621.0
0
LINE
8
BLACK
10
79251.0
20
55621.0
11
79289.0
21
55529.0
0
LINE
8
BLACK
10
79289.0
20
55529.0
11
79359.0
21
55459.0
0
LINE
8
BLACK
10
79359.0
20
55459.0
11
79450.0
21
55421.0
0
LINE
8
BLACK
10
79450.0
20
55421.0
11
79549.0
21
55421.0
0
LINE
8
BLACK
10
79549.0
20
55421.0
11
80149.0
21
55421.0
0
LINE
8
BLACK
10
80149.0
20
55421.0
11
80241.0
21
55459.0
0
LINE
8
BLACK
10
80241.0
20
55459.0
11
80311.0
21
55529.0
0
LINE
8
BLACK
10
80311.0
20
55529.0
11
80349.0
21
55620.0
0
LINE
8
BLACK
10
80349.0
20
55620.0
11
80349.0
21
55683.0
0
LINE
8
BLACK
10
80349.0
20
55683.0
11
80422.0
21
55662.0
0
LINE
8
BLACK
10
80422.0
20
55662.0
11
80729.0
21
55970.0
0
LINE
8
BLACK
10
80729.0
20
55970.0
11
80422.0
21
56278.0
0
LINE
8
BLACK
10
80422.0
20
56278.0
11
80349.0
21
56258.0
0
LINE
8
BLACK
10
80349.0
20
56258.0
11
80349.0
21
56319.0
0
LINE
8
BLACK
10
80349.0
20
56319.0
11
80317.0
21
56395.0
0
LINE
8
BLACK
10
80317.0
20
56395.0
11
80505.0
21
56395.0
0
LINE
8
BLACK
10
80505.0
20
56395.0
11
80492.0
21
56348.0
0
LINE
8
BLACK
10
80492.0
20
56348.0
11
80800.0
21
56041.0
0
LINE
8
BLACK
10
80800.0
20
56041.0
11
81108.0
21
56348.0
0
LINE
8
BLACK
10
81108.0
20
56348.0
11
81094.0
21
56395.0
0
LINE
8
BLACK
10
81094.0
20
56395.0
11
81494.0
21
56395.0
0
LINE
8
BLACK
10
81494.0
20
56395.0
11
81490.0
21
56182.0
0
LINE
8
BLACK
10
81490.0
20
56182.0
11
81429.0
21
56121.0
0
LINE
8
BLACK
10
81429.0
20
56121.0
11
81341.0
21
55911.0
0
LINE
8
BLACK
10
81341.0
20
55911.0
11
81332.0
21
56104.0
0
LINE
8
BLACK
10
81332.0
20
56104.0
11
81272.0
21
56251.0
0
LINE
8
BLACK
10
81272.0
20
56251.0
11
81178.0
21
56278.0
0
LINE
8
BLACK
10
81178.0
20
56278.0
11
80871.0
21
55970.0
0
LINE
8
BLACK
10
80871.0
20
55970.0
11
81178.0
21
55662.0
0
LINE
8
BLACK
10
81178.0
20
55662.0
11
81247.0
21
55682.0
0
LINE
8
BLACK
10
81247.0
20
55682.0
11
81201.0
21
55570.0
0
LINE
8
BLACK
10
81201.0
20
55570.0
11
81200.0
21
55001.0
0
LINE
8
BLACK
10
81200.0
20
55001.0
11
81161.0
21
55010.0
0
LINE
8
BLACK
10
81161.0
20
55010.0
11
81108.0
21
54957.0
0
LINE
8
BLACK
10
81108.0
20
54957.0
11
81108.0
21
55592.0
0
LINE
8
BLACK
10
81108.0
20
55592.0
11
80800.0
21
55899.0
0
LINE
8
BLACK
10
80800.0
20
55899.0
11
80492.0
21
55592.0
0
LINE
8
BLACK
10
80492.0
20
55592.0
11
80519.0
21
55498.0
0
LINE
8
BLACK
10
80519.0
20
55498.0
11
80721.0
21
55427.0
0
LINE
8
BLACK
10
80721.0
20
55427.0
11
80934.0
21
55438.0
0
LINE
8
BLACK
10
80934.0
20
55438.0
11
81081.0
21
55498.0
0
LINE
8
BLACK
10
81081.0
20
55498.0
11
81108.0
21
55592.0
0
LINE
8
BLACK
10
81108.0
20
55592.0
11
81108.0
21
54957.0
0
LINE
8
BLACK
10
81108.0
20
54957.0
11
81090.0
21
54939.0
0
LINE
8
BLACK
10
81090.0
20
54939.0
11
81090.0
21
55081.0
0
LINE
8
BLACK
10
81090.0
20
55081.0
11
81067.0
21
55172.0
0
LINE
8
BLACK
10
81067.0
20
55172.0
11
80874.0
21
55239.0
0
LINE
8
BLACK
10
80874.0
20
55239.0
11
80670.0
21
55228.0
0
LINE
8
BLACK
10
80670.0
20
55228.0
11
80533.0
21
55172.0
0
LINE
8
BLACK
10
80533.0
20
55172.0
11
80510.0
21
55081.0
0
LINE
8
BLACK
10
80510.0
20
55081.0
11
80800.0
21
54791.0
0
LINE
8
BLACK
10
80800.0
20
54791.0
11
81090.0
21
55081.0
0
LINE
8
BLACK
10
81090.0
20
55081.0
11
81090.0
21
54939.0
0
LINE
8
BLACK
10
81090.0
20
54939.0
11
80871.0
21
54720.0
0
LINE
8
BLACK
10
80871.0
20
54720.0
11
81161.0
21
54430.0
0
LINE
8
BLACK
10
81161.0
20
54430.0
11
81252.0
21
54453.0
0
LINE
8
BLACK
10
81252.0
20
54453.0
11
81319.0
21
54646.0
0
LINE
8
BLACK
10
81319.0
20
54646.0
11
81316.0
21
54692.0
0
LINE
8
BLACK
10
81316.0
20
54692.0
11
81428.0
21
54422.0
0
LINE
8
BLACK
10
81428.0
20
54422.0
11
81458.0
21
54392.0
0
LINE
8
BLACK
10
81458.0
20
54392.0
11
81449.0
21
53893.0
0
LINE
8
BLACK
10
81449.0
20
53893.0
11
81439.0
21
53888.0
0
LINE
8
BLACK
10
81439.0
20
53888.0
11
81285.0
21
53734.0
0
LINE
8
BLACK
10
81285.0
20
53734.0
11
81250.0
21
53650.0
0
LINE
8
BLACK
10
81250.0
20
53650.0
11
81215.0
21
53734.0
0
LINE
8
BLACK
10
81215.0
20
53734.0
11
81090.0
21
53859.0
0
LINE
8
BLACK
10
81090.0
20
53859.0
11
81090.0
21
54359.0
0
LINE
8
BLACK
10
81090.0
20
54359.0
11
80800.0
21
54649.0
0
LINE
8
BLACK
10
80800.0
20
54649.0
11
80729.0
21
54578.0
0
LINE
8
BLACK
10
80729.0
20
54578.0
11
80729.0
21
54720.0
0
LINE
8
BLACK
10
80729.0
20
54720.0
11
80439.0
21
55010.0
0
LINE
8
BLACK
10
80439.0
20
55010.0
11
80348.0
21
54987.0
0
LINE
8
BLACK
10
80348.0
20
54987.0
11
80306.0
21
54869.0
0
LINE
8
BLACK
10
80306.0
20
54869.0
11
80245.0
21
55017.0
0
LINE
8
BLACK
10
80245.0
20
55017.0
11
80098.0
21
55165.0
0
LINE
8
BLACK
10
80098.0
20
55165.0
11
79905.0
21
55245.0
0
LINE
8
BLACK
10
79905.0
20
55245.0
11
79696.0
21
55245.0
0
LINE
8
BLACK
10
79696.0
20
55245.0
11
79503.0
21
55165.0
0
LINE
8
BLACK
10
79503.0
20
55165.0
11
79355.0
21
55018.0
0
LINE
8
BLACK
10
79355.0
20
55018.0
11
79275.0
21
54825.0
0
LINE
8
BLACK
10
79275.0
20
54825.0
11
79275.0
21
54616.0
0
LINE
8
BLACK
10
79275.0
20
54616.0
11
79355.0
21
54423.0
0
LINE
8
BLACK
10
79355.0
20
54423.0
11
79502.0
21
54275.0
0
LINE
8
BLACK
10
79502.0
20
54275.0
11
79695.0
21
54195.0
0
LINE
8
BLACK
10
79695.0
20
54195.0
11
79904.0
21
54195.0
0
LINE
8
BLACK
10
79904.0
20
54195.0
11
80097.0
21
54275.0
0
LINE
8
BLACK
10
80097.0
20
54275.0
11
80245.0
21
54422.0
0
LINE
8
BLACK
10
80245.0
20
54422.0
11
80303.0
21
54563.0
0
LINE
8
BLACK
10
80303.0
20
54563.0
11
80348.0
21
54453.0
0
LINE
8
BLACK
10
80348.0
20
54453.0
11
80439.0
21
54430.0
0
LINE
8
BLACK
10
80439.0
20
54430.0
11
80729.0
21
54720.0
0
LINE
8
BLACK
10
80729.0
20
54720.0
11
80729.0
21
54578.0
0
LINE
8
BLACK
10
80729.0
20
54578.0
11
80510.0
21
54359.0
0
LINE
8
BLACK
10
80510.0
20
54359.0
11
80533.0
21
54268.0
0
LINE
8
BLACK
10
80533.0
20
54268.0
11
80726.0
21
54201.0
0
LINE
8
BLACK
10
80726.0
20
54201.0
11
80930.0
21
54212.0
0
LINE
8
BLACK
10
80930.0
20
54212.0
11
81067.0
21
54268.0
0
LINE
8
BLACK
10
81067.0
20
54268.0
11
81090.0
21
54359.0
0
LINE
8
BLACK
10
81090.0
20
54359.0
11
81090.0
21
53859.0
0
LINE
8
BLACK
10
81090.0
20
53859.0
11
81061.0
21
53888.0
0
LINE
8
BLACK
10
81061.0
20
53888.0
11
80859.0
21
53972.0
0
LINE
8
BLACK
10
80859.0
20
53972.0
11
80641.0
21
53972.0
0
LINE
8
BLACK
10
80641.0
20
53972.0
11
80439.0
21
53888.0
0
LINE
8
BLACK
10
80439.0
20
53888.0
11
80285.0
21
53734.0
0
LINE
8
BLACK
10
80285.0
20
53734.0
11
80250.0
21
53650.0
0
LINE
8
BLACK
10
80250.0
20
53650.0
11
80215.0
21
53734.0
0
LINE
8
BLACK
10
80215.0
20
53734.0
11
80061.0
21
53888.0
0
LINE
8
BLACK
10
80061.0
20
53888.0
11
79859.0
21
53972.0
0
LINE
8
BLACK
10
79859.0
20
53972.0
11
79641.0
21
53972.0
0
LINE
8
BLACK
10
79641.0
20
53972.0
11
79439.0
21
53888.0
0
LINE
8
BLACK
10
79439.0
20
53888.0
11
79285.0
21
53734.0
0
LINE
8
BLACK
10
79285.0
20
53734.0
11
79201.0
21
53532.0
0
LINE
8
BLACK
10
79201.0
20
53532.0
11
79201.0
21
53314.0
0
LINE
8
BLACK
10
79201.0
20
53314.0
11
79201.0
21
53008.0
0
LINE
8
BLACK
10
79201.0
20
53008.0
11
79241.0
21
52910.0
0
LINE
8
BLACK
10
79241.0
20
52910.0
11
79170.0
21
52910.0
0
LINE
8
BLACK
10
79170.0
20
52910.0
11
78990.0
21
53090.0
0
LINE
8
BLACK
10
78990.0
20
53090.0
11
78990.0
21
53620.0
0
LINE
8
BLACK
10
78990.0
20
53620.0
11
78968.0
21
53731.0
0
LINE
8
BLACK
10
78968.0
20
53731.0
11
78905.0
21
53825.0
0
LINE
8
BLACK
10
78905.0
20
53825.0
11
78875.0
21
53855.0
0
LINE
8
BLACK
10
78875.0
20
53855.0
11
78875.0
21
53954.0
0
LINE
8
BLACK
10
78875.0
20
53954.0
11
78811.0
21
54110.0
0
LINE
8
BLACK
10
78811.0
20
54110.0
11
78691.0
21
54230.0
0
LINE
8
BLACK
10
78691.0
20
54230.0
11
78535.0
21
54295.0
0
LINE
8
BLACK
10
78535.0
20
54295.0
11
78366.0
21
54295.0
0
LINE
8
BLACK
10
78366.0
20
54295.0
11
78210.0
21
54231.0
0
LINE
8
BLACK
10
78210.0
20
54231.0
11
78090.0
21
54111.0
0
LINE
8
BLACK
10
78090.0
20
54111.0
11
78025.0
21
53955.0
0
LINE
8
BLACK
10
78025.0
20
53955.0
11
78025.0
21
53786.0
0
LINE
8
BLACK
10
78025.0
20
53786.0
11
78089.0
21
53630.0
0
LINE
8
BLACK
10
78089.0
20
53630.0
11
78209.0
21
53510.0
0
LINE
8
BLACK
10
78209.0
20
53510.0
11
78365.0
21
53445.0
0
LINE
8
BLACK
10
78365.0
20
53445.0
11
78410.0
21
53445.0
0
LINE
8
BLACK
10
78410.0
20
53445.0
11
78410.0
21
52970.0
0
LINE
8
BLACK
10
78410.0
20
52970.0
11
78432.0
21
52859.0
0
LINE
8
BLACK
10
78432.0
20
52859.0
11
78495.0
21
52765.0
0
LINE
8
BLACK
10
78495.0
20
52765.0
11
78844.0
21
52416.0
0
LINE
8
BLACK
10
78844.0
20
52416.0
11
78845.0
21
52415.0
0
LINE
8
BLACK
10
78845.0
20
52415.0
11
78938.0
21
52353.0
0
LINE
8
BLACK
10
78938.0
20
52353.0
11
78939.0
21
52352.0
0
LINE
8
BLACK
10
78939.0
20
52352.0
11
79049.0
21
52331.0
0
LINE
8
BLACK
10
79049.0
20
52331.0
11
79050.0
21
52330.0
0
LINE
8
BLACK
10
79050.0
20
52330.0
11
80500.0
21
52330.0
0
LINE
8
BLACK
10
80500.0
20
52330.0
11
80611.0
21
52352.0
0
LINE
8
BLACK
10
80611.0
20
52352.0
11
80705.0
21
52415.0
0
LINE
8
BLACK
10
80705.0
20
52415.0
11
80858.0
21
52568.0
0
LINE
8
BLACK
10
80858.0
20
52568.0
11
80859.0
21
52568.0
0
LINE
8
BLACK
10
80859.0
20
52568.0
11
81061.0
21
52652.0
0
LINE
8
BLACK
10
81061.0
20
52652.0
11
81215.0
21
52806.0
0
LINE
8
BLACK
10
81215.0
20
52806.0
11
81250.0
21
52891.0
0
LINE
8
BLACK
10
81250.0
20
52891.0
11
81285.0
21
52806.0
0
LINE
8
BLACK
10
81285.0
20
52806.0
11
81439.0
21
52652.0
0
LINE
8
BLACK
10
81439.0
20
52652.0
11
81641.0
21
52568.0
0
LINE
8
BLACK
10
81641.0
20
52568.0
11
81859.0
21
52568.0
0
LINE
8
BLACK
10
81859.0
20
52568.0
11
82061.0
21
52652.0
0
LINE
8
BLACK
10
82061.0
20
52652.0
11
82191.0
21
52782.0
0
LINE
8
BLACK
10
82191.0
20
52782.0
11
82191.0
21
52770.0
0
LINE
8
BLACK
10
82191.0
20
52770.0
11
82229.0
21
52679.0
0
LINE
8
BLACK
10
82229.0
20
52679.0
11
82299.0
21
52609.0
0
LINE
8
BLACK
10
82299.0
20
52609.0
11
82391.0
21
52571.0
0
LINE
8
BLACK
10
82391.0
20
52571.0
11
82638.0
21
52570.0
0
LINE
8
BLACK
10
82638.0
20
52570.0
11
82700.0
21
52632.0
0
LINE
8
BLACK
10
82700.0
20
52632.0
11
82700.0
21
53170.0
0
LINE
8
BLACK
10
82700.0
20
53170.0
11
82700.0
21
53220.0
0
LINE
8
BLACK
10
82700.0
20
53220.0
11
82700.0
21
53320.0
0
LINE
8
BLACK
10
82700.0
20
53320.0
11
82800.0
21
53320.0
0
LINE
8
BLACK
10
82800.0
20
53320.0
11
82850.0
21
53320.0
0
LINE
8
BLACK
10
82850.0
20
53320.0
11
83248.0
21
53320.0
0
LINE
8
BLACK
10
83248.0
20
53320.0
11
83310.0
21
53382.0
0
LINE
8
BLACK
10
83310.0
20
53382.0
11
83309.0
21
53671.0
0
LINE
8
BLACK
10
83309.0
20
53671.0
11
83309.0
21
53770.0
0
LINE
8
BLACK
10
83309.0
20
53770.0
11
83271.0
21
53861.0
0
LINE
8
BLACK
10
83271.0
20
53861.0
11
83262.0
21
53870.0
0
LINE
8
BLACK
10
83262.0
20
53870.0
11
83825.0
21
53870.0
0
LINE
8
BLACK
10
83825.0
20
53870.0
11
83825.0
21
49166.0
0
LINE
8
BLACK
10
83825.0
20
49166.0
11
83551.0
21
49441.0
0
LINE
8
BLACK
10
83551.0
20
49441.0
11
83310.0
21
49541.0
0
LINE
8
BLACK
10
83310.0
20
49541.0
11
83310.0
21
53158.0
0
LINE
8
BLACK
10
83310.0
20
53158.0
11
83248.0
21
53220.0
0
LINE
8
BLACK
10
83248.0
20
53220.0
11
82800.0
21
53220.0
0
LINE
8
BLACK
10
82800.0
20
53220.0
11
82800.0
21
52632.0
0
LINE
8
BLACK
10
82800.0
20
52632.0
11
82862.0
21
52570.0
0
LINE
8
BLACK
10
82862.0
20
52570.0
11
83109.0
21
52571.0
0
LINE
8
BLACK
10
83109.0
20
52571.0
11
83201.0
21
52609.0
0
LINE
8
BLACK
10
83201.0
20
52609.0
11
83271.0
21
52679.0
0
LINE
8
BLACK
10
83271.0
20
52679.0
11
83309.0
21
52770.0
0
LINE
8
BLACK
10
83309.0
20
52770.0
11
83309.0
21
52869.0
0
LINE
8
BLACK
10
83309.0
20
52869.0
11
83310.0
21
53158.0
0
LINE
8
BLACK
10
83310.0
20
53158.0
11
83310.0
21
49541.0
0
LINE
8
BLACK
10
83310.0
20
49541.0
11
83051.0
21
49648.0
0
LINE
8
BLACK
10
83051.0
20
49648.0
11
83061.0
21
49652.0
0
LINE
8
BLACK
10
83061.0
20
49652.0
11
83215.0
21
49806.0
0
LINE
8
BLACK
10
83215.0
20
49806.0
11
83299.0
21
50008.0
0
LINE
8
BLACK
10
83299.0
20
50008.0
11
83299.0
21
50226.0
0
LINE
8
BLACK
10
83299.0
20
50226.0
11
83299.0
21
50532.0
0
LINE
8
BLACK
10
83299.0
20
50532.0
11
83215.0
21
50734.0
0
LINE
8
BLACK
10
83215.0
20
50734.0
11
83061.0
21
50888.0
0
LINE
8
BLACK
10
83061.0
20
50888.0
11
82859.0
21
50972.0
0
LINE
8
BLACK
10
82859.0
20
50972.0
11
82641.0
21
50972.0
0
LINE
8
BLACK
10
82641.0
20
50972.0
11
82439.0
21
50888.0
0
LINE
8
BLACK
10
82439.0
20
50888.0
11
82285.0
21
50734.0
0
LINE
8
BLACK
10
82285.0
20
50734.0
11
82250.0
21
50650.0
0
LINE
8
BLACK
10
82250.0
20
50650.0
11
82215.0
21
50734.0
0
LINE
8
BLACK
10
82215.0
20
50734.0
11
82061.0
21
50888.0
0
LINE
8
BLACK
10
82061.0
20
50888.0
11
81859.0
21
50972.0
0
LINE
8
BLACK
10
81859.0
20
50972.0
11
81641.0
21
50972.0
0
LINE
8
BLACK
10
81641.0
20
50972.0
11
81439.0
21
50888.0
0
LINE
8
BLACK
10
81439.0
20
50888.0
11
81285.0
21
50734.0
0
LINE
8
BLACK
10
81285.0
20
50734.0
11
81250.0
21
50650.0
0
LINE
8
BLACK
10
81250.0
20
50650.0
11
81215.0
21
50734.0
0
LINE
8
BLACK
10
81215.0
20
50734.0
11
81061.0
21
50888.0
0
LINE
8
BLACK
10
81061.0
20
50888.0
11
81040.0
21
50897.0
0
LINE
8
BLACK
10
81040.0
20
50897.0
11
81040.0
21
51495.0
0
LINE
8
BLACK
10
81040.0
20
51495.0
11
81134.0
21
51495.0
0
LINE
8
BLACK
10
81134.0
20
51495.0
11
81290.0
21
51559.0
0
LINE
8
BLACK
10
81290.0
20
51559.0
11
81410.0
21
51679.0
0
LINE
8
BLACK
10
81410.0
20
51679.0
11
81475.0
21
51835.0
0
LINE
8
BLACK
10
81475.0
20
51835.0
11
81475.0
21
52004.0
0
LINE
8
BLACK
10
81475.0
20
52004.0
11
81411.0
21
52160.0
0
LINE
8
BLACK
10
81411.0
20
52160.0
11
81291.0
21
52280.0
0
LINE
8
BLACK
10
81291.0
20
52280.0
11
81135.0
21
52345.0
0
LINE
8
BLACK
10
81135.0
20
52345.0
11
80966.0
21
52345.0
0
LINE
8
BLACK
10
80966.0
20
52345.0
11
80810.0
21
52281.0
0
LINE
8
BLACK
10
80810.0
20
52281.0
11
80690.0
21
52161.0
0
LINE
8
BLACK
10
80690.0
20
52161.0
11
80625.0
21
52005.0
0
LINE
8
BLACK
10
80625.0
20
52005.0
11
80625.0
21
51905.0
0
LINE
8
BLACK
10
80625.0
20
51905.0
11
80545.0
21
51825.0
0
LINE
8
BLACK
10
80545.0
20
51825.0
11
80482.0
21
51731.0
0
LINE
8
BLACK
10
80482.0
20
51731.0
11
80460.0
21
51620.0
0
LINE
8
BLACK
10
80460.0
20
51620.0
11
80460.0
21
50897.0
0
LINE
8
BLACK
10
80460.0
20
50897.0
11
80439.0
21
50888.0
0
LINE
8
BLACK
10
80439.0
20
50888.0
11
80285.0
21
50734.0
0
LINE
8
BLACK
10
80285.0
20
50734.0
11
80250.0
21
50650.0
0
LINE
8
BLACK
10
80250.0
20
50650.0
11
80215.0
21
50734.0
0
LINE
8
BLACK
10
80215.0
20
50734.0
11
80061.0
21
50888.0
0
LINE
8
BLACK
10
80061.0
20
50888.0
11
79859.0
21
50972.0
0
LINE
8
BLACK
10
79859.0
20
50972.0
11
79641.0
21
50972.0
0
LINE
8
BLACK
10
79641.0
20
50972.0
11
79439.0
21
50888.0
0
LINE
8
BLACK
10
79439.0
20
50888.0
11
79285.0
21
50734.0
0
LINE
8
BLACK
10
79285.0
20
50734.0
11
79201.0
21
50532.0
0
LINE
8
BLACK
10
79201.0
20
50532.0
11
79201.0
21
50314.0
0
LINE
8
BLACK
10
79201.0
20
50314.0
11
79201.0
21
50008.0
0
LINE
8
BLACK
10
79201.0
20
50008.0
11
79285.0
21
49806.0
0
LINE
8
BLACK
10
79285.0
20
49806.0
11
79439.0
21
49652.0
0
LINE
8
BLACK
10
79439.0
20
49652.0
11
79641.0
21
49568.0
0
LINE
8
BLACK
10
79641.0
20
49568.0
11
79642.0
21
49568.0
0
LINE
8
BLACK
10
79642.0
20
49568.0
11
79998.0
21
49212.0
0
LINE
8
BLACK
10
79998.0
20
49212.0
11
79955.0
21
49168.0
0
LINE
8
BLACK
10
79955.0
20
49168.0
11
79896.0
21
49028.0
0
LINE
8
BLACK
10
79896.0
20
49028.0
11
79852.0
21
49137.0
0
LINE
8
BLACK
10
79852.0
20
49137.0
11
79761.0
21
49160.0
0
LINE
8
BLACK
10
79761.0
20
49160.0
11
79690.0
21
49089.0
0
LINE
8
BLACK
10
79690.0
20
49089.0
11
79690.0
21
49231.0
0
LINE
8
BLACK
10
79690.0
20
49231.0
11
79667.0
21
49322.0
0
LINE
8
BLACK
10
79667.0
20
49322.0
11
79474.0
21
49389.0
0
LINE
8
BLACK
10
79474.0
20
49389.0
11
79270.0
21
49378.0
0
LINE
8
BLACK
10
79270.0
20
49378.0
11
79133.0
21
49322.0
0
LINE
8
BLACK
10
79133.0
20
49322.0
11
79110.0
21
49231.0
0
LINE
8
BLACK
10
79110.0
20
49231.0
11
79400.0
21
48941.0
0
LINE
8
BLACK
10
79400.0
20
48941.0
11
79690.0
21
49231.0
0
LINE
8
BLACK
10
79690.0
20
49231.0
11
79690.0
21
49089.0
0
LINE
8
BLACK
10
79690.0
20
49089.0
11
79471.0
21
48870.0
0
LINE
8
BLACK
10
79471.0
20
48870.0
11
79761.0
21
48580.0
0
LINE
8
BLACK
10
79761.0
20
48580.0
11
79852.0
21
48603.0
0
LINE
8
BLACK
10
79852.0
20
48603.0
11
79893.0
21
48722.0
0
LINE
8
BLACK
10
79893.0
20
48722.0
11
79955.0
21
48573.0
0
LINE
8
BLACK
10
79955.0
20
48573.0
11
80102.0
21
48425.0
0
LINE
8
BLACK
10
80102.0
20
48425.0
11
80167.0
21
48398.0
0
LINE
8
BLACK
10
80167.0
20
48398.0
11
79739.0
21
47969.0
0
LINE
8
BLACK
10
79739.0
20
47969.0
11
79691.0
21
47969.0
0
LINE
8
BLACK
10
79691.0
20
47969.0
11
79690.0
21
47969.0
0
LINE
8
BLACK
10
79690.0
20
47969.0
11
79690.0
21
48509.0
0
LINE
8
BLACK
10
79690.0
20
48509.0
11
79400.0
21
48799.0
0
LINE
8
BLACK
10
79400.0
20
48799.0
11
79329.0
21
48728.0
0
LINE
8
BLACK
10
79329.0
20
48728.0
11
79329.0
21
48870.0
0
LINE
8
BLACK
10
79329.0
20
48870.0
11
79039.0
21
49160.0
0
LINE
8
BLACK
10
79039.0
20
49160.0
11
78948.0
21
49137.0
0
LINE
8
BLACK
10
78948.0
20
49137.0
11
78881.0
21
48944.0
0
LINE
8
BLACK
10
78881.0
20
48944.0
11
78892.0
21
48740.0
0
LINE
8
BLACK
10
78892.0
20
48740.0
11
78948.0
21
48603.0
0
LINE
8
BLACK
10
78948.0
20
48603.0
11
79039.0
21
48580.0
0
LINE
8
BLACK
10
79039.0
20
48580.0
11
79329.0
21
48870.0
0
LINE
8
BLACK
10
79329.0
20
48870.0
11
79329.0
21
48728.0
0
LINE
8
BLACK
10
79329.0
20
48728.0
11
79110.0
21
48509.0
0
LINE
8
BLACK
10
79110.0
20
48509.0
11
79133.0
21
48418.0
0
LINE
8
BLACK
10
79133.0
20
48418.0
11
79326.0
21
48351.0
0
LINE
8
BLACK
10
79326.0
20
48351.0
11
79530.0
21
48362.0
0
LINE
8
BLACK
10
79530.0
20
48362.0
11
79667.0
21
48418.0
0
LINE
8
BLACK
10
79667.0
20
48418.0
11
79690.0
21
48509.0
0
LINE
8
BLACK
10
79690.0
20
48509.0
11
79690.0
21
47969.0
0
LINE
8
BLACK
10
79690.0
20
47969.0
11
79489.0
21
47885.0
0
LINE
8
BLACK
10
79489.0
20
47885.0
11
79349.0
21
47745.0
0
LINE
8
BLACK
10
79349.0
20
47745.0
11
79349.0
21
47769.0
0
LINE
8
BLACK
10
79349.0
20
47769.0
11
79311.0
21
47861.0
0
LINE
8
BLACK
10
79311.0
20
47861.0
11
79241.0
21
47931.0
0
LINE
8
BLACK
10
79241.0
20
47931.0
11
79150.0
21
47969.0
0
LINE
8
BLACK
10
79150.0
20
47969.0
11
79051.0
21
47969.0
0
LINE
8
BLACK
10
79051.0
20
47969.0
11
78451.0
21
47969.0
0
LINE
8
BLACK
10
78451.0
20
47969.0
11
78359.0
21
47931.0
0
LINE
8
BLACK
10
78359.0
20
47931.0
11
78289.0
21
47861.0
0
LINE
8
BLACK
10
78289.0
20
47861.0
11
78251.0
21
47770.0
0
LINE
8
BLACK
10
78251.0
20
47770.0
11
78251.0
21
47671.0
0
LINE
8
BLACK
10
78251.0
20
47671.0
11
78251.0
21
47071.0
0
LINE
8
BLACK
10
78251.0
20
47071.0
11
78261.0
21
47045.0
0
LINE
8
BLACK
10
78261.0
20
47045.0
11
77419.0
21
47045.0
0
LINE
8
BLACK
10
77419.0
20
47045.0
11
77419.0
21
47396.0
0
LINE
8
BLACK
10
77419.0
20
47396.0
11
77408.0
21
47600.0
0
LINE
8
BLACK
10
77408.0
20
47600.0
11
77352.0
21
47737.0
0
LINE
8
BLACK
10
77352.0
20
47737.0
11
77261.0
21
47760.0
0
LINE
8
BLACK
10
77261.0
20
47760.0
11
76971.0
21
47470.0
0
LINE
8
BLACK
10
76971.0
20
47470.0
11
77261.0
21
47180.0
0
LINE
8
BLACK
10
77261.0
20
47180.0
11
77352.0
21
47203.0
0
LINE
8
BLACK
10
77352.0
20
47203.0
11
77419.0
21
47396.0
0
LINE
8
BLACK
10
77419.0
20
47396.0
11
77419.0
21
47045.0
0
LINE
8
BLACK
10
77419.0
20
47045.0
11
77173.0
21
47045.0
0
LINE
8
BLACK
10
77173.0
20
47045.0
11
77190.0
21
47109.0
0
LINE
8
BLACK
10
77190.0
20
47109.0
11
76900.0
21
47399.0
0
LINE
8
BLACK
10
76900.0
20
47399.0
11
76829.0
21
47328.0
0
LINE
8
BLACK
10
76829.0
20
47328.0
11
76829.0
21
47470.0
0
LINE
8
BLACK
10
76829.0
20
47470.0
11
76539.0
21
47760.0
0
LINE
8
BLACK
10
76539.0
20
47760.0
11
76448.0
21
47737.0
0
LINE
8
BLACK
10
76448.0
20
47737.0
11
76381.0
21
47544.0
0
LINE
8
BLACK
10
76381.0
20
47544.0
11
76392.0
21
47340.0
0
LINE
8
BLACK
10
76392.0
20
47340.0
11
76448.0
21
47203.0
0
LINE
8
BLACK
10
76448.0
20
47203.0
11
76539.0
21
47180.0
0
LINE
8
BLACK
10
76539.0
20
47180.0
11
76829.0
21
47470.0
0
LINE
8
BLACK
10
76829.0
20
47470.0
11
76829.0
21
47328.0
0
LINE
8
BLACK
10
76829.0
20
47328.0
11
76610.0
21
47109.0
0
LINE
8
BLACK
10
76610.0
20
47109.0
11
76626.0
21
47045.0
0
LINE
8
BLACK
10
76626.0
20
47045.0
11
75798.0
21
47045.0
0
LINE
8
BLACK
10
75798.0
20
47045.0
11
75798.0
21
47077.0
0
LINE
8
BLACK
10
75798.0
20
47077.0
11
75895.0
21
47172.0
0
LINE
8
BLACK
10
75895.0
20
47172.0
11
75975.0
21
47365.0
0
LINE
8
BLACK
10
75975.0
20
47365.0
11
75975.0
21
47574.0
0
LINE
8
BLACK
10
75975.0
20
47574.0
11
75971.0
21
47582.0
0
LINE
8
BLACK
10
75971.0
20
47582.0
11
76508.0
21
48119.0
0
LINE
8
BLACK
10
76508.0
20
48119.0
11
76602.0
21
48025.0
0
LINE
8
BLACK
10
76602.0
20
48025.0
11
76742.0
21
47967.0
0
LINE
8
BLACK
10
76742.0
20
47967.0
11
76633.0
21
47922.0
0
LINE
8
BLACK
10
76633.0
20
47922.0
11
76610.0
21
47831.0
0
LINE
8
BLACK
10
76610.0
20
47831.0
11
76900.0
21
47541.0
0
LINE
8
BLACK
10
76900.0
20
47541.0
11
77190.0
21
47831.0
0
LINE
8
BLACK
10
77190.0
20
47831.0
11
77167.0
21
47922.0
0
LINE
8
BLACK
10
77167.0
20
47922.0
11
77048.0
21
47964.0
0
LINE
8
BLACK
10
77048.0
20
47964.0
11
77197.0
21
48025.0
0
LINE
8
BLACK
10
77197.0
20
48025.0
11
77345.0
21
48172.0
0
LINE
8
BLACK
10
77345.0
20
48172.0
11
77376.0
21
48247.0
0
LINE
8
BLACK
10
77376.0
20
48247.0
11
77376.0
21
48146.0
0
LINE
8
BLACK
10
77376.0
20
48146.0
11
77414.0
21
48054.0
0
LINE
8
BLACK
10
77414.0
20
48054.0
11
77484.0
21
47984.0
0
LINE
8
BLACK
10
77484.0
20
47984.0
11
77575.0
21
47946.0
0
LINE
8
BLACK
10
77575.0
20
47946.0
11
77674.0
21
47946.0
0
LINE
8
BLACK
10
77674.0
20
47946.0
11
78224.0
21
47946.0
0
LINE
8
BLACK
10
78224.0
20
47946.0
11
78316.0
21
47984.0
0
LINE
8
BLACK
10
78316.0
20
47984.0
11
78386.0
21
48054.0
0
LINE
8
BLACK
10
78386.0
20
48054.0
11
78424.0
21
48145.0
0
LINE
8
BLACK
10
78424.0
20
48145.0
11
78424.0
21
48244.0
0
LINE
8
BLACK
10
78424.0
20
48244.0
11
78424.0
21
48794.0
0
LINE
8
BLACK
10
78424.0
20
48794.0
11
78386.0
21
48886.0
0
LINE
8
BLACK
10
78386.0
20
48886.0
11
78316.0
21
48956.0
0
LINE
8
BLACK
10
78316.0
20
48956.0
11
78225.0
21
48994.0
0
LINE
8
BLACK
10
78225.0
20
48994.0
11
78126.0
21
48994.0
0
LINE
8
BLACK
10
78126.0
20
48994.0
11
78036.0
21
48994.0
0
LINE
8
BLACK
10
78036.0
20
48994.0
11
77905.0
21
49125.0
0
LINE
8
BLACK
10
77905.0
20
49125.0
11
77811.0
21
49188.0
0
LINE
8
BLACK
10
77811.0
20
49188.0
11
77700.0
21
49210.0
0
LINE
8
BLACK
10
77700.0
20
49210.0
11
75850.0
21
49210.0
0
LINE
8
BLACK
10
75850.0
20
49210.0
11
75787.0
21
49198.0
0
LINE
8
BLACK
10
75787.0
20
49198.0
11
75785.0
21
49620.0
0
LINE
8
BLACK
10
75785.0
20
49620.0
11
75805.0
21
49573.0
0
LINE
8
BLACK
10
75805.0
20
49573.0
11
75952.0
21
49425.0
0
LINE
8
BLACK
10
75952.0
20
49425.0
11
76145.0
21
49345.0
0
LINE
8
BLACK
10
76145.0
20
49345.0
11
76354.0
21
49345.0
0
LINE
8
BLACK
10
76354.0
20
49345.0
11
76547.0
21
49425.0
0
LINE
8
BLACK
10
76547.0
20
49425.0
11
76695.0
21
49572.0
0
LINE
8
BLACK
10
76695.0
20
49572.0
11
76698.0
21
49580.0
0
LINE
8
BLACK
10
76698.0
20
49580.0
11
77600.0
21
49580.0
0
LINE
8
BLACK
10
77600.0
20
49580.0
11
77711.0
21
49602.0
0
LINE
8
BLACK
10
77711.0
20
49602.0
11
77805.0
21
49665.0
0
LINE
8
BLACK
10
77805.0
20
49665.0
11
78306.0
21
50167.0
0
LINE
8
BLACK
10
78306.0
20
50167.0
11
78447.0
21
50225.0
0
LINE
8
BLACK
10
78447.0
20
50225.0
11
78595.0
21
50372.0
0
LINE
8
BLACK
10
78595.0
20
50372.0
11
78675.0
21
50565.0
0
LINE
8
BLACK
10
78675.0
20
50565.0
11
78675.0
21
50774.0
0
LINE
8
BLACK
10
78675.0
20
50774.0
11
78669.0
21
50789.0
0
LINE
8
BLACK
10
78669.0
20
50789.0
11
78669.0
21
51596.0
0
LINE
8
BLACK
10
78669.0
20
51596.0
11
78658.0
21
51800.0
0
LINE
8
BLACK
10
78658.0
20
51800.0
11
78602.0
21
51937.0
0
LINE
8
BLACK
10
78602.0
20
51937.0
11
78511.0
21
51960.0
0
LINE
8
BLACK
10
78511.0
20
51960.0
11
78440.0
21
51889.0
0
LINE
8
BLACK
10
78440.0
20
51889.0
11
78440.0
21
52031.0
0
LINE
8
BLACK
10
78440.0
20
52031.0
11
78417.0
21
52122.0
0
LINE
8
BLACK
10
78417.0
20
52122.0
11
78224.0
21
52189.0
0
LINE
8
BLACK
10
78224.0
20
52189.0
11
78020.0
21
52178.0
0
LINE
8
BLACK
10
78020.0
20
52178.0
11
77883.0
21
52122.0
0
LINE
8
BLACK
10
77883.0
20
52122.0
11
77860.0
21
52031.0
0
LINE
8
BLACK
10
77860.0
20
52031.0
11
78150.0
21
51741.0
0
LINE
8
BLACK
10
78150.0
20
51741.0
11
78440.0
21
52031.0
0
LINE
8
BLACK
10
78440.0
20
52031.0
11
78440.0
21
51889.0
0
LINE
8
BLACK
10
78440.0
20
51889.0
11
78221.0
21
51670.0
0
LINE
8
BLACK
10
78221.0
20
51670.0
11
78511.0
21
51380.0
0
LINE
8
BLACK
10
78511.0
20
51380.0
11
78602.0
21
51403.0
0
LINE
8
BLACK
10
78602.0
20
51403.0
11
78669.0
21
51596.0
0
LINE
8
BLACK
10
78669.0
20
51596.0
11
78669.0
21
50789.0
0
LINE
8
BLACK
10
78669.0
20
50789.0
11
78595.0
21
50967.0
0
LINE
8
BLACK
10
78595.0
20
50967.0
11
78448.0
21
51115.0
0
LINE
8
BLACK
10
78448.0
20
51115.0
11
78307.0
21
51174.0
0
LINE
8
BLACK
10
78307.0
20
51174.0
11
78417.0
21
51218.0
0
LINE
8
BLACK
10
78417.0
20
51218.0
11
78440.0
21
51309.0
0
LINE
8
BLACK
10
78440.0
20
51309.0
11
78150.0
21
51599.0
0
LINE
8
BLACK
10
78150.0
20
51599.0
11
78079.0
21
51528.0
0
LINE
8
BLACK
10
78079.0
20
51528.0
11
78079.0
21
51670.0
0
LINE
8
BLACK
10
78079.0
20
51670.0
11
77789.0
21
51960.0
0
LINE
8
BLACK
10
77789.0
20
51960.0
11
77698.0
21
51937.0
0
LINE
8
BLACK
10
77698.0
20
51937.0
11
77631.0
21
51744.0
0
LINE
8
BLACK
10
77631.0
20
51744.0
11
77642.0
21
51540.0
0
LINE
8
BLACK
10
77642.0
20
51540.0
11
77698.0
21
51403.0
0
LINE
8
BLACK
10
77698.0
20
51403.0
11
77789.0
21
51380.0
0
LINE
8
BLACK
10
77789.0
20
51380.0
11
78079.0
21
51670.0
0
LINE
8
BLACK
10
78079.0
20
51670.0
11
78079.0
21
51528.0
0
LINE
8
BLACK
10
78079.0
20
51528.0
11
77860.0
21
51309.0
0
LINE
8
BLACK
10
77860.0
20
51309.0
11
77883.0
21
51218.0
0
LINE
8
BLACK
10
77883.0
20
51218.0
11
78001.0
21
51177.0
0
LINE
8
BLACK
10
78001.0
20
51177.0
11
77853.0
21
51115.0
0
LINE
8
BLACK
10
77853.0
20
51115.0
11
77705.0
21
50968.0
0
LINE
8
BLACK
10
77705.0
20
50968.0
11
77674.0
21
50894.0
0
LINE
8
BLACK
10
77674.0
20
50894.0
11
77674.0
21
50994.0
0
LINE
8
BLACK
10
77674.0
20
50994.0
11
77636.0
21
51086.0
0
LINE
8
BLACK
10
77636.0
20
51086.0
11
77566.0
21
51156.0
0
LINE
8
BLACK
10
77566.0
20
51156.0
11
77475.0
21
51194.0
0
LINE
8
BLACK
10
77475.0
20
51194.0
11
77376.0
21
51194.0
0
LINE
8
BLACK
10
77376.0
20
51194.0
11
77319.0
21
51194.0
0
LINE
8
BLACK
10
77319.0
20
51194.0
11
77319.0
21
51846.0
0
LINE
8
BLACK
10
77319.0
20
51846.0
11
77308.0
21
52050.0
0
LINE
8
BLACK
10
77308.0
20
52050.0
11
77252.0
21
52187.0
0
LINE
8
BLACK
10
77252.0
20
52187.0
11
77161.0
21
52210.0
0
LINE
8
BLACK
10
77161.0
20
52210.0
11
76871.0
21
51920.0
0
LINE
8
BLACK
10
76871.0
20
51920.0
11
77161.0
21
51630.0
0
LINE
8
BLACK
10
77161.0
20
51630.0
11
77252.0
21
51653.0
0
LINE
8
BLACK
10
77252.0
20
51653.0
11
77319.0
21
51846.0
0
LINE
8
BLACK
10
77319.0
20
51846.0
11
77319.0
21
51194.0
0
LINE
8
BLACK
10
77319.0
20
51194.0
11
77090.0
21
51194.0
0
LINE
8
BLACK
10
77090.0
20
51194.0
11
77090.0
21
51559.0
0
LINE
8
BLACK
10
77090.0
20
51559.0
11
76800.0
21
51849.0
0
LINE
8
BLACK
10
76800.0
20
51849.0
11
76729.0
21
51778.0
0
LINE
8
BLACK
10
76729.0
20
51778.0
11
76729.0
21
51920.0
0
LINE
8
BLACK
10
76729.0
20
51920.0
11
76439.0
21
52210.0
0
LINE
8
BLACK
10
76439.0
20
52210.0
11
76348.0
21
52187.0
0
LINE
8
BLACK
10
76348.0
20
52187.0
11
76281.0
21
51994.0
0
LINE
8
BLACK
10
76281.0
20
51994.0
11
76292.0
21
51790.0
0
LINE
8
BLACK
10
76292.0
20
51790.0
11
76348.0
21
51653.0
0
LINE
8
BLACK
10
76348.0
20
51653.0
11
76439.0
21
51630.0
0
LINE
8
BLACK
10
76439.0
20
51630.0
11
76729.0
21
51920.0
0
LINE
8
BLACK
10
76729.0
20
51920.0
11
76729.0
21
51778.0
0
LINE
8
BLACK
10
76729.0
20
51778.0
11
76510.0
21
51559.0
0
LINE
8
BLACK
10
76510.0
20
51559.0
11
76533.0
21
51468.0
0
LINE
8
BLACK
10
76533.0
20
51468.0
11
76726.0
21
51401.0
0
LINE
8
BLACK
10
76726.0
20
51401.0
11
76930.0
21
51412.0
0
LINE
8
BLACK
10
76930.0
20
51412.0
11
77067.0
21
51468.0
0
LINE
8
BLACK
10
77067.0
20
51468.0
11
77090.0
21
51559.0
0
LINE
8
BLACK
10
77090.0
20
51559.0
11
77090.0
21
51194.0
0
LINE
8
BLACK
10
77090.0
20
51194.0
11
76826.0
21
51194.0
0
LINE
8
BLACK
10
76826.0
20
51194.0
11
76734.0
21
51156.0
0
LINE
8
BLACK
10
76734.0
20
51156.0
11
76724.0
21
51147.0
0
LINE
8
BLACK
10
76724.0
20
51147.0
11
76695.0
21
51217.0
0
LINE
8
BLACK
10
76695.0
20
51217.0
11
76548.0
21
51365.0
0
LINE
8
BLACK
10
76548.0
20
51365.0
11
76355.0
21
51445.0
0
LINE
8
BLACK
10
76355.0
20
51445.0
11
76146.0
21
51445.0
0
LINE
8
BLACK
10
76146.0
20
51445.0
11
75953.0
21
51365.0
0
LINE
8
BLACK
10
75953.0
20
51365.0
11
75805.0
21
51218.0
0
LINE
8
BLACK
10
75805.0
20
51218.0
11
75778.0
21
51153.0
0
LINE
8
BLACK
10
75778.0
20
51153.0
11
75773.0
21
52030.0
0
LINE
8
BLACK
10
75773.0
20
52030.0
11
75850.0
21
52030.0
0
LINE
8
BLACK
10
75850.0
20
52030.0
11
75961.0
21
52052.0
0
LINE
8
BLACK
10
75961.0
20
52052.0
11
76055.0
21
52115.0
0
LINE
8
BLACK
10
76055.0
20
52115.0
11
76458.0
21
52519.0
0
LINE
8
BLACK
10
76458.0
20
52519.0
11
76502.0
21
52475.0
0
LINE
8
BLACK
10
76502.0
20
52475.0
11
76642.0
21
52417.0
0
LINE
8
BLACK
10
76642.0
20
52417.0
11
76533.0
21
52372.0
0
LINE
8
BLACK
10
76533.0
20
52372.0
11
76510.0
21
52281.0
0
LINE
8
BLACK
10
76510.0
20
52281.0
11
76800.0
21
51991.0
0
LINE
8
BLACK
10
76800.0
20
51991.0
11
77090.0
21
52281.0
0
LINE
8
BLACK
10
77090.0
20
52281.0
11
77067.0
21
52372.0
0
LINE
8
BLACK
10
77067.0
20
52372.0
11
76948.0
21
52414.0
0
LINE
8
BLACK
10
76948.0
20
52414.0
11
77097.0
21
52475.0
0
LINE
8
BLACK
10
77097.0
20
52475.0
11
77245.0
21
52622.0
0
LINE
8
BLACK
10
77245.0
20
52622.0
11
77276.0
21
52697.0
0
LINE
8
BLACK
10
77276.0
20
52697.0
11
77276.0
21
52596.0
0
LINE
8
BLACK
10
77276.0
20
52596.0
11
77314.0
21
52504.0
0
LINE
8
BLACK
10
77314.0
20
52504.0
11
77384.0
21
52434.0
0
LINE
8
BLACK
10
77384.0
20
52434.0
11
77475.0
21
52396.0
0
LINE
8
BLACK
10
77475.0
20
52396.0
11
77574.0
21
52396.0
0
LINE
8
BLACK
10
77574.0
20
52396.0
11
78124.0
21
52396.0
0
LINE
8
BLACK
10
78124.0
20
52396.0
11
78216.0
21
52434.0
0
LINE
8
BLACK
10
78216.0
20
52434.0
11
78286.0
21
52504.0
0
LINE
8
BLACK
10
78286.0
20
52504.0
11
78324.0
21
52595.0
0
LINE
8
BLACK
10
78324.0
20
52595.0
11
78324.0
21
52694.0
0
LINE
8
BLACK
10
78324.0
20
52694.0
11
78324.0
21
53244.0
0
LINE
8
BLACK
10
78324.0
20
53244.0
11
78286.0
21
53336.0
0
LINE
8
BLACK
10
78286.0
20
53336.0
11
78216.0
21
53406.0
0
LINE
8
BLACK
10
78216.0
20
53406.0
11
78125.0
21
53444.0
0
LINE
8
BLACK
10
78125.0
20
53444.0
11
78026.0
21
53444.0
0
LINE
8
BLACK
10
78026.0
20
53444.0
11
77686.0
21
53444.0
0
LINE
8
BLACK
10
77686.0
20
53444.0
11
77355.0
21
53775.0
0
LINE
8
BLACK
10
77355.0
20
53775.0
11
77261.0
21
53838.0
0
LINE
8
BLACK
10
77261.0
20
53838.0
11
77150.0
21
53860.0
0
LINE
8
BLACK
10
77150.0
20
53860.0
11
76050.0
21
53860.0
0
LINE
8
BLACK
10
76050.0
20
53860.0
11
75939.0
21
53838.0
0
LINE
8
BLACK
10
75939.0
20
53838.0
11
75845.0
21
53775.0
0
LINE
8
BLACK
10
75845.0
20
53775.0
11
75765.0
21
53696.0
0
LINE
8
BLACK
10
75765.0
20
53696.0
11
75760.0
21
54567.0
0
LINE
8
BLACK
10
75760.0
20
54567.0
11
75852.0
21
54475.0
0
LINE
8
BLACK
10
75852.0
20
54475.0
11
76045.0
21
54395.0
0
LINE
8
BLACK
10
76045.0
20
54395.0
11
76165.0
21
54395.0
0
LINE
8
BLACK
10
76165.0
20
54395.0
11
76395.0
21
54165.0
0
LINE
8
BLACK
10
76395.0
20
54165.0
11
76489.0
21
54102.0
0
LINE
8
BLACK
10
76489.0
20
54102.0
11
76600.0
21
54080.0
0
LINE
8
BLACK
10
76600.0
20
54080.0
11
77550.0
21
54080.0
0
LINE
8
BLACK
10
77550.0
20
54080.0
11
77661.0
21
54102.0
0
LINE
8
BLACK
10
77661.0
20
54102.0
11
77755.0
21
54165.0
0
LINE
8
BLACK
10
77755.0
20
54165.0
11
78037.0
21
54448.0
0
LINE
8
BLACK
10
78037.0
20
54448.0
11
78045.0
21
54445.0
0
LINE
8
BLACK
10
78045.0
20
54445.0
11
78254.0
21
54445.0
0
LINE
8
BLACK
10
78254.0
20
54445.0
11
78447.0
21
54525.0
0
LINE
8
BLACK
10
78447.0
20
54525.0
11
78595.0
21
54672.0
0
LINE
8
BLACK
10
78595.0
20
54672.0
11
78675.0
21
54865.0
0
LINE
8
BLACK
10
78675.0
20
54865.0
11
78675.0
21
55074.0
0
LINE
8
BLACK
10
78675.0
20
55074.0
11
78669.0
21
55089.0
0
LINE
8
BLACK
10
78669.0
20
55089.0
11
78669.0
21
55896.0
0
LINE
8
BLACK
10
78669.0
20
55896.0
11
78658.0
21
56100.0
0
LINE
8
BLACK
10
78658.0
20
56100.0
11
78602.0
21
56237.0
0
LINE
8
BLACK
10
78602.0
20
56237.0
11
78511.0
21
56260.0
0
LINE
8
BLACK
10
78511.0
20
56260.0
11
78221.0
21
55970.0
0
LINE
8
BLACK
10
78221.0
20
55970.0
11
78511.0
21
55680.0
0
LINE
8
BLACK
10
78511.0
20
55680.0
11
78602.0
21
55703.0
0
LINE
8
BLACK
10
78602.0
20
55703.0
11
78669.0
21
55896.0
0
LINE
8
BLACK
10
78669.0
20
55896.0
11
78669.0
21
55089.0
0
LINE
8
BLACK
10
78669.0
20
55089.0
11
78595.0
21
55267.0
0
LINE
8
BLACK
10
78595.0
20
55267.0
11
78448.0
21
55415.0
0
LINE
8
BLACK
10
78448.0
20
55415.0
11
78307.0
21
55474.0
0
LINE
8
BLACK
10
78307.0
20
55474.0
11
78417.0
21
55518.0
0
LINE
8
BLACK
10
78417.0
20
55518.0
11
78440.0
21
55609.0
0
LINE
8
BLACK
10
78440.0
20
55609.0
11
78150.0
21
55899.0
0
LINE
8
BLACK
10
78150.0
20
55899.0
11
78079.0
21
55828.0
0
LINE
8
BLACK
10
78079.0
20
55828.0
11
78079.0
21
55970.0
0
LINE
8
BLACK
10
78079.0
20
55970.0
11
77789.0
21
56260.0
0
LINE
8
BLACK
10
77789.0
20
56260.0
11
77698.0
21
56237.0
0
LINE
8
BLACK
10
77698.0
20
56237.0
11
77631.0
21
56044.0
0
LINE
8
BLACK
10
77631.0
20
56044.0
11
77642.0
21
55840.0
0
LINE
8
BLACK
10
77642.0
20
55840.0
11
77698.0
21
55703.0
0
LINE
8
BLACK
10
77698.0
20
55703.0
11
77789.0
21
55680.0
0
LINE
8
BLACK
10
77789.0
20
55680.0
11
78079.0
21
55970.0
0
LINE
8
BLACK
10
78079.0
20
55970.0
11
78079.0
21
55828.0
0
LINE
8
BLACK
10
78079.0
20
55828.0
11
77860.0
21
55609.0
0
LINE
8
BLACK
10
77860.0
20
55609.0
11
77883.0
21
55518.0
0
LINE
8
BLACK
10
77883.0
20
55518.0
11
78001.0
21
55477.0
0
LINE
8
BLACK
10
78001.0
20
55477.0
11
77853.0
21
55415.0
0
LINE
8
BLACK
10
77853.0
20
55415.0
11
77705.0
21
55268.0
0
LINE
8
BLACK
10
77705.0
20
55268.0
11
77674.0
21
55194.0
0
LINE
8
BLACK
10
77674.0
20
55194.0
11
77674.0
21
55294.0
0
LINE
8
BLACK
10
77674.0
20
55294.0
11
77636.0
21
55386.0
0
LINE
8
BLACK
10
77636.0
20
55386.0
11
77566.0
21
55456.0
0
LINE
8
BLACK
10
77566.0
20
55456.0
11
77475.0
21
55494.0
0
LINE
8
BLACK
10
77475.0
20
55494.0
11
77409.0
21
55494.0
0
LINE
8
BLACK
10
77409.0
20
55494.0
11
77355.0
21
55575.0
0
LINE
8
BLACK
10
77355.0
20
55575.0
11
77354.0
21
55576.0
0
LINE
8
BLACK
10
77354.0
20
55576.0
11
76805.0
21
56125.0
0
LINE
8
BLACK
10
76805.0
20
56125.0
11
76711.0
21
56188.0
0
LINE
8
BLACK
10
76711.0
20
56188.0
11
76652.0
21
56200.0
0
LINE
8
BLACK
10
76652.0
20
56200.0
11
76645.0
21
56217.0
0
LINE
8
BLACK
10
76645.0
20
56217.0
11
76498.0
21
56365.0
0
LINE
8
BLACK
10
76498.0
20
56365.0
11
76425.0
21
56395.0
0
LINE
8
BLACK
10
76425.0
20
56395.0
11
77876.0
21
56395.0
0
LINE
8
BLACK
10
77876.0
20
56395.0
11
77860.0
21
56331.0
0
LINE
8
BLACK
10
77860.0
20
56331.0
11
78150.0
21
56041.0
0
LINE
8
BLACK
10
78150.0
20
56041.0
11
78440.0
21
56331.0
0
LINE
8
BLACK
10
78440.0
20
56331.0
11
78423.0
21
56395.0
0
LINE
8
BLACK
10
78423.0
20
56395.0
11
79282.0
21
56395.0
0
LINE
8
BLACK
10
79282.0
20
56395.0
11
79251.0
21
56320.0
0
LINE
8
BLACK
10
79251.0
20
56320.0
11
79251.0
21
56221.0
0
LINE
8
BLACK
10
79251.0
20
56221.0
11
79251.0
21
55621.0
0
LINE
8
BLACK
10
79251.0
20
55621.0
11
79289.0
21
55529.0
0
LINE
8
BLACK
10
79289.0
20
55529.0
11
79359.0
21
55459.0
0
LINE
8
BLACK
10
79359.0
20
55459.0
11
79450.0
21
55421.0
0
LINE
8
BLACK
10
79450.0
20
55421.0
11
79549.0
21
55421.0
0
LINE
8
BLACK
10
79549.0
20
55421.0
11
80149.0
21
55421.0
0
LINE
8
BLACK
10
80149.0
20
55421.0
11
80241.0
21
55459.0
0
LINE
8
BLACK
10
80241.0
20
55459.0
11
80311.0
21
55529.0
0
LINE
8
BLACK
10
80311.0
20
55529.0
11
80349.0
21
55620.0
0
LINE
8
BLACK
10
80349.0
20
55620.0
11
80349.0
21
55683.0
0
LINE
8
BLACK
10
80349.0
20
55683.0
11
80422.0
21
55662.0
0
LINE
8
BLACK
10
80422.0
20
55662.0
11
80729.0
21
55970.0
0
LINE
8
BLACK
10
80729.0
20
55970.0
11
80422.0
21
56278.0
0
LINE
8
BLACK
10
80422.0
20
56278.0
11
80349.0
21
56258.0
0
LINE
8
BLACK
10
80349.0
20
56258.0
11
80349.0
21
56319.0
0
LINE
8
BLACK
10
80349.0
20
56319.0
11
80317.0
21
56395.0
0
LINE
8
BLACK
10
80317.0
20
56395.0
11
80505.0
21
56395.0
0
LINE
8
BLACK
10
80505.0
20
56395.0
11
80492.0
21
56348.0
0
LINE
8
BLACK
10
80492.0
20
56348.0
11
80800.0
21
56041.0
0
LINE
8
BLACK
10
80800.0
20
56041.0
11
81108.0
21
56348.0
0
LINE
8
BLACK
10
81108.0
20
56348.0
11
81094.0
21
56395.0
0
LINE
8
BLACK
10
81094.0
20
56395.0
11
81494.0
21
56395.0
0
LINE
8
BLACK
10
81494.0
20
56395.0
11
81490.0
21
56182.0
0
LINE
8
BLACK
10
81490.0
20
56182.0
11
81429.0
21
56121.0
0
LINE
8
BLACK
10
81429.0
20
56121.0
11
81341.0
21
55911.0
0
LINE
8
BLACK
10
81341.0
20
55911.0
11
81332.0
21
56104.0
0
LINE
8
BLACK
10
81332.0
20
56104.0
11
81272.0
21
56251.0
0
LINE
8
BLACK
10
81272.0
20
56251.0
11
81178.0
21
56278.0
0
LINE
8
BLACK
10
81178.0
20
56278.0
11
80871.0
21
55970.0
0
LINE
8
BLACK
10
80871.0
20
55970.0
11
81178.0
21
55662.0
0
LINE
8
BLACK
10
81178.0
20
55662.0
11
81247.0
21
55682.0
0
LINE
8
BLACK
10
81247.0
20
55682.0
11
81201.0
21
55570.0
0
LINE
8
BLACK
10
81201.0
20
55570.0
11
81200.0
21
55001.0
0
LINE
8
BLACK
10
81200.0
20
55001.0
11
81161.0
21
55010.0
0
LINE
8
BLACK
10
81161.0
20
55010.0
11
81108.0
21
54957.0
0
LINE
8
BLACK
10
81108.0
20
54957.0
11
81108.0
21
55592.0
0
LINE
8
BLACK
10
81108.0
20
55592.0
11
80800.0
21
55899.0
0
LINE
8
BLACK
10
80800.0
20
55899.0
11
80492.0
21
55592.0
0
LINE
8
BLACK
10
80492.0
20
55592.0
11
80519.0
21
55498.0
0
LINE
8
BLACK
10
80519.0
20
55498.0
11
80721.0
21
55427.0
0
LINE
8
BLACK
10
80721.0
20
55427.0
11
80934.0
21
55438.0
0
LINE
8
BLACK
10
80934.0
20
55438.0
11
81081.0
21
55498.0
0
LINE
8
BLACK
10
81081.0
20
55498.0
11
81108.0
21
55592.0
0
LINE
8
BLACK
10
81108.0
20
55592.0
11
81108.0
21
54957.0
0
LINE
8
BLACK
10
81108.0
20
54957.0
11
81090.0
21
54939.0
0
LINE
8
BLACK
10
81090.0
20
54939.0
11
81090.0
21
55081.0
0
LINE
8
BLACK
10
81090.0
20
55081.0
11
81067.0
21
55172.0
0
LINE
8
BLACK
10
81067.0
20
55172.0
11
80874.0
21
55239.0
0
LINE
8
BLACK
10
80874.0
20
55239.0
11
80670.0
21
55228.0
0
LINE
8
BLACK
10
80670.0
20
55228.0
11
80533.0
21
55172.0
0
LINE
8
BLACK
10
80533.0
20
55172.0
11
80510.0
21
55081.0
0
LINE
8
BLACK
10
80510.0
20
55081.0
11
80800.0
21
54791.0
0
LINE
8
BLACK
10
80800.0
20
54791.0
11
81090.0
21
55081.0
0
LINE
8
BLACK
10
81090.0
20
55081.0
11
81090.0
21
54939.0
0
LINE
8
BLACK
10
81090.0
20
54939.0
11
80871.0
21
54720.0
0
LINE
8
BLACK
10
80871.0
20
54720.0
11
81161.0
21
54430.0
0
LINE
8
BLACK
10
81161.0
20
54430.0
11
81252.0
21
54453.0
0
LINE
8
BLACK
10
81252.0
20
54453.0
11
81319.0
21
54646.0
0
LINE
8
BLACK
10
81319.0
20
54646.0
11
81316.0
21
54692.0
0
LINE
8
BLACK
10
81316.0
20
54692.0
11
81428.0
21
54422.0
0
LINE
8
BLACK
10
81428.0
20
54422.0
11
81458.0
21
54392.0
0
LINE
8
BLACK
10
81458.0
20
54392.0
11
81449.0
21
53893.0
0
LINE
8
BLACK
10
81449.0
20
53893.0
11
81439.0
21
53888.0
0
LINE
8
BLACK
10
81439.0
20
53888.0
11
81285.0
21
53734.0
0
LINE
8
BLACK
10
81285.0
20
53734.0
11
81250.0
21
53650.0
0
LINE
8
BLACK
10
81250.0
20
53650.0
11
81215.0
21
53734.0
0
LINE
8
BLACK
10
81215.0
20
53734.0
11
81090.0
21
53859.0
0
LINE
8
BLACK
10
81090.0
20
53859.0
11
81090.0
21
54359.0
0
LINE
8
BLACK
10
81090.0
20
54359.0
11
80800.0
21
54649.0
0
LINE
8
BLACK
10
80800.0
20
54649.0
11
80729.0
21
54578.0
0
LINE
8
BLACK
10
80729.0
20
54578.0
11
80729.0
21
54720.0
0
LINE
8
BLACK
10
80729.0
20
54720.0
11
80439.0
21
55010.0
0
LINE
8
BLACK
10
80439.0
20
55010.0
11
80348.0
21
54987.0
0
LINE
8
BLACK
10
80348.0
20
54987.0
11
80306.0
21
54869.0
0
LINE
8
BLACK
10
80306.0
20
54869.0
11
80245.0
21
55017.0
0
LINE
8
BLACK
10
80245.0
20
55017.0
11
80098.0
21
55165.0
0
LINE
8
BLACK
10
80098.0
20
55165.0
11
79905.0
21
55245.0
0
LINE
8
BLACK
10
79905.0
20
55245.0
11
79696.0
21
55245.0
0
LINE
8
BLACK
10
79696.0
20
55245.0
11
79503.0
21
55165.0
0
LINE
8
BLACK
10
79503.0
20
55165.0
11
79355.0
21
55018.0
0
LINE
8
BLACK
10
79355.0
20
55018.0
11
79275.0
21
54825.0
0
LINE
8
BLACK
10
79275.0
20
54825.0
11
79275.0
21
54616.0
0
LINE
8
BLACK
10
79275.0
20
54616.0
11
79355.0
21
54423.0
0
LINE
8
BLACK
10
79355.0
20
54423.0
11
79502.0
21
54275.0
0
LINE
8
BLACK
10
79502.0
20
54275.0
11
79695.0
21
54195.0
0
LINE
8
BLACK
10
79695.0
20
54195.0
11
79904.0
21
54195.0
0
LINE
8
BLACK
10
79904.0
20
54195.0
11
80097.0
21
54275.0
0
LINE
8
BLACK
10
80097.0
20
54275.0
11
80245.0
21
54422.0
0
LINE
8
BLACK
10
80245.0
20
54422.0
11
80303.0
21
54563.0
0
LINE
8
BLACK
10
80303.0
20
54563.0
11
80348.0
21
54453.0
0
LINE
8
BLACK
10
80348.0
20
54453.0
11
80439.0
21
54430.0
0
LINE
8
BLACK
10
80439.0
20
54430.0
11
80729.0
21
54720.0
0
LINE
8
BLACK
10
80729.0
20
54720.0
11
80729.0
21
54578.0
0
LINE
8
BLACK
10
80729.0
20
54578.0
11
80510.0
21
54359.0
0
LINE
8
BLACK
10
80510.0
20
54359.0
11
80533.0
21
54268.0
0
LINE
8
BLACK
10
80533.0
20
54268.0
11
80726.0
21
54201.0
0
LINE
8
BLACK
10
80726.0
20
54201.0
11
80930.0
21
54212.0
0
LINE
8
BLACK
10
80930.0
20
54212.0
11
81067.0
21
54268.0
0
LINE
8
BLACK
10
81067.0
20
54268.0
11
81090.0
21
54359.0
0
LINE
8
BLACK
10
81090.0
20
54359.0
11
81090.0
21
53859.0
0
LINE
8
BLACK
10
81090.0
20
53859.0
11
81061.0
21
53888.0
0
LINE
8
BLACK
10
81061.0
20
53888.0
11
80859.0
21
53972.0
0
LINE
8
BLACK
10
80859.0
20
53972.0
11
80641.0
21
53972.0
0
LINE
8
BLACK
10
80641.0
20
53972.0
11
80439.0
21
53888.0
0
LINE
8
BLACK
10
80439.0
20
53888.0
11
80285.0
21
53734.0
0
LINE
8
BLACK
10
80285.0
20
53734.0
11
80250.0
21
53650.0
0
LINE
8
BLACK
10
80250.0
20
53650.0
11
80215.0
21
53734.0
0
LINE
8
BLACK
10
80215.0
20
53734.0
11
80061.0
21
53888.0
0
LINE
8
BLACK
10
80061.0
20
53888.0
11
79859.0
21
53972.0
0
LINE
8
BLACK
10
79859.0
20
53972.0
11
79641.0
21
53972.0
0
LINE
8
BLACK
10
79641.0
20
53972.0
11
79439.0
21
53888.0
0
LINE
8
BLACK
10
79439.0
20
53888.0
11
79285.0
21
53734.0
0
LINE
8
BLACK
10
79285.0
20
53734.0
11
79201.0
21
53532.0
0
LINE
8
BLACK
10
79201.0
20
53532.0
11
79201.0
21
53314.0
0
LINE
8
BLACK
10
79201.0
20
53314.0
11
79201.0
21
53008.0
0
LINE
8
BLACK
10
79201.0
20
53008.0
11
79241.0
21
52910.0
0
LINE
8
BLACK
10
79241.0
20
52910.0
11
79170.0
21
52910.0
0
LINE
8
BLACK
10
79170.0
20
52910.0
11
78990.0
21
53090.0
0
LINE
8
BLACK
10
78990.0
20
53090.0
11
78990.0
21
53620.0
0
LINE
8
BLACK
10
78990.0
20
53620.0
11
78968.0
21
53731.0
0
LINE
8
BLACK
10
78968.0
20
53731.0
11
78905.0
21
53825.0
0
LINE
8
BLACK
10
78905.0
20
53825.0
11
78875.0
21
53855.0
0
LINE
8
BLACK
10
78875.0
20
53855.0
11
78875.0
21
53954.0
0
LINE
8
BLACK
10
78875.0
20
53954.0
11
78811.0
21
54110.0
0
LINE
8
BLACK
10
78811.0
20
54110.0
11
78691.0
21
54230.0
0
LINE
8
BLACK
10
78691.0
20
54230.0
11
78535.0
21
54295.0
0
LINE
8
BLACK
10
78535.0
20
54295.0
11
78366.0
21
54295.0
0
LINE
8
BLACK
10
78366.0
20
54295.0
11
78210.0
21
54231.0
0
LINE
8
BLACK
10
78210.0
20
54231.0
11
78090.0
21
54111.0
0
LINE
8
BLACK
10
78090.0
20
54111.0
11
78025.0
21
53955.0
0
LINE
8
BLACK
10
78025.0
20
53955.0
11
78025.0
21
53786.0
0
LINE
8
BLACK
10
78025.0
20
53786.0
11
78089.0
21
53630.0
0
LINE
8
BLACK
10
78089.0
20
53630.0
11
78209.0
21
53510.0
0
LINE
8
BLACK
10
78209.0
20
53510.0
11
78365.0
21
53445.0
0
LINE
8
BLACK
10
78365.0
20
53445.0
11
78410.0
21
53445.0
0
LINE
8
BLACK
10
78410.0
20
53445.0
11
78410.0
21
52970.0
0
LINE
8
BLACK
10
78410.0
20
52970.0
11
78432.0
21
52859.0
0
LINE
8
BLACK
10
78432.0
20
52859.0
11
78495.0
21
52765.0
0
LINE
8
BLACK
10
78495.0
20
52765.0
11
78844.0
21
52416.0
0
LINE
8
BLACK
10
78844.0
20
52416.0
11
78845.0
21
52415.0
0
LINE
8
BLACK
10
78845.0
20
52415.0
11
78938.0
21
52353.0
0
LINE
8
BLACK
10
78938.0
20
52353.0
11
78939.0
21
52352.0
0
LINE
8
BLACK
10
78939.0
20
52352.0
11
79049.0
21
52331.0
0
LINE
8
BLACK
10
79049.0
20
52331.0
11
79050.0
21
52330.0
0
LINE
8
BLACK
10
79050.0
20
52330.0
11
80500.0
21
52330.0
0
LINE
8
BLACK
10
80500.0
20
52330.0
11
80611.0
21
52352.0
0
LINE
8
BLACK
10
80611.0
20
52352.0
11
80705.0
21
52415.0
0
LINE
8
BLACK
10
80705.0
20
52415.0
11
80858.0
21
52568.0
0
LINE
8
BLACK
10
80858.0
20
52568.0
11
80859.0
21
52568.0
0
LINE
8
BLACK
10
80859.0
20
52568.0
11
81061.0
21
52652.0
0
LINE
8
BLACK
10
81061.0
20
52652.0
11
81215.0
21
52806.0
0
LINE
8
BLACK
10
81215.0
20
52806.0
11
81250.0
21
52891.0
0
LINE
8
BLACK
10
81250.0
20
52891.0
11
81285.0
21
52806.0
0
LINE
8
BLACK
10
81285.0
20
52806.0
11
81439.0
21
52652.0
0
LINE
8
BLACK
10
81439.0
20
52652.0
11
81641.0
21
52568.0
0
LINE
8
BLACK
10
81641.0
20
52568.0
11
81859.0
21
52568.0
0
LINE
8
BLACK
10
81859.0
20
52568.0
11
82061.0
21
52652.0
0
LINE
8
BLACK
10
82061.0
20
52652.0
11
82191.0
21
52782.0
0
LINE
8
BLACK
10
82191.0
20
52782.0
11
82191.0
21
52770.0
0
LINE
8
BLACK
10
82191.0
20
52770.0
11
82229.0
21
52679.0
0
LINE
8
BLACK
10
82229.0
20
52679.0
11
82299.0
21
52609.0
0
LINE
8
BLACK
10
82299.0
20
52609.0
11
82391.0
21
52571.0
0
LINE
8
BLACK
10
82391.0
20
52571.0
11
82638.0
21
52570.0
0
LINE
8
BLACK
10
82638.0
20
52570.0
11
82700.0
21
52632.0
0
LINE
8
BLACK
10
82700.0
20
52632.0
11
82700.0
21
53170.0
0
LINE
8
BLACK
10
82700.0
20
53170.0
11
82700.0
21
53220.0
0
LINE
8
BLACK
10
82700.0
20
53220.0
11
82700.0
21
53320.0
0
LINE
8
BLACK
10
82700.0
20
53320.0
11
82800.0
21
53320.0
0
LINE
8
BLACK
10
82800.0
20
53320.0
11
82850.0
21
53320.0
0
LINE
8
BLACK
10
82850.0
20
53320.0
11
83248.0
21
53320.0
0
LINE
8
BLACK
10
83248.0
20
53320.0
11
83310.0
21
53382.0
0
LINE
8
BLACK
10
83310.0
20
53382.0
11
83309.0
21
53671.0
0
LINE
8
BLACK
10
83309.0
20
53671.0
11
83309.0
21
53770.0
0
LINE
8
BLACK
10
83309.0
20
53770.0
11
83271.0
21
53861.0
0
LINE
8
BLACK
10
83271.0
20
53861.0
11
83262.0
21
53870.0
0
LINE
8
BLACK
10
83262.0
20
53870.0
11
83825.0
21
53870.0
0
LINE
8
BLACK
10
83825.0
20
53870.0
11
83825.0
21
49166.0
0
ENDSEC
0
EOF
