G04 #@! TF.FileFunction,Copper,L1,Top,Signal*
%FSLAX46Y46*%
G04 Gerber Fmt 4.6, Leading zero omitted, Abs format (unit mm)*
G04 Created by KiCad (PCBNEW (after 2015-mar-04 BZR unknown)-product) date 5/18/2015 8:11:33 PM*
%MOMM*%
G01*
G04 APERTURE LIST*
%ADD10C,0.150000*%
%ADD11R,1.524000X1.524000*%
%ADD12C,1.524000*%
%ADD13R,1.397000X0.889000*%
%ADD14R,0.419100X1.470660*%
%ADD15R,1.397000X1.397000*%
%ADD16C,1.397000*%
%ADD17C,0.889000*%
%ADD18C,0.254000*%
%ADD19C,0.203200*%
%ADD20C,0.635000*%
G04 APERTURE END LIST*
D10*
D11*
X46850000Y-34870000D03*
D12*
X46850000Y-32330000D03*
X49390000Y-34870000D03*
X49390000Y-32330000D03*
X51930000Y-34870000D03*
X51930000Y-32330000D03*
X54470000Y-34870000D03*
X54470000Y-32330000D03*
X57010000Y-34870000D03*
X57010000Y-32330000D03*
X59550000Y-34870000D03*
X59550000Y-32330000D03*
X62090000Y-34870000D03*
X62090000Y-32330000D03*
X64630000Y-34870000D03*
X64630000Y-32330000D03*
X67170000Y-34870000D03*
X67170000Y-32330000D03*
X69710000Y-34870000D03*
X69710000Y-32330000D03*
X72250000Y-34870000D03*
X72250000Y-32330000D03*
X74790000Y-34870000D03*
X74790000Y-32330000D03*
X77330000Y-34870000D03*
X77330000Y-32330000D03*
D11*
X69638000Y-51590000D03*
D12*
X72178000Y-51590000D03*
X74718000Y-51590000D03*
D13*
X71670000Y-40477500D03*
X71670000Y-42382500D03*
X53200000Y-40552500D03*
X53200000Y-38647500D03*
X53200000Y-44847500D03*
X53200000Y-46752500D03*
X69130000Y-40477500D03*
X69130000Y-42382500D03*
X66590000Y-40477500D03*
X66590000Y-42382500D03*
D11*
X60240000Y-51590000D03*
D12*
X62780000Y-51590000D03*
X65320000Y-51590000D03*
D11*
X49784000Y-43434000D03*
D12*
X49784000Y-40894000D03*
D11*
X49784000Y-49022000D03*
D12*
X49784000Y-46482000D03*
D11*
X49445000Y-51590000D03*
D12*
X51985000Y-51590000D03*
X54525000Y-51590000D03*
D11*
X74845000Y-40795000D03*
D12*
X74845000Y-38255000D03*
D14*
X59279880Y-45499080D03*
X59930120Y-45499080D03*
X60580360Y-45499080D03*
X61230600Y-45499080D03*
X57339320Y-39906000D03*
X57329160Y-45499080D03*
X57979400Y-45499080D03*
X58629640Y-45499080D03*
X61880840Y-39900920D03*
X61230600Y-39900920D03*
X60580360Y-39900920D03*
X59930120Y-39900920D03*
X59279880Y-39900920D03*
X58629640Y-39900920D03*
X61880840Y-45499080D03*
X57979400Y-39906000D03*
X56678920Y-45499080D03*
X62531080Y-45499080D03*
X62531080Y-39900920D03*
X56678920Y-39900920D03*
X56031220Y-45499080D03*
X63178780Y-45499080D03*
X63178780Y-39900920D03*
X56031220Y-39900920D03*
X55380980Y-45499080D03*
X63829020Y-45499080D03*
X63829020Y-39900920D03*
X55380980Y-39900920D03*
D15*
X74972000Y-46510000D03*
D16*
X72432000Y-46510000D03*
D15*
X69130000Y-46510000D03*
D16*
X66590000Y-46510000D03*
D11*
X46990000Y-40132000D03*
D12*
X46990000Y-37592000D03*
X49530000Y-37592000D03*
D17*
X50600000Y-33600000D03*
X59478000Y-41531600D03*
X57100000Y-47300000D03*
X56700000Y-37300000D03*
X56600000Y-41600000D03*
X58000000Y-38400000D03*
X63800000Y-44100000D03*
X56000000Y-43900000D03*
D18*
X50600000Y-33600000D02*
X51400000Y-33600000D01*
X53200000Y-46752500D02*
X53452500Y-46752500D01*
X54000000Y-47300000D02*
X57100000Y-47300000D01*
X53452500Y-46752500D02*
X54000000Y-47300000D01*
X51664500Y-48288000D02*
X53200000Y-46752500D01*
X49784000Y-49022000D02*
X51664500Y-48288000D01*
X74582500Y-42382500D02*
X74845000Y-42120000D01*
X74845000Y-42120000D02*
X74845000Y-40795000D01*
X71670000Y-42382500D02*
X74582500Y-42382500D01*
X72530000Y-32330000D02*
X73400000Y-33200000D01*
X73400000Y-33200000D02*
X73400000Y-40400000D01*
X73400000Y-40400000D02*
X73795000Y-40795000D01*
X73795000Y-40795000D02*
X74845000Y-40795000D01*
X72250000Y-32330000D02*
X72530000Y-32330000D01*
X53200000Y-38000000D02*
X54470000Y-36730000D01*
X54470000Y-36730000D02*
X54470000Y-34870000D01*
X53200000Y-38647500D02*
X53200000Y-38000000D01*
X51952500Y-38647500D02*
X53200000Y-38647500D01*
D19*
X51952500Y-38647500D02*
X53200000Y-38647500D01*
X50772000Y-43208000D02*
X51308000Y-42672000D01*
X51308000Y-42672000D02*
X51308000Y-39292000D01*
X51308000Y-39292000D02*
X51952500Y-38647500D01*
X49784000Y-43434000D02*
X50772000Y-43208000D01*
D18*
X51985000Y-34925000D02*
X51930000Y-34870000D01*
X56678920Y-37321080D02*
X56700000Y-37300000D01*
X56678920Y-39900920D02*
X56678920Y-37321080D01*
X56031220Y-41031220D02*
X56600000Y-41600000D01*
X56031220Y-39900920D02*
X56031220Y-41031220D01*
X57979400Y-38420600D02*
X58000000Y-38400000D01*
X57339320Y-39060680D02*
X57339320Y-39906000D01*
X57339320Y-39060680D02*
X58000000Y-38400000D01*
X57979400Y-39906000D02*
X57979400Y-38420600D01*
X58629640Y-39029640D02*
X58000000Y-38400000D01*
X58629640Y-39900920D02*
X58629640Y-39029640D01*
X63829020Y-44129020D02*
X63800000Y-44100000D01*
X63829020Y-45499080D02*
X63829020Y-44129020D01*
X57329160Y-45499080D02*
X57979400Y-45499080D01*
X56678920Y-45499080D02*
X57329160Y-45499080D01*
X56031220Y-45499080D02*
X56678920Y-45499080D01*
X55380980Y-45499080D02*
X56031220Y-45499080D01*
D20*
X56031220Y-43931220D02*
X56000000Y-43900000D01*
D18*
X56031220Y-43931220D02*
X56000000Y-43900000D01*
X56031220Y-45499080D02*
X56031220Y-43931220D01*
X58629640Y-47485360D02*
X54525000Y-51590000D01*
X58629640Y-45499080D02*
X58629640Y-47485360D01*
X63178780Y-47378780D02*
X65200000Y-49400000D01*
X65200000Y-49400000D02*
X73194000Y-49400000D01*
X63178780Y-45499080D02*
X63178780Y-47378780D01*
D19*
X73671000Y-49400000D02*
X74718000Y-50447000D01*
X74718000Y-50447000D02*
X74718000Y-51590000D01*
X73194000Y-49400000D02*
X73671000Y-49400000D01*
D18*
X62531080Y-47731080D02*
X65320000Y-50520000D01*
X65320000Y-50520000D02*
X65320000Y-51590000D01*
X62531080Y-45499080D02*
X62531080Y-47731080D01*
X63900000Y-38000000D02*
X68200000Y-38000000D01*
X68200000Y-38000000D02*
X69130000Y-38930000D01*
X69130000Y-38930000D02*
X69130000Y-40477500D01*
X63178780Y-38721220D02*
X63900000Y-38000000D01*
X63178780Y-39900920D02*
X63178780Y-38721220D01*
X65277500Y-40477500D02*
X66590000Y-40477500D01*
X64700920Y-39900920D02*
X65277500Y-40477500D01*
X63829020Y-39900920D02*
X64700920Y-39900920D01*
D19*
X69130000Y-43208000D02*
X70400000Y-44478000D01*
X70400000Y-44478000D02*
X72432000Y-46510000D01*
X69130000Y-42382500D02*
X69130000Y-43208000D01*
X66590000Y-42382500D02*
X66590000Y-46510000D01*
D20*
X48006000Y-32330000D02*
X49390000Y-32330000D01*
X46850000Y-32330000D02*
X48006000Y-32330000D01*
D18*
X49530000Y-37338000D02*
X48006000Y-35814000D01*
X48006000Y-35814000D02*
X48006000Y-32330000D01*
X49530000Y-37592000D02*
X49530000Y-37338000D01*
G36*
X78909800Y-44151144D02*
X78473198Y-44154025D01*
X78473198Y-34643641D01*
X78473198Y-32103641D01*
X78299554Y-31683388D01*
X77978303Y-31361577D01*
X77558354Y-31187199D01*
X77103641Y-31186802D01*
X76683388Y-31360446D01*
X76361577Y-31681697D01*
X76187199Y-32101646D01*
X76186802Y-32556359D01*
X76360446Y-32976612D01*
X76681697Y-33298423D01*
X77101646Y-33472801D01*
X77556359Y-33473198D01*
X77976612Y-33299554D01*
X78298423Y-32978303D01*
X78472801Y-32558354D01*
X78473198Y-32103641D01*
X78473198Y-34643641D01*
X78299554Y-34223388D01*
X77978303Y-33901577D01*
X77558354Y-33727199D01*
X77103641Y-33726802D01*
X76683388Y-33900446D01*
X76361577Y-34221697D01*
X76187199Y-34641646D01*
X76186802Y-35096359D01*
X76360446Y-35516612D01*
X76681697Y-35838423D01*
X77101646Y-36012801D01*
X77556359Y-36013198D01*
X77976612Y-35839554D01*
X78298423Y-35518303D01*
X78472801Y-35098354D01*
X78473198Y-34643641D01*
X78473198Y-44154025D01*
X75995464Y-44170381D01*
X75995464Y-41557000D01*
X75995464Y-40033000D01*
X75967278Y-39887726D01*
X75883404Y-39760044D01*
X75756784Y-39674574D01*
X75607000Y-39644536D01*
X74083000Y-39644536D01*
X73937726Y-39672722D01*
X73908000Y-39692248D01*
X73908000Y-38934222D01*
X74196697Y-39223423D01*
X74616646Y-39397801D01*
X75071359Y-39398198D01*
X75491612Y-39224554D01*
X75813423Y-38903303D01*
X75987801Y-38483354D01*
X75988198Y-38028641D01*
X75814554Y-37608388D01*
X75493303Y-37286577D01*
X75073354Y-37112199D01*
X74618641Y-37111802D01*
X74198388Y-37285446D01*
X73908000Y-37575328D01*
X73908000Y-35604318D01*
X74141697Y-35838423D01*
X74561646Y-36012801D01*
X75016359Y-36013198D01*
X75436612Y-35839554D01*
X75758423Y-35518303D01*
X75932801Y-35098354D01*
X75933198Y-34643641D01*
X75759554Y-34223388D01*
X75438303Y-33901577D01*
X75018354Y-33727199D01*
X74563641Y-33726802D01*
X74143388Y-33900446D01*
X73908000Y-34135424D01*
X73908000Y-33200000D01*
X73874295Y-33030555D01*
X74141697Y-33298423D01*
X74561646Y-33472801D01*
X75016359Y-33473198D01*
X75436612Y-33299554D01*
X75758423Y-32978303D01*
X75932801Y-32558354D01*
X75933198Y-32103641D01*
X75759554Y-31683388D01*
X75438303Y-31361577D01*
X75018354Y-31187199D01*
X74563641Y-31186802D01*
X74143388Y-31360446D01*
X73821577Y-31681697D01*
X73647199Y-32101646D01*
X73646802Y-32556359D01*
X73772615Y-32860852D01*
X73759210Y-32840790D01*
X73392874Y-32474454D01*
X73393198Y-32103641D01*
X73219554Y-31683388D01*
X72898303Y-31361577D01*
X72478354Y-31187199D01*
X72023641Y-31186802D01*
X71603388Y-31360446D01*
X71281577Y-31681697D01*
X71107199Y-32101646D01*
X71106802Y-32556359D01*
X71280446Y-32976612D01*
X71601697Y-33298423D01*
X72021646Y-33472801D01*
X72476359Y-33473198D01*
X72814897Y-33333317D01*
X72892000Y-33410420D01*
X72892000Y-33898959D01*
X72478354Y-33727199D01*
X72023641Y-33726802D01*
X71603388Y-33900446D01*
X71281577Y-34221697D01*
X71107199Y-34641646D01*
X71106802Y-35096359D01*
X71280446Y-35516612D01*
X71601697Y-35838423D01*
X72021646Y-36012801D01*
X72476359Y-36013198D01*
X72892000Y-35841459D01*
X72892000Y-39658474D01*
X72728199Y-39494673D01*
X72494810Y-39398000D01*
X72242191Y-39398000D01*
X71955750Y-39398000D01*
X71797000Y-39556750D01*
X71797000Y-40350500D01*
X71817000Y-40350500D01*
X71817000Y-40604500D01*
X71797000Y-40604500D01*
X71797000Y-40624500D01*
X71543000Y-40624500D01*
X71543000Y-40604500D01*
X71543000Y-40350500D01*
X71543000Y-39556750D01*
X71384250Y-39398000D01*
X71097809Y-39398000D01*
X70853198Y-39398000D01*
X70853198Y-34643641D01*
X70853198Y-32103641D01*
X70679554Y-31683388D01*
X70358303Y-31361577D01*
X69938354Y-31187199D01*
X69483641Y-31186802D01*
X69063388Y-31360446D01*
X68741577Y-31681697D01*
X68567199Y-32101646D01*
X68566802Y-32556359D01*
X68740446Y-32976612D01*
X69061697Y-33298423D01*
X69481646Y-33472801D01*
X69936359Y-33473198D01*
X70356612Y-33299554D01*
X70678423Y-32978303D01*
X70852801Y-32558354D01*
X70853198Y-32103641D01*
X70853198Y-34643641D01*
X70679554Y-34223388D01*
X70358303Y-33901577D01*
X69938354Y-33727199D01*
X69483641Y-33726802D01*
X69063388Y-33900446D01*
X68741577Y-34221697D01*
X68567199Y-34641646D01*
X68567029Y-34835660D01*
X68551362Y-34522632D01*
X68392397Y-34138857D01*
X68313198Y-34116140D01*
X68313198Y-32103641D01*
X68139554Y-31683388D01*
X67818303Y-31361577D01*
X67398354Y-31187199D01*
X66943641Y-31186802D01*
X66523388Y-31360446D01*
X66201577Y-31681697D01*
X66027199Y-32101646D01*
X66026802Y-32556359D01*
X66200446Y-32976612D01*
X66521697Y-33298423D01*
X66941646Y-33472801D01*
X67135660Y-33472970D01*
X66822632Y-33488638D01*
X66438857Y-33647603D01*
X66369392Y-33889787D01*
X67170000Y-34690395D01*
X67970608Y-33889787D01*
X67901143Y-33647603D01*
X67403741Y-33470147D01*
X67816612Y-33299554D01*
X68138423Y-32978303D01*
X68312801Y-32558354D01*
X68313198Y-32103641D01*
X68313198Y-34116140D01*
X68150213Y-34069392D01*
X67349605Y-34870000D01*
X68150213Y-35670608D01*
X68392397Y-35601143D01*
X68569852Y-35103741D01*
X68740446Y-35516612D01*
X69061697Y-35838423D01*
X69481646Y-36012801D01*
X69936359Y-36013198D01*
X70356612Y-35839554D01*
X70678423Y-35518303D01*
X70852801Y-35098354D01*
X70853198Y-34643641D01*
X70853198Y-39398000D01*
X70845190Y-39398000D01*
X70611801Y-39494673D01*
X70433173Y-39673302D01*
X70336500Y-39906691D01*
X70336500Y-40191750D01*
X70495250Y-40350500D01*
X71543000Y-40350500D01*
X71543000Y-40604500D01*
X70495250Y-40604500D01*
X70336500Y-40763250D01*
X70336500Y-41048309D01*
X70433173Y-41281698D01*
X70611801Y-41460327D01*
X70845190Y-41557000D01*
X70933029Y-41557000D01*
X70826226Y-41577722D01*
X70698544Y-41661596D01*
X70613074Y-41788216D01*
X70583036Y-41938000D01*
X70583036Y-42827000D01*
X70611222Y-42972274D01*
X70695096Y-43099956D01*
X70821716Y-43185426D01*
X70971500Y-43215464D01*
X72368500Y-43215464D01*
X72513774Y-43187278D01*
X72641456Y-43103404D01*
X72726926Y-42976784D01*
X72744229Y-42890500D01*
X74582500Y-42890500D01*
X74776903Y-42851831D01*
X74941710Y-42741710D01*
X75204210Y-42479210D01*
X75314331Y-42314403D01*
X75353000Y-42120000D01*
X75353000Y-41945464D01*
X75607000Y-41945464D01*
X75752274Y-41917278D01*
X75879956Y-41833404D01*
X75965426Y-41706784D01*
X75995464Y-41557000D01*
X75995464Y-44170381D01*
X70809116Y-44204616D01*
X70741250Y-44136750D01*
X69819964Y-43215464D01*
X69828500Y-43215464D01*
X69973774Y-43187278D01*
X70101456Y-43103404D01*
X70186926Y-42976784D01*
X70216964Y-42827000D01*
X70216964Y-41938000D01*
X70216964Y-40922000D01*
X70216964Y-40033000D01*
X70188778Y-39887726D01*
X70104904Y-39760044D01*
X69978284Y-39674574D01*
X69828500Y-39644536D01*
X69638000Y-39644536D01*
X69638000Y-38930000D01*
X69599331Y-38735597D01*
X69489211Y-38570790D01*
X68559210Y-37640790D01*
X68394403Y-37530669D01*
X68200000Y-37492000D01*
X67970608Y-37492000D01*
X67970608Y-35850213D01*
X67170000Y-35049605D01*
X66990395Y-35229210D01*
X66990395Y-34870000D01*
X66189787Y-34069392D01*
X65947603Y-34138857D01*
X65773198Y-34627706D01*
X65773198Y-32103641D01*
X65599554Y-31683388D01*
X65278303Y-31361577D01*
X64858354Y-31187199D01*
X64403641Y-31186802D01*
X63983388Y-31360446D01*
X63661577Y-31681697D01*
X63487199Y-32101646D01*
X63486802Y-32556359D01*
X63660446Y-32976612D01*
X63981697Y-33298423D01*
X64401646Y-33472801D01*
X64856359Y-33473198D01*
X65276612Y-33299554D01*
X65598423Y-32978303D01*
X65772801Y-32558354D01*
X65773198Y-32103641D01*
X65773198Y-34627706D01*
X65770147Y-34636258D01*
X65599554Y-34223388D01*
X65278303Y-33901577D01*
X64858354Y-33727199D01*
X64403641Y-33726802D01*
X63983388Y-33900446D01*
X63661577Y-34221697D01*
X63487199Y-34641646D01*
X63486802Y-35096359D01*
X63660446Y-35516612D01*
X63981697Y-35838423D01*
X64401646Y-36012801D01*
X64856359Y-36013198D01*
X65276612Y-35839554D01*
X65598423Y-35518303D01*
X65772801Y-35098354D01*
X65772970Y-34904339D01*
X65788638Y-35217368D01*
X65947603Y-35601143D01*
X66189787Y-35670608D01*
X66990395Y-34870000D01*
X66990395Y-35229210D01*
X66369392Y-35850213D01*
X66438857Y-36092397D01*
X66962302Y-36279144D01*
X67517368Y-36251362D01*
X67901143Y-36092397D01*
X67970608Y-35850213D01*
X67970608Y-37492000D01*
X63900000Y-37492000D01*
X63705596Y-37530669D01*
X63540790Y-37640790D01*
X63233198Y-37948382D01*
X63233198Y-34643641D01*
X63233198Y-32103641D01*
X63059554Y-31683388D01*
X62738303Y-31361577D01*
X62318354Y-31187199D01*
X61863641Y-31186802D01*
X61443388Y-31360446D01*
X61121577Y-31681697D01*
X60947199Y-32101646D01*
X60946802Y-32556359D01*
X61120446Y-32976612D01*
X61441697Y-33298423D01*
X61861646Y-33472801D01*
X62316359Y-33473198D01*
X62736612Y-33299554D01*
X63058423Y-32978303D01*
X63232801Y-32558354D01*
X63233198Y-32103641D01*
X63233198Y-34643641D01*
X63059554Y-34223388D01*
X62738303Y-33901577D01*
X62318354Y-33727199D01*
X61863641Y-33726802D01*
X61443388Y-33900446D01*
X61121577Y-34221697D01*
X60947199Y-34641646D01*
X60946802Y-35096359D01*
X61120446Y-35516612D01*
X61441697Y-35838423D01*
X61861646Y-36012801D01*
X62316359Y-36013198D01*
X62736612Y-35839554D01*
X63058423Y-35518303D01*
X63232801Y-35098354D01*
X63233198Y-34643641D01*
X63233198Y-37948382D01*
X62819570Y-38362010D01*
X62709449Y-38526817D01*
X62670780Y-38721220D01*
X62670780Y-38828921D01*
X62321530Y-38828921D01*
X62204049Y-38851714D01*
X62090390Y-38828921D01*
X61671290Y-38828921D01*
X61553809Y-38851714D01*
X61440150Y-38828921D01*
X61021050Y-38828921D01*
X60903569Y-38851714D01*
X60789910Y-38828921D01*
X60693198Y-38828921D01*
X60693198Y-34643641D01*
X60693198Y-32103641D01*
X60519554Y-31683388D01*
X60198303Y-31361577D01*
X59778354Y-31187199D01*
X59323641Y-31186802D01*
X58903388Y-31360446D01*
X58581577Y-31681697D01*
X58407199Y-32101646D01*
X58406802Y-32556359D01*
X58580446Y-32976612D01*
X58901697Y-33298423D01*
X59321646Y-33472801D01*
X59776359Y-33473198D01*
X60196612Y-33299554D01*
X60518423Y-32978303D01*
X60692801Y-32558354D01*
X60693198Y-32103641D01*
X60693198Y-34643641D01*
X60519554Y-34223388D01*
X60198303Y-33901577D01*
X59778354Y-33727199D01*
X59323641Y-33726802D01*
X58903388Y-33900446D01*
X58581577Y-34221697D01*
X58407199Y-34641646D01*
X58406802Y-35096359D01*
X58580446Y-35516612D01*
X58901697Y-35838423D01*
X59321646Y-36012801D01*
X59776359Y-36013198D01*
X60196612Y-35839554D01*
X60518423Y-35518303D01*
X60692801Y-35098354D01*
X60693198Y-34643641D01*
X60693198Y-38828921D01*
X60370810Y-38828921D01*
X60253329Y-38851714D01*
X60139670Y-38828921D01*
X59720570Y-38828921D01*
X59603089Y-38851714D01*
X59489430Y-38828921D01*
X59094751Y-38828921D01*
X58988850Y-38670430D01*
X58988850Y-38670429D01*
X58825407Y-38506986D01*
X58825643Y-38236518D01*
X58700233Y-37933002D01*
X58468219Y-37700583D01*
X58164923Y-37574643D01*
X58153198Y-37574632D01*
X58153198Y-34643641D01*
X58153198Y-32103641D01*
X57979554Y-31683388D01*
X57658303Y-31361577D01*
X57238354Y-31187199D01*
X56783641Y-31186802D01*
X56363388Y-31360446D01*
X56041577Y-31681697D01*
X55867199Y-32101646D01*
X55866802Y-32556359D01*
X56040446Y-32976612D01*
X56361697Y-33298423D01*
X56781646Y-33472801D01*
X57236359Y-33473198D01*
X57656612Y-33299554D01*
X57978423Y-32978303D01*
X58152801Y-32558354D01*
X58153198Y-32103641D01*
X58153198Y-34643641D01*
X57979554Y-34223388D01*
X57658303Y-33901577D01*
X57238354Y-33727199D01*
X56783641Y-33726802D01*
X56363388Y-33900446D01*
X56041577Y-34221697D01*
X55867199Y-34641646D01*
X55866802Y-35096359D01*
X56040446Y-35516612D01*
X56361697Y-35838423D01*
X56781646Y-36012801D01*
X57236359Y-36013198D01*
X57656612Y-35839554D01*
X57978423Y-35518303D01*
X58152801Y-35098354D01*
X58153198Y-34643641D01*
X58153198Y-37574632D01*
X57836518Y-37574357D01*
X57533002Y-37699767D01*
X57300583Y-37931781D01*
X57186920Y-38205510D01*
X57186920Y-37980345D01*
X57399417Y-37768219D01*
X57525357Y-37464923D01*
X57525643Y-37136518D01*
X57400233Y-36833002D01*
X57168219Y-36600583D01*
X56864923Y-36474643D01*
X56536518Y-36474357D01*
X56233002Y-36599767D01*
X56000583Y-36831781D01*
X55874643Y-37135077D01*
X55874357Y-37463482D01*
X55999767Y-37766998D01*
X56170920Y-37938449D01*
X56170920Y-38828921D01*
X56138396Y-38828921D01*
X56128857Y-38805891D01*
X55950228Y-38627263D01*
X55716839Y-38530590D01*
X55644505Y-38530590D01*
X55485755Y-38689340D01*
X55485755Y-39161830D01*
X55485001Y-39165590D01*
X55485001Y-40636250D01*
X55485755Y-40640136D01*
X55485755Y-41112500D01*
X55552704Y-41179449D01*
X55561889Y-41225623D01*
X55672010Y-41390430D01*
X55774592Y-41493012D01*
X55774357Y-41763482D01*
X55899767Y-42066998D01*
X56131781Y-42299417D01*
X56435077Y-42425357D01*
X56763482Y-42425643D01*
X57066998Y-42300233D01*
X57299417Y-42068219D01*
X57425357Y-41764923D01*
X57425643Y-41436518D01*
X57300233Y-41133002D01*
X57145500Y-40977999D01*
X57548870Y-40977999D01*
X57661186Y-40956207D01*
X57769850Y-40977999D01*
X58188950Y-40977999D01*
X58314854Y-40953571D01*
X58316902Y-40952225D01*
X58420090Y-40972919D01*
X58839190Y-40972919D01*
X58956670Y-40950125D01*
X59070330Y-40972919D01*
X59489430Y-40972919D01*
X59606910Y-40950125D01*
X59720570Y-40972919D01*
X60139670Y-40972919D01*
X60257150Y-40950125D01*
X60370810Y-40972919D01*
X60789910Y-40972919D01*
X60907390Y-40950125D01*
X61021050Y-40972919D01*
X61440150Y-40972919D01*
X61557630Y-40950125D01*
X61671290Y-40972919D01*
X62090390Y-40972919D01*
X62207870Y-40950125D01*
X62321530Y-40972919D01*
X62740630Y-40972919D01*
X62856819Y-40950375D01*
X62969230Y-40972919D01*
X63388330Y-40972919D01*
X63505810Y-40950125D01*
X63619470Y-40972919D01*
X64038570Y-40972919D01*
X64164474Y-40948491D01*
X64275132Y-40875800D01*
X64349206Y-40766063D01*
X64375239Y-40636250D01*
X64375239Y-40408920D01*
X64490500Y-40408920D01*
X64918290Y-40836710D01*
X65083096Y-40946831D01*
X65083097Y-40946831D01*
X65115349Y-40953246D01*
X65277500Y-40985500D01*
X65515356Y-40985500D01*
X65531222Y-41067274D01*
X65615096Y-41194956D01*
X65741716Y-41280426D01*
X65891500Y-41310464D01*
X67288500Y-41310464D01*
X67433774Y-41282278D01*
X67561456Y-41198404D01*
X67646926Y-41071784D01*
X67676964Y-40922000D01*
X67676964Y-40033000D01*
X67648778Y-39887726D01*
X67564904Y-39760044D01*
X67438284Y-39674574D01*
X67288500Y-39644536D01*
X65891500Y-39644536D01*
X65746226Y-39672722D01*
X65618544Y-39756596D01*
X65533074Y-39883216D01*
X65515770Y-39969500D01*
X65487920Y-39969500D01*
X65060130Y-39541710D01*
X64895323Y-39431589D01*
X64700920Y-39392920D01*
X64375239Y-39392920D01*
X64375239Y-39165590D01*
X64350811Y-39039686D01*
X64278120Y-38929028D01*
X64168383Y-38854954D01*
X64038570Y-38828921D01*
X63789499Y-38828921D01*
X64110420Y-38508000D01*
X67989579Y-38508000D01*
X68622000Y-39140420D01*
X68622000Y-39644536D01*
X68431500Y-39644536D01*
X68286226Y-39672722D01*
X68158544Y-39756596D01*
X68073074Y-39883216D01*
X68043036Y-40033000D01*
X68043036Y-40922000D01*
X68071222Y-41067274D01*
X68155096Y-41194956D01*
X68281716Y-41280426D01*
X68431500Y-41310464D01*
X69828500Y-41310464D01*
X69973774Y-41282278D01*
X70101456Y-41198404D01*
X70186926Y-41071784D01*
X70216964Y-40922000D01*
X70216964Y-41938000D01*
X70188778Y-41792726D01*
X70104904Y-41665044D01*
X69978284Y-41579574D01*
X69828500Y-41549536D01*
X68431500Y-41549536D01*
X68286226Y-41577722D01*
X68158544Y-41661596D01*
X68073074Y-41788216D01*
X68043036Y-41938000D01*
X68043036Y-42827000D01*
X68071222Y-42972274D01*
X68155096Y-43099956D01*
X68281716Y-43185426D01*
X68431500Y-43215464D01*
X68648884Y-43215464D01*
X68684136Y-43392683D01*
X68788750Y-43549250D01*
X69453067Y-44213567D01*
X67072600Y-44229280D01*
X67072600Y-43215464D01*
X67288500Y-43215464D01*
X67433774Y-43187278D01*
X67561456Y-43103404D01*
X67646926Y-42976784D01*
X67676964Y-42827000D01*
X67676964Y-41938000D01*
X67648778Y-41792726D01*
X67564904Y-41665044D01*
X67438284Y-41579574D01*
X67288500Y-41549536D01*
X65891500Y-41549536D01*
X65746226Y-41577722D01*
X65618544Y-41661596D01*
X65533074Y-41788216D01*
X65503036Y-41938000D01*
X65503036Y-42827000D01*
X65531222Y-42972274D01*
X65615096Y-43099956D01*
X65741716Y-43185426D01*
X65891500Y-43215464D01*
X66107400Y-43215464D01*
X66107400Y-44235651D01*
X65726295Y-44238167D01*
X64824985Y-46498238D01*
X64239851Y-46497135D01*
X64275132Y-46473960D01*
X64349206Y-46364223D01*
X64375239Y-46234410D01*
X64375239Y-44763750D01*
X64363606Y-44703793D01*
X64499417Y-44568219D01*
X64625357Y-44264923D01*
X64625643Y-43936518D01*
X64500233Y-43633002D01*
X64268219Y-43400583D01*
X63964923Y-43274643D01*
X63636518Y-43274357D01*
X63333002Y-43399767D01*
X63100583Y-43631781D01*
X62974643Y-43935077D01*
X62974357Y-44263482D01*
X63041954Y-44427081D01*
X62969230Y-44427081D01*
X62853040Y-44449624D01*
X62740630Y-44427081D01*
X62321530Y-44427081D01*
X62204049Y-44449874D01*
X62090390Y-44427081D01*
X61671290Y-44427081D01*
X61553809Y-44449874D01*
X61440150Y-44427081D01*
X61021050Y-44427081D01*
X60903569Y-44449874D01*
X60789910Y-44427081D01*
X60370810Y-44427081D01*
X60253329Y-44449874D01*
X60139670Y-44427081D01*
X59720570Y-44427081D01*
X59603089Y-44449874D01*
X59489430Y-44427081D01*
X59070330Y-44427081D01*
X58952849Y-44449874D01*
X58839190Y-44427081D01*
X58420090Y-44427081D01*
X58302609Y-44449874D01*
X58188950Y-44427081D01*
X57769850Y-44427081D01*
X57652369Y-44449874D01*
X57538710Y-44427081D01*
X57119610Y-44427081D01*
X57002129Y-44449874D01*
X56888470Y-44427081D01*
X56640452Y-44427081D01*
X56699417Y-44368219D01*
X56825357Y-44064923D01*
X56825643Y-43736518D01*
X56700233Y-43433002D01*
X56468219Y-43200583D01*
X56164923Y-43074643D01*
X55836518Y-43074357D01*
X55533002Y-43199767D01*
X55300583Y-43431781D01*
X55276205Y-43490489D01*
X55276205Y-41112500D01*
X55276205Y-40027920D01*
X55276205Y-39773920D01*
X55276205Y-38689340D01*
X55117455Y-38530590D01*
X55045121Y-38530590D01*
X54811732Y-38627263D01*
X54633103Y-38805891D01*
X54536430Y-39039280D01*
X54536430Y-39291899D01*
X54536430Y-39615170D01*
X54695180Y-39773920D01*
X55276205Y-39773920D01*
X55276205Y-40027920D01*
X54695180Y-40027920D01*
X54536430Y-40186670D01*
X54536430Y-40509941D01*
X54536430Y-40762560D01*
X54633103Y-40995949D01*
X54811732Y-41174577D01*
X55045121Y-41271250D01*
X55117455Y-41271250D01*
X55276205Y-41112500D01*
X55276205Y-43490489D01*
X55174643Y-43735077D01*
X55174357Y-44063482D01*
X55299767Y-44366998D01*
X55359745Y-44427081D01*
X55171430Y-44427081D01*
X55045526Y-44451509D01*
X54934868Y-44524200D01*
X54860794Y-44633937D01*
X54834761Y-44763750D01*
X54834761Y-46234410D01*
X54859189Y-46360314D01*
X54931880Y-46470972D01*
X54944700Y-46479626D01*
X54286964Y-46478387D01*
X54286964Y-46308000D01*
X54258778Y-46162726D01*
X54174904Y-46035044D01*
X54048284Y-45949574D01*
X53935719Y-45927000D01*
X54024810Y-45927000D01*
X54258199Y-45830327D01*
X54436827Y-45651698D01*
X54533500Y-45418309D01*
X54533500Y-45133250D01*
X54533500Y-44561750D01*
X54533500Y-44276691D01*
X54533500Y-41123309D01*
X54533500Y-40838250D01*
X54374750Y-40679500D01*
X53327000Y-40679500D01*
X53327000Y-41473250D01*
X53485750Y-41632000D01*
X53772191Y-41632000D01*
X54024810Y-41632000D01*
X54258199Y-41535327D01*
X54436827Y-41356698D01*
X54533500Y-41123309D01*
X54533500Y-44276691D01*
X54436827Y-44043302D01*
X54258199Y-43864673D01*
X54024810Y-43768000D01*
X53772191Y-43768000D01*
X53485750Y-43768000D01*
X53327000Y-43926750D01*
X53327000Y-44720500D01*
X54374750Y-44720500D01*
X54533500Y-44561750D01*
X54533500Y-45133250D01*
X54374750Y-44974500D01*
X53327000Y-44974500D01*
X53327000Y-44994500D01*
X53073000Y-44994500D01*
X53073000Y-44974500D01*
X53073000Y-44720500D01*
X53073000Y-43926750D01*
X53073000Y-41473250D01*
X53073000Y-40679500D01*
X52025250Y-40679500D01*
X51866500Y-40838250D01*
X51866500Y-41123309D01*
X51963173Y-41356698D01*
X52141801Y-41535327D01*
X52375190Y-41632000D01*
X52627809Y-41632000D01*
X52914250Y-41632000D01*
X53073000Y-41473250D01*
X53073000Y-43926750D01*
X52914250Y-43768000D01*
X52627809Y-43768000D01*
X52375190Y-43768000D01*
X52141801Y-43864673D01*
X51963173Y-44043302D01*
X51866500Y-44276691D01*
X51866500Y-44561750D01*
X52025250Y-44720500D01*
X53073000Y-44720500D01*
X53073000Y-44974500D01*
X52025250Y-44974500D01*
X51866500Y-45133250D01*
X51866500Y-45418309D01*
X51963173Y-45651698D01*
X52141801Y-45830327D01*
X52375190Y-45927000D01*
X52463029Y-45927000D01*
X52356226Y-45947722D01*
X52228544Y-46031596D01*
X52143074Y-46158216D01*
X52113036Y-46308000D01*
X52113036Y-46474291D01*
X51552482Y-46473236D01*
X51512443Y-43150055D01*
X51649246Y-43013252D01*
X51649249Y-43013250D01*
X51649250Y-43013250D01*
X51753864Y-42856683D01*
X51790600Y-42672000D01*
X51790600Y-39491899D01*
X52125623Y-39156876D01*
X52141222Y-39237274D01*
X52225096Y-39364956D01*
X52351716Y-39450426D01*
X52464280Y-39473000D01*
X52375190Y-39473000D01*
X52141801Y-39569673D01*
X51963173Y-39748302D01*
X51866500Y-39981691D01*
X51866500Y-40266750D01*
X52025250Y-40425500D01*
X53073000Y-40425500D01*
X53073000Y-40405500D01*
X53327000Y-40405500D01*
X53327000Y-40425500D01*
X54374750Y-40425500D01*
X54533500Y-40266750D01*
X54533500Y-39981691D01*
X54436827Y-39748302D01*
X54258199Y-39569673D01*
X54024810Y-39473000D01*
X53936970Y-39473000D01*
X54043774Y-39452278D01*
X54171456Y-39368404D01*
X54256926Y-39241784D01*
X54286964Y-39092000D01*
X54286964Y-38203000D01*
X54258778Y-38057726D01*
X54174904Y-37930044D01*
X54063544Y-37854875D01*
X54829210Y-37089210D01*
X54939331Y-36924404D01*
X54939331Y-36924403D01*
X54945746Y-36892150D01*
X54977999Y-36730000D01*
X54978000Y-36730000D01*
X54978000Y-35896826D01*
X55116612Y-35839554D01*
X55438423Y-35518303D01*
X55612801Y-35098354D01*
X55613198Y-34643641D01*
X55613198Y-32103641D01*
X55439554Y-31683388D01*
X55118303Y-31361577D01*
X54698354Y-31187199D01*
X54243641Y-31186802D01*
X53823388Y-31360446D01*
X53501577Y-31681697D01*
X53327199Y-32101646D01*
X53326802Y-32556359D01*
X53500446Y-32976612D01*
X53821697Y-33298423D01*
X54241646Y-33472801D01*
X54696359Y-33473198D01*
X55116612Y-33299554D01*
X55438423Y-32978303D01*
X55612801Y-32558354D01*
X55613198Y-32103641D01*
X55613198Y-34643641D01*
X55439554Y-34223388D01*
X55118303Y-33901577D01*
X54698354Y-33727199D01*
X54243641Y-33726802D01*
X53823388Y-33900446D01*
X53501577Y-34221697D01*
X53327199Y-34641646D01*
X53326802Y-35096359D01*
X53500446Y-35516612D01*
X53821697Y-35838423D01*
X53962000Y-35896681D01*
X53962000Y-36519580D01*
X52840790Y-37640790D01*
X52730669Y-37805597D01*
X52728890Y-37814536D01*
X52501500Y-37814536D01*
X52356226Y-37842722D01*
X52228544Y-37926596D01*
X52143074Y-38053216D01*
X52125770Y-38139500D01*
X51952500Y-38139500D01*
X51758097Y-38178169D01*
X51593290Y-38288290D01*
X51520956Y-38396544D01*
X51455955Y-38461545D01*
X51425068Y-35897956D01*
X51701646Y-36012801D01*
X52156359Y-36013198D01*
X52576612Y-35839554D01*
X52898423Y-35518303D01*
X53072801Y-35098354D01*
X53073198Y-34643641D01*
X52899554Y-34223388D01*
X52578303Y-33901577D01*
X52158354Y-33727199D01*
X51703641Y-33726802D01*
X51400419Y-33852089D01*
X51394312Y-33345184D01*
X51701646Y-33472801D01*
X52156359Y-33473198D01*
X52576612Y-33299554D01*
X52898423Y-32978303D01*
X53072801Y-32558354D01*
X53073198Y-32103641D01*
X52899554Y-31683388D01*
X52578303Y-31361577D01*
X52158354Y-31187199D01*
X51703641Y-31186802D01*
X51369968Y-31324671D01*
X51358589Y-30380200D01*
X78909800Y-30380200D01*
X78909800Y-44151144D01*
X78909800Y-44151144D01*
G37*
X78909800Y-44151144D02*
X78473198Y-44154025D01*
X78473198Y-34643641D01*
X78473198Y-32103641D01*
X78299554Y-31683388D01*
X77978303Y-31361577D01*
X77558354Y-31187199D01*
X77103641Y-31186802D01*
X76683388Y-31360446D01*
X76361577Y-31681697D01*
X76187199Y-32101646D01*
X76186802Y-32556359D01*
X76360446Y-32976612D01*
X76681697Y-33298423D01*
X77101646Y-33472801D01*
X77556359Y-33473198D01*
X77976612Y-33299554D01*
X78298423Y-32978303D01*
X78472801Y-32558354D01*
X78473198Y-32103641D01*
X78473198Y-34643641D01*
X78299554Y-34223388D01*
X77978303Y-33901577D01*
X77558354Y-33727199D01*
X77103641Y-33726802D01*
X76683388Y-33900446D01*
X76361577Y-34221697D01*
X76187199Y-34641646D01*
X76186802Y-35096359D01*
X76360446Y-35516612D01*
X76681697Y-35838423D01*
X77101646Y-36012801D01*
X77556359Y-36013198D01*
X77976612Y-35839554D01*
X78298423Y-35518303D01*
X78472801Y-35098354D01*
X78473198Y-34643641D01*
X78473198Y-44154025D01*
X75995464Y-44170381D01*
X75995464Y-41557000D01*
X75995464Y-40033000D01*
X75967278Y-39887726D01*
X75883404Y-39760044D01*
X75756784Y-39674574D01*
X75607000Y-39644536D01*
X74083000Y-39644536D01*
X73937726Y-39672722D01*
X73908000Y-39692248D01*
X73908000Y-38934222D01*
X74196697Y-39223423D01*
X74616646Y-39397801D01*
X75071359Y-39398198D01*
X75491612Y-39224554D01*
X75813423Y-38903303D01*
X75987801Y-38483354D01*
X75988198Y-38028641D01*
X75814554Y-37608388D01*
X75493303Y-37286577D01*
X75073354Y-37112199D01*
X74618641Y-37111802D01*
X74198388Y-37285446D01*
X73908000Y-37575328D01*
X73908000Y-35604318D01*
X74141697Y-35838423D01*
X74561646Y-36012801D01*
X75016359Y-36013198D01*
X75436612Y-35839554D01*
X75758423Y-35518303D01*
X75932801Y-35098354D01*
X75933198Y-34643641D01*
X75759554Y-34223388D01*
X75438303Y-33901577D01*
X75018354Y-33727199D01*
X74563641Y-33726802D01*
X74143388Y-33900446D01*
X73908000Y-34135424D01*
X73908000Y-33200000D01*
X73874295Y-33030555D01*
X74141697Y-33298423D01*
X74561646Y-33472801D01*
X75016359Y-33473198D01*
X75436612Y-33299554D01*
X75758423Y-32978303D01*
X75932801Y-32558354D01*
X75933198Y-32103641D01*
X75759554Y-31683388D01*
X75438303Y-31361577D01*
X75018354Y-31187199D01*
X74563641Y-31186802D01*
X74143388Y-31360446D01*
X73821577Y-31681697D01*
X73647199Y-32101646D01*
X73646802Y-32556359D01*
X73772615Y-32860852D01*
X73759210Y-32840790D01*
X73392874Y-32474454D01*
X73393198Y-32103641D01*
X73219554Y-31683388D01*
X72898303Y-31361577D01*
X72478354Y-31187199D01*
X72023641Y-31186802D01*
X71603388Y-31360446D01*
X71281577Y-31681697D01*
X71107199Y-32101646D01*
X71106802Y-32556359D01*
X71280446Y-32976612D01*
X71601697Y-33298423D01*
X72021646Y-33472801D01*
X72476359Y-33473198D01*
X72814897Y-33333317D01*
X72892000Y-33410420D01*
X72892000Y-33898959D01*
X72478354Y-33727199D01*
X72023641Y-33726802D01*
X71603388Y-33900446D01*
X71281577Y-34221697D01*
X71107199Y-34641646D01*
X71106802Y-35096359D01*
X71280446Y-35516612D01*
X71601697Y-35838423D01*
X72021646Y-36012801D01*
X72476359Y-36013198D01*
X72892000Y-35841459D01*
X72892000Y-39658474D01*
X72728199Y-39494673D01*
X72494810Y-39398000D01*
X72242191Y-39398000D01*
X71955750Y-39398000D01*
X71797000Y-39556750D01*
X71797000Y-40350500D01*
X71817000Y-40350500D01*
X71817000Y-40604500D01*
X71797000Y-40604500D01*
X71797000Y-40624500D01*
X71543000Y-40624500D01*
X71543000Y-40604500D01*
X71543000Y-40350500D01*
X71543000Y-39556750D01*
X71384250Y-39398000D01*
X71097809Y-39398000D01*
X70853198Y-39398000D01*
X70853198Y-34643641D01*
X70853198Y-32103641D01*
X70679554Y-31683388D01*
X70358303Y-31361577D01*
X69938354Y-31187199D01*
X69483641Y-31186802D01*
X69063388Y-31360446D01*
X68741577Y-31681697D01*
X68567199Y-32101646D01*
X68566802Y-32556359D01*
X68740446Y-32976612D01*
X69061697Y-33298423D01*
X69481646Y-33472801D01*
X69936359Y-33473198D01*
X70356612Y-33299554D01*
X70678423Y-32978303D01*
X70852801Y-32558354D01*
X70853198Y-32103641D01*
X70853198Y-34643641D01*
X70679554Y-34223388D01*
X70358303Y-33901577D01*
X69938354Y-33727199D01*
X69483641Y-33726802D01*
X69063388Y-33900446D01*
X68741577Y-34221697D01*
X68567199Y-34641646D01*
X68567029Y-34835660D01*
X68551362Y-34522632D01*
X68392397Y-34138857D01*
X68313198Y-34116140D01*
X68313198Y-32103641D01*
X68139554Y-31683388D01*
X67818303Y-31361577D01*
X67398354Y-31187199D01*
X66943641Y-31186802D01*
X66523388Y-31360446D01*
X66201577Y-31681697D01*
X66027199Y-32101646D01*
X66026802Y-32556359D01*
X66200446Y-32976612D01*
X66521697Y-33298423D01*
X66941646Y-33472801D01*
X67135660Y-33472970D01*
X66822632Y-33488638D01*
X66438857Y-33647603D01*
X66369392Y-33889787D01*
X67170000Y-34690395D01*
X67970608Y-33889787D01*
X67901143Y-33647603D01*
X67403741Y-33470147D01*
X67816612Y-33299554D01*
X68138423Y-32978303D01*
X68312801Y-32558354D01*
X68313198Y-32103641D01*
X68313198Y-34116140D01*
X68150213Y-34069392D01*
X67349605Y-34870000D01*
X68150213Y-35670608D01*
X68392397Y-35601143D01*
X68569852Y-35103741D01*
X68740446Y-35516612D01*
X69061697Y-35838423D01*
X69481646Y-36012801D01*
X69936359Y-36013198D01*
X70356612Y-35839554D01*
X70678423Y-35518303D01*
X70852801Y-35098354D01*
X70853198Y-34643641D01*
X70853198Y-39398000D01*
X70845190Y-39398000D01*
X70611801Y-39494673D01*
X70433173Y-39673302D01*
X70336500Y-39906691D01*
X70336500Y-40191750D01*
X70495250Y-40350500D01*
X71543000Y-40350500D01*
X71543000Y-40604500D01*
X70495250Y-40604500D01*
X70336500Y-40763250D01*
X70336500Y-41048309D01*
X70433173Y-41281698D01*
X70611801Y-41460327D01*
X70845190Y-41557000D01*
X70933029Y-41557000D01*
X70826226Y-41577722D01*
X70698544Y-41661596D01*
X70613074Y-41788216D01*
X70583036Y-41938000D01*
X70583036Y-42827000D01*
X70611222Y-42972274D01*
X70695096Y-43099956D01*
X70821716Y-43185426D01*
X70971500Y-43215464D01*
X72368500Y-43215464D01*
X72513774Y-43187278D01*
X72641456Y-43103404D01*
X72726926Y-42976784D01*
X72744229Y-42890500D01*
X74582500Y-42890500D01*
X74776903Y-42851831D01*
X74941710Y-42741710D01*
X75204210Y-42479210D01*
X75314331Y-42314403D01*
X75353000Y-42120000D01*
X75353000Y-41945464D01*
X75607000Y-41945464D01*
X75752274Y-41917278D01*
X75879956Y-41833404D01*
X75965426Y-41706784D01*
X75995464Y-41557000D01*
X75995464Y-44170381D01*
X70809116Y-44204616D01*
X70741250Y-44136750D01*
X69819964Y-43215464D01*
X69828500Y-43215464D01*
X69973774Y-43187278D01*
X70101456Y-43103404D01*
X70186926Y-42976784D01*
X70216964Y-42827000D01*
X70216964Y-41938000D01*
X70216964Y-40922000D01*
X70216964Y-40033000D01*
X70188778Y-39887726D01*
X70104904Y-39760044D01*
X69978284Y-39674574D01*
X69828500Y-39644536D01*
X69638000Y-39644536D01*
X69638000Y-38930000D01*
X69599331Y-38735597D01*
X69489211Y-38570790D01*
X68559210Y-37640790D01*
X68394403Y-37530669D01*
X68200000Y-37492000D01*
X67970608Y-37492000D01*
X67970608Y-35850213D01*
X67170000Y-35049605D01*
X66990395Y-35229210D01*
X66990395Y-34870000D01*
X66189787Y-34069392D01*
X65947603Y-34138857D01*
X65773198Y-34627706D01*
X65773198Y-32103641D01*
X65599554Y-31683388D01*
X65278303Y-31361577D01*
X64858354Y-31187199D01*
X64403641Y-31186802D01*
X63983388Y-31360446D01*
X63661577Y-31681697D01*
X63487199Y-32101646D01*
X63486802Y-32556359D01*
X63660446Y-32976612D01*
X63981697Y-33298423D01*
X64401646Y-33472801D01*
X64856359Y-33473198D01*
X65276612Y-33299554D01*
X65598423Y-32978303D01*
X65772801Y-32558354D01*
X65773198Y-32103641D01*
X65773198Y-34627706D01*
X65770147Y-34636258D01*
X65599554Y-34223388D01*
X65278303Y-33901577D01*
X64858354Y-33727199D01*
X64403641Y-33726802D01*
X63983388Y-33900446D01*
X63661577Y-34221697D01*
X63487199Y-34641646D01*
X63486802Y-35096359D01*
X63660446Y-35516612D01*
X63981697Y-35838423D01*
X64401646Y-36012801D01*
X64856359Y-36013198D01*
X65276612Y-35839554D01*
X65598423Y-35518303D01*
X65772801Y-35098354D01*
X65772970Y-34904339D01*
X65788638Y-35217368D01*
X65947603Y-35601143D01*
X66189787Y-35670608D01*
X66990395Y-34870000D01*
X66990395Y-35229210D01*
X66369392Y-35850213D01*
X66438857Y-36092397D01*
X66962302Y-36279144D01*
X67517368Y-36251362D01*
X67901143Y-36092397D01*
X67970608Y-35850213D01*
X67970608Y-37492000D01*
X63900000Y-37492000D01*
X63705596Y-37530669D01*
X63540790Y-37640790D01*
X63233198Y-37948382D01*
X63233198Y-34643641D01*
X63233198Y-32103641D01*
X63059554Y-31683388D01*
X62738303Y-31361577D01*
X62318354Y-31187199D01*
X61863641Y-31186802D01*
X61443388Y-31360446D01*
X61121577Y-31681697D01*
X60947199Y-32101646D01*
X60946802Y-32556359D01*
X61120446Y-32976612D01*
X61441697Y-33298423D01*
X61861646Y-33472801D01*
X62316359Y-33473198D01*
X62736612Y-33299554D01*
X63058423Y-32978303D01*
X63232801Y-32558354D01*
X63233198Y-32103641D01*
X63233198Y-34643641D01*
X63059554Y-34223388D01*
X62738303Y-33901577D01*
X62318354Y-33727199D01*
X61863641Y-33726802D01*
X61443388Y-33900446D01*
X61121577Y-34221697D01*
X60947199Y-34641646D01*
X60946802Y-35096359D01*
X61120446Y-35516612D01*
X61441697Y-35838423D01*
X61861646Y-36012801D01*
X62316359Y-36013198D01*
X62736612Y-35839554D01*
X63058423Y-35518303D01*
X63232801Y-35098354D01*
X63233198Y-34643641D01*
X63233198Y-37948382D01*
X62819570Y-38362010D01*
X62709449Y-38526817D01*
X62670780Y-38721220D01*
X62670780Y-38828921D01*
X62321530Y-38828921D01*
X62204049Y-38851714D01*
X62090390Y-38828921D01*
X61671290Y-38828921D01*
X61553809Y-38851714D01*
X61440150Y-38828921D01*
X61021050Y-38828921D01*
X60903569Y-38851714D01*
X60789910Y-38828921D01*
X60693198Y-38828921D01*
X60693198Y-34643641D01*
X60693198Y-32103641D01*
X60519554Y-31683388D01*
X60198303Y-31361577D01*
X59778354Y-31187199D01*
X59323641Y-31186802D01*
X58903388Y-31360446D01*
X58581577Y-31681697D01*
X58407199Y-32101646D01*
X58406802Y-32556359D01*
X58580446Y-32976612D01*
X58901697Y-33298423D01*
X59321646Y-33472801D01*
X59776359Y-33473198D01*
X60196612Y-33299554D01*
X60518423Y-32978303D01*
X60692801Y-32558354D01*
X60693198Y-32103641D01*
X60693198Y-34643641D01*
X60519554Y-34223388D01*
X60198303Y-33901577D01*
X59778354Y-33727199D01*
X59323641Y-33726802D01*
X58903388Y-33900446D01*
X58581577Y-34221697D01*
X58407199Y-34641646D01*
X58406802Y-35096359D01*
X58580446Y-35516612D01*
X58901697Y-35838423D01*
X59321646Y-36012801D01*
X59776359Y-36013198D01*
X60196612Y-35839554D01*
X60518423Y-35518303D01*
X60692801Y-35098354D01*
X60693198Y-34643641D01*
X60693198Y-38828921D01*
X60370810Y-38828921D01*
X60253329Y-38851714D01*
X60139670Y-38828921D01*
X59720570Y-38828921D01*
X59603089Y-38851714D01*
X59489430Y-38828921D01*
X59094751Y-38828921D01*
X58988850Y-38670430D01*
X58988850Y-38670429D01*
X58825407Y-38506986D01*
X58825643Y-38236518D01*
X58700233Y-37933002D01*
X58468219Y-37700583D01*
X58164923Y-37574643D01*
X58153198Y-37574632D01*
X58153198Y-34643641D01*
X58153198Y-32103641D01*
X57979554Y-31683388D01*
X57658303Y-31361577D01*
X57238354Y-31187199D01*
X56783641Y-31186802D01*
X56363388Y-31360446D01*
X56041577Y-31681697D01*
X55867199Y-32101646D01*
X55866802Y-32556359D01*
X56040446Y-32976612D01*
X56361697Y-33298423D01*
X56781646Y-33472801D01*
X57236359Y-33473198D01*
X57656612Y-33299554D01*
X57978423Y-32978303D01*
X58152801Y-32558354D01*
X58153198Y-32103641D01*
X58153198Y-34643641D01*
X57979554Y-34223388D01*
X57658303Y-33901577D01*
X57238354Y-33727199D01*
X56783641Y-33726802D01*
X56363388Y-33900446D01*
X56041577Y-34221697D01*
X55867199Y-34641646D01*
X55866802Y-35096359D01*
X56040446Y-35516612D01*
X56361697Y-35838423D01*
X56781646Y-36012801D01*
X57236359Y-36013198D01*
X57656612Y-35839554D01*
X57978423Y-35518303D01*
X58152801Y-35098354D01*
X58153198Y-34643641D01*
X58153198Y-37574632D01*
X57836518Y-37574357D01*
X57533002Y-37699767D01*
X57300583Y-37931781D01*
X57186920Y-38205510D01*
X57186920Y-37980345D01*
X57399417Y-37768219D01*
X57525357Y-37464923D01*
X57525643Y-37136518D01*
X57400233Y-36833002D01*
X57168219Y-36600583D01*
X56864923Y-36474643D01*
X56536518Y-36474357D01*
X56233002Y-36599767D01*
X56000583Y-36831781D01*
X55874643Y-37135077D01*
X55874357Y-37463482D01*
X55999767Y-37766998D01*
X56170920Y-37938449D01*
X56170920Y-38828921D01*
X56138396Y-38828921D01*
X56128857Y-38805891D01*
X55950228Y-38627263D01*
X55716839Y-38530590D01*
X55644505Y-38530590D01*
X55485755Y-38689340D01*
X55485755Y-39161830D01*
X55485001Y-39165590D01*
X55485001Y-40636250D01*
X55485755Y-40640136D01*
X55485755Y-41112500D01*
X55552704Y-41179449D01*
X55561889Y-41225623D01*
X55672010Y-41390430D01*
X55774592Y-41493012D01*
X55774357Y-41763482D01*
X55899767Y-42066998D01*
X56131781Y-42299417D01*
X56435077Y-42425357D01*
X56763482Y-42425643D01*
X57066998Y-42300233D01*
X57299417Y-42068219D01*
X57425357Y-41764923D01*
X57425643Y-41436518D01*
X57300233Y-41133002D01*
X57145500Y-40977999D01*
X57548870Y-40977999D01*
X57661186Y-40956207D01*
X57769850Y-40977999D01*
X58188950Y-40977999D01*
X58314854Y-40953571D01*
X58316902Y-40952225D01*
X58420090Y-40972919D01*
X58839190Y-40972919D01*
X58956670Y-40950125D01*
X59070330Y-40972919D01*
X59489430Y-40972919D01*
X59606910Y-40950125D01*
X59720570Y-40972919D01*
X60139670Y-40972919D01*
X60257150Y-40950125D01*
X60370810Y-40972919D01*
X60789910Y-40972919D01*
X60907390Y-40950125D01*
X61021050Y-40972919D01*
X61440150Y-40972919D01*
X61557630Y-40950125D01*
X61671290Y-40972919D01*
X62090390Y-40972919D01*
X62207870Y-40950125D01*
X62321530Y-40972919D01*
X62740630Y-40972919D01*
X62856819Y-40950375D01*
X62969230Y-40972919D01*
X63388330Y-40972919D01*
X63505810Y-40950125D01*
X63619470Y-40972919D01*
X64038570Y-40972919D01*
X64164474Y-40948491D01*
X64275132Y-40875800D01*
X64349206Y-40766063D01*
X64375239Y-40636250D01*
X64375239Y-40408920D01*
X64490500Y-40408920D01*
X64918290Y-40836710D01*
X65083096Y-40946831D01*
X65083097Y-40946831D01*
X65115349Y-40953246D01*
X65277500Y-40985500D01*
X65515356Y-40985500D01*
X65531222Y-41067274D01*
X65615096Y-41194956D01*
X65741716Y-41280426D01*
X65891500Y-41310464D01*
X67288500Y-41310464D01*
X67433774Y-41282278D01*
X67561456Y-41198404D01*
X67646926Y-41071784D01*
X67676964Y-40922000D01*
X67676964Y-40033000D01*
X67648778Y-39887726D01*
X67564904Y-39760044D01*
X67438284Y-39674574D01*
X67288500Y-39644536D01*
X65891500Y-39644536D01*
X65746226Y-39672722D01*
X65618544Y-39756596D01*
X65533074Y-39883216D01*
X65515770Y-39969500D01*
X65487920Y-39969500D01*
X65060130Y-39541710D01*
X64895323Y-39431589D01*
X64700920Y-39392920D01*
X64375239Y-39392920D01*
X64375239Y-39165590D01*
X64350811Y-39039686D01*
X64278120Y-38929028D01*
X64168383Y-38854954D01*
X64038570Y-38828921D01*
X63789499Y-38828921D01*
X64110420Y-38508000D01*
X67989579Y-38508000D01*
X68622000Y-39140420D01*
X68622000Y-39644536D01*
X68431500Y-39644536D01*
X68286226Y-39672722D01*
X68158544Y-39756596D01*
X68073074Y-39883216D01*
X68043036Y-40033000D01*
X68043036Y-40922000D01*
X68071222Y-41067274D01*
X68155096Y-41194956D01*
X68281716Y-41280426D01*
X68431500Y-41310464D01*
X69828500Y-41310464D01*
X69973774Y-41282278D01*
X70101456Y-41198404D01*
X70186926Y-41071784D01*
X70216964Y-40922000D01*
X70216964Y-41938000D01*
X70188778Y-41792726D01*
X70104904Y-41665044D01*
X69978284Y-41579574D01*
X69828500Y-41549536D01*
X68431500Y-41549536D01*
X68286226Y-41577722D01*
X68158544Y-41661596D01*
X68073074Y-41788216D01*
X68043036Y-41938000D01*
X68043036Y-42827000D01*
X68071222Y-42972274D01*
X68155096Y-43099956D01*
X68281716Y-43185426D01*
X68431500Y-43215464D01*
X68648884Y-43215464D01*
X68684136Y-43392683D01*
X68788750Y-43549250D01*
X69453067Y-44213567D01*
X67072600Y-44229280D01*
X67072600Y-43215464D01*
X67288500Y-43215464D01*
X67433774Y-43187278D01*
X67561456Y-43103404D01*
X67646926Y-42976784D01*
X67676964Y-42827000D01*
X67676964Y-41938000D01*
X67648778Y-41792726D01*
X67564904Y-41665044D01*
X67438284Y-41579574D01*
X67288500Y-41549536D01*
X65891500Y-41549536D01*
X65746226Y-41577722D01*
X65618544Y-41661596D01*
X65533074Y-41788216D01*
X65503036Y-41938000D01*
X65503036Y-42827000D01*
X65531222Y-42972274D01*
X65615096Y-43099956D01*
X65741716Y-43185426D01*
X65891500Y-43215464D01*
X66107400Y-43215464D01*
X66107400Y-44235651D01*
X65726295Y-44238167D01*
X64824985Y-46498238D01*
X64239851Y-46497135D01*
X64275132Y-46473960D01*
X64349206Y-46364223D01*
X64375239Y-46234410D01*
X64375239Y-44763750D01*
X64363606Y-44703793D01*
X64499417Y-44568219D01*
X64625357Y-44264923D01*
X64625643Y-43936518D01*
X64500233Y-43633002D01*
X64268219Y-43400583D01*
X63964923Y-43274643D01*
X63636518Y-43274357D01*
X63333002Y-43399767D01*
X63100583Y-43631781D01*
X62974643Y-43935077D01*
X62974357Y-44263482D01*
X63041954Y-44427081D01*
X62969230Y-44427081D01*
X62853040Y-44449624D01*
X62740630Y-44427081D01*
X62321530Y-44427081D01*
X62204049Y-44449874D01*
X62090390Y-44427081D01*
X61671290Y-44427081D01*
X61553809Y-44449874D01*
X61440150Y-44427081D01*
X61021050Y-44427081D01*
X60903569Y-44449874D01*
X60789910Y-44427081D01*
X60370810Y-44427081D01*
X60253329Y-44449874D01*
X60139670Y-44427081D01*
X59720570Y-44427081D01*
X59603089Y-44449874D01*
X59489430Y-44427081D01*
X59070330Y-44427081D01*
X58952849Y-44449874D01*
X58839190Y-44427081D01*
X58420090Y-44427081D01*
X58302609Y-44449874D01*
X58188950Y-44427081D01*
X57769850Y-44427081D01*
X57652369Y-44449874D01*
X57538710Y-44427081D01*
X57119610Y-44427081D01*
X57002129Y-44449874D01*
X56888470Y-44427081D01*
X56640452Y-44427081D01*
X56699417Y-44368219D01*
X56825357Y-44064923D01*
X56825643Y-43736518D01*
X56700233Y-43433002D01*
X56468219Y-43200583D01*
X56164923Y-43074643D01*
X55836518Y-43074357D01*
X55533002Y-43199767D01*
X55300583Y-43431781D01*
X55276205Y-43490489D01*
X55276205Y-41112500D01*
X55276205Y-40027920D01*
X55276205Y-39773920D01*
X55276205Y-38689340D01*
X55117455Y-38530590D01*
X55045121Y-38530590D01*
X54811732Y-38627263D01*
X54633103Y-38805891D01*
X54536430Y-39039280D01*
X54536430Y-39291899D01*
X54536430Y-39615170D01*
X54695180Y-39773920D01*
X55276205Y-39773920D01*
X55276205Y-40027920D01*
X54695180Y-40027920D01*
X54536430Y-40186670D01*
X54536430Y-40509941D01*
X54536430Y-40762560D01*
X54633103Y-40995949D01*
X54811732Y-41174577D01*
X55045121Y-41271250D01*
X55117455Y-41271250D01*
X55276205Y-41112500D01*
X55276205Y-43490489D01*
X55174643Y-43735077D01*
X55174357Y-44063482D01*
X55299767Y-44366998D01*
X55359745Y-44427081D01*
X55171430Y-44427081D01*
X55045526Y-44451509D01*
X54934868Y-44524200D01*
X54860794Y-44633937D01*
X54834761Y-44763750D01*
X54834761Y-46234410D01*
X54859189Y-46360314D01*
X54931880Y-46470972D01*
X54944700Y-46479626D01*
X54286964Y-46478387D01*
X54286964Y-46308000D01*
X54258778Y-46162726D01*
X54174904Y-46035044D01*
X54048284Y-45949574D01*
X53935719Y-45927000D01*
X54024810Y-45927000D01*
X54258199Y-45830327D01*
X54436827Y-45651698D01*
X54533500Y-45418309D01*
X54533500Y-45133250D01*
X54533500Y-44561750D01*
X54533500Y-44276691D01*
X54533500Y-41123309D01*
X54533500Y-40838250D01*
X54374750Y-40679500D01*
X53327000Y-40679500D01*
X53327000Y-41473250D01*
X53485750Y-41632000D01*
X53772191Y-41632000D01*
X54024810Y-41632000D01*
X54258199Y-41535327D01*
X54436827Y-41356698D01*
X54533500Y-41123309D01*
X54533500Y-44276691D01*
X54436827Y-44043302D01*
X54258199Y-43864673D01*
X54024810Y-43768000D01*
X53772191Y-43768000D01*
X53485750Y-43768000D01*
X53327000Y-43926750D01*
X53327000Y-44720500D01*
X54374750Y-44720500D01*
X54533500Y-44561750D01*
X54533500Y-45133250D01*
X54374750Y-44974500D01*
X53327000Y-44974500D01*
X53327000Y-44994500D01*
X53073000Y-44994500D01*
X53073000Y-44974500D01*
X53073000Y-44720500D01*
X53073000Y-43926750D01*
X53073000Y-41473250D01*
X53073000Y-40679500D01*
X52025250Y-40679500D01*
X51866500Y-40838250D01*
X51866500Y-41123309D01*
X51963173Y-41356698D01*
X52141801Y-41535327D01*
X52375190Y-41632000D01*
X52627809Y-41632000D01*
X52914250Y-41632000D01*
X53073000Y-41473250D01*
X53073000Y-43926750D01*
X52914250Y-43768000D01*
X52627809Y-43768000D01*
X52375190Y-43768000D01*
X52141801Y-43864673D01*
X51963173Y-44043302D01*
X51866500Y-44276691D01*
X51866500Y-44561750D01*
X52025250Y-44720500D01*
X53073000Y-44720500D01*
X53073000Y-44974500D01*
X52025250Y-44974500D01*
X51866500Y-45133250D01*
X51866500Y-45418309D01*
X51963173Y-45651698D01*
X52141801Y-45830327D01*
X52375190Y-45927000D01*
X52463029Y-45927000D01*
X52356226Y-45947722D01*
X52228544Y-46031596D01*
X52143074Y-46158216D01*
X52113036Y-46308000D01*
X52113036Y-46474291D01*
X51552482Y-46473236D01*
X51512443Y-43150055D01*
X51649246Y-43013252D01*
X51649249Y-43013250D01*
X51649250Y-43013250D01*
X51753864Y-42856683D01*
X51790600Y-42672000D01*
X51790600Y-39491899D01*
X52125623Y-39156876D01*
X52141222Y-39237274D01*
X52225096Y-39364956D01*
X52351716Y-39450426D01*
X52464280Y-39473000D01*
X52375190Y-39473000D01*
X52141801Y-39569673D01*
X51963173Y-39748302D01*
X51866500Y-39981691D01*
X51866500Y-40266750D01*
X52025250Y-40425500D01*
X53073000Y-40425500D01*
X53073000Y-40405500D01*
X53327000Y-40405500D01*
X53327000Y-40425500D01*
X54374750Y-40425500D01*
X54533500Y-40266750D01*
X54533500Y-39981691D01*
X54436827Y-39748302D01*
X54258199Y-39569673D01*
X54024810Y-39473000D01*
X53936970Y-39473000D01*
X54043774Y-39452278D01*
X54171456Y-39368404D01*
X54256926Y-39241784D01*
X54286964Y-39092000D01*
X54286964Y-38203000D01*
X54258778Y-38057726D01*
X54174904Y-37930044D01*
X54063544Y-37854875D01*
X54829210Y-37089210D01*
X54939331Y-36924404D01*
X54939331Y-36924403D01*
X54945746Y-36892150D01*
X54977999Y-36730000D01*
X54978000Y-36730000D01*
X54978000Y-35896826D01*
X55116612Y-35839554D01*
X55438423Y-35518303D01*
X55612801Y-35098354D01*
X55613198Y-34643641D01*
X55613198Y-32103641D01*
X55439554Y-31683388D01*
X55118303Y-31361577D01*
X54698354Y-31187199D01*
X54243641Y-31186802D01*
X53823388Y-31360446D01*
X53501577Y-31681697D01*
X53327199Y-32101646D01*
X53326802Y-32556359D01*
X53500446Y-32976612D01*
X53821697Y-33298423D01*
X54241646Y-33472801D01*
X54696359Y-33473198D01*
X55116612Y-33299554D01*
X55438423Y-32978303D01*
X55612801Y-32558354D01*
X55613198Y-32103641D01*
X55613198Y-34643641D01*
X55439554Y-34223388D01*
X55118303Y-33901577D01*
X54698354Y-33727199D01*
X54243641Y-33726802D01*
X53823388Y-33900446D01*
X53501577Y-34221697D01*
X53327199Y-34641646D01*
X53326802Y-35096359D01*
X53500446Y-35516612D01*
X53821697Y-35838423D01*
X53962000Y-35896681D01*
X53962000Y-36519580D01*
X52840790Y-37640790D01*
X52730669Y-37805597D01*
X52728890Y-37814536D01*
X52501500Y-37814536D01*
X52356226Y-37842722D01*
X52228544Y-37926596D01*
X52143074Y-38053216D01*
X52125770Y-38139500D01*
X51952500Y-38139500D01*
X51758097Y-38178169D01*
X51593290Y-38288290D01*
X51520956Y-38396544D01*
X51455955Y-38461545D01*
X51425068Y-35897956D01*
X51701646Y-36012801D01*
X52156359Y-36013198D01*
X52576612Y-35839554D01*
X52898423Y-35518303D01*
X53072801Y-35098354D01*
X53073198Y-34643641D01*
X52899554Y-34223388D01*
X52578303Y-33901577D01*
X52158354Y-33727199D01*
X51703641Y-33726802D01*
X51400419Y-33852089D01*
X51394312Y-33345184D01*
X51701646Y-33472801D01*
X52156359Y-33473198D01*
X52576612Y-33299554D01*
X52898423Y-32978303D01*
X53072801Y-32558354D01*
X53073198Y-32103641D01*
X52899554Y-31683388D01*
X52578303Y-31361577D01*
X52158354Y-31187199D01*
X51703641Y-31186802D01*
X51369968Y-31324671D01*
X51358589Y-30380200D01*
X78909800Y-30380200D01*
X78909800Y-44151144D01*
G36*
X78909800Y-53749800D02*
X76305500Y-53749800D01*
X76305500Y-47334810D01*
X76305500Y-47082191D01*
X76305500Y-46795750D01*
X76305500Y-46224250D01*
X76305500Y-45937809D01*
X76305500Y-45685190D01*
X76208827Y-45451801D01*
X76030198Y-45273173D01*
X75796809Y-45176500D01*
X75257750Y-45176500D01*
X75099000Y-45335250D01*
X75099000Y-46383000D01*
X76146750Y-46383000D01*
X76305500Y-46224250D01*
X76305500Y-46795750D01*
X76146750Y-46637000D01*
X75099000Y-46637000D01*
X75099000Y-47684750D01*
X75257750Y-47843500D01*
X75796809Y-47843500D01*
X76030198Y-47746827D01*
X76208827Y-47568199D01*
X76305500Y-47334810D01*
X76305500Y-53749800D01*
X72978608Y-53749800D01*
X72978608Y-52570213D01*
X72178000Y-51769605D01*
X71998395Y-51949210D01*
X71998395Y-51590000D01*
X71197787Y-50789392D01*
X70955603Y-50858857D01*
X70788464Y-51327341D01*
X70788464Y-50828000D01*
X70760278Y-50682726D01*
X70676404Y-50555044D01*
X70549784Y-50469574D01*
X70400000Y-50439536D01*
X68876000Y-50439536D01*
X68730726Y-50467722D01*
X68603044Y-50551596D01*
X68517574Y-50678216D01*
X68487536Y-50828000D01*
X68487536Y-52352000D01*
X68515722Y-52497274D01*
X68599596Y-52624956D01*
X68726216Y-52710426D01*
X68876000Y-52740464D01*
X70400000Y-52740464D01*
X70545274Y-52712278D01*
X70672956Y-52628404D01*
X70758426Y-52501784D01*
X70788464Y-52352000D01*
X70788464Y-51774056D01*
X70796638Y-51937368D01*
X70955603Y-52321143D01*
X71197787Y-52390608D01*
X71998395Y-51590000D01*
X71998395Y-51949210D01*
X71377392Y-52570213D01*
X71446857Y-52812397D01*
X71970302Y-52999144D01*
X72525368Y-52971362D01*
X72909143Y-52812397D01*
X72978608Y-52570213D01*
X72978608Y-53749800D01*
X63580608Y-53749800D01*
X63580608Y-52570213D01*
X62780000Y-51769605D01*
X62600395Y-51949210D01*
X62600395Y-51590000D01*
X61799787Y-50789392D01*
X61557603Y-50858857D01*
X61390464Y-51327341D01*
X61390464Y-50828000D01*
X61362278Y-50682726D01*
X61278404Y-50555044D01*
X61151784Y-50469574D01*
X61002000Y-50439536D01*
X59478000Y-50439536D01*
X59332726Y-50467722D01*
X59205044Y-50551596D01*
X59119574Y-50678216D01*
X59089536Y-50828000D01*
X59089536Y-52352000D01*
X59117722Y-52497274D01*
X59201596Y-52624956D01*
X59328216Y-52710426D01*
X59478000Y-52740464D01*
X61002000Y-52740464D01*
X61147274Y-52712278D01*
X61274956Y-52628404D01*
X61360426Y-52501784D01*
X61390464Y-52352000D01*
X61390464Y-51774056D01*
X61398638Y-51937368D01*
X61557603Y-52321143D01*
X61799787Y-52390608D01*
X62600395Y-51590000D01*
X62600395Y-51949210D01*
X61979392Y-52570213D01*
X62048857Y-52812397D01*
X62572302Y-52999144D01*
X63127368Y-52971362D01*
X63511143Y-52812397D01*
X63580608Y-52570213D01*
X63580608Y-53749800D01*
X52785608Y-53749800D01*
X52785608Y-52570213D01*
X51985000Y-51769605D01*
X51805395Y-51949210D01*
X51805395Y-51590000D01*
X51004787Y-50789392D01*
X50762603Y-50858857D01*
X50595464Y-51327341D01*
X50595464Y-50828000D01*
X50567278Y-50682726D01*
X50483404Y-50555044D01*
X50356784Y-50469574D01*
X50207000Y-50439536D01*
X48683000Y-50439536D01*
X48537726Y-50467722D01*
X48410044Y-50551596D01*
X48324574Y-50678216D01*
X48294536Y-50828000D01*
X48294536Y-52352000D01*
X48322722Y-52497274D01*
X48406596Y-52624956D01*
X48533216Y-52710426D01*
X48683000Y-52740464D01*
X50207000Y-52740464D01*
X50352274Y-52712278D01*
X50479956Y-52628404D01*
X50565426Y-52501784D01*
X50595464Y-52352000D01*
X50595464Y-51774056D01*
X50603638Y-51937368D01*
X50762603Y-52321143D01*
X51004787Y-52390608D01*
X51805395Y-51590000D01*
X51805395Y-51949210D01*
X51184392Y-52570213D01*
X51253857Y-52812397D01*
X51777302Y-52999144D01*
X52332368Y-52971362D01*
X52716143Y-52812397D01*
X52785608Y-52570213D01*
X52785608Y-53749800D01*
X48140464Y-53749800D01*
X48140464Y-40894000D01*
X48140464Y-39370000D01*
X48112278Y-39224726D01*
X48028404Y-39097044D01*
X47901784Y-39011574D01*
X47752000Y-38981536D01*
X47174056Y-38981536D01*
X47337368Y-38973362D01*
X47721143Y-38814397D01*
X47790608Y-38572213D01*
X46990000Y-37771605D01*
X46810395Y-37951210D01*
X46810395Y-37592000D01*
X46009787Y-36791392D01*
X45767603Y-36860857D01*
X45580856Y-37384302D01*
X45608638Y-37939368D01*
X45767603Y-38323143D01*
X46009787Y-38392608D01*
X46810395Y-37592000D01*
X46810395Y-37951210D01*
X46189392Y-38572213D01*
X46258857Y-38814397D01*
X46727341Y-38981536D01*
X46228000Y-38981536D01*
X46082726Y-39009722D01*
X45955044Y-39093596D01*
X45869574Y-39220216D01*
X45839536Y-39370000D01*
X45839536Y-40894000D01*
X45867722Y-41039274D01*
X45951596Y-41166956D01*
X46078216Y-41252426D01*
X46228000Y-41282464D01*
X47752000Y-41282464D01*
X47897274Y-41254278D01*
X48024956Y-41170404D01*
X48110426Y-41043784D01*
X48140464Y-40894000D01*
X48140464Y-53749800D01*
X45380200Y-53749800D01*
X45380200Y-36350000D01*
X46306182Y-36350000D01*
X46258857Y-36369603D01*
X46189392Y-36611787D01*
X46990000Y-37412395D01*
X47790608Y-36611787D01*
X47721143Y-36369603D01*
X47666196Y-36350000D01*
X47823579Y-36350000D01*
X48519238Y-37045659D01*
X48387199Y-37363646D01*
X48387029Y-37557660D01*
X48371362Y-37244632D01*
X48212397Y-36860857D01*
X47970213Y-36791392D01*
X47169605Y-37592000D01*
X47970213Y-38392608D01*
X48212397Y-38323143D01*
X48389852Y-37825741D01*
X48560446Y-38238612D01*
X48881697Y-38560423D01*
X49301646Y-38734801D01*
X49756359Y-38735198D01*
X50176612Y-38561554D01*
X50498423Y-38240303D01*
X50672801Y-37820354D01*
X50673198Y-37365641D01*
X50499554Y-36945388D01*
X50178303Y-36623577D01*
X49758354Y-36449199D01*
X49359271Y-36448850D01*
X49260420Y-36350000D01*
X50882131Y-36350000D01*
X50906210Y-39041354D01*
X50862136Y-39107317D01*
X50825400Y-39292000D01*
X50825400Y-40421269D01*
X50753554Y-40247388D01*
X50432303Y-39925577D01*
X50012354Y-39751199D01*
X49557641Y-39750802D01*
X49137388Y-39924446D01*
X48815577Y-40245697D01*
X48641199Y-40665646D01*
X48640802Y-41120359D01*
X48814446Y-41540612D01*
X49135697Y-41862423D01*
X49555646Y-42036801D01*
X50010359Y-42037198D01*
X50430612Y-41863554D01*
X50752423Y-41542303D01*
X50825400Y-41366554D01*
X50825400Y-42403604D01*
X50822404Y-42399044D01*
X50695784Y-42313574D01*
X50546000Y-42283536D01*
X49022000Y-42283536D01*
X48876726Y-42311722D01*
X48749044Y-42395596D01*
X48663574Y-42522216D01*
X48633536Y-42672000D01*
X48633536Y-44196000D01*
X48661722Y-44341274D01*
X48745596Y-44468956D01*
X48872216Y-44554426D01*
X49022000Y-44584464D01*
X50546000Y-44584464D01*
X50691274Y-44556278D01*
X50818956Y-44472404D01*
X50904426Y-44345784D01*
X50934464Y-44196000D01*
X50934464Y-43658283D01*
X50947494Y-43655691D01*
X50982155Y-47529689D01*
X51719987Y-47514092D01*
X51380589Y-47853490D01*
X50927198Y-48030458D01*
X50927198Y-46255641D01*
X50753554Y-45835388D01*
X50432303Y-45513577D01*
X50012354Y-45339199D01*
X49557641Y-45338802D01*
X49137388Y-45512446D01*
X48815577Y-45833697D01*
X48641199Y-46253646D01*
X48640802Y-46708359D01*
X48814446Y-47128612D01*
X49135697Y-47450423D01*
X49555646Y-47624801D01*
X50010359Y-47625198D01*
X50430612Y-47451554D01*
X50752423Y-47130303D01*
X50926801Y-46710354D01*
X50927198Y-46255641D01*
X50927198Y-48030458D01*
X50866489Y-48054155D01*
X50822404Y-47987044D01*
X50695784Y-47901574D01*
X50546000Y-47871536D01*
X49022000Y-47871536D01*
X48876726Y-47899722D01*
X48749044Y-47983596D01*
X48663574Y-48110216D01*
X48633536Y-48260000D01*
X48633536Y-49784000D01*
X48661722Y-49929274D01*
X48745596Y-50056956D01*
X48872216Y-50142426D01*
X49022000Y-50172464D01*
X50546000Y-50172464D01*
X50691274Y-50144278D01*
X50818956Y-50060404D01*
X50904426Y-49933784D01*
X50934464Y-49784000D01*
X50934464Y-49118275D01*
X51849212Y-48761229D01*
X51853690Y-48758367D01*
X51858903Y-48757331D01*
X51937028Y-48705128D01*
X52016248Y-48654521D01*
X52019292Y-48650161D01*
X52023710Y-48647210D01*
X53085456Y-47585464D01*
X53567044Y-47585464D01*
X53640790Y-47659210D01*
X53805597Y-47769331D01*
X54000000Y-47808000D01*
X56440697Y-47808000D01*
X56631781Y-47999417D01*
X56935077Y-48125357D01*
X57263482Y-48125643D01*
X57276185Y-48120394D01*
X54891865Y-50504714D01*
X54753354Y-50447199D01*
X54298641Y-50446802D01*
X53878388Y-50620446D01*
X53556577Y-50941697D01*
X53382199Y-51361646D01*
X53382029Y-51555660D01*
X53366362Y-51242632D01*
X53207397Y-50858857D01*
X52965213Y-50789392D01*
X52785608Y-50968997D01*
X52785608Y-50609787D01*
X52716143Y-50367603D01*
X52192698Y-50180856D01*
X51637632Y-50208638D01*
X51253857Y-50367603D01*
X51184392Y-50609787D01*
X51985000Y-51410395D01*
X52785608Y-50609787D01*
X52785608Y-50968997D01*
X52164605Y-51590000D01*
X52965213Y-52390608D01*
X53207397Y-52321143D01*
X53384852Y-51823741D01*
X53555446Y-52236612D01*
X53876697Y-52558423D01*
X54296646Y-52732801D01*
X54751359Y-52733198D01*
X55171612Y-52559554D01*
X55493423Y-52238303D01*
X55667801Y-51818354D01*
X55668198Y-51363641D01*
X55610184Y-51223236D01*
X58988850Y-47844570D01*
X58988851Y-47844570D01*
X59098971Y-47679763D01*
X59137640Y-47485360D01*
X59137640Y-47357292D01*
X62023080Y-47296297D01*
X62023080Y-47731080D01*
X62061749Y-47925483D01*
X62171870Y-48090290D01*
X64693652Y-50612073D01*
X64673388Y-50620446D01*
X64351577Y-50941697D01*
X64177199Y-51361646D01*
X64177029Y-51555660D01*
X64161362Y-51242632D01*
X64002397Y-50858857D01*
X63760213Y-50789392D01*
X63580608Y-50968997D01*
X63580608Y-50609787D01*
X63511143Y-50367603D01*
X62987698Y-50180856D01*
X62432632Y-50208638D01*
X62048857Y-50367603D01*
X61979392Y-50609787D01*
X62780000Y-51410395D01*
X63580608Y-50609787D01*
X63580608Y-50968997D01*
X62959605Y-51590000D01*
X63760213Y-52390608D01*
X64002397Y-52321143D01*
X64179852Y-51823741D01*
X64350446Y-52236612D01*
X64671697Y-52558423D01*
X65091646Y-52732801D01*
X65546359Y-52733198D01*
X65966612Y-52559554D01*
X66288423Y-52238303D01*
X66462801Y-51818354D01*
X66463198Y-51363641D01*
X66289554Y-50943388D01*
X65968303Y-50621577D01*
X65828000Y-50563318D01*
X65828000Y-50520000D01*
X65789331Y-50325597D01*
X65789330Y-50325596D01*
X65752790Y-50270910D01*
X65679210Y-50160790D01*
X65679210Y-50160789D01*
X65426420Y-49908000D01*
X73194000Y-49908000D01*
X73321694Y-49882600D01*
X73471100Y-49882600D01*
X74168727Y-50580226D01*
X74071388Y-50620446D01*
X73749577Y-50941697D01*
X73575199Y-51361646D01*
X73575029Y-51555660D01*
X73559362Y-51242632D01*
X73400397Y-50858857D01*
X73158213Y-50789392D01*
X72978608Y-50968997D01*
X72978608Y-50609787D01*
X72909143Y-50367603D01*
X72385698Y-50180856D01*
X71830632Y-50208638D01*
X71446857Y-50367603D01*
X71377392Y-50609787D01*
X72178000Y-51410395D01*
X72978608Y-50609787D01*
X72978608Y-50968997D01*
X72357605Y-51590000D01*
X73158213Y-52390608D01*
X73400397Y-52321143D01*
X73577852Y-51823741D01*
X73748446Y-52236612D01*
X74069697Y-52558423D01*
X74489646Y-52732801D01*
X74944359Y-52733198D01*
X75364612Y-52559554D01*
X75686423Y-52238303D01*
X75860801Y-51818354D01*
X75861198Y-51363641D01*
X75687554Y-50943388D01*
X75366303Y-50621577D01*
X75200600Y-50552771D01*
X75200600Y-50447005D01*
X75200600Y-50447000D01*
X75200601Y-50447000D01*
X75163864Y-50262317D01*
X75059250Y-50105751D01*
X75059250Y-50105750D01*
X75059246Y-50105747D01*
X74845000Y-49891500D01*
X74845000Y-47684750D01*
X74845000Y-46637000D01*
X74845000Y-46383000D01*
X74845000Y-45335250D01*
X74686250Y-45176500D01*
X74147191Y-45176500D01*
X73913802Y-45273173D01*
X73735173Y-45451801D01*
X73638500Y-45685190D01*
X73638500Y-45937809D01*
X73638500Y-46224250D01*
X73797250Y-46383000D01*
X74845000Y-46383000D01*
X74845000Y-46637000D01*
X73797250Y-46637000D01*
X73638500Y-46795750D01*
X73638500Y-47082191D01*
X73638500Y-47334810D01*
X73735173Y-47568199D01*
X73913802Y-47746827D01*
X74147191Y-47843500D01*
X74686250Y-47843500D01*
X74845000Y-47684750D01*
X74845000Y-49891500D01*
X74012250Y-49058750D01*
X73855683Y-48954136D01*
X73671000Y-48917400D01*
X73321694Y-48917400D01*
X73194000Y-48892000D01*
X70463500Y-48892000D01*
X70463500Y-47334810D01*
X70463500Y-47082191D01*
X70463500Y-46795750D01*
X70463500Y-46224250D01*
X70463500Y-45937809D01*
X70463500Y-45685190D01*
X70366827Y-45451801D01*
X70188198Y-45273173D01*
X69954809Y-45176500D01*
X69415750Y-45176500D01*
X69257000Y-45335250D01*
X69257000Y-46383000D01*
X70304750Y-46383000D01*
X70463500Y-46224250D01*
X70463500Y-46795750D01*
X70304750Y-46637000D01*
X69257000Y-46637000D01*
X69257000Y-47684750D01*
X69415750Y-47843500D01*
X69954809Y-47843500D01*
X70188198Y-47746827D01*
X70366827Y-47568199D01*
X70463500Y-47334810D01*
X70463500Y-48892000D01*
X69003000Y-48892000D01*
X69003000Y-47684750D01*
X69003000Y-46637000D01*
X69003000Y-46383000D01*
X69003000Y-45335250D01*
X68844250Y-45176500D01*
X68305191Y-45176500D01*
X68071802Y-45273173D01*
X67893173Y-45451801D01*
X67796500Y-45685190D01*
X67796500Y-45937809D01*
X67796500Y-46224250D01*
X67955250Y-46383000D01*
X69003000Y-46383000D01*
X69003000Y-46637000D01*
X67955250Y-46637000D01*
X67796500Y-46795750D01*
X67796500Y-47082191D01*
X67796500Y-47334810D01*
X67893173Y-47568199D01*
X68071802Y-47746827D01*
X68305191Y-47843500D01*
X68844250Y-47843500D01*
X69003000Y-47684750D01*
X69003000Y-48892000D01*
X65410420Y-48892000D01*
X63777628Y-47259208D01*
X65395033Y-47225019D01*
X65530799Y-46773364D01*
X65674311Y-47120689D01*
X65977714Y-47424622D01*
X66374332Y-47589313D01*
X66803784Y-47589687D01*
X67200689Y-47425689D01*
X67504622Y-47122286D01*
X67669313Y-46725668D01*
X67669687Y-46296216D01*
X67505689Y-45899311D01*
X67202286Y-45595378D01*
X67072600Y-45541527D01*
X67072600Y-44813357D01*
X70051600Y-44812100D01*
X70058750Y-44819250D01*
X71405835Y-46166335D01*
X71352687Y-46294332D01*
X71352313Y-46723784D01*
X71516311Y-47120689D01*
X71819714Y-47424622D01*
X72216332Y-47589313D01*
X72645784Y-47589687D01*
X73042689Y-47425689D01*
X73346622Y-47122286D01*
X73511313Y-46725668D01*
X73511687Y-46296216D01*
X73347689Y-45899311D01*
X73044286Y-45595378D01*
X72647668Y-45430687D01*
X72218216Y-45430313D01*
X72088436Y-45483936D01*
X71416024Y-44811524D01*
X78909800Y-44808360D01*
X78909800Y-53749800D01*
X78909800Y-53749800D01*
G37*
X78909800Y-53749800D02*
X76305500Y-53749800D01*
X76305500Y-47334810D01*
X76305500Y-47082191D01*
X76305500Y-46795750D01*
X76305500Y-46224250D01*
X76305500Y-45937809D01*
X76305500Y-45685190D01*
X76208827Y-45451801D01*
X76030198Y-45273173D01*
X75796809Y-45176500D01*
X75257750Y-45176500D01*
X75099000Y-45335250D01*
X75099000Y-46383000D01*
X76146750Y-46383000D01*
X76305500Y-46224250D01*
X76305500Y-46795750D01*
X76146750Y-46637000D01*
X75099000Y-46637000D01*
X75099000Y-47684750D01*
X75257750Y-47843500D01*
X75796809Y-47843500D01*
X76030198Y-47746827D01*
X76208827Y-47568199D01*
X76305500Y-47334810D01*
X76305500Y-53749800D01*
X72978608Y-53749800D01*
X72978608Y-52570213D01*
X72178000Y-51769605D01*
X71998395Y-51949210D01*
X71998395Y-51590000D01*
X71197787Y-50789392D01*
X70955603Y-50858857D01*
X70788464Y-51327341D01*
X70788464Y-50828000D01*
X70760278Y-50682726D01*
X70676404Y-50555044D01*
X70549784Y-50469574D01*
X70400000Y-50439536D01*
X68876000Y-50439536D01*
X68730726Y-50467722D01*
X68603044Y-50551596D01*
X68517574Y-50678216D01*
X68487536Y-50828000D01*
X68487536Y-52352000D01*
X68515722Y-52497274D01*
X68599596Y-52624956D01*
X68726216Y-52710426D01*
X68876000Y-52740464D01*
X70400000Y-52740464D01*
X70545274Y-52712278D01*
X70672956Y-52628404D01*
X70758426Y-52501784D01*
X70788464Y-52352000D01*
X70788464Y-51774056D01*
X70796638Y-51937368D01*
X70955603Y-52321143D01*
X71197787Y-52390608D01*
X71998395Y-51590000D01*
X71998395Y-51949210D01*
X71377392Y-52570213D01*
X71446857Y-52812397D01*
X71970302Y-52999144D01*
X72525368Y-52971362D01*
X72909143Y-52812397D01*
X72978608Y-52570213D01*
X72978608Y-53749800D01*
X63580608Y-53749800D01*
X63580608Y-52570213D01*
X62780000Y-51769605D01*
X62600395Y-51949210D01*
X62600395Y-51590000D01*
X61799787Y-50789392D01*
X61557603Y-50858857D01*
X61390464Y-51327341D01*
X61390464Y-50828000D01*
X61362278Y-50682726D01*
X61278404Y-50555044D01*
X61151784Y-50469574D01*
X61002000Y-50439536D01*
X59478000Y-50439536D01*
X59332726Y-50467722D01*
X59205044Y-50551596D01*
X59119574Y-50678216D01*
X59089536Y-50828000D01*
X59089536Y-52352000D01*
X59117722Y-52497274D01*
X59201596Y-52624956D01*
X59328216Y-52710426D01*
X59478000Y-52740464D01*
X61002000Y-52740464D01*
X61147274Y-52712278D01*
X61274956Y-52628404D01*
X61360426Y-52501784D01*
X61390464Y-52352000D01*
X61390464Y-51774056D01*
X61398638Y-51937368D01*
X61557603Y-52321143D01*
X61799787Y-52390608D01*
X62600395Y-51590000D01*
X62600395Y-51949210D01*
X61979392Y-52570213D01*
X62048857Y-52812397D01*
X62572302Y-52999144D01*
X63127368Y-52971362D01*
X63511143Y-52812397D01*
X63580608Y-52570213D01*
X63580608Y-53749800D01*
X52785608Y-53749800D01*
X52785608Y-52570213D01*
X51985000Y-51769605D01*
X51805395Y-51949210D01*
X51805395Y-51590000D01*
X51004787Y-50789392D01*
X50762603Y-50858857D01*
X50595464Y-51327341D01*
X50595464Y-50828000D01*
X50567278Y-50682726D01*
X50483404Y-50555044D01*
X50356784Y-50469574D01*
X50207000Y-50439536D01*
X48683000Y-50439536D01*
X48537726Y-50467722D01*
X48410044Y-50551596D01*
X48324574Y-50678216D01*
X48294536Y-50828000D01*
X48294536Y-52352000D01*
X48322722Y-52497274D01*
X48406596Y-52624956D01*
X48533216Y-52710426D01*
X48683000Y-52740464D01*
X50207000Y-52740464D01*
X50352274Y-52712278D01*
X50479956Y-52628404D01*
X50565426Y-52501784D01*
X50595464Y-52352000D01*
X50595464Y-51774056D01*
X50603638Y-51937368D01*
X50762603Y-52321143D01*
X51004787Y-52390608D01*
X51805395Y-51590000D01*
X51805395Y-51949210D01*
X51184392Y-52570213D01*
X51253857Y-52812397D01*
X51777302Y-52999144D01*
X52332368Y-52971362D01*
X52716143Y-52812397D01*
X52785608Y-52570213D01*
X52785608Y-53749800D01*
X48140464Y-53749800D01*
X48140464Y-40894000D01*
X48140464Y-39370000D01*
X48112278Y-39224726D01*
X48028404Y-39097044D01*
X47901784Y-39011574D01*
X47752000Y-38981536D01*
X47174056Y-38981536D01*
X47337368Y-38973362D01*
X47721143Y-38814397D01*
X47790608Y-38572213D01*
X46990000Y-37771605D01*
X46810395Y-37951210D01*
X46810395Y-37592000D01*
X46009787Y-36791392D01*
X45767603Y-36860857D01*
X45580856Y-37384302D01*
X45608638Y-37939368D01*
X45767603Y-38323143D01*
X46009787Y-38392608D01*
X46810395Y-37592000D01*
X46810395Y-37951210D01*
X46189392Y-38572213D01*
X46258857Y-38814397D01*
X46727341Y-38981536D01*
X46228000Y-38981536D01*
X46082726Y-39009722D01*
X45955044Y-39093596D01*
X45869574Y-39220216D01*
X45839536Y-39370000D01*
X45839536Y-40894000D01*
X45867722Y-41039274D01*
X45951596Y-41166956D01*
X46078216Y-41252426D01*
X46228000Y-41282464D01*
X47752000Y-41282464D01*
X47897274Y-41254278D01*
X48024956Y-41170404D01*
X48110426Y-41043784D01*
X48140464Y-40894000D01*
X48140464Y-53749800D01*
X45380200Y-53749800D01*
X45380200Y-36350000D01*
X46306182Y-36350000D01*
X46258857Y-36369603D01*
X46189392Y-36611787D01*
X46990000Y-37412395D01*
X47790608Y-36611787D01*
X47721143Y-36369603D01*
X47666196Y-36350000D01*
X47823579Y-36350000D01*
X48519238Y-37045659D01*
X48387199Y-37363646D01*
X48387029Y-37557660D01*
X48371362Y-37244632D01*
X48212397Y-36860857D01*
X47970213Y-36791392D01*
X47169605Y-37592000D01*
X47970213Y-38392608D01*
X48212397Y-38323143D01*
X48389852Y-37825741D01*
X48560446Y-38238612D01*
X48881697Y-38560423D01*
X49301646Y-38734801D01*
X49756359Y-38735198D01*
X50176612Y-38561554D01*
X50498423Y-38240303D01*
X50672801Y-37820354D01*
X50673198Y-37365641D01*
X50499554Y-36945388D01*
X50178303Y-36623577D01*
X49758354Y-36449199D01*
X49359271Y-36448850D01*
X49260420Y-36350000D01*
X50882131Y-36350000D01*
X50906210Y-39041354D01*
X50862136Y-39107317D01*
X50825400Y-39292000D01*
X50825400Y-40421269D01*
X50753554Y-40247388D01*
X50432303Y-39925577D01*
X50012354Y-39751199D01*
X49557641Y-39750802D01*
X49137388Y-39924446D01*
X48815577Y-40245697D01*
X48641199Y-40665646D01*
X48640802Y-41120359D01*
X48814446Y-41540612D01*
X49135697Y-41862423D01*
X49555646Y-42036801D01*
X50010359Y-42037198D01*
X50430612Y-41863554D01*
X50752423Y-41542303D01*
X50825400Y-41366554D01*
X50825400Y-42403604D01*
X50822404Y-42399044D01*
X50695784Y-42313574D01*
X50546000Y-42283536D01*
X49022000Y-42283536D01*
X48876726Y-42311722D01*
X48749044Y-42395596D01*
X48663574Y-42522216D01*
X48633536Y-42672000D01*
X48633536Y-44196000D01*
X48661722Y-44341274D01*
X48745596Y-44468956D01*
X48872216Y-44554426D01*
X49022000Y-44584464D01*
X50546000Y-44584464D01*
X50691274Y-44556278D01*
X50818956Y-44472404D01*
X50904426Y-44345784D01*
X50934464Y-44196000D01*
X50934464Y-43658283D01*
X50947494Y-43655691D01*
X50982155Y-47529689D01*
X51719987Y-47514092D01*
X51380589Y-47853490D01*
X50927198Y-48030458D01*
X50927198Y-46255641D01*
X50753554Y-45835388D01*
X50432303Y-45513577D01*
X50012354Y-45339199D01*
X49557641Y-45338802D01*
X49137388Y-45512446D01*
X48815577Y-45833697D01*
X48641199Y-46253646D01*
X48640802Y-46708359D01*
X48814446Y-47128612D01*
X49135697Y-47450423D01*
X49555646Y-47624801D01*
X50010359Y-47625198D01*
X50430612Y-47451554D01*
X50752423Y-47130303D01*
X50926801Y-46710354D01*
X50927198Y-46255641D01*
X50927198Y-48030458D01*
X50866489Y-48054155D01*
X50822404Y-47987044D01*
X50695784Y-47901574D01*
X50546000Y-47871536D01*
X49022000Y-47871536D01*
X48876726Y-47899722D01*
X48749044Y-47983596D01*
X48663574Y-48110216D01*
X48633536Y-48260000D01*
X48633536Y-49784000D01*
X48661722Y-49929274D01*
X48745596Y-50056956D01*
X48872216Y-50142426D01*
X49022000Y-50172464D01*
X50546000Y-50172464D01*
X50691274Y-50144278D01*
X50818956Y-50060404D01*
X50904426Y-49933784D01*
X50934464Y-49784000D01*
X50934464Y-49118275D01*
X51849212Y-48761229D01*
X51853690Y-48758367D01*
X51858903Y-48757331D01*
X51937028Y-48705128D01*
X52016248Y-48654521D01*
X52019292Y-48650161D01*
X52023710Y-48647210D01*
X53085456Y-47585464D01*
X53567044Y-47585464D01*
X53640790Y-47659210D01*
X53805597Y-47769331D01*
X54000000Y-47808000D01*
X56440697Y-47808000D01*
X56631781Y-47999417D01*
X56935077Y-48125357D01*
X57263482Y-48125643D01*
X57276185Y-48120394D01*
X54891865Y-50504714D01*
X54753354Y-50447199D01*
X54298641Y-50446802D01*
X53878388Y-50620446D01*
X53556577Y-50941697D01*
X53382199Y-51361646D01*
X53382029Y-51555660D01*
X53366362Y-51242632D01*
X53207397Y-50858857D01*
X52965213Y-50789392D01*
X52785608Y-50968997D01*
X52785608Y-50609787D01*
X52716143Y-50367603D01*
X52192698Y-50180856D01*
X51637632Y-50208638D01*
X51253857Y-50367603D01*
X51184392Y-50609787D01*
X51985000Y-51410395D01*
X52785608Y-50609787D01*
X52785608Y-50968997D01*
X52164605Y-51590000D01*
X52965213Y-52390608D01*
X53207397Y-52321143D01*
X53384852Y-51823741D01*
X53555446Y-52236612D01*
X53876697Y-52558423D01*
X54296646Y-52732801D01*
X54751359Y-52733198D01*
X55171612Y-52559554D01*
X55493423Y-52238303D01*
X55667801Y-51818354D01*
X55668198Y-51363641D01*
X55610184Y-51223236D01*
X58988850Y-47844570D01*
X58988851Y-47844570D01*
X59098971Y-47679763D01*
X59137640Y-47485360D01*
X59137640Y-47357292D01*
X62023080Y-47296297D01*
X62023080Y-47731080D01*
X62061749Y-47925483D01*
X62171870Y-48090290D01*
X64693652Y-50612073D01*
X64673388Y-50620446D01*
X64351577Y-50941697D01*
X64177199Y-51361646D01*
X64177029Y-51555660D01*
X64161362Y-51242632D01*
X64002397Y-50858857D01*
X63760213Y-50789392D01*
X63580608Y-50968997D01*
X63580608Y-50609787D01*
X63511143Y-50367603D01*
X62987698Y-50180856D01*
X62432632Y-50208638D01*
X62048857Y-50367603D01*
X61979392Y-50609787D01*
X62780000Y-51410395D01*
X63580608Y-50609787D01*
X63580608Y-50968997D01*
X62959605Y-51590000D01*
X63760213Y-52390608D01*
X64002397Y-52321143D01*
X64179852Y-51823741D01*
X64350446Y-52236612D01*
X64671697Y-52558423D01*
X65091646Y-52732801D01*
X65546359Y-52733198D01*
X65966612Y-52559554D01*
X66288423Y-52238303D01*
X66462801Y-51818354D01*
X66463198Y-51363641D01*
X66289554Y-50943388D01*
X65968303Y-50621577D01*
X65828000Y-50563318D01*
X65828000Y-50520000D01*
X65789331Y-50325597D01*
X65789330Y-50325596D01*
X65752790Y-50270910D01*
X65679210Y-50160790D01*
X65679210Y-50160789D01*
X65426420Y-49908000D01*
X73194000Y-49908000D01*
X73321694Y-49882600D01*
X73471100Y-49882600D01*
X74168727Y-50580226D01*
X74071388Y-50620446D01*
X73749577Y-50941697D01*
X73575199Y-51361646D01*
X73575029Y-51555660D01*
X73559362Y-51242632D01*
X73400397Y-50858857D01*
X73158213Y-50789392D01*
X72978608Y-50968997D01*
X72978608Y-50609787D01*
X72909143Y-50367603D01*
X72385698Y-50180856D01*
X71830632Y-50208638D01*
X71446857Y-50367603D01*
X71377392Y-50609787D01*
X72178000Y-51410395D01*
X72978608Y-50609787D01*
X72978608Y-50968997D01*
X72357605Y-51590000D01*
X73158213Y-52390608D01*
X73400397Y-52321143D01*
X73577852Y-51823741D01*
X73748446Y-52236612D01*
X74069697Y-52558423D01*
X74489646Y-52732801D01*
X74944359Y-52733198D01*
X75364612Y-52559554D01*
X75686423Y-52238303D01*
X75860801Y-51818354D01*
X75861198Y-51363641D01*
X75687554Y-50943388D01*
X75366303Y-50621577D01*
X75200600Y-50552771D01*
X75200600Y-50447005D01*
X75200600Y-50447000D01*
X75200601Y-50447000D01*
X75163864Y-50262317D01*
X75059250Y-50105751D01*
X75059250Y-50105750D01*
X75059246Y-50105747D01*
X74845000Y-49891500D01*
X74845000Y-47684750D01*
X74845000Y-46637000D01*
X74845000Y-46383000D01*
X74845000Y-45335250D01*
X74686250Y-45176500D01*
X74147191Y-45176500D01*
X73913802Y-45273173D01*
X73735173Y-45451801D01*
X73638500Y-45685190D01*
X73638500Y-45937809D01*
X73638500Y-46224250D01*
X73797250Y-46383000D01*
X74845000Y-46383000D01*
X74845000Y-46637000D01*
X73797250Y-46637000D01*
X73638500Y-46795750D01*
X73638500Y-47082191D01*
X73638500Y-47334810D01*
X73735173Y-47568199D01*
X73913802Y-47746827D01*
X74147191Y-47843500D01*
X74686250Y-47843500D01*
X74845000Y-47684750D01*
X74845000Y-49891500D01*
X74012250Y-49058750D01*
X73855683Y-48954136D01*
X73671000Y-48917400D01*
X73321694Y-48917400D01*
X73194000Y-48892000D01*
X70463500Y-48892000D01*
X70463500Y-47334810D01*
X70463500Y-47082191D01*
X70463500Y-46795750D01*
X70463500Y-46224250D01*
X70463500Y-45937809D01*
X70463500Y-45685190D01*
X70366827Y-45451801D01*
X70188198Y-45273173D01*
X69954809Y-45176500D01*
X69415750Y-45176500D01*
X69257000Y-45335250D01*
X69257000Y-46383000D01*
X70304750Y-46383000D01*
X70463500Y-46224250D01*
X70463500Y-46795750D01*
X70304750Y-46637000D01*
X69257000Y-46637000D01*
X69257000Y-47684750D01*
X69415750Y-47843500D01*
X69954809Y-47843500D01*
X70188198Y-47746827D01*
X70366827Y-47568199D01*
X70463500Y-47334810D01*
X70463500Y-48892000D01*
X69003000Y-48892000D01*
X69003000Y-47684750D01*
X69003000Y-46637000D01*
X69003000Y-46383000D01*
X69003000Y-45335250D01*
X68844250Y-45176500D01*
X68305191Y-45176500D01*
X68071802Y-45273173D01*
X67893173Y-45451801D01*
X67796500Y-45685190D01*
X67796500Y-45937809D01*
X67796500Y-46224250D01*
X67955250Y-46383000D01*
X69003000Y-46383000D01*
X69003000Y-46637000D01*
X67955250Y-46637000D01*
X67796500Y-46795750D01*
X67796500Y-47082191D01*
X67796500Y-47334810D01*
X67893173Y-47568199D01*
X68071802Y-47746827D01*
X68305191Y-47843500D01*
X68844250Y-47843500D01*
X69003000Y-47684750D01*
X69003000Y-48892000D01*
X65410420Y-48892000D01*
X63777628Y-47259208D01*
X65395033Y-47225019D01*
X65530799Y-46773364D01*
X65674311Y-47120689D01*
X65977714Y-47424622D01*
X66374332Y-47589313D01*
X66803784Y-47589687D01*
X67200689Y-47425689D01*
X67504622Y-47122286D01*
X67669313Y-46725668D01*
X67669687Y-46296216D01*
X67505689Y-45899311D01*
X67202286Y-45595378D01*
X67072600Y-45541527D01*
X67072600Y-44813357D01*
X70051600Y-44812100D01*
X70058750Y-44819250D01*
X71405835Y-46166335D01*
X71352687Y-46294332D01*
X71352313Y-46723784D01*
X71516311Y-47120689D01*
X71819714Y-47424622D01*
X72216332Y-47589313D01*
X72645784Y-47589687D01*
X73042689Y-47425689D01*
X73346622Y-47122286D01*
X73511313Y-46725668D01*
X73511687Y-46296216D01*
X73347689Y-45899311D01*
X73044286Y-45595378D01*
X72647668Y-45430687D01*
X72218216Y-45430313D01*
X72088436Y-45483936D01*
X71416024Y-44811524D01*
X78909800Y-44808360D01*
X78909800Y-53749800D01*
M02*
