G04 #@! TF.GenerationSoftware,KiCad,Pcbnew,(5.0.2)-1*
G04 #@! TF.CreationDate,2020-12-02T07:54:58-05:00*
G04 #@! TF.ProjectId,I2C-VFO3,4932432d-5646-44f3-932e-6b696361645f,rev?*
G04 #@! TF.SameCoordinates,Original*
G04 #@! TF.FileFunction,Legend,Bot*
G04 #@! TF.FilePolarity,Positive*
%FSLAX46Y46*%
G04 Gerber Fmt 4.6, Leading zero omitted, Abs format (unit mm)*
G04 Created by KiCad (PCBNEW (5.0.2)-1) date 12/2/2020 7:54:58 AM*
%MOMM*%
%LPD*%
G01*
G04 APERTURE LIST*
%ADD10C,0.120000*%
%ADD11C,0.317500*%
%ADD12C,0.381000*%
G04 APERTURE END LIST*
D10*
G04 #@! TO.C,R1*
X24391252Y-28650000D02*
X23868748Y-28650000D01*
X24391252Y-27230000D02*
X23868748Y-27230000D01*
G04 #@! TO.C,R2*
X24391252Y-24690000D02*
X23868748Y-24690000D01*
X24391252Y-26110000D02*
X23868748Y-26110000D01*
G04 #@! TO.C,R1*
D11*
X27897666Y-29022523D02*
X28321000Y-28417761D01*
X28623380Y-29022523D02*
X28623380Y-27752523D01*
X28139571Y-27752523D01*
X28018619Y-27813000D01*
X27958142Y-27873476D01*
X27897666Y-27994428D01*
X27897666Y-28175857D01*
X27958142Y-28296809D01*
X28018619Y-28357285D01*
X28139571Y-28417761D01*
X28623380Y-28417761D01*
X26688142Y-29022523D02*
X27413857Y-29022523D01*
X27051000Y-29022523D02*
X27051000Y-27752523D01*
X27171952Y-27933952D01*
X27292904Y-28054904D01*
X27413857Y-28115380D01*
D12*
G04 #@! TO.C,R2*
D11*
X28151666Y-25974523D02*
X28575000Y-25369761D01*
X28877380Y-25974523D02*
X28877380Y-24704523D01*
X28393571Y-24704523D01*
X28272619Y-24765000D01*
X28212142Y-24825476D01*
X28151666Y-24946428D01*
X28151666Y-25127857D01*
X28212142Y-25248809D01*
X28272619Y-25309285D01*
X28393571Y-25369761D01*
X28877380Y-25369761D01*
X27667857Y-24825476D02*
X27607380Y-24765000D01*
X27486428Y-24704523D01*
X27184047Y-24704523D01*
X27063095Y-24765000D01*
X27002619Y-24825476D01*
X26942142Y-24946428D01*
X26942142Y-25067380D01*
X27002619Y-25248809D01*
X27728333Y-25974523D01*
X26942142Y-25974523D01*
D12*
G04 #@! TD*
M02*
