G04 (created by PCBNEW (2013-05-31 BZR 4019)-stable) date 6/28/2014 2:34:58 PM*
%MOIN*%
G04 Gerber Fmt 3.4, Leading zero omitted, Abs format*
%FSLAX34Y34*%
G01*
G70*
G90*
G04 APERTURE LIST*
%ADD10C,0.00590551*%
%ADD11C,0.012*%
G04 APERTURE END LIST*
G54D10*
G54D11*
X62369Y-51111D02*
X62426Y-51073D01*
X62455Y-50996D01*
X62455Y-50311D01*
X61884Y-51111D02*
X61884Y-50692D01*
X61912Y-50615D01*
X61969Y-50577D01*
X62084Y-50577D01*
X62141Y-50615D01*
X61884Y-51073D02*
X61941Y-51111D01*
X62084Y-51111D01*
X62141Y-51073D01*
X62169Y-50996D01*
X62169Y-50920D01*
X62141Y-50844D01*
X62084Y-50806D01*
X61941Y-50806D01*
X61884Y-50768D01*
X61598Y-50577D02*
X61598Y-51111D01*
X61598Y-50654D02*
X61569Y-50615D01*
X61512Y-50577D01*
X61426Y-50577D01*
X61369Y-50615D01*
X61341Y-50692D01*
X61341Y-51111D01*
X60798Y-51111D02*
X60798Y-50311D01*
X60798Y-51073D02*
X60855Y-51111D01*
X60969Y-51111D01*
X61026Y-51073D01*
X61055Y-51035D01*
X61084Y-50958D01*
X61084Y-50730D01*
X61055Y-50654D01*
X61026Y-50615D01*
X60969Y-50577D01*
X60855Y-50577D01*
X60798Y-50615D01*
X60512Y-50806D02*
X60055Y-50806D01*
X59769Y-51111D02*
X59769Y-50311D01*
X59769Y-50615D02*
X59712Y-50577D01*
X59598Y-50577D01*
X59541Y-50615D01*
X59512Y-50654D01*
X59484Y-50730D01*
X59484Y-50958D01*
X59512Y-51035D01*
X59541Y-51073D01*
X59598Y-51111D01*
X59712Y-51111D01*
X59769Y-51073D01*
X59141Y-51111D02*
X59198Y-51073D01*
X59226Y-51035D01*
X59255Y-50958D01*
X59255Y-50730D01*
X59226Y-50654D01*
X59198Y-50615D01*
X59141Y-50577D01*
X59055Y-50577D01*
X58998Y-50615D01*
X58969Y-50654D01*
X58941Y-50730D01*
X58941Y-50958D01*
X58969Y-51035D01*
X58998Y-51073D01*
X59055Y-51111D01*
X59141Y-51111D01*
X58426Y-51111D02*
X58426Y-50692D01*
X58455Y-50615D01*
X58512Y-50577D01*
X58626Y-50577D01*
X58684Y-50615D01*
X58426Y-51073D02*
X58484Y-51111D01*
X58626Y-51111D01*
X58684Y-51073D01*
X58712Y-50996D01*
X58712Y-50920D01*
X58684Y-50844D01*
X58626Y-50806D01*
X58484Y-50806D01*
X58426Y-50768D01*
X58141Y-51111D02*
X58141Y-50577D01*
X58141Y-50730D02*
X58112Y-50654D01*
X58084Y-50615D01*
X58026Y-50577D01*
X57969Y-50577D01*
X57512Y-51111D02*
X57512Y-50311D01*
X57512Y-51073D02*
X57569Y-51111D01*
X57684Y-51111D01*
X57741Y-51073D01*
X57769Y-51035D01*
X57798Y-50958D01*
X57798Y-50730D01*
X57769Y-50654D01*
X57741Y-50615D01*
X57684Y-50577D01*
X57569Y-50577D01*
X57512Y-50615D01*
X57255Y-51073D02*
X57198Y-51111D01*
X57084Y-51111D01*
X57026Y-51073D01*
X56998Y-50996D01*
X56998Y-50958D01*
X57026Y-50882D01*
X57084Y-50844D01*
X57169Y-50844D01*
X57226Y-50806D01*
X57255Y-50730D01*
X57255Y-50692D01*
X57226Y-50615D01*
X57169Y-50577D01*
X57084Y-50577D01*
X57026Y-50615D01*
X56741Y-51035D02*
X56712Y-51073D01*
X56741Y-51111D01*
X56769Y-51073D01*
X56741Y-51035D01*
X56741Y-51111D01*
X56198Y-51073D02*
X56255Y-51111D01*
X56369Y-51111D01*
X56426Y-51073D01*
X56455Y-51035D01*
X56484Y-50958D01*
X56484Y-50730D01*
X56455Y-50654D01*
X56426Y-50615D01*
X56369Y-50577D01*
X56255Y-50577D01*
X56198Y-50615D01*
X55855Y-51111D02*
X55912Y-51073D01*
X55941Y-51035D01*
X55969Y-50958D01*
X55969Y-50730D01*
X55941Y-50654D01*
X55912Y-50615D01*
X55855Y-50577D01*
X55769Y-50577D01*
X55712Y-50615D01*
X55684Y-50654D01*
X55655Y-50730D01*
X55655Y-50958D01*
X55684Y-51035D01*
X55712Y-51073D01*
X55769Y-51111D01*
X55855Y-51111D01*
X55398Y-51111D02*
X55398Y-50577D01*
X55398Y-50654D02*
X55369Y-50615D01*
X55312Y-50577D01*
X55226Y-50577D01*
X55169Y-50615D01*
X55141Y-50692D01*
X55141Y-51111D01*
X55141Y-50692D02*
X55112Y-50615D01*
X55055Y-50577D01*
X54969Y-50577D01*
X54912Y-50615D01*
X54884Y-50692D01*
X54884Y-51111D01*
X54169Y-50273D02*
X54684Y-51301D01*
X62455Y-52351D02*
X62455Y-51551D01*
X62312Y-51551D01*
X62226Y-51589D01*
X62169Y-51665D01*
X62141Y-51741D01*
X62112Y-51894D01*
X62112Y-52008D01*
X62141Y-52160D01*
X62169Y-52236D01*
X62226Y-52313D01*
X62312Y-52351D01*
X62455Y-52351D01*
X61884Y-52122D02*
X61598Y-52122D01*
X61941Y-52351D02*
X61741Y-51551D01*
X61541Y-52351D01*
X61369Y-52313D02*
X61284Y-52351D01*
X61141Y-52351D01*
X61084Y-52313D01*
X61055Y-52275D01*
X61026Y-52198D01*
X61026Y-52122D01*
X61055Y-52046D01*
X61084Y-52008D01*
X61141Y-51970D01*
X61255Y-51932D01*
X61312Y-51894D01*
X61341Y-51855D01*
X61369Y-51779D01*
X61369Y-51703D01*
X61341Y-51627D01*
X61312Y-51589D01*
X61255Y-51551D01*
X61112Y-51551D01*
X61026Y-51589D01*
X60769Y-52046D02*
X60312Y-52046D01*
X60084Y-51551D02*
X59712Y-51551D01*
X59912Y-51855D01*
X59826Y-51855D01*
X59769Y-51894D01*
X59741Y-51932D01*
X59712Y-52008D01*
X59712Y-52198D01*
X59741Y-52275D01*
X59769Y-52313D01*
X59826Y-52351D01*
X59998Y-52351D01*
X60055Y-52313D01*
X60084Y-52275D01*
X59484Y-51627D02*
X59455Y-51589D01*
X59398Y-51551D01*
X59255Y-51551D01*
X59198Y-51589D01*
X59169Y-51627D01*
X59141Y-51703D01*
X59141Y-51779D01*
X59169Y-51894D01*
X59512Y-52351D01*
X59141Y-52351D01*
X58884Y-51551D02*
X58884Y-52198D01*
X58855Y-52275D01*
X58826Y-52313D01*
X58769Y-52351D01*
X58655Y-52351D01*
X58598Y-52313D01*
X58569Y-52275D01*
X58541Y-52198D01*
X58541Y-51551D01*
X57998Y-51817D02*
X57998Y-52351D01*
X58141Y-51513D02*
X58284Y-52084D01*
X57912Y-52084D01*
X62455Y-53591D02*
X62455Y-52791D01*
X62226Y-52791D01*
X62169Y-52829D01*
X62141Y-52867D01*
X62112Y-52943D01*
X62112Y-53057D01*
X62141Y-53134D01*
X62169Y-53172D01*
X62226Y-53210D01*
X62455Y-53210D01*
X61912Y-52791D02*
X61769Y-53591D01*
X61655Y-53019D01*
X61541Y-53591D01*
X61398Y-52791D01*
X60969Y-53172D02*
X60884Y-53210D01*
X60855Y-53248D01*
X60826Y-53324D01*
X60826Y-53438D01*
X60855Y-53515D01*
X60884Y-53553D01*
X60941Y-53591D01*
X61169Y-53591D01*
X61169Y-52791D01*
X60969Y-52791D01*
X60912Y-52829D01*
X60884Y-52867D01*
X60855Y-52943D01*
X60855Y-53019D01*
X60884Y-53095D01*
X60912Y-53134D01*
X60969Y-53172D01*
X61169Y-53172D01*
X59769Y-53591D02*
X59969Y-53210D01*
X60112Y-53591D02*
X60112Y-52791D01*
X59884Y-52791D01*
X59826Y-52829D01*
X59798Y-52867D01*
X59769Y-52943D01*
X59769Y-53057D01*
X59798Y-53134D01*
X59826Y-53172D01*
X59884Y-53210D01*
X60112Y-53210D01*
X59512Y-53172D02*
X59312Y-53172D01*
X59226Y-53591D02*
X59512Y-53591D01*
X59512Y-52791D01*
X59226Y-52791D01*
X59055Y-52791D02*
X58855Y-53591D01*
X58655Y-52791D01*
X58055Y-52791D02*
X57655Y-53591D01*
X57655Y-52791D02*
X58055Y-53591D01*
X57112Y-53591D02*
X57455Y-53591D01*
X57284Y-53591D02*
X57284Y-52791D01*
X57341Y-52905D01*
X57398Y-52981D01*
X57455Y-53019D01*
X62484Y-54793D02*
X62398Y-54831D01*
X62255Y-54831D01*
X62198Y-54793D01*
X62169Y-54755D01*
X62141Y-54678D01*
X62141Y-54602D01*
X62169Y-54526D01*
X62198Y-54488D01*
X62255Y-54450D01*
X62369Y-54412D01*
X62426Y-54374D01*
X62455Y-54335D01*
X62484Y-54259D01*
X62484Y-54183D01*
X62455Y-54107D01*
X62426Y-54069D01*
X62369Y-54031D01*
X62226Y-54031D01*
X62141Y-54069D01*
X61455Y-53993D02*
X61969Y-55021D01*
X61255Y-54831D02*
X61255Y-54031D01*
X60912Y-54831D01*
X60912Y-54031D01*
M02*
