  0
SECTION
  2
HEADER
  9
$ANGBASE
  50
0.0
  9
$ANGDIR
  70
  1
  9
$MEASUREMENT
  70
0
  0
ENDSEC
  0
SECTION
  2
TABLES
  0
TABLE
  2
LTYPE
  70
1
  0
LTYPE
  2
CONTINUOUS
  70
0
  3
Solid line
  72
65
  73
0
  40
0.0
  0
ENDTAB
  0
TABLE
  2
STYLE
  70
4
  0
STYLE
  2
KICAD
  70
0
  40
0
  41
1
  42
1
  50
0
  71
0
  3
isocp.shx
  0
STYLE
  2
KICADB
  70
0
  40
0
  41
1
  42
1
  50
0
  71
0
  3
isocp.shx
  0
STYLE
  2
KICADI
  70
0
  40
0
  41
1
  42
1
  50
15
  71
0
  3
isocp.shx
  0
STYLE
  2
KICADBI
  70
0
  40
0
  41
1
  42
1
  50
15
  71
0
  3
isocp.shx
  0
ENDTAB
  0
TABLE
  2
LAYER
  70
30
  0
LAYER
  2
BLACK
  70
0
  62
7
  6
CONTINUOUS
  0
LAYER
  2
GRAY1
  70
0
  62
251
  6
CONTINUOUS
  0
LAYER
  2
GRAY2
  70
0
  62
8
  6
CONTINUOUS
  0
LAYER
  2
GRAY3
  70
0
  62
9
  6
CONTINUOUS
  0
LAYER
  2
WHITE
  70
0
  62
7
  6
CONTINUOUS
  0
LAYER
  2
LYELLOW
  70
0
  62
51
  6
CONTINUOUS
  0
LAYER
  2
BLUE1
  70
0
  62
178
  6
CONTINUOUS
  0
LAYER
  2
GREEN1
  70
0
  62
98
  6
CONTINUOUS
  0
LAYER
  2
CYAN1
  70
0
  62
138
  6
CONTINUOUS
  0
LAYER
  2
RED1
  70
0
  62
18
  6
CONTINUOUS
  0
LAYER
  2
MAGENTA1
  70
0
  62
228
  6
CONTINUOUS
  0
LAYER
  2
BROWN1
  70
0
  62
58
  6
CONTINUOUS
  0
LAYER
  2
BLUE2
  70
0
  62
5
  6
CONTINUOUS
  0
LAYER
  2
GREEN2
  70
0
  62
3
  6
CONTINUOUS
  0
LAYER
  2
CYAN2
  70
0
  62
4
  6
CONTINUOUS
  0
LAYER
  2
RED2
  70
0
  62
1
  6
CONTINUOUS
  0
LAYER
  2
MAGENTA2
  70
0
  62
6
  6
CONTINUOUS
  0
LAYER
  2
BROWN2
  70
0
  62
54
  6
CONTINUOUS
  0
LAYER
  2
BLUE3
  70
0
  62
171
  6
CONTINUOUS
  0
LAYER
  2
GREEN3
  70
0
  62
91
  6
CONTINUOUS
  0
LAYER
  2
CYAN3
  70
0
  62
131
  6
CONTINUOUS
  0
LAYER
  2
RED3
  70
0
  62
11
  6
CONTINUOUS
  0
LAYER
  2
MAGENTA3
  70
0
  62
221
  6
CONTINUOUS
  0
LAYER
  2
YELLOW3
  70
0
  62
2
  6
CONTINUOUS
  0
LAYER
  2
BLUE4
  70
0
  62
5
  6
CONTINUOUS
  0
LAYER
  2
GREEN4
  70
0
  62
3
  6
CONTINUOUS
  0
LAYER
  2
CYAN4
  70
0
  62
4
  6
CONTINUOUS
  0
LAYER
  2
RED4
  70
0
  62
1
  6
CONTINUOUS
  0
LAYER
  2
MAGENTA4
  70
0
  62
6
  6
CONTINUOUS
  0
LAYER
  2
YELLOW4
  70
0
  62
2
  6
CONTINUOUS
  0
ENDTAB
  0
ENDSEC
  0
SECTION
  2
ENTITIES
0
LINE
8
Black
10
146
20
-65.05
11
211
21
-65.05
0
LINE
8
Black
10
146
20
-64.95
11
211
21
-64.95
0
ARC
8
Black
10
211
20
-65
40
0.05
50
270
51
450
0
ARC
8
Black
10
146
20
-65
40
0.05
50
90
51
270
0
LINE
8
Black
10
217.05
20
-154
11
217.05
21
-71
0
LINE
8
Black
10
216.95
20
-154
11
216.95
21
-71
0
ARC
8
Black
10
217
20
-71
40
0.05
50
360
51
540
0
ARC
8
Black
10
217
20
-154
40
0.05
50
180
51
360
0
LINE
8
Black
10
146
20
-160.05
11
211
21
-160.05
0
LINE
8
Black
10
146
20
-159.95
11
211
21
-159.95
0
ARC
8
Black
10
211
20
-160
40
0.05
50
270
51
450
0
ARC
8
Black
10
146
20
-160
40
0.05
50
90
51
270
0
LINE
8
Black
10
140.05
20
-154
11
140.05
21
-71
0
LINE
8
Black
10
139.95
20
-154
11
139.95
21
-71
0
ARC
8
Black
10
140
20
-71
40
0.05
50
360
51
540
0
ARC
8
Black
10
140
20
-154
40
0.05
50
180
51
360
0
ARC
8
Black
10
146
20
-154
40
6
50
-180
51
-90
0
ARC
8
Black
10
211
20
-154
40
6
50
-90
51
-0
0
ARC
8
Black
10
211
20
-71
40
6
50
-0
51
90
0
ARC
8
Black
10
146
20
-71
40
6
50
90
51
180
0
LINE
8
Black
10
181.245
20
-156.029
11
181.88
21
-156.664
0
LINE
8
Black
10
181.88
20
-156.029
11
181.245
21
-156.664
0
LINE
8
Black
10
184.293
20
-144.599
11
184.928
21
-145.234
0
LINE
8
Black
10
184.928
20
-144.599
11
184.293
21
-145.234
0
LINE
8
Black
10
187.087
20
-119.58
11
187.722
21
-120.215
0
LINE
8
Black
10
187.722
20
-119.58
11
187.087
21
-120.215
0
LINE
8
Black
10
187.849
20
-116.913
11
188.484
21
-117.548
0
LINE
8
Black
10
188.484
20
-116.913
11
187.849
21
-117.548
0
LINE
8
Black
10
191.278
20
-122.374
11
191.913
21
-123.009
0
LINE
8
Black
10
191.913
20
-122.374
11
191.278
21
-123.009
0
LINE
8
Black
10
193.945
20
-122.247
11
194.58
21
-122.882
0
LINE
8
Black
10
194.58
20
-122.247
11
193.945
21
-122.882
0
LINE
8
Black
10
194.453
20
-117.929
11
195.088
21
-118.564
0
LINE
8
Black
10
195.088
20
-117.929
11
194.453
21
-118.564
0
LINE
8
Black
10
199.787
20
-131.391
11
200.422
21
-132.026
0
LINE
8
Black
10
200.422
20
-131.391
11
199.787
21
-132.026
0
CIRCLE
8
Black
10
188.293
20
-148.345
40
0.4
0
CIRCLE
8
Black
10
188.293
20
-150.885
40
0.4
0
CIRCLE
8
Black
10
188.293
20
-153.425
40
0.4
0
CIRCLE
8
Black
10
188.293
20
-155.965
40
0.4
0
CIRCLE
8
Black
10
188.881
20
-143.646
40
0.4
0
CIRCLE
8
Black
10
189.69
20
-88.02
40
0.4
0
CIRCLE
8
Black
10
189.69
20
-90.56
40
0.4
0
CIRCLE
8
Black
10
189.69
20
-93.1
40
0.4
0
CIRCLE
8
Black
10
189.69
20
-95.64
40
0.4
0
CIRCLE
8
Black
10
189.69
20
-98.18
40
0.4
0
CIRCLE
8
Black
10
189.69
20
-100.72
40
0.4
0
CIRCLE
8
Black
10
189.69
20
-103.26
40
0.4
0
CIRCLE
8
Black
10
189.69
20
-105.8
40
0.4
0
CIRCLE
8
Black
10
189.69
20
-108.34
40
0.4
0
CIRCLE
8
Black
10
189.69
20
-110.88
40
0.4
0
CIRCLE
8
Black
10
189.69
20
-113.42
40
0.4
0
CIRCLE
8
Black
10
189.69
20
-115.96
40
0.4
0
CIRCLE
8
Black
10
189.69
20
-118.5
40
0.4
0
CIRCLE
8
Black
10
189.69
20
-121.04
40
0.4
0
CIRCLE
8
Black
10
191.04
20
-125.104
40
0.4
0
CIRCLE
8
Black
10
193.881
20
-143.646
40
0.4
0
CIRCLE
8
Black
10
195.278
20
-80.146
40
0.4
0
CIRCLE
8
Black
10
195.913
20
-148.345
40
0.4
0
CIRCLE
8
Black
10
195.913
20
-150.885
40
0.4
0
CIRCLE
8
Black
10
195.913
20
-153.425
40
0.4
0
CIRCLE
8
Black
10
195.913
20
-155.965
40
0.4
0
CIRCLE
8
Black
10
196.04
20
-125.104
40
0.4
0
CIRCLE
8
Black
10
197.31
20
-88.02
40
0.4
0
CIRCLE
8
Black
10
197.31
20
-90.56
40
0.4
0
CIRCLE
8
Black
10
197.31
20
-93.1
40
0.4
0
CIRCLE
8
Black
10
197.31
20
-95.64
40
0.4
0
CIRCLE
8
Black
10
197.31
20
-98.18
40
0.4
0
CIRCLE
8
Black
10
197.31
20
-100.72
40
0.4
0
CIRCLE
8
Black
10
197.31
20
-103.26
40
0.4
0
CIRCLE
8
Black
10
197.31
20
-105.8
40
0.4
0
CIRCLE
8
Black
10
197.31
20
-108.34
40
0.4
0
CIRCLE
8
Black
10
197.31
20
-110.88
40
0.4
0
CIRCLE
8
Black
10
197.31
20
-113.42
40
0.4
0
CIRCLE
8
Black
10
197.31
20
-115.96
40
0.4
0
CIRCLE
8
Black
10
197.31
20
-118.5
40
0.4
0
CIRCLE
8
Black
10
197.31
20
-121.04
40
0.4
0
CIRCLE
8
Black
10
197.778
20
-80.146
40
0.4
0
LINE
8
Black
10
160.734
20
-143.908
11
160.734
21
-144.908
0
LINE
8
Black
10
160.234
20
-144.408
11
161.234
21
-144.408
0
LINE
8
Black
10
160.734
20
-154.068
11
160.734
21
-155.068
0
LINE
8
Black
10
160.234
20
-154.568
11
161.234
21
-154.568
0
LINE
8
Black
10
163.782
20
-143.908
11
163.782
21
-144.908
0
LINE
8
Black
10
163.282
20
-144.408
11
164.282
21
-144.408
0
LINE
8
Black
10
163.782
20
-154.068
11
163.782
21
-155.068
0
LINE
8
Black
10
163.282
20
-154.568
11
164.282
21
-154.568
0
LINE
8
Black
10
166.83
20
-143.908
11
166.83
21
-144.908
0
LINE
8
Black
10
166.33
20
-144.408
11
167.33
21
-144.408
0
LINE
8
Black
10
166.83
20
-154.068
11
166.83
21
-155.068
0
LINE
8
Black
10
166.33
20
-154.568
11
167.33
21
-154.568
0
LINE
8
Black
10
169.878
20
-143.908
11
169.878
21
-144.908
0
LINE
8
Black
10
169.378
20
-144.408
11
170.378
21
-144.408
0
LINE
8
Black
10
169.878
20
-154.068
11
169.878
21
-155.068
0
LINE
8
Black
10
169.378
20
-154.568
11
170.378
21
-154.568
0
LINE
8
Black
10
172.926
20
-143.908
11
172.926
21
-144.908
0
LINE
8
Black
10
172.426
20
-144.408
11
173.426
21
-144.408
0
LINE
8
Black
10
172.926
20
-154.068
11
172.926
21
-155.068
0
LINE
8
Black
10
172.426
20
-154.568
11
173.426
21
-154.568
0
LINE
8
Black
10
186.642
20
-135.018
11
186.642
21
-136.018
0
LINE
8
Black
10
186.142
20
-135.518
11
187.142
21
-135.518
0
LINE
8
Black
10
186.642
20
-138.574
11
186.642
21
-139.574
0
LINE
8
Black
10
186.142
20
-139.074
11
187.142
21
-139.074
0
LINE
8
Black
10
196.802
20
-135.018
11
196.802
21
-136.018
0
LINE
8
Black
10
196.302
20
-135.518
11
197.302
21
-135.518
0
LINE
8
Black
10
196.802
20
-138.574
11
196.802
21
-139.574
0
LINE
8
Black
10
196.302
20
-139.074
11
197.302
21
-139.074
0
LINE
8
Black
10
201
20
-95.3396
11
201
21
-96.3404
0
LINE
8
Black
10
200.5
20
-95.84
11
201.5
21
-95.84
0
LINE
8
Black
10
201
20
-105.5
11
201
21
-106.5
0
LINE
8
Black
10
200.5
20
-106
11
201.5
21
-106
0
LINE
8
Black
10
145.599
20
-97.2692
11
145.599
21
-96.5508
0
LINE
8
Black
10
145.599
20
-96.5508
11
144.881
21
-96.5508
0
LINE
8
Black
10
144.881
20
-96.5508
11
144.881
21
-97.2692
0
LINE
8
Black
10
144.881
20
-97.2692
11
145.599
21
-97.2692
0
LINE
8
Black
10
145.599
20
-100.063
11
145.599
21
-99.3448
0
LINE
8
Black
10
145.599
20
-99.3448
11
144.881
21
-99.3448
0
LINE
8
Black
10
144.881
20
-99.3448
11
144.881
21
-100.063
0
LINE
8
Black
10
144.881
20
-100.063
11
145.599
21
-100.063
0
LINE
8
Black
10
145.599
20
-102.806
11
145.599
21
-102.088
0
LINE
8
Black
10
145.599
20
-102.088
11
144.881
21
-102.088
0
LINE
8
Black
10
144.881
20
-102.088
11
144.881
21
-102.806
0
LINE
8
Black
10
144.881
20
-102.806
11
145.599
21
-102.806
0
LINE
8
Black
10
145.599
20
-105.499
11
145.599
21
-104.78
0
LINE
8
Black
10
145.599
20
-104.78
11
144.881
21
-104.78
0
LINE
8
Black
10
144.881
20
-104.78
11
144.881
21
-105.499
0
LINE
8
Black
10
144.881
20
-105.499
11
145.599
21
-105.499
0
LINE
8
Black
10
145.599
20
-108.344
11
145.599
21
-107.625
0
LINE
8
Black
10
145.599
20
-107.625
11
144.881
21
-107.625
0
LINE
8
Black
10
144.881
20
-107.625
11
144.881
21
-108.344
0
LINE
8
Black
10
144.881
20
-108.344
11
145.599
21
-108.344
0
LINE
8
Black
10
145.599
20
-111.087
11
145.599
21
-110.368
0
LINE
8
Black
10
145.599
20
-110.368
11
144.881
21
-110.368
0
LINE
8
Black
10
144.881
20
-110.368
11
144.881
21
-111.087
0
LINE
8
Black
10
144.881
20
-111.087
11
145.599
21
-111.087
0
LINE
8
Black
10
145.599
20
-113.83
11
145.599
21
-113.112
0
LINE
8
Black
10
145.599
20
-113.112
11
144.881
21
-113.112
0
LINE
8
Black
10
144.881
20
-113.112
11
144.881
21
-113.83
0
LINE
8
Black
10
144.881
20
-113.83
11
145.599
21
-113.83
0
LINE
8
Black
10
145.599
20
-116.624
11
145.599
21
-115.906
0
LINE
8
Black
10
145.599
20
-115.906
11
144.881
21
-115.906
0
LINE
8
Black
10
144.881
20
-115.906
11
144.881
21
-116.624
0
LINE
8
Black
10
144.881
20
-116.624
11
145.599
21
-116.624
0
LINE
8
Black
10
145.599
20
-119.367
11
145.599
21
-118.649
0
LINE
8
Black
10
145.599
20
-118.649
11
144.881
21
-118.649
0
LINE
8
Black
10
144.881
20
-118.649
11
144.881
21
-119.367
0
LINE
8
Black
10
144.881
20
-119.367
11
145.599
21
-119.367
0
LINE
8
Black
10
145.599
20
-122.11
11
145.599
21
-121.392
0
LINE
8
Black
10
145.599
20
-121.392
11
144.881
21
-121.392
0
LINE
8
Black
10
144.881
20
-121.392
11
144.881
21
-122.11
0
LINE
8
Black
10
144.881
20
-122.11
11
145.599
21
-122.11
0
LINE
8
Black
10
145.599
20
-124.904
11
145.599
21
-124.186
0
LINE
8
Black
10
145.599
20
-124.186
11
144.881
21
-124.186
0
LINE
8
Black
10
144.881
20
-124.186
11
144.881
21
-124.904
0
LINE
8
Black
10
144.881
20
-124.904
11
145.599
21
-124.904
0
LINE
8
Black
10
145.599
20
-127.444
11
145.599
21
-126.726
0
LINE
8
Black
10
145.599
20
-126.726
11
144.881
21
-126.726
0
LINE
8
Black
10
144.881
20
-126.726
11
144.881
21
-127.444
0
LINE
8
Black
10
144.881
20
-127.444
11
145.599
21
-127.444
0
LINE
8
Black
10
148.139
20
-95.8722
11
148.139
21
-95.1538
0
LINE
8
Black
10
148.139
20
-95.1538
11
147.421
21
-95.1538
0
LINE
8
Black
10
147.421
20
-95.1538
11
147.421
21
-95.8722
0
LINE
8
Black
10
147.421
20
-95.8722
11
148.139
21
-95.8722
0
LINE
8
Black
10
148.139
20
-98.6662
11
148.139
21
-97.9478
0
LINE
8
Black
10
148.139
20
-97.9478
11
147.421
21
-97.9478
0
LINE
8
Black
10
147.421
20
-97.9478
11
147.421
21
-98.6662
0
LINE
8
Black
10
147.421
20
-98.6662
11
148.139
21
-98.6662
0
LINE
8
Black
10
148.139
20
-101.46
11
148.139
21
-100.742
0
LINE
8
Black
10
148.139
20
-100.742
11
147.421
21
-100.742
0
LINE
8
Black
10
147.421
20
-100.742
11
147.421
21
-101.46
0
LINE
8
Black
10
147.421
20
-101.46
11
148.139
21
-101.46
0
LINE
8
Black
10
148.139
20
-104.127
11
148.139
21
-103.409
0
LINE
8
Black
10
148.139
20
-103.409
11
147.421
21
-103.409
0
LINE
8
Black
10
147.421
20
-103.409
11
147.421
21
-104.127
0
LINE
8
Black
10
147.421
20
-104.127
11
148.139
21
-104.127
0
LINE
8
Black
10
148.139
20
-106.921
11
148.139
21
-106.203
0
LINE
8
Black
10
148.139
20
-106.203
11
147.421
21
-106.203
0
LINE
8
Black
10
147.421
20
-106.203
11
147.421
21
-106.921
0
LINE
8
Black
10
147.421
20
-106.921
11
148.139
21
-106.921
0
LINE
8
Black
10
148.139
20
-109.715
11
148.139
21
-108.997
0
LINE
8
Black
10
148.139
20
-108.997
11
147.421
21
-108.997
0
LINE
8
Black
10
147.421
20
-108.997
11
147.421
21
-109.715
0
LINE
8
Black
10
147.421
20
-109.715
11
148.139
21
-109.715
0
LINE
8
Black
10
148.139
20
-112.509
11
148.139
21
-111.791
0
LINE
8
Black
10
148.139
20
-111.791
11
147.421
21
-111.791
0
LINE
8
Black
10
147.421
20
-111.791
11
147.421
21
-112.509
0
LINE
8
Black
10
147.421
20
-112.509
11
148.139
21
-112.509
0
LINE
8
Black
10
148.139
20
-115.176
11
148.139
21
-114.458
0
LINE
8
Black
10
148.139
20
-114.458
11
147.421
21
-114.458
0
LINE
8
Black
10
147.421
20
-114.458
11
147.421
21
-115.176
0
LINE
8
Black
10
147.421
20
-115.176
11
148.139
21
-115.176
0
LINE
8
Black
10
148.139
20
-117.97
11
148.139
21
-117.252
0
LINE
8
Black
10
148.139
20
-117.252
11
147.421
21
-117.252
0
LINE
8
Black
10
147.421
20
-117.252
11
147.421
21
-117.97
0
LINE
8
Black
10
147.421
20
-117.97
11
148.139
21
-117.97
0
LINE
8
Black
10
148.139
20
-120.764
11
148.139
21
-120.046
0
LINE
8
Black
10
148.139
20
-120.046
11
147.421
21
-120.046
0
LINE
8
Black
10
147.421
20
-120.046
11
147.421
21
-120.764
0
LINE
8
Black
10
147.421
20
-120.764
11
148.139
21
-120.764
0
LINE
8
Black
10
148.139
20
-123.558
11
148.139
21
-122.84
0
LINE
8
Black
10
148.139
20
-122.84
11
147.421
21
-122.84
0
LINE
8
Black
10
147.421
20
-122.84
11
147.421
21
-123.558
0
LINE
8
Black
10
147.421
20
-123.558
11
148.139
21
-123.558
0
LINE
8
Black
10
148.139
20
-126.225
11
148.139
21
-125.507
0
LINE
8
Black
10
148.139
20
-125.507
11
147.421
21
-125.507
0
LINE
8
Black
10
147.421
20
-125.507
11
147.421
21
-126.225
0
LINE
8
Black
10
147.421
20
-126.225
11
148.139
21
-126.225
0
LINE
8
Black
10
148.139
20
-129.019
11
148.139
21
-128.301
0
LINE
8
Black
10
148.139
20
-128.301
11
147.421
21
-128.301
0
LINE
8
Black
10
147.421
20
-128.301
11
147.421
21
-129.019
0
LINE
8
Black
10
147.421
20
-129.019
11
148.139
21
-129.019
0
LINE
8
Black
10
154.997
20
-72.1232
11
154.997
21
-71.4048
0
LINE
8
Black
10
154.997
20
-71.4048
11
154.279
21
-71.4048
0
LINE
8
Black
10
154.279
20
-71.4048
11
154.279
21
-72.1232
0
LINE
8
Black
10
154.279
20
-72.1232
11
154.997
21
-72.1232
0
LINE
8
Black
10
154.997
20
-74.6632
11
154.997
21
-73.9448
0
LINE
8
Black
10
154.997
20
-73.9448
11
154.279
21
-73.9448
0
LINE
8
Black
10
154.279
20
-73.9448
11
154.279
21
-74.6632
0
LINE
8
Black
10
154.279
20
-74.6632
11
154.997
21
-74.6632
0
LINE
8
Black
10
157.029
20
-85.8392
11
157.029
21
-85.1208
0
LINE
8
Black
10
157.029
20
-85.1208
11
156.311
21
-85.1208
0
LINE
8
Black
10
156.311
20
-85.1208
11
156.311
21
-85.8392
0
LINE
8
Black
10
156.311
20
-85.8392
11
157.029
21
-85.8392
0
LINE
8
Black
10
157.029
20
-88.3792
11
157.029
21
-87.6608
0
LINE
8
Black
10
157.029
20
-87.6608
11
156.311
21
-87.6608
0
LINE
8
Black
10
156.311
20
-87.6608
11
156.311
21
-88.3792
0
LINE
8
Black
10
156.311
20
-88.3792
11
157.029
21
-88.3792
0
LINE
8
Black
10
157.029
20
-90.9192
11
157.029
21
-90.2008
0
LINE
8
Black
10
157.029
20
-90.2008
11
156.311
21
-90.2008
0
LINE
8
Black
10
156.311
20
-90.2008
11
156.311
21
-90.9192
0
LINE
8
Black
10
156.311
20
-90.9192
11
157.029
21
-90.9192
0
LINE
8
Black
10
157.029
20
-93.4592
11
157.029
21
-92.7408
0
LINE
8
Black
10
157.029
20
-92.7408
11
156.311
21
-92.7408
0
LINE
8
Black
10
156.311
20
-92.7408
11
156.311
21
-93.4592
0
LINE
8
Black
10
156.311
20
-93.4592
11
157.029
21
-93.4592
0
LINE
8
Black
10
157.029
20
-95.9992
11
157.029
21
-95.2808
0
LINE
8
Black
10
157.029
20
-95.2808
11
156.311
21
-95.2808
0
LINE
8
Black
10
156.311
20
-95.2808
11
156.311
21
-95.9992
0
LINE
8
Black
10
156.311
20
-95.9992
11
157.029
21
-95.9992
0
LINE
8
Black
10
157.029
20
-98.5392
11
157.029
21
-97.8208
0
LINE
8
Black
10
157.029
20
-97.8208
11
156.311
21
-97.8208
0
LINE
8
Black
10
156.311
20
-97.8208
11
156.311
21
-98.5392
0
LINE
8
Black
10
156.311
20
-98.5392
11
157.029
21
-98.5392
0
LINE
8
Black
10
157.029
20
-101.079
11
157.029
21
-100.361
0
LINE
8
Black
10
157.029
20
-100.361
11
156.311
21
-100.361
0
LINE
8
Black
10
156.311
20
-100.361
11
156.311
21
-101.079
0
LINE
8
Black
10
156.311
20
-101.079
11
157.029
21
-101.079
0
LINE
8
Black
10
157.029
20
-103.619
11
157.029
21
-102.901
0
LINE
8
Black
10
157.029
20
-102.901
11
156.311
21
-102.901
0
LINE
8
Black
10
156.311
20
-102.901
11
156.311
21
-103.619
0
LINE
8
Black
10
156.311
20
-103.619
11
157.029
21
-103.619
0
LINE
8
Black
10
157.029
20
-106.159
11
157.029
21
-105.441
0
LINE
8
Black
10
157.029
20
-105.441
11
156.311
21
-105.441
0
LINE
8
Black
10
156.311
20
-105.441
11
156.311
21
-106.159
0
LINE
8
Black
10
156.311
20
-106.159
11
157.029
21
-106.159
0
LINE
8
Black
10
157.029
20
-108.699
11
157.029
21
-107.981
0
LINE
8
Black
10
157.029
20
-107.981
11
156.311
21
-107.981
0
LINE
8
Black
10
156.311
20
-107.981
11
156.311
21
-108.699
0
LINE
8
Black
10
156.311
20
-108.699
11
157.029
21
-108.699
0
LINE
8
Black
10
157.029
20
-111.239
11
157.029
21
-110.521
0
LINE
8
Black
10
157.029
20
-110.521
11
156.311
21
-110.521
0
LINE
8
Black
10
156.311
20
-110.521
11
156.311
21
-111.239
0
LINE
8
Black
10
156.311
20
-111.239
11
157.029
21
-111.239
0
LINE
8
Black
10
157.029
20
-113.779
11
157.029
21
-113.061
0
LINE
8
Black
10
157.029
20
-113.061
11
156.311
21
-113.061
0
LINE
8
Black
10
156.311
20
-113.061
11
156.311
21
-113.779
0
LINE
8
Black
10
156.311
20
-113.779
11
157.029
21
-113.779
0
LINE
8
Black
10
157.029
20
-116.319
11
157.029
21
-115.601
0
LINE
8
Black
10
157.029
20
-115.601
11
156.311
21
-115.601
0
LINE
8
Black
10
156.311
20
-115.601
11
156.311
21
-116.319
0
LINE
8
Black
10
156.311
20
-116.319
11
157.029
21
-116.319
0
LINE
8
Black
10
157.029
20
-118.859
11
157.029
21
-118.141
0
LINE
8
Black
10
157.029
20
-118.141
11
156.311
21
-118.141
0
LINE
8
Black
10
156.311
20
-118.141
11
156.311
21
-118.859
0
LINE
8
Black
10
156.311
20
-118.859
11
157.029
21
-118.859
0
LINE
8
Black
10
157.029
20
-121.399
11
157.029
21
-120.681
0
LINE
8
Black
10
157.029
20
-120.681
11
156.311
21
-120.681
0
LINE
8
Black
10
156.311
20
-120.681
11
156.311
21
-121.399
0
LINE
8
Black
10
156.311
20
-121.399
11
157.029
21
-121.399
0
LINE
8
Black
10
157.029
20
-123.939
11
157.029
21
-123.221
0
LINE
8
Black
10
157.029
20
-123.221
11
156.311
21
-123.221
0
LINE
8
Black
10
156.311
20
-123.221
11
156.311
21
-123.939
0
LINE
8
Black
10
156.311
20
-123.939
11
157.029
21
-123.939
0
LINE
8
Black
10
157.029
20
-126.479
11
157.029
21
-125.761
0
LINE
8
Black
10
157.029
20
-125.761
11
156.311
21
-125.761
0
LINE
8
Black
10
156.311
20
-125.761
11
156.311
21
-126.479
0
LINE
8
Black
10
156.311
20
-126.479
11
157.029
21
-126.479
0
LINE
8
Black
10
157.029
20
-129.019
11
157.029
21
-128.301
0
LINE
8
Black
10
157.029
20
-128.301
11
156.311
21
-128.301
0
LINE
8
Black
10
156.311
20
-128.301
11
156.311
21
-129.019
0
LINE
8
Black
10
156.311
20
-129.019
11
157.029
21
-129.019
0
LINE
8
Black
10
157.029
20
-131.559
11
157.029
21
-130.841
0
LINE
8
Black
10
157.029
20
-130.841
11
156.311
21
-130.841
0
LINE
8
Black
10
156.311
20
-130.841
11
156.311
21
-131.559
0
LINE
8
Black
10
156.311
20
-131.559
11
157.029
21
-131.559
0
LINE
8
Black
10
157.029
20
-134.099
11
157.029
21
-133.381
0
LINE
8
Black
10
157.029
20
-133.381
11
156.311
21
-133.381
0
LINE
8
Black
10
156.311
20
-133.381
11
156.311
21
-134.099
0
LINE
8
Black
10
156.311
20
-134.099
11
157.029
21
-134.099
0
LINE
8
Black
10
159.569
20
-85.8392
11
159.569
21
-85.1208
0
LINE
8
Black
10
159.569
20
-85.1208
11
158.851
21
-85.1208
0
LINE
8
Black
10
158.851
20
-85.1208
11
158.851
21
-85.8392
0
LINE
8
Black
10
158.851
20
-85.8392
11
159.569
21
-85.8392
0
LINE
8
Black
10
159.569
20
-88.3792
11
159.569
21
-87.6608
0
LINE
8
Black
10
159.569
20
-87.6608
11
158.851
21
-87.6608
0
LINE
8
Black
10
158.851
20
-87.6608
11
158.851
21
-88.3792
0
LINE
8
Black
10
158.851
20
-88.3792
11
159.569
21
-88.3792
0
LINE
8
Black
10
159.569
20
-90.9192
11
159.569
21
-90.2008
0
LINE
8
Black
10
159.569
20
-90.2008
11
158.851
21
-90.2008
0
LINE
8
Black
10
158.851
20
-90.2008
11
158.851
21
-90.9192
0
LINE
8
Black
10
158.851
20
-90.9192
11
159.569
21
-90.9192
0
LINE
8
Black
10
159.569
20
-93.4592
11
159.569
21
-92.7408
0
LINE
8
Black
10
159.569
20
-92.7408
11
158.851
21
-92.7408
0
LINE
8
Black
10
158.851
20
-92.7408
11
158.851
21
-93.4592
0
LINE
8
Black
10
158.851
20
-93.4592
11
159.569
21
-93.4592
0
LINE
8
Black
10
159.569
20
-95.9992
11
159.569
21
-95.2808
0
LINE
8
Black
10
159.569
20
-95.2808
11
158.851
21
-95.2808
0
LINE
8
Black
10
158.851
20
-95.2808
11
158.851
21
-95.9992
0
LINE
8
Black
10
158.851
20
-95.9992
11
159.569
21
-95.9992
0
LINE
8
Black
10
159.569
20
-98.5392
11
159.569
21
-97.8208
0
LINE
8
Black
10
159.569
20
-97.8208
11
158.851
21
-97.8208
0
LINE
8
Black
10
158.851
20
-97.8208
11
158.851
21
-98.5392
0
LINE
8
Black
10
158.851
20
-98.5392
11
159.569
21
-98.5392
0
LINE
8
Black
10
159.569
20
-101.079
11
159.569
21
-100.361
0
LINE
8
Black
10
159.569
20
-100.361
11
158.851
21
-100.361
0
LINE
8
Black
10
158.851
20
-100.361
11
158.851
21
-101.079
0
LINE
8
Black
10
158.851
20
-101.079
11
159.569
21
-101.079
0
LINE
8
Black
10
159.569
20
-103.619
11
159.569
21
-102.901
0
LINE
8
Black
10
159.569
20
-102.901
11
158.851
21
-102.901
0
LINE
8
Black
10
158.851
20
-102.901
11
158.851
21
-103.619
0
LINE
8
Black
10
158.851
20
-103.619
11
159.569
21
-103.619
0
LINE
8
Black
10
159.569
20
-106.159
11
159.569
21
-105.441
0
LINE
8
Black
10
159.569
20
-105.441
11
158.851
21
-105.441
0
LINE
8
Black
10
158.851
20
-105.441
11
158.851
21
-106.159
0
LINE
8
Black
10
158.851
20
-106.159
11
159.569
21
-106.159
0
LINE
8
Black
10
159.569
20
-108.699
11
159.569
21
-107.981
0
LINE
8
Black
10
159.569
20
-107.981
11
158.851
21
-107.981
0
LINE
8
Black
10
158.851
20
-107.981
11
158.851
21
-108.699
0
LINE
8
Black
10
158.851
20
-108.699
11
159.569
21
-108.699
0
LINE
8
Black
10
159.569
20
-111.239
11
159.569
21
-110.521
0
LINE
8
Black
10
159.569
20
-110.521
11
158.851
21
-110.521
0
LINE
8
Black
10
158.851
20
-110.521
11
158.851
21
-111.239
0
LINE
8
Black
10
158.851
20
-111.239
11
159.569
21
-111.239
0
LINE
8
Black
10
159.569
20
-113.779
11
159.569
21
-113.061
0
LINE
8
Black
10
159.569
20
-113.061
11
158.851
21
-113.061
0
LINE
8
Black
10
158.851
20
-113.061
11
158.851
21
-113.779
0
LINE
8
Black
10
158.851
20
-113.779
11
159.569
21
-113.779
0
LINE
8
Black
10
159.569
20
-116.319
11
159.569
21
-115.601
0
LINE
8
Black
10
159.569
20
-115.601
11
158.851
21
-115.601
0
LINE
8
Black
10
158.851
20
-115.601
11
158.851
21
-116.319
0
LINE
8
Black
10
158.851
20
-116.319
11
159.569
21
-116.319
0
LINE
8
Black
10
159.569
20
-118.859
11
159.569
21
-118.141
0
LINE
8
Black
10
159.569
20
-118.141
11
158.851
21
-118.141
0
LINE
8
Black
10
158.851
20
-118.141
11
158.851
21
-118.859
0
LINE
8
Black
10
158.851
20
-118.859
11
159.569
21
-118.859
0
LINE
8
Black
10
159.569
20
-121.399
11
159.569
21
-120.681
0
LINE
8
Black
10
159.569
20
-120.681
11
158.851
21
-120.681
0
LINE
8
Black
10
158.851
20
-120.681
11
158.851
21
-121.399
0
LINE
8
Black
10
158.851
20
-121.399
11
159.569
21
-121.399
0
LINE
8
Black
10
159.569
20
-123.939
11
159.569
21
-123.221
0
LINE
8
Black
10
159.569
20
-123.221
11
158.851
21
-123.221
0
LINE
8
Black
10
158.851
20
-123.221
11
158.851
21
-123.939
0
LINE
8
Black
10
158.851
20
-123.939
11
159.569
21
-123.939
0
LINE
8
Black
10
159.569
20
-126.479
11
159.569
21
-125.761
0
LINE
8
Black
10
159.569
20
-125.761
11
158.851
21
-125.761
0
LINE
8
Black
10
158.851
20
-125.761
11
158.851
21
-126.479
0
LINE
8
Black
10
158.851
20
-126.479
11
159.569
21
-126.479
0
LINE
8
Black
10
159.569
20
-129.019
11
159.569
21
-128.301
0
LINE
8
Black
10
159.569
20
-128.301
11
158.851
21
-128.301
0
LINE
8
Black
10
158.851
20
-128.301
11
158.851
21
-129.019
0
LINE
8
Black
10
158.851
20
-129.019
11
159.569
21
-129.019
0
LINE
8
Black
10
159.569
20
-131.559
11
159.569
21
-130.841
0
LINE
8
Black
10
159.569
20
-130.841
11
158.851
21
-130.841
0
LINE
8
Black
10
158.851
20
-130.841
11
158.851
21
-131.559
0
LINE
8
Black
10
158.851
20
-131.559
11
159.569
21
-131.559
0
LINE
8
Black
10
159.569
20
-134.099
11
159.569
21
-133.381
0
LINE
8
Black
10
159.569
20
-133.381
11
158.851
21
-133.381
0
LINE
8
Black
10
158.851
20
-133.381
11
158.851
21
-134.099
0
LINE
8
Black
10
158.851
20
-134.099
11
159.569
21
-134.099
0
LINE
8
Black
10
162.109
20
-85.8392
11
162.109
21
-85.1208
0
LINE
8
Black
10
162.109
20
-85.1208
11
161.391
21
-85.1208
0
LINE
8
Black
10
161.391
20
-85.1208
11
161.391
21
-85.8392
0
LINE
8
Black
10
161.391
20
-85.8392
11
162.109
21
-85.8392
0
LINE
8
Black
10
162.109
20
-88.3792
11
162.109
21
-87.6608
0
LINE
8
Black
10
162.109
20
-87.6608
11
161.391
21
-87.6608
0
LINE
8
Black
10
161.391
20
-87.6608
11
161.391
21
-88.3792
0
LINE
8
Black
10
161.391
20
-88.3792
11
162.109
21
-88.3792
0
LINE
8
Black
10
162.109
20
-90.9192
11
162.109
21
-90.2008
0
LINE
8
Black
10
162.109
20
-90.2008
11
161.391
21
-90.2008
0
LINE
8
Black
10
161.391
20
-90.2008
11
161.391
21
-90.9192
0
LINE
8
Black
10
161.391
20
-90.9192
11
162.109
21
-90.9192
0
LINE
8
Black
10
162.109
20
-93.4592
11
162.109
21
-92.7408
0
LINE
8
Black
10
162.109
20
-92.7408
11
161.391
21
-92.7408
0
LINE
8
Black
10
161.391
20
-92.7408
11
161.391
21
-93.4592
0
LINE
8
Black
10
161.391
20
-93.4592
11
162.109
21
-93.4592
0
LINE
8
Black
10
162.109
20
-95.9992
11
162.109
21
-95.2808
0
LINE
8
Black
10
162.109
20
-95.2808
11
161.391
21
-95.2808
0
LINE
8
Black
10
161.391
20
-95.2808
11
161.391
21
-95.9992
0
LINE
8
Black
10
161.391
20
-95.9992
11
162.109
21
-95.9992
0
LINE
8
Black
10
162.109
20
-98.5392
11
162.109
21
-97.8208
0
LINE
8
Black
10
162.109
20
-97.8208
11
161.391
21
-97.8208
0
LINE
8
Black
10
161.391
20
-97.8208
11
161.391
21
-98.5392
0
LINE
8
Black
10
161.391
20
-98.5392
11
162.109
21
-98.5392
0
LINE
8
Black
10
162.109
20
-101.079
11
162.109
21
-100.361
0
LINE
8
Black
10
162.109
20
-100.361
11
161.391
21
-100.361
0
LINE
8
Black
10
161.391
20
-100.361
11
161.391
21
-101.079
0
LINE
8
Black
10
161.391
20
-101.079
11
162.109
21
-101.079
0
LINE
8
Black
10
162.109
20
-103.619
11
162.109
21
-102.901
0
LINE
8
Black
10
162.109
20
-102.901
11
161.391
21
-102.901
0
LINE
8
Black
10
161.391
20
-102.901
11
161.391
21
-103.619
0
LINE
8
Black
10
161.391
20
-103.619
11
162.109
21
-103.619
0
LINE
8
Black
10
162.109
20
-106.159
11
162.109
21
-105.441
0
LINE
8
Black
10
162.109
20
-105.441
11
161.391
21
-105.441
0
LINE
8
Black
10
161.391
20
-105.441
11
161.391
21
-106.159
0
LINE
8
Black
10
161.391
20
-106.159
11
162.109
21
-106.159
0
LINE
8
Black
10
162.109
20
-108.699
11
162.109
21
-107.981
0
LINE
8
Black
10
162.109
20
-107.981
11
161.391
21
-107.981
0
LINE
8
Black
10
161.391
20
-107.981
11
161.391
21
-108.699
0
LINE
8
Black
10
161.391
20
-108.699
11
162.109
21
-108.699
0
LINE
8
Black
10
162.109
20
-111.239
11
162.109
21
-110.521
0
LINE
8
Black
10
162.109
20
-110.521
11
161.391
21
-110.521
0
LINE
8
Black
10
161.391
20
-110.521
11
161.391
21
-111.239
0
LINE
8
Black
10
161.391
20
-111.239
11
162.109
21
-111.239
0
LINE
8
Black
10
162.109
20
-113.779
11
162.109
21
-113.061
0
LINE
8
Black
10
162.109
20
-113.061
11
161.391
21
-113.061
0
LINE
8
Black
10
161.391
20
-113.061
11
161.391
21
-113.779
0
LINE
8
Black
10
161.391
20
-113.779
11
162.109
21
-113.779
0
LINE
8
Black
10
162.109
20
-116.319
11
162.109
21
-115.601
0
LINE
8
Black
10
162.109
20
-115.601
11
161.391
21
-115.601
0
LINE
8
Black
10
161.391
20
-115.601
11
161.391
21
-116.319
0
LINE
8
Black
10
161.391
20
-116.319
11
162.109
21
-116.319
0
LINE
8
Black
10
162.109
20
-118.859
11
162.109
21
-118.141
0
LINE
8
Black
10
162.109
20
-118.141
11
161.391
21
-118.141
0
LINE
8
Black
10
161.391
20
-118.141
11
161.391
21
-118.859
0
LINE
8
Black
10
161.391
20
-118.859
11
162.109
21
-118.859
0
LINE
8
Black
10
162.109
20
-121.399
11
162.109
21
-120.681
0
LINE
8
Black
10
162.109
20
-120.681
11
161.391
21
-120.681
0
LINE
8
Black
10
161.391
20
-120.681
11
161.391
21
-121.399
0
LINE
8
Black
10
161.391
20
-121.399
11
162.109
21
-121.399
0
LINE
8
Black
10
162.109
20
-123.939
11
162.109
21
-123.221
0
LINE
8
Black
10
162.109
20
-123.221
11
161.391
21
-123.221
0
LINE
8
Black
10
161.391
20
-123.221
11
161.391
21
-123.939
0
LINE
8
Black
10
161.391
20
-123.939
11
162.109
21
-123.939
0
LINE
8
Black
10
162.109
20
-126.479
11
162.109
21
-125.761
0
LINE
8
Black
10
162.109
20
-125.761
11
161.391
21
-125.761
0
LINE
8
Black
10
161.391
20
-125.761
11
161.391
21
-126.479
0
LINE
8
Black
10
161.391
20
-126.479
11
162.109
21
-126.479
0
LINE
8
Black
10
162.109
20
-129.019
11
162.109
21
-128.301
0
LINE
8
Black
10
162.109
20
-128.301
11
161.391
21
-128.301
0
LINE
8
Black
10
161.391
20
-128.301
11
161.391
21
-129.019
0
LINE
8
Black
10
161.391
20
-129.019
11
162.109
21
-129.019
0
LINE
8
Black
10
162.109
20
-131.559
11
162.109
21
-130.841
0
LINE
8
Black
10
162.109
20
-130.841
11
161.391
21
-130.841
0
LINE
8
Black
10
161.391
20
-130.841
11
161.391
21
-131.559
0
LINE
8
Black
10
161.391
20
-131.559
11
162.109
21
-131.559
0
LINE
8
Black
10
162.109
20
-134.099
11
162.109
21
-133.381
0
LINE
8
Black
10
162.109
20
-133.381
11
161.391
21
-133.381
0
LINE
8
Black
10
161.391
20
-133.381
11
161.391
21
-134.099
0
LINE
8
Black
10
161.391
20
-134.099
11
162.109
21
-134.099
0
LINE
8
Black
10
164.649
20
-85.8392
11
164.649
21
-85.1208
0
LINE
8
Black
10
164.649
20
-85.1208
11
163.931
21
-85.1208
0
LINE
8
Black
10
163.931
20
-85.1208
11
163.931
21
-85.8392
0
LINE
8
Black
10
163.931
20
-85.8392
11
164.649
21
-85.8392
0
LINE
8
Black
10
164.649
20
-88.3792
11
164.649
21
-87.6608
0
LINE
8
Black
10
164.649
20
-87.6608
11
163.931
21
-87.6608
0
LINE
8
Black
10
163.931
20
-87.6608
11
163.931
21
-88.3792
0
LINE
8
Black
10
163.931
20
-88.3792
11
164.649
21
-88.3792
0
LINE
8
Black
10
164.649
20
-90.9192
11
164.649
21
-90.2008
0
LINE
8
Black
10
164.649
20
-90.2008
11
163.931
21
-90.2008
0
LINE
8
Black
10
163.931
20
-90.2008
11
163.931
21
-90.9192
0
LINE
8
Black
10
163.931
20
-90.9192
11
164.649
21
-90.9192
0
LINE
8
Black
10
164.649
20
-93.4592
11
164.649
21
-92.7408
0
LINE
8
Black
10
164.649
20
-92.7408
11
163.931
21
-92.7408
0
LINE
8
Black
10
163.931
20
-92.7408
11
163.931
21
-93.4592
0
LINE
8
Black
10
163.931
20
-93.4592
11
164.649
21
-93.4592
0
LINE
8
Black
10
164.649
20
-95.9992
11
164.649
21
-95.2808
0
LINE
8
Black
10
164.649
20
-95.2808
11
163.931
21
-95.2808
0
LINE
8
Black
10
163.931
20
-95.2808
11
163.931
21
-95.9992
0
LINE
8
Black
10
163.931
20
-95.9992
11
164.649
21
-95.9992
0
LINE
8
Black
10
164.649
20
-98.5392
11
164.649
21
-97.8208
0
LINE
8
Black
10
164.649
20
-97.8208
11
163.931
21
-97.8208
0
LINE
8
Black
10
163.931
20
-97.8208
11
163.931
21
-98.5392
0
LINE
8
Black
10
163.931
20
-98.5392
11
164.649
21
-98.5392
0
LINE
8
Black
10
164.649
20
-101.079
11
164.649
21
-100.361
0
LINE
8
Black
10
164.649
20
-100.361
11
163.931
21
-100.361
0
LINE
8
Black
10
163.931
20
-100.361
11
163.931
21
-101.079
0
LINE
8
Black
10
163.931
20
-101.079
11
164.649
21
-101.079
0
LINE
8
Black
10
164.649
20
-103.619
11
164.649
21
-102.901
0
LINE
8
Black
10
164.649
20
-102.901
11
163.931
21
-102.901
0
LINE
8
Black
10
163.931
20
-102.901
11
163.931
21
-103.619
0
LINE
8
Black
10
163.931
20
-103.619
11
164.649
21
-103.619
0
LINE
8
Black
10
164.649
20
-106.159
11
164.649
21
-105.441
0
LINE
8
Black
10
164.649
20
-105.441
11
163.931
21
-105.441
0
LINE
8
Black
10
163.931
20
-105.441
11
163.931
21
-106.159
0
LINE
8
Black
10
163.931
20
-106.159
11
164.649
21
-106.159
0
LINE
8
Black
10
164.649
20
-108.699
11
164.649
21
-107.981
0
LINE
8
Black
10
164.649
20
-107.981
11
163.931
21
-107.981
0
LINE
8
Black
10
163.931
20
-107.981
11
163.931
21
-108.699
0
LINE
8
Black
10
163.931
20
-108.699
11
164.649
21
-108.699
0
LINE
8
Black
10
164.649
20
-111.239
11
164.649
21
-110.521
0
LINE
8
Black
10
164.649
20
-110.521
11
163.931
21
-110.521
0
LINE
8
Black
10
163.931
20
-110.521
11
163.931
21
-111.239
0
LINE
8
Black
10
163.931
20
-111.239
11
164.649
21
-111.239
0
LINE
8
Black
10
164.649
20
-113.779
11
164.649
21
-113.061
0
LINE
8
Black
10
164.649
20
-113.061
11
163.931
21
-113.061
0
LINE
8
Black
10
163.931
20
-113.061
11
163.931
21
-113.779
0
LINE
8
Black
10
163.931
20
-113.779
11
164.649
21
-113.779
0
LINE
8
Black
10
164.649
20
-116.319
11
164.649
21
-115.601
0
LINE
8
Black
10
164.649
20
-115.601
11
163.931
21
-115.601
0
LINE
8
Black
10
163.931
20
-115.601
11
163.931
21
-116.319
0
LINE
8
Black
10
163.931
20
-116.319
11
164.649
21
-116.319
0
LINE
8
Black
10
164.649
20
-118.859
11
164.649
21
-118.141
0
LINE
8
Black
10
164.649
20
-118.141
11
163.931
21
-118.141
0
LINE
8
Black
10
163.931
20
-118.141
11
163.931
21
-118.859
0
LINE
8
Black
10
163.931
20
-118.859
11
164.649
21
-118.859
0
LINE
8
Black
10
164.649
20
-121.399
11
164.649
21
-120.681
0
LINE
8
Black
10
164.649
20
-120.681
11
163.931
21
-120.681
0
LINE
8
Black
10
163.931
20
-120.681
11
163.931
21
-121.399
0
LINE
8
Black
10
163.931
20
-121.399
11
164.649
21
-121.399
0
LINE
8
Black
10
164.649
20
-123.939
11
164.649
21
-123.221
0
LINE
8
Black
10
164.649
20
-123.221
11
163.931
21
-123.221
0
LINE
8
Black
10
163.931
20
-123.221
11
163.931
21
-123.939
0
LINE
8
Black
10
163.931
20
-123.939
11
164.649
21
-123.939
0
LINE
8
Black
10
164.649
20
-126.479
11
164.649
21
-125.761
0
LINE
8
Black
10
164.649
20
-125.761
11
163.931
21
-125.761
0
LINE
8
Black
10
163.931
20
-125.761
11
163.931
21
-126.479
0
LINE
8
Black
10
163.931
20
-126.479
11
164.649
21
-126.479
0
LINE
8
Black
10
164.649
20
-129.019
11
164.649
21
-128.301
0
LINE
8
Black
10
164.649
20
-128.301
11
163.931
21
-128.301
0
LINE
8
Black
10
163.931
20
-128.301
11
163.931
21
-129.019
0
LINE
8
Black
10
163.931
20
-129.019
11
164.649
21
-129.019
0
LINE
8
Black
10
164.649
20
-131.559
11
164.649
21
-130.841
0
LINE
8
Black
10
164.649
20
-130.841
11
163.931
21
-130.841
0
LINE
8
Black
10
163.931
20
-130.841
11
163.931
21
-131.559
0
LINE
8
Black
10
163.931
20
-131.559
11
164.649
21
-131.559
0
LINE
8
Black
10
164.649
20
-134.099
11
164.649
21
-133.381
0
LINE
8
Black
10
164.649
20
-133.381
11
163.931
21
-133.381
0
LINE
8
Black
10
163.931
20
-133.381
11
163.931
21
-134.099
0
LINE
8
Black
10
163.931
20
-134.099
11
164.649
21
-134.099
0
LINE
8
Black
10
167.189
20
-85.8392
11
167.189
21
-85.1208
0
LINE
8
Black
10
167.189
20
-85.1208
11
166.471
21
-85.1208
0
LINE
8
Black
10
166.471
20
-85.1208
11
166.471
21
-85.8392
0
LINE
8
Black
10
166.471
20
-85.8392
11
167.189
21
-85.8392
0
LINE
8
Black
10
167.189
20
-88.3792
11
167.189
21
-87.6608
0
LINE
8
Black
10
167.189
20
-87.6608
11
166.471
21
-87.6608
0
LINE
8
Black
10
166.471
20
-87.6608
11
166.471
21
-88.3792
0
LINE
8
Black
10
166.471
20
-88.3792
11
167.189
21
-88.3792
0
LINE
8
Black
10
167.189
20
-90.9192
11
167.189
21
-90.2008
0
LINE
8
Black
10
167.189
20
-90.2008
11
166.471
21
-90.2008
0
LINE
8
Black
10
166.471
20
-90.2008
11
166.471
21
-90.9192
0
LINE
8
Black
10
166.471
20
-90.9192
11
167.189
21
-90.9192
0
LINE
8
Black
10
167.189
20
-93.4592
11
167.189
21
-92.7408
0
LINE
8
Black
10
167.189
20
-92.7408
11
166.471
21
-92.7408
0
LINE
8
Black
10
166.471
20
-92.7408
11
166.471
21
-93.4592
0
LINE
8
Black
10
166.471
20
-93.4592
11
167.189
21
-93.4592
0
LINE
8
Black
10
167.189
20
-95.9992
11
167.189
21
-95.2808
0
LINE
8
Black
10
167.189
20
-95.2808
11
166.471
21
-95.2808
0
LINE
8
Black
10
166.471
20
-95.2808
11
166.471
21
-95.9992
0
LINE
8
Black
10
166.471
20
-95.9992
11
167.189
21
-95.9992
0
LINE
8
Black
10
167.189
20
-98.5392
11
167.189
21
-97.8208
0
LINE
8
Black
10
167.189
20
-97.8208
11
166.471
21
-97.8208
0
LINE
8
Black
10
166.471
20
-97.8208
11
166.471
21
-98.5392
0
LINE
8
Black
10
166.471
20
-98.5392
11
167.189
21
-98.5392
0
LINE
8
Black
10
167.189
20
-101.079
11
167.189
21
-100.361
0
LINE
8
Black
10
167.189
20
-100.361
11
166.471
21
-100.361
0
LINE
8
Black
10
166.471
20
-100.361
11
166.471
21
-101.079
0
LINE
8
Black
10
166.471
20
-101.079
11
167.189
21
-101.079
0
LINE
8
Black
10
167.189
20
-103.619
11
167.189
21
-102.901
0
LINE
8
Black
10
167.189
20
-102.901
11
166.471
21
-102.901
0
LINE
8
Black
10
166.471
20
-102.901
11
166.471
21
-103.619
0
LINE
8
Black
10
166.471
20
-103.619
11
167.189
21
-103.619
0
LINE
8
Black
10
167.189
20
-106.159
11
167.189
21
-105.441
0
LINE
8
Black
10
167.189
20
-105.441
11
166.471
21
-105.441
0
LINE
8
Black
10
166.471
20
-105.441
11
166.471
21
-106.159
0
LINE
8
Black
10
166.471
20
-106.159
11
167.189
21
-106.159
0
LINE
8
Black
10
167.189
20
-108.699
11
167.189
21
-107.981
0
LINE
8
Black
10
167.189
20
-107.981
11
166.471
21
-107.981
0
LINE
8
Black
10
166.471
20
-107.981
11
166.471
21
-108.699
0
LINE
8
Black
10
166.471
20
-108.699
11
167.189
21
-108.699
0
LINE
8
Black
10
167.189
20
-111.239
11
167.189
21
-110.521
0
LINE
8
Black
10
167.189
20
-110.521
11
166.471
21
-110.521
0
LINE
8
Black
10
166.471
20
-110.521
11
166.471
21
-111.239
0
LINE
8
Black
10
166.471
20
-111.239
11
167.189
21
-111.239
0
LINE
8
Black
10
167.189
20
-113.779
11
167.189
21
-113.061
0
LINE
8
Black
10
167.189
20
-113.061
11
166.471
21
-113.061
0
LINE
8
Black
10
166.471
20
-113.061
11
166.471
21
-113.779
0
LINE
8
Black
10
166.471
20
-113.779
11
167.189
21
-113.779
0
LINE
8
Black
10
167.189
20
-116.319
11
167.189
21
-115.601
0
LINE
8
Black
10
167.189
20
-115.601
11
166.471
21
-115.601
0
LINE
8
Black
10
166.471
20
-115.601
11
166.471
21
-116.319
0
LINE
8
Black
10
166.471
20
-116.319
11
167.189
21
-116.319
0
LINE
8
Black
10
167.189
20
-118.859
11
167.189
21
-118.141
0
LINE
8
Black
10
167.189
20
-118.141
11
166.471
21
-118.141
0
LINE
8
Black
10
166.471
20
-118.141
11
166.471
21
-118.859
0
LINE
8
Black
10
166.471
20
-118.859
11
167.189
21
-118.859
0
LINE
8
Black
10
167.189
20
-121.399
11
167.189
21
-120.681
0
LINE
8
Black
10
167.189
20
-120.681
11
166.471
21
-120.681
0
LINE
8
Black
10
166.471
20
-120.681
11
166.471
21
-121.399
0
LINE
8
Black
10
166.471
20
-121.399
11
167.189
21
-121.399
0
LINE
8
Black
10
167.189
20
-123.939
11
167.189
21
-123.221
0
LINE
8
Black
10
167.189
20
-123.221
11
166.471
21
-123.221
0
LINE
8
Black
10
166.471
20
-123.221
11
166.471
21
-123.939
0
LINE
8
Black
10
166.471
20
-123.939
11
167.189
21
-123.939
0
LINE
8
Black
10
167.189
20
-126.479
11
167.189
21
-125.761
0
LINE
8
Black
10
167.189
20
-125.761
11
166.471
21
-125.761
0
LINE
8
Black
10
166.471
20
-125.761
11
166.471
21
-126.479
0
LINE
8
Black
10
166.471
20
-126.479
11
167.189
21
-126.479
0
LINE
8
Black
10
167.189
20
-129.019
11
167.189
21
-128.301
0
LINE
8
Black
10
167.189
20
-128.301
11
166.471
21
-128.301
0
LINE
8
Black
10
166.471
20
-128.301
11
166.471
21
-129.019
0
LINE
8
Black
10
166.471
20
-129.019
11
167.189
21
-129.019
0
LINE
8
Black
10
167.189
20
-131.559
11
167.189
21
-130.841
0
LINE
8
Black
10
167.189
20
-130.841
11
166.471
21
-130.841
0
LINE
8
Black
10
166.471
20
-130.841
11
166.471
21
-131.559
0
LINE
8
Black
10
166.471
20
-131.559
11
167.189
21
-131.559
0
LINE
8
Black
10
167.189
20
-134.099
11
167.189
21
-133.381
0
LINE
8
Black
10
167.189
20
-133.381
11
166.471
21
-133.381
0
LINE
8
Black
10
166.471
20
-133.381
11
166.471
21
-134.099
0
LINE
8
Black
10
166.471
20
-134.099
11
167.189
21
-134.099
0
LINE
8
Black
10
169.729
20
-85.8392
11
169.729
21
-85.1208
0
LINE
8
Black
10
169.729
20
-85.1208
11
169.011
21
-85.1208
0
LINE
8
Black
10
169.011
20
-85.1208
11
169.011
21
-85.8392
0
LINE
8
Black
10
169.011
20
-85.8392
11
169.729
21
-85.8392
0
LINE
8
Black
10
169.729
20
-88.3792
11
169.729
21
-87.6608
0
LINE
8
Black
10
169.729
20
-87.6608
11
169.011
21
-87.6608
0
LINE
8
Black
10
169.011
20
-87.6608
11
169.011
21
-88.3792
0
LINE
8
Black
10
169.011
20
-88.3792
11
169.729
21
-88.3792
0
LINE
8
Black
10
169.729
20
-90.9192
11
169.729
21
-90.2008
0
LINE
8
Black
10
169.729
20
-90.2008
11
169.011
21
-90.2008
0
LINE
8
Black
10
169.011
20
-90.2008
11
169.011
21
-90.9192
0
LINE
8
Black
10
169.011
20
-90.9192
11
169.729
21
-90.9192
0
LINE
8
Black
10
169.729
20
-93.4592
11
169.729
21
-92.7408
0
LINE
8
Black
10
169.729
20
-92.7408
11
169.011
21
-92.7408
0
LINE
8
Black
10
169.011
20
-92.7408
11
169.011
21
-93.4592
0
LINE
8
Black
10
169.011
20
-93.4592
11
169.729
21
-93.4592
0
LINE
8
Black
10
169.729
20
-95.9992
11
169.729
21
-95.2808
0
LINE
8
Black
10
169.729
20
-95.2808
11
169.011
21
-95.2808
0
LINE
8
Black
10
169.011
20
-95.2808
11
169.011
21
-95.9992
0
LINE
8
Black
10
169.011
20
-95.9992
11
169.729
21
-95.9992
0
LINE
8
Black
10
169.729
20
-98.5392
11
169.729
21
-97.8208
0
LINE
8
Black
10
169.729
20
-97.8208
11
169.011
21
-97.8208
0
LINE
8
Black
10
169.011
20
-97.8208
11
169.011
21
-98.5392
0
LINE
8
Black
10
169.011
20
-98.5392
11
169.729
21
-98.5392
0
LINE
8
Black
10
169.729
20
-101.079
11
169.729
21
-100.361
0
LINE
8
Black
10
169.729
20
-100.361
11
169.011
21
-100.361
0
LINE
8
Black
10
169.011
20
-100.361
11
169.011
21
-101.079
0
LINE
8
Black
10
169.011
20
-101.079
11
169.729
21
-101.079
0
LINE
8
Black
10
169.729
20
-103.619
11
169.729
21
-102.901
0
LINE
8
Black
10
169.729
20
-102.901
11
169.011
21
-102.901
0
LINE
8
Black
10
169.011
20
-102.901
11
169.011
21
-103.619
0
LINE
8
Black
10
169.011
20
-103.619
11
169.729
21
-103.619
0
LINE
8
Black
10
169.729
20
-106.159
11
169.729
21
-105.441
0
LINE
8
Black
10
169.729
20
-105.441
11
169.011
21
-105.441
0
LINE
8
Black
10
169.011
20
-105.441
11
169.011
21
-106.159
0
LINE
8
Black
10
169.011
20
-106.159
11
169.729
21
-106.159
0
LINE
8
Black
10
169.729
20
-108.699
11
169.729
21
-107.981
0
LINE
8
Black
10
169.729
20
-107.981
11
169.011
21
-107.981
0
LINE
8
Black
10
169.011
20
-107.981
11
169.011
21
-108.699
0
LINE
8
Black
10
169.011
20
-108.699
11
169.729
21
-108.699
0
LINE
8
Black
10
169.729
20
-111.239
11
169.729
21
-110.521
0
LINE
8
Black
10
169.729
20
-110.521
11
169.011
21
-110.521
0
LINE
8
Black
10
169.011
20
-110.521
11
169.011
21
-111.239
0
LINE
8
Black
10
169.011
20
-111.239
11
169.729
21
-111.239
0
LINE
8
Black
10
169.729
20
-113.779
11
169.729
21
-113.061
0
LINE
8
Black
10
169.729
20
-113.061
11
169.011
21
-113.061
0
LINE
8
Black
10
169.011
20
-113.061
11
169.011
21
-113.779
0
LINE
8
Black
10
169.011
20
-113.779
11
169.729
21
-113.779
0
LINE
8
Black
10
169.729
20
-116.319
11
169.729
21
-115.601
0
LINE
8
Black
10
169.729
20
-115.601
11
169.011
21
-115.601
0
LINE
8
Black
10
169.011
20
-115.601
11
169.011
21
-116.319
0
LINE
8
Black
10
169.011
20
-116.319
11
169.729
21
-116.319
0
LINE
8
Black
10
169.729
20
-118.859
11
169.729
21
-118.141
0
LINE
8
Black
10
169.729
20
-118.141
11
169.011
21
-118.141
0
LINE
8
Black
10
169.011
20
-118.141
11
169.011
21
-118.859
0
LINE
8
Black
10
169.011
20
-118.859
11
169.729
21
-118.859
0
LINE
8
Black
10
169.729
20
-121.399
11
169.729
21
-120.681
0
LINE
8
Black
10
169.729
20
-120.681
11
169.011
21
-120.681
0
LINE
8
Black
10
169.011
20
-120.681
11
169.011
21
-121.399
0
LINE
8
Black
10
169.011
20
-121.399
11
169.729
21
-121.399
0
LINE
8
Black
10
169.729
20
-123.939
11
169.729
21
-123.221
0
LINE
8
Black
10
169.729
20
-123.221
11
169.011
21
-123.221
0
LINE
8
Black
10
169.011
20
-123.221
11
169.011
21
-123.939
0
LINE
8
Black
10
169.011
20
-123.939
11
169.729
21
-123.939
0
LINE
8
Black
10
169.729
20
-126.479
11
169.729
21
-125.761
0
LINE
8
Black
10
169.729
20
-125.761
11
169.011
21
-125.761
0
LINE
8
Black
10
169.011
20
-125.761
11
169.011
21
-126.479
0
LINE
8
Black
10
169.011
20
-126.479
11
169.729
21
-126.479
0
LINE
8
Black
10
169.729
20
-129.019
11
169.729
21
-128.301
0
LINE
8
Black
10
169.729
20
-128.301
11
169.011
21
-128.301
0
LINE
8
Black
10
169.011
20
-128.301
11
169.011
21
-129.019
0
LINE
8
Black
10
169.011
20
-129.019
11
169.729
21
-129.019
0
LINE
8
Black
10
169.729
20
-131.559
11
169.729
21
-130.841
0
LINE
8
Black
10
169.729
20
-130.841
11
169.011
21
-130.841
0
LINE
8
Black
10
169.011
20
-130.841
11
169.011
21
-131.559
0
LINE
8
Black
10
169.011
20
-131.559
11
169.729
21
-131.559
0
LINE
8
Black
10
169.729
20
-134.099
11
169.729
21
-133.381
0
LINE
8
Black
10
169.729
20
-133.381
11
169.011
21
-133.381
0
LINE
8
Black
10
169.011
20
-133.381
11
169.011
21
-134.099
0
LINE
8
Black
10
169.011
20
-134.099
11
169.729
21
-134.099
0
LINE
8
Black
10
172.269
20
-85.8392
11
172.269
21
-85.1208
0
LINE
8
Black
10
172.269
20
-85.1208
11
171.551
21
-85.1208
0
LINE
8
Black
10
171.551
20
-85.1208
11
171.551
21
-85.8392
0
LINE
8
Black
10
171.551
20
-85.8392
11
172.269
21
-85.8392
0
LINE
8
Black
10
172.269
20
-88.3792
11
172.269
21
-87.6608
0
LINE
8
Black
10
172.269
20
-87.6608
11
171.551
21
-87.6608
0
LINE
8
Black
10
171.551
20
-87.6608
11
171.551
21
-88.3792
0
LINE
8
Black
10
171.551
20
-88.3792
11
172.269
21
-88.3792
0
LINE
8
Black
10
172.269
20
-90.9192
11
172.269
21
-90.2008
0
LINE
8
Black
10
172.269
20
-90.2008
11
171.551
21
-90.2008
0
LINE
8
Black
10
171.551
20
-90.2008
11
171.551
21
-90.9192
0
LINE
8
Black
10
171.551
20
-90.9192
11
172.269
21
-90.9192
0
LINE
8
Black
10
172.269
20
-93.4592
11
172.269
21
-92.7408
0
LINE
8
Black
10
172.269
20
-92.7408
11
171.551
21
-92.7408
0
LINE
8
Black
10
171.551
20
-92.7408
11
171.551
21
-93.4592
0
LINE
8
Black
10
171.551
20
-93.4592
11
172.269
21
-93.4592
0
LINE
8
Black
10
172.269
20
-95.9992
11
172.269
21
-95.2808
0
LINE
8
Black
10
172.269
20
-95.2808
11
171.551
21
-95.2808
0
LINE
8
Black
10
171.551
20
-95.2808
11
171.551
21
-95.9992
0
LINE
8
Black
10
171.551
20
-95.9992
11
172.269
21
-95.9992
0
LINE
8
Black
10
172.269
20
-98.5392
11
172.269
21
-97.8208
0
LINE
8
Black
10
172.269
20
-97.8208
11
171.551
21
-97.8208
0
LINE
8
Black
10
171.551
20
-97.8208
11
171.551
21
-98.5392
0
LINE
8
Black
10
171.551
20
-98.5392
11
172.269
21
-98.5392
0
LINE
8
Black
10
172.269
20
-101.079
11
172.269
21
-100.361
0
LINE
8
Black
10
172.269
20
-100.361
11
171.551
21
-100.361
0
LINE
8
Black
10
171.551
20
-100.361
11
171.551
21
-101.079
0
LINE
8
Black
10
171.551
20
-101.079
11
172.269
21
-101.079
0
LINE
8
Black
10
172.269
20
-103.619
11
172.269
21
-102.901
0
LINE
8
Black
10
172.269
20
-102.901
11
171.551
21
-102.901
0
LINE
8
Black
10
171.551
20
-102.901
11
171.551
21
-103.619
0
LINE
8
Black
10
171.551
20
-103.619
11
172.269
21
-103.619
0
LINE
8
Black
10
172.269
20
-106.159
11
172.269
21
-105.441
0
LINE
8
Black
10
172.269
20
-105.441
11
171.551
21
-105.441
0
LINE
8
Black
10
171.551
20
-105.441
11
171.551
21
-106.159
0
LINE
8
Black
10
171.551
20
-106.159
11
172.269
21
-106.159
0
LINE
8
Black
10
172.269
20
-108.699
11
172.269
21
-107.981
0
LINE
8
Black
10
172.269
20
-107.981
11
171.551
21
-107.981
0
LINE
8
Black
10
171.551
20
-107.981
11
171.551
21
-108.699
0
LINE
8
Black
10
171.551
20
-108.699
11
172.269
21
-108.699
0
LINE
8
Black
10
172.269
20
-111.239
11
172.269
21
-110.521
0
LINE
8
Black
10
172.269
20
-110.521
11
171.551
21
-110.521
0
LINE
8
Black
10
171.551
20
-110.521
11
171.551
21
-111.239
0
LINE
8
Black
10
171.551
20
-111.239
11
172.269
21
-111.239
0
LINE
8
Black
10
172.269
20
-113.779
11
172.269
21
-113.061
0
LINE
8
Black
10
172.269
20
-113.061
11
171.551
21
-113.061
0
LINE
8
Black
10
171.551
20
-113.061
11
171.551
21
-113.779
0
LINE
8
Black
10
171.551
20
-113.779
11
172.269
21
-113.779
0
LINE
8
Black
10
172.269
20
-116.319
11
172.269
21
-115.601
0
LINE
8
Black
10
172.269
20
-115.601
11
171.551
21
-115.601
0
LINE
8
Black
10
171.551
20
-115.601
11
171.551
21
-116.319
0
LINE
8
Black
10
171.551
20
-116.319
11
172.269
21
-116.319
0
LINE
8
Black
10
172.269
20
-118.859
11
172.269
21
-118.141
0
LINE
8
Black
10
172.269
20
-118.141
11
171.551
21
-118.141
0
LINE
8
Black
10
171.551
20
-118.141
11
171.551
21
-118.859
0
LINE
8
Black
10
171.551
20
-118.859
11
172.269
21
-118.859
0
LINE
8
Black
10
172.269
20
-121.399
11
172.269
21
-120.681
0
LINE
8
Black
10
172.269
20
-120.681
11
171.551
21
-120.681
0
LINE
8
Black
10
171.551
20
-120.681
11
171.551
21
-121.399
0
LINE
8
Black
10
171.551
20
-121.399
11
172.269
21
-121.399
0
LINE
8
Black
10
172.269
20
-123.939
11
172.269
21
-123.221
0
LINE
8
Black
10
172.269
20
-123.221
11
171.551
21
-123.221
0
LINE
8
Black
10
171.551
20
-123.221
11
171.551
21
-123.939
0
LINE
8
Black
10
171.551
20
-123.939
11
172.269
21
-123.939
0
LINE
8
Black
10
172.269
20
-126.479
11
172.269
21
-125.761
0
LINE
8
Black
10
172.269
20
-125.761
11
171.551
21
-125.761
0
LINE
8
Black
10
171.551
20
-125.761
11
171.551
21
-126.479
0
LINE
8
Black
10
171.551
20
-126.479
11
172.269
21
-126.479
0
LINE
8
Black
10
172.269
20
-129.019
11
172.269
21
-128.301
0
LINE
8
Black
10
172.269
20
-128.301
11
171.551
21
-128.301
0
LINE
8
Black
10
171.551
20
-128.301
11
171.551
21
-129.019
0
LINE
8
Black
10
171.551
20
-129.019
11
172.269
21
-129.019
0
LINE
8
Black
10
172.269
20
-131.559
11
172.269
21
-130.841
0
LINE
8
Black
10
172.269
20
-130.841
11
171.551
21
-130.841
0
LINE
8
Black
10
171.551
20
-130.841
11
171.551
21
-131.559
0
LINE
8
Black
10
171.551
20
-131.559
11
172.269
21
-131.559
0
LINE
8
Black
10
172.269
20
-134.099
11
172.269
21
-133.381
0
LINE
8
Black
10
172.269
20
-133.381
11
171.551
21
-133.381
0
LINE
8
Black
10
171.551
20
-133.381
11
171.551
21
-134.099
0
LINE
8
Black
10
171.551
20
-134.099
11
172.269
21
-134.099
0
LINE
8
Black
10
174.809
20
-85.8392
11
174.809
21
-85.1208
0
LINE
8
Black
10
174.809
20
-85.1208
11
174.091
21
-85.1208
0
LINE
8
Black
10
174.091
20
-85.1208
11
174.091
21
-85.8392
0
LINE
8
Black
10
174.091
20
-85.8392
11
174.809
21
-85.8392
0
LINE
8
Black
10
174.809
20
-88.3792
11
174.809
21
-87.6608
0
LINE
8
Black
10
174.809
20
-87.6608
11
174.091
21
-87.6608
0
LINE
8
Black
10
174.091
20
-87.6608
11
174.091
21
-88.3792
0
LINE
8
Black
10
174.091
20
-88.3792
11
174.809
21
-88.3792
0
LINE
8
Black
10
174.809
20
-90.9192
11
174.809
21
-90.2008
0
LINE
8
Black
10
174.809
20
-90.2008
11
174.091
21
-90.2008
0
LINE
8
Black
10
174.091
20
-90.2008
11
174.091
21
-90.9192
0
LINE
8
Black
10
174.091
20
-90.9192
11
174.809
21
-90.9192
0
LINE
8
Black
10
174.809
20
-93.4592
11
174.809
21
-92.7408
0
LINE
8
Black
10
174.809
20
-92.7408
11
174.091
21
-92.7408
0
LINE
8
Black
10
174.091
20
-92.7408
11
174.091
21
-93.4592
0
LINE
8
Black
10
174.091
20
-93.4592
11
174.809
21
-93.4592
0
LINE
8
Black
10
174.809
20
-95.9992
11
174.809
21
-95.2808
0
LINE
8
Black
10
174.809
20
-95.2808
11
174.091
21
-95.2808
0
LINE
8
Black
10
174.091
20
-95.2808
11
174.091
21
-95.9992
0
LINE
8
Black
10
174.091
20
-95.9992
11
174.809
21
-95.9992
0
LINE
8
Black
10
174.809
20
-98.5392
11
174.809
21
-97.8208
0
LINE
8
Black
10
174.809
20
-97.8208
11
174.091
21
-97.8208
0
LINE
8
Black
10
174.091
20
-97.8208
11
174.091
21
-98.5392
0
LINE
8
Black
10
174.091
20
-98.5392
11
174.809
21
-98.5392
0
LINE
8
Black
10
174.809
20
-101.079
11
174.809
21
-100.361
0
LINE
8
Black
10
174.809
20
-100.361
11
174.091
21
-100.361
0
LINE
8
Black
10
174.091
20
-100.361
11
174.091
21
-101.079
0
LINE
8
Black
10
174.091
20
-101.079
11
174.809
21
-101.079
0
LINE
8
Black
10
174.809
20
-103.619
11
174.809
21
-102.901
0
LINE
8
Black
10
174.809
20
-102.901
11
174.091
21
-102.901
0
LINE
8
Black
10
174.091
20
-102.901
11
174.091
21
-103.619
0
LINE
8
Black
10
174.091
20
-103.619
11
174.809
21
-103.619
0
LINE
8
Black
10
174.809
20
-106.159
11
174.809
21
-105.441
0
LINE
8
Black
10
174.809
20
-105.441
11
174.091
21
-105.441
0
LINE
8
Black
10
174.091
20
-105.441
11
174.091
21
-106.159
0
LINE
8
Black
10
174.091
20
-106.159
11
174.809
21
-106.159
0
LINE
8
Black
10
174.809
20
-108.699
11
174.809
21
-107.981
0
LINE
8
Black
10
174.809
20
-107.981
11
174.091
21
-107.981
0
LINE
8
Black
10
174.091
20
-107.981
11
174.091
21
-108.699
0
LINE
8
Black
10
174.091
20
-108.699
11
174.809
21
-108.699
0
LINE
8
Black
10
174.809
20
-111.239
11
174.809
21
-110.521
0
LINE
8
Black
10
174.809
20
-110.521
11
174.091
21
-110.521
0
LINE
8
Black
10
174.091
20
-110.521
11
174.091
21
-111.239
0
LINE
8
Black
10
174.091
20
-111.239
11
174.809
21
-111.239
0
LINE
8
Black
10
174.809
20
-113.779
11
174.809
21
-113.061
0
LINE
8
Black
10
174.809
20
-113.061
11
174.091
21
-113.061
0
LINE
8
Black
10
174.091
20
-113.061
11
174.091
21
-113.779
0
LINE
8
Black
10
174.091
20
-113.779
11
174.809
21
-113.779
0
LINE
8
Black
10
174.809
20
-116.319
11
174.809
21
-115.601
0
LINE
8
Black
10
174.809
20
-115.601
11
174.091
21
-115.601
0
LINE
8
Black
10
174.091
20
-115.601
11
174.091
21
-116.319
0
LINE
8
Black
10
174.091
20
-116.319
11
174.809
21
-116.319
0
LINE
8
Black
10
174.809
20
-118.859
11
174.809
21
-118.141
0
LINE
8
Black
10
174.809
20
-118.141
11
174.091
21
-118.141
0
LINE
8
Black
10
174.091
20
-118.141
11
174.091
21
-118.859
0
LINE
8
Black
10
174.091
20
-118.859
11
174.809
21
-118.859
0
LINE
8
Black
10
174.809
20
-121.399
11
174.809
21
-120.681
0
LINE
8
Black
10
174.809
20
-120.681
11
174.091
21
-120.681
0
LINE
8
Black
10
174.091
20
-120.681
11
174.091
21
-121.399
0
LINE
8
Black
10
174.091
20
-121.399
11
174.809
21
-121.399
0
LINE
8
Black
10
174.809
20
-123.939
11
174.809
21
-123.221
0
LINE
8
Black
10
174.809
20
-123.221
11
174.091
21
-123.221
0
LINE
8
Black
10
174.091
20
-123.221
11
174.091
21
-123.939
0
LINE
8
Black
10
174.091
20
-123.939
11
174.809
21
-123.939
0
LINE
8
Black
10
174.809
20
-126.479
11
174.809
21
-125.761
0
LINE
8
Black
10
174.809
20
-125.761
11
174.091
21
-125.761
0
LINE
8
Black
10
174.091
20
-125.761
11
174.091
21
-126.479
0
LINE
8
Black
10
174.091
20
-126.479
11
174.809
21
-126.479
0
LINE
8
Black
10
174.809
20
-129.019
11
174.809
21
-128.301
0
LINE
8
Black
10
174.809
20
-128.301
11
174.091
21
-128.301
0
LINE
8
Black
10
174.091
20
-128.301
11
174.091
21
-129.019
0
LINE
8
Black
10
174.091
20
-129.019
11
174.809
21
-129.019
0
LINE
8
Black
10
174.809
20
-131.559
11
174.809
21
-130.841
0
LINE
8
Black
10
174.809
20
-130.841
11
174.091
21
-130.841
0
LINE
8
Black
10
174.091
20
-130.841
11
174.091
21
-131.559
0
LINE
8
Black
10
174.091
20
-131.559
11
174.809
21
-131.559
0
LINE
8
Black
10
174.809
20
-134.099
11
174.809
21
-133.381
0
LINE
8
Black
10
174.809
20
-133.381
11
174.091
21
-133.381
0
LINE
8
Black
10
174.091
20
-133.381
11
174.091
21
-134.099
0
LINE
8
Black
10
174.091
20
-134.099
11
174.809
21
-134.099
0
LINE
8
Black
10
177.349
20
-85.8392
11
177.349
21
-85.1208
0
LINE
8
Black
10
177.349
20
-85.1208
11
176.631
21
-85.1208
0
LINE
8
Black
10
176.631
20
-85.1208
11
176.631
21
-85.8392
0
LINE
8
Black
10
176.631
20
-85.8392
11
177.349
21
-85.8392
0
LINE
8
Black
10
177.349
20
-88.3792
11
177.349
21
-87.6608
0
LINE
8
Black
10
177.349
20
-87.6608
11
176.631
21
-87.6608
0
LINE
8
Black
10
176.631
20
-87.6608
11
176.631
21
-88.3792
0
LINE
8
Black
10
176.631
20
-88.3792
11
177.349
21
-88.3792
0
LINE
8
Black
10
177.349
20
-90.9192
11
177.349
21
-90.2008
0
LINE
8
Black
10
177.349
20
-90.2008
11
176.631
21
-90.2008
0
LINE
8
Black
10
176.631
20
-90.2008
11
176.631
21
-90.9192
0
LINE
8
Black
10
176.631
20
-90.9192
11
177.349
21
-90.9192
0
LINE
8
Black
10
177.349
20
-93.4592
11
177.349
21
-92.7408
0
LINE
8
Black
10
177.349
20
-92.7408
11
176.631
21
-92.7408
0
LINE
8
Black
10
176.631
20
-92.7408
11
176.631
21
-93.4592
0
LINE
8
Black
10
176.631
20
-93.4592
11
177.349
21
-93.4592
0
LINE
8
Black
10
177.349
20
-95.9992
11
177.349
21
-95.2808
0
LINE
8
Black
10
177.349
20
-95.2808
11
176.631
21
-95.2808
0
LINE
8
Black
10
176.631
20
-95.2808
11
176.631
21
-95.9992
0
LINE
8
Black
10
176.631
20
-95.9992
11
177.349
21
-95.9992
0
LINE
8
Black
10
177.349
20
-98.5392
11
177.349
21
-97.8208
0
LINE
8
Black
10
177.349
20
-97.8208
11
176.631
21
-97.8208
0
LINE
8
Black
10
176.631
20
-97.8208
11
176.631
21
-98.5392
0
LINE
8
Black
10
176.631
20
-98.5392
11
177.349
21
-98.5392
0
LINE
8
Black
10
177.349
20
-101.079
11
177.349
21
-100.361
0
LINE
8
Black
10
177.349
20
-100.361
11
176.631
21
-100.361
0
LINE
8
Black
10
176.631
20
-100.361
11
176.631
21
-101.079
0
LINE
8
Black
10
176.631
20
-101.079
11
177.349
21
-101.079
0
LINE
8
Black
10
177.349
20
-103.619
11
177.349
21
-102.901
0
LINE
8
Black
10
177.349
20
-102.901
11
176.631
21
-102.901
0
LINE
8
Black
10
176.631
20
-102.901
11
176.631
21
-103.619
0
LINE
8
Black
10
176.631
20
-103.619
11
177.349
21
-103.619
0
LINE
8
Black
10
177.349
20
-106.159
11
177.349
21
-105.441
0
LINE
8
Black
10
177.349
20
-105.441
11
176.631
21
-105.441
0
LINE
8
Black
10
176.631
20
-105.441
11
176.631
21
-106.159
0
LINE
8
Black
10
176.631
20
-106.159
11
177.349
21
-106.159
0
LINE
8
Black
10
177.349
20
-108.699
11
177.349
21
-107.981
0
LINE
8
Black
10
177.349
20
-107.981
11
176.631
21
-107.981
0
LINE
8
Black
10
176.631
20
-107.981
11
176.631
21
-108.699
0
LINE
8
Black
10
176.631
20
-108.699
11
177.349
21
-108.699
0
LINE
8
Black
10
177.349
20
-111.239
11
177.349
21
-110.521
0
LINE
8
Black
10
177.349
20
-110.521
11
176.631
21
-110.521
0
LINE
8
Black
10
176.631
20
-110.521
11
176.631
21
-111.239
0
LINE
8
Black
10
176.631
20
-111.239
11
177.349
21
-111.239
0
LINE
8
Black
10
177.349
20
-113.779
11
177.349
21
-113.061
0
LINE
8
Black
10
177.349
20
-113.061
11
176.631
21
-113.061
0
LINE
8
Black
10
176.631
20
-113.061
11
176.631
21
-113.779
0
LINE
8
Black
10
176.631
20
-113.779
11
177.349
21
-113.779
0
LINE
8
Black
10
177.349
20
-116.319
11
177.349
21
-115.601
0
LINE
8
Black
10
177.349
20
-115.601
11
176.631
21
-115.601
0
LINE
8
Black
10
176.631
20
-115.601
11
176.631
21
-116.319
0
LINE
8
Black
10
176.631
20
-116.319
11
177.349
21
-116.319
0
LINE
8
Black
10
177.349
20
-118.859
11
177.349
21
-118.141
0
LINE
8
Black
10
177.349
20
-118.141
11
176.631
21
-118.141
0
LINE
8
Black
10
176.631
20
-118.141
11
176.631
21
-118.859
0
LINE
8
Black
10
176.631
20
-118.859
11
177.349
21
-118.859
0
LINE
8
Black
10
177.349
20
-121.399
11
177.349
21
-120.681
0
LINE
8
Black
10
177.349
20
-120.681
11
176.631
21
-120.681
0
LINE
8
Black
10
176.631
20
-120.681
11
176.631
21
-121.399
0
LINE
8
Black
10
176.631
20
-121.399
11
177.349
21
-121.399
0
LINE
8
Black
10
177.349
20
-123.939
11
177.349
21
-123.221
0
LINE
8
Black
10
177.349
20
-123.221
11
176.631
21
-123.221
0
LINE
8
Black
10
176.631
20
-123.221
11
176.631
21
-123.939
0
LINE
8
Black
10
176.631
20
-123.939
11
177.349
21
-123.939
0
LINE
8
Black
10
177.349
20
-126.479
11
177.349
21
-125.761
0
LINE
8
Black
10
177.349
20
-125.761
11
176.631
21
-125.761
0
LINE
8
Black
10
176.631
20
-125.761
11
176.631
21
-126.479
0
LINE
8
Black
10
176.631
20
-126.479
11
177.349
21
-126.479
0
LINE
8
Black
10
177.349
20
-129.019
11
177.349
21
-128.301
0
LINE
8
Black
10
177.349
20
-128.301
11
176.631
21
-128.301
0
LINE
8
Black
10
176.631
20
-128.301
11
176.631
21
-129.019
0
LINE
8
Black
10
176.631
20
-129.019
11
177.349
21
-129.019
0
LINE
8
Black
10
177.349
20
-131.559
11
177.349
21
-130.841
0
LINE
8
Black
10
177.349
20
-130.841
11
176.631
21
-130.841
0
LINE
8
Black
10
176.631
20
-130.841
11
176.631
21
-131.559
0
LINE
8
Black
10
176.631
20
-131.559
11
177.349
21
-131.559
0
LINE
8
Black
10
177.349
20
-134.099
11
177.349
21
-133.381
0
LINE
8
Black
10
177.349
20
-133.381
11
176.631
21
-133.381
0
LINE
8
Black
10
176.631
20
-133.381
11
176.631
21
-134.099
0
LINE
8
Black
10
176.631
20
-134.099
11
177.349
21
-134.099
0
LINE
8
Black
10
179.127
20
-149.339
11
179.127
21
-148.621
0
LINE
8
Black
10
179.127
20
-148.621
11
178.409
21
-148.621
0
LINE
8
Black
10
178.409
20
-148.621
11
178.409
21
-149.339
0
LINE
8
Black
10
178.409
20
-149.339
11
179.127
21
-149.339
0
LINE
8
Black
10
179.889
20
-85.8392
11
179.889
21
-85.1208
0
LINE
8
Black
10
179.889
20
-85.1208
11
179.171
21
-85.1208
0
LINE
8
Black
10
179.171
20
-85.1208
11
179.171
21
-85.8392
0
LINE
8
Black
10
179.171
20
-85.8392
11
179.889
21
-85.8392
0
LINE
8
Black
10
179.889
20
-88.3792
11
179.889
21
-87.6608
0
LINE
8
Black
10
179.889
20
-87.6608
11
179.171
21
-87.6608
0
LINE
8
Black
10
179.171
20
-87.6608
11
179.171
21
-88.3792
0
LINE
8
Black
10
179.171
20
-88.3792
11
179.889
21
-88.3792
0
LINE
8
Black
10
179.889
20
-90.9192
11
179.889
21
-90.2008
0
LINE
8
Black
10
179.889
20
-90.2008
11
179.171
21
-90.2008
0
LINE
8
Black
10
179.171
20
-90.2008
11
179.171
21
-90.9192
0
LINE
8
Black
10
179.171
20
-90.9192
11
179.889
21
-90.9192
0
LINE
8
Black
10
179.889
20
-93.4592
11
179.889
21
-92.7408
0
LINE
8
Black
10
179.889
20
-92.7408
11
179.171
21
-92.7408
0
LINE
8
Black
10
179.171
20
-92.7408
11
179.171
21
-93.4592
0
LINE
8
Black
10
179.171
20
-93.4592
11
179.889
21
-93.4592
0
LINE
8
Black
10
179.889
20
-95.9992
11
179.889
21
-95.2808
0
LINE
8
Black
10
179.889
20
-95.2808
11
179.171
21
-95.2808
0
LINE
8
Black
10
179.171
20
-95.2808
11
179.171
21
-95.9992
0
LINE
8
Black
10
179.171
20
-95.9992
11
179.889
21
-95.9992
0
LINE
8
Black
10
179.889
20
-98.5392
11
179.889
21
-97.8208
0
LINE
8
Black
10
179.889
20
-97.8208
11
179.171
21
-97.8208
0
LINE
8
Black
10
179.171
20
-97.8208
11
179.171
21
-98.5392
0
LINE
8
Black
10
179.171
20
-98.5392
11
179.889
21
-98.5392
0
LINE
8
Black
10
179.889
20
-101.079
11
179.889
21
-100.361
0
LINE
8
Black
10
179.889
20
-100.361
11
179.171
21
-100.361
0
LINE
8
Black
10
179.171
20
-100.361
11
179.171
21
-101.079
0
LINE
8
Black
10
179.171
20
-101.079
11
179.889
21
-101.079
0
LINE
8
Black
10
179.889
20
-103.619
11
179.889
21
-102.901
0
LINE
8
Black
10
179.889
20
-102.901
11
179.171
21
-102.901
0
LINE
8
Black
10
179.171
20
-102.901
11
179.171
21
-103.619
0
LINE
8
Black
10
179.171
20
-103.619
11
179.889
21
-103.619
0
LINE
8
Black
10
179.889
20
-106.159
11
179.889
21
-105.441
0
LINE
8
Black
10
179.889
20
-105.441
11
179.171
21
-105.441
0
LINE
8
Black
10
179.171
20
-105.441
11
179.171
21
-106.159
0
LINE
8
Black
10
179.171
20
-106.159
11
179.889
21
-106.159
0
LINE
8
Black
10
179.889
20
-108.699
11
179.889
21
-107.981
0
LINE
8
Black
10
179.889
20
-107.981
11
179.171
21
-107.981
0
LINE
8
Black
10
179.171
20
-107.981
11
179.171
21
-108.699
0
LINE
8
Black
10
179.171
20
-108.699
11
179.889
21
-108.699
0
LINE
8
Black
10
179.889
20
-111.239
11
179.889
21
-110.521
0
LINE
8
Black
10
179.889
20
-110.521
11
179.171
21
-110.521
0
LINE
8
Black
10
179.171
20
-110.521
11
179.171
21
-111.239
0
LINE
8
Black
10
179.171
20
-111.239
11
179.889
21
-111.239
0
LINE
8
Black
10
179.889
20
-113.779
11
179.889
21
-113.061
0
LINE
8
Black
10
179.889
20
-113.061
11
179.171
21
-113.061
0
LINE
8
Black
10
179.171
20
-113.061
11
179.171
21
-113.779
0
LINE
8
Black
10
179.171
20
-113.779
11
179.889
21
-113.779
0
LINE
8
Black
10
179.889
20
-116.319
11
179.889
21
-115.601
0
LINE
8
Black
10
179.889
20
-115.601
11
179.171
21
-115.601
0
LINE
8
Black
10
179.171
20
-115.601
11
179.171
21
-116.319
0
LINE
8
Black
10
179.171
20
-116.319
11
179.889
21
-116.319
0
LINE
8
Black
10
179.889
20
-118.859
11
179.889
21
-118.141
0
LINE
8
Black
10
179.889
20
-118.141
11
179.171
21
-118.141
0
LINE
8
Black
10
179.171
20
-118.141
11
179.171
21
-118.859
0
LINE
8
Black
10
179.171
20
-118.859
11
179.889
21
-118.859
0
LINE
8
Black
10
179.889
20
-121.399
11
179.889
21
-120.681
0
LINE
8
Black
10
179.889
20
-120.681
11
179.171
21
-120.681
0
LINE
8
Black
10
179.171
20
-120.681
11
179.171
21
-121.399
0
LINE
8
Black
10
179.171
20
-121.399
11
179.889
21
-121.399
0
LINE
8
Black
10
179.889
20
-123.939
11
179.889
21
-123.221
0
LINE
8
Black
10
179.889
20
-123.221
11
179.171
21
-123.221
0
LINE
8
Black
10
179.171
20
-123.221
11
179.171
21
-123.939
0
LINE
8
Black
10
179.171
20
-123.939
11
179.889
21
-123.939
0
LINE
8
Black
10
179.889
20
-126.479
11
179.889
21
-125.761
0
LINE
8
Black
10
179.889
20
-125.761
11
179.171
21
-125.761
0
LINE
8
Black
10
179.171
20
-125.761
11
179.171
21
-126.479
0
LINE
8
Black
10
179.171
20
-126.479
11
179.889
21
-126.479
0
LINE
8
Black
10
179.889
20
-129.019
11
179.889
21
-128.301
0
LINE
8
Black
10
179.889
20
-128.301
11
179.171
21
-128.301
0
LINE
8
Black
10
179.171
20
-128.301
11
179.171
21
-129.019
0
LINE
8
Black
10
179.171
20
-129.019
11
179.889
21
-129.019
0
LINE
8
Black
10
179.889
20
-131.559
11
179.889
21
-130.841
0
LINE
8
Black
10
179.889
20
-130.841
11
179.171
21
-130.841
0
LINE
8
Black
10
179.171
20
-130.841
11
179.171
21
-131.559
0
LINE
8
Black
10
179.171
20
-131.559
11
179.889
21
-131.559
0
LINE
8
Black
10
179.889
20
-134.099
11
179.889
21
-133.381
0
LINE
8
Black
10
179.889
20
-133.381
11
179.171
21
-133.381
0
LINE
8
Black
10
179.171
20
-133.381
11
179.171
21
-134.099
0
LINE
8
Black
10
179.171
20
-134.099
11
179.889
21
-134.099
0
LINE
8
Black
10
181.667
20
-149.339
11
181.667
21
-148.621
0
LINE
8
Black
10
181.667
20
-148.621
11
180.949
21
-148.621
0
LINE
8
Black
10
180.949
20
-148.621
11
180.949
21
-149.339
0
LINE
8
Black
10
180.949
20
-149.339
11
181.667
21
-149.339
0
LINE
8
Black
10
194.621
20
-129.527
11
194.621
21
-128.809
0
LINE
8
Black
10
194.621
20
-128.809
11
193.903
21
-128.809
0
LINE
8
Black
10
193.903
20
-128.809
11
193.903
21
-129.527
0
LINE
8
Black
10
193.903
20
-129.527
11
194.621
21
-129.527
0
LINE
8
Black
10
194.621
20
-132.067
11
194.621
21
-131.349
0
LINE
8
Black
10
194.621
20
-131.349
11
193.903
21
-131.349
0
LINE
8
Black
10
193.903
20
-131.349
11
193.903
21
-132.067
0
LINE
8
Black
10
193.903
20
-132.067
11
194.621
21
-132.067
0
LINE
8
Black
10
197.161
20
-129.527
11
197.161
21
-128.809
0
LINE
8
Black
10
197.161
20
-128.809
11
196.443
21
-128.809
0
LINE
8
Black
10
196.443
20
-128.809
11
196.443
21
-129.527
0
LINE
8
Black
10
196.443
20
-129.527
11
197.161
21
-129.527
0
LINE
8
Black
10
197.161
20
-132.067
11
197.161
21
-131.349
0
LINE
8
Black
10
197.161
20
-131.349
11
196.443
21
-131.349
0
LINE
8
Black
10
196.443
20
-131.349
11
196.443
21
-132.067
0
LINE
8
Black
10
196.443
20
-132.067
11
197.161
21
-132.067
0
LINE
8
Black
10
204.019
20
-114.541
11
204.019
21
-113.823
0
LINE
8
Black
10
204.019
20
-113.823
11
203.301
21
-113.823
0
LINE
8
Black
10
203.301
20
-113.823
11
203.301
21
-114.541
0
LINE
8
Black
10
203.301
20
-114.541
11
204.019
21
-114.541
0
LINE
8
Black
10
204.019
20
-117.081
11
204.019
21
-116.363
0
LINE
8
Black
10
204.019
20
-116.363
11
203.301
21
-116.363
0
LINE
8
Black
10
203.301
20
-116.363
11
203.301
21
-117.081
0
LINE
8
Black
10
203.301
20
-117.081
11
204.019
21
-117.081
0
LINE
8
Black
10
204.019
20
-119.621
11
204.019
21
-118.903
0
LINE
8
Black
10
204.019
20
-118.903
11
203.301
21
-118.903
0
LINE
8
Black
10
203.301
20
-118.903
11
203.301
21
-119.621
0
LINE
8
Black
10
203.301
20
-119.621
11
204.019
21
-119.621
0
LINE
8
Black
10
204.019
20
-126.987
11
204.019
21
-126.269
0
LINE
8
Black
10
204.019
20
-126.269
11
203.301
21
-126.269
0
LINE
8
Black
10
203.301
20
-126.269
11
203.301
21
-126.987
0
LINE
8
Black
10
203.301
20
-126.987
11
204.019
21
-126.987
0
LINE
8
Black
10
204.019
20
-129.527
11
204.019
21
-128.809
0
LINE
8
Black
10
204.019
20
-128.809
11
203.301
21
-128.809
0
LINE
8
Black
10
203.301
20
-128.809
11
203.301
21
-129.527
0
LINE
8
Black
10
203.301
20
-129.527
11
204.019
21
-129.527
0
LINE
8
Black
10
204.019
20
-132.067
11
204.019
21
-131.349
0
LINE
8
Black
10
204.019
20
-131.349
11
203.301
21
-131.349
0
LINE
8
Black
10
203.301
20
-131.349
11
203.301
21
-132.067
0
LINE
8
Black
10
203.301
20
-132.067
11
204.019
21
-132.067
0
LINE
8
Black
10
204.019
20
-134.607
11
204.019
21
-133.889
0
LINE
8
Black
10
204.019
20
-133.889
11
203.301
21
-133.889
0
LINE
8
Black
10
203.301
20
-133.889
11
203.301
21
-134.607
0
LINE
8
Black
10
203.301
20
-134.607
11
204.019
21
-134.607
0
LINE
8
Black
10
206.559
20
-83.8072
11
206.559
21
-83.0888
0
LINE
8
Black
10
206.559
20
-83.0888
11
205.841
21
-83.0888
0
LINE
8
Black
10
205.841
20
-83.0888
11
205.841
21
-83.8072
0
LINE
8
Black
10
205.841
20
-83.8072
11
206.559
21
-83.8072
0
LINE
8
Black
10
206.559
20
-86.3472
11
206.559
21
-85.6288
0
LINE
8
Black
10
206.559
20
-85.6288
11
205.841
21
-85.6288
0
LINE
8
Black
10
205.841
20
-85.6288
11
205.841
21
-86.3472
0
LINE
8
Black
10
205.841
20
-86.3472
11
206.559
21
-86.3472
0
LINE
8
Black
10
206.559
20
-88.8872
11
206.559
21
-88.1688
0
LINE
8
Black
10
206.559
20
-88.1688
11
205.841
21
-88.1688
0
LINE
8
Black
10
205.841
20
-88.1688
11
205.841
21
-88.8872
0
LINE
8
Black
10
205.841
20
-88.8872
11
206.559
21
-88.8872
0
LINE
8
Black
10
206.559
20
-91.4272
11
206.559
21
-90.7088
0
LINE
8
Black
10
206.559
20
-90.7088
11
205.841
21
-90.7088
0
LINE
8
Black
10
205.841
20
-90.7088
11
205.841
21
-91.4272
0
LINE
8
Black
10
205.841
20
-91.4272
11
206.559
21
-91.4272
0
LINE
8
Black
10
206.559
20
-93.9672
11
206.559
21
-93.2488
0
LINE
8
Black
10
206.559
20
-93.2488
11
205.841
21
-93.2488
0
LINE
8
Black
10
205.841
20
-93.2488
11
205.841
21
-93.9672
0
LINE
8
Black
10
205.841
20
-93.9672
11
206.559
21
-93.9672
0
LINE
8
Black
10
206.559
20
-101.587
11
206.559
21
-100.869
0
LINE
8
Black
10
206.559
20
-100.869
11
205.841
21
-100.869
0
LINE
8
Black
10
205.841
20
-100.869
11
205.841
21
-101.587
0
LINE
8
Black
10
205.841
20
-101.587
11
206.559
21
-101.587
0
LINE
8
Black
10
206.559
20
-104.127
11
206.559
21
-103.409
0
LINE
8
Black
10
206.559
20
-103.409
11
205.841
21
-103.409
0
LINE
8
Black
10
205.841
20
-103.409
11
205.841
21
-104.127
0
LINE
8
Black
10
205.841
20
-104.127
11
206.559
21
-104.127
0
LINE
8
Black
10
206.559
20
-106.667
11
206.559
21
-105.949
0
LINE
8
Black
10
206.559
20
-105.949
11
205.841
21
-105.949
0
LINE
8
Black
10
205.841
20
-105.949
11
205.841
21
-106.667
0
LINE
8
Black
10
205.841
20
-106.667
11
206.559
21
-106.667
0
LINE
8
Black
10
206.559
20
-114.541
11
206.559
21
-113.823
0
LINE
8
Black
10
206.559
20
-113.823
11
205.841
21
-113.823
0
LINE
8
Black
10
205.841
20
-113.823
11
205.841
21
-114.541
0
LINE
8
Black
10
205.841
20
-114.541
11
206.559
21
-114.541
0
LINE
8
Black
10
206.559
20
-117.081
11
206.559
21
-116.363
0
LINE
8
Black
10
206.559
20
-116.363
11
205.841
21
-116.363
0
LINE
8
Black
10
205.841
20
-116.363
11
205.841
21
-117.081
0
LINE
8
Black
10
205.841
20
-117.081
11
206.559
21
-117.081
0
LINE
8
Black
10
206.559
20
-119.621
11
206.559
21
-118.903
0
LINE
8
Black
10
206.559
20
-118.903
11
205.841
21
-118.903
0
LINE
8
Black
10
205.841
20
-118.903
11
205.841
21
-119.621
0
LINE
8
Black
10
205.841
20
-119.621
11
206.559
21
-119.621
0
LINE
8
Black
10
206.559
20
-126.987
11
206.559
21
-126.269
0
LINE
8
Black
10
206.559
20
-126.269
11
205.841
21
-126.269
0
LINE
8
Black
10
205.841
20
-126.269
11
205.841
21
-126.987
0
LINE
8
Black
10
205.841
20
-126.987
11
206.559
21
-126.987
0
LINE
8
Black
10
206.559
20
-129.527
11
206.559
21
-128.809
0
LINE
8
Black
10
206.559
20
-128.809
11
205.841
21
-128.809
0
LINE
8
Black
10
205.841
20
-128.809
11
205.841
21
-129.527
0
LINE
8
Black
10
205.841
20
-129.527
11
206.559
21
-129.527
0
LINE
8
Black
10
206.559
20
-132.067
11
206.559
21
-131.349
0
LINE
8
Black
10
206.559
20
-131.349
11
205.841
21
-131.349
0
LINE
8
Black
10
205.841
20
-131.349
11
205.841
21
-132.067
0
LINE
8
Black
10
205.841
20
-132.067
11
206.559
21
-132.067
0
LINE
8
Black
10
206.559
20
-134.607
11
206.559
21
-133.889
0
LINE
8
Black
10
206.559
20
-133.889
11
205.841
21
-133.889
0
LINE
8
Black
10
205.841
20
-133.889
11
205.841
21
-134.607
0
LINE
8
Black
10
205.841
20
-134.607
11
206.559
21
-134.607
0
LINE
8
Black
10
146.51
20
-90.179
11
148.034
21
-88.655
0
LINE
8
Black
10
148.034
20
-88.655
11
146.51
21
-87.131
0
LINE
8
Black
10
146.51
20
-87.131
11
144.986
21
-88.655
0
LINE
8
Black
10
144.986
20
-88.655
11
146.51
21
-90.179
0
LINE
8
Black
10
146.51
20
-137.169
11
148.034
21
-135.645
0
LINE
8
Black
10
148.034
20
-135.645
11
146.51
21
-134.121
0
LINE
8
Black
10
146.51
20
-134.121
11
144.986
21
-135.645
0
LINE
8
Black
10
144.986
20
-135.645
11
146.51
21
-137.169
0
LINE
8
Black
10
144.082
20
-69.0823
11
147.918
21
-72.9177
0
LINE
8
Black
10
147.918
20
-69.0823
11
144.082
21
-72.9177
0
CIRCLE
8
Black
10
146
20
-71
40
1.9177
0
LINE
8
Black
10
144.082
20
-152.082
11
147.918
21
-155.918
0
LINE
8
Black
10
147.918
20
-152.082
11
144.082
21
-155.918
0
CIRCLE
8
Black
10
146
20
-154
40
1.9177
0
LINE
8
Black
10
209.082
20
-69.0823
11
212.918
21
-72.9177
0
LINE
8
Black
10
212.918
20
-69.0823
11
209.082
21
-72.9177
0
CIRCLE
8
Black
10
211
20
-71
40
1.9177
0
LINE
8
Black
10
209.082
20
-152.082
11
212.918
21
-155.918
0
LINE
8
Black
10
212.918
20
-152.082
11
209.082
21
-155.918
0
CIRCLE
8
Black
10
211
20
-154
40
1.9177
0
LINE
8
Black
10
142.664
20
-164.707
11
142.664
21
-161.707
0
LINE
8
Black
10
142.664
20
-161.707
11
143.379
21
-161.707
0
LINE
8
Black
10
143.379
20
-161.707
11
143.807
21
-161.85
0
LINE
8
Black
10
143.807
20
-161.85
11
144.093
21
-162.136
0
LINE
8
Black
10
144.093
20
-162.136
11
144.236
21
-162.421
0
LINE
8
Black
10
144.236
20
-162.421
11
144.379
21
-162.993
0
LINE
8
Black
10
144.379
20
-162.993
11
144.379
21
-163.421
0
LINE
8
Black
10
144.379
20
-163.421
11
144.236
21
-163.993
0
LINE
8
Black
10
144.236
20
-163.993
11
144.093
21
-164.279
0
LINE
8
Black
10
144.093
20
-164.279
11
143.807
21
-164.564
0
LINE
8
Black
10
143.807
20
-164.564
11
143.379
21
-164.707
0
LINE
8
Black
10
143.379
20
-164.707
11
142.664
21
-164.707
0
LINE
8
Black
10
145.664
20
-164.707
11
145.664
21
-162.707
0
LINE
8
Black
10
145.664
20
-163.279
11
145.807
21
-162.993
0
LINE
8
Black
10
145.807
20
-162.993
11
145.95
21
-162.85
0
LINE
8
Black
10
145.95
20
-162.85
11
146.236
21
-162.707
0
LINE
8
Black
10
146.236
20
-162.707
11
146.521
21
-162.707
0
LINE
8
Black
10
147.521
20
-164.707
11
147.521
21
-162.707
0
LINE
8
Black
10
147.521
20
-161.707
11
147.379
21
-161.85
0
LINE
8
Black
10
147.379
20
-161.85
11
147.521
21
-161.993
0
LINE
8
Black
10
147.521
20
-161.993
11
147.664
21
-161.85
0
LINE
8
Black
10
147.664
20
-161.85
11
147.521
21
-161.707
0
LINE
8
Black
10
147.521
20
-161.707
11
147.521
21
-161.993
0
LINE
8
Black
10
149.379
20
-164.707
11
149.093
21
-164.564
0
LINE
8
Black
10
149.093
20
-164.564
11
148.95
21
-164.279
0
LINE
8
Black
10
148.95
20
-164.279
11
148.95
21
-161.707
0
LINE
8
Black
10
150.95
20
-164.707
11
150.664
21
-164.564
0
LINE
8
Black
10
150.664
20
-164.564
11
150.521
21
-164.279
0
LINE
8
Black
10
150.521
20
-164.279
11
150.521
21
-161.707
0
LINE
8
Black
10
154.379
20
-164.707
11
154.379
21
-161.707
0
LINE
8
Black
10
154.379
20
-161.707
11
155.379
21
-163.85
0
LINE
8
Black
10
155.379
20
-163.85
11
156.379
21
-161.707
0
LINE
8
Black
10
156.379
20
-161.707
11
156.379
21
-164.707
0
LINE
8
Black
10
159.093
20
-164.707
11
159.093
21
-163.136
0
LINE
8
Black
10
159.093
20
-163.136
11
158.95
21
-162.85
0
LINE
8
Black
10
158.95
20
-162.85
11
158.664
21
-162.707
0
LINE
8
Black
10
158.664
20
-162.707
11
158.093
21
-162.707
0
LINE
8
Black
10
158.093
20
-162.707
11
157.807
21
-162.85
0
LINE
8
Black
10
159.093
20
-164.564
11
158.807
21
-164.707
0
LINE
8
Black
10
158.807
20
-164.707
11
158.093
21
-164.707
0
LINE
8
Black
10
158.093
20
-164.707
11
157.807
21
-164.564
0
LINE
8
Black
10
157.807
20
-164.564
11
157.664
21
-164.279
0
LINE
8
Black
10
157.664
20
-164.279
11
157.664
21
-163.993
0
LINE
8
Black
10
157.664
20
-163.993
11
157.807
21
-163.707
0
LINE
8
Black
10
157.807
20
-163.707
11
158.093
21
-163.564
0
LINE
8
Black
10
158.093
20
-163.564
11
158.807
21
-163.564
0
LINE
8
Black
10
158.807
20
-163.564
11
159.093
21
-163.421
0
LINE
8
Black
10
160.521
20
-162.707
11
160.521
21
-165.707
0
LINE
8
Black
10
160.521
20
-162.85
11
160.807
21
-162.707
0
LINE
8
Black
10
160.807
20
-162.707
11
161.379
21
-162.707
0
LINE
8
Black
10
161.379
20
-162.707
11
161.664
21
-162.85
0
LINE
8
Black
10
161.664
20
-162.85
11
161.807
21
-162.993
0
LINE
8
Black
10
161.807
20
-162.993
11
161.95
21
-163.279
0
LINE
8
Black
10
161.95
20
-163.279
11
161.95
21
-164.136
0
LINE
8
Black
10
161.95
20
-164.136
11
161.807
21
-164.421
0
LINE
8
Black
10
161.807
20
-164.421
11
161.664
21
-164.564
0
LINE
8
Black
10
161.664
20
-164.564
11
161.379
21
-164.707
0
LINE
8
Black
10
161.379
20
-164.707
11
160.807
21
-164.707
0
LINE
8
Black
10
160.807
20
-164.707
11
160.521
21
-164.564
0
LINE
8
Black
10
163.236
20
-164.421
11
163.379
21
-164.564
0
LINE
8
Black
10
163.379
20
-164.564
11
163.236
21
-164.707
0
LINE
8
Black
10
163.236
20
-164.707
11
163.093
21
-164.564
0
LINE
8
Black
10
163.093
20
-164.564
11
163.236
21
-164.421
0
LINE
8
Black
10
163.236
20
-164.421
11
163.236
21
-164.707
0
LINE
8
Black
10
163.236
20
-162.85
11
163.379
21
-162.993
0
LINE
8
Black
10
163.379
20
-162.993
11
163.236
21
-163.136
0
LINE
8
Black
10
163.236
20
-163.136
11
163.093
21
-162.993
0
LINE
8
Black
10
163.093
20
-162.993
11
163.236
21
-162.85
0
LINE
8
Black
10
163.236
20
-162.85
11
163.236
21
-163.136
0
LINE
8
Black
10
139.315
20
-169.333
11
139.95
21
-169.968
0
LINE
8
Black
10
139.95
20
-169.333
11
139.315
21
-169.968
0
LINE
8
Black
10
143.236
20
-168.007
11
143.521
21
-168.007
0
LINE
8
Black
10
143.521
20
-168.007
11
143.807
21
-168.15
0
LINE
8
Black
10
143.807
20
-168.15
11
143.95
21
-168.293
0
LINE
8
Black
10
143.95
20
-168.293
11
144.093
21
-168.579
0
LINE
8
Black
10
144.093
20
-168.579
11
144.236
21
-169.15
0
LINE
8
Black
10
144.236
20
-169.15
11
144.236
21
-169.864
0
LINE
8
Black
10
144.236
20
-169.864
11
144.093
21
-170.436
0
LINE
8
Black
10
144.093
20
-170.436
11
143.95
21
-170.721
0
LINE
8
Black
10
143.95
20
-170.721
11
143.807
21
-170.864
0
LINE
8
Black
10
143.807
20
-170.864
11
143.521
21
-171.007
0
LINE
8
Black
10
143.521
20
-171.007
11
143.236
21
-171.007
0
LINE
8
Black
10
143.236
20
-171.007
11
142.95
21
-170.864
0
LINE
8
Black
10
142.95
20
-170.864
11
142.807
21
-170.721
0
LINE
8
Black
10
142.807
20
-170.721
11
142.664
21
-170.436
0
LINE
8
Black
10
142.664
20
-170.436
11
142.521
21
-169.864
0
LINE
8
Black
10
142.521
20
-169.864
11
142.521
21
-169.15
0
LINE
8
Black
10
142.521
20
-169.15
11
142.664
21
-168.579
0
LINE
8
Black
10
142.664
20
-168.579
11
142.807
21
-168.293
0
LINE
8
Black
10
142.807
20
-168.293
11
142.95
21
-168.15
0
LINE
8
Black
10
142.95
20
-168.15
11
143.236
21
-168.007
0
LINE
8
Black
10
145.521
20
-170.721
11
145.664
21
-170.864
0
LINE
8
Black
10
145.664
20
-170.864
11
145.521
21
-171.007
0
LINE
8
Black
10
145.521
20
-171.007
11
145.379
21
-170.864
0
LINE
8
Black
10
145.379
20
-170.864
11
145.521
21
-170.721
0
LINE
8
Black
10
145.521
20
-170.721
11
145.521
21
-171.007
0
LINE
8
Black
10
148.236
20
-168.007
11
147.664
21
-168.007
0
LINE
8
Black
10
147.664
20
-168.007
11
147.379
21
-168.15
0
LINE
8
Black
10
147.379
20
-168.15
11
147.236
21
-168.293
0
LINE
8
Black
10
147.236
20
-168.293
11
146.95
21
-168.721
0
LINE
8
Black
10
146.95
20
-168.721
11
146.807
21
-169.293
0
LINE
8
Black
10
146.807
20
-169.293
11
146.807
21
-170.436
0
LINE
8
Black
10
146.807
20
-170.436
11
146.95
21
-170.721
0
LINE
8
Black
10
146.95
20
-170.721
11
147.093
21
-170.864
0
LINE
8
Black
10
147.093
20
-170.864
11
147.379
21
-171.007
0
LINE
8
Black
10
147.379
20
-171.007
11
147.95
21
-171.007
0
LINE
8
Black
10
147.95
20
-171.007
11
148.236
21
-170.864
0
LINE
8
Black
10
148.236
20
-170.864
11
148.379
21
-170.721
0
LINE
8
Black
10
148.379
20
-170.721
11
148.521
21
-170.436
0
LINE
8
Black
10
148.521
20
-170.436
11
148.521
21
-169.721
0
LINE
8
Black
10
148.521
20
-169.721
11
148.379
21
-169.436
0
LINE
8
Black
10
148.379
20
-169.436
11
148.236
21
-169.293
0
LINE
8
Black
10
148.236
20
-169.293
11
147.95
21
-169.15
0
LINE
8
Black
10
147.95
20
-169.15
11
147.379
21
-169.15
0
LINE
8
Black
10
147.379
20
-169.15
11
147.093
21
-169.293
0
LINE
8
Black
10
147.093
20
-169.293
11
146.95
21
-169.436
0
LINE
8
Black
10
146.95
20
-169.436
11
146.807
21
-169.721
0
LINE
8
Black
10
151.093
20
-169.007
11
151.093
21
-171.007
0
LINE
8
Black
10
150.379
20
-167.864
11
149.664
21
-170.007
0
LINE
8
Black
10
149.664
20
-170.007
11
151.521
21
-170.007
0
LINE
8
Black
10
152.664
20
-171.007
11
152.664
21
-169.007
0
LINE
8
Black
10
152.664
20
-169.293
11
152.807
21
-169.15
0
LINE
8
Black
10
152.807
20
-169.15
11
153.093
21
-169.007
0
LINE
8
Black
10
153.093
20
-169.007
11
153.521
21
-169.007
0
LINE
8
Black
10
153.521
20
-169.007
11
153.807
21
-169.15
0
LINE
8
Black
10
153.807
20
-169.15
11
153.95
21
-169.436
0
LINE
8
Black
10
153.95
20
-169.436
11
153.95
21
-171.007
0
LINE
8
Black
10
153.95
20
-169.436
11
154.093
21
-169.15
0
LINE
8
Black
10
154.093
20
-169.15
11
154.379
21
-169.007
0
LINE
8
Black
10
154.379
20
-169.007
11
154.807
21
-169.007
0
LINE
8
Black
10
154.807
20
-169.007
11
155.093
21
-169.15
0
LINE
8
Black
10
155.093
20
-169.15
11
155.236
21
-169.436
0
LINE
8
Black
10
155.236
20
-169.436
11
155.236
21
-171.007
0
LINE
8
Black
10
156.664
20
-171.007
11
156.664
21
-169.007
0
LINE
8
Black
10
156.664
20
-169.293
11
156.807
21
-169.15
0
LINE
8
Black
10
156.807
20
-169.15
11
157.093
21
-169.007
0
LINE
8
Black
10
157.093
20
-169.007
11
157.521
21
-169.007
0
LINE
8
Black
10
157.521
20
-169.007
11
157.807
21
-169.15
0
LINE
8
Black
10
157.807
20
-169.15
11
157.95
21
-169.436
0
LINE
8
Black
10
157.95
20
-169.436
11
157.95
21
-171.007
0
LINE
8
Black
10
157.95
20
-169.436
11
158.093
21
-169.15
0
LINE
8
Black
10
158.093
20
-169.15
11
158.379
21
-169.007
0
LINE
8
Black
10
158.379
20
-169.007
11
158.807
21
-169.007
0
LINE
8
Black
10
158.807
20
-169.007
11
159.093
21
-169.15
0
LINE
8
Black
10
159.093
20
-169.15
11
159.236
21
-169.436
0
LINE
8
Black
10
159.236
20
-169.436
11
159.236
21
-171.007
0
LINE
8
Black
10
165.093
20
-167.864
11
162.521
21
-171.721
0
LINE
8
Black
10
168.95
20
-168.007
11
169.236
21
-168.007
0
LINE
8
Black
10
169.236
20
-168.007
11
169.521
21
-168.15
0
LINE
8
Black
10
169.521
20
-168.15
11
169.664
21
-168.293
0
LINE
8
Black
10
169.664
20
-168.293
11
169.807
21
-168.579
0
LINE
8
Black
10
169.807
20
-168.579
11
169.95
21
-169.15
0
LINE
8
Black
10
169.95
20
-169.15
11
169.95
21
-169.864
0
LINE
8
Black
10
169.95
20
-169.864
11
169.807
21
-170.436
0
LINE
8
Black
10
169.807
20
-170.436
11
169.664
21
-170.721
0
LINE
8
Black
10
169.664
20
-170.721
11
169.521
21
-170.864
0
LINE
8
Black
10
169.521
20
-170.864
11
169.236
21
-171.007
0
LINE
8
Black
10
169.236
20
-171.007
11
168.95
21
-171.007
0
LINE
8
Black
10
168.95
20
-171.007
11
168.664
21
-170.864
0
LINE
8
Black
10
168.664
20
-170.864
11
168.521
21
-170.721
0
LINE
8
Black
10
168.521
20
-170.721
11
168.379
21
-170.436
0
LINE
8
Black
10
168.379
20
-170.436
11
168.236
21
-169.864
0
LINE
8
Black
10
168.236
20
-169.864
11
168.236
21
-169.15
0
LINE
8
Black
10
168.236
20
-169.15
11
168.379
21
-168.579
0
LINE
8
Black
10
168.379
20
-168.579
11
168.521
21
-168.293
0
LINE
8
Black
10
168.521
20
-168.293
11
168.664
21
-168.15
0
LINE
8
Black
10
168.664
20
-168.15
11
168.95
21
-168.007
0
LINE
8
Black
10
171.236
20
-170.721
11
171.379
21
-170.864
0
LINE
8
Black
10
171.379
20
-170.864
11
171.236
21
-171.007
0
LINE
8
Black
10
171.236
20
-171.007
11
171.093
21
-170.864
0
LINE
8
Black
10
171.093
20
-170.864
11
171.236
21
-170.721
0
LINE
8
Black
10
171.236
20
-170.721
11
171.236
21
-171.007
0
LINE
8
Black
10
173.236
20
-168.007
11
173.521
21
-168.007
0
LINE
8
Black
10
173.521
20
-168.007
11
173.807
21
-168.15
0
LINE
8
Black
10
173.807
20
-168.15
11
173.95
21
-168.293
0
LINE
8
Black
10
173.95
20
-168.293
11
174.093
21
-168.579
0
LINE
8
Black
10
174.093
20
-168.579
11
174.236
21
-169.15
0
LINE
8
Black
10
174.236
20
-169.15
11
174.236
21
-169.864
0
LINE
8
Black
10
174.236
20
-169.864
11
174.093
21
-170.436
0
LINE
8
Black
10
174.093
20
-170.436
11
173.95
21
-170.721
0
LINE
8
Black
10
173.95
20
-170.721
11
173.807
21
-170.864
0
LINE
8
Black
10
173.807
20
-170.864
11
173.521
21
-171.007
0
LINE
8
Black
10
173.521
20
-171.007
11
173.236
21
-171.007
0
LINE
8
Black
10
173.236
20
-171.007
11
172.95
21
-170.864
0
LINE
8
Black
10
172.95
20
-170.864
11
172.807
21
-170.721
0
LINE
8
Black
10
172.807
20
-170.721
11
172.664
21
-170.436
0
LINE
8
Black
10
172.664
20
-170.436
11
172.521
21
-169.864
0
LINE
8
Black
10
172.521
20
-169.864
11
172.521
21
-169.15
0
LINE
8
Black
10
172.521
20
-169.15
11
172.664
21
-168.579
0
LINE
8
Black
10
172.664
20
-168.579
11
172.807
21
-168.293
0
LINE
8
Black
10
172.807
20
-168.293
11
172.95
21
-168.15
0
LINE
8
Black
10
172.95
20
-168.15
11
173.236
21
-168.007
0
LINE
8
Black
10
175.379
20
-168.293
11
175.521
21
-168.15
0
LINE
8
Black
10
175.521
20
-168.15
11
175.807
21
-168.007
0
LINE
8
Black
10
175.807
20
-168.007
11
176.521
21
-168.007
0
LINE
8
Black
10
176.521
20
-168.007
11
176.807
21
-168.15
0
LINE
8
Black
10
176.807
20
-168.15
11
176.95
21
-168.293
0
LINE
8
Black
10
176.95
20
-168.293
11
177.093
21
-168.579
0
LINE
8
Black
10
177.093
20
-168.579
11
177.093
21
-168.864
0
LINE
8
Black
10
177.093
20
-168.864
11
176.95
21
-169.293
0
LINE
8
Black
10
176.95
20
-169.293
11
175.236
21
-171.007
0
LINE
8
Black
10
175.236
20
-171.007
11
177.093
21
-171.007
0
LINE
8
Black
10
179.807
20
-168.007
11
178.379
21
-168.007
0
LINE
8
Black
10
178.379
20
-168.007
11
178.236
21
-169.436
0
LINE
8
Black
10
178.236
20
-169.436
11
178.379
21
-169.293
0
LINE
8
Black
10
178.379
20
-169.293
11
178.664
21
-169.15
0
LINE
8
Black
10
178.664
20
-169.15
11
179.379
21
-169.15
0
LINE
8
Black
10
179.379
20
-169.15
11
179.664
21
-169.293
0
LINE
8
Black
10
179.664
20
-169.293
11
179.807
21
-169.436
0
LINE
8
Black
10
179.807
20
-169.436
11
179.95
21
-169.721
0
LINE
8
Black
10
179.95
20
-169.721
11
179.95
21
-170.436
0
LINE
8
Black
10
179.95
20
-170.436
11
179.807
21
-170.721
0
LINE
8
Black
10
179.807
20
-170.721
11
179.664
21
-170.864
0
LINE
8
Black
10
179.664
20
-170.864
11
179.379
21
-171.007
0
LINE
8
Black
10
179.379
20
-171.007
11
178.664
21
-171.007
0
LINE
8
Black
10
178.664
20
-171.007
11
178.379
21
-170.864
0
LINE
8
Black
10
178.379
20
-170.864
11
178.236
21
-170.721
0
LINE
8
Black
10
181.093
20
-168.007
11
181.093
21
-168.579
0
LINE
8
Black
10
182.236
20
-168.007
11
182.236
21
-168.579
0
LINE
8
Black
10
186.664
20
-172.15
11
186.521
21
-172.007
0
LINE
8
Black
10
186.521
20
-172.007
11
186.236
21
-171.579
0
LINE
8
Black
10
186.236
20
-171.579
11
186.093
21
-171.293
0
LINE
8
Black
10
186.093
20
-171.293
11
185.95
21
-170.864
0
LINE
8
Black
10
185.95
20
-170.864
11
185.807
21
-170.15
0
LINE
8
Black
10
185.807
20
-170.15
11
185.807
21
-169.579
0
LINE
8
Black
10
185.807
20
-169.579
11
185.95
21
-168.864
0
LINE
8
Black
10
185.95
20
-168.864
11
186.093
21
-168.436
0
LINE
8
Black
10
186.093
20
-168.436
11
186.236
21
-168.15
0
LINE
8
Black
10
186.236
20
-168.15
11
186.521
21
-167.721
0
LINE
8
Black
10
186.521
20
-167.721
11
186.664
21
-167.579
0
LINE
8
Black
10
188.236
20
-169.293
11
187.95
21
-169.15
0
LINE
8
Black
10
187.95
20
-169.15
11
187.807
21
-169.007
0
LINE
8
Black
10
187.807
20
-169.007
11
187.664
21
-168.721
0
LINE
8
Black
10
187.664
20
-168.721
11
187.664
21
-168.579
0
LINE
8
Black
10
187.664
20
-168.579
11
187.807
21
-168.293
0
LINE
8
Black
10
187.807
20
-168.293
11
187.95
21
-168.15
0
LINE
8
Black
10
187.95
20
-168.15
11
188.236
21
-168.007
0
LINE
8
Black
10
188.236
20
-168.007
11
188.807
21
-168.007
0
LINE
8
Black
10
188.807
20
-168.007
11
189.093
21
-168.15
0
LINE
8
Black
10
189.093
20
-168.15
11
189.236
21
-168.293
0
LINE
8
Black
10
189.236
20
-168.293
11
189.379
21
-168.579
0
LINE
8
Black
10
189.379
20
-168.579
11
189.379
21
-168.721
0
LINE
8
Black
10
189.379
20
-168.721
11
189.236
21
-169.007
0
LINE
8
Black
10
189.236
20
-169.007
11
189.093
21
-169.15
0
LINE
8
Black
10
189.093
20
-169.15
11
188.807
21
-169.293
0
LINE
8
Black
10
188.807
20
-169.293
11
188.236
21
-169.293
0
LINE
8
Black
10
188.236
20
-169.293
11
187.95
21
-169.436
0
LINE
8
Black
10
187.95
20
-169.436
11
187.807
21
-169.579
0
LINE
8
Black
10
187.807
20
-169.579
11
187.664
21
-169.864
0
LINE
8
Black
10
187.664
20
-169.864
11
187.664
21
-170.436
0
LINE
8
Black
10
187.664
20
-170.436
11
187.807
21
-170.721
0
LINE
8
Black
10
187.807
20
-170.721
11
187.95
21
-170.864
0
LINE
8
Black
10
187.95
20
-170.864
11
188.236
21
-171.007
0
LINE
8
Black
10
188.236
20
-171.007
11
188.807
21
-171.007
0
LINE
8
Black
10
188.807
20
-171.007
11
189.093
21
-170.864
0
LINE
8
Black
10
189.093
20
-170.864
11
189.236
21
-170.721
0
LINE
8
Black
10
189.236
20
-170.721
11
189.379
21
-170.436
0
LINE
8
Black
10
189.379
20
-170.436
11
189.379
21
-169.864
0
LINE
8
Black
10
189.379
20
-169.864
11
189.236
21
-169.579
0
LINE
8
Black
10
189.236
20
-169.579
11
189.093
21
-169.436
0
LINE
8
Black
10
189.093
20
-169.436
11
188.807
21
-169.293
0
LINE
8
Black
10
192.95
20
-171.007
11
192.95
21
-168.007
0
LINE
8
Black
10
194.236
20
-171.007
11
194.236
21
-169.436
0
LINE
8
Black
10
194.236
20
-169.436
11
194.093
21
-169.15
0
LINE
8
Black
10
194.093
20
-169.15
11
193.807
21
-169.007
0
LINE
8
Black
10
193.807
20
-169.007
11
193.379
21
-169.007
0
LINE
8
Black
10
193.379
20
-169.007
11
193.093
21
-169.15
0
LINE
8
Black
10
193.093
20
-169.15
11
192.95
21
-169.293
0
LINE
8
Black
10
196.093
20
-171.007
11
195.807
21
-170.864
0
LINE
8
Black
10
195.807
20
-170.864
11
195.664
21
-170.721
0
LINE
8
Black
10
195.664
20
-170.721
11
195.521
21
-170.436
0
LINE
8
Black
10
195.521
20
-170.436
11
195.521
21
-169.579
0
LINE
8
Black
10
195.521
20
-169.579
11
195.664
21
-169.293
0
LINE
8
Black
10
195.664
20
-169.293
11
195.807
21
-169.15
0
LINE
8
Black
10
195.807
20
-169.15
11
196.093
21
-169.007
0
LINE
8
Black
10
196.093
20
-169.007
11
196.521
21
-169.007
0
LINE
8
Black
10
196.521
20
-169.007
11
196.807
21
-169.15
0
LINE
8
Black
10
196.807
20
-169.15
11
196.95
21
-169.293
0
LINE
8
Black
10
196.95
20
-169.293
11
197.093
21
-169.579
0
LINE
8
Black
10
197.093
20
-169.579
11
197.093
21
-170.436
0
LINE
8
Black
10
197.093
20
-170.436
11
196.95
21
-170.721
0
LINE
8
Black
10
196.95
20
-170.721
11
196.807
21
-170.864
0
LINE
8
Black
10
196.807
20
-170.864
11
196.521
21
-171.007
0
LINE
8
Black
10
196.521
20
-171.007
11
196.093
21
-171.007
0
LINE
8
Black
10
198.807
20
-171.007
11
198.521
21
-170.864
0
LINE
8
Black
10
198.521
20
-170.864
11
198.379
21
-170.579
0
LINE
8
Black
10
198.379
20
-170.579
11
198.379
21
-168.007
0
LINE
8
Black
10
201.093
20
-170.864
11
200.807
21
-171.007
0
LINE
8
Black
10
200.807
20
-171.007
11
200.236
21
-171.007
0
LINE
8
Black
10
200.236
20
-171.007
11
199.95
21
-170.864
0
LINE
8
Black
10
199.95
20
-170.864
11
199.807
21
-170.579
0
LINE
8
Black
10
199.807
20
-170.579
11
199.807
21
-169.436
0
LINE
8
Black
10
199.807
20
-169.436
11
199.95
21
-169.15
0
LINE
8
Black
10
199.95
20
-169.15
11
200.236
21
-169.007
0
LINE
8
Black
10
200.236
20
-169.007
11
200.807
21
-169.007
0
LINE
8
Black
10
200.807
20
-169.007
11
201.093
21
-169.15
0
LINE
8
Black
10
201.093
20
-169.15
11
201.236
21
-169.436
0
LINE
8
Black
10
201.236
20
-169.436
11
201.236
21
-169.721
0
LINE
8
Black
10
201.236
20
-169.721
11
199.807
21
-170.007
0
LINE
8
Black
10
202.379
20
-170.864
11
202.664
21
-171.007
0
LINE
8
Black
10
202.664
20
-171.007
11
203.236
21
-171.007
0
LINE
8
Black
10
203.236
20
-171.007
11
203.521
21
-170.864
0
LINE
8
Black
10
203.521
20
-170.864
11
203.664
21
-170.579
0
LINE
8
Black
10
203.664
20
-170.579
11
203.664
21
-170.436
0
LINE
8
Black
10
203.664
20
-170.436
11
203.521
21
-170.15
0
LINE
8
Black
10
203.521
20
-170.15
11
203.236
21
-170.007
0
LINE
8
Black
10
203.236
20
-170.007
11
202.807
21
-170.007
0
LINE
8
Black
10
202.807
20
-170.007
11
202.521
21
-169.864
0
LINE
8
Black
10
202.521
20
-169.864
11
202.379
21
-169.579
0
LINE
8
Black
10
202.379
20
-169.579
11
202.379
21
-169.436
0
LINE
8
Black
10
202.379
20
-169.436
11
202.521
21
-169.15
0
LINE
8
Black
10
202.521
20
-169.15
11
202.807
21
-169.007
0
LINE
8
Black
10
202.807
20
-169.007
11
203.236
21
-169.007
0
LINE
8
Black
10
203.236
20
-169.007
11
203.521
21
-169.15
0
LINE
8
Black
10
204.664
20
-172.15
11
204.807
21
-172.007
0
LINE
8
Black
10
204.807
20
-172.007
11
205.093
21
-171.579
0
LINE
8
Black
10
205.093
20
-171.579
11
205.236
21
-171.293
0
LINE
8
Black
10
205.236
20
-171.293
11
205.379
21
-170.864
0
LINE
8
Black
10
205.379
20
-170.864
11
205.521
21
-170.15
0
LINE
8
Black
10
205.521
20
-170.15
11
205.521
21
-169.579
0
LINE
8
Black
10
205.521
20
-169.579
11
205.379
21
-168.864
0
LINE
8
Black
10
205.379
20
-168.864
11
205.236
21
-168.436
0
LINE
8
Black
10
205.236
20
-168.436
11
205.093
21
-168.15
0
LINE
8
Black
10
205.093
20
-168.15
11
204.807
21
-167.721
0
LINE
8
Black
10
204.807
20
-167.721
11
204.664
21
-167.579
0
CIRCLE
8
Black
10
139.55
20
-173.61
40
0.4
0
LINE
8
Black
10
143.236
20
-171.967
11
143.521
21
-171.967
0
LINE
8
Black
10
143.521
20
-171.967
11
143.807
21
-172.11
0
LINE
8
Black
10
143.807
20
-172.11
11
143.95
21
-172.253
0
LINE
8
Black
10
143.95
20
-172.253
11
144.093
21
-172.539
0
LINE
8
Black
10
144.093
20
-172.539
11
144.236
21
-173.11
0
LINE
8
Black
10
144.236
20
-173.11
11
144.236
21
-173.824
0
LINE
8
Black
10
144.236
20
-173.824
11
144.093
21
-174.396
0
LINE
8
Black
10
144.093
20
-174.396
11
143.95
21
-174.681
0
LINE
8
Black
10
143.95
20
-174.681
11
143.807
21
-174.824
0
LINE
8
Black
10
143.807
20
-174.824
11
143.521
21
-174.967
0
LINE
8
Black
10
143.521
20
-174.967
11
143.236
21
-174.967
0
LINE
8
Black
10
143.236
20
-174.967
11
142.95
21
-174.824
0
LINE
8
Black
10
142.95
20
-174.824
11
142.807
21
-174.681
0
LINE
8
Black
10
142.807
20
-174.681
11
142.664
21
-174.396
0
LINE
8
Black
10
142.664
20
-174.396
11
142.521
21
-173.824
0
LINE
8
Black
10
142.521
20
-173.824
11
142.521
21
-173.11
0
LINE
8
Black
10
142.521
20
-173.11
11
142.664
21
-172.539
0
LINE
8
Black
10
142.664
20
-172.539
11
142.807
21
-172.253
0
LINE
8
Black
10
142.807
20
-172.253
11
142.95
21
-172.11
0
LINE
8
Black
10
142.95
20
-172.11
11
143.236
21
-171.967
0
LINE
8
Black
10
145.521
20
-174.681
11
145.664
21
-174.824
0
LINE
8
Black
10
145.664
20
-174.824
11
145.521
21
-174.967
0
LINE
8
Black
10
145.521
20
-174.967
11
145.379
21
-174.824
0
LINE
8
Black
10
145.379
20
-174.824
11
145.521
21
-174.681
0
LINE
8
Black
10
145.521
20
-174.681
11
145.521
21
-174.967
0
LINE
8
Black
10
147.379
20
-173.253
11
147.093
21
-173.11
0
LINE
8
Black
10
147.093
20
-173.11
11
146.95
21
-172.967
0
LINE
8
Black
10
146.95
20
-172.967
11
146.807
21
-172.681
0
LINE
8
Black
10
146.807
20
-172.681
11
146.807
21
-172.539
0
LINE
8
Black
10
146.807
20
-172.539
11
146.95
21
-172.253
0
LINE
8
Black
10
146.95
20
-172.253
11
147.093
21
-172.11
0
LINE
8
Black
10
147.093
20
-172.11
11
147.379
21
-171.967
0
LINE
8
Black
10
147.379
20
-171.967
11
147.95
21
-171.967
0
LINE
8
Black
10
147.95
20
-171.967
11
148.236
21
-172.11
0
LINE
8
Black
10
148.236
20
-172.11
11
148.379
21
-172.253
0
LINE
8
Black
10
148.379
20
-172.253
11
148.521
21
-172.539
0
LINE
8
Black
10
148.521
20
-172.539
11
148.521
21
-172.681
0
LINE
8
Black
10
148.521
20
-172.681
11
148.379
21
-172.967
0
LINE
8
Black
10
148.379
20
-172.967
11
148.236
21
-173.11
0
LINE
8
Black
10
148.236
20
-173.11
11
147.95
21
-173.253
0
LINE
8
Black
10
147.95
20
-173.253
11
147.379
21
-173.253
0
LINE
8
Black
10
147.379
20
-173.253
11
147.093
21
-173.396
0
LINE
8
Black
10
147.093
20
-173.396
11
146.95
21
-173.539
0
LINE
8
Black
10
146.95
20
-173.539
11
146.807
21
-173.824
0
LINE
8
Black
10
146.807
20
-173.824
11
146.807
21
-174.396
0
LINE
8
Black
10
146.807
20
-174.396
11
146.95
21
-174.681
0
LINE
8
Black
10
146.95
20
-174.681
11
147.093
21
-174.824
0
LINE
8
Black
10
147.093
20
-174.824
11
147.379
21
-174.967
0
LINE
8
Black
10
147.379
20
-174.967
11
147.95
21
-174.967
0
LINE
8
Black
10
147.95
20
-174.967
11
148.236
21
-174.824
0
LINE
8
Black
10
148.236
20
-174.824
11
148.379
21
-174.681
0
LINE
8
Black
10
148.379
20
-174.681
11
148.521
21
-174.396
0
LINE
8
Black
10
148.521
20
-174.396
11
148.521
21
-173.824
0
LINE
8
Black
10
148.521
20
-173.824
11
148.379
21
-173.539
0
LINE
8
Black
10
148.379
20
-173.539
11
148.236
21
-173.396
0
LINE
8
Black
10
148.236
20
-173.396
11
147.95
21
-173.253
0
LINE
8
Black
10
150.379
20
-171.967
11
150.664
21
-171.967
0
LINE
8
Black
10
150.664
20
-171.967
11
150.95
21
-172.11
0
LINE
8
Black
10
150.95
20
-172.11
11
151.093
21
-172.253
0
LINE
8
Black
10
151.093
20
-172.253
11
151.236
21
-172.539
0
LINE
8
Black
10
151.236
20
-172.539
11
151.379
21
-173.11
0
LINE
8
Black
10
151.379
20
-173.11
11
151.379
21
-173.824
0
LINE
8
Black
10
151.379
20
-173.824
11
151.236
21
-174.396
0
LINE
8
Black
10
151.236
20
-174.396
11
151.093
21
-174.681
0
LINE
8
Black
10
151.093
20
-174.681
11
150.95
21
-174.824
0
LINE
8
Black
10
150.95
20
-174.824
11
150.664
21
-174.967
0
LINE
8
Black
10
150.664
20
-174.967
11
150.379
21
-174.967
0
LINE
8
Black
10
150.379
20
-174.967
11
150.093
21
-174.824
0
LINE
8
Black
10
150.093
20
-174.824
11
149.95
21
-174.681
0
LINE
8
Black
10
149.95
20
-174.681
11
149.807
21
-174.396
0
LINE
8
Black
10
149.807
20
-174.396
11
149.664
21
-173.824
0
LINE
8
Black
10
149.664
20
-173.824
11
149.664
21
-173.11
0
LINE
8
Black
10
149.664
20
-173.11
11
149.807
21
-172.539
0
LINE
8
Black
10
149.807
20
-172.539
11
149.95
21
-172.253
0
LINE
8
Black
10
149.95
20
-172.253
11
150.093
21
-172.11
0
LINE
8
Black
10
150.093
20
-172.11
11
150.379
21
-171.967
0
LINE
8
Black
10
152.664
20
-174.967
11
152.664
21
-172.967
0
LINE
8
Black
10
152.664
20
-173.253
11
152.807
21
-173.11
0
LINE
8
Black
10
152.807
20
-173.11
11
153.093
21
-172.967
0
LINE
8
Black
10
153.093
20
-172.967
11
153.521
21
-172.967
0
LINE
8
Black
10
153.521
20
-172.967
11
153.807
21
-173.11
0
LINE
8
Black
10
153.807
20
-173.11
11
153.95
21
-173.396
0
LINE
8
Black
10
153.95
20
-173.396
11
153.95
21
-174.967
0
LINE
8
Black
10
153.95
20
-173.396
11
154.093
21
-173.11
0
LINE
8
Black
10
154.093
20
-173.11
11
154.379
21
-172.967
0
LINE
8
Black
10
154.379
20
-172.967
11
154.807
21
-172.967
0
LINE
8
Black
10
154.807
20
-172.967
11
155.093
21
-173.11
0
LINE
8
Black
10
155.093
20
-173.11
11
155.236
21
-173.396
0
LINE
8
Black
10
155.236
20
-173.396
11
155.236
21
-174.967
0
LINE
8
Black
10
156.664
20
-174.967
11
156.664
21
-172.967
0
LINE
8
Black
10
156.664
20
-173.253
11
156.807
21
-173.11
0
LINE
8
Black
10
156.807
20
-173.11
11
157.093
21
-172.967
0
LINE
8
Black
10
157.093
20
-172.967
11
157.521
21
-172.967
0
LINE
8
Black
10
157.521
20
-172.967
11
157.807
21
-173.11
0
LINE
8
Black
10
157.807
20
-173.11
11
157.95
21
-173.396
0
LINE
8
Black
10
157.95
20
-173.396
11
157.95
21
-174.967
0
LINE
8
Black
10
157.95
20
-173.396
11
158.093
21
-173.11
0
LINE
8
Black
10
158.093
20
-173.11
11
158.379
21
-172.967
0
LINE
8
Black
10
158.379
20
-172.967
11
158.807
21
-172.967
0
LINE
8
Black
10
158.807
20
-172.967
11
159.093
21
-173.11
0
LINE
8
Black
10
159.093
20
-173.11
11
159.236
21
-173.396
0
LINE
8
Black
10
159.236
20
-173.396
11
159.236
21
-174.967
0
LINE
8
Black
10
165.093
20
-171.824
11
162.521
21
-175.681
0
LINE
8
Black
10
168.95
20
-171.967
11
169.236
21
-171.967
0
LINE
8
Black
10
169.236
20
-171.967
11
169.521
21
-172.11
0
LINE
8
Black
10
169.521
20
-172.11
11
169.664
21
-172.253
0
LINE
8
Black
10
169.664
20
-172.253
11
169.807
21
-172.539
0
LINE
8
Black
10
169.807
20
-172.539
11
169.95
21
-173.11
0
LINE
8
Black
10
169.95
20
-173.11
11
169.95
21
-173.824
0
LINE
8
Black
10
169.95
20
-173.824
11
169.807
21
-174.396
0
LINE
8
Black
10
169.807
20
-174.396
11
169.664
21
-174.681
0
LINE
8
Black
10
169.664
20
-174.681
11
169.521
21
-174.824
0
LINE
8
Black
10
169.521
20
-174.824
11
169.236
21
-174.967
0
LINE
8
Black
10
169.236
20
-174.967
11
168.95
21
-174.967
0
LINE
8
Black
10
168.95
20
-174.967
11
168.664
21
-174.824
0
LINE
8
Black
10
168.664
20
-174.824
11
168.521
21
-174.681
0
LINE
8
Black
10
168.521
20
-174.681
11
168.379
21
-174.396
0
LINE
8
Black
10
168.379
20
-174.396
11
168.236
21
-173.824
0
LINE
8
Black
10
168.236
20
-173.824
11
168.236
21
-173.11
0
LINE
8
Black
10
168.236
20
-173.11
11
168.379
21
-172.539
0
LINE
8
Black
10
168.379
20
-172.539
11
168.521
21
-172.253
0
LINE
8
Black
10
168.521
20
-172.253
11
168.664
21
-172.11
0
LINE
8
Black
10
168.664
20
-172.11
11
168.95
21
-171.967
0
LINE
8
Black
10
171.236
20
-174.681
11
171.379
21
-174.824
0
LINE
8
Black
10
171.379
20
-174.824
11
171.236
21
-174.967
0
LINE
8
Black
10
171.236
20
-174.967
11
171.093
21
-174.824
0
LINE
8
Black
10
171.093
20
-174.824
11
171.236
21
-174.681
0
LINE
8
Black
10
171.236
20
-174.681
11
171.236
21
-174.967
0
LINE
8
Black
10
173.236
20
-171.967
11
173.521
21
-171.967
0
LINE
8
Black
10
173.521
20
-171.967
11
173.807
21
-172.11
0
LINE
8
Black
10
173.807
20
-172.11
11
173.95
21
-172.253
0
LINE
8
Black
10
173.95
20
-172.253
11
174.093
21
-172.539
0
LINE
8
Black
10
174.093
20
-172.539
11
174.236
21
-173.11
0
LINE
8
Black
10
174.236
20
-173.11
11
174.236
21
-173.824
0
LINE
8
Black
10
174.236
20
-173.824
11
174.093
21
-174.396
0
LINE
8
Black
10
174.093
20
-174.396
11
173.95
21
-174.681
0
LINE
8
Black
10
173.95
20
-174.681
11
173.807
21
-174.824
0
LINE
8
Black
10
173.807
20
-174.824
11
173.521
21
-174.967
0
LINE
8
Black
10
173.521
20
-174.967
11
173.236
21
-174.967
0
LINE
8
Black
10
173.236
20
-174.967
11
172.95
21
-174.824
0
LINE
8
Black
10
172.95
20
-174.824
11
172.807
21
-174.681
0
LINE
8
Black
10
172.807
20
-174.681
11
172.664
21
-174.396
0
LINE
8
Black
10
172.664
20
-174.396
11
172.521
21
-173.824
0
LINE
8
Black
10
172.521
20
-173.824
11
172.521
21
-173.11
0
LINE
8
Black
10
172.521
20
-173.11
11
172.664
21
-172.539
0
LINE
8
Black
10
172.664
20
-172.539
11
172.807
21
-172.253
0
LINE
8
Black
10
172.807
20
-172.253
11
172.95
21
-172.11
0
LINE
8
Black
10
172.95
20
-172.11
11
173.236
21
-171.967
0
LINE
8
Black
10
175.236
20
-171.967
11
177.093
21
-171.967
0
LINE
8
Black
10
177.093
20
-171.967
11
176.093
21
-173.11
0
LINE
8
Black
10
176.093
20
-173.11
11
176.521
21
-173.11
0
LINE
8
Black
10
176.521
20
-173.11
11
176.807
21
-173.253
0
LINE
8
Black
10
176.807
20
-173.253
11
176.95
21
-173.396
0
LINE
8
Black
10
176.95
20
-173.396
11
177.093
21
-173.681
0
LINE
8
Black
10
177.093
20
-173.681
11
177.093
21
-174.396
0
LINE
8
Black
10
177.093
20
-174.396
11
176.95
21
-174.681
0
LINE
8
Black
10
176.95
20
-174.681
11
176.807
21
-174.824
0
LINE
8
Black
10
176.807
20
-174.824
11
176.521
21
-174.967
0
LINE
8
Black
10
176.521
20
-174.967
11
175.664
21
-174.967
0
LINE
8
Black
10
175.664
20
-174.967
11
175.379
21
-174.824
0
LINE
8
Black
10
175.379
20
-174.824
11
175.236
21
-174.681
0
LINE
8
Black
10
179.95
20
-174.967
11
178.236
21
-174.967
0
LINE
8
Black
10
179.093
20
-174.967
11
179.093
21
-171.967
0
LINE
8
Black
10
179.093
20
-171.967
11
178.807
21
-172.396
0
LINE
8
Black
10
178.807
20
-172.396
11
178.521
21
-172.681
0
LINE
8
Black
10
178.521
20
-172.681
11
178.236
21
-172.824
0
LINE
8
Black
10
181.093
20
-171.967
11
181.093
21
-172.539
0
LINE
8
Black
10
182.236
20
-171.967
11
182.236
21
-172.539
0
LINE
8
Black
10
186.664
20
-176.11
11
186.521
21
-175.967
0
LINE
8
Black
10
186.521
20
-175.967
11
186.236
21
-175.539
0
LINE
8
Black
10
186.236
20
-175.539
11
186.093
21
-175.253
0
LINE
8
Black
10
186.093
20
-175.253
11
185.95
21
-174.824
0
LINE
8
Black
10
185.95
20
-174.824
11
185.807
21
-174.11
0
LINE
8
Black
10
185.807
20
-174.11
11
185.807
21
-173.539
0
LINE
8
Black
10
185.807
20
-173.539
11
185.95
21
-172.824
0
LINE
8
Black
10
185.95
20
-172.824
11
186.093
21
-172.396
0
LINE
8
Black
10
186.093
20
-172.396
11
186.236
21
-172.11
0
LINE
8
Black
10
186.236
20
-172.11
11
186.521
21
-171.681
0
LINE
8
Black
10
186.521
20
-171.681
11
186.664
21
-171.539
0
LINE
8
Black
10
189.093
20
-172.967
11
189.093
21
-174.967
0
LINE
8
Black
10
188.379
20
-171.824
11
187.664
21
-173.967
0
LINE
8
Black
10
187.664
20
-173.967
11
189.521
21
-173.967
0
LINE
8
Black
10
190.521
20
-172.253
11
190.664
21
-172.11
0
LINE
8
Black
10
190.664
20
-172.11
11
190.95
21
-171.967
0
LINE
8
Black
10
190.95
20
-171.967
11
191.664
21
-171.967
0
LINE
8
Black
10
191.664
20
-171.967
11
191.95
21
-172.11
0
LINE
8
Black
10
191.95
20
-172.11
11
192.093
21
-172.253
0
LINE
8
Black
10
192.093
20
-172.253
11
192.236
21
-172.539
0
LINE
8
Black
10
192.236
20
-172.539
11
192.236
21
-172.824
0
LINE
8
Black
10
192.236
20
-172.824
11
192.093
21
-173.253
0
LINE
8
Black
10
192.093
20
-173.253
11
190.379
21
-174.967
0
LINE
8
Black
10
190.379
20
-174.967
11
192.236
21
-174.967
0
LINE
8
Black
10
195.807
20
-174.967
11
195.807
21
-171.967
0
LINE
8
Black
10
197.093
20
-174.967
11
197.093
21
-173.396
0
LINE
8
Black
10
197.093
20
-173.396
11
196.95
21
-173.11
0
LINE
8
Black
10
196.95
20
-173.11
11
196.664
21
-172.967
0
LINE
8
Black
10
196.664
20
-172.967
11
196.236
21
-172.967
0
LINE
8
Black
10
196.236
20
-172.967
11
195.95
21
-173.11
0
LINE
8
Black
10
195.95
20
-173.11
11
195.807
21
-173.253
0
LINE
8
Black
10
198.95
20
-174.967
11
198.664
21
-174.824
0
LINE
8
Black
10
198.664
20
-174.824
11
198.521
21
-174.681
0
LINE
8
Black
10
198.521
20
-174.681
11
198.379
21
-174.396
0
LINE
8
Black
10
198.379
20
-174.396
11
198.379
21
-173.539
0
LINE
8
Black
10
198.379
20
-173.539
11
198.521
21
-173.253
0
LINE
8
Black
10
198.521
20
-173.253
11
198.664
21
-173.11
0
LINE
8
Black
10
198.664
20
-173.11
11
198.95
21
-172.967
0
LINE
8
Black
10
198.95
20
-172.967
11
199.379
21
-172.967
0
LINE
8
Black
10
199.379
20
-172.967
11
199.664
21
-173.11
0
LINE
8
Black
10
199.664
20
-173.11
11
199.807
21
-173.253
0
LINE
8
Black
10
199.807
20
-173.253
11
199.95
21
-173.539
0
LINE
8
Black
10
199.95
20
-173.539
11
199.95
21
-174.396
0
LINE
8
Black
10
199.95
20
-174.396
11
199.807
21
-174.681
0
LINE
8
Black
10
199.807
20
-174.681
11
199.664
21
-174.824
0
LINE
8
Black
10
199.664
20
-174.824
11
199.379
21
-174.967
0
LINE
8
Black
10
199.379
20
-174.967
11
198.95
21
-174.967
0
LINE
8
Black
10
201.664
20
-174.967
11
201.379
21
-174.824
0
LINE
8
Black
10
201.379
20
-174.824
11
201.236
21
-174.539
0
LINE
8
Black
10
201.236
20
-174.539
11
201.236
21
-171.967
0
LINE
8
Black
10
203.95
20
-174.824
11
203.664
21
-174.967
0
LINE
8
Black
10
203.664
20
-174.967
11
203.093
21
-174.967
0
LINE
8
Black
10
203.093
20
-174.967
11
202.807
21
-174.824
0
LINE
8
Black
10
202.807
20
-174.824
11
202.664
21
-174.539
0
LINE
8
Black
10
202.664
20
-174.539
11
202.664
21
-173.396
0
LINE
8
Black
10
202.664
20
-173.396
11
202.807
21
-173.11
0
LINE
8
Black
10
202.807
20
-173.11
11
203.093
21
-172.967
0
LINE
8
Black
10
203.093
20
-172.967
11
203.664
21
-172.967
0
LINE
8
Black
10
203.664
20
-172.967
11
203.95
21
-173.11
0
LINE
8
Black
10
203.95
20
-173.11
11
204.093
21
-173.396
0
LINE
8
Black
10
204.093
20
-173.396
11
204.093
21
-173.681
0
LINE
8
Black
10
204.093
20
-173.681
11
202.664
21
-173.967
0
LINE
8
Black
10
205.236
20
-174.824
11
205.521
21
-174.967
0
LINE
8
Black
10
205.521
20
-174.967
11
206.093
21
-174.967
0
LINE
8
Black
10
206.093
20
-174.967
11
206.379
21
-174.824
0
LINE
8
Black
10
206.379
20
-174.824
11
206.521
21
-174.539
0
LINE
8
Black
10
206.521
20
-174.539
11
206.521
21
-174.396
0
LINE
8
Black
10
206.521
20
-174.396
11
206.379
21
-174.11
0
LINE
8
Black
10
206.379
20
-174.11
11
206.093
21
-173.967
0
LINE
8
Black
10
206.093
20
-173.967
11
205.664
21
-173.967
0
LINE
8
Black
10
205.664
20
-173.967
11
205.379
21
-173.824
0
LINE
8
Black
10
205.379
20
-173.824
11
205.236
21
-173.539
0
LINE
8
Black
10
205.236
20
-173.539
11
205.236
21
-173.396
0
LINE
8
Black
10
205.236
20
-173.396
11
205.379
21
-173.11
0
LINE
8
Black
10
205.379
20
-173.11
11
205.664
21
-172.967
0
LINE
8
Black
10
205.664
20
-172.967
11
206.093
21
-172.967
0
LINE
8
Black
10
206.093
20
-172.967
11
206.379
21
-173.11
0
LINE
8
Black
10
207.521
20
-176.11
11
207.664
21
-175.967
0
LINE
8
Black
10
207.664
20
-175.967
11
207.95
21
-175.539
0
LINE
8
Black
10
207.95
20
-175.539
11
208.093
21
-175.253
0
LINE
8
Black
10
208.093
20
-175.253
11
208.236
21
-174.824
0
LINE
8
Black
10
208.236
20
-174.824
11
208.379
21
-174.11
0
LINE
8
Black
10
208.379
20
-174.11
11
208.379
21
-173.539
0
LINE
8
Black
10
208.379
20
-173.539
11
208.236
21
-172.824
0
LINE
8
Black
10
208.236
20
-172.824
11
208.093
21
-172.396
0
LINE
8
Black
10
208.093
20
-172.396
11
207.95
21
-172.11
0
LINE
8
Black
10
207.95
20
-172.11
11
207.664
21
-171.681
0
LINE
8
Black
10
207.664
20
-171.681
11
207.521
21
-171.539
0
LINE
8
Black
10
139.45
20
-177.07
11
139.45
21
-178.07
0
LINE
8
Black
10
138.949
20
-177.57
11
139.95
21
-177.57
0
LINE
8
Black
10
144.236
20
-178.927
11
142.521
21
-178.927
0
LINE
8
Black
10
143.379
20
-178.927
11
143.379
21
-175.927
0
LINE
8
Black
10
143.379
20
-175.927
11
143.093
21
-176.356
0
LINE
8
Black
10
143.093
20
-176.356
11
142.807
21
-176.641
0
LINE
8
Black
10
142.807
20
-176.641
11
142.521
21
-176.784
0
LINE
8
Black
10
145.521
20
-178.641
11
145.664
21
-178.784
0
LINE
8
Black
10
145.664
20
-178.784
11
145.521
21
-178.927
0
LINE
8
Black
10
145.521
20
-178.927
11
145.379
21
-178.784
0
LINE
8
Black
10
145.379
20
-178.784
11
145.521
21
-178.641
0
LINE
8
Black
10
145.521
20
-178.641
11
145.521
21
-178.927
0
LINE
8
Black
10
147.521
20
-175.927
11
147.807
21
-175.927
0
LINE
8
Black
10
147.807
20
-175.927
11
148.093
21
-176.07
0
LINE
8
Black
10
148.093
20
-176.07
11
148.236
21
-176.213
0
LINE
8
Black
10
148.236
20
-176.213
11
148.379
21
-176.499
0
LINE
8
Black
10
148.379
20
-176.499
11
148.521
21
-177.07
0
LINE
8
Black
10
148.521
20
-177.07
11
148.521
21
-177.784
0
LINE
8
Black
10
148.521
20
-177.784
11
148.379
21
-178.356
0
LINE
8
Black
10
148.379
20
-178.356
11
148.236
21
-178.641
0
LINE
8
Black
10
148.236
20
-178.641
11
148.093
21
-178.784
0
LINE
8
Black
10
148.093
20
-178.784
11
147.807
21
-178.927
0
LINE
8
Black
10
147.807
20
-178.927
11
147.521
21
-178.927
0
LINE
8
Black
10
147.521
20
-178.927
11
147.236
21
-178.784
0
LINE
8
Black
10
147.236
20
-178.784
11
147.093
21
-178.641
0
LINE
8
Black
10
147.093
20
-178.641
11
146.95
21
-178.356
0
LINE
8
Black
10
146.95
20
-178.356
11
146.807
21
-177.784
0
LINE
8
Black
10
146.807
20
-177.784
11
146.807
21
-177.07
0
LINE
8
Black
10
146.807
20
-177.07
11
146.95
21
-176.499
0
LINE
8
Black
10
146.95
20
-176.499
11
147.093
21
-176.213
0
LINE
8
Black
10
147.093
20
-176.213
11
147.236
21
-176.07
0
LINE
8
Black
10
147.236
20
-176.07
11
147.521
21
-175.927
0
LINE
8
Black
10
150.379
20
-175.927
11
150.664
21
-175.927
0
LINE
8
Black
10
150.664
20
-175.927
11
150.95
21
-176.07
0
LINE
8
Black
10
150.95
20
-176.07
11
151.093
21
-176.213
0
LINE
8
Black
10
151.093
20
-176.213
11
151.236
21
-176.499
0
LINE
8
Black
10
151.236
20
-176.499
11
151.379
21
-177.07
0
LINE
8
Black
10
151.379
20
-177.07
11
151.379
21
-177.784
0
LINE
8
Black
10
151.379
20
-177.784
11
151.236
21
-178.356
0
LINE
8
Black
10
151.236
20
-178.356
11
151.093
21
-178.641
0
LINE
8
Black
10
151.093
20
-178.641
11
150.95
21
-178.784
0
LINE
8
Black
10
150.95
20
-178.784
11
150.664
21
-178.927
0
LINE
8
Black
10
150.664
20
-178.927
11
150.379
21
-178.927
0
LINE
8
Black
10
150.379
20
-178.927
11
150.093
21
-178.784
0
LINE
8
Black
10
150.093
20
-178.784
11
149.95
21
-178.641
0
LINE
8
Black
10
149.95
20
-178.641
11
149.807
21
-178.356
0
LINE
8
Black
10
149.807
20
-178.356
11
149.664
21
-177.784
0
LINE
8
Black
10
149.664
20
-177.784
11
149.664
21
-177.07
0
LINE
8
Black
10
149.664
20
-177.07
11
149.807
21
-176.499
0
LINE
8
Black
10
149.807
20
-176.499
11
149.95
21
-176.213
0
LINE
8
Black
10
149.95
20
-176.213
11
150.093
21
-176.07
0
LINE
8
Black
10
150.093
20
-176.07
11
150.379
21
-175.927
0
LINE
8
Black
10
152.664
20
-178.927
11
152.664
21
-176.927
0
LINE
8
Black
10
152.664
20
-177.213
11
152.807
21
-177.07
0
LINE
8
Black
10
152.807
20
-177.07
11
153.093
21
-176.927
0
LINE
8
Black
10
153.093
20
-176.927
11
153.521
21
-176.927
0
LINE
8
Black
10
153.521
20
-176.927
11
153.807
21
-177.07
0
LINE
8
Black
10
153.807
20
-177.07
11
153.95
21
-177.356
0
LINE
8
Black
10
153.95
20
-177.356
11
153.95
21
-178.927
0
LINE
8
Black
10
153.95
20
-177.356
11
154.093
21
-177.07
0
LINE
8
Black
10
154.093
20
-177.07
11
154.379
21
-176.927
0
LINE
8
Black
10
154.379
20
-176.927
11
154.807
21
-176.927
0
LINE
8
Black
10
154.807
20
-176.927
11
155.093
21
-177.07
0
LINE
8
Black
10
155.093
20
-177.07
11
155.236
21
-177.356
0
LINE
8
Black
10
155.236
20
-177.356
11
155.236
21
-178.927
0
LINE
8
Black
10
156.664
20
-178.927
11
156.664
21
-176.927
0
LINE
8
Black
10
156.664
20
-177.213
11
156.807
21
-177.07
0
LINE
8
Black
10
156.807
20
-177.07
11
157.093
21
-176.927
0
LINE
8
Black
10
157.093
20
-176.927
11
157.521
21
-176.927
0
LINE
8
Black
10
157.521
20
-176.927
11
157.807
21
-177.07
0
LINE
8
Black
10
157.807
20
-177.07
11
157.95
21
-177.356
0
LINE
8
Black
10
157.95
20
-177.356
11
157.95
21
-178.927
0
LINE
8
Black
10
157.95
20
-177.356
11
158.093
21
-177.07
0
LINE
8
Black
10
158.093
20
-177.07
11
158.379
21
-176.927
0
LINE
8
Black
10
158.379
20
-176.927
11
158.807
21
-176.927
0
LINE
8
Black
10
158.807
20
-176.927
11
159.093
21
-177.07
0
LINE
8
Black
10
159.093
20
-177.07
11
159.236
21
-177.356
0
LINE
8
Black
10
159.236
20
-177.356
11
159.236
21
-178.927
0
LINE
8
Black
10
165.093
20
-175.784
11
162.521
21
-179.641
0
LINE
8
Black
10
168.95
20
-175.927
11
169.236
21
-175.927
0
LINE
8
Black
10
169.236
20
-175.927
11
169.521
21
-176.07
0
LINE
8
Black
10
169.521
20
-176.07
11
169.664
21
-176.213
0
LINE
8
Black
10
169.664
20
-176.213
11
169.807
21
-176.499
0
LINE
8
Black
10
169.807
20
-176.499
11
169.95
21
-177.07
0
LINE
8
Black
10
169.95
20
-177.07
11
169.95
21
-177.784
0
LINE
8
Black
10
169.95
20
-177.784
11
169.807
21
-178.356
0
LINE
8
Black
10
169.807
20
-178.356
11
169.664
21
-178.641
0
LINE
8
Black
10
169.664
20
-178.641
11
169.521
21
-178.784
0
LINE
8
Black
10
169.521
20
-178.784
11
169.236
21
-178.927
0
LINE
8
Black
10
169.236
20
-178.927
11
168.95
21
-178.927
0
LINE
8
Black
10
168.95
20
-178.927
11
168.664
21
-178.784
0
LINE
8
Black
10
168.664
20
-178.784
11
168.521
21
-178.641
0
LINE
8
Black
10
168.521
20
-178.641
11
168.379
21
-178.356
0
LINE
8
Black
10
168.379
20
-178.356
11
168.236
21
-177.784
0
LINE
8
Black
10
168.236
20
-177.784
11
168.236
21
-177.07
0
LINE
8
Black
10
168.236
20
-177.07
11
168.379
21
-176.499
0
LINE
8
Black
10
168.379
20
-176.499
11
168.521
21
-176.213
0
LINE
8
Black
10
168.521
20
-176.213
11
168.664
21
-176.07
0
LINE
8
Black
10
168.664
20
-176.07
11
168.95
21
-175.927
0
LINE
8
Black
10
171.236
20
-178.641
11
171.379
21
-178.784
0
LINE
8
Black
10
171.379
20
-178.784
11
171.236
21
-178.927
0
LINE
8
Black
10
171.236
20
-178.927
11
171.093
21
-178.784
0
LINE
8
Black
10
171.093
20
-178.784
11
171.236
21
-178.641
0
LINE
8
Black
10
171.236
20
-178.641
11
171.236
21
-178.927
0
LINE
8
Black
10
173.236
20
-175.927
11
173.521
21
-175.927
0
LINE
8
Black
10
173.521
20
-175.927
11
173.807
21
-176.07
0
LINE
8
Black
10
173.807
20
-176.07
11
173.95
21
-176.213
0
LINE
8
Black
10
173.95
20
-176.213
11
174.093
21
-176.499
0
LINE
8
Black
10
174.093
20
-176.499
11
174.236
21
-177.07
0
LINE
8
Black
10
174.236
20
-177.07
11
174.236
21
-177.784
0
LINE
8
Black
10
174.236
20
-177.784
11
174.093
21
-178.356
0
LINE
8
Black
10
174.093
20
-178.356
11
173.95
21
-178.641
0
LINE
8
Black
10
173.95
20
-178.641
11
173.807
21
-178.784
0
LINE
8
Black
10
173.807
20
-178.784
11
173.521
21
-178.927
0
LINE
8
Black
10
173.521
20
-178.927
11
173.236
21
-178.927
0
LINE
8
Black
10
173.236
20
-178.927
11
172.95
21
-178.784
0
LINE
8
Black
10
172.95
20
-178.784
11
172.807
21
-178.641
0
LINE
8
Black
10
172.807
20
-178.641
11
172.664
21
-178.356
0
LINE
8
Black
10
172.664
20
-178.356
11
172.521
21
-177.784
0
LINE
8
Black
10
172.521
20
-177.784
11
172.521
21
-177.07
0
LINE
8
Black
10
172.521
20
-177.07
11
172.664
21
-176.499
0
LINE
8
Black
10
172.664
20
-176.499
11
172.807
21
-176.213
0
LINE
8
Black
10
172.807
20
-176.213
11
172.95
21
-176.07
0
LINE
8
Black
10
172.95
20
-176.07
11
173.236
21
-175.927
0
LINE
8
Black
10
175.236
20
-175.927
11
177.093
21
-175.927
0
LINE
8
Black
10
177.093
20
-175.927
11
176.093
21
-177.07
0
LINE
8
Black
10
176.093
20
-177.07
11
176.521
21
-177.07
0
LINE
8
Black
10
176.521
20
-177.07
11
176.807
21
-177.213
0
LINE
8
Black
10
176.807
20
-177.213
11
176.95
21
-177.356
0
LINE
8
Black
10
176.95
20
-177.356
11
177.093
21
-177.641
0
LINE
8
Black
10
177.093
20
-177.641
11
177.093
21
-178.356
0
LINE
8
Black
10
177.093
20
-178.356
11
176.95
21
-178.641
0
LINE
8
Black
10
176.95
20
-178.641
11
176.807
21
-178.784
0
LINE
8
Black
10
176.807
20
-178.784
11
176.521
21
-178.927
0
LINE
8
Black
10
176.521
20
-178.927
11
175.664
21
-178.927
0
LINE
8
Black
10
175.664
20
-178.927
11
175.379
21
-178.784
0
LINE
8
Black
10
175.379
20
-178.784
11
175.236
21
-178.641
0
LINE
8
Black
10
178.521
20
-178.927
11
179.093
21
-178.927
0
LINE
8
Black
10
179.093
20
-178.927
11
179.379
21
-178.784
0
LINE
8
Black
10
179.379
20
-178.784
11
179.521
21
-178.641
0
LINE
8
Black
10
179.521
20
-178.641
11
179.807
21
-178.213
0
LINE
8
Black
10
179.807
20
-178.213
11
179.95
21
-177.641
0
LINE
8
Black
10
179.95
20
-177.641
11
179.95
21
-176.499
0
LINE
8
Black
10
179.95
20
-176.499
11
179.807
21
-176.213
0
LINE
8
Black
10
179.807
20
-176.213
11
179.664
21
-176.07
0
LINE
8
Black
10
179.664
20
-176.07
11
179.379
21
-175.927
0
LINE
8
Black
10
179.379
20
-175.927
11
178.807
21
-175.927
0
LINE
8
Black
10
178.807
20
-175.927
11
178.521
21
-176.07
0
LINE
8
Black
10
178.521
20
-176.07
11
178.379
21
-176.213
0
LINE
8
Black
10
178.379
20
-176.213
11
178.236
21
-176.499
0
LINE
8
Black
10
178.236
20
-176.499
11
178.236
21
-177.213
0
LINE
8
Black
10
178.236
20
-177.213
11
178.379
21
-177.499
0
LINE
8
Black
10
178.379
20
-177.499
11
178.521
21
-177.641
0
LINE
8
Black
10
178.521
20
-177.641
11
178.807
21
-177.784
0
LINE
8
Black
10
178.807
20
-177.784
11
179.379
21
-177.784
0
LINE
8
Black
10
179.379
20
-177.784
11
179.664
21
-177.641
0
LINE
8
Black
10
179.664
20
-177.641
11
179.807
21
-177.499
0
LINE
8
Black
10
179.807
20
-177.499
11
179.95
21
-177.213
0
LINE
8
Black
10
181.093
20
-175.927
11
181.093
21
-176.499
0
LINE
8
Black
10
182.236
20
-175.927
11
182.236
21
-176.499
0
LINE
8
Black
10
186.664
20
-180.07
11
186.521
21
-179.927
0
LINE
8
Black
10
186.521
20
-179.927
11
186.236
21
-179.499
0
LINE
8
Black
10
186.236
20
-179.499
11
186.093
21
-179.213
0
LINE
8
Black
10
186.093
20
-179.213
11
185.95
21
-178.784
0
LINE
8
Black
10
185.95
20
-178.784
11
185.807
21
-178.07
0
LINE
8
Black
10
185.807
20
-178.07
11
185.807
21
-177.499
0
LINE
8
Black
10
185.807
20
-177.499
11
185.95
21
-176.784
0
LINE
8
Black
10
185.95
20
-176.784
11
186.093
21
-176.356
0
LINE
8
Black
10
186.093
20
-176.356
11
186.236
21
-176.07
0
LINE
8
Black
10
186.236
20
-176.07
11
186.521
21
-175.641
0
LINE
8
Black
10
186.521
20
-175.641
11
186.664
21
-175.499
0
LINE
8
Black
10
189.379
20
-178.927
11
187.664
21
-178.927
0
LINE
8
Black
10
188.521
20
-178.927
11
188.521
21
-175.927
0
LINE
8
Black
10
188.521
20
-175.927
11
188.236
21
-176.356
0
LINE
8
Black
10
188.236
20
-176.356
11
187.95
21
-176.641
0
LINE
8
Black
10
187.95
20
-176.641
11
187.664
21
-176.784
0
LINE
8
Black
10
191.95
20
-175.927
11
191.379
21
-175.927
0
LINE
8
Black
10
191.379
20
-175.927
11
191.093
21
-176.07
0
LINE
8
Black
10
191.093
20
-176.07
11
190.95
21
-176.213
0
LINE
8
Black
10
190.95
20
-176.213
11
190.664
21
-176.641
0
LINE
8
Black
10
190.664
20
-176.641
11
190.521
21
-177.213
0
LINE
8
Black
10
190.521
20
-177.213
11
190.521
21
-178.356
0
LINE
8
Black
10
190.521
20
-178.356
11
190.664
21
-178.641
0
LINE
8
Black
10
190.664
20
-178.641
11
190.807
21
-178.784
0
LINE
8
Black
10
190.807
20
-178.784
11
191.093
21
-178.927
0
LINE
8
Black
10
191.093
20
-178.927
11
191.664
21
-178.927
0
LINE
8
Black
10
191.664
20
-178.927
11
191.95
21
-178.784
0
LINE
8
Black
10
191.95
20
-178.784
11
192.093
21
-178.641
0
LINE
8
Black
10
192.093
20
-178.641
11
192.236
21
-178.356
0
LINE
8
Black
10
192.236
20
-178.356
11
192.236
21
-177.641
0
LINE
8
Black
10
192.236
20
-177.641
11
192.093
21
-177.356
0
LINE
8
Black
10
192.093
20
-177.356
11
191.95
21
-177.213
0
LINE
8
Black
10
191.95
20
-177.213
11
191.664
21
-177.07
0
LINE
8
Black
10
191.664
20
-177.07
11
191.093
21
-177.07
0
LINE
8
Black
10
191.093
20
-177.07
11
190.807
21
-177.213
0
LINE
8
Black
10
190.807
20
-177.213
11
190.664
21
-177.356
0
LINE
8
Black
10
190.664
20
-177.356
11
190.521
21
-177.641
0
LINE
8
Black
10
195.807
20
-178.927
11
195.807
21
-175.927
0
LINE
8
Black
10
197.093
20
-178.927
11
197.093
21
-177.356
0
LINE
8
Black
10
197.093
20
-177.356
11
196.95
21
-177.07
0
LINE
8
Black
10
196.95
20
-177.07
11
196.664
21
-176.927
0
LINE
8
Black
10
196.664
20
-176.927
11
196.236
21
-176.927
0
LINE
8
Black
10
196.236
20
-176.927
11
195.95
21
-177.07
0
LINE
8
Black
10
195.95
20
-177.07
11
195.807
21
-177.213
0
LINE
8
Black
10
198.95
20
-178.927
11
198.664
21
-178.784
0
LINE
8
Black
10
198.664
20
-178.784
11
198.521
21
-178.641
0
LINE
8
Black
10
198.521
20
-178.641
11
198.379
21
-178.356
0
LINE
8
Black
10
198.379
20
-178.356
11
198.379
21
-177.499
0
LINE
8
Black
10
198.379
20
-177.499
11
198.521
21
-177.213
0
LINE
8
Black
10
198.521
20
-177.213
11
198.664
21
-177.07
0
LINE
8
Black
10
198.664
20
-177.07
11
198.95
21
-176.927
0
LINE
8
Black
10
198.95
20
-176.927
11
199.379
21
-176.927
0
LINE
8
Black
10
199.379
20
-176.927
11
199.664
21
-177.07
0
LINE
8
Black
10
199.664
20
-177.07
11
199.807
21
-177.213
0
LINE
8
Black
10
199.807
20
-177.213
11
199.95
21
-177.499
0
LINE
8
Black
10
199.95
20
-177.499
11
199.95
21
-178.356
0
LINE
8
Black
10
199.95
20
-178.356
11
199.807
21
-178.641
0
LINE
8
Black
10
199.807
20
-178.641
11
199.664
21
-178.784
0
LINE
8
Black
10
199.664
20
-178.784
11
199.379
21
-178.927
0
LINE
8
Black
10
199.379
20
-178.927
11
198.95
21
-178.927
0
LINE
8
Black
10
201.664
20
-178.927
11
201.379
21
-178.784
0
LINE
8
Black
10
201.379
20
-178.784
11
201.236
21
-178.499
0
LINE
8
Black
10
201.236
20
-178.499
11
201.236
21
-175.927
0
LINE
8
Black
10
203.95
20
-178.784
11
203.664
21
-178.927
0
LINE
8
Black
10
203.664
20
-178.927
11
203.093
21
-178.927
0
LINE
8
Black
10
203.093
20
-178.927
11
202.807
21
-178.784
0
LINE
8
Black
10
202.807
20
-178.784
11
202.664
21
-178.499
0
LINE
8
Black
10
202.664
20
-178.499
11
202.664
21
-177.356
0
LINE
8
Black
10
202.664
20
-177.356
11
202.807
21
-177.07
0
LINE
8
Black
10
202.807
20
-177.07
11
203.093
21
-176.927
0
LINE
8
Black
10
203.093
20
-176.927
11
203.664
21
-176.927
0
LINE
8
Black
10
203.664
20
-176.927
11
203.95
21
-177.07
0
LINE
8
Black
10
203.95
20
-177.07
11
204.093
21
-177.356
0
LINE
8
Black
10
204.093
20
-177.356
11
204.093
21
-177.641
0
LINE
8
Black
10
204.093
20
-177.641
11
202.664
21
-177.927
0
LINE
8
Black
10
205.236
20
-178.784
11
205.521
21
-178.927
0
LINE
8
Black
10
205.521
20
-178.927
11
206.093
21
-178.927
0
LINE
8
Black
10
206.093
20
-178.927
11
206.379
21
-178.784
0
LINE
8
Black
10
206.379
20
-178.784
11
206.521
21
-178.499
0
LINE
8
Black
10
206.521
20
-178.499
11
206.521
21
-178.356
0
LINE
8
Black
10
206.521
20
-178.356
11
206.379
21
-178.07
0
LINE
8
Black
10
206.379
20
-178.07
11
206.093
21
-177.927
0
LINE
8
Black
10
206.093
20
-177.927
11
205.664
21
-177.927
0
LINE
8
Black
10
205.664
20
-177.927
11
205.379
21
-177.784
0
LINE
8
Black
10
205.379
20
-177.784
11
205.236
21
-177.499
0
LINE
8
Black
10
205.236
20
-177.499
11
205.236
21
-177.356
0
LINE
8
Black
10
205.236
20
-177.356
11
205.379
21
-177.07
0
LINE
8
Black
10
205.379
20
-177.07
11
205.664
21
-176.927
0
LINE
8
Black
10
205.664
20
-176.927
11
206.093
21
-176.927
0
LINE
8
Black
10
206.093
20
-176.927
11
206.379
21
-177.07
0
LINE
8
Black
10
207.521
20
-180.07
11
207.664
21
-179.927
0
LINE
8
Black
10
207.664
20
-179.927
11
207.95
21
-179.499
0
LINE
8
Black
10
207.95
20
-179.499
11
208.093
21
-179.213
0
LINE
8
Black
10
208.093
20
-179.213
11
208.236
21
-178.784
0
LINE
8
Black
10
208.236
20
-178.784
11
208.379
21
-178.07
0
LINE
8
Black
10
208.379
20
-178.07
11
208.379
21
-177.499
0
LINE
8
Black
10
208.379
20
-177.499
11
208.236
21
-176.784
0
LINE
8
Black
10
208.236
20
-176.784
11
208.093
21
-176.356
0
LINE
8
Black
10
208.093
20
-176.356
11
207.95
21
-176.07
0
LINE
8
Black
10
207.95
20
-176.07
11
207.664
21
-175.641
0
LINE
8
Black
10
207.664
20
-175.641
11
207.521
21
-175.499
0
LINE
8
Black
10
139.801
20
-181.889
11
139.801
21
-181.171
0
LINE
8
Black
10
139.801
20
-181.171
11
139.083
21
-181.171
0
LINE
8
Black
10
139.083
20
-181.171
11
139.083
21
-181.889
0
LINE
8
Black
10
139.083
20
-181.889
11
139.801
21
-181.889
0
LINE
8
Black
10
144.236
20
-182.887
11
142.521
21
-182.887
0
LINE
8
Black
10
143.379
20
-182.887
11
143.379
21
-179.887
0
LINE
8
Black
10
143.379
20
-179.887
11
143.093
21
-180.316
0
LINE
8
Black
10
143.093
20
-180.316
11
142.807
21
-180.601
0
LINE
8
Black
10
142.807
20
-180.601
11
142.521
21
-180.744
0
LINE
8
Black
10
145.521
20
-182.601
11
145.664
21
-182.744
0
LINE
8
Black
10
145.664
20
-182.744
11
145.521
21
-182.887
0
LINE
8
Black
10
145.521
20
-182.887
11
145.379
21
-182.744
0
LINE
8
Black
10
145.379
20
-182.744
11
145.521
21
-182.601
0
LINE
8
Black
10
145.521
20
-182.601
11
145.521
21
-182.887
0
LINE
8
Black
10
147.521
20
-179.887
11
147.807
21
-179.887
0
LINE
8
Black
10
147.807
20
-179.887
11
148.093
21
-180.03
0
LINE
8
Black
10
148.093
20
-180.03
11
148.236
21
-180.173
0
LINE
8
Black
10
148.236
20
-180.173
11
148.379
21
-180.459
0
LINE
8
Black
10
148.379
20
-180.459
11
148.521
21
-181.03
0
LINE
8
Black
10
148.521
20
-181.03
11
148.521
21
-181.744
0
LINE
8
Black
10
148.521
20
-181.744
11
148.379
21
-182.316
0
LINE
8
Black
10
148.379
20
-182.316
11
148.236
21
-182.601
0
LINE
8
Black
10
148.236
20
-182.601
11
148.093
21
-182.744
0
LINE
8
Black
10
148.093
20
-182.744
11
147.807
21
-182.887
0
LINE
8
Black
10
147.807
20
-182.887
11
147.521
21
-182.887
0
LINE
8
Black
10
147.521
20
-182.887
11
147.236
21
-182.744
0
LINE
8
Black
10
147.236
20
-182.744
11
147.093
21
-182.601
0
LINE
8
Black
10
147.093
20
-182.601
11
146.95
21
-182.316
0
LINE
8
Black
10
146.95
20
-182.316
11
146.807
21
-181.744
0
LINE
8
Black
10
146.807
20
-181.744
11
146.807
21
-181.03
0
LINE
8
Black
10
146.807
20
-181.03
11
146.95
21
-180.459
0
LINE
8
Black
10
146.95
20
-180.459
11
147.093
21
-180.173
0
LINE
8
Black
10
147.093
20
-180.173
11
147.236
21
-180.03
0
LINE
8
Black
10
147.236
20
-180.03
11
147.521
21
-179.887
0
LINE
8
Black
10
149.664
20
-180.173
11
149.807
21
-180.03
0
LINE
8
Black
10
149.807
20
-180.03
11
150.093
21
-179.887
0
LINE
8
Black
10
150.093
20
-179.887
11
150.807
21
-179.887
0
LINE
8
Black
10
150.807
20
-179.887
11
151.093
21
-180.03
0
LINE
8
Black
10
151.093
20
-180.03
11
151.236
21
-180.173
0
LINE
8
Black
10
151.236
20
-180.173
11
151.379
21
-180.459
0
LINE
8
Black
10
151.379
20
-180.459
11
151.379
21
-180.744
0
LINE
8
Black
10
151.379
20
-180.744
11
151.236
21
-181.173
0
LINE
8
Black
10
151.236
20
-181.173
11
149.521
21
-182.887
0
LINE
8
Black
10
149.521
20
-182.887
11
151.379
21
-182.887
0
LINE
8
Black
10
152.664
20
-182.887
11
152.664
21
-180.887
0
LINE
8
Black
10
152.664
20
-181.173
11
152.807
21
-181.03
0
LINE
8
Black
10
152.807
20
-181.03
11
153.093
21
-180.887
0
LINE
8
Black
10
153.093
20
-180.887
11
153.521
21
-180.887
0
LINE
8
Black
10
153.521
20
-180.887
11
153.807
21
-181.03
0
LINE
8
Black
10
153.807
20
-181.03
11
153.95
21
-181.316
0
LINE
8
Black
10
153.95
20
-181.316
11
153.95
21
-182.887
0
LINE
8
Black
10
153.95
20
-181.316
11
154.093
21
-181.03
0
LINE
8
Black
10
154.093
20
-181.03
11
154.379
21
-180.887
0
LINE
8
Black
10
154.379
20
-180.887
11
154.807
21
-180.887
0
LINE
8
Black
10
154.807
20
-180.887
11
155.093
21
-181.03
0
LINE
8
Black
10
155.093
20
-181.03
11
155.236
21
-181.316
0
LINE
8
Black
10
155.236
20
-181.316
11
155.236
21
-182.887
0
LINE
8
Black
10
156.664
20
-182.887
11
156.664
21
-180.887
0
LINE
8
Black
10
156.664
20
-181.173
11
156.807
21
-181.03
0
LINE
8
Black
10
156.807
20
-181.03
11
157.093
21
-180.887
0
LINE
8
Black
10
157.093
20
-180.887
11
157.521
21
-180.887
0
LINE
8
Black
10
157.521
20
-180.887
11
157.807
21
-181.03
0
LINE
8
Black
10
157.807
20
-181.03
11
157.95
21
-181.316
0
LINE
8
Black
10
157.95
20
-181.316
11
157.95
21
-182.887
0
LINE
8
Black
10
157.95
20
-181.316
11
158.093
21
-181.03
0
LINE
8
Black
10
158.093
20
-181.03
11
158.379
21
-180.887
0
LINE
8
Black
10
158.379
20
-180.887
11
158.807
21
-180.887
0
LINE
8
Black
10
158.807
20
-180.887
11
159.093
21
-181.03
0
LINE
8
Black
10
159.093
20
-181.03
11
159.236
21
-181.316
0
LINE
8
Black
10
159.236
20
-181.316
11
159.236
21
-182.887
0
LINE
8
Black
10
165.093
20
-179.744
11
162.521
21
-183.601
0
LINE
8
Black
10
168.95
20
-179.887
11
169.236
21
-179.887
0
LINE
8
Black
10
169.236
20
-179.887
11
169.521
21
-180.03
0
LINE
8
Black
10
169.521
20
-180.03
11
169.664
21
-180.173
0
LINE
8
Black
10
169.664
20
-180.173
11
169.807
21
-180.459
0
LINE
8
Black
10
169.807
20
-180.459
11
169.95
21
-181.03
0
LINE
8
Black
10
169.95
20
-181.03
11
169.95
21
-181.744
0
LINE
8
Black
10
169.95
20
-181.744
11
169.807
21
-182.316
0
LINE
8
Black
10
169.807
20
-182.316
11
169.664
21
-182.601
0
LINE
8
Black
10
169.664
20
-182.601
11
169.521
21
-182.744
0
LINE
8
Black
10
169.521
20
-182.744
11
169.236
21
-182.887
0
LINE
8
Black
10
169.236
20
-182.887
11
168.95
21
-182.887
0
LINE
8
Black
10
168.95
20
-182.887
11
168.664
21
-182.744
0
LINE
8
Black
10
168.664
20
-182.744
11
168.521
21
-182.601
0
LINE
8
Black
10
168.521
20
-182.601
11
168.379
21
-182.316
0
LINE
8
Black
10
168.379
20
-182.316
11
168.236
21
-181.744
0
LINE
8
Black
10
168.236
20
-181.744
11
168.236
21
-181.03
0
LINE
8
Black
10
168.236
20
-181.03
11
168.379
21
-180.459
0
LINE
8
Black
10
168.379
20
-180.459
11
168.521
21
-180.173
0
LINE
8
Black
10
168.521
20
-180.173
11
168.664
21
-180.03
0
LINE
8
Black
10
168.664
20
-180.03
11
168.95
21
-179.887
0
LINE
8
Black
10
171.236
20
-182.601
11
171.379
21
-182.744
0
LINE
8
Black
10
171.379
20
-182.744
11
171.236
21
-182.887
0
LINE
8
Black
10
171.236
20
-182.887
11
171.093
21
-182.744
0
LINE
8
Black
10
171.093
20
-182.744
11
171.236
21
-182.601
0
LINE
8
Black
10
171.236
20
-182.601
11
171.236
21
-182.887
0
LINE
8
Black
10
173.236
20
-179.887
11
173.521
21
-179.887
0
LINE
8
Black
10
173.521
20
-179.887
11
173.807
21
-180.03
0
LINE
8
Black
10
173.807
20
-180.03
11
173.95
21
-180.173
0
LINE
8
Black
10
173.95
20
-180.173
11
174.093
21
-180.459
0
LINE
8
Black
10
174.093
20
-180.459
11
174.236
21
-181.03
0
LINE
8
Black
10
174.236
20
-181.03
11
174.236
21
-181.744
0
LINE
8
Black
10
174.236
20
-181.744
11
174.093
21
-182.316
0
LINE
8
Black
10
174.093
20
-182.316
11
173.95
21
-182.601
0
LINE
8
Black
10
173.95
20
-182.601
11
173.807
21
-182.744
0
LINE
8
Black
10
173.807
20
-182.744
11
173.521
21
-182.887
0
LINE
8
Black
10
173.521
20
-182.887
11
173.236
21
-182.887
0
LINE
8
Black
10
173.236
20
-182.887
11
172.95
21
-182.744
0
LINE
8
Black
10
172.95
20
-182.744
11
172.807
21
-182.601
0
LINE
8
Black
10
172.807
20
-182.601
11
172.664
21
-182.316
0
LINE
8
Black
10
172.664
20
-182.316
11
172.521
21
-181.744
0
LINE
8
Black
10
172.521
20
-181.744
11
172.521
21
-181.03
0
LINE
8
Black
10
172.521
20
-181.03
11
172.664
21
-180.459
0
LINE
8
Black
10
172.664
20
-180.459
11
172.807
21
-180.173
0
LINE
8
Black
10
172.807
20
-180.173
11
172.95
21
-180.03
0
LINE
8
Black
10
172.95
20
-180.03
11
173.236
21
-179.887
0
LINE
8
Black
10
176.807
20
-180.887
11
176.807
21
-182.887
0
LINE
8
Black
10
176.093
20
-179.744
11
175.379
21
-181.887
0
LINE
8
Black
10
175.379
20
-181.887
11
177.236
21
-181.887
0
LINE
8
Black
10
178.95
20
-179.887
11
179.236
21
-179.887
0
LINE
8
Black
10
179.236
20
-179.887
11
179.521
21
-180.03
0
LINE
8
Black
10
179.521
20
-180.03
11
179.664
21
-180.173
0
LINE
8
Black
10
179.664
20
-180.173
11
179.807
21
-180.459
0
LINE
8
Black
10
179.807
20
-180.459
11
179.95
21
-181.03
0
LINE
8
Black
10
179.95
20
-181.03
11
179.95
21
-181.744
0
LINE
8
Black
10
179.95
20
-181.744
11
179.807
21
-182.316
0
LINE
8
Black
10
179.807
20
-182.316
11
179.664
21
-182.601
0
LINE
8
Black
10
179.664
20
-182.601
11
179.521
21
-182.744
0
LINE
8
Black
10
179.521
20
-182.744
11
179.236
21
-182.887
0
LINE
8
Black
10
179.236
20
-182.887
11
178.95
21
-182.887
0
LINE
8
Black
10
178.95
20
-182.887
11
178.664
21
-182.744
0
LINE
8
Black
10
178.664
20
-182.744
11
178.521
21
-182.601
0
LINE
8
Black
10
178.521
20
-182.601
11
178.379
21
-182.316
0
LINE
8
Black
10
178.379
20
-182.316
11
178.236
21
-181.744
0
LINE
8
Black
10
178.236
20
-181.744
11
178.236
21
-181.03
0
LINE
8
Black
10
178.236
20
-181.03
11
178.379
21
-180.459
0
LINE
8
Black
10
178.379
20
-180.459
11
178.521
21
-180.173
0
LINE
8
Black
10
178.521
20
-180.173
11
178.664
21
-180.03
0
LINE
8
Black
10
178.664
20
-180.03
11
178.95
21
-179.887
0
LINE
8
Black
10
181.093
20
-179.887
11
181.093
21
-180.459
0
LINE
8
Black
10
182.236
20
-179.887
11
182.236
21
-180.459
0
LINE
8
Black
10
186.664
20
-184.03
11
186.521
21
-183.887
0
LINE
8
Black
10
186.521
20
-183.887
11
186.236
21
-183.459
0
LINE
8
Black
10
186.236
20
-183.459
11
186.093
21
-183.173
0
LINE
8
Black
10
186.093
20
-183.173
11
185.95
21
-182.744
0
LINE
8
Black
10
185.95
20
-182.744
11
185.807
21
-182.03
0
LINE
8
Black
10
185.807
20
-182.03
11
185.807
21
-181.459
0
LINE
8
Black
10
185.807
20
-181.459
11
185.95
21
-180.744
0
LINE
8
Black
10
185.95
20
-180.744
11
186.093
21
-180.316
0
LINE
8
Black
10
186.093
20
-180.316
11
186.236
21
-180.03
0
LINE
8
Black
10
186.236
20
-180.03
11
186.521
21
-179.601
0
LINE
8
Black
10
186.521
20
-179.601
11
186.664
21
-179.459
0
LINE
8
Black
10
187.664
20
-180.173
11
187.807
21
-180.03
0
LINE
8
Black
10
187.807
20
-180.03
11
188.093
21
-179.887
0
LINE
8
Black
10
188.093
20
-179.887
11
188.807
21
-179.887
0
LINE
8
Black
10
188.807
20
-179.887
11
189.093
21
-180.03
0
LINE
8
Black
10
189.093
20
-180.03
11
189.236
21
-180.173
0
LINE
8
Black
10
189.236
20
-180.173
11
189.379
21
-180.459
0
LINE
8
Black
10
189.379
20
-180.459
11
189.379
21
-180.744
0
LINE
8
Black
10
189.379
20
-180.744
11
189.236
21
-181.173
0
LINE
8
Black
10
189.236
20
-181.173
11
187.521
21
-182.887
0
LINE
8
Black
10
187.521
20
-182.887
11
189.379
21
-182.887
0
LINE
8
Black
10
192.093
20
-179.887
11
190.664
21
-179.887
0
LINE
8
Black
10
190.664
20
-179.887
11
190.521
21
-181.316
0
LINE
8
Black
10
190.521
20
-181.316
11
190.664
21
-181.173
0
LINE
8
Black
10
190.664
20
-181.173
11
190.95
21
-181.03
0
LINE
8
Black
10
190.95
20
-181.03
11
191.664
21
-181.03
0
LINE
8
Black
10
191.664
20
-181.03
11
191.95
21
-181.173
0
LINE
8
Black
10
191.95
20
-181.173
11
192.093
21
-181.316
0
LINE
8
Black
10
192.093
20
-181.316
11
192.236
21
-181.601
0
LINE
8
Black
10
192.236
20
-181.601
11
192.236
21
-182.316
0
LINE
8
Black
10
192.236
20
-182.316
11
192.093
21
-182.601
0
LINE
8
Black
10
192.093
20
-182.601
11
191.95
21
-182.744
0
LINE
8
Black
10
191.95
20
-182.744
11
191.664
21
-182.887
0
LINE
8
Black
10
191.664
20
-182.887
11
190.95
21
-182.887
0
LINE
8
Black
10
190.95
20
-182.887
11
190.664
21
-182.744
0
LINE
8
Black
10
190.664
20
-182.744
11
190.521
21
-182.601
0
LINE
8
Black
10
194.95
20
-179.887
11
193.521
21
-179.887
0
LINE
8
Black
10
193.521
20
-179.887
11
193.379
21
-181.316
0
LINE
8
Black
10
193.379
20
-181.316
11
193.521
21
-181.173
0
LINE
8
Black
10
193.521
20
-181.173
11
193.807
21
-181.03
0
LINE
8
Black
10
193.807
20
-181.03
11
194.521
21
-181.03
0
LINE
8
Black
10
194.521
20
-181.03
11
194.807
21
-181.173
0
LINE
8
Black
10
194.807
20
-181.173
11
194.95
21
-181.316
0
LINE
8
Black
10
194.95
20
-181.316
11
195.093
21
-181.601
0
LINE
8
Black
10
195.093
20
-181.601
11
195.093
21
-182.316
0
LINE
8
Black
10
195.093
20
-182.316
11
194.95
21
-182.601
0
LINE
8
Black
10
194.95
20
-182.601
11
194.807
21
-182.744
0
LINE
8
Black
10
194.807
20
-182.744
11
194.521
21
-182.887
0
LINE
8
Black
10
194.521
20
-182.887
11
193.807
21
-182.887
0
LINE
8
Black
10
193.807
20
-182.887
11
193.521
21
-182.744
0
LINE
8
Black
10
193.521
20
-182.744
11
193.379
21
-182.601
0
LINE
8
Black
10
198.664
20
-182.887
11
198.664
21
-179.887
0
LINE
8
Black
10
199.95
20
-182.887
11
199.95
21
-181.316
0
LINE
8
Black
10
199.95
20
-181.316
11
199.807
21
-181.03
0
LINE
8
Black
10
199.807
20
-181.03
11
199.521
21
-180.887
0
LINE
8
Black
10
199.521
20
-180.887
11
199.093
21
-180.887
0
LINE
8
Black
10
199.093
20
-180.887
11
198.807
21
-181.03
0
LINE
8
Black
10
198.807
20
-181.03
11
198.664
21
-181.173
0
LINE
8
Black
10
201.807
20
-182.887
11
201.521
21
-182.744
0
LINE
8
Black
10
201.521
20
-182.744
11
201.379
21
-182.601
0
LINE
8
Black
10
201.379
20
-182.601
11
201.236
21
-182.316
0
LINE
8
Black
10
201.236
20
-182.316
11
201.236
21
-181.459
0
LINE
8
Black
10
201.236
20
-181.459
11
201.379
21
-181.173
0
LINE
8
Black
10
201.379
20
-181.173
11
201.521
21
-181.03
0
LINE
8
Black
10
201.521
20
-181.03
11
201.807
21
-180.887
0
LINE
8
Black
10
201.807
20
-180.887
11
202.236
21
-180.887
0
LINE
8
Black
10
202.236
20
-180.887
11
202.521
21
-181.03
0
LINE
8
Black
10
202.521
20
-181.03
11
202.664
21
-181.173
0
LINE
8
Black
10
202.664
20
-181.173
11
202.807
21
-181.459
0
LINE
8
Black
10
202.807
20
-181.459
11
202.807
21
-182.316
0
LINE
8
Black
10
202.807
20
-182.316
11
202.664
21
-182.601
0
LINE
8
Black
10
202.664
20
-182.601
11
202.521
21
-182.744
0
LINE
8
Black
10
202.521
20
-182.744
11
202.236
21
-182.887
0
LINE
8
Black
10
202.236
20
-182.887
11
201.807
21
-182.887
0
LINE
8
Black
10
204.521
20
-182.887
11
204.236
21
-182.744
0
LINE
8
Black
10
204.236
20
-182.744
11
204.093
21
-182.459
0
LINE
8
Black
10
204.093
20
-182.459
11
204.093
21
-179.887
0
LINE
8
Black
10
206.807
20
-182.744
11
206.521
21
-182.887
0
LINE
8
Black
10
206.521
20
-182.887
11
205.95
21
-182.887
0
LINE
8
Black
10
205.95
20
-182.887
11
205.664
21
-182.744
0
LINE
8
Black
10
205.664
20
-182.744
11
205.521
21
-182.459
0
LINE
8
Black
10
205.521
20
-182.459
11
205.521
21
-181.316
0
LINE
8
Black
10
205.521
20
-181.316
11
205.664
21
-181.03
0
LINE
8
Black
10
205.664
20
-181.03
11
205.95
21
-180.887
0
LINE
8
Black
10
205.95
20
-180.887
11
206.521
21
-180.887
0
LINE
8
Black
10
206.521
20
-180.887
11
206.807
21
-181.03
0
LINE
8
Black
10
206.807
20
-181.03
11
206.95
21
-181.316
0
LINE
8
Black
10
206.95
20
-181.316
11
206.95
21
-181.601
0
LINE
8
Black
10
206.95
20
-181.601
11
205.521
21
-181.887
0
LINE
8
Black
10
208.093
20
-182.744
11
208.379
21
-182.887
0
LINE
8
Black
10
208.379
20
-182.887
11
208.95
21
-182.887
0
LINE
8
Black
10
208.95
20
-182.887
11
209.236
21
-182.744
0
LINE
8
Black
10
209.236
20
-182.744
11
209.379
21
-182.459
0
LINE
8
Black
10
209.379
20
-182.459
11
209.379
21
-182.316
0
LINE
8
Black
10
209.379
20
-182.316
11
209.236
21
-182.03
0
LINE
8
Black
10
209.236
20
-182.03
11
208.95
21
-181.887
0
LINE
8
Black
10
208.95
20
-181.887
11
208.521
21
-181.887
0
LINE
8
Black
10
208.521
20
-181.887
11
208.236
21
-181.744
0
LINE
8
Black
10
208.236
20
-181.744
11
208.093
21
-181.459
0
LINE
8
Black
10
208.093
20
-181.459
11
208.093
21
-181.316
0
LINE
8
Black
10
208.093
20
-181.316
11
208.236
21
-181.03
0
LINE
8
Black
10
208.236
20
-181.03
11
208.521
21
-180.887
0
LINE
8
Black
10
208.521
20
-180.887
11
208.95
21
-180.887
0
LINE
8
Black
10
208.95
20
-180.887
11
209.236
21
-181.03
0
LINE
8
Black
10
210.379
20
-184.03
11
210.521
21
-183.887
0
LINE
8
Black
10
210.521
20
-183.887
11
210.807
21
-183.459
0
LINE
8
Black
10
210.807
20
-183.459
11
210.95
21
-183.173
0
LINE
8
Black
10
210.95
20
-183.173
11
211.093
21
-182.744
0
LINE
8
Black
10
211.093
20
-182.744
11
211.236
21
-182.03
0
LINE
8
Black
10
211.236
20
-182.03
11
211.236
21
-181.459
0
LINE
8
Black
10
211.236
20
-181.459
11
211.093
21
-180.744
0
LINE
8
Black
10
211.093
20
-180.744
11
210.95
21
-180.316
0
LINE
8
Black
10
210.95
20
-180.316
11
210.807
21
-180.03
0
LINE
8
Black
10
210.807
20
-180.03
11
210.521
21
-179.601
0
LINE
8
Black
10
210.521
20
-179.601
11
210.379
21
-179.459
0
LINE
8
Black
10
138.426
20
-187.014
11
139.95
21
-185.49
0
LINE
8
Black
10
139.95
20
-185.49
11
138.426
21
-183.966
0
LINE
8
Black
10
138.426
20
-183.966
11
136.902
21
-185.49
0
LINE
8
Black
10
136.902
20
-185.49
11
138.426
21
-187.014
0
LINE
8
Black
10
142.379
20
-183.847
11
144.236
21
-183.847
0
LINE
8
Black
10
144.236
20
-183.847
11
143.236
21
-184.99
0
LINE
8
Black
10
143.236
20
-184.99
11
143.664
21
-184.99
0
LINE
8
Black
10
143.664
20
-184.99
11
143.95
21
-185.133
0
LINE
8
Black
10
143.95
20
-185.133
11
144.093
21
-185.276
0
LINE
8
Black
10
144.093
20
-185.276
11
144.236
21
-185.561
0
LINE
8
Black
10
144.236
20
-185.561
11
144.236
21
-186.276
0
LINE
8
Black
10
144.236
20
-186.276
11
144.093
21
-186.561
0
LINE
8
Black
10
144.093
20
-186.561
11
143.95
21
-186.704
0
LINE
8
Black
10
143.95
20
-186.704
11
143.664
21
-186.847
0
LINE
8
Black
10
143.664
20
-186.847
11
142.807
21
-186.847
0
LINE
8
Black
10
142.807
20
-186.847
11
142.521
21
-186.704
0
LINE
8
Black
10
142.521
20
-186.704
11
142.379
21
-186.561
0
LINE
8
Black
10
145.521
20
-186.561
11
145.664
21
-186.704
0
LINE
8
Black
10
145.664
20
-186.704
11
145.521
21
-186.847
0
LINE
8
Black
10
145.521
20
-186.847
11
145.379
21
-186.704
0
LINE
8
Black
10
145.379
20
-186.704
11
145.521
21
-186.561
0
LINE
8
Black
10
145.521
20
-186.561
11
145.521
21
-186.847
0
LINE
8
Black
10
147.521
20
-183.847
11
147.807
21
-183.847
0
LINE
8
Black
10
147.807
20
-183.847
11
148.093
21
-183.99
0
LINE
8
Black
10
148.093
20
-183.99
11
148.236
21
-184.133
0
LINE
8
Black
10
148.236
20
-184.133
11
148.379
21
-184.419
0
LINE
8
Black
10
148.379
20
-184.419
11
148.521
21
-184.99
0
LINE
8
Black
10
148.521
20
-184.99
11
148.521
21
-185.704
0
LINE
8
Black
10
148.521
20
-185.704
11
148.379
21
-186.276
0
LINE
8
Black
10
148.379
20
-186.276
11
148.236
21
-186.561
0
LINE
8
Black
10
148.236
20
-186.561
11
148.093
21
-186.704
0
LINE
8
Black
10
148.093
20
-186.704
11
147.807
21
-186.847
0
LINE
8
Black
10
147.807
20
-186.847
11
147.521
21
-186.847
0
LINE
8
Black
10
147.521
20
-186.847
11
147.236
21
-186.704
0
LINE
8
Black
10
147.236
20
-186.704
11
147.093
21
-186.561
0
LINE
8
Black
10
147.093
20
-186.561
11
146.95
21
-186.276
0
LINE
8
Black
10
146.95
20
-186.276
11
146.807
21
-185.704
0
LINE
8
Black
10
146.807
20
-185.704
11
146.807
21
-184.99
0
LINE
8
Black
10
146.807
20
-184.99
11
146.95
21
-184.419
0
LINE
8
Black
10
146.95
20
-184.419
11
147.093
21
-184.133
0
LINE
8
Black
10
147.093
20
-184.133
11
147.236
21
-183.99
0
LINE
8
Black
10
147.236
20
-183.99
11
147.521
21
-183.847
0
LINE
8
Black
10
151.236
20
-183.847
11
149.807
21
-183.847
0
LINE
8
Black
10
149.807
20
-183.847
11
149.664
21
-185.276
0
LINE
8
Black
10
149.664
20
-185.276
11
149.807
21
-185.133
0
LINE
8
Black
10
149.807
20
-185.133
11
150.093
21
-184.99
0
LINE
8
Black
10
150.093
20
-184.99
11
150.807
21
-184.99
0
LINE
8
Black
10
150.807
20
-184.99
11
151.093
21
-185.133
0
LINE
8
Black
10
151.093
20
-185.133
11
151.236
21
-185.276
0
LINE
8
Black
10
151.236
20
-185.276
11
151.379
21
-185.561
0
LINE
8
Black
10
151.379
20
-185.561
11
151.379
21
-186.276
0
LINE
8
Black
10
151.379
20
-186.276
11
151.236
21
-186.561
0
LINE
8
Black
10
151.236
20
-186.561
11
151.093
21
-186.704
0
LINE
8
Black
10
151.093
20
-186.704
11
150.807
21
-186.847
0
LINE
8
Black
10
150.807
20
-186.847
11
150.093
21
-186.847
0
LINE
8
Black
10
150.093
20
-186.847
11
149.807
21
-186.704
0
LINE
8
Black
10
149.807
20
-186.704
11
149.664
21
-186.561
0
LINE
8
Black
10
152.664
20
-186.847
11
152.664
21
-184.847
0
LINE
8
Black
10
152.664
20
-185.133
11
152.807
21
-184.99
0
LINE
8
Black
10
152.807
20
-184.99
11
153.093
21
-184.847
0
LINE
8
Black
10
153.093
20
-184.847
11
153.521
21
-184.847
0
LINE
8
Black
10
153.521
20
-184.847
11
153.807
21
-184.99
0
LINE
8
Black
10
153.807
20
-184.99
11
153.95
21
-185.276
0
LINE
8
Black
10
153.95
20
-185.276
11
153.95
21
-186.847
0
LINE
8
Black
10
153.95
20
-185.276
11
154.093
21
-184.99
0
LINE
8
Black
10
154.093
20
-184.99
11
154.379
21
-184.847
0
LINE
8
Black
10
154.379
20
-184.847
11
154.807
21
-184.847
0
LINE
8
Black
10
154.807
20
-184.847
11
155.093
21
-184.99
0
LINE
8
Black
10
155.093
20
-184.99
11
155.236
21
-185.276
0
LINE
8
Black
10
155.236
20
-185.276
11
155.236
21
-186.847
0
LINE
8
Black
10
156.664
20
-186.847
11
156.664
21
-184.847
0
LINE
8
Black
10
156.664
20
-185.133
11
156.807
21
-184.99
0
LINE
8
Black
10
156.807
20
-184.99
11
157.093
21
-184.847
0
LINE
8
Black
10
157.093
20
-184.847
11
157.521
21
-184.847
0
LINE
8
Black
10
157.521
20
-184.847
11
157.807
21
-184.99
0
LINE
8
Black
10
157.807
20
-184.99
11
157.95
21
-185.276
0
LINE
8
Black
10
157.95
20
-185.276
11
157.95
21
-186.847
0
LINE
8
Black
10
157.95
20
-185.276
11
158.093
21
-184.99
0
LINE
8
Black
10
158.093
20
-184.99
11
158.379
21
-184.847
0
LINE
8
Black
10
158.379
20
-184.847
11
158.807
21
-184.847
0
LINE
8
Black
10
158.807
20
-184.847
11
159.093
21
-184.99
0
LINE
8
Black
10
159.093
20
-184.99
11
159.236
21
-185.276
0
LINE
8
Black
10
159.236
20
-185.276
11
159.236
21
-186.847
0
LINE
8
Black
10
165.093
20
-183.704
11
162.521
21
-187.561
0
LINE
8
Black
10
168.95
20
-183.847
11
169.236
21
-183.847
0
LINE
8
Black
10
169.236
20
-183.847
11
169.521
21
-183.99
0
LINE
8
Black
10
169.521
20
-183.99
11
169.664
21
-184.133
0
LINE
8
Black
10
169.664
20
-184.133
11
169.807
21
-184.419
0
LINE
8
Black
10
169.807
20
-184.419
11
169.95
21
-184.99
0
LINE
8
Black
10
169.95
20
-184.99
11
169.95
21
-185.704
0
LINE
8
Black
10
169.95
20
-185.704
11
169.807
21
-186.276
0
LINE
8
Black
10
169.807
20
-186.276
11
169.664
21
-186.561
0
LINE
8
Black
10
169.664
20
-186.561
11
169.521
21
-186.704
0
LINE
8
Black
10
169.521
20
-186.704
11
169.236
21
-186.847
0
LINE
8
Black
10
169.236
20
-186.847
11
168.95
21
-186.847
0
LINE
8
Black
10
168.95
20
-186.847
11
168.664
21
-186.704
0
LINE
8
Black
10
168.664
20
-186.704
11
168.521
21
-186.561
0
LINE
8
Black
10
168.521
20
-186.561
11
168.379
21
-186.276
0
LINE
8
Black
10
168.379
20
-186.276
11
168.236
21
-185.704
0
LINE
8
Black
10
168.236
20
-185.704
11
168.236
21
-184.99
0
LINE
8
Black
10
168.236
20
-184.99
11
168.379
21
-184.419
0
LINE
8
Black
10
168.379
20
-184.419
11
168.521
21
-184.133
0
LINE
8
Black
10
168.521
20
-184.133
11
168.664
21
-183.99
0
LINE
8
Black
10
168.664
20
-183.99
11
168.95
21
-183.847
0
LINE
8
Black
10
171.236
20
-186.561
11
171.379
21
-186.704
0
LINE
8
Black
10
171.379
20
-186.704
11
171.236
21
-186.847
0
LINE
8
Black
10
171.236
20
-186.847
11
171.093
21
-186.704
0
LINE
8
Black
10
171.093
20
-186.704
11
171.236
21
-186.561
0
LINE
8
Black
10
171.236
20
-186.561
11
171.236
21
-186.847
0
LINE
8
Black
10
174.236
20
-186.847
11
172.521
21
-186.847
0
LINE
8
Black
10
173.379
20
-186.847
11
173.379
21
-183.847
0
LINE
8
Black
10
173.379
20
-183.847
11
173.093
21
-184.276
0
LINE
8
Black
10
173.093
20
-184.276
11
172.807
21
-184.561
0
LINE
8
Black
10
172.807
20
-184.561
11
172.521
21
-184.704
0
LINE
8
Black
10
175.379
20
-184.133
11
175.521
21
-183.99
0
LINE
8
Black
10
175.521
20
-183.99
11
175.807
21
-183.847
0
LINE
8
Black
10
175.807
20
-183.847
11
176.521
21
-183.847
0
LINE
8
Black
10
176.521
20
-183.847
11
176.807
21
-183.99
0
LINE
8
Black
10
176.807
20
-183.99
11
176.95
21
-184.133
0
LINE
8
Black
10
176.95
20
-184.133
11
177.093
21
-184.419
0
LINE
8
Black
10
177.093
20
-184.419
11
177.093
21
-184.704
0
LINE
8
Black
10
177.093
20
-184.704
11
176.95
21
-185.133
0
LINE
8
Black
10
176.95
20
-185.133
11
175.236
21
-186.847
0
LINE
8
Black
10
175.236
20
-186.847
11
177.093
21
-186.847
0
LINE
8
Black
10
178.95
20
-183.847
11
179.236
21
-183.847
0
LINE
8
Black
10
179.236
20
-183.847
11
179.521
21
-183.99
0
LINE
8
Black
10
179.521
20
-183.99
11
179.664
21
-184.133
0
LINE
8
Black
10
179.664
20
-184.133
11
179.807
21
-184.419
0
LINE
8
Black
10
179.807
20
-184.419
11
179.95
21
-184.99
0
LINE
8
Black
10
179.95
20
-184.99
11
179.95
21
-185.704
0
LINE
8
Black
10
179.95
20
-185.704
11
179.807
21
-186.276
0
LINE
8
Black
10
179.807
20
-186.276
11
179.664
21
-186.561
0
LINE
8
Black
10
179.664
20
-186.561
11
179.521
21
-186.704
0
LINE
8
Black
10
179.521
20
-186.704
11
179.236
21
-186.847
0
LINE
8
Black
10
179.236
20
-186.847
11
178.95
21
-186.847
0
LINE
8
Black
10
178.95
20
-186.847
11
178.664
21
-186.704
0
LINE
8
Black
10
178.664
20
-186.704
11
178.521
21
-186.561
0
LINE
8
Black
10
178.521
20
-186.561
11
178.379
21
-186.276
0
LINE
8
Black
10
178.379
20
-186.276
11
178.236
21
-185.704
0
LINE
8
Black
10
178.236
20
-185.704
11
178.236
21
-184.99
0
LINE
8
Black
10
178.236
20
-184.99
11
178.379
21
-184.419
0
LINE
8
Black
10
178.379
20
-184.419
11
178.521
21
-184.133
0
LINE
8
Black
10
178.521
20
-184.133
11
178.664
21
-183.99
0
LINE
8
Black
10
178.664
20
-183.99
11
178.95
21
-183.847
0
LINE
8
Black
10
181.093
20
-183.847
11
181.093
21
-184.419
0
LINE
8
Black
10
182.236
20
-183.847
11
182.236
21
-184.419
0
LINE
8
Black
10
186.664
20
-187.99
11
186.521
21
-187.847
0
LINE
8
Black
10
186.521
20
-187.847
11
186.236
21
-187.419
0
LINE
8
Black
10
186.236
20
-187.419
11
186.093
21
-187.133
0
LINE
8
Black
10
186.093
20
-187.133
11
185.95
21
-186.704
0
LINE
8
Black
10
185.95
20
-186.704
11
185.807
21
-185.99
0
LINE
8
Black
10
185.807
20
-185.99
11
185.807
21
-185.419
0
LINE
8
Black
10
185.807
20
-185.419
11
185.95
21
-184.704
0
LINE
8
Black
10
185.95
20
-184.704
11
186.093
21
-184.276
0
LINE
8
Black
10
186.093
20
-184.276
11
186.236
21
-183.99
0
LINE
8
Black
10
186.236
20
-183.99
11
186.521
21
-183.561
0
LINE
8
Black
10
186.521
20
-183.561
11
186.664
21
-183.419
0
LINE
8
Black
10
187.664
20
-184.133
11
187.807
21
-183.99
0
LINE
8
Black
10
187.807
20
-183.99
11
188.093
21
-183.847
0
LINE
8
Black
10
188.093
20
-183.847
11
188.807
21
-183.847
0
LINE
8
Black
10
188.807
20
-183.847
11
189.093
21
-183.99
0
LINE
8
Black
10
189.093
20
-183.99
11
189.236
21
-184.133
0
LINE
8
Black
10
189.236
20
-184.133
11
189.379
21
-184.419
0
LINE
8
Black
10
189.379
20
-184.419
11
189.379
21
-184.704
0
LINE
8
Black
10
189.379
20
-184.704
11
189.236
21
-185.133
0
LINE
8
Black
10
189.236
20
-185.133
11
187.521
21
-186.847
0
LINE
8
Black
10
187.521
20
-186.847
11
189.379
21
-186.847
0
LINE
8
Black
10
192.95
20
-186.847
11
192.95
21
-183.847
0
LINE
8
Black
10
194.236
20
-186.847
11
194.236
21
-185.276
0
LINE
8
Black
10
194.236
20
-185.276
11
194.093
21
-184.99
0
LINE
8
Black
10
194.093
20
-184.99
11
193.807
21
-184.847
0
LINE
8
Black
10
193.807
20
-184.847
11
193.379
21
-184.847
0
LINE
8
Black
10
193.379
20
-184.847
11
193.093
21
-184.99
0
LINE
8
Black
10
193.093
20
-184.99
11
192.95
21
-185.133
0
LINE
8
Black
10
196.093
20
-186.847
11
195.807
21
-186.704
0
LINE
8
Black
10
195.807
20
-186.704
11
195.664
21
-186.561
0
LINE
8
Black
10
195.664
20
-186.561
11
195.521
21
-186.276
0
LINE
8
Black
10
195.521
20
-186.276
11
195.521
21
-185.419
0
LINE
8
Black
10
195.521
20
-185.419
11
195.664
21
-185.133
0
LINE
8
Black
10
195.664
20
-185.133
11
195.807
21
-184.99
0
LINE
8
Black
10
195.807
20
-184.99
11
196.093
21
-184.847
0
LINE
8
Black
10
196.093
20
-184.847
11
196.521
21
-184.847
0
LINE
8
Black
10
196.521
20
-184.847
11
196.807
21
-184.99
0
LINE
8
Black
10
196.807
20
-184.99
11
196.95
21
-185.133
0
LINE
8
Black
10
196.95
20
-185.133
11
197.093
21
-185.419
0
LINE
8
Black
10
197.093
20
-185.419
11
197.093
21
-186.276
0
LINE
8
Black
10
197.093
20
-186.276
11
196.95
21
-186.561
0
LINE
8
Black
10
196.95
20
-186.561
11
196.807
21
-186.704
0
LINE
8
Black
10
196.807
20
-186.704
11
196.521
21
-186.847
0
LINE
8
Black
10
196.521
20
-186.847
11
196.093
21
-186.847
0
LINE
8
Black
10
198.807
20
-186.847
11
198.521
21
-186.704
0
LINE
8
Black
10
198.521
20
-186.704
11
198.379
21
-186.419
0
LINE
8
Black
10
198.379
20
-186.419
11
198.379
21
-183.847
0
LINE
8
Black
10
201.093
20
-186.704
11
200.807
21
-186.847
0
LINE
8
Black
10
200.807
20
-186.847
11
200.236
21
-186.847
0
LINE
8
Black
10
200.236
20
-186.847
11
199.95
21
-186.704
0
LINE
8
Black
10
199.95
20
-186.704
11
199.807
21
-186.419
0
LINE
8
Black
10
199.807
20
-186.419
11
199.807
21
-185.276
0
LINE
8
Black
10
199.807
20
-185.276
11
199.95
21
-184.99
0
LINE
8
Black
10
199.95
20
-184.99
11
200.236
21
-184.847
0
LINE
8
Black
10
200.236
20
-184.847
11
200.807
21
-184.847
0
LINE
8
Black
10
200.807
20
-184.847
11
201.093
21
-184.99
0
LINE
8
Black
10
201.093
20
-184.99
11
201.236
21
-185.276
0
LINE
8
Black
10
201.236
20
-185.276
11
201.236
21
-185.561
0
LINE
8
Black
10
201.236
20
-185.561
11
199.807
21
-185.847
0
LINE
8
Black
10
202.379
20
-186.704
11
202.664
21
-186.847
0
LINE
8
Black
10
202.664
20
-186.847
11
203.236
21
-186.847
0
LINE
8
Black
10
203.236
20
-186.847
11
203.521
21
-186.704
0
LINE
8
Black
10
203.521
20
-186.704
11
203.664
21
-186.419
0
LINE
8
Black
10
203.664
20
-186.419
11
203.664
21
-186.276
0
LINE
8
Black
10
203.664
20
-186.276
11
203.521
21
-185.99
0
LINE
8
Black
10
203.521
20
-185.99
11
203.236
21
-185.847
0
LINE
8
Black
10
203.236
20
-185.847
11
202.807
21
-185.847
0
LINE
8
Black
10
202.807
20
-185.847
11
202.521
21
-185.704
0
LINE
8
Black
10
202.521
20
-185.704
11
202.379
21
-185.419
0
LINE
8
Black
10
202.379
20
-185.419
11
202.379
21
-185.276
0
LINE
8
Black
10
202.379
20
-185.276
11
202.521
21
-184.99
0
LINE
8
Black
10
202.521
20
-184.99
11
202.807
21
-184.847
0
LINE
8
Black
10
202.807
20
-184.847
11
203.236
21
-184.847
0
LINE
8
Black
10
203.236
20
-184.847
11
203.521
21
-184.99
0
LINE
8
Black
10
204.664
20
-187.99
11
204.807
21
-187.847
0
LINE
8
Black
10
204.807
20
-187.847
11
205.093
21
-187.419
0
LINE
8
Black
10
205.093
20
-187.419
11
205.236
21
-187.133
0
LINE
8
Black
10
205.236
20
-187.133
11
205.379
21
-186.704
0
LINE
8
Black
10
205.379
20
-186.704
11
205.521
21
-185.99
0
LINE
8
Black
10
205.521
20
-185.99
11
205.521
21
-185.419
0
LINE
8
Black
10
205.521
20
-185.419
11
205.379
21
-184.704
0
LINE
8
Black
10
205.379
20
-184.704
11
205.236
21
-184.276
0
LINE
8
Black
10
205.236
20
-184.276
11
205.093
21
-183.99
0
LINE
8
Black
10
205.093
20
-183.99
11
204.807
21
-183.561
0
LINE
8
Black
10
204.807
20
-183.561
11
204.664
21
-183.419
0
LINE
8
Black
10
136.115
20
-187.92
11
139.95
21
-191.756
0
LINE
8
Black
10
139.95
20
-187.92
11
136.115
21
-191.756
0
CIRCLE
8
Black
10
138.032
20
-189.838
40
1.9177
0
LINE
8
Black
10
142.379
20
-188.195
11
144.236
21
-188.195
0
LINE
8
Black
10
144.236
20
-188.195
11
143.236
21
-189.338
0
LINE
8
Black
10
143.236
20
-189.338
11
143.664
21
-189.338
0
LINE
8
Black
10
143.664
20
-189.338
11
143.95
21
-189.481
0
LINE
8
Black
10
143.95
20
-189.481
11
144.093
21
-189.624
0
LINE
8
Black
10
144.093
20
-189.624
11
144.236
21
-189.909
0
LINE
8
Black
10
144.236
20
-189.909
11
144.236
21
-190.624
0
LINE
8
Black
10
144.236
20
-190.624
11
144.093
21
-190.909
0
LINE
8
Black
10
144.093
20
-190.909
11
143.95
21
-191.052
0
LINE
8
Black
10
143.95
20
-191.052
11
143.664
21
-191.195
0
LINE
8
Black
10
143.664
20
-191.195
11
142.807
21
-191.195
0
LINE
8
Black
10
142.807
20
-191.195
11
142.521
21
-191.052
0
LINE
8
Black
10
142.521
20
-191.052
11
142.379
21
-190.909
0
LINE
8
Black
10
145.521
20
-190.909
11
145.664
21
-191.052
0
LINE
8
Black
10
145.664
20
-191.052
11
145.521
21
-191.195
0
LINE
8
Black
10
145.521
20
-191.195
11
145.379
21
-191.052
0
LINE
8
Black
10
145.379
20
-191.052
11
145.521
21
-190.909
0
LINE
8
Black
10
145.521
20
-190.909
11
145.521
21
-191.195
0
LINE
8
Black
10
147.379
20
-189.481
11
147.093
21
-189.338
0
LINE
8
Black
10
147.093
20
-189.338
11
146.95
21
-189.195
0
LINE
8
Black
10
146.95
20
-189.195
11
146.807
21
-188.909
0
LINE
8
Black
10
146.807
20
-188.909
11
146.807
21
-188.767
0
LINE
8
Black
10
146.807
20
-188.767
11
146.95
21
-188.481
0
LINE
8
Black
10
146.95
20
-188.481
11
147.093
21
-188.338
0
LINE
8
Black
10
147.093
20
-188.338
11
147.379
21
-188.195
0
LINE
8
Black
10
147.379
20
-188.195
11
147.95
21
-188.195
0
LINE
8
Black
10
147.95
20
-188.195
11
148.236
21
-188.338
0
LINE
8
Black
10
148.236
20
-188.338
11
148.379
21
-188.481
0
LINE
8
Black
10
148.379
20
-188.481
11
148.521
21
-188.767
0
LINE
8
Black
10
148.521
20
-188.767
11
148.521
21
-188.909
0
LINE
8
Black
10
148.521
20
-188.909
11
148.379
21
-189.195
0
LINE
8
Black
10
148.379
20
-189.195
11
148.236
21
-189.338
0
LINE
8
Black
10
148.236
20
-189.338
11
147.95
21
-189.481
0
LINE
8
Black
10
147.95
20
-189.481
11
147.379
21
-189.481
0
LINE
8
Black
10
147.379
20
-189.481
11
147.093
21
-189.624
0
LINE
8
Black
10
147.093
20
-189.624
11
146.95
21
-189.767
0
LINE
8
Black
10
146.95
20
-189.767
11
146.807
21
-190.052
0
LINE
8
Black
10
146.807
20
-190.052
11
146.807
21
-190.624
0
LINE
8
Black
10
146.807
20
-190.624
11
146.95
21
-190.909
0
LINE
8
Black
10
146.95
20
-190.909
11
147.093
21
-191.052
0
LINE
8
Black
10
147.093
20
-191.052
11
147.379
21
-191.195
0
LINE
8
Black
10
147.379
20
-191.195
11
147.95
21
-191.195
0
LINE
8
Black
10
147.95
20
-191.195
11
148.236
21
-191.052
0
LINE
8
Black
10
148.236
20
-191.052
11
148.379
21
-190.909
0
LINE
8
Black
10
148.379
20
-190.909
11
148.521
21
-190.624
0
LINE
8
Black
10
148.521
20
-190.624
11
148.521
21
-190.052
0
LINE
8
Black
10
148.521
20
-190.052
11
148.379
21
-189.767
0
LINE
8
Black
10
148.379
20
-189.767
11
148.236
21
-189.624
0
LINE
8
Black
10
148.236
20
-189.624
11
147.95
21
-189.481
0
LINE
8
Black
10
151.093
20
-189.195
11
151.093
21
-191.195
0
LINE
8
Black
10
150.379
20
-188.052
11
149.664
21
-190.195
0
LINE
8
Black
10
149.664
20
-190.195
11
151.521
21
-190.195
0
LINE
8
Black
10
152.664
20
-191.195
11
152.664
21
-189.195
0
LINE
8
Black
10
152.664
20
-189.481
11
152.807
21
-189.338
0
LINE
8
Black
10
152.807
20
-189.338
11
153.093
21
-189.195
0
LINE
8
Black
10
153.093
20
-189.195
11
153.521
21
-189.195
0
LINE
8
Black
10
153.521
20
-189.195
11
153.807
21
-189.338
0
LINE
8
Black
10
153.807
20
-189.338
11
153.95
21
-189.624
0
LINE
8
Black
10
153.95
20
-189.624
11
153.95
21
-191.195
0
LINE
8
Black
10
153.95
20
-189.624
11
154.093
21
-189.338
0
LINE
8
Black
10
154.093
20
-189.338
11
154.379
21
-189.195
0
LINE
8
Black
10
154.379
20
-189.195
11
154.807
21
-189.195
0
LINE
8
Black
10
154.807
20
-189.195
11
155.093
21
-189.338
0
LINE
8
Black
10
155.093
20
-189.338
11
155.236
21
-189.624
0
LINE
8
Black
10
155.236
20
-189.624
11
155.236
21
-191.195
0
LINE
8
Black
10
156.664
20
-191.195
11
156.664
21
-189.195
0
LINE
8
Black
10
156.664
20
-189.481
11
156.807
21
-189.338
0
LINE
8
Black
10
156.807
20
-189.338
11
157.093
21
-189.195
0
LINE
8
Black
10
157.093
20
-189.195
11
157.521
21
-189.195
0
LINE
8
Black
10
157.521
20
-189.195
11
157.807
21
-189.338
0
LINE
8
Black
10
157.807
20
-189.338
11
157.95
21
-189.624
0
LINE
8
Black
10
157.95
20
-189.624
11
157.95
21
-191.195
0
LINE
8
Black
10
157.95
20
-189.624
11
158.093
21
-189.338
0
LINE
8
Black
10
158.093
20
-189.338
11
158.379
21
-189.195
0
LINE
8
Black
10
158.379
20
-189.195
11
158.807
21
-189.195
0
LINE
8
Black
10
158.807
20
-189.195
11
159.093
21
-189.338
0
LINE
8
Black
10
159.093
20
-189.338
11
159.236
21
-189.624
0
LINE
8
Black
10
159.236
20
-189.624
11
159.236
21
-191.195
0
LINE
8
Black
10
165.093
20
-188.052
11
162.521
21
-191.909
0
LINE
8
Black
10
168.95
20
-188.195
11
169.236
21
-188.195
0
LINE
8
Black
10
169.236
20
-188.195
11
169.521
21
-188.338
0
LINE
8
Black
10
169.521
20
-188.338
11
169.664
21
-188.481
0
LINE
8
Black
10
169.664
20
-188.481
11
169.807
21
-188.767
0
LINE
8
Black
10
169.807
20
-188.767
11
169.95
21
-189.338
0
LINE
8
Black
10
169.95
20
-189.338
11
169.95
21
-190.052
0
LINE
8
Black
10
169.95
20
-190.052
11
169.807
21
-190.624
0
LINE
8
Black
10
169.807
20
-190.624
11
169.664
21
-190.909
0
LINE
8
Black
10
169.664
20
-190.909
11
169.521
21
-191.052
0
LINE
8
Black
10
169.521
20
-191.052
11
169.236
21
-191.195
0
LINE
8
Black
10
169.236
20
-191.195
11
168.95
21
-191.195
0
LINE
8
Black
10
168.95
20
-191.195
11
168.664
21
-191.052
0
LINE
8
Black
10
168.664
20
-191.052
11
168.521
21
-190.909
0
LINE
8
Black
10
168.521
20
-190.909
11
168.379
21
-190.624
0
LINE
8
Black
10
168.379
20
-190.624
11
168.236
21
-190.052
0
LINE
8
Black
10
168.236
20
-190.052
11
168.236
21
-189.338
0
LINE
8
Black
10
168.236
20
-189.338
11
168.379
21
-188.767
0
LINE
8
Black
10
168.379
20
-188.767
11
168.521
21
-188.481
0
LINE
8
Black
10
168.521
20
-188.481
11
168.664
21
-188.338
0
LINE
8
Black
10
168.664
20
-188.338
11
168.95
21
-188.195
0
LINE
8
Black
10
171.236
20
-190.909
11
171.379
21
-191.052
0
LINE
8
Black
10
171.379
20
-191.052
11
171.236
21
-191.195
0
LINE
8
Black
10
171.236
20
-191.195
11
171.093
21
-191.052
0
LINE
8
Black
10
171.093
20
-191.052
11
171.236
21
-190.909
0
LINE
8
Black
10
171.236
20
-190.909
11
171.236
21
-191.195
0
LINE
8
Black
10
174.236
20
-191.195
11
172.521
21
-191.195
0
LINE
8
Black
10
173.379
20
-191.195
11
173.379
21
-188.195
0
LINE
8
Black
10
173.379
20
-188.195
11
173.093
21
-188.624
0
LINE
8
Black
10
173.093
20
-188.624
11
172.807
21
-188.909
0
LINE
8
Black
10
172.807
20
-188.909
11
172.521
21
-189.052
0
LINE
8
Black
10
176.95
20
-188.195
11
175.521
21
-188.195
0
LINE
8
Black
10
175.521
20
-188.195
11
175.379
21
-189.624
0
LINE
8
Black
10
175.379
20
-189.624
11
175.521
21
-189.481
0
LINE
8
Black
10
175.521
20
-189.481
11
175.807
21
-189.338
0
LINE
8
Black
10
175.807
20
-189.338
11
176.521
21
-189.338
0
LINE
8
Black
10
176.521
20
-189.338
11
176.807
21
-189.481
0
LINE
8
Black
10
176.807
20
-189.481
11
176.95
21
-189.624
0
LINE
8
Black
10
176.95
20
-189.624
11
177.093
21
-189.909
0
LINE
8
Black
10
177.093
20
-189.909
11
177.093
21
-190.624
0
LINE
8
Black
10
177.093
20
-190.624
11
176.95
21
-190.909
0
LINE
8
Black
10
176.95
20
-190.909
11
176.807
21
-191.052
0
LINE
8
Black
10
176.807
20
-191.052
11
176.521
21
-191.195
0
LINE
8
Black
10
176.521
20
-191.195
11
175.807
21
-191.195
0
LINE
8
Black
10
175.807
20
-191.195
11
175.521
21
-191.052
0
LINE
8
Black
10
175.521
20
-191.052
11
175.379
21
-190.909
0
LINE
8
Black
10
179.95
20
-191.195
11
178.236
21
-191.195
0
LINE
8
Black
10
179.093
20
-191.195
11
179.093
21
-188.195
0
LINE
8
Black
10
179.093
20
-188.195
11
178.807
21
-188.624
0
LINE
8
Black
10
178.807
20
-188.624
11
178.521
21
-188.909
0
LINE
8
Black
10
178.521
20
-188.909
11
178.236
21
-189.052
0
LINE
8
Black
10
181.093
20
-188.195
11
181.093
21
-188.767
0
LINE
8
Black
10
182.236
20
-188.195
11
182.236
21
-188.767
0
LINE
8
Black
10
186.664
20
-192.338
11
186.521
21
-192.195
0
LINE
8
Black
10
186.521
20
-192.195
11
186.236
21
-191.767
0
LINE
8
Black
10
186.236
20
-191.767
11
186.093
21
-191.481
0
LINE
8
Black
10
186.093
20
-191.481
11
185.95
21
-191.052
0
LINE
8
Black
10
185.95
20
-191.052
11
185.807
21
-190.338
0
LINE
8
Black
10
185.807
20
-190.338
11
185.807
21
-189.767
0
LINE
8
Black
10
185.807
20
-189.767
11
185.95
21
-189.052
0
LINE
8
Black
10
185.95
20
-189.052
11
186.093
21
-188.624
0
LINE
8
Black
10
186.093
20
-188.624
11
186.236
21
-188.338
0
LINE
8
Black
10
186.236
20
-188.338
11
186.521
21
-187.909
0
LINE
8
Black
10
186.521
20
-187.909
11
186.664
21
-187.767
0
LINE
8
Black
10
189.093
20
-189.195
11
189.093
21
-191.195
0
LINE
8
Black
10
188.379
20
-188.052
11
187.664
21
-190.195
0
LINE
8
Black
10
187.664
20
-190.195
11
189.521
21
-190.195
0
LINE
8
Black
10
192.95
20
-191.195
11
192.95
21
-188.195
0
LINE
8
Black
10
194.236
20
-191.195
11
194.236
21
-189.624
0
LINE
8
Black
10
194.236
20
-189.624
11
194.093
21
-189.338
0
LINE
8
Black
10
194.093
20
-189.338
11
193.807
21
-189.195
0
LINE
8
Black
10
193.807
20
-189.195
11
193.379
21
-189.195
0
LINE
8
Black
10
193.379
20
-189.195
11
193.093
21
-189.338
0
LINE
8
Black
10
193.093
20
-189.338
11
192.95
21
-189.481
0
LINE
8
Black
10
196.093
20
-191.195
11
195.807
21
-191.052
0
LINE
8
Black
10
195.807
20
-191.052
11
195.664
21
-190.909
0
LINE
8
Black
10
195.664
20
-190.909
11
195.521
21
-190.624
0
LINE
8
Black
10
195.521
20
-190.624
11
195.521
21
-189.767
0
LINE
8
Black
10
195.521
20
-189.767
11
195.664
21
-189.481
0
LINE
8
Black
10
195.664
20
-189.481
11
195.807
21
-189.338
0
LINE
8
Black
10
195.807
20
-189.338
11
196.093
21
-189.195
0
LINE
8
Black
10
196.093
20
-189.195
11
196.521
21
-189.195
0
LINE
8
Black
10
196.521
20
-189.195
11
196.807
21
-189.338
0
LINE
8
Black
10
196.807
20
-189.338
11
196.95
21
-189.481
0
LINE
8
Black
10
196.95
20
-189.481
11
197.093
21
-189.767
0
LINE
8
Black
10
197.093
20
-189.767
11
197.093
21
-190.624
0
LINE
8
Black
10
197.093
20
-190.624
11
196.95
21
-190.909
0
LINE
8
Black
10
196.95
20
-190.909
11
196.807
21
-191.052
0
LINE
8
Black
10
196.807
20
-191.052
11
196.521
21
-191.195
0
LINE
8
Black
10
196.521
20
-191.195
11
196.093
21
-191.195
0
LINE
8
Black
10
198.807
20
-191.195
11
198.521
21
-191.052
0
LINE
8
Black
10
198.521
20
-191.052
11
198.379
21
-190.767
0
LINE
8
Black
10
198.379
20
-190.767
11
198.379
21
-188.195
0
LINE
8
Black
10
201.093
20
-191.052
11
200.807
21
-191.195
0
LINE
8
Black
10
200.807
20
-191.195
11
200.236
21
-191.195
0
LINE
8
Black
10
200.236
20
-191.195
11
199.95
21
-191.052
0
LINE
8
Black
10
199.95
20
-191.052
11
199.807
21
-190.767
0
LINE
8
Black
10
199.807
20
-190.767
11
199.807
21
-189.624
0
LINE
8
Black
10
199.807
20
-189.624
11
199.95
21
-189.338
0
LINE
8
Black
10
199.95
20
-189.338
11
200.236
21
-189.195
0
LINE
8
Black
10
200.236
20
-189.195
11
200.807
21
-189.195
0
LINE
8
Black
10
200.807
20
-189.195
11
201.093
21
-189.338
0
LINE
8
Black
10
201.093
20
-189.338
11
201.236
21
-189.624
0
LINE
8
Black
10
201.236
20
-189.624
11
201.236
21
-189.909
0
LINE
8
Black
10
201.236
20
-189.909
11
199.807
21
-190.195
0
LINE
8
Black
10
202.379
20
-191.052
11
202.664
21
-191.195
0
LINE
8
Black
10
202.664
20
-191.195
11
203.236
21
-191.195
0
LINE
8
Black
10
203.236
20
-191.195
11
203.521
21
-191.052
0
LINE
8
Black
10
203.521
20
-191.052
11
203.664
21
-190.767
0
LINE
8
Black
10
203.664
20
-190.767
11
203.664
21
-190.624
0
LINE
8
Black
10
203.664
20
-190.624
11
203.521
21
-190.338
0
LINE
8
Black
10
203.521
20
-190.338
11
203.236
21
-190.195
0
LINE
8
Black
10
203.236
20
-190.195
11
202.807
21
-190.195
0
LINE
8
Black
10
202.807
20
-190.195
11
202.521
21
-190.052
0
LINE
8
Black
10
202.521
20
-190.052
11
202.379
21
-189.767
0
LINE
8
Black
10
202.379
20
-189.767
11
202.379
21
-189.624
0
LINE
8
Black
10
202.379
20
-189.624
11
202.521
21
-189.338
0
LINE
8
Black
10
202.521
20
-189.338
11
202.807
21
-189.195
0
LINE
8
Black
10
202.807
20
-189.195
11
203.236
21
-189.195
0
LINE
8
Black
10
203.236
20
-189.195
11
203.521
21
-189.338
0
LINE
8
Black
10
204.664
20
-192.338
11
204.807
21
-192.195
0
LINE
8
Black
10
204.807
20
-192.195
11
205.093
21
-191.767
0
LINE
8
Black
10
205.093
20
-191.767
11
205.236
21
-191.481
0
LINE
8
Black
10
205.236
20
-191.481
11
205.379
21
-191.052
0
LINE
8
Black
10
205.379
20
-191.052
11
205.521
21
-190.338
0
LINE
8
Black
10
205.521
20
-190.338
11
205.521
21
-189.767
0
LINE
8
Black
10
205.521
20
-189.767
11
205.379
21
-189.052
0
LINE
8
Black
10
205.379
20
-189.052
11
205.236
21
-188.624
0
LINE
8
Black
10
205.236
20
-188.624
11
205.093
21
-188.338
0
LINE
8
Black
10
205.093
20
-188.338
11
204.807
21
-187.909
0
LINE
8
Black
10
204.807
20
-187.909
11
204.664
21
-187.767
  0
ENDSEC
  0
EOF
