G04 (created by PCBNEW (2013-04-19 BZR 4011)-stable) date 21/10/2014 12:48:18*
%MOIN*%
G04 Gerber Fmt 3.4, Leading zero omitted, Abs format*
%FSLAX34Y34*%
G01*
G70*
G90*
G04 APERTURE LIST*
%ADD10C,0*%
%ADD11R,0.06X0.06*%
%ADD12C,0.06*%
G04 APERTURE END LIST*
G54D10*
G54D11*
X1000Y-5500D03*
G54D12*
X1000Y-4500D03*
X2000Y-5500D03*
X2000Y-4500D03*
X3000Y-5500D03*
X3000Y-4500D03*
X4000Y-5500D03*
X4000Y-4500D03*
X5000Y-5500D03*
X5000Y-4500D03*
X6000Y-5500D03*
X6000Y-4500D03*
X7000Y-5500D03*
X7000Y-4500D03*
X8000Y-5500D03*
X8000Y-4500D03*
X9000Y-5500D03*
X9000Y-4500D03*
X10000Y-5500D03*
X10000Y-4500D03*
X11000Y-5500D03*
X11000Y-4500D03*
X12000Y-5500D03*
X12000Y-4500D03*
X13000Y-5500D03*
X13000Y-4500D03*
G54D11*
X4000Y-9000D03*
G54D12*
X4000Y-8000D03*
X4000Y-7000D03*
G54D11*
X7000Y-9000D03*
G54D12*
X7000Y-8000D03*
X7000Y-7000D03*
G54D11*
X10000Y-9000D03*
G54D12*
X10000Y-8000D03*
X10000Y-7000D03*
G54D11*
X12000Y-9000D03*
G54D12*
X12000Y-8000D03*
X12000Y-7000D03*
G54D11*
X8000Y-9000D03*
G54D12*
X8000Y-8000D03*
X8000Y-7000D03*
G54D11*
X11000Y-9000D03*
G54D12*
X11000Y-8000D03*
X11000Y-7000D03*
G54D11*
X6000Y-9000D03*
G54D12*
X6000Y-8000D03*
X6000Y-7000D03*
G54D11*
X8000Y-1000D03*
G54D12*
X8000Y-2000D03*
X8000Y-3000D03*
G54D11*
X9000Y-1000D03*
G54D12*
X9000Y-2000D03*
X9000Y-3000D03*
G54D11*
X11000Y-1000D03*
G54D12*
X11000Y-2000D03*
X11000Y-3000D03*
G54D11*
X12000Y-1000D03*
G54D12*
X12000Y-2000D03*
X12000Y-3000D03*
G54D11*
X13000Y-1000D03*
G54D12*
X13000Y-2000D03*
X13000Y-3000D03*
G54D11*
X3000Y-9000D03*
G54D12*
X3000Y-8000D03*
X3000Y-7000D03*
G54D11*
X5000Y-1000D03*
G54D12*
X5000Y-2000D03*
X5000Y-3000D03*
G54D11*
X2000Y-9000D03*
G54D12*
X2000Y-8000D03*
X2000Y-7000D03*
G54D11*
X4000Y-1000D03*
G54D12*
X4000Y-2000D03*
X4000Y-3000D03*
G54D11*
X6000Y-1000D03*
G54D12*
X6000Y-2000D03*
X6000Y-3000D03*
M02*
