G04 #@! TF.FileFunction,Legend,Bot*
%FSLAX46Y46*%
G04 Gerber Fmt 4.6, Leading zero omitted, Abs format (unit mm)*
G04 Created by KiCad (PCBNEW (after 2015-mar-04 BZR unknown)-product) date 4/21/2015 1:20:39 PM*
%MOMM*%
G01*
G04 APERTURE LIST*
%ADD10C,0.150000*%
%ADD11C,0.300000*%
%ADD12C,0.200000*%
%ADD13C,0.285750*%
%ADD14C,0.635000*%
%ADD15C,0.381000*%
G04 APERTURE END LIST*
D10*
D11*
X177241428Y-104390571D02*
X176384285Y-104390571D01*
X176812856Y-105890571D02*
X176812856Y-104390571D01*
X175884285Y-105104857D02*
X175384285Y-105104857D01*
X175169999Y-105890571D02*
X175884285Y-105890571D01*
X175884285Y-104390571D01*
X175169999Y-104390571D01*
X174598571Y-105819143D02*
X174384285Y-105890571D01*
X174027142Y-105890571D01*
X173884285Y-105819143D01*
X173812856Y-105747714D01*
X173741428Y-105604857D01*
X173741428Y-105462000D01*
X173812856Y-105319143D01*
X173884285Y-105247714D01*
X174027142Y-105176286D01*
X174312856Y-105104857D01*
X174455714Y-105033429D01*
X174527142Y-104962000D01*
X174598571Y-104819143D01*
X174598571Y-104676286D01*
X174527142Y-104533429D01*
X174455714Y-104462000D01*
X174312856Y-104390571D01*
X173955714Y-104390571D01*
X173741428Y-104462000D01*
X173312857Y-104390571D02*
X172455714Y-104390571D01*
X172884285Y-105890571D02*
X172884285Y-104390571D01*
X171955714Y-105104857D02*
X171455714Y-105104857D01*
X171241428Y-105890571D02*
X171955714Y-105890571D01*
X171955714Y-104390571D01*
X171241428Y-104390571D01*
X170598571Y-105890571D02*
X170598571Y-104390571D01*
X170241428Y-104390571D01*
X170027143Y-104462000D01*
X169884285Y-104604857D01*
X169812857Y-104747714D01*
X169741428Y-105033429D01*
X169741428Y-105247714D01*
X169812857Y-105533429D01*
X169884285Y-105676286D01*
X170027143Y-105819143D01*
X170241428Y-105890571D01*
X170598571Y-105890571D01*
D12*
X174182000Y-108006000D02*
X174055000Y-108006000D01*
X172658000Y-108006000D02*
X174182000Y-108006000D01*
X172658000Y-107752000D02*
X172658000Y-108006000D01*
X174182000Y-107752000D02*
X172658000Y-107752000D01*
X174182000Y-107498000D02*
X174182000Y-107752000D01*
X172658000Y-107498000D02*
X174182000Y-107498000D01*
X172658000Y-107244000D02*
X172658000Y-107498000D01*
X174182000Y-107244000D02*
X172658000Y-107244000D01*
X174182000Y-106990000D02*
X174182000Y-107244000D01*
X172658000Y-106990000D02*
X174182000Y-106990000D01*
X174182000Y-107879000D02*
X172658000Y-107879000D01*
X174182000Y-107625000D02*
X174182000Y-107879000D01*
X172658000Y-107625000D02*
X174182000Y-107625000D01*
X172658000Y-107371000D02*
X172658000Y-107625000D01*
X174182000Y-107371000D02*
X172658000Y-107371000D01*
X174182000Y-107117000D02*
X174182000Y-107371000D01*
X172658000Y-107117000D02*
X174182000Y-107117000D01*
X172658000Y-106863000D02*
X172658000Y-107117000D01*
X172658000Y-108133000D02*
X172658000Y-106863000D01*
X174182000Y-108133000D02*
X172658000Y-108133000D01*
X174182000Y-106863000D02*
X174182000Y-108133000D01*
X172658000Y-106863000D02*
X174182000Y-106863000D01*
D13*
X120848304Y-99143214D02*
X120919732Y-99252072D01*
X121062589Y-99306500D01*
X122348304Y-99306500D01*
X120848304Y-98217929D02*
X121634018Y-98217929D01*
X121776875Y-98272358D01*
X121848304Y-98381215D01*
X121848304Y-98598929D01*
X121776875Y-98707786D01*
X120919732Y-98217929D02*
X120848304Y-98326786D01*
X120848304Y-98598929D01*
X120919732Y-98707786D01*
X121062589Y-98762215D01*
X121205446Y-98762215D01*
X121348304Y-98707786D01*
X121419732Y-98598929D01*
X121419732Y-98326786D01*
X121491161Y-98217929D01*
X121848304Y-97673643D02*
X120848304Y-97673643D01*
X121705446Y-97673643D02*
X121776875Y-97619215D01*
X121848304Y-97510357D01*
X121848304Y-97347072D01*
X121776875Y-97238215D01*
X121634018Y-97183786D01*
X120848304Y-97183786D01*
X120848304Y-96149643D02*
X122348304Y-96149643D01*
X120919732Y-96149643D02*
X120848304Y-96258500D01*
X120848304Y-96476214D01*
X120919732Y-96585072D01*
X120991161Y-96639500D01*
X121134018Y-96693929D01*
X121562589Y-96693929D01*
X121705446Y-96639500D01*
X121776875Y-96585072D01*
X121848304Y-96476214D01*
X121848304Y-96258500D01*
X121776875Y-96149643D01*
X121419732Y-95605357D02*
X121419732Y-94734500D01*
X120848304Y-94190214D02*
X122348304Y-94190214D01*
X121776875Y-94190214D02*
X121848304Y-94081357D01*
X121848304Y-93863643D01*
X121776875Y-93754786D01*
X121705446Y-93700357D01*
X121562589Y-93645928D01*
X121134018Y-93645928D01*
X120991161Y-93700357D01*
X120919732Y-93754786D01*
X120848304Y-93863643D01*
X120848304Y-94081357D01*
X120919732Y-94190214D01*
X120848304Y-92992785D02*
X120919732Y-93101643D01*
X120991161Y-93156071D01*
X121134018Y-93210500D01*
X121562589Y-93210500D01*
X121705446Y-93156071D01*
X121776875Y-93101643D01*
X121848304Y-92992785D01*
X121848304Y-92829500D01*
X121776875Y-92720643D01*
X121705446Y-92666214D01*
X121562589Y-92611785D01*
X121134018Y-92611785D01*
X120991161Y-92666214D01*
X120919732Y-92720643D01*
X120848304Y-92829500D01*
X120848304Y-92992785D01*
X120848304Y-91632071D02*
X121634018Y-91632071D01*
X121776875Y-91686500D01*
X121848304Y-91795357D01*
X121848304Y-92013071D01*
X121776875Y-92121928D01*
X120919732Y-91632071D02*
X120848304Y-91740928D01*
X120848304Y-92013071D01*
X120919732Y-92121928D01*
X121062589Y-92176357D01*
X121205446Y-92176357D01*
X121348304Y-92121928D01*
X121419732Y-92013071D01*
X121419732Y-91740928D01*
X121491161Y-91632071D01*
X120848304Y-91087785D02*
X121848304Y-91087785D01*
X121562589Y-91087785D02*
X121705446Y-91033357D01*
X121776875Y-90978928D01*
X121848304Y-90870071D01*
X121848304Y-90761214D01*
X120848304Y-89890357D02*
X122348304Y-89890357D01*
X120919732Y-89890357D02*
X120848304Y-89999214D01*
X120848304Y-90216928D01*
X120919732Y-90325786D01*
X120991161Y-90380214D01*
X121134018Y-90434643D01*
X121562589Y-90434643D01*
X121705446Y-90380214D01*
X121776875Y-90325786D01*
X121848304Y-90216928D01*
X121848304Y-89999214D01*
X121776875Y-89890357D01*
X120919732Y-89400500D02*
X120848304Y-89291643D01*
X120848304Y-89073928D01*
X120919732Y-88965071D01*
X121062589Y-88910643D01*
X121134018Y-88910643D01*
X121276875Y-88965071D01*
X121348304Y-89073928D01*
X121348304Y-89237214D01*
X121419732Y-89346071D01*
X121562589Y-89400500D01*
X121634018Y-89400500D01*
X121776875Y-89346071D01*
X121848304Y-89237214D01*
X121848304Y-89073928D01*
X121776875Y-88965071D01*
X120991161Y-88420785D02*
X120919732Y-88366357D01*
X120848304Y-88420785D01*
X120919732Y-88475214D01*
X120991161Y-88420785D01*
X120848304Y-88420785D01*
X120919732Y-87386642D02*
X120848304Y-87495499D01*
X120848304Y-87713213D01*
X120919732Y-87822071D01*
X120991161Y-87876499D01*
X121134018Y-87930928D01*
X121562589Y-87930928D01*
X121705446Y-87876499D01*
X121776875Y-87822071D01*
X121848304Y-87713213D01*
X121848304Y-87495499D01*
X121776875Y-87386642D01*
X120848304Y-86733499D02*
X120919732Y-86842357D01*
X120991161Y-86896785D01*
X121134018Y-86951214D01*
X121562589Y-86951214D01*
X121705446Y-86896785D01*
X121776875Y-86842357D01*
X121848304Y-86733499D01*
X121848304Y-86570214D01*
X121776875Y-86461357D01*
X121705446Y-86406928D01*
X121562589Y-86352499D01*
X121134018Y-86352499D01*
X120991161Y-86406928D01*
X120919732Y-86461357D01*
X120848304Y-86570214D01*
X120848304Y-86733499D01*
X120848304Y-85862642D02*
X121848304Y-85862642D01*
X121705446Y-85862642D02*
X121776875Y-85808214D01*
X121848304Y-85699356D01*
X121848304Y-85536071D01*
X121776875Y-85427214D01*
X121634018Y-85372785D01*
X120848304Y-85372785D01*
X121634018Y-85372785D02*
X121776875Y-85318356D01*
X121848304Y-85209499D01*
X121848304Y-85046214D01*
X121776875Y-84937356D01*
X121634018Y-84882928D01*
X120848304Y-84882928D01*
X122419732Y-83522214D02*
X120491161Y-84501928D01*
X118462554Y-96258500D02*
X119176839Y-96639500D01*
X118462554Y-96911643D02*
X119962554Y-96911643D01*
X119962554Y-96476215D01*
X119891125Y-96367357D01*
X119819696Y-96312929D01*
X119676839Y-96258500D01*
X119462554Y-96258500D01*
X119319696Y-96312929D01*
X119248268Y-96367357D01*
X119176839Y-96476215D01*
X119176839Y-96911643D01*
X118462554Y-95768643D02*
X119962554Y-95768643D01*
X119962554Y-95333215D01*
X119891125Y-95224357D01*
X119819696Y-95169929D01*
X119676839Y-95115500D01*
X119462554Y-95115500D01*
X119319696Y-95169929D01*
X119248268Y-95224357D01*
X119176839Y-95333215D01*
X119176839Y-95768643D01*
X118462554Y-94625643D02*
X119962554Y-94625643D01*
X119962554Y-94190215D01*
X119891125Y-94081357D01*
X119819696Y-94026929D01*
X119676839Y-93972500D01*
X119462554Y-93972500D01*
X119319696Y-94026929D01*
X119248268Y-94081357D01*
X119176839Y-94190215D01*
X119176839Y-94625643D01*
X119033982Y-93482643D02*
X119033982Y-92611786D01*
X119962554Y-92067500D02*
X118748268Y-92067500D01*
X118605411Y-92013072D01*
X118533982Y-91958643D01*
X118462554Y-91849786D01*
X118462554Y-91632072D01*
X118533982Y-91523214D01*
X118605411Y-91468786D01*
X118748268Y-91414357D01*
X119962554Y-91414357D01*
X118462554Y-90870071D02*
X119962554Y-90870071D01*
X119962554Y-90108071D02*
X119962554Y-89890357D01*
X119891125Y-89781499D01*
X119748268Y-89672642D01*
X119462554Y-89618214D01*
X118962554Y-89618214D01*
X118676839Y-89672642D01*
X118533982Y-89781499D01*
X118462554Y-89890357D01*
X118462554Y-90108071D01*
X118533982Y-90216928D01*
X118676839Y-90325785D01*
X118962554Y-90380214D01*
X119462554Y-90380214D01*
X119748268Y-90325785D01*
X119891125Y-90216928D01*
X119962554Y-90108071D01*
X119033982Y-89128356D02*
X119033982Y-88257499D01*
X118462554Y-87114499D02*
X118462554Y-87767642D01*
X118462554Y-87441070D02*
X119962554Y-87441070D01*
X119748268Y-87549927D01*
X119605411Y-87658785D01*
X119533982Y-87767642D01*
X119962554Y-86134785D02*
X119962554Y-86352499D01*
X119891125Y-86461356D01*
X119819696Y-86515785D01*
X119605411Y-86624642D01*
X119319696Y-86679071D01*
X118748268Y-86679071D01*
X118605411Y-86624642D01*
X118533982Y-86570214D01*
X118462554Y-86461356D01*
X118462554Y-86243642D01*
X118533982Y-86134785D01*
X118605411Y-86080356D01*
X118748268Y-86025928D01*
X119105411Y-86025928D01*
X119248268Y-86080356D01*
X119319696Y-86134785D01*
X119391125Y-86243642D01*
X119391125Y-86461356D01*
X119319696Y-86570214D01*
X119248268Y-86624642D01*
X119105411Y-86679071D01*
D11*
X154130570Y-101144000D02*
X153416284Y-101144000D01*
X154273427Y-101572571D02*
X153773427Y-100072571D01*
X153273427Y-101572571D01*
X152844856Y-101501143D02*
X152630570Y-101572571D01*
X152273427Y-101572571D01*
X152130570Y-101501143D01*
X152059141Y-101429714D01*
X151987713Y-101286857D01*
X151987713Y-101144000D01*
X152059141Y-101001143D01*
X152130570Y-100929714D01*
X152273427Y-100858286D01*
X152559141Y-100786857D01*
X152701999Y-100715429D01*
X152773427Y-100644000D01*
X152844856Y-100501143D01*
X152844856Y-100358286D01*
X152773427Y-100215429D01*
X152701999Y-100144000D01*
X152559141Y-100072571D01*
X152201999Y-100072571D01*
X151987713Y-100144000D01*
X151416285Y-101501143D02*
X151201999Y-101572571D01*
X150844856Y-101572571D01*
X150701999Y-101501143D01*
X150630570Y-101429714D01*
X150559142Y-101286857D01*
X150559142Y-101144000D01*
X150630570Y-101001143D01*
X150701999Y-100929714D01*
X150844856Y-100858286D01*
X151130570Y-100786857D01*
X151273428Y-100715429D01*
X151344856Y-100644000D01*
X151416285Y-100501143D01*
X151416285Y-100358286D01*
X151344856Y-100215429D01*
X151273428Y-100144000D01*
X151130570Y-100072571D01*
X150773428Y-100072571D01*
X150559142Y-100144000D01*
X149630571Y-100858286D02*
X149630571Y-101572571D01*
X150130571Y-100072571D02*
X149630571Y-100858286D01*
X149130571Y-100072571D01*
X146630571Y-101572571D02*
X147130571Y-100858286D01*
X147487714Y-101572571D02*
X147487714Y-100072571D01*
X146916286Y-100072571D01*
X146773428Y-100144000D01*
X146702000Y-100215429D01*
X146630571Y-100358286D01*
X146630571Y-100572571D01*
X146702000Y-100715429D01*
X146773428Y-100786857D01*
X146916286Y-100858286D01*
X147487714Y-100858286D01*
X145987714Y-100786857D02*
X145487714Y-100786857D01*
X145273428Y-101572571D02*
X145987714Y-101572571D01*
X145987714Y-100072571D01*
X145273428Y-100072571D01*
X144844857Y-100072571D02*
X144344857Y-101572571D01*
X143844857Y-100072571D01*
X140876000Y-101501143D02*
X140661714Y-101572571D01*
X140304571Y-101572571D01*
X140161714Y-101501143D01*
X140090285Y-101429714D01*
X140018857Y-101286857D01*
X140018857Y-101144000D01*
X140090285Y-101001143D01*
X140161714Y-100929714D01*
X140304571Y-100858286D01*
X140590285Y-100786857D01*
X140733143Y-100715429D01*
X140804571Y-100644000D01*
X140876000Y-100501143D01*
X140876000Y-100358286D01*
X140804571Y-100215429D01*
X140733143Y-100144000D01*
X140590285Y-100072571D01*
X140233143Y-100072571D01*
X140018857Y-100144000D01*
X138304572Y-100001143D02*
X139590286Y-101929714D01*
X137804571Y-101572571D02*
X137804571Y-100072571D01*
X136947428Y-101572571D01*
X136947428Y-100072571D01*
D14*
X141162000Y-102672000D02*
X129732000Y-102672000D01*
X129732000Y-102672000D02*
X129732000Y-103307000D01*
X129732000Y-103307000D02*
X141162000Y-103307000D01*
X141162000Y-103307000D02*
X141162000Y-103942000D01*
X141162000Y-103942000D02*
X129605000Y-103942000D01*
X129605000Y-103942000D02*
X129605000Y-104577000D01*
X129605000Y-104577000D02*
X141162000Y-104577000D01*
X141162000Y-104577000D02*
X141162000Y-105085000D01*
X141162000Y-105085000D02*
X129732000Y-105085000D01*
D15*
X129478000Y-102164000D02*
X141289000Y-102164000D01*
X141289000Y-102164000D02*
X141289000Y-105466000D01*
X141289000Y-105466000D02*
X129478000Y-105466000D01*
X129478000Y-105466000D02*
X129478000Y-102164000D01*
D14*
X154370000Y-102672000D02*
X142940000Y-102672000D01*
X142940000Y-102672000D02*
X142940000Y-103307000D01*
X142940000Y-103307000D02*
X154370000Y-103307000D01*
X154370000Y-103307000D02*
X154370000Y-103942000D01*
X154370000Y-103942000D02*
X142813000Y-103942000D01*
X142813000Y-103942000D02*
X142813000Y-104577000D01*
X142813000Y-104577000D02*
X154370000Y-104577000D01*
X154370000Y-104577000D02*
X154370000Y-105085000D01*
X154370000Y-105085000D02*
X142940000Y-105085000D01*
D15*
X142686000Y-102164000D02*
X154497000Y-102164000D01*
X154497000Y-102164000D02*
X154497000Y-105466000D01*
X154497000Y-105466000D02*
X142686000Y-105466000D01*
X142686000Y-105466000D02*
X142686000Y-102164000D01*
M02*
