  0
SECTION
  2
HEADER
  9
$ANGBASE
  50
0.0
  9
$ANGDIR
  70
1
  9
$MEASUREMENT
  70
0
  0
ENDSEC
  0
SECTION
  2
TABLES
  0
TABLE
  2
LTYPE
  70
4
  0
LTYPE
  5
40F
  2
CONTINUOUS
  70
0
  3
Solid line
  72
65
  73
0
  40
0.0
  0
LTYPE
  5
410
  2
DASHDOT
 70
0
  3
Dash Dot ____ _ ____ _
 72
65
 73
4
 40
2.0
 49
1.25
 49
-0.25
 49
0.25
 49
-0.25
  0
LTYPE
  5
411
  2
DASHED
 70
0
  3
Dashed __ __ __ __ __
 72
65
 73
2
 40
0.75
 49
0.5
 49
-0.25
  0
LTYPE
  5
43B
  2
DOTTED
 70
0
  3
Dotted .  .  .  .
 72
65
 73
2
 40
0.2
 49
0.0
 49
-0.2
  0
ENDTAB
  0
TABLE
  2
STYLE
  70
4
  0
STYLE
  2
KICAD
  70
0
  40
0
  41
1
  42
1
  50
0
  71
0
  3
isocp.shx
  0
STYLE
  2
KICADB
  70
0
  40
0
  41
1
  42
1
  50
0
  71
0
  3
isocp.shx
  0
STYLE
  2
KICADI
  70
0
  40
0
  41
1
  42
1
  50
15
  71
0
  3
isocp.shx
  0
STYLE
  2
KICADBI
  70
0
  40
0
  41
1
  42
1
  50
15
  71
0
  3
isocp.shx
  0
ENDTAB
  0
TABLE
  2
LAYER
  70
1
  0
LAYER
  2
BLACK
  70
0
  62
7
  6
CONTINUOUS
  0
ENDTAB
  0
ENDSEC
  0
SECTION
  2
ENTITIES
0
LINE
8
BLACK
6
CONTINUOUS
10
4.49685
20
-3.59921
11
4.49587
21
-2.31405
0
LINE
8
BLACK
6
CONTINUOUS
10
7.39685
20
-3.69921
11
7.39685
21
-1.22205
0
LINE
8
BLACK
6
CONTINUOUS
10
7.29685
20
-1.12205
11
4.69685
21
-1.12205
0
LINE
8
BLACK
6
CONTINUOUS
10
4.49685
20
-1.32205
11
4.49685
21
-1.54805
0
LINE
8
BLACK
6
CONTINUOUS
10
4.69685
20
-3.79921
11
7.29685
21
-3.79921
0
ARC
8
BLACK
10
7.29685
20
-3.69921
40
0.1
50
-90
51
-0
0
ARC
8
BLACK
10
7.29685
20
-1.22205
40
0.1
50
-0
51
90
0
ARC
8
BLACK
10
4.69685
20
-1.32205
40
0.2
50
90
51
180
0
ARC
8
BLACK
10
4.69685
20
-3.59921
40
0.2
50
180
51
270
0
LINE
8
BLACK
6
CONTINUOUS
10
3.79585
20
-3.69405
11
3.79685
21
-1.12205
0
LINE
8
BLACK
6
CONTINUOUS
10
4.39585
20
-3.69405
11
3.79585
21
-3.69405
0
LINE
8
BLACK
6
CONTINUOUS
10
4.39685
20
-2.31405
11
4.39585
21
-3.69405
0
LINE
8
BLACK
6
CONTINUOUS
10
4.49585
20
-2.31405
11
4.39683
21
-2.31405
0
LINE
8
BLACK
6
CONTINUOUS
10
4.39685
20
-1.54805
11
4.49685
21
-1.54805
0
LINE
8
BLACK
6
CONTINUOUS
10
4.39685
20
-1.12205
11
4.39685
21
-1.54805
0
LINE
8
BLACK
6
CONTINUOUS
10
3.79685
20
-1.12205
11
4.39685
21
-1.12205
0
LINE
8
BLACK
6
CONTINUOUS
10
3.90665
20
-3.98453
11
3.90665
21
-3.86642
0
LINE
8
BLACK
6
CONTINUOUS
10
3.90665
20
-3.86642
11
3.93477
21
-3.86642
0
LINE
8
BLACK
6
CONTINUOUS
10
3.93477
20
-3.86642
11
3.95164
21
-3.87205
0
LINE
8
BLACK
6
CONTINUOUS
10
3.95164
20
-3.87205
11
3.96289
21
-3.8833
0
LINE
8
BLACK
6
CONTINUOUS
10
3.96289
20
-3.8833
11
3.96852
21
-3.89454
0
LINE
8
BLACK
6
CONTINUOUS
10
3.96852
20
-3.89454
11
3.97414
21
-3.91704
0
LINE
8
BLACK
6
CONTINUOUS
10
3.97414
20
-3.91704
11
3.97414
21
-3.93391
0
LINE
8
BLACK
6
CONTINUOUS
10
3.97414
20
-3.93391
11
3.96852
21
-3.95641
0
LINE
8
BLACK
6
CONTINUOUS
10
3.96852
20
-3.95641
11
3.96289
21
-3.96766
0
LINE
8
BLACK
6
CONTINUOUS
10
3.96289
20
-3.96766
11
3.95164
21
-3.97891
0
LINE
8
BLACK
6
CONTINUOUS
10
3.95164
20
-3.97891
11
3.93477
21
-3.98453
0
LINE
8
BLACK
6
CONTINUOUS
10
3.93477
20
-3.98453
11
3.90665
21
-3.98453
0
LINE
8
BLACK
6
CONTINUOUS
10
4.02476
20
-3.98453
11
4.02476
21
-3.90579
0
LINE
8
BLACK
6
CONTINUOUS
10
4.02476
20
-3.92829
11
4.03038
21
-3.91704
0
LINE
8
BLACK
6
CONTINUOUS
10
4.03038
20
-3.91704
11
4.03601
21
-3.91142
0
LINE
8
BLACK
6
CONTINUOUS
10
4.03601
20
-3.91142
11
4.04726
21
-3.90579
0
LINE
8
BLACK
6
CONTINUOUS
10
4.04726
20
-3.90579
11
4.05851
21
-3.90579
0
LINE
8
BLACK
6
CONTINUOUS
10
4.09788
20
-3.98453
11
4.09788
21
-3.90579
0
LINE
8
BLACK
6
CONTINUOUS
10
4.09788
20
-3.86642
11
4.09225
21
-3.87205
0
LINE
8
BLACK
6
CONTINUOUS
10
4.09225
20
-3.87205
11
4.09788
21
-3.87767
0
LINE
8
BLACK
6
CONTINUOUS
10
4.09788
20
-3.87767
11
4.1035
21
-3.87205
0
LINE
8
BLACK
6
CONTINUOUS
10
4.1035
20
-3.87205
11
4.09788
21
-3.86642
0
LINE
8
BLACK
6
CONTINUOUS
10
4.09788
20
-3.86642
11
4.09788
21
-3.87767
0
LINE
8
BLACK
6
CONTINUOUS
10
4.17099
20
-3.98453
11
4.15974
21
-3.97891
0
LINE
8
BLACK
6
CONTINUOUS
10
4.15974
20
-3.97891
11
4.15412
21
-3.96766
0
LINE
8
BLACK
6
CONTINUOUS
10
4.15412
20
-3.96766
11
4.15412
21
-3.86642
0
LINE
8
BLACK
6
CONTINUOUS
10
4.23286
20
-3.98453
11
4.22161
21
-3.97891
0
LINE
8
BLACK
6
CONTINUOUS
10
4.22161
20
-3.97891
11
4.21599
21
-3.96766
0
LINE
8
BLACK
6
CONTINUOUS
10
4.21599
20
-3.96766
11
4.21599
21
-3.86642
0
LINE
8
BLACK
6
CONTINUOUS
10
4.36784
20
-3.98453
11
4.36784
21
-3.86642
0
LINE
8
BLACK
6
CONTINUOUS
10
4.36784
20
-3.86642
11
4.40721
21
-3.95079
0
LINE
8
BLACK
6
CONTINUOUS
10
4.40721
20
-3.95079
11
4.44658
21
-3.86642
0
LINE
8
BLACK
6
CONTINUOUS
10
4.44658
20
-3.86642
11
4.44658
21
-3.98453
0
LINE
8
BLACK
6
CONTINUOUS
10
4.55344
20
-3.98453
11
4.55344
21
-3.92267
0
LINE
8
BLACK
6
CONTINUOUS
10
4.55344
20
-3.92267
11
4.54782
21
-3.91142
0
LINE
8
BLACK
6
CONTINUOUS
10
4.54782
20
-3.91142
11
4.53657
21
-3.90579
0
LINE
8
BLACK
6
CONTINUOUS
10
4.53657
20
-3.90579
11
4.51407
21
-3.90579
0
LINE
8
BLACK
6
CONTINUOUS
10
4.51407
20
-3.90579
11
4.50282
21
-3.91142
0
LINE
8
BLACK
6
CONTINUOUS
10
4.55344
20
-3.97891
11
4.54219
21
-3.98453
0
LINE
8
BLACK
6
CONTINUOUS
10
4.54219
20
-3.98453
11
4.51407
21
-3.98453
0
LINE
8
BLACK
6
CONTINUOUS
10
4.51407
20
-3.98453
11
4.50282
21
-3.97891
0
LINE
8
BLACK
6
CONTINUOUS
10
4.50282
20
-3.97891
11
4.4972
21
-3.96766
0
LINE
8
BLACK
6
CONTINUOUS
10
4.4972
20
-3.96766
11
4.4972
21
-3.95641
0
LINE
8
BLACK
6
CONTINUOUS
10
4.4972
20
-3.95641
11
4.50282
21
-3.94516
0
LINE
8
BLACK
6
CONTINUOUS
10
4.50282
20
-3.94516
11
4.51407
21
-3.93954
0
LINE
8
BLACK
6
CONTINUOUS
10
4.51407
20
-3.93954
11
4.54219
21
-3.93954
0
LINE
8
BLACK
6
CONTINUOUS
10
4.54219
20
-3.93954
11
4.55344
21
-3.93391
0
LINE
8
BLACK
6
CONTINUOUS
10
4.60969
20
-3.90579
11
4.60969
21
-4.0239
0
LINE
8
BLACK
6
CONTINUOUS
10
4.60969
20
-3.91142
11
4.62093
21
-3.90579
0
LINE
8
BLACK
6
CONTINUOUS
10
4.62093
20
-3.90579
11
4.64343
21
-3.90579
0
LINE
8
BLACK
6
CONTINUOUS
10
4.64343
20
-3.90579
11
4.65468
21
-3.91142
0
LINE
8
BLACK
6
CONTINUOUS
10
4.65468
20
-3.91142
11
4.6603
21
-3.91704
0
LINE
8
BLACK
6
CONTINUOUS
10
4.6603
20
-3.91704
11
4.66593
21
-3.92829
0
LINE
8
BLACK
6
CONTINUOUS
10
4.66593
20
-3.92829
11
4.66593
21
-3.96204
0
LINE
8
BLACK
6
CONTINUOUS
10
4.66593
20
-3.96204
11
4.6603
21
-3.97328
0
LINE
8
BLACK
6
CONTINUOUS
10
4.6603
20
-3.97328
11
4.65468
21
-3.97891
0
LINE
8
BLACK
6
CONTINUOUS
10
4.65468
20
-3.97891
11
4.64343
21
-3.98453
0
LINE
8
BLACK
6
CONTINUOUS
10
4.64343
20
-3.98453
11
4.62093
21
-3.98453
0
LINE
8
BLACK
6
CONTINUOUS
10
4.62093
20
-3.98453
11
4.60969
21
-3.97891
0
LINE
8
BLACK
6
CONTINUOUS
10
4.71655
20
-3.97328
11
4.72217
21
-3.97891
0
LINE
8
BLACK
6
CONTINUOUS
10
4.72217
20
-3.97891
11
4.71655
21
-3.98453
0
LINE
8
BLACK
6
CONTINUOUS
10
4.71655
20
-3.98453
11
4.71092
21
-3.97891
0
LINE
8
BLACK
6
CONTINUOUS
10
4.71092
20
-3.97891
11
4.71655
21
-3.97328
0
LINE
8
BLACK
6
CONTINUOUS
10
4.71655
20
-3.97328
11
4.71655
21
-3.98453
0
LINE
8
BLACK
6
CONTINUOUS
10
4.71655
20
-3.91142
11
4.72217
21
-3.91704
0
LINE
8
BLACK
6
CONTINUOUS
10
4.72217
20
-3.91704
11
4.71655
21
-3.92267
0
LINE
8
BLACK
6
CONTINUOUS
10
4.71655
20
-3.92267
11
4.71092
21
-3.91704
0
LINE
8
BLACK
6
CONTINUOUS
10
4.71092
20
-3.91704
11
4.71655
21
-3.91142
0
LINE
8
BLACK
6
CONTINUOUS
10
4.71655
20
-3.91142
11
4.71655
21
-3.92267
  0
ENDSEC
  0
EOF
