M48
; DRILL file {KiCad (5.1.5)-3} date 10/18/2020 6:03:25 PM
; FORMAT={-:-/ absolute / inch / decimal}
; #@! TF.CreationDate,2020-10-18T18:03:25-04:00
; #@! TF.GenerationSoftware,Kicad,Pcbnew,(5.1.5)-3
; #@! TF.FileFunction,Plated,1,2,PTH
FMAT,2
INCH
T1C0.0236
T2C0.0250
T3C0.0315
T4C0.0350
T5C0.0394
T6C0.0787
T7C0.1250
%
G90
G05
T2
X3.8969Y-1.922
X4.0469Y-1.872
X4.0469Y-2.171
X4.0509Y-1.772
X4.0519Y-1.672
X4.1969Y-1.502
X5.3469Y-1.372
X5.3469Y-3.172
X5.3969Y-2.872
X5.4069Y-2.772
X5.5269Y-1.812
X5.5569Y-1.722
X5.7369Y-2.722
X5.7369Y-2.822
X5.7869Y-2.062
X5.7869Y-2.172
X5.8169Y-1.622
X5.8169Y-1.952
X5.9169Y-2.012
X5.9169Y-2.112
X5.9269Y-2.212
X6.0169Y-2.722
X6.1269Y-2.112
X6.1298Y-2.215
X6.1869Y-3.052
X6.2514Y-2.712
X6.2869Y-2.312
X6.3231Y-2.5725
X6.3239Y-1.733
X6.3269Y-2.442
X6.3369Y-2.252
X6.3669Y-3.102
X6.3769Y-2.502
X6.378Y-2.7009
X6.4469Y-2.562
X6.4469Y-2.682
X6.6599Y-1.96
X6.6669Y-3.122
X6.6869Y-1.782
X7.2913Y-2.4213
X7.2913Y-3.0669
X7.2913Y-3.6654
X7.2953Y-1.6949
X7.2953Y-2.2146
T3
X4.5748Y-2.572
X4.5748Y-2.672
X4.5748Y-2.772
X4.5748Y-2.872
X4.8748Y-2.572
X4.8748Y-2.672
X4.8748Y-2.772
X4.8748Y-2.872
T4
X6.8701Y-3.3331
X6.8701Y-3.4331
X6.8701Y-2.5929
X6.8701Y-2.6929
X6.8719Y-1.8488
X6.8719Y-1.9488
T5
X4.7769Y-1.872
X4.7769Y-1.972
X4.7769Y-2.072
X4.7769Y-2.172
X4.7769Y-2.272
X4.7769Y-2.372
X6.3989Y-1.324
X6.3989Y-1.424
X5.8909Y-2.572
X5.8909Y-2.672
X5.8909Y-2.772
X5.8909Y-2.872
X5.8909Y-2.972
X5.8909Y-3.072
X5.8909Y-3.172
X5.8909Y-3.272
X5.8972Y-1.2764
X5.8972Y-1.8787
X6.2516Y-1.2764
X6.2516Y-1.8787
X4.001Y-2.356
X4.001Y-2.9269
X4.0994Y-2.356
X4.1979Y-2.356
X4.1979Y-2.9269
X5.0906Y-1.472
X5.0906Y-1.572
X5.0906Y-1.672
X5.0906Y-1.772
X5.0906Y-1.872
X5.0906Y-1.972
X5.0906Y-2.072
X5.0906Y-2.172
X5.0906Y-2.272
X5.0906Y-2.372
X5.0906Y-2.472
X5.0906Y-2.572
X5.0906Y-2.672
X5.0906Y-2.772
X5.0906Y-2.872
X5.0906Y-2.972
X5.0906Y-3.072
X5.0906Y-3.172
X5.0906Y-3.272
X5.0906Y-3.372
X5.6906Y-1.472
X5.6906Y-1.572
X5.6906Y-1.672
X5.6906Y-1.772
X5.6906Y-1.872
X5.6906Y-1.972
X5.6906Y-2.072
X5.6906Y-2.172
X5.6906Y-2.272
X5.6906Y-2.372
X5.6906Y-2.472
X5.6906Y-2.572
X5.6906Y-2.672
X5.6906Y-2.772
X5.6906Y-2.872
X5.6906Y-2.972
X5.6906Y-3.072
X5.6906Y-3.172
X5.6906Y-3.272
X5.6906Y-3.372
X4.002Y-3.045
X4.002Y-3.6159
X4.1004Y-3.045
X4.1989Y-3.045
X4.1989Y-3.6159
X6.6362Y-1.4764
X6.7362Y-1.4764
X4.7969Y-3.022
X4.7969Y-3.122
X4.7969Y-3.222
X4.7969Y-3.322
X4.5969Y-1.572
X4.5969Y-1.672
X4.5969Y-1.772
X4.5969Y-1.872
X4.5969Y-1.972
X4.5969Y-2.072
X4.5969Y-2.172
X4.5969Y-2.272
X3.9469Y-1.222
X4.0469Y-1.222
X4.1469Y-1.222
X4.2469Y-1.222
X4.2969Y-1.572
X4.2969Y-1.672
X4.2969Y-1.772
X4.2969Y-1.872
X4.2969Y-1.972
X4.2969Y-2.072
X4.2969Y-2.172
X4.2969Y-2.272
T7
X6.6142Y-3.622
X4.6654Y-1.2795
X4.6654Y-3.622
X6.6142Y-1.2795
T1
G00X7.0821Y-3.2331
M15
G01X7.0266Y-3.2331
M16
G05
G00X7.0821Y-3.6331
M15
G01X7.0266Y-3.6331
M16
G05
G00X7.0821Y-2.4929
M15
G01X7.0266Y-2.4929
M16
G05
G00X7.0821Y-2.8929
M15
G01X7.0266Y-2.8929
M16
G05
G00X7.0838Y-1.7488
M15
G01X7.0284Y-1.7488
M16
G05
G00X7.0838Y-2.1488
M15
G01X7.0284Y-2.1488
M16
G05
T5
G00X6.8563Y-1.4476
M15
G01X6.8563Y-1.387
M16
G05
G00X7.0008Y-1.2362
M15
G01X6.9402Y-1.2362
M16
G05
G00X7.0965Y-1.4476
M15
G01X7.0965Y-1.387
M16
G05
T6
G00X3.879Y-2.6415
M15
G01X3.879Y-2.6612
M16
G05
G00X4.3199Y-2.6415
M15
G01X4.3199Y-2.6612
M16
G05
G00X3.88Y-3.3305
M15
G01X3.88Y-3.3502
M16
G05
G00X4.3209Y-3.3305
M15
G01X4.3209Y-3.3502
M16
G05
T0
M30
