  0
SECTION
  2
HEADER
  9
$ANGBASE
  50
0.0
  9
$ANGDIR
  70
1
  9
$MEASUREMENT
  70
0
  0
ENDSEC
  0
SECTION
  2
TABLES
  0
TABLE
  2
LTYPE
  70
4
  0
LTYPE
  5
40F
  2
CONTINUOUS
  70
0
  3
Solid line
  72
65
  73
0
  40
0.0
  0
LTYPE
  5
410
  2
DASHDOT
 70
0
  3
Dash Dot ____ _ ____ _
 72
65
 73
4
 40
2.0
 49
1.25
 49
-0.25
 49
0.25
 49
-0.25
  0
LTYPE
  5
411
  2
DASHED
 70
0
  3
Dashed __ __ __ __ __
 72
65
 73
2
 40
0.75
 49
0.5
 49
-0.25
  0
LTYPE
  5
43B
  2
DOTTED
 70
0
  3
Dotted .  .  .  .
 72
65
 73
2
 40
0.2
 49
0.0
 49
-0.2
  0
ENDTAB
  0
TABLE
  2
STYLE
  70
4
  0
STYLE
  2
KICAD
  70
0
  40
0
  41
1
  42
1
  50
0
  71
0
  3
isocp.shx
  0
STYLE
  2
KICADB
  70
0
  40
0
  41
1
  42
1
  50
0
  71
0
  3
isocp.shx
  0
STYLE
  2
KICADI
  70
0
  40
0
  41
1
  42
1
  50
15
  71
0
  3
isocp.shx
  0
STYLE
  2
KICADBI
  70
0
  40
0
  41
1
  42
1
  50
15
  71
0
  3
isocp.shx
  0
ENDTAB
  0
TABLE
  2
LAYER
  70
1
  0
LAYER
  2
BLACK
  70
0
  62
7
  6
CONTINUOUS
  0
ENDTAB
  0
ENDSEC
  0
SECTION
  2
ENTITIES
0
LINE
8
BLACK
6
CONTINUOUS
10
4.49685
20
-3.59921
11
4.49587
21
-2.31405
0
LINE
8
BLACK
6
CONTINUOUS
10
7.39685
20
-3.69921
11
7.39685
21
-1.22205
0
LINE
8
BLACK
6
CONTINUOUS
10
7.29685
20
-1.12205
11
4.69685
21
-1.12205
0
LINE
8
BLACK
6
CONTINUOUS
10
4.49685
20
-1.32205
11
4.49685
21
-1.54805
0
LINE
8
BLACK
6
CONTINUOUS
10
4.69685
20
-3.79921
11
7.29685
21
-3.79921
0
ARC
8
BLACK
10
7.29685
20
-3.69921
40
0.1
50
-90
51
-0
0
ARC
8
BLACK
10
7.29685
20
-1.22205
40
0.1
50
-0
51
90
0
ARC
8
BLACK
10
4.69685
20
-1.32205
40
0.2
50
90
51
180
0
ARC
8
BLACK
10
4.69685
20
-3.59921
40
0.2
50
180
51
270
0
LINE
8
BLACK
6
CONTINUOUS
10
3.79585
20
-3.69405
11
3.79685
21
-1.12205
0
LINE
8
BLACK
6
CONTINUOUS
10
4.39585
20
-3.69405
11
3.79585
21
-3.69405
0
LINE
8
BLACK
6
CONTINUOUS
10
4.39685
20
-2.31405
11
4.39585
21
-3.69405
0
LINE
8
BLACK
6
CONTINUOUS
10
4.49585
20
-2.31405
11
4.39683
21
-2.31405
0
LINE
8
BLACK
6
CONTINUOUS
10
4.39685
20
-1.54805
11
4.49685
21
-1.54805
0
LINE
8
BLACK
6
CONTINUOUS
10
4.39685
20
-1.12205
11
4.39685
21
-1.54805
0
LINE
8
BLACK
6
CONTINUOUS
10
3.79685
20
-1.12205
11
4.39685
21
-1.12205
0
LINE
8
BLACK
6
CONTINUOUS
10
7.05827
20
-3.22126
11
7.08189
21
-3.24488
0
LINE
8
BLACK
6
CONTINUOUS
10
7.08189
20
-3.22126
11
7.05827
21
-3.24488
0
LINE
8
BLACK
6
CONTINUOUS
10
7.09782
20
-3.22126
11
7.04234
21
-3.22126
0
LINE
8
BLACK
6
CONTINUOUS
10
7.09782
20
-3.24488
11
7.04234
21
-3.24488
0
ARC
8
BLACK
10
7.04234
20
-3.23307
40
0.011811
50
450
51
630
0
ARC
8
BLACK
10
7.09782
20
-3.23307
40
0.011811
50
270
51
450
0
LINE
8
BLACK
6
CONTINUOUS
10
7.06004
20
-1.73701
11
7.08366
21
-1.76063
0
LINE
8
BLACK
6
CONTINUOUS
10
7.08366
20
-1.73701
11
7.06004
21
-1.76063
0
LINE
8
BLACK
6
CONTINUOUS
10
7.09959
20
-1.73701
11
7.04411
21
-1.73701
0
LINE
8
BLACK
6
CONTINUOUS
10
7.09959
20
-1.76063
11
7.04411
21
-1.76063
0
ARC
8
BLACK
10
7.04411
20
-1.74882
40
0.011811
50
450
51
630
0
ARC
8
BLACK
10
7.09959
20
-1.74882
40
0.011811
50
270
51
450
0
LINE
8
BLACK
6
CONTINUOUS
10
7.06004
20
-2.13701
11
7.08366
21
-2.16063
0
LINE
8
BLACK
6
CONTINUOUS
10
7.08366
20
-2.13701
11
7.06004
21
-2.16063
0
LINE
8
BLACK
6
CONTINUOUS
10
7.09959
20
-2.13701
11
7.04411
21
-2.13701
0
LINE
8
BLACK
6
CONTINUOUS
10
7.09959
20
-2.16063
11
7.04411
21
-2.16063
0
ARC
8
BLACK
10
7.04411
20
-2.14882
40
0.011811
50
450
51
630
0
ARC
8
BLACK
10
7.09959
20
-2.14882
40
0.011811
50
270
51
450
0
LINE
8
BLACK
6
CONTINUOUS
10
7.05827
20
-2.4811
11
7.08189
21
-2.50472
0
LINE
8
BLACK
6
CONTINUOUS
10
7.08189
20
-2.4811
11
7.05827
21
-2.50472
0
LINE
8
BLACK
6
CONTINUOUS
10
7.09782
20
-2.4811
11
7.04234
21
-2.4811
0
LINE
8
BLACK
6
CONTINUOUS
10
7.09782
20
-2.50472
11
7.04234
21
-2.50472
0
ARC
8
BLACK
10
7.04234
20
-2.49291
40
0.011811
50
450
51
630
0
ARC
8
BLACK
10
7.09782
20
-2.49291
40
0.011811
50
270
51
450
0
LINE
8
BLACK
6
CONTINUOUS
10
7.05827
20
-2.8811
11
7.08189
21
-2.90472
0
LINE
8
BLACK
6
CONTINUOUS
10
7.08189
20
-2.8811
11
7.05827
21
-2.90472
0
LINE
8
BLACK
6
CONTINUOUS
10
7.09782
20
-2.8811
11
7.04234
21
-2.8811
0
LINE
8
BLACK
6
CONTINUOUS
10
7.09782
20
-2.90472
11
7.04234
21
-2.90472
0
ARC
8
BLACK
10
7.04234
20
-2.89291
40
0.011811
50
450
51
630
0
ARC
8
BLACK
10
7.09782
20
-2.89291
40
0.011811
50
270
51
450
0
LINE
8
BLACK
6
CONTINUOUS
10
7.05827
20
-3.62126
11
7.08189
21
-3.64488
0
LINE
8
BLACK
6
CONTINUOUS
10
7.08189
20
-3.62126
11
7.05827
21
-3.64488
0
LINE
8
BLACK
6
CONTINUOUS
10
7.09782
20
-3.62126
11
7.04234
21
-3.62126
0
LINE
8
BLACK
6
CONTINUOUS
10
7.09782
20
-3.64488
11
7.04234
21
-3.64488
0
ARC
8
BLACK
10
7.04234
20
-3.63307
40
0.011811
50
450
51
630
0
ARC
8
BLACK
10
7.09782
20
-3.63307
40
0.011811
50
270
51
450
0
CIRCLE
8
BLACK
10
3.89685
20
-1.92205
40
0.0125
0
CIRCLE
8
BLACK
10
4.04685
20
-1.87205
40
0.0125
0
CIRCLE
8
BLACK
10
4.04685
20
-2.17105
40
0.0125
0
CIRCLE
8
BLACK
10
4.05085
20
-1.77205
40
0.0125
0
CIRCLE
8
BLACK
10
4.05185
20
-1.67205
40
0.0125
0
CIRCLE
8
BLACK
10
4.19685
20
-1.50205
40
0.0125
0
CIRCLE
8
BLACK
10
5.34685
20
-1.37205
40
0.0125
0
CIRCLE
8
BLACK
10
5.34685
20
-3.17205
40
0.0125
0
CIRCLE
8
BLACK
10
5.39685
20
-2.87205
40
0.0125
0
CIRCLE
8
BLACK
10
5.40685
20
-2.77205
40
0.0125
0
CIRCLE
8
BLACK
10
5.52685
20
-1.81205
40
0.0125
0
CIRCLE
8
BLACK
10
5.55685
20
-1.72205
40
0.0125
0
CIRCLE
8
BLACK
10
5.73685
20
-2.72205
40
0.0125
0
CIRCLE
8
BLACK
10
5.73685
20
-2.82205
40
0.0125
0
CIRCLE
8
BLACK
10
5.78685
20
-2.06205
40
0.0125
0
CIRCLE
8
BLACK
10
5.78685
20
-2.17205
40
0.0125
0
CIRCLE
8
BLACK
10
5.81685
20
-1.62205
40
0.0125
0
CIRCLE
8
BLACK
10
5.81685
20
-1.95205
40
0.0125
0
CIRCLE
8
BLACK
10
5.91685
20
-2.01205
40
0.0125
0
CIRCLE
8
BLACK
10
5.91685
20
-2.11205
40
0.0125
0
CIRCLE
8
BLACK
10
5.92685
20
-2.21205
40
0.0125
0
CIRCLE
8
BLACK
10
6.01685
20
-2.72205
40
0.0125
0
CIRCLE
8
BLACK
10
6.12685
20
-2.11205
40
0.0125
0
CIRCLE
8
BLACK
10
6.12984
20
-2.21504
40
0.0125
0
CIRCLE
8
BLACK
10
6.18685
20
-3.05205
40
0.0125
0
CIRCLE
8
BLACK
10
6.25137
20
-2.71205
40
0.0125
0
CIRCLE
8
BLACK
10
6.28685
20
-2.31205
40
0.0125
0
CIRCLE
8
BLACK
10
6.32314
20
-2.57254
40
0.0125
0
CIRCLE
8
BLACK
10
6.32385
20
-1.73305
40
0.0125
0
CIRCLE
8
BLACK
10
6.32685
20
-2.44205
40
0.0125
0
CIRCLE
8
BLACK
10
6.33685
20
-2.25205
40
0.0125
0
CIRCLE
8
BLACK
10
6.36685
20
-3.10205
40
0.0125
0
CIRCLE
8
BLACK
10
6.37685
20
-2.50205
40
0.0125
0
CIRCLE
8
BLACK
10
6.37795
20
-2.70094
40
0.0125
0
CIRCLE
8
BLACK
10
6.44685
20
-2.56205
40
0.0125
0
CIRCLE
8
BLACK
10
6.44685
20
-2.68205
40
0.0125
0
CIRCLE
8
BLACK
10
6.65985
20
-1.96005
40
0.0125
0
CIRCLE
8
BLACK
10
6.66685
20
-3.12205
40
0.0125
0
CIRCLE
8
BLACK
10
6.68685
20
-1.78205
40
0.0125
0
CIRCLE
8
BLACK
10
7.29134
20
-2.42126
40
0.0125
0
CIRCLE
8
BLACK
10
7.29134
20
-3.06693
40
0.0125
0
CIRCLE
8
BLACK
10
7.29134
20
-3.66535
40
0.0125
0
CIRCLE
8
BLACK
10
7.29528
20
-1.69488
40
0.0125
0
CIRCLE
8
BLACK
10
7.29528
20
-2.21457
40
0.0125
0
LINE
8
BLACK
6
CONTINUOUS
10
4.5748
20
-2.5563
11
4.5748
21
-2.5878
0
LINE
8
BLACK
6
CONTINUOUS
10
4.55906
20
-2.57205
11
4.59055
21
-2.57205
0
LINE
8
BLACK
6
CONTINUOUS
10
4.5748
20
-2.6563
11
4.5748
21
-2.6878
0
LINE
8
BLACK
6
CONTINUOUS
10
4.55906
20
-2.67205
11
4.59055
21
-2.67205
0
LINE
8
BLACK
6
CONTINUOUS
10
4.5748
20
-2.7563
11
4.5748
21
-2.7878
0
LINE
8
BLACK
6
CONTINUOUS
10
4.55906
20
-2.77205
11
4.59055
21
-2.77205
0
LINE
8
BLACK
6
CONTINUOUS
10
4.5748
20
-2.8563
11
4.5748
21
-2.8878
0
LINE
8
BLACK
6
CONTINUOUS
10
4.55906
20
-2.87205
11
4.59055
21
-2.87205
0
LINE
8
BLACK
6
CONTINUOUS
10
4.8748
20
-2.5563
11
4.8748
21
-2.5878
0
LINE
8
BLACK
6
CONTINUOUS
10
4.85906
20
-2.57205
11
4.89055
21
-2.57205
0
LINE
8
BLACK
6
CONTINUOUS
10
4.8748
20
-2.6563
11
4.8748
21
-2.6878
0
LINE
8
BLACK
6
CONTINUOUS
10
4.85906
20
-2.67205
11
4.89055
21
-2.67205
0
LINE
8
BLACK
6
CONTINUOUS
10
4.8748
20
-2.7563
11
4.8748
21
-2.7878
0
LINE
8
BLACK
6
CONTINUOUS
10
4.85906
20
-2.77205
11
4.89055
21
-2.77205
0
LINE
8
BLACK
6
CONTINUOUS
10
4.8748
20
-2.8563
11
4.8748
21
-2.8878
0
LINE
8
BLACK
6
CONTINUOUS
10
4.85906
20
-2.87205
11
4.89055
21
-2.87205
0
LINE
8
BLACK
6
CONTINUOUS
10
6.88422
20
-1.86119
11
6.88422
21
-1.83644
0
LINE
8
BLACK
6
CONTINUOUS
10
6.88422
20
-1.83644
11
6.85948
21
-1.83644
0
LINE
8
BLACK
6
CONTINUOUS
10
6.85948
20
-1.83644
11
6.85948
21
-1.86119
0
LINE
8
BLACK
6
CONTINUOUS
10
6.85948
20
-1.86119
11
6.88422
21
-1.86119
0
LINE
8
BLACK
6
CONTINUOUS
10
6.88422
20
-1.96119
11
6.88422
21
-1.93644
0
LINE
8
BLACK
6
CONTINUOUS
10
6.88422
20
-1.93644
11
6.85948
21
-1.93644
0
LINE
8
BLACK
6
CONTINUOUS
10
6.85948
20
-1.93644
11
6.85948
21
-1.96119
0
LINE
8
BLACK
6
CONTINUOUS
10
6.85948
20
-1.96119
11
6.88422
21
-1.96119
0
LINE
8
BLACK
6
CONTINUOUS
10
6.88245
20
-2.60529
11
6.88245
21
-2.58054
0
LINE
8
BLACK
6
CONTINUOUS
10
6.88245
20
-2.58054
11
6.8577
21
-2.58054
0
LINE
8
BLACK
6
CONTINUOUS
10
6.8577
20
-2.58054
11
6.8577
21
-2.60529
0
LINE
8
BLACK
6
CONTINUOUS
10
6.8577
20
-2.60529
11
6.88245
21
-2.60529
0
LINE
8
BLACK
6
CONTINUOUS
10
6.88245
20
-2.70529
11
6.88245
21
-2.68054
0
LINE
8
BLACK
6
CONTINUOUS
10
6.88245
20
-2.68054
11
6.8577
21
-2.68054
0
LINE
8
BLACK
6
CONTINUOUS
10
6.8577
20
-2.68054
11
6.8577
21
-2.70529
0
LINE
8
BLACK
6
CONTINUOUS
10
6.8577
20
-2.70529
11
6.88245
21
-2.70529
0
LINE
8
BLACK
6
CONTINUOUS
10
6.88245
20
-3.34545
11
6.88245
21
-3.3207
0
LINE
8
BLACK
6
CONTINUOUS
10
6.88245
20
-3.3207
11
6.8577
21
-3.3207
0
LINE
8
BLACK
6
CONTINUOUS
10
6.8577
20
-3.3207
11
6.8577
21
-3.34545
0
LINE
8
BLACK
6
CONTINUOUS
10
6.8577
20
-3.34545
11
6.88245
21
-3.34545
0
LINE
8
BLACK
6
CONTINUOUS
10
6.88245
20
-3.44545
11
6.88245
21
-3.4207
0
LINE
8
BLACK
6
CONTINUOUS
10
6.88245
20
-3.4207
11
6.8577
21
-3.4207
0
LINE
8
BLACK
6
CONTINUOUS
10
6.8577
20
-3.4207
11
6.8577
21
-3.44545
0
LINE
8
BLACK
6
CONTINUOUS
10
6.8577
20
-3.44545
11
6.88245
21
-3.44545
0
LINE
8
BLACK
6
CONTINUOUS
10
4.29685
20
-1.59173
11
4.31654
21
-1.57205
0
LINE
8
BLACK
6
CONTINUOUS
10
4.31654
20
-1.57205
11
4.29685
21
-1.55236
0
LINE
8
BLACK
6
CONTINUOUS
10
4.29685
20
-1.55236
11
4.27717
21
-1.57205
0
LINE
8
BLACK
6
CONTINUOUS
10
4.27717
20
-1.57205
11
4.29685
21
-1.59173
0
LINE
8
BLACK
6
CONTINUOUS
10
4.29685
20
-1.69173
11
4.31654
21
-1.67205
0
LINE
8
BLACK
6
CONTINUOUS
10
4.31654
20
-1.67205
11
4.29685
21
-1.65236
0
LINE
8
BLACK
6
CONTINUOUS
10
4.29685
20
-1.65236
11
4.27717
21
-1.67205
0
LINE
8
BLACK
6
CONTINUOUS
10
4.27717
20
-1.67205
11
4.29685
21
-1.69173
0
LINE
8
BLACK
6
CONTINUOUS
10
4.29685
20
-1.79173
11
4.31654
21
-1.77205
0
LINE
8
BLACK
6
CONTINUOUS
10
4.31654
20
-1.77205
11
4.29685
21
-1.75236
0
LINE
8
BLACK
6
CONTINUOUS
10
4.29685
20
-1.75236
11
4.27717
21
-1.77205
0
LINE
8
BLACK
6
CONTINUOUS
10
4.27717
20
-1.77205
11
4.29685
21
-1.79173
0
LINE
8
BLACK
6
CONTINUOUS
10
4.29685
20
-1.89173
11
4.31654
21
-1.87205
0
LINE
8
BLACK
6
CONTINUOUS
10
4.31654
20
-1.87205
11
4.29685
21
-1.85236
0
LINE
8
BLACK
6
CONTINUOUS
10
4.29685
20
-1.85236
11
4.27717
21
-1.87205
0
LINE
8
BLACK
6
CONTINUOUS
10
4.27717
20
-1.87205
11
4.29685
21
-1.89173
0
LINE
8
BLACK
6
CONTINUOUS
10
4.29685
20
-1.99173
11
4.31654
21
-1.97205
0
LINE
8
BLACK
6
CONTINUOUS
10
4.31654
20
-1.97205
11
4.29685
21
-1.95236
0
LINE
8
BLACK
6
CONTINUOUS
10
4.29685
20
-1.95236
11
4.27717
21
-1.97205
0
LINE
8
BLACK
6
CONTINUOUS
10
4.27717
20
-1.97205
11
4.29685
21
-1.99173
0
LINE
8
BLACK
6
CONTINUOUS
10
4.29685
20
-2.09173
11
4.31654
21
-2.07205
0
LINE
8
BLACK
6
CONTINUOUS
10
4.31654
20
-2.07205
11
4.29685
21
-2.05236
0
LINE
8
BLACK
6
CONTINUOUS
10
4.29685
20
-2.05236
11
4.27717
21
-2.07205
0
LINE
8
BLACK
6
CONTINUOUS
10
4.27717
20
-2.07205
11
4.29685
21
-2.09173
0
LINE
8
BLACK
6
CONTINUOUS
10
4.29685
20
-2.19173
11
4.31654
21
-2.17205
0
LINE
8
BLACK
6
CONTINUOUS
10
4.31654
20
-2.17205
11
4.29685
21
-2.15236
0
LINE
8
BLACK
6
CONTINUOUS
10
4.29685
20
-2.15236
11
4.27717
21
-2.17205
0
LINE
8
BLACK
6
CONTINUOUS
10
4.27717
20
-2.17205
11
4.29685
21
-2.19173
0
LINE
8
BLACK
6
CONTINUOUS
10
4.29685
20
-2.29173
11
4.31654
21
-2.27205
0
LINE
8
BLACK
6
CONTINUOUS
10
4.31654
20
-2.27205
11
4.29685
21
-2.25236
0
LINE
8
BLACK
6
CONTINUOUS
10
4.29685
20
-2.25236
11
4.27717
21
-2.27205
0
LINE
8
BLACK
6
CONTINUOUS
10
4.27717
20
-2.27205
11
4.29685
21
-2.29173
0
LINE
8
BLACK
6
CONTINUOUS
10
4.77685
20
-1.89173
11
4.79654
21
-1.87205
0
LINE
8
BLACK
6
CONTINUOUS
10
4.79654
20
-1.87205
11
4.77685
21
-1.85236
0
LINE
8
BLACK
6
CONTINUOUS
10
4.77685
20
-1.85236
11
4.75717
21
-1.87205
0
LINE
8
BLACK
6
CONTINUOUS
10
4.75717
20
-1.87205
11
4.77685
21
-1.89173
0
LINE
8
BLACK
6
CONTINUOUS
10
4.77685
20
-1.99173
11
4.79654
21
-1.97205
0
LINE
8
BLACK
6
CONTINUOUS
10
4.79654
20
-1.97205
11
4.77685
21
-1.95236
0
LINE
8
BLACK
6
CONTINUOUS
10
4.77685
20
-1.95236
11
4.75717
21
-1.97205
0
LINE
8
BLACK
6
CONTINUOUS
10
4.75717
20
-1.97205
11
4.77685
21
-1.99173
0
LINE
8
BLACK
6
CONTINUOUS
10
4.77685
20
-2.09173
11
4.79654
21
-2.07205
0
LINE
8
BLACK
6
CONTINUOUS
10
4.79654
20
-2.07205
11
4.77685
21
-2.05236
0
LINE
8
BLACK
6
CONTINUOUS
10
4.77685
20
-2.05236
11
4.75717
21
-2.07205
0
LINE
8
BLACK
6
CONTINUOUS
10
4.75717
20
-2.07205
11
4.77685
21
-2.09173
0
LINE
8
BLACK
6
CONTINUOUS
10
4.77685
20
-2.19173
11
4.79654
21
-2.17205
0
LINE
8
BLACK
6
CONTINUOUS
10
4.79654
20
-2.17205
11
4.77685
21
-2.15236
0
LINE
8
BLACK
6
CONTINUOUS
10
4.77685
20
-2.15236
11
4.75717
21
-2.17205
0
LINE
8
BLACK
6
CONTINUOUS
10
4.75717
20
-2.17205
11
4.77685
21
-2.19173
0
LINE
8
BLACK
6
CONTINUOUS
10
4.77685
20
-2.29173
11
4.79654
21
-2.27205
0
LINE
8
BLACK
6
CONTINUOUS
10
4.79654
20
-2.27205
11
4.77685
21
-2.25236
0
LINE
8
BLACK
6
CONTINUOUS
10
4.77685
20
-2.25236
11
4.75717
21
-2.27205
0
LINE
8
BLACK
6
CONTINUOUS
10
4.75717
20
-2.27205
11
4.77685
21
-2.29173
0
LINE
8
BLACK
6
CONTINUOUS
10
4.77685
20
-2.39173
11
4.79654
21
-2.37205
0
LINE
8
BLACK
6
CONTINUOUS
10
4.79654
20
-2.37205
11
4.77685
21
-2.35236
0
LINE
8
BLACK
6
CONTINUOUS
10
4.77685
20
-2.35236
11
4.75717
21
-2.37205
0
LINE
8
BLACK
6
CONTINUOUS
10
4.75717
20
-2.37205
11
4.77685
21
-2.39173
0
LINE
8
BLACK
6
CONTINUOUS
10
5.89722
20
-1.29213
11
5.91691
21
-1.27244
0
LINE
8
BLACK
6
CONTINUOUS
10
5.91691
20
-1.27244
11
5.89722
21
-1.25276
0
LINE
8
BLACK
6
CONTINUOUS
10
5.89722
20
-1.25276
11
5.87754
21
-1.27244
0
LINE
8
BLACK
6
CONTINUOUS
10
5.87754
20
-1.27244
11
5.89722
21
-1.29213
0
LINE
8
BLACK
6
CONTINUOUS
10
5.89722
20
-1.90236
11
5.91691
21
-1.88268
0
LINE
8
BLACK
6
CONTINUOUS
10
5.91691
20
-1.88268
11
5.89722
21
-1.86299
0
LINE
8
BLACK
6
CONTINUOUS
10
5.89722
20
-1.86299
11
5.87754
21
-1.88268
0
LINE
8
BLACK
6
CONTINUOUS
10
5.87754
20
-1.88268
11
5.89722
21
-1.90236
0
LINE
8
BLACK
6
CONTINUOUS
10
6.25155
20
-1.29213
11
6.27124
21
-1.27244
0
LINE
8
BLACK
6
CONTINUOUS
10
6.27124
20
-1.27244
11
6.25155
21
-1.25276
0
LINE
8
BLACK
6
CONTINUOUS
10
6.25155
20
-1.25276
11
6.23187
21
-1.27244
0
LINE
8
BLACK
6
CONTINUOUS
10
6.23187
20
-1.27244
11
6.25155
21
-1.29213
0
LINE
8
BLACK
6
CONTINUOUS
10
6.25155
20
-1.90236
11
6.27124
21
-1.88268
0
LINE
8
BLACK
6
CONTINUOUS
10
6.27124
20
-1.88268
11
6.25155
21
-1.86299
0
LINE
8
BLACK
6
CONTINUOUS
10
6.25155
20
-1.86299
11
6.23187
21
-1.88268
0
LINE
8
BLACK
6
CONTINUOUS
10
6.23187
20
-1.88268
11
6.25155
21
-1.90236
0
LINE
8
BLACK
6
CONTINUOUS
10
4.001
20
-2.37573
11
4.02069
21
-2.35605
0
LINE
8
BLACK
6
CONTINUOUS
10
4.02069
20
-2.35605
11
4.001
21
-2.33636
0
LINE
8
BLACK
6
CONTINUOUS
10
4.001
20
-2.33636
11
3.98131
21
-2.35605
0
LINE
8
BLACK
6
CONTINUOUS
10
3.98131
20
-2.35605
11
4.001
21
-2.37573
0
LINE
8
BLACK
6
CONTINUOUS
10
4.001
20
-2.9466
11
4.02069
21
-2.92691
0
LINE
8
BLACK
6
CONTINUOUS
10
4.02069
20
-2.92691
11
4.001
21
-2.90723
0
LINE
8
BLACK
6
CONTINUOUS
10
4.001
20
-2.90723
11
3.98131
21
-2.92691
0
LINE
8
BLACK
6
CONTINUOUS
10
3.98131
20
-2.92691
11
4.001
21
-2.9466
0
LINE
8
BLACK
6
CONTINUOUS
10
4.09943
20
-2.37573
11
4.11911
21
-2.35605
0
LINE
8
BLACK
6
CONTINUOUS
10
4.11911
20
-2.35605
11
4.09943
21
-2.33636
0
LINE
8
BLACK
6
CONTINUOUS
10
4.09943
20
-2.33636
11
4.07974
21
-2.35605
0
LINE
8
BLACK
6
CONTINUOUS
10
4.07974
20
-2.35605
11
4.09943
21
-2.37573
0
LINE
8
BLACK
6
CONTINUOUS
10
4.19785
20
-2.37573
11
4.21754
21
-2.35605
0
LINE
8
BLACK
6
CONTINUOUS
10
4.21754
20
-2.35605
11
4.19785
21
-2.33636
0
LINE
8
BLACK
6
CONTINUOUS
10
4.19785
20
-2.33636
11
4.17817
21
-2.35605
0
LINE
8
BLACK
6
CONTINUOUS
10
4.17817
20
-2.35605
11
4.19785
21
-2.37573
0
LINE
8
BLACK
6
CONTINUOUS
10
4.19785
20
-2.9466
11
4.21754
21
-2.92691
0
LINE
8
BLACK
6
CONTINUOUS
10
4.21754
20
-2.92691
11
4.19785
21
-2.90723
0
LINE
8
BLACK
6
CONTINUOUS
10
4.19785
20
-2.90723
11
4.17817
21
-2.92691
0
LINE
8
BLACK
6
CONTINUOUS
10
4.17817
20
-2.92691
11
4.19785
21
-2.9466
0
LINE
8
BLACK
6
CONTINUOUS
10
5.09055
20
-1.49173
11
5.11024
21
-1.47205
0
LINE
8
BLACK
6
CONTINUOUS
10
5.11024
20
-1.47205
11
5.09055
21
-1.45236
0
LINE
8
BLACK
6
CONTINUOUS
10
5.09055
20
-1.45236
11
5.07087
21
-1.47205
0
LINE
8
BLACK
6
CONTINUOUS
10
5.07087
20
-1.47205
11
5.09055
21
-1.49173
0
LINE
8
BLACK
6
CONTINUOUS
10
5.09055
20
-1.59173
11
5.11024
21
-1.57205
0
LINE
8
BLACK
6
CONTINUOUS
10
5.11024
20
-1.57205
11
5.09055
21
-1.55236
0
LINE
8
BLACK
6
CONTINUOUS
10
5.09055
20
-1.55236
11
5.07087
21
-1.57205
0
LINE
8
BLACK
6
CONTINUOUS
10
5.07087
20
-1.57205
11
5.09055
21
-1.59173
0
LINE
8
BLACK
6
CONTINUOUS
10
5.09055
20
-1.69173
11
5.11024
21
-1.67205
0
LINE
8
BLACK
6
CONTINUOUS
10
5.11024
20
-1.67205
11
5.09055
21
-1.65236
0
LINE
8
BLACK
6
CONTINUOUS
10
5.09055
20
-1.65236
11
5.07087
21
-1.67205
0
LINE
8
BLACK
6
CONTINUOUS
10
5.07087
20
-1.67205
11
5.09055
21
-1.69173
0
LINE
8
BLACK
6
CONTINUOUS
10
5.09055
20
-1.79173
11
5.11024
21
-1.77205
0
LINE
8
BLACK
6
CONTINUOUS
10
5.11024
20
-1.77205
11
5.09055
21
-1.75236
0
LINE
8
BLACK
6
CONTINUOUS
10
5.09055
20
-1.75236
11
5.07087
21
-1.77205
0
LINE
8
BLACK
6
CONTINUOUS
10
5.07087
20
-1.77205
11
5.09055
21
-1.79173
0
LINE
8
BLACK
6
CONTINUOUS
10
5.09055
20
-1.89173
11
5.11024
21
-1.87205
0
LINE
8
BLACK
6
CONTINUOUS
10
5.11024
20
-1.87205
11
5.09055
21
-1.85236
0
LINE
8
BLACK
6
CONTINUOUS
10
5.09055
20
-1.85236
11
5.07087
21
-1.87205
0
LINE
8
BLACK
6
CONTINUOUS
10
5.07087
20
-1.87205
11
5.09055
21
-1.89173
0
LINE
8
BLACK
6
CONTINUOUS
10
5.09055
20
-1.99173
11
5.11024
21
-1.97205
0
LINE
8
BLACK
6
CONTINUOUS
10
5.11024
20
-1.97205
11
5.09055
21
-1.95236
0
LINE
8
BLACK
6
CONTINUOUS
10
5.09055
20
-1.95236
11
5.07087
21
-1.97205
0
LINE
8
BLACK
6
CONTINUOUS
10
5.07087
20
-1.97205
11
5.09055
21
-1.99173
0
LINE
8
BLACK
6
CONTINUOUS
10
5.09055
20
-2.09173
11
5.11024
21
-2.07205
0
LINE
8
BLACK
6
CONTINUOUS
10
5.11024
20
-2.07205
11
5.09055
21
-2.05236
0
LINE
8
BLACK
6
CONTINUOUS
10
5.09055
20
-2.05236
11
5.07087
21
-2.07205
0
LINE
8
BLACK
6
CONTINUOUS
10
5.07087
20
-2.07205
11
5.09055
21
-2.09173
0
LINE
8
BLACK
6
CONTINUOUS
10
5.09055
20
-2.19173
11
5.11024
21
-2.17205
0
LINE
8
BLACK
6
CONTINUOUS
10
5.11024
20
-2.17205
11
5.09055
21
-2.15236
0
LINE
8
BLACK
6
CONTINUOUS
10
5.09055
20
-2.15236
11
5.07087
21
-2.17205
0
LINE
8
BLACK
6
CONTINUOUS
10
5.07087
20
-2.17205
11
5.09055
21
-2.19173
0
LINE
8
BLACK
6
CONTINUOUS
10
5.09055
20
-2.29173
11
5.11024
21
-2.27205
0
LINE
8
BLACK
6
CONTINUOUS
10
5.11024
20
-2.27205
11
5.09055
21
-2.25236
0
LINE
8
BLACK
6
CONTINUOUS
10
5.09055
20
-2.25236
11
5.07087
21
-2.27205
0
LINE
8
BLACK
6
CONTINUOUS
10
5.07087
20
-2.27205
11
5.09055
21
-2.29173
0
LINE
8
BLACK
6
CONTINUOUS
10
5.09055
20
-2.39173
11
5.11024
21
-2.37205
0
LINE
8
BLACK
6
CONTINUOUS
10
5.11024
20
-2.37205
11
5.09055
21
-2.35236
0
LINE
8
BLACK
6
CONTINUOUS
10
5.09055
20
-2.35236
11
5.07087
21
-2.37205
0
LINE
8
BLACK
6
CONTINUOUS
10
5.07087
20
-2.37205
11
5.09055
21
-2.39173
0
LINE
8
BLACK
6
CONTINUOUS
10
5.09055
20
-2.49173
11
5.11024
21
-2.47205
0
LINE
8
BLACK
6
CONTINUOUS
10
5.11024
20
-2.47205
11
5.09055
21
-2.45236
0
LINE
8
BLACK
6
CONTINUOUS
10
5.09055
20
-2.45236
11
5.07087
21
-2.47205
0
LINE
8
BLACK
6
CONTINUOUS
10
5.07087
20
-2.47205
11
5.09055
21
-2.49173
0
LINE
8
BLACK
6
CONTINUOUS
10
5.09055
20
-2.59173
11
5.11024
21
-2.57205
0
LINE
8
BLACK
6
CONTINUOUS
10
5.11024
20
-2.57205
11
5.09055
21
-2.55236
0
LINE
8
BLACK
6
CONTINUOUS
10
5.09055
20
-2.55236
11
5.07087
21
-2.57205
0
LINE
8
BLACK
6
CONTINUOUS
10
5.07087
20
-2.57205
11
5.09055
21
-2.59173
0
LINE
8
BLACK
6
CONTINUOUS
10
5.09055
20
-2.69173
11
5.11024
21
-2.67205
0
LINE
8
BLACK
6
CONTINUOUS
10
5.11024
20
-2.67205
11
5.09055
21
-2.65236
0
LINE
8
BLACK
6
CONTINUOUS
10
5.09055
20
-2.65236
11
5.07087
21
-2.67205
0
LINE
8
BLACK
6
CONTINUOUS
10
5.07087
20
-2.67205
11
5.09055
21
-2.69173
0
LINE
8
BLACK
6
CONTINUOUS
10
5.09055
20
-2.79173
11
5.11024
21
-2.77205
0
LINE
8
BLACK
6
CONTINUOUS
10
5.11024
20
-2.77205
11
5.09055
21
-2.75236
0
LINE
8
BLACK
6
CONTINUOUS
10
5.09055
20
-2.75236
11
5.07087
21
-2.77205
0
LINE
8
BLACK
6
CONTINUOUS
10
5.07087
20
-2.77205
11
5.09055
21
-2.79173
0
LINE
8
BLACK
6
CONTINUOUS
10
5.09055
20
-2.89173
11
5.11024
21
-2.87205
0
LINE
8
BLACK
6
CONTINUOUS
10
5.11024
20
-2.87205
11
5.09055
21
-2.85236
0
LINE
8
BLACK
6
CONTINUOUS
10
5.09055
20
-2.85236
11
5.07087
21
-2.87205
0
LINE
8
BLACK
6
CONTINUOUS
10
5.07087
20
-2.87205
11
5.09055
21
-2.89173
0
LINE
8
BLACK
6
CONTINUOUS
10
5.09055
20
-2.99173
11
5.11024
21
-2.97205
0
LINE
8
BLACK
6
CONTINUOUS
10
5.11024
20
-2.97205
11
5.09055
21
-2.95236
0
LINE
8
BLACK
6
CONTINUOUS
10
5.09055
20
-2.95236
11
5.07087
21
-2.97205
0
LINE
8
BLACK
6
CONTINUOUS
10
5.07087
20
-2.97205
11
5.09055
21
-2.99173
0
LINE
8
BLACK
6
CONTINUOUS
10
5.09055
20
-3.09173
11
5.11024
21
-3.07205
0
LINE
8
BLACK
6
CONTINUOUS
10
5.11024
20
-3.07205
11
5.09055
21
-3.05236
0
LINE
8
BLACK
6
CONTINUOUS
10
5.09055
20
-3.05236
11
5.07087
21
-3.07205
0
LINE
8
BLACK
6
CONTINUOUS
10
5.07087
20
-3.07205
11
5.09055
21
-3.09173
0
LINE
8
BLACK
6
CONTINUOUS
10
5.09055
20
-3.19173
11
5.11024
21
-3.17205
0
LINE
8
BLACK
6
CONTINUOUS
10
5.11024
20
-3.17205
11
5.09055
21
-3.15236
0
LINE
8
BLACK
6
CONTINUOUS
10
5.09055
20
-3.15236
11
5.07087
21
-3.17205
0
LINE
8
BLACK
6
CONTINUOUS
10
5.07087
20
-3.17205
11
5.09055
21
-3.19173
0
LINE
8
BLACK
6
CONTINUOUS
10
5.09055
20
-3.29173
11
5.11024
21
-3.27205
0
LINE
8
BLACK
6
CONTINUOUS
10
5.11024
20
-3.27205
11
5.09055
21
-3.25236
0
LINE
8
BLACK
6
CONTINUOUS
10
5.09055
20
-3.25236
11
5.07087
21
-3.27205
0
LINE
8
BLACK
6
CONTINUOUS
10
5.07087
20
-3.27205
11
5.09055
21
-3.29173
0
LINE
8
BLACK
6
CONTINUOUS
10
5.09055
20
-3.39173
11
5.11024
21
-3.37205
0
LINE
8
BLACK
6
CONTINUOUS
10
5.11024
20
-3.37205
11
5.09055
21
-3.35236
0
LINE
8
BLACK
6
CONTINUOUS
10
5.09055
20
-3.35236
11
5.07087
21
-3.37205
0
LINE
8
BLACK
6
CONTINUOUS
10
5.07087
20
-3.37205
11
5.09055
21
-3.39173
0
LINE
8
BLACK
6
CONTINUOUS
10
5.69055
20
-1.49173
11
5.71024
21
-1.47205
0
LINE
8
BLACK
6
CONTINUOUS
10
5.71024
20
-1.47205
11
5.69055
21
-1.45236
0
LINE
8
BLACK
6
CONTINUOUS
10
5.69055
20
-1.45236
11
5.67087
21
-1.47205
0
LINE
8
BLACK
6
CONTINUOUS
10
5.67087
20
-1.47205
11
5.69055
21
-1.49173
0
LINE
8
BLACK
6
CONTINUOUS
10
5.69055
20
-1.59173
11
5.71024
21
-1.57205
0
LINE
8
BLACK
6
CONTINUOUS
10
5.71024
20
-1.57205
11
5.69055
21
-1.55236
0
LINE
8
BLACK
6
CONTINUOUS
10
5.69055
20
-1.55236
11
5.67087
21
-1.57205
0
LINE
8
BLACK
6
CONTINUOUS
10
5.67087
20
-1.57205
11
5.69055
21
-1.59173
0
LINE
8
BLACK
6
CONTINUOUS
10
5.69055
20
-1.69173
11
5.71024
21
-1.67205
0
LINE
8
BLACK
6
CONTINUOUS
10
5.71024
20
-1.67205
11
5.69055
21
-1.65236
0
LINE
8
BLACK
6
CONTINUOUS
10
5.69055
20
-1.65236
11
5.67087
21
-1.67205
0
LINE
8
BLACK
6
CONTINUOUS
10
5.67087
20
-1.67205
11
5.69055
21
-1.69173
0
LINE
8
BLACK
6
CONTINUOUS
10
5.69055
20
-1.79173
11
5.71024
21
-1.77205
0
LINE
8
BLACK
6
CONTINUOUS
10
5.71024
20
-1.77205
11
5.69055
21
-1.75236
0
LINE
8
BLACK
6
CONTINUOUS
10
5.69055
20
-1.75236
11
5.67087
21
-1.77205
0
LINE
8
BLACK
6
CONTINUOUS
10
5.67087
20
-1.77205
11
5.69055
21
-1.79173
0
LINE
8
BLACK
6
CONTINUOUS
10
5.69055
20
-1.89173
11
5.71024
21
-1.87205
0
LINE
8
BLACK
6
CONTINUOUS
10
5.71024
20
-1.87205
11
5.69055
21
-1.85236
0
LINE
8
BLACK
6
CONTINUOUS
10
5.69055
20
-1.85236
11
5.67087
21
-1.87205
0
LINE
8
BLACK
6
CONTINUOUS
10
5.67087
20
-1.87205
11
5.69055
21
-1.89173
0
LINE
8
BLACK
6
CONTINUOUS
10
5.69055
20
-1.99173
11
5.71024
21
-1.97205
0
LINE
8
BLACK
6
CONTINUOUS
10
5.71024
20
-1.97205
11
5.69055
21
-1.95236
0
LINE
8
BLACK
6
CONTINUOUS
10
5.69055
20
-1.95236
11
5.67087
21
-1.97205
0
LINE
8
BLACK
6
CONTINUOUS
10
5.67087
20
-1.97205
11
5.69055
21
-1.99173
0
LINE
8
BLACK
6
CONTINUOUS
10
5.69055
20
-2.09173
11
5.71024
21
-2.07205
0
LINE
8
BLACK
6
CONTINUOUS
10
5.71024
20
-2.07205
11
5.69055
21
-2.05236
0
LINE
8
BLACK
6
CONTINUOUS
10
5.69055
20
-2.05236
11
5.67087
21
-2.07205
0
LINE
8
BLACK
6
CONTINUOUS
10
5.67087
20
-2.07205
11
5.69055
21
-2.09173
0
LINE
8
BLACK
6
CONTINUOUS
10
5.69055
20
-2.19173
11
5.71024
21
-2.17205
0
LINE
8
BLACK
6
CONTINUOUS
10
5.71024
20
-2.17205
11
5.69055
21
-2.15236
0
LINE
8
BLACK
6
CONTINUOUS
10
5.69055
20
-2.15236
11
5.67087
21
-2.17205
0
LINE
8
BLACK
6
CONTINUOUS
10
5.67087
20
-2.17205
11
5.69055
21
-2.19173
0
LINE
8
BLACK
6
CONTINUOUS
10
5.69055
20
-2.29173
11
5.71024
21
-2.27205
0
LINE
8
BLACK
6
CONTINUOUS
10
5.71024
20
-2.27205
11
5.69055
21
-2.25236
0
LINE
8
BLACK
6
CONTINUOUS
10
5.69055
20
-2.25236
11
5.67087
21
-2.27205
0
LINE
8
BLACK
6
CONTINUOUS
10
5.67087
20
-2.27205
11
5.69055
21
-2.29173
0
LINE
8
BLACK
6
CONTINUOUS
10
5.69055
20
-2.39173
11
5.71024
21
-2.37205
0
LINE
8
BLACK
6
CONTINUOUS
10
5.71024
20
-2.37205
11
5.69055
21
-2.35236
0
LINE
8
BLACK
6
CONTINUOUS
10
5.69055
20
-2.35236
11
5.67087
21
-2.37205
0
LINE
8
BLACK
6
CONTINUOUS
10
5.67087
20
-2.37205
11
5.69055
21
-2.39173
0
LINE
8
BLACK
6
CONTINUOUS
10
5.69055
20
-2.49173
11
5.71024
21
-2.47205
0
LINE
8
BLACK
6
CONTINUOUS
10
5.71024
20
-2.47205
11
5.69055
21
-2.45236
0
LINE
8
BLACK
6
CONTINUOUS
10
5.69055
20
-2.45236
11
5.67087
21
-2.47205
0
LINE
8
BLACK
6
CONTINUOUS
10
5.67087
20
-2.47205
11
5.69055
21
-2.49173
0
LINE
8
BLACK
6
CONTINUOUS
10
5.69055
20
-2.59173
11
5.71024
21
-2.57205
0
LINE
8
BLACK
6
CONTINUOUS
10
5.71024
20
-2.57205
11
5.69055
21
-2.55236
0
LINE
8
BLACK
6
CONTINUOUS
10
5.69055
20
-2.55236
11
5.67087
21
-2.57205
0
LINE
8
BLACK
6
CONTINUOUS
10
5.67087
20
-2.57205
11
5.69055
21
-2.59173
0
LINE
8
BLACK
6
CONTINUOUS
10
5.69055
20
-2.69173
11
5.71024
21
-2.67205
0
LINE
8
BLACK
6
CONTINUOUS
10
5.71024
20
-2.67205
11
5.69055
21
-2.65236
0
LINE
8
BLACK
6
CONTINUOUS
10
5.69055
20
-2.65236
11
5.67087
21
-2.67205
0
LINE
8
BLACK
6
CONTINUOUS
10
5.67087
20
-2.67205
11
5.69055
21
-2.69173
0
LINE
8
BLACK
6
CONTINUOUS
10
5.69055
20
-2.79173
11
5.71024
21
-2.77205
0
LINE
8
BLACK
6
CONTINUOUS
10
5.71024
20
-2.77205
11
5.69055
21
-2.75236
0
LINE
8
BLACK
6
CONTINUOUS
10
5.69055
20
-2.75236
11
5.67087
21
-2.77205
0
LINE
8
BLACK
6
CONTINUOUS
10
5.67087
20
-2.77205
11
5.69055
21
-2.79173
0
LINE
8
BLACK
6
CONTINUOUS
10
5.69055
20
-2.89173
11
5.71024
21
-2.87205
0
LINE
8
BLACK
6
CONTINUOUS
10
5.71024
20
-2.87205
11
5.69055
21
-2.85236
0
LINE
8
BLACK
6
CONTINUOUS
10
5.69055
20
-2.85236
11
5.67087
21
-2.87205
0
LINE
8
BLACK
6
CONTINUOUS
10
5.67087
20
-2.87205
11
5.69055
21
-2.89173
0
LINE
8
BLACK
6
CONTINUOUS
10
5.69055
20
-2.99173
11
5.71024
21
-2.97205
0
LINE
8
BLACK
6
CONTINUOUS
10
5.71024
20
-2.97205
11
5.69055
21
-2.95236
0
LINE
8
BLACK
6
CONTINUOUS
10
5.69055
20
-2.95236
11
5.67087
21
-2.97205
0
LINE
8
BLACK
6
CONTINUOUS
10
5.67087
20
-2.97205
11
5.69055
21
-2.99173
0
LINE
8
BLACK
6
CONTINUOUS
10
5.69055
20
-3.09173
11
5.71024
21
-3.07205
0
LINE
8
BLACK
6
CONTINUOUS
10
5.71024
20
-3.07205
11
5.69055
21
-3.05236
0
LINE
8
BLACK
6
CONTINUOUS
10
5.69055
20
-3.05236
11
5.67087
21
-3.07205
0
LINE
8
BLACK
6
CONTINUOUS
10
5.67087
20
-3.07205
11
5.69055
21
-3.09173
0
LINE
8
BLACK
6
CONTINUOUS
10
5.69055
20
-3.19173
11
5.71024
21
-3.17205
0
LINE
8
BLACK
6
CONTINUOUS
10
5.71024
20
-3.17205
11
5.69055
21
-3.15236
0
LINE
8
BLACK
6
CONTINUOUS
10
5.69055
20
-3.15236
11
5.67087
21
-3.17205
0
LINE
8
BLACK
6
CONTINUOUS
10
5.67087
20
-3.17205
11
5.69055
21
-3.19173
0
LINE
8
BLACK
6
CONTINUOUS
10
5.69055
20
-3.29173
11
5.71024
21
-3.27205
0
LINE
8
BLACK
6
CONTINUOUS
10
5.71024
20
-3.27205
11
5.69055
21
-3.25236
0
LINE
8
BLACK
6
CONTINUOUS
10
5.69055
20
-3.25236
11
5.67087
21
-3.27205
0
LINE
8
BLACK
6
CONTINUOUS
10
5.67087
20
-3.27205
11
5.69055
21
-3.29173
0
LINE
8
BLACK
6
CONTINUOUS
10
5.69055
20
-3.39173
11
5.71024
21
-3.37205
0
LINE
8
BLACK
6
CONTINUOUS
10
5.71024
20
-3.37205
11
5.69055
21
-3.35236
0
LINE
8
BLACK
6
CONTINUOUS
10
5.69055
20
-3.35236
11
5.67087
21
-3.37205
0
LINE
8
BLACK
6
CONTINUOUS
10
5.67087
20
-3.37205
11
5.69055
21
-3.39173
0
LINE
8
BLACK
6
CONTINUOUS
10
4.002
20
-3.06473
11
4.02169
21
-3.04505
0
LINE
8
BLACK
6
CONTINUOUS
10
4.02169
20
-3.04505
11
4.002
21
-3.02536
0
LINE
8
BLACK
6
CONTINUOUS
10
4.002
20
-3.02536
11
3.98231
21
-3.04505
0
LINE
8
BLACK
6
CONTINUOUS
10
3.98231
20
-3.04505
11
4.002
21
-3.06473
0
LINE
8
BLACK
6
CONTINUOUS
10
4.002
20
-3.6356
11
4.02169
21
-3.61591
0
LINE
8
BLACK
6
CONTINUOUS
10
4.02169
20
-3.61591
11
4.002
21
-3.59623
0
LINE
8
BLACK
6
CONTINUOUS
10
4.002
20
-3.59623
11
3.98231
21
-3.61591
0
LINE
8
BLACK
6
CONTINUOUS
10
3.98231
20
-3.61591
11
4.002
21
-3.6356
0
LINE
8
BLACK
6
CONTINUOUS
10
4.10043
20
-3.06473
11
4.12011
21
-3.04505
0
LINE
8
BLACK
6
CONTINUOUS
10
4.12011
20
-3.04505
11
4.10043
21
-3.02536
0
LINE
8
BLACK
6
CONTINUOUS
10
4.10043
20
-3.02536
11
4.08074
21
-3.04505
0
LINE
8
BLACK
6
CONTINUOUS
10
4.08074
20
-3.04505
11
4.10043
21
-3.06473
0
LINE
8
BLACK
6
CONTINUOUS
10
4.19885
20
-3.06473
11
4.21854
21
-3.04505
0
LINE
8
BLACK
6
CONTINUOUS
10
4.21854
20
-3.04505
11
4.19885
21
-3.02536
0
LINE
8
BLACK
6
CONTINUOUS
10
4.19885
20
-3.02536
11
4.17917
21
-3.04505
0
LINE
8
BLACK
6
CONTINUOUS
10
4.17917
20
-3.04505
11
4.19885
21
-3.06473
0
LINE
8
BLACK
6
CONTINUOUS
10
4.19885
20
-3.6356
11
4.21854
21
-3.61591
0
LINE
8
BLACK
6
CONTINUOUS
10
4.21854
20
-3.61591
11
4.19885
21
-3.59623
0
LINE
8
BLACK
6
CONTINUOUS
10
4.19885
20
-3.59623
11
4.17917
21
-3.61591
0
LINE
8
BLACK
6
CONTINUOUS
10
4.17917
20
-3.61591
11
4.19885
21
-3.6356
0
LINE
8
BLACK
6
CONTINUOUS
10
5.89085
20
-2.59173
11
5.91054
21
-2.57205
0
LINE
8
BLACK
6
CONTINUOUS
10
5.91054
20
-2.57205
11
5.89085
21
-2.55236
0
LINE
8
BLACK
6
CONTINUOUS
10
5.89085
20
-2.55236
11
5.87117
21
-2.57205
0
LINE
8
BLACK
6
CONTINUOUS
10
5.87117
20
-2.57205
11
5.89085
21
-2.59173
0
LINE
8
BLACK
6
CONTINUOUS
10
5.89085
20
-2.69173
11
5.91054
21
-2.67205
0
LINE
8
BLACK
6
CONTINUOUS
10
5.91054
20
-2.67205
11
5.89085
21
-2.65236
0
LINE
8
BLACK
6
CONTINUOUS
10
5.89085
20
-2.65236
11
5.87117
21
-2.67205
0
LINE
8
BLACK
6
CONTINUOUS
10
5.87117
20
-2.67205
11
5.89085
21
-2.69173
0
LINE
8
BLACK
6
CONTINUOUS
10
5.89085
20
-2.79173
11
5.91054
21
-2.77205
0
LINE
8
BLACK
6
CONTINUOUS
10
5.91054
20
-2.77205
11
5.89085
21
-2.75236
0
LINE
8
BLACK
6
CONTINUOUS
10
5.89085
20
-2.75236
11
5.87117
21
-2.77205
0
LINE
8
BLACK
6
CONTINUOUS
10
5.87117
20
-2.77205
11
5.89085
21
-2.79173
0
LINE
8
BLACK
6
CONTINUOUS
10
5.89085
20
-2.89173
11
5.91054
21
-2.87205
0
LINE
8
BLACK
6
CONTINUOUS
10
5.91054
20
-2.87205
11
5.89085
21
-2.85236
0
LINE
8
BLACK
6
CONTINUOUS
10
5.89085
20
-2.85236
11
5.87117
21
-2.87205
0
LINE
8
BLACK
6
CONTINUOUS
10
5.87117
20
-2.87205
11
5.89085
21
-2.89173
0
LINE
8
BLACK
6
CONTINUOUS
10
5.89085
20
-2.99173
11
5.91054
21
-2.97205
0
LINE
8
BLACK
6
CONTINUOUS
10
5.91054
20
-2.97205
11
5.89085
21
-2.95236
0
LINE
8
BLACK
6
CONTINUOUS
10
5.89085
20
-2.95236
11
5.87117
21
-2.97205
0
LINE
8
BLACK
6
CONTINUOUS
10
5.87117
20
-2.97205
11
5.89085
21
-2.99173
0
LINE
8
BLACK
6
CONTINUOUS
10
5.89085
20
-3.09173
11
5.91054
21
-3.07205
0
LINE
8
BLACK
6
CONTINUOUS
10
5.91054
20
-3.07205
11
5.89085
21
-3.05236
0
LINE
8
BLACK
6
CONTINUOUS
10
5.89085
20
-3.05236
11
5.87117
21
-3.07205
0
LINE
8
BLACK
6
CONTINUOUS
10
5.87117
20
-3.07205
11
5.89085
21
-3.09173
0
LINE
8
BLACK
6
CONTINUOUS
10
5.89085
20
-3.19173
11
5.91054
21
-3.17205
0
LINE
8
BLACK
6
CONTINUOUS
10
5.91054
20
-3.17205
11
5.89085
21
-3.15236
0
LINE
8
BLACK
6
CONTINUOUS
10
5.89085
20
-3.15236
11
5.87117
21
-3.17205
0
LINE
8
BLACK
6
CONTINUOUS
10
5.87117
20
-3.17205
11
5.89085
21
-3.19173
0
LINE
8
BLACK
6
CONTINUOUS
10
5.89085
20
-3.29173
11
5.91054
21
-3.27205
0
LINE
8
BLACK
6
CONTINUOUS
10
5.91054
20
-3.27205
11
5.89085
21
-3.25236
0
LINE
8
BLACK
6
CONTINUOUS
10
5.89085
20
-3.25236
11
5.87117
21
-3.27205
0
LINE
8
BLACK
6
CONTINUOUS
10
5.87117
20
-3.27205
11
5.89085
21
-3.29173
0
LINE
8
BLACK
6
CONTINUOUS
10
6.8563
20
-1.43701
11
6.87598
21
-1.41732
0
LINE
8
BLACK
6
CONTINUOUS
10
6.87598
20
-1.41732
11
6.8563
21
-1.39764
0
LINE
8
BLACK
6
CONTINUOUS
10
6.8563
20
-1.39764
11
6.83661
21
-1.41732
0
LINE
8
BLACK
6
CONTINUOUS
10
6.83661
20
-1.41732
11
6.8563
21
-1.43701
0
LINE
8
BLACK
6
CONTINUOUS
10
6.87598
20
-1.44764
11
6.87598
21
-1.38701
0
LINE
8
BLACK
6
CONTINUOUS
10
6.83661
20
-1.44764
11
6.83661
21
-1.38701
0
ARC
8
BLACK
10
6.8563
20
-1.38701
40
0.019685
50
360
51
540
0
ARC
8
BLACK
10
6.8563
20
-1.44764
40
0.019685
50
180
51
360
0
LINE
8
BLACK
6
CONTINUOUS
10
6.97047
20
-1.25591
11
6.99016
21
-1.23622
0
LINE
8
BLACK
6
CONTINUOUS
10
6.99016
20
-1.23622
11
6.97047
21
-1.21654
0
LINE
8
BLACK
6
CONTINUOUS
10
6.97047
20
-1.21654
11
6.95079
21
-1.23622
0
LINE
8
BLACK
6
CONTINUOUS
10
6.95079
20
-1.23622
11
6.97047
21
-1.25591
0
LINE
8
BLACK
6
CONTINUOUS
10
7.00079
20
-1.21654
11
6.94016
21
-1.21654
0
LINE
8
BLACK
6
CONTINUOUS
10
7.00079
20
-1.25591
11
6.94016
21
-1.25591
0
ARC
8
BLACK
10
6.94016
20
-1.23622
40
0.019685
50
450
51
630
0
ARC
8
BLACK
10
7.00079
20
-1.23622
40
0.019685
50
270
51
450
0
LINE
8
BLACK
6
CONTINUOUS
10
7.09646
20
-1.43701
11
7.11614
21
-1.41732
0
LINE
8
BLACK
6
CONTINUOUS
10
7.11614
20
-1.41732
11
7.09646
21
-1.39764
0
LINE
8
BLACK
6
CONTINUOUS
10
7.09646
20
-1.39764
11
7.07677
21
-1.41732
0
LINE
8
BLACK
6
CONTINUOUS
10
7.07677
20
-1.41732
11
7.09646
21
-1.43701
0
LINE
8
BLACK
6
CONTINUOUS
10
7.11614
20
-1.44764
11
7.11614
21
-1.38701
0
LINE
8
BLACK
6
CONTINUOUS
10
7.07677
20
-1.44764
11
7.07677
21
-1.38701
0
ARC
8
BLACK
10
7.09646
20
-1.38701
40
0.019685
50
360
51
540
0
ARC
8
BLACK
10
7.09646
20
-1.44764
40
0.019685
50
180
51
360
0
LINE
8
BLACK
6
CONTINUOUS
10
6.39885
20
-1.34373
11
6.41854
21
-1.32405
0
LINE
8
BLACK
6
CONTINUOUS
10
6.41854
20
-1.32405
11
6.39885
21
-1.30436
0
LINE
8
BLACK
6
CONTINUOUS
10
6.39885
20
-1.30436
11
6.37917
21
-1.32405
0
LINE
8
BLACK
6
CONTINUOUS
10
6.37917
20
-1.32405
11
6.39885
21
-1.34373
0
LINE
8
BLACK
6
CONTINUOUS
10
6.39885
20
-1.44373
11
6.41854
21
-1.42405
0
LINE
8
BLACK
6
CONTINUOUS
10
6.41854
20
-1.42405
11
6.39885
21
-1.40436
0
LINE
8
BLACK
6
CONTINUOUS
10
6.39885
20
-1.40436
11
6.37917
21
-1.42405
0
LINE
8
BLACK
6
CONTINUOUS
10
6.37917
20
-1.42405
11
6.39885
21
-1.44373
0
LINE
8
BLACK
6
CONTINUOUS
10
4.59685
20
-1.59173
11
4.61654
21
-1.57205
0
LINE
8
BLACK
6
CONTINUOUS
10
4.61654
20
-1.57205
11
4.59685
21
-1.55236
0
LINE
8
BLACK
6
CONTINUOUS
10
4.59685
20
-1.55236
11
4.57717
21
-1.57205
0
LINE
8
BLACK
6
CONTINUOUS
10
4.57717
20
-1.57205
11
4.59685
21
-1.59173
0
LINE
8
BLACK
6
CONTINUOUS
10
4.59685
20
-1.69173
11
4.61654
21
-1.67205
0
LINE
8
BLACK
6
CONTINUOUS
10
4.61654
20
-1.67205
11
4.59685
21
-1.65236
0
LINE
8
BLACK
6
CONTINUOUS
10
4.59685
20
-1.65236
11
4.57717
21
-1.67205
0
LINE
8
BLACK
6
CONTINUOUS
10
4.57717
20
-1.67205
11
4.59685
21
-1.69173
0
LINE
8
BLACK
6
CONTINUOUS
10
4.59685
20
-1.79173
11
4.61654
21
-1.77205
0
LINE
8
BLACK
6
CONTINUOUS
10
4.61654
20
-1.77205
11
4.59685
21
-1.75236
0
LINE
8
BLACK
6
CONTINUOUS
10
4.59685
20
-1.75236
11
4.57717
21
-1.77205
0
LINE
8
BLACK
6
CONTINUOUS
10
4.57717
20
-1.77205
11
4.59685
21
-1.79173
0
LINE
8
BLACK
6
CONTINUOUS
10
4.59685
20
-1.89173
11
4.61654
21
-1.87205
0
LINE
8
BLACK
6
CONTINUOUS
10
4.61654
20
-1.87205
11
4.59685
21
-1.85236
0
LINE
8
BLACK
6
CONTINUOUS
10
4.59685
20
-1.85236
11
4.57717
21
-1.87205
0
LINE
8
BLACK
6
CONTINUOUS
10
4.57717
20
-1.87205
11
4.59685
21
-1.89173
0
LINE
8
BLACK
6
CONTINUOUS
10
4.59685
20
-1.99173
11
4.61654
21
-1.97205
0
LINE
8
BLACK
6
CONTINUOUS
10
4.61654
20
-1.97205
11
4.59685
21
-1.95236
0
LINE
8
BLACK
6
CONTINUOUS
10
4.59685
20
-1.95236
11
4.57717
21
-1.97205
0
LINE
8
BLACK
6
CONTINUOUS
10
4.57717
20
-1.97205
11
4.59685
21
-1.99173
0
LINE
8
BLACK
6
CONTINUOUS
10
4.59685
20
-2.09173
11
4.61654
21
-2.07205
0
LINE
8
BLACK
6
CONTINUOUS
10
4.61654
20
-2.07205
11
4.59685
21
-2.05236
0
LINE
8
BLACK
6
CONTINUOUS
10
4.59685
20
-2.05236
11
4.57717
21
-2.07205
0
LINE
8
BLACK
6
CONTINUOUS
10
4.57717
20
-2.07205
11
4.59685
21
-2.09173
0
LINE
8
BLACK
6
CONTINUOUS
10
4.59685
20
-2.19173
11
4.61654
21
-2.17205
0
LINE
8
BLACK
6
CONTINUOUS
10
4.61654
20
-2.17205
11
4.59685
21
-2.15236
0
LINE
8
BLACK
6
CONTINUOUS
10
4.59685
20
-2.15236
11
4.57717
21
-2.17205
0
LINE
8
BLACK
6
CONTINUOUS
10
4.57717
20
-2.17205
11
4.59685
21
-2.19173
0
LINE
8
BLACK
6
CONTINUOUS
10
4.59685
20
-2.29173
11
4.61654
21
-2.27205
0
LINE
8
BLACK
6
CONTINUOUS
10
4.61654
20
-2.27205
11
4.59685
21
-2.25236
0
LINE
8
BLACK
6
CONTINUOUS
10
4.59685
20
-2.25236
11
4.57717
21
-2.27205
0
LINE
8
BLACK
6
CONTINUOUS
10
4.57717
20
-2.27205
11
4.59685
21
-2.29173
0
LINE
8
BLACK
6
CONTINUOUS
10
4.79685
20
-3.04173
11
4.81654
21
-3.02205
0
LINE
8
BLACK
6
CONTINUOUS
10
4.81654
20
-3.02205
11
4.79685
21
-3.00236
0
LINE
8
BLACK
6
CONTINUOUS
10
4.79685
20
-3.00236
11
4.77717
21
-3.02205
0
LINE
8
BLACK
6
CONTINUOUS
10
4.77717
20
-3.02205
11
4.79685
21
-3.04173
0
LINE
8
BLACK
6
CONTINUOUS
10
4.79685
20
-3.14173
11
4.81654
21
-3.12205
0
LINE
8
BLACK
6
CONTINUOUS
10
4.81654
20
-3.12205
11
4.79685
21
-3.10236
0
LINE
8
BLACK
6
CONTINUOUS
10
4.79685
20
-3.10236
11
4.77717
21
-3.12205
0
LINE
8
BLACK
6
CONTINUOUS
10
4.77717
20
-3.12205
11
4.79685
21
-3.14173
0
LINE
8
BLACK
6
CONTINUOUS
10
4.79685
20
-3.24173
11
4.81654
21
-3.22205
0
LINE
8
BLACK
6
CONTINUOUS
10
4.81654
20
-3.22205
11
4.79685
21
-3.20236
0
LINE
8
BLACK
6
CONTINUOUS
10
4.79685
20
-3.20236
11
4.77717
21
-3.22205
0
LINE
8
BLACK
6
CONTINUOUS
10
4.77717
20
-3.22205
11
4.79685
21
-3.24173
0
LINE
8
BLACK
6
CONTINUOUS
10
4.79685
20
-3.34173
11
4.81654
21
-3.32205
0
LINE
8
BLACK
6
CONTINUOUS
10
4.81654
20
-3.32205
11
4.79685
21
-3.30236
0
LINE
8
BLACK
6
CONTINUOUS
10
4.79685
20
-3.30236
11
4.77717
21
-3.32205
0
LINE
8
BLACK
6
CONTINUOUS
10
4.77717
20
-3.32205
11
4.79685
21
-3.34173
0
LINE
8
BLACK
6
CONTINUOUS
10
3.94685
20
-1.24173
11
3.96654
21
-1.22205
0
LINE
8
BLACK
6
CONTINUOUS
10
3.96654
20
-1.22205
11
3.94685
21
-1.20236
0
LINE
8
BLACK
6
CONTINUOUS
10
3.94685
20
-1.20236
11
3.92717
21
-1.22205
0
LINE
8
BLACK
6
CONTINUOUS
10
3.92717
20
-1.22205
11
3.94685
21
-1.24173
0
LINE
8
BLACK
6
CONTINUOUS
10
4.04685
20
-1.24173
11
4.06654
21
-1.22205
0
LINE
8
BLACK
6
CONTINUOUS
10
4.06654
20
-1.22205
11
4.04685
21
-1.20236
0
LINE
8
BLACK
6
CONTINUOUS
10
4.04685
20
-1.20236
11
4.02717
21
-1.22205
0
LINE
8
BLACK
6
CONTINUOUS
10
4.02717
20
-1.22205
11
4.04685
21
-1.24173
0
LINE
8
BLACK
6
CONTINUOUS
10
4.14685
20
-1.24173
11
4.16654
21
-1.22205
0
LINE
8
BLACK
6
CONTINUOUS
10
4.16654
20
-1.22205
11
4.14685
21
-1.20236
0
LINE
8
BLACK
6
CONTINUOUS
10
4.14685
20
-1.20236
11
4.12717
21
-1.22205
0
LINE
8
BLACK
6
CONTINUOUS
10
4.12717
20
-1.22205
11
4.14685
21
-1.24173
0
LINE
8
BLACK
6
CONTINUOUS
10
4.24685
20
-1.24173
11
4.26654
21
-1.22205
0
LINE
8
BLACK
6
CONTINUOUS
10
4.26654
20
-1.22205
11
4.24685
21
-1.20236
0
LINE
8
BLACK
6
CONTINUOUS
10
4.24685
20
-1.20236
11
4.22717
21
-1.22205
0
LINE
8
BLACK
6
CONTINUOUS
10
4.22717
20
-1.22205
11
4.24685
21
-1.24173
0
LINE
8
BLACK
6
CONTINUOUS
10
6.63622
20
-1.49606
11
6.65591
21
-1.47638
0
LINE
8
BLACK
6
CONTINUOUS
10
6.65591
20
-1.47638
11
6.63622
21
-1.45669
0
LINE
8
BLACK
6
CONTINUOUS
10
6.63622
20
-1.45669
11
6.61654
21
-1.47638
0
LINE
8
BLACK
6
CONTINUOUS
10
6.61654
20
-1.47638
11
6.63622
21
-1.49606
0
LINE
8
BLACK
6
CONTINUOUS
10
6.73622
20
-1.49606
11
6.75591
21
-1.47638
0
LINE
8
BLACK
6
CONTINUOUS
10
6.75591
20
-1.47638
11
6.73622
21
-1.45669
0
LINE
8
BLACK
6
CONTINUOUS
10
6.73622
20
-1.45669
11
6.71654
21
-1.47638
0
LINE
8
BLACK
6
CONTINUOUS
10
6.71654
20
-1.47638
11
6.73622
21
-1.49606
0
LINE
8
BLACK
6
CONTINUOUS
10
3.83958
20
-2.61195
11
3.91832
21
-2.69069
0
LINE
8
BLACK
6
CONTINUOUS
10
3.91832
20
-2.61195
11
3.83958
21
-2.69069
0
CIRCLE
8
BLACK
10
3.87895
20
-2.65132
40
0.0393701
0
LINE
8
BLACK
6
CONTINUOUS
10
3.83958
20
-2.64148
11
3.83958
21
-2.66117
0
LINE
8
BLACK
6
CONTINUOUS
10
3.91832
20
-2.64148
11
3.91832
21
-2.66117
0
ARC
8
BLACK
10
3.87895
20
-2.66117
40
0.0393701
50
180
51
360
0
ARC
8
BLACK
10
3.87895
20
-2.64148
40
0.0393701
50
0
51
180
0
LINE
8
BLACK
6
CONTINUOUS
10
4.28053
20
-2.61195
11
4.35927
21
-2.69069
0
LINE
8
BLACK
6
CONTINUOUS
10
4.35927
20
-2.61195
11
4.28053
21
-2.69069
0
CIRCLE
8
BLACK
10
4.3199
20
-2.65132
40
0.0393701
0
LINE
8
BLACK
6
CONTINUOUS
10
4.28053
20
-2.64148
11
4.28053
21
-2.66117
0
LINE
8
BLACK
6
CONTINUOUS
10
4.35927
20
-2.64148
11
4.35927
21
-2.66117
0
ARC
8
BLACK
10
4.3199
20
-2.66117
40
0.0393701
50
180
51
360
0
ARC
8
BLACK
10
4.3199
20
-2.64148
40
0.0393701
50
0
51
180
0
LINE
8
BLACK
6
CONTINUOUS
10
3.84058
20
-3.30095
11
3.91932
21
-3.37969
0
LINE
8
BLACK
6
CONTINUOUS
10
3.91932
20
-3.30095
11
3.84058
21
-3.37969
0
CIRCLE
8
BLACK
10
3.87995
20
-3.34032
40
0.0393701
0
LINE
8
BLACK
6
CONTINUOUS
10
3.84058
20
-3.33048
11
3.84058
21
-3.35017
0
LINE
8
BLACK
6
CONTINUOUS
10
3.91932
20
-3.33048
11
3.91932
21
-3.35017
0
ARC
8
BLACK
10
3.87995
20
-3.35017
40
0.0393701
50
180
51
360
0
ARC
8
BLACK
10
3.87995
20
-3.33048
40
0.0393701
50
0
51
180
0
LINE
8
BLACK
6
CONTINUOUS
10
4.28153
20
-3.30095
11
4.36027
21
-3.37969
0
LINE
8
BLACK
6
CONTINUOUS
10
4.36027
20
-3.30095
11
4.28153
21
-3.37969
0
CIRCLE
8
BLACK
10
4.3209
20
-3.34032
40
0.0393701
0
LINE
8
BLACK
6
CONTINUOUS
10
4.28153
20
-3.33048
11
4.28153
21
-3.35017
0
LINE
8
BLACK
6
CONTINUOUS
10
4.36027
20
-3.33048
11
4.36027
21
-3.35017
0
ARC
8
BLACK
10
4.3209
20
-3.35017
40
0.0393701
50
180
51
360
0
ARC
8
BLACK
10
4.3209
20
-3.33048
40
0.0393701
50
0
51
180
0
LINE
8
BLACK
6
CONTINUOUS
10
4.60285
20
-1.21703
11
4.72785
21
-1.34203
0
LINE
8
BLACK
6
CONTINUOUS
10
4.72785
20
-1.21703
11
4.60285
21
-1.34203
0
LINE
8
BLACK
6
CONTINUOUS
10
4.66535
20
-1.21703
11
4.66535
21
-1.34203
0
LINE
8
BLACK
6
CONTINUOUS
10
4.60285
20
-1.27953
11
4.72785
21
-1.27953
0
LINE
8
BLACK
6
CONTINUOUS
10
6.55167
20
-3.55955
11
6.67667
21
-3.68455
0
LINE
8
BLACK
6
CONTINUOUS
10
6.67667
20
-3.55955
11
6.55167
21
-3.68455
0
LINE
8
BLACK
6
CONTINUOUS
10
6.61417
20
-3.55955
11
6.61417
21
-3.68455
0
LINE
8
BLACK
6
CONTINUOUS
10
6.55167
20
-3.62205
11
6.67667
21
-3.62205
0
LINE
8
BLACK
6
CONTINUOUS
10
4.60285
20
-3.55955
11
4.72785
21
-3.68455
0
LINE
8
BLACK
6
CONTINUOUS
10
4.72785
20
-3.55955
11
4.60285
21
-3.68455
0
LINE
8
BLACK
6
CONTINUOUS
10
4.66535
20
-3.55955
11
4.66535
21
-3.68455
0
LINE
8
BLACK
6
CONTINUOUS
10
4.60285
20
-3.62205
11
4.72785
21
-3.62205
0
LINE
8
BLACK
6
CONTINUOUS
10
6.55167
20
-1.21703
11
6.67667
21
-1.34203
0
LINE
8
BLACK
6
CONTINUOUS
10
6.67667
20
-1.21703
11
6.55167
21
-1.34203
0
LINE
8
BLACK
6
CONTINUOUS
10
6.61417
20
-1.21703
11
6.61417
21
-1.34203
0
LINE
8
BLACK
6
CONTINUOUS
10
6.55167
20
-1.27953
11
6.67667
21
-1.27953
0
LINE
8
BLACK
6
CONTINUOUS
10
3.90665
20
-3.98453
11
3.90665
21
-3.86642
0
LINE
8
BLACK
6
CONTINUOUS
10
3.90665
20
-3.86642
11
3.93477
21
-3.86642
0
LINE
8
BLACK
6
CONTINUOUS
10
3.93477
20
-3.86642
11
3.95164
21
-3.87205
0
LINE
8
BLACK
6
CONTINUOUS
10
3.95164
20
-3.87205
11
3.96289
21
-3.8833
0
LINE
8
BLACK
6
CONTINUOUS
10
3.96289
20
-3.8833
11
3.96852
21
-3.89454
0
LINE
8
BLACK
6
CONTINUOUS
10
3.96852
20
-3.89454
11
3.97414
21
-3.91704
0
LINE
8
BLACK
6
CONTINUOUS
10
3.97414
20
-3.91704
11
3.97414
21
-3.93391
0
LINE
8
BLACK
6
CONTINUOUS
10
3.97414
20
-3.93391
11
3.96852
21
-3.95641
0
LINE
8
BLACK
6
CONTINUOUS
10
3.96852
20
-3.95641
11
3.96289
21
-3.96766
0
LINE
8
BLACK
6
CONTINUOUS
10
3.96289
20
-3.96766
11
3.95164
21
-3.97891
0
LINE
8
BLACK
6
CONTINUOUS
10
3.95164
20
-3.97891
11
3.93477
21
-3.98453
0
LINE
8
BLACK
6
CONTINUOUS
10
3.93477
20
-3.98453
11
3.90665
21
-3.98453
0
LINE
8
BLACK
6
CONTINUOUS
10
4.02476
20
-3.98453
11
4.02476
21
-3.90579
0
LINE
8
BLACK
6
CONTINUOUS
10
4.02476
20
-3.92829
11
4.03038
21
-3.91704
0
LINE
8
BLACK
6
CONTINUOUS
10
4.03038
20
-3.91704
11
4.03601
21
-3.91142
0
LINE
8
BLACK
6
CONTINUOUS
10
4.03601
20
-3.91142
11
4.04726
21
-3.90579
0
LINE
8
BLACK
6
CONTINUOUS
10
4.04726
20
-3.90579
11
4.05851
21
-3.90579
0
LINE
8
BLACK
6
CONTINUOUS
10
4.09788
20
-3.98453
11
4.09788
21
-3.90579
0
LINE
8
BLACK
6
CONTINUOUS
10
4.09788
20
-3.86642
11
4.09225
21
-3.87205
0
LINE
8
BLACK
6
CONTINUOUS
10
4.09225
20
-3.87205
11
4.09788
21
-3.87767
0
LINE
8
BLACK
6
CONTINUOUS
10
4.09788
20
-3.87767
11
4.1035
21
-3.87205
0
LINE
8
BLACK
6
CONTINUOUS
10
4.1035
20
-3.87205
11
4.09788
21
-3.86642
0
LINE
8
BLACK
6
CONTINUOUS
10
4.09788
20
-3.86642
11
4.09788
21
-3.87767
0
LINE
8
BLACK
6
CONTINUOUS
10
4.17099
20
-3.98453
11
4.15974
21
-3.97891
0
LINE
8
BLACK
6
CONTINUOUS
10
4.15974
20
-3.97891
11
4.15412
21
-3.96766
0
LINE
8
BLACK
6
CONTINUOUS
10
4.15412
20
-3.96766
11
4.15412
21
-3.86642
0
LINE
8
BLACK
6
CONTINUOUS
10
4.23286
20
-3.98453
11
4.22161
21
-3.97891
0
LINE
8
BLACK
6
CONTINUOUS
10
4.22161
20
-3.97891
11
4.21599
21
-3.96766
0
LINE
8
BLACK
6
CONTINUOUS
10
4.21599
20
-3.96766
11
4.21599
21
-3.86642
0
LINE
8
BLACK
6
CONTINUOUS
10
4.36784
20
-3.98453
11
4.36784
21
-3.86642
0
LINE
8
BLACK
6
CONTINUOUS
10
4.36784
20
-3.86642
11
4.40721
21
-3.95079
0
LINE
8
BLACK
6
CONTINUOUS
10
4.40721
20
-3.95079
11
4.44658
21
-3.86642
0
LINE
8
BLACK
6
CONTINUOUS
10
4.44658
20
-3.86642
11
4.44658
21
-3.98453
0
LINE
8
BLACK
6
CONTINUOUS
10
4.55344
20
-3.98453
11
4.55344
21
-3.92267
0
LINE
8
BLACK
6
CONTINUOUS
10
4.55344
20
-3.92267
11
4.54782
21
-3.91142
0
LINE
8
BLACK
6
CONTINUOUS
10
4.54782
20
-3.91142
11
4.53657
21
-3.90579
0
LINE
8
BLACK
6
CONTINUOUS
10
4.53657
20
-3.90579
11
4.51407
21
-3.90579
0
LINE
8
BLACK
6
CONTINUOUS
10
4.51407
20
-3.90579
11
4.50282
21
-3.91142
0
LINE
8
BLACK
6
CONTINUOUS
10
4.55344
20
-3.97891
11
4.54219
21
-3.98453
0
LINE
8
BLACK
6
CONTINUOUS
10
4.54219
20
-3.98453
11
4.51407
21
-3.98453
0
LINE
8
BLACK
6
CONTINUOUS
10
4.51407
20
-3.98453
11
4.50282
21
-3.97891
0
LINE
8
BLACK
6
CONTINUOUS
10
4.50282
20
-3.97891
11
4.4972
21
-3.96766
0
LINE
8
BLACK
6
CONTINUOUS
10
4.4972
20
-3.96766
11
4.4972
21
-3.95641
0
LINE
8
BLACK
6
CONTINUOUS
10
4.4972
20
-3.95641
11
4.50282
21
-3.94516
0
LINE
8
BLACK
6
CONTINUOUS
10
4.50282
20
-3.94516
11
4.51407
21
-3.93954
0
LINE
8
BLACK
6
CONTINUOUS
10
4.51407
20
-3.93954
11
4.54219
21
-3.93954
0
LINE
8
BLACK
6
CONTINUOUS
10
4.54219
20
-3.93954
11
4.55344
21
-3.93391
0
LINE
8
BLACK
6
CONTINUOUS
10
4.60969
20
-3.90579
11
4.60969
21
-4.0239
0
LINE
8
BLACK
6
CONTINUOUS
10
4.60969
20
-3.91142
11
4.62093
21
-3.90579
0
LINE
8
BLACK
6
CONTINUOUS
10
4.62093
20
-3.90579
11
4.64343
21
-3.90579
0
LINE
8
BLACK
6
CONTINUOUS
10
4.64343
20
-3.90579
11
4.65468
21
-3.91142
0
LINE
8
BLACK
6
CONTINUOUS
10
4.65468
20
-3.91142
11
4.6603
21
-3.91704
0
LINE
8
BLACK
6
CONTINUOUS
10
4.6603
20
-3.91704
11
4.66593
21
-3.92829
0
LINE
8
BLACK
6
CONTINUOUS
10
4.66593
20
-3.92829
11
4.66593
21
-3.96204
0
LINE
8
BLACK
6
CONTINUOUS
10
4.66593
20
-3.96204
11
4.6603
21
-3.97328
0
LINE
8
BLACK
6
CONTINUOUS
10
4.6603
20
-3.97328
11
4.65468
21
-3.97891
0
LINE
8
BLACK
6
CONTINUOUS
10
4.65468
20
-3.97891
11
4.64343
21
-3.98453
0
LINE
8
BLACK
6
CONTINUOUS
10
4.64343
20
-3.98453
11
4.62093
21
-3.98453
0
LINE
8
BLACK
6
CONTINUOUS
10
4.62093
20
-3.98453
11
4.60969
21
-3.97891
0
LINE
8
BLACK
6
CONTINUOUS
10
4.71655
20
-3.97328
11
4.72217
21
-3.97891
0
LINE
8
BLACK
6
CONTINUOUS
10
4.72217
20
-3.97891
11
4.71655
21
-3.98453
0
LINE
8
BLACK
6
CONTINUOUS
10
4.71655
20
-3.98453
11
4.71092
21
-3.97891
0
LINE
8
BLACK
6
CONTINUOUS
10
4.71092
20
-3.97891
11
4.71655
21
-3.97328
0
LINE
8
BLACK
6
CONTINUOUS
10
4.71655
20
-3.97328
11
4.71655
21
-3.98453
0
LINE
8
BLACK
6
CONTINUOUS
10
4.71655
20
-3.91142
11
4.72217
21
-3.91704
0
LINE
8
BLACK
6
CONTINUOUS
10
4.72217
20
-3.91704
11
4.71655
21
-3.92267
0
LINE
8
BLACK
6
CONTINUOUS
10
4.71655
20
-3.92267
11
4.71092
21
-3.91704
0
LINE
8
BLACK
6
CONTINUOUS
10
4.71092
20
-3.91704
11
4.71655
21
-3.91142
0
LINE
8
BLACK
6
CONTINUOUS
10
4.71655
20
-3.91142
11
4.71655
21
-3.92267
0
LINE
8
BLACK
6
CONTINUOUS
10
3.77026
20
-4.16732
11
3.79388
21
-4.19094
0
LINE
8
BLACK
6
CONTINUOUS
10
3.79388
20
-4.16732
11
3.77026
21
-4.19094
0
LINE
8
BLACK
6
CONTINUOUS
10
3.92915
20
-4.11445
11
3.94039
21
-4.11445
0
LINE
8
BLACK
6
CONTINUOUS
10
3.94039
20
-4.11445
11
3.95164
21
-4.12008
0
LINE
8
BLACK
6
CONTINUOUS
10
3.95164
20
-4.12008
11
3.95727
21
-4.1257
0
LINE
8
BLACK
6
CONTINUOUS
10
3.95727
20
-4.1257
11
3.96289
21
-4.13695
0
LINE
8
BLACK
6
CONTINUOUS
10
3.96289
20
-4.13695
11
3.96852
21
-4.15945
0
LINE
8
BLACK
6
CONTINUOUS
10
3.96852
20
-4.15945
11
3.96852
21
-4.18757
0
LINE
8
BLACK
6
CONTINUOUS
10
3.96852
20
-4.18757
11
3.96289
21
-4.21007
0
LINE
8
BLACK
6
CONTINUOUS
10
3.96289
20
-4.21007
11
3.95727
21
-4.22132
0
LINE
8
BLACK
6
CONTINUOUS
10
3.95727
20
-4.22132
11
3.95164
21
-4.22694
0
LINE
8
BLACK
6
CONTINUOUS
10
3.95164
20
-4.22694
11
3.94039
21
-4.23256
0
LINE
8
BLACK
6
CONTINUOUS
10
3.94039
20
-4.23256
11
3.92915
21
-4.23256
0
LINE
8
BLACK
6
CONTINUOUS
10
3.92915
20
-4.23256
11
3.9179
21
-4.22694
0
LINE
8
BLACK
6
CONTINUOUS
10
3.9179
20
-4.22694
11
3.91227
21
-4.22132
0
LINE
8
BLACK
6
CONTINUOUS
10
3.91227
20
-4.22132
11
3.90665
21
-4.21007
0
LINE
8
BLACK
6
CONTINUOUS
10
3.90665
20
-4.21007
11
3.90102
21
-4.18757
0
LINE
8
BLACK
6
CONTINUOUS
10
3.90102
20
-4.18757
11
3.90102
21
-4.15945
0
LINE
8
BLACK
6
CONTINUOUS
10
3.90102
20
-4.15945
11
3.90665
21
-4.13695
0
LINE
8
BLACK
6
CONTINUOUS
10
3.90665
20
-4.13695
11
3.91227
21
-4.1257
0
LINE
8
BLACK
6
CONTINUOUS
10
3.91227
20
-4.1257
11
3.9179
21
-4.12008
0
LINE
8
BLACK
6
CONTINUOUS
10
3.9179
20
-4.12008
11
3.92915
21
-4.11445
0
LINE
8
BLACK
6
CONTINUOUS
10
4.01913
20
-4.22132
11
4.02476
21
-4.22694
0
LINE
8
BLACK
6
CONTINUOUS
10
4.02476
20
-4.22694
11
4.01913
21
-4.23256
0
LINE
8
BLACK
6
CONTINUOUS
10
4.01913
20
-4.23256
11
4.01351
21
-4.22694
0
LINE
8
BLACK
6
CONTINUOUS
10
4.01351
20
-4.22694
11
4.01913
21
-4.22132
0
LINE
8
BLACK
6
CONTINUOUS
10
4.01913
20
-4.22132
11
4.01913
21
-4.23256
0
LINE
8
BLACK
6
CONTINUOUS
10
4.126
20
-4.11445
11
4.1035
21
-4.11445
0
LINE
8
BLACK
6
CONTINUOUS
10
4.1035
20
-4.11445
11
4.09225
21
-4.12008
0
LINE
8
BLACK
6
CONTINUOUS
10
4.09225
20
-4.12008
11
4.08663
21
-4.1257
0
LINE
8
BLACK
6
CONTINUOUS
10
4.08663
20
-4.1257
11
4.07538
21
-4.14258
0
LINE
8
BLACK
6
CONTINUOUS
10
4.07538
20
-4.14258
11
4.06975
21
-4.16507
0
LINE
8
BLACK
6
CONTINUOUS
10
4.06975
20
-4.16507
11
4.06975
21
-4.21007
0
LINE
8
BLACK
6
CONTINUOUS
10
4.06975
20
-4.21007
11
4.07538
21
-4.22132
0
LINE
8
BLACK
6
CONTINUOUS
10
4.07538
20
-4.22132
11
4.081
21
-4.22694
0
LINE
8
BLACK
6
CONTINUOUS
10
4.081
20
-4.22694
11
4.09225
21
-4.23256
0
LINE
8
BLACK
6
CONTINUOUS
10
4.09225
20
-4.23256
11
4.11475
21
-4.23256
0
LINE
8
BLACK
6
CONTINUOUS
10
4.11475
20
-4.23256
11
4.126
21
-4.22694
0
LINE
8
BLACK
6
CONTINUOUS
10
4.126
20
-4.22694
11
4.13162
21
-4.22132
0
LINE
8
BLACK
6
CONTINUOUS
10
4.13162
20
-4.22132
11
4.13725
21
-4.21007
0
LINE
8
BLACK
6
CONTINUOUS
10
4.13725
20
-4.21007
11
4.13725
21
-4.18195
0
LINE
8
BLACK
6
CONTINUOUS
10
4.13725
20
-4.18195
11
4.13162
21
-4.1707
0
LINE
8
BLACK
6
CONTINUOUS
10
4.13162
20
-4.1707
11
4.126
21
-4.16507
0
LINE
8
BLACK
6
CONTINUOUS
10
4.126
20
-4.16507
11
4.11475
21
-4.15945
0
LINE
8
BLACK
6
CONTINUOUS
10
4.11475
20
-4.15945
11
4.09225
21
-4.15945
0
LINE
8
BLACK
6
CONTINUOUS
10
4.09225
20
-4.15945
11
4.081
21
-4.16507
0
LINE
8
BLACK
6
CONTINUOUS
10
4.081
20
-4.16507
11
4.07538
21
-4.1707
0
LINE
8
BLACK
6
CONTINUOUS
10
4.07538
20
-4.1707
11
4.06975
21
-4.18195
0
LINE
8
BLACK
6
CONTINUOUS
10
4.21036
20
-4.11445
11
4.22161
21
-4.11445
0
LINE
8
BLACK
6
CONTINUOUS
10
4.22161
20
-4.11445
11
4.23286
21
-4.12008
0
LINE
8
BLACK
6
CONTINUOUS
10
4.23286
20
-4.12008
11
4.23848
21
-4.1257
0
LINE
8
BLACK
6
CONTINUOUS
10
4.23848
20
-4.1257
11
4.24411
21
-4.13695
0
LINE
8
BLACK
6
CONTINUOUS
10
4.24411
20
-4.13695
11
4.24973
21
-4.15945
0
LINE
8
BLACK
6
CONTINUOUS
10
4.24973
20
-4.15945
11
4.24973
21
-4.18757
0
LINE
8
BLACK
6
CONTINUOUS
10
4.24973
20
-4.18757
11
4.24411
21
-4.21007
0
LINE
8
BLACK
6
CONTINUOUS
10
4.24411
20
-4.21007
11
4.23848
21
-4.22132
0
LINE
8
BLACK
6
CONTINUOUS
10
4.23848
20
-4.22132
11
4.23286
21
-4.22694
0
LINE
8
BLACK
6
CONTINUOUS
10
4.23286
20
-4.22694
11
4.22161
21
-4.23256
0
LINE
8
BLACK
6
CONTINUOUS
10
4.22161
20
-4.23256
11
4.21036
21
-4.23256
0
LINE
8
BLACK
6
CONTINUOUS
10
4.21036
20
-4.23256
11
4.19911
21
-4.22694
0
LINE
8
BLACK
6
CONTINUOUS
10
4.19911
20
-4.22694
11
4.19349
21
-4.22132
0
LINE
8
BLACK
6
CONTINUOUS
10
4.19349
20
-4.22132
11
4.18786
21
-4.21007
0
LINE
8
BLACK
6
CONTINUOUS
10
4.18786
20
-4.21007
11
4.18224
21
-4.18757
0
LINE
8
BLACK
6
CONTINUOUS
10
4.18224
20
-4.18757
11
4.18224
21
-4.15945
0
LINE
8
BLACK
6
CONTINUOUS
10
4.18224
20
-4.15945
11
4.18786
21
-4.13695
0
LINE
8
BLACK
6
CONTINUOUS
10
4.18786
20
-4.13695
11
4.19349
21
-4.1257
0
LINE
8
BLACK
6
CONTINUOUS
10
4.19349
20
-4.1257
11
4.19911
21
-4.12008
0
LINE
8
BLACK
6
CONTINUOUS
10
4.19911
20
-4.12008
11
4.21036
21
-4.11445
0
LINE
8
BLACK
6
CONTINUOUS
10
4.30035
20
-4.23256
11
4.30035
21
-4.15382
0
LINE
8
BLACK
6
CONTINUOUS
10
4.30035
20
-4.16507
11
4.30597
21
-4.15945
0
LINE
8
BLACK
6
CONTINUOUS
10
4.30597
20
-4.15945
11
4.31722
21
-4.15382
0
LINE
8
BLACK
6
CONTINUOUS
10
4.31722
20
-4.15382
11
4.3341
21
-4.15382
0
LINE
8
BLACK
6
CONTINUOUS
10
4.3341
20
-4.15382
11
4.34534
21
-4.15945
0
LINE
8
BLACK
6
CONTINUOUS
10
4.34534
20
-4.15945
11
4.35097
21
-4.1707
0
LINE
8
BLACK
6
CONTINUOUS
10
4.35097
20
-4.1707
11
4.35097
21
-4.23256
0
LINE
8
BLACK
6
CONTINUOUS
10
4.35097
20
-4.1707
11
4.35659
21
-4.15945
0
LINE
8
BLACK
6
CONTINUOUS
10
4.35659
20
-4.15945
11
4.36784
21
-4.15382
0
LINE
8
BLACK
6
CONTINUOUS
10
4.36784
20
-4.15382
11
4.38471
21
-4.15382
0
LINE
8
BLACK
6
CONTINUOUS
10
4.38471
20
-4.15382
11
4.39596
21
-4.15945
0
LINE
8
BLACK
6
CONTINUOUS
10
4.39596
20
-4.15945
11
4.40159
21
-4.1707
0
LINE
8
BLACK
6
CONTINUOUS
10
4.40159
20
-4.1707
11
4.40159
21
-4.23256
0
LINE
8
BLACK
6
CONTINUOUS
10
4.45783
20
-4.23256
11
4.45783
21
-4.15382
0
LINE
8
BLACK
6
CONTINUOUS
10
4.45783
20
-4.16507
11
4.46345
21
-4.15945
0
LINE
8
BLACK
6
CONTINUOUS
10
4.46345
20
-4.15945
11
4.4747
21
-4.15382
0
LINE
8
BLACK
6
CONTINUOUS
10
4.4747
20
-4.15382
11
4.49158
21
-4.15382
0
LINE
8
BLACK
6
CONTINUOUS
10
4.49158
20
-4.15382
11
4.50282
21
-4.15945
0
LINE
8
BLACK
6
CONTINUOUS
10
4.50282
20
-4.15945
11
4.50845
21
-4.1707
0
LINE
8
BLACK
6
CONTINUOUS
10
4.50845
20
-4.1707
11
4.50845
21
-4.23256
0
LINE
8
BLACK
6
CONTINUOUS
10
4.50845
20
-4.1707
11
4.51407
21
-4.15945
0
LINE
8
BLACK
6
CONTINUOUS
10
4.51407
20
-4.15945
11
4.52532
21
-4.15382
0
LINE
8
BLACK
6
CONTINUOUS
10
4.52532
20
-4.15382
11
4.54219
21
-4.15382
0
LINE
8
BLACK
6
CONTINUOUS
10
4.54219
20
-4.15382
11
4.55344
21
-4.15945
0
LINE
8
BLACK
6
CONTINUOUS
10
4.55344
20
-4.15945
11
4.55907
21
-4.1707
0
LINE
8
BLACK
6
CONTINUOUS
10
4.55907
20
-4.1707
11
4.55907
21
-4.23256
0
LINE
8
BLACK
6
CONTINUOUS
10
4.78966
20
-4.10883
11
4.68843
21
-4.26069
0
LINE
8
BLACK
6
CONTINUOUS
10
4.94152
20
-4.11445
11
4.95277
21
-4.11445
0
LINE
8
BLACK
6
CONTINUOUS
10
4.95277
20
-4.11445
11
4.96402
21
-4.12008
0
LINE
8
BLACK
6
CONTINUOUS
10
4.96402
20
-4.12008
11
4.96964
21
-4.1257
0
LINE
8
BLACK
6
CONTINUOUS
10
4.96964
20
-4.1257
11
4.97527
21
-4.13695
0
LINE
8
BLACK
6
CONTINUOUS
10
4.97527
20
-4.13695
11
4.98089
21
-4.15945
0
LINE
8
BLACK
6
CONTINUOUS
10
4.98089
20
-4.15945
11
4.98089
21
-4.18757
0
LINE
8
BLACK
6
CONTINUOUS
10
4.98089
20
-4.18757
11
4.97527
21
-4.21007
0
LINE
8
BLACK
6
CONTINUOUS
10
4.97527
20
-4.21007
11
4.96964
21
-4.22132
0
LINE
8
BLACK
6
CONTINUOUS
10
4.96964
20
-4.22132
11
4.96402
21
-4.22694
0
LINE
8
BLACK
6
CONTINUOUS
10
4.96402
20
-4.22694
11
4.95277
21
-4.23256
0
LINE
8
BLACK
6
CONTINUOUS
10
4.95277
20
-4.23256
11
4.94152
21
-4.23256
0
LINE
8
BLACK
6
CONTINUOUS
10
4.94152
20
-4.23256
11
4.93027
21
-4.22694
0
LINE
8
BLACK
6
CONTINUOUS
10
4.93027
20
-4.22694
11
4.92465
21
-4.22132
0
LINE
8
BLACK
6
CONTINUOUS
10
4.92465
20
-4.22132
11
4.91902
21
-4.21007
0
LINE
8
BLACK
6
CONTINUOUS
10
4.91902
20
-4.21007
11
4.9134
21
-4.18757
0
LINE
8
BLACK
6
CONTINUOUS
10
4.9134
20
-4.18757
11
4.9134
21
-4.15945
0
LINE
8
BLACK
6
CONTINUOUS
10
4.9134
20
-4.15945
11
4.91902
21
-4.13695
0
LINE
8
BLACK
6
CONTINUOUS
10
4.91902
20
-4.13695
11
4.92465
21
-4.1257
0
LINE
8
BLACK
6
CONTINUOUS
10
4.92465
20
-4.1257
11
4.93027
21
-4.12008
0
LINE
8
BLACK
6
CONTINUOUS
10
4.93027
20
-4.12008
11
4.94152
21
-4.11445
0
LINE
8
BLACK
6
CONTINUOUS
10
5.03151
20
-4.22132
11
5.03713
21
-4.22694
0
LINE
8
BLACK
6
CONTINUOUS
10
5.03713
20
-4.22694
11
5.03151
21
-4.23256
0
LINE
8
BLACK
6
CONTINUOUS
10
5.03151
20
-4.23256
11
5.02588
21
-4.22694
0
LINE
8
BLACK
6
CONTINUOUS
10
5.02588
20
-4.22694
11
5.03151
21
-4.22132
0
LINE
8
BLACK
6
CONTINUOUS
10
5.03151
20
-4.22132
11
5.03151
21
-4.23256
0
LINE
8
BLACK
6
CONTINUOUS
10
5.11025
20
-4.11445
11
5.1215
21
-4.11445
0
LINE
8
BLACK
6
CONTINUOUS
10
5.1215
20
-4.11445
11
5.13275
21
-4.12008
0
LINE
8
BLACK
6
CONTINUOUS
10
5.13275
20
-4.12008
11
5.13837
21
-4.1257
0
LINE
8
BLACK
6
CONTINUOUS
10
5.13837
20
-4.1257
11
5.14399
21
-4.13695
0
LINE
8
BLACK
6
CONTINUOUS
10
5.14399
20
-4.13695
11
5.14962
21
-4.15945
0
LINE
8
BLACK
6
CONTINUOUS
10
5.14962
20
-4.15945
11
5.14962
21
-4.18757
0
LINE
8
BLACK
6
CONTINUOUS
10
5.14962
20
-4.18757
11
5.14399
21
-4.21007
0
LINE
8
BLACK
6
CONTINUOUS
10
5.14399
20
-4.21007
11
5.13837
21
-4.22132
0
LINE
8
BLACK
6
CONTINUOUS
10
5.13837
20
-4.22132
11
5.13275
21
-4.22694
0
LINE
8
BLACK
6
CONTINUOUS
10
5.13275
20
-4.22694
11
5.1215
21
-4.23256
0
LINE
8
BLACK
6
CONTINUOUS
10
5.1215
20
-4.23256
11
5.11025
21
-4.23256
0
LINE
8
BLACK
6
CONTINUOUS
10
5.11025
20
-4.23256
11
5.099
21
-4.22694
0
LINE
8
BLACK
6
CONTINUOUS
10
5.099
20
-4.22694
11
5.09338
21
-4.22132
0
LINE
8
BLACK
6
CONTINUOUS
10
5.09338
20
-4.22132
11
5.08775
21
-4.21007
0
LINE
8
BLACK
6
CONTINUOUS
10
5.08775
20
-4.21007
11
5.08213
21
-4.18757
0
LINE
8
BLACK
6
CONTINUOUS
10
5.08213
20
-4.18757
11
5.08213
21
-4.15945
0
LINE
8
BLACK
6
CONTINUOUS
10
5.08213
20
-4.15945
11
5.08775
21
-4.13695
0
LINE
8
BLACK
6
CONTINUOUS
10
5.08775
20
-4.13695
11
5.09338
21
-4.1257
0
LINE
8
BLACK
6
CONTINUOUS
10
5.09338
20
-4.1257
11
5.099
21
-4.12008
0
LINE
8
BLACK
6
CONTINUOUS
10
5.099
20
-4.12008
11
5.11025
21
-4.11445
0
LINE
8
BLACK
6
CONTINUOUS
10
5.19461
20
-4.1257
11
5.20024
21
-4.12008
0
LINE
8
BLACK
6
CONTINUOUS
10
5.20024
20
-4.12008
11
5.21149
21
-4.11445
0
LINE
8
BLACK
6
CONTINUOUS
10
5.21149
20
-4.11445
11
5.23961
21
-4.11445
0
LINE
8
BLACK
6
CONTINUOUS
10
5.23961
20
-4.11445
11
5.25086
21
-4.12008
0
LINE
8
BLACK
6
CONTINUOUS
10
5.25086
20
-4.12008
11
5.25648
21
-4.1257
0
LINE
8
BLACK
6
CONTINUOUS
10
5.25648
20
-4.1257
11
5.2621
21
-4.13695
0
LINE
8
BLACK
6
CONTINUOUS
10
5.2621
20
-4.13695
11
5.2621
21
-4.1482
0
LINE
8
BLACK
6
CONTINUOUS
10
5.2621
20
-4.1482
11
5.25648
21
-4.16507
0
LINE
8
BLACK
6
CONTINUOUS
10
5.25648
20
-4.16507
11
5.18899
21
-4.23256
0
LINE
8
BLACK
6
CONTINUOUS
10
5.18899
20
-4.23256
11
5.2621
21
-4.23256
0
LINE
8
BLACK
6
CONTINUOUS
10
5.36334
20
-4.15382
11
5.36334
21
-4.23256
0
LINE
8
BLACK
6
CONTINUOUS
10
5.33522
20
-4.10883
11
5.3071
21
-4.19319
0
LINE
8
BLACK
6
CONTINUOUS
10
5.3071
20
-4.19319
11
5.38021
21
-4.19319
0
LINE
8
BLACK
6
CONTINUOUS
10
5.41958
20
-4.11445
11
5.41958
21
-4.13695
0
LINE
8
BLACK
6
CONTINUOUS
10
5.46458
20
-4.11445
11
5.46458
21
-4.13695
0
LINE
8
BLACK
6
CONTINUOUS
10
5.63893
20
-4.27756
11
5.63331
21
-4.27193
0
LINE
8
BLACK
6
CONTINUOUS
10
5.63331
20
-4.27193
11
5.62206
21
-4.25506
0
LINE
8
BLACK
6
CONTINUOUS
10
5.62206
20
-4.25506
11
5.61644
21
-4.24381
0
LINE
8
BLACK
6
CONTINUOUS
10
5.61644
20
-4.24381
11
5.61081
21
-4.22694
0
LINE
8
BLACK
6
CONTINUOUS
10
5.61081
20
-4.22694
11
5.60519
21
-4.19882
0
LINE
8
BLACK
6
CONTINUOUS
10
5.60519
20
-4.19882
11
5.60519
21
-4.17632
0
LINE
8
BLACK
6
CONTINUOUS
10
5.60519
20
-4.17632
11
5.61081
21
-4.1482
0
LINE
8
BLACK
6
CONTINUOUS
10
5.61081
20
-4.1482
11
5.61644
21
-4.13133
0
LINE
8
BLACK
6
CONTINUOUS
10
5.61644
20
-4.13133
11
5.62206
21
-4.12008
0
LINE
8
BLACK
6
CONTINUOUS
10
5.62206
20
-4.12008
11
5.63331
21
-4.10321
0
LINE
8
BLACK
6
CONTINUOUS
10
5.63331
20
-4.10321
11
5.63893
21
-4.09758
0
LINE
8
BLACK
6
CONTINUOUS
10
5.70642
20
-4.11445
11
5.71767
21
-4.11445
0
LINE
8
BLACK
6
CONTINUOUS
10
5.71767
20
-4.11445
11
5.72892
21
-4.12008
0
LINE
8
BLACK
6
CONTINUOUS
10
5.72892
20
-4.12008
11
5.73455
21
-4.1257
0
LINE
8
BLACK
6
CONTINUOUS
10
5.73455
20
-4.1257
11
5.74017
21
-4.13695
0
LINE
8
BLACK
6
CONTINUOUS
10
5.74017
20
-4.13695
11
5.74579
21
-4.15945
0
LINE
8
BLACK
6
CONTINUOUS
10
5.74579
20
-4.15945
11
5.74579
21
-4.18757
0
LINE
8
BLACK
6
CONTINUOUS
10
5.74579
20
-4.18757
11
5.74017
21
-4.21007
0
LINE
8
BLACK
6
CONTINUOUS
10
5.74017
20
-4.21007
11
5.73455
21
-4.22132
0
LINE
8
BLACK
6
CONTINUOUS
10
5.73455
20
-4.22132
11
5.72892
21
-4.22694
0
LINE
8
BLACK
6
CONTINUOUS
10
5.72892
20
-4.22694
11
5.71767
21
-4.23256
0
LINE
8
BLACK
6
CONTINUOUS
10
5.71767
20
-4.23256
11
5.70642
21
-4.23256
0
LINE
8
BLACK
6
CONTINUOUS
10
5.70642
20
-4.23256
11
5.69518
21
-4.22694
0
LINE
8
BLACK
6
CONTINUOUS
10
5.69518
20
-4.22694
11
5.68955
21
-4.22132
0
LINE
8
BLACK
6
CONTINUOUS
10
5.68955
20
-4.22132
11
5.68393
21
-4.21007
0
LINE
8
BLACK
6
CONTINUOUS
10
5.68393
20
-4.21007
11
5.6783
21
-4.18757
0
LINE
8
BLACK
6
CONTINUOUS
10
5.6783
20
-4.18757
11
5.6783
21
-4.15945
0
LINE
8
BLACK
6
CONTINUOUS
10
5.6783
20
-4.15945
11
5.68393
21
-4.13695
0
LINE
8
BLACK
6
CONTINUOUS
10
5.68393
20
-4.13695
11
5.68955
21
-4.1257
0
LINE
8
BLACK
6
CONTINUOUS
10
5.68955
20
-4.1257
11
5.69518
21
-4.12008
0
LINE
8
BLACK
6
CONTINUOUS
10
5.69518
20
-4.12008
11
5.70642
21
-4.11445
0
LINE
8
BLACK
6
CONTINUOUS
10
5.8864
20
-4.23256
11
5.8864
21
-4.11445
0
LINE
8
BLACK
6
CONTINUOUS
10
5.93702
20
-4.23256
11
5.93702
21
-4.1707
0
LINE
8
BLACK
6
CONTINUOUS
10
5.93702
20
-4.1707
11
5.9314
21
-4.15945
0
LINE
8
BLACK
6
CONTINUOUS
10
5.9314
20
-4.15945
11
5.92015
21
-4.15382
0
LINE
8
BLACK
6
CONTINUOUS
10
5.92015
20
-4.15382
11
5.90327
21
-4.15382
0
LINE
8
BLACK
6
CONTINUOUS
10
5.90327
20
-4.15382
11
5.89203
21
-4.15945
0
LINE
8
BLACK
6
CONTINUOUS
10
5.89203
20
-4.15945
11
5.8864
21
-4.16507
0
LINE
8
BLACK
6
CONTINUOUS
10
6.01014
20
-4.23256
11
5.99889
21
-4.22694
0
LINE
8
BLACK
6
CONTINUOUS
10
5.99889
20
-4.22694
11
5.99326
21
-4.22132
0
LINE
8
BLACK
6
CONTINUOUS
10
5.99326
20
-4.22132
11
5.98764
21
-4.21007
0
LINE
8
BLACK
6
CONTINUOUS
10
5.98764
20
-4.21007
11
5.98764
21
-4.17632
0
LINE
8
BLACK
6
CONTINUOUS
10
5.98764
20
-4.17632
11
5.99326
21
-4.16507
0
LINE
8
BLACK
6
CONTINUOUS
10
5.99326
20
-4.16507
11
5.99889
21
-4.15945
0
LINE
8
BLACK
6
CONTINUOUS
10
5.99889
20
-4.15945
11
6.01014
21
-4.15382
0
LINE
8
BLACK
6
CONTINUOUS
10
6.01014
20
-4.15382
11
6.02701
21
-4.15382
0
LINE
8
BLACK
6
CONTINUOUS
10
6.02701
20
-4.15382
11
6.03826
21
-4.15945
0
LINE
8
BLACK
6
CONTINUOUS
10
6.03826
20
-4.15945
11
6.04388
21
-4.16507
0
LINE
8
BLACK
6
CONTINUOUS
10
6.04388
20
-4.16507
11
6.04951
21
-4.17632
0
LINE
8
BLACK
6
CONTINUOUS
10
6.04951
20
-4.17632
11
6.04951
21
-4.21007
0
LINE
8
BLACK
6
CONTINUOUS
10
6.04951
20
-4.21007
11
6.04388
21
-4.22132
0
LINE
8
BLACK
6
CONTINUOUS
10
6.04388
20
-4.22132
11
6.03826
21
-4.22694
0
LINE
8
BLACK
6
CONTINUOUS
10
6.03826
20
-4.22694
11
6.02701
21
-4.23256
0
LINE
8
BLACK
6
CONTINUOUS
10
6.02701
20
-4.23256
11
6.01014
21
-4.23256
0
LINE
8
BLACK
6
CONTINUOUS
10
6.117
20
-4.23256
11
6.10575
21
-4.22694
0
LINE
8
BLACK
6
CONTINUOUS
10
6.10575
20
-4.22694
11
6.10012
21
-4.21569
0
LINE
8
BLACK
6
CONTINUOUS
10
6.10012
20
-4.21569
11
6.10012
21
-4.11445
0
LINE
8
BLACK
6
CONTINUOUS
10
6.20699
20
-4.22694
11
6.19574
21
-4.23256
0
LINE
8
BLACK
6
CONTINUOUS
10
6.19574
20
-4.23256
11
6.17324
21
-4.23256
0
LINE
8
BLACK
6
CONTINUOUS
10
6.17324
20
-4.23256
11
6.16199
21
-4.22694
0
LINE
8
BLACK
6
CONTINUOUS
10
6.16199
20
-4.22694
11
6.15637
21
-4.21569
0
LINE
8
BLACK
6
CONTINUOUS
10
6.15637
20
-4.21569
11
6.15637
21
-4.1707
0
LINE
8
BLACK
6
CONTINUOUS
10
6.15637
20
-4.1707
11
6.16199
21
-4.15945
0
LINE
8
BLACK
6
CONTINUOUS
10
6.16199
20
-4.15945
11
6.17324
21
-4.15382
0
LINE
8
BLACK
6
CONTINUOUS
10
6.17324
20
-4.15382
11
6.19574
21
-4.15382
0
LINE
8
BLACK
6
CONTINUOUS
10
6.19574
20
-4.15382
11
6.20699
21
-4.15945
0
LINE
8
BLACK
6
CONTINUOUS
10
6.20699
20
-4.15945
11
6.21261
21
-4.1707
0
LINE
8
BLACK
6
CONTINUOUS
10
6.21261
20
-4.1707
11
6.21261
21
-4.18195
0
LINE
8
BLACK
6
CONTINUOUS
10
6.21261
20
-4.18195
11
6.15637
21
-4.19319
0
LINE
8
BLACK
6
CONTINUOUS
10
6.25761
20
-4.22694
11
6.26885
21
-4.23256
0
LINE
8
BLACK
6
CONTINUOUS
10
6.26885
20
-4.23256
11
6.29135
21
-4.23256
0
LINE
8
BLACK
6
CONTINUOUS
10
6.29135
20
-4.23256
11
6.3026
21
-4.22694
0
LINE
8
BLACK
6
CONTINUOUS
10
6.3026
20
-4.22694
11
6.30822
21
-4.21569
0
LINE
8
BLACK
6
CONTINUOUS
10
6.30822
20
-4.21569
11
6.30822
21
-4.21007
0
LINE
8
BLACK
6
CONTINUOUS
10
6.30822
20
-4.21007
11
6.3026
21
-4.19882
0
LINE
8
BLACK
6
CONTINUOUS
10
6.3026
20
-4.19882
11
6.29135
21
-4.19319
0
LINE
8
BLACK
6
CONTINUOUS
10
6.29135
20
-4.19319
11
6.27448
21
-4.19319
0
LINE
8
BLACK
6
CONTINUOUS
10
6.27448
20
-4.19319
11
6.26323
21
-4.18757
0
LINE
8
BLACK
6
CONTINUOUS
10
6.26323
20
-4.18757
11
6.25761
21
-4.17632
0
LINE
8
BLACK
6
CONTINUOUS
10
6.25761
20
-4.17632
11
6.25761
21
-4.1707
0
LINE
8
BLACK
6
CONTINUOUS
10
6.25761
20
-4.1707
11
6.26323
21
-4.15945
0
LINE
8
BLACK
6
CONTINUOUS
10
6.26323
20
-4.15945
11
6.27448
21
-4.15382
0
LINE
8
BLACK
6
CONTINUOUS
10
6.27448
20
-4.15382
11
6.29135
21
-4.15382
0
LINE
8
BLACK
6
CONTINUOUS
10
6.29135
20
-4.15382
11
6.3026
21
-4.15945
0
LINE
8
BLACK
6
CONTINUOUS
10
6.44883
20
-4.18757
11
6.53882
21
-4.18757
0
LINE
8
BLACK
6
CONTINUOUS
10
6.49383
20
-4.23256
11
6.49383
21
-4.14258
0
LINE
8
BLACK
6
CONTINUOUS
10
6.73567
20
-4.11445
11
6.71317
21
-4.11445
0
LINE
8
BLACK
6
CONTINUOUS
10
6.71317
20
-4.11445
11
6.70192
21
-4.12008
0
LINE
8
BLACK
6
CONTINUOUS
10
6.70192
20
-4.12008
11
6.6963
21
-4.1257
0
LINE
8
BLACK
6
CONTINUOUS
10
6.6963
20
-4.1257
11
6.68505
21
-4.14258
0
LINE
8
BLACK
6
CONTINUOUS
10
6.68505
20
-4.14258
11
6.67943
21
-4.16507
0
LINE
8
BLACK
6
CONTINUOUS
10
6.67943
20
-4.16507
11
6.67943
21
-4.21007
0
LINE
8
BLACK
6
CONTINUOUS
10
6.67943
20
-4.21007
11
6.68505
21
-4.22132
0
LINE
8
BLACK
6
CONTINUOUS
10
6.68505
20
-4.22132
11
6.69068
21
-4.22694
0
LINE
8
BLACK
6
CONTINUOUS
10
6.69068
20
-4.22694
11
6.70192
21
-4.23256
0
LINE
8
BLACK
6
CONTINUOUS
10
6.70192
20
-4.23256
11
6.72442
21
-4.23256
0
LINE
8
BLACK
6
CONTINUOUS
10
6.72442
20
-4.23256
11
6.73567
21
-4.22694
0
LINE
8
BLACK
6
CONTINUOUS
10
6.73567
20
-4.22694
11
6.74129
21
-4.22132
0
LINE
8
BLACK
6
CONTINUOUS
10
6.74129
20
-4.22132
11
6.74692
21
-4.21007
0
LINE
8
BLACK
6
CONTINUOUS
10
6.74692
20
-4.21007
11
6.74692
21
-4.18195
0
LINE
8
BLACK
6
CONTINUOUS
10
6.74692
20
-4.18195
11
6.74129
21
-4.1707
0
LINE
8
BLACK
6
CONTINUOUS
10
6.74129
20
-4.1707
11
6.73567
21
-4.16507
0
LINE
8
BLACK
6
CONTINUOUS
10
6.73567
20
-4.16507
11
6.72442
21
-4.15945
0
LINE
8
BLACK
6
CONTINUOUS
10
6.72442
20
-4.15945
11
6.70192
21
-4.15945
0
LINE
8
BLACK
6
CONTINUOUS
10
6.70192
20
-4.15945
11
6.69068
21
-4.16507
0
LINE
8
BLACK
6
CONTINUOUS
10
6.69068
20
-4.16507
11
6.68505
21
-4.1707
0
LINE
8
BLACK
6
CONTINUOUS
10
6.68505
20
-4.1707
11
6.67943
21
-4.18195
0
LINE
8
BLACK
6
CONTINUOUS
10
6.8819
20
-4.22694
11
6.89315
21
-4.23256
0
LINE
8
BLACK
6
CONTINUOUS
10
6.89315
20
-4.23256
11
6.91565
21
-4.23256
0
LINE
8
BLACK
6
CONTINUOUS
10
6.91565
20
-4.23256
11
6.9269
21
-4.22694
0
LINE
8
BLACK
6
CONTINUOUS
10
6.9269
20
-4.22694
11
6.93252
21
-4.21569
0
LINE
8
BLACK
6
CONTINUOUS
10
6.93252
20
-4.21569
11
6.93252
21
-4.21007
0
LINE
8
BLACK
6
CONTINUOUS
10
6.93252
20
-4.21007
11
6.9269
21
-4.19882
0
LINE
8
BLACK
6
CONTINUOUS
10
6.9269
20
-4.19882
11
6.91565
21
-4.19319
0
LINE
8
BLACK
6
CONTINUOUS
10
6.91565
20
-4.19319
11
6.89877
21
-4.19319
0
LINE
8
BLACK
6
CONTINUOUS
10
6.89877
20
-4.19319
11
6.88753
21
-4.18757
0
LINE
8
BLACK
6
CONTINUOUS
10
6.88753
20
-4.18757
11
6.8819
21
-4.17632
0
LINE
8
BLACK
6
CONTINUOUS
10
6.8819
20
-4.17632
11
6.8819
21
-4.1707
0
LINE
8
BLACK
6
CONTINUOUS
10
6.8819
20
-4.1707
11
6.88753
21
-4.15945
0
LINE
8
BLACK
6
CONTINUOUS
10
6.88753
20
-4.15945
11
6.89877
21
-4.15382
0
LINE
8
BLACK
6
CONTINUOUS
10
6.89877
20
-4.15382
11
6.91565
21
-4.15382
0
LINE
8
BLACK
6
CONTINUOUS
10
6.91565
20
-4.15382
11
6.9269
21
-4.15945
0
LINE
8
BLACK
6
CONTINUOUS
10
7.00001
20
-4.23256
11
6.98876
21
-4.22694
0
LINE
8
BLACK
6
CONTINUOUS
10
6.98876
20
-4.22694
11
6.98314
21
-4.21569
0
LINE
8
BLACK
6
CONTINUOUS
10
6.98314
20
-4.21569
11
6.98314
21
-4.11445
0
LINE
8
BLACK
6
CONTINUOUS
10
7.06188
20
-4.23256
11
7.05063
21
-4.22694
0
LINE
8
BLACK
6
CONTINUOUS
10
7.05063
20
-4.22694
11
7.04501
21
-4.22132
0
LINE
8
BLACK
6
CONTINUOUS
10
7.04501
20
-4.22132
11
7.03938
21
-4.21007
0
LINE
8
BLACK
6
CONTINUOUS
10
7.03938
20
-4.21007
11
7.03938
21
-4.17632
0
LINE
8
BLACK
6
CONTINUOUS
10
7.03938
20
-4.17632
11
7.04501
21
-4.16507
0
LINE
8
BLACK
6
CONTINUOUS
10
7.04501
20
-4.16507
11
7.05063
21
-4.15945
0
LINE
8
BLACK
6
CONTINUOUS
10
7.05063
20
-4.15945
11
7.06188
21
-4.15382
0
LINE
8
BLACK
6
CONTINUOUS
10
7.06188
20
-4.15382
11
7.07875
21
-4.15382
0
LINE
8
BLACK
6
CONTINUOUS
10
7.07875
20
-4.15382
11
7.09
21
-4.15945
0
LINE
8
BLACK
6
CONTINUOUS
10
7.09
20
-4.15945
11
7.09563
21
-4.16507
0
LINE
8
BLACK
6
CONTINUOUS
10
7.09563
20
-4.16507
11
7.10125
21
-4.17632
0
LINE
8
BLACK
6
CONTINUOUS
10
7.10125
20
-4.17632
11
7.10125
21
-4.21007
0
LINE
8
BLACK
6
CONTINUOUS
10
7.10125
20
-4.21007
11
7.09563
21
-4.22132
0
LINE
8
BLACK
6
CONTINUOUS
10
7.09563
20
-4.22132
11
7.09
21
-4.22694
0
LINE
8
BLACK
6
CONTINUOUS
10
7.09
20
-4.22694
11
7.07875
21
-4.23256
0
LINE
8
BLACK
6
CONTINUOUS
10
7.07875
20
-4.23256
11
7.06188
21
-4.23256
0
LINE
8
BLACK
6
CONTINUOUS
10
7.135
20
-4.15382
11
7.17999
21
-4.15382
0
LINE
8
BLACK
6
CONTINUOUS
10
7.15187
20
-4.11445
11
7.15187
21
-4.21569
0
LINE
8
BLACK
6
CONTINUOUS
10
7.15187
20
-4.21569
11
7.15749
21
-4.22694
0
LINE
8
BLACK
6
CONTINUOUS
10
7.15749
20
-4.22694
11
7.16874
21
-4.23256
0
LINE
8
BLACK
6
CONTINUOUS
10
7.16874
20
-4.23256
11
7.17999
21
-4.23256
0
LINE
8
BLACK
6
CONTINUOUS
10
7.21374
20
-4.22694
11
7.22498
21
-4.23256
0
LINE
8
BLACK
6
CONTINUOUS
10
7.22498
20
-4.23256
11
7.24748
21
-4.23256
0
LINE
8
BLACK
6
CONTINUOUS
10
7.24748
20
-4.23256
11
7.25873
21
-4.22694
0
LINE
8
BLACK
6
CONTINUOUS
10
7.25873
20
-4.22694
11
7.26435
21
-4.21569
0
LINE
8
BLACK
6
CONTINUOUS
10
7.26435
20
-4.21569
11
7.26435
21
-4.21007
0
LINE
8
BLACK
6
CONTINUOUS
10
7.26435
20
-4.21007
11
7.25873
21
-4.19882
0
LINE
8
BLACK
6
CONTINUOUS
10
7.25873
20
-4.19882
11
7.24748
21
-4.19319
0
LINE
8
BLACK
6
CONTINUOUS
10
7.24748
20
-4.19319
11
7.23061
21
-4.19319
0
LINE
8
BLACK
6
CONTINUOUS
10
7.23061
20
-4.19319
11
7.21936
21
-4.18757
0
LINE
8
BLACK
6
CONTINUOUS
10
7.21936
20
-4.18757
11
7.21374
21
-4.17632
0
LINE
8
BLACK
6
CONTINUOUS
10
7.21374
20
-4.17632
11
7.21374
21
-4.1707
0
LINE
8
BLACK
6
CONTINUOUS
10
7.21374
20
-4.1707
11
7.21936
21
-4.15945
0
LINE
8
BLACK
6
CONTINUOUS
10
7.21936
20
-4.15945
11
7.23061
21
-4.15382
0
LINE
8
BLACK
6
CONTINUOUS
10
7.23061
20
-4.15382
11
7.24748
21
-4.15382
0
LINE
8
BLACK
6
CONTINUOUS
10
7.24748
20
-4.15382
11
7.25873
21
-4.15945
0
LINE
8
BLACK
6
CONTINUOUS
10
7.30372
20
-4.27756
11
7.30935
21
-4.27193
0
LINE
8
BLACK
6
CONTINUOUS
10
7.30935
20
-4.27193
11
7.3206
21
-4.25506
0
LINE
8
BLACK
6
CONTINUOUS
10
7.3206
20
-4.25506
11
7.32622
21
-4.24381
0
LINE
8
BLACK
6
CONTINUOUS
10
7.32622
20
-4.24381
11
7.33185
21
-4.22694
0
LINE
8
BLACK
6
CONTINUOUS
10
7.33185
20
-4.22694
11
7.33747
21
-4.19882
0
LINE
8
BLACK
6
CONTINUOUS
10
7.33747
20
-4.19882
11
7.33747
21
-4.17632
0
LINE
8
BLACK
6
CONTINUOUS
10
7.33747
20
-4.17632
11
7.33185
21
-4.1482
0
LINE
8
BLACK
6
CONTINUOUS
10
7.33185
20
-4.1482
11
7.32622
21
-4.13133
0
LINE
8
BLACK
6
CONTINUOUS
10
7.32622
20
-4.13133
11
7.3206
21
-4.12008
0
LINE
8
BLACK
6
CONTINUOUS
10
7.3206
20
-4.12008
11
7.30935
21
-4.10321
0
LINE
8
BLACK
6
CONTINUOUS
10
7.30935
20
-4.10321
11
7.30372
21
-4.09758
0
CIRCLE
8
BLACK
10
3.78138
20
-4.33504
40
0.0125
0
LINE
8
BLACK
6
CONTINUOUS
10
3.92915
20
-4.27036
11
3.94039
21
-4.27036
0
LINE
8
BLACK
6
CONTINUOUS
10
3.94039
20
-4.27036
11
3.95164
21
-4.27598
0
LINE
8
BLACK
6
CONTINUOUS
10
3.95164
20
-4.27598
11
3.95727
21
-4.28161
0
LINE
8
BLACK
6
CONTINUOUS
10
3.95727
20
-4.28161
11
3.96289
21
-4.29286
0
LINE
8
BLACK
6
CONTINUOUS
10
3.96289
20
-4.29286
11
3.96852
21
-4.31535
0
LINE
8
BLACK
6
CONTINUOUS
10
3.96852
20
-4.31535
11
3.96852
21
-4.34348
0
LINE
8
BLACK
6
CONTINUOUS
10
3.96852
20
-4.34348
11
3.96289
21
-4.36597
0
LINE
8
BLACK
6
CONTINUOUS
10
3.96289
20
-4.36597
11
3.95727
21
-4.37722
0
LINE
8
BLACK
6
CONTINUOUS
10
3.95727
20
-4.37722
11
3.95164
21
-4.38285
0
LINE
8
BLACK
6
CONTINUOUS
10
3.95164
20
-4.38285
11
3.94039
21
-4.38847
0
LINE
8
BLACK
6
CONTINUOUS
10
3.94039
20
-4.38847
11
3.92915
21
-4.38847
0
LINE
8
BLACK
6
CONTINUOUS
10
3.92915
20
-4.38847
11
3.9179
21
-4.38285
0
LINE
8
BLACK
6
CONTINUOUS
10
3.9179
20
-4.38285
11
3.91227
21
-4.37722
0
LINE
8
BLACK
6
CONTINUOUS
10
3.91227
20
-4.37722
11
3.90665
21
-4.36597
0
LINE
8
BLACK
6
CONTINUOUS
10
3.90665
20
-4.36597
11
3.90102
21
-4.34348
0
LINE
8
BLACK
6
CONTINUOUS
10
3.90102
20
-4.34348
11
3.90102
21
-4.31535
0
LINE
8
BLACK
6
CONTINUOUS
10
3.90102
20
-4.31535
11
3.90665
21
-4.29286
0
LINE
8
BLACK
6
CONTINUOUS
10
3.90665
20
-4.29286
11
3.91227
21
-4.28161
0
LINE
8
BLACK
6
CONTINUOUS
10
3.91227
20
-4.28161
11
3.9179
21
-4.27598
0
LINE
8
BLACK
6
CONTINUOUS
10
3.9179
20
-4.27598
11
3.92915
21
-4.27036
0
LINE
8
BLACK
6
CONTINUOUS
10
4.01913
20
-4.37722
11
4.02476
21
-4.38285
0
LINE
8
BLACK
6
CONTINUOUS
10
4.02476
20
-4.38285
11
4.01913
21
-4.38847
0
LINE
8
BLACK
6
CONTINUOUS
10
4.01913
20
-4.38847
11
4.01351
21
-4.38285
0
LINE
8
BLACK
6
CONTINUOUS
10
4.01351
20
-4.38285
11
4.01913
21
-4.37722
0
LINE
8
BLACK
6
CONTINUOUS
10
4.01913
20
-4.37722
11
4.01913
21
-4.38847
0
LINE
8
BLACK
6
CONTINUOUS
10
4.126
20
-4.27036
11
4.1035
21
-4.27036
0
LINE
8
BLACK
6
CONTINUOUS
10
4.1035
20
-4.27036
11
4.09225
21
-4.27598
0
LINE
8
BLACK
6
CONTINUOUS
10
4.09225
20
-4.27598
11
4.08663
21
-4.28161
0
LINE
8
BLACK
6
CONTINUOUS
10
4.08663
20
-4.28161
11
4.07538
21
-4.29848
0
LINE
8
BLACK
6
CONTINUOUS
10
4.07538
20
-4.29848
11
4.06975
21
-4.32098
0
LINE
8
BLACK
6
CONTINUOUS
10
4.06975
20
-4.32098
11
4.06975
21
-4.36597
0
LINE
8
BLACK
6
CONTINUOUS
10
4.06975
20
-4.36597
11
4.07538
21
-4.37722
0
LINE
8
BLACK
6
CONTINUOUS
10
4.07538
20
-4.37722
11
4.081
21
-4.38285
0
LINE
8
BLACK
6
CONTINUOUS
10
4.081
20
-4.38285
11
4.09225
21
-4.38847
0
LINE
8
BLACK
6
CONTINUOUS
10
4.09225
20
-4.38847
11
4.11475
21
-4.38847
0
LINE
8
BLACK
6
CONTINUOUS
10
4.11475
20
-4.38847
11
4.126
21
-4.38285
0
LINE
8
BLACK
6
CONTINUOUS
10
4.126
20
-4.38285
11
4.13162
21
-4.37722
0
LINE
8
BLACK
6
CONTINUOUS
10
4.13162
20
-4.37722
11
4.13725
21
-4.36597
0
LINE
8
BLACK
6
CONTINUOUS
10
4.13725
20
-4.36597
11
4.13725
21
-4.33785
0
LINE
8
BLACK
6
CONTINUOUS
10
4.13725
20
-4.33785
11
4.13162
21
-4.3266
0
LINE
8
BLACK
6
CONTINUOUS
10
4.13162
20
-4.3266
11
4.126
21
-4.32098
0
LINE
8
BLACK
6
CONTINUOUS
10
4.126
20
-4.32098
11
4.11475
21
-4.31535
0
LINE
8
BLACK
6
CONTINUOUS
10
4.11475
20
-4.31535
11
4.09225
21
-4.31535
0
LINE
8
BLACK
6
CONTINUOUS
10
4.09225
20
-4.31535
11
4.081
21
-4.32098
0
LINE
8
BLACK
6
CONTINUOUS
10
4.081
20
-4.32098
11
4.07538
21
-4.3266
0
LINE
8
BLACK
6
CONTINUOUS
10
4.07538
20
-4.3266
11
4.06975
21
-4.33785
0
LINE
8
BLACK
6
CONTINUOUS
10
4.23848
20
-4.30973
11
4.23848
21
-4.38847
0
LINE
8
BLACK
6
CONTINUOUS
10
4.21036
20
-4.26474
11
4.18224
21
-4.3491
0
LINE
8
BLACK
6
CONTINUOUS
10
4.18224
20
-4.3491
11
4.25536
21
-4.3491
0
LINE
8
BLACK
6
CONTINUOUS
10
4.30035
20
-4.38847
11
4.30035
21
-4.30973
0
LINE
8
BLACK
6
CONTINUOUS
10
4.30035
20
-4.32098
11
4.30597
21
-4.31535
0
LINE
8
BLACK
6
CONTINUOUS
10
4.30597
20
-4.31535
11
4.31722
21
-4.30973
0
LINE
8
BLACK
6
CONTINUOUS
10
4.31722
20
-4.30973
11
4.3341
21
-4.30973
0
LINE
8
BLACK
6
CONTINUOUS
10
4.3341
20
-4.30973
11
4.34534
21
-4.31535
0
LINE
8
BLACK
6
CONTINUOUS
10
4.34534
20
-4.31535
11
4.35097
21
-4.3266
0
LINE
8
BLACK
6
CONTINUOUS
10
4.35097
20
-4.3266
11
4.35097
21
-4.38847
0
LINE
8
BLACK
6
CONTINUOUS
10
4.35097
20
-4.3266
11
4.35659
21
-4.31535
0
LINE
8
BLACK
6
CONTINUOUS
10
4.35659
20
-4.31535
11
4.36784
21
-4.30973
0
LINE
8
BLACK
6
CONTINUOUS
10
4.36784
20
-4.30973
11
4.38471
21
-4.30973
0
LINE
8
BLACK
6
CONTINUOUS
10
4.38471
20
-4.30973
11
4.39596
21
-4.31535
0
LINE
8
BLACK
6
CONTINUOUS
10
4.39596
20
-4.31535
11
4.40159
21
-4.3266
0
LINE
8
BLACK
6
CONTINUOUS
10
4.40159
20
-4.3266
11
4.40159
21
-4.38847
0
LINE
8
BLACK
6
CONTINUOUS
10
4.45783
20
-4.38847
11
4.45783
21
-4.30973
0
LINE
8
BLACK
6
CONTINUOUS
10
4.45783
20
-4.32098
11
4.46345
21
-4.31535
0
LINE
8
BLACK
6
CONTINUOUS
10
4.46345
20
-4.31535
11
4.4747
21
-4.30973
0
LINE
8
BLACK
6
CONTINUOUS
10
4.4747
20
-4.30973
11
4.49158
21
-4.30973
0
LINE
8
BLACK
6
CONTINUOUS
10
4.49158
20
-4.30973
11
4.50282
21
-4.31535
0
LINE
8
BLACK
6
CONTINUOUS
10
4.50282
20
-4.31535
11
4.50845
21
-4.3266
0
LINE
8
BLACK
6
CONTINUOUS
10
4.50845
20
-4.3266
11
4.50845
21
-4.38847
0
LINE
8
BLACK
6
CONTINUOUS
10
4.50845
20
-4.3266
11
4.51407
21
-4.31535
0
LINE
8
BLACK
6
CONTINUOUS
10
4.51407
20
-4.31535
11
4.52532
21
-4.30973
0
LINE
8
BLACK
6
CONTINUOUS
10
4.52532
20
-4.30973
11
4.54219
21
-4.30973
0
LINE
8
BLACK
6
CONTINUOUS
10
4.54219
20
-4.30973
11
4.55344
21
-4.31535
0
LINE
8
BLACK
6
CONTINUOUS
10
4.55344
20
-4.31535
11
4.55907
21
-4.3266
0
LINE
8
BLACK
6
CONTINUOUS
10
4.55907
20
-4.3266
11
4.55907
21
-4.38847
0
LINE
8
BLACK
6
CONTINUOUS
10
4.78966
20
-4.26474
11
4.68843
21
-4.41659
0
LINE
8
BLACK
6
CONTINUOUS
10
4.94152
20
-4.27036
11
4.95277
21
-4.27036
0
LINE
8
BLACK
6
CONTINUOUS
10
4.95277
20
-4.27036
11
4.96402
21
-4.27598
0
LINE
8
BLACK
6
CONTINUOUS
10
4.96402
20
-4.27598
11
4.96964
21
-4.28161
0
LINE
8
BLACK
6
CONTINUOUS
10
4.96964
20
-4.28161
11
4.97527
21
-4.29286
0
LINE
8
BLACK
6
CONTINUOUS
10
4.97527
20
-4.29286
11
4.98089
21
-4.31535
0
LINE
8
BLACK
6
CONTINUOUS
10
4.98089
20
-4.31535
11
4.98089
21
-4.34348
0
LINE
8
BLACK
6
CONTINUOUS
10
4.98089
20
-4.34348
11
4.97527
21
-4.36597
0
LINE
8
BLACK
6
CONTINUOUS
10
4.97527
20
-4.36597
11
4.96964
21
-4.37722
0
LINE
8
BLACK
6
CONTINUOUS
10
4.96964
20
-4.37722
11
4.96402
21
-4.38285
0
LINE
8
BLACK
6
CONTINUOUS
10
4.96402
20
-4.38285
11
4.95277
21
-4.38847
0
LINE
8
BLACK
6
CONTINUOUS
10
4.95277
20
-4.38847
11
4.94152
21
-4.38847
0
LINE
8
BLACK
6
CONTINUOUS
10
4.94152
20
-4.38847
11
4.93027
21
-4.38285
0
LINE
8
BLACK
6
CONTINUOUS
10
4.93027
20
-4.38285
11
4.92465
21
-4.37722
0
LINE
8
BLACK
6
CONTINUOUS
10
4.92465
20
-4.37722
11
4.91902
21
-4.36597
0
LINE
8
BLACK
6
CONTINUOUS
10
4.91902
20
-4.36597
11
4.9134
21
-4.34348
0
LINE
8
BLACK
6
CONTINUOUS
10
4.9134
20
-4.34348
11
4.9134
21
-4.31535
0
LINE
8
BLACK
6
CONTINUOUS
10
4.9134
20
-4.31535
11
4.91902
21
-4.29286
0
LINE
8
BLACK
6
CONTINUOUS
10
4.91902
20
-4.29286
11
4.92465
21
-4.28161
0
LINE
8
BLACK
6
CONTINUOUS
10
4.92465
20
-4.28161
11
4.93027
21
-4.27598
0
LINE
8
BLACK
6
CONTINUOUS
10
4.93027
20
-4.27598
11
4.94152
21
-4.27036
0
LINE
8
BLACK
6
CONTINUOUS
10
5.03151
20
-4.37722
11
5.03713
21
-4.38285
0
LINE
8
BLACK
6
CONTINUOUS
10
5.03713
20
-4.38285
11
5.03151
21
-4.38847
0
LINE
8
BLACK
6
CONTINUOUS
10
5.03151
20
-4.38847
11
5.02588
21
-4.38285
0
LINE
8
BLACK
6
CONTINUOUS
10
5.02588
20
-4.38285
11
5.03151
21
-4.37722
0
LINE
8
BLACK
6
CONTINUOUS
10
5.03151
20
-4.37722
11
5.03151
21
-4.38847
0
LINE
8
BLACK
6
CONTINUOUS
10
5.11025
20
-4.27036
11
5.1215
21
-4.27036
0
LINE
8
BLACK
6
CONTINUOUS
10
5.1215
20
-4.27036
11
5.13275
21
-4.27598
0
LINE
8
BLACK
6
CONTINUOUS
10
5.13275
20
-4.27598
11
5.13837
21
-4.28161
0
LINE
8
BLACK
6
CONTINUOUS
10
5.13837
20
-4.28161
11
5.14399
21
-4.29286
0
LINE
8
BLACK
6
CONTINUOUS
10
5.14399
20
-4.29286
11
5.14962
21
-4.31535
0
LINE
8
BLACK
6
CONTINUOUS
10
5.14962
20
-4.31535
11
5.14962
21
-4.34348
0
LINE
8
BLACK
6
CONTINUOUS
10
5.14962
20
-4.34348
11
5.14399
21
-4.36597
0
LINE
8
BLACK
6
CONTINUOUS
10
5.14399
20
-4.36597
11
5.13837
21
-4.37722
0
LINE
8
BLACK
6
CONTINUOUS
10
5.13837
20
-4.37722
11
5.13275
21
-4.38285
0
LINE
8
BLACK
6
CONTINUOUS
10
5.13275
20
-4.38285
11
5.1215
21
-4.38847
0
LINE
8
BLACK
6
CONTINUOUS
10
5.1215
20
-4.38847
11
5.11025
21
-4.38847
0
LINE
8
BLACK
6
CONTINUOUS
10
5.11025
20
-4.38847
11
5.099
21
-4.38285
0
LINE
8
BLACK
6
CONTINUOUS
10
5.099
20
-4.38285
11
5.09338
21
-4.37722
0
LINE
8
BLACK
6
CONTINUOUS
10
5.09338
20
-4.37722
11
5.08775
21
-4.36597
0
LINE
8
BLACK
6
CONTINUOUS
10
5.08775
20
-4.36597
11
5.08213
21
-4.34348
0
LINE
8
BLACK
6
CONTINUOUS
10
5.08213
20
-4.34348
11
5.08213
21
-4.31535
0
LINE
8
BLACK
6
CONTINUOUS
10
5.08213
20
-4.31535
11
5.08775
21
-4.29286
0
LINE
8
BLACK
6
CONTINUOUS
10
5.08775
20
-4.29286
11
5.09338
21
-4.28161
0
LINE
8
BLACK
6
CONTINUOUS
10
5.09338
20
-4.28161
11
5.099
21
-4.27598
0
LINE
8
BLACK
6
CONTINUOUS
10
5.099
20
-4.27598
11
5.11025
21
-4.27036
0
LINE
8
BLACK
6
CONTINUOUS
10
5.19461
20
-4.28161
11
5.20024
21
-4.27598
0
LINE
8
BLACK
6
CONTINUOUS
10
5.20024
20
-4.27598
11
5.21149
21
-4.27036
0
LINE
8
BLACK
6
CONTINUOUS
10
5.21149
20
-4.27036
11
5.23961
21
-4.27036
0
LINE
8
BLACK
6
CONTINUOUS
10
5.23961
20
-4.27036
11
5.25086
21
-4.27598
0
LINE
8
BLACK
6
CONTINUOUS
10
5.25086
20
-4.27598
11
5.25648
21
-4.28161
0
LINE
8
BLACK
6
CONTINUOUS
10
5.25648
20
-4.28161
11
5.2621
21
-4.29286
0
LINE
8
BLACK
6
CONTINUOUS
10
5.2621
20
-4.29286
11
5.2621
21
-4.30411
0
LINE
8
BLACK
6
CONTINUOUS
10
5.2621
20
-4.30411
11
5.25648
21
-4.32098
0
LINE
8
BLACK
6
CONTINUOUS
10
5.25648
20
-4.32098
11
5.18899
21
-4.38847
0
LINE
8
BLACK
6
CONTINUOUS
10
5.18899
20
-4.38847
11
5.2621
21
-4.38847
0
LINE
8
BLACK
6
CONTINUOUS
10
5.36897
20
-4.27036
11
5.31272
21
-4.27036
0
LINE
8
BLACK
6
CONTINUOUS
10
5.31272
20
-4.27036
11
5.3071
21
-4.3266
0
LINE
8
BLACK
6
CONTINUOUS
10
5.3071
20
-4.3266
11
5.31272
21
-4.32098
0
LINE
8
BLACK
6
CONTINUOUS
10
5.31272
20
-4.32098
11
5.32397
21
-4.31535
0
LINE
8
BLACK
6
CONTINUOUS
10
5.32397
20
-4.31535
11
5.35209
21
-4.31535
0
LINE
8
BLACK
6
CONTINUOUS
10
5.35209
20
-4.31535
11
5.36334
21
-4.32098
0
LINE
8
BLACK
6
CONTINUOUS
10
5.36334
20
-4.32098
11
5.36897
21
-4.3266
0
LINE
8
BLACK
6
CONTINUOUS
10
5.36897
20
-4.3266
11
5.37459
21
-4.33785
0
LINE
8
BLACK
6
CONTINUOUS
10
5.37459
20
-4.33785
11
5.37459
21
-4.36597
0
LINE
8
BLACK
6
CONTINUOUS
10
5.37459
20
-4.36597
11
5.36897
21
-4.37722
0
LINE
8
BLACK
6
CONTINUOUS
10
5.36897
20
-4.37722
11
5.36334
21
-4.38285
0
LINE
8
BLACK
6
CONTINUOUS
10
5.36334
20
-4.38285
11
5.35209
21
-4.38847
0
LINE
8
BLACK
6
CONTINUOUS
10
5.35209
20
-4.38847
11
5.32397
21
-4.38847
0
LINE
8
BLACK
6
CONTINUOUS
10
5.32397
20
-4.38847
11
5.31272
21
-4.38285
0
LINE
8
BLACK
6
CONTINUOUS
10
5.31272
20
-4.38285
11
5.3071
21
-4.37722
0
LINE
8
BLACK
6
CONTINUOUS
10
5.41958
20
-4.27036
11
5.41958
21
-4.29286
0
LINE
8
BLACK
6
CONTINUOUS
10
5.46458
20
-4.27036
11
5.46458
21
-4.29286
0
LINE
8
BLACK
6
CONTINUOUS
10
5.63893
20
-4.43346
11
5.63331
21
-4.42784
0
LINE
8
BLACK
6
CONTINUOUS
10
5.63331
20
-4.42784
11
5.62206
21
-4.41097
0
LINE
8
BLACK
6
CONTINUOUS
10
5.62206
20
-4.41097
11
5.61644
21
-4.39972
0
LINE
8
BLACK
6
CONTINUOUS
10
5.61644
20
-4.39972
11
5.61081
21
-4.38285
0
LINE
8
BLACK
6
CONTINUOUS
10
5.61081
20
-4.38285
11
5.60519
21
-4.35472
0
LINE
8
BLACK
6
CONTINUOUS
10
5.60519
20
-4.35472
11
5.60519
21
-4.33223
0
LINE
8
BLACK
6
CONTINUOUS
10
5.60519
20
-4.33223
11
5.61081
21
-4.30411
0
LINE
8
BLACK
6
CONTINUOUS
10
5.61081
20
-4.30411
11
5.61644
21
-4.28723
0
LINE
8
BLACK
6
CONTINUOUS
10
5.61644
20
-4.28723
11
5.62206
21
-4.27598
0
LINE
8
BLACK
6
CONTINUOUS
10
5.62206
20
-4.27598
11
5.63331
21
-4.25911
0
LINE
8
BLACK
6
CONTINUOUS
10
5.63331
20
-4.25911
11
5.63893
21
-4.25349
0
LINE
8
BLACK
6
CONTINUOUS
10
5.73455
20
-4.30973
11
5.73455
21
-4.38847
0
LINE
8
BLACK
6
CONTINUOUS
10
5.70642
20
-4.26474
11
5.6783
21
-4.3491
0
LINE
8
BLACK
6
CONTINUOUS
10
5.6783
20
-4.3491
11
5.75142
21
-4.3491
0
LINE
8
BLACK
6
CONTINUOUS
10
5.84703
20
-4.30973
11
5.84703
21
-4.38847
0
LINE
8
BLACK
6
CONTINUOUS
10
5.81891
20
-4.26474
11
5.79079
21
-4.3491
0
LINE
8
BLACK
6
CONTINUOUS
10
5.79079
20
-4.3491
11
5.8639
21
-4.3491
0
LINE
8
BLACK
6
CONTINUOUS
10
5.99889
20
-4.38847
11
5.99889
21
-4.27036
0
LINE
8
BLACK
6
CONTINUOUS
10
6.04951
20
-4.38847
11
6.04951
21
-4.3266
0
LINE
8
BLACK
6
CONTINUOUS
10
6.04951
20
-4.3266
11
6.04388
21
-4.31535
0
LINE
8
BLACK
6
CONTINUOUS
10
6.04388
20
-4.31535
11
6.03263
21
-4.30973
0
LINE
8
BLACK
6
CONTINUOUS
10
6.03263
20
-4.30973
11
6.01576
21
-4.30973
0
LINE
8
BLACK
6
CONTINUOUS
10
6.01576
20
-4.30973
11
6.00451
21
-4.31535
0
LINE
8
BLACK
6
CONTINUOUS
10
6.00451
20
-4.31535
11
5.99889
21
-4.32098
0
LINE
8
BLACK
6
CONTINUOUS
10
6.12262
20
-4.38847
11
6.11137
21
-4.38285
0
LINE
8
BLACK
6
CONTINUOUS
10
6.11137
20
-4.38285
11
6.10575
21
-4.37722
0
LINE
8
BLACK
6
CONTINUOUS
10
6.10575
20
-4.37722
11
6.10012
21
-4.36597
0
LINE
8
BLACK
6
CONTINUOUS
10
6.10012
20
-4.36597
11
6.10012
21
-4.33223
0
LINE
8
BLACK
6
CONTINUOUS
10
6.10012
20
-4.33223
11
6.10575
21
-4.32098
0
LINE
8
BLACK
6
CONTINUOUS
10
6.10575
20
-4.32098
11
6.11137
21
-4.31535
0
LINE
8
BLACK
6
CONTINUOUS
10
6.11137
20
-4.31535
11
6.12262
21
-4.30973
0
LINE
8
BLACK
6
CONTINUOUS
10
6.12262
20
-4.30973
11
6.13949
21
-4.30973
0
LINE
8
BLACK
6
CONTINUOUS
10
6.13949
20
-4.30973
11
6.15074
21
-4.31535
0
LINE
8
BLACK
6
CONTINUOUS
10
6.15074
20
-4.31535
11
6.15637
21
-4.32098
0
LINE
8
BLACK
6
CONTINUOUS
10
6.15637
20
-4.32098
11
6.16199
21
-4.33223
0
LINE
8
BLACK
6
CONTINUOUS
10
6.16199
20
-4.33223
11
6.16199
21
-4.36597
0
LINE
8
BLACK
6
CONTINUOUS
10
6.16199
20
-4.36597
11
6.15637
21
-4.37722
0
LINE
8
BLACK
6
CONTINUOUS
10
6.15637
20
-4.37722
11
6.15074
21
-4.38285
0
LINE
8
BLACK
6
CONTINUOUS
10
6.15074
20
-4.38285
11
6.13949
21
-4.38847
0
LINE
8
BLACK
6
CONTINUOUS
10
6.13949
20
-4.38847
11
6.12262
21
-4.38847
0
LINE
8
BLACK
6
CONTINUOUS
10
6.22948
20
-4.38847
11
6.21824
21
-4.38285
0
LINE
8
BLACK
6
CONTINUOUS
10
6.21824
20
-4.38285
11
6.21261
21
-4.3716
0
LINE
8
BLACK
6
CONTINUOUS
10
6.21261
20
-4.3716
11
6.21261
21
-4.27036
0
LINE
8
BLACK
6
CONTINUOUS
10
6.31947
20
-4.38285
11
6.30822
21
-4.38847
0
LINE
8
BLACK
6
CONTINUOUS
10
6.30822
20
-4.38847
11
6.28573
21
-4.38847
0
LINE
8
BLACK
6
CONTINUOUS
10
6.28573
20
-4.38847
11
6.27448
21
-4.38285
0
LINE
8
BLACK
6
CONTINUOUS
10
6.27448
20
-4.38285
11
6.26885
21
-4.3716
0
LINE
8
BLACK
6
CONTINUOUS
10
6.26885
20
-4.3716
11
6.26885
21
-4.3266
0
LINE
8
BLACK
6
CONTINUOUS
10
6.26885
20
-4.3266
11
6.27448
21
-4.31535
0
LINE
8
BLACK
6
CONTINUOUS
10
6.27448
20
-4.31535
11
6.28573
21
-4.30973
0
LINE
8
BLACK
6
CONTINUOUS
10
6.28573
20
-4.30973
11
6.30822
21
-4.30973
0
LINE
8
BLACK
6
CONTINUOUS
10
6.30822
20
-4.30973
11
6.31947
21
-4.31535
0
LINE
8
BLACK
6
CONTINUOUS
10
6.31947
20
-4.31535
11
6.3251
21
-4.3266
0
LINE
8
BLACK
6
CONTINUOUS
10
6.3251
20
-4.3266
11
6.3251
21
-4.33785
0
LINE
8
BLACK
6
CONTINUOUS
10
6.3251
20
-4.33785
11
6.26885
21
-4.3491
0
LINE
8
BLACK
6
CONTINUOUS
10
6.37009
20
-4.38285
11
6.38134
21
-4.38847
0
LINE
8
BLACK
6
CONTINUOUS
10
6.38134
20
-4.38847
11
6.40384
21
-4.38847
0
LINE
8
BLACK
6
CONTINUOUS
10
6.40384
20
-4.38847
11
6.41509
21
-4.38285
0
LINE
8
BLACK
6
CONTINUOUS
10
6.41509
20
-4.38285
11
6.42071
21
-4.3716
0
LINE
8
BLACK
6
CONTINUOUS
10
6.42071
20
-4.3716
11
6.42071
21
-4.36597
0
LINE
8
BLACK
6
CONTINUOUS
10
6.42071
20
-4.36597
11
6.41509
21
-4.35472
0
LINE
8
BLACK
6
CONTINUOUS
10
6.41509
20
-4.35472
11
6.40384
21
-4.3491
0
LINE
8
BLACK
6
CONTINUOUS
10
6.40384
20
-4.3491
11
6.38696
21
-4.3491
0
LINE
8
BLACK
6
CONTINUOUS
10
6.38696
20
-4.3491
11
6.37572
21
-4.34348
0
LINE
8
BLACK
6
CONTINUOUS
10
6.37572
20
-4.34348
11
6.37009
21
-4.33223
0
LINE
8
BLACK
6
CONTINUOUS
10
6.37009
20
-4.33223
11
6.37009
21
-4.3266
0
LINE
8
BLACK
6
CONTINUOUS
10
6.37009
20
-4.3266
11
6.37572
21
-4.31535
0
LINE
8
BLACK
6
CONTINUOUS
10
6.37572
20
-4.31535
11
6.38696
21
-4.30973
0
LINE
8
BLACK
6
CONTINUOUS
10
6.38696
20
-4.30973
11
6.40384
21
-4.30973
0
LINE
8
BLACK
6
CONTINUOUS
10
6.40384
20
-4.30973
11
6.41509
21
-4.31535
0
LINE
8
BLACK
6
CONTINUOUS
10
6.46008
20
-4.43346
11
6.4657
21
-4.42784
0
LINE
8
BLACK
6
CONTINUOUS
10
6.4657
20
-4.42784
11
6.47695
21
-4.41097
0
LINE
8
BLACK
6
CONTINUOUS
10
6.47695
20
-4.41097
11
6.48258
21
-4.39972
0
LINE
8
BLACK
6
CONTINUOUS
10
6.48258
20
-4.39972
11
6.4882
21
-4.38285
0
LINE
8
BLACK
6
CONTINUOUS
10
6.4882
20
-4.38285
11
6.49383
21
-4.35472
0
LINE
8
BLACK
6
CONTINUOUS
10
6.49383
20
-4.35472
11
6.49383
21
-4.33223
0
LINE
8
BLACK
6
CONTINUOUS
10
6.49383
20
-4.33223
11
6.4882
21
-4.30411
0
LINE
8
BLACK
6
CONTINUOUS
10
6.4882
20
-4.30411
11
6.48258
21
-4.28723
0
LINE
8
BLACK
6
CONTINUOUS
10
6.48258
20
-4.28723
11
6.47695
21
-4.27598
0
LINE
8
BLACK
6
CONTINUOUS
10
6.47695
20
-4.27598
11
6.4657
21
-4.25911
0
LINE
8
BLACK
6
CONTINUOUS
10
6.4657
20
-4.25911
11
6.46008
21
-4.25349
0
LINE
8
BLACK
6
CONTINUOUS
10
3.77813
20
-4.4752
11
3.77813
21
-4.50669
0
LINE
8
BLACK
6
CONTINUOUS
10
3.76239
20
-4.49094
11
3.79388
21
-4.49094
0
LINE
8
BLACK
6
CONTINUOUS
10
3.92915
20
-4.42627
11
3.94039
21
-4.42627
0
LINE
8
BLACK
6
CONTINUOUS
10
3.94039
20
-4.42627
11
3.95164
21
-4.43189
0
LINE
8
BLACK
6
CONTINUOUS
10
3.95164
20
-4.43189
11
3.95727
21
-4.43751
0
LINE
8
BLACK
6
CONTINUOUS
10
3.95727
20
-4.43751
11
3.96289
21
-4.44876
0
LINE
8
BLACK
6
CONTINUOUS
10
3.96289
20
-4.44876
11
3.96852
21
-4.47126
0
LINE
8
BLACK
6
CONTINUOUS
10
3.96852
20
-4.47126
11
3.96852
21
-4.49938
0
LINE
8
BLACK
6
CONTINUOUS
10
3.96852
20
-4.49938
11
3.96289
21
-4.52188
0
LINE
8
BLACK
6
CONTINUOUS
10
3.96289
20
-4.52188
11
3.95727
21
-4.53313
0
LINE
8
BLACK
6
CONTINUOUS
10
3.95727
20
-4.53313
11
3.95164
21
-4.53875
0
LINE
8
BLACK
6
CONTINUOUS
10
3.95164
20
-4.53875
11
3.94039
21
-4.54438
0
LINE
8
BLACK
6
CONTINUOUS
10
3.94039
20
-4.54438
11
3.92915
21
-4.54438
0
LINE
8
BLACK
6
CONTINUOUS
10
3.92915
20
-4.54438
11
3.9179
21
-4.53875
0
LINE
8
BLACK
6
CONTINUOUS
10
3.9179
20
-4.53875
11
3.91227
21
-4.53313
0
LINE
8
BLACK
6
CONTINUOUS
10
3.91227
20
-4.53313
11
3.90665
21
-4.52188
0
LINE
8
BLACK
6
CONTINUOUS
10
3.90665
20
-4.52188
11
3.90102
21
-4.49938
0
LINE
8
BLACK
6
CONTINUOUS
10
3.90102
20
-4.49938
11
3.90102
21
-4.47126
0
LINE
8
BLACK
6
CONTINUOUS
10
3.90102
20
-4.47126
11
3.90665
21
-4.44876
0
LINE
8
BLACK
6
CONTINUOUS
10
3.90665
20
-4.44876
11
3.91227
21
-4.43751
0
LINE
8
BLACK
6
CONTINUOUS
10
3.91227
20
-4.43751
11
3.9179
21
-4.43189
0
LINE
8
BLACK
6
CONTINUOUS
10
3.9179
20
-4.43189
11
3.92915
21
-4.42627
0
LINE
8
BLACK
6
CONTINUOUS
10
4.01913
20
-4.53313
11
4.02476
21
-4.53875
0
LINE
8
BLACK
6
CONTINUOUS
10
4.02476
20
-4.53875
11
4.01913
21
-4.54438
0
LINE
8
BLACK
6
CONTINUOUS
10
4.01913
20
-4.54438
11
4.01351
21
-4.53875
0
LINE
8
BLACK
6
CONTINUOUS
10
4.01351
20
-4.53875
11
4.01913
21
-4.53313
0
LINE
8
BLACK
6
CONTINUOUS
10
4.01913
20
-4.53313
11
4.01913
21
-4.54438
0
LINE
8
BLACK
6
CONTINUOUS
10
4.09225
20
-4.47688
11
4.081
21
-4.47126
0
LINE
8
BLACK
6
CONTINUOUS
10
4.081
20
-4.47126
11
4.07538
21
-4.46564
0
LINE
8
BLACK
6
CONTINUOUS
10
4.07538
20
-4.46564
11
4.06975
21
-4.45439
0
LINE
8
BLACK
6
CONTINUOUS
10
4.06975
20
-4.45439
11
4.06975
21
-4.44876
0
LINE
8
BLACK
6
CONTINUOUS
10
4.06975
20
-4.44876
11
4.07538
21
-4.43751
0
LINE
8
BLACK
6
CONTINUOUS
10
4.07538
20
-4.43751
11
4.081
21
-4.43189
0
LINE
8
BLACK
6
CONTINUOUS
10
4.081
20
-4.43189
11
4.09225
21
-4.42627
0
LINE
8
BLACK
6
CONTINUOUS
10
4.09225
20
-4.42627
11
4.11475
21
-4.42627
0
LINE
8
BLACK
6
CONTINUOUS
10
4.11475
20
-4.42627
11
4.126
21
-4.43189
0
LINE
8
BLACK
6
CONTINUOUS
10
4.126
20
-4.43189
11
4.13162
21
-4.43751
0
LINE
8
BLACK
6
CONTINUOUS
10
4.13162
20
-4.43751
11
4.13725
21
-4.44876
0
LINE
8
BLACK
6
CONTINUOUS
10
4.13725
20
-4.44876
11
4.13725
21
-4.45439
0
LINE
8
BLACK
6
CONTINUOUS
10
4.13725
20
-4.45439
11
4.13162
21
-4.46564
0
LINE
8
BLACK
6
CONTINUOUS
10
4.13162
20
-4.46564
11
4.126
21
-4.47126
0
LINE
8
BLACK
6
CONTINUOUS
10
4.126
20
-4.47126
11
4.11475
21
-4.47688
0
LINE
8
BLACK
6
CONTINUOUS
10
4.11475
20
-4.47688
11
4.09225
21
-4.47688
0
LINE
8
BLACK
6
CONTINUOUS
10
4.09225
20
-4.47688
11
4.081
21
-4.48251
0
LINE
8
BLACK
6
CONTINUOUS
10
4.081
20
-4.48251
11
4.07538
21
-4.48813
0
LINE
8
BLACK
6
CONTINUOUS
10
4.07538
20
-4.48813
11
4.06975
21
-4.49938
0
LINE
8
BLACK
6
CONTINUOUS
10
4.06975
20
-4.49938
11
4.06975
21
-4.52188
0
LINE
8
BLACK
6
CONTINUOUS
10
4.06975
20
-4.52188
11
4.07538
21
-4.53313
0
LINE
8
BLACK
6
CONTINUOUS
10
4.07538
20
-4.53313
11
4.081
21
-4.53875
0
LINE
8
BLACK
6
CONTINUOUS
10
4.081
20
-4.53875
11
4.09225
21
-4.54438
0
LINE
8
BLACK
6
CONTINUOUS
10
4.09225
20
-4.54438
11
4.11475
21
-4.54438
0
LINE
8
BLACK
6
CONTINUOUS
10
4.11475
20
-4.54438
11
4.126
21
-4.53875
0
LINE
8
BLACK
6
CONTINUOUS
10
4.126
20
-4.53875
11
4.13162
21
-4.53313
0
LINE
8
BLACK
6
CONTINUOUS
10
4.13162
20
-4.53313
11
4.13725
21
-4.52188
0
LINE
8
BLACK
6
CONTINUOUS
10
4.13725
20
-4.52188
11
4.13725
21
-4.49938
0
LINE
8
BLACK
6
CONTINUOUS
10
4.13725
20
-4.49938
11
4.13162
21
-4.48813
0
LINE
8
BLACK
6
CONTINUOUS
10
4.13162
20
-4.48813
11
4.126
21
-4.48251
0
LINE
8
BLACK
6
CONTINUOUS
10
4.126
20
-4.48251
11
4.11475
21
-4.47688
0
LINE
8
BLACK
6
CONTINUOUS
10
4.21036
20
-4.42627
11
4.22161
21
-4.42627
0
LINE
8
BLACK
6
CONTINUOUS
10
4.22161
20
-4.42627
11
4.23286
21
-4.43189
0
LINE
8
BLACK
6
CONTINUOUS
10
4.23286
20
-4.43189
11
4.23848
21
-4.43751
0
LINE
8
BLACK
6
CONTINUOUS
10
4.23848
20
-4.43751
11
4.24411
21
-4.44876
0
LINE
8
BLACK
6
CONTINUOUS
10
4.24411
20
-4.44876
11
4.24973
21
-4.47126
0
LINE
8
BLACK
6
CONTINUOUS
10
4.24973
20
-4.47126
11
4.24973
21
-4.49938
0
LINE
8
BLACK
6
CONTINUOUS
10
4.24973
20
-4.49938
11
4.24411
21
-4.52188
0
LINE
8
BLACK
6
CONTINUOUS
10
4.24411
20
-4.52188
11
4.23848
21
-4.53313
0
LINE
8
BLACK
6
CONTINUOUS
10
4.23848
20
-4.53313
11
4.23286
21
-4.53875
0
LINE
8
BLACK
6
CONTINUOUS
10
4.23286
20
-4.53875
11
4.22161
21
-4.54438
0
LINE
8
BLACK
6
CONTINUOUS
10
4.22161
20
-4.54438
11
4.21036
21
-4.54438
0
LINE
8
BLACK
6
CONTINUOUS
10
4.21036
20
-4.54438
11
4.19911
21
-4.53875
0
LINE
8
BLACK
6
CONTINUOUS
10
4.19911
20
-4.53875
11
4.19349
21
-4.53313
0
LINE
8
BLACK
6
CONTINUOUS
10
4.19349
20
-4.53313
11
4.18786
21
-4.52188
0
LINE
8
BLACK
6
CONTINUOUS
10
4.18786
20
-4.52188
11
4.18224
21
-4.49938
0
LINE
8
BLACK
6
CONTINUOUS
10
4.18224
20
-4.49938
11
4.18224
21
-4.47126
0
LINE
8
BLACK
6
CONTINUOUS
10
4.18224
20
-4.47126
11
4.18786
21
-4.44876
0
LINE
8
BLACK
6
CONTINUOUS
10
4.18786
20
-4.44876
11
4.19349
21
-4.43751
0
LINE
8
BLACK
6
CONTINUOUS
10
4.19349
20
-4.43751
11
4.19911
21
-4.43189
0
LINE
8
BLACK
6
CONTINUOUS
10
4.19911
20
-4.43189
11
4.21036
21
-4.42627
0
LINE
8
BLACK
6
CONTINUOUS
10
4.30035
20
-4.54438
11
4.30035
21
-4.46564
0
LINE
8
BLACK
6
CONTINUOUS
10
4.30035
20
-4.47688
11
4.30597
21
-4.47126
0
LINE
8
BLACK
6
CONTINUOUS
10
4.30597
20
-4.47126
11
4.31722
21
-4.46564
0
LINE
8
BLACK
6
CONTINUOUS
10
4.31722
20
-4.46564
11
4.3341
21
-4.46564
0
LINE
8
BLACK
6
CONTINUOUS
10
4.3341
20
-4.46564
11
4.34534
21
-4.47126
0
LINE
8
BLACK
6
CONTINUOUS
10
4.34534
20
-4.47126
11
4.35097
21
-4.48251
0
LINE
8
BLACK
6
CONTINUOUS
10
4.35097
20
-4.48251
11
4.35097
21
-4.54438
0
LINE
8
BLACK
6
CONTINUOUS
10
4.35097
20
-4.48251
11
4.35659
21
-4.47126
0
LINE
8
BLACK
6
CONTINUOUS
10
4.35659
20
-4.47126
11
4.36784
21
-4.46564
0
LINE
8
BLACK
6
CONTINUOUS
10
4.36784
20
-4.46564
11
4.38471
21
-4.46564
0
LINE
8
BLACK
6
CONTINUOUS
10
4.38471
20
-4.46564
11
4.39596
21
-4.47126
0
LINE
8
BLACK
6
CONTINUOUS
10
4.39596
20
-4.47126
11
4.40159
21
-4.48251
0
LINE
8
BLACK
6
CONTINUOUS
10
4.40159
20
-4.48251
11
4.40159
21
-4.54438
0
LINE
8
BLACK
6
CONTINUOUS
10
4.45783
20
-4.54438
11
4.45783
21
-4.46564
0
LINE
8
BLACK
6
CONTINUOUS
10
4.45783
20
-4.47688
11
4.46345
21
-4.47126
0
LINE
8
BLACK
6
CONTINUOUS
10
4.46345
20
-4.47126
11
4.4747
21
-4.46564
0
LINE
8
BLACK
6
CONTINUOUS
10
4.4747
20
-4.46564
11
4.49158
21
-4.46564
0
LINE
8
BLACK
6
CONTINUOUS
10
4.49158
20
-4.46564
11
4.50282
21
-4.47126
0
LINE
8
BLACK
6
CONTINUOUS
10
4.50282
20
-4.47126
11
4.50845
21
-4.48251
0
LINE
8
BLACK
6
CONTINUOUS
10
4.50845
20
-4.48251
11
4.50845
21
-4.54438
0
LINE
8
BLACK
6
CONTINUOUS
10
4.50845
20
-4.48251
11
4.51407
21
-4.47126
0
LINE
8
BLACK
6
CONTINUOUS
10
4.51407
20
-4.47126
11
4.52532
21
-4.46564
0
LINE
8
BLACK
6
CONTINUOUS
10
4.52532
20
-4.46564
11
4.54219
21
-4.46564
0
LINE
8
BLACK
6
CONTINUOUS
10
4.54219
20
-4.46564
11
4.55344
21
-4.47126
0
LINE
8
BLACK
6
CONTINUOUS
10
4.55344
20
-4.47126
11
4.55907
21
-4.48251
0
LINE
8
BLACK
6
CONTINUOUS
10
4.55907
20
-4.48251
11
4.55907
21
-4.54438
0
LINE
8
BLACK
6
CONTINUOUS
10
4.78966
20
-4.42064
11
4.68843
21
-4.5725
0
LINE
8
BLACK
6
CONTINUOUS
10
4.94152
20
-4.42627
11
4.95277
21
-4.42627
0
LINE
8
BLACK
6
CONTINUOUS
10
4.95277
20
-4.42627
11
4.96402
21
-4.43189
0
LINE
8
BLACK
6
CONTINUOUS
10
4.96402
20
-4.43189
11
4.96964
21
-4.43751
0
LINE
8
BLACK
6
CONTINUOUS
10
4.96964
20
-4.43751
11
4.97527
21
-4.44876
0
LINE
8
BLACK
6
CONTINUOUS
10
4.97527
20
-4.44876
11
4.98089
21
-4.47126
0
LINE
8
BLACK
6
CONTINUOUS
10
4.98089
20
-4.47126
11
4.98089
21
-4.49938
0
LINE
8
BLACK
6
CONTINUOUS
10
4.98089
20
-4.49938
11
4.97527
21
-4.52188
0
LINE
8
BLACK
6
CONTINUOUS
10
4.97527
20
-4.52188
11
4.96964
21
-4.53313
0
LINE
8
BLACK
6
CONTINUOUS
10
4.96964
20
-4.53313
11
4.96402
21
-4.53875
0
LINE
8
BLACK
6
CONTINUOUS
10
4.96402
20
-4.53875
11
4.95277
21
-4.54438
0
LINE
8
BLACK
6
CONTINUOUS
10
4.95277
20
-4.54438
11
4.94152
21
-4.54438
0
LINE
8
BLACK
6
CONTINUOUS
10
4.94152
20
-4.54438
11
4.93027
21
-4.53875
0
LINE
8
BLACK
6
CONTINUOUS
10
4.93027
20
-4.53875
11
4.92465
21
-4.53313
0
LINE
8
BLACK
6
CONTINUOUS
10
4.92465
20
-4.53313
11
4.91902
21
-4.52188
0
LINE
8
BLACK
6
CONTINUOUS
10
4.91902
20
-4.52188
11
4.9134
21
-4.49938
0
LINE
8
BLACK
6
CONTINUOUS
10
4.9134
20
-4.49938
11
4.9134
21
-4.47126
0
LINE
8
BLACK
6
CONTINUOUS
10
4.9134
20
-4.47126
11
4.91902
21
-4.44876
0
LINE
8
BLACK
6
CONTINUOUS
10
4.91902
20
-4.44876
11
4.92465
21
-4.43751
0
LINE
8
BLACK
6
CONTINUOUS
10
4.92465
20
-4.43751
11
4.93027
21
-4.43189
0
LINE
8
BLACK
6
CONTINUOUS
10
4.93027
20
-4.43189
11
4.94152
21
-4.42627
0
LINE
8
BLACK
6
CONTINUOUS
10
5.03151
20
-4.53313
11
5.03713
21
-4.53875
0
LINE
8
BLACK
6
CONTINUOUS
10
5.03713
20
-4.53875
11
5.03151
21
-4.54438
0
LINE
8
BLACK
6
CONTINUOUS
10
5.03151
20
-4.54438
11
5.02588
21
-4.53875
0
LINE
8
BLACK
6
CONTINUOUS
10
5.02588
20
-4.53875
11
5.03151
21
-4.53313
0
LINE
8
BLACK
6
CONTINUOUS
10
5.03151
20
-4.53313
11
5.03151
21
-4.54438
0
LINE
8
BLACK
6
CONTINUOUS
10
5.11025
20
-4.42627
11
5.1215
21
-4.42627
0
LINE
8
BLACK
6
CONTINUOUS
10
5.1215
20
-4.42627
11
5.13275
21
-4.43189
0
LINE
8
BLACK
6
CONTINUOUS
10
5.13275
20
-4.43189
11
5.13837
21
-4.43751
0
LINE
8
BLACK
6
CONTINUOUS
10
5.13837
20
-4.43751
11
5.14399
21
-4.44876
0
LINE
8
BLACK
6
CONTINUOUS
10
5.14399
20
-4.44876
11
5.14962
21
-4.47126
0
LINE
8
BLACK
6
CONTINUOUS
10
5.14962
20
-4.47126
11
5.14962
21
-4.49938
0
LINE
8
BLACK
6
CONTINUOUS
10
5.14962
20
-4.49938
11
5.14399
21
-4.52188
0
LINE
8
BLACK
6
CONTINUOUS
10
5.14399
20
-4.52188
11
5.13837
21
-4.53313
0
LINE
8
BLACK
6
CONTINUOUS
10
5.13837
20
-4.53313
11
5.13275
21
-4.53875
0
LINE
8
BLACK
6
CONTINUOUS
10
5.13275
20
-4.53875
11
5.1215
21
-4.54438
0
LINE
8
BLACK
6
CONTINUOUS
10
5.1215
20
-4.54438
11
5.11025
21
-4.54438
0
LINE
8
BLACK
6
CONTINUOUS
10
5.11025
20
-4.54438
11
5.099
21
-4.53875
0
LINE
8
BLACK
6
CONTINUOUS
10
5.099
20
-4.53875
11
5.09338
21
-4.53313
0
LINE
8
BLACK
6
CONTINUOUS
10
5.09338
20
-4.53313
11
5.08775
21
-4.52188
0
LINE
8
BLACK
6
CONTINUOUS
10
5.08775
20
-4.52188
11
5.08213
21
-4.49938
0
LINE
8
BLACK
6
CONTINUOUS
10
5.08213
20
-4.49938
11
5.08213
21
-4.47126
0
LINE
8
BLACK
6
CONTINUOUS
10
5.08213
20
-4.47126
11
5.08775
21
-4.44876
0
LINE
8
BLACK
6
CONTINUOUS
10
5.08775
20
-4.44876
11
5.09338
21
-4.43751
0
LINE
8
BLACK
6
CONTINUOUS
10
5.09338
20
-4.43751
11
5.099
21
-4.43189
0
LINE
8
BLACK
6
CONTINUOUS
10
5.099
20
-4.43189
11
5.11025
21
-4.42627
0
LINE
8
BLACK
6
CONTINUOUS
10
5.18899
20
-4.42627
11
5.2621
21
-4.42627
0
LINE
8
BLACK
6
CONTINUOUS
10
5.2621
20
-4.42627
11
5.22273
21
-4.47126
0
LINE
8
BLACK
6
CONTINUOUS
10
5.22273
20
-4.47126
11
5.23961
21
-4.47126
0
LINE
8
BLACK
6
CONTINUOUS
10
5.23961
20
-4.47126
11
5.25086
21
-4.47688
0
LINE
8
BLACK
6
CONTINUOUS
10
5.25086
20
-4.47688
11
5.25648
21
-4.48251
0
LINE
8
BLACK
6
CONTINUOUS
10
5.25648
20
-4.48251
11
5.2621
21
-4.49376
0
LINE
8
BLACK
6
CONTINUOUS
10
5.2621
20
-4.49376
11
5.2621
21
-4.52188
0
LINE
8
BLACK
6
CONTINUOUS
10
5.2621
20
-4.52188
11
5.25648
21
-4.53313
0
LINE
8
BLACK
6
CONTINUOUS
10
5.25648
20
-4.53313
11
5.25086
21
-4.53875
0
LINE
8
BLACK
6
CONTINUOUS
10
5.25086
20
-4.53875
11
5.23961
21
-4.54438
0
LINE
8
BLACK
6
CONTINUOUS
10
5.23961
20
-4.54438
11
5.20586
21
-4.54438
0
LINE
8
BLACK
6
CONTINUOUS
10
5.20586
20
-4.54438
11
5.19461
21
-4.53875
0
LINE
8
BLACK
6
CONTINUOUS
10
5.19461
20
-4.53875
11
5.18899
21
-4.53313
0
LINE
8
BLACK
6
CONTINUOUS
10
5.37459
20
-4.54438
11
5.3071
21
-4.54438
0
LINE
8
BLACK
6
CONTINUOUS
10
5.34084
20
-4.54438
11
5.34084
21
-4.42627
0
LINE
8
BLACK
6
CONTINUOUS
10
5.34084
20
-4.42627
11
5.3296
21
-4.44314
0
LINE
8
BLACK
6
CONTINUOUS
10
5.3296
20
-4.44314
11
5.31835
21
-4.45439
0
LINE
8
BLACK
6
CONTINUOUS
10
5.31835
20
-4.45439
11
5.3071
21
-4.46001
0
LINE
8
BLACK
6
CONTINUOUS
10
5.41958
20
-4.42627
11
5.41958
21
-4.44876
0
LINE
8
BLACK
6
CONTINUOUS
10
5.46458
20
-4.42627
11
5.46458
21
-4.44876
0
LINE
8
BLACK
6
CONTINUOUS
10
5.63893
20
-4.58937
11
5.63331
21
-4.58375
0
LINE
8
BLACK
6
CONTINUOUS
10
5.63331
20
-4.58375
11
5.62206
21
-4.56687
0
LINE
8
BLACK
6
CONTINUOUS
10
5.62206
20
-4.56687
11
5.61644
21
-4.55562
0
LINE
8
BLACK
6
CONTINUOUS
10
5.61644
20
-4.55562
11
5.61081
21
-4.53875
0
LINE
8
BLACK
6
CONTINUOUS
10
5.61081
20
-4.53875
11
5.60519
21
-4.51063
0
LINE
8
BLACK
6
CONTINUOUS
10
5.60519
20
-4.51063
11
5.60519
21
-4.48813
0
LINE
8
BLACK
6
CONTINUOUS
10
5.60519
20
-4.48813
11
5.61081
21
-4.46001
0
LINE
8
BLACK
6
CONTINUOUS
10
5.61081
20
-4.46001
11
5.61644
21
-4.44314
0
LINE
8
BLACK
6
CONTINUOUS
10
5.61644
20
-4.44314
11
5.62206
21
-4.43189
0
LINE
8
BLACK
6
CONTINUOUS
10
5.62206
20
-4.43189
11
5.63331
21
-4.41502
0
LINE
8
BLACK
6
CONTINUOUS
10
5.63331
20
-4.41502
11
5.63893
21
-4.40939
0
LINE
8
BLACK
6
CONTINUOUS
10
5.7008
20
-4.47688
11
5.68955
21
-4.47126
0
LINE
8
BLACK
6
CONTINUOUS
10
5.68955
20
-4.47126
11
5.68393
21
-4.46564
0
LINE
8
BLACK
6
CONTINUOUS
10
5.68393
20
-4.46564
11
5.6783
21
-4.45439
0
LINE
8
BLACK
6
CONTINUOUS
10
5.6783
20
-4.45439
11
5.6783
21
-4.44876
0
LINE
8
BLACK
6
CONTINUOUS
10
5.6783
20
-4.44876
11
5.68393
21
-4.43751
0
LINE
8
BLACK
6
CONTINUOUS
10
5.68393
20
-4.43751
11
5.68955
21
-4.43189
0
LINE
8
BLACK
6
CONTINUOUS
10
5.68955
20
-4.43189
11
5.7008
21
-4.42627
0
LINE
8
BLACK
6
CONTINUOUS
10
5.7008
20
-4.42627
11
5.7233
21
-4.42627
0
LINE
8
BLACK
6
CONTINUOUS
10
5.7233
20
-4.42627
11
5.73455
21
-4.43189
0
LINE
8
BLACK
6
CONTINUOUS
10
5.73455
20
-4.43189
11
5.74017
21
-4.43751
0
LINE
8
BLACK
6
CONTINUOUS
10
5.74017
20
-4.43751
11
5.74579
21
-4.44876
0
LINE
8
BLACK
6
CONTINUOUS
10
5.74579
20
-4.44876
11
5.74579
21
-4.45439
0
LINE
8
BLACK
6
CONTINUOUS
10
5.74579
20
-4.45439
11
5.74017
21
-4.46564
0
LINE
8
BLACK
6
CONTINUOUS
10
5.74017
20
-4.46564
11
5.73455
21
-4.47126
0
LINE
8
BLACK
6
CONTINUOUS
10
5.73455
20
-4.47126
11
5.7233
21
-4.47688
0
LINE
8
BLACK
6
CONTINUOUS
10
5.7233
20
-4.47688
11
5.7008
21
-4.47688
0
LINE
8
BLACK
6
CONTINUOUS
10
5.7008
20
-4.47688
11
5.68955
21
-4.48251
0
LINE
8
BLACK
6
CONTINUOUS
10
5.68955
20
-4.48251
11
5.68393
21
-4.48813
0
LINE
8
BLACK
6
CONTINUOUS
10
5.68393
20
-4.48813
11
5.6783
21
-4.49938
0
LINE
8
BLACK
6
CONTINUOUS
10
5.6783
20
-4.49938
11
5.6783
21
-4.52188
0
LINE
8
BLACK
6
CONTINUOUS
10
5.6783
20
-4.52188
11
5.68393
21
-4.53313
0
LINE
8
BLACK
6
CONTINUOUS
10
5.68393
20
-4.53313
11
5.68955
21
-4.53875
0
LINE
8
BLACK
6
CONTINUOUS
10
5.68955
20
-4.53875
11
5.7008
21
-4.54438
0
LINE
8
BLACK
6
CONTINUOUS
10
5.7008
20
-4.54438
11
5.7233
21
-4.54438
0
LINE
8
BLACK
6
CONTINUOUS
10
5.7233
20
-4.54438
11
5.73455
21
-4.53875
0
LINE
8
BLACK
6
CONTINUOUS
10
5.73455
20
-4.53875
11
5.74017
21
-4.53313
0
LINE
8
BLACK
6
CONTINUOUS
10
5.74017
20
-4.53313
11
5.74579
21
-4.52188
0
LINE
8
BLACK
6
CONTINUOUS
10
5.74579
20
-4.52188
11
5.74579
21
-4.49938
0
LINE
8
BLACK
6
CONTINUOUS
10
5.74579
20
-4.49938
11
5.74017
21
-4.48813
0
LINE
8
BLACK
6
CONTINUOUS
10
5.74017
20
-4.48813
11
5.73455
21
-4.48251
0
LINE
8
BLACK
6
CONTINUOUS
10
5.73455
20
-4.48251
11
5.7233
21
-4.47688
0
LINE
8
BLACK
6
CONTINUOUS
10
5.8864
20
-4.54438
11
5.8864
21
-4.42627
0
LINE
8
BLACK
6
CONTINUOUS
10
5.93702
20
-4.54438
11
5.93702
21
-4.48251
0
LINE
8
BLACK
6
CONTINUOUS
10
5.93702
20
-4.48251
11
5.9314
21
-4.47126
0
LINE
8
BLACK
6
CONTINUOUS
10
5.9314
20
-4.47126
11
5.92015
21
-4.46564
0
LINE
8
BLACK
6
CONTINUOUS
10
5.92015
20
-4.46564
11
5.90327
21
-4.46564
0
LINE
8
BLACK
6
CONTINUOUS
10
5.90327
20
-4.46564
11
5.89203
21
-4.47126
0
LINE
8
BLACK
6
CONTINUOUS
10
5.89203
20
-4.47126
11
5.8864
21
-4.47688
0
LINE
8
BLACK
6
CONTINUOUS
10
6.01014
20
-4.54438
11
5.99889
21
-4.53875
0
LINE
8
BLACK
6
CONTINUOUS
10
5.99889
20
-4.53875
11
5.99326
21
-4.53313
0
LINE
8
BLACK
6
CONTINUOUS
10
5.99326
20
-4.53313
11
5.98764
21
-4.52188
0
LINE
8
BLACK
6
CONTINUOUS
10
5.98764
20
-4.52188
11
5.98764
21
-4.48813
0
LINE
8
BLACK
6
CONTINUOUS
10
5.98764
20
-4.48813
11
5.99326
21
-4.47688
0
LINE
8
BLACK
6
CONTINUOUS
10
5.99326
20
-4.47688
11
5.99889
21
-4.47126
0
LINE
8
BLACK
6
CONTINUOUS
10
5.99889
20
-4.47126
11
6.01014
21
-4.46564
0
LINE
8
BLACK
6
CONTINUOUS
10
6.01014
20
-4.46564
11
6.02701
21
-4.46564
0
LINE
8
BLACK
6
CONTINUOUS
10
6.02701
20
-4.46564
11
6.03826
21
-4.47126
0
LINE
8
BLACK
6
CONTINUOUS
10
6.03826
20
-4.47126
11
6.04388
21
-4.47688
0
LINE
8
BLACK
6
CONTINUOUS
10
6.04388
20
-4.47688
11
6.04951
21
-4.48813
0
LINE
8
BLACK
6
CONTINUOUS
10
6.04951
20
-4.48813
11
6.04951
21
-4.52188
0
LINE
8
BLACK
6
CONTINUOUS
10
6.04951
20
-4.52188
11
6.04388
21
-4.53313
0
LINE
8
BLACK
6
CONTINUOUS
10
6.04388
20
-4.53313
11
6.03826
21
-4.53875
0
LINE
8
BLACK
6
CONTINUOUS
10
6.03826
20
-4.53875
11
6.02701
21
-4.54438
0
LINE
8
BLACK
6
CONTINUOUS
10
6.02701
20
-4.54438
11
6.01014
21
-4.54438
0
LINE
8
BLACK
6
CONTINUOUS
10
6.117
20
-4.54438
11
6.10575
21
-4.53875
0
LINE
8
BLACK
6
CONTINUOUS
10
6.10575
20
-4.53875
11
6.10012
21
-4.5275
0
LINE
8
BLACK
6
CONTINUOUS
10
6.10012
20
-4.5275
11
6.10012
21
-4.42627
0
LINE
8
BLACK
6
CONTINUOUS
10
6.20699
20
-4.53875
11
6.19574
21
-4.54438
0
LINE
8
BLACK
6
CONTINUOUS
10
6.19574
20
-4.54438
11
6.17324
21
-4.54438
0
LINE
8
BLACK
6
CONTINUOUS
10
6.17324
20
-4.54438
11
6.16199
21
-4.53875
0
LINE
8
BLACK
6
CONTINUOUS
10
6.16199
20
-4.53875
11
6.15637
21
-4.5275
0
LINE
8
BLACK
6
CONTINUOUS
10
6.15637
20
-4.5275
11
6.15637
21
-4.48251
0
LINE
8
BLACK
6
CONTINUOUS
10
6.15637
20
-4.48251
11
6.16199
21
-4.47126
0
LINE
8
BLACK
6
CONTINUOUS
10
6.16199
20
-4.47126
11
6.17324
21
-4.46564
0
LINE
8
BLACK
6
CONTINUOUS
10
6.17324
20
-4.46564
11
6.19574
21
-4.46564
0
LINE
8
BLACK
6
CONTINUOUS
10
6.19574
20
-4.46564
11
6.20699
21
-4.47126
0
LINE
8
BLACK
6
CONTINUOUS
10
6.20699
20
-4.47126
11
6.21261
21
-4.48251
0
LINE
8
BLACK
6
CONTINUOUS
10
6.21261
20
-4.48251
11
6.21261
21
-4.49376
0
LINE
8
BLACK
6
CONTINUOUS
10
6.21261
20
-4.49376
11
6.15637
21
-4.50501
0
LINE
8
BLACK
6
CONTINUOUS
10
6.25761
20
-4.53875
11
6.26885
21
-4.54438
0
LINE
8
BLACK
6
CONTINUOUS
10
6.26885
20
-4.54438
11
6.29135
21
-4.54438
0
LINE
8
BLACK
6
CONTINUOUS
10
6.29135
20
-4.54438
11
6.3026
21
-4.53875
0
LINE
8
BLACK
6
CONTINUOUS
10
6.3026
20
-4.53875
11
6.30822
21
-4.5275
0
LINE
8
BLACK
6
CONTINUOUS
10
6.30822
20
-4.5275
11
6.30822
21
-4.52188
0
LINE
8
BLACK
6
CONTINUOUS
10
6.30822
20
-4.52188
11
6.3026
21
-4.51063
0
LINE
8
BLACK
6
CONTINUOUS
10
6.3026
20
-4.51063
11
6.29135
21
-4.50501
0
LINE
8
BLACK
6
CONTINUOUS
10
6.29135
20
-4.50501
11
6.27448
21
-4.50501
0
LINE
8
BLACK
6
CONTINUOUS
10
6.27448
20
-4.50501
11
6.26323
21
-4.49938
0
LINE
8
BLACK
6
CONTINUOUS
10
6.26323
20
-4.49938
11
6.25761
21
-4.48813
0
LINE
8
BLACK
6
CONTINUOUS
10
6.25761
20
-4.48813
11
6.25761
21
-4.48251
0
LINE
8
BLACK
6
CONTINUOUS
10
6.25761
20
-4.48251
11
6.26323
21
-4.47126
0
LINE
8
BLACK
6
CONTINUOUS
10
6.26323
20
-4.47126
11
6.27448
21
-4.46564
0
LINE
8
BLACK
6
CONTINUOUS
10
6.27448
20
-4.46564
11
6.29135
21
-4.46564
0
LINE
8
BLACK
6
CONTINUOUS
10
6.29135
20
-4.46564
11
6.3026
21
-4.47126
0
LINE
8
BLACK
6
CONTINUOUS
10
6.34759
20
-4.58937
11
6.35322
21
-4.58375
0
LINE
8
BLACK
6
CONTINUOUS
10
6.35322
20
-4.58375
11
6.36447
21
-4.56687
0
LINE
8
BLACK
6
CONTINUOUS
10
6.36447
20
-4.56687
11
6.37009
21
-4.55562
0
LINE
8
BLACK
6
CONTINUOUS
10
6.37009
20
-4.55562
11
6.37572
21
-4.53875
0
LINE
8
BLACK
6
CONTINUOUS
10
6.37572
20
-4.53875
11
6.38134
21
-4.51063
0
LINE
8
BLACK
6
CONTINUOUS
10
6.38134
20
-4.51063
11
6.38134
21
-4.48813
0
LINE
8
BLACK
6
CONTINUOUS
10
6.38134
20
-4.48813
11
6.37572
21
-4.46001
0
LINE
8
BLACK
6
CONTINUOUS
10
6.37572
20
-4.46001
11
6.37009
21
-4.44314
0
LINE
8
BLACK
6
CONTINUOUS
10
6.37009
20
-4.44314
11
6.36447
21
-4.43189
0
LINE
8
BLACK
6
CONTINUOUS
10
6.36447
20
-4.43189
11
6.35322
21
-4.41502
0
LINE
8
BLACK
6
CONTINUOUS
10
6.35322
20
-4.41502
11
6.34759
21
-4.40939
0
LINE
8
BLACK
6
CONTINUOUS
10
3.78876
20
-4.65922
11
3.78876
21
-4.63448
0
LINE
8
BLACK
6
CONTINUOUS
10
3.78876
20
-4.63448
11
3.76401
21
-4.63448
0
LINE
8
BLACK
6
CONTINUOUS
10
3.76401
20
-4.63448
11
3.76401
21
-4.65922
0
LINE
8
BLACK
6
CONTINUOUS
10
3.76401
20
-4.65922
11
3.78876
21
-4.65922
0
LINE
8
BLACK
6
CONTINUOUS
10
3.92915
20
-4.58217
11
3.94039
21
-4.58217
0
LINE
8
BLACK
6
CONTINUOUS
10
3.94039
20
-4.58217
11
3.95164
21
-4.5878
0
LINE
8
BLACK
6
CONTINUOUS
10
3.95164
20
-4.5878
11
3.95727
21
-4.59342
0
LINE
8
BLACK
6
CONTINUOUS
10
3.95727
20
-4.59342
11
3.96289
21
-4.60467
0
LINE
8
BLACK
6
CONTINUOUS
10
3.96289
20
-4.60467
11
3.96852
21
-4.62717
0
LINE
8
BLACK
6
CONTINUOUS
10
3.96852
20
-4.62717
11
3.96852
21
-4.65529
0
LINE
8
BLACK
6
CONTINUOUS
10
3.96852
20
-4.65529
11
3.96289
21
-4.67778
0
LINE
8
BLACK
6
CONTINUOUS
10
3.96289
20
-4.67778
11
3.95727
21
-4.68903
0
LINE
8
BLACK
6
CONTINUOUS
10
3.95727
20
-4.68903
11
3.95164
21
-4.69466
0
LINE
8
BLACK
6
CONTINUOUS
10
3.95164
20
-4.69466
11
3.94039
21
-4.70028
0
LINE
8
BLACK
6
CONTINUOUS
10
3.94039
20
-4.70028
11
3.92915
21
-4.70028
0
LINE
8
BLACK
6
CONTINUOUS
10
3.92915
20
-4.70028
11
3.9179
21
-4.69466
0
LINE
8
BLACK
6
CONTINUOUS
10
3.9179
20
-4.69466
11
3.91227
21
-4.68903
0
LINE
8
BLACK
6
CONTINUOUS
10
3.91227
20
-4.68903
11
3.90665
21
-4.67778
0
LINE
8
BLACK
6
CONTINUOUS
10
3.90665
20
-4.67778
11
3.90102
21
-4.65529
0
LINE
8
BLACK
6
CONTINUOUS
10
3.90102
20
-4.65529
11
3.90102
21
-4.62717
0
LINE
8
BLACK
6
CONTINUOUS
10
3.90102
20
-4.62717
11
3.90665
21
-4.60467
0
LINE
8
BLACK
6
CONTINUOUS
10
3.90665
20
-4.60467
11
3.91227
21
-4.59342
0
LINE
8
BLACK
6
CONTINUOUS
10
3.91227
20
-4.59342
11
3.9179
21
-4.5878
0
LINE
8
BLACK
6
CONTINUOUS
10
3.9179
20
-4.5878
11
3.92915
21
-4.58217
0
LINE
8
BLACK
6
CONTINUOUS
10
4.01913
20
-4.68903
11
4.02476
21
-4.69466
0
LINE
8
BLACK
6
CONTINUOUS
10
4.02476
20
-4.69466
11
4.01913
21
-4.70028
0
LINE
8
BLACK
6
CONTINUOUS
10
4.01913
20
-4.70028
11
4.01351
21
-4.69466
0
LINE
8
BLACK
6
CONTINUOUS
10
4.01351
20
-4.69466
11
4.01913
21
-4.68903
0
LINE
8
BLACK
6
CONTINUOUS
10
4.01913
20
-4.68903
11
4.01913
21
-4.70028
0
LINE
8
BLACK
6
CONTINUOUS
10
4.09225
20
-4.63279
11
4.081
21
-4.62717
0
LINE
8
BLACK
6
CONTINUOUS
10
4.081
20
-4.62717
11
4.07538
21
-4.62154
0
LINE
8
BLACK
6
CONTINUOUS
10
4.07538
20
-4.62154
11
4.06975
21
-4.61029
0
LINE
8
BLACK
6
CONTINUOUS
10
4.06975
20
-4.61029
11
4.06975
21
-4.60467
0
LINE
8
BLACK
6
CONTINUOUS
10
4.06975
20
-4.60467
11
4.07538
21
-4.59342
0
LINE
8
BLACK
6
CONTINUOUS
10
4.07538
20
-4.59342
11
4.081
21
-4.5878
0
LINE
8
BLACK
6
CONTINUOUS
10
4.081
20
-4.5878
11
4.09225
21
-4.58217
0
LINE
8
BLACK
6
CONTINUOUS
10
4.09225
20
-4.58217
11
4.11475
21
-4.58217
0
LINE
8
BLACK
6
CONTINUOUS
10
4.11475
20
-4.58217
11
4.126
21
-4.5878
0
LINE
8
BLACK
6
CONTINUOUS
10
4.126
20
-4.5878
11
4.13162
21
-4.59342
0
LINE
8
BLACK
6
CONTINUOUS
10
4.13162
20
-4.59342
11
4.13725
21
-4.60467
0
LINE
8
BLACK
6
CONTINUOUS
10
4.13725
20
-4.60467
11
4.13725
21
-4.61029
0
LINE
8
BLACK
6
CONTINUOUS
10
4.13725
20
-4.61029
11
4.13162
21
-4.62154
0
LINE
8
BLACK
6
CONTINUOUS
10
4.13162
20
-4.62154
11
4.126
21
-4.62717
0
LINE
8
BLACK
6
CONTINUOUS
10
4.126
20
-4.62717
11
4.11475
21
-4.63279
0
LINE
8
BLACK
6
CONTINUOUS
10
4.11475
20
-4.63279
11
4.09225
21
-4.63279
0
LINE
8
BLACK
6
CONTINUOUS
10
4.09225
20
-4.63279
11
4.081
21
-4.63841
0
LINE
8
BLACK
6
CONTINUOUS
10
4.081
20
-4.63841
11
4.07538
21
-4.64404
0
LINE
8
BLACK
6
CONTINUOUS
10
4.07538
20
-4.64404
11
4.06975
21
-4.65529
0
LINE
8
BLACK
6
CONTINUOUS
10
4.06975
20
-4.65529
11
4.06975
21
-4.67778
0
LINE
8
BLACK
6
CONTINUOUS
10
4.06975
20
-4.67778
11
4.07538
21
-4.68903
0
LINE
8
BLACK
6
CONTINUOUS
10
4.07538
20
-4.68903
11
4.081
21
-4.69466
0
LINE
8
BLACK
6
CONTINUOUS
10
4.081
20
-4.69466
11
4.09225
21
-4.70028
0
LINE
8
BLACK
6
CONTINUOUS
10
4.09225
20
-4.70028
11
4.11475
21
-4.70028
0
LINE
8
BLACK
6
CONTINUOUS
10
4.11475
20
-4.70028
11
4.126
21
-4.69466
0
LINE
8
BLACK
6
CONTINUOUS
10
4.126
20
-4.69466
11
4.13162
21
-4.68903
0
LINE
8
BLACK
6
CONTINUOUS
10
4.13162
20
-4.68903
11
4.13725
21
-4.67778
0
LINE
8
BLACK
6
CONTINUOUS
10
4.13725
20
-4.67778
11
4.13725
21
-4.65529
0
LINE
8
BLACK
6
CONTINUOUS
10
4.13725
20
-4.65529
11
4.13162
21
-4.64404
0
LINE
8
BLACK
6
CONTINUOUS
10
4.13162
20
-4.64404
11
4.126
21
-4.63841
0
LINE
8
BLACK
6
CONTINUOUS
10
4.126
20
-4.63841
11
4.11475
21
-4.63279
0
LINE
8
BLACK
6
CONTINUOUS
10
4.19349
20
-4.70028
11
4.21599
21
-4.70028
0
LINE
8
BLACK
6
CONTINUOUS
10
4.21599
20
-4.70028
11
4.22723
21
-4.69466
0
LINE
8
BLACK
6
CONTINUOUS
10
4.22723
20
-4.69466
11
4.23286
21
-4.68903
0
LINE
8
BLACK
6
CONTINUOUS
10
4.23286
20
-4.68903
11
4.24411
21
-4.67216
0
LINE
8
BLACK
6
CONTINUOUS
10
4.24411
20
-4.67216
11
4.24973
21
-4.64966
0
LINE
8
BLACK
6
CONTINUOUS
10
4.24973
20
-4.64966
11
4.24973
21
-4.60467
0
LINE
8
BLACK
6
CONTINUOUS
10
4.24973
20
-4.60467
11
4.24411
21
-4.59342
0
LINE
8
BLACK
6
CONTINUOUS
10
4.24411
20
-4.59342
11
4.23848
21
-4.5878
0
LINE
8
BLACK
6
CONTINUOUS
10
4.23848
20
-4.5878
11
4.22723
21
-4.58217
0
LINE
8
BLACK
6
CONTINUOUS
10
4.22723
20
-4.58217
11
4.20474
21
-4.58217
0
LINE
8
BLACK
6
CONTINUOUS
10
4.20474
20
-4.58217
11
4.19349
21
-4.5878
0
LINE
8
BLACK
6
CONTINUOUS
10
4.19349
20
-4.5878
11
4.18786
21
-4.59342
0
LINE
8
BLACK
6
CONTINUOUS
10
4.18786
20
-4.59342
11
4.18224
21
-4.60467
0
LINE
8
BLACK
6
CONTINUOUS
10
4.18224
20
-4.60467
11
4.18224
21
-4.63279
0
LINE
8
BLACK
6
CONTINUOUS
10
4.18224
20
-4.63279
11
4.18786
21
-4.64404
0
LINE
8
BLACK
6
CONTINUOUS
10
4.18786
20
-4.64404
11
4.19349
21
-4.64966
0
LINE
8
BLACK
6
CONTINUOUS
10
4.19349
20
-4.64966
11
4.20474
21
-4.65529
0
LINE
8
BLACK
6
CONTINUOUS
10
4.20474
20
-4.65529
11
4.22723
21
-4.65529
0
LINE
8
BLACK
6
CONTINUOUS
10
4.22723
20
-4.65529
11
4.23848
21
-4.64966
0
LINE
8
BLACK
6
CONTINUOUS
10
4.23848
20
-4.64966
11
4.24411
21
-4.64404
0
LINE
8
BLACK
6
CONTINUOUS
10
4.24411
20
-4.64404
11
4.24973
21
-4.63279
0
LINE
8
BLACK
6
CONTINUOUS
10
4.30035
20
-4.70028
11
4.30035
21
-4.62154
0
LINE
8
BLACK
6
CONTINUOUS
10
4.30035
20
-4.63279
11
4.30597
21
-4.62717
0
LINE
8
BLACK
6
CONTINUOUS
10
4.30597
20
-4.62717
11
4.31722
21
-4.62154
0
LINE
8
BLACK
6
CONTINUOUS
10
4.31722
20
-4.62154
11
4.3341
21
-4.62154
0
LINE
8
BLACK
6
CONTINUOUS
10
4.3341
20
-4.62154
11
4.34534
21
-4.62717
0
LINE
8
BLACK
6
CONTINUOUS
10
4.34534
20
-4.62717
11
4.35097
21
-4.63841
0
LINE
8
BLACK
6
CONTINUOUS
10
4.35097
20
-4.63841
11
4.35097
21
-4.70028
0
LINE
8
BLACK
6
CONTINUOUS
10
4.35097
20
-4.63841
11
4.35659
21
-4.62717
0
LINE
8
BLACK
6
CONTINUOUS
10
4.35659
20
-4.62717
11
4.36784
21
-4.62154
0
LINE
8
BLACK
6
CONTINUOUS
10
4.36784
20
-4.62154
11
4.38471
21
-4.62154
0
LINE
8
BLACK
6
CONTINUOUS
10
4.38471
20
-4.62154
11
4.39596
21
-4.62717
0
LINE
8
BLACK
6
CONTINUOUS
10
4.39596
20
-4.62717
11
4.40159
21
-4.63841
0
LINE
8
BLACK
6
CONTINUOUS
10
4.40159
20
-4.63841
11
4.40159
21
-4.70028
0
LINE
8
BLACK
6
CONTINUOUS
10
4.45783
20
-4.70028
11
4.45783
21
-4.62154
0
LINE
8
BLACK
6
CONTINUOUS
10
4.45783
20
-4.63279
11
4.46345
21
-4.62717
0
LINE
8
BLACK
6
CONTINUOUS
10
4.46345
20
-4.62717
11
4.4747
21
-4.62154
0
LINE
8
BLACK
6
CONTINUOUS
10
4.4747
20
-4.62154
11
4.49158
21
-4.62154
0
LINE
8
BLACK
6
CONTINUOUS
10
4.49158
20
-4.62154
11
4.50282
21
-4.62717
0
LINE
8
BLACK
6
CONTINUOUS
10
4.50282
20
-4.62717
11
4.50845
21
-4.63841
0
LINE
8
BLACK
6
CONTINUOUS
10
4.50845
20
-4.63841
11
4.50845
21
-4.70028
0
LINE
8
BLACK
6
CONTINUOUS
10
4.50845
20
-4.63841
11
4.51407
21
-4.62717
0
LINE
8
BLACK
6
CONTINUOUS
10
4.51407
20
-4.62717
11
4.52532
21
-4.62154
0
LINE
8
BLACK
6
CONTINUOUS
10
4.52532
20
-4.62154
11
4.54219
21
-4.62154
0
LINE
8
BLACK
6
CONTINUOUS
10
4.54219
20
-4.62154
11
4.55344
21
-4.62717
0
LINE
8
BLACK
6
CONTINUOUS
10
4.55344
20
-4.62717
11
4.55907
21
-4.63841
0
LINE
8
BLACK
6
CONTINUOUS
10
4.55907
20
-4.63841
11
4.55907
21
-4.70028
0
LINE
8
BLACK
6
CONTINUOUS
10
4.78966
20
-4.57655
11
4.68843
21
-4.7284
0
LINE
8
BLACK
6
CONTINUOUS
10
4.94152
20
-4.58217
11
4.95277
21
-4.58217
0
LINE
8
BLACK
6
CONTINUOUS
10
4.95277
20
-4.58217
11
4.96402
21
-4.5878
0
LINE
8
BLACK
6
CONTINUOUS
10
4.96402
20
-4.5878
11
4.96964
21
-4.59342
0
LINE
8
BLACK
6
CONTINUOUS
10
4.96964
20
-4.59342
11
4.97527
21
-4.60467
0
LINE
8
BLACK
6
CONTINUOUS
10
4.97527
20
-4.60467
11
4.98089
21
-4.62717
0
LINE
8
BLACK
6
CONTINUOUS
10
4.98089
20
-4.62717
11
4.98089
21
-4.65529
0
LINE
8
BLACK
6
CONTINUOUS
10
4.98089
20
-4.65529
11
4.97527
21
-4.67778
0
LINE
8
BLACK
6
CONTINUOUS
10
4.97527
20
-4.67778
11
4.96964
21
-4.68903
0
LINE
8
BLACK
6
CONTINUOUS
10
4.96964
20
-4.68903
11
4.96402
21
-4.69466
0
LINE
8
BLACK
6
CONTINUOUS
10
4.96402
20
-4.69466
11
4.95277
21
-4.70028
0
LINE
8
BLACK
6
CONTINUOUS
10
4.95277
20
-4.70028
11
4.94152
21
-4.70028
0
LINE
8
BLACK
6
CONTINUOUS
10
4.94152
20
-4.70028
11
4.93027
21
-4.69466
0
LINE
8
BLACK
6
CONTINUOUS
10
4.93027
20
-4.69466
11
4.92465
21
-4.68903
0
LINE
8
BLACK
6
CONTINUOUS
10
4.92465
20
-4.68903
11
4.91902
21
-4.67778
0
LINE
8
BLACK
6
CONTINUOUS
10
4.91902
20
-4.67778
11
4.9134
21
-4.65529
0
LINE
8
BLACK
6
CONTINUOUS
10
4.9134
20
-4.65529
11
4.9134
21
-4.62717
0
LINE
8
BLACK
6
CONTINUOUS
10
4.9134
20
-4.62717
11
4.91902
21
-4.60467
0
LINE
8
BLACK
6
CONTINUOUS
10
4.91902
20
-4.60467
11
4.92465
21
-4.59342
0
LINE
8
BLACK
6
CONTINUOUS
10
4.92465
20
-4.59342
11
4.93027
21
-4.5878
0
LINE
8
BLACK
6
CONTINUOUS
10
4.93027
20
-4.5878
11
4.94152
21
-4.58217
0
LINE
8
BLACK
6
CONTINUOUS
10
5.03151
20
-4.68903
11
5.03713
21
-4.69466
0
LINE
8
BLACK
6
CONTINUOUS
10
5.03713
20
-4.69466
11
5.03151
21
-4.70028
0
LINE
8
BLACK
6
CONTINUOUS
10
5.03151
20
-4.70028
11
5.02588
21
-4.69466
0
LINE
8
BLACK
6
CONTINUOUS
10
5.02588
20
-4.69466
11
5.03151
21
-4.68903
0
LINE
8
BLACK
6
CONTINUOUS
10
5.03151
20
-4.68903
11
5.03151
21
-4.70028
0
LINE
8
BLACK
6
CONTINUOUS
10
5.11025
20
-4.58217
11
5.1215
21
-4.58217
0
LINE
8
BLACK
6
CONTINUOUS
10
5.1215
20
-4.58217
11
5.13275
21
-4.5878
0
LINE
8
BLACK
6
CONTINUOUS
10
5.13275
20
-4.5878
11
5.13837
21
-4.59342
0
LINE
8
BLACK
6
CONTINUOUS
10
5.13837
20
-4.59342
11
5.14399
21
-4.60467
0
LINE
8
BLACK
6
CONTINUOUS
10
5.14399
20
-4.60467
11
5.14962
21
-4.62717
0
LINE
8
BLACK
6
CONTINUOUS
10
5.14962
20
-4.62717
11
5.14962
21
-4.65529
0
LINE
8
BLACK
6
CONTINUOUS
10
5.14962
20
-4.65529
11
5.14399
21
-4.67778
0
LINE
8
BLACK
6
CONTINUOUS
10
5.14399
20
-4.67778
11
5.13837
21
-4.68903
0
LINE
8
BLACK
6
CONTINUOUS
10
5.13837
20
-4.68903
11
5.13275
21
-4.69466
0
LINE
8
BLACK
6
CONTINUOUS
10
5.13275
20
-4.69466
11
5.1215
21
-4.70028
0
LINE
8
BLACK
6
CONTINUOUS
10
5.1215
20
-4.70028
11
5.11025
21
-4.70028
0
LINE
8
BLACK
6
CONTINUOUS
10
5.11025
20
-4.70028
11
5.099
21
-4.69466
0
LINE
8
BLACK
6
CONTINUOUS
10
5.099
20
-4.69466
11
5.09338
21
-4.68903
0
LINE
8
BLACK
6
CONTINUOUS
10
5.09338
20
-4.68903
11
5.08775
21
-4.67778
0
LINE
8
BLACK
6
CONTINUOUS
10
5.08775
20
-4.67778
11
5.08213
21
-4.65529
0
LINE
8
BLACK
6
CONTINUOUS
10
5.08213
20
-4.65529
11
5.08213
21
-4.62717
0
LINE
8
BLACK
6
CONTINUOUS
10
5.08213
20
-4.62717
11
5.08775
21
-4.60467
0
LINE
8
BLACK
6
CONTINUOUS
10
5.08775
20
-4.60467
11
5.09338
21
-4.59342
0
LINE
8
BLACK
6
CONTINUOUS
10
5.09338
20
-4.59342
11
5.099
21
-4.5878
0
LINE
8
BLACK
6
CONTINUOUS
10
5.099
20
-4.5878
11
5.11025
21
-4.58217
0
LINE
8
BLACK
6
CONTINUOUS
10
5.18899
20
-4.58217
11
5.2621
21
-4.58217
0
LINE
8
BLACK
6
CONTINUOUS
10
5.2621
20
-4.58217
11
5.22273
21
-4.62717
0
LINE
8
BLACK
6
CONTINUOUS
10
5.22273
20
-4.62717
11
5.23961
21
-4.62717
0
LINE
8
BLACK
6
CONTINUOUS
10
5.23961
20
-4.62717
11
5.25086
21
-4.63279
0
LINE
8
BLACK
6
CONTINUOUS
10
5.25086
20
-4.63279
11
5.25648
21
-4.63841
0
LINE
8
BLACK
6
CONTINUOUS
10
5.25648
20
-4.63841
11
5.2621
21
-4.64966
0
LINE
8
BLACK
6
CONTINUOUS
10
5.2621
20
-4.64966
11
5.2621
21
-4.67778
0
LINE
8
BLACK
6
CONTINUOUS
10
5.2621
20
-4.67778
11
5.25648
21
-4.68903
0
LINE
8
BLACK
6
CONTINUOUS
10
5.25648
20
-4.68903
11
5.25086
21
-4.69466
0
LINE
8
BLACK
6
CONTINUOUS
10
5.25086
20
-4.69466
11
5.23961
21
-4.70028
0
LINE
8
BLACK
6
CONTINUOUS
10
5.23961
20
-4.70028
11
5.20586
21
-4.70028
0
LINE
8
BLACK
6
CONTINUOUS
10
5.20586
20
-4.70028
11
5.19461
21
-4.69466
0
LINE
8
BLACK
6
CONTINUOUS
10
5.19461
20
-4.69466
11
5.18899
21
-4.68903
0
LINE
8
BLACK
6
CONTINUOUS
10
5.36897
20
-4.58217
11
5.31272
21
-4.58217
0
LINE
8
BLACK
6
CONTINUOUS
10
5.31272
20
-4.58217
11
5.3071
21
-4.63841
0
LINE
8
BLACK
6
CONTINUOUS
10
5.3071
20
-4.63841
11
5.31272
21
-4.63279
0
LINE
8
BLACK
6
CONTINUOUS
10
5.31272
20
-4.63279
11
5.32397
21
-4.62717
0
LINE
8
BLACK
6
CONTINUOUS
10
5.32397
20
-4.62717
11
5.35209
21
-4.62717
0
LINE
8
BLACK
6
CONTINUOUS
10
5.35209
20
-4.62717
11
5.36334
21
-4.63279
0
LINE
8
BLACK
6
CONTINUOUS
10
5.36334
20
-4.63279
11
5.36897
21
-4.63841
0
LINE
8
BLACK
6
CONTINUOUS
10
5.36897
20
-4.63841
11
5.37459
21
-4.64966
0
LINE
8
BLACK
6
CONTINUOUS
10
5.37459
20
-4.64966
11
5.37459
21
-4.67778
0
LINE
8
BLACK
6
CONTINUOUS
10
5.37459
20
-4.67778
11
5.36897
21
-4.68903
0
LINE
8
BLACK
6
CONTINUOUS
10
5.36897
20
-4.68903
11
5.36334
21
-4.69466
0
LINE
8
BLACK
6
CONTINUOUS
10
5.36334
20
-4.69466
11
5.35209
21
-4.70028
0
LINE
8
BLACK
6
CONTINUOUS
10
5.35209
20
-4.70028
11
5.32397
21
-4.70028
0
LINE
8
BLACK
6
CONTINUOUS
10
5.32397
20
-4.70028
11
5.31272
21
-4.69466
0
LINE
8
BLACK
6
CONTINUOUS
10
5.31272
20
-4.69466
11
5.3071
21
-4.68903
0
LINE
8
BLACK
6
CONTINUOUS
10
5.41958
20
-4.58217
11
5.41958
21
-4.60467
0
LINE
8
BLACK
6
CONTINUOUS
10
5.46458
20
-4.58217
11
5.46458
21
-4.60467
0
LINE
8
BLACK
6
CONTINUOUS
10
5.63893
20
-4.74528
11
5.63331
21
-4.73965
0
LINE
8
BLACK
6
CONTINUOUS
10
5.63331
20
-4.73965
11
5.62206
21
-4.72278
0
LINE
8
BLACK
6
CONTINUOUS
10
5.62206
20
-4.72278
11
5.61644
21
-4.71153
0
LINE
8
BLACK
6
CONTINUOUS
10
5.61644
20
-4.71153
11
5.61081
21
-4.69466
0
LINE
8
BLACK
6
CONTINUOUS
10
5.61081
20
-4.69466
11
5.60519
21
-4.66654
0
LINE
8
BLACK
6
CONTINUOUS
10
5.60519
20
-4.66654
11
5.60519
21
-4.64404
0
LINE
8
BLACK
6
CONTINUOUS
10
5.60519
20
-4.64404
11
5.61081
21
-4.61592
0
LINE
8
BLACK
6
CONTINUOUS
10
5.61081
20
-4.61592
11
5.61644
21
-4.59904
0
LINE
8
BLACK
6
CONTINUOUS
10
5.61644
20
-4.59904
11
5.62206
21
-4.5878
0
LINE
8
BLACK
6
CONTINUOUS
10
5.62206
20
-4.5878
11
5.63331
21
-4.57092
0
LINE
8
BLACK
6
CONTINUOUS
10
5.63331
20
-4.57092
11
5.63893
21
-4.5653
0
LINE
8
BLACK
6
CONTINUOUS
10
5.73455
20
-4.58217
11
5.71205
21
-4.58217
0
LINE
8
BLACK
6
CONTINUOUS
10
5.71205
20
-4.58217
11
5.7008
21
-4.5878
0
LINE
8
BLACK
6
CONTINUOUS
10
5.7008
20
-4.5878
11
5.69518
21
-4.59342
0
LINE
8
BLACK
6
CONTINUOUS
10
5.69518
20
-4.59342
11
5.68393
21
-4.61029
0
LINE
8
BLACK
6
CONTINUOUS
10
5.68393
20
-4.61029
11
5.6783
21
-4.63279
0
LINE
8
BLACK
6
CONTINUOUS
10
5.6783
20
-4.63279
11
5.6783
21
-4.67778
0
LINE
8
BLACK
6
CONTINUOUS
10
5.6783
20
-4.67778
11
5.68393
21
-4.68903
0
LINE
8
BLACK
6
CONTINUOUS
10
5.68393
20
-4.68903
11
5.68955
21
-4.69466
0
LINE
8
BLACK
6
CONTINUOUS
10
5.68955
20
-4.69466
11
5.7008
21
-4.70028
0
LINE
8
BLACK
6
CONTINUOUS
10
5.7008
20
-4.70028
11
5.7233
21
-4.70028
0
LINE
8
BLACK
6
CONTINUOUS
10
5.7233
20
-4.70028
11
5.73455
21
-4.69466
0
LINE
8
BLACK
6
CONTINUOUS
10
5.73455
20
-4.69466
11
5.74017
21
-4.68903
0
LINE
8
BLACK
6
CONTINUOUS
10
5.74017
20
-4.68903
11
5.74579
21
-4.67778
0
LINE
8
BLACK
6
CONTINUOUS
10
5.74579
20
-4.67778
11
5.74579
21
-4.64966
0
LINE
8
BLACK
6
CONTINUOUS
10
5.74579
20
-4.64966
11
5.74017
21
-4.63841
0
LINE
8
BLACK
6
CONTINUOUS
10
5.74017
20
-4.63841
11
5.73455
21
-4.63279
0
LINE
8
BLACK
6
CONTINUOUS
10
5.73455
20
-4.63279
11
5.7233
21
-4.62717
0
LINE
8
BLACK
6
CONTINUOUS
10
5.7233
20
-4.62717
11
5.7008
21
-4.62717
0
LINE
8
BLACK
6
CONTINUOUS
10
5.7008
20
-4.62717
11
5.68955
21
-4.63279
0
LINE
8
BLACK
6
CONTINUOUS
10
5.68955
20
-4.63279
11
5.68393
21
-4.63841
0
LINE
8
BLACK
6
CONTINUOUS
10
5.68393
20
-4.63841
11
5.6783
21
-4.64966
0
LINE
8
BLACK
6
CONTINUOUS
10
5.8864
20
-4.70028
11
5.8864
21
-4.58217
0
LINE
8
BLACK
6
CONTINUOUS
10
5.93702
20
-4.70028
11
5.93702
21
-4.63841
0
LINE
8
BLACK
6
CONTINUOUS
10
5.93702
20
-4.63841
11
5.9314
21
-4.62717
0
LINE
8
BLACK
6
CONTINUOUS
10
5.9314
20
-4.62717
11
5.92015
21
-4.62154
0
LINE
8
BLACK
6
CONTINUOUS
10
5.92015
20
-4.62154
11
5.90327
21
-4.62154
0
LINE
8
BLACK
6
CONTINUOUS
10
5.90327
20
-4.62154
11
5.89203
21
-4.62717
0
LINE
8
BLACK
6
CONTINUOUS
10
5.89203
20
-4.62717
11
5.8864
21
-4.63279
0
LINE
8
BLACK
6
CONTINUOUS
10
6.01014
20
-4.70028
11
5.99889
21
-4.69466
0
LINE
8
BLACK
6
CONTINUOUS
10
5.99889
20
-4.69466
11
5.99326
21
-4.68903
0
LINE
8
BLACK
6
CONTINUOUS
10
5.99326
20
-4.68903
11
5.98764
21
-4.67778
0
LINE
8
BLACK
6
CONTINUOUS
10
5.98764
20
-4.67778
11
5.98764
21
-4.64404
0
LINE
8
BLACK
6
CONTINUOUS
10
5.98764
20
-4.64404
11
5.99326
21
-4.63279
0
LINE
8
BLACK
6
CONTINUOUS
10
5.99326
20
-4.63279
11
5.99889
21
-4.62717
0
LINE
8
BLACK
6
CONTINUOUS
10
5.99889
20
-4.62717
11
6.01014
21
-4.62154
0
LINE
8
BLACK
6
CONTINUOUS
10
6.01014
20
-4.62154
11
6.02701
21
-4.62154
0
LINE
8
BLACK
6
CONTINUOUS
10
6.02701
20
-4.62154
11
6.03826
21
-4.62717
0
LINE
8
BLACK
6
CONTINUOUS
10
6.03826
20
-4.62717
11
6.04388
21
-4.63279
0
LINE
8
BLACK
6
CONTINUOUS
10
6.04388
20
-4.63279
11
6.04951
21
-4.64404
0
LINE
8
BLACK
6
CONTINUOUS
10
6.04951
20
-4.64404
11
6.04951
21
-4.67778
0
LINE
8
BLACK
6
CONTINUOUS
10
6.04951
20
-4.67778
11
6.04388
21
-4.68903
0
LINE
8
BLACK
6
CONTINUOUS
10
6.04388
20
-4.68903
11
6.03826
21
-4.69466
0
LINE
8
BLACK
6
CONTINUOUS
10
6.03826
20
-4.69466
11
6.02701
21
-4.70028
0
LINE
8
BLACK
6
CONTINUOUS
10
6.02701
20
-4.70028
11
6.01014
21
-4.70028
0
LINE
8
BLACK
6
CONTINUOUS
10
6.117
20
-4.70028
11
6.10575
21
-4.69466
0
LINE
8
BLACK
6
CONTINUOUS
10
6.10575
20
-4.69466
11
6.10012
21
-4.68341
0
LINE
8
BLACK
6
CONTINUOUS
10
6.10012
20
-4.68341
11
6.10012
21
-4.58217
0
LINE
8
BLACK
6
CONTINUOUS
10
6.20699
20
-4.69466
11
6.19574
21
-4.70028
0
LINE
8
BLACK
6
CONTINUOUS
10
6.19574
20
-4.70028
11
6.17324
21
-4.70028
0
LINE
8
BLACK
6
CONTINUOUS
10
6.17324
20
-4.70028
11
6.16199
21
-4.69466
0
LINE
8
BLACK
6
CONTINUOUS
10
6.16199
20
-4.69466
11
6.15637
21
-4.68341
0
LINE
8
BLACK
6
CONTINUOUS
10
6.15637
20
-4.68341
11
6.15637
21
-4.63841
0
LINE
8
BLACK
6
CONTINUOUS
10
6.15637
20
-4.63841
11
6.16199
21
-4.62717
0
LINE
8
BLACK
6
CONTINUOUS
10
6.16199
20
-4.62717
11
6.17324
21
-4.62154
0
LINE
8
BLACK
6
CONTINUOUS
10
6.17324
20
-4.62154
11
6.19574
21
-4.62154
0
LINE
8
BLACK
6
CONTINUOUS
10
6.19574
20
-4.62154
11
6.20699
21
-4.62717
0
LINE
8
BLACK
6
CONTINUOUS
10
6.20699
20
-4.62717
11
6.21261
21
-4.63841
0
LINE
8
BLACK
6
CONTINUOUS
10
6.21261
20
-4.63841
11
6.21261
21
-4.64966
0
LINE
8
BLACK
6
CONTINUOUS
10
6.21261
20
-4.64966
11
6.15637
21
-4.66091
0
LINE
8
BLACK
6
CONTINUOUS
10
6.25761
20
-4.69466
11
6.26885
21
-4.70028
0
LINE
8
BLACK
6
CONTINUOUS
10
6.26885
20
-4.70028
11
6.29135
21
-4.70028
0
LINE
8
BLACK
6
CONTINUOUS
10
6.29135
20
-4.70028
11
6.3026
21
-4.69466
0
LINE
8
BLACK
6
CONTINUOUS
10
6.3026
20
-4.69466
11
6.30822
21
-4.68341
0
LINE
8
BLACK
6
CONTINUOUS
10
6.30822
20
-4.68341
11
6.30822
21
-4.67778
0
LINE
8
BLACK
6
CONTINUOUS
10
6.30822
20
-4.67778
11
6.3026
21
-4.66654
0
LINE
8
BLACK
6
CONTINUOUS
10
6.3026
20
-4.66654
11
6.29135
21
-4.66091
0
LINE
8
BLACK
6
CONTINUOUS
10
6.29135
20
-4.66091
11
6.27448
21
-4.66091
0
LINE
8
BLACK
6
CONTINUOUS
10
6.27448
20
-4.66091
11
6.26323
21
-4.65529
0
LINE
8
BLACK
6
CONTINUOUS
10
6.26323
20
-4.65529
11
6.25761
21
-4.64404
0
LINE
8
BLACK
6
CONTINUOUS
10
6.25761
20
-4.64404
11
6.25761
21
-4.63841
0
LINE
8
BLACK
6
CONTINUOUS
10
6.25761
20
-4.63841
11
6.26323
21
-4.62717
0
LINE
8
BLACK
6
CONTINUOUS
10
6.26323
20
-4.62717
11
6.27448
21
-4.62154
0
LINE
8
BLACK
6
CONTINUOUS
10
6.27448
20
-4.62154
11
6.29135
21
-4.62154
0
LINE
8
BLACK
6
CONTINUOUS
10
6.29135
20
-4.62154
11
6.3026
21
-4.62717
0
LINE
8
BLACK
6
CONTINUOUS
10
6.34759
20
-4.74528
11
6.35322
21
-4.73965
0
LINE
8
BLACK
6
CONTINUOUS
10
6.35322
20
-4.73965
11
6.36447
21
-4.72278
0
LINE
8
BLACK
6
CONTINUOUS
10
6.36447
20
-4.72278
11
6.37009
21
-4.71153
0
LINE
8
BLACK
6
CONTINUOUS
10
6.37009
20
-4.71153
11
6.37572
21
-4.69466
0
LINE
8
BLACK
6
CONTINUOUS
10
6.37572
20
-4.69466
11
6.38134
21
-4.66654
0
LINE
8
BLACK
6
CONTINUOUS
10
6.38134
20
-4.66654
11
6.38134
21
-4.64404
0
LINE
8
BLACK
6
CONTINUOUS
10
6.38134
20
-4.64404
11
6.37572
21
-4.61592
0
LINE
8
BLACK
6
CONTINUOUS
10
6.37572
20
-4.61592
11
6.37009
21
-4.59904
0
LINE
8
BLACK
6
CONTINUOUS
10
6.37009
20
-4.59904
11
6.36447
21
-4.5878
0
LINE
8
BLACK
6
CONTINUOUS
10
6.36447
20
-4.5878
11
6.35322
21
-4.57092
0
LINE
8
BLACK
6
CONTINUOUS
10
6.35322
20
-4.57092
11
6.34759
21
-4.5653
0
LINE
8
BLACK
6
CONTINUOUS
10
3.7742
20
-4.82244
11
3.79388
21
-4.80276
0
LINE
8
BLACK
6
CONTINUOUS
10
3.79388
20
-4.80276
11
3.7742
21
-4.78307
0
LINE
8
BLACK
6
CONTINUOUS
10
3.7742
20
-4.78307
11
3.75451
21
-4.80276
0
LINE
8
BLACK
6
CONTINUOUS
10
3.75451
20
-4.80276
11
3.7742
21
-4.82244
0
LINE
8
BLACK
6
CONTINUOUS
10
3.96852
20
-4.85619
11
3.90102
21
-4.85619
0
LINE
8
BLACK
6
CONTINUOUS
10
3.93477
20
-4.85619
11
3.93477
21
-4.73808
0
LINE
8
BLACK
6
CONTINUOUS
10
3.93477
20
-4.73808
11
3.92352
21
-4.75495
0
LINE
8
BLACK
6
CONTINUOUS
10
3.92352
20
-4.75495
11
3.91227
21
-4.7662
0
LINE
8
BLACK
6
CONTINUOUS
10
3.91227
20
-4.7662
11
3.90102
21
-4.77182
0
LINE
8
BLACK
6
CONTINUOUS
10
4.01913
20
-4.84494
11
4.02476
21
-4.85056
0
LINE
8
BLACK
6
CONTINUOUS
10
4.02476
20
-4.85056
11
4.01913
21
-4.85619
0
LINE
8
BLACK
6
CONTINUOUS
10
4.01913
20
-4.85619
11
4.01351
21
-4.85056
0
LINE
8
BLACK
6
CONTINUOUS
10
4.01351
20
-4.85056
11
4.01913
21
-4.84494
0
LINE
8
BLACK
6
CONTINUOUS
10
4.01913
20
-4.84494
11
4.01913
21
-4.85619
0
LINE
8
BLACK
6
CONTINUOUS
10
4.09788
20
-4.73808
11
4.10912
21
-4.73808
0
LINE
8
BLACK
6
CONTINUOUS
10
4.10912
20
-4.73808
11
4.12037
21
-4.7437
0
LINE
8
BLACK
6
CONTINUOUS
10
4.12037
20
-4.7437
11
4.126
21
-4.74933
0
LINE
8
BLACK
6
CONTINUOUS
10
4.126
20
-4.74933
11
4.13162
21
-4.76057
0
LINE
8
BLACK
6
CONTINUOUS
10
4.13162
20
-4.76057
11
4.13725
21
-4.78307
0
LINE
8
BLACK
6
CONTINUOUS
10
4.13725
20
-4.78307
11
4.13725
21
-4.81119
0
LINE
8
BLACK
6
CONTINUOUS
10
4.13725
20
-4.81119
11
4.13162
21
-4.83369
0
LINE
8
BLACK
6
CONTINUOUS
10
4.13162
20
-4.83369
11
4.126
21
-4.84494
0
LINE
8
BLACK
6
CONTINUOUS
10
4.126
20
-4.84494
11
4.12037
21
-4.85056
0
LINE
8
BLACK
6
CONTINUOUS
10
4.12037
20
-4.85056
11
4.10912
21
-4.85619
0
LINE
8
BLACK
6
CONTINUOUS
10
4.10912
20
-4.85619
11
4.09788
21
-4.85619
0
LINE
8
BLACK
6
CONTINUOUS
10
4.09788
20
-4.85619
11
4.08663
21
-4.85056
0
LINE
8
BLACK
6
CONTINUOUS
10
4.08663
20
-4.85056
11
4.081
21
-4.84494
0
LINE
8
BLACK
6
CONTINUOUS
10
4.081
20
-4.84494
11
4.07538
21
-4.83369
0
LINE
8
BLACK
6
CONTINUOUS
10
4.07538
20
-4.83369
11
4.06975
21
-4.81119
0
LINE
8
BLACK
6
CONTINUOUS
10
4.06975
20
-4.81119
11
4.06975
21
-4.78307
0
LINE
8
BLACK
6
CONTINUOUS
10
4.06975
20
-4.78307
11
4.07538
21
-4.76057
0
LINE
8
BLACK
6
CONTINUOUS
10
4.07538
20
-4.76057
11
4.081
21
-4.74933
0
LINE
8
BLACK
6
CONTINUOUS
10
4.081
20
-4.74933
11
4.08663
21
-4.7437
0
LINE
8
BLACK
6
CONTINUOUS
10
4.08663
20
-4.7437
11
4.09788
21
-4.73808
0
LINE
8
BLACK
6
CONTINUOUS
10
4.21036
20
-4.73808
11
4.22161
21
-4.73808
0
LINE
8
BLACK
6
CONTINUOUS
10
4.22161
20
-4.73808
11
4.23286
21
-4.7437
0
LINE
8
BLACK
6
CONTINUOUS
10
4.23286
20
-4.7437
11
4.23848
21
-4.74933
0
LINE
8
BLACK
6
CONTINUOUS
10
4.23848
20
-4.74933
11
4.24411
21
-4.76057
0
LINE
8
BLACK
6
CONTINUOUS
10
4.24411
20
-4.76057
11
4.24973
21
-4.78307
0
LINE
8
BLACK
6
CONTINUOUS
10
4.24973
20
-4.78307
11
4.24973
21
-4.81119
0
LINE
8
BLACK
6
CONTINUOUS
10
4.24973
20
-4.81119
11
4.24411
21
-4.83369
0
LINE
8
BLACK
6
CONTINUOUS
10
4.24411
20
-4.83369
11
4.23848
21
-4.84494
0
LINE
8
BLACK
6
CONTINUOUS
10
4.23848
20
-4.84494
11
4.23286
21
-4.85056
0
LINE
8
BLACK
6
CONTINUOUS
10
4.23286
20
-4.85056
11
4.22161
21
-4.85619
0
LINE
8
BLACK
6
CONTINUOUS
10
4.22161
20
-4.85619
11
4.21036
21
-4.85619
0
LINE
8
BLACK
6
CONTINUOUS
10
4.21036
20
-4.85619
11
4.19911
21
-4.85056
0
LINE
8
BLACK
6
CONTINUOUS
10
4.19911
20
-4.85056
11
4.19349
21
-4.84494
0
LINE
8
BLACK
6
CONTINUOUS
10
4.19349
20
-4.84494
11
4.18786
21
-4.83369
0
LINE
8
BLACK
6
CONTINUOUS
10
4.18786
20
-4.83369
11
4.18224
21
-4.81119
0
LINE
8
BLACK
6
CONTINUOUS
10
4.18224
20
-4.81119
11
4.18224
21
-4.78307
0
LINE
8
BLACK
6
CONTINUOUS
10
4.18224
20
-4.78307
11
4.18786
21
-4.76057
0
LINE
8
BLACK
6
CONTINUOUS
10
4.18786
20
-4.76057
11
4.19349
21
-4.74933
0
LINE
8
BLACK
6
CONTINUOUS
10
4.19349
20
-4.74933
11
4.19911
21
-4.7437
0
LINE
8
BLACK
6
CONTINUOUS
10
4.19911
20
-4.7437
11
4.21036
21
-4.73808
0
LINE
8
BLACK
6
CONTINUOUS
10
4.30035
20
-4.85619
11
4.30035
21
-4.77745
0
LINE
8
BLACK
6
CONTINUOUS
10
4.30035
20
-4.7887
11
4.30597
21
-4.78307
0
LINE
8
BLACK
6
CONTINUOUS
10
4.30597
20
-4.78307
11
4.31722
21
-4.77745
0
LINE
8
BLACK
6
CONTINUOUS
10
4.31722
20
-4.77745
11
4.3341
21
-4.77745
0
LINE
8
BLACK
6
CONTINUOUS
10
4.3341
20
-4.77745
11
4.34534
21
-4.78307
0
LINE
8
BLACK
6
CONTINUOUS
10
4.34534
20
-4.78307
11
4.35097
21
-4.79432
0
LINE
8
BLACK
6
CONTINUOUS
10
4.35097
20
-4.79432
11
4.35097
21
-4.85619
0
LINE
8
BLACK
6
CONTINUOUS
10
4.35097
20
-4.79432
11
4.35659
21
-4.78307
0
LINE
8
BLACK
6
CONTINUOUS
10
4.35659
20
-4.78307
11
4.36784
21
-4.77745
0
LINE
8
BLACK
6
CONTINUOUS
10
4.36784
20
-4.77745
11
4.38471
21
-4.77745
0
LINE
8
BLACK
6
CONTINUOUS
10
4.38471
20
-4.77745
11
4.39596
21
-4.78307
0
LINE
8
BLACK
6
CONTINUOUS
10
4.39596
20
-4.78307
11
4.40159
21
-4.79432
0
LINE
8
BLACK
6
CONTINUOUS
10
4.40159
20
-4.79432
11
4.40159
21
-4.85619
0
LINE
8
BLACK
6
CONTINUOUS
10
4.45783
20
-4.85619
11
4.45783
21
-4.77745
0
LINE
8
BLACK
6
CONTINUOUS
10
4.45783
20
-4.7887
11
4.46345
21
-4.78307
0
LINE
8
BLACK
6
CONTINUOUS
10
4.46345
20
-4.78307
11
4.4747
21
-4.77745
0
LINE
8
BLACK
6
CONTINUOUS
10
4.4747
20
-4.77745
11
4.49158
21
-4.77745
0
LINE
8
BLACK
6
CONTINUOUS
10
4.49158
20
-4.77745
11
4.50282
21
-4.78307
0
LINE
8
BLACK
6
CONTINUOUS
10
4.50282
20
-4.78307
11
4.50845
21
-4.79432
0
LINE
8
BLACK
6
CONTINUOUS
10
4.50845
20
-4.79432
11
4.50845
21
-4.85619
0
LINE
8
BLACK
6
CONTINUOUS
10
4.50845
20
-4.79432
11
4.51407
21
-4.78307
0
LINE
8
BLACK
6
CONTINUOUS
10
4.51407
20
-4.78307
11
4.52532
21
-4.77745
0
LINE
8
BLACK
6
CONTINUOUS
10
4.52532
20
-4.77745
11
4.54219
21
-4.77745
0
LINE
8
BLACK
6
CONTINUOUS
10
4.54219
20
-4.77745
11
4.55344
21
-4.78307
0
LINE
8
BLACK
6
CONTINUOUS
10
4.55344
20
-4.78307
11
4.55907
21
-4.79432
0
LINE
8
BLACK
6
CONTINUOUS
10
4.55907
20
-4.79432
11
4.55907
21
-4.85619
0
LINE
8
BLACK
6
CONTINUOUS
10
4.78966
20
-4.73245
11
4.68843
21
-4.88431
0
LINE
8
BLACK
6
CONTINUOUS
10
4.94152
20
-4.73808
11
4.95277
21
-4.73808
0
LINE
8
BLACK
6
CONTINUOUS
10
4.95277
20
-4.73808
11
4.96402
21
-4.7437
0
LINE
8
BLACK
6
CONTINUOUS
10
4.96402
20
-4.7437
11
4.96964
21
-4.74933
0
LINE
8
BLACK
6
CONTINUOUS
10
4.96964
20
-4.74933
11
4.97527
21
-4.76057
0
LINE
8
BLACK
6
CONTINUOUS
10
4.97527
20
-4.76057
11
4.98089
21
-4.78307
0
LINE
8
BLACK
6
CONTINUOUS
10
4.98089
20
-4.78307
11
4.98089
21
-4.81119
0
LINE
8
BLACK
6
CONTINUOUS
10
4.98089
20
-4.81119
11
4.97527
21
-4.83369
0
LINE
8
BLACK
6
CONTINUOUS
10
4.97527
20
-4.83369
11
4.96964
21
-4.84494
0
LINE
8
BLACK
6
CONTINUOUS
10
4.96964
20
-4.84494
11
4.96402
21
-4.85056
0
LINE
8
BLACK
6
CONTINUOUS
10
4.96402
20
-4.85056
11
4.95277
21
-4.85619
0
LINE
8
BLACK
6
CONTINUOUS
10
4.95277
20
-4.85619
11
4.94152
21
-4.85619
0
LINE
8
BLACK
6
CONTINUOUS
10
4.94152
20
-4.85619
11
4.93027
21
-4.85056
0
LINE
8
BLACK
6
CONTINUOUS
10
4.93027
20
-4.85056
11
4.92465
21
-4.84494
0
LINE
8
BLACK
6
CONTINUOUS
10
4.92465
20
-4.84494
11
4.91902
21
-4.83369
0
LINE
8
BLACK
6
CONTINUOUS
10
4.91902
20
-4.83369
11
4.9134
21
-4.81119
0
LINE
8
BLACK
6
CONTINUOUS
10
4.9134
20
-4.81119
11
4.9134
21
-4.78307
0
LINE
8
BLACK
6
CONTINUOUS
10
4.9134
20
-4.78307
11
4.91902
21
-4.76057
0
LINE
8
BLACK
6
CONTINUOUS
10
4.91902
20
-4.76057
11
4.92465
21
-4.74933
0
LINE
8
BLACK
6
CONTINUOUS
10
4.92465
20
-4.74933
11
4.93027
21
-4.7437
0
LINE
8
BLACK
6
CONTINUOUS
10
4.93027
20
-4.7437
11
4.94152
21
-4.73808
0
LINE
8
BLACK
6
CONTINUOUS
10
5.03151
20
-4.84494
11
5.03713
21
-4.85056
0
LINE
8
BLACK
6
CONTINUOUS
10
5.03713
20
-4.85056
11
5.03151
21
-4.85619
0
LINE
8
BLACK
6
CONTINUOUS
10
5.03151
20
-4.85619
11
5.02588
21
-4.85056
0
LINE
8
BLACK
6
CONTINUOUS
10
5.02588
20
-4.85056
11
5.03151
21
-4.84494
0
LINE
8
BLACK
6
CONTINUOUS
10
5.03151
20
-4.84494
11
5.03151
21
-4.85619
0
LINE
8
BLACK
6
CONTINUOUS
10
5.11025
20
-4.73808
11
5.1215
21
-4.73808
0
LINE
8
BLACK
6
CONTINUOUS
10
5.1215
20
-4.73808
11
5.13275
21
-4.7437
0
LINE
8
BLACK
6
CONTINUOUS
10
5.13275
20
-4.7437
11
5.13837
21
-4.74933
0
LINE
8
BLACK
6
CONTINUOUS
10
5.13837
20
-4.74933
11
5.14399
21
-4.76057
0
LINE
8
BLACK
6
CONTINUOUS
10
5.14399
20
-4.76057
11
5.14962
21
-4.78307
0
LINE
8
BLACK
6
CONTINUOUS
10
5.14962
20
-4.78307
11
5.14962
21
-4.81119
0
LINE
8
BLACK
6
CONTINUOUS
10
5.14962
20
-4.81119
11
5.14399
21
-4.83369
0
LINE
8
BLACK
6
CONTINUOUS
10
5.14399
20
-4.83369
11
5.13837
21
-4.84494
0
LINE
8
BLACK
6
CONTINUOUS
10
5.13837
20
-4.84494
11
5.13275
21
-4.85056
0
LINE
8
BLACK
6
CONTINUOUS
10
5.13275
20
-4.85056
11
5.1215
21
-4.85619
0
LINE
8
BLACK
6
CONTINUOUS
10
5.1215
20
-4.85619
11
5.11025
21
-4.85619
0
LINE
8
BLACK
6
CONTINUOUS
10
5.11025
20
-4.85619
11
5.099
21
-4.85056
0
LINE
8
BLACK
6
CONTINUOUS
10
5.099
20
-4.85056
11
5.09338
21
-4.84494
0
LINE
8
BLACK
6
CONTINUOUS
10
5.09338
20
-4.84494
11
5.08775
21
-4.83369
0
LINE
8
BLACK
6
CONTINUOUS
10
5.08775
20
-4.83369
11
5.08213
21
-4.81119
0
LINE
8
BLACK
6
CONTINUOUS
10
5.08213
20
-4.81119
11
5.08213
21
-4.78307
0
LINE
8
BLACK
6
CONTINUOUS
10
5.08213
20
-4.78307
11
5.08775
21
-4.76057
0
LINE
8
BLACK
6
CONTINUOUS
10
5.08775
20
-4.76057
11
5.09338
21
-4.74933
0
LINE
8
BLACK
6
CONTINUOUS
10
5.09338
20
-4.74933
11
5.099
21
-4.7437
0
LINE
8
BLACK
6
CONTINUOUS
10
5.099
20
-4.7437
11
5.11025
21
-4.73808
0
LINE
8
BLACK
6
CONTINUOUS
10
5.18899
20
-4.73808
11
5.2621
21
-4.73808
0
LINE
8
BLACK
6
CONTINUOUS
10
5.2621
20
-4.73808
11
5.22273
21
-4.78307
0
LINE
8
BLACK
6
CONTINUOUS
10
5.22273
20
-4.78307
11
5.23961
21
-4.78307
0
LINE
8
BLACK
6
CONTINUOUS
10
5.23961
20
-4.78307
11
5.25086
21
-4.7887
0
LINE
8
BLACK
6
CONTINUOUS
10
5.25086
20
-4.7887
11
5.25648
21
-4.79432
0
LINE
8
BLACK
6
CONTINUOUS
10
5.25648
20
-4.79432
11
5.2621
21
-4.80557
0
LINE
8
BLACK
6
CONTINUOUS
10
5.2621
20
-4.80557
11
5.2621
21
-4.83369
0
LINE
8
BLACK
6
CONTINUOUS
10
5.2621
20
-4.83369
11
5.25648
21
-4.84494
0
LINE
8
BLACK
6
CONTINUOUS
10
5.25648
20
-4.84494
11
5.25086
21
-4.85056
0
LINE
8
BLACK
6
CONTINUOUS
10
5.25086
20
-4.85056
11
5.23961
21
-4.85619
0
LINE
8
BLACK
6
CONTINUOUS
10
5.23961
20
-4.85619
11
5.20586
21
-4.85619
0
LINE
8
BLACK
6
CONTINUOUS
10
5.20586
20
-4.85619
11
5.19461
21
-4.85056
0
LINE
8
BLACK
6
CONTINUOUS
10
5.19461
20
-4.85056
11
5.18899
21
-4.84494
0
LINE
8
BLACK
6
CONTINUOUS
10
5.31835
20
-4.85619
11
5.34084
21
-4.85619
0
LINE
8
BLACK
6
CONTINUOUS
10
5.34084
20
-4.85619
11
5.35209
21
-4.85056
0
LINE
8
BLACK
6
CONTINUOUS
10
5.35209
20
-4.85056
11
5.35772
21
-4.84494
0
LINE
8
BLACK
6
CONTINUOUS
10
5.35772
20
-4.84494
11
5.36897
21
-4.82807
0
LINE
8
BLACK
6
CONTINUOUS
10
5.36897
20
-4.82807
11
5.37459
21
-4.80557
0
LINE
8
BLACK
6
CONTINUOUS
10
5.37459
20
-4.80557
11
5.37459
21
-4.76057
0
LINE
8
BLACK
6
CONTINUOUS
10
5.37459
20
-4.76057
11
5.36897
21
-4.74933
0
LINE
8
BLACK
6
CONTINUOUS
10
5.36897
20
-4.74933
11
5.36334
21
-4.7437
0
LINE
8
BLACK
6
CONTINUOUS
10
5.36334
20
-4.7437
11
5.35209
21
-4.73808
0
LINE
8
BLACK
6
CONTINUOUS
10
5.35209
20
-4.73808
11
5.3296
21
-4.73808
0
LINE
8
BLACK
6
CONTINUOUS
10
5.3296
20
-4.73808
11
5.31835
21
-4.7437
0
LINE
8
BLACK
6
CONTINUOUS
10
5.31835
20
-4.7437
11
5.31272
21
-4.74933
0
LINE
8
BLACK
6
CONTINUOUS
10
5.31272
20
-4.74933
11
5.3071
21
-4.76057
0
LINE
8
BLACK
6
CONTINUOUS
10
5.3071
20
-4.76057
11
5.3071
21
-4.7887
0
LINE
8
BLACK
6
CONTINUOUS
10
5.3071
20
-4.7887
11
5.31272
21
-4.79994
0
LINE
8
BLACK
6
CONTINUOUS
10
5.31272
20
-4.79994
11
5.31835
21
-4.80557
0
LINE
8
BLACK
6
CONTINUOUS
10
5.31835
20
-4.80557
11
5.3296
21
-4.81119
0
LINE
8
BLACK
6
CONTINUOUS
10
5.3296
20
-4.81119
11
5.35209
21
-4.81119
0
LINE
8
BLACK
6
CONTINUOUS
10
5.35209
20
-4.81119
11
5.36334
21
-4.80557
0
LINE
8
BLACK
6
CONTINUOUS
10
5.36334
20
-4.80557
11
5.36897
21
-4.79994
0
LINE
8
BLACK
6
CONTINUOUS
10
5.36897
20
-4.79994
11
5.37459
21
-4.7887
0
LINE
8
BLACK
6
CONTINUOUS
10
5.41958
20
-4.73808
11
5.41958
21
-4.76057
0
LINE
8
BLACK
6
CONTINUOUS
10
5.46458
20
-4.73808
11
5.46458
21
-4.76057
0
LINE
8
BLACK
6
CONTINUOUS
10
5.63893
20
-4.90118
11
5.63331
21
-4.89556
0
LINE
8
BLACK
6
CONTINUOUS
10
5.63331
20
-4.89556
11
5.62206
21
-4.87868
0
LINE
8
BLACK
6
CONTINUOUS
10
5.62206
20
-4.87868
11
5.61644
21
-4.86744
0
LINE
8
BLACK
6
CONTINUOUS
10
5.61644
20
-4.86744
11
5.61081
21
-4.85056
0
LINE
8
BLACK
6
CONTINUOUS
10
5.61081
20
-4.85056
11
5.60519
21
-4.82244
0
LINE
8
BLACK
6
CONTINUOUS
10
5.60519
20
-4.82244
11
5.60519
21
-4.79994
0
LINE
8
BLACK
6
CONTINUOUS
10
5.60519
20
-4.79994
11
5.61081
21
-4.77182
0
LINE
8
BLACK
6
CONTINUOUS
10
5.61081
20
-4.77182
11
5.61644
21
-4.75495
0
LINE
8
BLACK
6
CONTINUOUS
10
5.61644
20
-4.75495
11
5.62206
21
-4.7437
0
LINE
8
BLACK
6
CONTINUOUS
10
5.62206
20
-4.7437
11
5.63331
21
-4.72683
0
LINE
8
BLACK
6
CONTINUOUS
10
5.63331
20
-4.72683
11
5.63893
21
-4.7212
0
LINE
8
BLACK
6
CONTINUOUS
10
5.68955
20
-4.85619
11
5.71205
21
-4.85619
0
LINE
8
BLACK
6
CONTINUOUS
10
5.71205
20
-4.85619
11
5.7233
21
-4.85056
0
LINE
8
BLACK
6
CONTINUOUS
10
5.7233
20
-4.85056
11
5.72892
21
-4.84494
0
LINE
8
BLACK
6
CONTINUOUS
10
5.72892
20
-4.84494
11
5.74017
21
-4.82807
0
LINE
8
BLACK
6
CONTINUOUS
10
5.74017
20
-4.82807
11
5.74579
21
-4.80557
0
LINE
8
BLACK
6
CONTINUOUS
10
5.74579
20
-4.80557
11
5.74579
21
-4.76057
0
LINE
8
BLACK
6
CONTINUOUS
10
5.74579
20
-4.76057
11
5.74017
21
-4.74933
0
LINE
8
BLACK
6
CONTINUOUS
10
5.74017
20
-4.74933
11
5.73455
21
-4.7437
0
LINE
8
BLACK
6
CONTINUOUS
10
5.73455
20
-4.7437
11
5.7233
21
-4.73808
0
LINE
8
BLACK
6
CONTINUOUS
10
5.7233
20
-4.73808
11
5.7008
21
-4.73808
0
LINE
8
BLACK
6
CONTINUOUS
10
5.7008
20
-4.73808
11
5.68955
21
-4.7437
0
LINE
8
BLACK
6
CONTINUOUS
10
5.68955
20
-4.7437
11
5.68393
21
-4.74933
0
LINE
8
BLACK
6
CONTINUOUS
10
5.68393
20
-4.74933
11
5.6783
21
-4.76057
0
LINE
8
BLACK
6
CONTINUOUS
10
5.6783
20
-4.76057
11
5.6783
21
-4.7887
0
LINE
8
BLACK
6
CONTINUOUS
10
5.6783
20
-4.7887
11
5.68393
21
-4.79994
0
LINE
8
BLACK
6
CONTINUOUS
10
5.68393
20
-4.79994
11
5.68955
21
-4.80557
0
LINE
8
BLACK
6
CONTINUOUS
10
5.68955
20
-4.80557
11
5.7008
21
-4.81119
0
LINE
8
BLACK
6
CONTINUOUS
10
5.7008
20
-4.81119
11
5.7233
21
-4.81119
0
LINE
8
BLACK
6
CONTINUOUS
10
5.7233
20
-4.81119
11
5.73455
21
-4.80557
0
LINE
8
BLACK
6
CONTINUOUS
10
5.73455
20
-4.80557
11
5.74017
21
-4.79994
0
LINE
8
BLACK
6
CONTINUOUS
10
5.74017
20
-4.79994
11
5.74579
21
-4.7887
0
LINE
8
BLACK
6
CONTINUOUS
10
5.84703
20
-4.73808
11
5.82453
21
-4.73808
0
LINE
8
BLACK
6
CONTINUOUS
10
5.82453
20
-4.73808
11
5.81329
21
-4.7437
0
LINE
8
BLACK
6
CONTINUOUS
10
5.81329
20
-4.7437
11
5.80766
21
-4.74933
0
LINE
8
BLACK
6
CONTINUOUS
10
5.80766
20
-4.74933
11
5.79641
21
-4.7662
0
LINE
8
BLACK
6
CONTINUOUS
10
5.79641
20
-4.7662
11
5.79079
21
-4.7887
0
LINE
8
BLACK
6
CONTINUOUS
10
5.79079
20
-4.7887
11
5.79079
21
-4.83369
0
LINE
8
BLACK
6
CONTINUOUS
10
5.79079
20
-4.83369
11
5.79641
21
-4.84494
0
LINE
8
BLACK
6
CONTINUOUS
10
5.79641
20
-4.84494
11
5.80204
21
-4.85056
0
LINE
8
BLACK
6
CONTINUOUS
10
5.80204
20
-4.85056
11
5.81329
21
-4.85619
0
LINE
8
BLACK
6
CONTINUOUS
10
5.81329
20
-4.85619
11
5.83578
21
-4.85619
0
LINE
8
BLACK
6
CONTINUOUS
10
5.83578
20
-4.85619
11
5.84703
21
-4.85056
0
LINE
8
BLACK
6
CONTINUOUS
10
5.84703
20
-4.85056
11
5.85266
21
-4.84494
0
LINE
8
BLACK
6
CONTINUOUS
10
5.85266
20
-4.84494
11
5.85828
21
-4.83369
0
LINE
8
BLACK
6
CONTINUOUS
10
5.85828
20
-4.83369
11
5.85828
21
-4.80557
0
LINE
8
BLACK
6
CONTINUOUS
10
5.85828
20
-4.80557
11
5.85266
21
-4.79432
0
LINE
8
BLACK
6
CONTINUOUS
10
5.85266
20
-4.79432
11
5.84703
21
-4.7887
0
LINE
8
BLACK
6
CONTINUOUS
10
5.84703
20
-4.7887
11
5.83578
21
-4.78307
0
LINE
8
BLACK
6
CONTINUOUS
10
5.83578
20
-4.78307
11
5.81329
21
-4.78307
0
LINE
8
BLACK
6
CONTINUOUS
10
5.81329
20
-4.78307
11
5.80204
21
-4.7887
0
LINE
8
BLACK
6
CONTINUOUS
10
5.80204
20
-4.7887
11
5.79641
21
-4.79432
0
LINE
8
BLACK
6
CONTINUOUS
10
5.79641
20
-4.79432
11
5.79079
21
-4.80557
0
LINE
8
BLACK
6
CONTINUOUS
10
5.99889
20
-4.85619
11
5.99889
21
-4.73808
0
LINE
8
BLACK
6
CONTINUOUS
10
6.04951
20
-4.85619
11
6.04951
21
-4.79432
0
LINE
8
BLACK
6
CONTINUOUS
10
6.04951
20
-4.79432
11
6.04388
21
-4.78307
0
LINE
8
BLACK
6
CONTINUOUS
10
6.04388
20
-4.78307
11
6.03263
21
-4.77745
0
LINE
8
BLACK
6
CONTINUOUS
10
6.03263
20
-4.77745
11
6.01576
21
-4.77745
0
LINE
8
BLACK
6
CONTINUOUS
10
6.01576
20
-4.77745
11
6.00451
21
-4.78307
0
LINE
8
BLACK
6
CONTINUOUS
10
6.00451
20
-4.78307
11
5.99889
21
-4.7887
0
LINE
8
BLACK
6
CONTINUOUS
10
6.12262
20
-4.85619
11
6.11137
21
-4.85056
0
LINE
8
BLACK
6
CONTINUOUS
10
6.11137
20
-4.85056
11
6.10575
21
-4.84494
0
LINE
8
BLACK
6
CONTINUOUS
10
6.10575
20
-4.84494
11
6.10012
21
-4.83369
0
LINE
8
BLACK
6
CONTINUOUS
10
6.10012
20
-4.83369
11
6.10012
21
-4.79994
0
LINE
8
BLACK
6
CONTINUOUS
10
6.10012
20
-4.79994
11
6.10575
21
-4.7887
0
LINE
8
BLACK
6
CONTINUOUS
10
6.10575
20
-4.7887
11
6.11137
21
-4.78307
0
LINE
8
BLACK
6
CONTINUOUS
10
6.11137
20
-4.78307
11
6.12262
21
-4.77745
0
LINE
8
BLACK
6
CONTINUOUS
10
6.12262
20
-4.77745
11
6.13949
21
-4.77745
0
LINE
8
BLACK
6
CONTINUOUS
10
6.13949
20
-4.77745
11
6.15074
21
-4.78307
0
LINE
8
BLACK
6
CONTINUOUS
10
6.15074
20
-4.78307
11
6.15637
21
-4.7887
0
LINE
8
BLACK
6
CONTINUOUS
10
6.15637
20
-4.7887
11
6.16199
21
-4.79994
0
LINE
8
BLACK
6
CONTINUOUS
10
6.16199
20
-4.79994
11
6.16199
21
-4.83369
0
LINE
8
BLACK
6
CONTINUOUS
10
6.16199
20
-4.83369
11
6.15637
21
-4.84494
0
LINE
8
BLACK
6
CONTINUOUS
10
6.15637
20
-4.84494
11
6.15074
21
-4.85056
0
LINE
8
BLACK
6
CONTINUOUS
10
6.15074
20
-4.85056
11
6.13949
21
-4.85619
0
LINE
8
BLACK
6
CONTINUOUS
10
6.13949
20
-4.85619
11
6.12262
21
-4.85619
0
LINE
8
BLACK
6
CONTINUOUS
10
6.22948
20
-4.85619
11
6.21824
21
-4.85056
0
LINE
8
BLACK
6
CONTINUOUS
10
6.21824
20
-4.85056
11
6.21261
21
-4.83931
0
LINE
8
BLACK
6
CONTINUOUS
10
6.21261
20
-4.83931
11
6.21261
21
-4.73808
0
LINE
8
BLACK
6
CONTINUOUS
10
6.31947
20
-4.85056
11
6.30822
21
-4.85619
0
LINE
8
BLACK
6
CONTINUOUS
10
6.30822
20
-4.85619
11
6.28573
21
-4.85619
0
LINE
8
BLACK
6
CONTINUOUS
10
6.28573
20
-4.85619
11
6.27448
21
-4.85056
0
LINE
8
BLACK
6
CONTINUOUS
10
6.27448
20
-4.85056
11
6.26885
21
-4.83931
0
LINE
8
BLACK
6
CONTINUOUS
10
6.26885
20
-4.83931
11
6.26885
21
-4.79432
0
LINE
8
BLACK
6
CONTINUOUS
10
6.26885
20
-4.79432
11
6.27448
21
-4.78307
0
LINE
8
BLACK
6
CONTINUOUS
10
6.27448
20
-4.78307
11
6.28573
21
-4.77745
0
LINE
8
BLACK
6
CONTINUOUS
10
6.28573
20
-4.77745
11
6.30822
21
-4.77745
0
LINE
8
BLACK
6
CONTINUOUS
10
6.30822
20
-4.77745
11
6.31947
21
-4.78307
0
LINE
8
BLACK
6
CONTINUOUS
10
6.31947
20
-4.78307
11
6.3251
21
-4.79432
0
LINE
8
BLACK
6
CONTINUOUS
10
6.3251
20
-4.79432
11
6.3251
21
-4.80557
0
LINE
8
BLACK
6
CONTINUOUS
10
6.3251
20
-4.80557
11
6.26885
21
-4.81682
0
LINE
8
BLACK
6
CONTINUOUS
10
6.37009
20
-4.85056
11
6.38134
21
-4.85619
0
LINE
8
BLACK
6
CONTINUOUS
10
6.38134
20
-4.85619
11
6.40384
21
-4.85619
0
LINE
8
BLACK
6
CONTINUOUS
10
6.40384
20
-4.85619
11
6.41509
21
-4.85056
0
LINE
8
BLACK
6
CONTINUOUS
10
6.41509
20
-4.85056
11
6.42071
21
-4.83931
0
LINE
8
BLACK
6
CONTINUOUS
10
6.42071
20
-4.83931
11
6.42071
21
-4.83369
0
LINE
8
BLACK
6
CONTINUOUS
10
6.42071
20
-4.83369
11
6.41509
21
-4.82244
0
LINE
8
BLACK
6
CONTINUOUS
10
6.41509
20
-4.82244
11
6.40384
21
-4.81682
0
LINE
8
BLACK
6
CONTINUOUS
10
6.40384
20
-4.81682
11
6.38696
21
-4.81682
0
LINE
8
BLACK
6
CONTINUOUS
10
6.38696
20
-4.81682
11
6.37572
21
-4.81119
0
LINE
8
BLACK
6
CONTINUOUS
10
6.37572
20
-4.81119
11
6.37009
21
-4.79994
0
LINE
8
BLACK
6
CONTINUOUS
10
6.37009
20
-4.79994
11
6.37009
21
-4.79432
0
LINE
8
BLACK
6
CONTINUOUS
10
6.37009
20
-4.79432
11
6.37572
21
-4.78307
0
LINE
8
BLACK
6
CONTINUOUS
10
6.37572
20
-4.78307
11
6.38696
21
-4.77745
0
LINE
8
BLACK
6
CONTINUOUS
10
6.38696
20
-4.77745
11
6.40384
21
-4.77745
0
LINE
8
BLACK
6
CONTINUOUS
10
6.40384
20
-4.77745
11
6.41509
21
-4.78307
0
LINE
8
BLACK
6
CONTINUOUS
10
6.56132
20
-4.81119
11
6.65131
21
-4.81119
0
LINE
8
BLACK
6
CONTINUOUS
10
6.60631
20
-4.85619
11
6.60631
21
-4.7662
0
LINE
8
BLACK
6
CONTINUOUS
10
6.78629
20
-4.73808
11
6.8594
21
-4.73808
0
LINE
8
BLACK
6
CONTINUOUS
10
6.8594
20
-4.73808
11
6.82003
21
-4.78307
0
LINE
8
BLACK
6
CONTINUOUS
10
6.82003
20
-4.78307
11
6.83691
21
-4.78307
0
LINE
8
BLACK
6
CONTINUOUS
10
6.83691
20
-4.78307
11
6.84816
21
-4.7887
0
LINE
8
BLACK
6
CONTINUOUS
10
6.84816
20
-4.7887
11
6.85378
21
-4.79432
0
LINE
8
BLACK
6
CONTINUOUS
10
6.85378
20
-4.79432
11
6.8594
21
-4.80557
0
LINE
8
BLACK
6
CONTINUOUS
10
6.8594
20
-4.80557
11
6.8594
21
-4.83369
0
LINE
8
BLACK
6
CONTINUOUS
10
6.8594
20
-4.83369
11
6.85378
21
-4.84494
0
LINE
8
BLACK
6
CONTINUOUS
10
6.85378
20
-4.84494
11
6.84816
21
-4.85056
0
LINE
8
BLACK
6
CONTINUOUS
10
6.84816
20
-4.85056
11
6.83691
21
-4.85619
0
LINE
8
BLACK
6
CONTINUOUS
10
6.83691
20
-4.85619
11
6.80316
21
-4.85619
0
LINE
8
BLACK
6
CONTINUOUS
10
6.80316
20
-4.85619
11
6.79191
21
-4.85056
0
LINE
8
BLACK
6
CONTINUOUS
10
6.79191
20
-4.85056
11
6.78629
21
-4.84494
0
LINE
8
BLACK
6
CONTINUOUS
10
6.99439
20
-4.85056
11
7.00564
21
-4.85619
0
LINE
8
BLACK
6
CONTINUOUS
10
7.00564
20
-4.85619
11
7.02813
21
-4.85619
0
LINE
8
BLACK
6
CONTINUOUS
10
7.02813
20
-4.85619
11
7.03938
21
-4.85056
0
LINE
8
BLACK
6
CONTINUOUS
10
7.03938
20
-4.85056
11
7.04501
21
-4.83931
0
LINE
8
BLACK
6
CONTINUOUS
10
7.04501
20
-4.83931
11
7.04501
21
-4.83369
0
LINE
8
BLACK
6
CONTINUOUS
10
7.04501
20
-4.83369
11
7.03938
21
-4.82244
0
LINE
8
BLACK
6
CONTINUOUS
10
7.03938
20
-4.82244
11
7.02813
21
-4.81682
0
LINE
8
BLACK
6
CONTINUOUS
10
7.02813
20
-4.81682
11
7.01126
21
-4.81682
0
LINE
8
BLACK
6
CONTINUOUS
10
7.01126
20
-4.81682
11
7.00001
21
-4.81119
0
LINE
8
BLACK
6
CONTINUOUS
10
7.00001
20
-4.81119
11
6.99439
21
-4.79994
0
LINE
8
BLACK
6
CONTINUOUS
10
6.99439
20
-4.79994
11
6.99439
21
-4.79432
0
LINE
8
BLACK
6
CONTINUOUS
10
6.99439
20
-4.79432
11
7.00001
21
-4.78307
0
LINE
8
BLACK
6
CONTINUOUS
10
7.00001
20
-4.78307
11
7.01126
21
-4.77745
0
LINE
8
BLACK
6
CONTINUOUS
10
7.01126
20
-4.77745
11
7.02813
21
-4.77745
0
LINE
8
BLACK
6
CONTINUOUS
10
7.02813
20
-4.77745
11
7.03938
21
-4.78307
0
LINE
8
BLACK
6
CONTINUOUS
10
7.1125
20
-4.85619
11
7.10125
21
-4.85056
0
LINE
8
BLACK
6
CONTINUOUS
10
7.10125
20
-4.85056
11
7.09563
21
-4.83931
0
LINE
8
BLACK
6
CONTINUOUS
10
7.09563
20
-4.83931
11
7.09563
21
-4.73808
0
LINE
8
BLACK
6
CONTINUOUS
10
7.17437
20
-4.85619
11
7.16312
21
-4.85056
0
LINE
8
BLACK
6
CONTINUOUS
10
7.16312
20
-4.85056
11
7.15749
21
-4.84494
0
LINE
8
BLACK
6
CONTINUOUS
10
7.15749
20
-4.84494
11
7.15187
21
-4.83369
0
LINE
8
BLACK
6
CONTINUOUS
10
7.15187
20
-4.83369
11
7.15187
21
-4.79994
0
LINE
8
BLACK
6
CONTINUOUS
10
7.15187
20
-4.79994
11
7.15749
21
-4.7887
0
LINE
8
BLACK
6
CONTINUOUS
10
7.15749
20
-4.7887
11
7.16312
21
-4.78307
0
LINE
8
BLACK
6
CONTINUOUS
10
7.16312
20
-4.78307
11
7.17437
21
-4.77745
0
LINE
8
BLACK
6
CONTINUOUS
10
7.17437
20
-4.77745
11
7.19124
21
-4.77745
0
LINE
8
BLACK
6
CONTINUOUS
10
7.19124
20
-4.77745
11
7.20249
21
-4.78307
0
LINE
8
BLACK
6
CONTINUOUS
10
7.20249
20
-4.78307
11
7.20811
21
-4.7887
0
LINE
8
BLACK
6
CONTINUOUS
10
7.20811
20
-4.7887
11
7.21374
21
-4.79994
0
LINE
8
BLACK
6
CONTINUOUS
10
7.21374
20
-4.79994
11
7.21374
21
-4.83369
0
LINE
8
BLACK
6
CONTINUOUS
10
7.21374
20
-4.83369
11
7.20811
21
-4.84494
0
LINE
8
BLACK
6
CONTINUOUS
10
7.20811
20
-4.84494
11
7.20249
21
-4.85056
0
LINE
8
BLACK
6
CONTINUOUS
10
7.20249
20
-4.85056
11
7.19124
21
-4.85619
0
LINE
8
BLACK
6
CONTINUOUS
10
7.19124
20
-4.85619
11
7.17437
21
-4.85619
0
LINE
8
BLACK
6
CONTINUOUS
10
7.24748
20
-4.77745
11
7.29248
21
-4.77745
0
LINE
8
BLACK
6
CONTINUOUS
10
7.26435
20
-4.73808
11
7.26435
21
-4.83931
0
LINE
8
BLACK
6
CONTINUOUS
10
7.26435
20
-4.83931
11
7.26998
21
-4.85056
0
LINE
8
BLACK
6
CONTINUOUS
10
7.26998
20
-4.85056
11
7.28123
21
-4.85619
0
LINE
8
BLACK
6
CONTINUOUS
10
7.28123
20
-4.85619
11
7.29248
21
-4.85619
0
LINE
8
BLACK
6
CONTINUOUS
10
7.32622
20
-4.85056
11
7.33747
21
-4.85619
0
LINE
8
BLACK
6
CONTINUOUS
10
7.33747
20
-4.85619
11
7.35997
21
-4.85619
0
LINE
8
BLACK
6
CONTINUOUS
10
7.35997
20
-4.85619
11
7.37122
21
-4.85056
0
LINE
8
BLACK
6
CONTINUOUS
10
7.37122
20
-4.85056
11
7.37684
21
-4.83931
0
LINE
8
BLACK
6
CONTINUOUS
10
7.37684
20
-4.83931
11
7.37684
21
-4.83369
0
LINE
8
BLACK
6
CONTINUOUS
10
7.37684
20
-4.83369
11
7.37122
21
-4.82244
0
LINE
8
BLACK
6
CONTINUOUS
10
7.37122
20
-4.82244
11
7.35997
21
-4.81682
0
LINE
8
BLACK
6
CONTINUOUS
10
7.35997
20
-4.81682
11
7.34309
21
-4.81682
0
LINE
8
BLACK
6
CONTINUOUS
10
7.34309
20
-4.81682
11
7.33185
21
-4.81119
0
LINE
8
BLACK
6
CONTINUOUS
10
7.33185
20
-4.81119
11
7.32622
21
-4.79994
0
LINE
8
BLACK
6
CONTINUOUS
10
7.32622
20
-4.79994
11
7.32622
21
-4.79432
0
LINE
8
BLACK
6
CONTINUOUS
10
7.32622
20
-4.79432
11
7.33185
21
-4.78307
0
LINE
8
BLACK
6
CONTINUOUS
10
7.33185
20
-4.78307
11
7.34309
21
-4.77745
0
LINE
8
BLACK
6
CONTINUOUS
10
7.34309
20
-4.77745
11
7.35997
21
-4.77745
0
LINE
8
BLACK
6
CONTINUOUS
10
7.35997
20
-4.77745
11
7.37122
21
-4.78307
0
LINE
8
BLACK
6
CONTINUOUS
10
7.41621
20
-4.90118
11
7.42183
21
-4.89556
0
LINE
8
BLACK
6
CONTINUOUS
10
7.42183
20
-4.89556
11
7.43308
21
-4.87868
0
LINE
8
BLACK
6
CONTINUOUS
10
7.43308
20
-4.87868
11
7.43871
21
-4.86744
0
LINE
8
BLACK
6
CONTINUOUS
10
7.43871
20
-4.86744
11
7.44433
21
-4.85056
0
LINE
8
BLACK
6
CONTINUOUS
10
7.44433
20
-4.85056
11
7.44996
21
-4.82244
0
LINE
8
BLACK
6
CONTINUOUS
10
7.44996
20
-4.82244
11
7.44996
21
-4.79994
0
LINE
8
BLACK
6
CONTINUOUS
10
7.44996
20
-4.79994
11
7.44433
21
-4.77182
0
LINE
8
BLACK
6
CONTINUOUS
10
7.44433
20
-4.77182
11
7.43871
21
-4.75495
0
LINE
8
BLACK
6
CONTINUOUS
10
7.43871
20
-4.75495
11
7.43308
21
-4.7437
0
LINE
8
BLACK
6
CONTINUOUS
10
7.43308
20
-4.7437
11
7.42183
21
-4.72683
0
LINE
8
BLACK
6
CONTINUOUS
10
7.42183
20
-4.72683
11
7.41621
21
-4.7212
0
LINE
8
BLACK
6
CONTINUOUS
10
3.71514
20
-4.91929
11
3.79388
21
-4.99803
0
LINE
8
BLACK
6
CONTINUOUS
10
3.79388
20
-4.91929
11
3.71514
21
-4.99803
0
CIRCLE
8
BLACK
10
3.75451
20
-4.95866
40
0.0393701
0
LINE
8
BLACK
6
CONTINUOUS
10
3.90102
20
-4.90523
11
3.90665
21
-4.89961
0
LINE
8
BLACK
6
CONTINUOUS
10
3.90665
20
-4.89961
11
3.9179
21
-4.89398
0
LINE
8
BLACK
6
CONTINUOUS
10
3.9179
20
-4.89398
11
3.94602
21
-4.89398
0
LINE
8
BLACK
6
CONTINUOUS
10
3.94602
20
-4.89398
11
3.95727
21
-4.89961
0
LINE
8
BLACK
6
CONTINUOUS
10
3.95727
20
-4.89961
11
3.96289
21
-4.90523
0
LINE
8
BLACK
6
CONTINUOUS
10
3.96289
20
-4.90523
11
3.96852
21
-4.91648
0
LINE
8
BLACK
6
CONTINUOUS
10
3.96852
20
-4.91648
11
3.96852
21
-4.92773
0
LINE
8
BLACK
6
CONTINUOUS
10
3.96852
20
-4.92773
11
3.96289
21
-4.9446
0
LINE
8
BLACK
6
CONTINUOUS
10
3.96289
20
-4.9446
11
3.8954
21
-5.01209
0
LINE
8
BLACK
6
CONTINUOUS
10
3.8954
20
-5.01209
11
3.96852
21
-5.01209
0
LINE
8
BLACK
6
CONTINUOUS
10
4.01913
20
-5.00084
11
4.02476
21
-5.00647
0
LINE
8
BLACK
6
CONTINUOUS
10
4.02476
20
-5.00647
11
4.01913
21
-5.01209
0
LINE
8
BLACK
6
CONTINUOUS
10
4.01913
20
-5.01209
11
4.01351
21
-5.00647
0
LINE
8
BLACK
6
CONTINUOUS
10
4.01351
20
-5.00647
11
4.01913
21
-5.00084
0
LINE
8
BLACK
6
CONTINUOUS
10
4.01913
20
-5.00084
11
4.01913
21
-5.01209
0
LINE
8
BLACK
6
CONTINUOUS
10
4.09788
20
-4.89398
11
4.10912
21
-4.89398
0
LINE
8
BLACK
6
CONTINUOUS
10
4.10912
20
-4.89398
11
4.12037
21
-4.89961
0
LINE
8
BLACK
6
CONTINUOUS
10
4.12037
20
-4.89961
11
4.126
21
-4.90523
0
LINE
8
BLACK
6
CONTINUOUS
10
4.126
20
-4.90523
11
4.13162
21
-4.91648
0
LINE
8
BLACK
6
CONTINUOUS
10
4.13162
20
-4.91648
11
4.13725
21
-4.93898
0
LINE
8
BLACK
6
CONTINUOUS
10
4.13725
20
-4.93898
11
4.13725
21
-4.9671
0
LINE
8
BLACK
6
CONTINUOUS
10
4.13725
20
-4.9671
11
4.13162
21
-4.9896
0
LINE
8
BLACK
6
CONTINUOUS
10
4.13162
20
-4.9896
11
4.126
21
-5.00084
0
LINE
8
BLACK
6
CONTINUOUS
10
4.126
20
-5.00084
11
4.12037
21
-5.00647
0
LINE
8
BLACK
6
CONTINUOUS
10
4.12037
20
-5.00647
11
4.10912
21
-5.01209
0
LINE
8
BLACK
6
CONTINUOUS
10
4.10912
20
-5.01209
11
4.09788
21
-5.01209
0
LINE
8
BLACK
6
CONTINUOUS
10
4.09788
20
-5.01209
11
4.08663
21
-5.00647
0
LINE
8
BLACK
6
CONTINUOUS
10
4.08663
20
-5.00647
11
4.081
21
-5.00084
0
LINE
8
BLACK
6
CONTINUOUS
10
4.081
20
-5.00084
11
4.07538
21
-4.9896
0
LINE
8
BLACK
6
CONTINUOUS
10
4.07538
20
-4.9896
11
4.06975
21
-4.9671
0
LINE
8
BLACK
6
CONTINUOUS
10
4.06975
20
-4.9671
11
4.06975
21
-4.93898
0
LINE
8
BLACK
6
CONTINUOUS
10
4.06975
20
-4.93898
11
4.07538
21
-4.91648
0
LINE
8
BLACK
6
CONTINUOUS
10
4.07538
20
-4.91648
11
4.081
21
-4.90523
0
LINE
8
BLACK
6
CONTINUOUS
10
4.081
20
-4.90523
11
4.08663
21
-4.89961
0
LINE
8
BLACK
6
CONTINUOUS
10
4.08663
20
-4.89961
11
4.09788
21
-4.89398
0
LINE
8
BLACK
6
CONTINUOUS
10
4.21036
20
-4.89398
11
4.22161
21
-4.89398
0
LINE
8
BLACK
6
CONTINUOUS
10
4.22161
20
-4.89398
11
4.23286
21
-4.89961
0
LINE
8
BLACK
6
CONTINUOUS
10
4.23286
20
-4.89961
11
4.23848
21
-4.90523
0
LINE
8
BLACK
6
CONTINUOUS
10
4.23848
20
-4.90523
11
4.24411
21
-4.91648
0
LINE
8
BLACK
6
CONTINUOUS
10
4.24411
20
-4.91648
11
4.24973
21
-4.93898
0
LINE
8
BLACK
6
CONTINUOUS
10
4.24973
20
-4.93898
11
4.24973
21
-4.9671
0
LINE
8
BLACK
6
CONTINUOUS
10
4.24973
20
-4.9671
11
4.24411
21
-4.9896
0
LINE
8
BLACK
6
CONTINUOUS
10
4.24411
20
-4.9896
11
4.23848
21
-5.00084
0
LINE
8
BLACK
6
CONTINUOUS
10
4.23848
20
-5.00084
11
4.23286
21
-5.00647
0
LINE
8
BLACK
6
CONTINUOUS
10
4.23286
20
-5.00647
11
4.22161
21
-5.01209
0
LINE
8
BLACK
6
CONTINUOUS
10
4.22161
20
-5.01209
11
4.21036
21
-5.01209
0
LINE
8
BLACK
6
CONTINUOUS
10
4.21036
20
-5.01209
11
4.19911
21
-5.00647
0
LINE
8
BLACK
6
CONTINUOUS
10
4.19911
20
-5.00647
11
4.19349
21
-5.00084
0
LINE
8
BLACK
6
CONTINUOUS
10
4.19349
20
-5.00084
11
4.18786
21
-4.9896
0
LINE
8
BLACK
6
CONTINUOUS
10
4.18786
20
-4.9896
11
4.18224
21
-4.9671
0
LINE
8
BLACK
6
CONTINUOUS
10
4.18224
20
-4.9671
11
4.18224
21
-4.93898
0
LINE
8
BLACK
6
CONTINUOUS
10
4.18224
20
-4.93898
11
4.18786
21
-4.91648
0
LINE
8
BLACK
6
CONTINUOUS
10
4.18786
20
-4.91648
11
4.19349
21
-4.90523
0
LINE
8
BLACK
6
CONTINUOUS
10
4.19349
20
-4.90523
11
4.19911
21
-4.89961
0
LINE
8
BLACK
6
CONTINUOUS
10
4.19911
20
-4.89961
11
4.21036
21
-4.89398
0
LINE
8
BLACK
6
CONTINUOUS
10
4.30035
20
-5.01209
11
4.30035
21
-4.93335
0
LINE
8
BLACK
6
CONTINUOUS
10
4.30035
20
-4.9446
11
4.30597
21
-4.93898
0
LINE
8
BLACK
6
CONTINUOUS
10
4.30597
20
-4.93898
11
4.31722
21
-4.93335
0
LINE
8
BLACK
6
CONTINUOUS
10
4.31722
20
-4.93335
11
4.3341
21
-4.93335
0
LINE
8
BLACK
6
CONTINUOUS
10
4.3341
20
-4.93335
11
4.34534
21
-4.93898
0
LINE
8
BLACK
6
CONTINUOUS
10
4.34534
20
-4.93898
11
4.35097
21
-4.95022
0
LINE
8
BLACK
6
CONTINUOUS
10
4.35097
20
-4.95022
11
4.35097
21
-5.01209
0
LINE
8
BLACK
6
CONTINUOUS
10
4.35097
20
-4.95022
11
4.35659
21
-4.93898
0
LINE
8
BLACK
6
CONTINUOUS
10
4.35659
20
-4.93898
11
4.36784
21
-4.93335
0
LINE
8
BLACK
6
CONTINUOUS
10
4.36784
20
-4.93335
11
4.38471
21
-4.93335
0
LINE
8
BLACK
6
CONTINUOUS
10
4.38471
20
-4.93335
11
4.39596
21
-4.93898
0
LINE
8
BLACK
6
CONTINUOUS
10
4.39596
20
-4.93898
11
4.40159
21
-4.95022
0
LINE
8
BLACK
6
CONTINUOUS
10
4.40159
20
-4.95022
11
4.40159
21
-5.01209
0
LINE
8
BLACK
6
CONTINUOUS
10
4.45783
20
-5.01209
11
4.45783
21
-4.93335
0
LINE
8
BLACK
6
CONTINUOUS
10
4.45783
20
-4.9446
11
4.46345
21
-4.93898
0
LINE
8
BLACK
6
CONTINUOUS
10
4.46345
20
-4.93898
11
4.4747
21
-4.93335
0
LINE
8
BLACK
6
CONTINUOUS
10
4.4747
20
-4.93335
11
4.49158
21
-4.93335
0
LINE
8
BLACK
6
CONTINUOUS
10
4.49158
20
-4.93335
11
4.50282
21
-4.93898
0
LINE
8
BLACK
6
CONTINUOUS
10
4.50282
20
-4.93898
11
4.50845
21
-4.95022
0
LINE
8
BLACK
6
CONTINUOUS
10
4.50845
20
-4.95022
11
4.50845
21
-5.01209
0
LINE
8
BLACK
6
CONTINUOUS
10
4.50845
20
-4.95022
11
4.51407
21
-4.93898
0
LINE
8
BLACK
6
CONTINUOUS
10
4.51407
20
-4.93898
11
4.52532
21
-4.93335
0
LINE
8
BLACK
6
CONTINUOUS
10
4.52532
20
-4.93335
11
4.54219
21
-4.93335
0
LINE
8
BLACK
6
CONTINUOUS
10
4.54219
20
-4.93335
11
4.55344
21
-4.93898
0
LINE
8
BLACK
6
CONTINUOUS
10
4.55344
20
-4.93898
11
4.55907
21
-4.95022
0
LINE
8
BLACK
6
CONTINUOUS
10
4.55907
20
-4.95022
11
4.55907
21
-5.01209
0
LINE
8
BLACK
6
CONTINUOUS
10
4.78966
20
-4.88836
11
4.68843
21
-5.04021
0
LINE
8
BLACK
6
CONTINUOUS
10
4.94152
20
-4.89398
11
4.95277
21
-4.89398
0
LINE
8
BLACK
6
CONTINUOUS
10
4.95277
20
-4.89398
11
4.96402
21
-4.89961
0
LINE
8
BLACK
6
CONTINUOUS
10
4.96402
20
-4.89961
11
4.96964
21
-4.90523
0
LINE
8
BLACK
6
CONTINUOUS
10
4.96964
20
-4.90523
11
4.97527
21
-4.91648
0
LINE
8
BLACK
6
CONTINUOUS
10
4.97527
20
-4.91648
11
4.98089
21
-4.93898
0
LINE
8
BLACK
6
CONTINUOUS
10
4.98089
20
-4.93898
11
4.98089
21
-4.9671
0
LINE
8
BLACK
6
CONTINUOUS
10
4.98089
20
-4.9671
11
4.97527
21
-4.9896
0
LINE
8
BLACK
6
CONTINUOUS
10
4.97527
20
-4.9896
11
4.96964
21
-5.00084
0
LINE
8
BLACK
6
CONTINUOUS
10
4.96964
20
-5.00084
11
4.96402
21
-5.00647
0
LINE
8
BLACK
6
CONTINUOUS
10
4.96402
20
-5.00647
11
4.95277
21
-5.01209
0
LINE
8
BLACK
6
CONTINUOUS
10
4.95277
20
-5.01209
11
4.94152
21
-5.01209
0
LINE
8
BLACK
6
CONTINUOUS
10
4.94152
20
-5.01209
11
4.93027
21
-5.00647
0
LINE
8
BLACK
6
CONTINUOUS
10
4.93027
20
-5.00647
11
4.92465
21
-5.00084
0
LINE
8
BLACK
6
CONTINUOUS
10
4.92465
20
-5.00084
11
4.91902
21
-4.9896
0
LINE
8
BLACK
6
CONTINUOUS
10
4.91902
20
-4.9896
11
4.9134
21
-4.9671
0
LINE
8
BLACK
6
CONTINUOUS
10
4.9134
20
-4.9671
11
4.9134
21
-4.93898
0
LINE
8
BLACK
6
CONTINUOUS
10
4.9134
20
-4.93898
11
4.91902
21
-4.91648
0
LINE
8
BLACK
6
CONTINUOUS
10
4.91902
20
-4.91648
11
4.92465
21
-4.90523
0
LINE
8
BLACK
6
CONTINUOUS
10
4.92465
20
-4.90523
11
4.93027
21
-4.89961
0
LINE
8
BLACK
6
CONTINUOUS
10
4.93027
20
-4.89961
11
4.94152
21
-4.89398
0
LINE
8
BLACK
6
CONTINUOUS
10
5.03151
20
-5.00084
11
5.03713
21
-5.00647
0
LINE
8
BLACK
6
CONTINUOUS
10
5.03713
20
-5.00647
11
5.03151
21
-5.01209
0
LINE
8
BLACK
6
CONTINUOUS
10
5.03151
20
-5.01209
11
5.02588
21
-5.00647
0
LINE
8
BLACK
6
CONTINUOUS
10
5.02588
20
-5.00647
11
5.03151
21
-5.00084
0
LINE
8
BLACK
6
CONTINUOUS
10
5.03151
20
-5.00084
11
5.03151
21
-5.01209
0
LINE
8
BLACK
6
CONTINUOUS
10
5.11025
20
-4.89398
11
5.1215
21
-4.89398
0
LINE
8
BLACK
6
CONTINUOUS
10
5.1215
20
-4.89398
11
5.13275
21
-4.89961
0
LINE
8
BLACK
6
CONTINUOUS
10
5.13275
20
-4.89961
11
5.13837
21
-4.90523
0
LINE
8
BLACK
6
CONTINUOUS
10
5.13837
20
-4.90523
11
5.14399
21
-4.91648
0
LINE
8
BLACK
6
CONTINUOUS
10
5.14399
20
-4.91648
11
5.14962
21
-4.93898
0
LINE
8
BLACK
6
CONTINUOUS
10
5.14962
20
-4.93898
11
5.14962
21
-4.9671
0
LINE
8
BLACK
6
CONTINUOUS
10
5.14962
20
-4.9671
11
5.14399
21
-4.9896
0
LINE
8
BLACK
6
CONTINUOUS
10
5.14399
20
-4.9896
11
5.13837
21
-5.00084
0
LINE
8
BLACK
6
CONTINUOUS
10
5.13837
20
-5.00084
11
5.13275
21
-5.00647
0
LINE
8
BLACK
6
CONTINUOUS
10
5.13275
20
-5.00647
11
5.1215
21
-5.01209
0
LINE
8
BLACK
6
CONTINUOUS
10
5.1215
20
-5.01209
11
5.11025
21
-5.01209
0
LINE
8
BLACK
6
CONTINUOUS
10
5.11025
20
-5.01209
11
5.099
21
-5.00647
0
LINE
8
BLACK
6
CONTINUOUS
10
5.099
20
-5.00647
11
5.09338
21
-5.00084
0
LINE
8
BLACK
6
CONTINUOUS
10
5.09338
20
-5.00084
11
5.08775
21
-4.9896
0
LINE
8
BLACK
6
CONTINUOUS
10
5.08775
20
-4.9896
11
5.08213
21
-4.9671
0
LINE
8
BLACK
6
CONTINUOUS
10
5.08213
20
-4.9671
11
5.08213
21
-4.93898
0
LINE
8
BLACK
6
CONTINUOUS
10
5.08213
20
-4.93898
11
5.08775
21
-4.91648
0
LINE
8
BLACK
6
CONTINUOUS
10
5.08775
20
-4.91648
11
5.09338
21
-4.90523
0
LINE
8
BLACK
6
CONTINUOUS
10
5.09338
20
-4.90523
11
5.099
21
-4.89961
0
LINE
8
BLACK
6
CONTINUOUS
10
5.099
20
-4.89961
11
5.11025
21
-4.89398
0
LINE
8
BLACK
6
CONTINUOUS
10
5.18899
20
-4.89398
11
5.26773
21
-4.89398
0
LINE
8
BLACK
6
CONTINUOUS
10
5.26773
20
-4.89398
11
5.21711
21
-5.01209
0
LINE
8
BLACK
6
CONTINUOUS
10
5.31835
20
-5.01209
11
5.34084
21
-5.01209
0
LINE
8
BLACK
6
CONTINUOUS
10
5.34084
20
-5.01209
11
5.35209
21
-5.00647
0
LINE
8
BLACK
6
CONTINUOUS
10
5.35209
20
-5.00647
11
5.35772
21
-5.00084
0
LINE
8
BLACK
6
CONTINUOUS
10
5.35772
20
-5.00084
11
5.36897
21
-4.98397
0
LINE
8
BLACK
6
CONTINUOUS
10
5.36897
20
-4.98397
11
5.37459
21
-4.96147
0
LINE
8
BLACK
6
CONTINUOUS
10
5.37459
20
-4.96147
11
5.37459
21
-4.91648
0
LINE
8
BLACK
6
CONTINUOUS
10
5.37459
20
-4.91648
11
5.36897
21
-4.90523
0
LINE
8
BLACK
6
CONTINUOUS
10
5.36897
20
-4.90523
11
5.36334
21
-4.89961
0
LINE
8
BLACK
6
CONTINUOUS
10
5.36334
20
-4.89961
11
5.35209
21
-4.89398
0
LINE
8
BLACK
6
CONTINUOUS
10
5.35209
20
-4.89398
11
5.3296
21
-4.89398
0
LINE
8
BLACK
6
CONTINUOUS
10
5.3296
20
-4.89398
11
5.31835
21
-4.89961
0
LINE
8
BLACK
6
CONTINUOUS
10
5.31835
20
-4.89961
11
5.31272
21
-4.90523
0
LINE
8
BLACK
6
CONTINUOUS
10
5.31272
20
-4.90523
11
5.3071
21
-4.91648
0
LINE
8
BLACK
6
CONTINUOUS
10
5.3071
20
-4.91648
11
5.3071
21
-4.9446
0
LINE
8
BLACK
6
CONTINUOUS
10
5.3071
20
-4.9446
11
5.31272
21
-4.95585
0
LINE
8
BLACK
6
CONTINUOUS
10
5.31272
20
-4.95585
11
5.31835
21
-4.96147
0
LINE
8
BLACK
6
CONTINUOUS
10
5.31835
20
-4.96147
11
5.3296
21
-4.9671
0
LINE
8
BLACK
6
CONTINUOUS
10
5.3296
20
-4.9671
11
5.35209
21
-4.9671
0
LINE
8
BLACK
6
CONTINUOUS
10
5.35209
20
-4.9671
11
5.36334
21
-4.96147
0
LINE
8
BLACK
6
CONTINUOUS
10
5.36334
20
-4.96147
11
5.36897
21
-4.95585
0
LINE
8
BLACK
6
CONTINUOUS
10
5.36897
20
-4.95585
11
5.37459
21
-4.9446
0
LINE
8
BLACK
6
CONTINUOUS
10
5.41958
20
-4.89398
11
5.41958
21
-4.91648
0
LINE
8
BLACK
6
CONTINUOUS
10
5.46458
20
-4.89398
11
5.46458
21
-4.91648
0
LINE
8
BLACK
6
CONTINUOUS
10
5.63893
20
-5.05709
11
5.63331
21
-5.05146
0
LINE
8
BLACK
6
CONTINUOUS
10
5.63331
20
-5.05146
11
5.62206
21
-5.03459
0
LINE
8
BLACK
6
CONTINUOUS
10
5.62206
20
-5.03459
11
5.61644
21
-5.02334
0
LINE
8
BLACK
6
CONTINUOUS
10
5.61644
20
-5.02334
11
5.61081
21
-5.00647
0
LINE
8
BLACK
6
CONTINUOUS
10
5.61081
20
-5.00647
11
5.60519
21
-4.97835
0
LINE
8
BLACK
6
CONTINUOUS
10
5.60519
20
-4.97835
11
5.60519
21
-4.95585
0
LINE
8
BLACK
6
CONTINUOUS
10
5.60519
20
-4.95585
11
5.61081
21
-4.92773
0
LINE
8
BLACK
6
CONTINUOUS
10
5.61081
20
-4.92773
11
5.61644
21
-4.91085
0
LINE
8
BLACK
6
CONTINUOUS
10
5.61644
20
-4.91085
11
5.62206
21
-4.89961
0
LINE
8
BLACK
6
CONTINUOUS
10
5.62206
20
-4.89961
11
5.63331
21
-4.88273
0
LINE
8
BLACK
6
CONTINUOUS
10
5.63331
20
-4.88273
11
5.63893
21
-4.87711
0
LINE
8
BLACK
6
CONTINUOUS
10
5.70642
20
-4.89398
11
5.71767
21
-4.89398
0
LINE
8
BLACK
6
CONTINUOUS
10
5.71767
20
-4.89398
11
5.72892
21
-4.89961
0
LINE
8
BLACK
6
CONTINUOUS
10
5.72892
20
-4.89961
11
5.73455
21
-4.90523
0
LINE
8
BLACK
6
CONTINUOUS
10
5.73455
20
-4.90523
11
5.74017
21
-4.91648
0
LINE
8
BLACK
6
CONTINUOUS
10
5.74017
20
-4.91648
11
5.74579
21
-4.93898
0
LINE
8
BLACK
6
CONTINUOUS
10
5.74579
20
-4.93898
11
5.74579
21
-4.9671
0
LINE
8
BLACK
6
CONTINUOUS
10
5.74579
20
-4.9671
11
5.74017
21
-4.9896
0
LINE
8
BLACK
6
CONTINUOUS
10
5.74017
20
-4.9896
11
5.73455
21
-5.00084
0
LINE
8
BLACK
6
CONTINUOUS
10
5.73455
20
-5.00084
11
5.72892
21
-5.00647
0
LINE
8
BLACK
6
CONTINUOUS
10
5.72892
20
-5.00647
11
5.71767
21
-5.01209
0
LINE
8
BLACK
6
CONTINUOUS
10
5.71767
20
-5.01209
11
5.70642
21
-5.01209
0
LINE
8
BLACK
6
CONTINUOUS
10
5.70642
20
-5.01209
11
5.69518
21
-5.00647
0
LINE
8
BLACK
6
CONTINUOUS
10
5.69518
20
-5.00647
11
5.68955
21
-5.00084
0
LINE
8
BLACK
6
CONTINUOUS
10
5.68955
20
-5.00084
11
5.68393
21
-4.9896
0
LINE
8
BLACK
6
CONTINUOUS
10
5.68393
20
-4.9896
11
5.6783
21
-4.9671
0
LINE
8
BLACK
6
CONTINUOUS
10
5.6783
20
-4.9671
11
5.6783
21
-4.93898
0
LINE
8
BLACK
6
CONTINUOUS
10
5.6783
20
-4.93898
11
5.68393
21
-4.91648
0
LINE
8
BLACK
6
CONTINUOUS
10
5.68393
20
-4.91648
11
5.68955
21
-4.90523
0
LINE
8
BLACK
6
CONTINUOUS
10
5.68955
20
-4.90523
11
5.69518
21
-4.89961
0
LINE
8
BLACK
6
CONTINUOUS
10
5.69518
20
-4.89961
11
5.70642
21
-4.89398
0
LINE
8
BLACK
6
CONTINUOUS
10
5.8864
20
-5.01209
11
5.8864
21
-4.89398
0
LINE
8
BLACK
6
CONTINUOUS
10
5.93702
20
-5.01209
11
5.93702
21
-4.95022
0
LINE
8
BLACK
6
CONTINUOUS
10
5.93702
20
-4.95022
11
5.9314
21
-4.93898
0
LINE
8
BLACK
6
CONTINUOUS
10
5.9314
20
-4.93898
11
5.92015
21
-4.93335
0
LINE
8
BLACK
6
CONTINUOUS
10
5.92015
20
-4.93335
11
5.90327
21
-4.93335
0
LINE
8
BLACK
6
CONTINUOUS
10
5.90327
20
-4.93335
11
5.89203
21
-4.93898
0
LINE
8
BLACK
6
CONTINUOUS
10
5.89203
20
-4.93898
11
5.8864
21
-4.9446
0
LINE
8
BLACK
6
CONTINUOUS
10
6.01014
20
-5.01209
11
5.99889
21
-5.00647
0
LINE
8
BLACK
6
CONTINUOUS
10
5.99889
20
-5.00647
11
5.99326
21
-5.00084
0
LINE
8
BLACK
6
CONTINUOUS
10
5.99326
20
-5.00084
11
5.98764
21
-4.9896
0
LINE
8
BLACK
6
CONTINUOUS
10
5.98764
20
-4.9896
11
5.98764
21
-4.95585
0
LINE
8
BLACK
6
CONTINUOUS
10
5.98764
20
-4.95585
11
5.99326
21
-4.9446
0
LINE
8
BLACK
6
CONTINUOUS
10
5.99326
20
-4.9446
11
5.99889
21
-4.93898
0
LINE
8
BLACK
6
CONTINUOUS
10
5.99889
20
-4.93898
11
6.01014
21
-4.93335
0
LINE
8
BLACK
6
CONTINUOUS
10
6.01014
20
-4.93335
11
6.02701
21
-4.93335
0
LINE
8
BLACK
6
CONTINUOUS
10
6.02701
20
-4.93335
11
6.03826
21
-4.93898
0
LINE
8
BLACK
6
CONTINUOUS
10
6.03826
20
-4.93898
11
6.04388
21
-4.9446
0
LINE
8
BLACK
6
CONTINUOUS
10
6.04388
20
-4.9446
11
6.04951
21
-4.95585
0
LINE
8
BLACK
6
CONTINUOUS
10
6.04951
20
-4.95585
11
6.04951
21
-4.9896
0
LINE
8
BLACK
6
CONTINUOUS
10
6.04951
20
-4.9896
11
6.04388
21
-5.00084
0
LINE
8
BLACK
6
CONTINUOUS
10
6.04388
20
-5.00084
11
6.03826
21
-5.00647
0
LINE
8
BLACK
6
CONTINUOUS
10
6.03826
20
-5.00647
11
6.02701
21
-5.01209
0
LINE
8
BLACK
6
CONTINUOUS
10
6.02701
20
-5.01209
11
6.01014
21
-5.01209
0
LINE
8
BLACK
6
CONTINUOUS
10
6.117
20
-5.01209
11
6.10575
21
-5.00647
0
LINE
8
BLACK
6
CONTINUOUS
10
6.10575
20
-5.00647
11
6.10012
21
-4.99522
0
LINE
8
BLACK
6
CONTINUOUS
10
6.10012
20
-4.99522
11
6.10012
21
-4.89398
0
LINE
8
BLACK
6
CONTINUOUS
10
6.20699
20
-5.00647
11
6.19574
21
-5.01209
0
LINE
8
BLACK
6
CONTINUOUS
10
6.19574
20
-5.01209
11
6.17324
21
-5.01209
0
LINE
8
BLACK
6
CONTINUOUS
10
6.17324
20
-5.01209
11
6.16199
21
-5.00647
0
LINE
8
BLACK
6
CONTINUOUS
10
6.16199
20
-5.00647
11
6.15637
21
-4.99522
0
LINE
8
BLACK
6
CONTINUOUS
10
6.15637
20
-4.99522
11
6.15637
21
-4.95022
0
LINE
8
BLACK
6
CONTINUOUS
10
6.15637
20
-4.95022
11
6.16199
21
-4.93898
0
LINE
8
BLACK
6
CONTINUOUS
10
6.16199
20
-4.93898
11
6.17324
21
-4.93335
0
LINE
8
BLACK
6
CONTINUOUS
10
6.17324
20
-4.93335
11
6.19574
21
-4.93335
0
LINE
8
BLACK
6
CONTINUOUS
10
6.19574
20
-4.93335
11
6.20699
21
-4.93898
0
LINE
8
BLACK
6
CONTINUOUS
10
6.20699
20
-4.93898
11
6.21261
21
-4.95022
0
LINE
8
BLACK
6
CONTINUOUS
10
6.21261
20
-4.95022
11
6.21261
21
-4.96147
0
LINE
8
BLACK
6
CONTINUOUS
10
6.21261
20
-4.96147
11
6.15637
21
-4.97272
0
LINE
8
BLACK
6
CONTINUOUS
10
6.25761
20
-5.00647
11
6.26885
21
-5.01209
0
LINE
8
BLACK
6
CONTINUOUS
10
6.26885
20
-5.01209
11
6.29135
21
-5.01209
0
LINE
8
BLACK
6
CONTINUOUS
10
6.29135
20
-5.01209
11
6.3026
21
-5.00647
0
LINE
8
BLACK
6
CONTINUOUS
10
6.3026
20
-5.00647
11
6.30822
21
-4.99522
0
LINE
8
BLACK
6
CONTINUOUS
10
6.30822
20
-4.99522
11
6.30822
21
-4.9896
0
LINE
8
BLACK
6
CONTINUOUS
10
6.30822
20
-4.9896
11
6.3026
21
-4.97835
0
LINE
8
BLACK
6
CONTINUOUS
10
6.3026
20
-4.97835
11
6.29135
21
-4.97272
0
LINE
8
BLACK
6
CONTINUOUS
10
6.29135
20
-4.97272
11
6.27448
21
-4.97272
0
LINE
8
BLACK
6
CONTINUOUS
10
6.27448
20
-4.97272
11
6.26323
21
-4.9671
0
LINE
8
BLACK
6
CONTINUOUS
10
6.26323
20
-4.9671
11
6.25761
21
-4.95585
0
LINE
8
BLACK
6
CONTINUOUS
10
6.25761
20
-4.95585
11
6.25761
21
-4.95022
0
LINE
8
BLACK
6
CONTINUOUS
10
6.25761
20
-4.95022
11
6.26323
21
-4.93898
0
LINE
8
BLACK
6
CONTINUOUS
10
6.26323
20
-4.93898
11
6.27448
21
-4.93335
0
LINE
8
BLACK
6
CONTINUOUS
10
6.27448
20
-4.93335
11
6.29135
21
-4.93335
0
LINE
8
BLACK
6
CONTINUOUS
10
6.29135
20
-4.93335
11
6.3026
21
-4.93898
0
LINE
8
BLACK
6
CONTINUOUS
10
6.44883
20
-4.9671
11
6.53882
21
-4.9671
0
LINE
8
BLACK
6
CONTINUOUS
10
6.49383
20
-5.01209
11
6.49383
21
-4.9221
0
LINE
8
BLACK
6
CONTINUOUS
10
6.73567
20
-4.93335
11
6.73567
21
-5.01209
0
LINE
8
BLACK
6
CONTINUOUS
10
6.70755
20
-4.88836
11
6.67943
21
-4.97272
0
LINE
8
BLACK
6
CONTINUOUS
10
6.67943
20
-4.97272
11
6.75254
21
-4.97272
0
LINE
8
BLACK
6
CONTINUOUS
10
6.8819
20
-5.00647
11
6.89315
21
-5.01209
0
LINE
8
BLACK
6
CONTINUOUS
10
6.89315
20
-5.01209
11
6.91565
21
-5.01209
0
LINE
8
BLACK
6
CONTINUOUS
10
6.91565
20
-5.01209
11
6.9269
21
-5.00647
0
LINE
8
BLACK
6
CONTINUOUS
10
6.9269
20
-5.00647
11
6.93252
21
-4.99522
0
LINE
8
BLACK
6
CONTINUOUS
10
6.93252
20
-4.99522
11
6.93252
21
-4.9896
0
LINE
8
BLACK
6
CONTINUOUS
10
6.93252
20
-4.9896
11
6.9269
21
-4.97835
0
LINE
8
BLACK
6
CONTINUOUS
10
6.9269
20
-4.97835
11
6.91565
21
-4.97272
0
LINE
8
BLACK
6
CONTINUOUS
10
6.91565
20
-4.97272
11
6.89877
21
-4.97272
0
LINE
8
BLACK
6
CONTINUOUS
10
6.89877
20
-4.97272
11
6.88753
21
-4.9671
0
LINE
8
BLACK
6
CONTINUOUS
10
6.88753
20
-4.9671
11
6.8819
21
-4.95585
0
LINE
8
BLACK
6
CONTINUOUS
10
6.8819
20
-4.95585
11
6.8819
21
-4.95022
0
LINE
8
BLACK
6
CONTINUOUS
10
6.8819
20
-4.95022
11
6.88753
21
-4.93898
0
LINE
8
BLACK
6
CONTINUOUS
10
6.88753
20
-4.93898
11
6.89877
21
-4.93335
0
LINE
8
BLACK
6
CONTINUOUS
10
6.89877
20
-4.93335
11
6.91565
21
-4.93335
0
LINE
8
BLACK
6
CONTINUOUS
10
6.91565
20
-4.93335
11
6.9269
21
-4.93898
0
LINE
8
BLACK
6
CONTINUOUS
10
7.00001
20
-5.01209
11
6.98876
21
-5.00647
0
LINE
8
BLACK
6
CONTINUOUS
10
6.98876
20
-5.00647
11
6.98314
21
-4.99522
0
LINE
8
BLACK
6
CONTINUOUS
10
6.98314
20
-4.99522
11
6.98314
21
-4.89398
0
LINE
8
BLACK
6
CONTINUOUS
10
7.06188
20
-5.01209
11
7.05063
21
-5.00647
0
LINE
8
BLACK
6
CONTINUOUS
10
7.05063
20
-5.00647
11
7.04501
21
-5.00084
0
LINE
8
BLACK
6
CONTINUOUS
10
7.04501
20
-5.00084
11
7.03938
21
-4.9896
0
LINE
8
BLACK
6
CONTINUOUS
10
7.03938
20
-4.9896
11
7.03938
21
-4.95585
0
LINE
8
BLACK
6
CONTINUOUS
10
7.03938
20
-4.95585
11
7.04501
21
-4.9446
0
LINE
8
BLACK
6
CONTINUOUS
10
7.04501
20
-4.9446
11
7.05063
21
-4.93898
0
LINE
8
BLACK
6
CONTINUOUS
10
7.05063
20
-4.93898
11
7.06188
21
-4.93335
0
LINE
8
BLACK
6
CONTINUOUS
10
7.06188
20
-4.93335
11
7.07875
21
-4.93335
0
LINE
8
BLACK
6
CONTINUOUS
10
7.07875
20
-4.93335
11
7.09
21
-4.93898
0
LINE
8
BLACK
6
CONTINUOUS
10
7.09
20
-4.93898
11
7.09563
21
-4.9446
0
LINE
8
BLACK
6
CONTINUOUS
10
7.09563
20
-4.9446
11
7.10125
21
-4.95585
0
LINE
8
BLACK
6
CONTINUOUS
10
7.10125
20
-4.95585
11
7.10125
21
-4.9896
0
LINE
8
BLACK
6
CONTINUOUS
10
7.10125
20
-4.9896
11
7.09563
21
-5.00084
0
LINE
8
BLACK
6
CONTINUOUS
10
7.09563
20
-5.00084
11
7.09
21
-5.00647
0
LINE
8
BLACK
6
CONTINUOUS
10
7.09
20
-5.00647
11
7.07875
21
-5.01209
0
LINE
8
BLACK
6
CONTINUOUS
10
7.07875
20
-5.01209
11
7.06188
21
-5.01209
0
LINE
8
BLACK
6
CONTINUOUS
10
7.135
20
-4.93335
11
7.17999
21
-4.93335
0
LINE
8
BLACK
6
CONTINUOUS
10
7.15187
20
-4.89398
11
7.15187
21
-4.99522
0
LINE
8
BLACK
6
CONTINUOUS
10
7.15187
20
-4.99522
11
7.15749
21
-5.00647
0
LINE
8
BLACK
6
CONTINUOUS
10
7.15749
20
-5.00647
11
7.16874
21
-5.01209
0
LINE
8
BLACK
6
CONTINUOUS
10
7.16874
20
-5.01209
11
7.17999
21
-5.01209
0
LINE
8
BLACK
6
CONTINUOUS
10
7.21374
20
-5.00647
11
7.22498
21
-5.01209
0
LINE
8
BLACK
6
CONTINUOUS
10
7.22498
20
-5.01209
11
7.24748
21
-5.01209
0
LINE
8
BLACK
6
CONTINUOUS
10
7.24748
20
-5.01209
11
7.25873
21
-5.00647
0
LINE
8
BLACK
6
CONTINUOUS
10
7.25873
20
-5.00647
11
7.26435
21
-4.99522
0
LINE
8
BLACK
6
CONTINUOUS
10
7.26435
20
-4.99522
11
7.26435
21
-4.9896
0
LINE
8
BLACK
6
CONTINUOUS
10
7.26435
20
-4.9896
11
7.25873
21
-4.97835
0
LINE
8
BLACK
6
CONTINUOUS
10
7.25873
20
-4.97835
11
7.24748
21
-4.97272
0
LINE
8
BLACK
6
CONTINUOUS
10
7.24748
20
-4.97272
11
7.23061
21
-4.97272
0
LINE
8
BLACK
6
CONTINUOUS
10
7.23061
20
-4.97272
11
7.21936
21
-4.9671
0
LINE
8
BLACK
6
CONTINUOUS
10
7.21936
20
-4.9671
11
7.21374
21
-4.95585
0
LINE
8
BLACK
6
CONTINUOUS
10
7.21374
20
-4.95585
11
7.21374
21
-4.95022
0
LINE
8
BLACK
6
CONTINUOUS
10
7.21374
20
-4.95022
11
7.21936
21
-4.93898
0
LINE
8
BLACK
6
CONTINUOUS
10
7.21936
20
-4.93898
11
7.23061
21
-4.93335
0
LINE
8
BLACK
6
CONTINUOUS
10
7.23061
20
-4.93335
11
7.24748
21
-4.93335
0
LINE
8
BLACK
6
CONTINUOUS
10
7.24748
20
-4.93335
11
7.25873
21
-4.93898
0
LINE
8
BLACK
6
CONTINUOUS
10
7.30372
20
-5.05709
11
7.30935
21
-5.05146
0
LINE
8
BLACK
6
CONTINUOUS
10
7.30935
20
-5.05146
11
7.3206
21
-5.03459
0
LINE
8
BLACK
6
CONTINUOUS
10
7.3206
20
-5.03459
11
7.32622
21
-5.02334
0
LINE
8
BLACK
6
CONTINUOUS
10
7.32622
20
-5.02334
11
7.33185
21
-5.00647
0
LINE
8
BLACK
6
CONTINUOUS
10
7.33185
20
-5.00647
11
7.33747
21
-4.97835
0
LINE
8
BLACK
6
CONTINUOUS
10
7.33747
20
-4.97835
11
7.33747
21
-4.95585
0
LINE
8
BLACK
6
CONTINUOUS
10
7.33747
20
-4.95585
11
7.33185
21
-4.92773
0
LINE
8
BLACK
6
CONTINUOUS
10
7.33185
20
-4.92773
11
7.32622
21
-4.91085
0
LINE
8
BLACK
6
CONTINUOUS
10
7.32622
20
-4.91085
11
7.3206
21
-4.89961
0
LINE
8
BLACK
6
CONTINUOUS
10
7.3206
20
-4.89961
11
7.30935
21
-4.88273
0
LINE
8
BLACK
6
CONTINUOUS
10
7.30935
20
-4.88273
11
7.30372
21
-4.87711
0
LINE
8
BLACK
6
CONTINUOUS
10
3.66888
20
-5.05207
11
3.79388
21
-5.17707
0
LINE
8
BLACK
6
CONTINUOUS
10
3.79388
20
-5.05207
11
3.66888
21
-5.17707
0
LINE
8
BLACK
6
CONTINUOUS
10
3.73138
20
-5.05207
11
3.73138
21
-5.17707
0
LINE
8
BLACK
6
CONTINUOUS
10
3.66888
20
-5.11457
11
3.79388
21
-5.11457
0
LINE
8
BLACK
6
CONTINUOUS
10
3.8954
20
-5.04989
11
3.96852
21
-5.04989
0
LINE
8
BLACK
6
CONTINUOUS
10
3.96852
20
-5.04989
11
3.92915
21
-5.09488
0
LINE
8
BLACK
6
CONTINUOUS
10
3.92915
20
-5.09488
11
3.94602
21
-5.09488
0
LINE
8
BLACK
6
CONTINUOUS
10
3.94602
20
-5.09488
11
3.95727
21
-5.10051
0
LINE
8
BLACK
6
CONTINUOUS
10
3.95727
20
-5.10051
11
3.96289
21
-5.10613
0
LINE
8
BLACK
6
CONTINUOUS
10
3.96289
20
-5.10613
11
3.96852
21
-5.11738
0
LINE
8
BLACK
6
CONTINUOUS
10
3.96852
20
-5.11738
11
3.96852
21
-5.1455
0
LINE
8
BLACK
6
CONTINUOUS
10
3.96852
20
-5.1455
11
3.96289
21
-5.15675
0
LINE
8
BLACK
6
CONTINUOUS
10
3.96289
20
-5.15675
11
3.95727
21
-5.16237
0
LINE
8
BLACK
6
CONTINUOUS
10
3.95727
20
-5.16237
11
3.94602
21
-5.168
0
LINE
8
BLACK
6
CONTINUOUS
10
3.94602
20
-5.168
11
3.91227
21
-5.168
0
LINE
8
BLACK
6
CONTINUOUS
10
3.91227
20
-5.168
11
3.90102
21
-5.16237
0
LINE
8
BLACK
6
CONTINUOUS
10
3.90102
20
-5.16237
11
3.8954
21
-5.15675
0
LINE
8
BLACK
6
CONTINUOUS
10
4.01913
20
-5.15675
11
4.02476
21
-5.16237
0
LINE
8
BLACK
6
CONTINUOUS
10
4.02476
20
-5.16237
11
4.01913
21
-5.168
0
LINE
8
BLACK
6
CONTINUOUS
10
4.01913
20
-5.168
11
4.01351
21
-5.16237
0
LINE
8
BLACK
6
CONTINUOUS
10
4.01351
20
-5.16237
11
4.01913
21
-5.15675
0
LINE
8
BLACK
6
CONTINUOUS
10
4.01913
20
-5.15675
11
4.01913
21
-5.168
0
LINE
8
BLACK
6
CONTINUOUS
10
4.13725
20
-5.168
11
4.06975
21
-5.168
0
LINE
8
BLACK
6
CONTINUOUS
10
4.1035
20
-5.168
11
4.1035
21
-5.04989
0
LINE
8
BLACK
6
CONTINUOUS
10
4.1035
20
-5.04989
11
4.09225
21
-5.06676
0
LINE
8
BLACK
6
CONTINUOUS
10
4.09225
20
-5.06676
11
4.081
21
-5.07801
0
LINE
8
BLACK
6
CONTINUOUS
10
4.081
20
-5.07801
11
4.06975
21
-5.08363
0
LINE
8
BLACK
6
CONTINUOUS
10
4.17662
20
-5.04989
11
4.25536
21
-5.04989
0
LINE
8
BLACK
6
CONTINUOUS
10
4.25536
20
-5.04989
11
4.20474
21
-5.168
0
LINE
8
BLACK
6
CONTINUOUS
10
4.30035
20
-5.168
11
4.30035
21
-5.08926
0
LINE
8
BLACK
6
CONTINUOUS
10
4.30035
20
-5.10051
11
4.30597
21
-5.09488
0
LINE
8
BLACK
6
CONTINUOUS
10
4.30597
20
-5.09488
11
4.31722
21
-5.08926
0
LINE
8
BLACK
6
CONTINUOUS
10
4.31722
20
-5.08926
11
4.3341
21
-5.08926
0
LINE
8
BLACK
6
CONTINUOUS
10
4.3341
20
-5.08926
11
4.34534
21
-5.09488
0
LINE
8
BLACK
6
CONTINUOUS
10
4.34534
20
-5.09488
11
4.35097
21
-5.10613
0
LINE
8
BLACK
6
CONTINUOUS
10
4.35097
20
-5.10613
11
4.35097
21
-5.168
0
LINE
8
BLACK
6
CONTINUOUS
10
4.35097
20
-5.10613
11
4.35659
21
-5.09488
0
LINE
8
BLACK
6
CONTINUOUS
10
4.35659
20
-5.09488
11
4.36784
21
-5.08926
0
LINE
8
BLACK
6
CONTINUOUS
10
4.36784
20
-5.08926
11
4.38471
21
-5.08926
0
LINE
8
BLACK
6
CONTINUOUS
10
4.38471
20
-5.08926
11
4.39596
21
-5.09488
0
LINE
8
BLACK
6
CONTINUOUS
10
4.39596
20
-5.09488
11
4.40159
21
-5.10613
0
LINE
8
BLACK
6
CONTINUOUS
10
4.40159
20
-5.10613
11
4.40159
21
-5.168
0
LINE
8
BLACK
6
CONTINUOUS
10
4.45783
20
-5.168
11
4.45783
21
-5.08926
0
LINE
8
BLACK
6
CONTINUOUS
10
4.45783
20
-5.10051
11
4.46345
21
-5.09488
0
LINE
8
BLACK
6
CONTINUOUS
10
4.46345
20
-5.09488
11
4.4747
21
-5.08926
0
LINE
8
BLACK
6
CONTINUOUS
10
4.4747
20
-5.08926
11
4.49158
21
-5.08926
0
LINE
8
BLACK
6
CONTINUOUS
10
4.49158
20
-5.08926
11
4.50282
21
-5.09488
0
LINE
8
BLACK
6
CONTINUOUS
10
4.50282
20
-5.09488
11
4.50845
21
-5.10613
0
LINE
8
BLACK
6
CONTINUOUS
10
4.50845
20
-5.10613
11
4.50845
21
-5.168
0
LINE
8
BLACK
6
CONTINUOUS
10
4.50845
20
-5.10613
11
4.51407
21
-5.09488
0
LINE
8
BLACK
6
CONTINUOUS
10
4.51407
20
-5.09488
11
4.52532
21
-5.08926
0
LINE
8
BLACK
6
CONTINUOUS
10
4.52532
20
-5.08926
11
4.54219
21
-5.08926
0
LINE
8
BLACK
6
CONTINUOUS
10
4.54219
20
-5.08926
11
4.55344
21
-5.09488
0
LINE
8
BLACK
6
CONTINUOUS
10
4.55344
20
-5.09488
11
4.55907
21
-5.10613
0
LINE
8
BLACK
6
CONTINUOUS
10
4.55907
20
-5.10613
11
4.55907
21
-5.168
0
LINE
8
BLACK
6
CONTINUOUS
10
4.78966
20
-5.04426
11
4.68843
21
-5.19612
0
LINE
8
BLACK
6
CONTINUOUS
10
4.94152
20
-5.04989
11
4.95277
21
-5.04989
0
LINE
8
BLACK
6
CONTINUOUS
10
4.95277
20
-5.04989
11
4.96402
21
-5.05551
0
LINE
8
BLACK
6
CONTINUOUS
10
4.96402
20
-5.05551
11
4.96964
21
-5.06114
0
LINE
8
BLACK
6
CONTINUOUS
10
4.96964
20
-5.06114
11
4.97527
21
-5.07238
0
LINE
8
BLACK
6
CONTINUOUS
10
4.97527
20
-5.07238
11
4.98089
21
-5.09488
0
LINE
8
BLACK
6
CONTINUOUS
10
4.98089
20
-5.09488
11
4.98089
21
-5.123
0
LINE
8
BLACK
6
CONTINUOUS
10
4.98089
20
-5.123
11
4.97527
21
-5.1455
0
LINE
8
BLACK
6
CONTINUOUS
10
4.97527
20
-5.1455
11
4.96964
21
-5.15675
0
LINE
8
BLACK
6
CONTINUOUS
10
4.96964
20
-5.15675
11
4.96402
21
-5.16237
0
LINE
8
BLACK
6
CONTINUOUS
10
4.96402
20
-5.16237
11
4.95277
21
-5.168
0
LINE
8
BLACK
6
CONTINUOUS
10
4.95277
20
-5.168
11
4.94152
21
-5.168
0
LINE
8
BLACK
6
CONTINUOUS
10
4.94152
20
-5.168
11
4.93027
21
-5.16237
0
LINE
8
BLACK
6
CONTINUOUS
10
4.93027
20
-5.16237
11
4.92465
21
-5.15675
0
LINE
8
BLACK
6
CONTINUOUS
10
4.92465
20
-5.15675
11
4.91902
21
-5.1455
0
LINE
8
BLACK
6
CONTINUOUS
10
4.91902
20
-5.1455
11
4.9134
21
-5.123
0
LINE
8
BLACK
6
CONTINUOUS
10
4.9134
20
-5.123
11
4.9134
21
-5.09488
0
LINE
8
BLACK
6
CONTINUOUS
10
4.9134
20
-5.09488
11
4.91902
21
-5.07238
0
LINE
8
BLACK
6
CONTINUOUS
10
4.91902
20
-5.07238
11
4.92465
21
-5.06114
0
LINE
8
BLACK
6
CONTINUOUS
10
4.92465
20
-5.06114
11
4.93027
21
-5.05551
0
LINE
8
BLACK
6
CONTINUOUS
10
4.93027
20
-5.05551
11
4.94152
21
-5.04989
0
LINE
8
BLACK
6
CONTINUOUS
10
5.03151
20
-5.15675
11
5.03713
21
-5.16237
0
LINE
8
BLACK
6
CONTINUOUS
10
5.03713
20
-5.16237
11
5.03151
21
-5.168
0
LINE
8
BLACK
6
CONTINUOUS
10
5.03151
20
-5.168
11
5.02588
21
-5.16237
0
LINE
8
BLACK
6
CONTINUOUS
10
5.02588
20
-5.16237
11
5.03151
21
-5.15675
0
LINE
8
BLACK
6
CONTINUOUS
10
5.03151
20
-5.15675
11
5.03151
21
-5.168
0
LINE
8
BLACK
6
CONTINUOUS
10
5.14962
20
-5.168
11
5.08213
21
-5.168
0
LINE
8
BLACK
6
CONTINUOUS
10
5.11587
20
-5.168
11
5.11587
21
-5.04989
0
LINE
8
BLACK
6
CONTINUOUS
10
5.11587
20
-5.04989
11
5.10462
21
-5.06676
0
LINE
8
BLACK
6
CONTINUOUS
10
5.10462
20
-5.06676
11
5.09338
21
-5.07801
0
LINE
8
BLACK
6
CONTINUOUS
10
5.09338
20
-5.07801
11
5.08213
21
-5.08363
0
LINE
8
BLACK
6
CONTINUOUS
10
5.19461
20
-5.06114
11
5.20024
21
-5.05551
0
LINE
8
BLACK
6
CONTINUOUS
10
5.20024
20
-5.05551
11
5.21149
21
-5.04989
0
LINE
8
BLACK
6
CONTINUOUS
10
5.21149
20
-5.04989
11
5.23961
21
-5.04989
0
LINE
8
BLACK
6
CONTINUOUS
10
5.23961
20
-5.04989
11
5.25086
21
-5.05551
0
LINE
8
BLACK
6
CONTINUOUS
10
5.25086
20
-5.05551
11
5.25648
21
-5.06114
0
LINE
8
BLACK
6
CONTINUOUS
10
5.25648
20
-5.06114
11
5.2621
21
-5.07238
0
LINE
8
BLACK
6
CONTINUOUS
10
5.2621
20
-5.07238
11
5.2621
21
-5.08363
0
LINE
8
BLACK
6
CONTINUOUS
10
5.2621
20
-5.08363
11
5.25648
21
-5.10051
0
LINE
8
BLACK
6
CONTINUOUS
10
5.25648
20
-5.10051
11
5.18899
21
-5.168
0
LINE
8
BLACK
6
CONTINUOUS
10
5.18899
20
-5.168
11
5.2621
21
-5.168
0
LINE
8
BLACK
6
CONTINUOUS
10
5.36897
20
-5.04989
11
5.31272
21
-5.04989
0
LINE
8
BLACK
6
CONTINUOUS
10
5.31272
20
-5.04989
11
5.3071
21
-5.10613
0
LINE
8
BLACK
6
CONTINUOUS
10
5.3071
20
-5.10613
11
5.31272
21
-5.10051
0
LINE
8
BLACK
6
CONTINUOUS
10
5.31272
20
-5.10051
11
5.32397
21
-5.09488
0
LINE
8
BLACK
6
CONTINUOUS
10
5.32397
20
-5.09488
11
5.35209
21
-5.09488
0
LINE
8
BLACK
6
CONTINUOUS
10
5.35209
20
-5.09488
11
5.36334
21
-5.10051
0
LINE
8
BLACK
6
CONTINUOUS
10
5.36334
20
-5.10051
11
5.36897
21
-5.10613
0
LINE
8
BLACK
6
CONTINUOUS
10
5.36897
20
-5.10613
11
5.37459
21
-5.11738
0
LINE
8
BLACK
6
CONTINUOUS
10
5.37459
20
-5.11738
11
5.37459
21
-5.1455
0
LINE
8
BLACK
6
CONTINUOUS
10
5.37459
20
-5.1455
11
5.36897
21
-5.15675
0
LINE
8
BLACK
6
CONTINUOUS
10
5.36897
20
-5.15675
11
5.36334
21
-5.16237
0
LINE
8
BLACK
6
CONTINUOUS
10
5.36334
20
-5.16237
11
5.35209
21
-5.168
0
LINE
8
BLACK
6
CONTINUOUS
10
5.35209
20
-5.168
11
5.32397
21
-5.168
0
LINE
8
BLACK
6
CONTINUOUS
10
5.32397
20
-5.168
11
5.31272
21
-5.16237
0
LINE
8
BLACK
6
CONTINUOUS
10
5.31272
20
-5.16237
11
5.3071
21
-5.15675
0
LINE
8
BLACK
6
CONTINUOUS
10
5.41958
20
-5.04989
11
5.41958
21
-5.07238
0
LINE
8
BLACK
6
CONTINUOUS
10
5.46458
20
-5.04989
11
5.46458
21
-5.07238
0
LINE
8
BLACK
6
CONTINUOUS
10
5.63893
20
-5.21299
11
5.63331
21
-5.20737
0
LINE
8
BLACK
6
CONTINUOUS
10
5.63331
20
-5.20737
11
5.62206
21
-5.19049
0
LINE
8
BLACK
6
CONTINUOUS
10
5.62206
20
-5.19049
11
5.61644
21
-5.17925
0
LINE
8
BLACK
6
CONTINUOUS
10
5.61644
20
-5.17925
11
5.61081
21
-5.16237
0
LINE
8
BLACK
6
CONTINUOUS
10
5.61081
20
-5.16237
11
5.60519
21
-5.13425
0
LINE
8
BLACK
6
CONTINUOUS
10
5.60519
20
-5.13425
11
5.60519
21
-5.11175
0
LINE
8
BLACK
6
CONTINUOUS
10
5.60519
20
-5.11175
11
5.61081
21
-5.08363
0
LINE
8
BLACK
6
CONTINUOUS
10
5.61081
20
-5.08363
11
5.61644
21
-5.06676
0
LINE
8
BLACK
6
CONTINUOUS
10
5.61644
20
-5.06676
11
5.62206
21
-5.05551
0
LINE
8
BLACK
6
CONTINUOUS
10
5.62206
20
-5.05551
11
5.63331
21
-5.03864
0
LINE
8
BLACK
6
CONTINUOUS
10
5.63331
20
-5.03864
11
5.63893
21
-5.03301
0
LINE
8
BLACK
6
CONTINUOUS
10
5.73455
20
-5.08926
11
5.73455
21
-5.168
0
LINE
8
BLACK
6
CONTINUOUS
10
5.70642
20
-5.04426
11
5.6783
21
-5.12863
0
LINE
8
BLACK
6
CONTINUOUS
10
5.6783
20
-5.12863
11
5.75142
21
-5.12863
0
LINE
8
BLACK
6
CONTINUOUS
10
5.8864
20
-5.168
11
5.8864
21
-5.04989
0
LINE
8
BLACK
6
CONTINUOUS
10
5.93702
20
-5.168
11
5.93702
21
-5.10613
0
LINE
8
BLACK
6
CONTINUOUS
10
5.93702
20
-5.10613
11
5.9314
21
-5.09488
0
LINE
8
BLACK
6
CONTINUOUS
10
5.9314
20
-5.09488
11
5.92015
21
-5.08926
0
LINE
8
BLACK
6
CONTINUOUS
10
5.92015
20
-5.08926
11
5.90327
21
-5.08926
0
LINE
8
BLACK
6
CONTINUOUS
10
5.90327
20
-5.08926
11
5.89203
21
-5.09488
0
LINE
8
BLACK
6
CONTINUOUS
10
5.89203
20
-5.09488
11
5.8864
21
-5.10051
0
LINE
8
BLACK
6
CONTINUOUS
10
6.01014
20
-5.168
11
5.99889
21
-5.16237
0
LINE
8
BLACK
6
CONTINUOUS
10
5.99889
20
-5.16237
11
5.99326
21
-5.15675
0
LINE
8
BLACK
6
CONTINUOUS
10
5.99326
20
-5.15675
11
5.98764
21
-5.1455
0
LINE
8
BLACK
6
CONTINUOUS
10
5.98764
20
-5.1455
11
5.98764
21
-5.11175
0
LINE
8
BLACK
6
CONTINUOUS
10
5.98764
20
-5.11175
11
5.99326
21
-5.10051
0
LINE
8
BLACK
6
CONTINUOUS
10
5.99326
20
-5.10051
11
5.99889
21
-5.09488
0
LINE
8
BLACK
6
CONTINUOUS
10
5.99889
20
-5.09488
11
6.01014
21
-5.08926
0
LINE
8
BLACK
6
CONTINUOUS
10
6.01014
20
-5.08926
11
6.02701
21
-5.08926
0
LINE
8
BLACK
6
CONTINUOUS
10
6.02701
20
-5.08926
11
6.03826
21
-5.09488
0
LINE
8
BLACK
6
CONTINUOUS
10
6.03826
20
-5.09488
11
6.04388
21
-5.10051
0
LINE
8
BLACK
6
CONTINUOUS
10
6.04388
20
-5.10051
11
6.04951
21
-5.11175
0
LINE
8
BLACK
6
CONTINUOUS
10
6.04951
20
-5.11175
11
6.04951
21
-5.1455
0
LINE
8
BLACK
6
CONTINUOUS
10
6.04951
20
-5.1455
11
6.04388
21
-5.15675
0
LINE
8
BLACK
6
CONTINUOUS
10
6.04388
20
-5.15675
11
6.03826
21
-5.16237
0
LINE
8
BLACK
6
CONTINUOUS
10
6.03826
20
-5.16237
11
6.02701
21
-5.168
0
LINE
8
BLACK
6
CONTINUOUS
10
6.02701
20
-5.168
11
6.01014
21
-5.168
0
LINE
8
BLACK
6
CONTINUOUS
10
6.117
20
-5.168
11
6.10575
21
-5.16237
0
LINE
8
BLACK
6
CONTINUOUS
10
6.10575
20
-5.16237
11
6.10012
21
-5.15112
0
LINE
8
BLACK
6
CONTINUOUS
10
6.10012
20
-5.15112
11
6.10012
21
-5.04989
0
LINE
8
BLACK
6
CONTINUOUS
10
6.20699
20
-5.16237
11
6.19574
21
-5.168
0
LINE
8
BLACK
6
CONTINUOUS
10
6.19574
20
-5.168
11
6.17324
21
-5.168
0
LINE
8
BLACK
6
CONTINUOUS
10
6.17324
20
-5.168
11
6.16199
21
-5.16237
0
LINE
8
BLACK
6
CONTINUOUS
10
6.16199
20
-5.16237
11
6.15637
21
-5.15112
0
LINE
8
BLACK
6
CONTINUOUS
10
6.15637
20
-5.15112
11
6.15637
21
-5.10613
0
LINE
8
BLACK
6
CONTINUOUS
10
6.15637
20
-5.10613
11
6.16199
21
-5.09488
0
LINE
8
BLACK
6
CONTINUOUS
10
6.16199
20
-5.09488
11
6.17324
21
-5.08926
0
LINE
8
BLACK
6
CONTINUOUS
10
6.17324
20
-5.08926
11
6.19574
21
-5.08926
0
LINE
8
BLACK
6
CONTINUOUS
10
6.19574
20
-5.08926
11
6.20699
21
-5.09488
0
LINE
8
BLACK
6
CONTINUOUS
10
6.20699
20
-5.09488
11
6.21261
21
-5.10613
0
LINE
8
BLACK
6
CONTINUOUS
10
6.21261
20
-5.10613
11
6.21261
21
-5.11738
0
LINE
8
BLACK
6
CONTINUOUS
10
6.21261
20
-5.11738
11
6.15637
21
-5.12863
0
LINE
8
BLACK
6
CONTINUOUS
10
6.25761
20
-5.16237
11
6.26885
21
-5.168
0
LINE
8
BLACK
6
CONTINUOUS
10
6.26885
20
-5.168
11
6.29135
21
-5.168
0
LINE
8
BLACK
6
CONTINUOUS
10
6.29135
20
-5.168
11
6.3026
21
-5.16237
0
LINE
8
BLACK
6
CONTINUOUS
10
6.3026
20
-5.16237
11
6.30822
21
-5.15112
0
LINE
8
BLACK
6
CONTINUOUS
10
6.30822
20
-5.15112
11
6.30822
21
-5.1455
0
LINE
8
BLACK
6
CONTINUOUS
10
6.30822
20
-5.1455
11
6.3026
21
-5.13425
0
LINE
8
BLACK
6
CONTINUOUS
10
6.3026
20
-5.13425
11
6.29135
21
-5.12863
0
LINE
8
BLACK
6
CONTINUOUS
10
6.29135
20
-5.12863
11
6.27448
21
-5.12863
0
LINE
8
BLACK
6
CONTINUOUS
10
6.27448
20
-5.12863
11
6.26323
21
-5.123
0
LINE
8
BLACK
6
CONTINUOUS
10
6.26323
20
-5.123
11
6.25761
21
-5.11175
0
LINE
8
BLACK
6
CONTINUOUS
10
6.25761
20
-5.11175
11
6.25761
21
-5.10613
0
LINE
8
BLACK
6
CONTINUOUS
10
6.25761
20
-5.10613
11
6.26323
21
-5.09488
0
LINE
8
BLACK
6
CONTINUOUS
10
6.26323
20
-5.09488
11
6.27448
21
-5.08926
0
LINE
8
BLACK
6
CONTINUOUS
10
6.27448
20
-5.08926
11
6.29135
21
-5.08926
0
LINE
8
BLACK
6
CONTINUOUS
10
6.29135
20
-5.08926
11
6.3026
21
-5.09488
0
LINE
8
BLACK
6
CONTINUOUS
10
6.34759
20
-5.21299
11
6.35322
21
-5.20737
0
LINE
8
BLACK
6
CONTINUOUS
10
6.35322
20
-5.20737
11
6.36447
21
-5.19049
0
LINE
8
BLACK
6
CONTINUOUS
10
6.36447
20
-5.19049
11
6.37009
21
-5.17925
0
LINE
8
BLACK
6
CONTINUOUS
10
6.37009
20
-5.17925
11
6.37572
21
-5.16237
0
LINE
8
BLACK
6
CONTINUOUS
10
6.37572
20
-5.16237
11
6.38134
21
-5.13425
0
LINE
8
BLACK
6
CONTINUOUS
10
6.38134
20
-5.13425
11
6.38134
21
-5.11175
0
LINE
8
BLACK
6
CONTINUOUS
10
6.38134
20
-5.11175
11
6.37572
21
-5.08363
0
LINE
8
BLACK
6
CONTINUOUS
10
6.37572
20
-5.08363
11
6.37009
21
-5.06676
0
LINE
8
BLACK
6
CONTINUOUS
10
6.37009
20
-5.06676
11
6.36447
21
-5.05551
0
LINE
8
BLACK
6
CONTINUOUS
10
6.36447
20
-5.05551
11
6.35322
21
-5.03864
0
LINE
8
BLACK
6
CONTINUOUS
10
6.35322
20
-5.03864
11
6.34759
21
-5.03301
  0
ENDSEC
  0
EOF
