  0
SECTION
  2
HEADER
  9
$ANGBASE
  50
0.0
  9
$ANGDIR
  70
  1
  9
$MEASUREMENT
  70
0
  0
ENDSEC
  0
SECTION
  2
TABLES
  0
TABLE
  2
LTYPE
  70
1
  0
LTYPE
  2
CONTINUOUS
  70
0
  3
Solid line
  72
65
  73
0
  40
0.0
  0
ENDTAB
  0
TABLE
  2
STYLE
  70
4
  0
STYLE
  2
KICAD
  70
0
  40
0
  41
1
  42
1
  50
0
  71
0
  3
isocp.shx
  0
STYLE
  2
KICADB
  70
0
  40
0
  41
1
  42
1
  50
0
  71
0
  3
isocp.shx
  0
STYLE
  2
KICADI
  70
0
  40
0
  41
1
  42
1
  50
15
  71
0
  3
isocp.shx
  0
STYLE
  2
KICADBI
  70
0
  40
0
  41
1
  42
1
  50
15
  71
0
  3
isocp.shx
  0
ENDTAB
  0
TABLE
  2
LAYER
  70
30
  0
LAYER
  2
BLACK
  70
0
  62
7
  6
CONTINUOUS
  0
LAYER
  2
GRAY1
  70
0
  62
251
  6
CONTINUOUS
  0
LAYER
  2
GRAY2
  70
0
  62
8
  6
CONTINUOUS
  0
LAYER
  2
GRAY3
  70
0
  62
9
  6
CONTINUOUS
  0
LAYER
  2
WHITE
  70
0
  62
7
  6
CONTINUOUS
  0
LAYER
  2
LYELLOW
  70
0
  62
51
  6
CONTINUOUS
  0
LAYER
  2
BLUE1
  70
0
  62
178
  6
CONTINUOUS
  0
LAYER
  2
GREEN1
  70
0
  62
98
  6
CONTINUOUS
  0
LAYER
  2
CYAN1
  70
0
  62
138
  6
CONTINUOUS
  0
LAYER
  2
RED1
  70
0
  62
18
  6
CONTINUOUS
  0
LAYER
  2
MAGENTA1
  70
0
  62
228
  6
CONTINUOUS
  0
LAYER
  2
BROWN1
  70
0
  62
58
  6
CONTINUOUS
  0
LAYER
  2
BLUE2
  70
0
  62
5
  6
CONTINUOUS
  0
LAYER
  2
GREEN2
  70
0
  62
3
  6
CONTINUOUS
  0
LAYER
  2
CYAN2
  70
0
  62
4
  6
CONTINUOUS
  0
LAYER
  2
RED2
  70
0
  62
1
  6
CONTINUOUS
  0
LAYER
  2
MAGENTA2
  70
0
  62
6
  6
CONTINUOUS
  0
LAYER
  2
BROWN2
  70
0
  62
54
  6
CONTINUOUS
  0
LAYER
  2
BLUE3
  70
0
  62
171
  6
CONTINUOUS
  0
LAYER
  2
GREEN3
  70
0
  62
91
  6
CONTINUOUS
  0
LAYER
  2
CYAN3
  70
0
  62
131
  6
CONTINUOUS
  0
LAYER
  2
RED3
  70
0
  62
11
  6
CONTINUOUS
  0
LAYER
  2
MAGENTA3
  70
0
  62
221
  6
CONTINUOUS
  0
LAYER
  2
YELLOW3
  70
0
  62
2
  6
CONTINUOUS
  0
LAYER
  2
BLUE4
  70
0
  62
5
  6
CONTINUOUS
  0
LAYER
  2
GREEN4
  70
0
  62
3
  6
CONTINUOUS
  0
LAYER
  2
CYAN4
  70
0
  62
4
  6
CONTINUOUS
  0
LAYER
  2
RED4
  70
0
  62
1
  6
CONTINUOUS
  0
LAYER
  2
MAGENTA4
  70
0
  62
6
  6
CONTINUOUS
  0
LAYER
  2
YELLOW4
  70
0
  62
2
  6
CONTINUOUS
  0
ENDTAB
  0
ENDSEC
  0
SECTION
  2
ENTITIES
0
LINE
8
Black
10
16
20
-105.05
11
59
21
-105.05
0
LINE
8
Black
10
16
20
-104.95
11
59
21
-104.95
0
ARC
8
Black
10
59
20
-105
40
0.05
50
270
51
450
0
ARC
8
Black
10
16
20
-105
40
0.05
50
90
51
270
0
LINE
8
Black
10
16
20
-10.05
11
59
21
-10.05
0
LINE
8
Black
10
16
20
-9.95
11
59
21
-9.95
0
ARC
8
Black
10
59
20
-10
40
0.05
50
270
51
450
0
ARC
8
Black
10
16
20
-10
40
0.05
50
90
51
270
0
LINE
8
Black
10
10.05
20
-99
11
10.05
21
-16
0
LINE
8
Black
10
9.95
20
-99
11
9.95
21
-16
0
ARC
8
Black
10
10
20
-16
40
0.05
50
360
51
540
0
ARC
8
Black
10
10
20
-99
40
0.05
50
180
51
360
0
LINE
8
Black
10
65.05
20
-99
11
65.05
21
-16
0
LINE
8
Black
10
64.95
20
-99
11
64.95
21
-16
0
ARC
8
Black
10
65
20
-16
40
0.05
50
360
51
540
0
ARC
8
Black
10
65
20
-99
40
0.05
50
180
51
360
0
ARC
8
Black
10
16
20
-99
40
6
50
-180
51
-90
0
ARC
8
Black
10
59
20
-99
40
6
50
-90
51
-0
0
ARC
8
Black
10
59
20
-16
40
6
50
-0
51
90
0
ARC
8
Black
10
16
20
-16
40
6
50
90
51
180
0
LINE
8
Black
10
30.9245
20
-59.8805
11
31.5595
21
-60.5155
0
LINE
8
Black
10
31.5595
20
-59.8805
11
30.9245
21
-60.5155
0
LINE
8
Black
10
31.1785
20
-96.2025
11
31.8135
21
-96.8375
0
LINE
8
Black
10
31.8135
20
-96.2025
11
31.1785
21
-96.8375
0
LINE
8
Black
10
32.1945
20
-57.5945
11
32.8295
21
-58.2295
0
LINE
8
Black
10
32.8295
20
-57.5945
11
32.1945
21
-58.2295
0
LINE
8
Black
10
32.9565
20
-53.0225
11
33.5915
21
-53.6575
0
LINE
8
Black
10
33.5915
20
-53.0225
11
32.9565
21
-53.6575
0
LINE
8
Black
10
33.2105
20
-62.4205
11
33.8455
21
-63.0555
0
LINE
8
Black
10
33.8455
20
-62.4205
11
33.2105
21
-63.0555
0
LINE
8
Black
10
36.7665
20
-62.6745
11
37.4015
21
-63.3095
0
LINE
8
Black
10
37.4015
20
-62.6745
11
36.7665
21
-63.3095
0
LINE
8
Black
10
36.7665
20
-77.1525
11
37.4015
21
-77.7875
0
LINE
8
Black
10
37.4015
20
-77.1525
11
36.7665
21
-77.7875
0
LINE
8
Black
10
37.0205
20
-86.0425
11
37.6555
21
-86.6775
0
LINE
8
Black
10
37.6555
20
-86.0425
11
37.0205
21
-86.6775
0
LINE
8
Black
10
37.0205
20
-89.8525
11
37.6555
21
-90.4875
0
LINE
8
Black
10
37.6555
20
-89.8525
11
37.0205
21
-90.4875
0
LINE
8
Black
10
37.7825
20
-42.1005
11
38.4175
21
-42.7355
0
LINE
8
Black
10
38.4175
20
-42.1005
11
37.7825
21
-42.7355
0
LINE
8
Black
10
37.7825
20
-90.8685
11
38.4175
21
-91.5035
0
LINE
8
Black
10
38.4175
20
-90.8685
11
37.7825
21
-91.5035
0
LINE
8
Black
10
38.0365
20
-87.3125
11
38.6715
21
-87.9475
0
LINE
8
Black
10
38.6715
20
-87.3125
11
38.0365
21
-87.9475
0
LINE
8
Black
10
38.7985
20
-76.8985
11
39.4335
21
-77.5335
0
LINE
8
Black
10
39.4335
20
-76.8985
11
38.7985
21
-77.5335
0
LINE
8
Black
10
40.5765
20
-58.8645
11
41.2115
21
-59.4995
0
LINE
8
Black
10
41.2115
20
-58.8645
11
40.5765
21
-59.4995
0
LINE
8
Black
10
40.5765
20
-71.0565
11
41.2115
21
-71.6915
0
LINE
8
Black
10
41.2115
20
-71.0565
11
40.5765
21
-71.6915
0
LINE
8
Black
10
41.3385
20
-64.7065
11
41.9735
21
-65.3415
0
LINE
8
Black
10
41.9735
20
-64.7065
11
41.3385
21
-65.3415
0
LINE
8
Black
10
42.3545
20
-42.6085
11
42.9895
21
-43.2435
0
LINE
8
Black
10
42.9895
20
-42.6085
11
42.3545
21
-43.2435
0
LINE
8
Black
10
42.3545
20
-60.6425
11
42.9895
21
-61.2775
0
LINE
8
Black
10
42.9895
20
-60.6425
11
42.3545
21
-61.2775
0
LINE
8
Black
10
43.3705
20
-58.6105
11
44.0055
21
-59.2455
0
LINE
8
Black
10
44.0055
20
-58.6105
11
43.3705
21
-59.2455
0
LINE
8
Black
10
45.1485
20
-41.5925
11
45.7835
21
-42.2275
0
LINE
8
Black
10
45.7835
20
-41.5925
11
45.1485
21
-42.2275
0
LINE
8
Black
10
48.7045
20
-66.4845
11
49.3395
21
-67.1195
0
LINE
8
Black
10
49.3395
20
-66.4845
11
48.7045
21
-67.1195
0
LINE
8
Black
10
49.2125
20
-58.8645
11
49.8475
21
-59.4995
0
LINE
8
Black
10
49.8475
20
-58.8645
11
49.2125
21
-59.4995
0
LINE
8
Black
10
49.9745
20
-69.0245
11
50.6095
21
-69.6595
0
LINE
8
Black
10
50.6095
20
-69.0245
11
49.9745
21
-69.6595
0
LINE
8
Black
10
50.4825
20
-61.1505
11
51.1175
21
-61.7855
0
LINE
8
Black
10
51.1175
20
-61.1505
11
50.4825
21
-61.7855
0
CIRCLE
8
Black
10
27.94
20
-27.94
40
0.4
0
CIRCLE
8
Black
10
27.94
20
-30.48
40
0.4
0
CIRCLE
8
Black
10
27.94
20
-33.02
40
0.4
0
CIRCLE
8
Black
10
27.94
20
-35.56
40
0.4
0
CIRCLE
8
Black
10
27.94
20
-38.1
40
0.4
0
CIRCLE
8
Black
10
27.94
20
-40.64
40
0.4
0
CIRCLE
8
Black
10
27.94
20
-43.18
40
0.4
0
CIRCLE
8
Black
10
27.94
20
-45.72
40
0.4
0
CIRCLE
8
Black
10
27.94
20
-48.26
40
0.4
0
CIRCLE
8
Black
10
27.94
20
-50.8
40
0.4
0
CIRCLE
8
Black
10
27.94
20
-53.34
40
0.4
0
CIRCLE
8
Black
10
27.94
20
-55.88
40
0.4
0
CIRCLE
8
Black
10
27.94
20
-58.42
40
0.4
0
CIRCLE
8
Black
10
27.94
20
-60.96
40
0.4
0
CIRCLE
8
Black
10
27.94
20
-68.58
40
0.4
0
CIRCLE
8
Black
10
27.94
20
-71.12
40
0.4
0
CIRCLE
8
Black
10
27.94
20
-73.66
40
0.4
0
CIRCLE
8
Black
10
27.94
20
-76.2
40
0.4
0
CIRCLE
8
Black
10
27.94
20
-78.74
40
0.4
0
CIRCLE
8
Black
10
27.94
20
-81.28
40
0.4
0
CIRCLE
8
Black
10
27.94
20
-83.82
40
0.4
0
CIRCLE
8
Black
10
27.94
20
-86.36
40
0.4
0
CIRCLE
8
Black
10
27.94
20
-88.9
40
0.4
0
CIRCLE
8
Black
10
27.94
20
-91.44
40
0.4
0
CIRCLE
8
Black
10
27.94
20
-93.98
40
0.4
0
CIRCLE
8
Black
10
27.94
20
-96.52
40
0.4
0
CIRCLE
8
Black
10
27.94
20
-99.06
40
0.4
0
CIRCLE
8
Black
10
27.94
20
-101.6
40
0.4
0
CIRCLE
8
Black
10
29.036
20
-23.622
40
0.4
0
CIRCLE
8
Black
10
29.29
20
-64.77
40
0.4
0
CIRCLE
8
Black
10
34.036
20
-23.622
40
0.4
0
CIRCLE
8
Black
10
34.29
20
-64.77
40
0.4
0
CIRCLE
8
Black
10
35.56
20
-27.94
40
0.4
0
CIRCLE
8
Black
10
35.56
20
-30.48
40
0.4
0
CIRCLE
8
Black
10
35.56
20
-33.02
40
0.4
0
CIRCLE
8
Black
10
35.56
20
-35.56
40
0.4
0
CIRCLE
8
Black
10
35.56
20
-38.1
40
0.4
0
CIRCLE
8
Black
10
35.56
20
-40.64
40
0.4
0
CIRCLE
8
Black
10
35.56
20
-43.18
40
0.4
0
CIRCLE
8
Black
10
35.56
20
-45.72
40
0.4
0
CIRCLE
8
Black
10
35.56
20
-48.26
40
0.4
0
CIRCLE
8
Black
10
35.56
20
-50.8
40
0.4
0
CIRCLE
8
Black
10
35.56
20
-53.34
40
0.4
0
CIRCLE
8
Black
10
35.56
20
-55.88
40
0.4
0
CIRCLE
8
Black
10
35.56
20
-58.42
40
0.4
0
CIRCLE
8
Black
10
35.56
20
-60.96
40
0.4
0
CIRCLE
8
Black
10
35.56
20
-68.58
40
0.4
0
CIRCLE
8
Black
10
35.56
20
-71.12
40
0.4
0
CIRCLE
8
Black
10
35.56
20
-73.66
40
0.4
0
CIRCLE
8
Black
10
35.56
20
-76.2
40
0.4
0
CIRCLE
8
Black
10
35.56
20
-78.74
40
0.4
0
CIRCLE
8
Black
10
35.56
20
-81.28
40
0.4
0
CIRCLE
8
Black
10
35.56
20
-83.82
40
0.4
0
CIRCLE
8
Black
10
35.56
20
-86.36
40
0.4
0
CIRCLE
8
Black
10
35.56
20
-88.9
40
0.4
0
CIRCLE
8
Black
10
35.56
20
-91.44
40
0.4
0
CIRCLE
8
Black
10
35.56
20
-93.98
40
0.4
0
CIRCLE
8
Black
10
35.56
20
-96.52
40
0.4
0
CIRCLE
8
Black
10
35.56
20
-99.06
40
0.4
0
CIRCLE
8
Black
10
35.56
20
-101.6
40
0.4
0
CIRCLE
8
Black
10
39.624
20
-61.976
40
0.4
0
CIRCLE
8
Black
10
39.624
20
-64.516
40
0.4
0
CIRCLE
8
Black
10
39.624
20
-67.056
40
0.4
0
CIRCLE
8
Black
10
39.624
20
-69.596
40
0.4
0
CIRCLE
8
Black
10
40.894
20
-73.914
40
0.4
0
CIRCLE
8
Black
10
45.894
20
-73.914
40
0.4
0
CIRCLE
8
Black
10
47.244
20
-61.976
40
0.4
0
CIRCLE
8
Black
10
47.244
20
-64.516
40
0.4
0
CIRCLE
8
Black
10
47.244
20
-67.056
40
0.4
0
CIRCLE
8
Black
10
47.244
20
-69.596
40
0.4
0
CIRCLE
8
Black
10
49.276
20
-23.114
40
0.4
0
CIRCLE
8
Black
10
51.776
20
-23.114
40
0.4
0
LINE
8
Black
10
39.624
20
-26.4236
11
39.624
21
-27.4244
0
LINE
8
Black
10
39.1236
20
-26.924
11
40.1244
21
-26.924
0
LINE
8
Black
10
39.624
20
-36.5836
11
39.624
21
-37.5844
0
LINE
8
Black
10
39.1236
20
-37.084
11
40.1244
21
-37.084
0
LINE
8
Black
10
39.878
20
-80.5256
11
39.878
21
-81.5264
0
LINE
8
Black
10
39.3776
20
-81.026
11
40.3784
21
-81.026
0
LINE
8
Black
10
39.878
20
-90.6856
11
39.878
21
-91.6864
0
LINE
8
Black
10
39.3776
20
-91.186
11
40.3784
21
-91.186
0
LINE
8
Black
10
42.672
20
-26.4236
11
42.672
21
-27.4244
0
LINE
8
Black
10
42.1716
20
-26.924
11
43.1724
21
-26.924
0
LINE
8
Black
10
42.672
20
-36.5836
11
42.672
21
-37.5844
0
LINE
8
Black
10
42.1716
20
-37.084
11
43.1724
21
-37.084
0
LINE
8
Black
10
43.688
20
-80.5256
11
43.688
21
-81.5264
0
LINE
8
Black
10
43.1876
20
-81.026
11
44.1884
21
-81.026
0
LINE
8
Black
10
43.688
20
-90.6856
11
43.688
21
-91.6864
0
LINE
8
Black
10
43.1876
20
-91.186
11
44.1884
21
-91.186
0
LINE
8
Black
10
45.72
20
-26.4236
11
45.72
21
-27.4244
0
LINE
8
Black
10
45.2196
20
-26.924
11
46.2204
21
-26.924
0
LINE
8
Black
10
45.72
20
-36.5836
11
45.72
21
-37.5844
0
LINE
8
Black
10
45.2196
20
-37.084
11
46.2204
21
-37.084
0
LINE
8
Black
10
46.99
20
-46.7436
11
46.99
21
-47.7444
0
LINE
8
Black
10
46.4896
20
-47.244
11
47.4904
21
-47.244
0
LINE
8
Black
10
46.99
20
-56.9036
11
46.99
21
-57.9044
0
LINE
8
Black
10
46.4896
20
-57.404
11
47.4904
21
-57.404
0
LINE
8
Black
10
47.498
20
-80.5256
11
47.498
21
-81.5264
0
LINE
8
Black
10
46.9976
20
-81.026
11
47.9984
21
-81.026
0
LINE
8
Black
10
47.498
20
-90.6856
11
47.498
21
-91.6864
0
LINE
8
Black
10
46.9976
20
-91.186
11
47.9984
21
-91.186
0
LINE
8
Black
10
51.308
20
-80.5256
11
51.308
21
-81.5264
0
LINE
8
Black
10
50.8076
20
-81.026
11
51.8084
21
-81.026
0
LINE
8
Black
10
51.308
20
-90.6856
11
51.308
21
-91.6864
0
LINE
8
Black
10
50.8076
20
-91.186
11
51.8084
21
-91.186
0
LINE
8
Black
10
15.9368
20
-34.3388
11
15.9368
21
-33.6204
0
LINE
8
Black
10
15.9368
20
-33.6204
11
15.2184
21
-33.6204
0
LINE
8
Black
10
15.2184
20
-33.6204
11
15.2184
21
-34.3388
0
LINE
8
Black
10
15.2184
20
-34.3388
11
15.9368
21
-34.3388
0
LINE
8
Black
10
15.9368
20
-37.1074
11
15.9368
21
-36.389
0
LINE
8
Black
10
15.9368
20
-36.389
11
15.2184
21
-36.389
0
LINE
8
Black
10
15.2184
20
-36.389
11
15.2184
21
-37.1074
0
LINE
8
Black
10
15.2184
20
-37.1074
11
15.9368
21
-37.1074
0
LINE
8
Black
10
15.9368
20
-39.876
11
15.9368
21
-39.1576
0
LINE
8
Black
10
15.9368
20
-39.1576
11
15.2184
21
-39.1576
0
LINE
8
Black
10
15.2184
20
-39.1576
11
15.2184
21
-39.876
0
LINE
8
Black
10
15.2184
20
-39.876
11
15.9368
21
-39.876
0
LINE
8
Black
10
15.9368
20
-42.6446
11
15.9368
21
-41.9262
0
LINE
8
Black
10
15.9368
20
-41.9262
11
15.2184
21
-41.9262
0
LINE
8
Black
10
15.2184
20
-41.9262
11
15.2184
21
-42.6446
0
LINE
8
Black
10
15.2184
20
-42.6446
11
15.9368
21
-42.6446
0
LINE
8
Black
10
15.9368
20
-45.4132
11
15.9368
21
-44.6948
0
LINE
8
Black
10
15.9368
20
-44.6948
11
15.2184
21
-44.6948
0
LINE
8
Black
10
15.2184
20
-44.6948
11
15.2184
21
-45.4132
0
LINE
8
Black
10
15.2184
20
-45.4132
11
15.9368
21
-45.4132
0
LINE
8
Black
10
15.9368
20
-48.1818
11
15.9368
21
-47.4634
0
LINE
8
Black
10
15.9368
20
-47.4634
11
15.2184
21
-47.4634
0
LINE
8
Black
10
15.2184
20
-47.4634
11
15.2184
21
-48.1818
0
LINE
8
Black
10
15.2184
20
-48.1818
11
15.9368
21
-48.1818
0
LINE
8
Black
10
15.9368
20
-50.9504
11
15.9368
21
-50.232
0
LINE
8
Black
10
15.9368
20
-50.232
11
15.2184
21
-50.232
0
LINE
8
Black
10
15.2184
20
-50.232
11
15.2184
21
-50.9504
0
LINE
8
Black
10
15.2184
20
-50.9504
11
15.9368
21
-50.9504
0
LINE
8
Black
10
15.9368
20
-53.719
11
15.9368
21
-53.0006
0
LINE
8
Black
10
15.9368
20
-53.0006
11
15.2184
21
-53.0006
0
LINE
8
Black
10
15.2184
20
-53.0006
11
15.2184
21
-53.719
0
LINE
8
Black
10
15.2184
20
-53.719
11
15.9368
21
-53.719
0
LINE
8
Black
10
15.9368
20
-56.4876
11
15.9368
21
-55.7692
0
LINE
8
Black
10
15.9368
20
-55.7692
11
15.2184
21
-55.7692
0
LINE
8
Black
10
15.2184
20
-55.7692
11
15.2184
21
-56.4876
0
LINE
8
Black
10
15.2184
20
-56.4876
11
15.9368
21
-56.4876
0
LINE
8
Black
10
15.9368
20
-59.2562
11
15.9368
21
-58.5378
0
LINE
8
Black
10
15.9368
20
-58.5378
11
15.2184
21
-58.5378
0
LINE
8
Black
10
15.2184
20
-58.5378
11
15.2184
21
-59.2562
0
LINE
8
Black
10
15.2184
20
-59.2562
11
15.9368
21
-59.2562
0
LINE
8
Black
10
15.9368
20
-62.0248
11
15.9368
21
-61.3064
0
LINE
8
Black
10
15.9368
20
-61.3064
11
15.2184
21
-61.3064
0
LINE
8
Black
10
15.2184
20
-61.3064
11
15.2184
21
-62.0248
0
LINE
8
Black
10
15.2184
20
-62.0248
11
15.9368
21
-62.0248
0
LINE
8
Black
10
15.9368
20
-64.7934
11
15.9368
21
-64.075
0
LINE
8
Black
10
15.9368
20
-64.075
11
15.2184
21
-64.075
0
LINE
8
Black
10
15.2184
20
-64.075
11
15.2184
21
-64.7934
0
LINE
8
Black
10
15.2184
20
-64.7934
11
15.9368
21
-64.7934
0
LINE
8
Black
10
15.9368
20
-67.562
11
15.9368
21
-66.8436
0
LINE
8
Black
10
15.9368
20
-66.8436
11
15.2184
21
-66.8436
0
LINE
8
Black
10
15.2184
20
-66.8436
11
15.2184
21
-67.562
0
LINE
8
Black
10
15.2184
20
-67.562
11
15.9368
21
-67.562
0
LINE
8
Black
10
15.9368
20
-70.3306
11
15.9368
21
-69.6122
0
LINE
8
Black
10
15.9368
20
-69.6122
11
15.2184
21
-69.6122
0
LINE
8
Black
10
15.2184
20
-69.6122
11
15.2184
21
-70.3306
0
LINE
8
Black
10
15.2184
20
-70.3306
11
15.9368
21
-70.3306
0
LINE
8
Black
10
15.9368
20
-73.0992
11
15.9368
21
-72.3808
0
LINE
8
Black
10
15.9368
20
-72.3808
11
15.2184
21
-72.3808
0
LINE
8
Black
10
15.2184
20
-72.3808
11
15.2184
21
-73.0992
0
LINE
8
Black
10
15.2184
20
-73.0992
11
15.9368
21
-73.0992
0
LINE
8
Black
10
15.9368
20
-75.8678
11
15.9368
21
-75.1494
0
LINE
8
Black
10
15.9368
20
-75.1494
11
15.2184
21
-75.1494
0
LINE
8
Black
10
15.2184
20
-75.1494
11
15.2184
21
-75.8678
0
LINE
8
Black
10
15.2184
20
-75.8678
11
15.9368
21
-75.8678
0
LINE
8
Black
10
15.9368
20
-78.6364
11
15.9368
21
-77.918
0
LINE
8
Black
10
15.9368
20
-77.918
11
15.2184
21
-77.918
0
LINE
8
Black
10
15.2184
20
-77.918
11
15.2184
21
-78.6364
0
LINE
8
Black
10
15.2184
20
-78.6364
11
15.9368
21
-78.6364
0
LINE
8
Black
10
15.9368
20
-81.405
11
15.9368
21
-80.6866
0
LINE
8
Black
10
15.9368
20
-80.6866
11
15.2184
21
-80.6866
0
LINE
8
Black
10
15.2184
20
-80.6866
11
15.2184
21
-81.405
0
LINE
8
Black
10
15.2184
20
-81.405
11
15.9368
21
-81.405
0
LINE
8
Black
10
18.7816
20
-32.9418
11
18.7816
21
-32.2234
0
LINE
8
Black
10
18.7816
20
-32.2234
11
18.0632
21
-32.2234
0
LINE
8
Black
10
18.0632
20
-32.2234
11
18.0632
21
-32.9418
0
LINE
8
Black
10
18.0632
20
-32.9418
11
18.7816
21
-32.9418
0
LINE
8
Black
10
18.7816
20
-35.7104
11
18.7816
21
-34.992
0
LINE
8
Black
10
18.7816
20
-34.992
11
18.0632
21
-34.992
0
LINE
8
Black
10
18.0632
20
-34.992
11
18.0632
21
-35.7104
0
LINE
8
Black
10
18.0632
20
-35.7104
11
18.7816
21
-35.7104
0
LINE
8
Black
10
18.7816
20
-38.479
11
18.7816
21
-37.7606
0
LINE
8
Black
10
18.7816
20
-37.7606
11
18.0632
21
-37.7606
0
LINE
8
Black
10
18.0632
20
-37.7606
11
18.0632
21
-38.479
0
LINE
8
Black
10
18.0632
20
-38.479
11
18.7816
21
-38.479
0
LINE
8
Black
10
18.7816
20
-41.2476
11
18.7816
21
-40.5292
0
LINE
8
Black
10
18.7816
20
-40.5292
11
18.0632
21
-40.5292
0
LINE
8
Black
10
18.0632
20
-40.5292
11
18.0632
21
-41.2476
0
LINE
8
Black
10
18.0632
20
-41.2476
11
18.7816
21
-41.2476
0
LINE
8
Black
10
18.7816
20
-44.0162
11
18.7816
21
-43.2978
0
LINE
8
Black
10
18.7816
20
-43.2978
11
18.0632
21
-43.2978
0
LINE
8
Black
10
18.0632
20
-43.2978
11
18.0632
21
-44.0162
0
LINE
8
Black
10
18.0632
20
-44.0162
11
18.7816
21
-44.0162
0
LINE
8
Black
10
18.7816
20
-46.7848
11
18.7816
21
-46.0664
0
LINE
8
Black
10
18.7816
20
-46.0664
11
18.0632
21
-46.0664
0
LINE
8
Black
10
18.0632
20
-46.0664
11
18.0632
21
-46.7848
0
LINE
8
Black
10
18.0632
20
-46.7848
11
18.7816
21
-46.7848
0
LINE
8
Black
10
18.7816
20
-49.5534
11
18.7816
21
-48.835
0
LINE
8
Black
10
18.7816
20
-48.835
11
18.0632
21
-48.835
0
LINE
8
Black
10
18.0632
20
-48.835
11
18.0632
21
-49.5534
0
LINE
8
Black
10
18.0632
20
-49.5534
11
18.7816
21
-49.5534
0
LINE
8
Black
10
18.7816
20
-52.322
11
18.7816
21
-51.6036
0
LINE
8
Black
10
18.7816
20
-51.6036
11
18.0632
21
-51.6036
0
LINE
8
Black
10
18.0632
20
-51.6036
11
18.0632
21
-52.322
0
LINE
8
Black
10
18.0632
20
-52.322
11
18.7816
21
-52.322
0
LINE
8
Black
10
18.7816
20
-55.0906
11
18.7816
21
-54.3722
0
LINE
8
Black
10
18.7816
20
-54.3722
11
18.0632
21
-54.3722
0
LINE
8
Black
10
18.0632
20
-54.3722
11
18.0632
21
-55.0906
0
LINE
8
Black
10
18.0632
20
-55.0906
11
18.7816
21
-55.0906
0
LINE
8
Black
10
18.7816
20
-57.8592
11
18.7816
21
-57.1408
0
LINE
8
Black
10
18.7816
20
-57.1408
11
18.0632
21
-57.1408
0
LINE
8
Black
10
18.0632
20
-57.1408
11
18.0632
21
-57.8592
0
LINE
8
Black
10
18.0632
20
-57.8592
11
18.7816
21
-57.8592
0
LINE
8
Black
10
18.7816
20
-60.6278
11
18.7816
21
-59.9094
0
LINE
8
Black
10
18.7816
20
-59.9094
11
18.0632
21
-59.9094
0
LINE
8
Black
10
18.0632
20
-59.9094
11
18.0632
21
-60.6278
0
LINE
8
Black
10
18.0632
20
-60.6278
11
18.7816
21
-60.6278
0
LINE
8
Black
10
18.7816
20
-63.3964
11
18.7816
21
-62.678
0
LINE
8
Black
10
18.7816
20
-62.678
11
18.0632
21
-62.678
0
LINE
8
Black
10
18.0632
20
-62.678
11
18.0632
21
-63.3964
0
LINE
8
Black
10
18.0632
20
-63.3964
11
18.7816
21
-63.3964
0
LINE
8
Black
10
18.7816
20
-66.165
11
18.7816
21
-65.4466
0
LINE
8
Black
10
18.7816
20
-65.4466
11
18.0632
21
-65.4466
0
LINE
8
Black
10
18.0632
20
-65.4466
11
18.0632
21
-66.165
0
LINE
8
Black
10
18.0632
20
-66.165
11
18.7816
21
-66.165
0
LINE
8
Black
10
18.7816
20
-68.9336
11
18.7816
21
-68.2152
0
LINE
8
Black
10
18.7816
20
-68.2152
11
18.0632
21
-68.2152
0
LINE
8
Black
10
18.0632
20
-68.2152
11
18.0632
21
-68.9336
0
LINE
8
Black
10
18.0632
20
-68.9336
11
18.7816
21
-68.9336
0
LINE
8
Black
10
18.7816
20
-71.7022
11
18.7816
21
-70.9838
0
LINE
8
Black
10
18.7816
20
-70.9838
11
18.0632
21
-70.9838
0
LINE
8
Black
10
18.0632
20
-70.9838
11
18.0632
21
-71.7022
0
LINE
8
Black
10
18.0632
20
-71.7022
11
18.7816
21
-71.7022
0
LINE
8
Black
10
18.7816
20
-74.4708
11
18.7816
21
-73.7524
0
LINE
8
Black
10
18.7816
20
-73.7524
11
18.0632
21
-73.7524
0
LINE
8
Black
10
18.0632
20
-73.7524
11
18.0632
21
-74.4708
0
LINE
8
Black
10
18.0632
20
-74.4708
11
18.7816
21
-74.4708
0
LINE
8
Black
10
18.7816
20
-77.2394
11
18.7816
21
-76.521
0
LINE
8
Black
10
18.7816
20
-76.521
11
18.0632
21
-76.521
0
LINE
8
Black
10
18.0632
20
-76.521
11
18.0632
21
-77.2394
0
LINE
8
Black
10
18.0632
20
-77.2394
11
18.7816
21
-77.2394
0
LINE
8
Black
10
18.7816
20
-80.008
11
18.7816
21
-79.2896
0
LINE
8
Black
10
18.7816
20
-79.2896
11
18.0632
21
-79.2896
0
LINE
8
Black
10
18.0632
20
-79.2896
11
18.0632
21
-80.008
0
LINE
8
Black
10
18.0632
20
-80.008
11
18.7816
21
-80.008
0
LINE
8
Black
10
18.7816
20
-82.7766
11
18.7816
21
-82.0582
0
LINE
8
Black
10
18.7816
20
-82.0582
11
18.0632
21
-82.0582
0
LINE
8
Black
10
18.0632
20
-82.0582
11
18.0632
21
-82.7766
0
LINE
8
Black
10
18.0632
20
-82.7766
11
18.7816
21
-82.7766
0
LINE
8
Black
10
40.9992
20
-98.1492
11
40.9992
21
-97.4308
0
LINE
8
Black
10
40.9992
20
-97.4308
11
40.2808
21
-97.4308
0
LINE
8
Black
10
40.2808
20
-97.4308
11
40.2808
21
-98.1492
0
LINE
8
Black
10
40.2808
20
-98.1492
11
40.9992
21
-98.1492
0
LINE
8
Black
10
40.9992
20
-100.689
11
40.9992
21
-99.9708
0
LINE
8
Black
10
40.9992
20
-99.9708
11
40.2808
21
-99.9708
0
LINE
8
Black
10
40.2808
20
-99.9708
11
40.2808
21
-100.689
0
LINE
8
Black
10
40.2808
20
-100.689
11
40.9992
21
-100.689
0
LINE
8
Black
10
42.0152
20
-52.4292
11
42.0152
21
-51.7108
0
LINE
8
Black
10
42.0152
20
-51.7108
11
41.2968
21
-51.7108
0
LINE
8
Black
10
41.2968
20
-51.7108
11
41.2968
21
-52.4292
0
LINE
8
Black
10
41.2968
20
-52.4292
11
42.0152
21
-52.4292
0
LINE
8
Black
10
42.0152
20
-54.9692
11
42.0152
21
-54.2508
0
LINE
8
Black
10
42.0152
20
-54.2508
11
41.2968
21
-54.2508
0
LINE
8
Black
10
41.2968
20
-54.2508
11
41.2968
21
-54.9692
0
LINE
8
Black
10
41.2968
20
-54.9692
11
42.0152
21
-54.9692
0
LINE
8
Black
10
43.5392
20
-98.1492
11
43.5392
21
-97.4308
0
LINE
8
Black
10
43.5392
20
-97.4308
11
42.8208
21
-97.4308
0
LINE
8
Black
10
42.8208
20
-97.4308
11
42.8208
21
-98.1492
0
LINE
8
Black
10
42.8208
20
-98.1492
11
43.5392
21
-98.1492
0
LINE
8
Black
10
43.5392
20
-100.689
11
43.5392
21
-99.9708
0
LINE
8
Black
10
43.5392
20
-99.9708
11
42.8208
21
-99.9708
0
LINE
8
Black
10
42.8208
20
-99.9708
11
42.8208
21
-100.689
0
LINE
8
Black
10
42.8208
20
-100.689
11
43.5392
21
-100.689
0
LINE
8
Black
10
53.1912
20
-59.2872
11
53.1912
21
-58.5688
0
LINE
8
Black
10
53.1912
20
-58.5688
11
52.4728
21
-58.5688
0
LINE
8
Black
10
52.4728
20
-58.5688
11
52.4728
21
-59.2872
0
LINE
8
Black
10
52.4728
20
-59.2872
11
53.1912
21
-59.2872
0
LINE
8
Black
10
53.1912
20
-61.8272
11
53.1912
21
-61.1088
0
LINE
8
Black
10
53.1912
20
-61.1088
11
52.4728
21
-61.1088
0
LINE
8
Black
10
52.4728
20
-61.1088
11
52.4728
21
-61.8272
0
LINE
8
Black
10
52.4728
20
-61.8272
11
53.1912
21
-61.8272
0
LINE
8
Black
10
53.1912
20
-64.3672
11
53.1912
21
-63.6488
0
LINE
8
Black
10
53.1912
20
-63.6488
11
52.4728
21
-63.6488
0
LINE
8
Black
10
52.4728
20
-63.6488
11
52.4728
21
-64.3672
0
LINE
8
Black
10
52.4728
20
-64.3672
11
53.1912
21
-64.3672
0
LINE
8
Black
10
53.1912
20
-66.9072
11
53.1912
21
-66.1888
0
LINE
8
Black
10
53.1912
20
-66.1888
11
52.4728
21
-66.1888
0
LINE
8
Black
10
52.4728
20
-66.1888
11
52.4728
21
-66.9072
0
LINE
8
Black
10
52.4728
20
-66.9072
11
53.1912
21
-66.9072
0
LINE
8
Black
10
53.1912
20
-74.0192
11
53.1912
21
-73.3008
0
LINE
8
Black
10
53.1912
20
-73.3008
11
52.4728
21
-73.3008
0
LINE
8
Black
10
52.4728
20
-73.3008
11
52.4728
21
-74.0192
0
LINE
8
Black
10
52.4728
20
-74.0192
11
53.1912
21
-74.0192
0
LINE
8
Black
10
53.1912
20
-76.5592
11
53.1912
21
-75.8408
0
LINE
8
Black
10
53.1912
20
-75.8408
11
52.4728
21
-75.8408
0
LINE
8
Black
10
52.4728
20
-75.8408
11
52.4728
21
-76.5592
0
LINE
8
Black
10
52.4728
20
-76.5592
11
53.1912
21
-76.5592
0
LINE
8
Black
10
54.4612
20
-29.3152
11
54.4612
21
-28.5968
0
LINE
8
Black
10
54.4612
20
-28.5968
11
53.7428
21
-28.5968
0
LINE
8
Black
10
53.7428
20
-28.5968
11
53.7428
21
-29.3152
0
LINE
8
Black
10
53.7428
20
-29.3152
11
54.4612
21
-29.3152
0
LINE
8
Black
10
54.4612
20
-31.8552
11
54.4612
21
-31.1368
0
LINE
8
Black
10
54.4612
20
-31.1368
11
53.7428
21
-31.1368
0
LINE
8
Black
10
53.7428
20
-31.1368
11
53.7428
21
-31.8552
0
LINE
8
Black
10
53.7428
20
-31.8552
11
54.4612
21
-31.8552
0
LINE
8
Black
10
54.4612
20
-34.3952
11
54.4612
21
-33.6768
0
LINE
8
Black
10
54.4612
20
-33.6768
11
53.7428
21
-33.6768
0
LINE
8
Black
10
53.7428
20
-33.6768
11
53.7428
21
-34.3952
0
LINE
8
Black
10
53.7428
20
-34.3952
11
54.4612
21
-34.3952
0
LINE
8
Black
10
54.4612
20
-36.9352
11
54.4612
21
-36.2168
0
LINE
8
Black
10
54.4612
20
-36.2168
11
53.7428
21
-36.2168
0
LINE
8
Black
10
53.7428
20
-36.2168
11
53.7428
21
-36.9352
0
LINE
8
Black
10
53.7428
20
-36.9352
11
54.4612
21
-36.9352
0
LINE
8
Black
10
54.4612
20
-39.4752
11
54.4612
21
-38.7568
0
LINE
8
Black
10
54.4612
20
-38.7568
11
53.7428
21
-38.7568
0
LINE
8
Black
10
53.7428
20
-38.7568
11
53.7428
21
-39.4752
0
LINE
8
Black
10
53.7428
20
-39.4752
11
54.4612
21
-39.4752
0
LINE
8
Black
10
55.4772
20
-82.9092
11
55.4772
21
-82.1908
0
LINE
8
Black
10
55.4772
20
-82.1908
11
54.7588
21
-82.1908
0
LINE
8
Black
10
54.7588
20
-82.1908
11
54.7588
21
-82.9092
0
LINE
8
Black
10
54.7588
20
-82.9092
11
55.4772
21
-82.9092
0
LINE
8
Black
10
55.4772
20
-85.4492
11
55.4772
21
-84.7308
0
LINE
8
Black
10
55.4772
20
-84.7308
11
54.7588
21
-84.7308
0
LINE
8
Black
10
54.7588
20
-84.7308
11
54.7588
21
-85.4492
0
LINE
8
Black
10
54.7588
20
-85.4492
11
55.4772
21
-85.4492
0
LINE
8
Black
10
55.4772
20
-87.9892
11
55.4772
21
-87.2708
0
LINE
8
Black
10
55.4772
20
-87.2708
11
54.7588
21
-87.2708
0
LINE
8
Black
10
54.7588
20
-87.2708
11
54.7588
21
-87.9892
0
LINE
8
Black
10
54.7588
20
-87.9892
11
55.4772
21
-87.9892
0
LINE
8
Black
10
55.4772
20
-90.5292
11
55.4772
21
-89.8108
0
LINE
8
Black
10
55.4772
20
-89.8108
11
54.7588
21
-89.8108
0
LINE
8
Black
10
54.7588
20
-89.8108
11
54.7588
21
-90.5292
0
LINE
8
Black
10
54.7588
20
-90.5292
11
55.4772
21
-90.5292
0
LINE
8
Black
10
55.7312
20
-59.2872
11
55.7312
21
-58.5688
0
LINE
8
Black
10
55.7312
20
-58.5688
11
55.0128
21
-58.5688
0
LINE
8
Black
10
55.0128
20
-58.5688
11
55.0128
21
-59.2872
0
LINE
8
Black
10
55.0128
20
-59.2872
11
55.7312
21
-59.2872
0
LINE
8
Black
10
55.7312
20
-61.8272
11
55.7312
21
-61.1088
0
LINE
8
Black
10
55.7312
20
-61.1088
11
55.0128
21
-61.1088
0
LINE
8
Black
10
55.0128
20
-61.1088
11
55.0128
21
-61.8272
0
LINE
8
Black
10
55.0128
20
-61.8272
11
55.7312
21
-61.8272
0
LINE
8
Black
10
55.7312
20
-64.3672
11
55.7312
21
-63.6488
0
LINE
8
Black
10
55.7312
20
-63.6488
11
55.0128
21
-63.6488
0
LINE
8
Black
10
55.0128
20
-63.6488
11
55.0128
21
-64.3672
0
LINE
8
Black
10
55.0128
20
-64.3672
11
55.7312
21
-64.3672
0
LINE
8
Black
10
55.7312
20
-66.9072
11
55.7312
21
-66.1888
0
LINE
8
Black
10
55.7312
20
-66.1888
11
55.0128
21
-66.1888
0
LINE
8
Black
10
55.0128
20
-66.1888
11
55.0128
21
-66.9072
0
LINE
8
Black
10
55.0128
20
-66.9072
11
55.7312
21
-66.9072
0
LINE
8
Black
10
55.7312
20
-74.0192
11
55.7312
21
-73.3008
0
LINE
8
Black
10
55.7312
20
-73.3008
11
55.0128
21
-73.3008
0
LINE
8
Black
10
55.0128
20
-73.3008
11
55.0128
21
-74.0192
0
LINE
8
Black
10
55.0128
20
-74.0192
11
55.7312
21
-74.0192
0
LINE
8
Black
10
55.7312
20
-76.5592
11
55.7312
21
-75.8408
0
LINE
8
Black
10
55.7312
20
-75.8408
11
55.0128
21
-75.8408
0
LINE
8
Black
10
55.0128
20
-75.8408
11
55.0128
21
-76.5592
0
LINE
8
Black
10
55.0128
20
-76.5592
11
55.7312
21
-76.5592
0
LINE
8
Black
10
17
20
-27.147
11
18.524
21
-25.623
0
LINE
8
Black
10
18.524
20
-25.623
11
17
21
-24.099
0
LINE
8
Black
10
17
20
-24.099
11
15.476
21
-25.623
0
LINE
8
Black
10
15.476
20
-25.623
11
17
21
-27.147
0
LINE
8
Black
10
17
20
-90.647
11
18.524
21
-89.123
0
LINE
8
Black
10
18.524
20
-89.123
11
17
21
-87.599
0
LINE
8
Black
10
17
20
-87.599
11
15.476
21
-89.123
0
LINE
8
Black
10
15.476
20
-89.123
11
17
21
-90.647
0
LINE
8
Black
10
14.0823
20
-14.0823
11
17.9177
21
-17.9177
0
LINE
8
Black
10
17.9177
20
-14.0823
11
14.0823
21
-17.9177
0
CIRCLE
8
Black
10
16
20
-16
40
1.9177
0
LINE
8
Black
10
14.0823
20
-97.0823
11
17.9177
21
-100.918
0
LINE
8
Black
10
17.9177
20
-97.0823
11
14.0823
21
-100.918
0
CIRCLE
8
Black
10
16
20
-99
40
1.9177
0
LINE
8
Black
10
57.0823
20
-14.0823
11
60.9177
21
-17.9177
0
LINE
8
Black
10
60.9177
20
-14.0823
11
57.0823
21
-17.9177
0
CIRCLE
8
Black
10
59
20
-16
40
1.9177
0
LINE
8
Black
10
57.0823
20
-97.0823
11
60.9177
21
-100.918
0
LINE
8
Black
10
60.9177
20
-97.0823
11
57.0823
21
-100.918
0
CIRCLE
8
Black
10
59
20
-99
40
1.9177
0
LINE
8
Black
10
12.6643
20
-109.707
11
12.6643
21
-106.707
0
LINE
8
Black
10
12.6643
20
-106.707
11
13.3786
21
-106.707
0
LINE
8
Black
10
13.3786
20
-106.707
11
13.8071
21
-106.85
0
LINE
8
Black
10
13.8071
20
-106.85
11
14.0929
21
-107.136
0
LINE
8
Black
10
14.0929
20
-107.136
11
14.2357
21
-107.421
0
LINE
8
Black
10
14.2357
20
-107.421
11
14.3786
21
-107.993
0
LINE
8
Black
10
14.3786
20
-107.993
11
14.3786
21
-108.421
0
LINE
8
Black
10
14.3786
20
-108.421
11
14.2357
21
-108.993
0
LINE
8
Black
10
14.2357
20
-108.993
11
14.0929
21
-109.279
0
LINE
8
Black
10
14.0929
20
-109.279
11
13.8071
21
-109.564
0
LINE
8
Black
10
13.8071
20
-109.564
11
13.3786
21
-109.707
0
LINE
8
Black
10
13.3786
20
-109.707
11
12.6643
21
-109.707
0
LINE
8
Black
10
15.6643
20
-109.707
11
15.6643
21
-107.707
0
LINE
8
Black
10
15.6643
20
-108.279
11
15.8071
21
-107.993
0
LINE
8
Black
10
15.8071
20
-107.993
11
15.95
21
-107.85
0
LINE
8
Black
10
15.95
20
-107.85
11
16.2357
21
-107.707
0
LINE
8
Black
10
16.2357
20
-107.707
11
16.5214
21
-107.707
0
LINE
8
Black
10
17.5214
20
-109.707
11
17.5214
21
-107.707
0
LINE
8
Black
10
17.5214
20
-106.707
11
17.3786
21
-106.85
0
LINE
8
Black
10
17.3786
20
-106.85
11
17.5214
21
-106.993
0
LINE
8
Black
10
17.5214
20
-106.993
11
17.6643
21
-106.85
0
LINE
8
Black
10
17.6643
20
-106.85
11
17.5214
21
-106.707
0
LINE
8
Black
10
17.5214
20
-106.707
11
17.5214
21
-106.993
0
LINE
8
Black
10
19.3786
20
-109.707
11
19.0929
21
-109.564
0
LINE
8
Black
10
19.0929
20
-109.564
11
18.95
21
-109.279
0
LINE
8
Black
10
18.95
20
-109.279
11
18.95
21
-106.707
0
LINE
8
Black
10
20.95
20
-109.707
11
20.6643
21
-109.564
0
LINE
8
Black
10
20.6643
20
-109.564
11
20.5214
21
-109.279
0
LINE
8
Black
10
20.5214
20
-109.279
11
20.5214
21
-106.707
0
LINE
8
Black
10
24.3786
20
-109.707
11
24.3786
21
-106.707
0
LINE
8
Black
10
24.3786
20
-106.707
11
25.3786
21
-108.85
0
LINE
8
Black
10
25.3786
20
-108.85
11
26.3786
21
-106.707
0
LINE
8
Black
10
26.3786
20
-106.707
11
26.3786
21
-109.707
0
LINE
8
Black
10
29.0929
20
-109.707
11
29.0929
21
-108.136
0
LINE
8
Black
10
29.0929
20
-108.136
11
28.95
21
-107.85
0
LINE
8
Black
10
28.95
20
-107.85
11
28.6643
21
-107.707
0
LINE
8
Black
10
28.6643
20
-107.707
11
28.0929
21
-107.707
0
LINE
8
Black
10
28.0929
20
-107.707
11
27.8071
21
-107.85
0
LINE
8
Black
10
29.0929
20
-109.564
11
28.8071
21
-109.707
0
LINE
8
Black
10
28.8071
20
-109.707
11
28.0929
21
-109.707
0
LINE
8
Black
10
28.0929
20
-109.707
11
27.8071
21
-109.564
0
LINE
8
Black
10
27.8071
20
-109.564
11
27.6643
21
-109.279
0
LINE
8
Black
10
27.6643
20
-109.279
11
27.6643
21
-108.993
0
LINE
8
Black
10
27.6643
20
-108.993
11
27.8071
21
-108.707
0
LINE
8
Black
10
27.8071
20
-108.707
11
28.0929
21
-108.564
0
LINE
8
Black
10
28.0929
20
-108.564
11
28.8071
21
-108.564
0
LINE
8
Black
10
28.8071
20
-108.564
11
29.0929
21
-108.421
0
LINE
8
Black
10
30.5214
20
-107.707
11
30.5214
21
-110.707
0
LINE
8
Black
10
30.5214
20
-107.85
11
30.8071
21
-107.707
0
LINE
8
Black
10
30.8071
20
-107.707
11
31.3786
21
-107.707
0
LINE
8
Black
10
31.3786
20
-107.707
11
31.6643
21
-107.85
0
LINE
8
Black
10
31.6643
20
-107.85
11
31.8071
21
-107.993
0
LINE
8
Black
10
31.8071
20
-107.993
11
31.95
21
-108.279
0
LINE
8
Black
10
31.95
20
-108.279
11
31.95
21
-109.136
0
LINE
8
Black
10
31.95
20
-109.136
11
31.8071
21
-109.421
0
LINE
8
Black
10
31.8071
20
-109.421
11
31.6643
21
-109.564
0
LINE
8
Black
10
31.6643
20
-109.564
11
31.3786
21
-109.707
0
LINE
8
Black
10
31.3786
20
-109.707
11
30.8071
21
-109.707
0
LINE
8
Black
10
30.8071
20
-109.707
11
30.5214
21
-109.564
0
LINE
8
Black
10
33.2357
20
-109.421
11
33.3786
21
-109.564
0
LINE
8
Black
10
33.3786
20
-109.564
11
33.2357
21
-109.707
0
LINE
8
Black
10
33.2357
20
-109.707
11
33.0929
21
-109.564
0
LINE
8
Black
10
33.0929
20
-109.564
11
33.2357
21
-109.421
0
LINE
8
Black
10
33.2357
20
-109.421
11
33.2357
21
-109.707
0
LINE
8
Black
10
33.2357
20
-107.85
11
33.3786
21
-107.993
0
LINE
8
Black
10
33.3786
20
-107.993
11
33.2357
21
-108.136
0
LINE
8
Black
10
33.2357
20
-108.136
11
33.0929
21
-107.993
0
LINE
8
Black
10
33.0929
20
-107.993
11
33.2357
21
-107.85
0
LINE
8
Black
10
33.2357
20
-107.85
11
33.2357
21
-108.136
0
LINE
8
Black
10
9.315
20
-114.333
11
9.95
21
-114.968
0
LINE
8
Black
10
9.95
20
-114.333
11
9.315
21
-114.968
0
LINE
8
Black
10
13.2357
20
-113.007
11
13.5214
21
-113.007
0
LINE
8
Black
10
13.5214
20
-113.007
11
13.8071
21
-113.15
0
LINE
8
Black
10
13.8071
20
-113.15
11
13.95
21
-113.293
0
LINE
8
Black
10
13.95
20
-113.293
11
14.0929
21
-113.579
0
LINE
8
Black
10
14.0929
20
-113.579
11
14.2357
21
-114.15
0
LINE
8
Black
10
14.2357
20
-114.15
11
14.2357
21
-114.864
0
LINE
8
Black
10
14.2357
20
-114.864
11
14.0929
21
-115.436
0
LINE
8
Black
10
14.0929
20
-115.436
11
13.95
21
-115.721
0
LINE
8
Black
10
13.95
20
-115.721
11
13.8071
21
-115.864
0
LINE
8
Black
10
13.8071
20
-115.864
11
13.5214
21
-116.007
0
LINE
8
Black
10
13.5214
20
-116.007
11
13.2357
21
-116.007
0
LINE
8
Black
10
13.2357
20
-116.007
11
12.95
21
-115.864
0
LINE
8
Black
10
12.95
20
-115.864
11
12.8071
21
-115.721
0
LINE
8
Black
10
12.8071
20
-115.721
11
12.6643
21
-115.436
0
LINE
8
Black
10
12.6643
20
-115.436
11
12.5214
21
-114.864
0
LINE
8
Black
10
12.5214
20
-114.864
11
12.5214
21
-114.15
0
LINE
8
Black
10
12.5214
20
-114.15
11
12.6643
21
-113.579
0
LINE
8
Black
10
12.6643
20
-113.579
11
12.8071
21
-113.293
0
LINE
8
Black
10
12.8071
20
-113.293
11
12.95
21
-113.15
0
LINE
8
Black
10
12.95
20
-113.15
11
13.2357
21
-113.007
0
LINE
8
Black
10
15.5214
20
-115.721
11
15.6643
21
-115.864
0
LINE
8
Black
10
15.6643
20
-115.864
11
15.5214
21
-116.007
0
LINE
8
Black
10
15.5214
20
-116.007
11
15.3786
21
-115.864
0
LINE
8
Black
10
15.3786
20
-115.864
11
15.5214
21
-115.721
0
LINE
8
Black
10
15.5214
20
-115.721
11
15.5214
21
-116.007
0
LINE
8
Black
10
18.2357
20
-113.007
11
17.6643
21
-113.007
0
LINE
8
Black
10
17.6643
20
-113.007
11
17.3786
21
-113.15
0
LINE
8
Black
10
17.3786
20
-113.15
11
17.2357
21
-113.293
0
LINE
8
Black
10
17.2357
20
-113.293
11
16.95
21
-113.721
0
LINE
8
Black
10
16.95
20
-113.721
11
16.8071
21
-114.293
0
LINE
8
Black
10
16.8071
20
-114.293
11
16.8071
21
-115.436
0
LINE
8
Black
10
16.8071
20
-115.436
11
16.95
21
-115.721
0
LINE
8
Black
10
16.95
20
-115.721
11
17.0929
21
-115.864
0
LINE
8
Black
10
17.0929
20
-115.864
11
17.3786
21
-116.007
0
LINE
8
Black
10
17.3786
20
-116.007
11
17.95
21
-116.007
0
LINE
8
Black
10
17.95
20
-116.007
11
18.2357
21
-115.864
0
LINE
8
Black
10
18.2357
20
-115.864
11
18.3786
21
-115.721
0
LINE
8
Black
10
18.3786
20
-115.721
11
18.5214
21
-115.436
0
LINE
8
Black
10
18.5214
20
-115.436
11
18.5214
21
-114.721
0
LINE
8
Black
10
18.5214
20
-114.721
11
18.3786
21
-114.436
0
LINE
8
Black
10
18.3786
20
-114.436
11
18.2357
21
-114.293
0
LINE
8
Black
10
18.2357
20
-114.293
11
17.95
21
-114.15
0
LINE
8
Black
10
17.95
20
-114.15
11
17.3786
21
-114.15
0
LINE
8
Black
10
17.3786
20
-114.15
11
17.0929
21
-114.293
0
LINE
8
Black
10
17.0929
20
-114.293
11
16.95
21
-114.436
0
LINE
8
Black
10
16.95
20
-114.436
11
16.8071
21
-114.721
0
LINE
8
Black
10
21.0929
20
-114.007
11
21.0929
21
-116.007
0
LINE
8
Black
10
20.3786
20
-112.864
11
19.6643
21
-115.007
0
LINE
8
Black
10
19.6643
20
-115.007
11
21.5214
21
-115.007
0
LINE
8
Black
10
22.6643
20
-116.007
11
22.6643
21
-114.007
0
LINE
8
Black
10
22.6643
20
-114.293
11
22.8071
21
-114.15
0
LINE
8
Black
10
22.8071
20
-114.15
11
23.0929
21
-114.007
0
LINE
8
Black
10
23.0929
20
-114.007
11
23.5214
21
-114.007
0
LINE
8
Black
10
23.5214
20
-114.007
11
23.8071
21
-114.15
0
LINE
8
Black
10
23.8071
20
-114.15
11
23.95
21
-114.436
0
LINE
8
Black
10
23.95
20
-114.436
11
23.95
21
-116.007
0
LINE
8
Black
10
23.95
20
-114.436
11
24.0929
21
-114.15
0
LINE
8
Black
10
24.0929
20
-114.15
11
24.3786
21
-114.007
0
LINE
8
Black
10
24.3786
20
-114.007
11
24.8071
21
-114.007
0
LINE
8
Black
10
24.8071
20
-114.007
11
25.0929
21
-114.15
0
LINE
8
Black
10
25.0929
20
-114.15
11
25.2357
21
-114.436
0
LINE
8
Black
10
25.2357
20
-114.436
11
25.2357
21
-116.007
0
LINE
8
Black
10
26.6643
20
-116.007
11
26.6643
21
-114.007
0
LINE
8
Black
10
26.6643
20
-114.293
11
26.8071
21
-114.15
0
LINE
8
Black
10
26.8071
20
-114.15
11
27.0929
21
-114.007
0
LINE
8
Black
10
27.0929
20
-114.007
11
27.5214
21
-114.007
0
LINE
8
Black
10
27.5214
20
-114.007
11
27.8071
21
-114.15
0
LINE
8
Black
10
27.8071
20
-114.15
11
27.95
21
-114.436
0
LINE
8
Black
10
27.95
20
-114.436
11
27.95
21
-116.007
0
LINE
8
Black
10
27.95
20
-114.436
11
28.0929
21
-114.15
0
LINE
8
Black
10
28.0929
20
-114.15
11
28.3786
21
-114.007
0
LINE
8
Black
10
28.3786
20
-114.007
11
28.8071
21
-114.007
0
LINE
8
Black
10
28.8071
20
-114.007
11
29.0929
21
-114.15
0
LINE
8
Black
10
29.0929
20
-114.15
11
29.2357
21
-114.436
0
LINE
8
Black
10
29.2357
20
-114.436
11
29.2357
21
-116.007
0
LINE
8
Black
10
35.0929
20
-112.864
11
32.5214
21
-116.721
0
LINE
8
Black
10
38.95
20
-113.007
11
39.2357
21
-113.007
0
LINE
8
Black
10
39.2357
20
-113.007
11
39.5214
21
-113.15
0
LINE
8
Black
10
39.5214
20
-113.15
11
39.6643
21
-113.293
0
LINE
8
Black
10
39.6643
20
-113.293
11
39.8071
21
-113.579
0
LINE
8
Black
10
39.8071
20
-113.579
11
39.95
21
-114.15
0
LINE
8
Black
10
39.95
20
-114.15
11
39.95
21
-114.864
0
LINE
8
Black
10
39.95
20
-114.864
11
39.8071
21
-115.436
0
LINE
8
Black
10
39.8071
20
-115.436
11
39.6643
21
-115.721
0
LINE
8
Black
10
39.6643
20
-115.721
11
39.5214
21
-115.864
0
LINE
8
Black
10
39.5214
20
-115.864
11
39.2357
21
-116.007
0
LINE
8
Black
10
39.2357
20
-116.007
11
38.95
21
-116.007
0
LINE
8
Black
10
38.95
20
-116.007
11
38.6643
21
-115.864
0
LINE
8
Black
10
38.6643
20
-115.864
11
38.5214
21
-115.721
0
LINE
8
Black
10
38.5214
20
-115.721
11
38.3786
21
-115.436
0
LINE
8
Black
10
38.3786
20
-115.436
11
38.2357
21
-114.864
0
LINE
8
Black
10
38.2357
20
-114.864
11
38.2357
21
-114.15
0
LINE
8
Black
10
38.2357
20
-114.15
11
38.3786
21
-113.579
0
LINE
8
Black
10
38.3786
20
-113.579
11
38.5214
21
-113.293
0
LINE
8
Black
10
38.5214
20
-113.293
11
38.6643
21
-113.15
0
LINE
8
Black
10
38.6643
20
-113.15
11
38.95
21
-113.007
0
LINE
8
Black
10
41.2357
20
-115.721
11
41.3786
21
-115.864
0
LINE
8
Black
10
41.3786
20
-115.864
11
41.2357
21
-116.007
0
LINE
8
Black
10
41.2357
20
-116.007
11
41.0929
21
-115.864
0
LINE
8
Black
10
41.0929
20
-115.864
11
41.2357
21
-115.721
0
LINE
8
Black
10
41.2357
20
-115.721
11
41.2357
21
-116.007
0
LINE
8
Black
10
43.2357
20
-113.007
11
43.5214
21
-113.007
0
LINE
8
Black
10
43.5214
20
-113.007
11
43.8071
21
-113.15
0
LINE
8
Black
10
43.8071
20
-113.15
11
43.95
21
-113.293
0
LINE
8
Black
10
43.95
20
-113.293
11
44.0929
21
-113.579
0
LINE
8
Black
10
44.0929
20
-113.579
11
44.2357
21
-114.15
0
LINE
8
Black
10
44.2357
20
-114.15
11
44.2357
21
-114.864
0
LINE
8
Black
10
44.2357
20
-114.864
11
44.0929
21
-115.436
0
LINE
8
Black
10
44.0929
20
-115.436
11
43.95
21
-115.721
0
LINE
8
Black
10
43.95
20
-115.721
11
43.8071
21
-115.864
0
LINE
8
Black
10
43.8071
20
-115.864
11
43.5214
21
-116.007
0
LINE
8
Black
10
43.5214
20
-116.007
11
43.2357
21
-116.007
0
LINE
8
Black
10
43.2357
20
-116.007
11
42.95
21
-115.864
0
LINE
8
Black
10
42.95
20
-115.864
11
42.8071
21
-115.721
0
LINE
8
Black
10
42.8071
20
-115.721
11
42.6643
21
-115.436
0
LINE
8
Black
10
42.6643
20
-115.436
11
42.5214
21
-114.864
0
LINE
8
Black
10
42.5214
20
-114.864
11
42.5214
21
-114.15
0
LINE
8
Black
10
42.5214
20
-114.15
11
42.6643
21
-113.579
0
LINE
8
Black
10
42.6643
20
-113.579
11
42.8071
21
-113.293
0
LINE
8
Black
10
42.8071
20
-113.293
11
42.95
21
-113.15
0
LINE
8
Black
10
42.95
20
-113.15
11
43.2357
21
-113.007
0
LINE
8
Black
10
45.3786
20
-113.293
11
45.5214
21
-113.15
0
LINE
8
Black
10
45.5214
20
-113.15
11
45.8071
21
-113.007
0
LINE
8
Black
10
45.8071
20
-113.007
11
46.5214
21
-113.007
0
LINE
8
Black
10
46.5214
20
-113.007
11
46.8071
21
-113.15
0
LINE
8
Black
10
46.8071
20
-113.15
11
46.95
21
-113.293
0
LINE
8
Black
10
46.95
20
-113.293
11
47.0929
21
-113.579
0
LINE
8
Black
10
47.0929
20
-113.579
11
47.0929
21
-113.864
0
LINE
8
Black
10
47.0929
20
-113.864
11
46.95
21
-114.293
0
LINE
8
Black
10
46.95
20
-114.293
11
45.2357
21
-116.007
0
LINE
8
Black
10
45.2357
20
-116.007
11
47.0929
21
-116.007
0
LINE
8
Black
10
49.8071
20
-113.007
11
48.3786
21
-113.007
0
LINE
8
Black
10
48.3786
20
-113.007
11
48.2357
21
-114.436
0
LINE
8
Black
10
48.2357
20
-114.436
11
48.3786
21
-114.293
0
LINE
8
Black
10
48.3786
20
-114.293
11
48.6643
21
-114.15
0
LINE
8
Black
10
48.6643
20
-114.15
11
49.3786
21
-114.15
0
LINE
8
Black
10
49.3786
20
-114.15
11
49.6643
21
-114.293
0
LINE
8
Black
10
49.6643
20
-114.293
11
49.8071
21
-114.436
0
LINE
8
Black
10
49.8071
20
-114.436
11
49.95
21
-114.721
0
LINE
8
Black
10
49.95
20
-114.721
11
49.95
21
-115.436
0
LINE
8
Black
10
49.95
20
-115.436
11
49.8071
21
-115.721
0
LINE
8
Black
10
49.8071
20
-115.721
11
49.6643
21
-115.864
0
LINE
8
Black
10
49.6643
20
-115.864
11
49.3786
21
-116.007
0
LINE
8
Black
10
49.3786
20
-116.007
11
48.6643
21
-116.007
0
LINE
8
Black
10
48.6643
20
-116.007
11
48.3786
21
-115.864
0
LINE
8
Black
10
48.3786
20
-115.864
11
48.2357
21
-115.721
0
LINE
8
Black
10
51.0929
20
-113.007
11
51.0929
21
-113.579
0
LINE
8
Black
10
52.2357
20
-113.007
11
52.2357
21
-113.579
0
LINE
8
Black
10
56.6643
20
-117.15
11
56.5214
21
-117.007
0
LINE
8
Black
10
56.5214
20
-117.007
11
56.2357
21
-116.579
0
LINE
8
Black
10
56.2357
20
-116.579
11
56.0929
21
-116.293
0
LINE
8
Black
10
56.0929
20
-116.293
11
55.95
21
-115.864
0
LINE
8
Black
10
55.95
20
-115.864
11
55.8071
21
-115.15
0
LINE
8
Black
10
55.8071
20
-115.15
11
55.8071
21
-114.579
0
LINE
8
Black
10
55.8071
20
-114.579
11
55.95
21
-113.864
0
LINE
8
Black
10
55.95
20
-113.864
11
56.0929
21
-113.436
0
LINE
8
Black
10
56.0929
20
-113.436
11
56.2357
21
-113.15
0
LINE
8
Black
10
56.2357
20
-113.15
11
56.5214
21
-112.721
0
LINE
8
Black
10
56.5214
20
-112.721
11
56.6643
21
-112.579
0
LINE
8
Black
10
57.6643
20
-113.293
11
57.8071
21
-113.15
0
LINE
8
Black
10
57.8071
20
-113.15
11
58.0929
21
-113.007
0
LINE
8
Black
10
58.0929
20
-113.007
11
58.8071
21
-113.007
0
LINE
8
Black
10
58.8071
20
-113.007
11
59.0929
21
-113.15
0
LINE
8
Black
10
59.0929
20
-113.15
11
59.2357
21
-113.293
0
LINE
8
Black
10
59.2357
20
-113.293
11
59.3786
21
-113.579
0
LINE
8
Black
10
59.3786
20
-113.579
11
59.3786
21
-113.864
0
LINE
8
Black
10
59.3786
20
-113.864
11
59.2357
21
-114.293
0
LINE
8
Black
10
59.2357
20
-114.293
11
57.5214
21
-116.007
0
LINE
8
Black
10
57.5214
20
-116.007
11
59.3786
21
-116.007
0
LINE
8
Black
10
61.95
20
-114.007
11
61.95
21
-116.007
0
LINE
8
Black
10
61.2357
20
-112.864
11
60.5214
21
-115.007
0
LINE
8
Black
10
60.5214
20
-115.007
11
62.3786
21
-115.007
0
LINE
8
Black
10
65.8071
20
-116.007
11
65.8071
21
-113.007
0
LINE
8
Black
10
67.0929
20
-116.007
11
67.0929
21
-114.436
0
LINE
8
Black
10
67.0929
20
-114.436
11
66.95
21
-114.15
0
LINE
8
Black
10
66.95
20
-114.15
11
66.6643
21
-114.007
0
LINE
8
Black
10
66.6643
20
-114.007
11
66.2357
21
-114.007
0
LINE
8
Black
10
66.2357
20
-114.007
11
65.95
21
-114.15
0
LINE
8
Black
10
65.95
20
-114.15
11
65.8071
21
-114.293
0
LINE
8
Black
10
68.95
20
-116.007
11
68.6643
21
-115.864
0
LINE
8
Black
10
68.6643
20
-115.864
11
68.5214
21
-115.721
0
LINE
8
Black
10
68.5214
20
-115.721
11
68.3786
21
-115.436
0
LINE
8
Black
10
68.3786
20
-115.436
11
68.3786
21
-114.579
0
LINE
8
Black
10
68.3786
20
-114.579
11
68.5214
21
-114.293
0
LINE
8
Black
10
68.5214
20
-114.293
11
68.6643
21
-114.15
0
LINE
8
Black
10
68.6643
20
-114.15
11
68.95
21
-114.007
0
LINE
8
Black
10
68.95
20
-114.007
11
69.3786
21
-114.007
0
LINE
8
Black
10
69.3786
20
-114.007
11
69.6643
21
-114.15
0
LINE
8
Black
10
69.6643
20
-114.15
11
69.8071
21
-114.293
0
LINE
8
Black
10
69.8071
20
-114.293
11
69.95
21
-114.579
0
LINE
8
Black
10
69.95
20
-114.579
11
69.95
21
-115.436
0
LINE
8
Black
10
69.95
20
-115.436
11
69.8071
21
-115.721
0
LINE
8
Black
10
69.8071
20
-115.721
11
69.6643
21
-115.864
0
LINE
8
Black
10
69.6643
20
-115.864
11
69.3786
21
-116.007
0
LINE
8
Black
10
69.3786
20
-116.007
11
68.95
21
-116.007
0
LINE
8
Black
10
71.6643
20
-116.007
11
71.3786
21
-115.864
0
LINE
8
Black
10
71.3786
20
-115.864
11
71.2357
21
-115.579
0
LINE
8
Black
10
71.2357
20
-115.579
11
71.2357
21
-113.007
0
LINE
8
Black
10
73.95
20
-115.864
11
73.6643
21
-116.007
0
LINE
8
Black
10
73.6643
20
-116.007
11
73.0929
21
-116.007
0
LINE
8
Black
10
73.0929
20
-116.007
11
72.8071
21
-115.864
0
LINE
8
Black
10
72.8071
20
-115.864
11
72.6643
21
-115.579
0
LINE
8
Black
10
72.6643
20
-115.579
11
72.6643
21
-114.436
0
LINE
8
Black
10
72.6643
20
-114.436
11
72.8071
21
-114.15
0
LINE
8
Black
10
72.8071
20
-114.15
11
73.0929
21
-114.007
0
LINE
8
Black
10
73.0929
20
-114.007
11
73.6643
21
-114.007
0
LINE
8
Black
10
73.6643
20
-114.007
11
73.95
21
-114.15
0
LINE
8
Black
10
73.95
20
-114.15
11
74.0929
21
-114.436
0
LINE
8
Black
10
74.0929
20
-114.436
11
74.0929
21
-114.721
0
LINE
8
Black
10
74.0929
20
-114.721
11
72.6643
21
-115.007
0
LINE
8
Black
10
75.2357
20
-115.864
11
75.5214
21
-116.007
0
LINE
8
Black
10
75.5214
20
-116.007
11
76.0929
21
-116.007
0
LINE
8
Black
10
76.0929
20
-116.007
11
76.3786
21
-115.864
0
LINE
8
Black
10
76.3786
20
-115.864
11
76.5214
21
-115.579
0
LINE
8
Black
10
76.5214
20
-115.579
11
76.5214
21
-115.436
0
LINE
8
Black
10
76.5214
20
-115.436
11
76.3786
21
-115.15
0
LINE
8
Black
10
76.3786
20
-115.15
11
76.0929
21
-115.007
0
LINE
8
Black
10
76.0929
20
-115.007
11
75.6643
21
-115.007
0
LINE
8
Black
10
75.6643
20
-115.007
11
75.3786
21
-114.864
0
LINE
8
Black
10
75.3786
20
-114.864
11
75.2357
21
-114.579
0
LINE
8
Black
10
75.2357
20
-114.579
11
75.2357
21
-114.436
0
LINE
8
Black
10
75.2357
20
-114.436
11
75.3786
21
-114.15
0
LINE
8
Black
10
75.3786
20
-114.15
11
75.6643
21
-114.007
0
LINE
8
Black
10
75.6643
20
-114.007
11
76.0929
21
-114.007
0
LINE
8
Black
10
76.0929
20
-114.007
11
76.3786
21
-114.15
0
LINE
8
Black
10
77.5214
20
-117.15
11
77.6643
21
-117.007
0
LINE
8
Black
10
77.6643
20
-117.007
11
77.95
21
-116.579
0
LINE
8
Black
10
77.95
20
-116.579
11
78.0929
21
-116.293
0
LINE
8
Black
10
78.0929
20
-116.293
11
78.2357
21
-115.864
0
LINE
8
Black
10
78.2357
20
-115.864
11
78.3786
21
-115.15
0
LINE
8
Black
10
78.3786
20
-115.15
11
78.3786
21
-114.579
0
LINE
8
Black
10
78.3786
20
-114.579
11
78.2357
21
-113.864
0
LINE
8
Black
10
78.2357
20
-113.864
11
78.0929
21
-113.436
0
LINE
8
Black
10
78.0929
20
-113.436
11
77.95
21
-113.15
0
LINE
8
Black
10
77.95
20
-113.15
11
77.6643
21
-112.721
0
LINE
8
Black
10
77.6643
20
-112.721
11
77.5214
21
-112.579
0
CIRCLE
8
Black
10
9.55
20
-118.61
40
0.4
0
LINE
8
Black
10
13.2357
20
-116.967
11
13.5214
21
-116.967
0
LINE
8
Black
10
13.5214
20
-116.967
11
13.8071
21
-117.11
0
LINE
8
Black
10
13.8071
20
-117.11
11
13.95
21
-117.253
0
LINE
8
Black
10
13.95
20
-117.253
11
14.0929
21
-117.539
0
LINE
8
Black
10
14.0929
20
-117.539
11
14.2357
21
-118.11
0
LINE
8
Black
10
14.2357
20
-118.11
11
14.2357
21
-118.824
0
LINE
8
Black
10
14.2357
20
-118.824
11
14.0929
21
-119.396
0
LINE
8
Black
10
14.0929
20
-119.396
11
13.95
21
-119.681
0
LINE
8
Black
10
13.95
20
-119.681
11
13.8071
21
-119.824
0
LINE
8
Black
10
13.8071
20
-119.824
11
13.5214
21
-119.967
0
LINE
8
Black
10
13.5214
20
-119.967
11
13.2357
21
-119.967
0
LINE
8
Black
10
13.2357
20
-119.967
11
12.95
21
-119.824
0
LINE
8
Black
10
12.95
20
-119.824
11
12.8071
21
-119.681
0
LINE
8
Black
10
12.8071
20
-119.681
11
12.6643
21
-119.396
0
LINE
8
Black
10
12.6643
20
-119.396
11
12.5214
21
-118.824
0
LINE
8
Black
10
12.5214
20
-118.824
11
12.5214
21
-118.11
0
LINE
8
Black
10
12.5214
20
-118.11
11
12.6643
21
-117.539
0
LINE
8
Black
10
12.6643
20
-117.539
11
12.8071
21
-117.253
0
LINE
8
Black
10
12.8071
20
-117.253
11
12.95
21
-117.11
0
LINE
8
Black
10
12.95
20
-117.11
11
13.2357
21
-116.967
0
LINE
8
Black
10
15.5214
20
-119.681
11
15.6643
21
-119.824
0
LINE
8
Black
10
15.6643
20
-119.824
11
15.5214
21
-119.967
0
LINE
8
Black
10
15.5214
20
-119.967
11
15.3786
21
-119.824
0
LINE
8
Black
10
15.3786
20
-119.824
11
15.5214
21
-119.681
0
LINE
8
Black
10
15.5214
20
-119.681
11
15.5214
21
-119.967
0
LINE
8
Black
10
17.3786
20
-118.253
11
17.0929
21
-118.11
0
LINE
8
Black
10
17.0929
20
-118.11
11
16.95
21
-117.967
0
LINE
8
Black
10
16.95
20
-117.967
11
16.8071
21
-117.681
0
LINE
8
Black
10
16.8071
20
-117.681
11
16.8071
21
-117.539
0
LINE
8
Black
10
16.8071
20
-117.539
11
16.95
21
-117.253
0
LINE
8
Black
10
16.95
20
-117.253
11
17.0929
21
-117.11
0
LINE
8
Black
10
17.0929
20
-117.11
11
17.3786
21
-116.967
0
LINE
8
Black
10
17.3786
20
-116.967
11
17.95
21
-116.967
0
LINE
8
Black
10
17.95
20
-116.967
11
18.2357
21
-117.11
0
LINE
8
Black
10
18.2357
20
-117.11
11
18.3786
21
-117.253
0
LINE
8
Black
10
18.3786
20
-117.253
11
18.5214
21
-117.539
0
LINE
8
Black
10
18.5214
20
-117.539
11
18.5214
21
-117.681
0
LINE
8
Black
10
18.5214
20
-117.681
11
18.3786
21
-117.967
0
LINE
8
Black
10
18.3786
20
-117.967
11
18.2357
21
-118.11
0
LINE
8
Black
10
18.2357
20
-118.11
11
17.95
21
-118.253
0
LINE
8
Black
10
17.95
20
-118.253
11
17.3786
21
-118.253
0
LINE
8
Black
10
17.3786
20
-118.253
11
17.0929
21
-118.396
0
LINE
8
Black
10
17.0929
20
-118.396
11
16.95
21
-118.539
0
LINE
8
Black
10
16.95
20
-118.539
11
16.8071
21
-118.824
0
LINE
8
Black
10
16.8071
20
-118.824
11
16.8071
21
-119.396
0
LINE
8
Black
10
16.8071
20
-119.396
11
16.95
21
-119.681
0
LINE
8
Black
10
16.95
20
-119.681
11
17.0929
21
-119.824
0
LINE
8
Black
10
17.0929
20
-119.824
11
17.3786
21
-119.967
0
LINE
8
Black
10
17.3786
20
-119.967
11
17.95
21
-119.967
0
LINE
8
Black
10
17.95
20
-119.967
11
18.2357
21
-119.824
0
LINE
8
Black
10
18.2357
20
-119.824
11
18.3786
21
-119.681
0
LINE
8
Black
10
18.3786
20
-119.681
11
18.5214
21
-119.396
0
LINE
8
Black
10
18.5214
20
-119.396
11
18.5214
21
-118.824
0
LINE
8
Black
10
18.5214
20
-118.824
11
18.3786
21
-118.539
0
LINE
8
Black
10
18.3786
20
-118.539
11
18.2357
21
-118.396
0
LINE
8
Black
10
18.2357
20
-118.396
11
17.95
21
-118.253
0
LINE
8
Black
10
20.3786
20
-116.967
11
20.6643
21
-116.967
0
LINE
8
Black
10
20.6643
20
-116.967
11
20.95
21
-117.11
0
LINE
8
Black
10
20.95
20
-117.11
11
21.0929
21
-117.253
0
LINE
8
Black
10
21.0929
20
-117.253
11
21.2357
21
-117.539
0
LINE
8
Black
10
21.2357
20
-117.539
11
21.3786
21
-118.11
0
LINE
8
Black
10
21.3786
20
-118.11
11
21.3786
21
-118.824
0
LINE
8
Black
10
21.3786
20
-118.824
11
21.2357
21
-119.396
0
LINE
8
Black
10
21.2357
20
-119.396
11
21.0929
21
-119.681
0
LINE
8
Black
10
21.0929
20
-119.681
11
20.95
21
-119.824
0
LINE
8
Black
10
20.95
20
-119.824
11
20.6643
21
-119.967
0
LINE
8
Black
10
20.6643
20
-119.967
11
20.3786
21
-119.967
0
LINE
8
Black
10
20.3786
20
-119.967
11
20.0929
21
-119.824
0
LINE
8
Black
10
20.0929
20
-119.824
11
19.95
21
-119.681
0
LINE
8
Black
10
19.95
20
-119.681
11
19.8071
21
-119.396
0
LINE
8
Black
10
19.8071
20
-119.396
11
19.6643
21
-118.824
0
LINE
8
Black
10
19.6643
20
-118.824
11
19.6643
21
-118.11
0
LINE
8
Black
10
19.6643
20
-118.11
11
19.8071
21
-117.539
0
LINE
8
Black
10
19.8071
20
-117.539
11
19.95
21
-117.253
0
LINE
8
Black
10
19.95
20
-117.253
11
20.0929
21
-117.11
0
LINE
8
Black
10
20.0929
20
-117.11
11
20.3786
21
-116.967
0
LINE
8
Black
10
22.6643
20
-119.967
11
22.6643
21
-117.967
0
LINE
8
Black
10
22.6643
20
-118.253
11
22.8071
21
-118.11
0
LINE
8
Black
10
22.8071
20
-118.11
11
23.0929
21
-117.967
0
LINE
8
Black
10
23.0929
20
-117.967
11
23.5214
21
-117.967
0
LINE
8
Black
10
23.5214
20
-117.967
11
23.8071
21
-118.11
0
LINE
8
Black
10
23.8071
20
-118.11
11
23.95
21
-118.396
0
LINE
8
Black
10
23.95
20
-118.396
11
23.95
21
-119.967
0
LINE
8
Black
10
23.95
20
-118.396
11
24.0929
21
-118.11
0
LINE
8
Black
10
24.0929
20
-118.11
11
24.3786
21
-117.967
0
LINE
8
Black
10
24.3786
20
-117.967
11
24.8071
21
-117.967
0
LINE
8
Black
10
24.8071
20
-117.967
11
25.0929
21
-118.11
0
LINE
8
Black
10
25.0929
20
-118.11
11
25.2357
21
-118.396
0
LINE
8
Black
10
25.2357
20
-118.396
11
25.2357
21
-119.967
0
LINE
8
Black
10
26.6643
20
-119.967
11
26.6643
21
-117.967
0
LINE
8
Black
10
26.6643
20
-118.253
11
26.8071
21
-118.11
0
LINE
8
Black
10
26.8071
20
-118.11
11
27.0929
21
-117.967
0
LINE
8
Black
10
27.0929
20
-117.967
11
27.5214
21
-117.967
0
LINE
8
Black
10
27.5214
20
-117.967
11
27.8071
21
-118.11
0
LINE
8
Black
10
27.8071
20
-118.11
11
27.95
21
-118.396
0
LINE
8
Black
10
27.95
20
-118.396
11
27.95
21
-119.967
0
LINE
8
Black
10
27.95
20
-118.396
11
28.0929
21
-118.11
0
LINE
8
Black
10
28.0929
20
-118.11
11
28.3786
21
-117.967
0
LINE
8
Black
10
28.3786
20
-117.967
11
28.8071
21
-117.967
0
LINE
8
Black
10
28.8071
20
-117.967
11
29.0929
21
-118.11
0
LINE
8
Black
10
29.0929
20
-118.11
11
29.2357
21
-118.396
0
LINE
8
Black
10
29.2357
20
-118.396
11
29.2357
21
-119.967
0
LINE
8
Black
10
35.0929
20
-116.824
11
32.5214
21
-120.681
0
LINE
8
Black
10
38.95
20
-116.967
11
39.2357
21
-116.967
0
LINE
8
Black
10
39.2357
20
-116.967
11
39.5214
21
-117.11
0
LINE
8
Black
10
39.5214
20
-117.11
11
39.6643
21
-117.253
0
LINE
8
Black
10
39.6643
20
-117.253
11
39.8071
21
-117.539
0
LINE
8
Black
10
39.8071
20
-117.539
11
39.95
21
-118.11
0
LINE
8
Black
10
39.95
20
-118.11
11
39.95
21
-118.824
0
LINE
8
Black
10
39.95
20
-118.824
11
39.8071
21
-119.396
0
LINE
8
Black
10
39.8071
20
-119.396
11
39.6643
21
-119.681
0
LINE
8
Black
10
39.6643
20
-119.681
11
39.5214
21
-119.824
0
LINE
8
Black
10
39.5214
20
-119.824
11
39.2357
21
-119.967
0
LINE
8
Black
10
39.2357
20
-119.967
11
38.95
21
-119.967
0
LINE
8
Black
10
38.95
20
-119.967
11
38.6643
21
-119.824
0
LINE
8
Black
10
38.6643
20
-119.824
11
38.5214
21
-119.681
0
LINE
8
Black
10
38.5214
20
-119.681
11
38.3786
21
-119.396
0
LINE
8
Black
10
38.3786
20
-119.396
11
38.2357
21
-118.824
0
LINE
8
Black
10
38.2357
20
-118.824
11
38.2357
21
-118.11
0
LINE
8
Black
10
38.2357
20
-118.11
11
38.3786
21
-117.539
0
LINE
8
Black
10
38.3786
20
-117.539
11
38.5214
21
-117.253
0
LINE
8
Black
10
38.5214
20
-117.253
11
38.6643
21
-117.11
0
LINE
8
Black
10
38.6643
20
-117.11
11
38.95
21
-116.967
0
LINE
8
Black
10
41.2357
20
-119.681
11
41.3786
21
-119.824
0
LINE
8
Black
10
41.3786
20
-119.824
11
41.2357
21
-119.967
0
LINE
8
Black
10
41.2357
20
-119.967
11
41.0929
21
-119.824
0
LINE
8
Black
10
41.0929
20
-119.824
11
41.2357
21
-119.681
0
LINE
8
Black
10
41.2357
20
-119.681
11
41.2357
21
-119.967
0
LINE
8
Black
10
43.2357
20
-116.967
11
43.5214
21
-116.967
0
LINE
8
Black
10
43.5214
20
-116.967
11
43.8071
21
-117.11
0
LINE
8
Black
10
43.8071
20
-117.11
11
43.95
21
-117.253
0
LINE
8
Black
10
43.95
20
-117.253
11
44.0929
21
-117.539
0
LINE
8
Black
10
44.0929
20
-117.539
11
44.2357
21
-118.11
0
LINE
8
Black
10
44.2357
20
-118.11
11
44.2357
21
-118.824
0
LINE
8
Black
10
44.2357
20
-118.824
11
44.0929
21
-119.396
0
LINE
8
Black
10
44.0929
20
-119.396
11
43.95
21
-119.681
0
LINE
8
Black
10
43.95
20
-119.681
11
43.8071
21
-119.824
0
LINE
8
Black
10
43.8071
20
-119.824
11
43.5214
21
-119.967
0
LINE
8
Black
10
43.5214
20
-119.967
11
43.2357
21
-119.967
0
LINE
8
Black
10
43.2357
20
-119.967
11
42.95
21
-119.824
0
LINE
8
Black
10
42.95
20
-119.824
11
42.8071
21
-119.681
0
LINE
8
Black
10
42.8071
20
-119.681
11
42.6643
21
-119.396
0
LINE
8
Black
10
42.6643
20
-119.396
11
42.5214
21
-118.824
0
LINE
8
Black
10
42.5214
20
-118.824
11
42.5214
21
-118.11
0
LINE
8
Black
10
42.5214
20
-118.11
11
42.6643
21
-117.539
0
LINE
8
Black
10
42.6643
20
-117.539
11
42.8071
21
-117.253
0
LINE
8
Black
10
42.8071
20
-117.253
11
42.95
21
-117.11
0
LINE
8
Black
10
42.95
20
-117.11
11
43.2357
21
-116.967
0
LINE
8
Black
10
45.2357
20
-116.967
11
47.0929
21
-116.967
0
LINE
8
Black
10
47.0929
20
-116.967
11
46.0929
21
-118.11
0
LINE
8
Black
10
46.0929
20
-118.11
11
46.5214
21
-118.11
0
LINE
8
Black
10
46.5214
20
-118.11
11
46.8071
21
-118.253
0
LINE
8
Black
10
46.8071
20
-118.253
11
46.95
21
-118.396
0
LINE
8
Black
10
46.95
20
-118.396
11
47.0929
21
-118.681
0
LINE
8
Black
10
47.0929
20
-118.681
11
47.0929
21
-119.396
0
LINE
8
Black
10
47.0929
20
-119.396
11
46.95
21
-119.681
0
LINE
8
Black
10
46.95
20
-119.681
11
46.8071
21
-119.824
0
LINE
8
Black
10
46.8071
20
-119.824
11
46.5214
21
-119.967
0
LINE
8
Black
10
46.5214
20
-119.967
11
45.6643
21
-119.967
0
LINE
8
Black
10
45.6643
20
-119.967
11
45.3786
21
-119.824
0
LINE
8
Black
10
45.3786
20
-119.824
11
45.2357
21
-119.681
0
LINE
8
Black
10
49.95
20
-119.967
11
48.2357
21
-119.967
0
LINE
8
Black
10
49.0929
20
-119.967
11
49.0929
21
-116.967
0
LINE
8
Black
10
49.0929
20
-116.967
11
48.8071
21
-117.396
0
LINE
8
Black
10
48.8071
20
-117.396
11
48.5214
21
-117.681
0
LINE
8
Black
10
48.5214
20
-117.681
11
48.2357
21
-117.824
0
LINE
8
Black
10
51.0929
20
-116.967
11
51.0929
21
-117.539
0
LINE
8
Black
10
52.2357
20
-116.967
11
52.2357
21
-117.539
0
LINE
8
Black
10
56.6643
20
-121.11
11
56.5214
21
-120.967
0
LINE
8
Black
10
56.5214
20
-120.967
11
56.2357
21
-120.539
0
LINE
8
Black
10
56.2357
20
-120.539
11
56.0929
21
-120.253
0
LINE
8
Black
10
56.0929
20
-120.253
11
55.95
21
-119.824
0
LINE
8
Black
10
55.95
20
-119.824
11
55.8071
21
-119.11
0
LINE
8
Black
10
55.8071
20
-119.11
11
55.8071
21
-118.539
0
LINE
8
Black
10
55.8071
20
-118.539
11
55.95
21
-117.824
0
LINE
8
Black
10
55.95
20
-117.824
11
56.0929
21
-117.396
0
LINE
8
Black
10
56.0929
20
-117.396
11
56.2357
21
-117.11
0
LINE
8
Black
10
56.2357
20
-117.11
11
56.5214
21
-116.681
0
LINE
8
Black
10
56.5214
20
-116.681
11
56.6643
21
-116.539
0
LINE
8
Black
10
57.5214
20
-116.967
11
59.5214
21
-116.967
0
LINE
8
Black
10
59.5214
20
-116.967
11
58.2357
21
-119.967
0
LINE
8
Black
10
60.5214
20
-117.253
11
60.6643
21
-117.11
0
LINE
8
Black
10
60.6643
20
-117.11
11
60.95
21
-116.967
0
LINE
8
Black
10
60.95
20
-116.967
11
61.6643
21
-116.967
0
LINE
8
Black
10
61.6643
20
-116.967
11
61.95
21
-117.11
0
LINE
8
Black
10
61.95
20
-117.11
11
62.0929
21
-117.253
0
LINE
8
Black
10
62.0929
20
-117.253
11
62.2357
21
-117.539
0
LINE
8
Black
10
62.2357
20
-117.539
11
62.2357
21
-117.824
0
LINE
8
Black
10
62.2357
20
-117.824
11
62.0929
21
-118.253
0
LINE
8
Black
10
62.0929
20
-118.253
11
60.3786
21
-119.967
0
LINE
8
Black
10
60.3786
20
-119.967
11
62.2357
21
-119.967
0
LINE
8
Black
10
65.8071
20
-119.967
11
65.8071
21
-116.967
0
LINE
8
Black
10
67.0929
20
-119.967
11
67.0929
21
-118.396
0
LINE
8
Black
10
67.0929
20
-118.396
11
66.95
21
-118.11
0
LINE
8
Black
10
66.95
20
-118.11
11
66.6643
21
-117.967
0
LINE
8
Black
10
66.6643
20
-117.967
11
66.2357
21
-117.967
0
LINE
8
Black
10
66.2357
20
-117.967
11
65.95
21
-118.11
0
LINE
8
Black
10
65.95
20
-118.11
11
65.8071
21
-118.253
0
LINE
8
Black
10
68.95
20
-119.967
11
68.6643
21
-119.824
0
LINE
8
Black
10
68.6643
20
-119.824
11
68.5214
21
-119.681
0
LINE
8
Black
10
68.5214
20
-119.681
11
68.3786
21
-119.396
0
LINE
8
Black
10
68.3786
20
-119.396
11
68.3786
21
-118.539
0
LINE
8
Black
10
68.3786
20
-118.539
11
68.5214
21
-118.253
0
LINE
8
Black
10
68.5214
20
-118.253
11
68.6643
21
-118.11
0
LINE
8
Black
10
68.6643
20
-118.11
11
68.95
21
-117.967
0
LINE
8
Black
10
68.95
20
-117.967
11
69.3786
21
-117.967
0
LINE
8
Black
10
69.3786
20
-117.967
11
69.6643
21
-118.11
0
LINE
8
Black
10
69.6643
20
-118.11
11
69.8071
21
-118.253
0
LINE
8
Black
10
69.8071
20
-118.253
11
69.95
21
-118.539
0
LINE
8
Black
10
69.95
20
-118.539
11
69.95
21
-119.396
0
LINE
8
Black
10
69.95
20
-119.396
11
69.8071
21
-119.681
0
LINE
8
Black
10
69.8071
20
-119.681
11
69.6643
21
-119.824
0
LINE
8
Black
10
69.6643
20
-119.824
11
69.3786
21
-119.967
0
LINE
8
Black
10
69.3786
20
-119.967
11
68.95
21
-119.967
0
LINE
8
Black
10
71.6643
20
-119.967
11
71.3786
21
-119.824
0
LINE
8
Black
10
71.3786
20
-119.824
11
71.2357
21
-119.539
0
LINE
8
Black
10
71.2357
20
-119.539
11
71.2357
21
-116.967
0
LINE
8
Black
10
73.95
20
-119.824
11
73.6643
21
-119.967
0
LINE
8
Black
10
73.6643
20
-119.967
11
73.0929
21
-119.967
0
LINE
8
Black
10
73.0929
20
-119.967
11
72.8071
21
-119.824
0
LINE
8
Black
10
72.8071
20
-119.824
11
72.6643
21
-119.539
0
LINE
8
Black
10
72.6643
20
-119.539
11
72.6643
21
-118.396
0
LINE
8
Black
10
72.6643
20
-118.396
11
72.8071
21
-118.11
0
LINE
8
Black
10
72.8071
20
-118.11
11
73.0929
21
-117.967
0
LINE
8
Black
10
73.0929
20
-117.967
11
73.6643
21
-117.967
0
LINE
8
Black
10
73.6643
20
-117.967
11
73.95
21
-118.11
0
LINE
8
Black
10
73.95
20
-118.11
11
74.0929
21
-118.396
0
LINE
8
Black
10
74.0929
20
-118.396
11
74.0929
21
-118.681
0
LINE
8
Black
10
74.0929
20
-118.681
11
72.6643
21
-118.967
0
LINE
8
Black
10
75.2357
20
-119.824
11
75.5214
21
-119.967
0
LINE
8
Black
10
75.5214
20
-119.967
11
76.0929
21
-119.967
0
LINE
8
Black
10
76.0929
20
-119.967
11
76.3786
21
-119.824
0
LINE
8
Black
10
76.3786
20
-119.824
11
76.5214
21
-119.539
0
LINE
8
Black
10
76.5214
20
-119.539
11
76.5214
21
-119.396
0
LINE
8
Black
10
76.5214
20
-119.396
11
76.3786
21
-119.11
0
LINE
8
Black
10
76.3786
20
-119.11
11
76.0929
21
-118.967
0
LINE
8
Black
10
76.0929
20
-118.967
11
75.6643
21
-118.967
0
LINE
8
Black
10
75.6643
20
-118.967
11
75.3786
21
-118.824
0
LINE
8
Black
10
75.3786
20
-118.824
11
75.2357
21
-118.539
0
LINE
8
Black
10
75.2357
20
-118.539
11
75.2357
21
-118.396
0
LINE
8
Black
10
75.2357
20
-118.396
11
75.3786
21
-118.11
0
LINE
8
Black
10
75.3786
20
-118.11
11
75.6643
21
-117.967
0
LINE
8
Black
10
75.6643
20
-117.967
11
76.0929
21
-117.967
0
LINE
8
Black
10
76.0929
20
-117.967
11
76.3786
21
-118.11
0
LINE
8
Black
10
77.5214
20
-121.11
11
77.6643
21
-120.967
0
LINE
8
Black
10
77.6643
20
-120.967
11
77.95
21
-120.539
0
LINE
8
Black
10
77.95
20
-120.539
11
78.0929
21
-120.253
0
LINE
8
Black
10
78.0929
20
-120.253
11
78.2357
21
-119.824
0
LINE
8
Black
10
78.2357
20
-119.824
11
78.3786
21
-119.11
0
LINE
8
Black
10
78.3786
20
-119.11
11
78.3786
21
-118.539
0
LINE
8
Black
10
78.3786
20
-118.539
11
78.2357
21
-117.824
0
LINE
8
Black
10
78.2357
20
-117.824
11
78.0929
21
-117.396
0
LINE
8
Black
10
78.0929
20
-117.396
11
77.95
21
-117.11
0
LINE
8
Black
10
77.95
20
-117.11
11
77.6643
21
-116.681
0
LINE
8
Black
10
77.6643
20
-116.681
11
77.5214
21
-116.539
0
LINE
8
Black
10
9.44962
20
-122.07
11
9.44962
21
-123.07
0
LINE
8
Black
10
8.94924
20
-122.57
11
9.95
21
-122.57
0
LINE
8
Black
10
14.2357
20
-123.927
11
12.5214
21
-123.927
0
LINE
8
Black
10
13.3786
20
-123.927
11
13.3786
21
-120.927
0
LINE
8
Black
10
13.3786
20
-120.927
11
13.0929
21
-121.356
0
LINE
8
Black
10
13.0929
20
-121.356
11
12.8071
21
-121.641
0
LINE
8
Black
10
12.8071
20
-121.641
11
12.5214
21
-121.784
0
LINE
8
Black
10
15.5214
20
-123.641
11
15.6643
21
-123.784
0
LINE
8
Black
10
15.6643
20
-123.784
11
15.5214
21
-123.927
0
LINE
8
Black
10
15.5214
20
-123.927
11
15.3786
21
-123.784
0
LINE
8
Black
10
15.3786
20
-123.784
11
15.5214
21
-123.641
0
LINE
8
Black
10
15.5214
20
-123.641
11
15.5214
21
-123.927
0
LINE
8
Black
10
17.5214
20
-120.927
11
17.8071
21
-120.927
0
LINE
8
Black
10
17.8071
20
-120.927
11
18.0929
21
-121.07
0
LINE
8
Black
10
18.0929
20
-121.07
11
18.2357
21
-121.213
0
LINE
8
Black
10
18.2357
20
-121.213
11
18.3786
21
-121.499
0
LINE
8
Black
10
18.3786
20
-121.499
11
18.5214
21
-122.07
0
LINE
8
Black
10
18.5214
20
-122.07
11
18.5214
21
-122.784
0
LINE
8
Black
10
18.5214
20
-122.784
11
18.3786
21
-123.356
0
LINE
8
Black
10
18.3786
20
-123.356
11
18.2357
21
-123.641
0
LINE
8
Black
10
18.2357
20
-123.641
11
18.0929
21
-123.784
0
LINE
8
Black
10
18.0929
20
-123.784
11
17.8071
21
-123.927
0
LINE
8
Black
10
17.8071
20
-123.927
11
17.5214
21
-123.927
0
LINE
8
Black
10
17.5214
20
-123.927
11
17.2357
21
-123.784
0
LINE
8
Black
10
17.2357
20
-123.784
11
17.0929
21
-123.641
0
LINE
8
Black
10
17.0929
20
-123.641
11
16.95
21
-123.356
0
LINE
8
Black
10
16.95
20
-123.356
11
16.8071
21
-122.784
0
LINE
8
Black
10
16.8071
20
-122.784
11
16.8071
21
-122.07
0
LINE
8
Black
10
16.8071
20
-122.07
11
16.95
21
-121.499
0
LINE
8
Black
10
16.95
20
-121.499
11
17.0929
21
-121.213
0
LINE
8
Black
10
17.0929
20
-121.213
11
17.2357
21
-121.07
0
LINE
8
Black
10
17.2357
20
-121.07
11
17.5214
21
-120.927
0
LINE
8
Black
10
20.3786
20
-120.927
11
20.6643
21
-120.927
0
LINE
8
Black
10
20.6643
20
-120.927
11
20.95
21
-121.07
0
LINE
8
Black
10
20.95
20
-121.07
11
21.0929
21
-121.213
0
LINE
8
Black
10
21.0929
20
-121.213
11
21.2357
21
-121.499
0
LINE
8
Black
10
21.2357
20
-121.499
11
21.3786
21
-122.07
0
LINE
8
Black
10
21.3786
20
-122.07
11
21.3786
21
-122.784
0
LINE
8
Black
10
21.3786
20
-122.784
11
21.2357
21
-123.356
0
LINE
8
Black
10
21.2357
20
-123.356
11
21.0929
21
-123.641
0
LINE
8
Black
10
21.0929
20
-123.641
11
20.95
21
-123.784
0
LINE
8
Black
10
20.95
20
-123.784
11
20.6643
21
-123.927
0
LINE
8
Black
10
20.6643
20
-123.927
11
20.3786
21
-123.927
0
LINE
8
Black
10
20.3786
20
-123.927
11
20.0929
21
-123.784
0
LINE
8
Black
10
20.0929
20
-123.784
11
19.95
21
-123.641
0
LINE
8
Black
10
19.95
20
-123.641
11
19.8071
21
-123.356
0
LINE
8
Black
10
19.8071
20
-123.356
11
19.6643
21
-122.784
0
LINE
8
Black
10
19.6643
20
-122.784
11
19.6643
21
-122.07
0
LINE
8
Black
10
19.6643
20
-122.07
11
19.8071
21
-121.499
0
LINE
8
Black
10
19.8071
20
-121.499
11
19.95
21
-121.213
0
LINE
8
Black
10
19.95
20
-121.213
11
20.0929
21
-121.07
0
LINE
8
Black
10
20.0929
20
-121.07
11
20.3786
21
-120.927
0
LINE
8
Black
10
22.6643
20
-123.927
11
22.6643
21
-121.927
0
LINE
8
Black
10
22.6643
20
-122.213
11
22.8071
21
-122.07
0
LINE
8
Black
10
22.8071
20
-122.07
11
23.0929
21
-121.927
0
LINE
8
Black
10
23.0929
20
-121.927
11
23.5214
21
-121.927
0
LINE
8
Black
10
23.5214
20
-121.927
11
23.8071
21
-122.07
0
LINE
8
Black
10
23.8071
20
-122.07
11
23.95
21
-122.356
0
LINE
8
Black
10
23.95
20
-122.356
11
23.95
21
-123.927
0
LINE
8
Black
10
23.95
20
-122.356
11
24.0929
21
-122.07
0
LINE
8
Black
10
24.0929
20
-122.07
11
24.3786
21
-121.927
0
LINE
8
Black
10
24.3786
20
-121.927
11
24.8071
21
-121.927
0
LINE
8
Black
10
24.8071
20
-121.927
11
25.0929
21
-122.07
0
LINE
8
Black
10
25.0929
20
-122.07
11
25.2357
21
-122.356
0
LINE
8
Black
10
25.2357
20
-122.356
11
25.2357
21
-123.927
0
LINE
8
Black
10
26.6643
20
-123.927
11
26.6643
21
-121.927
0
LINE
8
Black
10
26.6643
20
-122.213
11
26.8071
21
-122.07
0
LINE
8
Black
10
26.8071
20
-122.07
11
27.0929
21
-121.927
0
LINE
8
Black
10
27.0929
20
-121.927
11
27.5214
21
-121.927
0
LINE
8
Black
10
27.5214
20
-121.927
11
27.8071
21
-122.07
0
LINE
8
Black
10
27.8071
20
-122.07
11
27.95
21
-122.356
0
LINE
8
Black
10
27.95
20
-122.356
11
27.95
21
-123.927
0
LINE
8
Black
10
27.95
20
-122.356
11
28.0929
21
-122.07
0
LINE
8
Black
10
28.0929
20
-122.07
11
28.3786
21
-121.927
0
LINE
8
Black
10
28.3786
20
-121.927
11
28.8071
21
-121.927
0
LINE
8
Black
10
28.8071
20
-121.927
11
29.0929
21
-122.07
0
LINE
8
Black
10
29.0929
20
-122.07
11
29.2357
21
-122.356
0
LINE
8
Black
10
29.2357
20
-122.356
11
29.2357
21
-123.927
0
LINE
8
Black
10
35.0929
20
-120.784
11
32.5214
21
-124.641
0
LINE
8
Black
10
38.95
20
-120.927
11
39.2357
21
-120.927
0
LINE
8
Black
10
39.2357
20
-120.927
11
39.5214
21
-121.07
0
LINE
8
Black
10
39.5214
20
-121.07
11
39.6643
21
-121.213
0
LINE
8
Black
10
39.6643
20
-121.213
11
39.8071
21
-121.499
0
LINE
8
Black
10
39.8071
20
-121.499
11
39.95
21
-122.07
0
LINE
8
Black
10
39.95
20
-122.07
11
39.95
21
-122.784
0
LINE
8
Black
10
39.95
20
-122.784
11
39.8071
21
-123.356
0
LINE
8
Black
10
39.8071
20
-123.356
11
39.6643
21
-123.641
0
LINE
8
Black
10
39.6643
20
-123.641
11
39.5214
21
-123.784
0
LINE
8
Black
10
39.5214
20
-123.784
11
39.2357
21
-123.927
0
LINE
8
Black
10
39.2357
20
-123.927
11
38.95
21
-123.927
0
LINE
8
Black
10
38.95
20
-123.927
11
38.6643
21
-123.784
0
LINE
8
Black
10
38.6643
20
-123.784
11
38.5214
21
-123.641
0
LINE
8
Black
10
38.5214
20
-123.641
11
38.3786
21
-123.356
0
LINE
8
Black
10
38.3786
20
-123.356
11
38.2357
21
-122.784
0
LINE
8
Black
10
38.2357
20
-122.784
11
38.2357
21
-122.07
0
LINE
8
Black
10
38.2357
20
-122.07
11
38.3786
21
-121.499
0
LINE
8
Black
10
38.3786
20
-121.499
11
38.5214
21
-121.213
0
LINE
8
Black
10
38.5214
20
-121.213
11
38.6643
21
-121.07
0
LINE
8
Black
10
38.6643
20
-121.07
11
38.95
21
-120.927
0
LINE
8
Black
10
41.2357
20
-123.641
11
41.3786
21
-123.784
0
LINE
8
Black
10
41.3786
20
-123.784
11
41.2357
21
-123.927
0
LINE
8
Black
10
41.2357
20
-123.927
11
41.0929
21
-123.784
0
LINE
8
Black
10
41.0929
20
-123.784
11
41.2357
21
-123.641
0
LINE
8
Black
10
41.2357
20
-123.641
11
41.2357
21
-123.927
0
LINE
8
Black
10
43.2357
20
-120.927
11
43.5214
21
-120.927
0
LINE
8
Black
10
43.5214
20
-120.927
11
43.8071
21
-121.07
0
LINE
8
Black
10
43.8071
20
-121.07
11
43.95
21
-121.213
0
LINE
8
Black
10
43.95
20
-121.213
11
44.0929
21
-121.499
0
LINE
8
Black
10
44.0929
20
-121.499
11
44.2357
21
-122.07
0
LINE
8
Black
10
44.2357
20
-122.07
11
44.2357
21
-122.784
0
LINE
8
Black
10
44.2357
20
-122.784
11
44.0929
21
-123.356
0
LINE
8
Black
10
44.0929
20
-123.356
11
43.95
21
-123.641
0
LINE
8
Black
10
43.95
20
-123.641
11
43.8071
21
-123.784
0
LINE
8
Black
10
43.8071
20
-123.784
11
43.5214
21
-123.927
0
LINE
8
Black
10
43.5214
20
-123.927
11
43.2357
21
-123.927
0
LINE
8
Black
10
43.2357
20
-123.927
11
42.95
21
-123.784
0
LINE
8
Black
10
42.95
20
-123.784
11
42.8071
21
-123.641
0
LINE
8
Black
10
42.8071
20
-123.641
11
42.6643
21
-123.356
0
LINE
8
Black
10
42.6643
20
-123.356
11
42.5214
21
-122.784
0
LINE
8
Black
10
42.5214
20
-122.784
11
42.5214
21
-122.07
0
LINE
8
Black
10
42.5214
20
-122.07
11
42.6643
21
-121.499
0
LINE
8
Black
10
42.6643
20
-121.499
11
42.8071
21
-121.213
0
LINE
8
Black
10
42.8071
20
-121.213
11
42.95
21
-121.07
0
LINE
8
Black
10
42.95
20
-121.07
11
43.2357
21
-120.927
0
LINE
8
Black
10
45.2357
20
-120.927
11
47.0929
21
-120.927
0
LINE
8
Black
10
47.0929
20
-120.927
11
46.0929
21
-122.07
0
LINE
8
Black
10
46.0929
20
-122.07
11
46.5214
21
-122.07
0
LINE
8
Black
10
46.5214
20
-122.07
11
46.8071
21
-122.213
0
LINE
8
Black
10
46.8071
20
-122.213
11
46.95
21
-122.356
0
LINE
8
Black
10
46.95
20
-122.356
11
47.0929
21
-122.641
0
LINE
8
Black
10
47.0929
20
-122.641
11
47.0929
21
-123.356
0
LINE
8
Black
10
47.0929
20
-123.356
11
46.95
21
-123.641
0
LINE
8
Black
10
46.95
20
-123.641
11
46.8071
21
-123.784
0
LINE
8
Black
10
46.8071
20
-123.784
11
46.5214
21
-123.927
0
LINE
8
Black
10
46.5214
20
-123.927
11
45.6643
21
-123.927
0
LINE
8
Black
10
45.6643
20
-123.927
11
45.3786
21
-123.784
0
LINE
8
Black
10
45.3786
20
-123.784
11
45.2357
21
-123.641
0
LINE
8
Black
10
48.5214
20
-123.927
11
49.0929
21
-123.927
0
LINE
8
Black
10
49.0929
20
-123.927
11
49.3786
21
-123.784
0
LINE
8
Black
10
49.3786
20
-123.784
11
49.5214
21
-123.641
0
LINE
8
Black
10
49.5214
20
-123.641
11
49.8071
21
-123.213
0
LINE
8
Black
10
49.8071
20
-123.213
11
49.95
21
-122.641
0
LINE
8
Black
10
49.95
20
-122.641
11
49.95
21
-121.499
0
LINE
8
Black
10
49.95
20
-121.499
11
49.8071
21
-121.213
0
LINE
8
Black
10
49.8071
20
-121.213
11
49.6643
21
-121.07
0
LINE
8
Black
10
49.6643
20
-121.07
11
49.3786
21
-120.927
0
LINE
8
Black
10
49.3786
20
-120.927
11
48.8071
21
-120.927
0
LINE
8
Black
10
48.8071
20
-120.927
11
48.5214
21
-121.07
0
LINE
8
Black
10
48.5214
20
-121.07
11
48.3786
21
-121.213
0
LINE
8
Black
10
48.3786
20
-121.213
11
48.2357
21
-121.499
0
LINE
8
Black
10
48.2357
20
-121.499
11
48.2357
21
-122.213
0
LINE
8
Black
10
48.2357
20
-122.213
11
48.3786
21
-122.499
0
LINE
8
Black
10
48.3786
20
-122.499
11
48.5214
21
-122.641
0
LINE
8
Black
10
48.5214
20
-122.641
11
48.8071
21
-122.784
0
LINE
8
Black
10
48.8071
20
-122.784
11
49.3786
21
-122.784
0
LINE
8
Black
10
49.3786
20
-122.784
11
49.6643
21
-122.641
0
LINE
8
Black
10
49.6643
20
-122.641
11
49.8071
21
-122.499
0
LINE
8
Black
10
49.8071
20
-122.499
11
49.95
21
-122.213
0
LINE
8
Black
10
51.0929
20
-120.927
11
51.0929
21
-121.499
0
LINE
8
Black
10
52.2357
20
-120.927
11
52.2357
21
-121.499
0
LINE
8
Black
10
56.6643
20
-125.07
11
56.5214
21
-124.927
0
LINE
8
Black
10
56.5214
20
-124.927
11
56.2357
21
-124.499
0
LINE
8
Black
10
56.2357
20
-124.499
11
56.0929
21
-124.213
0
LINE
8
Black
10
56.0929
20
-124.213
11
55.95
21
-123.784
0
LINE
8
Black
10
55.95
20
-123.784
11
55.8071
21
-123.07
0
LINE
8
Black
10
55.8071
20
-123.07
11
55.8071
21
-122.499
0
LINE
8
Black
10
55.8071
20
-122.499
11
55.95
21
-121.784
0
LINE
8
Black
10
55.95
20
-121.784
11
56.0929
21
-121.356
0
LINE
8
Black
10
56.0929
20
-121.356
11
56.2357
21
-121.07
0
LINE
8
Black
10
56.2357
20
-121.07
11
56.5214
21
-120.641
0
LINE
8
Black
10
56.5214
20
-120.641
11
56.6643
21
-120.499
0
LINE
8
Black
10
59.3786
20
-123.927
11
57.6643
21
-123.927
0
LINE
8
Black
10
58.5214
20
-123.927
11
58.5214
21
-120.927
0
LINE
8
Black
10
58.5214
20
-120.927
11
58.2357
21
-121.356
0
LINE
8
Black
10
58.2357
20
-121.356
11
57.95
21
-121.641
0
LINE
8
Black
10
57.95
20
-121.641
11
57.6643
21
-121.784
0
LINE
8
Black
10
61.95
20
-120.927
11
61.3786
21
-120.927
0
LINE
8
Black
10
61.3786
20
-120.927
11
61.0929
21
-121.07
0
LINE
8
Black
10
61.0929
20
-121.07
11
60.95
21
-121.213
0
LINE
8
Black
10
60.95
20
-121.213
11
60.6643
21
-121.641
0
LINE
8
Black
10
60.6643
20
-121.641
11
60.5214
21
-122.213
0
LINE
8
Black
10
60.5214
20
-122.213
11
60.5214
21
-123.356
0
LINE
8
Black
10
60.5214
20
-123.356
11
60.6643
21
-123.641
0
LINE
8
Black
10
60.6643
20
-123.641
11
60.8071
21
-123.784
0
LINE
8
Black
10
60.8071
20
-123.784
11
61.0929
21
-123.927
0
LINE
8
Black
10
61.0929
20
-123.927
11
61.6643
21
-123.927
0
LINE
8
Black
10
61.6643
20
-123.927
11
61.95
21
-123.784
0
LINE
8
Black
10
61.95
20
-123.784
11
62.0929
21
-123.641
0
LINE
8
Black
10
62.0929
20
-123.641
11
62.2357
21
-123.356
0
LINE
8
Black
10
62.2357
20
-123.356
11
62.2357
21
-122.641
0
LINE
8
Black
10
62.2357
20
-122.641
11
62.0929
21
-122.356
0
LINE
8
Black
10
62.0929
20
-122.356
11
61.95
21
-122.213
0
LINE
8
Black
10
61.95
20
-122.213
11
61.6643
21
-122.07
0
LINE
8
Black
10
61.6643
20
-122.07
11
61.0929
21
-122.07
0
LINE
8
Black
10
61.0929
20
-122.07
11
60.8071
21
-122.213
0
LINE
8
Black
10
60.8071
20
-122.213
11
60.6643
21
-122.356
0
LINE
8
Black
10
60.6643
20
-122.356
11
60.5214
21
-122.641
0
LINE
8
Black
10
65.8071
20
-123.927
11
65.8071
21
-120.927
0
LINE
8
Black
10
67.0929
20
-123.927
11
67.0929
21
-122.356
0
LINE
8
Black
10
67.0929
20
-122.356
11
66.95
21
-122.07
0
LINE
8
Black
10
66.95
20
-122.07
11
66.6643
21
-121.927
0
LINE
8
Black
10
66.6643
20
-121.927
11
66.2357
21
-121.927
0
LINE
8
Black
10
66.2357
20
-121.927
11
65.95
21
-122.07
0
LINE
8
Black
10
65.95
20
-122.07
11
65.8071
21
-122.213
0
LINE
8
Black
10
68.95
20
-123.927
11
68.6643
21
-123.784
0
LINE
8
Black
10
68.6643
20
-123.784
11
68.5214
21
-123.641
0
LINE
8
Black
10
68.5214
20
-123.641
11
68.3786
21
-123.356
0
LINE
8
Black
10
68.3786
20
-123.356
11
68.3786
21
-122.499
0
LINE
8
Black
10
68.3786
20
-122.499
11
68.5214
21
-122.213
0
LINE
8
Black
10
68.5214
20
-122.213
11
68.6643
21
-122.07
0
LINE
8
Black
10
68.6643
20
-122.07
11
68.95
21
-121.927
0
LINE
8
Black
10
68.95
20
-121.927
11
69.3786
21
-121.927
0
LINE
8
Black
10
69.3786
20
-121.927
11
69.6643
21
-122.07
0
LINE
8
Black
10
69.6643
20
-122.07
11
69.8071
21
-122.213
0
LINE
8
Black
10
69.8071
20
-122.213
11
69.95
21
-122.499
0
LINE
8
Black
10
69.95
20
-122.499
11
69.95
21
-123.356
0
LINE
8
Black
10
69.95
20
-123.356
11
69.8071
21
-123.641
0
LINE
8
Black
10
69.8071
20
-123.641
11
69.6643
21
-123.784
0
LINE
8
Black
10
69.6643
20
-123.784
11
69.3786
21
-123.927
0
LINE
8
Black
10
69.3786
20
-123.927
11
68.95
21
-123.927
0
LINE
8
Black
10
71.6643
20
-123.927
11
71.3786
21
-123.784
0
LINE
8
Black
10
71.3786
20
-123.784
11
71.2357
21
-123.499
0
LINE
8
Black
10
71.2357
20
-123.499
11
71.2357
21
-120.927
0
LINE
8
Black
10
73.95
20
-123.784
11
73.6643
21
-123.927
0
LINE
8
Black
10
73.6643
20
-123.927
11
73.0929
21
-123.927
0
LINE
8
Black
10
73.0929
20
-123.927
11
72.8071
21
-123.784
0
LINE
8
Black
10
72.8071
20
-123.784
11
72.6643
21
-123.499
0
LINE
8
Black
10
72.6643
20
-123.499
11
72.6643
21
-122.356
0
LINE
8
Black
10
72.6643
20
-122.356
11
72.8071
21
-122.07
0
LINE
8
Black
10
72.8071
20
-122.07
11
73.0929
21
-121.927
0
LINE
8
Black
10
73.0929
20
-121.927
11
73.6643
21
-121.927
0
LINE
8
Black
10
73.6643
20
-121.927
11
73.95
21
-122.07
0
LINE
8
Black
10
73.95
20
-122.07
11
74.0929
21
-122.356
0
LINE
8
Black
10
74.0929
20
-122.356
11
74.0929
21
-122.641
0
LINE
8
Black
10
74.0929
20
-122.641
11
72.6643
21
-122.927
0
LINE
8
Black
10
75.2357
20
-123.784
11
75.5214
21
-123.927
0
LINE
8
Black
10
75.5214
20
-123.927
11
76.0929
21
-123.927
0
LINE
8
Black
10
76.0929
20
-123.927
11
76.3786
21
-123.784
0
LINE
8
Black
10
76.3786
20
-123.784
11
76.5214
21
-123.499
0
LINE
8
Black
10
76.5214
20
-123.499
11
76.5214
21
-123.356
0
LINE
8
Black
10
76.5214
20
-123.356
11
76.3786
21
-123.07
0
LINE
8
Black
10
76.3786
20
-123.07
11
76.0929
21
-122.927
0
LINE
8
Black
10
76.0929
20
-122.927
11
75.6643
21
-122.927
0
LINE
8
Black
10
75.6643
20
-122.927
11
75.3786
21
-122.784
0
LINE
8
Black
10
75.3786
20
-122.784
11
75.2357
21
-122.499
0
LINE
8
Black
10
75.2357
20
-122.499
11
75.2357
21
-122.356
0
LINE
8
Black
10
75.2357
20
-122.356
11
75.3786
21
-122.07
0
LINE
8
Black
10
75.3786
20
-122.07
11
75.6643
21
-121.927
0
LINE
8
Black
10
75.6643
20
-121.927
11
76.0929
21
-121.927
0
LINE
8
Black
10
76.0929
20
-121.927
11
76.3786
21
-122.07
0
LINE
8
Black
10
77.5214
20
-125.07
11
77.6643
21
-124.927
0
LINE
8
Black
10
77.6643
20
-124.927
11
77.95
21
-124.499
0
LINE
8
Black
10
77.95
20
-124.499
11
78.0929
21
-124.213
0
LINE
8
Black
10
78.0929
20
-124.213
11
78.2357
21
-123.784
0
LINE
8
Black
10
78.2357
20
-123.784
11
78.3786
21
-123.07
0
LINE
8
Black
10
78.3786
20
-123.07
11
78.3786
21
-122.499
0
LINE
8
Black
10
78.3786
20
-122.499
11
78.2357
21
-121.784
0
LINE
8
Black
10
78.2357
20
-121.784
11
78.0929
21
-121.356
0
LINE
8
Black
10
78.0929
20
-121.356
11
77.95
21
-121.07
0
LINE
8
Black
10
77.95
20
-121.07
11
77.6643
21
-120.641
0
LINE
8
Black
10
77.6643
20
-120.641
11
77.5214
21
-120.499
0
LINE
8
Black
10
9.80121
20
-126.889
11
9.80121
21
-126.171
0
LINE
8
Black
10
9.80121
20
-126.171
11
9.08278
21
-126.171
0
LINE
8
Black
10
9.08278
20
-126.171
11
9.08278
21
-126.889
0
LINE
8
Black
10
9.08278
20
-126.889
11
9.80121
21
-126.889
0
LINE
8
Black
10
14.2357
20
-127.887
11
12.5214
21
-127.887
0
LINE
8
Black
10
13.3786
20
-127.887
11
13.3786
21
-124.887
0
LINE
8
Black
10
13.3786
20
-124.887
11
13.0929
21
-125.316
0
LINE
8
Black
10
13.0929
20
-125.316
11
12.8071
21
-125.601
0
LINE
8
Black
10
12.8071
20
-125.601
11
12.5214
21
-125.744
0
LINE
8
Black
10
15.5214
20
-127.601
11
15.6643
21
-127.744
0
LINE
8
Black
10
15.6643
20
-127.744
11
15.5214
21
-127.887
0
LINE
8
Black
10
15.5214
20
-127.887
11
15.3786
21
-127.744
0
LINE
8
Black
10
15.3786
20
-127.744
11
15.5214
21
-127.601
0
LINE
8
Black
10
15.5214
20
-127.601
11
15.5214
21
-127.887
0
LINE
8
Black
10
17.5214
20
-124.887
11
17.8071
21
-124.887
0
LINE
8
Black
10
17.8071
20
-124.887
11
18.0929
21
-125.03
0
LINE
8
Black
10
18.0929
20
-125.03
11
18.2357
21
-125.173
0
LINE
8
Black
10
18.2357
20
-125.173
11
18.3786
21
-125.459
0
LINE
8
Black
10
18.3786
20
-125.459
11
18.5214
21
-126.03
0
LINE
8
Black
10
18.5214
20
-126.03
11
18.5214
21
-126.744
0
LINE
8
Black
10
18.5214
20
-126.744
11
18.3786
21
-127.316
0
LINE
8
Black
10
18.3786
20
-127.316
11
18.2357
21
-127.601
0
LINE
8
Black
10
18.2357
20
-127.601
11
18.0929
21
-127.744
0
LINE
8
Black
10
18.0929
20
-127.744
11
17.8071
21
-127.887
0
LINE
8
Black
10
17.8071
20
-127.887
11
17.5214
21
-127.887
0
LINE
8
Black
10
17.5214
20
-127.887
11
17.2357
21
-127.744
0
LINE
8
Black
10
17.2357
20
-127.744
11
17.0929
21
-127.601
0
LINE
8
Black
10
17.0929
20
-127.601
11
16.95
21
-127.316
0
LINE
8
Black
10
16.95
20
-127.316
11
16.8071
21
-126.744
0
LINE
8
Black
10
16.8071
20
-126.744
11
16.8071
21
-126.03
0
LINE
8
Black
10
16.8071
20
-126.03
11
16.95
21
-125.459
0
LINE
8
Black
10
16.95
20
-125.459
11
17.0929
21
-125.173
0
LINE
8
Black
10
17.0929
20
-125.173
11
17.2357
21
-125.03
0
LINE
8
Black
10
17.2357
20
-125.03
11
17.5214
21
-124.887
0
LINE
8
Black
10
19.6643
20
-125.173
11
19.8071
21
-125.03
0
LINE
8
Black
10
19.8071
20
-125.03
11
20.0929
21
-124.887
0
LINE
8
Black
10
20.0929
20
-124.887
11
20.8071
21
-124.887
0
LINE
8
Black
10
20.8071
20
-124.887
11
21.0929
21
-125.03
0
LINE
8
Black
10
21.0929
20
-125.03
11
21.2357
21
-125.173
0
LINE
8
Black
10
21.2357
20
-125.173
11
21.3786
21
-125.459
0
LINE
8
Black
10
21.3786
20
-125.459
11
21.3786
21
-125.744
0
LINE
8
Black
10
21.3786
20
-125.744
11
21.2357
21
-126.173
0
LINE
8
Black
10
21.2357
20
-126.173
11
19.5214
21
-127.887
0
LINE
8
Black
10
19.5214
20
-127.887
11
21.3786
21
-127.887
0
LINE
8
Black
10
22.6643
20
-127.887
11
22.6643
21
-125.887
0
LINE
8
Black
10
22.6643
20
-126.173
11
22.8071
21
-126.03
0
LINE
8
Black
10
22.8071
20
-126.03
11
23.0929
21
-125.887
0
LINE
8
Black
10
23.0929
20
-125.887
11
23.5214
21
-125.887
0
LINE
8
Black
10
23.5214
20
-125.887
11
23.8071
21
-126.03
0
LINE
8
Black
10
23.8071
20
-126.03
11
23.95
21
-126.316
0
LINE
8
Black
10
23.95
20
-126.316
11
23.95
21
-127.887
0
LINE
8
Black
10
23.95
20
-126.316
11
24.0929
21
-126.03
0
LINE
8
Black
10
24.0929
20
-126.03
11
24.3786
21
-125.887
0
LINE
8
Black
10
24.3786
20
-125.887
11
24.8071
21
-125.887
0
LINE
8
Black
10
24.8071
20
-125.887
11
25.0929
21
-126.03
0
LINE
8
Black
10
25.0929
20
-126.03
11
25.2357
21
-126.316
0
LINE
8
Black
10
25.2357
20
-126.316
11
25.2357
21
-127.887
0
LINE
8
Black
10
26.6643
20
-127.887
11
26.6643
21
-125.887
0
LINE
8
Black
10
26.6643
20
-126.173
11
26.8071
21
-126.03
0
LINE
8
Black
10
26.8071
20
-126.03
11
27.0929
21
-125.887
0
LINE
8
Black
10
27.0929
20
-125.887
11
27.5214
21
-125.887
0
LINE
8
Black
10
27.5214
20
-125.887
11
27.8071
21
-126.03
0
LINE
8
Black
10
27.8071
20
-126.03
11
27.95
21
-126.316
0
LINE
8
Black
10
27.95
20
-126.316
11
27.95
21
-127.887
0
LINE
8
Black
10
27.95
20
-126.316
11
28.0929
21
-126.03
0
LINE
8
Black
10
28.0929
20
-126.03
11
28.3786
21
-125.887
0
LINE
8
Black
10
28.3786
20
-125.887
11
28.8071
21
-125.887
0
LINE
8
Black
10
28.8071
20
-125.887
11
29.0929
21
-126.03
0
LINE
8
Black
10
29.0929
20
-126.03
11
29.2357
21
-126.316
0
LINE
8
Black
10
29.2357
20
-126.316
11
29.2357
21
-127.887
0
LINE
8
Black
10
35.0929
20
-124.744
11
32.5214
21
-128.601
0
LINE
8
Black
10
38.95
20
-124.887
11
39.2357
21
-124.887
0
LINE
8
Black
10
39.2357
20
-124.887
11
39.5214
21
-125.03
0
LINE
8
Black
10
39.5214
20
-125.03
11
39.6643
21
-125.173
0
LINE
8
Black
10
39.6643
20
-125.173
11
39.8071
21
-125.459
0
LINE
8
Black
10
39.8071
20
-125.459
11
39.95
21
-126.03
0
LINE
8
Black
10
39.95
20
-126.03
11
39.95
21
-126.744
0
LINE
8
Black
10
39.95
20
-126.744
11
39.8071
21
-127.316
0
LINE
8
Black
10
39.8071
20
-127.316
11
39.6643
21
-127.601
0
LINE
8
Black
10
39.6643
20
-127.601
11
39.5214
21
-127.744
0
LINE
8
Black
10
39.5214
20
-127.744
11
39.2357
21
-127.887
0
LINE
8
Black
10
39.2357
20
-127.887
11
38.95
21
-127.887
0
LINE
8
Black
10
38.95
20
-127.887
11
38.6643
21
-127.744
0
LINE
8
Black
10
38.6643
20
-127.744
11
38.5214
21
-127.601
0
LINE
8
Black
10
38.5214
20
-127.601
11
38.3786
21
-127.316
0
LINE
8
Black
10
38.3786
20
-127.316
11
38.2357
21
-126.744
0
LINE
8
Black
10
38.2357
20
-126.744
11
38.2357
21
-126.03
0
LINE
8
Black
10
38.2357
20
-126.03
11
38.3786
21
-125.459
0
LINE
8
Black
10
38.3786
20
-125.459
11
38.5214
21
-125.173
0
LINE
8
Black
10
38.5214
20
-125.173
11
38.6643
21
-125.03
0
LINE
8
Black
10
38.6643
20
-125.03
11
38.95
21
-124.887
0
LINE
8
Black
10
41.2357
20
-127.601
11
41.3786
21
-127.744
0
LINE
8
Black
10
41.3786
20
-127.744
11
41.2357
21
-127.887
0
LINE
8
Black
10
41.2357
20
-127.887
11
41.0929
21
-127.744
0
LINE
8
Black
10
41.0929
20
-127.744
11
41.2357
21
-127.601
0
LINE
8
Black
10
41.2357
20
-127.601
11
41.2357
21
-127.887
0
LINE
8
Black
10
43.2357
20
-124.887
11
43.5214
21
-124.887
0
LINE
8
Black
10
43.5214
20
-124.887
11
43.8071
21
-125.03
0
LINE
8
Black
10
43.8071
20
-125.03
11
43.95
21
-125.173
0
LINE
8
Black
10
43.95
20
-125.173
11
44.0929
21
-125.459
0
LINE
8
Black
10
44.0929
20
-125.459
11
44.2357
21
-126.03
0
LINE
8
Black
10
44.2357
20
-126.03
11
44.2357
21
-126.744
0
LINE
8
Black
10
44.2357
20
-126.744
11
44.0929
21
-127.316
0
LINE
8
Black
10
44.0929
20
-127.316
11
43.95
21
-127.601
0
LINE
8
Black
10
43.95
20
-127.601
11
43.8071
21
-127.744
0
LINE
8
Black
10
43.8071
20
-127.744
11
43.5214
21
-127.887
0
LINE
8
Black
10
43.5214
20
-127.887
11
43.2357
21
-127.887
0
LINE
8
Black
10
43.2357
20
-127.887
11
42.95
21
-127.744
0
LINE
8
Black
10
42.95
20
-127.744
11
42.8071
21
-127.601
0
LINE
8
Black
10
42.8071
20
-127.601
11
42.6643
21
-127.316
0
LINE
8
Black
10
42.6643
20
-127.316
11
42.5214
21
-126.744
0
LINE
8
Black
10
42.5214
20
-126.744
11
42.5214
21
-126.03
0
LINE
8
Black
10
42.5214
20
-126.03
11
42.6643
21
-125.459
0
LINE
8
Black
10
42.6643
20
-125.459
11
42.8071
21
-125.173
0
LINE
8
Black
10
42.8071
20
-125.173
11
42.95
21
-125.03
0
LINE
8
Black
10
42.95
20
-125.03
11
43.2357
21
-124.887
0
LINE
8
Black
10
46.8071
20
-125.887
11
46.8071
21
-127.887
0
LINE
8
Black
10
46.0929
20
-124.744
11
45.3786
21
-126.887
0
LINE
8
Black
10
45.3786
20
-126.887
11
47.2357
21
-126.887
0
LINE
8
Black
10
48.95
20
-124.887
11
49.2357
21
-124.887
0
LINE
8
Black
10
49.2357
20
-124.887
11
49.5214
21
-125.03
0
LINE
8
Black
10
49.5214
20
-125.03
11
49.6643
21
-125.173
0
LINE
8
Black
10
49.6643
20
-125.173
11
49.8071
21
-125.459
0
LINE
8
Black
10
49.8071
20
-125.459
11
49.95
21
-126.03
0
LINE
8
Black
10
49.95
20
-126.03
11
49.95
21
-126.744
0
LINE
8
Black
10
49.95
20
-126.744
11
49.8071
21
-127.316
0
LINE
8
Black
10
49.8071
20
-127.316
11
49.6643
21
-127.601
0
LINE
8
Black
10
49.6643
20
-127.601
11
49.5214
21
-127.744
0
LINE
8
Black
10
49.5214
20
-127.744
11
49.2357
21
-127.887
0
LINE
8
Black
10
49.2357
20
-127.887
11
48.95
21
-127.887
0
LINE
8
Black
10
48.95
20
-127.887
11
48.6643
21
-127.744
0
LINE
8
Black
10
48.6643
20
-127.744
11
48.5214
21
-127.601
0
LINE
8
Black
10
48.5214
20
-127.601
11
48.3786
21
-127.316
0
LINE
8
Black
10
48.3786
20
-127.316
11
48.2357
21
-126.744
0
LINE
8
Black
10
48.2357
20
-126.744
11
48.2357
21
-126.03
0
LINE
8
Black
10
48.2357
20
-126.03
11
48.3786
21
-125.459
0
LINE
8
Black
10
48.3786
20
-125.459
11
48.5214
21
-125.173
0
LINE
8
Black
10
48.5214
20
-125.173
11
48.6643
21
-125.03
0
LINE
8
Black
10
48.6643
20
-125.03
11
48.95
21
-124.887
0
LINE
8
Black
10
51.0929
20
-124.887
11
51.0929
21
-125.459
0
LINE
8
Black
10
52.2357
20
-124.887
11
52.2357
21
-125.459
0
LINE
8
Black
10
56.6643
20
-129.03
11
56.5214
21
-128.887
0
LINE
8
Black
10
56.5214
20
-128.887
11
56.2357
21
-128.459
0
LINE
8
Black
10
56.2357
20
-128.459
11
56.0929
21
-128.173
0
LINE
8
Black
10
56.0929
20
-128.173
11
55.95
21
-127.744
0
LINE
8
Black
10
55.95
20
-127.744
11
55.8071
21
-127.03
0
LINE
8
Black
10
55.8071
20
-127.03
11
55.8071
21
-126.459
0
LINE
8
Black
10
55.8071
20
-126.459
11
55.95
21
-125.744
0
LINE
8
Black
10
55.95
20
-125.744
11
56.0929
21
-125.316
0
LINE
8
Black
10
56.0929
20
-125.316
11
56.2357
21
-125.03
0
LINE
8
Black
10
56.2357
20
-125.03
11
56.5214
21
-124.601
0
LINE
8
Black
10
56.5214
20
-124.601
11
56.6643
21
-124.459
0
LINE
8
Black
10
59.0929
20
-124.887
11
58.5214
21
-124.887
0
LINE
8
Black
10
58.5214
20
-124.887
11
58.2357
21
-125.03
0
LINE
8
Black
10
58.2357
20
-125.03
11
58.0929
21
-125.173
0
LINE
8
Black
10
58.0929
20
-125.173
11
57.8071
21
-125.601
0
LINE
8
Black
10
57.8071
20
-125.601
11
57.6643
21
-126.173
0
LINE
8
Black
10
57.6643
20
-126.173
11
57.6643
21
-127.316
0
LINE
8
Black
10
57.6643
20
-127.316
11
57.8071
21
-127.601
0
LINE
8
Black
10
57.8071
20
-127.601
11
57.95
21
-127.744
0
LINE
8
Black
10
57.95
20
-127.744
11
58.2357
21
-127.887
0
LINE
8
Black
10
58.2357
20
-127.887
11
58.8071
21
-127.887
0
LINE
8
Black
10
58.8071
20
-127.887
11
59.0929
21
-127.744
0
LINE
8
Black
10
59.0929
20
-127.744
11
59.2357
21
-127.601
0
LINE
8
Black
10
59.2357
20
-127.601
11
59.3786
21
-127.316
0
LINE
8
Black
10
59.3786
20
-127.316
11
59.3786
21
-126.601
0
LINE
8
Black
10
59.3786
20
-126.601
11
59.2357
21
-126.316
0
LINE
8
Black
10
59.2357
20
-126.316
11
59.0929
21
-126.173
0
LINE
8
Black
10
59.0929
20
-126.173
11
58.8071
21
-126.03
0
LINE
8
Black
10
58.8071
20
-126.03
11
58.2357
21
-126.03
0
LINE
8
Black
10
58.2357
20
-126.03
11
57.95
21
-126.173
0
LINE
8
Black
10
57.95
20
-126.173
11
57.8071
21
-126.316
0
LINE
8
Black
10
57.8071
20
-126.316
11
57.6643
21
-126.601
0
LINE
8
Black
10
61.95
20
-125.887
11
61.95
21
-127.887
0
LINE
8
Black
10
61.2357
20
-124.744
11
60.5214
21
-126.887
0
LINE
8
Black
10
60.5214
20
-126.887
11
62.3786
21
-126.887
0
LINE
8
Black
10
65.8071
20
-127.887
11
65.8071
21
-124.887
0
LINE
8
Black
10
67.0929
20
-127.887
11
67.0929
21
-126.316
0
LINE
8
Black
10
67.0929
20
-126.316
11
66.95
21
-126.03
0
LINE
8
Black
10
66.95
20
-126.03
11
66.6643
21
-125.887
0
LINE
8
Black
10
66.6643
20
-125.887
11
66.2357
21
-125.887
0
LINE
8
Black
10
66.2357
20
-125.887
11
65.95
21
-126.03
0
LINE
8
Black
10
65.95
20
-126.03
11
65.8071
21
-126.173
0
LINE
8
Black
10
68.95
20
-127.887
11
68.6643
21
-127.744
0
LINE
8
Black
10
68.6643
20
-127.744
11
68.5214
21
-127.601
0
LINE
8
Black
10
68.5214
20
-127.601
11
68.3786
21
-127.316
0
LINE
8
Black
10
68.3786
20
-127.316
11
68.3786
21
-126.459
0
LINE
8
Black
10
68.3786
20
-126.459
11
68.5214
21
-126.173
0
LINE
8
Black
10
68.5214
20
-126.173
11
68.6643
21
-126.03
0
LINE
8
Black
10
68.6643
20
-126.03
11
68.95
21
-125.887
0
LINE
8
Black
10
68.95
20
-125.887
11
69.3786
21
-125.887
0
LINE
8
Black
10
69.3786
20
-125.887
11
69.6643
21
-126.03
0
LINE
8
Black
10
69.6643
20
-126.03
11
69.8071
21
-126.173
0
LINE
8
Black
10
69.8071
20
-126.173
11
69.95
21
-126.459
0
LINE
8
Black
10
69.95
20
-126.459
11
69.95
21
-127.316
0
LINE
8
Black
10
69.95
20
-127.316
11
69.8071
21
-127.601
0
LINE
8
Black
10
69.8071
20
-127.601
11
69.6643
21
-127.744
0
LINE
8
Black
10
69.6643
20
-127.744
11
69.3786
21
-127.887
0
LINE
8
Black
10
69.3786
20
-127.887
11
68.95
21
-127.887
0
LINE
8
Black
10
71.6643
20
-127.887
11
71.3786
21
-127.744
0
LINE
8
Black
10
71.3786
20
-127.744
11
71.2357
21
-127.459
0
LINE
8
Black
10
71.2357
20
-127.459
11
71.2357
21
-124.887
0
LINE
8
Black
10
73.95
20
-127.744
11
73.6643
21
-127.887
0
LINE
8
Black
10
73.6643
20
-127.887
11
73.0929
21
-127.887
0
LINE
8
Black
10
73.0929
20
-127.887
11
72.8071
21
-127.744
0
LINE
8
Black
10
72.8071
20
-127.744
11
72.6643
21
-127.459
0
LINE
8
Black
10
72.6643
20
-127.459
11
72.6643
21
-126.316
0
LINE
8
Black
10
72.6643
20
-126.316
11
72.8071
21
-126.03
0
LINE
8
Black
10
72.8071
20
-126.03
11
73.0929
21
-125.887
0
LINE
8
Black
10
73.0929
20
-125.887
11
73.6643
21
-125.887
0
LINE
8
Black
10
73.6643
20
-125.887
11
73.95
21
-126.03
0
LINE
8
Black
10
73.95
20
-126.03
11
74.0929
21
-126.316
0
LINE
8
Black
10
74.0929
20
-126.316
11
74.0929
21
-126.601
0
LINE
8
Black
10
74.0929
20
-126.601
11
72.6643
21
-126.887
0
LINE
8
Black
10
75.2357
20
-127.744
11
75.5214
21
-127.887
0
LINE
8
Black
10
75.5214
20
-127.887
11
76.0929
21
-127.887
0
LINE
8
Black
10
76.0929
20
-127.887
11
76.3786
21
-127.744
0
LINE
8
Black
10
76.3786
20
-127.744
11
76.5214
21
-127.459
0
LINE
8
Black
10
76.5214
20
-127.459
11
76.5214
21
-127.316
0
LINE
8
Black
10
76.5214
20
-127.316
11
76.3786
21
-127.03
0
LINE
8
Black
10
76.3786
20
-127.03
11
76.0929
21
-126.887
0
LINE
8
Black
10
76.0929
20
-126.887
11
75.6643
21
-126.887
0
LINE
8
Black
10
75.6643
20
-126.887
11
75.3786
21
-126.744
0
LINE
8
Black
10
75.3786
20
-126.744
11
75.2357
21
-126.459
0
LINE
8
Black
10
75.2357
20
-126.459
11
75.2357
21
-126.316
0
LINE
8
Black
10
75.2357
20
-126.316
11
75.3786
21
-126.03
0
LINE
8
Black
10
75.3786
20
-126.03
11
75.6643
21
-125.887
0
LINE
8
Black
10
75.6643
20
-125.887
11
76.0929
21
-125.887
0
LINE
8
Black
10
76.0929
20
-125.887
11
76.3786
21
-126.03
0
LINE
8
Black
10
77.5214
20
-129.03
11
77.6643
21
-128.887
0
LINE
8
Black
10
77.6643
20
-128.887
11
77.95
21
-128.459
0
LINE
8
Black
10
77.95
20
-128.459
11
78.0929
21
-128.173
0
LINE
8
Black
10
78.0929
20
-128.173
11
78.2357
21
-127.744
0
LINE
8
Black
10
78.2357
20
-127.744
11
78.3786
21
-127.03
0
LINE
8
Black
10
78.3786
20
-127.03
11
78.3786
21
-126.459
0
LINE
8
Black
10
78.3786
20
-126.459
11
78.2357
21
-125.744
0
LINE
8
Black
10
78.2357
20
-125.744
11
78.0929
21
-125.316
0
LINE
8
Black
10
78.0929
20
-125.316
11
77.95
21
-125.03
0
LINE
8
Black
10
77.95
20
-125.03
11
77.6643
21
-124.601
0
LINE
8
Black
10
77.6643
20
-124.601
11
77.5214
21
-124.459
0
LINE
8
Black
10
8.426
20
-132.014
11
9.95
21
-130.49
0
LINE
8
Black
10
9.95
20
-130.49
11
8.426
21
-128.966
0
LINE
8
Black
10
8.426
20
-128.966
11
6.902
21
-130.49
0
LINE
8
Black
10
6.902
20
-130.49
11
8.426
21
-132.014
0
LINE
8
Black
10
12.3786
20
-128.847
11
14.2357
21
-128.847
0
LINE
8
Black
10
14.2357
20
-128.847
11
13.2357
21
-129.99
0
LINE
8
Black
10
13.2357
20
-129.99
11
13.6643
21
-129.99
0
LINE
8
Black
10
13.6643
20
-129.99
11
13.95
21
-130.133
0
LINE
8
Black
10
13.95
20
-130.133
11
14.0929
21
-130.276
0
LINE
8
Black
10
14.0929
20
-130.276
11
14.2357
21
-130.561
0
LINE
8
Black
10
14.2357
20
-130.561
11
14.2357
21
-131.276
0
LINE
8
Black
10
14.2357
20
-131.276
11
14.0929
21
-131.561
0
LINE
8
Black
10
14.0929
20
-131.561
11
13.95
21
-131.704
0
LINE
8
Black
10
13.95
20
-131.704
11
13.6643
21
-131.847
0
LINE
8
Black
10
13.6643
20
-131.847
11
12.8071
21
-131.847
0
LINE
8
Black
10
12.8071
20
-131.847
11
12.5214
21
-131.704
0
LINE
8
Black
10
12.5214
20
-131.704
11
12.3786
21
-131.561
0
LINE
8
Black
10
15.5214
20
-131.561
11
15.6643
21
-131.704
0
LINE
8
Black
10
15.6643
20
-131.704
11
15.5214
21
-131.847
0
LINE
8
Black
10
15.5214
20
-131.847
11
15.3786
21
-131.704
0
LINE
8
Black
10
15.3786
20
-131.704
11
15.5214
21
-131.561
0
LINE
8
Black
10
15.5214
20
-131.561
11
15.5214
21
-131.847
0
LINE
8
Black
10
17.5214
20
-128.847
11
17.8071
21
-128.847
0
LINE
8
Black
10
17.8071
20
-128.847
11
18.0929
21
-128.99
0
LINE
8
Black
10
18.0929
20
-128.99
11
18.2357
21
-129.133
0
LINE
8
Black
10
18.2357
20
-129.133
11
18.3786
21
-129.419
0
LINE
8
Black
10
18.3786
20
-129.419
11
18.5214
21
-129.99
0
LINE
8
Black
10
18.5214
20
-129.99
11
18.5214
21
-130.704
0
LINE
8
Black
10
18.5214
20
-130.704
11
18.3786
21
-131.276
0
LINE
8
Black
10
18.3786
20
-131.276
11
18.2357
21
-131.561
0
LINE
8
Black
10
18.2357
20
-131.561
11
18.0929
21
-131.704
0
LINE
8
Black
10
18.0929
20
-131.704
11
17.8071
21
-131.847
0
LINE
8
Black
10
17.8071
20
-131.847
11
17.5214
21
-131.847
0
LINE
8
Black
10
17.5214
20
-131.847
11
17.2357
21
-131.704
0
LINE
8
Black
10
17.2357
20
-131.704
11
17.0929
21
-131.561
0
LINE
8
Black
10
17.0929
20
-131.561
11
16.95
21
-131.276
0
LINE
8
Black
10
16.95
20
-131.276
11
16.8071
21
-130.704
0
LINE
8
Black
10
16.8071
20
-130.704
11
16.8071
21
-129.99
0
LINE
8
Black
10
16.8071
20
-129.99
11
16.95
21
-129.419
0
LINE
8
Black
10
16.95
20
-129.419
11
17.0929
21
-129.133
0
LINE
8
Black
10
17.0929
20
-129.133
11
17.2357
21
-128.99
0
LINE
8
Black
10
17.2357
20
-128.99
11
17.5214
21
-128.847
0
LINE
8
Black
10
21.2357
20
-128.847
11
19.8071
21
-128.847
0
LINE
8
Black
10
19.8071
20
-128.847
11
19.6643
21
-130.276
0
LINE
8
Black
10
19.6643
20
-130.276
11
19.8071
21
-130.133
0
LINE
8
Black
10
19.8071
20
-130.133
11
20.0929
21
-129.99
0
LINE
8
Black
10
20.0929
20
-129.99
11
20.8071
21
-129.99
0
LINE
8
Black
10
20.8071
20
-129.99
11
21.0929
21
-130.133
0
LINE
8
Black
10
21.0929
20
-130.133
11
21.2357
21
-130.276
0
LINE
8
Black
10
21.2357
20
-130.276
11
21.3786
21
-130.561
0
LINE
8
Black
10
21.3786
20
-130.561
11
21.3786
21
-131.276
0
LINE
8
Black
10
21.3786
20
-131.276
11
21.2357
21
-131.561
0
LINE
8
Black
10
21.2357
20
-131.561
11
21.0929
21
-131.704
0
LINE
8
Black
10
21.0929
20
-131.704
11
20.8071
21
-131.847
0
LINE
8
Black
10
20.8071
20
-131.847
11
20.0929
21
-131.847
0
LINE
8
Black
10
20.0929
20
-131.847
11
19.8071
21
-131.704
0
LINE
8
Black
10
19.8071
20
-131.704
11
19.6643
21
-131.561
0
LINE
8
Black
10
22.6643
20
-131.847
11
22.6643
21
-129.847
0
LINE
8
Black
10
22.6643
20
-130.133
11
22.8071
21
-129.99
0
LINE
8
Black
10
22.8071
20
-129.99
11
23.0929
21
-129.847
0
LINE
8
Black
10
23.0929
20
-129.847
11
23.5214
21
-129.847
0
LINE
8
Black
10
23.5214
20
-129.847
11
23.8071
21
-129.99
0
LINE
8
Black
10
23.8071
20
-129.99
11
23.95
21
-130.276
0
LINE
8
Black
10
23.95
20
-130.276
11
23.95
21
-131.847
0
LINE
8
Black
10
23.95
20
-130.276
11
24.0929
21
-129.99
0
LINE
8
Black
10
24.0929
20
-129.99
11
24.3786
21
-129.847
0
LINE
8
Black
10
24.3786
20
-129.847
11
24.8071
21
-129.847
0
LINE
8
Black
10
24.8071
20
-129.847
11
25.0929
21
-129.99
0
LINE
8
Black
10
25.0929
20
-129.99
11
25.2357
21
-130.276
0
LINE
8
Black
10
25.2357
20
-130.276
11
25.2357
21
-131.847
0
LINE
8
Black
10
26.6643
20
-131.847
11
26.6643
21
-129.847
0
LINE
8
Black
10
26.6643
20
-130.133
11
26.8071
21
-129.99
0
LINE
8
Black
10
26.8071
20
-129.99
11
27.0929
21
-129.847
0
LINE
8
Black
10
27.0929
20
-129.847
11
27.5214
21
-129.847
0
LINE
8
Black
10
27.5214
20
-129.847
11
27.8071
21
-129.99
0
LINE
8
Black
10
27.8071
20
-129.99
11
27.95
21
-130.276
0
LINE
8
Black
10
27.95
20
-130.276
11
27.95
21
-131.847
0
LINE
8
Black
10
27.95
20
-130.276
11
28.0929
21
-129.99
0
LINE
8
Black
10
28.0929
20
-129.99
11
28.3786
21
-129.847
0
LINE
8
Black
10
28.3786
20
-129.847
11
28.8071
21
-129.847
0
LINE
8
Black
10
28.8071
20
-129.847
11
29.0929
21
-129.99
0
LINE
8
Black
10
29.0929
20
-129.99
11
29.2357
21
-130.276
0
LINE
8
Black
10
29.2357
20
-130.276
11
29.2357
21
-131.847
0
LINE
8
Black
10
35.0929
20
-128.704
11
32.5214
21
-132.561
0
LINE
8
Black
10
38.95
20
-128.847
11
39.2357
21
-128.847
0
LINE
8
Black
10
39.2357
20
-128.847
11
39.5214
21
-128.99
0
LINE
8
Black
10
39.5214
20
-128.99
11
39.6643
21
-129.133
0
LINE
8
Black
10
39.6643
20
-129.133
11
39.8071
21
-129.419
0
LINE
8
Black
10
39.8071
20
-129.419
11
39.95
21
-129.99
0
LINE
8
Black
10
39.95
20
-129.99
11
39.95
21
-130.704
0
LINE
8
Black
10
39.95
20
-130.704
11
39.8071
21
-131.276
0
LINE
8
Black
10
39.8071
20
-131.276
11
39.6643
21
-131.561
0
LINE
8
Black
10
39.6643
20
-131.561
11
39.5214
21
-131.704
0
LINE
8
Black
10
39.5214
20
-131.704
11
39.2357
21
-131.847
0
LINE
8
Black
10
39.2357
20
-131.847
11
38.95
21
-131.847
0
LINE
8
Black
10
38.95
20
-131.847
11
38.6643
21
-131.704
0
LINE
8
Black
10
38.6643
20
-131.704
11
38.5214
21
-131.561
0
LINE
8
Black
10
38.5214
20
-131.561
11
38.3786
21
-131.276
0
LINE
8
Black
10
38.3786
20
-131.276
11
38.2357
21
-130.704
0
LINE
8
Black
10
38.2357
20
-130.704
11
38.2357
21
-129.99
0
LINE
8
Black
10
38.2357
20
-129.99
11
38.3786
21
-129.419
0
LINE
8
Black
10
38.3786
20
-129.419
11
38.5214
21
-129.133
0
LINE
8
Black
10
38.5214
20
-129.133
11
38.6643
21
-128.99
0
LINE
8
Black
10
38.6643
20
-128.99
11
38.95
21
-128.847
0
LINE
8
Black
10
41.2357
20
-131.561
11
41.3786
21
-131.704
0
LINE
8
Black
10
41.3786
20
-131.704
11
41.2357
21
-131.847
0
LINE
8
Black
10
41.2357
20
-131.847
11
41.0929
21
-131.704
0
LINE
8
Black
10
41.0929
20
-131.704
11
41.2357
21
-131.561
0
LINE
8
Black
10
41.2357
20
-131.561
11
41.2357
21
-131.847
0
LINE
8
Black
10
44.2357
20
-131.847
11
42.5214
21
-131.847
0
LINE
8
Black
10
43.3786
20
-131.847
11
43.3786
21
-128.847
0
LINE
8
Black
10
43.3786
20
-128.847
11
43.0929
21
-129.276
0
LINE
8
Black
10
43.0929
20
-129.276
11
42.8071
21
-129.561
0
LINE
8
Black
10
42.8071
20
-129.561
11
42.5214
21
-129.704
0
LINE
8
Black
10
45.3786
20
-129.133
11
45.5214
21
-128.99
0
LINE
8
Black
10
45.5214
20
-128.99
11
45.8071
21
-128.847
0
LINE
8
Black
10
45.8071
20
-128.847
11
46.5214
21
-128.847
0
LINE
8
Black
10
46.5214
20
-128.847
11
46.8071
21
-128.99
0
LINE
8
Black
10
46.8071
20
-128.99
11
46.95
21
-129.133
0
LINE
8
Black
10
46.95
20
-129.133
11
47.0929
21
-129.419
0
LINE
8
Black
10
47.0929
20
-129.419
11
47.0929
21
-129.704
0
LINE
8
Black
10
47.0929
20
-129.704
11
46.95
21
-130.133
0
LINE
8
Black
10
46.95
20
-130.133
11
45.2357
21
-131.847
0
LINE
8
Black
10
45.2357
20
-131.847
11
47.0929
21
-131.847
0
LINE
8
Black
10
48.95
20
-128.847
11
49.2357
21
-128.847
0
LINE
8
Black
10
49.2357
20
-128.847
11
49.5214
21
-128.99
0
LINE
8
Black
10
49.5214
20
-128.99
11
49.6643
21
-129.133
0
LINE
8
Black
10
49.6643
20
-129.133
11
49.8071
21
-129.419
0
LINE
8
Black
10
49.8071
20
-129.419
11
49.95
21
-129.99
0
LINE
8
Black
10
49.95
20
-129.99
11
49.95
21
-130.704
0
LINE
8
Black
10
49.95
20
-130.704
11
49.8071
21
-131.276
0
LINE
8
Black
10
49.8071
20
-131.276
11
49.6643
21
-131.561
0
LINE
8
Black
10
49.6643
20
-131.561
11
49.5214
21
-131.704
0
LINE
8
Black
10
49.5214
20
-131.704
11
49.2357
21
-131.847
0
LINE
8
Black
10
49.2357
20
-131.847
11
48.95
21
-131.847
0
LINE
8
Black
10
48.95
20
-131.847
11
48.6643
21
-131.704
0
LINE
8
Black
10
48.6643
20
-131.704
11
48.5214
21
-131.561
0
LINE
8
Black
10
48.5214
20
-131.561
11
48.3786
21
-131.276
0
LINE
8
Black
10
48.3786
20
-131.276
11
48.2357
21
-130.704
0
LINE
8
Black
10
48.2357
20
-130.704
11
48.2357
21
-129.99
0
LINE
8
Black
10
48.2357
20
-129.99
11
48.3786
21
-129.419
0
LINE
8
Black
10
48.3786
20
-129.419
11
48.5214
21
-129.133
0
LINE
8
Black
10
48.5214
20
-129.133
11
48.6643
21
-128.99
0
LINE
8
Black
10
48.6643
20
-128.99
11
48.95
21
-128.847
0
LINE
8
Black
10
51.0929
20
-128.847
11
51.0929
21
-129.419
0
LINE
8
Black
10
52.2357
20
-128.847
11
52.2357
21
-129.419
0
LINE
8
Black
10
56.6643
20
-132.99
11
56.5214
21
-132.847
0
LINE
8
Black
10
56.5214
20
-132.847
11
56.2357
21
-132.419
0
LINE
8
Black
10
56.2357
20
-132.419
11
56.0929
21
-132.133
0
LINE
8
Black
10
56.0929
20
-132.133
11
55.95
21
-131.704
0
LINE
8
Black
10
55.95
20
-131.704
11
55.8071
21
-130.99
0
LINE
8
Black
10
55.8071
20
-130.99
11
55.8071
21
-130.419
0
LINE
8
Black
10
55.8071
20
-130.419
11
55.95
21
-129.704
0
LINE
8
Black
10
55.95
20
-129.704
11
56.0929
21
-129.276
0
LINE
8
Black
10
56.0929
20
-129.276
11
56.2357
21
-128.99
0
LINE
8
Black
10
56.2357
20
-128.99
11
56.5214
21
-128.561
0
LINE
8
Black
10
56.5214
20
-128.561
11
56.6643
21
-128.419
0
LINE
8
Black
10
57.6643
20
-129.133
11
57.8071
21
-128.99
0
LINE
8
Black
10
57.8071
20
-128.99
11
58.0929
21
-128.847
0
LINE
8
Black
10
58.0929
20
-128.847
11
58.8071
21
-128.847
0
LINE
8
Black
10
58.8071
20
-128.847
11
59.0929
21
-128.99
0
LINE
8
Black
10
59.0929
20
-128.99
11
59.2357
21
-129.133
0
LINE
8
Black
10
59.2357
20
-129.133
11
59.3786
21
-129.419
0
LINE
8
Black
10
59.3786
20
-129.419
11
59.3786
21
-129.704
0
LINE
8
Black
10
59.3786
20
-129.704
11
59.2357
21
-130.133
0
LINE
8
Black
10
59.2357
20
-130.133
11
57.5214
21
-131.847
0
LINE
8
Black
10
57.5214
20
-131.847
11
59.3786
21
-131.847
0
LINE
8
Black
10
62.95
20
-131.847
11
62.95
21
-128.847
0
LINE
8
Black
10
64.2357
20
-131.847
11
64.2357
21
-130.276
0
LINE
8
Black
10
64.2357
20
-130.276
11
64.0929
21
-129.99
0
LINE
8
Black
10
64.0929
20
-129.99
11
63.8071
21
-129.847
0
LINE
8
Black
10
63.8071
20
-129.847
11
63.3786
21
-129.847
0
LINE
8
Black
10
63.3786
20
-129.847
11
63.0929
21
-129.99
0
LINE
8
Black
10
63.0929
20
-129.99
11
62.95
21
-130.133
0
LINE
8
Black
10
66.0929
20
-131.847
11
65.8071
21
-131.704
0
LINE
8
Black
10
65.8071
20
-131.704
11
65.6643
21
-131.561
0
LINE
8
Black
10
65.6643
20
-131.561
11
65.5214
21
-131.276
0
LINE
8
Black
10
65.5214
20
-131.276
11
65.5214
21
-130.419
0
LINE
8
Black
10
65.5214
20
-130.419
11
65.6643
21
-130.133
0
LINE
8
Black
10
65.6643
20
-130.133
11
65.8071
21
-129.99
0
LINE
8
Black
10
65.8071
20
-129.99
11
66.0929
21
-129.847
0
LINE
8
Black
10
66.0929
20
-129.847
11
66.5214
21
-129.847
0
LINE
8
Black
10
66.5214
20
-129.847
11
66.8071
21
-129.99
0
LINE
8
Black
10
66.8071
20
-129.99
11
66.95
21
-130.133
0
LINE
8
Black
10
66.95
20
-130.133
11
67.0929
21
-130.419
0
LINE
8
Black
10
67.0929
20
-130.419
11
67.0929
21
-131.276
0
LINE
8
Black
10
67.0929
20
-131.276
11
66.95
21
-131.561
0
LINE
8
Black
10
66.95
20
-131.561
11
66.8071
21
-131.704
0
LINE
8
Black
10
66.8071
20
-131.704
11
66.5214
21
-131.847
0
LINE
8
Black
10
66.5214
20
-131.847
11
66.0929
21
-131.847
0
LINE
8
Black
10
68.8071
20
-131.847
11
68.5214
21
-131.704
0
LINE
8
Black
10
68.5214
20
-131.704
11
68.3786
21
-131.419
0
LINE
8
Black
10
68.3786
20
-131.419
11
68.3786
21
-128.847
0
LINE
8
Black
10
71.0929
20
-131.704
11
70.8071
21
-131.847
0
LINE
8
Black
10
70.8071
20
-131.847
11
70.2357
21
-131.847
0
LINE
8
Black
10
70.2357
20
-131.847
11
69.95
21
-131.704
0
LINE
8
Black
10
69.95
20
-131.704
11
69.8071
21
-131.419
0
LINE
8
Black
10
69.8071
20
-131.419
11
69.8071
21
-130.276
0
LINE
8
Black
10
69.8071
20
-130.276
11
69.95
21
-129.99
0
LINE
8
Black
10
69.95
20
-129.99
11
70.2357
21
-129.847
0
LINE
8
Black
10
70.2357
20
-129.847
11
70.8071
21
-129.847
0
LINE
8
Black
10
70.8071
20
-129.847
11
71.0929
21
-129.99
0
LINE
8
Black
10
71.0929
20
-129.99
11
71.2357
21
-130.276
0
LINE
8
Black
10
71.2357
20
-130.276
11
71.2357
21
-130.561
0
LINE
8
Black
10
71.2357
20
-130.561
11
69.8071
21
-130.847
0
LINE
8
Black
10
72.3786
20
-131.704
11
72.6643
21
-131.847
0
LINE
8
Black
10
72.6643
20
-131.847
11
73.2357
21
-131.847
0
LINE
8
Black
10
73.2357
20
-131.847
11
73.5214
21
-131.704
0
LINE
8
Black
10
73.5214
20
-131.704
11
73.6643
21
-131.419
0
LINE
8
Black
10
73.6643
20
-131.419
11
73.6643
21
-131.276
0
LINE
8
Black
10
73.6643
20
-131.276
11
73.5214
21
-130.99
0
LINE
8
Black
10
73.5214
20
-130.99
11
73.2357
21
-130.847
0
LINE
8
Black
10
73.2357
20
-130.847
11
72.8071
21
-130.847
0
LINE
8
Black
10
72.8071
20
-130.847
11
72.5214
21
-130.704
0
LINE
8
Black
10
72.5214
20
-130.704
11
72.3786
21
-130.419
0
LINE
8
Black
10
72.3786
20
-130.419
11
72.3786
21
-130.276
0
LINE
8
Black
10
72.3786
20
-130.276
11
72.5214
21
-129.99
0
LINE
8
Black
10
72.5214
20
-129.99
11
72.8071
21
-129.847
0
LINE
8
Black
10
72.8071
20
-129.847
11
73.2357
21
-129.847
0
LINE
8
Black
10
73.2357
20
-129.847
11
73.5214
21
-129.99
0
LINE
8
Black
10
74.6643
20
-132.99
11
74.8071
21
-132.847
0
LINE
8
Black
10
74.8071
20
-132.847
11
75.0929
21
-132.419
0
LINE
8
Black
10
75.0929
20
-132.419
11
75.2357
21
-132.133
0
LINE
8
Black
10
75.2357
20
-132.133
11
75.3786
21
-131.704
0
LINE
8
Black
10
75.3786
20
-131.704
11
75.5214
21
-130.99
0
LINE
8
Black
10
75.5214
20
-130.99
11
75.5214
21
-130.419
0
LINE
8
Black
10
75.5214
20
-130.419
11
75.3786
21
-129.704
0
LINE
8
Black
10
75.3786
20
-129.704
11
75.2357
21
-129.276
0
LINE
8
Black
10
75.2357
20
-129.276
11
75.0929
21
-128.99
0
LINE
8
Black
10
75.0929
20
-128.99
11
74.8071
21
-128.561
0
LINE
8
Black
10
74.8071
20
-128.561
11
74.6643
21
-128.419
0
LINE
8
Black
10
6.1146
20
-132.92
11
9.95
21
-136.756
0
LINE
8
Black
10
9.95
20
-132.92
11
6.1146
21
-136.756
0
CIRCLE
8
Black
10
8.0323
20
-134.838
40
1.9177
0
LINE
8
Black
10
12.3786
20
-133.195
11
14.2357
21
-133.195
0
LINE
8
Black
10
14.2357
20
-133.195
11
13.2357
21
-134.338
0
LINE
8
Black
10
13.2357
20
-134.338
11
13.6643
21
-134.338
0
LINE
8
Black
10
13.6643
20
-134.338
11
13.95
21
-134.481
0
LINE
8
Black
10
13.95
20
-134.481
11
14.0929
21
-134.624
0
LINE
8
Black
10
14.0929
20
-134.624
11
14.2357
21
-134.909
0
LINE
8
Black
10
14.2357
20
-134.909
11
14.2357
21
-135.624
0
LINE
8
Black
10
14.2357
20
-135.624
11
14.0929
21
-135.909
0
LINE
8
Black
10
14.0929
20
-135.909
11
13.95
21
-136.052
0
LINE
8
Black
10
13.95
20
-136.052
11
13.6643
21
-136.195
0
LINE
8
Black
10
13.6643
20
-136.195
11
12.8071
21
-136.195
0
LINE
8
Black
10
12.8071
20
-136.195
11
12.5214
21
-136.052
0
LINE
8
Black
10
12.5214
20
-136.052
11
12.3786
21
-135.909
0
LINE
8
Black
10
15.5214
20
-135.909
11
15.6643
21
-136.052
0
LINE
8
Black
10
15.6643
20
-136.052
11
15.5214
21
-136.195
0
LINE
8
Black
10
15.5214
20
-136.195
11
15.3786
21
-136.052
0
LINE
8
Black
10
15.3786
20
-136.052
11
15.5214
21
-135.909
0
LINE
8
Black
10
15.5214
20
-135.909
11
15.5214
21
-136.195
0
LINE
8
Black
10
17.3786
20
-134.481
11
17.0929
21
-134.338
0
LINE
8
Black
10
17.0929
20
-134.338
11
16.95
21
-134.195
0
LINE
8
Black
10
16.95
20
-134.195
11
16.8071
21
-133.909
0
LINE
8
Black
10
16.8071
20
-133.909
11
16.8071
21
-133.767
0
LINE
8
Black
10
16.8071
20
-133.767
11
16.95
21
-133.481
0
LINE
8
Black
10
16.95
20
-133.481
11
17.0929
21
-133.338
0
LINE
8
Black
10
17.0929
20
-133.338
11
17.3786
21
-133.195
0
LINE
8
Black
10
17.3786
20
-133.195
11
17.95
21
-133.195
0
LINE
8
Black
10
17.95
20
-133.195
11
18.2357
21
-133.338
0
LINE
8
Black
10
18.2357
20
-133.338
11
18.3786
21
-133.481
0
LINE
8
Black
10
18.3786
20
-133.481
11
18.5214
21
-133.767
0
LINE
8
Black
10
18.5214
20
-133.767
11
18.5214
21
-133.909
0
LINE
8
Black
10
18.5214
20
-133.909
11
18.3786
21
-134.195
0
LINE
8
Black
10
18.3786
20
-134.195
11
18.2357
21
-134.338
0
LINE
8
Black
10
18.2357
20
-134.338
11
17.95
21
-134.481
0
LINE
8
Black
10
17.95
20
-134.481
11
17.3786
21
-134.481
0
LINE
8
Black
10
17.3786
20
-134.481
11
17.0929
21
-134.624
0
LINE
8
Black
10
17.0929
20
-134.624
11
16.95
21
-134.767
0
LINE
8
Black
10
16.95
20
-134.767
11
16.8071
21
-135.052
0
LINE
8
Black
10
16.8071
20
-135.052
11
16.8071
21
-135.624
0
LINE
8
Black
10
16.8071
20
-135.624
11
16.95
21
-135.909
0
LINE
8
Black
10
16.95
20
-135.909
11
17.0929
21
-136.052
0
LINE
8
Black
10
17.0929
20
-136.052
11
17.3786
21
-136.195
0
LINE
8
Black
10
17.3786
20
-136.195
11
17.95
21
-136.195
0
LINE
8
Black
10
17.95
20
-136.195
11
18.2357
21
-136.052
0
LINE
8
Black
10
18.2357
20
-136.052
11
18.3786
21
-135.909
0
LINE
8
Black
10
18.3786
20
-135.909
11
18.5214
21
-135.624
0
LINE
8
Black
10
18.5214
20
-135.624
11
18.5214
21
-135.052
0
LINE
8
Black
10
18.5214
20
-135.052
11
18.3786
21
-134.767
0
LINE
8
Black
10
18.3786
20
-134.767
11
18.2357
21
-134.624
0
LINE
8
Black
10
18.2357
20
-134.624
11
17.95
21
-134.481
0
LINE
8
Black
10
21.0929
20
-134.195
11
21.0929
21
-136.195
0
LINE
8
Black
10
20.3786
20
-133.052
11
19.6643
21
-135.195
0
LINE
8
Black
10
19.6643
20
-135.195
11
21.5214
21
-135.195
0
LINE
8
Black
10
22.6643
20
-136.195
11
22.6643
21
-134.195
0
LINE
8
Black
10
22.6643
20
-134.481
11
22.8071
21
-134.338
0
LINE
8
Black
10
22.8071
20
-134.338
11
23.0929
21
-134.195
0
LINE
8
Black
10
23.0929
20
-134.195
11
23.5214
21
-134.195
0
LINE
8
Black
10
23.5214
20
-134.195
11
23.8071
21
-134.338
0
LINE
8
Black
10
23.8071
20
-134.338
11
23.95
21
-134.624
0
LINE
8
Black
10
23.95
20
-134.624
11
23.95
21
-136.195
0
LINE
8
Black
10
23.95
20
-134.624
11
24.0929
21
-134.338
0
LINE
8
Black
10
24.0929
20
-134.338
11
24.3786
21
-134.195
0
LINE
8
Black
10
24.3786
20
-134.195
11
24.8071
21
-134.195
0
LINE
8
Black
10
24.8071
20
-134.195
11
25.0929
21
-134.338
0
LINE
8
Black
10
25.0929
20
-134.338
11
25.2357
21
-134.624
0
LINE
8
Black
10
25.2357
20
-134.624
11
25.2357
21
-136.195
0
LINE
8
Black
10
26.6643
20
-136.195
11
26.6643
21
-134.195
0
LINE
8
Black
10
26.6643
20
-134.481
11
26.8071
21
-134.338
0
LINE
8
Black
10
26.8071
20
-134.338
11
27.0929
21
-134.195
0
LINE
8
Black
10
27.0929
20
-134.195
11
27.5214
21
-134.195
0
LINE
8
Black
10
27.5214
20
-134.195
11
27.8071
21
-134.338
0
LINE
8
Black
10
27.8071
20
-134.338
11
27.95
21
-134.624
0
LINE
8
Black
10
27.95
20
-134.624
11
27.95
21
-136.195
0
LINE
8
Black
10
27.95
20
-134.624
11
28.0929
21
-134.338
0
LINE
8
Black
10
28.0929
20
-134.338
11
28.3786
21
-134.195
0
LINE
8
Black
10
28.3786
20
-134.195
11
28.8071
21
-134.195
0
LINE
8
Black
10
28.8071
20
-134.195
11
29.0929
21
-134.338
0
LINE
8
Black
10
29.0929
20
-134.338
11
29.2357
21
-134.624
0
LINE
8
Black
10
29.2357
20
-134.624
11
29.2357
21
-136.195
0
LINE
8
Black
10
35.0929
20
-133.052
11
32.5214
21
-136.909
0
LINE
8
Black
10
38.95
20
-133.195
11
39.2357
21
-133.195
0
LINE
8
Black
10
39.2357
20
-133.195
11
39.5214
21
-133.338
0
LINE
8
Black
10
39.5214
20
-133.338
11
39.6643
21
-133.481
0
LINE
8
Black
10
39.6643
20
-133.481
11
39.8071
21
-133.767
0
LINE
8
Black
10
39.8071
20
-133.767
11
39.95
21
-134.338
0
LINE
8
Black
10
39.95
20
-134.338
11
39.95
21
-135.052
0
LINE
8
Black
10
39.95
20
-135.052
11
39.8071
21
-135.624
0
LINE
8
Black
10
39.8071
20
-135.624
11
39.6643
21
-135.909
0
LINE
8
Black
10
39.6643
20
-135.909
11
39.5214
21
-136.052
0
LINE
8
Black
10
39.5214
20
-136.052
11
39.2357
21
-136.195
0
LINE
8
Black
10
39.2357
20
-136.195
11
38.95
21
-136.195
0
LINE
8
Black
10
38.95
20
-136.195
11
38.6643
21
-136.052
0
LINE
8
Black
10
38.6643
20
-136.052
11
38.5214
21
-135.909
0
LINE
8
Black
10
38.5214
20
-135.909
11
38.3786
21
-135.624
0
LINE
8
Black
10
38.3786
20
-135.624
11
38.2357
21
-135.052
0
LINE
8
Black
10
38.2357
20
-135.052
11
38.2357
21
-134.338
0
LINE
8
Black
10
38.2357
20
-134.338
11
38.3786
21
-133.767
0
LINE
8
Black
10
38.3786
20
-133.767
11
38.5214
21
-133.481
0
LINE
8
Black
10
38.5214
20
-133.481
11
38.6643
21
-133.338
0
LINE
8
Black
10
38.6643
20
-133.338
11
38.95
21
-133.195
0
LINE
8
Black
10
41.2357
20
-135.909
11
41.3786
21
-136.052
0
LINE
8
Black
10
41.3786
20
-136.052
11
41.2357
21
-136.195
0
LINE
8
Black
10
41.2357
20
-136.195
11
41.0929
21
-136.052
0
LINE
8
Black
10
41.0929
20
-136.052
11
41.2357
21
-135.909
0
LINE
8
Black
10
41.2357
20
-135.909
11
41.2357
21
-136.195
0
LINE
8
Black
10
44.2357
20
-136.195
11
42.5214
21
-136.195
0
LINE
8
Black
10
43.3786
20
-136.195
11
43.3786
21
-133.195
0
LINE
8
Black
10
43.3786
20
-133.195
11
43.0929
21
-133.624
0
LINE
8
Black
10
43.0929
20
-133.624
11
42.8071
21
-133.909
0
LINE
8
Black
10
42.8071
20
-133.909
11
42.5214
21
-134.052
0
LINE
8
Black
10
46.95
20
-133.195
11
45.5214
21
-133.195
0
LINE
8
Black
10
45.5214
20
-133.195
11
45.3786
21
-134.624
0
LINE
8
Black
10
45.3786
20
-134.624
11
45.5214
21
-134.481
0
LINE
8
Black
10
45.5214
20
-134.481
11
45.8071
21
-134.338
0
LINE
8
Black
10
45.8071
20
-134.338
11
46.5214
21
-134.338
0
LINE
8
Black
10
46.5214
20
-134.338
11
46.8071
21
-134.481
0
LINE
8
Black
10
46.8071
20
-134.481
11
46.95
21
-134.624
0
LINE
8
Black
10
46.95
20
-134.624
11
47.0929
21
-134.909
0
LINE
8
Black
10
47.0929
20
-134.909
11
47.0929
21
-135.624
0
LINE
8
Black
10
47.0929
20
-135.624
11
46.95
21
-135.909
0
LINE
8
Black
10
46.95
20
-135.909
11
46.8071
21
-136.052
0
LINE
8
Black
10
46.8071
20
-136.052
11
46.5214
21
-136.195
0
LINE
8
Black
10
46.5214
20
-136.195
11
45.8071
21
-136.195
0
LINE
8
Black
10
45.8071
20
-136.195
11
45.5214
21
-136.052
0
LINE
8
Black
10
45.5214
20
-136.052
11
45.3786
21
-135.909
0
LINE
8
Black
10
49.95
20
-136.195
11
48.2357
21
-136.195
0
LINE
8
Black
10
49.0929
20
-136.195
11
49.0929
21
-133.195
0
LINE
8
Black
10
49.0929
20
-133.195
11
48.8071
21
-133.624
0
LINE
8
Black
10
48.8071
20
-133.624
11
48.5214
21
-133.909
0
LINE
8
Black
10
48.5214
20
-133.909
11
48.2357
21
-134.052
0
LINE
8
Black
10
51.0929
20
-133.195
11
51.0929
21
-133.767
0
LINE
8
Black
10
52.2357
20
-133.195
11
52.2357
21
-133.767
0
LINE
8
Black
10
56.6643
20
-137.338
11
56.5214
21
-137.195
0
LINE
8
Black
10
56.5214
20
-137.195
11
56.2357
21
-136.767
0
LINE
8
Black
10
56.2357
20
-136.767
11
56.0929
21
-136.481
0
LINE
8
Black
10
56.0929
20
-136.481
11
55.95
21
-136.052
0
LINE
8
Black
10
55.95
20
-136.052
11
55.8071
21
-135.338
0
LINE
8
Black
10
55.8071
20
-135.338
11
55.8071
21
-134.767
0
LINE
8
Black
10
55.8071
20
-134.767
11
55.95
21
-134.052
0
LINE
8
Black
10
55.95
20
-134.052
11
56.0929
21
-133.624
0
LINE
8
Black
10
56.0929
20
-133.624
11
56.2357
21
-133.338
0
LINE
8
Black
10
56.2357
20
-133.338
11
56.5214
21
-132.909
0
LINE
8
Black
10
56.5214
20
-132.909
11
56.6643
21
-132.767
0
LINE
8
Black
10
59.0929
20
-134.195
11
59.0929
21
-136.195
0
LINE
8
Black
10
58.3786
20
-133.052
11
57.6643
21
-135.195
0
LINE
8
Black
10
57.6643
20
-135.195
11
59.5214
21
-135.195
0
LINE
8
Black
10
62.95
20
-136.195
11
62.95
21
-133.195
0
LINE
8
Black
10
64.2357
20
-136.195
11
64.2357
21
-134.624
0
LINE
8
Black
10
64.2357
20
-134.624
11
64.0929
21
-134.338
0
LINE
8
Black
10
64.0929
20
-134.338
11
63.8071
21
-134.195
0
LINE
8
Black
10
63.8071
20
-134.195
11
63.3786
21
-134.195
0
LINE
8
Black
10
63.3786
20
-134.195
11
63.0929
21
-134.338
0
LINE
8
Black
10
63.0929
20
-134.338
11
62.95
21
-134.481
0
LINE
8
Black
10
66.0929
20
-136.195
11
65.8071
21
-136.052
0
LINE
8
Black
10
65.8071
20
-136.052
11
65.6643
21
-135.909
0
LINE
8
Black
10
65.6643
20
-135.909
11
65.5214
21
-135.624
0
LINE
8
Black
10
65.5214
20
-135.624
11
65.5214
21
-134.767
0
LINE
8
Black
10
65.5214
20
-134.767
11
65.6643
21
-134.481
0
LINE
8
Black
10
65.6643
20
-134.481
11
65.8071
21
-134.338
0
LINE
8
Black
10
65.8071
20
-134.338
11
66.0929
21
-134.195
0
LINE
8
Black
10
66.0929
20
-134.195
11
66.5214
21
-134.195
0
LINE
8
Black
10
66.5214
20
-134.195
11
66.8071
21
-134.338
0
LINE
8
Black
10
66.8071
20
-134.338
11
66.95
21
-134.481
0
LINE
8
Black
10
66.95
20
-134.481
11
67.0929
21
-134.767
0
LINE
8
Black
10
67.0929
20
-134.767
11
67.0929
21
-135.624
0
LINE
8
Black
10
67.0929
20
-135.624
11
66.95
21
-135.909
0
LINE
8
Black
10
66.95
20
-135.909
11
66.8071
21
-136.052
0
LINE
8
Black
10
66.8071
20
-136.052
11
66.5214
21
-136.195
0
LINE
8
Black
10
66.5214
20
-136.195
11
66.0929
21
-136.195
0
LINE
8
Black
10
68.8071
20
-136.195
11
68.5214
21
-136.052
0
LINE
8
Black
10
68.5214
20
-136.052
11
68.3786
21
-135.767
0
LINE
8
Black
10
68.3786
20
-135.767
11
68.3786
21
-133.195
0
LINE
8
Black
10
71.0929
20
-136.052
11
70.8071
21
-136.195
0
LINE
8
Black
10
70.8071
20
-136.195
11
70.2357
21
-136.195
0
LINE
8
Black
10
70.2357
20
-136.195
11
69.95
21
-136.052
0
LINE
8
Black
10
69.95
20
-136.052
11
69.8071
21
-135.767
0
LINE
8
Black
10
69.8071
20
-135.767
11
69.8071
21
-134.624
0
LINE
8
Black
10
69.8071
20
-134.624
11
69.95
21
-134.338
0
LINE
8
Black
10
69.95
20
-134.338
11
70.2357
21
-134.195
0
LINE
8
Black
10
70.2357
20
-134.195
11
70.8071
21
-134.195
0
LINE
8
Black
10
70.8071
20
-134.195
11
71.0929
21
-134.338
0
LINE
8
Black
10
71.0929
20
-134.338
11
71.2357
21
-134.624
0
LINE
8
Black
10
71.2357
20
-134.624
11
71.2357
21
-134.909
0
LINE
8
Black
10
71.2357
20
-134.909
11
69.8071
21
-135.195
0
LINE
8
Black
10
72.3786
20
-136.052
11
72.6643
21
-136.195
0
LINE
8
Black
10
72.6643
20
-136.195
11
73.2357
21
-136.195
0
LINE
8
Black
10
73.2357
20
-136.195
11
73.5214
21
-136.052
0
LINE
8
Black
10
73.5214
20
-136.052
11
73.6643
21
-135.767
0
LINE
8
Black
10
73.6643
20
-135.767
11
73.6643
21
-135.624
0
LINE
8
Black
10
73.6643
20
-135.624
11
73.5214
21
-135.338
0
LINE
8
Black
10
73.5214
20
-135.338
11
73.2357
21
-135.195
0
LINE
8
Black
10
73.2357
20
-135.195
11
72.8071
21
-135.195
0
LINE
8
Black
10
72.8071
20
-135.195
11
72.5214
21
-135.052
0
LINE
8
Black
10
72.5214
20
-135.052
11
72.3786
21
-134.767
0
LINE
8
Black
10
72.3786
20
-134.767
11
72.3786
21
-134.624
0
LINE
8
Black
10
72.3786
20
-134.624
11
72.5214
21
-134.338
0
LINE
8
Black
10
72.5214
20
-134.338
11
72.8071
21
-134.195
0
LINE
8
Black
10
72.8071
20
-134.195
11
73.2357
21
-134.195
0
LINE
8
Black
10
73.2357
20
-134.195
11
73.5214
21
-134.338
0
LINE
8
Black
10
74.6643
20
-137.338
11
74.8071
21
-137.195
0
LINE
8
Black
10
74.8071
20
-137.195
11
75.0929
21
-136.767
0
LINE
8
Black
10
75.0929
20
-136.767
11
75.2357
21
-136.481
0
LINE
8
Black
10
75.2357
20
-136.481
11
75.3786
21
-136.052
0
LINE
8
Black
10
75.3786
20
-136.052
11
75.5214
21
-135.338
0
LINE
8
Black
10
75.5214
20
-135.338
11
75.5214
21
-134.767
0
LINE
8
Black
10
75.5214
20
-134.767
11
75.3786
21
-134.052
0
LINE
8
Black
10
75.3786
20
-134.052
11
75.2357
21
-133.624
0
LINE
8
Black
10
75.2357
20
-133.624
11
75.0929
21
-133.338
0
LINE
8
Black
10
75.0929
20
-133.338
11
74.8071
21
-132.909
0
LINE
8
Black
10
74.8071
20
-132.909
11
74.6643
21
-132.767
  0
ENDSEC
  0
EOF
