  0
SECTION
  2
HEADER
  9
$ANGBASE
  50
0.0
  9
$ANGDIR
  70
  1
  9
$MEASUREMENT
  70
0
  0
ENDSEC
  0
SECTION
  2
TABLES
  0
TABLE
  2
LTYPE
  70
1
  0
LTYPE
  2
CONTINUOUS
  70
0
  3
Solid line
  72
65
  73
0
  40
0.0
  0
ENDTAB
  0
TABLE
  2
STYLE
  70
4
  0
STYLE
  2
KICAD
  70
0
  40
0
  41
1
  42
1
  50
0
  71
0
  3
isocp.shx
  0
STYLE
  2
KICADB
  70
0
  40
0
  41
1
  42
1
  50
0
  71
0
  3
isocp.shx
  0
STYLE
  2
KICADI
  70
0
  40
0
  41
1
  42
1
  50
15
  71
0
  3
isocp.shx
  0
STYLE
  2
KICADBI
  70
0
  40
0
  41
1
  42
1
  50
15
  71
0
  3
isocp.shx
  0
ENDTAB
  0
TABLE
  2
LAYER
  70
24
  0
LAYER
  2
BLACK
  70
0
  62
250
  6
CONTINUOUS
  0
LAYER
  2
BLUE
  70
0
  62
5
  6
CONTINUOUS
  0
LAYER
  2
GREEN
  70
0
  62
3
  6
CONTINUOUS
  0
LAYER
  2
CYAN
  70
0
  62
4
  6
CONTINUOUS
  0
LAYER
  2
RED
  70
0
  62
1
  6
CONTINUOUS
  0
LAYER
  2
MAGENTA
  70
0
  62
6
  6
CONTINUOUS
  0
LAYER
  2
BROWN
  70
0
  62
54
  6
CONTINUOUS
  0
LAYER
  2
LIGHTGRAY
  70
0
  62
9
  6
CONTINUOUS
  0
LAYER
  2
DARKGRAY
  70
0
  62
8
  6
CONTINUOUS
  0
LAYER
  2
LIGHTBLUE
  70
0
  62
171
  6
CONTINUOUS
  0
LAYER
  2
LIGHTGREEN
  70
0
  62
91
  6
CONTINUOUS
  0
LAYER
  2
LIGHTCYAN
  70
0
  62
131
  6
CONTINUOUS
  0
LAYER
  2
LIGHTRED
  70
0
  62
11
  6
CONTINUOUS
  0
LAYER
  2
LIGHTMAGENTA
  70
0
  62
221
  6
CONTINUOUS
  0
LAYER
  2
YELLOW
  70
0
  62
2
  6
CONTINUOUS
  0
LAYER
  2
WHITE
  70
0
  62
7
  6
CONTINUOUS
  0
LAYER
  2
DARKDARKGRAY
  70
0
  62
251
  6
CONTINUOUS
  0
LAYER
  2
DARKBLUE
  70
0
  62
178
  6
CONTINUOUS
  0
LAYER
  2
DARKGREEN
  70
0
  62
98
  6
CONTINUOUS
  0
LAYER
  2
DARKCYAN
  70
0
  62
138
  6
CONTINUOUS
  0
LAYER
  2
DARKRED
  70
0
  62
18
  6
CONTINUOUS
  0
LAYER
  2
DARKMAGENTA
  70
0
  62
228
  6
CONTINUOUS
  0
LAYER
  2
DARKBROWN
  70
0
  62
58
  6
CONTINUOUS
  0
LAYER
  2
LIGHTYELLOW
  70
0
  62
51
  6
CONTINUOUS
  0
ENDTAB
  0
ENDSEC
  0
SECTION
  2
ENTITIES
0
LINE
8
BLACK
10
-0.15779
20
-40.088
11
1.19688
21
-40.088
0
LINE
8
BLACK
10
-0.931886
20
-40.4509
11
0.519543
21
-40.8137
0
LINE
8
BLACK
10
0.519543
20
-40.8137
11
0.519543
21
-39.8703
0
LINE
8
BLACK
10
1.19688
20
-39.2171
11
1.19688
21
-38.9269
0
LINE
8
BLACK
10
1.19688
20
-38.9269
11
1.10011
21
-38.7817
0
LINE
8
BLACK
10
1.10011
20
-38.7817
11
1.00335
21
-38.7091
0
LINE
8
BLACK
10
1.00335
20
-38.7091
11
0.713067
21
-38.564
0
LINE
8
BLACK
10
0.713067
20
-38.564
11
0.326019
21
-38.4914
0
LINE
8
BLACK
10
0.326019
20
-38.4914
11
-0.448076
21
-38.4914
0
LINE
8
BLACK
10
-0.448076
20
-38.4914
11
-0.6416
21
-38.564
0
LINE
8
BLACK
10
-0.6416
20
-38.564
11
-0.738362
21
-38.6366
0
LINE
8
BLACK
10
-0.738362
20
-38.6366
11
-0.835124
21
-38.7817
0
LINE
8
BLACK
10
-0.835124
20
-38.7817
11
-0.835124
21
-39.072
0
LINE
8
BLACK
10
-0.835124
20
-39.072
11
-0.738362
21
-39.2171
0
LINE
8
BLACK
10
-0.738362
20
-39.2171
11
-0.6416
21
-39.2897
0
LINE
8
BLACK
10
-0.6416
20
-39.2897
11
-0.448076
21
-39.3623
0
LINE
8
BLACK
10
-0.448076
20
-39.3623
11
0.035733
21
-39.3623
0
LINE
8
BLACK
10
0.035733
20
-39.3623
11
0.229257
21
-39.2897
0
LINE
8
BLACK
10
0.229257
20
-39.2897
11
0.326019
21
-39.2171
0
LINE
8
BLACK
10
0.326019
20
-39.2171
11
0.422781
21
-39.072
0
LINE
8
BLACK
10
0.422781
20
-39.072
11
0.422781
21
-38.7817
0
LINE
8
BLACK
10
0.422781
20
-38.7817
11
0.326019
21
-38.6366
0
LINE
8
BLACK
10
0.326019
20
-38.6366
11
0.229257
21
-38.564
0
LINE
8
BLACK
10
0.229257
20
-38.564
11
0.035733
21
-38.4914
0
LINE
8
BLACK
10
1.00335
20
-37.8383
11
1.10011
21
-37.7657
0
LINE
8
BLACK
10
1.10011
20
-37.7657
11
1.19688
21
-37.8383
0
LINE
8
BLACK
10
1.19688
20
-37.8383
11
1.10011
21
-37.9109
0
LINE
8
BLACK
10
1.10011
20
-37.9109
11
1.00335
21
-37.8383
0
LINE
8
BLACK
10
1.00335
20
-37.8383
11
1.19688
21
-37.8383
0
LINE
8
BLACK
10
-0.835124
20
-36.8223
11
-0.835124
21
-36.6771
0
LINE
8
BLACK
10
-0.835124
20
-36.6771
11
-0.738362
21
-36.532
0
LINE
8
BLACK
10
-0.738362
20
-36.532
11
-0.6416
21
-36.4594
0
LINE
8
BLACK
10
-0.6416
20
-36.4594
11
-0.448076
21
-36.3869
0
LINE
8
BLACK
10
-0.448076
20
-36.3869
11
-0.061029
21
-36.3143
0
LINE
8
BLACK
10
-0.061029
20
-36.3143
11
0.422781
21
-36.3143
0
LINE
8
BLACK
10
0.422781
20
-36.3143
11
0.809829
21
-36.3869
0
LINE
8
BLACK
10
0.809829
20
-36.3869
11
1.00335
21
-36.4594
0
LINE
8
BLACK
10
1.00335
20
-36.4594
11
1.10011
21
-36.532
0
LINE
8
BLACK
10
1.10011
20
-36.532
11
1.19688
21
-36.6771
0
LINE
8
BLACK
10
1.19688
20
-36.6771
11
1.19688
21
-36.8223
0
LINE
8
BLACK
10
1.19688
20
-36.8223
11
1.10011
21
-36.9674
0
LINE
8
BLACK
10
1.10011
20
-36.9674
11
1.00335
21
-37.04
0
LINE
8
BLACK
10
1.00335
20
-37.04
11
0.809829
21
-37.1126
0
LINE
8
BLACK
10
0.809829
20
-37.1126
11
0.422781
21
-37.1851
0
LINE
8
BLACK
10
0.422781
20
-37.1851
11
-0.061029
21
-37.1851
0
LINE
8
BLACK
10
-0.061029
20
-37.1851
11
-0.448076
21
-37.1126
0
LINE
8
BLACK
10
-0.448076
20
-37.1126
11
-0.6416
21
-37.04
0
LINE
8
BLACK
10
-0.6416
20
-37.04
11
-0.738362
21
-36.9674
0
LINE
8
BLACK
10
-0.738362
20
-36.9674
11
-0.835124
21
-36.8223
0
LINE
8
BLACK
10
-0.835124
20
-35.3709
11
-0.835124
21
-35.2257
0
LINE
8
BLACK
10
-0.835124
20
-35.2257
11
-0.738362
21
-35.0806
0
LINE
8
BLACK
10
-0.738362
20
-35.0806
11
-0.6416
21
-35.008
0
LINE
8
BLACK
10
-0.6416
20
-35.008
11
-0.448076
21
-34.9354
0
LINE
8
BLACK
10
-0.448076
20
-34.9354
11
-0.061029
21
-34.8629
0
LINE
8
BLACK
10
-0.061029
20
-34.8629
11
0.422781
21
-34.8629
0
LINE
8
BLACK
10
0.422781
20
-34.8629
11
0.809829
21
-34.9354
0
LINE
8
BLACK
10
0.809829
20
-34.9354
11
1.00335
21
-35.008
0
LINE
8
BLACK
10
1.00335
20
-35.008
11
1.10011
21
-35.0806
0
LINE
8
BLACK
10
1.10011
20
-35.0806
11
1.19688
21
-35.2257
0
LINE
8
BLACK
10
1.19688
20
-35.2257
11
1.19688
21
-35.3709
0
LINE
8
BLACK
10
1.19688
20
-35.3709
11
1.10011
21
-35.516
0
LINE
8
BLACK
10
1.10011
20
-35.516
11
1.00335
21
-35.5886
0
LINE
8
BLACK
10
1.00335
20
-35.5886
11
0.809829
21
-35.6611
0
LINE
8
BLACK
10
0.809829
20
-35.6611
11
0.422781
21
-35.7337
0
LINE
8
BLACK
10
0.422781
20
-35.7337
11
-0.061029
21
-35.7337
0
LINE
8
BLACK
10
-0.061029
20
-35.7337
11
-0.448076
21
-35.6611
0
LINE
8
BLACK
10
-0.448076
20
-35.6611
11
-0.6416
21
-35.5886
0
LINE
8
BLACK
10
-0.6416
20
-35.5886
11
-0.738362
21
-35.516
0
LINE
8
BLACK
10
-0.738362
20
-35.516
11
-0.835124
21
-35.3709
0
LINE
8
BLACK
10
-0.835124
20
-33.9194
11
-0.835124
21
-33.7743
0
LINE
8
BLACK
10
-0.835124
20
-33.7743
11
-0.738362
21
-33.6291
0
LINE
8
BLACK
10
-0.738362
20
-33.6291
11
-0.6416
21
-33.5566
0
LINE
8
BLACK
10
-0.6416
20
-33.5566
11
-0.448076
21
-33.484
0
LINE
8
BLACK
10
-0.448076
20
-33.484
11
-0.061029
21
-33.4114
0
LINE
8
BLACK
10
-0.061029
20
-33.4114
11
0.422781
21
-33.4114
0
LINE
8
BLACK
10
0.422781
20
-33.4114
11
0.809829
21
-33.484
0
LINE
8
BLACK
10
0.809829
20
-33.484
11
1.00335
21
-33.5566
0
LINE
8
BLACK
10
1.00335
20
-33.5566
11
1.10011
21
-33.6291
0
LINE
8
BLACK
10
1.10011
20
-33.6291
11
1.19688
21
-33.7743
0
LINE
8
BLACK
10
1.19688
20
-33.7743
11
1.19688
21
-33.9194
0
LINE
8
BLACK
10
1.19688
20
-33.9194
11
1.10011
21
-34.0646
0
LINE
8
BLACK
10
1.10011
20
-34.0646
11
1.00335
21
-34.1371
0
LINE
8
BLACK
10
1.00335
20
-34.1371
11
0.809829
21
-34.2097
0
LINE
8
BLACK
10
0.809829
20
-34.2097
11
0.422781
21
-34.2823
0
LINE
8
BLACK
10
0.422781
20
-34.2823
11
-0.061029
21
-34.2823
0
LINE
8
BLACK
10
-0.061029
20
-34.2823
11
-0.448076
21
-34.2097
0
LINE
8
BLACK
10
-0.448076
20
-34.2097
11
-0.6416
21
-34.1371
0
LINE
8
BLACK
10
-0.6416
20
-34.1371
11
-0.738362
21
-34.0646
0
LINE
8
BLACK
10
-0.738362
20
-34.0646
11
-0.835124
21
-33.9194
0
LINE
8
BLACK
10
1.19688
20
-31.5971
11
-0.15779
21
-31.5971
0
LINE
8
BLACK
10
0.035733
20
-31.5971
11
-0.061029
21
-31.5246
0
LINE
8
BLACK
10
-0.061029
20
-31.5246
11
-0.15779
21
-31.3794
0
LINE
8
BLACK
10
-0.15779
20
-31.3794
11
-0.15779
21
-31.1617
0
LINE
8
BLACK
10
-0.15779
20
-31.1617
11
-0.061029
21
-31.0166
0
LINE
8
BLACK
10
-0.061029
20
-31.0166
11
0.132495
21
-30.944
0
LINE
8
BLACK
10
0.132495
20
-30.944
11
1.19688
21
-30.944
0
LINE
8
BLACK
10
0.132495
20
-30.944
11
-0.061029
21
-30.8714
0
LINE
8
BLACK
10
-0.061029
20
-30.8714
11
-0.15779
21
-30.7263
0
LINE
8
BLACK
10
-0.15779
20
-30.7263
11
-0.15779
21
-30.5086
0
LINE
8
BLACK
10
-0.15779
20
-30.5086
11
-0.061029
21
-30.3634
0
LINE
8
BLACK
10
-0.061029
20
-30.3634
11
0.132495
21
-30.2909
0
LINE
8
BLACK
10
0.132495
20
-30.2909
11
1.19688
21
-30.2909
0
LINE
8
BLACK
10
1.19688
20
-29.5651
11
-0.15779
21
-29.5651
0
LINE
8
BLACK
10
0.035733
20
-29.5651
11
-0.061029
21
-29.4926
0
LINE
8
BLACK
10
-0.061029
20
-29.4926
11
-0.15779
21
-29.3474
0
LINE
8
BLACK
10
-0.15779
20
-29.3474
11
-0.15779
21
-29.1297
0
LINE
8
BLACK
10
-0.15779
20
-29.1297
11
-0.061029
21
-28.9846
0
LINE
8
BLACK
10
-0.061029
20
-28.9846
11
0.132495
21
-28.912
0
LINE
8
BLACK
10
0.132495
20
-28.912
11
1.19688
21
-28.912
0
LINE
8
BLACK
10
0.132495
20
-28.912
11
-0.061029
21
-28.8394
0
LINE
8
BLACK
10
-0.061029
20
-28.8394
11
-0.15779
21
-28.6943
0
LINE
8
BLACK
10
-0.15779
20
-28.6943
11
-0.15779
21
-28.4766
0
LINE
8
BLACK
10
-0.15779
20
-28.4766
11
-0.061029
21
-28.3314
0
LINE
8
BLACK
10
-0.061029
20
-28.3314
11
0.132495
21
-28.2589
0
LINE
8
BLACK
10
0.132495
20
-28.2589
11
1.19688
21
-28.2589
0
LINE
8
BLACK
10
2.1524
20
-59
11
2.1524
21
-10
0
LINE
8
BLACK
10
1.8476
20
-59
11
1.8476
21
-10
0
ARC
8
BLACK
10
2
20
-10
40
0.1524
50
360
51
540
0
ARC
8
BLACK
10
2
20
-59
40
0.1524
50
180
51
360
0
LINE
8
BLACK
10
-1.2512
20
-59.1524
11
14
21
-59.1524
0
LINE
8
BLACK
10
-1.2512
20
-58.8476
11
14
21
-58.8476
0
ARC
8
BLACK
10
14
20
-59
40
0.1524
50
270
51
450
0
ARC
8
BLACK
10
-1.2512
20
-59
40
0.1524
50
90
51
270
0
LINE
8
BLACK
10
-1.2512
20
-10.1524
11
14
21
-10.1524
0
LINE
8
BLACK
10
-1.2512
20
-9.8476
11
14
21
-9.8476
0
ARC
8
BLACK
10
14
20
-10
40
0.1524
50
270
51
450
0
ARC
8
BLACK
10
-1.2512
20
-10
40
0.1524
50
90
51
270
0
LINE
8
BLACK
10
1.86482
20
-10.0704
11
2.45124
21
-11.1969
0
LINE
8
BLACK
10
2.13518
20
-9.92963
11
2.7216
21
-11.0561
0
ARC
8
BLACK
10
2.58642
20
-11.1265
40
0.1524
50
207.5
51
387.5
0
ARC
8
BLACK
10
2
20
-10
40
0.1524
50
27.5
51
207.5
0
LINE
8
BLACK
10
1.86371
20
-9.92936
11
1.27926
21
-11.0569
0
LINE
8
BLACK
10
2.13432
20
-10.0696
11
1.54987
21
-11.1971
0
ARC
8
BLACK
10
1.41456
20
-11.127
40
0.1524
50
152.6
51
332.6
0
ARC
8
BLACK
10
1.99902
20
-9.99949
40
0.1524
50
-27.4
51
152.6
0
LINE
8
BLACK
10
2.13518
20
-59.0704
11
2.7216
21
-57.9439
0
LINE
8
BLACK
10
1.86482
20
-58.9296
11
2.45124
21
-57.8031
0
ARC
8
BLACK
10
2.58642
20
-57.8735
40
0.1524
50
332.5
51
512.5
0
ARC
8
BLACK
10
2
20
-59
40
0.1524
50
152.5
51
332.5
0
LINE
8
BLACK
10
2.13432
20
-58.9304
11
1.54987
21
-57.8029
0
LINE
8
BLACK
10
1.86371
20
-59.0706
11
1.27926
21
-57.9431
0
ARC
8
BLACK
10
1.41456
20
-57.873
40
0.1524
50
387.4
51
567.4
0
ARC
8
BLACK
10
1.99902
20
-59.0005
40
0.1524
50
207.4
51
387.4
0
LINE
8
BLACK
10
28.912
20
-1.84221
11
28.912
21
-3.19688
0
LINE
8
BLACK
10
28.5491
20
-1.06812
11
28.1863
21
-2.51954
0
LINE
8
BLACK
10
28.1863
20
-2.51954
11
29.1297
21
-2.51954
0
LINE
8
BLACK
10
29.7829
20
-3.19688
11
30.0731
21
-3.19688
0
LINE
8
BLACK
10
30.0731
20
-3.19688
11
30.2183
21
-3.10012
0
LINE
8
BLACK
10
30.2183
20
-3.10012
11
30.2909
21
-3.00335
0
LINE
8
BLACK
10
30.2909
20
-3.00335
11
30.436
21
-2.71307
0
LINE
8
BLACK
10
30.436
20
-2.71307
11
30.5086
21
-2.32602
0
LINE
8
BLACK
10
30.5086
20
-2.32602
11
30.5086
21
-1.55193
0
LINE
8
BLACK
10
30.5086
20
-1.55193
11
30.436
21
-1.3584
0
LINE
8
BLACK
10
30.436
20
-1.3584
11
30.3634
21
-1.26164
0
LINE
8
BLACK
10
30.3634
20
-1.26164
11
30.2183
21
-1.16488
0
LINE
8
BLACK
10
30.2183
20
-1.16488
11
29.928
21
-1.16488
0
LINE
8
BLACK
10
29.928
20
-1.16488
11
29.7829
21
-1.26164
0
LINE
8
BLACK
10
29.7829
20
-1.26164
11
29.7103
21
-1.3584
0
LINE
8
BLACK
10
29.7103
20
-1.3584
11
29.6377
21
-1.55193
0
LINE
8
BLACK
10
29.6377
20
-1.55193
11
29.6377
21
-2.03573
0
LINE
8
BLACK
10
29.6377
20
-2.03573
11
29.7103
21
-2.22926
0
LINE
8
BLACK
10
29.7103
20
-2.22926
11
29.7829
21
-2.32602
0
LINE
8
BLACK
10
29.7829
20
-2.32602
11
29.928
21
-2.42278
0
LINE
8
BLACK
10
29.928
20
-2.42278
11
30.2183
21
-2.42278
0
LINE
8
BLACK
10
30.2183
20
-2.42278
11
30.3634
21
-2.32602
0
LINE
8
BLACK
10
30.3634
20
-2.32602
11
30.436
21
-2.22926
0
LINE
8
BLACK
10
30.436
20
-2.22926
11
30.5086
21
-2.03573
0
LINE
8
BLACK
10
31.1617
20
-3.00335
11
31.2343
21
-3.10012
0
LINE
8
BLACK
10
31.2343
20
-3.10012
11
31.1617
21
-3.19688
0
LINE
8
BLACK
10
31.1617
20
-3.19688
11
31.0891
21
-3.10012
0
LINE
8
BLACK
10
31.0891
20
-3.10012
11
31.1617
21
-3.00335
0
LINE
8
BLACK
10
31.1617
20
-3.00335
11
31.1617
21
-3.19688
0
LINE
8
BLACK
10
32.1777
20
-1.16488
11
32.3229
21
-1.16488
0
LINE
8
BLACK
10
32.3229
20
-1.16488
11
32.468
21
-1.26164
0
LINE
8
BLACK
10
32.468
20
-1.26164
11
32.5406
21
-1.3584
0
LINE
8
BLACK
10
32.5406
20
-1.3584
11
32.6131
21
-1.55193
0
LINE
8
BLACK
10
32.6131
20
-1.55193
11
32.6857
21
-1.93897
0
LINE
8
BLACK
10
32.6857
20
-1.93897
11
32.6857
21
-2.42278
0
LINE
8
BLACK
10
32.6857
20
-2.42278
11
32.6131
21
-2.80983
0
LINE
8
BLACK
10
32.6131
20
-2.80983
11
32.5406
21
-3.00335
0
LINE
8
BLACK
10
32.5406
20
-3.00335
11
32.468
21
-3.10012
0
LINE
8
BLACK
10
32.468
20
-3.10012
11
32.3229
21
-3.19688
0
LINE
8
BLACK
10
32.3229
20
-3.19688
11
32.1777
21
-3.19688
0
LINE
8
BLACK
10
32.1777
20
-3.19688
11
32.0326
21
-3.10012
0
LINE
8
BLACK
10
32.0326
20
-3.10012
11
31.96
21
-3.00335
0
LINE
8
BLACK
10
31.96
20
-3.00335
11
31.8874
21
-2.80983
0
LINE
8
BLACK
10
31.8874
20
-2.80983
11
31.8149
21
-2.42278
0
LINE
8
BLACK
10
31.8149
20
-2.42278
11
31.8149
21
-1.93897
0
LINE
8
BLACK
10
31.8149
20
-1.93897
11
31.8874
21
-1.55193
0
LINE
8
BLACK
10
31.8874
20
-1.55193
11
31.96
21
-1.3584
0
LINE
8
BLACK
10
31.96
20
-1.3584
11
32.0326
21
-1.26164
0
LINE
8
BLACK
10
32.0326
20
-1.26164
11
32.1777
21
-1.16488
0
LINE
8
BLACK
10
33.6291
20
-1.16488
11
33.7743
21
-1.16488
0
LINE
8
BLACK
10
33.7743
20
-1.16488
11
33.9194
21
-1.26164
0
LINE
8
BLACK
10
33.9194
20
-1.26164
11
33.992
21
-1.3584
0
LINE
8
BLACK
10
33.992
20
-1.3584
11
34.0646
21
-1.55193
0
LINE
8
BLACK
10
34.0646
20
-1.55193
11
34.1371
21
-1.93897
0
LINE
8
BLACK
10
34.1371
20
-1.93897
11
34.1371
21
-2.42278
0
LINE
8
BLACK
10
34.1371
20
-2.42278
11
34.0646
21
-2.80983
0
LINE
8
BLACK
10
34.0646
20
-2.80983
11
33.992
21
-3.00335
0
LINE
8
BLACK
10
33.992
20
-3.00335
11
33.9194
21
-3.10012
0
LINE
8
BLACK
10
33.9194
20
-3.10012
11
33.7743
21
-3.19688
0
LINE
8
BLACK
10
33.7743
20
-3.19688
11
33.6291
21
-3.19688
0
LINE
8
BLACK
10
33.6291
20
-3.19688
11
33.484
21
-3.10012
0
LINE
8
BLACK
10
33.484
20
-3.10012
11
33.4114
21
-3.00335
0
LINE
8
BLACK
10
33.4114
20
-3.00335
11
33.3389
21
-2.80983
0
LINE
8
BLACK
10
33.3389
20
-2.80983
11
33.2663
21
-2.42278
0
LINE
8
BLACK
10
33.2663
20
-2.42278
11
33.2663
21
-1.93897
0
LINE
8
BLACK
10
33.2663
20
-1.93897
11
33.3389
21
-1.55193
0
LINE
8
BLACK
10
33.3389
20
-1.55193
11
33.4114
21
-1.3584
0
LINE
8
BLACK
10
33.4114
20
-1.3584
11
33.484
21
-1.26164
0
LINE
8
BLACK
10
33.484
20
-1.26164
11
33.6291
21
-1.16488
0
LINE
8
BLACK
10
35.0806
20
-1.16488
11
35.2257
21
-1.16488
0
LINE
8
BLACK
10
35.2257
20
-1.16488
11
35.3709
21
-1.26164
0
LINE
8
BLACK
10
35.3709
20
-1.26164
11
35.4434
21
-1.3584
0
LINE
8
BLACK
10
35.4434
20
-1.3584
11
35.516
21
-1.55193
0
LINE
8
BLACK
10
35.516
20
-1.55193
11
35.5886
21
-1.93897
0
LINE
8
BLACK
10
35.5886
20
-1.93897
11
35.5886
21
-2.42278
0
LINE
8
BLACK
10
35.5886
20
-2.42278
11
35.516
21
-2.80983
0
LINE
8
BLACK
10
35.516
20
-2.80983
11
35.4434
21
-3.00335
0
LINE
8
BLACK
10
35.4434
20
-3.00335
11
35.3709
21
-3.10012
0
LINE
8
BLACK
10
35.3709
20
-3.10012
11
35.2257
21
-3.19688
0
LINE
8
BLACK
10
35.2257
20
-3.19688
11
35.0806
21
-3.19688
0
LINE
8
BLACK
10
35.0806
20
-3.19688
11
34.9354
21
-3.10012
0
LINE
8
BLACK
10
34.9354
20
-3.10012
11
34.8629
21
-3.00335
0
LINE
8
BLACK
10
34.8629
20
-3.00335
11
34.7903
21
-2.80983
0
LINE
8
BLACK
10
34.7903
20
-2.80983
11
34.7177
21
-2.42278
0
LINE
8
BLACK
10
34.7177
20
-2.42278
11
34.7177
21
-1.93897
0
LINE
8
BLACK
10
34.7177
20
-1.93897
11
34.7903
21
-1.55193
0
LINE
8
BLACK
10
34.7903
20
-1.55193
11
34.8629
21
-1.3584
0
LINE
8
BLACK
10
34.8629
20
-1.3584
11
34.9354
21
-1.26164
0
LINE
8
BLACK
10
34.9354
20
-1.26164
11
35.0806
21
-1.16488
0
LINE
8
BLACK
10
37.4029
20
-3.19688
11
37.4029
21
-1.84221
0
LINE
8
BLACK
10
37.4029
20
-2.03573
11
37.4754
21
-1.93897
0
LINE
8
BLACK
10
37.4754
20
-1.93897
11
37.6206
21
-1.84221
0
LINE
8
BLACK
10
37.6206
20
-1.84221
11
37.8383
21
-1.84221
0
LINE
8
BLACK
10
37.8383
20
-1.84221
11
37.9834
21
-1.93897
0
LINE
8
BLACK
10
37.9834
20
-1.93897
11
38.056
21
-2.1325
0
LINE
8
BLACK
10
38.056
20
-2.1325
11
38.056
21
-3.19688
0
LINE
8
BLACK
10
38.056
20
-2.1325
11
38.1286
21
-1.93897
0
LINE
8
BLACK
10
38.1286
20
-1.93897
11
38.2737
21
-1.84221
0
LINE
8
BLACK
10
38.2737
20
-1.84221
11
38.4914
21
-1.84221
0
LINE
8
BLACK
10
38.4914
20
-1.84221
11
38.6366
21
-1.93897
0
LINE
8
BLACK
10
38.6366
20
-1.93897
11
38.7091
21
-2.1325
0
LINE
8
BLACK
10
38.7091
20
-2.1325
11
38.7091
21
-3.19688
0
LINE
8
BLACK
10
39.4349
20
-3.19688
11
39.4349
21
-1.84221
0
LINE
8
BLACK
10
39.4349
20
-2.03573
11
39.5074
21
-1.93897
0
LINE
8
BLACK
10
39.5074
20
-1.93897
11
39.6526
21
-1.84221
0
LINE
8
BLACK
10
39.6526
20
-1.84221
11
39.8703
21
-1.84221
0
LINE
8
BLACK
10
39.8703
20
-1.84221
11
40.0154
21
-1.93897
0
LINE
8
BLACK
10
40.0154
20
-1.93897
11
40.088
21
-2.1325
0
LINE
8
BLACK
10
40.088
20
-2.1325
11
40.088
21
-3.19688
0
LINE
8
BLACK
10
40.088
20
-2.1325
11
40.1606
21
-1.93897
0
LINE
8
BLACK
10
40.1606
20
-1.93897
11
40.3057
21
-1.84221
0
LINE
8
BLACK
10
40.3057
20
-1.84221
11
40.5234
21
-1.84221
0
LINE
8
BLACK
10
40.5234
20
-1.84221
11
40.6686
21
-1.93897
0
LINE
8
BLACK
10
40.6686
20
-1.93897
11
40.7411
21
-2.1325
0
LINE
8
BLACK
10
40.7411
20
-2.1325
11
40.7411
21
-3.19688
0
LINE
8
BLACK
10
10
20
-4.1524
11
59
21
-4.1524
0
LINE
8
BLACK
10
10
20
-3.8476
11
59
21
-3.8476
0
ARC
8
BLACK
10
59
20
-4
40
0.1524
50
270
51
450
0
ARC
8
BLACK
10
10
20
-4
40
0.1524
50
90
51
270
0
LINE
8
BLACK
10
59.1524
20
-14
11
59.1524
21
-0.748801
0
LINE
8
BLACK
10
58.8476
20
-14
11
58.8476
21
-0.748801
0
ARC
8
BLACK
10
59
20
-0.748801
40
0.1524
50
360
51
540
0
ARC
8
BLACK
10
59
20
-14
40
0.1524
50
180
51
360
0
LINE
8
BLACK
10
10.1524
20
-14
11
10.1524
21
-0.748801
0
LINE
8
BLACK
10
9.8476
20
-14
11
9.8476
21
-0.748801
0
ARC
8
BLACK
10
10
20
-0.748801
40
0.1524
50
360
51
540
0
ARC
8
BLACK
10
10
20
-14
40
0.1524
50
180
51
360
0
LINE
8
BLACK
10
10.0696
20
-4.13432
11
11.1971
21
-3.54987
0
LINE
8
BLACK
10
9.92936
20
-3.86371
11
11.0569
21
-3.27926
0
ARC
8
BLACK
10
11.127
20
-3.41457
40
0.1524
50
297.4
51
477.4
0
ARC
8
BLACK
10
9.99949
20
-3.99902
40
0.1524
50
117.4
51
297.4
0
LINE
8
BLACK
10
9.92936
20
-4.13629
11
11.0569
21
-4.72074
0
LINE
8
BLACK
10
10.0696
20
-3.86568
11
11.1971
21
-4.45013
0
ARC
8
BLACK
10
11.127
20
-4.58544
40
0.1524
50
242.6
51
422.6
0
ARC
8
BLACK
10
9.99949
20
-4.00099
40
0.1524
50
62.6
51
242.6
0
LINE
8
BLACK
10
59.0704
20
-3.86482
11
57.9439
21
-3.2784
0
LINE
8
BLACK
10
58.9296
20
-4.13518
11
57.8031
21
-3.54876
0
ARC
8
BLACK
10
57.8735
20
-3.41358
40
0.1524
50
422.5
51
602.5
0
ARC
8
BLACK
10
59
20
-4
40
0.1524
50
242.5
51
422.5
0
LINE
8
BLACK
10
58.9296
20
-3.86482
11
57.8031
21
-4.45124
0
LINE
8
BLACK
10
59.0704
20
-4.13518
11
57.9439
21
-4.7216
0
ARC
8
BLACK
10
57.8735
20
-4.58642
40
0.1524
50
117.5
51
297.5
0
ARC
8
BLACK
10
59
20
-4
40
0.1524
50
-62.5
51
117.5
0
LINE
8
BLACK
10
28.912
20
-5.84221
11
28.912
21
-7.19688
0
LINE
8
BLACK
10
28.5491
20
-5.06812
11
28.1863
21
-6.51954
0
LINE
8
BLACK
10
28.1863
20
-6.51954
11
29.1297
21
-6.51954
0
LINE
8
BLACK
10
30.5086
20
-7.19688
11
29.6377
21
-7.19688
0
LINE
8
BLACK
10
30.0731
20
-7.19688
11
30.0731
21
-5.16488
0
LINE
8
BLACK
10
30.0731
20
-5.16488
11
29.928
21
-5.45516
0
LINE
8
BLACK
10
29.928
20
-5.45516
11
29.7829
21
-5.64869
0
LINE
8
BLACK
10
29.7829
20
-5.64869
11
29.6377
21
-5.74545
0
LINE
8
BLACK
10
31.1617
20
-7.00335
11
31.2343
21
-7.10012
0
LINE
8
BLACK
10
31.2343
20
-7.10012
11
31.1617
21
-7.19688
0
LINE
8
BLACK
10
31.1617
20
-7.19688
11
31.0891
21
-7.10012
0
LINE
8
BLACK
10
31.0891
20
-7.10012
11
31.1617
21
-7.00335
0
LINE
8
BLACK
10
31.1617
20
-7.00335
11
31.1617
21
-7.19688
0
LINE
8
BLACK
10
32.1777
20
-5.16488
11
32.3229
21
-5.16488
0
LINE
8
BLACK
10
32.3229
20
-5.16488
11
32.468
21
-5.26164
0
LINE
8
BLACK
10
32.468
20
-5.26164
11
32.5406
21
-5.3584
0
LINE
8
BLACK
10
32.5406
20
-5.3584
11
32.6131
21
-5.55193
0
LINE
8
BLACK
10
32.6131
20
-5.55193
11
32.6857
21
-5.93897
0
LINE
8
BLACK
10
32.6857
20
-5.93897
11
32.6857
21
-6.42278
0
LINE
8
BLACK
10
32.6857
20
-6.42278
11
32.6131
21
-6.80983
0
LINE
8
BLACK
10
32.6131
20
-6.80983
11
32.5406
21
-7.00335
0
LINE
8
BLACK
10
32.5406
20
-7.00335
11
32.468
21
-7.10012
0
LINE
8
BLACK
10
32.468
20
-7.10012
11
32.3229
21
-7.19688
0
LINE
8
BLACK
10
32.3229
20
-7.19688
11
32.1777
21
-7.19688
0
LINE
8
BLACK
10
32.1777
20
-7.19688
11
32.0326
21
-7.10012
0
LINE
8
BLACK
10
32.0326
20
-7.10012
11
31.96
21
-7.00335
0
LINE
8
BLACK
10
31.96
20
-7.00335
11
31.8874
21
-6.80983
0
LINE
8
BLACK
10
31.8874
20
-6.80983
11
31.8149
21
-6.42278
0
LINE
8
BLACK
10
31.8149
20
-6.42278
11
31.8149
21
-5.93897
0
LINE
8
BLACK
10
31.8149
20
-5.93897
11
31.8874
21
-5.55193
0
LINE
8
BLACK
10
31.8874
20
-5.55193
11
31.96
21
-5.3584
0
LINE
8
BLACK
10
31.96
20
-5.3584
11
32.0326
21
-5.26164
0
LINE
8
BLACK
10
32.0326
20
-5.26164
11
32.1777
21
-5.16488
0
LINE
8
BLACK
10
33.6291
20
-5.16488
11
33.7743
21
-5.16488
0
LINE
8
BLACK
10
33.7743
20
-5.16488
11
33.9194
21
-5.26164
0
LINE
8
BLACK
10
33.9194
20
-5.26164
11
33.992
21
-5.3584
0
LINE
8
BLACK
10
33.992
20
-5.3584
11
34.0646
21
-5.55193
0
LINE
8
BLACK
10
34.0646
20
-5.55193
11
34.1371
21
-5.93897
0
LINE
8
BLACK
10
34.1371
20
-5.93897
11
34.1371
21
-6.42278
0
LINE
8
BLACK
10
34.1371
20
-6.42278
11
34.0646
21
-6.80983
0
LINE
8
BLACK
10
34.0646
20
-6.80983
11
33.992
21
-7.00335
0
LINE
8
BLACK
10
33.992
20
-7.00335
11
33.9194
21
-7.10012
0
LINE
8
BLACK
10
33.9194
20
-7.10012
11
33.7743
21
-7.19688
0
LINE
8
BLACK
10
33.7743
20
-7.19688
11
33.6291
21
-7.19688
0
LINE
8
BLACK
10
33.6291
20
-7.19688
11
33.484
21
-7.10012
0
LINE
8
BLACK
10
33.484
20
-7.10012
11
33.4114
21
-7.00335
0
LINE
8
BLACK
10
33.4114
20
-7.00335
11
33.3389
21
-6.80983
0
LINE
8
BLACK
10
33.3389
20
-6.80983
11
33.2663
21
-6.42278
0
LINE
8
BLACK
10
33.2663
20
-6.42278
11
33.2663
21
-5.93897
0
LINE
8
BLACK
10
33.2663
20
-5.93897
11
33.3389
21
-5.55193
0
LINE
8
BLACK
10
33.3389
20
-5.55193
11
33.4114
21
-5.3584
0
LINE
8
BLACK
10
33.4114
20
-5.3584
11
33.484
21
-5.26164
0
LINE
8
BLACK
10
33.484
20
-5.26164
11
33.6291
21
-5.16488
0
LINE
8
BLACK
10
35.0806
20
-5.16488
11
35.2257
21
-5.16488
0
LINE
8
BLACK
10
35.2257
20
-5.16488
11
35.3709
21
-5.26164
0
LINE
8
BLACK
10
35.3709
20
-5.26164
11
35.4434
21
-5.3584
0
LINE
8
BLACK
10
35.4434
20
-5.3584
11
35.516
21
-5.55193
0
LINE
8
BLACK
10
35.516
20
-5.55193
11
35.5886
21
-5.93897
0
LINE
8
BLACK
10
35.5886
20
-5.93897
11
35.5886
21
-6.42278
0
LINE
8
BLACK
10
35.5886
20
-6.42278
11
35.516
21
-6.80983
0
LINE
8
BLACK
10
35.516
20
-6.80983
11
35.4434
21
-7.00335
0
LINE
8
BLACK
10
35.4434
20
-7.00335
11
35.3709
21
-7.10012
0
LINE
8
BLACK
10
35.3709
20
-7.10012
11
35.2257
21
-7.19688
0
LINE
8
BLACK
10
35.2257
20
-7.19688
11
35.0806
21
-7.19688
0
LINE
8
BLACK
10
35.0806
20
-7.19688
11
34.9354
21
-7.10012
0
LINE
8
BLACK
10
34.9354
20
-7.10012
11
34.8629
21
-7.00335
0
LINE
8
BLACK
10
34.8629
20
-7.00335
11
34.7903
21
-6.80983
0
LINE
8
BLACK
10
34.7903
20
-6.80983
11
34.7177
21
-6.42278
0
LINE
8
BLACK
10
34.7177
20
-6.42278
11
34.7177
21
-5.93897
0
LINE
8
BLACK
10
34.7177
20
-5.93897
11
34.7903
21
-5.55193
0
LINE
8
BLACK
10
34.7903
20
-5.55193
11
34.8629
21
-5.3584
0
LINE
8
BLACK
10
34.8629
20
-5.3584
11
34.9354
21
-5.26164
0
LINE
8
BLACK
10
34.9354
20
-5.26164
11
35.0806
21
-5.16488
0
LINE
8
BLACK
10
37.4029
20
-7.19688
11
37.4029
21
-5.84221
0
LINE
8
BLACK
10
37.4029
20
-6.03573
11
37.4754
21
-5.93897
0
LINE
8
BLACK
10
37.4754
20
-5.93897
11
37.6206
21
-5.84221
0
LINE
8
BLACK
10
37.6206
20
-5.84221
11
37.8383
21
-5.84221
0
LINE
8
BLACK
10
37.8383
20
-5.84221
11
37.9834
21
-5.93897
0
LINE
8
BLACK
10
37.9834
20
-5.93897
11
38.056
21
-6.1325
0
LINE
8
BLACK
10
38.056
20
-6.1325
11
38.056
21
-7.19688
0
LINE
8
BLACK
10
38.056
20
-6.1325
11
38.1286
21
-5.93897
0
LINE
8
BLACK
10
38.1286
20
-5.93897
11
38.2737
21
-5.84221
0
LINE
8
BLACK
10
38.2737
20
-5.84221
11
38.4914
21
-5.84221
0
LINE
8
BLACK
10
38.4914
20
-5.84221
11
38.6366
21
-5.93897
0
LINE
8
BLACK
10
38.6366
20
-5.93897
11
38.7091
21
-6.1325
0
LINE
8
BLACK
10
38.7091
20
-6.1325
11
38.7091
21
-7.19688
0
LINE
8
BLACK
10
39.4349
20
-7.19688
11
39.4349
21
-5.84221
0
LINE
8
BLACK
10
39.4349
20
-6.03573
11
39.5074
21
-5.93897
0
LINE
8
BLACK
10
39.5074
20
-5.93897
11
39.6526
21
-5.84221
0
LINE
8
BLACK
10
39.6526
20
-5.84221
11
39.8703
21
-5.84221
0
LINE
8
BLACK
10
39.8703
20
-5.84221
11
40.0154
21
-5.93897
0
LINE
8
BLACK
10
40.0154
20
-5.93897
11
40.088
21
-6.1325
0
LINE
8
BLACK
10
40.088
20
-6.1325
11
40.088
21
-7.19688
0
LINE
8
BLACK
10
40.088
20
-6.1325
11
40.1606
21
-5.93897
0
LINE
8
BLACK
10
40.1606
20
-5.93897
11
40.3057
21
-5.84221
0
LINE
8
BLACK
10
40.3057
20
-5.84221
11
40.5234
21
-5.84221
0
LINE
8
BLACK
10
40.5234
20
-5.84221
11
40.6686
21
-5.93897
0
LINE
8
BLACK
10
40.6686
20
-5.93897
11
40.7411
21
-6.1325
0
LINE
8
BLACK
10
40.7411
20
-6.1325
11
40.7411
21
-7.19688
0
LINE
8
BLACK
10
14
20
-8.1524
11
55
21
-8.1524
0
LINE
8
BLACK
10
14
20
-7.8476
11
55
21
-7.8476
0
ARC
8
BLACK
10
55
20
-8
40
0.1524
50
270
51
450
0
ARC
8
BLACK
10
14
20
-8
40
0.1524
50
90
51
270
0
LINE
8
BLACK
10
14.1524
20
-14
11
14.1524
21
-4.7488
0
LINE
8
BLACK
10
13.8476
20
-14
11
13.8476
21
-4.7488
0
ARC
8
BLACK
10
14
20
-4.7488
40
0.1524
50
360
51
540
0
ARC
8
BLACK
10
14
20
-14
40
0.1524
50
180
51
360
0
LINE
8
BLACK
10
55.1524
20
-14
11
55.1524
21
-4.7488
0
LINE
8
BLACK
10
54.8476
20
-14
11
54.8476
21
-4.7488
0
ARC
8
BLACK
10
55
20
-4.7488
40
0.1524
50
360
51
540
0
ARC
8
BLACK
10
55
20
-14
40
0.1524
50
180
51
360
0
LINE
8
BLACK
10
54.9296
20
-7.86482
11
53.8031
21
-8.45124
0
LINE
8
BLACK
10
55.0704
20
-8.13518
11
53.9439
21
-8.7216
0
ARC
8
BLACK
10
53.8735
20
-8.58642
40
0.1524
50
117.5
51
297.5
0
ARC
8
BLACK
10
55
20
-8
40
0.1524
50
-62.5
51
117.5
0
LINE
8
BLACK
10
55.0704
20
-7.86482
11
53.9439
21
-7.2784
0
LINE
8
BLACK
10
54.9296
20
-8.13518
11
53.8031
21
-7.54876
0
ARC
8
BLACK
10
53.8735
20
-7.41358
40
0.1524
50
422.5
51
602.5
0
ARC
8
BLACK
10
55
20
-8
40
0.1524
50
242.5
51
422.5
0
LINE
8
BLACK
10
13.9294
20
-8.13629
11
15.0569
21
-8.72074
0
LINE
8
BLACK
10
14.0696
20
-7.86568
11
15.1971
21
-8.45013
0
ARC
8
BLACK
10
15.127
20
-8.58544
40
0.1524
50
242.6
51
422.6
0
ARC
8
BLACK
10
13.9995
20
-8.00099
40
0.1524
50
62.6
51
242.6
0
LINE
8
BLACK
10
14.0696
20
-8.13432
11
15.1971
21
-7.54987
0
LINE
8
BLACK
10
13.9294
20
-7.86371
11
15.0569
21
-7.27926
0
ARC
8
BLACK
10
15.127
20
-7.41457
40
0.1524
50
297.4
51
477.4
0
ARC
8
BLACK
10
13.9995
20
-7.99902
40
0.1524
50
117.4
51
297.4
0
LINE
8
BLACK
10
5.84221
20
-40.088
11
7.19688
21
-40.088
0
LINE
8
BLACK
10
5.06811
20
-40.4509
11
6.51954
21
-40.8137
0
LINE
8
BLACK
10
6.51954
20
-40.8137
11
6.51954
21
-39.8703
0
LINE
8
BLACK
10
7.19688
20
-38.4914
11
7.19688
21
-39.3623
0
LINE
8
BLACK
10
7.19688
20
-38.9269
11
5.16488
21
-38.9269
0
LINE
8
BLACK
10
5.16488
20
-38.9269
11
5.45516
21
-39.072
0
LINE
8
BLACK
10
5.45516
20
-39.072
11
5.64869
21
-39.2171
0
LINE
8
BLACK
10
5.64869
20
-39.2171
11
5.74545
21
-39.3623
0
LINE
8
BLACK
10
7.00335
20
-37.8383
11
7.10011
21
-37.7657
0
LINE
8
BLACK
10
7.10011
20
-37.7657
11
7.19688
21
-37.8383
0
LINE
8
BLACK
10
7.19688
20
-37.8383
11
7.10011
21
-37.9109
0
LINE
8
BLACK
10
7.10011
20
-37.9109
11
7.00335
21
-37.8383
0
LINE
8
BLACK
10
7.00335
20
-37.8383
11
7.19688
21
-37.8383
0
LINE
8
BLACK
10
5.16488
20
-36.8223
11
5.16488
21
-36.6771
0
LINE
8
BLACK
10
5.16488
20
-36.6771
11
5.26164
21
-36.532
0
LINE
8
BLACK
10
5.26164
20
-36.532
11
5.3584
21
-36.4594
0
LINE
8
BLACK
10
5.3584
20
-36.4594
11
5.55192
21
-36.3869
0
LINE
8
BLACK
10
5.55192
20
-36.3869
11
5.93897
21
-36.3143
0
LINE
8
BLACK
10
5.93897
20
-36.3143
11
6.42278
21
-36.3143
0
LINE
8
BLACK
10
6.42278
20
-36.3143
11
6.80983
21
-36.3869
0
LINE
8
BLACK
10
6.80983
20
-36.3869
11
7.00335
21
-36.4594
0
LINE
8
BLACK
10
7.00335
20
-36.4594
11
7.10011
21
-36.532
0
LINE
8
BLACK
10
7.10011
20
-36.532
11
7.19688
21
-36.6771
0
LINE
8
BLACK
10
7.19688
20
-36.6771
11
7.19688
21
-36.8223
0
LINE
8
BLACK
10
7.19688
20
-36.8223
11
7.10011
21
-36.9674
0
LINE
8
BLACK
10
7.10011
20
-36.9674
11
7.00335
21
-37.04
0
LINE
8
BLACK
10
7.00335
20
-37.04
11
6.80983
21
-37.1126
0
LINE
8
BLACK
10
6.80983
20
-37.1126
11
6.42278
21
-37.1851
0
LINE
8
BLACK
10
6.42278
20
-37.1851
11
5.93897
21
-37.1851
0
LINE
8
BLACK
10
5.93897
20
-37.1851
11
5.55192
21
-37.1126
0
LINE
8
BLACK
10
5.55192
20
-37.1126
11
5.3584
21
-37.04
0
LINE
8
BLACK
10
5.3584
20
-37.04
11
5.26164
21
-36.9674
0
LINE
8
BLACK
10
5.26164
20
-36.9674
11
5.16488
21
-36.8223
0
LINE
8
BLACK
10
5.16488
20
-35.3709
11
5.16488
21
-35.2257
0
LINE
8
BLACK
10
5.16488
20
-35.2257
11
5.26164
21
-35.0806
0
LINE
8
BLACK
10
5.26164
20
-35.0806
11
5.3584
21
-35.008
0
LINE
8
BLACK
10
5.3584
20
-35.008
11
5.55192
21
-34.9354
0
LINE
8
BLACK
10
5.55192
20
-34.9354
11
5.93897
21
-34.8629
0
LINE
8
BLACK
10
5.93897
20
-34.8629
11
6.42278
21
-34.8629
0
LINE
8
BLACK
10
6.42278
20
-34.8629
11
6.80983
21
-34.9354
0
LINE
8
BLACK
10
6.80983
20
-34.9354
11
7.00335
21
-35.008
0
LINE
8
BLACK
10
7.00335
20
-35.008
11
7.10011
21
-35.0806
0
LINE
8
BLACK
10
7.10011
20
-35.0806
11
7.19688
21
-35.2257
0
LINE
8
BLACK
10
7.19688
20
-35.2257
11
7.19688
21
-35.3709
0
LINE
8
BLACK
10
7.19688
20
-35.3709
11
7.10011
21
-35.516
0
LINE
8
BLACK
10
7.10011
20
-35.516
11
7.00335
21
-35.5886
0
LINE
8
BLACK
10
7.00335
20
-35.5886
11
6.80983
21
-35.6611
0
LINE
8
BLACK
10
6.80983
20
-35.6611
11
6.42278
21
-35.7337
0
LINE
8
BLACK
10
6.42278
20
-35.7337
11
5.93897
21
-35.7337
0
LINE
8
BLACK
10
5.93897
20
-35.7337
11
5.55192
21
-35.6611
0
LINE
8
BLACK
10
5.55192
20
-35.6611
11
5.3584
21
-35.5886
0
LINE
8
BLACK
10
5.3584
20
-35.5886
11
5.26164
21
-35.516
0
LINE
8
BLACK
10
5.26164
20
-35.516
11
5.16488
21
-35.3709
0
LINE
8
BLACK
10
5.16488
20
-33.9194
11
5.16488
21
-33.7743
0
LINE
8
BLACK
10
5.16488
20
-33.7743
11
5.26164
21
-33.6291
0
LINE
8
BLACK
10
5.26164
20
-33.6291
11
5.3584
21
-33.5566
0
LINE
8
BLACK
10
5.3584
20
-33.5566
11
5.55192
21
-33.484
0
LINE
8
BLACK
10
5.55192
20
-33.484
11
5.93897
21
-33.4114
0
LINE
8
BLACK
10
5.93897
20
-33.4114
11
6.42278
21
-33.4114
0
LINE
8
BLACK
10
6.42278
20
-33.4114
11
6.80983
21
-33.484
0
LINE
8
BLACK
10
6.80983
20
-33.484
11
7.00335
21
-33.5566
0
LINE
8
BLACK
10
7.00335
20
-33.5566
11
7.10011
21
-33.6291
0
LINE
8
BLACK
10
7.10011
20
-33.6291
11
7.19688
21
-33.7743
0
LINE
8
BLACK
10
7.19688
20
-33.7743
11
7.19688
21
-33.9194
0
LINE
8
BLACK
10
7.19688
20
-33.9194
11
7.10011
21
-34.0646
0
LINE
8
BLACK
10
7.10011
20
-34.0646
11
7.00335
21
-34.1371
0
LINE
8
BLACK
10
7.00335
20
-34.1371
11
6.80983
21
-34.2097
0
LINE
8
BLACK
10
6.80983
20
-34.2097
11
6.42278
21
-34.2823
0
LINE
8
BLACK
10
6.42278
20
-34.2823
11
5.93897
21
-34.2823
0
LINE
8
BLACK
10
5.93897
20
-34.2823
11
5.55192
21
-34.2097
0
LINE
8
BLACK
10
5.55192
20
-34.2097
11
5.3584
21
-34.1371
0
LINE
8
BLACK
10
5.3584
20
-34.1371
11
5.26164
21
-34.0646
0
LINE
8
BLACK
10
5.26164
20
-34.0646
11
5.16488
21
-33.9194
0
LINE
8
BLACK
10
7.19688
20
-31.5971
11
5.84221
21
-31.5971
0
LINE
8
BLACK
10
6.03573
20
-31.5971
11
5.93897
21
-31.5246
0
LINE
8
BLACK
10
5.93897
20
-31.5246
11
5.84221
21
-31.3794
0
LINE
8
BLACK
10
5.84221
20
-31.3794
11
5.84221
21
-31.1617
0
LINE
8
BLACK
10
5.84221
20
-31.1617
11
5.93897
21
-31.0166
0
LINE
8
BLACK
10
5.93897
20
-31.0166
11
6.1325
21
-30.944
0
LINE
8
BLACK
10
6.1325
20
-30.944
11
7.19688
21
-30.944
0
LINE
8
BLACK
10
6.1325
20
-30.944
11
5.93897
21
-30.8714
0
LINE
8
BLACK
10
5.93897
20
-30.8714
11
5.84221
21
-30.7263
0
LINE
8
BLACK
10
5.84221
20
-30.7263
11
5.84221
21
-30.5086
0
LINE
8
BLACK
10
5.84221
20
-30.5086
11
5.93897
21
-30.3634
0
LINE
8
BLACK
10
5.93897
20
-30.3634
11
6.1325
21
-30.2909
0
LINE
8
BLACK
10
6.1325
20
-30.2909
11
7.19688
21
-30.2909
0
LINE
8
BLACK
10
7.19688
20
-29.5651
11
5.84221
21
-29.5651
0
LINE
8
BLACK
10
6.03573
20
-29.5651
11
5.93897
21
-29.4926
0
LINE
8
BLACK
10
5.93897
20
-29.4926
11
5.84221
21
-29.3474
0
LINE
8
BLACK
10
5.84221
20
-29.3474
11
5.84221
21
-29.1297
0
LINE
8
BLACK
10
5.84221
20
-29.1297
11
5.93897
21
-28.9846
0
LINE
8
BLACK
10
5.93897
20
-28.9846
11
6.1325
21
-28.912
0
LINE
8
BLACK
10
6.1325
20
-28.912
11
7.19688
21
-28.912
0
LINE
8
BLACK
10
6.1325
20
-28.912
11
5.93897
21
-28.8394
0
LINE
8
BLACK
10
5.93897
20
-28.8394
11
5.84221
21
-28.6943
0
LINE
8
BLACK
10
5.84221
20
-28.6943
11
5.84221
21
-28.4766
0
LINE
8
BLACK
10
5.84221
20
-28.4766
11
5.93897
21
-28.3314
0
LINE
8
BLACK
10
5.93897
20
-28.3314
11
6.1325
21
-28.2589
0
LINE
8
BLACK
10
6.1325
20
-28.2589
11
7.19688
21
-28.2589
0
LINE
8
BLACK
10
8.1524
20
-55
11
8.1524
21
-14
0
LINE
8
BLACK
10
7.8476
20
-55
11
7.8476
21
-14
0
ARC
8
BLACK
10
8
20
-14
40
0.1524
50
360
51
540
0
ARC
8
BLACK
10
8
20
-55
40
0.1524
50
180
51
360
0
LINE
8
BLACK
10
4.7488
20
-55.1524
11
14
21
-55.1524
0
LINE
8
BLACK
10
4.7488
20
-54.8476
11
14
21
-54.8476
0
ARC
8
BLACK
10
14
20
-55
40
0.1524
50
270
51
450
0
ARC
8
BLACK
10
4.7488
20
-55
40
0.1524
50
90
51
270
0
LINE
8
BLACK
10
4.7488
20
-14.1524
11
14
21
-14.1524
0
LINE
8
BLACK
10
4.7488
20
-13.8476
11
14
21
-13.8476
0
ARC
8
BLACK
10
14
20
-14
40
0.1524
50
270
51
450
0
ARC
8
BLACK
10
4.7488
20
-14
40
0.1524
50
90
51
270
0
LINE
8
BLACK
10
7.86482
20
-14.0704
11
8.45124
21
-15.1969
0
LINE
8
BLACK
10
8.13518
20
-13.9296
11
8.7216
21
-15.0561
0
ARC
8
BLACK
10
8.58642
20
-15.1265
40
0.1524
50
207.5
51
387.5
0
ARC
8
BLACK
10
8
20
-14
40
0.1524
50
27.5
51
207.5
0
LINE
8
BLACK
10
7.86371
20
-13.9294
11
7.27926
21
-15.0569
0
LINE
8
BLACK
10
8.13432
20
-14.0696
11
7.54987
21
-15.1971
0
ARC
8
BLACK
10
7.41456
20
-15.127
40
0.1524
50
152.6
51
332.6
0
ARC
8
BLACK
10
7.99902
20
-13.9995
40
0.1524
50
-27.4
51
152.6
0
LINE
8
BLACK
10
8.13518
20
-55.0704
11
8.7216
21
-53.9439
0
LINE
8
BLACK
10
7.86482
20
-54.9296
11
8.45124
21
-53.8031
0
ARC
8
BLACK
10
8.58642
20
-53.8735
40
0.1524
50
332.5
51
512.5
0
ARC
8
BLACK
10
8
20
-55
40
0.1524
50
152.5
51
332.5
0
LINE
8
BLACK
10
8.13432
20
-54.9304
11
7.54987
21
-53.8029
0
LINE
8
BLACK
10
7.86371
20
-55.0706
11
7.27926
21
-53.9431
0
ARC
8
BLACK
10
7.41456
20
-53.873
40
0.1524
50
387.4
51
567.4
0
ARC
8
BLACK
10
7.99902
20
-55.0005
40
0.1524
50
207.4
51
387.4
  0
ENDSEC
  0
EOF
