  0
SECTION
  2
HEADER
  9
$ANGBASE
  50
0.0
  9
$ANGDIR
  70
  1
  9
$MEASUREMENT
  70
0
  0
ENDSEC
  0
SECTION
  2
TABLES
  0
TABLE
  2
LTYPE
  70
1
  0
LTYPE
  2
CONTINUOUS
  70
0
  3
Solid line
  72
65
  73
0
  40
0.0
  0
ENDTAB
  0
TABLE
  2
STYLE
  70
4
  0
STYLE
  2
KICAD
  70
0
  40
0
  41
1
  42
1
  50
0
  71
0
  3
isocp.shx
  0
STYLE
  2
KICADB
  70
0
  40
0
  41
1
  42
1
  50
0
  71
0
  3
isocp.shx
  0
STYLE
  2
KICADI
  70
0
  40
0
  41
1
  42
1
  50
15
  71
0
  3
isocp.shx
  0
STYLE
  2
KICADBI
  70
0
  40
0
  41
1
  42
1
  50
15
  71
0
  3
isocp.shx
  0
ENDTAB
  0
TABLE
  2
LAYER
  70
24
  0
LAYER
  2
BLACK
  70
0
  62
250
  6
CONTINUOUS
  0
LAYER
  2
BLUE
  70
0
  62
5
  6
CONTINUOUS
  0
LAYER
  2
GREEN
  70
0
  62
3
  6
CONTINUOUS
  0
LAYER
  2
CYAN
  70
0
  62
4
  6
CONTINUOUS
  0
LAYER
  2
RED
  70
0
  62
1
  6
CONTINUOUS
  0
LAYER
  2
MAGENTA
  70
0
  62
6
  6
CONTINUOUS
  0
LAYER
  2
BROWN
  70
0
  62
54
  6
CONTINUOUS
  0
LAYER
  2
LIGHTGRAY
  70
0
  62
9
  6
CONTINUOUS
  0
LAYER
  2
DARKGRAY
  70
0
  62
8
  6
CONTINUOUS
  0
LAYER
  2
LIGHTBLUE
  70
0
  62
171
  6
CONTINUOUS
  0
LAYER
  2
LIGHTGREEN
  70
0
  62
91
  6
CONTINUOUS
  0
LAYER
  2
LIGHTCYAN
  70
0
  62
131
  6
CONTINUOUS
  0
LAYER
  2
LIGHTRED
  70
0
  62
11
  6
CONTINUOUS
  0
LAYER
  2
LIGHTMAGENTA
  70
0
  62
221
  6
CONTINUOUS
  0
LAYER
  2
YELLOW
  70
0
  62
2
  6
CONTINUOUS
  0
LAYER
  2
WHITE
  70
0
  62
7
  6
CONTINUOUS
  0
LAYER
  2
DARKDARKGRAY
  70
0
  62
251
  6
CONTINUOUS
  0
LAYER
  2
DARKBLUE
  70
0
  62
178
  6
CONTINUOUS
  0
LAYER
  2
DARKGREEN
  70
0
  62
98
  6
CONTINUOUS
  0
LAYER
  2
DARKCYAN
  70
0
  62
138
  6
CONTINUOUS
  0
LAYER
  2
DARKRED
  70
0
  62
18
  6
CONTINUOUS
  0
LAYER
  2
DARKMAGENTA
  70
0
  62
228
  6
CONTINUOUS
  0
LAYER
  2
DARKBROWN
  70
0
  62
58
  6
CONTINUOUS
  0
LAYER
  2
LIGHTYELLOW
  70
0
  62
51
  6
CONTINUOUS
  0
ENDTAB
  0
ENDSEC
  0
SECTION
  2
ENTITIES
0
LINE
8
BLACK
10
51.7652
20
-21.082
11
51.7652
21
-23.114
0
LINE
8
BLACK
10
51.7652
20
-23.114
11
55.4228
21
-23.114
0
LINE
8
BLACK
10
55.4228
20
-23.114
11
55.4228
21
-21.082
0
LINE
8
BLACK
10
55.4228
20
-21.082
11
51.7652
21
-21.082
0
LINE
8
BLACK
10
53.086
20
-27.686
11
53.086
21
-29.718
0
LINE
8
BLACK
10
53.086
20
-29.718
11
54.102
21
-29.718
0
LINE
8
BLACK
10
54.102
20
-29.718
11
54.102
21
-27.686
0
LINE
8
BLACK
10
54.102
20
-27.686
11
53.086
21
-27.686
0
LINE
8
BLACK
10
55.372
20
-27.686
11
55.372
21
-29.718
0
LINE
8
BLACK
10
55.372
20
-29.718
11
56.388
21
-29.718
0
LINE
8
BLACK
10
56.388
20
-29.718
11
56.388
21
-27.686
0
LINE
8
BLACK
10
56.388
20
-27.686
11
55.372
21
-27.686
0
LINE
8
BLACK
10
50.8
20
-27.686
11
50.8
21
-29.718
0
LINE
8
BLACK
10
50.8
20
-29.718
11
51.816
21
-29.718
0
LINE
8
BLACK
10
51.816
20
-29.718
11
51.816
21
-27.686
0
LINE
8
BLACK
10
51.816
20
-27.686
11
50.8
21
-27.686
0
LINE
8
BLACK
10
22.6695
20
-26.4795
11
22.6695
21
-27.8765
0
LINE
8
BLACK
10
22.6695
20
-27.8765
11
24.0665
21
-27.8765
0
LINE
8
BLACK
10
24.0665
20
-27.8765
11
24.0665
21
-26.4795
0
LINE
8
BLACK
10
24.0665
20
-26.4795
11
22.6695
21
-26.4795
0
CIRCLE
8
BLACK
10
25.908
20
-27.178
40
0.6985
0
CIRCLE
8
BLACK
10
28.448
20
-27.178
40
0.6985
0
CIRCLE
8
BLACK
10
30.988
20
-27.178
40
0.6985
0
CIRCLE
8
BLACK
10
30.988
20
-19.558
40
0.6985
0
CIRCLE
8
BLACK
10
28.448
20
-19.558
40
0.6985
0
CIRCLE
8
BLACK
10
25.908
20
-19.558
40
0.6985
0
CIRCLE
8
BLACK
10
23.368
20
-19.558
40
0.6985
0
CIRCLE
8
BLACK
10
14
20
-55
40
3.175
0
CIRCLE
8
BLACK
10
55
20
-55
40
3.175
0
CIRCLE
8
BLACK
10
55
20
-14
40
3.175
0
CIRCLE
8
BLACK
10
14
20
-14
40
3.175
0
CIRCLE
8
BLACK
10
21.336
20
-35.814
40
0.6985
0
CIRCLE
8
BLACK
10
18.796
20
-35.814
40
0.6985
0
CIRCLE
8
BLACK
10
35.306
20
-20.574
40
0.6985
0
CIRCLE
8
BLACK
10
35.306
20
-18.034
40
0.6985
0
CIRCLE
8
BLACK
10
17.145
20
-21.59
40
0.6985
0
CIRCLE
8
BLACK
10
17.145
20
-24.13
40
0.6985
0
CIRCLE
8
BLACK
10
45.974
20
-14.224
40
2.4003
0
CIRCLE
8
BLACK
10
45.974
20
-20.32
40
2.4003
0
CIRCLE
8
BLACK
10
40.894
20
-16.51
40
2.4003
0
CIRCLE
8
BLACK
10
28.7376
20
-37.0332
40
0.7747
0
CIRCLE
8
BLACK
10
33.2384
20
-37.0332
40
0.7747
0
CIRCLE
8
BLACK
10
28.7376
20
-30.5308
40
0.7747
0
CIRCLE
8
BLACK
10
33.2384
20
-30.5308
40
0.7747
0
CIRCLE
8
BLACK
10
47.625
20
-26.416
40
0.762
0
CIRCLE
8
BLACK
10
36.195
20
-26.416
40
0.762
0
CIRCLE
8
BLACK
10
36.195
20
-30.226
40
0.762
0
CIRCLE
8
BLACK
10
47.625
20
-30.226
40
0.762
0
CIRCLE
8
BLACK
10
36.195
20
-34.036
40
0.762
0
CIRCLE
8
BLACK
10
47.625
20
-34.036
40
0.762
0
LINE
8
BLACK
10
42.926
20
-50.038
11
44.45
21
-50.038
0
LINE
8
BLACK
10
44.45
20
-50.038
11
44.45
21
-48.514
0
LINE
8
BLACK
10
44.45
20
-48.514
11
42.926
21
-48.514
0
LINE
8
BLACK
10
42.926
20
-48.514
11
42.926
21
-50.038
0
CIRCLE
8
BLACK
10
43.688
20
-46.736
40
0.762
0
LINE
8
BLACK
10
47.498
20
-50.038
11
49.022
21
-50.038
0
LINE
8
BLACK
10
49.022
20
-50.038
11
49.022
21
-48.514
0
LINE
8
BLACK
10
49.022
20
-48.514
11
47.498
21
-48.514
0
LINE
8
BLACK
10
47.498
20
-48.514
11
47.498
21
-50.038
0
CIRCLE
8
BLACK
10
48.26
20
-46.736
40
0.762
0
LINE
8
BLACK
10
36.576
20
-38.1
11
36.576
21
-39.624
0
LINE
8
BLACK
10
36.576
20
-39.624
11
38.1
21
-39.624
0
LINE
8
BLACK
10
38.1
20
-39.624
11
38.1
21
-38.1
0
LINE
8
BLACK
10
38.1
20
-38.1
11
36.576
21
-38.1
0
CIRCLE
8
BLACK
10
39.878
20
-38.862
40
0.762
0
CIRCLE
8
BLACK
10
55.88
20
-45.466
40
0.889
0
LINE
8
BLACK
10
54.991
20
-33.655
11
56.769
21
-33.655
0
LINE
8
BLACK
10
56.769
20
-33.655
11
56.769
21
-31.877
0
LINE
8
BLACK
10
56.769
20
-31.877
11
54.991
21
-31.877
0
LINE
8
BLACK
10
54.991
20
-31.877
11
54.991
21
-33.655
0
CIRCLE
8
BLACK
10
51.562
20
-45.466
40
0.889
0
LINE
8
BLACK
10
50.673
20
-33.655
11
52.451
21
-33.655
0
LINE
8
BLACK
10
52.451
20
-33.655
11
52.451
21
-31.877
0
LINE
8
BLACK
10
52.451
20
-31.877
11
50.673
21
-31.877
0
LINE
8
BLACK
10
50.673
20
-31.877
11
50.673
21
-33.655
0
LINE
8
BLACK
10
24.384
20
-14.732
11
24.384
21
-16.256
0
LINE
8
BLACK
10
24.384
20
-16.256
11
25.908
21
-16.256
0
LINE
8
BLACK
10
25.908
20
-16.256
11
25.908
21
-14.732
0
LINE
8
BLACK
10
25.908
20
-14.732
11
24.384
21
-14.732
0
CIRCLE
8
BLACK
10
25.146
20
-12.954
40
0.762
0
CIRCLE
8
BLACK
10
27.686
20
-15.494
40
0.762
0
CIRCLE
8
BLACK
10
27.686
20
-12.954
40
0.762
0
CIRCLE
8
BLACK
10
30.226
20
-15.494
40
0.762
0
CIRCLE
8
BLACK
10
30.226
20
-12.954
40
0.762
0
LINE
8
BLACK
10
43.7515
20
-38.4175
11
43.7515
21
-39.8145
0
LINE
8
BLACK
10
43.7515
20
-39.8145
11
45.1485
21
-39.8145
0
LINE
8
BLACK
10
45.1485
20
-39.8145
11
45.1485
21
-38.4175
0
LINE
8
BLACK
10
45.1485
20
-38.4175
11
43.7515
21
-38.4175
0
CIRCLE
8
BLACK
10
46.99
20
-39.116
40
0.6985
0
CIRCLE
8
BLACK
10
14.351
20
-32.004
40
0.762
0
CIRCLE
8
BLACK
10
25.781
20
-32.004
40
0.762
0
LINE
8
BLACK
10
25.682
20
-47.282
11
25.682
21
-45.682
0
LINE
8
BLACK
10
25.682
20
-45.682
11
24.082
21
-45.682
0
LINE
8
BLACK
10
24.082
20
-45.682
11
24.082
21
-47.282
0
LINE
8
BLACK
10
24.082
20
-47.282
11
25.682
21
-47.282
0
CIRCLE
8
BLACK
10
17.282
20
-46.482
40
0.8
0
CIRCLE
8
BLACK
10
31.496
20
-40.513
40
0.762
0
CIRCLE
8
BLACK
10
31.496
20
-51.943
40
0.762
0
CIRCLE
8
BLACK
10
35.814
20
-47.244
40
0.8382
0
CIRCLE
8
BLACK
10
38.354
20
-47.244
40
0.8382
0
CIRCLE
8
BLACK
10
26.67
20
-35.56
40
0.4445
0
LINE
8
BLACK
10
25.1995
20
-46.482
11
25.1995
21
-37.348
0
LINE
8
BLACK
10
24.5645
20
-46.482
11
24.5645
21
-37.348
0
ARC
8
BLACK
10
24.882
20
-37.348
40
0.3175
50
360
51
540
0
ARC
8
BLACK
10
24.882
20
-46.482
40
0.3175
50
180
51
360
0
LINE
8
BLACK
10
25.1065
20
-37.5725
11
26.8945
21
-35.7845
0
LINE
8
BLACK
10
24.6575
20
-37.1235
11
26.4455
21
-35.3355
0
ARC
8
BLACK
10
26.67
20
-35.56
40
0.3175
50
315
51
495
0
ARC
8
BLACK
10
24.882
20
-37.348
40
0.3175
50
135
51
315
0
LINE
8
BLACK
10
24.9538
20
-37.4198
11
26.7418
21
-35.6318
0
LINE
8
BLACK
10
24.8102
20
-37.2762
11
26.5982
21
-35.4882
0
ARC
8
BLACK
10
26.67
20
-35.56
40
0.1016
50
315
51
495
0
ARC
8
BLACK
10
24.882
20
-37.348
40
0.1016
50
135
51
315
0
LINE
8
BLACK
10
27.6142
20
-13.0258
11
28.8842
21
-14.2958
0
LINE
8
BLACK
10
27.7578
20
-12.8822
11
29.0278
21
-14.1522
0
ARC
8
BLACK
10
28.956
20
-14.224
40
0.1016
50
225
51
405
0
ARC
8
BLACK
10
27.686
20
-12.954
40
0.1016
50
45
51
225
0
LINE
8
BLACK
10
30.1542
20
-18.8678
11
30.9162
21
-19.6298
0
LINE
8
BLACK
10
30.2978
20
-18.7242
11
31.0598
21
-19.4862
0
ARC
8
BLACK
10
30.988
20
-19.558
40
0.1016
50
225
51
405
0
ARC
8
BLACK
10
30.226
20
-18.796
40
0.1016
50
45
51
225
0
LINE
8
BLACK
10
30.3276
20
-18.796
11
30.3276
21
-17.78
0
LINE
8
BLACK
10
30.1244
20
-18.796
11
30.1244
21
-17.78
0
ARC
8
BLACK
10
30.226
20
-17.78
40
0.1016
50
360
51
540
0
ARC
8
BLACK
10
30.226
20
-18.796
40
0.1016
50
180
51
360
0
LINE
8
BLACK
10
28.8842
20
-16.5818
11
30.1542
21
-17.8518
0
LINE
8
BLACK
10
29.0278
20
-16.4382
11
30.2978
21
-17.7082
0
ARC
8
BLACK
10
30.226
20
-17.78
40
0.1016
50
225
51
405
0
ARC
8
BLACK
10
28.956
20
-16.51
40
0.1016
50
45
51
225
0
LINE
8
BLACK
10
29.0576
20
-16.51
11
29.0576
21
-14.224
0
LINE
8
BLACK
10
28.8544
20
-16.51
11
28.8544
21
-14.224
0
ARC
8
BLACK
10
28.956
20
-14.224
40
0.1016
50
360
51
540
0
ARC
8
BLACK
10
28.956
20
-16.51
40
0.1016
50
180
51
360
0
LINE
8
BLACK
10
26.2255
20
-19.558
11
26.2255
21
-18.796
0
LINE
8
BLACK
10
25.5905
20
-19.558
11
25.5905
21
-18.796
0
ARC
8
BLACK
10
25.908
20
-18.796
40
0.3175
50
360
51
540
0
ARC
8
BLACK
10
25.908
20
-19.558
40
0.3175
50
180
51
360
0
LINE
8
BLACK
10
26.1325
20
-19.0205
11
27.9105
21
-17.2425
0
LINE
8
BLACK
10
25.6835
20
-18.5715
11
27.4615
21
-16.7935
0
ARC
8
BLACK
10
27.686
20
-17.018
40
0.3175
50
315
51
495
0
ARC
8
BLACK
10
25.908
20
-18.796
40
0.3175
50
135
51
315
0
LINE
8
BLACK
10
28.0035
20
-17.018
11
28.0035
21
-15.494
0
LINE
8
BLACK
10
27.3685
20
-17.018
11
27.3685
21
-15.494
0
ARC
8
BLACK
10
27.686
20
-15.494
40
0.3175
50
360
51
540
0
ARC
8
BLACK
10
27.686
20
-17.018
40
0.3175
50
180
51
360
0
LINE
8
BLACK
10
27.7876
20
-17.018
11
27.7876
21
-15.494
0
LINE
8
BLACK
10
27.5844
20
-17.018
11
27.5844
21
-15.494
0
ARC
8
BLACK
10
27.686
20
-15.494
40
0.1016
50
360
51
540
0
ARC
8
BLACK
10
27.686
20
-17.018
40
0.1016
50
180
51
360
0
LINE
8
BLACK
10
25.9798
20
-18.8678
11
27.7578
21
-17.0898
0
LINE
8
BLACK
10
25.8362
20
-18.7242
11
27.6142
21
-16.9462
0
ARC
8
BLACK
10
27.686
20
-17.018
40
0.1016
50
315
51
495
0
ARC
8
BLACK
10
25.908
20
-18.796
40
0.1016
50
135
51
315
0
LINE
8
BLACK
10
25.6835
20
-27.4025
11
27.2075
21
-28.9265
0
LINE
8
BLACK
10
26.1325
20
-26.9535
11
27.6565
21
-28.4775
0
ARC
8
BLACK
10
27.432
20
-28.702
40
0.3175
50
225
51
405
0
ARC
8
BLACK
10
25.908
20
-27.178
40
0.3175
50
45
51
225
0
LINE
8
BLACK
10
33.5559
20
-30.5308
11
33.5559
21
-30.4444
0
LINE
8
BLACK
10
32.9209
20
-30.5308
11
32.9209
21
-30.4444
0
ARC
8
BLACK
10
33.2384
20
-30.4444
40
0.3175
50
360
51
540
0
ARC
8
BLACK
10
33.2384
20
-30.5308
40
0.3175
50
180
51
360
0
LINE
8
BLACK
10
31.2715
20
-28.9265
11
33.0139
21
-30.6689
0
LINE
8
BLACK
10
31.7205
20
-28.4775
11
33.4629
21
-30.2199
0
ARC
8
BLACK
10
33.2384
20
-30.4444
40
0.3175
50
225
51
405
0
ARC
8
BLACK
10
31.496
20
-28.702
40
0.3175
50
45
51
225
0
LINE
8
BLACK
10
27.432
20
-29.0195
11
31.496
21
-29.0195
0
LINE
8
BLACK
10
27.432
20
-28.3845
11
31.496
21
-28.3845
0
ARC
8
BLACK
10
31.496
20
-28.702
40
0.3175
50
270
51
450
0
ARC
8
BLACK
10
27.432
20
-28.702
40
0.3175
50
90
51
270
0
LINE
8
BLACK
10
36.5125
20
-34.036
11
36.5125
21
-33.4874
0
LINE
8
BLACK
10
35.8775
20
-34.036
11
35.8775
21
-33.4874
0
ARC
8
BLACK
10
36.195
20
-33.4874
40
0.3175
50
360
51
540
0
ARC
8
BLACK
10
36.195
20
-34.036
40
0.3175
50
180
51
360
0
LINE
8
BLACK
10
36.4195
20
-33.2629
11
33.4629
21
-30.3063
0
LINE
8
BLACK
10
35.9705
20
-33.7119
11
33.0139
21
-30.7553
0
ARC
8
BLACK
10
33.2384
20
-30.5308
40
0.3175
50
405
51
585
0
ARC
8
BLACK
10
36.195
20
-33.4874
40
0.3175
50
225
51
405
0
LINE
8
BLACK
10
33.5559
20
-37.0332
11
33.5559
21
-30.5308
0
LINE
8
BLACK
10
32.9209
20
-37.0332
11
32.9209
21
-30.5308
0
ARC
8
BLACK
10
33.2384
20
-30.5308
40
0.3175
50
360
51
540
0
ARC
8
BLACK
10
33.2384
20
-37.0332
40
0.3175
50
180
51
360
0
LINE
8
BLACK
10
28.7655
20
-27.178
11
28.7655
21
-27.051
0
LINE
8
BLACK
10
28.1305
20
-27.178
11
28.1305
21
-27.051
0
ARC
8
BLACK
10
28.448
20
-27.051
40
0.3175
50
360
51
540
0
ARC
8
BLACK
10
28.448
20
-27.178
40
0.3175
50
180
51
360
0
LINE
8
BLACK
10
35.2085
20
-25.8785
11
35.9705
21
-26.6405
0
LINE
8
BLACK
10
35.6575
20
-25.4295
11
36.4195
21
-26.1915
0
ARC
8
BLACK
10
36.195
20
-26.416
40
0.3175
50
225
51
405
0
ARC
8
BLACK
10
35.433
20
-25.654
40
0.3175
50
45
51
225
0
LINE
8
BLACK
10
29.845
20
-25.9715
11
35.433
21
-25.9715
0
LINE
8
BLACK
10
29.845
20
-25.3365
11
35.433
21
-25.3365
0
ARC
8
BLACK
10
35.433
20
-25.654
40
0.3175
50
270
51
450
0
ARC
8
BLACK
10
29.845
20
-25.654
40
0.3175
50
90
51
270
0
LINE
8
BLACK
10
28.6725
20
-27.2755
11
30.0695
21
-25.8785
0
LINE
8
BLACK
10
28.2235
20
-26.8265
11
29.6205
21
-25.4295
0
ARC
8
BLACK
10
29.845
20
-25.654
40
0.3175
50
315
51
495
0
ARC
8
BLACK
10
28.448
20
-27.051
40
0.3175
50
135
51
315
0
LINE
8
BLACK
10
21.336
20
-35.9156
11
21.971
21
-35.9156
0
LINE
8
BLACK
10
21.336
20
-35.7124
11
21.971
21
-35.7124
0
ARC
8
BLACK
10
21.971
20
-35.814
40
0.1016
50
270
51
450
0
ARC
8
BLACK
10
21.336
20
-35.814
40
0.1016
50
90
51
270
0
LINE
8
BLACK
10
22.0428
20
-35.8858
11
25.8528
21
-32.0758
0
LINE
8
BLACK
10
21.8992
20
-35.7422
11
25.7092
21
-31.9322
0
ARC
8
BLACK
10
25.781
20
-32.004
40
0.1016
50
315
51
495
0
ARC
8
BLACK
10
21.971
20
-35.814
40
0.1016
50
135
51
315
0
LINE
8
BLACK
10
35.306
20
-20.8915
11
45.72
21
-20.8915
0
LINE
8
BLACK
10
35.306
20
-20.2565
11
45.72
21
-20.2565
0
ARC
8
BLACK
10
45.72
20
-20.574
40
0.3175
50
270
51
450
0
ARC
8
BLACK
10
35.306
20
-20.574
40
0.3175
50
90
51
270
0
LINE
8
BLACK
10
45.9445
20
-20.7985
11
46.1985
21
-20.5445
0
LINE
8
BLACK
10
45.4955
20
-20.3495
11
45.7495
21
-20.0955
0
ARC
8
BLACK
10
45.974
20
-20.32
40
0.3175
50
315
51
495
0
ARC
8
BLACK
10
45.72
20
-20.574
40
0.3175
50
135
51
315
0
LINE
8
BLACK
10
45.9445
20
-20.7985
11
46.1985
21
-20.5445
0
LINE
8
BLACK
10
45.4955
20
-20.3495
11
45.7495
21
-20.0955
0
ARC
8
BLACK
10
45.974
20
-20.32
40
0.3175
50
315
51
495
0
ARC
8
BLACK
10
45.72
20
-20.574
40
0.3175
50
135
51
315
0
LINE
8
BLACK
10
49.149
20
-29.0195
11
51.308
21
-29.0195
0
LINE
8
BLACK
10
49.149
20
-28.3845
11
51.308
21
-28.3845
0
ARC
8
BLACK
10
51.308
20
-28.702
40
0.3175
50
270
51
450
0
ARC
8
BLACK
10
49.149
20
-28.702
40
0.3175
50
90
51
270
0
LINE
8
BLACK
10
48.9245
20
-28.4775
11
47.4005
21
-30.0015
0
LINE
8
BLACK
10
49.3735
20
-28.9265
11
47.8495
21
-30.4505
0
ARC
8
BLACK
10
47.625
20
-30.226
40
0.3175
50
135
51
315
0
ARC
8
BLACK
10
49.149
20
-28.702
40
0.3175
50
-45
51
135
0
LINE
8
BLACK
10
51.562
20
-33.0835
11
55.88
21
-33.0835
0
LINE
8
BLACK
10
51.562
20
-32.4485
11
55.88
21
-32.4485
0
ARC
8
BLACK
10
55.88
20
-32.766
40
0.3175
50
270
51
450
0
ARC
8
BLACK
10
51.562
20
-32.766
40
0.3175
50
90
51
270
0
LINE
8
BLACK
10
56.1975
20
-32.766
11
56.1975
21
-28.702
0
LINE
8
BLACK
10
55.5625
20
-32.766
11
55.5625
21
-28.702
0
ARC
8
BLACK
10
55.88
20
-28.702
40
0.3175
50
360
51
540
0
ARC
8
BLACK
10
55.88
20
-32.766
40
0.3175
50
180
51
360
0
LINE
8
BLACK
10
31.8135
20
-51.943
11
31.8135
21
-51.562
0
LINE
8
BLACK
10
31.1785
20
-51.943
11
31.1785
21
-51.562
0
ARC
8
BLACK
10
31.496
20
-51.562
40
0.3175
50
360
51
540
0
ARC
8
BLACK
10
31.496
20
-51.943
40
0.3175
50
180
51
360
0
LINE
8
BLACK
10
31.7205
20
-51.7865
11
36.0385
21
-47.4685
0
LINE
8
BLACK
10
31.2715
20
-51.3375
11
35.5895
21
-47.0195
0
ARC
8
BLACK
10
35.814
20
-47.244
40
0.3175
50
315
51
495
0
ARC
8
BLACK
10
31.496
20
-51.562
40
0.3175
50
135
51
315
0
LINE
8
BLACK
10
43.688
20
-49.5935
11
48.26
21
-49.5935
0
LINE
8
BLACK
10
43.688
20
-48.9585
11
48.26
21
-48.9585
0
ARC
8
BLACK
10
48.26
20
-49.276
40
0.3175
50
270
51
450
0
ARC
8
BLACK
10
43.688
20
-49.276
40
0.3175
50
90
51
270
0
LINE
8
BLACK
10
48.26
20
-47.0535
11
50.292
21
-47.0535
0
LINE
8
BLACK
10
48.26
20
-46.4185
11
50.292
21
-46.4185
0
ARC
8
BLACK
10
50.292
20
-46.736
40
0.3175
50
270
51
450
0
ARC
8
BLACK
10
48.26
20
-46.736
40
0.3175
50
90
51
270
0
LINE
8
BLACK
10
50.5165
20
-46.9605
11
51.7865
21
-45.6905
0
LINE
8
BLACK
10
50.0675
20
-46.5115
11
51.3375
21
-45.2415
0
ARC
8
BLACK
10
51.562
20
-45.466
40
0.3175
50
315
51
495
0
ARC
8
BLACK
10
50.292
20
-46.736
40
0.3175
50
135
51
315
0
LINE
8
BLACK
10
58.1745
20
-52.7872
11
57.4043
21
-52.0156
0
LINE
8
BLACK
10
57.4043
20
-52.0156
11
57.4043
21
-45.1642
0
LINE
8
BLACK
10
57.4043
20
-45.1642
11
57.4041
21
-45.1638
0
LINE
8
BLACK
10
57.4041
20
-45.1638
11
57.4041
21
-33.5292
0
LINE
8
BLACK
10
57.4041
20
-33.5292
11
57.4041
21
-31.7512
0
LINE
8
BLACK
10
57.4041
20
-31.7512
11
57.3076
21
-31.5178
0
LINE
8
BLACK
10
57.3076
20
-31.5178
11
57.1292
21
-31.339
0
LINE
8
BLACK
10
57.1292
20
-31.339
11
56.8959
21
-31.2421
0
LINE
8
BLACK
10
56.8959
20
-31.2421
11
56.8325
21
-31.2421
0
LINE
8
BLACK
10
56.8325
20
-31.2421
11
56.8325
21
-30.1715
0
LINE
8
BLACK
10
56.8325
20
-30.1715
11
56.926
21
-30.0782
0
LINE
8
BLACK
10
56.926
20
-30.0782
11
57.0229
21
-29.8449
0
LINE
8
BLACK
10
57.0229
20
-29.8449
11
57.0231
21
-29.5922
0
LINE
8
BLACK
10
57.0231
20
-29.5922
11
57.0231
21
-27.5602
0
LINE
8
BLACK
10
57.0231
20
-27.5602
11
56.9266
21
-27.3268
0
LINE
8
BLACK
10
56.9266
20
-27.3268
11
56.7482
21
-27.148
0
LINE
8
BLACK
10
56.7482
20
-27.148
11
56.5149
21
-27.0511
0
LINE
8
BLACK
10
56.5149
20
-27.0511
11
56.2622
21
-27.0509
0
LINE
8
BLACK
10
56.2622
20
-27.0509
11
56.0579
21
-27.0509
0
LINE
8
BLACK
10
56.0579
20
-27.0509
11
56.0579
21
-22.9882
0
LINE
8
BLACK
10
56.0579
20
-22.9882
11
56.0579
21
-21.2078
0
LINE
8
BLACK
10
56.0579
20
-21.2078
11
56.0577
21
-20.9551
0
LINE
8
BLACK
10
56.0577
20
-20.9551
11
55.9608
21
-20.7218
0
LINE
8
BLACK
10
55.9608
20
-20.7218
11
55.782
21
-20.5434
0
LINE
8
BLACK
10
55.782
20
-20.5434
11
55.5486
21
-20.4469
0
LINE
8
BLACK
10
55.5486
20
-20.4469
11
53.8798
21
-20.447
0
LINE
8
BLACK
10
53.8798
20
-20.447
11
53.721
21
-20.6058
0
LINE
8
BLACK
10
53.721
20
-20.6058
11
53.721
21
-21.971
0
LINE
8
BLACK
10
53.721
20
-21.971
11
55.8991
21
-21.971
0
LINE
8
BLACK
10
55.8991
20
-21.971
11
56.0578
21
-21.8123
0
LINE
8
BLACK
10
56.0578
20
-21.8123
11
56.0579
21
-21.2078
0
LINE
8
BLACK
10
56.0579
20
-21.2078
11
56.0579
21
-22.9882
0
LINE
8
BLACK
10
56.0579
20
-22.9882
11
56.0578
21
-22.3838
0
LINE
8
BLACK
10
56.0578
20
-22.3838
11
55.8991
21
-22.225
0
LINE
8
BLACK
10
55.8991
20
-22.225
11
53.721
21
-22.225
0
LINE
8
BLACK
10
53.721
20
-22.225
11
53.721
21
-23.5903
0
LINE
8
BLACK
10
53.721
20
-23.5903
11
53.8798
21
-23.749
0
LINE
8
BLACK
10
53.8798
20
-23.749
11
55.5486
21
-23.7491
0
LINE
8
BLACK
10
55.5486
20
-23.7491
11
55.782
21
-23.6526
0
LINE
8
BLACK
10
55.782
20
-23.6526
11
55.9608
21
-23.4742
0
LINE
8
BLACK
10
55.9608
20
-23.4742
11
56.0577
21
-23.2409
0
LINE
8
BLACK
10
56.0577
20
-23.2409
11
56.0579
21
-22.9882
0
LINE
8
BLACK
10
56.0579
20
-22.9882
11
56.0579
21
-27.0509
0
LINE
8
BLACK
10
56.0579
20
-27.0509
11
55.2462
21
-27.0509
0
LINE
8
BLACK
10
55.2462
20
-27.0509
11
55.0128
21
-27.1474
0
LINE
8
BLACK
10
55.0128
20
-27.1474
11
54.834
21
-27.3258
0
LINE
8
BLACK
10
54.834
20
-27.3258
11
54.7371
21
-27.5591
0
LINE
8
BLACK
10
54.7371
20
-27.5591
11
54.737
21
-27.686
0
LINE
8
BLACK
10
54.737
20
-27.686
11
54.7369
21
-27.5591
0
LINE
8
BLACK
10
54.7369
20
-27.5591
11
54.64
21
-27.3258
0
LINE
8
BLACK
10
54.64
20
-27.3258
11
54.4612
21
-27.1474
0
LINE
8
BLACK
10
54.4612
20
-27.1474
11
54.2278
21
-27.0509
0
LINE
8
BLACK
10
54.2278
20
-27.0509
11
53.8798
21
-27.051
0
LINE
8
BLACK
10
53.8798
20
-27.051
11
53.721
21
-27.2098
0
LINE
8
BLACK
10
53.721
20
-27.2098
11
53.721
21
-28.575
0
LINE
8
BLACK
10
53.721
20
-28.575
11
53.741
21
-28.575
0
LINE
8
BLACK
10
53.741
20
-28.575
11
53.741
21
-28.829
0
LINE
8
BLACK
10
53.741
20
-28.829
11
53.721
21
-28.829
0
LINE
8
BLACK
10
53.721
20
-28.829
11
53.721
21
-30.1943
0
LINE
8
BLACK
10
53.721
20
-30.1943
11
53.8798
21
-30.353
0
LINE
8
BLACK
10
53.8798
20
-30.353
11
54.2278
21
-30.3531
0
LINE
8
BLACK
10
54.2278
20
-30.3531
11
54.4612
21
-30.2566
0
LINE
8
BLACK
10
54.4612
20
-30.2566
11
54.64
21
-30.0782
0
LINE
8
BLACK
10
54.64
20
-30.0782
11
54.7369
21
-29.8449
0
LINE
8
BLACK
10
54.7369
20
-29.8449
11
54.7369
21
-29.8437
0
LINE
8
BLACK
10
54.7369
20
-29.8437
11
54.7369
21
-29.8438
0
LINE
8
BLACK
10
54.7369
20
-29.8438
11
54.8334
21
-30.0772
0
LINE
8
BLACK
10
54.8334
20
-30.0772
11
54.9275
21
-30.1715
0
LINE
8
BLACK
10
54.9275
20
-30.1715
11
54.9275
21
-31.2419
0
LINE
8
BLACK
10
54.9275
20
-31.2419
11
54.8652
21
-31.2419
0
LINE
8
BLACK
10
54.8652
20
-31.2419
11
54.6318
21
-31.3384
0
LINE
8
BLACK
10
54.6318
20
-31.3384
11
54.453
21
-31.5168
0
LINE
8
BLACK
10
54.453
20
-31.5168
11
54.3561
21
-31.7501
0
LINE
8
BLACK
10
54.3561
20
-31.7501
11
54.3561
21
-31.8135
0
LINE
8
BLACK
10
54.3561
20
-31.8135
11
53.467
21
-31.8135
0
LINE
8
BLACK
10
53.467
20
-31.8135
11
53.467
21
-30.1943
0
LINE
8
BLACK
10
53.467
20
-30.1943
11
53.467
21
-28.829
0
LINE
8
BLACK
10
53.467
20
-28.829
11
53.447
21
-28.829
0
LINE
8
BLACK
10
53.447
20
-28.829
11
53.447
21
-28.575
0
LINE
8
BLACK
10
53.447
20
-28.575
11
53.467
21
-28.575
0
LINE
8
BLACK
10
53.467
20
-28.575
11
53.467
21
-27.2098
0
LINE
8
BLACK
10
53.467
20
-27.2098
11
53.467
21
-23.5903
0
LINE
8
BLACK
10
53.467
20
-23.5903
11
53.467
21
-22.225
0
LINE
8
BLACK
10
53.467
20
-22.225
11
53.467
21
-21.971
0
LINE
8
BLACK
10
53.467
20
-21.971
11
53.467
21
-20.6058
0
LINE
8
BLACK
10
53.467
20
-20.6058
11
53.3083
21
-20.447
0
LINE
8
BLACK
10
53.3083
20
-20.447
11
51.6394
21
-20.4469
0
LINE
8
BLACK
10
51.6394
20
-20.4469
11
51.406
21
-20.5434
0
LINE
8
BLACK
10
51.406
20
-20.5434
11
51.2272
21
-20.7218
0
LINE
8
BLACK
10
51.2272
20
-20.7218
11
51.1303
21
-20.9551
0
LINE
8
BLACK
10
51.1303
20
-20.9551
11
51.1301
21
-21.2078
0
LINE
8
BLACK
10
51.1301
20
-21.2078
11
51.1302
21
-21.8123
0
LINE
8
BLACK
10
51.1302
20
-21.8123
11
51.289
21
-21.971
0
LINE
8
BLACK
10
51.289
20
-21.971
11
53.467
21
-21.971
0
LINE
8
BLACK
10
53.467
20
-21.971
11
53.467
21
-22.225
0
LINE
8
BLACK
10
53.467
20
-22.225
11
51.289
21
-22.225
0
LINE
8
BLACK
10
51.289
20
-22.225
11
51.1302
21
-22.3838
0
LINE
8
BLACK
10
51.1302
20
-22.3838
11
51.1301
21
-22.9882
0
LINE
8
BLACK
10
51.1301
20
-22.9882
11
51.1303
21
-23.2409
0
LINE
8
BLACK
10
51.1303
20
-23.2409
11
51.2272
21
-23.4742
0
LINE
8
BLACK
10
51.2272
20
-23.4742
11
51.406
21
-23.6526
0
LINE
8
BLACK
10
51.406
20
-23.6526
11
51.6394
21
-23.7491
0
LINE
8
BLACK
10
51.6394
20
-23.7491
11
53.3083
21
-23.749
0
LINE
8
BLACK
10
53.3083
20
-23.749
11
53.467
21
-23.5903
0
LINE
8
BLACK
10
53.467
20
-23.5903
11
53.467
21
-27.2098
0
LINE
8
BLACK
10
53.467
20
-27.2098
11
53.3083
21
-27.051
0
LINE
8
BLACK
10
53.3083
20
-27.051
11
52.9602
21
-27.0509
0
LINE
8
BLACK
10
52.9602
20
-27.0509
11
52.7268
21
-27.1474
0
LINE
8
BLACK
10
52.7268
20
-27.1474
11
52.548
21
-27.3258
0
LINE
8
BLACK
10
52.548
20
-27.3258
11
52.4511
21
-27.5591
0
LINE
8
BLACK
10
52.4511
20
-27.5591
11
52.4511
21
-27.5602
0
LINE
8
BLACK
10
52.4511
20
-27.5602
11
52.3546
21
-27.3268
0
LINE
8
BLACK
10
52.3546
20
-27.3268
11
52.1762
21
-27.148
0
LINE
8
BLACK
10
52.1762
20
-27.148
11
51.9429
21
-27.0511
0
LINE
8
BLACK
10
51.9429
20
-27.0511
11
51.6902
21
-27.0509
0
LINE
8
BLACK
10
51.6902
20
-27.0509
11
50.6742
21
-27.0509
0
LINE
8
BLACK
10
50.6742
20
-27.0509
11
50.4408
21
-27.1474
0
LINE
8
BLACK
10
50.4408
20
-27.1474
11
50.262
21
-27.3258
0
LINE
8
BLACK
10
50.262
20
-27.3258
11
50.1651
21
-27.5591
0
LINE
8
BLACK
10
50.1651
20
-27.5591
11
50.1649
21
-27.7495
0
LINE
8
BLACK
10
50.1649
20
-27.7495
11
49.149
21
-27.7495
0
LINE
8
BLACK
10
49.149
20
-27.7495
11
49.0222
21
-27.7747
0
LINE
8
BLACK
10
49.0222
20
-27.7747
11
49.0222
21
-26.1393
0
LINE
8
BLACK
10
49.0222
20
-26.1393
11
49.0098
21
-26.1093
0
LINE
8
BLACK
10
49.0098
20
-26.1093
11
49.0098
21
-19.7189
0
LINE
8
BLACK
10
49.0098
20
-19.7189
11
49.0098
21
-13.6229
0
LINE
8
BLACK
10
49.0098
20
-13.6229
11
48.5487
21
-12.5069
0
LINE
8
BLACK
10
48.5487
20
-12.5069
11
47.6956
21
-11.6523
0
LINE
8
BLACK
10
47.6956
20
-11.6523
11
46.5804
21
-11.1892
0
LINE
8
BLACK
10
46.5804
20
-11.1892
11
45.3729
21
-11.1882
0
LINE
8
BLACK
10
45.3729
20
-11.1882
11
44.2569
21
-11.6493
0
LINE
8
BLACK
10
44.2569
20
-11.6493
11
43.4023
21
-12.5024
0
LINE
8
BLACK
10
43.4023
20
-12.5024
11
42.9392
21
-13.6176
0
LINE
8
BLACK
10
42.9392
20
-13.6176
11
42.9387
21
-14.2619
0
LINE
8
BLACK
10
42.9387
20
-14.2619
11
42.6156
21
-13.9383
0
LINE
8
BLACK
10
42.6156
20
-13.9383
11
41.5004
21
-13.4752
0
LINE
8
BLACK
10
41.5004
20
-13.4752
11
40.2929
21
-13.4742
0
LINE
8
BLACK
10
40.2929
20
-13.4742
11
39.1769
21
-13.9353
0
LINE
8
BLACK
10
39.1769
20
-13.9353
11
38.3223
21
-14.7884
0
LINE
8
BLACK
10
38.3223
20
-14.7884
11
37.8592
21
-15.9036
0
LINE
8
BLACK
10
37.8592
20
-15.9036
11
37.8582
21
-17.1111
0
LINE
8
BLACK
10
37.8582
20
-17.1111
11
38.3193
21
-18.2271
0
LINE
8
BLACK
10
38.3193
20
-18.2271
11
39.1724
21
-19.0817
0
LINE
8
BLACK
10
39.1724
20
-19.0817
11
40.2876
21
-19.5448
0
LINE
8
BLACK
10
40.2876
20
-19.5448
11
41.4951
21
-19.5458
0
LINE
8
BLACK
10
41.4951
20
-19.5458
11
42.6111
21
-19.0847
0
LINE
8
BLACK
10
42.6111
20
-19.0847
11
43.4657
21
-18.2316
0
LINE
8
BLACK
10
43.4657
20
-18.2316
11
43.9288
21
-17.1164
0
LINE
8
BLACK
10
43.9288
20
-17.1164
11
43.9293
21
-16.4721
0
LINE
8
BLACK
10
43.9293
20
-16.4721
11
44.2524
21
-16.7957
0
LINE
8
BLACK
10
44.2524
20
-16.7957
11
45.3676
21
-17.2588
0
LINE
8
BLACK
10
45.3676
20
-17.2588
11
46.5751
21
-17.2598
0
LINE
8
BLACK
10
46.5751
20
-17.2598
11
47.6911
21
-16.7987
0
LINE
8
BLACK
10
47.6911
20
-16.7987
11
48.5457
21
-15.9456
0
LINE
8
BLACK
10
48.5457
20
-15.9456
11
49.0088
21
-14.8304
0
LINE
8
BLACK
10
49.0088
20
-14.8304
11
49.0098
21
-13.6229
0
LINE
8
BLACK
10
49.0098
20
-13.6229
11
49.0098
21
-19.7189
0
LINE
8
BLACK
10
49.0098
20
-19.7189
11
48.5487
21
-18.6029
0
LINE
8
BLACK
10
48.5487
20
-18.6029
11
47.6956
21
-17.7483
0
LINE
8
BLACK
10
47.6956
20
-17.7483
11
46.5804
21
-17.2852
0
LINE
8
BLACK
10
46.5804
20
-17.2852
11
45.3729
21
-17.2842
0
LINE
8
BLACK
10
45.3729
20
-17.2842
11
44.2569
21
-17.7453
0
LINE
8
BLACK
10
44.2569
20
-17.7453
11
43.4023
21
-18.5984
0
LINE
8
BLACK
10
43.4023
20
-18.5984
11
42.9775
21
-19.6215
0
LINE
8
BLACK
10
42.9775
20
-19.6215
11
36.2394
21
-19.6215
0
LINE
8
BLACK
10
36.2394
20
-19.6215
11
36.0624
21
-19.4442
0
LINE
8
BLACK
10
36.0624
20
-19.4442
11
35.7246
21
-19.3039
0
LINE
8
BLACK
10
35.7246
20
-19.3039
11
36.0604
21
-19.1651
0
LINE
8
BLACK
10
36.0604
20
-19.1651
11
36.4358
21
-18.7904
0
LINE
8
BLACK
10
36.4358
20
-18.7904
11
36.6393
21
-18.3004
0
LINE
8
BLACK
10
36.6393
20
-18.3004
11
36.6397
21
-17.7699
0
LINE
8
BLACK
10
36.6397
20
-17.7699
11
36.4371
21
-17.2796
0
LINE
8
BLACK
10
36.4371
20
-17.2796
11
36.0624
21
-16.9042
0
LINE
8
BLACK
10
36.0624
20
-16.9042
11
35.5724
21
-16.7007
0
LINE
8
BLACK
10
35.5724
20
-16.7007
11
35.0419
21
-16.7003
0
LINE
8
BLACK
10
35.0419
20
-16.7003
11
34.5516
21
-16.9029
0
LINE
8
BLACK
10
34.5516
20
-16.9029
11
34.1762
21
-17.2776
0
LINE
8
BLACK
10
34.1762
20
-17.2776
11
33.9727
21
-17.7676
0
LINE
8
BLACK
10
33.9727
20
-17.7676
11
33.9723
21
-18.2981
0
LINE
8
BLACK
10
33.9723
20
-18.2981
11
34.1749
21
-18.7884
0
LINE
8
BLACK
10
34.1749
20
-18.7884
11
34.5496
21
-19.1638
0
LINE
8
BLACK
10
34.5496
20
-19.1638
11
34.8874
21
-19.3041
0
LINE
8
BLACK
10
34.8874
20
-19.3041
11
34.5516
21
-19.4429
0
LINE
8
BLACK
10
34.5516
20
-19.4429
11
34.1762
21
-19.8176
0
LINE
8
BLACK
10
34.1762
20
-19.8176
11
33.9727
21
-20.3076
0
LINE
8
BLACK
10
33.9727
20
-20.3076
11
33.9723
21
-20.8381
0
LINE
8
BLACK
10
33.9723
20
-20.8381
11
34.1749
21
-21.3284
0
LINE
8
BLACK
10
34.1749
20
-21.3284
11
34.5496
21
-21.7038
0
LINE
8
BLACK
10
34.5496
20
-21.7038
11
35.0396
21
-21.9073
0
LINE
8
BLACK
10
35.0396
20
-21.9073
11
35.5701
21
-21.9077
0
LINE
8
BLACK
10
35.5701
20
-21.9077
11
36.0604
21
-21.7051
0
LINE
8
BLACK
10
36.0604
20
-21.7051
11
36.2393
21
-21.5265
0
LINE
8
BLACK
10
36.2393
20
-21.5265
11
43.1883
21
-21.5265
0
LINE
8
BLACK
10
43.1883
20
-21.5265
11
43.3993
21
-22.0371
0
LINE
8
BLACK
10
43.3993
20
-22.0371
11
44.2524
21
-22.8917
0
LINE
8
BLACK
10
44.2524
20
-22.8917
11
45.3676
21
-23.3548
0
LINE
8
BLACK
10
45.3676
20
-23.3548
11
46.5751
21
-23.3558
0
LINE
8
BLACK
10
46.5751
20
-23.3558
11
47.6911
21
-22.8947
0
LINE
8
BLACK
10
47.6911
20
-22.8947
11
48.5457
21
-22.0416
0
LINE
8
BLACK
10
48.5457
20
-22.0416
11
49.0088
21
-20.9264
0
LINE
8
BLACK
10
49.0088
20
-20.9264
11
49.0098
21
-19.7189
0
LINE
8
BLACK
10
49.0098
20
-19.7189
11
49.0098
21
-26.1093
0
LINE
8
BLACK
10
49.0098
20
-26.1093
11
48.81
21
-25.6257
0
LINE
8
BLACK
10
48.81
20
-25.6257
11
48.4174
21
-25.2324
0
LINE
8
BLACK
10
48.4174
20
-25.2324
11
47.9041
21
-25.0192
0
LINE
8
BLACK
10
47.9041
20
-25.0192
11
47.3483
21
-25.0188
0
LINE
8
BLACK
10
47.3483
20
-25.0188
11
46.8347
21
-25.231
0
LINE
8
BLACK
10
46.8347
20
-25.231
11
46.4414
21
-25.6236
0
LINE
8
BLACK
10
46.4414
20
-25.6236
11
46.2282
21
-26.1369
0
LINE
8
BLACK
10
46.2282
20
-26.1369
11
46.2278
21
-26.6927
0
LINE
8
BLACK
10
46.2278
20
-26.6927
11
46.44
21
-27.2063
0
LINE
8
BLACK
10
46.44
20
-27.2063
11
46.8326
21
-27.5996
0
LINE
8
BLACK
10
46.8326
20
-27.5996
11
47.3459
21
-27.8128
0
LINE
8
BLACK
10
47.3459
20
-27.8128
11
47.9017
21
-27.8132
0
LINE
8
BLACK
10
47.9017
20
-27.8132
11
48.4153
21
-27.601
0
LINE
8
BLACK
10
48.4153
20
-27.601
11
48.8086
21
-27.2084
0
LINE
8
BLACK
10
48.8086
20
-27.2084
11
49.0218
21
-26.6951
0
LINE
8
BLACK
10
49.0218
20
-26.6951
11
49.0222
21
-26.1393
0
LINE
8
BLACK
10
49.0222
20
-26.1393
11
49.0222
21
-27.7747
0
LINE
8
BLACK
10
49.0222
20
-27.7747
11
48.7845
21
-27.822
0
LINE
8
BLACK
10
48.7845
20
-27.822
11
48.4755
21
-28.0285
0
LINE
8
BLACK
10
48.4755
20
-28.0285
11
47.6749
21
-28.829
0
LINE
8
BLACK
10
47.6749
20
-28.829
11
47.3483
21
-28.8288
0
LINE
8
BLACK
10
47.3483
20
-28.8288
11
46.8347
21
-29.041
0
LINE
8
BLACK
10
46.8347
20
-29.041
11
46.4414
21
-29.4336
0
LINE
8
BLACK
10
46.4414
20
-29.4336
11
46.2282
21
-29.9469
0
LINE
8
BLACK
10
46.2282
20
-29.9469
11
46.2278
21
-30.5027
0
LINE
8
BLACK
10
46.2278
20
-30.5027
11
46.44
21
-31.0163
0
LINE
8
BLACK
10
46.44
20
-31.0163
11
46.8326
21
-31.4096
0
LINE
8
BLACK
10
46.8326
20
-31.4096
11
47.3459
21
-31.6228
0
LINE
8
BLACK
10
47.3459
20
-31.6228
11
47.9017
21
-31.6232
0
LINE
8
BLACK
10
47.9017
20
-31.6232
11
48.4153
21
-31.411
0
LINE
8
BLACK
10
48.4153
20
-31.411
11
48.8086
21
-31.0184
0
LINE
8
BLACK
10
48.8086
20
-31.0184
11
49.0218
21
-30.5051
0
LINE
8
BLACK
10
49.0218
20
-30.5051
11
49.022
21
-30.176
0
LINE
8
BLACK
10
49.022
20
-30.176
11
49.5435
21
-29.6545
0
LINE
8
BLACK
10
49.5435
20
-29.6545
11
50.1649
21
-29.6545
0
LINE
8
BLACK
10
50.1649
20
-29.6545
11
50.1649
21
-29.8438
0
LINE
8
BLACK
10
50.1649
20
-29.8438
11
50.2614
21
-30.0772
0
LINE
8
BLACK
10
50.2614
20
-30.0772
11
50.4398
21
-30.256
0
LINE
8
BLACK
10
50.4398
20
-30.256
11
50.6731
21
-30.3529
0
LINE
8
BLACK
10
50.6731
20
-30.3529
11
50.9258
21
-30.3531
0
LINE
8
BLACK
10
50.9258
20
-30.3531
11
51.9418
21
-30.3531
0
LINE
8
BLACK
10
51.9418
20
-30.3531
11
52.1752
21
-30.2566
0
LINE
8
BLACK
10
52.1752
20
-30.2566
11
52.354
21
-30.0782
0
LINE
8
BLACK
10
52.354
20
-30.0782
11
52.4509
21
-29.8449
0
LINE
8
BLACK
10
52.4509
20
-29.8449
11
52.451
21
-29.718
0
LINE
8
BLACK
10
52.451
20
-29.718
11
52.4511
21
-29.8449
0
LINE
8
BLACK
10
52.4511
20
-29.8449
11
52.548
21
-30.0782
0
LINE
8
BLACK
10
52.548
20
-30.0782
11
52.7268
21
-30.2566
0
LINE
8
BLACK
10
52.7268
20
-30.2566
11
52.9602
21
-30.3531
0
LINE
8
BLACK
10
52.9602
20
-30.3531
11
53.3083
21
-30.353
0
LINE
8
BLACK
10
53.3083
20
-30.353
11
53.467
21
-30.1943
0
LINE
8
BLACK
10
53.467
20
-30.1943
11
53.467
21
-31.8135
0
LINE
8
BLACK
10
53.467
20
-31.8135
11
53.0861
21
-31.8135
0
LINE
8
BLACK
10
53.0861
20
-31.8135
11
53.0861
21
-31.7512
0
LINE
8
BLACK
10
53.0861
20
-31.7512
11
52.9896
21
-31.5178
0
LINE
8
BLACK
10
52.9896
20
-31.5178
11
52.8112
21
-31.339
0
LINE
8
BLACK
10
52.8112
20
-31.339
11
52.5779
21
-31.2421
0
LINE
8
BLACK
10
52.5779
20
-31.2421
11
52.3252
21
-31.2419
0
LINE
8
BLACK
10
52.3252
20
-31.2419
11
50.5472
21
-31.2419
0
LINE
8
BLACK
10
50.5472
20
-31.2419
11
50.3138
21
-31.3384
0
LINE
8
BLACK
10
50.3138
20
-31.3384
11
50.135
21
-31.5168
0
LINE
8
BLACK
10
50.135
20
-31.5168
11
50.0381
21
-31.7501
0
LINE
8
BLACK
10
50.0381
20
-31.7501
11
50.0379
21
-32.0028
0
LINE
8
BLACK
10
50.0379
20
-32.0028
11
50.0379
21
-33.7808
0
LINE
8
BLACK
10
50.0379
20
-33.7808
11
50.1344
21
-34.0142
0
LINE
8
BLACK
10
50.1344
20
-34.0142
11
50.3128
21
-34.193
0
LINE
8
BLACK
10
50.3128
20
-34.193
11
50.5461
21
-34.2899
0
LINE
8
BLACK
10
50.5461
20
-34.2899
11
50.7988
21
-34.2901
0
LINE
8
BLACK
10
50.7988
20
-34.2901
11
52.5768
21
-34.2901
0
LINE
8
BLACK
10
52.5768
20
-34.2901
11
52.8102
21
-34.1936
0
LINE
8
BLACK
10
52.8102
20
-34.1936
11
52.989
21
-34.0152
0
LINE
8
BLACK
10
52.989
20
-34.0152
11
53.0859
21
-33.7819
0
LINE
8
BLACK
10
53.0859
20
-33.7819
11
53.0859
21
-33.7185
0
LINE
8
BLACK
10
53.0859
20
-33.7185
11
54.3559
21
-33.7185
0
LINE
8
BLACK
10
54.3559
20
-33.7185
11
54.3559
21
-33.7808
0
LINE
8
BLACK
10
54.3559
20
-33.7808
11
54.4524
21
-34.0142
0
LINE
8
BLACK
10
54.4524
20
-34.0142
11
54.6308
21
-34.193
0
LINE
8
BLACK
10
54.6308
20
-34.193
11
54.8641
21
-34.2899
0
LINE
8
BLACK
10
54.8641
20
-34.2899
11
55.1168
21
-34.2901
0
LINE
8
BLACK
10
55.1168
20
-34.2901
11
56.8948
21
-34.2901
0
LINE
8
BLACK
10
56.8948
20
-34.2901
11
57.1282
21
-34.1936
0
LINE
8
BLACK
10
57.1282
20
-34.1936
11
57.307
21
-34.0152
0
LINE
8
BLACK
10
57.307
20
-34.0152
11
57.4039
21
-33.7819
0
LINE
8
BLACK
10
57.4039
20
-33.7819
11
57.4041
21
-33.5292
0
LINE
8
BLACK
10
57.4041
20
-33.5292
11
57.4041
21
-45.1638
0
LINE
8
BLACK
10
57.4041
20
-45.1638
11
57.1727
21
-44.6039
0
LINE
8
BLACK
10
57.1727
20
-44.6039
11
56.7444
21
-44.1748
0
LINE
8
BLACK
10
56.7444
20
-44.1748
11
56.1845
21
-43.9423
0
LINE
8
BLACK
10
56.1845
20
-43.9423
11
55.5782
21
-43.9417
0
LINE
8
BLACK
10
55.5782
20
-43.9417
11
55.0179
21
-44.1733
0
LINE
8
BLACK
10
55.0179
20
-44.1733
11
54.5888
21
-44.6016
0
LINE
8
BLACK
10
54.5888
20
-44.6016
11
54.3563
21
-45.1615
0
LINE
8
BLACK
10
54.3563
20
-45.1615
11
54.3557
21
-45.7678
0
LINE
8
BLACK
10
54.3557
20
-45.7678
11
54.5873
21
-46.3281
0
LINE
8
BLACK
10
54.5873
20
-46.3281
11
55.0156
21
-46.7572
0
LINE
8
BLACK
10
55.0156
20
-46.7572
11
55.5755
21
-46.9897
0
LINE
8
BLACK
10
55.5755
20
-46.9897
11
56.1818
21
-46.9903
0
LINE
8
BLACK
10
56.1818
20
-46.9903
11
56.7421
21
-46.7587
0
LINE
8
BLACK
10
56.7421
20
-46.7587
11
57.1712
21
-46.3304
0
LINE
8
BLACK
10
57.1712
20
-46.3304
11
57.4037
21
-45.7705
0
LINE
8
BLACK
10
57.4037
20
-45.7705
11
57.4043
21
-45.1642
0
LINE
8
BLACK
10
57.4043
20
-45.1642
11
57.4043
21
-52.0156
0
LINE
8
BLACK
10
57.4043
20
-52.0156
11
57.161
21
-51.7719
0
LINE
8
BLACK
10
57.161
20
-51.7719
11
55.7612
21
-51.1907
0
LINE
8
BLACK
10
55.7612
20
-51.1907
11
54.2455
21
-51.1893
0
LINE
8
BLACK
10
54.2455
20
-51.1893
11
53.0863
21
-51.6683
0
LINE
8
BLACK
10
53.0863
20
-51.6683
11
53.0863
21
-45.1642
0
LINE
8
BLACK
10
53.0863
20
-45.1642
11
52.8547
21
-44.6039
0
LINE
8
BLACK
10
52.8547
20
-44.6039
11
52.4264
21
-44.1748
0
LINE
8
BLACK
10
52.4264
20
-44.1748
11
51.8665
21
-43.9423
0
LINE
8
BLACK
10
51.8665
20
-43.9423
11
51.2602
21
-43.9417
0
LINE
8
BLACK
10
51.2602
20
-43.9417
11
50.6999
21
-44.1733
0
LINE
8
BLACK
10
50.6999
20
-44.1733
11
50.2708
21
-44.6016
0
LINE
8
BLACK
10
50.2708
20
-44.6016
11
50.0383
21
-45.1615
0
LINE
8
BLACK
10
50.0383
20
-45.1615
11
50.0378
21
-45.6431
0
LINE
8
BLACK
10
50.0378
20
-45.6431
11
49.8975
21
-45.7835
0
LINE
8
BLACK
10
49.8975
20
-45.7835
11
49.2831
21
-45.7835
0
LINE
8
BLACK
10
49.2831
20
-45.7835
11
49.0524
21
-45.5524
0
LINE
8
BLACK
10
49.0524
20
-45.5524
11
49.0341
21
-45.5448
0
LINE
8
BLACK
10
49.0341
20
-45.5448
11
49.0341
21
-34.2437
0
LINE
8
BLACK
10
49.0341
20
-34.2437
11
49.0064
21
-33.6886
0
LINE
8
BLACK
10
49.0064
20
-33.6886
11
48.8474
21
-33.3049
0
LINE
8
BLACK
10
48.8474
20
-33.3049
11
48.6052
21
-33.2354
0
LINE
8
BLACK
10
48.6052
20
-33.2354
11
48.4256
21
-33.415
0
LINE
8
BLACK
10
48.4256
20
-33.415
11
48.4256
21
-33.0558
0
LINE
8
BLACK
10
48.4256
20
-33.0558
11
48.3561
21
-32.8136
0
LINE
8
BLACK
10
48.3561
20
-32.8136
11
47.8327
21
-32.6269
0
LINE
8
BLACK
10
47.8327
20
-32.6269
11
47.2776
21
-32.6546
0
LINE
8
BLACK
10
47.2776
20
-32.6546
11
46.8939
21
-32.8136
0
LINE
8
BLACK
10
46.8939
20
-32.8136
11
46.8244
21
-33.0558
0
LINE
8
BLACK
10
46.8244
20
-33.0558
11
47.625
21
-33.8564
0
LINE
8
BLACK
10
47.625
20
-33.8564
11
48.4256
21
-33.0558
0
LINE
8
BLACK
10
48.4256
20
-33.0558
11
48.4256
21
-33.415
0
LINE
8
BLACK
10
48.4256
20
-33.415
11
47.8046
21
-34.036
0
LINE
8
BLACK
10
47.8046
20
-34.036
11
48.6052
21
-34.8366
0
LINE
8
BLACK
10
48.6052
20
-34.8366
11
48.8474
21
-34.7671
0
LINE
8
BLACK
10
48.8474
20
-34.7671
11
49.0341
21
-34.2437
0
LINE
8
BLACK
10
49.0341
20
-34.2437
11
49.0341
21
-45.5448
0
LINE
8
BLACK
10
49.0341
20
-45.5448
11
48.5391
21
-45.3392
0
LINE
8
BLACK
10
48.5391
20
-45.3392
11
48.4256
21
-45.3391
0
LINE
8
BLACK
10
48.4256
20
-45.3391
11
48.4256
21
-35.0162
0
LINE
8
BLACK
10
48.4256
20
-35.0162
11
47.625
21
-34.2156
0
LINE
8
BLACK
10
47.625
20
-34.2156
11
47.4454
21
-34.3952
0
LINE
8
BLACK
10
47.4454
20
-34.3952
11
47.4454
21
-34.036
0
LINE
8
BLACK
10
47.4454
20
-34.036
11
46.6448
21
-33.2354
0
LINE
8
BLACK
10
46.6448
20
-33.2354
11
46.4026
21
-33.3049
0
LINE
8
BLACK
10
46.4026
20
-33.3049
11
46.2159
21
-33.8283
0
LINE
8
BLACK
10
46.2159
20
-33.8283
11
46.2436
21
-34.3834
0
LINE
8
BLACK
10
46.2436
20
-34.3834
11
46.4026
21
-34.7671
0
LINE
8
BLACK
10
46.4026
20
-34.7671
11
46.6448
21
-34.8366
0
LINE
8
BLACK
10
46.6448
20
-34.8366
11
47.4454
21
-34.036
0
LINE
8
BLACK
10
47.4454
20
-34.036
11
47.4454
21
-34.3952
0
LINE
8
BLACK
10
47.4454
20
-34.3952
11
46.8244
21
-35.0162
0
LINE
8
BLACK
10
46.8244
20
-35.0162
11
46.8939
21
-35.2584
0
LINE
8
BLACK
10
46.8939
20
-35.2584
11
47.4173
21
-35.4451
0
LINE
8
BLACK
10
47.4173
20
-35.4451
11
47.9724
21
-35.4174
0
LINE
8
BLACK
10
47.9724
20
-35.4174
11
48.3561
21
-35.2584
0
LINE
8
BLACK
10
48.3561
20
-35.2584
11
48.4256
21
-35.0162
0
LINE
8
BLACK
10
48.4256
20
-35.0162
11
48.4256
21
-45.3391
0
LINE
8
BLACK
10
48.4256
20
-45.3391
11
48.3237
21
-45.3391
0
LINE
8
BLACK
10
48.3237
20
-45.3391
11
48.3237
21
-38.8519
0
LINE
8
BLACK
10
48.3237
20
-38.8519
11
48.1211
21
-38.3616
0
LINE
8
BLACK
10
48.1211
20
-38.3616
11
47.7464
21
-37.9862
0
LINE
8
BLACK
10
47.7464
20
-37.9862
11
47.2564
21
-37.7827
0
LINE
8
BLACK
10
47.2564
20
-37.7827
11
46.7259
21
-37.7823
0
LINE
8
BLACK
10
46.7259
20
-37.7823
11
46.2356
21
-37.9849
0
LINE
8
BLACK
10
46.2356
20
-37.9849
11
45.8602
21
-38.3596
0
LINE
8
BLACK
10
45.8602
20
-38.3596
11
45.7836
21
-38.544
0
LINE
8
BLACK
10
45.7836
20
-38.544
11
45.7836
21
-38.5433
0
LINE
8
BLACK
10
45.7836
20
-38.5433
11
45.7834
21
-38.2906
0
LINE
8
BLACK
10
45.7834
20
-38.2906
11
45.6865
21
-38.0573
0
LINE
8
BLACK
10
45.6865
20
-38.0573
11
45.5077
21
-37.8789
0
LINE
8
BLACK
10
45.5077
20
-37.8789
11
45.2743
21
-37.7824
0
LINE
8
BLACK
10
45.2743
20
-37.7824
11
44.7358
21
-37.7825
0
LINE
8
BLACK
10
44.7358
20
-37.7825
11
44.577
21
-37.9413
0
LINE
8
BLACK
10
44.577
20
-37.9413
11
44.577
21
-38.989
0
LINE
8
BLACK
10
44.577
20
-38.989
11
44.597
21
-38.989
0
LINE
8
BLACK
10
44.597
20
-38.989
11
44.597
21
-39.243
0
LINE
8
BLACK
10
44.597
20
-39.243
11
44.577
21
-39.243
0
LINE
8
BLACK
10
44.577
20
-39.243
11
44.577
21
-40.2908
0
LINE
8
BLACK
10
44.577
20
-40.2908
11
44.7358
21
-40.4495
0
LINE
8
BLACK
10
44.7358
20
-40.4495
11
45.2743
21
-40.4496
0
LINE
8
BLACK
10
45.2743
20
-40.4496
11
45.5077
21
-40.3531
0
LINE
8
BLACK
10
45.5077
20
-40.3531
11
45.6865
21
-40.1747
0
LINE
8
BLACK
10
45.6865
20
-40.1747
11
45.7834
21
-39.9414
0
LINE
8
BLACK
10
45.7834
20
-39.9414
11
45.7836
21
-39.6887
0
LINE
8
BLACK
10
45.7836
20
-39.6887
11
45.7836
21
-39.6883
0
LINE
8
BLACK
10
45.7836
20
-39.6883
11
45.8589
21
-39.8704
0
LINE
8
BLACK
10
45.8589
20
-39.8704
11
46.2336
21
-40.2458
0
LINE
8
BLACK
10
46.2336
20
-40.2458
11
46.7236
21
-40.4493
0
LINE
8
BLACK
10
46.7236
20
-40.4493
11
47.2541
21
-40.4497
0
LINE
8
BLACK
10
47.2541
20
-40.4497
11
47.7444
21
-40.2471
0
LINE
8
BLACK
10
47.7444
20
-40.2471
11
48.1198
21
-39.8724
0
LINE
8
BLACK
10
48.1198
20
-39.8724
11
48.3233
21
-39.3824
0
LINE
8
BLACK
10
48.3233
20
-39.3824
11
48.3237
21
-38.8519
0
LINE
8
BLACK
10
48.3237
20
-38.8519
11
48.3237
21
-45.3391
0
LINE
8
BLACK
10
48.3237
20
-45.3391
11
47.9833
21
-45.3388
0
LINE
8
BLACK
10
47.9833
20
-45.3388
11
47.4697
21
-45.551
0
LINE
8
BLACK
10
47.4697
20
-45.551
11
47.0764
21
-45.9436
0
LINE
8
BLACK
10
47.0764
20
-45.9436
11
46.8632
21
-46.4569
0
LINE
8
BLACK
10
46.8632
20
-46.4569
11
46.8628
21
-47.0127
0
LINE
8
BLACK
10
46.8628
20
-47.0127
11
47.075
21
-47.5263
0
LINE
8
BLACK
10
47.075
20
-47.5263
11
47.427
21
-47.8789
0
LINE
8
BLACK
10
47.427
20
-47.8789
11
47.3722
21
-47.8789
0
LINE
8
BLACK
10
47.3722
20
-47.8789
11
47.1388
21
-47.9754
0
LINE
8
BLACK
10
47.1388
20
-47.9754
11
46.96
21
-48.1538
0
LINE
8
BLACK
10
46.96
20
-48.1538
11
46.8895
21
-48.3235
0
LINE
8
BLACK
10
46.8895
20
-48.3235
11
45.0584
21
-48.3235
0
LINE
8
BLACK
10
45.0584
20
-48.3235
11
44.9886
21
-48.1548
0
LINE
8
BLACK
10
44.9886
20
-48.1548
11
44.8102
21
-47.976
0
LINE
8
BLACK
10
44.8102
20
-47.976
11
44.5769
21
-47.8791
0
LINE
8
BLACK
10
44.5769
20
-47.8791
11
44.5203
21
-47.8791
0
LINE
8
BLACK
10
44.5203
20
-47.8791
11
44.8716
21
-47.5284
0
LINE
8
BLACK
10
44.8716
20
-47.5284
11
45.0848
21
-47.0151
0
LINE
8
BLACK
10
45.0848
20
-47.0151
11
45.0852
21
-46.4593
0
LINE
8
BLACK
10
45.0852
20
-46.4593
11
44.873
21
-45.9457
0
LINE
8
BLACK
10
44.873
20
-45.9457
11
44.4804
21
-45.5524
0
LINE
8
BLACK
10
44.4804
20
-45.5524
11
44.323
21
-45.487
0
LINE
8
BLACK
10
44.323
20
-45.487
11
44.323
21
-40.2908
0
LINE
8
BLACK
10
44.323
20
-40.2908
11
44.323
21
-39.243
0
LINE
8
BLACK
10
44.323
20
-39.243
11
44.323
21
-38.989
0
LINE
8
BLACK
10
44.323
20
-38.989
11
44.323
21
-37.9413
0
LINE
8
BLACK
10
44.323
20
-37.9413
11
44.1643
21
-37.7825
0
LINE
8
BLACK
10
44.1643
20
-37.7825
11
43.6257
21
-37.7824
0
LINE
8
BLACK
10
43.6257
20
-37.7824
11
43.3923
21
-37.8789
0
LINE
8
BLACK
10
43.3923
20
-37.8789
11
43.2135
21
-38.0573
0
LINE
8
BLACK
10
43.2135
20
-38.0573
11
43.1166
21
-38.2906
0
LINE
8
BLACK
10
43.1166
20
-38.2906
11
43.1164
21
-38.5433
0
LINE
8
BLACK
10
43.1164
20
-38.5433
11
43.1165
21
-38.8303
0
LINE
8
BLACK
10
43.1165
20
-38.8303
11
43.2753
21
-38.989
0
LINE
8
BLACK
10
43.2753
20
-38.989
11
44.323
21
-38.989
0
LINE
8
BLACK
10
44.323
20
-38.989
11
44.323
21
-39.243
0
LINE
8
BLACK
10
44.323
20
-39.243
11
43.2753
21
-39.243
0
LINE
8
BLACK
10
43.2753
20
-39.243
11
43.1165
21
-39.4018
0
LINE
8
BLACK
10
43.1165
20
-39.4018
11
43.1164
21
-39.6887
0
LINE
8
BLACK
10
43.1164
20
-39.6887
11
43.1166
21
-39.9414
0
LINE
8
BLACK
10
43.1166
20
-39.9414
11
43.2135
21
-40.1747
0
LINE
8
BLACK
10
43.2135
20
-40.1747
11
43.3923
21
-40.3531
0
LINE
8
BLACK
10
43.3923
20
-40.3531
11
43.6257
21
-40.4496
0
LINE
8
BLACK
10
43.6257
20
-40.4496
11
44.1643
21
-40.4495
0
LINE
8
BLACK
10
44.1643
20
-40.4495
11
44.323
21
-40.2908
0
LINE
8
BLACK
10
44.323
20
-40.2908
11
44.323
21
-45.487
0
LINE
8
BLACK
10
44.323
20
-45.487
11
43.9671
21
-45.3392
0
LINE
8
BLACK
10
43.9671
20
-45.3392
11
43.4113
21
-45.3388
0
LINE
8
BLACK
10
43.4113
20
-45.3388
11
42.8977
21
-45.551
0
LINE
8
BLACK
10
42.8977
20
-45.551
11
42.5044
21
-45.9436
0
LINE
8
BLACK
10
42.5044
20
-45.9436
11
42.2912
21
-46.4569
0
LINE
8
BLACK
10
42.2912
20
-46.4569
11
42.2908
21
-47.0127
0
LINE
8
BLACK
10
42.2908
20
-47.0127
11
42.503
21
-47.5263
0
LINE
8
BLACK
10
42.503
20
-47.5263
11
42.855
21
-47.8789
0
LINE
8
BLACK
10
42.855
20
-47.8789
11
42.8002
21
-47.8789
0
LINE
8
BLACK
10
42.8002
20
-47.8789
11
42.5668
21
-47.9754
0
LINE
8
BLACK
10
42.5668
20
-47.9754
11
42.388
21
-48.1538
0
LINE
8
BLACK
10
42.388
20
-48.1538
11
42.2911
21
-48.3871
0
LINE
8
BLACK
10
42.2911
20
-48.3871
11
42.2909
21
-48.6398
0
LINE
8
BLACK
10
42.2909
20
-48.6398
11
42.2909
21
-50.1638
0
LINE
8
BLACK
10
42.2909
20
-50.1638
11
42.3874
21
-50.3972
0
LINE
8
BLACK
10
42.3874
20
-50.3972
11
42.5658
21
-50.576
0
LINE
8
BLACK
10
42.5658
20
-50.576
11
42.7991
21
-50.6729
0
LINE
8
BLACK
10
42.7991
20
-50.6729
11
43.0518
21
-50.6731
0
LINE
8
BLACK
10
43.0518
20
-50.6731
11
44.5758
21
-50.6731
0
LINE
8
BLACK
10
44.5758
20
-50.6731
11
44.8092
21
-50.5766
0
LINE
8
BLACK
10
44.8092
20
-50.5766
11
44.988
21
-50.3982
0
LINE
8
BLACK
10
44.988
20
-50.3982
11
45.0585
21
-50.2285
0
LINE
8
BLACK
10
45.0585
20
-50.2285
11
46.8896
21
-50.2285
0
LINE
8
BLACK
10
46.8896
20
-50.2285
11
46.9594
21
-50.3972
0
LINE
8
BLACK
10
46.9594
20
-50.3972
11
47.1378
21
-50.576
0
LINE
8
BLACK
10
47.1378
20
-50.576
11
47.3711
21
-50.6729
0
LINE
8
BLACK
10
47.3711
20
-50.6729
11
47.6238
21
-50.6731
0
LINE
8
BLACK
10
47.6238
20
-50.6731
11
49.1478
21
-50.6731
0
LINE
8
BLACK
10
49.1478
20
-50.6731
11
49.3812
21
-50.5766
0
LINE
8
BLACK
10
49.3812
20
-50.5766
11
49.56
21
-50.3982
0
LINE
8
BLACK
10
49.56
20
-50.3982
11
49.6569
21
-50.1649
0
LINE
8
BLACK
10
49.6569
20
-50.1649
11
49.6571
21
-49.9122
0
LINE
8
BLACK
10
49.6571
20
-49.9122
11
49.6571
21
-48.3882
0
LINE
8
BLACK
10
49.6571
20
-48.3882
11
49.5606
21
-48.1548
0
LINE
8
BLACK
10
49.5606
20
-48.1548
11
49.3822
21
-47.976
0
LINE
8
BLACK
10
49.3822
20
-47.976
11
49.1489
21
-47.8791
0
LINE
8
BLACK
10
49.1489
20
-47.8791
11
49.0923
21
-47.8791
0
LINE
8
BLACK
10
49.0923
20
-47.8791
11
49.2832
21
-47.6885
0
LINE
8
BLACK
10
49.2832
20
-47.6885
11
50.292
21
-47.6885
0
LINE
8
BLACK
10
50.292
20
-47.6885
11
50.6565
21
-47.616
0
LINE
8
BLACK
10
50.6565
20
-47.616
11
50.9655
21
-47.4095
0
LINE
8
BLACK
10
50.9655
20
-47.4095
11
51.3852
21
-46.9898
0
LINE
8
BLACK
10
51.3852
20
-46.9898
11
51.8638
21
-46.9903
0
LINE
8
BLACK
10
51.8638
20
-46.9903
11
52.4241
21
-46.7587
0
LINE
8
BLACK
10
52.4241
20
-46.7587
11
52.8532
21
-46.3304
0
LINE
8
BLACK
10
52.8532
20
-46.3304
11
53.0857
21
-45.7705
0
LINE
8
BLACK
10
53.0857
20
-45.7705
11
53.0863
21
-45.1642
0
LINE
8
BLACK
10
53.0863
20
-45.1642
11
53.0863
21
-51.6683
0
LINE
8
BLACK
10
53.0863
20
-51.6683
11
52.8446
21
-51.7682
0
LINE
8
BLACK
10
52.8446
20
-51.7682
11
51.7719
21
-52.839
0
LINE
8
BLACK
10
51.7719
20
-52.839
11
51.1907
21
-54.2388
0
LINE
8
BLACK
10
51.1907
20
-54.2388
11
51.1893
21
-55.7545
0
LINE
8
BLACK
10
51.1893
20
-55.7545
11
51.7682
21
-57.1554
0
LINE
8
BLACK
10
51.7682
20
-57.1554
11
52.7855
21
-58.1745
0
LINE
8
BLACK
10
52.7855
20
-58.1745
11
41.2752
21
-58.1745
0
LINE
8
BLACK
10
41.2752
20
-58.1745
11
41.2752
21
-38.5853
0
LINE
8
BLACK
10
41.2752
20
-38.5853
11
41.063
21
-38.0717
0
LINE
8
BLACK
10
41.063
20
-38.0717
11
40.6704
21
-37.6784
0
LINE
8
BLACK
10
40.6704
20
-37.6784
11
40.1571
21
-37.4652
0
LINE
8
BLACK
10
40.1571
20
-37.4652
11
39.6013
21
-37.4648
0
LINE
8
BLACK
10
39.6013
20
-37.4648
11
39.0877
21
-37.677
0
LINE
8
BLACK
10
39.0877
20
-37.677
11
38.7351
21
-38.029
0
LINE
8
BLACK
10
38.7351
20
-38.029
11
38.7351
21
-37.9742
0
LINE
8
BLACK
10
38.7351
20
-37.9742
11
38.6386
21
-37.7408
0
LINE
8
BLACK
10
38.6386
20
-37.7408
11
38.4602
21
-37.562
0
LINE
8
BLACK
10
38.4602
20
-37.562
11
38.2269
21
-37.4651
0
LINE
8
BLACK
10
38.2269
20
-37.4651
11
37.9742
21
-37.4649
0
LINE
8
BLACK
10
37.9742
20
-37.4649
11
37.5922
21
-37.4649
0
LINE
8
BLACK
10
37.5922
20
-37.4649
11
37.5922
21
-33.7593
0
LINE
8
BLACK
10
37.5922
20
-33.7593
11
37.38
21
-33.2457
0
LINE
8
BLACK
10
37.38
20
-33.2457
11
36.9874
21
-32.8524
0
LINE
8
BLACK
10
36.9874
20
-32.8524
11
36.85
21
-32.7953
0
LINE
8
BLACK
10
36.85
20
-32.7953
11
35.5081
21
-31.4534
0
LINE
8
BLACK
10
35.5081
20
-31.4534
11
35.9159
21
-31.6228
0
LINE
8
BLACK
10
35.9159
20
-31.6228
11
36.4717
21
-31.6232
0
LINE
8
BLACK
10
36.4717
20
-31.6232
11
36.9853
21
-31.411
0
LINE
8
BLACK
10
36.9853
20
-31.411
11
37.3786
21
-31.0184
0
LINE
8
BLACK
10
37.3786
20
-31.0184
11
37.5918
21
-30.5051
0
LINE
8
BLACK
10
37.5918
20
-30.5051
11
37.5922
21
-29.9493
0
LINE
8
BLACK
10
37.5922
20
-29.9493
11
37.38
21
-29.4357
0
LINE
8
BLACK
10
37.38
20
-29.4357
11
36.9874
21
-29.0424
0
LINE
8
BLACK
10
36.9874
20
-29.0424
11
36.4741
21
-28.8292
0
LINE
8
BLACK
10
36.4741
20
-28.8292
11
35.9183
21
-28.8288
0
LINE
8
BLACK
10
35.9183
20
-28.8288
11
35.4047
21
-29.041
0
LINE
8
BLACK
10
35.4047
20
-29.041
11
35.0114
21
-29.4336
0
LINE
8
BLACK
10
35.0114
20
-29.4336
11
34.7982
21
-29.9469
0
LINE
8
BLACK
10
34.7982
20
-29.9469
11
34.7978
21
-30.5027
0
LINE
8
BLACK
10
34.7978
20
-30.5027
11
34.967
21
-30.9124
0
LINE
8
BLACK
10
34.967
20
-30.9124
11
34.6481
21
-30.5934
0
LINE
8
BLACK
10
34.6481
20
-30.5934
11
34.6484
21
-30.2516
0
LINE
8
BLACK
10
34.6484
20
-30.2516
11
34.4342
21
-29.7333
0
LINE
8
BLACK
10
34.4342
20
-29.7333
11
34.038
21
-29.3364
0
LINE
8
BLACK
10
34.038
20
-29.3364
11
33.5201
21
-29.1213
0
LINE
8
BLACK
10
33.5201
20
-29.1213
11
33.2622
21
-29.1211
0
LINE
8
BLACK
10
33.2622
20
-29.1211
11
32.1695
21
-28.0285
0
LINE
8
BLACK
10
32.1695
20
-28.0285
11
32.0821
21
-27.97
0
LINE
8
BLACK
10
32.0821
20
-27.97
11
32.1178
21
-27.9344
0
LINE
8
BLACK
10
32.1178
20
-27.9344
11
32.3213
21
-27.4444
0
LINE
8
BLACK
10
32.3213
20
-27.4444
11
32.3217
21
-26.9139
0
LINE
8
BLACK
10
32.3217
20
-26.9139
11
32.1947
21
-26.6065
0
LINE
8
BLACK
10
32.1947
20
-26.6065
11
34.7978
21
-26.6065
0
LINE
8
BLACK
10
34.7978
20
-26.6065
11
34.7978
21
-26.6927
0
LINE
8
BLACK
10
34.7978
20
-26.6927
11
35.01
21
-27.2063
0
LINE
8
BLACK
10
35.01
20
-27.2063
11
35.4026
21
-27.5996
0
LINE
8
BLACK
10
35.4026
20
-27.5996
11
35.9159
21
-27.8128
0
LINE
8
BLACK
10
35.9159
20
-27.8128
11
36.4717
21
-27.8132
0
LINE
8
BLACK
10
36.4717
20
-27.8132
11
36.9853
21
-27.601
0
LINE
8
BLACK
10
36.9853
20
-27.601
11
37.3786
21
-27.2084
0
LINE
8
BLACK
10
37.3786
20
-27.2084
11
37.5918
21
-26.6951
0
LINE
8
BLACK
10
37.5918
20
-26.6951
11
37.5922
21
-26.1393
0
LINE
8
BLACK
10
37.5922
20
-26.1393
11
37.38
21
-25.6257
0
LINE
8
BLACK
10
37.38
20
-25.6257
11
36.9874
21
-25.2324
0
LINE
8
BLACK
10
36.9874
20
-25.2324
11
36.4741
21
-25.0192
0
LINE
8
BLACK
10
36.4741
20
-25.0192
11
36.145
21
-25.019
0
LINE
8
BLACK
10
36.145
20
-25.019
11
36.1065
21
-24.9805
0
LINE
8
BLACK
10
36.1065
20
-24.9805
11
35.7975
21
-24.774
0
LINE
8
BLACK
10
35.7975
20
-24.774
11
35.433
21
-24.7015
0
LINE
8
BLACK
10
35.433
20
-24.7015
11
32.3217
21
-24.7015
0
LINE
8
BLACK
10
32.3217
20
-24.7015
11
32.3217
21
-19.2939
0
LINE
8
BLACK
10
32.3217
20
-19.2939
11
32.1191
21
-18.8036
0
LINE
8
BLACK
10
32.1191
20
-18.8036
11
31.7444
21
-18.4282
0
LINE
8
BLACK
10
31.7444
20
-18.4282
11
31.2544
21
-18.2247
0
LINE
8
BLACK
10
31.2544
20
-18.2247
11
30.9626
21
-18.2245
0
LINE
8
BLACK
10
30.9626
20
-18.2245
11
30.9626
21
-17.78
0
LINE
8
BLACK
10
30.9626
20
-17.78
11
30.9065
21
-17.4981
0
LINE
8
BLACK
10
30.9065
20
-17.4981
11
30.7469
21
-17.2591
0
LINE
8
BLACK
10
30.7469
20
-17.2591
11
30.3788
21
-16.8911
0
LINE
8
BLACK
10
30.3788
20
-16.8911
11
30.5027
21
-16.8912
0
LINE
8
BLACK
10
30.5027
20
-16.8912
11
31.0163
21
-16.679
0
LINE
8
BLACK
10
31.0163
20
-16.679
11
31.4096
21
-16.2864
0
LINE
8
BLACK
10
31.4096
20
-16.2864
11
31.6228
21
-15.7731
0
LINE
8
BLACK
10
31.6228
20
-15.7731
11
31.6232
21
-15.2173
0
LINE
8
BLACK
10
31.6232
20
-15.2173
11
31.411
21
-14.7037
0
LINE
8
BLACK
10
31.411
20
-14.7037
11
31.0184
21
-14.3104
0
LINE
8
BLACK
10
31.0184
20
-14.3104
11
30.8105
21
-14.2241
0
LINE
8
BLACK
10
30.8105
20
-14.2241
11
31.0163
21
-14.139
0
LINE
8
BLACK
10
31.0163
20
-14.139
11
31.4096
21
-13.7464
0
LINE
8
BLACK
10
31.4096
20
-13.7464
11
31.6228
21
-13.2331
0
LINE
8
BLACK
10
31.6228
20
-13.2331
11
31.6232
21
-12.6773
0
LINE
8
BLACK
10
31.6232
20
-12.6773
11
31.411
21
-12.1637
0
LINE
8
BLACK
10
31.411
20
-12.1637
11
31.0184
21
-11.7704
0
LINE
8
BLACK
10
31.0184
20
-11.7704
11
30.5051
21
-11.5572
0
LINE
8
BLACK
10
30.5051
20
-11.5572
11
29.9493
21
-11.5568
0
LINE
8
BLACK
10
29.9493
20
-11.5568
11
29.4357
21
-11.769
0
LINE
8
BLACK
10
29.4357
20
-11.769
11
29.0424
21
-12.1616
0
LINE
8
BLACK
10
29.0424
20
-12.1616
11
28.9561
21
-12.3695
0
LINE
8
BLACK
10
28.9561
20
-12.3695
11
28.871
21
-12.1637
0
LINE
8
BLACK
10
28.871
20
-12.1637
11
28.4784
21
-11.7704
0
LINE
8
BLACK
10
28.4784
20
-11.7704
11
27.9651
21
-11.5572
0
LINE
8
BLACK
10
27.9651
20
-11.5572
11
27.4093
21
-11.5568
0
LINE
8
BLACK
10
27.4093
20
-11.5568
11
26.8957
21
-11.769
0
LINE
8
BLACK
10
26.8957
20
-11.769
11
26.5024
21
-12.1616
0
LINE
8
BLACK
10
26.5024
20
-12.1616
11
26.4226
21
-12.3537
0
LINE
8
BLACK
10
26.4226
20
-12.3537
11
26.3684
21
-12.2229
0
LINE
8
BLACK
10
26.3684
20
-12.2229
11
26.1262
21
-12.1534
0
LINE
8
BLACK
10
26.1262
20
-12.1534
11
25.9466
21
-12.333
0
LINE
8
BLACK
10
25.9466
20
-12.333
11
25.9466
21
-11.9738
0
LINE
8
BLACK
10
25.9466
20
-11.9738
11
25.8771
21
-11.7316
0
LINE
8
BLACK
10
25.8771
20
-11.7316
11
25.3537
21
-11.5449
0
LINE
8
BLACK
10
25.3537
20
-11.5449
11
24.7986
21
-11.5726
0
LINE
8
BLACK
10
24.7986
20
-11.5726
11
24.4149
21
-11.7316
0
LINE
8
BLACK
10
24.4149
20
-11.7316
11
24.3454
21
-11.9738
0
LINE
8
BLACK
10
24.3454
20
-11.9738
11
25.146
21
-12.7744
0
LINE
8
BLACK
10
25.146
20
-12.7744
11
25.9466
21
-11.9738
0
LINE
8
BLACK
10
25.9466
20
-11.9738
11
25.9466
21
-12.333
0
LINE
8
BLACK
10
25.9466
20
-12.333
11
25.3256
21
-12.954
0
LINE
8
BLACK
10
25.3256
20
-12.954
11
26.1262
21
-13.7546
0
LINE
8
BLACK
10
26.1262
20
-13.7546
11
26.3684
21
-13.6851
0
LINE
8
BLACK
10
26.3684
20
-13.6851
11
26.4185
21
-13.5447
0
LINE
8
BLACK
10
26.4185
20
-13.5447
11
26.501
21
-13.7443
0
LINE
8
BLACK
10
26.501
20
-13.7443
11
26.8936
21
-14.1376
0
LINE
8
BLACK
10
26.8936
20
-14.1376
11
27.1015
21
-14.2239
0
LINE
8
BLACK
10
27.1015
20
-14.2239
11
26.8957
21
-14.309
0
LINE
8
BLACK
10
26.8957
20
-14.309
11
26.5431
21
-14.661
0
LINE
8
BLACK
10
26.5431
20
-14.661
11
26.5431
21
-14.6062
0
LINE
8
BLACK
10
26.5431
20
-14.6062
11
26.4466
21
-14.3728
0
LINE
8
BLACK
10
26.4466
20
-14.3728
11
26.2682
21
-14.194
0
LINE
8
BLACK
10
26.2682
20
-14.194
11
26.0349
21
-14.0971
0
LINE
8
BLACK
10
26.0349
20
-14.0971
11
25.8999
21
-14.097
0
LINE
8
BLACK
10
25.8999
20
-14.097
11
25.9466
21
-13.9342
0
LINE
8
BLACK
10
25.9466
20
-13.9342
11
25.146
21
-13.1336
0
LINE
8
BLACK
10
25.146
20
-13.1336
11
24.9664
21
-13.3132
0
LINE
8
BLACK
10
24.9664
20
-13.3132
11
24.9664
21
-12.954
0
LINE
8
BLACK
10
24.9664
20
-12.954
11
24.1658
21
-12.1534
0
LINE
8
BLACK
10
24.1658
20
-12.1534
11
23.9236
21
-12.2229
0
LINE
8
BLACK
10
23.9236
20
-12.2229
11
23.7369
21
-12.7463
0
LINE
8
BLACK
10
23.7369
20
-12.7463
11
23.7646
21
-13.3014
0
LINE
8
BLACK
10
23.7646
20
-13.3014
11
23.9236
21
-13.6851
0
LINE
8
BLACK
10
23.9236
20
-13.6851
11
24.1658
21
-13.7546
0
LINE
8
BLACK
10
24.1658
20
-13.7546
11
24.9664
21
-12.954
0
LINE
8
BLACK
10
24.9664
20
-12.954
11
24.9664
21
-13.3132
0
LINE
8
BLACK
10
24.9664
20
-13.3132
11
24.3454
21
-13.9342
0
LINE
8
BLACK
10
24.3454
20
-13.9342
11
24.3921
21
-14.0969
0
LINE
8
BLACK
10
24.3921
20
-14.0969
11
24.2582
21
-14.0969
0
LINE
8
BLACK
10
24.2582
20
-14.0969
11
24.0248
21
-14.1934
0
LINE
8
BLACK
10
24.0248
20
-14.1934
11
23.846
21
-14.3718
0
LINE
8
BLACK
10
23.846
20
-14.3718
11
23.7491
21
-14.6051
0
LINE
8
BLACK
10
23.7491
20
-14.6051
11
23.7489
21
-14.8578
0
LINE
8
BLACK
10
23.7489
20
-14.8578
11
23.7489
21
-16.3818
0
LINE
8
BLACK
10
23.7489
20
-16.3818
11
23.8454
21
-16.6152
0
LINE
8
BLACK
10
23.8454
20
-16.6152
11
24.0238
21
-16.794
0
LINE
8
BLACK
10
24.0238
20
-16.794
11
24.2571
21
-16.8909
0
LINE
8
BLACK
10
24.2571
20
-16.8909
11
24.5098
21
-16.8911
0
LINE
8
BLACK
10
24.5098
20
-16.8911
11
26.0338
21
-16.8911
0
LINE
8
BLACK
10
26.0338
20
-16.8911
11
26.2672
21
-16.7946
0
LINE
8
BLACK
10
26.2672
20
-16.7946
11
26.446
21
-16.6162
0
LINE
8
BLACK
10
26.446
20
-16.6162
11
26.5429
21
-16.3829
0
LINE
8
BLACK
10
26.5429
20
-16.3829
11
26.5429
21
-16.3263
0
LINE
8
BLACK
10
26.5429
20
-16.3263
11
26.7335
21
-16.5172
0
LINE
8
BLACK
10
26.7335
20
-16.5172
11
26.7335
21
-16.6235
0
LINE
8
BLACK
10
26.7335
20
-16.6235
11
25.2345
21
-18.1225
0
LINE
8
BLACK
10
25.2345
20
-18.1225
11
25.028
21
-18.4315
0
LINE
8
BLACK
10
25.028
20
-18.4315
11
24.998
21
-18.5822
0
LINE
8
BLACK
10
24.998
20
-18.5822
11
24.7782
21
-18.8016
0
LINE
8
BLACK
10
24.7782
20
-18.8016
11
24.6447
21
-19.1231
0
LINE
8
BLACK
10
24.6447
20
-19.1231
11
24.5378
21
-18.8651
0
LINE
8
BLACK
10
24.5378
20
-18.8651
11
24.3022
21
-18.8034
0
LINE
8
BLACK
10
24.3022
20
-18.8034
11
24.1226
21
-18.983
0
LINE
8
BLACK
10
24.1226
20
-18.983
11
24.1226
21
-18.6238
0
LINE
8
BLACK
10
24.1226
20
-18.6238
11
24.0609
21
-18.3882
0
LINE
8
BLACK
10
24.0609
20
-18.3882
11
23.5605
21
-18.2121
0
LINE
8
BLACK
10
23.5605
20
-18.2121
11
23.0308
21
-18.2409
0
LINE
8
BLACK
10
23.0308
20
-18.2409
11
22.6751
21
-18.3882
0
LINE
8
BLACK
10
22.6751
20
-18.3882
11
22.6134
21
-18.6238
0
LINE
8
BLACK
10
22.6134
20
-18.6238
11
23.368
21
-19.3784
0
LINE
8
BLACK
10
23.368
20
-19.3784
11
24.1226
21
-18.6238
0
LINE
8
BLACK
10
24.1226
20
-18.6238
11
24.1226
21
-18.983
0
LINE
8
BLACK
10
24.1226
20
-18.983
11
23.5476
21
-19.558
0
LINE
8
BLACK
10
23.5476
20
-19.558
11
24.3022
21
-20.3126
0
LINE
8
BLACK
10
24.3022
20
-20.3126
11
24.5378
21
-20.2509
0
LINE
8
BLACK
10
24.5378
20
-20.2509
11
24.6361
21
-19.9717
0
LINE
8
BLACK
10
24.6361
20
-19.9717
11
24.7769
21
-20.3124
0
LINE
8
BLACK
10
24.7769
20
-20.3124
11
25.1516
21
-20.6878
0
LINE
8
BLACK
10
25.1516
20
-20.6878
11
25.6416
21
-20.8913
0
LINE
8
BLACK
10
25.6416
20
-20.8913
11
26.1721
21
-20.8917
0
LINE
8
BLACK
10
26.1721
20
-20.8917
11
26.6624
21
-20.6891
0
LINE
8
BLACK
10
26.6624
20
-20.6891
11
27.0378
21
-20.3144
0
LINE
8
BLACK
10
27.0378
20
-20.3144
11
27.1781
21
-19.9766
0
LINE
8
BLACK
10
27.1781
20
-19.9766
11
27.3169
21
-20.3124
0
LINE
8
BLACK
10
27.3169
20
-20.3124
11
27.6916
21
-20.6878
0
LINE
8
BLACK
10
27.6916
20
-20.6878
11
28.1816
21
-20.8913
0
LINE
8
BLACK
10
28.1816
20
-20.8913
11
28.7121
21
-20.8917
0
LINE
8
BLACK
10
28.7121
20
-20.8917
11
29.2024
21
-20.6891
0
LINE
8
BLACK
10
29.2024
20
-20.6891
11
29.5778
21
-20.3144
0
LINE
8
BLACK
10
29.5778
20
-20.3144
11
29.7181
21
-19.9766
0
LINE
8
BLACK
10
29.7181
20
-19.9766
11
29.8569
21
-20.3124
0
LINE
8
BLACK
10
29.8569
20
-20.3124
11
30.2316
21
-20.6878
0
LINE
8
BLACK
10
30.2316
20
-20.6878
11
30.7216
21
-20.8913
0
LINE
8
BLACK
10
30.7216
20
-20.8913
11
31.2521
21
-20.8917
0
LINE
8
BLACK
10
31.2521
20
-20.8917
11
31.7424
21
-20.6891
0
LINE
8
BLACK
10
31.7424
20
-20.6891
11
32.1178
21
-20.3144
0
LINE
8
BLACK
10
32.1178
20
-20.3144
11
32.3213
21
-19.8244
0
LINE
8
BLACK
10
32.3213
20
-19.8244
11
32.3217
21
-19.2939
0
LINE
8
BLACK
10
32.3217
20
-19.2939
11
32.3217
21
-24.7015
0
LINE
8
BLACK
10
32.3217
20
-24.7015
11
29.845
21
-24.7015
0
LINE
8
BLACK
10
29.845
20
-24.7015
11
29.4805
21
-24.774
0
LINE
8
BLACK
10
29.4805
20
-24.774
11
29.1715
21
-24.9805
0
LINE
8
BLACK
10
29.1715
20
-24.9805
11
28.3076
21
-25.8444
0
LINE
8
BLACK
10
28.3076
20
-25.8444
11
28.1839
21
-25.8443
0
LINE
8
BLACK
10
28.1839
20
-25.8443
11
27.6936
21
-26.0469
0
LINE
8
BLACK
10
27.6936
20
-26.0469
11
27.3182
21
-26.4216
0
LINE
8
BLACK
10
27.3182
20
-26.4216
11
27.1779
21
-26.7594
0
LINE
8
BLACK
10
27.1779
20
-26.7594
11
27.0391
21
-26.4236
0
LINE
8
BLACK
10
27.0391
20
-26.4236
11
26.6644
21
-26.0482
0
LINE
8
BLACK
10
26.6644
20
-26.0482
11
26.1744
21
-25.8447
0
LINE
8
BLACK
10
26.1744
20
-25.8447
11
25.6439
21
-25.8443
0
LINE
8
BLACK
10
25.6439
20
-25.8443
11
25.1536
21
-26.0469
0
LINE
8
BLACK
10
25.1536
20
-26.0469
11
24.7782
21
-26.4216
0
LINE
8
BLACK
10
24.7782
20
-26.4216
11
24.7016
21
-26.606
0
LINE
8
BLACK
10
24.7016
20
-26.606
11
24.7016
21
-26.3537
0
LINE
8
BLACK
10
24.7016
20
-26.3537
11
24.6051
21
-26.1203
0
LINE
8
BLACK
10
24.6051
20
-26.1203
11
24.4267
21
-25.9415
0
LINE
8
BLACK
10
24.4267
20
-25.9415
11
24.1934
21
-25.8446
0
LINE
8
BLACK
10
24.1934
20
-25.8446
11
24.1226
21
-25.8445
0
LINE
8
BLACK
10
24.1226
20
-25.8445
11
24.1226
21
-20.4922
0
LINE
8
BLACK
10
24.1226
20
-20.4922
11
23.368
21
-19.7376
0
LINE
8
BLACK
10
23.368
20
-19.7376
11
23.1884
21
-19.9172
0
LINE
8
BLACK
10
23.1884
20
-19.9172
11
23.1884
21
-19.558
0
LINE
8
BLACK
10
23.1884
20
-19.558
11
22.4338
21
-18.8034
0
LINE
8
BLACK
10
22.4338
20
-18.8034
11
22.1982
21
-18.8651
0
LINE
8
BLACK
10
22.1982
20
-18.8651
11
22.0221
21
-19.3655
0
LINE
8
BLACK
10
22.0221
20
-19.3655
11
22.0509
21
-19.8952
0
LINE
8
BLACK
10
22.0509
20
-19.8952
11
22.1982
21
-20.2509
0
LINE
8
BLACK
10
22.1982
20
-20.2509
11
22.4338
21
-20.3126
0
LINE
8
BLACK
10
22.4338
20
-20.3126
11
23.1884
21
-19.558
0
LINE
8
BLACK
10
23.1884
20
-19.558
11
23.1884
21
-19.9172
0
LINE
8
BLACK
10
23.1884
20
-19.9172
11
22.6134
21
-20.4922
0
LINE
8
BLACK
10
22.6134
20
-20.4922
11
22.6751
21
-20.7278
0
LINE
8
BLACK
10
22.6751
20
-20.7278
11
23.1755
21
-20.9039
0
LINE
8
BLACK
10
23.1755
20
-20.9039
11
23.7052
21
-20.8751
0
LINE
8
BLACK
10
23.7052
20
-20.8751
11
24.0609
21
-20.7278
0
LINE
8
BLACK
10
24.0609
20
-20.7278
11
24.1226
21
-20.4922
0
LINE
8
BLACK
10
24.1226
20
-20.4922
11
24.1226
21
-25.8445
0
LINE
8
BLACK
10
24.1226
20
-25.8445
11
23.9407
21
-25.8444
0
LINE
8
BLACK
10
23.9407
20
-25.8444
11
22.5437
21
-25.8444
0
LINE
8
BLACK
10
22.5437
20
-25.8444
11
22.3103
21
-25.9409
0
LINE
8
BLACK
10
22.3103
20
-25.9409
11
22.1315
21
-26.1193
0
LINE
8
BLACK
10
22.1315
20
-26.1193
11
22.0346
21
-26.3526
0
LINE
8
BLACK
10
22.0346
20
-26.3526
11
22.0344
21
-26.6053
0
LINE
8
BLACK
10
22.0344
20
-26.6053
11
22.0344
21
-28.0023
0
LINE
8
BLACK
10
22.0344
20
-28.0023
11
22.1309
21
-28.2357
0
LINE
8
BLACK
10
22.1309
20
-28.2357
11
22.3093
21
-28.4145
0
LINE
8
BLACK
10
22.3093
20
-28.4145
11
22.5426
21
-28.5114
0
LINE
8
BLACK
10
22.5426
20
-28.5114
11
22.7953
21
-28.5116
0
LINE
8
BLACK
10
22.7953
20
-28.5116
11
24.1923
21
-28.5116
0
LINE
8
BLACK
10
24.1923
20
-28.5116
11
24.4257
21
-28.4151
0
LINE
8
BLACK
10
24.4257
20
-28.4151
11
24.6045
21
-28.2367
0
LINE
8
BLACK
10
24.6045
20
-28.2367
11
24.7014
21
-28.0034
0
LINE
8
BLACK
10
24.7014
20
-28.0034
11
24.7016
21
-27.7507
0
LINE
8
BLACK
10
24.7016
20
-27.7507
11
24.7016
21
-27.7503
0
LINE
8
BLACK
10
24.7016
20
-27.7503
11
24.7769
21
-27.9324
0
LINE
8
BLACK
10
24.7769
20
-27.9324
11
25.1516
21
-28.3078
0
LINE
8
BLACK
10
25.1516
20
-28.3078
11
25.6416
21
-28.5113
0
LINE
8
BLACK
10
25.6416
20
-28.5113
11
25.8944
21
-28.5115
0
LINE
8
BLACK
10
25.8944
20
-28.5115
11
26.7585
21
-29.3755
0
LINE
8
BLACK
10
26.7585
20
-29.3755
11
26.7585
21
-29.3755
0
LINE
8
BLACK
10
26.7585
20
-29.3755
11
27.0675
21
-29.582
0
LINE
8
BLACK
10
27.0675
20
-29.582
11
27.432
21
-29.6545
0
LINE
8
BLACK
10
27.432
20
-29.6545
11
27.62
21
-29.6545
0
LINE
8
BLACK
10
27.62
20
-29.6545
11
27.5432
21
-29.7312
0
LINE
8
BLACK
10
27.5432
20
-29.7312
11
27.3281
21
-30.2492
0
LINE
8
BLACK
10
27.3281
20
-30.2492
11
27.3276
21
-30.81
0
LINE
8
BLACK
10
27.3276
20
-30.81
11
27.5418
21
-31.3283
0
LINE
8
BLACK
10
27.5418
20
-31.3283
11
27.938
21
-31.7252
0
LINE
8
BLACK
10
27.938
20
-31.7252
11
28.4559
21
-31.9403
0
LINE
8
BLACK
10
28.4559
20
-31.9403
11
29.0167
21
-31.9407
0
LINE
8
BLACK
10
29.0167
20
-31.9407
11
29.535
21
-31.7266
0
LINE
8
BLACK
10
29.535
20
-31.7266
11
29.9319
21
-31.3304
0
LINE
8
BLACK
10
29.9319
20
-31.3304
11
30.147
21
-30.8124
0
LINE
8
BLACK
10
30.147
20
-30.8124
11
30.1475
21
-30.2516
0
LINE
8
BLACK
10
30.1475
20
-30.2516
11
29.9333
21
-29.7333
0
LINE
8
BLACK
10
29.9333
20
-29.7333
11
29.8547
21
-29.6545
0
LINE
8
BLACK
10
29.8547
20
-29.6545
11
31.1015
21
-29.6545
0
LINE
8
BLACK
10
31.1015
20
-29.6545
11
31.8289
21
-30.3819
0
LINE
8
BLACK
10
31.8289
20
-30.3819
11
31.8285
21
-30.81
0
LINE
8
BLACK
10
31.8285
20
-30.81
11
32.0427
21
-31.3283
0
LINE
8
BLACK
10
32.0427
20
-31.3283
11
32.2859
21
-31.572
0
LINE
8
BLACK
10
32.2859
20
-31.572
11
32.2859
21
-35.9922
0
LINE
8
BLACK
10
32.2859
20
-35.9922
11
32.0441
21
-36.2336
0
LINE
8
BLACK
10
32.0441
20
-36.2336
11
31.829
21
-36.7516
0
LINE
8
BLACK
10
31.829
20
-36.7516
11
31.8285
21
-37.3124
0
LINE
8
BLACK
10
31.8285
20
-37.3124
11
32.0427
21
-37.8307
0
LINE
8
BLACK
10
32.0427
20
-37.8307
11
32.4389
21
-38.2276
0
LINE
8
BLACK
10
32.4389
20
-38.2276
11
32.9568
21
-38.4427
0
LINE
8
BLACK
10
32.9568
20
-38.4427
11
33.5176
21
-38.4431
0
LINE
8
BLACK
10
33.5176
20
-38.4431
11
34.0359
21
-38.229
0
LINE
8
BLACK
10
34.0359
20
-38.229
11
34.4328
21
-37.8328
0
LINE
8
BLACK
10
34.4328
20
-37.8328
11
34.6479
21
-37.3148
0
LINE
8
BLACK
10
34.6479
20
-37.3148
11
34.6484
21
-36.754
0
LINE
8
BLACK
10
34.6484
20
-36.754
11
34.4342
21
-36.2357
0
LINE
8
BLACK
10
34.4342
20
-36.2357
11
34.1909
21
-35.992
0
LINE
8
BLACK
10
34.1909
20
-35.992
11
34.1909
21
-32.8303
0
LINE
8
BLACK
10
34.1909
20
-32.8303
11
34.8919
21
-33.5313
0
LINE
8
BLACK
10
34.8919
20
-33.5313
11
34.7982
21
-33.7569
0
LINE
8
BLACK
10
34.7982
20
-33.7569
11
34.7978
21
-34.3127
0
LINE
8
BLACK
10
34.7978
20
-34.3127
11
35.01
21
-34.8263
0
LINE
8
BLACK
10
35.01
20
-34.8263
11
35.4026
21
-35.2196
0
LINE
8
BLACK
10
35.4026
20
-35.2196
11
35.9159
21
-35.4328
0
LINE
8
BLACK
10
35.9159
20
-35.4328
11
36.4717
21
-35.4332
0
LINE
8
BLACK
10
36.4717
20
-35.4332
11
36.9853
21
-35.221
0
LINE
8
BLACK
10
36.9853
20
-35.221
11
37.3786
21
-34.8284
0
LINE
8
BLACK
10
37.3786
20
-34.8284
11
37.5918
21
-34.3151
0
LINE
8
BLACK
10
37.5918
20
-34.3151
11
37.5922
21
-33.7593
0
LINE
8
BLACK
10
37.5922
20
-33.7593
11
37.5922
21
-37.4649
0
LINE
8
BLACK
10
37.5922
20
-37.4649
11
36.4502
21
-37.4649
0
LINE
8
BLACK
10
36.4502
20
-37.4649
11
36.2168
21
-37.5614
0
LINE
8
BLACK
10
36.2168
20
-37.5614
11
36.038
21
-37.7398
0
LINE
8
BLACK
10
36.038
20
-37.7398
11
35.9411
21
-37.9731
0
LINE
8
BLACK
10
35.9411
20
-37.9731
11
35.9409
21
-38.2258
0
LINE
8
BLACK
10
35.9409
20
-38.2258
11
35.9409
21
-39.7498
0
LINE
8
BLACK
10
35.9409
20
-39.7498
11
36.0374
21
-39.9832
0
LINE
8
BLACK
10
36.0374
20
-39.9832
11
36.2158
21
-40.162
0
LINE
8
BLACK
10
36.2158
20
-40.162
11
36.4491
21
-40.2589
0
LINE
8
BLACK
10
36.4491
20
-40.2589
11
36.7018
21
-40.2591
0
LINE
8
BLACK
10
36.7018
20
-40.2591
11
38.2258
21
-40.2591
0
LINE
8
BLACK
10
38.2258
20
-40.2591
11
38.4592
21
-40.1626
0
LINE
8
BLACK
10
38.4592
20
-40.1626
11
38.638
21
-39.9842
0
LINE
8
BLACK
10
38.638
20
-39.9842
11
38.7349
21
-39.7509
0
LINE
8
BLACK
10
38.7349
20
-39.7509
11
38.7349
21
-39.6943
0
LINE
8
BLACK
10
38.7349
20
-39.6943
11
39.0856
21
-40.0456
0
LINE
8
BLACK
10
39.0856
20
-40.0456
11
39.5989
21
-40.2588
0
LINE
8
BLACK
10
39.5989
20
-40.2588
11
40.1547
21
-40.2592
0
LINE
8
BLACK
10
40.1547
20
-40.2592
11
40.6683
21
-40.047
0
LINE
8
BLACK
10
40.6683
20
-40.047
11
41.0616
21
-39.6544
0
LINE
8
BLACK
10
41.0616
20
-39.6544
11
41.2748
21
-39.1411
0
LINE
8
BLACK
10
41.2748
20
-39.1411
11
41.2752
21
-38.5853
0
LINE
8
BLACK
10
41.2752
20
-38.5853
11
41.2752
21
-58.1745
0
LINE
8
BLACK
10
41.2752
20
-58.1745
11
39.8275
21
-58.1745
0
LINE
8
BLACK
10
39.8275
20
-58.1745
11
39.8275
21
-46.9522
0
LINE
8
BLACK
10
39.8275
20
-46.9522
11
39.6036
21
-46.4106
0
LINE
8
BLACK
10
39.6036
20
-46.4106
11
39.1896
21
-45.9958
0
LINE
8
BLACK
10
39.1896
20
-45.9958
11
38.6483
21
-45.7711
0
LINE
8
BLACK
10
38.6483
20
-45.7711
11
38.0622
21
-45.7705
0
LINE
8
BLACK
10
38.0622
20
-45.7705
11
37.5206
21
-45.9944
0
LINE
8
BLACK
10
37.5206
20
-45.9944
11
37.1058
21
-46.4084
0
LINE
8
BLACK
10
37.1058
20
-46.4084
11
37.0842
21
-46.4604
0
LINE
8
BLACK
10
37.0842
20
-46.4604
11
37.0636
21
-46.4106
0
LINE
8
BLACK
10
37.0636
20
-46.4106
11
36.6496
21
-45.9958
0
LINE
8
BLACK
10
36.6496
20
-45.9958
11
36.1083
21
-45.7711
0
LINE
8
BLACK
10
36.1083
20
-45.7711
11
35.5222
21
-45.7705
0
LINE
8
BLACK
10
35.5222
20
-45.7705
11
34.9806
21
-45.9944
0
LINE
8
BLACK
10
34.9806
20
-45.9944
11
34.5658
21
-46.4084
0
LINE
8
BLACK
10
34.5658
20
-46.4084
11
34.3411
21
-46.9497
0
LINE
8
BLACK
10
34.3411
20
-46.9497
11
34.3407
21
-47.3703
0
LINE
8
BLACK
10
34.3407
20
-47.3703
11
32.8932
21
-48.8177
0
LINE
8
BLACK
10
32.8932
20
-48.8177
11
32.8932
21
-40.2363
0
LINE
8
BLACK
10
32.8932
20
-40.2363
11
32.681
21
-39.7227
0
LINE
8
BLACK
10
32.681
20
-39.7227
11
32.2884
21
-39.3294
0
LINE
8
BLACK
10
32.2884
20
-39.3294
11
31.7751
21
-39.1162
0
LINE
8
BLACK
10
31.7751
20
-39.1162
11
31.2193
21
-39.1158
0
LINE
8
BLACK
10
31.2193
20
-39.1158
11
30.7057
21
-39.328
0
LINE
8
BLACK
10
30.7057
20
-39.328
11
30.3124
21
-39.7206
0
LINE
8
BLACK
10
30.3124
20
-39.7206
11
30.1475
21
-40.1177
0
LINE
8
BLACK
10
30.1475
20
-40.1177
11
30.1475
21
-36.754
0
LINE
8
BLACK
10
30.1475
20
-36.754
11
29.9333
21
-36.2357
0
LINE
8
BLACK
10
29.9333
20
-36.2357
11
29.5371
21
-35.8388
0
LINE
8
BLACK
10
29.5371
20
-35.8388
11
29.0192
21
-35.6237
0
LINE
8
BLACK
10
29.0192
20
-35.6237
11
28.4584
21
-35.6233
0
LINE
8
BLACK
10
28.4584
20
-35.6233
11
27.9401
21
-35.8374
0
LINE
8
BLACK
10
27.9401
20
-35.8374
11
27.7497
21
-36.0275
0
LINE
8
BLACK
10
27.7497
20
-36.0275
11
27.7497
21
-35.3462
0
LINE
8
BLACK
10
27.7497
20
-35.3462
11
27.5857
21
-34.9493
0
LINE
8
BLACK
10
27.5857
20
-34.9493
11
27.2823
21
-34.6454
0
LINE
8
BLACK
10
27.2823
20
-34.6454
11
27.1782
21
-34.6022
0
LINE
8
BLACK
10
27.1782
20
-34.6022
11
27.1782
21
-31.7273
0
LINE
8
BLACK
10
27.1782
20
-31.7273
11
26.966
21
-31.2137
0
LINE
8
BLACK
10
26.966
20
-31.2137
11
26.5734
21
-30.8204
0
LINE
8
BLACK
10
26.5734
20
-30.8204
11
26.0601
21
-30.6072
0
LINE
8
BLACK
10
26.0601
20
-30.6072
11
25.5043
21
-30.6068
0
LINE
8
BLACK
10
25.5043
20
-30.6068
11
24.9907
21
-30.819
0
LINE
8
BLACK
10
24.9907
20
-30.819
11
24.5974
21
-31.2116
0
LINE
8
BLACK
10
24.5974
20
-31.2116
11
24.3842
21
-31.7249
0
LINE
8
BLACK
10
24.3842
20
-31.7249
11
24.3838
21
-32.2807
0
LINE
8
BLACK
10
24.3838
20
-32.2807
11
24.4068
21
-32.3365
0
LINE
8
BLACK
10
24.4068
20
-32.3365
11
22.0689
21
-34.6744
0
LINE
8
BLACK
10
22.0689
20
-34.6744
11
21.6024
21
-34.4807
0
LINE
8
BLACK
10
21.6024
20
-34.4807
11
21.0719
21
-34.4803
0
LINE
8
BLACK
10
21.0719
20
-34.4803
11
20.5816
21
-34.6829
0
LINE
8
BLACK
10
20.5816
20
-34.6829
11
20.2062
21
-35.0576
0
LINE
8
BLACK
10
20.2062
20
-35.0576
11
20.0659
21
-35.3954
0
LINE
8
BLACK
10
20.0659
20
-35.3954
11
19.9271
21
-35.0596
0
LINE
8
BLACK
10
19.9271
20
-35.0596
11
19.5524
21
-34.6842
0
LINE
8
BLACK
10
19.5524
20
-34.6842
11
19.0624
21
-34.4807
0
LINE
8
BLACK
10
19.0624
20
-34.4807
11
18.5319
21
-34.4803
0
LINE
8
BLACK
10
18.5319
20
-34.4803
11
18.4909
21
-34.4972
0
LINE
8
BLACK
10
18.4909
20
-34.4972
11
18.4909
21
-21.7825
0
LINE
8
BLACK
10
18.4909
20
-21.7825
11
18.4621
21
-21.2528
0
LINE
8
BLACK
10
18.4621
20
-21.2528
11
18.3148
21
-20.8971
0
LINE
8
BLACK
10
18.3148
20
-20.8971
11
18.0792
21
-20.8354
0
LINE
8
BLACK
10
18.0792
20
-20.8354
11
17.8996
21
-21.015
0
LINE
8
BLACK
10
17.8996
20
-21.015
11
17.8996
21
-20.6558
0
LINE
8
BLACK
10
17.8996
20
-20.6558
11
17.8379
21
-20.4202
0
LINE
8
BLACK
10
17.8379
20
-20.4202
11
17.3375
21
-20.2441
0
LINE
8
BLACK
10
17.3375
20
-20.2441
11
16.8078
21
-20.2729
0
LINE
8
BLACK
10
16.8078
20
-20.2729
11
16.4521
21
-20.4202
0
LINE
8
BLACK
10
16.4521
20
-20.4202
11
16.3904
21
-20.6558
0
LINE
8
BLACK
10
16.3904
20
-20.6558
11
17.145
21
-21.4104
0
LINE
8
BLACK
10
17.145
20
-21.4104
11
17.8996
21
-20.6558
0
LINE
8
BLACK
10
17.8996
20
-20.6558
11
17.8996
21
-21.015
0
LINE
8
BLACK
10
17.8996
20
-21.015
11
17.3246
21
-21.59
0
LINE
8
BLACK
10
17.3246
20
-21.59
11
18.0792
21
-22.3446
0
LINE
8
BLACK
10
18.0792
20
-22.3446
11
18.3148
21
-22.2829
0
LINE
8
BLACK
10
18.3148
20
-22.2829
11
18.4909
21
-21.7825
0
LINE
8
BLACK
10
18.4909
20
-21.7825
11
18.4909
21
-34.4972
0
LINE
8
BLACK
10
18.4909
20
-34.4972
11
18.4787
21
-34.5022
0
LINE
8
BLACK
10
18.4787
20
-34.5022
11
18.4787
21
-23.8659
0
LINE
8
BLACK
10
18.4787
20
-23.8659
11
18.2761
21
-23.3756
0
LINE
8
BLACK
10
18.2761
20
-23.3756
11
17.9014
21
-23.0002
0
LINE
8
BLACK
10
17.9014
20
-23.0002
11
17.5799
21
-22.8667
0
LINE
8
BLACK
10
17.5799
20
-22.8667
11
17.8379
21
-22.7598
0
LINE
8
BLACK
10
17.8379
20
-22.7598
11
17.8996
21
-22.5242
0
LINE
8
BLACK
10
17.8996
20
-22.5242
11
17.145
21
-21.7696
0
LINE
8
BLACK
10
17.145
20
-21.7696
11
16.9654
21
-21.9492
0
LINE
8
BLACK
10
16.9654
20
-21.9492
11
16.9654
21
-21.59
0
LINE
8
BLACK
10
16.9654
20
-21.59
11
16.2108
21
-20.8354
0
LINE
8
BLACK
10
16.2108
20
-20.8354
11
15.9752
21
-20.8971
0
LINE
8
BLACK
10
15.9752
20
-20.8971
11
15.7991
21
-21.3975
0
LINE
8
BLACK
10
15.7991
20
-21.3975
11
15.8279
21
-21.9272
0
LINE
8
BLACK
10
15.8279
20
-21.9272
11
15.9752
21
-22.2829
0
LINE
8
BLACK
10
15.9752
20
-22.2829
11
16.2108
21
-22.3446
0
LINE
8
BLACK
10
16.2108
20
-22.3446
11
16.9654
21
-21.59
0
LINE
8
BLACK
10
16.9654
20
-21.59
11
16.9654
21
-21.9492
0
LINE
8
BLACK
10
16.9654
20
-21.9492
11
16.3904
21
-22.5242
0
LINE
8
BLACK
10
16.3904
20
-22.5242
11
16.4521
21
-22.7598
0
LINE
8
BLACK
10
16.4521
20
-22.7598
11
16.7313
21
-22.8581
0
LINE
8
BLACK
10
16.7313
20
-22.8581
11
16.3906
21
-22.9989
0
LINE
8
BLACK
10
16.3906
20
-22.9989
11
16.0152
21
-23.3736
0
LINE
8
BLACK
10
16.0152
20
-23.3736
11
15.8117
21
-23.8636
0
LINE
8
BLACK
10
15.8117
20
-23.8636
11
15.8113
21
-24.3941
0
LINE
8
BLACK
10
15.8113
20
-24.3941
11
16.0139
21
-24.8844
0
LINE
8
BLACK
10
16.0139
20
-24.8844
11
16.3886
21
-25.2598
0
LINE
8
BLACK
10
16.3886
20
-25.2598
11
16.8786
21
-25.4633
0
LINE
8
BLACK
10
16.8786
20
-25.4633
11
17.4091
21
-25.4637
0
LINE
8
BLACK
10
17.4091
20
-25.4637
11
17.8994
21
-25.2611
0
LINE
8
BLACK
10
17.8994
20
-25.2611
11
18.2748
21
-24.8864
0
LINE
8
BLACK
10
18.2748
20
-24.8864
11
18.4783
21
-24.3964
0
LINE
8
BLACK
10
18.4783
20
-24.3964
11
18.4787
21
-23.8659
0
LINE
8
BLACK
10
18.4787
20
-23.8659
11
18.4787
21
-34.5022
0
LINE
8
BLACK
10
18.4787
20
-34.5022
11
18.0416
21
-34.6829
0
LINE
8
BLACK
10
18.0416
20
-34.6829
11
17.6662
21
-35.0576
0
LINE
8
BLACK
10
17.6662
20
-35.0576
11
17.4627
21
-35.5476
0
LINE
8
BLACK
10
17.4627
20
-35.5476
11
17.4623
21
-36.0781
0
LINE
8
BLACK
10
17.4623
20
-36.0781
11
17.6649
21
-36.5684
0
LINE
8
BLACK
10
17.6649
20
-36.5684
11
18.0396
21
-36.9438
0
LINE
8
BLACK
10
18.0396
20
-36.9438
11
18.5296
21
-37.1473
0
LINE
8
BLACK
10
18.5296
20
-37.1473
11
19.0601
21
-37.1477
0
LINE
8
BLACK
10
19.0601
20
-37.1477
11
19.5504
21
-36.9451
0
LINE
8
BLACK
10
19.5504
20
-36.9451
11
19.9258
21
-36.5704
0
LINE
8
BLACK
10
19.9258
20
-36.5704
11
20.0661
21
-36.2326
0
LINE
8
BLACK
10
20.0661
20
-36.2326
11
20.2049
21
-36.5684
0
LINE
8
BLACK
10
20.2049
20
-36.5684
11
20.5796
21
-36.9438
0
LINE
8
BLACK
10
20.5796
20
-36.9438
11
21.0696
21
-37.1473
0
LINE
8
BLACK
10
21.0696
20
-37.1473
11
21.6001
21
-37.1477
0
LINE
8
BLACK
10
21.6001
20
-37.1477
11
22.0904
21
-36.9451
0
LINE
8
BLACK
10
22.0904
20
-36.9451
11
22.4658
21
-36.5704
0
LINE
8
BLACK
10
22.4658
20
-36.5704
11
22.6146
21
-36.2121
0
LINE
8
BLACK
10
22.6146
20
-36.2121
11
25.4482
21
-33.3785
0
LINE
8
BLACK
10
25.4482
20
-33.3785
11
25.5019
21
-33.4008
0
LINE
8
BLACK
10
25.5019
20
-33.4008
11
26.0577
21
-33.4012
0
LINE
8
BLACK
10
26.0577
20
-33.4012
11
26.5713
21
-33.189
0
LINE
8
BLACK
10
26.5713
20
-33.189
11
26.9646
21
-32.7964
0
LINE
8
BLACK
10
26.9646
20
-32.7964
11
27.1778
21
-32.2831
0
LINE
8
BLACK
10
27.1778
20
-32.2831
11
27.1782
21
-31.7273
0
LINE
8
BLACK
10
27.1782
20
-31.7273
11
27.1782
21
-34.6022
0
LINE
8
BLACK
10
27.1782
20
-34.6022
11
26.8857
21
-34.4807
0
LINE
8
BLACK
10
26.8857
20
-34.4807
11
26.4562
21
-34.4803
0
LINE
8
BLACK
10
26.4562
20
-34.4803
11
26.0593
21
-34.6443
0
LINE
8
BLACK
10
26.0593
20
-34.6443
11
25.7554
21
-34.9477
0
LINE
8
BLACK
10
25.7554
20
-34.9477
11
25.6277
21
-35.2553
0
LINE
8
BLACK
10
25.6277
20
-35.2553
11
24.2085
21
-36.6745
0
LINE
8
BLACK
10
24.2085
20
-36.6745
11
24.002
21
-36.9835
0
LINE
8
BLACK
10
24.002
20
-36.9835
11
23.9295
21
-37.348
0
LINE
8
BLACK
10
23.9295
20
-37.348
11
23.9295
21
-45.0579
0
LINE
8
BLACK
10
23.9295
20
-45.0579
11
23.7228
21
-45.1434
0
LINE
8
BLACK
10
23.7228
20
-45.1434
11
23.544
21
-45.3218
0
LINE
8
BLACK
10
23.544
20
-45.3218
11
23.4471
21
-45.5551
0
LINE
8
BLACK
10
23.4471
20
-45.5551
11
23.4469
21
-45.8078
0
LINE
8
BLACK
10
23.4469
20
-45.8078
11
23.4469
21
-47.4078
0
LINE
8
BLACK
10
23.4469
20
-47.4078
11
23.5434
21
-47.6412
0
LINE
8
BLACK
10
23.5434
20
-47.6412
11
23.7218
21
-47.82
0
LINE
8
BLACK
10
23.7218
20
-47.82
11
23.9551
21
-47.9169
0
LINE
8
BLACK
10
23.9551
20
-47.9169
11
24.2078
21
-47.9171
0
LINE
8
BLACK
10
24.2078
20
-47.9171
11
25.8078
21
-47.9171
0
LINE
8
BLACK
10
25.8078
20
-47.9171
11
26.0412
21
-47.8206
0
LINE
8
BLACK
10
26.0412
20
-47.8206
11
26.22
21
-47.6422
0
LINE
8
BLACK
10
26.22
20
-47.6422
11
26.3169
21
-47.4089
0
LINE
8
BLACK
10
26.3169
20
-47.4089
11
26.3171
21
-47.1562
0
LINE
8
BLACK
10
26.3171
20
-47.1562
11
26.3171
21
-45.5562
0
LINE
8
BLACK
10
26.3171
20
-45.5562
11
26.2206
21
-45.3228
0
LINE
8
BLACK
10
26.2206
20
-45.3228
11
26.0422
21
-45.144
0
LINE
8
BLACK
10
26.0422
20
-45.144
11
25.8345
21
-45.0578
0
LINE
8
BLACK
10
25.8345
20
-45.0578
11
25.8345
21
-37.7425
0
LINE
8
BLACK
10
25.8345
20
-37.7425
11
26.9751
21
-36.602
0
LINE
8
BLACK
10
26.9751
20
-36.602
11
27.2807
21
-36.4757
0
LINE
8
BLACK
10
27.2807
20
-36.4757
11
27.5846
21
-36.1723
0
LINE
8
BLACK
10
27.5846
20
-36.1723
11
27.7493
21
-35.7757
0
LINE
8
BLACK
10
27.7493
20
-35.7757
11
27.7497
21
-35.3462
0
LINE
8
BLACK
10
27.7497
20
-35.3462
11
27.7497
21
-36.0275
0
LINE
8
BLACK
10
27.7497
20
-36.0275
11
27.5432
21
-36.2336
0
LINE
8
BLACK
10
27.5432
20
-36.2336
11
27.3281
21
-36.7516
0
LINE
8
BLACK
10
27.3281
20
-36.7516
11
27.3276
21
-37.3124
0
LINE
8
BLACK
10
27.3276
20
-37.3124
11
27.5418
21
-37.8307
0
LINE
8
BLACK
10
27.5418
20
-37.8307
11
27.938
21
-38.2276
0
LINE
8
BLACK
10
27.938
20
-38.2276
11
28.4559
21
-38.4427
0
LINE
8
BLACK
10
28.4559
20
-38.4427
11
29.0167
21
-38.4431
0
LINE
8
BLACK
10
29.0167
20
-38.4431
11
29.535
21
-38.229
0
LINE
8
BLACK
10
29.535
20
-38.229
11
29.9319
21
-37.8328
0
LINE
8
BLACK
10
29.9319
20
-37.8328
11
30.147
21
-37.3148
0
LINE
8
BLACK
10
30.147
20
-37.3148
11
30.1475
21
-36.754
0
LINE
8
BLACK
10
30.1475
20
-36.754
11
30.1475
21
-40.1177
0
LINE
8
BLACK
10
30.1475
20
-40.1177
11
30.0992
21
-40.2339
0
LINE
8
BLACK
10
30.0992
20
-40.2339
11
30.0988
21
-40.7897
0
LINE
8
BLACK
10
30.0988
20
-40.7897
11
30.311
21
-41.3033
0
LINE
8
BLACK
10
30.311
20
-41.3033
11
30.7036
21
-41.6966
0
LINE
8
BLACK
10
30.7036
20
-41.6966
11
31.2169
21
-41.9098
0
LINE
8
BLACK
10
31.2169
20
-41.9098
11
31.7727
21
-41.9102
0
LINE
8
BLACK
10
31.7727
20
-41.9102
11
32.2863
21
-41.698
0
LINE
8
BLACK
10
32.2863
20
-41.698
11
32.6796
21
-41.3054
0
LINE
8
BLACK
10
32.6796
20
-41.3054
11
32.8928
21
-40.7921
0
LINE
8
BLACK
10
32.8928
20
-40.7921
11
32.8932
21
-40.2363
0
LINE
8
BLACK
10
32.8932
20
-40.2363
11
32.8932
21
-48.8177
0
LINE
8
BLACK
10
32.8932
20
-48.8177
11
31.1271
21
-50.5839
0
LINE
8
BLACK
10
31.1271
20
-50.5839
11
30.7057
21
-50.758
0
LINE
8
BLACK
10
30.7057
20
-50.758
11
30.3124
21
-51.1506
0
LINE
8
BLACK
10
30.3124
20
-51.1506
11
30.0992
21
-51.6639
0
LINE
8
BLACK
10
30.0992
20
-51.6639
11
30.0988
21
-52.2197
0
LINE
8
BLACK
10
30.0988
20
-52.2197
11
30.311
21
-52.7333
0
LINE
8
BLACK
10
30.311
20
-52.7333
11
30.7036
21
-53.1266
0
LINE
8
BLACK
10
30.7036
20
-53.1266
11
31.2169
21
-53.3398
0
LINE
8
BLACK
10
31.2169
20
-53.3398
11
31.7727
21
-53.3402
0
LINE
8
BLACK
10
31.7727
20
-53.3402
11
32.2863
21
-53.128
0
LINE
8
BLACK
10
32.2863
20
-53.128
11
32.6796
21
-52.7354
0
LINE
8
BLACK
10
32.6796
20
-52.7354
11
32.8928
21
-52.2221
0
LINE
8
BLACK
10
32.8928
20
-52.2221
11
32.8932
21
-51.6663
0
LINE
8
BLACK
10
32.8932
20
-51.6663
11
32.8481
21
-51.557
0
LINE
8
BLACK
10
32.8481
20
-51.557
11
35.6879
21
-48.7171
0
LINE
8
BLACK
10
35.6879
20
-48.7171
11
36.1058
21
-48.7175
0
LINE
8
BLACK
10
36.1058
20
-48.7175
11
36.6474
21
-48.4936
0
LINE
8
BLACK
10
36.6474
20
-48.4936
11
37.0622
21
-48.0796
0
LINE
8
BLACK
10
37.0622
20
-48.0796
11
37.0838
21
-48.0276
0
LINE
8
BLACK
10
37.0838
20
-48.0276
11
37.1044
21
-48.0774
0
LINE
8
BLACK
10
37.1044
20
-48.0774
11
37.5184
21
-48.4922
0
LINE
8
BLACK
10
37.5184
20
-48.4922
11
38.0597
21
-48.7169
0
LINE
8
BLACK
10
38.0597
20
-48.7169
11
38.6458
21
-48.7175
0
LINE
8
BLACK
10
38.6458
20
-48.7175
11
39.1874
21
-48.4936
0
LINE
8
BLACK
10
39.1874
20
-48.4936
11
39.6022
21
-48.0796
0
LINE
8
BLACK
10
39.6022
20
-48.0796
11
39.8269
21
-47.5383
0
LINE
8
BLACK
10
39.8269
20
-47.5383
11
39.8275
21
-46.9522
0
LINE
8
BLACK
10
39.8275
20
-46.9522
11
39.8275
21
-58.1745
0
LINE
8
BLACK
10
39.8275
20
-58.1745
11
18.7172
21
-58.1745
0
LINE
8
BLACK
10
18.7172
20
-58.1745
11
18.7172
21
-46.1978
0
LINE
8
BLACK
10
18.7172
20
-46.1978
11
18.4992
21
-45.6702
0
LINE
8
BLACK
10
18.4992
20
-45.6702
11
18.0959
21
-45.2662
0
LINE
8
BLACK
10
18.0959
20
-45.2662
11
17.5687
21
-45.0473
0
LINE
8
BLACK
10
17.5687
20
-45.0473
11
16.9978
21
-45.0468
0
LINE
8
BLACK
10
16.9978
20
-45.0468
11
16.4702
21
-45.2648
0
LINE
8
BLACK
10
16.4702
20
-45.2648
11
16.0662
21
-45.6681
0
LINE
8
BLACK
10
16.0662
20
-45.6681
11
15.8473
21
-46.1953
0
LINE
8
BLACK
10
15.8473
20
-46.1953
11
15.8468
21
-46.7662
0
LINE
8
BLACK
10
15.8468
20
-46.7662
11
16.0648
21
-47.2938
0
LINE
8
BLACK
10
16.0648
20
-47.2938
11
16.4681
21
-47.6978
0
LINE
8
BLACK
10
16.4681
20
-47.6978
11
16.9953
21
-47.9168
0
LINE
8
BLACK
10
16.9953
20
-47.9168
11
17.5662
21
-47.9172
0
LINE
8
BLACK
10
17.5662
20
-47.9172
11
18.0938
21
-47.6992
0
LINE
8
BLACK
10
18.0938
20
-47.6992
11
18.4978
21
-47.2959
0
LINE
8
BLACK
10
18.4978
20
-47.2959
11
18.7168
21
-46.7687
0
LINE
8
BLACK
10
18.7168
20
-46.7687
11
18.7172
21
-46.1978
0
LINE
8
BLACK
10
18.7172
20
-46.1978
11
18.7172
21
-58.1745
0
LINE
8
BLACK
10
18.7172
20
-58.1745
11
16.2128
21
-58.1745
0
LINE
8
BLACK
10
16.2128
20
-58.1745
11
17.2281
21
-57.161
0
LINE
8
BLACK
10
17.2281
20
-57.161
11
17.8093
21
-55.7612
0
LINE
8
BLACK
10
17.8093
20
-55.7612
11
17.8107
21
-54.2455
0
LINE
8
BLACK
10
17.8107
20
-54.2455
11
17.2318
21
-52.8446
0
LINE
8
BLACK
10
17.2318
20
-52.8446
11
16.161
21
-51.7719
0
LINE
8
BLACK
10
16.161
20
-51.7719
11
15.7601
21
-51.6055
0
LINE
8
BLACK
10
15.7601
20
-51.6055
11
15.7601
21
-32.2117
0
LINE
8
BLACK
10
15.7601
20
-32.2117
11
15.7324
21
-31.6566
0
LINE
8
BLACK
10
15.7324
20
-31.6566
11
15.5734
21
-31.2729
0
LINE
8
BLACK
10
15.5734
20
-31.2729
11
15.3312
21
-31.2034
0
LINE
8
BLACK
10
15.3312
20
-31.2034
11
15.1516
21
-31.383
0
LINE
8
BLACK
10
15.1516
20
-31.383
11
15.1516
21
-31.0238
0
LINE
8
BLACK
10
15.1516
20
-31.0238
11
15.0821
21
-30.7816
0
LINE
8
BLACK
10
15.0821
20
-30.7816
11
14.5587
21
-30.5949
0
LINE
8
BLACK
10
14.5587
20
-30.5949
11
14.0036
21
-30.6226
0
LINE
8
BLACK
10
14.0036
20
-30.6226
11
13.6199
21
-30.7816
0
LINE
8
BLACK
10
13.6199
20
-30.7816
11
13.5504
21
-31.0238
0
LINE
8
BLACK
10
13.5504
20
-31.0238
11
14.351
21
-31.8244
0
LINE
8
BLACK
10
14.351
20
-31.8244
11
15.1516
21
-31.0238
0
LINE
8
BLACK
10
15.1516
20
-31.0238
11
15.1516
21
-31.383
0
LINE
8
BLACK
10
15.1516
20
-31.383
11
14.5306
21
-32.004
0
LINE
8
BLACK
10
14.5306
20
-32.004
11
15.3312
21
-32.8046
0
LINE
8
BLACK
10
15.3312
20
-32.8046
11
15.5734
21
-32.7351
0
LINE
8
BLACK
10
15.5734
20
-32.7351
11
15.7601
21
-32.2117
0
LINE
8
BLACK
10
15.7601
20
-32.2117
11
15.7601
21
-51.6055
0
LINE
8
BLACK
10
15.7601
20
-51.6055
11
15.1516
21
-51.3528
0
LINE
8
BLACK
10
15.1516
20
-51.3528
11
15.1516
21
-32.9842
0
LINE
8
BLACK
10
15.1516
20
-32.9842
11
14.351
21
-32.1836
0
LINE
8
BLACK
10
14.351
20
-32.1836
11
14.1714
21
-32.3632
0
LINE
8
BLACK
10
14.1714
20
-32.3632
11
14.1714
21
-32.004
0
LINE
8
BLACK
10
14.1714
20
-32.004
11
13.3708
21
-31.2034
0
LINE
8
BLACK
10
13.3708
20
-31.2034
11
13.1286
21
-31.2729
0
LINE
8
BLACK
10
13.1286
20
-31.2729
11
12.9419
21
-31.7963
0
LINE
8
BLACK
10
12.9419
20
-31.7963
11
12.9696
21
-32.3514
0
LINE
8
BLACK
10
12.9696
20
-32.3514
11
13.1286
21
-32.7351
0
LINE
8
BLACK
10
13.1286
20
-32.7351
11
13.3708
21
-32.8046
0
LINE
8
BLACK
10
13.3708
20
-32.8046
11
14.1714
21
-32.004
0
LINE
8
BLACK
10
14.1714
20
-32.004
11
14.1714
21
-32.3632
0
LINE
8
BLACK
10
14.1714
20
-32.3632
11
13.5504
21
-32.9842
0
LINE
8
BLACK
10
13.5504
20
-32.9842
11
13.6199
21
-33.2264
0
LINE
8
BLACK
10
13.6199
20
-33.2264
11
14.1433
21
-33.4131
0
LINE
8
BLACK
10
14.1433
20
-33.4131
11
14.6984
21
-33.3854
0
LINE
8
BLACK
10
14.6984
20
-33.3854
11
15.0821
21
-33.2264
0
LINE
8
BLACK
10
15.0821
20
-33.2264
11
15.1516
21
-32.9842
0
LINE
8
BLACK
10
15.1516
20
-32.9842
11
15.1516
21
-51.3528
0
LINE
8
BLACK
10
15.1516
20
-51.3528
11
14.7612
21
-51.1907
0
LINE
8
BLACK
10
14.7612
20
-51.1907
11
13.2455
21
-51.1893
0
LINE
8
BLACK
10
13.2455
20
-51.1893
11
11.8446
21
-51.7682
0
LINE
8
BLACK
10
11.8446
20
-51.7682
11
10.8255
21
-52.7855
0
LINE
8
BLACK
10
10.8255
20
-52.7855
11
10.8255
21
-16.2128
0
LINE
8
BLACK
10
10.8255
20
-16.2128
11
11.839
21
-17.2281
0
LINE
8
BLACK
10
11.839
20
-17.2281
11
13.2388
21
-17.8093
0
LINE
8
BLACK
10
13.2388
20
-17.8093
11
14.7545
21
-17.8107
0
LINE
8
BLACK
10
14.7545
20
-17.8107
11
16.1554
21
-17.2318
0
LINE
8
BLACK
10
16.1554
20
-17.2318
11
17.2281
21
-16.161
0
LINE
8
BLACK
10
17.2281
20
-16.161
11
17.8093
21
-14.7612
0
LINE
8
BLACK
10
17.8093
20
-14.7612
11
17.8107
21
-13.2455
0
LINE
8
BLACK
10
17.8107
20
-13.2455
11
17.2318
21
-11.8446
0
LINE
8
BLACK
10
17.2318
20
-11.8446
11
16.2145
21
-10.8255
0
LINE
8
BLACK
10
16.2145
20
-10.8255
11
52.7872
21
-10.8255
0
LINE
8
BLACK
10
52.7872
20
-10.8255
11
51.7719
21
-11.839
0
LINE
8
BLACK
10
51.7719
20
-11.839
11
51.1907
21
-13.2388
0
LINE
8
BLACK
10
51.1907
20
-13.2388
11
51.1893
21
-14.7545
0
LINE
8
BLACK
10
51.1893
20
-14.7545
11
51.7682
21
-16.1554
0
LINE
8
BLACK
10
51.7682
20
-16.1554
11
52.839
21
-17.2281
0
LINE
8
BLACK
10
52.839
20
-17.2281
11
54.2388
21
-17.8093
0
LINE
8
BLACK
10
54.2388
20
-17.8093
11
55.7545
21
-17.8107
0
LINE
8
BLACK
10
55.7545
20
-17.8107
11
57.1554
21
-17.2318
0
LINE
8
BLACK
10
57.1554
20
-17.2318
11
58.1745
21
-16.2145
0
LINE
8
BLACK
10
58.1745
20
-16.2145
11
58.1745
21
-52.7872
0
LINE
8
BLACK
10
58.1745
20
-52.7872
11
57.4043
21
-52.0156
0
LINE
8
BLACK
10
57.4043
20
-52.0156
11
57.4043
21
-45.1642
0
LINE
8
BLACK
10
57.4043
20
-45.1642
11
57.4041
21
-45.1638
0
LINE
8
BLACK
10
57.4041
20
-45.1638
11
57.4041
21
-33.5292
0
LINE
8
BLACK
10
57.4041
20
-33.5292
11
57.4041
21
-31.7512
0
LINE
8
BLACK
10
57.4041
20
-31.7512
11
57.3076
21
-31.5178
0
LINE
8
BLACK
10
57.3076
20
-31.5178
11
57.1292
21
-31.339
0
LINE
8
BLACK
10
57.1292
20
-31.339
11
56.8959
21
-31.2421
0
LINE
8
BLACK
10
56.8959
20
-31.2421
11
56.8325
21
-31.2421
0
LINE
8
BLACK
10
56.8325
20
-31.2421
11
56.8325
21
-30.1715
0
LINE
8
BLACK
10
56.8325
20
-30.1715
11
56.926
21
-30.0782
0
LINE
8
BLACK
10
56.926
20
-30.0782
11
57.0229
21
-29.8449
0
LINE
8
BLACK
10
57.0229
20
-29.8449
11
57.0231
21
-29.5922
0
LINE
8
BLACK
10
57.0231
20
-29.5922
11
57.0231
21
-27.5602
0
LINE
8
BLACK
10
57.0231
20
-27.5602
11
56.9266
21
-27.3268
0
LINE
8
BLACK
10
56.9266
20
-27.3268
11
56.7482
21
-27.148
0
LINE
8
BLACK
10
56.7482
20
-27.148
11
56.5149
21
-27.0511
0
LINE
8
BLACK
10
56.5149
20
-27.0511
11
56.2622
21
-27.0509
0
LINE
8
BLACK
10
56.2622
20
-27.0509
11
56.0579
21
-27.0509
0
LINE
8
BLACK
10
56.0579
20
-27.0509
11
56.0579
21
-22.9882
0
LINE
8
BLACK
10
56.0579
20
-22.9882
11
56.0579
21
-21.2078
0
LINE
8
BLACK
10
56.0579
20
-21.2078
11
56.0577
21
-20.9551
0
LINE
8
BLACK
10
56.0577
20
-20.9551
11
55.9608
21
-20.7218
0
LINE
8
BLACK
10
55.9608
20
-20.7218
11
55.782
21
-20.5434
0
LINE
8
BLACK
10
55.782
20
-20.5434
11
55.5486
21
-20.4469
0
LINE
8
BLACK
10
55.5486
20
-20.4469
11
53.8798
21
-20.447
0
LINE
8
BLACK
10
53.8798
20
-20.447
11
53.721
21
-20.6058
0
LINE
8
BLACK
10
53.721
20
-20.6058
11
53.721
21
-21.971
0
LINE
8
BLACK
10
53.721
20
-21.971
11
55.8991
21
-21.971
0
LINE
8
BLACK
10
55.8991
20
-21.971
11
56.0578
21
-21.8123
0
LINE
8
BLACK
10
56.0578
20
-21.8123
11
56.0579
21
-21.2078
0
LINE
8
BLACK
10
56.0579
20
-21.2078
11
56.0579
21
-22.9882
0
LINE
8
BLACK
10
56.0579
20
-22.9882
11
56.0578
21
-22.3838
0
LINE
8
BLACK
10
56.0578
20
-22.3838
11
55.8991
21
-22.225
0
LINE
8
BLACK
10
55.8991
20
-22.225
11
53.721
21
-22.225
0
LINE
8
BLACK
10
53.721
20
-22.225
11
53.721
21
-23.5903
0
LINE
8
BLACK
10
53.721
20
-23.5903
11
53.8798
21
-23.749
0
LINE
8
BLACK
10
53.8798
20
-23.749
11
55.5486
21
-23.7491
0
LINE
8
BLACK
10
55.5486
20
-23.7491
11
55.782
21
-23.6526
0
LINE
8
BLACK
10
55.782
20
-23.6526
11
55.9608
21
-23.4742
0
LINE
8
BLACK
10
55.9608
20
-23.4742
11
56.0577
21
-23.2409
0
LINE
8
BLACK
10
56.0577
20
-23.2409
11
56.0579
21
-22.9882
0
LINE
8
BLACK
10
56.0579
20
-22.9882
11
56.0579
21
-27.0509
0
LINE
8
BLACK
10
56.0579
20
-27.0509
11
55.2462
21
-27.0509
0
LINE
8
BLACK
10
55.2462
20
-27.0509
11
55.0128
21
-27.1474
0
LINE
8
BLACK
10
55.0128
20
-27.1474
11
54.834
21
-27.3258
0
LINE
8
BLACK
10
54.834
20
-27.3258
11
54.7371
21
-27.5591
0
LINE
8
BLACK
10
54.7371
20
-27.5591
11
54.737
21
-27.686
0
LINE
8
BLACK
10
54.737
20
-27.686
11
54.7369
21
-27.5591
0
LINE
8
BLACK
10
54.7369
20
-27.5591
11
54.64
21
-27.3258
0
LINE
8
BLACK
10
54.64
20
-27.3258
11
54.4612
21
-27.1474
0
LINE
8
BLACK
10
54.4612
20
-27.1474
11
54.2278
21
-27.0509
0
LINE
8
BLACK
10
54.2278
20
-27.0509
11
53.8798
21
-27.051
0
LINE
8
BLACK
10
53.8798
20
-27.051
11
53.721
21
-27.2098
0
LINE
8
BLACK
10
53.721
20
-27.2098
11
53.721
21
-28.575
0
LINE
8
BLACK
10
53.721
20
-28.575
11
53.741
21
-28.575
0
LINE
8
BLACK
10
53.741
20
-28.575
11
53.741
21
-28.829
0
LINE
8
BLACK
10
53.741
20
-28.829
11
53.721
21
-28.829
0
LINE
8
BLACK
10
53.721
20
-28.829
11
53.721
21
-30.1943
0
LINE
8
BLACK
10
53.721
20
-30.1943
11
53.8798
21
-30.353
0
LINE
8
BLACK
10
53.8798
20
-30.353
11
54.2278
21
-30.3531
0
LINE
8
BLACK
10
54.2278
20
-30.3531
11
54.4612
21
-30.2566
0
LINE
8
BLACK
10
54.4612
20
-30.2566
11
54.64
21
-30.0782
0
LINE
8
BLACK
10
54.64
20
-30.0782
11
54.7369
21
-29.8449
0
LINE
8
BLACK
10
54.7369
20
-29.8449
11
54.7369
21
-29.8437
0
LINE
8
BLACK
10
54.7369
20
-29.8437
11
54.7369
21
-29.8438
0
LINE
8
BLACK
10
54.7369
20
-29.8438
11
54.8334
21
-30.0772
0
LINE
8
BLACK
10
54.8334
20
-30.0772
11
54.9275
21
-30.1715
0
LINE
8
BLACK
10
54.9275
20
-30.1715
11
54.9275
21
-31.2419
0
LINE
8
BLACK
10
54.9275
20
-31.2419
11
54.8652
21
-31.2419
0
LINE
8
BLACK
10
54.8652
20
-31.2419
11
54.6318
21
-31.3384
0
LINE
8
BLACK
10
54.6318
20
-31.3384
11
54.453
21
-31.5168
0
LINE
8
BLACK
10
54.453
20
-31.5168
11
54.3561
21
-31.7501
0
LINE
8
BLACK
10
54.3561
20
-31.7501
11
54.3561
21
-31.8135
0
LINE
8
BLACK
10
54.3561
20
-31.8135
11
53.467
21
-31.8135
0
LINE
8
BLACK
10
53.467
20
-31.8135
11
53.467
21
-30.1943
0
LINE
8
BLACK
10
53.467
20
-30.1943
11
53.467
21
-28.829
0
LINE
8
BLACK
10
53.467
20
-28.829
11
53.447
21
-28.829
0
LINE
8
BLACK
10
53.447
20
-28.829
11
53.447
21
-28.575
0
LINE
8
BLACK
10
53.447
20
-28.575
11
53.467
21
-28.575
0
LINE
8
BLACK
10
53.467
20
-28.575
11
53.467
21
-27.2098
0
LINE
8
BLACK
10
53.467
20
-27.2098
11
53.467
21
-23.5903
0
LINE
8
BLACK
10
53.467
20
-23.5903
11
53.467
21
-22.225
0
LINE
8
BLACK
10
53.467
20
-22.225
11
53.467
21
-21.971
0
LINE
8
BLACK
10
53.467
20
-21.971
11
53.467
21
-20.6058
0
LINE
8
BLACK
10
53.467
20
-20.6058
11
53.3083
21
-20.447
0
LINE
8
BLACK
10
53.3083
20
-20.447
11
51.6394
21
-20.4469
0
LINE
8
BLACK
10
51.6394
20
-20.4469
11
51.406
21
-20.5434
0
LINE
8
BLACK
10
51.406
20
-20.5434
11
51.2272
21
-20.7218
0
LINE
8
BLACK
10
51.2272
20
-20.7218
11
51.1303
21
-20.9551
0
LINE
8
BLACK
10
51.1303
20
-20.9551
11
51.1301
21
-21.2078
0
LINE
8
BLACK
10
51.1301
20
-21.2078
11
51.1302
21
-21.8123
0
LINE
8
BLACK
10
51.1302
20
-21.8123
11
51.289
21
-21.971
0
LINE
8
BLACK
10
51.289
20
-21.971
11
53.467
21
-21.971
0
LINE
8
BLACK
10
53.467
20
-21.971
11
53.467
21
-22.225
0
LINE
8
BLACK
10
53.467
20
-22.225
11
51.289
21
-22.225
0
LINE
8
BLACK
10
51.289
20
-22.225
11
51.1302
21
-22.3838
0
LINE
8
BLACK
10
51.1302
20
-22.3838
11
51.1301
21
-22.9882
0
LINE
8
BLACK
10
51.1301
20
-22.9882
11
51.1303
21
-23.2409
0
LINE
8
BLACK
10
51.1303
20
-23.2409
11
51.2272
21
-23.4742
0
LINE
8
BLACK
10
51.2272
20
-23.4742
11
51.406
21
-23.6526
0
LINE
8
BLACK
10
51.406
20
-23.6526
11
51.6394
21
-23.7491
0
LINE
8
BLACK
10
51.6394
20
-23.7491
11
53.3083
21
-23.749
0
LINE
8
BLACK
10
53.3083
20
-23.749
11
53.467
21
-23.5903
0
LINE
8
BLACK
10
53.467
20
-23.5903
11
53.467
21
-27.2098
0
LINE
8
BLACK
10
53.467
20
-27.2098
11
53.3083
21
-27.051
0
LINE
8
BLACK
10
53.3083
20
-27.051
11
52.9602
21
-27.0509
0
LINE
8
BLACK
10
52.9602
20
-27.0509
11
52.7268
21
-27.1474
0
LINE
8
BLACK
10
52.7268
20
-27.1474
11
52.548
21
-27.3258
0
LINE
8
BLACK
10
52.548
20
-27.3258
11
52.4511
21
-27.5591
0
LINE
8
BLACK
10
52.4511
20
-27.5591
11
52.4511
21
-27.5602
0
LINE
8
BLACK
10
52.4511
20
-27.5602
11
52.3546
21
-27.3268
0
LINE
8
BLACK
10
52.3546
20
-27.3268
11
52.1762
21
-27.148
0
LINE
8
BLACK
10
52.1762
20
-27.148
11
51.9429
21
-27.0511
0
LINE
8
BLACK
10
51.9429
20
-27.0511
11
51.6902
21
-27.0509
0
LINE
8
BLACK
10
51.6902
20
-27.0509
11
50.6742
21
-27.0509
0
LINE
8
BLACK
10
50.6742
20
-27.0509
11
50.4408
21
-27.1474
0
LINE
8
BLACK
10
50.4408
20
-27.1474
11
50.262
21
-27.3258
0
LINE
8
BLACK
10
50.262
20
-27.3258
11
50.1651
21
-27.5591
0
LINE
8
BLACK
10
50.1651
20
-27.5591
11
50.1649
21
-27.7495
0
LINE
8
BLACK
10
50.1649
20
-27.7495
11
49.149
21
-27.7495
0
LINE
8
BLACK
10
49.149
20
-27.7495
11
49.0222
21
-27.7747
0
LINE
8
BLACK
10
49.0222
20
-27.7747
11
49.0222
21
-26.1393
0
LINE
8
BLACK
10
49.0222
20
-26.1393
11
49.0098
21
-26.1093
0
LINE
8
BLACK
10
49.0098
20
-26.1093
11
49.0098
21
-19.7189
0
LINE
8
BLACK
10
49.0098
20
-19.7189
11
49.0098
21
-13.6229
0
LINE
8
BLACK
10
49.0098
20
-13.6229
11
48.5487
21
-12.5069
0
LINE
8
BLACK
10
48.5487
20
-12.5069
11
47.6956
21
-11.6523
0
LINE
8
BLACK
10
47.6956
20
-11.6523
11
46.5804
21
-11.1892
0
LINE
8
BLACK
10
46.5804
20
-11.1892
11
45.3729
21
-11.1882
0
LINE
8
BLACK
10
45.3729
20
-11.1882
11
44.2569
21
-11.6493
0
LINE
8
BLACK
10
44.2569
20
-11.6493
11
43.4023
21
-12.5024
0
LINE
8
BLACK
10
43.4023
20
-12.5024
11
42.9392
21
-13.6176
0
LINE
8
BLACK
10
42.9392
20
-13.6176
11
42.9387
21
-14.2619
0
LINE
8
BLACK
10
42.9387
20
-14.2619
11
42.6156
21
-13.9383
0
LINE
8
BLACK
10
42.6156
20
-13.9383
11
41.5004
21
-13.4752
0
LINE
8
BLACK
10
41.5004
20
-13.4752
11
40.2929
21
-13.4742
0
LINE
8
BLACK
10
40.2929
20
-13.4742
11
39.1769
21
-13.9353
0
LINE
8
BLACK
10
39.1769
20
-13.9353
11
38.3223
21
-14.7884
0
LINE
8
BLACK
10
38.3223
20
-14.7884
11
37.8592
21
-15.9036
0
LINE
8
BLACK
10
37.8592
20
-15.9036
11
37.8582
21
-17.1111
0
LINE
8
BLACK
10
37.8582
20
-17.1111
11
38.3193
21
-18.2271
0
LINE
8
BLACK
10
38.3193
20
-18.2271
11
39.1724
21
-19.0817
0
LINE
8
BLACK
10
39.1724
20
-19.0817
11
40.2876
21
-19.5448
0
LINE
8
BLACK
10
40.2876
20
-19.5448
11
41.4951
21
-19.5458
0
LINE
8
BLACK
10
41.4951
20
-19.5458
11
42.6111
21
-19.0847
0
LINE
8
BLACK
10
42.6111
20
-19.0847
11
43.4657
21
-18.2316
0
LINE
8
BLACK
10
43.4657
20
-18.2316
11
43.9288
21
-17.1164
0
LINE
8
BLACK
10
43.9288
20
-17.1164
11
43.9293
21
-16.4721
0
LINE
8
BLACK
10
43.9293
20
-16.4721
11
44.2524
21
-16.7957
0
LINE
8
BLACK
10
44.2524
20
-16.7957
11
45.3676
21
-17.2588
0
LINE
8
BLACK
10
45.3676
20
-17.2588
11
46.5751
21
-17.2598
0
LINE
8
BLACK
10
46.5751
20
-17.2598
11
47.6911
21
-16.7987
0
LINE
8
BLACK
10
47.6911
20
-16.7987
11
48.5457
21
-15.9456
0
LINE
8
BLACK
10
48.5457
20
-15.9456
11
49.0088
21
-14.8304
0
LINE
8
BLACK
10
49.0088
20
-14.8304
11
49.0098
21
-13.6229
0
LINE
8
BLACK
10
49.0098
20
-13.6229
11
49.0098
21
-19.7189
0
LINE
8
BLACK
10
49.0098
20
-19.7189
11
48.5487
21
-18.6029
0
LINE
8
BLACK
10
48.5487
20
-18.6029
11
47.6956
21
-17.7483
0
LINE
8
BLACK
10
47.6956
20
-17.7483
11
46.5804
21
-17.2852
0
LINE
8
BLACK
10
46.5804
20
-17.2852
11
45.3729
21
-17.2842
0
LINE
8
BLACK
10
45.3729
20
-17.2842
11
44.2569
21
-17.7453
0
LINE
8
BLACK
10
44.2569
20
-17.7453
11
43.4023
21
-18.5984
0
LINE
8
BLACK
10
43.4023
20
-18.5984
11
42.9775
21
-19.6215
0
LINE
8
BLACK
10
42.9775
20
-19.6215
11
36.2394
21
-19.6215
0
LINE
8
BLACK
10
36.2394
20
-19.6215
11
36.0624
21
-19.4442
0
LINE
8
BLACK
10
36.0624
20
-19.4442
11
35.7246
21
-19.3039
0
LINE
8
BLACK
10
35.7246
20
-19.3039
11
36.0604
21
-19.1651
0
LINE
8
BLACK
10
36.0604
20
-19.1651
11
36.4358
21
-18.7904
0
LINE
8
BLACK
10
36.4358
20
-18.7904
11
36.6393
21
-18.3004
0
LINE
8
BLACK
10
36.6393
20
-18.3004
11
36.6397
21
-17.7699
0
LINE
8
BLACK
10
36.6397
20
-17.7699
11
36.4371
21
-17.2796
0
LINE
8
BLACK
10
36.4371
20
-17.2796
11
36.0624
21
-16.9042
0
LINE
8
BLACK
10
36.0624
20
-16.9042
11
35.5724
21
-16.7007
0
LINE
8
BLACK
10
35.5724
20
-16.7007
11
35.0419
21
-16.7003
0
LINE
8
BLACK
10
35.0419
20
-16.7003
11
34.5516
21
-16.9029
0
LINE
8
BLACK
10
34.5516
20
-16.9029
11
34.1762
21
-17.2776
0
LINE
8
BLACK
10
34.1762
20
-17.2776
11
33.9727
21
-17.7676
0
LINE
8
BLACK
10
33.9727
20
-17.7676
11
33.9723
21
-18.2981
0
LINE
8
BLACK
10
33.9723
20
-18.2981
11
34.1749
21
-18.7884
0
LINE
8
BLACK
10
34.1749
20
-18.7884
11
34.5496
21
-19.1638
0
LINE
8
BLACK
10
34.5496
20
-19.1638
11
34.8874
21
-19.3041
0
LINE
8
BLACK
10
34.8874
20
-19.3041
11
34.5516
21
-19.4429
0
LINE
8
BLACK
10
34.5516
20
-19.4429
11
34.1762
21
-19.8176
0
LINE
8
BLACK
10
34.1762
20
-19.8176
11
33.9727
21
-20.3076
0
LINE
8
BLACK
10
33.9727
20
-20.3076
11
33.9723
21
-20.8381
0
LINE
8
BLACK
10
33.9723
20
-20.8381
11
34.1749
21
-21.3284
0
LINE
8
BLACK
10
34.1749
20
-21.3284
11
34.5496
21
-21.7038
0
LINE
8
BLACK
10
34.5496
20
-21.7038
11
35.0396
21
-21.9073
0
LINE
8
BLACK
10
35.0396
20
-21.9073
11
35.5701
21
-21.9077
0
LINE
8
BLACK
10
35.5701
20
-21.9077
11
36.0604
21
-21.7051
0
LINE
8
BLACK
10
36.0604
20
-21.7051
11
36.2393
21
-21.5265
0
LINE
8
BLACK
10
36.2393
20
-21.5265
11
43.1883
21
-21.5265
0
LINE
8
BLACK
10
43.1883
20
-21.5265
11
43.3993
21
-22.0371
0
LINE
8
BLACK
10
43.3993
20
-22.0371
11
44.2524
21
-22.8917
0
LINE
8
BLACK
10
44.2524
20
-22.8917
11
45.3676
21
-23.3548
0
LINE
8
BLACK
10
45.3676
20
-23.3548
11
46.5751
21
-23.3558
0
LINE
8
BLACK
10
46.5751
20
-23.3558
11
47.6911
21
-22.8947
0
LINE
8
BLACK
10
47.6911
20
-22.8947
11
48.5457
21
-22.0416
0
LINE
8
BLACK
10
48.5457
20
-22.0416
11
49.0088
21
-20.9264
0
LINE
8
BLACK
10
49.0088
20
-20.9264
11
49.0098
21
-19.7189
0
LINE
8
BLACK
10
49.0098
20
-19.7189
11
49.0098
21
-26.1093
0
LINE
8
BLACK
10
49.0098
20
-26.1093
11
48.81
21
-25.6257
0
LINE
8
BLACK
10
48.81
20
-25.6257
11
48.4174
21
-25.2324
0
LINE
8
BLACK
10
48.4174
20
-25.2324
11
47.9041
21
-25.0192
0
LINE
8
BLACK
10
47.9041
20
-25.0192
11
47.3483
21
-25.0188
0
LINE
8
BLACK
10
47.3483
20
-25.0188
11
46.8347
21
-25.231
0
LINE
8
BLACK
10
46.8347
20
-25.231
11
46.4414
21
-25.6236
0
LINE
8
BLACK
10
46.4414
20
-25.6236
11
46.2282
21
-26.1369
0
LINE
8
BLACK
10
46.2282
20
-26.1369
11
46.2278
21
-26.6927
0
LINE
8
BLACK
10
46.2278
20
-26.6927
11
46.44
21
-27.2063
0
LINE
8
BLACK
10
46.44
20
-27.2063
11
46.8326
21
-27.5996
0
LINE
8
BLACK
10
46.8326
20
-27.5996
11
47.3459
21
-27.8128
0
LINE
8
BLACK
10
47.3459
20
-27.8128
11
47.9017
21
-27.8132
0
LINE
8
BLACK
10
47.9017
20
-27.8132
11
48.4153
21
-27.601
0
LINE
8
BLACK
10
48.4153
20
-27.601
11
48.8086
21
-27.2084
0
LINE
8
BLACK
10
48.8086
20
-27.2084
11
49.0218
21
-26.6951
0
LINE
8
BLACK
10
49.0218
20
-26.6951
11
49.0222
21
-26.1393
0
LINE
8
BLACK
10
49.0222
20
-26.1393
11
49.0222
21
-27.7747
0
LINE
8
BLACK
10
49.0222
20
-27.7747
11
48.7845
21
-27.822
0
LINE
8
BLACK
10
48.7845
20
-27.822
11
48.4755
21
-28.0285
0
LINE
8
BLACK
10
48.4755
20
-28.0285
11
47.6749
21
-28.829
0
LINE
8
BLACK
10
47.6749
20
-28.829
11
47.3483
21
-28.8288
0
LINE
8
BLACK
10
47.3483
20
-28.8288
11
46.8347
21
-29.041
0
LINE
8
BLACK
10
46.8347
20
-29.041
11
46.4414
21
-29.4336
0
LINE
8
BLACK
10
46.4414
20
-29.4336
11
46.2282
21
-29.9469
0
LINE
8
BLACK
10
46.2282
20
-29.9469
11
46.2278
21
-30.5027
0
LINE
8
BLACK
10
46.2278
20
-30.5027
11
46.44
21
-31.0163
0
LINE
8
BLACK
10
46.44
20
-31.0163
11
46.8326
21
-31.4096
0
LINE
8
BLACK
10
46.8326
20
-31.4096
11
47.3459
21
-31.6228
0
LINE
8
BLACK
10
47.3459
20
-31.6228
11
47.9017
21
-31.6232
0
LINE
8
BLACK
10
47.9017
20
-31.6232
11
48.4153
21
-31.411
0
LINE
8
BLACK
10
48.4153
20
-31.411
11
48.8086
21
-31.0184
0
LINE
8
BLACK
10
48.8086
20
-31.0184
11
49.0218
21
-30.5051
0
LINE
8
BLACK
10
49.0218
20
-30.5051
11
49.022
21
-30.176
0
LINE
8
BLACK
10
49.022
20
-30.176
11
49.5435
21
-29.6545
0
LINE
8
BLACK
10
49.5435
20
-29.6545
11
50.1649
21
-29.6545
0
LINE
8
BLACK
10
50.1649
20
-29.6545
11
50.1649
21
-29.8438
0
LINE
8
BLACK
10
50.1649
20
-29.8438
11
50.2614
21
-30.0772
0
LINE
8
BLACK
10
50.2614
20
-30.0772
11
50.4398
21
-30.256
0
LINE
8
BLACK
10
50.4398
20
-30.256
11
50.6731
21
-30.3529
0
LINE
8
BLACK
10
50.6731
20
-30.3529
11
50.9258
21
-30.3531
0
LINE
8
BLACK
10
50.9258
20
-30.3531
11
51.9418
21
-30.3531
0
LINE
8
BLACK
10
51.9418
20
-30.3531
11
52.1752
21
-30.2566
0
LINE
8
BLACK
10
52.1752
20
-30.2566
11
52.354
21
-30.0782
0
LINE
8
BLACK
10
52.354
20
-30.0782
11
52.4509
21
-29.8449
0
LINE
8
BLACK
10
52.4509
20
-29.8449
11
52.451
21
-29.718
0
LINE
8
BLACK
10
52.451
20
-29.718
11
52.4511
21
-29.8449
0
LINE
8
BLACK
10
52.4511
20
-29.8449
11
52.548
21
-30.0782
0
LINE
8
BLACK
10
52.548
20
-30.0782
11
52.7268
21
-30.2566
0
LINE
8
BLACK
10
52.7268
20
-30.2566
11
52.9602
21
-30.3531
0
LINE
8
BLACK
10
52.9602
20
-30.3531
11
53.3083
21
-30.353
0
LINE
8
BLACK
10
53.3083
20
-30.353
11
53.467
21
-30.1943
0
LINE
8
BLACK
10
53.467
20
-30.1943
11
53.467
21
-31.8135
0
LINE
8
BLACK
10
53.467
20
-31.8135
11
53.0861
21
-31.8135
0
LINE
8
BLACK
10
53.0861
20
-31.8135
11
53.0861
21
-31.7512
0
LINE
8
BLACK
10
53.0861
20
-31.7512
11
52.9896
21
-31.5178
0
LINE
8
BLACK
10
52.9896
20
-31.5178
11
52.8112
21
-31.339
0
LINE
8
BLACK
10
52.8112
20
-31.339
11
52.5779
21
-31.2421
0
LINE
8
BLACK
10
52.5779
20
-31.2421
11
52.3252
21
-31.2419
0
LINE
8
BLACK
10
52.3252
20
-31.2419
11
50.5472
21
-31.2419
0
LINE
8
BLACK
10
50.5472
20
-31.2419
11
50.3138
21
-31.3384
0
LINE
8
BLACK
10
50.3138
20
-31.3384
11
50.135
21
-31.5168
0
LINE
8
BLACK
10
50.135
20
-31.5168
11
50.0381
21
-31.7501
0
LINE
8
BLACK
10
50.0381
20
-31.7501
11
50.0379
21
-32.0028
0
LINE
8
BLACK
10
50.0379
20
-32.0028
11
50.0379
21
-33.7808
0
LINE
8
BLACK
10
50.0379
20
-33.7808
11
50.1344
21
-34.0142
0
LINE
8
BLACK
10
50.1344
20
-34.0142
11
50.3128
21
-34.193
0
LINE
8
BLACK
10
50.3128
20
-34.193
11
50.5461
21
-34.2899
0
LINE
8
BLACK
10
50.5461
20
-34.2899
11
50.7988
21
-34.2901
0
LINE
8
BLACK
10
50.7988
20
-34.2901
11
52.5768
21
-34.2901
0
LINE
8
BLACK
10
52.5768
20
-34.2901
11
52.8102
21
-34.1936
0
LINE
8
BLACK
10
52.8102
20
-34.1936
11
52.989
21
-34.0152
0
LINE
8
BLACK
10
52.989
20
-34.0152
11
53.0859
21
-33.7819
0
LINE
8
BLACK
10
53.0859
20
-33.7819
11
53.0859
21
-33.7185
0
LINE
8
BLACK
10
53.0859
20
-33.7185
11
54.3559
21
-33.7185
0
LINE
8
BLACK
10
54.3559
20
-33.7185
11
54.3559
21
-33.7808
0
LINE
8
BLACK
10
54.3559
20
-33.7808
11
54.4524
21
-34.0142
0
LINE
8
BLACK
10
54.4524
20
-34.0142
11
54.6308
21
-34.193
0
LINE
8
BLACK
10
54.6308
20
-34.193
11
54.8641
21
-34.2899
0
LINE
8
BLACK
10
54.8641
20
-34.2899
11
55.1168
21
-34.2901
0
LINE
8
BLACK
10
55.1168
20
-34.2901
11
56.8948
21
-34.2901
0
LINE
8
BLACK
10
56.8948
20
-34.2901
11
57.1282
21
-34.1936
0
LINE
8
BLACK
10
57.1282
20
-34.1936
11
57.307
21
-34.0152
0
LINE
8
BLACK
10
57.307
20
-34.0152
11
57.4039
21
-33.7819
0
LINE
8
BLACK
10
57.4039
20
-33.7819
11
57.4041
21
-33.5292
0
LINE
8
BLACK
10
57.4041
20
-33.5292
11
57.4041
21
-45.1638
0
LINE
8
BLACK
10
57.4041
20
-45.1638
11
57.1727
21
-44.6039
0
LINE
8
BLACK
10
57.1727
20
-44.6039
11
56.7444
21
-44.1748
0
LINE
8
BLACK
10
56.7444
20
-44.1748
11
56.1845
21
-43.9423
0
LINE
8
BLACK
10
56.1845
20
-43.9423
11
55.5782
21
-43.9417
0
LINE
8
BLACK
10
55.5782
20
-43.9417
11
55.0179
21
-44.1733
0
LINE
8
BLACK
10
55.0179
20
-44.1733
11
54.5888
21
-44.6016
0
LINE
8
BLACK
10
54.5888
20
-44.6016
11
54.3563
21
-45.1615
0
LINE
8
BLACK
10
54.3563
20
-45.1615
11
54.3557
21
-45.7678
0
LINE
8
BLACK
10
54.3557
20
-45.7678
11
54.5873
21
-46.3281
0
LINE
8
BLACK
10
54.5873
20
-46.3281
11
55.0156
21
-46.7572
0
LINE
8
BLACK
10
55.0156
20
-46.7572
11
55.5755
21
-46.9897
0
LINE
8
BLACK
10
55.5755
20
-46.9897
11
56.1818
21
-46.9903
0
LINE
8
BLACK
10
56.1818
20
-46.9903
11
56.7421
21
-46.7587
0
LINE
8
BLACK
10
56.7421
20
-46.7587
11
57.1712
21
-46.3304
0
LINE
8
BLACK
10
57.1712
20
-46.3304
11
57.4037
21
-45.7705
0
LINE
8
BLACK
10
57.4037
20
-45.7705
11
57.4043
21
-45.1642
0
LINE
8
BLACK
10
57.4043
20
-45.1642
11
57.4043
21
-52.0156
0
LINE
8
BLACK
10
57.4043
20
-52.0156
11
57.161
21
-51.7719
0
LINE
8
BLACK
10
57.161
20
-51.7719
11
55.7612
21
-51.1907
0
LINE
8
BLACK
10
55.7612
20
-51.1907
11
54.2455
21
-51.1893
0
LINE
8
BLACK
10
54.2455
20
-51.1893
11
53.0863
21
-51.6683
0
LINE
8
BLACK
10
53.0863
20
-51.6683
11
53.0863
21
-45.1642
0
LINE
8
BLACK
10
53.0863
20
-45.1642
11
52.8547
21
-44.6039
0
LINE
8
BLACK
10
52.8547
20
-44.6039
11
52.4264
21
-44.1748
0
LINE
8
BLACK
10
52.4264
20
-44.1748
11
51.8665
21
-43.9423
0
LINE
8
BLACK
10
51.8665
20
-43.9423
11
51.2602
21
-43.9417
0
LINE
8
BLACK
10
51.2602
20
-43.9417
11
50.6999
21
-44.1733
0
LINE
8
BLACK
10
50.6999
20
-44.1733
11
50.2708
21
-44.6016
0
LINE
8
BLACK
10
50.2708
20
-44.6016
11
50.0383
21
-45.1615
0
LINE
8
BLACK
10
50.0383
20
-45.1615
11
50.0378
21
-45.6431
0
LINE
8
BLACK
10
50.0378
20
-45.6431
11
49.8975
21
-45.7835
0
LINE
8
BLACK
10
49.8975
20
-45.7835
11
49.2831
21
-45.7835
0
LINE
8
BLACK
10
49.2831
20
-45.7835
11
49.0524
21
-45.5524
0
LINE
8
BLACK
10
49.0524
20
-45.5524
11
49.0341
21
-45.5448
0
LINE
8
BLACK
10
49.0341
20
-45.5448
11
49.0341
21
-34.2437
0
LINE
8
BLACK
10
49.0341
20
-34.2437
11
49.0064
21
-33.6886
0
LINE
8
BLACK
10
49.0064
20
-33.6886
11
48.8474
21
-33.3049
0
LINE
8
BLACK
10
48.8474
20
-33.3049
11
48.6052
21
-33.2354
0
LINE
8
BLACK
10
48.6052
20
-33.2354
11
48.4256
21
-33.415
0
LINE
8
BLACK
10
48.4256
20
-33.415
11
48.4256
21
-33.0558
0
LINE
8
BLACK
10
48.4256
20
-33.0558
11
48.3561
21
-32.8136
0
LINE
8
BLACK
10
48.3561
20
-32.8136
11
47.8327
21
-32.6269
0
LINE
8
BLACK
10
47.8327
20
-32.6269
11
47.2776
21
-32.6546
0
LINE
8
BLACK
10
47.2776
20
-32.6546
11
46.8939
21
-32.8136
0
LINE
8
BLACK
10
46.8939
20
-32.8136
11
46.8244
21
-33.0558
0
LINE
8
BLACK
10
46.8244
20
-33.0558
11
47.625
21
-33.8564
0
LINE
8
BLACK
10
47.625
20
-33.8564
11
48.4256
21
-33.0558
0
LINE
8
BLACK
10
48.4256
20
-33.0558
11
48.4256
21
-33.415
0
LINE
8
BLACK
10
48.4256
20
-33.415
11
47.8046
21
-34.036
0
LINE
8
BLACK
10
47.8046
20
-34.036
11
48.6052
21
-34.8366
0
LINE
8
BLACK
10
48.6052
20
-34.8366
11
48.8474
21
-34.7671
0
LINE
8
BLACK
10
48.8474
20
-34.7671
11
49.0341
21
-34.2437
0
LINE
8
BLACK
10
49.0341
20
-34.2437
11
49.0341
21
-45.5448
0
LINE
8
BLACK
10
49.0341
20
-45.5448
11
48.5391
21
-45.3392
0
LINE
8
BLACK
10
48.5391
20
-45.3392
11
48.4256
21
-45.3391
0
LINE
8
BLACK
10
48.4256
20
-45.3391
11
48.4256
21
-35.0162
0
LINE
8
BLACK
10
48.4256
20
-35.0162
11
47.625
21
-34.2156
0
LINE
8
BLACK
10
47.625
20
-34.2156
11
47.4454
21
-34.3952
0
LINE
8
BLACK
10
47.4454
20
-34.3952
11
47.4454
21
-34.036
0
LINE
8
BLACK
10
47.4454
20
-34.036
11
46.6448
21
-33.2354
0
LINE
8
BLACK
10
46.6448
20
-33.2354
11
46.4026
21
-33.3049
0
LINE
8
BLACK
10
46.4026
20
-33.3049
11
46.2159
21
-33.8283
0
LINE
8
BLACK
10
46.2159
20
-33.8283
11
46.2436
21
-34.3834
0
LINE
8
BLACK
10
46.2436
20
-34.3834
11
46.4026
21
-34.7671
0
LINE
8
BLACK
10
46.4026
20
-34.7671
11
46.6448
21
-34.8366
0
LINE
8
BLACK
10
46.6448
20
-34.8366
11
47.4454
21
-34.036
0
LINE
8
BLACK
10
47.4454
20
-34.036
11
47.4454
21
-34.3952
0
LINE
8
BLACK
10
47.4454
20
-34.3952
11
46.8244
21
-35.0162
0
LINE
8
BLACK
10
46.8244
20
-35.0162
11
46.8939
21
-35.2584
0
LINE
8
BLACK
10
46.8939
20
-35.2584
11
47.4173
21
-35.4451
0
LINE
8
BLACK
10
47.4173
20
-35.4451
11
47.9724
21
-35.4174
0
LINE
8
BLACK
10
47.9724
20
-35.4174
11
48.3561
21
-35.2584
0
LINE
8
BLACK
10
48.3561
20
-35.2584
11
48.4256
21
-35.0162
0
LINE
8
BLACK
10
48.4256
20
-35.0162
11
48.4256
21
-45.3391
0
LINE
8
BLACK
10
48.4256
20
-45.3391
11
48.3237
21
-45.3391
0
LINE
8
BLACK
10
48.3237
20
-45.3391
11
48.3237
21
-38.8519
0
LINE
8
BLACK
10
48.3237
20
-38.8519
11
48.1211
21
-38.3616
0
LINE
8
BLACK
10
48.1211
20
-38.3616
11
47.7464
21
-37.9862
0
LINE
8
BLACK
10
47.7464
20
-37.9862
11
47.2564
21
-37.7827
0
LINE
8
BLACK
10
47.2564
20
-37.7827
11
46.7259
21
-37.7823
0
LINE
8
BLACK
10
46.7259
20
-37.7823
11
46.2356
21
-37.9849
0
LINE
8
BLACK
10
46.2356
20
-37.9849
11
45.8602
21
-38.3596
0
LINE
8
BLACK
10
45.8602
20
-38.3596
11
45.7836
21
-38.544
0
LINE
8
BLACK
10
45.7836
20
-38.544
11
45.7836
21
-38.5433
0
LINE
8
BLACK
10
45.7836
20
-38.5433
11
45.7834
21
-38.2906
0
LINE
8
BLACK
10
45.7834
20
-38.2906
11
45.6865
21
-38.0573
0
LINE
8
BLACK
10
45.6865
20
-38.0573
11
45.5077
21
-37.8789
0
LINE
8
BLACK
10
45.5077
20
-37.8789
11
45.2743
21
-37.7824
0
LINE
8
BLACK
10
45.2743
20
-37.7824
11
44.7358
21
-37.7825
0
LINE
8
BLACK
10
44.7358
20
-37.7825
11
44.577
21
-37.9413
0
LINE
8
BLACK
10
44.577
20
-37.9413
11
44.577
21
-38.989
0
LINE
8
BLACK
10
44.577
20
-38.989
11
44.597
21
-38.989
0
LINE
8
BLACK
10
44.597
20
-38.989
11
44.597
21
-39.243
0
LINE
8
BLACK
10
44.597
20
-39.243
11
44.577
21
-39.243
0
LINE
8
BLACK
10
44.577
20
-39.243
11
44.577
21
-40.2908
0
LINE
8
BLACK
10
44.577
20
-40.2908
11
44.7358
21
-40.4495
0
LINE
8
BLACK
10
44.7358
20
-40.4495
11
45.2743
21
-40.4496
0
LINE
8
BLACK
10
45.2743
20
-40.4496
11
45.5077
21
-40.3531
0
LINE
8
BLACK
10
45.5077
20
-40.3531
11
45.6865
21
-40.1747
0
LINE
8
BLACK
10
45.6865
20
-40.1747
11
45.7834
21
-39.9414
0
LINE
8
BLACK
10
45.7834
20
-39.9414
11
45.7836
21
-39.6887
0
LINE
8
BLACK
10
45.7836
20
-39.6887
11
45.7836
21
-39.6883
0
LINE
8
BLACK
10
45.7836
20
-39.6883
11
45.8589
21
-39.8704
0
LINE
8
BLACK
10
45.8589
20
-39.8704
11
46.2336
21
-40.2458
0
LINE
8
BLACK
10
46.2336
20
-40.2458
11
46.7236
21
-40.4493
0
LINE
8
BLACK
10
46.7236
20
-40.4493
11
47.2541
21
-40.4497
0
LINE
8
BLACK
10
47.2541
20
-40.4497
11
47.7444
21
-40.2471
0
LINE
8
BLACK
10
47.7444
20
-40.2471
11
48.1198
21
-39.8724
0
LINE
8
BLACK
10
48.1198
20
-39.8724
11
48.3233
21
-39.3824
0
LINE
8
BLACK
10
48.3233
20
-39.3824
11
48.3237
21
-38.8519
0
LINE
8
BLACK
10
48.3237
20
-38.8519
11
48.3237
21
-45.3391
0
LINE
8
BLACK
10
48.3237
20
-45.3391
11
47.9833
21
-45.3388
0
LINE
8
BLACK
10
47.9833
20
-45.3388
11
47.4697
21
-45.551
0
LINE
8
BLACK
10
47.4697
20
-45.551
11
47.0764
21
-45.9436
0
LINE
8
BLACK
10
47.0764
20
-45.9436
11
46.8632
21
-46.4569
0
LINE
8
BLACK
10
46.8632
20
-46.4569
11
46.8628
21
-47.0127
0
LINE
8
BLACK
10
46.8628
20
-47.0127
11
47.075
21
-47.5263
0
LINE
8
BLACK
10
47.075
20
-47.5263
11
47.427
21
-47.8789
0
LINE
8
BLACK
10
47.427
20
-47.8789
11
47.3722
21
-47.8789
0
LINE
8
BLACK
10
47.3722
20
-47.8789
11
47.1388
21
-47.9754
0
LINE
8
BLACK
10
47.1388
20
-47.9754
11
46.96
21
-48.1538
0
LINE
8
BLACK
10
46.96
20
-48.1538
11
46.8895
21
-48.3235
0
LINE
8
BLACK
10
46.8895
20
-48.3235
11
45.0584
21
-48.3235
0
LINE
8
BLACK
10
45.0584
20
-48.3235
11
44.9886
21
-48.1548
0
LINE
8
BLACK
10
44.9886
20
-48.1548
11
44.8102
21
-47.976
0
LINE
8
BLACK
10
44.8102
20
-47.976
11
44.5769
21
-47.8791
0
LINE
8
BLACK
10
44.5769
20
-47.8791
11
44.5203
21
-47.8791
0
LINE
8
BLACK
10
44.5203
20
-47.8791
11
44.8716
21
-47.5284
0
LINE
8
BLACK
10
44.8716
20
-47.5284
11
45.0848
21
-47.0151
0
LINE
8
BLACK
10
45.0848
20
-47.0151
11
45.0852
21
-46.4593
0
LINE
8
BLACK
10
45.0852
20
-46.4593
11
44.873
21
-45.9457
0
LINE
8
BLACK
10
44.873
20
-45.9457
11
44.4804
21
-45.5524
0
LINE
8
BLACK
10
44.4804
20
-45.5524
11
44.323
21
-45.487
0
LINE
8
BLACK
10
44.323
20
-45.487
11
44.323
21
-40.2908
0
LINE
8
BLACK
10
44.323
20
-40.2908
11
44.323
21
-39.243
0
LINE
8
BLACK
10
44.323
20
-39.243
11
44.323
21
-38.989
0
LINE
8
BLACK
10
44.323
20
-38.989
11
44.323
21
-37.9413
0
LINE
8
BLACK
10
44.323
20
-37.9413
11
44.1643
21
-37.7825
0
LINE
8
BLACK
10
44.1643
20
-37.7825
11
43.6257
21
-37.7824
0
LINE
8
BLACK
10
43.6257
20
-37.7824
11
43.3923
21
-37.8789
0
LINE
8
BLACK
10
43.3923
20
-37.8789
11
43.2135
21
-38.0573
0
LINE
8
BLACK
10
43.2135
20
-38.0573
11
43.1166
21
-38.2906
0
LINE
8
BLACK
10
43.1166
20
-38.2906
11
43.1164
21
-38.5433
0
LINE
8
BLACK
10
43.1164
20
-38.5433
11
43.1165
21
-38.8303
0
LINE
8
BLACK
10
43.1165
20
-38.8303
11
43.2753
21
-38.989
0
LINE
8
BLACK
10
43.2753
20
-38.989
11
44.323
21
-38.989
0
LINE
8
BLACK
10
44.323
20
-38.989
11
44.323
21
-39.243
0
LINE
8
BLACK
10
44.323
20
-39.243
11
43.2753
21
-39.243
0
LINE
8
BLACK
10
43.2753
20
-39.243
11
43.1165
21
-39.4018
0
LINE
8
BLACK
10
43.1165
20
-39.4018
11
43.1164
21
-39.6887
0
LINE
8
BLACK
10
43.1164
20
-39.6887
11
43.1166
21
-39.9414
0
LINE
8
BLACK
10
43.1166
20
-39.9414
11
43.2135
21
-40.1747
0
LINE
8
BLACK
10
43.2135
20
-40.1747
11
43.3923
21
-40.3531
0
LINE
8
BLACK
10
43.3923
20
-40.3531
11
43.6257
21
-40.4496
0
LINE
8
BLACK
10
43.6257
20
-40.4496
11
44.1643
21
-40.4495
0
LINE
8
BLACK
10
44.1643
20
-40.4495
11
44.323
21
-40.2908
0
LINE
8
BLACK
10
44.323
20
-40.2908
11
44.323
21
-45.487
0
LINE
8
BLACK
10
44.323
20
-45.487
11
43.9671
21
-45.3392
0
LINE
8
BLACK
10
43.9671
20
-45.3392
11
43.4113
21
-45.3388
0
LINE
8
BLACK
10
43.4113
20
-45.3388
11
42.8977
21
-45.551
0
LINE
8
BLACK
10
42.8977
20
-45.551
11
42.5044
21
-45.9436
0
LINE
8
BLACK
10
42.5044
20
-45.9436
11
42.2912
21
-46.4569
0
LINE
8
BLACK
10
42.2912
20
-46.4569
11
42.2908
21
-47.0127
0
LINE
8
BLACK
10
42.2908
20
-47.0127
11
42.503
21
-47.5263
0
LINE
8
BLACK
10
42.503
20
-47.5263
11
42.855
21
-47.8789
0
LINE
8
BLACK
10
42.855
20
-47.8789
11
42.8002
21
-47.8789
0
LINE
8
BLACK
10
42.8002
20
-47.8789
11
42.5668
21
-47.9754
0
LINE
8
BLACK
10
42.5668
20
-47.9754
11
42.388
21
-48.1538
0
LINE
8
BLACK
10
42.388
20
-48.1538
11
42.2911
21
-48.3871
0
LINE
8
BLACK
10
42.2911
20
-48.3871
11
42.2909
21
-48.6398
0
LINE
8
BLACK
10
42.2909
20
-48.6398
11
42.2909
21
-50.1638
0
LINE
8
BLACK
10
42.2909
20
-50.1638
11
42.3874
21
-50.3972
0
LINE
8
BLACK
10
42.3874
20
-50.3972
11
42.5658
21
-50.576
0
LINE
8
BLACK
10
42.5658
20
-50.576
11
42.7991
21
-50.6729
0
LINE
8
BLACK
10
42.7991
20
-50.6729
11
43.0518
21
-50.6731
0
LINE
8
BLACK
10
43.0518
20
-50.6731
11
44.5758
21
-50.6731
0
LINE
8
BLACK
10
44.5758
20
-50.6731
11
44.8092
21
-50.5766
0
LINE
8
BLACK
10
44.8092
20
-50.5766
11
44.988
21
-50.3982
0
LINE
8
BLACK
10
44.988
20
-50.3982
11
45.0585
21
-50.2285
0
LINE
8
BLACK
10
45.0585
20
-50.2285
11
46.8896
21
-50.2285
0
LINE
8
BLACK
10
46.8896
20
-50.2285
11
46.9594
21
-50.3972
0
LINE
8
BLACK
10
46.9594
20
-50.3972
11
47.1378
21
-50.576
0
LINE
8
BLACK
10
47.1378
20
-50.576
11
47.3711
21
-50.6729
0
LINE
8
BLACK
10
47.3711
20
-50.6729
11
47.6238
21
-50.6731
0
LINE
8
BLACK
10
47.6238
20
-50.6731
11
49.1478
21
-50.6731
0
LINE
8
BLACK
10
49.1478
20
-50.6731
11
49.3812
21
-50.5766
0
LINE
8
BLACK
10
49.3812
20
-50.5766
11
49.56
21
-50.3982
0
LINE
8
BLACK
10
49.56
20
-50.3982
11
49.6569
21
-50.1649
0
LINE
8
BLACK
10
49.6569
20
-50.1649
11
49.6571
21
-49.9122
0
LINE
8
BLACK
10
49.6571
20
-49.9122
11
49.6571
21
-48.3882
0
LINE
8
BLACK
10
49.6571
20
-48.3882
11
49.5606
21
-48.1548
0
LINE
8
BLACK
10
49.5606
20
-48.1548
11
49.3822
21
-47.976
0
LINE
8
BLACK
10
49.3822
20
-47.976
11
49.1489
21
-47.8791
0
LINE
8
BLACK
10
49.1489
20
-47.8791
11
49.0923
21
-47.8791
0
LINE
8
BLACK
10
49.0923
20
-47.8791
11
49.2832
21
-47.6885
0
LINE
8
BLACK
10
49.2832
20
-47.6885
11
50.292
21
-47.6885
0
LINE
8
BLACK
10
50.292
20
-47.6885
11
50.6565
21
-47.616
0
LINE
8
BLACK
10
50.6565
20
-47.616
11
50.9655
21
-47.4095
0
LINE
8
BLACK
10
50.9655
20
-47.4095
11
51.3852
21
-46.9898
0
LINE
8
BLACK
10
51.3852
20
-46.9898
11
51.8638
21
-46.9903
0
LINE
8
BLACK
10
51.8638
20
-46.9903
11
52.4241
21
-46.7587
0
LINE
8
BLACK
10
52.4241
20
-46.7587
11
52.8532
21
-46.3304
0
LINE
8
BLACK
10
52.8532
20
-46.3304
11
53.0857
21
-45.7705
0
LINE
8
BLACK
10
53.0857
20
-45.7705
11
53.0863
21
-45.1642
0
LINE
8
BLACK
10
53.0863
20
-45.1642
11
53.0863
21
-51.6683
0
LINE
8
BLACK
10
53.0863
20
-51.6683
11
52.8446
21
-51.7682
0
LINE
8
BLACK
10
52.8446
20
-51.7682
11
51.7719
21
-52.839
0
LINE
8
BLACK
10
51.7719
20
-52.839
11
51.1907
21
-54.2388
0
LINE
8
BLACK
10
51.1907
20
-54.2388
11
51.1893
21
-55.7545
0
LINE
8
BLACK
10
51.1893
20
-55.7545
11
51.7682
21
-57.1554
0
LINE
8
BLACK
10
51.7682
20
-57.1554
11
52.7855
21
-58.1745
0
LINE
8
BLACK
10
52.7855
20
-58.1745
11
41.2752
21
-58.1745
0
LINE
8
BLACK
10
41.2752
20
-58.1745
11
41.2752
21
-38.5853
0
LINE
8
BLACK
10
41.2752
20
-38.5853
11
41.063
21
-38.0717
0
LINE
8
BLACK
10
41.063
20
-38.0717
11
40.6704
21
-37.6784
0
LINE
8
BLACK
10
40.6704
20
-37.6784
11
40.1571
21
-37.4652
0
LINE
8
BLACK
10
40.1571
20
-37.4652
11
39.6013
21
-37.4648
0
LINE
8
BLACK
10
39.6013
20
-37.4648
11
39.0877
21
-37.677
0
LINE
8
BLACK
10
39.0877
20
-37.677
11
38.7351
21
-38.029
0
LINE
8
BLACK
10
38.7351
20
-38.029
11
38.7351
21
-37.9742
0
LINE
8
BLACK
10
38.7351
20
-37.9742
11
38.6386
21
-37.7408
0
LINE
8
BLACK
10
38.6386
20
-37.7408
11
38.4602
21
-37.562
0
LINE
8
BLACK
10
38.4602
20
-37.562
11
38.2269
21
-37.4651
0
LINE
8
BLACK
10
38.2269
20
-37.4651
11
37.9742
21
-37.4649
0
LINE
8
BLACK
10
37.9742
20
-37.4649
11
37.5922
21
-37.4649
0
LINE
8
BLACK
10
37.5922
20
-37.4649
11
37.5922
21
-33.7593
0
LINE
8
BLACK
10
37.5922
20
-33.7593
11
37.38
21
-33.2457
0
LINE
8
BLACK
10
37.38
20
-33.2457
11
36.9874
21
-32.8524
0
LINE
8
BLACK
10
36.9874
20
-32.8524
11
36.85
21
-32.7953
0
LINE
8
BLACK
10
36.85
20
-32.7953
11
35.5081
21
-31.4534
0
LINE
8
BLACK
10
35.5081
20
-31.4534
11
35.9159
21
-31.6228
0
LINE
8
BLACK
10
35.9159
20
-31.6228
11
36.4717
21
-31.6232
0
LINE
8
BLACK
10
36.4717
20
-31.6232
11
36.9853
21
-31.411
0
LINE
8
BLACK
10
36.9853
20
-31.411
11
37.3786
21
-31.0184
0
LINE
8
BLACK
10
37.3786
20
-31.0184
11
37.5918
21
-30.5051
0
LINE
8
BLACK
10
37.5918
20
-30.5051
11
37.5922
21
-29.9493
0
LINE
8
BLACK
10
37.5922
20
-29.9493
11
37.38
21
-29.4357
0
LINE
8
BLACK
10
37.38
20
-29.4357
11
36.9874
21
-29.0424
0
LINE
8
BLACK
10
36.9874
20
-29.0424
11
36.4741
21
-28.8292
0
LINE
8
BLACK
10
36.4741
20
-28.8292
11
35.9183
21
-28.8288
0
LINE
8
BLACK
10
35.9183
20
-28.8288
11
35.4047
21
-29.041
0
LINE
8
BLACK
10
35.4047
20
-29.041
11
35.0114
21
-29.4336
0
LINE
8
BLACK
10
35.0114
20
-29.4336
11
34.7982
21
-29.9469
0
LINE
8
BLACK
10
34.7982
20
-29.9469
11
34.7978
21
-30.5027
0
LINE
8
BLACK
10
34.7978
20
-30.5027
11
34.967
21
-30.9124
0
LINE
8
BLACK
10
34.967
20
-30.9124
11
34.6481
21
-30.5934
0
LINE
8
BLACK
10
34.6481
20
-30.5934
11
34.6484
21
-30.2516
0
LINE
8
BLACK
10
34.6484
20
-30.2516
11
34.4342
21
-29.7333
0
LINE
8
BLACK
10
34.4342
20
-29.7333
11
34.038
21
-29.3364
0
LINE
8
BLACK
10
34.038
20
-29.3364
11
33.5201
21
-29.1213
0
LINE
8
BLACK
10
33.5201
20
-29.1213
11
33.2622
21
-29.1211
0
LINE
8
BLACK
10
33.2622
20
-29.1211
11
32.1695
21
-28.0285
0
LINE
8
BLACK
10
32.1695
20
-28.0285
11
32.0821
21
-27.97
0
LINE
8
BLACK
10
32.0821
20
-27.97
11
32.1178
21
-27.9344
0
LINE
8
BLACK
10
32.1178
20
-27.9344
11
32.3213
21
-27.4444
0
LINE
8
BLACK
10
32.3213
20
-27.4444
11
32.3217
21
-26.9139
0
LINE
8
BLACK
10
32.3217
20
-26.9139
11
32.1947
21
-26.6065
0
LINE
8
BLACK
10
32.1947
20
-26.6065
11
34.7978
21
-26.6065
0
LINE
8
BLACK
10
34.7978
20
-26.6065
11
34.7978
21
-26.6927
0
LINE
8
BLACK
10
34.7978
20
-26.6927
11
35.01
21
-27.2063
0
LINE
8
BLACK
10
35.01
20
-27.2063
11
35.4026
21
-27.5996
0
LINE
8
BLACK
10
35.4026
20
-27.5996
11
35.9159
21
-27.8128
0
LINE
8
BLACK
10
35.9159
20
-27.8128
11
36.4717
21
-27.8132
0
LINE
8
BLACK
10
36.4717
20
-27.8132
11
36.9853
21
-27.601
0
LINE
8
BLACK
10
36.9853
20
-27.601
11
37.3786
21
-27.2084
0
LINE
8
BLACK
10
37.3786
20
-27.2084
11
37.5918
21
-26.6951
0
LINE
8
BLACK
10
37.5918
20
-26.6951
11
37.5922
21
-26.1393
0
LINE
8
BLACK
10
37.5922
20
-26.1393
11
37.38
21
-25.6257
0
LINE
8
BLACK
10
37.38
20
-25.6257
11
36.9874
21
-25.2324
0
LINE
8
BLACK
10
36.9874
20
-25.2324
11
36.4741
21
-25.0192
0
LINE
8
BLACK
10
36.4741
20
-25.0192
11
36.145
21
-25.019
0
LINE
8
BLACK
10
36.145
20
-25.019
11
36.1065
21
-24.9805
0
LINE
8
BLACK
10
36.1065
20
-24.9805
11
35.7975
21
-24.774
0
LINE
8
BLACK
10
35.7975
20
-24.774
11
35.433
21
-24.7015
0
LINE
8
BLACK
10
35.433
20
-24.7015
11
32.3217
21
-24.7015
0
LINE
8
BLACK
10
32.3217
20
-24.7015
11
32.3217
21
-19.2939
0
LINE
8
BLACK
10
32.3217
20
-19.2939
11
32.1191
21
-18.8036
0
LINE
8
BLACK
10
32.1191
20
-18.8036
11
31.7444
21
-18.4282
0
LINE
8
BLACK
10
31.7444
20
-18.4282
11
31.2544
21
-18.2247
0
LINE
8
BLACK
10
31.2544
20
-18.2247
11
30.9626
21
-18.2245
0
LINE
8
BLACK
10
30.9626
20
-18.2245
11
30.9626
21
-17.78
0
LINE
8
BLACK
10
30.9626
20
-17.78
11
30.9065
21
-17.4981
0
LINE
8
BLACK
10
30.9065
20
-17.4981
11
30.7469
21
-17.2591
0
LINE
8
BLACK
10
30.7469
20
-17.2591
11
30.3788
21
-16.8911
0
LINE
8
BLACK
10
30.3788
20
-16.8911
11
30.5027
21
-16.8912
0
LINE
8
BLACK
10
30.5027
20
-16.8912
11
31.0163
21
-16.679
0
LINE
8
BLACK
10
31.0163
20
-16.679
11
31.4096
21
-16.2864
0
LINE
8
BLACK
10
31.4096
20
-16.2864
11
31.6228
21
-15.7731
0
LINE
8
BLACK
10
31.6228
20
-15.7731
11
31.6232
21
-15.2173
0
LINE
8
BLACK
10
31.6232
20
-15.2173
11
31.411
21
-14.7037
0
LINE
8
BLACK
10
31.411
20
-14.7037
11
31.0184
21
-14.3104
0
LINE
8
BLACK
10
31.0184
20
-14.3104
11
30.8105
21
-14.2241
0
LINE
8
BLACK
10
30.8105
20
-14.2241
11
31.0163
21
-14.139
0
LINE
8
BLACK
10
31.0163
20
-14.139
11
31.4096
21
-13.7464
0
LINE
8
BLACK
10
31.4096
20
-13.7464
11
31.6228
21
-13.2331
0
LINE
8
BLACK
10
31.6228
20
-13.2331
11
31.6232
21
-12.6773
0
LINE
8
BLACK
10
31.6232
20
-12.6773
11
31.411
21
-12.1637
0
LINE
8
BLACK
10
31.411
20
-12.1637
11
31.0184
21
-11.7704
0
LINE
8
BLACK
10
31.0184
20
-11.7704
11
30.5051
21
-11.5572
0
LINE
8
BLACK
10
30.5051
20
-11.5572
11
29.9493
21
-11.5568
0
LINE
8
BLACK
10
29.9493
20
-11.5568
11
29.4357
21
-11.769
0
LINE
8
BLACK
10
29.4357
20
-11.769
11
29.0424
21
-12.1616
0
LINE
8
BLACK
10
29.0424
20
-12.1616
11
28.9561
21
-12.3695
0
LINE
8
BLACK
10
28.9561
20
-12.3695
11
28.871
21
-12.1637
0
LINE
8
BLACK
10
28.871
20
-12.1637
11
28.4784
21
-11.7704
0
LINE
8
BLACK
10
28.4784
20
-11.7704
11
27.9651
21
-11.5572
0
LINE
8
BLACK
10
27.9651
20
-11.5572
11
27.4093
21
-11.5568
0
LINE
8
BLACK
10
27.4093
20
-11.5568
11
26.8957
21
-11.769
0
LINE
8
BLACK
10
26.8957
20
-11.769
11
26.5024
21
-12.1616
0
LINE
8
BLACK
10
26.5024
20
-12.1616
11
26.4226
21
-12.3537
0
LINE
8
BLACK
10
26.4226
20
-12.3537
11
26.3684
21
-12.2229
0
LINE
8
BLACK
10
26.3684
20
-12.2229
11
26.1262
21
-12.1534
0
LINE
8
BLACK
10
26.1262
20
-12.1534
11
25.9466
21
-12.333
0
LINE
8
BLACK
10
25.9466
20
-12.333
11
25.9466
21
-11.9738
0
LINE
8
BLACK
10
25.9466
20
-11.9738
11
25.8771
21
-11.7316
0
LINE
8
BLACK
10
25.8771
20
-11.7316
11
25.3537
21
-11.5449
0
LINE
8
BLACK
10
25.3537
20
-11.5449
11
24.7986
21
-11.5726
0
LINE
8
BLACK
10
24.7986
20
-11.5726
11
24.4149
21
-11.7316
0
LINE
8
BLACK
10
24.4149
20
-11.7316
11
24.3454
21
-11.9738
0
LINE
8
BLACK
10
24.3454
20
-11.9738
11
25.146
21
-12.7744
0
LINE
8
BLACK
10
25.146
20
-12.7744
11
25.9466
21
-11.9738
0
LINE
8
BLACK
10
25.9466
20
-11.9738
11
25.9466
21
-12.333
0
LINE
8
BLACK
10
25.9466
20
-12.333
11
25.3256
21
-12.954
0
LINE
8
BLACK
10
25.3256
20
-12.954
11
26.1262
21
-13.7546
0
LINE
8
BLACK
10
26.1262
20
-13.7546
11
26.3684
21
-13.6851
0
LINE
8
BLACK
10
26.3684
20
-13.6851
11
26.4185
21
-13.5447
0
LINE
8
BLACK
10
26.4185
20
-13.5447
11
26.501
21
-13.7443
0
LINE
8
BLACK
10
26.501
20
-13.7443
11
26.8936
21
-14.1376
0
LINE
8
BLACK
10
26.8936
20
-14.1376
11
27.1015
21
-14.2239
0
LINE
8
BLACK
10
27.1015
20
-14.2239
11
26.8957
21
-14.309
0
LINE
8
BLACK
10
26.8957
20
-14.309
11
26.5431
21
-14.661
0
LINE
8
BLACK
10
26.5431
20
-14.661
11
26.5431
21
-14.6062
0
LINE
8
BLACK
10
26.5431
20
-14.6062
11
26.4466
21
-14.3728
0
LINE
8
BLACK
10
26.4466
20
-14.3728
11
26.2682
21
-14.194
0
LINE
8
BLACK
10
26.2682
20
-14.194
11
26.0349
21
-14.0971
0
LINE
8
BLACK
10
26.0349
20
-14.0971
11
25.8999
21
-14.097
0
LINE
8
BLACK
10
25.8999
20
-14.097
11
25.9466
21
-13.9342
0
LINE
8
BLACK
10
25.9466
20
-13.9342
11
25.146
21
-13.1336
0
LINE
8
BLACK
10
25.146
20
-13.1336
11
24.9664
21
-13.3132
0
LINE
8
BLACK
10
24.9664
20
-13.3132
11
24.9664
21
-12.954
0
LINE
8
BLACK
10
24.9664
20
-12.954
11
24.1658
21
-12.1534
0
LINE
8
BLACK
10
24.1658
20
-12.1534
11
23.9236
21
-12.2229
0
LINE
8
BLACK
10
23.9236
20
-12.2229
11
23.7369
21
-12.7463
0
LINE
8
BLACK
10
23.7369
20
-12.7463
11
23.7646
21
-13.3014
0
LINE
8
BLACK
10
23.7646
20
-13.3014
11
23.9236
21
-13.6851
0
LINE
8
BLACK
10
23.9236
20
-13.6851
11
24.1658
21
-13.7546
0
LINE
8
BLACK
10
24.1658
20
-13.7546
11
24.9664
21
-12.954
0
LINE
8
BLACK
10
24.9664
20
-12.954
11
24.9664
21
-13.3132
0
LINE
8
BLACK
10
24.9664
20
-13.3132
11
24.3454
21
-13.9342
0
LINE
8
BLACK
10
24.3454
20
-13.9342
11
24.3921
21
-14.0969
0
LINE
8
BLACK
10
24.3921
20
-14.0969
11
24.2582
21
-14.0969
0
LINE
8
BLACK
10
24.2582
20
-14.0969
11
24.0248
21
-14.1934
0
LINE
8
BLACK
10
24.0248
20
-14.1934
11
23.846
21
-14.3718
0
LINE
8
BLACK
10
23.846
20
-14.3718
11
23.7491
21
-14.6051
0
LINE
8
BLACK
10
23.7491
20
-14.6051
11
23.7489
21
-14.8578
0
LINE
8
BLACK
10
23.7489
20
-14.8578
11
23.7489
21
-16.3818
0
LINE
8
BLACK
10
23.7489
20
-16.3818
11
23.8454
21
-16.6152
0
LINE
8
BLACK
10
23.8454
20
-16.6152
11
24.0238
21
-16.794
0
LINE
8
BLACK
10
24.0238
20
-16.794
11
24.2571
21
-16.8909
0
LINE
8
BLACK
10
24.2571
20
-16.8909
11
24.5098
21
-16.8911
0
LINE
8
BLACK
10
24.5098
20
-16.8911
11
26.0338
21
-16.8911
0
LINE
8
BLACK
10
26.0338
20
-16.8911
11
26.2672
21
-16.7946
0
LINE
8
BLACK
10
26.2672
20
-16.7946
11
26.446
21
-16.6162
0
LINE
8
BLACK
10
26.446
20
-16.6162
11
26.5429
21
-16.3829
0
LINE
8
BLACK
10
26.5429
20
-16.3829
11
26.5429
21
-16.3263
0
LINE
8
BLACK
10
26.5429
20
-16.3263
11
26.7335
21
-16.5172
0
LINE
8
BLACK
10
26.7335
20
-16.5172
11
26.7335
21
-16.6235
0
LINE
8
BLACK
10
26.7335
20
-16.6235
11
25.2345
21
-18.1225
0
LINE
8
BLACK
10
25.2345
20
-18.1225
11
25.028
21
-18.4315
0
LINE
8
BLACK
10
25.028
20
-18.4315
11
24.998
21
-18.5822
0
LINE
8
BLACK
10
24.998
20
-18.5822
11
24.7782
21
-18.8016
0
LINE
8
BLACK
10
24.7782
20
-18.8016
11
24.6447
21
-19.1231
0
LINE
8
BLACK
10
24.6447
20
-19.1231
11
24.5378
21
-18.8651
0
LINE
8
BLACK
10
24.5378
20
-18.8651
11
24.3022
21
-18.8034
0
LINE
8
BLACK
10
24.3022
20
-18.8034
11
24.1226
21
-18.983
0
LINE
8
BLACK
10
24.1226
20
-18.983
11
24.1226
21
-18.6238
0
LINE
8
BLACK
10
24.1226
20
-18.6238
11
24.0609
21
-18.3882
0
LINE
8
BLACK
10
24.0609
20
-18.3882
11
23.5605
21
-18.2121
0
LINE
8
BLACK
10
23.5605
20
-18.2121
11
23.0308
21
-18.2409
0
LINE
8
BLACK
10
23.0308
20
-18.2409
11
22.6751
21
-18.3882
0
LINE
8
BLACK
10
22.6751
20
-18.3882
11
22.6134
21
-18.6238
0
LINE
8
BLACK
10
22.6134
20
-18.6238
11
23.368
21
-19.3784
0
LINE
8
BLACK
10
23.368
20
-19.3784
11
24.1226
21
-18.6238
0
LINE
8
BLACK
10
24.1226
20
-18.6238
11
24.1226
21
-18.983
0
LINE
8
BLACK
10
24.1226
20
-18.983
11
23.5476
21
-19.558
0
LINE
8
BLACK
10
23.5476
20
-19.558
11
24.3022
21
-20.3126
0
LINE
8
BLACK
10
24.3022
20
-20.3126
11
24.5378
21
-20.2509
0
LINE
8
BLACK
10
24.5378
20
-20.2509
11
24.6361
21
-19.9717
0
LINE
8
BLACK
10
24.6361
20
-19.9717
11
24.7769
21
-20.3124
0
LINE
8
BLACK
10
24.7769
20
-20.3124
11
25.1516
21
-20.6878
0
LINE
8
BLACK
10
25.1516
20
-20.6878
11
25.6416
21
-20.8913
0
LINE
8
BLACK
10
25.6416
20
-20.8913
11
26.1721
21
-20.8917
0
LINE
8
BLACK
10
26.1721
20
-20.8917
11
26.6624
21
-20.6891
0
LINE
8
BLACK
10
26.6624
20
-20.6891
11
27.0378
21
-20.3144
0
LINE
8
BLACK
10
27.0378
20
-20.3144
11
27.1781
21
-19.9766
0
LINE
8
BLACK
10
27.1781
20
-19.9766
11
27.3169
21
-20.3124
0
LINE
8
BLACK
10
27.3169
20
-20.3124
11
27.6916
21
-20.6878
0
LINE
8
BLACK
10
27.6916
20
-20.6878
11
28.1816
21
-20.8913
0
LINE
8
BLACK
10
28.1816
20
-20.8913
11
28.7121
21
-20.8917
0
LINE
8
BLACK
10
28.7121
20
-20.8917
11
29.2024
21
-20.6891
0
LINE
8
BLACK
10
29.2024
20
-20.6891
11
29.5778
21
-20.3144
0
LINE
8
BLACK
10
29.5778
20
-20.3144
11
29.7181
21
-19.9766
0
LINE
8
BLACK
10
29.7181
20
-19.9766
11
29.8569
21
-20.3124
0
LINE
8
BLACK
10
29.8569
20
-20.3124
11
30.2316
21
-20.6878
0
LINE
8
BLACK
10
30.2316
20
-20.6878
11
30.7216
21
-20.8913
0
LINE
8
BLACK
10
30.7216
20
-20.8913
11
31.2521
21
-20.8917
0
LINE
8
BLACK
10
31.2521
20
-20.8917
11
31.7424
21
-20.6891
0
LINE
8
BLACK
10
31.7424
20
-20.6891
11
32.1178
21
-20.3144
0
LINE
8
BLACK
10
32.1178
20
-20.3144
11
32.3213
21
-19.8244
0
LINE
8
BLACK
10
32.3213
20
-19.8244
11
32.3217
21
-19.2939
0
LINE
8
BLACK
10
32.3217
20
-19.2939
11
32.3217
21
-24.7015
0
LINE
8
BLACK
10
32.3217
20
-24.7015
11
29.845
21
-24.7015
0
LINE
8
BLACK
10
29.845
20
-24.7015
11
29.4805
21
-24.774
0
LINE
8
BLACK
10
29.4805
20
-24.774
11
29.1715
21
-24.9805
0
LINE
8
BLACK
10
29.1715
20
-24.9805
11
28.3076
21
-25.8444
0
LINE
8
BLACK
10
28.3076
20
-25.8444
11
28.1839
21
-25.8443
0
LINE
8
BLACK
10
28.1839
20
-25.8443
11
27.6936
21
-26.0469
0
LINE
8
BLACK
10
27.6936
20
-26.0469
11
27.3182
21
-26.4216
0
LINE
8
BLACK
10
27.3182
20
-26.4216
11
27.1779
21
-26.7594
0
LINE
8
BLACK
10
27.1779
20
-26.7594
11
27.0391
21
-26.4236
0
LINE
8
BLACK
10
27.0391
20
-26.4236
11
26.6644
21
-26.0482
0
LINE
8
BLACK
10
26.6644
20
-26.0482
11
26.1744
21
-25.8447
0
LINE
8
BLACK
10
26.1744
20
-25.8447
11
25.6439
21
-25.8443
0
LINE
8
BLACK
10
25.6439
20
-25.8443
11
25.1536
21
-26.0469
0
LINE
8
BLACK
10
25.1536
20
-26.0469
11
24.7782
21
-26.4216
0
LINE
8
BLACK
10
24.7782
20
-26.4216
11
24.7016
21
-26.606
0
LINE
8
BLACK
10
24.7016
20
-26.606
11
24.7016
21
-26.3537
0
LINE
8
BLACK
10
24.7016
20
-26.3537
11
24.6051
21
-26.1203
0
LINE
8
BLACK
10
24.6051
20
-26.1203
11
24.4267
21
-25.9415
0
LINE
8
BLACK
10
24.4267
20
-25.9415
11
24.1934
21
-25.8446
0
LINE
8
BLACK
10
24.1934
20
-25.8446
11
24.1226
21
-25.8445
0
LINE
8
BLACK
10
24.1226
20
-25.8445
11
24.1226
21
-20.4922
0
LINE
8
BLACK
10
24.1226
20
-20.4922
11
23.368
21
-19.7376
0
LINE
8
BLACK
10
23.368
20
-19.7376
11
23.1884
21
-19.9172
0
LINE
8
BLACK
10
23.1884
20
-19.9172
11
23.1884
21
-19.558
0
LINE
8
BLACK
10
23.1884
20
-19.558
11
22.4338
21
-18.8034
0
LINE
8
BLACK
10
22.4338
20
-18.8034
11
22.1982
21
-18.8651
0
LINE
8
BLACK
10
22.1982
20
-18.8651
11
22.0221
21
-19.3655
0
LINE
8
BLACK
10
22.0221
20
-19.3655
11
22.0509
21
-19.8952
0
LINE
8
BLACK
10
22.0509
20
-19.8952
11
22.1982
21
-20.2509
0
LINE
8
BLACK
10
22.1982
20
-20.2509
11
22.4338
21
-20.3126
0
LINE
8
BLACK
10
22.4338
20
-20.3126
11
23.1884
21
-19.558
0
LINE
8
BLACK
10
23.1884
20
-19.558
11
23.1884
21
-19.9172
0
LINE
8
BLACK
10
23.1884
20
-19.9172
11
22.6134
21
-20.4922
0
LINE
8
BLACK
10
22.6134
20
-20.4922
11
22.6751
21
-20.7278
0
LINE
8
BLACK
10
22.6751
20
-20.7278
11
23.1755
21
-20.9039
0
LINE
8
BLACK
10
23.1755
20
-20.9039
11
23.7052
21
-20.8751
0
LINE
8
BLACK
10
23.7052
20
-20.8751
11
24.0609
21
-20.7278
0
LINE
8
BLACK
10
24.0609
20
-20.7278
11
24.1226
21
-20.4922
0
LINE
8
BLACK
10
24.1226
20
-20.4922
11
24.1226
21
-25.8445
0
LINE
8
BLACK
10
24.1226
20
-25.8445
11
23.9407
21
-25.8444
0
LINE
8
BLACK
10
23.9407
20
-25.8444
11
22.5437
21
-25.8444
0
LINE
8
BLACK
10
22.5437
20
-25.8444
11
22.3103
21
-25.9409
0
LINE
8
BLACK
10
22.3103
20
-25.9409
11
22.1315
21
-26.1193
0
LINE
8
BLACK
10
22.1315
20
-26.1193
11
22.0346
21
-26.3526
0
LINE
8
BLACK
10
22.0346
20
-26.3526
11
22.0344
21
-26.6053
0
LINE
8
BLACK
10
22.0344
20
-26.6053
11
22.0344
21
-28.0023
0
LINE
8
BLACK
10
22.0344
20
-28.0023
11
22.1309
21
-28.2357
0
LINE
8
BLACK
10
22.1309
20
-28.2357
11
22.3093
21
-28.4145
0
LINE
8
BLACK
10
22.3093
20
-28.4145
11
22.5426
21
-28.5114
0
LINE
8
BLACK
10
22.5426
20
-28.5114
11
22.7953
21
-28.5116
0
LINE
8
BLACK
10
22.7953
20
-28.5116
11
24.1923
21
-28.5116
0
LINE
8
BLACK
10
24.1923
20
-28.5116
11
24.4257
21
-28.4151
0
LINE
8
BLACK
10
24.4257
20
-28.4151
11
24.6045
21
-28.2367
0
LINE
8
BLACK
10
24.6045
20
-28.2367
11
24.7014
21
-28.0034
0
LINE
8
BLACK
10
24.7014
20
-28.0034
11
24.7016
21
-27.7507
0
LINE
8
BLACK
10
24.7016
20
-27.7507
11
24.7016
21
-27.7503
0
LINE
8
BLACK
10
24.7016
20
-27.7503
11
24.7769
21
-27.9324
0
LINE
8
BLACK
10
24.7769
20
-27.9324
11
25.1516
21
-28.3078
0
LINE
8
BLACK
10
25.1516
20
-28.3078
11
25.6416
21
-28.5113
0
LINE
8
BLACK
10
25.6416
20
-28.5113
11
25.8944
21
-28.5115
0
LINE
8
BLACK
10
25.8944
20
-28.5115
11
26.7585
21
-29.3755
0
LINE
8
BLACK
10
26.7585
20
-29.3755
11
26.7585
21
-29.3755
0
LINE
8
BLACK
10
26.7585
20
-29.3755
11
27.0675
21
-29.582
0
LINE
8
BLACK
10
27.0675
20
-29.582
11
27.432
21
-29.6545
0
LINE
8
BLACK
10
27.432
20
-29.6545
11
27.62
21
-29.6545
0
LINE
8
BLACK
10
27.62
20
-29.6545
11
27.5432
21
-29.7312
0
LINE
8
BLACK
10
27.5432
20
-29.7312
11
27.3281
21
-30.2492
0
LINE
8
BLACK
10
27.3281
20
-30.2492
11
27.3276
21
-30.81
0
LINE
8
BLACK
10
27.3276
20
-30.81
11
27.5418
21
-31.3283
0
LINE
8
BLACK
10
27.5418
20
-31.3283
11
27.938
21
-31.7252
0
LINE
8
BLACK
10
27.938
20
-31.7252
11
28.4559
21
-31.9403
0
LINE
8
BLACK
10
28.4559
20
-31.9403
11
29.0167
21
-31.9407
0
LINE
8
BLACK
10
29.0167
20
-31.9407
11
29.535
21
-31.7266
0
LINE
8
BLACK
10
29.535
20
-31.7266
11
29.9319
21
-31.3304
0
LINE
8
BLACK
10
29.9319
20
-31.3304
11
30.147
21
-30.8124
0
LINE
8
BLACK
10
30.147
20
-30.8124
11
30.1475
21
-30.2516
0
LINE
8
BLACK
10
30.1475
20
-30.2516
11
29.9333
21
-29.7333
0
LINE
8
BLACK
10
29.9333
20
-29.7333
11
29.8547
21
-29.6545
0
LINE
8
BLACK
10
29.8547
20
-29.6545
11
31.1015
21
-29.6545
0
LINE
8
BLACK
10
31.1015
20
-29.6545
11
31.8289
21
-30.3819
0
LINE
8
BLACK
10
31.8289
20
-30.3819
11
31.8285
21
-30.81
0
LINE
8
BLACK
10
31.8285
20
-30.81
11
32.0427
21
-31.3283
0
LINE
8
BLACK
10
32.0427
20
-31.3283
11
32.2859
21
-31.572
0
LINE
8
BLACK
10
32.2859
20
-31.572
11
32.2859
21
-35.9922
0
LINE
8
BLACK
10
32.2859
20
-35.9922
11
32.0441
21
-36.2336
0
LINE
8
BLACK
10
32.0441
20
-36.2336
11
31.829
21
-36.7516
0
LINE
8
BLACK
10
31.829
20
-36.7516
11
31.8285
21
-37.3124
0
LINE
8
BLACK
10
31.8285
20
-37.3124
11
32.0427
21
-37.8307
0
LINE
8
BLACK
10
32.0427
20
-37.8307
11
32.4389
21
-38.2276
0
LINE
8
BLACK
10
32.4389
20
-38.2276
11
32.9568
21
-38.4427
0
LINE
8
BLACK
10
32.9568
20
-38.4427
11
33.5176
21
-38.4431
0
LINE
8
BLACK
10
33.5176
20
-38.4431
11
34.0359
21
-38.229
0
LINE
8
BLACK
10
34.0359
20
-38.229
11
34.4328
21
-37.8328
0
LINE
8
BLACK
10
34.4328
20
-37.8328
11
34.6479
21
-37.3148
0
LINE
8
BLACK
10
34.6479
20
-37.3148
11
34.6484
21
-36.754
0
LINE
8
BLACK
10
34.6484
20
-36.754
11
34.4342
21
-36.2357
0
LINE
8
BLACK
10
34.4342
20
-36.2357
11
34.1909
21
-35.992
0
LINE
8
BLACK
10
34.1909
20
-35.992
11
34.1909
21
-32.8303
0
LINE
8
BLACK
10
34.1909
20
-32.8303
11
34.8919
21
-33.5313
0
LINE
8
BLACK
10
34.8919
20
-33.5313
11
34.7982
21
-33.7569
0
LINE
8
BLACK
10
34.7982
20
-33.7569
11
34.7978
21
-34.3127
0
LINE
8
BLACK
10
34.7978
20
-34.3127
11
35.01
21
-34.8263
0
LINE
8
BLACK
10
35.01
20
-34.8263
11
35.4026
21
-35.2196
0
LINE
8
BLACK
10
35.4026
20
-35.2196
11
35.9159
21
-35.4328
0
LINE
8
BLACK
10
35.9159
20
-35.4328
11
36.4717
21
-35.4332
0
LINE
8
BLACK
10
36.4717
20
-35.4332
11
36.9853
21
-35.221
0
LINE
8
BLACK
10
36.9853
20
-35.221
11
37.3786
21
-34.8284
0
LINE
8
BLACK
10
37.3786
20
-34.8284
11
37.5918
21
-34.3151
0
LINE
8
BLACK
10
37.5918
20
-34.3151
11
37.5922
21
-33.7593
0
LINE
8
BLACK
10
37.5922
20
-33.7593
11
37.5922
21
-37.4649
0
LINE
8
BLACK
10
37.5922
20
-37.4649
11
36.4502
21
-37.4649
0
LINE
8
BLACK
10
36.4502
20
-37.4649
11
36.2168
21
-37.5614
0
LINE
8
BLACK
10
36.2168
20
-37.5614
11
36.038
21
-37.7398
0
LINE
8
BLACK
10
36.038
20
-37.7398
11
35.9411
21
-37.9731
0
LINE
8
BLACK
10
35.9411
20
-37.9731
11
35.9409
21
-38.2258
0
LINE
8
BLACK
10
35.9409
20
-38.2258
11
35.9409
21
-39.7498
0
LINE
8
BLACK
10
35.9409
20
-39.7498
11
36.0374
21
-39.9832
0
LINE
8
BLACK
10
36.0374
20
-39.9832
11
36.2158
21
-40.162
0
LINE
8
BLACK
10
36.2158
20
-40.162
11
36.4491
21
-40.2589
0
LINE
8
BLACK
10
36.4491
20
-40.2589
11
36.7018
21
-40.2591
0
LINE
8
BLACK
10
36.7018
20
-40.2591
11
38.2258
21
-40.2591
0
LINE
8
BLACK
10
38.2258
20
-40.2591
11
38.4592
21
-40.1626
0
LINE
8
BLACK
10
38.4592
20
-40.1626
11
38.638
21
-39.9842
0
LINE
8
BLACK
10
38.638
20
-39.9842
11
38.7349
21
-39.7509
0
LINE
8
BLACK
10
38.7349
20
-39.7509
11
38.7349
21
-39.6943
0
LINE
8
BLACK
10
38.7349
20
-39.6943
11
39.0856
21
-40.0456
0
LINE
8
BLACK
10
39.0856
20
-40.0456
11
39.5989
21
-40.2588
0
LINE
8
BLACK
10
39.5989
20
-40.2588
11
40.1547
21
-40.2592
0
LINE
8
BLACK
10
40.1547
20
-40.2592
11
40.6683
21
-40.047
0
LINE
8
BLACK
10
40.6683
20
-40.047
11
41.0616
21
-39.6544
0
LINE
8
BLACK
10
41.0616
20
-39.6544
11
41.2748
21
-39.1411
0
LINE
8
BLACK
10
41.2748
20
-39.1411
11
41.2752
21
-38.5853
0
LINE
8
BLACK
10
41.2752
20
-38.5853
11
41.2752
21
-58.1745
0
LINE
8
BLACK
10
41.2752
20
-58.1745
11
39.8275
21
-58.1745
0
LINE
8
BLACK
10
39.8275
20
-58.1745
11
39.8275
21
-46.9522
0
LINE
8
BLACK
10
39.8275
20
-46.9522
11
39.6036
21
-46.4106
0
LINE
8
BLACK
10
39.6036
20
-46.4106
11
39.1896
21
-45.9958
0
LINE
8
BLACK
10
39.1896
20
-45.9958
11
38.6483
21
-45.7711
0
LINE
8
BLACK
10
38.6483
20
-45.7711
11
38.0622
21
-45.7705
0
LINE
8
BLACK
10
38.0622
20
-45.7705
11
37.5206
21
-45.9944
0
LINE
8
BLACK
10
37.5206
20
-45.9944
11
37.1058
21
-46.4084
0
LINE
8
BLACK
10
37.1058
20
-46.4084
11
37.0842
21
-46.4604
0
LINE
8
BLACK
10
37.0842
20
-46.4604
11
37.0636
21
-46.4106
0
LINE
8
BLACK
10
37.0636
20
-46.4106
11
36.6496
21
-45.9958
0
LINE
8
BLACK
10
36.6496
20
-45.9958
11
36.1083
21
-45.7711
0
LINE
8
BLACK
10
36.1083
20
-45.7711
11
35.5222
21
-45.7705
0
LINE
8
BLACK
10
35.5222
20
-45.7705
11
34.9806
21
-45.9944
0
LINE
8
BLACK
10
34.9806
20
-45.9944
11
34.5658
21
-46.4084
0
LINE
8
BLACK
10
34.5658
20
-46.4084
11
34.3411
21
-46.9497
0
LINE
8
BLACK
10
34.3411
20
-46.9497
11
34.3407
21
-47.3703
0
LINE
8
BLACK
10
34.3407
20
-47.3703
11
32.8932
21
-48.8177
0
LINE
8
BLACK
10
32.8932
20
-48.8177
11
32.8932
21
-40.2363
0
LINE
8
BLACK
10
32.8932
20
-40.2363
11
32.681
21
-39.7227
0
LINE
8
BLACK
10
32.681
20
-39.7227
11
32.2884
21
-39.3294
0
LINE
8
BLACK
10
32.2884
20
-39.3294
11
31.7751
21
-39.1162
0
LINE
8
BLACK
10
31.7751
20
-39.1162
11
31.2193
21
-39.1158
0
LINE
8
BLACK
10
31.2193
20
-39.1158
11
30.7057
21
-39.328
0
LINE
8
BLACK
10
30.7057
20
-39.328
11
30.3124
21
-39.7206
0
LINE
8
BLACK
10
30.3124
20
-39.7206
11
30.1475
21
-40.1177
0
LINE
8
BLACK
10
30.1475
20
-40.1177
11
30.1475
21
-36.754
0
LINE
8
BLACK
10
30.1475
20
-36.754
11
29.9333
21
-36.2357
0
LINE
8
BLACK
10
29.9333
20
-36.2357
11
29.5371
21
-35.8388
0
LINE
8
BLACK
10
29.5371
20
-35.8388
11
29.0192
21
-35.6237
0
LINE
8
BLACK
10
29.0192
20
-35.6237
11
28.4584
21
-35.6233
0
LINE
8
BLACK
10
28.4584
20
-35.6233
11
27.9401
21
-35.8374
0
LINE
8
BLACK
10
27.9401
20
-35.8374
11
27.7497
21
-36.0275
0
LINE
8
BLACK
10
27.7497
20
-36.0275
11
27.7497
21
-35.3462
0
LINE
8
BLACK
10
27.7497
20
-35.3462
11
27.5857
21
-34.9493
0
LINE
8
BLACK
10
27.5857
20
-34.9493
11
27.2823
21
-34.6454
0
LINE
8
BLACK
10
27.2823
20
-34.6454
11
27.1782
21
-34.6022
0
LINE
8
BLACK
10
27.1782
20
-34.6022
11
27.1782
21
-31.7273
0
LINE
8
BLACK
10
27.1782
20
-31.7273
11
26.966
21
-31.2137
0
LINE
8
BLACK
10
26.966
20
-31.2137
11
26.5734
21
-30.8204
0
LINE
8
BLACK
10
26.5734
20
-30.8204
11
26.0601
21
-30.6072
0
LINE
8
BLACK
10
26.0601
20
-30.6072
11
25.5043
21
-30.6068
0
LINE
8
BLACK
10
25.5043
20
-30.6068
11
24.9907
21
-30.819
0
LINE
8
BLACK
10
24.9907
20
-30.819
11
24.5974
21
-31.2116
0
LINE
8
BLACK
10
24.5974
20
-31.2116
11
24.3842
21
-31.7249
0
LINE
8
BLACK
10
24.3842
20
-31.7249
11
24.3838
21
-32.2807
0
LINE
8
BLACK
10
24.3838
20
-32.2807
11
24.4068
21
-32.3365
0
LINE
8
BLACK
10
24.4068
20
-32.3365
11
22.0689
21
-34.6744
0
LINE
8
BLACK
10
22.0689
20
-34.6744
11
21.6024
21
-34.4807
0
LINE
8
BLACK
10
21.6024
20
-34.4807
11
21.0719
21
-34.4803
0
LINE
8
BLACK
10
21.0719
20
-34.4803
11
20.5816
21
-34.6829
0
LINE
8
BLACK
10
20.5816
20
-34.6829
11
20.2062
21
-35.0576
0
LINE
8
BLACK
10
20.2062
20
-35.0576
11
20.0659
21
-35.3954
0
LINE
8
BLACK
10
20.0659
20
-35.3954
11
19.9271
21
-35.0596
0
LINE
8
BLACK
10
19.9271
20
-35.0596
11
19.5524
21
-34.6842
0
LINE
8
BLACK
10
19.5524
20
-34.6842
11
19.0624
21
-34.4807
0
LINE
8
BLACK
10
19.0624
20
-34.4807
11
18.5319
21
-34.4803
0
LINE
8
BLACK
10
18.5319
20
-34.4803
11
18.4909
21
-34.4972
0
LINE
8
BLACK
10
18.4909
20
-34.4972
11
18.4909
21
-21.7825
0
LINE
8
BLACK
10
18.4909
20
-21.7825
11
18.4621
21
-21.2528
0
LINE
8
BLACK
10
18.4621
20
-21.2528
11
18.3148
21
-20.8971
0
LINE
8
BLACK
10
18.3148
20
-20.8971
11
18.0792
21
-20.8354
0
LINE
8
BLACK
10
18.0792
20
-20.8354
11
17.8996
21
-21.015
0
LINE
8
BLACK
10
17.8996
20
-21.015
11
17.8996
21
-20.6558
0
LINE
8
BLACK
10
17.8996
20
-20.6558
11
17.8379
21
-20.4202
0
LINE
8
BLACK
10
17.8379
20
-20.4202
11
17.3375
21
-20.2441
0
LINE
8
BLACK
10
17.3375
20
-20.2441
11
16.8078
21
-20.2729
0
LINE
8
BLACK
10
16.8078
20
-20.2729
11
16.4521
21
-20.4202
0
LINE
8
BLACK
10
16.4521
20
-20.4202
11
16.3904
21
-20.6558
0
LINE
8
BLACK
10
16.3904
20
-20.6558
11
17.145
21
-21.4104
0
LINE
8
BLACK
10
17.145
20
-21.4104
11
17.8996
21
-20.6558
0
LINE
8
BLACK
10
17.8996
20
-20.6558
11
17.8996
21
-21.015
0
LINE
8
BLACK
10
17.8996
20
-21.015
11
17.3246
21
-21.59
0
LINE
8
BLACK
10
17.3246
20
-21.59
11
18.0792
21
-22.3446
0
LINE
8
BLACK
10
18.0792
20
-22.3446
11
18.3148
21
-22.2829
0
LINE
8
BLACK
10
18.3148
20
-22.2829
11
18.4909
21
-21.7825
0
LINE
8
BLACK
10
18.4909
20
-21.7825
11
18.4909
21
-34.4972
0
LINE
8
BLACK
10
18.4909
20
-34.4972
11
18.4787
21
-34.5022
0
LINE
8
BLACK
10
18.4787
20
-34.5022
11
18.4787
21
-23.8659
0
LINE
8
BLACK
10
18.4787
20
-23.8659
11
18.2761
21
-23.3756
0
LINE
8
BLACK
10
18.2761
20
-23.3756
11
17.9014
21
-23.0002
0
LINE
8
BLACK
10
17.9014
20
-23.0002
11
17.5799
21
-22.8667
0
LINE
8
BLACK
10
17.5799
20
-22.8667
11
17.8379
21
-22.7598
0
LINE
8
BLACK
10
17.8379
20
-22.7598
11
17.8996
21
-22.5242
0
LINE
8
BLACK
10
17.8996
20
-22.5242
11
17.145
21
-21.7696
0
LINE
8
BLACK
10
17.145
20
-21.7696
11
16.9654
21
-21.9492
0
LINE
8
BLACK
10
16.9654
20
-21.9492
11
16.9654
21
-21.59
0
LINE
8
BLACK
10
16.9654
20
-21.59
11
16.2108
21
-20.8354
0
LINE
8
BLACK
10
16.2108
20
-20.8354
11
15.9752
21
-20.8971
0
LINE
8
BLACK
10
15.9752
20
-20.8971
11
15.7991
21
-21.3975
0
LINE
8
BLACK
10
15.7991
20
-21.3975
11
15.8279
21
-21.9272
0
LINE
8
BLACK
10
15.8279
20
-21.9272
11
15.9752
21
-22.2829
0
LINE
8
BLACK
10
15.9752
20
-22.2829
11
16.2108
21
-22.3446
0
LINE
8
BLACK
10
16.2108
20
-22.3446
11
16.9654
21
-21.59
0
LINE
8
BLACK
10
16.9654
20
-21.59
11
16.9654
21
-21.9492
0
LINE
8
BLACK
10
16.9654
20
-21.9492
11
16.3904
21
-22.5242
0
LINE
8
BLACK
10
16.3904
20
-22.5242
11
16.4521
21
-22.7598
0
LINE
8
BLACK
10
16.4521
20
-22.7598
11
16.7313
21
-22.8581
0
LINE
8
BLACK
10
16.7313
20
-22.8581
11
16.3906
21
-22.9989
0
LINE
8
BLACK
10
16.3906
20
-22.9989
11
16.0152
21
-23.3736
0
LINE
8
BLACK
10
16.0152
20
-23.3736
11
15.8117
21
-23.8636
0
LINE
8
BLACK
10
15.8117
20
-23.8636
11
15.8113
21
-24.3941
0
LINE
8
BLACK
10
15.8113
20
-24.3941
11
16.0139
21
-24.8844
0
LINE
8
BLACK
10
16.0139
20
-24.8844
11
16.3886
21
-25.2598
0
LINE
8
BLACK
10
16.3886
20
-25.2598
11
16.8786
21
-25.4633
0
LINE
8
BLACK
10
16.8786
20
-25.4633
11
17.4091
21
-25.4637
0
LINE
8
BLACK
10
17.4091
20
-25.4637
11
17.8994
21
-25.2611
0
LINE
8
BLACK
10
17.8994
20
-25.2611
11
18.2748
21
-24.8864
0
LINE
8
BLACK
10
18.2748
20
-24.8864
11
18.4783
21
-24.3964
0
LINE
8
BLACK
10
18.4783
20
-24.3964
11
18.4787
21
-23.8659
0
LINE
8
BLACK
10
18.4787
20
-23.8659
11
18.4787
21
-34.5022
0
LINE
8
BLACK
10
18.4787
20
-34.5022
11
18.0416
21
-34.6829
0
LINE
8
BLACK
10
18.0416
20
-34.6829
11
17.6662
21
-35.0576
0
LINE
8
BLACK
10
17.6662
20
-35.0576
11
17.4627
21
-35.5476
0
LINE
8
BLACK
10
17.4627
20
-35.5476
11
17.4623
21
-36.0781
0
LINE
8
BLACK
10
17.4623
20
-36.0781
11
17.6649
21
-36.5684
0
LINE
8
BLACK
10
17.6649
20
-36.5684
11
18.0396
21
-36.9438
0
LINE
8
BLACK
10
18.0396
20
-36.9438
11
18.5296
21
-37.1473
0
LINE
8
BLACK
10
18.5296
20
-37.1473
11
19.0601
21
-37.1477
0
LINE
8
BLACK
10
19.0601
20
-37.1477
11
19.5504
21
-36.9451
0
LINE
8
BLACK
10
19.5504
20
-36.9451
11
19.9258
21
-36.5704
0
LINE
8
BLACK
10
19.9258
20
-36.5704
11
20.0661
21
-36.2326
0
LINE
8
BLACK
10
20.0661
20
-36.2326
11
20.2049
21
-36.5684
0
LINE
8
BLACK
10
20.2049
20
-36.5684
11
20.5796
21
-36.9438
0
LINE
8
BLACK
10
20.5796
20
-36.9438
11
21.0696
21
-37.1473
0
LINE
8
BLACK
10
21.0696
20
-37.1473
11
21.6001
21
-37.1477
0
LINE
8
BLACK
10
21.6001
20
-37.1477
11
22.0904
21
-36.9451
0
LINE
8
BLACK
10
22.0904
20
-36.9451
11
22.4658
21
-36.5704
0
LINE
8
BLACK
10
22.4658
20
-36.5704
11
22.6146
21
-36.2121
0
LINE
8
BLACK
10
22.6146
20
-36.2121
11
25.4482
21
-33.3785
0
LINE
8
BLACK
10
25.4482
20
-33.3785
11
25.5019
21
-33.4008
0
LINE
8
BLACK
10
25.5019
20
-33.4008
11
26.0577
21
-33.4012
0
LINE
8
BLACK
10
26.0577
20
-33.4012
11
26.5713
21
-33.189
0
LINE
8
BLACK
10
26.5713
20
-33.189
11
26.9646
21
-32.7964
0
LINE
8
BLACK
10
26.9646
20
-32.7964
11
27.1778
21
-32.2831
0
LINE
8
BLACK
10
27.1778
20
-32.2831
11
27.1782
21
-31.7273
0
LINE
8
BLACK
10
27.1782
20
-31.7273
11
27.1782
21
-34.6022
0
LINE
8
BLACK
10
27.1782
20
-34.6022
11
26.8857
21
-34.4807
0
LINE
8
BLACK
10
26.8857
20
-34.4807
11
26.4562
21
-34.4803
0
LINE
8
BLACK
10
26.4562
20
-34.4803
11
26.0593
21
-34.6443
0
LINE
8
BLACK
10
26.0593
20
-34.6443
11
25.7554
21
-34.9477
0
LINE
8
BLACK
10
25.7554
20
-34.9477
11
25.6277
21
-35.2553
0
LINE
8
BLACK
10
25.6277
20
-35.2553
11
24.2085
21
-36.6745
0
LINE
8
BLACK
10
24.2085
20
-36.6745
11
24.002
21
-36.9835
0
LINE
8
BLACK
10
24.002
20
-36.9835
11
23.9295
21
-37.348
0
LINE
8
BLACK
10
23.9295
20
-37.348
11
23.9295
21
-45.0579
0
LINE
8
BLACK
10
23.9295
20
-45.0579
11
23.7228
21
-45.1434
0
LINE
8
BLACK
10
23.7228
20
-45.1434
11
23.544
21
-45.3218
0
LINE
8
BLACK
10
23.544
20
-45.3218
11
23.4471
21
-45.5551
0
LINE
8
BLACK
10
23.4471
20
-45.5551
11
23.4469
21
-45.8078
0
LINE
8
BLACK
10
23.4469
20
-45.8078
11
23.4469
21
-47.4078
0
LINE
8
BLACK
10
23.4469
20
-47.4078
11
23.5434
21
-47.6412
0
LINE
8
BLACK
10
23.5434
20
-47.6412
11
23.7218
21
-47.82
0
LINE
8
BLACK
10
23.7218
20
-47.82
11
23.9551
21
-47.9169
0
LINE
8
BLACK
10
23.9551
20
-47.9169
11
24.2078
21
-47.9171
0
LINE
8
BLACK
10
24.2078
20
-47.9171
11
25.8078
21
-47.9171
0
LINE
8
BLACK
10
25.8078
20
-47.9171
11
26.0412
21
-47.8206
0
LINE
8
BLACK
10
26.0412
20
-47.8206
11
26.22
21
-47.6422
0
LINE
8
BLACK
10
26.22
20
-47.6422
11
26.3169
21
-47.4089
0
LINE
8
BLACK
10
26.3169
20
-47.4089
11
26.3171
21
-47.1562
0
LINE
8
BLACK
10
26.3171
20
-47.1562
11
26.3171
21
-45.5562
0
LINE
8
BLACK
10
26.3171
20
-45.5562
11
26.2206
21
-45.3228
0
LINE
8
BLACK
10
26.2206
20
-45.3228
11
26.0422
21
-45.144
0
LINE
8
BLACK
10
26.0422
20
-45.144
11
25.8345
21
-45.0578
0
LINE
8
BLACK
10
25.8345
20
-45.0578
11
25.8345
21
-37.7425
0
LINE
8
BLACK
10
25.8345
20
-37.7425
11
26.9751
21
-36.602
0
LINE
8
BLACK
10
26.9751
20
-36.602
11
27.2807
21
-36.4757
0
LINE
8
BLACK
10
27.2807
20
-36.4757
11
27.5846
21
-36.1723
0
LINE
8
BLACK
10
27.5846
20
-36.1723
11
27.7493
21
-35.7757
0
LINE
8
BLACK
10
27.7493
20
-35.7757
11
27.7497
21
-35.3462
0
LINE
8
BLACK
10
27.7497
20
-35.3462
11
27.7497
21
-36.0275
0
LINE
8
BLACK
10
27.7497
20
-36.0275
11
27.5432
21
-36.2336
0
LINE
8
BLACK
10
27.5432
20
-36.2336
11
27.3281
21
-36.7516
0
LINE
8
BLACK
10
27.3281
20
-36.7516
11
27.3276
21
-37.3124
0
LINE
8
BLACK
10
27.3276
20
-37.3124
11
27.5418
21
-37.8307
0
LINE
8
BLACK
10
27.5418
20
-37.8307
11
27.938
21
-38.2276
0
LINE
8
BLACK
10
27.938
20
-38.2276
11
28.4559
21
-38.4427
0
LINE
8
BLACK
10
28.4559
20
-38.4427
11
29.0167
21
-38.4431
0
LINE
8
BLACK
10
29.0167
20
-38.4431
11
29.535
21
-38.229
0
LINE
8
BLACK
10
29.535
20
-38.229
11
29.9319
21
-37.8328
0
LINE
8
BLACK
10
29.9319
20
-37.8328
11
30.147
21
-37.3148
0
LINE
8
BLACK
10
30.147
20
-37.3148
11
30.1475
21
-36.754
0
LINE
8
BLACK
10
30.1475
20
-36.754
11
30.1475
21
-40.1177
0
LINE
8
BLACK
10
30.1475
20
-40.1177
11
30.0992
21
-40.2339
0
LINE
8
BLACK
10
30.0992
20
-40.2339
11
30.0988
21
-40.7897
0
LINE
8
BLACK
10
30.0988
20
-40.7897
11
30.311
21
-41.3033
0
LINE
8
BLACK
10
30.311
20
-41.3033
11
30.7036
21
-41.6966
0
LINE
8
BLACK
10
30.7036
20
-41.6966
11
31.2169
21
-41.9098
0
LINE
8
BLACK
10
31.2169
20
-41.9098
11
31.7727
21
-41.9102
0
LINE
8
BLACK
10
31.7727
20
-41.9102
11
32.2863
21
-41.698
0
LINE
8
BLACK
10
32.2863
20
-41.698
11
32.6796
21
-41.3054
0
LINE
8
BLACK
10
32.6796
20
-41.3054
11
32.8928
21
-40.7921
0
LINE
8
BLACK
10
32.8928
20
-40.7921
11
32.8932
21
-40.2363
0
LINE
8
BLACK
10
32.8932
20
-40.2363
11
32.8932
21
-48.8177
0
LINE
8
BLACK
10
32.8932
20
-48.8177
11
31.1271
21
-50.5839
0
LINE
8
BLACK
10
31.1271
20
-50.5839
11
30.7057
21
-50.758
0
LINE
8
BLACK
10
30.7057
20
-50.758
11
30.3124
21
-51.1506
0
LINE
8
BLACK
10
30.3124
20
-51.1506
11
30.0992
21
-51.6639
0
LINE
8
BLACK
10
30.0992
20
-51.6639
11
30.0988
21
-52.2197
0
LINE
8
BLACK
10
30.0988
20
-52.2197
11
30.311
21
-52.7333
0
LINE
8
BLACK
10
30.311
20
-52.7333
11
30.7036
21
-53.1266
0
LINE
8
BLACK
10
30.7036
20
-53.1266
11
31.2169
21
-53.3398
0
LINE
8
BLACK
10
31.2169
20
-53.3398
11
31.7727
21
-53.3402
0
LINE
8
BLACK
10
31.7727
20
-53.3402
11
32.2863
21
-53.128
0
LINE
8
BLACK
10
32.2863
20
-53.128
11
32.6796
21
-52.7354
0
LINE
8
BLACK
10
32.6796
20
-52.7354
11
32.8928
21
-52.2221
0
LINE
8
BLACK
10
32.8928
20
-52.2221
11
32.8932
21
-51.6663
0
LINE
8
BLACK
10
32.8932
20
-51.6663
11
32.8481
21
-51.557
0
LINE
8
BLACK
10
32.8481
20
-51.557
11
35.6879
21
-48.7171
0
LINE
8
BLACK
10
35.6879
20
-48.7171
11
36.1058
21
-48.7175
0
LINE
8
BLACK
10
36.1058
20
-48.7175
11
36.6474
21
-48.4936
0
LINE
8
BLACK
10
36.6474
20
-48.4936
11
37.0622
21
-48.0796
0
LINE
8
BLACK
10
37.0622
20
-48.0796
11
37.0838
21
-48.0276
0
LINE
8
BLACK
10
37.0838
20
-48.0276
11
37.1044
21
-48.0774
0
LINE
8
BLACK
10
37.1044
20
-48.0774
11
37.5184
21
-48.4922
0
LINE
8
BLACK
10
37.5184
20
-48.4922
11
38.0597
21
-48.7169
0
LINE
8
BLACK
10
38.0597
20
-48.7169
11
38.6458
21
-48.7175
0
LINE
8
BLACK
10
38.6458
20
-48.7175
11
39.1874
21
-48.4936
0
LINE
8
BLACK
10
39.1874
20
-48.4936
11
39.6022
21
-48.0796
0
LINE
8
BLACK
10
39.6022
20
-48.0796
11
39.8269
21
-47.5383
0
LINE
8
BLACK
10
39.8269
20
-47.5383
11
39.8275
21
-46.9522
0
LINE
8
BLACK
10
39.8275
20
-46.9522
11
39.8275
21
-58.1745
0
LINE
8
BLACK
10
39.8275
20
-58.1745
11
18.7172
21
-58.1745
0
LINE
8
BLACK
10
18.7172
20
-58.1745
11
18.7172
21
-46.1978
0
LINE
8
BLACK
10
18.7172
20
-46.1978
11
18.4992
21
-45.6702
0
LINE
8
BLACK
10
18.4992
20
-45.6702
11
18.0959
21
-45.2662
0
LINE
8
BLACK
10
18.0959
20
-45.2662
11
17.5687
21
-45.0473
0
LINE
8
BLACK
10
17.5687
20
-45.0473
11
16.9978
21
-45.0468
0
LINE
8
BLACK
10
16.9978
20
-45.0468
11
16.4702
21
-45.2648
0
LINE
8
BLACK
10
16.4702
20
-45.2648
11
16.0662
21
-45.6681
0
LINE
8
BLACK
10
16.0662
20
-45.6681
11
15.8473
21
-46.1953
0
LINE
8
BLACK
10
15.8473
20
-46.1953
11
15.8468
21
-46.7662
0
LINE
8
BLACK
10
15.8468
20
-46.7662
11
16.0648
21
-47.2938
0
LINE
8
BLACK
10
16.0648
20
-47.2938
11
16.4681
21
-47.6978
0
LINE
8
BLACK
10
16.4681
20
-47.6978
11
16.9953
21
-47.9168
0
LINE
8
BLACK
10
16.9953
20
-47.9168
11
17.5662
21
-47.9172
0
LINE
8
BLACK
10
17.5662
20
-47.9172
11
18.0938
21
-47.6992
0
LINE
8
BLACK
10
18.0938
20
-47.6992
11
18.4978
21
-47.2959
0
LINE
8
BLACK
10
18.4978
20
-47.2959
11
18.7168
21
-46.7687
0
LINE
8
BLACK
10
18.7168
20
-46.7687
11
18.7172
21
-46.1978
0
LINE
8
BLACK
10
18.7172
20
-46.1978
11
18.7172
21
-58.1745
0
LINE
8
BLACK
10
18.7172
20
-58.1745
11
16.2128
21
-58.1745
0
LINE
8
BLACK
10
16.2128
20
-58.1745
11
17.2281
21
-57.161
0
LINE
8
BLACK
10
17.2281
20
-57.161
11
17.8093
21
-55.7612
0
LINE
8
BLACK
10
17.8093
20
-55.7612
11
17.8107
21
-54.2455
0
LINE
8
BLACK
10
17.8107
20
-54.2455
11
17.2318
21
-52.8446
0
LINE
8
BLACK
10
17.2318
20
-52.8446
11
16.161
21
-51.7719
0
LINE
8
BLACK
10
16.161
20
-51.7719
11
15.7601
21
-51.6055
0
LINE
8
BLACK
10
15.7601
20
-51.6055
11
15.7601
21
-32.2117
0
LINE
8
BLACK
10
15.7601
20
-32.2117
11
15.7324
21
-31.6566
0
LINE
8
BLACK
10
15.7324
20
-31.6566
11
15.5734
21
-31.2729
0
LINE
8
BLACK
10
15.5734
20
-31.2729
11
15.3312
21
-31.2034
0
LINE
8
BLACK
10
15.3312
20
-31.2034
11
15.1516
21
-31.383
0
LINE
8
BLACK
10
15.1516
20
-31.383
11
15.1516
21
-31.0238
0
LINE
8
BLACK
10
15.1516
20
-31.0238
11
15.0821
21
-30.7816
0
LINE
8
BLACK
10
15.0821
20
-30.7816
11
14.5587
21
-30.5949
0
LINE
8
BLACK
10
14.5587
20
-30.5949
11
14.0036
21
-30.6226
0
LINE
8
BLACK
10
14.0036
20
-30.6226
11
13.6199
21
-30.7816
0
LINE
8
BLACK
10
13.6199
20
-30.7816
11
13.5504
21
-31.0238
0
LINE
8
BLACK
10
13.5504
20
-31.0238
11
14.351
21
-31.8244
0
LINE
8
BLACK
10
14.351
20
-31.8244
11
15.1516
21
-31.0238
0
LINE
8
BLACK
10
15.1516
20
-31.0238
11
15.1516
21
-31.383
0
LINE
8
BLACK
10
15.1516
20
-31.383
11
14.5306
21
-32.004
0
LINE
8
BLACK
10
14.5306
20
-32.004
11
15.3312
21
-32.8046
0
LINE
8
BLACK
10
15.3312
20
-32.8046
11
15.5734
21
-32.7351
0
LINE
8
BLACK
10
15.5734
20
-32.7351
11
15.7601
21
-32.2117
0
LINE
8
BLACK
10
15.7601
20
-32.2117
11
15.7601
21
-51.6055
0
LINE
8
BLACK
10
15.7601
20
-51.6055
11
15.1516
21
-51.3528
0
LINE
8
BLACK
10
15.1516
20
-51.3528
11
15.1516
21
-32.9842
0
LINE
8
BLACK
10
15.1516
20
-32.9842
11
14.351
21
-32.1836
0
LINE
8
BLACK
10
14.351
20
-32.1836
11
14.1714
21
-32.3632
0
LINE
8
BLACK
10
14.1714
20
-32.3632
11
14.1714
21
-32.004
0
LINE
8
BLACK
10
14.1714
20
-32.004
11
13.3708
21
-31.2034
0
LINE
8
BLACK
10
13.3708
20
-31.2034
11
13.1286
21
-31.2729
0
LINE
8
BLACK
10
13.1286
20
-31.2729
11
12.9419
21
-31.7963
0
LINE
8
BLACK
10
12.9419
20
-31.7963
11
12.9696
21
-32.3514
0
LINE
8
BLACK
10
12.9696
20
-32.3514
11
13.1286
21
-32.7351
0
LINE
8
BLACK
10
13.1286
20
-32.7351
11
13.3708
21
-32.8046
0
LINE
8
BLACK
10
13.3708
20
-32.8046
11
14.1714
21
-32.004
0
LINE
8
BLACK
10
14.1714
20
-32.004
11
14.1714
21
-32.3632
0
LINE
8
BLACK
10
14.1714
20
-32.3632
11
13.5504
21
-32.9842
0
LINE
8
BLACK
10
13.5504
20
-32.9842
11
13.6199
21
-33.2264
0
LINE
8
BLACK
10
13.6199
20
-33.2264
11
14.1433
21
-33.4131
0
LINE
8
BLACK
10
14.1433
20
-33.4131
11
14.6984
21
-33.3854
0
LINE
8
BLACK
10
14.6984
20
-33.3854
11
15.0821
21
-33.2264
0
LINE
8
BLACK
10
15.0821
20
-33.2264
11
15.1516
21
-32.9842
0
LINE
8
BLACK
10
15.1516
20
-32.9842
11
15.1516
21
-51.3528
0
LINE
8
BLACK
10
15.1516
20
-51.3528
11
14.7612
21
-51.1907
0
LINE
8
BLACK
10
14.7612
20
-51.1907
11
13.2455
21
-51.1893
0
LINE
8
BLACK
10
13.2455
20
-51.1893
11
11.8446
21
-51.7682
0
LINE
8
BLACK
10
11.8446
20
-51.7682
11
10.8255
21
-52.7855
0
LINE
8
BLACK
10
10.8255
20
-52.7855
11
10.8255
21
-16.2128
0
LINE
8
BLACK
10
10.8255
20
-16.2128
11
11.839
21
-17.2281
0
LINE
8
BLACK
10
11.839
20
-17.2281
11
13.2388
21
-17.8093
0
LINE
8
BLACK
10
13.2388
20
-17.8093
11
14.7545
21
-17.8107
0
LINE
8
BLACK
10
14.7545
20
-17.8107
11
16.1554
21
-17.2318
0
LINE
8
BLACK
10
16.1554
20
-17.2318
11
17.2281
21
-16.161
0
LINE
8
BLACK
10
17.2281
20
-16.161
11
17.8093
21
-14.7612
0
LINE
8
BLACK
10
17.8093
20
-14.7612
11
17.8107
21
-13.2455
0
LINE
8
BLACK
10
17.8107
20
-13.2455
11
17.2318
21
-11.8446
0
LINE
8
BLACK
10
17.2318
20
-11.8446
11
16.2145
21
-10.8255
0
LINE
8
BLACK
10
16.2145
20
-10.8255
11
52.7872
21
-10.8255
0
LINE
8
BLACK
10
52.7872
20
-10.8255
11
51.7719
21
-11.839
0
LINE
8
BLACK
10
51.7719
20
-11.839
11
51.1907
21
-13.2388
0
LINE
8
BLACK
10
51.1907
20
-13.2388
11
51.1893
21
-14.7545
0
LINE
8
BLACK
10
51.1893
20
-14.7545
11
51.7682
21
-16.1554
0
LINE
8
BLACK
10
51.7682
20
-16.1554
11
52.839
21
-17.2281
0
LINE
8
BLACK
10
52.839
20
-17.2281
11
54.2388
21
-17.8093
0
LINE
8
BLACK
10
54.2388
20
-17.8093
11
55.7545
21
-17.8107
0
LINE
8
BLACK
10
55.7545
20
-17.8107
11
57.1554
21
-17.2318
0
LINE
8
BLACK
10
57.1554
20
-17.2318
11
58.1745
21
-16.2145
0
LINE
8
BLACK
10
58.1745
20
-16.2145
11
58.1745
21
-52.7872
  0
ENDSEC
  0
EOF
