G04 #@! TF.FileFunction,Legend,Top*
%FSLAX46Y46*%
G04 Gerber Fmt 4.6, Leading zero omitted, Abs format (unit mm)*
G04 Created by KiCad (PCBNEW (after 2015-mar-04 BZR unknown)-product) date 5/15/2017 4:50:43 PM*
%MOMM*%
G01*
G04 APERTURE LIST*
%ADD10C,0.150000*%
%ADD11C,0.381000*%
%ADD12C,0.304800*%
%ADD13C,0.285750*%
%ADD14C,0.375000*%
%ADD15C,0.120000*%
G04 APERTURE END LIST*
D10*
D11*
X48017000Y-47902000D02*
X48017000Y-40917000D01*
X55710000Y-48029000D02*
X55710000Y-40790000D01*
X42983000Y-40790000D02*
X42983000Y-48029000D01*
D12*
X49331033Y-47254583D02*
X50099081Y-47254583D01*
X49177424Y-47708155D02*
X49715057Y-46120655D01*
X50252690Y-47708155D01*
X50790324Y-47708155D02*
X50790324Y-46120655D01*
X51174348Y-46120655D01*
X51404762Y-46196250D01*
X51558371Y-46347440D01*
X51635176Y-46498631D01*
X51711981Y-46801012D01*
X51711981Y-47027798D01*
X51635176Y-47330179D01*
X51558371Y-47481369D01*
X51404762Y-47632560D01*
X51174348Y-47708155D01*
X50790324Y-47708155D01*
X52403224Y-47708155D02*
X52403224Y-46120655D01*
X52787248Y-46120655D01*
X53017662Y-46196250D01*
X53171271Y-46347440D01*
X53248076Y-46498631D01*
X53324881Y-46801012D01*
X53324881Y-47027798D01*
X53248076Y-47330179D01*
X53171271Y-47481369D01*
X53017662Y-47632560D01*
X52787248Y-47708155D01*
X52403224Y-47708155D01*
X54937781Y-47708155D02*
X54400148Y-46952202D01*
X54016124Y-47708155D02*
X54016124Y-46120655D01*
X54630562Y-46120655D01*
X54784171Y-46196250D01*
X54860976Y-46271845D01*
X54937781Y-46423036D01*
X54937781Y-46649821D01*
X54860976Y-46801012D01*
X54784171Y-46876607D01*
X54630562Y-46952202D01*
X54016124Y-46952202D01*
X43368520Y-45830655D02*
X44290177Y-45830655D01*
X43829348Y-47418155D02*
X43829348Y-45830655D01*
X45749467Y-47418155D02*
X45211834Y-46662202D01*
X44827810Y-47418155D02*
X44827810Y-45830655D01*
X45442248Y-45830655D01*
X45595857Y-45906250D01*
X45672662Y-45981845D01*
X45749467Y-46133036D01*
X45749467Y-46359821D01*
X45672662Y-46511012D01*
X45595857Y-46586607D01*
X45442248Y-46662202D01*
X44827810Y-46662202D01*
X46440710Y-47418155D02*
X46440710Y-45830655D01*
X46978343Y-46964583D01*
X47515976Y-45830655D01*
X47515976Y-47418155D01*
X45117960Y-44787457D02*
X45193555Y-44557043D01*
X45193555Y-44173019D01*
X45117960Y-44019409D01*
X45042364Y-43942605D01*
X44891174Y-43865800D01*
X44739983Y-43865800D01*
X44588793Y-43942605D01*
X44513198Y-44019409D01*
X44437602Y-44173019D01*
X44362007Y-44480238D01*
X44286412Y-44633847D01*
X44210817Y-44710652D01*
X44059626Y-44787457D01*
X43908436Y-44787457D01*
X43757245Y-44710652D01*
X43681650Y-44633847D01*
X43606055Y-44480238D01*
X43606055Y-44096214D01*
X43681650Y-43865800D01*
X45042364Y-42252900D02*
X45117960Y-42329705D01*
X45193555Y-42560119D01*
X45193555Y-42713729D01*
X45117960Y-42944143D01*
X44966769Y-43097752D01*
X44815579Y-43174557D01*
X44513198Y-43251362D01*
X44286412Y-43251362D01*
X43984031Y-43174557D01*
X43832840Y-43097752D01*
X43681650Y-42944143D01*
X43606055Y-42713729D01*
X43606055Y-42560119D01*
X43681650Y-42329705D01*
X43757245Y-42252900D01*
X45193555Y-40793610D02*
X45193555Y-41561657D01*
X43606055Y-41561657D01*
X47645260Y-44864262D02*
X47720855Y-44633848D01*
X47720855Y-44249824D01*
X47645260Y-44096214D01*
X47569664Y-44019410D01*
X47418474Y-43942605D01*
X47267283Y-43942605D01*
X47116093Y-44019410D01*
X47040498Y-44096214D01*
X46964902Y-44249824D01*
X46889307Y-44557043D01*
X46813712Y-44710652D01*
X46738117Y-44787457D01*
X46586926Y-44864262D01*
X46435736Y-44864262D01*
X46284545Y-44787457D01*
X46208950Y-44710652D01*
X46133355Y-44557043D01*
X46133355Y-44173019D01*
X46208950Y-43942605D01*
X47720855Y-43251362D02*
X46133355Y-43251362D01*
X46133355Y-42867338D01*
X46208950Y-42636924D01*
X46360140Y-42483315D01*
X46511331Y-42406510D01*
X46813712Y-42329705D01*
X47040498Y-42329705D01*
X47342879Y-42406510D01*
X47494069Y-42483315D01*
X47645260Y-42636924D01*
X47720855Y-42867338D01*
X47720855Y-43251362D01*
X47267283Y-41715267D02*
X47267283Y-40947219D01*
X47720855Y-41868876D02*
X46133355Y-41331243D01*
X47720855Y-40793610D01*
X49794583Y-43251362D02*
X49794583Y-42483314D01*
X50248155Y-43404971D02*
X48660655Y-42867338D01*
X50248155Y-42329705D01*
X48811845Y-41868876D02*
X48736250Y-41792071D01*
X48660655Y-41638462D01*
X48660655Y-41254438D01*
X48736250Y-41100828D01*
X48811845Y-41024024D01*
X48963036Y-40947219D01*
X49114226Y-40947219D01*
X49341012Y-41024024D01*
X50248155Y-41945681D01*
X50248155Y-40947219D01*
X52321883Y-43251362D02*
X52321883Y-42483314D01*
X52775455Y-43404971D02*
X51187955Y-42867338D01*
X52775455Y-42329705D01*
X52775455Y-40947219D02*
X52775455Y-41868876D01*
X52775455Y-41408047D02*
X51187955Y-41408047D01*
X51414740Y-41561657D01*
X51565931Y-41715266D01*
X51641526Y-41868876D01*
X54849183Y-43251362D02*
X54849183Y-42483314D01*
X55302755Y-43404971D02*
X53715255Y-42867338D01*
X55302755Y-42329705D01*
X53715255Y-41484852D02*
X53715255Y-41331243D01*
X53790850Y-41177633D01*
X53866445Y-41100828D01*
X54017636Y-41024024D01*
X54320017Y-40947219D01*
X54697993Y-40947219D01*
X55000374Y-41024024D01*
X55151564Y-41100828D01*
X55227160Y-41177633D01*
X55302755Y-41331243D01*
X55302755Y-41484852D01*
X55227160Y-41638462D01*
X55151564Y-41715266D01*
X55000374Y-41792071D01*
X54697993Y-41868876D01*
X54320017Y-41868876D01*
X54017636Y-41792071D01*
X53866445Y-41715266D01*
X53790850Y-41638462D01*
X53715255Y-41484852D01*
X32226250Y-45126124D02*
X32150655Y-45279733D01*
X32150655Y-45510148D01*
X32226250Y-45740562D01*
X32377440Y-45894171D01*
X32528631Y-45970976D01*
X32831012Y-46047781D01*
X33057798Y-46047781D01*
X33360179Y-45970976D01*
X33511369Y-45894171D01*
X33662560Y-45740562D01*
X33738155Y-45510148D01*
X33738155Y-45356538D01*
X33662560Y-45126124D01*
X33586964Y-45049319D01*
X33057798Y-45049319D01*
X33057798Y-45356538D01*
X33738155Y-44358076D02*
X32150655Y-44358076D01*
X33738155Y-43436419D01*
X32150655Y-43436419D01*
X33738155Y-42668371D02*
X32150655Y-42668371D01*
X32150655Y-42284347D01*
X32226250Y-42053933D01*
X32377440Y-41900324D01*
X32528631Y-41823519D01*
X32831012Y-41746714D01*
X33057798Y-41746714D01*
X33360179Y-41823519D01*
X33511369Y-41900324D01*
X33662560Y-42053933D01*
X33738155Y-42284347D01*
X33738155Y-42668371D01*
D13*
X49576000Y-17474071D02*
X49957000Y-18617071D01*
X50338000Y-17474071D01*
X51372143Y-18508214D02*
X51317714Y-18562643D01*
X51154428Y-18617071D01*
X51045571Y-18617071D01*
X50882286Y-18562643D01*
X50773428Y-18453786D01*
X50719000Y-18344929D01*
X50664571Y-18127214D01*
X50664571Y-17963929D01*
X50719000Y-17746214D01*
X50773428Y-17637357D01*
X50882286Y-17528500D01*
X51045571Y-17474071D01*
X51154428Y-17474071D01*
X51317714Y-17528500D01*
X51372143Y-17582929D01*
X52515143Y-18508214D02*
X52460714Y-18562643D01*
X52297428Y-18617071D01*
X52188571Y-18617071D01*
X52025286Y-18562643D01*
X51916428Y-18453786D01*
X51862000Y-18344929D01*
X51807571Y-18127214D01*
X51807571Y-17963929D01*
X51862000Y-17746214D01*
X51916428Y-17637357D01*
X52025286Y-17528500D01*
X52188571Y-17474071D01*
X52297428Y-17474071D01*
X52460714Y-17528500D01*
X52515143Y-17582929D01*
D12*
X53824000Y-15546214D02*
X52662857Y-16017929D01*
X53824000Y-16489643D01*
X55638286Y-16568262D02*
X55856000Y-16646881D01*
X56218857Y-16646881D01*
X56364000Y-16568262D01*
X56436571Y-16489643D01*
X56509143Y-16332405D01*
X56509143Y-16175167D01*
X56436571Y-16017929D01*
X56364000Y-15939310D01*
X56218857Y-15860690D01*
X55928571Y-15782071D01*
X55783429Y-15703452D01*
X55710857Y-15624833D01*
X55638286Y-15467595D01*
X55638286Y-15310357D01*
X55710857Y-15153119D01*
X55783429Y-15074500D01*
X55928571Y-14995881D01*
X56291429Y-14995881D01*
X56509143Y-15074500D01*
X57017143Y-14995881D02*
X57380000Y-16646881D01*
X57670286Y-15467595D01*
X57960572Y-16646881D01*
X58323429Y-14995881D01*
X53624000Y-13046214D02*
X52462857Y-13517929D01*
X53624000Y-13989643D01*
X56236571Y-14146881D02*
X55510857Y-14146881D01*
X55510857Y-12495881D01*
X56744571Y-13282071D02*
X57252571Y-13282071D01*
X57470285Y-14146881D02*
X56744571Y-14146881D01*
X56744571Y-12495881D01*
X57470285Y-12495881D01*
X58123428Y-14146881D02*
X58123428Y-12495881D01*
X58486285Y-12495881D01*
X58704000Y-12574500D01*
X58849142Y-12731738D01*
X58921714Y-12888976D01*
X58994285Y-13203452D01*
X58994285Y-13439310D01*
X58921714Y-13753786D01*
X58849142Y-13911024D01*
X58704000Y-14068262D01*
X58486285Y-14146881D01*
X58123428Y-14146881D01*
X59574857Y-14068262D02*
X59792571Y-14146881D01*
X60155428Y-14146881D01*
X60300571Y-14068262D01*
X60373142Y-13989643D01*
X60445714Y-13832405D01*
X60445714Y-13675167D01*
X60373142Y-13517929D01*
X60300571Y-13439310D01*
X60155428Y-13360690D01*
X59865142Y-13282071D01*
X59720000Y-13203452D01*
X59647428Y-13124833D01*
X59574857Y-12967595D01*
X59574857Y-12810357D01*
X59647428Y-12653119D01*
X59720000Y-12574500D01*
X59865142Y-12495881D01*
X60228000Y-12495881D01*
X60445714Y-12574500D01*
X25146000Y-15893142D02*
X25073429Y-16038285D01*
X25073429Y-16255999D01*
X25146000Y-16473714D01*
X25291143Y-16618856D01*
X25436286Y-16691428D01*
X25726571Y-16763999D01*
X25944286Y-16763999D01*
X26234571Y-16691428D01*
X26379714Y-16618856D01*
X26524857Y-16473714D01*
X26597429Y-16255999D01*
X26597429Y-16110856D01*
X26524857Y-15893142D01*
X26452286Y-15820571D01*
X25944286Y-15820571D01*
X25944286Y-16110856D01*
X26597429Y-15167428D02*
X25073429Y-15167428D01*
X26597429Y-14296571D01*
X25073429Y-14296571D01*
X26597429Y-13570857D02*
X25073429Y-13570857D01*
X25073429Y-13208000D01*
X25146000Y-12990285D01*
X25291143Y-12845143D01*
X25436286Y-12772571D01*
X25726571Y-12700000D01*
X25944286Y-12700000D01*
X26234571Y-12772571D01*
X26379714Y-12845143D01*
X26524857Y-12990285D01*
X26597429Y-13208000D01*
X26597429Y-13570857D01*
D14*
X15158929Y-18864286D02*
X15230357Y-18721428D01*
X15373214Y-18650000D01*
X16658929Y-18650000D01*
X15158929Y-20078571D02*
X15944643Y-20078571D01*
X16087500Y-20007142D01*
X16158929Y-19864285D01*
X16158929Y-19578571D01*
X16087500Y-19435714D01*
X15230357Y-20078571D02*
X15158929Y-19935714D01*
X15158929Y-19578571D01*
X15230357Y-19435714D01*
X15373214Y-19364285D01*
X15516071Y-19364285D01*
X15658929Y-19435714D01*
X15730357Y-19578571D01*
X15730357Y-19935714D01*
X15801786Y-20078571D01*
X16158929Y-20792857D02*
X15158929Y-20792857D01*
X16016071Y-20792857D02*
X16087500Y-20864285D01*
X16158929Y-21007143D01*
X16158929Y-21221428D01*
X16087500Y-21364285D01*
X15944643Y-21435714D01*
X15158929Y-21435714D01*
X15158929Y-22792857D02*
X16658929Y-22792857D01*
X15230357Y-22792857D02*
X15158929Y-22650000D01*
X15158929Y-22364286D01*
X15230357Y-22221428D01*
X15301786Y-22150000D01*
X15444643Y-22078571D01*
X15873214Y-22078571D01*
X16016071Y-22150000D01*
X16087500Y-22221428D01*
X16158929Y-22364286D01*
X16158929Y-22650000D01*
X16087500Y-22792857D01*
X15730357Y-23507143D02*
X15730357Y-24650000D01*
X15158929Y-25364286D02*
X16658929Y-25364286D01*
X16087500Y-25364286D02*
X16158929Y-25507143D01*
X16158929Y-25792857D01*
X16087500Y-25935714D01*
X16016071Y-26007143D01*
X15873214Y-26078572D01*
X15444643Y-26078572D01*
X15301786Y-26007143D01*
X15230357Y-25935714D01*
X15158929Y-25792857D01*
X15158929Y-25507143D01*
X15230357Y-25364286D01*
X15158929Y-26935715D02*
X15230357Y-26792857D01*
X15301786Y-26721429D01*
X15444643Y-26650000D01*
X15873214Y-26650000D01*
X16016071Y-26721429D01*
X16087500Y-26792857D01*
X16158929Y-26935715D01*
X16158929Y-27150000D01*
X16087500Y-27292857D01*
X16016071Y-27364286D01*
X15873214Y-27435715D01*
X15444643Y-27435715D01*
X15301786Y-27364286D01*
X15230357Y-27292857D01*
X15158929Y-27150000D01*
X15158929Y-26935715D01*
X15158929Y-28721429D02*
X15944643Y-28721429D01*
X16087500Y-28650000D01*
X16158929Y-28507143D01*
X16158929Y-28221429D01*
X16087500Y-28078572D01*
X15230357Y-28721429D02*
X15158929Y-28578572D01*
X15158929Y-28221429D01*
X15230357Y-28078572D01*
X15373214Y-28007143D01*
X15516071Y-28007143D01*
X15658929Y-28078572D01*
X15730357Y-28221429D01*
X15730357Y-28578572D01*
X15801786Y-28721429D01*
X15158929Y-29435715D02*
X16158929Y-29435715D01*
X15873214Y-29435715D02*
X16016071Y-29507143D01*
X16087500Y-29578572D01*
X16158929Y-29721429D01*
X16158929Y-29864286D01*
X15158929Y-31007143D02*
X16658929Y-31007143D01*
X15230357Y-31007143D02*
X15158929Y-30864286D01*
X15158929Y-30578572D01*
X15230357Y-30435714D01*
X15301786Y-30364286D01*
X15444643Y-30292857D01*
X15873214Y-30292857D01*
X16016071Y-30364286D01*
X16087500Y-30435714D01*
X16158929Y-30578572D01*
X16158929Y-30864286D01*
X16087500Y-31007143D01*
X15230357Y-31650000D02*
X15158929Y-31792857D01*
X15158929Y-32078572D01*
X15230357Y-32221429D01*
X15373214Y-32292857D01*
X15444643Y-32292857D01*
X15587500Y-32221429D01*
X15658929Y-32078572D01*
X15658929Y-31864286D01*
X15730357Y-31721429D01*
X15873214Y-31650000D01*
X15944643Y-31650000D01*
X16087500Y-31721429D01*
X16158929Y-31864286D01*
X16158929Y-32078572D01*
X16087500Y-32221429D01*
X15301786Y-32935715D02*
X15230357Y-33007143D01*
X15158929Y-32935715D01*
X15230357Y-32864286D01*
X15301786Y-32935715D01*
X15158929Y-32935715D01*
X15230357Y-34292858D02*
X15158929Y-34150001D01*
X15158929Y-33864287D01*
X15230357Y-33721429D01*
X15301786Y-33650001D01*
X15444643Y-33578572D01*
X15873214Y-33578572D01*
X16016071Y-33650001D01*
X16087500Y-33721429D01*
X16158929Y-33864287D01*
X16158929Y-34150001D01*
X16087500Y-34292858D01*
X15158929Y-35150001D02*
X15230357Y-35007143D01*
X15301786Y-34935715D01*
X15444643Y-34864286D01*
X15873214Y-34864286D01*
X16016071Y-34935715D01*
X16087500Y-35007143D01*
X16158929Y-35150001D01*
X16158929Y-35364286D01*
X16087500Y-35507143D01*
X16016071Y-35578572D01*
X15873214Y-35650001D01*
X15444643Y-35650001D01*
X15301786Y-35578572D01*
X15230357Y-35507143D01*
X15158929Y-35364286D01*
X15158929Y-35150001D01*
X15158929Y-36292858D02*
X16158929Y-36292858D01*
X16016071Y-36292858D02*
X16087500Y-36364286D01*
X16158929Y-36507144D01*
X16158929Y-36721429D01*
X16087500Y-36864286D01*
X15944643Y-36935715D01*
X15158929Y-36935715D01*
X15944643Y-36935715D02*
X16087500Y-37007144D01*
X16158929Y-37150001D01*
X16158929Y-37364286D01*
X16087500Y-37507144D01*
X15944643Y-37578572D01*
X15158929Y-37578572D01*
X16730357Y-39364286D02*
X14801786Y-38078572D01*
X12755357Y-21400000D02*
X12683929Y-21614286D01*
X12683929Y-21971429D01*
X12755357Y-22114286D01*
X12826786Y-22185715D01*
X12969643Y-22257143D01*
X13112500Y-22257143D01*
X13255357Y-22185715D01*
X13326786Y-22114286D01*
X13398214Y-21971429D01*
X13469643Y-21685715D01*
X13541071Y-21542857D01*
X13612500Y-21471429D01*
X13755357Y-21400000D01*
X13898214Y-21400000D01*
X14041071Y-21471429D01*
X14112500Y-21542857D01*
X14183929Y-21685715D01*
X14183929Y-22042857D01*
X14112500Y-22257143D01*
X14183929Y-22757143D02*
X12683929Y-23114286D01*
X13755357Y-23400000D01*
X12683929Y-23685714D01*
X14183929Y-24042857D01*
X12683929Y-25328572D02*
X12683929Y-24614286D01*
X14183929Y-24614286D01*
X13469643Y-25828572D02*
X13469643Y-26328572D01*
X12683929Y-26542858D02*
X12683929Y-25828572D01*
X14183929Y-25828572D01*
X14183929Y-26542858D01*
X12683929Y-27185715D02*
X14183929Y-27185715D01*
X14183929Y-27542858D01*
X14112500Y-27757143D01*
X13969643Y-27900001D01*
X13826786Y-27971429D01*
X13541071Y-28042858D01*
X13326786Y-28042858D01*
X13041071Y-27971429D01*
X12898214Y-27900001D01*
X12755357Y-27757143D01*
X12683929Y-27542858D01*
X12683929Y-27185715D01*
X14183929Y-28542858D02*
X12683929Y-29542858D01*
X14183929Y-29542858D02*
X12683929Y-28542858D01*
X13541071Y-30328572D02*
X13612500Y-30185714D01*
X13683929Y-30114286D01*
X13826786Y-30042857D01*
X13898214Y-30042857D01*
X14041071Y-30114286D01*
X14112500Y-30185714D01*
X14183929Y-30328572D01*
X14183929Y-30614286D01*
X14112500Y-30757143D01*
X14041071Y-30828572D01*
X13898214Y-30900000D01*
X13826786Y-30900000D01*
X13683929Y-30828572D01*
X13612500Y-30757143D01*
X13541071Y-30614286D01*
X13541071Y-30328572D01*
X13469643Y-30185714D01*
X13398214Y-30114286D01*
X13255357Y-30042857D01*
X12969643Y-30042857D01*
X12826786Y-30114286D01*
X12755357Y-30185714D01*
X12683929Y-30328572D01*
X12683929Y-30614286D01*
X12755357Y-30757143D01*
X12826786Y-30828572D01*
X12969643Y-30900000D01*
X13255357Y-30900000D01*
X13398214Y-30828572D01*
X13469643Y-30757143D01*
X13541071Y-30614286D01*
X13255357Y-31542857D02*
X13255357Y-32685714D01*
X12683929Y-33400000D02*
X14183929Y-33400000D01*
X14041071Y-34042857D02*
X14112500Y-34114286D01*
X14183929Y-34257143D01*
X14183929Y-34614286D01*
X14112500Y-34757143D01*
X14041071Y-34828572D01*
X13898214Y-34900000D01*
X13755357Y-34900000D01*
X13541071Y-34828572D01*
X12683929Y-33971429D01*
X12683929Y-34900000D01*
X12826786Y-36400000D02*
X12755357Y-36328571D01*
X12683929Y-36114285D01*
X12683929Y-35971428D01*
X12755357Y-35757143D01*
X12898214Y-35614285D01*
X13041071Y-35542857D01*
X13326786Y-35471428D01*
X13541071Y-35471428D01*
X13826786Y-35542857D01*
X13969643Y-35614285D01*
X14112500Y-35757143D01*
X14183929Y-35971428D01*
X14183929Y-36114285D01*
X14112500Y-36328571D01*
X14041071Y-36400000D01*
D12*
X60019238Y-46002858D02*
X59051619Y-46510858D01*
X60019238Y-46873715D02*
X57987238Y-46873715D01*
X57987238Y-46293143D01*
X58084000Y-46148001D01*
X58180762Y-46075429D01*
X58374286Y-46002858D01*
X58664571Y-46002858D01*
X58858095Y-46075429D01*
X58954857Y-46148001D01*
X59051619Y-46293143D01*
X59051619Y-46873715D01*
X58954857Y-45349715D02*
X58954857Y-44841715D01*
X60019238Y-44624001D02*
X60019238Y-45349715D01*
X57987238Y-45349715D01*
X57987238Y-44624001D01*
X57987238Y-44188572D02*
X60019238Y-43680572D01*
X57987238Y-43172572D01*
X57987238Y-41648572D02*
X60019238Y-40632572D01*
X57987238Y-40632572D02*
X60019238Y-41648572D01*
X60019238Y-39253714D02*
X60019238Y-40124571D01*
X60019238Y-39689143D02*
X57987238Y-39689143D01*
X58277524Y-39834286D01*
X58471048Y-39979428D01*
X58567810Y-40124571D01*
D15*
X54772000Y-20456000D02*
X55972000Y-20456000D01*
X55972000Y-22216000D02*
X54772000Y-22216000D01*
X62646000Y-20456000D02*
X63846000Y-20456000D01*
X63846000Y-22216000D02*
X62646000Y-22216000D01*
X62646000Y-18170000D02*
X63846000Y-18170000D01*
X63846000Y-19930000D02*
X62646000Y-19930000D01*
X54772000Y-18170000D02*
X55972000Y-18170000D01*
X55972000Y-19930000D02*
X54772000Y-19930000D01*
X39500000Y-37880000D02*
X38300000Y-37880000D01*
X38300000Y-36120000D02*
X39500000Y-36120000D01*
X39600000Y-41780000D02*
X38400000Y-41780000D01*
X38400000Y-40020000D02*
X39600000Y-40020000D01*
X53340000Y-35500000D02*
X43120000Y-35500000D01*
X43120000Y-35500000D02*
X43120000Y-40700000D01*
X43120000Y-40700000D02*
X55940000Y-40700000D01*
X55940000Y-40700000D02*
X55940000Y-38100000D01*
X55940000Y-38100000D02*
X53340000Y-38100000D01*
X53340000Y-38100000D02*
X53340000Y-35500000D01*
X54610000Y-35500000D02*
X55940000Y-35500000D01*
X55940000Y-35500000D02*
X55940000Y-36830000D01*
X27312000Y-29448000D02*
X27312000Y-30818000D01*
X27312000Y-30818000D02*
X63112000Y-30818000D01*
X63112000Y-30818000D02*
X63112000Y-26078000D01*
X63112000Y-26078000D02*
X27312000Y-26078000D01*
X27312000Y-26078000D02*
X27312000Y-27448000D01*
X27312000Y-27448000D02*
G75*
G02X27312000Y-29448000I0J-1000000D01*
G01*
X31810000Y-40710000D02*
X29210000Y-40710000D01*
X29210000Y-40710000D02*
X29210000Y-43330000D01*
X29210000Y-43330000D02*
X31810000Y-43330000D01*
X31810000Y-43330000D02*
X31810000Y-40710000D01*
X30860000Y-43330000D02*
X30100000Y-43330000D01*
X30100000Y-43330000D02*
X30100000Y-49330000D01*
X30100000Y-49330000D02*
X30860000Y-49330000D01*
X30860000Y-49330000D02*
X30860000Y-43330000D01*
X30860000Y-40280000D02*
X30860000Y-40710000D01*
X30100000Y-40280000D02*
X30100000Y-40710000D01*
X30860000Y-37740000D02*
X30860000Y-38460000D01*
X30100000Y-37740000D02*
X30100000Y-38460000D01*
X30740000Y-43330000D02*
X30740000Y-49330000D01*
X30620000Y-43330000D02*
X30620000Y-49330000D01*
X30500000Y-43330000D02*
X30500000Y-49330000D01*
X30380000Y-43330000D02*
X30380000Y-49330000D01*
X30260000Y-43330000D02*
X30260000Y-49330000D01*
X30140000Y-43330000D02*
X30140000Y-49330000D01*
X29210000Y-40710000D02*
X26670000Y-40710000D01*
X26670000Y-40710000D02*
X26670000Y-43330000D01*
X26670000Y-43330000D02*
X29210000Y-43330000D01*
X29210000Y-43330000D02*
X29210000Y-40710000D01*
X28320000Y-43330000D02*
X27560000Y-43330000D01*
X27560000Y-43330000D02*
X27560000Y-49330000D01*
X27560000Y-49330000D02*
X28320000Y-49330000D01*
X28320000Y-49330000D02*
X28320000Y-43330000D01*
X28320000Y-40280000D02*
X28320000Y-40710000D01*
X27560000Y-40280000D02*
X27560000Y-40710000D01*
X28320000Y-37740000D02*
X28320000Y-38460000D01*
X27560000Y-37740000D02*
X27560000Y-38460000D01*
X26670000Y-40710000D02*
X24130000Y-40710000D01*
X24130000Y-40710000D02*
X24130000Y-43330000D01*
X24130000Y-43330000D02*
X26670000Y-43330000D01*
X26670000Y-43330000D02*
X26670000Y-40710000D01*
X25780000Y-43330000D02*
X25020000Y-43330000D01*
X25020000Y-43330000D02*
X25020000Y-49330000D01*
X25020000Y-49330000D02*
X25780000Y-49330000D01*
X25780000Y-49330000D02*
X25780000Y-43330000D01*
X25780000Y-40280000D02*
X25780000Y-40710000D01*
X25020000Y-40280000D02*
X25020000Y-40710000D01*
X25780000Y-37740000D02*
X25780000Y-38460000D01*
X25020000Y-37740000D02*
X25020000Y-38460000D01*
X24130000Y-40710000D02*
X21590000Y-40710000D01*
X21590000Y-40710000D02*
X21590000Y-43330000D01*
X21590000Y-43330000D02*
X24130000Y-43330000D01*
X24130000Y-43330000D02*
X24130000Y-40710000D01*
X23240000Y-43330000D02*
X22480000Y-43330000D01*
X22480000Y-43330000D02*
X22480000Y-49330000D01*
X22480000Y-49330000D02*
X23240000Y-49330000D01*
X23240000Y-49330000D02*
X23240000Y-43330000D01*
X23240000Y-40280000D02*
X23240000Y-40710000D01*
X22480000Y-40280000D02*
X22480000Y-40710000D01*
X23240000Y-37740000D02*
X23240000Y-38460000D01*
X22480000Y-37740000D02*
X22480000Y-38460000D01*
X21590000Y-40710000D02*
X18990000Y-40710000D01*
X18990000Y-40710000D02*
X18990000Y-43330000D01*
X18990000Y-43330000D02*
X21590000Y-43330000D01*
X21590000Y-43330000D02*
X21590000Y-40710000D01*
X20700000Y-43330000D02*
X19940000Y-43330000D01*
X19940000Y-43330000D02*
X19940000Y-49330000D01*
X19940000Y-49330000D02*
X20700000Y-49330000D01*
X20700000Y-49330000D02*
X20700000Y-43330000D01*
X20700000Y-40280000D02*
X20700000Y-40710000D01*
X19940000Y-40280000D02*
X19940000Y-40710000D01*
X20700000Y-37740000D02*
X20700000Y-38460000D01*
X19940000Y-37740000D02*
X19940000Y-38460000D01*
X30480000Y-35560000D02*
X31750000Y-35560000D01*
X31750000Y-35560000D02*
X31750000Y-36830000D01*
D12*
X58928000Y-22025429D02*
X58420000Y-21299714D01*
X58057143Y-22025429D02*
X58057143Y-20501429D01*
X58637715Y-20501429D01*
X58782857Y-20574000D01*
X58855429Y-20646571D01*
X58928000Y-20791714D01*
X58928000Y-21009429D01*
X58855429Y-21154571D01*
X58782857Y-21227143D01*
X58637715Y-21299714D01*
X58057143Y-21299714D01*
X60379429Y-22025429D02*
X59508572Y-22025429D01*
X59944000Y-22025429D02*
X59944000Y-20501429D01*
X59798857Y-20719143D01*
X59653715Y-20864286D01*
X59508572Y-20936857D01*
X67056000Y-22279429D02*
X66548000Y-21553714D01*
X66185143Y-22279429D02*
X66185143Y-20755429D01*
X66765715Y-20755429D01*
X66910857Y-20828000D01*
X66983429Y-20900571D01*
X67056000Y-21045714D01*
X67056000Y-21263429D01*
X66983429Y-21408571D01*
X66910857Y-21481143D01*
X66765715Y-21553714D01*
X66185143Y-21553714D01*
X67636572Y-20900571D02*
X67709143Y-20828000D01*
X67854286Y-20755429D01*
X68217143Y-20755429D01*
X68362286Y-20828000D01*
X68434857Y-20900571D01*
X68507429Y-21045714D01*
X68507429Y-21190857D01*
X68434857Y-21408571D01*
X67564000Y-22279429D01*
X68507429Y-22279429D01*
X66802000Y-19739429D02*
X66294000Y-19013714D01*
X65931143Y-19739429D02*
X65931143Y-18215429D01*
X66511715Y-18215429D01*
X66656857Y-18288000D01*
X66729429Y-18360571D01*
X66802000Y-18505714D01*
X66802000Y-18723429D01*
X66729429Y-18868571D01*
X66656857Y-18941143D01*
X66511715Y-19013714D01*
X65931143Y-19013714D01*
X67310000Y-18215429D02*
X68253429Y-18215429D01*
X67745429Y-18796000D01*
X67963143Y-18796000D01*
X68108286Y-18868571D01*
X68180857Y-18941143D01*
X68253429Y-19086286D01*
X68253429Y-19449143D01*
X68180857Y-19594286D01*
X68108286Y-19666857D01*
X67963143Y-19739429D01*
X67527715Y-19739429D01*
X67382572Y-19666857D01*
X67310000Y-19594286D01*
X58928000Y-19739429D02*
X58420000Y-19013714D01*
X58057143Y-19739429D02*
X58057143Y-18215429D01*
X58637715Y-18215429D01*
X58782857Y-18288000D01*
X58855429Y-18360571D01*
X58928000Y-18505714D01*
X58928000Y-18723429D01*
X58855429Y-18868571D01*
X58782857Y-18941143D01*
X58637715Y-19013714D01*
X58057143Y-19013714D01*
X60234286Y-18723429D02*
X60234286Y-19739429D01*
X59871429Y-18142857D02*
X59508572Y-19231429D01*
X60452000Y-19231429D01*
X38646000Y-39467429D02*
X38138000Y-38741714D01*
X37775143Y-39467429D02*
X37775143Y-37943429D01*
X38355715Y-37943429D01*
X38500857Y-38016000D01*
X38573429Y-38088571D01*
X38646000Y-38233714D01*
X38646000Y-38451429D01*
X38573429Y-38596571D01*
X38500857Y-38669143D01*
X38355715Y-38741714D01*
X37775143Y-38741714D01*
X40024857Y-37943429D02*
X39299143Y-37943429D01*
X39226572Y-38669143D01*
X39299143Y-38596571D01*
X39444286Y-38524000D01*
X39807143Y-38524000D01*
X39952286Y-38596571D01*
X40024857Y-38669143D01*
X40097429Y-38814286D01*
X40097429Y-39177143D01*
X40024857Y-39322286D01*
X39952286Y-39394857D01*
X39807143Y-39467429D01*
X39444286Y-39467429D01*
X39299143Y-39394857D01*
X39226572Y-39322286D01*
X39254000Y-39557429D02*
X38746000Y-38831714D01*
X38383143Y-39557429D02*
X38383143Y-38033429D01*
X38963715Y-38033429D01*
X39108857Y-38106000D01*
X39181429Y-38178571D01*
X39254000Y-38323714D01*
X39254000Y-38541429D01*
X39181429Y-38686571D01*
X39108857Y-38759143D01*
X38963715Y-38831714D01*
X38383143Y-38831714D01*
X40560286Y-38033429D02*
X40270000Y-38033429D01*
X40124857Y-38106000D01*
X40052286Y-38178571D01*
X39907143Y-38396286D01*
X39834572Y-38686571D01*
X39834572Y-39267143D01*
X39907143Y-39412286D01*
X39979715Y-39484857D01*
X40124857Y-39557429D01*
X40415143Y-39557429D01*
X40560286Y-39484857D01*
X40632857Y-39412286D01*
X40705429Y-39267143D01*
X40705429Y-38904286D01*
X40632857Y-38759143D01*
X40560286Y-38686571D01*
X40415143Y-38614000D01*
X40124857Y-38614000D01*
X39979715Y-38686571D01*
X39907143Y-38759143D01*
X39834572Y-38904286D01*
X58099429Y-37654857D02*
X56575429Y-37654857D01*
X56575429Y-37074285D01*
X56648000Y-36929143D01*
X56720571Y-36856571D01*
X56865714Y-36784000D01*
X57083429Y-36784000D01*
X57228571Y-36856571D01*
X57301143Y-36929143D01*
X57373714Y-37074285D01*
X57373714Y-37654857D01*
X56575429Y-36276000D02*
X56575429Y-35332571D01*
X57156000Y-35840571D01*
X57156000Y-35622857D01*
X57228571Y-35477714D01*
X57301143Y-35405143D01*
X57446286Y-35332571D01*
X57809143Y-35332571D01*
X57954286Y-35405143D01*
X58026857Y-35477714D01*
X58099429Y-35622857D01*
X58099429Y-36058285D01*
X58026857Y-36203428D01*
X57954286Y-36276000D01*
X25327429Y-31895143D02*
X26561143Y-31895143D01*
X26706286Y-31822571D01*
X26778857Y-31750000D01*
X26851429Y-31604857D01*
X26851429Y-31314571D01*
X26778857Y-31169429D01*
X26706286Y-31096857D01*
X26561143Y-31024286D01*
X25327429Y-31024286D01*
X26851429Y-29500286D02*
X26851429Y-30371143D01*
X26851429Y-29935715D02*
X25327429Y-29935715D01*
X25545143Y-30080858D01*
X25690286Y-30226000D01*
X25762857Y-30371143D01*
D10*
X33980381Y-37314095D02*
X32980381Y-37314095D01*
X32980381Y-36933142D01*
X33028000Y-36837904D01*
X33075619Y-36790285D01*
X33170857Y-36742666D01*
X33313714Y-36742666D01*
X33408952Y-36790285D01*
X33456571Y-36837904D01*
X33504190Y-36933142D01*
X33504190Y-37314095D01*
X33075619Y-36361714D02*
X33028000Y-36314095D01*
X32980381Y-36218857D01*
X32980381Y-35980761D01*
X33028000Y-35885523D01*
X33075619Y-35837904D01*
X33170857Y-35790285D01*
X33266095Y-35790285D01*
X33408952Y-35837904D01*
X33980381Y-36409333D01*
X33980381Y-35790285D01*
M02*
