  0
SECTION
  2
HEADER
  9
$ANGBASE
  50
0.0
  9
$ANGDIR
  70
  1
  9
$MEASUREMENT
  70
0
  0
ENDSEC
  0
SECTION
  2
TABLES
  0
TABLE
  2
LTYPE
  70
1
  0
LTYPE
  2
CONTINUOUS
  70
0
  3
Solid line
  72
65
  73
0
  40
0.0
  0
ENDTAB
  0
TABLE
  2
STYLE
  70
4
  0
STYLE
  2
KICAD
  70
0
  40
0
  41
1
  42
1
  50
0
  71
0
  3
isocp.shx
  0
STYLE
  2
KICADB
  70
0
  40
0
  41
1
  42
1
  50
0
  71
0
  3
isocp.shx
  0
STYLE
  2
KICADI
  70
0
  40
0
  41
1
  42
1
  50
15
  71
0
  3
isocp.shx
  0
STYLE
  2
KICADBI
  70
0
  40
0
  41
1
  42
1
  50
15
  71
0
  3
isocp.shx
  0
ENDTAB
  0
TABLE
  2
LAYER
  70
30
  0
LAYER
  2
BLACK
  70
0
  62
7
  6
CONTINUOUS
  0
LAYER
  2
GRAY1
  70
0
  62
251
  6
CONTINUOUS
  0
LAYER
  2
GRAY2
  70
0
  62
8
  6
CONTINUOUS
  0
LAYER
  2
GRAY3
  70
0
  62
9
  6
CONTINUOUS
  0
LAYER
  2
WHITE
  70
0
  62
7
  6
CONTINUOUS
  0
LAYER
  2
LYELLOW
  70
0
  62
51
  6
CONTINUOUS
  0
LAYER
  2
BLUE1
  70
0
  62
178
  6
CONTINUOUS
  0
LAYER
  2
GREEN1
  70
0
  62
98
  6
CONTINUOUS
  0
LAYER
  2
CYAN1
  70
0
  62
138
  6
CONTINUOUS
  0
LAYER
  2
RED1
  70
0
  62
18
  6
CONTINUOUS
  0
LAYER
  2
MAGENTA1
  70
0
  62
228
  6
CONTINUOUS
  0
LAYER
  2
BROWN1
  70
0
  62
58
  6
CONTINUOUS
  0
LAYER
  2
BLUE2
  70
0
  62
5
  6
CONTINUOUS
  0
LAYER
  2
GREEN2
  70
0
  62
3
  6
CONTINUOUS
  0
LAYER
  2
CYAN2
  70
0
  62
4
  6
CONTINUOUS
  0
LAYER
  2
RED2
  70
0
  62
1
  6
CONTINUOUS
  0
LAYER
  2
MAGENTA2
  70
0
  62
6
  6
CONTINUOUS
  0
LAYER
  2
BROWN2
  70
0
  62
54
  6
CONTINUOUS
  0
LAYER
  2
BLUE3
  70
0
  62
171
  6
CONTINUOUS
  0
LAYER
  2
GREEN3
  70
0
  62
91
  6
CONTINUOUS
  0
LAYER
  2
CYAN3
  70
0
  62
131
  6
CONTINUOUS
  0
LAYER
  2
RED3
  70
0
  62
11
  6
CONTINUOUS
  0
LAYER
  2
MAGENTA3
  70
0
  62
221
  6
CONTINUOUS
  0
LAYER
  2
YELLOW3
  70
0
  62
2
  6
CONTINUOUS
  0
LAYER
  2
BLUE4
  70
0
  62
5
  6
CONTINUOUS
  0
LAYER
  2
GREEN4
  70
0
  62
3
  6
CONTINUOUS
  0
LAYER
  2
CYAN4
  70
0
  62
4
  6
CONTINUOUS
  0
LAYER
  2
RED4
  70
0
  62
1
  6
CONTINUOUS
  0
LAYER
  2
MAGENTA4
  70
0
  62
6
  6
CONTINUOUS
  0
LAYER
  2
YELLOW4
  70
0
  62
2
  6
CONTINUOUS
  0
ENDTAB
  0
ENDSEC
  0
SECTION
  2
ENTITIES
0
LINE
8
Black
10
152.191
20
-86
11
152.191
21
-41
0
LINE
8
Black
10
151.81
20
-86
11
151.81
21
-41
0
ARC
8
Black
10
152
20
-41
40
0.1905
50
360
51
540
0
ARC
8
Black
10
152
20
-86
40
0.1905
50
180
51
360
0
LINE
8
Black
10
57.1905
20
-86
11
57.1905
21
-41
0
LINE
8
Black
10
56.8095
20
-86
11
56.8095
21
-41
0
ARC
8
Black
10
57
20
-41
40
0.1905
50
360
51
540
0
ARC
8
Black
10
57
20
-86
40
0.1905
50
180
51
360
0
LINE
8
Black
10
62
20
-91.1905
11
147
21
-91.1905
0
LINE
8
Black
10
62
20
-90.8095
11
147
21
-90.8095
0
ARC
8
Black
10
147
20
-91
40
0.1905
50
270
51
450
0
ARC
8
Black
10
62
20
-91
40
0.1905
50
90
51
270
0
LINE
8
Black
10
62
20
-36.1905
11
147
21
-36.1905
0
LINE
8
Black
10
62
20
-35.8095
11
147
21
-35.8095
0
ARC
8
Black
10
147
20
-36
40
0.1905
50
270
51
450
0
ARC
8
Black
10
62
20
-36
40
0.1905
50
90
51
270
0
ARC
8
Black
10
62
20
-86
40
5
50
-180
51
-90
0
ARC
8
Black
10
62
20
-41
40
5
50
90
51
180
0
ARC
8
Black
10
147
20
-41
40
5
50
-0
51
90
0
ARC
8
Black
10
147
20
-86
40
5
50
-90
51
-0
0
LINE
8
Black
10
71.305
20
-42.73
11
72.205
21
-43.63
0
LINE
8
Black
10
72.205
20
-42.73
11
71.305
21
-43.63
0
LINE
8
Black
10
71.305
20
-45.27
11
72.205
21
-46.17
0
LINE
8
Black
10
72.205
20
-45.27
11
71.305
21
-46.17
0
LINE
8
Black
10
71.305
20
-56.065
11
72.205
21
-56.965
0
LINE
8
Black
10
72.205
20
-56.065
11
71.305
21
-56.965
0
LINE
8
Black
10
71.305
20
-58.605
11
72.205
21
-59.505
0
LINE
8
Black
10
72.205
20
-58.605
11
71.305
21
-59.505
0
LINE
8
Black
10
75.75
20
-42.73
11
76.65
21
-43.63
0
LINE
8
Black
10
76.65
20
-42.73
11
75.75
21
-43.63
0
LINE
8
Black
10
75.75
20
-45.27
11
76.65
21
-46.17
0
LINE
8
Black
10
76.65
20
-45.27
11
75.75
21
-46.17
0
LINE
8
Black
10
75.75
20
-56.065
11
76.65
21
-56.965
0
LINE
8
Black
10
76.65
20
-56.065
11
75.75
21
-56.965
0
LINE
8
Black
10
75.75
20
-58.605
11
76.65
21
-59.505
0
LINE
8
Black
10
76.65
20
-58.605
11
75.75
21
-59.505
0
LINE
8
Black
10
80.195
20
-42.73
11
81.095
21
-43.63
0
LINE
8
Black
10
81.095
20
-42.73
11
80.195
21
-43.63
0
LINE
8
Black
10
80.195
20
-45.27
11
81.095
21
-46.17
0
LINE
8
Black
10
81.095
20
-45.27
11
80.195
21
-46.17
0
LINE
8
Black
10
80.195
20
-56.065
11
81.095
21
-56.965
0
LINE
8
Black
10
81.095
20
-56.065
11
80.195
21
-56.965
0
LINE
8
Black
10
80.195
20
-58.605
11
81.095
21
-59.505
0
LINE
8
Black
10
81.095
20
-58.605
11
80.195
21
-59.505
0
LINE
8
Black
10
84.64
20
-42.73
11
85.54
21
-43.63
0
LINE
8
Black
10
85.54
20
-42.73
11
84.64
21
-43.63
0
LINE
8
Black
10
84.64
20
-45.27
11
85.54
21
-46.17
0
LINE
8
Black
10
85.54
20
-45.27
11
84.64
21
-46.17
0
LINE
8
Black
10
84.64
20
-56.065
11
85.54
21
-56.965
0
LINE
8
Black
10
85.54
20
-56.065
11
84.64
21
-56.965
0
LINE
8
Black
10
84.64
20
-58.605
11
85.54
21
-59.505
0
LINE
8
Black
10
85.54
20
-58.605
11
84.64
21
-59.505
0
LINE
8
Black
10
89.085
20
-42.73
11
89.985
21
-43.63
0
LINE
8
Black
10
89.985
20
-42.73
11
89.085
21
-43.63
0
LINE
8
Black
10
89.085
20
-45.27
11
89.985
21
-46.17
0
LINE
8
Black
10
89.985
20
-45.27
11
89.085
21
-46.17
0
LINE
8
Black
10
89.085
20
-56.065
11
89.985
21
-56.965
0
LINE
8
Black
10
89.985
20
-56.065
11
89.085
21
-56.965
0
LINE
8
Black
10
89.085
20
-58.605
11
89.985
21
-59.505
0
LINE
8
Black
10
89.985
20
-58.605
11
89.085
21
-59.505
0
LINE
8
Black
10
93.53
20
-42.73
11
94.43
21
-43.63
0
LINE
8
Black
10
94.43
20
-42.73
11
93.53
21
-43.63
0
LINE
8
Black
10
93.53
20
-45.27
11
94.43
21
-46.17
0
LINE
8
Black
10
94.43
20
-45.27
11
93.53
21
-46.17
0
LINE
8
Black
10
93.53
20
-56.065
11
94.43
21
-56.965
0
LINE
8
Black
10
94.43
20
-56.065
11
93.53
21
-56.965
0
LINE
8
Black
10
93.53
20
-58.605
11
94.43
21
-59.505
0
LINE
8
Black
10
94.43
20
-58.605
11
93.53
21
-59.505
0
LINE
8
Black
10
97.975
20
-42.73
11
98.875
21
-43.63
0
LINE
8
Black
10
98.875
20
-42.73
11
97.975
21
-43.63
0
LINE
8
Black
10
97.975
20
-45.27
11
98.875
21
-46.17
0
LINE
8
Black
10
98.875
20
-45.27
11
97.975
21
-46.17
0
LINE
8
Black
10
97.975
20
-56.065
11
98.875
21
-56.965
0
LINE
8
Black
10
98.875
20
-56.065
11
97.975
21
-56.965
0
LINE
8
Black
10
97.975
20
-58.605
11
98.875
21
-59.505
0
LINE
8
Black
10
98.875
20
-58.605
11
97.975
21
-59.505
0
LINE
8
Black
10
102.42
20
-42.73
11
103.32
21
-43.63
0
LINE
8
Black
10
103.32
20
-42.73
11
102.42
21
-43.63
0
LINE
8
Black
10
102.42
20
-45.27
11
103.32
21
-46.17
0
LINE
8
Black
10
103.32
20
-45.27
11
102.42
21
-46.17
0
LINE
8
Black
10
102.42
20
-56.065
11
103.32
21
-56.965
0
LINE
8
Black
10
103.32
20
-56.065
11
102.42
21
-56.965
0
LINE
8
Black
10
102.42
20
-58.605
11
103.32
21
-59.505
0
LINE
8
Black
10
103.32
20
-58.605
11
102.42
21
-59.505
0
LINE
8
Black
10
106.865
20
-42.73
11
107.765
21
-43.63
0
LINE
8
Black
10
107.765
20
-42.73
11
106.865
21
-43.63
0
LINE
8
Black
10
106.865
20
-45.27
11
107.765
21
-46.17
0
LINE
8
Black
10
107.765
20
-45.27
11
106.865
21
-46.17
0
LINE
8
Black
10
106.865
20
-56.065
11
107.765
21
-56.965
0
LINE
8
Black
10
107.765
20
-56.065
11
106.865
21
-56.965
0
LINE
8
Black
10
106.865
20
-58.605
11
107.765
21
-59.505
0
LINE
8
Black
10
107.765
20
-58.605
11
106.865
21
-59.505
0
LINE
8
Black
10
111.31
20
-42.73
11
112.21
21
-43.63
0
LINE
8
Black
10
112.21
20
-42.73
11
111.31
21
-43.63
0
LINE
8
Black
10
111.31
20
-45.27
11
112.21
21
-46.17
0
LINE
8
Black
10
112.21
20
-45.27
11
111.31
21
-46.17
0
LINE
8
Black
10
111.31
20
-56.065
11
112.21
21
-56.965
0
LINE
8
Black
10
112.21
20
-56.065
11
111.31
21
-56.965
0
LINE
8
Black
10
111.31
20
-58.605
11
112.21
21
-59.505
0
LINE
8
Black
10
112.21
20
-58.605
11
111.31
21
-59.505
0
LINE
8
Black
10
115.755
20
-42.73
11
116.655
21
-43.63
0
LINE
8
Black
10
116.655
20
-42.73
11
115.755
21
-43.63
0
LINE
8
Black
10
115.755
20
-45.27
11
116.655
21
-46.17
0
LINE
8
Black
10
116.655
20
-45.27
11
115.755
21
-46.17
0
LINE
8
Black
10
115.755
20
-56.065
11
116.655
21
-56.965
0
LINE
8
Black
10
116.655
20
-56.065
11
115.755
21
-56.965
0
LINE
8
Black
10
115.755
20
-58.605
11
116.655
21
-59.505
0
LINE
8
Black
10
116.655
20
-58.605
11
115.755
21
-59.505
0
LINE
8
Black
10
120.2
20
-42.73
11
121.1
21
-43.63
0
LINE
8
Black
10
121.1
20
-42.73
11
120.2
21
-43.63
0
LINE
8
Black
10
120.2
20
-45.27
11
121.1
21
-46.17
0
LINE
8
Black
10
121.1
20
-45.27
11
120.2
21
-46.17
0
LINE
8
Black
10
120.2
20
-56.065
11
121.1
21
-56.965
0
LINE
8
Black
10
121.1
20
-56.065
11
120.2
21
-56.965
0
LINE
8
Black
10
120.2
20
-58.605
11
121.1
21
-59.505
0
LINE
8
Black
10
121.1
20
-58.605
11
120.2
21
-59.505
0
LINE
8
Black
10
124.645
20
-42.73
11
125.545
21
-43.63
0
LINE
8
Black
10
125.545
20
-42.73
11
124.645
21
-43.63
0
LINE
8
Black
10
124.645
20
-45.27
11
125.545
21
-46.17
0
LINE
8
Black
10
125.545
20
-45.27
11
124.645
21
-46.17
0
LINE
8
Black
10
124.645
20
-56.065
11
125.545
21
-56.965
0
LINE
8
Black
10
125.545
20
-56.065
11
124.645
21
-56.965
0
LINE
8
Black
10
124.645
20
-58.605
11
125.545
21
-59.505
0
LINE
8
Black
10
125.545
20
-58.605
11
124.645
21
-59.505
0
LINE
8
Black
10
129.09
20
-42.73
11
129.99
21
-43.63
0
LINE
8
Black
10
129.99
20
-42.73
11
129.09
21
-43.63
0
LINE
8
Black
10
129.09
20
-45.27
11
129.99
21
-46.17
0
LINE
8
Black
10
129.99
20
-45.27
11
129.09
21
-46.17
0
LINE
8
Black
10
129.09
20
-56.065
11
129.99
21
-56.965
0
LINE
8
Black
10
129.99
20
-56.065
11
129.09
21
-56.965
0
LINE
8
Black
10
129.09
20
-58.605
11
129.99
21
-59.505
0
LINE
8
Black
10
129.99
20
-58.605
11
129.09
21
-59.505
0
LINE
8
Black
10
133.535
20
-42.73
11
134.435
21
-43.63
0
LINE
8
Black
10
134.435
20
-42.73
11
133.535
21
-43.63
0
LINE
8
Black
10
133.535
20
-45.27
11
134.435
21
-46.17
0
LINE
8
Black
10
134.435
20
-45.27
11
133.535
21
-46.17
0
LINE
8
Black
10
133.535
20
-56.065
11
134.435
21
-56.965
0
LINE
8
Black
10
134.435
20
-56.065
11
133.535
21
-56.965
0
LINE
8
Black
10
133.535
20
-58.605
11
134.435
21
-59.505
0
LINE
8
Black
10
134.435
20
-58.605
11
133.535
21
-59.505
0
LINE
8
Black
10
137.98
20
-42.73
11
138.88
21
-43.63
0
LINE
8
Black
10
138.88
20
-42.73
11
137.98
21
-43.63
0
LINE
8
Black
10
137.98
20
-45.27
11
138.88
21
-46.17
0
LINE
8
Black
10
138.88
20
-45.27
11
137.98
21
-46.17
0
LINE
8
Black
10
137.98
20
-56.065
11
138.88
21
-56.965
0
LINE
8
Black
10
138.88
20
-56.065
11
137.98
21
-56.965
0
LINE
8
Black
10
137.98
20
-58.605
11
138.88
21
-59.505
0
LINE
8
Black
10
138.88
20
-58.605
11
137.98
21
-59.505
0
CIRCLE
8
Black
10
80.264
20
-76.708
40
0.5
0
CIRCLE
8
Black
10
80.264
20
-79.248
40
0.5
0
CIRCLE
8
Black
10
82.804
20
-76.708
40
0.5
0
CIRCLE
8
Black
10
82.804
20
-79.248
40
0.5
0
CIRCLE
8
Black
10
85.344
20
-76.708
40
0.5
0
CIRCLE
8
Black
10
85.344
20
-79.248
40
0.5
0
CIRCLE
8
Black
10
87.884
20
-76.708
40
0.5
0
CIRCLE
8
Black
10
87.884
20
-79.248
40
0.5
0
CIRCLE
8
Black
10
90.424
20
-76.708
40
0.5
0
CIRCLE
8
Black
10
90.424
20
-79.248
40
0.5
0
CIRCLE
8
Black
10
92.964
20
-76.708
40
0.5
0
CIRCLE
8
Black
10
92.964
20
-79.248
40
0.5
0
CIRCLE
8
Black
10
95.504
20
-76.708
40
0.5
0
CIRCLE
8
Black
10
95.504
20
-79.248
40
0.5
0
CIRCLE
8
Black
10
98.044
20
-76.708
40
0.5
0
CIRCLE
8
Black
10
98.044
20
-79.248
40
0.5
0
CIRCLE
8
Black
10
100.584
20
-76.708
40
0.5
0
CIRCLE
8
Black
10
100.584
20
-79.248
40
0.5
0
CIRCLE
8
Black
10
103.124
20
-76.708
40
0.5
0
CIRCLE
8
Black
10
103.124
20
-79.248
40
0.5
0
CIRCLE
8
Black
10
105.664
20
-76.708
40
0.5
0
CIRCLE
8
Black
10
105.664
20
-79.248
40
0.5
0
CIRCLE
8
Black
10
108.204
20
-76.708
40
0.5
0
CIRCLE
8
Black
10
108.204
20
-79.248
40
0.5
0
CIRCLE
8
Black
10
110.744
20
-76.708
40
0.5
0
CIRCLE
8
Black
10
110.744
20
-79.248
40
0.5
0
CIRCLE
8
Black
10
113.284
20
-76.708
40
0.5
0
CIRCLE
8
Black
10
113.284
20
-79.248
40
0.5
0
CIRCLE
8
Black
10
115.824
20
-76.708
40
0.5
0
CIRCLE
8
Black
10
115.824
20
-79.248
40
0.5
0
CIRCLE
8
Black
10
118.364
20
-76.708
40
0.5
0
CIRCLE
8
Black
10
118.364
20
-79.248
40
0.5
0
CIRCLE
8
Black
10
120.904
20
-76.708
40
0.5
0
CIRCLE
8
Black
10
120.904
20
-79.248
40
0.5
0
CIRCLE
8
Black
10
123.444
20
-76.708
40
0.5
0
CIRCLE
8
Black
10
123.444
20
-79.248
40
0.5
0
CIRCLE
8
Black
10
125.984
20
-76.708
40
0.5
0
CIRCLE
8
Black
10
125.984
20
-79.248
40
0.5
0
CIRCLE
8
Black
10
128.524
20
-76.708
40
0.5
0
CIRCLE
8
Black
10
128.524
20
-79.248
40
0.5
0
LINE
8
Black
10
63
20
-40.0823
11
63
21
-43.9177
0
LINE
8
Black
10
61.0823
20
-42
11
64.9177
21
-42
0
LINE
8
Black
10
63
20
-83.0823
11
63
21
-86.9177
0
LINE
8
Black
10
61.0823
20
-85
11
64.9177
21
-85
0
LINE
8
Black
10
146
20
-40.0823
11
146
21
-43.9177
0
LINE
8
Black
10
144.082
20
-42
11
147.918
21
-42
0
LINE
8
Black
10
146
20
-83.0823
11
146
21
-86.9177
0
LINE
8
Black
10
144.082
20
-85
11
147.918
21
-85
0
LINE
8
Black
10
59.5238
20
-95.8476
11
59.5238
21
-92.8476
0
LINE
8
Black
10
59.5238
20
-92.8476
11
60.2381
21
-92.8476
0
LINE
8
Black
10
60.2381
20
-92.8476
11
60.6666
21
-92.9905
0
LINE
8
Black
10
60.6666
20
-92.9905
11
60.9524
21
-93.2762
0
LINE
8
Black
10
60.9524
20
-93.2762
11
61.0952
21
-93.5619
0
LINE
8
Black
10
61.0952
20
-93.5619
11
61.2381
21
-94.1334
0
LINE
8
Black
10
61.2381
20
-94.1334
11
61.2381
21
-94.5619
0
LINE
8
Black
10
61.2381
20
-94.5619
11
61.0952
21
-95.1334
0
LINE
8
Black
10
61.0952
20
-95.1334
11
60.9524
21
-95.4191
0
LINE
8
Black
10
60.9524
20
-95.4191
11
60.6666
21
-95.7048
0
LINE
8
Black
10
60.6666
20
-95.7048
11
60.2381
21
-95.8476
0
LINE
8
Black
10
60.2381
20
-95.8476
11
59.5238
21
-95.8476
0
LINE
8
Black
10
62.5238
20
-95.8476
11
62.5238
21
-93.8476
0
LINE
8
Black
10
62.5238
20
-94.4191
11
62.6666
21
-94.1334
0
LINE
8
Black
10
62.6666
20
-94.1334
11
62.8095
21
-93.9905
0
LINE
8
Black
10
62.8095
20
-93.9905
11
63.0952
21
-93.8476
0
LINE
8
Black
10
63.0952
20
-93.8476
11
63.3809
21
-93.8476
0
LINE
8
Black
10
64.3809
20
-95.8476
11
64.3809
21
-93.8476
0
LINE
8
Black
10
64.3809
20
-92.8476
11
64.2381
21
-92.9905
0
LINE
8
Black
10
64.2381
20
-92.9905
11
64.3809
21
-93.1334
0
LINE
8
Black
10
64.3809
20
-93.1334
11
64.5238
21
-92.9905
0
LINE
8
Black
10
64.5238
20
-92.9905
11
64.3809
21
-92.8476
0
LINE
8
Black
10
64.3809
20
-92.8476
11
64.3809
21
-93.1334
0
LINE
8
Black
10
66.2381
20
-95.8476
11
65.9524
21
-95.7048
0
LINE
8
Black
10
65.9524
20
-95.7048
11
65.8095
21
-95.4191
0
LINE
8
Black
10
65.8095
20
-95.4191
11
65.8095
21
-92.8476
0
LINE
8
Black
10
67.8095
20
-95.8476
11
67.5238
21
-95.7048
0
LINE
8
Black
10
67.5238
20
-95.7048
11
67.3809
21
-95.4191
0
LINE
8
Black
10
67.3809
20
-95.4191
11
67.3809
21
-92.8476
0
LINE
8
Black
10
71.2381
20
-95.8476
11
71.2381
21
-92.8476
0
LINE
8
Black
10
71.2381
20
-92.8476
11
72.2381
21
-94.9905
0
LINE
8
Black
10
72.2381
20
-94.9905
11
73.2381
21
-92.8476
0
LINE
8
Black
10
73.2381
20
-92.8476
11
73.2381
21
-95.8476
0
LINE
8
Black
10
75.9524
20
-95.8476
11
75.9524
21
-94.2762
0
LINE
8
Black
10
75.9524
20
-94.2762
11
75.8095
21
-93.9905
0
LINE
8
Black
10
75.8095
20
-93.9905
11
75.5238
21
-93.8476
0
LINE
8
Black
10
75.5238
20
-93.8476
11
74.9524
21
-93.8476
0
LINE
8
Black
10
74.9524
20
-93.8476
11
74.6666
21
-93.9905
0
LINE
8
Black
10
75.9524
20
-95.7048
11
75.6666
21
-95.8476
0
LINE
8
Black
10
75.6666
20
-95.8476
11
74.9524
21
-95.8476
0
LINE
8
Black
10
74.9524
20
-95.8476
11
74.6666
21
-95.7048
0
LINE
8
Black
10
74.6666
20
-95.7048
11
74.5238
21
-95.4191
0
LINE
8
Black
10
74.5238
20
-95.4191
11
74.5238
21
-95.1334
0
LINE
8
Black
10
74.5238
20
-95.1334
11
74.6666
21
-94.8476
0
LINE
8
Black
10
74.6666
20
-94.8476
11
74.9524
21
-94.7048
0
LINE
8
Black
10
74.9524
20
-94.7048
11
75.6666
21
-94.7048
0
LINE
8
Black
10
75.6666
20
-94.7048
11
75.9524
21
-94.5619
0
LINE
8
Black
10
77.3809
20
-93.8476
11
77.3809
21
-96.8476
0
LINE
8
Black
10
77.3809
20
-93.9905
11
77.6666
21
-93.8476
0
LINE
8
Black
10
77.6666
20
-93.8476
11
78.2381
21
-93.8476
0
LINE
8
Black
10
78.2381
20
-93.8476
11
78.5238
21
-93.9905
0
LINE
8
Black
10
78.5238
20
-93.9905
11
78.6666
21
-94.1334
0
LINE
8
Black
10
78.6666
20
-94.1334
11
78.8095
21
-94.4191
0
LINE
8
Black
10
78.8095
20
-94.4191
11
78.8095
21
-95.2762
0
LINE
8
Black
10
78.8095
20
-95.2762
11
78.6666
21
-95.5619
0
LINE
8
Black
10
78.6666
20
-95.5619
11
78.5238
21
-95.7048
0
LINE
8
Black
10
78.5238
20
-95.7048
11
78.2381
21
-95.8476
0
LINE
8
Black
10
78.2381
20
-95.8476
11
77.6666
21
-95.8476
0
LINE
8
Black
10
77.6666
20
-95.8476
11
77.3809
21
-95.7048
0
LINE
8
Black
10
80.0952
20
-95.5619
11
80.2381
21
-95.7048
0
LINE
8
Black
10
80.2381
20
-95.7048
11
80.0952
21
-95.8476
0
LINE
8
Black
10
80.0952
20
-95.8476
11
79.9524
21
-95.7048
0
LINE
8
Black
10
79.9524
20
-95.7048
11
80.0952
21
-95.5619
0
LINE
8
Black
10
80.0952
20
-95.5619
11
80.0952
21
-95.8476
0
LINE
8
Black
10
80.0952
20
-93.9905
11
80.2381
21
-94.1334
0
LINE
8
Black
10
80.2381
20
-94.1334
11
80.0952
21
-94.2762
0
LINE
8
Black
10
80.0952
20
-94.2762
11
79.9524
21
-94.1334
0
LINE
8
Black
10
79.9524
20
-94.1334
11
80.0952
21
-93.9905
0
LINE
8
Black
10
80.0952
20
-93.9905
11
80.0952
21
-94.2762
0
LINE
8
Black
10
55.9095
20
-100.341
11
56.8095
21
-101.241
0
LINE
8
Black
10
56.8095
20
-100.341
11
55.9095
21
-101.241
0
LINE
8
Black
10
60.0952
20
-99.1476
11
60.3809
21
-99.1476
0
LINE
8
Black
10
60.3809
20
-99.1476
11
60.6666
21
-99.2905
0
LINE
8
Black
10
60.6666
20
-99.2905
11
60.8095
21
-99.4334
0
LINE
8
Black
10
60.8095
20
-99.4334
11
60.9524
21
-99.7191
0
LINE
8
Black
10
60.9524
20
-99.7191
11
61.0952
21
-100.291
0
LINE
8
Black
10
61.0952
20
-100.291
11
61.0952
21
-101.005
0
LINE
8
Black
10
61.0952
20
-101.005
11
60.9524
21
-101.576
0
LINE
8
Black
10
60.9524
20
-101.576
11
60.8095
21
-101.862
0
LINE
8
Black
10
60.8095
20
-101.862
11
60.6666
21
-102.005
0
LINE
8
Black
10
60.6666
20
-102.005
11
60.3809
21
-102.148
0
LINE
8
Black
10
60.3809
20
-102.148
11
60.0952
21
-102.148
0
LINE
8
Black
10
60.0952
20
-102.148
11
59.8095
21
-102.005
0
LINE
8
Black
10
59.8095
20
-102.005
11
59.6666
21
-101.862
0
LINE
8
Black
10
59.6666
20
-101.862
11
59.5238
21
-101.576
0
LINE
8
Black
10
59.5238
20
-101.576
11
59.3809
21
-101.005
0
LINE
8
Black
10
59.3809
20
-101.005
11
59.3809
21
-100.291
0
LINE
8
Black
10
59.3809
20
-100.291
11
59.5238
21
-99.7191
0
LINE
8
Black
10
59.5238
20
-99.7191
11
59.6666
21
-99.4334
0
LINE
8
Black
10
59.6666
20
-99.4334
11
59.8095
21
-99.2905
0
LINE
8
Black
10
59.8095
20
-99.2905
11
60.0952
21
-99.1476
0
LINE
8
Black
10
62.3809
20
-101.862
11
62.5238
21
-102.005
0
LINE
8
Black
10
62.5238
20
-102.005
11
62.3809
21
-102.148
0
LINE
8
Black
10
62.3809
20
-102.148
11
62.2381
21
-102.005
0
LINE
8
Black
10
62.2381
20
-102.005
11
62.3809
21
-101.862
0
LINE
8
Black
10
62.3809
20
-101.862
11
62.3809
21
-102.148
0
LINE
8
Black
10
63.9524
20
-102.148
11
64.5238
21
-102.148
0
LINE
8
Black
10
64.5238
20
-102.148
11
64.8095
21
-102.005
0
LINE
8
Black
10
64.8095
20
-102.005
11
64.9524
21
-101.862
0
LINE
8
Black
10
64.9524
20
-101.862
11
65.2381
21
-101.433
0
LINE
8
Black
10
65.2381
20
-101.433
11
65.3809
21
-100.862
0
LINE
8
Black
10
65.3809
20
-100.862
11
65.3809
21
-99.7191
0
LINE
8
Black
10
65.3809
20
-99.7191
11
65.2381
21
-99.4334
0
LINE
8
Black
10
65.2381
20
-99.4334
11
65.0952
21
-99.2905
0
LINE
8
Black
10
65.0952
20
-99.2905
11
64.8095
21
-99.1476
0
LINE
8
Black
10
64.8095
20
-99.1476
11
64.2381
21
-99.1476
0
LINE
8
Black
10
64.2381
20
-99.1476
11
63.9524
21
-99.2905
0
LINE
8
Black
10
63.9524
20
-99.2905
11
63.8095
21
-99.4334
0
LINE
8
Black
10
63.8095
20
-99.4334
11
63.6666
21
-99.7191
0
LINE
8
Black
10
63.6666
20
-99.7191
11
63.6666
21
-100.433
0
LINE
8
Black
10
63.6666
20
-100.433
11
63.8095
21
-100.719
0
LINE
8
Black
10
63.8095
20
-100.719
11
63.9524
21
-100.862
0
LINE
8
Black
10
63.9524
20
-100.862
11
64.2381
21
-101.005
0
LINE
8
Black
10
64.2381
20
-101.005
11
64.8095
21
-101.005
0
LINE
8
Black
10
64.8095
20
-101.005
11
65.0952
21
-100.862
0
LINE
8
Black
10
65.0952
20
-100.862
11
65.2381
21
-100.719
0
LINE
8
Black
10
65.2381
20
-100.719
11
65.3809
21
-100.433
0
LINE
8
Black
10
67.2381
20
-99.1476
11
67.5238
21
-99.1476
0
LINE
8
Black
10
67.5238
20
-99.1476
11
67.8095
21
-99.2905
0
LINE
8
Black
10
67.8095
20
-99.2905
11
67.9524
21
-99.4334
0
LINE
8
Black
10
67.9524
20
-99.4334
11
68.0952
21
-99.7191
0
LINE
8
Black
10
68.0952
20
-99.7191
11
68.2381
21
-100.291
0
LINE
8
Black
10
68.2381
20
-100.291
11
68.2381
21
-101.005
0
LINE
8
Black
10
68.2381
20
-101.005
11
68.0952
21
-101.576
0
LINE
8
Black
10
68.0952
20
-101.576
11
67.9524
21
-101.862
0
LINE
8
Black
10
67.9524
20
-101.862
11
67.8095
21
-102.005
0
LINE
8
Black
10
67.8095
20
-102.005
11
67.5238
21
-102.148
0
LINE
8
Black
10
67.5238
20
-102.148
11
67.2381
21
-102.148
0
LINE
8
Black
10
67.2381
20
-102.148
11
66.9524
21
-102.005
0
LINE
8
Black
10
66.9524
20
-102.005
11
66.8095
21
-101.862
0
LINE
8
Black
10
66.8095
20
-101.862
11
66.6666
21
-101.576
0
LINE
8
Black
10
66.6666
20
-101.576
11
66.5238
21
-101.005
0
LINE
8
Black
10
66.5238
20
-101.005
11
66.5238
21
-100.291
0
LINE
8
Black
10
66.5238
20
-100.291
11
66.6666
21
-99.7191
0
LINE
8
Black
10
66.6666
20
-99.7191
11
66.8095
21
-99.4334
0
LINE
8
Black
10
66.8095
20
-99.4334
11
66.9524
21
-99.2905
0
LINE
8
Black
10
66.9524
20
-99.2905
11
67.2381
21
-99.1476
0
LINE
8
Black
10
69.5238
20
-102.148
11
69.5238
21
-100.148
0
LINE
8
Black
10
69.5238
20
-100.433
11
69.6666
21
-100.291
0
LINE
8
Black
10
69.6666
20
-100.291
11
69.9524
21
-100.148
0
LINE
8
Black
10
69.9524
20
-100.148
11
70.3809
21
-100.148
0
LINE
8
Black
10
70.3809
20
-100.148
11
70.6666
21
-100.291
0
LINE
8
Black
10
70.6666
20
-100.291
11
70.8095
21
-100.576
0
LINE
8
Black
10
70.8095
20
-100.576
11
70.8095
21
-102.148
0
LINE
8
Black
10
70.8095
20
-100.576
11
70.9524
21
-100.291
0
LINE
8
Black
10
70.9524
20
-100.291
11
71.2381
21
-100.148
0
LINE
8
Black
10
71.2381
20
-100.148
11
71.6666
21
-100.148
0
LINE
8
Black
10
71.6666
20
-100.148
11
71.9524
21
-100.291
0
LINE
8
Black
10
71.9524
20
-100.291
11
72.0952
21
-100.576
0
LINE
8
Black
10
72.0952
20
-100.576
11
72.0952
21
-102.148
0
LINE
8
Black
10
73.5238
20
-102.148
11
73.5238
21
-100.148
0
LINE
8
Black
10
73.5238
20
-100.433
11
73.6666
21
-100.291
0
LINE
8
Black
10
73.6666
20
-100.291
11
73.9524
21
-100.148
0
LINE
8
Black
10
73.9524
20
-100.148
11
74.3809
21
-100.148
0
LINE
8
Black
10
74.3809
20
-100.148
11
74.6666
21
-100.291
0
LINE
8
Black
10
74.6666
20
-100.291
11
74.8095
21
-100.576
0
LINE
8
Black
10
74.8095
20
-100.576
11
74.8095
21
-102.148
0
LINE
8
Black
10
74.8095
20
-100.576
11
74.9524
21
-100.291
0
LINE
8
Black
10
74.9524
20
-100.291
11
75.2381
21
-100.148
0
LINE
8
Black
10
75.2381
20
-100.148
11
75.6666
21
-100.148
0
LINE
8
Black
10
75.6666
20
-100.148
11
75.9524
21
-100.291
0
LINE
8
Black
10
75.9524
20
-100.291
11
76.0952
21
-100.576
0
LINE
8
Black
10
76.0952
20
-100.576
11
76.0952
21
-102.148
0
LINE
8
Black
10
81.9524
20
-99.0048
11
79.3809
21
-102.862
0
LINE
8
Black
10
85.8095
20
-99.1476
11
86.0952
21
-99.1476
0
LINE
8
Black
10
86.0952
20
-99.1476
11
86.3809
21
-99.2905
0
LINE
8
Black
10
86.3809
20
-99.2905
11
86.5238
21
-99.4334
0
LINE
8
Black
10
86.5238
20
-99.4334
11
86.6666
21
-99.7191
0
LINE
8
Black
10
86.6666
20
-99.7191
11
86.8095
21
-100.291
0
LINE
8
Black
10
86.8095
20
-100.291
11
86.8095
21
-101.005
0
LINE
8
Black
10
86.8095
20
-101.005
11
86.6666
21
-101.576
0
LINE
8
Black
10
86.6666
20
-101.576
11
86.5238
21
-101.862
0
LINE
8
Black
10
86.5238
20
-101.862
11
86.3809
21
-102.005
0
LINE
8
Black
10
86.3809
20
-102.005
11
86.0952
21
-102.148
0
LINE
8
Black
10
86.0952
20
-102.148
11
85.8095
21
-102.148
0
LINE
8
Black
10
85.8095
20
-102.148
11
85.5238
21
-102.005
0
LINE
8
Black
10
85.5238
20
-102.005
11
85.3809
21
-101.862
0
LINE
8
Black
10
85.3809
20
-101.862
11
85.2381
21
-101.576
0
LINE
8
Black
10
85.2381
20
-101.576
11
85.0952
21
-101.005
0
LINE
8
Black
10
85.0952
20
-101.005
11
85.0952
21
-100.291
0
LINE
8
Black
10
85.0952
20
-100.291
11
85.2381
21
-99.7191
0
LINE
8
Black
10
85.2381
20
-99.7191
11
85.3809
21
-99.4334
0
LINE
8
Black
10
85.3809
20
-99.4334
11
85.5238
21
-99.2905
0
LINE
8
Black
10
85.5238
20
-99.2905
11
85.8095
21
-99.1476
0
LINE
8
Black
10
88.0952
20
-101.862
11
88.2381
21
-102.005
0
LINE
8
Black
10
88.2381
20
-102.005
11
88.0952
21
-102.148
0
LINE
8
Black
10
88.0952
20
-102.148
11
87.9524
21
-102.005
0
LINE
8
Black
10
87.9524
20
-102.005
11
88.0952
21
-101.862
0
LINE
8
Black
10
88.0952
20
-101.862
11
88.0952
21
-102.148
0
LINE
8
Black
10
90.0952
20
-99.1476
11
90.3809
21
-99.1476
0
LINE
8
Black
10
90.3809
20
-99.1476
11
90.6666
21
-99.2905
0
LINE
8
Black
10
90.6666
20
-99.2905
11
90.8095
21
-99.4334
0
LINE
8
Black
10
90.8095
20
-99.4334
11
90.9524
21
-99.7191
0
LINE
8
Black
10
90.9524
20
-99.7191
11
91.0952
21
-100.291
0
LINE
8
Black
10
91.0952
20
-100.291
11
91.0952
21
-101.005
0
LINE
8
Black
10
91.0952
20
-101.005
11
90.9524
21
-101.576
0
LINE
8
Black
10
90.9524
20
-101.576
11
90.8095
21
-101.862
0
LINE
8
Black
10
90.8095
20
-101.862
11
90.6666
21
-102.005
0
LINE
8
Black
10
90.6666
20
-102.005
11
90.3809
21
-102.148
0
LINE
8
Black
10
90.3809
20
-102.148
11
90.0952
21
-102.148
0
LINE
8
Black
10
90.0952
20
-102.148
11
89.8095
21
-102.005
0
LINE
8
Black
10
89.8095
20
-102.005
11
89.6666
21
-101.862
0
LINE
8
Black
10
89.6666
20
-101.862
11
89.5238
21
-101.576
0
LINE
8
Black
10
89.5238
20
-101.576
11
89.3809
21
-101.005
0
LINE
8
Black
10
89.3809
20
-101.005
11
89.3809
21
-100.291
0
LINE
8
Black
10
89.3809
20
-100.291
11
89.5238
21
-99.7191
0
LINE
8
Black
10
89.5238
20
-99.7191
11
89.6666
21
-99.4334
0
LINE
8
Black
10
89.6666
20
-99.4334
11
89.8095
21
-99.2905
0
LINE
8
Black
10
89.8095
20
-99.2905
11
90.0952
21
-99.1476
0
LINE
8
Black
10
92.0952
20
-99.1476
11
93.9524
21
-99.1476
0
LINE
8
Black
10
93.9524
20
-99.1476
11
92.9524
21
-100.291
0
LINE
8
Black
10
92.9524
20
-100.291
11
93.3809
21
-100.291
0
LINE
8
Black
10
93.3809
20
-100.291
11
93.6666
21
-100.433
0
LINE
8
Black
10
93.6666
20
-100.433
11
93.8095
21
-100.576
0
LINE
8
Black
10
93.8095
20
-100.576
11
93.9524
21
-100.862
0
LINE
8
Black
10
93.9524
20
-100.862
11
93.9524
21
-101.576
0
LINE
8
Black
10
93.9524
20
-101.576
11
93.8095
21
-101.862
0
LINE
8
Black
10
93.8095
20
-101.862
11
93.6666
21
-102.005
0
LINE
8
Black
10
93.6666
20
-102.005
11
93.3809
21
-102.148
0
LINE
8
Black
10
93.3809
20
-102.148
11
92.5238
21
-102.148
0
LINE
8
Black
10
92.5238
20
-102.148
11
92.2381
21
-102.005
0
LINE
8
Black
10
92.2381
20
-102.005
11
92.0952
21
-101.862
0
LINE
8
Black
10
96.6666
20
-99.1476
11
95.2381
21
-99.1476
0
LINE
8
Black
10
95.2381
20
-99.1476
11
95.0952
21
-100.576
0
LINE
8
Black
10
95.0952
20
-100.576
11
95.2381
21
-100.433
0
LINE
8
Black
10
95.2381
20
-100.433
11
95.5238
21
-100.291
0
LINE
8
Black
10
95.5238
20
-100.291
11
96.2381
21
-100.291
0
LINE
8
Black
10
96.2381
20
-100.291
11
96.5238
21
-100.433
0
LINE
8
Black
10
96.5238
20
-100.433
11
96.6666
21
-100.576
0
LINE
8
Black
10
96.6666
20
-100.576
11
96.8095
21
-100.862
0
LINE
8
Black
10
96.8095
20
-100.862
11
96.8095
21
-101.576
0
LINE
8
Black
10
96.8095
20
-101.576
11
96.6666
21
-101.862
0
LINE
8
Black
10
96.6666
20
-101.862
11
96.5238
21
-102.005
0
LINE
8
Black
10
96.5238
20
-102.005
11
96.2381
21
-102.148
0
LINE
8
Black
10
96.2381
20
-102.148
11
95.5238
21
-102.148
0
LINE
8
Black
10
95.5238
20
-102.148
11
95.2381
21
-102.005
0
LINE
8
Black
10
95.2381
20
-102.005
11
95.0952
21
-101.862
0
LINE
8
Black
10
97.9524
20
-99.1476
11
97.9524
21
-99.7191
0
LINE
8
Black
10
99.0952
20
-99.1476
11
99.0952
21
-99.7191
0
LINE
8
Black
10
103.524
20
-103.291
11
103.381
21
-103.148
0
LINE
8
Black
10
103.381
20
-103.148
11
103.095
21
-102.719
0
LINE
8
Black
10
103.095
20
-102.719
11
102.952
21
-102.433
0
LINE
8
Black
10
102.952
20
-102.433
11
102.809
21
-102.005
0
LINE
8
Black
10
102.809
20
-102.005
11
102.667
21
-101.291
0
LINE
8
Black
10
102.667
20
-101.291
11
102.667
21
-100.719
0
LINE
8
Black
10
102.667
20
-100.719
11
102.809
21
-100.005
0
LINE
8
Black
10
102.809
20
-100.005
11
102.952
21
-99.5762
0
LINE
8
Black
10
102.952
20
-99.5762
11
103.095
21
-99.2905
0
LINE
8
Black
10
103.095
20
-99.2905
11
103.381
21
-98.8619
0
LINE
8
Black
10
103.381
20
-98.8619
11
103.524
21
-98.7191
0
LINE
8
Black
10
105.952
20
-99.1476
11
105.381
21
-99.1476
0
LINE
8
Black
10
105.381
20
-99.1476
11
105.095
21
-99.2905
0
LINE
8
Black
10
105.095
20
-99.2905
11
104.952
21
-99.4334
0
LINE
8
Black
10
104.952
20
-99.4334
11
104.667
21
-99.8619
0
LINE
8
Black
10
104.667
20
-99.8619
11
104.524
21
-100.433
0
LINE
8
Black
10
104.524
20
-100.433
11
104.524
21
-101.576
0
LINE
8
Black
10
104.524
20
-101.576
11
104.667
21
-101.862
0
LINE
8
Black
10
104.667
20
-101.862
11
104.809
21
-102.005
0
LINE
8
Black
10
104.809
20
-102.005
11
105.095
21
-102.148
0
LINE
8
Black
10
105.095
20
-102.148
11
105.667
21
-102.148
0
LINE
8
Black
10
105.667
20
-102.148
11
105.952
21
-102.005
0
LINE
8
Black
10
105.952
20
-102.005
11
106.095
21
-101.862
0
LINE
8
Black
10
106.095
20
-101.862
11
106.238
21
-101.576
0
LINE
8
Black
10
106.238
20
-101.576
11
106.238
21
-100.862
0
LINE
8
Black
10
106.238
20
-100.862
11
106.095
21
-100.576
0
LINE
8
Black
10
106.095
20
-100.576
11
105.952
21
-100.433
0
LINE
8
Black
10
105.952
20
-100.433
11
105.667
21
-100.291
0
LINE
8
Black
10
105.667
20
-100.291
11
105.095
21
-100.291
0
LINE
8
Black
10
105.095
20
-100.291
11
104.809
21
-100.433
0
LINE
8
Black
10
104.809
20
-100.433
11
104.667
21
-100.576
0
LINE
8
Black
10
104.667
20
-100.576
11
104.524
21
-100.862
0
LINE
8
Black
10
108.809
20
-100.148
11
108.809
21
-102.148
0
LINE
8
Black
10
108.095
20
-99.0048
11
107.381
21
-101.148
0
LINE
8
Black
10
107.381
20
-101.148
11
109.238
21
-101.148
0
LINE
8
Black
10
112.667
20
-102.148
11
112.667
21
-99.1476
0
LINE
8
Black
10
113.952
20
-102.148
11
113.952
21
-100.576
0
LINE
8
Black
10
113.952
20
-100.576
11
113.809
21
-100.291
0
LINE
8
Black
10
113.809
20
-100.291
11
113.524
21
-100.148
0
LINE
8
Black
10
113.524
20
-100.148
11
113.095
21
-100.148
0
LINE
8
Black
10
113.095
20
-100.148
11
112.809
21
-100.291
0
LINE
8
Black
10
112.809
20
-100.291
11
112.667
21
-100.433
0
LINE
8
Black
10
115.809
20
-102.148
11
115.524
21
-102.005
0
LINE
8
Black
10
115.524
20
-102.005
11
115.381
21
-101.862
0
LINE
8
Black
10
115.381
20
-101.862
11
115.238
21
-101.576
0
LINE
8
Black
10
115.238
20
-101.576
11
115.238
21
-100.719
0
LINE
8
Black
10
115.238
20
-100.719
11
115.381
21
-100.433
0
LINE
8
Black
10
115.381
20
-100.433
11
115.524
21
-100.291
0
LINE
8
Black
10
115.524
20
-100.291
11
115.809
21
-100.148
0
LINE
8
Black
10
115.809
20
-100.148
11
116.238
21
-100.148
0
LINE
8
Black
10
116.238
20
-100.148
11
116.524
21
-100.291
0
LINE
8
Black
10
116.524
20
-100.291
11
116.667
21
-100.433
0
LINE
8
Black
10
116.667
20
-100.433
11
116.809
21
-100.719
0
LINE
8
Black
10
116.809
20
-100.719
11
116.809
21
-101.576
0
LINE
8
Black
10
116.809
20
-101.576
11
116.667
21
-101.862
0
LINE
8
Black
10
116.667
20
-101.862
11
116.524
21
-102.005
0
LINE
8
Black
10
116.524
20
-102.005
11
116.238
21
-102.148
0
LINE
8
Black
10
116.238
20
-102.148
11
115.809
21
-102.148
0
LINE
8
Black
10
118.524
20
-102.148
11
118.238
21
-102.005
0
LINE
8
Black
10
118.238
20
-102.005
11
118.095
21
-101.719
0
LINE
8
Black
10
118.095
20
-101.719
11
118.095
21
-99.1476
0
LINE
8
Black
10
120.809
20
-102.005
11
120.524
21
-102.148
0
LINE
8
Black
10
120.524
20
-102.148
11
119.952
21
-102.148
0
LINE
8
Black
10
119.952
20
-102.148
11
119.667
21
-102.005
0
LINE
8
Black
10
119.667
20
-102.005
11
119.524
21
-101.719
0
LINE
8
Black
10
119.524
20
-101.719
11
119.524
21
-100.576
0
LINE
8
Black
10
119.524
20
-100.576
11
119.667
21
-100.291
0
LINE
8
Black
10
119.667
20
-100.291
11
119.952
21
-100.148
0
LINE
8
Black
10
119.952
20
-100.148
11
120.524
21
-100.148
0
LINE
8
Black
10
120.524
20
-100.148
11
120.809
21
-100.291
0
LINE
8
Black
10
120.809
20
-100.291
11
120.952
21
-100.576
0
LINE
8
Black
10
120.952
20
-100.576
11
120.952
21
-100.862
0
LINE
8
Black
10
120.952
20
-100.862
11
119.524
21
-101.148
0
LINE
8
Black
10
122.095
20
-102.005
11
122.381
21
-102.148
0
LINE
8
Black
10
122.381
20
-102.148
11
122.952
21
-102.148
0
LINE
8
Black
10
122.952
20
-102.148
11
123.238
21
-102.005
0
LINE
8
Black
10
123.238
20
-102.005
11
123.381
21
-101.719
0
LINE
8
Black
10
123.381
20
-101.719
11
123.381
21
-101.576
0
LINE
8
Black
10
123.381
20
-101.576
11
123.238
21
-101.291
0
LINE
8
Black
10
123.238
20
-101.291
11
122.952
21
-101.148
0
LINE
8
Black
10
122.952
20
-101.148
11
122.524
21
-101.148
0
LINE
8
Black
10
122.524
20
-101.148
11
122.238
21
-101.005
0
LINE
8
Black
10
122.238
20
-101.005
11
122.095
21
-100.719
0
LINE
8
Black
10
122.095
20
-100.719
11
122.095
21
-100.576
0
LINE
8
Black
10
122.095
20
-100.576
11
122.238
21
-100.291
0
LINE
8
Black
10
122.238
20
-100.291
11
122.524
21
-100.148
0
LINE
8
Black
10
122.524
20
-100.148
11
122.952
21
-100.148
0
LINE
8
Black
10
122.952
20
-100.148
11
123.238
21
-100.291
0
LINE
8
Black
10
124.381
20
-103.291
11
124.524
21
-103.148
0
LINE
8
Black
10
124.524
20
-103.148
11
124.809
21
-102.719
0
LINE
8
Black
10
124.809
20
-102.719
11
124.952
21
-102.433
0
LINE
8
Black
10
124.952
20
-102.433
11
125.095
21
-102.005
0
LINE
8
Black
10
125.095
20
-102.005
11
125.238
21
-101.291
0
LINE
8
Black
10
125.238
20
-101.291
11
125.238
21
-100.719
0
LINE
8
Black
10
125.238
20
-100.719
11
125.095
21
-100.005
0
LINE
8
Black
10
125.095
20
-100.005
11
124.952
21
-99.5762
0
LINE
8
Black
10
124.952
20
-99.5762
11
124.809
21
-99.2905
0
LINE
8
Black
10
124.809
20
-99.2905
11
124.524
21
-98.8619
0
LINE
8
Black
10
124.524
20
-98.8619
11
124.381
21
-98.7191
0
CIRCLE
8
Black
10
56.3095
20
-104.751
40
0.5
0
LINE
8
Black
10
61.0952
20
-106.108
11
59.3809
21
-106.108
0
LINE
8
Black
10
60.2381
20
-106.108
11
60.2381
21
-103.108
0
LINE
8
Black
10
60.2381
20
-103.108
11
59.9524
21
-103.536
0
LINE
8
Black
10
59.9524
20
-103.536
11
59.6666
21
-103.822
0
LINE
8
Black
10
59.6666
20
-103.822
11
59.3809
21
-103.965
0
LINE
8
Black
10
62.3809
20
-105.822
11
62.5238
21
-105.965
0
LINE
8
Black
10
62.5238
20
-105.965
11
62.3809
21
-106.108
0
LINE
8
Black
10
62.3809
20
-106.108
11
62.2381
21
-105.965
0
LINE
8
Black
10
62.2381
20
-105.965
11
62.3809
21
-105.822
0
LINE
8
Black
10
62.3809
20
-105.822
11
62.3809
21
-106.108
0
LINE
8
Black
10
64.3809
20
-103.108
11
64.6666
21
-103.108
0
LINE
8
Black
10
64.6666
20
-103.108
11
64.9524
21
-103.251
0
LINE
8
Black
10
64.9524
20
-103.251
11
65.0952
21
-103.393
0
LINE
8
Black
10
65.0952
20
-103.393
11
65.2381
21
-103.679
0
LINE
8
Black
10
65.2381
20
-103.679
11
65.3809
21
-104.251
0
LINE
8
Black
10
65.3809
20
-104.251
11
65.3809
21
-104.965
0
LINE
8
Black
10
65.3809
20
-104.965
11
65.2381
21
-105.536
0
LINE
8
Black
10
65.2381
20
-105.536
11
65.0952
21
-105.822
0
LINE
8
Black
10
65.0952
20
-105.822
11
64.9524
21
-105.965
0
LINE
8
Black
10
64.9524
20
-105.965
11
64.6666
21
-106.108
0
LINE
8
Black
10
64.6666
20
-106.108
11
64.3809
21
-106.108
0
LINE
8
Black
10
64.3809
20
-106.108
11
64.0952
21
-105.965
0
LINE
8
Black
10
64.0952
20
-105.965
11
63.9524
21
-105.822
0
LINE
8
Black
10
63.9524
20
-105.822
11
63.8095
21
-105.536
0
LINE
8
Black
10
63.8095
20
-105.536
11
63.6666
21
-104.965
0
LINE
8
Black
10
63.6666
20
-104.965
11
63.6666
21
-104.251
0
LINE
8
Black
10
63.6666
20
-104.251
11
63.8095
21
-103.679
0
LINE
8
Black
10
63.8095
20
-103.679
11
63.9524
21
-103.393
0
LINE
8
Black
10
63.9524
20
-103.393
11
64.0952
21
-103.251
0
LINE
8
Black
10
64.0952
20
-103.251
11
64.3809
21
-103.108
0
LINE
8
Black
10
67.2381
20
-103.108
11
67.5238
21
-103.108
0
LINE
8
Black
10
67.5238
20
-103.108
11
67.8095
21
-103.251
0
LINE
8
Black
10
67.8095
20
-103.251
11
67.9524
21
-103.393
0
LINE
8
Black
10
67.9524
20
-103.393
11
68.0952
21
-103.679
0
LINE
8
Black
10
68.0952
20
-103.679
11
68.2381
21
-104.251
0
LINE
8
Black
10
68.2381
20
-104.251
11
68.2381
21
-104.965
0
LINE
8
Black
10
68.2381
20
-104.965
11
68.0952
21
-105.536
0
LINE
8
Black
10
68.0952
20
-105.536
11
67.9524
21
-105.822
0
LINE
8
Black
10
67.9524
20
-105.822
11
67.8095
21
-105.965
0
LINE
8
Black
10
67.8095
20
-105.965
11
67.5238
21
-106.108
0
LINE
8
Black
10
67.5238
20
-106.108
11
67.2381
21
-106.108
0
LINE
8
Black
10
67.2381
20
-106.108
11
66.9524
21
-105.965
0
LINE
8
Black
10
66.9524
20
-105.965
11
66.8095
21
-105.822
0
LINE
8
Black
10
66.8095
20
-105.822
11
66.6666
21
-105.536
0
LINE
8
Black
10
66.6666
20
-105.536
11
66.5238
21
-104.965
0
LINE
8
Black
10
66.5238
20
-104.965
11
66.5238
21
-104.251
0
LINE
8
Black
10
66.5238
20
-104.251
11
66.6666
21
-103.679
0
LINE
8
Black
10
66.6666
20
-103.679
11
66.8095
21
-103.393
0
LINE
8
Black
10
66.8095
20
-103.393
11
66.9524
21
-103.251
0
LINE
8
Black
10
66.9524
20
-103.251
11
67.2381
21
-103.108
0
LINE
8
Black
10
69.5238
20
-106.108
11
69.5238
21
-104.108
0
LINE
8
Black
10
69.5238
20
-104.393
11
69.6666
21
-104.251
0
LINE
8
Black
10
69.6666
20
-104.251
11
69.9524
21
-104.108
0
LINE
8
Black
10
69.9524
20
-104.108
11
70.3809
21
-104.108
0
LINE
8
Black
10
70.3809
20
-104.108
11
70.6666
21
-104.251
0
LINE
8
Black
10
70.6666
20
-104.251
11
70.8095
21
-104.536
0
LINE
8
Black
10
70.8095
20
-104.536
11
70.8095
21
-106.108
0
LINE
8
Black
10
70.8095
20
-104.536
11
70.9524
21
-104.251
0
LINE
8
Black
10
70.9524
20
-104.251
11
71.2381
21
-104.108
0
LINE
8
Black
10
71.2381
20
-104.108
11
71.6666
21
-104.108
0
LINE
8
Black
10
71.6666
20
-104.108
11
71.9524
21
-104.251
0
LINE
8
Black
10
71.9524
20
-104.251
11
72.0952
21
-104.536
0
LINE
8
Black
10
72.0952
20
-104.536
11
72.0952
21
-106.108
0
LINE
8
Black
10
73.5238
20
-106.108
11
73.5238
21
-104.108
0
LINE
8
Black
10
73.5238
20
-104.393
11
73.6666
21
-104.251
0
LINE
8
Black
10
73.6666
20
-104.251
11
73.9524
21
-104.108
0
LINE
8
Black
10
73.9524
20
-104.108
11
74.3809
21
-104.108
0
LINE
8
Black
10
74.3809
20
-104.108
11
74.6666
21
-104.251
0
LINE
8
Black
10
74.6666
20
-104.251
11
74.8095
21
-104.536
0
LINE
8
Black
10
74.8095
20
-104.536
11
74.8095
21
-106.108
0
LINE
8
Black
10
74.8095
20
-104.536
11
74.9524
21
-104.251
0
LINE
8
Black
10
74.9524
20
-104.251
11
75.2381
21
-104.108
0
LINE
8
Black
10
75.2381
20
-104.108
11
75.6666
21
-104.108
0
LINE
8
Black
10
75.6666
20
-104.108
11
75.9524
21
-104.251
0
LINE
8
Black
10
75.9524
20
-104.251
11
76.0952
21
-104.536
0
LINE
8
Black
10
76.0952
20
-104.536
11
76.0952
21
-106.108
0
LINE
8
Black
10
81.9524
20
-102.965
11
79.3809
21
-106.822
0
LINE
8
Black
10
85.8095
20
-103.108
11
86.0952
21
-103.108
0
LINE
8
Black
10
86.0952
20
-103.108
11
86.3809
21
-103.251
0
LINE
8
Black
10
86.3809
20
-103.251
11
86.5238
21
-103.393
0
LINE
8
Black
10
86.5238
20
-103.393
11
86.6666
21
-103.679
0
LINE
8
Black
10
86.6666
20
-103.679
11
86.8095
21
-104.251
0
LINE
8
Black
10
86.8095
20
-104.251
11
86.8095
21
-104.965
0
LINE
8
Black
10
86.8095
20
-104.965
11
86.6666
21
-105.536
0
LINE
8
Black
10
86.6666
20
-105.536
11
86.5238
21
-105.822
0
LINE
8
Black
10
86.5238
20
-105.822
11
86.3809
21
-105.965
0
LINE
8
Black
10
86.3809
20
-105.965
11
86.0952
21
-106.108
0
LINE
8
Black
10
86.0952
20
-106.108
11
85.8095
21
-106.108
0
LINE
8
Black
10
85.8095
20
-106.108
11
85.5238
21
-105.965
0
LINE
8
Black
10
85.5238
20
-105.965
11
85.3809
21
-105.822
0
LINE
8
Black
10
85.3809
20
-105.822
11
85.2381
21
-105.536
0
LINE
8
Black
10
85.2381
20
-105.536
11
85.0952
21
-104.965
0
LINE
8
Black
10
85.0952
20
-104.965
11
85.0952
21
-104.251
0
LINE
8
Black
10
85.0952
20
-104.251
11
85.2381
21
-103.679
0
LINE
8
Black
10
85.2381
20
-103.679
11
85.3809
21
-103.393
0
LINE
8
Black
10
85.3809
20
-103.393
11
85.5238
21
-103.251
0
LINE
8
Black
10
85.5238
20
-103.251
11
85.8095
21
-103.108
0
LINE
8
Black
10
88.0952
20
-105.822
11
88.2381
21
-105.965
0
LINE
8
Black
10
88.2381
20
-105.965
11
88.0952
21
-106.108
0
LINE
8
Black
10
88.0952
20
-106.108
11
87.9524
21
-105.965
0
LINE
8
Black
10
87.9524
20
-105.965
11
88.0952
21
-105.822
0
LINE
8
Black
10
88.0952
20
-105.822
11
88.0952
21
-106.108
0
LINE
8
Black
10
90.0952
20
-103.108
11
90.3809
21
-103.108
0
LINE
8
Black
10
90.3809
20
-103.108
11
90.6666
21
-103.251
0
LINE
8
Black
10
90.6666
20
-103.251
11
90.8095
21
-103.393
0
LINE
8
Black
10
90.8095
20
-103.393
11
90.9524
21
-103.679
0
LINE
8
Black
10
90.9524
20
-103.679
11
91.0952
21
-104.251
0
LINE
8
Black
10
91.0952
20
-104.251
11
91.0952
21
-104.965
0
LINE
8
Black
10
91.0952
20
-104.965
11
90.9524
21
-105.536
0
LINE
8
Black
10
90.9524
20
-105.536
11
90.8095
21
-105.822
0
LINE
8
Black
10
90.8095
20
-105.822
11
90.6666
21
-105.965
0
LINE
8
Black
10
90.6666
20
-105.965
11
90.3809
21
-106.108
0
LINE
8
Black
10
90.3809
20
-106.108
11
90.0952
21
-106.108
0
LINE
8
Black
10
90.0952
20
-106.108
11
89.8095
21
-105.965
0
LINE
8
Black
10
89.8095
20
-105.965
11
89.6666
21
-105.822
0
LINE
8
Black
10
89.6666
20
-105.822
11
89.5238
21
-105.536
0
LINE
8
Black
10
89.5238
20
-105.536
11
89.3809
21
-104.965
0
LINE
8
Black
10
89.3809
20
-104.965
11
89.3809
21
-104.251
0
LINE
8
Black
10
89.3809
20
-104.251
11
89.5238
21
-103.679
0
LINE
8
Black
10
89.5238
20
-103.679
11
89.6666
21
-103.393
0
LINE
8
Black
10
89.6666
20
-103.393
11
89.8095
21
-103.251
0
LINE
8
Black
10
89.8095
20
-103.251
11
90.0952
21
-103.108
0
LINE
8
Black
10
92.0952
20
-103.108
11
93.9524
21
-103.108
0
LINE
8
Black
10
93.9524
20
-103.108
11
92.9524
21
-104.251
0
LINE
8
Black
10
92.9524
20
-104.251
11
93.3809
21
-104.251
0
LINE
8
Black
10
93.3809
20
-104.251
11
93.6666
21
-104.393
0
LINE
8
Black
10
93.6666
20
-104.393
11
93.8095
21
-104.536
0
LINE
8
Black
10
93.8095
20
-104.536
11
93.9524
21
-104.822
0
LINE
8
Black
10
93.9524
20
-104.822
11
93.9524
21
-105.536
0
LINE
8
Black
10
93.9524
20
-105.536
11
93.8095
21
-105.822
0
LINE
8
Black
10
93.8095
20
-105.822
11
93.6666
21
-105.965
0
LINE
8
Black
10
93.6666
20
-105.965
11
93.3809
21
-106.108
0
LINE
8
Black
10
93.3809
20
-106.108
11
92.5238
21
-106.108
0
LINE
8
Black
10
92.5238
20
-106.108
11
92.2381
21
-105.965
0
LINE
8
Black
10
92.2381
20
-105.965
11
92.0952
21
-105.822
0
LINE
8
Black
10
95.3809
20
-106.108
11
95.9524
21
-106.108
0
LINE
8
Black
10
95.9524
20
-106.108
11
96.2381
21
-105.965
0
LINE
8
Black
10
96.2381
20
-105.965
11
96.3809
21
-105.822
0
LINE
8
Black
10
96.3809
20
-105.822
11
96.6666
21
-105.393
0
LINE
8
Black
10
96.6666
20
-105.393
11
96.8095
21
-104.822
0
LINE
8
Black
10
96.8095
20
-104.822
11
96.8095
21
-103.679
0
LINE
8
Black
10
96.8095
20
-103.679
11
96.6666
21
-103.393
0
LINE
8
Black
10
96.6666
20
-103.393
11
96.5238
21
-103.251
0
LINE
8
Black
10
96.5238
20
-103.251
11
96.2381
21
-103.108
0
LINE
8
Black
10
96.2381
20
-103.108
11
95.6666
21
-103.108
0
LINE
8
Black
10
95.6666
20
-103.108
11
95.3809
21
-103.251
0
LINE
8
Black
10
95.3809
20
-103.251
11
95.2381
21
-103.393
0
LINE
8
Black
10
95.2381
20
-103.393
11
95.0952
21
-103.679
0
LINE
8
Black
10
95.0952
20
-103.679
11
95.0952
21
-104.393
0
LINE
8
Black
10
95.0952
20
-104.393
11
95.2381
21
-104.679
0
LINE
8
Black
10
95.2381
20
-104.679
11
95.3809
21
-104.822
0
LINE
8
Black
10
95.3809
20
-104.822
11
95.6666
21
-104.965
0
LINE
8
Black
10
95.6666
20
-104.965
11
96.2381
21
-104.965
0
LINE
8
Black
10
96.2381
20
-104.965
11
96.5238
21
-104.822
0
LINE
8
Black
10
96.5238
20
-104.822
11
96.6666
21
-104.679
0
LINE
8
Black
10
96.6666
20
-104.679
11
96.8095
21
-104.393
0
LINE
8
Black
10
97.9524
20
-103.108
11
97.9524
21
-103.679
0
LINE
8
Black
10
99.0952
20
-103.108
11
99.0952
21
-103.679
0
LINE
8
Black
10
103.524
20
-107.251
11
103.381
21
-107.108
0
LINE
8
Black
10
103.381
20
-107.108
11
103.095
21
-106.679
0
LINE
8
Black
10
103.095
20
-106.679
11
102.952
21
-106.393
0
LINE
8
Black
10
102.952
20
-106.393
11
102.809
21
-105.965
0
LINE
8
Black
10
102.809
20
-105.965
11
102.667
21
-105.251
0
LINE
8
Black
10
102.667
20
-105.251
11
102.667
21
-104.679
0
LINE
8
Black
10
102.667
20
-104.679
11
102.809
21
-103.965
0
LINE
8
Black
10
102.809
20
-103.965
11
102.952
21
-103.536
0
LINE
8
Black
10
102.952
20
-103.536
11
103.095
21
-103.251
0
LINE
8
Black
10
103.095
20
-103.251
11
103.381
21
-102.822
0
LINE
8
Black
10
103.381
20
-102.822
11
103.524
21
-102.679
0
LINE
8
Black
10
105.952
20
-104.108
11
105.952
21
-106.108
0
LINE
8
Black
10
105.238
20
-102.965
11
104.524
21
-105.108
0
LINE
8
Black
10
104.524
20
-105.108
11
106.381
21
-105.108
0
LINE
8
Black
10
108.095
20
-103.108
11
108.381
21
-103.108
0
LINE
8
Black
10
108.381
20
-103.108
11
108.667
21
-103.251
0
LINE
8
Black
10
108.667
20
-103.251
11
108.809
21
-103.393
0
LINE
8
Black
10
108.809
20
-103.393
11
108.952
21
-103.679
0
LINE
8
Black
10
108.952
20
-103.679
11
109.095
21
-104.251
0
LINE
8
Black
10
109.095
20
-104.251
11
109.095
21
-104.965
0
LINE
8
Black
10
109.095
20
-104.965
11
108.952
21
-105.536
0
LINE
8
Black
10
108.952
20
-105.536
11
108.809
21
-105.822
0
LINE
8
Black
10
108.809
20
-105.822
11
108.667
21
-105.965
0
LINE
8
Black
10
108.667
20
-105.965
11
108.381
21
-106.108
0
LINE
8
Black
10
108.381
20
-106.108
11
108.095
21
-106.108
0
LINE
8
Black
10
108.095
20
-106.108
11
107.809
21
-105.965
0
LINE
8
Black
10
107.809
20
-105.965
11
107.667
21
-105.822
0
LINE
8
Black
10
107.667
20
-105.822
11
107.524
21
-105.536
0
LINE
8
Black
10
107.524
20
-105.536
11
107.381
21
-104.965
0
LINE
8
Black
10
107.381
20
-104.965
11
107.381
21
-104.251
0
LINE
8
Black
10
107.381
20
-104.251
11
107.524
21
-103.679
0
LINE
8
Black
10
107.524
20
-103.679
11
107.667
21
-103.393
0
LINE
8
Black
10
107.667
20
-103.393
11
107.809
21
-103.251
0
LINE
8
Black
10
107.809
20
-103.251
11
108.095
21
-103.108
0
LINE
8
Black
10
112.667
20
-106.108
11
112.667
21
-103.108
0
LINE
8
Black
10
113.952
20
-106.108
11
113.952
21
-104.536
0
LINE
8
Black
10
113.952
20
-104.536
11
113.809
21
-104.251
0
LINE
8
Black
10
113.809
20
-104.251
11
113.524
21
-104.108
0
LINE
8
Black
10
113.524
20
-104.108
11
113.095
21
-104.108
0
LINE
8
Black
10
113.095
20
-104.108
11
112.809
21
-104.251
0
LINE
8
Black
10
112.809
20
-104.251
11
112.667
21
-104.393
0
LINE
8
Black
10
115.809
20
-106.108
11
115.524
21
-105.965
0
LINE
8
Black
10
115.524
20
-105.965
11
115.381
21
-105.822
0
LINE
8
Black
10
115.381
20
-105.822
11
115.238
21
-105.536
0
LINE
8
Black
10
115.238
20
-105.536
11
115.238
21
-104.679
0
LINE
8
Black
10
115.238
20
-104.679
11
115.381
21
-104.393
0
LINE
8
Black
10
115.381
20
-104.393
11
115.524
21
-104.251
0
LINE
8
Black
10
115.524
20
-104.251
11
115.809
21
-104.108
0
LINE
8
Black
10
115.809
20
-104.108
11
116.238
21
-104.108
0
LINE
8
Black
10
116.238
20
-104.108
11
116.524
21
-104.251
0
LINE
8
Black
10
116.524
20
-104.251
11
116.667
21
-104.393
0
LINE
8
Black
10
116.667
20
-104.393
11
116.809
21
-104.679
0
LINE
8
Black
10
116.809
20
-104.679
11
116.809
21
-105.536
0
LINE
8
Black
10
116.809
20
-105.536
11
116.667
21
-105.822
0
LINE
8
Black
10
116.667
20
-105.822
11
116.524
21
-105.965
0
LINE
8
Black
10
116.524
20
-105.965
11
116.238
21
-106.108
0
LINE
8
Black
10
116.238
20
-106.108
11
115.809
21
-106.108
0
LINE
8
Black
10
118.524
20
-106.108
11
118.238
21
-105.965
0
LINE
8
Black
10
118.238
20
-105.965
11
118.095
21
-105.679
0
LINE
8
Black
10
118.095
20
-105.679
11
118.095
21
-103.108
0
LINE
8
Black
10
120.809
20
-105.965
11
120.524
21
-106.108
0
LINE
8
Black
10
120.524
20
-106.108
11
119.952
21
-106.108
0
LINE
8
Black
10
119.952
20
-106.108
11
119.667
21
-105.965
0
LINE
8
Black
10
119.667
20
-105.965
11
119.524
21
-105.679
0
LINE
8
Black
10
119.524
20
-105.679
11
119.524
21
-104.536
0
LINE
8
Black
10
119.524
20
-104.536
11
119.667
21
-104.251
0
LINE
8
Black
10
119.667
20
-104.251
11
119.952
21
-104.108
0
LINE
8
Black
10
119.952
20
-104.108
11
120.524
21
-104.108
0
LINE
8
Black
10
120.524
20
-104.108
11
120.809
21
-104.251
0
LINE
8
Black
10
120.809
20
-104.251
11
120.952
21
-104.536
0
LINE
8
Black
10
120.952
20
-104.536
11
120.952
21
-104.822
0
LINE
8
Black
10
120.952
20
-104.822
11
119.524
21
-105.108
0
LINE
8
Black
10
122.095
20
-105.965
11
122.381
21
-106.108
0
LINE
8
Black
10
122.381
20
-106.108
11
122.952
21
-106.108
0
LINE
8
Black
10
122.952
20
-106.108
11
123.238
21
-105.965
0
LINE
8
Black
10
123.238
20
-105.965
11
123.381
21
-105.679
0
LINE
8
Black
10
123.381
20
-105.679
11
123.381
21
-105.536
0
LINE
8
Black
10
123.381
20
-105.536
11
123.238
21
-105.251
0
LINE
8
Black
10
123.238
20
-105.251
11
122.952
21
-105.108
0
LINE
8
Black
10
122.952
20
-105.108
11
122.524
21
-105.108
0
LINE
8
Black
10
122.524
20
-105.108
11
122.238
21
-104.965
0
LINE
8
Black
10
122.238
20
-104.965
11
122.095
21
-104.679
0
LINE
8
Black
10
122.095
20
-104.679
11
122.095
21
-104.536
0
LINE
8
Black
10
122.095
20
-104.536
11
122.238
21
-104.251
0
LINE
8
Black
10
122.238
20
-104.251
11
122.524
21
-104.108
0
LINE
8
Black
10
122.524
20
-104.108
11
122.952
21
-104.108
0
LINE
8
Black
10
122.952
20
-104.108
11
123.238
21
-104.251
0
LINE
8
Black
10
124.381
20
-107.251
11
124.524
21
-107.108
0
LINE
8
Black
10
124.524
20
-107.108
11
124.809
21
-106.679
0
LINE
8
Black
10
124.809
20
-106.679
11
124.952
21
-106.393
0
LINE
8
Black
10
124.952
20
-106.393
11
125.095
21
-105.965
0
LINE
8
Black
10
125.095
20
-105.965
11
125.238
21
-105.251
0
LINE
8
Black
10
125.238
20
-105.251
11
125.238
21
-104.679
0
LINE
8
Black
10
125.238
20
-104.679
11
125.095
21
-103.965
0
LINE
8
Black
10
125.095
20
-103.965
11
124.952
21
-103.536
0
LINE
8
Black
10
124.952
20
-103.536
11
124.809
21
-103.251
0
LINE
8
Black
10
124.809
20
-103.251
11
124.524
21
-102.822
0
LINE
8
Black
10
124.524
20
-102.822
11
124.381
21
-102.679
0
LINE
8
Black
10
54.8918
20
-106.793
11
54.8918
21
-110.628
0
LINE
8
Black
10
52.9741
20
-108.711
11
56.8095
21
-108.711
0
LINE
8
Black
10
59.2381
20
-107.068
11
61.0952
21
-107.068
0
LINE
8
Black
10
61.0952
20
-107.068
11
60.0952
21
-108.211
0
LINE
8
Black
10
60.0952
20
-108.211
11
60.5238
21
-108.211
0
LINE
8
Black
10
60.5238
20
-108.211
11
60.8095
21
-108.353
0
LINE
8
Black
10
60.8095
20
-108.353
11
60.9524
21
-108.496
0
LINE
8
Black
10
60.9524
20
-108.496
11
61.0952
21
-108.782
0
LINE
8
Black
10
61.0952
20
-108.782
11
61.0952
21
-109.496
0
LINE
8
Black
10
61.0952
20
-109.496
11
60.9524
21
-109.782
0
LINE
8
Black
10
60.9524
20
-109.782
11
60.8095
21
-109.925
0
LINE
8
Black
10
60.8095
20
-109.925
11
60.5238
21
-110.068
0
LINE
8
Black
10
60.5238
20
-110.068
11
59.6666
21
-110.068
0
LINE
8
Black
10
59.6666
20
-110.068
11
59.3809
21
-109.925
0
LINE
8
Black
10
59.3809
20
-109.925
11
59.2381
21
-109.782
0
LINE
8
Black
10
62.3809
20
-109.782
11
62.5238
21
-109.925
0
LINE
8
Black
10
62.5238
20
-109.925
11
62.3809
21
-110.068
0
LINE
8
Black
10
62.3809
20
-110.068
11
62.2381
21
-109.925
0
LINE
8
Black
10
62.2381
20
-109.925
11
62.3809
21
-109.782
0
LINE
8
Black
10
62.3809
20
-109.782
11
62.3809
21
-110.068
0
LINE
8
Black
10
64.2381
20
-108.353
11
63.9524
21
-108.211
0
LINE
8
Black
10
63.9524
20
-108.211
11
63.8095
21
-108.068
0
LINE
8
Black
10
63.8095
20
-108.068
11
63.6666
21
-107.782
0
LINE
8
Black
10
63.6666
20
-107.782
11
63.6666
21
-107.639
0
LINE
8
Black
10
63.6666
20
-107.639
11
63.8095
21
-107.353
0
LINE
8
Black
10
63.8095
20
-107.353
11
63.9524
21
-107.211
0
LINE
8
Black
10
63.9524
20
-107.211
11
64.2381
21
-107.068
0
LINE
8
Black
10
64.2381
20
-107.068
11
64.8095
21
-107.068
0
LINE
8
Black
10
64.8095
20
-107.068
11
65.0952
21
-107.211
0
LINE
8
Black
10
65.0952
20
-107.211
11
65.2381
21
-107.353
0
LINE
8
Black
10
65.2381
20
-107.353
11
65.3809
21
-107.639
0
LINE
8
Black
10
65.3809
20
-107.639
11
65.3809
21
-107.782
0
LINE
8
Black
10
65.3809
20
-107.782
11
65.2381
21
-108.068
0
LINE
8
Black
10
65.2381
20
-108.068
11
65.0952
21
-108.211
0
LINE
8
Black
10
65.0952
20
-108.211
11
64.8095
21
-108.353
0
LINE
8
Black
10
64.8095
20
-108.353
11
64.2381
21
-108.353
0
LINE
8
Black
10
64.2381
20
-108.353
11
63.9524
21
-108.496
0
LINE
8
Black
10
63.9524
20
-108.496
11
63.8095
21
-108.639
0
LINE
8
Black
10
63.8095
20
-108.639
11
63.6666
21
-108.925
0
LINE
8
Black
10
63.6666
20
-108.925
11
63.6666
21
-109.496
0
LINE
8
Black
10
63.6666
20
-109.496
11
63.8095
21
-109.782
0
LINE
8
Black
10
63.8095
20
-109.782
11
63.9524
21
-109.925
0
LINE
8
Black
10
63.9524
20
-109.925
11
64.2381
21
-110.068
0
LINE
8
Black
10
64.2381
20
-110.068
11
64.8095
21
-110.068
0
LINE
8
Black
10
64.8095
20
-110.068
11
65.0952
21
-109.925
0
LINE
8
Black
10
65.0952
20
-109.925
11
65.2381
21
-109.782
0
LINE
8
Black
10
65.2381
20
-109.782
11
65.3809
21
-109.496
0
LINE
8
Black
10
65.3809
20
-109.496
11
65.3809
21
-108.925
0
LINE
8
Black
10
65.3809
20
-108.925
11
65.2381
21
-108.639
0
LINE
8
Black
10
65.2381
20
-108.639
11
65.0952
21
-108.496
0
LINE
8
Black
10
65.0952
20
-108.496
11
64.8095
21
-108.353
0
LINE
8
Black
10
67.9524
20
-108.068
11
67.9524
21
-110.068
0
LINE
8
Black
10
67.2381
20
-106.925
11
66.5238
21
-109.068
0
LINE
8
Black
10
66.5238
20
-109.068
11
68.3809
21
-109.068
0
LINE
8
Black
10
69.5238
20
-110.068
11
69.5238
21
-108.068
0
LINE
8
Black
10
69.5238
20
-108.353
11
69.6666
21
-108.211
0
LINE
8
Black
10
69.6666
20
-108.211
11
69.9524
21
-108.068
0
LINE
8
Black
10
69.9524
20
-108.068
11
70.3809
21
-108.068
0
LINE
8
Black
10
70.3809
20
-108.068
11
70.6666
21
-108.211
0
LINE
8
Black
10
70.6666
20
-108.211
11
70.8095
21
-108.496
0
LINE
8
Black
10
70.8095
20
-108.496
11
70.8095
21
-110.068
0
LINE
8
Black
10
70.8095
20
-108.496
11
70.9524
21
-108.211
0
LINE
8
Black
10
70.9524
20
-108.211
11
71.2381
21
-108.068
0
LINE
8
Black
10
71.2381
20
-108.068
11
71.6666
21
-108.068
0
LINE
8
Black
10
71.6666
20
-108.068
11
71.9524
21
-108.211
0
LINE
8
Black
10
71.9524
20
-108.211
11
72.0952
21
-108.496
0
LINE
8
Black
10
72.0952
20
-108.496
11
72.0952
21
-110.068
0
LINE
8
Black
10
73.5238
20
-110.068
11
73.5238
21
-108.068
0
LINE
8
Black
10
73.5238
20
-108.353
11
73.6666
21
-108.211
0
LINE
8
Black
10
73.6666
20
-108.211
11
73.9524
21
-108.068
0
LINE
8
Black
10
73.9524
20
-108.068
11
74.3809
21
-108.068
0
LINE
8
Black
10
74.3809
20
-108.068
11
74.6666
21
-108.211
0
LINE
8
Black
10
74.6666
20
-108.211
11
74.8095
21
-108.496
0
LINE
8
Black
10
74.8095
20
-108.496
11
74.8095
21
-110.068
0
LINE
8
Black
10
74.8095
20
-108.496
11
74.9524
21
-108.211
0
LINE
8
Black
10
74.9524
20
-108.211
11
75.2381
21
-108.068
0
LINE
8
Black
10
75.2381
20
-108.068
11
75.6666
21
-108.068
0
LINE
8
Black
10
75.6666
20
-108.068
11
75.9524
21
-108.211
0
LINE
8
Black
10
75.9524
20
-108.211
11
76.0952
21
-108.496
0
LINE
8
Black
10
76.0952
20
-108.496
11
76.0952
21
-110.068
0
LINE
8
Black
10
81.9524
20
-106.925
11
79.3809
21
-110.782
0
LINE
8
Black
10
85.8095
20
-107.068
11
86.0952
21
-107.068
0
LINE
8
Black
10
86.0952
20
-107.068
11
86.3809
21
-107.211
0
LINE
8
Black
10
86.3809
20
-107.211
11
86.5238
21
-107.353
0
LINE
8
Black
10
86.5238
20
-107.353
11
86.6666
21
-107.639
0
LINE
8
Black
10
86.6666
20
-107.639
11
86.8095
21
-108.211
0
LINE
8
Black
10
86.8095
20
-108.211
11
86.8095
21
-108.925
0
LINE
8
Black
10
86.8095
20
-108.925
11
86.6666
21
-109.496
0
LINE
8
Black
10
86.6666
20
-109.496
11
86.5238
21
-109.782
0
LINE
8
Black
10
86.5238
20
-109.782
11
86.3809
21
-109.925
0
LINE
8
Black
10
86.3809
20
-109.925
11
86.0952
21
-110.068
0
LINE
8
Black
10
86.0952
20
-110.068
11
85.8095
21
-110.068
0
LINE
8
Black
10
85.8095
20
-110.068
11
85.5238
21
-109.925
0
LINE
8
Black
10
85.5238
20
-109.925
11
85.3809
21
-109.782
0
LINE
8
Black
10
85.3809
20
-109.782
11
85.2381
21
-109.496
0
LINE
8
Black
10
85.2381
20
-109.496
11
85.0952
21
-108.925
0
LINE
8
Black
10
85.0952
20
-108.925
11
85.0952
21
-108.211
0
LINE
8
Black
10
85.0952
20
-108.211
11
85.2381
21
-107.639
0
LINE
8
Black
10
85.2381
20
-107.639
11
85.3809
21
-107.353
0
LINE
8
Black
10
85.3809
20
-107.353
11
85.5238
21
-107.211
0
LINE
8
Black
10
85.5238
20
-107.211
11
85.8095
21
-107.068
0
LINE
8
Black
10
88.0952
20
-109.782
11
88.2381
21
-109.925
0
LINE
8
Black
10
88.2381
20
-109.925
11
88.0952
21
-110.068
0
LINE
8
Black
10
88.0952
20
-110.068
11
87.9524
21
-109.925
0
LINE
8
Black
10
87.9524
20
-109.925
11
88.0952
21
-109.782
0
LINE
8
Black
10
88.0952
20
-109.782
11
88.0952
21
-110.068
0
LINE
8
Black
10
91.0952
20
-110.068
11
89.3809
21
-110.068
0
LINE
8
Black
10
90.2381
20
-110.068
11
90.2381
21
-107.068
0
LINE
8
Black
10
90.2381
20
-107.068
11
89.9524
21
-107.496
0
LINE
8
Black
10
89.9524
20
-107.496
11
89.6666
21
-107.782
0
LINE
8
Black
10
89.6666
20
-107.782
11
89.3809
21
-107.925
0
LINE
8
Black
10
93.8095
20
-107.068
11
92.3809
21
-107.068
0
LINE
8
Black
10
92.3809
20
-107.068
11
92.2381
21
-108.496
0
LINE
8
Black
10
92.2381
20
-108.496
11
92.3809
21
-108.353
0
LINE
8
Black
10
92.3809
20
-108.353
11
92.6666
21
-108.211
0
LINE
8
Black
10
92.6666
20
-108.211
11
93.3809
21
-108.211
0
LINE
8
Black
10
93.3809
20
-108.211
11
93.6666
21
-108.353
0
LINE
8
Black
10
93.6666
20
-108.353
11
93.8095
21
-108.496
0
LINE
8
Black
10
93.8095
20
-108.496
11
93.9524
21
-108.782
0
LINE
8
Black
10
93.9524
20
-108.782
11
93.9524
21
-109.496
0
LINE
8
Black
10
93.9524
20
-109.496
11
93.8095
21
-109.782
0
LINE
8
Black
10
93.8095
20
-109.782
11
93.6666
21
-109.925
0
LINE
8
Black
10
93.6666
20
-109.925
11
93.3809
21
-110.068
0
LINE
8
Black
10
93.3809
20
-110.068
11
92.6666
21
-110.068
0
LINE
8
Black
10
92.6666
20
-110.068
11
92.3809
21
-109.925
0
LINE
8
Black
10
92.3809
20
-109.925
11
92.2381
21
-109.782
0
LINE
8
Black
10
96.8095
20
-110.068
11
95.0952
21
-110.068
0
LINE
8
Black
10
95.9524
20
-110.068
11
95.9524
21
-107.068
0
LINE
8
Black
10
95.9524
20
-107.068
11
95.6666
21
-107.496
0
LINE
8
Black
10
95.6666
20
-107.496
11
95.3809
21
-107.782
0
LINE
8
Black
10
95.3809
20
-107.782
11
95.0952
21
-107.925
0
LINE
8
Black
10
97.9524
20
-107.068
11
97.9524
21
-107.639
0
LINE
8
Black
10
99.0952
20
-107.068
11
99.0952
21
-107.639
0
LINE
8
Black
10
103.524
20
-111.211
11
103.381
21
-111.068
0
LINE
8
Black
10
103.381
20
-111.068
11
103.095
21
-110.639
0
LINE
8
Black
10
103.095
20
-110.639
11
102.952
21
-110.353
0
LINE
8
Black
10
102.952
20
-110.353
11
102.809
21
-109.925
0
LINE
8
Black
10
102.809
20
-109.925
11
102.667
21
-109.211
0
LINE
8
Black
10
102.667
20
-109.211
11
102.667
21
-108.639
0
LINE
8
Black
10
102.667
20
-108.639
11
102.809
21
-107.925
0
LINE
8
Black
10
102.809
20
-107.925
11
102.952
21
-107.496
0
LINE
8
Black
10
102.952
20
-107.496
11
103.095
21
-107.211
0
LINE
8
Black
10
103.095
20
-107.211
11
103.381
21
-106.782
0
LINE
8
Black
10
103.381
20
-106.782
11
103.524
21
-106.639
0
LINE
8
Black
10
105.952
20
-108.068
11
105.952
21
-110.068
0
LINE
8
Black
10
105.238
20
-106.925
11
104.524
21
-109.068
0
LINE
8
Black
10
104.524
20
-109.068
11
106.381
21
-109.068
0
LINE
8
Black
10
109.809
20
-110.068
11
109.809
21
-107.068
0
LINE
8
Black
10
111.095
20
-110.068
11
111.095
21
-108.496
0
LINE
8
Black
10
111.095
20
-108.496
11
110.952
21
-108.211
0
LINE
8
Black
10
110.952
20
-108.211
11
110.667
21
-108.068
0
LINE
8
Black
10
110.667
20
-108.068
11
110.238
21
-108.068
0
LINE
8
Black
10
110.238
20
-108.068
11
109.952
21
-108.211
0
LINE
8
Black
10
109.952
20
-108.211
11
109.809
21
-108.353
0
LINE
8
Black
10
112.952
20
-110.068
11
112.667
21
-109.925
0
LINE
8
Black
10
112.667
20
-109.925
11
112.524
21
-109.782
0
LINE
8
Black
10
112.524
20
-109.782
11
112.381
21
-109.496
0
LINE
8
Black
10
112.381
20
-109.496
11
112.381
21
-108.639
0
LINE
8
Black
10
112.381
20
-108.639
11
112.524
21
-108.353
0
LINE
8
Black
10
112.524
20
-108.353
11
112.667
21
-108.211
0
LINE
8
Black
10
112.667
20
-108.211
11
112.952
21
-108.068
0
LINE
8
Black
10
112.952
20
-108.068
11
113.381
21
-108.068
0
LINE
8
Black
10
113.381
20
-108.068
11
113.667
21
-108.211
0
LINE
8
Black
10
113.667
20
-108.211
11
113.809
21
-108.353
0
LINE
8
Black
10
113.809
20
-108.353
11
113.952
21
-108.639
0
LINE
8
Black
10
113.952
20
-108.639
11
113.952
21
-109.496
0
LINE
8
Black
10
113.952
20
-109.496
11
113.809
21
-109.782
0
LINE
8
Black
10
113.809
20
-109.782
11
113.667
21
-109.925
0
LINE
8
Black
10
113.667
20
-109.925
11
113.381
21
-110.068
0
LINE
8
Black
10
113.381
20
-110.068
11
112.952
21
-110.068
0
LINE
8
Black
10
115.667
20
-110.068
11
115.381
21
-109.925
0
LINE
8
Black
10
115.381
20
-109.925
11
115.238
21
-109.639
0
LINE
8
Black
10
115.238
20
-109.639
11
115.238
21
-107.068
0
LINE
8
Black
10
117.952
20
-109.925
11
117.667
21
-110.068
0
LINE
8
Black
10
117.667
20
-110.068
11
117.095
21
-110.068
0
LINE
8
Black
10
117.095
20
-110.068
11
116.809
21
-109.925
0
LINE
8
Black
10
116.809
20
-109.925
11
116.667
21
-109.639
0
LINE
8
Black
10
116.667
20
-109.639
11
116.667
21
-108.496
0
LINE
8
Black
10
116.667
20
-108.496
11
116.809
21
-108.211
0
LINE
8
Black
10
116.809
20
-108.211
11
117.095
21
-108.068
0
LINE
8
Black
10
117.095
20
-108.068
11
117.667
21
-108.068
0
LINE
8
Black
10
117.667
20
-108.068
11
117.952
21
-108.211
0
LINE
8
Black
10
117.952
20
-108.211
11
118.095
21
-108.496
0
LINE
8
Black
10
118.095
20
-108.496
11
118.095
21
-108.782
0
LINE
8
Black
10
118.095
20
-108.782
11
116.667
21
-109.068
0
LINE
8
Black
10
119.238
20
-109.925
11
119.524
21
-110.068
0
LINE
8
Black
10
119.524
20
-110.068
11
120.095
21
-110.068
0
LINE
8
Black
10
120.095
20
-110.068
11
120.381
21
-109.925
0
LINE
8
Black
10
120.381
20
-109.925
11
120.524
21
-109.639
0
LINE
8
Black
10
120.524
20
-109.639
11
120.524
21
-109.496
0
LINE
8
Black
10
120.524
20
-109.496
11
120.381
21
-109.211
0
LINE
8
Black
10
120.381
20
-109.211
11
120.095
21
-109.068
0
LINE
8
Black
10
120.095
20
-109.068
11
119.667
21
-109.068
0
LINE
8
Black
10
119.667
20
-109.068
11
119.381
21
-108.925
0
LINE
8
Black
10
119.381
20
-108.925
11
119.238
21
-108.639
0
LINE
8
Black
10
119.238
20
-108.639
11
119.238
21
-108.496
0
LINE
8
Black
10
119.238
20
-108.496
11
119.381
21
-108.211
0
LINE
8
Black
10
119.381
20
-108.211
11
119.667
21
-108.068
0
LINE
8
Black
10
119.667
20
-108.068
11
120.095
21
-108.068
0
LINE
8
Black
10
120.095
20
-108.068
11
120.381
21
-108.211
0
LINE
8
Black
10
121.524
20
-111.211
11
121.667
21
-111.068
0
LINE
8
Black
10
121.667
20
-111.068
11
121.952
21
-110.639
0
LINE
8
Black
10
121.952
20
-110.639
11
122.095
21
-110.353
0
LINE
8
Black
10
122.095
20
-110.353
11
122.238
21
-109.925
0
LINE
8
Black
10
122.238
20
-109.925
11
122.381
21
-109.211
0
LINE
8
Black
10
122.381
20
-109.211
11
122.381
21
-108.639
0
LINE
8
Black
10
122.381
20
-108.639
11
122.238
21
-107.925
0
LINE
8
Black
10
122.238
20
-107.925
11
122.095
21
-107.496
0
LINE
8
Black
10
122.095
20
-107.496
11
121.952
21
-107.211
0
LINE
8
Black
10
121.952
20
-107.211
11
121.667
21
-106.782
0
LINE
8
Black
10
121.667
20
-106.782
11
121.524
21
-106.639
  0
ENDSEC
  0
EOF
