G04 #@! TF.GenerationSoftware,KiCad,Pcbnew,(6.0.1)*
G04 #@! TF.CreationDate,2022-08-20T07:42:27-04:00*
G04 #@! TF.ProjectId,SH-LEV-01,53482d4c-4556-42d3-9031-2e6b69636164,1*
G04 #@! TF.SameCoordinates,Original*
G04 #@! TF.FileFunction,Copper,L2,Bot*
G04 #@! TF.FilePolarity,Positive*
%FSLAX46Y46*%
G04 Gerber Fmt 4.6, Leading zero omitted, Abs format (unit mm)*
G04 Created by KiCad (PCBNEW (6.0.1)) date 2022-08-20 07:42:27*
%MOMM*%
%LPD*%
G01*
G04 APERTURE LIST*
G04 #@! TA.AperFunction,ComponentPad*
%ADD10C,6.350000*%
G04 #@! TD*
G04 #@! TA.AperFunction,ComponentPad*
%ADD11R,1.700000X1.700000*%
G04 #@! TD*
G04 #@! TA.AperFunction,ComponentPad*
%ADD12O,1.700000X1.700000*%
G04 #@! TD*
G04 #@! TA.AperFunction,ViaPad*
%ADD13C,0.889000*%
G04 #@! TD*
G04 APERTURE END LIST*
D10*
X14000000Y-55000000D03*
X55000000Y-55000000D03*
X55000000Y-14000000D03*
X14000000Y-14000000D03*
D11*
X20732600Y-47604600D03*
D12*
X20732600Y-45064600D03*
X20732600Y-42524600D03*
X20732600Y-39984600D03*
X20732600Y-37444600D03*
X20732600Y-34904600D03*
X20732600Y-32364600D03*
X20732600Y-29824600D03*
X20732600Y-27284600D03*
X20732600Y-24744600D03*
X20732600Y-22204600D03*
X20732600Y-19664600D03*
D11*
X48050600Y-20142600D03*
D12*
X48050600Y-22682600D03*
X48050600Y-25222600D03*
X48050600Y-27762600D03*
X48050600Y-30302600D03*
X48050600Y-32842600D03*
X48050600Y-35382600D03*
X48050600Y-37922600D03*
X48050600Y-40462600D03*
X48050600Y-43002600D03*
X48050600Y-45542600D03*
X48050600Y-48082600D03*
D13*
X34899600Y-46329600D03*
X39217600Y-34899600D03*
X37693600Y-20675600D03*
X34413100Y-19384100D03*
G04 #@! TA.AperFunction,Conductor*
G36*
X54550059Y-10324802D02*
G01*
X54596552Y-10378458D01*
X54606656Y-10448732D01*
X54577162Y-10513312D01*
X54517436Y-10551696D01*
X54501650Y-10555249D01*
X54275412Y-10591081D01*
X53923052Y-10685496D01*
X53582492Y-10816225D01*
X53579552Y-10817723D01*
X53260403Y-10980337D01*
X53260396Y-10980341D01*
X53257462Y-10981836D01*
X52951524Y-11180514D01*
X52668029Y-11410084D01*
X52410084Y-11668029D01*
X52180514Y-11951524D01*
X51981836Y-12257462D01*
X51816225Y-12582492D01*
X51685496Y-12923052D01*
X51591081Y-13275412D01*
X51534016Y-13635710D01*
X51514924Y-14000000D01*
X51534016Y-14364290D01*
X51534529Y-14367530D01*
X51534530Y-14367538D01*
X51555249Y-14498351D01*
X51591081Y-14724588D01*
X51685496Y-15076948D01*
X51816225Y-15417508D01*
X51981836Y-15742538D01*
X52180514Y-16048476D01*
X52410084Y-16331971D01*
X52668029Y-16589916D01*
X52951524Y-16819486D01*
X53257462Y-17018164D01*
X53260396Y-17019659D01*
X53260403Y-17019663D01*
X53579552Y-17182277D01*
X53582492Y-17183775D01*
X53923052Y-17314504D01*
X54275412Y-17408919D01*
X54466987Y-17439261D01*
X54632462Y-17465470D01*
X54632470Y-17465471D01*
X54635710Y-17465984D01*
X55000000Y-17485076D01*
X55364290Y-17465984D01*
X55367530Y-17465471D01*
X55367538Y-17465470D01*
X55533013Y-17439261D01*
X55724588Y-17408919D01*
X56076948Y-17314504D01*
X56417508Y-17183775D01*
X56420448Y-17182277D01*
X56739597Y-17019663D01*
X56739604Y-17019659D01*
X56742538Y-17018164D01*
X57048476Y-16819486D01*
X57331971Y-16589916D01*
X57589916Y-16331971D01*
X57819486Y-16048476D01*
X58018164Y-15742538D01*
X58183775Y-15417508D01*
X58314504Y-15076948D01*
X58408919Y-14724588D01*
X58444751Y-14498351D01*
X58475163Y-14434198D01*
X58535431Y-14396671D01*
X58606421Y-14397685D01*
X58665593Y-14436918D01*
X58694161Y-14501913D01*
X58695200Y-14518062D01*
X58695200Y-53696869D01*
X58675198Y-53764990D01*
X58663374Y-53780579D01*
X58533894Y-53926245D01*
X58519116Y-53942870D01*
X58458909Y-53980495D01*
X58387918Y-53979598D01*
X58328682Y-53940462D01*
X58307311Y-53904314D01*
X58183775Y-53582492D01*
X58018164Y-53257462D01*
X57819486Y-52951524D01*
X57589916Y-52668029D01*
X57331971Y-52410084D01*
X57048476Y-52180514D01*
X56742538Y-51981836D01*
X56739604Y-51980341D01*
X56739597Y-51980337D01*
X56420448Y-51817723D01*
X56417508Y-51816225D01*
X56076948Y-51685496D01*
X55724588Y-51591081D01*
X55533013Y-51560739D01*
X55367538Y-51534530D01*
X55367530Y-51534529D01*
X55364290Y-51534016D01*
X55000000Y-51514924D01*
X54635710Y-51534016D01*
X54632470Y-51534529D01*
X54632462Y-51534530D01*
X54466987Y-51560739D01*
X54275412Y-51591081D01*
X53923052Y-51685496D01*
X53582492Y-51816225D01*
X53579552Y-51817723D01*
X53260403Y-51980337D01*
X53260396Y-51980341D01*
X53257462Y-51981836D01*
X52951524Y-52180514D01*
X52668029Y-52410084D01*
X52410084Y-52668029D01*
X52180514Y-52951524D01*
X51981836Y-53257462D01*
X51816225Y-53582492D01*
X51685496Y-53923052D01*
X51591081Y-54275412D01*
X51534016Y-54635710D01*
X51514924Y-55000000D01*
X51534016Y-55364290D01*
X51591081Y-55724588D01*
X51685496Y-56076948D01*
X51816225Y-56417508D01*
X51981836Y-56742538D01*
X52180514Y-57048476D01*
X52410084Y-57331971D01*
X52668029Y-57589916D01*
X52951524Y-57819486D01*
X53257462Y-58018164D01*
X53260396Y-58019659D01*
X53260403Y-58019663D01*
X53363998Y-58072447D01*
X53582492Y-58183775D01*
X53923052Y-58314504D01*
X54275412Y-58408919D01*
X54278670Y-58409435D01*
X54278684Y-58409438D01*
X54288028Y-58410918D01*
X54352180Y-58441331D01*
X54389705Y-58501600D01*
X54388690Y-58572590D01*
X54362487Y-58619076D01*
X54332412Y-58652910D01*
X54272205Y-58690535D01*
X54238239Y-58695200D01*
X14518062Y-58695200D01*
X14449941Y-58675198D01*
X14403448Y-58621542D01*
X14393344Y-58551268D01*
X14422838Y-58486688D01*
X14482564Y-58448304D01*
X14498351Y-58444751D01*
X14724588Y-58408919D01*
X15076948Y-58314504D01*
X15417508Y-58183775D01*
X15636002Y-58072447D01*
X15739597Y-58019663D01*
X15739604Y-58019659D01*
X15742538Y-58018164D01*
X16048476Y-57819486D01*
X16331971Y-57589916D01*
X16589916Y-57331971D01*
X16819486Y-57048476D01*
X17018164Y-56742538D01*
X17183775Y-56417508D01*
X17314504Y-56076948D01*
X17408919Y-55724588D01*
X17465984Y-55364290D01*
X17485076Y-55000000D01*
X17465984Y-54635710D01*
X17408919Y-54275412D01*
X17314504Y-53923052D01*
X17183775Y-53582492D01*
X17018164Y-53257462D01*
X16819486Y-52951524D01*
X16589916Y-52668029D01*
X16331971Y-52410084D01*
X16048476Y-52180514D01*
X15742538Y-51981836D01*
X15739604Y-51980341D01*
X15739597Y-51980337D01*
X15420448Y-51817723D01*
X15417508Y-51816225D01*
X15076948Y-51685496D01*
X14724588Y-51591081D01*
X14533013Y-51560739D01*
X14367538Y-51534530D01*
X14367530Y-51534529D01*
X14364290Y-51534016D01*
X14000000Y-51514924D01*
X13635710Y-51534016D01*
X13632470Y-51534529D01*
X13632462Y-51534530D01*
X13466987Y-51560739D01*
X13275412Y-51591081D01*
X12923052Y-51685496D01*
X12582492Y-51816225D01*
X12579552Y-51817723D01*
X12260403Y-51980337D01*
X12260396Y-51980341D01*
X12257462Y-51981836D01*
X11951524Y-52180514D01*
X11668029Y-52410084D01*
X11410084Y-52668029D01*
X11180514Y-52951524D01*
X10981836Y-53257462D01*
X10816225Y-53582492D01*
X10685496Y-53923052D01*
X10670345Y-53979598D01*
X10612738Y-54194589D01*
X10575786Y-54255212D01*
X10511926Y-54286233D01*
X10441431Y-54277805D01*
X10396207Y-54244950D01*
X10335976Y-54176115D01*
X10306171Y-54111677D01*
X10304800Y-54093143D01*
X10304800Y-48499269D01*
X19374601Y-48499269D01*
X19374971Y-48506090D01*
X19380495Y-48556952D01*
X19384121Y-48572204D01*
X19429276Y-48692654D01*
X19437814Y-48708249D01*
X19514315Y-48810324D01*
X19526876Y-48822885D01*
X19628951Y-48899386D01*
X19644546Y-48907924D01*
X19764994Y-48953078D01*
X19780249Y-48956705D01*
X19831114Y-48962231D01*
X19837928Y-48962600D01*
X20460485Y-48962600D01*
X20475724Y-48958125D01*
X20476929Y-48956735D01*
X20478600Y-48949052D01*
X20478600Y-48944484D01*
X20986600Y-48944484D01*
X20991075Y-48959723D01*
X20992465Y-48960928D01*
X21000148Y-48962599D01*
X21627269Y-48962599D01*
X21634090Y-48962229D01*
X21684952Y-48956705D01*
X21700204Y-48953079D01*
X21820654Y-48907924D01*
X21836249Y-48899386D01*
X21938324Y-48822885D01*
X21950885Y-48810324D01*
X22027386Y-48708249D01*
X22035924Y-48692654D01*
X22081078Y-48572206D01*
X22084705Y-48556951D01*
X22090231Y-48506086D01*
X22090600Y-48499272D01*
X22090600Y-48350566D01*
X46718857Y-48350566D01*
X46749165Y-48485046D01*
X46752245Y-48494875D01*
X46832370Y-48692203D01*
X46837013Y-48701394D01*
X46948294Y-48882988D01*
X46954377Y-48891299D01*
X47093813Y-49052267D01*
X47101180Y-49059483D01*
X47265034Y-49195516D01*
X47273481Y-49201431D01*
X47457356Y-49308879D01*
X47466642Y-49313329D01*
X47665601Y-49389303D01*
X47675499Y-49392179D01*
X47778850Y-49413206D01*
X47792899Y-49412010D01*
X47796600Y-49401665D01*
X47796600Y-49401117D01*
X48304600Y-49401117D01*
X48308664Y-49414959D01*
X48322078Y-49416993D01*
X48328784Y-49416134D01*
X48338862Y-49413992D01*
X48542855Y-49352791D01*
X48552442Y-49349033D01*
X48743695Y-49255339D01*
X48752545Y-49250064D01*
X48925928Y-49126392D01*
X48933800Y-49119739D01*
X49084652Y-48969412D01*
X49091330Y-48961565D01*
X49215603Y-48788620D01*
X49220913Y-48779783D01*
X49315270Y-48588867D01*
X49319069Y-48579272D01*
X49380977Y-48375510D01*
X49383155Y-48365437D01*
X49384586Y-48354562D01*
X49382375Y-48340378D01*
X49369217Y-48336600D01*
X48322715Y-48336600D01*
X48307476Y-48341075D01*
X48306271Y-48342465D01*
X48304600Y-48350148D01*
X48304600Y-49401117D01*
X47796600Y-49401117D01*
X47796600Y-48354715D01*
X47792125Y-48339476D01*
X47790735Y-48338271D01*
X47783052Y-48336600D01*
X46733825Y-48336600D01*
X46720294Y-48340573D01*
X46718857Y-48350566D01*
X22090600Y-48350566D01*
X22090600Y-47876715D01*
X22086125Y-47861476D01*
X22084735Y-47860271D01*
X22077052Y-47858600D01*
X21004715Y-47858600D01*
X20989476Y-47863075D01*
X20988271Y-47864465D01*
X20986600Y-47872148D01*
X20986600Y-48944484D01*
X20478600Y-48944484D01*
X20478600Y-47876715D01*
X20474125Y-47861476D01*
X20472735Y-47860271D01*
X20465052Y-47858600D01*
X19392716Y-47858600D01*
X19377477Y-47863075D01*
X19376272Y-47864465D01*
X19374601Y-47872148D01*
X19374601Y-48499269D01*
X10304800Y-48499269D01*
X10304800Y-47816783D01*
X46714989Y-47816783D01*
X46716512Y-47825207D01*
X46728892Y-47828600D01*
X47778485Y-47828600D01*
X47793724Y-47824125D01*
X47794929Y-47822735D01*
X47796600Y-47815052D01*
X47796600Y-47810485D01*
X48304600Y-47810485D01*
X48309075Y-47825724D01*
X48310465Y-47826929D01*
X48318148Y-47828600D01*
X49368944Y-47828600D01*
X49382475Y-47824627D01*
X49383780Y-47815547D01*
X49341814Y-47648475D01*
X49338494Y-47638724D01*
X49253572Y-47443414D01*
X49248705Y-47434339D01*
X49133026Y-47255526D01*
X49126736Y-47247357D01*
X48983406Y-47089840D01*
X48975873Y-47082815D01*
X48808739Y-46950822D01*
X48800152Y-46945117D01*
X48762716Y-46924451D01*
X48712746Y-46874019D01*
X48697974Y-46804576D01*
X48723090Y-46738171D01*
X48750442Y-46711564D01*
X48925927Y-46586392D01*
X48933800Y-46579739D01*
X49084652Y-46429412D01*
X49091330Y-46421565D01*
X49215603Y-46248620D01*
X49220913Y-46239783D01*
X49315270Y-46048867D01*
X49319069Y-46039272D01*
X49380977Y-45835510D01*
X49383155Y-45825437D01*
X49384586Y-45814562D01*
X49382375Y-45800378D01*
X49369217Y-45796600D01*
X48322715Y-45796600D01*
X48307476Y-45801075D01*
X48306271Y-45802465D01*
X48304600Y-45810148D01*
X48304600Y-47810485D01*
X47796600Y-47810485D01*
X47796600Y-45814715D01*
X47792125Y-45799476D01*
X47790735Y-45798271D01*
X47783052Y-45796600D01*
X46733825Y-45796600D01*
X46720294Y-45800573D01*
X46718857Y-45810566D01*
X46749165Y-45945046D01*
X46752245Y-45954875D01*
X46832370Y-46152203D01*
X46837013Y-46161394D01*
X46948294Y-46342988D01*
X46954377Y-46351299D01*
X47093813Y-46512267D01*
X47101180Y-46519483D01*
X47265034Y-46655516D01*
X47273481Y-46661431D01*
X47343079Y-46702101D01*
X47391803Y-46753740D01*
X47404874Y-46823523D01*
X47378143Y-46889294D01*
X47337687Y-46922653D01*
X47329062Y-46927142D01*
X47320338Y-46932636D01*
X47150033Y-47060505D01*
X47142326Y-47067348D01*
X46995190Y-47221317D01*
X46988704Y-47229327D01*
X46868698Y-47405249D01*
X46863600Y-47414223D01*
X46773938Y-47607383D01*
X46770375Y-47617070D01*
X46714989Y-47816783D01*
X10304800Y-47816783D01*
X10304800Y-47332485D01*
X19374600Y-47332485D01*
X19379075Y-47347724D01*
X19380465Y-47348929D01*
X19388148Y-47350600D01*
X20460485Y-47350600D01*
X20475724Y-47346125D01*
X20476929Y-47344735D01*
X20478600Y-47337052D01*
X20478600Y-47332485D01*
X20986600Y-47332485D01*
X20991075Y-47347724D01*
X20992465Y-47348929D01*
X21000148Y-47350600D01*
X22072484Y-47350600D01*
X22087723Y-47346125D01*
X22088928Y-47344735D01*
X22090599Y-47337052D01*
X22090599Y-46709931D01*
X22090229Y-46703110D01*
X22084705Y-46652248D01*
X22081079Y-46636996D01*
X22035924Y-46516546D01*
X22027386Y-46500951D01*
X21950885Y-46398876D01*
X21938324Y-46386315D01*
X21836249Y-46309814D01*
X21820654Y-46301276D01*
X21709897Y-46259755D01*
X21653133Y-46217113D01*
X21628433Y-46150552D01*
X21643640Y-46081203D01*
X21665187Y-46052522D01*
X21766657Y-45951405D01*
X21773330Y-45943565D01*
X21897603Y-45770620D01*
X21902913Y-45761783D01*
X21997270Y-45570867D01*
X22001069Y-45561272D01*
X22062977Y-45357510D01*
X22065155Y-45347437D01*
X22066586Y-45336562D01*
X22064375Y-45322378D01*
X22051217Y-45318600D01*
X21004715Y-45318600D01*
X20989476Y-45323075D01*
X20988271Y-45324465D01*
X20986600Y-45332148D01*
X20986600Y-47332485D01*
X20478600Y-47332485D01*
X20478600Y-45336715D01*
X20474125Y-45321476D01*
X20472735Y-45320271D01*
X20465052Y-45318600D01*
X19415825Y-45318600D01*
X19402294Y-45322573D01*
X19400857Y-45332566D01*
X19431165Y-45467046D01*
X19434245Y-45476875D01*
X19514370Y-45674203D01*
X19519013Y-45683394D01*
X19630294Y-45864988D01*
X19636377Y-45873299D01*
X19775813Y-46034267D01*
X19783178Y-46041481D01*
X19788566Y-46045954D01*
X19828199Y-46104858D01*
X19829695Y-46175839D01*
X19792578Y-46236361D01*
X19752307Y-46260878D01*
X19644548Y-46301275D01*
X19628951Y-46309814D01*
X19526876Y-46386315D01*
X19514315Y-46398876D01*
X19437814Y-46500951D01*
X19429276Y-46516546D01*
X19384122Y-46636994D01*
X19380495Y-46652249D01*
X19374969Y-46703114D01*
X19374600Y-46709928D01*
X19374600Y-47332485D01*
X10304800Y-47332485D01*
X10304800Y-45276783D01*
X46714989Y-45276783D01*
X46716512Y-45285207D01*
X46728892Y-45288600D01*
X49368944Y-45288600D01*
X49382475Y-45284627D01*
X49383780Y-45275547D01*
X49341814Y-45108475D01*
X49338494Y-45098724D01*
X49253572Y-44903414D01*
X49248705Y-44894339D01*
X49133026Y-44715526D01*
X49126736Y-44707357D01*
X48983406Y-44549840D01*
X48975873Y-44542815D01*
X48808739Y-44410822D01*
X48800152Y-44405117D01*
X48613717Y-44302199D01*
X48604304Y-44297968D01*
X48558797Y-44281853D01*
X48501260Y-44240258D01*
X48475345Y-44174160D01*
X48489279Y-44104545D01*
X48539290Y-44053146D01*
X48707772Y-43958792D01*
X48871020Y-43823020D01*
X49006792Y-43659772D01*
X49110540Y-43474516D01*
X49154498Y-43345020D01*
X49176935Y-43278924D01*
X49176936Y-43278919D01*
X49178791Y-43273455D01*
X49179619Y-43267746D01*
X49179620Y-43267741D01*
X49203256Y-43104724D01*
X49209259Y-43063323D01*
X49210849Y-43002600D01*
X49191421Y-42791161D01*
X49133786Y-42586804D01*
X49039875Y-42396372D01*
X48912833Y-42226242D01*
X48780187Y-42103625D01*
X48761155Y-42086032D01*
X48761152Y-42086030D01*
X48756915Y-42082113D01*
X48577342Y-41968811D01*
X48543668Y-41955376D01*
X48439317Y-41913744D01*
X48380129Y-41890130D01*
X48374461Y-41889003D01*
X48374459Y-41889002D01*
X48204167Y-41855129D01*
X48141257Y-41822222D01*
X48106125Y-41760527D01*
X48109925Y-41689632D01*
X48151451Y-41632046D01*
X48210666Y-41606855D01*
X48321455Y-41590791D01*
X48326919Y-41588936D01*
X48326924Y-41588935D01*
X48517048Y-41524396D01*
X48522516Y-41522540D01*
X48707772Y-41418792D01*
X48717139Y-41411002D01*
X48866582Y-41286711D01*
X48871020Y-41283020D01*
X49006792Y-41119772D01*
X49110540Y-40934516D01*
X49154498Y-40805020D01*
X49176935Y-40738924D01*
X49176936Y-40738919D01*
X49178791Y-40733455D01*
X49179619Y-40727746D01*
X49179620Y-40727741D01*
X49203256Y-40564724D01*
X49209259Y-40523323D01*
X49210849Y-40462600D01*
X49191421Y-40251161D01*
X49133786Y-40046804D01*
X49039875Y-39856372D01*
X48912833Y-39686242D01*
X48780187Y-39563625D01*
X48761155Y-39546032D01*
X48761152Y-39546030D01*
X48756915Y-39542113D01*
X48577342Y-39428811D01*
X48543668Y-39415376D01*
X48439317Y-39373744D01*
X48380129Y-39350130D01*
X48374461Y-39349003D01*
X48374459Y-39349002D01*
X48204167Y-39315129D01*
X48141257Y-39282222D01*
X48106125Y-39220527D01*
X48109925Y-39149632D01*
X48151451Y-39092046D01*
X48210666Y-39066855D01*
X48321455Y-39050791D01*
X48326919Y-39048936D01*
X48326924Y-39048935D01*
X48517048Y-38984396D01*
X48522516Y-38982540D01*
X48707772Y-38878792D01*
X48717139Y-38871002D01*
X48866582Y-38746711D01*
X48871020Y-38743020D01*
X49006792Y-38579772D01*
X49110540Y-38394516D01*
X49154498Y-38265020D01*
X49176935Y-38198924D01*
X49176936Y-38198919D01*
X49178791Y-38193455D01*
X49179619Y-38187746D01*
X49179620Y-38187741D01*
X49203256Y-38024724D01*
X49209259Y-37983323D01*
X49210849Y-37922600D01*
X49191421Y-37711161D01*
X49133786Y-37506804D01*
X49039875Y-37316372D01*
X48912833Y-37146242D01*
X48780187Y-37023625D01*
X48761155Y-37006032D01*
X48761152Y-37006030D01*
X48756915Y-37002113D01*
X48577342Y-36888811D01*
X48543668Y-36875376D01*
X48439317Y-36833744D01*
X48380129Y-36810130D01*
X48374461Y-36809003D01*
X48374459Y-36809002D01*
X48204167Y-36775129D01*
X48141257Y-36742222D01*
X48106125Y-36680527D01*
X48109925Y-36609632D01*
X48151451Y-36552046D01*
X48210666Y-36526855D01*
X48321455Y-36510791D01*
X48326919Y-36508936D01*
X48326924Y-36508935D01*
X48517048Y-36444396D01*
X48522516Y-36442540D01*
X48707772Y-36338792D01*
X48717139Y-36331002D01*
X48866582Y-36206711D01*
X48871020Y-36203020D01*
X49006792Y-36039772D01*
X49110540Y-35854516D01*
X49154498Y-35725020D01*
X49176935Y-35658924D01*
X49176936Y-35658919D01*
X49178791Y-35653455D01*
X49179619Y-35647746D01*
X49179620Y-35647741D01*
X49203256Y-35484724D01*
X49209259Y-35443323D01*
X49210849Y-35382600D01*
X49191421Y-35171161D01*
X49133786Y-34966804D01*
X49039875Y-34776372D01*
X48912833Y-34606242D01*
X48780187Y-34483625D01*
X48761155Y-34466032D01*
X48761152Y-34466030D01*
X48756915Y-34462113D01*
X48577342Y-34348811D01*
X48543668Y-34335376D01*
X48439317Y-34293744D01*
X48380129Y-34270130D01*
X48374461Y-34269003D01*
X48374459Y-34269002D01*
X48204167Y-34235129D01*
X48141257Y-34202222D01*
X48106125Y-34140527D01*
X48109925Y-34069632D01*
X48151451Y-34012046D01*
X48210666Y-33986855D01*
X48321455Y-33970791D01*
X48326919Y-33968936D01*
X48326924Y-33968935D01*
X48517048Y-33904396D01*
X48522516Y-33902540D01*
X48707772Y-33798792D01*
X48717139Y-33791002D01*
X48866582Y-33666711D01*
X48871020Y-33663020D01*
X49006792Y-33499772D01*
X49110540Y-33314516D01*
X49154498Y-33185020D01*
X49176935Y-33118924D01*
X49176936Y-33118919D01*
X49178791Y-33113455D01*
X49179619Y-33107746D01*
X49179620Y-33107741D01*
X49203256Y-32944724D01*
X49209259Y-32903323D01*
X49210849Y-32842600D01*
X49191421Y-32631161D01*
X49133786Y-32426804D01*
X49039875Y-32236372D01*
X48912833Y-32066242D01*
X48780187Y-31943625D01*
X48761155Y-31926032D01*
X48761152Y-31926030D01*
X48756915Y-31922113D01*
X48577342Y-31808811D01*
X48543668Y-31795376D01*
X48439317Y-31753744D01*
X48380129Y-31730130D01*
X48374461Y-31729003D01*
X48374459Y-31729002D01*
X48204167Y-31695129D01*
X48141257Y-31662222D01*
X48106125Y-31600527D01*
X48109925Y-31529632D01*
X48151451Y-31472046D01*
X48210666Y-31446855D01*
X48321455Y-31430791D01*
X48326919Y-31428936D01*
X48326924Y-31428935D01*
X48517048Y-31364396D01*
X48522516Y-31362540D01*
X48707772Y-31258792D01*
X48717139Y-31251002D01*
X48866582Y-31126711D01*
X48871020Y-31123020D01*
X49006792Y-30959772D01*
X49110540Y-30774516D01*
X49154498Y-30645020D01*
X49176935Y-30578924D01*
X49176936Y-30578919D01*
X49178791Y-30573455D01*
X49179619Y-30567746D01*
X49179620Y-30567741D01*
X49203256Y-30404724D01*
X49209259Y-30363323D01*
X49210849Y-30302600D01*
X49191421Y-30091161D01*
X49133786Y-29886804D01*
X49039875Y-29696372D01*
X48912833Y-29526242D01*
X48780187Y-29403625D01*
X48761155Y-29386032D01*
X48761152Y-29386030D01*
X48756915Y-29382113D01*
X48577342Y-29268811D01*
X48543668Y-29255376D01*
X48439317Y-29213744D01*
X48380129Y-29190130D01*
X48374461Y-29189003D01*
X48374459Y-29189002D01*
X48204167Y-29155129D01*
X48141257Y-29122222D01*
X48106125Y-29060527D01*
X48109925Y-28989632D01*
X48151451Y-28932046D01*
X48210666Y-28906855D01*
X48321455Y-28890791D01*
X48326919Y-28888936D01*
X48326924Y-28888935D01*
X48517048Y-28824396D01*
X48522516Y-28822540D01*
X48707772Y-28718792D01*
X48717139Y-28711002D01*
X48866582Y-28586711D01*
X48871020Y-28583020D01*
X49006792Y-28419772D01*
X49110540Y-28234516D01*
X49154498Y-28105020D01*
X49176935Y-28038924D01*
X49176936Y-28038919D01*
X49178791Y-28033455D01*
X49179619Y-28027746D01*
X49179620Y-28027741D01*
X49203256Y-27864724D01*
X49209259Y-27823323D01*
X49210849Y-27762600D01*
X49191421Y-27551161D01*
X49133786Y-27346804D01*
X49039875Y-27156372D01*
X48912833Y-26986242D01*
X48780187Y-26863625D01*
X48761155Y-26846032D01*
X48761152Y-26846030D01*
X48756915Y-26842113D01*
X48577342Y-26728811D01*
X48543668Y-26715376D01*
X48439317Y-26673744D01*
X48380129Y-26650130D01*
X48374461Y-26649003D01*
X48374459Y-26649002D01*
X48204167Y-26615129D01*
X48141257Y-26582222D01*
X48106125Y-26520527D01*
X48109925Y-26449632D01*
X48151451Y-26392046D01*
X48210666Y-26366855D01*
X48321455Y-26350791D01*
X48326919Y-26348936D01*
X48326924Y-26348935D01*
X48517048Y-26284396D01*
X48522516Y-26282540D01*
X48707772Y-26178792D01*
X48717139Y-26171002D01*
X48866582Y-26046711D01*
X48871020Y-26043020D01*
X49006792Y-25879772D01*
X49110540Y-25694516D01*
X49154498Y-25565020D01*
X49176935Y-25498924D01*
X49176936Y-25498919D01*
X49178791Y-25493455D01*
X49179619Y-25487746D01*
X49179620Y-25487741D01*
X49203256Y-25324724D01*
X49209259Y-25283323D01*
X49210849Y-25222600D01*
X49191421Y-25011161D01*
X49133786Y-24806804D01*
X49039875Y-24616372D01*
X48912833Y-24446242D01*
X48780187Y-24323625D01*
X48761155Y-24306032D01*
X48761152Y-24306030D01*
X48756915Y-24302113D01*
X48577342Y-24188811D01*
X48543668Y-24175376D01*
X48439317Y-24133744D01*
X48380129Y-24110130D01*
X48374461Y-24109003D01*
X48374459Y-24109002D01*
X48204167Y-24075129D01*
X48141257Y-24042222D01*
X48106125Y-23980527D01*
X48109925Y-23909632D01*
X48151451Y-23852046D01*
X48210666Y-23826855D01*
X48321455Y-23810791D01*
X48326919Y-23808936D01*
X48326924Y-23808935D01*
X48517048Y-23744396D01*
X48522516Y-23742540D01*
X48707772Y-23638792D01*
X48717139Y-23631002D01*
X48866582Y-23506711D01*
X48871020Y-23503020D01*
X49006792Y-23339772D01*
X49110540Y-23154516D01*
X49154498Y-23025020D01*
X49176935Y-22958924D01*
X49176936Y-22958919D01*
X49178791Y-22953455D01*
X49179619Y-22947746D01*
X49179620Y-22947741D01*
X49203256Y-22784724D01*
X49209259Y-22743323D01*
X49210849Y-22682600D01*
X49191421Y-22471161D01*
X49133786Y-22266804D01*
X49039875Y-22076372D01*
X48912833Y-21906242D01*
X48780187Y-21783625D01*
X48761155Y-21766032D01*
X48761152Y-21766030D01*
X48756915Y-21762113D01*
X48577342Y-21648811D01*
X48543668Y-21635376D01*
X48439317Y-21593744D01*
X48380129Y-21570130D01*
X48374461Y-21569003D01*
X48374459Y-21569002D01*
X48266253Y-21547479D01*
X48203343Y-21514572D01*
X48168211Y-21452877D01*
X48172011Y-21381982D01*
X48213536Y-21324396D01*
X48279603Y-21298402D01*
X48290834Y-21297900D01*
X48945958Y-21297900D01*
X48956852Y-21296604D01*
X48963193Y-21295850D01*
X48963196Y-21295849D01*
X48972578Y-21294733D01*
X49076519Y-21248564D01*
X49116598Y-21208414D01*
X49148652Y-21176305D01*
X49148653Y-21176303D01*
X49156870Y-21168072D01*
X49162483Y-21155377D01*
X49199027Y-21072716D01*
X49202858Y-21064051D01*
X49205900Y-21037958D01*
X49205900Y-19247242D01*
X49204604Y-19236348D01*
X49203850Y-19230007D01*
X49203849Y-19230004D01*
X49202733Y-19220622D01*
X49156564Y-19116681D01*
X49093517Y-19053744D01*
X49084305Y-19044548D01*
X49084303Y-19044547D01*
X49076072Y-19036330D01*
X48972051Y-18990342D01*
X48945958Y-18987300D01*
X47155242Y-18987300D01*
X47144348Y-18988596D01*
X47138007Y-18989350D01*
X47138004Y-18989351D01*
X47128622Y-18990467D01*
X47024681Y-19036636D01*
X47007603Y-19053744D01*
X46952548Y-19108895D01*
X46952547Y-19108897D01*
X46944330Y-19117128D01*
X46898342Y-19221149D01*
X46895300Y-19247242D01*
X46895300Y-21037958D01*
X46896486Y-21047928D01*
X46897285Y-21054640D01*
X46898467Y-21064578D01*
X46907931Y-21085885D01*
X46938799Y-21155377D01*
X46944636Y-21168519D01*
X46984786Y-21208598D01*
X47016895Y-21240652D01*
X47016897Y-21240653D01*
X47025128Y-21248870D01*
X47129149Y-21294858D01*
X47155242Y-21297900D01*
X47809313Y-21297900D01*
X47877434Y-21317902D01*
X47923927Y-21371558D01*
X47934031Y-21441832D01*
X47904537Y-21506412D01*
X47844811Y-21544796D01*
X47830651Y-21548080D01*
X47755995Y-21560908D01*
X47755992Y-21560909D01*
X47750305Y-21561886D01*
X47551100Y-21635376D01*
X47368623Y-21743939D01*
X47208985Y-21883937D01*
X47205418Y-21888462D01*
X47205413Y-21888467D01*
X47081107Y-22046149D01*
X47077533Y-22050683D01*
X47074845Y-22055792D01*
X46981359Y-22233480D01*
X46981357Y-22233485D01*
X46978670Y-22238592D01*
X46915705Y-22441371D01*
X46890749Y-22652228D01*
X46904636Y-22864103D01*
X46956901Y-23069899D01*
X47045795Y-23262724D01*
X47168340Y-23436121D01*
X47320432Y-23584283D01*
X47325228Y-23587488D01*
X47325231Y-23587490D01*
X47396486Y-23635101D01*
X47496977Y-23702247D01*
X47502285Y-23704528D01*
X47502286Y-23704528D01*
X47686760Y-23783784D01*
X47686763Y-23783785D01*
X47692063Y-23786062D01*
X47697692Y-23787336D01*
X47697693Y-23787336D01*
X47892687Y-23831459D01*
X47954714Y-23866002D01*
X47988218Y-23928596D01*
X47982564Y-23999367D01*
X47939545Y-24055846D01*
X47886217Y-24078532D01*
X47755995Y-24100908D01*
X47755992Y-24100909D01*
X47750305Y-24101886D01*
X47551100Y-24175376D01*
X47368623Y-24283939D01*
X47208985Y-24423937D01*
X47205418Y-24428462D01*
X47205413Y-24428467D01*
X47081107Y-24586149D01*
X47077533Y-24590683D01*
X47074845Y-24595792D01*
X46981359Y-24773480D01*
X46981357Y-24773485D01*
X46978670Y-24778592D01*
X46915705Y-24981371D01*
X46890749Y-25192228D01*
X46904636Y-25404103D01*
X46956901Y-25609899D01*
X47045795Y-25802724D01*
X47168340Y-25976121D01*
X47320432Y-26124283D01*
X47325228Y-26127488D01*
X47325231Y-26127490D01*
X47396486Y-26175101D01*
X47496977Y-26242247D01*
X47502285Y-26244528D01*
X47502286Y-26244528D01*
X47686760Y-26323784D01*
X47686763Y-26323785D01*
X47692063Y-26326062D01*
X47697692Y-26327336D01*
X47697693Y-26327336D01*
X47892687Y-26371459D01*
X47954714Y-26406002D01*
X47988218Y-26468596D01*
X47982564Y-26539367D01*
X47939545Y-26595846D01*
X47886217Y-26618532D01*
X47755995Y-26640908D01*
X47755992Y-26640909D01*
X47750305Y-26641886D01*
X47551100Y-26715376D01*
X47368623Y-26823939D01*
X47208985Y-26963937D01*
X47205418Y-26968462D01*
X47205413Y-26968467D01*
X47081107Y-27126149D01*
X47077533Y-27130683D01*
X47074845Y-27135792D01*
X46981359Y-27313480D01*
X46981357Y-27313485D01*
X46978670Y-27318592D01*
X46915705Y-27521371D01*
X46890749Y-27732228D01*
X46904636Y-27944103D01*
X46956901Y-28149899D01*
X47045795Y-28342724D01*
X47168340Y-28516121D01*
X47320432Y-28664283D01*
X47325228Y-28667488D01*
X47325231Y-28667490D01*
X47396486Y-28715101D01*
X47496977Y-28782247D01*
X47502285Y-28784528D01*
X47502286Y-28784528D01*
X47686760Y-28863784D01*
X47686763Y-28863785D01*
X47692063Y-28866062D01*
X47697692Y-28867336D01*
X47697693Y-28867336D01*
X47892687Y-28911459D01*
X47954714Y-28946002D01*
X47988218Y-29008596D01*
X47982564Y-29079367D01*
X47939545Y-29135846D01*
X47886217Y-29158532D01*
X47755995Y-29180908D01*
X47755992Y-29180909D01*
X47750305Y-29181886D01*
X47551100Y-29255376D01*
X47368623Y-29363939D01*
X47208985Y-29503937D01*
X47205418Y-29508462D01*
X47205413Y-29508467D01*
X47081107Y-29666149D01*
X47077533Y-29670683D01*
X47074845Y-29675792D01*
X46981359Y-29853480D01*
X46981357Y-29853485D01*
X46978670Y-29858592D01*
X46915705Y-30061371D01*
X46890749Y-30272228D01*
X46904636Y-30484103D01*
X46956901Y-30689899D01*
X47045795Y-30882724D01*
X47168340Y-31056121D01*
X47320432Y-31204283D01*
X47325228Y-31207488D01*
X47325231Y-31207490D01*
X47396486Y-31255101D01*
X47496977Y-31322247D01*
X47502285Y-31324528D01*
X47502286Y-31324528D01*
X47686760Y-31403784D01*
X47686763Y-31403785D01*
X47692063Y-31406062D01*
X47697692Y-31407336D01*
X47697693Y-31407336D01*
X47892687Y-31451459D01*
X47954714Y-31486002D01*
X47988218Y-31548596D01*
X47982564Y-31619367D01*
X47939545Y-31675846D01*
X47886217Y-31698532D01*
X47755995Y-31720908D01*
X47755992Y-31720909D01*
X47750305Y-31721886D01*
X47551100Y-31795376D01*
X47368623Y-31903939D01*
X47208985Y-32043937D01*
X47205418Y-32048462D01*
X47205413Y-32048467D01*
X47081107Y-32206149D01*
X47077533Y-32210683D01*
X47074845Y-32215792D01*
X46981359Y-32393480D01*
X46981357Y-32393485D01*
X46978670Y-32398592D01*
X46915705Y-32601371D01*
X46890749Y-32812228D01*
X46904636Y-33024103D01*
X46956901Y-33229899D01*
X47045795Y-33422724D01*
X47168340Y-33596121D01*
X47320432Y-33744283D01*
X47325228Y-33747488D01*
X47325231Y-33747490D01*
X47396486Y-33795101D01*
X47496977Y-33862247D01*
X47502285Y-33864528D01*
X47502286Y-33864528D01*
X47686760Y-33943784D01*
X47686763Y-33943785D01*
X47692063Y-33946062D01*
X47697692Y-33947336D01*
X47697693Y-33947336D01*
X47892687Y-33991459D01*
X47954714Y-34026002D01*
X47988218Y-34088596D01*
X47982564Y-34159367D01*
X47939545Y-34215846D01*
X47886217Y-34238532D01*
X47755995Y-34260908D01*
X47755992Y-34260909D01*
X47750305Y-34261886D01*
X47551100Y-34335376D01*
X47368623Y-34443939D01*
X47208985Y-34583937D01*
X47205418Y-34588462D01*
X47205413Y-34588467D01*
X47081107Y-34746149D01*
X47077533Y-34750683D01*
X47074845Y-34755792D01*
X46981359Y-34933480D01*
X46981357Y-34933485D01*
X46978670Y-34938592D01*
X46915705Y-35141371D01*
X46890749Y-35352228D01*
X46904636Y-35564103D01*
X46956901Y-35769899D01*
X47045795Y-35962724D01*
X47168340Y-36136121D01*
X47320432Y-36284283D01*
X47325228Y-36287488D01*
X47325231Y-36287490D01*
X47396486Y-36335101D01*
X47496977Y-36402247D01*
X47502285Y-36404528D01*
X47502286Y-36404528D01*
X47686760Y-36483784D01*
X47686763Y-36483785D01*
X47692063Y-36486062D01*
X47697692Y-36487336D01*
X47697693Y-36487336D01*
X47892687Y-36531459D01*
X47954714Y-36566002D01*
X47988218Y-36628596D01*
X47982564Y-36699367D01*
X47939545Y-36755846D01*
X47886217Y-36778532D01*
X47755995Y-36800908D01*
X47755992Y-36800909D01*
X47750305Y-36801886D01*
X47551100Y-36875376D01*
X47368623Y-36983939D01*
X47208985Y-37123937D01*
X47205418Y-37128462D01*
X47205413Y-37128467D01*
X47081107Y-37286149D01*
X47077533Y-37290683D01*
X47074845Y-37295792D01*
X46981359Y-37473480D01*
X46981357Y-37473485D01*
X46978670Y-37478592D01*
X46915705Y-37681371D01*
X46890749Y-37892228D01*
X46904636Y-38104103D01*
X46956901Y-38309899D01*
X47045795Y-38502724D01*
X47168340Y-38676121D01*
X47320432Y-38824283D01*
X47325228Y-38827488D01*
X47325231Y-38827490D01*
X47396486Y-38875101D01*
X47496977Y-38942247D01*
X47502285Y-38944528D01*
X47502286Y-38944528D01*
X47686760Y-39023784D01*
X47686763Y-39023785D01*
X47692063Y-39026062D01*
X47697692Y-39027336D01*
X47697693Y-39027336D01*
X47892687Y-39071459D01*
X47954714Y-39106002D01*
X47988218Y-39168596D01*
X47982564Y-39239367D01*
X47939545Y-39295846D01*
X47886217Y-39318532D01*
X47755995Y-39340908D01*
X47755992Y-39340909D01*
X47750305Y-39341886D01*
X47551100Y-39415376D01*
X47368623Y-39523939D01*
X47208985Y-39663937D01*
X47205418Y-39668462D01*
X47205413Y-39668467D01*
X47081107Y-39826149D01*
X47077533Y-39830683D01*
X47074845Y-39835792D01*
X46981359Y-40013480D01*
X46981357Y-40013485D01*
X46978670Y-40018592D01*
X46915705Y-40221371D01*
X46890749Y-40432228D01*
X46904636Y-40644103D01*
X46956901Y-40849899D01*
X47045795Y-41042724D01*
X47168340Y-41216121D01*
X47320432Y-41364283D01*
X47325228Y-41367488D01*
X47325231Y-41367490D01*
X47396486Y-41415101D01*
X47496977Y-41482247D01*
X47502285Y-41484528D01*
X47502286Y-41484528D01*
X47686760Y-41563784D01*
X47686763Y-41563785D01*
X47692063Y-41566062D01*
X47697692Y-41567336D01*
X47697693Y-41567336D01*
X47892687Y-41611459D01*
X47954714Y-41646002D01*
X47988218Y-41708596D01*
X47982564Y-41779367D01*
X47939545Y-41835846D01*
X47886217Y-41858532D01*
X47755995Y-41880908D01*
X47755992Y-41880909D01*
X47750305Y-41881886D01*
X47551100Y-41955376D01*
X47368623Y-42063939D01*
X47208985Y-42203937D01*
X47205418Y-42208462D01*
X47205413Y-42208467D01*
X47081107Y-42366149D01*
X47077533Y-42370683D01*
X47074845Y-42375792D01*
X46981359Y-42553480D01*
X46981357Y-42553485D01*
X46978670Y-42558592D01*
X46915705Y-42761371D01*
X46890749Y-42972228D01*
X46904636Y-43184103D01*
X46956901Y-43389899D01*
X47045795Y-43582724D01*
X47168340Y-43756121D01*
X47320432Y-43904283D01*
X47325228Y-43907488D01*
X47325231Y-43907490D01*
X47335926Y-43914636D01*
X47496977Y-44022247D01*
X47502280Y-44024526D01*
X47502285Y-44024528D01*
X47529893Y-44036389D01*
X47550462Y-44045226D01*
X47605154Y-44090492D01*
X47626692Y-44158143D01*
X47608235Y-44226699D01*
X47555645Y-44274394D01*
X47539871Y-44280757D01*
X47527473Y-44284810D01*
X47517959Y-44288809D01*
X47329063Y-44387142D01*
X47320338Y-44392636D01*
X47150033Y-44520505D01*
X47142326Y-44527348D01*
X46995190Y-44681317D01*
X46988704Y-44689327D01*
X46868698Y-44865249D01*
X46863600Y-44874223D01*
X46773938Y-45067383D01*
X46770375Y-45077070D01*
X46714989Y-45276783D01*
X10304800Y-45276783D01*
X10304800Y-44798783D01*
X19396989Y-44798783D01*
X19398512Y-44807207D01*
X19410892Y-44810600D01*
X22050944Y-44810600D01*
X22064475Y-44806627D01*
X22065780Y-44797547D01*
X22023814Y-44630475D01*
X22020494Y-44620724D01*
X21935572Y-44425414D01*
X21930705Y-44416339D01*
X21815026Y-44237526D01*
X21808736Y-44229357D01*
X21665406Y-44071840D01*
X21657873Y-44064815D01*
X21490739Y-43932822D01*
X21482152Y-43927117D01*
X21295717Y-43824199D01*
X21286304Y-43819968D01*
X21240797Y-43803853D01*
X21183260Y-43762258D01*
X21157345Y-43696160D01*
X21171279Y-43626545D01*
X21221290Y-43575146D01*
X21389772Y-43480792D01*
X21553020Y-43345020D01*
X21688792Y-43181772D01*
X21792540Y-42996516D01*
X21860791Y-42795455D01*
X21861619Y-42789746D01*
X21861620Y-42789741D01*
X21890726Y-42588997D01*
X21891259Y-42585323D01*
X21892849Y-42524600D01*
X21873421Y-42313161D01*
X21815786Y-42108804D01*
X21721875Y-41918372D01*
X21594833Y-41748242D01*
X21469133Y-41632046D01*
X21443155Y-41608032D01*
X21443152Y-41608030D01*
X21438915Y-41604113D01*
X21259342Y-41490811D01*
X21237877Y-41482247D01*
X21198696Y-41466615D01*
X21062129Y-41412130D01*
X21056461Y-41411003D01*
X21056459Y-41411002D01*
X20886167Y-41377129D01*
X20823257Y-41344222D01*
X20788125Y-41282527D01*
X20791925Y-41211632D01*
X20833451Y-41154046D01*
X20892666Y-41128855D01*
X21003455Y-41112791D01*
X21008919Y-41110936D01*
X21008924Y-41110935D01*
X21199048Y-41046396D01*
X21204516Y-41044540D01*
X21389772Y-40940792D01*
X21553020Y-40805020D01*
X21688792Y-40641772D01*
X21792540Y-40456516D01*
X21860791Y-40255455D01*
X21861619Y-40249746D01*
X21861620Y-40249741D01*
X21890726Y-40048997D01*
X21891259Y-40045323D01*
X21892849Y-39984600D01*
X21873421Y-39773161D01*
X21815786Y-39568804D01*
X21721875Y-39378372D01*
X21594833Y-39208242D01*
X21469133Y-39092046D01*
X21443155Y-39068032D01*
X21443152Y-39068030D01*
X21438915Y-39064113D01*
X21259342Y-38950811D01*
X21237877Y-38942247D01*
X21198696Y-38926615D01*
X21062129Y-38872130D01*
X21056461Y-38871003D01*
X21056459Y-38871002D01*
X20886167Y-38837129D01*
X20823257Y-38804222D01*
X20788125Y-38742527D01*
X20791925Y-38671632D01*
X20833451Y-38614046D01*
X20892666Y-38588855D01*
X21003455Y-38572791D01*
X21008919Y-38570936D01*
X21008924Y-38570935D01*
X21199048Y-38506396D01*
X21204516Y-38504540D01*
X21389772Y-38400792D01*
X21553020Y-38265020D01*
X21688792Y-38101772D01*
X21792540Y-37916516D01*
X21860791Y-37715455D01*
X21861619Y-37709746D01*
X21861620Y-37709741D01*
X21890726Y-37508997D01*
X21891259Y-37505323D01*
X21892849Y-37444600D01*
X21873421Y-37233161D01*
X21815786Y-37028804D01*
X21721875Y-36838372D01*
X21594833Y-36668242D01*
X21469133Y-36552046D01*
X21443155Y-36528032D01*
X21443152Y-36528030D01*
X21438915Y-36524113D01*
X21259342Y-36410811D01*
X21237877Y-36402247D01*
X21198696Y-36386615D01*
X21062129Y-36332130D01*
X21056461Y-36331003D01*
X21056459Y-36331002D01*
X20886167Y-36297129D01*
X20823257Y-36264222D01*
X20788125Y-36202527D01*
X20791925Y-36131632D01*
X20833451Y-36074046D01*
X20892666Y-36048855D01*
X21003455Y-36032791D01*
X21008919Y-36030936D01*
X21008924Y-36030935D01*
X21199048Y-35966396D01*
X21204516Y-35964540D01*
X21389772Y-35860792D01*
X21553020Y-35725020D01*
X21688792Y-35561772D01*
X21792540Y-35376516D01*
X21860791Y-35175455D01*
X21861619Y-35169746D01*
X21861620Y-35169741D01*
X21890726Y-34968997D01*
X21891259Y-34965323D01*
X21892849Y-34904600D01*
X21873421Y-34693161D01*
X21815786Y-34488804D01*
X21721875Y-34298372D01*
X21594833Y-34128242D01*
X21469133Y-34012046D01*
X21443155Y-33988032D01*
X21443152Y-33988030D01*
X21438915Y-33984113D01*
X21259342Y-33870811D01*
X21237877Y-33862247D01*
X21198696Y-33846615D01*
X21062129Y-33792130D01*
X21056461Y-33791003D01*
X21056459Y-33791002D01*
X20886167Y-33757129D01*
X20823257Y-33724222D01*
X20788125Y-33662527D01*
X20791925Y-33591632D01*
X20833451Y-33534046D01*
X20892666Y-33508855D01*
X21003455Y-33492791D01*
X21008919Y-33490936D01*
X21008924Y-33490935D01*
X21199048Y-33426396D01*
X21204516Y-33424540D01*
X21389772Y-33320792D01*
X21553020Y-33185020D01*
X21688792Y-33021772D01*
X21792540Y-32836516D01*
X21860791Y-32635455D01*
X21861619Y-32629746D01*
X21861620Y-32629741D01*
X21890726Y-32428997D01*
X21891259Y-32425323D01*
X21892849Y-32364600D01*
X21873421Y-32153161D01*
X21815786Y-31948804D01*
X21721875Y-31758372D01*
X21594833Y-31588242D01*
X21469133Y-31472046D01*
X21443155Y-31448032D01*
X21443152Y-31448030D01*
X21438915Y-31444113D01*
X21259342Y-31330811D01*
X21237877Y-31322247D01*
X21198696Y-31306615D01*
X21062129Y-31252130D01*
X21056461Y-31251003D01*
X21056459Y-31251002D01*
X20886167Y-31217129D01*
X20823257Y-31184222D01*
X20788125Y-31122527D01*
X20791925Y-31051632D01*
X20833451Y-30994046D01*
X20892666Y-30968855D01*
X21003455Y-30952791D01*
X21008919Y-30950936D01*
X21008924Y-30950935D01*
X21199048Y-30886396D01*
X21204516Y-30884540D01*
X21389772Y-30780792D01*
X21553020Y-30645020D01*
X21688792Y-30481772D01*
X21792540Y-30296516D01*
X21860791Y-30095455D01*
X21861619Y-30089746D01*
X21861620Y-30089741D01*
X21890726Y-29888997D01*
X21891259Y-29885323D01*
X21892849Y-29824600D01*
X21873421Y-29613161D01*
X21815786Y-29408804D01*
X21721875Y-29218372D01*
X21594833Y-29048242D01*
X21469133Y-28932046D01*
X21443155Y-28908032D01*
X21443152Y-28908030D01*
X21438915Y-28904113D01*
X21259342Y-28790811D01*
X21237877Y-28782247D01*
X21198696Y-28766615D01*
X21062129Y-28712130D01*
X21056461Y-28711003D01*
X21056459Y-28711002D01*
X20886167Y-28677129D01*
X20823257Y-28644222D01*
X20788125Y-28582527D01*
X20791925Y-28511632D01*
X20833451Y-28454046D01*
X20892666Y-28428855D01*
X21003455Y-28412791D01*
X21008919Y-28410936D01*
X21008924Y-28410935D01*
X21199048Y-28346396D01*
X21204516Y-28344540D01*
X21389772Y-28240792D01*
X21553020Y-28105020D01*
X21688792Y-27941772D01*
X21792540Y-27756516D01*
X21860791Y-27555455D01*
X21861619Y-27549746D01*
X21861620Y-27549741D01*
X21890726Y-27348997D01*
X21891259Y-27345323D01*
X21892849Y-27284600D01*
X21873421Y-27073161D01*
X21815786Y-26868804D01*
X21721875Y-26678372D01*
X21594833Y-26508242D01*
X21469133Y-26392046D01*
X21443155Y-26368032D01*
X21443152Y-26368030D01*
X21438915Y-26364113D01*
X21259342Y-26250811D01*
X21237877Y-26242247D01*
X21198696Y-26226615D01*
X21062129Y-26172130D01*
X21056461Y-26171003D01*
X21056459Y-26171002D01*
X20886167Y-26137129D01*
X20823257Y-26104222D01*
X20788125Y-26042527D01*
X20791925Y-25971632D01*
X20833451Y-25914046D01*
X20892666Y-25888855D01*
X21003455Y-25872791D01*
X21008919Y-25870936D01*
X21008924Y-25870935D01*
X21199048Y-25806396D01*
X21204516Y-25804540D01*
X21389772Y-25700792D01*
X21553020Y-25565020D01*
X21688792Y-25401772D01*
X21792540Y-25216516D01*
X21860791Y-25015455D01*
X21861619Y-25009746D01*
X21861620Y-25009741D01*
X21890726Y-24808997D01*
X21891259Y-24805323D01*
X21892849Y-24744600D01*
X21873421Y-24533161D01*
X21815786Y-24328804D01*
X21721875Y-24138372D01*
X21594833Y-23968242D01*
X21469133Y-23852046D01*
X21443155Y-23828032D01*
X21443152Y-23828030D01*
X21438915Y-23824113D01*
X21259342Y-23710811D01*
X21237877Y-23702247D01*
X21198696Y-23686615D01*
X21062129Y-23632130D01*
X21056461Y-23631003D01*
X21056459Y-23631002D01*
X20886167Y-23597129D01*
X20823257Y-23564222D01*
X20788125Y-23502527D01*
X20791925Y-23431632D01*
X20833451Y-23374046D01*
X20892666Y-23348855D01*
X21003455Y-23332791D01*
X21008919Y-23330936D01*
X21008924Y-23330935D01*
X21199048Y-23266396D01*
X21204516Y-23264540D01*
X21389772Y-23160792D01*
X21553020Y-23025020D01*
X21688792Y-22861772D01*
X21792540Y-22676516D01*
X21860791Y-22475455D01*
X21861619Y-22469746D01*
X21861620Y-22469741D01*
X21890726Y-22268997D01*
X21891259Y-22265323D01*
X21892849Y-22204600D01*
X21873421Y-21993161D01*
X21815786Y-21788804D01*
X21721875Y-21598372D01*
X21594833Y-21428242D01*
X21438915Y-21284113D01*
X21259342Y-21170811D01*
X21253598Y-21168519D01*
X21198696Y-21146615D01*
X21062129Y-21092130D01*
X21056461Y-21091003D01*
X21056459Y-21091002D01*
X20886167Y-21057129D01*
X20823257Y-21024222D01*
X20788125Y-20962527D01*
X20791925Y-20891632D01*
X20833451Y-20834046D01*
X20892666Y-20808855D01*
X21003455Y-20792791D01*
X21008919Y-20790936D01*
X21008924Y-20790935D01*
X21199048Y-20726396D01*
X21204516Y-20724540D01*
X21389772Y-20620792D01*
X21553020Y-20485020D01*
X21688792Y-20321772D01*
X21792540Y-20136516D01*
X21860791Y-19935455D01*
X21861619Y-19929746D01*
X21861620Y-19929741D01*
X21890726Y-19728997D01*
X21891259Y-19725323D01*
X21892849Y-19664600D01*
X21873421Y-19453161D01*
X21815786Y-19248804D01*
X21721875Y-19058372D01*
X21594833Y-18888242D01*
X21438915Y-18744113D01*
X21259342Y-18630811D01*
X21225668Y-18617376D01*
X21198696Y-18606615D01*
X21062129Y-18552130D01*
X21056461Y-18551003D01*
X21056459Y-18551002D01*
X20859546Y-18511834D01*
X20859544Y-18511834D01*
X20853879Y-18510707D01*
X20848104Y-18510631D01*
X20848100Y-18510631D01*
X20741883Y-18509241D01*
X20641568Y-18507928D01*
X20635871Y-18508907D01*
X20635870Y-18508907D01*
X20437995Y-18542908D01*
X20437992Y-18542909D01*
X20432305Y-18543886D01*
X20233100Y-18617376D01*
X20050623Y-18725939D01*
X19890985Y-18865937D01*
X19887418Y-18870462D01*
X19887413Y-18870467D01*
X19763107Y-19028149D01*
X19759533Y-19032683D01*
X19756845Y-19037792D01*
X19663359Y-19215480D01*
X19663357Y-19215485D01*
X19660670Y-19220592D01*
X19597705Y-19423371D01*
X19572749Y-19634228D01*
X19586636Y-19846103D01*
X19638901Y-20051899D01*
X19727795Y-20244724D01*
X19850340Y-20418121D01*
X20002432Y-20566283D01*
X20007228Y-20569488D01*
X20007231Y-20569490D01*
X20078486Y-20617101D01*
X20178977Y-20684247D01*
X20184285Y-20686528D01*
X20184286Y-20686528D01*
X20368760Y-20765784D01*
X20368763Y-20765785D01*
X20374063Y-20768062D01*
X20379692Y-20769336D01*
X20379693Y-20769336D01*
X20574687Y-20813459D01*
X20636714Y-20848002D01*
X20670218Y-20910596D01*
X20664564Y-20981367D01*
X20621545Y-21037846D01*
X20568217Y-21060532D01*
X20437995Y-21082908D01*
X20437992Y-21082909D01*
X20432305Y-21083886D01*
X20233100Y-21157376D01*
X20200554Y-21176739D01*
X20071407Y-21253574D01*
X20050623Y-21265939D01*
X19890985Y-21405937D01*
X19887418Y-21410462D01*
X19887413Y-21410467D01*
X19763107Y-21568149D01*
X19759533Y-21572683D01*
X19756845Y-21577792D01*
X19663359Y-21755480D01*
X19663357Y-21755485D01*
X19660670Y-21760592D01*
X19597705Y-21963371D01*
X19572749Y-22174228D01*
X19586636Y-22386103D01*
X19638901Y-22591899D01*
X19727795Y-22784724D01*
X19850340Y-22958121D01*
X20002432Y-23106283D01*
X20007228Y-23109488D01*
X20007231Y-23109490D01*
X20078486Y-23157101D01*
X20178977Y-23224247D01*
X20184285Y-23226528D01*
X20184286Y-23226528D01*
X20368760Y-23305784D01*
X20368763Y-23305785D01*
X20374063Y-23308062D01*
X20379692Y-23309336D01*
X20379693Y-23309336D01*
X20574687Y-23353459D01*
X20636714Y-23388002D01*
X20670218Y-23450596D01*
X20664564Y-23521367D01*
X20621545Y-23577846D01*
X20568217Y-23600532D01*
X20437995Y-23622908D01*
X20437992Y-23622909D01*
X20432305Y-23623886D01*
X20233100Y-23697376D01*
X20050623Y-23805939D01*
X19890985Y-23945937D01*
X19887418Y-23950462D01*
X19887413Y-23950467D01*
X19763107Y-24108149D01*
X19759533Y-24112683D01*
X19756845Y-24117792D01*
X19663359Y-24295480D01*
X19663357Y-24295485D01*
X19660670Y-24300592D01*
X19597705Y-24503371D01*
X19572749Y-24714228D01*
X19586636Y-24926103D01*
X19638901Y-25131899D01*
X19727795Y-25324724D01*
X19850340Y-25498121D01*
X20002432Y-25646283D01*
X20007228Y-25649488D01*
X20007231Y-25649490D01*
X20078486Y-25697101D01*
X20178977Y-25764247D01*
X20184285Y-25766528D01*
X20184286Y-25766528D01*
X20368760Y-25845784D01*
X20368763Y-25845785D01*
X20374063Y-25848062D01*
X20379692Y-25849336D01*
X20379693Y-25849336D01*
X20574687Y-25893459D01*
X20636714Y-25928002D01*
X20670218Y-25990596D01*
X20664564Y-26061367D01*
X20621545Y-26117846D01*
X20568217Y-26140532D01*
X20437995Y-26162908D01*
X20437992Y-26162909D01*
X20432305Y-26163886D01*
X20233100Y-26237376D01*
X20050623Y-26345939D01*
X19890985Y-26485937D01*
X19887418Y-26490462D01*
X19887413Y-26490467D01*
X19763107Y-26648149D01*
X19759533Y-26652683D01*
X19756845Y-26657792D01*
X19663359Y-26835480D01*
X19663357Y-26835485D01*
X19660670Y-26840592D01*
X19597705Y-27043371D01*
X19572749Y-27254228D01*
X19586636Y-27466103D01*
X19638901Y-27671899D01*
X19727795Y-27864724D01*
X19850340Y-28038121D01*
X20002432Y-28186283D01*
X20007228Y-28189488D01*
X20007231Y-28189490D01*
X20078486Y-28237101D01*
X20178977Y-28304247D01*
X20184285Y-28306528D01*
X20184286Y-28306528D01*
X20368760Y-28385784D01*
X20368763Y-28385785D01*
X20374063Y-28388062D01*
X20379692Y-28389336D01*
X20379693Y-28389336D01*
X20574687Y-28433459D01*
X20636714Y-28468002D01*
X20670218Y-28530596D01*
X20664564Y-28601367D01*
X20621545Y-28657846D01*
X20568217Y-28680532D01*
X20437995Y-28702908D01*
X20437992Y-28702909D01*
X20432305Y-28703886D01*
X20233100Y-28777376D01*
X20050623Y-28885939D01*
X19890985Y-29025937D01*
X19887418Y-29030462D01*
X19887413Y-29030467D01*
X19763107Y-29188149D01*
X19759533Y-29192683D01*
X19756845Y-29197792D01*
X19663359Y-29375480D01*
X19663357Y-29375485D01*
X19660670Y-29380592D01*
X19597705Y-29583371D01*
X19572749Y-29794228D01*
X19586636Y-30006103D01*
X19638901Y-30211899D01*
X19727795Y-30404724D01*
X19850340Y-30578121D01*
X20002432Y-30726283D01*
X20007228Y-30729488D01*
X20007231Y-30729490D01*
X20078486Y-30777101D01*
X20178977Y-30844247D01*
X20184285Y-30846528D01*
X20184286Y-30846528D01*
X20368760Y-30925784D01*
X20368763Y-30925785D01*
X20374063Y-30928062D01*
X20379692Y-30929336D01*
X20379693Y-30929336D01*
X20574687Y-30973459D01*
X20636714Y-31008002D01*
X20670218Y-31070596D01*
X20664564Y-31141367D01*
X20621545Y-31197846D01*
X20568217Y-31220532D01*
X20437995Y-31242908D01*
X20437992Y-31242909D01*
X20432305Y-31243886D01*
X20233100Y-31317376D01*
X20050623Y-31425939D01*
X19890985Y-31565937D01*
X19887418Y-31570462D01*
X19887413Y-31570467D01*
X19763107Y-31728149D01*
X19759533Y-31732683D01*
X19756845Y-31737792D01*
X19663359Y-31915480D01*
X19663357Y-31915485D01*
X19660670Y-31920592D01*
X19597705Y-32123371D01*
X19572749Y-32334228D01*
X19586636Y-32546103D01*
X19638901Y-32751899D01*
X19727795Y-32944724D01*
X19850340Y-33118121D01*
X20002432Y-33266283D01*
X20007228Y-33269488D01*
X20007231Y-33269490D01*
X20078486Y-33317101D01*
X20178977Y-33384247D01*
X20184285Y-33386528D01*
X20184286Y-33386528D01*
X20368760Y-33465784D01*
X20368763Y-33465785D01*
X20374063Y-33468062D01*
X20379692Y-33469336D01*
X20379693Y-33469336D01*
X20574687Y-33513459D01*
X20636714Y-33548002D01*
X20670218Y-33610596D01*
X20664564Y-33681367D01*
X20621545Y-33737846D01*
X20568217Y-33760532D01*
X20437995Y-33782908D01*
X20437992Y-33782909D01*
X20432305Y-33783886D01*
X20233100Y-33857376D01*
X20050623Y-33965939D01*
X19890985Y-34105937D01*
X19887418Y-34110462D01*
X19887413Y-34110467D01*
X19763107Y-34268149D01*
X19759533Y-34272683D01*
X19756845Y-34277792D01*
X19663359Y-34455480D01*
X19663357Y-34455485D01*
X19660670Y-34460592D01*
X19597705Y-34663371D01*
X19572749Y-34874228D01*
X19586636Y-35086103D01*
X19638901Y-35291899D01*
X19727795Y-35484724D01*
X19850340Y-35658121D01*
X20002432Y-35806283D01*
X20007228Y-35809488D01*
X20007231Y-35809490D01*
X20078486Y-35857101D01*
X20178977Y-35924247D01*
X20184285Y-35926528D01*
X20184286Y-35926528D01*
X20368760Y-36005784D01*
X20368763Y-36005785D01*
X20374063Y-36008062D01*
X20379692Y-36009336D01*
X20379693Y-36009336D01*
X20574687Y-36053459D01*
X20636714Y-36088002D01*
X20670218Y-36150596D01*
X20664564Y-36221367D01*
X20621545Y-36277846D01*
X20568217Y-36300532D01*
X20437995Y-36322908D01*
X20437992Y-36322909D01*
X20432305Y-36323886D01*
X20233100Y-36397376D01*
X20050623Y-36505939D01*
X19890985Y-36645937D01*
X19887418Y-36650462D01*
X19887413Y-36650467D01*
X19763107Y-36808149D01*
X19759533Y-36812683D01*
X19756845Y-36817792D01*
X19663359Y-36995480D01*
X19663357Y-36995485D01*
X19660670Y-37000592D01*
X19597705Y-37203371D01*
X19572749Y-37414228D01*
X19586636Y-37626103D01*
X19638901Y-37831899D01*
X19727795Y-38024724D01*
X19850340Y-38198121D01*
X20002432Y-38346283D01*
X20007228Y-38349488D01*
X20007231Y-38349490D01*
X20078486Y-38397101D01*
X20178977Y-38464247D01*
X20184285Y-38466528D01*
X20184286Y-38466528D01*
X20368760Y-38545784D01*
X20368763Y-38545785D01*
X20374063Y-38548062D01*
X20379692Y-38549336D01*
X20379693Y-38549336D01*
X20574687Y-38593459D01*
X20636714Y-38628002D01*
X20670218Y-38690596D01*
X20664564Y-38761367D01*
X20621545Y-38817846D01*
X20568217Y-38840532D01*
X20437995Y-38862908D01*
X20437992Y-38862909D01*
X20432305Y-38863886D01*
X20233100Y-38937376D01*
X20050623Y-39045939D01*
X19890985Y-39185937D01*
X19887418Y-39190462D01*
X19887413Y-39190467D01*
X19763107Y-39348149D01*
X19759533Y-39352683D01*
X19756845Y-39357792D01*
X19663359Y-39535480D01*
X19663357Y-39535485D01*
X19660670Y-39540592D01*
X19597705Y-39743371D01*
X19572749Y-39954228D01*
X19586636Y-40166103D01*
X19638901Y-40371899D01*
X19727795Y-40564724D01*
X19850340Y-40738121D01*
X20002432Y-40886283D01*
X20007228Y-40889488D01*
X20007231Y-40889490D01*
X20078486Y-40937101D01*
X20178977Y-41004247D01*
X20184285Y-41006528D01*
X20184286Y-41006528D01*
X20368760Y-41085784D01*
X20368763Y-41085785D01*
X20374063Y-41088062D01*
X20379692Y-41089336D01*
X20379693Y-41089336D01*
X20574687Y-41133459D01*
X20636714Y-41168002D01*
X20670218Y-41230596D01*
X20664564Y-41301367D01*
X20621545Y-41357846D01*
X20568217Y-41380532D01*
X20437995Y-41402908D01*
X20437992Y-41402909D01*
X20432305Y-41403886D01*
X20233100Y-41477376D01*
X20050623Y-41585939D01*
X19890985Y-41725937D01*
X19887418Y-41730462D01*
X19887413Y-41730467D01*
X19763107Y-41888149D01*
X19759533Y-41892683D01*
X19756845Y-41897792D01*
X19663359Y-42075480D01*
X19663357Y-42075485D01*
X19660670Y-42080592D01*
X19597705Y-42283371D01*
X19572749Y-42494228D01*
X19586636Y-42706103D01*
X19638901Y-42911899D01*
X19727795Y-43104724D01*
X19850340Y-43278121D01*
X20002432Y-43426283D01*
X20007228Y-43429488D01*
X20007231Y-43429490D01*
X20078486Y-43477101D01*
X20178977Y-43544247D01*
X20184280Y-43546526D01*
X20184285Y-43546528D01*
X20211893Y-43558389D01*
X20232462Y-43567226D01*
X20287154Y-43612492D01*
X20308692Y-43680143D01*
X20290235Y-43748699D01*
X20237645Y-43796394D01*
X20221871Y-43802757D01*
X20209473Y-43806810D01*
X20199959Y-43810809D01*
X20011063Y-43909142D01*
X20002338Y-43914636D01*
X19832033Y-44042505D01*
X19824326Y-44049348D01*
X19677190Y-44203317D01*
X19670704Y-44211327D01*
X19550698Y-44387249D01*
X19545600Y-44396223D01*
X19455938Y-44589383D01*
X19452375Y-44599070D01*
X19396989Y-44798783D01*
X10304800Y-44798783D01*
X10304800Y-14518062D01*
X10324802Y-14449941D01*
X10378458Y-14403448D01*
X10448732Y-14393344D01*
X10513312Y-14422838D01*
X10551696Y-14482564D01*
X10555249Y-14498350D01*
X10591081Y-14724588D01*
X10685496Y-15076948D01*
X10816225Y-15417508D01*
X10981836Y-15742538D01*
X11180514Y-16048476D01*
X11410084Y-16331971D01*
X11668029Y-16589916D01*
X11951524Y-16819486D01*
X12257462Y-17018164D01*
X12260396Y-17019659D01*
X12260403Y-17019663D01*
X12579552Y-17182277D01*
X12582492Y-17183775D01*
X12923052Y-17314504D01*
X13275412Y-17408919D01*
X13466987Y-17439261D01*
X13632462Y-17465470D01*
X13632470Y-17465471D01*
X13635710Y-17465984D01*
X14000000Y-17485076D01*
X14364290Y-17465984D01*
X14367530Y-17465471D01*
X14367538Y-17465470D01*
X14533013Y-17439261D01*
X14724588Y-17408919D01*
X15076948Y-17314504D01*
X15417508Y-17183775D01*
X15420448Y-17182277D01*
X15739597Y-17019663D01*
X15739604Y-17019659D01*
X15742538Y-17018164D01*
X16048476Y-16819486D01*
X16331971Y-16589916D01*
X16589916Y-16331971D01*
X16819486Y-16048476D01*
X17018164Y-15742538D01*
X17183775Y-15417508D01*
X17314504Y-15076948D01*
X17408919Y-14724588D01*
X17444751Y-14498351D01*
X17465470Y-14367538D01*
X17465471Y-14367530D01*
X17465984Y-14364290D01*
X17485076Y-14000000D01*
X17465984Y-13635710D01*
X17408919Y-13275412D01*
X17314504Y-12923052D01*
X17183775Y-12582492D01*
X17018164Y-12257462D01*
X16819486Y-11951524D01*
X16589916Y-11668029D01*
X16331971Y-11410084D01*
X16048476Y-11180514D01*
X15742538Y-10981836D01*
X15739604Y-10980341D01*
X15739597Y-10980337D01*
X15420448Y-10817723D01*
X15417508Y-10816225D01*
X15076948Y-10685496D01*
X14724588Y-10591081D01*
X14498351Y-10555249D01*
X14434198Y-10524837D01*
X14396671Y-10464569D01*
X14397685Y-10393579D01*
X14436918Y-10334407D01*
X14501913Y-10305839D01*
X14518062Y-10304800D01*
X54481938Y-10304800D01*
X54550059Y-10324802D01*
G37*
G04 #@! TD.AperFunction*
M02*
