%
M48
METRIC,000.000
T01C0.64
T02C0.80
T03C0.81
T04C1.00
T05C1.02
T06C3.18
%
T01
X019050Y025377
X019050Y018773
X019050Y004041
X020066Y029187
X020066Y023853
X020066Y005311
X021082Y026647
X022098Y031473
X022098Y014201
X027178Y025377
X027940Y029187
X028194Y016487
X028702Y027917
X029210Y030457
X029210Y019027
X030010Y022583
X030099Y033759
X031750Y014074
X070050Y025377
X070050Y018773
X070050Y004041
X071066Y029187
X071066Y023853
X071066Y005311
X072082Y026647
X073098Y031473
X073098Y014201
X078178Y025377
X078940Y029187
X079194Y016487
X079702Y027917
X080210Y030457
X080210Y019027
X081010Y022583
X081099Y033759
X082750Y014074
X019050Y076377
X019050Y069773
X019050Y055041
X020066Y080187
X020066Y074853
X020066Y056311
X021082Y077647
X022098Y082473
X022098Y065200
X027178Y076377
X027940Y080187
X028194Y067487
X028702Y078917
X029210Y081457
X029210Y070027
X030010Y073583
X030099Y084759
X031750Y065074
X070050Y076377
X070050Y069773
X070050Y055041
X071066Y080187
X071066Y074853
X071066Y056311
X072082Y077647
X073098Y082473
X073098Y065200
X078178Y076377
X078940Y080187
X079194Y067487
X079702Y078917
X080210Y081457
X080210Y070027
X081010Y073583
X081099Y084759
X082750Y065074
T02
X024384Y031727
X024384Y029187
X024384Y026647
X024384Y024107
X024384Y021567
X024384Y019027
X024384Y016487
X025654Y036045
X030653Y036045
X032003Y031727
X032003Y029187
X032003Y026647
X032003Y024107
X032003Y021567
X032003Y019027
X032003Y016487
X075384Y031727
X075384Y029187
X075384Y026647
X075384Y024107
X075384Y021567
X075384Y019027
X075384Y016487
X076654Y036045
X081653Y036045
X083004Y031727
X083004Y029187
X083004Y026647
X083004Y024107
X083004Y021567
X083004Y019027
X083004Y016487
X024384Y082727
X024384Y080187
X024384Y077647
X024384Y075107
X024384Y072567
X024384Y070027
X024384Y067487
X025654Y087045
X030653Y087045
X032003Y082727
X032003Y080187
X032003Y077647
X032003Y075107
X032003Y072567
X032003Y070027
X032003Y067487
X075384Y082727
X075384Y080187
X075384Y077647
X075384Y075107
X075384Y072567
X075384Y070027
X075384Y067487
X076654Y087045
X081653Y087045
X083004Y082727
X083004Y080187
X083004Y077647
X083004Y075107
X083004Y072567
X083004Y070027
X083004Y067487
T03
X022860Y038966
X033020Y038966
X073860Y038966
X084020Y038966
X022860Y089966
X033020Y089966
X073860Y089966
X084020Y089966
T04
X009967Y031473
X009967Y028933
X009967Y026393
X009967Y023853
X009967Y021313
X009967Y018773
X012507Y031473
X012507Y028933
X012507Y026393
X012507Y023853
X012507Y021313
X012507Y018773
X060967Y031473
X060967Y028933
X060967Y026393
X060967Y023853
X060967Y021313
X060967Y018773
X063507Y031473
X063507Y028933
X063507Y026393
X063507Y023853
X063507Y021313
X063507Y018773
X009967Y082473
X009967Y079933
X009967Y077393
X009967Y074853
X009967Y072313
X009967Y069773
X012507Y082473
X012507Y079933
X012507Y077393
X012507Y074853
X012507Y072313
X012507Y069773
X060967Y082473
X060967Y079933
X060967Y077393
X060967Y074853
X060967Y072313
X060967Y069773
X063507Y082473
X063507Y079933
X063507Y077393
X063507Y074853
X063507Y072313
X063507Y069773
T05
X023876Y006581
X023876Y004041
X026416Y006581
X026416Y004041
X028956Y006581
X028956Y004041
X038354Y037315
X038354Y034775
X038354Y032235
X038354Y029695
X038354Y027155
X038354Y020551
X038354Y018011
X038354Y015471
X038354Y012931
X038354Y010391
X074876Y006581
X074876Y004041
X077416Y006581
X077416Y004041
X079956Y006581
X079956Y004041
X089354Y037315
X089354Y034775
X089354Y032235
X089354Y029695
X089354Y027155
X089354Y020551
X089354Y018011
X089354Y015471
X089354Y012931
X089354Y010391
X023876Y057581
X023876Y055041
X026416Y057581
X026416Y055041
X028956Y057581
X028956Y055041
X038354Y088315
X038354Y085775
X038354Y083235
X038354Y080695
X038354Y078155
X038354Y071551
X038354Y069011
X038354Y066471
X038354Y063931
X038354Y061391
X074876Y057581
X074876Y055041
X077416Y057581
X077416Y055041
X079956Y057581
X079956Y055041
X089354Y088315
X089354Y085775
X089354Y083235
X089354Y080695
X089354Y078155
X089354Y071551
X089354Y069011
X089354Y066471
X089354Y063931
X089354Y061391
T06
X004001Y044998
X004001Y004000
X044999Y044998
X044999Y004000
X055001Y044998
X055001Y004000
X095999Y044998
X095999Y004000
X004001Y095998
X004001Y055000
X044999Y095998
X044999Y055000
X055001Y095998
X055001Y055000
X095999Y095998
X095999Y055000
M30