G04 (created by PCBNEW (2013-04-19 BZR 4011)-stable) date 03/07/2013 16:20:23*
%MOIN*%
G04 Gerber Fmt 3.4, Leading zero omitted, Abs format*
%FSLAX34Y34*%
G01*
G70*
G90*
G04 APERTURE LIST*
%ADD10C,2.3622e-006*%
%ADD11C,0.012*%
G04 APERTURE END LIST*
G54D10*
G54D11*
X19831Y-4959D02*
X19831Y-4409D01*
X19831Y-4933D02*
X19883Y-4959D01*
X19988Y-4959D01*
X20040Y-4933D01*
X20066Y-4907D01*
X20092Y-4854D01*
X20092Y-4697D01*
X20066Y-4645D01*
X20040Y-4619D01*
X19988Y-4592D01*
X19883Y-4592D01*
X19831Y-4619D01*
X19490Y-4959D02*
X19542Y-4933D01*
X19569Y-4907D01*
X19595Y-4854D01*
X19595Y-4697D01*
X19569Y-4645D01*
X19542Y-4619D01*
X19490Y-4592D01*
X19412Y-4592D01*
X19359Y-4619D01*
X19333Y-4645D01*
X19307Y-4697D01*
X19307Y-4854D01*
X19333Y-4907D01*
X19359Y-4933D01*
X19412Y-4959D01*
X19490Y-4959D01*
X18835Y-4592D02*
X18835Y-4959D01*
X19071Y-4592D02*
X19071Y-4881D01*
X19045Y-4933D01*
X18992Y-4959D01*
X18914Y-4959D01*
X18862Y-4933D01*
X18835Y-4907D01*
X18338Y-4592D02*
X18338Y-5038D01*
X18364Y-5090D01*
X18390Y-5116D01*
X18442Y-5142D01*
X18521Y-5142D01*
X18573Y-5116D01*
X18338Y-4933D02*
X18390Y-4959D01*
X18495Y-4959D01*
X18547Y-4933D01*
X18573Y-4907D01*
X18600Y-4854D01*
X18600Y-4697D01*
X18573Y-4645D01*
X18547Y-4619D01*
X18495Y-4592D01*
X18390Y-4592D01*
X18338Y-4619D01*
X18102Y-4933D02*
X18050Y-4959D01*
X17945Y-4959D01*
X17892Y-4933D01*
X17866Y-4881D01*
X17866Y-4854D01*
X17892Y-4802D01*
X17945Y-4776D01*
X18023Y-4776D01*
X18076Y-4750D01*
X18102Y-4697D01*
X18102Y-4671D01*
X18076Y-4619D01*
X18023Y-4592D01*
X17945Y-4592D01*
X17892Y-4619D01*
X17631Y-4592D02*
X17631Y-5142D01*
X17631Y-4619D02*
X17578Y-4592D01*
X17473Y-4592D01*
X17421Y-4619D01*
X17395Y-4645D01*
X17369Y-4697D01*
X17369Y-4854D01*
X17395Y-4907D01*
X17421Y-4933D01*
X17473Y-4959D01*
X17578Y-4959D01*
X17631Y-4933D01*
X16897Y-4933D02*
X16950Y-4959D01*
X17054Y-4959D01*
X17107Y-4933D01*
X17133Y-4907D01*
X17159Y-4854D01*
X17159Y-4697D01*
X17133Y-4645D01*
X17107Y-4619D01*
X17054Y-4592D01*
X16950Y-4592D01*
X16897Y-4619D01*
X16662Y-4959D02*
X16662Y-4409D01*
X16662Y-4619D02*
X16609Y-4592D01*
X16504Y-4592D01*
X16452Y-4619D01*
X16426Y-4645D01*
X16400Y-4697D01*
X16400Y-4854D01*
X16426Y-4907D01*
X16452Y-4933D01*
X16504Y-4959D01*
X16609Y-4959D01*
X16662Y-4933D01*
X15928Y-4959D02*
X15928Y-4409D01*
X15928Y-4933D02*
X15981Y-4959D01*
X16085Y-4959D01*
X16138Y-4933D01*
X16164Y-4907D01*
X16190Y-4854D01*
X16190Y-4697D01*
X16164Y-4645D01*
X16138Y-4619D01*
X16085Y-4592D01*
X15981Y-4592D01*
X15928Y-4619D01*
X15457Y-4933D02*
X15509Y-4959D01*
X15614Y-4959D01*
X15666Y-4933D01*
X15692Y-4881D01*
X15692Y-4671D01*
X15666Y-4619D01*
X15614Y-4592D01*
X15509Y-4592D01*
X15457Y-4619D01*
X15431Y-4671D01*
X15431Y-4723D01*
X15692Y-4776D01*
X15221Y-4933D02*
X15169Y-4959D01*
X15064Y-4959D01*
X15012Y-4933D01*
X14985Y-4881D01*
X14985Y-4854D01*
X15012Y-4802D01*
X15064Y-4776D01*
X15142Y-4776D01*
X15195Y-4750D01*
X15221Y-4697D01*
X15221Y-4671D01*
X15195Y-4619D01*
X15142Y-4592D01*
X15064Y-4592D01*
X15012Y-4619D01*
X14750Y-4959D02*
X14750Y-4592D01*
X14750Y-4409D02*
X14776Y-4435D01*
X14750Y-4462D01*
X14723Y-4435D01*
X14750Y-4409D01*
X14750Y-4462D01*
X14252Y-4592D02*
X14252Y-5038D01*
X14278Y-5090D01*
X14304Y-5116D01*
X14357Y-5142D01*
X14435Y-5142D01*
X14488Y-5116D01*
X14252Y-4933D02*
X14304Y-4959D01*
X14409Y-4959D01*
X14462Y-4933D01*
X14488Y-4907D01*
X14514Y-4854D01*
X14514Y-4697D01*
X14488Y-4645D01*
X14462Y-4619D01*
X14409Y-4592D01*
X14304Y-4592D01*
X14252Y-4619D01*
X13990Y-4592D02*
X13990Y-4959D01*
X13990Y-4645D02*
X13964Y-4619D01*
X13912Y-4592D01*
X13833Y-4592D01*
X13781Y-4619D01*
X13754Y-4671D01*
X13754Y-4959D01*
X13519Y-4933D02*
X13466Y-4959D01*
X13362Y-4959D01*
X13309Y-4933D01*
X13283Y-4881D01*
X13283Y-4854D01*
X13309Y-4802D01*
X13362Y-4776D01*
X13440Y-4776D01*
X13492Y-4750D01*
X13519Y-4697D01*
X13519Y-4671D01*
X13492Y-4619D01*
X13440Y-4592D01*
X13362Y-4592D01*
X13309Y-4619D01*
X13047Y-4907D02*
X13021Y-4933D01*
X13047Y-4959D01*
X13073Y-4933D01*
X13047Y-4907D01*
X13047Y-4959D01*
X12785Y-4592D02*
X12785Y-5142D01*
X12785Y-4619D02*
X12733Y-4592D01*
X12628Y-4592D01*
X12576Y-4619D01*
X12550Y-4645D01*
X12523Y-4697D01*
X12523Y-4854D01*
X12550Y-4907D01*
X12576Y-4933D01*
X12628Y-4959D01*
X12733Y-4959D01*
X12785Y-4933D01*
X12288Y-4959D02*
X12288Y-4409D01*
X12288Y-4619D02*
X12235Y-4592D01*
X12131Y-4592D01*
X12078Y-4619D01*
X12052Y-4645D01*
X12026Y-4697D01*
X12026Y-4854D01*
X12052Y-4907D01*
X12078Y-4933D01*
X12131Y-4959D01*
X12235Y-4959D01*
X12288Y-4933D01*
X11842Y-4592D02*
X11738Y-4959D01*
X11633Y-4697D01*
X11528Y-4959D01*
X11423Y-4592D01*
X11135Y-4959D02*
X11188Y-4933D01*
X11214Y-4907D01*
X11240Y-4854D01*
X11240Y-4697D01*
X11214Y-4645D01*
X11188Y-4619D01*
X11135Y-4592D01*
X11057Y-4592D01*
X11004Y-4619D01*
X10978Y-4645D01*
X10952Y-4697D01*
X10952Y-4854D01*
X10978Y-4907D01*
X11004Y-4933D01*
X11057Y-4959D01*
X11135Y-4959D01*
X10716Y-4959D02*
X10716Y-4592D01*
X10716Y-4697D02*
X10690Y-4645D01*
X10664Y-4619D01*
X10612Y-4592D01*
X10559Y-4592D01*
X10376Y-4959D02*
X10376Y-4409D01*
X10323Y-4750D02*
X10166Y-4959D01*
X10166Y-4592D02*
X10376Y-4802D01*
X9957Y-4933D02*
X9904Y-4959D01*
X9800Y-4959D01*
X9747Y-4933D01*
X9721Y-4881D01*
X9721Y-4854D01*
X9747Y-4802D01*
X9800Y-4776D01*
X9878Y-4776D01*
X9931Y-4750D01*
X9957Y-4697D01*
X9957Y-4671D01*
X9931Y-4619D01*
X9878Y-4592D01*
X9800Y-4592D01*
X9747Y-4619D01*
X9485Y-4907D02*
X9459Y-4933D01*
X9485Y-4959D01*
X9512Y-4933D01*
X9485Y-4907D01*
X9485Y-4959D01*
X8988Y-4933D02*
X9040Y-4959D01*
X9145Y-4959D01*
X9197Y-4933D01*
X9223Y-4907D01*
X9250Y-4854D01*
X9250Y-4697D01*
X9223Y-4645D01*
X9197Y-4619D01*
X9145Y-4592D01*
X9040Y-4592D01*
X8988Y-4619D01*
X8673Y-4959D02*
X8726Y-4933D01*
X8752Y-4907D01*
X8778Y-4854D01*
X8778Y-4697D01*
X8752Y-4645D01*
X8726Y-4619D01*
X8673Y-4592D01*
X8595Y-4592D01*
X8542Y-4619D01*
X8516Y-4645D01*
X8490Y-4697D01*
X8490Y-4854D01*
X8516Y-4907D01*
X8542Y-4933D01*
X8595Y-4959D01*
X8673Y-4959D01*
X8254Y-4959D02*
X8254Y-4592D01*
X8254Y-4645D02*
X8228Y-4619D01*
X8176Y-4592D01*
X8097Y-4592D01*
X8045Y-4619D01*
X8019Y-4671D01*
X8019Y-4959D01*
X8019Y-4671D02*
X7992Y-4619D01*
X7940Y-4592D01*
X7862Y-4592D01*
X7809Y-4619D01*
X7783Y-4671D01*
X7783Y-4959D01*
X7128Y-4383D02*
X7600Y-5090D01*
X15732Y-5299D02*
X15417Y-5299D01*
X15575Y-5849D02*
X15575Y-5299D01*
X15234Y-5849D02*
X15234Y-5482D01*
X15234Y-5299D02*
X15260Y-5325D01*
X15234Y-5352D01*
X15208Y-5325D01*
X15234Y-5299D01*
X15234Y-5352D01*
X14972Y-5482D02*
X14972Y-5849D01*
X14972Y-5535D02*
X14946Y-5509D01*
X14894Y-5482D01*
X14815Y-5482D01*
X14763Y-5509D01*
X14737Y-5561D01*
X14737Y-5849D01*
X14527Y-5482D02*
X14396Y-5849D01*
X14265Y-5482D02*
X14396Y-5849D01*
X14448Y-5980D01*
X14475Y-6006D01*
X14527Y-6032D01*
X13767Y-5325D02*
X13820Y-5299D01*
X13898Y-5299D01*
X13977Y-5325D01*
X14029Y-5378D01*
X14056Y-5430D01*
X14082Y-5535D01*
X14082Y-5613D01*
X14056Y-5718D01*
X14029Y-5771D01*
X13977Y-5823D01*
X13898Y-5849D01*
X13846Y-5849D01*
X13767Y-5823D01*
X13741Y-5797D01*
X13741Y-5613D01*
X13846Y-5613D01*
X13506Y-5849D02*
X13506Y-5482D01*
X13506Y-5587D02*
X13479Y-5535D01*
X13453Y-5509D01*
X13401Y-5482D01*
X13348Y-5482D01*
X13165Y-5849D02*
X13165Y-5482D01*
X13165Y-5299D02*
X13191Y-5325D01*
X13165Y-5352D01*
X13139Y-5325D01*
X13165Y-5299D01*
X13165Y-5352D01*
X12667Y-5849D02*
X12667Y-5299D01*
X12667Y-5823D02*
X12720Y-5849D01*
X12825Y-5849D01*
X12877Y-5823D01*
X12903Y-5797D01*
X12929Y-5744D01*
X12929Y-5587D01*
X12903Y-5535D01*
X12877Y-5509D01*
X12825Y-5482D01*
X12720Y-5482D01*
X12667Y-5509D01*
X12327Y-5535D02*
X12379Y-5509D01*
X12406Y-5482D01*
X12432Y-5430D01*
X12432Y-5404D01*
X12406Y-5352D01*
X12379Y-5325D01*
X12327Y-5299D01*
X12222Y-5299D01*
X12170Y-5325D01*
X12144Y-5352D01*
X12117Y-5404D01*
X12117Y-5430D01*
X12144Y-5482D01*
X12170Y-5509D01*
X12222Y-5535D01*
X12327Y-5535D01*
X12379Y-5561D01*
X12406Y-5587D01*
X12432Y-5640D01*
X12432Y-5744D01*
X12406Y-5797D01*
X12379Y-5823D01*
X12327Y-5849D01*
X12222Y-5849D01*
X12170Y-5823D01*
X12144Y-5797D01*
X12117Y-5744D01*
X12117Y-5640D01*
X12144Y-5587D01*
X12170Y-5561D01*
X12222Y-5535D01*
X11620Y-5299D02*
X11882Y-5299D01*
X11908Y-5561D01*
X11882Y-5535D01*
X11829Y-5509D01*
X11698Y-5509D01*
X11646Y-5535D01*
X11620Y-5561D01*
X11594Y-5613D01*
X11594Y-5744D01*
X11620Y-5797D01*
X11646Y-5823D01*
X11698Y-5849D01*
X11829Y-5849D01*
X11882Y-5823D01*
X11908Y-5797D01*
M02*
