G04 #@! TF.FileFunction,Legend,Top*
%FSLAX46Y46*%
G04 Gerber Fmt 4.6, Leading zero omitted, Abs format (unit mm)*
G04 Created by KiCad (PCBNEW (after 2015-mar-04 BZR unknown)-product) date 1/31/2017 4:25:08 PM*
%MOMM*%
G01*
G04 APERTURE LIST*
%ADD10C,0.150000*%
%ADD11C,0.508000*%
%ADD12C,0.300000*%
%ADD13C,0.635000*%
%ADD14C,0.381000*%
%ADD15C,0.120000*%
%ADD16C,0.317500*%
G04 APERTURE END LIST*
D10*
D11*
X93436190Y-53149048D02*
X93436190Y-50609048D01*
X94524762Y-50850952D02*
X94645714Y-50730000D01*
X94887619Y-50609048D01*
X95492381Y-50609048D01*
X95734285Y-50730000D01*
X95855238Y-50850952D01*
X95976190Y-51092857D01*
X95976190Y-51334762D01*
X95855238Y-51697619D01*
X94403809Y-53149048D01*
X95976190Y-53149048D01*
X98516190Y-52907143D02*
X98395238Y-53028095D01*
X98032381Y-53149048D01*
X97790476Y-53149048D01*
X97427619Y-53028095D01*
X97185714Y-52786190D01*
X97064762Y-52544286D01*
X96943810Y-52060476D01*
X96943810Y-51697619D01*
X97064762Y-51213810D01*
X97185714Y-50971905D01*
X97427619Y-50730000D01*
X97790476Y-50609048D01*
X98032381Y-50609048D01*
X98395238Y-50730000D01*
X98516190Y-50850952D01*
D12*
X88371429Y-39422500D02*
X88220238Y-39346905D01*
X87993453Y-39346905D01*
X87766667Y-39422500D01*
X87615476Y-39573690D01*
X87539881Y-39724881D01*
X87464286Y-40027262D01*
X87464286Y-40254048D01*
X87539881Y-40556429D01*
X87615476Y-40707619D01*
X87766667Y-40858810D01*
X87993453Y-40934405D01*
X88144643Y-40934405D01*
X88371429Y-40858810D01*
X88447024Y-40783214D01*
X88447024Y-40254048D01*
X88144643Y-40254048D01*
X89127381Y-40934405D02*
X89127381Y-39346905D01*
X90034524Y-40934405D01*
X90034524Y-39346905D01*
X90790476Y-40934405D02*
X90790476Y-39346905D01*
X91168452Y-39346905D01*
X91395238Y-39422500D01*
X91546429Y-39573690D01*
X91622024Y-39724881D01*
X91697619Y-40027262D01*
X91697619Y-40254048D01*
X91622024Y-40556429D01*
X91546429Y-40707619D01*
X91395238Y-40858810D01*
X91168452Y-40934405D01*
X90790476Y-40934405D01*
X87615476Y-41869405D02*
X88144643Y-43456905D01*
X88673810Y-41869405D01*
X90110119Y-43305714D02*
X90034524Y-43381310D01*
X89807738Y-43456905D01*
X89656548Y-43456905D01*
X89429762Y-43381310D01*
X89278571Y-43230119D01*
X89202976Y-43078929D01*
X89127381Y-42776548D01*
X89127381Y-42549762D01*
X89202976Y-42247381D01*
X89278571Y-42096190D01*
X89429762Y-41945000D01*
X89656548Y-41869405D01*
X89807738Y-41869405D01*
X90034524Y-41945000D01*
X90110119Y-42020595D01*
X91697619Y-43305714D02*
X91622024Y-43381310D01*
X91395238Y-43456905D01*
X91244048Y-43456905D01*
X91017262Y-43381310D01*
X90866071Y-43230119D01*
X90790476Y-43078929D01*
X90714881Y-42776548D01*
X90714881Y-42549762D01*
X90790476Y-42247381D01*
X90866071Y-42096190D01*
X91017262Y-41945000D01*
X91244048Y-41869405D01*
X91395238Y-41869405D01*
X91622024Y-41945000D01*
X91697619Y-42020595D01*
X87842262Y-45903810D02*
X88069048Y-45979405D01*
X88447024Y-45979405D01*
X88598214Y-45903810D01*
X88673810Y-45828214D01*
X88749405Y-45677024D01*
X88749405Y-45525833D01*
X88673810Y-45374643D01*
X88598214Y-45299048D01*
X88447024Y-45223452D01*
X88144643Y-45147857D01*
X87993452Y-45072262D01*
X87917857Y-44996667D01*
X87842262Y-44845476D01*
X87842262Y-44694286D01*
X87917857Y-44543095D01*
X87993452Y-44467500D01*
X88144643Y-44391905D01*
X88522619Y-44391905D01*
X88749405Y-44467500D01*
X89429762Y-45979405D02*
X89429762Y-44391905D01*
X89807738Y-44391905D01*
X90034524Y-44467500D01*
X90185715Y-44618690D01*
X90261310Y-44769881D01*
X90336905Y-45072262D01*
X90336905Y-45299048D01*
X90261310Y-45601429D01*
X90185715Y-45752619D01*
X90034524Y-45903810D01*
X89807738Y-45979405D01*
X89429762Y-45979405D01*
X90941667Y-45525833D02*
X91697619Y-45525833D01*
X90790476Y-45979405D02*
X91319643Y-44391905D01*
X91848810Y-45979405D01*
X87917857Y-48426310D02*
X88144643Y-48501905D01*
X88522619Y-48501905D01*
X88673809Y-48426310D01*
X88749405Y-48350714D01*
X88825000Y-48199524D01*
X88825000Y-48048333D01*
X88749405Y-47897143D01*
X88673809Y-47821548D01*
X88522619Y-47745952D01*
X88220238Y-47670357D01*
X88069047Y-47594762D01*
X87993452Y-47519167D01*
X87917857Y-47367976D01*
X87917857Y-47216786D01*
X87993452Y-47065595D01*
X88069047Y-46990000D01*
X88220238Y-46914405D01*
X88598214Y-46914405D01*
X88825000Y-46990000D01*
X90412500Y-48350714D02*
X90336905Y-48426310D01*
X90110119Y-48501905D01*
X89958929Y-48501905D01*
X89732143Y-48426310D01*
X89580952Y-48275119D01*
X89505357Y-48123929D01*
X89429762Y-47821548D01*
X89429762Y-47594762D01*
X89505357Y-47292381D01*
X89580952Y-47141190D01*
X89732143Y-46990000D01*
X89958929Y-46914405D01*
X90110119Y-46914405D01*
X90336905Y-46990000D01*
X90412500Y-47065595D01*
X91848810Y-48501905D02*
X91092857Y-48501905D01*
X91092857Y-46914405D01*
D13*
X39775192Y-99256548D02*
X39533287Y-99135595D01*
X39412335Y-98893690D01*
X39412335Y-96716548D01*
X41831382Y-99256548D02*
X41831382Y-97926071D01*
X41710430Y-97684167D01*
X41468525Y-97563214D01*
X40984716Y-97563214D01*
X40742811Y-97684167D01*
X41831382Y-99135595D02*
X41589478Y-99256548D01*
X40984716Y-99256548D01*
X40742811Y-99135595D01*
X40621859Y-98893690D01*
X40621859Y-98651786D01*
X40742811Y-98409881D01*
X40984716Y-98288929D01*
X41589478Y-98288929D01*
X41831382Y-98167976D01*
X43040906Y-97563214D02*
X43040906Y-99256548D01*
X43040906Y-97805119D02*
X43161858Y-97684167D01*
X43403763Y-97563214D01*
X43766620Y-97563214D01*
X44008525Y-97684167D01*
X44129477Y-97926071D01*
X44129477Y-99256548D01*
X46427572Y-99256548D02*
X46427572Y-96716548D01*
X46427572Y-99135595D02*
X46185668Y-99256548D01*
X45701858Y-99256548D01*
X45459953Y-99135595D01*
X45339001Y-99014643D01*
X45218049Y-98772738D01*
X45218049Y-98047024D01*
X45339001Y-97805119D01*
X45459953Y-97684167D01*
X45701858Y-97563214D01*
X46185668Y-97563214D01*
X46427572Y-97684167D01*
X47637096Y-98288929D02*
X49572334Y-98288929D01*
X50781858Y-99256548D02*
X50781858Y-96716548D01*
X50781858Y-97684167D02*
X51023763Y-97563214D01*
X51507572Y-97563214D01*
X51749477Y-97684167D01*
X51870429Y-97805119D01*
X51991382Y-98047024D01*
X51991382Y-98772738D01*
X51870429Y-99014643D01*
X51749477Y-99135595D01*
X51507572Y-99256548D01*
X51023763Y-99256548D01*
X50781858Y-99135595D01*
X53442810Y-99256548D02*
X53200905Y-99135595D01*
X53079953Y-99014643D01*
X52959001Y-98772738D01*
X52959001Y-98047024D01*
X53079953Y-97805119D01*
X53200905Y-97684167D01*
X53442810Y-97563214D01*
X53805667Y-97563214D01*
X54047572Y-97684167D01*
X54168524Y-97805119D01*
X54289477Y-98047024D01*
X54289477Y-98772738D01*
X54168524Y-99014643D01*
X54047572Y-99135595D01*
X53805667Y-99256548D01*
X53442810Y-99256548D01*
X56466619Y-99256548D02*
X56466619Y-97926071D01*
X56345667Y-97684167D01*
X56103762Y-97563214D01*
X55619953Y-97563214D01*
X55378048Y-97684167D01*
X56466619Y-99135595D02*
X56224715Y-99256548D01*
X55619953Y-99256548D01*
X55378048Y-99135595D01*
X55257096Y-98893690D01*
X55257096Y-98651786D01*
X55378048Y-98409881D01*
X55619953Y-98288929D01*
X56224715Y-98288929D01*
X56466619Y-98167976D01*
X57676143Y-99256548D02*
X57676143Y-97563214D01*
X57676143Y-98047024D02*
X57797095Y-97805119D01*
X57918048Y-97684167D01*
X58159952Y-97563214D01*
X58401857Y-97563214D01*
X60337095Y-99256548D02*
X60337095Y-96716548D01*
X60337095Y-99135595D02*
X60095191Y-99256548D01*
X59611381Y-99256548D01*
X59369476Y-99135595D01*
X59248524Y-99014643D01*
X59127572Y-98772738D01*
X59127572Y-98047024D01*
X59248524Y-97805119D01*
X59369476Y-97684167D01*
X59611381Y-97563214D01*
X60095191Y-97563214D01*
X60337095Y-97684167D01*
X61425667Y-99135595D02*
X61667571Y-99256548D01*
X62151381Y-99256548D01*
X62393286Y-99135595D01*
X62514238Y-98893690D01*
X62514238Y-98772738D01*
X62393286Y-98530833D01*
X62151381Y-98409881D01*
X61788524Y-98409881D01*
X61546619Y-98288929D01*
X61425667Y-98047024D01*
X61425667Y-97926071D01*
X61546619Y-97684167D01*
X61788524Y-97563214D01*
X62151381Y-97563214D01*
X62393286Y-97684167D01*
X63602809Y-99014643D02*
X63723761Y-99135595D01*
X63602809Y-99256548D01*
X63481857Y-99135595D01*
X63602809Y-99014643D01*
X63602809Y-99256548D01*
X65900904Y-99135595D02*
X65659000Y-99256548D01*
X65175190Y-99256548D01*
X64933285Y-99135595D01*
X64812333Y-99014643D01*
X64691381Y-98772738D01*
X64691381Y-98047024D01*
X64812333Y-97805119D01*
X64933285Y-97684167D01*
X65175190Y-97563214D01*
X65659000Y-97563214D01*
X65900904Y-97684167D01*
X67352333Y-99256548D02*
X67110428Y-99135595D01*
X66989476Y-99014643D01*
X66868524Y-98772738D01*
X66868524Y-98047024D01*
X66989476Y-97805119D01*
X67110428Y-97684167D01*
X67352333Y-97563214D01*
X67715190Y-97563214D01*
X67957095Y-97684167D01*
X68078047Y-97805119D01*
X68199000Y-98047024D01*
X68199000Y-98772738D01*
X68078047Y-99014643D01*
X67957095Y-99135595D01*
X67715190Y-99256548D01*
X67352333Y-99256548D01*
X69287571Y-99256548D02*
X69287571Y-97563214D01*
X69287571Y-97805119D02*
X69408523Y-97684167D01*
X69650428Y-97563214D01*
X70013285Y-97563214D01*
X70255190Y-97684167D01*
X70376142Y-97926071D01*
X70376142Y-99256548D01*
X70376142Y-97926071D02*
X70497095Y-97684167D01*
X70738999Y-97563214D01*
X71101857Y-97563214D01*
X71343761Y-97684167D01*
X71464714Y-97926071D01*
X71464714Y-99256548D01*
X74488524Y-96595595D02*
X72311381Y-99861310D01*
X46850905Y-100907548D02*
X46850905Y-102963738D01*
X46971857Y-103205643D01*
X47092810Y-103326595D01*
X47334714Y-103447548D01*
X47818524Y-103447548D01*
X48060429Y-103326595D01*
X48181381Y-103205643D01*
X48302333Y-102963738D01*
X48302333Y-100907548D01*
X49511857Y-103447548D02*
X49511857Y-100907548D01*
X50963285Y-103447548D01*
X50963285Y-100907548D01*
X52656618Y-100907548D02*
X53140428Y-100907548D01*
X53382333Y-101028500D01*
X53624237Y-101270405D01*
X53745190Y-101754214D01*
X53745190Y-102600881D01*
X53624237Y-103084690D01*
X53382333Y-103326595D01*
X53140428Y-103447548D01*
X52656618Y-103447548D01*
X52414714Y-103326595D01*
X52172809Y-103084690D01*
X52051857Y-102600881D01*
X52051857Y-101754214D01*
X52172809Y-101270405D01*
X52414714Y-101028500D01*
X52656618Y-100907548D01*
X54833761Y-102479929D02*
X56768999Y-102479929D01*
X57978523Y-103447548D02*
X57978523Y-100907548D01*
X58583285Y-100907548D01*
X58946142Y-101028500D01*
X59188047Y-101270405D01*
X59308999Y-101512310D01*
X59429951Y-101996119D01*
X59429951Y-102358976D01*
X59308999Y-102842786D01*
X59188047Y-103084690D01*
X58946142Y-103326595D01*
X58583285Y-103447548D01*
X57978523Y-103447548D01*
X61365190Y-102117071D02*
X61728047Y-102238024D01*
X61848999Y-102358976D01*
X61969951Y-102600881D01*
X61969951Y-102963738D01*
X61848999Y-103205643D01*
X61728047Y-103326595D01*
X61486142Y-103447548D01*
X60518523Y-103447548D01*
X60518523Y-100907548D01*
X61365190Y-100907548D01*
X61607094Y-101028500D01*
X61728047Y-101149452D01*
X61848999Y-101391357D01*
X61848999Y-101633262D01*
X61728047Y-101875167D01*
X61607094Y-101996119D01*
X61365190Y-102117071D01*
X60518523Y-102117071D01*
X62937571Y-101149452D02*
X63058523Y-101028500D01*
X63300428Y-100907548D01*
X63905190Y-100907548D01*
X64147094Y-101028500D01*
X64268047Y-101149452D01*
X64388999Y-101391357D01*
X64388999Y-101633262D01*
X64268047Y-101996119D01*
X62816618Y-103447548D01*
X64388999Y-103447548D01*
X66687095Y-100907548D02*
X65477571Y-100907548D01*
X65356619Y-102117071D01*
X65477571Y-101996119D01*
X65719476Y-101875167D01*
X66324238Y-101875167D01*
X66566142Y-101996119D01*
X66687095Y-102117071D01*
X66808047Y-102358976D01*
X66808047Y-102963738D01*
X66687095Y-103205643D01*
X66566142Y-103326595D01*
X66324238Y-103447548D01*
X65719476Y-103447548D01*
X65477571Y-103326595D01*
X65356619Y-103205643D01*
D14*
X38820000Y-69728000D02*
X38820000Y-81158000D01*
X38820000Y-81158000D02*
X40090000Y-82428000D01*
X40090000Y-82428000D02*
X104860000Y-82428000D01*
X38820000Y-29088000D02*
X104860000Y-29088000D01*
X104860000Y-29088000D02*
X104860000Y-82428000D01*
X38820000Y-69728000D02*
X36280000Y-67188000D01*
X36280000Y-67188000D02*
X36280000Y-34168000D01*
X36280000Y-34168000D02*
X38820000Y-31628000D01*
X38820000Y-31628000D02*
X38820000Y-29088000D01*
D10*
X5570000Y-30830000D02*
X19540000Y-30830000D01*
X10650000Y-38450000D02*
X19540000Y-38450000D01*
X5570000Y-36545000D02*
X10650000Y-36545000D01*
X5570000Y-78455000D02*
X10650000Y-78455000D01*
X10650000Y-76550000D02*
X19540000Y-76550000D01*
X19540000Y-84170000D02*
X5570000Y-84170000D01*
X10650000Y-30830000D02*
X10650000Y-38450000D01*
X10650000Y-84170000D02*
X10650000Y-76550000D01*
X8745000Y-37180000D02*
X5570000Y-37180000D01*
X8745000Y-77820000D02*
X5570000Y-77820000D01*
X-1415000Y-37180000D02*
X4300000Y-37180000D01*
X-1415000Y-77820000D02*
X4300000Y-77820000D01*
X5570000Y-30830000D02*
X4300000Y-30830000D01*
X4300000Y-30830000D02*
X4300000Y-84170000D01*
X4300000Y-84170000D02*
X5570000Y-84170000D01*
X5570000Y-84170000D02*
X5570000Y-30830000D01*
X19540000Y-38450000D02*
X19540000Y-30830000D01*
X8745000Y-77820000D02*
X8745000Y-37180000D01*
X-1415000Y-77820000D02*
X-1415000Y-37180000D01*
X19540000Y-84170000D02*
X19540000Y-76550000D01*
D15*
X95280000Y-38610000D02*
X95280000Y-41270000D01*
X95280000Y-41270000D02*
X98020000Y-41270000D01*
X98020000Y-41270000D02*
X98020000Y-38610000D01*
X98020000Y-38610000D02*
X95280000Y-38610000D01*
X98020000Y-39560000D02*
X98020000Y-40440000D01*
X98020000Y-40440000D02*
X104020000Y-40440000D01*
X104020000Y-40440000D02*
X104020000Y-39560000D01*
X104020000Y-39560000D02*
X98020000Y-39560000D01*
X94970000Y-39560000D02*
X95280000Y-39560000D01*
X94970000Y-40440000D02*
X95280000Y-40440000D01*
X98020000Y-39680000D02*
X104020000Y-39680000D01*
X98020000Y-39800000D02*
X104020000Y-39800000D01*
X98020000Y-39920000D02*
X104020000Y-39920000D01*
X98020000Y-40040000D02*
X104020000Y-40040000D01*
X98020000Y-40160000D02*
X104020000Y-40160000D01*
X98020000Y-40280000D02*
X104020000Y-40280000D01*
X98020000Y-40400000D02*
X104020000Y-40400000D01*
X95280000Y-41270000D02*
X95280000Y-43810000D01*
X95280000Y-43810000D02*
X98020000Y-43810000D01*
X98020000Y-43810000D02*
X98020000Y-41270000D01*
X98020000Y-41270000D02*
X95280000Y-41270000D01*
X98020000Y-42100000D02*
X98020000Y-42980000D01*
X98020000Y-42980000D02*
X104020000Y-42980000D01*
X104020000Y-42980000D02*
X104020000Y-42100000D01*
X104020000Y-42100000D02*
X98020000Y-42100000D01*
X94970000Y-42100000D02*
X95280000Y-42100000D01*
X94970000Y-42980000D02*
X95280000Y-42980000D01*
X95280000Y-43810000D02*
X95280000Y-46350000D01*
X95280000Y-46350000D02*
X98020000Y-46350000D01*
X98020000Y-46350000D02*
X98020000Y-43810000D01*
X98020000Y-43810000D02*
X95280000Y-43810000D01*
X98020000Y-44640000D02*
X98020000Y-45520000D01*
X98020000Y-45520000D02*
X104020000Y-45520000D01*
X104020000Y-45520000D02*
X104020000Y-44640000D01*
X104020000Y-44640000D02*
X98020000Y-44640000D01*
X94970000Y-44640000D02*
X95280000Y-44640000D01*
X94970000Y-45520000D02*
X95280000Y-45520000D01*
X95280000Y-46350000D02*
X95280000Y-49010000D01*
X95280000Y-49010000D02*
X98020000Y-49010000D01*
X98020000Y-49010000D02*
X98020000Y-46350000D01*
X98020000Y-46350000D02*
X95280000Y-46350000D01*
X98020000Y-47180000D02*
X98020000Y-48060000D01*
X98020000Y-48060000D02*
X104020000Y-48060000D01*
X104020000Y-48060000D02*
X104020000Y-47180000D01*
X104020000Y-47180000D02*
X98020000Y-47180000D01*
X94970000Y-47180000D02*
X95280000Y-47180000D01*
X94970000Y-48060000D02*
X95280000Y-48060000D01*
X92730000Y-40000000D02*
X92730000Y-38730000D01*
X92730000Y-38730000D02*
X94000000Y-38730000D01*
D16*
X21095881Y-74550333D02*
X22275167Y-74550333D01*
X22511024Y-74628953D01*
X22668262Y-74786191D01*
X22746881Y-75022048D01*
X22746881Y-75179286D01*
X22746881Y-72899333D02*
X22746881Y-73842762D01*
X22746881Y-73371048D02*
X21095881Y-73371048D01*
X21331738Y-73528286D01*
X21488976Y-73685524D01*
X21567595Y-73842762D01*
X92781405Y-37746881D02*
X92781405Y-36095881D01*
X93410358Y-36095881D01*
X93567596Y-36174500D01*
X93646215Y-36253119D01*
X93724834Y-36410357D01*
X93724834Y-36646214D01*
X93646215Y-36803452D01*
X93567596Y-36882071D01*
X93410358Y-36960690D01*
X92781405Y-36960690D01*
X95297215Y-37746881D02*
X94353786Y-37746881D01*
X94825500Y-37746881D02*
X94825500Y-36095881D01*
X94668262Y-36331738D01*
X94511024Y-36488976D01*
X94353786Y-36567595D01*
M02*
