G04 #@! TF.FileFunction,Copper,L2,Bot,Signal*
%FSLAX46Y46*%
G04 Gerber Fmt 4.6, Leading zero omitted, Abs format (unit mm)*
G04 Created by KiCad (PCBNEW (after 2015-mar-04 BZR unknown)-product) date 1/4/2017 12:55:19 PM*
%MOMM*%
G01*
G04 APERTURE LIST*
%ADD10C,0.100000*%
%ADD11R,1.250000X1.500000*%
%ADD12R,1.500000X1.250000*%
%ADD13C,4.800600*%
%ADD14C,1.501140*%
%ADD15R,2.032000X1.727200*%
%ADD16O,2.032000X1.727200*%
%ADD17C,9.525000*%
%ADD18C,1.524000*%
%ADD19R,1.524000X1.524000*%
%ADD20C,3.810000*%
%ADD21R,1.700000X1.700000*%
%ADD22O,1.700000X1.700000*%
%ADD23R,1.300000X1.300000*%
%ADD24C,1.300000*%
%ADD25C,0.610000*%
%ADD26C,0.203200*%
%ADD27C,0.635000*%
%ADD28C,0.254000*%
G04 APERTURE END LIST*
D10*
D11*
X50292000Y-61067000D03*
X50292000Y-58567000D03*
D12*
X55900000Y-55245000D03*
X58400000Y-55245000D03*
D13*
X100500000Y-30500000D03*
X94404000Y-30500000D03*
X98214000Y-25420000D03*
D11*
X70485000Y-50820000D03*
X70485000Y-53320000D03*
X70485000Y-60940000D03*
X70485000Y-58440000D03*
D14*
X73000000Y-53559060D03*
X73000000Y-58440940D03*
D15*
X93980000Y-80899000D03*
D16*
X93980000Y-83439000D03*
X93980000Y-85979000D03*
X93980000Y-88519000D03*
D17*
X16000000Y-16000000D03*
X99000000Y-16000000D03*
X16000000Y-99000000D03*
X99000000Y-99000000D03*
D18*
X22860000Y-43929300D03*
D19*
X20320000Y-81330800D03*
D18*
X20320000Y-78917800D03*
X20320000Y-76504800D03*
X20320000Y-74091800D03*
X20320000Y-71678800D03*
X20320000Y-69265800D03*
X20320000Y-66852800D03*
X20320000Y-64439800D03*
X20320000Y-62026800D03*
D20*
X22860000Y-89408000D03*
X22860000Y-25908000D03*
D18*
X20320000Y-59613800D03*
X20320000Y-57200800D03*
X20320000Y-54787800D03*
X20320000Y-52374800D03*
X20320000Y-49961800D03*
X20320000Y-47548800D03*
X20320000Y-45135800D03*
X20320000Y-42722800D03*
X20320000Y-40309800D03*
X20320000Y-37896800D03*
X20320000Y-35483800D03*
X20320000Y-33070800D03*
X22860000Y-82537300D03*
X22860000Y-80124300D03*
X22860000Y-77711300D03*
X22860000Y-75298300D03*
X22860000Y-72885300D03*
X22860000Y-70472300D03*
X22860000Y-68059300D03*
X22860000Y-65646300D03*
X22860000Y-63233300D03*
X22783800Y-60820300D03*
X22860000Y-58407300D03*
X22860000Y-55994300D03*
X22860000Y-53581300D03*
X22860000Y-51168300D03*
X22860000Y-48755300D03*
X22860000Y-46342300D03*
X22860000Y-41516300D03*
X22860000Y-39103300D03*
X22860000Y-36690300D03*
X22860000Y-34277300D03*
X25400000Y-81330800D03*
X25400000Y-78917800D03*
X25400000Y-76504800D03*
X25400000Y-74091800D03*
X25400000Y-71678800D03*
X25400000Y-69265800D03*
X25400000Y-66852800D03*
X25400000Y-64439800D03*
X25400000Y-62026800D03*
X25400000Y-59613800D03*
X25400000Y-57200800D03*
X25400000Y-54787800D03*
X25400000Y-52374800D03*
X25400000Y-49961800D03*
X25400000Y-47548800D03*
X25400000Y-45135800D03*
X25400000Y-42722800D03*
X25400000Y-40309800D03*
X25400000Y-37896800D03*
X25400000Y-35483800D03*
D21*
X94107000Y-58420000D03*
D22*
X94107000Y-60960000D03*
X94107000Y-63500000D03*
X94107000Y-66040000D03*
X94107000Y-68580000D03*
X94107000Y-71120000D03*
D21*
X70485000Y-92710000D03*
D22*
X67945000Y-92710000D03*
X65405000Y-92710000D03*
X62865000Y-92710000D03*
D21*
X48895000Y-36830000D03*
D22*
X51435000Y-36830000D03*
X53975000Y-36830000D03*
D21*
X65405000Y-36830000D03*
D22*
X67945000Y-36830000D03*
X70485000Y-36830000D03*
D21*
X48895000Y-34290000D03*
D22*
X51435000Y-34290000D03*
X53975000Y-34290000D03*
D21*
X65405000Y-34290000D03*
D22*
X67945000Y-34290000D03*
X70485000Y-34290000D03*
D23*
X88100000Y-15800000D03*
D24*
X90600000Y-15800000D03*
D25*
X43434000Y-70739000D03*
X51816000Y-59563000D03*
X44069000Y-52959000D03*
X66548000Y-70231000D03*
X54610000Y-55372000D03*
X56412000Y-53697000D03*
X56591200Y-97434400D03*
X72415400Y-73177400D03*
X65760600Y-46761400D03*
X67132200Y-60147200D03*
X53771800Y-18262600D03*
X39134800Y-19780000D03*
X65994600Y-18395000D03*
X72644000Y-19761200D03*
X83083400Y-18110200D03*
X89959200Y-21750000D03*
X57912000Y-66294000D03*
X56464200Y-66395600D03*
X56896000Y-51054000D03*
X52832000Y-60706000D03*
X59055000Y-24638000D03*
X56108600Y-83439000D03*
X60274200Y-26060400D03*
X49657000Y-52832000D03*
X51689000Y-58674000D03*
X57912000Y-54102000D03*
X30099000Y-59690000D03*
X60706000Y-58039000D03*
X60452000Y-44323000D03*
X27940000Y-35814000D03*
X61087000Y-45085000D03*
X61087000Y-57277000D03*
X61722000Y-56515000D03*
X61722000Y-45593000D03*
X62357000Y-55880000D03*
X34671000Y-43688000D03*
X62357000Y-46228000D03*
X62992000Y-46736000D03*
X62992000Y-55118000D03*
X63373000Y-54356000D03*
X63373000Y-47498000D03*
X33528000Y-45212000D03*
X33909000Y-47117000D03*
X32766000Y-48768000D03*
X31750000Y-50419000D03*
X30734000Y-52070000D03*
X30353000Y-54483000D03*
X28829000Y-56007000D03*
X89027000Y-44958000D03*
X88900000Y-48260000D03*
X84836000Y-65405000D03*
X84912200Y-68580000D03*
X85521800Y-64744600D03*
X85521800Y-70916800D03*
X72186800Y-29260800D03*
X62103000Y-76962000D03*
X62103000Y-79502000D03*
X53721000Y-79502000D03*
X61087000Y-76327000D03*
X61087000Y-78486000D03*
X52578000Y-75819000D03*
X53467000Y-77089000D03*
X53594000Y-74295000D03*
X29210000Y-73914000D03*
X47117000Y-66167000D03*
X50292000Y-72263000D03*
X44196000Y-64897000D03*
X42926000Y-63500000D03*
X29845000Y-61849000D03*
X58293000Y-75184000D03*
X58420000Y-82169000D03*
X60325000Y-82423000D03*
X61595000Y-75311000D03*
X61899800Y-74574400D03*
X48133000Y-69342000D03*
X66734000Y-67750000D03*
D26*
X54737000Y-55245000D02*
X54610000Y-55372000D01*
X55900000Y-55245000D02*
X54737000Y-55245000D01*
X56412000Y-53697000D02*
X56388000Y-53721000D01*
X70485000Y-48590200D02*
X70586600Y-48488600D01*
X70485000Y-50820000D02*
X70485000Y-48590200D01*
X70485000Y-62560200D02*
X70383400Y-62661800D01*
X70485000Y-60940000D02*
X70485000Y-62560200D01*
D27*
X39134800Y-19780000D02*
X39141400Y-19786600D01*
X65994600Y-18395000D02*
X65989200Y-18389600D01*
X89959200Y-21750000D02*
X89966800Y-21742400D01*
D26*
X56896000Y-51054000D02*
X52832000Y-55118000D01*
D27*
X52832000Y-55118000D02*
X56896000Y-51054000D01*
X52832000Y-60706000D02*
X52832000Y-55118000D01*
X56896000Y-40513000D02*
X59055000Y-38354000D01*
X59055000Y-38354000D02*
X59055000Y-24638000D01*
X56896000Y-51054000D02*
X56896000Y-40513000D01*
D26*
X56108600Y-83439000D02*
X56210200Y-83337400D01*
X56210200Y-83337400D02*
X56210200Y-68884800D01*
X56210200Y-68884800D02*
X54152800Y-66827400D01*
X54152800Y-66827400D02*
X54152800Y-63322200D01*
X54152800Y-63322200D02*
X59867800Y-57607200D01*
X59867800Y-57607200D02*
X59867800Y-44881800D01*
X59867800Y-44881800D02*
X59588400Y-44602400D01*
X59588400Y-44602400D02*
X59588400Y-40970200D01*
X59588400Y-40970200D02*
X60274200Y-40284400D01*
X60274200Y-40284400D02*
X60274200Y-26060400D01*
D28*
X49657000Y-52832000D02*
X49530000Y-52705000D01*
X49530000Y-52705000D02*
X49530000Y-43815000D01*
X49530000Y-43815000D02*
X44323000Y-38608000D01*
X44323000Y-38608000D02*
X44323000Y-32131000D01*
X44323000Y-32131000D02*
X45085000Y-31369000D01*
X45085000Y-31369000D02*
X50292000Y-31369000D01*
X50292000Y-31369000D02*
X51435000Y-32512000D01*
X51435000Y-32512000D02*
X51435000Y-34290000D01*
D26*
X51689000Y-58674000D02*
X51582000Y-58567000D01*
X51582000Y-58567000D02*
X50292000Y-58567000D01*
X58400000Y-54590000D02*
X57912000Y-54102000D01*
X58400000Y-55245000D02*
X58400000Y-54590000D01*
X30099000Y-59690000D02*
X26416000Y-56007000D01*
X26416000Y-56007000D02*
X24638000Y-56007000D01*
X24638000Y-56007000D02*
X23444200Y-57200800D01*
X23444200Y-57200800D02*
X20320000Y-57200800D01*
D28*
X60706000Y-58039000D02*
X60452000Y-57404000D01*
X60452000Y-57404000D02*
X60452000Y-44323000D01*
D26*
X26289000Y-34163000D02*
X27940000Y-35814000D01*
X24765000Y-34163000D02*
X26289000Y-34163000D01*
X23444200Y-35483800D02*
X24765000Y-34163000D01*
X20320000Y-35483800D02*
X23444200Y-35483800D01*
X61087000Y-45085000D02*
X61087000Y-57277000D01*
D28*
X61722000Y-56515000D02*
X61722000Y-45593000D01*
D26*
X23571200Y-37896800D02*
X20320000Y-37896800D01*
X34671000Y-43688000D02*
X27686000Y-36703000D01*
X27686000Y-36703000D02*
X24765000Y-36703000D01*
X24765000Y-36703000D02*
X23571200Y-37896800D01*
X62357000Y-55880000D02*
X62357000Y-46228000D01*
X62738002Y-54610002D02*
X62738002Y-46989998D01*
X62738002Y-46989998D02*
X62992000Y-46736000D01*
X62738002Y-46989998D02*
X62992000Y-46736000D01*
X62992000Y-55118000D02*
X62738002Y-54864002D01*
X62738002Y-54864002D02*
X62738002Y-46989998D01*
X63373000Y-54356000D02*
X63373000Y-47498000D01*
X33528000Y-45212000D02*
X27432000Y-39116000D01*
X27432000Y-39116000D02*
X24765000Y-39116000D01*
X24765000Y-39116000D02*
X23571200Y-40309800D01*
X23571200Y-40309800D02*
X20320000Y-40309800D01*
X23444200Y-42722800D02*
X24638000Y-41529000D01*
X24638000Y-41529000D02*
X26797000Y-41529000D01*
X26797000Y-41529000D02*
X32385000Y-47117000D01*
X32385000Y-47117000D02*
X33909000Y-47117000D01*
X20320000Y-42722800D02*
X23444200Y-42722800D01*
X32766000Y-48768000D02*
X27940000Y-43942000D01*
X27940000Y-43942000D02*
X24765000Y-43942000D01*
X24765000Y-43942000D02*
X23571200Y-45135800D01*
X23571200Y-45135800D02*
X20320000Y-45135800D01*
X20370800Y-47498000D02*
X20320000Y-47548800D01*
X31750000Y-50419000D02*
X27686000Y-46355000D01*
X27686000Y-46355000D02*
X24765000Y-46355000D01*
X24765000Y-46355000D02*
X23622000Y-47498000D01*
X23622000Y-47498000D02*
X20370800Y-47498000D01*
X30734000Y-52070000D02*
X27559000Y-48895000D01*
X27559000Y-48895000D02*
X24638000Y-48895000D01*
X24638000Y-48895000D02*
X23571200Y-49961800D01*
X23571200Y-49961800D02*
X20320000Y-49961800D01*
X30353000Y-54483000D02*
X27051000Y-51181000D01*
X27051000Y-51181000D02*
X24638000Y-51181000D01*
X24638000Y-51181000D02*
X23444200Y-52374800D01*
X23444200Y-52374800D02*
X20320000Y-52374800D01*
X28829000Y-56007000D02*
X26416000Y-53594000D01*
X26416000Y-53594000D02*
X24765000Y-53594000D01*
X24765000Y-53594000D02*
X23571200Y-54787800D01*
X23571200Y-54787800D02*
X20320000Y-54787800D01*
X70724060Y-53559060D02*
X70485000Y-53320000D01*
X73000000Y-53559060D02*
X70724060Y-53559060D01*
X70485940Y-58440940D02*
X70485000Y-58440000D01*
X73000000Y-58440940D02*
X70485940Y-58440940D01*
D28*
X89027000Y-48133000D02*
X89027000Y-44958000D01*
X88900000Y-48260000D02*
X89027000Y-48133000D01*
D26*
X84836000Y-65405000D02*
X84912200Y-65481200D01*
X84912200Y-65481200D02*
X84912200Y-68580000D01*
X85521800Y-64744600D02*
X85521800Y-70916800D01*
D28*
X48895000Y-34290000D02*
X48895000Y-36830000D01*
D27*
X72186800Y-32232600D02*
X72186800Y-29260800D01*
X70485000Y-33934400D02*
X72186800Y-32232600D01*
X70485000Y-34290000D02*
X70485000Y-33934400D01*
D26*
X24638000Y-80137000D02*
X23418800Y-78917800D01*
X30048200Y-80137000D02*
X24638000Y-80137000D01*
X23418800Y-78917800D02*
X20320000Y-78917800D01*
X62103000Y-76962000D02*
X62103000Y-79502000D01*
X53086000Y-80137000D02*
X53721000Y-79502000D01*
X30048200Y-80137000D02*
X53086000Y-80137000D01*
X61087000Y-76327000D02*
X61087000Y-78486000D01*
X52578000Y-75819000D02*
X51943000Y-76454000D01*
X51943000Y-76454000D02*
X28194000Y-76454000D01*
X28194000Y-76454000D02*
X27051000Y-75311000D01*
X27051000Y-75311000D02*
X25019000Y-75311000D01*
X25019000Y-75311000D02*
X23825200Y-76504800D01*
X23825200Y-76504800D02*
X20320000Y-76504800D01*
X52844700Y-77711300D02*
X53467000Y-77089000D01*
X22860000Y-77711300D02*
X52844700Y-77711300D01*
X53594000Y-74295000D02*
X53340000Y-74549000D01*
X53340000Y-74549000D02*
X52705000Y-74549000D01*
X52705000Y-74549000D02*
X51435000Y-75819000D01*
X51435000Y-75819000D02*
X29591000Y-75819000D01*
X29591000Y-75819000D02*
X26670000Y-72898000D01*
X26670000Y-72898000D02*
X24765000Y-72898000D01*
X24765000Y-72898000D02*
X23571200Y-74091800D01*
X23571200Y-74091800D02*
X20320000Y-74091800D01*
X29210000Y-73914000D02*
X28702000Y-73406000D01*
X28702000Y-73406000D02*
X28702000Y-72771000D01*
X28702000Y-72771000D02*
X26416000Y-70485000D01*
X26416000Y-70485000D02*
X24638000Y-70485000D01*
X24638000Y-70485000D02*
X23444200Y-71678800D01*
X23444200Y-71678800D02*
X20320000Y-71678800D01*
X47117000Y-66167000D02*
X45720000Y-67564000D01*
X45720000Y-67564000D02*
X28321000Y-67564000D01*
X28321000Y-67564000D02*
X26416000Y-65659000D01*
X26416000Y-65659000D02*
X24765000Y-65659000D01*
X24765000Y-65659000D02*
X23571200Y-66852800D01*
X23571200Y-66852800D02*
X20320000Y-66852800D01*
X22860000Y-69850000D02*
X22860000Y-70472300D01*
X50292000Y-72263000D02*
X50038000Y-72009000D01*
X50038000Y-72009000D02*
X31369000Y-72009000D01*
X31369000Y-72009000D02*
X27432000Y-68072000D01*
X27432000Y-68072000D02*
X24638000Y-68072000D01*
X24638000Y-68072000D02*
X22860000Y-69850000D01*
X44196000Y-64897000D02*
X43688000Y-65405000D01*
X43688000Y-65405000D02*
X28702000Y-65405000D01*
X28702000Y-65405000D02*
X26543000Y-63246000D01*
X26543000Y-63246000D02*
X24638000Y-63246000D01*
X24638000Y-63246000D02*
X23444200Y-64439800D01*
X23444200Y-64439800D02*
X20320000Y-64439800D01*
X42926000Y-63500000D02*
X42545000Y-63881000D01*
X42545000Y-63881000D02*
X29591000Y-63881000D01*
X29591000Y-63881000D02*
X26543000Y-60833000D01*
X26543000Y-60833000D02*
X24765000Y-60833000D01*
X24765000Y-60833000D02*
X23571200Y-62026800D01*
X23571200Y-62026800D02*
X20320000Y-62026800D01*
X23698200Y-59613800D02*
X24892000Y-58420000D01*
X24892000Y-58420000D02*
X26416000Y-58420000D01*
X26416000Y-58420000D02*
X29845000Y-61849000D01*
X20320000Y-59613800D02*
X23698200Y-59613800D01*
X58293000Y-75184000D02*
X58420000Y-75311000D01*
X58420000Y-75311000D02*
X58420000Y-82169000D01*
X60579000Y-75692000D02*
X60452000Y-75692000D01*
X60452000Y-75692000D02*
X60071000Y-76073000D01*
X60071000Y-76073000D02*
X60071000Y-82169000D01*
X60071000Y-82169000D02*
X60325000Y-82423000D01*
X61595000Y-75311000D02*
X61214000Y-75692000D01*
X61214000Y-75692000D02*
X60579000Y-75692000D01*
X61899800Y-74574400D02*
X67945000Y-80619600D01*
X67945000Y-80619600D02*
X67945000Y-92710000D01*
D28*
X51181000Y-37084000D02*
X51435000Y-36830000D01*
X48133000Y-69342000D02*
X48260000Y-69215000D01*
X48260000Y-69215000D02*
X48260000Y-56388000D01*
X48260000Y-56388000D02*
X51181000Y-53467000D01*
X51181000Y-53467000D02*
X51181000Y-37084000D01*
X67691000Y-37084000D02*
X67945000Y-36830000D01*
D26*
X64067000Y-67750000D02*
X63246000Y-66929000D01*
X63246000Y-66929000D02*
X63246000Y-57683400D01*
X66734000Y-67750000D02*
X64067000Y-67750000D01*
X67945000Y-52959000D02*
X67945000Y-36830000D01*
X63246000Y-57658000D02*
X67945000Y-52959000D01*
X63246000Y-57683400D02*
X63246000Y-57658000D01*
D28*
G36*
X104569000Y-96348473D02*
X104224815Y-95515482D01*
X103536369Y-94825833D01*
X103536369Y-31098358D01*
X103534221Y-29890843D01*
X103076257Y-28785221D01*
X102663936Y-28515670D01*
X102484330Y-28695275D01*
X102484330Y-28336064D01*
X102214779Y-27923743D01*
X101250369Y-27526279D01*
X101098358Y-27463631D01*
X100438412Y-27464804D01*
X100377937Y-27404329D01*
X100790257Y-27134779D01*
X101250369Y-26018358D01*
X101248221Y-24810843D01*
X100790257Y-23705221D01*
X100377936Y-23435670D01*
X100198330Y-23615275D01*
X100198330Y-23256064D01*
X99928779Y-22843743D01*
X98812358Y-22383631D01*
X97604843Y-22385779D01*
X96499221Y-22843743D01*
X96229670Y-23256064D01*
X98214000Y-25240395D01*
X100198330Y-23256064D01*
X100198330Y-23615275D01*
X98393605Y-25420000D01*
X98407747Y-25434142D01*
X98228142Y-25613747D01*
X98214000Y-25599605D01*
X98034395Y-25779210D01*
X98034395Y-25420000D01*
X96050064Y-23435670D01*
X95637743Y-23705221D01*
X95177631Y-24821642D01*
X95179779Y-26029157D01*
X95637743Y-27134779D01*
X96050064Y-27404330D01*
X98034395Y-25420000D01*
X98034395Y-25779210D01*
X96229670Y-27583936D01*
X96499221Y-27996257D01*
X97615642Y-28456369D01*
X98275586Y-28455194D01*
X98336062Y-28515670D01*
X97923743Y-28785221D01*
X97463631Y-29901642D01*
X97465779Y-31109157D01*
X97923743Y-32214779D01*
X98336064Y-32484330D01*
X100320395Y-30500000D01*
X100306252Y-30485857D01*
X100485857Y-30306252D01*
X100500000Y-30320395D01*
X102484330Y-28336064D01*
X102484330Y-28695275D01*
X100679605Y-30500000D01*
X102663936Y-32484330D01*
X103076257Y-32214779D01*
X103536369Y-31098358D01*
X103536369Y-94825833D01*
X102493632Y-93781275D01*
X102484330Y-93777412D01*
X102484330Y-32663936D01*
X100500000Y-30679605D01*
X100320395Y-30859210D01*
X98515670Y-32663936D01*
X98785221Y-33076257D01*
X99901642Y-33536369D01*
X101109157Y-33534221D01*
X102214779Y-33076257D01*
X102484330Y-32663936D01*
X102484330Y-93777412D01*
X100230575Y-92841571D01*
X97780175Y-92839433D01*
X97185782Y-93085031D01*
X97185782Y-29949192D01*
X96763246Y-28926578D01*
X95981537Y-28143503D01*
X94959662Y-27719184D01*
X93853192Y-27718218D01*
X92830578Y-28140754D01*
X92047503Y-28922463D01*
X91897622Y-29283417D01*
X91897622Y-15980922D01*
X91868083Y-15470572D01*
X91729611Y-15136271D01*
X91499016Y-15080590D01*
X91319410Y-15260195D01*
X91319410Y-14900984D01*
X91263729Y-14670389D01*
X90780922Y-14502378D01*
X90270572Y-14531917D01*
X89936271Y-14670389D01*
X89880590Y-14900984D01*
X90600000Y-15620395D01*
X91319410Y-14900984D01*
X91319410Y-15260195D01*
X90779605Y-15800000D01*
X91499016Y-16519410D01*
X91729611Y-16463729D01*
X91897622Y-15980922D01*
X91897622Y-29283417D01*
X91623184Y-29944338D01*
X91622218Y-31050808D01*
X92044754Y-32073422D01*
X92826463Y-32856497D01*
X93848338Y-33280816D01*
X94954808Y-33281782D01*
X95977422Y-32859246D01*
X96760497Y-32077537D01*
X97184816Y-31055662D01*
X97185782Y-29949192D01*
X97185782Y-93085031D01*
X95631000Y-93727453D01*
X95631000Y-81888910D01*
X95631000Y-81636291D01*
X95631000Y-81184750D01*
X95631000Y-80613250D01*
X95631000Y-80161709D01*
X95631000Y-79909090D01*
X95592000Y-79814935D01*
X95592000Y-59396310D01*
X95592000Y-59143691D01*
X95592000Y-58705750D01*
X95592000Y-58134250D01*
X95592000Y-57696309D01*
X95592000Y-57443690D01*
X95495327Y-57210301D01*
X95316698Y-57031673D01*
X95083309Y-56935000D01*
X94392750Y-56935000D01*
X94234000Y-57093750D01*
X94234000Y-58293000D01*
X95433250Y-58293000D01*
X95592000Y-58134250D01*
X95592000Y-58705750D01*
X95433250Y-58547000D01*
X94234000Y-58547000D01*
X94234000Y-58567000D01*
X93980000Y-58567000D01*
X93980000Y-58547000D01*
X93980000Y-58293000D01*
X93980000Y-57093750D01*
X93821250Y-56935000D01*
X93130691Y-56935000D01*
X92897302Y-57031673D01*
X92718673Y-57210301D01*
X92622000Y-57443690D01*
X92622000Y-57696309D01*
X92622000Y-58134250D01*
X92780750Y-58293000D01*
X93980000Y-58293000D01*
X93980000Y-58547000D01*
X92780750Y-58547000D01*
X92622000Y-58705750D01*
X92622000Y-59143691D01*
X92622000Y-59396310D01*
X92718673Y-59629699D01*
X92897302Y-59808327D01*
X93130691Y-59905000D01*
X93488635Y-59905000D01*
X93212435Y-60089552D01*
X92945587Y-60488917D01*
X92851883Y-60960000D01*
X92945587Y-61431083D01*
X93212435Y-61830448D01*
X93611800Y-62097296D01*
X94082883Y-62191000D01*
X94131117Y-62191000D01*
X94602200Y-62097296D01*
X95001565Y-61830448D01*
X95268413Y-61431083D01*
X95362117Y-60960000D01*
X95268413Y-60488917D01*
X95001565Y-60089552D01*
X94725364Y-59905000D01*
X95083309Y-59905000D01*
X95316698Y-59808327D01*
X95495327Y-59629699D01*
X95592000Y-59396310D01*
X95592000Y-79814935D01*
X95534327Y-79675701D01*
X95362117Y-79503491D01*
X95362117Y-71120000D01*
X95362117Y-68580000D01*
X95362117Y-66040000D01*
X95362117Y-63500000D01*
X95268413Y-63028917D01*
X95001565Y-62629552D01*
X94602200Y-62362704D01*
X94131117Y-62269000D01*
X94082883Y-62269000D01*
X93611800Y-62362704D01*
X93212435Y-62629552D01*
X92945587Y-63028917D01*
X92851883Y-63500000D01*
X92945587Y-63971083D01*
X93212435Y-64370448D01*
X93611800Y-64637296D01*
X94082883Y-64731000D01*
X94131117Y-64731000D01*
X94602200Y-64637296D01*
X95001565Y-64370448D01*
X95268413Y-63971083D01*
X95362117Y-63500000D01*
X95362117Y-66040000D01*
X95268413Y-65568917D01*
X95001565Y-65169552D01*
X94602200Y-64902704D01*
X94131117Y-64809000D01*
X94082883Y-64809000D01*
X93611800Y-64902704D01*
X93212435Y-65169552D01*
X92945587Y-65568917D01*
X92851883Y-66040000D01*
X92945587Y-66511083D01*
X93212435Y-66910448D01*
X93611800Y-67177296D01*
X94082883Y-67271000D01*
X94131117Y-67271000D01*
X94602200Y-67177296D01*
X95001565Y-66910448D01*
X95268413Y-66511083D01*
X95362117Y-66040000D01*
X95362117Y-68580000D01*
X95268413Y-68108917D01*
X95001565Y-67709552D01*
X94602200Y-67442704D01*
X94131117Y-67349000D01*
X94082883Y-67349000D01*
X93611800Y-67442704D01*
X93212435Y-67709552D01*
X92945587Y-68108917D01*
X92851883Y-68580000D01*
X92945587Y-69051083D01*
X93212435Y-69450448D01*
X93611800Y-69717296D01*
X94082883Y-69811000D01*
X94131117Y-69811000D01*
X94602200Y-69717296D01*
X95001565Y-69450448D01*
X95268413Y-69051083D01*
X95362117Y-68580000D01*
X95362117Y-71120000D01*
X95268413Y-70648917D01*
X95001565Y-70249552D01*
X94602200Y-69982704D01*
X94131117Y-69889000D01*
X94082883Y-69889000D01*
X93611800Y-69982704D01*
X93212435Y-70249552D01*
X92945587Y-70648917D01*
X92851883Y-71120000D01*
X92945587Y-71591083D01*
X93212435Y-71990448D01*
X93611800Y-72257296D01*
X94082883Y-72351000D01*
X94131117Y-72351000D01*
X94602200Y-72257296D01*
X95001565Y-71990448D01*
X95268413Y-71591083D01*
X95362117Y-71120000D01*
X95362117Y-79503491D01*
X95355698Y-79497073D01*
X95122309Y-79400400D01*
X94265750Y-79400400D01*
X94107000Y-79559150D01*
X94107000Y-80772000D01*
X95472250Y-80772000D01*
X95631000Y-80613250D01*
X95631000Y-81184750D01*
X95472250Y-81026000D01*
X94107000Y-81026000D01*
X94107000Y-81046000D01*
X93853000Y-81046000D01*
X93853000Y-81026000D01*
X93853000Y-80772000D01*
X93853000Y-79559150D01*
X93694250Y-79400400D01*
X92837691Y-79400400D01*
X92604302Y-79497073D01*
X92425673Y-79675701D01*
X92329000Y-79909090D01*
X92329000Y-80161709D01*
X92329000Y-80613250D01*
X92487750Y-80772000D01*
X93853000Y-80772000D01*
X93853000Y-81026000D01*
X92487750Y-81026000D01*
X92329000Y-81184750D01*
X92329000Y-81636291D01*
X92329000Y-81888910D01*
X92425673Y-82122299D01*
X92604302Y-82300927D01*
X92837691Y-82397600D01*
X93161621Y-82397600D01*
X92920166Y-82558935D01*
X92650371Y-82962712D01*
X92555631Y-83439000D01*
X92650371Y-83915288D01*
X92920166Y-84319065D01*
X93323943Y-84588860D01*
X93800231Y-84683600D01*
X94159769Y-84683600D01*
X94636057Y-84588860D01*
X95039834Y-84319065D01*
X95309629Y-83915288D01*
X95404369Y-83439000D01*
X95309629Y-82962712D01*
X95039834Y-82558935D01*
X94798378Y-82397600D01*
X95122309Y-82397600D01*
X95355698Y-82300927D01*
X95534327Y-82122299D01*
X95631000Y-81888910D01*
X95631000Y-93727453D01*
X95515482Y-93775185D01*
X95404369Y-93886104D01*
X95404369Y-88519000D01*
X95404369Y-85979000D01*
X95309629Y-85502712D01*
X95039834Y-85098935D01*
X94636057Y-84829140D01*
X94159769Y-84734400D01*
X93800231Y-84734400D01*
X93323943Y-84829140D01*
X92920166Y-85098935D01*
X92650371Y-85502712D01*
X92555631Y-85979000D01*
X92650371Y-86455288D01*
X92920166Y-86859065D01*
X93323943Y-87128860D01*
X93800231Y-87223600D01*
X94159769Y-87223600D01*
X94636057Y-87128860D01*
X95039834Y-86859065D01*
X95309629Y-86455288D01*
X95404369Y-85979000D01*
X95404369Y-88519000D01*
X95309629Y-88042712D01*
X95039834Y-87638935D01*
X94636057Y-87369140D01*
X94159769Y-87274400D01*
X93800231Y-87274400D01*
X93323943Y-87369140D01*
X92920166Y-87638935D01*
X92650371Y-88042712D01*
X92555631Y-88519000D01*
X92650371Y-88995288D01*
X92920166Y-89399065D01*
X93323943Y-89668860D01*
X93800231Y-89763600D01*
X94159769Y-89763600D01*
X94636057Y-89668860D01*
X95039834Y-89399065D01*
X95309629Y-88995288D01*
X95404369Y-88519000D01*
X95404369Y-93886104D01*
X93781275Y-95506368D01*
X92841571Y-97769425D01*
X92839433Y-100219825D01*
X93775185Y-102484518D01*
X95506368Y-104218725D01*
X96349923Y-104569000D01*
X91319410Y-104569000D01*
X91319410Y-16699016D01*
X90600000Y-15979605D01*
X90420395Y-16159210D01*
X90420395Y-15800000D01*
X89700984Y-15080590D01*
X89470389Y-15136271D01*
X89302378Y-15619078D01*
X89331917Y-16129428D01*
X89470389Y-16463729D01*
X89700984Y-16519410D01*
X90420395Y-15800000D01*
X90420395Y-16159210D01*
X89880590Y-16699016D01*
X89936271Y-16929611D01*
X90419078Y-17097622D01*
X90929428Y-17068083D01*
X91263729Y-16929611D01*
X91319410Y-16699016D01*
X91319410Y-104569000D01*
X89713119Y-104569000D01*
X89713119Y-44822145D01*
X89608902Y-44569920D01*
X89416095Y-44376776D01*
X89164053Y-44272119D01*
X89138464Y-44272096D01*
X89138464Y-16450000D01*
X89138464Y-15150000D01*
X89110278Y-15004726D01*
X89026404Y-14877044D01*
X88899784Y-14791574D01*
X88750000Y-14761536D01*
X87450000Y-14761536D01*
X87304726Y-14789722D01*
X87177044Y-14873596D01*
X87091574Y-15000216D01*
X87061536Y-15150000D01*
X87061536Y-16450000D01*
X87089722Y-16595274D01*
X87173596Y-16722956D01*
X87300216Y-16808426D01*
X87450000Y-16838464D01*
X88750000Y-16838464D01*
X88895274Y-16810278D01*
X89022956Y-16726404D01*
X89108426Y-16599784D01*
X89138464Y-16450000D01*
X89138464Y-44272096D01*
X88891145Y-44271881D01*
X88638920Y-44376098D01*
X88445776Y-44568905D01*
X88341119Y-44820947D01*
X88340881Y-45093855D01*
X88445098Y-45346080D01*
X88519000Y-45420111D01*
X88519000Y-47675172D01*
X88511920Y-47678098D01*
X88318776Y-47870905D01*
X88214119Y-48122947D01*
X88213881Y-48395855D01*
X88318098Y-48648080D01*
X88510905Y-48841224D01*
X88762947Y-48945881D01*
X89035855Y-48946119D01*
X89288080Y-48841902D01*
X89481224Y-48649095D01*
X89585881Y-48397053D01*
X89586119Y-48124145D01*
X89535000Y-48000427D01*
X89535000Y-45420191D01*
X89608224Y-45347095D01*
X89712881Y-45095053D01*
X89713119Y-44822145D01*
X89713119Y-104569000D01*
X86207919Y-104569000D01*
X86207919Y-70780945D01*
X86103702Y-70528720D01*
X86004400Y-70429244D01*
X86004400Y-65232146D01*
X86103024Y-65133695D01*
X86207681Y-64881653D01*
X86207919Y-64608745D01*
X86103702Y-64356520D01*
X85910895Y-64163376D01*
X85658853Y-64058719D01*
X85385945Y-64058481D01*
X85133720Y-64162698D01*
X84940576Y-64355505D01*
X84835919Y-64607547D01*
X84835821Y-64718999D01*
X84700145Y-64718881D01*
X84447920Y-64823098D01*
X84254776Y-65015905D01*
X84150119Y-65267947D01*
X84149881Y-65540855D01*
X84254098Y-65793080D01*
X84429600Y-65968888D01*
X84429600Y-68092453D01*
X84330976Y-68190905D01*
X84226319Y-68442947D01*
X84226081Y-68715855D01*
X84330298Y-68968080D01*
X84523105Y-69161224D01*
X84775147Y-69265881D01*
X85039200Y-69266111D01*
X85039200Y-70429253D01*
X84940576Y-70527705D01*
X84835919Y-70779747D01*
X84835681Y-71052655D01*
X84939898Y-71304880D01*
X85132705Y-71498024D01*
X85384747Y-71602681D01*
X85657655Y-71602919D01*
X85909880Y-71498702D01*
X86103024Y-71305895D01*
X86207681Y-71053853D01*
X86207919Y-70780945D01*
X86207919Y-104569000D01*
X75692000Y-104569000D01*
X75692000Y-62357000D01*
X75692000Y-49403000D01*
X72885300Y-49403000D01*
X72885300Y-32232600D01*
X72885300Y-29260800D01*
X72872855Y-29198235D01*
X72872919Y-29124945D01*
X72844684Y-29056612D01*
X72832130Y-28993496D01*
X72796690Y-28940456D01*
X72768702Y-28872720D01*
X72716466Y-28820392D01*
X72680714Y-28766886D01*
X72627674Y-28731446D01*
X72575895Y-28679576D01*
X72507610Y-28651221D01*
X72454104Y-28615470D01*
X72391540Y-28603025D01*
X72323853Y-28574919D01*
X72249915Y-28574854D01*
X72186800Y-28562300D01*
X72124235Y-28574744D01*
X72050945Y-28574681D01*
X71982612Y-28602915D01*
X71919496Y-28615470D01*
X71866456Y-28650909D01*
X71798720Y-28678898D01*
X71746392Y-28731133D01*
X71692886Y-28766886D01*
X71657446Y-28819925D01*
X71605576Y-28871705D01*
X71577221Y-28939989D01*
X71541470Y-28993496D01*
X71529025Y-29056059D01*
X71500919Y-29123747D01*
X71500854Y-29197684D01*
X71488300Y-29260800D01*
X71488300Y-31943272D01*
X70374761Y-33056810D01*
X70013917Y-33128587D01*
X69614552Y-33395435D01*
X69347704Y-33794800D01*
X69254000Y-34265883D01*
X69254000Y-34314117D01*
X69347704Y-34785200D01*
X69614552Y-35184565D01*
X70013917Y-35451413D01*
X70485000Y-35545117D01*
X70956083Y-35451413D01*
X71355448Y-35184565D01*
X71622296Y-34785200D01*
X71716000Y-34314117D01*
X71716000Y-34265883D01*
X71622296Y-33794800D01*
X71618343Y-33788884D01*
X72680714Y-32726514D01*
X72832130Y-32499904D01*
X72885300Y-32232600D01*
X72885300Y-49403000D01*
X71716000Y-49403000D01*
X71716000Y-36854117D01*
X71716000Y-36805883D01*
X71622296Y-36334800D01*
X71355448Y-35935435D01*
X70956083Y-35668587D01*
X70485000Y-35574883D01*
X70013917Y-35668587D01*
X69614552Y-35935435D01*
X69347704Y-36334800D01*
X69254000Y-36805883D01*
X69254000Y-36854117D01*
X69347704Y-37325200D01*
X69614552Y-37724565D01*
X70013917Y-37991413D01*
X70485000Y-38085117D01*
X70956083Y-37991413D01*
X71355448Y-37724565D01*
X71622296Y-37325200D01*
X71716000Y-36854117D01*
X71716000Y-49403000D01*
X69088000Y-49403000D01*
X69088000Y-50165000D01*
X69088000Y-54594366D01*
X68480841Y-57023000D01*
X64563499Y-57023000D01*
X68286246Y-53300252D01*
X68286250Y-53300250D01*
X68286250Y-53300249D01*
X68390864Y-53143683D01*
X68427600Y-52959000D01*
X68427601Y-52959000D01*
X68427600Y-52958994D01*
X68427600Y-37983717D01*
X68815448Y-37724565D01*
X69082296Y-37325200D01*
X69176000Y-36854117D01*
X69176000Y-36805883D01*
X69176000Y-34314117D01*
X69176000Y-34265883D01*
X69082296Y-33794800D01*
X68815448Y-33395435D01*
X68416083Y-33128587D01*
X67945000Y-33034883D01*
X67473917Y-33128587D01*
X67074552Y-33395435D01*
X66807704Y-33794800D01*
X66714000Y-34265883D01*
X66714000Y-34314117D01*
X66807704Y-34785200D01*
X67074552Y-35184565D01*
X67473917Y-35451413D01*
X67945000Y-35545117D01*
X68416083Y-35451413D01*
X68815448Y-35184565D01*
X69082296Y-34785200D01*
X69176000Y-34314117D01*
X69176000Y-36805883D01*
X69082296Y-36334800D01*
X68815448Y-35935435D01*
X68416083Y-35668587D01*
X67945000Y-35574883D01*
X67473917Y-35668587D01*
X67074552Y-35935435D01*
X66807704Y-36334800D01*
X66714000Y-36805883D01*
X66714000Y-36854117D01*
X66807704Y-37325200D01*
X67074552Y-37724565D01*
X67462400Y-37983717D01*
X67462400Y-52759100D01*
X66643464Y-53578036D01*
X66643464Y-37680000D01*
X66643464Y-35980000D01*
X66643464Y-35140000D01*
X66643464Y-33440000D01*
X66615278Y-33294726D01*
X66531404Y-33167044D01*
X66404784Y-33081574D01*
X66255000Y-33051536D01*
X64555000Y-33051536D01*
X64409726Y-33079722D01*
X64282044Y-33163596D01*
X64196574Y-33290216D01*
X64166536Y-33440000D01*
X64166536Y-35140000D01*
X64194722Y-35285274D01*
X64278596Y-35412956D01*
X64405216Y-35498426D01*
X64555000Y-35528464D01*
X66255000Y-35528464D01*
X66400274Y-35500278D01*
X66527956Y-35416404D01*
X66613426Y-35289784D01*
X66643464Y-35140000D01*
X66643464Y-35980000D01*
X66615278Y-35834726D01*
X66531404Y-35707044D01*
X66404784Y-35621574D01*
X66255000Y-35591536D01*
X64555000Y-35591536D01*
X64409726Y-35619722D01*
X64282044Y-35703596D01*
X64196574Y-35830216D01*
X64166536Y-35980000D01*
X64166536Y-37680000D01*
X64194722Y-37825274D01*
X64278596Y-37952956D01*
X64405216Y-38038426D01*
X64555000Y-38068464D01*
X66255000Y-38068464D01*
X66400274Y-38040278D01*
X66527956Y-37956404D01*
X66613426Y-37829784D01*
X66643464Y-37680000D01*
X66643464Y-53578036D01*
X64059119Y-56162381D01*
X64059119Y-54220145D01*
X63954902Y-53967920D01*
X63855600Y-53868444D01*
X63855600Y-47985546D01*
X63954224Y-47887095D01*
X64058881Y-47635053D01*
X64059119Y-47362145D01*
X63954902Y-47109920D01*
X63762095Y-46916776D01*
X63674780Y-46880519D01*
X63677881Y-46873053D01*
X63678119Y-46600145D01*
X63573902Y-46347920D01*
X63381095Y-46154776D01*
X63129053Y-46050119D01*
X63025717Y-46050028D01*
X62938902Y-45839920D01*
X62746095Y-45646776D01*
X62494053Y-45542119D01*
X62408044Y-45542043D01*
X62408119Y-45457145D01*
X62303902Y-45204920D01*
X62111095Y-45011776D01*
X61859053Y-44907119D01*
X61755717Y-44907028D01*
X61668902Y-44696920D01*
X61476095Y-44503776D01*
X61224053Y-44399119D01*
X61137934Y-44399043D01*
X61138119Y-44187145D01*
X61033902Y-43934920D01*
X60841095Y-43741776D01*
X60589053Y-43637119D01*
X60316145Y-43636881D01*
X60071000Y-43738172D01*
X60071000Y-41170099D01*
X60615446Y-40625652D01*
X60615450Y-40625650D01*
X60615450Y-40625649D01*
X60720064Y-40469083D01*
X60756800Y-40284400D01*
X60756801Y-40284400D01*
X60756800Y-40284394D01*
X60756800Y-26547946D01*
X60855424Y-26449495D01*
X60960081Y-26197453D01*
X60960319Y-25924545D01*
X60856102Y-25672320D01*
X60663295Y-25479176D01*
X60411253Y-25374519D01*
X60138345Y-25374281D01*
X59886120Y-25478498D01*
X59753500Y-25610886D01*
X59753500Y-24638000D01*
X59741055Y-24575435D01*
X59741119Y-24502145D01*
X59712884Y-24433812D01*
X59700330Y-24370696D01*
X59664890Y-24317656D01*
X59636902Y-24249920D01*
X59584666Y-24197592D01*
X59548914Y-24144086D01*
X59495874Y-24108646D01*
X59444095Y-24056776D01*
X59375810Y-24028421D01*
X59322304Y-23992670D01*
X59259740Y-23980225D01*
X59192053Y-23952119D01*
X59118115Y-23952054D01*
X59055000Y-23939500D01*
X58992435Y-23951944D01*
X58919145Y-23951881D01*
X58850812Y-23980115D01*
X58787696Y-23992670D01*
X58734656Y-24028109D01*
X58666920Y-24056098D01*
X58614592Y-24108333D01*
X58561086Y-24144086D01*
X58525646Y-24197125D01*
X58473776Y-24248905D01*
X58445421Y-24317189D01*
X58409670Y-24370696D01*
X58397225Y-24433259D01*
X58369119Y-24500947D01*
X58369054Y-24574884D01*
X58356500Y-24638000D01*
X58356500Y-38064672D01*
X56402086Y-40019086D01*
X56250670Y-40245695D01*
X56197500Y-40513000D01*
X56197500Y-50764672D01*
X55206000Y-51756172D01*
X55206000Y-36854117D01*
X55206000Y-36805883D01*
X55206000Y-34314117D01*
X55206000Y-34265883D01*
X55112296Y-33794800D01*
X54845448Y-33395435D01*
X54446083Y-33128587D01*
X53975000Y-33034883D01*
X53503917Y-33128587D01*
X53104552Y-33395435D01*
X52837704Y-33794800D01*
X52744000Y-34265883D01*
X52744000Y-34314117D01*
X52837704Y-34785200D01*
X53104552Y-35184565D01*
X53503917Y-35451413D01*
X53975000Y-35545117D01*
X54446083Y-35451413D01*
X54845448Y-35184565D01*
X55112296Y-34785200D01*
X55206000Y-34314117D01*
X55206000Y-36805883D01*
X55112296Y-36334800D01*
X54845448Y-35935435D01*
X54446083Y-35668587D01*
X53975000Y-35574883D01*
X53503917Y-35668587D01*
X53104552Y-35935435D01*
X52837704Y-36334800D01*
X52744000Y-36805883D01*
X52744000Y-36854117D01*
X52837704Y-37325200D01*
X53104552Y-37724565D01*
X53503917Y-37991413D01*
X53975000Y-38085117D01*
X54446083Y-37991413D01*
X54845448Y-37724565D01*
X55112296Y-37325200D01*
X55206000Y-36854117D01*
X55206000Y-51756172D01*
X52338086Y-54624086D01*
X52186670Y-54850695D01*
X52133500Y-55118000D01*
X52133500Y-58148277D01*
X52078095Y-58092776D01*
X51826053Y-57988119D01*
X51553145Y-57987881D01*
X51319550Y-58084400D01*
X51305464Y-58084400D01*
X51305464Y-57817000D01*
X51277278Y-57671726D01*
X51193404Y-57544044D01*
X51066784Y-57458574D01*
X50917000Y-57428536D01*
X49667000Y-57428536D01*
X49521726Y-57456722D01*
X49394044Y-57540596D01*
X49308574Y-57667216D01*
X49278536Y-57817000D01*
X49278536Y-59317000D01*
X49306722Y-59462274D01*
X49390596Y-59589956D01*
X49517216Y-59675426D01*
X49549997Y-59682000D01*
X49540690Y-59682000D01*
X49307301Y-59778673D01*
X49128673Y-59957302D01*
X49032000Y-60190691D01*
X49032000Y-60781250D01*
X49190750Y-60940000D01*
X50165000Y-60940000D01*
X50165000Y-60920000D01*
X50419000Y-60920000D01*
X50419000Y-60940000D01*
X51393250Y-60940000D01*
X51552000Y-60781250D01*
X51552000Y-60190691D01*
X51455327Y-59957302D01*
X51276699Y-59778673D01*
X51043310Y-59682000D01*
X51037936Y-59682000D01*
X51062274Y-59677278D01*
X51189956Y-59593404D01*
X51275426Y-59466784D01*
X51305464Y-59317000D01*
X51305464Y-59257532D01*
X51551947Y-59359881D01*
X51824855Y-59360119D01*
X52077080Y-59255902D01*
X52133500Y-59199580D01*
X52133500Y-60706000D01*
X52145944Y-60768564D01*
X52145881Y-60841855D01*
X52174115Y-60910187D01*
X52186670Y-60973304D01*
X52222109Y-61026343D01*
X52250098Y-61094080D01*
X52302333Y-61146407D01*
X52338086Y-61199914D01*
X52391125Y-61235353D01*
X52442905Y-61287224D01*
X52511189Y-61315578D01*
X52564696Y-61351330D01*
X52627259Y-61363774D01*
X52694947Y-61391881D01*
X52768884Y-61391945D01*
X52832000Y-61404500D01*
X52894564Y-61392055D01*
X52967855Y-61392119D01*
X53036187Y-61363884D01*
X53099304Y-61351330D01*
X53152343Y-61315890D01*
X53220080Y-61287902D01*
X53272407Y-61235666D01*
X53325914Y-61199914D01*
X53361353Y-61146874D01*
X53413224Y-61095095D01*
X53441578Y-61026810D01*
X53477330Y-60973304D01*
X53489774Y-60910740D01*
X53517881Y-60843053D01*
X53517945Y-60769115D01*
X53530500Y-60706000D01*
X53530500Y-55407328D01*
X54565107Y-54372720D01*
X54515000Y-54493690D01*
X54515000Y-54746309D01*
X54515000Y-54959250D01*
X54673750Y-55118000D01*
X55773000Y-55118000D01*
X55773000Y-54143750D01*
X55614250Y-53985000D01*
X55023691Y-53985000D01*
X54902720Y-54035107D01*
X57389914Y-51547914D01*
X57425353Y-51494874D01*
X57425354Y-51494874D01*
X57477224Y-51443095D01*
X57505577Y-51374812D01*
X57505578Y-51374810D01*
X57541330Y-51321305D01*
X57541330Y-51321304D01*
X57553774Y-51258740D01*
X57581881Y-51191053D01*
X57581945Y-51117116D01*
X57581945Y-51117115D01*
X57594500Y-51054000D01*
X57594500Y-40802328D01*
X59548914Y-38847914D01*
X59700330Y-38621305D01*
X59700330Y-38621304D01*
X59753500Y-38354000D01*
X59753500Y-26509788D01*
X59791600Y-26547955D01*
X59791600Y-40084500D01*
X59247150Y-40628950D01*
X59142536Y-40785517D01*
X59105800Y-40970200D01*
X59105800Y-44602400D01*
X59142536Y-44787083D01*
X59247150Y-44943650D01*
X59385200Y-45081700D01*
X59385200Y-54319230D01*
X59299784Y-54261574D01*
X59150000Y-54231536D01*
X58724036Y-54231536D01*
X58597997Y-54105497D01*
X58598119Y-53966145D01*
X58493902Y-53713920D01*
X58301095Y-53520776D01*
X58049053Y-53416119D01*
X57776145Y-53415881D01*
X57523920Y-53520098D01*
X57330776Y-53712905D01*
X57226119Y-53964947D01*
X57225881Y-54237855D01*
X57310379Y-54442356D01*
X57291574Y-54470216D01*
X57285000Y-54502997D01*
X57285000Y-54493690D01*
X57188327Y-54260301D01*
X57009698Y-54081673D01*
X56776309Y-53985000D01*
X56185750Y-53985000D01*
X56027000Y-54143750D01*
X56027000Y-55118000D01*
X56047000Y-55118000D01*
X56047000Y-55372000D01*
X56027000Y-55372000D01*
X56027000Y-56346250D01*
X56185750Y-56505000D01*
X56776309Y-56505000D01*
X57009698Y-56408327D01*
X57188327Y-56229699D01*
X57285000Y-55996310D01*
X57285000Y-55990936D01*
X57289722Y-56015274D01*
X57373596Y-56142956D01*
X57500216Y-56228426D01*
X57650000Y-56258464D01*
X59150000Y-56258464D01*
X59295274Y-56230278D01*
X59385200Y-56171205D01*
X59385200Y-57407300D01*
X55773000Y-61019500D01*
X55773000Y-56346250D01*
X55773000Y-55372000D01*
X54673750Y-55372000D01*
X54515000Y-55530750D01*
X54515000Y-55743691D01*
X54515000Y-55996310D01*
X54611673Y-56229699D01*
X54790302Y-56408327D01*
X55023691Y-56505000D01*
X55614250Y-56505000D01*
X55773000Y-56346250D01*
X55773000Y-61019500D01*
X53811550Y-62980950D01*
X53706936Y-63137517D01*
X53670200Y-63322200D01*
X53670200Y-66827400D01*
X53706936Y-67012083D01*
X53811550Y-67168650D01*
X55727600Y-69084700D01*
X55727600Y-82854172D01*
X55720520Y-82857098D01*
X55527376Y-83049905D01*
X55422719Y-83301947D01*
X55422481Y-83574855D01*
X55526698Y-83827080D01*
X55719505Y-84020224D01*
X55971547Y-84124881D01*
X56244455Y-84125119D01*
X56496680Y-84020902D01*
X56689824Y-83828095D01*
X56794481Y-83576053D01*
X56794719Y-83303145D01*
X56692800Y-83056481D01*
X56692800Y-68884800D01*
X56656064Y-68700117D01*
X56551450Y-68543550D01*
X54635400Y-66627500D01*
X54635400Y-63522099D01*
X60019913Y-58137585D01*
X60019881Y-58174855D01*
X60124098Y-58427080D01*
X60316905Y-58620224D01*
X60568947Y-58724881D01*
X60841855Y-58725119D01*
X61094080Y-58620902D01*
X61287224Y-58428095D01*
X61391881Y-58176053D01*
X61392119Y-57903145D01*
X61388602Y-57894633D01*
X61475080Y-57858902D01*
X61668224Y-57666095D01*
X61772881Y-57414053D01*
X61773066Y-57201045D01*
X61857855Y-57201119D01*
X62110080Y-57096902D01*
X62303224Y-56904095D01*
X62407881Y-56652053D01*
X62407956Y-56566044D01*
X62492855Y-56566119D01*
X62745080Y-56461902D01*
X62938224Y-56269095D01*
X63042881Y-56017053D01*
X63043066Y-55804045D01*
X63127855Y-55804119D01*
X63380080Y-55699902D01*
X63573224Y-55507095D01*
X63677881Y-55255053D01*
X63678119Y-54982145D01*
X63674602Y-54973633D01*
X63761080Y-54937902D01*
X63954224Y-54745095D01*
X64058881Y-54493053D01*
X64059119Y-54220145D01*
X64059119Y-56162381D01*
X62904750Y-57316750D01*
X62800136Y-57473317D01*
X62763400Y-57658000D01*
X62763400Y-57683400D01*
X62763400Y-66929000D01*
X62800136Y-67113683D01*
X62904750Y-67270250D01*
X63725747Y-68091246D01*
X63725750Y-68091250D01*
X63882317Y-68195864D01*
X64067000Y-68232600D01*
X66246453Y-68232600D01*
X66344905Y-68331224D01*
X66596947Y-68435881D01*
X66869855Y-68436119D01*
X67122080Y-68331902D01*
X67315224Y-68139095D01*
X67419881Y-67887053D01*
X67420119Y-67614145D01*
X67315902Y-67361920D01*
X67123095Y-67168776D01*
X66871053Y-67064119D01*
X66598145Y-67063881D01*
X66345920Y-67168098D01*
X66246444Y-67267400D01*
X64266899Y-67267400D01*
X63728600Y-66729100D01*
X63728600Y-57857899D01*
X64008000Y-57578499D01*
X64008000Y-57785000D01*
X64008000Y-59182000D01*
X67945000Y-59182000D01*
X69088000Y-59182000D01*
X69088000Y-62357000D01*
X75692000Y-62357000D01*
X75692000Y-104569000D01*
X71723464Y-104569000D01*
X71723464Y-93560000D01*
X71723464Y-91860000D01*
X71695278Y-91714726D01*
X71611404Y-91587044D01*
X71484784Y-91501574D01*
X71335000Y-91471536D01*
X69635000Y-91471536D01*
X69489726Y-91499722D01*
X69362044Y-91583596D01*
X69276574Y-91710216D01*
X69246536Y-91860000D01*
X69246536Y-93560000D01*
X69274722Y-93705274D01*
X69358596Y-93832956D01*
X69485216Y-93918426D01*
X69635000Y-93948464D01*
X71335000Y-93948464D01*
X71480274Y-93920278D01*
X71607956Y-93836404D01*
X71693426Y-93709784D01*
X71723464Y-93560000D01*
X71723464Y-104569000D01*
X69176000Y-104569000D01*
X69176000Y-92734117D01*
X69176000Y-92685883D01*
X69082296Y-92214800D01*
X68815448Y-91815435D01*
X68427600Y-91556282D01*
X68427600Y-80619605D01*
X68427600Y-80619600D01*
X68427601Y-80619600D01*
X68390864Y-80434917D01*
X68286250Y-80278350D01*
X62585797Y-74577897D01*
X62585919Y-74438545D01*
X62481702Y-74186320D01*
X62288895Y-73993176D01*
X62036853Y-73888519D01*
X61763945Y-73888281D01*
X61511720Y-73992498D01*
X61318576Y-74185305D01*
X61213919Y-74437347D01*
X61213681Y-74710255D01*
X61219345Y-74723963D01*
X61206920Y-74729098D01*
X61013776Y-74921905D01*
X60909119Y-75173947D01*
X60909088Y-75209400D01*
X60579000Y-75209400D01*
X60452000Y-75209400D01*
X60267317Y-75246136D01*
X60110750Y-75350750D01*
X60110747Y-75350753D01*
X59729750Y-75731750D01*
X59625136Y-75888317D01*
X59588400Y-76073000D01*
X59588400Y-82169000D01*
X59625136Y-82353683D01*
X59639041Y-82374494D01*
X59638881Y-82558855D01*
X59743098Y-82811080D01*
X59935905Y-83004224D01*
X60187947Y-83108881D01*
X60460855Y-83109119D01*
X60713080Y-83004902D01*
X60906224Y-82812095D01*
X61010881Y-82560053D01*
X61011119Y-82287145D01*
X60906902Y-82034920D01*
X60714095Y-81841776D01*
X60553600Y-81775132D01*
X60553600Y-78922666D01*
X60697905Y-79067224D01*
X60949947Y-79171881D01*
X61222855Y-79172119D01*
X61475080Y-79067902D01*
X61620400Y-78922835D01*
X61620400Y-79014453D01*
X61521776Y-79112905D01*
X61417119Y-79364947D01*
X61416881Y-79637855D01*
X61521098Y-79890080D01*
X61713905Y-80083224D01*
X61965947Y-80187881D01*
X62238855Y-80188119D01*
X62491080Y-80083902D01*
X62684224Y-79891095D01*
X62788881Y-79639053D01*
X62789119Y-79366145D01*
X62684902Y-79113920D01*
X62585600Y-79014444D01*
X62585600Y-77449546D01*
X62684224Y-77351095D01*
X62788881Y-77099053D01*
X62789119Y-76826145D01*
X62684902Y-76573920D01*
X62492095Y-76380776D01*
X62240053Y-76276119D01*
X61967145Y-76275881D01*
X61772975Y-76356110D01*
X61773119Y-76191145D01*
X61692935Y-75997085D01*
X61730855Y-75997119D01*
X61983080Y-75892902D01*
X62176224Y-75700095D01*
X62225155Y-75582255D01*
X67462400Y-80819500D01*
X67462400Y-91556282D01*
X67074552Y-91815435D01*
X66807704Y-92214800D01*
X66714000Y-92685883D01*
X66714000Y-92734117D01*
X66807704Y-93205200D01*
X67074552Y-93604565D01*
X67473917Y-93871413D01*
X67945000Y-93965117D01*
X68416083Y-93871413D01*
X68815448Y-93604565D01*
X69082296Y-93205200D01*
X69176000Y-92734117D01*
X69176000Y-104569000D01*
X66636000Y-104569000D01*
X66636000Y-92734117D01*
X66636000Y-92685883D01*
X66542296Y-92214800D01*
X66275448Y-91815435D01*
X65876083Y-91548587D01*
X65405000Y-91454883D01*
X64933917Y-91548587D01*
X64534552Y-91815435D01*
X64267704Y-92214800D01*
X64259917Y-92253946D01*
X64060183Y-91828642D01*
X63631924Y-91438355D01*
X63221890Y-91268524D01*
X62992000Y-91389845D01*
X62992000Y-92583000D01*
X63012000Y-92583000D01*
X63012000Y-92837000D01*
X62992000Y-92837000D01*
X62992000Y-94030155D01*
X63221890Y-94151476D01*
X63631924Y-93981645D01*
X64060183Y-93591358D01*
X64259917Y-93166053D01*
X64267704Y-93205200D01*
X64534552Y-93604565D01*
X64933917Y-93871413D01*
X65405000Y-93965117D01*
X65876083Y-93871413D01*
X66275448Y-93604565D01*
X66542296Y-93205200D01*
X66636000Y-92734117D01*
X66636000Y-104569000D01*
X62738000Y-104569000D01*
X62738000Y-94030155D01*
X62738000Y-92837000D01*
X62738000Y-92583000D01*
X62738000Y-91389845D01*
X62508110Y-91268524D01*
X62098076Y-91438355D01*
X61669817Y-91828642D01*
X61423514Y-92353108D01*
X61544181Y-92583000D01*
X62738000Y-92583000D01*
X62738000Y-92837000D01*
X61544181Y-92837000D01*
X61423514Y-93066892D01*
X61669817Y-93591358D01*
X62098076Y-93981645D01*
X62508110Y-94151476D01*
X62738000Y-94030155D01*
X62738000Y-104569000D01*
X59106119Y-104569000D01*
X59106119Y-82033145D01*
X59001902Y-81780920D01*
X58902600Y-81681444D01*
X58902600Y-75504758D01*
X58978881Y-75321053D01*
X58979119Y-75048145D01*
X58874902Y-74795920D01*
X58682095Y-74602776D01*
X58430053Y-74498119D01*
X58157145Y-74497881D01*
X57904920Y-74602098D01*
X57711776Y-74794905D01*
X57607119Y-75046947D01*
X57606881Y-75319855D01*
X57711098Y-75572080D01*
X57903905Y-75765224D01*
X57937400Y-75779132D01*
X57937400Y-81681453D01*
X57838776Y-81779905D01*
X57734119Y-82031947D01*
X57733881Y-82304855D01*
X57838098Y-82557080D01*
X58030905Y-82750224D01*
X58282947Y-82854881D01*
X58555855Y-82855119D01*
X58808080Y-82750902D01*
X59001224Y-82558095D01*
X59105881Y-82306053D01*
X59106119Y-82033145D01*
X59106119Y-104569000D01*
X54407119Y-104569000D01*
X54407119Y-79366145D01*
X54302902Y-79113920D01*
X54110095Y-78920776D01*
X53858053Y-78816119D01*
X53585145Y-78815881D01*
X53332920Y-78920098D01*
X53139776Y-79112905D01*
X53035119Y-79364947D01*
X53034996Y-79505504D01*
X52886100Y-79654400D01*
X30048200Y-79654400D01*
X26279972Y-79654400D01*
X26368423Y-79566103D01*
X26542801Y-79146154D01*
X26543198Y-78691441D01*
X26369554Y-78271188D01*
X26292400Y-78193900D01*
X52844700Y-78193900D01*
X53029383Y-78157164D01*
X53185950Y-78052550D01*
X53463502Y-77774997D01*
X53602855Y-77775119D01*
X53855080Y-77670902D01*
X54048224Y-77478095D01*
X54152881Y-77226053D01*
X54153119Y-76953145D01*
X54048902Y-76700920D01*
X53856095Y-76507776D01*
X53604053Y-76403119D01*
X53331145Y-76402881D01*
X53078920Y-76507098D01*
X52885776Y-76699905D01*
X52781119Y-76951947D01*
X52780996Y-77092503D01*
X52644800Y-77228700D01*
X26292694Y-77228700D01*
X26368423Y-77153103D01*
X26542801Y-76733154D01*
X26543198Y-76278441D01*
X26369554Y-75858188D01*
X26305078Y-75793600D01*
X26851100Y-75793600D01*
X27852750Y-76795250D01*
X28009317Y-76899864D01*
X28194000Y-76936600D01*
X51943000Y-76936600D01*
X52127683Y-76899864D01*
X52284250Y-76795250D01*
X52574502Y-76504997D01*
X52713855Y-76505119D01*
X52966080Y-76400902D01*
X53159224Y-76208095D01*
X53263881Y-75956053D01*
X53264119Y-75683145D01*
X53159902Y-75430920D01*
X52967095Y-75237776D01*
X52777465Y-75159034D01*
X52904900Y-75031600D01*
X53340000Y-75031600D01*
X53524683Y-74994864D01*
X53545494Y-74980958D01*
X53729855Y-74981119D01*
X53982080Y-74876902D01*
X54175224Y-74684095D01*
X54279881Y-74432053D01*
X54280119Y-74159145D01*
X54175902Y-73906920D01*
X53983095Y-73713776D01*
X53731053Y-73609119D01*
X53458145Y-73608881D01*
X53205920Y-73713098D01*
X53012776Y-73905905D01*
X52946132Y-74066400D01*
X52705000Y-74066400D01*
X52520317Y-74103136D01*
X52363750Y-74207750D01*
X51552000Y-75019500D01*
X51552000Y-61943309D01*
X51552000Y-61352750D01*
X51393250Y-61194000D01*
X50419000Y-61194000D01*
X50419000Y-62293250D01*
X50577750Y-62452000D01*
X50790691Y-62452000D01*
X51043310Y-62452000D01*
X51276699Y-62355327D01*
X51455327Y-62176698D01*
X51552000Y-61943309D01*
X51552000Y-75019500D01*
X51235100Y-75336400D01*
X29790900Y-75336400D01*
X29041197Y-74586697D01*
X29072947Y-74599881D01*
X29345855Y-74600119D01*
X29598080Y-74495902D01*
X29791224Y-74303095D01*
X29895881Y-74051053D01*
X29896119Y-73778145D01*
X29791902Y-73525920D01*
X29599095Y-73332776D01*
X29347053Y-73228119D01*
X29206496Y-73227996D01*
X29184600Y-73206100D01*
X29184600Y-72771000D01*
X29147864Y-72586317D01*
X29043250Y-72429750D01*
X26757250Y-70143750D01*
X26600683Y-70039136D01*
X26416000Y-70002400D01*
X26279972Y-70002400D01*
X26368423Y-69914103D01*
X26542801Y-69494154D01*
X26543198Y-69039441D01*
X26369554Y-68619188D01*
X26305078Y-68554600D01*
X27232100Y-68554600D01*
X31027750Y-72350250D01*
X31184317Y-72454864D01*
X31369000Y-72491601D01*
X31369000Y-72491600D01*
X31369005Y-72491600D01*
X49644202Y-72491600D01*
X49710098Y-72651080D01*
X49902905Y-72844224D01*
X50154947Y-72948881D01*
X50427855Y-72949119D01*
X50680080Y-72844902D01*
X50873224Y-72652095D01*
X50977881Y-72400053D01*
X50978119Y-72127145D01*
X50873902Y-71874920D01*
X50681095Y-71681776D01*
X50429053Y-71577119D01*
X50243367Y-71576957D01*
X50222683Y-71563136D01*
X50165000Y-71551662D01*
X50165000Y-62293250D01*
X50165000Y-61194000D01*
X49190750Y-61194000D01*
X49032000Y-61352750D01*
X49032000Y-61943309D01*
X49128673Y-62176698D01*
X49307301Y-62355327D01*
X49540690Y-62452000D01*
X49793309Y-62452000D01*
X50006250Y-62452000D01*
X50165000Y-62293250D01*
X50165000Y-71551662D01*
X50038000Y-71526400D01*
X31568899Y-71526400D01*
X27773250Y-67730750D01*
X27616683Y-67626136D01*
X27432000Y-67589400D01*
X26279972Y-67589400D01*
X26368423Y-67501103D01*
X26542801Y-67081154D01*
X26543198Y-66626441D01*
X26432126Y-66357626D01*
X27979750Y-67905250D01*
X28136317Y-68009864D01*
X28321000Y-68046600D01*
X45720000Y-68046600D01*
X45904683Y-68009864D01*
X46061250Y-67905250D01*
X47113501Y-66852997D01*
X47252855Y-66853119D01*
X47505080Y-66748902D01*
X47698224Y-66556095D01*
X47752000Y-66426588D01*
X47752000Y-68757172D01*
X47744920Y-68760098D01*
X47551776Y-68952905D01*
X47447119Y-69204947D01*
X47446881Y-69477855D01*
X47551098Y-69730080D01*
X47743905Y-69923224D01*
X47995947Y-70027881D01*
X48268855Y-70028119D01*
X48521080Y-69923902D01*
X48714224Y-69731095D01*
X48818881Y-69479053D01*
X48819119Y-69206145D01*
X48768000Y-69082427D01*
X48768000Y-56598420D01*
X51540210Y-53826210D01*
X51650331Y-53661403D01*
X51689000Y-53467000D01*
X51689000Y-38034593D01*
X51906083Y-37991413D01*
X52305448Y-37724565D01*
X52572296Y-37325200D01*
X52666000Y-36854117D01*
X52666000Y-36805883D01*
X52666000Y-34314117D01*
X52666000Y-34265883D01*
X52572296Y-33794800D01*
X52305448Y-33395435D01*
X51943000Y-33153254D01*
X51943000Y-32512000D01*
X51904331Y-32317597D01*
X51904331Y-32317596D01*
X51794210Y-32152790D01*
X50651210Y-31009790D01*
X50486403Y-30899669D01*
X50292000Y-30861000D01*
X45085000Y-30861000D01*
X44890597Y-30899669D01*
X44725790Y-31009790D01*
X43963790Y-31771790D01*
X43853669Y-31936597D01*
X43815000Y-32131000D01*
X43815000Y-38608000D01*
X43853669Y-38802403D01*
X43963790Y-38967210D01*
X49022000Y-44025420D01*
X49022000Y-52572411D01*
X48971119Y-52694947D01*
X48970881Y-52967855D01*
X49075098Y-53220080D01*
X49267905Y-53413224D01*
X49519947Y-53517881D01*
X49792855Y-53518119D01*
X50045080Y-53413902D01*
X50238224Y-53221095D01*
X50342881Y-52969053D01*
X50343119Y-52696145D01*
X50238902Y-52443920D01*
X50133464Y-52338297D01*
X50133464Y-37680000D01*
X50133464Y-35980000D01*
X50105278Y-35834726D01*
X50021404Y-35707044D01*
X49894784Y-35621574D01*
X49745000Y-35591536D01*
X49403000Y-35591536D01*
X49403000Y-35528464D01*
X49745000Y-35528464D01*
X49890274Y-35500278D01*
X50017956Y-35416404D01*
X50103426Y-35289784D01*
X50133464Y-35140000D01*
X50133464Y-33440000D01*
X50105278Y-33294726D01*
X50021404Y-33167044D01*
X49894784Y-33081574D01*
X49745000Y-33051536D01*
X48045000Y-33051536D01*
X47899726Y-33079722D01*
X47772044Y-33163596D01*
X47686574Y-33290216D01*
X47656536Y-33440000D01*
X47656536Y-35140000D01*
X47684722Y-35285274D01*
X47768596Y-35412956D01*
X47895216Y-35498426D01*
X48045000Y-35528464D01*
X48387000Y-35528464D01*
X48387000Y-35591536D01*
X48045000Y-35591536D01*
X47899726Y-35619722D01*
X47772044Y-35703596D01*
X47686574Y-35830216D01*
X47656536Y-35980000D01*
X47656536Y-37680000D01*
X47684722Y-37825274D01*
X47768596Y-37952956D01*
X47895216Y-38038426D01*
X48045000Y-38068464D01*
X49745000Y-38068464D01*
X49890274Y-38040278D01*
X50017956Y-37956404D01*
X50103426Y-37829784D01*
X50133464Y-37680000D01*
X50133464Y-52338297D01*
X50046095Y-52250776D01*
X50038000Y-52247414D01*
X50038000Y-43815000D01*
X49999331Y-43620597D01*
X49889210Y-43455790D01*
X44831000Y-38397580D01*
X44831000Y-32341420D01*
X45295420Y-31877000D01*
X50081580Y-31877000D01*
X50927000Y-32722420D01*
X50927000Y-33153254D01*
X50564552Y-33395435D01*
X50297704Y-33794800D01*
X50204000Y-34265883D01*
X50204000Y-34314117D01*
X50297704Y-34785200D01*
X50564552Y-35184565D01*
X50963917Y-35451413D01*
X51435000Y-35545117D01*
X51906083Y-35451413D01*
X52305448Y-35184565D01*
X52572296Y-34785200D01*
X52666000Y-34314117D01*
X52666000Y-36805883D01*
X52572296Y-36334800D01*
X52305448Y-35935435D01*
X51906083Y-35668587D01*
X51435000Y-35574883D01*
X50963917Y-35668587D01*
X50564552Y-35935435D01*
X50297704Y-36334800D01*
X50204000Y-36805883D01*
X50204000Y-36854117D01*
X50297704Y-37325200D01*
X50564552Y-37724565D01*
X50673000Y-37797027D01*
X50673000Y-53256580D01*
X47900790Y-56028790D01*
X47790669Y-56193597D01*
X47752000Y-56388000D01*
X47752000Y-65907427D01*
X47698902Y-65778920D01*
X47506095Y-65585776D01*
X47254053Y-65481119D01*
X46981145Y-65480881D01*
X46728920Y-65585098D01*
X46535776Y-65777905D01*
X46431119Y-66029947D01*
X46430996Y-66170504D01*
X45520100Y-67081400D01*
X28520900Y-67081400D01*
X26757250Y-65317750D01*
X26600683Y-65213136D01*
X26416000Y-65176400D01*
X26279972Y-65176400D01*
X26368423Y-65088103D01*
X26542801Y-64668154D01*
X26543198Y-64213441D01*
X26369554Y-63793188D01*
X26305078Y-63728600D01*
X26343100Y-63728600D01*
X28360750Y-65746250D01*
X28517317Y-65850864D01*
X28702000Y-65887600D01*
X43688000Y-65887600D01*
X43872683Y-65850864D01*
X44029250Y-65746250D01*
X44192502Y-65582997D01*
X44331855Y-65583119D01*
X44584080Y-65478902D01*
X44777224Y-65286095D01*
X44881881Y-65034053D01*
X44882119Y-64761145D01*
X44777902Y-64508920D01*
X44585095Y-64315776D01*
X44333053Y-64211119D01*
X44060145Y-64210881D01*
X43807920Y-64315098D01*
X43614776Y-64507905D01*
X43510119Y-64759947D01*
X43509996Y-64900503D01*
X43488100Y-64922400D01*
X28901900Y-64922400D01*
X26884250Y-62904750D01*
X26727683Y-62800136D01*
X26543000Y-62763400D01*
X26279972Y-62763400D01*
X26368423Y-62675103D01*
X26542801Y-62255154D01*
X26543198Y-61800441D01*
X26369554Y-61380188D01*
X26305078Y-61315600D01*
X26343100Y-61315600D01*
X29249750Y-64222250D01*
X29406317Y-64326864D01*
X29591000Y-64363600D01*
X42545000Y-64363600D01*
X42729683Y-64326864D01*
X42886250Y-64222250D01*
X42922502Y-64185997D01*
X43061855Y-64186119D01*
X43314080Y-64081902D01*
X43507224Y-63889095D01*
X43611881Y-63637053D01*
X43612119Y-63364145D01*
X43507902Y-63111920D01*
X43315095Y-62918776D01*
X43063053Y-62814119D01*
X42790145Y-62813881D01*
X42537920Y-62918098D01*
X42344776Y-63110905D01*
X42240119Y-63362947D01*
X42240088Y-63398400D01*
X29790900Y-63398400D01*
X26884250Y-60491750D01*
X26727683Y-60387136D01*
X26543000Y-60350400D01*
X26279972Y-60350400D01*
X26368423Y-60262103D01*
X26542801Y-59842154D01*
X26543198Y-59387441D01*
X26432126Y-59118626D01*
X29159002Y-61845502D01*
X29158881Y-61984855D01*
X29263098Y-62237080D01*
X29455905Y-62430224D01*
X29707947Y-62534881D01*
X29980855Y-62535119D01*
X30233080Y-62430902D01*
X30426224Y-62238095D01*
X30530881Y-61986053D01*
X30531119Y-61713145D01*
X30426902Y-61460920D01*
X30234095Y-61267776D01*
X29982053Y-61163119D01*
X29841496Y-61162996D01*
X26757250Y-58078750D01*
X26600683Y-57974136D01*
X26416000Y-57937400D01*
X26279972Y-57937400D01*
X26368423Y-57849103D01*
X26542801Y-57429154D01*
X26543198Y-56974441D01*
X26432126Y-56705626D01*
X29413002Y-59686501D01*
X29412881Y-59825855D01*
X29517098Y-60078080D01*
X29709905Y-60271224D01*
X29961947Y-60375881D01*
X30234855Y-60376119D01*
X30487080Y-60271902D01*
X30680224Y-60079095D01*
X30784881Y-59827053D01*
X30785119Y-59554145D01*
X30680902Y-59301920D01*
X30488095Y-59108776D01*
X30236053Y-59004119D01*
X30095495Y-59003996D01*
X26757250Y-55665750D01*
X26600683Y-55561136D01*
X26416000Y-55524400D01*
X26279972Y-55524400D01*
X26368423Y-55436103D01*
X26542801Y-55016154D01*
X26543198Y-54561441D01*
X26432126Y-54292626D01*
X28143002Y-56003502D01*
X28142881Y-56142855D01*
X28247098Y-56395080D01*
X28439905Y-56588224D01*
X28691947Y-56692881D01*
X28964855Y-56693119D01*
X29217080Y-56588902D01*
X29410224Y-56396095D01*
X29514881Y-56144053D01*
X29515119Y-55871145D01*
X29410902Y-55618920D01*
X29218095Y-55425776D01*
X28966053Y-55321119D01*
X28825496Y-55320996D01*
X26757250Y-53252750D01*
X26600683Y-53148136D01*
X26416000Y-53111400D01*
X26279972Y-53111400D01*
X26368423Y-53023103D01*
X26542801Y-52603154D01*
X26543198Y-52148441D01*
X26369554Y-51728188D01*
X26305078Y-51663600D01*
X26851100Y-51663600D01*
X29667002Y-54479502D01*
X29666881Y-54618855D01*
X29771098Y-54871080D01*
X29963905Y-55064224D01*
X30215947Y-55168881D01*
X30488855Y-55169119D01*
X30741080Y-55064902D01*
X30934224Y-54872095D01*
X31038881Y-54620053D01*
X31039119Y-54347145D01*
X30934902Y-54094920D01*
X30742095Y-53901776D01*
X30490053Y-53797119D01*
X30349496Y-53796996D01*
X27392250Y-50839750D01*
X27235683Y-50735136D01*
X27051000Y-50698400D01*
X26279972Y-50698400D01*
X26368423Y-50610103D01*
X26542801Y-50190154D01*
X26543198Y-49735441D01*
X26395341Y-49377600D01*
X27359100Y-49377600D01*
X30048002Y-52066502D01*
X30047881Y-52205855D01*
X30152098Y-52458080D01*
X30344905Y-52651224D01*
X30596947Y-52755881D01*
X30869855Y-52756119D01*
X31122080Y-52651902D01*
X31315224Y-52459095D01*
X31419881Y-52207053D01*
X31420119Y-51934145D01*
X31315902Y-51681920D01*
X31123095Y-51488776D01*
X30871053Y-51384119D01*
X30730496Y-51383996D01*
X27900250Y-48553750D01*
X27743683Y-48449136D01*
X27559000Y-48412400D01*
X26152750Y-48412400D01*
X26368423Y-48197103D01*
X26542801Y-47777154D01*
X26543198Y-47322441D01*
X26369554Y-46902188D01*
X26305078Y-46837600D01*
X27486100Y-46837600D01*
X31064002Y-50415502D01*
X31063881Y-50554855D01*
X31168098Y-50807080D01*
X31360905Y-51000224D01*
X31612947Y-51104881D01*
X31885855Y-51105119D01*
X32138080Y-51000902D01*
X32331224Y-50808095D01*
X32435881Y-50556053D01*
X32436119Y-50283145D01*
X32331902Y-50030920D01*
X32139095Y-49837776D01*
X31887053Y-49733119D01*
X31746496Y-49732996D01*
X28027250Y-46013750D01*
X27870683Y-45909136D01*
X27686000Y-45872400D01*
X26279972Y-45872400D01*
X26368423Y-45784103D01*
X26542801Y-45364154D01*
X26543198Y-44909441D01*
X26369554Y-44489188D01*
X26305078Y-44424600D01*
X27740100Y-44424600D01*
X32080002Y-48764501D01*
X32079881Y-48903855D01*
X32184098Y-49156080D01*
X32376905Y-49349224D01*
X32628947Y-49453881D01*
X32901855Y-49454119D01*
X33154080Y-49349902D01*
X33347224Y-49157095D01*
X33451881Y-48905053D01*
X33452119Y-48632145D01*
X33347902Y-48379920D01*
X33155095Y-48186776D01*
X32903053Y-48082119D01*
X32762495Y-48081996D01*
X32254051Y-47573552D01*
X32385000Y-47599600D01*
X33421453Y-47599600D01*
X33519905Y-47698224D01*
X33771947Y-47802881D01*
X34044855Y-47803119D01*
X34297080Y-47698902D01*
X34490224Y-47506095D01*
X34594881Y-47254053D01*
X34595119Y-46981145D01*
X34490902Y-46728920D01*
X34298095Y-46535776D01*
X34046053Y-46431119D01*
X33773145Y-46430881D01*
X33520920Y-46535098D01*
X33421444Y-46634400D01*
X32584899Y-46634400D01*
X27138250Y-41187750D01*
X26981683Y-41083136D01*
X26797000Y-41046400D01*
X26279972Y-41046400D01*
X26368423Y-40958103D01*
X26542801Y-40538154D01*
X26543198Y-40083441D01*
X26369554Y-39663188D01*
X26305078Y-39598600D01*
X27232100Y-39598600D01*
X32842002Y-45208502D01*
X32841881Y-45347855D01*
X32946098Y-45600080D01*
X33138905Y-45793224D01*
X33390947Y-45897881D01*
X33663855Y-45898119D01*
X33916080Y-45793902D01*
X34109224Y-45601095D01*
X34213881Y-45349053D01*
X34214119Y-45076145D01*
X34109902Y-44823920D01*
X33917095Y-44630776D01*
X33665053Y-44526119D01*
X33524496Y-44525996D01*
X27773250Y-38774750D01*
X27616683Y-38670136D01*
X27432000Y-38633400D01*
X26279972Y-38633400D01*
X26368423Y-38545103D01*
X26542801Y-38125154D01*
X26543198Y-37670441D01*
X26369554Y-37250188D01*
X26305078Y-37185600D01*
X27486100Y-37185600D01*
X33985002Y-43684502D01*
X33984881Y-43823855D01*
X34089098Y-44076080D01*
X34281905Y-44269224D01*
X34533947Y-44373881D01*
X34806855Y-44374119D01*
X35059080Y-44269902D01*
X35252224Y-44077095D01*
X35356881Y-43825053D01*
X35357119Y-43552145D01*
X35252902Y-43299920D01*
X35060095Y-43106776D01*
X34808053Y-43002119D01*
X34667496Y-43001996D01*
X28139373Y-36473873D01*
X28328080Y-36395902D01*
X28521224Y-36203095D01*
X28625881Y-35951053D01*
X28626119Y-35678145D01*
X28521902Y-35425920D01*
X28329095Y-35232776D01*
X28077053Y-35128119D01*
X27936495Y-35127996D01*
X26630250Y-33821750D01*
X26473683Y-33717136D01*
X26289000Y-33680400D01*
X25146396Y-33680400D01*
X25146396Y-25455281D01*
X24799106Y-24614777D01*
X24156605Y-23971154D01*
X23316708Y-23622398D01*
X22407281Y-23621604D01*
X21566777Y-23968894D01*
X20923154Y-24611395D01*
X20574398Y-25451292D01*
X20573604Y-26360719D01*
X20920894Y-27201223D01*
X21563395Y-27844846D01*
X22403292Y-28193602D01*
X23312719Y-28194396D01*
X24153223Y-27847106D01*
X24796846Y-27204605D01*
X25145602Y-26364708D01*
X25146396Y-25455281D01*
X25146396Y-33680400D01*
X24765000Y-33680400D01*
X24580317Y-33717136D01*
X24423750Y-33821750D01*
X24244899Y-34000600D01*
X24241362Y-33929932D01*
X24082397Y-33546157D01*
X23840213Y-33476692D01*
X23660608Y-33656297D01*
X23660608Y-33297087D01*
X23591143Y-33054903D01*
X23067698Y-32868156D01*
X22512632Y-32895938D01*
X22128857Y-33054903D01*
X22059392Y-33297087D01*
X22860000Y-34097695D01*
X23660608Y-33297087D01*
X23660608Y-33656297D01*
X23039605Y-34277300D01*
X23053747Y-34291442D01*
X22874142Y-34471047D01*
X22860000Y-34456905D01*
X22845857Y-34471047D01*
X22666252Y-34291442D01*
X22680395Y-34277300D01*
X21879787Y-33476692D01*
X21729144Y-33519900D01*
X21729144Y-33278498D01*
X21701362Y-32723432D01*
X21542397Y-32339657D01*
X21300213Y-32270192D01*
X21120608Y-32449797D01*
X21120608Y-32090587D01*
X21051143Y-31848403D01*
X20527698Y-31661656D01*
X19972632Y-31689438D01*
X19588857Y-31848403D01*
X19519392Y-32090587D01*
X20320000Y-32891195D01*
X21120608Y-32090587D01*
X21120608Y-32449797D01*
X20499605Y-33070800D01*
X21300213Y-33871408D01*
X21542397Y-33801943D01*
X21729144Y-33278498D01*
X21729144Y-33519900D01*
X21637603Y-33546157D01*
X21450856Y-34069602D01*
X21478638Y-34624668D01*
X21634602Y-35001200D01*
X21357321Y-35001200D01*
X21289554Y-34837188D01*
X20968303Y-34515377D01*
X20741807Y-34421327D01*
X21051143Y-34293197D01*
X21120608Y-34051013D01*
X20320000Y-33250405D01*
X20140395Y-33430010D01*
X20140395Y-33070800D01*
X19339787Y-32270192D01*
X19097603Y-32339657D01*
X18910856Y-32863102D01*
X18938638Y-33418168D01*
X19097603Y-33801943D01*
X19339787Y-33871408D01*
X20140395Y-33070800D01*
X20140395Y-33430010D01*
X19519392Y-34051013D01*
X19588857Y-34293197D01*
X19921313Y-34411805D01*
X19673388Y-34514246D01*
X19351577Y-34835497D01*
X19177199Y-35255446D01*
X19176802Y-35710159D01*
X19350446Y-36130412D01*
X19671697Y-36452223D01*
X20091646Y-36626601D01*
X20546359Y-36626998D01*
X20966612Y-36453354D01*
X21288423Y-36132103D01*
X21357228Y-35966400D01*
X21967305Y-35966400D01*
X21891577Y-36041997D01*
X21717199Y-36461946D01*
X21716802Y-36916659D01*
X21890446Y-37336912D01*
X21967599Y-37414200D01*
X21357321Y-37414200D01*
X21289554Y-37250188D01*
X20968303Y-36928377D01*
X20548354Y-36753999D01*
X20093641Y-36753602D01*
X19673388Y-36927246D01*
X19351577Y-37248497D01*
X19177199Y-37668446D01*
X19176802Y-38123159D01*
X19350446Y-38543412D01*
X19671697Y-38865223D01*
X20091646Y-39039601D01*
X20546359Y-39039998D01*
X20966612Y-38866354D01*
X21288423Y-38545103D01*
X21357228Y-38379400D01*
X21967305Y-38379400D01*
X21891577Y-38454997D01*
X21717199Y-38874946D01*
X21716802Y-39329659D01*
X21890446Y-39749912D01*
X21967599Y-39827200D01*
X21357321Y-39827200D01*
X21289554Y-39663188D01*
X20968303Y-39341377D01*
X20548354Y-39166999D01*
X20093641Y-39166602D01*
X19673388Y-39340246D01*
X19351577Y-39661497D01*
X19177199Y-40081446D01*
X19176802Y-40536159D01*
X19350446Y-40956412D01*
X19671697Y-41278223D01*
X20091646Y-41452601D01*
X20546359Y-41452998D01*
X20966612Y-41279354D01*
X21288423Y-40958103D01*
X21357228Y-40792400D01*
X21967305Y-40792400D01*
X21891577Y-40867997D01*
X21717199Y-41287946D01*
X21716802Y-41742659D01*
X21890446Y-42162912D01*
X21967599Y-42240200D01*
X21357321Y-42240200D01*
X21289554Y-42076188D01*
X20968303Y-41754377D01*
X20548354Y-41579999D01*
X20093641Y-41579602D01*
X19673388Y-41753246D01*
X19351577Y-42074497D01*
X19177199Y-42494446D01*
X19176802Y-42949159D01*
X19350446Y-43369412D01*
X19671697Y-43691223D01*
X20091646Y-43865601D01*
X20546359Y-43865998D01*
X20966612Y-43692354D01*
X21288423Y-43371103D01*
X21357228Y-43205400D01*
X21967305Y-43205400D01*
X21891577Y-43280997D01*
X21717199Y-43700946D01*
X21716802Y-44155659D01*
X21890446Y-44575912D01*
X21967599Y-44653200D01*
X21357321Y-44653200D01*
X21289554Y-44489188D01*
X20968303Y-44167377D01*
X20548354Y-43992999D01*
X20093641Y-43992602D01*
X19673388Y-44166246D01*
X19351577Y-44487497D01*
X19177199Y-44907446D01*
X19176802Y-45362159D01*
X19350446Y-45782412D01*
X19671697Y-46104223D01*
X20091646Y-46278601D01*
X20546359Y-46278998D01*
X20966612Y-46105354D01*
X21288423Y-45784103D01*
X21357228Y-45618400D01*
X21967305Y-45618400D01*
X21891577Y-45693997D01*
X21717199Y-46113946D01*
X21716802Y-46568659D01*
X21890446Y-46988912D01*
X21916887Y-47015400D01*
X21336331Y-47015400D01*
X21289554Y-46902188D01*
X20968303Y-46580377D01*
X20548354Y-46405999D01*
X20093641Y-46405602D01*
X19673388Y-46579246D01*
X19351577Y-46900497D01*
X19177199Y-47320446D01*
X19176802Y-47775159D01*
X19350446Y-48195412D01*
X19671697Y-48517223D01*
X20091646Y-48691601D01*
X20546359Y-48691998D01*
X20966612Y-48518354D01*
X21288423Y-48197103D01*
X21378322Y-47980600D01*
X22018194Y-47980600D01*
X21891577Y-48106997D01*
X21717199Y-48526946D01*
X21716802Y-48981659D01*
X21890446Y-49401912D01*
X21967599Y-49479200D01*
X21357321Y-49479200D01*
X21289554Y-49315188D01*
X20968303Y-48993377D01*
X20548354Y-48818999D01*
X20093641Y-48818602D01*
X19673388Y-48992246D01*
X19351577Y-49313497D01*
X19177199Y-49733446D01*
X19176802Y-50188159D01*
X19350446Y-50608412D01*
X19671697Y-50930223D01*
X20091646Y-51104601D01*
X20546359Y-51104998D01*
X20966612Y-50931354D01*
X21288423Y-50610103D01*
X21357228Y-50444400D01*
X21967305Y-50444400D01*
X21891577Y-50519997D01*
X21717199Y-50939946D01*
X21716802Y-51394659D01*
X21890446Y-51814912D01*
X21967599Y-51892200D01*
X21357321Y-51892200D01*
X21289554Y-51728188D01*
X20968303Y-51406377D01*
X20548354Y-51231999D01*
X20093641Y-51231602D01*
X19673388Y-51405246D01*
X19351577Y-51726497D01*
X19177199Y-52146446D01*
X19176802Y-52601159D01*
X19350446Y-53021412D01*
X19671697Y-53343223D01*
X20091646Y-53517601D01*
X20546359Y-53517998D01*
X20966612Y-53344354D01*
X21288423Y-53023103D01*
X21357228Y-52857400D01*
X21967305Y-52857400D01*
X21891577Y-52932997D01*
X21717199Y-53352946D01*
X21716802Y-53807659D01*
X21890446Y-54227912D01*
X21967599Y-54305200D01*
X21357321Y-54305200D01*
X21289554Y-54141188D01*
X20968303Y-53819377D01*
X20548354Y-53644999D01*
X20093641Y-53644602D01*
X19673388Y-53818246D01*
X19351577Y-54139497D01*
X19177199Y-54559446D01*
X19176802Y-55014159D01*
X19350446Y-55434412D01*
X19671697Y-55756223D01*
X20091646Y-55930601D01*
X20546359Y-55930998D01*
X20966612Y-55757354D01*
X21288423Y-55436103D01*
X21357228Y-55270400D01*
X21967305Y-55270400D01*
X21891577Y-55345997D01*
X21717199Y-55765946D01*
X21716802Y-56220659D01*
X21890446Y-56640912D01*
X21967599Y-56718200D01*
X21357321Y-56718200D01*
X21289554Y-56554188D01*
X20968303Y-56232377D01*
X20548354Y-56057999D01*
X20093641Y-56057602D01*
X19673388Y-56231246D01*
X19351577Y-56552497D01*
X19177199Y-56972446D01*
X19176802Y-57427159D01*
X19350446Y-57847412D01*
X19671697Y-58169223D01*
X20091646Y-58343601D01*
X20546359Y-58343998D01*
X20966612Y-58170354D01*
X21288423Y-57849103D01*
X21357228Y-57683400D01*
X21967305Y-57683400D01*
X21891577Y-57758997D01*
X21717199Y-58178946D01*
X21716802Y-58633659D01*
X21890446Y-59053912D01*
X21967599Y-59131200D01*
X21357321Y-59131200D01*
X21289554Y-58967188D01*
X20968303Y-58645377D01*
X20548354Y-58470999D01*
X20093641Y-58470602D01*
X19673388Y-58644246D01*
X19351577Y-58965497D01*
X19177199Y-59385446D01*
X19176802Y-59840159D01*
X19350446Y-60260412D01*
X19671697Y-60582223D01*
X20091646Y-60756601D01*
X20546359Y-60756998D01*
X20966612Y-60583354D01*
X21288423Y-60262103D01*
X21357228Y-60096400D01*
X21891105Y-60096400D01*
X21815377Y-60171997D01*
X21640999Y-60591946D01*
X21640602Y-61046659D01*
X21814246Y-61466912D01*
X21891399Y-61544200D01*
X21357321Y-61544200D01*
X21289554Y-61380188D01*
X20968303Y-61058377D01*
X20548354Y-60883999D01*
X20093641Y-60883602D01*
X19673388Y-61057246D01*
X19351577Y-61378497D01*
X19177199Y-61798446D01*
X19176802Y-62253159D01*
X19350446Y-62673412D01*
X19671697Y-62995223D01*
X20091646Y-63169601D01*
X20546359Y-63169998D01*
X20966612Y-62996354D01*
X21288423Y-62675103D01*
X21357228Y-62509400D01*
X21967305Y-62509400D01*
X21891577Y-62584997D01*
X21717199Y-63004946D01*
X21716802Y-63459659D01*
X21890446Y-63879912D01*
X21967599Y-63957200D01*
X21357321Y-63957200D01*
X21289554Y-63793188D01*
X20968303Y-63471377D01*
X20548354Y-63296999D01*
X20093641Y-63296602D01*
X19673388Y-63470246D01*
X19351577Y-63791497D01*
X19177199Y-64211446D01*
X19176802Y-64666159D01*
X19350446Y-65086412D01*
X19671697Y-65408223D01*
X20091646Y-65582601D01*
X20546359Y-65582998D01*
X20966612Y-65409354D01*
X21288423Y-65088103D01*
X21357228Y-64922400D01*
X21967305Y-64922400D01*
X21891577Y-64997997D01*
X21717199Y-65417946D01*
X21716802Y-65872659D01*
X21890446Y-66292912D01*
X21967599Y-66370200D01*
X21357321Y-66370200D01*
X21289554Y-66206188D01*
X20968303Y-65884377D01*
X20548354Y-65709999D01*
X20093641Y-65709602D01*
X19673388Y-65883246D01*
X19351577Y-66204497D01*
X19177199Y-66624446D01*
X19176802Y-67079159D01*
X19350446Y-67499412D01*
X19671697Y-67821223D01*
X20091646Y-67995601D01*
X20546359Y-67995998D01*
X20966612Y-67822354D01*
X21288423Y-67501103D01*
X21357228Y-67335400D01*
X21967305Y-67335400D01*
X21891577Y-67410997D01*
X21717199Y-67830946D01*
X21716802Y-68285659D01*
X21890446Y-68705912D01*
X22211697Y-69027723D01*
X22631646Y-69202101D01*
X22825229Y-69202270D01*
X22698341Y-69329158D01*
X22633641Y-69329102D01*
X22213388Y-69502746D01*
X21891577Y-69823997D01*
X21717199Y-70243946D01*
X21716802Y-70698659D01*
X21890446Y-71118912D01*
X21967599Y-71196200D01*
X21463198Y-71196200D01*
X21463198Y-69039441D01*
X21289554Y-68619188D01*
X20968303Y-68297377D01*
X20548354Y-68122999D01*
X20093641Y-68122602D01*
X19673388Y-68296246D01*
X19351577Y-68617497D01*
X19177199Y-69037446D01*
X19176802Y-69492159D01*
X19350446Y-69912412D01*
X19671697Y-70234223D01*
X20091646Y-70408601D01*
X20546359Y-70408998D01*
X20966612Y-70235354D01*
X21288423Y-69914103D01*
X21462801Y-69494154D01*
X21463198Y-69039441D01*
X21463198Y-71196200D01*
X21357321Y-71196200D01*
X21289554Y-71032188D01*
X20968303Y-70710377D01*
X20548354Y-70535999D01*
X20093641Y-70535602D01*
X19673388Y-70709246D01*
X19351577Y-71030497D01*
X19177199Y-71450446D01*
X19176802Y-71905159D01*
X19350446Y-72325412D01*
X19671697Y-72647223D01*
X20091646Y-72821601D01*
X20546359Y-72821998D01*
X20966612Y-72648354D01*
X21288423Y-72327103D01*
X21357228Y-72161400D01*
X21967305Y-72161400D01*
X21891577Y-72236997D01*
X21717199Y-72656946D01*
X21716802Y-73111659D01*
X21890446Y-73531912D01*
X21967599Y-73609200D01*
X21357321Y-73609200D01*
X21289554Y-73445188D01*
X20968303Y-73123377D01*
X20548354Y-72948999D01*
X20093641Y-72948602D01*
X19673388Y-73122246D01*
X19351577Y-73443497D01*
X19177199Y-73863446D01*
X19176802Y-74318159D01*
X19350446Y-74738412D01*
X19671697Y-75060223D01*
X20091646Y-75234601D01*
X20546359Y-75234998D01*
X20966612Y-75061354D01*
X21288423Y-74740103D01*
X21357228Y-74574400D01*
X21967305Y-74574400D01*
X21891577Y-74649997D01*
X21717199Y-75069946D01*
X21716802Y-75524659D01*
X21890446Y-75944912D01*
X21967599Y-76022200D01*
X21357321Y-76022200D01*
X21289554Y-75858188D01*
X20968303Y-75536377D01*
X20548354Y-75361999D01*
X20093641Y-75361602D01*
X19673388Y-75535246D01*
X19351577Y-75856497D01*
X19177199Y-76276446D01*
X19176802Y-76731159D01*
X19350446Y-77151412D01*
X19671697Y-77473223D01*
X20091646Y-77647601D01*
X20546359Y-77647998D01*
X20966612Y-77474354D01*
X21288423Y-77153103D01*
X21357228Y-76987400D01*
X21967305Y-76987400D01*
X21891577Y-77062997D01*
X21717199Y-77482946D01*
X21716802Y-77937659D01*
X21890446Y-78357912D01*
X21967599Y-78435200D01*
X21357321Y-78435200D01*
X21289554Y-78271188D01*
X20968303Y-77949377D01*
X20548354Y-77774999D01*
X20093641Y-77774602D01*
X19673388Y-77948246D01*
X19351577Y-78269497D01*
X19177199Y-78689446D01*
X19176802Y-79144159D01*
X19350446Y-79564412D01*
X19671697Y-79886223D01*
X20091646Y-80060601D01*
X20546359Y-80060998D01*
X20966612Y-79887354D01*
X21288423Y-79566103D01*
X21357228Y-79400400D01*
X21967305Y-79400400D01*
X21891577Y-79475997D01*
X21717199Y-79895946D01*
X21716802Y-80350659D01*
X21890446Y-80770912D01*
X22211697Y-81092723D01*
X22438192Y-81186772D01*
X22128857Y-81314903D01*
X22059392Y-81557087D01*
X22860000Y-82357695D01*
X23660608Y-81557087D01*
X23591143Y-81314903D01*
X23258686Y-81196294D01*
X23506612Y-81093854D01*
X23828423Y-80772603D01*
X24002801Y-80352654D01*
X24002947Y-80184447D01*
X24296750Y-80478250D01*
X24388092Y-80539282D01*
X24177603Y-80599657D01*
X23990856Y-81123102D01*
X24018638Y-81678168D01*
X24070204Y-81802659D01*
X23840213Y-81736692D01*
X23039605Y-82537300D01*
X23840213Y-83337908D01*
X24082397Y-83268443D01*
X24269144Y-82744998D01*
X24241362Y-82189932D01*
X24189795Y-82065440D01*
X24419787Y-82131408D01*
X25220395Y-81330800D01*
X25206252Y-81316657D01*
X25385857Y-81137052D01*
X25400000Y-81151195D01*
X25414142Y-81137052D01*
X25593747Y-81316657D01*
X25579605Y-81330800D01*
X26380213Y-82131408D01*
X26622397Y-82061943D01*
X26809144Y-81538498D01*
X26781362Y-80983432D01*
X26630657Y-80619600D01*
X30048200Y-80619600D01*
X53086000Y-80619600D01*
X53270683Y-80582864D01*
X53427250Y-80478250D01*
X53717502Y-80187997D01*
X53856855Y-80188119D01*
X54109080Y-80083902D01*
X54302224Y-79891095D01*
X54406881Y-79639053D01*
X54407119Y-79366145D01*
X54407119Y-104569000D01*
X26200608Y-104569000D01*
X26200608Y-82311013D01*
X25400000Y-81510405D01*
X24599392Y-82311013D01*
X24668857Y-82553197D01*
X25192302Y-82739944D01*
X25747368Y-82712162D01*
X26131143Y-82553197D01*
X26200608Y-82311013D01*
X26200608Y-104569000D01*
X25146396Y-104569000D01*
X25146396Y-88955281D01*
X24799106Y-88114777D01*
X24156605Y-87471154D01*
X23660608Y-87265197D01*
X23660608Y-83517513D01*
X22860000Y-82716905D01*
X22680395Y-82896510D01*
X22680395Y-82537300D01*
X21879787Y-81736692D01*
X21637603Y-81806157D01*
X21470464Y-82274641D01*
X21470464Y-82092800D01*
X21470464Y-80568800D01*
X21442278Y-80423526D01*
X21358404Y-80295844D01*
X21231784Y-80210374D01*
X21082000Y-80180336D01*
X19558000Y-80180336D01*
X19412726Y-80208522D01*
X19285044Y-80292396D01*
X19199574Y-80419016D01*
X19169536Y-80568800D01*
X19169536Y-82092800D01*
X19197722Y-82238074D01*
X19281596Y-82365756D01*
X19408216Y-82451226D01*
X19558000Y-82481264D01*
X21082000Y-82481264D01*
X21227274Y-82453078D01*
X21354956Y-82369204D01*
X21440426Y-82242584D01*
X21470464Y-82092800D01*
X21470464Y-82274641D01*
X21450856Y-82329602D01*
X21478638Y-82884668D01*
X21637603Y-83268443D01*
X21879787Y-83337908D01*
X22680395Y-82537300D01*
X22680395Y-82896510D01*
X22059392Y-83517513D01*
X22128857Y-83759697D01*
X22652302Y-83946444D01*
X23207368Y-83918662D01*
X23591143Y-83759697D01*
X23660608Y-83517513D01*
X23660608Y-87265197D01*
X23316708Y-87122398D01*
X22407281Y-87121604D01*
X21566777Y-87468894D01*
X20923154Y-88111395D01*
X20574398Y-88951292D01*
X20573604Y-89860719D01*
X20920894Y-90701223D01*
X21563395Y-91344846D01*
X22403292Y-91693602D01*
X23312719Y-91694396D01*
X24153223Y-91347106D01*
X24796846Y-90704605D01*
X25145602Y-89864708D01*
X25146396Y-88955281D01*
X25146396Y-104569000D01*
X18651526Y-104569000D01*
X19484518Y-104224815D01*
X21218725Y-102493632D01*
X22158429Y-100230575D01*
X22160567Y-97780175D01*
X21224815Y-95515482D01*
X19493632Y-93781275D01*
X17230575Y-92841571D01*
X14780175Y-92839433D01*
X12515482Y-93775185D01*
X10781275Y-95506368D01*
X10431000Y-96349923D01*
X10431000Y-18651526D01*
X10775185Y-19484518D01*
X12506368Y-21218725D01*
X14769425Y-22158429D01*
X17219825Y-22160567D01*
X19484518Y-21224815D01*
X21218725Y-19493632D01*
X22158429Y-17230575D01*
X22160567Y-14780175D01*
X21224815Y-12515482D01*
X19493632Y-10781275D01*
X18650076Y-10431000D01*
X96348473Y-10431000D01*
X95515482Y-10775185D01*
X93781275Y-12506368D01*
X92841571Y-14769425D01*
X92839433Y-17219825D01*
X93775185Y-19484518D01*
X95506368Y-21218725D01*
X97769425Y-22158429D01*
X100219825Y-22160567D01*
X102484518Y-21224815D01*
X104218725Y-19493632D01*
X104569000Y-18650076D01*
X104569000Y-96348473D01*
X104569000Y-96348473D01*
G37*
X104569000Y-96348473D02*
X104224815Y-95515482D01*
X103536369Y-94825833D01*
X103536369Y-31098358D01*
X103534221Y-29890843D01*
X103076257Y-28785221D01*
X102663936Y-28515670D01*
X102484330Y-28695275D01*
X102484330Y-28336064D01*
X102214779Y-27923743D01*
X101250369Y-27526279D01*
X101098358Y-27463631D01*
X100438412Y-27464804D01*
X100377937Y-27404329D01*
X100790257Y-27134779D01*
X101250369Y-26018358D01*
X101248221Y-24810843D01*
X100790257Y-23705221D01*
X100377936Y-23435670D01*
X100198330Y-23615275D01*
X100198330Y-23256064D01*
X99928779Y-22843743D01*
X98812358Y-22383631D01*
X97604843Y-22385779D01*
X96499221Y-22843743D01*
X96229670Y-23256064D01*
X98214000Y-25240395D01*
X100198330Y-23256064D01*
X100198330Y-23615275D01*
X98393605Y-25420000D01*
X98407747Y-25434142D01*
X98228142Y-25613747D01*
X98214000Y-25599605D01*
X98034395Y-25779210D01*
X98034395Y-25420000D01*
X96050064Y-23435670D01*
X95637743Y-23705221D01*
X95177631Y-24821642D01*
X95179779Y-26029157D01*
X95637743Y-27134779D01*
X96050064Y-27404330D01*
X98034395Y-25420000D01*
X98034395Y-25779210D01*
X96229670Y-27583936D01*
X96499221Y-27996257D01*
X97615642Y-28456369D01*
X98275586Y-28455194D01*
X98336062Y-28515670D01*
X97923743Y-28785221D01*
X97463631Y-29901642D01*
X97465779Y-31109157D01*
X97923743Y-32214779D01*
X98336064Y-32484330D01*
X100320395Y-30500000D01*
X100306252Y-30485857D01*
X100485857Y-30306252D01*
X100500000Y-30320395D01*
X102484330Y-28336064D01*
X102484330Y-28695275D01*
X100679605Y-30500000D01*
X102663936Y-32484330D01*
X103076257Y-32214779D01*
X103536369Y-31098358D01*
X103536369Y-94825833D01*
X102493632Y-93781275D01*
X102484330Y-93777412D01*
X102484330Y-32663936D01*
X100500000Y-30679605D01*
X100320395Y-30859210D01*
X98515670Y-32663936D01*
X98785221Y-33076257D01*
X99901642Y-33536369D01*
X101109157Y-33534221D01*
X102214779Y-33076257D01*
X102484330Y-32663936D01*
X102484330Y-93777412D01*
X100230575Y-92841571D01*
X97780175Y-92839433D01*
X97185782Y-93085031D01*
X97185782Y-29949192D01*
X96763246Y-28926578D01*
X95981537Y-28143503D01*
X94959662Y-27719184D01*
X93853192Y-27718218D01*
X92830578Y-28140754D01*
X92047503Y-28922463D01*
X91897622Y-29283417D01*
X91897622Y-15980922D01*
X91868083Y-15470572D01*
X91729611Y-15136271D01*
X91499016Y-15080590D01*
X91319410Y-15260195D01*
X91319410Y-14900984D01*
X91263729Y-14670389D01*
X90780922Y-14502378D01*
X90270572Y-14531917D01*
X89936271Y-14670389D01*
X89880590Y-14900984D01*
X90600000Y-15620395D01*
X91319410Y-14900984D01*
X91319410Y-15260195D01*
X90779605Y-15800000D01*
X91499016Y-16519410D01*
X91729611Y-16463729D01*
X91897622Y-15980922D01*
X91897622Y-29283417D01*
X91623184Y-29944338D01*
X91622218Y-31050808D01*
X92044754Y-32073422D01*
X92826463Y-32856497D01*
X93848338Y-33280816D01*
X94954808Y-33281782D01*
X95977422Y-32859246D01*
X96760497Y-32077537D01*
X97184816Y-31055662D01*
X97185782Y-29949192D01*
X97185782Y-93085031D01*
X95631000Y-93727453D01*
X95631000Y-81888910D01*
X95631000Y-81636291D01*
X95631000Y-81184750D01*
X95631000Y-80613250D01*
X95631000Y-80161709D01*
X95631000Y-79909090D01*
X95592000Y-79814935D01*
X95592000Y-59396310D01*
X95592000Y-59143691D01*
X95592000Y-58705750D01*
X95592000Y-58134250D01*
X95592000Y-57696309D01*
X95592000Y-57443690D01*
X95495327Y-57210301D01*
X95316698Y-57031673D01*
X95083309Y-56935000D01*
X94392750Y-56935000D01*
X94234000Y-57093750D01*
X94234000Y-58293000D01*
X95433250Y-58293000D01*
X95592000Y-58134250D01*
X95592000Y-58705750D01*
X95433250Y-58547000D01*
X94234000Y-58547000D01*
X94234000Y-58567000D01*
X93980000Y-58567000D01*
X93980000Y-58547000D01*
X93980000Y-58293000D01*
X93980000Y-57093750D01*
X93821250Y-56935000D01*
X93130691Y-56935000D01*
X92897302Y-57031673D01*
X92718673Y-57210301D01*
X92622000Y-57443690D01*
X92622000Y-57696309D01*
X92622000Y-58134250D01*
X92780750Y-58293000D01*
X93980000Y-58293000D01*
X93980000Y-58547000D01*
X92780750Y-58547000D01*
X92622000Y-58705750D01*
X92622000Y-59143691D01*
X92622000Y-59396310D01*
X92718673Y-59629699D01*
X92897302Y-59808327D01*
X93130691Y-59905000D01*
X93488635Y-59905000D01*
X93212435Y-60089552D01*
X92945587Y-60488917D01*
X92851883Y-60960000D01*
X92945587Y-61431083D01*
X93212435Y-61830448D01*
X93611800Y-62097296D01*
X94082883Y-62191000D01*
X94131117Y-62191000D01*
X94602200Y-62097296D01*
X95001565Y-61830448D01*
X95268413Y-61431083D01*
X95362117Y-60960000D01*
X95268413Y-60488917D01*
X95001565Y-60089552D01*
X94725364Y-59905000D01*
X95083309Y-59905000D01*
X95316698Y-59808327D01*
X95495327Y-59629699D01*
X95592000Y-59396310D01*
X95592000Y-79814935D01*
X95534327Y-79675701D01*
X95362117Y-79503491D01*
X95362117Y-71120000D01*
X95362117Y-68580000D01*
X95362117Y-66040000D01*
X95362117Y-63500000D01*
X95268413Y-63028917D01*
X95001565Y-62629552D01*
X94602200Y-62362704D01*
X94131117Y-62269000D01*
X94082883Y-62269000D01*
X93611800Y-62362704D01*
X93212435Y-62629552D01*
X92945587Y-63028917D01*
X92851883Y-63500000D01*
X92945587Y-63971083D01*
X93212435Y-64370448D01*
X93611800Y-64637296D01*
X94082883Y-64731000D01*
X94131117Y-64731000D01*
X94602200Y-64637296D01*
X95001565Y-64370448D01*
X95268413Y-63971083D01*
X95362117Y-63500000D01*
X95362117Y-66040000D01*
X95268413Y-65568917D01*
X95001565Y-65169552D01*
X94602200Y-64902704D01*
X94131117Y-64809000D01*
X94082883Y-64809000D01*
X93611800Y-64902704D01*
X93212435Y-65169552D01*
X92945587Y-65568917D01*
X92851883Y-66040000D01*
X92945587Y-66511083D01*
X93212435Y-66910448D01*
X93611800Y-67177296D01*
X94082883Y-67271000D01*
X94131117Y-67271000D01*
X94602200Y-67177296D01*
X95001565Y-66910448D01*
X95268413Y-66511083D01*
X95362117Y-66040000D01*
X95362117Y-68580000D01*
X95268413Y-68108917D01*
X95001565Y-67709552D01*
X94602200Y-67442704D01*
X94131117Y-67349000D01*
X94082883Y-67349000D01*
X93611800Y-67442704D01*
X93212435Y-67709552D01*
X92945587Y-68108917D01*
X92851883Y-68580000D01*
X92945587Y-69051083D01*
X93212435Y-69450448D01*
X93611800Y-69717296D01*
X94082883Y-69811000D01*
X94131117Y-69811000D01*
X94602200Y-69717296D01*
X95001565Y-69450448D01*
X95268413Y-69051083D01*
X95362117Y-68580000D01*
X95362117Y-71120000D01*
X95268413Y-70648917D01*
X95001565Y-70249552D01*
X94602200Y-69982704D01*
X94131117Y-69889000D01*
X94082883Y-69889000D01*
X93611800Y-69982704D01*
X93212435Y-70249552D01*
X92945587Y-70648917D01*
X92851883Y-71120000D01*
X92945587Y-71591083D01*
X93212435Y-71990448D01*
X93611800Y-72257296D01*
X94082883Y-72351000D01*
X94131117Y-72351000D01*
X94602200Y-72257296D01*
X95001565Y-71990448D01*
X95268413Y-71591083D01*
X95362117Y-71120000D01*
X95362117Y-79503491D01*
X95355698Y-79497073D01*
X95122309Y-79400400D01*
X94265750Y-79400400D01*
X94107000Y-79559150D01*
X94107000Y-80772000D01*
X95472250Y-80772000D01*
X95631000Y-80613250D01*
X95631000Y-81184750D01*
X95472250Y-81026000D01*
X94107000Y-81026000D01*
X94107000Y-81046000D01*
X93853000Y-81046000D01*
X93853000Y-81026000D01*
X93853000Y-80772000D01*
X93853000Y-79559150D01*
X93694250Y-79400400D01*
X92837691Y-79400400D01*
X92604302Y-79497073D01*
X92425673Y-79675701D01*
X92329000Y-79909090D01*
X92329000Y-80161709D01*
X92329000Y-80613250D01*
X92487750Y-80772000D01*
X93853000Y-80772000D01*
X93853000Y-81026000D01*
X92487750Y-81026000D01*
X92329000Y-81184750D01*
X92329000Y-81636291D01*
X92329000Y-81888910D01*
X92425673Y-82122299D01*
X92604302Y-82300927D01*
X92837691Y-82397600D01*
X93161621Y-82397600D01*
X92920166Y-82558935D01*
X92650371Y-82962712D01*
X92555631Y-83439000D01*
X92650371Y-83915288D01*
X92920166Y-84319065D01*
X93323943Y-84588860D01*
X93800231Y-84683600D01*
X94159769Y-84683600D01*
X94636057Y-84588860D01*
X95039834Y-84319065D01*
X95309629Y-83915288D01*
X95404369Y-83439000D01*
X95309629Y-82962712D01*
X95039834Y-82558935D01*
X94798378Y-82397600D01*
X95122309Y-82397600D01*
X95355698Y-82300927D01*
X95534327Y-82122299D01*
X95631000Y-81888910D01*
X95631000Y-93727453D01*
X95515482Y-93775185D01*
X95404369Y-93886104D01*
X95404369Y-88519000D01*
X95404369Y-85979000D01*
X95309629Y-85502712D01*
X95039834Y-85098935D01*
X94636057Y-84829140D01*
X94159769Y-84734400D01*
X93800231Y-84734400D01*
X93323943Y-84829140D01*
X92920166Y-85098935D01*
X92650371Y-85502712D01*
X92555631Y-85979000D01*
X92650371Y-86455288D01*
X92920166Y-86859065D01*
X93323943Y-87128860D01*
X93800231Y-87223600D01*
X94159769Y-87223600D01*
X94636057Y-87128860D01*
X95039834Y-86859065D01*
X95309629Y-86455288D01*
X95404369Y-85979000D01*
X95404369Y-88519000D01*
X95309629Y-88042712D01*
X95039834Y-87638935D01*
X94636057Y-87369140D01*
X94159769Y-87274400D01*
X93800231Y-87274400D01*
X93323943Y-87369140D01*
X92920166Y-87638935D01*
X92650371Y-88042712D01*
X92555631Y-88519000D01*
X92650371Y-88995288D01*
X92920166Y-89399065D01*
X93323943Y-89668860D01*
X93800231Y-89763600D01*
X94159769Y-89763600D01*
X94636057Y-89668860D01*
X95039834Y-89399065D01*
X95309629Y-88995288D01*
X95404369Y-88519000D01*
X95404369Y-93886104D01*
X93781275Y-95506368D01*
X92841571Y-97769425D01*
X92839433Y-100219825D01*
X93775185Y-102484518D01*
X95506368Y-104218725D01*
X96349923Y-104569000D01*
X91319410Y-104569000D01*
X91319410Y-16699016D01*
X90600000Y-15979605D01*
X90420395Y-16159210D01*
X90420395Y-15800000D01*
X89700984Y-15080590D01*
X89470389Y-15136271D01*
X89302378Y-15619078D01*
X89331917Y-16129428D01*
X89470389Y-16463729D01*
X89700984Y-16519410D01*
X90420395Y-15800000D01*
X90420395Y-16159210D01*
X89880590Y-16699016D01*
X89936271Y-16929611D01*
X90419078Y-17097622D01*
X90929428Y-17068083D01*
X91263729Y-16929611D01*
X91319410Y-16699016D01*
X91319410Y-104569000D01*
X89713119Y-104569000D01*
X89713119Y-44822145D01*
X89608902Y-44569920D01*
X89416095Y-44376776D01*
X89164053Y-44272119D01*
X89138464Y-44272096D01*
X89138464Y-16450000D01*
X89138464Y-15150000D01*
X89110278Y-15004726D01*
X89026404Y-14877044D01*
X88899784Y-14791574D01*
X88750000Y-14761536D01*
X87450000Y-14761536D01*
X87304726Y-14789722D01*
X87177044Y-14873596D01*
X87091574Y-15000216D01*
X87061536Y-15150000D01*
X87061536Y-16450000D01*
X87089722Y-16595274D01*
X87173596Y-16722956D01*
X87300216Y-16808426D01*
X87450000Y-16838464D01*
X88750000Y-16838464D01*
X88895274Y-16810278D01*
X89022956Y-16726404D01*
X89108426Y-16599784D01*
X89138464Y-16450000D01*
X89138464Y-44272096D01*
X88891145Y-44271881D01*
X88638920Y-44376098D01*
X88445776Y-44568905D01*
X88341119Y-44820947D01*
X88340881Y-45093855D01*
X88445098Y-45346080D01*
X88519000Y-45420111D01*
X88519000Y-47675172D01*
X88511920Y-47678098D01*
X88318776Y-47870905D01*
X88214119Y-48122947D01*
X88213881Y-48395855D01*
X88318098Y-48648080D01*
X88510905Y-48841224D01*
X88762947Y-48945881D01*
X89035855Y-48946119D01*
X89288080Y-48841902D01*
X89481224Y-48649095D01*
X89585881Y-48397053D01*
X89586119Y-48124145D01*
X89535000Y-48000427D01*
X89535000Y-45420191D01*
X89608224Y-45347095D01*
X89712881Y-45095053D01*
X89713119Y-44822145D01*
X89713119Y-104569000D01*
X86207919Y-104569000D01*
X86207919Y-70780945D01*
X86103702Y-70528720D01*
X86004400Y-70429244D01*
X86004400Y-65232146D01*
X86103024Y-65133695D01*
X86207681Y-64881653D01*
X86207919Y-64608745D01*
X86103702Y-64356520D01*
X85910895Y-64163376D01*
X85658853Y-64058719D01*
X85385945Y-64058481D01*
X85133720Y-64162698D01*
X84940576Y-64355505D01*
X84835919Y-64607547D01*
X84835821Y-64718999D01*
X84700145Y-64718881D01*
X84447920Y-64823098D01*
X84254776Y-65015905D01*
X84150119Y-65267947D01*
X84149881Y-65540855D01*
X84254098Y-65793080D01*
X84429600Y-65968888D01*
X84429600Y-68092453D01*
X84330976Y-68190905D01*
X84226319Y-68442947D01*
X84226081Y-68715855D01*
X84330298Y-68968080D01*
X84523105Y-69161224D01*
X84775147Y-69265881D01*
X85039200Y-69266111D01*
X85039200Y-70429253D01*
X84940576Y-70527705D01*
X84835919Y-70779747D01*
X84835681Y-71052655D01*
X84939898Y-71304880D01*
X85132705Y-71498024D01*
X85384747Y-71602681D01*
X85657655Y-71602919D01*
X85909880Y-71498702D01*
X86103024Y-71305895D01*
X86207681Y-71053853D01*
X86207919Y-70780945D01*
X86207919Y-104569000D01*
X75692000Y-104569000D01*
X75692000Y-62357000D01*
X75692000Y-49403000D01*
X72885300Y-49403000D01*
X72885300Y-32232600D01*
X72885300Y-29260800D01*
X72872855Y-29198235D01*
X72872919Y-29124945D01*
X72844684Y-29056612D01*
X72832130Y-28993496D01*
X72796690Y-28940456D01*
X72768702Y-28872720D01*
X72716466Y-28820392D01*
X72680714Y-28766886D01*
X72627674Y-28731446D01*
X72575895Y-28679576D01*
X72507610Y-28651221D01*
X72454104Y-28615470D01*
X72391540Y-28603025D01*
X72323853Y-28574919D01*
X72249915Y-28574854D01*
X72186800Y-28562300D01*
X72124235Y-28574744D01*
X72050945Y-28574681D01*
X71982612Y-28602915D01*
X71919496Y-28615470D01*
X71866456Y-28650909D01*
X71798720Y-28678898D01*
X71746392Y-28731133D01*
X71692886Y-28766886D01*
X71657446Y-28819925D01*
X71605576Y-28871705D01*
X71577221Y-28939989D01*
X71541470Y-28993496D01*
X71529025Y-29056059D01*
X71500919Y-29123747D01*
X71500854Y-29197684D01*
X71488300Y-29260800D01*
X71488300Y-31943272D01*
X70374761Y-33056810D01*
X70013917Y-33128587D01*
X69614552Y-33395435D01*
X69347704Y-33794800D01*
X69254000Y-34265883D01*
X69254000Y-34314117D01*
X69347704Y-34785200D01*
X69614552Y-35184565D01*
X70013917Y-35451413D01*
X70485000Y-35545117D01*
X70956083Y-35451413D01*
X71355448Y-35184565D01*
X71622296Y-34785200D01*
X71716000Y-34314117D01*
X71716000Y-34265883D01*
X71622296Y-33794800D01*
X71618343Y-33788884D01*
X72680714Y-32726514D01*
X72832130Y-32499904D01*
X72885300Y-32232600D01*
X72885300Y-49403000D01*
X71716000Y-49403000D01*
X71716000Y-36854117D01*
X71716000Y-36805883D01*
X71622296Y-36334800D01*
X71355448Y-35935435D01*
X70956083Y-35668587D01*
X70485000Y-35574883D01*
X70013917Y-35668587D01*
X69614552Y-35935435D01*
X69347704Y-36334800D01*
X69254000Y-36805883D01*
X69254000Y-36854117D01*
X69347704Y-37325200D01*
X69614552Y-37724565D01*
X70013917Y-37991413D01*
X70485000Y-38085117D01*
X70956083Y-37991413D01*
X71355448Y-37724565D01*
X71622296Y-37325200D01*
X71716000Y-36854117D01*
X71716000Y-49403000D01*
X69088000Y-49403000D01*
X69088000Y-50165000D01*
X69088000Y-54594366D01*
X68480841Y-57023000D01*
X64563499Y-57023000D01*
X68286246Y-53300252D01*
X68286250Y-53300250D01*
X68286250Y-53300249D01*
X68390864Y-53143683D01*
X68427600Y-52959000D01*
X68427601Y-52959000D01*
X68427600Y-52958994D01*
X68427600Y-37983717D01*
X68815448Y-37724565D01*
X69082296Y-37325200D01*
X69176000Y-36854117D01*
X69176000Y-36805883D01*
X69176000Y-34314117D01*
X69176000Y-34265883D01*
X69082296Y-33794800D01*
X68815448Y-33395435D01*
X68416083Y-33128587D01*
X67945000Y-33034883D01*
X67473917Y-33128587D01*
X67074552Y-33395435D01*
X66807704Y-33794800D01*
X66714000Y-34265883D01*
X66714000Y-34314117D01*
X66807704Y-34785200D01*
X67074552Y-35184565D01*
X67473917Y-35451413D01*
X67945000Y-35545117D01*
X68416083Y-35451413D01*
X68815448Y-35184565D01*
X69082296Y-34785200D01*
X69176000Y-34314117D01*
X69176000Y-36805883D01*
X69082296Y-36334800D01*
X68815448Y-35935435D01*
X68416083Y-35668587D01*
X67945000Y-35574883D01*
X67473917Y-35668587D01*
X67074552Y-35935435D01*
X66807704Y-36334800D01*
X66714000Y-36805883D01*
X66714000Y-36854117D01*
X66807704Y-37325200D01*
X67074552Y-37724565D01*
X67462400Y-37983717D01*
X67462400Y-52759100D01*
X66643464Y-53578036D01*
X66643464Y-37680000D01*
X66643464Y-35980000D01*
X66643464Y-35140000D01*
X66643464Y-33440000D01*
X66615278Y-33294726D01*
X66531404Y-33167044D01*
X66404784Y-33081574D01*
X66255000Y-33051536D01*
X64555000Y-33051536D01*
X64409726Y-33079722D01*
X64282044Y-33163596D01*
X64196574Y-33290216D01*
X64166536Y-33440000D01*
X64166536Y-35140000D01*
X64194722Y-35285274D01*
X64278596Y-35412956D01*
X64405216Y-35498426D01*
X64555000Y-35528464D01*
X66255000Y-35528464D01*
X66400274Y-35500278D01*
X66527956Y-35416404D01*
X66613426Y-35289784D01*
X66643464Y-35140000D01*
X66643464Y-35980000D01*
X66615278Y-35834726D01*
X66531404Y-35707044D01*
X66404784Y-35621574D01*
X66255000Y-35591536D01*
X64555000Y-35591536D01*
X64409726Y-35619722D01*
X64282044Y-35703596D01*
X64196574Y-35830216D01*
X64166536Y-35980000D01*
X64166536Y-37680000D01*
X64194722Y-37825274D01*
X64278596Y-37952956D01*
X64405216Y-38038426D01*
X64555000Y-38068464D01*
X66255000Y-38068464D01*
X66400274Y-38040278D01*
X66527956Y-37956404D01*
X66613426Y-37829784D01*
X66643464Y-37680000D01*
X66643464Y-53578036D01*
X64059119Y-56162381D01*
X64059119Y-54220145D01*
X63954902Y-53967920D01*
X63855600Y-53868444D01*
X63855600Y-47985546D01*
X63954224Y-47887095D01*
X64058881Y-47635053D01*
X64059119Y-47362145D01*
X63954902Y-47109920D01*
X63762095Y-46916776D01*
X63674780Y-46880519D01*
X63677881Y-46873053D01*
X63678119Y-46600145D01*
X63573902Y-46347920D01*
X63381095Y-46154776D01*
X63129053Y-46050119D01*
X63025717Y-46050028D01*
X62938902Y-45839920D01*
X62746095Y-45646776D01*
X62494053Y-45542119D01*
X62408044Y-45542043D01*
X62408119Y-45457145D01*
X62303902Y-45204920D01*
X62111095Y-45011776D01*
X61859053Y-44907119D01*
X61755717Y-44907028D01*
X61668902Y-44696920D01*
X61476095Y-44503776D01*
X61224053Y-44399119D01*
X61137934Y-44399043D01*
X61138119Y-44187145D01*
X61033902Y-43934920D01*
X60841095Y-43741776D01*
X60589053Y-43637119D01*
X60316145Y-43636881D01*
X60071000Y-43738172D01*
X60071000Y-41170099D01*
X60615446Y-40625652D01*
X60615450Y-40625650D01*
X60615450Y-40625649D01*
X60720064Y-40469083D01*
X60756800Y-40284400D01*
X60756801Y-40284400D01*
X60756800Y-40284394D01*
X60756800Y-26547946D01*
X60855424Y-26449495D01*
X60960081Y-26197453D01*
X60960319Y-25924545D01*
X60856102Y-25672320D01*
X60663295Y-25479176D01*
X60411253Y-25374519D01*
X60138345Y-25374281D01*
X59886120Y-25478498D01*
X59753500Y-25610886D01*
X59753500Y-24638000D01*
X59741055Y-24575435D01*
X59741119Y-24502145D01*
X59712884Y-24433812D01*
X59700330Y-24370696D01*
X59664890Y-24317656D01*
X59636902Y-24249920D01*
X59584666Y-24197592D01*
X59548914Y-24144086D01*
X59495874Y-24108646D01*
X59444095Y-24056776D01*
X59375810Y-24028421D01*
X59322304Y-23992670D01*
X59259740Y-23980225D01*
X59192053Y-23952119D01*
X59118115Y-23952054D01*
X59055000Y-23939500D01*
X58992435Y-23951944D01*
X58919145Y-23951881D01*
X58850812Y-23980115D01*
X58787696Y-23992670D01*
X58734656Y-24028109D01*
X58666920Y-24056098D01*
X58614592Y-24108333D01*
X58561086Y-24144086D01*
X58525646Y-24197125D01*
X58473776Y-24248905D01*
X58445421Y-24317189D01*
X58409670Y-24370696D01*
X58397225Y-24433259D01*
X58369119Y-24500947D01*
X58369054Y-24574884D01*
X58356500Y-24638000D01*
X58356500Y-38064672D01*
X56402086Y-40019086D01*
X56250670Y-40245695D01*
X56197500Y-40513000D01*
X56197500Y-50764672D01*
X55206000Y-51756172D01*
X55206000Y-36854117D01*
X55206000Y-36805883D01*
X55206000Y-34314117D01*
X55206000Y-34265883D01*
X55112296Y-33794800D01*
X54845448Y-33395435D01*
X54446083Y-33128587D01*
X53975000Y-33034883D01*
X53503917Y-33128587D01*
X53104552Y-33395435D01*
X52837704Y-33794800D01*
X52744000Y-34265883D01*
X52744000Y-34314117D01*
X52837704Y-34785200D01*
X53104552Y-35184565D01*
X53503917Y-35451413D01*
X53975000Y-35545117D01*
X54446083Y-35451413D01*
X54845448Y-35184565D01*
X55112296Y-34785200D01*
X55206000Y-34314117D01*
X55206000Y-36805883D01*
X55112296Y-36334800D01*
X54845448Y-35935435D01*
X54446083Y-35668587D01*
X53975000Y-35574883D01*
X53503917Y-35668587D01*
X53104552Y-35935435D01*
X52837704Y-36334800D01*
X52744000Y-36805883D01*
X52744000Y-36854117D01*
X52837704Y-37325200D01*
X53104552Y-37724565D01*
X53503917Y-37991413D01*
X53975000Y-38085117D01*
X54446083Y-37991413D01*
X54845448Y-37724565D01*
X55112296Y-37325200D01*
X55206000Y-36854117D01*
X55206000Y-51756172D01*
X52338086Y-54624086D01*
X52186670Y-54850695D01*
X52133500Y-55118000D01*
X52133500Y-58148277D01*
X52078095Y-58092776D01*
X51826053Y-57988119D01*
X51553145Y-57987881D01*
X51319550Y-58084400D01*
X51305464Y-58084400D01*
X51305464Y-57817000D01*
X51277278Y-57671726D01*
X51193404Y-57544044D01*
X51066784Y-57458574D01*
X50917000Y-57428536D01*
X49667000Y-57428536D01*
X49521726Y-57456722D01*
X49394044Y-57540596D01*
X49308574Y-57667216D01*
X49278536Y-57817000D01*
X49278536Y-59317000D01*
X49306722Y-59462274D01*
X49390596Y-59589956D01*
X49517216Y-59675426D01*
X49549997Y-59682000D01*
X49540690Y-59682000D01*
X49307301Y-59778673D01*
X49128673Y-59957302D01*
X49032000Y-60190691D01*
X49032000Y-60781250D01*
X49190750Y-60940000D01*
X50165000Y-60940000D01*
X50165000Y-60920000D01*
X50419000Y-60920000D01*
X50419000Y-60940000D01*
X51393250Y-60940000D01*
X51552000Y-60781250D01*
X51552000Y-60190691D01*
X51455327Y-59957302D01*
X51276699Y-59778673D01*
X51043310Y-59682000D01*
X51037936Y-59682000D01*
X51062274Y-59677278D01*
X51189956Y-59593404D01*
X51275426Y-59466784D01*
X51305464Y-59317000D01*
X51305464Y-59257532D01*
X51551947Y-59359881D01*
X51824855Y-59360119D01*
X52077080Y-59255902D01*
X52133500Y-59199580D01*
X52133500Y-60706000D01*
X52145944Y-60768564D01*
X52145881Y-60841855D01*
X52174115Y-60910187D01*
X52186670Y-60973304D01*
X52222109Y-61026343D01*
X52250098Y-61094080D01*
X52302333Y-61146407D01*
X52338086Y-61199914D01*
X52391125Y-61235353D01*
X52442905Y-61287224D01*
X52511189Y-61315578D01*
X52564696Y-61351330D01*
X52627259Y-61363774D01*
X52694947Y-61391881D01*
X52768884Y-61391945D01*
X52832000Y-61404500D01*
X52894564Y-61392055D01*
X52967855Y-61392119D01*
X53036187Y-61363884D01*
X53099304Y-61351330D01*
X53152343Y-61315890D01*
X53220080Y-61287902D01*
X53272407Y-61235666D01*
X53325914Y-61199914D01*
X53361353Y-61146874D01*
X53413224Y-61095095D01*
X53441578Y-61026810D01*
X53477330Y-60973304D01*
X53489774Y-60910740D01*
X53517881Y-60843053D01*
X53517945Y-60769115D01*
X53530500Y-60706000D01*
X53530500Y-55407328D01*
X54565107Y-54372720D01*
X54515000Y-54493690D01*
X54515000Y-54746309D01*
X54515000Y-54959250D01*
X54673750Y-55118000D01*
X55773000Y-55118000D01*
X55773000Y-54143750D01*
X55614250Y-53985000D01*
X55023691Y-53985000D01*
X54902720Y-54035107D01*
X57389914Y-51547914D01*
X57425353Y-51494874D01*
X57425354Y-51494874D01*
X57477224Y-51443095D01*
X57505577Y-51374812D01*
X57505578Y-51374810D01*
X57541330Y-51321305D01*
X57541330Y-51321304D01*
X57553774Y-51258740D01*
X57581881Y-51191053D01*
X57581945Y-51117116D01*
X57581945Y-51117115D01*
X57594500Y-51054000D01*
X57594500Y-40802328D01*
X59548914Y-38847914D01*
X59700330Y-38621305D01*
X59700330Y-38621304D01*
X59753500Y-38354000D01*
X59753500Y-26509788D01*
X59791600Y-26547955D01*
X59791600Y-40084500D01*
X59247150Y-40628950D01*
X59142536Y-40785517D01*
X59105800Y-40970200D01*
X59105800Y-44602400D01*
X59142536Y-44787083D01*
X59247150Y-44943650D01*
X59385200Y-45081700D01*
X59385200Y-54319230D01*
X59299784Y-54261574D01*
X59150000Y-54231536D01*
X58724036Y-54231536D01*
X58597997Y-54105497D01*
X58598119Y-53966145D01*
X58493902Y-53713920D01*
X58301095Y-53520776D01*
X58049053Y-53416119D01*
X57776145Y-53415881D01*
X57523920Y-53520098D01*
X57330776Y-53712905D01*
X57226119Y-53964947D01*
X57225881Y-54237855D01*
X57310379Y-54442356D01*
X57291574Y-54470216D01*
X57285000Y-54502997D01*
X57285000Y-54493690D01*
X57188327Y-54260301D01*
X57009698Y-54081673D01*
X56776309Y-53985000D01*
X56185750Y-53985000D01*
X56027000Y-54143750D01*
X56027000Y-55118000D01*
X56047000Y-55118000D01*
X56047000Y-55372000D01*
X56027000Y-55372000D01*
X56027000Y-56346250D01*
X56185750Y-56505000D01*
X56776309Y-56505000D01*
X57009698Y-56408327D01*
X57188327Y-56229699D01*
X57285000Y-55996310D01*
X57285000Y-55990936D01*
X57289722Y-56015274D01*
X57373596Y-56142956D01*
X57500216Y-56228426D01*
X57650000Y-56258464D01*
X59150000Y-56258464D01*
X59295274Y-56230278D01*
X59385200Y-56171205D01*
X59385200Y-57407300D01*
X55773000Y-61019500D01*
X55773000Y-56346250D01*
X55773000Y-55372000D01*
X54673750Y-55372000D01*
X54515000Y-55530750D01*
X54515000Y-55743691D01*
X54515000Y-55996310D01*
X54611673Y-56229699D01*
X54790302Y-56408327D01*
X55023691Y-56505000D01*
X55614250Y-56505000D01*
X55773000Y-56346250D01*
X55773000Y-61019500D01*
X53811550Y-62980950D01*
X53706936Y-63137517D01*
X53670200Y-63322200D01*
X53670200Y-66827400D01*
X53706936Y-67012083D01*
X53811550Y-67168650D01*
X55727600Y-69084700D01*
X55727600Y-82854172D01*
X55720520Y-82857098D01*
X55527376Y-83049905D01*
X55422719Y-83301947D01*
X55422481Y-83574855D01*
X55526698Y-83827080D01*
X55719505Y-84020224D01*
X55971547Y-84124881D01*
X56244455Y-84125119D01*
X56496680Y-84020902D01*
X56689824Y-83828095D01*
X56794481Y-83576053D01*
X56794719Y-83303145D01*
X56692800Y-83056481D01*
X56692800Y-68884800D01*
X56656064Y-68700117D01*
X56551450Y-68543550D01*
X54635400Y-66627500D01*
X54635400Y-63522099D01*
X60019913Y-58137585D01*
X60019881Y-58174855D01*
X60124098Y-58427080D01*
X60316905Y-58620224D01*
X60568947Y-58724881D01*
X60841855Y-58725119D01*
X61094080Y-58620902D01*
X61287224Y-58428095D01*
X61391881Y-58176053D01*
X61392119Y-57903145D01*
X61388602Y-57894633D01*
X61475080Y-57858902D01*
X61668224Y-57666095D01*
X61772881Y-57414053D01*
X61773066Y-57201045D01*
X61857855Y-57201119D01*
X62110080Y-57096902D01*
X62303224Y-56904095D01*
X62407881Y-56652053D01*
X62407956Y-56566044D01*
X62492855Y-56566119D01*
X62745080Y-56461902D01*
X62938224Y-56269095D01*
X63042881Y-56017053D01*
X63043066Y-55804045D01*
X63127855Y-55804119D01*
X63380080Y-55699902D01*
X63573224Y-55507095D01*
X63677881Y-55255053D01*
X63678119Y-54982145D01*
X63674602Y-54973633D01*
X63761080Y-54937902D01*
X63954224Y-54745095D01*
X64058881Y-54493053D01*
X64059119Y-54220145D01*
X64059119Y-56162381D01*
X62904750Y-57316750D01*
X62800136Y-57473317D01*
X62763400Y-57658000D01*
X62763400Y-57683400D01*
X62763400Y-66929000D01*
X62800136Y-67113683D01*
X62904750Y-67270250D01*
X63725747Y-68091246D01*
X63725750Y-68091250D01*
X63882317Y-68195864D01*
X64067000Y-68232600D01*
X66246453Y-68232600D01*
X66344905Y-68331224D01*
X66596947Y-68435881D01*
X66869855Y-68436119D01*
X67122080Y-68331902D01*
X67315224Y-68139095D01*
X67419881Y-67887053D01*
X67420119Y-67614145D01*
X67315902Y-67361920D01*
X67123095Y-67168776D01*
X66871053Y-67064119D01*
X66598145Y-67063881D01*
X66345920Y-67168098D01*
X66246444Y-67267400D01*
X64266899Y-67267400D01*
X63728600Y-66729100D01*
X63728600Y-57857899D01*
X64008000Y-57578499D01*
X64008000Y-57785000D01*
X64008000Y-59182000D01*
X67945000Y-59182000D01*
X69088000Y-59182000D01*
X69088000Y-62357000D01*
X75692000Y-62357000D01*
X75692000Y-104569000D01*
X71723464Y-104569000D01*
X71723464Y-93560000D01*
X71723464Y-91860000D01*
X71695278Y-91714726D01*
X71611404Y-91587044D01*
X71484784Y-91501574D01*
X71335000Y-91471536D01*
X69635000Y-91471536D01*
X69489726Y-91499722D01*
X69362044Y-91583596D01*
X69276574Y-91710216D01*
X69246536Y-91860000D01*
X69246536Y-93560000D01*
X69274722Y-93705274D01*
X69358596Y-93832956D01*
X69485216Y-93918426D01*
X69635000Y-93948464D01*
X71335000Y-93948464D01*
X71480274Y-93920278D01*
X71607956Y-93836404D01*
X71693426Y-93709784D01*
X71723464Y-93560000D01*
X71723464Y-104569000D01*
X69176000Y-104569000D01*
X69176000Y-92734117D01*
X69176000Y-92685883D01*
X69082296Y-92214800D01*
X68815448Y-91815435D01*
X68427600Y-91556282D01*
X68427600Y-80619605D01*
X68427600Y-80619600D01*
X68427601Y-80619600D01*
X68390864Y-80434917D01*
X68286250Y-80278350D01*
X62585797Y-74577897D01*
X62585919Y-74438545D01*
X62481702Y-74186320D01*
X62288895Y-73993176D01*
X62036853Y-73888519D01*
X61763945Y-73888281D01*
X61511720Y-73992498D01*
X61318576Y-74185305D01*
X61213919Y-74437347D01*
X61213681Y-74710255D01*
X61219345Y-74723963D01*
X61206920Y-74729098D01*
X61013776Y-74921905D01*
X60909119Y-75173947D01*
X60909088Y-75209400D01*
X60579000Y-75209400D01*
X60452000Y-75209400D01*
X60267317Y-75246136D01*
X60110750Y-75350750D01*
X60110747Y-75350753D01*
X59729750Y-75731750D01*
X59625136Y-75888317D01*
X59588400Y-76073000D01*
X59588400Y-82169000D01*
X59625136Y-82353683D01*
X59639041Y-82374494D01*
X59638881Y-82558855D01*
X59743098Y-82811080D01*
X59935905Y-83004224D01*
X60187947Y-83108881D01*
X60460855Y-83109119D01*
X60713080Y-83004902D01*
X60906224Y-82812095D01*
X61010881Y-82560053D01*
X61011119Y-82287145D01*
X60906902Y-82034920D01*
X60714095Y-81841776D01*
X60553600Y-81775132D01*
X60553600Y-78922666D01*
X60697905Y-79067224D01*
X60949947Y-79171881D01*
X61222855Y-79172119D01*
X61475080Y-79067902D01*
X61620400Y-78922835D01*
X61620400Y-79014453D01*
X61521776Y-79112905D01*
X61417119Y-79364947D01*
X61416881Y-79637855D01*
X61521098Y-79890080D01*
X61713905Y-80083224D01*
X61965947Y-80187881D01*
X62238855Y-80188119D01*
X62491080Y-80083902D01*
X62684224Y-79891095D01*
X62788881Y-79639053D01*
X62789119Y-79366145D01*
X62684902Y-79113920D01*
X62585600Y-79014444D01*
X62585600Y-77449546D01*
X62684224Y-77351095D01*
X62788881Y-77099053D01*
X62789119Y-76826145D01*
X62684902Y-76573920D01*
X62492095Y-76380776D01*
X62240053Y-76276119D01*
X61967145Y-76275881D01*
X61772975Y-76356110D01*
X61773119Y-76191145D01*
X61692935Y-75997085D01*
X61730855Y-75997119D01*
X61983080Y-75892902D01*
X62176224Y-75700095D01*
X62225155Y-75582255D01*
X67462400Y-80819500D01*
X67462400Y-91556282D01*
X67074552Y-91815435D01*
X66807704Y-92214800D01*
X66714000Y-92685883D01*
X66714000Y-92734117D01*
X66807704Y-93205200D01*
X67074552Y-93604565D01*
X67473917Y-93871413D01*
X67945000Y-93965117D01*
X68416083Y-93871413D01*
X68815448Y-93604565D01*
X69082296Y-93205200D01*
X69176000Y-92734117D01*
X69176000Y-104569000D01*
X66636000Y-104569000D01*
X66636000Y-92734117D01*
X66636000Y-92685883D01*
X66542296Y-92214800D01*
X66275448Y-91815435D01*
X65876083Y-91548587D01*
X65405000Y-91454883D01*
X64933917Y-91548587D01*
X64534552Y-91815435D01*
X64267704Y-92214800D01*
X64259917Y-92253946D01*
X64060183Y-91828642D01*
X63631924Y-91438355D01*
X63221890Y-91268524D01*
X62992000Y-91389845D01*
X62992000Y-92583000D01*
X63012000Y-92583000D01*
X63012000Y-92837000D01*
X62992000Y-92837000D01*
X62992000Y-94030155D01*
X63221890Y-94151476D01*
X63631924Y-93981645D01*
X64060183Y-93591358D01*
X64259917Y-93166053D01*
X64267704Y-93205200D01*
X64534552Y-93604565D01*
X64933917Y-93871413D01*
X65405000Y-93965117D01*
X65876083Y-93871413D01*
X66275448Y-93604565D01*
X66542296Y-93205200D01*
X66636000Y-92734117D01*
X66636000Y-104569000D01*
X62738000Y-104569000D01*
X62738000Y-94030155D01*
X62738000Y-92837000D01*
X62738000Y-92583000D01*
X62738000Y-91389845D01*
X62508110Y-91268524D01*
X62098076Y-91438355D01*
X61669817Y-91828642D01*
X61423514Y-92353108D01*
X61544181Y-92583000D01*
X62738000Y-92583000D01*
X62738000Y-92837000D01*
X61544181Y-92837000D01*
X61423514Y-93066892D01*
X61669817Y-93591358D01*
X62098076Y-93981645D01*
X62508110Y-94151476D01*
X62738000Y-94030155D01*
X62738000Y-104569000D01*
X59106119Y-104569000D01*
X59106119Y-82033145D01*
X59001902Y-81780920D01*
X58902600Y-81681444D01*
X58902600Y-75504758D01*
X58978881Y-75321053D01*
X58979119Y-75048145D01*
X58874902Y-74795920D01*
X58682095Y-74602776D01*
X58430053Y-74498119D01*
X58157145Y-74497881D01*
X57904920Y-74602098D01*
X57711776Y-74794905D01*
X57607119Y-75046947D01*
X57606881Y-75319855D01*
X57711098Y-75572080D01*
X57903905Y-75765224D01*
X57937400Y-75779132D01*
X57937400Y-81681453D01*
X57838776Y-81779905D01*
X57734119Y-82031947D01*
X57733881Y-82304855D01*
X57838098Y-82557080D01*
X58030905Y-82750224D01*
X58282947Y-82854881D01*
X58555855Y-82855119D01*
X58808080Y-82750902D01*
X59001224Y-82558095D01*
X59105881Y-82306053D01*
X59106119Y-82033145D01*
X59106119Y-104569000D01*
X54407119Y-104569000D01*
X54407119Y-79366145D01*
X54302902Y-79113920D01*
X54110095Y-78920776D01*
X53858053Y-78816119D01*
X53585145Y-78815881D01*
X53332920Y-78920098D01*
X53139776Y-79112905D01*
X53035119Y-79364947D01*
X53034996Y-79505504D01*
X52886100Y-79654400D01*
X30048200Y-79654400D01*
X26279972Y-79654400D01*
X26368423Y-79566103D01*
X26542801Y-79146154D01*
X26543198Y-78691441D01*
X26369554Y-78271188D01*
X26292400Y-78193900D01*
X52844700Y-78193900D01*
X53029383Y-78157164D01*
X53185950Y-78052550D01*
X53463502Y-77774997D01*
X53602855Y-77775119D01*
X53855080Y-77670902D01*
X54048224Y-77478095D01*
X54152881Y-77226053D01*
X54153119Y-76953145D01*
X54048902Y-76700920D01*
X53856095Y-76507776D01*
X53604053Y-76403119D01*
X53331145Y-76402881D01*
X53078920Y-76507098D01*
X52885776Y-76699905D01*
X52781119Y-76951947D01*
X52780996Y-77092503D01*
X52644800Y-77228700D01*
X26292694Y-77228700D01*
X26368423Y-77153103D01*
X26542801Y-76733154D01*
X26543198Y-76278441D01*
X26369554Y-75858188D01*
X26305078Y-75793600D01*
X26851100Y-75793600D01*
X27852750Y-76795250D01*
X28009317Y-76899864D01*
X28194000Y-76936600D01*
X51943000Y-76936600D01*
X52127683Y-76899864D01*
X52284250Y-76795250D01*
X52574502Y-76504997D01*
X52713855Y-76505119D01*
X52966080Y-76400902D01*
X53159224Y-76208095D01*
X53263881Y-75956053D01*
X53264119Y-75683145D01*
X53159902Y-75430920D01*
X52967095Y-75237776D01*
X52777465Y-75159034D01*
X52904900Y-75031600D01*
X53340000Y-75031600D01*
X53524683Y-74994864D01*
X53545494Y-74980958D01*
X53729855Y-74981119D01*
X53982080Y-74876902D01*
X54175224Y-74684095D01*
X54279881Y-74432053D01*
X54280119Y-74159145D01*
X54175902Y-73906920D01*
X53983095Y-73713776D01*
X53731053Y-73609119D01*
X53458145Y-73608881D01*
X53205920Y-73713098D01*
X53012776Y-73905905D01*
X52946132Y-74066400D01*
X52705000Y-74066400D01*
X52520317Y-74103136D01*
X52363750Y-74207750D01*
X51552000Y-75019500D01*
X51552000Y-61943309D01*
X51552000Y-61352750D01*
X51393250Y-61194000D01*
X50419000Y-61194000D01*
X50419000Y-62293250D01*
X50577750Y-62452000D01*
X50790691Y-62452000D01*
X51043310Y-62452000D01*
X51276699Y-62355327D01*
X51455327Y-62176698D01*
X51552000Y-61943309D01*
X51552000Y-75019500D01*
X51235100Y-75336400D01*
X29790900Y-75336400D01*
X29041197Y-74586697D01*
X29072947Y-74599881D01*
X29345855Y-74600119D01*
X29598080Y-74495902D01*
X29791224Y-74303095D01*
X29895881Y-74051053D01*
X29896119Y-73778145D01*
X29791902Y-73525920D01*
X29599095Y-73332776D01*
X29347053Y-73228119D01*
X29206496Y-73227996D01*
X29184600Y-73206100D01*
X29184600Y-72771000D01*
X29147864Y-72586317D01*
X29043250Y-72429750D01*
X26757250Y-70143750D01*
X26600683Y-70039136D01*
X26416000Y-70002400D01*
X26279972Y-70002400D01*
X26368423Y-69914103D01*
X26542801Y-69494154D01*
X26543198Y-69039441D01*
X26369554Y-68619188D01*
X26305078Y-68554600D01*
X27232100Y-68554600D01*
X31027750Y-72350250D01*
X31184317Y-72454864D01*
X31369000Y-72491601D01*
X31369000Y-72491600D01*
X31369005Y-72491600D01*
X49644202Y-72491600D01*
X49710098Y-72651080D01*
X49902905Y-72844224D01*
X50154947Y-72948881D01*
X50427855Y-72949119D01*
X50680080Y-72844902D01*
X50873224Y-72652095D01*
X50977881Y-72400053D01*
X50978119Y-72127145D01*
X50873902Y-71874920D01*
X50681095Y-71681776D01*
X50429053Y-71577119D01*
X50243367Y-71576957D01*
X50222683Y-71563136D01*
X50165000Y-71551662D01*
X50165000Y-62293250D01*
X50165000Y-61194000D01*
X49190750Y-61194000D01*
X49032000Y-61352750D01*
X49032000Y-61943309D01*
X49128673Y-62176698D01*
X49307301Y-62355327D01*
X49540690Y-62452000D01*
X49793309Y-62452000D01*
X50006250Y-62452000D01*
X50165000Y-62293250D01*
X50165000Y-71551662D01*
X50038000Y-71526400D01*
X31568899Y-71526400D01*
X27773250Y-67730750D01*
X27616683Y-67626136D01*
X27432000Y-67589400D01*
X26279972Y-67589400D01*
X26368423Y-67501103D01*
X26542801Y-67081154D01*
X26543198Y-66626441D01*
X26432126Y-66357626D01*
X27979750Y-67905250D01*
X28136317Y-68009864D01*
X28321000Y-68046600D01*
X45720000Y-68046600D01*
X45904683Y-68009864D01*
X46061250Y-67905250D01*
X47113501Y-66852997D01*
X47252855Y-66853119D01*
X47505080Y-66748902D01*
X47698224Y-66556095D01*
X47752000Y-66426588D01*
X47752000Y-68757172D01*
X47744920Y-68760098D01*
X47551776Y-68952905D01*
X47447119Y-69204947D01*
X47446881Y-69477855D01*
X47551098Y-69730080D01*
X47743905Y-69923224D01*
X47995947Y-70027881D01*
X48268855Y-70028119D01*
X48521080Y-69923902D01*
X48714224Y-69731095D01*
X48818881Y-69479053D01*
X48819119Y-69206145D01*
X48768000Y-69082427D01*
X48768000Y-56598420D01*
X51540210Y-53826210D01*
X51650331Y-53661403D01*
X51689000Y-53467000D01*
X51689000Y-38034593D01*
X51906083Y-37991413D01*
X52305448Y-37724565D01*
X52572296Y-37325200D01*
X52666000Y-36854117D01*
X52666000Y-36805883D01*
X52666000Y-34314117D01*
X52666000Y-34265883D01*
X52572296Y-33794800D01*
X52305448Y-33395435D01*
X51943000Y-33153254D01*
X51943000Y-32512000D01*
X51904331Y-32317597D01*
X51904331Y-32317596D01*
X51794210Y-32152790D01*
X50651210Y-31009790D01*
X50486403Y-30899669D01*
X50292000Y-30861000D01*
X45085000Y-30861000D01*
X44890597Y-30899669D01*
X44725790Y-31009790D01*
X43963790Y-31771790D01*
X43853669Y-31936597D01*
X43815000Y-32131000D01*
X43815000Y-38608000D01*
X43853669Y-38802403D01*
X43963790Y-38967210D01*
X49022000Y-44025420D01*
X49022000Y-52572411D01*
X48971119Y-52694947D01*
X48970881Y-52967855D01*
X49075098Y-53220080D01*
X49267905Y-53413224D01*
X49519947Y-53517881D01*
X49792855Y-53518119D01*
X50045080Y-53413902D01*
X50238224Y-53221095D01*
X50342881Y-52969053D01*
X50343119Y-52696145D01*
X50238902Y-52443920D01*
X50133464Y-52338297D01*
X50133464Y-37680000D01*
X50133464Y-35980000D01*
X50105278Y-35834726D01*
X50021404Y-35707044D01*
X49894784Y-35621574D01*
X49745000Y-35591536D01*
X49403000Y-35591536D01*
X49403000Y-35528464D01*
X49745000Y-35528464D01*
X49890274Y-35500278D01*
X50017956Y-35416404D01*
X50103426Y-35289784D01*
X50133464Y-35140000D01*
X50133464Y-33440000D01*
X50105278Y-33294726D01*
X50021404Y-33167044D01*
X49894784Y-33081574D01*
X49745000Y-33051536D01*
X48045000Y-33051536D01*
X47899726Y-33079722D01*
X47772044Y-33163596D01*
X47686574Y-33290216D01*
X47656536Y-33440000D01*
X47656536Y-35140000D01*
X47684722Y-35285274D01*
X47768596Y-35412956D01*
X47895216Y-35498426D01*
X48045000Y-35528464D01*
X48387000Y-35528464D01*
X48387000Y-35591536D01*
X48045000Y-35591536D01*
X47899726Y-35619722D01*
X47772044Y-35703596D01*
X47686574Y-35830216D01*
X47656536Y-35980000D01*
X47656536Y-37680000D01*
X47684722Y-37825274D01*
X47768596Y-37952956D01*
X47895216Y-38038426D01*
X48045000Y-38068464D01*
X49745000Y-38068464D01*
X49890274Y-38040278D01*
X50017956Y-37956404D01*
X50103426Y-37829784D01*
X50133464Y-37680000D01*
X50133464Y-52338297D01*
X50046095Y-52250776D01*
X50038000Y-52247414D01*
X50038000Y-43815000D01*
X49999331Y-43620597D01*
X49889210Y-43455790D01*
X44831000Y-38397580D01*
X44831000Y-32341420D01*
X45295420Y-31877000D01*
X50081580Y-31877000D01*
X50927000Y-32722420D01*
X50927000Y-33153254D01*
X50564552Y-33395435D01*
X50297704Y-33794800D01*
X50204000Y-34265883D01*
X50204000Y-34314117D01*
X50297704Y-34785200D01*
X50564552Y-35184565D01*
X50963917Y-35451413D01*
X51435000Y-35545117D01*
X51906083Y-35451413D01*
X52305448Y-35184565D01*
X52572296Y-34785200D01*
X52666000Y-34314117D01*
X52666000Y-36805883D01*
X52572296Y-36334800D01*
X52305448Y-35935435D01*
X51906083Y-35668587D01*
X51435000Y-35574883D01*
X50963917Y-35668587D01*
X50564552Y-35935435D01*
X50297704Y-36334800D01*
X50204000Y-36805883D01*
X50204000Y-36854117D01*
X50297704Y-37325200D01*
X50564552Y-37724565D01*
X50673000Y-37797027D01*
X50673000Y-53256580D01*
X47900790Y-56028790D01*
X47790669Y-56193597D01*
X47752000Y-56388000D01*
X47752000Y-65907427D01*
X47698902Y-65778920D01*
X47506095Y-65585776D01*
X47254053Y-65481119D01*
X46981145Y-65480881D01*
X46728920Y-65585098D01*
X46535776Y-65777905D01*
X46431119Y-66029947D01*
X46430996Y-66170504D01*
X45520100Y-67081400D01*
X28520900Y-67081400D01*
X26757250Y-65317750D01*
X26600683Y-65213136D01*
X26416000Y-65176400D01*
X26279972Y-65176400D01*
X26368423Y-65088103D01*
X26542801Y-64668154D01*
X26543198Y-64213441D01*
X26369554Y-63793188D01*
X26305078Y-63728600D01*
X26343100Y-63728600D01*
X28360750Y-65746250D01*
X28517317Y-65850864D01*
X28702000Y-65887600D01*
X43688000Y-65887600D01*
X43872683Y-65850864D01*
X44029250Y-65746250D01*
X44192502Y-65582997D01*
X44331855Y-65583119D01*
X44584080Y-65478902D01*
X44777224Y-65286095D01*
X44881881Y-65034053D01*
X44882119Y-64761145D01*
X44777902Y-64508920D01*
X44585095Y-64315776D01*
X44333053Y-64211119D01*
X44060145Y-64210881D01*
X43807920Y-64315098D01*
X43614776Y-64507905D01*
X43510119Y-64759947D01*
X43509996Y-64900503D01*
X43488100Y-64922400D01*
X28901900Y-64922400D01*
X26884250Y-62904750D01*
X26727683Y-62800136D01*
X26543000Y-62763400D01*
X26279972Y-62763400D01*
X26368423Y-62675103D01*
X26542801Y-62255154D01*
X26543198Y-61800441D01*
X26369554Y-61380188D01*
X26305078Y-61315600D01*
X26343100Y-61315600D01*
X29249750Y-64222250D01*
X29406317Y-64326864D01*
X29591000Y-64363600D01*
X42545000Y-64363600D01*
X42729683Y-64326864D01*
X42886250Y-64222250D01*
X42922502Y-64185997D01*
X43061855Y-64186119D01*
X43314080Y-64081902D01*
X43507224Y-63889095D01*
X43611881Y-63637053D01*
X43612119Y-63364145D01*
X43507902Y-63111920D01*
X43315095Y-62918776D01*
X43063053Y-62814119D01*
X42790145Y-62813881D01*
X42537920Y-62918098D01*
X42344776Y-63110905D01*
X42240119Y-63362947D01*
X42240088Y-63398400D01*
X29790900Y-63398400D01*
X26884250Y-60491750D01*
X26727683Y-60387136D01*
X26543000Y-60350400D01*
X26279972Y-60350400D01*
X26368423Y-60262103D01*
X26542801Y-59842154D01*
X26543198Y-59387441D01*
X26432126Y-59118626D01*
X29159002Y-61845502D01*
X29158881Y-61984855D01*
X29263098Y-62237080D01*
X29455905Y-62430224D01*
X29707947Y-62534881D01*
X29980855Y-62535119D01*
X30233080Y-62430902D01*
X30426224Y-62238095D01*
X30530881Y-61986053D01*
X30531119Y-61713145D01*
X30426902Y-61460920D01*
X30234095Y-61267776D01*
X29982053Y-61163119D01*
X29841496Y-61162996D01*
X26757250Y-58078750D01*
X26600683Y-57974136D01*
X26416000Y-57937400D01*
X26279972Y-57937400D01*
X26368423Y-57849103D01*
X26542801Y-57429154D01*
X26543198Y-56974441D01*
X26432126Y-56705626D01*
X29413002Y-59686501D01*
X29412881Y-59825855D01*
X29517098Y-60078080D01*
X29709905Y-60271224D01*
X29961947Y-60375881D01*
X30234855Y-60376119D01*
X30487080Y-60271902D01*
X30680224Y-60079095D01*
X30784881Y-59827053D01*
X30785119Y-59554145D01*
X30680902Y-59301920D01*
X30488095Y-59108776D01*
X30236053Y-59004119D01*
X30095495Y-59003996D01*
X26757250Y-55665750D01*
X26600683Y-55561136D01*
X26416000Y-55524400D01*
X26279972Y-55524400D01*
X26368423Y-55436103D01*
X26542801Y-55016154D01*
X26543198Y-54561441D01*
X26432126Y-54292626D01*
X28143002Y-56003502D01*
X28142881Y-56142855D01*
X28247098Y-56395080D01*
X28439905Y-56588224D01*
X28691947Y-56692881D01*
X28964855Y-56693119D01*
X29217080Y-56588902D01*
X29410224Y-56396095D01*
X29514881Y-56144053D01*
X29515119Y-55871145D01*
X29410902Y-55618920D01*
X29218095Y-55425776D01*
X28966053Y-55321119D01*
X28825496Y-55320996D01*
X26757250Y-53252750D01*
X26600683Y-53148136D01*
X26416000Y-53111400D01*
X26279972Y-53111400D01*
X26368423Y-53023103D01*
X26542801Y-52603154D01*
X26543198Y-52148441D01*
X26369554Y-51728188D01*
X26305078Y-51663600D01*
X26851100Y-51663600D01*
X29667002Y-54479502D01*
X29666881Y-54618855D01*
X29771098Y-54871080D01*
X29963905Y-55064224D01*
X30215947Y-55168881D01*
X30488855Y-55169119D01*
X30741080Y-55064902D01*
X30934224Y-54872095D01*
X31038881Y-54620053D01*
X31039119Y-54347145D01*
X30934902Y-54094920D01*
X30742095Y-53901776D01*
X30490053Y-53797119D01*
X30349496Y-53796996D01*
X27392250Y-50839750D01*
X27235683Y-50735136D01*
X27051000Y-50698400D01*
X26279972Y-50698400D01*
X26368423Y-50610103D01*
X26542801Y-50190154D01*
X26543198Y-49735441D01*
X26395341Y-49377600D01*
X27359100Y-49377600D01*
X30048002Y-52066502D01*
X30047881Y-52205855D01*
X30152098Y-52458080D01*
X30344905Y-52651224D01*
X30596947Y-52755881D01*
X30869855Y-52756119D01*
X31122080Y-52651902D01*
X31315224Y-52459095D01*
X31419881Y-52207053D01*
X31420119Y-51934145D01*
X31315902Y-51681920D01*
X31123095Y-51488776D01*
X30871053Y-51384119D01*
X30730496Y-51383996D01*
X27900250Y-48553750D01*
X27743683Y-48449136D01*
X27559000Y-48412400D01*
X26152750Y-48412400D01*
X26368423Y-48197103D01*
X26542801Y-47777154D01*
X26543198Y-47322441D01*
X26369554Y-46902188D01*
X26305078Y-46837600D01*
X27486100Y-46837600D01*
X31064002Y-50415502D01*
X31063881Y-50554855D01*
X31168098Y-50807080D01*
X31360905Y-51000224D01*
X31612947Y-51104881D01*
X31885855Y-51105119D01*
X32138080Y-51000902D01*
X32331224Y-50808095D01*
X32435881Y-50556053D01*
X32436119Y-50283145D01*
X32331902Y-50030920D01*
X32139095Y-49837776D01*
X31887053Y-49733119D01*
X31746496Y-49732996D01*
X28027250Y-46013750D01*
X27870683Y-45909136D01*
X27686000Y-45872400D01*
X26279972Y-45872400D01*
X26368423Y-45784103D01*
X26542801Y-45364154D01*
X26543198Y-44909441D01*
X26369554Y-44489188D01*
X26305078Y-44424600D01*
X27740100Y-44424600D01*
X32080002Y-48764501D01*
X32079881Y-48903855D01*
X32184098Y-49156080D01*
X32376905Y-49349224D01*
X32628947Y-49453881D01*
X32901855Y-49454119D01*
X33154080Y-49349902D01*
X33347224Y-49157095D01*
X33451881Y-48905053D01*
X33452119Y-48632145D01*
X33347902Y-48379920D01*
X33155095Y-48186776D01*
X32903053Y-48082119D01*
X32762495Y-48081996D01*
X32254051Y-47573552D01*
X32385000Y-47599600D01*
X33421453Y-47599600D01*
X33519905Y-47698224D01*
X33771947Y-47802881D01*
X34044855Y-47803119D01*
X34297080Y-47698902D01*
X34490224Y-47506095D01*
X34594881Y-47254053D01*
X34595119Y-46981145D01*
X34490902Y-46728920D01*
X34298095Y-46535776D01*
X34046053Y-46431119D01*
X33773145Y-46430881D01*
X33520920Y-46535098D01*
X33421444Y-46634400D01*
X32584899Y-46634400D01*
X27138250Y-41187750D01*
X26981683Y-41083136D01*
X26797000Y-41046400D01*
X26279972Y-41046400D01*
X26368423Y-40958103D01*
X26542801Y-40538154D01*
X26543198Y-40083441D01*
X26369554Y-39663188D01*
X26305078Y-39598600D01*
X27232100Y-39598600D01*
X32842002Y-45208502D01*
X32841881Y-45347855D01*
X32946098Y-45600080D01*
X33138905Y-45793224D01*
X33390947Y-45897881D01*
X33663855Y-45898119D01*
X33916080Y-45793902D01*
X34109224Y-45601095D01*
X34213881Y-45349053D01*
X34214119Y-45076145D01*
X34109902Y-44823920D01*
X33917095Y-44630776D01*
X33665053Y-44526119D01*
X33524496Y-44525996D01*
X27773250Y-38774750D01*
X27616683Y-38670136D01*
X27432000Y-38633400D01*
X26279972Y-38633400D01*
X26368423Y-38545103D01*
X26542801Y-38125154D01*
X26543198Y-37670441D01*
X26369554Y-37250188D01*
X26305078Y-37185600D01*
X27486100Y-37185600D01*
X33985002Y-43684502D01*
X33984881Y-43823855D01*
X34089098Y-44076080D01*
X34281905Y-44269224D01*
X34533947Y-44373881D01*
X34806855Y-44374119D01*
X35059080Y-44269902D01*
X35252224Y-44077095D01*
X35356881Y-43825053D01*
X35357119Y-43552145D01*
X35252902Y-43299920D01*
X35060095Y-43106776D01*
X34808053Y-43002119D01*
X34667496Y-43001996D01*
X28139373Y-36473873D01*
X28328080Y-36395902D01*
X28521224Y-36203095D01*
X28625881Y-35951053D01*
X28626119Y-35678145D01*
X28521902Y-35425920D01*
X28329095Y-35232776D01*
X28077053Y-35128119D01*
X27936495Y-35127996D01*
X26630250Y-33821750D01*
X26473683Y-33717136D01*
X26289000Y-33680400D01*
X25146396Y-33680400D01*
X25146396Y-25455281D01*
X24799106Y-24614777D01*
X24156605Y-23971154D01*
X23316708Y-23622398D01*
X22407281Y-23621604D01*
X21566777Y-23968894D01*
X20923154Y-24611395D01*
X20574398Y-25451292D01*
X20573604Y-26360719D01*
X20920894Y-27201223D01*
X21563395Y-27844846D01*
X22403292Y-28193602D01*
X23312719Y-28194396D01*
X24153223Y-27847106D01*
X24796846Y-27204605D01*
X25145602Y-26364708D01*
X25146396Y-25455281D01*
X25146396Y-33680400D01*
X24765000Y-33680400D01*
X24580317Y-33717136D01*
X24423750Y-33821750D01*
X24244899Y-34000600D01*
X24241362Y-33929932D01*
X24082397Y-33546157D01*
X23840213Y-33476692D01*
X23660608Y-33656297D01*
X23660608Y-33297087D01*
X23591143Y-33054903D01*
X23067698Y-32868156D01*
X22512632Y-32895938D01*
X22128857Y-33054903D01*
X22059392Y-33297087D01*
X22860000Y-34097695D01*
X23660608Y-33297087D01*
X23660608Y-33656297D01*
X23039605Y-34277300D01*
X23053747Y-34291442D01*
X22874142Y-34471047D01*
X22860000Y-34456905D01*
X22845857Y-34471047D01*
X22666252Y-34291442D01*
X22680395Y-34277300D01*
X21879787Y-33476692D01*
X21729144Y-33519900D01*
X21729144Y-33278498D01*
X21701362Y-32723432D01*
X21542397Y-32339657D01*
X21300213Y-32270192D01*
X21120608Y-32449797D01*
X21120608Y-32090587D01*
X21051143Y-31848403D01*
X20527698Y-31661656D01*
X19972632Y-31689438D01*
X19588857Y-31848403D01*
X19519392Y-32090587D01*
X20320000Y-32891195D01*
X21120608Y-32090587D01*
X21120608Y-32449797D01*
X20499605Y-33070800D01*
X21300213Y-33871408D01*
X21542397Y-33801943D01*
X21729144Y-33278498D01*
X21729144Y-33519900D01*
X21637603Y-33546157D01*
X21450856Y-34069602D01*
X21478638Y-34624668D01*
X21634602Y-35001200D01*
X21357321Y-35001200D01*
X21289554Y-34837188D01*
X20968303Y-34515377D01*
X20741807Y-34421327D01*
X21051143Y-34293197D01*
X21120608Y-34051013D01*
X20320000Y-33250405D01*
X20140395Y-33430010D01*
X20140395Y-33070800D01*
X19339787Y-32270192D01*
X19097603Y-32339657D01*
X18910856Y-32863102D01*
X18938638Y-33418168D01*
X19097603Y-33801943D01*
X19339787Y-33871408D01*
X20140395Y-33070800D01*
X20140395Y-33430010D01*
X19519392Y-34051013D01*
X19588857Y-34293197D01*
X19921313Y-34411805D01*
X19673388Y-34514246D01*
X19351577Y-34835497D01*
X19177199Y-35255446D01*
X19176802Y-35710159D01*
X19350446Y-36130412D01*
X19671697Y-36452223D01*
X20091646Y-36626601D01*
X20546359Y-36626998D01*
X20966612Y-36453354D01*
X21288423Y-36132103D01*
X21357228Y-35966400D01*
X21967305Y-35966400D01*
X21891577Y-36041997D01*
X21717199Y-36461946D01*
X21716802Y-36916659D01*
X21890446Y-37336912D01*
X21967599Y-37414200D01*
X21357321Y-37414200D01*
X21289554Y-37250188D01*
X20968303Y-36928377D01*
X20548354Y-36753999D01*
X20093641Y-36753602D01*
X19673388Y-36927246D01*
X19351577Y-37248497D01*
X19177199Y-37668446D01*
X19176802Y-38123159D01*
X19350446Y-38543412D01*
X19671697Y-38865223D01*
X20091646Y-39039601D01*
X20546359Y-39039998D01*
X20966612Y-38866354D01*
X21288423Y-38545103D01*
X21357228Y-38379400D01*
X21967305Y-38379400D01*
X21891577Y-38454997D01*
X21717199Y-38874946D01*
X21716802Y-39329659D01*
X21890446Y-39749912D01*
X21967599Y-39827200D01*
X21357321Y-39827200D01*
X21289554Y-39663188D01*
X20968303Y-39341377D01*
X20548354Y-39166999D01*
X20093641Y-39166602D01*
X19673388Y-39340246D01*
X19351577Y-39661497D01*
X19177199Y-40081446D01*
X19176802Y-40536159D01*
X19350446Y-40956412D01*
X19671697Y-41278223D01*
X20091646Y-41452601D01*
X20546359Y-41452998D01*
X20966612Y-41279354D01*
X21288423Y-40958103D01*
X21357228Y-40792400D01*
X21967305Y-40792400D01*
X21891577Y-40867997D01*
X21717199Y-41287946D01*
X21716802Y-41742659D01*
X21890446Y-42162912D01*
X21967599Y-42240200D01*
X21357321Y-42240200D01*
X21289554Y-42076188D01*
X20968303Y-41754377D01*
X20548354Y-41579999D01*
X20093641Y-41579602D01*
X19673388Y-41753246D01*
X19351577Y-42074497D01*
X19177199Y-42494446D01*
X19176802Y-42949159D01*
X19350446Y-43369412D01*
X19671697Y-43691223D01*
X20091646Y-43865601D01*
X20546359Y-43865998D01*
X20966612Y-43692354D01*
X21288423Y-43371103D01*
X21357228Y-43205400D01*
X21967305Y-43205400D01*
X21891577Y-43280997D01*
X21717199Y-43700946D01*
X21716802Y-44155659D01*
X21890446Y-44575912D01*
X21967599Y-44653200D01*
X21357321Y-44653200D01*
X21289554Y-44489188D01*
X20968303Y-44167377D01*
X20548354Y-43992999D01*
X20093641Y-43992602D01*
X19673388Y-44166246D01*
X19351577Y-44487497D01*
X19177199Y-44907446D01*
X19176802Y-45362159D01*
X19350446Y-45782412D01*
X19671697Y-46104223D01*
X20091646Y-46278601D01*
X20546359Y-46278998D01*
X20966612Y-46105354D01*
X21288423Y-45784103D01*
X21357228Y-45618400D01*
X21967305Y-45618400D01*
X21891577Y-45693997D01*
X21717199Y-46113946D01*
X21716802Y-46568659D01*
X21890446Y-46988912D01*
X21916887Y-47015400D01*
X21336331Y-47015400D01*
X21289554Y-46902188D01*
X20968303Y-46580377D01*
X20548354Y-46405999D01*
X20093641Y-46405602D01*
X19673388Y-46579246D01*
X19351577Y-46900497D01*
X19177199Y-47320446D01*
X19176802Y-47775159D01*
X19350446Y-48195412D01*
X19671697Y-48517223D01*
X20091646Y-48691601D01*
X20546359Y-48691998D01*
X20966612Y-48518354D01*
X21288423Y-48197103D01*
X21378322Y-47980600D01*
X22018194Y-47980600D01*
X21891577Y-48106997D01*
X21717199Y-48526946D01*
X21716802Y-48981659D01*
X21890446Y-49401912D01*
X21967599Y-49479200D01*
X21357321Y-49479200D01*
X21289554Y-49315188D01*
X20968303Y-48993377D01*
X20548354Y-48818999D01*
X20093641Y-48818602D01*
X19673388Y-48992246D01*
X19351577Y-49313497D01*
X19177199Y-49733446D01*
X19176802Y-50188159D01*
X19350446Y-50608412D01*
X19671697Y-50930223D01*
X20091646Y-51104601D01*
X20546359Y-51104998D01*
X20966612Y-50931354D01*
X21288423Y-50610103D01*
X21357228Y-50444400D01*
X21967305Y-50444400D01*
X21891577Y-50519997D01*
X21717199Y-50939946D01*
X21716802Y-51394659D01*
X21890446Y-51814912D01*
X21967599Y-51892200D01*
X21357321Y-51892200D01*
X21289554Y-51728188D01*
X20968303Y-51406377D01*
X20548354Y-51231999D01*
X20093641Y-51231602D01*
X19673388Y-51405246D01*
X19351577Y-51726497D01*
X19177199Y-52146446D01*
X19176802Y-52601159D01*
X19350446Y-53021412D01*
X19671697Y-53343223D01*
X20091646Y-53517601D01*
X20546359Y-53517998D01*
X20966612Y-53344354D01*
X21288423Y-53023103D01*
X21357228Y-52857400D01*
X21967305Y-52857400D01*
X21891577Y-52932997D01*
X21717199Y-53352946D01*
X21716802Y-53807659D01*
X21890446Y-54227912D01*
X21967599Y-54305200D01*
X21357321Y-54305200D01*
X21289554Y-54141188D01*
X20968303Y-53819377D01*
X20548354Y-53644999D01*
X20093641Y-53644602D01*
X19673388Y-53818246D01*
X19351577Y-54139497D01*
X19177199Y-54559446D01*
X19176802Y-55014159D01*
X19350446Y-55434412D01*
X19671697Y-55756223D01*
X20091646Y-55930601D01*
X20546359Y-55930998D01*
X20966612Y-55757354D01*
X21288423Y-55436103D01*
X21357228Y-55270400D01*
X21967305Y-55270400D01*
X21891577Y-55345997D01*
X21717199Y-55765946D01*
X21716802Y-56220659D01*
X21890446Y-56640912D01*
X21967599Y-56718200D01*
X21357321Y-56718200D01*
X21289554Y-56554188D01*
X20968303Y-56232377D01*
X20548354Y-56057999D01*
X20093641Y-56057602D01*
X19673388Y-56231246D01*
X19351577Y-56552497D01*
X19177199Y-56972446D01*
X19176802Y-57427159D01*
X19350446Y-57847412D01*
X19671697Y-58169223D01*
X20091646Y-58343601D01*
X20546359Y-58343998D01*
X20966612Y-58170354D01*
X21288423Y-57849103D01*
X21357228Y-57683400D01*
X21967305Y-57683400D01*
X21891577Y-57758997D01*
X21717199Y-58178946D01*
X21716802Y-58633659D01*
X21890446Y-59053912D01*
X21967599Y-59131200D01*
X21357321Y-59131200D01*
X21289554Y-58967188D01*
X20968303Y-58645377D01*
X20548354Y-58470999D01*
X20093641Y-58470602D01*
X19673388Y-58644246D01*
X19351577Y-58965497D01*
X19177199Y-59385446D01*
X19176802Y-59840159D01*
X19350446Y-60260412D01*
X19671697Y-60582223D01*
X20091646Y-60756601D01*
X20546359Y-60756998D01*
X20966612Y-60583354D01*
X21288423Y-60262103D01*
X21357228Y-60096400D01*
X21891105Y-60096400D01*
X21815377Y-60171997D01*
X21640999Y-60591946D01*
X21640602Y-61046659D01*
X21814246Y-61466912D01*
X21891399Y-61544200D01*
X21357321Y-61544200D01*
X21289554Y-61380188D01*
X20968303Y-61058377D01*
X20548354Y-60883999D01*
X20093641Y-60883602D01*
X19673388Y-61057246D01*
X19351577Y-61378497D01*
X19177199Y-61798446D01*
X19176802Y-62253159D01*
X19350446Y-62673412D01*
X19671697Y-62995223D01*
X20091646Y-63169601D01*
X20546359Y-63169998D01*
X20966612Y-62996354D01*
X21288423Y-62675103D01*
X21357228Y-62509400D01*
X21967305Y-62509400D01*
X21891577Y-62584997D01*
X21717199Y-63004946D01*
X21716802Y-63459659D01*
X21890446Y-63879912D01*
X21967599Y-63957200D01*
X21357321Y-63957200D01*
X21289554Y-63793188D01*
X20968303Y-63471377D01*
X20548354Y-63296999D01*
X20093641Y-63296602D01*
X19673388Y-63470246D01*
X19351577Y-63791497D01*
X19177199Y-64211446D01*
X19176802Y-64666159D01*
X19350446Y-65086412D01*
X19671697Y-65408223D01*
X20091646Y-65582601D01*
X20546359Y-65582998D01*
X20966612Y-65409354D01*
X21288423Y-65088103D01*
X21357228Y-64922400D01*
X21967305Y-64922400D01*
X21891577Y-64997997D01*
X21717199Y-65417946D01*
X21716802Y-65872659D01*
X21890446Y-66292912D01*
X21967599Y-66370200D01*
X21357321Y-66370200D01*
X21289554Y-66206188D01*
X20968303Y-65884377D01*
X20548354Y-65709999D01*
X20093641Y-65709602D01*
X19673388Y-65883246D01*
X19351577Y-66204497D01*
X19177199Y-66624446D01*
X19176802Y-67079159D01*
X19350446Y-67499412D01*
X19671697Y-67821223D01*
X20091646Y-67995601D01*
X20546359Y-67995998D01*
X20966612Y-67822354D01*
X21288423Y-67501103D01*
X21357228Y-67335400D01*
X21967305Y-67335400D01*
X21891577Y-67410997D01*
X21717199Y-67830946D01*
X21716802Y-68285659D01*
X21890446Y-68705912D01*
X22211697Y-69027723D01*
X22631646Y-69202101D01*
X22825229Y-69202270D01*
X22698341Y-69329158D01*
X22633641Y-69329102D01*
X22213388Y-69502746D01*
X21891577Y-69823997D01*
X21717199Y-70243946D01*
X21716802Y-70698659D01*
X21890446Y-71118912D01*
X21967599Y-71196200D01*
X21463198Y-71196200D01*
X21463198Y-69039441D01*
X21289554Y-68619188D01*
X20968303Y-68297377D01*
X20548354Y-68122999D01*
X20093641Y-68122602D01*
X19673388Y-68296246D01*
X19351577Y-68617497D01*
X19177199Y-69037446D01*
X19176802Y-69492159D01*
X19350446Y-69912412D01*
X19671697Y-70234223D01*
X20091646Y-70408601D01*
X20546359Y-70408998D01*
X20966612Y-70235354D01*
X21288423Y-69914103D01*
X21462801Y-69494154D01*
X21463198Y-69039441D01*
X21463198Y-71196200D01*
X21357321Y-71196200D01*
X21289554Y-71032188D01*
X20968303Y-70710377D01*
X20548354Y-70535999D01*
X20093641Y-70535602D01*
X19673388Y-70709246D01*
X19351577Y-71030497D01*
X19177199Y-71450446D01*
X19176802Y-71905159D01*
X19350446Y-72325412D01*
X19671697Y-72647223D01*
X20091646Y-72821601D01*
X20546359Y-72821998D01*
X20966612Y-72648354D01*
X21288423Y-72327103D01*
X21357228Y-72161400D01*
X21967305Y-72161400D01*
X21891577Y-72236997D01*
X21717199Y-72656946D01*
X21716802Y-73111659D01*
X21890446Y-73531912D01*
X21967599Y-73609200D01*
X21357321Y-73609200D01*
X21289554Y-73445188D01*
X20968303Y-73123377D01*
X20548354Y-72948999D01*
X20093641Y-72948602D01*
X19673388Y-73122246D01*
X19351577Y-73443497D01*
X19177199Y-73863446D01*
X19176802Y-74318159D01*
X19350446Y-74738412D01*
X19671697Y-75060223D01*
X20091646Y-75234601D01*
X20546359Y-75234998D01*
X20966612Y-75061354D01*
X21288423Y-74740103D01*
X21357228Y-74574400D01*
X21967305Y-74574400D01*
X21891577Y-74649997D01*
X21717199Y-75069946D01*
X21716802Y-75524659D01*
X21890446Y-75944912D01*
X21967599Y-76022200D01*
X21357321Y-76022200D01*
X21289554Y-75858188D01*
X20968303Y-75536377D01*
X20548354Y-75361999D01*
X20093641Y-75361602D01*
X19673388Y-75535246D01*
X19351577Y-75856497D01*
X19177199Y-76276446D01*
X19176802Y-76731159D01*
X19350446Y-77151412D01*
X19671697Y-77473223D01*
X20091646Y-77647601D01*
X20546359Y-77647998D01*
X20966612Y-77474354D01*
X21288423Y-77153103D01*
X21357228Y-76987400D01*
X21967305Y-76987400D01*
X21891577Y-77062997D01*
X21717199Y-77482946D01*
X21716802Y-77937659D01*
X21890446Y-78357912D01*
X21967599Y-78435200D01*
X21357321Y-78435200D01*
X21289554Y-78271188D01*
X20968303Y-77949377D01*
X20548354Y-77774999D01*
X20093641Y-77774602D01*
X19673388Y-77948246D01*
X19351577Y-78269497D01*
X19177199Y-78689446D01*
X19176802Y-79144159D01*
X19350446Y-79564412D01*
X19671697Y-79886223D01*
X20091646Y-80060601D01*
X20546359Y-80060998D01*
X20966612Y-79887354D01*
X21288423Y-79566103D01*
X21357228Y-79400400D01*
X21967305Y-79400400D01*
X21891577Y-79475997D01*
X21717199Y-79895946D01*
X21716802Y-80350659D01*
X21890446Y-80770912D01*
X22211697Y-81092723D01*
X22438192Y-81186772D01*
X22128857Y-81314903D01*
X22059392Y-81557087D01*
X22860000Y-82357695D01*
X23660608Y-81557087D01*
X23591143Y-81314903D01*
X23258686Y-81196294D01*
X23506612Y-81093854D01*
X23828423Y-80772603D01*
X24002801Y-80352654D01*
X24002947Y-80184447D01*
X24296750Y-80478250D01*
X24388092Y-80539282D01*
X24177603Y-80599657D01*
X23990856Y-81123102D01*
X24018638Y-81678168D01*
X24070204Y-81802659D01*
X23840213Y-81736692D01*
X23039605Y-82537300D01*
X23840213Y-83337908D01*
X24082397Y-83268443D01*
X24269144Y-82744998D01*
X24241362Y-82189932D01*
X24189795Y-82065440D01*
X24419787Y-82131408D01*
X25220395Y-81330800D01*
X25206252Y-81316657D01*
X25385857Y-81137052D01*
X25400000Y-81151195D01*
X25414142Y-81137052D01*
X25593747Y-81316657D01*
X25579605Y-81330800D01*
X26380213Y-82131408D01*
X26622397Y-82061943D01*
X26809144Y-81538498D01*
X26781362Y-80983432D01*
X26630657Y-80619600D01*
X30048200Y-80619600D01*
X53086000Y-80619600D01*
X53270683Y-80582864D01*
X53427250Y-80478250D01*
X53717502Y-80187997D01*
X53856855Y-80188119D01*
X54109080Y-80083902D01*
X54302224Y-79891095D01*
X54406881Y-79639053D01*
X54407119Y-79366145D01*
X54407119Y-104569000D01*
X26200608Y-104569000D01*
X26200608Y-82311013D01*
X25400000Y-81510405D01*
X24599392Y-82311013D01*
X24668857Y-82553197D01*
X25192302Y-82739944D01*
X25747368Y-82712162D01*
X26131143Y-82553197D01*
X26200608Y-82311013D01*
X26200608Y-104569000D01*
X25146396Y-104569000D01*
X25146396Y-88955281D01*
X24799106Y-88114777D01*
X24156605Y-87471154D01*
X23660608Y-87265197D01*
X23660608Y-83517513D01*
X22860000Y-82716905D01*
X22680395Y-82896510D01*
X22680395Y-82537300D01*
X21879787Y-81736692D01*
X21637603Y-81806157D01*
X21470464Y-82274641D01*
X21470464Y-82092800D01*
X21470464Y-80568800D01*
X21442278Y-80423526D01*
X21358404Y-80295844D01*
X21231784Y-80210374D01*
X21082000Y-80180336D01*
X19558000Y-80180336D01*
X19412726Y-80208522D01*
X19285044Y-80292396D01*
X19199574Y-80419016D01*
X19169536Y-80568800D01*
X19169536Y-82092800D01*
X19197722Y-82238074D01*
X19281596Y-82365756D01*
X19408216Y-82451226D01*
X19558000Y-82481264D01*
X21082000Y-82481264D01*
X21227274Y-82453078D01*
X21354956Y-82369204D01*
X21440426Y-82242584D01*
X21470464Y-82092800D01*
X21470464Y-82274641D01*
X21450856Y-82329602D01*
X21478638Y-82884668D01*
X21637603Y-83268443D01*
X21879787Y-83337908D01*
X22680395Y-82537300D01*
X22680395Y-82896510D01*
X22059392Y-83517513D01*
X22128857Y-83759697D01*
X22652302Y-83946444D01*
X23207368Y-83918662D01*
X23591143Y-83759697D01*
X23660608Y-83517513D01*
X23660608Y-87265197D01*
X23316708Y-87122398D01*
X22407281Y-87121604D01*
X21566777Y-87468894D01*
X20923154Y-88111395D01*
X20574398Y-88951292D01*
X20573604Y-89860719D01*
X20920894Y-90701223D01*
X21563395Y-91344846D01*
X22403292Y-91693602D01*
X23312719Y-91694396D01*
X24153223Y-91347106D01*
X24796846Y-90704605D01*
X25145602Y-89864708D01*
X25146396Y-88955281D01*
X25146396Y-104569000D01*
X18651526Y-104569000D01*
X19484518Y-104224815D01*
X21218725Y-102493632D01*
X22158429Y-100230575D01*
X22160567Y-97780175D01*
X21224815Y-95515482D01*
X19493632Y-93781275D01*
X17230575Y-92841571D01*
X14780175Y-92839433D01*
X12515482Y-93775185D01*
X10781275Y-95506368D01*
X10431000Y-96349923D01*
X10431000Y-18651526D01*
X10775185Y-19484518D01*
X12506368Y-21218725D01*
X14769425Y-22158429D01*
X17219825Y-22160567D01*
X19484518Y-21224815D01*
X21218725Y-19493632D01*
X22158429Y-17230575D01*
X22160567Y-14780175D01*
X21224815Y-12515482D01*
X19493632Y-10781275D01*
X18650076Y-10431000D01*
X96348473Y-10431000D01*
X95515482Y-10775185D01*
X93781275Y-12506368D01*
X92841571Y-14769425D01*
X92839433Y-17219825D01*
X93775185Y-19484518D01*
X95506368Y-21218725D01*
X97769425Y-22158429D01*
X100219825Y-22160567D01*
X102484518Y-21224815D01*
X104218725Y-19493632D01*
X104569000Y-18650076D01*
X104569000Y-96348473D01*
M02*
