0
SECTION
2 
ENTITIES
0
LINE
8
Outline
10
22.9097
20
-4.82825
11
23.00318
21
-4.8277
0
LINE
8
Outline
10
23.00318
20
-4.8277
11
23.09659
21
-4.82425
0
LINE
8
Outline
10
23.09659
20
-4.82425
11
23.18985
21
-4.81789
0
LINE
8
Outline
10
23.18985
20
-4.81789
11
23.46841
21
-4.79452
0
LINE
8
Outline
10
23.46841
20
-4.79452
11
23.56143
21
-4.78525
0
LINE
8
Outline
10
23.56143
20
-4.78525
11
23.65413
21
-4.77309
0
LINE
8
Outline
10
23.65413
20
-4.77309
11
23.74639
21
-4.75805
0
LINE
8
Outline
10
23.74639
20
-4.75805
11
23.83815
21
-4.74014
0
LINE
8
Outline
10
23.83815
20
-4.74014
11
23.9293
21
-4.71938
0
LINE
8
Outline
10
23.9293
20
-4.71938
11
24.01976
21
-4.69579
0
LINE
8
Outline
10
24.01976
20
-4.69579
11
24.10945
21
-4.66939
0
LINE
8
Outline
10
24.10945
20
-4.66939
11
24.19826
21
-4.64021
0
LINE
8
Outline
10
24.19826
20
-4.64021
11
24.28613
21
-4.60828
0
LINE
8
Outline
10
24.28613
20
-4.60828
11
24.54735
21
-4.50871
0
LINE
8
Outline
10
24.54735
20
-4.50871
11
24.63418
21
-4.47405
0
LINE
8
Outline
10
24.63418
20
-4.47405
11
24.7199
21
-4.4367
0
LINE
8
Outline
10
24.7199
20
-4.4367
11
24.8044
21
-4.3967
0
LINE
8
Outline
10
24.8044
20
-4.3967
11
24.88762
21
-4.35409
0
LINE
8
Outline
10
24.88762
20
-4.35409
11
24.96948
21
-4.3089
0
LINE
8
Outline
10
24.96948
20
-4.3089
11
25.04988
21
-4.26118
0
LINE
8
Outline
10
25.04988
20
-4.26118
11
25.12876
21
-4.21098
0
LINE
8
Outline
10
25.12876
20
-4.21098
11
25.20604
21
-4.15835
0
LINE
8
Outline
10
25.20604
20
-4.15835
11
25.28163
21
-4.10334
0
LINE
8
Outline
10
25.28163
20
-4.10334
11
25.50507
21
-3.93535
0
LINE
8
Outline
10
25.50507
20
-3.93535
11
25.5789
21
-3.87802
0
LINE
8
Outline
10
25.5789
20
-3.87802
11
25.65091
21
-3.81842
0
LINE
8
Outline
10
25.65091
20
-3.81842
11
25.72102
21
-3.75661
0
LINE
8
Outline
10
25.72102
20
-3.75661
11
25.78917
21
-3.69264
0
LINE
8
Outline
10
25.78917
20
-3.69264
11
25.8553
21
-3.62658
0
LINE
8
Outline
10
25.8553
20
-3.62658
11
25.91934
21
-3.55849
0
LINE
8
Outline
10
25.91934
20
-3.55849
11
25.98122
21
-3.48844
0
LINE
8
Outline
10
25.98122
20
-3.48844
11
26.0409
21
-3.4165
0
LINE
8
Outline
10
26.0409
20
-3.4165
11
26.0983
21
-3.34273
0
LINE
8
Outline
10
26.0983
20
-3.34273
11
26.26652
21
-3.11946
0
LINE
8
Outline
10
26.26652
20
-3.11946
11
26.32162
21
-3.04391
0
LINE
8
Outline
10
26.32162
20
-3.04391
11
26.37433
21
-2.96669
0
LINE
8
Outline
10
26.37433
20
-2.96669
11
26.42461
21
-2.88785
0
LINE
8
Outline
10
26.42461
20
-2.88785
11
26.459
21
-2.83003
0
LINE
8
Outline
10
26.459
20
-2.83003
11
43.25998
21
-2.83003
0
LINE
8
Outline
10
43.25998
20
-2.83003
11
43.34565
21
-2.82881
0
LINE
8
Outline
10
43.34565
20
-2.82881
11
43.43125
21
-2.82514
0
LINE
8
Outline
10
43.43125
20
-2.82514
11
43.51671
21
-2.81903
0
LINE
8
Outline
10
43.51671
20
-2.81903
11
43.60195
21
-2.81048
0
LINE
8
Outline
10
43.60195
20
-2.81048
11
43.68692
21
-2.79949
0
LINE
8
Outline
10
43.68692
20
-2.79949
11
43.77155
21
-2.78609
0
LINE
8
Outline
10
43.77155
20
-2.78609
11
43.85575
21
-2.77028
0
LINE
8
Outline
10
43.85575
20
-2.77028
11
43.93947
21
-2.75207
0
LINE
8
Outline
10
43.93947
20
-2.75207
11
44.02264
21
-2.73147
0
LINE
8
Outline
10
44.02264
20
-2.73147
11
44.10518
21
-2.70851
0
LINE
8
Outline
10
44.10518
20
-2.70851
11
44.18703
21
-2.6832
0
LINE
8
Outline
10
44.18703
20
-2.6832
11
44.26813
21
-2.65556
0
LINE
8
Outline
10
44.26813
20
-2.65556
11
44.3484
21
-2.62562
0
LINE
8
Outline
10
44.3484
20
-2.62562
11
44.42779
21
-2.5934
0
LINE
8
Outline
10
44.42779
20
-2.5934
11
44.50623
21
-2.55893
0
LINE
8
Outline
10
44.50623
20
-2.55893
11
44.58364
21
-2.52223
0
LINE
8
Outline
10
44.58364
20
-2.52223
11
44.59998
21
-2.5139
0
LINE
8
Outline
10
44.59998
20
-2.5139
11
44.61632
21
-2.52223
0
LINE
8
Outline
10
44.61632
20
-2.52223
11
44.69373
21
-2.55893
0
LINE
8
Outline
10
44.69373
20
-2.55893
11
44.77217
21
-2.5934
0
LINE
8
Outline
10
44.77217
20
-2.5934
11
44.85156
21
-2.62562
0
LINE
8
Outline
10
44.85156
20
-2.62562
11
44.93183
21
-2.65556
0
LINE
8
Outline
10
44.93183
20
-2.65556
11
45.01293
21
-2.6832
0
LINE
8
Outline
10
45.01293
20
-2.6832
11
45.09478
21
-2.70851
0
LINE
8
Outline
10
45.09478
20
-2.70851
11
45.17732
21
-2.73147
0
LINE
8
Outline
10
45.17732
20
-2.73147
11
45.26049
21
-2.75207
0
LINE
8
Outline
10
45.26049
20
-2.75207
11
45.34421
21
-2.77028
0
LINE
8
Outline
10
45.34421
20
-2.77028
11
45.42841
21
-2.78609
0
LINE
8
Outline
10
45.42841
20
-2.78609
11
45.51304
21
-2.79949
0
LINE
8
Outline
10
45.51304
20
-2.79949
11
45.59801
21
-2.81048
0
LINE
8
Outline
10
45.59801
20
-2.81048
11
45.68325
21
-2.81903
0
LINE
8
Outline
10
45.68325
20
-2.81903
11
45.76871
21
-2.82514
0
LINE
8
Outline
10
45.76871
20
-2.82514
11
45.85431
21
-2.82881
0
LINE
8
Outline
10
45.85431
20
-2.82881
11
45.93998
21
-2.83003
0
LINE
8
Outline
10
45.93998
20
-2.83003
11
66.25998
21
-2.83003
0
LINE
8
Outline
10
66.25998
20
-2.83003
11
66.34565
21
-2.82881
0
LINE
8
Outline
10
66.34565
20
-2.82881
11
66.43125
21
-2.82514
0
LINE
8
Outline
10
66.43125
20
-2.82514
11
66.51671
21
-2.81903
0
LINE
8
Outline
10
66.51671
20
-2.81903
11
66.60195
21
-2.81048
0
LINE
8
Outline
10
66.60195
20
-2.81048
11
66.68692
21
-2.79949
0
LINE
8
Outline
10
66.68692
20
-2.79949
11
66.77155
21
-2.78609
0
LINE
8
Outline
10
66.77155
20
-2.78609
11
66.85575
21
-2.77028
0
LINE
8
Outline
10
66.85575
20
-2.77028
11
66.93947
21
-2.75207
0
LINE
8
Outline
10
66.93947
20
-2.75207
11
67.02264
21
-2.73147
0
LINE
8
Outline
10
67.02264
20
-2.73147
11
67.10518
21
-2.70851
0
LINE
8
Outline
10
67.10518
20
-2.70851
11
67.18703
21
-2.6832
0
LINE
8
Outline
10
67.18703
20
-2.6832
11
67.26813
21
-2.65556
0
LINE
8
Outline
10
67.26813
20
-2.65556
11
67.3484
21
-2.62562
0
LINE
8
Outline
10
67.3484
20
-2.62562
11
67.42779
21
-2.5934
0
LINE
8
Outline
10
67.42779
20
-2.5934
11
67.50623
21
-2.55893
0
LINE
8
Outline
10
67.50623
20
-2.55893
11
67.58364
21
-2.52223
0
LINE
8
Outline
10
67.58364
20
-2.52223
11
67.59998
21
-2.5139
0
LINE
8
Outline
10
67.59998
20
-2.5139
11
67.61632
21
-2.52223
0
LINE
8
Outline
10
67.61632
20
-2.52223
11
67.69373
21
-2.55893
0
LINE
8
Outline
10
67.69373
20
-2.55893
11
67.77217
21
-2.5934
0
LINE
8
Outline
10
67.77217
20
-2.5934
11
67.85156
21
-2.62562
0
LINE
8
Outline
10
67.85156
20
-2.62562
11
67.93183
21
-2.65556
0
LINE
8
Outline
10
67.93183
20
-2.65556
11
68.01293
21
-2.6832
0
LINE
8
Outline
10
68.01293
20
-2.6832
11
68.09478
21
-2.70851
0
LINE
8
Outline
10
68.09478
20
-2.70851
11
68.17732
21
-2.73147
0
LINE
8
Outline
10
68.17732
20
-2.73147
11
68.26049
21
-2.75207
0
LINE
8
Outline
10
68.26049
20
-2.75207
11
68.34421
21
-2.77028
0
LINE
8
Outline
10
68.34421
20
-2.77028
11
68.42841
21
-2.78609
0
LINE
8
Outline
10
68.42841
20
-2.78609
11
68.51304
21
-2.79949
0
LINE
8
Outline
10
68.51304
20
-2.79949
11
68.59801
21
-2.81048
0
LINE
8
Outline
10
68.59801
20
-2.81048
11
68.68325
21
-2.81903
0
LINE
8
Outline
10
68.68325
20
-2.81903
11
68.76871
21
-2.82514
0
LINE
8
Outline
10
68.76871
20
-2.82514
11
68.85431
21
-2.82881
0
LINE
8
Outline
10
68.85431
20
-2.82881
11
68.93998
21
-2.83003
0
LINE
8
Outline
10
68.93998
20
-2.83003
11
89.25999
21
-2.83003
0
LINE
8
Outline
10
89.25999
20
-2.83003
11
89.34566
21
-2.82881
0
LINE
8
Outline
10
89.34566
20
-2.82881
11
89.43126
21
-2.82514
0
LINE
8
Outline
10
89.43126
20
-2.82514
11
89.51672
21
-2.81903
0
LINE
8
Outline
10
89.51672
20
-2.81903
11
89.60196
21
-2.81048
0
LINE
8
Outline
10
89.60196
20
-2.81048
11
89.68693
21
-2.79949
0
LINE
8
Outline
10
89.68693
20
-2.79949
11
89.77156
21
-2.78609
0
LINE
8
Outline
10
89.77156
20
-2.78609
11
89.85576
21
-2.77028
0
LINE
8
Outline
10
89.85576
20
-2.77028
11
89.93948
21
-2.75207
0
LINE
8
Outline
10
89.93948
20
-2.75207
11
90.02265
21
-2.73147
0
LINE
8
Outline
10
90.02265
20
-2.73147
11
90.10519
21
-2.70851
0
LINE
8
Outline
10
90.10519
20
-2.70851
11
90.18704
21
-2.6832
0
LINE
8
Outline
10
90.18704
20
-2.6832
11
90.26814
21
-2.65556
0
LINE
8
Outline
10
90.26814
20
-2.65556
11
90.34841
21
-2.62562
0
LINE
8
Outline
10
90.34841
20
-2.62562
11
90.4278
21
-2.5934
0
LINE
8
Outline
10
90.4278
20
-2.5934
11
90.50624
21
-2.55893
0
LINE
8
Outline
10
90.50624
20
-2.55893
11
90.58365
21
-2.52223
0
LINE
8
Outline
10
90.58365
20
-2.52223
11
90.65999
21
-2.48333
0
LINE
8
Outline
10
90.65999
20
-2.48333
11
90.73519
21
-2.44227
0
LINE
8
Outline
10
90.73519
20
-2.44227
11
90.80918
21
-2.39908
0
LINE
8
Outline
10
90.80918
20
-2.39908
11
90.88191
21
-2.35379
0
LINE
8
Outline
10
90.88191
20
-2.35379
11
90.95332
21
-2.30645
0
LINE
8
Outline
10
90.95332
20
-2.30645
11
91.02335
21
-2.25708
0
LINE
8
Outline
10
91.02335
20
-2.25708
11
91.09193
21
-2.20574
0
LINE
8
Outline
10
91.09193
20
-2.20574
11
91.15903
21
-2.15245
0
LINE
8
Outline
10
91.15903
20
-2.15245
11
91.22457
21
-2.09728
0
LINE
8
Outline
10
91.22457
20
-2.09728
11
91.28851
21
-2.04025
0
LINE
8
Outline
10
91.28851
20
-2.04025
11
91.3508
21
-1.98143
0
LINE
8
Outline
10
91.3508
20
-1.98143
11
91.41139
21
-1.92084
0
LINE
8
Outline
10
91.41139
20
-1.92084
11
91.47021
21
-1.85855
0
LINE
8
Outline
10
91.47021
20
-1.85855
11
91.52724
21
-1.79461
0
LINE
8
Outline
10
91.52724
20
-1.79461
11
91.58241
21
-1.72907
0
LINE
8
Outline
10
91.58241
20
-1.72907
11
91.6357
21
-1.66197
0
LINE
8
Outline
10
91.6357
20
-1.66197
11
91.68704
21
-1.59339
0
LINE
8
Outline
10
91.68704
20
-1.59339
11
91.73641
21
-1.52336
0
LINE
8
Outline
10
91.73641
20
-1.52336
11
91.78375
21
-1.45195
0
LINE
8
Outline
10
91.78375
20
-1.45195
11
91.82904
21
-1.37922
0
LINE
8
Outline
10
91.82904
20
-1.37922
11
91.87223
21
-1.30523
0
LINE
8
Outline
10
91.87223
20
-1.30523
11
91.91329
21
-1.23003
0
LINE
8
Outline
10
91.91329
20
-1.23003
11
91.95219
21
-1.15369
0
LINE
8
Outline
10
91.95219
20
-1.15369
11
91.98889
21
-1.07628
0
LINE
8
Outline
10
91.98889
20
-1.07628
11
92.02336
21
-0.99784
0
LINE
8
Outline
10
92.02336
20
-0.99784
11
92.05558
21
-0.91845
0
LINE
8
Outline
10
92.05558
20
-0.91845
11
92.08552
21
-0.83818
0
LINE
8
Outline
10
92.08552
20
-0.83818
11
92.11316
21
-0.75708
0
LINE
8
Outline
10
92.11316
20
-0.75708
11
92.13847
21
-0.67523
0
LINE
8
Outline
10
92.13847
20
-0.67523
11
92.16143
21
-0.59269
0
LINE
8
Outline
10
92.16143
20
-0.59269
11
92.18203
21
-0.50952
0
LINE
8
Outline
10
92.18203
20
-0.50952
11
92.20024
21
-0.4258
0
LINE
8
Outline
10
92.20024
20
-0.4258
11
92.21605
21
-0.3416
0
LINE
8
Outline
10
92.21605
20
-0.3416
11
92.22945
21
-0.25697
0
LINE
8
Outline
10
92.22945
20
-0.25697
11
92.24044
21
-0.172
0
LINE
8
Outline
10
92.24044
20
-0.172
11
92.24899
21
-0.08676
0
LINE
8
Outline
10
92.24899
20
-0.08676
11
92.2551
21
-0.0013
0
LINE
8
Outline
10
92.2551
20
-0.0013
11
92.25877
21
0.0843
0
LINE
8
Outline
10
92.25877
20
0.0843
11
92.25999
21
0.16997
0
LINE
8
Outline
10
92.25999
20
0.16997
11
92.25999
21
14.13997
0
LINE
8
Outline
10
92.25999
20
14.13997
11
92.25877
21
14.22564
0
LINE
8
Outline
10
92.25877
20
14.22564
11
92.2551
21
14.31124
0
LINE
8
Outline
10
92.2551
20
14.31124
11
92.24899
21
14.3967
0
LINE
8
Outline
10
92.24899
20
14.3967
11
92.24044
21
14.48194
0
LINE
8
Outline
10
92.24044
20
14.48194
11
92.22945
21
14.56691
0
LINE
8
Outline
10
92.22945
20
14.56691
11
92.21605
21
14.65154
0
LINE
8
Outline
10
92.21605
20
14.65154
11
92.20024
21
14.73574
0
LINE
8
Outline
10
92.20024
20
14.73574
11
92.18203
21
14.81946
0
LINE
8
Outline
10
92.18203
20
14.81946
11
92.16143
21
14.90263
0
LINE
8
Outline
10
92.16143
20
14.90263
11
92.13847
21
14.98517
0
LINE
8
Outline
10
92.13847
20
14.98517
11
92.11316
21
15.06702
0
LINE
8
Outline
10
92.11316
20
15.06702
11
92.08552
21
15.14812
0
LINE
8
Outline
10
92.08552
20
15.14812
11
92.08296
21
15.15497
0
LINE
8
Outline
10
92.08296
20
15.15497
11
92.08552
21
15.16183
0
LINE
8
Outline
10
92.08552
20
15.16183
11
92.11316
21
15.24293
0
LINE
8
Outline
10
92.11316
20
15.24293
11
92.13847
21
15.32478
0
LINE
8
Outline
10
92.13847
20
15.32478
11
92.16143
21
15.40732
0
LINE
8
Outline
10
92.16143
20
15.40732
11
92.18203
21
15.49049
0
LINE
8
Outline
10
92.18203
20
15.49049
11
92.20024
21
15.57421
0
LINE
8
Outline
10
92.20024
20
15.57421
11
92.21605
21
15.65841
0
LINE
8
Outline
10
92.21605
20
15.65841
11
92.22945
21
15.74304
0
LINE
8
Outline
10
92.22945
20
15.74304
11
92.24044
21
15.82801
0
LINE
8
Outline
10
92.24044
20
15.82801
11
92.24899
21
15.91325
0
LINE
8
Outline
10
92.24899
20
15.91325
11
92.2551
21
15.99871
0
LINE
8
Outline
10
92.2551
20
15.99871
11
92.25877
21
16.08431
0
LINE
8
Outline
10
92.25877
20
16.08431
11
92.25999
21
16.16998
0
LINE
8
Outline
10
92.25999
20
16.16998
11
92.25999
21
30.13999
0
LINE
8
Outline
10
92.25999
20
30.13999
11
92.25877
21
30.22566
0
LINE
8
Outline
10
92.25877
20
30.22566
11
92.2551
21
30.31126
0
LINE
8
Outline
10
92.2551
20
30.31126
11
92.24899
21
30.39672
0
LINE
8
Outline
10
92.24899
20
30.39672
11
92.24044
21
30.48196
0
LINE
8
Outline
10
92.24044
20
30.48196
11
92.22945
21
30.56693
0
LINE
8
Outline
10
92.22945
20
30.56693
11
92.21605
21
30.65156
0
LINE
8
Outline
10
92.21605
20
30.65156
11
92.20024
21
30.73576
0
LINE
8
Outline
10
92.20024
20
30.73576
11
92.18203
21
30.81948
0
LINE
8
Outline
10
92.18203
20
30.81948
11
92.16143
21
30.90265
0
LINE
8
Outline
10
92.16143
20
30.90265
11
92.13847
21
30.98519
0
LINE
8
Outline
10
92.13847
20
30.98519
11
92.11316
21
31.06704
0
LINE
8
Outline
10
92.11316
20
31.06704
11
92.08552
21
31.14814
0
LINE
8
Outline
10
92.08552
20
31.14814
11
92.08297
21
31.15498
0
LINE
8
Outline
10
92.08297
20
31.15498
11
92.08552
21
31.16183
0
LINE
8
Outline
10
92.08552
20
31.16183
11
92.11316
21
31.24293
0
LINE
8
Outline
10
92.11316
20
31.24293
11
92.13847
21
31.32478
0
LINE
8
Outline
10
92.13847
20
31.32478
11
92.16143
21
31.40732
0
LINE
8
Outline
10
92.16143
20
31.40732
11
92.18203
21
31.49049
0
LINE
8
Outline
10
92.18203
20
31.49049
11
92.20024
21
31.57421
0
LINE
8
Outline
10
92.20024
20
31.57421
11
92.21605
21
31.65841
0
LINE
8
Outline
10
92.21605
20
31.65841
11
92.22945
21
31.74304
0
LINE
8
Outline
10
92.22945
20
31.74304
11
92.24044
21
31.82801
0
LINE
8
Outline
10
92.24044
20
31.82801
11
92.24899
21
31.91325
0
LINE
8
Outline
10
92.24899
20
31.91325
11
92.2551
21
31.99871
0
LINE
8
Outline
10
92.2551
20
31.99871
11
92.25877
21
32.08431
0
LINE
8
Outline
10
92.25877
20
32.08431
11
92.25999
21
32.16998
0
LINE
8
Outline
10
92.25999
20
32.16998
11
92.25999
21
46.13998
0
LINE
8
Outline
10
92.25999
20
46.13998
11
92.25877
21
46.22565
0
LINE
8
Outline
10
92.25877
20
46.22565
11
92.2551
21
46.31125
0
LINE
8
Outline
10
92.2551
20
46.31125
11
92.24899
21
46.39671
0
LINE
8
Outline
10
92.24899
20
46.39671
11
92.24044
21
46.48195
0
LINE
8
Outline
10
92.24044
20
46.48195
11
92.22945
21
46.56692
0
LINE
8
Outline
10
92.22945
20
46.56692
11
92.21605
21
46.65155
0
LINE
8
Outline
10
92.21605
20
46.65155
11
92.20024
21
46.73575
0
LINE
8
Outline
10
92.20024
20
46.73575
11
92.18203
21
46.81947
0
LINE
8
Outline
10
92.18203
20
46.81947
11
92.16143
21
46.90264
0
LINE
8
Outline
10
92.16143
20
46.90264
11
92.13847
21
46.98518
0
LINE
8
Outline
10
92.13847
20
46.98518
11
92.11316
21
47.06703
0
LINE
8
Outline
10
92.11316
20
47.06703
11
92.08552
21
47.14813
0
LINE
8
Outline
10
92.08552
20
47.14813
11
92.08297
21
47.15498
0
LINE
8
Outline
10
92.08297
20
47.15498
11
92.08552
21
47.16183
0
LINE
8
Outline
10
92.08552
20
47.16183
11
92.11316
21
47.24293
0
LINE
8
Outline
10
92.11316
20
47.24293
11
92.13847
21
47.32478
0
LINE
8
Outline
10
92.13847
20
47.32478
11
92.16143
21
47.40732
0
LINE
8
Outline
10
92.16143
20
47.40732
11
92.18203
21
47.49049
0
LINE
8
Outline
10
92.18203
20
47.49049
11
92.20024
21
47.57421
0
LINE
8
Outline
10
92.20024
20
47.57421
11
92.21605
21
47.65841
0
LINE
8
Outline
10
92.21605
20
47.65841
11
92.22945
21
47.74304
0
LINE
8
Outline
10
92.22945
20
47.74304
11
92.24044
21
47.82801
0
LINE
8
Outline
10
92.24044
20
47.82801
11
92.24899
21
47.91325
0
LINE
8
Outline
10
92.24899
20
47.91325
11
92.2551
21
47.99871
0
LINE
8
Outline
10
92.2551
20
47.99871
11
92.25877
21
48.08431
0
LINE
8
Outline
10
92.25877
20
48.08431
11
92.25999
21
48.16998
0
LINE
8
Outline
10
92.25999
20
48.16998
11
92.25999
21
62.13998
0
LINE
8
Outline
10
92.25999
20
62.13998
11
92.25877
21
62.22565
0
LINE
8
Outline
10
92.25877
20
62.22565
11
92.2551
21
62.31125
0
LINE
8
Outline
10
92.2551
20
62.31125
11
92.24899
21
62.39671
0
LINE
8
Outline
10
92.24899
20
62.39671
11
92.24044
21
62.48195
0
LINE
8
Outline
10
92.24044
20
62.48195
11
92.22945
21
62.56692
0
LINE
8
Outline
10
92.22945
20
62.56692
11
92.21605
21
62.65155
0
LINE
8
Outline
10
92.21605
20
62.65155
11
92.20024
21
62.73575
0
LINE
8
Outline
10
92.20024
20
62.73575
11
92.18203
21
62.81947
0
LINE
8
Outline
10
92.18203
20
62.81947
11
92.16143
21
62.90264
0
LINE
8
Outline
10
92.16143
20
62.90264
11
92.13847
21
62.98518
0
LINE
8
Outline
10
92.13847
20
62.98518
11
92.11316
21
63.06703
0
LINE
8
Outline
10
92.11316
20
63.06703
11
92.08552
21
63.14813
0
LINE
8
Outline
10
92.08552
20
63.14813
11
92.08297
21
63.15498
0
LINE
8
Outline
10
92.08297
20
63.15498
11
92.08552
21
63.16182
0
LINE
8
Outline
10
92.08552
20
63.16182
11
92.11316
21
63.24292
0
LINE
8
Outline
10
92.11316
20
63.24292
11
92.13847
21
63.32477
0
LINE
8
Outline
10
92.13847
20
63.32477
11
92.16143
21
63.40731
0
LINE
8
Outline
10
92.16143
20
63.40731
11
92.18203
21
63.49048
0
LINE
8
Outline
10
92.18203
20
63.49048
11
92.20024
21
63.5742
0
LINE
8
Outline
10
92.20024
20
63.5742
11
92.21605
21
63.6584
0
LINE
8
Outline
10
92.21605
20
63.6584
11
92.22945
21
63.74303
0
LINE
8
Outline
10
92.22945
20
63.74303
11
92.24044
21
63.828
0
LINE
8
Outline
10
92.24044
20
63.828
11
92.24899
21
63.91324
0
LINE
8
Outline
10
92.24899
20
63.91324
11
92.2551
21
63.9987
0
LINE
8
Outline
10
92.2551
20
63.9987
11
92.25877
21
64.0843
0
LINE
8
Outline
10
92.25877
20
64.0843
11
92.25999
21
64.16997
0
LINE
8
Outline
10
92.25999
20
64.16997
11
92.25999
21
78.13997
0
LINE
8
Outline
10
92.25999
20
78.13997
11
92.25877
21
78.22564
0
LINE
8
Outline
10
92.25877
20
78.22564
11
92.2551
21
78.31124
0
LINE
8
Outline
10
92.2551
20
78.31124
11
92.24899
21
78.3967
0
LINE
8
Outline
10
92.24899
20
78.3967
11
92.24044
21
78.48194
0
LINE
8
Outline
10
92.24044
20
78.48194
11
92.22945
21
78.56691
0
LINE
8
Outline
10
92.22945
20
78.56691
11
92.21605
21
78.65154
0
LINE
8
Outline
10
92.21605
20
78.65154
11
92.20024
21
78.73574
0
LINE
8
Outline
10
92.20024
20
78.73574
11
92.18203
21
78.81946
0
LINE
8
Outline
10
92.18203
20
78.81946
11
92.16143
21
78.90263
0
LINE
8
Outline
10
92.16143
20
78.90263
11
92.13847
21
78.98517
0
LINE
8
Outline
10
92.13847
20
78.98517
11
92.11316
21
79.06702
0
LINE
8
Outline
10
92.11316
20
79.06702
11
92.08552
21
79.14812
0
LINE
8
Outline
10
92.08552
20
79.14812
11
92.05558
21
79.22839
0
LINE
8
Outline
10
92.05558
20
79.22839
11
92.02336
21
79.30778
0
LINE
8
Outline
10
92.02336
20
79.30778
11
91.98889
21
79.38622
0
LINE
8
Outline
10
91.98889
20
79.38622
11
91.95219
21
79.46363
0
LINE
8
Outline
10
91.95219
20
79.46363
11
91.91329
21
79.53997
0
LINE
8
Outline
10
91.91329
20
79.53997
11
91.87223
21
79.61517
0
LINE
8
Outline
10
91.87223
20
79.61517
11
91.82904
21
79.68916
0
LINE
8
Outline
10
91.82904
20
79.68916
11
91.78375
21
79.76189
0
LINE
8
Outline
10
91.78375
20
79.76189
11
91.73641
21
79.8333
0
LINE
8
Outline
10
91.73641
20
79.8333
11
91.68704
21
79.90333
0
LINE
8
Outline
10
91.68704
20
79.90333
11
91.6357
21
79.97191
0
LINE
8
Outline
10
91.6357
20
79.97191
11
91.58241
21
80.03901
0
LINE
8
Outline
10
91.58241
20
80.03901
11
91.52724
21
80.10455
0
LINE
8
Outline
10
91.52724
20
80.10455
11
91.47021
21
80.16849
0
LINE
8
Outline
10
91.47021
20
80.16849
11
91.41139
21
80.23078
0
LINE
8
Outline
10
91.41139
20
80.23078
11
91.3508
21
80.29137
0
LINE
8
Outline
10
91.3508
20
80.29137
11
91.28851
21
80.35019
0
LINE
8
Outline
10
91.28851
20
80.35019
11
91.22457
21
80.40722
0
LINE
8
Outline
10
91.22457
20
80.40722
11
91.15903
21
80.46239
0
LINE
8
Outline
10
91.15903
20
80.46239
11
91.09193
21
80.51568
0
LINE
8
Outline
10
91.09193
20
80.51568
11
91.02335
21
80.56702
0
LINE
8
Outline
10
91.02335
20
80.56702
11
90.95332
21
80.61639
0
LINE
8
Outline
10
90.95332
20
80.61639
11
90.88191
21
80.66373
0
LINE
8
Outline
10
90.88191
20
80.66373
11
90.80918
21
80.70902
0
LINE
8
Outline
10
90.80918
20
80.70902
11
90.73519
21
80.75221
0
LINE
8
Outline
10
90.73519
20
80.75221
11
90.65999
21
80.79327
0
LINE
8
Outline
10
90.65999
20
80.79327
11
90.58365
21
80.83217
0
LINE
8
Outline
10
90.58365
20
80.83217
11
90.50624
21
80.86887
0
LINE
8
Outline
10
90.50624
20
80.86887
11
90.4278
21
80.90334
0
LINE
8
Outline
10
90.4278
20
80.90334
11
90.34841
21
80.93556
0
LINE
8
Outline
10
90.34841
20
80.93556
11
90.26814
21
80.9655
0
LINE
8
Outline
10
90.26814
20
80.9655
11
90.18704
21
80.99314
0
LINE
8
Outline
10
90.18704
20
80.99314
11
90.10519
21
81.01845
0
LINE
8
Outline
10
90.10519
20
81.01845
11
90.02265
21
81.04141
0
LINE
8
Outline
10
90.02265
20
81.04141
11
89.93948
21
81.06201
0
LINE
8
Outline
10
89.93948
20
81.06201
11
89.85576
21
81.08022
0
LINE
8
Outline
10
89.85576
20
81.08022
11
89.77156
21
81.09603
0
LINE
8
Outline
10
89.77156
20
81.09603
11
89.68693
21
81.10943
0
LINE
8
Outline
10
89.68693
20
81.10943
11
89.60196
21
81.12042
0
LINE
8
Outline
10
89.60196
20
81.12042
11
89.51672
21
81.12897
0
LINE
8
Outline
10
89.51672
20
81.12897
11
89.43126
21
81.13508
0
LINE
8
Outline
10
89.43126
20
81.13508
11
89.34566
21
81.13875
0
LINE
8
Outline
10
89.34566
20
81.13875
11
89.25999
21
81.13997
0
LINE
8
Outline
10
89.25999
20
81.13997
11
68.93998
21
81.13997
0
LINE
8
Outline
10
68.93998
20
81.13997
11
68.85431
21
81.13875
0
LINE
8
Outline
10
68.85431
20
81.13875
11
68.76871
21
81.13508
0
LINE
8
Outline
10
68.76871
20
81.13508
11
68.68325
21
81.12897
0
LINE
8
Outline
10
68.68325
20
81.12897
11
68.59801
21
81.12042
0
LINE
8
Outline
10
68.59801
20
81.12042
11
68.51304
21
81.10943
0
LINE
8
Outline
10
68.51304
20
81.10943
11
68.42841
21
81.09603
0
LINE
8
Outline
10
68.42841
20
81.09603
11
68.34421
21
81.08022
0
LINE
8
Outline
10
68.34421
20
81.08022
11
68.26049
21
81.06201
0
LINE
8
Outline
10
68.26049
20
81.06201
11
68.17732
21
81.04141
0
LINE
8
Outline
10
68.17732
20
81.04141
11
68.09478
21
81.01845
0
LINE
8
Outline
10
68.09478
20
81.01845
11
68.01293
21
80.99314
0
LINE
8
Outline
10
68.01293
20
80.99314
11
67.93183
21
80.9655
0
LINE
8
Outline
10
67.93183
20
80.9655
11
67.85156
21
80.93556
0
LINE
8
Outline
10
67.85156
20
80.93556
11
67.77217
21
80.90334
0
LINE
8
Outline
10
67.77217
20
80.90334
11
67.69373
21
80.86887
0
LINE
8
Outline
10
67.69373
20
80.86887
11
67.61632
21
80.83217
0
LINE
8
Outline
10
67.61632
20
80.83217
11
67.59998
21
80.82384
0
LINE
8
Outline
10
67.59998
20
80.82384
11
67.58364
21
80.83217
0
LINE
8
Outline
10
67.58364
20
80.83217
11
67.50623
21
80.86887
0
LINE
8
Outline
10
67.50623
20
80.86887
11
67.42779
21
80.90334
0
LINE
8
Outline
10
67.42779
20
80.90334
11
67.3484
21
80.93556
0
LINE
8
Outline
10
67.3484
20
80.93556
11
67.26813
21
80.9655
0
LINE
8
Outline
10
67.26813
20
80.9655
11
67.18703
21
80.99314
0
LINE
8
Outline
10
67.18703
20
80.99314
11
67.10518
21
81.01845
0
LINE
8
Outline
10
67.10518
20
81.01845
11
67.02264
21
81.04141
0
LINE
8
Outline
10
67.02264
20
81.04141
11
66.93947
21
81.06201
0
LINE
8
Outline
10
66.93947
20
81.06201
11
66.85575
21
81.08022
0
LINE
8
Outline
10
66.85575
20
81.08022
11
66.77155
21
81.09603
0
LINE
8
Outline
10
66.77155
20
81.09603
11
66.68692
21
81.10943
0
LINE
8
Outline
10
66.68692
20
81.10943
11
66.60195
21
81.12042
0
LINE
8
Outline
10
66.60195
20
81.12042
11
66.51671
21
81.12897
0
LINE
8
Outline
10
66.51671
20
81.12897
11
66.43125
21
81.13508
0
LINE
8
Outline
10
66.43125
20
81.13508
11
66.34565
21
81.13875
0
LINE
8
Outline
10
66.34565
20
81.13875
11
66.25998
21
81.13997
0
LINE
8
Outline
10
66.25998
20
81.13997
11
45.93998
21
81.13997
0
LINE
8
Outline
10
45.93998
20
81.13997
11
45.85431
21
81.13875
0
LINE
8
Outline
10
45.85431
20
81.13875
11
45.76871
21
81.13508
0
LINE
8
Outline
10
45.76871
20
81.13508
11
45.68325
21
81.12897
0
LINE
8
Outline
10
45.68325
20
81.12897
11
45.59801
21
81.12042
0
LINE
8
Outline
10
45.59801
20
81.12042
11
45.51304
21
81.10943
0
LINE
8
Outline
10
45.51304
20
81.10943
11
45.42841
21
81.09603
0
LINE
8
Outline
10
45.42841
20
81.09603
11
45.34421
21
81.08022
0
LINE
8
Outline
10
45.34421
20
81.08022
11
45.26049
21
81.06201
0
LINE
8
Outline
10
45.26049
20
81.06201
11
45.17732
21
81.04141
0
LINE
8
Outline
10
45.17732
20
81.04141
11
45.09478
21
81.01845
0
LINE
8
Outline
10
45.09478
20
81.01845
11
45.01293
21
80.99314
0
LINE
8
Outline
10
45.01293
20
80.99314
11
44.93183
21
80.9655
0
LINE
8
Outline
10
44.93183
20
80.9655
11
44.85156
21
80.93556
0
LINE
8
Outline
10
44.85156
20
80.93556
11
44.77217
21
80.90334
0
LINE
8
Outline
10
44.77217
20
80.90334
11
44.69373
21
80.86887
0
LINE
8
Outline
10
44.69373
20
80.86887
11
44.61632
21
80.83217
0
LINE
8
Outline
10
44.61632
20
80.83217
11
44.59998
21
80.82384
0
LINE
8
Outline
10
44.59998
20
80.82384
11
44.58364
21
80.83217
0
LINE
8
Outline
10
44.58364
20
80.83217
11
44.50623
21
80.86887
0
LINE
8
Outline
10
44.50623
20
80.86887
11
44.42779
21
80.90334
0
LINE
8
Outline
10
44.42779
20
80.90334
11
44.3484
21
80.93556
0
LINE
8
Outline
10
44.3484
20
80.93556
11
44.26813
21
80.9655
0
LINE
8
Outline
10
44.26813
20
80.9655
11
44.18703
21
80.99314
0
LINE
8
Outline
10
44.18703
20
80.99314
11
44.10518
21
81.01845
0
LINE
8
Outline
10
44.10518
20
81.01845
11
44.02264
21
81.04141
0
LINE
8
Outline
10
44.02264
20
81.04141
11
43.93947
21
81.06201
0
LINE
8
Outline
10
43.93947
20
81.06201
11
43.85575
21
81.08022
0
LINE
8
Outline
10
43.85575
20
81.08022
11
43.77155
21
81.09603
0
LINE
8
Outline
10
43.77155
20
81.09603
11
43.68692
21
81.10943
0
LINE
8
Outline
10
43.68692
20
81.10943
11
43.60195
21
81.12042
0
LINE
8
Outline
10
43.60195
20
81.12042
11
43.51671
21
81.12897
0
LINE
8
Outline
10
43.51671
20
81.12897
11
43.43125
21
81.13508
0
LINE
8
Outline
10
43.43125
20
81.13508
11
43.34565
21
81.13875
0
LINE
8
Outline
10
43.34565
20
81.13875
11
43.25998
21
81.13997
0
LINE
8
Outline
10
43.25998
20
81.13997
11
-0.05999
21
81.13997
0
LINE
8
Outline
10
-0.05999
20
81.13997
11
-0.14566
21
81.13875
0
LINE
8
Outline
10
-0.14566
20
81.13875
11
-0.23126
21
81.13508
0
LINE
8
Outline
10
-0.23126
20
81.13508
11
-0.31672
21
81.12897
0
LINE
8
Outline
10
-0.31672
20
81.12897
11
-0.40196
21
81.12042
0
LINE
8
Outline
10
-0.40196
20
81.12042
11
-0.48693
21
81.10943
0
LINE
8
Outline
10
-0.48693
20
81.10943
11
-0.57156
21
81.09603
0
LINE
8
Outline
10
-0.57156
20
81.09603
11
-0.65576
21
81.08022
0
LINE
8
Outline
10
-0.65576
20
81.08022
11
-0.73948
21
81.06201
0
LINE
8
Outline
10
-0.73948
20
81.06201
11
-0.82265
21
81.04141
0
LINE
8
Outline
10
-0.82265
20
81.04141
11
-0.90519
21
81.01845
0
LINE
8
Outline
10
-0.90519
20
81.01845
11
-0.98704
21
80.99314
0
LINE
8
Outline
10
-0.98704
20
80.99314
11
-1.06814
21
80.9655
0
LINE
8
Outline
10
-1.06814
20
80.9655
11
-1.14841
21
80.93556
0
LINE
8
Outline
10
-1.14841
20
80.93556
11
-1.2278
21
80.90334
0
LINE
8
Outline
10
-1.2278
20
80.90334
11
-1.30624
21
80.86887
0
LINE
8
Outline
10
-1.30624
20
80.86887
11
-1.38365
21
80.83217
0
LINE
8
Outline
10
-1.38365
20
80.83217
11
-1.45999
21
80.79327
0
LINE
8
Outline
10
-1.45999
20
80.79327
11
-1.53519
21
80.75221
0
LINE
8
Outline
10
-1.53519
20
80.75221
11
-1.60918
21
80.70902
0
LINE
8
Outline
10
-1.60918
20
80.70902
11
-1.68191
21
80.66373
0
LINE
8
Outline
10
-1.68191
20
80.66373
11
-1.75332
21
80.61639
0
LINE
8
Outline
10
-1.75332
20
80.61639
11
-1.82335
21
80.56702
0
LINE
8
Outline
10
-1.82335
20
80.56702
11
-1.89193
21
80.51568
0
LINE
8
Outline
10
-1.89193
20
80.51568
11
-1.95903
21
80.46239
0
LINE
8
Outline
10
-1.95903
20
80.46239
11
-2.02457
21
80.40722
0
LINE
8
Outline
10
-2.02457
20
80.40722
11
-2.08851
21
80.35019
0
LINE
8
Outline
10
-2.08851
20
80.35019
11
-2.1508
21
80.29137
0
LINE
8
Outline
10
-2.1508
20
80.29137
11
-2.21139
21
80.23078
0
LINE
8
Outline
10
-2.21139
20
80.23078
11
-2.27021
21
80.16849
0
LINE
8
Outline
10
-2.27021
20
80.16849
11
-2.32724
21
80.10455
0
LINE
8
Outline
10
-2.32724
20
80.10455
11
-2.38241
21
80.03901
0
LINE
8
Outline
10
-2.38241
20
80.03901
11
-2.4357
21
79.97191
0
LINE
8
Outline
10
-2.4357
20
79.97191
11
-2.48704
21
79.90333
0
LINE
8
Outline
10
-2.48704
20
79.90333
11
-2.53641
21
79.8333
0
LINE
8
Outline
10
-2.53641
20
79.8333
11
-2.58375
21
79.76189
0
LINE
8
Outline
10
-2.58375
20
79.76189
11
-2.62904
21
79.68916
0
LINE
8
Outline
10
-2.62904
20
79.68916
11
-2.67223
21
79.61517
0
LINE
8
Outline
10
-2.67223
20
79.61517
11
-2.71329
21
79.53997
0
LINE
8
Outline
10
-2.71329
20
79.53997
11
-2.75219
21
79.46363
0
LINE
8
Outline
10
-2.75219
20
79.46363
11
-2.78889
21
79.38622
0
LINE
8
Outline
10
-2.78889
20
79.38622
11
-2.82336
21
79.30778
0
LINE
8
Outline
10
-2.82336
20
79.30778
11
-2.85558
21
79.22839
0
LINE
8
Outline
10
-2.85558
20
79.22839
11
-2.88552
21
79.14812
0
LINE
8
Outline
10
-2.88552
20
79.14812
11
-2.91316
21
79.06702
0
LINE
8
Outline
10
-2.91316
20
79.06702
11
-2.93847
21
78.98517
0
LINE
8
Outline
10
-2.93847
20
78.98517
11
-2.96143
21
78.90263
0
LINE
8
Outline
10
-2.96143
20
78.90263
11
-2.98203
21
78.81946
0
LINE
8
Outline
10
-2.98203
20
78.81946
11
-3.00024
21
78.73574
0
LINE
8
Outline
10
-3.00024
20
78.73574
11
-3.01605
21
78.65154
0
LINE
8
Outline
10
-3.01605
20
78.65154
11
-3.02945
21
78.56691
0
LINE
8
Outline
10
-3.02945
20
78.56691
11
-3.04044
21
78.48194
0
LINE
8
Outline
10
-3.04044
20
78.48194
11
-3.04899
21
78.3967
0
LINE
8
Outline
10
-3.04899
20
78.3967
11
-3.0551
21
78.31124
0
LINE
8
Outline
10
-3.0551
20
78.31124
11
-3.05877
21
78.22564
0
LINE
8
Outline
10
-3.05877
20
78.22564
11
-3.05999
21
78.13997
0
LINE
8
Outline
10
-3.05999
20
78.13997
11
-3.05999
21
64.16997
0
LINE
8
Outline
10
-3.05999
20
64.16997
11
-3.05877
21
64.0843
0
LINE
8
Outline
10
-3.05877
20
64.0843
11
-3.0551
21
63.9987
0
LINE
8
Outline
10
-3.0551
20
63.9987
11
-3.04899
21
63.91324
0
LINE
8
Outline
10
-3.04899
20
63.91324
11
-3.04044
21
63.828
0
LINE
8
Outline
10
-3.04044
20
63.828
11
-3.02945
21
63.74303
0
LINE
8
Outline
10
-3.02945
20
63.74303
11
-3.01605
21
63.6584
0
LINE
8
Outline
10
-3.01605
20
63.6584
11
-3.00024
21
63.5742
0
LINE
8
Outline
10
-3.00024
20
63.5742
11
-2.98203
21
63.49048
0
LINE
8
Outline
10
-2.98203
20
63.49048
11
-2.96143
21
63.40731
0
LINE
8
Outline
10
-2.96143
20
63.40731
11
-2.93847
21
63.32477
0
LINE
8
Outline
10
-2.93847
20
63.32477
11
-2.91316
21
63.24292
0
LINE
8
Outline
10
-2.91316
20
63.24292
11
-2.88552
21
63.16182
0
LINE
8
Outline
10
-2.88552
20
63.16182
11
-2.88297
21
63.15498
0
LINE
8
Outline
10
-2.88297
20
63.15498
11
-2.88552
21
63.14813
0
LINE
8
Outline
10
-2.88552
20
63.14813
11
-2.91316
21
63.06703
0
LINE
8
Outline
10
-2.91316
20
63.06703
11
-2.93847
21
62.98518
0
LINE
8
Outline
10
-2.93847
20
62.98518
11
-2.96143
21
62.90264
0
LINE
8
Outline
10
-2.96143
20
62.90264
11
-2.98203
21
62.81947
0
LINE
8
Outline
10
-2.98203
20
62.81947
11
-3.00024
21
62.73575
0
LINE
8
Outline
10
-3.00024
20
62.73575
11
-3.01605
21
62.65155
0
LINE
8
Outline
10
-3.01605
20
62.65155
11
-3.02945
21
62.56692
0
LINE
8
Outline
10
-3.02945
20
62.56692
11
-3.04044
21
62.48195
0
LINE
8
Outline
10
-3.04044
20
62.48195
11
-3.04899
21
62.39671
0
LINE
8
Outline
10
-3.04899
20
62.39671
11
-3.0551
21
62.31125
0
LINE
8
Outline
10
-3.0551
20
62.31125
11
-3.05877
21
62.22565
0
LINE
8
Outline
10
-3.05877
20
62.22565
11
-3.05999
21
62.13998
0
LINE
8
Outline
10
-3.05999
20
62.13998
11
-3.05999
21
48.16998
0
LINE
8
Outline
10
-3.05999
20
48.16998
11
-3.05877
21
48.08431
0
LINE
8
Outline
10
-3.05877
20
48.08431
11
-3.0551
21
47.99871
0
LINE
8
Outline
10
-3.0551
20
47.99871
11
-3.04899
21
47.91325
0
LINE
8
Outline
10
-3.04899
20
47.91325
11
-3.04044
21
47.82801
0
LINE
8
Outline
10
-3.04044
20
47.82801
11
-3.02945
21
47.74304
0
LINE
8
Outline
10
-3.02945
20
47.74304
11
-3.01605
21
47.65841
0
LINE
8
Outline
10
-3.01605
20
47.65841
11
-3.00024
21
47.57421
0
LINE
8
Outline
10
-3.00024
20
47.57421
11
-2.98203
21
47.49049
0
LINE
8
Outline
10
-2.98203
20
47.49049
11
-2.96143
21
47.40732
0
LINE
8
Outline
10
-2.96143
20
47.40732
11
-2.93847
21
47.32478
0
LINE
8
Outline
10
-2.93847
20
47.32478
11
-2.91316
21
47.24293
0
LINE
8
Outline
10
-2.91316
20
47.24293
11
-2.88552
21
47.16183
0
LINE
8
Outline
10
-2.88552
20
47.16183
11
-2.88297
21
47.15498
0
LINE
8
Outline
10
-2.88297
20
47.15498
11
-2.88552
21
47.14813
0
LINE
8
Outline
10
-2.88552
20
47.14813
11
-2.91316
21
47.06703
0
LINE
8
Outline
10
-2.91316
20
47.06703
11
-2.93847
21
46.98518
0
LINE
8
Outline
10
-2.93847
20
46.98518
11
-2.96143
21
46.90264
0
LINE
8
Outline
10
-2.96143
20
46.90264
11
-2.98203
21
46.81947
0
LINE
8
Outline
10
-2.98203
20
46.81947
11
-3.00024
21
46.73575
0
LINE
8
Outline
10
-3.00024
20
46.73575
11
-3.01605
21
46.65155
0
LINE
8
Outline
10
-3.01605
20
46.65155
11
-3.02945
21
46.56692
0
LINE
8
Outline
10
-3.02945
20
46.56692
11
-3.04044
21
46.48195
0
LINE
8
Outline
10
-3.04044
20
46.48195
11
-3.04899
21
46.39671
0
LINE
8
Outline
10
-3.04899
20
46.39671
11
-3.0551
21
46.31125
0
LINE
8
Outline
10
-3.0551
20
46.31125
11
-3.05877
21
46.22565
0
LINE
8
Outline
10
-3.05877
20
46.22565
11
-3.05999
21
46.13998
0
LINE
8
Outline
10
-3.05999
20
46.13998
11
-3.05999
21
32.16998
0
LINE
8
Outline
10
-3.05999
20
32.16998
11
-3.05877
21
32.08431
0
LINE
8
Outline
10
-3.05877
20
32.08431
11
-3.0551
21
31.99871
0
LINE
8
Outline
10
-3.0551
20
31.99871
11
-3.04899
21
31.91325
0
LINE
8
Outline
10
-3.04899
20
31.91325
11
-3.04044
21
31.82801
0
LINE
8
Outline
10
-3.04044
20
31.82801
11
-3.02945
21
31.74304
0
LINE
8
Outline
10
-3.02945
20
31.74304
11
-3.01605
21
31.65841
0
LINE
8
Outline
10
-3.01605
20
31.65841
11
-3.00024
21
31.57421
0
LINE
8
Outline
10
-3.00024
20
31.57421
11
-2.98203
21
31.49049
0
LINE
8
Outline
10
-2.98203
20
31.49049
11
-2.96143
21
31.40732
0
LINE
8
Outline
10
-2.96143
20
31.40732
11
-2.93847
21
31.32478
0
LINE
8
Outline
10
-2.93847
20
31.32478
11
-2.91316
21
31.24293
0
LINE
8
Outline
10
-2.91316
20
31.24293
11
-2.88552
21
31.16183
0
LINE
8
Outline
10
-2.88552
20
31.16183
11
-2.88297
21
31.15499
0
LINE
8
Outline
10
-2.88297
20
31.15499
11
-2.88552
21
31.14814
0
LINE
8
Outline
10
-2.88552
20
31.14814
11
-2.91316
21
31.06704
0
LINE
8
Outline
10
-2.91316
20
31.06704
11
-2.93847
21
30.98519
0
LINE
8
Outline
10
-2.93847
20
30.98519
11
-2.96143
21
30.90265
0
LINE
8
Outline
10
-2.96143
20
30.90265
11
-2.98203
21
30.81948
0
LINE
8
Outline
10
-2.98203
20
30.81948
11
-3.00024
21
30.73576
0
LINE
8
Outline
10
-3.00024
20
30.73576
11
-3.01605
21
30.65156
0
LINE
8
Outline
10
-3.01605
20
30.65156
11
-3.02945
21
30.56693
0
LINE
8
Outline
10
-3.02945
20
30.56693
11
-3.04044
21
30.48196
0
LINE
8
Outline
10
-3.04044
20
30.48196
11
-3.04899
21
30.39672
0
LINE
8
Outline
10
-3.04899
20
30.39672
11
-3.0551
21
30.31126
0
LINE
8
Outline
10
-3.0551
20
30.31126
11
-3.05877
21
30.22566
0
LINE
8
Outline
10
-3.05877
20
30.22566
11
-3.05999
21
30.13999
0
LINE
8
Outline
10
-3.05999
20
30.13999
11
-3.05999
21
16.16998
0
LINE
8
Outline
10
-3.05999
20
16.16998
11
-3.05877
21
16.08431
0
LINE
8
Outline
10
-3.05877
20
16.08431
11
-3.0551
21
15.99871
0
LINE
8
Outline
10
-3.0551
20
15.99871
11
-3.04899
21
15.91325
0
LINE
8
Outline
10
-3.04899
20
15.91325
11
-3.04044
21
15.82801
0
LINE
8
Outline
10
-3.04044
20
15.82801
11
-3.02945
21
15.74304
0
LINE
8
Outline
10
-3.02945
20
15.74304
11
-3.01605
21
15.65841
0
LINE
8
Outline
10
-3.01605
20
15.65841
11
-3.00024
21
15.57421
0
LINE
8
Outline
10
-3.00024
20
15.57421
11
-2.98203
21
15.49049
0
LINE
8
Outline
10
-2.98203
20
15.49049
11
-2.96143
21
15.40732
0
LINE
8
Outline
10
-2.96143
20
15.40732
11
-2.93847
21
15.32478
0
LINE
8
Outline
10
-2.93847
20
15.32478
11
-2.91316
21
15.24293
0
LINE
8
Outline
10
-2.91316
20
15.24293
11
-2.88552
21
15.16183
0
LINE
8
Outline
10
-2.88552
20
15.16183
11
-2.88296
21
15.15498
0
LINE
8
Outline
10
-2.88296
20
15.15498
11
-2.88552
21
15.14812
0
LINE
8
Outline
10
-2.88552
20
15.14812
11
-2.91316
21
15.06702
0
LINE
8
Outline
10
-2.91316
20
15.06702
11
-2.93847
21
14.98517
0
LINE
8
Outline
10
-2.93847
20
14.98517
11
-2.96143
21
14.90263
0
LINE
8
Outline
10
-2.96143
20
14.90263
11
-2.98203
21
14.81946
0
LINE
8
Outline
10
-2.98203
20
14.81946
11
-3.00024
21
14.73574
0
LINE
8
Outline
10
-3.00024
20
14.73574
11
-3.01605
21
14.65154
0
LINE
8
Outline
10
-3.01605
20
14.65154
11
-3.02945
21
14.56691
0
LINE
8
Outline
10
-3.02945
20
14.56691
11
-3.04044
21
14.48194
0
LINE
8
Outline
10
-3.04044
20
14.48194
11
-3.04899
21
14.3967
0
LINE
8
Outline
10
-3.04899
20
14.3967
11
-3.0551
21
14.31124
0
LINE
8
Outline
10
-3.0551
20
14.31124
11
-3.05877
21
14.22564
0
LINE
8
Outline
10
-3.05877
20
14.22564
11
-3.05999
21
14.13997
0
LINE
8
Outline
10
-3.05999
20
14.13997
11
-3.05999
21
0.16997
0
LINE
8
Outline
10
-3.05999
20
0.16997
11
-3.05877
21
0.0843
0
LINE
8
Outline
10
-3.05877
20
0.0843
11
-3.0551
21
-0.0013
0
LINE
8
Outline
10
-3.0551
20
-0.0013
11
-3.04899
21
-0.08676
0
LINE
8
Outline
10
-3.04899
20
-0.08676
11
-3.04044
21
-0.172
0
LINE
8
Outline
10
-3.04044
20
-0.172
11
-3.02945
21
-0.25697
0
LINE
8
Outline
10
-3.02945
20
-0.25697
11
-3.01605
21
-0.3416
0
LINE
8
Outline
10
-3.01605
20
-0.3416
11
-3.00024
21
-0.4258
0
LINE
8
Outline
10
-3.00024
20
-0.4258
11
-2.98203
21
-0.50952
0
LINE
8
Outline
10
-2.98203
20
-0.50952
11
-2.96143
21
-0.59269
0
LINE
8
Outline
10
-2.96143
20
-0.59269
11
-2.93847
21
-0.67523
0
LINE
8
Outline
10
-2.93847
20
-0.67523
11
-2.91316
21
-0.75708
0
LINE
8
Outline
10
-2.91316
20
-0.75708
11
-2.88552
21
-0.83818
0
LINE
8
Outline
10
-2.88552
20
-0.83818
11
-2.85558
21
-0.91845
0
LINE
8
Outline
10
-2.85558
20
-0.91845
11
-2.82336
21
-0.99784
0
LINE
8
Outline
10
-2.82336
20
-0.99784
11
-2.78889
21
-1.07628
0
LINE
8
Outline
10
-2.78889
20
-1.07628
11
-2.75219
21
-1.15369
0
LINE
8
Outline
10
-2.75219
20
-1.15369
11
-2.71329
21
-1.23003
0
LINE
8
Outline
10
-2.71329
20
-1.23003
11
-2.67223
21
-1.30523
0
LINE
8
Outline
10
-2.67223
20
-1.30523
11
-2.62904
21
-1.37922
0
LINE
8
Outline
10
-2.62904
20
-1.37922
11
-2.58375
21
-1.45195
0
LINE
8
Outline
10
-2.58375
20
-1.45195
11
-2.53641
21
-1.52336
0
LINE
8
Outline
10
-2.53641
20
-1.52336
11
-2.48704
21
-1.59339
0
LINE
8
Outline
10
-2.48704
20
-1.59339
11
-2.4357
21
-1.66197
0
LINE
8
Outline
10
-2.4357
20
-1.66197
11
-2.38241
21
-1.72907
0
LINE
8
Outline
10
-2.38241
20
-1.72907
11
-2.32724
21
-1.79461
0
LINE
8
Outline
10
-2.32724
20
-1.79461
11
-2.27021
21
-1.85855
0
LINE
8
Outline
10
-2.27021
20
-1.85855
11
-2.21139
21
-1.92084
0
LINE
8
Outline
10
-2.21139
20
-1.92084
11
-2.1508
21
-1.98143
0
LINE
8
Outline
10
-2.1508
20
-1.98143
11
-2.08851
21
-2.04025
0
LINE
8
Outline
10
-2.08851
20
-2.04025
11
-2.02457
21
-2.09728
0
LINE
8
Outline
10
-2.02457
20
-2.09728
11
-1.95903
21
-2.15245
0
LINE
8
Outline
10
-1.95903
20
-2.15245
11
-1.89193
21
-2.20574
0
LINE
8
Outline
10
-1.89193
20
-2.20574
11
-1.82335
21
-2.25708
0
LINE
8
Outline
10
-1.82335
20
-2.25708
11
-1.75332
21
-2.30645
0
LINE
8
Outline
10
-1.75332
20
-2.30645
11
-1.68191
21
-2.35379
0
LINE
8
Outline
10
-1.68191
20
-2.35379
11
-1.60918
21
-2.39908
0
LINE
8
Outline
10
-1.60918
20
-2.39908
11
-1.53519
21
-2.44227
0
LINE
8
Outline
10
-1.53519
20
-2.44227
11
-1.45999
21
-2.48333
0
LINE
8
Outline
10
-1.45999
20
-2.48333
11
-1.38365
21
-2.52223
0
LINE
8
Outline
10
-1.38365
20
-2.52223
11
-1.30624
21
-2.55893
0
LINE
8
Outline
10
-1.30624
20
-2.55893
11
-1.2278
21
-2.5934
0
LINE
8
Outline
10
-1.2278
20
-2.5934
11
-1.14841
21
-2.62562
0
LINE
8
Outline
10
-1.14841
20
-2.62562
11
-1.06814
21
-2.65556
0
LINE
8
Outline
10
-1.06814
20
-2.65556
11
-0.98704
21
-2.6832
0
LINE
8
Outline
10
-0.98704
20
-2.6832
11
-0.90519
21
-2.70851
0
LINE
8
Outline
10
-0.90519
20
-2.70851
11
-0.82265
21
-2.73147
0
LINE
8
Outline
10
-0.82265
20
-2.73147
11
-0.73948
21
-2.75207
0
LINE
8
Outline
10
-0.73948
20
-2.75207
11
-0.65576
21
-2.77028
0
LINE
8
Outline
10
-0.65576
20
-2.77028
11
-0.57156
21
-2.78609
0
LINE
8
Outline
10
-0.57156
20
-2.78609
11
-0.48693
21
-2.79949
0
LINE
8
Outline
10
-0.48693
20
-2.79949
11
-0.40196
21
-2.81048
0
LINE
8
Outline
10
-0.40196
20
-2.81048
11
-0.31672
21
-2.81903
0
LINE
8
Outline
10
-0.31672
20
-2.81903
11
-0.23126
21
-2.82514
0
LINE
8
Outline
10
-0.23126
20
-2.82514
11
-0.14566
21
-2.82881
0
LINE
8
Outline
10
-0.14566
20
-2.82881
11
-0.05999
21
-2.83003
0
LINE
8
Outline
10
-0.05999
20
-2.83003
11
19.54263
21
-2.83003
0
LINE
8
Outline
10
19.54263
20
-2.83003
11
19.62918
21
-2.97683
0
LINE
8
Outline
10
19.62918
20
-2.97683
11
19.67789
21
-3.05659
0
LINE
8
Outline
10
19.67789
20
-3.05659
11
19.72906
21
-3.13478
0
LINE
8
Outline
10
19.72906
20
-3.13478
11
19.78264
21
-3.21135
0
LINE
8
Outline
10
19.78264
20
-3.21135
11
19.83858
21
-3.28621
0
LINE
8
Outline
10
19.83858
20
-3.28621
11
19.89683
21
-3.35929
0
LINE
8
Outline
10
19.89683
20
-3.35929
11
19.95732
21
-3.43052
0
LINE
8
Outline
10
19.95732
20
-3.43052
11
20.02
21
-3.49984
0
LINE
8
Outline
10
20.02
20
-3.49984
11
20.08481
21
-3.56716
0
LINE
8
Outline
10
20.08481
20
-3.56716
11
20.15168
21
-3.63244
0
LINE
8
Outline
10
20.15168
20
-3.63244
11
20.35475
21
-3.82457
0
LINE
8
Outline
10
20.35475
20
-3.82457
11
20.42368
21
-3.88778
0
LINE
8
Outline
10
20.42368
20
-3.88778
11
20.49454
21
-3.9488
0
LINE
8
Outline
10
20.49454
20
-3.9488
11
20.56728
21
-4.00759
0
LINE
8
Outline
10
20.56728
20
-4.00759
11
20.6418
21
-4.06409
0
LINE
8
Outline
10
20.6418
20
-4.06409
11
20.71806
21
-4.11823
0
LINE
8
Outline
10
20.71806
20
-4.11823
11
20.79596
21
-4.16997
0
LINE
8
Outline
10
20.79596
20
-4.16997
11
20.87544
21
-4.21926
0
LINE
8
Outline
10
20.87544
20
-4.21926
11
20.95642
21
-4.26604
0
LINE
8
Outline
10
20.95642
20
-4.26604
11
21.03881
21
-4.31028
0
LINE
8
Outline
10
21.03881
20
-4.31028
11
21.28715
21
-4.43867
0
LINE
8
Outline
10
21.28715
20
-4.43867
11
21.37084
21
-4.4803
0
LINE
8
Outline
10
21.37084
20
-4.4803
11
21.45578
21
-4.5193
0
LINE
8
Outline
10
21.45578
20
-4.5193
11
21.5419
21
-4.55563
0
LINE
8
Outline
10
21.5419
20
-4.55563
11
21.6291
21
-4.58927
0
LINE
8
Outline
10
21.6291
20
-4.58927
11
21.71732
21
-4.62017
0
LINE
8
Outline
10
21.71732
20
-4.62017
11
21.80645
21
-4.6483
0
LINE
8
Outline
10
21.80645
20
-4.6483
11
21.89641
21
-4.67365
0
LINE
8
Outline
10
21.89641
20
-4.67365
11
21.98712
21
-4.69618
0
LINE
8
Outline
10
21.98712
20
-4.69618
11
22.07849
21
-4.71588
0
LINE
8
Outline
10
22.07849
20
-4.71588
11
22.35263
21
-4.77052
0
LINE
8
Outline
10
22.35263
20
-4.77052
11
22.44458
21
-4.78736
0
LINE
8
Outline
10
22.44458
20
-4.78736
11
22.537
21
-4.80133
0
LINE
8
Outline
10
22.537
20
-4.80133
11
22.62982
21
-4.81241
0
LINE
8
Outline
10
22.62982
20
-4.81241
11
22.72293
21
-4.8206
0
LINE
8
Outline
10
22.72293
20
-4.8206
11
22.81626
21
-4.82588
0
LINE
8
Outline
10
22.81626
20
-4.82588
11
22.9097
21
-4.82825
0
LINE
8
Outline
10
22.9097
20
-4.82825
11
22.9097
21
-4.82825
0
ENDSEC
0
EOF
