%MOIN*%
%OFA0B0*%
%FSLAX36Y36*%
%IPPOS*%
%LPD*%
%ADD10C,0*%
D10*
X002714173Y002635479D02*
X002714173Y002635479D01*
X002714173Y002526377D01*
X002992974Y002526377D01*
X002998586Y002525975D01*
X003004083Y002524778D01*
X003009353Y002522809D01*
X003014288Y002520109D01*
X003018788Y002516733D01*
X003022762Y002512750D01*
X003026127Y002508242D01*
X003028815Y002503300D01*
X003030771Y002498025D01*
X003031956Y002492526D01*
X003032344Y002486913D01*
X003031929Y002481303D01*
X003030718Y002475809D01*
X003028737Y002470544D01*
X003026025Y002465615D01*
X003022639Y002461122D01*
X003018646Y002457158D01*
X003014130Y002453804D01*
X003009181Y002451128D01*
X003003902Y002449184D01*
X002999814Y002448003D01*
X002999281Y002447853D01*
X002998746Y002447711D01*
X002998209Y002447576D01*
X002997670Y002447449D01*
X002997130Y002447329D01*
X002996588Y002447217D01*
X002996044Y002447112D01*
X002995499Y002447015D01*
X002994952Y002446926D01*
X002994405Y002446845D01*
X002993856Y002446771D01*
X002993306Y002446705D01*
X002992756Y002446647D01*
X002992204Y002446596D01*
X002991652Y002446553D01*
X002991100Y002446518D01*
X002990547Y002446491D01*
X002989994Y002446472D01*
X002989440Y002446460D01*
X002988886Y002446456D01*
X002714173Y002446456D01*
X002714173Y002265546D01*
X002713920Y002261093D01*
X002713165Y002256697D01*
X002711918Y002252414D01*
X002710195Y002248301D01*
X002708017Y002244408D01*
X002705413Y002240787D01*
X002702416Y002237484D01*
X002699065Y002234540D01*
X002695402Y002231995D01*
X002691475Y002229880D01*
X002687334Y002228223D01*
X002683032Y002227045D01*
X002678625Y002226362D01*
X002674168Y002226181D01*
X002669720Y002226505D01*
X002665336Y002227331D01*
X002661075Y002228647D01*
X002656989Y002230436D01*
X002653132Y002232676D01*
X002649554Y002235338D01*
X002622782Y002257716D01*
X002621485Y002258848D01*
X002620240Y002260037D01*
X002619047Y002261278D01*
X002617910Y002262571D01*
X002616831Y002263912D01*
X002615811Y002265298D01*
X002614853Y002266729D01*
X002613958Y002268199D01*
X002613128Y002269708D01*
X002612365Y002271251D01*
X002611671Y002272826D01*
X002611045Y002274430D01*
X002610491Y002276059D01*
X002610008Y002277712D01*
X002609598Y002279384D01*
X002609262Y002281072D01*
X002608999Y002282773D01*
X002608811Y002284484D01*
X002608698Y002286202D01*
X002608661Y002287923D01*
X002608661Y002446456D01*
X002278507Y002446456D01*
X002277990Y002446460D01*
X002277474Y002446470D01*
X002276957Y002446487D01*
X002276441Y002446510D01*
X002275925Y002446541D01*
X002275410Y002446578D01*
X002274895Y002446622D01*
X002274381Y002446673D01*
X002273867Y002446731D01*
X002273355Y002446795D01*
X002272843Y002446866D01*
X002272332Y002446943D01*
X002271822Y002447028D01*
X002271314Y002447119D01*
X002270806Y002447217D01*
X002270300Y002447321D01*
X002269795Y002447432D01*
X002269292Y002447550D01*
X002268791Y002447674D01*
X002268291Y002447805D01*
X002263895Y002448986D01*
X002258546Y002450845D01*
X002253520Y002453452D01*
X002248919Y002456753D01*
X002244839Y002460680D01*
X002241365Y002465152D01*
X002238568Y002470075D01*
X002236507Y002475349D01*
X002235224Y002480865D01*
X002234745Y002486507D01*
X002235080Y002492160D01*
X002236223Y002497706D01*
X002238150Y002503031D01*
X002240820Y002508024D01*
X002244180Y002512582D01*
X002248158Y002516612D01*
X002252674Y002520029D01*
X002257633Y002522763D01*
X002262932Y002524757D01*
X002268464Y002525970D01*
X002274112Y002526377D01*
X002608661Y002526377D01*
X002608661Y002650173D01*
X002608872Y002654246D01*
X002609504Y002658275D01*
X002610548Y002662218D01*
X002611996Y002666031D01*
X002613830Y002669674D01*
X002616030Y002673107D01*
X002618575Y002676295D01*
X002621435Y002679202D01*
X002624581Y002681798D01*
X002627978Y002684054D01*
X002631591Y002685946D01*
X002635380Y002687455D01*
X002639305Y002688564D01*
X002643323Y002689261D01*
X002647392Y002689538D01*
X002651468Y002689393D01*
X002655507Y002688827D01*
X002659466Y002687846D01*
X002663302Y002686461D01*
X002666974Y002684686D01*
X002693746Y002669992D01*
X002695562Y002668931D01*
X002697320Y002667774D01*
X002699013Y002666525D01*
X002700636Y002665188D01*
X002702186Y002663766D01*
X002703658Y002662262D01*
X002705048Y002660683D01*
X002706351Y002659031D01*
X002707564Y002657313D01*
X002708683Y002655531D01*
X002709706Y002653693D01*
X002710629Y002651803D01*
X002711450Y002649866D01*
X002712166Y002647888D01*
X002712776Y002645874D01*
X002713277Y002643831D01*
X002713668Y002641764D01*
X002713948Y002639679D01*
X002714117Y002637582D01*
X002714173Y002635479D01*
X002608661Y001618632D02*
X002608661Y001618632D01*
X002608661Y001816535D01*
X002278507Y001816535D01*
X002277990Y001816538D01*
X002277474Y001816548D01*
X002276957Y001816565D01*
X002276441Y001816589D01*
X002275925Y001816620D01*
X002275410Y001816657D01*
X002274895Y001816701D01*
X002274381Y001816752D01*
X002273867Y001816809D01*
X002273355Y001816874D01*
X002272843Y001816945D01*
X002272332Y001817022D01*
X002271822Y001817107D01*
X002271314Y001817198D01*
X002270806Y001817295D01*
X002270300Y001817400D01*
X002269795Y001817511D01*
X002269292Y001817628D01*
X002268791Y001817753D01*
X002268291Y001817884D01*
X002263895Y001819065D01*
X002258546Y001820923D01*
X002253520Y001823530D01*
X002248919Y001826832D01*
X002244839Y001830759D01*
X002241365Y001835230D01*
X002238568Y001840154D01*
X002236507Y001845428D01*
X002235224Y001850943D01*
X002234745Y001856586D01*
X002235080Y001862238D01*
X002236223Y001867785D01*
X002238150Y001873109D01*
X002240820Y001878103D01*
X002244180Y001882661D01*
X002248158Y001886691D01*
X002252674Y001890108D01*
X002257633Y001892841D01*
X002262932Y001894836D01*
X002268464Y001896049D01*
X002274112Y001896456D01*
X002608661Y001896456D01*
X002608661Y002042784D01*
X002608698Y002044506D01*
X002608811Y002046223D01*
X002608999Y002047934D01*
X002609262Y002049636D01*
X002609598Y002051324D01*
X002610008Y002052996D01*
X002610491Y002054648D01*
X002611045Y002056278D01*
X002611671Y002057882D01*
X002612365Y002059457D01*
X002613128Y002061000D01*
X002613958Y002062508D01*
X002614853Y002063979D01*
X002615811Y002065409D01*
X002616831Y002066796D01*
X002617910Y002068137D01*
X002619047Y002069430D01*
X002620240Y002070671D01*
X002621485Y002071859D01*
X002622782Y002072992D01*
X002649554Y002095369D01*
X002653132Y002098031D01*
X002656989Y002100271D01*
X002661075Y002102061D01*
X002665336Y002103377D01*
X002669720Y002104202D01*
X002674168Y002104527D01*
X002678625Y002104346D01*
X002683032Y002103662D01*
X002687334Y002102484D01*
X002691475Y002100827D01*
X002695402Y002098713D01*
X002699065Y002096167D01*
X002702416Y002093224D01*
X002705413Y002089921D01*
X002708017Y002086300D01*
X002710195Y002082407D01*
X002711918Y002078293D01*
X002713165Y002074011D01*
X002713920Y002069615D01*
X002714173Y002065162D01*
X002714173Y001896456D01*
X002962108Y001896456D01*
X002967756Y001896049D01*
X002973287Y001894836D01*
X002978587Y001892841D01*
X002983546Y001890108D01*
X002988061Y001886691D01*
X002992040Y001882661D01*
X002995399Y001878103D01*
X002998070Y001873109D01*
X002999997Y001867785D01*
X003001139Y001862238D01*
X003001475Y001856586D01*
X003000996Y001850943D01*
X002999712Y001845428D01*
X002997651Y001840154D01*
X002994854Y001835230D01*
X002991380Y001830759D01*
X002987301Y001826832D01*
X002982700Y001823530D01*
X002977673Y001820923D01*
X002972324Y001819065D01*
X002967929Y001817884D01*
X002967429Y001817753D01*
X002966927Y001817628D01*
X002966424Y001817511D01*
X002965919Y001817400D01*
X002965413Y001817295D01*
X002964906Y001817198D01*
X002964397Y001817107D01*
X002963888Y001817022D01*
X002963377Y001816945D01*
X002962865Y001816874D01*
X002962352Y001816809D01*
X002961839Y001816752D01*
X002961324Y001816701D01*
X002960810Y001816657D01*
X002960294Y001816620D01*
X002959778Y001816589D01*
X002959262Y001816565D01*
X002958746Y001816548D01*
X002958229Y001816538D01*
X002957712Y001816535D01*
X002714173Y001816535D01*
X002714173Y001596254D01*
X002713920Y001591801D01*
X002713165Y001587405D01*
X002711918Y001583123D01*
X002710195Y001579009D01*
X002708017Y001575117D01*
X002705413Y001571496D01*
X002702416Y001568192D01*
X002699065Y001565249D01*
X002695402Y001562704D01*
X002691475Y001560589D01*
X002687334Y001558932D01*
X002683032Y001557754D01*
X002678625Y001557070D01*
X002674168Y001556890D01*
X002669720Y001557214D01*
X002665336Y001558039D01*
X002661075Y001559355D01*
X002656989Y001561145D01*
X002653132Y001563385D01*
X002649554Y001566047D01*
X002622782Y001588424D01*
X002621485Y001589557D01*
X002620240Y001590745D01*
X002619047Y001591987D01*
X002617910Y001593279D01*
X002616831Y001594620D01*
X002615811Y001596007D01*
X002614853Y001597437D01*
X002613958Y001598908D01*
X002613128Y001600416D01*
X002612365Y001601959D01*
X002611671Y001603534D01*
X002611045Y001605138D01*
X002610491Y001606768D01*
X002610008Y001608420D01*
X002609598Y001610092D01*
X002609262Y001611781D01*
X002608999Y001613482D01*
X002608811Y001615193D01*
X002608698Y001616911D01*
X002608661Y001618632D01*
X000983403Y003156299D02*
X000983403Y003156299D01*
X001190454Y003156299D01*
X001196102Y003155891D01*
X001201633Y003154678D01*
X001206933Y003152684D01*
X001211892Y003149950D01*
X001216408Y003146533D01*
X001220386Y003142504D01*
X001223746Y003137945D01*
X001226416Y003132952D01*
X001228343Y003127627D01*
X001229486Y003122081D01*
X001229821Y003116428D01*
X001229342Y003110786D01*
X001228059Y003105271D01*
X001225998Y003099997D01*
X001223201Y003095073D01*
X001219727Y003090601D01*
X001215647Y003086674D01*
X001211046Y003083373D01*
X001206019Y003080766D01*
X001200671Y003078907D01*
X001196275Y003077726D01*
X001195775Y003077595D01*
X001195274Y003077471D01*
X001194771Y003077353D01*
X001194266Y003077242D01*
X001193760Y003077138D01*
X001193252Y003077040D01*
X001192744Y003076949D01*
X001192234Y003076865D01*
X001191723Y003076787D01*
X001191211Y003076716D01*
X001190699Y003076652D01*
X001190185Y003076594D01*
X001189671Y003076543D01*
X001189156Y003076499D01*
X001188641Y003076462D01*
X001188125Y003076432D01*
X001187609Y003076408D01*
X001187092Y003076391D01*
X001186576Y003076381D01*
X001186059Y003076377D01*
X000987491Y003076377D01*
X000986937Y003076381D01*
X000986383Y003076393D01*
X000985830Y003076412D01*
X000985277Y003076440D01*
X000984725Y003076475D01*
X000984173Y003076517D01*
X000983621Y003076568D01*
X000983071Y003076626D01*
X000982521Y003076692D01*
X000981972Y003076766D01*
X000981425Y003076848D01*
X000980878Y003076937D01*
X000980333Y003077034D01*
X000979789Y003077138D01*
X000979247Y003077250D01*
X000978707Y003077370D01*
X000978168Y003077497D01*
X000977631Y003077632D01*
X000977096Y003077774D01*
X000976563Y003077924D01*
X000972475Y003079105D01*
X000967196Y003081049D01*
X000962247Y003083725D01*
X000957731Y003087080D01*
X000953738Y003091043D01*
X000950352Y003095536D01*
X000947640Y003100465D01*
X000945659Y003105730D01*
X000944448Y003111224D01*
X000944033Y003116835D01*
X000944421Y003122447D01*
X000945606Y003127947D01*
X000947562Y003133221D01*
X000950250Y003138163D01*
X000953615Y003142672D01*
X000957588Y003146654D01*
X000962089Y003150030D01*
X000967024Y003152730D01*
X000972294Y003154699D01*
X000977791Y003155897D01*
X000983403Y003156299D01*
X001407970Y003156299D02*
X001407970Y003156299D01*
X001703149Y003156299D01*
X001703149Y003381367D01*
X001703187Y003383088D01*
X001703300Y003384806D01*
X001703487Y003386517D01*
X001703750Y003388218D01*
X001704086Y003389907D01*
X001704496Y003391579D01*
X001704979Y003393231D01*
X001705534Y003394861D01*
X001706159Y003396465D01*
X001706854Y003398040D01*
X001707617Y003399583D01*
X001708446Y003401091D01*
X001709341Y003402562D01*
X001710299Y003403992D01*
X001711319Y003405379D01*
X001712399Y003406720D01*
X001713536Y003408012D01*
X001714728Y003409254D01*
X001715974Y003410442D01*
X001717270Y003411575D01*
X001744042Y003433952D01*
X001747621Y003436614D01*
X001751477Y003438854D01*
X001755563Y003440644D01*
X001759825Y003441960D01*
X001764208Y003442785D01*
X001768656Y003443109D01*
X001773113Y003442929D01*
X001777520Y003442245D01*
X001781822Y003441067D01*
X001785963Y003439410D01*
X001789890Y003437295D01*
X001793553Y003434750D01*
X001796904Y003431807D01*
X001799901Y003428503D01*
X001802505Y003424882D01*
X001804683Y003420990D01*
X001806406Y003416876D01*
X001807654Y003412594D01*
X001808408Y003408198D01*
X001808661Y003403745D01*
X001808661Y003156299D01*
X002095966Y003156299D01*
X002101614Y003155891D01*
X002107145Y003154678D01*
X002112445Y003152684D01*
X002117404Y003149950D01*
X002121920Y003146533D01*
X002125898Y003142504D01*
X002129257Y003137945D01*
X002131928Y003132952D01*
X002133855Y003127627D01*
X002134998Y003122081D01*
X002135333Y003116428D01*
X002134854Y003110786D01*
X002133571Y003105271D01*
X002131509Y003099997D01*
X002128713Y003095073D01*
X002125239Y003090601D01*
X002121159Y003086674D01*
X002116558Y003083373D01*
X002111531Y003080766D01*
X002106182Y003078907D01*
X002101787Y003077726D01*
X002101287Y003077595D01*
X002100785Y003077471D01*
X002100282Y003077353D01*
X002099778Y003077242D01*
X002099272Y003077138D01*
X002098764Y003077040D01*
X002098256Y003076949D01*
X002097746Y003076865D01*
X002097235Y003076787D01*
X002096723Y003076716D01*
X002096210Y003076652D01*
X002095697Y003076594D01*
X002095183Y003076543D01*
X002094668Y003076499D01*
X002094152Y003076462D01*
X002093637Y003076432D01*
X002093120Y003076408D01*
X002092604Y003076391D01*
X002092087Y003076381D01*
X002091571Y003076377D01*
X001808661Y003076377D01*
X001808661Y002836961D01*
X001808605Y002834858D01*
X001808436Y002832761D01*
X001808156Y002830676D01*
X001807765Y002828609D01*
X001807264Y002826566D01*
X001806654Y002824552D01*
X001805938Y002822574D01*
X001805117Y002820637D01*
X001804194Y002818747D01*
X001803172Y002816909D01*
X001802052Y002815127D01*
X001800839Y002813409D01*
X001799536Y002811757D01*
X001798146Y002810177D01*
X001796675Y002808674D01*
X001795125Y002807252D01*
X001793501Y002805915D01*
X001791808Y002804666D01*
X001790051Y002803509D01*
X001788234Y002802448D01*
X001761462Y002787754D01*
X001757790Y002785979D01*
X001753954Y002784594D01*
X001749995Y002783613D01*
X001745957Y002783047D01*
X001741881Y002782902D01*
X001737812Y002783179D01*
X001733793Y002783876D01*
X001729868Y002784985D01*
X001726079Y002786493D01*
X001722467Y002788386D01*
X001719069Y002790642D01*
X001715923Y002793238D01*
X001713063Y002796145D01*
X001710519Y002799333D01*
X001708318Y002802766D01*
X001706484Y002806409D01*
X001705037Y002810222D01*
X001703992Y002814165D01*
X001703360Y002818194D01*
X001703149Y002822267D01*
X001703149Y003076377D01*
X001412365Y003076377D01*
X001411849Y003076381D01*
X001411332Y003076391D01*
X001410816Y003076408D01*
X001410299Y003076432D01*
X001409784Y003076462D01*
X001409268Y003076499D01*
X001408753Y003076543D01*
X001408239Y003076594D01*
X001407726Y003076652D01*
X001407213Y003076716D01*
X001406701Y003076787D01*
X001406190Y003076865D01*
X001405680Y003076949D01*
X001405172Y003077040D01*
X001404664Y003077138D01*
X001404158Y003077242D01*
X001403654Y003077353D01*
X001403151Y003077471D01*
X001402649Y003077595D01*
X001402149Y003077726D01*
X001397754Y003078907D01*
X001392405Y003080766D01*
X001387378Y003083373D01*
X001382777Y003086674D01*
X001378697Y003090601D01*
X001375223Y003095073D01*
X001372427Y003099997D01*
X001370365Y003105271D01*
X001369082Y003110786D01*
X001368603Y003116428D01*
X001368938Y003122081D01*
X001370081Y003127627D01*
X001372008Y003132952D01*
X001374679Y003137945D01*
X001378038Y003142504D01*
X001382016Y003146533D01*
X001386532Y003149950D01*
X001391491Y003152684D01*
X001396791Y003154678D01*
X001402322Y003155891D01*
X001407970Y003156299D01*
X001703149Y002286313D02*
X001703149Y002286313D01*
X001703149Y002446456D01*
X001412365Y002446456D01*
X001411849Y002446460D01*
X001411332Y002446470D01*
X001410816Y002446487D01*
X001410299Y002446510D01*
X001409784Y002446541D01*
X001409268Y002446578D01*
X001408753Y002446622D01*
X001408239Y002446673D01*
X001407726Y002446731D01*
X001407213Y002446795D01*
X001406701Y002446866D01*
X001406190Y002446943D01*
X001405680Y002447028D01*
X001405172Y002447119D01*
X001404664Y002447217D01*
X001404158Y002447321D01*
X001403654Y002447432D01*
X001403151Y002447550D01*
X001402649Y002447674D01*
X001402149Y002447805D01*
X001397754Y002448986D01*
X001392405Y002450845D01*
X001387378Y002453452D01*
X001382777Y002456753D01*
X001378697Y002460680D01*
X001375223Y002465152D01*
X001372427Y002470075D01*
X001370365Y002475349D01*
X001369082Y002480865D01*
X001368603Y002486507D01*
X001368938Y002492160D01*
X001370081Y002497706D01*
X001372008Y002503031D01*
X001374679Y002508024D01*
X001378038Y002512582D01*
X001382016Y002516612D01*
X001386532Y002520029D01*
X001391491Y002522763D01*
X001396791Y002524757D01*
X001402322Y002525970D01*
X001407970Y002526377D01*
X001703149Y002526377D01*
X001703149Y002610803D01*
X001703360Y002614876D01*
X001703992Y002618905D01*
X001705037Y002622848D01*
X001706484Y002626661D01*
X001708318Y002630303D01*
X001710519Y002633737D01*
X001713063Y002636925D01*
X001715923Y002639832D01*
X001719069Y002642427D01*
X001722467Y002644684D01*
X001726079Y002646576D01*
X001729868Y002648085D01*
X001733793Y002649194D01*
X001737812Y002649891D01*
X001741881Y002650168D01*
X001745957Y002650023D01*
X001749995Y002649457D01*
X001753954Y002648476D01*
X001757790Y002647091D01*
X001761462Y002645316D01*
X001788234Y002630622D01*
X001790051Y002629561D01*
X001791808Y002628404D01*
X001793501Y002627155D01*
X001795125Y002625818D01*
X001796675Y002624395D01*
X001798146Y002622892D01*
X001799536Y002621313D01*
X001800839Y002619661D01*
X001802052Y002617942D01*
X001803172Y002616161D01*
X001804194Y002614323D01*
X001805117Y002612433D01*
X001805938Y002610496D01*
X001806654Y002608517D01*
X001807264Y002606504D01*
X001807765Y002604461D01*
X001808156Y002602394D01*
X001808436Y002600309D01*
X001808605Y002598212D01*
X001808661Y002596109D01*
X001808661Y002526377D01*
X002056596Y002526377D01*
X002062244Y002525970D01*
X002067775Y002524757D01*
X002073075Y002522763D01*
X002078034Y002520029D01*
X002082549Y002516612D01*
X002086528Y002512582D01*
X002089887Y002508024D01*
X002092558Y002503031D01*
X002094485Y002497706D01*
X002095628Y002492160D01*
X002095963Y002486507D01*
X002095484Y002480865D01*
X002094201Y002475349D01*
X002092139Y002470075D01*
X002089343Y002465152D01*
X002085868Y002460680D01*
X002081789Y002456753D01*
X002077188Y002453452D01*
X002072161Y002450845D01*
X002066812Y002448986D01*
X002062417Y002447805D01*
X002061917Y002447674D01*
X002061415Y002447550D01*
X002060912Y002447432D01*
X002060408Y002447321D01*
X002059902Y002447217D01*
X002059394Y002447119D01*
X002058886Y002447028D01*
X002058376Y002446943D01*
X002057865Y002446866D01*
X002057353Y002446795D01*
X002056840Y002446731D01*
X002056327Y002446673D01*
X002055813Y002446622D01*
X002055298Y002446578D01*
X002054782Y002446541D01*
X002054267Y002446510D01*
X002053750Y002446487D01*
X002053234Y002446470D01*
X002052717Y002446460D01*
X002052201Y002446456D01*
X001808661Y002446456D01*
X001808661Y002248813D01*
X001808348Y002243862D01*
X001807416Y002238990D01*
X001805878Y002234274D01*
X001803760Y002229789D01*
X001801094Y002225606D01*
X001797923Y002221791D01*
X001794298Y002218405D01*
X001790276Y002215502D01*
X001785920Y002213127D01*
X001781301Y002211319D01*
X001776491Y002210107D01*
X001771567Y002209509D01*
X001766606Y002209534D01*
X001761689Y002210184D01*
X001756892Y002211446D01*
X001752291Y002213302D01*
X001747961Y002215722D01*
X001743969Y002218666D01*
X001740379Y002222090D01*
X001737248Y002225937D01*
X001710477Y002263437D01*
X001709783Y002264441D01*
X001709121Y002265467D01*
X001708491Y002266512D01*
X001707893Y002267576D01*
X001707329Y002268658D01*
X001706799Y002269757D01*
X001706303Y002270873D01*
X001705842Y002272003D01*
X001705416Y002273146D01*
X001705026Y002274303D01*
X001704671Y002275470D01*
X001704354Y002276649D01*
X001704072Y002277836D01*
X001703828Y002279032D01*
X001703621Y002280235D01*
X001703451Y002281443D01*
X001703319Y002282657D01*
X001703225Y002283873D01*
X001703168Y002285093D01*
X001703149Y002286313D01*
X001703149Y001657573D02*
X001703149Y001657573D01*
X001703149Y001816535D01*
X001372995Y001816535D01*
X001372478Y001816538D01*
X001371962Y001816548D01*
X001371445Y001816565D01*
X001370929Y001816589D01*
X001370413Y001816620D01*
X001369898Y001816657D01*
X001369383Y001816701D01*
X001368869Y001816752D01*
X001368355Y001816809D01*
X001367843Y001816874D01*
X001367331Y001816945D01*
X001366820Y001817022D01*
X001366310Y001817107D01*
X001365802Y001817198D01*
X001365294Y001817295D01*
X001364788Y001817400D01*
X001364284Y001817511D01*
X001363780Y001817628D01*
X001363279Y001817753D01*
X001362779Y001817884D01*
X001358383Y001819065D01*
X001353035Y001820923D01*
X001348008Y001823530D01*
X001343407Y001826832D01*
X001339327Y001830759D01*
X001335853Y001835230D01*
X001333057Y001840154D01*
X001330995Y001845428D01*
X001329712Y001850943D01*
X001329233Y001856586D01*
X001329568Y001862238D01*
X001330711Y001867785D01*
X001332638Y001873109D01*
X001335308Y001878103D01*
X001338668Y001882661D01*
X001342646Y001886691D01*
X001347162Y001890108D01*
X001352121Y001892841D01*
X001357421Y001894836D01*
X001362952Y001896049D01*
X001368600Y001896456D01*
X001703149Y001896456D01*
X001703149Y002036127D01*
X001703168Y002037347D01*
X001703225Y002038567D01*
X001703319Y002039783D01*
X001703451Y002040997D01*
X001703621Y002042205D01*
X001703828Y002043408D01*
X001704072Y002044604D01*
X001704354Y002045791D01*
X001704671Y002046970D01*
X001705026Y002048137D01*
X001705416Y002049294D01*
X001705842Y002050437D01*
X001706303Y002051567D01*
X001706799Y002052683D01*
X001707329Y002053782D01*
X001707893Y002054864D01*
X001708491Y002055928D01*
X001709121Y002056973D01*
X001709783Y002057999D01*
X001710477Y002059003D01*
X001737248Y002096503D01*
X001740379Y002100350D01*
X001743969Y002103774D01*
X001747961Y002106718D01*
X001752291Y002109138D01*
X001756892Y002110994D01*
X001761689Y002112256D01*
X001766606Y002112906D01*
X001771567Y002112931D01*
X001776491Y002112333D01*
X001781301Y002111121D01*
X001785920Y002109313D01*
X001790276Y002106938D01*
X001794298Y002104035D01*
X001797923Y002100649D01*
X001801094Y002096834D01*
X001803760Y002092651D01*
X001805878Y002088166D01*
X001807416Y002083450D01*
X001808348Y002078578D01*
X001808661Y002073627D01*
X001808661Y001896456D01*
X002056596Y001896456D01*
X002062244Y001896049D01*
X002067775Y001894836D01*
X002073075Y001892841D01*
X002078034Y001890108D01*
X002082549Y001886691D01*
X002086528Y001882661D01*
X002089887Y001878103D01*
X002092558Y001873109D01*
X002094485Y001867785D01*
X002095628Y001862238D01*
X002095963Y001856586D01*
X002095484Y001850943D01*
X002094201Y001845428D01*
X002092139Y001840154D01*
X002089343Y001835230D01*
X002085868Y001830759D01*
X002081789Y001826832D01*
X002077188Y001823530D01*
X002072161Y001820923D01*
X002066812Y001819065D01*
X002062417Y001817884D01*
X002061917Y001817753D01*
X002061415Y001817628D01*
X002060912Y001817511D01*
X002060408Y001817400D01*
X002059902Y001817295D01*
X002059394Y001817198D01*
X002058886Y001817107D01*
X002058376Y001817022D01*
X002057865Y001816945D01*
X002057353Y001816874D01*
X002056840Y001816809D01*
X002056327Y001816752D01*
X002055813Y001816701D01*
X002055298Y001816657D01*
X002054782Y001816620D01*
X002054267Y001816589D01*
X002053750Y001816565D01*
X002053234Y001816548D01*
X002052717Y001816538D01*
X002052201Y001816535D01*
X001808661Y001816535D01*
X001808661Y001620073D01*
X001808348Y001615122D01*
X001807416Y001610250D01*
X001805878Y001605534D01*
X001803760Y001601049D01*
X001801094Y001596865D01*
X001797923Y001593050D01*
X001794298Y001589665D01*
X001790276Y001586761D01*
X001785920Y001584387D01*
X001781301Y001582579D01*
X001776491Y001581367D01*
X001771567Y001580768D01*
X001766606Y001580794D01*
X001761689Y001581444D01*
X001756892Y001582706D01*
X001752291Y001584562D01*
X001747961Y001586981D01*
X001743969Y001589926D01*
X001740379Y001593350D01*
X001737248Y001597197D01*
X001710477Y001634697D01*
X001709783Y001635701D01*
X001709121Y001636726D01*
X001708491Y001637772D01*
X001707893Y001638836D01*
X001707329Y001639918D01*
X001706799Y001641017D01*
X001706303Y001642132D01*
X001705842Y001643262D01*
X001705416Y001644406D01*
X001705026Y001645562D01*
X001704671Y001646730D01*
X001704354Y001647909D01*
X001704072Y001649096D01*
X001703828Y001650292D01*
X001703621Y001651495D01*
X001703451Y001652703D01*
X001703319Y001653916D01*
X001703225Y001655133D01*
X001703168Y001656352D01*
X001703149Y001657573D01*
X002608661Y001011243D02*
X002608661Y001011243D01*
X002608661Y001186614D01*
X002278507Y001186614D01*
X002277990Y001186617D01*
X002277474Y001186627D01*
X002276957Y001186644D01*
X002276441Y001186668D01*
X002275925Y001186698D01*
X002275410Y001186736D01*
X002274895Y001186780D01*
X002274381Y001186830D01*
X002273867Y001186888D01*
X002273355Y001186952D01*
X002272843Y001187023D01*
X002272332Y001187101D01*
X002271822Y001187185D01*
X002271314Y001187276D01*
X002270806Y001187374D01*
X002270300Y001187479D01*
X002269795Y001187590D01*
X002269292Y001187707D01*
X002268791Y001187831D01*
X002268291Y001187962D01*
X002263895Y001189143D01*
X002258546Y001191002D01*
X002253520Y001193609D01*
X002248919Y001196910D01*
X002244839Y001200837D01*
X002241365Y001205309D01*
X002238568Y001210233D01*
X002236507Y001215507D01*
X002235224Y001221022D01*
X002234745Y001226665D01*
X002235080Y001232317D01*
X002236223Y001237863D01*
X002238150Y001243188D01*
X002240820Y001248181D01*
X002244180Y001252740D01*
X002248158Y001256769D01*
X002252674Y001260186D01*
X002257633Y001262920D01*
X002262932Y001264914D01*
X002268464Y001266128D01*
X002274112Y001266535D01*
X002608661Y001266535D01*
X002608661Y001373493D01*
X002608698Y001375214D01*
X002608811Y001376932D01*
X002608999Y001378643D01*
X002609262Y001380344D01*
X002609598Y001382033D01*
X002610008Y001383705D01*
X002610491Y001385357D01*
X002611045Y001386987D01*
X002611671Y001388591D01*
X002612365Y001390166D01*
X002613128Y001391709D01*
X002613958Y001393217D01*
X002614853Y001394688D01*
X002615811Y001396118D01*
X002616831Y001397505D01*
X002617910Y001398846D01*
X002619047Y001400138D01*
X002620240Y001401380D01*
X002621485Y001402568D01*
X002622782Y001403701D01*
X002649554Y001426078D01*
X002653132Y001428740D01*
X002656989Y001430980D01*
X002661075Y001432770D01*
X002665336Y001434086D01*
X002669720Y001434911D01*
X002674168Y001435235D01*
X002678625Y001435055D01*
X002683032Y001434371D01*
X002687334Y001433193D01*
X002691475Y001431536D01*
X002695402Y001429421D01*
X002699065Y001426876D01*
X002702416Y001423933D01*
X002705413Y001420629D01*
X002708017Y001417008D01*
X002710195Y001413116D01*
X002711918Y001409002D01*
X002713165Y001404720D01*
X002713920Y001400324D01*
X002714173Y001395870D01*
X002714173Y001266535D01*
X002922738Y001266535D01*
X002928386Y001266128D01*
X002933917Y001264914D01*
X002939217Y001262920D01*
X002944176Y001260186D01*
X002948691Y001256769D01*
X002952670Y001252740D01*
X002956029Y001248181D01*
X002958700Y001243188D01*
X002960626Y001237863D01*
X002961769Y001232317D01*
X002962105Y001226665D01*
X002961626Y001221022D01*
X002960342Y001215507D01*
X002958281Y001210233D01*
X002955484Y001205309D01*
X002952010Y001200837D01*
X002947931Y001196910D01*
X002943330Y001193609D01*
X002938303Y001191002D01*
X002932954Y001189143D01*
X002928559Y001187962D01*
X002928059Y001187831D01*
X002927557Y001187707D01*
X002927054Y001187590D01*
X002926549Y001187479D01*
X002926043Y001187374D01*
X002925536Y001187276D01*
X002925027Y001187185D01*
X002924517Y001187101D01*
X002924007Y001187023D01*
X002923495Y001186952D01*
X002922982Y001186888D01*
X002922469Y001186830D01*
X002921954Y001186780D01*
X002921440Y001186736D01*
X002920924Y001186698D01*
X002920408Y001186668D01*
X002919892Y001186644D01*
X002919376Y001186627D01*
X002918859Y001186617D01*
X002918342Y001186614D01*
X002714173Y001186614D01*
X002714173Y001025937D01*
X002714117Y001023834D01*
X002713948Y001021737D01*
X002713668Y001019652D01*
X002713277Y001017585D01*
X002712776Y001015542D01*
X002712166Y001013529D01*
X002711450Y001011551D01*
X002710629Y001009614D01*
X002709706Y001007723D01*
X002708683Y001005885D01*
X002707564Y001004104D01*
X002706351Y001002385D01*
X002705048Y001000733D01*
X002703658Y000999154D01*
X002702186Y000997651D01*
X002700636Y000996228D01*
X002699013Y000994891D01*
X002697320Y000993642D01*
X002695562Y000992485D01*
X002693746Y000991424D01*
X002666974Y000976730D01*
X002663302Y000974956D01*
X002659466Y000973570D01*
X002655507Y000972590D01*
X002651468Y000972023D01*
X002647392Y000971878D01*
X002643323Y000972156D01*
X002639305Y000972852D01*
X002635380Y000973961D01*
X002631591Y000975470D01*
X002627978Y000977363D01*
X002624581Y000979619D01*
X002621435Y000982214D01*
X002618575Y000985122D01*
X002616030Y000988309D01*
X002613830Y000991743D01*
X002611996Y000995386D01*
X002610548Y000999199D01*
X002609504Y001003141D01*
X002608872Y001007170D01*
X002608661Y001011243D01*
X001703149Y001028081D02*
X001703149Y001028081D01*
X001703149Y001186614D01*
X001372995Y001186614D01*
X001372478Y001186617D01*
X001371962Y001186627D01*
X001371445Y001186644D01*
X001370929Y001186668D01*
X001370413Y001186698D01*
X001369898Y001186736D01*
X001369383Y001186780D01*
X001368869Y001186830D01*
X001368355Y001186888D01*
X001367843Y001186952D01*
X001367331Y001187023D01*
X001366820Y001187101D01*
X001366310Y001187185D01*
X001365802Y001187276D01*
X001365294Y001187374D01*
X001364788Y001187479D01*
X001364284Y001187590D01*
X001363780Y001187707D01*
X001363279Y001187831D01*
X001362779Y001187962D01*
X001358383Y001189143D01*
X001353035Y001191002D01*
X001348008Y001193609D01*
X001343407Y001196910D01*
X001339327Y001200837D01*
X001335853Y001205309D01*
X001333057Y001210233D01*
X001330995Y001215507D01*
X001329712Y001221022D01*
X001329233Y001226665D01*
X001329568Y001232317D01*
X001330711Y001237863D01*
X001332638Y001243188D01*
X001335308Y001248181D01*
X001338668Y001252740D01*
X001342646Y001256769D01*
X001347162Y001260186D01*
X001352121Y001262920D01*
X001357421Y001264914D01*
X001362952Y001266128D01*
X001368600Y001266535D01*
X001703149Y001266535D01*
X001703149Y001407387D01*
X001703168Y001408607D01*
X001703225Y001409826D01*
X001703319Y001411043D01*
X001703451Y001412256D01*
X001703621Y001413465D01*
X001703828Y001414668D01*
X001704072Y001415863D01*
X001704354Y001417051D01*
X001704671Y001418229D01*
X001705026Y001419397D01*
X001705416Y001420554D01*
X001705842Y001421697D01*
X001706303Y001422827D01*
X001706799Y001423942D01*
X001707329Y001425042D01*
X001707893Y001426124D01*
X001708491Y001427188D01*
X001709121Y001428233D01*
X001709783Y001429258D01*
X001710477Y001430263D01*
X001737248Y001467762D01*
X001740379Y001471610D01*
X001743969Y001475033D01*
X001747961Y001477978D01*
X001752291Y001480398D01*
X001756892Y001482254D01*
X001761689Y001483516D01*
X001766606Y001484165D01*
X001771567Y001484191D01*
X001776491Y001483593D01*
X001781301Y001482380D01*
X001785920Y001480573D01*
X001790276Y001478198D01*
X001794298Y001475295D01*
X001797923Y001471909D01*
X001801094Y001468094D01*
X001803760Y001463911D01*
X001805878Y001459426D01*
X001807416Y001454710D01*
X001808348Y001449838D01*
X001808661Y001444887D01*
X001808661Y001266535D01*
X002056596Y001266535D01*
X002062244Y001266128D01*
X002067775Y001264914D01*
X002073075Y001262920D01*
X002078034Y001260186D01*
X002082549Y001256769D01*
X002086528Y001252740D01*
X002089887Y001248181D01*
X002092558Y001243188D01*
X002094485Y001237863D01*
X002095628Y001232317D01*
X002095963Y001226665D01*
X002095484Y001221022D01*
X002094201Y001215507D01*
X002092139Y001210233D01*
X002089343Y001205309D01*
X002085868Y001200837D01*
X002081789Y001196910D01*
X002077188Y001193609D01*
X002072161Y001191002D01*
X002066812Y001189143D01*
X002062417Y001187962D01*
X002061917Y001187831D01*
X002061415Y001187707D01*
X002060912Y001187590D01*
X002060408Y001187479D01*
X002059902Y001187374D01*
X002059394Y001187276D01*
X002058886Y001187185D01*
X002058376Y001187101D01*
X002057865Y001187023D01*
X002057353Y001186952D01*
X002056840Y001186888D01*
X002056327Y001186830D01*
X002055813Y001186780D01*
X002055298Y001186736D01*
X002054782Y001186698D01*
X002054267Y001186668D01*
X002053750Y001186644D01*
X002053234Y001186627D01*
X002052717Y001186617D01*
X002052201Y001186614D01*
X001808661Y001186614D01*
X001808661Y001005703D01*
X001808408Y001001250D01*
X001807654Y000996854D01*
X001806406Y000992572D01*
X001804683Y000988458D01*
X001802505Y000984566D01*
X001799901Y000980944D01*
X001796904Y000977641D01*
X001793553Y000974698D01*
X001789890Y000972152D01*
X001785963Y000970038D01*
X001781822Y000968381D01*
X001777520Y000967203D01*
X001773113Y000966519D01*
X001768656Y000966338D01*
X001764208Y000966663D01*
X001759825Y000967488D01*
X001755563Y000968804D01*
X001751477Y000970594D01*
X001747621Y000972834D01*
X001744042Y000975496D01*
X001717270Y000997873D01*
X001715974Y000999006D01*
X001714728Y001000194D01*
X001713536Y001001436D01*
X001712399Y001002728D01*
X001711319Y001004069D01*
X001710299Y001005456D01*
X001709341Y001006886D01*
X001708446Y001008357D01*
X001707617Y001009865D01*
X001706854Y001011408D01*
X001706159Y001012983D01*
X001705534Y001014587D01*
X001704979Y001016217D01*
X001704496Y001017869D01*
X001704086Y001019541D01*
X001703750Y001021229D01*
X001703487Y001022931D01*
X001703300Y001024642D01*
X001703187Y001026360D01*
X001703149Y001028081D01*
X000797637Y002280092D02*
X000797637Y002280092D01*
X000797637Y002446456D01*
X000467483Y002446456D01*
X000466967Y002446460D01*
X000466450Y002446470D01*
X000465934Y002446487D01*
X000465417Y002446510D01*
X000464902Y002446541D01*
X000464386Y002446578D01*
X000463871Y002446622D01*
X000463357Y002446673D01*
X000462844Y002446731D01*
X000462331Y002446795D01*
X000461819Y002446866D01*
X000461308Y002446943D01*
X000460799Y002447028D01*
X000460290Y002447119D01*
X000459782Y002447217D01*
X000459276Y002447321D01*
X000458772Y002447432D01*
X000458269Y002447550D01*
X000457767Y002447674D01*
X000457267Y002447805D01*
X000452872Y002448986D01*
X000447523Y002450845D01*
X000442496Y002453452D01*
X000437895Y002456753D01*
X000433816Y002460680D01*
X000430341Y002465152D01*
X000427545Y002470075D01*
X000425483Y002475349D01*
X000424200Y002480865D01*
X000423721Y002486507D01*
X000424056Y002492160D01*
X000425199Y002497706D01*
X000427126Y002503031D01*
X000429797Y002508024D01*
X000433156Y002512582D01*
X000437135Y002516612D01*
X000441650Y002520029D01*
X000446609Y002522763D01*
X000451909Y002524757D01*
X000457440Y002525970D01*
X000463088Y002526377D01*
X000797637Y002526377D01*
X000797637Y002672706D01*
X000797675Y002674427D01*
X000797788Y002676145D01*
X000797976Y002677856D01*
X000798238Y002679557D01*
X000798575Y002681245D01*
X000798985Y002682917D01*
X000799467Y002684570D01*
X000800022Y002686199D01*
X000800647Y002687803D01*
X000801342Y002689378D01*
X000802105Y002690921D01*
X000802934Y002692430D01*
X000803829Y002693900D01*
X000804787Y002695330D01*
X000805807Y002696717D01*
X000806887Y002698058D01*
X000808024Y002699351D01*
X000809216Y002700592D01*
X000810462Y002701781D01*
X000811758Y002702913D01*
X000838530Y002725290D01*
X000842109Y002727953D01*
X000845966Y002730193D01*
X000850051Y002731982D01*
X000854313Y002733298D01*
X000858696Y002734124D01*
X000863144Y002734448D01*
X000867601Y002734267D01*
X000872009Y002733583D01*
X000876310Y002732406D01*
X000880452Y002730749D01*
X000884379Y002728634D01*
X000888041Y002726089D01*
X000891393Y002723145D01*
X000894390Y002719842D01*
X000896994Y002716221D01*
X000899171Y002712328D01*
X000900895Y002708214D01*
X000902142Y002703932D01*
X000902896Y002699536D01*
X000903149Y002695083D01*
X000903149Y002526377D01*
X001190454Y002526377D01*
X001196102Y002525970D01*
X001201633Y002524757D01*
X001206933Y002522763D01*
X001211892Y002520029D01*
X001216408Y002516612D01*
X001220386Y002512582D01*
X001223746Y002508024D01*
X001226416Y002503031D01*
X001228343Y002497706D01*
X001229486Y002492160D01*
X001229821Y002486507D01*
X001229342Y002480865D01*
X001228059Y002475349D01*
X001225998Y002470075D01*
X001223201Y002465152D01*
X001219727Y002460680D01*
X001215647Y002456753D01*
X001211046Y002453452D01*
X001206019Y002450845D01*
X001200671Y002448986D01*
X001196275Y002447805D01*
X001195775Y002447674D01*
X001195274Y002447550D01*
X001194771Y002447432D01*
X001194266Y002447321D01*
X001193760Y002447217D01*
X001193252Y002447119D01*
X001192744Y002447028D01*
X001192234Y002446943D01*
X001191723Y002446866D01*
X001191211Y002446795D01*
X001190699Y002446731D01*
X001190185Y002446673D01*
X001189671Y002446622D01*
X001189156Y002446578D01*
X001188641Y002446541D01*
X001188125Y002446510D01*
X001187609Y002446487D01*
X001187092Y002446470D01*
X001186576Y002446460D01*
X001186059Y002446456D01*
X000903149Y002446456D01*
X000903149Y002269867D01*
X000902965Y002266063D01*
X000902414Y002262294D01*
X000901501Y002258596D01*
X000900236Y002255004D01*
X000898629Y002251551D01*
X000896696Y002248269D01*
X000894455Y002245189D01*
X000891927Y002242340D01*
X000889135Y002239749D01*
X000886106Y002237440D01*
X000882868Y002235434D01*
X000879452Y002233751D01*
X000875888Y002232406D01*
X000872212Y002231411D01*
X000868456Y002230776D01*
X000864657Y002230507D01*
X000860850Y002230606D01*
X000857070Y002231073D01*
X000853352Y002231903D01*
X000849733Y002233088D01*
X000822961Y002243312D01*
X000820770Y002244226D01*
X000818638Y002245269D01*
X000816573Y002246440D01*
X000814582Y002247732D01*
X000812673Y002249142D01*
X000810852Y002250665D01*
X000809126Y002252295D01*
X000807502Y002254025D01*
X000805985Y002255851D01*
X000804580Y002257764D01*
X000803294Y002259759D01*
X000802130Y002261828D01*
X000801093Y002263963D01*
X000800186Y002266156D01*
X000799413Y002268401D01*
X000798777Y002270687D01*
X000798280Y002273008D01*
X000797923Y002275355D01*
X000797709Y002277719D01*
X000797637Y002280092D01*
X000797637Y001651351D02*
X000797637Y001651351D01*
X000797637Y001816535D01*
X000506853Y001816535D01*
X000506337Y001816538D01*
X000505820Y001816548D01*
X000505304Y001816565D01*
X000504788Y001816589D01*
X000504272Y001816620D01*
X000503756Y001816657D01*
X000503241Y001816701D01*
X000502727Y001816752D01*
X000502214Y001816809D01*
X000501701Y001816874D01*
X000501189Y001816945D01*
X000500678Y001817022D01*
X000500169Y001817107D01*
X000499660Y001817198D01*
X000499153Y001817295D01*
X000498647Y001817400D01*
X000498142Y001817511D01*
X000497639Y001817628D01*
X000497137Y001817753D01*
X000496637Y001817884D01*
X000492242Y001819065D01*
X000486893Y001820923D01*
X000481866Y001823530D01*
X000477265Y001826832D01*
X000473186Y001830759D01*
X000469712Y001835230D01*
X000466915Y001840154D01*
X000464853Y001845428D01*
X000463570Y001850943D01*
X000463091Y001856586D01*
X000463427Y001862238D01*
X000464569Y001867785D01*
X000466496Y001873109D01*
X000469167Y001878103D01*
X000472526Y001882661D01*
X000476505Y001886691D01*
X000481020Y001890108D01*
X000485979Y001892841D01*
X000491279Y001894836D01*
X000496810Y001896049D01*
X000502458Y001896456D01*
X000797637Y001896456D01*
X000797637Y002042348D01*
X000797709Y002044721D01*
X000797923Y002047085D01*
X000798280Y002049432D01*
X000798777Y002051753D01*
X000799413Y002054039D01*
X000800186Y002056284D01*
X000801093Y002058477D01*
X000802130Y002060612D01*
X000803294Y002062681D01*
X000804580Y002064676D01*
X000805985Y002066589D01*
X000807502Y002068414D01*
X000809126Y002070145D01*
X000810852Y002071775D01*
X000812673Y002073298D01*
X000814582Y002074708D01*
X000816573Y002076000D01*
X000818638Y002077171D01*
X000820770Y002078214D01*
X000822961Y002079128D01*
X000849733Y002089352D01*
X000853352Y002090537D01*
X000857070Y002091367D01*
X000860850Y002091834D01*
X000864657Y002091933D01*
X000868456Y002091664D01*
X000872212Y002091029D01*
X000875888Y002090034D01*
X000879452Y002088689D01*
X000882868Y002087005D01*
X000886106Y002085000D01*
X000889135Y002082691D01*
X000891927Y002080099D01*
X000894455Y002077251D01*
X000896696Y002074171D01*
X000898629Y002070889D01*
X000900236Y002067436D01*
X000901501Y002063844D01*
X000902414Y002060146D01*
X000902965Y002056377D01*
X000903149Y002052573D01*
X000903149Y001896456D01*
X001151084Y001896456D01*
X001156732Y001896049D01*
X001162263Y001894836D01*
X001167563Y001892841D01*
X001172522Y001890108D01*
X001177038Y001886691D01*
X001181016Y001882661D01*
X001184376Y001878103D01*
X001187046Y001873109D01*
X001188973Y001867785D01*
X001190116Y001862238D01*
X001190451Y001856586D01*
X001189972Y001850943D01*
X001188689Y001845428D01*
X001186627Y001840154D01*
X001183831Y001835230D01*
X001180357Y001830759D01*
X001176277Y001826832D01*
X001171676Y001823530D01*
X001166649Y001820923D01*
X001161301Y001819065D01*
X001156905Y001817884D01*
X001156405Y001817753D01*
X001155904Y001817628D01*
X001155400Y001817511D01*
X001154896Y001817400D01*
X001154390Y001817295D01*
X001153882Y001817198D01*
X001153374Y001817107D01*
X001152864Y001817022D01*
X001152353Y001816945D01*
X001151841Y001816874D01*
X001151329Y001816809D01*
X001150815Y001816752D01*
X001150301Y001816701D01*
X001149786Y001816657D01*
X001149271Y001816620D01*
X001148755Y001816589D01*
X001148239Y001816565D01*
X001147722Y001816548D01*
X001147206Y001816538D01*
X001146689Y001816535D01*
X000903149Y001816535D01*
X000903149Y001641127D01*
X000902965Y001637323D01*
X000902414Y001633554D01*
X000901501Y001629856D01*
X000900236Y001626264D01*
X000898629Y001622811D01*
X000896696Y001619529D01*
X000894455Y001616449D01*
X000891927Y001613600D01*
X000889135Y001611009D01*
X000886106Y001608700D01*
X000882868Y001606694D01*
X000879452Y001605011D01*
X000875888Y001603665D01*
X000872212Y001602671D01*
X000868456Y001602036D01*
X000864657Y001601767D01*
X000860850Y001601866D01*
X000857070Y001602333D01*
X000853352Y001603163D01*
X000849733Y001604348D01*
X000822961Y001614572D01*
X000820770Y001615486D01*
X000818638Y001616529D01*
X000816573Y001617699D01*
X000814582Y001618992D01*
X000812673Y001620402D01*
X000810852Y001621925D01*
X000809126Y001623555D01*
X000807502Y001625285D01*
X000805985Y001627111D01*
X000804580Y001629024D01*
X000803294Y001631019D01*
X000802130Y001633088D01*
X000801093Y001635223D01*
X000800186Y001637416D01*
X000799413Y001639660D01*
X000798777Y001641947D01*
X000798280Y001644268D01*
X000797923Y001646615D01*
X000797709Y001648979D01*
X000797637Y001651351D01*
X001703149Y000400092D02*
X001703149Y000400092D01*
X001703149Y000556692D01*
X001372995Y000556692D01*
X001372478Y000556696D01*
X001371962Y000556706D01*
X001371445Y000556723D01*
X001370929Y000556747D01*
X001370413Y000556777D01*
X001369898Y000556814D01*
X001369383Y000556858D01*
X001368869Y000556909D01*
X001368355Y000556967D01*
X001367843Y000557031D01*
X001367331Y000557102D01*
X001366820Y000557180D01*
X001366310Y000557264D01*
X001365802Y000557355D01*
X001365294Y000557453D01*
X001364788Y000557557D01*
X001364284Y000557668D01*
X001363780Y000557786D01*
X001363279Y000557910D01*
X001362779Y000558041D01*
X001358383Y000559222D01*
X001353035Y000561081D01*
X001348008Y000563688D01*
X001343407Y000566989D01*
X001339327Y000570916D01*
X001335853Y000575388D01*
X001333057Y000580312D01*
X001330995Y000585586D01*
X001329712Y000591101D01*
X001329233Y000596743D01*
X001329568Y000602396D01*
X001330711Y000607942D01*
X001332638Y000613267D01*
X001335308Y000618260D01*
X001338668Y000622819D01*
X001342646Y000626848D01*
X001347162Y000630265D01*
X001352121Y000632999D01*
X001357421Y000634993D01*
X001362952Y000636206D01*
X001368600Y000636614D01*
X001703149Y000636614D01*
X001703149Y000782942D01*
X001703187Y000784663D01*
X001703300Y000786381D01*
X001703487Y000788092D01*
X001703750Y000789793D01*
X001704086Y000791482D01*
X001704496Y000793153D01*
X001704979Y000794806D01*
X001705534Y000796436D01*
X001706159Y000798039D01*
X001706854Y000799614D01*
X001707617Y000801158D01*
X001708446Y000802666D01*
X001709341Y000804137D01*
X001710299Y000805567D01*
X001711319Y000806954D01*
X001712399Y000808295D01*
X001713536Y000809587D01*
X001714728Y000810829D01*
X001715974Y000812017D01*
X001717270Y000813149D01*
X001744042Y000835527D01*
X001747621Y000838189D01*
X001751477Y000840429D01*
X001755563Y000842218D01*
X001759825Y000843534D01*
X001764208Y000844360D01*
X001768656Y000844684D01*
X001773113Y000844503D01*
X001777520Y000843820D01*
X001781822Y000842642D01*
X001785963Y000840985D01*
X001789890Y000838870D01*
X001793553Y000836325D01*
X001796904Y000833382D01*
X001799901Y000830078D01*
X001802505Y000826457D01*
X001804683Y000822565D01*
X001806406Y000818451D01*
X001807654Y000814168D01*
X001808408Y000809772D01*
X001808661Y000805319D01*
X001808661Y000636614D01*
X002056596Y000636614D01*
X002062244Y000636206D01*
X002067775Y000634993D01*
X002073075Y000632999D01*
X002078034Y000630265D01*
X002082549Y000626848D01*
X002086528Y000622819D01*
X002089887Y000618260D01*
X002092558Y000613267D01*
X002094485Y000607942D01*
X002095628Y000602396D01*
X002095963Y000596743D01*
X002095484Y000591101D01*
X002094201Y000585586D01*
X002092139Y000580312D01*
X002089343Y000575388D01*
X002085868Y000570916D01*
X002081789Y000566989D01*
X002077188Y000563688D01*
X002072161Y000561081D01*
X002066812Y000559222D01*
X002062417Y000558041D01*
X002061917Y000557910D01*
X002061415Y000557786D01*
X002060912Y000557668D01*
X002060408Y000557557D01*
X002059902Y000557453D01*
X002059394Y000557355D01*
X002058886Y000557264D01*
X002058376Y000557180D01*
X002057865Y000557102D01*
X002057353Y000557031D01*
X002056840Y000556967D01*
X002056327Y000556909D01*
X002055813Y000556858D01*
X002055298Y000556814D01*
X002054782Y000556777D01*
X002054267Y000556747D01*
X002053750Y000556723D01*
X002053234Y000556706D01*
X002052717Y000556696D01*
X002052201Y000556692D01*
X001808661Y000556692D01*
X001808661Y000362592D01*
X001808348Y000357642D01*
X001807416Y000352770D01*
X001805878Y000348054D01*
X001803760Y000343568D01*
X001801094Y000339385D01*
X001797923Y000335570D01*
X001794298Y000332184D01*
X001790276Y000329281D01*
X001785920Y000326907D01*
X001781301Y000325099D01*
X001776491Y000323886D01*
X001771567Y000323288D01*
X001766606Y000323314D01*
X001761689Y000323963D01*
X001756892Y000325226D01*
X001752291Y000327082D01*
X001747961Y000329501D01*
X001743969Y000332446D01*
X001740379Y000335869D01*
X001737248Y000339717D01*
X001710477Y000377217D01*
X001709783Y000378221D01*
X001709121Y000379246D01*
X001708491Y000380291D01*
X001707893Y000381356D01*
X001707329Y000382438D01*
X001706799Y000383537D01*
X001706303Y000384652D01*
X001705842Y000385782D01*
X001705416Y000386926D01*
X001705026Y000388082D01*
X001704671Y000389250D01*
X001704354Y000390428D01*
X001704072Y000391616D01*
X001703828Y000392812D01*
X001703621Y000394014D01*
X001703451Y000395223D01*
X001703319Y000396436D01*
X001703225Y000397653D01*
X001703168Y000398872D01*
X001703149Y000400092D01*
X000799999Y000155325D02*
X000903149Y000166352D01*
X000903149Y000006692D01*
X001703149Y000006692D01*
X001703149Y000149907D01*
X001703168Y000151127D01*
X001703225Y000152346D01*
X001703319Y000153563D01*
X001703451Y000154776D01*
X001703621Y000155985D01*
X001703828Y000157187D01*
X001704072Y000158383D01*
X001704354Y000159571D01*
X001704671Y000160749D01*
X001705026Y000161917D01*
X001705416Y000163073D01*
X001705842Y000164217D01*
X001706303Y000165347D01*
X001706799Y000166462D01*
X001707329Y000167561D01*
X001707893Y000168643D01*
X001708491Y000169708D01*
X001709121Y000170753D01*
X001709783Y000171778D01*
X001710477Y000172782D01*
X001737248Y000210282D01*
X001740379Y000214130D01*
X001743969Y000217553D01*
X001747961Y000220498D01*
X001752291Y000222917D01*
X001756892Y000224773D01*
X001761689Y000226036D01*
X001766606Y000226685D01*
X001771567Y000226711D01*
X001776491Y000226113D01*
X001781301Y000224900D01*
X001785920Y000223092D01*
X001790276Y000220718D01*
X001794298Y000217815D01*
X001797923Y000214429D01*
X001801094Y000210614D01*
X001803760Y000206431D01*
X001805878Y000201945D01*
X001807416Y000197229D01*
X001808348Y000192357D01*
X001808661Y000187407D01*
X001808661Y000006692D01*
X002608661Y000006692D01*
X002608661Y000169858D01*
X002608872Y000173931D01*
X002609504Y000177960D01*
X002610548Y000181903D01*
X002611996Y000185716D01*
X002613830Y000189359D01*
X002616030Y000192792D01*
X002618575Y000195980D01*
X002621435Y000198887D01*
X002624581Y000201483D01*
X002627978Y000203739D01*
X002631591Y000205632D01*
X002635380Y000207140D01*
X002639305Y000208249D01*
X002643323Y000208946D01*
X002647392Y000209223D01*
X002651468Y000209078D01*
X002655507Y000208512D01*
X002659466Y000207531D01*
X002663302Y000206146D01*
X002666974Y000204371D01*
X002693746Y000189677D01*
X002695562Y000188616D01*
X002697320Y000187459D01*
X002699013Y000186210D01*
X002700636Y000184873D01*
X002702186Y000183451D01*
X002703658Y000181947D01*
X002705048Y000180368D01*
X002706351Y000178716D01*
X002707564Y000176998D01*
X002708683Y000175216D01*
X002709706Y000173378D01*
X002710629Y000171488D01*
X002711450Y000169551D01*
X002712166Y000167573D01*
X002712776Y000165559D01*
X002713277Y000163516D01*
X002713668Y000161449D01*
X002713948Y000159364D01*
X002714117Y000157267D01*
X002714173Y000155164D01*
X002714173Y000006692D01*
X003514173Y000006692D01*
X003514173Y000556692D01*
X003184019Y000556692D01*
X003183502Y000556696D01*
X003182985Y000556706D01*
X003182469Y000556723D01*
X003181953Y000556747D01*
X003181437Y000556777D01*
X003180922Y000556814D01*
X003180407Y000556858D01*
X003179893Y000556909D01*
X003179379Y000556967D01*
X003178866Y000557031D01*
X003178355Y000557102D01*
X003177844Y000557180D01*
X003177334Y000557264D01*
X003176825Y000557355D01*
X003176318Y000557453D01*
X003175812Y000557557D01*
X003175307Y000557668D01*
X003174804Y000557786D01*
X003174302Y000557910D01*
X003173803Y000558041D01*
X003169407Y000559222D01*
X003164058Y000561081D01*
X003159031Y000563688D01*
X003154431Y000566989D01*
X003150351Y000570916D01*
X003146877Y000575388D01*
X003144080Y000580312D01*
X003142019Y000585586D01*
X003140735Y000591101D01*
X003140256Y000596743D01*
X003140592Y000602396D01*
X003141735Y000607942D01*
X003143661Y000613267D01*
X003146332Y000618260D01*
X003149691Y000622819D01*
X003153670Y000626848D01*
X003158185Y000630265D01*
X003163144Y000632999D01*
X003168444Y000634993D01*
X003173975Y000636206D01*
X003179623Y000636614D01*
X003514173Y000636614D01*
X003514173Y001186614D01*
X003144649Y001186614D01*
X003144132Y001186617D01*
X003143615Y001186627D01*
X003143099Y001186644D01*
X003142583Y001186668D01*
X003142067Y001186698D01*
X003141552Y001186736D01*
X003141037Y001186780D01*
X003140523Y001186830D01*
X003140009Y001186888D01*
X003139496Y001186952D01*
X003138984Y001187023D01*
X003138474Y001187101D01*
X003137964Y001187185D01*
X003137455Y001187276D01*
X003136948Y001187374D01*
X003136442Y001187479D01*
X003135937Y001187590D01*
X003135434Y001187707D01*
X003134932Y001187831D01*
X003134433Y001187962D01*
X003130037Y001189143D01*
X003124688Y001191002D01*
X003119661Y001193609D01*
X003115061Y001196910D01*
X003110981Y001200837D01*
X003107507Y001205309D01*
X003104710Y001210233D01*
X003102649Y001215507D01*
X003101365Y001221022D01*
X003100886Y001226665D01*
X003101222Y001232317D01*
X003102365Y001237863D01*
X003104291Y001243188D01*
X003106962Y001248181D01*
X003110321Y001252740D01*
X003114300Y001256769D01*
X003118815Y001260186D01*
X003123774Y001262920D01*
X003129074Y001264914D01*
X003134605Y001266128D01*
X003140253Y001266535D01*
X003514173Y001266535D01*
X003514173Y001816535D01*
X003184019Y001816535D01*
X003183502Y001816538D01*
X003182985Y001816548D01*
X003182469Y001816565D01*
X003181953Y001816589D01*
X003181437Y001816620D01*
X003180922Y001816657D01*
X003180407Y001816701D01*
X003179893Y001816752D01*
X003179379Y001816809D01*
X003178866Y001816874D01*
X003178355Y001816945D01*
X003177844Y001817022D01*
X003177334Y001817107D01*
X003176825Y001817198D01*
X003176318Y001817295D01*
X003175812Y001817400D01*
X003175307Y001817511D01*
X003174804Y001817628D01*
X003174302Y001817753D01*
X003173803Y001817884D01*
X003169407Y001819065D01*
X003164058Y001820923D01*
X003159031Y001823530D01*
X003154431Y001826832D01*
X003150351Y001830759D01*
X003146877Y001835230D01*
X003144080Y001840154D01*
X003142019Y001845428D01*
X003140735Y001850943D01*
X003140256Y001856586D01*
X003140592Y001862238D01*
X003141735Y001867785D01*
X003143661Y001873109D01*
X003146332Y001878103D01*
X003149691Y001882661D01*
X003153670Y001886691D01*
X003158185Y001890108D01*
X003163144Y001892841D01*
X003168444Y001894836D01*
X003173975Y001896049D01*
X003179623Y001896456D01*
X003514173Y001896456D01*
X003514173Y002446456D01*
X003231585Y002446456D01*
X003231031Y002446460D01*
X003230478Y002446472D01*
X003229925Y002446491D01*
X003229372Y002446518D01*
X003228819Y002446553D01*
X003228267Y002446596D01*
X003227716Y002446647D01*
X003227165Y002446705D01*
X003226615Y002446771D01*
X003226067Y002446845D01*
X003225519Y002446926D01*
X003224973Y002447015D01*
X003224427Y002447112D01*
X003223884Y002447217D01*
X003223342Y002447329D01*
X003222801Y002447449D01*
X003222262Y002447576D01*
X003221725Y002447711D01*
X003221190Y002447853D01*
X003220657Y002448003D01*
X003216569Y002449184D01*
X003211290Y002451128D01*
X003206342Y002453804D01*
X003201825Y002457158D01*
X003197833Y002461122D01*
X003194446Y002465615D01*
X003191735Y002470544D01*
X003189753Y002475809D01*
X003188543Y002481303D01*
X003188127Y002486913D01*
X003188516Y002492526D01*
X003189700Y002498025D01*
X003191657Y002503300D01*
X003194345Y002508242D01*
X003197710Y002512750D01*
X003201683Y002516733D01*
X003206183Y002520109D01*
X003211119Y002522809D01*
X003216389Y002524778D01*
X003221886Y002525975D01*
X003227497Y002526377D01*
X003514173Y002526377D01*
X003514173Y003076377D01*
X003223389Y003076377D01*
X003222872Y003076381D01*
X003222356Y003076391D01*
X003221839Y003076408D01*
X003221323Y003076432D01*
X003220807Y003076462D01*
X003220292Y003076499D01*
X003219777Y003076543D01*
X003219263Y003076594D01*
X003218749Y003076652D01*
X003218236Y003076716D01*
X003217725Y003076787D01*
X003217214Y003076865D01*
X003216704Y003076949D01*
X003216195Y003077040D01*
X003215688Y003077138D01*
X003215182Y003077242D01*
X003214677Y003077353D01*
X003214174Y003077471D01*
X003213673Y003077595D01*
X003213173Y003077726D01*
X003208777Y003078907D01*
X003203428Y003080766D01*
X003198402Y003083373D01*
X003193801Y003086674D01*
X003189721Y003090601D01*
X003186247Y003095073D01*
X003183450Y003099997D01*
X003181389Y003105271D01*
X003180105Y003110786D01*
X003179627Y003116428D01*
X003179962Y003122081D01*
X003181105Y003127627D01*
X003183032Y003132952D01*
X003185702Y003137945D01*
X003189062Y003142504D01*
X003193040Y003146533D01*
X003197556Y003149950D01*
X003202514Y003152684D01*
X003207814Y003154678D01*
X003213345Y003155891D01*
X003218993Y003156299D01*
X003514173Y003156299D01*
X003514173Y003706299D01*
X002714173Y003706299D01*
X002714173Y003604129D01*
X002713920Y003599675D01*
X002713165Y003595279D01*
X002711918Y003590997D01*
X002710195Y003586883D01*
X002708017Y003582991D01*
X002705413Y003579370D01*
X002702416Y003576066D01*
X002699065Y003573123D01*
X002695402Y003570578D01*
X002691475Y003568463D01*
X002687334Y003566806D01*
X002683032Y003565628D01*
X002678625Y003564944D01*
X002674168Y003564764D01*
X002669720Y003565088D01*
X002665336Y003565913D01*
X002661075Y003567229D01*
X002656989Y003569019D01*
X002653132Y003571259D01*
X002649554Y003573921D01*
X002622782Y003596298D01*
X002621485Y003597431D01*
X002620240Y003598619D01*
X002619047Y003599861D01*
X002617910Y003601153D01*
X002616831Y003602494D01*
X002615811Y003603881D01*
X002614853Y003605311D01*
X002613958Y003606782D01*
X002613128Y003608290D01*
X002612365Y003609833D01*
X002611671Y003611408D01*
X002611045Y003613012D01*
X002610491Y003614642D01*
X002610008Y003616294D01*
X002609598Y003617966D01*
X002609262Y003619655D01*
X002608999Y003621356D01*
X002608811Y003623067D01*
X002608698Y003624785D01*
X002608661Y003626506D01*
X002608661Y003706299D01*
X001808661Y003706299D01*
X001808661Y003604129D01*
X001808408Y003599675D01*
X001807654Y003595279D01*
X001806406Y003590997D01*
X001804683Y003586883D01*
X001802505Y003582991D01*
X001799901Y003579370D01*
X001796904Y003576066D01*
X001793553Y003573123D01*
X001789890Y003570578D01*
X001785963Y003568463D01*
X001781822Y003566806D01*
X001777520Y003565628D01*
X001773113Y003564944D01*
X001768656Y003564764D01*
X001764208Y003565088D01*
X001759825Y003565913D01*
X001755563Y003567229D01*
X001751477Y003569019D01*
X001747621Y003571259D01*
X001744042Y003573921D01*
X001717270Y003596298D01*
X001715974Y003597431D01*
X001714728Y003598619D01*
X001713536Y003599861D01*
X001712399Y003601153D01*
X001711319Y003602494D01*
X001710299Y003603881D01*
X001709341Y003605311D01*
X001708446Y003606782D01*
X001707617Y003608290D01*
X001706854Y003609833D01*
X001706159Y003611408D01*
X001705534Y003613012D01*
X001704979Y003614642D01*
X001704496Y003616294D01*
X001704086Y003617966D01*
X001703750Y003619655D01*
X001703487Y003621356D01*
X001703300Y003623067D01*
X001703187Y003624785D01*
X001703149Y003626506D01*
X001703149Y003706299D01*
X000903149Y003706299D01*
X000903149Y003663733D01*
X000903093Y003661630D01*
X000902924Y003659533D01*
X000902644Y003657448D01*
X000902253Y003655381D01*
X000901752Y003653338D01*
X000901143Y003651324D01*
X000900426Y003649346D01*
X000899606Y003647409D01*
X000898682Y003645519D01*
X000897660Y003643680D01*
X000896540Y003641899D01*
X000895327Y003640180D01*
X000894024Y003638529D01*
X000892635Y003636949D01*
X000891163Y003635446D01*
X000889613Y003634024D01*
X000887989Y003632686D01*
X000886296Y003631437D01*
X000884539Y003630281D01*
X000882722Y003629220D01*
X000855951Y003614525D01*
X000852278Y003612751D01*
X000848442Y003611366D01*
X000844484Y003610385D01*
X000840445Y003609819D01*
X000836369Y003609674D01*
X000832300Y003609951D01*
X000828281Y003610648D01*
X000824357Y003611756D01*
X000820567Y003613265D01*
X000816955Y003615158D01*
X000813557Y003617414D01*
X000810412Y003620010D01*
X000807551Y003622917D01*
X000805007Y003626104D01*
X000802806Y003629538D01*
X000800972Y003633181D01*
X000799525Y003636994D01*
X000798480Y003640936D01*
X000797848Y003644966D01*
X000797637Y003649038D01*
X000797637Y003706299D01*
X-000002362Y003706299D01*
X-000002362Y003156299D01*
X000284943Y003156299D01*
X000290591Y003155891D01*
X000296122Y003154678D01*
X000301422Y003152684D01*
X000306380Y003149950D01*
X000310896Y003146533D01*
X000314874Y003142504D01*
X000318234Y003137945D01*
X000320904Y003132952D01*
X000322831Y003127627D01*
X000323974Y003122081D01*
X000324309Y003116428D01*
X000323831Y003110786D01*
X000322547Y003105271D01*
X000320486Y003099997D01*
X000317689Y003095073D01*
X000314215Y003090601D01*
X000310135Y003086674D01*
X000305534Y003083373D01*
X000300508Y003080766D01*
X000295159Y003078907D01*
X000290763Y003077726D01*
X000290263Y003077595D01*
X000289762Y003077471D01*
X000289259Y003077353D01*
X000288754Y003077242D01*
X000288248Y003077138D01*
X000287741Y003077040D01*
X000287232Y003076949D01*
X000286722Y003076865D01*
X000286211Y003076787D01*
X000285700Y003076716D01*
X000285187Y003076652D01*
X000284673Y003076594D01*
X000284159Y003076543D01*
X000283644Y003076499D01*
X000283129Y003076462D01*
X000282613Y003076432D01*
X000282097Y003076408D01*
X000281580Y003076391D01*
X000281064Y003076381D01*
X000280547Y003076377D01*
X-000002362Y003076377D01*
X-000002362Y002526377D01*
X000245573Y002526377D01*
X000251220Y002525970D01*
X000256752Y002524757D01*
X000262051Y002522763D01*
X000267010Y002520029D01*
X000271526Y002516612D01*
X000275504Y002512582D01*
X000278864Y002508024D01*
X000281534Y002503031D01*
X000283461Y002497706D01*
X000284604Y002492160D01*
X000284939Y002486507D01*
X000284460Y002480865D01*
X000283177Y002475349D01*
X000281116Y002470075D01*
X000278319Y002465152D01*
X000274845Y002460680D01*
X000270765Y002456753D01*
X000266164Y002453452D01*
X000261138Y002450845D01*
X000255789Y002448986D01*
X000251393Y002447805D01*
X000250893Y002447674D01*
X000250392Y002447550D01*
X000249889Y002447432D01*
X000249384Y002447321D01*
X000248878Y002447217D01*
X000248371Y002447119D01*
X000247862Y002447028D01*
X000247352Y002446943D01*
X000246841Y002446866D01*
X000246329Y002446795D01*
X000245817Y002446731D01*
X000245303Y002446673D01*
X000244789Y002446622D01*
X000244274Y002446578D01*
X000243759Y002446541D01*
X000243243Y002446510D01*
X000242727Y002446487D01*
X000242210Y002446470D01*
X000241694Y002446460D01*
X000241177Y002446456D01*
X-000002362Y002446456D01*
X-000002362Y001896456D01*
X000284943Y001896456D01*
X000290591Y001896049D01*
X000296122Y001894836D01*
X000301422Y001892841D01*
X000306380Y001890108D01*
X000310896Y001886691D01*
X000314874Y001882661D01*
X000318234Y001878103D01*
X000320904Y001873109D01*
X000322831Y001867785D01*
X000323974Y001862238D01*
X000324309Y001856586D01*
X000323831Y001850943D01*
X000322547Y001845428D01*
X000320486Y001840154D01*
X000317689Y001835230D01*
X000314215Y001830759D01*
X000310135Y001826832D01*
X000305534Y001823530D01*
X000300508Y001820923D01*
X000295159Y001819065D01*
X000290763Y001817884D01*
X000290263Y001817753D01*
X000289762Y001817628D01*
X000289259Y001817511D01*
X000288754Y001817400D01*
X000288248Y001817295D01*
X000287741Y001817198D01*
X000287232Y001817107D01*
X000286722Y001817022D01*
X000286211Y001816945D01*
X000285700Y001816874D01*
X000285187Y001816809D01*
X000284673Y001816752D01*
X000284159Y001816701D01*
X000283644Y001816657D01*
X000283129Y001816620D01*
X000282613Y001816589D01*
X000282097Y001816565D01*
X000281580Y001816548D01*
X000281064Y001816538D01*
X000280547Y001816535D01*
X-000002362Y001816535D01*
X-000002362Y001266535D01*
X000324313Y001266535D01*
X000329961Y001266128D01*
X000335492Y001264914D01*
X000340792Y001262920D01*
X000345751Y001260186D01*
X000350266Y001256769D01*
X000354245Y001252740D01*
X000357604Y001248181D01*
X000360275Y001243188D01*
X000362201Y001237863D01*
X000363344Y001232317D01*
X000363680Y001226665D01*
X000363201Y001221022D01*
X000361917Y001215507D01*
X000359856Y001210233D01*
X000357059Y001205309D01*
X000353585Y001200837D01*
X000349505Y001196910D01*
X000344905Y001193609D01*
X000339878Y001191002D01*
X000334529Y001189143D01*
X000330133Y001187962D01*
X000329634Y001187831D01*
X000329132Y001187707D01*
X000328629Y001187590D01*
X000328124Y001187479D01*
X000327618Y001187374D01*
X000327111Y001187276D01*
X000326602Y001187185D01*
X000326092Y001187101D01*
X000325581Y001187023D01*
X000325070Y001186952D01*
X000324557Y001186888D01*
X000324043Y001186830D01*
X000323529Y001186780D01*
X000323014Y001186736D01*
X000322499Y001186698D01*
X000321983Y001186668D01*
X000321467Y001186644D01*
X000320951Y001186627D01*
X000320434Y001186617D01*
X000319917Y001186614D01*
X-000002362Y001186614D01*
X-000002362Y000636614D01*
X000284943Y000636614D01*
X000288560Y000636447D01*
X000292146Y000635949D01*
X000295672Y000635123D01*
X000299107Y000633978D01*
X000302422Y000632521D01*
X000305589Y000630766D01*
X000308581Y000628727D01*
X000311374Y000626422D01*
X000313943Y000623871D01*
X000316266Y000621094D01*
X000318325Y000618115D01*
X000320101Y000614960D01*
X000321580Y000611655D01*
X000322749Y000608228D01*
X000323599Y000604708D01*
X000324121Y000601125D01*
X000324312Y000597509D01*
X000324170Y000593891D01*
X000323696Y000590301D01*
X000322894Y000586770D01*
X000320721Y000578896D01*
X000319959Y000576450D01*
X000319041Y000574059D01*
X000317968Y000571733D01*
X000316747Y000569481D01*
X000315381Y000567314D01*
X000313878Y000565239D01*
X000312243Y000563268D01*
X000310483Y000561406D01*
X000308606Y000559663D01*
X000306620Y000558046D01*
X000304532Y000556561D01*
X000302353Y000555215D01*
X000300090Y000554014D01*
X000297754Y000552963D01*
X000295355Y000552065D01*
X000292902Y000551326D01*
X000290407Y000550747D01*
X000287879Y000550332D01*
X000285330Y000550083D01*
X000282770Y000549999D01*
X000000000Y000549999D01*
X000000000Y000000000D01*
X000799999Y000000000D01*
X000799999Y000155325D01*
X000799999Y000492697D02*
X000799999Y000394674D01*
X000799999Y000492697D01*
X000979294Y000556692D02*
X000979294Y000556692D01*
X000978778Y000556696D01*
X000978261Y000556706D01*
X000977745Y000556723D01*
X000977228Y000556747D01*
X000976713Y000556777D01*
X000976197Y000556814D01*
X000975682Y000556858D01*
X000975168Y000556909D01*
X000974655Y000556967D01*
X000974142Y000557031D01*
X000973630Y000557102D01*
X000973119Y000557180D01*
X000972610Y000557264D01*
X000972101Y000557355D01*
X000971594Y000557453D01*
X000971087Y000557557D01*
X000970583Y000557668D01*
X000970080Y000557786D01*
X000969578Y000557910D01*
X000969078Y000558041D01*
X000964683Y000559222D01*
X000959334Y000561081D01*
X000954307Y000563688D01*
X000949706Y000566989D01*
X000945627Y000570916D01*
X000942152Y000575388D01*
X000939356Y000580312D01*
X000937294Y000585586D01*
X000936011Y000591101D01*
X000935532Y000596743D01*
X000935867Y000602396D01*
X000937010Y000607942D01*
X000938937Y000613267D01*
X000941608Y000618260D01*
X000944967Y000622819D01*
X000948946Y000626848D01*
X000953461Y000630265D01*
X000958420Y000632999D01*
X000963720Y000634993D01*
X000969251Y000636206D01*
X000974899Y000636614D01*
X001151084Y000636614D01*
X001156732Y000636206D01*
X001162263Y000634993D01*
X001167563Y000632999D01*
X001172522Y000630265D01*
X001177038Y000626848D01*
X001181016Y000622819D01*
X001184376Y000618260D01*
X001187046Y000613267D01*
X001188973Y000607942D01*
X001190116Y000602396D01*
X001190451Y000596743D01*
X001189972Y000591101D01*
X001188689Y000585586D01*
X001186627Y000580312D01*
X001183831Y000575388D01*
X001180357Y000570916D01*
X001176277Y000566989D01*
X001171676Y000563688D01*
X001166649Y000561081D01*
X001161301Y000559222D01*
X001156905Y000558041D01*
X001156405Y000557910D01*
X001155904Y000557786D01*
X001155400Y000557668D01*
X001154896Y000557557D01*
X001154390Y000557453D01*
X001153882Y000557355D01*
X001153374Y000557264D01*
X001152864Y000557180D01*
X001152353Y000557102D01*
X001151841Y000557031D01*
X001151329Y000556967D01*
X001150815Y000556909D01*
X001150301Y000556858D01*
X001149786Y000556814D01*
X001149271Y000556777D01*
X001148755Y000556747D01*
X001148239Y000556723D01*
X001147722Y000556706D01*
X001147206Y000556696D01*
X001146689Y000556692D01*
X000979294Y000556692D01*
X000757384Y000636614D02*
X000757384Y000636614D01*
X000761001Y000636447D01*
X000764587Y000635949D01*
X000768113Y000635123D01*
X000771547Y000633978D01*
X000774862Y000632521D01*
X000778030Y000630766D01*
X000781022Y000628727D01*
X000783815Y000626422D01*
X000786384Y000623871D01*
X000788707Y000621094D01*
X000790766Y000618115D01*
X000792542Y000614960D01*
X000794021Y000611655D01*
X000795190Y000608228D01*
X000796040Y000604708D01*
X000796562Y000601125D01*
X000796753Y000597509D01*
X000796611Y000593891D01*
X000796137Y000590301D01*
X000795335Y000586770D01*
X000793162Y000578896D01*
X000792400Y000576450D01*
X000791482Y000574059D01*
X000790409Y000571733D01*
X000789188Y000569481D01*
X000787822Y000567314D01*
X000786319Y000565239D01*
X000784684Y000563268D01*
X000782924Y000561406D01*
X000781047Y000559663D01*
X000779061Y000558046D01*
X000776973Y000556561D01*
X000774793Y000555215D01*
X000772531Y000554014D01*
X000770195Y000552963D01*
X000767796Y000552065D01*
X000765343Y000551326D01*
X000762848Y000550747D01*
X000760320Y000550332D01*
X000757771Y000550083D01*
X000755210Y000549999D01*
X000504631Y000549999D01*
X000502071Y000550083D01*
X000499521Y000550332D01*
X000496994Y000550747D01*
X000494498Y000551326D01*
X000492046Y000552065D01*
X000489646Y000552963D01*
X000487311Y000554014D01*
X000485048Y000555215D01*
X000482868Y000556561D01*
X000480781Y000558046D01*
X000478794Y000559663D01*
X000476917Y000561406D01*
X000475158Y000563268D01*
X000473522Y000565239D01*
X000472019Y000567314D01*
X000470654Y000569481D01*
X000469432Y000571733D01*
X000468360Y000574059D01*
X000467441Y000576450D01*
X000466680Y000578896D01*
X000464507Y000586770D01*
X000463705Y000590301D01*
X000463231Y000593891D01*
X000463089Y000597509D01*
X000463280Y000601125D01*
X000463802Y000604708D01*
X000464651Y000608228D01*
X000465820Y000611655D01*
X000467299Y000614960D01*
X000469076Y000618115D01*
X000471134Y000621094D01*
X000473458Y000623871D01*
X000476027Y000626422D01*
X000478819Y000628727D01*
X000481812Y000630766D01*
X000484979Y000632521D01*
X000488294Y000633978D01*
X000491729Y000635123D01*
X000495254Y000635949D01*
X000498841Y000636447D01*
X000502458Y000636614D01*
X000757384Y000636614D01*
X002750948Y000556692D02*
X002750948Y000556692D01*
X002750431Y000556696D01*
X002749915Y000556706D01*
X002749398Y000556723D01*
X002748882Y000556747D01*
X002748366Y000556777D01*
X002747851Y000556814D01*
X002747336Y000556858D01*
X002746822Y000556909D01*
X002746308Y000556967D01*
X002745796Y000557031D01*
X002745284Y000557102D01*
X002744773Y000557180D01*
X002744263Y000557264D01*
X002743754Y000557355D01*
X002743247Y000557453D01*
X002742741Y000557557D01*
X002742236Y000557668D01*
X002741733Y000557786D01*
X002741232Y000557910D01*
X002740732Y000558041D01*
X002736336Y000559222D01*
X002730987Y000561081D01*
X002725961Y000563688D01*
X002721360Y000566989D01*
X002717280Y000570916D01*
X002713806Y000575388D01*
X002711009Y000580312D01*
X002708948Y000585586D01*
X002707665Y000591101D01*
X002707186Y000596743D01*
X002707521Y000602396D01*
X002708664Y000607942D01*
X002710591Y000613267D01*
X002713261Y000618260D01*
X002716621Y000622819D01*
X002720599Y000626848D01*
X002725115Y000630265D01*
X002730074Y000632999D01*
X002735373Y000634993D01*
X002740905Y000636206D01*
X002746552Y000636614D01*
X002962108Y000636614D01*
X002967756Y000636206D01*
X002973287Y000634993D01*
X002978587Y000632999D01*
X002983546Y000630265D01*
X002988061Y000626848D01*
X002992040Y000622819D01*
X002995399Y000618260D01*
X002998070Y000613267D01*
X002999997Y000607942D01*
X003001139Y000602396D01*
X003001475Y000596743D01*
X003000996Y000591101D01*
X002999712Y000585586D01*
X002997651Y000580312D01*
X002994854Y000575388D01*
X002991380Y000570916D01*
X002987301Y000566989D01*
X002982700Y000563688D01*
X002977673Y000561081D01*
X002972324Y000559222D01*
X002967929Y000558041D01*
X002967429Y000557910D01*
X002966927Y000557786D01*
X002966424Y000557668D01*
X002965919Y000557557D01*
X002965413Y000557453D01*
X002964906Y000557355D01*
X002964397Y000557264D01*
X002963888Y000557180D01*
X002963377Y000557102D01*
X002962865Y000557031D01*
X002962352Y000556967D01*
X002961839Y000556909D01*
X002961324Y000556858D01*
X002960810Y000556814D01*
X002960294Y000556777D01*
X002959778Y000556747D01*
X002959262Y000556723D01*
X002958746Y000556706D01*
X002958229Y000556696D01*
X002957712Y000556692D01*
X002750948Y000556692D01*
X002608661Y000476090D02*
X002608661Y000476090D01*
X002608695Y000477728D01*
X002608797Y000479363D01*
X002608967Y000480993D01*
X002609205Y000482614D01*
X002609510Y000484223D01*
X002609882Y000485819D01*
X002610320Y000487398D01*
X002610823Y000488957D01*
X002611390Y000490494D01*
X002612021Y000492006D01*
X002612715Y000493490D01*
X002613469Y000494944D01*
X002614284Y000496366D01*
X002615156Y000497753D01*
X002616086Y000499102D01*
X002617071Y000500411D01*
X002618110Y000501678D01*
X002619200Y000502900D01*
X002620341Y000504077D01*
X002621529Y000505204D01*
X002648301Y000529574D01*
X002651831Y000532433D01*
X002655668Y000534867D01*
X002659759Y000536842D01*
X002664051Y000538333D01*
X002668486Y000539319D01*
X002673005Y000539788D01*
X002677548Y000539734D01*
X002682054Y000539156D01*
X002686464Y000538063D01*
X002690718Y000536469D01*
X002694761Y000534396D01*
X002698538Y000531870D01*
X002701998Y000528927D01*
X002705097Y000525604D01*
X002707792Y000521947D01*
X002710048Y000518003D01*
X002711834Y000513826D01*
X002713128Y000509470D01*
X002713911Y000504995D01*
X002714173Y000500459D01*
X002714173Y000396016D01*
X002714117Y000393913D01*
X002713948Y000391816D01*
X002713668Y000389731D01*
X002713277Y000387664D01*
X002712776Y000385621D01*
X002712166Y000383608D01*
X002711450Y000381629D01*
X002710629Y000379692D01*
X002709706Y000377802D01*
X002708683Y000375964D01*
X002707564Y000374183D01*
X002706351Y000372464D01*
X002705048Y000370812D01*
X002703658Y000369233D01*
X002702186Y000367730D01*
X002700636Y000366307D01*
X002699013Y000364970D01*
X002697320Y000363721D01*
X002695562Y000362564D01*
X002693746Y000361503D01*
X002666974Y000346809D01*
X002663302Y000345034D01*
X002659466Y000343649D01*
X002655507Y000342668D01*
X002651468Y000342102D01*
X002647392Y000341957D01*
X002643323Y000342234D01*
X002639305Y000342931D01*
X002635380Y000344040D01*
X002631591Y000345549D01*
X002627978Y000347441D01*
X002624581Y000349698D01*
X002621435Y000352293D01*
X002618575Y000355200D01*
X002616030Y000358388D01*
X002613830Y000361822D01*
X002611996Y000365464D01*
X002610548Y000369277D01*
X002609504Y000373220D01*
X002608872Y000377249D01*
X002608661Y000381322D01*
X002608661Y000476090D01*
X002529037Y000636614D02*
X002529037Y000636614D01*
X002534685Y000636206D01*
X002540216Y000634993D01*
X002545516Y000632999D01*
X002550475Y000630265D01*
X002554990Y000626848D01*
X002558969Y000622819D01*
X002562328Y000618260D01*
X002564999Y000613267D01*
X002566926Y000607942D01*
X002568069Y000602396D01*
X002568404Y000596743D01*
X002567925Y000591101D01*
X002566642Y000585586D01*
X002564580Y000580312D01*
X002561784Y000575388D01*
X002558309Y000570916D01*
X002554230Y000566989D01*
X002549629Y000563688D01*
X002544602Y000561081D01*
X002539253Y000559222D01*
X002534858Y000558041D01*
X002534358Y000557910D01*
X002533856Y000557786D01*
X002533353Y000557668D01*
X002532849Y000557557D01*
X002532342Y000557453D01*
X002531835Y000557355D01*
X002531326Y000557264D01*
X002530817Y000557180D01*
X002530306Y000557102D01*
X002529794Y000557031D01*
X002529281Y000556967D01*
X002528768Y000556909D01*
X002528254Y000556858D01*
X002527739Y000556814D01*
X002527223Y000556777D01*
X002526708Y000556747D01*
X002526191Y000556723D01*
X002525675Y000556706D01*
X002525158Y000556696D01*
X002524642Y000556692D01*
X002278507Y000556692D01*
X002277990Y000556696D01*
X002277474Y000556706D01*
X002276957Y000556723D01*
X002276441Y000556747D01*
X002275925Y000556777D01*
X002275410Y000556814D01*
X002274895Y000556858D01*
X002274381Y000556909D01*
X002273867Y000556967D01*
X002273355Y000557031D01*
X002272843Y000557102D01*
X002272332Y000557180D01*
X002271822Y000557264D01*
X002271314Y000557355D01*
X002270806Y000557453D01*
X002270300Y000557557D01*
X002269795Y000557668D01*
X002269292Y000557786D01*
X002268791Y000557910D01*
X002268291Y000558041D01*
X002263895Y000559222D01*
X002258546Y000561081D01*
X002253520Y000563688D01*
X002248919Y000566989D01*
X002244839Y000570916D01*
X002241365Y000575388D01*
X002238568Y000580312D01*
X002236507Y000585586D01*
X002235224Y000591101D01*
X002234745Y000596743D01*
X002235080Y000602396D01*
X002236223Y000607942D01*
X002238150Y000613267D01*
X002240820Y000618260D01*
X002244180Y000622819D01*
X002248158Y000626848D01*
X002252674Y000630265D01*
X002257633Y000632999D01*
X002262932Y000634993D01*
X002268464Y000636206D01*
X002274112Y000636614D01*
X002529037Y000636614D01*
X002714173Y000680642D02*
X002714173Y000680642D01*
X002713911Y000676106D01*
X002713128Y000671631D01*
X002711834Y000667276D01*
X002710048Y000663098D01*
X002707792Y000659155D01*
X002705097Y000655497D01*
X002701998Y000652175D01*
X002698538Y000649231D01*
X002694761Y000646706D01*
X002690718Y000644632D01*
X002686464Y000643038D01*
X002682054Y000641945D01*
X002677548Y000641368D01*
X002673005Y000641313D01*
X002668486Y000641782D01*
X002664051Y000642768D01*
X002659759Y000644259D01*
X002655668Y000646235D01*
X002651831Y000648668D01*
X002648301Y000651527D01*
X002621529Y000675897D01*
X002620341Y000677025D01*
X002619200Y000678201D01*
X002618110Y000679424D01*
X002617071Y000680691D01*
X002616086Y000682000D01*
X002615156Y000683349D01*
X002614284Y000684735D01*
X002613469Y000686157D01*
X002612715Y000687611D01*
X002612021Y000689096D01*
X002611390Y000690608D01*
X002610823Y000692144D01*
X002610320Y000693704D01*
X002609882Y000695282D01*
X002609510Y000696878D01*
X002609205Y000698488D01*
X002608967Y000700109D01*
X002608797Y000701738D01*
X002608695Y000703373D01*
X002608661Y000705011D01*
X002608661Y000799779D01*
X002608872Y000803852D01*
X002609504Y000807882D01*
X002610548Y000811824D01*
X002611996Y000815637D01*
X002613830Y000819280D01*
X002616030Y000822713D01*
X002618575Y000825901D01*
X002621435Y000828808D01*
X002624581Y000831404D01*
X002627978Y000833660D01*
X002631591Y000835553D01*
X002635380Y000837062D01*
X002639305Y000838170D01*
X002643323Y000838867D01*
X002647392Y000839144D01*
X002651468Y000838999D01*
X002655507Y000838433D01*
X002659466Y000837452D01*
X002663302Y000836067D01*
X002666974Y000834293D01*
X002693746Y000819598D01*
X002695562Y000818537D01*
X002697320Y000817381D01*
X002699013Y000816132D01*
X002700636Y000814794D01*
X002702186Y000813372D01*
X002703658Y000811869D01*
X002705048Y000810289D01*
X002706351Y000808638D01*
X002707564Y000806919D01*
X002708683Y000805138D01*
X002709706Y000803299D01*
X002710629Y000801409D01*
X002711450Y000799472D01*
X002712166Y000797494D01*
X002712776Y000795480D01*
X002713277Y000793437D01*
X002713668Y000791370D01*
X002713948Y000789285D01*
X002714117Y000787188D01*
X002714173Y000785085D01*
X002714173Y000680642D01*
X000797637Y003004504D02*
X000797637Y003004504D01*
X000797848Y003008577D01*
X000798480Y003012606D01*
X000799525Y003016548D01*
X000800972Y003020361D01*
X000802806Y003024004D01*
X000805007Y003027438D01*
X000807551Y003030625D01*
X000810412Y003033533D01*
X000813557Y003036128D01*
X000816955Y003038384D01*
X000820567Y003040277D01*
X000824357Y003041786D01*
X000828281Y003042895D01*
X000832300Y003043591D01*
X000836369Y003043869D01*
X000840445Y003043724D01*
X000844484Y003043158D01*
X000848442Y003042177D01*
X000852278Y003040792D01*
X000855951Y003039017D01*
X000882722Y003024323D01*
X000884539Y003023262D01*
X000886296Y003022105D01*
X000887989Y003020856D01*
X000889613Y003019519D01*
X000891163Y003018096D01*
X000892635Y003016593D01*
X000894024Y003015014D01*
X000895327Y003013362D01*
X000896540Y003011643D01*
X000897660Y003009862D01*
X000898682Y003008024D01*
X000899606Y003006133D01*
X000900426Y003004196D01*
X000901143Y003002218D01*
X000901752Y003000205D01*
X000902253Y002998162D01*
X000902644Y002996095D01*
X000902924Y002994010D01*
X000903093Y002991913D01*
X000903149Y002989810D01*
X000903149Y002895467D01*
X000902896Y002891014D01*
X000902142Y002886618D01*
X000900895Y002882336D01*
X000899171Y002878222D01*
X000896994Y002874329D01*
X000894390Y002870708D01*
X000891393Y002867405D01*
X000888041Y002864462D01*
X000884379Y002861916D01*
X000880452Y002859802D01*
X000876310Y002858145D01*
X000872009Y002856967D01*
X000867601Y002856283D01*
X000863144Y002856102D01*
X000858696Y002856427D01*
X000854313Y002857252D01*
X000850051Y002858568D01*
X000845966Y002860357D01*
X000842109Y002862598D01*
X000838530Y002865260D01*
X000811758Y002887637D01*
X000810462Y002888770D01*
X000809216Y002889958D01*
X000808024Y002891199D01*
X000806887Y002892492D01*
X000805807Y002893833D01*
X000804787Y002895220D01*
X000803829Y002896650D01*
X000802934Y002898120D01*
X000802105Y002899629D01*
X000801342Y002901172D01*
X000800647Y002902747D01*
X000800022Y002904351D01*
X000799467Y002905981D01*
X000798985Y002907633D01*
X000798575Y002909305D01*
X000798238Y002910993D01*
X000797976Y002912694D01*
X000797788Y002914406D01*
X000797675Y002916123D01*
X000797637Y002917844D01*
X000797637Y003004504D01*
X000748880Y003156299D02*
X000748880Y003156299D01*
X000754491Y003155897D01*
X000759988Y003154699D01*
X000765258Y003152730D01*
X000770194Y003150030D01*
X000774694Y003146654D01*
X000778667Y003142672D01*
X000782032Y003138163D01*
X000784720Y003133221D01*
X000786677Y003127947D01*
X000787861Y003122447D01*
X000788250Y003116835D01*
X000787834Y003111224D01*
X000786624Y003105730D01*
X000784642Y003100465D01*
X000781931Y003095536D01*
X000778544Y003091043D01*
X000774552Y003087080D01*
X000770035Y003083725D01*
X000765087Y003081049D01*
X000759808Y003079105D01*
X000755720Y003077924D01*
X000755187Y003077774D01*
X000754652Y003077632D01*
X000754115Y003077497D01*
X000753576Y003077370D01*
X000753035Y003077250D01*
X000752493Y003077138D01*
X000751949Y003077034D01*
X000751404Y003076937D01*
X000750858Y003076848D01*
X000750310Y003076766D01*
X000749762Y003076692D01*
X000749212Y003076626D01*
X000748661Y003076568D01*
X000748110Y003076517D01*
X000747558Y003076475D01*
X000747005Y003076440D01*
X000746452Y003076412D01*
X000745899Y003076393D01*
X000745346Y003076381D01*
X000744792Y003076377D01*
X000506853Y003076377D01*
X000506337Y003076381D01*
X000505820Y003076391D01*
X000505304Y003076408D01*
X000504788Y003076432D01*
X000504272Y003076462D01*
X000503756Y003076499D01*
X000503241Y003076543D01*
X000502727Y003076594D01*
X000502214Y003076652D01*
X000501701Y003076716D01*
X000501189Y003076787D01*
X000500678Y003076865D01*
X000500169Y003076949D01*
X000499660Y003077040D01*
X000499153Y003077138D01*
X000498647Y003077242D01*
X000498142Y003077353D01*
X000497639Y003077471D01*
X000497137Y003077595D01*
X000496637Y003077726D01*
X000492242Y003078907D01*
X000486893Y003080766D01*
X000481866Y003083373D01*
X000477265Y003086674D01*
X000473186Y003090601D01*
X000469712Y003095073D01*
X000466915Y003099997D01*
X000464853Y003105271D01*
X000463570Y003110786D01*
X000463091Y003116428D01*
X000463427Y003122081D01*
X000464569Y003127627D01*
X000466496Y003132952D01*
X000469167Y003137945D01*
X000472526Y003142504D01*
X000476505Y003146533D01*
X000481020Y003149950D01*
X000485979Y003152684D01*
X000491279Y003154678D01*
X000496810Y003155891D01*
X000502458Y003156299D01*
X000748880Y003156299D01*
X000903149Y003230662D02*
X000903149Y003230662D01*
X000903093Y003228559D01*
X000902924Y003226462D01*
X000902644Y003224377D01*
X000902253Y003222310D01*
X000901752Y003220267D01*
X000901143Y003218253D01*
X000900426Y003216275D01*
X000899606Y003214338D01*
X000898682Y003212448D01*
X000897660Y003210609D01*
X000896540Y003208828D01*
X000895327Y003207109D01*
X000894024Y003205458D01*
X000892635Y003203878D01*
X000891163Y003202375D01*
X000889613Y003200953D01*
X000887989Y003199615D01*
X000886296Y003198366D01*
X000884539Y003197210D01*
X000882722Y003196149D01*
X000855951Y003181454D01*
X000852278Y003179680D01*
X000848442Y003178295D01*
X000844484Y003177314D01*
X000840445Y003176748D01*
X000836369Y003176603D01*
X000832300Y003176880D01*
X000828281Y003177577D01*
X000824357Y003178685D01*
X000820567Y003180194D01*
X000816955Y003182087D01*
X000813557Y003184343D01*
X000810412Y003186939D01*
X000807551Y003189846D01*
X000805007Y003193034D01*
X000802806Y003196467D01*
X000800972Y003200110D01*
X000799525Y003203923D01*
X000798480Y003207865D01*
X000797848Y003211895D01*
X000797637Y003215968D01*
X000797637Y003437575D01*
X000797848Y003441648D01*
X000798480Y003445677D01*
X000799525Y003449619D01*
X000800972Y003453432D01*
X000802806Y003457075D01*
X000805007Y003460509D01*
X000807551Y003463696D01*
X000810412Y003466603D01*
X000813557Y003469199D01*
X000816955Y003471455D01*
X000820567Y003473348D01*
X000824357Y003474857D01*
X000828281Y003475966D01*
X000832300Y003476662D01*
X000836369Y003476940D01*
X000840445Y003476794D01*
X000844484Y003476228D01*
X000848442Y003475248D01*
X000852278Y003473862D01*
X000855951Y003472088D01*
X000882722Y003457394D01*
X000884539Y003456332D01*
X000886296Y003455176D01*
X000887989Y003453927D01*
X000889613Y003452589D01*
X000891163Y003451167D01*
X000892635Y003449664D01*
X000894024Y003448084D01*
X000895327Y003446433D01*
X000896540Y003444714D01*
X000897660Y003442933D01*
X000898682Y003441095D01*
X000899606Y003439204D01*
X000900426Y003437267D01*
X000901143Y003435289D01*
X000901752Y003433276D01*
X000902253Y003431232D01*
X000902644Y003429165D01*
X000902924Y003427080D01*
X000903093Y003424983D01*
X000903149Y003422880D01*
X000903149Y003230662D01*
X001808661Y000187407D02*
X001703149Y000149907D01*
X001703168Y000151127D01*
X001703225Y000152346D01*
X001703319Y000153563D01*
X001703451Y000154776D01*
X001703621Y000155985D01*
X001703828Y000157187D01*
X001704072Y000158383D01*
X001704354Y000159571D01*
X001704671Y000160749D01*
X001705026Y000161917D01*
X001705416Y000163073D01*
X001705842Y000164217D01*
X001706303Y000165347D01*
X001706799Y000166462D01*
X001707329Y000167561D01*
X001707893Y000168643D01*
X001708491Y000169708D01*
X001709121Y000170753D01*
X001709783Y000171778D01*
X001710477Y000172782D01*
X001737248Y000210282D01*
X001740379Y000214130D01*
X001743969Y000217553D01*
X001747961Y000220498D01*
X001752291Y000222917D01*
X001756892Y000224773D01*
X001761689Y000226036D01*
X001766606Y000226685D01*
X001771567Y000226711D01*
X001776491Y000226113D01*
X001781301Y000224900D01*
X001785920Y000223092D01*
X001790276Y000220718D01*
X001794298Y000217815D01*
X001797923Y000214429D01*
X001801094Y000210614D01*
X001803760Y000206431D01*
X001805878Y000201945D01*
X001807416Y000197229D01*
X001808348Y000192357D01*
X001808661Y000187407D01*
X001703149Y000400092D02*
X001808661Y000362592D01*
X001808348Y000357642D01*
X001807416Y000352770D01*
X001805878Y000348054D01*
X001803760Y000343568D01*
X001801094Y000339385D01*
X001797923Y000335570D01*
X001794298Y000332184D01*
X001790276Y000329281D01*
X001785920Y000326907D01*
X001781301Y000325099D01*
X001776491Y000323886D01*
X001771567Y000323288D01*
X001766606Y000323314D01*
X001761689Y000323963D01*
X001756892Y000325226D01*
X001752291Y000327082D01*
X001747961Y000329501D01*
X001743969Y000332446D01*
X001740379Y000335869D01*
X001737248Y000339717D01*
X001710477Y000377217D01*
X001709783Y000378221D01*
X001709121Y000379246D01*
X001708491Y000380291D01*
X001707893Y000381356D01*
X001707329Y000382438D01*
X001706799Y000383537D01*
X001706303Y000384652D01*
X001705842Y000385782D01*
X001705416Y000386926D01*
X001705026Y000388082D01*
X001704671Y000389250D01*
X001704354Y000390428D01*
X001704072Y000391616D01*
X001703828Y000392812D01*
X001703621Y000394014D01*
X001703451Y000395223D01*
X001703319Y000396436D01*
X001703225Y000397653D01*
X001703168Y000398872D01*
X001703149Y000400092D01*
X000797637Y001022611D02*
X000903149Y001012387D01*
X000902965Y001008582D01*
X000902414Y001004814D01*
X000901501Y001001116D01*
X000900236Y000997524D01*
X000898629Y000994070D01*
X000896696Y000990789D01*
X000894455Y000987709D01*
X000891927Y000984860D01*
X000889135Y000982269D01*
X000886106Y000979960D01*
X000882868Y000977954D01*
X000879452Y000976271D01*
X000875888Y000974925D01*
X000872212Y000973930D01*
X000868456Y000973296D01*
X000864657Y000973027D01*
X000860850Y000973126D01*
X000857070Y000973593D01*
X000853352Y000974422D01*
X000849733Y000975608D01*
X000822961Y000985832D01*
X000820770Y000986745D01*
X000818638Y000987789D01*
X000816573Y000988959D01*
X000814582Y000990252D01*
X000812673Y000991662D01*
X000810852Y000993185D01*
X000809126Y000994814D01*
X000807502Y000996545D01*
X000805985Y000998371D01*
X000804580Y001000284D01*
X000803294Y001002279D01*
X000802130Y001004347D01*
X000801093Y001006482D01*
X000800186Y001008676D01*
X000799413Y001010920D01*
X000798777Y001013207D01*
X000798280Y001015528D01*
X000797923Y001017875D01*
X000797709Y001020239D01*
X000797637Y001022611D01*
X000797637Y001186614D01*
X000546224Y001186614D01*
X000545707Y001186617D01*
X000545190Y001186627D01*
X000544674Y001186644D01*
X000544158Y001186668D01*
X000543642Y001186698D01*
X000543126Y001186736D01*
X000542612Y001186780D01*
X000542097Y001186830D01*
X000541584Y001186888D01*
X000541071Y001186952D01*
X000540559Y001187023D01*
X000540048Y001187101D01*
X000539539Y001187185D01*
X000539030Y001187276D01*
X000538523Y001187374D01*
X000538017Y001187479D01*
X000537512Y001187590D01*
X000537009Y001187707D01*
X000536507Y001187831D01*
X000536007Y001187962D01*
X000531612Y001189143D01*
X000526263Y001191002D01*
X000521236Y001193609D01*
X000516635Y001196910D01*
X000512556Y001200837D01*
X000509082Y001205309D01*
X000506285Y001210233D01*
X000504224Y001215507D01*
X000502940Y001221022D01*
X000502461Y001226665D01*
X000502797Y001232317D01*
X000503939Y001237863D01*
X000505866Y001243188D01*
X000508537Y001248181D01*
X000511896Y001252740D01*
X000515875Y001256769D01*
X000520390Y001260186D01*
X000525349Y001262920D01*
X000530649Y001264914D01*
X000536180Y001266128D01*
X000541828Y001266535D01*
X000797637Y001266535D01*
X000797637Y001413608D01*
X000797709Y001415981D01*
X000797923Y001418345D01*
X000798280Y001420691D01*
X000798777Y001423012D01*
X000799413Y001425299D01*
X000800186Y001427543D01*
X000801093Y001429737D01*
X000802130Y001431872D01*
X000803294Y001433941D01*
X000804580Y001435935D01*
X000805985Y001437849D01*
X000807502Y001439674D01*
X000809126Y001441405D01*
X000810852Y001443035D01*
X000812673Y001444557D01*
X000814582Y001445968D01*
X000816573Y001447260D01*
X000818638Y001448430D01*
X000820770Y001449474D01*
X000822961Y001450387D01*
X000849733Y001460612D01*
X000853352Y001461797D01*
X000857070Y001462627D01*
X000860850Y001463094D01*
X000864657Y001463193D01*
X000868456Y001462924D01*
X000872212Y001462289D01*
X000875888Y001461294D01*
X000879452Y001459949D01*
X000882868Y001458265D01*
X000886106Y001456260D01*
X000889135Y001453950D01*
X000891927Y001451359D01*
X000894455Y001448511D01*
X000896696Y001445431D01*
X000898629Y001442149D01*
X000900236Y001438696D01*
X000901501Y001435104D01*
X000902414Y001431406D01*
X000902965Y001427637D01*
X000903149Y001423833D01*
X000903149Y001266535D01*
X001151084Y001266535D01*
X001156732Y001266128D01*
X001162263Y001264914D01*
X001167563Y001262920D01*
X001172522Y001260186D01*
X001177038Y001256769D01*
X001181016Y001252740D01*
X001184376Y001248181D01*
X001187046Y001243188D01*
X001188973Y001237863D01*
X001190116Y001232317D01*
X001190451Y001226665D01*
X001189972Y001221022D01*
X001188689Y001215507D01*
X001186627Y001210233D01*
X001183831Y001205309D01*
X001180357Y001200837D01*
X001176277Y001196910D01*
X001171676Y001193609D01*
X001166649Y001191002D01*
X001161301Y001189143D01*
X001156905Y001187962D01*
X001156405Y001187831D01*
X001155904Y001187707D01*
X001155400Y001187590D01*
X001154896Y001187479D01*
X001154390Y001187374D01*
X001153882Y001187276D01*
X001153374Y001187185D01*
X001152864Y001187101D01*
X001152353Y001187023D01*
X001151841Y001186952D01*
X001151329Y001186888D01*
X001150815Y001186830D01*
X001150301Y001186780D01*
X001149786Y001186736D01*
X001149271Y001186698D01*
X001148755Y001186668D01*
X001148239Y001186644D01*
X001147722Y001186627D01*
X001147206Y001186617D01*
X001146689Y001186614D01*
X000903149Y001186614D01*
X000903149Y001012387D01*
X000902965Y001008582D01*
X000902414Y001004814D01*
X000901501Y001001116D01*
X000900236Y000997524D01*
X000898629Y000994070D01*
X000896696Y000990789D01*
X000894455Y000987709D01*
X000891927Y000984860D01*
X000889135Y000982269D01*
X000886106Y000979960D01*
X000882868Y000977954D01*
X000879452Y000976271D01*
X000875888Y000974925D01*
X000872212Y000973930D01*
X000868456Y000973296D01*
X000864657Y000973027D01*
X000860850Y000973126D01*
X000857070Y000973593D01*
X000853352Y000974422D01*
X000849733Y000975608D01*
X000822961Y000985832D01*
X000820770Y000986745D01*
X000818638Y000987789D01*
X000816573Y000988959D01*
X000814582Y000990252D01*
X000812673Y000991662D01*
X000810852Y000993185D01*
X000809126Y000994814D01*
X000807502Y000996545D01*
X000805985Y000998371D01*
X000804580Y001000284D01*
X000803294Y001002279D01*
X000802130Y001004347D01*
X000801093Y001006482D01*
X000800186Y001008676D01*
X000799413Y001010920D01*
X000798777Y001013207D01*
X000798280Y001015528D01*
X000797923Y001017875D01*
X000797709Y001020239D01*
X000797637Y001022611D01*
X000903149Y000166352D02*
X000903149Y000166352D01*
X000902953Y000170273D01*
X000902368Y000174155D01*
X000901399Y000177960D01*
X000900056Y000181648D01*
X000898353Y000185185D01*
X000896305Y000188535D01*
X000893934Y000191664D01*
X000891263Y000194541D01*
X000888320Y000197138D01*
X000885132Y000199429D01*
X000881731Y000201391D01*
X000878152Y000203005D01*
X000874431Y000204254D01*
X000870603Y000205127D01*
X000866708Y000205613D01*
X000862783Y000205710D01*
X000858868Y000205415D01*
X000855002Y000204732D01*
X000851224Y000203667D01*
X000847570Y000202231D01*
X000823161Y000191203D01*
X000821132Y000190216D01*
X000819163Y000189114D01*
X000817260Y000187900D01*
X000815430Y000186580D01*
X000813679Y000185157D01*
X000812012Y000183636D01*
X000810435Y000182023D01*
X000808952Y000180321D01*
X000807570Y000178537D01*
X000806293Y000176677D01*
X000805124Y000174747D01*
X000804067Y000172753D01*
X000803127Y000170702D01*
X000802305Y000168600D01*
X000801606Y000166455D01*
X000801030Y000164273D01*
X000800580Y000162062D01*
X000800258Y000159829D01*
X000800064Y000157580D01*
X000799999Y000155325D01*
X000800064Y000157580D01*
X000800258Y000159829D01*
X000800580Y000162062D01*
X000801030Y000164273D01*
X000801606Y000166455D01*
X000802305Y000168600D01*
X000803127Y000170702D01*
X000804067Y000172753D01*
X000805124Y000174747D01*
X000806293Y000176677D01*
X000807570Y000178537D01*
X000808952Y000180321D01*
X000810435Y000182023D01*
X000812012Y000183636D01*
X000813679Y000185157D01*
X000815430Y000186580D01*
X000817260Y000187900D01*
X000819163Y000189114D01*
X000821132Y000190216D01*
X000823161Y000191203D01*
X000847570Y000202231D01*
X000851224Y000203667D01*
X000855002Y000204732D01*
X000858868Y000205415D01*
X000862783Y000205710D01*
X000866708Y000205613D01*
X000870603Y000205127D01*
X000874431Y000204254D01*
X000878152Y000203005D01*
X000881731Y000201391D01*
X000885132Y000199429D01*
X000888320Y000197138D01*
X000891263Y000194541D01*
X000893934Y000191664D01*
X000896305Y000188535D01*
X000898353Y000185185D01*
X000900056Y000181648D01*
X000901399Y000177960D01*
X000902368Y000174155D01*
X000902953Y000170273D01*
X000903149Y000166352D01*
X000799999Y000492697D02*
X000903149Y000383647D01*
X000902953Y000379726D01*
X000902368Y000375844D01*
X000901399Y000372039D01*
X000900056Y000368351D01*
X000898353Y000364814D01*
X000896305Y000361464D01*
X000893934Y000358335D01*
X000891263Y000355458D01*
X000888320Y000352861D01*
X000885132Y000350570D01*
X000881731Y000348608D01*
X000878152Y000346994D01*
X000874431Y000345745D01*
X000870603Y000344872D01*
X000866708Y000344386D01*
X000862783Y000344289D01*
X000858868Y000344584D01*
X000855002Y000345267D01*
X000851224Y000346332D01*
X000847570Y000347768D01*
X000823161Y000358796D01*
X000821132Y000359783D01*
X000819163Y000360885D01*
X000817260Y000362099D01*
X000815430Y000363419D01*
X000813679Y000364842D01*
X000812012Y000366363D01*
X000810435Y000367976D01*
X000808952Y000369678D01*
X000807570Y000371462D01*
X000806293Y000373322D01*
X000805124Y000375252D01*
X000804067Y000377246D01*
X000803127Y000379297D01*
X000802305Y000381399D01*
X000801606Y000383544D01*
X000801030Y000385726D01*
X000800580Y000387937D01*
X000800258Y000390170D01*
X000800064Y000392419D01*
X000799999Y000394674D01*
X000800064Y000392419D01*
X000800258Y000390170D01*
X000800580Y000387937D01*
X000801030Y000385726D01*
X000801606Y000383544D01*
X000802305Y000381399D01*
X000803127Y000379297D01*
X000804067Y000377246D01*
X000805124Y000375252D01*
X000806293Y000373322D01*
X000807570Y000371462D01*
X000808952Y000369678D01*
X000810435Y000367976D01*
X000812012Y000366363D01*
X000813679Y000364842D01*
X000815430Y000363419D01*
X000817260Y000362099D01*
X000819163Y000360885D01*
X000821132Y000359783D01*
X000823161Y000358796D01*
X000847570Y000347768D01*
X000851224Y000346332D01*
X000855002Y000345267D01*
X000858868Y000344584D01*
X000862783Y000344289D01*
X000866708Y000344386D01*
X000870603Y000344872D01*
X000874431Y000345745D01*
X000878152Y000346994D01*
X000881731Y000348608D01*
X000885132Y000350570D01*
X000888320Y000352861D01*
X000891263Y000355458D01*
X000893934Y000358335D01*
X000896305Y000361464D01*
X000898353Y000364814D01*
X000900056Y000368351D01*
X000901399Y000372039D01*
X000902368Y000375844D01*
X000902953Y000379726D01*
X000903149Y000383647D01*
X000903149Y000478388D01*
X000903096Y000480436D01*
X000902936Y000482477D01*
X000902671Y000484508D01*
X000902300Y000486523D01*
X000901824Y000488515D01*
X000901246Y000490480D01*
X000900567Y000492412D01*
X000899788Y000494306D01*
X000898911Y000496157D01*
X000897940Y000497960D01*
X000896875Y000499710D01*
X000895722Y000501403D01*
X000894482Y000503033D01*
X000893158Y000504596D01*
X000891756Y000506088D01*
X000890277Y000507506D01*
X000888727Y000508844D01*
X000887110Y000510101D01*
X000885429Y000511271D01*
X000883689Y000512353D01*
X000859280Y000526662D01*
X000855609Y000528562D01*
X000851758Y000530067D01*
X000847772Y000531160D01*
X000843692Y000531829D01*
X000839565Y000532067D01*
X000835436Y000531870D01*
X000831350Y000531242D01*
X000827352Y000530188D01*
X000823487Y000528722D01*
X000819797Y000526858D01*
X000816323Y000524617D01*
X000813103Y000522025D01*
X000810173Y000519109D01*
X000807564Y000515902D01*
X000805307Y000512439D01*
X000803424Y000508758D01*
X000801938Y000504900D01*
X000800865Y000500908D01*
X000800216Y000496826D01*
X000799999Y000492697D01*
X002798514Y003076377D02*
X002798514Y003076377D01*
X002797960Y003076381D01*
X002797407Y003076393D01*
X002796854Y003076412D01*
X002796301Y003076440D01*
X002795748Y003076475D01*
X002795196Y003076517D01*
X002794645Y003076568D01*
X002794094Y003076626D01*
X002793545Y003076692D01*
X002792996Y003076766D01*
X002792448Y003076848D01*
X002791902Y003076937D01*
X002791357Y003077034D01*
X002790813Y003077138D01*
X002790271Y003077250D01*
X002789730Y003077370D01*
X002789191Y003077497D01*
X002788654Y003077632D01*
X002788119Y003077774D01*
X002787586Y003077924D01*
X002783499Y003079105D01*
X002778219Y003081049D01*
X002773271Y003083725D01*
X002768754Y003087080D01*
X002764762Y003091043D01*
X002761376Y003095536D01*
X002758664Y003100465D01*
X002756682Y003105730D01*
X002755472Y003111224D01*
X002755056Y003116835D01*
X002755445Y003122447D01*
X002756629Y003127947D01*
X002758586Y003133221D01*
X002761274Y003138163D01*
X002764639Y003142672D01*
X002768612Y003146654D01*
X002773112Y003150030D01*
X002778048Y003152730D01*
X002783318Y003154699D01*
X002788815Y003155897D01*
X002794426Y003156299D01*
X003001478Y003156299D01*
X003007126Y003155891D01*
X003012657Y003154678D01*
X003017957Y003152684D01*
X003022916Y003149950D01*
X003027431Y003146533D01*
X003031410Y003142504D01*
X003034769Y003137945D01*
X003037440Y003132952D01*
X003039367Y003127627D01*
X003040509Y003122081D01*
X003040845Y003116428D01*
X003040366Y003110786D01*
X003039083Y003105271D01*
X003037021Y003099997D01*
X003034224Y003095073D01*
X003030750Y003090601D01*
X003026671Y003086674D01*
X003022070Y003083373D01*
X003017043Y003080766D01*
X003011694Y003078907D01*
X003007299Y003077726D01*
X003006799Y003077595D01*
X003006297Y003077471D01*
X003005794Y003077353D01*
X003005290Y003077242D01*
X003004783Y003077138D01*
X003004276Y003077040D01*
X003003767Y003076949D01*
X003003258Y003076865D01*
X003002747Y003076787D01*
X003002235Y003076716D01*
X003001722Y003076652D01*
X003001209Y003076594D01*
X003000695Y003076543D01*
X003000180Y003076499D01*
X002999664Y003076462D01*
X002999148Y003076432D01*
X002998632Y003076408D01*
X002998116Y003076391D01*
X002997599Y003076381D01*
X002997083Y003076377D01*
X002798514Y003076377D01*
X002608661Y003004504D02*
X002608661Y003004504D01*
X002608872Y003008577D01*
X002609504Y003012606D01*
X002610548Y003016548D01*
X002611996Y003020361D01*
X002613830Y003024004D01*
X002616030Y003027438D01*
X002618575Y003030625D01*
X002621435Y003033533D01*
X002624581Y003036128D01*
X002627978Y003038384D01*
X002631591Y003040277D01*
X002635380Y003041786D01*
X002639305Y003042895D01*
X002643323Y003043591D01*
X002647392Y003043869D01*
X002651468Y003043724D01*
X002655507Y003043158D01*
X002659466Y003042177D01*
X002663302Y003040792D01*
X002666974Y003039017D01*
X002693746Y003024323D01*
X002695562Y003023262D01*
X002697320Y003022105D01*
X002699013Y003020856D01*
X002700636Y003019519D01*
X002702186Y003018096D01*
X002703658Y003016593D01*
X002705048Y003015014D01*
X002706351Y003013362D01*
X002707564Y003011643D01*
X002708683Y003009862D01*
X002709706Y003008024D01*
X002710629Y003006133D01*
X002711450Y003004196D01*
X002712166Y003002218D01*
X002712776Y003000205D01*
X002713277Y002998162D01*
X002713668Y002996095D01*
X002713948Y002994010D01*
X002714117Y002991913D01*
X002714173Y002989810D01*
X002714173Y002876331D01*
X002714117Y002874228D01*
X002713948Y002872131D01*
X002713668Y002870046D01*
X002713277Y002867979D01*
X002712776Y002865936D01*
X002712166Y002863922D01*
X002711450Y002861944D01*
X002710629Y002860007D01*
X002709706Y002858117D01*
X002708683Y002856279D01*
X002707564Y002854497D01*
X002706351Y002852779D01*
X002705048Y002851127D01*
X002703658Y002849548D01*
X002702186Y002848044D01*
X002700636Y002846622D01*
X002699013Y002845285D01*
X002697320Y002844036D01*
X002695562Y002842879D01*
X002693746Y002841818D01*
X002666974Y002827124D01*
X002663302Y002825349D01*
X002659466Y002823964D01*
X002655507Y002822983D01*
X002651468Y002822417D01*
X002647392Y002822272D01*
X002643323Y002822549D01*
X002639305Y002823246D01*
X002635380Y002824355D01*
X002631591Y002825864D01*
X002627978Y002827756D01*
X002624581Y002830013D01*
X002621435Y002832608D01*
X002618575Y002835515D01*
X002616030Y002838703D01*
X002613830Y002842136D01*
X002611996Y002845779D01*
X002610548Y002849592D01*
X002609504Y002853535D01*
X002608872Y002857564D01*
X002608661Y002861637D01*
X002608661Y003004504D01*
X002559903Y003156299D02*
X002559903Y003156299D01*
X002565515Y003155897D01*
X002571012Y003154699D01*
X002576282Y003152730D01*
X002581217Y003150030D01*
X002585718Y003146654D01*
X002589691Y003142672D01*
X002593056Y003138163D01*
X002595744Y003133221D01*
X002597700Y003127947D01*
X002598885Y003122447D01*
X002599273Y003116835D01*
X002598858Y003111224D01*
X002597647Y003105730D01*
X002595666Y003100465D01*
X002592954Y003095536D01*
X002589568Y003091043D01*
X002585575Y003087080D01*
X002581059Y003083725D01*
X002576111Y003081049D01*
X002570831Y003079105D01*
X002566743Y003077924D01*
X002566210Y003077774D01*
X002565675Y003077632D01*
X002565138Y003077497D01*
X002564600Y003077370D01*
X002564059Y003077250D01*
X002563517Y003077138D01*
X002562973Y003077034D01*
X002562428Y003076937D01*
X002561882Y003076848D01*
X002561334Y003076766D01*
X002560785Y003076692D01*
X002560235Y003076626D01*
X002559685Y003076568D01*
X002559134Y003076517D01*
X002558582Y003076475D01*
X002558029Y003076440D01*
X002557476Y003076412D01*
X002556923Y003076393D01*
X002556369Y003076381D01*
X002555816Y003076377D01*
X002317877Y003076377D01*
X002317360Y003076381D01*
X002316844Y003076391D01*
X002316327Y003076408D01*
X002315811Y003076432D01*
X002315295Y003076462D01*
X002314780Y003076499D01*
X002314265Y003076543D01*
X002313751Y003076594D01*
X002313237Y003076652D01*
X002312725Y003076716D01*
X002312213Y003076787D01*
X002311702Y003076865D01*
X002311192Y003076949D01*
X002310684Y003077040D01*
X002310176Y003077138D01*
X002309670Y003077242D01*
X002309165Y003077353D01*
X002308662Y003077471D01*
X002308161Y003077595D01*
X002307661Y003077726D01*
X002303265Y003078907D01*
X002297917Y003080766D01*
X002292890Y003083373D01*
X002288289Y003086674D01*
X002284209Y003090601D01*
X002280735Y003095073D01*
X002277938Y003099997D01*
X002275877Y003105271D01*
X002274594Y003110786D01*
X002274115Y003116428D01*
X002274450Y003122081D01*
X002275593Y003127627D01*
X002277520Y003132952D01*
X002280190Y003137945D01*
X002283550Y003142504D01*
X002287528Y003146533D01*
X002292044Y003149950D01*
X002297003Y003152684D01*
X002302303Y003154678D01*
X002307834Y003155891D01*
X002313482Y003156299D01*
X002559903Y003156299D01*
X002714173Y003230662D02*
X002714173Y003230662D01*
X002714117Y003228559D01*
X002713948Y003226462D01*
X002713668Y003224377D01*
X002713277Y003222310D01*
X002712776Y003220267D01*
X002712166Y003218253D01*
X002711450Y003216275D01*
X002710629Y003214338D01*
X002709706Y003212448D01*
X002708683Y003210609D01*
X002707564Y003208828D01*
X002706351Y003207109D01*
X002705048Y003205458D01*
X002703658Y003203878D01*
X002702186Y003202375D01*
X002700636Y003200953D01*
X002699013Y003199615D01*
X002697320Y003198366D01*
X002695562Y003197210D01*
X002693746Y003196149D01*
X002666974Y003181454D01*
X002663302Y003179680D01*
X002659466Y003178295D01*
X002655507Y003177314D01*
X002651468Y003176748D01*
X002647392Y003176603D01*
X002643323Y003176880D01*
X002639305Y003177577D01*
X002635380Y003178685D01*
X002631591Y003180194D01*
X002627978Y003182087D01*
X002624581Y003184343D01*
X002621435Y003186939D01*
X002618575Y003189846D01*
X002616030Y003193034D01*
X002613830Y003196467D01*
X002611996Y003200110D01*
X002610548Y003203923D01*
X002609504Y003207865D01*
X002608872Y003211895D01*
X002608661Y003215968D01*
X002608661Y003381367D01*
X002608698Y003383088D01*
X002608811Y003384806D01*
X002608999Y003386517D01*
X002609262Y003388218D01*
X002609598Y003389907D01*
X002610008Y003391579D01*
X002610491Y003393231D01*
X002611045Y003394861D01*
X002611671Y003396465D01*
X002612365Y003398040D01*
X002613128Y003399583D01*
X002613958Y003401091D01*
X002614853Y003402562D01*
X002615811Y003403992D01*
X002616831Y003405379D01*
X002617910Y003406720D01*
X002619047Y003408012D01*
X002620240Y003409254D01*
X002621485Y003410442D01*
X002622782Y003411575D01*
X002649554Y003433952D01*
X002653132Y003436614D01*
X002656989Y003438854D01*
X002661075Y003440644D01*
X002665336Y003441960D01*
X002669720Y003442785D01*
X002674168Y003443109D01*
X002678625Y003442929D01*
X002683032Y003442245D01*
X002687334Y003441067D01*
X002691475Y003439410D01*
X002695402Y003437295D01*
X002699065Y003434750D01*
X002702416Y003431807D01*
X002705413Y003428503D01*
X002708017Y003424882D01*
X002710195Y003420990D01*
X002711918Y003416876D01*
X002713165Y003412594D01*
X002713920Y003408198D01*
X002714173Y003403745D01*
X002714173Y003230662D01*
X000903149Y000795093D02*
X000797637Y000784868D01*
X000797709Y000787241D01*
X000797923Y000789605D01*
X000798280Y000791951D01*
X000798777Y000794272D01*
X000799413Y000796559D01*
X000800186Y000798803D01*
X000801093Y000800997D01*
X000802130Y000803132D01*
X000803294Y000805200D01*
X000804580Y000807195D01*
X000805985Y000809109D01*
X000807502Y000810934D01*
X000809126Y000812665D01*
X000810852Y000814295D01*
X000812673Y000815817D01*
X000814582Y000817227D01*
X000816573Y000818520D01*
X000818638Y000819690D01*
X000820770Y000820734D01*
X000822961Y000821647D01*
X000849733Y000831872D01*
X000853352Y000833057D01*
X000857070Y000833887D01*
X000860850Y000834353D01*
X000864657Y000834453D01*
X000868456Y000834184D01*
X000872212Y000833549D01*
X000875888Y000832554D01*
X000879452Y000831209D01*
X000882868Y000829525D01*
X000886106Y000827519D01*
X000889135Y000825210D01*
X000891927Y000822619D01*
X000894455Y000819770D01*
X000896696Y000816691D01*
X000898629Y000813409D01*
X000900236Y000809956D01*
X000901501Y000806363D01*
X000902414Y000802666D01*
X000902965Y000798897D01*
X000903149Y000795093D01*
X000903149Y000702713D01*
X000903097Y000700680D01*
X000902939Y000698651D01*
X000902677Y000696634D01*
X000902311Y000694633D01*
X000901842Y000692653D01*
X000901272Y000690701D01*
X000900601Y000688780D01*
X000899832Y000686897D01*
X000898967Y000685056D01*
X000898008Y000683261D01*
X000896958Y000681519D01*
X000895819Y000679834D01*
X000894594Y000678209D01*
X000893287Y000676650D01*
X000891902Y000675161D01*
X000890441Y000673745D01*
X000888909Y000672407D01*
X000887310Y000671149D01*
X000885648Y000669976D01*
X000883928Y000668890D01*
X000857156Y000652942D01*
X000853486Y000651010D01*
X000849633Y000649474D01*
X000845639Y000648353D01*
X000841550Y000647658D01*
X000837411Y000647397D01*
X000833267Y000647573D01*
X000829164Y000648184D01*
X000825149Y000649224D01*
X000821265Y000650680D01*
X000817556Y000652536D01*
X000814062Y000654772D01*
X000810824Y000657364D01*
X000807876Y000660282D01*
X000805251Y000663494D01*
X000802979Y000666964D01*
X000801085Y000670654D01*
X000799589Y000674522D01*
X000798509Y000678527D01*
X000797856Y000682623D01*
X000797637Y000686765D01*
X000797637Y000784868D01*
X000797709Y000787241D01*
X000797923Y000789605D01*
X000798280Y000791951D01*
X000798777Y000794272D01*
X000799413Y000796559D01*
X000800186Y000798803D01*
X000801093Y000800997D01*
X000802130Y000803132D01*
X000803294Y000805200D01*
X000804580Y000807195D01*
X000805985Y000809109D01*
X000807502Y000810934D01*
X000809126Y000812665D01*
X000810852Y000814295D01*
X000812673Y000815817D01*
X000814582Y000817227D01*
X000816573Y000818520D01*
X000818638Y000819690D01*
X000820770Y000820734D01*
X000822961Y000821647D01*
X000849733Y000831872D01*
X000853352Y000833057D01*
X000857070Y000833887D01*
X000860850Y000834353D01*
X000864657Y000834453D01*
X000868456Y000834184D01*
X000872212Y000833549D01*
X000875888Y000832554D01*
X000879452Y000831209D01*
X000882868Y000829525D01*
X000886106Y000827519D01*
X000889135Y000825210D01*
X000891927Y000822619D01*
X000894455Y000819770D01*
X000896696Y000816691D01*
X000898629Y000813409D01*
X000900236Y000809956D01*
X000901501Y000806363D01*
X000902414Y000802666D01*
X000902965Y000798897D01*
X000903149Y000795093D01*
M02*