%
M48
METRIC,000.000
T10C0.40
%
T10
X006289Y011600
X006289Y002710
X013909Y011600
X013909Y002710
X006289Y027600
X006289Y018710
X013909Y027600
X013909Y018710
X006289Y043600
X006289Y034710
X013909Y043600
X013909Y034710
X006289Y059600
X006289Y050710
X013909Y059600
X013909Y050710
X006289Y075600
X006289Y066710
X013909Y075600
X013909Y066710
X029290Y011600
X029290Y002710
X036910Y011600
X036910Y002710
X029290Y027600
X029290Y018710
X036910Y027600
X036910Y018710
X029290Y043600
X029290Y034710
X036910Y043600
X036910Y034710
X029290Y059600
X029290Y050710
X036910Y059600
X036910Y050710
X029290Y075600
X029290Y066710
X036910Y075600
X036910Y066710
X052290Y011600
X052290Y002710
X059910Y011600
X059910Y002710
X052290Y027600
X052290Y018710
X059910Y027600
X059910Y018710
X052290Y043600
X052290Y034710
X059910Y043600
X059910Y034710
X052290Y059600
X052290Y050710
X059910Y059600
X059910Y050710
X052290Y075600
X052290Y066710
X059910Y075600
X059910Y066710
X075289Y011600
X075289Y002710
X082910Y011600
X082910Y002710
X075289Y027600
X075289Y018710
X082910Y027600
X082910Y018710
X075289Y043600
X075289Y034710
X082910Y043600
X082910Y034710
X075289Y059600
X075289Y050710
X082910Y059600
X082910Y050710
X075289Y075600
X075289Y066710
X082910Y075600
X082910Y066710
M30