%TF.GenerationSoftware,KiCad,Pcbnew,(6.0.1)*%
%TF.CreationDate,2022-05-17T17:55:12-04:00*%
%TF.ProjectId,I2CIO-8,49324349-4f2d-4382-9e6b-696361645f70,X3*%
%TF.SameCoordinates,Original*%
%TF.FileFunction,Soldermask,Bot*%
%TF.FilePolarity,Negative*%
%FSLAX46Y46*%
G04 Gerber Fmt 4.6, Leading zero omitted, Abs format (unit mm)*
G04 Created by KiCad (PCBNEW (6.0.1)) date 2022-05-17 17:55:12*
%MOMM*%
%LPD*%
G01*
G04 APERTURE LIST*
%ADD10O,2.300000X1.600000*%
%ADD11R,1.727200X1.727200*%
%ADD12O,1.727200X1.727200*%
%ADD13R,2.000000X2.000000*%
%ADD14C,2.000000*%
%ADD15C,6.350000*%
%ADD16R,1.700000X1.700000*%
%ADD17O,1.700000X1.700000*%
G04 APERTURE END LIST*
D10*
%TO.C,U1*%
X22860000Y-10160000D03*
X22860000Y-12700000D03*
X22860000Y-15240000D03*
X22860000Y-17780000D03*
X22860000Y-20320000D03*
X22860000Y-22860000D03*
X22860000Y-25400000D03*
X22860000Y-27940000D03*
X22860000Y-30480000D03*
X30480000Y-30480000D03*
X30480000Y-27940000D03*
X30480000Y-25400000D03*
X30480000Y-22860000D03*
X30480000Y-20320000D03*
X30480000Y-17780000D03*
X30480000Y-15240000D03*
X30480000Y-12700000D03*
X30480000Y-10160000D03*
%TD*%
D11*
%TO.C,H3*%
X43942000Y-18796000D03*
D12*
X41402000Y-18796000D03*
X43942000Y-16256000D03*
X41402000Y-16256000D03*
X43942000Y-13716000D03*
X41402000Y-13716000D03*
X43942000Y-11176000D03*
X41402000Y-11176000D03*
%TD*%
D13*
%TO.C,D0*%
X44450000Y-39654000D03*
D14*
X44450000Y-37114000D03*
%TD*%
D13*
%TO.C,D1*%
X44450000Y-34574000D03*
D14*
X44450000Y-32034000D03*
%TD*%
D13*
%TO.C,D2*%
X44450000Y-29494000D03*
D14*
X44450000Y-26954000D03*
%TD*%
D13*
%TO.C,D3*%
X44450000Y-24384000D03*
D14*
X44450000Y-21844000D03*
%TD*%
D13*
%TO.C,D9*%
X4776000Y-37368000D03*
D14*
X4776000Y-34828000D03*
%TD*%
D15*
%TO.C,MTG1*%
X45000000Y-45000000D03*
%TD*%
D16*
%TO.C,H1*%
X12441000Y-6863000D03*
D17*
X12441000Y-4323000D03*
X14981000Y-6863000D03*
X14981000Y-4323000D03*
%TD*%
D16*
%TO.C,J1*%
X12762000Y-28951000D03*
D17*
X10222000Y-28951000D03*
X12762000Y-26411000D03*
X10222000Y-26411000D03*
X12762000Y-23871000D03*
X10222000Y-23871000D03*
X12762000Y-21331000D03*
X10222000Y-21331000D03*
X12762000Y-18791000D03*
X10222000Y-18791000D03*
%TD*%
D16*
%TO.C,H2*%
X23622000Y-43942000D03*
D17*
X23622000Y-41402000D03*
X26162000Y-43942000D03*
X26162000Y-41402000D03*
X28702000Y-43942000D03*
X28702000Y-41402000D03*
%TD*%
D15*
%TO.C,MTG2*%
X4000000Y-4000000D03*
%TD*%
%TO.C,MTG4*%
X45000000Y-4000000D03*
%TD*%
%TO.C,MTG3*%
X4000000Y-45000000D03*
%TD*%
M02*
