M48
;DRILL file {Pcbnew (2013-07-07 BZR 4022)-stable} date 12/26/2014 5:14:57 PM
;FORMAT={-:-/ absolute / inch / decimal}
FMAT,2
INCH,TZ
T1C0.025
T2C0.035
T3C0.040
T4C0.053
T5C0.100
T6C0.120
T7C0.125
%
G90
G05
M72
T1
X0.18Y-0.86
X0.39Y-1.85
X0.43Y-1.51
X0.44Y-0.75
X0.46Y-0.13
X0.49Y-0.39
X0.49Y-1.13
X0.71Y-0.49
X0.75Y-0.67
X0.76Y-0.9
X0.77Y-1.08
X0.7975Y-1.5975
X0.86Y-0.48
X0.86Y-1.01
X0.862Y-1.496
X0.87Y-1.07
X0.94Y-0.95
X0.95Y-1.26
X0.96Y-1.38
X1.Y-0.96
X1.Y-1.32
X1.06Y-1.42
X1.098Y-0.36
X1.14Y-0.6
X1.15Y-1.3
X1.17Y-1.19
X1.17Y-1.49
X1.19Y-1.27
X1.23Y-1.15
X1.25Y-0.96
X1.27Y-1.48
X1.31Y-1.12
X1.32Y-0.96
X1.33Y-1.25
X1.34Y-0.5
X1.38Y-1.2
X1.39Y-0.33
X1.46Y-1.41
X1.48Y-1.01
X1.54Y-1.18
X1.58Y-1.14
X1.6Y-0.96
T2
X1.6535Y-0.4016
X1.6535Y-0.7008
T3
X0.0787Y-0.8055
X0.0787Y-0.9055
X0.0787Y-1.0055
X0.5406Y-0.8055
X0.5406Y-0.9055
X0.5406Y-1.0055
X0.6406Y-0.8055
X0.6406Y-0.9055
X0.6406Y-1.0055
X0.91Y-1.75
X1.01Y-1.75
X1.65Y-1.09
X1.65Y-1.19
X1.65Y-1.29
X1.65Y-1.39
X1.8307Y-0.9902
X1.8307Y-1.0902
X1.8307Y-1.1902
X1.8307Y-1.2902
X1.8307Y-1.3902
X1.8307Y-1.4902
T4
X0.19Y-1.1831
X0.19Y-1.38
T5
X0.1575Y-0.5118
X0.2475Y-0.7118
T6
X0.3975Y-0.5118
T7
X0.1575Y-0.1575
X0.1575Y-1.7717
X1.7717Y-0.1575
X1.7717Y-1.7717
T0
M30
