G04 (created by PCBNEW (2013-04-19 BZR 4011)-stable) date 30/12/2014 16:48:11*
%MOIN*%
G04 Gerber Fmt 3.4, Leading zero omitted, Abs format*
%FSLAX34Y34*%
G01*
G70*
G90*
G04 APERTURE LIST*
%ADD10C,0.006*%
%ADD11C,0.01125*%
%ADD12C,0.011811*%
%ADD13C,0.01*%
%ADD14C,0.005*%
%ADD15C,0.008*%
%ADD16C,0.0039*%
%ADD17C,0.015*%
%ADD18C,0.0026*%
%ADD19C,0.002*%
%ADD20C,0.012*%
%ADD21C,0.0055*%
G04 APERTURE END LIST*
G54D10*
G54D11*
X13114Y-16978D02*
X13200Y-17002D01*
X13342Y-17002D01*
X13400Y-16978D01*
X13428Y-16954D01*
X13457Y-16907D01*
X13457Y-16859D01*
X13428Y-16811D01*
X13400Y-16788D01*
X13342Y-16764D01*
X13228Y-16740D01*
X13171Y-16716D01*
X13142Y-16692D01*
X13114Y-16645D01*
X13114Y-16597D01*
X13142Y-16550D01*
X13171Y-16526D01*
X13228Y-16502D01*
X13371Y-16502D01*
X13457Y-16526D01*
X14085Y-16502D02*
X14285Y-17002D01*
X14485Y-16502D01*
X15457Y-16526D02*
X15400Y-16502D01*
X15314Y-16502D01*
X15228Y-16526D01*
X15171Y-16573D01*
X15142Y-16621D01*
X15114Y-16716D01*
X15114Y-16788D01*
X15142Y-16883D01*
X15171Y-16930D01*
X15228Y-16978D01*
X15314Y-17002D01*
X15371Y-17002D01*
X15457Y-16978D01*
X15485Y-16954D01*
X15485Y-16788D01*
X15371Y-16788D01*
G54D12*
X15391Y-9727D02*
X15600Y-10352D01*
X15808Y-9727D01*
X15763Y-10750D02*
X15704Y-10721D01*
X15614Y-10721D01*
X15525Y-10750D01*
X15466Y-10810D01*
X15436Y-10869D01*
X15406Y-10988D01*
X15406Y-11078D01*
X15436Y-11197D01*
X15466Y-11256D01*
X15525Y-11316D01*
X15614Y-11346D01*
X15674Y-11346D01*
X15763Y-11316D01*
X15793Y-11286D01*
X15793Y-11078D01*
X15674Y-11078D01*
X15793Y-12279D02*
X15763Y-12309D01*
X15674Y-12339D01*
X15614Y-12339D01*
X15525Y-12309D01*
X15466Y-12249D01*
X15436Y-12190D01*
X15406Y-12071D01*
X15406Y-11982D01*
X15436Y-11863D01*
X15466Y-11803D01*
X15525Y-11743D01*
X15614Y-11714D01*
X15674Y-11714D01*
X15763Y-11743D01*
X15793Y-11773D01*
X15436Y-13332D02*
X15436Y-12707D01*
X15585Y-12707D01*
X15674Y-12737D01*
X15733Y-12796D01*
X15763Y-12856D01*
X15793Y-12975D01*
X15793Y-13064D01*
X15763Y-13183D01*
X15733Y-13243D01*
X15674Y-13302D01*
X15585Y-13332D01*
X15436Y-13332D01*
X8168Y-14839D02*
X7831Y-14839D01*
X8000Y-14839D02*
X8000Y-14248D01*
X7943Y-14332D01*
X7887Y-14389D01*
X7831Y-14417D01*
G54D11*
X8511Y-18702D02*
X8511Y-18202D01*
X8726Y-18678D02*
X8797Y-18702D01*
X8916Y-18702D01*
X8964Y-18678D01*
X8988Y-18654D01*
X9011Y-18607D01*
X9011Y-18559D01*
X8988Y-18511D01*
X8964Y-18488D01*
X8916Y-18464D01*
X8821Y-18440D01*
X8773Y-18416D01*
X8750Y-18392D01*
X8726Y-18345D01*
X8726Y-18297D01*
X8750Y-18250D01*
X8773Y-18226D01*
X8821Y-18202D01*
X8940Y-18202D01*
X9011Y-18226D01*
X9226Y-18702D02*
X9226Y-18202D01*
X9416Y-18202D01*
X9464Y-18226D01*
X9488Y-18250D01*
X9511Y-18297D01*
X9511Y-18369D01*
X9488Y-18416D01*
X9464Y-18440D01*
X9416Y-18464D01*
X9226Y-18464D01*
X13114Y-18802D02*
X13114Y-18302D01*
X13400Y-18802D02*
X13185Y-18516D01*
X13400Y-18302D02*
X13114Y-18588D01*
X13614Y-18540D02*
X13780Y-18540D01*
X13852Y-18802D02*
X13614Y-18802D01*
X13614Y-18302D01*
X13852Y-18302D01*
X14161Y-18564D02*
X14161Y-18802D01*
X13995Y-18302D02*
X14161Y-18564D01*
X14328Y-18302D01*
X14495Y-18802D02*
X14495Y-18302D01*
X14685Y-18302D01*
X14733Y-18326D01*
X14757Y-18350D01*
X14780Y-18397D01*
X14780Y-18469D01*
X14757Y-18516D01*
X14733Y-18540D01*
X14685Y-18564D01*
X14495Y-18564D01*
X14971Y-18659D02*
X15209Y-18659D01*
X14923Y-18802D02*
X15090Y-18302D01*
X15257Y-18802D01*
X15423Y-18802D02*
X15423Y-18302D01*
X15542Y-18302D01*
X15614Y-18326D01*
X15661Y-18373D01*
X15685Y-18421D01*
X15709Y-18516D01*
X15709Y-18588D01*
X15685Y-18683D01*
X15661Y-18730D01*
X15614Y-18778D01*
X15542Y-18802D01*
X15423Y-18802D01*
G54D12*
X18614Y-6148D02*
X18614Y-5698D01*
X18810Y-5445D02*
X18839Y-5360D01*
X18839Y-5220D01*
X18810Y-5164D01*
X18782Y-5135D01*
X18726Y-5107D01*
X18670Y-5107D01*
X18614Y-5135D01*
X18585Y-5164D01*
X18557Y-5220D01*
X18529Y-5332D01*
X18501Y-5388D01*
X18473Y-5417D01*
X18417Y-5445D01*
X18360Y-5445D01*
X18304Y-5417D01*
X18276Y-5388D01*
X18248Y-5332D01*
X18248Y-5192D01*
X18276Y-5107D01*
X18810Y-4882D02*
X18839Y-4798D01*
X18839Y-4657D01*
X18810Y-4601D01*
X18782Y-4573D01*
X18726Y-4545D01*
X18670Y-4545D01*
X18614Y-4573D01*
X18585Y-4601D01*
X18557Y-4657D01*
X18529Y-4770D01*
X18501Y-4826D01*
X18473Y-4854D01*
X18417Y-4882D01*
X18360Y-4882D01*
X18304Y-4854D01*
X18276Y-4826D01*
X18248Y-4770D01*
X18248Y-4629D01*
X18276Y-4545D01*
X18839Y-3954D02*
X18557Y-4151D01*
X18839Y-4292D02*
X18248Y-4292D01*
X18248Y-4067D01*
X18276Y-4011D01*
X18304Y-3982D01*
X18360Y-3954D01*
X18445Y-3954D01*
X18501Y-3982D01*
X18529Y-4011D01*
X18557Y-4067D01*
X18557Y-4292D01*
X18614Y-3701D02*
X18614Y-3251D01*
X18839Y-3476D02*
X18389Y-3476D01*
X11437Y-398D02*
X11831Y-398D01*
X11578Y-989D01*
X12056Y-764D02*
X12506Y-764D01*
X11634Y-1933D02*
X11746Y-1933D01*
X11803Y-1905D01*
X11831Y-1877D01*
X11887Y-1793D01*
X11915Y-1680D01*
X11915Y-1455D01*
X11887Y-1399D01*
X11859Y-1371D01*
X11803Y-1343D01*
X11690Y-1343D01*
X11634Y-1371D01*
X11606Y-1399D01*
X11578Y-1455D01*
X11578Y-1596D01*
X11606Y-1652D01*
X11634Y-1680D01*
X11690Y-1708D01*
X11803Y-1708D01*
X11859Y-1680D01*
X11887Y-1652D01*
X11915Y-1596D01*
X12084Y-1343D02*
X12281Y-1933D01*
X12478Y-1343D01*
G54D13*
X573Y-6161D02*
X535Y-6142D01*
X516Y-6104D01*
X516Y-5761D01*
X897Y-6161D02*
X897Y-5952D01*
X878Y-5914D01*
X840Y-5895D01*
X764Y-5895D01*
X726Y-5914D01*
X897Y-6142D02*
X859Y-6161D01*
X764Y-6161D01*
X726Y-6142D01*
X707Y-6104D01*
X707Y-6066D01*
X726Y-6028D01*
X764Y-6009D01*
X859Y-6009D01*
X897Y-5990D01*
X1088Y-5895D02*
X1088Y-6161D01*
X1088Y-5933D02*
X1107Y-5914D01*
X1145Y-5895D01*
X1202Y-5895D01*
X1240Y-5914D01*
X1259Y-5952D01*
X1259Y-6161D01*
X1621Y-6161D02*
X1621Y-5761D01*
X1621Y-6142D02*
X1583Y-6161D01*
X1507Y-6161D01*
X1469Y-6142D01*
X1450Y-6123D01*
X1430Y-6085D01*
X1430Y-5971D01*
X1450Y-5933D01*
X1469Y-5914D01*
X1507Y-5895D01*
X1583Y-5895D01*
X1621Y-5914D01*
X1811Y-6009D02*
X2116Y-6009D01*
X2307Y-6161D02*
X2307Y-5761D01*
X2307Y-5914D02*
X2345Y-5895D01*
X2421Y-5895D01*
X2459Y-5914D01*
X2478Y-5933D01*
X2497Y-5971D01*
X2497Y-6085D01*
X2478Y-6123D01*
X2459Y-6142D01*
X2421Y-6161D01*
X2345Y-6161D01*
X2307Y-6142D01*
X2726Y-6161D02*
X2688Y-6142D01*
X2669Y-6123D01*
X2650Y-6085D01*
X2650Y-5971D01*
X2669Y-5933D01*
X2688Y-5914D01*
X2726Y-5895D01*
X2783Y-5895D01*
X2821Y-5914D01*
X2840Y-5933D01*
X2859Y-5971D01*
X2859Y-6085D01*
X2840Y-6123D01*
X2821Y-6142D01*
X2783Y-6161D01*
X2726Y-6161D01*
X3202Y-6161D02*
X3202Y-5952D01*
X3183Y-5914D01*
X3145Y-5895D01*
X3069Y-5895D01*
X3030Y-5914D01*
X3202Y-6142D02*
X3164Y-6161D01*
X3069Y-6161D01*
X3030Y-6142D01*
X3011Y-6104D01*
X3011Y-6066D01*
X3030Y-6028D01*
X3069Y-6009D01*
X3164Y-6009D01*
X3202Y-5990D01*
X3392Y-6161D02*
X3392Y-5895D01*
X3392Y-5971D02*
X3411Y-5933D01*
X3430Y-5914D01*
X3469Y-5895D01*
X3507Y-5895D01*
X3811Y-6161D02*
X3811Y-5761D01*
X3811Y-6142D02*
X3773Y-6161D01*
X3697Y-6161D01*
X3659Y-6142D01*
X3640Y-6123D01*
X3621Y-6085D01*
X3621Y-5971D01*
X3640Y-5933D01*
X3659Y-5914D01*
X3697Y-5895D01*
X3773Y-5895D01*
X3811Y-5914D01*
X3983Y-6142D02*
X4021Y-6161D01*
X4097Y-6161D01*
X4135Y-6142D01*
X4154Y-6104D01*
X4154Y-6085D01*
X4135Y-6047D01*
X4097Y-6028D01*
X4040Y-6028D01*
X4002Y-6009D01*
X3983Y-5971D01*
X3983Y-5952D01*
X4002Y-5914D01*
X4040Y-5895D01*
X4097Y-5895D01*
X4135Y-5914D01*
X4326Y-6123D02*
X4345Y-6142D01*
X4326Y-6161D01*
X4307Y-6142D01*
X4326Y-6123D01*
X4326Y-6161D01*
X4688Y-6142D02*
X4649Y-6161D01*
X4573Y-6161D01*
X4535Y-6142D01*
X4516Y-6123D01*
X4497Y-6085D01*
X4497Y-5971D01*
X4516Y-5933D01*
X4535Y-5914D01*
X4573Y-5895D01*
X4649Y-5895D01*
X4688Y-5914D01*
X4916Y-6161D02*
X4878Y-6142D01*
X4859Y-6123D01*
X4840Y-6085D01*
X4840Y-5971D01*
X4859Y-5933D01*
X4878Y-5914D01*
X4916Y-5895D01*
X4973Y-5895D01*
X5011Y-5914D01*
X5030Y-5933D01*
X5049Y-5971D01*
X5049Y-6085D01*
X5030Y-6123D01*
X5011Y-6142D01*
X4973Y-6161D01*
X4916Y-6161D01*
X5221Y-6161D02*
X5221Y-5895D01*
X5221Y-5933D02*
X5240Y-5914D01*
X5278Y-5895D01*
X5335Y-5895D01*
X5373Y-5914D01*
X5392Y-5952D01*
X5392Y-6161D01*
X5392Y-5952D02*
X5411Y-5914D01*
X5449Y-5895D01*
X5507Y-5895D01*
X5545Y-5914D01*
X5564Y-5952D01*
X5564Y-6161D01*
X6040Y-5742D02*
X5697Y-6257D01*
X2097Y-6821D02*
X2097Y-6421D01*
X2516Y-6821D02*
X2383Y-6631D01*
X2288Y-6821D02*
X2288Y-6421D01*
X2440Y-6421D01*
X2478Y-6440D01*
X2497Y-6460D01*
X2516Y-6498D01*
X2516Y-6555D01*
X2497Y-6593D01*
X2478Y-6612D01*
X2440Y-6631D01*
X2288Y-6631D01*
X2688Y-6612D02*
X2821Y-6612D01*
X2878Y-6821D02*
X2688Y-6821D01*
X2688Y-6421D01*
X2878Y-6421D01*
X3183Y-6612D02*
X3050Y-6612D01*
X3050Y-6821D02*
X3050Y-6421D01*
X3240Y-6421D01*
X3583Y-6821D02*
X3392Y-6821D01*
X3392Y-6421D01*
X3792Y-6421D02*
X3869Y-6421D01*
X3907Y-6440D01*
X3945Y-6479D01*
X3964Y-6555D01*
X3964Y-6688D01*
X3945Y-6764D01*
X3907Y-6802D01*
X3869Y-6821D01*
X3792Y-6821D01*
X3754Y-6802D01*
X3716Y-6764D01*
X3697Y-6688D01*
X3697Y-6555D01*
X3716Y-6479D01*
X3754Y-6440D01*
X3792Y-6421D01*
X4097Y-6421D02*
X4192Y-6821D01*
X4269Y-6536D01*
X4345Y-6821D01*
X4440Y-6421D01*
G54D12*
X17911Y-13740D02*
X17745Y-13740D01*
X17745Y-14002D02*
X17745Y-13502D01*
X17983Y-13502D01*
X18102Y-13502D02*
X18388Y-13502D01*
X18245Y-14002D02*
X18245Y-13502D01*
X18554Y-14002D02*
X18554Y-13502D01*
X18673Y-13502D01*
X18745Y-13526D01*
X18792Y-13573D01*
X18816Y-13621D01*
X18840Y-13716D01*
X18840Y-13788D01*
X18816Y-13883D01*
X18792Y-13930D01*
X18745Y-13978D01*
X18673Y-14002D01*
X18554Y-14002D01*
X19054Y-14002D02*
X19054Y-13502D01*
X16011Y-14202D02*
X16011Y-13702D01*
X16226Y-13750D02*
X16250Y-13726D01*
X16297Y-13702D01*
X16416Y-13702D01*
X16464Y-13726D01*
X16488Y-13750D01*
X16511Y-13797D01*
X16511Y-13845D01*
X16488Y-13916D01*
X16202Y-14202D01*
X16511Y-14202D01*
X17011Y-14154D02*
X16988Y-14178D01*
X16916Y-14202D01*
X16869Y-14202D01*
X16797Y-14178D01*
X16750Y-14130D01*
X16726Y-14083D01*
X16702Y-13988D01*
X16702Y-13916D01*
X16726Y-13821D01*
X16750Y-13773D01*
X16797Y-13726D01*
X16869Y-13702D01*
X16916Y-13702D01*
X16988Y-13726D01*
X17011Y-13750D01*
X3224Y-18785D02*
X2775Y-18785D01*
X7275Y-18814D02*
X7724Y-18814D01*
X7500Y-19039D02*
X7500Y-18589D01*
X17754Y-7576D02*
X17698Y-7548D01*
X17614Y-7548D01*
X17529Y-7576D01*
X17473Y-7632D01*
X17445Y-7689D01*
X17417Y-7801D01*
X17417Y-7885D01*
X17445Y-7998D01*
X17473Y-8054D01*
X17529Y-8110D01*
X17614Y-8139D01*
X17670Y-8139D01*
X17754Y-8110D01*
X17782Y-8082D01*
X17782Y-7885D01*
X17670Y-7885D01*
X17754Y-8521D02*
X17698Y-8493D01*
X17614Y-8493D01*
X17529Y-8521D01*
X17473Y-8577D01*
X17445Y-8633D01*
X17417Y-8746D01*
X17417Y-8830D01*
X17445Y-8943D01*
X17473Y-8999D01*
X17529Y-9055D01*
X17614Y-9083D01*
X17670Y-9083D01*
X17754Y-9055D01*
X17782Y-9027D01*
X17782Y-8830D01*
X17670Y-8830D01*
X17375Y-9803D02*
X17824Y-9803D01*
X17600Y-10028D02*
X17600Y-9578D01*
G54D10*
X10160Y-13980D02*
X10160Y-13530D01*
X12340Y-13980D02*
X12340Y-13540D01*
X10160Y-13980D02*
X12340Y-13980D01*
X9690Y-13100D02*
X9260Y-13100D01*
X9680Y-10890D02*
X9260Y-10890D01*
X9260Y-10880D02*
X9250Y-13100D01*
X13230Y-10900D02*
X13240Y-13070D01*
X12540Y-10470D02*
X9710Y-10470D01*
X13230Y-13080D02*
X12820Y-13080D01*
X12780Y-10720D02*
X12780Y-13500D01*
X9700Y-13520D02*
X12740Y-13520D01*
X9700Y-10470D02*
X9700Y-13470D01*
X12370Y-10020D02*
X10150Y-10020D01*
X10150Y-10020D02*
X10150Y-10470D01*
X12550Y-10474D02*
X12780Y-10704D01*
X12370Y-10022D02*
X12370Y-10474D01*
X12780Y-10900D02*
X13232Y-10900D01*
X12564Y-10882D02*
G75*
G03X12564Y-10882I-188J0D01*
G74*
G01*
G54D14*
X15600Y-8650D02*
X14400Y-8650D01*
X14400Y-8650D02*
X14400Y-8350D01*
X14400Y-8350D02*
X15600Y-8350D01*
X15600Y-8350D02*
X15600Y-8650D01*
G54D15*
X2850Y-9900D02*
X4050Y-9900D01*
X4050Y-9900D02*
X4050Y-7100D01*
X4050Y-7100D02*
X2850Y-7100D01*
X1650Y-9900D02*
X1350Y-9900D01*
X1350Y-9900D02*
X450Y-9300D01*
X450Y-9300D02*
X450Y-7700D01*
X450Y-7700D02*
X1350Y-7100D01*
X1350Y-7100D02*
X1650Y-7100D01*
X3350Y-3100D02*
X3350Y-4300D01*
X3350Y-4300D02*
X6150Y-4300D01*
X6150Y-4300D02*
X6150Y-3100D01*
X3350Y-1900D02*
X3350Y-1600D01*
X3350Y-1600D02*
X3950Y-700D01*
X3950Y-700D02*
X5550Y-700D01*
X5550Y-700D02*
X6150Y-1600D01*
X6150Y-1600D02*
X6150Y-1900D01*
G54D16*
X10700Y-15300D02*
G75*
G03X10700Y-15300I-50J0D01*
G74*
G01*
X11100Y-15300D02*
X10700Y-15300D01*
X10700Y-15300D02*
X10700Y-14700D01*
X10700Y-14700D02*
X11100Y-14700D01*
X11500Y-14700D02*
X11900Y-14700D01*
X11900Y-14700D02*
X11900Y-15300D01*
X11900Y-15300D02*
X11500Y-15300D01*
X10000Y-5600D02*
G75*
G03X10000Y-5600I-50J0D01*
G74*
G01*
X9500Y-5600D02*
X9900Y-5600D01*
X9900Y-5600D02*
X9900Y-6200D01*
X9900Y-6200D02*
X9500Y-6200D01*
X9100Y-6200D02*
X8700Y-6200D01*
X8700Y-6200D02*
X8700Y-5600D01*
X8700Y-5600D02*
X9100Y-5600D01*
X15250Y-7450D02*
G75*
G03X15250Y-7450I-50J0D01*
G74*
G01*
X15200Y-7000D02*
X15200Y-7400D01*
X15200Y-7400D02*
X14600Y-7400D01*
X14600Y-7400D02*
X14600Y-7000D01*
X14600Y-6600D02*
X14600Y-6200D01*
X14600Y-6200D02*
X15200Y-6200D01*
X15200Y-6200D02*
X15200Y-6600D01*
X11200Y-6200D02*
G75*
G03X11200Y-6200I-50J0D01*
G74*
G01*
X11600Y-6200D02*
X11200Y-6200D01*
X11200Y-6200D02*
X11200Y-5600D01*
X11200Y-5600D02*
X11600Y-5600D01*
X12000Y-5600D02*
X12400Y-5600D01*
X12400Y-5600D02*
X12400Y-6200D01*
X12400Y-6200D02*
X12000Y-6200D01*
X5450Y-4700D02*
G75*
G03X5450Y-4700I-50J0D01*
G74*
G01*
X4950Y-4700D02*
X5350Y-4700D01*
X5350Y-4700D02*
X5350Y-5300D01*
X5350Y-5300D02*
X4950Y-5300D01*
X4550Y-5300D02*
X4150Y-5300D01*
X4150Y-5300D02*
X4150Y-4700D01*
X4150Y-4700D02*
X4550Y-4700D01*
X2200Y-4950D02*
G75*
G03X2200Y-4950I-50J0D01*
G74*
G01*
X1700Y-4950D02*
X2100Y-4950D01*
X2100Y-4950D02*
X2100Y-5550D01*
X2100Y-5550D02*
X1700Y-5550D01*
X1300Y-5550D02*
X900Y-5550D01*
X900Y-5550D02*
X900Y-4950D01*
X900Y-4950D02*
X1300Y-4950D01*
X3400Y-11300D02*
G75*
G03X3400Y-11300I-50J0D01*
G74*
G01*
X3800Y-11300D02*
X3400Y-11300D01*
X3400Y-11300D02*
X3400Y-10700D01*
X3400Y-10700D02*
X3800Y-10700D01*
X4200Y-10700D02*
X4600Y-10700D01*
X4600Y-10700D02*
X4600Y-11300D01*
X4600Y-11300D02*
X4200Y-11300D01*
X11750Y-15600D02*
G75*
G03X11750Y-15600I-50J0D01*
G74*
G01*
X11700Y-16050D02*
X11700Y-15650D01*
X11700Y-15650D02*
X12300Y-15650D01*
X12300Y-15650D02*
X12300Y-16050D01*
X12300Y-16450D02*
X12300Y-16850D01*
X12300Y-16850D02*
X11700Y-16850D01*
X11700Y-16850D02*
X11700Y-16450D01*
X15500Y-14400D02*
G75*
G03X15500Y-14400I-50J0D01*
G74*
G01*
X15000Y-14400D02*
X15400Y-14400D01*
X15400Y-14400D02*
X15400Y-15000D01*
X15400Y-15000D02*
X15000Y-15000D01*
X14600Y-15000D02*
X14200Y-15000D01*
X14200Y-15000D02*
X14200Y-14400D01*
X14200Y-14400D02*
X14600Y-14400D01*
X7950Y-9700D02*
G75*
G03X7950Y-9700I-50J0D01*
G74*
G01*
X7450Y-9700D02*
X7850Y-9700D01*
X7850Y-9700D02*
X7850Y-10300D01*
X7850Y-10300D02*
X7450Y-10300D01*
X7050Y-10300D02*
X6650Y-10300D01*
X6650Y-10300D02*
X6650Y-9700D01*
X6650Y-9700D02*
X7050Y-9700D01*
X14200Y-16300D02*
G75*
G03X14200Y-16300I-50J0D01*
G74*
G01*
X14600Y-16300D02*
X14200Y-16300D01*
X14200Y-16300D02*
X14200Y-15700D01*
X14200Y-15700D02*
X14600Y-15700D01*
X15000Y-15700D02*
X15400Y-15700D01*
X15400Y-15700D02*
X15400Y-16300D01*
X15400Y-16300D02*
X15000Y-16300D01*
X12350Y-18650D02*
G75*
G03X12350Y-18650I-50J0D01*
G74*
G01*
X12300Y-18200D02*
X12300Y-18600D01*
X12300Y-18600D02*
X11700Y-18600D01*
X11700Y-18600D02*
X11700Y-18200D01*
X11700Y-17800D02*
X11700Y-17400D01*
X11700Y-17400D02*
X12300Y-17400D01*
X12300Y-17400D02*
X12300Y-17800D01*
X11150Y-18650D02*
G75*
G03X11150Y-18650I-50J0D01*
G74*
G01*
X11100Y-18200D02*
X11100Y-18600D01*
X11100Y-18600D02*
X10500Y-18600D01*
X10500Y-18600D02*
X10500Y-18200D01*
X10500Y-17800D02*
X10500Y-17400D01*
X10500Y-17400D02*
X11100Y-17400D01*
X11100Y-17400D02*
X11100Y-17800D01*
X10500Y-15600D02*
G75*
G03X10500Y-15600I-50J0D01*
G74*
G01*
X10450Y-16050D02*
X10450Y-15650D01*
X10450Y-15650D02*
X11050Y-15650D01*
X11050Y-15650D02*
X11050Y-16050D01*
X11050Y-16450D02*
X11050Y-16850D01*
X11050Y-16850D02*
X10450Y-16850D01*
X10450Y-16850D02*
X10450Y-16450D01*
X14850Y-10900D02*
G75*
G03X14850Y-10900I-50J0D01*
G74*
G01*
X14800Y-10450D02*
X14800Y-10850D01*
X14800Y-10850D02*
X14200Y-10850D01*
X14200Y-10850D02*
X14200Y-10450D01*
X14200Y-10050D02*
X14200Y-9650D01*
X14200Y-9650D02*
X14800Y-9650D01*
X14800Y-9650D02*
X14800Y-10050D01*
G54D17*
X15982Y-940D02*
X15982Y-1334D01*
X16218Y-1137D02*
X15785Y-1137D01*
X16612Y-3500D02*
G75*
G03X16612Y-3500I-2362J0D01*
G74*
G01*
G54D18*
X7650Y-8950D02*
X12850Y-8950D01*
X12850Y-8950D02*
X12850Y-6550D01*
X7650Y-6550D02*
X12850Y-6550D01*
X7650Y-8950D02*
X7650Y-6550D01*
G54D10*
X8000Y-7300D02*
X8000Y-6900D01*
X12500Y-7300D02*
X12500Y-6900D01*
G54D19*
X11600Y-8250D02*
X8900Y-8250D01*
X11600Y-8550D02*
X8900Y-8550D01*
X8900Y-7250D02*
X11600Y-7250D01*
G54D10*
X12400Y-8700D02*
X8100Y-8700D01*
X12500Y-7900D02*
X12800Y-7900D01*
X12500Y-7600D02*
X12800Y-7600D01*
X12800Y-7900D02*
X12800Y-7600D01*
X12500Y-8200D02*
X12500Y-7300D01*
X12500Y-8600D02*
X12500Y-8200D01*
X7700Y-7900D02*
X7700Y-7600D01*
X8000Y-8200D02*
X8000Y-7900D01*
X8000Y-7900D02*
X8000Y-7600D01*
X8000Y-7600D02*
X8000Y-7300D01*
X8000Y-8600D02*
X8000Y-8200D01*
X8000Y-7900D02*
X7700Y-7900D01*
X8000Y-7600D02*
X7700Y-7600D01*
G54D19*
X8900Y-6950D02*
X11600Y-6950D01*
G54D10*
X12400Y-6800D02*
X8100Y-6800D01*
X10150Y-7500D02*
X10150Y-8000D01*
X10150Y-8000D02*
X10350Y-8000D01*
X10350Y-8000D02*
X10350Y-7500D01*
X10350Y-7500D02*
X10150Y-7500D01*
X10000Y-7500D02*
X10000Y-7750D01*
X10000Y-7750D02*
X10000Y-8000D01*
G54D19*
X10000Y-7750D02*
X9850Y-7750D01*
G54D10*
X10500Y-7500D02*
X10500Y-7750D01*
X10500Y-7750D02*
X10500Y-8000D01*
G54D19*
X10500Y-7750D02*
X10650Y-7750D01*
X8899Y-6949D02*
G75*
G03X8238Y-7300I1J-800D01*
G74*
G01*
X12260Y-7299D02*
G75*
G03X11600Y-6950I-660J-450D01*
G74*
G01*
G54D10*
X12400Y-8700D02*
G75*
G03X12500Y-8600I0J100D01*
G74*
G01*
G54D19*
X11599Y-8249D02*
G75*
G03X11816Y-8200I0J499D01*
G74*
G01*
X11817Y-7299D02*
G75*
G03X11600Y-7250I-217J-450D01*
G74*
G01*
X11601Y-8549D02*
G75*
G03X12261Y-8198I-2J799D01*
G74*
G01*
X11819Y-8199D02*
G75*
G03X11816Y-7299I-219J449D01*
G74*
G01*
X12261Y-8199D02*
G75*
G03X12261Y-7300I-661J449D01*
G74*
G01*
X8239Y-8200D02*
G75*
G03X8900Y-8550I660J450D01*
G74*
G01*
X8680Y-7300D02*
G75*
G03X8683Y-8200I219J-449D01*
G74*
G01*
X8682Y-8200D02*
G75*
G03X8900Y-8250I217J450D01*
G74*
G01*
X8900Y-7250D02*
G75*
G03X8683Y-7299I0J-499D01*
G74*
G01*
X8238Y-7300D02*
G75*
G03X8238Y-8199I661J-449D01*
G74*
G01*
G54D10*
X8000Y-8600D02*
G75*
G03X8100Y-8700I100J0D01*
G74*
G01*
X12500Y-6900D02*
G75*
G03X12400Y-6800I-100J0D01*
G74*
G01*
X8100Y-6800D02*
G75*
G03X8000Y-6900I0J-100D01*
G74*
G01*
G54D16*
X2950Y-14950D02*
G75*
G03X2950Y-14950I-50J0D01*
G74*
G01*
X2450Y-14950D02*
X2850Y-14950D01*
X2850Y-14950D02*
X2850Y-15550D01*
X2850Y-15550D02*
X2450Y-15550D01*
X2050Y-15550D02*
X1650Y-15550D01*
X1650Y-15550D02*
X1650Y-14950D01*
X1650Y-14950D02*
X2050Y-14950D01*
X1700Y-10700D02*
G75*
G03X1700Y-10700I-50J0D01*
G74*
G01*
X1200Y-10700D02*
X1600Y-10700D01*
X1600Y-10700D02*
X1600Y-11300D01*
X1600Y-11300D02*
X1200Y-11300D01*
X800Y-11300D02*
X400Y-11300D01*
X400Y-11300D02*
X400Y-10700D01*
X400Y-10700D02*
X800Y-10700D01*
X3200Y-10700D02*
G75*
G03X3200Y-10700I-50J0D01*
G74*
G01*
X2700Y-10700D02*
X3100Y-10700D01*
X3100Y-10700D02*
X3100Y-11300D01*
X3100Y-11300D02*
X2700Y-11300D01*
X2300Y-11300D02*
X1900Y-11300D01*
X1900Y-11300D02*
X1900Y-10700D01*
X1900Y-10700D02*
X2300Y-10700D01*
G54D17*
X7037Y-19021D02*
X7037Y-15872D01*
X3494Y-19021D02*
X3494Y-15872D01*
X7037Y-15872D02*
X3494Y-15872D01*
X7037Y-18627D02*
X3494Y-18627D01*
X7037Y-19021D02*
X3494Y-19021D01*
G54D10*
X15800Y-17100D02*
X15800Y-18100D01*
X15800Y-18100D02*
X12800Y-18100D01*
X12800Y-18100D02*
X12800Y-17100D01*
X12800Y-17100D02*
X15800Y-17100D01*
X14800Y-18100D02*
X14800Y-17100D01*
G54D17*
X11200Y1050D02*
X11200Y1350D01*
X11200Y1350D02*
X7800Y1350D01*
X7800Y1350D02*
X7800Y1050D01*
X11200Y-150D02*
X7800Y-150D01*
X11200Y-3950D02*
X7800Y-3950D01*
X7800Y1050D02*
X7800Y-3950D01*
X11200Y1050D02*
X11200Y-3950D01*
G54D14*
X6250Y-5050D02*
X6250Y-5950D01*
X6250Y-5950D02*
X6900Y-5950D01*
X7600Y-5050D02*
X8250Y-5050D01*
X8250Y-5050D02*
X8250Y-5950D01*
X8250Y-5950D02*
X7600Y-5950D01*
X6900Y-5050D02*
X6250Y-5050D01*
X2500Y-4450D02*
X2500Y-3550D01*
X2500Y-3550D02*
X1850Y-3550D01*
X1150Y-4450D02*
X500Y-4450D01*
X500Y-4450D02*
X500Y-3550D01*
X500Y-3550D02*
X1150Y-3550D01*
X1850Y-4450D02*
X2500Y-4450D01*
X5450Y-8000D02*
X4550Y-8000D01*
X4550Y-8000D02*
X4550Y-8650D01*
X5450Y-9350D02*
X5450Y-10000D01*
X5450Y-10000D02*
X4550Y-10000D01*
X4550Y-10000D02*
X4550Y-9350D01*
X5450Y-8650D02*
X5450Y-8000D01*
X1200Y-13700D02*
X1200Y-13750D01*
X1200Y-13750D02*
X3300Y-13750D01*
X3300Y-12250D02*
X1200Y-12250D01*
X1200Y-12250D02*
X1200Y-13700D01*
X1200Y-12800D02*
X1400Y-12800D01*
X1400Y-12800D02*
X1400Y-13200D01*
X1400Y-13200D02*
X1200Y-13200D01*
X3300Y-12250D02*
X3300Y-13750D01*
X16850Y-6400D02*
X15650Y-6400D01*
X15650Y-6400D02*
X15650Y-6100D01*
X15650Y-6100D02*
X16850Y-6100D01*
X16850Y-6100D02*
X16850Y-6400D01*
G54D16*
X15650Y-7800D02*
G75*
G03X15650Y-7800I-50J0D01*
G74*
G01*
X16050Y-7800D02*
X15650Y-7800D01*
X15650Y-7800D02*
X15650Y-7200D01*
X15650Y-7200D02*
X16050Y-7200D01*
X16450Y-7200D02*
X16850Y-7200D01*
X16850Y-7200D02*
X16850Y-7800D01*
X16850Y-7800D02*
X16450Y-7800D01*
G54D10*
X17000Y-3750D02*
X18000Y-3750D01*
X18000Y-3750D02*
X18000Y-5750D01*
X18000Y-5750D02*
X17000Y-5750D01*
X17000Y-5750D02*
X17000Y-3750D01*
G54D15*
X7600Y-18000D02*
X7600Y-15000D01*
X9600Y-15000D02*
X9600Y-18000D01*
X9600Y-18000D02*
X7600Y-18000D01*
X7600Y-15000D02*
X9600Y-15000D01*
G54D13*
X16000Y-13500D02*
X16000Y-9500D01*
X17000Y-13500D02*
X17000Y-9500D01*
X17000Y-9500D02*
X16000Y-9500D01*
X16000Y-13500D02*
X17000Y-13500D01*
G54D20*
X18000Y-7250D02*
X19000Y-7250D01*
X19000Y-7250D02*
X19000Y-13250D01*
X19000Y-13250D02*
X18000Y-13250D01*
X18000Y-13250D02*
X18000Y-7250D01*
X18000Y-8250D02*
X19000Y-8250D01*
G54D15*
X6950Y-10850D02*
X6950Y-14650D01*
X6950Y-14650D02*
X5450Y-14650D01*
X5450Y-14650D02*
X5450Y-10850D01*
X5450Y-10850D02*
X6950Y-10850D01*
X6450Y-10850D02*
X6450Y-11150D01*
X6450Y-11150D02*
X6050Y-11150D01*
X6050Y-11150D02*
X6050Y-10850D01*
G54D21*
X12784Y-9986D02*
X12784Y-10270D01*
X12801Y-10303D01*
X12818Y-10320D01*
X12851Y-10336D01*
X12918Y-10336D01*
X12951Y-10320D01*
X12968Y-10303D01*
X12984Y-10270D01*
X12984Y-9986D01*
X13334Y-10336D02*
X13134Y-10336D01*
X13234Y-10336D02*
X13234Y-9986D01*
X13201Y-10036D01*
X13168Y-10070D01*
X13134Y-10086D01*
X14166Y-8275D02*
X14133Y-8258D01*
X14100Y-8225D01*
X14050Y-8175D01*
X14016Y-8158D01*
X13983Y-8158D01*
X14000Y-8241D02*
X13966Y-8225D01*
X13933Y-8191D01*
X13916Y-8125D01*
X13916Y-8008D01*
X13933Y-7941D01*
X13966Y-7908D01*
X14000Y-7891D01*
X14066Y-7891D01*
X14100Y-7908D01*
X14133Y-7941D01*
X14150Y-8008D01*
X14150Y-8125D01*
X14133Y-8191D01*
X14100Y-8225D01*
X14066Y-8241D01*
X14000Y-8241D01*
X14266Y-7891D02*
X14483Y-7891D01*
X14366Y-8025D01*
X14416Y-8025D01*
X14450Y-8041D01*
X14466Y-8058D01*
X14483Y-8091D01*
X14483Y-8175D01*
X14466Y-8208D01*
X14450Y-8225D01*
X14416Y-8241D01*
X14316Y-8241D01*
X14283Y-8225D01*
X14266Y-8208D01*
X3433Y-10091D02*
X3433Y-10375D01*
X3450Y-10408D01*
X3466Y-10425D01*
X3500Y-10441D01*
X3566Y-10441D01*
X3600Y-10425D01*
X3616Y-10408D01*
X3633Y-10375D01*
X3633Y-10091D01*
X3766Y-10091D02*
X3983Y-10091D01*
X3866Y-10225D01*
X3916Y-10225D01*
X3950Y-10241D01*
X3966Y-10258D01*
X3983Y-10291D01*
X3983Y-10375D01*
X3966Y-10408D01*
X3950Y-10425D01*
X3916Y-10441D01*
X3816Y-10441D01*
X3783Y-10425D01*
X3766Y-10408D01*
X2933Y-4491D02*
X2933Y-4775D01*
X2950Y-4808D01*
X2966Y-4825D01*
X3000Y-4841D01*
X3066Y-4841D01*
X3100Y-4825D01*
X3116Y-4808D01*
X3133Y-4775D01*
X3133Y-4491D01*
X3283Y-4525D02*
X3300Y-4508D01*
X3333Y-4491D01*
X3416Y-4491D01*
X3450Y-4508D01*
X3466Y-4525D01*
X3483Y-4558D01*
X3483Y-4591D01*
X3466Y-4641D01*
X3266Y-4841D01*
X3483Y-4841D01*
X10241Y-15008D02*
X10225Y-15025D01*
X10175Y-15041D01*
X10141Y-15041D01*
X10091Y-15025D01*
X10058Y-14991D01*
X10041Y-14958D01*
X10025Y-14891D01*
X10025Y-14841D01*
X10041Y-14775D01*
X10058Y-14741D01*
X10091Y-14708D01*
X10141Y-14691D01*
X10175Y-14691D01*
X10225Y-14708D01*
X10241Y-14725D01*
X10558Y-14691D02*
X10391Y-14691D01*
X10375Y-14858D01*
X10391Y-14841D01*
X10425Y-14825D01*
X10508Y-14825D01*
X10541Y-14841D01*
X10558Y-14858D01*
X10575Y-14891D01*
X10575Y-14975D01*
X10558Y-15008D01*
X10541Y-15025D01*
X10508Y-15041D01*
X10425Y-15041D01*
X10391Y-15025D01*
X10375Y-15008D01*
X10241Y-5608D02*
X10225Y-5625D01*
X10175Y-5641D01*
X10141Y-5641D01*
X10091Y-5625D01*
X10058Y-5591D01*
X10041Y-5558D01*
X10025Y-5491D01*
X10025Y-5441D01*
X10041Y-5375D01*
X10058Y-5341D01*
X10091Y-5308D01*
X10141Y-5291D01*
X10175Y-5291D01*
X10225Y-5308D01*
X10241Y-5325D01*
X10375Y-5325D02*
X10391Y-5308D01*
X10425Y-5291D01*
X10508Y-5291D01*
X10541Y-5308D01*
X10558Y-5325D01*
X10575Y-5358D01*
X10575Y-5391D01*
X10558Y-5441D01*
X10358Y-5641D01*
X10575Y-5641D01*
X14441Y-6858D02*
X14275Y-6975D01*
X14441Y-7058D02*
X14091Y-7058D01*
X14091Y-6925D01*
X14108Y-6891D01*
X14125Y-6875D01*
X14158Y-6858D01*
X14208Y-6858D01*
X14241Y-6875D01*
X14258Y-6891D01*
X14275Y-6925D01*
X14275Y-7058D01*
X14441Y-6691D02*
X14441Y-6625D01*
X14425Y-6591D01*
X14408Y-6575D01*
X14358Y-6541D01*
X14291Y-6525D01*
X14158Y-6525D01*
X14125Y-6541D01*
X14108Y-6558D01*
X14091Y-6591D01*
X14091Y-6658D01*
X14108Y-6691D01*
X14125Y-6708D01*
X14158Y-6725D01*
X14241Y-6725D01*
X14275Y-6708D01*
X14291Y-6691D01*
X14308Y-6658D01*
X14308Y-6591D01*
X14291Y-6558D01*
X14275Y-6541D01*
X14241Y-6525D01*
X12741Y-6108D02*
X12725Y-6125D01*
X12675Y-6141D01*
X12641Y-6141D01*
X12591Y-6125D01*
X12558Y-6091D01*
X12541Y-6058D01*
X12525Y-5991D01*
X12525Y-5941D01*
X12541Y-5875D01*
X12558Y-5841D01*
X12591Y-5808D01*
X12641Y-5791D01*
X12675Y-5791D01*
X12725Y-5808D01*
X12741Y-5825D01*
X13075Y-6141D02*
X12875Y-6141D01*
X12975Y-6141D02*
X12975Y-5791D01*
X12941Y-5841D01*
X12908Y-5875D01*
X12875Y-5891D01*
X5641Y-5108D02*
X5625Y-5125D01*
X5575Y-5141D01*
X5541Y-5141D01*
X5491Y-5125D01*
X5458Y-5091D01*
X5441Y-5058D01*
X5425Y-4991D01*
X5425Y-4941D01*
X5441Y-4875D01*
X5458Y-4841D01*
X5491Y-4808D01*
X5541Y-4791D01*
X5575Y-4791D01*
X5625Y-4808D01*
X5641Y-4825D01*
X5941Y-4791D02*
X5875Y-4791D01*
X5841Y-4808D01*
X5825Y-4825D01*
X5791Y-4875D01*
X5775Y-4941D01*
X5775Y-5075D01*
X5791Y-5108D01*
X5808Y-5125D01*
X5841Y-5141D01*
X5908Y-5141D01*
X5941Y-5125D01*
X5958Y-5108D01*
X5975Y-5075D01*
X5975Y-4991D01*
X5958Y-4958D01*
X5941Y-4941D01*
X5908Y-4925D01*
X5841Y-4925D01*
X5808Y-4941D01*
X5791Y-4958D01*
X5775Y-4991D01*
X2441Y-5358D02*
X2425Y-5375D01*
X2375Y-5391D01*
X2341Y-5391D01*
X2291Y-5375D01*
X2258Y-5341D01*
X2241Y-5308D01*
X2225Y-5241D01*
X2225Y-5191D01*
X2241Y-5125D01*
X2258Y-5091D01*
X2291Y-5058D01*
X2341Y-5041D01*
X2375Y-5041D01*
X2425Y-5058D01*
X2441Y-5075D01*
X2641Y-5191D02*
X2608Y-5175D01*
X2591Y-5158D01*
X2575Y-5125D01*
X2575Y-5108D01*
X2591Y-5075D01*
X2608Y-5058D01*
X2641Y-5041D01*
X2708Y-5041D01*
X2741Y-5058D01*
X2758Y-5075D01*
X2775Y-5108D01*
X2775Y-5125D01*
X2758Y-5158D01*
X2741Y-5175D01*
X2708Y-5191D01*
X2641Y-5191D01*
X2608Y-5208D01*
X2591Y-5225D01*
X2575Y-5258D01*
X2575Y-5325D01*
X2591Y-5358D01*
X2608Y-5375D01*
X2641Y-5391D01*
X2708Y-5391D01*
X2741Y-5375D01*
X2758Y-5358D01*
X2775Y-5325D01*
X2775Y-5258D01*
X2758Y-5225D01*
X2741Y-5208D01*
X2708Y-5191D01*
X3775Y-11808D02*
X3758Y-11825D01*
X3708Y-11841D01*
X3675Y-11841D01*
X3625Y-11825D01*
X3591Y-11791D01*
X3575Y-11758D01*
X3558Y-11691D01*
X3558Y-11641D01*
X3575Y-11575D01*
X3591Y-11541D01*
X3625Y-11508D01*
X3675Y-11491D01*
X3708Y-11491D01*
X3758Y-11508D01*
X3775Y-11525D01*
X4108Y-11841D02*
X3908Y-11841D01*
X4008Y-11841D02*
X4008Y-11491D01*
X3975Y-11541D01*
X3941Y-11575D01*
X3908Y-11591D01*
X4325Y-11491D02*
X4358Y-11491D01*
X4391Y-11508D01*
X4408Y-11525D01*
X4425Y-11558D01*
X4441Y-11625D01*
X4441Y-11708D01*
X4425Y-11775D01*
X4408Y-11808D01*
X4391Y-11825D01*
X4358Y-11841D01*
X4325Y-11841D01*
X4291Y-11825D01*
X4275Y-11808D01*
X4258Y-11775D01*
X4241Y-11708D01*
X4241Y-11625D01*
X4258Y-11558D01*
X4275Y-11525D01*
X4291Y-11508D01*
X4325Y-11491D01*
X11936Y-17310D02*
X11820Y-17143D01*
X11736Y-17310D02*
X11736Y-16960D01*
X11870Y-16960D01*
X11903Y-16977D01*
X11920Y-16993D01*
X11936Y-17027D01*
X11936Y-17077D01*
X11920Y-17110D01*
X11903Y-17127D01*
X11870Y-17143D01*
X11736Y-17143D01*
X12053Y-16960D02*
X12286Y-16960D01*
X12136Y-17310D01*
X14941Y-14241D02*
X14825Y-14075D01*
X14741Y-14241D02*
X14741Y-13891D01*
X14875Y-13891D01*
X14908Y-13908D01*
X14925Y-13925D01*
X14941Y-13958D01*
X14941Y-14008D01*
X14925Y-14041D01*
X14908Y-14058D01*
X14875Y-14075D01*
X14741Y-14075D01*
X15075Y-13925D02*
X15091Y-13908D01*
X15125Y-13891D01*
X15208Y-13891D01*
X15241Y-13908D01*
X15258Y-13925D01*
X15275Y-13958D01*
X15275Y-13991D01*
X15258Y-14041D01*
X15058Y-14241D01*
X15275Y-14241D01*
X7341Y-9508D02*
X7325Y-9525D01*
X7275Y-9541D01*
X7241Y-9541D01*
X7191Y-9525D01*
X7158Y-9491D01*
X7141Y-9458D01*
X7125Y-9391D01*
X7125Y-9341D01*
X7141Y-9275D01*
X7158Y-9241D01*
X7191Y-9208D01*
X7241Y-9191D01*
X7275Y-9191D01*
X7325Y-9208D01*
X7341Y-9225D01*
X7641Y-9308D02*
X7641Y-9541D01*
X7558Y-9175D02*
X7475Y-9425D01*
X7691Y-9425D01*
X14541Y-15508D02*
X14525Y-15525D01*
X14475Y-15541D01*
X14441Y-15541D01*
X14391Y-15525D01*
X14358Y-15491D01*
X14341Y-15458D01*
X14325Y-15391D01*
X14325Y-15341D01*
X14341Y-15275D01*
X14358Y-15241D01*
X14391Y-15208D01*
X14441Y-15191D01*
X14475Y-15191D01*
X14525Y-15208D01*
X14541Y-15225D01*
X14658Y-15191D02*
X14875Y-15191D01*
X14758Y-15325D01*
X14808Y-15325D01*
X14841Y-15341D01*
X14858Y-15358D01*
X14875Y-15391D01*
X14875Y-15475D01*
X14858Y-15508D01*
X14841Y-15525D01*
X14808Y-15541D01*
X14708Y-15541D01*
X14675Y-15525D01*
X14658Y-15508D01*
X11575Y-19091D02*
X11575Y-18741D01*
X11658Y-18741D01*
X11708Y-18758D01*
X11741Y-18791D01*
X11758Y-18825D01*
X11775Y-18891D01*
X11775Y-18941D01*
X11758Y-19008D01*
X11741Y-19041D01*
X11708Y-19075D01*
X11658Y-19091D01*
X11575Y-19091D01*
X11908Y-19075D02*
X11958Y-19091D01*
X12041Y-19091D01*
X12075Y-19075D01*
X12091Y-19058D01*
X12108Y-19025D01*
X12108Y-18991D01*
X12091Y-18958D01*
X12075Y-18941D01*
X12041Y-18925D01*
X11975Y-18908D01*
X11941Y-18891D01*
X11925Y-18875D01*
X11908Y-18841D01*
X11908Y-18808D01*
X11925Y-18775D01*
X11941Y-18758D01*
X11975Y-18741D01*
X12058Y-18741D01*
X12108Y-18758D01*
X12441Y-19091D02*
X12241Y-19091D01*
X12341Y-19091D02*
X12341Y-18741D01*
X12308Y-18791D01*
X12275Y-18825D01*
X12241Y-18841D01*
X10325Y-19091D02*
X10325Y-18741D01*
X10408Y-18741D01*
X10458Y-18758D01*
X10491Y-18791D01*
X10508Y-18825D01*
X10525Y-18891D01*
X10525Y-18941D01*
X10508Y-19008D01*
X10491Y-19041D01*
X10458Y-19075D01*
X10408Y-19091D01*
X10325Y-19091D01*
X10658Y-19075D02*
X10708Y-19091D01*
X10791Y-19091D01*
X10825Y-19075D01*
X10841Y-19058D01*
X10858Y-19025D01*
X10858Y-18991D01*
X10841Y-18958D01*
X10825Y-18941D01*
X10791Y-18925D01*
X10725Y-18908D01*
X10691Y-18891D01*
X10675Y-18875D01*
X10658Y-18841D01*
X10658Y-18808D01*
X10675Y-18775D01*
X10691Y-18758D01*
X10725Y-18741D01*
X10808Y-18741D01*
X10858Y-18758D01*
X10991Y-18775D02*
X11008Y-18758D01*
X11041Y-18741D01*
X11125Y-18741D01*
X11158Y-18758D01*
X11175Y-18775D01*
X11191Y-18808D01*
X11191Y-18841D01*
X11175Y-18891D01*
X10975Y-19091D01*
X11191Y-19091D01*
X10649Y-17310D02*
X10532Y-17143D01*
X10449Y-17310D02*
X10449Y-16960D01*
X10582Y-16960D01*
X10615Y-16977D01*
X10632Y-16993D01*
X10649Y-17027D01*
X10649Y-17077D01*
X10632Y-17110D01*
X10615Y-17127D01*
X10582Y-17143D01*
X10449Y-17143D01*
X10849Y-17110D02*
X10815Y-17093D01*
X10799Y-17077D01*
X10782Y-17043D01*
X10782Y-17027D01*
X10799Y-16993D01*
X10815Y-16977D01*
X10849Y-16960D01*
X10915Y-16960D01*
X10949Y-16977D01*
X10965Y-16993D01*
X10982Y-17027D01*
X10982Y-17043D01*
X10965Y-17077D01*
X10949Y-17093D01*
X10915Y-17110D01*
X10849Y-17110D01*
X10815Y-17127D01*
X10799Y-17143D01*
X10782Y-17177D01*
X10782Y-17243D01*
X10799Y-17277D01*
X10815Y-17293D01*
X10849Y-17310D01*
X10915Y-17310D01*
X10949Y-17293D01*
X10965Y-17277D01*
X10982Y-17243D01*
X10982Y-17177D01*
X10965Y-17143D01*
X10949Y-17127D01*
X10915Y-17110D01*
X13741Y-10141D02*
X13625Y-9975D01*
X13541Y-10141D02*
X13541Y-9791D01*
X13675Y-9791D01*
X13708Y-9808D01*
X13725Y-9825D01*
X13741Y-9858D01*
X13741Y-9908D01*
X13725Y-9941D01*
X13708Y-9958D01*
X13675Y-9975D01*
X13541Y-9975D01*
X14041Y-9791D02*
X13975Y-9791D01*
X13941Y-9808D01*
X13925Y-9825D01*
X13891Y-9875D01*
X13875Y-9941D01*
X13875Y-10075D01*
X13891Y-10108D01*
X13908Y-10125D01*
X13941Y-10141D01*
X14008Y-10141D01*
X14041Y-10125D01*
X14058Y-10108D01*
X14075Y-10075D01*
X14075Y-9991D01*
X14058Y-9958D01*
X14041Y-9941D01*
X14008Y-9925D01*
X13941Y-9925D01*
X13908Y-9941D01*
X13891Y-9958D01*
X13875Y-9991D01*
X13708Y-658D02*
X13758Y-675D01*
X13775Y-691D01*
X13791Y-725D01*
X13791Y-775D01*
X13775Y-808D01*
X13758Y-825D01*
X13725Y-841D01*
X13591Y-841D01*
X13591Y-491D01*
X13708Y-491D01*
X13741Y-508D01*
X13758Y-525D01*
X13775Y-558D01*
X13775Y-591D01*
X13758Y-625D01*
X13741Y-641D01*
X13708Y-658D01*
X13591Y-658D01*
X13941Y-491D02*
X13941Y-775D01*
X13958Y-808D01*
X13975Y-825D01*
X14008Y-841D01*
X14075Y-841D01*
X14108Y-825D01*
X14125Y-808D01*
X14141Y-775D01*
X14141Y-491D01*
X14275Y-491D02*
X14508Y-491D01*
X14275Y-841D01*
X14508Y-841D01*
X14825Y-841D02*
X14625Y-841D01*
X14725Y-841D02*
X14725Y-491D01*
X14691Y-541D01*
X14658Y-575D01*
X14625Y-591D01*
X8616Y-9091D02*
X8850Y-9441D01*
X8850Y-9091D02*
X8616Y-9441D01*
X9166Y-9441D02*
X8966Y-9441D01*
X9066Y-9441D02*
X9066Y-9091D01*
X9033Y-9141D01*
X9000Y-9175D01*
X8966Y-9191D01*
X1458Y-15475D02*
X1475Y-15491D01*
X1491Y-15541D01*
X1491Y-15575D01*
X1475Y-15625D01*
X1441Y-15658D01*
X1408Y-15675D01*
X1341Y-15691D01*
X1291Y-15691D01*
X1225Y-15675D01*
X1191Y-15658D01*
X1158Y-15625D01*
X1141Y-15575D01*
X1141Y-15541D01*
X1158Y-15491D01*
X1175Y-15475D01*
X1491Y-15141D02*
X1491Y-15341D01*
X1491Y-15241D02*
X1141Y-15241D01*
X1191Y-15275D01*
X1225Y-15308D01*
X1241Y-15341D01*
X1175Y-15008D02*
X1158Y-14991D01*
X1141Y-14958D01*
X1141Y-14875D01*
X1158Y-14841D01*
X1175Y-14825D01*
X1208Y-14808D01*
X1241Y-14808D01*
X1291Y-14825D01*
X1491Y-15025D01*
X1491Y-14808D01*
X735Y-10488D02*
X718Y-10505D01*
X668Y-10521D01*
X635Y-10521D01*
X585Y-10505D01*
X551Y-10471D01*
X535Y-10438D01*
X518Y-10371D01*
X518Y-10321D01*
X535Y-10255D01*
X551Y-10221D01*
X585Y-10188D01*
X635Y-10171D01*
X668Y-10171D01*
X718Y-10188D01*
X735Y-10205D01*
X1068Y-10521D02*
X868Y-10521D01*
X968Y-10521D02*
X968Y-10171D01*
X935Y-10221D01*
X901Y-10255D01*
X868Y-10271D01*
X1185Y-10171D02*
X1401Y-10171D01*
X1285Y-10305D01*
X1335Y-10305D01*
X1368Y-10321D01*
X1385Y-10338D01*
X1401Y-10371D01*
X1401Y-10455D01*
X1385Y-10488D01*
X1368Y-10505D01*
X1335Y-10521D01*
X1235Y-10521D01*
X1201Y-10505D01*
X1185Y-10488D01*
X2275Y-10541D02*
X2158Y-10375D01*
X2075Y-10541D02*
X2075Y-10191D01*
X2208Y-10191D01*
X2241Y-10208D01*
X2258Y-10225D01*
X2275Y-10258D01*
X2275Y-10308D01*
X2258Y-10341D01*
X2241Y-10358D01*
X2208Y-10375D01*
X2075Y-10375D01*
X2608Y-10541D02*
X2408Y-10541D01*
X2508Y-10541D02*
X2508Y-10191D01*
X2475Y-10241D01*
X2441Y-10275D01*
X2408Y-10291D01*
X2825Y-10191D02*
X2858Y-10191D01*
X2891Y-10208D01*
X2908Y-10225D01*
X2925Y-10258D01*
X2941Y-10325D01*
X2941Y-10408D01*
X2925Y-10475D01*
X2908Y-10508D01*
X2891Y-10525D01*
X2858Y-10541D01*
X2825Y-10541D01*
X2791Y-10525D01*
X2775Y-10508D01*
X2758Y-10475D01*
X2741Y-10408D01*
X2741Y-10325D01*
X2758Y-10258D01*
X2775Y-10225D01*
X2791Y-10208D01*
X2825Y-10191D01*
X6330Y-15270D02*
X6330Y-15520D01*
X6313Y-15570D01*
X6280Y-15603D01*
X6230Y-15620D01*
X6196Y-15620D01*
X6480Y-15303D02*
X6496Y-15286D01*
X6530Y-15270D01*
X6613Y-15270D01*
X6646Y-15286D01*
X6663Y-15303D01*
X6680Y-15336D01*
X6680Y-15370D01*
X6663Y-15420D01*
X6463Y-15620D01*
X6680Y-15620D01*
X15791Y-16916D02*
X16041Y-16916D01*
X16091Y-16933D01*
X16125Y-16966D01*
X16141Y-17016D01*
X16141Y-17050D01*
X15791Y-16583D02*
X15791Y-16750D01*
X15958Y-16766D01*
X15941Y-16750D01*
X15925Y-16716D01*
X15925Y-16633D01*
X15941Y-16600D01*
X15958Y-16583D01*
X15991Y-16566D01*
X16075Y-16566D01*
X16108Y-16583D01*
X16125Y-16600D01*
X16141Y-16633D01*
X16141Y-16716D01*
X16125Y-16750D01*
X16108Y-16766D01*
X7141Y-6408D02*
X7125Y-6425D01*
X7075Y-6441D01*
X7041Y-6441D01*
X6991Y-6425D01*
X6958Y-6391D01*
X6941Y-6358D01*
X6925Y-6291D01*
X6925Y-6241D01*
X6941Y-6175D01*
X6958Y-6141D01*
X6991Y-6108D01*
X7041Y-6091D01*
X7075Y-6091D01*
X7125Y-6108D01*
X7141Y-6125D01*
X7258Y-6091D02*
X7491Y-6091D01*
X7341Y-6441D01*
X2541Y-3308D02*
X2525Y-3325D01*
X2475Y-3341D01*
X2441Y-3341D01*
X2391Y-3325D01*
X2358Y-3291D01*
X2341Y-3258D01*
X2325Y-3191D01*
X2325Y-3141D01*
X2341Y-3075D01*
X2358Y-3041D01*
X2391Y-3008D01*
X2441Y-2991D01*
X2475Y-2991D01*
X2525Y-3008D01*
X2541Y-3025D01*
X2708Y-3341D02*
X2775Y-3341D01*
X2808Y-3325D01*
X2825Y-3308D01*
X2858Y-3258D01*
X2875Y-3191D01*
X2875Y-3058D01*
X2858Y-3025D01*
X2841Y-3008D01*
X2808Y-2991D01*
X2741Y-2991D01*
X2708Y-3008D01*
X2691Y-3025D01*
X2675Y-3058D01*
X2675Y-3141D01*
X2691Y-3175D01*
X2708Y-3191D01*
X2741Y-3208D01*
X2808Y-3208D01*
X2841Y-3191D01*
X2858Y-3175D01*
X2875Y-3141D01*
X4775Y-7730D02*
X4758Y-7747D01*
X4708Y-7763D01*
X4675Y-7763D01*
X4625Y-7747D01*
X4591Y-7713D01*
X4575Y-7680D01*
X4558Y-7613D01*
X4558Y-7563D01*
X4575Y-7497D01*
X4591Y-7463D01*
X4625Y-7430D01*
X4675Y-7413D01*
X4708Y-7413D01*
X4758Y-7430D01*
X4775Y-7447D01*
X5108Y-7763D02*
X4908Y-7763D01*
X5008Y-7763D02*
X5008Y-7413D01*
X4975Y-7463D01*
X4941Y-7497D01*
X4908Y-7513D01*
X5441Y-7763D02*
X5241Y-7763D01*
X5341Y-7763D02*
X5341Y-7413D01*
X5308Y-7463D01*
X5275Y-7497D01*
X5241Y-7513D01*
X641Y-13666D02*
X925Y-13666D01*
X958Y-13650D01*
X975Y-13633D01*
X991Y-13600D01*
X991Y-13533D01*
X975Y-13500D01*
X958Y-13483D01*
X925Y-13466D01*
X641Y-13466D01*
X758Y-13150D02*
X991Y-13150D01*
X625Y-13233D02*
X875Y-13316D01*
X875Y-13100D01*
X17266Y-6475D02*
X17233Y-6458D01*
X17200Y-6425D01*
X17150Y-6375D01*
X17116Y-6358D01*
X17083Y-6358D01*
X17100Y-6441D02*
X17066Y-6425D01*
X17033Y-6391D01*
X17016Y-6325D01*
X17016Y-6208D01*
X17033Y-6141D01*
X17066Y-6108D01*
X17100Y-6091D01*
X17166Y-6091D01*
X17200Y-6108D01*
X17233Y-6141D01*
X17250Y-6208D01*
X17250Y-6325D01*
X17233Y-6391D01*
X17200Y-6425D01*
X17166Y-6441D01*
X17100Y-6441D01*
X17550Y-6208D02*
X17550Y-6441D01*
X17466Y-6075D02*
X17383Y-6325D01*
X17600Y-6325D01*
X16075Y-8341D02*
X15958Y-8175D01*
X15875Y-8341D02*
X15875Y-7991D01*
X16008Y-7991D01*
X16041Y-8008D01*
X16058Y-8025D01*
X16075Y-8058D01*
X16075Y-8108D01*
X16058Y-8141D01*
X16041Y-8158D01*
X16008Y-8175D01*
X15875Y-8175D01*
X16408Y-8341D02*
X16208Y-8341D01*
X16308Y-8341D02*
X16308Y-7991D01*
X16275Y-8041D01*
X16241Y-8075D01*
X16208Y-8091D01*
X16725Y-7991D02*
X16558Y-7991D01*
X16541Y-8158D01*
X16558Y-8141D01*
X16591Y-8125D01*
X16675Y-8125D01*
X16708Y-8141D01*
X16725Y-8158D01*
X16741Y-8191D01*
X16741Y-8275D01*
X16725Y-8308D01*
X16708Y-8325D01*
X16675Y-8341D01*
X16591Y-8341D01*
X16558Y-8325D01*
X16541Y-8308D01*
X17283Y-3191D02*
X17283Y-3441D01*
X17266Y-3491D01*
X17233Y-3525D01*
X17183Y-3541D01*
X17150Y-3541D01*
X17600Y-3191D02*
X17533Y-3191D01*
X17500Y-3208D01*
X17483Y-3225D01*
X17450Y-3275D01*
X17433Y-3341D01*
X17433Y-3475D01*
X17450Y-3508D01*
X17466Y-3525D01*
X17500Y-3541D01*
X17566Y-3541D01*
X17600Y-3525D01*
X17616Y-3508D01*
X17633Y-3475D01*
X17633Y-3391D01*
X17616Y-3358D01*
X17600Y-3341D01*
X17566Y-3325D01*
X17500Y-3325D01*
X17466Y-3341D01*
X17450Y-3358D01*
X17433Y-3391D01*
X7083Y-15191D02*
X7083Y-15441D01*
X7066Y-15491D01*
X7033Y-15525D01*
X6983Y-15541D01*
X6950Y-15541D01*
X7400Y-15308D02*
X7400Y-15541D01*
X7316Y-15175D02*
X7233Y-15425D01*
X7450Y-15425D01*
X15816Y-9341D02*
X15816Y-8991D01*
X15900Y-8991D01*
X15950Y-9008D01*
X15983Y-9041D01*
X16000Y-9075D01*
X16016Y-9141D01*
X16016Y-9191D01*
X16000Y-9258D01*
X15983Y-9291D01*
X15950Y-9325D01*
X15900Y-9341D01*
X15816Y-9341D01*
X16166Y-9341D02*
X16166Y-8991D01*
X16316Y-9325D02*
X16366Y-9341D01*
X16450Y-9341D01*
X16483Y-9325D01*
X16500Y-9308D01*
X16516Y-9275D01*
X16516Y-9241D01*
X16500Y-9208D01*
X16483Y-9191D01*
X16450Y-9175D01*
X16383Y-9158D01*
X16350Y-9141D01*
X16333Y-9125D01*
X16316Y-9091D01*
X16316Y-9058D01*
X16333Y-9025D01*
X16350Y-9008D01*
X16383Y-8991D01*
X16466Y-8991D01*
X16516Y-9008D01*
X16666Y-9341D02*
X16666Y-8991D01*
X16800Y-8991D01*
X16833Y-9008D01*
X16850Y-9025D01*
X16866Y-9058D01*
X16866Y-9108D01*
X16850Y-9141D01*
X16833Y-9158D01*
X16800Y-9175D01*
X16666Y-9175D01*
X17200Y-9341D02*
X17000Y-9341D01*
X17100Y-9341D02*
X17100Y-8991D01*
X17066Y-9041D01*
X17033Y-9075D01*
X17000Y-9091D01*
X18376Y-6740D02*
X18376Y-6990D01*
X18359Y-7040D01*
X18326Y-7073D01*
X18276Y-7090D01*
X18242Y-7090D01*
X18509Y-6740D02*
X18726Y-6740D01*
X18609Y-6873D01*
X18659Y-6873D01*
X18692Y-6890D01*
X18709Y-6906D01*
X18726Y-6940D01*
X18726Y-7023D01*
X18709Y-7056D01*
X18692Y-7073D01*
X18659Y-7090D01*
X18559Y-7090D01*
X18526Y-7073D01*
X18509Y-7056D01*
X5233Y-10291D02*
X5233Y-10575D01*
X5250Y-10608D01*
X5266Y-10625D01*
X5300Y-10641D01*
X5366Y-10641D01*
X5400Y-10625D01*
X5416Y-10608D01*
X5433Y-10575D01*
X5433Y-10291D01*
X5766Y-10291D02*
X5600Y-10291D01*
X5583Y-10458D01*
X5600Y-10441D01*
X5633Y-10425D01*
X5716Y-10425D01*
X5750Y-10441D01*
X5766Y-10458D01*
X5783Y-10491D01*
X5783Y-10575D01*
X5766Y-10608D01*
X5750Y-10625D01*
X5716Y-10641D01*
X5633Y-10641D01*
X5600Y-10625D01*
X5583Y-10608D01*
M02*
