G04 #@! TF.FileFunction,Legend,Top*
%FSLAX46Y46*%
G04 Gerber Fmt 4.6, Leading zero omitted, Abs format (unit mm)*
G04 Created by KiCad (PCBNEW 4.0.5) date 06/09/17 19:56:26*
%MOMM*%
%LPD*%
G01*
G04 APERTURE LIST*
%ADD10C,0.150000*%
%ADD11C,0.381000*%
%ADD12C,0.304800*%
%ADD13C,0.120000*%
%ADD14C,0.254000*%
G04 APERTURE END LIST*
D10*
D11*
X37592000Y-3556000D02*
X37592000Y-43688000D01*
X35052000Y-43688000D02*
X35052000Y-3556000D01*
X40132000Y-43688000D02*
X35052000Y-43688000D01*
X40132000Y-3556000D02*
X40132000Y-43688000D01*
X35052000Y-3556000D02*
X40132000Y-3556000D01*
D12*
X39841714Y-12990285D02*
X39938476Y-13062856D01*
X40035238Y-13280570D01*
X40035238Y-13425713D01*
X39938476Y-13643428D01*
X39744952Y-13788570D01*
X39551429Y-13861142D01*
X39164381Y-13933713D01*
X38874095Y-13933713D01*
X38487048Y-13861142D01*
X38293524Y-13788570D01*
X38100000Y-13643428D01*
X38003238Y-13425713D01*
X38003238Y-13280570D01*
X38100000Y-13062856D01*
X38196762Y-12990285D01*
X38003238Y-12046856D02*
X38003238Y-11756570D01*
X38100000Y-11611428D01*
X38293524Y-11466285D01*
X38680571Y-11393713D01*
X39357905Y-11393713D01*
X39744952Y-11466285D01*
X39938476Y-11611428D01*
X40035238Y-11756570D01*
X40035238Y-12046856D01*
X39938476Y-12191999D01*
X39744952Y-12337142D01*
X39357905Y-12409713D01*
X38680571Y-12409713D01*
X38293524Y-12337142D01*
X38100000Y-12191999D01*
X38003238Y-12046856D01*
X40035238Y-10014857D02*
X40035238Y-10740571D01*
X38003238Y-10740571D01*
X40035238Y-8781143D02*
X40035238Y-9506857D01*
X38003238Y-9506857D01*
X39587714Y-24674285D02*
X39684476Y-24746856D01*
X39781238Y-24964570D01*
X39781238Y-25109713D01*
X39684476Y-25327428D01*
X39490952Y-25472570D01*
X39297429Y-25545142D01*
X38910381Y-25617713D01*
X38620095Y-25617713D01*
X38233048Y-25545142D01*
X38039524Y-25472570D01*
X37846000Y-25327428D01*
X37749238Y-25109713D01*
X37749238Y-24964570D01*
X37846000Y-24746856D01*
X37942762Y-24674285D01*
X37749238Y-23730856D02*
X37749238Y-23440570D01*
X37846000Y-23295428D01*
X38039524Y-23150285D01*
X38426571Y-23077713D01*
X39103905Y-23077713D01*
X39490952Y-23150285D01*
X39684476Y-23295428D01*
X39781238Y-23440570D01*
X39781238Y-23730856D01*
X39684476Y-23875999D01*
X39490952Y-24021142D01*
X39103905Y-24093713D01*
X38426571Y-24093713D01*
X38039524Y-24021142D01*
X37846000Y-23875999D01*
X37749238Y-23730856D01*
X39781238Y-21698857D02*
X39781238Y-22424571D01*
X37749238Y-22424571D01*
X39781238Y-20465143D02*
X39781238Y-21190857D01*
X37749238Y-21190857D01*
X39587714Y-36358285D02*
X39684476Y-36430856D01*
X39781238Y-36648570D01*
X39781238Y-36793713D01*
X39684476Y-37011428D01*
X39490952Y-37156570D01*
X39297429Y-37229142D01*
X38910381Y-37301713D01*
X38620095Y-37301713D01*
X38233048Y-37229142D01*
X38039524Y-37156570D01*
X37846000Y-37011428D01*
X37749238Y-36793713D01*
X37749238Y-36648570D01*
X37846000Y-36430856D01*
X37942762Y-36358285D01*
X37749238Y-35414856D02*
X37749238Y-35124570D01*
X37846000Y-34979428D01*
X38039524Y-34834285D01*
X38426571Y-34761713D01*
X39103905Y-34761713D01*
X39490952Y-34834285D01*
X39684476Y-34979428D01*
X39781238Y-35124570D01*
X39781238Y-35414856D01*
X39684476Y-35559999D01*
X39490952Y-35705142D01*
X39103905Y-35777713D01*
X38426571Y-35777713D01*
X38039524Y-35705142D01*
X37846000Y-35559999D01*
X37749238Y-35414856D01*
X39781238Y-33382857D02*
X39781238Y-34108571D01*
X37749238Y-34108571D01*
X39781238Y-32149143D02*
X39781238Y-32874857D01*
X37749238Y-32874857D01*
X35922857Y-13171715D02*
X35922857Y-13679715D01*
X36987238Y-13679715D02*
X34955238Y-13679715D01*
X34955238Y-12954001D01*
X36406667Y-12446000D02*
X36406667Y-11720286D01*
X36987238Y-12591143D02*
X34955238Y-12083143D01*
X36987238Y-11575143D01*
X36890476Y-11139714D02*
X36987238Y-10922000D01*
X36987238Y-10559143D01*
X36890476Y-10414000D01*
X36793714Y-10341429D01*
X36600190Y-10268857D01*
X36406667Y-10268857D01*
X36213143Y-10341429D01*
X36116381Y-10414000D01*
X36019619Y-10559143D01*
X35922857Y-10849429D01*
X35826095Y-10994571D01*
X35729333Y-11067143D01*
X35535810Y-11139714D01*
X35342286Y-11139714D01*
X35148762Y-11067143D01*
X35052000Y-10994571D01*
X34955238Y-10849429D01*
X34955238Y-10486571D01*
X35052000Y-10268857D01*
X34955238Y-9833428D02*
X34955238Y-8962571D01*
X36987238Y-9398000D02*
X34955238Y-9398000D01*
X36176857Y-36539715D02*
X36176857Y-37047715D01*
X37241238Y-37047715D02*
X35209238Y-37047715D01*
X35209238Y-36322001D01*
X36660667Y-35814000D02*
X36660667Y-35088286D01*
X37241238Y-35959143D02*
X35209238Y-35451143D01*
X37241238Y-34943143D01*
X37144476Y-34507714D02*
X37241238Y-34290000D01*
X37241238Y-33927143D01*
X37144476Y-33782000D01*
X37047714Y-33709429D01*
X36854190Y-33636857D01*
X36660667Y-33636857D01*
X36467143Y-33709429D01*
X36370381Y-33782000D01*
X36273619Y-33927143D01*
X36176857Y-34217429D01*
X36080095Y-34362571D01*
X35983333Y-34435143D01*
X35789810Y-34507714D01*
X35596286Y-34507714D01*
X35402762Y-34435143D01*
X35306000Y-34362571D01*
X35209238Y-34217429D01*
X35209238Y-33854571D01*
X35306000Y-33636857D01*
X35209238Y-33201428D02*
X35209238Y-32330571D01*
X37241238Y-32766000D02*
X35209238Y-32766000D01*
X36176857Y-25109715D02*
X36176857Y-25617715D01*
X37241238Y-25617715D02*
X35209238Y-25617715D01*
X35209238Y-24892001D01*
X36660667Y-24384000D02*
X36660667Y-23658286D01*
X37241238Y-24529143D02*
X35209238Y-24021143D01*
X37241238Y-23513143D01*
X37144476Y-23077714D02*
X37241238Y-22860000D01*
X37241238Y-22497143D01*
X37144476Y-22352000D01*
X37047714Y-22279429D01*
X36854190Y-22206857D01*
X36660667Y-22206857D01*
X36467143Y-22279429D01*
X36370381Y-22352000D01*
X36273619Y-22497143D01*
X36176857Y-22787429D01*
X36080095Y-22932571D01*
X35983333Y-23005143D01*
X35789810Y-23077714D01*
X35596286Y-23077714D01*
X35402762Y-23005143D01*
X35306000Y-22932571D01*
X35209238Y-22787429D01*
X35209238Y-22424571D01*
X35306000Y-22206857D01*
X35209238Y-21771428D02*
X35209238Y-20900571D01*
X37241238Y-21336000D02*
X35209238Y-21336000D01*
X43628001Y-35243429D02*
X43918287Y-35243429D01*
X44063429Y-35316000D01*
X44208572Y-35461143D01*
X44281144Y-35751429D01*
X44281144Y-36259429D01*
X44208572Y-36549714D01*
X44063429Y-36694857D01*
X43918287Y-36767429D01*
X43628001Y-36767429D01*
X43482858Y-36694857D01*
X43337715Y-36549714D01*
X43265144Y-36259429D01*
X43265144Y-35751429D01*
X43337715Y-35461143D01*
X43482858Y-35316000D01*
X43628001Y-35243429D01*
X44934286Y-35243429D02*
X44934286Y-36477143D01*
X45006858Y-36622286D01*
X45079429Y-36694857D01*
X45224572Y-36767429D01*
X45514858Y-36767429D01*
X45660000Y-36694857D01*
X45732572Y-36622286D01*
X45805143Y-36477143D01*
X45805143Y-35243429D01*
X46313143Y-35243429D02*
X47184000Y-35243429D01*
X46748571Y-36767429D02*
X46748571Y-35243429D01*
X3205715Y-35243429D02*
X3205715Y-33719429D01*
X3931429Y-35243429D02*
X3931429Y-33719429D01*
X4802286Y-35243429D01*
X4802286Y-33719429D01*
X42612000Y-13795850D02*
X43120000Y-15396050D01*
X43628000Y-13795850D01*
X42612000Y-16500950D02*
X43120000Y-18101150D01*
X43628000Y-16500950D01*
X43555429Y-20806250D02*
X42684572Y-20806250D01*
X43120000Y-20806250D02*
X43120000Y-19206050D01*
X42974857Y-19434650D01*
X42829715Y-19587050D01*
X42684572Y-19663250D01*
X42684572Y-22063550D02*
X42757143Y-21987350D01*
X42902286Y-21911150D01*
X43265143Y-21911150D01*
X43410286Y-21987350D01*
X43482857Y-22063550D01*
X43555429Y-22215950D01*
X43555429Y-22368350D01*
X43482857Y-22596950D01*
X42612000Y-23511350D01*
X43555429Y-23511350D01*
X42612000Y-24616250D02*
X43555429Y-24616250D01*
X43047429Y-25225850D01*
X43265143Y-25225850D01*
X43410286Y-25302050D01*
X43482857Y-25378250D01*
X43555429Y-25530650D01*
X43555429Y-25911650D01*
X43482857Y-26064050D01*
X43410286Y-26140250D01*
X43265143Y-26216450D01*
X42829715Y-26216450D01*
X42684572Y-26140250D01*
X42612000Y-26064050D01*
X43410286Y-27854750D02*
X43410286Y-28921550D01*
X43047429Y-27245150D02*
X42684572Y-28388150D01*
X43628000Y-28388150D01*
X43519143Y-30102650D02*
X43374000Y-30026450D01*
X43156286Y-30026450D01*
X42938571Y-30102650D01*
X42793429Y-30255050D01*
X42720857Y-30407450D01*
X42648286Y-30712250D01*
X42648286Y-30940850D01*
X42720857Y-31245650D01*
X42793429Y-31398050D01*
X42938571Y-31550450D01*
X43156286Y-31626650D01*
X43301429Y-31626650D01*
X43519143Y-31550450D01*
X43591714Y-31474250D01*
X43591714Y-30940850D01*
X43301429Y-30940850D01*
X43519143Y-32807750D02*
X43374000Y-32731550D01*
X43156286Y-32731550D01*
X42938571Y-32807750D01*
X42793429Y-32960150D01*
X42720857Y-33112550D01*
X42648286Y-33417350D01*
X42648286Y-33645950D01*
X42720857Y-33950750D01*
X42793429Y-34103150D01*
X42938571Y-34255550D01*
X43156286Y-34331750D01*
X43301429Y-34331750D01*
X43519143Y-34255550D01*
X43591714Y-34179350D01*
X43591714Y-33645950D01*
X43301429Y-33645950D01*
X5782000Y-12599480D02*
X6290000Y-14186980D01*
X6798000Y-12599480D01*
X5782000Y-15285530D02*
X6290000Y-16873030D01*
X6798000Y-15285530D01*
X6725429Y-19559080D02*
X5854572Y-19559080D01*
X6290000Y-19559080D02*
X6290000Y-17971580D01*
X6144857Y-18198365D01*
X5999715Y-18349556D01*
X5854572Y-18425151D01*
X5854572Y-20808820D02*
X5927143Y-20733225D01*
X6072286Y-20657630D01*
X6435143Y-20657630D01*
X6580286Y-20733225D01*
X6652857Y-20808820D01*
X6725429Y-20960011D01*
X6725429Y-21111201D01*
X6652857Y-21337987D01*
X5782000Y-22245130D01*
X6725429Y-22245130D01*
X5782000Y-23343680D02*
X6725429Y-23343680D01*
X6217429Y-23948442D01*
X6435143Y-23948442D01*
X6580286Y-24024037D01*
X6652857Y-24099632D01*
X6725429Y-24250823D01*
X6725429Y-24628799D01*
X6652857Y-24779989D01*
X6580286Y-24855585D01*
X6435143Y-24931180D01*
X5999715Y-24931180D01*
X5854572Y-24855585D01*
X5782000Y-24779989D01*
X6580286Y-26558896D02*
X6580286Y-27617230D01*
X6217429Y-25954135D02*
X5854572Y-27088063D01*
X6798000Y-27088063D01*
X6689143Y-28791375D02*
X6544000Y-28715780D01*
X6326286Y-28715780D01*
X6108571Y-28791375D01*
X5963429Y-28942565D01*
X5890857Y-29093756D01*
X5818286Y-29396137D01*
X5818286Y-29622923D01*
X5890857Y-29925304D01*
X5963429Y-30076494D01*
X6108571Y-30227685D01*
X6326286Y-30303280D01*
X6471429Y-30303280D01*
X6689143Y-30227685D01*
X6761714Y-30152089D01*
X6761714Y-29622923D01*
X6471429Y-29622923D01*
X6689143Y-31477425D02*
X6544000Y-31401830D01*
X6326286Y-31401830D01*
X6108571Y-31477425D01*
X5963429Y-31628615D01*
X5890857Y-31779806D01*
X5818286Y-32082187D01*
X5818286Y-32308973D01*
X5890857Y-32611354D01*
X5963429Y-32762544D01*
X6108571Y-32913735D01*
X6326286Y-32989330D01*
X6471429Y-32989330D01*
X6689143Y-32913735D01*
X6761714Y-32838139D01*
X6761714Y-32308973D01*
X6471429Y-32308973D01*
X10250715Y-1901976D02*
X10129762Y-1835452D01*
X10069286Y-1702405D01*
X10069286Y-504976D01*
X11278810Y-1901976D02*
X11278810Y-1170214D01*
X11218333Y-1037167D01*
X11097381Y-970643D01*
X10855476Y-970643D01*
X10734524Y-1037167D01*
X11278810Y-1835452D02*
X11157857Y-1901976D01*
X10855476Y-1901976D01*
X10734524Y-1835452D01*
X10674048Y-1702405D01*
X10674048Y-1569357D01*
X10734524Y-1436310D01*
X10855476Y-1369786D01*
X11157857Y-1369786D01*
X11278810Y-1303262D01*
X11883572Y-970643D02*
X11883572Y-1901976D01*
X11883572Y-1103690D02*
X11944048Y-1037167D01*
X12065001Y-970643D01*
X12246429Y-970643D01*
X12367381Y-1037167D01*
X12427858Y-1170214D01*
X12427858Y-1901976D01*
X13576906Y-1901976D02*
X13576906Y-504976D01*
X13576906Y-1835452D02*
X13455953Y-1901976D01*
X13214049Y-1901976D01*
X13093096Y-1835452D01*
X13032620Y-1768929D01*
X12972144Y-1635881D01*
X12972144Y-1236738D01*
X13032620Y-1103690D01*
X13093096Y-1037167D01*
X13214049Y-970643D01*
X13455953Y-970643D01*
X13576906Y-1037167D01*
X14181668Y-1369786D02*
X15149287Y-1369786D01*
X15754049Y-1901976D02*
X15754049Y-504976D01*
X15754049Y-1037167D02*
X15875001Y-970643D01*
X16116906Y-970643D01*
X16237858Y-1037167D01*
X16298335Y-1103690D01*
X16358811Y-1236738D01*
X16358811Y-1635881D01*
X16298335Y-1768929D01*
X16237858Y-1835452D01*
X16116906Y-1901976D01*
X15875001Y-1901976D01*
X15754049Y-1835452D01*
X17084526Y-1901976D02*
X16963573Y-1835452D01*
X16903097Y-1768929D01*
X16842621Y-1635881D01*
X16842621Y-1236738D01*
X16903097Y-1103690D01*
X16963573Y-1037167D01*
X17084526Y-970643D01*
X17265954Y-970643D01*
X17386906Y-1037167D01*
X17447383Y-1103690D01*
X17507859Y-1236738D01*
X17507859Y-1635881D01*
X17447383Y-1768929D01*
X17386906Y-1835452D01*
X17265954Y-1901976D01*
X17084526Y-1901976D01*
X18596431Y-1901976D02*
X18596431Y-1170214D01*
X18535954Y-1037167D01*
X18415002Y-970643D01*
X18173097Y-970643D01*
X18052145Y-1037167D01*
X18596431Y-1835452D02*
X18475478Y-1901976D01*
X18173097Y-1901976D01*
X18052145Y-1835452D01*
X17991669Y-1702405D01*
X17991669Y-1569357D01*
X18052145Y-1436310D01*
X18173097Y-1369786D01*
X18475478Y-1369786D01*
X18596431Y-1303262D01*
X19201193Y-1901976D02*
X19201193Y-970643D01*
X19201193Y-1236738D02*
X19261669Y-1103690D01*
X19322145Y-1037167D01*
X19443098Y-970643D01*
X19564050Y-970643D01*
X20531669Y-1901976D02*
X20531669Y-504976D01*
X20531669Y-1835452D02*
X20410716Y-1901976D01*
X20168812Y-1901976D01*
X20047859Y-1835452D01*
X19987383Y-1768929D01*
X19926907Y-1635881D01*
X19926907Y-1236738D01*
X19987383Y-1103690D01*
X20047859Y-1037167D01*
X20168812Y-970643D01*
X20410716Y-970643D01*
X20531669Y-1037167D01*
X21075955Y-1835452D02*
X21196907Y-1901976D01*
X21438812Y-1901976D01*
X21559764Y-1835452D01*
X21620240Y-1702405D01*
X21620240Y-1635881D01*
X21559764Y-1502833D01*
X21438812Y-1436310D01*
X21257383Y-1436310D01*
X21136431Y-1369786D01*
X21075955Y-1236738D01*
X21075955Y-1170214D01*
X21136431Y-1037167D01*
X21257383Y-970643D01*
X21438812Y-970643D01*
X21559764Y-1037167D01*
X22164526Y-1768929D02*
X22225002Y-1835452D01*
X22164526Y-1901976D01*
X22104050Y-1835452D01*
X22164526Y-1768929D01*
X22164526Y-1901976D01*
X23313574Y-1835452D02*
X23192621Y-1901976D01*
X22950717Y-1901976D01*
X22829764Y-1835452D01*
X22769288Y-1768929D01*
X22708812Y-1635881D01*
X22708812Y-1236738D01*
X22769288Y-1103690D01*
X22829764Y-1037167D01*
X22950717Y-970643D01*
X23192621Y-970643D01*
X23313574Y-1037167D01*
X24039288Y-1901976D02*
X23918335Y-1835452D01*
X23857859Y-1768929D01*
X23797383Y-1635881D01*
X23797383Y-1236738D01*
X23857859Y-1103690D01*
X23918335Y-1037167D01*
X24039288Y-970643D01*
X24220716Y-970643D01*
X24341668Y-1037167D01*
X24402145Y-1103690D01*
X24462621Y-1236738D01*
X24462621Y-1635881D01*
X24402145Y-1768929D01*
X24341668Y-1835452D01*
X24220716Y-1901976D01*
X24039288Y-1901976D01*
X25006907Y-1901976D02*
X25006907Y-970643D01*
X25006907Y-1103690D02*
X25067383Y-1037167D01*
X25188336Y-970643D01*
X25369764Y-970643D01*
X25490716Y-1037167D01*
X25551193Y-1170214D01*
X25551193Y-1901976D01*
X25551193Y-1170214D02*
X25611669Y-1037167D01*
X25732621Y-970643D01*
X25914050Y-970643D01*
X26035002Y-1037167D01*
X26095478Y-1170214D01*
X26095478Y-1901976D01*
X27607383Y-438452D02*
X26518811Y-2234595D01*
X28272621Y-504976D02*
X28514525Y-504976D01*
X28635478Y-571500D01*
X28756430Y-704548D01*
X28816906Y-970643D01*
X28816906Y-1436310D01*
X28756430Y-1702405D01*
X28635478Y-1835452D01*
X28514525Y-1901976D01*
X28272621Y-1901976D01*
X28151668Y-1835452D01*
X28030716Y-1702405D01*
X27970240Y-1436310D01*
X27970240Y-970643D01*
X28030716Y-704548D01*
X28151668Y-571500D01*
X28272621Y-504976D01*
X29361192Y-1901976D02*
X29361192Y-504976D01*
X29845001Y-504976D01*
X29965954Y-571500D01*
X30026430Y-638024D01*
X30086906Y-771071D01*
X30086906Y-970643D01*
X30026430Y-1103690D01*
X29965954Y-1170214D01*
X29845001Y-1236738D01*
X29361192Y-1236738D01*
X30449763Y-504976D02*
X31175478Y-504976D01*
X30812621Y-1901976D02*
X30812621Y-504976D01*
X31840716Y-504976D02*
X32082620Y-504976D01*
X32203573Y-571500D01*
X32324525Y-704548D01*
X32385001Y-970643D01*
X32385001Y-1436310D01*
X32324525Y-1702405D01*
X32203573Y-1835452D01*
X32082620Y-1901976D01*
X31840716Y-1901976D01*
X31719763Y-1835452D01*
X31598811Y-1702405D01*
X31538335Y-1436310D01*
X31538335Y-970643D01*
X31598811Y-704548D01*
X31719763Y-571500D01*
X31840716Y-504976D01*
X33352620Y-1170214D02*
X32929287Y-1170214D01*
X32929287Y-1901976D02*
X32929287Y-504976D01*
X33534049Y-504976D01*
X33957382Y-1502833D02*
X34562144Y-1502833D01*
X33836429Y-1901976D02*
X34259763Y-504976D01*
X34683096Y-1901976D01*
X35045953Y-1835452D02*
X35227381Y-1901976D01*
X35529762Y-1901976D01*
X35650715Y-1835452D01*
X35711191Y-1768929D01*
X35771667Y-1635881D01*
X35771667Y-1502833D01*
X35711191Y-1369786D01*
X35650715Y-1303262D01*
X35529762Y-1236738D01*
X35287858Y-1170214D01*
X35166905Y-1103690D01*
X35106429Y-1037167D01*
X35045953Y-904119D01*
X35045953Y-771071D01*
X35106429Y-638024D01*
X35166905Y-571500D01*
X35287858Y-504976D01*
X35590238Y-504976D01*
X35771667Y-571500D01*
X36134524Y-504976D02*
X36860239Y-504976D01*
X36497382Y-1901976D02*
X36497382Y-504976D01*
X37283572Y-1369786D02*
X38251191Y-1369786D01*
X38795477Y-638024D02*
X38855953Y-571500D01*
X38976905Y-504976D01*
X39279286Y-504976D01*
X39400239Y-571500D01*
X39460715Y-638024D01*
X39521191Y-771071D01*
X39521191Y-904119D01*
X39460715Y-1103690D01*
X38735001Y-1901976D01*
X39521191Y-1901976D01*
X34308142Y-47933429D02*
X33800142Y-47207714D01*
X33437285Y-47933429D02*
X33437285Y-46409429D01*
X34017857Y-46409429D01*
X34162999Y-46482000D01*
X34235571Y-46554571D01*
X34308142Y-46699714D01*
X34308142Y-46917429D01*
X34235571Y-47062571D01*
X34162999Y-47135143D01*
X34017857Y-47207714D01*
X33437285Y-47207714D01*
X34961285Y-47135143D02*
X35469285Y-47135143D01*
X35686999Y-47933429D02*
X34961285Y-47933429D01*
X34961285Y-46409429D01*
X35686999Y-46409429D01*
X36122428Y-46409429D02*
X36630428Y-47933429D01*
X37138428Y-46409429D01*
X38662428Y-46409429D02*
X39678428Y-47933429D01*
X39678428Y-46409429D02*
X38662428Y-47933429D01*
X41057286Y-47933429D02*
X40186429Y-47933429D01*
X40621857Y-47933429D02*
X40621857Y-46409429D01*
X40476714Y-46627143D01*
X40331572Y-46772286D01*
X40186429Y-46844857D01*
D10*
X13300000Y-5955000D02*
X12100000Y-5955000D01*
X12100000Y-4205000D02*
X13300000Y-4205000D01*
X39737000Y-5750000D02*
X39737000Y-6950000D01*
X37987000Y-6950000D02*
X37987000Y-5750000D01*
X13300000Y-17385000D02*
X12100000Y-17385000D01*
X12100000Y-15635000D02*
X13300000Y-15635000D01*
X39483000Y-17180000D02*
X39483000Y-18380000D01*
X37733000Y-18380000D02*
X37733000Y-17180000D01*
X13300000Y-26275000D02*
X12100000Y-26275000D01*
X12100000Y-24525000D02*
X13300000Y-24525000D01*
X39483000Y-28610000D02*
X39483000Y-29810000D01*
X37733000Y-29810000D02*
X37733000Y-28610000D01*
X12665000Y-37070000D02*
X11465000Y-37070000D01*
X11465000Y-35320000D02*
X12665000Y-35320000D01*
X39737000Y-40040000D02*
X39737000Y-41240000D01*
X37987000Y-41240000D02*
X37987000Y-40040000D01*
X25475000Y-2795000D02*
X25475000Y-4065000D01*
X32825000Y-2795000D02*
X32825000Y-4065000D01*
X32825000Y-12465000D02*
X32825000Y-11195000D01*
X25475000Y-12465000D02*
X25475000Y-11195000D01*
X25475000Y-2795000D02*
X32825000Y-2795000D01*
X25475000Y-12465000D02*
X32825000Y-12465000D01*
X25475000Y-4065000D02*
X24190000Y-4065000D01*
X25475000Y-14225000D02*
X25475000Y-15495000D01*
X32825000Y-14225000D02*
X32825000Y-15495000D01*
X32825000Y-23895000D02*
X32825000Y-22625000D01*
X25475000Y-23895000D02*
X25475000Y-22625000D01*
X25475000Y-14225000D02*
X32825000Y-14225000D01*
X25475000Y-23895000D02*
X32825000Y-23895000D01*
X25475000Y-15495000D02*
X24190000Y-15495000D01*
X25535000Y-25645000D02*
X25535000Y-26915000D01*
X32885000Y-25645000D02*
X32885000Y-26915000D01*
X32885000Y-35315000D02*
X32885000Y-34045000D01*
X25535000Y-35315000D02*
X25535000Y-34045000D01*
X25535000Y-25645000D02*
X32885000Y-25645000D01*
X25535000Y-35315000D02*
X32885000Y-35315000D01*
X25535000Y-26915000D02*
X24250000Y-26915000D01*
X25475000Y-37085000D02*
X25475000Y-38355000D01*
X32825000Y-37085000D02*
X32825000Y-38355000D01*
X32825000Y-46755000D02*
X32825000Y-45485000D01*
X25475000Y-46755000D02*
X25475000Y-45485000D01*
X25475000Y-37085000D02*
X32825000Y-37085000D01*
X25475000Y-46755000D02*
X32825000Y-46755000D01*
X25475000Y-38355000D02*
X24190000Y-38355000D01*
X19634200Y-9930180D02*
X20335240Y-9930180D01*
X20335240Y-9930180D02*
X20335240Y-10179100D01*
X20335240Y-12729160D02*
X20335240Y-12929820D01*
X20335240Y-12929820D02*
X19634200Y-12929820D01*
X19634200Y-21360180D02*
X20335240Y-21360180D01*
X20335240Y-21360180D02*
X20335240Y-21609100D01*
X20335240Y-24159160D02*
X20335240Y-24359820D01*
X20335240Y-24359820D02*
X19634200Y-24359820D01*
X19634200Y-32790180D02*
X20335240Y-32790180D01*
X20335240Y-32790180D02*
X20335240Y-33039100D01*
X20335240Y-35589160D02*
X20335240Y-35789820D01*
X20335240Y-35789820D02*
X19634200Y-35789820D01*
X19634200Y-44220180D02*
X20335240Y-44220180D01*
X20335240Y-44220180D02*
X20335240Y-44469100D01*
X20335240Y-47019160D02*
X20335240Y-47219820D01*
X20335240Y-47219820D02*
X19634200Y-47219820D01*
X5020000Y-15250000D02*
X5020000Y-33030000D01*
X5020000Y-33030000D02*
X2480000Y-33030000D01*
X2480000Y-33030000D02*
X2480000Y-15250000D01*
X5300000Y-12430000D02*
X5300000Y-13980000D01*
X5020000Y-15250000D02*
X2480000Y-15250000D01*
X2200000Y-13980000D02*
X2200000Y-12430000D01*
X2200000Y-12430000D02*
X5300000Y-12430000D01*
X46930000Y-16520000D02*
X46930000Y-34300000D01*
X46930000Y-34300000D02*
X44390000Y-34300000D01*
X44390000Y-34300000D02*
X44390000Y-16520000D01*
X47210000Y-13700000D02*
X47210000Y-15250000D01*
X46930000Y-16520000D02*
X44390000Y-16520000D01*
X44110000Y-15250000D02*
X44110000Y-13700000D01*
X44110000Y-13700000D02*
X47210000Y-13700000D01*
X35447000Y-6950000D02*
X35447000Y-5750000D01*
X37197000Y-5750000D02*
X37197000Y-6950000D01*
X35193000Y-18380000D02*
X35193000Y-17180000D01*
X36943000Y-17180000D02*
X36943000Y-18380000D01*
X35193000Y-29810000D02*
X35193000Y-28610000D01*
X36943000Y-28610000D02*
X36943000Y-29810000D01*
X35447000Y-41240000D02*
X35447000Y-40040000D01*
X37197000Y-40040000D02*
X37197000Y-41240000D01*
X13300000Y-11035000D02*
X12100000Y-11035000D01*
X12100000Y-9285000D02*
X13300000Y-9285000D01*
X13300000Y-22465000D02*
X12100000Y-22465000D01*
X12100000Y-20715000D02*
X13300000Y-20715000D01*
X13300000Y-31355000D02*
X12100000Y-31355000D01*
X12100000Y-29605000D02*
X13300000Y-29605000D01*
X12665000Y-42785000D02*
X11465000Y-42785000D01*
X11465000Y-41035000D02*
X12665000Y-41035000D01*
D13*
X19685000Y-6290000D02*
X17085000Y-6290000D01*
X17085000Y-6290000D02*
X17085000Y-8950000D01*
X17085000Y-8950000D02*
X19685000Y-8950000D01*
X19685000Y-8950000D02*
X19685000Y-6290000D01*
X20955000Y-6290000D02*
X22285000Y-6290000D01*
X22285000Y-6290000D02*
X22285000Y-7620000D01*
X19685000Y-17720000D02*
X17085000Y-17720000D01*
X17085000Y-17720000D02*
X17085000Y-20380000D01*
X17085000Y-20380000D02*
X19685000Y-20380000D01*
X19685000Y-20380000D02*
X19685000Y-17720000D01*
X20955000Y-17720000D02*
X22285000Y-17720000D01*
X22285000Y-17720000D02*
X22285000Y-19050000D01*
X19685000Y-29150000D02*
X17085000Y-29150000D01*
X17085000Y-29150000D02*
X17085000Y-31810000D01*
X17085000Y-31810000D02*
X19685000Y-31810000D01*
X19685000Y-31810000D02*
X19685000Y-29150000D01*
X20955000Y-29150000D02*
X22285000Y-29150000D01*
X22285000Y-29150000D02*
X22285000Y-30480000D01*
X19685000Y-40580000D02*
X17085000Y-40580000D01*
X17085000Y-40580000D02*
X17085000Y-43240000D01*
X17085000Y-43240000D02*
X19685000Y-43240000D01*
X19685000Y-43240000D02*
X19685000Y-40580000D01*
X20955000Y-40580000D02*
X22285000Y-40580000D01*
X22285000Y-40580000D02*
X22285000Y-41910000D01*
X13300000Y-8500000D02*
X12100000Y-8500000D01*
X12100000Y-6740000D02*
X13300000Y-6740000D01*
X13300000Y-19930000D02*
X12100000Y-19930000D01*
X12100000Y-18170000D02*
X13300000Y-18170000D01*
X13300000Y-28820000D02*
X12100000Y-28820000D01*
X12100000Y-27060000D02*
X13300000Y-27060000D01*
X12665000Y-40250000D02*
X11465000Y-40250000D01*
X11465000Y-38490000D02*
X12665000Y-38490000D01*
D14*
X12488333Y-4003524D02*
X12065000Y-3398762D01*
X11762619Y-4003524D02*
X11762619Y-2733524D01*
X12246428Y-2733524D01*
X12367381Y-2794000D01*
X12427857Y-2854476D01*
X12488333Y-2975429D01*
X12488333Y-3156857D01*
X12427857Y-3277810D01*
X12367381Y-3338286D01*
X12246428Y-3398762D01*
X11762619Y-3398762D01*
X13697857Y-4003524D02*
X12972143Y-4003524D01*
X13335000Y-4003524D02*
X13335000Y-2733524D01*
X13214048Y-2914952D01*
X13093095Y-3035905D01*
X12972143Y-3096381D01*
X38680571Y-3368524D02*
X38257238Y-2763762D01*
X37954857Y-3368524D02*
X37954857Y-2098524D01*
X38438666Y-2098524D01*
X38559619Y-2159000D01*
X38620095Y-2219476D01*
X38680571Y-2340429D01*
X38680571Y-2521857D01*
X38620095Y-2642810D01*
X38559619Y-2703286D01*
X38438666Y-2763762D01*
X37954857Y-2763762D01*
X39890095Y-3368524D02*
X39164381Y-3368524D01*
X39527238Y-3368524D02*
X39527238Y-2098524D01*
X39406286Y-2279952D01*
X39285333Y-2400905D01*
X39164381Y-2461381D01*
X40313429Y-2098524D02*
X41160095Y-2098524D01*
X40615810Y-3368524D01*
X12488333Y-15433524D02*
X12065000Y-14828762D01*
X11762619Y-15433524D02*
X11762619Y-14163524D01*
X12246428Y-14163524D01*
X12367381Y-14224000D01*
X12427857Y-14284476D01*
X12488333Y-14405429D01*
X12488333Y-14586857D01*
X12427857Y-14707810D01*
X12367381Y-14768286D01*
X12246428Y-14828762D01*
X11762619Y-14828762D01*
X13576905Y-14586857D02*
X13576905Y-15433524D01*
X13274524Y-14103048D02*
X12972143Y-15010190D01*
X13758333Y-15010190D01*
X12488333Y-24196524D02*
X12065000Y-23591762D01*
X11762619Y-24196524D02*
X11762619Y-22926524D01*
X12246428Y-22926524D01*
X12367381Y-22987000D01*
X12427857Y-23047476D01*
X12488333Y-23168429D01*
X12488333Y-23349857D01*
X12427857Y-23470810D01*
X12367381Y-23531286D01*
X12246428Y-23591762D01*
X11762619Y-23591762D01*
X12911667Y-22926524D02*
X13758333Y-22926524D01*
X13214048Y-24196524D01*
X11375571Y-34991524D02*
X10952238Y-34386762D01*
X10649857Y-34991524D02*
X10649857Y-33721524D01*
X11133666Y-33721524D01*
X11254619Y-33782000D01*
X11315095Y-33842476D01*
X11375571Y-33963429D01*
X11375571Y-34144857D01*
X11315095Y-34265810D01*
X11254619Y-34326286D01*
X11133666Y-34386762D01*
X10649857Y-34386762D01*
X12585095Y-34991524D02*
X11859381Y-34991524D01*
X12222238Y-34991524D02*
X12222238Y-33721524D01*
X12101286Y-33902952D01*
X11980333Y-34023905D01*
X11859381Y-34084381D01*
X13371286Y-33721524D02*
X13492238Y-33721524D01*
X13613190Y-33782000D01*
X13673667Y-33842476D01*
X13734143Y-33963429D01*
X13794619Y-34205333D01*
X13794619Y-34507714D01*
X13734143Y-34749619D01*
X13673667Y-34870571D01*
X13613190Y-34931048D01*
X13492238Y-34991524D01*
X13371286Y-34991524D01*
X13250333Y-34931048D01*
X13189857Y-34870571D01*
X13129381Y-34749619D01*
X13068905Y-34507714D01*
X13068905Y-34205333D01*
X13129381Y-33963429D01*
X13189857Y-33842476D01*
X13250333Y-33782000D01*
X13371286Y-33721524D01*
X39061571Y-45405524D02*
X38638238Y-44800762D01*
X38335857Y-45405524D02*
X38335857Y-44135524D01*
X38819666Y-44135524D01*
X38940619Y-44196000D01*
X39001095Y-44256476D01*
X39061571Y-44377429D01*
X39061571Y-44558857D01*
X39001095Y-44679810D01*
X38940619Y-44740286D01*
X38819666Y-44800762D01*
X38335857Y-44800762D01*
X39545381Y-44256476D02*
X39605857Y-44196000D01*
X39726809Y-44135524D01*
X40029190Y-44135524D01*
X40150143Y-44196000D01*
X40210619Y-44256476D01*
X40271095Y-44377429D01*
X40271095Y-44498381D01*
X40210619Y-44679810D01*
X39484905Y-45405524D01*
X40271095Y-45405524D01*
X41057286Y-44135524D02*
X41178238Y-44135524D01*
X41299190Y-44196000D01*
X41359667Y-44256476D01*
X41420143Y-44377429D01*
X41480619Y-44619333D01*
X41480619Y-44921714D01*
X41420143Y-45163619D01*
X41359667Y-45284571D01*
X41299190Y-45345048D01*
X41178238Y-45405524D01*
X41057286Y-45405524D01*
X40936333Y-45345048D01*
X40875857Y-45284571D01*
X40815381Y-45163619D01*
X40754905Y-44921714D01*
X40754905Y-44619333D01*
X40815381Y-44377429D01*
X40875857Y-44256476D01*
X40936333Y-44196000D01*
X41057286Y-44135524D01*
X22908381Y-2352524D02*
X22908381Y-3380619D01*
X22968857Y-3501571D01*
X23029333Y-3562048D01*
X23150286Y-3622524D01*
X23392190Y-3622524D01*
X23513143Y-3562048D01*
X23573619Y-3501571D01*
X23634095Y-3380619D01*
X23634095Y-2352524D01*
X24904095Y-3622524D02*
X24178381Y-3622524D01*
X24541238Y-3622524D02*
X24541238Y-2352524D01*
X24420286Y-2533952D01*
X24299333Y-2654905D01*
X24178381Y-2715381D01*
X23162381Y-13782524D02*
X23162381Y-14810619D01*
X23222857Y-14931571D01*
X23283333Y-14992048D01*
X23404286Y-15052524D01*
X23646190Y-15052524D01*
X23767143Y-14992048D01*
X23827619Y-14931571D01*
X23888095Y-14810619D01*
X23888095Y-13782524D01*
X24432381Y-13903476D02*
X24492857Y-13843000D01*
X24613809Y-13782524D01*
X24916190Y-13782524D01*
X25037143Y-13843000D01*
X25097619Y-13903476D01*
X25158095Y-14024429D01*
X25158095Y-14145381D01*
X25097619Y-14326810D01*
X24371905Y-15052524D01*
X25158095Y-15052524D01*
X23222381Y-25202524D02*
X23222381Y-26230619D01*
X23282857Y-26351571D01*
X23343333Y-26412048D01*
X23464286Y-26472524D01*
X23706190Y-26472524D01*
X23827143Y-26412048D01*
X23887619Y-26351571D01*
X23948095Y-26230619D01*
X23948095Y-25202524D01*
X24431905Y-25202524D02*
X25218095Y-25202524D01*
X24794762Y-25686333D01*
X24976190Y-25686333D01*
X25097143Y-25746810D01*
X25157619Y-25807286D01*
X25218095Y-25928238D01*
X25218095Y-26230619D01*
X25157619Y-26351571D01*
X25097143Y-26412048D01*
X24976190Y-26472524D01*
X24613333Y-26472524D01*
X24492381Y-26412048D01*
X24431905Y-26351571D01*
X23162381Y-36642524D02*
X23162381Y-37670619D01*
X23222857Y-37791571D01*
X23283333Y-37852048D01*
X23404286Y-37912524D01*
X23646190Y-37912524D01*
X23767143Y-37852048D01*
X23827619Y-37791571D01*
X23888095Y-37670619D01*
X23888095Y-36642524D01*
X25037143Y-37065857D02*
X25037143Y-37912524D01*
X24734762Y-36582048D02*
X24432381Y-37489190D01*
X25218571Y-37489190D01*
X15754048Y-12760476D02*
X15633095Y-12700000D01*
X15512143Y-12579048D01*
X15330714Y-12397619D01*
X15209762Y-12337143D01*
X15088810Y-12337143D01*
X15149286Y-12639524D02*
X15028333Y-12579048D01*
X14907381Y-12458095D01*
X14846905Y-12216190D01*
X14846905Y-11792857D01*
X14907381Y-11550952D01*
X15028333Y-11430000D01*
X15149286Y-11369524D01*
X15391190Y-11369524D01*
X15512143Y-11430000D01*
X15633095Y-11550952D01*
X15693571Y-11792857D01*
X15693571Y-12216190D01*
X15633095Y-12458095D01*
X15512143Y-12579048D01*
X15391190Y-12639524D01*
X15149286Y-12639524D01*
X16903095Y-12639524D02*
X16177381Y-12639524D01*
X16540238Y-12639524D02*
X16540238Y-11369524D01*
X16419286Y-11550952D01*
X16298333Y-11671905D01*
X16177381Y-11732381D01*
X15754048Y-23555476D02*
X15633095Y-23495000D01*
X15512143Y-23374048D01*
X15330714Y-23192619D01*
X15209762Y-23132143D01*
X15088810Y-23132143D01*
X15149286Y-23434524D02*
X15028333Y-23374048D01*
X14907381Y-23253095D01*
X14846905Y-23011190D01*
X14846905Y-22587857D01*
X14907381Y-22345952D01*
X15028333Y-22225000D01*
X15149286Y-22164524D01*
X15391190Y-22164524D01*
X15512143Y-22225000D01*
X15633095Y-22345952D01*
X15693571Y-22587857D01*
X15693571Y-23011190D01*
X15633095Y-23253095D01*
X15512143Y-23374048D01*
X15391190Y-23434524D01*
X15149286Y-23434524D01*
X16177381Y-22285476D02*
X16237857Y-22225000D01*
X16358809Y-22164524D01*
X16661190Y-22164524D01*
X16782143Y-22225000D01*
X16842619Y-22285476D01*
X16903095Y-22406429D01*
X16903095Y-22527381D01*
X16842619Y-22708810D01*
X16116905Y-23434524D01*
X16903095Y-23434524D01*
X15754048Y-34985476D02*
X15633095Y-34925000D01*
X15512143Y-34804048D01*
X15330714Y-34622619D01*
X15209762Y-34562143D01*
X15088810Y-34562143D01*
X15149286Y-34864524D02*
X15028333Y-34804048D01*
X14907381Y-34683095D01*
X14846905Y-34441190D01*
X14846905Y-34017857D01*
X14907381Y-33775952D01*
X15028333Y-33655000D01*
X15149286Y-33594524D01*
X15391190Y-33594524D01*
X15512143Y-33655000D01*
X15633095Y-33775952D01*
X15693571Y-34017857D01*
X15693571Y-34441190D01*
X15633095Y-34683095D01*
X15512143Y-34804048D01*
X15391190Y-34864524D01*
X15149286Y-34864524D01*
X16116905Y-33594524D02*
X16903095Y-33594524D01*
X16479762Y-34078333D01*
X16661190Y-34078333D01*
X16782143Y-34138810D01*
X16842619Y-34199286D01*
X16903095Y-34320238D01*
X16903095Y-34622619D01*
X16842619Y-34743571D01*
X16782143Y-34804048D01*
X16661190Y-34864524D01*
X16298333Y-34864524D01*
X16177381Y-34804048D01*
X16116905Y-34743571D01*
X15119048Y-46415476D02*
X14998095Y-46355000D01*
X14877143Y-46234048D01*
X14695714Y-46052619D01*
X14574762Y-45992143D01*
X14453810Y-45992143D01*
X14514286Y-46294524D02*
X14393333Y-46234048D01*
X14272381Y-46113095D01*
X14211905Y-45871190D01*
X14211905Y-45447857D01*
X14272381Y-45205952D01*
X14393333Y-45085000D01*
X14514286Y-45024524D01*
X14756190Y-45024524D01*
X14877143Y-45085000D01*
X14998095Y-45205952D01*
X15058571Y-45447857D01*
X15058571Y-45871190D01*
X14998095Y-46113095D01*
X14877143Y-46234048D01*
X14756190Y-46294524D01*
X14514286Y-46294524D01*
X16147143Y-45447857D02*
X16147143Y-46294524D01*
X15844762Y-44964048D02*
X15542381Y-45871190D01*
X16328571Y-45871190D01*
X2812619Y-12014524D02*
X2812619Y-10744524D01*
X3296428Y-10744524D01*
X3417381Y-10805000D01*
X3477857Y-10865476D01*
X3538333Y-10986429D01*
X3538333Y-11167857D01*
X3477857Y-11288810D01*
X3417381Y-11349286D01*
X3296428Y-11409762D01*
X2812619Y-11409762D01*
X4747857Y-12014524D02*
X4022143Y-12014524D01*
X4385000Y-12014524D02*
X4385000Y-10744524D01*
X4264048Y-10925952D01*
X4143095Y-11046905D01*
X4022143Y-11107381D01*
X43258619Y-13528524D02*
X43258619Y-12258524D01*
X43742428Y-12258524D01*
X43863381Y-12319000D01*
X43923857Y-12379476D01*
X43984333Y-12500429D01*
X43984333Y-12681857D01*
X43923857Y-12802810D01*
X43863381Y-12863286D01*
X43742428Y-12923762D01*
X43258619Y-12923762D01*
X44468143Y-12379476D02*
X44528619Y-12319000D01*
X44649571Y-12258524D01*
X44951952Y-12258524D01*
X45072905Y-12319000D01*
X45133381Y-12379476D01*
X45193857Y-12500429D01*
X45193857Y-12621381D01*
X45133381Y-12802810D01*
X44407667Y-13528524D01*
X45193857Y-13528524D01*
X34870571Y-3368524D02*
X34447238Y-2763762D01*
X34144857Y-3368524D02*
X34144857Y-2098524D01*
X34628666Y-2098524D01*
X34749619Y-2159000D01*
X34810095Y-2219476D01*
X34870571Y-2340429D01*
X34870571Y-2521857D01*
X34810095Y-2642810D01*
X34749619Y-2703286D01*
X34628666Y-2763762D01*
X34144857Y-2763762D01*
X36080095Y-3368524D02*
X35354381Y-3368524D01*
X35717238Y-3368524D02*
X35717238Y-2098524D01*
X35596286Y-2279952D01*
X35475333Y-2400905D01*
X35354381Y-2461381D01*
X36503429Y-2098524D02*
X37289619Y-2098524D01*
X36866286Y-2582333D01*
X37047714Y-2582333D01*
X37168667Y-2642810D01*
X37229143Y-2703286D01*
X37289619Y-2824238D01*
X37289619Y-3126619D01*
X37229143Y-3247571D01*
X37168667Y-3308048D01*
X37047714Y-3368524D01*
X36684857Y-3368524D01*
X36563905Y-3308048D01*
X36503429Y-3247571D01*
X35251571Y-45405524D02*
X34828238Y-44800762D01*
X34525857Y-45405524D02*
X34525857Y-44135524D01*
X35009666Y-44135524D01*
X35130619Y-44196000D01*
X35191095Y-44256476D01*
X35251571Y-44377429D01*
X35251571Y-44558857D01*
X35191095Y-44679810D01*
X35130619Y-44740286D01*
X35009666Y-44800762D01*
X34525857Y-44800762D01*
X36461095Y-45405524D02*
X35735381Y-45405524D01*
X36098238Y-45405524D02*
X36098238Y-44135524D01*
X35977286Y-44316952D01*
X35856333Y-44437905D01*
X35735381Y-44498381D01*
X37549667Y-44135524D02*
X37307762Y-44135524D01*
X37186810Y-44196000D01*
X37126333Y-44256476D01*
X37005381Y-44437905D01*
X36944905Y-44679810D01*
X36944905Y-45163619D01*
X37005381Y-45284571D01*
X37065857Y-45345048D01*
X37186810Y-45405524D01*
X37428714Y-45405524D01*
X37549667Y-45345048D01*
X37610143Y-45284571D01*
X37670619Y-45163619D01*
X37670619Y-44861238D01*
X37610143Y-44740286D01*
X37549667Y-44679810D01*
X37428714Y-44619333D01*
X37186810Y-44619333D01*
X37065857Y-44679810D01*
X37005381Y-44740286D01*
X36944905Y-44861238D01*
X9059333Y-10734524D02*
X8636000Y-10129762D01*
X8333619Y-10734524D02*
X8333619Y-9464524D01*
X8817428Y-9464524D01*
X8938381Y-9525000D01*
X8998857Y-9585476D01*
X9059333Y-9706429D01*
X9059333Y-9887857D01*
X8998857Y-10008810D01*
X8938381Y-10069286D01*
X8817428Y-10129762D01*
X8333619Y-10129762D01*
X9482667Y-9464524D02*
X10268857Y-9464524D01*
X9845524Y-9948333D01*
X10026952Y-9948333D01*
X10147905Y-10008810D01*
X10208381Y-10069286D01*
X10268857Y-10190238D01*
X10268857Y-10492619D01*
X10208381Y-10613571D01*
X10147905Y-10674048D01*
X10026952Y-10734524D01*
X9664095Y-10734524D01*
X9543143Y-10674048D01*
X9482667Y-10613571D01*
X9059333Y-22164524D02*
X8636000Y-21559762D01*
X8333619Y-22164524D02*
X8333619Y-20894524D01*
X8817428Y-20894524D01*
X8938381Y-20955000D01*
X8998857Y-21015476D01*
X9059333Y-21136429D01*
X9059333Y-21317857D01*
X8998857Y-21438810D01*
X8938381Y-21499286D01*
X8817428Y-21559762D01*
X8333619Y-21559762D01*
X10147905Y-20894524D02*
X9906000Y-20894524D01*
X9785048Y-20955000D01*
X9724571Y-21015476D01*
X9603619Y-21196905D01*
X9543143Y-21438810D01*
X9543143Y-21922619D01*
X9603619Y-22043571D01*
X9664095Y-22104048D01*
X9785048Y-22164524D01*
X10026952Y-22164524D01*
X10147905Y-22104048D01*
X10208381Y-22043571D01*
X10268857Y-21922619D01*
X10268857Y-21620238D01*
X10208381Y-21499286D01*
X10147905Y-21438810D01*
X10026952Y-21378333D01*
X9785048Y-21378333D01*
X9664095Y-21438810D01*
X9603619Y-21499286D01*
X9543143Y-21620238D01*
X9059333Y-31054524D02*
X8636000Y-30449762D01*
X8333619Y-31054524D02*
X8333619Y-29784524D01*
X8817428Y-29784524D01*
X8938381Y-29845000D01*
X8998857Y-29905476D01*
X9059333Y-30026429D01*
X9059333Y-30207857D01*
X8998857Y-30328810D01*
X8938381Y-30389286D01*
X8817428Y-30449762D01*
X8333619Y-30449762D01*
X9664095Y-31054524D02*
X9906000Y-31054524D01*
X10026952Y-30994048D01*
X10087428Y-30933571D01*
X10208381Y-30752143D01*
X10268857Y-30510238D01*
X10268857Y-30026429D01*
X10208381Y-29905476D01*
X10147905Y-29845000D01*
X10026952Y-29784524D01*
X9785048Y-29784524D01*
X9664095Y-29845000D01*
X9603619Y-29905476D01*
X9543143Y-30026429D01*
X9543143Y-30328810D01*
X9603619Y-30449762D01*
X9664095Y-30510238D01*
X9785048Y-30570714D01*
X10026952Y-30570714D01*
X10147905Y-30510238D01*
X10208381Y-30449762D01*
X10268857Y-30328810D01*
X11248571Y-44262524D02*
X10825238Y-43657762D01*
X10522857Y-44262524D02*
X10522857Y-42992524D01*
X11006666Y-42992524D01*
X11127619Y-43053000D01*
X11188095Y-43113476D01*
X11248571Y-43234429D01*
X11248571Y-43415857D01*
X11188095Y-43536810D01*
X11127619Y-43597286D01*
X11006666Y-43657762D01*
X10522857Y-43657762D01*
X12458095Y-44262524D02*
X11732381Y-44262524D01*
X12095238Y-44262524D02*
X12095238Y-42992524D01*
X11974286Y-43173952D01*
X11853333Y-43294905D01*
X11732381Y-43355381D01*
X12941905Y-43113476D02*
X13002381Y-43053000D01*
X13123333Y-42992524D01*
X13425714Y-42992524D01*
X13546667Y-43053000D01*
X13607143Y-43113476D01*
X13667619Y-43234429D01*
X13667619Y-43355381D01*
X13607143Y-43536810D01*
X12881429Y-44262524D01*
X13667619Y-44262524D01*
X19987381Y-6162524D02*
X19987381Y-4892524D01*
X19987381Y-5497286D02*
X20713095Y-5497286D01*
X20713095Y-6162524D02*
X20713095Y-4892524D01*
X21983095Y-6162524D02*
X21257381Y-6162524D01*
X21620238Y-6162524D02*
X21620238Y-4892524D01*
X21499286Y-5073952D01*
X21378333Y-5194905D01*
X21257381Y-5255381D01*
X19987381Y-17592524D02*
X19987381Y-16322524D01*
X19987381Y-16927286D02*
X20713095Y-16927286D01*
X20713095Y-17592524D02*
X20713095Y-16322524D01*
X21257381Y-16443476D02*
X21317857Y-16383000D01*
X21438809Y-16322524D01*
X21741190Y-16322524D01*
X21862143Y-16383000D01*
X21922619Y-16443476D01*
X21983095Y-16564429D01*
X21983095Y-16685381D01*
X21922619Y-16866810D01*
X21196905Y-17592524D01*
X21983095Y-17592524D01*
X19987381Y-29022524D02*
X19987381Y-27752524D01*
X19987381Y-28357286D02*
X20713095Y-28357286D01*
X20713095Y-29022524D02*
X20713095Y-27752524D01*
X21196905Y-27752524D02*
X21983095Y-27752524D01*
X21559762Y-28236333D01*
X21741190Y-28236333D01*
X21862143Y-28296810D01*
X21922619Y-28357286D01*
X21983095Y-28478238D01*
X21983095Y-28780619D01*
X21922619Y-28901571D01*
X21862143Y-28962048D01*
X21741190Y-29022524D01*
X21378333Y-29022524D01*
X21257381Y-28962048D01*
X21196905Y-28901571D01*
X19987381Y-40452524D02*
X19987381Y-39182524D01*
X19987381Y-39787286D02*
X20713095Y-39787286D01*
X20713095Y-40452524D02*
X20713095Y-39182524D01*
X21862143Y-39605857D02*
X21862143Y-40452524D01*
X21559762Y-39122048D02*
X21257381Y-40029190D01*
X22043571Y-40029190D01*
X9059333Y-8194524D02*
X8636000Y-7589762D01*
X8333619Y-8194524D02*
X8333619Y-6924524D01*
X8817428Y-6924524D01*
X8938381Y-6985000D01*
X8998857Y-7045476D01*
X9059333Y-7166429D01*
X9059333Y-7347857D01*
X8998857Y-7468810D01*
X8938381Y-7529286D01*
X8817428Y-7589762D01*
X8333619Y-7589762D01*
X9543143Y-7045476D02*
X9603619Y-6985000D01*
X9724571Y-6924524D01*
X10026952Y-6924524D01*
X10147905Y-6985000D01*
X10208381Y-7045476D01*
X10268857Y-7166429D01*
X10268857Y-7287381D01*
X10208381Y-7468810D01*
X9482667Y-8194524D01*
X10268857Y-8194524D01*
X9059333Y-19624524D02*
X8636000Y-19019762D01*
X8333619Y-19624524D02*
X8333619Y-18354524D01*
X8817428Y-18354524D01*
X8938381Y-18415000D01*
X8998857Y-18475476D01*
X9059333Y-18596429D01*
X9059333Y-18777857D01*
X8998857Y-18898810D01*
X8938381Y-18959286D01*
X8817428Y-19019762D01*
X8333619Y-19019762D01*
X10208381Y-18354524D02*
X9603619Y-18354524D01*
X9543143Y-18959286D01*
X9603619Y-18898810D01*
X9724571Y-18838333D01*
X10026952Y-18838333D01*
X10147905Y-18898810D01*
X10208381Y-18959286D01*
X10268857Y-19080238D01*
X10268857Y-19382619D01*
X10208381Y-19503571D01*
X10147905Y-19564048D01*
X10026952Y-19624524D01*
X9724571Y-19624524D01*
X9603619Y-19564048D01*
X9543143Y-19503571D01*
X9059333Y-28514524D02*
X8636000Y-27909762D01*
X8333619Y-28514524D02*
X8333619Y-27244524D01*
X8817428Y-27244524D01*
X8938381Y-27305000D01*
X8998857Y-27365476D01*
X9059333Y-27486429D01*
X9059333Y-27667857D01*
X8998857Y-27788810D01*
X8938381Y-27849286D01*
X8817428Y-27909762D01*
X8333619Y-27909762D01*
X9785048Y-27788810D02*
X9664095Y-27728333D01*
X9603619Y-27667857D01*
X9543143Y-27546905D01*
X9543143Y-27486429D01*
X9603619Y-27365476D01*
X9664095Y-27305000D01*
X9785048Y-27244524D01*
X10026952Y-27244524D01*
X10147905Y-27305000D01*
X10208381Y-27365476D01*
X10268857Y-27486429D01*
X10268857Y-27546905D01*
X10208381Y-27667857D01*
X10147905Y-27728333D01*
X10026952Y-27788810D01*
X9785048Y-27788810D01*
X9664095Y-27849286D01*
X9603619Y-27909762D01*
X9543143Y-28030714D01*
X9543143Y-28272619D01*
X9603619Y-28393571D01*
X9664095Y-28454048D01*
X9785048Y-28514524D01*
X10026952Y-28514524D01*
X10147905Y-28454048D01*
X10208381Y-28393571D01*
X10268857Y-28272619D01*
X10268857Y-28030714D01*
X10208381Y-27909762D01*
X10147905Y-27849286D01*
X10026952Y-27788810D01*
X7311571Y-39944524D02*
X6888238Y-39339762D01*
X6585857Y-39944524D02*
X6585857Y-38674524D01*
X7069666Y-38674524D01*
X7190619Y-38735000D01*
X7251095Y-38795476D01*
X7311571Y-38916429D01*
X7311571Y-39097857D01*
X7251095Y-39218810D01*
X7190619Y-39279286D01*
X7069666Y-39339762D01*
X6585857Y-39339762D01*
X8521095Y-39944524D02*
X7795381Y-39944524D01*
X8158238Y-39944524D02*
X8158238Y-38674524D01*
X8037286Y-38855952D01*
X7916333Y-38976905D01*
X7795381Y-39037381D01*
X9730619Y-39944524D02*
X9004905Y-39944524D01*
X9367762Y-39944524D02*
X9367762Y-38674524D01*
X9246810Y-38855952D01*
X9125857Y-38976905D01*
X9004905Y-39037381D01*
M02*
