%TF.GenerationSoftware,KiCad,Pcbnew,(6.0.1)*%
%TF.CreationDate,2022-05-20T13:50:24-04:00*%
%TF.ProjectId,Proto16-I2C,50726f74-6f31-4362-9d49-32432e6b6963,X1*%
%TF.SameCoordinates,Original*%
%TF.FileFunction,Legend,Bot*%
%TF.FilePolarity,Positive*%
%FSLAX46Y46*%
G04 Gerber Fmt 4.6, Leading zero omitted, Abs format (unit mm)*
G04 Created by KiCad (PCBNEW (6.0.1)) date 2022-05-20 13:50:24*
%MOMM*%
%LPD*%
G01*
G04 APERTURE LIST*
%ADD10C,0.300000*%
%ADD11C,0.635000*%
%ADD12C,0.150000*%
%ADD13C,0.396875*%
%ADD14C,0.200000*%
%ADD15C,0.304800*%
%ADD16C,0.650000*%
G04 APERTURE END LIST*
D10*
X28709428Y-22522571D02*
X28709428Y-21022571D01*
X28352285Y-21022571D01*
X28138000Y-21094000D01*
X27995142Y-21236857D01*
X27923714Y-21379714D01*
X27852285Y-21665428D01*
X27852285Y-21879714D01*
X27923714Y-22165428D01*
X27995142Y-22308285D01*
X28138000Y-22451142D01*
X28352285Y-22522571D01*
X28709428Y-22522571D01*
X26709428Y-21736857D02*
X26495142Y-21808285D01*
X26423714Y-21879714D01*
X26352285Y-22022571D01*
X26352285Y-22236857D01*
X26423714Y-22379714D01*
X26495142Y-22451142D01*
X26638000Y-22522571D01*
X27209428Y-22522571D01*
X27209428Y-21022571D01*
X26709428Y-21022571D01*
X26566571Y-21094000D01*
X26495142Y-21165428D01*
X26423714Y-21308285D01*
X26423714Y-21451142D01*
X26495142Y-21594000D01*
X26566571Y-21665428D01*
X26709428Y-21736857D01*
X27209428Y-21736857D01*
X24566571Y-22522571D02*
X24566571Y-21022571D01*
X23995142Y-21022571D01*
X23852285Y-21094000D01*
X23780857Y-21165428D01*
X23709428Y-21308285D01*
X23709428Y-21522571D01*
X23780857Y-21665428D01*
X23852285Y-21736857D01*
X23995142Y-21808285D01*
X24566571Y-21808285D01*
X23209428Y-21022571D02*
X22852285Y-22522571D01*
X22566571Y-21451142D01*
X22280857Y-22522571D01*
X21923714Y-21022571D01*
X20495142Y-22522571D02*
X20995142Y-21808285D01*
X21352285Y-22522571D02*
X21352285Y-21022571D01*
X20780857Y-21022571D01*
X20638000Y-21094000D01*
X20566571Y-21165428D01*
X20495142Y-21308285D01*
X20495142Y-21522571D01*
X20566571Y-21665428D01*
X20638000Y-21736857D01*
X20780857Y-21808285D01*
X21352285Y-21808285D01*
D11*
X67031809Y-15868347D02*
X67273714Y-15747395D01*
X67394666Y-15505490D01*
X67394666Y-13328347D01*
X64975619Y-15868347D02*
X64975619Y-14537871D01*
X65096571Y-14295966D01*
X65338476Y-14175014D01*
X65822285Y-14175014D01*
X66064190Y-14295966D01*
X64975619Y-15747395D02*
X65217523Y-15868347D01*
X65822285Y-15868347D01*
X66064190Y-15747395D01*
X66185142Y-15505490D01*
X66185142Y-15263585D01*
X66064190Y-15021680D01*
X65822285Y-14900728D01*
X65217523Y-14900728D01*
X64975619Y-14779776D01*
X63766095Y-14175014D02*
X63766095Y-15868347D01*
X63766095Y-14416919D02*
X63645142Y-14295966D01*
X63403238Y-14175014D01*
X63040380Y-14175014D01*
X62798476Y-14295966D01*
X62677523Y-14537871D01*
X62677523Y-15868347D01*
X60379428Y-15868347D02*
X60379428Y-13328347D01*
X60379428Y-15747395D02*
X60621333Y-15868347D01*
X61105142Y-15868347D01*
X61347047Y-15747395D01*
X61468000Y-15626442D01*
X61588952Y-15384538D01*
X61588952Y-14658823D01*
X61468000Y-14416919D01*
X61347047Y-14295966D01*
X61105142Y-14175014D01*
X60621333Y-14175014D01*
X60379428Y-14295966D01*
X59169904Y-14900728D02*
X57234666Y-14900728D01*
X56025142Y-15868347D02*
X56025142Y-13328347D01*
X56025142Y-14295966D02*
X55783238Y-14175014D01*
X55299428Y-14175014D01*
X55057523Y-14295966D01*
X54936571Y-14416919D01*
X54815619Y-14658823D01*
X54815619Y-15384538D01*
X54936571Y-15626442D01*
X55057523Y-15747395D01*
X55299428Y-15868347D01*
X55783238Y-15868347D01*
X56025142Y-15747395D01*
X53364190Y-15868347D02*
X53606095Y-15747395D01*
X53727047Y-15626442D01*
X53848000Y-15384538D01*
X53848000Y-14658823D01*
X53727047Y-14416919D01*
X53606095Y-14295966D01*
X53364190Y-14175014D01*
X53001333Y-14175014D01*
X52759428Y-14295966D01*
X52638476Y-14416919D01*
X52517523Y-14658823D01*
X52517523Y-15384538D01*
X52638476Y-15626442D01*
X52759428Y-15747395D01*
X53001333Y-15868347D01*
X53364190Y-15868347D01*
X50340380Y-15868347D02*
X50340380Y-14537871D01*
X50461333Y-14295966D01*
X50703238Y-14175014D01*
X51187047Y-14175014D01*
X51428952Y-14295966D01*
X50340380Y-15747395D02*
X50582285Y-15868347D01*
X51187047Y-15868347D01*
X51428952Y-15747395D01*
X51549904Y-15505490D01*
X51549904Y-15263585D01*
X51428952Y-15021680D01*
X51187047Y-14900728D01*
X50582285Y-14900728D01*
X50340380Y-14779776D01*
X49130857Y-15868347D02*
X49130857Y-14175014D01*
X49130857Y-14658823D02*
X49009904Y-14416919D01*
X48888952Y-14295966D01*
X48647047Y-14175014D01*
X48405142Y-14175014D01*
X46469904Y-15868347D02*
X46469904Y-13328347D01*
X46469904Y-15747395D02*
X46711809Y-15868347D01*
X47195619Y-15868347D01*
X47437523Y-15747395D01*
X47558476Y-15626442D01*
X47679428Y-15384538D01*
X47679428Y-14658823D01*
X47558476Y-14416919D01*
X47437523Y-14295966D01*
X47195619Y-14175014D01*
X46711809Y-14175014D01*
X46469904Y-14295966D01*
X45381333Y-15747395D02*
X45139428Y-15868347D01*
X44655619Y-15868347D01*
X44413714Y-15747395D01*
X44292761Y-15505490D01*
X44292761Y-15384538D01*
X44413714Y-15142633D01*
X44655619Y-15021680D01*
X45018476Y-15021680D01*
X45260380Y-14900728D01*
X45381333Y-14658823D01*
X45381333Y-14537871D01*
X45260380Y-14295966D01*
X45018476Y-14175014D01*
X44655619Y-14175014D01*
X44413714Y-14295966D01*
X43204190Y-15626442D02*
X43083238Y-15747395D01*
X43204190Y-15868347D01*
X43325142Y-15747395D01*
X43204190Y-15626442D01*
X43204190Y-15868347D01*
X40906095Y-15747395D02*
X41148000Y-15868347D01*
X41631809Y-15868347D01*
X41873714Y-15747395D01*
X41994666Y-15626442D01*
X42115619Y-15384538D01*
X42115619Y-14658823D01*
X41994666Y-14416919D01*
X41873714Y-14295966D01*
X41631809Y-14175014D01*
X41148000Y-14175014D01*
X40906095Y-14295966D01*
X39454666Y-15868347D02*
X39696571Y-15747395D01*
X39817523Y-15626442D01*
X39938476Y-15384538D01*
X39938476Y-14658823D01*
X39817523Y-14416919D01*
X39696571Y-14295966D01*
X39454666Y-14175014D01*
X39091809Y-14175014D01*
X38849904Y-14295966D01*
X38728952Y-14416919D01*
X38608000Y-14658823D01*
X38608000Y-15384538D01*
X38728952Y-15626442D01*
X38849904Y-15747395D01*
X39091809Y-15868347D01*
X39454666Y-15868347D01*
X37519428Y-15868347D02*
X37519428Y-14175014D01*
X37519428Y-14416919D02*
X37398476Y-14295966D01*
X37156571Y-14175014D01*
X36793714Y-14175014D01*
X36551809Y-14295966D01*
X36430857Y-14537871D01*
X36430857Y-15868347D01*
X36430857Y-14537871D02*
X36309904Y-14295966D01*
X36068000Y-14175014D01*
X35705142Y-14175014D01*
X35463238Y-14295966D01*
X35342285Y-14537871D01*
X35342285Y-15868347D01*
X32318476Y-13207395D02*
X34495619Y-16473109D01*
X62677523Y-19957747D02*
X62677523Y-17417747D01*
X61709904Y-17417747D01*
X61468000Y-17538700D01*
X61347047Y-17659652D01*
X61226095Y-17901557D01*
X61226095Y-18264414D01*
X61347047Y-18506319D01*
X61468000Y-18627271D01*
X61709904Y-18748223D01*
X62677523Y-18748223D01*
X58686095Y-19957747D02*
X59532761Y-18748223D01*
X60137523Y-19957747D02*
X60137523Y-17417747D01*
X59169904Y-17417747D01*
X58928000Y-17538700D01*
X58807047Y-17659652D01*
X58686095Y-17901557D01*
X58686095Y-18264414D01*
X58807047Y-18506319D01*
X58928000Y-18627271D01*
X59169904Y-18748223D01*
X60137523Y-18748223D01*
X57113714Y-17417747D02*
X56629904Y-17417747D01*
X56388000Y-17538700D01*
X56146095Y-17780604D01*
X56025142Y-18264414D01*
X56025142Y-19111080D01*
X56146095Y-19594890D01*
X56388000Y-19836795D01*
X56629904Y-19957747D01*
X57113714Y-19957747D01*
X57355619Y-19836795D01*
X57597523Y-19594890D01*
X57718476Y-19111080D01*
X57718476Y-18264414D01*
X57597523Y-17780604D01*
X57355619Y-17538700D01*
X57113714Y-17417747D01*
X55299428Y-17417747D02*
X53848000Y-17417747D01*
X54573714Y-19957747D02*
X54573714Y-17417747D01*
X52517523Y-17417747D02*
X52033714Y-17417747D01*
X51791809Y-17538700D01*
X51549904Y-17780604D01*
X51428952Y-18264414D01*
X51428952Y-19111080D01*
X51549904Y-19594890D01*
X51791809Y-19836795D01*
X52033714Y-19957747D01*
X52517523Y-19957747D01*
X52759428Y-19836795D01*
X53001333Y-19594890D01*
X53122285Y-19111080D01*
X53122285Y-18264414D01*
X53001333Y-17780604D01*
X52759428Y-17538700D01*
X52517523Y-17417747D01*
X49009904Y-19957747D02*
X50461333Y-19957747D01*
X49735619Y-19957747D02*
X49735619Y-17417747D01*
X49977523Y-17780604D01*
X50219428Y-18022509D01*
X50461333Y-18143461D01*
X46832761Y-17417747D02*
X47316571Y-17417747D01*
X47558476Y-17538700D01*
X47679428Y-17659652D01*
X47921333Y-18022509D01*
X48042285Y-18506319D01*
X48042285Y-19473938D01*
X47921333Y-19715842D01*
X47800380Y-19836795D01*
X47558476Y-19957747D01*
X47074666Y-19957747D01*
X46832761Y-19836795D01*
X46711809Y-19715842D01*
X46590857Y-19473938D01*
X46590857Y-18869176D01*
X46711809Y-18627271D01*
X46832761Y-18506319D01*
X47074666Y-18385366D01*
X47558476Y-18385366D01*
X47800380Y-18506319D01*
X47921333Y-18627271D01*
X48042285Y-18869176D01*
X45502285Y-18990128D02*
X43567047Y-18990128D01*
X42357523Y-19957747D02*
X42357523Y-17417747D01*
X41268952Y-17659652D02*
X41148000Y-17538700D01*
X40906095Y-17417747D01*
X40301333Y-17417747D01*
X40059428Y-17538700D01*
X39938476Y-17659652D01*
X39817523Y-17901557D01*
X39817523Y-18143461D01*
X39938476Y-18506319D01*
X41389904Y-19957747D01*
X39817523Y-19957747D01*
X37277523Y-19715842D02*
X37398476Y-19836795D01*
X37761333Y-19957747D01*
X38003238Y-19957747D01*
X38366095Y-19836795D01*
X38608000Y-19594890D01*
X38728952Y-19352985D01*
X38849904Y-18869176D01*
X38849904Y-18506319D01*
X38728952Y-18022509D01*
X38608000Y-17780604D01*
X38366095Y-17538700D01*
X38003238Y-17417747D01*
X37761333Y-17417747D01*
X37398476Y-17538700D01*
X37277523Y-17659652D01*
D12*
X20066000Y-71374000D02*
X20066000Y-70612000D01*
X19304000Y-71882000D02*
X20066000Y-71374000D01*
X19304000Y-71882000D02*
X18796000Y-71374000D01*
X18796000Y-40386000D02*
X19812000Y-42037000D01*
X16510000Y-41910000D02*
X19812000Y-42037000D01*
X20574000Y-40894000D02*
X20066000Y-41656000D01*
X19050000Y-43180000D02*
X20574000Y-40894000D01*
D13*
X19958654Y-35997507D02*
X21546154Y-36526674D01*
X19958654Y-37055840D01*
X21394964Y-38492150D02*
X21470559Y-38416555D01*
X21546154Y-38189769D01*
X21546154Y-38038578D01*
X21470559Y-37811793D01*
X21319369Y-37660602D01*
X21168178Y-37585007D01*
X20865797Y-37509412D01*
X20639011Y-37509412D01*
X20336630Y-37585007D01*
X20185440Y-37660602D01*
X20034250Y-37811793D01*
X19958654Y-38038578D01*
X19958654Y-38189769D01*
X20034250Y-38416555D01*
X20109845Y-38492150D01*
X21394964Y-40079650D02*
X21470559Y-40004055D01*
X21546154Y-39777269D01*
X21546154Y-39626078D01*
X21470559Y-39399293D01*
X21319369Y-39248102D01*
X21168178Y-39172507D01*
X20865797Y-39096912D01*
X20639011Y-39096912D01*
X20336630Y-39172507D01*
X20185440Y-39248102D01*
X20034250Y-39399293D01*
X19958654Y-39626078D01*
X19958654Y-39777269D01*
X20034250Y-40004055D01*
X20109845Y-40079650D01*
X19526250Y-66725459D02*
X19450654Y-66574269D01*
X19450654Y-66347483D01*
X19526250Y-66120697D01*
X19677440Y-65969507D01*
X19828630Y-65893912D01*
X20131011Y-65818316D01*
X20357797Y-65818316D01*
X20660178Y-65893912D01*
X20811369Y-65969507D01*
X20962559Y-66120697D01*
X21038154Y-66347483D01*
X21038154Y-66498674D01*
X20962559Y-66725459D01*
X20886964Y-66801055D01*
X20357797Y-66801055D01*
X20357797Y-66498674D01*
X21038154Y-67481412D02*
X19450654Y-67481412D01*
X21038154Y-68388555D01*
X19450654Y-68388555D01*
X21038154Y-69144507D02*
X19450654Y-69144507D01*
X19450654Y-69522483D01*
X19526250Y-69749269D01*
X19677440Y-69900459D01*
X19828630Y-69976055D01*
X20131011Y-70051650D01*
X20357797Y-70051650D01*
X20660178Y-69976055D01*
X20811369Y-69900459D01*
X20962559Y-69749269D01*
X21038154Y-69522483D01*
X21038154Y-69144507D01*
D12*
X19050000Y-73660000D02*
X18796000Y-73660000D01*
X19050000Y-72136000D02*
X19050000Y-73660000D01*
X19304000Y-71882000D02*
X19177000Y-72009000D01*
X19050000Y-72136000D02*
X19304000Y-71882000D01*
X16510000Y-72136000D02*
X19050000Y-72136000D01*
X58674000Y-75438000D02*
X68072000Y-75438000D01*
D13*
X19610349Y-74378154D02*
X20517492Y-74378154D01*
X20063921Y-74378154D02*
X20063921Y-72790654D01*
X20215111Y-73017440D01*
X20366302Y-73168630D01*
X20517492Y-73244226D01*
X12994254Y-72854154D02*
X13901397Y-72854154D01*
X13447825Y-72854154D02*
X13447825Y-71266654D01*
X13599016Y-71493440D01*
X13750206Y-71644630D01*
X13901397Y-71720226D01*
X11633540Y-71795821D02*
X11633540Y-72854154D01*
X12011516Y-71191059D02*
X12389492Y-72324988D01*
X11406754Y-72324988D01*
X13901397Y-41191845D02*
X13825802Y-41116250D01*
X13674611Y-41040654D01*
X13296635Y-41040654D01*
X13145444Y-41116250D01*
X13069849Y-41191845D01*
X12994254Y-41343035D01*
X12994254Y-41494226D01*
X13069849Y-41721011D01*
X13976992Y-42628154D01*
X12994254Y-42628154D01*
X11557944Y-41040654D02*
X12313897Y-41040654D01*
X12389492Y-41796607D01*
X12313897Y-41721011D01*
X12162706Y-41645416D01*
X11784730Y-41645416D01*
X11633540Y-41721011D01*
X11557944Y-41796607D01*
X11482349Y-41947797D01*
X11482349Y-42325773D01*
X11557944Y-42476964D01*
X11633540Y-42552559D01*
X11784730Y-42628154D01*
X12162706Y-42628154D01*
X12313897Y-42552559D01*
X12389492Y-42476964D01*
X18328254Y-39072154D02*
X19235397Y-39072154D01*
X18781825Y-39072154D02*
X18781825Y-37484654D01*
X18933016Y-37711440D01*
X19084206Y-37862630D01*
X19235397Y-37938226D01*
X17799087Y-37484654D02*
X16816349Y-37484654D01*
X17345516Y-38089416D01*
X17118730Y-38089416D01*
X16967540Y-38165011D01*
X16891944Y-38240607D01*
X16816349Y-38391797D01*
X16816349Y-38769773D01*
X16891944Y-38920964D01*
X16967540Y-38996559D01*
X17118730Y-39072154D01*
X17572302Y-39072154D01*
X17723492Y-38996559D01*
X17799087Y-38920964D01*
D10*
X62185857Y-74909071D02*
X62185857Y-73409071D01*
X61543000Y-73551928D02*
X61471571Y-73480500D01*
X61328714Y-73409071D01*
X60971571Y-73409071D01*
X60828714Y-73480500D01*
X60757285Y-73551928D01*
X60685857Y-73694785D01*
X60685857Y-73837642D01*
X60757285Y-74051928D01*
X61614428Y-74909071D01*
X60685857Y-74909071D01*
X59185857Y-74766214D02*
X59257285Y-74837642D01*
X59471571Y-74909071D01*
X59614428Y-74909071D01*
X59828714Y-74837642D01*
X59971571Y-74694785D01*
X60043000Y-74551928D01*
X60114428Y-74266214D01*
X60114428Y-74051928D01*
X60043000Y-73766214D01*
X59971571Y-73623357D01*
X59828714Y-73480500D01*
X59614428Y-73409071D01*
X59471571Y-73409071D01*
X59257285Y-73480500D01*
X59185857Y-73551928D01*
X62400142Y-75824071D02*
X61543000Y-75824071D01*
X61971571Y-77324071D02*
X61971571Y-75824071D01*
X61043000Y-76538357D02*
X60543000Y-76538357D01*
X60328714Y-77324071D02*
X61043000Y-77324071D01*
X61043000Y-75824071D01*
X60328714Y-75824071D01*
X58828714Y-77324071D02*
X59328714Y-76609785D01*
X59685857Y-77324071D02*
X59685857Y-75824071D01*
X59114428Y-75824071D01*
X58971571Y-75895500D01*
X58900142Y-75966928D01*
X58828714Y-76109785D01*
X58828714Y-76324071D01*
X58900142Y-76466928D01*
X58971571Y-76538357D01*
X59114428Y-76609785D01*
X59685857Y-76609785D01*
X58185857Y-77324071D02*
X58185857Y-75824071D01*
X57685857Y-76895500D01*
X57185857Y-75824071D01*
X57185857Y-77324071D01*
X53926857Y-96791857D02*
X53426857Y-96791857D01*
X53212571Y-97577571D02*
X53926857Y-97577571D01*
X53926857Y-96077571D01*
X53212571Y-96077571D01*
X52569714Y-96791857D02*
X52069714Y-96791857D01*
X51855428Y-97577571D02*
X52569714Y-97577571D01*
X52569714Y-96077571D01*
X51855428Y-96077571D01*
X51212571Y-97577571D02*
X51212571Y-96077571D01*
X50641142Y-96077571D01*
X50498285Y-96149000D01*
X50426857Y-96220428D01*
X50355428Y-96363285D01*
X50355428Y-96577571D01*
X50426857Y-96720428D01*
X50498285Y-96791857D01*
X50641142Y-96863285D01*
X51212571Y-96863285D01*
X48855428Y-97577571D02*
X49355428Y-96863285D01*
X49712571Y-97577571D02*
X49712571Y-96077571D01*
X49141142Y-96077571D01*
X48998285Y-96149000D01*
X48926857Y-96220428D01*
X48855428Y-96363285D01*
X48855428Y-96577571D01*
X48926857Y-96720428D01*
X48998285Y-96791857D01*
X49141142Y-96863285D01*
X49712571Y-96863285D01*
X47926857Y-96077571D02*
X47641142Y-96077571D01*
X47498285Y-96149000D01*
X47355428Y-96291857D01*
X47284000Y-96577571D01*
X47284000Y-97077571D01*
X47355428Y-97363285D01*
X47498285Y-97506142D01*
X47641142Y-97577571D01*
X47926857Y-97577571D01*
X48069714Y-97506142D01*
X48212571Y-97363285D01*
X48284000Y-97077571D01*
X48284000Y-96577571D01*
X48212571Y-96291857D01*
X48069714Y-96149000D01*
X47926857Y-96077571D01*
X46641142Y-97577571D02*
X46641142Y-96077571D01*
X46141142Y-97149000D01*
X45641142Y-96077571D01*
X45641142Y-97577571D01*
X52784000Y-98492571D02*
X52426857Y-99992571D01*
X52141142Y-98921142D01*
X51855428Y-99992571D01*
X51498285Y-98492571D01*
X50069714Y-99992571D02*
X50569714Y-99278285D01*
X50926857Y-99992571D02*
X50926857Y-98492571D01*
X50355428Y-98492571D01*
X50212571Y-98564000D01*
X50141142Y-98635428D01*
X50069714Y-98778285D01*
X50069714Y-98992571D01*
X50141142Y-99135428D01*
X50212571Y-99206857D01*
X50355428Y-99278285D01*
X50926857Y-99278285D01*
X49426857Y-99992571D02*
X49426857Y-98492571D01*
X48926857Y-98492571D02*
X48069714Y-98492571D01*
X48498285Y-99992571D02*
X48498285Y-98492571D01*
X47569714Y-99206857D02*
X47069714Y-99206857D01*
X46855428Y-99992571D02*
X47569714Y-99992571D01*
X47569714Y-98492571D01*
X46855428Y-98492571D01*
X53569714Y-101621857D02*
X53069714Y-101621857D01*
X52855428Y-102407571D02*
X53569714Y-102407571D01*
X53569714Y-100907571D01*
X52855428Y-100907571D01*
X52212571Y-102407571D02*
X52212571Y-100907571D01*
X51355428Y-102407571D01*
X51355428Y-100907571D01*
X50712571Y-101979000D02*
X49998285Y-101979000D01*
X50855428Y-102407571D02*
X50355428Y-100907571D01*
X49855428Y-102407571D01*
X48855428Y-101621857D02*
X48641142Y-101693285D01*
X48569714Y-101764714D01*
X48498285Y-101907571D01*
X48498285Y-102121857D01*
X48569714Y-102264714D01*
X48641142Y-102336142D01*
X48784000Y-102407571D01*
X49355428Y-102407571D01*
X49355428Y-100907571D01*
X48855428Y-100907571D01*
X48712571Y-100979000D01*
X48641142Y-101050428D01*
X48569714Y-101193285D01*
X48569714Y-101336142D01*
X48641142Y-101479000D01*
X48712571Y-101550428D01*
X48855428Y-101621857D01*
X49355428Y-101621857D01*
X47141142Y-102407571D02*
X47855428Y-102407571D01*
X47855428Y-100907571D01*
X46641142Y-101621857D02*
X46141142Y-101621857D01*
X45926857Y-102407571D02*
X46641142Y-102407571D01*
X46641142Y-100907571D01*
X45926857Y-100907571D01*
D13*
X81610540Y-27622500D02*
X81761730Y-27546904D01*
X81988516Y-27546904D01*
X82215302Y-27622500D01*
X82366492Y-27773690D01*
X82442087Y-27924880D01*
X82517683Y-28227261D01*
X82517683Y-28454047D01*
X82442087Y-28756428D01*
X82366492Y-28907619D01*
X82215302Y-29058809D01*
X81988516Y-29134404D01*
X81837325Y-29134404D01*
X81610540Y-29058809D01*
X81534944Y-28983214D01*
X81534944Y-28454047D01*
X81837325Y-28454047D01*
X80854587Y-29134404D02*
X80854587Y-27546904D01*
X79947444Y-29134404D01*
X79947444Y-27546904D01*
X79191492Y-29134404D02*
X79191492Y-27546904D01*
X78813516Y-27546904D01*
X78586730Y-27622500D01*
X78435540Y-27773690D01*
X78359944Y-27924880D01*
X78284349Y-28227261D01*
X78284349Y-28454047D01*
X78359944Y-28756428D01*
X78435540Y-28907619D01*
X78586730Y-29058809D01*
X78813516Y-29134404D01*
X79191492Y-29134404D01*
X82366492Y-30102779D02*
X81837325Y-31690279D01*
X81308159Y-30102779D01*
X79871849Y-31539089D02*
X79947444Y-31614684D01*
X80174230Y-31690279D01*
X80325421Y-31690279D01*
X80552206Y-31614684D01*
X80703397Y-31463494D01*
X80778992Y-31312303D01*
X80854587Y-31009922D01*
X80854587Y-30783136D01*
X80778992Y-30480755D01*
X80703397Y-30329565D01*
X80552206Y-30178375D01*
X80325421Y-30102779D01*
X80174230Y-30102779D01*
X79947444Y-30178375D01*
X79871849Y-30253970D01*
X78284349Y-31539089D02*
X78359944Y-31614684D01*
X78586730Y-31690279D01*
X78737921Y-31690279D01*
X78964706Y-31614684D01*
X79115897Y-31463494D01*
X79191492Y-31312303D01*
X79267087Y-31009922D01*
X79267087Y-30783136D01*
X79191492Y-30480755D01*
X79115897Y-30329565D01*
X78964706Y-30178375D01*
X78737921Y-30102779D01*
X78586730Y-30102779D01*
X78359944Y-30178375D01*
X78284349Y-30253970D01*
X81610540Y-32734250D02*
X81761730Y-32658654D01*
X81988516Y-32658654D01*
X82215302Y-32734250D01*
X82366492Y-32885440D01*
X82442087Y-33036630D01*
X82517683Y-33339011D01*
X82517683Y-33565797D01*
X82442087Y-33868178D01*
X82366492Y-34019369D01*
X82215302Y-34170559D01*
X81988516Y-34246154D01*
X81837325Y-34246154D01*
X81610540Y-34170559D01*
X81534944Y-34094964D01*
X81534944Y-33565797D01*
X81837325Y-33565797D01*
X80854587Y-34246154D02*
X80854587Y-32658654D01*
X79947444Y-34246154D01*
X79947444Y-32658654D01*
X79191492Y-34246154D02*
X79191492Y-32658654D01*
X78813516Y-32658654D01*
X78586730Y-32734250D01*
X78435540Y-32885440D01*
X78359944Y-33036630D01*
X78284349Y-33339011D01*
X78284349Y-33565797D01*
X78359944Y-33868178D01*
X78435540Y-34019369D01*
X78586730Y-34170559D01*
X78813516Y-34246154D01*
X79191492Y-34246154D01*
X82366492Y-35214529D02*
X81837325Y-36802029D01*
X81308159Y-35214529D01*
X79871849Y-36650839D02*
X79947444Y-36726434D01*
X80174230Y-36802029D01*
X80325421Y-36802029D01*
X80552206Y-36726434D01*
X80703397Y-36575244D01*
X80778992Y-36424053D01*
X80854587Y-36121672D01*
X80854587Y-35894886D01*
X80778992Y-35592505D01*
X80703397Y-35441315D01*
X80552206Y-35290125D01*
X80325421Y-35214529D01*
X80174230Y-35214529D01*
X79947444Y-35290125D01*
X79871849Y-35365720D01*
X78284349Y-36650839D02*
X78359944Y-36726434D01*
X78586730Y-36802029D01*
X78737921Y-36802029D01*
X78964706Y-36726434D01*
X79115897Y-36575244D01*
X79191492Y-36424053D01*
X79267087Y-36121672D01*
X79267087Y-35894886D01*
X79191492Y-35592505D01*
X79115897Y-35441315D01*
X78964706Y-35290125D01*
X78737921Y-35214529D01*
X78586730Y-35214529D01*
X78359944Y-35290125D01*
X78284349Y-35365720D01*
X81610540Y-37846000D02*
X81761730Y-37770404D01*
X81988516Y-37770404D01*
X82215302Y-37846000D01*
X82366492Y-37997190D01*
X82442087Y-38148380D01*
X82517683Y-38450761D01*
X82517683Y-38677547D01*
X82442087Y-38979928D01*
X82366492Y-39131119D01*
X82215302Y-39282309D01*
X81988516Y-39357904D01*
X81837325Y-39357904D01*
X81610540Y-39282309D01*
X81534944Y-39206714D01*
X81534944Y-38677547D01*
X81837325Y-38677547D01*
X80854587Y-39357904D02*
X80854587Y-37770404D01*
X79947444Y-39357904D01*
X79947444Y-37770404D01*
X79191492Y-39357904D02*
X79191492Y-37770404D01*
X78813516Y-37770404D01*
X78586730Y-37846000D01*
X78435540Y-37997190D01*
X78359944Y-38148380D01*
X78284349Y-38450761D01*
X78284349Y-38677547D01*
X78359944Y-38979928D01*
X78435540Y-39131119D01*
X78586730Y-39282309D01*
X78813516Y-39357904D01*
X79191492Y-39357904D01*
X81610540Y-45418375D02*
X81761730Y-45342779D01*
X81988516Y-45342779D01*
X82215302Y-45418375D01*
X82366492Y-45569565D01*
X82442087Y-45720755D01*
X82517683Y-46023136D01*
X82517683Y-46249922D01*
X82442087Y-46552303D01*
X82366492Y-46703494D01*
X82215302Y-46854684D01*
X81988516Y-46930279D01*
X81837325Y-46930279D01*
X81610540Y-46854684D01*
X81534944Y-46779089D01*
X81534944Y-46249922D01*
X81837325Y-46249922D01*
X80854587Y-46930279D02*
X80854587Y-45342779D01*
X79947444Y-46930279D01*
X79947444Y-45342779D01*
X79191492Y-46930279D02*
X79191492Y-45342779D01*
X78813516Y-45342779D01*
X78586730Y-45418375D01*
X78435540Y-45569565D01*
X78359944Y-45720755D01*
X78284349Y-46023136D01*
X78284349Y-46249922D01*
X78359944Y-46552303D01*
X78435540Y-46703494D01*
X78586730Y-46854684D01*
X78813516Y-46930279D01*
X79191492Y-46930279D01*
X81232563Y-49486154D02*
X81232563Y-47898654D01*
X80476611Y-49486154D02*
X80476611Y-47898654D01*
X79569468Y-49486154D01*
X79569468Y-47898654D01*
X79040302Y-47898654D02*
X78133159Y-47898654D01*
X78586730Y-49486154D02*
X78586730Y-47898654D01*
X81610540Y-50530125D02*
X81761730Y-50454529D01*
X81988516Y-50454529D01*
X82215302Y-50530125D01*
X82366492Y-50681315D01*
X82442087Y-50832505D01*
X82517683Y-51134886D01*
X82517683Y-51361672D01*
X82442087Y-51664053D01*
X82366492Y-51815244D01*
X82215302Y-51966434D01*
X81988516Y-52042029D01*
X81837325Y-52042029D01*
X81610540Y-51966434D01*
X81534944Y-51890839D01*
X81534944Y-51361672D01*
X81837325Y-51361672D01*
X80854587Y-52042029D02*
X80854587Y-50454529D01*
X79947444Y-52042029D01*
X79947444Y-50454529D01*
X79191492Y-52042029D02*
X79191492Y-50454529D01*
X78813516Y-50454529D01*
X78586730Y-50530125D01*
X78435540Y-50681315D01*
X78359944Y-50832505D01*
X78284349Y-51134886D01*
X78284349Y-51361672D01*
X78359944Y-51664053D01*
X78435540Y-51815244D01*
X78586730Y-51966434D01*
X78813516Y-52042029D01*
X79191492Y-52042029D01*
X80298206Y-59430708D02*
X79542254Y-59430708D01*
X80449397Y-59884279D02*
X79920230Y-58296779D01*
X79391063Y-59884279D01*
X78937492Y-58447970D02*
X78861897Y-58372375D01*
X78710706Y-58296779D01*
X78332730Y-58296779D01*
X78181540Y-58372375D01*
X78105944Y-58447970D01*
X78030349Y-58599160D01*
X78030349Y-58750351D01*
X78105944Y-58977136D01*
X79013087Y-59884279D01*
X78030349Y-59884279D01*
X80298206Y-61986583D02*
X79542254Y-61986583D01*
X80449397Y-62440154D02*
X79920230Y-60852654D01*
X79391063Y-62440154D01*
X78030349Y-62440154D02*
X78937492Y-62440154D01*
X78483921Y-62440154D02*
X78483921Y-60852654D01*
X78635111Y-61079440D01*
X78786302Y-61230630D01*
X78937492Y-61306226D01*
X80298206Y-64542458D02*
X79542254Y-64542458D01*
X80449397Y-64996029D02*
X79920230Y-63408529D01*
X79391063Y-64996029D01*
X78559516Y-63408529D02*
X78408325Y-63408529D01*
X78257135Y-63484125D01*
X78181540Y-63559720D01*
X78105944Y-63710910D01*
X78030349Y-64013291D01*
X78030349Y-64391267D01*
X78105944Y-64693648D01*
X78181540Y-64844839D01*
X78257135Y-64920434D01*
X78408325Y-64996029D01*
X78559516Y-64996029D01*
X78710706Y-64920434D01*
X78786302Y-64844839D01*
X78861897Y-64693648D01*
X78937492Y-64391267D01*
X78937492Y-64013291D01*
X78861897Y-63710910D01*
X78786302Y-63559720D01*
X78710706Y-63484125D01*
X78559516Y-63408529D01*
D10*
X81184714Y-72119096D02*
X81003285Y-72197715D01*
X80700904Y-72197715D01*
X80579952Y-72119096D01*
X80519476Y-72040477D01*
X80459000Y-71883239D01*
X80459000Y-71726001D01*
X80519476Y-71568763D01*
X80579952Y-71490144D01*
X80700904Y-71411525D01*
X80942809Y-71332906D01*
X81063761Y-71254287D01*
X81124238Y-71175668D01*
X81184714Y-71018430D01*
X81184714Y-70861192D01*
X81124238Y-70703954D01*
X81063761Y-70625335D01*
X80942809Y-70546715D01*
X80640428Y-70546715D01*
X80459000Y-70625335D01*
X79189000Y-72040477D02*
X79249476Y-72119096D01*
X79430904Y-72197715D01*
X79551857Y-72197715D01*
X79733285Y-72119096D01*
X79854238Y-71961858D01*
X79914714Y-71804620D01*
X79975190Y-71490144D01*
X79975190Y-71254287D01*
X79914714Y-70939811D01*
X79854238Y-70782573D01*
X79733285Y-70625335D01*
X79551857Y-70546715D01*
X79430904Y-70546715D01*
X79249476Y-70625335D01*
X79189000Y-70703954D01*
X78039952Y-72197715D02*
X78644714Y-72197715D01*
X78644714Y-70546715D01*
X81245190Y-74777206D02*
X81063761Y-74855825D01*
X80761380Y-74855825D01*
X80640428Y-74777206D01*
X80579952Y-74698587D01*
X80519476Y-74541349D01*
X80519476Y-74384111D01*
X80579952Y-74226873D01*
X80640428Y-74148254D01*
X80761380Y-74069635D01*
X81003285Y-73991016D01*
X81124238Y-73912397D01*
X81184714Y-73833778D01*
X81245190Y-73676540D01*
X81245190Y-73519302D01*
X81184714Y-73362064D01*
X81124238Y-73283445D01*
X81003285Y-73204825D01*
X80700904Y-73204825D01*
X80519476Y-73283445D01*
X79975190Y-74855825D02*
X79975190Y-73204825D01*
X79672809Y-73204825D01*
X79491380Y-73283445D01*
X79370428Y-73440683D01*
X79309952Y-73597921D01*
X79249476Y-73912397D01*
X79249476Y-74148254D01*
X79309952Y-74462730D01*
X79370428Y-74619968D01*
X79491380Y-74777206D01*
X79672809Y-74855825D01*
X79975190Y-74855825D01*
X78765666Y-74384111D02*
X78160904Y-74384111D01*
X78886619Y-74855825D02*
X78463285Y-73204825D01*
X78039952Y-74855825D01*
X81426619Y-75862935D02*
X81003285Y-77513935D01*
X80579952Y-75862935D01*
X79430904Y-77356697D02*
X79491380Y-77435316D01*
X79672809Y-77513935D01*
X79793761Y-77513935D01*
X79975190Y-77435316D01*
X80096142Y-77278078D01*
X80156619Y-77120840D01*
X80217095Y-76806364D01*
X80217095Y-76570507D01*
X80156619Y-76256031D01*
X80096142Y-76098793D01*
X79975190Y-75941555D01*
X79793761Y-75862935D01*
X79672809Y-75862935D01*
X79491380Y-75941555D01*
X79430904Y-76020174D01*
X78160904Y-77356697D02*
X78221380Y-77435316D01*
X78402809Y-77513935D01*
X78523761Y-77513935D01*
X78705190Y-77435316D01*
X78826142Y-77278078D01*
X78886619Y-77120840D01*
X78947095Y-76806364D01*
X78947095Y-76570507D01*
X78886619Y-76256031D01*
X78826142Y-76098793D01*
X78705190Y-75941555D01*
X78523761Y-75862935D01*
X78402809Y-75862935D01*
X78221380Y-75941555D01*
X78160904Y-76020174D01*
X80821857Y-78599665D02*
X80942809Y-78521045D01*
X81124238Y-78521045D01*
X81305666Y-78599665D01*
X81426619Y-78756903D01*
X81487095Y-78914141D01*
X81547571Y-79228617D01*
X81547571Y-79464474D01*
X81487095Y-79778950D01*
X81426619Y-79936188D01*
X81305666Y-80093426D01*
X81124238Y-80172045D01*
X81003285Y-80172045D01*
X80821857Y-80093426D01*
X80761380Y-80014807D01*
X80761380Y-79464474D01*
X81003285Y-79464474D01*
X80217095Y-80172045D02*
X80217095Y-78521045D01*
X79491380Y-80172045D01*
X79491380Y-78521045D01*
X78886619Y-80172045D02*
X78886619Y-78521045D01*
X78584238Y-78521045D01*
X78402809Y-78599665D01*
X78281857Y-78756903D01*
X78221380Y-78914141D01*
X78160904Y-79228617D01*
X78160904Y-79464474D01*
X78221380Y-79778950D01*
X78281857Y-79936188D01*
X78402809Y-80093426D01*
X78584238Y-80172045D01*
X78886619Y-80172045D01*
D14*
X35052000Y-27940000D02*
X35052000Y-28448000D01*
X41148000Y-80772000D02*
X41148000Y-80264000D01*
X35052000Y-28448000D02*
X28448000Y-28448000D01*
X35052000Y-80264000D02*
X35052000Y-80772000D01*
X47752000Y-28448000D02*
X41148000Y-28448000D01*
X41148000Y-80264000D02*
X47752000Y-80264000D01*
X28448000Y-28448000D02*
X28448000Y-27940000D01*
X41148000Y-28448000D02*
X41148000Y-27940000D01*
X47752000Y-80772000D02*
X41148000Y-80772000D01*
X41148000Y-27940000D02*
X47752000Y-27940000D01*
X35052000Y-80772000D02*
X28448000Y-80772000D01*
X28448000Y-27940000D02*
X35052000Y-27940000D01*
X47752000Y-80264000D02*
X47752000Y-80772000D01*
X28448000Y-80772000D02*
X28448000Y-80264000D01*
X28448000Y-80264000D02*
X35052000Y-80264000D01*
X47752000Y-27940000D02*
X47752000Y-28448000D01*
D10*
X25325000Y-43858571D02*
X25039285Y-43858571D01*
X24896428Y-43787142D01*
X24825000Y-43715714D01*
X24682142Y-43501428D01*
X24610714Y-43215714D01*
X24610714Y-42644285D01*
X24682142Y-42501428D01*
X24753571Y-42430000D01*
X24896428Y-42358571D01*
X25182142Y-42358571D01*
X25325000Y-42430000D01*
X25396428Y-42501428D01*
X25467857Y-42644285D01*
X25467857Y-43001428D01*
X25396428Y-43144285D01*
X25325000Y-43215714D01*
X25182142Y-43287142D01*
X24896428Y-43287142D01*
X24753571Y-43215714D01*
X24682142Y-43144285D01*
X24610714Y-43001428D01*
X25372428Y-45041428D02*
X25301000Y-44970000D01*
X25158142Y-44898571D01*
X24801000Y-44898571D01*
X24658142Y-44970000D01*
X24586714Y-45041428D01*
X24515285Y-45184285D01*
X24515285Y-45327142D01*
X24586714Y-45541428D01*
X25443857Y-46398571D01*
X24515285Y-46398571D01*
X23086714Y-46398571D02*
X23943857Y-46398571D01*
X23515285Y-46398571D02*
X23515285Y-44898571D01*
X23658142Y-45112857D01*
X23801000Y-45255714D01*
X23943857Y-45327142D01*
X51660714Y-67758571D02*
X50732142Y-67758571D01*
X51232142Y-68330000D01*
X51017857Y-68330000D01*
X50875000Y-68401428D01*
X50803571Y-68472857D01*
X50732142Y-68615714D01*
X50732142Y-68972857D01*
X50803571Y-69115714D01*
X50875000Y-69187142D01*
X51017857Y-69258571D01*
X51446428Y-69258571D01*
X51589285Y-69187142D01*
X51660714Y-69115714D01*
X52256142Y-51478571D02*
X53113285Y-51478571D01*
X52684714Y-51478571D02*
X52684714Y-49978571D01*
X52827571Y-50192857D01*
X52970428Y-50335714D01*
X53113285Y-50407142D01*
X50899000Y-49978571D02*
X51613285Y-49978571D01*
X51684714Y-50692857D01*
X51613285Y-50621428D01*
X51470428Y-50550000D01*
X51113285Y-50550000D01*
X50970428Y-50621428D01*
X50899000Y-50692857D01*
X50827571Y-50835714D01*
X50827571Y-51192857D01*
X50899000Y-51335714D01*
X50970428Y-51407142D01*
X51113285Y-51478571D01*
X51470428Y-51478571D01*
X51613285Y-51407142D01*
X51684714Y-51335714D01*
X50462571Y-25388285D02*
X48962571Y-25388285D01*
X48962571Y-25745428D01*
X49034000Y-25959714D01*
X49176857Y-26102571D01*
X49319714Y-26174000D01*
X49605428Y-26245428D01*
X49819714Y-26245428D01*
X50105428Y-26174000D01*
X50248285Y-26102571D01*
X50391142Y-25959714D01*
X50462571Y-25745428D01*
X50462571Y-25388285D01*
X50462571Y-26888285D02*
X48962571Y-26888285D01*
X48962571Y-27888285D02*
X48962571Y-28174000D01*
X49034000Y-28316857D01*
X49176857Y-28459714D01*
X49462571Y-28531142D01*
X49962571Y-28531142D01*
X50248285Y-28459714D01*
X50391142Y-28316857D01*
X50462571Y-28174000D01*
X50462571Y-27888285D01*
X50391142Y-27745428D01*
X50248285Y-27602571D01*
X49962571Y-27531142D01*
X49462571Y-27531142D01*
X49176857Y-27602571D01*
X49034000Y-27745428D01*
X48962571Y-27888285D01*
X51914714Y-57598571D02*
X50914714Y-57598571D01*
X51557571Y-59098571D01*
X24515285Y-69258571D02*
X25372428Y-69258571D01*
X24943857Y-69258571D02*
X24943857Y-67758571D01*
X25086714Y-67972857D01*
X25229571Y-68115714D01*
X25372428Y-68187142D01*
X24015285Y-67758571D02*
X23015285Y-67758571D01*
X23658142Y-69258571D01*
X25372428Y-34881428D02*
X25301000Y-34810000D01*
X25158142Y-34738571D01*
X24801000Y-34738571D01*
X24658142Y-34810000D01*
X24586714Y-34881428D01*
X24515285Y-35024285D01*
X24515285Y-35167142D01*
X24586714Y-35381428D01*
X25443857Y-36238571D01*
X24515285Y-36238571D01*
X24015285Y-34738571D02*
X23086714Y-34738571D01*
X23586714Y-35310000D01*
X23372428Y-35310000D01*
X23229571Y-35381428D01*
X23158142Y-35452857D01*
X23086714Y-35595714D01*
X23086714Y-35952857D01*
X23158142Y-36095714D01*
X23229571Y-36167142D01*
X23372428Y-36238571D01*
X23801000Y-36238571D01*
X23943857Y-36167142D01*
X24015285Y-36095714D01*
X52279857Y-54018571D02*
X52279857Y-52518571D01*
X51637000Y-53590000D02*
X50922714Y-53590000D01*
X51779857Y-54018571D02*
X51279857Y-52518571D01*
X50779857Y-54018571D01*
X25018857Y-81450571D02*
X25018857Y-79950571D01*
X24661714Y-79950571D01*
X24447428Y-80022000D01*
X24304571Y-80164857D01*
X24233142Y-80307714D01*
X24161714Y-80593428D01*
X24161714Y-80807714D01*
X24233142Y-81093428D01*
X24304571Y-81236285D01*
X24447428Y-81379142D01*
X24661714Y-81450571D01*
X25018857Y-81450571D01*
X23018857Y-80664857D02*
X22804571Y-80736285D01*
X22733142Y-80807714D01*
X22661714Y-80950571D01*
X22661714Y-81164857D01*
X22733142Y-81307714D01*
X22804571Y-81379142D01*
X22947428Y-81450571D01*
X23518857Y-81450571D01*
X23518857Y-79950571D01*
X23018857Y-79950571D01*
X22876000Y-80022000D01*
X22804571Y-80093428D01*
X22733142Y-80236285D01*
X22733142Y-80379142D01*
X22804571Y-80522000D01*
X22876000Y-80593428D01*
X23018857Y-80664857D01*
X23518857Y-80664857D01*
X36334000Y-81153142D02*
X36262571Y-81010285D01*
X36262571Y-80796000D01*
X36334000Y-80581714D01*
X36476857Y-80438857D01*
X36619714Y-80367428D01*
X36905428Y-80296000D01*
X37119714Y-80296000D01*
X37405428Y-80367428D01*
X37548285Y-80438857D01*
X37691142Y-80581714D01*
X37762571Y-80796000D01*
X37762571Y-80938857D01*
X37691142Y-81153142D01*
X37619714Y-81224571D01*
X37119714Y-81224571D01*
X37119714Y-80938857D01*
X37762571Y-81867428D02*
X36262571Y-81867428D01*
X37762571Y-82724571D01*
X36262571Y-82724571D01*
X37762571Y-83438857D02*
X36262571Y-83438857D01*
X36262571Y-83796000D01*
X36334000Y-84010285D01*
X36476857Y-84153142D01*
X36619714Y-84224571D01*
X36905428Y-84296000D01*
X37119714Y-84296000D01*
X37405428Y-84224571D01*
X37548285Y-84153142D01*
X37691142Y-84010285D01*
X37762571Y-83796000D01*
X37762571Y-83438857D01*
X33396857Y-81680857D02*
X33182571Y-81752285D01*
X33111142Y-81823714D01*
X33039714Y-81966571D01*
X33039714Y-82180857D01*
X33111142Y-82323714D01*
X33182571Y-82395142D01*
X33325428Y-82466571D01*
X33896857Y-82466571D01*
X33896857Y-80966571D01*
X33396857Y-80966571D01*
X33254000Y-81038000D01*
X33182571Y-81109428D01*
X33111142Y-81252285D01*
X33111142Y-81395142D01*
X33182571Y-81538000D01*
X33254000Y-81609428D01*
X33396857Y-81680857D01*
X33896857Y-81680857D01*
X32396857Y-80966571D02*
X32396857Y-82180857D01*
X32325428Y-82323714D01*
X32254000Y-82395142D01*
X32111142Y-82466571D01*
X31825428Y-82466571D01*
X31682571Y-82395142D01*
X31611142Y-82323714D01*
X31539714Y-82180857D01*
X31539714Y-80966571D01*
X30896857Y-82395142D02*
X30682571Y-82466571D01*
X30325428Y-82466571D01*
X30182571Y-82395142D01*
X30111142Y-82323714D01*
X30039714Y-82180857D01*
X30039714Y-82038000D01*
X30111142Y-81895142D01*
X30182571Y-81823714D01*
X30325428Y-81752285D01*
X30611142Y-81680857D01*
X30754000Y-81609428D01*
X30825428Y-81538000D01*
X30896857Y-81395142D01*
X30896857Y-81252285D01*
X30825428Y-81109428D01*
X30754000Y-81038000D01*
X30611142Y-80966571D01*
X30254000Y-80966571D01*
X30039714Y-81038000D01*
X46096857Y-81680857D02*
X45882571Y-81752285D01*
X45811142Y-81823714D01*
X45739714Y-81966571D01*
X45739714Y-82180857D01*
X45811142Y-82323714D01*
X45882571Y-82395142D01*
X46025428Y-82466571D01*
X46596857Y-82466571D01*
X46596857Y-80966571D01*
X46096857Y-80966571D01*
X45954000Y-81038000D01*
X45882571Y-81109428D01*
X45811142Y-81252285D01*
X45811142Y-81395142D01*
X45882571Y-81538000D01*
X45954000Y-81609428D01*
X46096857Y-81680857D01*
X46596857Y-81680857D01*
X45096857Y-80966571D02*
X45096857Y-82180857D01*
X45025428Y-82323714D01*
X44954000Y-82395142D01*
X44811142Y-82466571D01*
X44525428Y-82466571D01*
X44382571Y-82395142D01*
X44311142Y-82323714D01*
X44239714Y-82180857D01*
X44239714Y-80966571D01*
X43596857Y-82395142D02*
X43382571Y-82466571D01*
X43025428Y-82466571D01*
X42882571Y-82395142D01*
X42811142Y-82323714D01*
X42739714Y-82180857D01*
X42739714Y-82038000D01*
X42811142Y-81895142D01*
X42882571Y-81823714D01*
X43025428Y-81752285D01*
X43311142Y-81680857D01*
X43454000Y-81609428D01*
X43525428Y-81538000D01*
X43596857Y-81395142D01*
X43596857Y-81252285D01*
X43525428Y-81109428D01*
X43454000Y-81038000D01*
X43311142Y-80966571D01*
X42954000Y-80966571D01*
X42739714Y-81038000D01*
X36334000Y-25273142D02*
X36262571Y-25130285D01*
X36262571Y-24916000D01*
X36334000Y-24701714D01*
X36476857Y-24558857D01*
X36619714Y-24487428D01*
X36905428Y-24416000D01*
X37119714Y-24416000D01*
X37405428Y-24487428D01*
X37548285Y-24558857D01*
X37691142Y-24701714D01*
X37762571Y-24916000D01*
X37762571Y-25058857D01*
X37691142Y-25273142D01*
X37619714Y-25344571D01*
X37119714Y-25344571D01*
X37119714Y-25058857D01*
X37762571Y-25987428D02*
X36262571Y-25987428D01*
X37762571Y-26844571D01*
X36262571Y-26844571D01*
X37762571Y-27558857D02*
X36262571Y-27558857D01*
X36262571Y-27916000D01*
X36334000Y-28130285D01*
X36476857Y-28273142D01*
X36619714Y-28344571D01*
X36905428Y-28416000D01*
X37119714Y-28416000D01*
X37405428Y-28344571D01*
X37548285Y-28273142D01*
X37691142Y-28130285D01*
X37762571Y-27916000D01*
X37762571Y-27558857D01*
X52256142Y-43858571D02*
X53113285Y-43858571D01*
X52684714Y-43858571D02*
X52684714Y-42358571D01*
X52827571Y-42572857D01*
X52970428Y-42715714D01*
X53113285Y-42787142D01*
X51684714Y-42501428D02*
X51613285Y-42430000D01*
X51470428Y-42358571D01*
X51113285Y-42358571D01*
X50970428Y-42430000D01*
X50899000Y-42501428D01*
X50827571Y-42644285D01*
X50827571Y-42787142D01*
X50899000Y-43001428D01*
X51756142Y-43858571D01*
X50827571Y-43858571D01*
X25285285Y-75378571D02*
X24356714Y-75378571D01*
X24856714Y-75950000D01*
X24642428Y-75950000D01*
X24499571Y-76021428D01*
X24428142Y-76092857D01*
X24356714Y-76235714D01*
X24356714Y-76592857D01*
X24428142Y-76735714D01*
X24499571Y-76807142D01*
X24642428Y-76878571D01*
X25071000Y-76878571D01*
X25213857Y-76807142D01*
X25285285Y-76735714D01*
X52256142Y-46398571D02*
X53113285Y-46398571D01*
X52684714Y-46398571D02*
X52684714Y-44898571D01*
X52827571Y-45112857D01*
X52970428Y-45255714D01*
X53113285Y-45327142D01*
X51756142Y-44898571D02*
X50827571Y-44898571D01*
X51327571Y-45470000D01*
X51113285Y-45470000D01*
X50970428Y-45541428D01*
X50899000Y-45612857D01*
X50827571Y-45755714D01*
X50827571Y-46112857D01*
X50899000Y-46255714D01*
X50970428Y-46327142D01*
X51113285Y-46398571D01*
X51541857Y-46398571D01*
X51684714Y-46327142D01*
X51756142Y-46255714D01*
X51129000Y-65718571D02*
X51129000Y-66718571D01*
X51486142Y-65147142D02*
X51843285Y-66218571D01*
X50914714Y-66218571D01*
X33396857Y-26816857D02*
X33182571Y-26888285D01*
X33111142Y-26959714D01*
X33039714Y-27102571D01*
X33039714Y-27316857D01*
X33111142Y-27459714D01*
X33182571Y-27531142D01*
X33325428Y-27602571D01*
X33896857Y-27602571D01*
X33896857Y-26102571D01*
X33396857Y-26102571D01*
X33254000Y-26174000D01*
X33182571Y-26245428D01*
X33111142Y-26388285D01*
X33111142Y-26531142D01*
X33182571Y-26674000D01*
X33254000Y-26745428D01*
X33396857Y-26816857D01*
X33896857Y-26816857D01*
X32396857Y-26102571D02*
X32396857Y-27316857D01*
X32325428Y-27459714D01*
X32254000Y-27531142D01*
X32111142Y-27602571D01*
X31825428Y-27602571D01*
X31682571Y-27531142D01*
X31611142Y-27459714D01*
X31539714Y-27316857D01*
X31539714Y-26102571D01*
X30896857Y-27531142D02*
X30682571Y-27602571D01*
X30325428Y-27602571D01*
X30182571Y-27531142D01*
X30111142Y-27459714D01*
X30039714Y-27316857D01*
X30039714Y-27174000D01*
X30111142Y-27031142D01*
X30182571Y-26959714D01*
X30325428Y-26888285D01*
X30611142Y-26816857D01*
X30754000Y-26745428D01*
X30825428Y-26674000D01*
X30896857Y-26531142D01*
X30896857Y-26388285D01*
X30825428Y-26245428D01*
X30754000Y-26174000D01*
X30611142Y-26102571D01*
X30254000Y-26102571D01*
X30039714Y-26174000D01*
X24928142Y-48081428D02*
X25071000Y-48010000D01*
X25142428Y-47938571D01*
X25213857Y-47795714D01*
X25213857Y-47724285D01*
X25142428Y-47581428D01*
X25071000Y-47510000D01*
X24928142Y-47438571D01*
X24642428Y-47438571D01*
X24499571Y-47510000D01*
X24428142Y-47581428D01*
X24356714Y-47724285D01*
X24356714Y-47795714D01*
X24428142Y-47938571D01*
X24499571Y-48010000D01*
X24642428Y-48081428D01*
X24928142Y-48081428D01*
X25071000Y-48152857D01*
X25142428Y-48224285D01*
X25213857Y-48367142D01*
X25213857Y-48652857D01*
X25142428Y-48795714D01*
X25071000Y-48867142D01*
X24928142Y-48938571D01*
X24642428Y-48938571D01*
X24499571Y-48867142D01*
X24428142Y-48795714D01*
X24356714Y-48652857D01*
X24356714Y-48367142D01*
X24428142Y-48224285D01*
X24499571Y-48152857D01*
X24642428Y-48081428D01*
X51129000Y-60138571D02*
X51414714Y-60138571D01*
X51557571Y-60210000D01*
X51629000Y-60281428D01*
X51771857Y-60495714D01*
X51843285Y-60781428D01*
X51843285Y-61352857D01*
X51771857Y-61495714D01*
X51700428Y-61567142D01*
X51557571Y-61638571D01*
X51271857Y-61638571D01*
X51129000Y-61567142D01*
X51057571Y-61495714D01*
X50986142Y-61352857D01*
X50986142Y-60995714D01*
X51057571Y-60852857D01*
X51129000Y-60781428D01*
X51271857Y-60710000D01*
X51557571Y-60710000D01*
X51700428Y-60781428D01*
X51771857Y-60852857D01*
X51843285Y-60995714D01*
X54923000Y-77495000D02*
X53423000Y-77495000D01*
X53708714Y-79418571D02*
X54208714Y-78704285D01*
X54565857Y-79418571D02*
X54565857Y-77918571D01*
X53994428Y-77918571D01*
X53851571Y-77990000D01*
X53780142Y-78061428D01*
X53708714Y-78204285D01*
X53708714Y-78418571D01*
X53780142Y-78561428D01*
X53851571Y-78632857D01*
X53994428Y-78704285D01*
X54565857Y-78704285D01*
X53423000Y-77495000D02*
X51994428Y-77495000D01*
X53137285Y-79347142D02*
X52923000Y-79418571D01*
X52565857Y-79418571D01*
X52423000Y-79347142D01*
X52351571Y-79275714D01*
X52280142Y-79132857D01*
X52280142Y-78990000D01*
X52351571Y-78847142D01*
X52423000Y-78775714D01*
X52565857Y-78704285D01*
X52851571Y-78632857D01*
X52994428Y-78561428D01*
X53065857Y-78490000D01*
X53137285Y-78347142D01*
X53137285Y-78204285D01*
X53065857Y-78061428D01*
X52994428Y-77990000D01*
X52851571Y-77918571D01*
X52494428Y-77918571D01*
X52280142Y-77990000D01*
X51994428Y-77495000D02*
X50851571Y-77495000D01*
X51851571Y-77918571D02*
X50994428Y-77918571D01*
X51423000Y-79418571D02*
X51423000Y-77918571D01*
X51486142Y-75378571D02*
X51343285Y-75378571D01*
X51200428Y-75450000D01*
X51129000Y-75521428D01*
X51057571Y-75664285D01*
X50986142Y-75950000D01*
X50986142Y-76307142D01*
X51057571Y-76592857D01*
X51129000Y-76735714D01*
X51200428Y-76807142D01*
X51343285Y-76878571D01*
X51486142Y-76878571D01*
X51629000Y-76807142D01*
X51700428Y-76735714D01*
X51771857Y-76592857D01*
X51843285Y-76307142D01*
X51843285Y-75950000D01*
X51771857Y-75664285D01*
X51700428Y-75521428D01*
X51629000Y-75450000D01*
X51486142Y-75378571D01*
X27602571Y-80645142D02*
X26102571Y-80645142D01*
X26102571Y-81002285D01*
X26174000Y-81216571D01*
X26316857Y-81359428D01*
X26459714Y-81430857D01*
X26745428Y-81502285D01*
X26959714Y-81502285D01*
X27245428Y-81430857D01*
X27388285Y-81359428D01*
X27531142Y-81216571D01*
X27602571Y-81002285D01*
X27602571Y-80645142D01*
X26816857Y-82645142D02*
X26888285Y-82859428D01*
X26959714Y-82930857D01*
X27102571Y-83002285D01*
X27316857Y-83002285D01*
X27459714Y-82930857D01*
X27531142Y-82859428D01*
X27602571Y-82716571D01*
X27602571Y-82145142D01*
X26102571Y-82145142D01*
X26102571Y-82645142D01*
X26174000Y-82788000D01*
X26245428Y-82859428D01*
X26388285Y-82930857D01*
X26531142Y-82930857D01*
X26674000Y-82859428D01*
X26745428Y-82788000D01*
X26816857Y-82645142D01*
X26816857Y-82145142D01*
X51057571Y-62678571D02*
X51771857Y-62678571D01*
X51843285Y-63392857D01*
X51771857Y-63321428D01*
X51629000Y-63250000D01*
X51271857Y-63250000D01*
X51129000Y-63321428D01*
X51057571Y-63392857D01*
X50986142Y-63535714D01*
X50986142Y-63892857D01*
X51057571Y-64035714D01*
X51129000Y-64107142D01*
X51271857Y-64178571D01*
X51629000Y-64178571D01*
X51771857Y-64107142D01*
X51843285Y-64035714D01*
X25372428Y-39961428D02*
X25301000Y-39890000D01*
X25158142Y-39818571D01*
X24801000Y-39818571D01*
X24658142Y-39890000D01*
X24586714Y-39961428D01*
X24515285Y-40104285D01*
X24515285Y-40247142D01*
X24586714Y-40461428D01*
X25443857Y-41318571D01*
X24515285Y-41318571D01*
X23943857Y-39961428D02*
X23872428Y-39890000D01*
X23729571Y-39818571D01*
X23372428Y-39818571D01*
X23229571Y-39890000D01*
X23158142Y-39961428D01*
X23086714Y-40104285D01*
X23086714Y-40247142D01*
X23158142Y-40461428D01*
X24015285Y-41318571D01*
X23086714Y-41318571D01*
D11*
X40968083Y-95637047D02*
X41814750Y-94427523D01*
X42419511Y-95637047D02*
X42419511Y-93097047D01*
X41451892Y-93097047D01*
X41209988Y-93218000D01*
X41089035Y-93338952D01*
X40968083Y-93580857D01*
X40968083Y-93943714D01*
X41089035Y-94185619D01*
X41209988Y-94306571D01*
X41451892Y-94427523D01*
X42419511Y-94427523D01*
X39879511Y-94306571D02*
X39032845Y-94306571D01*
X38669988Y-95637047D02*
X39879511Y-95637047D01*
X39879511Y-93097047D01*
X38669988Y-93097047D01*
X37944273Y-93097047D02*
X37097607Y-95637047D01*
X36250940Y-93097047D01*
X33710940Y-93097047D02*
X32138559Y-93097047D01*
X32985226Y-94064666D01*
X32622369Y-94064666D01*
X32380464Y-94185619D01*
X32259511Y-94306571D01*
X32138559Y-94548476D01*
X32138559Y-95153238D01*
X32259511Y-95395142D01*
X32380464Y-95516095D01*
X32622369Y-95637047D01*
X33348083Y-95637047D01*
X33589988Y-95516095D01*
X33710940Y-95395142D01*
D10*
X27602571Y-26289142D02*
X26102571Y-26289142D01*
X26102571Y-26646285D01*
X26174000Y-26860571D01*
X26316857Y-27003428D01*
X26459714Y-27074857D01*
X26745428Y-27146285D01*
X26959714Y-27146285D01*
X27245428Y-27074857D01*
X27388285Y-27003428D01*
X27531142Y-26860571D01*
X27602571Y-26646285D01*
X27602571Y-26289142D01*
X26816857Y-28289142D02*
X26888285Y-28503428D01*
X26959714Y-28574857D01*
X27102571Y-28646285D01*
X27316857Y-28646285D01*
X27459714Y-28574857D01*
X27531142Y-28503428D01*
X27602571Y-28360571D01*
X27602571Y-27789142D01*
X26102571Y-27789142D01*
X26102571Y-28289142D01*
X26174000Y-28432000D01*
X26245428Y-28503428D01*
X26388285Y-28574857D01*
X26531142Y-28574857D01*
X26674000Y-28503428D01*
X26745428Y-28432000D01*
X26816857Y-28289142D01*
X26816857Y-27789142D01*
X52256142Y-48938571D02*
X53113285Y-48938571D01*
X52684714Y-48938571D02*
X52684714Y-47438571D01*
X52827571Y-47652857D01*
X52970428Y-47795714D01*
X53113285Y-47867142D01*
X50970428Y-47938571D02*
X50970428Y-48938571D01*
X51327571Y-47367142D02*
X51684714Y-48438571D01*
X50756142Y-48438571D01*
X24515285Y-64178571D02*
X25372428Y-64178571D01*
X24943857Y-64178571D02*
X24943857Y-62678571D01*
X25086714Y-62892857D01*
X25229571Y-63035714D01*
X25372428Y-63107142D01*
X23658142Y-63321428D02*
X23801000Y-63250000D01*
X23872428Y-63178571D01*
X23943857Y-63035714D01*
X23943857Y-62964285D01*
X23872428Y-62821428D01*
X23801000Y-62750000D01*
X23658142Y-62678571D01*
X23372428Y-62678571D01*
X23229571Y-62750000D01*
X23158142Y-62821428D01*
X23086714Y-62964285D01*
X23086714Y-63035714D01*
X23158142Y-63178571D01*
X23229571Y-63250000D01*
X23372428Y-63321428D01*
X23658142Y-63321428D01*
X23801000Y-63392857D01*
X23872428Y-63464285D01*
X23943857Y-63607142D01*
X23943857Y-63892857D01*
X23872428Y-64035714D01*
X23801000Y-64107142D01*
X23658142Y-64178571D01*
X23372428Y-64178571D01*
X23229571Y-64107142D01*
X23158142Y-64035714D01*
X23086714Y-63892857D01*
X23086714Y-63607142D01*
X23158142Y-63464285D01*
X23229571Y-63392857D01*
X23372428Y-63321428D01*
X24682142Y-65218571D02*
X25396428Y-65218571D01*
X25467857Y-65932857D01*
X25396428Y-65861428D01*
X25253571Y-65790000D01*
X24896428Y-65790000D01*
X24753571Y-65861428D01*
X24682142Y-65932857D01*
X24610714Y-66075714D01*
X24610714Y-66432857D01*
X24682142Y-66575714D01*
X24753571Y-66647142D01*
X24896428Y-66718571D01*
X25253571Y-66718571D01*
X25396428Y-66647142D01*
X25467857Y-66575714D01*
X25372428Y-50121428D02*
X25301000Y-50050000D01*
X25158142Y-49978571D01*
X24801000Y-49978571D01*
X24658142Y-50050000D01*
X24586714Y-50121428D01*
X24515285Y-50264285D01*
X24515285Y-50407142D01*
X24586714Y-50621428D01*
X25443857Y-51478571D01*
X24515285Y-51478571D01*
X23586714Y-49978571D02*
X23443857Y-49978571D01*
X23301000Y-50050000D01*
X23229571Y-50121428D01*
X23158142Y-50264285D01*
X23086714Y-50550000D01*
X23086714Y-50907142D01*
X23158142Y-51192857D01*
X23229571Y-51335714D01*
X23301000Y-51407142D01*
X23443857Y-51478571D01*
X23586714Y-51478571D01*
X23729571Y-51407142D01*
X23801000Y-51335714D01*
X23872428Y-51192857D01*
X23943857Y-50907142D01*
X23943857Y-50550000D01*
X23872428Y-50264285D01*
X23801000Y-50121428D01*
X23729571Y-50050000D01*
X23586714Y-49978571D01*
X24515285Y-38778571D02*
X25372428Y-38778571D01*
X24943857Y-38778571D02*
X24943857Y-37278571D01*
X25086714Y-37492857D01*
X25229571Y-37635714D01*
X25372428Y-37707142D01*
X23586714Y-37278571D02*
X23443857Y-37278571D01*
X23301000Y-37350000D01*
X23229571Y-37421428D01*
X23158142Y-37564285D01*
X23086714Y-37850000D01*
X23086714Y-38207142D01*
X23158142Y-38492857D01*
X23229571Y-38635714D01*
X23301000Y-38707142D01*
X23443857Y-38778571D01*
X23586714Y-38778571D01*
X23729571Y-38707142D01*
X23801000Y-38635714D01*
X23872428Y-38492857D01*
X23943857Y-38207142D01*
X23943857Y-37850000D01*
X23872428Y-37564285D01*
X23801000Y-37421428D01*
X23729571Y-37350000D01*
X23586714Y-37278571D01*
X50732142Y-74338571D02*
X51589285Y-74338571D01*
X51160714Y-74338571D02*
X51160714Y-72838571D01*
X51303571Y-73052857D01*
X51446428Y-73195714D01*
X51589285Y-73267142D01*
X38802571Y-24416000D02*
X40302571Y-24916000D01*
X38802571Y-25416000D01*
X40159714Y-26773142D02*
X40231142Y-26701714D01*
X40302571Y-26487428D01*
X40302571Y-26344571D01*
X40231142Y-26130285D01*
X40088285Y-25987428D01*
X39945428Y-25916000D01*
X39659714Y-25844571D01*
X39445428Y-25844571D01*
X39159714Y-25916000D01*
X39016857Y-25987428D01*
X38874000Y-26130285D01*
X38802571Y-26344571D01*
X38802571Y-26487428D01*
X38874000Y-26701714D01*
X38945428Y-26773142D01*
X40159714Y-28273142D02*
X40231142Y-28201714D01*
X40302571Y-27987428D01*
X40302571Y-27844571D01*
X40231142Y-27630285D01*
X40088285Y-27487428D01*
X39945428Y-27416000D01*
X39659714Y-27344571D01*
X39445428Y-27344571D01*
X39159714Y-27416000D01*
X39016857Y-27487428D01*
X38874000Y-27630285D01*
X38802571Y-27844571D01*
X38802571Y-27987428D01*
X38874000Y-28201714D01*
X38945428Y-28273142D01*
X24515285Y-79418571D02*
X25372428Y-79418571D01*
X24943857Y-79418571D02*
X24943857Y-77918571D01*
X25086714Y-78132857D01*
X25229571Y-78275714D01*
X25372428Y-78347142D01*
X23158142Y-77918571D02*
X23872428Y-77918571D01*
X23943857Y-78632857D01*
X23872428Y-78561428D01*
X23729571Y-78490000D01*
X23372428Y-78490000D01*
X23229571Y-78561428D01*
X23158142Y-78632857D01*
X23086714Y-78775714D01*
X23086714Y-79132857D01*
X23158142Y-79275714D01*
X23229571Y-79347142D01*
X23372428Y-79418571D01*
X23729571Y-79418571D01*
X23872428Y-79347142D01*
X23943857Y-79275714D01*
X24515285Y-74338571D02*
X25372428Y-74338571D01*
X24943857Y-74338571D02*
X24943857Y-72838571D01*
X25086714Y-73052857D01*
X25229571Y-73195714D01*
X25372428Y-73267142D01*
X23229571Y-72838571D02*
X23515285Y-72838571D01*
X23658142Y-72910000D01*
X23729571Y-72981428D01*
X23872428Y-73195714D01*
X23943857Y-73481428D01*
X23943857Y-74052857D01*
X23872428Y-74195714D01*
X23801000Y-74267142D01*
X23658142Y-74338571D01*
X23372428Y-74338571D01*
X23229571Y-74267142D01*
X23158142Y-74195714D01*
X23086714Y-74052857D01*
X23086714Y-73695714D01*
X23158142Y-73552857D01*
X23229571Y-73481428D01*
X23372428Y-73410000D01*
X23658142Y-73410000D01*
X23801000Y-73481428D01*
X23872428Y-73552857D01*
X23943857Y-73695714D01*
X46096857Y-26816857D02*
X45882571Y-26888285D01*
X45811142Y-26959714D01*
X45739714Y-27102571D01*
X45739714Y-27316857D01*
X45811142Y-27459714D01*
X45882571Y-27531142D01*
X46025428Y-27602571D01*
X46596857Y-27602571D01*
X46596857Y-26102571D01*
X46096857Y-26102571D01*
X45954000Y-26174000D01*
X45882571Y-26245428D01*
X45811142Y-26388285D01*
X45811142Y-26531142D01*
X45882571Y-26674000D01*
X45954000Y-26745428D01*
X46096857Y-26816857D01*
X46596857Y-26816857D01*
X45096857Y-26102571D02*
X45096857Y-27316857D01*
X45025428Y-27459714D01*
X44954000Y-27531142D01*
X44811142Y-27602571D01*
X44525428Y-27602571D01*
X44382571Y-27531142D01*
X44311142Y-27459714D01*
X44239714Y-27316857D01*
X44239714Y-26102571D01*
X43596857Y-27531142D02*
X43382571Y-27602571D01*
X43025428Y-27602571D01*
X42882571Y-27531142D01*
X42811142Y-27459714D01*
X42739714Y-27316857D01*
X42739714Y-27174000D01*
X42811142Y-27031142D01*
X42882571Y-26959714D01*
X43025428Y-26888285D01*
X43311142Y-26816857D01*
X43454000Y-26745428D01*
X43525428Y-26674000D01*
X43596857Y-26531142D01*
X43596857Y-26388285D01*
X43525428Y-26245428D01*
X43454000Y-26174000D01*
X43311142Y-26102571D01*
X42954000Y-26102571D01*
X42739714Y-26174000D01*
X25285285Y-52518571D02*
X24285285Y-52518571D01*
X24928142Y-54018571D01*
X51589285Y-70441428D02*
X51517857Y-70370000D01*
X51375000Y-70298571D01*
X51017857Y-70298571D01*
X50875000Y-70370000D01*
X50803571Y-70441428D01*
X50732142Y-70584285D01*
X50732142Y-70727142D01*
X50803571Y-70941428D01*
X51660714Y-71798571D01*
X50732142Y-71798571D01*
X50462571Y-80760285D02*
X48962571Y-80760285D01*
X48962571Y-81117428D01*
X49034000Y-81331714D01*
X49176857Y-81474571D01*
X49319714Y-81546000D01*
X49605428Y-81617428D01*
X49819714Y-81617428D01*
X50105428Y-81546000D01*
X50248285Y-81474571D01*
X50391142Y-81331714D01*
X50462571Y-81117428D01*
X50462571Y-80760285D01*
X50462571Y-82260285D02*
X48962571Y-82260285D01*
X48962571Y-83260285D02*
X48962571Y-83546000D01*
X49034000Y-83688857D01*
X49176857Y-83831714D01*
X49462571Y-83903142D01*
X49962571Y-83903142D01*
X50248285Y-83831714D01*
X50391142Y-83688857D01*
X50462571Y-83546000D01*
X50462571Y-83260285D01*
X50391142Y-83117428D01*
X50248285Y-82974571D01*
X49962571Y-82903142D01*
X49462571Y-82903142D01*
X49176857Y-82974571D01*
X49034000Y-83117428D01*
X48962571Y-83260285D01*
X25285285Y-55058571D02*
X24285285Y-55058571D01*
X24928142Y-56558571D01*
X24515285Y-59098571D02*
X25372428Y-59098571D01*
X24943857Y-59098571D02*
X24943857Y-57598571D01*
X25086714Y-57812857D01*
X25229571Y-57955714D01*
X25372428Y-58027142D01*
X23801000Y-59098571D02*
X23515285Y-59098571D01*
X23372428Y-59027142D01*
X23301000Y-58955714D01*
X23158142Y-58741428D01*
X23086714Y-58455714D01*
X23086714Y-57884285D01*
X23158142Y-57741428D01*
X23229571Y-57670000D01*
X23372428Y-57598571D01*
X23658142Y-57598571D01*
X23801000Y-57670000D01*
X23872428Y-57741428D01*
X23943857Y-57884285D01*
X23943857Y-58241428D01*
X23872428Y-58384285D01*
X23801000Y-58455714D01*
X23658142Y-58527142D01*
X23372428Y-58527142D01*
X23229571Y-58455714D01*
X23158142Y-58384285D01*
X23086714Y-58241428D01*
X25118428Y-29801428D02*
X25047000Y-29730000D01*
X24904142Y-29658571D01*
X24547000Y-29658571D01*
X24404142Y-29730000D01*
X24332714Y-29801428D01*
X24261285Y-29944285D01*
X24261285Y-30087142D01*
X24332714Y-30301428D01*
X25189857Y-31158571D01*
X24261285Y-31158571D01*
X22975571Y-30158571D02*
X22975571Y-31158571D01*
X23332714Y-29587142D02*
X23689857Y-30658571D01*
X22761285Y-30658571D01*
X24753571Y-70798571D02*
X24753571Y-71798571D01*
X25110714Y-70227142D02*
X25467857Y-71298571D01*
X24539285Y-71298571D01*
X52256142Y-41318571D02*
X53113285Y-41318571D01*
X52684714Y-41318571D02*
X52684714Y-39818571D01*
X52827571Y-40032857D01*
X52970428Y-40175714D01*
X53113285Y-40247142D01*
X50827571Y-41318571D02*
X51684714Y-41318571D01*
X51256142Y-41318571D02*
X51256142Y-39818571D01*
X51399000Y-40032857D01*
X51541857Y-40175714D01*
X51684714Y-40247142D01*
X52256142Y-38778571D02*
X53113285Y-38778571D01*
X52684714Y-38778571D02*
X52684714Y-37278571D01*
X52827571Y-37492857D01*
X52970428Y-37635714D01*
X53113285Y-37707142D01*
X51327571Y-37278571D02*
X51184714Y-37278571D01*
X51041857Y-37350000D01*
X50970428Y-37421428D01*
X50899000Y-37564285D01*
X50827571Y-37850000D01*
X50827571Y-38207142D01*
X50899000Y-38492857D01*
X50970428Y-38635714D01*
X51041857Y-38707142D01*
X51184714Y-38778571D01*
X51327571Y-38778571D01*
X51470428Y-38707142D01*
X51541857Y-38635714D01*
X51613285Y-38492857D01*
X51684714Y-38207142D01*
X51684714Y-37850000D01*
X51613285Y-37564285D01*
X51541857Y-37421428D01*
X51470428Y-37350000D01*
X51327571Y-37278571D01*
X52533857Y-56558571D02*
X52533857Y-55058571D01*
X51319571Y-55772857D02*
X51105285Y-55844285D01*
X51033857Y-55915714D01*
X50962428Y-56058571D01*
X50962428Y-56272857D01*
X51033857Y-56415714D01*
X51105285Y-56487142D01*
X51248142Y-56558571D01*
X51819571Y-56558571D01*
X51819571Y-55058571D01*
X51319571Y-55058571D01*
X51176714Y-55130000D01*
X51105285Y-55201428D01*
X51033857Y-55344285D01*
X51033857Y-55487142D01*
X51105285Y-55630000D01*
X51176714Y-55701428D01*
X51319571Y-55772857D01*
X51819571Y-55772857D01*
X24499571Y-60138571D02*
X24785285Y-60138571D01*
X24928142Y-60210000D01*
X24999571Y-60281428D01*
X25142428Y-60495714D01*
X25213857Y-60781428D01*
X25213857Y-61352857D01*
X25142428Y-61495714D01*
X25071000Y-61567142D01*
X24928142Y-61638571D01*
X24642428Y-61638571D01*
X24499571Y-61567142D01*
X24428142Y-61495714D01*
X24356714Y-61352857D01*
X24356714Y-60995714D01*
X24428142Y-60852857D01*
X24499571Y-60781428D01*
X24642428Y-60710000D01*
X24928142Y-60710000D01*
X25071000Y-60781428D01*
X25142428Y-60852857D01*
X25213857Y-60995714D01*
X51557571Y-32841428D02*
X51700428Y-32770000D01*
X51771857Y-32698571D01*
X51843285Y-32555714D01*
X51843285Y-32484285D01*
X51771857Y-32341428D01*
X51700428Y-32270000D01*
X51557571Y-32198571D01*
X51271857Y-32198571D01*
X51129000Y-32270000D01*
X51057571Y-32341428D01*
X50986142Y-32484285D01*
X50986142Y-32555714D01*
X51057571Y-32698571D01*
X51129000Y-32770000D01*
X51271857Y-32841428D01*
X51557571Y-32841428D01*
X51700428Y-32912857D01*
X51771857Y-32984285D01*
X51843285Y-33127142D01*
X51843285Y-33412857D01*
X51771857Y-33555714D01*
X51700428Y-33627142D01*
X51557571Y-33698571D01*
X51271857Y-33698571D01*
X51129000Y-33627142D01*
X51057571Y-33555714D01*
X50986142Y-33412857D01*
X50986142Y-33127142D01*
X51057571Y-32984285D01*
X51129000Y-32912857D01*
X51271857Y-32841428D01*
X51446428Y-36238571D02*
X51160714Y-36238571D01*
X51017857Y-36167142D01*
X50946428Y-36095714D01*
X50803571Y-35881428D01*
X50732142Y-35595714D01*
X50732142Y-35024285D01*
X50803571Y-34881428D01*
X50875000Y-34810000D01*
X51017857Y-34738571D01*
X51303571Y-34738571D01*
X51446428Y-34810000D01*
X51517857Y-34881428D01*
X51589285Y-35024285D01*
X51589285Y-35381428D01*
X51517857Y-35524285D01*
X51446428Y-35595714D01*
X51303571Y-35667142D01*
X51017857Y-35667142D01*
X50875000Y-35595714D01*
X50803571Y-35524285D01*
X50732142Y-35381428D01*
X38802571Y-80296000D02*
X40302571Y-80796000D01*
X38802571Y-81296000D01*
X40159714Y-82653142D02*
X40231142Y-82581714D01*
X40302571Y-82367428D01*
X40302571Y-82224571D01*
X40231142Y-82010285D01*
X40088285Y-81867428D01*
X39945428Y-81796000D01*
X39659714Y-81724571D01*
X39445428Y-81724571D01*
X39159714Y-81796000D01*
X39016857Y-81867428D01*
X38874000Y-82010285D01*
X38802571Y-82224571D01*
X38802571Y-82367428D01*
X38874000Y-82581714D01*
X38945428Y-82653142D01*
X40159714Y-84153142D02*
X40231142Y-84081714D01*
X40302571Y-83867428D01*
X40302571Y-83724571D01*
X40231142Y-83510285D01*
X40088285Y-83367428D01*
X39945428Y-83296000D01*
X39659714Y-83224571D01*
X39445428Y-83224571D01*
X39159714Y-83296000D01*
X39016857Y-83367428D01*
X38874000Y-83510285D01*
X38802571Y-83724571D01*
X38802571Y-83867428D01*
X38874000Y-84081714D01*
X38945428Y-84153142D01*
X24261285Y-33698571D02*
X25118428Y-33698571D01*
X24689857Y-33698571D02*
X24689857Y-32198571D01*
X24832714Y-32412857D01*
X24975571Y-32555714D01*
X25118428Y-32627142D01*
X22832714Y-33698571D02*
X23689857Y-33698571D01*
X23261285Y-33698571D02*
X23261285Y-32198571D01*
X23404142Y-32412857D01*
X23547000Y-32555714D01*
X23689857Y-32627142D01*
X25018857Y-28618571D02*
X25018857Y-27118571D01*
X24661714Y-27118571D01*
X24447428Y-27190000D01*
X24304571Y-27332857D01*
X24233142Y-27475714D01*
X24161714Y-27761428D01*
X24161714Y-27975714D01*
X24233142Y-28261428D01*
X24304571Y-28404285D01*
X24447428Y-28547142D01*
X24661714Y-28618571D01*
X25018857Y-28618571D01*
X23018857Y-27832857D02*
X22804571Y-27904285D01*
X22733142Y-27975714D01*
X22661714Y-28118571D01*
X22661714Y-28332857D01*
X22733142Y-28475714D01*
X22804571Y-28547142D01*
X22947428Y-28618571D01*
X23518857Y-28618571D01*
X23518857Y-27118571D01*
X23018857Y-27118571D01*
X22876000Y-27190000D01*
X22804571Y-27261428D01*
X22733142Y-27404285D01*
X22733142Y-27547142D01*
X22804571Y-27690000D01*
X22876000Y-27761428D01*
X23018857Y-27832857D01*
X23518857Y-27832857D01*
D15*
%TO.C,TESTED*%
X27504571Y-86851428D02*
X26633714Y-86851428D01*
X27069142Y-88375428D02*
X27069142Y-86851428D01*
X26125714Y-87577142D02*
X25617714Y-87577142D01*
X25400000Y-88375428D02*
X26125714Y-88375428D01*
X26125714Y-86851428D01*
X25400000Y-86851428D01*
X24819428Y-88302857D02*
X24601714Y-88375428D01*
X24238857Y-88375428D01*
X24093714Y-88302857D01*
X24021142Y-88230285D01*
X23948571Y-88085142D01*
X23948571Y-87940000D01*
X24021142Y-87794857D01*
X24093714Y-87722285D01*
X24238857Y-87649714D01*
X24529142Y-87577142D01*
X24674285Y-87504571D01*
X24746857Y-87432000D01*
X24819428Y-87286857D01*
X24819428Y-87141714D01*
X24746857Y-86996571D01*
X24674285Y-86924000D01*
X24529142Y-86851428D01*
X24166285Y-86851428D01*
X23948571Y-86924000D01*
X23513142Y-86851428D02*
X22642285Y-86851428D01*
X23077714Y-88375428D02*
X23077714Y-86851428D01*
X22134285Y-87577142D02*
X21626285Y-87577142D01*
X21408571Y-88375428D02*
X22134285Y-88375428D01*
X22134285Y-86851428D01*
X21408571Y-86851428D01*
X20755428Y-88375428D02*
X20755428Y-86851428D01*
X20392571Y-86851428D01*
X20174857Y-86924000D01*
X20029714Y-87069142D01*
X19957142Y-87214285D01*
X19884571Y-87504571D01*
X19884571Y-87722285D01*
X19957142Y-88012571D01*
X20029714Y-88157714D01*
X20174857Y-88302857D01*
X20392571Y-88375428D01*
X20755428Y-88375428D01*
D16*
X21622000Y-89186000D02*
X25622000Y-89186000D01*
X25622000Y-89186000D02*
X25622000Y-93186000D01*
X25622000Y-93186000D02*
X21622000Y-93186000D01*
X21622000Y-93186000D02*
X21622000Y-89186000D01*
X21622000Y-89186000D02*
X21622000Y-89686000D01*
X21622000Y-89686000D02*
X25622000Y-89686000D01*
X25622000Y-89686000D02*
X25622000Y-90186000D01*
X25622000Y-90186000D02*
X21622000Y-90186000D01*
X21622000Y-90186000D02*
X21622000Y-90686000D01*
X21622000Y-90686000D02*
X25622000Y-90686000D01*
X25622000Y-90686000D02*
X25622000Y-91186000D01*
X25622000Y-91186000D02*
X21622000Y-91186000D01*
X21622000Y-91186000D02*
X21622000Y-91686000D01*
X21622000Y-91686000D02*
X25122000Y-91686000D01*
X25122000Y-91686000D02*
X25622000Y-91686000D01*
X25622000Y-91686000D02*
X25622000Y-92186000D01*
X25622000Y-92186000D02*
X21622000Y-92186000D01*
X21622000Y-92186000D02*
X21622000Y-92686000D01*
X21622000Y-92686000D02*
X25622000Y-92686000D01*
%TD*%
M02*
