G04 #@! TF.FileFunction,Copper,L2,Bot,Signal*
%FSLAX46Y46*%
G04 Gerber Fmt 4.6, Leading zero omitted, Abs format (unit mm)*
G04 Created by KiCad (PCBNEW (after 2015-mar-04 BZR unknown)-product) date 4/26/2015 3:19:07 PM*
%MOMM*%
G01*
G04 APERTURE LIST*
%ADD10C,0.150000*%
%ADD11C,1.524000*%
%ADD12R,1.397000X1.397000*%
%ADD13C,1.397000*%
%ADD14C,9.525000*%
%ADD15R,1.524000X1.524000*%
%ADD16C,3.810000*%
%ADD17R,1.727200X1.727200*%
%ADD18O,1.727200X1.727200*%
%ADD19R,1.300000X1.300000*%
%ADD20C,1.300000*%
%ADD21R,2.286000X1.574800*%
%ADD22O,2.286000X1.574800*%
%ADD23C,0.889000*%
%ADD24C,0.254000*%
%ADD25C,0.635000*%
G04 APERTURE END LIST*
D10*
D11*
X63655000Y-26985000D03*
X52225000Y-26985000D03*
X63655000Y-38415000D03*
X52225000Y-38415000D03*
X63655000Y-49845000D03*
X52225000Y-49845000D03*
X63655000Y-61275000D03*
X52225000Y-61275000D03*
X63655000Y-72705000D03*
X52225000Y-72705000D03*
X63655000Y-84135000D03*
X52225000Y-84135000D03*
X63655000Y-106995000D03*
X52225000Y-106995000D03*
X63655000Y-95565000D03*
X52225000Y-95565000D03*
D12*
X74450000Y-109535000D03*
D13*
X74450000Y-106995000D03*
X74450000Y-104455000D03*
X66830000Y-104455000D03*
X66830000Y-106995000D03*
X66830000Y-109535000D03*
D12*
X74450000Y-29525000D03*
D13*
X74450000Y-26985000D03*
X74450000Y-24445000D03*
X66830000Y-24445000D03*
X66830000Y-26985000D03*
X66830000Y-29525000D03*
D12*
X74450000Y-40955000D03*
D13*
X74450000Y-38415000D03*
X74450000Y-35875000D03*
X66830000Y-35875000D03*
X66830000Y-38415000D03*
X66830000Y-40955000D03*
D12*
X74450000Y-52385000D03*
D13*
X74450000Y-49845000D03*
X74450000Y-47305000D03*
X66830000Y-47305000D03*
X66830000Y-49845000D03*
X66830000Y-52385000D03*
D12*
X74450000Y-63815000D03*
D13*
X74450000Y-61275000D03*
X74450000Y-58735000D03*
X66830000Y-58735000D03*
X66830000Y-61275000D03*
X66830000Y-63815000D03*
D12*
X74450000Y-75245000D03*
D13*
X74450000Y-72705000D03*
X74450000Y-70165000D03*
X66830000Y-70165000D03*
X66830000Y-72705000D03*
X66830000Y-75245000D03*
D12*
X74450000Y-86675000D03*
D13*
X74450000Y-84135000D03*
X74450000Y-81595000D03*
X66830000Y-81595000D03*
X66830000Y-84135000D03*
X66830000Y-86675000D03*
D12*
X74450000Y-98105000D03*
D13*
X74450000Y-95565000D03*
X74450000Y-93025000D03*
X66830000Y-93025000D03*
X66830000Y-95565000D03*
X66830000Y-98105000D03*
D14*
X36000000Y-26000000D03*
X119000000Y-26000000D03*
X36000000Y-109000000D03*
X119000000Y-109000000D03*
D15*
X118900000Y-65720000D03*
D11*
X118900000Y-63180000D03*
X118900000Y-60640000D03*
X118900000Y-58100000D03*
D16*
X41430000Y-44005000D03*
X41430000Y-90995000D03*
D15*
X43970000Y-84010000D03*
D11*
X43970000Y-81216000D03*
X43970000Y-78549000D03*
X43970000Y-75755000D03*
X43970000Y-72961000D03*
X43970000Y-70167000D03*
X43970000Y-67500000D03*
X43970000Y-64706000D03*
X43970000Y-61912000D03*
X43970000Y-59118000D03*
X43970000Y-56451000D03*
X43970000Y-53657000D03*
X43970000Y-50863000D03*
X41430000Y-82435200D03*
X41430000Y-79895200D03*
X41430000Y-77101200D03*
X41430000Y-74358000D03*
X41430000Y-71614800D03*
X41430000Y-68820800D03*
X41430000Y-66077600D03*
X41430000Y-63334400D03*
X41430000Y-60489600D03*
X41430000Y-57797200D03*
X41430000Y-55054000D03*
X41430000Y-52260000D03*
D12*
X84610000Y-77785000D03*
D13*
X84610000Y-75245000D03*
X84610000Y-72705000D03*
X84610000Y-70165000D03*
X84610000Y-67625000D03*
X84610000Y-65085000D03*
X84610000Y-62545000D03*
X84610000Y-60005000D03*
X84610000Y-57465000D03*
X84610000Y-54925000D03*
D12*
X106200000Y-78420000D03*
D13*
X106200000Y-75880000D03*
X106200000Y-73340000D03*
X106200000Y-70800000D03*
X106200000Y-68260000D03*
X106200000Y-65720000D03*
X106200000Y-63180000D03*
X106200000Y-60640000D03*
X106200000Y-58100000D03*
X106200000Y-55560000D03*
D15*
X113820000Y-65720000D03*
D11*
X113820000Y-63180000D03*
X113820000Y-60640000D03*
X113820000Y-58100000D03*
D15*
X118900000Y-41590000D03*
D11*
X118900000Y-39050000D03*
X118900000Y-36510000D03*
D15*
X118900000Y-98740000D03*
D11*
X118900000Y-96200000D03*
X118900000Y-93660000D03*
X108740000Y-91056500D03*
X108740000Y-102486500D03*
X111534000Y-91183500D03*
X111534000Y-102613500D03*
X106200000Y-90993000D03*
X106200000Y-102423000D03*
D17*
X120932000Y-78928000D03*
D18*
X118392000Y-78928000D03*
X120932000Y-76388000D03*
X118392000Y-76388000D03*
X120932000Y-73848000D03*
X118392000Y-73848000D03*
D17*
X121186000Y-89088000D03*
D18*
X118646000Y-89088000D03*
X121186000Y-86548000D03*
X118646000Y-86548000D03*
X121186000Y-84008000D03*
X118646000Y-84008000D03*
D19*
X92964000Y-80264000D03*
D20*
X97964000Y-80264000D03*
D19*
X92964000Y-97790000D03*
D20*
X97964000Y-97790000D03*
D21*
X99215000Y-75880000D03*
D22*
X99215000Y-73340000D03*
X99215000Y-70800000D03*
X99215000Y-68260000D03*
X99215000Y-65720000D03*
X99215000Y-63180000D03*
X99215000Y-60640000D03*
X99215000Y-58100000D03*
X99215000Y-55560000D03*
X91595000Y-55560000D03*
X91595000Y-58100000D03*
X91595000Y-60640000D03*
X91595000Y-63180000D03*
X91595000Y-65720000D03*
X91595000Y-68260000D03*
X91595000Y-70800000D03*
X91595000Y-73340000D03*
X91595000Y-75880000D03*
D21*
X99215000Y-92390000D03*
D22*
X99215000Y-89850000D03*
X99215000Y-87310000D03*
X99215000Y-84770000D03*
X91595000Y-84770000D03*
X91595000Y-87310000D03*
X91595000Y-89850000D03*
X91595000Y-92390000D03*
D23*
X117602000Y-67564000D03*
X112014000Y-76454000D03*
X111760000Y-68834000D03*
X109982000Y-88900000D03*
X110744000Y-78994000D03*
X110932000Y-70800000D03*
X109728000Y-74676000D03*
X109728000Y-58166000D03*
X108458000Y-72136000D03*
X108458000Y-60706000D03*
X116078000Y-81026000D03*
X90325000Y-78420000D03*
X103886000Y-95758000D03*
X88166000Y-38796000D03*
X108740000Y-85278000D03*
D24*
X118392000Y-73848000D02*
X118392000Y-68354000D01*
X118392000Y-68354000D02*
X117602000Y-67564000D01*
X99215000Y-92390000D02*
X100485000Y-92390000D01*
X102136000Y-68641000D02*
X99215000Y-65720000D01*
X102136000Y-90739000D02*
X102136000Y-68641000D01*
X100485000Y-92390000D02*
X102136000Y-90739000D01*
X112014000Y-86868000D02*
X109982000Y-88900000D01*
X112014000Y-69088000D02*
X112014000Y-76454000D01*
X112014000Y-76454000D02*
X112014000Y-86868000D01*
X111760000Y-68834000D02*
X112014000Y-69088000D01*
X110744000Y-70988000D02*
X110744000Y-78994000D01*
X110932000Y-70800000D02*
X110744000Y-70988000D01*
X99215000Y-70800000D02*
X100104000Y-70800000D01*
X100993000Y-85532000D02*
X99215000Y-87310000D01*
X100993000Y-71689000D02*
X100993000Y-85532000D01*
X100104000Y-70800000D02*
X100993000Y-71689000D01*
X109728000Y-62484000D02*
X109728000Y-58166000D01*
X109728000Y-70866000D02*
X109728000Y-62484000D01*
X109728000Y-74676000D02*
X109728000Y-70866000D01*
X91595000Y-87310000D02*
X93373000Y-87310000D01*
X97564000Y-75880000D02*
X99215000Y-75880000D01*
X95786000Y-77658000D02*
X97564000Y-75880000D01*
X95786000Y-84897000D02*
X95786000Y-77658000D01*
X93373000Y-87310000D02*
X95786000Y-84897000D01*
X108458000Y-72136000D02*
X108458000Y-60706000D01*
X91595000Y-84770000D02*
X94897000Y-81468000D01*
X94897000Y-75372000D02*
X96929000Y-73340000D01*
X94897000Y-81468000D02*
X94897000Y-75372000D01*
X96929000Y-73340000D02*
X99215000Y-73340000D01*
X91595000Y-84770000D02*
X91722000Y-84770000D01*
D25*
X89154000Y-88646000D02*
X89154000Y-90932000D01*
X90612000Y-92390000D02*
X91595000Y-92390000D01*
X89154000Y-90932000D02*
X90612000Y-92390000D01*
X90325000Y-78420000D02*
X90325000Y-82141000D01*
X89154000Y-83312000D02*
X89154000Y-88646000D01*
X90325000Y-82141000D02*
X89154000Y-83312000D01*
X91595000Y-75880000D02*
X90960000Y-75880000D01*
X90960000Y-75880000D02*
X90325000Y-76515000D01*
X90325000Y-76515000D02*
X90325000Y-78420000D01*
X113820000Y-63180000D02*
X118900000Y-63180000D01*
X113820000Y-63180000D02*
X115090000Y-63180000D01*
X115090000Y-63180000D02*
X115824000Y-63914000D01*
X115824000Y-80772000D02*
X116078000Y-81026000D01*
X115824000Y-63914000D02*
X115824000Y-80772000D01*
X118900000Y-63180000D02*
X116774000Y-63180000D01*
X116774000Y-63180000D02*
X116332000Y-62738000D01*
X116332000Y-62738000D02*
X116332000Y-39624000D01*
X116332000Y-39624000D02*
X116906000Y-39050000D01*
X116906000Y-39050000D02*
X118900000Y-39050000D01*
D24*
X115979000Y-80927000D02*
X115979000Y-75692000D01*
X116078000Y-81026000D02*
X115979000Y-80927000D01*
X115979000Y-75692000D02*
X115979000Y-72898000D01*
X115090000Y-63180000D02*
X115979000Y-64069000D01*
X115979000Y-72898000D02*
X115979000Y-64069000D01*
X90960000Y-75880000D02*
X90325000Y-76515000D01*
X90325000Y-76515000D02*
X90325000Y-78420000D01*
D25*
X103787000Y-95659000D02*
X103886000Y-95758000D01*
X103787000Y-91440000D02*
X103787000Y-95659000D01*
X103787000Y-79347000D02*
X104714000Y-78420000D01*
X104714000Y-78420000D02*
X106200000Y-78420000D01*
X103787000Y-91440000D02*
X103787000Y-79347000D01*
D24*
X103025000Y-70165000D02*
X103025000Y-66355000D01*
X103025000Y-66355000D02*
X99850000Y-63180000D01*
X99850000Y-63180000D02*
X99215000Y-63180000D01*
X106200000Y-73340000D02*
X103025000Y-70165000D01*
X99215000Y-58100000D02*
X99248000Y-58100000D01*
X99248000Y-58100000D02*
X104328000Y-63180000D01*
X104328000Y-63180000D02*
X106200000Y-63180000D01*
X99850000Y-58100000D02*
X99215000Y-58100000D01*
X87785000Y-38415000D02*
X74450000Y-38415000D01*
X88166000Y-38796000D02*
X87785000Y-38415000D01*
X89944000Y-60640000D02*
X88928000Y-59624000D01*
X88928000Y-59624000D02*
X88928000Y-54290000D01*
X91595000Y-60640000D02*
X89944000Y-60640000D01*
X84483000Y-49845000D02*
X88928000Y-54290000D01*
X74450000Y-49845000D02*
X84483000Y-49845000D01*
X90452000Y-63180000D02*
X88420000Y-61148000D01*
X88420000Y-61148000D02*
X74577000Y-61148000D01*
X74577000Y-61148000D02*
X74450000Y-61275000D01*
X91595000Y-63180000D02*
X90452000Y-63180000D01*
X87150000Y-65720000D02*
X86388000Y-66482000D01*
X91595000Y-65720000D02*
X87150000Y-65720000D01*
X82070000Y-66482000D02*
X86388000Y-66482000D01*
X75847000Y-72705000D02*
X82070000Y-66482000D01*
X74450000Y-72705000D02*
X75847000Y-72705000D01*
X88420000Y-68260000D02*
X85118000Y-71562000D01*
X85118000Y-71562000D02*
X82578000Y-71562000D01*
X82578000Y-71562000D02*
X79276000Y-74864000D01*
X79276000Y-74864000D02*
X79276000Y-82484000D01*
X79276000Y-82484000D02*
X77625000Y-84135000D01*
X77625000Y-84135000D02*
X74450000Y-84135000D01*
X91595000Y-68260000D02*
X88420000Y-68260000D01*
X78895000Y-95565000D02*
X83340000Y-91120000D01*
X83340000Y-91120000D02*
X83340000Y-84135000D01*
X83340000Y-84135000D02*
X87658000Y-79817000D01*
X74450000Y-95565000D02*
X78895000Y-95565000D01*
X87658000Y-72197000D02*
X89055000Y-70800000D01*
X89055000Y-70800000D02*
X91595000Y-70800000D01*
X87658000Y-79817000D02*
X87658000Y-72197000D01*
X91595000Y-73340000D02*
X89728000Y-73340000D01*
X76393000Y-106995000D02*
X74450000Y-106995000D01*
X83820000Y-99568000D02*
X76393000Y-106995000D01*
X83820000Y-84301582D02*
X83820000Y-99568000D01*
X88392000Y-79729582D02*
X83820000Y-84301582D01*
X88392000Y-74676000D02*
X88392000Y-79729582D01*
X89728000Y-73340000D02*
X88392000Y-74676000D01*
X74450000Y-106995000D02*
X75085000Y-106995000D01*
X108740000Y-91056500D02*
X108740000Y-85278000D01*
X108740000Y-91056500D02*
X108740000Y-90739000D01*
G36*
X124569000Y-106348473D02*
X124224815Y-105515482D01*
X122684600Y-103972576D01*
X122684600Y-90077910D01*
X122684600Y-89825291D01*
X122684600Y-89373750D01*
X122684600Y-88802250D01*
X122684600Y-88350709D01*
X122684600Y-88098090D01*
X122587927Y-87864701D01*
X122409298Y-87686073D01*
X122175909Y-87589400D01*
X121848992Y-87589400D01*
X122090448Y-87428065D01*
X122360243Y-87024288D01*
X122454983Y-86548000D01*
X122454983Y-84008000D01*
X122430600Y-83885418D01*
X122430600Y-79917910D01*
X122430600Y-79665291D01*
X122430600Y-79213750D01*
X122430600Y-78642250D01*
X122430600Y-78190709D01*
X122430600Y-77938090D01*
X122333927Y-77704701D01*
X122155298Y-77526073D01*
X121957880Y-77444299D01*
X122214688Y-77162947D01*
X122386958Y-76747026D01*
X122386958Y-76028974D01*
X122214688Y-75613053D01*
X121820490Y-75181179D01*
X121685687Y-75118000D01*
X121820490Y-75054821D01*
X122214688Y-74622947D01*
X122386958Y-74207026D01*
X122386958Y-73488974D01*
X122214688Y-73073053D01*
X121820490Y-72641179D01*
X121291027Y-72393032D01*
X121059000Y-72513531D01*
X121059000Y-73721000D01*
X122265817Y-73721000D01*
X122386958Y-73488974D01*
X122386958Y-74207026D01*
X122265817Y-73975000D01*
X121059000Y-73975000D01*
X121059000Y-75053531D01*
X121059000Y-75182469D01*
X121059000Y-76261000D01*
X122265817Y-76261000D01*
X122386958Y-76028974D01*
X122386958Y-76747026D01*
X122265817Y-76515000D01*
X121059000Y-76515000D01*
X121059000Y-77588150D01*
X121059000Y-77722469D01*
X121059000Y-78801000D01*
X122271850Y-78801000D01*
X122430600Y-78642250D01*
X122430600Y-79213750D01*
X122271850Y-79055000D01*
X121059000Y-79055000D01*
X121059000Y-80267850D01*
X121217750Y-80426600D01*
X121921909Y-80426600D01*
X122155298Y-80329927D01*
X122333927Y-80151299D01*
X122430600Y-79917910D01*
X122430600Y-83885418D01*
X122360243Y-83531712D01*
X122090448Y-83127935D01*
X121686671Y-82858140D01*
X121210383Y-82763400D01*
X121161617Y-82763400D01*
X120805000Y-82834335D01*
X120805000Y-80267850D01*
X120805000Y-79055000D01*
X120785000Y-79055000D01*
X120785000Y-78801000D01*
X120805000Y-78801000D01*
X120805000Y-77722469D01*
X120805000Y-77588150D01*
X120805000Y-76515000D01*
X120785000Y-76515000D01*
X120785000Y-76261000D01*
X120805000Y-76261000D01*
X120805000Y-75182469D01*
X120805000Y-75053531D01*
X120805000Y-73975000D01*
X120785000Y-73975000D01*
X120785000Y-73721000D01*
X120805000Y-73721000D01*
X120805000Y-72513531D01*
X120572973Y-72393032D01*
X120297000Y-72522374D01*
X120297000Y-66608310D01*
X120297000Y-66355691D01*
X120297000Y-66005750D01*
X120138250Y-65847000D01*
X119027000Y-65847000D01*
X119027000Y-66958250D01*
X119185750Y-67117000D01*
X119788309Y-67117000D01*
X120021698Y-67020327D01*
X120200327Y-66841699D01*
X120297000Y-66608310D01*
X120297000Y-72522374D01*
X120043510Y-72641179D01*
X119649312Y-73073053D01*
X119541159Y-73334171D01*
X119296448Y-72967935D01*
X118900000Y-72703037D01*
X118900000Y-68354000D01*
X118861331Y-68159597D01*
X118751210Y-67994790D01*
X118427407Y-67670987D01*
X118427643Y-67400518D01*
X118310495Y-67117000D01*
X118614250Y-67117000D01*
X118773000Y-66958250D01*
X118773000Y-65847000D01*
X117661750Y-65847000D01*
X117503000Y-66005750D01*
X117503000Y-66355691D01*
X117503000Y-66608310D01*
X117556910Y-66738460D01*
X117438518Y-66738357D01*
X117135002Y-66863767D01*
X116903500Y-67094865D01*
X116903500Y-64259500D01*
X117824234Y-64259500D01*
X117923917Y-64359357D01*
X117778302Y-64419673D01*
X117599673Y-64598301D01*
X117503000Y-64831690D01*
X117503000Y-65084309D01*
X117503000Y-65434250D01*
X117661750Y-65593000D01*
X118773000Y-65593000D01*
X118773000Y-65573000D01*
X119027000Y-65573000D01*
X119027000Y-65593000D01*
X120138250Y-65593000D01*
X120297000Y-65434250D01*
X120297000Y-65084309D01*
X120297000Y-64831690D01*
X120200327Y-64598301D01*
X120021698Y-64419673D01*
X119875831Y-64359253D01*
X120191231Y-64044404D01*
X120423735Y-63484472D01*
X120424264Y-62878188D01*
X120297000Y-62570184D01*
X120297000Y-42478309D01*
X120297000Y-41875750D01*
X120138250Y-41717000D01*
X119027000Y-41717000D01*
X119027000Y-42828250D01*
X119185750Y-42987000D01*
X119535691Y-42987000D01*
X119788310Y-42987000D01*
X120021699Y-42890327D01*
X120200327Y-42711698D01*
X120297000Y-42478309D01*
X120297000Y-62570184D01*
X120192738Y-62317851D01*
X119764404Y-61888769D01*
X119318734Y-61703710D01*
X119546612Y-61609554D01*
X119868423Y-61288303D01*
X120042801Y-60868354D01*
X120043198Y-60413641D01*
X120043198Y-57873641D01*
X119869554Y-57453388D01*
X119548303Y-57131577D01*
X119128354Y-56957199D01*
X118773000Y-56956888D01*
X118773000Y-42828250D01*
X118773000Y-41717000D01*
X117661750Y-41717000D01*
X117503000Y-41875750D01*
X117503000Y-42478309D01*
X117599673Y-42711698D01*
X117778301Y-42890327D01*
X118011690Y-42987000D01*
X118264309Y-42987000D01*
X118614250Y-42987000D01*
X118773000Y-42828250D01*
X118773000Y-56956888D01*
X118673641Y-56956802D01*
X118253388Y-57130446D01*
X117931577Y-57451697D01*
X117757199Y-57871646D01*
X117756802Y-58326359D01*
X117930446Y-58746612D01*
X118251697Y-59068423D01*
X118671646Y-59242801D01*
X119126359Y-59243198D01*
X119546612Y-59069554D01*
X119868423Y-58748303D01*
X120042801Y-58328354D01*
X120043198Y-57873641D01*
X120043198Y-60413641D01*
X119869554Y-59993388D01*
X119548303Y-59671577D01*
X119128354Y-59497199D01*
X118673641Y-59496802D01*
X118253388Y-59670446D01*
X117931577Y-59991697D01*
X117757199Y-60411646D01*
X117756802Y-60866359D01*
X117930446Y-61286612D01*
X118251697Y-61608423D01*
X118481626Y-61703898D01*
X118037851Y-61887262D01*
X117824240Y-62100500D01*
X117411500Y-62100500D01*
X117411500Y-40129500D01*
X117824234Y-40129500D01*
X117923916Y-40229356D01*
X117778301Y-40289673D01*
X117599673Y-40468302D01*
X117503000Y-40701691D01*
X117503000Y-41304250D01*
X117661750Y-41463000D01*
X118773000Y-41463000D01*
X118773000Y-41443000D01*
X119027000Y-41443000D01*
X119027000Y-41463000D01*
X120138250Y-41463000D01*
X120297000Y-41304250D01*
X120297000Y-40701691D01*
X120200327Y-40468302D01*
X120021699Y-40289673D01*
X119875832Y-40229252D01*
X120191231Y-39914404D01*
X120423735Y-39354472D01*
X120424264Y-38748188D01*
X120309144Y-38469575D01*
X120309144Y-36717698D01*
X120281362Y-36162632D01*
X120122397Y-35778857D01*
X119880213Y-35709392D01*
X119700608Y-35888997D01*
X119700608Y-35529787D01*
X119631143Y-35287603D01*
X119107698Y-35100856D01*
X118552632Y-35128638D01*
X118168857Y-35287603D01*
X118099392Y-35529787D01*
X118900000Y-36330395D01*
X119700608Y-35529787D01*
X119700608Y-35888997D01*
X119079605Y-36510000D01*
X119880213Y-37310608D01*
X120122397Y-37241143D01*
X120309144Y-36717698D01*
X120309144Y-38469575D01*
X120192738Y-38187851D01*
X119764404Y-37758769D01*
X119638566Y-37706516D01*
X119700608Y-37490213D01*
X118900000Y-36689605D01*
X118720395Y-36869210D01*
X118720395Y-36510000D01*
X117919787Y-35709392D01*
X117677603Y-35778857D01*
X117490856Y-36302302D01*
X117518638Y-36857368D01*
X117677603Y-37241143D01*
X117919787Y-37310608D01*
X118720395Y-36510000D01*
X118720395Y-36869210D01*
X118099392Y-37490213D01*
X118161352Y-37706232D01*
X118037851Y-37757262D01*
X117824240Y-37970500D01*
X116906005Y-37970500D01*
X116906000Y-37970499D01*
X116561432Y-38039038D01*
X116492893Y-38052672D01*
X116142678Y-38286678D01*
X116142675Y-38286681D01*
X115568678Y-38860678D01*
X115334672Y-39210893D01*
X115252500Y-39624000D01*
X115252500Y-62100500D01*
X115090000Y-62100500D01*
X114895765Y-62100500D01*
X114684404Y-61888769D01*
X114238734Y-61703710D01*
X114466612Y-61609554D01*
X114788423Y-61288303D01*
X114962801Y-60868354D01*
X114963198Y-60413641D01*
X114963198Y-57873641D01*
X114789554Y-57453388D01*
X114468303Y-57131577D01*
X114048354Y-56957199D01*
X113593641Y-56956802D01*
X113173388Y-57130446D01*
X112851577Y-57451697D01*
X112677199Y-57871646D01*
X112676802Y-58326359D01*
X112850446Y-58746612D01*
X113171697Y-59068423D01*
X113591646Y-59242801D01*
X114046359Y-59243198D01*
X114466612Y-59069554D01*
X114788423Y-58748303D01*
X114962801Y-58328354D01*
X114963198Y-57873641D01*
X114963198Y-60413641D01*
X114789554Y-59993388D01*
X114468303Y-59671577D01*
X114048354Y-59497199D01*
X113593641Y-59496802D01*
X113173388Y-59670446D01*
X112851577Y-59991697D01*
X112677199Y-60411646D01*
X112676802Y-60866359D01*
X112850446Y-61286612D01*
X113171697Y-61608423D01*
X113401626Y-61703898D01*
X112957851Y-61887262D01*
X112528769Y-62315596D01*
X112296265Y-62875528D01*
X112295736Y-63481812D01*
X112527262Y-64042149D01*
X112843917Y-64359357D01*
X112698302Y-64419673D01*
X112519673Y-64598301D01*
X112423000Y-64831690D01*
X112423000Y-65084309D01*
X112423000Y-65434250D01*
X112581750Y-65593000D01*
X113693000Y-65593000D01*
X113693000Y-65573000D01*
X113947000Y-65573000D01*
X113947000Y-65593000D01*
X113967000Y-65593000D01*
X113967000Y-65847000D01*
X113947000Y-65847000D01*
X113947000Y-66958250D01*
X114105750Y-67117000D01*
X114708309Y-67117000D01*
X114744500Y-67102009D01*
X114744500Y-80772000D01*
X114826672Y-81185107D01*
X114871302Y-81251901D01*
X114871291Y-81264935D01*
X115054582Y-81708535D01*
X115393680Y-82048225D01*
X115836959Y-82232290D01*
X116316935Y-82232709D01*
X116760535Y-82049418D01*
X117100225Y-81710320D01*
X117284290Y-81267041D01*
X117284709Y-80787065D01*
X117101418Y-80343465D01*
X116903500Y-80145201D01*
X116903500Y-68032734D01*
X117133781Y-68263417D01*
X117437077Y-68389357D01*
X117709173Y-68389593D01*
X117884000Y-68564420D01*
X117884000Y-72703037D01*
X117487552Y-72967935D01*
X117217757Y-73371712D01*
X117123017Y-73848000D01*
X117217757Y-74324288D01*
X117487552Y-74728065D01*
X117891329Y-74997860D01*
X118367617Y-75092600D01*
X118416383Y-75092600D01*
X118892671Y-74997860D01*
X119296448Y-74728065D01*
X119541159Y-74361828D01*
X119649312Y-74622947D01*
X120043510Y-75054821D01*
X120178312Y-75118000D01*
X120043510Y-75181179D01*
X119649312Y-75613053D01*
X119541159Y-75874171D01*
X119296448Y-75507935D01*
X118892671Y-75238140D01*
X118416383Y-75143400D01*
X118367617Y-75143400D01*
X117891329Y-75238140D01*
X117487552Y-75507935D01*
X117217757Y-75911712D01*
X117123017Y-76388000D01*
X117217757Y-76864288D01*
X117487552Y-77268065D01*
X117891329Y-77537860D01*
X118367617Y-77632600D01*
X118416383Y-77632600D01*
X118892671Y-77537860D01*
X119296448Y-77268065D01*
X119541159Y-76901828D01*
X119649312Y-77162947D01*
X119906119Y-77444299D01*
X119708702Y-77526073D01*
X119530073Y-77704701D01*
X119433400Y-77938090D01*
X119433400Y-78190709D01*
X119433400Y-78252898D01*
X119296448Y-78047935D01*
X118892671Y-77778140D01*
X118416383Y-77683400D01*
X118367617Y-77683400D01*
X117891329Y-77778140D01*
X117487552Y-78047935D01*
X117217757Y-78451712D01*
X117123017Y-78928000D01*
X117217757Y-79404288D01*
X117487552Y-79808065D01*
X117891329Y-80077860D01*
X118367617Y-80172600D01*
X118416383Y-80172600D01*
X118892671Y-80077860D01*
X119296448Y-79808065D01*
X119433400Y-79603101D01*
X119433400Y-79665291D01*
X119433400Y-79917910D01*
X119530073Y-80151299D01*
X119708702Y-80329927D01*
X119942091Y-80426600D01*
X120646250Y-80426600D01*
X120805000Y-80267850D01*
X120805000Y-82834335D01*
X120685329Y-82858140D01*
X120281552Y-83127935D01*
X120011757Y-83531712D01*
X119917017Y-84008000D01*
X120011757Y-84484288D01*
X120281552Y-84888065D01*
X120685329Y-85157860D01*
X121161617Y-85252600D01*
X121210383Y-85252600D01*
X121686671Y-85157860D01*
X122090448Y-84888065D01*
X122360243Y-84484288D01*
X122454983Y-84008000D01*
X122454983Y-86548000D01*
X122360243Y-86071712D01*
X122090448Y-85667935D01*
X121686671Y-85398140D01*
X121210383Y-85303400D01*
X121161617Y-85303400D01*
X120685329Y-85398140D01*
X120281552Y-85667935D01*
X120011757Y-86071712D01*
X119917017Y-86548000D01*
X120011757Y-87024288D01*
X120281552Y-87428065D01*
X120523007Y-87589400D01*
X120196091Y-87589400D01*
X119962702Y-87686073D01*
X119914983Y-87733791D01*
X119914983Y-86548000D01*
X119914983Y-84008000D01*
X119820243Y-83531712D01*
X119550448Y-83127935D01*
X119146671Y-82858140D01*
X118670383Y-82763400D01*
X118621617Y-82763400D01*
X118145329Y-82858140D01*
X117741552Y-83127935D01*
X117471757Y-83531712D01*
X117377017Y-84008000D01*
X117471757Y-84484288D01*
X117741552Y-84888065D01*
X118145329Y-85157860D01*
X118621617Y-85252600D01*
X118670383Y-85252600D01*
X119146671Y-85157860D01*
X119550448Y-84888065D01*
X119820243Y-84484288D01*
X119914983Y-84008000D01*
X119914983Y-86548000D01*
X119820243Y-86071712D01*
X119550448Y-85667935D01*
X119146671Y-85398140D01*
X118670383Y-85303400D01*
X118621617Y-85303400D01*
X118145329Y-85398140D01*
X117741552Y-85667935D01*
X117471757Y-86071712D01*
X117377017Y-86548000D01*
X117471757Y-87024288D01*
X117741552Y-87428065D01*
X118145329Y-87697860D01*
X118621617Y-87792600D01*
X118670383Y-87792600D01*
X119146671Y-87697860D01*
X119550448Y-87428065D01*
X119820243Y-87024288D01*
X119914983Y-86548000D01*
X119914983Y-87733791D01*
X119784073Y-87864701D01*
X119687400Y-88098090D01*
X119687400Y-88350709D01*
X119687400Y-88412898D01*
X119550448Y-88207935D01*
X119146671Y-87938140D01*
X118670383Y-87843400D01*
X118621617Y-87843400D01*
X118145329Y-87938140D01*
X117741552Y-88207935D01*
X117471757Y-88611712D01*
X117377017Y-89088000D01*
X117471757Y-89564288D01*
X117741552Y-89968065D01*
X118145329Y-90237860D01*
X118621617Y-90332600D01*
X118670383Y-90332600D01*
X119146671Y-90237860D01*
X119550448Y-89968065D01*
X119687400Y-89763101D01*
X119687400Y-89825291D01*
X119687400Y-90077910D01*
X119784073Y-90311299D01*
X119962702Y-90489927D01*
X120196091Y-90586600D01*
X120900250Y-90586600D01*
X121059000Y-90427850D01*
X121059000Y-89215000D01*
X121039000Y-89215000D01*
X121039000Y-88961000D01*
X121059000Y-88961000D01*
X121059000Y-88941000D01*
X121313000Y-88941000D01*
X121313000Y-88961000D01*
X122525850Y-88961000D01*
X122684600Y-88802250D01*
X122684600Y-89373750D01*
X122525850Y-89215000D01*
X121313000Y-89215000D01*
X121313000Y-90427850D01*
X121471750Y-90586600D01*
X122175909Y-90586600D01*
X122409298Y-90489927D01*
X122587927Y-90311299D01*
X122684600Y-90077910D01*
X122684600Y-103972576D01*
X122493632Y-103781275D01*
X120309144Y-102874195D01*
X120309144Y-93867698D01*
X120281362Y-93312632D01*
X120122397Y-92928857D01*
X119880213Y-92859392D01*
X119700608Y-93038997D01*
X119700608Y-92679787D01*
X119631143Y-92437603D01*
X119107698Y-92250856D01*
X118552632Y-92278638D01*
X118168857Y-92437603D01*
X118099392Y-92679787D01*
X118900000Y-93480395D01*
X119700608Y-92679787D01*
X119700608Y-93038997D01*
X119079605Y-93660000D01*
X119880213Y-94460608D01*
X120122397Y-94391143D01*
X120309144Y-93867698D01*
X120309144Y-102874195D01*
X120297000Y-102869153D01*
X120297000Y-99628309D01*
X120297000Y-99025750D01*
X120297000Y-98454250D01*
X120297000Y-97851691D01*
X120200327Y-97618302D01*
X120043198Y-97461172D01*
X120021699Y-97439673D01*
X119788310Y-97343000D01*
X119535691Y-97343000D01*
X119185750Y-97343000D01*
X119027002Y-97501748D01*
X119027002Y-97343111D01*
X119126359Y-97343198D01*
X119546612Y-97169554D01*
X119868423Y-96848303D01*
X120042801Y-96428354D01*
X120043198Y-95973641D01*
X119869554Y-95553388D01*
X119548303Y-95231577D01*
X119128354Y-95057199D01*
X118934339Y-95057029D01*
X119247368Y-95041362D01*
X119631143Y-94882397D01*
X119700608Y-94640213D01*
X118900000Y-93839605D01*
X118720395Y-94019210D01*
X118720395Y-93660000D01*
X117919787Y-92859392D01*
X117677603Y-92928857D01*
X117490856Y-93452302D01*
X117518638Y-94007368D01*
X117677603Y-94391143D01*
X117919787Y-94460608D01*
X118720395Y-93660000D01*
X118720395Y-94019210D01*
X118099392Y-94640213D01*
X118168857Y-94882397D01*
X118666258Y-95059852D01*
X118253388Y-95230446D01*
X117931577Y-95551697D01*
X117757199Y-95971646D01*
X117756802Y-96426359D01*
X117930446Y-96846612D01*
X118251697Y-97168423D01*
X118671646Y-97342801D01*
X118899575Y-97343000D01*
X118772998Y-97343000D01*
X118772998Y-97501748D01*
X118614250Y-97343000D01*
X118264309Y-97343000D01*
X118011690Y-97343000D01*
X117778301Y-97439673D01*
X117599673Y-97618302D01*
X117503000Y-97851691D01*
X117503000Y-98454250D01*
X117661750Y-98613000D01*
X118773000Y-98613000D01*
X118773000Y-98593000D01*
X119027000Y-98593000D01*
X119027000Y-98613000D01*
X120138250Y-98613000D01*
X120297000Y-98454250D01*
X120297000Y-99025750D01*
X120138250Y-98867000D01*
X119027000Y-98867000D01*
X119027000Y-99978250D01*
X119185750Y-100137000D01*
X119535691Y-100137000D01*
X119788310Y-100137000D01*
X120021699Y-100040327D01*
X120200327Y-99861698D01*
X120297000Y-99628309D01*
X120297000Y-102869153D01*
X120230575Y-102841571D01*
X118773000Y-102840299D01*
X118773000Y-99978250D01*
X118773000Y-98867000D01*
X117661750Y-98867000D01*
X117503000Y-99025750D01*
X117503000Y-99628309D01*
X117599673Y-99861698D01*
X117778301Y-100040327D01*
X118011690Y-100137000D01*
X118264309Y-100137000D01*
X118614250Y-100137000D01*
X118773000Y-99978250D01*
X118773000Y-102840299D01*
X117780175Y-102839433D01*
X115515482Y-103775185D01*
X113781275Y-105506368D01*
X113693000Y-105718957D01*
X113693000Y-66958250D01*
X113693000Y-65847000D01*
X112581750Y-65847000D01*
X112423000Y-66005750D01*
X112423000Y-66355691D01*
X112423000Y-66608310D01*
X112519673Y-66841699D01*
X112698302Y-67020327D01*
X112931691Y-67117000D01*
X113534250Y-67117000D01*
X113693000Y-66958250D01*
X113693000Y-105718957D01*
X113058264Y-107247570D01*
X113058264Y-102311688D01*
X112839643Y-101782583D01*
X112839643Y-76290518D01*
X112714233Y-75987002D01*
X112522000Y-75794433D01*
X112522000Y-69151502D01*
X112585357Y-68998923D01*
X112585643Y-68670518D01*
X112460233Y-68367002D01*
X112228219Y-68134583D01*
X111924923Y-68008643D01*
X111596518Y-68008357D01*
X111293002Y-68133767D01*
X111060583Y-68365781D01*
X110934643Y-68669077D01*
X110934357Y-68997482D01*
X111059767Y-69300998D01*
X111291781Y-69533417D01*
X111506000Y-69622368D01*
X111506000Y-70206548D01*
X111400219Y-70100583D01*
X111096923Y-69974643D01*
X110768518Y-69974357D01*
X110465002Y-70099767D01*
X110236000Y-70328369D01*
X110236000Y-62484000D01*
X110236000Y-58825302D01*
X110427417Y-58634219D01*
X110553357Y-58330923D01*
X110553643Y-58002518D01*
X110428233Y-57699002D01*
X110196219Y-57466583D01*
X109892923Y-57340643D01*
X109564518Y-57340357D01*
X109261002Y-57465767D01*
X109028583Y-57697781D01*
X108902643Y-58001077D01*
X108902357Y-58329482D01*
X109027767Y-58632998D01*
X109220000Y-58825566D01*
X109220000Y-60388489D01*
X109158233Y-60239002D01*
X108926219Y-60006583D01*
X108622923Y-59880643D01*
X108294518Y-59880357D01*
X107991002Y-60005767D01*
X107758583Y-60237781D01*
X107632643Y-60541077D01*
X107632357Y-60869482D01*
X107757767Y-61172998D01*
X107950000Y-61365566D01*
X107950000Y-71476697D01*
X107758583Y-71667781D01*
X107632643Y-71971077D01*
X107632357Y-72299482D01*
X107757767Y-72602998D01*
X107989781Y-72835417D01*
X108293077Y-72961357D01*
X108621482Y-72961643D01*
X108924998Y-72836233D01*
X109157417Y-72604219D01*
X109220000Y-72453502D01*
X109220000Y-74016697D01*
X109028583Y-74207781D01*
X108902643Y-74511077D01*
X108902357Y-74839482D01*
X109027767Y-75142998D01*
X109259781Y-75375417D01*
X109563077Y-75501357D01*
X109891482Y-75501643D01*
X110194998Y-75376233D01*
X110236000Y-75335302D01*
X110236000Y-78334697D01*
X110044583Y-78525781D01*
X109918643Y-78829077D01*
X109918357Y-79157482D01*
X110043767Y-79460998D01*
X110275781Y-79693417D01*
X110579077Y-79819357D01*
X110907482Y-79819643D01*
X111210998Y-79694233D01*
X111443417Y-79462219D01*
X111506000Y-79311502D01*
X111506000Y-86657580D01*
X110088987Y-88074592D01*
X109818518Y-88074357D01*
X109515002Y-88199767D01*
X109282583Y-88431781D01*
X109248000Y-88515065D01*
X109248000Y-85937302D01*
X109439417Y-85746219D01*
X109565357Y-85442923D01*
X109565643Y-85114518D01*
X109440233Y-84811002D01*
X109208219Y-84578583D01*
X108904923Y-84452643D01*
X108576518Y-84452357D01*
X108273002Y-84577767D01*
X108040583Y-84809781D01*
X107914643Y-85113077D01*
X107914357Y-85441482D01*
X108039767Y-85744998D01*
X108232000Y-85937566D01*
X108232000Y-90029673D01*
X108093388Y-90086946D01*
X107771577Y-90408197D01*
X107675428Y-90639749D01*
X107675428Y-79118500D01*
X107675428Y-77721500D01*
X107619055Y-77430952D01*
X107451308Y-77175587D01*
X107198068Y-77004648D01*
X106898500Y-76944572D01*
X106450365Y-76944572D01*
X106810689Y-76795689D01*
X107114622Y-76492286D01*
X107279313Y-76095668D01*
X107279687Y-75666216D01*
X107279687Y-73126216D01*
X107279687Y-70586216D01*
X107279687Y-68046216D01*
X107279687Y-65506216D01*
X107279687Y-62966216D01*
X107279687Y-60426216D01*
X107279687Y-57886216D01*
X107279687Y-55346216D01*
X107115689Y-54949311D01*
X106812286Y-54645378D01*
X106415668Y-54480687D01*
X105986216Y-54480313D01*
X105589311Y-54644311D01*
X105285378Y-54947714D01*
X105120687Y-55344332D01*
X105120313Y-55773784D01*
X105284311Y-56170689D01*
X105587714Y-56474622D01*
X105984332Y-56639313D01*
X106413784Y-56639687D01*
X106810689Y-56475689D01*
X107114622Y-56172286D01*
X107279313Y-55775668D01*
X107279687Y-55346216D01*
X107279687Y-57886216D01*
X107115689Y-57489311D01*
X106812286Y-57185378D01*
X106415668Y-57020687D01*
X105986216Y-57020313D01*
X105589311Y-57184311D01*
X105285378Y-57487714D01*
X105120687Y-57884332D01*
X105120313Y-58313784D01*
X105284311Y-58710689D01*
X105587714Y-59014622D01*
X105984332Y-59179313D01*
X106413784Y-59179687D01*
X106810689Y-59015689D01*
X107114622Y-58712286D01*
X107279313Y-58315668D01*
X107279687Y-57886216D01*
X107279687Y-60426216D01*
X107115689Y-60029311D01*
X106812286Y-59725378D01*
X106415668Y-59560687D01*
X105986216Y-59560313D01*
X105589311Y-59724311D01*
X105285378Y-60027714D01*
X105120687Y-60424332D01*
X105120313Y-60853784D01*
X105284311Y-61250689D01*
X105587714Y-61554622D01*
X105984332Y-61719313D01*
X106413784Y-61719687D01*
X106810689Y-61555689D01*
X107114622Y-61252286D01*
X107279313Y-60855668D01*
X107279687Y-60426216D01*
X107279687Y-62966216D01*
X107115689Y-62569311D01*
X106812286Y-62265378D01*
X106415668Y-62100687D01*
X105986216Y-62100313D01*
X105589311Y-62264311D01*
X105285378Y-62567714D01*
X105242074Y-62672000D01*
X104538420Y-62672000D01*
X100573224Y-58706804D01*
X100679918Y-58547127D01*
X100768857Y-58100000D01*
X100679918Y-57652873D01*
X100426641Y-57273816D01*
X100047584Y-57020539D01*
X99761535Y-56963640D01*
X100232262Y-56825525D01*
X100666191Y-56475986D01*
X100933327Y-55986996D01*
X100950010Y-55907060D01*
X100950010Y-55212940D01*
X100933327Y-55133004D01*
X100666191Y-54644014D01*
X100232262Y-54294475D01*
X99697600Y-54137600D01*
X99342000Y-54137600D01*
X99342000Y-55433000D01*
X100827852Y-55433000D01*
X100950010Y-55212940D01*
X100950010Y-55907060D01*
X100827852Y-55687000D01*
X99342000Y-55687000D01*
X99342000Y-55707000D01*
X99088000Y-55707000D01*
X99088000Y-55687000D01*
X99088000Y-55433000D01*
X99088000Y-54137600D01*
X98732400Y-54137600D01*
X98197738Y-54294475D01*
X97763809Y-54644014D01*
X97496673Y-55133004D01*
X97479990Y-55212940D01*
X97602148Y-55433000D01*
X99088000Y-55433000D01*
X99088000Y-55687000D01*
X97602148Y-55687000D01*
X97479990Y-55907060D01*
X97496673Y-55986996D01*
X97763809Y-56475986D01*
X98197738Y-56825525D01*
X98668464Y-56963640D01*
X98382416Y-57020539D01*
X98003359Y-57273816D01*
X97750082Y-57652873D01*
X97661143Y-58100000D01*
X97750082Y-58547127D01*
X98003359Y-58926184D01*
X98382416Y-59179461D01*
X98829543Y-59268400D01*
X99600457Y-59268400D01*
X99681799Y-59252219D01*
X99975850Y-59546270D01*
X99600457Y-59471600D01*
X98829543Y-59471600D01*
X98382416Y-59560539D01*
X98003359Y-59813816D01*
X97750082Y-60192873D01*
X97661143Y-60640000D01*
X97750082Y-61087127D01*
X98003359Y-61466184D01*
X98382416Y-61719461D01*
X98829543Y-61808400D01*
X99600457Y-61808400D01*
X100047584Y-61719461D01*
X100426641Y-61466184D01*
X100679918Y-61087127D01*
X100768857Y-60640000D01*
X100694186Y-60264606D01*
X103968790Y-63539210D01*
X104133597Y-63649331D01*
X104328000Y-63688000D01*
X105241880Y-63688000D01*
X105284311Y-63790689D01*
X105587714Y-64094622D01*
X105984332Y-64259313D01*
X106413784Y-64259687D01*
X106810689Y-64095689D01*
X107114622Y-63792286D01*
X107279313Y-63395668D01*
X107279687Y-62966216D01*
X107279687Y-65506216D01*
X107115689Y-65109311D01*
X106812286Y-64805378D01*
X106415668Y-64640687D01*
X105986216Y-64640313D01*
X105589311Y-64804311D01*
X105285378Y-65107714D01*
X105120687Y-65504332D01*
X105120313Y-65933784D01*
X105284311Y-66330689D01*
X105587714Y-66634622D01*
X105984332Y-66799313D01*
X106413784Y-66799687D01*
X106810689Y-66635689D01*
X107114622Y-66332286D01*
X107279313Y-65935668D01*
X107279687Y-65506216D01*
X107279687Y-68046216D01*
X107115689Y-67649311D01*
X106812286Y-67345378D01*
X106415668Y-67180687D01*
X105986216Y-67180313D01*
X105589311Y-67344311D01*
X105285378Y-67647714D01*
X105120687Y-68044332D01*
X105120313Y-68473784D01*
X105284311Y-68870689D01*
X105587714Y-69174622D01*
X105984332Y-69339313D01*
X106413784Y-69339687D01*
X106810689Y-69175689D01*
X107114622Y-68872286D01*
X107279313Y-68475668D01*
X107279687Y-68046216D01*
X107279687Y-70586216D01*
X107115689Y-70189311D01*
X106812286Y-69885378D01*
X106415668Y-69720687D01*
X105986216Y-69720313D01*
X105589311Y-69884311D01*
X105285378Y-70187714D01*
X105120687Y-70584332D01*
X105120313Y-71013784D01*
X105284311Y-71410689D01*
X105587714Y-71714622D01*
X105984332Y-71879313D01*
X106413784Y-71879687D01*
X106810689Y-71715689D01*
X107114622Y-71412286D01*
X107279313Y-71015668D01*
X107279687Y-70586216D01*
X107279687Y-73126216D01*
X107115689Y-72729311D01*
X106812286Y-72425378D01*
X106415668Y-72260687D01*
X105986216Y-72260313D01*
X105881854Y-72303434D01*
X103533000Y-69954580D01*
X103533000Y-66355000D01*
X103494331Y-66160597D01*
X103384210Y-65995790D01*
X100735602Y-63347182D01*
X100768857Y-63180000D01*
X100679918Y-62732873D01*
X100426641Y-62353816D01*
X100047584Y-62100539D01*
X99600457Y-62011600D01*
X98829543Y-62011600D01*
X98382416Y-62100539D01*
X98003359Y-62353816D01*
X97750082Y-62732873D01*
X97661143Y-63180000D01*
X97750082Y-63627127D01*
X98003359Y-64006184D01*
X98382416Y-64259461D01*
X98829543Y-64348400D01*
X99600457Y-64348400D01*
X100047584Y-64259461D01*
X100145569Y-64193989D01*
X102517000Y-66565420D01*
X102517000Y-68314400D01*
X102495210Y-68281790D01*
X100560007Y-66346587D01*
X100679918Y-66167127D01*
X100768857Y-65720000D01*
X100679918Y-65272873D01*
X100426641Y-64893816D01*
X100047584Y-64640539D01*
X99600457Y-64551600D01*
X98829543Y-64551600D01*
X98382416Y-64640539D01*
X98003359Y-64893816D01*
X97750082Y-65272873D01*
X97661143Y-65720000D01*
X97750082Y-66167127D01*
X98003359Y-66546184D01*
X98382416Y-66799461D01*
X98829543Y-66888400D01*
X99600457Y-66888400D01*
X99654274Y-66877694D01*
X99934656Y-67158076D01*
X99600457Y-67091600D01*
X98829543Y-67091600D01*
X98382416Y-67180539D01*
X98003359Y-67433816D01*
X97750082Y-67812873D01*
X97661143Y-68260000D01*
X97750082Y-68707127D01*
X98003359Y-69086184D01*
X98382416Y-69339461D01*
X98829543Y-69428400D01*
X99600457Y-69428400D01*
X100047584Y-69339461D01*
X100426641Y-69086184D01*
X100679918Y-68707127D01*
X100768857Y-68260000D01*
X100702380Y-67925800D01*
X101628000Y-68851420D01*
X101628000Y-90528579D01*
X100768857Y-91387722D01*
X100768857Y-89850000D01*
X100679918Y-89402873D01*
X100426641Y-89023816D01*
X100047584Y-88770539D01*
X99600457Y-88681600D01*
X98829543Y-88681600D01*
X98382416Y-88770539D01*
X98003359Y-89023816D01*
X97750082Y-89402873D01*
X97661143Y-89850000D01*
X97750082Y-90297127D01*
X98003359Y-90676184D01*
X98382416Y-90929461D01*
X98829543Y-91018400D01*
X99600457Y-91018400D01*
X100047584Y-90929461D01*
X100426641Y-90676184D01*
X100679918Y-90297127D01*
X100768857Y-89850000D01*
X100768857Y-91387722D01*
X100710735Y-91445844D01*
X100634404Y-91329644D01*
X100507784Y-91244174D01*
X100358000Y-91214136D01*
X98072000Y-91214136D01*
X97926726Y-91242322D01*
X97799044Y-91326196D01*
X97713574Y-91452816D01*
X97683536Y-91602600D01*
X97683536Y-93177400D01*
X97711722Y-93322674D01*
X97795596Y-93450356D01*
X97922216Y-93535826D01*
X98072000Y-93565864D01*
X100358000Y-93565864D01*
X100503274Y-93537678D01*
X100630956Y-93453804D01*
X100716426Y-93327184D01*
X100746464Y-93177400D01*
X100746464Y-92814522D01*
X100844210Y-92749210D01*
X102495210Y-91098210D01*
X102495211Y-91098210D01*
X102605331Y-90933403D01*
X102644000Y-90739000D01*
X102644000Y-70491599D01*
X102665790Y-70524210D01*
X105163296Y-73021716D01*
X105120687Y-73124332D01*
X105120313Y-73553784D01*
X105284311Y-73950689D01*
X105587714Y-74254622D01*
X105984332Y-74419313D01*
X106413784Y-74419687D01*
X106810689Y-74255689D01*
X107114622Y-73952286D01*
X107279313Y-73555668D01*
X107279687Y-73126216D01*
X107279687Y-75666216D01*
X107115689Y-75269311D01*
X106812286Y-74965378D01*
X106415668Y-74800687D01*
X105986216Y-74800313D01*
X105589311Y-74964311D01*
X105285378Y-75267714D01*
X105120687Y-75664332D01*
X105120313Y-76093784D01*
X105284311Y-76490689D01*
X105587714Y-76794622D01*
X105948831Y-76944572D01*
X105501500Y-76944572D01*
X105210952Y-77000945D01*
X104955587Y-77168692D01*
X104839615Y-77340500D01*
X104714000Y-77340500D01*
X104300893Y-77422672D01*
X103950678Y-77656678D01*
X103023678Y-78583678D01*
X102789672Y-78933893D01*
X102707500Y-79347000D01*
X102707500Y-91440000D01*
X102707500Y-95450033D01*
X102679710Y-95516959D01*
X102679291Y-95996935D01*
X102862582Y-96440535D01*
X103201680Y-96780225D01*
X103644959Y-96964290D01*
X104124935Y-96964709D01*
X104568535Y-96781418D01*
X104908225Y-96442320D01*
X105092290Y-95999041D01*
X105092709Y-95519065D01*
X104909418Y-95075465D01*
X104866500Y-95032472D01*
X104866500Y-91440000D01*
X104866500Y-79794144D01*
X104977073Y-79683570D01*
X105201932Y-79835352D01*
X105501500Y-79895428D01*
X106898500Y-79895428D01*
X107189048Y-79839055D01*
X107444413Y-79671308D01*
X107615352Y-79418068D01*
X107675428Y-79118500D01*
X107675428Y-90639749D01*
X107597199Y-90828146D01*
X107596802Y-91282859D01*
X107770446Y-91703112D01*
X108091697Y-92024923D01*
X108511646Y-92199301D01*
X108966359Y-92199698D01*
X109386612Y-92026054D01*
X109708423Y-91704803D01*
X109882801Y-91284854D01*
X109883198Y-90830141D01*
X109709554Y-90409888D01*
X109388303Y-90088077D01*
X109248000Y-90029818D01*
X109248000Y-89285275D01*
X109281767Y-89366998D01*
X109513781Y-89599417D01*
X109817077Y-89725357D01*
X110145482Y-89725643D01*
X110448998Y-89600233D01*
X110681417Y-89368219D01*
X110807357Y-89064923D01*
X110807593Y-88792826D01*
X112373210Y-87227210D01*
X112483331Y-87062403D01*
X112522000Y-86868000D01*
X112522000Y-77113302D01*
X112713417Y-76922219D01*
X112839357Y-76618923D01*
X112839643Y-76290518D01*
X112839643Y-101782583D01*
X112826738Y-101751351D01*
X112677198Y-101601549D01*
X112677198Y-90957141D01*
X112503554Y-90536888D01*
X112182303Y-90215077D01*
X111762354Y-90040699D01*
X111307641Y-90040302D01*
X110887388Y-90213946D01*
X110565577Y-90535197D01*
X110391199Y-90955146D01*
X110390802Y-91409859D01*
X110564446Y-91830112D01*
X110885697Y-92151923D01*
X111305646Y-92326301D01*
X111760359Y-92326698D01*
X112180612Y-92153054D01*
X112502423Y-91831803D01*
X112676801Y-91411854D01*
X112677198Y-90957141D01*
X112677198Y-101601549D01*
X112398404Y-101322269D01*
X111838472Y-101089765D01*
X111232188Y-101089236D01*
X110671851Y-101320762D01*
X110242769Y-101749096D01*
X110163329Y-101940407D01*
X110032738Y-101624351D01*
X109604404Y-101195269D01*
X109044472Y-100962765D01*
X108438188Y-100962236D01*
X107877851Y-101193762D01*
X107497814Y-101573136D01*
X107492738Y-101560851D01*
X107343198Y-101411049D01*
X107343198Y-90766641D01*
X107169554Y-90346388D01*
X106848303Y-90024577D01*
X106428354Y-89850199D01*
X105973641Y-89849802D01*
X105553388Y-90023446D01*
X105231577Y-90344697D01*
X105057199Y-90764646D01*
X105056802Y-91219359D01*
X105230446Y-91639612D01*
X105551697Y-91961423D01*
X105971646Y-92135801D01*
X106426359Y-92136198D01*
X106846612Y-91962554D01*
X107168423Y-91641303D01*
X107342801Y-91221354D01*
X107343198Y-90766641D01*
X107343198Y-101411049D01*
X107064404Y-101131769D01*
X106504472Y-100899265D01*
X105898188Y-100898736D01*
X105337851Y-101130262D01*
X104908769Y-101558596D01*
X104676265Y-102118528D01*
X104675736Y-102724812D01*
X104907262Y-103285149D01*
X105335596Y-103714231D01*
X105895528Y-103946735D01*
X106501812Y-103947264D01*
X107062149Y-103715738D01*
X107442185Y-103336363D01*
X107447262Y-103348649D01*
X107875596Y-103777731D01*
X108435528Y-104010235D01*
X109041812Y-104010764D01*
X109602149Y-103779238D01*
X110031231Y-103350904D01*
X110110670Y-103159592D01*
X110241262Y-103475649D01*
X110669596Y-103904731D01*
X111229528Y-104137235D01*
X111835812Y-104137764D01*
X112396149Y-103906238D01*
X112825231Y-103477904D01*
X113057735Y-102917972D01*
X113058264Y-102311688D01*
X113058264Y-107247570D01*
X112841571Y-107769425D01*
X112839433Y-110219825D01*
X113775185Y-112484518D01*
X115506368Y-114218725D01*
X116349923Y-114569000D01*
X99261622Y-114569000D01*
X99261622Y-97970922D01*
X99232083Y-97460572D01*
X99093611Y-97126271D01*
X98863016Y-97070590D01*
X98683410Y-97250195D01*
X98683410Y-96890984D01*
X98627729Y-96660389D01*
X98144922Y-96492378D01*
X97634572Y-96521917D01*
X97300271Y-96660389D01*
X97244590Y-96890984D01*
X97964000Y-97610395D01*
X98683410Y-96890984D01*
X98683410Y-97250195D01*
X98143605Y-97790000D01*
X98863016Y-98509410D01*
X99093611Y-98453729D01*
X99261622Y-97970922D01*
X99261622Y-114569000D01*
X98683410Y-114569000D01*
X98683410Y-98689016D01*
X97964000Y-97969605D01*
X97784395Y-98149210D01*
X97784395Y-97790000D01*
X97064984Y-97070590D01*
X96834389Y-97126271D01*
X96666378Y-97609078D01*
X96695917Y-98119428D01*
X96834389Y-98453729D01*
X97064984Y-98509410D01*
X97784395Y-97790000D01*
X97784395Y-98149210D01*
X97244590Y-98689016D01*
X97300271Y-98919611D01*
X97783078Y-99087622D01*
X98293428Y-99058083D01*
X98627729Y-98919611D01*
X98683410Y-98689016D01*
X98683410Y-114569000D01*
X94390928Y-114569000D01*
X94390928Y-98440000D01*
X94390928Y-97140000D01*
X94334555Y-96849452D01*
X94166808Y-96594087D01*
X93913568Y-96423148D01*
X93614000Y-96363072D01*
X92314000Y-96363072D01*
X92023452Y-96419445D01*
X91768087Y-96587192D01*
X91597148Y-96840432D01*
X91537072Y-97140000D01*
X91537072Y-98440000D01*
X91593445Y-98730548D01*
X91761192Y-98985913D01*
X92014432Y-99156852D01*
X92314000Y-99216928D01*
X93614000Y-99216928D01*
X93904548Y-99160555D01*
X94159913Y-98992808D01*
X94330852Y-98739568D01*
X94390928Y-98440000D01*
X94390928Y-114569000D01*
X79111794Y-114569000D01*
X78935887Y-105170532D01*
X84179210Y-99927210D01*
X84289331Y-99762404D01*
X84289331Y-99762403D01*
X84328000Y-99568000D01*
X84328000Y-84512002D01*
X88751210Y-80088793D01*
X88751210Y-80088792D01*
X88861331Y-79923986D01*
X88861331Y-79923985D01*
X88867746Y-79891732D01*
X88899999Y-79729582D01*
X88900000Y-79729582D01*
X88900000Y-74886420D01*
X89938420Y-73848000D01*
X90170755Y-73848000D01*
X90383359Y-74166184D01*
X90760793Y-74418377D01*
X90609149Y-74448541D01*
X90106488Y-74784409D01*
X89770620Y-75287070D01*
X89707137Y-75606218D01*
X89561678Y-75751678D01*
X89327672Y-76101893D01*
X89245500Y-76515000D01*
X89245500Y-77873613D01*
X89118710Y-78178959D01*
X89118291Y-78658935D01*
X89245500Y-78966805D01*
X89245500Y-81693856D01*
X88390678Y-82548678D01*
X88156672Y-82898893D01*
X88074500Y-83312000D01*
X88074500Y-88646000D01*
X88074500Y-90932000D01*
X88156672Y-91345107D01*
X88390678Y-91695322D01*
X89848678Y-93153322D01*
X89913343Y-93196529D01*
X90106488Y-93485591D01*
X90609149Y-93821459D01*
X91202079Y-93939400D01*
X91987921Y-93939400D01*
X92580851Y-93821459D01*
X93083512Y-93485591D01*
X93419380Y-92982930D01*
X93537321Y-92390000D01*
X93419380Y-91797070D01*
X93083512Y-91294409D01*
X92580851Y-90958541D01*
X92429206Y-90928377D01*
X92806641Y-90676184D01*
X93059918Y-90297127D01*
X93148857Y-89850000D01*
X93059918Y-89402873D01*
X92806641Y-89023816D01*
X92427584Y-88770539D01*
X91980457Y-88681600D01*
X91209543Y-88681600D01*
X90762416Y-88770539D01*
X90383359Y-89023816D01*
X90233500Y-89248096D01*
X90233500Y-88646000D01*
X90233500Y-87911903D01*
X90383359Y-88136184D01*
X90762416Y-88389461D01*
X91209543Y-88478400D01*
X91980457Y-88478400D01*
X92427584Y-88389461D01*
X92806641Y-88136184D01*
X93019244Y-87818000D01*
X93373000Y-87818000D01*
X93567403Y-87779331D01*
X93732210Y-87669210D01*
X96145210Y-85256210D01*
X96255331Y-85091404D01*
X96255331Y-85091403D01*
X96261746Y-85059150D01*
X96293999Y-84897000D01*
X96294000Y-84897000D01*
X96294000Y-77868420D01*
X97683536Y-76478884D01*
X97683536Y-76667400D01*
X97711722Y-76812674D01*
X97795596Y-76940356D01*
X97922216Y-77025826D01*
X98072000Y-77055864D01*
X100358000Y-77055864D01*
X100485000Y-77031223D01*
X100485000Y-83708060D01*
X100232262Y-83504475D01*
X99697600Y-83347600D01*
X99342000Y-83347600D01*
X99342000Y-84643000D01*
X99362000Y-84643000D01*
X99362000Y-84897000D01*
X99342000Y-84897000D01*
X99342000Y-84917000D01*
X99261622Y-84917000D01*
X99261622Y-80444922D01*
X99232083Y-79934572D01*
X99093611Y-79600271D01*
X98863016Y-79544590D01*
X98683410Y-79724195D01*
X98683410Y-79364984D01*
X98627729Y-79134389D01*
X98144922Y-78966378D01*
X97634572Y-78995917D01*
X97300271Y-79134389D01*
X97244590Y-79364984D01*
X97964000Y-80084395D01*
X98683410Y-79364984D01*
X98683410Y-79724195D01*
X98143605Y-80264000D01*
X98863016Y-80983410D01*
X99093611Y-80927729D01*
X99261622Y-80444922D01*
X99261622Y-84917000D01*
X99088000Y-84917000D01*
X99088000Y-84897000D01*
X99088000Y-84643000D01*
X99088000Y-83347600D01*
X98732400Y-83347600D01*
X98683410Y-83361974D01*
X98683410Y-81163016D01*
X97964000Y-80443605D01*
X97784395Y-80623210D01*
X97784395Y-80264000D01*
X97064984Y-79544590D01*
X96834389Y-79600271D01*
X96666378Y-80083078D01*
X96695917Y-80593428D01*
X96834389Y-80927729D01*
X97064984Y-80983410D01*
X97784395Y-80264000D01*
X97784395Y-80623210D01*
X97244590Y-81163016D01*
X97300271Y-81393611D01*
X97783078Y-81561622D01*
X98293428Y-81532083D01*
X98627729Y-81393611D01*
X98683410Y-81163016D01*
X98683410Y-83361974D01*
X98197738Y-83504475D01*
X97763809Y-83854014D01*
X97496673Y-84343004D01*
X97479990Y-84422940D01*
X97602148Y-84643000D01*
X99088000Y-84643000D01*
X99088000Y-84897000D01*
X97602148Y-84897000D01*
X97479990Y-85117060D01*
X97496673Y-85196996D01*
X97763809Y-85685986D01*
X98197738Y-86035525D01*
X98668464Y-86173640D01*
X98382416Y-86230539D01*
X98003359Y-86483816D01*
X97750082Y-86862873D01*
X97661143Y-87310000D01*
X97750082Y-87757127D01*
X98003359Y-88136184D01*
X98382416Y-88389461D01*
X98829543Y-88478400D01*
X99600457Y-88478400D01*
X100047584Y-88389461D01*
X100426641Y-88136184D01*
X100679918Y-87757127D01*
X100768857Y-87310000D01*
X100679918Y-86862873D01*
X100560007Y-86683412D01*
X101352210Y-85891210D01*
X101462331Y-85726403D01*
X101501000Y-85532000D01*
X101501000Y-71689000D01*
X101462331Y-71494597D01*
X101352210Y-71329790D01*
X100755557Y-70733137D01*
X100679918Y-70352873D01*
X100426641Y-69973816D01*
X100047584Y-69720539D01*
X99600457Y-69631600D01*
X98829543Y-69631600D01*
X98382416Y-69720539D01*
X98003359Y-69973816D01*
X97750082Y-70352873D01*
X97661143Y-70800000D01*
X97750082Y-71247127D01*
X98003359Y-71626184D01*
X98382416Y-71879461D01*
X98829543Y-71968400D01*
X99600457Y-71968400D01*
X100047584Y-71879461D01*
X100297831Y-71712251D01*
X100485000Y-71899420D01*
X100485000Y-72601156D01*
X100426641Y-72513816D01*
X100047584Y-72260539D01*
X99600457Y-72171600D01*
X98829543Y-72171600D01*
X98382416Y-72260539D01*
X98003359Y-72513816D01*
X97790755Y-72832000D01*
X96929000Y-72832000D01*
X96734597Y-72870669D01*
X96569790Y-72980790D01*
X94537790Y-75012790D01*
X94427669Y-75177597D01*
X94389000Y-75372000D01*
X94389000Y-79604063D01*
X94334555Y-79323452D01*
X94166808Y-79068087D01*
X93913568Y-78897148D01*
X93614000Y-78837072D01*
X92314000Y-78837072D01*
X92023452Y-78893445D01*
X91768087Y-79061192D01*
X91597148Y-79314432D01*
X91537072Y-79614000D01*
X91537072Y-80914000D01*
X91593445Y-81204548D01*
X91761192Y-81459913D01*
X92014432Y-81630852D01*
X92314000Y-81690928D01*
X93614000Y-81690928D01*
X93904548Y-81634555D01*
X94159913Y-81466808D01*
X94330852Y-81213568D01*
X94389000Y-80923613D01*
X94389000Y-81257580D01*
X92034274Y-83612305D01*
X91980457Y-83601600D01*
X91209543Y-83601600D01*
X90762416Y-83690539D01*
X90383359Y-83943816D01*
X90233500Y-84168096D01*
X90233500Y-83759144D01*
X91088322Y-82904322D01*
X91322328Y-82554107D01*
X91404500Y-82141000D01*
X91404500Y-78966386D01*
X91531290Y-78661041D01*
X91531709Y-78181065D01*
X91404500Y-77873194D01*
X91404500Y-77429400D01*
X91987921Y-77429400D01*
X92580851Y-77311459D01*
X93083512Y-76975591D01*
X93419380Y-76472930D01*
X93537321Y-75880000D01*
X93419380Y-75287070D01*
X93083512Y-74784409D01*
X92580851Y-74448541D01*
X92429206Y-74418377D01*
X92806641Y-74166184D01*
X93059918Y-73787127D01*
X93148857Y-73340000D01*
X93059918Y-72892873D01*
X92806641Y-72513816D01*
X92427584Y-72260539D01*
X91980457Y-72171600D01*
X91209543Y-72171600D01*
X90762416Y-72260539D01*
X90383359Y-72513816D01*
X90170755Y-72832000D01*
X89728000Y-72832000D01*
X89565849Y-72864253D01*
X89533596Y-72870669D01*
X89368790Y-72980790D01*
X88166000Y-74183580D01*
X88166000Y-72407420D01*
X89265420Y-71308000D01*
X90170755Y-71308000D01*
X90383359Y-71626184D01*
X90762416Y-71879461D01*
X91209543Y-71968400D01*
X91980457Y-71968400D01*
X92427584Y-71879461D01*
X92806641Y-71626184D01*
X93059918Y-71247127D01*
X93148857Y-70800000D01*
X93059918Y-70352873D01*
X92806641Y-69973816D01*
X92427584Y-69720539D01*
X91980457Y-69631600D01*
X91209543Y-69631600D01*
X90762416Y-69720539D01*
X90383359Y-69973816D01*
X90170755Y-70292000D01*
X89055000Y-70292000D01*
X88892849Y-70324253D01*
X88860596Y-70330669D01*
X88695790Y-70440790D01*
X87298790Y-71837790D01*
X87188669Y-72002597D01*
X87150000Y-72197000D01*
X87150000Y-79606580D01*
X85696964Y-81059616D01*
X85696964Y-78483500D01*
X85696964Y-77086500D01*
X85689687Y-77048993D01*
X85689687Y-75031216D01*
X85525689Y-74634311D01*
X85222286Y-74330378D01*
X84825668Y-74165687D01*
X84396216Y-74165313D01*
X83999311Y-74329311D01*
X83695378Y-74632714D01*
X83530687Y-75029332D01*
X83530313Y-75458784D01*
X83694311Y-75855689D01*
X83997714Y-76159622D01*
X84394332Y-76324313D01*
X84823784Y-76324687D01*
X85220689Y-76160689D01*
X85524622Y-75857286D01*
X85689313Y-75460668D01*
X85689687Y-75031216D01*
X85689687Y-77048993D01*
X85668778Y-76941226D01*
X85584904Y-76813544D01*
X85458284Y-76728074D01*
X85308500Y-76698036D01*
X83911500Y-76698036D01*
X83766226Y-76726222D01*
X83638544Y-76810096D01*
X83553074Y-76936716D01*
X83523036Y-77086500D01*
X83523036Y-78483500D01*
X83551222Y-78628774D01*
X83635096Y-78756456D01*
X83761716Y-78841926D01*
X83911500Y-78871964D01*
X85308500Y-78871964D01*
X85453774Y-78843778D01*
X85581456Y-78759904D01*
X85666926Y-78633284D01*
X85696964Y-78483500D01*
X85696964Y-81059616D01*
X82980790Y-83775790D01*
X82870669Y-83940597D01*
X82832000Y-84135000D01*
X82832000Y-90909580D01*
X78745457Y-94996122D01*
X78538522Y-83939897D01*
X79635210Y-82843210D01*
X79635211Y-82843210D01*
X79745331Y-82678403D01*
X79784000Y-82484000D01*
X79784000Y-75074420D01*
X82788420Y-72070000D01*
X83718131Y-72070000D01*
X83695378Y-72092714D01*
X83530687Y-72489332D01*
X83530313Y-72918784D01*
X83694311Y-73315689D01*
X83997714Y-73619622D01*
X84394332Y-73784313D01*
X84823784Y-73784687D01*
X85220689Y-73620689D01*
X85524622Y-73317286D01*
X85689313Y-72920668D01*
X85689687Y-72491216D01*
X85525689Y-72094311D01*
X85402633Y-71971040D01*
X85477210Y-71921210D01*
X88630420Y-68768000D01*
X90170755Y-68768000D01*
X90383359Y-69086184D01*
X90762416Y-69339461D01*
X91209543Y-69428400D01*
X91980457Y-69428400D01*
X92427584Y-69339461D01*
X92806641Y-69086184D01*
X93059918Y-68707127D01*
X93148857Y-68260000D01*
X93059918Y-67812873D01*
X92806641Y-67433816D01*
X92427584Y-67180539D01*
X91980457Y-67091600D01*
X91209543Y-67091600D01*
X90762416Y-67180539D01*
X90383359Y-67433816D01*
X90170755Y-67752000D01*
X88420000Y-67752000D01*
X88225596Y-67790669D01*
X88060790Y-67900790D01*
X85689407Y-70272172D01*
X85689687Y-69951216D01*
X85525689Y-69554311D01*
X85222286Y-69250378D01*
X84825668Y-69085687D01*
X84396216Y-69085313D01*
X83999311Y-69249311D01*
X83695378Y-69552714D01*
X83530687Y-69949332D01*
X83530313Y-70378784D01*
X83694311Y-70775689D01*
X83972136Y-71054000D01*
X82578000Y-71054000D01*
X82383596Y-71092669D01*
X82218790Y-71202790D01*
X78916790Y-74504790D01*
X78806669Y-74669597D01*
X78768000Y-74864000D01*
X78768000Y-82273579D01*
X78512123Y-82529455D01*
X78295855Y-70974564D01*
X82280420Y-66990000D01*
X83718131Y-66990000D01*
X83695378Y-67012714D01*
X83530687Y-67409332D01*
X83530313Y-67838784D01*
X83694311Y-68235689D01*
X83997714Y-68539622D01*
X84394332Y-68704313D01*
X84823784Y-68704687D01*
X85220689Y-68540689D01*
X85524622Y-68237286D01*
X85689313Y-67840668D01*
X85689687Y-67411216D01*
X85525689Y-67014311D01*
X85501420Y-66990000D01*
X86388000Y-66990000D01*
X86582403Y-66951331D01*
X86747210Y-66841210D01*
X87360420Y-66228000D01*
X90170755Y-66228000D01*
X90383359Y-66546184D01*
X90762416Y-66799461D01*
X91209543Y-66888400D01*
X91980457Y-66888400D01*
X92427584Y-66799461D01*
X92806641Y-66546184D01*
X93059918Y-66167127D01*
X93148857Y-65720000D01*
X93059918Y-65272873D01*
X92806641Y-64893816D01*
X92427584Y-64640539D01*
X91980457Y-64551600D01*
X91209543Y-64551600D01*
X90762416Y-64640539D01*
X90383359Y-64893816D01*
X90170755Y-65212000D01*
X87150000Y-65212000D01*
X86955597Y-65250669D01*
X86790790Y-65360790D01*
X86177580Y-65974000D01*
X85247424Y-65974000D01*
X85524622Y-65697286D01*
X85689313Y-65300668D01*
X85689687Y-64871216D01*
X85525689Y-64474311D01*
X85222286Y-64170378D01*
X84825668Y-64005687D01*
X84396216Y-64005313D01*
X83999311Y-64169311D01*
X83695378Y-64472714D01*
X83530687Y-64869332D01*
X83530313Y-65298784D01*
X83694311Y-65695689D01*
X83972136Y-65974000D01*
X82070000Y-65974000D01*
X81875597Y-66012669D01*
X81710790Y-66122790D01*
X78269457Y-69564122D01*
X78121444Y-61656000D01*
X83972575Y-61656000D01*
X83695378Y-61932714D01*
X83530687Y-62329332D01*
X83530313Y-62758784D01*
X83694311Y-63155689D01*
X83997714Y-63459622D01*
X84394332Y-63624313D01*
X84823784Y-63624687D01*
X85220689Y-63460689D01*
X85524622Y-63157286D01*
X85689313Y-62760668D01*
X85689687Y-62331216D01*
X85525689Y-61934311D01*
X85247863Y-61656000D01*
X88209580Y-61656000D01*
X90092790Y-63539210D01*
X90115629Y-63554471D01*
X90130082Y-63627127D01*
X90383359Y-64006184D01*
X90762416Y-64259461D01*
X91209543Y-64348400D01*
X91980457Y-64348400D01*
X92427584Y-64259461D01*
X92806641Y-64006184D01*
X93059918Y-63627127D01*
X93148857Y-63180000D01*
X93059918Y-62732873D01*
X92806641Y-62353816D01*
X92427584Y-62100539D01*
X91980457Y-62011600D01*
X91209543Y-62011600D01*
X90762416Y-62100539D01*
X90383359Y-62353816D01*
X90367688Y-62377268D01*
X88779210Y-60788790D01*
X88614403Y-60678669D01*
X88420000Y-60640000D01*
X85501868Y-60640000D01*
X85524622Y-60617286D01*
X85689313Y-60220668D01*
X85689687Y-59791216D01*
X85689687Y-57251216D01*
X85689687Y-54711216D01*
X85525689Y-54314311D01*
X85222286Y-54010378D01*
X84825668Y-53845687D01*
X84396216Y-53845313D01*
X83999311Y-54009311D01*
X83695378Y-54312714D01*
X83530687Y-54709332D01*
X83530313Y-55138784D01*
X83694311Y-55535689D01*
X83997714Y-55839622D01*
X84394332Y-56004313D01*
X84823784Y-56004687D01*
X85220689Y-55840689D01*
X85524622Y-55537286D01*
X85689313Y-55140668D01*
X85689687Y-54711216D01*
X85689687Y-57251216D01*
X85525689Y-56854311D01*
X85222286Y-56550378D01*
X84825668Y-56385687D01*
X84396216Y-56385313D01*
X83999311Y-56549311D01*
X83695378Y-56852714D01*
X83530687Y-57249332D01*
X83530313Y-57678784D01*
X83694311Y-58075689D01*
X83997714Y-58379622D01*
X84394332Y-58544313D01*
X84823784Y-58544687D01*
X85220689Y-58380689D01*
X85524622Y-58077286D01*
X85689313Y-57680668D01*
X85689687Y-57251216D01*
X85689687Y-59791216D01*
X85525689Y-59394311D01*
X85222286Y-59090378D01*
X84825668Y-58925687D01*
X84396216Y-58925313D01*
X83999311Y-59089311D01*
X83695378Y-59392714D01*
X83530687Y-59789332D01*
X83530313Y-60218784D01*
X83694311Y-60615689D01*
X83718579Y-60640000D01*
X78102428Y-60640000D01*
X77909890Y-50353000D01*
X84272580Y-50353000D01*
X88420000Y-54500420D01*
X88420000Y-59624000D01*
X88458669Y-59818403D01*
X88568790Y-59983210D01*
X89584790Y-60999210D01*
X89749597Y-61109331D01*
X89944000Y-61148000D01*
X90170755Y-61148000D01*
X90383359Y-61466184D01*
X90762416Y-61719461D01*
X91209543Y-61808400D01*
X91980457Y-61808400D01*
X92427584Y-61719461D01*
X92806641Y-61466184D01*
X93059918Y-61087127D01*
X93148857Y-60640000D01*
X93148857Y-58100000D01*
X93148857Y-55560000D01*
X93059918Y-55112873D01*
X92806641Y-54733816D01*
X92427584Y-54480539D01*
X91980457Y-54391600D01*
X91209543Y-54391600D01*
X90762416Y-54480539D01*
X90383359Y-54733816D01*
X90130082Y-55112873D01*
X90041143Y-55560000D01*
X90130082Y-56007127D01*
X90383359Y-56386184D01*
X90762416Y-56639461D01*
X91209543Y-56728400D01*
X91980457Y-56728400D01*
X92427584Y-56639461D01*
X92806641Y-56386184D01*
X93059918Y-56007127D01*
X93148857Y-55560000D01*
X93148857Y-58100000D01*
X93059918Y-57652873D01*
X92806641Y-57273816D01*
X92427584Y-57020539D01*
X91980457Y-56931600D01*
X91209543Y-56931600D01*
X90762416Y-57020539D01*
X90383359Y-57273816D01*
X90130082Y-57652873D01*
X90041143Y-58100000D01*
X90130082Y-58547127D01*
X90383359Y-58926184D01*
X90762416Y-59179461D01*
X91209543Y-59268400D01*
X91980457Y-59268400D01*
X92427584Y-59179461D01*
X92806641Y-58926184D01*
X93059918Y-58547127D01*
X93148857Y-58100000D01*
X93148857Y-60640000D01*
X93059918Y-60192873D01*
X92806641Y-59813816D01*
X92427584Y-59560539D01*
X91980457Y-59471600D01*
X91209543Y-59471600D01*
X90762416Y-59560539D01*
X90383359Y-59813816D01*
X90170755Y-60132000D01*
X90154420Y-60132000D01*
X89436000Y-59413580D01*
X89436000Y-54290000D01*
X89403746Y-54127849D01*
X89397331Y-54095597D01*
X89397331Y-54095596D01*
X89287210Y-53930790D01*
X84842210Y-49485790D01*
X84677403Y-49375669D01*
X84483000Y-49337000D01*
X77890874Y-49337000D01*
X77695960Y-38923000D01*
X87340388Y-38923000D01*
X87340357Y-38959482D01*
X87465767Y-39262998D01*
X87697781Y-39495417D01*
X88001077Y-39621357D01*
X88329482Y-39621643D01*
X88632998Y-39496233D01*
X88865417Y-39264219D01*
X88991357Y-38960923D01*
X88991643Y-38632518D01*
X88866233Y-38329002D01*
X88634219Y-38096583D01*
X88330923Y-37970643D01*
X88016369Y-37970369D01*
X87979403Y-37945669D01*
X87785000Y-37907000D01*
X77676944Y-37907000D01*
X77349853Y-20431000D01*
X116348473Y-20431000D01*
X115515482Y-20775185D01*
X113781275Y-22506368D01*
X112841571Y-24769425D01*
X112839433Y-27219825D01*
X113775185Y-29484518D01*
X115506368Y-31218725D01*
X117769425Y-32158429D01*
X120219825Y-32160567D01*
X122484518Y-31224815D01*
X124218725Y-29493632D01*
X124569000Y-28650076D01*
X124569000Y-106348473D01*
X124569000Y-106348473D01*
G37*
X124569000Y-106348473D02*
X124224815Y-105515482D01*
X122684600Y-103972576D01*
X122684600Y-90077910D01*
X122684600Y-89825291D01*
X122684600Y-89373750D01*
X122684600Y-88802250D01*
X122684600Y-88350709D01*
X122684600Y-88098090D01*
X122587927Y-87864701D01*
X122409298Y-87686073D01*
X122175909Y-87589400D01*
X121848992Y-87589400D01*
X122090448Y-87428065D01*
X122360243Y-87024288D01*
X122454983Y-86548000D01*
X122454983Y-84008000D01*
X122430600Y-83885418D01*
X122430600Y-79917910D01*
X122430600Y-79665291D01*
X122430600Y-79213750D01*
X122430600Y-78642250D01*
X122430600Y-78190709D01*
X122430600Y-77938090D01*
X122333927Y-77704701D01*
X122155298Y-77526073D01*
X121957880Y-77444299D01*
X122214688Y-77162947D01*
X122386958Y-76747026D01*
X122386958Y-76028974D01*
X122214688Y-75613053D01*
X121820490Y-75181179D01*
X121685687Y-75118000D01*
X121820490Y-75054821D01*
X122214688Y-74622947D01*
X122386958Y-74207026D01*
X122386958Y-73488974D01*
X122214688Y-73073053D01*
X121820490Y-72641179D01*
X121291027Y-72393032D01*
X121059000Y-72513531D01*
X121059000Y-73721000D01*
X122265817Y-73721000D01*
X122386958Y-73488974D01*
X122386958Y-74207026D01*
X122265817Y-73975000D01*
X121059000Y-73975000D01*
X121059000Y-75053531D01*
X121059000Y-75182469D01*
X121059000Y-76261000D01*
X122265817Y-76261000D01*
X122386958Y-76028974D01*
X122386958Y-76747026D01*
X122265817Y-76515000D01*
X121059000Y-76515000D01*
X121059000Y-77588150D01*
X121059000Y-77722469D01*
X121059000Y-78801000D01*
X122271850Y-78801000D01*
X122430600Y-78642250D01*
X122430600Y-79213750D01*
X122271850Y-79055000D01*
X121059000Y-79055000D01*
X121059000Y-80267850D01*
X121217750Y-80426600D01*
X121921909Y-80426600D01*
X122155298Y-80329927D01*
X122333927Y-80151299D01*
X122430600Y-79917910D01*
X122430600Y-83885418D01*
X122360243Y-83531712D01*
X122090448Y-83127935D01*
X121686671Y-82858140D01*
X121210383Y-82763400D01*
X121161617Y-82763400D01*
X120805000Y-82834335D01*
X120805000Y-80267850D01*
X120805000Y-79055000D01*
X120785000Y-79055000D01*
X120785000Y-78801000D01*
X120805000Y-78801000D01*
X120805000Y-77722469D01*
X120805000Y-77588150D01*
X120805000Y-76515000D01*
X120785000Y-76515000D01*
X120785000Y-76261000D01*
X120805000Y-76261000D01*
X120805000Y-75182469D01*
X120805000Y-75053531D01*
X120805000Y-73975000D01*
X120785000Y-73975000D01*
X120785000Y-73721000D01*
X120805000Y-73721000D01*
X120805000Y-72513531D01*
X120572973Y-72393032D01*
X120297000Y-72522374D01*
X120297000Y-66608310D01*
X120297000Y-66355691D01*
X120297000Y-66005750D01*
X120138250Y-65847000D01*
X119027000Y-65847000D01*
X119027000Y-66958250D01*
X119185750Y-67117000D01*
X119788309Y-67117000D01*
X120021698Y-67020327D01*
X120200327Y-66841699D01*
X120297000Y-66608310D01*
X120297000Y-72522374D01*
X120043510Y-72641179D01*
X119649312Y-73073053D01*
X119541159Y-73334171D01*
X119296448Y-72967935D01*
X118900000Y-72703037D01*
X118900000Y-68354000D01*
X118861331Y-68159597D01*
X118751210Y-67994790D01*
X118427407Y-67670987D01*
X118427643Y-67400518D01*
X118310495Y-67117000D01*
X118614250Y-67117000D01*
X118773000Y-66958250D01*
X118773000Y-65847000D01*
X117661750Y-65847000D01*
X117503000Y-66005750D01*
X117503000Y-66355691D01*
X117503000Y-66608310D01*
X117556910Y-66738460D01*
X117438518Y-66738357D01*
X117135002Y-66863767D01*
X116903500Y-67094865D01*
X116903500Y-64259500D01*
X117824234Y-64259500D01*
X117923917Y-64359357D01*
X117778302Y-64419673D01*
X117599673Y-64598301D01*
X117503000Y-64831690D01*
X117503000Y-65084309D01*
X117503000Y-65434250D01*
X117661750Y-65593000D01*
X118773000Y-65593000D01*
X118773000Y-65573000D01*
X119027000Y-65573000D01*
X119027000Y-65593000D01*
X120138250Y-65593000D01*
X120297000Y-65434250D01*
X120297000Y-65084309D01*
X120297000Y-64831690D01*
X120200327Y-64598301D01*
X120021698Y-64419673D01*
X119875831Y-64359253D01*
X120191231Y-64044404D01*
X120423735Y-63484472D01*
X120424264Y-62878188D01*
X120297000Y-62570184D01*
X120297000Y-42478309D01*
X120297000Y-41875750D01*
X120138250Y-41717000D01*
X119027000Y-41717000D01*
X119027000Y-42828250D01*
X119185750Y-42987000D01*
X119535691Y-42987000D01*
X119788310Y-42987000D01*
X120021699Y-42890327D01*
X120200327Y-42711698D01*
X120297000Y-42478309D01*
X120297000Y-62570184D01*
X120192738Y-62317851D01*
X119764404Y-61888769D01*
X119318734Y-61703710D01*
X119546612Y-61609554D01*
X119868423Y-61288303D01*
X120042801Y-60868354D01*
X120043198Y-60413641D01*
X120043198Y-57873641D01*
X119869554Y-57453388D01*
X119548303Y-57131577D01*
X119128354Y-56957199D01*
X118773000Y-56956888D01*
X118773000Y-42828250D01*
X118773000Y-41717000D01*
X117661750Y-41717000D01*
X117503000Y-41875750D01*
X117503000Y-42478309D01*
X117599673Y-42711698D01*
X117778301Y-42890327D01*
X118011690Y-42987000D01*
X118264309Y-42987000D01*
X118614250Y-42987000D01*
X118773000Y-42828250D01*
X118773000Y-56956888D01*
X118673641Y-56956802D01*
X118253388Y-57130446D01*
X117931577Y-57451697D01*
X117757199Y-57871646D01*
X117756802Y-58326359D01*
X117930446Y-58746612D01*
X118251697Y-59068423D01*
X118671646Y-59242801D01*
X119126359Y-59243198D01*
X119546612Y-59069554D01*
X119868423Y-58748303D01*
X120042801Y-58328354D01*
X120043198Y-57873641D01*
X120043198Y-60413641D01*
X119869554Y-59993388D01*
X119548303Y-59671577D01*
X119128354Y-59497199D01*
X118673641Y-59496802D01*
X118253388Y-59670446D01*
X117931577Y-59991697D01*
X117757199Y-60411646D01*
X117756802Y-60866359D01*
X117930446Y-61286612D01*
X118251697Y-61608423D01*
X118481626Y-61703898D01*
X118037851Y-61887262D01*
X117824240Y-62100500D01*
X117411500Y-62100500D01*
X117411500Y-40129500D01*
X117824234Y-40129500D01*
X117923916Y-40229356D01*
X117778301Y-40289673D01*
X117599673Y-40468302D01*
X117503000Y-40701691D01*
X117503000Y-41304250D01*
X117661750Y-41463000D01*
X118773000Y-41463000D01*
X118773000Y-41443000D01*
X119027000Y-41443000D01*
X119027000Y-41463000D01*
X120138250Y-41463000D01*
X120297000Y-41304250D01*
X120297000Y-40701691D01*
X120200327Y-40468302D01*
X120021699Y-40289673D01*
X119875832Y-40229252D01*
X120191231Y-39914404D01*
X120423735Y-39354472D01*
X120424264Y-38748188D01*
X120309144Y-38469575D01*
X120309144Y-36717698D01*
X120281362Y-36162632D01*
X120122397Y-35778857D01*
X119880213Y-35709392D01*
X119700608Y-35888997D01*
X119700608Y-35529787D01*
X119631143Y-35287603D01*
X119107698Y-35100856D01*
X118552632Y-35128638D01*
X118168857Y-35287603D01*
X118099392Y-35529787D01*
X118900000Y-36330395D01*
X119700608Y-35529787D01*
X119700608Y-35888997D01*
X119079605Y-36510000D01*
X119880213Y-37310608D01*
X120122397Y-37241143D01*
X120309144Y-36717698D01*
X120309144Y-38469575D01*
X120192738Y-38187851D01*
X119764404Y-37758769D01*
X119638566Y-37706516D01*
X119700608Y-37490213D01*
X118900000Y-36689605D01*
X118720395Y-36869210D01*
X118720395Y-36510000D01*
X117919787Y-35709392D01*
X117677603Y-35778857D01*
X117490856Y-36302302D01*
X117518638Y-36857368D01*
X117677603Y-37241143D01*
X117919787Y-37310608D01*
X118720395Y-36510000D01*
X118720395Y-36869210D01*
X118099392Y-37490213D01*
X118161352Y-37706232D01*
X118037851Y-37757262D01*
X117824240Y-37970500D01*
X116906005Y-37970500D01*
X116906000Y-37970499D01*
X116561432Y-38039038D01*
X116492893Y-38052672D01*
X116142678Y-38286678D01*
X116142675Y-38286681D01*
X115568678Y-38860678D01*
X115334672Y-39210893D01*
X115252500Y-39624000D01*
X115252500Y-62100500D01*
X115090000Y-62100500D01*
X114895765Y-62100500D01*
X114684404Y-61888769D01*
X114238734Y-61703710D01*
X114466612Y-61609554D01*
X114788423Y-61288303D01*
X114962801Y-60868354D01*
X114963198Y-60413641D01*
X114963198Y-57873641D01*
X114789554Y-57453388D01*
X114468303Y-57131577D01*
X114048354Y-56957199D01*
X113593641Y-56956802D01*
X113173388Y-57130446D01*
X112851577Y-57451697D01*
X112677199Y-57871646D01*
X112676802Y-58326359D01*
X112850446Y-58746612D01*
X113171697Y-59068423D01*
X113591646Y-59242801D01*
X114046359Y-59243198D01*
X114466612Y-59069554D01*
X114788423Y-58748303D01*
X114962801Y-58328354D01*
X114963198Y-57873641D01*
X114963198Y-60413641D01*
X114789554Y-59993388D01*
X114468303Y-59671577D01*
X114048354Y-59497199D01*
X113593641Y-59496802D01*
X113173388Y-59670446D01*
X112851577Y-59991697D01*
X112677199Y-60411646D01*
X112676802Y-60866359D01*
X112850446Y-61286612D01*
X113171697Y-61608423D01*
X113401626Y-61703898D01*
X112957851Y-61887262D01*
X112528769Y-62315596D01*
X112296265Y-62875528D01*
X112295736Y-63481812D01*
X112527262Y-64042149D01*
X112843917Y-64359357D01*
X112698302Y-64419673D01*
X112519673Y-64598301D01*
X112423000Y-64831690D01*
X112423000Y-65084309D01*
X112423000Y-65434250D01*
X112581750Y-65593000D01*
X113693000Y-65593000D01*
X113693000Y-65573000D01*
X113947000Y-65573000D01*
X113947000Y-65593000D01*
X113967000Y-65593000D01*
X113967000Y-65847000D01*
X113947000Y-65847000D01*
X113947000Y-66958250D01*
X114105750Y-67117000D01*
X114708309Y-67117000D01*
X114744500Y-67102009D01*
X114744500Y-80772000D01*
X114826672Y-81185107D01*
X114871302Y-81251901D01*
X114871291Y-81264935D01*
X115054582Y-81708535D01*
X115393680Y-82048225D01*
X115836959Y-82232290D01*
X116316935Y-82232709D01*
X116760535Y-82049418D01*
X117100225Y-81710320D01*
X117284290Y-81267041D01*
X117284709Y-80787065D01*
X117101418Y-80343465D01*
X116903500Y-80145201D01*
X116903500Y-68032734D01*
X117133781Y-68263417D01*
X117437077Y-68389357D01*
X117709173Y-68389593D01*
X117884000Y-68564420D01*
X117884000Y-72703037D01*
X117487552Y-72967935D01*
X117217757Y-73371712D01*
X117123017Y-73848000D01*
X117217757Y-74324288D01*
X117487552Y-74728065D01*
X117891329Y-74997860D01*
X118367617Y-75092600D01*
X118416383Y-75092600D01*
X118892671Y-74997860D01*
X119296448Y-74728065D01*
X119541159Y-74361828D01*
X119649312Y-74622947D01*
X120043510Y-75054821D01*
X120178312Y-75118000D01*
X120043510Y-75181179D01*
X119649312Y-75613053D01*
X119541159Y-75874171D01*
X119296448Y-75507935D01*
X118892671Y-75238140D01*
X118416383Y-75143400D01*
X118367617Y-75143400D01*
X117891329Y-75238140D01*
X117487552Y-75507935D01*
X117217757Y-75911712D01*
X117123017Y-76388000D01*
X117217757Y-76864288D01*
X117487552Y-77268065D01*
X117891329Y-77537860D01*
X118367617Y-77632600D01*
X118416383Y-77632600D01*
X118892671Y-77537860D01*
X119296448Y-77268065D01*
X119541159Y-76901828D01*
X119649312Y-77162947D01*
X119906119Y-77444299D01*
X119708702Y-77526073D01*
X119530073Y-77704701D01*
X119433400Y-77938090D01*
X119433400Y-78190709D01*
X119433400Y-78252898D01*
X119296448Y-78047935D01*
X118892671Y-77778140D01*
X118416383Y-77683400D01*
X118367617Y-77683400D01*
X117891329Y-77778140D01*
X117487552Y-78047935D01*
X117217757Y-78451712D01*
X117123017Y-78928000D01*
X117217757Y-79404288D01*
X117487552Y-79808065D01*
X117891329Y-80077860D01*
X118367617Y-80172600D01*
X118416383Y-80172600D01*
X118892671Y-80077860D01*
X119296448Y-79808065D01*
X119433400Y-79603101D01*
X119433400Y-79665291D01*
X119433400Y-79917910D01*
X119530073Y-80151299D01*
X119708702Y-80329927D01*
X119942091Y-80426600D01*
X120646250Y-80426600D01*
X120805000Y-80267850D01*
X120805000Y-82834335D01*
X120685329Y-82858140D01*
X120281552Y-83127935D01*
X120011757Y-83531712D01*
X119917017Y-84008000D01*
X120011757Y-84484288D01*
X120281552Y-84888065D01*
X120685329Y-85157860D01*
X121161617Y-85252600D01*
X121210383Y-85252600D01*
X121686671Y-85157860D01*
X122090448Y-84888065D01*
X122360243Y-84484288D01*
X122454983Y-84008000D01*
X122454983Y-86548000D01*
X122360243Y-86071712D01*
X122090448Y-85667935D01*
X121686671Y-85398140D01*
X121210383Y-85303400D01*
X121161617Y-85303400D01*
X120685329Y-85398140D01*
X120281552Y-85667935D01*
X120011757Y-86071712D01*
X119917017Y-86548000D01*
X120011757Y-87024288D01*
X120281552Y-87428065D01*
X120523007Y-87589400D01*
X120196091Y-87589400D01*
X119962702Y-87686073D01*
X119914983Y-87733791D01*
X119914983Y-86548000D01*
X119914983Y-84008000D01*
X119820243Y-83531712D01*
X119550448Y-83127935D01*
X119146671Y-82858140D01*
X118670383Y-82763400D01*
X118621617Y-82763400D01*
X118145329Y-82858140D01*
X117741552Y-83127935D01*
X117471757Y-83531712D01*
X117377017Y-84008000D01*
X117471757Y-84484288D01*
X117741552Y-84888065D01*
X118145329Y-85157860D01*
X118621617Y-85252600D01*
X118670383Y-85252600D01*
X119146671Y-85157860D01*
X119550448Y-84888065D01*
X119820243Y-84484288D01*
X119914983Y-84008000D01*
X119914983Y-86548000D01*
X119820243Y-86071712D01*
X119550448Y-85667935D01*
X119146671Y-85398140D01*
X118670383Y-85303400D01*
X118621617Y-85303400D01*
X118145329Y-85398140D01*
X117741552Y-85667935D01*
X117471757Y-86071712D01*
X117377017Y-86548000D01*
X117471757Y-87024288D01*
X117741552Y-87428065D01*
X118145329Y-87697860D01*
X118621617Y-87792600D01*
X118670383Y-87792600D01*
X119146671Y-87697860D01*
X119550448Y-87428065D01*
X119820243Y-87024288D01*
X119914983Y-86548000D01*
X119914983Y-87733791D01*
X119784073Y-87864701D01*
X119687400Y-88098090D01*
X119687400Y-88350709D01*
X119687400Y-88412898D01*
X119550448Y-88207935D01*
X119146671Y-87938140D01*
X118670383Y-87843400D01*
X118621617Y-87843400D01*
X118145329Y-87938140D01*
X117741552Y-88207935D01*
X117471757Y-88611712D01*
X117377017Y-89088000D01*
X117471757Y-89564288D01*
X117741552Y-89968065D01*
X118145329Y-90237860D01*
X118621617Y-90332600D01*
X118670383Y-90332600D01*
X119146671Y-90237860D01*
X119550448Y-89968065D01*
X119687400Y-89763101D01*
X119687400Y-89825291D01*
X119687400Y-90077910D01*
X119784073Y-90311299D01*
X119962702Y-90489927D01*
X120196091Y-90586600D01*
X120900250Y-90586600D01*
X121059000Y-90427850D01*
X121059000Y-89215000D01*
X121039000Y-89215000D01*
X121039000Y-88961000D01*
X121059000Y-88961000D01*
X121059000Y-88941000D01*
X121313000Y-88941000D01*
X121313000Y-88961000D01*
X122525850Y-88961000D01*
X122684600Y-88802250D01*
X122684600Y-89373750D01*
X122525850Y-89215000D01*
X121313000Y-89215000D01*
X121313000Y-90427850D01*
X121471750Y-90586600D01*
X122175909Y-90586600D01*
X122409298Y-90489927D01*
X122587927Y-90311299D01*
X122684600Y-90077910D01*
X122684600Y-103972576D01*
X122493632Y-103781275D01*
X120309144Y-102874195D01*
X120309144Y-93867698D01*
X120281362Y-93312632D01*
X120122397Y-92928857D01*
X119880213Y-92859392D01*
X119700608Y-93038997D01*
X119700608Y-92679787D01*
X119631143Y-92437603D01*
X119107698Y-92250856D01*
X118552632Y-92278638D01*
X118168857Y-92437603D01*
X118099392Y-92679787D01*
X118900000Y-93480395D01*
X119700608Y-92679787D01*
X119700608Y-93038997D01*
X119079605Y-93660000D01*
X119880213Y-94460608D01*
X120122397Y-94391143D01*
X120309144Y-93867698D01*
X120309144Y-102874195D01*
X120297000Y-102869153D01*
X120297000Y-99628309D01*
X120297000Y-99025750D01*
X120297000Y-98454250D01*
X120297000Y-97851691D01*
X120200327Y-97618302D01*
X120043198Y-97461172D01*
X120021699Y-97439673D01*
X119788310Y-97343000D01*
X119535691Y-97343000D01*
X119185750Y-97343000D01*
X119027002Y-97501748D01*
X119027002Y-97343111D01*
X119126359Y-97343198D01*
X119546612Y-97169554D01*
X119868423Y-96848303D01*
X120042801Y-96428354D01*
X120043198Y-95973641D01*
X119869554Y-95553388D01*
X119548303Y-95231577D01*
X119128354Y-95057199D01*
X118934339Y-95057029D01*
X119247368Y-95041362D01*
X119631143Y-94882397D01*
X119700608Y-94640213D01*
X118900000Y-93839605D01*
X118720395Y-94019210D01*
X118720395Y-93660000D01*
X117919787Y-92859392D01*
X117677603Y-92928857D01*
X117490856Y-93452302D01*
X117518638Y-94007368D01*
X117677603Y-94391143D01*
X117919787Y-94460608D01*
X118720395Y-93660000D01*
X118720395Y-94019210D01*
X118099392Y-94640213D01*
X118168857Y-94882397D01*
X118666258Y-95059852D01*
X118253388Y-95230446D01*
X117931577Y-95551697D01*
X117757199Y-95971646D01*
X117756802Y-96426359D01*
X117930446Y-96846612D01*
X118251697Y-97168423D01*
X118671646Y-97342801D01*
X118899575Y-97343000D01*
X118772998Y-97343000D01*
X118772998Y-97501748D01*
X118614250Y-97343000D01*
X118264309Y-97343000D01*
X118011690Y-97343000D01*
X117778301Y-97439673D01*
X117599673Y-97618302D01*
X117503000Y-97851691D01*
X117503000Y-98454250D01*
X117661750Y-98613000D01*
X118773000Y-98613000D01*
X118773000Y-98593000D01*
X119027000Y-98593000D01*
X119027000Y-98613000D01*
X120138250Y-98613000D01*
X120297000Y-98454250D01*
X120297000Y-99025750D01*
X120138250Y-98867000D01*
X119027000Y-98867000D01*
X119027000Y-99978250D01*
X119185750Y-100137000D01*
X119535691Y-100137000D01*
X119788310Y-100137000D01*
X120021699Y-100040327D01*
X120200327Y-99861698D01*
X120297000Y-99628309D01*
X120297000Y-102869153D01*
X120230575Y-102841571D01*
X118773000Y-102840299D01*
X118773000Y-99978250D01*
X118773000Y-98867000D01*
X117661750Y-98867000D01*
X117503000Y-99025750D01*
X117503000Y-99628309D01*
X117599673Y-99861698D01*
X117778301Y-100040327D01*
X118011690Y-100137000D01*
X118264309Y-100137000D01*
X118614250Y-100137000D01*
X118773000Y-99978250D01*
X118773000Y-102840299D01*
X117780175Y-102839433D01*
X115515482Y-103775185D01*
X113781275Y-105506368D01*
X113693000Y-105718957D01*
X113693000Y-66958250D01*
X113693000Y-65847000D01*
X112581750Y-65847000D01*
X112423000Y-66005750D01*
X112423000Y-66355691D01*
X112423000Y-66608310D01*
X112519673Y-66841699D01*
X112698302Y-67020327D01*
X112931691Y-67117000D01*
X113534250Y-67117000D01*
X113693000Y-66958250D01*
X113693000Y-105718957D01*
X113058264Y-107247570D01*
X113058264Y-102311688D01*
X112839643Y-101782583D01*
X112839643Y-76290518D01*
X112714233Y-75987002D01*
X112522000Y-75794433D01*
X112522000Y-69151502D01*
X112585357Y-68998923D01*
X112585643Y-68670518D01*
X112460233Y-68367002D01*
X112228219Y-68134583D01*
X111924923Y-68008643D01*
X111596518Y-68008357D01*
X111293002Y-68133767D01*
X111060583Y-68365781D01*
X110934643Y-68669077D01*
X110934357Y-68997482D01*
X111059767Y-69300998D01*
X111291781Y-69533417D01*
X111506000Y-69622368D01*
X111506000Y-70206548D01*
X111400219Y-70100583D01*
X111096923Y-69974643D01*
X110768518Y-69974357D01*
X110465002Y-70099767D01*
X110236000Y-70328369D01*
X110236000Y-62484000D01*
X110236000Y-58825302D01*
X110427417Y-58634219D01*
X110553357Y-58330923D01*
X110553643Y-58002518D01*
X110428233Y-57699002D01*
X110196219Y-57466583D01*
X109892923Y-57340643D01*
X109564518Y-57340357D01*
X109261002Y-57465767D01*
X109028583Y-57697781D01*
X108902643Y-58001077D01*
X108902357Y-58329482D01*
X109027767Y-58632998D01*
X109220000Y-58825566D01*
X109220000Y-60388489D01*
X109158233Y-60239002D01*
X108926219Y-60006583D01*
X108622923Y-59880643D01*
X108294518Y-59880357D01*
X107991002Y-60005767D01*
X107758583Y-60237781D01*
X107632643Y-60541077D01*
X107632357Y-60869482D01*
X107757767Y-61172998D01*
X107950000Y-61365566D01*
X107950000Y-71476697D01*
X107758583Y-71667781D01*
X107632643Y-71971077D01*
X107632357Y-72299482D01*
X107757767Y-72602998D01*
X107989781Y-72835417D01*
X108293077Y-72961357D01*
X108621482Y-72961643D01*
X108924998Y-72836233D01*
X109157417Y-72604219D01*
X109220000Y-72453502D01*
X109220000Y-74016697D01*
X109028583Y-74207781D01*
X108902643Y-74511077D01*
X108902357Y-74839482D01*
X109027767Y-75142998D01*
X109259781Y-75375417D01*
X109563077Y-75501357D01*
X109891482Y-75501643D01*
X110194998Y-75376233D01*
X110236000Y-75335302D01*
X110236000Y-78334697D01*
X110044583Y-78525781D01*
X109918643Y-78829077D01*
X109918357Y-79157482D01*
X110043767Y-79460998D01*
X110275781Y-79693417D01*
X110579077Y-79819357D01*
X110907482Y-79819643D01*
X111210998Y-79694233D01*
X111443417Y-79462219D01*
X111506000Y-79311502D01*
X111506000Y-86657580D01*
X110088987Y-88074592D01*
X109818518Y-88074357D01*
X109515002Y-88199767D01*
X109282583Y-88431781D01*
X109248000Y-88515065D01*
X109248000Y-85937302D01*
X109439417Y-85746219D01*
X109565357Y-85442923D01*
X109565643Y-85114518D01*
X109440233Y-84811002D01*
X109208219Y-84578583D01*
X108904923Y-84452643D01*
X108576518Y-84452357D01*
X108273002Y-84577767D01*
X108040583Y-84809781D01*
X107914643Y-85113077D01*
X107914357Y-85441482D01*
X108039767Y-85744998D01*
X108232000Y-85937566D01*
X108232000Y-90029673D01*
X108093388Y-90086946D01*
X107771577Y-90408197D01*
X107675428Y-90639749D01*
X107675428Y-79118500D01*
X107675428Y-77721500D01*
X107619055Y-77430952D01*
X107451308Y-77175587D01*
X107198068Y-77004648D01*
X106898500Y-76944572D01*
X106450365Y-76944572D01*
X106810689Y-76795689D01*
X107114622Y-76492286D01*
X107279313Y-76095668D01*
X107279687Y-75666216D01*
X107279687Y-73126216D01*
X107279687Y-70586216D01*
X107279687Y-68046216D01*
X107279687Y-65506216D01*
X107279687Y-62966216D01*
X107279687Y-60426216D01*
X107279687Y-57886216D01*
X107279687Y-55346216D01*
X107115689Y-54949311D01*
X106812286Y-54645378D01*
X106415668Y-54480687D01*
X105986216Y-54480313D01*
X105589311Y-54644311D01*
X105285378Y-54947714D01*
X105120687Y-55344332D01*
X105120313Y-55773784D01*
X105284311Y-56170689D01*
X105587714Y-56474622D01*
X105984332Y-56639313D01*
X106413784Y-56639687D01*
X106810689Y-56475689D01*
X107114622Y-56172286D01*
X107279313Y-55775668D01*
X107279687Y-55346216D01*
X107279687Y-57886216D01*
X107115689Y-57489311D01*
X106812286Y-57185378D01*
X106415668Y-57020687D01*
X105986216Y-57020313D01*
X105589311Y-57184311D01*
X105285378Y-57487714D01*
X105120687Y-57884332D01*
X105120313Y-58313784D01*
X105284311Y-58710689D01*
X105587714Y-59014622D01*
X105984332Y-59179313D01*
X106413784Y-59179687D01*
X106810689Y-59015689D01*
X107114622Y-58712286D01*
X107279313Y-58315668D01*
X107279687Y-57886216D01*
X107279687Y-60426216D01*
X107115689Y-60029311D01*
X106812286Y-59725378D01*
X106415668Y-59560687D01*
X105986216Y-59560313D01*
X105589311Y-59724311D01*
X105285378Y-60027714D01*
X105120687Y-60424332D01*
X105120313Y-60853784D01*
X105284311Y-61250689D01*
X105587714Y-61554622D01*
X105984332Y-61719313D01*
X106413784Y-61719687D01*
X106810689Y-61555689D01*
X107114622Y-61252286D01*
X107279313Y-60855668D01*
X107279687Y-60426216D01*
X107279687Y-62966216D01*
X107115689Y-62569311D01*
X106812286Y-62265378D01*
X106415668Y-62100687D01*
X105986216Y-62100313D01*
X105589311Y-62264311D01*
X105285378Y-62567714D01*
X105242074Y-62672000D01*
X104538420Y-62672000D01*
X100573224Y-58706804D01*
X100679918Y-58547127D01*
X100768857Y-58100000D01*
X100679918Y-57652873D01*
X100426641Y-57273816D01*
X100047584Y-57020539D01*
X99761535Y-56963640D01*
X100232262Y-56825525D01*
X100666191Y-56475986D01*
X100933327Y-55986996D01*
X100950010Y-55907060D01*
X100950010Y-55212940D01*
X100933327Y-55133004D01*
X100666191Y-54644014D01*
X100232262Y-54294475D01*
X99697600Y-54137600D01*
X99342000Y-54137600D01*
X99342000Y-55433000D01*
X100827852Y-55433000D01*
X100950010Y-55212940D01*
X100950010Y-55907060D01*
X100827852Y-55687000D01*
X99342000Y-55687000D01*
X99342000Y-55707000D01*
X99088000Y-55707000D01*
X99088000Y-55687000D01*
X99088000Y-55433000D01*
X99088000Y-54137600D01*
X98732400Y-54137600D01*
X98197738Y-54294475D01*
X97763809Y-54644014D01*
X97496673Y-55133004D01*
X97479990Y-55212940D01*
X97602148Y-55433000D01*
X99088000Y-55433000D01*
X99088000Y-55687000D01*
X97602148Y-55687000D01*
X97479990Y-55907060D01*
X97496673Y-55986996D01*
X97763809Y-56475986D01*
X98197738Y-56825525D01*
X98668464Y-56963640D01*
X98382416Y-57020539D01*
X98003359Y-57273816D01*
X97750082Y-57652873D01*
X97661143Y-58100000D01*
X97750082Y-58547127D01*
X98003359Y-58926184D01*
X98382416Y-59179461D01*
X98829543Y-59268400D01*
X99600457Y-59268400D01*
X99681799Y-59252219D01*
X99975850Y-59546270D01*
X99600457Y-59471600D01*
X98829543Y-59471600D01*
X98382416Y-59560539D01*
X98003359Y-59813816D01*
X97750082Y-60192873D01*
X97661143Y-60640000D01*
X97750082Y-61087127D01*
X98003359Y-61466184D01*
X98382416Y-61719461D01*
X98829543Y-61808400D01*
X99600457Y-61808400D01*
X100047584Y-61719461D01*
X100426641Y-61466184D01*
X100679918Y-61087127D01*
X100768857Y-60640000D01*
X100694186Y-60264606D01*
X103968790Y-63539210D01*
X104133597Y-63649331D01*
X104328000Y-63688000D01*
X105241880Y-63688000D01*
X105284311Y-63790689D01*
X105587714Y-64094622D01*
X105984332Y-64259313D01*
X106413784Y-64259687D01*
X106810689Y-64095689D01*
X107114622Y-63792286D01*
X107279313Y-63395668D01*
X107279687Y-62966216D01*
X107279687Y-65506216D01*
X107115689Y-65109311D01*
X106812286Y-64805378D01*
X106415668Y-64640687D01*
X105986216Y-64640313D01*
X105589311Y-64804311D01*
X105285378Y-65107714D01*
X105120687Y-65504332D01*
X105120313Y-65933784D01*
X105284311Y-66330689D01*
X105587714Y-66634622D01*
X105984332Y-66799313D01*
X106413784Y-66799687D01*
X106810689Y-66635689D01*
X107114622Y-66332286D01*
X107279313Y-65935668D01*
X107279687Y-65506216D01*
X107279687Y-68046216D01*
X107115689Y-67649311D01*
X106812286Y-67345378D01*
X106415668Y-67180687D01*
X105986216Y-67180313D01*
X105589311Y-67344311D01*
X105285378Y-67647714D01*
X105120687Y-68044332D01*
X105120313Y-68473784D01*
X105284311Y-68870689D01*
X105587714Y-69174622D01*
X105984332Y-69339313D01*
X106413784Y-69339687D01*
X106810689Y-69175689D01*
X107114622Y-68872286D01*
X107279313Y-68475668D01*
X107279687Y-68046216D01*
X107279687Y-70586216D01*
X107115689Y-70189311D01*
X106812286Y-69885378D01*
X106415668Y-69720687D01*
X105986216Y-69720313D01*
X105589311Y-69884311D01*
X105285378Y-70187714D01*
X105120687Y-70584332D01*
X105120313Y-71013784D01*
X105284311Y-71410689D01*
X105587714Y-71714622D01*
X105984332Y-71879313D01*
X106413784Y-71879687D01*
X106810689Y-71715689D01*
X107114622Y-71412286D01*
X107279313Y-71015668D01*
X107279687Y-70586216D01*
X107279687Y-73126216D01*
X107115689Y-72729311D01*
X106812286Y-72425378D01*
X106415668Y-72260687D01*
X105986216Y-72260313D01*
X105881854Y-72303434D01*
X103533000Y-69954580D01*
X103533000Y-66355000D01*
X103494331Y-66160597D01*
X103384210Y-65995790D01*
X100735602Y-63347182D01*
X100768857Y-63180000D01*
X100679918Y-62732873D01*
X100426641Y-62353816D01*
X100047584Y-62100539D01*
X99600457Y-62011600D01*
X98829543Y-62011600D01*
X98382416Y-62100539D01*
X98003359Y-62353816D01*
X97750082Y-62732873D01*
X97661143Y-63180000D01*
X97750082Y-63627127D01*
X98003359Y-64006184D01*
X98382416Y-64259461D01*
X98829543Y-64348400D01*
X99600457Y-64348400D01*
X100047584Y-64259461D01*
X100145569Y-64193989D01*
X102517000Y-66565420D01*
X102517000Y-68314400D01*
X102495210Y-68281790D01*
X100560007Y-66346587D01*
X100679918Y-66167127D01*
X100768857Y-65720000D01*
X100679918Y-65272873D01*
X100426641Y-64893816D01*
X100047584Y-64640539D01*
X99600457Y-64551600D01*
X98829543Y-64551600D01*
X98382416Y-64640539D01*
X98003359Y-64893816D01*
X97750082Y-65272873D01*
X97661143Y-65720000D01*
X97750082Y-66167127D01*
X98003359Y-66546184D01*
X98382416Y-66799461D01*
X98829543Y-66888400D01*
X99600457Y-66888400D01*
X99654274Y-66877694D01*
X99934656Y-67158076D01*
X99600457Y-67091600D01*
X98829543Y-67091600D01*
X98382416Y-67180539D01*
X98003359Y-67433816D01*
X97750082Y-67812873D01*
X97661143Y-68260000D01*
X97750082Y-68707127D01*
X98003359Y-69086184D01*
X98382416Y-69339461D01*
X98829543Y-69428400D01*
X99600457Y-69428400D01*
X100047584Y-69339461D01*
X100426641Y-69086184D01*
X100679918Y-68707127D01*
X100768857Y-68260000D01*
X100702380Y-67925800D01*
X101628000Y-68851420D01*
X101628000Y-90528579D01*
X100768857Y-91387722D01*
X100768857Y-89850000D01*
X100679918Y-89402873D01*
X100426641Y-89023816D01*
X100047584Y-88770539D01*
X99600457Y-88681600D01*
X98829543Y-88681600D01*
X98382416Y-88770539D01*
X98003359Y-89023816D01*
X97750082Y-89402873D01*
X97661143Y-89850000D01*
X97750082Y-90297127D01*
X98003359Y-90676184D01*
X98382416Y-90929461D01*
X98829543Y-91018400D01*
X99600457Y-91018400D01*
X100047584Y-90929461D01*
X100426641Y-90676184D01*
X100679918Y-90297127D01*
X100768857Y-89850000D01*
X100768857Y-91387722D01*
X100710735Y-91445844D01*
X100634404Y-91329644D01*
X100507784Y-91244174D01*
X100358000Y-91214136D01*
X98072000Y-91214136D01*
X97926726Y-91242322D01*
X97799044Y-91326196D01*
X97713574Y-91452816D01*
X97683536Y-91602600D01*
X97683536Y-93177400D01*
X97711722Y-93322674D01*
X97795596Y-93450356D01*
X97922216Y-93535826D01*
X98072000Y-93565864D01*
X100358000Y-93565864D01*
X100503274Y-93537678D01*
X100630956Y-93453804D01*
X100716426Y-93327184D01*
X100746464Y-93177400D01*
X100746464Y-92814522D01*
X100844210Y-92749210D01*
X102495210Y-91098210D01*
X102495211Y-91098210D01*
X102605331Y-90933403D01*
X102644000Y-90739000D01*
X102644000Y-70491599D01*
X102665790Y-70524210D01*
X105163296Y-73021716D01*
X105120687Y-73124332D01*
X105120313Y-73553784D01*
X105284311Y-73950689D01*
X105587714Y-74254622D01*
X105984332Y-74419313D01*
X106413784Y-74419687D01*
X106810689Y-74255689D01*
X107114622Y-73952286D01*
X107279313Y-73555668D01*
X107279687Y-73126216D01*
X107279687Y-75666216D01*
X107115689Y-75269311D01*
X106812286Y-74965378D01*
X106415668Y-74800687D01*
X105986216Y-74800313D01*
X105589311Y-74964311D01*
X105285378Y-75267714D01*
X105120687Y-75664332D01*
X105120313Y-76093784D01*
X105284311Y-76490689D01*
X105587714Y-76794622D01*
X105948831Y-76944572D01*
X105501500Y-76944572D01*
X105210952Y-77000945D01*
X104955587Y-77168692D01*
X104839615Y-77340500D01*
X104714000Y-77340500D01*
X104300893Y-77422672D01*
X103950678Y-77656678D01*
X103023678Y-78583678D01*
X102789672Y-78933893D01*
X102707500Y-79347000D01*
X102707500Y-91440000D01*
X102707500Y-95450033D01*
X102679710Y-95516959D01*
X102679291Y-95996935D01*
X102862582Y-96440535D01*
X103201680Y-96780225D01*
X103644959Y-96964290D01*
X104124935Y-96964709D01*
X104568535Y-96781418D01*
X104908225Y-96442320D01*
X105092290Y-95999041D01*
X105092709Y-95519065D01*
X104909418Y-95075465D01*
X104866500Y-95032472D01*
X104866500Y-91440000D01*
X104866500Y-79794144D01*
X104977073Y-79683570D01*
X105201932Y-79835352D01*
X105501500Y-79895428D01*
X106898500Y-79895428D01*
X107189048Y-79839055D01*
X107444413Y-79671308D01*
X107615352Y-79418068D01*
X107675428Y-79118500D01*
X107675428Y-90639749D01*
X107597199Y-90828146D01*
X107596802Y-91282859D01*
X107770446Y-91703112D01*
X108091697Y-92024923D01*
X108511646Y-92199301D01*
X108966359Y-92199698D01*
X109386612Y-92026054D01*
X109708423Y-91704803D01*
X109882801Y-91284854D01*
X109883198Y-90830141D01*
X109709554Y-90409888D01*
X109388303Y-90088077D01*
X109248000Y-90029818D01*
X109248000Y-89285275D01*
X109281767Y-89366998D01*
X109513781Y-89599417D01*
X109817077Y-89725357D01*
X110145482Y-89725643D01*
X110448998Y-89600233D01*
X110681417Y-89368219D01*
X110807357Y-89064923D01*
X110807593Y-88792826D01*
X112373210Y-87227210D01*
X112483331Y-87062403D01*
X112522000Y-86868000D01*
X112522000Y-77113302D01*
X112713417Y-76922219D01*
X112839357Y-76618923D01*
X112839643Y-76290518D01*
X112839643Y-101782583D01*
X112826738Y-101751351D01*
X112677198Y-101601549D01*
X112677198Y-90957141D01*
X112503554Y-90536888D01*
X112182303Y-90215077D01*
X111762354Y-90040699D01*
X111307641Y-90040302D01*
X110887388Y-90213946D01*
X110565577Y-90535197D01*
X110391199Y-90955146D01*
X110390802Y-91409859D01*
X110564446Y-91830112D01*
X110885697Y-92151923D01*
X111305646Y-92326301D01*
X111760359Y-92326698D01*
X112180612Y-92153054D01*
X112502423Y-91831803D01*
X112676801Y-91411854D01*
X112677198Y-90957141D01*
X112677198Y-101601549D01*
X112398404Y-101322269D01*
X111838472Y-101089765D01*
X111232188Y-101089236D01*
X110671851Y-101320762D01*
X110242769Y-101749096D01*
X110163329Y-101940407D01*
X110032738Y-101624351D01*
X109604404Y-101195269D01*
X109044472Y-100962765D01*
X108438188Y-100962236D01*
X107877851Y-101193762D01*
X107497814Y-101573136D01*
X107492738Y-101560851D01*
X107343198Y-101411049D01*
X107343198Y-90766641D01*
X107169554Y-90346388D01*
X106848303Y-90024577D01*
X106428354Y-89850199D01*
X105973641Y-89849802D01*
X105553388Y-90023446D01*
X105231577Y-90344697D01*
X105057199Y-90764646D01*
X105056802Y-91219359D01*
X105230446Y-91639612D01*
X105551697Y-91961423D01*
X105971646Y-92135801D01*
X106426359Y-92136198D01*
X106846612Y-91962554D01*
X107168423Y-91641303D01*
X107342801Y-91221354D01*
X107343198Y-90766641D01*
X107343198Y-101411049D01*
X107064404Y-101131769D01*
X106504472Y-100899265D01*
X105898188Y-100898736D01*
X105337851Y-101130262D01*
X104908769Y-101558596D01*
X104676265Y-102118528D01*
X104675736Y-102724812D01*
X104907262Y-103285149D01*
X105335596Y-103714231D01*
X105895528Y-103946735D01*
X106501812Y-103947264D01*
X107062149Y-103715738D01*
X107442185Y-103336363D01*
X107447262Y-103348649D01*
X107875596Y-103777731D01*
X108435528Y-104010235D01*
X109041812Y-104010764D01*
X109602149Y-103779238D01*
X110031231Y-103350904D01*
X110110670Y-103159592D01*
X110241262Y-103475649D01*
X110669596Y-103904731D01*
X111229528Y-104137235D01*
X111835812Y-104137764D01*
X112396149Y-103906238D01*
X112825231Y-103477904D01*
X113057735Y-102917972D01*
X113058264Y-102311688D01*
X113058264Y-107247570D01*
X112841571Y-107769425D01*
X112839433Y-110219825D01*
X113775185Y-112484518D01*
X115506368Y-114218725D01*
X116349923Y-114569000D01*
X99261622Y-114569000D01*
X99261622Y-97970922D01*
X99232083Y-97460572D01*
X99093611Y-97126271D01*
X98863016Y-97070590D01*
X98683410Y-97250195D01*
X98683410Y-96890984D01*
X98627729Y-96660389D01*
X98144922Y-96492378D01*
X97634572Y-96521917D01*
X97300271Y-96660389D01*
X97244590Y-96890984D01*
X97964000Y-97610395D01*
X98683410Y-96890984D01*
X98683410Y-97250195D01*
X98143605Y-97790000D01*
X98863016Y-98509410D01*
X99093611Y-98453729D01*
X99261622Y-97970922D01*
X99261622Y-114569000D01*
X98683410Y-114569000D01*
X98683410Y-98689016D01*
X97964000Y-97969605D01*
X97784395Y-98149210D01*
X97784395Y-97790000D01*
X97064984Y-97070590D01*
X96834389Y-97126271D01*
X96666378Y-97609078D01*
X96695917Y-98119428D01*
X96834389Y-98453729D01*
X97064984Y-98509410D01*
X97784395Y-97790000D01*
X97784395Y-98149210D01*
X97244590Y-98689016D01*
X97300271Y-98919611D01*
X97783078Y-99087622D01*
X98293428Y-99058083D01*
X98627729Y-98919611D01*
X98683410Y-98689016D01*
X98683410Y-114569000D01*
X94390928Y-114569000D01*
X94390928Y-98440000D01*
X94390928Y-97140000D01*
X94334555Y-96849452D01*
X94166808Y-96594087D01*
X93913568Y-96423148D01*
X93614000Y-96363072D01*
X92314000Y-96363072D01*
X92023452Y-96419445D01*
X91768087Y-96587192D01*
X91597148Y-96840432D01*
X91537072Y-97140000D01*
X91537072Y-98440000D01*
X91593445Y-98730548D01*
X91761192Y-98985913D01*
X92014432Y-99156852D01*
X92314000Y-99216928D01*
X93614000Y-99216928D01*
X93904548Y-99160555D01*
X94159913Y-98992808D01*
X94330852Y-98739568D01*
X94390928Y-98440000D01*
X94390928Y-114569000D01*
X79111794Y-114569000D01*
X78935887Y-105170532D01*
X84179210Y-99927210D01*
X84289331Y-99762404D01*
X84289331Y-99762403D01*
X84328000Y-99568000D01*
X84328000Y-84512002D01*
X88751210Y-80088793D01*
X88751210Y-80088792D01*
X88861331Y-79923986D01*
X88861331Y-79923985D01*
X88867746Y-79891732D01*
X88899999Y-79729582D01*
X88900000Y-79729582D01*
X88900000Y-74886420D01*
X89938420Y-73848000D01*
X90170755Y-73848000D01*
X90383359Y-74166184D01*
X90760793Y-74418377D01*
X90609149Y-74448541D01*
X90106488Y-74784409D01*
X89770620Y-75287070D01*
X89707137Y-75606218D01*
X89561678Y-75751678D01*
X89327672Y-76101893D01*
X89245500Y-76515000D01*
X89245500Y-77873613D01*
X89118710Y-78178959D01*
X89118291Y-78658935D01*
X89245500Y-78966805D01*
X89245500Y-81693856D01*
X88390678Y-82548678D01*
X88156672Y-82898893D01*
X88074500Y-83312000D01*
X88074500Y-88646000D01*
X88074500Y-90932000D01*
X88156672Y-91345107D01*
X88390678Y-91695322D01*
X89848678Y-93153322D01*
X89913343Y-93196529D01*
X90106488Y-93485591D01*
X90609149Y-93821459D01*
X91202079Y-93939400D01*
X91987921Y-93939400D01*
X92580851Y-93821459D01*
X93083512Y-93485591D01*
X93419380Y-92982930D01*
X93537321Y-92390000D01*
X93419380Y-91797070D01*
X93083512Y-91294409D01*
X92580851Y-90958541D01*
X92429206Y-90928377D01*
X92806641Y-90676184D01*
X93059918Y-90297127D01*
X93148857Y-89850000D01*
X93059918Y-89402873D01*
X92806641Y-89023816D01*
X92427584Y-88770539D01*
X91980457Y-88681600D01*
X91209543Y-88681600D01*
X90762416Y-88770539D01*
X90383359Y-89023816D01*
X90233500Y-89248096D01*
X90233500Y-88646000D01*
X90233500Y-87911903D01*
X90383359Y-88136184D01*
X90762416Y-88389461D01*
X91209543Y-88478400D01*
X91980457Y-88478400D01*
X92427584Y-88389461D01*
X92806641Y-88136184D01*
X93019244Y-87818000D01*
X93373000Y-87818000D01*
X93567403Y-87779331D01*
X93732210Y-87669210D01*
X96145210Y-85256210D01*
X96255331Y-85091404D01*
X96255331Y-85091403D01*
X96261746Y-85059150D01*
X96293999Y-84897000D01*
X96294000Y-84897000D01*
X96294000Y-77868420D01*
X97683536Y-76478884D01*
X97683536Y-76667400D01*
X97711722Y-76812674D01*
X97795596Y-76940356D01*
X97922216Y-77025826D01*
X98072000Y-77055864D01*
X100358000Y-77055864D01*
X100485000Y-77031223D01*
X100485000Y-83708060D01*
X100232262Y-83504475D01*
X99697600Y-83347600D01*
X99342000Y-83347600D01*
X99342000Y-84643000D01*
X99362000Y-84643000D01*
X99362000Y-84897000D01*
X99342000Y-84897000D01*
X99342000Y-84917000D01*
X99261622Y-84917000D01*
X99261622Y-80444922D01*
X99232083Y-79934572D01*
X99093611Y-79600271D01*
X98863016Y-79544590D01*
X98683410Y-79724195D01*
X98683410Y-79364984D01*
X98627729Y-79134389D01*
X98144922Y-78966378D01*
X97634572Y-78995917D01*
X97300271Y-79134389D01*
X97244590Y-79364984D01*
X97964000Y-80084395D01*
X98683410Y-79364984D01*
X98683410Y-79724195D01*
X98143605Y-80264000D01*
X98863016Y-80983410D01*
X99093611Y-80927729D01*
X99261622Y-80444922D01*
X99261622Y-84917000D01*
X99088000Y-84917000D01*
X99088000Y-84897000D01*
X99088000Y-84643000D01*
X99088000Y-83347600D01*
X98732400Y-83347600D01*
X98683410Y-83361974D01*
X98683410Y-81163016D01*
X97964000Y-80443605D01*
X97784395Y-80623210D01*
X97784395Y-80264000D01*
X97064984Y-79544590D01*
X96834389Y-79600271D01*
X96666378Y-80083078D01*
X96695917Y-80593428D01*
X96834389Y-80927729D01*
X97064984Y-80983410D01*
X97784395Y-80264000D01*
X97784395Y-80623210D01*
X97244590Y-81163016D01*
X97300271Y-81393611D01*
X97783078Y-81561622D01*
X98293428Y-81532083D01*
X98627729Y-81393611D01*
X98683410Y-81163016D01*
X98683410Y-83361974D01*
X98197738Y-83504475D01*
X97763809Y-83854014D01*
X97496673Y-84343004D01*
X97479990Y-84422940D01*
X97602148Y-84643000D01*
X99088000Y-84643000D01*
X99088000Y-84897000D01*
X97602148Y-84897000D01*
X97479990Y-85117060D01*
X97496673Y-85196996D01*
X97763809Y-85685986D01*
X98197738Y-86035525D01*
X98668464Y-86173640D01*
X98382416Y-86230539D01*
X98003359Y-86483816D01*
X97750082Y-86862873D01*
X97661143Y-87310000D01*
X97750082Y-87757127D01*
X98003359Y-88136184D01*
X98382416Y-88389461D01*
X98829543Y-88478400D01*
X99600457Y-88478400D01*
X100047584Y-88389461D01*
X100426641Y-88136184D01*
X100679918Y-87757127D01*
X100768857Y-87310000D01*
X100679918Y-86862873D01*
X100560007Y-86683412D01*
X101352210Y-85891210D01*
X101462331Y-85726403D01*
X101501000Y-85532000D01*
X101501000Y-71689000D01*
X101462331Y-71494597D01*
X101352210Y-71329790D01*
X100755557Y-70733137D01*
X100679918Y-70352873D01*
X100426641Y-69973816D01*
X100047584Y-69720539D01*
X99600457Y-69631600D01*
X98829543Y-69631600D01*
X98382416Y-69720539D01*
X98003359Y-69973816D01*
X97750082Y-70352873D01*
X97661143Y-70800000D01*
X97750082Y-71247127D01*
X98003359Y-71626184D01*
X98382416Y-71879461D01*
X98829543Y-71968400D01*
X99600457Y-71968400D01*
X100047584Y-71879461D01*
X100297831Y-71712251D01*
X100485000Y-71899420D01*
X100485000Y-72601156D01*
X100426641Y-72513816D01*
X100047584Y-72260539D01*
X99600457Y-72171600D01*
X98829543Y-72171600D01*
X98382416Y-72260539D01*
X98003359Y-72513816D01*
X97790755Y-72832000D01*
X96929000Y-72832000D01*
X96734597Y-72870669D01*
X96569790Y-72980790D01*
X94537790Y-75012790D01*
X94427669Y-75177597D01*
X94389000Y-75372000D01*
X94389000Y-79604063D01*
X94334555Y-79323452D01*
X94166808Y-79068087D01*
X93913568Y-78897148D01*
X93614000Y-78837072D01*
X92314000Y-78837072D01*
X92023452Y-78893445D01*
X91768087Y-79061192D01*
X91597148Y-79314432D01*
X91537072Y-79614000D01*
X91537072Y-80914000D01*
X91593445Y-81204548D01*
X91761192Y-81459913D01*
X92014432Y-81630852D01*
X92314000Y-81690928D01*
X93614000Y-81690928D01*
X93904548Y-81634555D01*
X94159913Y-81466808D01*
X94330852Y-81213568D01*
X94389000Y-80923613D01*
X94389000Y-81257580D01*
X92034274Y-83612305D01*
X91980457Y-83601600D01*
X91209543Y-83601600D01*
X90762416Y-83690539D01*
X90383359Y-83943816D01*
X90233500Y-84168096D01*
X90233500Y-83759144D01*
X91088322Y-82904322D01*
X91322328Y-82554107D01*
X91404500Y-82141000D01*
X91404500Y-78966386D01*
X91531290Y-78661041D01*
X91531709Y-78181065D01*
X91404500Y-77873194D01*
X91404500Y-77429400D01*
X91987921Y-77429400D01*
X92580851Y-77311459D01*
X93083512Y-76975591D01*
X93419380Y-76472930D01*
X93537321Y-75880000D01*
X93419380Y-75287070D01*
X93083512Y-74784409D01*
X92580851Y-74448541D01*
X92429206Y-74418377D01*
X92806641Y-74166184D01*
X93059918Y-73787127D01*
X93148857Y-73340000D01*
X93059918Y-72892873D01*
X92806641Y-72513816D01*
X92427584Y-72260539D01*
X91980457Y-72171600D01*
X91209543Y-72171600D01*
X90762416Y-72260539D01*
X90383359Y-72513816D01*
X90170755Y-72832000D01*
X89728000Y-72832000D01*
X89565849Y-72864253D01*
X89533596Y-72870669D01*
X89368790Y-72980790D01*
X88166000Y-74183580D01*
X88166000Y-72407420D01*
X89265420Y-71308000D01*
X90170755Y-71308000D01*
X90383359Y-71626184D01*
X90762416Y-71879461D01*
X91209543Y-71968400D01*
X91980457Y-71968400D01*
X92427584Y-71879461D01*
X92806641Y-71626184D01*
X93059918Y-71247127D01*
X93148857Y-70800000D01*
X93059918Y-70352873D01*
X92806641Y-69973816D01*
X92427584Y-69720539D01*
X91980457Y-69631600D01*
X91209543Y-69631600D01*
X90762416Y-69720539D01*
X90383359Y-69973816D01*
X90170755Y-70292000D01*
X89055000Y-70292000D01*
X88892849Y-70324253D01*
X88860596Y-70330669D01*
X88695790Y-70440790D01*
X87298790Y-71837790D01*
X87188669Y-72002597D01*
X87150000Y-72197000D01*
X87150000Y-79606580D01*
X85696964Y-81059616D01*
X85696964Y-78483500D01*
X85696964Y-77086500D01*
X85689687Y-77048993D01*
X85689687Y-75031216D01*
X85525689Y-74634311D01*
X85222286Y-74330378D01*
X84825668Y-74165687D01*
X84396216Y-74165313D01*
X83999311Y-74329311D01*
X83695378Y-74632714D01*
X83530687Y-75029332D01*
X83530313Y-75458784D01*
X83694311Y-75855689D01*
X83997714Y-76159622D01*
X84394332Y-76324313D01*
X84823784Y-76324687D01*
X85220689Y-76160689D01*
X85524622Y-75857286D01*
X85689313Y-75460668D01*
X85689687Y-75031216D01*
X85689687Y-77048993D01*
X85668778Y-76941226D01*
X85584904Y-76813544D01*
X85458284Y-76728074D01*
X85308500Y-76698036D01*
X83911500Y-76698036D01*
X83766226Y-76726222D01*
X83638544Y-76810096D01*
X83553074Y-76936716D01*
X83523036Y-77086500D01*
X83523036Y-78483500D01*
X83551222Y-78628774D01*
X83635096Y-78756456D01*
X83761716Y-78841926D01*
X83911500Y-78871964D01*
X85308500Y-78871964D01*
X85453774Y-78843778D01*
X85581456Y-78759904D01*
X85666926Y-78633284D01*
X85696964Y-78483500D01*
X85696964Y-81059616D01*
X82980790Y-83775790D01*
X82870669Y-83940597D01*
X82832000Y-84135000D01*
X82832000Y-90909580D01*
X78745457Y-94996122D01*
X78538522Y-83939897D01*
X79635210Y-82843210D01*
X79635211Y-82843210D01*
X79745331Y-82678403D01*
X79784000Y-82484000D01*
X79784000Y-75074420D01*
X82788420Y-72070000D01*
X83718131Y-72070000D01*
X83695378Y-72092714D01*
X83530687Y-72489332D01*
X83530313Y-72918784D01*
X83694311Y-73315689D01*
X83997714Y-73619622D01*
X84394332Y-73784313D01*
X84823784Y-73784687D01*
X85220689Y-73620689D01*
X85524622Y-73317286D01*
X85689313Y-72920668D01*
X85689687Y-72491216D01*
X85525689Y-72094311D01*
X85402633Y-71971040D01*
X85477210Y-71921210D01*
X88630420Y-68768000D01*
X90170755Y-68768000D01*
X90383359Y-69086184D01*
X90762416Y-69339461D01*
X91209543Y-69428400D01*
X91980457Y-69428400D01*
X92427584Y-69339461D01*
X92806641Y-69086184D01*
X93059918Y-68707127D01*
X93148857Y-68260000D01*
X93059918Y-67812873D01*
X92806641Y-67433816D01*
X92427584Y-67180539D01*
X91980457Y-67091600D01*
X91209543Y-67091600D01*
X90762416Y-67180539D01*
X90383359Y-67433816D01*
X90170755Y-67752000D01*
X88420000Y-67752000D01*
X88225596Y-67790669D01*
X88060790Y-67900790D01*
X85689407Y-70272172D01*
X85689687Y-69951216D01*
X85525689Y-69554311D01*
X85222286Y-69250378D01*
X84825668Y-69085687D01*
X84396216Y-69085313D01*
X83999311Y-69249311D01*
X83695378Y-69552714D01*
X83530687Y-69949332D01*
X83530313Y-70378784D01*
X83694311Y-70775689D01*
X83972136Y-71054000D01*
X82578000Y-71054000D01*
X82383596Y-71092669D01*
X82218790Y-71202790D01*
X78916790Y-74504790D01*
X78806669Y-74669597D01*
X78768000Y-74864000D01*
X78768000Y-82273579D01*
X78512123Y-82529455D01*
X78295855Y-70974564D01*
X82280420Y-66990000D01*
X83718131Y-66990000D01*
X83695378Y-67012714D01*
X83530687Y-67409332D01*
X83530313Y-67838784D01*
X83694311Y-68235689D01*
X83997714Y-68539622D01*
X84394332Y-68704313D01*
X84823784Y-68704687D01*
X85220689Y-68540689D01*
X85524622Y-68237286D01*
X85689313Y-67840668D01*
X85689687Y-67411216D01*
X85525689Y-67014311D01*
X85501420Y-66990000D01*
X86388000Y-66990000D01*
X86582403Y-66951331D01*
X86747210Y-66841210D01*
X87360420Y-66228000D01*
X90170755Y-66228000D01*
X90383359Y-66546184D01*
X90762416Y-66799461D01*
X91209543Y-66888400D01*
X91980457Y-66888400D01*
X92427584Y-66799461D01*
X92806641Y-66546184D01*
X93059918Y-66167127D01*
X93148857Y-65720000D01*
X93059918Y-65272873D01*
X92806641Y-64893816D01*
X92427584Y-64640539D01*
X91980457Y-64551600D01*
X91209543Y-64551600D01*
X90762416Y-64640539D01*
X90383359Y-64893816D01*
X90170755Y-65212000D01*
X87150000Y-65212000D01*
X86955597Y-65250669D01*
X86790790Y-65360790D01*
X86177580Y-65974000D01*
X85247424Y-65974000D01*
X85524622Y-65697286D01*
X85689313Y-65300668D01*
X85689687Y-64871216D01*
X85525689Y-64474311D01*
X85222286Y-64170378D01*
X84825668Y-64005687D01*
X84396216Y-64005313D01*
X83999311Y-64169311D01*
X83695378Y-64472714D01*
X83530687Y-64869332D01*
X83530313Y-65298784D01*
X83694311Y-65695689D01*
X83972136Y-65974000D01*
X82070000Y-65974000D01*
X81875597Y-66012669D01*
X81710790Y-66122790D01*
X78269457Y-69564122D01*
X78121444Y-61656000D01*
X83972575Y-61656000D01*
X83695378Y-61932714D01*
X83530687Y-62329332D01*
X83530313Y-62758784D01*
X83694311Y-63155689D01*
X83997714Y-63459622D01*
X84394332Y-63624313D01*
X84823784Y-63624687D01*
X85220689Y-63460689D01*
X85524622Y-63157286D01*
X85689313Y-62760668D01*
X85689687Y-62331216D01*
X85525689Y-61934311D01*
X85247863Y-61656000D01*
X88209580Y-61656000D01*
X90092790Y-63539210D01*
X90115629Y-63554471D01*
X90130082Y-63627127D01*
X90383359Y-64006184D01*
X90762416Y-64259461D01*
X91209543Y-64348400D01*
X91980457Y-64348400D01*
X92427584Y-64259461D01*
X92806641Y-64006184D01*
X93059918Y-63627127D01*
X93148857Y-63180000D01*
X93059918Y-62732873D01*
X92806641Y-62353816D01*
X92427584Y-62100539D01*
X91980457Y-62011600D01*
X91209543Y-62011600D01*
X90762416Y-62100539D01*
X90383359Y-62353816D01*
X90367688Y-62377268D01*
X88779210Y-60788790D01*
X88614403Y-60678669D01*
X88420000Y-60640000D01*
X85501868Y-60640000D01*
X85524622Y-60617286D01*
X85689313Y-60220668D01*
X85689687Y-59791216D01*
X85689687Y-57251216D01*
X85689687Y-54711216D01*
X85525689Y-54314311D01*
X85222286Y-54010378D01*
X84825668Y-53845687D01*
X84396216Y-53845313D01*
X83999311Y-54009311D01*
X83695378Y-54312714D01*
X83530687Y-54709332D01*
X83530313Y-55138784D01*
X83694311Y-55535689D01*
X83997714Y-55839622D01*
X84394332Y-56004313D01*
X84823784Y-56004687D01*
X85220689Y-55840689D01*
X85524622Y-55537286D01*
X85689313Y-55140668D01*
X85689687Y-54711216D01*
X85689687Y-57251216D01*
X85525689Y-56854311D01*
X85222286Y-56550378D01*
X84825668Y-56385687D01*
X84396216Y-56385313D01*
X83999311Y-56549311D01*
X83695378Y-56852714D01*
X83530687Y-57249332D01*
X83530313Y-57678784D01*
X83694311Y-58075689D01*
X83997714Y-58379622D01*
X84394332Y-58544313D01*
X84823784Y-58544687D01*
X85220689Y-58380689D01*
X85524622Y-58077286D01*
X85689313Y-57680668D01*
X85689687Y-57251216D01*
X85689687Y-59791216D01*
X85525689Y-59394311D01*
X85222286Y-59090378D01*
X84825668Y-58925687D01*
X84396216Y-58925313D01*
X83999311Y-59089311D01*
X83695378Y-59392714D01*
X83530687Y-59789332D01*
X83530313Y-60218784D01*
X83694311Y-60615689D01*
X83718579Y-60640000D01*
X78102428Y-60640000D01*
X77909890Y-50353000D01*
X84272580Y-50353000D01*
X88420000Y-54500420D01*
X88420000Y-59624000D01*
X88458669Y-59818403D01*
X88568790Y-59983210D01*
X89584790Y-60999210D01*
X89749597Y-61109331D01*
X89944000Y-61148000D01*
X90170755Y-61148000D01*
X90383359Y-61466184D01*
X90762416Y-61719461D01*
X91209543Y-61808400D01*
X91980457Y-61808400D01*
X92427584Y-61719461D01*
X92806641Y-61466184D01*
X93059918Y-61087127D01*
X93148857Y-60640000D01*
X93148857Y-58100000D01*
X93148857Y-55560000D01*
X93059918Y-55112873D01*
X92806641Y-54733816D01*
X92427584Y-54480539D01*
X91980457Y-54391600D01*
X91209543Y-54391600D01*
X90762416Y-54480539D01*
X90383359Y-54733816D01*
X90130082Y-55112873D01*
X90041143Y-55560000D01*
X90130082Y-56007127D01*
X90383359Y-56386184D01*
X90762416Y-56639461D01*
X91209543Y-56728400D01*
X91980457Y-56728400D01*
X92427584Y-56639461D01*
X92806641Y-56386184D01*
X93059918Y-56007127D01*
X93148857Y-55560000D01*
X93148857Y-58100000D01*
X93059918Y-57652873D01*
X92806641Y-57273816D01*
X92427584Y-57020539D01*
X91980457Y-56931600D01*
X91209543Y-56931600D01*
X90762416Y-57020539D01*
X90383359Y-57273816D01*
X90130082Y-57652873D01*
X90041143Y-58100000D01*
X90130082Y-58547127D01*
X90383359Y-58926184D01*
X90762416Y-59179461D01*
X91209543Y-59268400D01*
X91980457Y-59268400D01*
X92427584Y-59179461D01*
X92806641Y-58926184D01*
X93059918Y-58547127D01*
X93148857Y-58100000D01*
X93148857Y-60640000D01*
X93059918Y-60192873D01*
X92806641Y-59813816D01*
X92427584Y-59560539D01*
X91980457Y-59471600D01*
X91209543Y-59471600D01*
X90762416Y-59560539D01*
X90383359Y-59813816D01*
X90170755Y-60132000D01*
X90154420Y-60132000D01*
X89436000Y-59413580D01*
X89436000Y-54290000D01*
X89403746Y-54127849D01*
X89397331Y-54095597D01*
X89397331Y-54095596D01*
X89287210Y-53930790D01*
X84842210Y-49485790D01*
X84677403Y-49375669D01*
X84483000Y-49337000D01*
X77890874Y-49337000D01*
X77695960Y-38923000D01*
X87340388Y-38923000D01*
X87340357Y-38959482D01*
X87465767Y-39262998D01*
X87697781Y-39495417D01*
X88001077Y-39621357D01*
X88329482Y-39621643D01*
X88632998Y-39496233D01*
X88865417Y-39264219D01*
X88991357Y-38960923D01*
X88991643Y-38632518D01*
X88866233Y-38329002D01*
X88634219Y-38096583D01*
X88330923Y-37970643D01*
X88016369Y-37970369D01*
X87979403Y-37945669D01*
X87785000Y-37907000D01*
X77676944Y-37907000D01*
X77349853Y-20431000D01*
X116348473Y-20431000D01*
X115515482Y-20775185D01*
X113781275Y-22506368D01*
X112841571Y-24769425D01*
X112839433Y-27219825D01*
X113775185Y-29484518D01*
X115506368Y-31218725D01*
X117769425Y-32158429D01*
X120219825Y-32160567D01*
X122484518Y-31224815D01*
X124218725Y-29493632D01*
X124569000Y-28650076D01*
X124569000Y-106348473D01*
M02*
