solid USB-GPS-lid
facet normal -0.85065080835204 -0.525731112119134 -0.0
outer loop
vertex 0.284146394489117 1.4914397251546 3.175
vertex 0.511937564648578 1.12286586949948 0.0
vertex 0.511937564648578 1.12286586949948 3.175
endloop
endfacet
facet normal -0.85065080835204 -0.525731112119134 -0.0
outer loop
vertex 0.511937564648578 1.12286586949948 0.0
vertex 0.284146394489117 1.4914397251546 3.175
vertex 0.284146394489117 1.4914397251546 0.0
endloop
endfacet
facet normal -0.759583665894039 -0.650409605177363 -0.0
outer loop
vertex 0.511937564648578 1.12286586949948 3.175
vertex 0.79375 0.79375 0.0
vertex 0.79375 0.79375 3.175
endloop
endfacet
facet normal -0.759583665894039 -0.650409605177363 -0.0
outer loop
vertex 0.79375 0.79375 0.0
vertex 0.511937564648578 1.12286586949948 3.175
vertex 0.511937564648578 1.12286586949948 0.0
endloop
endfacet
facet normal -0.650409605177363 -0.759583665894039 -0.0
outer loop
vertex 1.12286586949948 0.511937564648578 3.175
vertex 0.79375 0.79375 0.0
vertex 1.12286586949948 0.511937564648578 0.0
endloop
endfacet
facet normal -0.650409605177363 -0.759583665894039 -0.0
outer loop
vertex 0.79375 0.79375 0.0
vertex 1.12286586949948 0.511937564648578 3.175
vertex 0.79375 0.79375 3.175
endloop
endfacet
facet normal 0.0 0.0 1.0
outer loop
vertex 76.2279804265815 2.74261984318956 3.175
vertex 76.2 3.175 3.175
vertex 76.2 2.43231215730264 3.175
endloop
endfacet
facet normal 0.921440178465667 -0.388520266535944 0.0
outer loop
vertex 76.0841934357107 1.89068552142977 0.0
vertex 75.9158536055109 1.4914397251546 3.175
vertex 75.9158536055109 1.4914397251546 0.0
endloop
endfacet
facet normal 0.921440178465667 -0.388520266535944 0.0
outer loop
vertex 75.9158536055109 1.4914397251546 3.175
vertex 76.0841934357107 1.89068552142977 0.0
vertex 76.0841934357107 1.89068552142977 3.175
endloop
endfacet
facet normal 0.9702643026941 -0.242047893850643 0.0
outer loop
vertex 76.1890690493159 2.31108605656979 0.0
vertex 76.0841934357107 1.89068552142977 3.175
vertex 76.0841934357107 1.89068552142977 0.0
endloop
endfacet
facet normal 0.9702643026941 -0.242047893850643 0.0
outer loop
vertex 76.0841934357107 1.89068552142977 3.175
vertex 76.1890690493159 2.31108605656979 0.0
vertex 76.1890690493159 2.31108605656979 3.175
endloop
endfacet
facet normal 0.0 0.0 1.0
outer loop
vertex 73.025 3.175 5.715
vertex 3.175 41.275 5.715
vertex 3.175 3.175 5.715
endloop
endfacet
facet normal 0.0 0.0 1.0
outer loop
vertex 3.175 41.275 5.715
vertex 73.025 3.175 5.715
vertex 73.025 41.275 5.715
endloop
endfacet
facet normal 0.242047893850635 -0.970264302694102 0.0
outer loop
vertex 74.3093144785702 0.115806564289312 3.175
vertex 73.8889139434302 0.0109309506840515 0.0
vertex 74.3093144785702 0.115806564289312 0.0
endloop
endfacet
facet normal 0.242047893850635 -0.970264302694102 0.0
outer loop
vertex 73.8889139434302 0.0109309506840515 0.0
vertex 74.3093144785702 0.115806564289312 3.175
vertex 73.8889139434302 0.0109309506840515 3.175
endloop
endfacet
facet normal 0.388520266535948 -0.921440178465665 0.0
outer loop
vertex 74.7085602748454 0.284146394489116 3.175
vertex 74.3093144785702 0.115806564289312 0.0
vertex 74.7085602748454 0.284146394489116 0.0
endloop
endfacet
facet normal 0.388520266535948 -0.921440178465665 0.0
outer loop
vertex 74.3093144785702 0.115806564289312 0.0
vertex 74.7085602748454 0.284146394489116 3.175
vertex 74.3093144785702 0.115806564289312 3.175
endloop
endfacet
facet normal 0.525731112119137 -0.850650808352038 0.0
outer loop
vertex 75.0771341305005 0.511937564648578 3.175
vertex 74.7085602748454 0.284146394489116 0.0
vertex 75.0771341305005 0.511937564648578 0.0
endloop
endfacet
facet normal 0.525731112119137 -0.850650808352038 0.0
outer loop
vertex 74.7085602748454 0.284146394489116 0.0
vertex 75.0771341305005 0.511937564648578 3.175
vertex 74.7085602748454 0.284146394489116 3.175
endloop
endfacet
facet normal 0.0 1.0 0.0
outer loop
vertex 3.175 41.275 5.715
vertex 73.025 41.275 3.175
vertex 3.175 41.275 3.175
endloop
endfacet
facet normal 0.0 1.0 0.0
outer loop
vertex 73.025 41.275 3.175
vertex 3.175 41.275 5.715
vertex 73.025 41.275 5.715
endloop
endfacet
facet normal 0.650409605177363 -0.759583665894039 0.0
outer loop
vertex 75.40625 0.79375 3.175
vertex 75.0771341305005 0.511937564648578 0.0
vertex 75.40625 0.79375 0.0
endloop
endfacet
facet normal 0.650409605177363 -0.759583665894039 0.0
outer loop
vertex 75.0771341305005 0.511937564648578 0.0
vertex 75.40625 0.79375 3.175
vertex 75.0771341305005 0.511937564648578 3.175
endloop
endfacet
facet normal 0.759583665894036 -0.650409605177366 0.0
outer loop
vertex 75.6880624353514 1.12286586949948 0.0
vertex 75.40625 0.79375 3.175
vertex 75.40625 0.79375 0.0
endloop
endfacet
facet normal 0.759583665894036 -0.650409605177366 0.0
outer loop
vertex 75.40625 0.79375 3.175
vertex 75.6880624353514 1.12286586949948 0.0
vertex 75.6880624353514 1.12286586949948 3.175
endloop
endfacet
facet normal -1.0 -0.0 -0.0
outer loop
vertex 3.175 41.275 5.715
vertex 3.175 3.175 3.175
vertex 3.175 3.175 5.715
endloop
endfacet
facet normal -1.0 -0.0 -0.0
outer loop
vertex 3.175 3.175 3.175
vertex 3.175 41.275 5.715
vertex 3.175 41.275 3.175
endloop
endfacet
facet normal 1.0 0.0 0.0
outer loop
vertex 73.025 41.275 3.175
vertex 73.025 3.175 5.715
vertex 73.025 3.175 3.175
endloop
endfacet
facet normal 1.0 0.0 0.0
outer loop
vertex 73.025 3.175 5.715
vertex 73.025 41.275 3.175
vertex 73.025 41.275 5.715
endloop
endfacet
facet normal 0.0 -1.0 0.0
outer loop
vertex 73.025 3.175 5.715
vertex 3.175 3.175 3.175
vertex 73.025 3.175 3.175
endloop
endfacet
facet normal 0.0 -1.0 0.0
outer loop
vertex 3.175 3.175 3.175
vertex 73.025 3.175 5.715
vertex 3.175 3.175 5.715
endloop
endfacet
facet normal 0.0 0.0 -1.0
outer loop
vertex 0.115806564289312 42.5593144785702 0.0
vertex 0.0109309506840518 2.31108605656979 0.0
vertex 0.0109309506840515 42.1389139434302 0.0
endloop
endfacet
facet normal 0.0 0.0 -1.0
outer loop
vertex 0.0109309506840518 2.31108605656979 0.0
vertex 0.115806564289312 42.5593144785702 0.0
vertex 0.115806564289313 1.89068552142977 0.0
endloop
endfacet
facet normal 0.0 0.0 -1.0
outer loop
vertex 0.115806564289313 1.89068552142977 0.0
vertex 0.115806564289312 42.5593144785702 0.0
vertex 0.284146394489116 42.9585602748454 0.0
endloop
endfacet
facet normal 0.0 0.0 -1.0
outer loop
vertex 0.115806564289313 1.89068552142977 0.0
vertex 0.284146394489116 42.9585602748454 0.0
vertex 0.284146394489117 1.4914397251546 0.0
endloop
endfacet
facet normal 0.0 0.0 -1.0
outer loop
vertex 0.284146394489117 1.4914397251546 0.0
vertex 0.284146394489116 42.9585602748454 0.0
vertex 0.511937564648578 43.3271341305005 0.0
endloop
endfacet
facet normal 0.0 0.0 -1.0
outer loop
vertex 0.284146394489117 1.4914397251546 0.0
vertex 0.511937564648578 43.3271341305005 0.0
vertex 0.511937564648578 1.12286586949948 0.0
endloop
endfacet
facet normal 0.0 0.0 -1.0
outer loop
vertex 0.511937564648578 1.12286586949948 0.0
vertex 0.511937564648578 43.3271341305005 0.0
vertex 0.79375 43.65625 0.0
endloop
endfacet
facet normal 0.0 0.0 -1.0
outer loop
vertex 0.511937564648578 1.12286586949948 0.0
vertex 0.79375 43.65625 0.0
vertex 0.79375 0.79375 0.0
endloop
endfacet
facet normal 0.0 0.0 -1.0
outer loop
vertex 0.79375 0.79375 0.0
vertex 0.79375 43.65625 0.0
vertex 1.12286586949948 43.9380624353514 0.0
endloop
endfacet
facet normal 0.0 0.0 -1.0
outer loop
vertex 0.79375 0.79375 0.0
vertex 1.12286586949948 43.9380624353514 0.0
vertex 1.12286586949948 0.511937564648578 0.0
endloop
endfacet
facet normal 0.0 0.0 -1.0
outer loop
vertex 1.12286586949948 0.511937564648578 0.0
vertex 1.12286586949948 43.9380624353514 0.0
vertex 1.4914397251546 44.1658536055109 0.0
endloop
endfacet
facet normal 0.0 0.0 -1.0
outer loop
vertex 1.12286586949948 0.511937564648578 0.0
vertex 1.4914397251546 44.1658536055109 0.0
vertex 1.4914397251546 0.284146394489117 0.0
endloop
endfacet
facet normal 0.0 0.0 -1.0
outer loop
vertex 1.4914397251546 0.284146394489117 0.0
vertex 1.4914397251546 44.1658536055109 0.0
vertex 1.89068552142977 44.3341934357107 0.0
endloop
endfacet
facet normal 0.0 0.0 -1.0
outer loop
vertex 1.4914397251546 0.284146394489117 0.0
vertex 1.89068552142977 44.3341934357107 0.0
vertex 1.89068552142977 0.115806564289313 0.0
endloop
endfacet
facet normal 0.0 0.0 -1.0
outer loop
vertex 1.89068552142977 0.115806564289313 0.0
vertex 1.89068552142977 44.3341934357107 0.0
vertex 2.31108605656979 44.4390690493159 0.0
endloop
endfacet
facet normal 0.0 0.0 -1.0
outer loop
vertex 1.89068552142977 0.115806564289313 0.0
vertex 2.31108605656979 44.4390690493159 0.0
vertex 2.31108605656979 0.0109309506840518 0.0
endloop
endfacet
facet normal 0.0 0.0 -1.0
outer loop
vertex 2.31108605656979 0.0109309506840518 0.0
vertex 2.31108605656979 44.4390690493159 0.0
vertex 73.8889139434302 44.4390690493159 0.0
endloop
endfacet
facet normal 0.0 0.0 -1.0
outer loop
vertex 2.31108605656979 0.0109309506840518 0.0
vertex 73.8889139434302 44.4390690493159 0.0
vertex 73.8889139434302 0.0109309506840515 0.0
endloop
endfacet
facet normal 0.0 0.0 -1.0
outer loop
vertex 73.8889139434302 0.0109309506840515 0.0
vertex 73.8889139434302 44.4390690493159 0.0
vertex 74.3093144785702 44.3341934357107 0.0
endloop
endfacet
facet normal 0.0 0.0 -1.0
outer loop
vertex 73.8889139434302 0.0109309506840515 0.0
vertex 74.3093144785702 44.3341934357107 0.0
vertex 74.3093144785702 0.115806564289312 0.0
endloop
endfacet
facet normal 0.0 0.0 -1.0
outer loop
vertex 74.3093144785702 0.115806564289312 0.0
vertex 74.3093144785702 44.3341934357107 0.0
vertex 74.7085602748454 44.1658536055109 0.0
endloop
endfacet
facet normal 0.0 0.0 -1.0
outer loop
vertex 74.3093144785702 0.115806564289312 0.0
vertex 74.7085602748454 44.1658536055109 0.0
vertex 74.7085602748454 0.284146394489116 0.0
endloop
endfacet
facet normal 0.0 0.0 -1.0
outer loop
vertex 74.7085602748454 0.284146394489116 0.0
vertex 74.7085602748454 44.1658536055109 0.0
vertex 75.0771341305005 43.9380624353514 0.0
endloop
endfacet
facet normal 0.0 0.0 -1.0
outer loop
vertex 74.7085602748454 0.284146394489116 0.0
vertex 75.0771341305005 43.9380624353514 0.0
vertex 75.0771341305005 0.511937564648578 0.0
endloop
endfacet
facet normal 0.0 0.0 -1.0
outer loop
vertex 75.0771341305005 0.511937564648578 0.0
vertex 75.0771341305005 43.9380624353514 0.0
vertex 75.40625 43.65625 0.0
endloop
endfacet
facet normal 0.0 0.0 -1.0
outer loop
vertex 75.0771341305005 0.511937564648578 0.0
vertex 75.40625 43.65625 0.0
vertex 75.40625 0.79375 0.0
endloop
endfacet
facet normal 0.0 0.0 -1.0
outer loop
vertex 75.40625 0.79375 0.0
vertex 75.40625 43.65625 0.0
vertex 75.6880624353514 43.3271341305005 0.0
endloop
endfacet
facet normal 0.0 0.0 -1.0
outer loop
vertex 75.40625 0.79375 0.0
vertex 75.6880624353514 43.3271341305005 0.0
vertex 75.6880624353514 1.12286586949948 0.0
endloop
endfacet
facet normal 0.0 0.0 -1.0
outer loop
vertex 75.6880624353514 1.12286586949948 0.0
vertex 75.6880624353514 43.3271341305005 0.0
vertex 75.9158536055109 42.9585602748454 0.0
endloop
endfacet
facet normal 0.0 0.0 -1.0
outer loop
vertex 75.6880624353514 1.12286586949948 0.0
vertex 75.9158536055109 42.9585602748454 0.0
vertex 75.9158536055109 1.4914397251546 0.0
endloop
endfacet
facet normal 0.0 0.0 -1.0
outer loop
vertex 75.9158536055109 1.4914397251546 0.0
vertex 75.9158536055109 42.9585602748454 0.0
vertex 76.0841934357107 42.5593144785702 0.0
endloop
endfacet
facet normal 0.0 0.0 -1.0
outer loop
vertex 75.9158536055109 1.4914397251546 0.0
vertex 76.0841934357107 42.5593144785702 0.0
vertex 76.0841934357107 1.89068552142977 0.0
endloop
endfacet
facet normal 0.0 0.0 -1.0
outer loop
vertex 76.0841934357107 1.89068552142977 0.0
vertex 76.0841934357107 42.5593144785702 0.0
vertex 76.1890690493159 42.1389139434302 0.0
endloop
endfacet
facet normal 0.0 0.0 -1.0
outer loop
vertex 76.0841934357107 1.89068552142977 0.0
vertex 76.1890690493159 42.1389139434302 0.0
vertex 76.1890690493159 2.31108605656979 0.0
endloop
endfacet
facet normal 0.999997366009641 -3.98944654254512e-021 -0.00229520669648938
outer loop
vertex 76.1890690493159 42.1389139434302 0.0
vertex 76.1890690493159 2.31108605656979 3.175
vertex 76.1890690493159 2.31108605656979 0.0
endloop
endfacet
facet normal 0.999997366009641 -3.98944654254512e-021 -0.00229520669648938
outer loop
vertex 76.1890690493159 2.31108605656979 3.175
vertex 76.1890690493159 42.1389139434302 0.0
vertex 76.2 2.43231215730264 3.175
endloop
endfacet
facet normal 0.999997366009641 -3.98944654254512e-021 -0.00229520669648938
outer loop
vertex 76.2 2.43231215730264 3.175
vertex 76.1890690493159 42.1389139434302 0.0
vertex 76.2 3.175 3.175
endloop
endfacet
facet normal 0.999997366009641 -3.98944654254512e-021 -0.00229520669648938
outer loop
vertex 76.2 3.175 3.175
vertex 76.1890690493159 42.1389139434302 0.0
vertex 76.2 41.275 3.175
endloop
endfacet
facet normal 0.999997366009641 -3.98944654254512e-021 -0.00229520669648938
outer loop
vertex 76.2 41.275 3.175
vertex 76.1890690493159 42.1389139434302 0.0
vertex 76.2 42.0176878426974 3.175
endloop
endfacet
facet normal 0.999997366009641 -3.98944654254512e-021 -0.00229520669648938
outer loop
vertex 76.2 42.0176878426974 3.175
vertex 76.1890690493159 42.1389139434302 0.0
vertex 76.1890690493159 42.1389139434302 3.175
endloop
endfacet
facet normal -1.36437221093133e-018 -0.999997366009641 -0.00229520669648991
outer loop
vertex 73.8889139434302 0.0109309506840515 3.175
vertex 2.31108605656979 0.0109309506840518 0.0
vertex 73.8889139434302 0.0109309506840515 0.0
endloop
endfacet
facet normal -1.36437221093133e-018 -0.999997366009641 -0.00229520669648991
outer loop
vertex 2.31108605656979 0.0109309506840518 0.0
vertex 73.8889139434302 0.0109309506840515 3.175
vertex 2.31108605656979 0.0109309506840518 3.175
endloop
endfacet
facet normal -1.36437221093133e-018 -0.999997366009641 -0.00229520669648991
outer loop
vertex 2.31108605656979 0.0109309506840518 3.175
vertex 73.8889139434302 0.0109309506840515 3.175
vertex 73.7676878426973 -2.20309881449054e-017 3.175
endloop
endfacet
facet normal -1.36437221093133e-018 -0.999997366009641 -0.00229520669648991
outer loop
vertex 2.31108605656979 0.0109309506840518 3.175
vertex 73.7676878426973 -2.20309881449054e-017 3.175
vertex 73.025 -3.52495810318487e-016 3.175
endloop
endfacet
facet normal -1.36437221093133e-018 -0.999997366009641 -0.00229520669648991
outer loop
vertex 2.31108605656979 0.0109309506840518 3.175
vertex 73.025 -3.52495810318487e-016 3.175
vertex 3.175 -7.04991620636974e-016 3.175
endloop
endfacet
facet normal -1.36437221093133e-018 -0.999997366009641 -0.00229520669648991
outer loop
vertex 2.31108605656979 0.0109309506840518 3.175
vertex 3.175 -7.04991620636974e-016 3.175
vertex 2.43231215730267 0.0 3.175
endloop
endfacet
facet normal -0.999997366009641 -4.39497775497038e-018 -0.0022952066964899
outer loop
vertex -2.20309881449054e-017 2.43231215730267 3.175
vertex 0.0109309506840518 2.31108605656979 0.0
vertex 0.0109309506840518 2.31108605656979 3.175
endloop
endfacet
facet normal -0.999997366009641 -4.39497775497038e-018 -0.0022952066964899
outer loop
vertex 0.0109309506840518 2.31108605656979 0.0
vertex -2.20309881449054e-017 2.43231215730267 3.175
vertex 0.0109309506840515 42.1389139434302 0.0
endloop
endfacet
facet normal -0.999997366009641 -4.39497775497038e-018 -0.0022952066964899
outer loop
vertex 0.0109309506840515 42.1389139434302 0.0
vertex -2.20309881449054e-017 2.43231215730267 3.175
vertex -3.52495810318487e-016 3.175 3.175
endloop
endfacet
facet normal -0.999997366009641 -4.39497775497038e-018 -0.0022952066964899
outer loop
vertex 0.0109309506840515 42.1389139434302 0.0
vertex -3.52495810318487e-016 3.175 3.175
vertex -3.52495810318487e-016 41.275 3.175
endloop
endfacet
facet normal -0.999997366009641 -4.39497775497038e-018 -0.0022952066964899
outer loop
vertex 0.0109309506840515 42.1389139434302 0.0
vertex -3.52495810318487e-016 41.275 3.175
vertex 0.0 42.0176878426973 3.175
endloop
endfacet
facet normal -0.999997366009641 -4.39497775497038e-018 -0.0022952066964899
outer loop
vertex 0.0109309506840515 42.1389139434302 0.0
vertex 0.0 42.0176878426973 3.175
vertex 0.0109309506840515 42.1389139434302 3.175
endloop
endfacet
facet normal -8.95376697263261e-021 0.999997366009641 -0.00229520669648938
outer loop
vertex 2.31108605656979 44.4390690493159 3.175
vertex 73.8889139434302 44.4390690493159 0.0
vertex 2.31108605656979 44.4390690493159 0.0
endloop
endfacet
facet normal -8.95376697263261e-021 0.999997366009641 -0.00229520669648938
outer loop
vertex 73.8889139434302 44.4390690493159 0.0
vertex 2.31108605656979 44.4390690493159 3.175
vertex 73.8889139434302 44.4390690493159 3.175
endloop
endfacet
facet normal -8.95376697263261e-021 0.999997366009641 -0.00229520669648938
outer loop
vertex 73.8889139434302 44.4390690493159 3.175
vertex 2.31108605656979 44.4390690493159 3.175
vertex 2.43231215730266 44.45 3.175
endloop
endfacet
facet normal -8.95376697263261e-021 0.999997366009641 -0.00229520669648938
outer loop
vertex 73.8889139434302 44.4390690493159 3.175
vertex 2.43231215730266 44.45 3.175
vertex 3.175 44.45 3.175
endloop
endfacet
facet normal -8.95376697263261e-021 0.999997366009641 -0.00229520669648938
outer loop
vertex 73.8889139434302 44.4390690493159 3.175
vertex 3.175 44.45 3.175
vertex 73.025 44.45 3.175
endloop
endfacet
facet normal -8.95376697263261e-021 0.999997366009641 -0.00229520669648938
outer loop
vertex 73.8889139434302 44.4390690493159 3.175
vertex 73.025 44.45 3.175
vertex 73.7676878426973 44.45 3.175
endloop
endfacet
facet normal 0.0 0.0 1.0
outer loop
vertex 76.2279804265815 41.7073801568104 3.175
vertex 76.2 42.0176878426974 3.175
vertex 76.2 41.275 3.175
endloop
endfacet
facet normal 0.0 0.0 1.0
outer loop
vertex 3.175 44.45 3.175
vertex 2.74261984318956 44.4779804265814 3.175
vertex 2.43231215730266 44.45 3.175
endloop
endfacet
facet normal 0.0 0.0 1.0
outer loop
vertex 73.7676878426973 44.45 3.175
vertex 73.4573801568104 44.4779804265814 3.175
vertex 73.025 44.45 3.175
endloop
endfacet
facet normal 0.650409605177366 0.759583665894036 0.0
outer loop
vertex 75.0771341305005 43.9380624353514 3.175
vertex 75.40625 43.65625 0.0
vertex 75.0771341305005 43.9380624353514 0.0
endloop
endfacet
facet normal 0.650409605177366 0.759583665894036 0.0
outer loop
vertex 75.40625 43.65625 0.0
vertex 75.0771341305005 43.9380624353514 3.175
vertex 75.40625 43.65625 3.175
endloop
endfacet
facet normal 0.0 0.0 1.0
outer loop
vertex 73.7676878426973 -2.20309881449054e-017 3.175
vertex 73.025 -3.52495810318487e-016 3.175
vertex 73.4573801568104 -0.0279804265814513 3.175
endloop
endfacet
facet normal 0.0 0.0 1.0
outer loop
vertex 73.025 -3.52495810318487e-016 3.175
vertex 3.175 3.175 3.175
vertex 3.175 -7.04991620636974e-016 3.175
endloop
endfacet
facet normal 0.0 0.0 1.0
outer loop
vertex 3.175 3.175 3.175
vertex 73.025 -3.52495810318487e-016 3.175
vertex 73.025 3.175 3.175
endloop
endfacet
facet normal 0.0 0.0 1.0
outer loop
vertex 73.025 3.175 3.175
vertex 73.025 -3.52495810318487e-016 3.175
vertex 73.7676878426973 -2.20309881449054e-017 3.175
endloop
endfacet
facet normal 0.0 0.0 1.0
outer loop
vertex 73.025 3.175 3.175
vertex 73.7676878426973 -2.20309881449054e-017 3.175
vertex 73.025 41.275 3.175
endloop
endfacet
facet normal 0.0 0.0 1.0
outer loop
vertex 73.025 41.275 3.175
vertex 73.7676878426973 -2.20309881449054e-017 3.175
vertex 73.025 44.45 3.175
endloop
endfacet
facet normal 0.0 0.0 1.0
outer loop
vertex 73.025 44.45 3.175
vertex 73.7676878426973 -2.20309881449054e-017 3.175
vertex 73.7676878426973 44.45 3.175
endloop
endfacet
facet normal 0.0 0.0 1.0
outer loop
vertex 73.7676878426973 44.45 3.175
vertex 73.7676878426973 -2.20309881449054e-017 3.175
vertex 73.8889139434302 0.0109309506840515 3.175
endloop
endfacet
facet normal 0.0 0.0 1.0
outer loop
vertex 73.7676878426973 44.45 3.175
vertex 73.8889139434302 0.0109309506840515 3.175
vertex 73.8889139434302 44.4390690493159 3.175
endloop
endfacet
facet normal 0.0 0.0 1.0
outer loop
vertex 73.8889139434302 44.4390690493159 3.175
vertex 73.8889139434302 0.0109309506840515 3.175
vertex 74.3093144785702 0.115806564289312 3.175
endloop
endfacet
facet normal 0.0 0.0 1.0
outer loop
vertex 73.8889139434302 44.4390690493159 3.175
vertex 74.3093144785702 0.115806564289312 3.175
vertex 74.3093144785702 44.3341934357107 3.175
endloop
endfacet
facet normal 0.0 0.0 1.0
outer loop
vertex 74.3093144785702 44.3341934357107 3.175
vertex 74.3093144785702 0.115806564289312 3.175
vertex 74.7085602748454 0.284146394489116 3.175
endloop
endfacet
facet normal 0.0 0.0 1.0
outer loop
vertex 74.3093144785702 44.3341934357107 3.175
vertex 74.7085602748454 0.284146394489116 3.175
vertex 74.7085602748454 44.1658536055109 3.175
endloop
endfacet
facet normal 0.0 0.0 1.0
outer loop
vertex 74.7085602748454 44.1658536055109 3.175
vertex 74.7085602748454 0.284146394489116 3.175
vertex 75.0771341305005 0.511937564648578 3.175
endloop
endfacet
facet normal 0.0 0.0 1.0
outer loop
vertex 74.7085602748454 44.1658536055109 3.175
vertex 75.0771341305005 0.511937564648578 3.175
vertex 75.0771341305005 43.9380624353514 3.175
endloop
endfacet
facet normal 0.0 0.0 1.0
outer loop
vertex 75.0771341305005 43.9380624353514 3.175
vertex 75.0771341305005 0.511937564648578 3.175
vertex 75.40625 0.79375 3.175
endloop
endfacet
facet normal 0.0 0.0 1.0
outer loop
vertex 75.0771341305005 43.9380624353514 3.175
vertex 75.40625 0.79375 3.175
vertex 75.40625 43.65625 3.175
endloop
endfacet
facet normal 0.0 0.0 1.0
outer loop
vertex 75.40625 43.65625 3.175
vertex 75.40625 0.79375 3.175
vertex 75.6880624353514 1.12286586949948 3.175
endloop
endfacet
facet normal 0.0 0.0 1.0
outer loop
vertex 75.40625 43.65625 3.175
vertex 75.6880624353514 1.12286586949948 3.175
vertex 75.6880624353514 43.3271341305005 3.175
endloop
endfacet
facet normal 0.0 0.0 1.0
outer loop
vertex 75.6880624353514 43.3271341305005 3.175
vertex 75.6880624353514 1.12286586949948 3.175
vertex 75.9158536055109 1.4914397251546 3.175
endloop
endfacet
facet normal 0.0 0.0 1.0
outer loop
vertex 75.6880624353514 43.3271341305005 3.175
vertex 75.9158536055109 1.4914397251546 3.175
vertex 75.9158536055109 42.9585602748454 3.175
endloop
endfacet
facet normal 0.0 0.0 1.0
outer loop
vertex 75.9158536055109 42.9585602748454 3.175
vertex 75.9158536055109 1.4914397251546 3.175
vertex 76.0841934357107 1.89068552142977 3.175
endloop
endfacet
facet normal 0.0 0.0 1.0
outer loop
vertex 75.9158536055109 42.9585602748454 3.175
vertex 76.0841934357107 1.89068552142977 3.175
vertex 76.0841934357107 42.5593144785702 3.175
endloop
endfacet
facet normal 0.0 0.0 1.0
outer loop
vertex 76.0841934357107 42.5593144785702 3.175
vertex 76.0841934357107 1.89068552142977 3.175
vertex 76.1890690493159 2.31108605656979 3.175
endloop
endfacet
facet normal 0.0 0.0 1.0
outer loop
vertex 76.0841934357107 42.5593144785702 3.175
vertex 76.1890690493159 2.31108605656979 3.175
vertex 76.1890690493159 42.1389139434302 3.175
endloop
endfacet
facet normal 0.0 0.0 1.0
outer loop
vertex 76.1890690493159 42.1389139434302 3.175
vertex 76.1890690493159 2.31108605656979 3.175
vertex 76.2 2.43231215730264 3.175
endloop
endfacet
facet normal 0.0 0.0 1.0
outer loop
vertex 76.1890690493159 42.1389139434302 3.175
vertex 76.2 2.43231215730264 3.175
vertex 76.2 42.0176878426974 3.175
endloop
endfacet
facet normal 0.0 0.0 1.0
outer loop
vertex 76.2 42.0176878426974 3.175
vertex 76.2 2.43231215730264 3.175
vertex 76.2 3.175 3.175
endloop
endfacet
facet normal 0.0 0.0 1.0
outer loop
vertex 76.2 42.0176878426974 3.175
vertex 76.2 3.175 3.175
vertex 76.2 41.275 3.175
endloop
endfacet
facet normal 0.0 0.0 1.0
outer loop
vertex -2.20309881449054e-017 2.43231215730267 3.175
vertex -3.52495810318487e-016 41.275 3.175
vertex -3.52495810318487e-016 3.175 3.175
endloop
endfacet
facet normal 0.0 0.0 1.0
outer loop
vertex -3.52495810318487e-016 41.275 3.175
vertex -2.20309881449054e-017 2.43231215730267 3.175
vertex 0.0 42.0176878426973 3.175
endloop
endfacet
facet normal 0.0 0.0 1.0
outer loop
vertex 0.0 42.0176878426973 3.175
vertex -2.20309881449054e-017 2.43231215730267 3.175
vertex 0.0109309506840518 2.31108605656979 3.175
endloop
endfacet
facet normal 0.0 0.0 1.0
outer loop
vertex 0.0 42.0176878426973 3.175
vertex 0.0109309506840518 2.31108605656979 3.175
vertex 0.0109309506840515 42.1389139434302 3.175
endloop
endfacet
facet normal 0.0 0.0 1.0
outer loop
vertex 0.0109309506840515 42.1389139434302 3.175
vertex 0.0109309506840518 2.31108605656979 3.175
vertex 0.115806564289312 42.5593144785702 3.175
endloop
endfacet
facet normal 0.0 0.0 1.0
outer loop
vertex 0.115806564289312 42.5593144785702 3.175
vertex 0.0109309506840518 2.31108605656979 3.175
vertex 0.115806564289313 1.89068552142977 3.175
endloop
endfacet
facet normal 0.0 0.0 1.0
outer loop
vertex 0.115806564289312 42.5593144785702 3.175
vertex 0.115806564289313 1.89068552142977 3.175
vertex 0.284146394489116 42.9585602748454 3.175
endloop
endfacet
facet normal 0.0 0.0 1.0
outer loop
vertex 0.284146394489116 42.9585602748454 3.175
vertex 0.115806564289313 1.89068552142977 3.175
vertex 0.284146394489117 1.4914397251546 3.175
endloop
endfacet
facet normal 0.0 0.0 1.0
outer loop
vertex 0.284146394489116 42.9585602748454 3.175
vertex 0.284146394489117 1.4914397251546 3.175
vertex 0.511937564648578 43.3271341305005 3.175
endloop
endfacet
facet normal 0.0 0.0 1.0
outer loop
vertex 0.511937564648578 43.3271341305005 3.175
vertex 0.284146394489117 1.4914397251546 3.175
vertex 0.511937564648578 1.12286586949948 3.175
endloop
endfacet
facet normal 0.0 0.0 1.0
outer loop
vertex 0.511937564648578 43.3271341305005 3.175
vertex 0.511937564648578 1.12286586949948 3.175
vertex 0.79375 43.65625 3.175
endloop
endfacet
facet normal 0.0 0.0 1.0
outer loop
vertex 0.79375 43.65625 3.175
vertex 0.511937564648578 1.12286586949948 3.175
vertex 0.79375 0.79375 3.175
endloop
endfacet
facet normal 0.0 0.0 1.0
outer loop
vertex 0.79375 43.65625 3.175
vertex 0.79375 0.79375 3.175
vertex 1.12286586949948 43.9380624353514 3.175
endloop
endfacet
facet normal 0.0 0.0 1.0
outer loop
vertex 1.12286586949948 43.9380624353514 3.175
vertex 0.79375 0.79375 3.175
vertex 1.12286586949948 0.511937564648578 3.175
endloop
endfacet
facet normal 0.0 0.0 1.0
outer loop
vertex 1.12286586949948 43.9380624353514 3.175
vertex 1.12286586949948 0.511937564648578 3.175
vertex 1.4914397251546 44.1658536055109 3.175
endloop
endfacet
facet normal 0.0 0.0 1.0
outer loop
vertex 1.4914397251546 44.1658536055109 3.175
vertex 1.12286586949948 0.511937564648578 3.175
vertex 1.4914397251546 0.284146394489117 3.175
endloop
endfacet
facet normal 0.0 0.0 1.0
outer loop
vertex 1.4914397251546 44.1658536055109 3.175
vertex 1.4914397251546 0.284146394489117 3.175
vertex 1.89068552142977 44.3341934357107 3.175
endloop
endfacet
facet normal 0.0 0.0 1.0
outer loop
vertex 1.89068552142977 44.3341934357107 3.175
vertex 1.4914397251546 0.284146394489117 3.175
vertex 1.89068552142977 0.115806564289313 3.175
endloop
endfacet
facet normal 0.0 0.0 1.0
outer loop
vertex 1.89068552142977 44.3341934357107 3.175
vertex 1.89068552142977 0.115806564289313 3.175
vertex 2.31108605656979 44.4390690493159 3.175
endloop
endfacet
facet normal 0.0 0.0 1.0
outer loop
vertex 2.31108605656979 44.4390690493159 3.175
vertex 1.89068552142977 0.115806564289313 3.175
vertex 2.31108605656979 0.0109309506840518 3.175
endloop
endfacet
facet normal 0.0 0.0 1.0
outer loop
vertex 2.31108605656979 44.4390690493159 3.175
vertex 2.31108605656979 0.0109309506840518 3.175
vertex 2.43231215730266 44.45 3.175
endloop
endfacet
facet normal 0.0 0.0 1.0
outer loop
vertex 2.43231215730266 44.45 3.175
vertex 2.31108605656979 0.0109309506840518 3.175
vertex 2.43231215730267 0.0 3.175
endloop
endfacet
facet normal 0.0 0.0 1.0
outer loop
vertex 2.43231215730266 44.45 3.175
vertex 2.43231215730267 0.0 3.175
vertex 3.175 44.45 3.175
endloop
endfacet
facet normal 0.0 0.0 1.0
outer loop
vertex 3.175 44.45 3.175
vertex 2.43231215730267 0.0 3.175
vertex 3.175 -7.04991620636974e-016 3.175
endloop
endfacet
facet normal 0.0 0.0 1.0
outer loop
vertex 3.175 44.45 3.175
vertex 3.175 -7.04991620636974e-016 3.175
vertex 3.175 41.275 3.175
endloop
endfacet
facet normal 0.0 0.0 1.0
outer loop
vertex 3.175 44.45 3.175
vertex 3.175 41.275 3.175
vertex 73.025 44.45 3.175
endloop
endfacet
facet normal 0.0 0.0 1.0
outer loop
vertex 3.175 41.275 3.175
vertex 3.175 -7.04991620636974e-016 3.175
vertex 3.175 3.175 3.175
endloop
endfacet
facet normal 0.0 0.0 1.0
outer loop
vertex 73.025 44.45 3.175
vertex 3.175 41.275 3.175
vertex 73.025 41.275 3.175
endloop
endfacet
facet normal 0.0 0.0 1.0
outer loop
vertex 3.175 -7.04991620636974e-016 3.175
vertex 2.43231215730267 0.0 3.175
vertex 2.74261984318956 -0.027980426581451 3.175
endloop
endfacet
facet normal 0.525731112119139 0.850650808352037 0.0
outer loop
vertex 74.7085602748454 44.1658536055109 3.175
vertex 75.0771341305005 43.9380624353514 0.0
vertex 74.7085602748454 44.1658536055109 0.0
endloop
endfacet
facet normal 0.525731112119139 0.850650808352037 0.0
outer loop
vertex 75.0771341305005 43.9380624353514 0.0
vertex 74.7085602748454 44.1658536055109 3.175
vertex 75.0771341305005 43.9380624353514 3.175
endloop
endfacet
facet normal 0.388520266535945 0.921440178465666 0.0
outer loop
vertex 74.3093144785702 44.3341934357107 3.175
vertex 74.7085602748454 44.1658536055109 0.0
vertex 74.3093144785702 44.3341934357107 0.0
endloop
endfacet
facet normal 0.388520266535945 0.921440178465666 0.0
outer loop
vertex 74.7085602748454 44.1658536055109 0.0
vertex 74.3093144785702 44.3341934357107 3.175
vertex 74.7085602748454 44.1658536055109 3.175
endloop
endfacet
facet normal 0.242047893850638 0.970264302694101 0.0
outer loop
vertex 73.8889139434302 44.4390690493159 3.175
vertex 74.3093144785702 44.3341934357107 0.0
vertex 73.8889139434302 44.4390690493159 0.0
endloop
endfacet
facet normal 0.242047893850638 0.970264302694101 0.0
outer loop
vertex 74.3093144785702 44.3341934357107 0.0
vertex 73.8889139434302 44.4390690493159 3.175
vertex 74.3093144785702 44.3341934357107 3.175
endloop
endfacet
facet normal -0.759583665894039 0.650409605177363 0.0
outer loop
vertex 0.79375 43.65625 3.175
vertex 0.511937564648578 43.3271341305005 0.0
vertex 0.511937564648578 43.3271341305005 3.175
endloop
endfacet
facet normal -0.759583665894039 0.650409605177363 0.0
outer loop
vertex 0.511937564648578 43.3271341305005 0.0
vertex 0.79375 43.65625 3.175
vertex 0.79375 43.65625 0.0
endloop
endfacet
facet normal 0.9702643026941 0.242047893850644 0.0
outer loop
vertex 76.0841934357107 42.5593144785702 0.0
vertex 76.1890690493159 42.1389139434302 3.175
vertex 76.1890690493159 42.1389139434302 0.0
endloop
endfacet
facet normal 0.9702643026941 0.242047893850644 0.0
outer loop
vertex 76.1890690493159 42.1389139434302 3.175
vertex 76.0841934357107 42.5593144785702 0.0
vertex 76.0841934357107 42.5593144785702 3.175
endloop
endfacet
facet normal 0.921440178465668 0.38852026653594 0.0
outer loop
vertex 75.9158536055109 42.9585602748454 0.0
vertex 76.0841934357107 42.5593144785702 3.175
vertex 76.0841934357107 42.5593144785702 0.0
endloop
endfacet
facet normal 0.921440178465668 0.38852026653594 0.0
outer loop
vertex 76.0841934357107 42.5593144785702 3.175
vertex 75.9158536055109 42.9585602748454 0.0
vertex 75.9158536055109 42.9585602748454 3.175
endloop
endfacet
facet normal 0.850650808352037 0.525731112119139 0.0
outer loop
vertex 75.6880624353514 43.3271341305005 0.0
vertex 75.9158536055109 42.9585602748454 3.175
vertex 75.9158536055109 42.9585602748454 0.0
endloop
endfacet
facet normal 0.850650808352037 0.525731112119139 0.0
outer loop
vertex 75.9158536055109 42.9585602748454 3.175
vertex 75.6880624353514 43.3271341305005 0.0
vertex 75.6880624353514 43.3271341305005 3.175
endloop
endfacet
facet normal 0.759583665894036 0.650409605177366 0.0
outer loop
vertex 75.40625 43.65625 0.0
vertex 75.6880624353514 43.3271341305005 3.175
vertex 75.6880624353514 43.3271341305005 0.0
endloop
endfacet
facet normal 0.759583665894036 0.650409605177366 0.0
outer loop
vertex 75.6880624353514 43.3271341305005 3.175
vertex 75.40625 43.65625 0.0
vertex 75.40625 43.65625 3.175
endloop
endfacet
facet normal 0.0 0.0 1.0
outer loop
vertex -2.20309881449054e-017 2.43231215730267 3.175
vertex -3.52495810318487e-016 3.175 3.175
vertex -0.027980426581451 2.74261984318956 3.175
endloop
endfacet
facet normal -0.850650808352041 0.525731112119132 0.0
outer loop
vertex 0.511937564648578 43.3271341305005 3.175
vertex 0.284146394489116 42.9585602748454 0.0
vertex 0.284146394489116 42.9585602748454 3.175
endloop
endfacet
facet normal -0.850650808352041 0.525731112119132 0.0
outer loop
vertex 0.284146394489116 42.9585602748454 0.0
vertex 0.511937564648578 43.3271341305005 3.175
vertex 0.511937564648578 43.3271341305005 0.0
endloop
endfacet
facet normal -0.921440178465665 0.388520266535948 0.0
outer loop
vertex 0.284146394489116 42.9585602748454 3.175
vertex 0.115806564289312 42.5593144785702 0.0
vertex 0.115806564289312 42.5593144785702 3.175
endloop
endfacet
facet normal -0.921440178465665 0.388520266535948 0.0
outer loop
vertex 0.115806564289312 42.5593144785702 0.0
vertex 0.284146394489116 42.9585602748454 3.175
vertex 0.284146394489116 42.9585602748454 0.0
endloop
endfacet
facet normal -0.9702643026941 0.242047893850642 0.0
outer loop
vertex 0.115806564289312 42.5593144785702 3.175
vertex 0.0109309506840515 42.1389139434302 0.0
vertex 0.0109309506840515 42.1389139434302 3.175
endloop
endfacet
facet normal -0.9702643026941 0.242047893850642 0.0
outer loop
vertex 0.0109309506840515 42.1389139434302 0.0
vertex 0.115806564289312 42.5593144785702 3.175
vertex 0.115806564289312 42.5593144785702 0.0
endloop
endfacet
facet normal 0.0 0.0 1.0
outer loop
vertex 0.0 42.0176878426973 3.175
vertex -0.0279804265814513 41.7073801568104 3.175
vertex -3.52495810318487e-016 41.275 3.175
endloop
endfacet
facet normal -0.242047893850643 0.9702643026941 0.0
outer loop
vertex 1.89068552142977 44.3341934357107 3.175
vertex 2.31108605656979 44.4390690493159 0.0
vertex 1.89068552142977 44.3341934357107 0.0
endloop
endfacet
facet normal -0.242047893850643 0.9702643026941 0.0
outer loop
vertex 2.31108605656979 44.4390690493159 0.0
vertex 1.89068552142977 44.3341934357107 3.175
vertex 2.31108605656979 44.4390690493159 3.175
endloop
endfacet
facet normal -0.388520266535944 0.921440178465667 0.0
outer loop
vertex 1.4914397251546 44.1658536055109 3.175
vertex 1.89068552142977 44.3341934357107 0.0
vertex 1.4914397251546 44.1658536055109 0.0
endloop
endfacet
facet normal -0.388520266535944 0.921440178465667 0.0
outer loop
vertex 1.89068552142977 44.3341934357107 0.0
vertex 1.4914397251546 44.1658536055109 3.175
vertex 1.89068552142977 44.3341934357107 3.175
endloop
endfacet
facet normal -0.525731112119136 0.850650808352039 0.0
outer loop
vertex 1.12286586949948 43.9380624353514 3.175
vertex 1.4914397251546 44.1658536055109 0.0
vertex 1.12286586949948 43.9380624353514 0.0
endloop
endfacet
facet normal -0.525731112119136 0.850650808352039 0.0
outer loop
vertex 1.4914397251546 44.1658536055109 0.0
vertex 1.12286586949948 43.9380624353514 3.175
vertex 1.4914397251546 44.1658536055109 3.175
endloop
endfacet
facet normal -0.650409605177366 0.759583665894036 0.0
outer loop
vertex 0.79375 43.65625 3.175
vertex 1.12286586949948 43.9380624353514 0.0
vertex 0.79375 43.65625 0.0
endloop
endfacet
facet normal -0.650409605177366 0.759583665894036 0.0
outer loop
vertex 1.12286586949948 43.9380624353514 0.0
vertex 0.79375 43.65625 3.175
vertex 1.12286586949948 43.9380624353514 3.175
endloop
endfacet
facet normal -0.525731112119133 -0.85065080835204 -0.0
outer loop
vertex 1.4914397251546 0.284146394489117 3.175
vertex 1.12286586949948 0.511937564648578 0.0
vertex 1.4914397251546 0.284146394489117 0.0
endloop
endfacet
facet normal -0.525731112119133 -0.85065080835204 -0.0
outer loop
vertex 1.12286586949948 0.511937564648578 0.0
vertex 1.4914397251546 0.284146394489117 3.175
vertex 1.12286586949948 0.511937564648578 3.175
endloop
endfacet
facet normal -0.388520266535948 -0.921440178465665 -0.0
outer loop
vertex 1.89068552142977 0.115806564289313 3.175
vertex 1.4914397251546 0.284146394489117 0.0
vertex 1.89068552142977 0.115806564289313 0.0
endloop
endfacet
facet normal -0.388520266535948 -0.921440178465665 -0.0
outer loop
vertex 1.4914397251546 0.284146394489117 0.0
vertex 1.89068552142977 0.115806564289313 3.175
vertex 1.4914397251546 0.284146394489117 3.175
endloop
endfacet
facet normal -0.24204789385064 -0.9702643026941 0.0
outer loop
vertex 2.31108605656979 0.0109309506840518 3.175
vertex 1.89068552142977 0.115806564289313 0.0
vertex 2.31108605656979 0.0109309506840518 0.0
endloop
endfacet
facet normal -0.24204789385064 -0.9702643026941 0.0
outer loop
vertex 1.89068552142977 0.115806564289313 0.0
vertex 2.31108605656979 0.0109309506840518 3.175
vertex 1.89068552142977 0.115806564289313 3.175
endloop
endfacet
facet normal 0.850650808352039 -0.525731112119136 0.0
outer loop
vertex 75.9158536055109 1.4914397251546 0.0
vertex 75.6880624353514 1.12286586949948 3.175
vertex 75.6880624353514 1.12286586949948 0.0
endloop
endfacet
facet normal 0.850650808352039 -0.525731112119136 0.0
outer loop
vertex 75.6880624353514 1.12286586949948 3.175
vertex 75.9158536055109 1.4914397251546 0.0
vertex 75.9158536055109 1.4914397251546 3.175
endloop
endfacet
facet normal -0.9702643026941 -0.24204789385064 0.0
outer loop
vertex 0.0109309506840518 2.31108605656979 3.175
vertex 0.115806564289313 1.89068552142977 0.0
vertex 0.115806564289313 1.89068552142977 3.175
endloop
endfacet
facet normal -0.9702643026941 -0.24204789385064 0.0
outer loop
vertex 0.115806564289313 1.89068552142977 0.0
vertex 0.0109309506840518 2.31108605656979 3.175
vertex 0.0109309506840518 2.31108605656979 0.0
endloop
endfacet
facet normal -0.921440178465665 -0.388520266535947 -0.0
outer loop
vertex 0.115806564289313 1.89068552142977 3.175
vertex 0.284146394489117 1.4914397251546 0.0
vertex 0.284146394489117 1.4914397251546 3.175
endloop
endfacet
facet normal -0.921440178465665 -0.388520266535947 -0.0
outer loop
vertex 0.284146394489117 1.4914397251546 0.0
vertex 0.115806564289313 1.89068552142977 3.175
vertex 0.115806564289313 1.89068552142977 0.0
endloop
endfacet
endsolid USB-GPS-lid
