M48
INCH,TZ
T1C0.025
T2C0.040
T3C0.125
%
G90
G05
T1
X057380Y-041510
X057510Y-039290
X058000Y-036000
X058130Y-038760
X059470Y-035610
X060200Y-043300
X061844Y-034052
X062125Y-035672
X062300Y-038900
X062650Y-036450
X062800Y-037600
X063056Y-035140
X063285Y-038130
X063450Y-040900
X063650Y-033300
X064470Y-034769
X064900Y-040900
X065010Y-037650
X065373Y-036001
X065600Y-042200
X066495Y-036660
X066500Y-037200
X066866Y-039249
X066900Y-041200
X067300Y-043350
X067550Y-042150
X068300Y-040200
X068575Y-034325
X068600Y-037300
X068640Y-037910
X069030Y-036915
X069750Y-042600
X070800Y-034500
X070910Y-037890
X072970Y-036670
X073224Y-040821
X073290Y-040230
T2
X065350Y-035170
X066000Y-033225
X066350Y-035170
X067000Y-033225
X070060Y-043770
X071060Y-043770
T3
X058500Y-034000
X058500Y-043500
X073250Y-034000
X073250Y-043500
T0
M30
