  0
SECTION
  2
HEADER
  9
$ANGBASE
  50
0.0
  9
$ANGDIR
  70
  1
  9
$MEASUREMENT
  70
0
  0
ENDSEC
  0
SECTION
  2
TABLES
  0
TABLE
  2
LTYPE
  70
1
  0
LTYPE
  2
CONTINUOUS
  70
0
  3
Solid line
  72
65
  73
0
  40
0.0
  0
ENDTAB
  0
TABLE
  2
STYLE
  70
4
  0
STYLE
  2
KICAD
  70
0
  40
0
  41
1
  42
1
  50
0
  71
0
  3
isocp.shx
  0
STYLE
  2
KICADB
  70
0
  40
0
  41
1
  42
1
  50
0
  71
0
  3
isocp.shx
  0
STYLE
  2
KICADI
  70
0
  40
0
  41
1
  42
1
  50
15
  71
0
  3
isocp.shx
  0
STYLE
  2
KICADBI
  70
0
  40
0
  41
1
  42
1
  50
15
  71
0
  3
isocp.shx
  0
ENDTAB
  0
TABLE
  2
LAYER
  70
30
  0
LAYER
  2
BLACK
  70
0
  62
7
  6
CONTINUOUS
  0
LAYER
  2
GRAY1
  70
0
  62
251
  6
CONTINUOUS
  0
LAYER
  2
GRAY2
  70
0
  62
8
  6
CONTINUOUS
  0
LAYER
  2
GRAY3
  70
0
  62
9
  6
CONTINUOUS
  0
LAYER
  2
WHITE
  70
0
  62
7
  6
CONTINUOUS
  0
LAYER
  2
LYELLOW
  70
0
  62
51
  6
CONTINUOUS
  0
LAYER
  2
BLUE1
  70
0
  62
178
  6
CONTINUOUS
  0
LAYER
  2
GREEN1
  70
0
  62
98
  6
CONTINUOUS
  0
LAYER
  2
CYAN1
  70
0
  62
138
  6
CONTINUOUS
  0
LAYER
  2
RED1
  70
0
  62
18
  6
CONTINUOUS
  0
LAYER
  2
MAGENTA1
  70
0
  62
228
  6
CONTINUOUS
  0
LAYER
  2
BROWN1
  70
0
  62
58
  6
CONTINUOUS
  0
LAYER
  2
BLUE2
  70
0
  62
5
  6
CONTINUOUS
  0
LAYER
  2
GREEN2
  70
0
  62
3
  6
CONTINUOUS
  0
LAYER
  2
CYAN2
  70
0
  62
4
  6
CONTINUOUS
  0
LAYER
  2
RED2
  70
0
  62
1
  6
CONTINUOUS
  0
LAYER
  2
MAGENTA2
  70
0
  62
6
  6
CONTINUOUS
  0
LAYER
  2
BROWN2
  70
0
  62
54
  6
CONTINUOUS
  0
LAYER
  2
BLUE3
  70
0
  62
171
  6
CONTINUOUS
  0
LAYER
  2
GREEN3
  70
0
  62
91
  6
CONTINUOUS
  0
LAYER
  2
CYAN3
  70
0
  62
131
  6
CONTINUOUS
  0
LAYER
  2
RED3
  70
0
  62
11
  6
CONTINUOUS
  0
LAYER
  2
MAGENTA3
  70
0
  62
221
  6
CONTINUOUS
  0
LAYER
  2
YELLOW3
  70
0
  62
2
  6
CONTINUOUS
  0
LAYER
  2
BLUE4
  70
0
  62
5
  6
CONTINUOUS
  0
LAYER
  2
GREEN4
  70
0
  62
3
  6
CONTINUOUS
  0
LAYER
  2
CYAN4
  70
0
  62
4
  6
CONTINUOUS
  0
LAYER
  2
RED4
  70
0
  62
1
  6
CONTINUOUS
  0
LAYER
  2
MAGENTA4
  70
0
  62
6
  6
CONTINUOUS
  0
LAYER
  2
YELLOW4
  70
0
  62
2
  6
CONTINUOUS
  0
ENDTAB
  0
ENDSEC
  0
SECTION
  2
ENTITIES
0
LINE
8
Black
10
10.05
20
-99
11
10.05
21
-16
0
LINE
8
Black
10
9.95
20
-99
11
9.95
21
-16
0
ARC
8
Black
10
10
20
-16
40
0.05
50
360
51
540
0
ARC
8
Black
10
10
20
-99
40
0.05
50
180
51
360
0
LINE
8
Black
10
16
20
-105.05
11
99
21
-105.05
0
LINE
8
Black
10
16
20
-104.95
11
99
21
-104.95
0
ARC
8
Black
10
99
20
-105
40
0.05
50
270
51
450
0
ARC
8
Black
10
16
20
-105
40
0.05
50
90
51
270
0
LINE
8
Black
10
105.05
20
-99
11
105.05
21
-16
0
LINE
8
Black
10
104.95
20
-99
11
104.95
21
-16
0
ARC
8
Black
10
105
20
-16
40
0.05
50
360
51
540
0
ARC
8
Black
10
105
20
-99
40
0.05
50
180
51
360
0
LINE
8
Black
10
16
20
-10.05
11
99
21
-10.05
0
LINE
8
Black
10
16
20
-9.95
11
99
21
-9.95
0
ARC
8
Black
10
99
20
-10
40
0.05
50
270
51
450
0
ARC
8
Black
10
16
20
-10
40
0.05
50
90
51
270
0
ARC
8
Black
10
16
20
-99
40
6
50
-180
51
-90
0
ARC
8
Black
10
99
20
-99
40
6
50
-90
51
-0
0
ARC
8
Black
10
99
20
-16
40
6
50
-0
51
90
0
ARC
8
Black
10
16
20
-16
40
6
50
90
51
180
0
LINE
8
Black
10
32.4
20
-87.5
11
33.4
21
-88.5
0
LINE
8
Black
10
33.4
20
-87.5
11
32.4
21
-88.5
0
LINE
8
Black
10
32.4
20
-90.04
11
33.4
21
-91.04
0
LINE
8
Black
10
33.4
20
-90.04
11
32.4
21
-91.04
0
LINE
8
Black
10
34.94
20
-87.5
11
35.94
21
-88.5
0
LINE
8
Black
10
35.94
20
-87.5
11
34.94
21
-88.5
0
LINE
8
Black
10
34.94
20
-90.04
11
35.94
21
-91.04
0
LINE
8
Black
10
35.94
20
-90.04
11
34.94
21
-91.04
0
LINE
8
Black
10
37.48
20
-87.5
11
38.48
21
-88.5
0
LINE
8
Black
10
38.48
20
-87.5
11
37.48
21
-88.5
0
LINE
8
Black
10
37.48
20
-90.04
11
38.48
21
-91.04
0
LINE
8
Black
10
38.48
20
-90.04
11
37.48
21
-91.04
0
LINE
8
Black
10
38.5
20
-23.96
11
39.5
21
-24.96
0
LINE
8
Black
10
39.5
20
-23.96
11
38.5
21
-24.96
0
LINE
8
Black
10
38.5
20
-26.5
11
39.5
21
-27.5
0
LINE
8
Black
10
39.5
20
-26.5
11
38.5
21
-27.5
0
LINE
8
Black
10
40.02
20
-87.5
11
41.02
21
-88.5
0
LINE
8
Black
10
41.02
20
-87.5
11
40.02
21
-88.5
0
LINE
8
Black
10
40.02
20
-90.04
11
41.02
21
-91.04
0
LINE
8
Black
10
41.02
20
-90.04
11
40.02
21
-91.04
0
LINE
8
Black
10
41.04
20
-23.96
11
42.04
21
-24.96
0
LINE
8
Black
10
42.04
20
-23.96
11
41.04
21
-24.96
0
LINE
8
Black
10
41.04
20
-26.5
11
42.04
21
-27.5
0
LINE
8
Black
10
42.04
20
-26.5
11
41.04
21
-27.5
0
LINE
8
Black
10
42.56
20
-87.5
11
43.56
21
-88.5
0
LINE
8
Black
10
43.56
20
-87.5
11
42.56
21
-88.5
0
LINE
8
Black
10
42.56
20
-90.04
11
43.56
21
-91.04
0
LINE
8
Black
10
43.56
20
-90.04
11
42.56
21
-91.04
0
LINE
8
Black
10
43.58
20
-23.96
11
44.58
21
-24.96
0
LINE
8
Black
10
44.58
20
-23.96
11
43.58
21
-24.96
0
LINE
8
Black
10
43.58
20
-26.5
11
44.58
21
-27.5
0
LINE
8
Black
10
44.58
20
-26.5
11
43.58
21
-27.5
0
LINE
8
Black
10
45.1
20
-87.5
11
46.1
21
-88.5
0
LINE
8
Black
10
46.1
20
-87.5
11
45.1
21
-88.5
0
LINE
8
Black
10
45.1
20
-90.04
11
46.1
21
-91.04
0
LINE
8
Black
10
46.1
20
-90.04
11
45.1
21
-91.04
0
LINE
8
Black
10
46.12
20
-23.96
11
47.12
21
-24.96
0
LINE
8
Black
10
47.12
20
-23.96
11
46.12
21
-24.96
0
LINE
8
Black
10
46.12
20
-26.5
11
47.12
21
-27.5
0
LINE
8
Black
10
47.12
20
-26.5
11
46.12
21
-27.5
0
LINE
8
Black
10
47.64
20
-87.5
11
48.64
21
-88.5
0
LINE
8
Black
10
48.64
20
-87.5
11
47.64
21
-88.5
0
LINE
8
Black
10
47.64
20
-90.04
11
48.64
21
-91.04
0
LINE
8
Black
10
48.64
20
-90.04
11
47.64
21
-91.04
0
LINE
8
Black
10
48.66
20
-23.96
11
49.66
21
-24.96
0
LINE
8
Black
10
49.66
20
-23.96
11
48.66
21
-24.96
0
LINE
8
Black
10
48.66
20
-26.5
11
49.66
21
-27.5
0
LINE
8
Black
10
49.66
20
-26.5
11
48.66
21
-27.5
0
LINE
8
Black
10
50.18
20
-87.5
11
51.18
21
-88.5
0
LINE
8
Black
10
51.18
20
-87.5
11
50.18
21
-88.5
0
LINE
8
Black
10
50.18
20
-90.04
11
51.18
21
-91.04
0
LINE
8
Black
10
51.18
20
-90.04
11
50.18
21
-91.04
0
LINE
8
Black
10
51.2
20
-23.96
11
52.2
21
-24.96
0
LINE
8
Black
10
52.2
20
-23.96
11
51.2
21
-24.96
0
LINE
8
Black
10
51.2
20
-26.5
11
52.2
21
-27.5
0
LINE
8
Black
10
52.2
20
-26.5
11
51.2
21
-27.5
0
LINE
8
Black
10
52.72
20
-87.5
11
53.72
21
-88.5
0
LINE
8
Black
10
53.72
20
-87.5
11
52.72
21
-88.5
0
LINE
8
Black
10
52.72
20
-90.04
11
53.72
21
-91.04
0
LINE
8
Black
10
53.72
20
-90.04
11
52.72
21
-91.04
0
LINE
8
Black
10
53.74
20
-23.96
11
54.74
21
-24.96
0
LINE
8
Black
10
54.74
20
-23.96
11
53.74
21
-24.96
0
LINE
8
Black
10
53.74
20
-26.5
11
54.74
21
-27.5
0
LINE
8
Black
10
54.74
20
-26.5
11
53.74
21
-27.5
0
LINE
8
Black
10
55.26
20
-87.5
11
56.26
21
-88.5
0
LINE
8
Black
10
56.26
20
-87.5
11
55.26
21
-88.5
0
LINE
8
Black
10
55.26
20
-90.04
11
56.26
21
-91.04
0
LINE
8
Black
10
56.26
20
-90.04
11
55.26
21
-91.04
0
LINE
8
Black
10
56.28
20
-23.96
11
57.28
21
-24.96
0
LINE
8
Black
10
57.28
20
-23.96
11
56.28
21
-24.96
0
LINE
8
Black
10
56.28
20
-26.5
11
57.28
21
-27.5
0
LINE
8
Black
10
57.28
20
-26.5
11
56.28
21
-27.5
0
LINE
8
Black
10
57.8
20
-87.5
11
58.8
21
-88.5
0
LINE
8
Black
10
58.8
20
-87.5
11
57.8
21
-88.5
0
LINE
8
Black
10
57.8
20
-90.04
11
58.8
21
-91.04
0
LINE
8
Black
10
58.8
20
-90.04
11
57.8
21
-91.04
0
LINE
8
Black
10
58.82
20
-23.96
11
59.82
21
-24.96
0
LINE
8
Black
10
59.82
20
-23.96
11
58.82
21
-24.96
0
LINE
8
Black
10
58.82
20
-26.5
11
59.82
21
-27.5
0
LINE
8
Black
10
59.82
20
-26.5
11
58.82
21
-27.5
0
LINE
8
Black
10
60.34
20
-87.5
11
61.34
21
-88.5
0
LINE
8
Black
10
61.34
20
-87.5
11
60.34
21
-88.5
0
LINE
8
Black
10
60.34
20
-90.04
11
61.34
21
-91.04
0
LINE
8
Black
10
61.34
20
-90.04
11
60.34
21
-91.04
0
LINE
8
Black
10
61.36
20
-23.96
11
62.36
21
-24.96
0
LINE
8
Black
10
62.36
20
-23.96
11
61.36
21
-24.96
0
LINE
8
Black
10
61.36
20
-26.5
11
62.36
21
-27.5
0
LINE
8
Black
10
62.36
20
-26.5
11
61.36
21
-27.5
0
LINE
8
Black
10
62.88
20
-87.5
11
63.88
21
-88.5
0
LINE
8
Black
10
63.88
20
-87.5
11
62.88
21
-88.5
0
LINE
8
Black
10
62.88
20
-90.04
11
63.88
21
-91.04
0
LINE
8
Black
10
63.88
20
-90.04
11
62.88
21
-91.04
0
LINE
8
Black
10
63.9
20
-23.96
11
64.9
21
-24.96
0
LINE
8
Black
10
64.9
20
-23.96
11
63.9
21
-24.96
0
LINE
8
Black
10
63.9
20
-26.5
11
64.9
21
-27.5
0
LINE
8
Black
10
64.9
20
-26.5
11
63.9
21
-27.5
0
LINE
8
Black
10
65.42
20
-87.5
11
66.42
21
-88.5
0
LINE
8
Black
10
66.42
20
-87.5
11
65.42
21
-88.5
0
LINE
8
Black
10
65.42
20
-90.04
11
66.42
21
-91.04
0
LINE
8
Black
10
66.42
20
-90.04
11
65.42
21
-91.04
0
LINE
8
Black
10
66.44
20
-23.96
11
67.44
21
-24.96
0
LINE
8
Black
10
67.44
20
-23.96
11
66.44
21
-24.96
0
LINE
8
Black
10
66.44
20
-26.5
11
67.44
21
-27.5
0
LINE
8
Black
10
67.44
20
-26.5
11
66.44
21
-27.5
0
LINE
8
Black
10
67.96
20
-87.5
11
68.96
21
-88.5
0
LINE
8
Black
10
68.96
20
-87.5
11
67.96
21
-88.5
0
LINE
8
Black
10
67.96
20
-90.04
11
68.96
21
-91.04
0
LINE
8
Black
10
68.96
20
-90.04
11
67.96
21
-91.04
0
LINE
8
Black
10
68.5
20
-38.5
11
69.5
21
-39.5
0
LINE
8
Black
10
69.5
20
-38.5
11
68.5
21
-39.5
0
LINE
8
Black
10
68.5
20
-41.04
11
69.5
21
-42.04
0
LINE
8
Black
10
69.5
20
-41.04
11
68.5
21
-42.04
0
LINE
8
Black
10
68.5
20
-43.58
11
69.5
21
-44.58
0
LINE
8
Black
10
69.5
20
-43.58
11
68.5
21
-44.58
0
LINE
8
Black
10
68.5
20
-46.12
11
69.5
21
-47.12
0
LINE
8
Black
10
69.5
20
-46.12
11
68.5
21
-47.12
0
LINE
8
Black
10
68.5
20
-48.66
11
69.5
21
-49.66
0
LINE
8
Black
10
69.5
20
-48.66
11
68.5
21
-49.66
0
LINE
8
Black
10
68.5
20
-51.2
11
69.5
21
-52.2
0
LINE
8
Black
10
69.5
20
-51.2
11
68.5
21
-52.2
0
LINE
8
Black
10
68.5
20
-53.74
11
69.5
21
-54.74
0
LINE
8
Black
10
69.5
20
-53.74
11
68.5
21
-54.74
0
LINE
8
Black
10
68.5
20
-56.28
11
69.5
21
-57.28
0
LINE
8
Black
10
69.5
20
-56.28
11
68.5
21
-57.28
0
LINE
8
Black
10
68.5
20
-58.82
11
69.5
21
-59.82
0
LINE
8
Black
10
69.5
20
-58.82
11
68.5
21
-59.82
0
LINE
8
Black
10
68.5
20
-61.36
11
69.5
21
-62.36
0
LINE
8
Black
10
69.5
20
-61.36
11
68.5
21
-62.36
0
LINE
8
Black
10
68.5
20
-63.9
11
69.5
21
-64.9
0
LINE
8
Black
10
69.5
20
-63.9
11
68.5
21
-64.9
0
LINE
8
Black
10
68.5
20
-66.44
11
69.5
21
-67.44
0
LINE
8
Black
10
69.5
20
-66.44
11
68.5
21
-67.44
0
LINE
8
Black
10
68.5
20
-68.98
11
69.5
21
-69.98
0
LINE
8
Black
10
69.5
20
-68.98
11
68.5
21
-69.98
0
LINE
8
Black
10
68.5
20
-71.52
11
69.5
21
-72.52
0
LINE
8
Black
10
69.5
20
-71.52
11
68.5
21
-72.52
0
LINE
8
Black
10
68.5
20
-74.06
11
69.5
21
-75.06
0
LINE
8
Black
10
69.5
20
-74.06
11
68.5
21
-75.06
0
LINE
8
Black
10
68.5
20
-76.6
11
69.5
21
-77.6
0
LINE
8
Black
10
69.5
20
-76.6
11
68.5
21
-77.6
0
LINE
8
Black
10
68.98
20
-23.96
11
69.98
21
-24.96
0
LINE
8
Black
10
69.98
20
-23.96
11
68.98
21
-24.96
0
LINE
8
Black
10
68.98
20
-26.5
11
69.98
21
-27.5
0
LINE
8
Black
10
69.98
20
-26.5
11
68.98
21
-27.5
0
LINE
8
Black
10
70.5
20
-87.5
11
71.5
21
-88.5
0
LINE
8
Black
10
71.5
20
-87.5
11
70.5
21
-88.5
0
LINE
8
Black
10
70.5
20
-90.04
11
71.5
21
-91.04
0
LINE
8
Black
10
71.5
20
-90.04
11
70.5
21
-91.04
0
LINE
8
Black
10
71.04
20
-38.5
11
72.04
21
-39.5
0
LINE
8
Black
10
72.04
20
-38.5
11
71.04
21
-39.5
0
LINE
8
Black
10
71.04
20
-41.04
11
72.04
21
-42.04
0
LINE
8
Black
10
72.04
20
-41.04
11
71.04
21
-42.04
0
LINE
8
Black
10
71.04
20
-43.58
11
72.04
21
-44.58
0
LINE
8
Black
10
72.04
20
-43.58
11
71.04
21
-44.58
0
LINE
8
Black
10
71.04
20
-46.12
11
72.04
21
-47.12
0
LINE
8
Black
10
72.04
20
-46.12
11
71.04
21
-47.12
0
LINE
8
Black
10
71.04
20
-48.66
11
72.04
21
-49.66
0
LINE
8
Black
10
72.04
20
-48.66
11
71.04
21
-49.66
0
LINE
8
Black
10
71.04
20
-51.2
11
72.04
21
-52.2
0
LINE
8
Black
10
72.04
20
-51.2
11
71.04
21
-52.2
0
LINE
8
Black
10
71.04
20
-53.74
11
72.04
21
-54.74
0
LINE
8
Black
10
72.04
20
-53.74
11
71.04
21
-54.74
0
LINE
8
Black
10
71.04
20
-56.28
11
72.04
21
-57.28
0
LINE
8
Black
10
72.04
20
-56.28
11
71.04
21
-57.28
0
LINE
8
Black
10
71.04
20
-58.82
11
72.04
21
-59.82
0
LINE
8
Black
10
72.04
20
-58.82
11
71.04
21
-59.82
0
LINE
8
Black
10
71.04
20
-61.36
11
72.04
21
-62.36
0
LINE
8
Black
10
72.04
20
-61.36
11
71.04
21
-62.36
0
LINE
8
Black
10
71.04
20
-63.9
11
72.04
21
-64.9
0
LINE
8
Black
10
72.04
20
-63.9
11
71.04
21
-64.9
0
LINE
8
Black
10
71.04
20
-66.44
11
72.04
21
-67.44
0
LINE
8
Black
10
72.04
20
-66.44
11
71.04
21
-67.44
0
LINE
8
Black
10
71.04
20
-68.98
11
72.04
21
-69.98
0
LINE
8
Black
10
72.04
20
-68.98
11
71.04
21
-69.98
0
LINE
8
Black
10
71.04
20
-71.52
11
72.04
21
-72.52
0
LINE
8
Black
10
72.04
20
-71.52
11
71.04
21
-72.52
0
LINE
8
Black
10
71.04
20
-74.06
11
72.04
21
-75.06
0
LINE
8
Black
10
72.04
20
-74.06
11
71.04
21
-75.06
0
LINE
8
Black
10
71.04
20
-76.6
11
72.04
21
-77.6
0
LINE
8
Black
10
72.04
20
-76.6
11
71.04
21
-77.6
0
LINE
8
Black
10
71.52
20
-23.96
11
72.52
21
-24.96
0
LINE
8
Black
10
72.52
20
-23.96
11
71.52
21
-24.96
0
LINE
8
Black
10
71.52
20
-26.5
11
72.52
21
-27.5
0
LINE
8
Black
10
72.52
20
-26.5
11
71.52
21
-27.5
0
LINE
8
Black
10
74.06
20
-23.96
11
75.06
21
-24.96
0
LINE
8
Black
10
75.06
20
-23.96
11
74.06
21
-24.96
0
LINE
8
Black
10
74.06
20
-26.5
11
75.06
21
-27.5
0
LINE
8
Black
10
75.06
20
-26.5
11
74.06
21
-27.5
0
LINE
8
Black
10
76.6
20
-23.96
11
77.6
21
-24.96
0
LINE
8
Black
10
77.6
20
-23.96
11
76.6
21
-24.96
0
LINE
8
Black
10
76.6
20
-26.5
11
77.6
21
-27.5
0
LINE
8
Black
10
77.6
20
-26.5
11
76.6
21
-27.5
0
CIRCLE
8
Black
10
99.06
20
-26.035
40
0.67945
0
CIRCLE
8
Black
10
99.06
20
-31.035
40
0.67945
0
LINE
8
Black
10
92.96
20
-43.18
11
92.96
21
-45.72
0
LINE
8
Black
10
91.69
20
-44.45
11
94.23
21
-44.45
0
LINE
8
Black
10
95.86
20
-38.58
11
95.86
21
-41.12
0
LINE
8
Black
10
94.59
20
-39.85
11
97.13
21
-39.85
0
LINE
8
Black
10
99.06
20
-43.18
11
99.06
21
-45.72
0
LINE
8
Black
10
97.79
20
-44.45
11
100.33
21
-44.45
0
LINE
8
Black
10
18.1225
20
-38.1225
11
18.1225
21
-35.8775
0
LINE
8
Black
10
18.1225
20
-35.8775
11
15.8775
21
-35.8775
0
LINE
8
Black
10
15.8775
20
-35.8775
11
15.8775
21
-38.1225
0
LINE
8
Black
10
15.8775
20
-38.1225
11
18.1225
21
-38.1225
0
LINE
8
Black
10
18.1225
20
-79.1225
11
18.1225
21
-76.8775
0
LINE
8
Black
10
18.1225
20
-76.8775
11
15.8775
21
-76.8775
0
LINE
8
Black
10
15.8775
20
-76.8775
11
15.8775
21
-79.1225
0
LINE
8
Black
10
15.8775
20
-79.1225
11
18.1225
21
-79.1225
0
LINE
8
Black
10
59.1225
20
-38.1225
11
59.1225
21
-35.8775
0
LINE
8
Black
10
59.1225
20
-35.8775
11
56.8775
21
-35.8775
0
LINE
8
Black
10
56.8775
20
-35.8775
11
56.8775
21
-38.1225
0
LINE
8
Black
10
56.8775
20
-38.1225
11
59.1225
21
-38.1225
0
LINE
8
Black
10
59.1225
20
-79.1225
11
59.1225
21
-76.8775
0
LINE
8
Black
10
59.1225
20
-76.8775
11
56.8775
21
-76.8775
0
LINE
8
Black
10
56.8775
20
-76.8775
11
56.8775
21
-79.1225
0
LINE
8
Black
10
56.8775
20
-79.1225
11
59.1225
21
-79.1225
0
LINE
8
Black
10
16
20
-17.9177
11
17.9177
21
-16
0
LINE
8
Black
10
17.9177
20
-16
11
16
21
-14.0823
0
LINE
8
Black
10
16
20
-14.0823
11
14.0823
21
-16
0
LINE
8
Black
10
14.0823
20
-16
11
16
21
-17.9177
0
LINE
8
Black
10
16
20
-100.918
11
17.9177
21
-99
0
LINE
8
Black
10
17.9177
20
-99
11
16
21
-97.0823
0
LINE
8
Black
10
16
20
-97.0823
11
14.0823
21
-99
0
LINE
8
Black
10
14.0823
20
-99
11
16
21
-100.918
0
LINE
8
Black
10
46
20
-17.9177
11
47.9177
21
-16
0
LINE
8
Black
10
47.9177
20
-16
11
46
21
-14.0823
0
LINE
8
Black
10
46
20
-14.0823
11
44.0823
21
-16
0
LINE
8
Black
10
44.0823
20
-16
11
46
21
-17.9177
0
LINE
8
Black
10
46
20
-100.918
11
47.9177
21
-99
0
LINE
8
Black
10
47.9177
20
-99
11
46
21
-97.0823
0
LINE
8
Black
10
46
20
-97.0823
11
44.0823
21
-99
0
LINE
8
Black
10
44.0823
20
-99
11
46
21
-100.918
0
LINE
8
Black
10
69
20
-17.9177
11
70.9177
21
-16
0
LINE
8
Black
10
70.9177
20
-16
11
69
21
-14.0823
0
LINE
8
Black
10
69
20
-14.0823
11
67.0823
21
-16
0
LINE
8
Black
10
67.0823
20
-16
11
69
21
-17.9177
0
LINE
8
Black
10
69
20
-100.918
11
70.9177
21
-99
0
LINE
8
Black
10
70.9177
20
-99
11
69
21
-97.0823
0
LINE
8
Black
10
69
20
-97.0823
11
67.0823
21
-99
0
LINE
8
Black
10
67.0823
20
-99
11
69
21
-100.918
0
LINE
8
Black
10
99
20
-17.9177
11
100.918
21
-16
0
LINE
8
Black
10
100.918
20
-16
11
99
21
-14.0823
0
LINE
8
Black
10
99
20
-14.0823
11
97.0823
21
-16
0
LINE
8
Black
10
97.0823
20
-16
11
99
21
-17.9177
0
LINE
8
Black
10
99
20
-100.918
11
100.918
21
-99
0
LINE
8
Black
10
100.918
20
-99
11
99
21
-97.0823
0
LINE
8
Black
10
99
20
-97.0823
11
97.0823
21
-99
0
LINE
8
Black
10
97.0823
20
-99
11
99
21
-100.918
0
LINE
8
Black
10
12.6643
20
-109.707
11
12.6643
21
-106.707
0
LINE
8
Black
10
12.6643
20
-106.707
11
13.3786
21
-106.707
0
LINE
8
Black
10
13.3786
20
-106.707
11
13.8071
21
-106.85
0
LINE
8
Black
10
13.8071
20
-106.85
11
14.0929
21
-107.136
0
LINE
8
Black
10
14.0929
20
-107.136
11
14.2357
21
-107.421
0
LINE
8
Black
10
14.2357
20
-107.421
11
14.3786
21
-107.993
0
LINE
8
Black
10
14.3786
20
-107.993
11
14.3786
21
-108.421
0
LINE
8
Black
10
14.3786
20
-108.421
11
14.2357
21
-108.993
0
LINE
8
Black
10
14.2357
20
-108.993
11
14.0929
21
-109.279
0
LINE
8
Black
10
14.0929
20
-109.279
11
13.8071
21
-109.564
0
LINE
8
Black
10
13.8071
20
-109.564
11
13.3786
21
-109.707
0
LINE
8
Black
10
13.3786
20
-109.707
11
12.6643
21
-109.707
0
LINE
8
Black
10
15.6643
20
-109.707
11
15.6643
21
-107.707
0
LINE
8
Black
10
15.6643
20
-108.279
11
15.8071
21
-107.993
0
LINE
8
Black
10
15.8071
20
-107.993
11
15.95
21
-107.85
0
LINE
8
Black
10
15.95
20
-107.85
11
16.2357
21
-107.707
0
LINE
8
Black
10
16.2357
20
-107.707
11
16.5214
21
-107.707
0
LINE
8
Black
10
17.5214
20
-109.707
11
17.5214
21
-107.707
0
LINE
8
Black
10
17.5214
20
-106.707
11
17.3786
21
-106.85
0
LINE
8
Black
10
17.3786
20
-106.85
11
17.5214
21
-106.993
0
LINE
8
Black
10
17.5214
20
-106.993
11
17.6643
21
-106.85
0
LINE
8
Black
10
17.6643
20
-106.85
11
17.5214
21
-106.707
0
LINE
8
Black
10
17.5214
20
-106.707
11
17.5214
21
-106.993
0
LINE
8
Black
10
19.3786
20
-109.707
11
19.0929
21
-109.564
0
LINE
8
Black
10
19.0929
20
-109.564
11
18.95
21
-109.279
0
LINE
8
Black
10
18.95
20
-109.279
11
18.95
21
-106.707
0
LINE
8
Black
10
20.95
20
-109.707
11
20.6643
21
-109.564
0
LINE
8
Black
10
20.6643
20
-109.564
11
20.5214
21
-109.279
0
LINE
8
Black
10
20.5214
20
-109.279
11
20.5214
21
-106.707
0
LINE
8
Black
10
24.3786
20
-109.707
11
24.3786
21
-106.707
0
LINE
8
Black
10
24.3786
20
-106.707
11
25.3786
21
-108.85
0
LINE
8
Black
10
25.3786
20
-108.85
11
26.3786
21
-106.707
0
LINE
8
Black
10
26.3786
20
-106.707
11
26.3786
21
-109.707
0
LINE
8
Black
10
29.0929
20
-109.707
11
29.0929
21
-108.136
0
LINE
8
Black
10
29.0929
20
-108.136
11
28.95
21
-107.85
0
LINE
8
Black
10
28.95
20
-107.85
11
28.6643
21
-107.707
0
LINE
8
Black
10
28.6643
20
-107.707
11
28.0929
21
-107.707
0
LINE
8
Black
10
28.0929
20
-107.707
11
27.8071
21
-107.85
0
LINE
8
Black
10
29.0929
20
-109.564
11
28.8071
21
-109.707
0
LINE
8
Black
10
28.8071
20
-109.707
11
28.0929
21
-109.707
0
LINE
8
Black
10
28.0929
20
-109.707
11
27.8071
21
-109.564
0
LINE
8
Black
10
27.8071
20
-109.564
11
27.6643
21
-109.279
0
LINE
8
Black
10
27.6643
20
-109.279
11
27.6643
21
-108.993
0
LINE
8
Black
10
27.6643
20
-108.993
11
27.8071
21
-108.707
0
LINE
8
Black
10
27.8071
20
-108.707
11
28.0929
21
-108.564
0
LINE
8
Black
10
28.0929
20
-108.564
11
28.8071
21
-108.564
0
LINE
8
Black
10
28.8071
20
-108.564
11
29.0929
21
-108.421
0
LINE
8
Black
10
30.5214
20
-107.707
11
30.5214
21
-110.707
0
LINE
8
Black
10
30.5214
20
-107.85
11
30.8071
21
-107.707
0
LINE
8
Black
10
30.8071
20
-107.707
11
31.3786
21
-107.707
0
LINE
8
Black
10
31.3786
20
-107.707
11
31.6643
21
-107.85
0
LINE
8
Black
10
31.6643
20
-107.85
11
31.8071
21
-107.993
0
LINE
8
Black
10
31.8071
20
-107.993
11
31.95
21
-108.279
0
LINE
8
Black
10
31.95
20
-108.279
11
31.95
21
-109.136
0
LINE
8
Black
10
31.95
20
-109.136
11
31.8071
21
-109.421
0
LINE
8
Black
10
31.8071
20
-109.421
11
31.6643
21
-109.564
0
LINE
8
Black
10
31.6643
20
-109.564
11
31.3786
21
-109.707
0
LINE
8
Black
10
31.3786
20
-109.707
11
30.8071
21
-109.707
0
LINE
8
Black
10
30.8071
20
-109.707
11
30.5214
21
-109.564
0
LINE
8
Black
10
33.2357
20
-109.421
11
33.3786
21
-109.564
0
LINE
8
Black
10
33.3786
20
-109.564
11
33.2357
21
-109.707
0
LINE
8
Black
10
33.2357
20
-109.707
11
33.0929
21
-109.564
0
LINE
8
Black
10
33.0929
20
-109.564
11
33.2357
21
-109.421
0
LINE
8
Black
10
33.2357
20
-109.421
11
33.2357
21
-109.707
0
LINE
8
Black
10
33.2357
20
-107.85
11
33.3786
21
-107.993
0
LINE
8
Black
10
33.3786
20
-107.993
11
33.2357
21
-108.136
0
LINE
8
Black
10
33.2357
20
-108.136
11
33.0929
21
-107.993
0
LINE
8
Black
10
33.0929
20
-107.993
11
33.2357
21
-107.85
0
LINE
8
Black
10
33.2357
20
-107.85
11
33.2357
21
-108.136
0
LINE
8
Black
10
8.95
20
-114.15
11
9.95
21
-115.15
0
LINE
8
Black
10
9.95
20
-114.15
11
8.95
21
-115.15
0
LINE
8
Black
10
14.2357
20
-116.007
11
12.5214
21
-116.007
0
LINE
8
Black
10
13.3786
20
-116.007
11
13.3786
21
-113.007
0
LINE
8
Black
10
13.3786
20
-113.007
11
13.0929
21
-113.436
0
LINE
8
Black
10
13.0929
20
-113.436
11
12.8071
21
-113.721
0
LINE
8
Black
10
12.8071
20
-113.721
11
12.5214
21
-113.864
0
LINE
8
Black
10
15.5214
20
-115.721
11
15.6643
21
-115.864
0
LINE
8
Black
10
15.6643
20
-115.864
11
15.5214
21
-116.007
0
LINE
8
Black
10
15.5214
20
-116.007
11
15.3786
21
-115.864
0
LINE
8
Black
10
15.3786
20
-115.864
11
15.5214
21
-115.721
0
LINE
8
Black
10
15.5214
20
-115.721
11
15.5214
21
-116.007
0
LINE
8
Black
10
17.5214
20
-113.007
11
17.8071
21
-113.007
0
LINE
8
Black
10
17.8071
20
-113.007
11
18.0929
21
-113.15
0
LINE
8
Black
10
18.0929
20
-113.15
11
18.2357
21
-113.293
0
LINE
8
Black
10
18.2357
20
-113.293
11
18.3786
21
-113.579
0
LINE
8
Black
10
18.3786
20
-113.579
11
18.5214
21
-114.15
0
LINE
8
Black
10
18.5214
20
-114.15
11
18.5214
21
-114.864
0
LINE
8
Black
10
18.5214
20
-114.864
11
18.3786
21
-115.436
0
LINE
8
Black
10
18.3786
20
-115.436
11
18.2357
21
-115.721
0
LINE
8
Black
10
18.2357
20
-115.721
11
18.0929
21
-115.864
0
LINE
8
Black
10
18.0929
20
-115.864
11
17.8071
21
-116.007
0
LINE
8
Black
10
17.8071
20
-116.007
11
17.5214
21
-116.007
0
LINE
8
Black
10
17.5214
20
-116.007
11
17.2357
21
-115.864
0
LINE
8
Black
10
17.2357
20
-115.864
11
17.0929
21
-115.721
0
LINE
8
Black
10
17.0929
20
-115.721
11
16.95
21
-115.436
0
LINE
8
Black
10
16.95
20
-115.436
11
16.8071
21
-114.864
0
LINE
8
Black
10
16.8071
20
-114.864
11
16.8071
21
-114.15
0
LINE
8
Black
10
16.8071
20
-114.15
11
16.95
21
-113.579
0
LINE
8
Black
10
16.95
20
-113.579
11
17.0929
21
-113.293
0
LINE
8
Black
10
17.0929
20
-113.293
11
17.2357
21
-113.15
0
LINE
8
Black
10
17.2357
20
-113.15
11
17.5214
21
-113.007
0
LINE
8
Black
10
20.3786
20
-113.007
11
20.6643
21
-113.007
0
LINE
8
Black
10
20.6643
20
-113.007
11
20.95
21
-113.15
0
LINE
8
Black
10
20.95
20
-113.15
11
21.0929
21
-113.293
0
LINE
8
Black
10
21.0929
20
-113.293
11
21.2357
21
-113.579
0
LINE
8
Black
10
21.2357
20
-113.579
11
21.3786
21
-114.15
0
LINE
8
Black
10
21.3786
20
-114.15
11
21.3786
21
-114.864
0
LINE
8
Black
10
21.3786
20
-114.864
11
21.2357
21
-115.436
0
LINE
8
Black
10
21.2357
20
-115.436
11
21.0929
21
-115.721
0
LINE
8
Black
10
21.0929
20
-115.721
11
20.95
21
-115.864
0
LINE
8
Black
10
20.95
20
-115.864
11
20.6643
21
-116.007
0
LINE
8
Black
10
20.6643
20
-116.007
11
20.3786
21
-116.007
0
LINE
8
Black
10
20.3786
20
-116.007
11
20.0929
21
-115.864
0
LINE
8
Black
10
20.0929
20
-115.864
11
19.95
21
-115.721
0
LINE
8
Black
10
19.95
20
-115.721
11
19.8071
21
-115.436
0
LINE
8
Black
10
19.8071
20
-115.436
11
19.6643
21
-114.864
0
LINE
8
Black
10
19.6643
20
-114.864
11
19.6643
21
-114.15
0
LINE
8
Black
10
19.6643
20
-114.15
11
19.8071
21
-113.579
0
LINE
8
Black
10
19.8071
20
-113.579
11
19.95
21
-113.293
0
LINE
8
Black
10
19.95
20
-113.293
11
20.0929
21
-113.15
0
LINE
8
Black
10
20.0929
20
-113.15
11
20.3786
21
-113.007
0
LINE
8
Black
10
22.6643
20
-116.007
11
22.6643
21
-114.007
0
LINE
8
Black
10
22.6643
20
-114.293
11
22.8071
21
-114.15
0
LINE
8
Black
10
22.8071
20
-114.15
11
23.0929
21
-114.007
0
LINE
8
Black
10
23.0929
20
-114.007
11
23.5214
21
-114.007
0
LINE
8
Black
10
23.5214
20
-114.007
11
23.8071
21
-114.15
0
LINE
8
Black
10
23.8071
20
-114.15
11
23.95
21
-114.436
0
LINE
8
Black
10
23.95
20
-114.436
11
23.95
21
-116.007
0
LINE
8
Black
10
23.95
20
-114.436
11
24.0929
21
-114.15
0
LINE
8
Black
10
24.0929
20
-114.15
11
24.3786
21
-114.007
0
LINE
8
Black
10
24.3786
20
-114.007
11
24.8071
21
-114.007
0
LINE
8
Black
10
24.8071
20
-114.007
11
25.0929
21
-114.15
0
LINE
8
Black
10
25.0929
20
-114.15
11
25.2357
21
-114.436
0
LINE
8
Black
10
25.2357
20
-114.436
11
25.2357
21
-116.007
0
LINE
8
Black
10
26.6643
20
-116.007
11
26.6643
21
-114.007
0
LINE
8
Black
10
26.6643
20
-114.293
11
26.8071
21
-114.15
0
LINE
8
Black
10
26.8071
20
-114.15
11
27.0929
21
-114.007
0
LINE
8
Black
10
27.0929
20
-114.007
11
27.5214
21
-114.007
0
LINE
8
Black
10
27.5214
20
-114.007
11
27.8071
21
-114.15
0
LINE
8
Black
10
27.8071
20
-114.15
11
27.95
21
-114.436
0
LINE
8
Black
10
27.95
20
-114.436
11
27.95
21
-116.007
0
LINE
8
Black
10
27.95
20
-114.436
11
28.0929
21
-114.15
0
LINE
8
Black
10
28.0929
20
-114.15
11
28.3786
21
-114.007
0
LINE
8
Black
10
28.3786
20
-114.007
11
28.8071
21
-114.007
0
LINE
8
Black
10
28.8071
20
-114.007
11
29.0929
21
-114.15
0
LINE
8
Black
10
29.0929
20
-114.15
11
29.2357
21
-114.436
0
LINE
8
Black
10
29.2357
20
-114.436
11
29.2357
21
-116.007
0
LINE
8
Black
10
35.0929
20
-112.864
11
32.5214
21
-116.721
0
LINE
8
Black
10
38.95
20
-113.007
11
39.2357
21
-113.007
0
LINE
8
Black
10
39.2357
20
-113.007
11
39.5214
21
-113.15
0
LINE
8
Black
10
39.5214
20
-113.15
11
39.6643
21
-113.293
0
LINE
8
Black
10
39.6643
20
-113.293
11
39.8071
21
-113.579
0
LINE
8
Black
10
39.8071
20
-113.579
11
39.95
21
-114.15
0
LINE
8
Black
10
39.95
20
-114.15
11
39.95
21
-114.864
0
LINE
8
Black
10
39.95
20
-114.864
11
39.8071
21
-115.436
0
LINE
8
Black
10
39.8071
20
-115.436
11
39.6643
21
-115.721
0
LINE
8
Black
10
39.6643
20
-115.721
11
39.5214
21
-115.864
0
LINE
8
Black
10
39.5214
20
-115.864
11
39.2357
21
-116.007
0
LINE
8
Black
10
39.2357
20
-116.007
11
38.95
21
-116.007
0
LINE
8
Black
10
38.95
20
-116.007
11
38.6643
21
-115.864
0
LINE
8
Black
10
38.6643
20
-115.864
11
38.5214
21
-115.721
0
LINE
8
Black
10
38.5214
20
-115.721
11
38.3786
21
-115.436
0
LINE
8
Black
10
38.3786
20
-115.436
11
38.2357
21
-114.864
0
LINE
8
Black
10
38.2357
20
-114.864
11
38.2357
21
-114.15
0
LINE
8
Black
10
38.2357
20
-114.15
11
38.3786
21
-113.579
0
LINE
8
Black
10
38.3786
20
-113.579
11
38.5214
21
-113.293
0
LINE
8
Black
10
38.5214
20
-113.293
11
38.6643
21
-113.15
0
LINE
8
Black
10
38.6643
20
-113.15
11
38.95
21
-113.007
0
LINE
8
Black
10
41.2357
20
-115.721
11
41.3786
21
-115.864
0
LINE
8
Black
10
41.3786
20
-115.864
11
41.2357
21
-116.007
0
LINE
8
Black
10
41.2357
20
-116.007
11
41.0929
21
-115.864
0
LINE
8
Black
10
41.0929
20
-115.864
11
41.2357
21
-115.721
0
LINE
8
Black
10
41.2357
20
-115.721
11
41.2357
21
-116.007
0
LINE
8
Black
10
43.2357
20
-113.007
11
43.5214
21
-113.007
0
LINE
8
Black
10
43.5214
20
-113.007
11
43.8071
21
-113.15
0
LINE
8
Black
10
43.8071
20
-113.15
11
43.95
21
-113.293
0
LINE
8
Black
10
43.95
20
-113.293
11
44.0929
21
-113.579
0
LINE
8
Black
10
44.0929
20
-113.579
11
44.2357
21
-114.15
0
LINE
8
Black
10
44.2357
20
-114.15
11
44.2357
21
-114.864
0
LINE
8
Black
10
44.2357
20
-114.864
11
44.0929
21
-115.436
0
LINE
8
Black
10
44.0929
20
-115.436
11
43.95
21
-115.721
0
LINE
8
Black
10
43.95
20
-115.721
11
43.8071
21
-115.864
0
LINE
8
Black
10
43.8071
20
-115.864
11
43.5214
21
-116.007
0
LINE
8
Black
10
43.5214
20
-116.007
11
43.2357
21
-116.007
0
LINE
8
Black
10
43.2357
20
-116.007
11
42.95
21
-115.864
0
LINE
8
Black
10
42.95
20
-115.864
11
42.8071
21
-115.721
0
LINE
8
Black
10
42.8071
20
-115.721
11
42.6643
21
-115.436
0
LINE
8
Black
10
42.6643
20
-115.436
11
42.5214
21
-114.864
0
LINE
8
Black
10
42.5214
20
-114.864
11
42.5214
21
-114.15
0
LINE
8
Black
10
42.5214
20
-114.15
11
42.6643
21
-113.579
0
LINE
8
Black
10
42.6643
20
-113.579
11
42.8071
21
-113.293
0
LINE
8
Black
10
42.8071
20
-113.293
11
42.95
21
-113.15
0
LINE
8
Black
10
42.95
20
-113.15
11
43.2357
21
-113.007
0
LINE
8
Black
10
45.2357
20
-113.007
11
47.0929
21
-113.007
0
LINE
8
Black
10
47.0929
20
-113.007
11
46.0929
21
-114.15
0
LINE
8
Black
10
46.0929
20
-114.15
11
46.5214
21
-114.15
0
LINE
8
Black
10
46.5214
20
-114.15
11
46.8071
21
-114.293
0
LINE
8
Black
10
46.8071
20
-114.293
11
46.95
21
-114.436
0
LINE
8
Black
10
46.95
20
-114.436
11
47.0929
21
-114.721
0
LINE
8
Black
10
47.0929
20
-114.721
11
47.0929
21
-115.436
0
LINE
8
Black
10
47.0929
20
-115.436
11
46.95
21
-115.721
0
LINE
8
Black
10
46.95
20
-115.721
11
46.8071
21
-115.864
0
LINE
8
Black
10
46.8071
20
-115.864
11
46.5214
21
-116.007
0
LINE
8
Black
10
46.5214
20
-116.007
11
45.6643
21
-116.007
0
LINE
8
Black
10
45.6643
20
-116.007
11
45.3786
21
-115.864
0
LINE
8
Black
10
45.3786
20
-115.864
11
45.2357
21
-115.721
0
LINE
8
Black
10
48.5214
20
-116.007
11
49.0929
21
-116.007
0
LINE
8
Black
10
49.0929
20
-116.007
11
49.3786
21
-115.864
0
LINE
8
Black
10
49.3786
20
-115.864
11
49.5214
21
-115.721
0
LINE
8
Black
10
49.5214
20
-115.721
11
49.8071
21
-115.293
0
LINE
8
Black
10
49.8071
20
-115.293
11
49.95
21
-114.721
0
LINE
8
Black
10
49.95
20
-114.721
11
49.95
21
-113.579
0
LINE
8
Black
10
49.95
20
-113.579
11
49.8071
21
-113.293
0
LINE
8
Black
10
49.8071
20
-113.293
11
49.6643
21
-113.15
0
LINE
8
Black
10
49.6643
20
-113.15
11
49.3786
21
-113.007
0
LINE
8
Black
10
49.3786
20
-113.007
11
48.8071
21
-113.007
0
LINE
8
Black
10
48.8071
20
-113.007
11
48.5214
21
-113.15
0
LINE
8
Black
10
48.5214
20
-113.15
11
48.3786
21
-113.293
0
LINE
8
Black
10
48.3786
20
-113.293
11
48.2357
21
-113.579
0
LINE
8
Black
10
48.2357
20
-113.579
11
48.2357
21
-114.293
0
LINE
8
Black
10
48.2357
20
-114.293
11
48.3786
21
-114.579
0
LINE
8
Black
10
48.3786
20
-114.579
11
48.5214
21
-114.721
0
LINE
8
Black
10
48.5214
20
-114.721
11
48.8071
21
-114.864
0
LINE
8
Black
10
48.8071
20
-114.864
11
49.3786
21
-114.864
0
LINE
8
Black
10
49.3786
20
-114.864
11
49.6643
21
-114.721
0
LINE
8
Black
10
49.6643
20
-114.721
11
49.8071
21
-114.579
0
LINE
8
Black
10
49.8071
20
-114.579
11
49.95
21
-114.293
0
LINE
8
Black
10
51.0929
20
-113.007
11
51.0929
21
-113.579
0
LINE
8
Black
10
52.2357
20
-113.007
11
52.2357
21
-113.579
0
LINE
8
Black
10
56.6643
20
-117.15
11
56.5214
21
-117.007
0
LINE
8
Black
10
56.5214
20
-117.007
11
56.2357
21
-116.579
0
LINE
8
Black
10
56.2357
20
-116.579
11
56.0929
21
-116.293
0
LINE
8
Black
10
56.0929
20
-116.293
11
55.95
21
-115.864
0
LINE
8
Black
10
55.95
20
-115.864
11
55.8071
21
-115.15
0
LINE
8
Black
10
55.8071
20
-115.15
11
55.8071
21
-114.579
0
LINE
8
Black
10
55.8071
20
-114.579
11
55.95
21
-113.864
0
LINE
8
Black
10
55.95
20
-113.864
11
56.0929
21
-113.436
0
LINE
8
Black
10
56.0929
20
-113.436
11
56.2357
21
-113.15
0
LINE
8
Black
10
56.2357
20
-113.15
11
56.5214
21
-112.721
0
LINE
8
Black
10
56.5214
20
-112.721
11
56.6643
21
-112.579
0
LINE
8
Black
10
57.95
20
-116.007
11
58.5214
21
-116.007
0
LINE
8
Black
10
58.5214
20
-116.007
11
58.8071
21
-115.864
0
LINE
8
Black
10
58.8071
20
-115.864
11
58.95
21
-115.721
0
LINE
8
Black
10
58.95
20
-115.721
11
59.2357
21
-115.293
0
LINE
8
Black
10
59.2357
20
-115.293
11
59.3786
21
-114.721
0
LINE
8
Black
10
59.3786
20
-114.721
11
59.3786
21
-113.579
0
LINE
8
Black
10
59.3786
20
-113.579
11
59.2357
21
-113.293
0
LINE
8
Black
10
59.2357
20
-113.293
11
59.0929
21
-113.15
0
LINE
8
Black
10
59.0929
20
-113.15
11
58.8071
21
-113.007
0
LINE
8
Black
10
58.8071
20
-113.007
11
58.2357
21
-113.007
0
LINE
8
Black
10
58.2357
20
-113.007
11
57.95
21
-113.15
0
LINE
8
Black
10
57.95
20
-113.15
11
57.8071
21
-113.293
0
LINE
8
Black
10
57.8071
20
-113.293
11
57.6643
21
-113.579
0
LINE
8
Black
10
57.6643
20
-113.579
11
57.6643
21
-114.293
0
LINE
8
Black
10
57.6643
20
-114.293
11
57.8071
21
-114.579
0
LINE
8
Black
10
57.8071
20
-114.579
11
57.95
21
-114.721
0
LINE
8
Black
10
57.95
20
-114.721
11
58.2357
21
-114.864
0
LINE
8
Black
10
58.2357
20
-114.864
11
58.8071
21
-114.864
0
LINE
8
Black
10
58.8071
20
-114.864
11
59.0929
21
-114.721
0
LINE
8
Black
10
59.0929
20
-114.721
11
59.2357
21
-114.579
0
LINE
8
Black
10
59.2357
20
-114.579
11
59.3786
21
-114.293
0
LINE
8
Black
10
61.95
20
-113.007
11
61.3786
21
-113.007
0
LINE
8
Black
10
61.3786
20
-113.007
11
61.0929
21
-113.15
0
LINE
8
Black
10
61.0929
20
-113.15
11
60.95
21
-113.293
0
LINE
8
Black
10
60.95
20
-113.293
11
60.6643
21
-113.721
0
LINE
8
Black
10
60.6643
20
-113.721
11
60.5214
21
-114.293
0
LINE
8
Black
10
60.5214
20
-114.293
11
60.5214
21
-115.436
0
LINE
8
Black
10
60.5214
20
-115.436
11
60.6643
21
-115.721
0
LINE
8
Black
10
60.6643
20
-115.721
11
60.8071
21
-115.864
0
LINE
8
Black
10
60.8071
20
-115.864
11
61.0929
21
-116.007
0
LINE
8
Black
10
61.0929
20
-116.007
11
61.6643
21
-116.007
0
LINE
8
Black
10
61.6643
20
-116.007
11
61.95
21
-115.864
0
LINE
8
Black
10
61.95
20
-115.864
11
62.0929
21
-115.721
0
LINE
8
Black
10
62.0929
20
-115.721
11
62.2357
21
-115.436
0
LINE
8
Black
10
62.2357
20
-115.436
11
62.2357
21
-114.721
0
LINE
8
Black
10
62.2357
20
-114.721
11
62.0929
21
-114.436
0
LINE
8
Black
10
62.0929
20
-114.436
11
61.95
21
-114.293
0
LINE
8
Black
10
61.95
20
-114.293
11
61.6643
21
-114.15
0
LINE
8
Black
10
61.6643
20
-114.15
11
61.0929
21
-114.15
0
LINE
8
Black
10
61.0929
20
-114.15
11
60.8071
21
-114.293
0
LINE
8
Black
10
60.8071
20
-114.293
11
60.6643
21
-114.436
0
LINE
8
Black
10
60.6643
20
-114.436
11
60.5214
21
-114.721
0
LINE
8
Black
10
65.8071
20
-116.007
11
65.8071
21
-113.007
0
LINE
8
Black
10
67.0929
20
-116.007
11
67.0929
21
-114.436
0
LINE
8
Black
10
67.0929
20
-114.436
11
66.95
21
-114.15
0
LINE
8
Black
10
66.95
20
-114.15
11
66.6643
21
-114.007
0
LINE
8
Black
10
66.6643
20
-114.007
11
66.2357
21
-114.007
0
LINE
8
Black
10
66.2357
20
-114.007
11
65.95
21
-114.15
0
LINE
8
Black
10
65.95
20
-114.15
11
65.8071
21
-114.293
0
LINE
8
Black
10
68.95
20
-116.007
11
68.6643
21
-115.864
0
LINE
8
Black
10
68.6643
20
-115.864
11
68.5214
21
-115.721
0
LINE
8
Black
10
68.5214
20
-115.721
11
68.3786
21
-115.436
0
LINE
8
Black
10
68.3786
20
-115.436
11
68.3786
21
-114.579
0
LINE
8
Black
10
68.3786
20
-114.579
11
68.5214
21
-114.293
0
LINE
8
Black
10
68.5214
20
-114.293
11
68.6643
21
-114.15
0
LINE
8
Black
10
68.6643
20
-114.15
11
68.95
21
-114.007
0
LINE
8
Black
10
68.95
20
-114.007
11
69.3786
21
-114.007
0
LINE
8
Black
10
69.3786
20
-114.007
11
69.6643
21
-114.15
0
LINE
8
Black
10
69.6643
20
-114.15
11
69.8071
21
-114.293
0
LINE
8
Black
10
69.8071
20
-114.293
11
69.95
21
-114.579
0
LINE
8
Black
10
69.95
20
-114.579
11
69.95
21
-115.436
0
LINE
8
Black
10
69.95
20
-115.436
11
69.8071
21
-115.721
0
LINE
8
Black
10
69.8071
20
-115.721
11
69.6643
21
-115.864
0
LINE
8
Black
10
69.6643
20
-115.864
11
69.3786
21
-116.007
0
LINE
8
Black
10
69.3786
20
-116.007
11
68.95
21
-116.007
0
LINE
8
Black
10
71.6643
20
-116.007
11
71.3786
21
-115.864
0
LINE
8
Black
10
71.3786
20
-115.864
11
71.2357
21
-115.579
0
LINE
8
Black
10
71.2357
20
-115.579
11
71.2357
21
-113.007
0
LINE
8
Black
10
73.95
20
-115.864
11
73.6643
21
-116.007
0
LINE
8
Black
10
73.6643
20
-116.007
11
73.0929
21
-116.007
0
LINE
8
Black
10
73.0929
20
-116.007
11
72.8071
21
-115.864
0
LINE
8
Black
10
72.8071
20
-115.864
11
72.6643
21
-115.579
0
LINE
8
Black
10
72.6643
20
-115.579
11
72.6643
21
-114.436
0
LINE
8
Black
10
72.6643
20
-114.436
11
72.8071
21
-114.15
0
LINE
8
Black
10
72.8071
20
-114.15
11
73.0929
21
-114.007
0
LINE
8
Black
10
73.0929
20
-114.007
11
73.6643
21
-114.007
0
LINE
8
Black
10
73.6643
20
-114.007
11
73.95
21
-114.15
0
LINE
8
Black
10
73.95
20
-114.15
11
74.0929
21
-114.436
0
LINE
8
Black
10
74.0929
20
-114.436
11
74.0929
21
-114.721
0
LINE
8
Black
10
74.0929
20
-114.721
11
72.6643
21
-115.007
0
LINE
8
Black
10
75.2357
20
-115.864
11
75.5214
21
-116.007
0
LINE
8
Black
10
75.5214
20
-116.007
11
76.0929
21
-116.007
0
LINE
8
Black
10
76.0929
20
-116.007
11
76.3786
21
-115.864
0
LINE
8
Black
10
76.3786
20
-115.864
11
76.5214
21
-115.579
0
LINE
8
Black
10
76.5214
20
-115.579
11
76.5214
21
-115.436
0
LINE
8
Black
10
76.5214
20
-115.436
11
76.3786
21
-115.15
0
LINE
8
Black
10
76.3786
20
-115.15
11
76.0929
21
-115.007
0
LINE
8
Black
10
76.0929
20
-115.007
11
75.6643
21
-115.007
0
LINE
8
Black
10
75.6643
20
-115.007
11
75.3786
21
-114.864
0
LINE
8
Black
10
75.3786
20
-114.864
11
75.2357
21
-114.579
0
LINE
8
Black
10
75.2357
20
-114.579
11
75.2357
21
-114.436
0
LINE
8
Black
10
75.2357
20
-114.436
11
75.3786
21
-114.15
0
LINE
8
Black
10
75.3786
20
-114.15
11
75.6643
21
-114.007
0
LINE
8
Black
10
75.6643
20
-114.007
11
76.0929
21
-114.007
0
LINE
8
Black
10
76.0929
20
-114.007
11
76.3786
21
-114.15
0
LINE
8
Black
10
77.5214
20
-117.15
11
77.6643
21
-117.007
0
LINE
8
Black
10
77.6643
20
-117.007
11
77.95
21
-116.579
0
LINE
8
Black
10
77.95
20
-116.579
11
78.0929
21
-116.293
0
LINE
8
Black
10
78.0929
20
-116.293
11
78.2357
21
-115.864
0
LINE
8
Black
10
78.2357
20
-115.864
11
78.3786
21
-115.15
0
LINE
8
Black
10
78.3786
20
-115.15
11
78.3786
21
-114.579
0
LINE
8
Black
10
78.3786
20
-114.579
11
78.2357
21
-113.864
0
LINE
8
Black
10
78.2357
20
-113.864
11
78.0929
21
-113.436
0
LINE
8
Black
10
78.0929
20
-113.436
11
77.95
21
-113.15
0
LINE
8
Black
10
77.95
20
-113.15
11
77.6643
21
-112.721
0
LINE
8
Black
10
77.6643
20
-112.721
11
77.5214
21
-112.579
0
CIRCLE
8
Black
10
9.27055
20
-118.61
40
0.67945
0
LINE
8
Black
10
14.2357
20
-119.967
11
12.5214
21
-119.967
0
LINE
8
Black
10
13.3786
20
-119.967
11
13.3786
21
-116.967
0
LINE
8
Black
10
13.3786
20
-116.967
11
13.0929
21
-117.396
0
LINE
8
Black
10
13.0929
20
-117.396
11
12.8071
21
-117.681
0
LINE
8
Black
10
12.8071
20
-117.681
11
12.5214
21
-117.824
0
LINE
8
Black
10
15.5214
20
-119.681
11
15.6643
21
-119.824
0
LINE
8
Black
10
15.6643
20
-119.824
11
15.5214
21
-119.967
0
LINE
8
Black
10
15.5214
20
-119.967
11
15.3786
21
-119.824
0
LINE
8
Black
10
15.3786
20
-119.824
11
15.5214
21
-119.681
0
LINE
8
Black
10
15.5214
20
-119.681
11
15.5214
21
-119.967
0
LINE
8
Black
10
16.6643
20
-116.967
11
18.5214
21
-116.967
0
LINE
8
Black
10
18.5214
20
-116.967
11
17.5214
21
-118.11
0
LINE
8
Black
10
17.5214
20
-118.11
11
17.95
21
-118.11
0
LINE
8
Black
10
17.95
20
-118.11
11
18.2357
21
-118.253
0
LINE
8
Black
10
18.2357
20
-118.253
11
18.3786
21
-118.396
0
LINE
8
Black
10
18.3786
20
-118.396
11
18.5214
21
-118.681
0
LINE
8
Black
10
18.5214
20
-118.681
11
18.5214
21
-119.396
0
LINE
8
Black
10
18.5214
20
-119.396
11
18.3786
21
-119.681
0
LINE
8
Black
10
18.3786
20
-119.681
11
18.2357
21
-119.824
0
LINE
8
Black
10
18.2357
20
-119.824
11
17.95
21
-119.967
0
LINE
8
Black
10
17.95
20
-119.967
11
17.0929
21
-119.967
0
LINE
8
Black
10
17.0929
20
-119.967
11
16.8071
21
-119.824
0
LINE
8
Black
10
16.8071
20
-119.824
11
16.6643
21
-119.681
0
LINE
8
Black
10
21.0929
20
-116.967
11
20.5214
21
-116.967
0
LINE
8
Black
10
20.5214
20
-116.967
11
20.2357
21
-117.11
0
LINE
8
Black
10
20.2357
20
-117.11
11
20.0929
21
-117.253
0
LINE
8
Black
10
20.0929
20
-117.253
11
19.8071
21
-117.681
0
LINE
8
Black
10
19.8071
20
-117.681
11
19.6643
21
-118.253
0
LINE
8
Black
10
19.6643
20
-118.253
11
19.6643
21
-119.396
0
LINE
8
Black
10
19.6643
20
-119.396
11
19.8071
21
-119.681
0
LINE
8
Black
10
19.8071
20
-119.681
11
19.95
21
-119.824
0
LINE
8
Black
10
19.95
20
-119.824
11
20.2357
21
-119.967
0
LINE
8
Black
10
20.2357
20
-119.967
11
20.8071
21
-119.967
0
LINE
8
Black
10
20.8071
20
-119.967
11
21.0929
21
-119.824
0
LINE
8
Black
10
21.0929
20
-119.824
11
21.2357
21
-119.681
0
LINE
8
Black
10
21.2357
20
-119.681
11
21.3786
21
-119.396
0
LINE
8
Black
10
21.3786
20
-119.396
11
21.3786
21
-118.681
0
LINE
8
Black
10
21.3786
20
-118.681
11
21.2357
21
-118.396
0
LINE
8
Black
10
21.2357
20
-118.396
11
21.0929
21
-118.253
0
LINE
8
Black
10
21.0929
20
-118.253
11
20.8071
21
-118.11
0
LINE
8
Black
10
20.8071
20
-118.11
11
20.2357
21
-118.11
0
LINE
8
Black
10
20.2357
20
-118.11
11
19.95
21
-118.253
0
LINE
8
Black
10
19.95
20
-118.253
11
19.8071
21
-118.396
0
LINE
8
Black
10
19.8071
20
-118.396
11
19.6643
21
-118.681
0
LINE
8
Black
10
22.6643
20
-119.967
11
22.6643
21
-117.967
0
LINE
8
Black
10
22.6643
20
-118.253
11
22.8071
21
-118.11
0
LINE
8
Black
10
22.8071
20
-118.11
11
23.0929
21
-117.967
0
LINE
8
Black
10
23.0929
20
-117.967
11
23.5214
21
-117.967
0
LINE
8
Black
10
23.5214
20
-117.967
11
23.8071
21
-118.11
0
LINE
8
Black
10
23.8071
20
-118.11
11
23.95
21
-118.396
0
LINE
8
Black
10
23.95
20
-118.396
11
23.95
21
-119.967
0
LINE
8
Black
10
23.95
20
-118.396
11
24.0929
21
-118.11
0
LINE
8
Black
10
24.0929
20
-118.11
11
24.3786
21
-117.967
0
LINE
8
Black
10
24.3786
20
-117.967
11
24.8071
21
-117.967
0
LINE
8
Black
10
24.8071
20
-117.967
11
25.0929
21
-118.11
0
LINE
8
Black
10
25.0929
20
-118.11
11
25.2357
21
-118.396
0
LINE
8
Black
10
25.2357
20
-118.396
11
25.2357
21
-119.967
0
LINE
8
Black
10
26.6643
20
-119.967
11
26.6643
21
-117.967
0
LINE
8
Black
10
26.6643
20
-118.253
11
26.8071
21
-118.11
0
LINE
8
Black
10
26.8071
20
-118.11
11
27.0929
21
-117.967
0
LINE
8
Black
10
27.0929
20
-117.967
11
27.5214
21
-117.967
0
LINE
8
Black
10
27.5214
20
-117.967
11
27.8071
21
-118.11
0
LINE
8
Black
10
27.8071
20
-118.11
11
27.95
21
-118.396
0
LINE
8
Black
10
27.95
20
-118.396
11
27.95
21
-119.967
0
LINE
8
Black
10
27.95
20
-118.396
11
28.0929
21
-118.11
0
LINE
8
Black
10
28.0929
20
-118.11
11
28.3786
21
-117.967
0
LINE
8
Black
10
28.3786
20
-117.967
11
28.8071
21
-117.967
0
LINE
8
Black
10
28.8071
20
-117.967
11
29.0929
21
-118.11
0
LINE
8
Black
10
29.0929
20
-118.11
11
29.2357
21
-118.396
0
LINE
8
Black
10
29.2357
20
-118.396
11
29.2357
21
-119.967
0
LINE
8
Black
10
35.0929
20
-116.824
11
32.5214
21
-120.681
0
LINE
8
Black
10
38.95
20
-116.967
11
39.2357
21
-116.967
0
LINE
8
Black
10
39.2357
20
-116.967
11
39.5214
21
-117.11
0
LINE
8
Black
10
39.5214
20
-117.11
11
39.6643
21
-117.253
0
LINE
8
Black
10
39.6643
20
-117.253
11
39.8071
21
-117.539
0
LINE
8
Black
10
39.8071
20
-117.539
11
39.95
21
-118.11
0
LINE
8
Black
10
39.95
20
-118.11
11
39.95
21
-118.824
0
LINE
8
Black
10
39.95
20
-118.824
11
39.8071
21
-119.396
0
LINE
8
Black
10
39.8071
20
-119.396
11
39.6643
21
-119.681
0
LINE
8
Black
10
39.6643
20
-119.681
11
39.5214
21
-119.824
0
LINE
8
Black
10
39.5214
20
-119.824
11
39.2357
21
-119.967
0
LINE
8
Black
10
39.2357
20
-119.967
11
38.95
21
-119.967
0
LINE
8
Black
10
38.95
20
-119.967
11
38.6643
21
-119.824
0
LINE
8
Black
10
38.6643
20
-119.824
11
38.5214
21
-119.681
0
LINE
8
Black
10
38.5214
20
-119.681
11
38.3786
21
-119.396
0
LINE
8
Black
10
38.3786
20
-119.396
11
38.2357
21
-118.824
0
LINE
8
Black
10
38.2357
20
-118.824
11
38.2357
21
-118.11
0
LINE
8
Black
10
38.2357
20
-118.11
11
38.3786
21
-117.539
0
LINE
8
Black
10
38.3786
20
-117.539
11
38.5214
21
-117.253
0
LINE
8
Black
10
38.5214
20
-117.253
11
38.6643
21
-117.11
0
LINE
8
Black
10
38.6643
20
-117.11
11
38.95
21
-116.967
0
LINE
8
Black
10
41.2357
20
-119.681
11
41.3786
21
-119.824
0
LINE
8
Black
10
41.3786
20
-119.824
11
41.2357
21
-119.967
0
LINE
8
Black
10
41.2357
20
-119.967
11
41.0929
21
-119.824
0
LINE
8
Black
10
41.0929
20
-119.824
11
41.2357
21
-119.681
0
LINE
8
Black
10
41.2357
20
-119.681
11
41.2357
21
-119.967
0
LINE
8
Black
10
43.2357
20
-116.967
11
43.5214
21
-116.967
0
LINE
8
Black
10
43.5214
20
-116.967
11
43.8071
21
-117.11
0
LINE
8
Black
10
43.8071
20
-117.11
11
43.95
21
-117.253
0
LINE
8
Black
10
43.95
20
-117.253
11
44.0929
21
-117.539
0
LINE
8
Black
10
44.0929
20
-117.539
11
44.2357
21
-118.11
0
LINE
8
Black
10
44.2357
20
-118.11
11
44.2357
21
-118.824
0
LINE
8
Black
10
44.2357
20
-118.824
11
44.0929
21
-119.396
0
LINE
8
Black
10
44.0929
20
-119.396
11
43.95
21
-119.681
0
LINE
8
Black
10
43.95
20
-119.681
11
43.8071
21
-119.824
0
LINE
8
Black
10
43.8071
20
-119.824
11
43.5214
21
-119.967
0
LINE
8
Black
10
43.5214
20
-119.967
11
43.2357
21
-119.967
0
LINE
8
Black
10
43.2357
20
-119.967
11
42.95
21
-119.824
0
LINE
8
Black
10
42.95
20
-119.824
11
42.8071
21
-119.681
0
LINE
8
Black
10
42.8071
20
-119.681
11
42.6643
21
-119.396
0
LINE
8
Black
10
42.6643
20
-119.396
11
42.5214
21
-118.824
0
LINE
8
Black
10
42.5214
20
-118.824
11
42.5214
21
-118.11
0
LINE
8
Black
10
42.5214
20
-118.11
11
42.6643
21
-117.539
0
LINE
8
Black
10
42.6643
20
-117.539
11
42.8071
21
-117.253
0
LINE
8
Black
10
42.8071
20
-117.253
11
42.95
21
-117.11
0
LINE
8
Black
10
42.95
20
-117.11
11
43.2357
21
-116.967
0
LINE
8
Black
10
46.95
20
-116.967
11
45.5214
21
-116.967
0
LINE
8
Black
10
45.5214
20
-116.967
11
45.3786
21
-118.396
0
LINE
8
Black
10
45.3786
20
-118.396
11
45.5214
21
-118.253
0
LINE
8
Black
10
45.5214
20
-118.253
11
45.8071
21
-118.11
0
LINE
8
Black
10
45.8071
20
-118.11
11
46.5214
21
-118.11
0
LINE
8
Black
10
46.5214
20
-118.11
11
46.8071
21
-118.253
0
LINE
8
Black
10
46.8071
20
-118.253
11
46.95
21
-118.396
0
LINE
8
Black
10
46.95
20
-118.396
11
47.0929
21
-118.681
0
LINE
8
Black
10
47.0929
20
-118.681
11
47.0929
21
-119.396
0
LINE
8
Black
10
47.0929
20
-119.396
11
46.95
21
-119.681
0
LINE
8
Black
10
46.95
20
-119.681
11
46.8071
21
-119.824
0
LINE
8
Black
10
46.8071
20
-119.824
11
46.5214
21
-119.967
0
LINE
8
Black
10
46.5214
20
-119.967
11
45.8071
21
-119.967
0
LINE
8
Black
10
45.8071
20
-119.967
11
45.5214
21
-119.824
0
LINE
8
Black
10
45.5214
20
-119.824
11
45.3786
21
-119.681
0
LINE
8
Black
10
48.0929
20
-116.967
11
49.95
21
-116.967
0
LINE
8
Black
10
49.95
20
-116.967
11
48.95
21
-118.11
0
LINE
8
Black
10
48.95
20
-118.11
11
49.3786
21
-118.11
0
LINE
8
Black
10
49.3786
20
-118.11
11
49.6643
21
-118.253
0
LINE
8
Black
10
49.6643
20
-118.253
11
49.8071
21
-118.396
0
LINE
8
Black
10
49.8071
20
-118.396
11
49.95
21
-118.681
0
LINE
8
Black
10
49.95
20
-118.681
11
49.95
21
-119.396
0
LINE
8
Black
10
49.95
20
-119.396
11
49.8071
21
-119.681
0
LINE
8
Black
10
49.8071
20
-119.681
11
49.6643
21
-119.824
0
LINE
8
Black
10
49.6643
20
-119.824
11
49.3786
21
-119.967
0
LINE
8
Black
10
49.3786
20
-119.967
11
48.5214
21
-119.967
0
LINE
8
Black
10
48.5214
20
-119.967
11
48.2357
21
-119.824
0
LINE
8
Black
10
48.2357
20
-119.824
11
48.0929
21
-119.681
0
LINE
8
Black
10
51.0929
20
-116.967
11
51.0929
21
-117.539
0
LINE
8
Black
10
52.2357
20
-116.967
11
52.2357
21
-117.539
0
LINE
8
Black
10
56.6643
20
-121.11
11
56.5214
21
-120.967
0
LINE
8
Black
10
56.5214
20
-120.967
11
56.2357
21
-120.539
0
LINE
8
Black
10
56.2357
20
-120.539
11
56.0929
21
-120.253
0
LINE
8
Black
10
56.0929
20
-120.253
11
55.95
21
-119.824
0
LINE
8
Black
10
55.95
20
-119.824
11
55.8071
21
-119.11
0
LINE
8
Black
10
55.8071
20
-119.11
11
55.8071
21
-118.539
0
LINE
8
Black
10
55.8071
20
-118.539
11
55.95
21
-117.824
0
LINE
8
Black
10
55.95
20
-117.824
11
56.0929
21
-117.396
0
LINE
8
Black
10
56.0929
20
-117.396
11
56.2357
21
-117.11
0
LINE
8
Black
10
56.2357
20
-117.11
11
56.5214
21
-116.681
0
LINE
8
Black
10
56.5214
20
-116.681
11
56.6643
21
-116.539
0
LINE
8
Black
10
57.6643
20
-117.253
11
57.8071
21
-117.11
0
LINE
8
Black
10
57.8071
20
-117.11
11
58.0929
21
-116.967
0
LINE
8
Black
10
58.0929
20
-116.967
11
58.8071
21
-116.967
0
LINE
8
Black
10
58.8071
20
-116.967
11
59.0929
21
-117.11
0
LINE
8
Black
10
59.0929
20
-117.11
11
59.2357
21
-117.253
0
LINE
8
Black
10
59.2357
20
-117.253
11
59.3786
21
-117.539
0
LINE
8
Black
10
59.3786
20
-117.539
11
59.3786
21
-117.824
0
LINE
8
Black
10
59.3786
20
-117.824
11
59.2357
21
-118.253
0
LINE
8
Black
10
59.2357
20
-118.253
11
57.5214
21
-119.967
0
LINE
8
Black
10
57.5214
20
-119.967
11
59.3786
21
-119.967
0
LINE
8
Black
10
62.95
20
-119.967
11
62.95
21
-116.967
0
LINE
8
Black
10
64.2357
20
-119.967
11
64.2357
21
-118.396
0
LINE
8
Black
10
64.2357
20
-118.396
11
64.0929
21
-118.11
0
LINE
8
Black
10
64.0929
20
-118.11
11
63.8071
21
-117.967
0
LINE
8
Black
10
63.8071
20
-117.967
11
63.3786
21
-117.967
0
LINE
8
Black
10
63.3786
20
-117.967
11
63.0929
21
-118.11
0
LINE
8
Black
10
63.0929
20
-118.11
11
62.95
21
-118.253
0
LINE
8
Black
10
66.0929
20
-119.967
11
65.8071
21
-119.824
0
LINE
8
Black
10
65.8071
20
-119.824
11
65.6643
21
-119.681
0
LINE
8
Black
10
65.6643
20
-119.681
11
65.5214
21
-119.396
0
LINE
8
Black
10
65.5214
20
-119.396
11
65.5214
21
-118.539
0
LINE
8
Black
10
65.5214
20
-118.539
11
65.6643
21
-118.253
0
LINE
8
Black
10
65.6643
20
-118.253
11
65.8071
21
-118.11
0
LINE
8
Black
10
65.8071
20
-118.11
11
66.0929
21
-117.967
0
LINE
8
Black
10
66.0929
20
-117.967
11
66.5214
21
-117.967
0
LINE
8
Black
10
66.5214
20
-117.967
11
66.8071
21
-118.11
0
LINE
8
Black
10
66.8071
20
-118.11
11
66.95
21
-118.253
0
LINE
8
Black
10
66.95
20
-118.253
11
67.0929
21
-118.539
0
LINE
8
Black
10
67.0929
20
-118.539
11
67.0929
21
-119.396
0
LINE
8
Black
10
67.0929
20
-119.396
11
66.95
21
-119.681
0
LINE
8
Black
10
66.95
20
-119.681
11
66.8071
21
-119.824
0
LINE
8
Black
10
66.8071
20
-119.824
11
66.5214
21
-119.967
0
LINE
8
Black
10
66.5214
20
-119.967
11
66.0929
21
-119.967
0
LINE
8
Black
10
68.8071
20
-119.967
11
68.5214
21
-119.824
0
LINE
8
Black
10
68.5214
20
-119.824
11
68.3786
21
-119.539
0
LINE
8
Black
10
68.3786
20
-119.539
11
68.3786
21
-116.967
0
LINE
8
Black
10
71.0929
20
-119.824
11
70.8071
21
-119.967
0
LINE
8
Black
10
70.8071
20
-119.967
11
70.2357
21
-119.967
0
LINE
8
Black
10
70.2357
20
-119.967
11
69.95
21
-119.824
0
LINE
8
Black
10
69.95
20
-119.824
11
69.8071
21
-119.539
0
LINE
8
Black
10
69.8071
20
-119.539
11
69.8071
21
-118.396
0
LINE
8
Black
10
69.8071
20
-118.396
11
69.95
21
-118.11
0
LINE
8
Black
10
69.95
20
-118.11
11
70.2357
21
-117.967
0
LINE
8
Black
10
70.2357
20
-117.967
11
70.8071
21
-117.967
0
LINE
8
Black
10
70.8071
20
-117.967
11
71.0929
21
-118.11
0
LINE
8
Black
10
71.0929
20
-118.11
11
71.2357
21
-118.396
0
LINE
8
Black
10
71.2357
20
-118.396
11
71.2357
21
-118.681
0
LINE
8
Black
10
71.2357
20
-118.681
11
69.8071
21
-118.967
0
LINE
8
Black
10
72.3786
20
-119.824
11
72.6643
21
-119.967
0
LINE
8
Black
10
72.6643
20
-119.967
11
73.2357
21
-119.967
0
LINE
8
Black
10
73.2357
20
-119.967
11
73.5214
21
-119.824
0
LINE
8
Black
10
73.5214
20
-119.824
11
73.6643
21
-119.539
0
LINE
8
Black
10
73.6643
20
-119.539
11
73.6643
21
-119.396
0
LINE
8
Black
10
73.6643
20
-119.396
11
73.5214
21
-119.11
0
LINE
8
Black
10
73.5214
20
-119.11
11
73.2357
21
-118.967
0
LINE
8
Black
10
73.2357
20
-118.967
11
72.8071
21
-118.967
0
LINE
8
Black
10
72.8071
20
-118.967
11
72.5214
21
-118.824
0
LINE
8
Black
10
72.5214
20
-118.824
11
72.3786
21
-118.539
0
LINE
8
Black
10
72.3786
20
-118.539
11
72.3786
21
-118.396
0
LINE
8
Black
10
72.3786
20
-118.396
11
72.5214
21
-118.11
0
LINE
8
Black
10
72.5214
20
-118.11
11
72.8071
21
-117.967
0
LINE
8
Black
10
72.8071
20
-117.967
11
73.2357
21
-117.967
0
LINE
8
Black
10
73.2357
20
-117.967
11
73.5214
21
-118.11
0
LINE
8
Black
10
74.6643
20
-121.11
11
74.8071
21
-120.967
0
LINE
8
Black
10
74.8071
20
-120.967
11
75.0929
21
-120.539
0
LINE
8
Black
10
75.0929
20
-120.539
11
75.2357
21
-120.253
0
LINE
8
Black
10
75.2357
20
-120.253
11
75.3786
21
-119.824
0
LINE
8
Black
10
75.3786
20
-119.824
11
75.5214
21
-119.11
0
LINE
8
Black
10
75.5214
20
-119.11
11
75.5214
21
-118.539
0
LINE
8
Black
10
75.5214
20
-118.539
11
75.3786
21
-117.824
0
LINE
8
Black
10
75.3786
20
-117.824
11
75.2357
21
-117.396
0
LINE
8
Black
10
75.2357
20
-117.396
11
75.0929
21
-117.11
0
LINE
8
Black
10
75.0929
20
-117.11
11
74.8071
21
-116.681
0
LINE
8
Black
10
74.8071
20
-116.681
11
74.6643
21
-116.539
0
LINE
8
Black
10
8.68
20
-121.3
11
8.68
21
-123.84
0
LINE
8
Black
10
7.41
20
-122.57
11
9.95
21
-122.57
0
LINE
8
Black
10
12.5214
20
-121.213
11
12.6643
21
-121.07
0
LINE
8
Black
10
12.6643
20
-121.07
11
12.95
21
-120.927
0
LINE
8
Black
10
12.95
20
-120.927
11
13.6643
21
-120.927
0
LINE
8
Black
10
13.6643
20
-120.927
11
13.95
21
-121.07
0
LINE
8
Black
10
13.95
20
-121.07
11
14.0929
21
-121.213
0
LINE
8
Black
10
14.0929
20
-121.213
11
14.2357
21
-121.499
0
LINE
8
Black
10
14.2357
20
-121.499
11
14.2357
21
-121.784
0
LINE
8
Black
10
14.2357
20
-121.784
11
14.0929
21
-122.213
0
LINE
8
Black
10
14.0929
20
-122.213
11
12.3786
21
-123.927
0
LINE
8
Black
10
12.3786
20
-123.927
11
14.2357
21
-123.927
0
LINE
8
Black
10
15.5214
20
-123.641
11
15.6643
21
-123.784
0
LINE
8
Black
10
15.6643
20
-123.784
11
15.5214
21
-123.927
0
LINE
8
Black
10
15.5214
20
-123.927
11
15.3786
21
-123.784
0
LINE
8
Black
10
15.3786
20
-123.784
11
15.5214
21
-123.641
0
LINE
8
Black
10
15.5214
20
-123.641
11
15.5214
21
-123.927
0
LINE
8
Black
10
18.3786
20
-120.927
11
16.95
21
-120.927
0
LINE
8
Black
10
16.95
20
-120.927
11
16.8071
21
-122.356
0
LINE
8
Black
10
16.8071
20
-122.356
11
16.95
21
-122.213
0
LINE
8
Black
10
16.95
20
-122.213
11
17.2357
21
-122.07
0
LINE
8
Black
10
17.2357
20
-122.07
11
17.95
21
-122.07
0
LINE
8
Black
10
17.95
20
-122.07
11
18.2357
21
-122.213
0
LINE
8
Black
10
18.2357
20
-122.213
11
18.3786
21
-122.356
0
LINE
8
Black
10
18.3786
20
-122.356
11
18.5214
21
-122.641
0
LINE
8
Black
10
18.5214
20
-122.641
11
18.5214
21
-123.356
0
LINE
8
Black
10
18.5214
20
-123.356
11
18.3786
21
-123.641
0
LINE
8
Black
10
18.3786
20
-123.641
11
18.2357
21
-123.784
0
LINE
8
Black
10
18.2357
20
-123.784
11
17.95
21
-123.927
0
LINE
8
Black
10
17.95
20
-123.927
11
17.2357
21
-123.927
0
LINE
8
Black
10
17.2357
20
-123.927
11
16.95
21
-123.784
0
LINE
8
Black
10
16.95
20
-123.784
11
16.8071
21
-123.641
0
LINE
8
Black
10
21.0929
20
-121.927
11
21.0929
21
-123.927
0
LINE
8
Black
10
20.3786
20
-120.784
11
19.6643
21
-122.927
0
LINE
8
Black
10
19.6643
20
-122.927
11
21.5214
21
-122.927
0
LINE
8
Black
10
22.6643
20
-123.927
11
22.6643
21
-121.927
0
LINE
8
Black
10
22.6643
20
-122.213
11
22.8071
21
-122.07
0
LINE
8
Black
10
22.8071
20
-122.07
11
23.0929
21
-121.927
0
LINE
8
Black
10
23.0929
20
-121.927
11
23.5214
21
-121.927
0
LINE
8
Black
10
23.5214
20
-121.927
11
23.8071
21
-122.07
0
LINE
8
Black
10
23.8071
20
-122.07
11
23.95
21
-122.356
0
LINE
8
Black
10
23.95
20
-122.356
11
23.95
21
-123.927
0
LINE
8
Black
10
23.95
20
-122.356
11
24.0929
21
-122.07
0
LINE
8
Black
10
24.0929
20
-122.07
11
24.3786
21
-121.927
0
LINE
8
Black
10
24.3786
20
-121.927
11
24.8071
21
-121.927
0
LINE
8
Black
10
24.8071
20
-121.927
11
25.0929
21
-122.07
0
LINE
8
Black
10
25.0929
20
-122.07
11
25.2357
21
-122.356
0
LINE
8
Black
10
25.2357
20
-122.356
11
25.2357
21
-123.927
0
LINE
8
Black
10
26.6643
20
-123.927
11
26.6643
21
-121.927
0
LINE
8
Black
10
26.6643
20
-122.213
11
26.8071
21
-122.07
0
LINE
8
Black
10
26.8071
20
-122.07
11
27.0929
21
-121.927
0
LINE
8
Black
10
27.0929
20
-121.927
11
27.5214
21
-121.927
0
LINE
8
Black
10
27.5214
20
-121.927
11
27.8071
21
-122.07
0
LINE
8
Black
10
27.8071
20
-122.07
11
27.95
21
-122.356
0
LINE
8
Black
10
27.95
20
-122.356
11
27.95
21
-123.927
0
LINE
8
Black
10
27.95
20
-122.356
11
28.0929
21
-122.07
0
LINE
8
Black
10
28.0929
20
-122.07
11
28.3786
21
-121.927
0
LINE
8
Black
10
28.3786
20
-121.927
11
28.8071
21
-121.927
0
LINE
8
Black
10
28.8071
20
-121.927
11
29.0929
21
-122.07
0
LINE
8
Black
10
29.0929
20
-122.07
11
29.2357
21
-122.356
0
LINE
8
Black
10
29.2357
20
-122.356
11
29.2357
21
-123.927
0
LINE
8
Black
10
35.0929
20
-120.784
11
32.5214
21
-124.641
0
LINE
8
Black
10
38.95
20
-120.927
11
39.2357
21
-120.927
0
LINE
8
Black
10
39.2357
20
-120.927
11
39.5214
21
-121.07
0
LINE
8
Black
10
39.5214
20
-121.07
11
39.6643
21
-121.213
0
LINE
8
Black
10
39.6643
20
-121.213
11
39.8071
21
-121.499
0
LINE
8
Black
10
39.8071
20
-121.499
11
39.95
21
-122.07
0
LINE
8
Black
10
39.95
20
-122.07
11
39.95
21
-122.784
0
LINE
8
Black
10
39.95
20
-122.784
11
39.8071
21
-123.356
0
LINE
8
Black
10
39.8071
20
-123.356
11
39.6643
21
-123.641
0
LINE
8
Black
10
39.6643
20
-123.641
11
39.5214
21
-123.784
0
LINE
8
Black
10
39.5214
20
-123.784
11
39.2357
21
-123.927
0
LINE
8
Black
10
39.2357
20
-123.927
11
38.95
21
-123.927
0
LINE
8
Black
10
38.95
20
-123.927
11
38.6643
21
-123.784
0
LINE
8
Black
10
38.6643
20
-123.784
11
38.5214
21
-123.641
0
LINE
8
Black
10
38.5214
20
-123.641
11
38.3786
21
-123.356
0
LINE
8
Black
10
38.3786
20
-123.356
11
38.2357
21
-122.784
0
LINE
8
Black
10
38.2357
20
-122.784
11
38.2357
21
-122.07
0
LINE
8
Black
10
38.2357
20
-122.07
11
38.3786
21
-121.499
0
LINE
8
Black
10
38.3786
20
-121.499
11
38.5214
21
-121.213
0
LINE
8
Black
10
38.5214
20
-121.213
11
38.6643
21
-121.07
0
LINE
8
Black
10
38.6643
20
-121.07
11
38.95
21
-120.927
0
LINE
8
Black
10
41.2357
20
-123.641
11
41.3786
21
-123.784
0
LINE
8
Black
10
41.3786
20
-123.784
11
41.2357
21
-123.927
0
LINE
8
Black
10
41.2357
20
-123.927
11
41.0929
21
-123.784
0
LINE
8
Black
10
41.0929
20
-123.784
11
41.2357
21
-123.641
0
LINE
8
Black
10
41.2357
20
-123.641
11
41.2357
21
-123.927
0
LINE
8
Black
10
44.2357
20
-123.927
11
42.5214
21
-123.927
0
LINE
8
Black
10
43.3786
20
-123.927
11
43.3786
21
-120.927
0
LINE
8
Black
10
43.3786
20
-120.927
11
43.0929
21
-121.356
0
LINE
8
Black
10
43.0929
20
-121.356
11
42.8071
21
-121.641
0
LINE
8
Black
10
42.8071
20
-121.641
11
42.5214
21
-121.784
0
LINE
8
Black
10
46.0929
20
-120.927
11
46.3786
21
-120.927
0
LINE
8
Black
10
46.3786
20
-120.927
11
46.6643
21
-121.07
0
LINE
8
Black
10
46.6643
20
-121.07
11
46.8071
21
-121.213
0
LINE
8
Black
10
46.8071
20
-121.213
11
46.95
21
-121.499
0
LINE
8
Black
10
46.95
20
-121.499
11
47.0929
21
-122.07
0
LINE
8
Black
10
47.0929
20
-122.07
11
47.0929
21
-122.784
0
LINE
8
Black
10
47.0929
20
-122.784
11
46.95
21
-123.356
0
LINE
8
Black
10
46.95
20
-123.356
11
46.8071
21
-123.641
0
LINE
8
Black
10
46.8071
20
-123.641
11
46.6643
21
-123.784
0
LINE
8
Black
10
46.6643
20
-123.784
11
46.3786
21
-123.927
0
LINE
8
Black
10
46.3786
20
-123.927
11
46.0929
21
-123.927
0
LINE
8
Black
10
46.0929
20
-123.927
11
45.8071
21
-123.784
0
LINE
8
Black
10
45.8071
20
-123.784
11
45.6643
21
-123.641
0
LINE
8
Black
10
45.6643
20
-123.641
11
45.5214
21
-123.356
0
LINE
8
Black
10
45.5214
20
-123.356
11
45.3786
21
-122.784
0
LINE
8
Black
10
45.3786
20
-122.784
11
45.3786
21
-122.07
0
LINE
8
Black
10
45.3786
20
-122.07
11
45.5214
21
-121.499
0
LINE
8
Black
10
45.5214
20
-121.499
11
45.6643
21
-121.213
0
LINE
8
Black
10
45.6643
20
-121.213
11
45.8071
21
-121.07
0
LINE
8
Black
10
45.8071
20
-121.07
11
46.0929
21
-120.927
0
LINE
8
Black
10
48.95
20
-120.927
11
49.2357
21
-120.927
0
LINE
8
Black
10
49.2357
20
-120.927
11
49.5214
21
-121.07
0
LINE
8
Black
10
49.5214
20
-121.07
11
49.6643
21
-121.213
0
LINE
8
Black
10
49.6643
20
-121.213
11
49.8071
21
-121.499
0
LINE
8
Black
10
49.8071
20
-121.499
11
49.95
21
-122.07
0
LINE
8
Black
10
49.95
20
-122.07
11
49.95
21
-122.784
0
LINE
8
Black
10
49.95
20
-122.784
11
49.8071
21
-123.356
0
LINE
8
Black
10
49.8071
20
-123.356
11
49.6643
21
-123.641
0
LINE
8
Black
10
49.6643
20
-123.641
11
49.5214
21
-123.784
0
LINE
8
Black
10
49.5214
20
-123.784
11
49.2357
21
-123.927
0
LINE
8
Black
10
49.2357
20
-123.927
11
48.95
21
-123.927
0
LINE
8
Black
10
48.95
20
-123.927
11
48.6643
21
-123.784
0
LINE
8
Black
10
48.6643
20
-123.784
11
48.5214
21
-123.641
0
LINE
8
Black
10
48.5214
20
-123.641
11
48.3786
21
-123.356
0
LINE
8
Black
10
48.3786
20
-123.356
11
48.2357
21
-122.784
0
LINE
8
Black
10
48.2357
20
-122.784
11
48.2357
21
-122.07
0
LINE
8
Black
10
48.2357
20
-122.07
11
48.3786
21
-121.499
0
LINE
8
Black
10
48.3786
20
-121.499
11
48.5214
21
-121.213
0
LINE
8
Black
10
48.5214
20
-121.213
11
48.6643
21
-121.07
0
LINE
8
Black
10
48.6643
20
-121.07
11
48.95
21
-120.927
0
LINE
8
Black
10
51.0929
20
-120.927
11
51.0929
21
-121.499
0
LINE
8
Black
10
52.2357
20
-120.927
11
52.2357
21
-121.499
0
LINE
8
Black
10
56.6643
20
-125.07
11
56.5214
21
-124.927
0
LINE
8
Black
10
56.5214
20
-124.927
11
56.2357
21
-124.499
0
LINE
8
Black
10
56.2357
20
-124.499
11
56.0929
21
-124.213
0
LINE
8
Black
10
56.0929
20
-124.213
11
55.95
21
-123.784
0
LINE
8
Black
10
55.95
20
-123.784
11
55.8071
21
-123.07
0
LINE
8
Black
10
55.8071
20
-123.07
11
55.8071
21
-122.499
0
LINE
8
Black
10
55.8071
20
-122.499
11
55.95
21
-121.784
0
LINE
8
Black
10
55.95
20
-121.784
11
56.0929
21
-121.356
0
LINE
8
Black
10
56.0929
20
-121.356
11
56.2357
21
-121.07
0
LINE
8
Black
10
56.2357
20
-121.07
11
56.5214
21
-120.641
0
LINE
8
Black
10
56.5214
20
-120.641
11
56.6643
21
-120.499
0
LINE
8
Black
10
57.5214
20
-120.927
11
59.3786
21
-120.927
0
LINE
8
Black
10
59.3786
20
-120.927
11
58.3786
21
-122.07
0
LINE
8
Black
10
58.3786
20
-122.07
11
58.8071
21
-122.07
0
LINE
8
Black
10
58.8071
20
-122.07
11
59.0929
21
-122.213
0
LINE
8
Black
10
59.0929
20
-122.213
11
59.2357
21
-122.356
0
LINE
8
Black
10
59.2357
20
-122.356
11
59.3786
21
-122.641
0
LINE
8
Black
10
59.3786
20
-122.641
11
59.3786
21
-123.356
0
LINE
8
Black
10
59.3786
20
-123.356
11
59.2357
21
-123.641
0
LINE
8
Black
10
59.2357
20
-123.641
11
59.0929
21
-123.784
0
LINE
8
Black
10
59.0929
20
-123.784
11
58.8071
21
-123.927
0
LINE
8
Black
10
58.8071
20
-123.927
11
57.95
21
-123.927
0
LINE
8
Black
10
57.95
20
-123.927
11
57.6643
21
-123.784
0
LINE
8
Black
10
57.6643
20
-123.784
11
57.5214
21
-123.641
0
LINE
8
Black
10
62.95
20
-123.927
11
62.95
21
-120.927
0
LINE
8
Black
10
64.2357
20
-123.927
11
64.2357
21
-122.356
0
LINE
8
Black
10
64.2357
20
-122.356
11
64.0929
21
-122.07
0
LINE
8
Black
10
64.0929
20
-122.07
11
63.8071
21
-121.927
0
LINE
8
Black
10
63.8071
20
-121.927
11
63.3786
21
-121.927
0
LINE
8
Black
10
63.3786
20
-121.927
11
63.0929
21
-122.07
0
LINE
8
Black
10
63.0929
20
-122.07
11
62.95
21
-122.213
0
LINE
8
Black
10
66.0929
20
-123.927
11
65.8071
21
-123.784
0
LINE
8
Black
10
65.8071
20
-123.784
11
65.6643
21
-123.641
0
LINE
8
Black
10
65.6643
20
-123.641
11
65.5214
21
-123.356
0
LINE
8
Black
10
65.5214
20
-123.356
11
65.5214
21
-122.499
0
LINE
8
Black
10
65.5214
20
-122.499
11
65.6643
21
-122.213
0
LINE
8
Black
10
65.6643
20
-122.213
11
65.8071
21
-122.07
0
LINE
8
Black
10
65.8071
20
-122.07
11
66.0929
21
-121.927
0
LINE
8
Black
10
66.0929
20
-121.927
11
66.5214
21
-121.927
0
LINE
8
Black
10
66.5214
20
-121.927
11
66.8071
21
-122.07
0
LINE
8
Black
10
66.8071
20
-122.07
11
66.95
21
-122.213
0
LINE
8
Black
10
66.95
20
-122.213
11
67.0929
21
-122.499
0
LINE
8
Black
10
67.0929
20
-122.499
11
67.0929
21
-123.356
0
LINE
8
Black
10
67.0929
20
-123.356
11
66.95
21
-123.641
0
LINE
8
Black
10
66.95
20
-123.641
11
66.8071
21
-123.784
0
LINE
8
Black
10
66.8071
20
-123.784
11
66.5214
21
-123.927
0
LINE
8
Black
10
66.5214
20
-123.927
11
66.0929
21
-123.927
0
LINE
8
Black
10
68.8071
20
-123.927
11
68.5214
21
-123.784
0
LINE
8
Black
10
68.5214
20
-123.784
11
68.3786
21
-123.499
0
LINE
8
Black
10
68.3786
20
-123.499
11
68.3786
21
-120.927
0
LINE
8
Black
10
71.0929
20
-123.784
11
70.8071
21
-123.927
0
LINE
8
Black
10
70.8071
20
-123.927
11
70.2357
21
-123.927
0
LINE
8
Black
10
70.2357
20
-123.927
11
69.95
21
-123.784
0
LINE
8
Black
10
69.95
20
-123.784
11
69.8071
21
-123.499
0
LINE
8
Black
10
69.8071
20
-123.499
11
69.8071
21
-122.356
0
LINE
8
Black
10
69.8071
20
-122.356
11
69.95
21
-122.07
0
LINE
8
Black
10
69.95
20
-122.07
11
70.2357
21
-121.927
0
LINE
8
Black
10
70.2357
20
-121.927
11
70.8071
21
-121.927
0
LINE
8
Black
10
70.8071
20
-121.927
11
71.0929
21
-122.07
0
LINE
8
Black
10
71.0929
20
-122.07
11
71.2357
21
-122.356
0
LINE
8
Black
10
71.2357
20
-122.356
11
71.2357
21
-122.641
0
LINE
8
Black
10
71.2357
20
-122.641
11
69.8071
21
-122.927
0
LINE
8
Black
10
72.3786
20
-123.784
11
72.6643
21
-123.927
0
LINE
8
Black
10
72.6643
20
-123.927
11
73.2357
21
-123.927
0
LINE
8
Black
10
73.2357
20
-123.927
11
73.5214
21
-123.784
0
LINE
8
Black
10
73.5214
20
-123.784
11
73.6643
21
-123.499
0
LINE
8
Black
10
73.6643
20
-123.499
11
73.6643
21
-123.356
0
LINE
8
Black
10
73.6643
20
-123.356
11
73.5214
21
-123.07
0
LINE
8
Black
10
73.5214
20
-123.07
11
73.2357
21
-122.927
0
LINE
8
Black
10
73.2357
20
-122.927
11
72.8071
21
-122.927
0
LINE
8
Black
10
72.8071
20
-122.927
11
72.5214
21
-122.784
0
LINE
8
Black
10
72.5214
20
-122.784
11
72.3786
21
-122.499
0
LINE
8
Black
10
72.3786
20
-122.499
11
72.3786
21
-122.356
0
LINE
8
Black
10
72.3786
20
-122.356
11
72.5214
21
-122.07
0
LINE
8
Black
10
72.5214
20
-122.07
11
72.8071
21
-121.927
0
LINE
8
Black
10
72.8071
20
-121.927
11
73.2357
21
-121.927
0
LINE
8
Black
10
73.2357
20
-121.927
11
73.5214
21
-122.07
0
LINE
8
Black
10
74.6643
20
-125.07
11
74.8071
21
-124.927
0
LINE
8
Black
10
74.8071
20
-124.927
11
75.0929
21
-124.499
0
LINE
8
Black
10
75.0929
20
-124.499
11
75.2357
21
-124.213
0
LINE
8
Black
10
75.2357
20
-124.213
11
75.3786
21
-123.784
0
LINE
8
Black
10
75.3786
20
-123.784
11
75.5214
21
-123.07
0
LINE
8
Black
10
75.5214
20
-123.07
11
75.5214
21
-122.499
0
LINE
8
Black
10
75.5214
20
-122.499
11
75.3786
21
-121.784
0
LINE
8
Black
10
75.3786
20
-121.784
11
75.2357
21
-121.356
0
LINE
8
Black
10
75.2357
20
-121.356
11
75.0929
21
-121.07
0
LINE
8
Black
10
75.0929
20
-121.07
11
74.8071
21
-120.641
0
LINE
8
Black
10
74.8071
20
-120.641
11
74.6643
21
-120.499
0
LINE
8
Black
10
9.48504
20
-127.653
11
9.48504
21
-125.407
0
LINE
8
Black
10
9.48504
20
-125.407
11
7.23996
21
-125.407
0
LINE
8
Black
10
7.23996
20
-125.407
11
7.23996
21
-127.653
0
LINE
8
Black
10
7.23996
20
-127.653
11
9.48504
21
-127.653
0
LINE
8
Black
10
12.3786
20
-124.887
11
14.2357
21
-124.887
0
LINE
8
Black
10
14.2357
20
-124.887
11
13.2357
21
-126.03
0
LINE
8
Black
10
13.2357
20
-126.03
11
13.6643
21
-126.03
0
LINE
8
Black
10
13.6643
20
-126.03
11
13.95
21
-126.173
0
LINE
8
Black
10
13.95
20
-126.173
11
14.0929
21
-126.316
0
LINE
8
Black
10
14.0929
20
-126.316
11
14.2357
21
-126.601
0
LINE
8
Black
10
14.2357
20
-126.601
11
14.2357
21
-127.316
0
LINE
8
Black
10
14.2357
20
-127.316
11
14.0929
21
-127.601
0
LINE
8
Black
10
14.0929
20
-127.601
11
13.95
21
-127.744
0
LINE
8
Black
10
13.95
20
-127.744
11
13.6643
21
-127.887
0
LINE
8
Black
10
13.6643
20
-127.887
11
12.8071
21
-127.887
0
LINE
8
Black
10
12.8071
20
-127.887
11
12.5214
21
-127.744
0
LINE
8
Black
10
12.5214
20
-127.744
11
12.3786
21
-127.601
0
LINE
8
Black
10
15.5214
20
-127.601
11
15.6643
21
-127.744
0
LINE
8
Black
10
15.6643
20
-127.744
11
15.5214
21
-127.887
0
LINE
8
Black
10
15.5214
20
-127.887
11
15.3786
21
-127.744
0
LINE
8
Black
10
15.3786
20
-127.744
11
15.5214
21
-127.601
0
LINE
8
Black
10
15.5214
20
-127.601
11
15.5214
21
-127.887
0
LINE
8
Black
10
18.5214
20
-127.887
11
16.8071
21
-127.887
0
LINE
8
Black
10
17.6643
20
-127.887
11
17.6643
21
-124.887
0
LINE
8
Black
10
17.6643
20
-124.887
11
17.3786
21
-125.316
0
LINE
8
Black
10
17.3786
20
-125.316
11
17.0929
21
-125.601
0
LINE
8
Black
10
17.0929
20
-125.601
11
16.8071
21
-125.744
0
LINE
8
Black
10
19.5214
20
-124.887
11
21.5214
21
-124.887
0
LINE
8
Black
10
21.5214
20
-124.887
11
20.2357
21
-127.887
0
LINE
8
Black
10
22.6643
20
-127.887
11
22.6643
21
-125.887
0
LINE
8
Black
10
22.6643
20
-126.173
11
22.8071
21
-126.03
0
LINE
8
Black
10
22.8071
20
-126.03
11
23.0929
21
-125.887
0
LINE
8
Black
10
23.0929
20
-125.887
11
23.5214
21
-125.887
0
LINE
8
Black
10
23.5214
20
-125.887
11
23.8071
21
-126.03
0
LINE
8
Black
10
23.8071
20
-126.03
11
23.95
21
-126.316
0
LINE
8
Black
10
23.95
20
-126.316
11
23.95
21
-127.887
0
LINE
8
Black
10
23.95
20
-126.316
11
24.0929
21
-126.03
0
LINE
8
Black
10
24.0929
20
-126.03
11
24.3786
21
-125.887
0
LINE
8
Black
10
24.3786
20
-125.887
11
24.8071
21
-125.887
0
LINE
8
Black
10
24.8071
20
-125.887
11
25.0929
21
-126.03
0
LINE
8
Black
10
25.0929
20
-126.03
11
25.2357
21
-126.316
0
LINE
8
Black
10
25.2357
20
-126.316
11
25.2357
21
-127.887
0
LINE
8
Black
10
26.6643
20
-127.887
11
26.6643
21
-125.887
0
LINE
8
Black
10
26.6643
20
-126.173
11
26.8071
21
-126.03
0
LINE
8
Black
10
26.8071
20
-126.03
11
27.0929
21
-125.887
0
LINE
8
Black
10
27.0929
20
-125.887
11
27.5214
21
-125.887
0
LINE
8
Black
10
27.5214
20
-125.887
11
27.8071
21
-126.03
0
LINE
8
Black
10
27.8071
20
-126.03
11
27.95
21
-126.316
0
LINE
8
Black
10
27.95
20
-126.316
11
27.95
21
-127.887
0
LINE
8
Black
10
27.95
20
-126.316
11
28.0929
21
-126.03
0
LINE
8
Black
10
28.0929
20
-126.03
11
28.3786
21
-125.887
0
LINE
8
Black
10
28.3786
20
-125.887
11
28.8071
21
-125.887
0
LINE
8
Black
10
28.8071
20
-125.887
11
29.0929
21
-126.03
0
LINE
8
Black
10
29.0929
20
-126.03
11
29.2357
21
-126.316
0
LINE
8
Black
10
29.2357
20
-126.316
11
29.2357
21
-127.887
0
LINE
8
Black
10
35.0929
20
-124.744
11
32.5214
21
-128.601
0
LINE
8
Black
10
38.95
20
-124.887
11
39.2357
21
-124.887
0
LINE
8
Black
10
39.2357
20
-124.887
11
39.5214
21
-125.03
0
LINE
8
Black
10
39.5214
20
-125.03
11
39.6643
21
-125.173
0
LINE
8
Black
10
39.6643
20
-125.173
11
39.8071
21
-125.459
0
LINE
8
Black
10
39.8071
20
-125.459
11
39.95
21
-126.03
0
LINE
8
Black
10
39.95
20
-126.03
11
39.95
21
-126.744
0
LINE
8
Black
10
39.95
20
-126.744
11
39.8071
21
-127.316
0
LINE
8
Black
10
39.8071
20
-127.316
11
39.6643
21
-127.601
0
LINE
8
Black
10
39.6643
20
-127.601
11
39.5214
21
-127.744
0
LINE
8
Black
10
39.5214
20
-127.744
11
39.2357
21
-127.887
0
LINE
8
Black
10
39.2357
20
-127.887
11
38.95
21
-127.887
0
LINE
8
Black
10
38.95
20
-127.887
11
38.6643
21
-127.744
0
LINE
8
Black
10
38.6643
20
-127.744
11
38.5214
21
-127.601
0
LINE
8
Black
10
38.5214
20
-127.601
11
38.3786
21
-127.316
0
LINE
8
Black
10
38.3786
20
-127.316
11
38.2357
21
-126.744
0
LINE
8
Black
10
38.2357
20
-126.744
11
38.2357
21
-126.03
0
LINE
8
Black
10
38.2357
20
-126.03
11
38.3786
21
-125.459
0
LINE
8
Black
10
38.3786
20
-125.459
11
38.5214
21
-125.173
0
LINE
8
Black
10
38.5214
20
-125.173
11
38.6643
21
-125.03
0
LINE
8
Black
10
38.6643
20
-125.03
11
38.95
21
-124.887
0
LINE
8
Black
10
41.2357
20
-127.601
11
41.3786
21
-127.744
0
LINE
8
Black
10
41.3786
20
-127.744
11
41.2357
21
-127.887
0
LINE
8
Black
10
41.2357
20
-127.887
11
41.0929
21
-127.744
0
LINE
8
Black
10
41.0929
20
-127.744
11
41.2357
21
-127.601
0
LINE
8
Black
10
41.2357
20
-127.601
11
41.2357
21
-127.887
0
LINE
8
Black
10
44.2357
20
-127.887
11
42.5214
21
-127.887
0
LINE
8
Black
10
43.3786
20
-127.887
11
43.3786
21
-124.887
0
LINE
8
Black
10
43.3786
20
-124.887
11
43.0929
21
-125.316
0
LINE
8
Black
10
43.0929
20
-125.316
11
42.8071
21
-125.601
0
LINE
8
Black
10
42.8071
20
-125.601
11
42.5214
21
-125.744
0
LINE
8
Black
10
45.3786
20
-125.173
11
45.5214
21
-125.03
0
LINE
8
Black
10
45.5214
20
-125.03
11
45.8071
21
-124.887
0
LINE
8
Black
10
45.8071
20
-124.887
11
46.5214
21
-124.887
0
LINE
8
Black
10
46.5214
20
-124.887
11
46.8071
21
-125.03
0
LINE
8
Black
10
46.8071
20
-125.03
11
46.95
21
-125.173
0
LINE
8
Black
10
46.95
20
-125.173
11
47.0929
21
-125.459
0
LINE
8
Black
10
47.0929
20
-125.459
11
47.0929
21
-125.744
0
LINE
8
Black
10
47.0929
20
-125.744
11
46.95
21
-126.173
0
LINE
8
Black
10
46.95
20
-126.173
11
45.2357
21
-127.887
0
LINE
8
Black
10
45.2357
20
-127.887
11
47.0929
21
-127.887
0
LINE
8
Black
10
49.8071
20
-124.887
11
48.3786
21
-124.887
0
LINE
8
Black
10
48.3786
20
-124.887
11
48.2357
21
-126.316
0
LINE
8
Black
10
48.2357
20
-126.316
11
48.3786
21
-126.173
0
LINE
8
Black
10
48.3786
20
-126.173
11
48.6643
21
-126.03
0
LINE
8
Black
10
48.6643
20
-126.03
11
49.3786
21
-126.03
0
LINE
8
Black
10
49.3786
20
-126.03
11
49.6643
21
-126.173
0
LINE
8
Black
10
49.6643
20
-126.173
11
49.8071
21
-126.316
0
LINE
8
Black
10
49.8071
20
-126.316
11
49.95
21
-126.601
0
LINE
8
Black
10
49.95
20
-126.601
11
49.95
21
-127.316
0
LINE
8
Black
10
49.95
20
-127.316
11
49.8071
21
-127.601
0
LINE
8
Black
10
49.8071
20
-127.601
11
49.6643
21
-127.744
0
LINE
8
Black
10
49.6643
20
-127.744
11
49.3786
21
-127.887
0
LINE
8
Black
10
49.3786
20
-127.887
11
48.6643
21
-127.887
0
LINE
8
Black
10
48.6643
20
-127.887
11
48.3786
21
-127.744
0
LINE
8
Black
10
48.3786
20
-127.744
11
48.2357
21
-127.601
0
LINE
8
Black
10
51.0929
20
-124.887
11
51.0929
21
-125.459
0
LINE
8
Black
10
52.2357
20
-124.887
11
52.2357
21
-125.459
0
LINE
8
Black
10
56.6643
20
-129.03
11
56.5214
21
-128.887
0
LINE
8
Black
10
56.5214
20
-128.887
11
56.2357
21
-128.459
0
LINE
8
Black
10
56.2357
20
-128.459
11
56.0929
21
-128.173
0
LINE
8
Black
10
56.0929
20
-128.173
11
55.95
21
-127.744
0
LINE
8
Black
10
55.95
20
-127.744
11
55.8071
21
-127.03
0
LINE
8
Black
10
55.8071
20
-127.03
11
55.8071
21
-126.459
0
LINE
8
Black
10
55.8071
20
-126.459
11
55.95
21
-125.744
0
LINE
8
Black
10
55.95
20
-125.744
11
56.0929
21
-125.316
0
LINE
8
Black
10
56.0929
20
-125.316
11
56.2357
21
-125.03
0
LINE
8
Black
10
56.2357
20
-125.03
11
56.5214
21
-124.601
0
LINE
8
Black
10
56.5214
20
-124.601
11
56.6643
21
-124.459
0
LINE
8
Black
10
59.0929
20
-125.887
11
59.0929
21
-127.887
0
LINE
8
Black
10
58.3786
20
-124.744
11
57.6643
21
-126.887
0
LINE
8
Black
10
57.6643
20
-126.887
11
59.5214
21
-126.887
0
LINE
8
Black
10
62.95
20
-127.887
11
62.95
21
-124.887
0
LINE
8
Black
10
64.2357
20
-127.887
11
64.2357
21
-126.316
0
LINE
8
Black
10
64.2357
20
-126.316
11
64.0929
21
-126.03
0
LINE
8
Black
10
64.0929
20
-126.03
11
63.8071
21
-125.887
0
LINE
8
Black
10
63.8071
20
-125.887
11
63.3786
21
-125.887
0
LINE
8
Black
10
63.3786
20
-125.887
11
63.0929
21
-126.03
0
LINE
8
Black
10
63.0929
20
-126.03
11
62.95
21
-126.173
0
LINE
8
Black
10
66.0929
20
-127.887
11
65.8071
21
-127.744
0
LINE
8
Black
10
65.8071
20
-127.744
11
65.6643
21
-127.601
0
LINE
8
Black
10
65.6643
20
-127.601
11
65.5214
21
-127.316
0
LINE
8
Black
10
65.5214
20
-127.316
11
65.5214
21
-126.459
0
LINE
8
Black
10
65.5214
20
-126.459
11
65.6643
21
-126.173
0
LINE
8
Black
10
65.6643
20
-126.173
11
65.8071
21
-126.03
0
LINE
8
Black
10
65.8071
20
-126.03
11
66.0929
21
-125.887
0
LINE
8
Black
10
66.0929
20
-125.887
11
66.5214
21
-125.887
0
LINE
8
Black
10
66.5214
20
-125.887
11
66.8071
21
-126.03
0
LINE
8
Black
10
66.8071
20
-126.03
11
66.95
21
-126.173
0
LINE
8
Black
10
66.95
20
-126.173
11
67.0929
21
-126.459
0
LINE
8
Black
10
67.0929
20
-126.459
11
67.0929
21
-127.316
0
LINE
8
Black
10
67.0929
20
-127.316
11
66.95
21
-127.601
0
LINE
8
Black
10
66.95
20
-127.601
11
66.8071
21
-127.744
0
LINE
8
Black
10
66.8071
20
-127.744
11
66.5214
21
-127.887
0
LINE
8
Black
10
66.5214
20
-127.887
11
66.0929
21
-127.887
0
LINE
8
Black
10
68.8071
20
-127.887
11
68.5214
21
-127.744
0
LINE
8
Black
10
68.5214
20
-127.744
11
68.3786
21
-127.459
0
LINE
8
Black
10
68.3786
20
-127.459
11
68.3786
21
-124.887
0
LINE
8
Black
10
71.0929
20
-127.744
11
70.8071
21
-127.887
0
LINE
8
Black
10
70.8071
20
-127.887
11
70.2357
21
-127.887
0
LINE
8
Black
10
70.2357
20
-127.887
11
69.95
21
-127.744
0
LINE
8
Black
10
69.95
20
-127.744
11
69.8071
21
-127.459
0
LINE
8
Black
10
69.8071
20
-127.459
11
69.8071
21
-126.316
0
LINE
8
Black
10
69.8071
20
-126.316
11
69.95
21
-126.03
0
LINE
8
Black
10
69.95
20
-126.03
11
70.2357
21
-125.887
0
LINE
8
Black
10
70.2357
20
-125.887
11
70.8071
21
-125.887
0
LINE
8
Black
10
70.8071
20
-125.887
11
71.0929
21
-126.03
0
LINE
8
Black
10
71.0929
20
-126.03
11
71.2357
21
-126.316
0
LINE
8
Black
10
71.2357
20
-126.316
11
71.2357
21
-126.601
0
LINE
8
Black
10
71.2357
20
-126.601
11
69.8071
21
-126.887
0
LINE
8
Black
10
72.3786
20
-127.744
11
72.6643
21
-127.887
0
LINE
8
Black
10
72.6643
20
-127.887
11
73.2357
21
-127.887
0
LINE
8
Black
10
73.2357
20
-127.887
11
73.5214
21
-127.744
0
LINE
8
Black
10
73.5214
20
-127.744
11
73.6643
21
-127.459
0
LINE
8
Black
10
73.6643
20
-127.459
11
73.6643
21
-127.316
0
LINE
8
Black
10
73.6643
20
-127.316
11
73.5214
21
-127.03
0
LINE
8
Black
10
73.5214
20
-127.03
11
73.2357
21
-126.887
0
LINE
8
Black
10
73.2357
20
-126.887
11
72.8071
21
-126.887
0
LINE
8
Black
10
72.8071
20
-126.887
11
72.5214
21
-126.744
0
LINE
8
Black
10
72.5214
20
-126.744
11
72.3786
21
-126.459
0
LINE
8
Black
10
72.3786
20
-126.459
11
72.3786
21
-126.316
0
LINE
8
Black
10
72.3786
20
-126.316
11
72.5214
21
-126.03
0
LINE
8
Black
10
72.5214
20
-126.03
11
72.8071
21
-125.887
0
LINE
8
Black
10
72.8071
20
-125.887
11
73.2357
21
-125.887
0
LINE
8
Black
10
73.2357
20
-125.887
11
73.5214
21
-126.03
0
LINE
8
Black
10
74.6643
20
-129.03
11
74.8071
21
-128.887
0
LINE
8
Black
10
74.8071
20
-128.887
11
75.0929
21
-128.459
0
LINE
8
Black
10
75.0929
20
-128.459
11
75.2357
21
-128.173
0
LINE
8
Black
10
75.2357
20
-128.173
11
75.3786
21
-127.744
0
LINE
8
Black
10
75.3786
20
-127.744
11
75.5214
21
-127.03
0
LINE
8
Black
10
75.5214
20
-127.03
11
75.5214
21
-126.459
0
LINE
8
Black
10
75.5214
20
-126.459
11
75.3786
21
-125.744
0
LINE
8
Black
10
75.3786
20
-125.744
11
75.2357
21
-125.316
0
LINE
8
Black
10
75.2357
20
-125.316
11
75.0929
21
-125.03
0
LINE
8
Black
10
75.0929
20
-125.03
11
74.8071
21
-124.601
0
LINE
8
Black
10
74.8071
20
-124.601
11
74.6643
21
-124.459
0
LINE
8
Black
10
8.0323
20
-132.923
11
9.95
21
-131.005
0
LINE
8
Black
10
9.95
20
-131.005
11
8.0323
21
-129.087
0
LINE
8
Black
10
8.0323
20
-129.087
11
6.1146
21
-131.005
0
LINE
8
Black
10
6.1146
20
-131.005
11
8.0323
21
-132.923
0
LINE
8
Black
10
12.3786
20
-129.362
11
14.2357
21
-129.362
0
LINE
8
Black
10
14.2357
20
-129.362
11
13.2357
21
-130.505
0
LINE
8
Black
10
13.2357
20
-130.505
11
13.6643
21
-130.505
0
LINE
8
Black
10
13.6643
20
-130.505
11
13.95
21
-130.648
0
LINE
8
Black
10
13.95
20
-130.648
11
14.0929
21
-130.791
0
LINE
8
Black
10
14.0929
20
-130.791
11
14.2357
21
-131.076
0
LINE
8
Black
10
14.2357
20
-131.076
11
14.2357
21
-131.791
0
LINE
8
Black
10
14.2357
20
-131.791
11
14.0929
21
-132.076
0
LINE
8
Black
10
14.0929
20
-132.076
11
13.95
21
-132.219
0
LINE
8
Black
10
13.95
20
-132.219
11
13.6643
21
-132.362
0
LINE
8
Black
10
13.6643
20
-132.362
11
12.8071
21
-132.362
0
LINE
8
Black
10
12.8071
20
-132.362
11
12.5214
21
-132.219
0
LINE
8
Black
10
12.5214
20
-132.219
11
12.3786
21
-132.076
0
LINE
8
Black
10
15.5214
20
-132.076
11
15.6643
21
-132.219
0
LINE
8
Black
10
15.6643
20
-132.219
11
15.5214
21
-132.362
0
LINE
8
Black
10
15.5214
20
-132.362
11
15.3786
21
-132.219
0
LINE
8
Black
10
15.3786
20
-132.219
11
15.5214
21
-132.076
0
LINE
8
Black
10
15.5214
20
-132.076
11
15.5214
21
-132.362
0
LINE
8
Black
10
17.3786
20
-130.648
11
17.0929
21
-130.505
0
LINE
8
Black
10
17.0929
20
-130.505
11
16.95
21
-130.362
0
LINE
8
Black
10
16.95
20
-130.362
11
16.8071
21
-130.076
0
LINE
8
Black
10
16.8071
20
-130.076
11
16.8071
21
-129.934
0
LINE
8
Black
10
16.8071
20
-129.934
11
16.95
21
-129.648
0
LINE
8
Black
10
16.95
20
-129.648
11
17.0929
21
-129.505
0
LINE
8
Black
10
17.0929
20
-129.505
11
17.3786
21
-129.362
0
LINE
8
Black
10
17.3786
20
-129.362
11
17.95
21
-129.362
0
LINE
8
Black
10
17.95
20
-129.362
11
18.2357
21
-129.505
0
LINE
8
Black
10
18.2357
20
-129.505
11
18.3786
21
-129.648
0
LINE
8
Black
10
18.3786
20
-129.648
11
18.5214
21
-129.934
0
LINE
8
Black
10
18.5214
20
-129.934
11
18.5214
21
-130.076
0
LINE
8
Black
10
18.5214
20
-130.076
11
18.3786
21
-130.362
0
LINE
8
Black
10
18.3786
20
-130.362
11
18.2357
21
-130.505
0
LINE
8
Black
10
18.2357
20
-130.505
11
17.95
21
-130.648
0
LINE
8
Black
10
17.95
20
-130.648
11
17.3786
21
-130.648
0
LINE
8
Black
10
17.3786
20
-130.648
11
17.0929
21
-130.791
0
LINE
8
Black
10
17.0929
20
-130.791
11
16.95
21
-130.934
0
LINE
8
Black
10
16.95
20
-130.934
11
16.8071
21
-131.219
0
LINE
8
Black
10
16.8071
20
-131.219
11
16.8071
21
-131.791
0
LINE
8
Black
10
16.8071
20
-131.791
11
16.95
21
-132.076
0
LINE
8
Black
10
16.95
20
-132.076
11
17.0929
21
-132.219
0
LINE
8
Black
10
17.0929
20
-132.219
11
17.3786
21
-132.362
0
LINE
8
Black
10
17.3786
20
-132.362
11
17.95
21
-132.362
0
LINE
8
Black
10
17.95
20
-132.362
11
18.2357
21
-132.219
0
LINE
8
Black
10
18.2357
20
-132.219
11
18.3786
21
-132.076
0
LINE
8
Black
10
18.3786
20
-132.076
11
18.5214
21
-131.791
0
LINE
8
Black
10
18.5214
20
-131.791
11
18.5214
21
-131.219
0
LINE
8
Black
10
18.5214
20
-131.219
11
18.3786
21
-130.934
0
LINE
8
Black
10
18.3786
20
-130.934
11
18.2357
21
-130.791
0
LINE
8
Black
10
18.2357
20
-130.791
11
17.95
21
-130.648
0
LINE
8
Black
10
21.0929
20
-130.362
11
21.0929
21
-132.362
0
LINE
8
Black
10
20.3786
20
-129.219
11
19.6643
21
-131.362
0
LINE
8
Black
10
19.6643
20
-131.362
11
21.5214
21
-131.362
0
LINE
8
Black
10
22.6643
20
-132.362
11
22.6643
21
-130.362
0
LINE
8
Black
10
22.6643
20
-130.648
11
22.8071
21
-130.505
0
LINE
8
Black
10
22.8071
20
-130.505
11
23.0929
21
-130.362
0
LINE
8
Black
10
23.0929
20
-130.362
11
23.5214
21
-130.362
0
LINE
8
Black
10
23.5214
20
-130.362
11
23.8071
21
-130.505
0
LINE
8
Black
10
23.8071
20
-130.505
11
23.95
21
-130.791
0
LINE
8
Black
10
23.95
20
-130.791
11
23.95
21
-132.362
0
LINE
8
Black
10
23.95
20
-130.791
11
24.0929
21
-130.505
0
LINE
8
Black
10
24.0929
20
-130.505
11
24.3786
21
-130.362
0
LINE
8
Black
10
24.3786
20
-130.362
11
24.8071
21
-130.362
0
LINE
8
Black
10
24.8071
20
-130.362
11
25.0929
21
-130.505
0
LINE
8
Black
10
25.0929
20
-130.505
11
25.2357
21
-130.791
0
LINE
8
Black
10
25.2357
20
-130.791
11
25.2357
21
-132.362
0
LINE
8
Black
10
26.6643
20
-132.362
11
26.6643
21
-130.362
0
LINE
8
Black
10
26.6643
20
-130.648
11
26.8071
21
-130.505
0
LINE
8
Black
10
26.8071
20
-130.505
11
27.0929
21
-130.362
0
LINE
8
Black
10
27.0929
20
-130.362
11
27.5214
21
-130.362
0
LINE
8
Black
10
27.5214
20
-130.362
11
27.8071
21
-130.505
0
LINE
8
Black
10
27.8071
20
-130.505
11
27.95
21
-130.791
0
LINE
8
Black
10
27.95
20
-130.791
11
27.95
21
-132.362
0
LINE
8
Black
10
27.95
20
-130.791
11
28.0929
21
-130.505
0
LINE
8
Black
10
28.0929
20
-130.505
11
28.3786
21
-130.362
0
LINE
8
Black
10
28.3786
20
-130.362
11
28.8071
21
-130.362
0
LINE
8
Black
10
28.8071
20
-130.362
11
29.0929
21
-130.505
0
LINE
8
Black
10
29.0929
20
-130.505
11
29.2357
21
-130.791
0
LINE
8
Black
10
29.2357
20
-130.791
11
29.2357
21
-132.362
0
LINE
8
Black
10
35.0929
20
-129.219
11
32.5214
21
-133.076
0
LINE
8
Black
10
38.95
20
-129.362
11
39.2357
21
-129.362
0
LINE
8
Black
10
39.2357
20
-129.362
11
39.5214
21
-129.505
0
LINE
8
Black
10
39.5214
20
-129.505
11
39.6643
21
-129.648
0
LINE
8
Black
10
39.6643
20
-129.648
11
39.8071
21
-129.934
0
LINE
8
Black
10
39.8071
20
-129.934
11
39.95
21
-130.505
0
LINE
8
Black
10
39.95
20
-130.505
11
39.95
21
-131.219
0
LINE
8
Black
10
39.95
20
-131.219
11
39.8071
21
-131.791
0
LINE
8
Black
10
39.8071
20
-131.791
11
39.6643
21
-132.076
0
LINE
8
Black
10
39.6643
20
-132.076
11
39.5214
21
-132.219
0
LINE
8
Black
10
39.5214
20
-132.219
11
39.2357
21
-132.362
0
LINE
8
Black
10
39.2357
20
-132.362
11
38.95
21
-132.362
0
LINE
8
Black
10
38.95
20
-132.362
11
38.6643
21
-132.219
0
LINE
8
Black
10
38.6643
20
-132.219
11
38.5214
21
-132.076
0
LINE
8
Black
10
38.5214
20
-132.076
11
38.3786
21
-131.791
0
LINE
8
Black
10
38.3786
20
-131.791
11
38.2357
21
-131.219
0
LINE
8
Black
10
38.2357
20
-131.219
11
38.2357
21
-130.505
0
LINE
8
Black
10
38.2357
20
-130.505
11
38.3786
21
-129.934
0
LINE
8
Black
10
38.3786
20
-129.934
11
38.5214
21
-129.648
0
LINE
8
Black
10
38.5214
20
-129.648
11
38.6643
21
-129.505
0
LINE
8
Black
10
38.6643
20
-129.505
11
38.95
21
-129.362
0
LINE
8
Black
10
41.2357
20
-132.076
11
41.3786
21
-132.219
0
LINE
8
Black
10
41.3786
20
-132.219
11
41.2357
21
-132.362
0
LINE
8
Black
10
41.2357
20
-132.362
11
41.0929
21
-132.219
0
LINE
8
Black
10
41.0929
20
-132.219
11
41.2357
21
-132.076
0
LINE
8
Black
10
41.2357
20
-132.076
11
41.2357
21
-132.362
0
LINE
8
Black
10
44.2357
20
-132.362
11
42.5214
21
-132.362
0
LINE
8
Black
10
43.3786
20
-132.362
11
43.3786
21
-129.362
0
LINE
8
Black
10
43.3786
20
-129.362
11
43.0929
21
-129.791
0
LINE
8
Black
10
43.0929
20
-129.791
11
42.8071
21
-130.076
0
LINE
8
Black
10
42.8071
20
-130.076
11
42.5214
21
-130.219
0
LINE
8
Black
10
46.95
20
-129.362
11
45.5214
21
-129.362
0
LINE
8
Black
10
45.5214
20
-129.362
11
45.3786
21
-130.791
0
LINE
8
Black
10
45.3786
20
-130.791
11
45.5214
21
-130.648
0
LINE
8
Black
10
45.5214
20
-130.648
11
45.8071
21
-130.505
0
LINE
8
Black
10
45.8071
20
-130.505
11
46.5214
21
-130.505
0
LINE
8
Black
10
46.5214
20
-130.505
11
46.8071
21
-130.648
0
LINE
8
Black
10
46.8071
20
-130.648
11
46.95
21
-130.791
0
LINE
8
Black
10
46.95
20
-130.791
11
47.0929
21
-131.076
0
LINE
8
Black
10
47.0929
20
-131.076
11
47.0929
21
-131.791
0
LINE
8
Black
10
47.0929
20
-131.791
11
46.95
21
-132.076
0
LINE
8
Black
10
46.95
20
-132.076
11
46.8071
21
-132.219
0
LINE
8
Black
10
46.8071
20
-132.219
11
46.5214
21
-132.362
0
LINE
8
Black
10
46.5214
20
-132.362
11
45.8071
21
-132.362
0
LINE
8
Black
10
45.8071
20
-132.362
11
45.5214
21
-132.219
0
LINE
8
Black
10
45.5214
20
-132.219
11
45.3786
21
-132.076
0
LINE
8
Black
10
49.95
20
-132.362
11
48.2357
21
-132.362
0
LINE
8
Black
10
49.0929
20
-132.362
11
49.0929
21
-129.362
0
LINE
8
Black
10
49.0929
20
-129.362
11
48.8071
21
-129.791
0
LINE
8
Black
10
48.8071
20
-129.791
11
48.5214
21
-130.076
0
LINE
8
Black
10
48.5214
20
-130.076
11
48.2357
21
-130.219
0
LINE
8
Black
10
51.0929
20
-129.362
11
51.0929
21
-129.934
0
LINE
8
Black
10
52.2357
20
-129.362
11
52.2357
21
-129.934
0
LINE
8
Black
10
56.6643
20
-133.505
11
56.5214
21
-133.362
0
LINE
8
Black
10
56.5214
20
-133.362
11
56.2357
21
-132.934
0
LINE
8
Black
10
56.2357
20
-132.934
11
56.0929
21
-132.648
0
LINE
8
Black
10
56.0929
20
-132.648
11
55.95
21
-132.219
0
LINE
8
Black
10
55.95
20
-132.219
11
55.8071
21
-131.505
0
LINE
8
Black
10
55.8071
20
-131.505
11
55.8071
21
-130.934
0
LINE
8
Black
10
55.8071
20
-130.934
11
55.95
21
-130.219
0
LINE
8
Black
10
55.95
20
-130.219
11
56.0929
21
-129.791
0
LINE
8
Black
10
56.0929
20
-129.791
11
56.2357
21
-129.505
0
LINE
8
Black
10
56.2357
20
-129.505
11
56.5214
21
-129.076
0
LINE
8
Black
10
56.5214
20
-129.076
11
56.6643
21
-128.934
0
LINE
8
Black
10
58.2357
20
-130.648
11
57.95
21
-130.505
0
LINE
8
Black
10
57.95
20
-130.505
11
57.8071
21
-130.362
0
LINE
8
Black
10
57.8071
20
-130.362
11
57.6643
21
-130.076
0
LINE
8
Black
10
57.6643
20
-130.076
11
57.6643
21
-129.934
0
LINE
8
Black
10
57.6643
20
-129.934
11
57.8071
21
-129.648
0
LINE
8
Black
10
57.8071
20
-129.648
11
57.95
21
-129.505
0
LINE
8
Black
10
57.95
20
-129.505
11
58.2357
21
-129.362
0
LINE
8
Black
10
58.2357
20
-129.362
11
58.8071
21
-129.362
0
LINE
8
Black
10
58.8071
20
-129.362
11
59.0929
21
-129.505
0
LINE
8
Black
10
59.0929
20
-129.505
11
59.2357
21
-129.648
0
LINE
8
Black
10
59.2357
20
-129.648
11
59.3786
21
-129.934
0
LINE
8
Black
10
59.3786
20
-129.934
11
59.3786
21
-130.076
0
LINE
8
Black
10
59.3786
20
-130.076
11
59.2357
21
-130.362
0
LINE
8
Black
10
59.2357
20
-130.362
11
59.0929
21
-130.505
0
LINE
8
Black
10
59.0929
20
-130.505
11
58.8071
21
-130.648
0
LINE
8
Black
10
58.8071
20
-130.648
11
58.2357
21
-130.648
0
LINE
8
Black
10
58.2357
20
-130.648
11
57.95
21
-130.791
0
LINE
8
Black
10
57.95
20
-130.791
11
57.8071
21
-130.934
0
LINE
8
Black
10
57.8071
20
-130.934
11
57.6643
21
-131.219
0
LINE
8
Black
10
57.6643
20
-131.219
11
57.6643
21
-131.791
0
LINE
8
Black
10
57.6643
20
-131.791
11
57.8071
21
-132.076
0
LINE
8
Black
10
57.8071
20
-132.076
11
57.95
21
-132.219
0
LINE
8
Black
10
57.95
20
-132.219
11
58.2357
21
-132.362
0
LINE
8
Black
10
58.2357
20
-132.362
11
58.8071
21
-132.362
0
LINE
8
Black
10
58.8071
20
-132.362
11
59.0929
21
-132.219
0
LINE
8
Black
10
59.0929
20
-132.219
11
59.2357
21
-132.076
0
LINE
8
Black
10
59.2357
20
-132.076
11
59.3786
21
-131.791
0
LINE
8
Black
10
59.3786
20
-131.791
11
59.3786
21
-131.219
0
LINE
8
Black
10
59.3786
20
-131.219
11
59.2357
21
-130.934
0
LINE
8
Black
10
59.2357
20
-130.934
11
59.0929
21
-130.791
0
LINE
8
Black
10
59.0929
20
-130.791
11
58.8071
21
-130.648
0
LINE
8
Black
10
62.95
20
-132.362
11
62.95
21
-129.362
0
LINE
8
Black
10
64.2357
20
-132.362
11
64.2357
21
-130.791
0
LINE
8
Black
10
64.2357
20
-130.791
11
64.0929
21
-130.505
0
LINE
8
Black
10
64.0929
20
-130.505
11
63.8071
21
-130.362
0
LINE
8
Black
10
63.8071
20
-130.362
11
63.3786
21
-130.362
0
LINE
8
Black
10
63.3786
20
-130.362
11
63.0929
21
-130.505
0
LINE
8
Black
10
63.0929
20
-130.505
11
62.95
21
-130.648
0
LINE
8
Black
10
66.0929
20
-132.362
11
65.8071
21
-132.219
0
LINE
8
Black
10
65.8071
20
-132.219
11
65.6643
21
-132.076
0
LINE
8
Black
10
65.6643
20
-132.076
11
65.5214
21
-131.791
0
LINE
8
Black
10
65.5214
20
-131.791
11
65.5214
21
-130.934
0
LINE
8
Black
10
65.5214
20
-130.934
11
65.6643
21
-130.648
0
LINE
8
Black
10
65.6643
20
-130.648
11
65.8071
21
-130.505
0
LINE
8
Black
10
65.8071
20
-130.505
11
66.0929
21
-130.362
0
LINE
8
Black
10
66.0929
20
-130.362
11
66.5214
21
-130.362
0
LINE
8
Black
10
66.5214
20
-130.362
11
66.8071
21
-130.505
0
LINE
8
Black
10
66.8071
20
-130.505
11
66.95
21
-130.648
0
LINE
8
Black
10
66.95
20
-130.648
11
67.0929
21
-130.934
0
LINE
8
Black
10
67.0929
20
-130.934
11
67.0929
21
-131.791
0
LINE
8
Black
10
67.0929
20
-131.791
11
66.95
21
-132.076
0
LINE
8
Black
10
66.95
20
-132.076
11
66.8071
21
-132.219
0
LINE
8
Black
10
66.8071
20
-132.219
11
66.5214
21
-132.362
0
LINE
8
Black
10
66.5214
20
-132.362
11
66.0929
21
-132.362
0
LINE
8
Black
10
68.8071
20
-132.362
11
68.5214
21
-132.219
0
LINE
8
Black
10
68.5214
20
-132.219
11
68.3786
21
-131.934
0
LINE
8
Black
10
68.3786
20
-131.934
11
68.3786
21
-129.362
0
LINE
8
Black
10
71.0929
20
-132.219
11
70.8071
21
-132.362
0
LINE
8
Black
10
70.8071
20
-132.362
11
70.2357
21
-132.362
0
LINE
8
Black
10
70.2357
20
-132.362
11
69.95
21
-132.219
0
LINE
8
Black
10
69.95
20
-132.219
11
69.8071
21
-131.934
0
LINE
8
Black
10
69.8071
20
-131.934
11
69.8071
21
-130.791
0
LINE
8
Black
10
69.8071
20
-130.791
11
69.95
21
-130.505
0
LINE
8
Black
10
69.95
20
-130.505
11
70.2357
21
-130.362
0
LINE
8
Black
10
70.2357
20
-130.362
11
70.8071
21
-130.362
0
LINE
8
Black
10
70.8071
20
-130.362
11
71.0929
21
-130.505
0
LINE
8
Black
10
71.0929
20
-130.505
11
71.2357
21
-130.791
0
LINE
8
Black
10
71.2357
20
-130.791
11
71.2357
21
-131.076
0
LINE
8
Black
10
71.2357
20
-131.076
11
69.8071
21
-131.362
0
LINE
8
Black
10
72.3786
20
-132.219
11
72.6643
21
-132.362
0
LINE
8
Black
10
72.6643
20
-132.362
11
73.2357
21
-132.362
0
LINE
8
Black
10
73.2357
20
-132.362
11
73.5214
21
-132.219
0
LINE
8
Black
10
73.5214
20
-132.219
11
73.6643
21
-131.934
0
LINE
8
Black
10
73.6643
20
-131.934
11
73.6643
21
-131.791
0
LINE
8
Black
10
73.6643
20
-131.791
11
73.5214
21
-131.505
0
LINE
8
Black
10
73.5214
20
-131.505
11
73.2357
21
-131.362
0
LINE
8
Black
10
73.2357
20
-131.362
11
72.8071
21
-131.362
0
LINE
8
Black
10
72.8071
20
-131.362
11
72.5214
21
-131.219
0
LINE
8
Black
10
72.5214
20
-131.219
11
72.3786
21
-130.934
0
LINE
8
Black
10
72.3786
20
-130.934
11
72.3786
21
-130.791
0
LINE
8
Black
10
72.3786
20
-130.791
11
72.5214
21
-130.505
0
LINE
8
Black
10
72.5214
20
-130.505
11
72.8071
21
-130.362
0
LINE
8
Black
10
72.8071
20
-130.362
11
73.2357
21
-130.362
0
LINE
8
Black
10
73.2357
20
-130.362
11
73.5214
21
-130.505
0
LINE
8
Black
10
74.6643
20
-133.505
11
74.8071
21
-133.362
0
LINE
8
Black
10
74.8071
20
-133.362
11
75.0929
21
-132.934
0
LINE
8
Black
10
75.0929
20
-132.934
11
75.2357
21
-132.648
0
LINE
8
Black
10
75.2357
20
-132.648
11
75.3786
21
-132.219
0
LINE
8
Black
10
75.3786
20
-132.219
11
75.5214
21
-131.505
0
LINE
8
Black
10
75.5214
20
-131.505
11
75.5214
21
-130.934
0
LINE
8
Black
10
75.5214
20
-130.934
11
75.3786
21
-130.219
0
LINE
8
Black
10
75.3786
20
-130.219
11
75.2357
21
-129.791
0
LINE
8
Black
10
75.2357
20
-129.791
11
75.0929
21
-129.505
0
LINE
8
Black
10
75.0929
20
-129.505
11
74.8071
21
-129.076
0
LINE
8
Black
10
74.8071
20
-129.076
11
74.6643
21
-128.934
  0
ENDSEC
  0
EOF
