  0
SECTION
  2
HEADER
  9
$ANGBASE
  50
0.0
  9
$ANGDIR
  70
  1
  9
$MEASUREMENT
  70
0
  0
ENDSEC
  0
SECTION
  2
TABLES
  0
TABLE
  2
LTYPE
  70
1
  0
LTYPE
  2
CONTINUOUS
  70
0
  3
Solid line
  72
65
  73
0
  40
0.0
  0
ENDTAB
  0
TABLE
  2
STYLE
  70
4
  0
STYLE
  2
KICAD
  70
0
  40
0
  41
1
  42
1
  50
0
  71
0
  3
isocp.shx
  0
STYLE
  2
KICADB
  70
0
  40
0
  41
1
  42
1
  50
0
  71
0
  3
isocp.shx
  0
STYLE
  2
KICADI
  70
0
  40
0
  41
1
  42
1
  50
15
  71
0
  3
isocp.shx
  0
STYLE
  2
KICADBI
  70
0
  40
0
  41
1
  42
1
  50
15
  71
0
  3
isocp.shx
  0
ENDTAB
  0
TABLE
  2
LAYER
  70
30
  0
LAYER
  2
BLACK
  70
0
  62
7
  6
CONTINUOUS
  0
LAYER
  2
GRAY1
  70
0
  62
251
  6
CONTINUOUS
  0
LAYER
  2
GRAY2
  70
0
  62
8
  6
CONTINUOUS
  0
LAYER
  2
GRAY3
  70
0
  62
9
  6
CONTINUOUS
  0
LAYER
  2
WHITE
  70
0
  62
7
  6
CONTINUOUS
  0
LAYER
  2
LYELLOW
  70
0
  62
51
  6
CONTINUOUS
  0
LAYER
  2
BLUE1
  70
0
  62
178
  6
CONTINUOUS
  0
LAYER
  2
GREEN1
  70
0
  62
98
  6
CONTINUOUS
  0
LAYER
  2
CYAN1
  70
0
  62
138
  6
CONTINUOUS
  0
LAYER
  2
RED1
  70
0
  62
18
  6
CONTINUOUS
  0
LAYER
  2
MAGENTA1
  70
0
  62
228
  6
CONTINUOUS
  0
LAYER
  2
BROWN1
  70
0
  62
58
  6
CONTINUOUS
  0
LAYER
  2
BLUE2
  70
0
  62
5
  6
CONTINUOUS
  0
LAYER
  2
GREEN2
  70
0
  62
3
  6
CONTINUOUS
  0
LAYER
  2
CYAN2
  70
0
  62
4
  6
CONTINUOUS
  0
LAYER
  2
RED2
  70
0
  62
1
  6
CONTINUOUS
  0
LAYER
  2
MAGENTA2
  70
0
  62
6
  6
CONTINUOUS
  0
LAYER
  2
BROWN2
  70
0
  62
54
  6
CONTINUOUS
  0
LAYER
  2
BLUE3
  70
0
  62
171
  6
CONTINUOUS
  0
LAYER
  2
GREEN3
  70
0
  62
91
  6
CONTINUOUS
  0
LAYER
  2
CYAN3
  70
0
  62
131
  6
CONTINUOUS
  0
LAYER
  2
RED3
  70
0
  62
11
  6
CONTINUOUS
  0
LAYER
  2
MAGENTA3
  70
0
  62
221
  6
CONTINUOUS
  0
LAYER
  2
YELLOW3
  70
0
  62
2
  6
CONTINUOUS
  0
LAYER
  2
BLUE4
  70
0
  62
5
  6
CONTINUOUS
  0
LAYER
  2
GREEN4
  70
0
  62
3
  6
CONTINUOUS
  0
LAYER
  2
CYAN4
  70
0
  62
4
  6
CONTINUOUS
  0
LAYER
  2
RED4
  70
0
  62
1
  6
CONTINUOUS
  0
LAYER
  2
MAGENTA4
  70
0
  62
6
  6
CONTINUOUS
  0
LAYER
  2
YELLOW4
  70
0
  62
2
  6
CONTINUOUS
  0
ENDTAB
  0
ENDSEC
  0
SECTION
  2
ENTITIES
0
LINE
8
Black
10
65.05
20
-134
11
65.05
21
-51
0
LINE
8
Black
10
64.95
20
-134
11
64.95
21
-51
0
ARC
8
Black
10
65
20
-51
40
0.05
50
360
51
540
0
ARC
8
Black
10
65
20
-134
40
0.05
50
180
51
360
0
LINE
8
Black
10
71
20
-140.05
11
154
21
-140.05
0
LINE
8
Black
10
71
20
-139.95
11
154
21
-139.95
0
ARC
8
Black
10
154
20
-140
40
0.05
50
270
51
450
0
ARC
8
Black
10
71
20
-140
40
0.05
50
90
51
270
0
LINE
8
Black
10
160.05
20
-134
11
160.05
21
-51
0
LINE
8
Black
10
159.95
20
-134
11
159.95
21
-51
0
ARC
8
Black
10
160
20
-51
40
0.05
50
360
51
540
0
ARC
8
Black
10
160
20
-134
40
0.05
50
180
51
360
0
LINE
8
Black
10
71
20
-45.05
11
154
21
-45.05
0
LINE
8
Black
10
71
20
-44.95
11
154
21
-44.95
0
ARC
8
Black
10
154
20
-45
40
0.05
50
270
51
450
0
ARC
8
Black
10
71
20
-45
40
0.05
50
90
51
270
0
ARC
8
Black
10
71
20
-134
40
6
50
-180
51
-90
0
ARC
8
Black
10
154
20
-134
40
6
50
-90
51
-0
0
ARC
8
Black
10
154
20
-51
40
6
50
-0
51
90
0
ARC
8
Black
10
71
20
-51
40
6
50
90
51
180
0
LINE
8
Black
10
87.4
20
-122.5
11
88.4
21
-123.5
0
LINE
8
Black
10
88.4
20
-122.5
11
87.4
21
-123.5
0
LINE
8
Black
10
87.4
20
-125.04
11
88.4
21
-126.04
0
LINE
8
Black
10
88.4
20
-125.04
11
87.4
21
-126.04
0
LINE
8
Black
10
89.94
20
-122.5
11
90.94
21
-123.5
0
LINE
8
Black
10
90.94
20
-122.5
11
89.94
21
-123.5
0
LINE
8
Black
10
89.94
20
-125.04
11
90.94
21
-126.04
0
LINE
8
Black
10
90.94
20
-125.04
11
89.94
21
-126.04
0
LINE
8
Black
10
92.48
20
-122.5
11
93.48
21
-123.5
0
LINE
8
Black
10
93.48
20
-122.5
11
92.48
21
-123.5
0
LINE
8
Black
10
92.48
20
-125.04
11
93.48
21
-126.04
0
LINE
8
Black
10
93.48
20
-125.04
11
92.48
21
-126.04
0
LINE
8
Black
10
93.5
20
-58.96
11
94.5
21
-59.96
0
LINE
8
Black
10
94.5
20
-58.96
11
93.5
21
-59.96
0
LINE
8
Black
10
93.5
20
-61.5
11
94.5
21
-62.5
0
LINE
8
Black
10
94.5
20
-61.5
11
93.5
21
-62.5
0
LINE
8
Black
10
95.02
20
-122.5
11
96.02
21
-123.5
0
LINE
8
Black
10
96.02
20
-122.5
11
95.02
21
-123.5
0
LINE
8
Black
10
95.02
20
-125.04
11
96.02
21
-126.04
0
LINE
8
Black
10
96.02
20
-125.04
11
95.02
21
-126.04
0
LINE
8
Black
10
96.04
20
-58.96
11
97.04
21
-59.96
0
LINE
8
Black
10
97.04
20
-58.96
11
96.04
21
-59.96
0
LINE
8
Black
10
96.04
20
-61.5
11
97.04
21
-62.5
0
LINE
8
Black
10
97.04
20
-61.5
11
96.04
21
-62.5
0
LINE
8
Black
10
97.56
20
-122.5
11
98.56
21
-123.5
0
LINE
8
Black
10
98.56
20
-122.5
11
97.56
21
-123.5
0
LINE
8
Black
10
97.56
20
-125.04
11
98.56
21
-126.04
0
LINE
8
Black
10
98.56
20
-125.04
11
97.56
21
-126.04
0
LINE
8
Black
10
98.58
20
-58.96
11
99.58
21
-59.96
0
LINE
8
Black
10
99.58
20
-58.96
11
98.58
21
-59.96
0
LINE
8
Black
10
98.58
20
-61.5
11
99.58
21
-62.5
0
LINE
8
Black
10
99.58
20
-61.5
11
98.58
21
-62.5
0
LINE
8
Black
10
100.1
20
-122.5
11
101.1
21
-123.5
0
LINE
8
Black
10
101.1
20
-122.5
11
100.1
21
-123.5
0
LINE
8
Black
10
100.1
20
-125.04
11
101.1
21
-126.04
0
LINE
8
Black
10
101.1
20
-125.04
11
100.1
21
-126.04
0
LINE
8
Black
10
101.12
20
-58.96
11
102.12
21
-59.96
0
LINE
8
Black
10
102.12
20
-58.96
11
101.12
21
-59.96
0
LINE
8
Black
10
101.12
20
-61.5
11
102.12
21
-62.5
0
LINE
8
Black
10
102.12
20
-61.5
11
101.12
21
-62.5
0
LINE
8
Black
10
102.64
20
-122.5
11
103.64
21
-123.5
0
LINE
8
Black
10
103.64
20
-122.5
11
102.64
21
-123.5
0
LINE
8
Black
10
102.64
20
-125.04
11
103.64
21
-126.04
0
LINE
8
Black
10
103.64
20
-125.04
11
102.64
21
-126.04
0
LINE
8
Black
10
103.66
20
-58.96
11
104.66
21
-59.96
0
LINE
8
Black
10
104.66
20
-58.96
11
103.66
21
-59.96
0
LINE
8
Black
10
103.66
20
-61.5
11
104.66
21
-62.5
0
LINE
8
Black
10
104.66
20
-61.5
11
103.66
21
-62.5
0
LINE
8
Black
10
105.18
20
-122.5
11
106.18
21
-123.5
0
LINE
8
Black
10
106.18
20
-122.5
11
105.18
21
-123.5
0
LINE
8
Black
10
105.18
20
-125.04
11
106.18
21
-126.04
0
LINE
8
Black
10
106.18
20
-125.04
11
105.18
21
-126.04
0
LINE
8
Black
10
106.2
20
-58.96
11
107.2
21
-59.96
0
LINE
8
Black
10
107.2
20
-58.96
11
106.2
21
-59.96
0
LINE
8
Black
10
106.2
20
-61.5
11
107.2
21
-62.5
0
LINE
8
Black
10
107.2
20
-61.5
11
106.2
21
-62.5
0
LINE
8
Black
10
107.72
20
-122.5
11
108.72
21
-123.5
0
LINE
8
Black
10
108.72
20
-122.5
11
107.72
21
-123.5
0
LINE
8
Black
10
107.72
20
-125.04
11
108.72
21
-126.04
0
LINE
8
Black
10
108.72
20
-125.04
11
107.72
21
-126.04
0
LINE
8
Black
10
108.74
20
-58.96
11
109.74
21
-59.96
0
LINE
8
Black
10
109.74
20
-58.96
11
108.74
21
-59.96
0
LINE
8
Black
10
108.74
20
-61.5
11
109.74
21
-62.5
0
LINE
8
Black
10
109.74
20
-61.5
11
108.74
21
-62.5
0
LINE
8
Black
10
110.26
20
-122.5
11
111.26
21
-123.5
0
LINE
8
Black
10
111.26
20
-122.5
11
110.26
21
-123.5
0
LINE
8
Black
10
110.26
20
-125.04
11
111.26
21
-126.04
0
LINE
8
Black
10
111.26
20
-125.04
11
110.26
21
-126.04
0
LINE
8
Black
10
111.28
20
-58.96
11
112.28
21
-59.96
0
LINE
8
Black
10
112.28
20
-58.96
11
111.28
21
-59.96
0
LINE
8
Black
10
111.28
20
-61.5
11
112.28
21
-62.5
0
LINE
8
Black
10
112.28
20
-61.5
11
111.28
21
-62.5
0
LINE
8
Black
10
112.8
20
-122.5
11
113.8
21
-123.5
0
LINE
8
Black
10
113.8
20
-122.5
11
112.8
21
-123.5
0
LINE
8
Black
10
112.8
20
-125.04
11
113.8
21
-126.04
0
LINE
8
Black
10
113.8
20
-125.04
11
112.8
21
-126.04
0
LINE
8
Black
10
113.82
20
-58.96
11
114.82
21
-59.96
0
LINE
8
Black
10
114.82
20
-58.96
11
113.82
21
-59.96
0
LINE
8
Black
10
113.82
20
-61.5
11
114.82
21
-62.5
0
LINE
8
Black
10
114.82
20
-61.5
11
113.82
21
-62.5
0
LINE
8
Black
10
115.34
20
-122.5
11
116.34
21
-123.5
0
LINE
8
Black
10
116.34
20
-122.5
11
115.34
21
-123.5
0
LINE
8
Black
10
115.34
20
-125.04
11
116.34
21
-126.04
0
LINE
8
Black
10
116.34
20
-125.04
11
115.34
21
-126.04
0
LINE
8
Black
10
116.36
20
-58.96
11
117.36
21
-59.96
0
LINE
8
Black
10
117.36
20
-58.96
11
116.36
21
-59.96
0
LINE
8
Black
10
116.36
20
-61.5
11
117.36
21
-62.5
0
LINE
8
Black
10
117.36
20
-61.5
11
116.36
21
-62.5
0
LINE
8
Black
10
117.88
20
-122.5
11
118.88
21
-123.5
0
LINE
8
Black
10
118.88
20
-122.5
11
117.88
21
-123.5
0
LINE
8
Black
10
117.88
20
-125.04
11
118.88
21
-126.04
0
LINE
8
Black
10
118.88
20
-125.04
11
117.88
21
-126.04
0
LINE
8
Black
10
118.9
20
-58.96
11
119.9
21
-59.96
0
LINE
8
Black
10
119.9
20
-58.96
11
118.9
21
-59.96
0
LINE
8
Black
10
118.9
20
-61.5
11
119.9
21
-62.5
0
LINE
8
Black
10
119.9
20
-61.5
11
118.9
21
-62.5
0
LINE
8
Black
10
120.42
20
-122.5
11
121.42
21
-123.5
0
LINE
8
Black
10
121.42
20
-122.5
11
120.42
21
-123.5
0
LINE
8
Black
10
120.42
20
-125.04
11
121.42
21
-126.04
0
LINE
8
Black
10
121.42
20
-125.04
11
120.42
21
-126.04
0
LINE
8
Black
10
121.44
20
-58.96
11
122.44
21
-59.96
0
LINE
8
Black
10
122.44
20
-58.96
11
121.44
21
-59.96
0
LINE
8
Black
10
121.44
20
-61.5
11
122.44
21
-62.5
0
LINE
8
Black
10
122.44
20
-61.5
11
121.44
21
-62.5
0
LINE
8
Black
10
122.96
20
-122.5
11
123.96
21
-123.5
0
LINE
8
Black
10
123.96
20
-122.5
11
122.96
21
-123.5
0
LINE
8
Black
10
122.96
20
-125.04
11
123.96
21
-126.04
0
LINE
8
Black
10
123.96
20
-125.04
11
122.96
21
-126.04
0
LINE
8
Black
10
123.5
20
-73.5
11
124.5
21
-74.5
0
LINE
8
Black
10
124.5
20
-73.5
11
123.5
21
-74.5
0
LINE
8
Black
10
123.5
20
-76.04
11
124.5
21
-77.04
0
LINE
8
Black
10
124.5
20
-76.04
11
123.5
21
-77.04
0
LINE
8
Black
10
123.5
20
-78.58
11
124.5
21
-79.58
0
LINE
8
Black
10
124.5
20
-78.58
11
123.5
21
-79.58
0
LINE
8
Black
10
123.5
20
-81.12
11
124.5
21
-82.12
0
LINE
8
Black
10
124.5
20
-81.12
11
123.5
21
-82.12
0
LINE
8
Black
10
123.5
20
-83.66
11
124.5
21
-84.66
0
LINE
8
Black
10
124.5
20
-83.66
11
123.5
21
-84.66
0
LINE
8
Black
10
123.5
20
-86.2
11
124.5
21
-87.2
0
LINE
8
Black
10
124.5
20
-86.2
11
123.5
21
-87.2
0
LINE
8
Black
10
123.5
20
-88.74
11
124.5
21
-89.74
0
LINE
8
Black
10
124.5
20
-88.74
11
123.5
21
-89.74
0
LINE
8
Black
10
123.5
20
-91.28
11
124.5
21
-92.28
0
LINE
8
Black
10
124.5
20
-91.28
11
123.5
21
-92.28
0
LINE
8
Black
10
123.5
20
-93.82
11
124.5
21
-94.82
0
LINE
8
Black
10
124.5
20
-93.82
11
123.5
21
-94.82
0
LINE
8
Black
10
123.5
20
-96.36
11
124.5
21
-97.36
0
LINE
8
Black
10
124.5
20
-96.36
11
123.5
21
-97.36
0
LINE
8
Black
10
123.5
20
-98.9
11
124.5
21
-99.9
0
LINE
8
Black
10
124.5
20
-98.9
11
123.5
21
-99.9
0
LINE
8
Black
10
123.5
20
-101.44
11
124.5
21
-102.44
0
LINE
8
Black
10
124.5
20
-101.44
11
123.5
21
-102.44
0
LINE
8
Black
10
123.5
20
-103.98
11
124.5
21
-104.98
0
LINE
8
Black
10
124.5
20
-103.98
11
123.5
21
-104.98
0
LINE
8
Black
10
123.5
20
-106.52
11
124.5
21
-107.52
0
LINE
8
Black
10
124.5
20
-106.52
11
123.5
21
-107.52
0
LINE
8
Black
10
123.5
20
-109.06
11
124.5
21
-110.06
0
LINE
8
Black
10
124.5
20
-109.06
11
123.5
21
-110.06
0
LINE
8
Black
10
123.5
20
-111.6
11
124.5
21
-112.6
0
LINE
8
Black
10
124.5
20
-111.6
11
123.5
21
-112.6
0
LINE
8
Black
10
123.98
20
-58.96
11
124.98
21
-59.96
0
LINE
8
Black
10
124.98
20
-58.96
11
123.98
21
-59.96
0
LINE
8
Black
10
123.98
20
-61.5
11
124.98
21
-62.5
0
LINE
8
Black
10
124.98
20
-61.5
11
123.98
21
-62.5
0
LINE
8
Black
10
125.5
20
-122.5
11
126.5
21
-123.5
0
LINE
8
Black
10
126.5
20
-122.5
11
125.5
21
-123.5
0
LINE
8
Black
10
125.5
20
-125.04
11
126.5
21
-126.04
0
LINE
8
Black
10
126.5
20
-125.04
11
125.5
21
-126.04
0
LINE
8
Black
10
126.04
20
-73.5
11
127.04
21
-74.5
0
LINE
8
Black
10
127.04
20
-73.5
11
126.04
21
-74.5
0
LINE
8
Black
10
126.04
20
-76.04
11
127.04
21
-77.04
0
LINE
8
Black
10
127.04
20
-76.04
11
126.04
21
-77.04
0
LINE
8
Black
10
126.04
20
-78.58
11
127.04
21
-79.58
0
LINE
8
Black
10
127.04
20
-78.58
11
126.04
21
-79.58
0
LINE
8
Black
10
126.04
20
-81.12
11
127.04
21
-82.12
0
LINE
8
Black
10
127.04
20
-81.12
11
126.04
21
-82.12
0
LINE
8
Black
10
126.04
20
-83.66
11
127.04
21
-84.66
0
LINE
8
Black
10
127.04
20
-83.66
11
126.04
21
-84.66
0
LINE
8
Black
10
126.04
20
-86.2
11
127.04
21
-87.2
0
LINE
8
Black
10
127.04
20
-86.2
11
126.04
21
-87.2
0
LINE
8
Black
10
126.04
20
-88.74
11
127.04
21
-89.74
0
LINE
8
Black
10
127.04
20
-88.74
11
126.04
21
-89.74
0
LINE
8
Black
10
126.04
20
-91.28
11
127.04
21
-92.28
0
LINE
8
Black
10
127.04
20
-91.28
11
126.04
21
-92.28
0
LINE
8
Black
10
126.04
20
-93.82
11
127.04
21
-94.82
0
LINE
8
Black
10
127.04
20
-93.82
11
126.04
21
-94.82
0
LINE
8
Black
10
126.04
20
-96.36
11
127.04
21
-97.36
0
LINE
8
Black
10
127.04
20
-96.36
11
126.04
21
-97.36
0
LINE
8
Black
10
126.04
20
-98.9
11
127.04
21
-99.9
0
LINE
8
Black
10
127.04
20
-98.9
11
126.04
21
-99.9
0
LINE
8
Black
10
126.04
20
-101.44
11
127.04
21
-102.44
0
LINE
8
Black
10
127.04
20
-101.44
11
126.04
21
-102.44
0
LINE
8
Black
10
126.04
20
-103.98
11
127.04
21
-104.98
0
LINE
8
Black
10
127.04
20
-103.98
11
126.04
21
-104.98
0
LINE
8
Black
10
126.04
20
-106.52
11
127.04
21
-107.52
0
LINE
8
Black
10
127.04
20
-106.52
11
126.04
21
-107.52
0
LINE
8
Black
10
126.04
20
-109.06
11
127.04
21
-110.06
0
LINE
8
Black
10
127.04
20
-109.06
11
126.04
21
-110.06
0
LINE
8
Black
10
126.04
20
-111.6
11
127.04
21
-112.6
0
LINE
8
Black
10
127.04
20
-111.6
11
126.04
21
-112.6
0
LINE
8
Black
10
126.52
20
-58.96
11
127.52
21
-59.96
0
LINE
8
Black
10
127.52
20
-58.96
11
126.52
21
-59.96
0
LINE
8
Black
10
126.52
20
-61.5
11
127.52
21
-62.5
0
LINE
8
Black
10
127.52
20
-61.5
11
126.52
21
-62.5
0
LINE
8
Black
10
129.06
20
-58.96
11
130.06
21
-59.96
0
LINE
8
Black
10
130.06
20
-58.96
11
129.06
21
-59.96
0
LINE
8
Black
10
129.06
20
-61.5
11
130.06
21
-62.5
0
LINE
8
Black
10
130.06
20
-61.5
11
129.06
21
-62.5
0
LINE
8
Black
10
131.6
20
-58.96
11
132.6
21
-59.96
0
LINE
8
Black
10
132.6
20
-58.96
11
131.6
21
-59.96
0
LINE
8
Black
10
131.6
20
-61.5
11
132.6
21
-62.5
0
LINE
8
Black
10
132.6
20
-61.5
11
131.6
21
-62.5
0
CIRCLE
8
Black
10
154.06
20
-61.035
40
0.67945
0
CIRCLE
8
Black
10
154.06
20
-66.035
40
0.67945
0
LINE
8
Black
10
147.96
20
-78.18
11
147.96
21
-80.72
0
LINE
8
Black
10
146.69
20
-79.45
11
149.23
21
-79.45
0
LINE
8
Black
10
150.86
20
-73.58
11
150.86
21
-76.12
0
LINE
8
Black
10
149.59
20
-74.85
11
152.13
21
-74.85
0
LINE
8
Black
10
154.06
20
-78.18
11
154.06
21
-80.72
0
LINE
8
Black
10
152.79
20
-79.45
11
155.33
21
-79.45
0
LINE
8
Black
10
73.1225
20
-73.1225
11
73.1225
21
-70.8775
0
LINE
8
Black
10
73.1225
20
-70.8775
11
70.8775
21
-70.8775
0
LINE
8
Black
10
70.8775
20
-70.8775
11
70.8775
21
-73.1225
0
LINE
8
Black
10
70.8775
20
-73.1225
11
73.1225
21
-73.1225
0
LINE
8
Black
10
73.1225
20
-114.123
11
73.1225
21
-111.877
0
LINE
8
Black
10
73.1225
20
-111.877
11
70.8775
21
-111.877
0
LINE
8
Black
10
70.8775
20
-111.877
11
70.8775
21
-114.123
0
LINE
8
Black
10
70.8775
20
-114.123
11
73.1225
21
-114.123
0
LINE
8
Black
10
114.123
20
-73.1225
11
114.123
21
-70.8775
0
LINE
8
Black
10
114.123
20
-70.8775
11
111.877
21
-70.8775
0
LINE
8
Black
10
111.877
20
-70.8775
11
111.877
21
-73.1225
0
LINE
8
Black
10
111.877
20
-73.1225
11
114.123
21
-73.1225
0
LINE
8
Black
10
114.123
20
-114.123
11
114.123
21
-111.877
0
LINE
8
Black
10
114.123
20
-111.877
11
111.877
21
-111.877
0
LINE
8
Black
10
111.877
20
-111.877
11
111.877
21
-114.123
0
LINE
8
Black
10
111.877
20
-114.123
11
114.123
21
-114.123
0
LINE
8
Black
10
71
20
-52.9177
11
72.9177
21
-51
0
LINE
8
Black
10
72.9177
20
-51
11
71
21
-49.0823
0
LINE
8
Black
10
71
20
-49.0823
11
69.0823
21
-51
0
LINE
8
Black
10
69.0823
20
-51
11
71
21
-52.9177
0
LINE
8
Black
10
71
20
-135.918
11
72.9177
21
-134
0
LINE
8
Black
10
72.9177
20
-134
11
71
21
-132.082
0
LINE
8
Black
10
71
20
-132.082
11
69.0823
21
-134
0
LINE
8
Black
10
69.0823
20
-134
11
71
21
-135.918
0
LINE
8
Black
10
114
20
-52.9177
11
115.918
21
-51
0
LINE
8
Black
10
115.918
20
-51
11
114
21
-49.0823
0
LINE
8
Black
10
114
20
-49.0823
11
112.082
21
-51
0
LINE
8
Black
10
112.082
20
-51
11
114
21
-52.9177
0
LINE
8
Black
10
114
20
-135.918
11
115.918
21
-134
0
LINE
8
Black
10
115.918
20
-134
11
114
21
-132.082
0
LINE
8
Black
10
114
20
-132.082
11
112.082
21
-134
0
LINE
8
Black
10
112.082
20
-134
11
114
21
-135.918
0
LINE
8
Black
10
154
20
-52.9177
11
155.918
21
-51
0
LINE
8
Black
10
155.918
20
-51
11
154
21
-49.0823
0
LINE
8
Black
10
154
20
-49.0823
11
152.082
21
-51
0
LINE
8
Black
10
152.082
20
-51
11
154
21
-52.9177
0
LINE
8
Black
10
154
20
-135.918
11
155.918
21
-134
0
LINE
8
Black
10
155.918
20
-134
11
154
21
-132.082
0
LINE
8
Black
10
154
20
-132.082
11
152.082
21
-134
0
LINE
8
Black
10
152.082
20
-134
11
154
21
-135.918
0
LINE
8
Black
10
78.85
20
-119.85
11
83.15
21
-124.15
0
LINE
8
Black
10
83.15
20
-119.85
11
78.85
21
-124.15
0
CIRCLE
8
Black
10
81
20
-122
40
2.15
0
LINE
8
Black
10
78.85
20
-127.85
11
83.15
21
-132.15
0
LINE
8
Black
10
83.15
20
-127.85
11
78.85
21
-132.15
0
CIRCLE
8
Black
10
81
20
-130
40
2.15
0
LINE
8
Black
10
82.695
20
-51.9
11
86.995
21
-56.2
0
LINE
8
Black
10
86.995
20
-51.9
11
82.695
21
-56.2
0
CIRCLE
8
Black
10
84.845
20
-54.05
40
2.15
0
LINE
8
Black
10
82.695
20
-60.155
11
86.995
21
-64.455
0
LINE
8
Black
10
86.995
20
-60.155
11
82.695
21
-64.455
0
CIRCLE
8
Black
10
84.845
20
-62.305
40
2.15
0
LINE
8
Black
10
137.85
20
-117.85
11
142.15
21
-122.15
0
LINE
8
Black
10
142.15
20
-117.85
11
137.85
21
-122.15
0
CIRCLE
8
Black
10
140
20
-120
40
2.15
0
LINE
8
Black
10
137.85
20
-127.85
11
142.15
21
-132.15
0
LINE
8
Black
10
142.15
20
-127.85
11
137.85
21
-132.15
0
CIRCLE
8
Black
10
140
20
-130
40
2.15
0
LINE
8
Black
10
137.94
20
-51.9
11
142.24
21
-56.2
0
LINE
8
Black
10
142.24
20
-51.9
11
137.94
21
-56.2
0
CIRCLE
8
Black
10
140.09
20
-54.05
40
2.15
0
LINE
8
Black
10
137.94
20
-60.155
11
142.24
21
-64.455
0
LINE
8
Black
10
142.24
20
-60.155
11
137.94
21
-64.455
0
CIRCLE
8
Black
10
140.09
20
-62.305
40
2.15
0
LINE
8
Black
10
147.85
20
-87.85
11
152.15
21
-92.15
0
LINE
8
Black
10
152.15
20
-87.85
11
147.85
21
-92.15
0
CIRCLE
8
Black
10
150
20
-90
40
2.15
0
LINE
8
Black
10
147.85
20
-97.85
11
152.15
21
-102.15
0
LINE
8
Black
10
152.15
20
-97.85
11
147.85
21
-102.15
0
CIRCLE
8
Black
10
150
20
-100
40
2.15
0
LINE
8
Black
10
147.85
20
-107.85
11
152.15
21
-112.15
0
LINE
8
Black
10
152.15
20
-107.85
11
147.85
21
-112.15
0
CIRCLE
8
Black
10
150
20
-110
40
2.15
0
LINE
8
Black
10
147.85
20
-117.85
11
152.15
21
-122.15
0
LINE
8
Black
10
152.15
20
-117.85
11
147.85
21
-122.15
0
CIRCLE
8
Black
10
150
20
-120
40
2.15
0
LINE
8
Black
10
67.6643
20
-144.707
11
67.6643
21
-141.707
0
LINE
8
Black
10
67.6643
20
-141.707
11
68.3786
21
-141.707
0
LINE
8
Black
10
68.3786
20
-141.707
11
68.8071
21
-141.85
0
LINE
8
Black
10
68.8071
20
-141.85
11
69.0929
21
-142.136
0
LINE
8
Black
10
69.0929
20
-142.136
11
69.2357
21
-142.421
0
LINE
8
Black
10
69.2357
20
-142.421
11
69.3786
21
-142.993
0
LINE
8
Black
10
69.3786
20
-142.993
11
69.3786
21
-143.421
0
LINE
8
Black
10
69.3786
20
-143.421
11
69.2357
21
-143.993
0
LINE
8
Black
10
69.2357
20
-143.993
11
69.0929
21
-144.279
0
LINE
8
Black
10
69.0929
20
-144.279
11
68.8071
21
-144.564
0
LINE
8
Black
10
68.8071
20
-144.564
11
68.3786
21
-144.707
0
LINE
8
Black
10
68.3786
20
-144.707
11
67.6643
21
-144.707
0
LINE
8
Black
10
70.6643
20
-144.707
11
70.6643
21
-142.707
0
LINE
8
Black
10
70.6643
20
-143.279
11
70.8071
21
-142.993
0
LINE
8
Black
10
70.8071
20
-142.993
11
70.95
21
-142.85
0
LINE
8
Black
10
70.95
20
-142.85
11
71.2357
21
-142.707
0
LINE
8
Black
10
71.2357
20
-142.707
11
71.5214
21
-142.707
0
LINE
8
Black
10
72.5214
20
-144.707
11
72.5214
21
-142.707
0
LINE
8
Black
10
72.5214
20
-141.707
11
72.3786
21
-141.85
0
LINE
8
Black
10
72.3786
20
-141.85
11
72.5214
21
-141.993
0
LINE
8
Black
10
72.5214
20
-141.993
11
72.6643
21
-141.85
0
LINE
8
Black
10
72.6643
20
-141.85
11
72.5214
21
-141.707
0
LINE
8
Black
10
72.5214
20
-141.707
11
72.5214
21
-141.993
0
LINE
8
Black
10
74.3786
20
-144.707
11
74.0929
21
-144.564
0
LINE
8
Black
10
74.0929
20
-144.564
11
73.95
21
-144.279
0
LINE
8
Black
10
73.95
20
-144.279
11
73.95
21
-141.707
0
LINE
8
Black
10
75.95
20
-144.707
11
75.6643
21
-144.564
0
LINE
8
Black
10
75.6643
20
-144.564
11
75.5214
21
-144.279
0
LINE
8
Black
10
75.5214
20
-144.279
11
75.5214
21
-141.707
0
LINE
8
Black
10
79.3786
20
-144.707
11
79.3786
21
-141.707
0
LINE
8
Black
10
79.3786
20
-141.707
11
80.3786
21
-143.85
0
LINE
8
Black
10
80.3786
20
-143.85
11
81.3786
21
-141.707
0
LINE
8
Black
10
81.3786
20
-141.707
11
81.3786
21
-144.707
0
LINE
8
Black
10
84.0929
20
-144.707
11
84.0929
21
-143.136
0
LINE
8
Black
10
84.0929
20
-143.136
11
83.95
21
-142.85
0
LINE
8
Black
10
83.95
20
-142.85
11
83.6643
21
-142.707
0
LINE
8
Black
10
83.6643
20
-142.707
11
83.0929
21
-142.707
0
LINE
8
Black
10
83.0929
20
-142.707
11
82.8071
21
-142.85
0
LINE
8
Black
10
84.0929
20
-144.564
11
83.8071
21
-144.707
0
LINE
8
Black
10
83.8071
20
-144.707
11
83.0929
21
-144.707
0
LINE
8
Black
10
83.0929
20
-144.707
11
82.8071
21
-144.564
0
LINE
8
Black
10
82.8071
20
-144.564
11
82.6643
21
-144.279
0
LINE
8
Black
10
82.6643
20
-144.279
11
82.6643
21
-143.993
0
LINE
8
Black
10
82.6643
20
-143.993
11
82.8071
21
-143.707
0
LINE
8
Black
10
82.8071
20
-143.707
11
83.0929
21
-143.564
0
LINE
8
Black
10
83.0929
20
-143.564
11
83.8071
21
-143.564
0
LINE
8
Black
10
83.8071
20
-143.564
11
84.0929
21
-143.421
0
LINE
8
Black
10
85.5214
20
-142.707
11
85.5214
21
-145.707
0
LINE
8
Black
10
85.5214
20
-142.85
11
85.8071
21
-142.707
0
LINE
8
Black
10
85.8071
20
-142.707
11
86.3786
21
-142.707
0
LINE
8
Black
10
86.3786
20
-142.707
11
86.6643
21
-142.85
0
LINE
8
Black
10
86.6643
20
-142.85
11
86.8071
21
-142.993
0
LINE
8
Black
10
86.8071
20
-142.993
11
86.95
21
-143.279
0
LINE
8
Black
10
86.95
20
-143.279
11
86.95
21
-144.136
0
LINE
8
Black
10
86.95
20
-144.136
11
86.8071
21
-144.421
0
LINE
8
Black
10
86.8071
20
-144.421
11
86.6643
21
-144.564
0
LINE
8
Black
10
86.6643
20
-144.564
11
86.3786
21
-144.707
0
LINE
8
Black
10
86.3786
20
-144.707
11
85.8071
21
-144.707
0
LINE
8
Black
10
85.8071
20
-144.707
11
85.5214
21
-144.564
0
LINE
8
Black
10
88.2357
20
-144.421
11
88.3786
21
-144.564
0
LINE
8
Black
10
88.3786
20
-144.564
11
88.2357
21
-144.707
0
LINE
8
Black
10
88.2357
20
-144.707
11
88.0929
21
-144.564
0
LINE
8
Black
10
88.0929
20
-144.564
11
88.2357
21
-144.421
0
LINE
8
Black
10
88.2357
20
-144.421
11
88.2357
21
-144.707
0
LINE
8
Black
10
88.2357
20
-142.85
11
88.3786
21
-142.993
0
LINE
8
Black
10
88.3786
20
-142.993
11
88.2357
21
-143.136
0
LINE
8
Black
10
88.2357
20
-143.136
11
88.0929
21
-142.993
0
LINE
8
Black
10
88.0929
20
-142.993
11
88.2357
21
-142.85
0
LINE
8
Black
10
88.2357
20
-142.85
11
88.2357
21
-143.136
0
LINE
8
Black
10
63.95
20
-149.15
11
64.95
21
-150.15
0
LINE
8
Black
10
64.95
20
-149.15
11
63.95
21
-150.15
0
LINE
8
Black
10
69.2357
20
-151.007
11
67.5214
21
-151.007
0
LINE
8
Black
10
68.3786
20
-151.007
11
68.3786
21
-148.007
0
LINE
8
Black
10
68.3786
20
-148.007
11
68.0929
21
-148.436
0
LINE
8
Black
10
68.0929
20
-148.436
11
67.8071
21
-148.721
0
LINE
8
Black
10
67.8071
20
-148.721
11
67.5214
21
-148.864
0
LINE
8
Black
10
70.5214
20
-150.721
11
70.6643
21
-150.864
0
LINE
8
Black
10
70.6643
20
-150.864
11
70.5214
21
-151.007
0
LINE
8
Black
10
70.5214
20
-151.007
11
70.3786
21
-150.864
0
LINE
8
Black
10
70.3786
20
-150.864
11
70.5214
21
-150.721
0
LINE
8
Black
10
70.5214
20
-150.721
11
70.5214
21
-151.007
0
LINE
8
Black
10
72.5214
20
-148.007
11
72.8071
21
-148.007
0
LINE
8
Black
10
72.8071
20
-148.007
11
73.0929
21
-148.15
0
LINE
8
Black
10
73.0929
20
-148.15
11
73.2357
21
-148.293
0
LINE
8
Black
10
73.2357
20
-148.293
11
73.3786
21
-148.579
0
LINE
8
Black
10
73.3786
20
-148.579
11
73.5214
21
-149.15
0
LINE
8
Black
10
73.5214
20
-149.15
11
73.5214
21
-149.864
0
LINE
8
Black
10
73.5214
20
-149.864
11
73.3786
21
-150.436
0
LINE
8
Black
10
73.3786
20
-150.436
11
73.2357
21
-150.721
0
LINE
8
Black
10
73.2357
20
-150.721
11
73.0929
21
-150.864
0
LINE
8
Black
10
73.0929
20
-150.864
11
72.8071
21
-151.007
0
LINE
8
Black
10
72.8071
20
-151.007
11
72.5214
21
-151.007
0
LINE
8
Black
10
72.5214
20
-151.007
11
72.2357
21
-150.864
0
LINE
8
Black
10
72.2357
20
-150.864
11
72.0929
21
-150.721
0
LINE
8
Black
10
72.0929
20
-150.721
11
71.95
21
-150.436
0
LINE
8
Black
10
71.95
20
-150.436
11
71.8071
21
-149.864
0
LINE
8
Black
10
71.8071
20
-149.864
11
71.8071
21
-149.15
0
LINE
8
Black
10
71.8071
20
-149.15
11
71.95
21
-148.579
0
LINE
8
Black
10
71.95
20
-148.579
11
72.0929
21
-148.293
0
LINE
8
Black
10
72.0929
20
-148.293
11
72.2357
21
-148.15
0
LINE
8
Black
10
72.2357
20
-148.15
11
72.5214
21
-148.007
0
LINE
8
Black
10
75.3786
20
-148.007
11
75.6643
21
-148.007
0
LINE
8
Black
10
75.6643
20
-148.007
11
75.95
21
-148.15
0
LINE
8
Black
10
75.95
20
-148.15
11
76.0929
21
-148.293
0
LINE
8
Black
10
76.0929
20
-148.293
11
76.2357
21
-148.579
0
LINE
8
Black
10
76.2357
20
-148.579
11
76.3786
21
-149.15
0
LINE
8
Black
10
76.3786
20
-149.15
11
76.3786
21
-149.864
0
LINE
8
Black
10
76.3786
20
-149.864
11
76.2357
21
-150.436
0
LINE
8
Black
10
76.2357
20
-150.436
11
76.0929
21
-150.721
0
LINE
8
Black
10
76.0929
20
-150.721
11
75.95
21
-150.864
0
LINE
8
Black
10
75.95
20
-150.864
11
75.6643
21
-151.007
0
LINE
8
Black
10
75.6643
20
-151.007
11
75.3786
21
-151.007
0
LINE
8
Black
10
75.3786
20
-151.007
11
75.0929
21
-150.864
0
LINE
8
Black
10
75.0929
20
-150.864
11
74.95
21
-150.721
0
LINE
8
Black
10
74.95
20
-150.721
11
74.8071
21
-150.436
0
LINE
8
Black
10
74.8071
20
-150.436
11
74.6643
21
-149.864
0
LINE
8
Black
10
74.6643
20
-149.864
11
74.6643
21
-149.15
0
LINE
8
Black
10
74.6643
20
-149.15
11
74.8071
21
-148.579
0
LINE
8
Black
10
74.8071
20
-148.579
11
74.95
21
-148.293
0
LINE
8
Black
10
74.95
20
-148.293
11
75.0929
21
-148.15
0
LINE
8
Black
10
75.0929
20
-148.15
11
75.3786
21
-148.007
0
LINE
8
Black
10
77.6643
20
-151.007
11
77.6643
21
-149.007
0
LINE
8
Black
10
77.6643
20
-149.293
11
77.8071
21
-149.15
0
LINE
8
Black
10
77.8071
20
-149.15
11
78.0929
21
-149.007
0
LINE
8
Black
10
78.0929
20
-149.007
11
78.5214
21
-149.007
0
LINE
8
Black
10
78.5214
20
-149.007
11
78.8071
21
-149.15
0
LINE
8
Black
10
78.8071
20
-149.15
11
78.95
21
-149.436
0
LINE
8
Black
10
78.95
20
-149.436
11
78.95
21
-151.007
0
LINE
8
Black
10
78.95
20
-149.436
11
79.0929
21
-149.15
0
LINE
8
Black
10
79.0929
20
-149.15
11
79.3786
21
-149.007
0
LINE
8
Black
10
79.3786
20
-149.007
11
79.8071
21
-149.007
0
LINE
8
Black
10
79.8071
20
-149.007
11
80.0929
21
-149.15
0
LINE
8
Black
10
80.0929
20
-149.15
11
80.2357
21
-149.436
0
LINE
8
Black
10
80.2357
20
-149.436
11
80.2357
21
-151.007
0
LINE
8
Black
10
81.6643
20
-151.007
11
81.6643
21
-149.007
0
LINE
8
Black
10
81.6643
20
-149.293
11
81.8071
21
-149.15
0
LINE
8
Black
10
81.8071
20
-149.15
11
82.0929
21
-149.007
0
LINE
8
Black
10
82.0929
20
-149.007
11
82.5214
21
-149.007
0
LINE
8
Black
10
82.5214
20
-149.007
11
82.8071
21
-149.15
0
LINE
8
Black
10
82.8071
20
-149.15
11
82.95
21
-149.436
0
LINE
8
Black
10
82.95
20
-149.436
11
82.95
21
-151.007
0
LINE
8
Black
10
82.95
20
-149.436
11
83.0929
21
-149.15
0
LINE
8
Black
10
83.0929
20
-149.15
11
83.3786
21
-149.007
0
LINE
8
Black
10
83.3786
20
-149.007
11
83.8071
21
-149.007
0
LINE
8
Black
10
83.8071
20
-149.007
11
84.0929
21
-149.15
0
LINE
8
Black
10
84.0929
20
-149.15
11
84.2357
21
-149.436
0
LINE
8
Black
10
84.2357
20
-149.436
11
84.2357
21
-151.007
0
LINE
8
Black
10
90.0929
20
-147.864
11
87.5214
21
-151.721
0
LINE
8
Black
10
93.95
20
-148.007
11
94.2357
21
-148.007
0
LINE
8
Black
10
94.2357
20
-148.007
11
94.5214
21
-148.15
0
LINE
8
Black
10
94.5214
20
-148.15
11
94.6643
21
-148.293
0
LINE
8
Black
10
94.6643
20
-148.293
11
94.8071
21
-148.579
0
LINE
8
Black
10
94.8071
20
-148.579
11
94.95
21
-149.15
0
LINE
8
Black
10
94.95
20
-149.15
11
94.95
21
-149.864
0
LINE
8
Black
10
94.95
20
-149.864
11
94.8071
21
-150.436
0
LINE
8
Black
10
94.8071
20
-150.436
11
94.6643
21
-150.721
0
LINE
8
Black
10
94.6643
20
-150.721
11
94.5214
21
-150.864
0
LINE
8
Black
10
94.5214
20
-150.864
11
94.2357
21
-151.007
0
LINE
8
Black
10
94.2357
20
-151.007
11
93.95
21
-151.007
0
LINE
8
Black
10
93.95
20
-151.007
11
93.6643
21
-150.864
0
LINE
8
Black
10
93.6643
20
-150.864
11
93.5214
21
-150.721
0
LINE
8
Black
10
93.5214
20
-150.721
11
93.3786
21
-150.436
0
LINE
8
Black
10
93.3786
20
-150.436
11
93.2357
21
-149.864
0
LINE
8
Black
10
93.2357
20
-149.864
11
93.2357
21
-149.15
0
LINE
8
Black
10
93.2357
20
-149.15
11
93.3786
21
-148.579
0
LINE
8
Black
10
93.3786
20
-148.579
11
93.5214
21
-148.293
0
LINE
8
Black
10
93.5214
20
-148.293
11
93.6643
21
-148.15
0
LINE
8
Black
10
93.6643
20
-148.15
11
93.95
21
-148.007
0
LINE
8
Black
10
96.2357
20
-150.721
11
96.3786
21
-150.864
0
LINE
8
Black
10
96.3786
20
-150.864
11
96.2357
21
-151.007
0
LINE
8
Black
10
96.2357
20
-151.007
11
96.0929
21
-150.864
0
LINE
8
Black
10
96.0929
20
-150.864
11
96.2357
21
-150.721
0
LINE
8
Black
10
96.2357
20
-150.721
11
96.2357
21
-151.007
0
LINE
8
Black
10
98.2357
20
-148.007
11
98.5214
21
-148.007
0
LINE
8
Black
10
98.5214
20
-148.007
11
98.8071
21
-148.15
0
LINE
8
Black
10
98.8071
20
-148.15
11
98.95
21
-148.293
0
LINE
8
Black
10
98.95
20
-148.293
11
99.0929
21
-148.579
0
LINE
8
Black
10
99.0929
20
-148.579
11
99.2357
21
-149.15
0
LINE
8
Black
10
99.2357
20
-149.15
11
99.2357
21
-149.864
0
LINE
8
Black
10
99.2357
20
-149.864
11
99.0929
21
-150.436
0
LINE
8
Black
10
99.0929
20
-150.436
11
98.95
21
-150.721
0
LINE
8
Black
10
98.95
20
-150.721
11
98.8071
21
-150.864
0
LINE
8
Black
10
98.8071
20
-150.864
11
98.5214
21
-151.007
0
LINE
8
Black
10
98.5214
20
-151.007
11
98.2357
21
-151.007
0
LINE
8
Black
10
98.2357
20
-151.007
11
97.95
21
-150.864
0
LINE
8
Black
10
97.95
20
-150.864
11
97.8071
21
-150.721
0
LINE
8
Black
10
97.8071
20
-150.721
11
97.6643
21
-150.436
0
LINE
8
Black
10
97.6643
20
-150.436
11
97.5214
21
-149.864
0
LINE
8
Black
10
97.5214
20
-149.864
11
97.5214
21
-149.15
0
LINE
8
Black
10
97.5214
20
-149.15
11
97.6643
21
-148.579
0
LINE
8
Black
10
97.6643
20
-148.579
11
97.8071
21
-148.293
0
LINE
8
Black
10
97.8071
20
-148.293
11
97.95
21
-148.15
0
LINE
8
Black
10
97.95
20
-148.15
11
98.2357
21
-148.007
0
LINE
8
Black
10
100.236
20
-148.007
11
102.093
21
-148.007
0
LINE
8
Black
10
102.093
20
-148.007
11
101.093
21
-149.15
0
LINE
8
Black
10
101.093
20
-149.15
11
101.521
21
-149.15
0
LINE
8
Black
10
101.521
20
-149.15
11
101.807
21
-149.293
0
LINE
8
Black
10
101.807
20
-149.293
11
101.95
21
-149.436
0
LINE
8
Black
10
101.95
20
-149.436
11
102.093
21
-149.721
0
LINE
8
Black
10
102.093
20
-149.721
11
102.093
21
-150.436
0
LINE
8
Black
10
102.093
20
-150.436
11
101.95
21
-150.721
0
LINE
8
Black
10
101.95
20
-150.721
11
101.807
21
-150.864
0
LINE
8
Black
10
101.807
20
-150.864
11
101.521
21
-151.007
0
LINE
8
Black
10
101.521
20
-151.007
11
100.664
21
-151.007
0
LINE
8
Black
10
100.664
20
-151.007
11
100.379
21
-150.864
0
LINE
8
Black
10
100.379
20
-150.864
11
100.236
21
-150.721
0
LINE
8
Black
10
103.521
20
-151.007
11
104.093
21
-151.007
0
LINE
8
Black
10
104.093
20
-151.007
11
104.379
21
-150.864
0
LINE
8
Black
10
104.379
20
-150.864
11
104.521
21
-150.721
0
LINE
8
Black
10
104.521
20
-150.721
11
104.807
21
-150.293
0
LINE
8
Black
10
104.807
20
-150.293
11
104.95
21
-149.721
0
LINE
8
Black
10
104.95
20
-149.721
11
104.95
21
-148.579
0
LINE
8
Black
10
104.95
20
-148.579
11
104.807
21
-148.293
0
LINE
8
Black
10
104.807
20
-148.293
11
104.664
21
-148.15
0
LINE
8
Black
10
104.664
20
-148.15
11
104.379
21
-148.007
0
LINE
8
Black
10
104.379
20
-148.007
11
103.807
21
-148.007
0
LINE
8
Black
10
103.807
20
-148.007
11
103.521
21
-148.15
0
LINE
8
Black
10
103.521
20
-148.15
11
103.379
21
-148.293
0
LINE
8
Black
10
103.379
20
-148.293
11
103.236
21
-148.579
0
LINE
8
Black
10
103.236
20
-148.579
11
103.236
21
-149.293
0
LINE
8
Black
10
103.236
20
-149.293
11
103.379
21
-149.579
0
LINE
8
Black
10
103.379
20
-149.579
11
103.521
21
-149.721
0
LINE
8
Black
10
103.521
20
-149.721
11
103.807
21
-149.864
0
LINE
8
Black
10
103.807
20
-149.864
11
104.379
21
-149.864
0
LINE
8
Black
10
104.379
20
-149.864
11
104.664
21
-149.721
0
LINE
8
Black
10
104.664
20
-149.721
11
104.807
21
-149.579
0
LINE
8
Black
10
104.807
20
-149.579
11
104.95
21
-149.293
0
LINE
8
Black
10
106.093
20
-148.007
11
106.093
21
-148.579
0
LINE
8
Black
10
107.236
20
-148.007
11
107.236
21
-148.579
0
LINE
8
Black
10
111.664
20
-152.15
11
111.521
21
-152.007
0
LINE
8
Black
10
111.521
20
-152.007
11
111.236
21
-151.579
0
LINE
8
Black
10
111.236
20
-151.579
11
111.093
21
-151.293
0
LINE
8
Black
10
111.093
20
-151.293
11
110.95
21
-150.864
0
LINE
8
Black
10
110.95
20
-150.864
11
110.807
21
-150.15
0
LINE
8
Black
10
110.807
20
-150.15
11
110.807
21
-149.579
0
LINE
8
Black
10
110.807
20
-149.579
11
110.95
21
-148.864
0
LINE
8
Black
10
110.95
20
-148.864
11
111.093
21
-148.436
0
LINE
8
Black
10
111.093
20
-148.436
11
111.236
21
-148.15
0
LINE
8
Black
10
111.236
20
-148.15
11
111.521
21
-147.721
0
LINE
8
Black
10
111.521
20
-147.721
11
111.664
21
-147.579
0
LINE
8
Black
10
112.95
20
-151.007
11
113.521
21
-151.007
0
LINE
8
Black
10
113.521
20
-151.007
11
113.807
21
-150.864
0
LINE
8
Black
10
113.807
20
-150.864
11
113.95
21
-150.721
0
LINE
8
Black
10
113.95
20
-150.721
11
114.236
21
-150.293
0
LINE
8
Black
10
114.236
20
-150.293
11
114.379
21
-149.721
0
LINE
8
Black
10
114.379
20
-149.721
11
114.379
21
-148.579
0
LINE
8
Black
10
114.379
20
-148.579
11
114.236
21
-148.293
0
LINE
8
Black
10
114.236
20
-148.293
11
114.093
21
-148.15
0
LINE
8
Black
10
114.093
20
-148.15
11
113.807
21
-148.007
0
LINE
8
Black
10
113.807
20
-148.007
11
113.236
21
-148.007
0
LINE
8
Black
10
113.236
20
-148.007
11
112.95
21
-148.15
0
LINE
8
Black
10
112.95
20
-148.15
11
112.807
21
-148.293
0
LINE
8
Black
10
112.807
20
-148.293
11
112.664
21
-148.579
0
LINE
8
Black
10
112.664
20
-148.579
11
112.664
21
-149.293
0
LINE
8
Black
10
112.664
20
-149.293
11
112.807
21
-149.579
0
LINE
8
Black
10
112.807
20
-149.579
11
112.95
21
-149.721
0
LINE
8
Black
10
112.95
20
-149.721
11
113.236
21
-149.864
0
LINE
8
Black
10
113.236
20
-149.864
11
113.807
21
-149.864
0
LINE
8
Black
10
113.807
20
-149.864
11
114.093
21
-149.721
0
LINE
8
Black
10
114.093
20
-149.721
11
114.236
21
-149.579
0
LINE
8
Black
10
114.236
20
-149.579
11
114.379
21
-149.293
0
LINE
8
Black
10
116.95
20
-148.007
11
116.379
21
-148.007
0
LINE
8
Black
10
116.379
20
-148.007
11
116.093
21
-148.15
0
LINE
8
Black
10
116.093
20
-148.15
11
115.95
21
-148.293
0
LINE
8
Black
10
115.95
20
-148.293
11
115.664
21
-148.721
0
LINE
8
Black
10
115.664
20
-148.721
11
115.521
21
-149.293
0
LINE
8
Black
10
115.521
20
-149.293
11
115.521
21
-150.436
0
LINE
8
Black
10
115.521
20
-150.436
11
115.664
21
-150.721
0
LINE
8
Black
10
115.664
20
-150.721
11
115.807
21
-150.864
0
LINE
8
Black
10
115.807
20
-150.864
11
116.093
21
-151.007
0
LINE
8
Black
10
116.093
20
-151.007
11
116.664
21
-151.007
0
LINE
8
Black
10
116.664
20
-151.007
11
116.95
21
-150.864
0
LINE
8
Black
10
116.95
20
-150.864
11
117.093
21
-150.721
0
LINE
8
Black
10
117.093
20
-150.721
11
117.236
21
-150.436
0
LINE
8
Black
10
117.236
20
-150.436
11
117.236
21
-149.721
0
LINE
8
Black
10
117.236
20
-149.721
11
117.093
21
-149.436
0
LINE
8
Black
10
117.093
20
-149.436
11
116.95
21
-149.293
0
LINE
8
Black
10
116.95
20
-149.293
11
116.664
21
-149.15
0
LINE
8
Black
10
116.664
20
-149.15
11
116.093
21
-149.15
0
LINE
8
Black
10
116.093
20
-149.15
11
115.807
21
-149.293
0
LINE
8
Black
10
115.807
20
-149.293
11
115.664
21
-149.436
0
LINE
8
Black
10
115.664
20
-149.436
11
115.521
21
-149.721
0
LINE
8
Black
10
120.807
20
-151.007
11
120.807
21
-148.007
0
LINE
8
Black
10
122.093
20
-151.007
11
122.093
21
-149.436
0
LINE
8
Black
10
122.093
20
-149.436
11
121.95
21
-149.15
0
LINE
8
Black
10
121.95
20
-149.15
11
121.664
21
-149.007
0
LINE
8
Black
10
121.664
20
-149.007
11
121.236
21
-149.007
0
LINE
8
Black
10
121.236
20
-149.007
11
120.95
21
-149.15
0
LINE
8
Black
10
120.95
20
-149.15
11
120.807
21
-149.293
0
LINE
8
Black
10
123.95
20
-151.007
11
123.664
21
-150.864
0
LINE
8
Black
10
123.664
20
-150.864
11
123.521
21
-150.721
0
LINE
8
Black
10
123.521
20
-150.721
11
123.379
21
-150.436
0
LINE
8
Black
10
123.379
20
-150.436
11
123.379
21
-149.579
0
LINE
8
Black
10
123.379
20
-149.579
11
123.521
21
-149.293
0
LINE
8
Black
10
123.521
20
-149.293
11
123.664
21
-149.15
0
LINE
8
Black
10
123.664
20
-149.15
11
123.95
21
-149.007
0
LINE
8
Black
10
123.95
20
-149.007
11
124.379
21
-149.007
0
LINE
8
Black
10
124.379
20
-149.007
11
124.664
21
-149.15
0
LINE
8
Black
10
124.664
20
-149.15
11
124.807
21
-149.293
0
LINE
8
Black
10
124.807
20
-149.293
11
124.95
21
-149.579
0
LINE
8
Black
10
124.95
20
-149.579
11
124.95
21
-150.436
0
LINE
8
Black
10
124.95
20
-150.436
11
124.807
21
-150.721
0
LINE
8
Black
10
124.807
20
-150.721
11
124.664
21
-150.864
0
LINE
8
Black
10
124.664
20
-150.864
11
124.379
21
-151.007
0
LINE
8
Black
10
124.379
20
-151.007
11
123.95
21
-151.007
0
LINE
8
Black
10
126.664
20
-151.007
11
126.379
21
-150.864
0
LINE
8
Black
10
126.379
20
-150.864
11
126.236
21
-150.579
0
LINE
8
Black
10
126.236
20
-150.579
11
126.236
21
-148.007
0
LINE
8
Black
10
128.95
20
-150.864
11
128.664
21
-151.007
0
LINE
8
Black
10
128.664
20
-151.007
11
128.093
21
-151.007
0
LINE
8
Black
10
128.093
20
-151.007
11
127.807
21
-150.864
0
LINE
8
Black
10
127.807
20
-150.864
11
127.664
21
-150.579
0
LINE
8
Black
10
127.664
20
-150.579
11
127.664
21
-149.436
0
LINE
8
Black
10
127.664
20
-149.436
11
127.807
21
-149.15
0
LINE
8
Black
10
127.807
20
-149.15
11
128.093
21
-149.007
0
LINE
8
Black
10
128.093
20
-149.007
11
128.664
21
-149.007
0
LINE
8
Black
10
128.664
20
-149.007
11
128.95
21
-149.15
0
LINE
8
Black
10
128.95
20
-149.15
11
129.093
21
-149.436
0
LINE
8
Black
10
129.093
20
-149.436
11
129.093
21
-149.721
0
LINE
8
Black
10
129.093
20
-149.721
11
127.664
21
-150.007
0
LINE
8
Black
10
130.236
20
-150.864
11
130.521
21
-151.007
0
LINE
8
Black
10
130.521
20
-151.007
11
131.093
21
-151.007
0
LINE
8
Black
10
131.093
20
-151.007
11
131.379
21
-150.864
0
LINE
8
Black
10
131.379
20
-150.864
11
131.521
21
-150.579
0
LINE
8
Black
10
131.521
20
-150.579
11
131.521
21
-150.436
0
LINE
8
Black
10
131.521
20
-150.436
11
131.379
21
-150.15
0
LINE
8
Black
10
131.379
20
-150.15
11
131.093
21
-150.007
0
LINE
8
Black
10
131.093
20
-150.007
11
130.664
21
-150.007
0
LINE
8
Black
10
130.664
20
-150.007
11
130.379
21
-149.864
0
LINE
8
Black
10
130.379
20
-149.864
11
130.236
21
-149.579
0
LINE
8
Black
10
130.236
20
-149.579
11
130.236
21
-149.436
0
LINE
8
Black
10
130.236
20
-149.436
11
130.379
21
-149.15
0
LINE
8
Black
10
130.379
20
-149.15
11
130.664
21
-149.007
0
LINE
8
Black
10
130.664
20
-149.007
11
131.093
21
-149.007
0
LINE
8
Black
10
131.093
20
-149.007
11
131.379
21
-149.15
0
LINE
8
Black
10
132.521
20
-152.15
11
132.664
21
-152.007
0
LINE
8
Black
10
132.664
20
-152.007
11
132.95
21
-151.579
0
LINE
8
Black
10
132.95
20
-151.579
11
133.093
21
-151.293
0
LINE
8
Black
10
133.093
20
-151.293
11
133.236
21
-150.864
0
LINE
8
Black
10
133.236
20
-150.864
11
133.379
21
-150.15
0
LINE
8
Black
10
133.379
20
-150.15
11
133.379
21
-149.579
0
LINE
8
Black
10
133.379
20
-149.579
11
133.236
21
-148.864
0
LINE
8
Black
10
133.236
20
-148.864
11
133.093
21
-148.436
0
LINE
8
Black
10
133.093
20
-148.436
11
132.95
21
-148.15
0
LINE
8
Black
10
132.95
20
-148.15
11
132.664
21
-147.721
0
LINE
8
Black
10
132.664
20
-147.721
11
132.521
21
-147.579
0
CIRCLE
8
Black
10
64.2705
20
-153.61
40
0.67945
0
LINE
8
Black
10
69.2357
20
-154.967
11
67.5214
21
-154.967
0
LINE
8
Black
10
68.3786
20
-154.967
11
68.3786
21
-151.967
0
LINE
8
Black
10
68.3786
20
-151.967
11
68.0929
21
-152.396
0
LINE
8
Black
10
68.0929
20
-152.396
11
67.8071
21
-152.681
0
LINE
8
Black
10
67.8071
20
-152.681
11
67.5214
21
-152.824
0
LINE
8
Black
10
70.5214
20
-154.681
11
70.6643
21
-154.824
0
LINE
8
Black
10
70.6643
20
-154.824
11
70.5214
21
-154.967
0
LINE
8
Black
10
70.5214
20
-154.967
11
70.3786
21
-154.824
0
LINE
8
Black
10
70.3786
20
-154.824
11
70.5214
21
-154.681
0
LINE
8
Black
10
70.5214
20
-154.681
11
70.5214
21
-154.967
0
LINE
8
Black
10
71.6643
20
-151.967
11
73.5214
21
-151.967
0
LINE
8
Black
10
73.5214
20
-151.967
11
72.5214
21
-153.11
0
LINE
8
Black
10
72.5214
20
-153.11
11
72.95
21
-153.11
0
LINE
8
Black
10
72.95
20
-153.11
11
73.2357
21
-153.253
0
LINE
8
Black
10
73.2357
20
-153.253
11
73.3786
21
-153.396
0
LINE
8
Black
10
73.3786
20
-153.396
11
73.5214
21
-153.681
0
LINE
8
Black
10
73.5214
20
-153.681
11
73.5214
21
-154.396
0
LINE
8
Black
10
73.5214
20
-154.396
11
73.3786
21
-154.681
0
LINE
8
Black
10
73.3786
20
-154.681
11
73.2357
21
-154.824
0
LINE
8
Black
10
73.2357
20
-154.824
11
72.95
21
-154.967
0
LINE
8
Black
10
72.95
20
-154.967
11
72.0929
21
-154.967
0
LINE
8
Black
10
72.0929
20
-154.967
11
71.8071
21
-154.824
0
LINE
8
Black
10
71.8071
20
-154.824
11
71.6643
21
-154.681
0
LINE
8
Black
10
76.0929
20
-151.967
11
75.5214
21
-151.967
0
LINE
8
Black
10
75.5214
20
-151.967
11
75.2357
21
-152.11
0
LINE
8
Black
10
75.2357
20
-152.11
11
75.0929
21
-152.253
0
LINE
8
Black
10
75.0929
20
-152.253
11
74.8071
21
-152.681
0
LINE
8
Black
10
74.8071
20
-152.681
11
74.6643
21
-153.253
0
LINE
8
Black
10
74.6643
20
-153.253
11
74.6643
21
-154.396
0
LINE
8
Black
10
74.6643
20
-154.396
11
74.8071
21
-154.681
0
LINE
8
Black
10
74.8071
20
-154.681
11
74.95
21
-154.824
0
LINE
8
Black
10
74.95
20
-154.824
11
75.2357
21
-154.967
0
LINE
8
Black
10
75.2357
20
-154.967
11
75.8071
21
-154.967
0
LINE
8
Black
10
75.8071
20
-154.967
11
76.0929
21
-154.824
0
LINE
8
Black
10
76.0929
20
-154.824
11
76.2357
21
-154.681
0
LINE
8
Black
10
76.2357
20
-154.681
11
76.3786
21
-154.396
0
LINE
8
Black
10
76.3786
20
-154.396
11
76.3786
21
-153.681
0
LINE
8
Black
10
76.3786
20
-153.681
11
76.2357
21
-153.396
0
LINE
8
Black
10
76.2357
20
-153.396
11
76.0929
21
-153.253
0
LINE
8
Black
10
76.0929
20
-153.253
11
75.8071
21
-153.11
0
LINE
8
Black
10
75.8071
20
-153.11
11
75.2357
21
-153.11
0
LINE
8
Black
10
75.2357
20
-153.11
11
74.95
21
-153.253
0
LINE
8
Black
10
74.95
20
-153.253
11
74.8071
21
-153.396
0
LINE
8
Black
10
74.8071
20
-153.396
11
74.6643
21
-153.681
0
LINE
8
Black
10
77.6643
20
-154.967
11
77.6643
21
-152.967
0
LINE
8
Black
10
77.6643
20
-153.253
11
77.8071
21
-153.11
0
LINE
8
Black
10
77.8071
20
-153.11
11
78.0929
21
-152.967
0
LINE
8
Black
10
78.0929
20
-152.967
11
78.5214
21
-152.967
0
LINE
8
Black
10
78.5214
20
-152.967
11
78.8071
21
-153.11
0
LINE
8
Black
10
78.8071
20
-153.11
11
78.95
21
-153.396
0
LINE
8
Black
10
78.95
20
-153.396
11
78.95
21
-154.967
0
LINE
8
Black
10
78.95
20
-153.396
11
79.0929
21
-153.11
0
LINE
8
Black
10
79.0929
20
-153.11
11
79.3786
21
-152.967
0
LINE
8
Black
10
79.3786
20
-152.967
11
79.8071
21
-152.967
0
LINE
8
Black
10
79.8071
20
-152.967
11
80.0929
21
-153.11
0
LINE
8
Black
10
80.0929
20
-153.11
11
80.2357
21
-153.396
0
LINE
8
Black
10
80.2357
20
-153.396
11
80.2357
21
-154.967
0
LINE
8
Black
10
81.6643
20
-154.967
11
81.6643
21
-152.967
0
LINE
8
Black
10
81.6643
20
-153.253
11
81.8071
21
-153.11
0
LINE
8
Black
10
81.8071
20
-153.11
11
82.0929
21
-152.967
0
LINE
8
Black
10
82.0929
20
-152.967
11
82.5214
21
-152.967
0
LINE
8
Black
10
82.5214
20
-152.967
11
82.8071
21
-153.11
0
LINE
8
Black
10
82.8071
20
-153.11
11
82.95
21
-153.396
0
LINE
8
Black
10
82.95
20
-153.396
11
82.95
21
-154.967
0
LINE
8
Black
10
82.95
20
-153.396
11
83.0929
21
-153.11
0
LINE
8
Black
10
83.0929
20
-153.11
11
83.3786
21
-152.967
0
LINE
8
Black
10
83.3786
20
-152.967
11
83.8071
21
-152.967
0
LINE
8
Black
10
83.8071
20
-152.967
11
84.0929
21
-153.11
0
LINE
8
Black
10
84.0929
20
-153.11
11
84.2357
21
-153.396
0
LINE
8
Black
10
84.2357
20
-153.396
11
84.2357
21
-154.967
0
LINE
8
Black
10
90.0929
20
-151.824
11
87.5214
21
-155.681
0
LINE
8
Black
10
93.95
20
-151.967
11
94.2357
21
-151.967
0
LINE
8
Black
10
94.2357
20
-151.967
11
94.5214
21
-152.11
0
LINE
8
Black
10
94.5214
20
-152.11
11
94.6643
21
-152.253
0
LINE
8
Black
10
94.6643
20
-152.253
11
94.8071
21
-152.539
0
LINE
8
Black
10
94.8071
20
-152.539
11
94.95
21
-153.11
0
LINE
8
Black
10
94.95
20
-153.11
11
94.95
21
-153.824
0
LINE
8
Black
10
94.95
20
-153.824
11
94.8071
21
-154.396
0
LINE
8
Black
10
94.8071
20
-154.396
11
94.6643
21
-154.681
0
LINE
8
Black
10
94.6643
20
-154.681
11
94.5214
21
-154.824
0
LINE
8
Black
10
94.5214
20
-154.824
11
94.2357
21
-154.967
0
LINE
8
Black
10
94.2357
20
-154.967
11
93.95
21
-154.967
0
LINE
8
Black
10
93.95
20
-154.967
11
93.6643
21
-154.824
0
LINE
8
Black
10
93.6643
20
-154.824
11
93.5214
21
-154.681
0
LINE
8
Black
10
93.5214
20
-154.681
11
93.3786
21
-154.396
0
LINE
8
Black
10
93.3786
20
-154.396
11
93.2357
21
-153.824
0
LINE
8
Black
10
93.2357
20
-153.824
11
93.2357
21
-153.11
0
LINE
8
Black
10
93.2357
20
-153.11
11
93.3786
21
-152.539
0
LINE
8
Black
10
93.3786
20
-152.539
11
93.5214
21
-152.253
0
LINE
8
Black
10
93.5214
20
-152.253
11
93.6643
21
-152.11
0
LINE
8
Black
10
93.6643
20
-152.11
11
93.95
21
-151.967
0
LINE
8
Black
10
96.2357
20
-154.681
11
96.3786
21
-154.824
0
LINE
8
Black
10
96.3786
20
-154.824
11
96.2357
21
-154.967
0
LINE
8
Black
10
96.2357
20
-154.967
11
96.0929
21
-154.824
0
LINE
8
Black
10
96.0929
20
-154.824
11
96.2357
21
-154.681
0
LINE
8
Black
10
96.2357
20
-154.681
11
96.2357
21
-154.967
0
LINE
8
Black
10
98.2357
20
-151.967
11
98.5214
21
-151.967
0
LINE
8
Black
10
98.5214
20
-151.967
11
98.8071
21
-152.11
0
LINE
8
Black
10
98.8071
20
-152.11
11
98.95
21
-152.253
0
LINE
8
Black
10
98.95
20
-152.253
11
99.0929
21
-152.539
0
LINE
8
Black
10
99.0929
20
-152.539
11
99.2357
21
-153.11
0
LINE
8
Black
10
99.2357
20
-153.11
11
99.2357
21
-153.824
0
LINE
8
Black
10
99.2357
20
-153.824
11
99.0929
21
-154.396
0
LINE
8
Black
10
99.0929
20
-154.396
11
98.95
21
-154.681
0
LINE
8
Black
10
98.95
20
-154.681
11
98.8071
21
-154.824
0
LINE
8
Black
10
98.8071
20
-154.824
11
98.5214
21
-154.967
0
LINE
8
Black
10
98.5214
20
-154.967
11
98.2357
21
-154.967
0
LINE
8
Black
10
98.2357
20
-154.967
11
97.95
21
-154.824
0
LINE
8
Black
10
97.95
20
-154.824
11
97.8071
21
-154.681
0
LINE
8
Black
10
97.8071
20
-154.681
11
97.6643
21
-154.396
0
LINE
8
Black
10
97.6643
20
-154.396
11
97.5214
21
-153.824
0
LINE
8
Black
10
97.5214
20
-153.824
11
97.5214
21
-153.11
0
LINE
8
Black
10
97.5214
20
-153.11
11
97.6643
21
-152.539
0
LINE
8
Black
10
97.6643
20
-152.539
11
97.8071
21
-152.253
0
LINE
8
Black
10
97.8071
20
-152.253
11
97.95
21
-152.11
0
LINE
8
Black
10
97.95
20
-152.11
11
98.2357
21
-151.967
0
LINE
8
Black
10
101.95
20
-151.967
11
100.521
21
-151.967
0
LINE
8
Black
10
100.521
20
-151.967
11
100.379
21
-153.396
0
LINE
8
Black
10
100.379
20
-153.396
11
100.521
21
-153.253
0
LINE
8
Black
10
100.521
20
-153.253
11
100.807
21
-153.11
0
LINE
8
Black
10
100.807
20
-153.11
11
101.521
21
-153.11
0
LINE
8
Black
10
101.521
20
-153.11
11
101.807
21
-153.253
0
LINE
8
Black
10
101.807
20
-153.253
11
101.95
21
-153.396
0
LINE
8
Black
10
101.95
20
-153.396
11
102.093
21
-153.681
0
LINE
8
Black
10
102.093
20
-153.681
11
102.093
21
-154.396
0
LINE
8
Black
10
102.093
20
-154.396
11
101.95
21
-154.681
0
LINE
8
Black
10
101.95
20
-154.681
11
101.807
21
-154.824
0
LINE
8
Black
10
101.807
20
-154.824
11
101.521
21
-154.967
0
LINE
8
Black
10
101.521
20
-154.967
11
100.807
21
-154.967
0
LINE
8
Black
10
100.807
20
-154.967
11
100.521
21
-154.824
0
LINE
8
Black
10
100.521
20
-154.824
11
100.379
21
-154.681
0
LINE
8
Black
10
103.093
20
-151.967
11
104.95
21
-151.967
0
LINE
8
Black
10
104.95
20
-151.967
11
103.95
21
-153.11
0
LINE
8
Black
10
103.95
20
-153.11
11
104.379
21
-153.11
0
LINE
8
Black
10
104.379
20
-153.11
11
104.664
21
-153.253
0
LINE
8
Black
10
104.664
20
-153.253
11
104.807
21
-153.396
0
LINE
8
Black
10
104.807
20
-153.396
11
104.95
21
-153.681
0
LINE
8
Black
10
104.95
20
-153.681
11
104.95
21
-154.396
0
LINE
8
Black
10
104.95
20
-154.396
11
104.807
21
-154.681
0
LINE
8
Black
10
104.807
20
-154.681
11
104.664
21
-154.824
0
LINE
8
Black
10
104.664
20
-154.824
11
104.379
21
-154.967
0
LINE
8
Black
10
104.379
20
-154.967
11
103.521
21
-154.967
0
LINE
8
Black
10
103.521
20
-154.967
11
103.236
21
-154.824
0
LINE
8
Black
10
103.236
20
-154.824
11
103.093
21
-154.681
0
LINE
8
Black
10
106.093
20
-151.967
11
106.093
21
-152.539
0
LINE
8
Black
10
107.236
20
-151.967
11
107.236
21
-152.539
0
LINE
8
Black
10
111.664
20
-156.11
11
111.521
21
-155.967
0
LINE
8
Black
10
111.521
20
-155.967
11
111.236
21
-155.539
0
LINE
8
Black
10
111.236
20
-155.539
11
111.093
21
-155.253
0
LINE
8
Black
10
111.093
20
-155.253
11
110.95
21
-154.824
0
LINE
8
Black
10
110.95
20
-154.824
11
110.807
21
-154.11
0
LINE
8
Black
10
110.807
20
-154.11
11
110.807
21
-153.539
0
LINE
8
Black
10
110.807
20
-153.539
11
110.95
21
-152.824
0
LINE
8
Black
10
110.95
20
-152.824
11
111.093
21
-152.396
0
LINE
8
Black
10
111.093
20
-152.396
11
111.236
21
-152.11
0
LINE
8
Black
10
111.236
20
-152.11
11
111.521
21
-151.681
0
LINE
8
Black
10
111.521
20
-151.681
11
111.664
21
-151.539
0
LINE
8
Black
10
112.664
20
-152.253
11
112.807
21
-152.11
0
LINE
8
Black
10
112.807
20
-152.11
11
113.093
21
-151.967
0
LINE
8
Black
10
113.093
20
-151.967
11
113.807
21
-151.967
0
LINE
8
Black
10
113.807
20
-151.967
11
114.093
21
-152.11
0
LINE
8
Black
10
114.093
20
-152.11
11
114.236
21
-152.253
0
LINE
8
Black
10
114.236
20
-152.253
11
114.379
21
-152.539
0
LINE
8
Black
10
114.379
20
-152.539
11
114.379
21
-152.824
0
LINE
8
Black
10
114.379
20
-152.824
11
114.236
21
-153.253
0
LINE
8
Black
10
114.236
20
-153.253
11
112.521
21
-154.967
0
LINE
8
Black
10
112.521
20
-154.967
11
114.379
21
-154.967
0
LINE
8
Black
10
117.95
20
-154.967
11
117.95
21
-151.967
0
LINE
8
Black
10
119.236
20
-154.967
11
119.236
21
-153.396
0
LINE
8
Black
10
119.236
20
-153.396
11
119.093
21
-153.11
0
LINE
8
Black
10
119.093
20
-153.11
11
118.807
21
-152.967
0
LINE
8
Black
10
118.807
20
-152.967
11
118.379
21
-152.967
0
LINE
8
Black
10
118.379
20
-152.967
11
118.093
21
-153.11
0
LINE
8
Black
10
118.093
20
-153.11
11
117.95
21
-153.253
0
LINE
8
Black
10
121.093
20
-154.967
11
120.807
21
-154.824
0
LINE
8
Black
10
120.807
20
-154.824
11
120.664
21
-154.681
0
LINE
8
Black
10
120.664
20
-154.681
11
120.521
21
-154.396
0
LINE
8
Black
10
120.521
20
-154.396
11
120.521
21
-153.539
0
LINE
8
Black
10
120.521
20
-153.539
11
120.664
21
-153.253
0
LINE
8
Black
10
120.664
20
-153.253
11
120.807
21
-153.11
0
LINE
8
Black
10
120.807
20
-153.11
11
121.093
21
-152.967
0
LINE
8
Black
10
121.093
20
-152.967
11
121.521
21
-152.967
0
LINE
8
Black
10
121.521
20
-152.967
11
121.807
21
-153.11
0
LINE
8
Black
10
121.807
20
-153.11
11
121.95
21
-153.253
0
LINE
8
Black
10
121.95
20
-153.253
11
122.093
21
-153.539
0
LINE
8
Black
10
122.093
20
-153.539
11
122.093
21
-154.396
0
LINE
8
Black
10
122.093
20
-154.396
11
121.95
21
-154.681
0
LINE
8
Black
10
121.95
20
-154.681
11
121.807
21
-154.824
0
LINE
8
Black
10
121.807
20
-154.824
11
121.521
21
-154.967
0
LINE
8
Black
10
121.521
20
-154.967
11
121.093
21
-154.967
0
LINE
8
Black
10
123.807
20
-154.967
11
123.521
21
-154.824
0
LINE
8
Black
10
123.521
20
-154.824
11
123.379
21
-154.539
0
LINE
8
Black
10
123.379
20
-154.539
11
123.379
21
-151.967
0
LINE
8
Black
10
126.093
20
-154.824
11
125.807
21
-154.967
0
LINE
8
Black
10
125.807
20
-154.967
11
125.236
21
-154.967
0
LINE
8
Black
10
125.236
20
-154.967
11
124.95
21
-154.824
0
LINE
8
Black
10
124.95
20
-154.824
11
124.807
21
-154.539
0
LINE
8
Black
10
124.807
20
-154.539
11
124.807
21
-153.396
0
LINE
8
Black
10
124.807
20
-153.396
11
124.95
21
-153.11
0
LINE
8
Black
10
124.95
20
-153.11
11
125.236
21
-152.967
0
LINE
8
Black
10
125.236
20
-152.967
11
125.807
21
-152.967
0
LINE
8
Black
10
125.807
20
-152.967
11
126.093
21
-153.11
0
LINE
8
Black
10
126.093
20
-153.11
11
126.236
21
-153.396
0
LINE
8
Black
10
126.236
20
-153.396
11
126.236
21
-153.681
0
LINE
8
Black
10
126.236
20
-153.681
11
124.807
21
-153.967
0
LINE
8
Black
10
127.379
20
-154.824
11
127.664
21
-154.967
0
LINE
8
Black
10
127.664
20
-154.967
11
128.236
21
-154.967
0
LINE
8
Black
10
128.236
20
-154.967
11
128.521
21
-154.824
0
LINE
8
Black
10
128.521
20
-154.824
11
128.664
21
-154.539
0
LINE
8
Black
10
128.664
20
-154.539
11
128.664
21
-154.396
0
LINE
8
Black
10
128.664
20
-154.396
11
128.521
21
-154.11
0
LINE
8
Black
10
128.521
20
-154.11
11
128.236
21
-153.967
0
LINE
8
Black
10
128.236
20
-153.967
11
127.807
21
-153.967
0
LINE
8
Black
10
127.807
20
-153.967
11
127.521
21
-153.824
0
LINE
8
Black
10
127.521
20
-153.824
11
127.379
21
-153.539
0
LINE
8
Black
10
127.379
20
-153.539
11
127.379
21
-153.396
0
LINE
8
Black
10
127.379
20
-153.396
11
127.521
21
-153.11
0
LINE
8
Black
10
127.521
20
-153.11
11
127.807
21
-152.967
0
LINE
8
Black
10
127.807
20
-152.967
11
128.236
21
-152.967
0
LINE
8
Black
10
128.236
20
-152.967
11
128.521
21
-153.11
0
LINE
8
Black
10
129.664
20
-156.11
11
129.807
21
-155.967
0
LINE
8
Black
10
129.807
20
-155.967
11
130.093
21
-155.539
0
LINE
8
Black
10
130.093
20
-155.539
11
130.236
21
-155.253
0
LINE
8
Black
10
130.236
20
-155.253
11
130.379
21
-154.824
0
LINE
8
Black
10
130.379
20
-154.824
11
130.521
21
-154.11
0
LINE
8
Black
10
130.521
20
-154.11
11
130.521
21
-153.539
0
LINE
8
Black
10
130.521
20
-153.539
11
130.379
21
-152.824
0
LINE
8
Black
10
130.379
20
-152.824
11
130.236
21
-152.396
0
LINE
8
Black
10
130.236
20
-152.396
11
130.093
21
-152.11
0
LINE
8
Black
10
130.093
20
-152.11
11
129.807
21
-151.681
0
LINE
8
Black
10
129.807
20
-151.681
11
129.664
21
-151.539
0
LINE
8
Black
10
63.68
20
-156.3
11
63.68
21
-158.84
0
LINE
8
Black
10
62.41
20
-157.57
11
64.95
21
-157.57
0
LINE
8
Black
10
67.5214
20
-156.213
11
67.6643
21
-156.07
0
LINE
8
Black
10
67.6643
20
-156.07
11
67.95
21
-155.927
0
LINE
8
Black
10
67.95
20
-155.927
11
68.6643
21
-155.927
0
LINE
8
Black
10
68.6643
20
-155.927
11
68.95
21
-156.07
0
LINE
8
Black
10
68.95
20
-156.07
11
69.0929
21
-156.213
0
LINE
8
Black
10
69.0929
20
-156.213
11
69.2357
21
-156.499
0
LINE
8
Black
10
69.2357
20
-156.499
11
69.2357
21
-156.784
0
LINE
8
Black
10
69.2357
20
-156.784
11
69.0929
21
-157.213
0
LINE
8
Black
10
69.0929
20
-157.213
11
67.3786
21
-158.927
0
LINE
8
Black
10
67.3786
20
-158.927
11
69.2357
21
-158.927
0
LINE
8
Black
10
70.5214
20
-158.641
11
70.6643
21
-158.784
0
LINE
8
Black
10
70.6643
20
-158.784
11
70.5214
21
-158.927
0
LINE
8
Black
10
70.5214
20
-158.927
11
70.3786
21
-158.784
0
LINE
8
Black
10
70.3786
20
-158.784
11
70.5214
21
-158.641
0
LINE
8
Black
10
70.5214
20
-158.641
11
70.5214
21
-158.927
0
LINE
8
Black
10
73.3786
20
-155.927
11
71.95
21
-155.927
0
LINE
8
Black
10
71.95
20
-155.927
11
71.8071
21
-157.356
0
LINE
8
Black
10
71.8071
20
-157.356
11
71.95
21
-157.213
0
LINE
8
Black
10
71.95
20
-157.213
11
72.2357
21
-157.07
0
LINE
8
Black
10
72.2357
20
-157.07
11
72.95
21
-157.07
0
LINE
8
Black
10
72.95
20
-157.07
11
73.2357
21
-157.213
0
LINE
8
Black
10
73.2357
20
-157.213
11
73.3786
21
-157.356
0
LINE
8
Black
10
73.3786
20
-157.356
11
73.5214
21
-157.641
0
LINE
8
Black
10
73.5214
20
-157.641
11
73.5214
21
-158.356
0
LINE
8
Black
10
73.5214
20
-158.356
11
73.3786
21
-158.641
0
LINE
8
Black
10
73.3786
20
-158.641
11
73.2357
21
-158.784
0
LINE
8
Black
10
73.2357
20
-158.784
11
72.95
21
-158.927
0
LINE
8
Black
10
72.95
20
-158.927
11
72.2357
21
-158.927
0
LINE
8
Black
10
72.2357
20
-158.927
11
71.95
21
-158.784
0
LINE
8
Black
10
71.95
20
-158.784
11
71.8071
21
-158.641
0
LINE
8
Black
10
76.0929
20
-156.927
11
76.0929
21
-158.927
0
LINE
8
Black
10
75.3786
20
-155.784
11
74.6643
21
-157.927
0
LINE
8
Black
10
74.6643
20
-157.927
11
76.5214
21
-157.927
0
LINE
8
Black
10
77.6643
20
-158.927
11
77.6643
21
-156.927
0
LINE
8
Black
10
77.6643
20
-157.213
11
77.8071
21
-157.07
0
LINE
8
Black
10
77.8071
20
-157.07
11
78.0929
21
-156.927
0
LINE
8
Black
10
78.0929
20
-156.927
11
78.5214
21
-156.927
0
LINE
8
Black
10
78.5214
20
-156.927
11
78.8071
21
-157.07
0
LINE
8
Black
10
78.8071
20
-157.07
11
78.95
21
-157.356
0
LINE
8
Black
10
78.95
20
-157.356
11
78.95
21
-158.927
0
LINE
8
Black
10
78.95
20
-157.356
11
79.0929
21
-157.07
0
LINE
8
Black
10
79.0929
20
-157.07
11
79.3786
21
-156.927
0
LINE
8
Black
10
79.3786
20
-156.927
11
79.8071
21
-156.927
0
LINE
8
Black
10
79.8071
20
-156.927
11
80.0929
21
-157.07
0
LINE
8
Black
10
80.0929
20
-157.07
11
80.2357
21
-157.356
0
LINE
8
Black
10
80.2357
20
-157.356
11
80.2357
21
-158.927
0
LINE
8
Black
10
81.6643
20
-158.927
11
81.6643
21
-156.927
0
LINE
8
Black
10
81.6643
20
-157.213
11
81.8071
21
-157.07
0
LINE
8
Black
10
81.8071
20
-157.07
11
82.0929
21
-156.927
0
LINE
8
Black
10
82.0929
20
-156.927
11
82.5214
21
-156.927
0
LINE
8
Black
10
82.5214
20
-156.927
11
82.8071
21
-157.07
0
LINE
8
Black
10
82.8071
20
-157.07
11
82.95
21
-157.356
0
LINE
8
Black
10
82.95
20
-157.356
11
82.95
21
-158.927
0
LINE
8
Black
10
82.95
20
-157.356
11
83.0929
21
-157.07
0
LINE
8
Black
10
83.0929
20
-157.07
11
83.3786
21
-156.927
0
LINE
8
Black
10
83.3786
20
-156.927
11
83.8071
21
-156.927
0
LINE
8
Black
10
83.8071
20
-156.927
11
84.0929
21
-157.07
0
LINE
8
Black
10
84.0929
20
-157.07
11
84.2357
21
-157.356
0
LINE
8
Black
10
84.2357
20
-157.356
11
84.2357
21
-158.927
0
LINE
8
Black
10
90.0929
20
-155.784
11
87.5214
21
-159.641
0
LINE
8
Black
10
93.95
20
-155.927
11
94.2357
21
-155.927
0
LINE
8
Black
10
94.2357
20
-155.927
11
94.5214
21
-156.07
0
LINE
8
Black
10
94.5214
20
-156.07
11
94.6643
21
-156.213
0
LINE
8
Black
10
94.6643
20
-156.213
11
94.8071
21
-156.499
0
LINE
8
Black
10
94.8071
20
-156.499
11
94.95
21
-157.07
0
LINE
8
Black
10
94.95
20
-157.07
11
94.95
21
-157.784
0
LINE
8
Black
10
94.95
20
-157.784
11
94.8071
21
-158.356
0
LINE
8
Black
10
94.8071
20
-158.356
11
94.6643
21
-158.641
0
LINE
8
Black
10
94.6643
20
-158.641
11
94.5214
21
-158.784
0
LINE
8
Black
10
94.5214
20
-158.784
11
94.2357
21
-158.927
0
LINE
8
Black
10
94.2357
20
-158.927
11
93.95
21
-158.927
0
LINE
8
Black
10
93.95
20
-158.927
11
93.6643
21
-158.784
0
LINE
8
Black
10
93.6643
20
-158.784
11
93.5214
21
-158.641
0
LINE
8
Black
10
93.5214
20
-158.641
11
93.3786
21
-158.356
0
LINE
8
Black
10
93.3786
20
-158.356
11
93.2357
21
-157.784
0
LINE
8
Black
10
93.2357
20
-157.784
11
93.2357
21
-157.07
0
LINE
8
Black
10
93.2357
20
-157.07
11
93.3786
21
-156.499
0
LINE
8
Black
10
93.3786
20
-156.499
11
93.5214
21
-156.213
0
LINE
8
Black
10
93.5214
20
-156.213
11
93.6643
21
-156.07
0
LINE
8
Black
10
93.6643
20
-156.07
11
93.95
21
-155.927
0
LINE
8
Black
10
96.2357
20
-158.641
11
96.3786
21
-158.784
0
LINE
8
Black
10
96.3786
20
-158.784
11
96.2357
21
-158.927
0
LINE
8
Black
10
96.2357
20
-158.927
11
96.0929
21
-158.784
0
LINE
8
Black
10
96.0929
20
-158.784
11
96.2357
21
-158.641
0
LINE
8
Black
10
96.2357
20
-158.641
11
96.2357
21
-158.927
0
LINE
8
Black
10
99.2357
20
-158.927
11
97.5214
21
-158.927
0
LINE
8
Black
10
98.3786
20
-158.927
11
98.3786
21
-155.927
0
LINE
8
Black
10
98.3786
20
-155.927
11
98.0929
21
-156.356
0
LINE
8
Black
10
98.0929
20
-156.356
11
97.8071
21
-156.641
0
LINE
8
Black
10
97.8071
20
-156.641
11
97.5214
21
-156.784
0
LINE
8
Black
10
101.093
20
-155.927
11
101.379
21
-155.927
0
LINE
8
Black
10
101.379
20
-155.927
11
101.664
21
-156.07
0
LINE
8
Black
10
101.664
20
-156.07
11
101.807
21
-156.213
0
LINE
8
Black
10
101.807
20
-156.213
11
101.95
21
-156.499
0
LINE
8
Black
10
101.95
20
-156.499
11
102.093
21
-157.07
0
LINE
8
Black
10
102.093
20
-157.07
11
102.093
21
-157.784
0
LINE
8
Black
10
102.093
20
-157.784
11
101.95
21
-158.356
0
LINE
8
Black
10
101.95
20
-158.356
11
101.807
21
-158.641
0
LINE
8
Black
10
101.807
20
-158.641
11
101.664
21
-158.784
0
LINE
8
Black
10
101.664
20
-158.784
11
101.379
21
-158.927
0
LINE
8
Black
10
101.379
20
-158.927
11
101.093
21
-158.927
0
LINE
8
Black
10
101.093
20
-158.927
11
100.807
21
-158.784
0
LINE
8
Black
10
100.807
20
-158.784
11
100.664
21
-158.641
0
LINE
8
Black
10
100.664
20
-158.641
11
100.521
21
-158.356
0
LINE
8
Black
10
100.521
20
-158.356
11
100.379
21
-157.784
0
LINE
8
Black
10
100.379
20
-157.784
11
100.379
21
-157.07
0
LINE
8
Black
10
100.379
20
-157.07
11
100.521
21
-156.499
0
LINE
8
Black
10
100.521
20
-156.499
11
100.664
21
-156.213
0
LINE
8
Black
10
100.664
20
-156.213
11
100.807
21
-156.07
0
LINE
8
Black
10
100.807
20
-156.07
11
101.093
21
-155.927
0
LINE
8
Black
10
103.95
20
-155.927
11
104.236
21
-155.927
0
LINE
8
Black
10
104.236
20
-155.927
11
104.521
21
-156.07
0
LINE
8
Black
10
104.521
20
-156.07
11
104.664
21
-156.213
0
LINE
8
Black
10
104.664
20
-156.213
11
104.807
21
-156.499
0
LINE
8
Black
10
104.807
20
-156.499
11
104.95
21
-157.07
0
LINE
8
Black
10
104.95
20
-157.07
11
104.95
21
-157.784
0
LINE
8
Black
10
104.95
20
-157.784
11
104.807
21
-158.356
0
LINE
8
Black
10
104.807
20
-158.356
11
104.664
21
-158.641
0
LINE
8
Black
10
104.664
20
-158.641
11
104.521
21
-158.784
0
LINE
8
Black
10
104.521
20
-158.784
11
104.236
21
-158.927
0
LINE
8
Black
10
104.236
20
-158.927
11
103.95
21
-158.927
0
LINE
8
Black
10
103.95
20
-158.927
11
103.664
21
-158.784
0
LINE
8
Black
10
103.664
20
-158.784
11
103.521
21
-158.641
0
LINE
8
Black
10
103.521
20
-158.641
11
103.379
21
-158.356
0
LINE
8
Black
10
103.379
20
-158.356
11
103.236
21
-157.784
0
LINE
8
Black
10
103.236
20
-157.784
11
103.236
21
-157.07
0
LINE
8
Black
10
103.236
20
-157.07
11
103.379
21
-156.499
0
LINE
8
Black
10
103.379
20
-156.499
11
103.521
21
-156.213
0
LINE
8
Black
10
103.521
20
-156.213
11
103.664
21
-156.07
0
LINE
8
Black
10
103.664
20
-156.07
11
103.95
21
-155.927
0
LINE
8
Black
10
106.093
20
-155.927
11
106.093
21
-156.499
0
LINE
8
Black
10
107.236
20
-155.927
11
107.236
21
-156.499
0
LINE
8
Black
10
111.664
20
-160.07
11
111.521
21
-159.927
0
LINE
8
Black
10
111.521
20
-159.927
11
111.236
21
-159.499
0
LINE
8
Black
10
111.236
20
-159.499
11
111.093
21
-159.213
0
LINE
8
Black
10
111.093
20
-159.213
11
110.95
21
-158.784
0
LINE
8
Black
10
110.95
20
-158.784
11
110.807
21
-158.07
0
LINE
8
Black
10
110.807
20
-158.07
11
110.807
21
-157.499
0
LINE
8
Black
10
110.807
20
-157.499
11
110.95
21
-156.784
0
LINE
8
Black
10
110.95
20
-156.784
11
111.093
21
-156.356
0
LINE
8
Black
10
111.093
20
-156.356
11
111.236
21
-156.07
0
LINE
8
Black
10
111.236
20
-156.07
11
111.521
21
-155.641
0
LINE
8
Black
10
111.521
20
-155.641
11
111.664
21
-155.499
0
LINE
8
Black
10
112.521
20
-155.927
11
114.379
21
-155.927
0
LINE
8
Black
10
114.379
20
-155.927
11
113.379
21
-157.07
0
LINE
8
Black
10
113.379
20
-157.07
11
113.807
21
-157.07
0
LINE
8
Black
10
113.807
20
-157.07
11
114.093
21
-157.213
0
LINE
8
Black
10
114.093
20
-157.213
11
114.236
21
-157.356
0
LINE
8
Black
10
114.236
20
-157.356
11
114.379
21
-157.641
0
LINE
8
Black
10
114.379
20
-157.641
11
114.379
21
-158.356
0
LINE
8
Black
10
114.379
20
-158.356
11
114.236
21
-158.641
0
LINE
8
Black
10
114.236
20
-158.641
11
114.093
21
-158.784
0
LINE
8
Black
10
114.093
20
-158.784
11
113.807
21
-158.927
0
LINE
8
Black
10
113.807
20
-158.927
11
112.95
21
-158.927
0
LINE
8
Black
10
112.95
20
-158.927
11
112.664
21
-158.784
0
LINE
8
Black
10
112.664
20
-158.784
11
112.521
21
-158.641
0
LINE
8
Black
10
117.95
20
-158.927
11
117.95
21
-155.927
0
LINE
8
Black
10
119.236
20
-158.927
11
119.236
21
-157.356
0
LINE
8
Black
10
119.236
20
-157.356
11
119.093
21
-157.07
0
LINE
8
Black
10
119.093
20
-157.07
11
118.807
21
-156.927
0
LINE
8
Black
10
118.807
20
-156.927
11
118.379
21
-156.927
0
LINE
8
Black
10
118.379
20
-156.927
11
118.093
21
-157.07
0
LINE
8
Black
10
118.093
20
-157.07
11
117.95
21
-157.213
0
LINE
8
Black
10
121.093
20
-158.927
11
120.807
21
-158.784
0
LINE
8
Black
10
120.807
20
-158.784
11
120.664
21
-158.641
0
LINE
8
Black
10
120.664
20
-158.641
11
120.521
21
-158.356
0
LINE
8
Black
10
120.521
20
-158.356
11
120.521
21
-157.499
0
LINE
8
Black
10
120.521
20
-157.499
11
120.664
21
-157.213
0
LINE
8
Black
10
120.664
20
-157.213
11
120.807
21
-157.07
0
LINE
8
Black
10
120.807
20
-157.07
11
121.093
21
-156.927
0
LINE
8
Black
10
121.093
20
-156.927
11
121.521
21
-156.927
0
LINE
8
Black
10
121.521
20
-156.927
11
121.807
21
-157.07
0
LINE
8
Black
10
121.807
20
-157.07
11
121.95
21
-157.213
0
LINE
8
Black
10
121.95
20
-157.213
11
122.093
21
-157.499
0
LINE
8
Black
10
122.093
20
-157.499
11
122.093
21
-158.356
0
LINE
8
Black
10
122.093
20
-158.356
11
121.95
21
-158.641
0
LINE
8
Black
10
121.95
20
-158.641
11
121.807
21
-158.784
0
LINE
8
Black
10
121.807
20
-158.784
11
121.521
21
-158.927
0
LINE
8
Black
10
121.521
20
-158.927
11
121.093
21
-158.927
0
LINE
8
Black
10
123.807
20
-158.927
11
123.521
21
-158.784
0
LINE
8
Black
10
123.521
20
-158.784
11
123.379
21
-158.499
0
LINE
8
Black
10
123.379
20
-158.499
11
123.379
21
-155.927
0
LINE
8
Black
10
126.093
20
-158.784
11
125.807
21
-158.927
0
LINE
8
Black
10
125.807
20
-158.927
11
125.236
21
-158.927
0
LINE
8
Black
10
125.236
20
-158.927
11
124.95
21
-158.784
0
LINE
8
Black
10
124.95
20
-158.784
11
124.807
21
-158.499
0
LINE
8
Black
10
124.807
20
-158.499
11
124.807
21
-157.356
0
LINE
8
Black
10
124.807
20
-157.356
11
124.95
21
-157.07
0
LINE
8
Black
10
124.95
20
-157.07
11
125.236
21
-156.927
0
LINE
8
Black
10
125.236
20
-156.927
11
125.807
21
-156.927
0
LINE
8
Black
10
125.807
20
-156.927
11
126.093
21
-157.07
0
LINE
8
Black
10
126.093
20
-157.07
11
126.236
21
-157.356
0
LINE
8
Black
10
126.236
20
-157.356
11
126.236
21
-157.641
0
LINE
8
Black
10
126.236
20
-157.641
11
124.807
21
-157.927
0
LINE
8
Black
10
127.379
20
-158.784
11
127.664
21
-158.927
0
LINE
8
Black
10
127.664
20
-158.927
11
128.236
21
-158.927
0
LINE
8
Black
10
128.236
20
-158.927
11
128.521
21
-158.784
0
LINE
8
Black
10
128.521
20
-158.784
11
128.664
21
-158.499
0
LINE
8
Black
10
128.664
20
-158.499
11
128.664
21
-158.356
0
LINE
8
Black
10
128.664
20
-158.356
11
128.521
21
-158.07
0
LINE
8
Black
10
128.521
20
-158.07
11
128.236
21
-157.927
0
LINE
8
Black
10
128.236
20
-157.927
11
127.807
21
-157.927
0
LINE
8
Black
10
127.807
20
-157.927
11
127.521
21
-157.784
0
LINE
8
Black
10
127.521
20
-157.784
11
127.379
21
-157.499
0
LINE
8
Black
10
127.379
20
-157.499
11
127.379
21
-157.356
0
LINE
8
Black
10
127.379
20
-157.356
11
127.521
21
-157.07
0
LINE
8
Black
10
127.521
20
-157.07
11
127.807
21
-156.927
0
LINE
8
Black
10
127.807
20
-156.927
11
128.236
21
-156.927
0
LINE
8
Black
10
128.236
20
-156.927
11
128.521
21
-157.07
0
LINE
8
Black
10
129.664
20
-160.07
11
129.807
21
-159.927
0
LINE
8
Black
10
129.807
20
-159.927
11
130.093
21
-159.499
0
LINE
8
Black
10
130.093
20
-159.499
11
130.236
21
-159.213
0
LINE
8
Black
10
130.236
20
-159.213
11
130.379
21
-158.784
0
LINE
8
Black
10
130.379
20
-158.784
11
130.521
21
-158.07
0
LINE
8
Black
10
130.521
20
-158.07
11
130.521
21
-157.499
0
LINE
8
Black
10
130.521
20
-157.499
11
130.379
21
-156.784
0
LINE
8
Black
10
130.379
20
-156.784
11
130.236
21
-156.356
0
LINE
8
Black
10
130.236
20
-156.356
11
130.093
21
-156.07
0
LINE
8
Black
10
130.093
20
-156.07
11
129.807
21
-155.641
0
LINE
8
Black
10
129.807
20
-155.641
11
129.664
21
-155.499
0
LINE
8
Black
10
64.485
20
-162.653
11
64.485
21
-160.407
0
LINE
8
Black
10
64.485
20
-160.407
11
62.24
21
-160.407
0
LINE
8
Black
10
62.24
20
-160.407
11
62.24
21
-162.653
0
LINE
8
Black
10
62.24
20
-162.653
11
64.485
21
-162.653
0
LINE
8
Black
10
67.3786
20
-159.887
11
69.2357
21
-159.887
0
LINE
8
Black
10
69.2357
20
-159.887
11
68.2357
21
-161.03
0
LINE
8
Black
10
68.2357
20
-161.03
11
68.6643
21
-161.03
0
LINE
8
Black
10
68.6643
20
-161.03
11
68.95
21
-161.173
0
LINE
8
Black
10
68.95
20
-161.173
11
69.0929
21
-161.316
0
LINE
8
Black
10
69.0929
20
-161.316
11
69.2357
21
-161.601
0
LINE
8
Black
10
69.2357
20
-161.601
11
69.2357
21
-162.316
0
LINE
8
Black
10
69.2357
20
-162.316
11
69.0929
21
-162.601
0
LINE
8
Black
10
69.0929
20
-162.601
11
68.95
21
-162.744
0
LINE
8
Black
10
68.95
20
-162.744
11
68.6643
21
-162.887
0
LINE
8
Black
10
68.6643
20
-162.887
11
67.8071
21
-162.887
0
LINE
8
Black
10
67.8071
20
-162.887
11
67.5214
21
-162.744
0
LINE
8
Black
10
67.5214
20
-162.744
11
67.3786
21
-162.601
0
LINE
8
Black
10
70.5214
20
-162.601
11
70.6643
21
-162.744
0
LINE
8
Black
10
70.6643
20
-162.744
11
70.5214
21
-162.887
0
LINE
8
Black
10
70.5214
20
-162.887
11
70.3786
21
-162.744
0
LINE
8
Black
10
70.3786
20
-162.744
11
70.5214
21
-162.601
0
LINE
8
Black
10
70.5214
20
-162.601
11
70.5214
21
-162.887
0
LINE
8
Black
10
73.5214
20
-162.887
11
71.8071
21
-162.887
0
LINE
8
Black
10
72.6643
20
-162.887
11
72.6643
21
-159.887
0
LINE
8
Black
10
72.6643
20
-159.887
11
72.3786
21
-160.316
0
LINE
8
Black
10
72.3786
20
-160.316
11
72.0929
21
-160.601
0
LINE
8
Black
10
72.0929
20
-160.601
11
71.8071
21
-160.744
0
LINE
8
Black
10
74.5214
20
-159.887
11
76.5214
21
-159.887
0
LINE
8
Black
10
76.5214
20
-159.887
11
75.2357
21
-162.887
0
LINE
8
Black
10
77.6643
20
-162.887
11
77.6643
21
-160.887
0
LINE
8
Black
10
77.6643
20
-161.173
11
77.8071
21
-161.03
0
LINE
8
Black
10
77.8071
20
-161.03
11
78.0929
21
-160.887
0
LINE
8
Black
10
78.0929
20
-160.887
11
78.5214
21
-160.887
0
LINE
8
Black
10
78.5214
20
-160.887
11
78.8071
21
-161.03
0
LINE
8
Black
10
78.8071
20
-161.03
11
78.95
21
-161.316
0
LINE
8
Black
10
78.95
20
-161.316
11
78.95
21
-162.887
0
LINE
8
Black
10
78.95
20
-161.316
11
79.0929
21
-161.03
0
LINE
8
Black
10
79.0929
20
-161.03
11
79.3786
21
-160.887
0
LINE
8
Black
10
79.3786
20
-160.887
11
79.8071
21
-160.887
0
LINE
8
Black
10
79.8071
20
-160.887
11
80.0929
21
-161.03
0
LINE
8
Black
10
80.0929
20
-161.03
11
80.2357
21
-161.316
0
LINE
8
Black
10
80.2357
20
-161.316
11
80.2357
21
-162.887
0
LINE
8
Black
10
81.6643
20
-162.887
11
81.6643
21
-160.887
0
LINE
8
Black
10
81.6643
20
-161.173
11
81.8071
21
-161.03
0
LINE
8
Black
10
81.8071
20
-161.03
11
82.0929
21
-160.887
0
LINE
8
Black
10
82.0929
20
-160.887
11
82.5214
21
-160.887
0
LINE
8
Black
10
82.5214
20
-160.887
11
82.8071
21
-161.03
0
LINE
8
Black
10
82.8071
20
-161.03
11
82.95
21
-161.316
0
LINE
8
Black
10
82.95
20
-161.316
11
82.95
21
-162.887
0
LINE
8
Black
10
82.95
20
-161.316
11
83.0929
21
-161.03
0
LINE
8
Black
10
83.0929
20
-161.03
11
83.3786
21
-160.887
0
LINE
8
Black
10
83.3786
20
-160.887
11
83.8071
21
-160.887
0
LINE
8
Black
10
83.8071
20
-160.887
11
84.0929
21
-161.03
0
LINE
8
Black
10
84.0929
20
-161.03
11
84.2357
21
-161.316
0
LINE
8
Black
10
84.2357
20
-161.316
11
84.2357
21
-162.887
0
LINE
8
Black
10
90.0929
20
-159.744
11
87.5214
21
-163.601
0
LINE
8
Black
10
93.95
20
-159.887
11
94.2357
21
-159.887
0
LINE
8
Black
10
94.2357
20
-159.887
11
94.5214
21
-160.03
0
LINE
8
Black
10
94.5214
20
-160.03
11
94.6643
21
-160.173
0
LINE
8
Black
10
94.6643
20
-160.173
11
94.8071
21
-160.459
0
LINE
8
Black
10
94.8071
20
-160.459
11
94.95
21
-161.03
0
LINE
8
Black
10
94.95
20
-161.03
11
94.95
21
-161.744
0
LINE
8
Black
10
94.95
20
-161.744
11
94.8071
21
-162.316
0
LINE
8
Black
10
94.8071
20
-162.316
11
94.6643
21
-162.601
0
LINE
8
Black
10
94.6643
20
-162.601
11
94.5214
21
-162.744
0
LINE
8
Black
10
94.5214
20
-162.744
11
94.2357
21
-162.887
0
LINE
8
Black
10
94.2357
20
-162.887
11
93.95
21
-162.887
0
LINE
8
Black
10
93.95
20
-162.887
11
93.6643
21
-162.744
0
LINE
8
Black
10
93.6643
20
-162.744
11
93.5214
21
-162.601
0
LINE
8
Black
10
93.5214
20
-162.601
11
93.3786
21
-162.316
0
LINE
8
Black
10
93.3786
20
-162.316
11
93.2357
21
-161.744
0
LINE
8
Black
10
93.2357
20
-161.744
11
93.2357
21
-161.03
0
LINE
8
Black
10
93.2357
20
-161.03
11
93.3786
21
-160.459
0
LINE
8
Black
10
93.3786
20
-160.459
11
93.5214
21
-160.173
0
LINE
8
Black
10
93.5214
20
-160.173
11
93.6643
21
-160.03
0
LINE
8
Black
10
93.6643
20
-160.03
11
93.95
21
-159.887
0
LINE
8
Black
10
96.2357
20
-162.601
11
96.3786
21
-162.744
0
LINE
8
Black
10
96.3786
20
-162.744
11
96.2357
21
-162.887
0
LINE
8
Black
10
96.2357
20
-162.887
11
96.0929
21
-162.744
0
LINE
8
Black
10
96.0929
20
-162.744
11
96.2357
21
-162.601
0
LINE
8
Black
10
96.2357
20
-162.601
11
96.2357
21
-162.887
0
LINE
8
Black
10
99.2357
20
-162.887
11
97.5214
21
-162.887
0
LINE
8
Black
10
98.3786
20
-162.887
11
98.3786
21
-159.887
0
LINE
8
Black
10
98.3786
20
-159.887
11
98.0929
21
-160.316
0
LINE
8
Black
10
98.0929
20
-160.316
11
97.8071
21
-160.601
0
LINE
8
Black
10
97.8071
20
-160.601
11
97.5214
21
-160.744
0
LINE
8
Black
10
100.379
20
-160.173
11
100.521
21
-160.03
0
LINE
8
Black
10
100.521
20
-160.03
11
100.807
21
-159.887
0
LINE
8
Black
10
100.807
20
-159.887
11
101.521
21
-159.887
0
LINE
8
Black
10
101.521
20
-159.887
11
101.807
21
-160.03
0
LINE
8
Black
10
101.807
20
-160.03
11
101.95
21
-160.173
0
LINE
8
Black
10
101.95
20
-160.173
11
102.093
21
-160.459
0
LINE
8
Black
10
102.093
20
-160.459
11
102.093
21
-160.744
0
LINE
8
Black
10
102.093
20
-160.744
11
101.95
21
-161.173
0
LINE
8
Black
10
101.95
20
-161.173
11
100.236
21
-162.887
0
LINE
8
Black
10
100.236
20
-162.887
11
102.093
21
-162.887
0
LINE
8
Black
10
104.807
20
-159.887
11
103.379
21
-159.887
0
LINE
8
Black
10
103.379
20
-159.887
11
103.236
21
-161.316
0
LINE
8
Black
10
103.236
20
-161.316
11
103.379
21
-161.173
0
LINE
8
Black
10
103.379
20
-161.173
11
103.664
21
-161.03
0
LINE
8
Black
10
103.664
20
-161.03
11
104.379
21
-161.03
0
LINE
8
Black
10
104.379
20
-161.03
11
104.664
21
-161.173
0
LINE
8
Black
10
104.664
20
-161.173
11
104.807
21
-161.316
0
LINE
8
Black
10
104.807
20
-161.316
11
104.95
21
-161.601
0
LINE
8
Black
10
104.95
20
-161.601
11
104.95
21
-162.316
0
LINE
8
Black
10
104.95
20
-162.316
11
104.807
21
-162.601
0
LINE
8
Black
10
104.807
20
-162.601
11
104.664
21
-162.744
0
LINE
8
Black
10
104.664
20
-162.744
11
104.379
21
-162.887
0
LINE
8
Black
10
104.379
20
-162.887
11
103.664
21
-162.887
0
LINE
8
Black
10
103.664
20
-162.887
11
103.379
21
-162.744
0
LINE
8
Black
10
103.379
20
-162.744
11
103.236
21
-162.601
0
LINE
8
Black
10
106.093
20
-159.887
11
106.093
21
-160.459
0
LINE
8
Black
10
107.236
20
-159.887
11
107.236
21
-160.459
0
LINE
8
Black
10
111.664
20
-164.03
11
111.521
21
-163.887
0
LINE
8
Black
10
111.521
20
-163.887
11
111.236
21
-163.459
0
LINE
8
Black
10
111.236
20
-163.459
11
111.093
21
-163.173
0
LINE
8
Black
10
111.093
20
-163.173
11
110.95
21
-162.744
0
LINE
8
Black
10
110.95
20
-162.744
11
110.807
21
-162.03
0
LINE
8
Black
10
110.807
20
-162.03
11
110.807
21
-161.459
0
LINE
8
Black
10
110.807
20
-161.459
11
110.95
21
-160.744
0
LINE
8
Black
10
110.95
20
-160.744
11
111.093
21
-160.316
0
LINE
8
Black
10
111.093
20
-160.316
11
111.236
21
-160.03
0
LINE
8
Black
10
111.236
20
-160.03
11
111.521
21
-159.601
0
LINE
8
Black
10
111.521
20
-159.601
11
111.664
21
-159.459
0
LINE
8
Black
10
114.093
20
-160.887
11
114.093
21
-162.887
0
LINE
8
Black
10
113.379
20
-159.744
11
112.664
21
-161.887
0
LINE
8
Black
10
112.664
20
-161.887
11
114.521
21
-161.887
0
LINE
8
Black
10
117.95
20
-162.887
11
117.95
21
-159.887
0
LINE
8
Black
10
119.236
20
-162.887
11
119.236
21
-161.316
0
LINE
8
Black
10
119.236
20
-161.316
11
119.093
21
-161.03
0
LINE
8
Black
10
119.093
20
-161.03
11
118.807
21
-160.887
0
LINE
8
Black
10
118.807
20
-160.887
11
118.379
21
-160.887
0
LINE
8
Black
10
118.379
20
-160.887
11
118.093
21
-161.03
0
LINE
8
Black
10
118.093
20
-161.03
11
117.95
21
-161.173
0
LINE
8
Black
10
121.093
20
-162.887
11
120.807
21
-162.744
0
LINE
8
Black
10
120.807
20
-162.744
11
120.664
21
-162.601
0
LINE
8
Black
10
120.664
20
-162.601
11
120.521
21
-162.316
0
LINE
8
Black
10
120.521
20
-162.316
11
120.521
21
-161.459
0
LINE
8
Black
10
120.521
20
-161.459
11
120.664
21
-161.173
0
LINE
8
Black
10
120.664
20
-161.173
11
120.807
21
-161.03
0
LINE
8
Black
10
120.807
20
-161.03
11
121.093
21
-160.887
0
LINE
8
Black
10
121.093
20
-160.887
11
121.521
21
-160.887
0
LINE
8
Black
10
121.521
20
-160.887
11
121.807
21
-161.03
0
LINE
8
Black
10
121.807
20
-161.03
11
121.95
21
-161.173
0
LINE
8
Black
10
121.95
20
-161.173
11
122.093
21
-161.459
0
LINE
8
Black
10
122.093
20
-161.459
11
122.093
21
-162.316
0
LINE
8
Black
10
122.093
20
-162.316
11
121.95
21
-162.601
0
LINE
8
Black
10
121.95
20
-162.601
11
121.807
21
-162.744
0
LINE
8
Black
10
121.807
20
-162.744
11
121.521
21
-162.887
0
LINE
8
Black
10
121.521
20
-162.887
11
121.093
21
-162.887
0
LINE
8
Black
10
123.807
20
-162.887
11
123.521
21
-162.744
0
LINE
8
Black
10
123.521
20
-162.744
11
123.379
21
-162.459
0
LINE
8
Black
10
123.379
20
-162.459
11
123.379
21
-159.887
0
LINE
8
Black
10
126.093
20
-162.744
11
125.807
21
-162.887
0
LINE
8
Black
10
125.807
20
-162.887
11
125.236
21
-162.887
0
LINE
8
Black
10
125.236
20
-162.887
11
124.95
21
-162.744
0
LINE
8
Black
10
124.95
20
-162.744
11
124.807
21
-162.459
0
LINE
8
Black
10
124.807
20
-162.459
11
124.807
21
-161.316
0
LINE
8
Black
10
124.807
20
-161.316
11
124.95
21
-161.03
0
LINE
8
Black
10
124.95
20
-161.03
11
125.236
21
-160.887
0
LINE
8
Black
10
125.236
20
-160.887
11
125.807
21
-160.887
0
LINE
8
Black
10
125.807
20
-160.887
11
126.093
21
-161.03
0
LINE
8
Black
10
126.093
20
-161.03
11
126.236
21
-161.316
0
LINE
8
Black
10
126.236
20
-161.316
11
126.236
21
-161.601
0
LINE
8
Black
10
126.236
20
-161.601
11
124.807
21
-161.887
0
LINE
8
Black
10
127.379
20
-162.744
11
127.664
21
-162.887
0
LINE
8
Black
10
127.664
20
-162.887
11
128.236
21
-162.887
0
LINE
8
Black
10
128.236
20
-162.887
11
128.521
21
-162.744
0
LINE
8
Black
10
128.521
20
-162.744
11
128.664
21
-162.459
0
LINE
8
Black
10
128.664
20
-162.459
11
128.664
21
-162.316
0
LINE
8
Black
10
128.664
20
-162.316
11
128.521
21
-162.03
0
LINE
8
Black
10
128.521
20
-162.03
11
128.236
21
-161.887
0
LINE
8
Black
10
128.236
20
-161.887
11
127.807
21
-161.887
0
LINE
8
Black
10
127.807
20
-161.887
11
127.521
21
-161.744
0
LINE
8
Black
10
127.521
20
-161.744
11
127.379
21
-161.459
0
LINE
8
Black
10
127.379
20
-161.459
11
127.379
21
-161.316
0
LINE
8
Black
10
127.379
20
-161.316
11
127.521
21
-161.03
0
LINE
8
Black
10
127.521
20
-161.03
11
127.807
21
-160.887
0
LINE
8
Black
10
127.807
20
-160.887
11
128.236
21
-160.887
0
LINE
8
Black
10
128.236
20
-160.887
11
128.521
21
-161.03
0
LINE
8
Black
10
129.664
20
-164.03
11
129.807
21
-163.887
0
LINE
8
Black
10
129.807
20
-163.887
11
130.093
21
-163.459
0
LINE
8
Black
10
130.093
20
-163.459
11
130.236
21
-163.173
0
LINE
8
Black
10
130.236
20
-163.173
11
130.379
21
-162.744
0
LINE
8
Black
10
130.379
20
-162.744
11
130.521
21
-162.03
0
LINE
8
Black
10
130.521
20
-162.03
11
130.521
21
-161.459
0
LINE
8
Black
10
130.521
20
-161.459
11
130.379
21
-160.744
0
LINE
8
Black
10
130.379
20
-160.744
11
130.236
21
-160.316
0
LINE
8
Black
10
130.236
20
-160.316
11
130.093
21
-160.03
0
LINE
8
Black
10
130.093
20
-160.03
11
129.807
21
-159.601
0
LINE
8
Black
10
129.807
20
-159.601
11
129.664
21
-159.459
0
LINE
8
Black
10
63.0323
20
-167.923
11
64.95
21
-166.005
0
LINE
8
Black
10
64.95
20
-166.005
11
63.0323
21
-164.087
0
LINE
8
Black
10
63.0323
20
-164.087
11
61.1146
21
-166.005
0
LINE
8
Black
10
61.1146
20
-166.005
11
63.0323
21
-167.923
0
LINE
8
Black
10
67.3786
20
-164.362
11
69.2357
21
-164.362
0
LINE
8
Black
10
69.2357
20
-164.362
11
68.2357
21
-165.505
0
LINE
8
Black
10
68.2357
20
-165.505
11
68.6643
21
-165.505
0
LINE
8
Black
10
68.6643
20
-165.505
11
68.95
21
-165.648
0
LINE
8
Black
10
68.95
20
-165.648
11
69.0929
21
-165.791
0
LINE
8
Black
10
69.0929
20
-165.791
11
69.2357
21
-166.076
0
LINE
8
Black
10
69.2357
20
-166.076
11
69.2357
21
-166.791
0
LINE
8
Black
10
69.2357
20
-166.791
11
69.0929
21
-167.076
0
LINE
8
Black
10
69.0929
20
-167.076
11
68.95
21
-167.219
0
LINE
8
Black
10
68.95
20
-167.219
11
68.6643
21
-167.362
0
LINE
8
Black
10
68.6643
20
-167.362
11
67.8071
21
-167.362
0
LINE
8
Black
10
67.8071
20
-167.362
11
67.5214
21
-167.219
0
LINE
8
Black
10
67.5214
20
-167.219
11
67.3786
21
-167.076
0
LINE
8
Black
10
70.5214
20
-167.076
11
70.6643
21
-167.219
0
LINE
8
Black
10
70.6643
20
-167.219
11
70.5214
21
-167.362
0
LINE
8
Black
10
70.5214
20
-167.362
11
70.3786
21
-167.219
0
LINE
8
Black
10
70.3786
20
-167.219
11
70.5214
21
-167.076
0
LINE
8
Black
10
70.5214
20
-167.076
11
70.5214
21
-167.362
0
LINE
8
Black
10
72.3786
20
-165.648
11
72.0929
21
-165.505
0
LINE
8
Black
10
72.0929
20
-165.505
11
71.95
21
-165.362
0
LINE
8
Black
10
71.95
20
-165.362
11
71.8071
21
-165.076
0
LINE
8
Black
10
71.8071
20
-165.076
11
71.8071
21
-164.934
0
LINE
8
Black
10
71.8071
20
-164.934
11
71.95
21
-164.648
0
LINE
8
Black
10
71.95
20
-164.648
11
72.0929
21
-164.505
0
LINE
8
Black
10
72.0929
20
-164.505
11
72.3786
21
-164.362
0
LINE
8
Black
10
72.3786
20
-164.362
11
72.95
21
-164.362
0
LINE
8
Black
10
72.95
20
-164.362
11
73.2357
21
-164.505
0
LINE
8
Black
10
73.2357
20
-164.505
11
73.3786
21
-164.648
0
LINE
8
Black
10
73.3786
20
-164.648
11
73.5214
21
-164.934
0
LINE
8
Black
10
73.5214
20
-164.934
11
73.5214
21
-165.076
0
LINE
8
Black
10
73.5214
20
-165.076
11
73.3786
21
-165.362
0
LINE
8
Black
10
73.3786
20
-165.362
11
73.2357
21
-165.505
0
LINE
8
Black
10
73.2357
20
-165.505
11
72.95
21
-165.648
0
LINE
8
Black
10
72.95
20
-165.648
11
72.3786
21
-165.648
0
LINE
8
Black
10
72.3786
20
-165.648
11
72.0929
21
-165.791
0
LINE
8
Black
10
72.0929
20
-165.791
11
71.95
21
-165.934
0
LINE
8
Black
10
71.95
20
-165.934
11
71.8071
21
-166.219
0
LINE
8
Black
10
71.8071
20
-166.219
11
71.8071
21
-166.791
0
LINE
8
Black
10
71.8071
20
-166.791
11
71.95
21
-167.076
0
LINE
8
Black
10
71.95
20
-167.076
11
72.0929
21
-167.219
0
LINE
8
Black
10
72.0929
20
-167.219
11
72.3786
21
-167.362
0
LINE
8
Black
10
72.3786
20
-167.362
11
72.95
21
-167.362
0
LINE
8
Black
10
72.95
20
-167.362
11
73.2357
21
-167.219
0
LINE
8
Black
10
73.2357
20
-167.219
11
73.3786
21
-167.076
0
LINE
8
Black
10
73.3786
20
-167.076
11
73.5214
21
-166.791
0
LINE
8
Black
10
73.5214
20
-166.791
11
73.5214
21
-166.219
0
LINE
8
Black
10
73.5214
20
-166.219
11
73.3786
21
-165.934
0
LINE
8
Black
10
73.3786
20
-165.934
11
73.2357
21
-165.791
0
LINE
8
Black
10
73.2357
20
-165.791
11
72.95
21
-165.648
0
LINE
8
Black
10
76.0929
20
-165.362
11
76.0929
21
-167.362
0
LINE
8
Black
10
75.3786
20
-164.219
11
74.6643
21
-166.362
0
LINE
8
Black
10
74.6643
20
-166.362
11
76.5214
21
-166.362
0
LINE
8
Black
10
77.6643
20
-167.362
11
77.6643
21
-165.362
0
LINE
8
Black
10
77.6643
20
-165.648
11
77.8071
21
-165.505
0
LINE
8
Black
10
77.8071
20
-165.505
11
78.0929
21
-165.362
0
LINE
8
Black
10
78.0929
20
-165.362
11
78.5214
21
-165.362
0
LINE
8
Black
10
78.5214
20
-165.362
11
78.8071
21
-165.505
0
LINE
8
Black
10
78.8071
20
-165.505
11
78.95
21
-165.791
0
LINE
8
Black
10
78.95
20
-165.791
11
78.95
21
-167.362
0
LINE
8
Black
10
78.95
20
-165.791
11
79.0929
21
-165.505
0
LINE
8
Black
10
79.0929
20
-165.505
11
79.3786
21
-165.362
0
LINE
8
Black
10
79.3786
20
-165.362
11
79.8071
21
-165.362
0
LINE
8
Black
10
79.8071
20
-165.362
11
80.0929
21
-165.505
0
LINE
8
Black
10
80.0929
20
-165.505
11
80.2357
21
-165.791
0
LINE
8
Black
10
80.2357
20
-165.791
11
80.2357
21
-167.362
0
LINE
8
Black
10
81.6643
20
-167.362
11
81.6643
21
-165.362
0
LINE
8
Black
10
81.6643
20
-165.648
11
81.8071
21
-165.505
0
LINE
8
Black
10
81.8071
20
-165.505
11
82.0929
21
-165.362
0
LINE
8
Black
10
82.0929
20
-165.362
11
82.5214
21
-165.362
0
LINE
8
Black
10
82.5214
20
-165.362
11
82.8071
21
-165.505
0
LINE
8
Black
10
82.8071
20
-165.505
11
82.95
21
-165.791
0
LINE
8
Black
10
82.95
20
-165.791
11
82.95
21
-167.362
0
LINE
8
Black
10
82.95
20
-165.791
11
83.0929
21
-165.505
0
LINE
8
Black
10
83.0929
20
-165.505
11
83.3786
21
-165.362
0
LINE
8
Black
10
83.3786
20
-165.362
11
83.8071
21
-165.362
0
LINE
8
Black
10
83.8071
20
-165.362
11
84.0929
21
-165.505
0
LINE
8
Black
10
84.0929
20
-165.505
11
84.2357
21
-165.791
0
LINE
8
Black
10
84.2357
20
-165.791
11
84.2357
21
-167.362
0
LINE
8
Black
10
90.0929
20
-164.219
11
87.5214
21
-168.076
0
LINE
8
Black
10
93.95
20
-164.362
11
94.2357
21
-164.362
0
LINE
8
Black
10
94.2357
20
-164.362
11
94.5214
21
-164.505
0
LINE
8
Black
10
94.5214
20
-164.505
11
94.6643
21
-164.648
0
LINE
8
Black
10
94.6643
20
-164.648
11
94.8071
21
-164.934
0
LINE
8
Black
10
94.8071
20
-164.934
11
94.95
21
-165.505
0
LINE
8
Black
10
94.95
20
-165.505
11
94.95
21
-166.219
0
LINE
8
Black
10
94.95
20
-166.219
11
94.8071
21
-166.791
0
LINE
8
Black
10
94.8071
20
-166.791
11
94.6643
21
-167.076
0
LINE
8
Black
10
94.6643
20
-167.076
11
94.5214
21
-167.219
0
LINE
8
Black
10
94.5214
20
-167.219
11
94.2357
21
-167.362
0
LINE
8
Black
10
94.2357
20
-167.362
11
93.95
21
-167.362
0
LINE
8
Black
10
93.95
20
-167.362
11
93.6643
21
-167.219
0
LINE
8
Black
10
93.6643
20
-167.219
11
93.5214
21
-167.076
0
LINE
8
Black
10
93.5214
20
-167.076
11
93.3786
21
-166.791
0
LINE
8
Black
10
93.3786
20
-166.791
11
93.2357
21
-166.219
0
LINE
8
Black
10
93.2357
20
-166.219
11
93.2357
21
-165.505
0
LINE
8
Black
10
93.2357
20
-165.505
11
93.3786
21
-164.934
0
LINE
8
Black
10
93.3786
20
-164.934
11
93.5214
21
-164.648
0
LINE
8
Black
10
93.5214
20
-164.648
11
93.6643
21
-164.505
0
LINE
8
Black
10
93.6643
20
-164.505
11
93.95
21
-164.362
0
LINE
8
Black
10
96.2357
20
-167.076
11
96.3786
21
-167.219
0
LINE
8
Black
10
96.3786
20
-167.219
11
96.2357
21
-167.362
0
LINE
8
Black
10
96.2357
20
-167.362
11
96.0929
21
-167.219
0
LINE
8
Black
10
96.0929
20
-167.219
11
96.2357
21
-167.076
0
LINE
8
Black
10
96.2357
20
-167.076
11
96.2357
21
-167.362
0
LINE
8
Black
10
99.2357
20
-167.362
11
97.5214
21
-167.362
0
LINE
8
Black
10
98.3786
20
-167.362
11
98.3786
21
-164.362
0
LINE
8
Black
10
98.3786
20
-164.362
11
98.0929
21
-164.791
0
LINE
8
Black
10
98.0929
20
-164.791
11
97.8071
21
-165.076
0
LINE
8
Black
10
97.8071
20
-165.076
11
97.5214
21
-165.219
0
LINE
8
Black
10
101.95
20
-164.362
11
100.521
21
-164.362
0
LINE
8
Black
10
100.521
20
-164.362
11
100.379
21
-165.791
0
LINE
8
Black
10
100.379
20
-165.791
11
100.521
21
-165.648
0
LINE
8
Black
10
100.521
20
-165.648
11
100.807
21
-165.505
0
LINE
8
Black
10
100.807
20
-165.505
11
101.521
21
-165.505
0
LINE
8
Black
10
101.521
20
-165.505
11
101.807
21
-165.648
0
LINE
8
Black
10
101.807
20
-165.648
11
101.95
21
-165.791
0
LINE
8
Black
10
101.95
20
-165.791
11
102.093
21
-166.076
0
LINE
8
Black
10
102.093
20
-166.076
11
102.093
21
-166.791
0
LINE
8
Black
10
102.093
20
-166.791
11
101.95
21
-167.076
0
LINE
8
Black
10
101.95
20
-167.076
11
101.807
21
-167.219
0
LINE
8
Black
10
101.807
20
-167.219
11
101.521
21
-167.362
0
LINE
8
Black
10
101.521
20
-167.362
11
100.807
21
-167.362
0
LINE
8
Black
10
100.807
20
-167.362
11
100.521
21
-167.219
0
LINE
8
Black
10
100.521
20
-167.219
11
100.379
21
-167.076
0
LINE
8
Black
10
104.95
20
-167.362
11
103.236
21
-167.362
0
LINE
8
Black
10
104.093
20
-167.362
11
104.093
21
-164.362
0
LINE
8
Black
10
104.093
20
-164.362
11
103.807
21
-164.791
0
LINE
8
Black
10
103.807
20
-164.791
11
103.521
21
-165.076
0
LINE
8
Black
10
103.521
20
-165.076
11
103.236
21
-165.219
0
LINE
8
Black
10
106.093
20
-164.362
11
106.093
21
-164.934
0
LINE
8
Black
10
107.236
20
-164.362
11
107.236
21
-164.934
0
LINE
8
Black
10
111.664
20
-168.505
11
111.521
21
-168.362
0
LINE
8
Black
10
111.521
20
-168.362
11
111.236
21
-167.934
0
LINE
8
Black
10
111.236
20
-167.934
11
111.093
21
-167.648
0
LINE
8
Black
10
111.093
20
-167.648
11
110.95
21
-167.219
0
LINE
8
Black
10
110.95
20
-167.219
11
110.807
21
-166.505
0
LINE
8
Black
10
110.807
20
-166.505
11
110.807
21
-165.934
0
LINE
8
Black
10
110.807
20
-165.934
11
110.95
21
-165.219
0
LINE
8
Black
10
110.95
20
-165.219
11
111.093
21
-164.791
0
LINE
8
Black
10
111.093
20
-164.791
11
111.236
21
-164.505
0
LINE
8
Black
10
111.236
20
-164.505
11
111.521
21
-164.076
0
LINE
8
Black
10
111.521
20
-164.076
11
111.664
21
-163.934
0
LINE
8
Black
10
114.093
20
-164.362
11
113.521
21
-164.362
0
LINE
8
Black
10
113.521
20
-164.362
11
113.236
21
-164.505
0
LINE
8
Black
10
113.236
20
-164.505
11
113.093
21
-164.648
0
LINE
8
Black
10
113.093
20
-164.648
11
112.807
21
-165.076
0
LINE
8
Black
10
112.807
20
-165.076
11
112.664
21
-165.648
0
LINE
8
Black
10
112.664
20
-165.648
11
112.664
21
-166.791
0
LINE
8
Black
10
112.664
20
-166.791
11
112.807
21
-167.076
0
LINE
8
Black
10
112.807
20
-167.076
11
112.95
21
-167.219
0
LINE
8
Black
10
112.95
20
-167.219
11
113.236
21
-167.362
0
LINE
8
Black
10
113.236
20
-167.362
11
113.807
21
-167.362
0
LINE
8
Black
10
113.807
20
-167.362
11
114.093
21
-167.219
0
LINE
8
Black
10
114.093
20
-167.219
11
114.236
21
-167.076
0
LINE
8
Black
10
114.236
20
-167.076
11
114.379
21
-166.791
0
LINE
8
Black
10
114.379
20
-166.791
11
114.379
21
-166.076
0
LINE
8
Black
10
114.379
20
-166.076
11
114.236
21
-165.791
0
LINE
8
Black
10
114.236
20
-165.791
11
114.093
21
-165.648
0
LINE
8
Black
10
114.093
20
-165.648
11
113.807
21
-165.505
0
LINE
8
Black
10
113.807
20
-165.505
11
113.236
21
-165.505
0
LINE
8
Black
10
113.236
20
-165.505
11
112.95
21
-165.648
0
LINE
8
Black
10
112.95
20
-165.648
11
112.807
21
-165.791
0
LINE
8
Black
10
112.807
20
-165.791
11
112.664
21
-166.076
0
LINE
8
Black
10
117.95
20
-167.362
11
117.95
21
-164.362
0
LINE
8
Black
10
119.236
20
-167.362
11
119.236
21
-165.791
0
LINE
8
Black
10
119.236
20
-165.791
11
119.093
21
-165.505
0
LINE
8
Black
10
119.093
20
-165.505
11
118.807
21
-165.362
0
LINE
8
Black
10
118.807
20
-165.362
11
118.379
21
-165.362
0
LINE
8
Black
10
118.379
20
-165.362
11
118.093
21
-165.505
0
LINE
8
Black
10
118.093
20
-165.505
11
117.95
21
-165.648
0
LINE
8
Black
10
121.093
20
-167.362
11
120.807
21
-167.219
0
LINE
8
Black
10
120.807
20
-167.219
11
120.664
21
-167.076
0
LINE
8
Black
10
120.664
20
-167.076
11
120.521
21
-166.791
0
LINE
8
Black
10
120.521
20
-166.791
11
120.521
21
-165.934
0
LINE
8
Black
10
120.521
20
-165.934
11
120.664
21
-165.648
0
LINE
8
Black
10
120.664
20
-165.648
11
120.807
21
-165.505
0
LINE
8
Black
10
120.807
20
-165.505
11
121.093
21
-165.362
0
LINE
8
Black
10
121.093
20
-165.362
11
121.521
21
-165.362
0
LINE
8
Black
10
121.521
20
-165.362
11
121.807
21
-165.505
0
LINE
8
Black
10
121.807
20
-165.505
11
121.95
21
-165.648
0
LINE
8
Black
10
121.95
20
-165.648
11
122.093
21
-165.934
0
LINE
8
Black
10
122.093
20
-165.934
11
122.093
21
-166.791
0
LINE
8
Black
10
122.093
20
-166.791
11
121.95
21
-167.076
0
LINE
8
Black
10
121.95
20
-167.076
11
121.807
21
-167.219
0
LINE
8
Black
10
121.807
20
-167.219
11
121.521
21
-167.362
0
LINE
8
Black
10
121.521
20
-167.362
11
121.093
21
-167.362
0
LINE
8
Black
10
123.807
20
-167.362
11
123.521
21
-167.219
0
LINE
8
Black
10
123.521
20
-167.219
11
123.379
21
-166.934
0
LINE
8
Black
10
123.379
20
-166.934
11
123.379
21
-164.362
0
LINE
8
Black
10
126.093
20
-167.219
11
125.807
21
-167.362
0
LINE
8
Black
10
125.807
20
-167.362
11
125.236
21
-167.362
0
LINE
8
Black
10
125.236
20
-167.362
11
124.95
21
-167.219
0
LINE
8
Black
10
124.95
20
-167.219
11
124.807
21
-166.934
0
LINE
8
Black
10
124.807
20
-166.934
11
124.807
21
-165.791
0
LINE
8
Black
10
124.807
20
-165.791
11
124.95
21
-165.505
0
LINE
8
Black
10
124.95
20
-165.505
11
125.236
21
-165.362
0
LINE
8
Black
10
125.236
20
-165.362
11
125.807
21
-165.362
0
LINE
8
Black
10
125.807
20
-165.362
11
126.093
21
-165.505
0
LINE
8
Black
10
126.093
20
-165.505
11
126.236
21
-165.791
0
LINE
8
Black
10
126.236
20
-165.791
11
126.236
21
-166.076
0
LINE
8
Black
10
126.236
20
-166.076
11
124.807
21
-166.362
0
LINE
8
Black
10
127.379
20
-167.219
11
127.664
21
-167.362
0
LINE
8
Black
10
127.664
20
-167.362
11
128.236
21
-167.362
0
LINE
8
Black
10
128.236
20
-167.362
11
128.521
21
-167.219
0
LINE
8
Black
10
128.521
20
-167.219
11
128.664
21
-166.934
0
LINE
8
Black
10
128.664
20
-166.934
11
128.664
21
-166.791
0
LINE
8
Black
10
128.664
20
-166.791
11
128.521
21
-166.505
0
LINE
8
Black
10
128.521
20
-166.505
11
128.236
21
-166.362
0
LINE
8
Black
10
128.236
20
-166.362
11
127.807
21
-166.362
0
LINE
8
Black
10
127.807
20
-166.362
11
127.521
21
-166.219
0
LINE
8
Black
10
127.521
20
-166.219
11
127.379
21
-165.934
0
LINE
8
Black
10
127.379
20
-165.934
11
127.379
21
-165.791
0
LINE
8
Black
10
127.379
20
-165.791
11
127.521
21
-165.505
0
LINE
8
Black
10
127.521
20
-165.505
11
127.807
21
-165.362
0
LINE
8
Black
10
127.807
20
-165.362
11
128.236
21
-165.362
0
LINE
8
Black
10
128.236
20
-165.362
11
128.521
21
-165.505
0
LINE
8
Black
10
129.664
20
-168.505
11
129.807
21
-168.362
0
LINE
8
Black
10
129.807
20
-168.362
11
130.093
21
-167.934
0
LINE
8
Black
10
130.093
20
-167.934
11
130.236
21
-167.648
0
LINE
8
Black
10
130.236
20
-167.648
11
130.379
21
-167.219
0
LINE
8
Black
10
130.379
20
-167.219
11
130.521
21
-166.505
0
LINE
8
Black
10
130.521
20
-166.505
11
130.521
21
-165.934
0
LINE
8
Black
10
130.521
20
-165.934
11
130.379
21
-165.219
0
LINE
8
Black
10
130.379
20
-165.219
11
130.236
21
-164.791
0
LINE
8
Black
10
130.236
20
-164.791
11
130.093
21
-164.505
0
LINE
8
Black
10
130.093
20
-164.505
11
129.807
21
-164.076
0
LINE
8
Black
10
129.807
20
-164.076
11
129.664
21
-163.934
0
LINE
8
Black
10
60.65
20
-168.99
11
64.95
21
-173.29
0
LINE
8
Black
10
64.95
20
-168.99
11
60.65
21
-173.29
0
CIRCLE
8
Black
10
62.8
20
-171.14
40
2.15
0
LINE
8
Black
10
68.95
20
-170.498
11
68.95
21
-172.498
0
LINE
8
Black
10
68.2357
20
-169.355
11
67.5214
21
-171.498
0
LINE
8
Black
10
67.5214
20
-171.498
11
69.3786
21
-171.498
0
LINE
8
Black
10
70.5214
20
-172.212
11
70.6643
21
-172.355
0
LINE
8
Black
10
70.6643
20
-172.355
11
70.5214
21
-172.498
0
LINE
8
Black
10
70.5214
20
-172.498
11
70.3786
21
-172.355
0
LINE
8
Black
10
70.3786
20
-172.355
11
70.5214
21
-172.212
0
LINE
8
Black
10
70.5214
20
-172.212
11
70.5214
21
-172.498
0
LINE
8
Black
10
71.6643
20
-169.498
11
73.5214
21
-169.498
0
LINE
8
Black
10
73.5214
20
-169.498
11
72.5214
21
-170.64
0
LINE
8
Black
10
72.5214
20
-170.64
11
72.95
21
-170.64
0
LINE
8
Black
10
72.95
20
-170.64
11
73.2357
21
-170.783
0
LINE
8
Black
10
73.2357
20
-170.783
11
73.3786
21
-170.926
0
LINE
8
Black
10
73.3786
20
-170.926
11
73.5214
21
-171.212
0
LINE
8
Black
10
73.5214
20
-171.212
11
73.5214
21
-171.926
0
LINE
8
Black
10
73.5214
20
-171.926
11
73.3786
21
-172.212
0
LINE
8
Black
10
73.3786
20
-172.212
11
73.2357
21
-172.355
0
LINE
8
Black
10
73.2357
20
-172.355
11
72.95
21
-172.498
0
LINE
8
Black
10
72.95
20
-172.498
11
72.0929
21
-172.498
0
LINE
8
Black
10
72.0929
20
-172.498
11
71.8071
21
-172.355
0
LINE
8
Black
10
71.8071
20
-172.355
11
71.6643
21
-172.212
0
LINE
8
Black
10
75.3786
20
-169.498
11
75.6643
21
-169.498
0
LINE
8
Black
10
75.6643
20
-169.498
11
75.95
21
-169.64
0
LINE
8
Black
10
75.95
20
-169.64
11
76.0929
21
-169.783
0
LINE
8
Black
10
76.0929
20
-169.783
11
76.2357
21
-170.069
0
LINE
8
Black
10
76.2357
20
-170.069
11
76.3786
21
-170.64
0
LINE
8
Black
10
76.3786
20
-170.64
11
76.3786
21
-171.355
0
LINE
8
Black
10
76.3786
20
-171.355
11
76.2357
21
-171.926
0
LINE
8
Black
10
76.2357
20
-171.926
11
76.0929
21
-172.212
0
LINE
8
Black
10
76.0929
20
-172.212
11
75.95
21
-172.355
0
LINE
8
Black
10
75.95
20
-172.355
11
75.6643
21
-172.498
0
LINE
8
Black
10
75.6643
20
-172.498
11
75.3786
21
-172.498
0
LINE
8
Black
10
75.3786
20
-172.498
11
75.0929
21
-172.355
0
LINE
8
Black
10
75.0929
20
-172.355
11
74.95
21
-172.212
0
LINE
8
Black
10
74.95
20
-172.212
11
74.8071
21
-171.926
0
LINE
8
Black
10
74.8071
20
-171.926
11
74.6643
21
-171.355
0
LINE
8
Black
10
74.6643
20
-171.355
11
74.6643
21
-170.64
0
LINE
8
Black
10
74.6643
20
-170.64
11
74.8071
21
-170.069
0
LINE
8
Black
10
74.8071
20
-170.069
11
74.95
21
-169.783
0
LINE
8
Black
10
74.95
20
-169.783
11
75.0929
21
-169.64
0
LINE
8
Black
10
75.0929
20
-169.64
11
75.3786
21
-169.498
0
LINE
8
Black
10
77.6643
20
-172.498
11
77.6643
21
-170.498
0
LINE
8
Black
10
77.6643
20
-170.783
11
77.8071
21
-170.64
0
LINE
8
Black
10
77.8071
20
-170.64
11
78.0929
21
-170.498
0
LINE
8
Black
10
78.0929
20
-170.498
11
78.5214
21
-170.498
0
LINE
8
Black
10
78.5214
20
-170.498
11
78.8071
21
-170.64
0
LINE
8
Black
10
78.8071
20
-170.64
11
78.95
21
-170.926
0
LINE
8
Black
10
78.95
20
-170.926
11
78.95
21
-172.498
0
LINE
8
Black
10
78.95
20
-170.926
11
79.0929
21
-170.64
0
LINE
8
Black
10
79.0929
20
-170.64
11
79.3786
21
-170.498
0
LINE
8
Black
10
79.3786
20
-170.498
11
79.8071
21
-170.498
0
LINE
8
Black
10
79.8071
20
-170.498
11
80.0929
21
-170.64
0
LINE
8
Black
10
80.0929
20
-170.64
11
80.2357
21
-170.926
0
LINE
8
Black
10
80.2357
20
-170.926
11
80.2357
21
-172.498
0
LINE
8
Black
10
81.6643
20
-172.498
11
81.6643
21
-170.498
0
LINE
8
Black
10
81.6643
20
-170.783
11
81.8071
21
-170.64
0
LINE
8
Black
10
81.8071
20
-170.64
11
82.0929
21
-170.498
0
LINE
8
Black
10
82.0929
20
-170.498
11
82.5214
21
-170.498
0
LINE
8
Black
10
82.5214
20
-170.498
11
82.8071
21
-170.64
0
LINE
8
Black
10
82.8071
20
-170.64
11
82.95
21
-170.926
0
LINE
8
Black
10
82.95
20
-170.926
11
82.95
21
-172.498
0
LINE
8
Black
10
82.95
20
-170.926
11
83.0929
21
-170.64
0
LINE
8
Black
10
83.0929
20
-170.64
11
83.3786
21
-170.498
0
LINE
8
Black
10
83.3786
20
-170.498
11
83.8071
21
-170.498
0
LINE
8
Black
10
83.8071
20
-170.498
11
84.0929
21
-170.64
0
LINE
8
Black
10
84.0929
20
-170.64
11
84.2357
21
-170.926
0
LINE
8
Black
10
84.2357
20
-170.926
11
84.2357
21
-172.498
0
LINE
8
Black
10
90.0929
20
-169.355
11
87.5214
21
-173.212
0
LINE
8
Black
10
93.95
20
-169.498
11
94.2357
21
-169.498
0
LINE
8
Black
10
94.2357
20
-169.498
11
94.5214
21
-169.64
0
LINE
8
Black
10
94.5214
20
-169.64
11
94.6643
21
-169.783
0
LINE
8
Black
10
94.6643
20
-169.783
11
94.8071
21
-170.069
0
LINE
8
Black
10
94.8071
20
-170.069
11
94.95
21
-170.64
0
LINE
8
Black
10
94.95
20
-170.64
11
94.95
21
-171.355
0
LINE
8
Black
10
94.95
20
-171.355
11
94.8071
21
-171.926
0
LINE
8
Black
10
94.8071
20
-171.926
11
94.6643
21
-172.212
0
LINE
8
Black
10
94.6643
20
-172.212
11
94.5214
21
-172.355
0
LINE
8
Black
10
94.5214
20
-172.355
11
94.2357
21
-172.498
0
LINE
8
Black
10
94.2357
20
-172.498
11
93.95
21
-172.498
0
LINE
8
Black
10
93.95
20
-172.498
11
93.6643
21
-172.355
0
LINE
8
Black
10
93.6643
20
-172.355
11
93.5214
21
-172.212
0
LINE
8
Black
10
93.5214
20
-172.212
11
93.3786
21
-171.926
0
LINE
8
Black
10
93.3786
20
-171.926
11
93.2357
21
-171.355
0
LINE
8
Black
10
93.2357
20
-171.355
11
93.2357
21
-170.64
0
LINE
8
Black
10
93.2357
20
-170.64
11
93.3786
21
-170.069
0
LINE
8
Black
10
93.3786
20
-170.069
11
93.5214
21
-169.783
0
LINE
8
Black
10
93.5214
20
-169.783
11
93.6643
21
-169.64
0
LINE
8
Black
10
93.6643
20
-169.64
11
93.95
21
-169.498
0
LINE
8
Black
10
96.2357
20
-172.212
11
96.3786
21
-172.355
0
LINE
8
Black
10
96.3786
20
-172.355
11
96.2357
21
-172.498
0
LINE
8
Black
10
96.2357
20
-172.498
11
96.0929
21
-172.355
0
LINE
8
Black
10
96.0929
20
-172.355
11
96.2357
21
-172.212
0
LINE
8
Black
10
96.2357
20
-172.212
11
96.2357
21
-172.498
0
LINE
8
Black
10
99.2357
20
-172.498
11
97.5214
21
-172.498
0
LINE
8
Black
10
98.3786
20
-172.498
11
98.3786
21
-169.498
0
LINE
8
Black
10
98.3786
20
-169.498
11
98.0929
21
-169.926
0
LINE
8
Black
10
98.0929
20
-169.926
11
97.8071
21
-170.212
0
LINE
8
Black
10
97.8071
20
-170.212
11
97.5214
21
-170.355
0
LINE
8
Black
10
101.807
20
-169.498
11
101.236
21
-169.498
0
LINE
8
Black
10
101.236
20
-169.498
11
100.95
21
-169.64
0
LINE
8
Black
10
100.95
20
-169.64
11
100.807
21
-169.783
0
LINE
8
Black
10
100.807
20
-169.783
11
100.521
21
-170.212
0
LINE
8
Black
10
100.521
20
-170.212
11
100.379
21
-170.783
0
LINE
8
Black
10
100.379
20
-170.783
11
100.379
21
-171.926
0
LINE
8
Black
10
100.379
20
-171.926
11
100.521
21
-172.212
0
LINE
8
Black
10
100.521
20
-172.212
11
100.664
21
-172.355
0
LINE
8
Black
10
100.664
20
-172.355
11
100.95
21
-172.498
0
LINE
8
Black
10
100.95
20
-172.498
11
101.521
21
-172.498
0
LINE
8
Black
10
101.521
20
-172.498
11
101.807
21
-172.355
0
LINE
8
Black
10
101.807
20
-172.355
11
101.95
21
-172.212
0
LINE
8
Black
10
101.95
20
-172.212
11
102.093
21
-171.926
0
LINE
8
Black
10
102.093
20
-171.926
11
102.093
21
-171.212
0
LINE
8
Black
10
102.093
20
-171.212
11
101.95
21
-170.926
0
LINE
8
Black
10
101.95
20
-170.926
11
101.807
21
-170.783
0
LINE
8
Black
10
101.807
20
-170.783
11
101.521
21
-170.64
0
LINE
8
Black
10
101.521
20
-170.64
11
100.95
21
-170.64
0
LINE
8
Black
10
100.95
20
-170.64
11
100.664
21
-170.783
0
LINE
8
Black
10
100.664
20
-170.783
11
100.521
21
-170.926
0
LINE
8
Black
10
100.521
20
-170.926
11
100.379
21
-171.212
0
LINE
8
Black
10
103.521
20
-172.498
11
104.093
21
-172.498
0
LINE
8
Black
10
104.093
20
-172.498
11
104.379
21
-172.355
0
LINE
8
Black
10
104.379
20
-172.355
11
104.521
21
-172.212
0
LINE
8
Black
10
104.521
20
-172.212
11
104.807
21
-171.783
0
LINE
8
Black
10
104.807
20
-171.783
11
104.95
21
-171.212
0
LINE
8
Black
10
104.95
20
-171.212
11
104.95
21
-170.069
0
LINE
8
Black
10
104.95
20
-170.069
11
104.807
21
-169.783
0
LINE
8
Black
10
104.807
20
-169.783
11
104.664
21
-169.64
0
LINE
8
Black
10
104.664
20
-169.64
11
104.379
21
-169.498
0
LINE
8
Black
10
104.379
20
-169.498
11
103.807
21
-169.498
0
LINE
8
Black
10
103.807
20
-169.498
11
103.521
21
-169.64
0
LINE
8
Black
10
103.521
20
-169.64
11
103.379
21
-169.783
0
LINE
8
Black
10
103.379
20
-169.783
11
103.236
21
-170.069
0
LINE
8
Black
10
103.236
20
-170.069
11
103.236
21
-170.783
0
LINE
8
Black
10
103.236
20
-170.783
11
103.379
21
-171.069
0
LINE
8
Black
10
103.379
20
-171.069
11
103.521
21
-171.212
0
LINE
8
Black
10
103.521
20
-171.212
11
103.807
21
-171.355
0
LINE
8
Black
10
103.807
20
-171.355
11
104.379
21
-171.355
0
LINE
8
Black
10
104.379
20
-171.355
11
104.664
21
-171.212
0
LINE
8
Black
10
104.664
20
-171.212
11
104.807
21
-171.069
0
LINE
8
Black
10
104.807
20
-171.069
11
104.95
21
-170.783
0
LINE
8
Black
10
106.093
20
-169.498
11
106.093
21
-170.069
0
LINE
8
Black
10
107.236
20
-169.498
11
107.236
21
-170.069
0
LINE
8
Black
10
111.664
20
-173.64
11
111.521
21
-173.498
0
LINE
8
Black
10
111.521
20
-173.498
11
111.236
21
-173.069
0
LINE
8
Black
10
111.236
20
-173.069
11
111.093
21
-172.783
0
LINE
8
Black
10
111.093
20
-172.783
11
110.95
21
-172.355
0
LINE
8
Black
10
110.95
20
-172.355
11
110.807
21
-171.64
0
LINE
8
Black
10
110.807
20
-171.64
11
110.807
21
-171.069
0
LINE
8
Black
10
110.807
20
-171.069
11
110.95
21
-170.355
0
LINE
8
Black
10
110.95
20
-170.355
11
111.093
21
-169.926
0
LINE
8
Black
10
111.093
20
-169.926
11
111.236
21
-169.64
0
LINE
8
Black
10
111.236
20
-169.64
11
111.521
21
-169.212
0
LINE
8
Black
10
111.521
20
-169.212
11
111.664
21
-169.069
0
LINE
8
Black
10
114.379
20
-172.498
11
112.664
21
-172.498
0
LINE
8
Black
10
113.521
20
-172.498
11
113.521
21
-169.498
0
LINE
8
Black
10
113.521
20
-169.498
11
113.236
21
-169.926
0
LINE
8
Black
10
113.236
20
-169.926
11
112.95
21
-170.212
0
LINE
8
Black
10
112.95
20
-170.212
11
112.664
21
-170.355
0
LINE
8
Black
10
115.521
20
-169.783
11
115.664
21
-169.64
0
LINE
8
Black
10
115.664
20
-169.64
11
115.95
21
-169.498
0
LINE
8
Black
10
115.95
20
-169.498
11
116.664
21
-169.498
0
LINE
8
Black
10
116.664
20
-169.498
11
116.95
21
-169.64
0
LINE
8
Black
10
116.95
20
-169.64
11
117.093
21
-169.783
0
LINE
8
Black
10
117.093
20
-169.783
11
117.236
21
-170.069
0
LINE
8
Black
10
117.236
20
-170.069
11
117.236
21
-170.355
0
LINE
8
Black
10
117.236
20
-170.355
11
117.093
21
-170.783
0
LINE
8
Black
10
117.093
20
-170.783
11
115.379
21
-172.498
0
LINE
8
Black
10
115.379
20
-172.498
11
117.236
21
-172.498
0
LINE
8
Black
10
120.807
20
-172.498
11
120.807
21
-169.498
0
LINE
8
Black
10
122.093
20
-172.498
11
122.093
21
-170.926
0
LINE
8
Black
10
122.093
20
-170.926
11
121.95
21
-170.64
0
LINE
8
Black
10
121.95
20
-170.64
11
121.664
21
-170.498
0
LINE
8
Black
10
121.664
20
-170.498
11
121.236
21
-170.498
0
LINE
8
Black
10
121.236
20
-170.498
11
120.95
21
-170.64
0
LINE
8
Black
10
120.95
20
-170.64
11
120.807
21
-170.783
0
LINE
8
Black
10
123.95
20
-172.498
11
123.664
21
-172.355
0
LINE
8
Black
10
123.664
20
-172.355
11
123.521
21
-172.212
0
LINE
8
Black
10
123.521
20
-172.212
11
123.379
21
-171.926
0
LINE
8
Black
10
123.379
20
-171.926
11
123.379
21
-171.069
0
LINE
8
Black
10
123.379
20
-171.069
11
123.521
21
-170.783
0
LINE
8
Black
10
123.521
20
-170.783
11
123.664
21
-170.64
0
LINE
8
Black
10
123.664
20
-170.64
11
123.95
21
-170.498
0
LINE
8
Black
10
123.95
20
-170.498
11
124.379
21
-170.498
0
LINE
8
Black
10
124.379
20
-170.498
11
124.664
21
-170.64
0
LINE
8
Black
10
124.664
20
-170.64
11
124.807
21
-170.783
0
LINE
8
Black
10
124.807
20
-170.783
11
124.95
21
-171.069
0
LINE
8
Black
10
124.95
20
-171.069
11
124.95
21
-171.926
0
LINE
8
Black
10
124.95
20
-171.926
11
124.807
21
-172.212
0
LINE
8
Black
10
124.807
20
-172.212
11
124.664
21
-172.355
0
LINE
8
Black
10
124.664
20
-172.355
11
124.379
21
-172.498
0
LINE
8
Black
10
124.379
20
-172.498
11
123.95
21
-172.498
0
LINE
8
Black
10
126.664
20
-172.498
11
126.379
21
-172.355
0
LINE
8
Black
10
126.379
20
-172.355
11
126.236
21
-172.069
0
LINE
8
Black
10
126.236
20
-172.069
11
126.236
21
-169.498
0
LINE
8
Black
10
128.95
20
-172.355
11
128.664
21
-172.498
0
LINE
8
Black
10
128.664
20
-172.498
11
128.093
21
-172.498
0
LINE
8
Black
10
128.093
20
-172.498
11
127.807
21
-172.355
0
LINE
8
Black
10
127.807
20
-172.355
11
127.664
21
-172.069
0
LINE
8
Black
10
127.664
20
-172.069
11
127.664
21
-170.926
0
LINE
8
Black
10
127.664
20
-170.926
11
127.807
21
-170.64
0
LINE
8
Black
10
127.807
20
-170.64
11
128.093
21
-170.498
0
LINE
8
Black
10
128.093
20
-170.498
11
128.664
21
-170.498
0
LINE
8
Black
10
128.664
20
-170.498
11
128.95
21
-170.64
0
LINE
8
Black
10
128.95
20
-170.64
11
129.093
21
-170.926
0
LINE
8
Black
10
129.093
20
-170.926
11
129.093
21
-171.212
0
LINE
8
Black
10
129.093
20
-171.212
11
127.664
21
-171.498
0
LINE
8
Black
10
130.236
20
-172.355
11
130.521
21
-172.498
0
LINE
8
Black
10
130.521
20
-172.498
11
131.093
21
-172.498
0
LINE
8
Black
10
131.093
20
-172.498
11
131.379
21
-172.355
0
LINE
8
Black
10
131.379
20
-172.355
11
131.521
21
-172.069
0
LINE
8
Black
10
131.521
20
-172.069
11
131.521
21
-171.926
0
LINE
8
Black
10
131.521
20
-171.926
11
131.379
21
-171.64
0
LINE
8
Black
10
131.379
20
-171.64
11
131.093
21
-171.498
0
LINE
8
Black
10
131.093
20
-171.498
11
130.664
21
-171.498
0
LINE
8
Black
10
130.664
20
-171.498
11
130.379
21
-171.355
0
LINE
8
Black
10
130.379
20
-171.355
11
130.236
21
-171.069
0
LINE
8
Black
10
130.236
20
-171.069
11
130.236
21
-170.926
0
LINE
8
Black
10
130.236
20
-170.926
11
130.379
21
-170.64
0
LINE
8
Black
10
130.379
20
-170.64
11
130.664
21
-170.498
0
LINE
8
Black
10
130.664
20
-170.498
11
131.093
21
-170.498
0
LINE
8
Black
10
131.093
20
-170.498
11
131.379
21
-170.64
0
LINE
8
Black
10
132.521
20
-173.64
11
132.664
21
-173.498
0
LINE
8
Black
10
132.664
20
-173.498
11
132.95
21
-173.069
0
LINE
8
Black
10
132.95
20
-173.069
11
133.093
21
-172.783
0
LINE
8
Black
10
133.093
20
-172.783
11
133.236
21
-172.355
0
LINE
8
Black
10
133.236
20
-172.355
11
133.379
21
-171.64
0
LINE
8
Black
10
133.379
20
-171.64
11
133.379
21
-171.069
0
LINE
8
Black
10
133.379
20
-171.069
11
133.236
21
-170.355
0
LINE
8
Black
10
133.236
20
-170.355
11
133.093
21
-169.926
0
LINE
8
Black
10
133.093
20
-169.926
11
132.95
21
-169.64
0
LINE
8
Black
10
132.95
20
-169.64
11
132.664
21
-169.212
0
LINE
8
Black
10
132.664
20
-169.212
11
132.521
21
-169.069
  0
ENDSEC
  0
EOF
