G04 #@! TF.FileFunction,Copper,L1,Top,Signal*
%FSLAX46Y46*%
G04 Gerber Fmt 4.6, Leading zero omitted, Abs format (unit mm)*
G04 Created by KiCad (PCBNEW (after 2015-mar-04 BZR unknown)-product) date 6/8/2017 2:32:47 PM*
%MOMM*%
G01*
G04 APERTURE LIST*
%ADD10C,0.150000*%
%ADD11C,9.525000*%
%ADD12C,6.350000*%
%ADD13R,1.700000X1.700000*%
%ADD14O,1.700000X1.700000*%
%ADD15C,2.540000*%
%ADD16C,4.600000*%
%ADD17C,0.254000*%
G04 APERTURE END LIST*
D10*
D11*
X16000000Y-16000000D03*
X99000000Y-16000000D03*
X16000000Y-99000000D03*
X99000000Y-99000000D03*
D12*
X17000000Y-37000000D03*
X58000000Y-37000000D03*
X17000000Y-78000000D03*
X58000000Y-78000000D03*
D13*
X38100000Y-24130000D03*
D14*
X40640000Y-24130000D03*
X43180000Y-24130000D03*
X45720000Y-24130000D03*
X48260000Y-24130000D03*
X50800000Y-24130000D03*
X53340000Y-24130000D03*
X55880000Y-24130000D03*
X58420000Y-24130000D03*
X60960000Y-24130000D03*
X63500000Y-24130000D03*
X66040000Y-24130000D03*
X68580000Y-24130000D03*
X71120000Y-24130000D03*
X73660000Y-24130000D03*
X76200000Y-24130000D03*
D13*
X38100000Y-21590000D03*
D14*
X40640000Y-21590000D03*
X43180000Y-21590000D03*
X45720000Y-21590000D03*
X48260000Y-21590000D03*
X50800000Y-21590000D03*
X53340000Y-21590000D03*
X55880000Y-21590000D03*
X58420000Y-21590000D03*
X60960000Y-21590000D03*
X63500000Y-21590000D03*
X66040000Y-21590000D03*
X68580000Y-21590000D03*
X71120000Y-21590000D03*
X73660000Y-21590000D03*
X76200000Y-21590000D03*
D13*
X38100000Y-90170000D03*
D14*
X40640000Y-90170000D03*
X43180000Y-90170000D03*
X45720000Y-90170000D03*
X48260000Y-90170000D03*
X50800000Y-90170000D03*
X53340000Y-90170000D03*
X55880000Y-90170000D03*
X58420000Y-90170000D03*
X60960000Y-90170000D03*
X63500000Y-90170000D03*
X66040000Y-90170000D03*
X68580000Y-90170000D03*
X71120000Y-90170000D03*
X73660000Y-90170000D03*
X76200000Y-90170000D03*
D13*
X38100000Y-92710000D03*
D14*
X40640000Y-92710000D03*
X43180000Y-92710000D03*
X45720000Y-92710000D03*
X48260000Y-92710000D03*
X50800000Y-92710000D03*
X53340000Y-92710000D03*
X55880000Y-92710000D03*
X58420000Y-92710000D03*
X60960000Y-92710000D03*
X63500000Y-92710000D03*
X66040000Y-92710000D03*
X68580000Y-92710000D03*
X71120000Y-92710000D03*
X73660000Y-92710000D03*
X76200000Y-92710000D03*
D13*
X77470000Y-40005000D03*
D14*
X77470000Y-42545000D03*
X77470000Y-45085000D03*
X77470000Y-47625000D03*
X77470000Y-50165000D03*
X77470000Y-52705000D03*
X77470000Y-55245000D03*
X77470000Y-57785000D03*
X77470000Y-60325000D03*
X77470000Y-62865000D03*
X77470000Y-65405000D03*
X77470000Y-67945000D03*
X77470000Y-70485000D03*
X77470000Y-73025000D03*
X77470000Y-75565000D03*
X77470000Y-78105000D03*
D13*
X80010000Y-40005000D03*
D14*
X80010000Y-42545000D03*
X80010000Y-45085000D03*
X80010000Y-47625000D03*
X80010000Y-50165000D03*
X80010000Y-52705000D03*
X80010000Y-55245000D03*
X80010000Y-57785000D03*
X80010000Y-60325000D03*
X80010000Y-62865000D03*
X80010000Y-65405000D03*
X80010000Y-67945000D03*
X80010000Y-70485000D03*
X80010000Y-73025000D03*
X80010000Y-75565000D03*
X80010000Y-78105000D03*
D15*
X99060000Y-26035000D03*
X99060000Y-31035000D03*
D16*
X99060000Y-44450000D03*
X92960000Y-44450000D03*
X95860000Y-39850000D03*
D17*
G36*
X104569000Y-96348473D02*
X104224815Y-95515482D01*
X102493632Y-93781275D01*
X101741464Y-93468947D01*
X101741464Y-43919056D01*
X101334167Y-42933319D01*
X100974261Y-42572784D01*
X100974261Y-26363964D01*
X100954436Y-25606368D01*
X100702657Y-24998520D01*
X100407777Y-24866828D01*
X100228172Y-25046433D01*
X100228172Y-24687223D01*
X100096480Y-24392343D01*
X99388964Y-24120739D01*
X98631368Y-24140564D01*
X98023520Y-24392343D01*
X97891828Y-24687223D01*
X99060000Y-25855395D01*
X100228172Y-24687223D01*
X100228172Y-25046433D01*
X99239605Y-26035000D01*
X100407777Y-27203172D01*
X100702657Y-27071480D01*
X100974261Y-26363964D01*
X100974261Y-42572784D01*
X100711286Y-42309350D01*
X100711286Y-30708037D01*
X100460466Y-30101005D01*
X100228172Y-29868305D01*
X100228172Y-27382777D01*
X99060000Y-26214605D01*
X98880395Y-26394210D01*
X98880395Y-26035000D01*
X97712223Y-24866828D01*
X97417343Y-24998520D01*
X97145739Y-25706036D01*
X97165564Y-26463632D01*
X97417343Y-27071480D01*
X97712223Y-27203172D01*
X98880395Y-26035000D01*
X98880395Y-26394210D01*
X97891828Y-27382777D01*
X98023520Y-27677657D01*
X98731036Y-27949261D01*
X99488632Y-27929436D01*
X100096480Y-27677657D01*
X100228172Y-27382777D01*
X100228172Y-29868305D01*
X99996437Y-29636166D01*
X99389845Y-29384287D01*
X98733037Y-29383714D01*
X98126005Y-29634534D01*
X97661166Y-30098563D01*
X97409287Y-30705155D01*
X97408714Y-31361963D01*
X97659534Y-31968995D01*
X98123563Y-32433834D01*
X98730155Y-32685713D01*
X99386963Y-32686286D01*
X99993995Y-32435466D01*
X100458834Y-31971437D01*
X100710713Y-31364845D01*
X100711286Y-30708037D01*
X100711286Y-42309350D01*
X100580647Y-42178484D01*
X99595623Y-41769466D01*
X98541464Y-41768546D01*
X98541464Y-39319056D01*
X98134167Y-38333319D01*
X97380647Y-37578484D01*
X96395623Y-37169466D01*
X95329056Y-37168536D01*
X94343319Y-37575833D01*
X93588484Y-38329353D01*
X93179466Y-39314377D01*
X93178536Y-40380944D01*
X93585833Y-41366681D01*
X93869234Y-41650576D01*
X93534464Y-41513157D01*
X92366855Y-41516873D01*
X91305383Y-41956549D01*
X91048052Y-42358447D01*
X92960000Y-44270395D01*
X92974142Y-44256252D01*
X93153747Y-44435857D01*
X93139605Y-44450000D01*
X95051553Y-46361948D01*
X95453451Y-46104617D01*
X95896843Y-45024464D01*
X95893127Y-43856855D01*
X95453451Y-42795383D01*
X95051554Y-42538053D01*
X95136915Y-42452692D01*
X95324377Y-42530534D01*
X96390944Y-42531464D01*
X97376681Y-42124167D01*
X98131516Y-41370647D01*
X98540534Y-40385623D01*
X98541464Y-39319056D01*
X98541464Y-41768546D01*
X98529056Y-41768536D01*
X97543319Y-42175833D01*
X96788484Y-42929353D01*
X96379466Y-43914377D01*
X96378536Y-44980944D01*
X96785833Y-45966681D01*
X97539353Y-46721516D01*
X98524377Y-47130534D01*
X99590944Y-47131464D01*
X100576681Y-46724167D01*
X101331516Y-45970647D01*
X101740534Y-44985623D01*
X101741464Y-43919056D01*
X101741464Y-93468947D01*
X100230575Y-92841571D01*
X97780175Y-92839433D01*
X97531438Y-92942209D01*
X97531438Y-84498762D01*
X97531438Y-74498762D01*
X97531438Y-64498762D01*
X97531438Y-54498762D01*
X97146928Y-53568177D01*
X96435568Y-52855574D01*
X95896843Y-52631875D01*
X95505656Y-52469441D01*
X94871948Y-52468887D01*
X94871948Y-46541553D01*
X92960000Y-44629605D01*
X92780395Y-44809210D01*
X92780395Y-44450000D01*
X90868447Y-42538052D01*
X90466549Y-42795383D01*
X90023157Y-43875536D01*
X90026873Y-45043145D01*
X90466549Y-46104617D01*
X90868447Y-46361948D01*
X92780395Y-44450000D01*
X92780395Y-44809210D01*
X91048052Y-46541553D01*
X91305383Y-46943451D01*
X92385536Y-47386843D01*
X93553145Y-47383127D01*
X94614617Y-46943451D01*
X94871948Y-46541553D01*
X94871948Y-52468887D01*
X94498762Y-52468562D01*
X93568177Y-52853072D01*
X92855574Y-53564432D01*
X92469441Y-54494344D01*
X92468562Y-55501238D01*
X92853072Y-56431823D01*
X93564432Y-57144426D01*
X94494344Y-57530559D01*
X95501238Y-57531438D01*
X96431823Y-57146928D01*
X97144426Y-56435568D01*
X97530559Y-55505656D01*
X97531438Y-54498762D01*
X97531438Y-64498762D01*
X97146928Y-63568177D01*
X96435568Y-62855574D01*
X95505656Y-62469441D01*
X94498762Y-62468562D01*
X93568177Y-62853072D01*
X92855574Y-63564432D01*
X92469441Y-64494344D01*
X92468562Y-65501238D01*
X92853072Y-66431823D01*
X93564432Y-67144426D01*
X94494344Y-67530559D01*
X95501238Y-67531438D01*
X96431823Y-67146928D01*
X97144426Y-66435568D01*
X97530559Y-65505656D01*
X97531438Y-64498762D01*
X97531438Y-74498762D01*
X97146928Y-73568177D01*
X96435568Y-72855574D01*
X95505656Y-72469441D01*
X94498762Y-72468562D01*
X93568177Y-72853072D01*
X92855574Y-73564432D01*
X92469441Y-74494344D01*
X92468562Y-75501238D01*
X92853072Y-76431823D01*
X93564432Y-77144426D01*
X94494344Y-77530559D01*
X95501238Y-77531438D01*
X96431823Y-77146928D01*
X97144426Y-76435568D01*
X97530559Y-75505656D01*
X97531438Y-74498762D01*
X97531438Y-84498762D01*
X97146928Y-83568177D01*
X96435568Y-82855574D01*
X95505656Y-82469441D01*
X94498762Y-82468562D01*
X93568177Y-82853072D01*
X92855574Y-83564432D01*
X92469441Y-84494344D01*
X92468562Y-85501238D01*
X92853072Y-86431823D01*
X93564432Y-87144426D01*
X94494344Y-87530559D01*
X95501238Y-87531438D01*
X96431823Y-87146928D01*
X97144426Y-86435568D01*
X97530559Y-85505656D01*
X97531438Y-84498762D01*
X97531438Y-92942209D01*
X95515482Y-93775185D01*
X93781275Y-95506368D01*
X92841571Y-97769425D01*
X92839433Y-100219825D01*
X93775185Y-102484518D01*
X95506368Y-104218725D01*
X96349923Y-104569000D01*
X87621438Y-104569000D01*
X87621438Y-26803762D01*
X87621438Y-18548762D01*
X87236928Y-17618177D01*
X86525568Y-16905574D01*
X85595656Y-16519441D01*
X84588762Y-16518562D01*
X83658177Y-16903072D01*
X82945574Y-17614432D01*
X82559441Y-18544344D01*
X82558562Y-19551238D01*
X82943072Y-20481823D01*
X83654432Y-21194426D01*
X84584344Y-21580559D01*
X85591238Y-21581438D01*
X86521823Y-21196928D01*
X87234426Y-20485568D01*
X87620559Y-19555656D01*
X87621438Y-18548762D01*
X87621438Y-26803762D01*
X87236928Y-25873177D01*
X86525568Y-25160574D01*
X85595656Y-24774441D01*
X84588762Y-24773562D01*
X83658177Y-25158072D01*
X82945574Y-25869432D01*
X82559441Y-26799344D01*
X82558562Y-27806238D01*
X82943072Y-28736823D01*
X83654432Y-29449426D01*
X84584344Y-29835559D01*
X85591238Y-29836438D01*
X86521823Y-29451928D01*
X87234426Y-28740568D01*
X87620559Y-27810656D01*
X87621438Y-26803762D01*
X87621438Y-104569000D01*
X87531438Y-104569000D01*
X87531438Y-94498762D01*
X87531438Y-84498762D01*
X87146928Y-83568177D01*
X86435568Y-82855574D01*
X85505656Y-82469441D01*
X84498762Y-82468562D01*
X83568177Y-82853072D01*
X82855574Y-83564432D01*
X82469441Y-84494344D01*
X82468562Y-85501238D01*
X82853072Y-86431823D01*
X83564432Y-87144426D01*
X84494344Y-87530559D01*
X85501238Y-87531438D01*
X86431823Y-87146928D01*
X87144426Y-86435568D01*
X87530559Y-85505656D01*
X87531438Y-84498762D01*
X87531438Y-94498762D01*
X87146928Y-93568177D01*
X86435568Y-92855574D01*
X85505656Y-92469441D01*
X84498762Y-92468562D01*
X83568177Y-92853072D01*
X82855574Y-93564432D01*
X82469441Y-94494344D01*
X82468562Y-95501238D01*
X82853072Y-96431823D01*
X83564432Y-97144426D01*
X84494344Y-97530559D01*
X85501238Y-97531438D01*
X86431823Y-97146928D01*
X87144426Y-96435568D01*
X87530559Y-95505656D01*
X87531438Y-94498762D01*
X87531438Y-104569000D01*
X81265117Y-104569000D01*
X81265117Y-78105000D01*
X81171413Y-77633917D01*
X80904565Y-77234552D01*
X80505200Y-76967704D01*
X80034117Y-76874000D01*
X79985883Y-76874000D01*
X79514800Y-76967704D01*
X79115435Y-77234552D01*
X78858212Y-77619511D01*
X78741645Y-77338076D01*
X78351358Y-76909817D01*
X78192046Y-76835000D01*
X78351358Y-76760183D01*
X78741645Y-76331924D01*
X78858212Y-76050488D01*
X79115435Y-76435448D01*
X79514800Y-76702296D01*
X79985883Y-76796000D01*
X80034117Y-76796000D01*
X80505200Y-76702296D01*
X80904565Y-76435448D01*
X81171413Y-76036083D01*
X81265117Y-75565000D01*
X81171413Y-75093917D01*
X80904565Y-74694552D01*
X80505200Y-74427704D01*
X80034117Y-74334000D01*
X79985883Y-74334000D01*
X79514800Y-74427704D01*
X79115435Y-74694552D01*
X78858212Y-75079511D01*
X78741645Y-74798076D01*
X78351358Y-74369817D01*
X78192046Y-74295000D01*
X78351358Y-74220183D01*
X78741645Y-73791924D01*
X78858212Y-73510488D01*
X79115435Y-73895448D01*
X79514800Y-74162296D01*
X79985883Y-74256000D01*
X80034117Y-74256000D01*
X80505200Y-74162296D01*
X80904565Y-73895448D01*
X81171413Y-73496083D01*
X81265117Y-73025000D01*
X81171413Y-72553917D01*
X80904565Y-72154552D01*
X80505200Y-71887704D01*
X80034117Y-71794000D01*
X79985883Y-71794000D01*
X79514800Y-71887704D01*
X79115435Y-72154552D01*
X78858212Y-72539511D01*
X78741645Y-72258076D01*
X78351358Y-71829817D01*
X78192046Y-71755000D01*
X78351358Y-71680183D01*
X78741645Y-71251924D01*
X78858212Y-70970488D01*
X79115435Y-71355448D01*
X79514800Y-71622296D01*
X79985883Y-71716000D01*
X80034117Y-71716000D01*
X80505200Y-71622296D01*
X80904565Y-71355448D01*
X81171413Y-70956083D01*
X81265117Y-70485000D01*
X81171413Y-70013917D01*
X80904565Y-69614552D01*
X80505200Y-69347704D01*
X80034117Y-69254000D01*
X79985883Y-69254000D01*
X79514800Y-69347704D01*
X79115435Y-69614552D01*
X78858212Y-69999511D01*
X78741645Y-69718076D01*
X78351358Y-69289817D01*
X78192046Y-69215000D01*
X78351358Y-69140183D01*
X78741645Y-68711924D01*
X78858212Y-68430488D01*
X79115435Y-68815448D01*
X79514800Y-69082296D01*
X79985883Y-69176000D01*
X80034117Y-69176000D01*
X80505200Y-69082296D01*
X80904565Y-68815448D01*
X81171413Y-68416083D01*
X81265117Y-67945000D01*
X81171413Y-67473917D01*
X80904565Y-67074552D01*
X80505200Y-66807704D01*
X80034117Y-66714000D01*
X79985883Y-66714000D01*
X79514800Y-66807704D01*
X79115435Y-67074552D01*
X78858212Y-67459511D01*
X78741645Y-67178076D01*
X78351358Y-66749817D01*
X78192046Y-66675000D01*
X78351358Y-66600183D01*
X78741645Y-66171924D01*
X78858212Y-65890488D01*
X79115435Y-66275448D01*
X79514800Y-66542296D01*
X79985883Y-66636000D01*
X80034117Y-66636000D01*
X80505200Y-66542296D01*
X80904565Y-66275448D01*
X81171413Y-65876083D01*
X81265117Y-65405000D01*
X81171413Y-64933917D01*
X80904565Y-64534552D01*
X80505200Y-64267704D01*
X80034117Y-64174000D01*
X79985883Y-64174000D01*
X79514800Y-64267704D01*
X79115435Y-64534552D01*
X78858212Y-64919511D01*
X78741645Y-64638076D01*
X78351358Y-64209817D01*
X78192046Y-64135000D01*
X78351358Y-64060183D01*
X78741645Y-63631924D01*
X78858212Y-63350488D01*
X79115435Y-63735448D01*
X79514800Y-64002296D01*
X79985883Y-64096000D01*
X80034117Y-64096000D01*
X80505200Y-64002296D01*
X80904565Y-63735448D01*
X81171413Y-63336083D01*
X81265117Y-62865000D01*
X81171413Y-62393917D01*
X80904565Y-61994552D01*
X80505200Y-61727704D01*
X80034117Y-61634000D01*
X79985883Y-61634000D01*
X79514800Y-61727704D01*
X79115435Y-61994552D01*
X78858212Y-62379511D01*
X78741645Y-62098076D01*
X78351358Y-61669817D01*
X78192046Y-61595000D01*
X78351358Y-61520183D01*
X78741645Y-61091924D01*
X78858212Y-60810488D01*
X79115435Y-61195448D01*
X79514800Y-61462296D01*
X79985883Y-61556000D01*
X80034117Y-61556000D01*
X80505200Y-61462296D01*
X80904565Y-61195448D01*
X81171413Y-60796083D01*
X81265117Y-60325000D01*
X81171413Y-59853917D01*
X80904565Y-59454552D01*
X80505200Y-59187704D01*
X80034117Y-59094000D01*
X79985883Y-59094000D01*
X79514800Y-59187704D01*
X79115435Y-59454552D01*
X78858212Y-59839511D01*
X78741645Y-59558076D01*
X78351358Y-59129817D01*
X78192046Y-59055000D01*
X78351358Y-58980183D01*
X78741645Y-58551924D01*
X78858212Y-58270488D01*
X79115435Y-58655448D01*
X79514800Y-58922296D01*
X79985883Y-59016000D01*
X80034117Y-59016000D01*
X80505200Y-58922296D01*
X80904565Y-58655448D01*
X81171413Y-58256083D01*
X81265117Y-57785000D01*
X81171413Y-57313917D01*
X80904565Y-56914552D01*
X80505200Y-56647704D01*
X80034117Y-56554000D01*
X79985883Y-56554000D01*
X79514800Y-56647704D01*
X79115435Y-56914552D01*
X78858212Y-57299511D01*
X78741645Y-57018076D01*
X78351358Y-56589817D01*
X78192046Y-56515000D01*
X78351358Y-56440183D01*
X78741645Y-56011924D01*
X78858212Y-55730488D01*
X79115435Y-56115448D01*
X79514800Y-56382296D01*
X79985883Y-56476000D01*
X80034117Y-56476000D01*
X80505200Y-56382296D01*
X80904565Y-56115448D01*
X81171413Y-55716083D01*
X81265117Y-55245000D01*
X81171413Y-54773917D01*
X80904565Y-54374552D01*
X80505200Y-54107704D01*
X80034117Y-54014000D01*
X79985883Y-54014000D01*
X79514800Y-54107704D01*
X79115435Y-54374552D01*
X78858212Y-54759511D01*
X78741645Y-54478076D01*
X78351358Y-54049817D01*
X78192046Y-53975000D01*
X78351358Y-53900183D01*
X78741645Y-53471924D01*
X78858212Y-53190488D01*
X79115435Y-53575448D01*
X79514800Y-53842296D01*
X79985883Y-53936000D01*
X80034117Y-53936000D01*
X80505200Y-53842296D01*
X80904565Y-53575448D01*
X81171413Y-53176083D01*
X81265117Y-52705000D01*
X81171413Y-52233917D01*
X80904565Y-51834552D01*
X80505200Y-51567704D01*
X80034117Y-51474000D01*
X79985883Y-51474000D01*
X79514800Y-51567704D01*
X79115435Y-51834552D01*
X78858212Y-52219511D01*
X78741645Y-51938076D01*
X78351358Y-51509817D01*
X78192046Y-51435000D01*
X78351358Y-51360183D01*
X78741645Y-50931924D01*
X78858212Y-50650488D01*
X79115435Y-51035448D01*
X79514800Y-51302296D01*
X79985883Y-51396000D01*
X80034117Y-51396000D01*
X80505200Y-51302296D01*
X80904565Y-51035448D01*
X81171413Y-50636083D01*
X81265117Y-50165000D01*
X81171413Y-49693917D01*
X80904565Y-49294552D01*
X80505200Y-49027704D01*
X80034117Y-48934000D01*
X79985883Y-48934000D01*
X79514800Y-49027704D01*
X79115435Y-49294552D01*
X78858212Y-49679511D01*
X78741645Y-49398076D01*
X78351358Y-48969817D01*
X78192046Y-48895000D01*
X78351358Y-48820183D01*
X78741645Y-48391924D01*
X78858212Y-48110488D01*
X79115435Y-48495448D01*
X79514800Y-48762296D01*
X79985883Y-48856000D01*
X80034117Y-48856000D01*
X80505200Y-48762296D01*
X80904565Y-48495448D01*
X81171413Y-48096083D01*
X81265117Y-47625000D01*
X81171413Y-47153917D01*
X80904565Y-46754552D01*
X80505200Y-46487704D01*
X80034117Y-46394000D01*
X79985883Y-46394000D01*
X79514800Y-46487704D01*
X79115435Y-46754552D01*
X78858212Y-47139511D01*
X78741645Y-46858076D01*
X78351358Y-46429817D01*
X78192046Y-46355000D01*
X78351358Y-46280183D01*
X78741645Y-45851924D01*
X78858212Y-45570488D01*
X79115435Y-45955448D01*
X79514800Y-46222296D01*
X79985883Y-46316000D01*
X80034117Y-46316000D01*
X80505200Y-46222296D01*
X80904565Y-45955448D01*
X81171413Y-45556083D01*
X81265117Y-45085000D01*
X81171413Y-44613917D01*
X80904565Y-44214552D01*
X80505200Y-43947704D01*
X80034117Y-43854000D01*
X79985883Y-43854000D01*
X79514800Y-43947704D01*
X79115435Y-44214552D01*
X78858212Y-44599511D01*
X78741645Y-44318076D01*
X78351358Y-43889817D01*
X78192046Y-43815000D01*
X78351358Y-43740183D01*
X78741645Y-43311924D01*
X78858212Y-43030488D01*
X79115435Y-43415448D01*
X79514800Y-43682296D01*
X79985883Y-43776000D01*
X80034117Y-43776000D01*
X80505200Y-43682296D01*
X80904565Y-43415448D01*
X81171413Y-43016083D01*
X81265117Y-42545000D01*
X81171413Y-42073917D01*
X80904565Y-41674552D01*
X80505200Y-41407704D01*
X80034117Y-41314000D01*
X79985883Y-41314000D01*
X79514800Y-41407704D01*
X79115435Y-41674552D01*
X78858212Y-42059511D01*
X78741645Y-41778076D01*
X78470122Y-41480136D01*
X78679698Y-41393327D01*
X78858327Y-41214699D01*
X78891927Y-41133579D01*
X79010216Y-41213426D01*
X79160000Y-41243464D01*
X80860000Y-41243464D01*
X81005274Y-41215278D01*
X81132956Y-41131404D01*
X81218426Y-41004784D01*
X81248464Y-40855000D01*
X81248464Y-39155000D01*
X81220278Y-39009726D01*
X81136404Y-38882044D01*
X81009784Y-38796574D01*
X80860000Y-38766536D01*
X79160000Y-38766536D01*
X79014726Y-38794722D01*
X78891591Y-38875608D01*
X78858327Y-38795301D01*
X78679698Y-38616673D01*
X78446309Y-38520000D01*
X77755750Y-38520000D01*
X77641486Y-38634264D01*
X77641486Y-24486892D01*
X77641486Y-23773108D01*
X77395183Y-23248642D01*
X76966924Y-22858355D01*
X76685488Y-22741787D01*
X77070448Y-22484565D01*
X77337296Y-22085200D01*
X77431000Y-21614117D01*
X77431000Y-21565883D01*
X77337296Y-21094800D01*
X77070448Y-20695435D01*
X76671083Y-20428587D01*
X76200000Y-20334883D01*
X75728917Y-20428587D01*
X75329552Y-20695435D01*
X75062704Y-21094800D01*
X74969000Y-21565883D01*
X74969000Y-21614117D01*
X75062704Y-22085200D01*
X75329552Y-22484565D01*
X75714511Y-22741787D01*
X75433076Y-22858355D01*
X75004817Y-23248642D01*
X74930000Y-23407953D01*
X74855183Y-23248642D01*
X74426924Y-22858355D01*
X74145488Y-22741787D01*
X74530448Y-22484565D01*
X74797296Y-22085200D01*
X74891000Y-21614117D01*
X74891000Y-21565883D01*
X74797296Y-21094800D01*
X74530448Y-20695435D01*
X74131083Y-20428587D01*
X73660000Y-20334883D01*
X73188917Y-20428587D01*
X72789552Y-20695435D01*
X72522704Y-21094800D01*
X72429000Y-21565883D01*
X72429000Y-21614117D01*
X72522704Y-22085200D01*
X72789552Y-22484565D01*
X73174511Y-22741787D01*
X72893076Y-22858355D01*
X72464817Y-23248642D01*
X72390000Y-23407953D01*
X72315183Y-23248642D01*
X71886924Y-22858355D01*
X71605488Y-22741787D01*
X71990448Y-22484565D01*
X72257296Y-22085200D01*
X72351000Y-21614117D01*
X72351000Y-21565883D01*
X72257296Y-21094800D01*
X71990448Y-20695435D01*
X71591083Y-20428587D01*
X71120000Y-20334883D01*
X70648917Y-20428587D01*
X70249552Y-20695435D01*
X69982704Y-21094800D01*
X69889000Y-21565883D01*
X69889000Y-21614117D01*
X69982704Y-22085200D01*
X70249552Y-22484565D01*
X70634511Y-22741787D01*
X70353076Y-22858355D01*
X69924817Y-23248642D01*
X69850000Y-23407953D01*
X69775183Y-23248642D01*
X69346924Y-22858355D01*
X69065488Y-22741787D01*
X69450448Y-22484565D01*
X69717296Y-22085200D01*
X69811000Y-21614117D01*
X69811000Y-21565883D01*
X69717296Y-21094800D01*
X69450448Y-20695435D01*
X69051083Y-20428587D01*
X68580000Y-20334883D01*
X68108917Y-20428587D01*
X67709552Y-20695435D01*
X67442704Y-21094800D01*
X67349000Y-21565883D01*
X67349000Y-21614117D01*
X67442704Y-22085200D01*
X67709552Y-22484565D01*
X68094511Y-22741787D01*
X67813076Y-22858355D01*
X67384817Y-23248642D01*
X67310000Y-23407953D01*
X67235183Y-23248642D01*
X66806924Y-22858355D01*
X66525488Y-22741787D01*
X66910448Y-22484565D01*
X67177296Y-22085200D01*
X67271000Y-21614117D01*
X67271000Y-21565883D01*
X67177296Y-21094800D01*
X66910448Y-20695435D01*
X66511083Y-20428587D01*
X66040000Y-20334883D01*
X65568917Y-20428587D01*
X65169552Y-20695435D01*
X64902704Y-21094800D01*
X64809000Y-21565883D01*
X64809000Y-21614117D01*
X64902704Y-22085200D01*
X65169552Y-22484565D01*
X65554511Y-22741787D01*
X65273076Y-22858355D01*
X64844817Y-23248642D01*
X64770000Y-23407953D01*
X64695183Y-23248642D01*
X64266924Y-22858355D01*
X63985488Y-22741787D01*
X64370448Y-22484565D01*
X64637296Y-22085200D01*
X64731000Y-21614117D01*
X64731000Y-21565883D01*
X64637296Y-21094800D01*
X64370448Y-20695435D01*
X63971083Y-20428587D01*
X63500000Y-20334883D01*
X63028917Y-20428587D01*
X62629552Y-20695435D01*
X62362704Y-21094800D01*
X62269000Y-21565883D01*
X62269000Y-21614117D01*
X62362704Y-22085200D01*
X62629552Y-22484565D01*
X63014511Y-22741787D01*
X62733076Y-22858355D01*
X62304817Y-23248642D01*
X62230000Y-23407953D01*
X62155183Y-23248642D01*
X61726924Y-22858355D01*
X61445488Y-22741787D01*
X61830448Y-22484565D01*
X62097296Y-22085200D01*
X62191000Y-21614117D01*
X62191000Y-21565883D01*
X62097296Y-21094800D01*
X61830448Y-20695435D01*
X61431083Y-20428587D01*
X60960000Y-20334883D01*
X60488917Y-20428587D01*
X60089552Y-20695435D01*
X59822704Y-21094800D01*
X59729000Y-21565883D01*
X59729000Y-21614117D01*
X59822704Y-22085200D01*
X60089552Y-22484565D01*
X60474511Y-22741787D01*
X60193076Y-22858355D01*
X59764817Y-23248642D01*
X59690000Y-23407953D01*
X59615183Y-23248642D01*
X59186924Y-22858355D01*
X58905488Y-22741787D01*
X59290448Y-22484565D01*
X59557296Y-22085200D01*
X59651000Y-21614117D01*
X59651000Y-21565883D01*
X59557296Y-21094800D01*
X59290448Y-20695435D01*
X58891083Y-20428587D01*
X58420000Y-20334883D01*
X57948917Y-20428587D01*
X57549552Y-20695435D01*
X57282704Y-21094800D01*
X57189000Y-21565883D01*
X57189000Y-21614117D01*
X57282704Y-22085200D01*
X57549552Y-22484565D01*
X57934511Y-22741787D01*
X57653076Y-22858355D01*
X57224817Y-23248642D01*
X57150000Y-23407953D01*
X57075183Y-23248642D01*
X56646924Y-22858355D01*
X56365488Y-22741787D01*
X56750448Y-22484565D01*
X57017296Y-22085200D01*
X57111000Y-21614117D01*
X57111000Y-21565883D01*
X57017296Y-21094800D01*
X56750448Y-20695435D01*
X56351083Y-20428587D01*
X55880000Y-20334883D01*
X55408917Y-20428587D01*
X55009552Y-20695435D01*
X54742704Y-21094800D01*
X54649000Y-21565883D01*
X54649000Y-21614117D01*
X54742704Y-22085200D01*
X55009552Y-22484565D01*
X55394511Y-22741787D01*
X55113076Y-22858355D01*
X54684817Y-23248642D01*
X54610000Y-23407953D01*
X54535183Y-23248642D01*
X54106924Y-22858355D01*
X53825488Y-22741787D01*
X54210448Y-22484565D01*
X54477296Y-22085200D01*
X54571000Y-21614117D01*
X54571000Y-21565883D01*
X54477296Y-21094800D01*
X54210448Y-20695435D01*
X53811083Y-20428587D01*
X53340000Y-20334883D01*
X52868917Y-20428587D01*
X52469552Y-20695435D01*
X52202704Y-21094800D01*
X52109000Y-21565883D01*
X52109000Y-21614117D01*
X52202704Y-22085200D01*
X52469552Y-22484565D01*
X52854511Y-22741787D01*
X52573076Y-22858355D01*
X52144817Y-23248642D01*
X52070000Y-23407953D01*
X51995183Y-23248642D01*
X51566924Y-22858355D01*
X51285488Y-22741787D01*
X51670448Y-22484565D01*
X51937296Y-22085200D01*
X52031000Y-21614117D01*
X52031000Y-21565883D01*
X51937296Y-21094800D01*
X51670448Y-20695435D01*
X51271083Y-20428587D01*
X50800000Y-20334883D01*
X50328917Y-20428587D01*
X49929552Y-20695435D01*
X49662704Y-21094800D01*
X49569000Y-21565883D01*
X49569000Y-21614117D01*
X49662704Y-22085200D01*
X49929552Y-22484565D01*
X50314511Y-22741787D01*
X50033076Y-22858355D01*
X49604817Y-23248642D01*
X49530000Y-23407953D01*
X49455183Y-23248642D01*
X49026924Y-22858355D01*
X48745488Y-22741787D01*
X49130448Y-22484565D01*
X49397296Y-22085200D01*
X49491000Y-21614117D01*
X49491000Y-21565883D01*
X49397296Y-21094800D01*
X49130448Y-20695435D01*
X48731083Y-20428587D01*
X48260000Y-20334883D01*
X47788917Y-20428587D01*
X47389552Y-20695435D01*
X47122704Y-21094800D01*
X47029000Y-21565883D01*
X47029000Y-21614117D01*
X47122704Y-22085200D01*
X47389552Y-22484565D01*
X47774511Y-22741787D01*
X47493076Y-22858355D01*
X47064817Y-23248642D01*
X46990000Y-23407953D01*
X46915183Y-23248642D01*
X46486924Y-22858355D01*
X46205488Y-22741787D01*
X46590448Y-22484565D01*
X46857296Y-22085200D01*
X46951000Y-21614117D01*
X46951000Y-21565883D01*
X46857296Y-21094800D01*
X46590448Y-20695435D01*
X46191083Y-20428587D01*
X45720000Y-20334883D01*
X45248917Y-20428587D01*
X44849552Y-20695435D01*
X44582704Y-21094800D01*
X44489000Y-21565883D01*
X44489000Y-21614117D01*
X44582704Y-22085200D01*
X44849552Y-22484565D01*
X45234511Y-22741787D01*
X44953076Y-22858355D01*
X44524817Y-23248642D01*
X44450000Y-23407953D01*
X44375183Y-23248642D01*
X43946924Y-22858355D01*
X43665488Y-22741787D01*
X44050448Y-22484565D01*
X44317296Y-22085200D01*
X44411000Y-21614117D01*
X44411000Y-21565883D01*
X44317296Y-21094800D01*
X44050448Y-20695435D01*
X43651083Y-20428587D01*
X43180000Y-20334883D01*
X42708917Y-20428587D01*
X42309552Y-20695435D01*
X42042704Y-21094800D01*
X41949000Y-21565883D01*
X41949000Y-21614117D01*
X42042704Y-22085200D01*
X42309552Y-22484565D01*
X42694511Y-22741787D01*
X42413076Y-22858355D01*
X41984817Y-23248642D01*
X41910000Y-23407953D01*
X41835183Y-23248642D01*
X41406924Y-22858355D01*
X41125488Y-22741787D01*
X41510448Y-22484565D01*
X41777296Y-22085200D01*
X41871000Y-21614117D01*
X41871000Y-21565883D01*
X41777296Y-21094800D01*
X41510448Y-20695435D01*
X41111083Y-20428587D01*
X40640000Y-20334883D01*
X40168917Y-20428587D01*
X39769552Y-20695435D01*
X39502704Y-21094800D01*
X39409000Y-21565883D01*
X39409000Y-21614117D01*
X39502704Y-22085200D01*
X39769552Y-22484565D01*
X40154511Y-22741787D01*
X39873076Y-22858355D01*
X39575136Y-23129877D01*
X39488327Y-22920302D01*
X39309699Y-22741673D01*
X39228579Y-22708072D01*
X39308426Y-22589784D01*
X39338464Y-22440000D01*
X39338464Y-20740000D01*
X39310278Y-20594726D01*
X39226404Y-20467044D01*
X39099784Y-20381574D01*
X38950000Y-20351536D01*
X37250000Y-20351536D01*
X37104726Y-20379722D01*
X36977044Y-20463596D01*
X36891574Y-20590216D01*
X36861536Y-20740000D01*
X36861536Y-22440000D01*
X36889722Y-22585274D01*
X36970608Y-22708408D01*
X36890301Y-22741673D01*
X36711673Y-22920302D01*
X36615000Y-23153691D01*
X36615000Y-23844250D01*
X36773750Y-24003000D01*
X37973000Y-24003000D01*
X37973000Y-23983000D01*
X38227000Y-23983000D01*
X38227000Y-24003000D01*
X39319181Y-24003000D01*
X39426250Y-24003000D01*
X40513000Y-24003000D01*
X40513000Y-23983000D01*
X40767000Y-23983000D01*
X40767000Y-24003000D01*
X41859181Y-24003000D01*
X41960819Y-24003000D01*
X43053000Y-24003000D01*
X43053000Y-23983000D01*
X43307000Y-23983000D01*
X43307000Y-24003000D01*
X44399181Y-24003000D01*
X44500819Y-24003000D01*
X45593000Y-24003000D01*
X45593000Y-23983000D01*
X45847000Y-23983000D01*
X45847000Y-24003000D01*
X46939181Y-24003000D01*
X47040819Y-24003000D01*
X48133000Y-24003000D01*
X48133000Y-23983000D01*
X48387000Y-23983000D01*
X48387000Y-24003000D01*
X49479181Y-24003000D01*
X49580819Y-24003000D01*
X50673000Y-24003000D01*
X50673000Y-23983000D01*
X50927000Y-23983000D01*
X50927000Y-24003000D01*
X52019181Y-24003000D01*
X52120819Y-24003000D01*
X53213000Y-24003000D01*
X53213000Y-23983000D01*
X53467000Y-23983000D01*
X53467000Y-24003000D01*
X54559181Y-24003000D01*
X54660819Y-24003000D01*
X55753000Y-24003000D01*
X55753000Y-23983000D01*
X56007000Y-23983000D01*
X56007000Y-24003000D01*
X57099181Y-24003000D01*
X57200819Y-24003000D01*
X58293000Y-24003000D01*
X58293000Y-23983000D01*
X58547000Y-23983000D01*
X58547000Y-24003000D01*
X59639181Y-24003000D01*
X59740819Y-24003000D01*
X60833000Y-24003000D01*
X60833000Y-23983000D01*
X61087000Y-23983000D01*
X61087000Y-24003000D01*
X62179181Y-24003000D01*
X62280819Y-24003000D01*
X63373000Y-24003000D01*
X63373000Y-23983000D01*
X63627000Y-23983000D01*
X63627000Y-24003000D01*
X64719181Y-24003000D01*
X64820819Y-24003000D01*
X65913000Y-24003000D01*
X65913000Y-23983000D01*
X66167000Y-23983000D01*
X66167000Y-24003000D01*
X67259181Y-24003000D01*
X67360819Y-24003000D01*
X68453000Y-24003000D01*
X68453000Y-23983000D01*
X68707000Y-23983000D01*
X68707000Y-24003000D01*
X69799181Y-24003000D01*
X69900819Y-24003000D01*
X70993000Y-24003000D01*
X70993000Y-23983000D01*
X71247000Y-23983000D01*
X71247000Y-24003000D01*
X72339181Y-24003000D01*
X72440819Y-24003000D01*
X73533000Y-24003000D01*
X73533000Y-23983000D01*
X73787000Y-23983000D01*
X73787000Y-24003000D01*
X74879181Y-24003000D01*
X74980819Y-24003000D01*
X76073000Y-24003000D01*
X76073000Y-23983000D01*
X76327000Y-23983000D01*
X76327000Y-24003000D01*
X77520819Y-24003000D01*
X77641486Y-23773108D01*
X77641486Y-24486892D01*
X77520819Y-24257000D01*
X76327000Y-24257000D01*
X76327000Y-25450155D01*
X76556890Y-25571476D01*
X76966924Y-25401645D01*
X77395183Y-25011358D01*
X77641486Y-24486892D01*
X77641486Y-38634264D01*
X77597000Y-38678750D01*
X77597000Y-39878000D01*
X77617000Y-39878000D01*
X77617000Y-40132000D01*
X77597000Y-40132000D01*
X77597000Y-41224181D01*
X77597000Y-41331250D01*
X77597000Y-42418000D01*
X77617000Y-42418000D01*
X77617000Y-42672000D01*
X77597000Y-42672000D01*
X77597000Y-43764181D01*
X77597000Y-43865819D01*
X77597000Y-44958000D01*
X77617000Y-44958000D01*
X77617000Y-45212000D01*
X77597000Y-45212000D01*
X77597000Y-46304181D01*
X77597000Y-46405819D01*
X77597000Y-47498000D01*
X77617000Y-47498000D01*
X77617000Y-47752000D01*
X77597000Y-47752000D01*
X77597000Y-48844181D01*
X77597000Y-48945819D01*
X77597000Y-50038000D01*
X77617000Y-50038000D01*
X77617000Y-50292000D01*
X77597000Y-50292000D01*
X77597000Y-51384181D01*
X77597000Y-51485819D01*
X77597000Y-52578000D01*
X77617000Y-52578000D01*
X77617000Y-52832000D01*
X77597000Y-52832000D01*
X77597000Y-53924181D01*
X77597000Y-54025819D01*
X77597000Y-55118000D01*
X77617000Y-55118000D01*
X77617000Y-55372000D01*
X77597000Y-55372000D01*
X77597000Y-56464181D01*
X77597000Y-56565819D01*
X77597000Y-57658000D01*
X77617000Y-57658000D01*
X77617000Y-57912000D01*
X77597000Y-57912000D01*
X77597000Y-59004181D01*
X77597000Y-59105819D01*
X77597000Y-60198000D01*
X77617000Y-60198000D01*
X77617000Y-60452000D01*
X77597000Y-60452000D01*
X77597000Y-61544181D01*
X77597000Y-61645819D01*
X77597000Y-62738000D01*
X77617000Y-62738000D01*
X77617000Y-62992000D01*
X77597000Y-62992000D01*
X77597000Y-64084181D01*
X77597000Y-64185819D01*
X77597000Y-65278000D01*
X77617000Y-65278000D01*
X77617000Y-65532000D01*
X77597000Y-65532000D01*
X77597000Y-66624181D01*
X77597000Y-66725819D01*
X77597000Y-67818000D01*
X77617000Y-67818000D01*
X77617000Y-68072000D01*
X77597000Y-68072000D01*
X77597000Y-69164181D01*
X77597000Y-69265819D01*
X77597000Y-70358000D01*
X77617000Y-70358000D01*
X77617000Y-70612000D01*
X77597000Y-70612000D01*
X77597000Y-71704181D01*
X77597000Y-71805819D01*
X77597000Y-72898000D01*
X77617000Y-72898000D01*
X77617000Y-73152000D01*
X77597000Y-73152000D01*
X77597000Y-74244181D01*
X77597000Y-74345819D01*
X77597000Y-75438000D01*
X77617000Y-75438000D01*
X77617000Y-75692000D01*
X77597000Y-75692000D01*
X77597000Y-76784181D01*
X77597000Y-76885819D01*
X77597000Y-77978000D01*
X77617000Y-77978000D01*
X77617000Y-78232000D01*
X77597000Y-78232000D01*
X77597000Y-79425819D01*
X77826892Y-79546486D01*
X78351358Y-79300183D01*
X78741645Y-78871924D01*
X78858212Y-78590488D01*
X79115435Y-78975448D01*
X79514800Y-79242296D01*
X79985883Y-79336000D01*
X80034117Y-79336000D01*
X80505200Y-79242296D01*
X80904565Y-78975448D01*
X81171413Y-78576083D01*
X81265117Y-78105000D01*
X81265117Y-104569000D01*
X77641486Y-104569000D01*
X77641486Y-90526892D01*
X77641486Y-89813108D01*
X77395183Y-89288642D01*
X77343000Y-89241085D01*
X77343000Y-79425819D01*
X77343000Y-78232000D01*
X77343000Y-77978000D01*
X77343000Y-76885819D01*
X77343000Y-76784181D01*
X77343000Y-75692000D01*
X77343000Y-75438000D01*
X77343000Y-74345819D01*
X77343000Y-74244181D01*
X77343000Y-73152000D01*
X77343000Y-72898000D01*
X77343000Y-71805819D01*
X77343000Y-71704181D01*
X77343000Y-70612000D01*
X77343000Y-70358000D01*
X77343000Y-69265819D01*
X77343000Y-69164181D01*
X77343000Y-68072000D01*
X77343000Y-67818000D01*
X77343000Y-66725819D01*
X77343000Y-66624181D01*
X77343000Y-65532000D01*
X77343000Y-65278000D01*
X77343000Y-64185819D01*
X77343000Y-64084181D01*
X77343000Y-62992000D01*
X77343000Y-62738000D01*
X77343000Y-61645819D01*
X77343000Y-61544181D01*
X77343000Y-60452000D01*
X77343000Y-60198000D01*
X77343000Y-59105819D01*
X77343000Y-59004181D01*
X77343000Y-57912000D01*
X77343000Y-57658000D01*
X77343000Y-56565819D01*
X77343000Y-56464181D01*
X77343000Y-55372000D01*
X77343000Y-55118000D01*
X77343000Y-54025819D01*
X77343000Y-53924181D01*
X77343000Y-52832000D01*
X77343000Y-52578000D01*
X77343000Y-51485819D01*
X77343000Y-51384181D01*
X77343000Y-50292000D01*
X77343000Y-50038000D01*
X77343000Y-48945819D01*
X77343000Y-48844181D01*
X77343000Y-47752000D01*
X77343000Y-47498000D01*
X77343000Y-46405819D01*
X77343000Y-46304181D01*
X77343000Y-45212000D01*
X77343000Y-44958000D01*
X77343000Y-43865819D01*
X77343000Y-43764181D01*
X77343000Y-42672000D01*
X77343000Y-42418000D01*
X77343000Y-41331250D01*
X77343000Y-41224181D01*
X77343000Y-40132000D01*
X77343000Y-39878000D01*
X77343000Y-38678750D01*
X77184250Y-38520000D01*
X76493691Y-38520000D01*
X76260302Y-38616673D01*
X76081673Y-38795301D01*
X76073000Y-38816239D01*
X76073000Y-25450155D01*
X76073000Y-24257000D01*
X74980819Y-24257000D01*
X74879181Y-24257000D01*
X73787000Y-24257000D01*
X73787000Y-25450155D01*
X74016890Y-25571476D01*
X74426924Y-25401645D01*
X74855183Y-25011358D01*
X74930000Y-24852046D01*
X75004817Y-25011358D01*
X75433076Y-25401645D01*
X75843110Y-25571476D01*
X76073000Y-25450155D01*
X76073000Y-38816239D01*
X75985000Y-39028690D01*
X75985000Y-39281309D01*
X75985000Y-39719250D01*
X76143750Y-39878000D01*
X77343000Y-39878000D01*
X77343000Y-40132000D01*
X76143750Y-40132000D01*
X75985000Y-40290750D01*
X75985000Y-40728691D01*
X75985000Y-40981310D01*
X76081673Y-41214699D01*
X76260302Y-41393327D01*
X76469877Y-41480136D01*
X76198355Y-41778076D01*
X76028524Y-42188110D01*
X76149845Y-42418000D01*
X77343000Y-42418000D01*
X77343000Y-42672000D01*
X76149845Y-42672000D01*
X76028524Y-42901890D01*
X76198355Y-43311924D01*
X76588642Y-43740183D01*
X76747953Y-43815000D01*
X76588642Y-43889817D01*
X76198355Y-44318076D01*
X76028524Y-44728110D01*
X76149845Y-44958000D01*
X77343000Y-44958000D01*
X77343000Y-45212000D01*
X76149845Y-45212000D01*
X76028524Y-45441890D01*
X76198355Y-45851924D01*
X76588642Y-46280183D01*
X76747953Y-46355000D01*
X76588642Y-46429817D01*
X76198355Y-46858076D01*
X76028524Y-47268110D01*
X76149845Y-47498000D01*
X77343000Y-47498000D01*
X77343000Y-47752000D01*
X76149845Y-47752000D01*
X76028524Y-47981890D01*
X76198355Y-48391924D01*
X76588642Y-48820183D01*
X76747953Y-48895000D01*
X76588642Y-48969817D01*
X76198355Y-49398076D01*
X76028524Y-49808110D01*
X76149845Y-50038000D01*
X77343000Y-50038000D01*
X77343000Y-50292000D01*
X76149845Y-50292000D01*
X76028524Y-50521890D01*
X76198355Y-50931924D01*
X76588642Y-51360183D01*
X76747953Y-51435000D01*
X76588642Y-51509817D01*
X76198355Y-51938076D01*
X76028524Y-52348110D01*
X76149845Y-52578000D01*
X77343000Y-52578000D01*
X77343000Y-52832000D01*
X76149845Y-52832000D01*
X76028524Y-53061890D01*
X76198355Y-53471924D01*
X76588642Y-53900183D01*
X76747953Y-53975000D01*
X76588642Y-54049817D01*
X76198355Y-54478076D01*
X76028524Y-54888110D01*
X76149845Y-55118000D01*
X77343000Y-55118000D01*
X77343000Y-55372000D01*
X76149845Y-55372000D01*
X76028524Y-55601890D01*
X76198355Y-56011924D01*
X76588642Y-56440183D01*
X76747953Y-56515000D01*
X76588642Y-56589817D01*
X76198355Y-57018076D01*
X76028524Y-57428110D01*
X76149845Y-57658000D01*
X77343000Y-57658000D01*
X77343000Y-57912000D01*
X76149845Y-57912000D01*
X76028524Y-58141890D01*
X76198355Y-58551924D01*
X76588642Y-58980183D01*
X76747953Y-59055000D01*
X76588642Y-59129817D01*
X76198355Y-59558076D01*
X76028524Y-59968110D01*
X76149845Y-60198000D01*
X77343000Y-60198000D01*
X77343000Y-60452000D01*
X76149845Y-60452000D01*
X76028524Y-60681890D01*
X76198355Y-61091924D01*
X76588642Y-61520183D01*
X76747953Y-61595000D01*
X76588642Y-61669817D01*
X76198355Y-62098076D01*
X76028524Y-62508110D01*
X76149845Y-62738000D01*
X77343000Y-62738000D01*
X77343000Y-62992000D01*
X76149845Y-62992000D01*
X76028524Y-63221890D01*
X76198355Y-63631924D01*
X76588642Y-64060183D01*
X76747953Y-64135000D01*
X76588642Y-64209817D01*
X76198355Y-64638076D01*
X76028524Y-65048110D01*
X76149845Y-65278000D01*
X77343000Y-65278000D01*
X77343000Y-65532000D01*
X76149845Y-65532000D01*
X76028524Y-65761890D01*
X76198355Y-66171924D01*
X76588642Y-66600183D01*
X76747953Y-66675000D01*
X76588642Y-66749817D01*
X76198355Y-67178076D01*
X76028524Y-67588110D01*
X76149845Y-67818000D01*
X77343000Y-67818000D01*
X77343000Y-68072000D01*
X76149845Y-68072000D01*
X76028524Y-68301890D01*
X76198355Y-68711924D01*
X76588642Y-69140183D01*
X76747953Y-69215000D01*
X76588642Y-69289817D01*
X76198355Y-69718076D01*
X76028524Y-70128110D01*
X76149845Y-70358000D01*
X77343000Y-70358000D01*
X77343000Y-70612000D01*
X76149845Y-70612000D01*
X76028524Y-70841890D01*
X76198355Y-71251924D01*
X76588642Y-71680183D01*
X76747953Y-71755000D01*
X76588642Y-71829817D01*
X76198355Y-72258076D01*
X76028524Y-72668110D01*
X76149845Y-72898000D01*
X77343000Y-72898000D01*
X77343000Y-73152000D01*
X76149845Y-73152000D01*
X76028524Y-73381890D01*
X76198355Y-73791924D01*
X76588642Y-74220183D01*
X76747953Y-74295000D01*
X76588642Y-74369817D01*
X76198355Y-74798076D01*
X76028524Y-75208110D01*
X76149845Y-75438000D01*
X77343000Y-75438000D01*
X77343000Y-75692000D01*
X76149845Y-75692000D01*
X76028524Y-75921890D01*
X76198355Y-76331924D01*
X76588642Y-76760183D01*
X76747953Y-76835000D01*
X76588642Y-76909817D01*
X76198355Y-77338076D01*
X76028524Y-77748110D01*
X76149845Y-77978000D01*
X77343000Y-77978000D01*
X77343000Y-78232000D01*
X76149845Y-78232000D01*
X76028524Y-78461890D01*
X76198355Y-78871924D01*
X76588642Y-79300183D01*
X77113108Y-79546486D01*
X77343000Y-79425819D01*
X77343000Y-89241085D01*
X76966924Y-88898355D01*
X76556890Y-88728524D01*
X76327000Y-88849845D01*
X76327000Y-90043000D01*
X77520819Y-90043000D01*
X77641486Y-89813108D01*
X77641486Y-90526892D01*
X77520819Y-90297000D01*
X76327000Y-90297000D01*
X76327000Y-90317000D01*
X76073000Y-90317000D01*
X76073000Y-90297000D01*
X76073000Y-90043000D01*
X76073000Y-88849845D01*
X75843110Y-88728524D01*
X75433076Y-88898355D01*
X75004817Y-89288642D01*
X74930000Y-89447953D01*
X74855183Y-89288642D01*
X74426924Y-88898355D01*
X74016890Y-88728524D01*
X73787000Y-88849845D01*
X73787000Y-90043000D01*
X74879181Y-90043000D01*
X74980819Y-90043000D01*
X76073000Y-90043000D01*
X76073000Y-90297000D01*
X74980819Y-90297000D01*
X74879181Y-90297000D01*
X73787000Y-90297000D01*
X73787000Y-90317000D01*
X73533000Y-90317000D01*
X73533000Y-90297000D01*
X73533000Y-90043000D01*
X73533000Y-88849845D01*
X73533000Y-25450155D01*
X73533000Y-24257000D01*
X72440819Y-24257000D01*
X72339181Y-24257000D01*
X71247000Y-24257000D01*
X71247000Y-25450155D01*
X71476890Y-25571476D01*
X71886924Y-25401645D01*
X72315183Y-25011358D01*
X72390000Y-24852046D01*
X72464817Y-25011358D01*
X72893076Y-25401645D01*
X73303110Y-25571476D01*
X73533000Y-25450155D01*
X73533000Y-88849845D01*
X73303110Y-88728524D01*
X72893076Y-88898355D01*
X72464817Y-89288642D01*
X72390000Y-89447953D01*
X72315183Y-89288642D01*
X71886924Y-88898355D01*
X71476890Y-88728524D01*
X71247000Y-88849845D01*
X71247000Y-90043000D01*
X72339181Y-90043000D01*
X72440819Y-90043000D01*
X73533000Y-90043000D01*
X73533000Y-90297000D01*
X72440819Y-90297000D01*
X72339181Y-90297000D01*
X71247000Y-90297000D01*
X71247000Y-90317000D01*
X70993000Y-90317000D01*
X70993000Y-90297000D01*
X70993000Y-90043000D01*
X70993000Y-88849845D01*
X70993000Y-25450155D01*
X70993000Y-24257000D01*
X69900819Y-24257000D01*
X69799181Y-24257000D01*
X68707000Y-24257000D01*
X68707000Y-25450155D01*
X68936890Y-25571476D01*
X69346924Y-25401645D01*
X69775183Y-25011358D01*
X69850000Y-24852046D01*
X69924817Y-25011358D01*
X70353076Y-25401645D01*
X70763110Y-25571476D01*
X70993000Y-25450155D01*
X70993000Y-88849845D01*
X70763110Y-88728524D01*
X70353076Y-88898355D01*
X69924817Y-89288642D01*
X69850000Y-89447953D01*
X69775183Y-89288642D01*
X69346924Y-88898355D01*
X68936890Y-88728524D01*
X68707000Y-88849845D01*
X68707000Y-90043000D01*
X69799181Y-90043000D01*
X69900819Y-90043000D01*
X70993000Y-90043000D01*
X70993000Y-90297000D01*
X69900819Y-90297000D01*
X69799181Y-90297000D01*
X68707000Y-90297000D01*
X68707000Y-90317000D01*
X68453000Y-90317000D01*
X68453000Y-90297000D01*
X68453000Y-90043000D01*
X68453000Y-88849845D01*
X68453000Y-25450155D01*
X68453000Y-24257000D01*
X67360819Y-24257000D01*
X67259181Y-24257000D01*
X66167000Y-24257000D01*
X66167000Y-25450155D01*
X66396890Y-25571476D01*
X66806924Y-25401645D01*
X67235183Y-25011358D01*
X67310000Y-24852046D01*
X67384817Y-25011358D01*
X67813076Y-25401645D01*
X68223110Y-25571476D01*
X68453000Y-25450155D01*
X68453000Y-88849845D01*
X68223110Y-88728524D01*
X67813076Y-88898355D01*
X67384817Y-89288642D01*
X67310000Y-89447953D01*
X67235183Y-89288642D01*
X66806924Y-88898355D01*
X66396890Y-88728524D01*
X66167000Y-88849845D01*
X66167000Y-90043000D01*
X67259181Y-90043000D01*
X67360819Y-90043000D01*
X68453000Y-90043000D01*
X68453000Y-90297000D01*
X67360819Y-90297000D01*
X67259181Y-90297000D01*
X66167000Y-90297000D01*
X66167000Y-90317000D01*
X65913000Y-90317000D01*
X65913000Y-90297000D01*
X65913000Y-90043000D01*
X65913000Y-88849845D01*
X65913000Y-25450155D01*
X65913000Y-24257000D01*
X64820819Y-24257000D01*
X64719181Y-24257000D01*
X63627000Y-24257000D01*
X63627000Y-25450155D01*
X63856890Y-25571476D01*
X64266924Y-25401645D01*
X64695183Y-25011358D01*
X64770000Y-24852046D01*
X64844817Y-25011358D01*
X65273076Y-25401645D01*
X65683110Y-25571476D01*
X65913000Y-25450155D01*
X65913000Y-88849845D01*
X65683110Y-88728524D01*
X65273076Y-88898355D01*
X64844817Y-89288642D01*
X64770000Y-89447953D01*
X64695183Y-89288642D01*
X64266924Y-88898355D01*
X63856890Y-88728524D01*
X63627000Y-88849845D01*
X63627000Y-90043000D01*
X64719181Y-90043000D01*
X64820819Y-90043000D01*
X65913000Y-90043000D01*
X65913000Y-90297000D01*
X64820819Y-90297000D01*
X64719181Y-90297000D01*
X63627000Y-90297000D01*
X63627000Y-90317000D01*
X63373000Y-90317000D01*
X63373000Y-90297000D01*
X63373000Y-90043000D01*
X63373000Y-88849845D01*
X63373000Y-25450155D01*
X63373000Y-24257000D01*
X62280819Y-24257000D01*
X62179181Y-24257000D01*
X61087000Y-24257000D01*
X61087000Y-25450155D01*
X61316890Y-25571476D01*
X61726924Y-25401645D01*
X62155183Y-25011358D01*
X62230000Y-24852046D01*
X62304817Y-25011358D01*
X62733076Y-25401645D01*
X63143110Y-25571476D01*
X63373000Y-25450155D01*
X63373000Y-88849845D01*
X63143110Y-88728524D01*
X62733076Y-88898355D01*
X62572792Y-89044427D01*
X62572792Y-77094563D01*
X62572792Y-36094563D01*
X61878213Y-34413553D01*
X60833000Y-33366513D01*
X60833000Y-25450155D01*
X60833000Y-24257000D01*
X59740819Y-24257000D01*
X59639181Y-24257000D01*
X58547000Y-24257000D01*
X58547000Y-25450155D01*
X58776890Y-25571476D01*
X59186924Y-25401645D01*
X59615183Y-25011358D01*
X59690000Y-24852046D01*
X59764817Y-25011358D01*
X60193076Y-25401645D01*
X60603110Y-25571476D01*
X60833000Y-25450155D01*
X60833000Y-33366513D01*
X60593212Y-33126307D01*
X58913417Y-32428795D01*
X58293000Y-32428253D01*
X58293000Y-25450155D01*
X58293000Y-24257000D01*
X57200819Y-24257000D01*
X57099181Y-24257000D01*
X56007000Y-24257000D01*
X56007000Y-25450155D01*
X56236890Y-25571476D01*
X56646924Y-25401645D01*
X57075183Y-25011358D01*
X57150000Y-24852046D01*
X57224817Y-25011358D01*
X57653076Y-25401645D01*
X58063110Y-25571476D01*
X58293000Y-25450155D01*
X58293000Y-32428253D01*
X57094563Y-32427208D01*
X55753000Y-32981530D01*
X55753000Y-25450155D01*
X55753000Y-24257000D01*
X54660819Y-24257000D01*
X54559181Y-24257000D01*
X53467000Y-24257000D01*
X53467000Y-25450155D01*
X53696890Y-25571476D01*
X54106924Y-25401645D01*
X54535183Y-25011358D01*
X54610000Y-24852046D01*
X54684817Y-25011358D01*
X55113076Y-25401645D01*
X55523110Y-25571476D01*
X55753000Y-25450155D01*
X55753000Y-32981530D01*
X55413553Y-33121787D01*
X54126307Y-34406788D01*
X53428795Y-36086583D01*
X53427208Y-37905437D01*
X54121787Y-39586447D01*
X55406788Y-40873693D01*
X57086583Y-41571205D01*
X58905437Y-41572792D01*
X60586447Y-40878213D01*
X61873693Y-39593212D01*
X62571205Y-37913417D01*
X62572792Y-36094563D01*
X62572792Y-77094563D01*
X61878213Y-75413553D01*
X60593212Y-74126307D01*
X58913417Y-73428795D01*
X57094563Y-73427208D01*
X55413553Y-74121787D01*
X54126307Y-75406788D01*
X53428795Y-77086583D01*
X53427208Y-78905437D01*
X54121787Y-80586447D01*
X55406788Y-81873693D01*
X57086583Y-82571205D01*
X58905437Y-82572792D01*
X60586447Y-81878213D01*
X61873693Y-80593212D01*
X62571205Y-78913417D01*
X62572792Y-77094563D01*
X62572792Y-89044427D01*
X62304817Y-89288642D01*
X62230000Y-89447953D01*
X62155183Y-89288642D01*
X61726924Y-88898355D01*
X61316890Y-88728524D01*
X61087000Y-88849845D01*
X61087000Y-90043000D01*
X62179181Y-90043000D01*
X62280819Y-90043000D01*
X63373000Y-90043000D01*
X63373000Y-90297000D01*
X62280819Y-90297000D01*
X62179181Y-90297000D01*
X61087000Y-90297000D01*
X61087000Y-90317000D01*
X60833000Y-90317000D01*
X60833000Y-90297000D01*
X60833000Y-90043000D01*
X60833000Y-88849845D01*
X60603110Y-88728524D01*
X60193076Y-88898355D01*
X59764817Y-89288642D01*
X59690000Y-89447953D01*
X59615183Y-89288642D01*
X59186924Y-88898355D01*
X58776890Y-88728524D01*
X58547000Y-88849845D01*
X58547000Y-90043000D01*
X59639181Y-90043000D01*
X59740819Y-90043000D01*
X60833000Y-90043000D01*
X60833000Y-90297000D01*
X59740819Y-90297000D01*
X59639181Y-90297000D01*
X58547000Y-90297000D01*
X58547000Y-90317000D01*
X58293000Y-90317000D01*
X58293000Y-90297000D01*
X58293000Y-90043000D01*
X58293000Y-88849845D01*
X58063110Y-88728524D01*
X57653076Y-88898355D01*
X57224817Y-89288642D01*
X57150000Y-89447953D01*
X57075183Y-89288642D01*
X56646924Y-88898355D01*
X56236890Y-88728524D01*
X56007000Y-88849845D01*
X56007000Y-90043000D01*
X57099181Y-90043000D01*
X57200819Y-90043000D01*
X58293000Y-90043000D01*
X58293000Y-90297000D01*
X57200819Y-90297000D01*
X57099181Y-90297000D01*
X56007000Y-90297000D01*
X56007000Y-90317000D01*
X55753000Y-90317000D01*
X55753000Y-90297000D01*
X55753000Y-90043000D01*
X55753000Y-88849845D01*
X55523110Y-88728524D01*
X55113076Y-88898355D01*
X54684817Y-89288642D01*
X54610000Y-89447953D01*
X54535183Y-89288642D01*
X54106924Y-88898355D01*
X53696890Y-88728524D01*
X53467000Y-88849845D01*
X53467000Y-90043000D01*
X54559181Y-90043000D01*
X54660819Y-90043000D01*
X55753000Y-90043000D01*
X55753000Y-90297000D01*
X54660819Y-90297000D01*
X54559181Y-90297000D01*
X53467000Y-90297000D01*
X53467000Y-90317000D01*
X53213000Y-90317000D01*
X53213000Y-90297000D01*
X53213000Y-90043000D01*
X53213000Y-88849845D01*
X53213000Y-25450155D01*
X53213000Y-24257000D01*
X52120819Y-24257000D01*
X52019181Y-24257000D01*
X50927000Y-24257000D01*
X50927000Y-25450155D01*
X51156890Y-25571476D01*
X51566924Y-25401645D01*
X51995183Y-25011358D01*
X52070000Y-24852046D01*
X52144817Y-25011358D01*
X52573076Y-25401645D01*
X52983110Y-25571476D01*
X53213000Y-25450155D01*
X53213000Y-88849845D01*
X52983110Y-88728524D01*
X52573076Y-88898355D01*
X52144817Y-89288642D01*
X52070000Y-89447953D01*
X51995183Y-89288642D01*
X51566924Y-88898355D01*
X51156890Y-88728524D01*
X50927000Y-88849845D01*
X50927000Y-90043000D01*
X52019181Y-90043000D01*
X52120819Y-90043000D01*
X53213000Y-90043000D01*
X53213000Y-90297000D01*
X52120819Y-90297000D01*
X52019181Y-90297000D01*
X50927000Y-90297000D01*
X50927000Y-90317000D01*
X50673000Y-90317000D01*
X50673000Y-90297000D01*
X50673000Y-90043000D01*
X50673000Y-88849845D01*
X50673000Y-25450155D01*
X50673000Y-24257000D01*
X49580819Y-24257000D01*
X49479181Y-24257000D01*
X48387000Y-24257000D01*
X48387000Y-25450155D01*
X48616890Y-25571476D01*
X49026924Y-25401645D01*
X49455183Y-25011358D01*
X49530000Y-24852046D01*
X49604817Y-25011358D01*
X50033076Y-25401645D01*
X50443110Y-25571476D01*
X50673000Y-25450155D01*
X50673000Y-88849845D01*
X50443110Y-88728524D01*
X50033076Y-88898355D01*
X49604817Y-89288642D01*
X49530000Y-89447953D01*
X49455183Y-89288642D01*
X49026924Y-88898355D01*
X48616890Y-88728524D01*
X48387000Y-88849845D01*
X48387000Y-90043000D01*
X49479181Y-90043000D01*
X49580819Y-90043000D01*
X50673000Y-90043000D01*
X50673000Y-90297000D01*
X49580819Y-90297000D01*
X49479181Y-90297000D01*
X48387000Y-90297000D01*
X48387000Y-90317000D01*
X48133000Y-90317000D01*
X48133000Y-90297000D01*
X48133000Y-90043000D01*
X48133000Y-88849845D01*
X48133000Y-25450155D01*
X48133000Y-24257000D01*
X47040819Y-24257000D01*
X46939181Y-24257000D01*
X45847000Y-24257000D01*
X45847000Y-25450155D01*
X46076890Y-25571476D01*
X46486924Y-25401645D01*
X46915183Y-25011358D01*
X46990000Y-24852046D01*
X47064817Y-25011358D01*
X47493076Y-25401645D01*
X47903110Y-25571476D01*
X48133000Y-25450155D01*
X48133000Y-88849845D01*
X47903110Y-88728524D01*
X47493076Y-88898355D01*
X47064817Y-89288642D01*
X46990000Y-89447953D01*
X46915183Y-89288642D01*
X46486924Y-88898355D01*
X46076890Y-88728524D01*
X45847000Y-88849845D01*
X45847000Y-90043000D01*
X46939181Y-90043000D01*
X47040819Y-90043000D01*
X48133000Y-90043000D01*
X48133000Y-90297000D01*
X47040819Y-90297000D01*
X46939181Y-90297000D01*
X45847000Y-90297000D01*
X45847000Y-90317000D01*
X45593000Y-90317000D01*
X45593000Y-90297000D01*
X45593000Y-90043000D01*
X45593000Y-88849845D01*
X45593000Y-25450155D01*
X45593000Y-24257000D01*
X44500819Y-24257000D01*
X44399181Y-24257000D01*
X43307000Y-24257000D01*
X43307000Y-25450155D01*
X43536890Y-25571476D01*
X43946924Y-25401645D01*
X44375183Y-25011358D01*
X44450000Y-24852046D01*
X44524817Y-25011358D01*
X44953076Y-25401645D01*
X45363110Y-25571476D01*
X45593000Y-25450155D01*
X45593000Y-88849845D01*
X45363110Y-88728524D01*
X44953076Y-88898355D01*
X44524817Y-89288642D01*
X44450000Y-89447953D01*
X44375183Y-89288642D01*
X43946924Y-88898355D01*
X43536890Y-88728524D01*
X43307000Y-88849845D01*
X43307000Y-90043000D01*
X44399181Y-90043000D01*
X44500819Y-90043000D01*
X45593000Y-90043000D01*
X45593000Y-90297000D01*
X44500819Y-90297000D01*
X44399181Y-90297000D01*
X43307000Y-90297000D01*
X43307000Y-90317000D01*
X43053000Y-90317000D01*
X43053000Y-90297000D01*
X43053000Y-90043000D01*
X43053000Y-88849845D01*
X43053000Y-25450155D01*
X43053000Y-24257000D01*
X41960819Y-24257000D01*
X41859181Y-24257000D01*
X40767000Y-24257000D01*
X40767000Y-25450155D01*
X40996890Y-25571476D01*
X41406924Y-25401645D01*
X41835183Y-25011358D01*
X41910000Y-24852046D01*
X41984817Y-25011358D01*
X42413076Y-25401645D01*
X42823110Y-25571476D01*
X43053000Y-25450155D01*
X43053000Y-88849845D01*
X42823110Y-88728524D01*
X42413076Y-88898355D01*
X41984817Y-89288642D01*
X41910000Y-89447953D01*
X41835183Y-89288642D01*
X41406924Y-88898355D01*
X40996890Y-88728524D01*
X40767000Y-88849845D01*
X40767000Y-90043000D01*
X41859181Y-90043000D01*
X41960819Y-90043000D01*
X43053000Y-90043000D01*
X43053000Y-90297000D01*
X41960819Y-90297000D01*
X41859181Y-90297000D01*
X40767000Y-90297000D01*
X40767000Y-90317000D01*
X40513000Y-90317000D01*
X40513000Y-90297000D01*
X40513000Y-90043000D01*
X40513000Y-88849845D01*
X40513000Y-25450155D01*
X40513000Y-24257000D01*
X39426250Y-24257000D01*
X39319181Y-24257000D01*
X38227000Y-24257000D01*
X38227000Y-25456250D01*
X38385750Y-25615000D01*
X38823691Y-25615000D01*
X39076310Y-25615000D01*
X39309699Y-25518327D01*
X39488327Y-25339698D01*
X39575136Y-25130122D01*
X39873076Y-25401645D01*
X40283110Y-25571476D01*
X40513000Y-25450155D01*
X40513000Y-88849845D01*
X40283110Y-88728524D01*
X39873076Y-88898355D01*
X39575136Y-89169877D01*
X39488327Y-88960302D01*
X39309699Y-88781673D01*
X39076310Y-88685000D01*
X38823691Y-88685000D01*
X38385750Y-88685000D01*
X38227000Y-88843750D01*
X38227000Y-90043000D01*
X39319181Y-90043000D01*
X39426250Y-90043000D01*
X40513000Y-90043000D01*
X40513000Y-90297000D01*
X39426250Y-90297000D01*
X39319181Y-90297000D01*
X38227000Y-90297000D01*
X38227000Y-90317000D01*
X37973000Y-90317000D01*
X37973000Y-90297000D01*
X37973000Y-90043000D01*
X37973000Y-88843750D01*
X37973000Y-25456250D01*
X37973000Y-24257000D01*
X36773750Y-24257000D01*
X36615000Y-24415750D01*
X36615000Y-25106309D01*
X36711673Y-25339698D01*
X36890301Y-25518327D01*
X37123690Y-25615000D01*
X37376309Y-25615000D01*
X37814250Y-25615000D01*
X37973000Y-25456250D01*
X37973000Y-88843750D01*
X37814250Y-88685000D01*
X37376309Y-88685000D01*
X37123690Y-88685000D01*
X36890301Y-88781673D01*
X36711673Y-88960302D01*
X36615000Y-89193691D01*
X36615000Y-89884250D01*
X36773750Y-90043000D01*
X37973000Y-90043000D01*
X37973000Y-90297000D01*
X36773750Y-90297000D01*
X36615000Y-90455750D01*
X36615000Y-91146309D01*
X36711673Y-91379698D01*
X36890301Y-91558327D01*
X36971420Y-91591927D01*
X36891574Y-91710216D01*
X36861536Y-91860000D01*
X36861536Y-93560000D01*
X36889722Y-93705274D01*
X36973596Y-93832956D01*
X37100216Y-93918426D01*
X37250000Y-93948464D01*
X38950000Y-93948464D01*
X39095274Y-93920278D01*
X39222956Y-93836404D01*
X39308426Y-93709784D01*
X39338464Y-93560000D01*
X39338464Y-91860000D01*
X39310278Y-91714726D01*
X39229391Y-91591591D01*
X39309699Y-91558327D01*
X39488327Y-91379698D01*
X39575136Y-91170122D01*
X39873076Y-91441645D01*
X40154511Y-91558212D01*
X39769552Y-91815435D01*
X39502704Y-92214800D01*
X39409000Y-92685883D01*
X39409000Y-92734117D01*
X39502704Y-93205200D01*
X39769552Y-93604565D01*
X40168917Y-93871413D01*
X40640000Y-93965117D01*
X41111083Y-93871413D01*
X41510448Y-93604565D01*
X41777296Y-93205200D01*
X41871000Y-92734117D01*
X41871000Y-92685883D01*
X41777296Y-92214800D01*
X41510448Y-91815435D01*
X41125488Y-91558212D01*
X41406924Y-91441645D01*
X41835183Y-91051358D01*
X41910000Y-90892046D01*
X41984817Y-91051358D01*
X42413076Y-91441645D01*
X42694511Y-91558212D01*
X42309552Y-91815435D01*
X42042704Y-92214800D01*
X41949000Y-92685883D01*
X41949000Y-92734117D01*
X42042704Y-93205200D01*
X42309552Y-93604565D01*
X42708917Y-93871413D01*
X43180000Y-93965117D01*
X43651083Y-93871413D01*
X44050448Y-93604565D01*
X44317296Y-93205200D01*
X44411000Y-92734117D01*
X44411000Y-92685883D01*
X44317296Y-92214800D01*
X44050448Y-91815435D01*
X43665488Y-91558212D01*
X43946924Y-91441645D01*
X44375183Y-91051358D01*
X44450000Y-90892046D01*
X44524817Y-91051358D01*
X44953076Y-91441645D01*
X45234511Y-91558212D01*
X44849552Y-91815435D01*
X44582704Y-92214800D01*
X44489000Y-92685883D01*
X44489000Y-92734117D01*
X44582704Y-93205200D01*
X44849552Y-93604565D01*
X45248917Y-93871413D01*
X45720000Y-93965117D01*
X46191083Y-93871413D01*
X46590448Y-93604565D01*
X46857296Y-93205200D01*
X46951000Y-92734117D01*
X46951000Y-92685883D01*
X46857296Y-92214800D01*
X46590448Y-91815435D01*
X46205488Y-91558212D01*
X46486924Y-91441645D01*
X46915183Y-91051358D01*
X46990000Y-90892046D01*
X47064817Y-91051358D01*
X47493076Y-91441645D01*
X47774511Y-91558212D01*
X47389552Y-91815435D01*
X47122704Y-92214800D01*
X47029000Y-92685883D01*
X47029000Y-92734117D01*
X47122704Y-93205200D01*
X47389552Y-93604565D01*
X47788917Y-93871413D01*
X48260000Y-93965117D01*
X48731083Y-93871413D01*
X49130448Y-93604565D01*
X49397296Y-93205200D01*
X49491000Y-92734117D01*
X49491000Y-92685883D01*
X49397296Y-92214800D01*
X49130448Y-91815435D01*
X48745488Y-91558212D01*
X49026924Y-91441645D01*
X49455183Y-91051358D01*
X49530000Y-90892046D01*
X49604817Y-91051358D01*
X50033076Y-91441645D01*
X50314511Y-91558212D01*
X49929552Y-91815435D01*
X49662704Y-92214800D01*
X49569000Y-92685883D01*
X49569000Y-92734117D01*
X49662704Y-93205200D01*
X49929552Y-93604565D01*
X50328917Y-93871413D01*
X50800000Y-93965117D01*
X51271083Y-93871413D01*
X51670448Y-93604565D01*
X51937296Y-93205200D01*
X52031000Y-92734117D01*
X52031000Y-92685883D01*
X51937296Y-92214800D01*
X51670448Y-91815435D01*
X51285488Y-91558212D01*
X51566924Y-91441645D01*
X51995183Y-91051358D01*
X52070000Y-90892046D01*
X52144817Y-91051358D01*
X52573076Y-91441645D01*
X52854511Y-91558212D01*
X52469552Y-91815435D01*
X52202704Y-92214800D01*
X52109000Y-92685883D01*
X52109000Y-92734117D01*
X52202704Y-93205200D01*
X52469552Y-93604565D01*
X52868917Y-93871413D01*
X53340000Y-93965117D01*
X53811083Y-93871413D01*
X54210448Y-93604565D01*
X54477296Y-93205200D01*
X54571000Y-92734117D01*
X54571000Y-92685883D01*
X54477296Y-92214800D01*
X54210448Y-91815435D01*
X53825488Y-91558212D01*
X54106924Y-91441645D01*
X54535183Y-91051358D01*
X54610000Y-90892046D01*
X54684817Y-91051358D01*
X55113076Y-91441645D01*
X55394511Y-91558212D01*
X55009552Y-91815435D01*
X54742704Y-92214800D01*
X54649000Y-92685883D01*
X54649000Y-92734117D01*
X54742704Y-93205200D01*
X55009552Y-93604565D01*
X55408917Y-93871413D01*
X55880000Y-93965117D01*
X56351083Y-93871413D01*
X56750448Y-93604565D01*
X57017296Y-93205200D01*
X57111000Y-92734117D01*
X57111000Y-92685883D01*
X57017296Y-92214800D01*
X56750448Y-91815435D01*
X56365488Y-91558212D01*
X56646924Y-91441645D01*
X57075183Y-91051358D01*
X57150000Y-90892046D01*
X57224817Y-91051358D01*
X57653076Y-91441645D01*
X57934511Y-91558212D01*
X57549552Y-91815435D01*
X57282704Y-92214800D01*
X57189000Y-92685883D01*
X57189000Y-92734117D01*
X57282704Y-93205200D01*
X57549552Y-93604565D01*
X57948917Y-93871413D01*
X58420000Y-93965117D01*
X58891083Y-93871413D01*
X59290448Y-93604565D01*
X59557296Y-93205200D01*
X59651000Y-92734117D01*
X59651000Y-92685883D01*
X59557296Y-92214800D01*
X59290448Y-91815435D01*
X58905488Y-91558212D01*
X59186924Y-91441645D01*
X59615183Y-91051358D01*
X59690000Y-90892046D01*
X59764817Y-91051358D01*
X60193076Y-91441645D01*
X60474511Y-91558212D01*
X60089552Y-91815435D01*
X59822704Y-92214800D01*
X59729000Y-92685883D01*
X59729000Y-92734117D01*
X59822704Y-93205200D01*
X60089552Y-93604565D01*
X60488917Y-93871413D01*
X60960000Y-93965117D01*
X61431083Y-93871413D01*
X61830448Y-93604565D01*
X62097296Y-93205200D01*
X62191000Y-92734117D01*
X62191000Y-92685883D01*
X62097296Y-92214800D01*
X61830448Y-91815435D01*
X61445488Y-91558212D01*
X61726924Y-91441645D01*
X62155183Y-91051358D01*
X62230000Y-90892046D01*
X62304817Y-91051358D01*
X62733076Y-91441645D01*
X63014511Y-91558212D01*
X62629552Y-91815435D01*
X62362704Y-92214800D01*
X62269000Y-92685883D01*
X62269000Y-92734117D01*
X62362704Y-93205200D01*
X62629552Y-93604565D01*
X63028917Y-93871413D01*
X63500000Y-93965117D01*
X63971083Y-93871413D01*
X64370448Y-93604565D01*
X64637296Y-93205200D01*
X64731000Y-92734117D01*
X64731000Y-92685883D01*
X64637296Y-92214800D01*
X64370448Y-91815435D01*
X63985488Y-91558212D01*
X64266924Y-91441645D01*
X64695183Y-91051358D01*
X64770000Y-90892046D01*
X64844817Y-91051358D01*
X65273076Y-91441645D01*
X65554511Y-91558212D01*
X65169552Y-91815435D01*
X64902704Y-92214800D01*
X64809000Y-92685883D01*
X64809000Y-92734117D01*
X64902704Y-93205200D01*
X65169552Y-93604565D01*
X65568917Y-93871413D01*
X66040000Y-93965117D01*
X66511083Y-93871413D01*
X66910448Y-93604565D01*
X67177296Y-93205200D01*
X67271000Y-92734117D01*
X67271000Y-92685883D01*
X67177296Y-92214800D01*
X66910448Y-91815435D01*
X66525488Y-91558212D01*
X66806924Y-91441645D01*
X67235183Y-91051358D01*
X67310000Y-90892046D01*
X67384817Y-91051358D01*
X67813076Y-91441645D01*
X68094511Y-91558212D01*
X67709552Y-91815435D01*
X67442704Y-92214800D01*
X67349000Y-92685883D01*
X67349000Y-92734117D01*
X67442704Y-93205200D01*
X67709552Y-93604565D01*
X68108917Y-93871413D01*
X68580000Y-93965117D01*
X69051083Y-93871413D01*
X69450448Y-93604565D01*
X69717296Y-93205200D01*
X69811000Y-92734117D01*
X69811000Y-92685883D01*
X69717296Y-92214800D01*
X69450448Y-91815435D01*
X69065488Y-91558212D01*
X69346924Y-91441645D01*
X69775183Y-91051358D01*
X69850000Y-90892046D01*
X69924817Y-91051358D01*
X70353076Y-91441645D01*
X70634511Y-91558212D01*
X70249552Y-91815435D01*
X69982704Y-92214800D01*
X69889000Y-92685883D01*
X69889000Y-92734117D01*
X69982704Y-93205200D01*
X70249552Y-93604565D01*
X70648917Y-93871413D01*
X71120000Y-93965117D01*
X71591083Y-93871413D01*
X71990448Y-93604565D01*
X72257296Y-93205200D01*
X72351000Y-92734117D01*
X72351000Y-92685883D01*
X72257296Y-92214800D01*
X71990448Y-91815435D01*
X71605488Y-91558212D01*
X71886924Y-91441645D01*
X72315183Y-91051358D01*
X72390000Y-90892046D01*
X72464817Y-91051358D01*
X72893076Y-91441645D01*
X73174511Y-91558212D01*
X72789552Y-91815435D01*
X72522704Y-92214800D01*
X72429000Y-92685883D01*
X72429000Y-92734117D01*
X72522704Y-93205200D01*
X72789552Y-93604565D01*
X73188917Y-93871413D01*
X73660000Y-93965117D01*
X74131083Y-93871413D01*
X74530448Y-93604565D01*
X74797296Y-93205200D01*
X74891000Y-92734117D01*
X74891000Y-92685883D01*
X74797296Y-92214800D01*
X74530448Y-91815435D01*
X74145488Y-91558212D01*
X74426924Y-91441645D01*
X74855183Y-91051358D01*
X74930000Y-90892046D01*
X75004817Y-91051358D01*
X75433076Y-91441645D01*
X75714511Y-91558212D01*
X75329552Y-91815435D01*
X75062704Y-92214800D01*
X74969000Y-92685883D01*
X74969000Y-92734117D01*
X75062704Y-93205200D01*
X75329552Y-93604565D01*
X75728917Y-93871413D01*
X76200000Y-93965117D01*
X76671083Y-93871413D01*
X77070448Y-93604565D01*
X77337296Y-93205200D01*
X77431000Y-92734117D01*
X77431000Y-92685883D01*
X77337296Y-92214800D01*
X77070448Y-91815435D01*
X76685488Y-91558212D01*
X76966924Y-91441645D01*
X77395183Y-91051358D01*
X77641486Y-90526892D01*
X77641486Y-104569000D01*
X32376438Y-104569000D01*
X32376438Y-94748762D01*
X32376438Y-87128762D01*
X32376438Y-26803762D01*
X32376438Y-18548762D01*
X31991928Y-17618177D01*
X31280568Y-16905574D01*
X30350656Y-16519441D01*
X29343762Y-16518562D01*
X28413177Y-16903072D01*
X27700574Y-17614432D01*
X27314441Y-18544344D01*
X27313562Y-19551238D01*
X27698072Y-20481823D01*
X28409432Y-21194426D01*
X29339344Y-21580559D01*
X30346238Y-21581438D01*
X31276823Y-21196928D01*
X31989426Y-20485568D01*
X32375559Y-19555656D01*
X32376438Y-18548762D01*
X32376438Y-26803762D01*
X31991928Y-25873177D01*
X31280568Y-25160574D01*
X30350656Y-24774441D01*
X29343762Y-24773562D01*
X28413177Y-25158072D01*
X27700574Y-25869432D01*
X27314441Y-26799344D01*
X27313562Y-27806238D01*
X27698072Y-28736823D01*
X28409432Y-29449426D01*
X29339344Y-29835559D01*
X30346238Y-29836438D01*
X31276823Y-29451928D01*
X31989426Y-28740568D01*
X32375559Y-27810656D01*
X32376438Y-26803762D01*
X32376438Y-87128762D01*
X31991928Y-86198177D01*
X31280568Y-85485574D01*
X30350656Y-85099441D01*
X29343762Y-85098562D01*
X28413177Y-85483072D01*
X27700574Y-86194432D01*
X27314441Y-87124344D01*
X27313562Y-88131238D01*
X27698072Y-89061823D01*
X28409432Y-89774426D01*
X29339344Y-90160559D01*
X30346238Y-90161438D01*
X31276823Y-89776928D01*
X31989426Y-89065568D01*
X32375559Y-88135656D01*
X32376438Y-87128762D01*
X32376438Y-94748762D01*
X31991928Y-93818177D01*
X31280568Y-93105574D01*
X30350656Y-92719441D01*
X29343762Y-92718562D01*
X28413177Y-93103072D01*
X27700574Y-93814432D01*
X27314441Y-94744344D01*
X27313562Y-95751238D01*
X27698072Y-96681823D01*
X28409432Y-97394426D01*
X29339344Y-97780559D01*
X30346238Y-97781438D01*
X31276823Y-97396928D01*
X31989426Y-96685568D01*
X32375559Y-95755656D01*
X32376438Y-94748762D01*
X32376438Y-104569000D01*
X18651526Y-104569000D01*
X19484518Y-104224815D01*
X21218725Y-102493632D01*
X22158429Y-100230575D01*
X22160567Y-97780175D01*
X21572792Y-96357650D01*
X21572792Y-77094563D01*
X21572792Y-36094563D01*
X20878213Y-34413553D01*
X19593212Y-33126307D01*
X17913417Y-32428795D01*
X16094563Y-32427208D01*
X14413553Y-33121787D01*
X13126307Y-34406788D01*
X12428795Y-36086583D01*
X12427208Y-37905437D01*
X13121787Y-39586447D01*
X14406788Y-40873693D01*
X16086583Y-41571205D01*
X17905437Y-41572792D01*
X19586447Y-40878213D01*
X20873693Y-39593212D01*
X21571205Y-37913417D01*
X21572792Y-36094563D01*
X21572792Y-77094563D01*
X20878213Y-75413553D01*
X19593212Y-74126307D01*
X17913417Y-73428795D01*
X16094563Y-73427208D01*
X14413553Y-74121787D01*
X13126307Y-75406788D01*
X12428795Y-77086583D01*
X12427208Y-78905437D01*
X13121787Y-80586447D01*
X14406788Y-81873693D01*
X16086583Y-82571205D01*
X17905437Y-82572792D01*
X19586447Y-81878213D01*
X20873693Y-80593212D01*
X21571205Y-78913417D01*
X21572792Y-77094563D01*
X21572792Y-96357650D01*
X21224815Y-95515482D01*
X19493632Y-93781275D01*
X17230575Y-92841571D01*
X14780175Y-92839433D01*
X12515482Y-93775185D01*
X10781275Y-95506368D01*
X10431000Y-96349923D01*
X10431000Y-18651526D01*
X10775185Y-19484518D01*
X12506368Y-21218725D01*
X14769425Y-22158429D01*
X17219825Y-22160567D01*
X19484518Y-21224815D01*
X21218725Y-19493632D01*
X22158429Y-17230575D01*
X22160567Y-14780175D01*
X21224815Y-12515482D01*
X19493632Y-10781275D01*
X18650076Y-10431000D01*
X96348473Y-10431000D01*
X95515482Y-10775185D01*
X93781275Y-12506368D01*
X92841571Y-14769425D01*
X92839433Y-17219825D01*
X93775185Y-19484518D01*
X95506368Y-21218725D01*
X97769425Y-22158429D01*
X100219825Y-22160567D01*
X102484518Y-21224815D01*
X104218725Y-19493632D01*
X104569000Y-18650076D01*
X104569000Y-96348473D01*
X104569000Y-96348473D01*
G37*
X104569000Y-96348473D02*
X104224815Y-95515482D01*
X102493632Y-93781275D01*
X101741464Y-93468947D01*
X101741464Y-43919056D01*
X101334167Y-42933319D01*
X100974261Y-42572784D01*
X100974261Y-26363964D01*
X100954436Y-25606368D01*
X100702657Y-24998520D01*
X100407777Y-24866828D01*
X100228172Y-25046433D01*
X100228172Y-24687223D01*
X100096480Y-24392343D01*
X99388964Y-24120739D01*
X98631368Y-24140564D01*
X98023520Y-24392343D01*
X97891828Y-24687223D01*
X99060000Y-25855395D01*
X100228172Y-24687223D01*
X100228172Y-25046433D01*
X99239605Y-26035000D01*
X100407777Y-27203172D01*
X100702657Y-27071480D01*
X100974261Y-26363964D01*
X100974261Y-42572784D01*
X100711286Y-42309350D01*
X100711286Y-30708037D01*
X100460466Y-30101005D01*
X100228172Y-29868305D01*
X100228172Y-27382777D01*
X99060000Y-26214605D01*
X98880395Y-26394210D01*
X98880395Y-26035000D01*
X97712223Y-24866828D01*
X97417343Y-24998520D01*
X97145739Y-25706036D01*
X97165564Y-26463632D01*
X97417343Y-27071480D01*
X97712223Y-27203172D01*
X98880395Y-26035000D01*
X98880395Y-26394210D01*
X97891828Y-27382777D01*
X98023520Y-27677657D01*
X98731036Y-27949261D01*
X99488632Y-27929436D01*
X100096480Y-27677657D01*
X100228172Y-27382777D01*
X100228172Y-29868305D01*
X99996437Y-29636166D01*
X99389845Y-29384287D01*
X98733037Y-29383714D01*
X98126005Y-29634534D01*
X97661166Y-30098563D01*
X97409287Y-30705155D01*
X97408714Y-31361963D01*
X97659534Y-31968995D01*
X98123563Y-32433834D01*
X98730155Y-32685713D01*
X99386963Y-32686286D01*
X99993995Y-32435466D01*
X100458834Y-31971437D01*
X100710713Y-31364845D01*
X100711286Y-30708037D01*
X100711286Y-42309350D01*
X100580647Y-42178484D01*
X99595623Y-41769466D01*
X98541464Y-41768546D01*
X98541464Y-39319056D01*
X98134167Y-38333319D01*
X97380647Y-37578484D01*
X96395623Y-37169466D01*
X95329056Y-37168536D01*
X94343319Y-37575833D01*
X93588484Y-38329353D01*
X93179466Y-39314377D01*
X93178536Y-40380944D01*
X93585833Y-41366681D01*
X93869234Y-41650576D01*
X93534464Y-41513157D01*
X92366855Y-41516873D01*
X91305383Y-41956549D01*
X91048052Y-42358447D01*
X92960000Y-44270395D01*
X92974142Y-44256252D01*
X93153747Y-44435857D01*
X93139605Y-44450000D01*
X95051553Y-46361948D01*
X95453451Y-46104617D01*
X95896843Y-45024464D01*
X95893127Y-43856855D01*
X95453451Y-42795383D01*
X95051554Y-42538053D01*
X95136915Y-42452692D01*
X95324377Y-42530534D01*
X96390944Y-42531464D01*
X97376681Y-42124167D01*
X98131516Y-41370647D01*
X98540534Y-40385623D01*
X98541464Y-39319056D01*
X98541464Y-41768546D01*
X98529056Y-41768536D01*
X97543319Y-42175833D01*
X96788484Y-42929353D01*
X96379466Y-43914377D01*
X96378536Y-44980944D01*
X96785833Y-45966681D01*
X97539353Y-46721516D01*
X98524377Y-47130534D01*
X99590944Y-47131464D01*
X100576681Y-46724167D01*
X101331516Y-45970647D01*
X101740534Y-44985623D01*
X101741464Y-43919056D01*
X101741464Y-93468947D01*
X100230575Y-92841571D01*
X97780175Y-92839433D01*
X97531438Y-92942209D01*
X97531438Y-84498762D01*
X97531438Y-74498762D01*
X97531438Y-64498762D01*
X97531438Y-54498762D01*
X97146928Y-53568177D01*
X96435568Y-52855574D01*
X95896843Y-52631875D01*
X95505656Y-52469441D01*
X94871948Y-52468887D01*
X94871948Y-46541553D01*
X92960000Y-44629605D01*
X92780395Y-44809210D01*
X92780395Y-44450000D01*
X90868447Y-42538052D01*
X90466549Y-42795383D01*
X90023157Y-43875536D01*
X90026873Y-45043145D01*
X90466549Y-46104617D01*
X90868447Y-46361948D01*
X92780395Y-44450000D01*
X92780395Y-44809210D01*
X91048052Y-46541553D01*
X91305383Y-46943451D01*
X92385536Y-47386843D01*
X93553145Y-47383127D01*
X94614617Y-46943451D01*
X94871948Y-46541553D01*
X94871948Y-52468887D01*
X94498762Y-52468562D01*
X93568177Y-52853072D01*
X92855574Y-53564432D01*
X92469441Y-54494344D01*
X92468562Y-55501238D01*
X92853072Y-56431823D01*
X93564432Y-57144426D01*
X94494344Y-57530559D01*
X95501238Y-57531438D01*
X96431823Y-57146928D01*
X97144426Y-56435568D01*
X97530559Y-55505656D01*
X97531438Y-54498762D01*
X97531438Y-64498762D01*
X97146928Y-63568177D01*
X96435568Y-62855574D01*
X95505656Y-62469441D01*
X94498762Y-62468562D01*
X93568177Y-62853072D01*
X92855574Y-63564432D01*
X92469441Y-64494344D01*
X92468562Y-65501238D01*
X92853072Y-66431823D01*
X93564432Y-67144426D01*
X94494344Y-67530559D01*
X95501238Y-67531438D01*
X96431823Y-67146928D01*
X97144426Y-66435568D01*
X97530559Y-65505656D01*
X97531438Y-64498762D01*
X97531438Y-74498762D01*
X97146928Y-73568177D01*
X96435568Y-72855574D01*
X95505656Y-72469441D01*
X94498762Y-72468562D01*
X93568177Y-72853072D01*
X92855574Y-73564432D01*
X92469441Y-74494344D01*
X92468562Y-75501238D01*
X92853072Y-76431823D01*
X93564432Y-77144426D01*
X94494344Y-77530559D01*
X95501238Y-77531438D01*
X96431823Y-77146928D01*
X97144426Y-76435568D01*
X97530559Y-75505656D01*
X97531438Y-74498762D01*
X97531438Y-84498762D01*
X97146928Y-83568177D01*
X96435568Y-82855574D01*
X95505656Y-82469441D01*
X94498762Y-82468562D01*
X93568177Y-82853072D01*
X92855574Y-83564432D01*
X92469441Y-84494344D01*
X92468562Y-85501238D01*
X92853072Y-86431823D01*
X93564432Y-87144426D01*
X94494344Y-87530559D01*
X95501238Y-87531438D01*
X96431823Y-87146928D01*
X97144426Y-86435568D01*
X97530559Y-85505656D01*
X97531438Y-84498762D01*
X97531438Y-92942209D01*
X95515482Y-93775185D01*
X93781275Y-95506368D01*
X92841571Y-97769425D01*
X92839433Y-100219825D01*
X93775185Y-102484518D01*
X95506368Y-104218725D01*
X96349923Y-104569000D01*
X87621438Y-104569000D01*
X87621438Y-26803762D01*
X87621438Y-18548762D01*
X87236928Y-17618177D01*
X86525568Y-16905574D01*
X85595656Y-16519441D01*
X84588762Y-16518562D01*
X83658177Y-16903072D01*
X82945574Y-17614432D01*
X82559441Y-18544344D01*
X82558562Y-19551238D01*
X82943072Y-20481823D01*
X83654432Y-21194426D01*
X84584344Y-21580559D01*
X85591238Y-21581438D01*
X86521823Y-21196928D01*
X87234426Y-20485568D01*
X87620559Y-19555656D01*
X87621438Y-18548762D01*
X87621438Y-26803762D01*
X87236928Y-25873177D01*
X86525568Y-25160574D01*
X85595656Y-24774441D01*
X84588762Y-24773562D01*
X83658177Y-25158072D01*
X82945574Y-25869432D01*
X82559441Y-26799344D01*
X82558562Y-27806238D01*
X82943072Y-28736823D01*
X83654432Y-29449426D01*
X84584344Y-29835559D01*
X85591238Y-29836438D01*
X86521823Y-29451928D01*
X87234426Y-28740568D01*
X87620559Y-27810656D01*
X87621438Y-26803762D01*
X87621438Y-104569000D01*
X87531438Y-104569000D01*
X87531438Y-94498762D01*
X87531438Y-84498762D01*
X87146928Y-83568177D01*
X86435568Y-82855574D01*
X85505656Y-82469441D01*
X84498762Y-82468562D01*
X83568177Y-82853072D01*
X82855574Y-83564432D01*
X82469441Y-84494344D01*
X82468562Y-85501238D01*
X82853072Y-86431823D01*
X83564432Y-87144426D01*
X84494344Y-87530559D01*
X85501238Y-87531438D01*
X86431823Y-87146928D01*
X87144426Y-86435568D01*
X87530559Y-85505656D01*
X87531438Y-84498762D01*
X87531438Y-94498762D01*
X87146928Y-93568177D01*
X86435568Y-92855574D01*
X85505656Y-92469441D01*
X84498762Y-92468562D01*
X83568177Y-92853072D01*
X82855574Y-93564432D01*
X82469441Y-94494344D01*
X82468562Y-95501238D01*
X82853072Y-96431823D01*
X83564432Y-97144426D01*
X84494344Y-97530559D01*
X85501238Y-97531438D01*
X86431823Y-97146928D01*
X87144426Y-96435568D01*
X87530559Y-95505656D01*
X87531438Y-94498762D01*
X87531438Y-104569000D01*
X81265117Y-104569000D01*
X81265117Y-78105000D01*
X81171413Y-77633917D01*
X80904565Y-77234552D01*
X80505200Y-76967704D01*
X80034117Y-76874000D01*
X79985883Y-76874000D01*
X79514800Y-76967704D01*
X79115435Y-77234552D01*
X78858212Y-77619511D01*
X78741645Y-77338076D01*
X78351358Y-76909817D01*
X78192046Y-76835000D01*
X78351358Y-76760183D01*
X78741645Y-76331924D01*
X78858212Y-76050488D01*
X79115435Y-76435448D01*
X79514800Y-76702296D01*
X79985883Y-76796000D01*
X80034117Y-76796000D01*
X80505200Y-76702296D01*
X80904565Y-76435448D01*
X81171413Y-76036083D01*
X81265117Y-75565000D01*
X81171413Y-75093917D01*
X80904565Y-74694552D01*
X80505200Y-74427704D01*
X80034117Y-74334000D01*
X79985883Y-74334000D01*
X79514800Y-74427704D01*
X79115435Y-74694552D01*
X78858212Y-75079511D01*
X78741645Y-74798076D01*
X78351358Y-74369817D01*
X78192046Y-74295000D01*
X78351358Y-74220183D01*
X78741645Y-73791924D01*
X78858212Y-73510488D01*
X79115435Y-73895448D01*
X79514800Y-74162296D01*
X79985883Y-74256000D01*
X80034117Y-74256000D01*
X80505200Y-74162296D01*
X80904565Y-73895448D01*
X81171413Y-73496083D01*
X81265117Y-73025000D01*
X81171413Y-72553917D01*
X80904565Y-72154552D01*
X80505200Y-71887704D01*
X80034117Y-71794000D01*
X79985883Y-71794000D01*
X79514800Y-71887704D01*
X79115435Y-72154552D01*
X78858212Y-72539511D01*
X78741645Y-72258076D01*
X78351358Y-71829817D01*
X78192046Y-71755000D01*
X78351358Y-71680183D01*
X78741645Y-71251924D01*
X78858212Y-70970488D01*
X79115435Y-71355448D01*
X79514800Y-71622296D01*
X79985883Y-71716000D01*
X80034117Y-71716000D01*
X80505200Y-71622296D01*
X80904565Y-71355448D01*
X81171413Y-70956083D01*
X81265117Y-70485000D01*
X81171413Y-70013917D01*
X80904565Y-69614552D01*
X80505200Y-69347704D01*
X80034117Y-69254000D01*
X79985883Y-69254000D01*
X79514800Y-69347704D01*
X79115435Y-69614552D01*
X78858212Y-69999511D01*
X78741645Y-69718076D01*
X78351358Y-69289817D01*
X78192046Y-69215000D01*
X78351358Y-69140183D01*
X78741645Y-68711924D01*
X78858212Y-68430488D01*
X79115435Y-68815448D01*
X79514800Y-69082296D01*
X79985883Y-69176000D01*
X80034117Y-69176000D01*
X80505200Y-69082296D01*
X80904565Y-68815448D01*
X81171413Y-68416083D01*
X81265117Y-67945000D01*
X81171413Y-67473917D01*
X80904565Y-67074552D01*
X80505200Y-66807704D01*
X80034117Y-66714000D01*
X79985883Y-66714000D01*
X79514800Y-66807704D01*
X79115435Y-67074552D01*
X78858212Y-67459511D01*
X78741645Y-67178076D01*
X78351358Y-66749817D01*
X78192046Y-66675000D01*
X78351358Y-66600183D01*
X78741645Y-66171924D01*
X78858212Y-65890488D01*
X79115435Y-66275448D01*
X79514800Y-66542296D01*
X79985883Y-66636000D01*
X80034117Y-66636000D01*
X80505200Y-66542296D01*
X80904565Y-66275448D01*
X81171413Y-65876083D01*
X81265117Y-65405000D01*
X81171413Y-64933917D01*
X80904565Y-64534552D01*
X80505200Y-64267704D01*
X80034117Y-64174000D01*
X79985883Y-64174000D01*
X79514800Y-64267704D01*
X79115435Y-64534552D01*
X78858212Y-64919511D01*
X78741645Y-64638076D01*
X78351358Y-64209817D01*
X78192046Y-64135000D01*
X78351358Y-64060183D01*
X78741645Y-63631924D01*
X78858212Y-63350488D01*
X79115435Y-63735448D01*
X79514800Y-64002296D01*
X79985883Y-64096000D01*
X80034117Y-64096000D01*
X80505200Y-64002296D01*
X80904565Y-63735448D01*
X81171413Y-63336083D01*
X81265117Y-62865000D01*
X81171413Y-62393917D01*
X80904565Y-61994552D01*
X80505200Y-61727704D01*
X80034117Y-61634000D01*
X79985883Y-61634000D01*
X79514800Y-61727704D01*
X79115435Y-61994552D01*
X78858212Y-62379511D01*
X78741645Y-62098076D01*
X78351358Y-61669817D01*
X78192046Y-61595000D01*
X78351358Y-61520183D01*
X78741645Y-61091924D01*
X78858212Y-60810488D01*
X79115435Y-61195448D01*
X79514800Y-61462296D01*
X79985883Y-61556000D01*
X80034117Y-61556000D01*
X80505200Y-61462296D01*
X80904565Y-61195448D01*
X81171413Y-60796083D01*
X81265117Y-60325000D01*
X81171413Y-59853917D01*
X80904565Y-59454552D01*
X80505200Y-59187704D01*
X80034117Y-59094000D01*
X79985883Y-59094000D01*
X79514800Y-59187704D01*
X79115435Y-59454552D01*
X78858212Y-59839511D01*
X78741645Y-59558076D01*
X78351358Y-59129817D01*
X78192046Y-59055000D01*
X78351358Y-58980183D01*
X78741645Y-58551924D01*
X78858212Y-58270488D01*
X79115435Y-58655448D01*
X79514800Y-58922296D01*
X79985883Y-59016000D01*
X80034117Y-59016000D01*
X80505200Y-58922296D01*
X80904565Y-58655448D01*
X81171413Y-58256083D01*
X81265117Y-57785000D01*
X81171413Y-57313917D01*
X80904565Y-56914552D01*
X80505200Y-56647704D01*
X80034117Y-56554000D01*
X79985883Y-56554000D01*
X79514800Y-56647704D01*
X79115435Y-56914552D01*
X78858212Y-57299511D01*
X78741645Y-57018076D01*
X78351358Y-56589817D01*
X78192046Y-56515000D01*
X78351358Y-56440183D01*
X78741645Y-56011924D01*
X78858212Y-55730488D01*
X79115435Y-56115448D01*
X79514800Y-56382296D01*
X79985883Y-56476000D01*
X80034117Y-56476000D01*
X80505200Y-56382296D01*
X80904565Y-56115448D01*
X81171413Y-55716083D01*
X81265117Y-55245000D01*
X81171413Y-54773917D01*
X80904565Y-54374552D01*
X80505200Y-54107704D01*
X80034117Y-54014000D01*
X79985883Y-54014000D01*
X79514800Y-54107704D01*
X79115435Y-54374552D01*
X78858212Y-54759511D01*
X78741645Y-54478076D01*
X78351358Y-54049817D01*
X78192046Y-53975000D01*
X78351358Y-53900183D01*
X78741645Y-53471924D01*
X78858212Y-53190488D01*
X79115435Y-53575448D01*
X79514800Y-53842296D01*
X79985883Y-53936000D01*
X80034117Y-53936000D01*
X80505200Y-53842296D01*
X80904565Y-53575448D01*
X81171413Y-53176083D01*
X81265117Y-52705000D01*
X81171413Y-52233917D01*
X80904565Y-51834552D01*
X80505200Y-51567704D01*
X80034117Y-51474000D01*
X79985883Y-51474000D01*
X79514800Y-51567704D01*
X79115435Y-51834552D01*
X78858212Y-52219511D01*
X78741645Y-51938076D01*
X78351358Y-51509817D01*
X78192046Y-51435000D01*
X78351358Y-51360183D01*
X78741645Y-50931924D01*
X78858212Y-50650488D01*
X79115435Y-51035448D01*
X79514800Y-51302296D01*
X79985883Y-51396000D01*
X80034117Y-51396000D01*
X80505200Y-51302296D01*
X80904565Y-51035448D01*
X81171413Y-50636083D01*
X81265117Y-50165000D01*
X81171413Y-49693917D01*
X80904565Y-49294552D01*
X80505200Y-49027704D01*
X80034117Y-48934000D01*
X79985883Y-48934000D01*
X79514800Y-49027704D01*
X79115435Y-49294552D01*
X78858212Y-49679511D01*
X78741645Y-49398076D01*
X78351358Y-48969817D01*
X78192046Y-48895000D01*
X78351358Y-48820183D01*
X78741645Y-48391924D01*
X78858212Y-48110488D01*
X79115435Y-48495448D01*
X79514800Y-48762296D01*
X79985883Y-48856000D01*
X80034117Y-48856000D01*
X80505200Y-48762296D01*
X80904565Y-48495448D01*
X81171413Y-48096083D01*
X81265117Y-47625000D01*
X81171413Y-47153917D01*
X80904565Y-46754552D01*
X80505200Y-46487704D01*
X80034117Y-46394000D01*
X79985883Y-46394000D01*
X79514800Y-46487704D01*
X79115435Y-46754552D01*
X78858212Y-47139511D01*
X78741645Y-46858076D01*
X78351358Y-46429817D01*
X78192046Y-46355000D01*
X78351358Y-46280183D01*
X78741645Y-45851924D01*
X78858212Y-45570488D01*
X79115435Y-45955448D01*
X79514800Y-46222296D01*
X79985883Y-46316000D01*
X80034117Y-46316000D01*
X80505200Y-46222296D01*
X80904565Y-45955448D01*
X81171413Y-45556083D01*
X81265117Y-45085000D01*
X81171413Y-44613917D01*
X80904565Y-44214552D01*
X80505200Y-43947704D01*
X80034117Y-43854000D01*
X79985883Y-43854000D01*
X79514800Y-43947704D01*
X79115435Y-44214552D01*
X78858212Y-44599511D01*
X78741645Y-44318076D01*
X78351358Y-43889817D01*
X78192046Y-43815000D01*
X78351358Y-43740183D01*
X78741645Y-43311924D01*
X78858212Y-43030488D01*
X79115435Y-43415448D01*
X79514800Y-43682296D01*
X79985883Y-43776000D01*
X80034117Y-43776000D01*
X80505200Y-43682296D01*
X80904565Y-43415448D01*
X81171413Y-43016083D01*
X81265117Y-42545000D01*
X81171413Y-42073917D01*
X80904565Y-41674552D01*
X80505200Y-41407704D01*
X80034117Y-41314000D01*
X79985883Y-41314000D01*
X79514800Y-41407704D01*
X79115435Y-41674552D01*
X78858212Y-42059511D01*
X78741645Y-41778076D01*
X78470122Y-41480136D01*
X78679698Y-41393327D01*
X78858327Y-41214699D01*
X78891927Y-41133579D01*
X79010216Y-41213426D01*
X79160000Y-41243464D01*
X80860000Y-41243464D01*
X81005274Y-41215278D01*
X81132956Y-41131404D01*
X81218426Y-41004784D01*
X81248464Y-40855000D01*
X81248464Y-39155000D01*
X81220278Y-39009726D01*
X81136404Y-38882044D01*
X81009784Y-38796574D01*
X80860000Y-38766536D01*
X79160000Y-38766536D01*
X79014726Y-38794722D01*
X78891591Y-38875608D01*
X78858327Y-38795301D01*
X78679698Y-38616673D01*
X78446309Y-38520000D01*
X77755750Y-38520000D01*
X77641486Y-38634264D01*
X77641486Y-24486892D01*
X77641486Y-23773108D01*
X77395183Y-23248642D01*
X76966924Y-22858355D01*
X76685488Y-22741787D01*
X77070448Y-22484565D01*
X77337296Y-22085200D01*
X77431000Y-21614117D01*
X77431000Y-21565883D01*
X77337296Y-21094800D01*
X77070448Y-20695435D01*
X76671083Y-20428587D01*
X76200000Y-20334883D01*
X75728917Y-20428587D01*
X75329552Y-20695435D01*
X75062704Y-21094800D01*
X74969000Y-21565883D01*
X74969000Y-21614117D01*
X75062704Y-22085200D01*
X75329552Y-22484565D01*
X75714511Y-22741787D01*
X75433076Y-22858355D01*
X75004817Y-23248642D01*
X74930000Y-23407953D01*
X74855183Y-23248642D01*
X74426924Y-22858355D01*
X74145488Y-22741787D01*
X74530448Y-22484565D01*
X74797296Y-22085200D01*
X74891000Y-21614117D01*
X74891000Y-21565883D01*
X74797296Y-21094800D01*
X74530448Y-20695435D01*
X74131083Y-20428587D01*
X73660000Y-20334883D01*
X73188917Y-20428587D01*
X72789552Y-20695435D01*
X72522704Y-21094800D01*
X72429000Y-21565883D01*
X72429000Y-21614117D01*
X72522704Y-22085200D01*
X72789552Y-22484565D01*
X73174511Y-22741787D01*
X72893076Y-22858355D01*
X72464817Y-23248642D01*
X72390000Y-23407953D01*
X72315183Y-23248642D01*
X71886924Y-22858355D01*
X71605488Y-22741787D01*
X71990448Y-22484565D01*
X72257296Y-22085200D01*
X72351000Y-21614117D01*
X72351000Y-21565883D01*
X72257296Y-21094800D01*
X71990448Y-20695435D01*
X71591083Y-20428587D01*
X71120000Y-20334883D01*
X70648917Y-20428587D01*
X70249552Y-20695435D01*
X69982704Y-21094800D01*
X69889000Y-21565883D01*
X69889000Y-21614117D01*
X69982704Y-22085200D01*
X70249552Y-22484565D01*
X70634511Y-22741787D01*
X70353076Y-22858355D01*
X69924817Y-23248642D01*
X69850000Y-23407953D01*
X69775183Y-23248642D01*
X69346924Y-22858355D01*
X69065488Y-22741787D01*
X69450448Y-22484565D01*
X69717296Y-22085200D01*
X69811000Y-21614117D01*
X69811000Y-21565883D01*
X69717296Y-21094800D01*
X69450448Y-20695435D01*
X69051083Y-20428587D01*
X68580000Y-20334883D01*
X68108917Y-20428587D01*
X67709552Y-20695435D01*
X67442704Y-21094800D01*
X67349000Y-21565883D01*
X67349000Y-21614117D01*
X67442704Y-22085200D01*
X67709552Y-22484565D01*
X68094511Y-22741787D01*
X67813076Y-22858355D01*
X67384817Y-23248642D01*
X67310000Y-23407953D01*
X67235183Y-23248642D01*
X66806924Y-22858355D01*
X66525488Y-22741787D01*
X66910448Y-22484565D01*
X67177296Y-22085200D01*
X67271000Y-21614117D01*
X67271000Y-21565883D01*
X67177296Y-21094800D01*
X66910448Y-20695435D01*
X66511083Y-20428587D01*
X66040000Y-20334883D01*
X65568917Y-20428587D01*
X65169552Y-20695435D01*
X64902704Y-21094800D01*
X64809000Y-21565883D01*
X64809000Y-21614117D01*
X64902704Y-22085200D01*
X65169552Y-22484565D01*
X65554511Y-22741787D01*
X65273076Y-22858355D01*
X64844817Y-23248642D01*
X64770000Y-23407953D01*
X64695183Y-23248642D01*
X64266924Y-22858355D01*
X63985488Y-22741787D01*
X64370448Y-22484565D01*
X64637296Y-22085200D01*
X64731000Y-21614117D01*
X64731000Y-21565883D01*
X64637296Y-21094800D01*
X64370448Y-20695435D01*
X63971083Y-20428587D01*
X63500000Y-20334883D01*
X63028917Y-20428587D01*
X62629552Y-20695435D01*
X62362704Y-21094800D01*
X62269000Y-21565883D01*
X62269000Y-21614117D01*
X62362704Y-22085200D01*
X62629552Y-22484565D01*
X63014511Y-22741787D01*
X62733076Y-22858355D01*
X62304817Y-23248642D01*
X62230000Y-23407953D01*
X62155183Y-23248642D01*
X61726924Y-22858355D01*
X61445488Y-22741787D01*
X61830448Y-22484565D01*
X62097296Y-22085200D01*
X62191000Y-21614117D01*
X62191000Y-21565883D01*
X62097296Y-21094800D01*
X61830448Y-20695435D01*
X61431083Y-20428587D01*
X60960000Y-20334883D01*
X60488917Y-20428587D01*
X60089552Y-20695435D01*
X59822704Y-21094800D01*
X59729000Y-21565883D01*
X59729000Y-21614117D01*
X59822704Y-22085200D01*
X60089552Y-22484565D01*
X60474511Y-22741787D01*
X60193076Y-22858355D01*
X59764817Y-23248642D01*
X59690000Y-23407953D01*
X59615183Y-23248642D01*
X59186924Y-22858355D01*
X58905488Y-22741787D01*
X59290448Y-22484565D01*
X59557296Y-22085200D01*
X59651000Y-21614117D01*
X59651000Y-21565883D01*
X59557296Y-21094800D01*
X59290448Y-20695435D01*
X58891083Y-20428587D01*
X58420000Y-20334883D01*
X57948917Y-20428587D01*
X57549552Y-20695435D01*
X57282704Y-21094800D01*
X57189000Y-21565883D01*
X57189000Y-21614117D01*
X57282704Y-22085200D01*
X57549552Y-22484565D01*
X57934511Y-22741787D01*
X57653076Y-22858355D01*
X57224817Y-23248642D01*
X57150000Y-23407953D01*
X57075183Y-23248642D01*
X56646924Y-22858355D01*
X56365488Y-22741787D01*
X56750448Y-22484565D01*
X57017296Y-22085200D01*
X57111000Y-21614117D01*
X57111000Y-21565883D01*
X57017296Y-21094800D01*
X56750448Y-20695435D01*
X56351083Y-20428587D01*
X55880000Y-20334883D01*
X55408917Y-20428587D01*
X55009552Y-20695435D01*
X54742704Y-21094800D01*
X54649000Y-21565883D01*
X54649000Y-21614117D01*
X54742704Y-22085200D01*
X55009552Y-22484565D01*
X55394511Y-22741787D01*
X55113076Y-22858355D01*
X54684817Y-23248642D01*
X54610000Y-23407953D01*
X54535183Y-23248642D01*
X54106924Y-22858355D01*
X53825488Y-22741787D01*
X54210448Y-22484565D01*
X54477296Y-22085200D01*
X54571000Y-21614117D01*
X54571000Y-21565883D01*
X54477296Y-21094800D01*
X54210448Y-20695435D01*
X53811083Y-20428587D01*
X53340000Y-20334883D01*
X52868917Y-20428587D01*
X52469552Y-20695435D01*
X52202704Y-21094800D01*
X52109000Y-21565883D01*
X52109000Y-21614117D01*
X52202704Y-22085200D01*
X52469552Y-22484565D01*
X52854511Y-22741787D01*
X52573076Y-22858355D01*
X52144817Y-23248642D01*
X52070000Y-23407953D01*
X51995183Y-23248642D01*
X51566924Y-22858355D01*
X51285488Y-22741787D01*
X51670448Y-22484565D01*
X51937296Y-22085200D01*
X52031000Y-21614117D01*
X52031000Y-21565883D01*
X51937296Y-21094800D01*
X51670448Y-20695435D01*
X51271083Y-20428587D01*
X50800000Y-20334883D01*
X50328917Y-20428587D01*
X49929552Y-20695435D01*
X49662704Y-21094800D01*
X49569000Y-21565883D01*
X49569000Y-21614117D01*
X49662704Y-22085200D01*
X49929552Y-22484565D01*
X50314511Y-22741787D01*
X50033076Y-22858355D01*
X49604817Y-23248642D01*
X49530000Y-23407953D01*
X49455183Y-23248642D01*
X49026924Y-22858355D01*
X48745488Y-22741787D01*
X49130448Y-22484565D01*
X49397296Y-22085200D01*
X49491000Y-21614117D01*
X49491000Y-21565883D01*
X49397296Y-21094800D01*
X49130448Y-20695435D01*
X48731083Y-20428587D01*
X48260000Y-20334883D01*
X47788917Y-20428587D01*
X47389552Y-20695435D01*
X47122704Y-21094800D01*
X47029000Y-21565883D01*
X47029000Y-21614117D01*
X47122704Y-22085200D01*
X47389552Y-22484565D01*
X47774511Y-22741787D01*
X47493076Y-22858355D01*
X47064817Y-23248642D01*
X46990000Y-23407953D01*
X46915183Y-23248642D01*
X46486924Y-22858355D01*
X46205488Y-22741787D01*
X46590448Y-22484565D01*
X46857296Y-22085200D01*
X46951000Y-21614117D01*
X46951000Y-21565883D01*
X46857296Y-21094800D01*
X46590448Y-20695435D01*
X46191083Y-20428587D01*
X45720000Y-20334883D01*
X45248917Y-20428587D01*
X44849552Y-20695435D01*
X44582704Y-21094800D01*
X44489000Y-21565883D01*
X44489000Y-21614117D01*
X44582704Y-22085200D01*
X44849552Y-22484565D01*
X45234511Y-22741787D01*
X44953076Y-22858355D01*
X44524817Y-23248642D01*
X44450000Y-23407953D01*
X44375183Y-23248642D01*
X43946924Y-22858355D01*
X43665488Y-22741787D01*
X44050448Y-22484565D01*
X44317296Y-22085200D01*
X44411000Y-21614117D01*
X44411000Y-21565883D01*
X44317296Y-21094800D01*
X44050448Y-20695435D01*
X43651083Y-20428587D01*
X43180000Y-20334883D01*
X42708917Y-20428587D01*
X42309552Y-20695435D01*
X42042704Y-21094800D01*
X41949000Y-21565883D01*
X41949000Y-21614117D01*
X42042704Y-22085200D01*
X42309552Y-22484565D01*
X42694511Y-22741787D01*
X42413076Y-22858355D01*
X41984817Y-23248642D01*
X41910000Y-23407953D01*
X41835183Y-23248642D01*
X41406924Y-22858355D01*
X41125488Y-22741787D01*
X41510448Y-22484565D01*
X41777296Y-22085200D01*
X41871000Y-21614117D01*
X41871000Y-21565883D01*
X41777296Y-21094800D01*
X41510448Y-20695435D01*
X41111083Y-20428587D01*
X40640000Y-20334883D01*
X40168917Y-20428587D01*
X39769552Y-20695435D01*
X39502704Y-21094800D01*
X39409000Y-21565883D01*
X39409000Y-21614117D01*
X39502704Y-22085200D01*
X39769552Y-22484565D01*
X40154511Y-22741787D01*
X39873076Y-22858355D01*
X39575136Y-23129877D01*
X39488327Y-22920302D01*
X39309699Y-22741673D01*
X39228579Y-22708072D01*
X39308426Y-22589784D01*
X39338464Y-22440000D01*
X39338464Y-20740000D01*
X39310278Y-20594726D01*
X39226404Y-20467044D01*
X39099784Y-20381574D01*
X38950000Y-20351536D01*
X37250000Y-20351536D01*
X37104726Y-20379722D01*
X36977044Y-20463596D01*
X36891574Y-20590216D01*
X36861536Y-20740000D01*
X36861536Y-22440000D01*
X36889722Y-22585274D01*
X36970608Y-22708408D01*
X36890301Y-22741673D01*
X36711673Y-22920302D01*
X36615000Y-23153691D01*
X36615000Y-23844250D01*
X36773750Y-24003000D01*
X37973000Y-24003000D01*
X37973000Y-23983000D01*
X38227000Y-23983000D01*
X38227000Y-24003000D01*
X39319181Y-24003000D01*
X39426250Y-24003000D01*
X40513000Y-24003000D01*
X40513000Y-23983000D01*
X40767000Y-23983000D01*
X40767000Y-24003000D01*
X41859181Y-24003000D01*
X41960819Y-24003000D01*
X43053000Y-24003000D01*
X43053000Y-23983000D01*
X43307000Y-23983000D01*
X43307000Y-24003000D01*
X44399181Y-24003000D01*
X44500819Y-24003000D01*
X45593000Y-24003000D01*
X45593000Y-23983000D01*
X45847000Y-23983000D01*
X45847000Y-24003000D01*
X46939181Y-24003000D01*
X47040819Y-24003000D01*
X48133000Y-24003000D01*
X48133000Y-23983000D01*
X48387000Y-23983000D01*
X48387000Y-24003000D01*
X49479181Y-24003000D01*
X49580819Y-24003000D01*
X50673000Y-24003000D01*
X50673000Y-23983000D01*
X50927000Y-23983000D01*
X50927000Y-24003000D01*
X52019181Y-24003000D01*
X52120819Y-24003000D01*
X53213000Y-24003000D01*
X53213000Y-23983000D01*
X53467000Y-23983000D01*
X53467000Y-24003000D01*
X54559181Y-24003000D01*
X54660819Y-24003000D01*
X55753000Y-24003000D01*
X55753000Y-23983000D01*
X56007000Y-23983000D01*
X56007000Y-24003000D01*
X57099181Y-24003000D01*
X57200819Y-24003000D01*
X58293000Y-24003000D01*
X58293000Y-23983000D01*
X58547000Y-23983000D01*
X58547000Y-24003000D01*
X59639181Y-24003000D01*
X59740819Y-24003000D01*
X60833000Y-24003000D01*
X60833000Y-23983000D01*
X61087000Y-23983000D01*
X61087000Y-24003000D01*
X62179181Y-24003000D01*
X62280819Y-24003000D01*
X63373000Y-24003000D01*
X63373000Y-23983000D01*
X63627000Y-23983000D01*
X63627000Y-24003000D01*
X64719181Y-24003000D01*
X64820819Y-24003000D01*
X65913000Y-24003000D01*
X65913000Y-23983000D01*
X66167000Y-23983000D01*
X66167000Y-24003000D01*
X67259181Y-24003000D01*
X67360819Y-24003000D01*
X68453000Y-24003000D01*
X68453000Y-23983000D01*
X68707000Y-23983000D01*
X68707000Y-24003000D01*
X69799181Y-24003000D01*
X69900819Y-24003000D01*
X70993000Y-24003000D01*
X70993000Y-23983000D01*
X71247000Y-23983000D01*
X71247000Y-24003000D01*
X72339181Y-24003000D01*
X72440819Y-24003000D01*
X73533000Y-24003000D01*
X73533000Y-23983000D01*
X73787000Y-23983000D01*
X73787000Y-24003000D01*
X74879181Y-24003000D01*
X74980819Y-24003000D01*
X76073000Y-24003000D01*
X76073000Y-23983000D01*
X76327000Y-23983000D01*
X76327000Y-24003000D01*
X77520819Y-24003000D01*
X77641486Y-23773108D01*
X77641486Y-24486892D01*
X77520819Y-24257000D01*
X76327000Y-24257000D01*
X76327000Y-25450155D01*
X76556890Y-25571476D01*
X76966924Y-25401645D01*
X77395183Y-25011358D01*
X77641486Y-24486892D01*
X77641486Y-38634264D01*
X77597000Y-38678750D01*
X77597000Y-39878000D01*
X77617000Y-39878000D01*
X77617000Y-40132000D01*
X77597000Y-40132000D01*
X77597000Y-41224181D01*
X77597000Y-41331250D01*
X77597000Y-42418000D01*
X77617000Y-42418000D01*
X77617000Y-42672000D01*
X77597000Y-42672000D01*
X77597000Y-43764181D01*
X77597000Y-43865819D01*
X77597000Y-44958000D01*
X77617000Y-44958000D01*
X77617000Y-45212000D01*
X77597000Y-45212000D01*
X77597000Y-46304181D01*
X77597000Y-46405819D01*
X77597000Y-47498000D01*
X77617000Y-47498000D01*
X77617000Y-47752000D01*
X77597000Y-47752000D01*
X77597000Y-48844181D01*
X77597000Y-48945819D01*
X77597000Y-50038000D01*
X77617000Y-50038000D01*
X77617000Y-50292000D01*
X77597000Y-50292000D01*
X77597000Y-51384181D01*
X77597000Y-51485819D01*
X77597000Y-52578000D01*
X77617000Y-52578000D01*
X77617000Y-52832000D01*
X77597000Y-52832000D01*
X77597000Y-53924181D01*
X77597000Y-54025819D01*
X77597000Y-55118000D01*
X77617000Y-55118000D01*
X77617000Y-55372000D01*
X77597000Y-55372000D01*
X77597000Y-56464181D01*
X77597000Y-56565819D01*
X77597000Y-57658000D01*
X77617000Y-57658000D01*
X77617000Y-57912000D01*
X77597000Y-57912000D01*
X77597000Y-59004181D01*
X77597000Y-59105819D01*
X77597000Y-60198000D01*
X77617000Y-60198000D01*
X77617000Y-60452000D01*
X77597000Y-60452000D01*
X77597000Y-61544181D01*
X77597000Y-61645819D01*
X77597000Y-62738000D01*
X77617000Y-62738000D01*
X77617000Y-62992000D01*
X77597000Y-62992000D01*
X77597000Y-64084181D01*
X77597000Y-64185819D01*
X77597000Y-65278000D01*
X77617000Y-65278000D01*
X77617000Y-65532000D01*
X77597000Y-65532000D01*
X77597000Y-66624181D01*
X77597000Y-66725819D01*
X77597000Y-67818000D01*
X77617000Y-67818000D01*
X77617000Y-68072000D01*
X77597000Y-68072000D01*
X77597000Y-69164181D01*
X77597000Y-69265819D01*
X77597000Y-70358000D01*
X77617000Y-70358000D01*
X77617000Y-70612000D01*
X77597000Y-70612000D01*
X77597000Y-71704181D01*
X77597000Y-71805819D01*
X77597000Y-72898000D01*
X77617000Y-72898000D01*
X77617000Y-73152000D01*
X77597000Y-73152000D01*
X77597000Y-74244181D01*
X77597000Y-74345819D01*
X77597000Y-75438000D01*
X77617000Y-75438000D01*
X77617000Y-75692000D01*
X77597000Y-75692000D01*
X77597000Y-76784181D01*
X77597000Y-76885819D01*
X77597000Y-77978000D01*
X77617000Y-77978000D01*
X77617000Y-78232000D01*
X77597000Y-78232000D01*
X77597000Y-79425819D01*
X77826892Y-79546486D01*
X78351358Y-79300183D01*
X78741645Y-78871924D01*
X78858212Y-78590488D01*
X79115435Y-78975448D01*
X79514800Y-79242296D01*
X79985883Y-79336000D01*
X80034117Y-79336000D01*
X80505200Y-79242296D01*
X80904565Y-78975448D01*
X81171413Y-78576083D01*
X81265117Y-78105000D01*
X81265117Y-104569000D01*
X77641486Y-104569000D01*
X77641486Y-90526892D01*
X77641486Y-89813108D01*
X77395183Y-89288642D01*
X77343000Y-89241085D01*
X77343000Y-79425819D01*
X77343000Y-78232000D01*
X77343000Y-77978000D01*
X77343000Y-76885819D01*
X77343000Y-76784181D01*
X77343000Y-75692000D01*
X77343000Y-75438000D01*
X77343000Y-74345819D01*
X77343000Y-74244181D01*
X77343000Y-73152000D01*
X77343000Y-72898000D01*
X77343000Y-71805819D01*
X77343000Y-71704181D01*
X77343000Y-70612000D01*
X77343000Y-70358000D01*
X77343000Y-69265819D01*
X77343000Y-69164181D01*
X77343000Y-68072000D01*
X77343000Y-67818000D01*
X77343000Y-66725819D01*
X77343000Y-66624181D01*
X77343000Y-65532000D01*
X77343000Y-65278000D01*
X77343000Y-64185819D01*
X77343000Y-64084181D01*
X77343000Y-62992000D01*
X77343000Y-62738000D01*
X77343000Y-61645819D01*
X77343000Y-61544181D01*
X77343000Y-60452000D01*
X77343000Y-60198000D01*
X77343000Y-59105819D01*
X77343000Y-59004181D01*
X77343000Y-57912000D01*
X77343000Y-57658000D01*
X77343000Y-56565819D01*
X77343000Y-56464181D01*
X77343000Y-55372000D01*
X77343000Y-55118000D01*
X77343000Y-54025819D01*
X77343000Y-53924181D01*
X77343000Y-52832000D01*
X77343000Y-52578000D01*
X77343000Y-51485819D01*
X77343000Y-51384181D01*
X77343000Y-50292000D01*
X77343000Y-50038000D01*
X77343000Y-48945819D01*
X77343000Y-48844181D01*
X77343000Y-47752000D01*
X77343000Y-47498000D01*
X77343000Y-46405819D01*
X77343000Y-46304181D01*
X77343000Y-45212000D01*
X77343000Y-44958000D01*
X77343000Y-43865819D01*
X77343000Y-43764181D01*
X77343000Y-42672000D01*
X77343000Y-42418000D01*
X77343000Y-41331250D01*
X77343000Y-41224181D01*
X77343000Y-40132000D01*
X77343000Y-39878000D01*
X77343000Y-38678750D01*
X77184250Y-38520000D01*
X76493691Y-38520000D01*
X76260302Y-38616673D01*
X76081673Y-38795301D01*
X76073000Y-38816239D01*
X76073000Y-25450155D01*
X76073000Y-24257000D01*
X74980819Y-24257000D01*
X74879181Y-24257000D01*
X73787000Y-24257000D01*
X73787000Y-25450155D01*
X74016890Y-25571476D01*
X74426924Y-25401645D01*
X74855183Y-25011358D01*
X74930000Y-24852046D01*
X75004817Y-25011358D01*
X75433076Y-25401645D01*
X75843110Y-25571476D01*
X76073000Y-25450155D01*
X76073000Y-38816239D01*
X75985000Y-39028690D01*
X75985000Y-39281309D01*
X75985000Y-39719250D01*
X76143750Y-39878000D01*
X77343000Y-39878000D01*
X77343000Y-40132000D01*
X76143750Y-40132000D01*
X75985000Y-40290750D01*
X75985000Y-40728691D01*
X75985000Y-40981310D01*
X76081673Y-41214699D01*
X76260302Y-41393327D01*
X76469877Y-41480136D01*
X76198355Y-41778076D01*
X76028524Y-42188110D01*
X76149845Y-42418000D01*
X77343000Y-42418000D01*
X77343000Y-42672000D01*
X76149845Y-42672000D01*
X76028524Y-42901890D01*
X76198355Y-43311924D01*
X76588642Y-43740183D01*
X76747953Y-43815000D01*
X76588642Y-43889817D01*
X76198355Y-44318076D01*
X76028524Y-44728110D01*
X76149845Y-44958000D01*
X77343000Y-44958000D01*
X77343000Y-45212000D01*
X76149845Y-45212000D01*
X76028524Y-45441890D01*
X76198355Y-45851924D01*
X76588642Y-46280183D01*
X76747953Y-46355000D01*
X76588642Y-46429817D01*
X76198355Y-46858076D01*
X76028524Y-47268110D01*
X76149845Y-47498000D01*
X77343000Y-47498000D01*
X77343000Y-47752000D01*
X76149845Y-47752000D01*
X76028524Y-47981890D01*
X76198355Y-48391924D01*
X76588642Y-48820183D01*
X76747953Y-48895000D01*
X76588642Y-48969817D01*
X76198355Y-49398076D01*
X76028524Y-49808110D01*
X76149845Y-50038000D01*
X77343000Y-50038000D01*
X77343000Y-50292000D01*
X76149845Y-50292000D01*
X76028524Y-50521890D01*
X76198355Y-50931924D01*
X76588642Y-51360183D01*
X76747953Y-51435000D01*
X76588642Y-51509817D01*
X76198355Y-51938076D01*
X76028524Y-52348110D01*
X76149845Y-52578000D01*
X77343000Y-52578000D01*
X77343000Y-52832000D01*
X76149845Y-52832000D01*
X76028524Y-53061890D01*
X76198355Y-53471924D01*
X76588642Y-53900183D01*
X76747953Y-53975000D01*
X76588642Y-54049817D01*
X76198355Y-54478076D01*
X76028524Y-54888110D01*
X76149845Y-55118000D01*
X77343000Y-55118000D01*
X77343000Y-55372000D01*
X76149845Y-55372000D01*
X76028524Y-55601890D01*
X76198355Y-56011924D01*
X76588642Y-56440183D01*
X76747953Y-56515000D01*
X76588642Y-56589817D01*
X76198355Y-57018076D01*
X76028524Y-57428110D01*
X76149845Y-57658000D01*
X77343000Y-57658000D01*
X77343000Y-57912000D01*
X76149845Y-57912000D01*
X76028524Y-58141890D01*
X76198355Y-58551924D01*
X76588642Y-58980183D01*
X76747953Y-59055000D01*
X76588642Y-59129817D01*
X76198355Y-59558076D01*
X76028524Y-59968110D01*
X76149845Y-60198000D01*
X77343000Y-60198000D01*
X77343000Y-60452000D01*
X76149845Y-60452000D01*
X76028524Y-60681890D01*
X76198355Y-61091924D01*
X76588642Y-61520183D01*
X76747953Y-61595000D01*
X76588642Y-61669817D01*
X76198355Y-62098076D01*
X76028524Y-62508110D01*
X76149845Y-62738000D01*
X77343000Y-62738000D01*
X77343000Y-62992000D01*
X76149845Y-62992000D01*
X76028524Y-63221890D01*
X76198355Y-63631924D01*
X76588642Y-64060183D01*
X76747953Y-64135000D01*
X76588642Y-64209817D01*
X76198355Y-64638076D01*
X76028524Y-65048110D01*
X76149845Y-65278000D01*
X77343000Y-65278000D01*
X77343000Y-65532000D01*
X76149845Y-65532000D01*
X76028524Y-65761890D01*
X76198355Y-66171924D01*
X76588642Y-66600183D01*
X76747953Y-66675000D01*
X76588642Y-66749817D01*
X76198355Y-67178076D01*
X76028524Y-67588110D01*
X76149845Y-67818000D01*
X77343000Y-67818000D01*
X77343000Y-68072000D01*
X76149845Y-68072000D01*
X76028524Y-68301890D01*
X76198355Y-68711924D01*
X76588642Y-69140183D01*
X76747953Y-69215000D01*
X76588642Y-69289817D01*
X76198355Y-69718076D01*
X76028524Y-70128110D01*
X76149845Y-70358000D01*
X77343000Y-70358000D01*
X77343000Y-70612000D01*
X76149845Y-70612000D01*
X76028524Y-70841890D01*
X76198355Y-71251924D01*
X76588642Y-71680183D01*
X76747953Y-71755000D01*
X76588642Y-71829817D01*
X76198355Y-72258076D01*
X76028524Y-72668110D01*
X76149845Y-72898000D01*
X77343000Y-72898000D01*
X77343000Y-73152000D01*
X76149845Y-73152000D01*
X76028524Y-73381890D01*
X76198355Y-73791924D01*
X76588642Y-74220183D01*
X76747953Y-74295000D01*
X76588642Y-74369817D01*
X76198355Y-74798076D01*
X76028524Y-75208110D01*
X76149845Y-75438000D01*
X77343000Y-75438000D01*
X77343000Y-75692000D01*
X76149845Y-75692000D01*
X76028524Y-75921890D01*
X76198355Y-76331924D01*
X76588642Y-76760183D01*
X76747953Y-76835000D01*
X76588642Y-76909817D01*
X76198355Y-77338076D01*
X76028524Y-77748110D01*
X76149845Y-77978000D01*
X77343000Y-77978000D01*
X77343000Y-78232000D01*
X76149845Y-78232000D01*
X76028524Y-78461890D01*
X76198355Y-78871924D01*
X76588642Y-79300183D01*
X77113108Y-79546486D01*
X77343000Y-79425819D01*
X77343000Y-89241085D01*
X76966924Y-88898355D01*
X76556890Y-88728524D01*
X76327000Y-88849845D01*
X76327000Y-90043000D01*
X77520819Y-90043000D01*
X77641486Y-89813108D01*
X77641486Y-90526892D01*
X77520819Y-90297000D01*
X76327000Y-90297000D01*
X76327000Y-90317000D01*
X76073000Y-90317000D01*
X76073000Y-90297000D01*
X76073000Y-90043000D01*
X76073000Y-88849845D01*
X75843110Y-88728524D01*
X75433076Y-88898355D01*
X75004817Y-89288642D01*
X74930000Y-89447953D01*
X74855183Y-89288642D01*
X74426924Y-88898355D01*
X74016890Y-88728524D01*
X73787000Y-88849845D01*
X73787000Y-90043000D01*
X74879181Y-90043000D01*
X74980819Y-90043000D01*
X76073000Y-90043000D01*
X76073000Y-90297000D01*
X74980819Y-90297000D01*
X74879181Y-90297000D01*
X73787000Y-90297000D01*
X73787000Y-90317000D01*
X73533000Y-90317000D01*
X73533000Y-90297000D01*
X73533000Y-90043000D01*
X73533000Y-88849845D01*
X73533000Y-25450155D01*
X73533000Y-24257000D01*
X72440819Y-24257000D01*
X72339181Y-24257000D01*
X71247000Y-24257000D01*
X71247000Y-25450155D01*
X71476890Y-25571476D01*
X71886924Y-25401645D01*
X72315183Y-25011358D01*
X72390000Y-24852046D01*
X72464817Y-25011358D01*
X72893076Y-25401645D01*
X73303110Y-25571476D01*
X73533000Y-25450155D01*
X73533000Y-88849845D01*
X73303110Y-88728524D01*
X72893076Y-88898355D01*
X72464817Y-89288642D01*
X72390000Y-89447953D01*
X72315183Y-89288642D01*
X71886924Y-88898355D01*
X71476890Y-88728524D01*
X71247000Y-88849845D01*
X71247000Y-90043000D01*
X72339181Y-90043000D01*
X72440819Y-90043000D01*
X73533000Y-90043000D01*
X73533000Y-90297000D01*
X72440819Y-90297000D01*
X72339181Y-90297000D01*
X71247000Y-90297000D01*
X71247000Y-90317000D01*
X70993000Y-90317000D01*
X70993000Y-90297000D01*
X70993000Y-90043000D01*
X70993000Y-88849845D01*
X70993000Y-25450155D01*
X70993000Y-24257000D01*
X69900819Y-24257000D01*
X69799181Y-24257000D01*
X68707000Y-24257000D01*
X68707000Y-25450155D01*
X68936890Y-25571476D01*
X69346924Y-25401645D01*
X69775183Y-25011358D01*
X69850000Y-24852046D01*
X69924817Y-25011358D01*
X70353076Y-25401645D01*
X70763110Y-25571476D01*
X70993000Y-25450155D01*
X70993000Y-88849845D01*
X70763110Y-88728524D01*
X70353076Y-88898355D01*
X69924817Y-89288642D01*
X69850000Y-89447953D01*
X69775183Y-89288642D01*
X69346924Y-88898355D01*
X68936890Y-88728524D01*
X68707000Y-88849845D01*
X68707000Y-90043000D01*
X69799181Y-90043000D01*
X69900819Y-90043000D01*
X70993000Y-90043000D01*
X70993000Y-90297000D01*
X69900819Y-90297000D01*
X69799181Y-90297000D01*
X68707000Y-90297000D01*
X68707000Y-90317000D01*
X68453000Y-90317000D01*
X68453000Y-90297000D01*
X68453000Y-90043000D01*
X68453000Y-88849845D01*
X68453000Y-25450155D01*
X68453000Y-24257000D01*
X67360819Y-24257000D01*
X67259181Y-24257000D01*
X66167000Y-24257000D01*
X66167000Y-25450155D01*
X66396890Y-25571476D01*
X66806924Y-25401645D01*
X67235183Y-25011358D01*
X67310000Y-24852046D01*
X67384817Y-25011358D01*
X67813076Y-25401645D01*
X68223110Y-25571476D01*
X68453000Y-25450155D01*
X68453000Y-88849845D01*
X68223110Y-88728524D01*
X67813076Y-88898355D01*
X67384817Y-89288642D01*
X67310000Y-89447953D01*
X67235183Y-89288642D01*
X66806924Y-88898355D01*
X66396890Y-88728524D01*
X66167000Y-88849845D01*
X66167000Y-90043000D01*
X67259181Y-90043000D01*
X67360819Y-90043000D01*
X68453000Y-90043000D01*
X68453000Y-90297000D01*
X67360819Y-90297000D01*
X67259181Y-90297000D01*
X66167000Y-90297000D01*
X66167000Y-90317000D01*
X65913000Y-90317000D01*
X65913000Y-90297000D01*
X65913000Y-90043000D01*
X65913000Y-88849845D01*
X65913000Y-25450155D01*
X65913000Y-24257000D01*
X64820819Y-24257000D01*
X64719181Y-24257000D01*
X63627000Y-24257000D01*
X63627000Y-25450155D01*
X63856890Y-25571476D01*
X64266924Y-25401645D01*
X64695183Y-25011358D01*
X64770000Y-24852046D01*
X64844817Y-25011358D01*
X65273076Y-25401645D01*
X65683110Y-25571476D01*
X65913000Y-25450155D01*
X65913000Y-88849845D01*
X65683110Y-88728524D01*
X65273076Y-88898355D01*
X64844817Y-89288642D01*
X64770000Y-89447953D01*
X64695183Y-89288642D01*
X64266924Y-88898355D01*
X63856890Y-88728524D01*
X63627000Y-88849845D01*
X63627000Y-90043000D01*
X64719181Y-90043000D01*
X64820819Y-90043000D01*
X65913000Y-90043000D01*
X65913000Y-90297000D01*
X64820819Y-90297000D01*
X64719181Y-90297000D01*
X63627000Y-90297000D01*
X63627000Y-90317000D01*
X63373000Y-90317000D01*
X63373000Y-90297000D01*
X63373000Y-90043000D01*
X63373000Y-88849845D01*
X63373000Y-25450155D01*
X63373000Y-24257000D01*
X62280819Y-24257000D01*
X62179181Y-24257000D01*
X61087000Y-24257000D01*
X61087000Y-25450155D01*
X61316890Y-25571476D01*
X61726924Y-25401645D01*
X62155183Y-25011358D01*
X62230000Y-24852046D01*
X62304817Y-25011358D01*
X62733076Y-25401645D01*
X63143110Y-25571476D01*
X63373000Y-25450155D01*
X63373000Y-88849845D01*
X63143110Y-88728524D01*
X62733076Y-88898355D01*
X62572792Y-89044427D01*
X62572792Y-77094563D01*
X62572792Y-36094563D01*
X61878213Y-34413553D01*
X60833000Y-33366513D01*
X60833000Y-25450155D01*
X60833000Y-24257000D01*
X59740819Y-24257000D01*
X59639181Y-24257000D01*
X58547000Y-24257000D01*
X58547000Y-25450155D01*
X58776890Y-25571476D01*
X59186924Y-25401645D01*
X59615183Y-25011358D01*
X59690000Y-24852046D01*
X59764817Y-25011358D01*
X60193076Y-25401645D01*
X60603110Y-25571476D01*
X60833000Y-25450155D01*
X60833000Y-33366513D01*
X60593212Y-33126307D01*
X58913417Y-32428795D01*
X58293000Y-32428253D01*
X58293000Y-25450155D01*
X58293000Y-24257000D01*
X57200819Y-24257000D01*
X57099181Y-24257000D01*
X56007000Y-24257000D01*
X56007000Y-25450155D01*
X56236890Y-25571476D01*
X56646924Y-25401645D01*
X57075183Y-25011358D01*
X57150000Y-24852046D01*
X57224817Y-25011358D01*
X57653076Y-25401645D01*
X58063110Y-25571476D01*
X58293000Y-25450155D01*
X58293000Y-32428253D01*
X57094563Y-32427208D01*
X55753000Y-32981530D01*
X55753000Y-25450155D01*
X55753000Y-24257000D01*
X54660819Y-24257000D01*
X54559181Y-24257000D01*
X53467000Y-24257000D01*
X53467000Y-25450155D01*
X53696890Y-25571476D01*
X54106924Y-25401645D01*
X54535183Y-25011358D01*
X54610000Y-24852046D01*
X54684817Y-25011358D01*
X55113076Y-25401645D01*
X55523110Y-25571476D01*
X55753000Y-25450155D01*
X55753000Y-32981530D01*
X55413553Y-33121787D01*
X54126307Y-34406788D01*
X53428795Y-36086583D01*
X53427208Y-37905437D01*
X54121787Y-39586447D01*
X55406788Y-40873693D01*
X57086583Y-41571205D01*
X58905437Y-41572792D01*
X60586447Y-40878213D01*
X61873693Y-39593212D01*
X62571205Y-37913417D01*
X62572792Y-36094563D01*
X62572792Y-77094563D01*
X61878213Y-75413553D01*
X60593212Y-74126307D01*
X58913417Y-73428795D01*
X57094563Y-73427208D01*
X55413553Y-74121787D01*
X54126307Y-75406788D01*
X53428795Y-77086583D01*
X53427208Y-78905437D01*
X54121787Y-80586447D01*
X55406788Y-81873693D01*
X57086583Y-82571205D01*
X58905437Y-82572792D01*
X60586447Y-81878213D01*
X61873693Y-80593212D01*
X62571205Y-78913417D01*
X62572792Y-77094563D01*
X62572792Y-89044427D01*
X62304817Y-89288642D01*
X62230000Y-89447953D01*
X62155183Y-89288642D01*
X61726924Y-88898355D01*
X61316890Y-88728524D01*
X61087000Y-88849845D01*
X61087000Y-90043000D01*
X62179181Y-90043000D01*
X62280819Y-90043000D01*
X63373000Y-90043000D01*
X63373000Y-90297000D01*
X62280819Y-90297000D01*
X62179181Y-90297000D01*
X61087000Y-90297000D01*
X61087000Y-90317000D01*
X60833000Y-90317000D01*
X60833000Y-90297000D01*
X60833000Y-90043000D01*
X60833000Y-88849845D01*
X60603110Y-88728524D01*
X60193076Y-88898355D01*
X59764817Y-89288642D01*
X59690000Y-89447953D01*
X59615183Y-89288642D01*
X59186924Y-88898355D01*
X58776890Y-88728524D01*
X58547000Y-88849845D01*
X58547000Y-90043000D01*
X59639181Y-90043000D01*
X59740819Y-90043000D01*
X60833000Y-90043000D01*
X60833000Y-90297000D01*
X59740819Y-90297000D01*
X59639181Y-90297000D01*
X58547000Y-90297000D01*
X58547000Y-90317000D01*
X58293000Y-90317000D01*
X58293000Y-90297000D01*
X58293000Y-90043000D01*
X58293000Y-88849845D01*
X58063110Y-88728524D01*
X57653076Y-88898355D01*
X57224817Y-89288642D01*
X57150000Y-89447953D01*
X57075183Y-89288642D01*
X56646924Y-88898355D01*
X56236890Y-88728524D01*
X56007000Y-88849845D01*
X56007000Y-90043000D01*
X57099181Y-90043000D01*
X57200819Y-90043000D01*
X58293000Y-90043000D01*
X58293000Y-90297000D01*
X57200819Y-90297000D01*
X57099181Y-90297000D01*
X56007000Y-90297000D01*
X56007000Y-90317000D01*
X55753000Y-90317000D01*
X55753000Y-90297000D01*
X55753000Y-90043000D01*
X55753000Y-88849845D01*
X55523110Y-88728524D01*
X55113076Y-88898355D01*
X54684817Y-89288642D01*
X54610000Y-89447953D01*
X54535183Y-89288642D01*
X54106924Y-88898355D01*
X53696890Y-88728524D01*
X53467000Y-88849845D01*
X53467000Y-90043000D01*
X54559181Y-90043000D01*
X54660819Y-90043000D01*
X55753000Y-90043000D01*
X55753000Y-90297000D01*
X54660819Y-90297000D01*
X54559181Y-90297000D01*
X53467000Y-90297000D01*
X53467000Y-90317000D01*
X53213000Y-90317000D01*
X53213000Y-90297000D01*
X53213000Y-90043000D01*
X53213000Y-88849845D01*
X53213000Y-25450155D01*
X53213000Y-24257000D01*
X52120819Y-24257000D01*
X52019181Y-24257000D01*
X50927000Y-24257000D01*
X50927000Y-25450155D01*
X51156890Y-25571476D01*
X51566924Y-25401645D01*
X51995183Y-25011358D01*
X52070000Y-24852046D01*
X52144817Y-25011358D01*
X52573076Y-25401645D01*
X52983110Y-25571476D01*
X53213000Y-25450155D01*
X53213000Y-88849845D01*
X52983110Y-88728524D01*
X52573076Y-88898355D01*
X52144817Y-89288642D01*
X52070000Y-89447953D01*
X51995183Y-89288642D01*
X51566924Y-88898355D01*
X51156890Y-88728524D01*
X50927000Y-88849845D01*
X50927000Y-90043000D01*
X52019181Y-90043000D01*
X52120819Y-90043000D01*
X53213000Y-90043000D01*
X53213000Y-90297000D01*
X52120819Y-90297000D01*
X52019181Y-90297000D01*
X50927000Y-90297000D01*
X50927000Y-90317000D01*
X50673000Y-90317000D01*
X50673000Y-90297000D01*
X50673000Y-90043000D01*
X50673000Y-88849845D01*
X50673000Y-25450155D01*
X50673000Y-24257000D01*
X49580819Y-24257000D01*
X49479181Y-24257000D01*
X48387000Y-24257000D01*
X48387000Y-25450155D01*
X48616890Y-25571476D01*
X49026924Y-25401645D01*
X49455183Y-25011358D01*
X49530000Y-24852046D01*
X49604817Y-25011358D01*
X50033076Y-25401645D01*
X50443110Y-25571476D01*
X50673000Y-25450155D01*
X50673000Y-88849845D01*
X50443110Y-88728524D01*
X50033076Y-88898355D01*
X49604817Y-89288642D01*
X49530000Y-89447953D01*
X49455183Y-89288642D01*
X49026924Y-88898355D01*
X48616890Y-88728524D01*
X48387000Y-88849845D01*
X48387000Y-90043000D01*
X49479181Y-90043000D01*
X49580819Y-90043000D01*
X50673000Y-90043000D01*
X50673000Y-90297000D01*
X49580819Y-90297000D01*
X49479181Y-90297000D01*
X48387000Y-90297000D01*
X48387000Y-90317000D01*
X48133000Y-90317000D01*
X48133000Y-90297000D01*
X48133000Y-90043000D01*
X48133000Y-88849845D01*
X48133000Y-25450155D01*
X48133000Y-24257000D01*
X47040819Y-24257000D01*
X46939181Y-24257000D01*
X45847000Y-24257000D01*
X45847000Y-25450155D01*
X46076890Y-25571476D01*
X46486924Y-25401645D01*
X46915183Y-25011358D01*
X46990000Y-24852046D01*
X47064817Y-25011358D01*
X47493076Y-25401645D01*
X47903110Y-25571476D01*
X48133000Y-25450155D01*
X48133000Y-88849845D01*
X47903110Y-88728524D01*
X47493076Y-88898355D01*
X47064817Y-89288642D01*
X46990000Y-89447953D01*
X46915183Y-89288642D01*
X46486924Y-88898355D01*
X46076890Y-88728524D01*
X45847000Y-88849845D01*
X45847000Y-90043000D01*
X46939181Y-90043000D01*
X47040819Y-90043000D01*
X48133000Y-90043000D01*
X48133000Y-90297000D01*
X47040819Y-90297000D01*
X46939181Y-90297000D01*
X45847000Y-90297000D01*
X45847000Y-90317000D01*
X45593000Y-90317000D01*
X45593000Y-90297000D01*
X45593000Y-90043000D01*
X45593000Y-88849845D01*
X45593000Y-25450155D01*
X45593000Y-24257000D01*
X44500819Y-24257000D01*
X44399181Y-24257000D01*
X43307000Y-24257000D01*
X43307000Y-25450155D01*
X43536890Y-25571476D01*
X43946924Y-25401645D01*
X44375183Y-25011358D01*
X44450000Y-24852046D01*
X44524817Y-25011358D01*
X44953076Y-25401645D01*
X45363110Y-25571476D01*
X45593000Y-25450155D01*
X45593000Y-88849845D01*
X45363110Y-88728524D01*
X44953076Y-88898355D01*
X44524817Y-89288642D01*
X44450000Y-89447953D01*
X44375183Y-89288642D01*
X43946924Y-88898355D01*
X43536890Y-88728524D01*
X43307000Y-88849845D01*
X43307000Y-90043000D01*
X44399181Y-90043000D01*
X44500819Y-90043000D01*
X45593000Y-90043000D01*
X45593000Y-90297000D01*
X44500819Y-90297000D01*
X44399181Y-90297000D01*
X43307000Y-90297000D01*
X43307000Y-90317000D01*
X43053000Y-90317000D01*
X43053000Y-90297000D01*
X43053000Y-90043000D01*
X43053000Y-88849845D01*
X43053000Y-25450155D01*
X43053000Y-24257000D01*
X41960819Y-24257000D01*
X41859181Y-24257000D01*
X40767000Y-24257000D01*
X40767000Y-25450155D01*
X40996890Y-25571476D01*
X41406924Y-25401645D01*
X41835183Y-25011358D01*
X41910000Y-24852046D01*
X41984817Y-25011358D01*
X42413076Y-25401645D01*
X42823110Y-25571476D01*
X43053000Y-25450155D01*
X43053000Y-88849845D01*
X42823110Y-88728524D01*
X42413076Y-88898355D01*
X41984817Y-89288642D01*
X41910000Y-89447953D01*
X41835183Y-89288642D01*
X41406924Y-88898355D01*
X40996890Y-88728524D01*
X40767000Y-88849845D01*
X40767000Y-90043000D01*
X41859181Y-90043000D01*
X41960819Y-90043000D01*
X43053000Y-90043000D01*
X43053000Y-90297000D01*
X41960819Y-90297000D01*
X41859181Y-90297000D01*
X40767000Y-90297000D01*
X40767000Y-90317000D01*
X40513000Y-90317000D01*
X40513000Y-90297000D01*
X40513000Y-90043000D01*
X40513000Y-88849845D01*
X40513000Y-25450155D01*
X40513000Y-24257000D01*
X39426250Y-24257000D01*
X39319181Y-24257000D01*
X38227000Y-24257000D01*
X38227000Y-25456250D01*
X38385750Y-25615000D01*
X38823691Y-25615000D01*
X39076310Y-25615000D01*
X39309699Y-25518327D01*
X39488327Y-25339698D01*
X39575136Y-25130122D01*
X39873076Y-25401645D01*
X40283110Y-25571476D01*
X40513000Y-25450155D01*
X40513000Y-88849845D01*
X40283110Y-88728524D01*
X39873076Y-88898355D01*
X39575136Y-89169877D01*
X39488327Y-88960302D01*
X39309699Y-88781673D01*
X39076310Y-88685000D01*
X38823691Y-88685000D01*
X38385750Y-88685000D01*
X38227000Y-88843750D01*
X38227000Y-90043000D01*
X39319181Y-90043000D01*
X39426250Y-90043000D01*
X40513000Y-90043000D01*
X40513000Y-90297000D01*
X39426250Y-90297000D01*
X39319181Y-90297000D01*
X38227000Y-90297000D01*
X38227000Y-90317000D01*
X37973000Y-90317000D01*
X37973000Y-90297000D01*
X37973000Y-90043000D01*
X37973000Y-88843750D01*
X37973000Y-25456250D01*
X37973000Y-24257000D01*
X36773750Y-24257000D01*
X36615000Y-24415750D01*
X36615000Y-25106309D01*
X36711673Y-25339698D01*
X36890301Y-25518327D01*
X37123690Y-25615000D01*
X37376309Y-25615000D01*
X37814250Y-25615000D01*
X37973000Y-25456250D01*
X37973000Y-88843750D01*
X37814250Y-88685000D01*
X37376309Y-88685000D01*
X37123690Y-88685000D01*
X36890301Y-88781673D01*
X36711673Y-88960302D01*
X36615000Y-89193691D01*
X36615000Y-89884250D01*
X36773750Y-90043000D01*
X37973000Y-90043000D01*
X37973000Y-90297000D01*
X36773750Y-90297000D01*
X36615000Y-90455750D01*
X36615000Y-91146309D01*
X36711673Y-91379698D01*
X36890301Y-91558327D01*
X36971420Y-91591927D01*
X36891574Y-91710216D01*
X36861536Y-91860000D01*
X36861536Y-93560000D01*
X36889722Y-93705274D01*
X36973596Y-93832956D01*
X37100216Y-93918426D01*
X37250000Y-93948464D01*
X38950000Y-93948464D01*
X39095274Y-93920278D01*
X39222956Y-93836404D01*
X39308426Y-93709784D01*
X39338464Y-93560000D01*
X39338464Y-91860000D01*
X39310278Y-91714726D01*
X39229391Y-91591591D01*
X39309699Y-91558327D01*
X39488327Y-91379698D01*
X39575136Y-91170122D01*
X39873076Y-91441645D01*
X40154511Y-91558212D01*
X39769552Y-91815435D01*
X39502704Y-92214800D01*
X39409000Y-92685883D01*
X39409000Y-92734117D01*
X39502704Y-93205200D01*
X39769552Y-93604565D01*
X40168917Y-93871413D01*
X40640000Y-93965117D01*
X41111083Y-93871413D01*
X41510448Y-93604565D01*
X41777296Y-93205200D01*
X41871000Y-92734117D01*
X41871000Y-92685883D01*
X41777296Y-92214800D01*
X41510448Y-91815435D01*
X41125488Y-91558212D01*
X41406924Y-91441645D01*
X41835183Y-91051358D01*
X41910000Y-90892046D01*
X41984817Y-91051358D01*
X42413076Y-91441645D01*
X42694511Y-91558212D01*
X42309552Y-91815435D01*
X42042704Y-92214800D01*
X41949000Y-92685883D01*
X41949000Y-92734117D01*
X42042704Y-93205200D01*
X42309552Y-93604565D01*
X42708917Y-93871413D01*
X43180000Y-93965117D01*
X43651083Y-93871413D01*
X44050448Y-93604565D01*
X44317296Y-93205200D01*
X44411000Y-92734117D01*
X44411000Y-92685883D01*
X44317296Y-92214800D01*
X44050448Y-91815435D01*
X43665488Y-91558212D01*
X43946924Y-91441645D01*
X44375183Y-91051358D01*
X44450000Y-90892046D01*
X44524817Y-91051358D01*
X44953076Y-91441645D01*
X45234511Y-91558212D01*
X44849552Y-91815435D01*
X44582704Y-92214800D01*
X44489000Y-92685883D01*
X44489000Y-92734117D01*
X44582704Y-93205200D01*
X44849552Y-93604565D01*
X45248917Y-93871413D01*
X45720000Y-93965117D01*
X46191083Y-93871413D01*
X46590448Y-93604565D01*
X46857296Y-93205200D01*
X46951000Y-92734117D01*
X46951000Y-92685883D01*
X46857296Y-92214800D01*
X46590448Y-91815435D01*
X46205488Y-91558212D01*
X46486924Y-91441645D01*
X46915183Y-91051358D01*
X46990000Y-90892046D01*
X47064817Y-91051358D01*
X47493076Y-91441645D01*
X47774511Y-91558212D01*
X47389552Y-91815435D01*
X47122704Y-92214800D01*
X47029000Y-92685883D01*
X47029000Y-92734117D01*
X47122704Y-93205200D01*
X47389552Y-93604565D01*
X47788917Y-93871413D01*
X48260000Y-93965117D01*
X48731083Y-93871413D01*
X49130448Y-93604565D01*
X49397296Y-93205200D01*
X49491000Y-92734117D01*
X49491000Y-92685883D01*
X49397296Y-92214800D01*
X49130448Y-91815435D01*
X48745488Y-91558212D01*
X49026924Y-91441645D01*
X49455183Y-91051358D01*
X49530000Y-90892046D01*
X49604817Y-91051358D01*
X50033076Y-91441645D01*
X50314511Y-91558212D01*
X49929552Y-91815435D01*
X49662704Y-92214800D01*
X49569000Y-92685883D01*
X49569000Y-92734117D01*
X49662704Y-93205200D01*
X49929552Y-93604565D01*
X50328917Y-93871413D01*
X50800000Y-93965117D01*
X51271083Y-93871413D01*
X51670448Y-93604565D01*
X51937296Y-93205200D01*
X52031000Y-92734117D01*
X52031000Y-92685883D01*
X51937296Y-92214800D01*
X51670448Y-91815435D01*
X51285488Y-91558212D01*
X51566924Y-91441645D01*
X51995183Y-91051358D01*
X52070000Y-90892046D01*
X52144817Y-91051358D01*
X52573076Y-91441645D01*
X52854511Y-91558212D01*
X52469552Y-91815435D01*
X52202704Y-92214800D01*
X52109000Y-92685883D01*
X52109000Y-92734117D01*
X52202704Y-93205200D01*
X52469552Y-93604565D01*
X52868917Y-93871413D01*
X53340000Y-93965117D01*
X53811083Y-93871413D01*
X54210448Y-93604565D01*
X54477296Y-93205200D01*
X54571000Y-92734117D01*
X54571000Y-92685883D01*
X54477296Y-92214800D01*
X54210448Y-91815435D01*
X53825488Y-91558212D01*
X54106924Y-91441645D01*
X54535183Y-91051358D01*
X54610000Y-90892046D01*
X54684817Y-91051358D01*
X55113076Y-91441645D01*
X55394511Y-91558212D01*
X55009552Y-91815435D01*
X54742704Y-92214800D01*
X54649000Y-92685883D01*
X54649000Y-92734117D01*
X54742704Y-93205200D01*
X55009552Y-93604565D01*
X55408917Y-93871413D01*
X55880000Y-93965117D01*
X56351083Y-93871413D01*
X56750448Y-93604565D01*
X57017296Y-93205200D01*
X57111000Y-92734117D01*
X57111000Y-92685883D01*
X57017296Y-92214800D01*
X56750448Y-91815435D01*
X56365488Y-91558212D01*
X56646924Y-91441645D01*
X57075183Y-91051358D01*
X57150000Y-90892046D01*
X57224817Y-91051358D01*
X57653076Y-91441645D01*
X57934511Y-91558212D01*
X57549552Y-91815435D01*
X57282704Y-92214800D01*
X57189000Y-92685883D01*
X57189000Y-92734117D01*
X57282704Y-93205200D01*
X57549552Y-93604565D01*
X57948917Y-93871413D01*
X58420000Y-93965117D01*
X58891083Y-93871413D01*
X59290448Y-93604565D01*
X59557296Y-93205200D01*
X59651000Y-92734117D01*
X59651000Y-92685883D01*
X59557296Y-92214800D01*
X59290448Y-91815435D01*
X58905488Y-91558212D01*
X59186924Y-91441645D01*
X59615183Y-91051358D01*
X59690000Y-90892046D01*
X59764817Y-91051358D01*
X60193076Y-91441645D01*
X60474511Y-91558212D01*
X60089552Y-91815435D01*
X59822704Y-92214800D01*
X59729000Y-92685883D01*
X59729000Y-92734117D01*
X59822704Y-93205200D01*
X60089552Y-93604565D01*
X60488917Y-93871413D01*
X60960000Y-93965117D01*
X61431083Y-93871413D01*
X61830448Y-93604565D01*
X62097296Y-93205200D01*
X62191000Y-92734117D01*
X62191000Y-92685883D01*
X62097296Y-92214800D01*
X61830448Y-91815435D01*
X61445488Y-91558212D01*
X61726924Y-91441645D01*
X62155183Y-91051358D01*
X62230000Y-90892046D01*
X62304817Y-91051358D01*
X62733076Y-91441645D01*
X63014511Y-91558212D01*
X62629552Y-91815435D01*
X62362704Y-92214800D01*
X62269000Y-92685883D01*
X62269000Y-92734117D01*
X62362704Y-93205200D01*
X62629552Y-93604565D01*
X63028917Y-93871413D01*
X63500000Y-93965117D01*
X63971083Y-93871413D01*
X64370448Y-93604565D01*
X64637296Y-93205200D01*
X64731000Y-92734117D01*
X64731000Y-92685883D01*
X64637296Y-92214800D01*
X64370448Y-91815435D01*
X63985488Y-91558212D01*
X64266924Y-91441645D01*
X64695183Y-91051358D01*
X64770000Y-90892046D01*
X64844817Y-91051358D01*
X65273076Y-91441645D01*
X65554511Y-91558212D01*
X65169552Y-91815435D01*
X64902704Y-92214800D01*
X64809000Y-92685883D01*
X64809000Y-92734117D01*
X64902704Y-93205200D01*
X65169552Y-93604565D01*
X65568917Y-93871413D01*
X66040000Y-93965117D01*
X66511083Y-93871413D01*
X66910448Y-93604565D01*
X67177296Y-93205200D01*
X67271000Y-92734117D01*
X67271000Y-92685883D01*
X67177296Y-92214800D01*
X66910448Y-91815435D01*
X66525488Y-91558212D01*
X66806924Y-91441645D01*
X67235183Y-91051358D01*
X67310000Y-90892046D01*
X67384817Y-91051358D01*
X67813076Y-91441645D01*
X68094511Y-91558212D01*
X67709552Y-91815435D01*
X67442704Y-92214800D01*
X67349000Y-92685883D01*
X67349000Y-92734117D01*
X67442704Y-93205200D01*
X67709552Y-93604565D01*
X68108917Y-93871413D01*
X68580000Y-93965117D01*
X69051083Y-93871413D01*
X69450448Y-93604565D01*
X69717296Y-93205200D01*
X69811000Y-92734117D01*
X69811000Y-92685883D01*
X69717296Y-92214800D01*
X69450448Y-91815435D01*
X69065488Y-91558212D01*
X69346924Y-91441645D01*
X69775183Y-91051358D01*
X69850000Y-90892046D01*
X69924817Y-91051358D01*
X70353076Y-91441645D01*
X70634511Y-91558212D01*
X70249552Y-91815435D01*
X69982704Y-92214800D01*
X69889000Y-92685883D01*
X69889000Y-92734117D01*
X69982704Y-93205200D01*
X70249552Y-93604565D01*
X70648917Y-93871413D01*
X71120000Y-93965117D01*
X71591083Y-93871413D01*
X71990448Y-93604565D01*
X72257296Y-93205200D01*
X72351000Y-92734117D01*
X72351000Y-92685883D01*
X72257296Y-92214800D01*
X71990448Y-91815435D01*
X71605488Y-91558212D01*
X71886924Y-91441645D01*
X72315183Y-91051358D01*
X72390000Y-90892046D01*
X72464817Y-91051358D01*
X72893076Y-91441645D01*
X73174511Y-91558212D01*
X72789552Y-91815435D01*
X72522704Y-92214800D01*
X72429000Y-92685883D01*
X72429000Y-92734117D01*
X72522704Y-93205200D01*
X72789552Y-93604565D01*
X73188917Y-93871413D01*
X73660000Y-93965117D01*
X74131083Y-93871413D01*
X74530448Y-93604565D01*
X74797296Y-93205200D01*
X74891000Y-92734117D01*
X74891000Y-92685883D01*
X74797296Y-92214800D01*
X74530448Y-91815435D01*
X74145488Y-91558212D01*
X74426924Y-91441645D01*
X74855183Y-91051358D01*
X74930000Y-90892046D01*
X75004817Y-91051358D01*
X75433076Y-91441645D01*
X75714511Y-91558212D01*
X75329552Y-91815435D01*
X75062704Y-92214800D01*
X74969000Y-92685883D01*
X74969000Y-92734117D01*
X75062704Y-93205200D01*
X75329552Y-93604565D01*
X75728917Y-93871413D01*
X76200000Y-93965117D01*
X76671083Y-93871413D01*
X77070448Y-93604565D01*
X77337296Y-93205200D01*
X77431000Y-92734117D01*
X77431000Y-92685883D01*
X77337296Y-92214800D01*
X77070448Y-91815435D01*
X76685488Y-91558212D01*
X76966924Y-91441645D01*
X77395183Y-91051358D01*
X77641486Y-90526892D01*
X77641486Y-104569000D01*
X32376438Y-104569000D01*
X32376438Y-94748762D01*
X32376438Y-87128762D01*
X32376438Y-26803762D01*
X32376438Y-18548762D01*
X31991928Y-17618177D01*
X31280568Y-16905574D01*
X30350656Y-16519441D01*
X29343762Y-16518562D01*
X28413177Y-16903072D01*
X27700574Y-17614432D01*
X27314441Y-18544344D01*
X27313562Y-19551238D01*
X27698072Y-20481823D01*
X28409432Y-21194426D01*
X29339344Y-21580559D01*
X30346238Y-21581438D01*
X31276823Y-21196928D01*
X31989426Y-20485568D01*
X32375559Y-19555656D01*
X32376438Y-18548762D01*
X32376438Y-26803762D01*
X31991928Y-25873177D01*
X31280568Y-25160574D01*
X30350656Y-24774441D01*
X29343762Y-24773562D01*
X28413177Y-25158072D01*
X27700574Y-25869432D01*
X27314441Y-26799344D01*
X27313562Y-27806238D01*
X27698072Y-28736823D01*
X28409432Y-29449426D01*
X29339344Y-29835559D01*
X30346238Y-29836438D01*
X31276823Y-29451928D01*
X31989426Y-28740568D01*
X32375559Y-27810656D01*
X32376438Y-26803762D01*
X32376438Y-87128762D01*
X31991928Y-86198177D01*
X31280568Y-85485574D01*
X30350656Y-85099441D01*
X29343762Y-85098562D01*
X28413177Y-85483072D01*
X27700574Y-86194432D01*
X27314441Y-87124344D01*
X27313562Y-88131238D01*
X27698072Y-89061823D01*
X28409432Y-89774426D01*
X29339344Y-90160559D01*
X30346238Y-90161438D01*
X31276823Y-89776928D01*
X31989426Y-89065568D01*
X32375559Y-88135656D01*
X32376438Y-87128762D01*
X32376438Y-94748762D01*
X31991928Y-93818177D01*
X31280568Y-93105574D01*
X30350656Y-92719441D01*
X29343762Y-92718562D01*
X28413177Y-93103072D01*
X27700574Y-93814432D01*
X27314441Y-94744344D01*
X27313562Y-95751238D01*
X27698072Y-96681823D01*
X28409432Y-97394426D01*
X29339344Y-97780559D01*
X30346238Y-97781438D01*
X31276823Y-97396928D01*
X31989426Y-96685568D01*
X32375559Y-95755656D01*
X32376438Y-94748762D01*
X32376438Y-104569000D01*
X18651526Y-104569000D01*
X19484518Y-104224815D01*
X21218725Y-102493632D01*
X22158429Y-100230575D01*
X22160567Y-97780175D01*
X21572792Y-96357650D01*
X21572792Y-77094563D01*
X21572792Y-36094563D01*
X20878213Y-34413553D01*
X19593212Y-33126307D01*
X17913417Y-32428795D01*
X16094563Y-32427208D01*
X14413553Y-33121787D01*
X13126307Y-34406788D01*
X12428795Y-36086583D01*
X12427208Y-37905437D01*
X13121787Y-39586447D01*
X14406788Y-40873693D01*
X16086583Y-41571205D01*
X17905437Y-41572792D01*
X19586447Y-40878213D01*
X20873693Y-39593212D01*
X21571205Y-37913417D01*
X21572792Y-36094563D01*
X21572792Y-77094563D01*
X20878213Y-75413553D01*
X19593212Y-74126307D01*
X17913417Y-73428795D01*
X16094563Y-73427208D01*
X14413553Y-74121787D01*
X13126307Y-75406788D01*
X12428795Y-77086583D01*
X12427208Y-78905437D01*
X13121787Y-80586447D01*
X14406788Y-81873693D01*
X16086583Y-82571205D01*
X17905437Y-82572792D01*
X19586447Y-81878213D01*
X20873693Y-80593212D01*
X21571205Y-78913417D01*
X21572792Y-77094563D01*
X21572792Y-96357650D01*
X21224815Y-95515482D01*
X19493632Y-93781275D01*
X17230575Y-92841571D01*
X14780175Y-92839433D01*
X12515482Y-93775185D01*
X10781275Y-95506368D01*
X10431000Y-96349923D01*
X10431000Y-18651526D01*
X10775185Y-19484518D01*
X12506368Y-21218725D01*
X14769425Y-22158429D01*
X17219825Y-22160567D01*
X19484518Y-21224815D01*
X21218725Y-19493632D01*
X22158429Y-17230575D01*
X22160567Y-14780175D01*
X21224815Y-12515482D01*
X19493632Y-10781275D01*
X18650076Y-10431000D01*
X96348473Y-10431000D01*
X95515482Y-10775185D01*
X93781275Y-12506368D01*
X92841571Y-14769425D01*
X92839433Y-17219825D01*
X93775185Y-19484518D01*
X95506368Y-21218725D01*
X97769425Y-22158429D01*
X100219825Y-22160567D01*
X102484518Y-21224815D01*
X104218725Y-19493632D01*
X104569000Y-18650076D01*
X104569000Y-96348473D01*
M02*
