G04 #@! TF.GenerationSoftware,KiCad,Pcbnew,(5.1.5)-3*
G04 #@! TF.CreationDate,2020-05-30T09:08:53-04:00*
G04 #@! TF.ProjectId,Carrier95to49,43617272-6965-4723-9935-746f34392e6b,4*
G04 #@! TF.SameCoordinates,Original*
G04 #@! TF.FileFunction,Legend,Bot*
G04 #@! TF.FilePolarity,Positive*
%FSLAX46Y46*%
G04 Gerber Fmt 4.6, Leading zero omitted, Abs format (unit mm)*
G04 Created by KiCad (PCBNEW (5.1.5)-3) date 2020-05-30 09:08:53*
%MOMM*%
%LPD*%
G04 APERTURE LIST*
%ADD10C,0.381000*%
%ADD11C,0.650000*%
%ADD12C,0.304800*%
G04 APERTURE END LIST*
D10*
X80775628Y-102156985D02*
X81410628Y-101249842D01*
X81864200Y-102156985D02*
X81864200Y-100251985D01*
X81138485Y-100251985D01*
X80957057Y-100342700D01*
X80866342Y-100433414D01*
X80775628Y-100614842D01*
X80775628Y-100886985D01*
X80866342Y-101068414D01*
X80957057Y-101159128D01*
X81138485Y-101249842D01*
X81864200Y-101249842D01*
X79959200Y-101159128D02*
X79324200Y-101159128D01*
X79052057Y-102156985D02*
X79959200Y-102156985D01*
X79959200Y-100251985D01*
X79052057Y-100251985D01*
X78507771Y-100251985D02*
X77872771Y-102156985D01*
X77237771Y-100251985D01*
X74334914Y-100886985D02*
X74334914Y-102156985D01*
X74788485Y-100161271D02*
X75242057Y-101521985D01*
X74062771Y-101521985D01*
D11*
X75000000Y-87000000D02*
X79000000Y-87000000D01*
X79000000Y-87000000D02*
X79000000Y-91000000D01*
X79000000Y-91000000D02*
X75000000Y-91000000D01*
X75000000Y-91000000D02*
X75000000Y-87000000D01*
X75000000Y-87000000D02*
X75000000Y-87500000D01*
X75000000Y-87500000D02*
X79000000Y-87500000D01*
X79000000Y-87500000D02*
X79000000Y-88000000D01*
X79000000Y-88000000D02*
X75000000Y-88000000D01*
X75000000Y-88000000D02*
X75000000Y-88500000D01*
X75000000Y-88500000D02*
X79000000Y-88500000D01*
X79000000Y-88500000D02*
X79000000Y-89000000D01*
X79000000Y-89000000D02*
X75000000Y-89000000D01*
X75000000Y-89000000D02*
X75000000Y-89500000D01*
X75000000Y-89500000D02*
X78500000Y-89500000D01*
X78500000Y-89500000D02*
X79000000Y-89500000D01*
X79000000Y-89500000D02*
X79000000Y-90000000D01*
X79000000Y-90000000D02*
X75000000Y-90000000D01*
X75000000Y-90000000D02*
X75000000Y-90500000D01*
X75000000Y-90500000D02*
X79000000Y-90500000D01*
D12*
X79431142Y-84665428D02*
X78560285Y-84665428D01*
X78995714Y-86189428D02*
X78995714Y-84665428D01*
X78052285Y-85391142D02*
X77544285Y-85391142D01*
X77326571Y-86189428D02*
X78052285Y-86189428D01*
X78052285Y-84665428D01*
X77326571Y-84665428D01*
X76746000Y-86116857D02*
X76528285Y-86189428D01*
X76165428Y-86189428D01*
X76020285Y-86116857D01*
X75947714Y-86044285D01*
X75875142Y-85899142D01*
X75875142Y-85754000D01*
X75947714Y-85608857D01*
X76020285Y-85536285D01*
X76165428Y-85463714D01*
X76455714Y-85391142D01*
X76600857Y-85318571D01*
X76673428Y-85246000D01*
X76746000Y-85100857D01*
X76746000Y-84955714D01*
X76673428Y-84810571D01*
X76600857Y-84738000D01*
X76455714Y-84665428D01*
X76092857Y-84665428D01*
X75875142Y-84738000D01*
X75439714Y-84665428D02*
X74568857Y-84665428D01*
X75004285Y-86189428D02*
X75004285Y-84665428D01*
M02*
