G04 #@! TF.FileFunction,Copper,L1,Top,Signal*
%FSLAX46Y46*%
G04 Gerber Fmt 4.6, Leading zero omitted, Abs format (unit mm)*
G04 Created by KiCad (PCBNEW (after 2015-mar-04 BZR unknown)-product) date 1/14/2019 11:59:39 AM*
%MOMM*%
G01*
G04 APERTURE LIST*
%ADD10C,0.150000*%
%ADD11R,1.300000X1.500000*%
%ADD12R,1.500000X1.300000*%
%ADD13R,1.700000X1.700000*%
%ADD14O,1.700000X1.700000*%
%ADD15R,1.500000X1.250000*%
%ADD16R,1.250000X1.500000*%
%ADD17C,4.600000*%
%ADD18R,5.080000X1.750000*%
%ADD19R,1.550000X0.600000*%
%ADD20R,2.032000X3.657600*%
%ADD21R,2.032000X1.016000*%
%ADD22C,6.350000*%
%ADD23C,0.635000*%
%ADD24C,0.254000*%
%ADD25C,0.635000*%
%ADD26C,0.203200*%
G04 APERTURE END LIST*
D10*
D11*
X26000000Y-29150000D03*
X26000000Y-31850000D03*
X20000000Y-31850000D03*
X20000000Y-29150000D03*
D12*
X12850000Y-26000000D03*
X10150000Y-26000000D03*
D11*
X23000000Y-31850000D03*
X23000000Y-29150000D03*
D13*
X14500000Y-6000000D03*
D14*
X14500000Y-8540000D03*
D15*
X10250000Y-35500000D03*
X7750000Y-35500000D03*
D16*
X29000000Y-31750000D03*
X29000000Y-29250000D03*
D15*
X25750000Y-26000000D03*
X23250000Y-26000000D03*
X22250000Y-15000000D03*
X19750000Y-15000000D03*
X13250000Y-35000000D03*
X15750000Y-35000000D03*
D17*
X4000000Y-12000000D03*
X10100000Y-12000000D03*
X7200000Y-16600000D03*
D18*
X3000000Y-32500000D03*
X3000000Y-37500000D03*
X3000000Y-35000000D03*
X3000000Y-21500000D03*
X3000000Y-26500000D03*
X3000000Y-24000000D03*
D19*
X10300000Y-28595000D03*
X10300000Y-29865000D03*
X10300000Y-31135000D03*
X10300000Y-32405000D03*
X15700000Y-32405000D03*
X15700000Y-31135000D03*
X15700000Y-29865000D03*
X15700000Y-28595000D03*
D20*
X26302000Y-8500000D03*
D21*
X19698000Y-8500000D03*
X19698000Y-10786000D03*
X19698000Y-6214000D03*
D22*
X3500000Y-43000000D03*
X32500000Y-43000000D03*
X3500000Y-3500000D03*
X32500000Y-3500000D03*
D23*
X26000000Y-24500000D03*
X13500000Y-36000000D03*
X9000000Y-32500000D03*
X6500000Y-37500000D03*
X6500000Y-32500000D03*
X6500000Y-21500000D03*
X6500000Y-26500000D03*
X24000000Y-15000000D03*
X18500000Y-29500000D03*
X12000000Y-31000000D03*
D24*
X44370000Y-45339000D02*
X44069000Y-45339000D01*
X44370000Y-45466000D02*
X43815000Y-45466000D01*
X47070000Y-45339000D02*
X47070000Y-43053000D01*
X25750000Y-26000000D02*
X25750000Y-24750000D01*
X25750000Y-24750000D02*
X26000000Y-24500000D01*
X13250000Y-35000000D02*
X13250000Y-35750000D01*
X13250000Y-35750000D02*
X13500000Y-36000000D01*
X10300000Y-32405000D02*
X9095000Y-32405000D01*
X9095000Y-32405000D02*
X9000000Y-32500000D01*
D25*
X3000000Y-37500000D02*
X6500000Y-37500000D01*
X3000000Y-32500000D02*
X6500000Y-32500000D01*
X3000000Y-21500000D02*
X6500000Y-21500000D01*
X3000000Y-26500000D02*
X6500000Y-26500000D01*
X22250000Y-15000000D02*
X24000000Y-15000000D01*
X14500000Y-8540000D02*
X15960000Y-8540000D01*
X17286000Y-6214000D02*
X19698000Y-6214000D01*
X16500000Y-7000000D02*
X17286000Y-6214000D01*
X16500000Y-8000000D02*
X16500000Y-7000000D01*
X15960000Y-8540000D02*
X16500000Y-8000000D01*
D24*
X25750000Y-26000000D02*
X25750000Y-28900000D01*
X25750000Y-28900000D02*
X26000000Y-29150000D01*
X26000000Y-29150000D02*
X28900000Y-29150000D01*
X28900000Y-29150000D02*
X29000000Y-29250000D01*
X15750000Y-35000000D02*
X15750000Y-34250000D01*
X14405000Y-28595000D02*
X15700000Y-28595000D01*
X13500000Y-29500000D02*
X14405000Y-28595000D01*
X13500000Y-32500000D02*
X13500000Y-29500000D01*
X14500000Y-33500000D02*
X13500000Y-32500000D01*
X15000000Y-33500000D02*
X14500000Y-33500000D01*
X15750000Y-34250000D02*
X15000000Y-33500000D01*
X23000000Y-29150000D02*
X23000000Y-26250000D01*
X23000000Y-26250000D02*
X23250000Y-26000000D01*
X15700000Y-28595000D02*
X15700000Y-28300000D01*
X15700000Y-28300000D02*
X18000000Y-26000000D01*
X18000000Y-26000000D02*
X23250000Y-26000000D01*
D25*
X23250000Y-26000000D02*
X23250000Y-19750000D01*
X23250000Y-19750000D02*
X23000000Y-19500000D01*
X7750000Y-35500000D02*
X7000000Y-35500000D01*
X7000000Y-35500000D02*
X6500000Y-35000000D01*
X6500000Y-35000000D02*
X3000000Y-35000000D01*
D24*
X15700000Y-29865000D02*
X18135000Y-29865000D01*
X18135000Y-29865000D02*
X18500000Y-29500000D01*
X10250000Y-35500000D02*
X10250000Y-34750000D01*
X12000000Y-33000000D02*
X12000000Y-31000000D01*
X10250000Y-34750000D02*
X12000000Y-33000000D01*
X10300000Y-31135000D02*
X11865000Y-31135000D01*
X18850000Y-29150000D02*
X20000000Y-29150000D01*
X18500000Y-29500000D02*
X18850000Y-29150000D01*
X11865000Y-31135000D02*
X12000000Y-31000000D01*
X23000000Y-31850000D02*
X23000000Y-34000000D01*
X26000000Y-31850000D02*
X26000000Y-34000000D01*
X15700000Y-32405000D02*
X17905000Y-32405000D01*
X29000000Y-33500000D02*
X29000000Y-31750000D01*
X28500000Y-34000000D02*
X29000000Y-33500000D01*
X19500000Y-34000000D02*
X23000000Y-34000000D01*
X23000000Y-34000000D02*
X26000000Y-34000000D01*
X26000000Y-34000000D02*
X28500000Y-34000000D01*
X17905000Y-32405000D02*
X19500000Y-34000000D01*
D25*
X10100000Y-12000000D02*
X19698000Y-12000000D01*
X19698000Y-10786000D02*
X19698000Y-12000000D01*
X19698000Y-12000000D02*
X19698000Y-12500000D01*
X19698000Y-12500000D02*
X19698000Y-14948000D01*
X19698000Y-14948000D02*
X19750000Y-15000000D01*
D24*
X3000000Y-24000000D02*
X9500000Y-24000000D01*
X10150000Y-24650000D02*
X10150000Y-26000000D01*
X9500000Y-24000000D02*
X10150000Y-24650000D01*
X10300000Y-28595000D02*
X10300000Y-27800000D01*
X10150000Y-27650000D02*
X10150000Y-26000000D01*
X10300000Y-27800000D02*
X10150000Y-27650000D01*
X10300000Y-26150000D02*
X10150000Y-26000000D01*
X10300000Y-29865000D02*
X11635000Y-29865000D01*
X12850000Y-28650000D02*
X12850000Y-26000000D01*
X11635000Y-29865000D02*
X12850000Y-28650000D01*
X15700000Y-31135000D02*
X17135000Y-31135000D01*
X17850000Y-31850000D02*
X20000000Y-31850000D01*
X17135000Y-31135000D02*
X17850000Y-31850000D01*
D26*
G36*
X35594400Y-19898400D02*
X27680567Y-19898400D01*
X27680567Y-10328800D01*
X27680567Y-6671200D01*
X27654259Y-6535611D01*
X27575977Y-6416441D01*
X27457799Y-6336669D01*
X27318000Y-6308633D01*
X25286000Y-6308633D01*
X25150411Y-6334941D01*
X25031241Y-6413223D01*
X24951469Y-6531401D01*
X24923433Y-6671200D01*
X24923433Y-10328800D01*
X24949741Y-10464389D01*
X25028023Y-10583559D01*
X25146201Y-10663331D01*
X25286000Y-10691367D01*
X27318000Y-10691367D01*
X27453589Y-10665059D01*
X27572759Y-10586777D01*
X27652531Y-10468599D01*
X27680567Y-10328800D01*
X27680567Y-19898400D01*
X24673217Y-19898400D01*
X24673217Y-14866699D01*
X24570959Y-14619217D01*
X24475954Y-14524046D01*
X24475953Y-14524045D01*
X24381778Y-14429706D01*
X24134475Y-14327017D01*
X23866699Y-14326783D01*
X23866415Y-14326900D01*
X23353234Y-14326900D01*
X23336259Y-14239411D01*
X23257977Y-14120241D01*
X23139799Y-14040469D01*
X23000000Y-14012433D01*
X21500000Y-14012433D01*
X21364411Y-14038741D01*
X21323600Y-14065549D01*
X21323600Y-9129257D01*
X21323600Y-8804800D01*
X21323600Y-8195200D01*
X21323600Y-7870743D01*
X21230794Y-7646689D01*
X21076567Y-7492462D01*
X21076567Y-6722000D01*
X21076567Y-5706000D01*
X21050259Y-5570411D01*
X20971977Y-5451241D01*
X20853799Y-5371469D01*
X20714000Y-5343433D01*
X18682000Y-5343433D01*
X18546411Y-5369741D01*
X18427241Y-5448023D01*
X18364547Y-5540900D01*
X17286005Y-5540900D01*
X17286000Y-5540899D01*
X17028416Y-5592137D01*
X16810046Y-5738046D01*
X16810043Y-5738049D01*
X16024046Y-6524046D01*
X15959600Y-6620497D01*
X15959600Y-6304800D01*
X15959600Y-5695200D01*
X15959600Y-5271257D01*
X15959600Y-5028743D01*
X15866794Y-4804689D01*
X15695311Y-4633206D01*
X15471257Y-4540400D01*
X14804800Y-4540400D01*
X14652400Y-4692800D01*
X14652400Y-5847600D01*
X15807200Y-5847600D01*
X15959600Y-5695200D01*
X15959600Y-6304800D01*
X15807200Y-6152400D01*
X14652400Y-6152400D01*
X14652400Y-6172400D01*
X14347600Y-6172400D01*
X14347600Y-6152400D01*
X14347600Y-5847600D01*
X14347600Y-4692800D01*
X14195200Y-4540400D01*
X13528743Y-4540400D01*
X13304689Y-4633206D01*
X13133206Y-4804689D01*
X13040400Y-5028743D01*
X13040400Y-5271257D01*
X13040400Y-5695200D01*
X13192800Y-5847600D01*
X14347600Y-5847600D01*
X14347600Y-6152400D01*
X13192800Y-6152400D01*
X13040400Y-6304800D01*
X13040400Y-6728743D01*
X13040400Y-6971257D01*
X13133206Y-7195311D01*
X13304689Y-7366794D01*
X13528743Y-7459600D01*
X13964987Y-7459600D01*
X13623893Y-7687512D01*
X13362552Y-8078637D01*
X13270781Y-8540000D01*
X13362552Y-9001363D01*
X13623893Y-9392488D01*
X14015018Y-9653829D01*
X14476381Y-9745600D01*
X14523619Y-9745600D01*
X14984982Y-9653829D01*
X15376107Y-9392488D01*
X15495970Y-9213100D01*
X15959994Y-9213100D01*
X15960000Y-9213101D01*
X15960000Y-9213100D01*
X16217584Y-9161863D01*
X16435954Y-9015954D01*
X16975950Y-8475956D01*
X16975953Y-8475954D01*
X16975954Y-8475954D01*
X17121863Y-8257584D01*
X17173100Y-8000000D01*
X17173100Y-7278807D01*
X17564807Y-6887100D01*
X18365126Y-6887100D01*
X18424023Y-6976759D01*
X18542201Y-7056531D01*
X18682000Y-7084567D01*
X20714000Y-7084567D01*
X20849589Y-7058259D01*
X20968759Y-6979977D01*
X21048531Y-6861799D01*
X21076567Y-6722000D01*
X21076567Y-7492462D01*
X21059311Y-7475206D01*
X20835257Y-7382400D01*
X20592743Y-7382400D01*
X20002800Y-7382400D01*
X19850400Y-7534800D01*
X19850400Y-8347600D01*
X21171200Y-8347600D01*
X21323600Y-8195200D01*
X21323600Y-8804800D01*
X21171200Y-8652400D01*
X19850400Y-8652400D01*
X19850400Y-9465200D01*
X20002800Y-9617600D01*
X20592743Y-9617600D01*
X20835257Y-9617600D01*
X21059311Y-9524794D01*
X21230794Y-9353311D01*
X21323600Y-9129257D01*
X21323600Y-14065549D01*
X21245241Y-14117023D01*
X21165469Y-14235201D01*
X21137433Y-14375000D01*
X21137433Y-15625000D01*
X21163741Y-15760589D01*
X21242023Y-15879759D01*
X21360201Y-15959531D01*
X21500000Y-15987567D01*
X23000000Y-15987567D01*
X23135589Y-15961259D01*
X23254759Y-15882977D01*
X23334531Y-15764799D01*
X23352920Y-15673100D01*
X23999413Y-15673100D01*
X24000000Y-15673100D01*
X24133301Y-15673217D01*
X24257584Y-15621863D01*
X24380783Y-15570959D01*
X24475953Y-15475954D01*
X24475954Y-15475954D01*
X24475954Y-15475953D01*
X24570294Y-15381778D01*
X24621863Y-15257584D01*
X24672983Y-15134475D01*
X24673100Y-15000000D01*
X24673217Y-14866699D01*
X24673217Y-19898400D01*
X21076567Y-19898400D01*
X21076567Y-11294000D01*
X21076567Y-10278000D01*
X21050259Y-10142411D01*
X20971977Y-10023241D01*
X20853799Y-9943469D01*
X20714000Y-9915433D01*
X19545600Y-9915433D01*
X19545600Y-9465200D01*
X19545600Y-8652400D01*
X19545600Y-8347600D01*
X19545600Y-7534800D01*
X19393200Y-7382400D01*
X18803257Y-7382400D01*
X18560743Y-7382400D01*
X18336689Y-7475206D01*
X18165206Y-7646689D01*
X18072400Y-7870743D01*
X18072400Y-8195200D01*
X18224800Y-8347600D01*
X19545600Y-8347600D01*
X19545600Y-8652400D01*
X18224800Y-8652400D01*
X18072400Y-8804800D01*
X18072400Y-9129257D01*
X18165206Y-9353311D01*
X18336689Y-9524794D01*
X18560743Y-9617600D01*
X18803257Y-9617600D01*
X19393200Y-9617600D01*
X19545600Y-9465200D01*
X19545600Y-9915433D01*
X18682000Y-9915433D01*
X18546411Y-9941741D01*
X18427241Y-10020023D01*
X18347469Y-10138201D01*
X18319433Y-10278000D01*
X18319433Y-11294000D01*
X18325816Y-11326900D01*
X12695243Y-11326900D01*
X12352621Y-10497689D01*
X11606240Y-9750005D01*
X10630549Y-9344862D01*
X9574086Y-9343940D01*
X8597689Y-9747379D01*
X7850005Y-10493760D01*
X7444862Y-11469451D01*
X7443940Y-12525914D01*
X7847379Y-13502311D01*
X8593760Y-14249995D01*
X9569451Y-14655138D01*
X10625914Y-14656060D01*
X11602311Y-14252621D01*
X12349995Y-13506240D01*
X12695945Y-12673100D01*
X19024900Y-12673100D01*
X19024900Y-14012433D01*
X19000000Y-14012433D01*
X18864411Y-14038741D01*
X18745241Y-14117023D01*
X18665469Y-14235201D01*
X18637433Y-14375000D01*
X18637433Y-15625000D01*
X18663741Y-15760589D01*
X18742023Y-15879759D01*
X18860201Y-15959531D01*
X19000000Y-15987567D01*
X20500000Y-15987567D01*
X20635589Y-15961259D01*
X20754759Y-15882977D01*
X20834531Y-15764799D01*
X20862567Y-15625000D01*
X20862567Y-14375000D01*
X20836259Y-14239411D01*
X20757977Y-14120241D01*
X20639799Y-14040469D01*
X20500000Y-14012433D01*
X20371100Y-14012433D01*
X20371100Y-12500000D01*
X20371100Y-12000000D01*
X20371100Y-11656567D01*
X20714000Y-11656567D01*
X20849589Y-11630259D01*
X20968759Y-11551977D01*
X21048531Y-11433799D01*
X21076567Y-11294000D01*
X21076567Y-19898400D01*
X7101600Y-19898400D01*
X7101600Y-19255515D01*
X7725914Y-19256060D01*
X8702311Y-18852621D01*
X9449995Y-18106240D01*
X9855138Y-17130549D01*
X9856060Y-16074086D01*
X9452621Y-15097689D01*
X8706240Y-14350005D01*
X7730549Y-13944862D01*
X6674086Y-13943940D01*
X6656060Y-13951388D01*
X6656060Y-11474086D01*
X6252621Y-10497689D01*
X5506240Y-9750005D01*
X4530549Y-9344862D01*
X3474086Y-9343940D01*
X2497689Y-9747379D01*
X1750005Y-10493760D01*
X1344862Y-11469451D01*
X1343940Y-12525914D01*
X1747379Y-13502311D01*
X2493760Y-14249995D01*
X3469451Y-14655138D01*
X4525914Y-14656060D01*
X5502311Y-14252621D01*
X6249995Y-13506240D01*
X6655138Y-12530549D01*
X6656060Y-11474086D01*
X6656060Y-13951388D01*
X5697689Y-14347379D01*
X4950005Y-15093760D01*
X4544862Y-16069451D01*
X4543985Y-17073570D01*
X405600Y-17369169D01*
X405600Y-5256365D01*
X505157Y-5497312D01*
X1497464Y-6491352D01*
X2794639Y-7029986D01*
X4199199Y-7031212D01*
X5497312Y-6494843D01*
X6491352Y-5502536D01*
X7029986Y-4205361D01*
X7031212Y-2800801D01*
X6494843Y-1502688D01*
X5502536Y-508648D01*
X5254368Y-405600D01*
X30743634Y-405600D01*
X30502688Y-505157D01*
X29508648Y-1497464D01*
X28970014Y-2794639D01*
X28968788Y-4199199D01*
X29505157Y-5497312D01*
X30497464Y-6491352D01*
X31794639Y-7029986D01*
X33199199Y-7031212D01*
X34497312Y-6494843D01*
X35491352Y-5502536D01*
X35594400Y-5254368D01*
X35594400Y-19898400D01*
X35594400Y-19898400D01*
G37*
X35594400Y-19898400D02*
X27680567Y-19898400D01*
X27680567Y-10328800D01*
X27680567Y-6671200D01*
X27654259Y-6535611D01*
X27575977Y-6416441D01*
X27457799Y-6336669D01*
X27318000Y-6308633D01*
X25286000Y-6308633D01*
X25150411Y-6334941D01*
X25031241Y-6413223D01*
X24951469Y-6531401D01*
X24923433Y-6671200D01*
X24923433Y-10328800D01*
X24949741Y-10464389D01*
X25028023Y-10583559D01*
X25146201Y-10663331D01*
X25286000Y-10691367D01*
X27318000Y-10691367D01*
X27453589Y-10665059D01*
X27572759Y-10586777D01*
X27652531Y-10468599D01*
X27680567Y-10328800D01*
X27680567Y-19898400D01*
X24673217Y-19898400D01*
X24673217Y-14866699D01*
X24570959Y-14619217D01*
X24475954Y-14524046D01*
X24475953Y-14524045D01*
X24381778Y-14429706D01*
X24134475Y-14327017D01*
X23866699Y-14326783D01*
X23866415Y-14326900D01*
X23353234Y-14326900D01*
X23336259Y-14239411D01*
X23257977Y-14120241D01*
X23139799Y-14040469D01*
X23000000Y-14012433D01*
X21500000Y-14012433D01*
X21364411Y-14038741D01*
X21323600Y-14065549D01*
X21323600Y-9129257D01*
X21323600Y-8804800D01*
X21323600Y-8195200D01*
X21323600Y-7870743D01*
X21230794Y-7646689D01*
X21076567Y-7492462D01*
X21076567Y-6722000D01*
X21076567Y-5706000D01*
X21050259Y-5570411D01*
X20971977Y-5451241D01*
X20853799Y-5371469D01*
X20714000Y-5343433D01*
X18682000Y-5343433D01*
X18546411Y-5369741D01*
X18427241Y-5448023D01*
X18364547Y-5540900D01*
X17286005Y-5540900D01*
X17286000Y-5540899D01*
X17028416Y-5592137D01*
X16810046Y-5738046D01*
X16810043Y-5738049D01*
X16024046Y-6524046D01*
X15959600Y-6620497D01*
X15959600Y-6304800D01*
X15959600Y-5695200D01*
X15959600Y-5271257D01*
X15959600Y-5028743D01*
X15866794Y-4804689D01*
X15695311Y-4633206D01*
X15471257Y-4540400D01*
X14804800Y-4540400D01*
X14652400Y-4692800D01*
X14652400Y-5847600D01*
X15807200Y-5847600D01*
X15959600Y-5695200D01*
X15959600Y-6304800D01*
X15807200Y-6152400D01*
X14652400Y-6152400D01*
X14652400Y-6172400D01*
X14347600Y-6172400D01*
X14347600Y-6152400D01*
X14347600Y-5847600D01*
X14347600Y-4692800D01*
X14195200Y-4540400D01*
X13528743Y-4540400D01*
X13304689Y-4633206D01*
X13133206Y-4804689D01*
X13040400Y-5028743D01*
X13040400Y-5271257D01*
X13040400Y-5695200D01*
X13192800Y-5847600D01*
X14347600Y-5847600D01*
X14347600Y-6152400D01*
X13192800Y-6152400D01*
X13040400Y-6304800D01*
X13040400Y-6728743D01*
X13040400Y-6971257D01*
X13133206Y-7195311D01*
X13304689Y-7366794D01*
X13528743Y-7459600D01*
X13964987Y-7459600D01*
X13623893Y-7687512D01*
X13362552Y-8078637D01*
X13270781Y-8540000D01*
X13362552Y-9001363D01*
X13623893Y-9392488D01*
X14015018Y-9653829D01*
X14476381Y-9745600D01*
X14523619Y-9745600D01*
X14984982Y-9653829D01*
X15376107Y-9392488D01*
X15495970Y-9213100D01*
X15959994Y-9213100D01*
X15960000Y-9213101D01*
X15960000Y-9213100D01*
X16217584Y-9161863D01*
X16435954Y-9015954D01*
X16975950Y-8475956D01*
X16975953Y-8475954D01*
X16975954Y-8475954D01*
X17121863Y-8257584D01*
X17173100Y-8000000D01*
X17173100Y-7278807D01*
X17564807Y-6887100D01*
X18365126Y-6887100D01*
X18424023Y-6976759D01*
X18542201Y-7056531D01*
X18682000Y-7084567D01*
X20714000Y-7084567D01*
X20849589Y-7058259D01*
X20968759Y-6979977D01*
X21048531Y-6861799D01*
X21076567Y-6722000D01*
X21076567Y-7492462D01*
X21059311Y-7475206D01*
X20835257Y-7382400D01*
X20592743Y-7382400D01*
X20002800Y-7382400D01*
X19850400Y-7534800D01*
X19850400Y-8347600D01*
X21171200Y-8347600D01*
X21323600Y-8195200D01*
X21323600Y-8804800D01*
X21171200Y-8652400D01*
X19850400Y-8652400D01*
X19850400Y-9465200D01*
X20002800Y-9617600D01*
X20592743Y-9617600D01*
X20835257Y-9617600D01*
X21059311Y-9524794D01*
X21230794Y-9353311D01*
X21323600Y-9129257D01*
X21323600Y-14065549D01*
X21245241Y-14117023D01*
X21165469Y-14235201D01*
X21137433Y-14375000D01*
X21137433Y-15625000D01*
X21163741Y-15760589D01*
X21242023Y-15879759D01*
X21360201Y-15959531D01*
X21500000Y-15987567D01*
X23000000Y-15987567D01*
X23135589Y-15961259D01*
X23254759Y-15882977D01*
X23334531Y-15764799D01*
X23352920Y-15673100D01*
X23999413Y-15673100D01*
X24000000Y-15673100D01*
X24133301Y-15673217D01*
X24257584Y-15621863D01*
X24380783Y-15570959D01*
X24475953Y-15475954D01*
X24475954Y-15475954D01*
X24475954Y-15475953D01*
X24570294Y-15381778D01*
X24621863Y-15257584D01*
X24672983Y-15134475D01*
X24673100Y-15000000D01*
X24673217Y-14866699D01*
X24673217Y-19898400D01*
X21076567Y-19898400D01*
X21076567Y-11294000D01*
X21076567Y-10278000D01*
X21050259Y-10142411D01*
X20971977Y-10023241D01*
X20853799Y-9943469D01*
X20714000Y-9915433D01*
X19545600Y-9915433D01*
X19545600Y-9465200D01*
X19545600Y-8652400D01*
X19545600Y-8347600D01*
X19545600Y-7534800D01*
X19393200Y-7382400D01*
X18803257Y-7382400D01*
X18560743Y-7382400D01*
X18336689Y-7475206D01*
X18165206Y-7646689D01*
X18072400Y-7870743D01*
X18072400Y-8195200D01*
X18224800Y-8347600D01*
X19545600Y-8347600D01*
X19545600Y-8652400D01*
X18224800Y-8652400D01*
X18072400Y-8804800D01*
X18072400Y-9129257D01*
X18165206Y-9353311D01*
X18336689Y-9524794D01*
X18560743Y-9617600D01*
X18803257Y-9617600D01*
X19393200Y-9617600D01*
X19545600Y-9465200D01*
X19545600Y-9915433D01*
X18682000Y-9915433D01*
X18546411Y-9941741D01*
X18427241Y-10020023D01*
X18347469Y-10138201D01*
X18319433Y-10278000D01*
X18319433Y-11294000D01*
X18325816Y-11326900D01*
X12695243Y-11326900D01*
X12352621Y-10497689D01*
X11606240Y-9750005D01*
X10630549Y-9344862D01*
X9574086Y-9343940D01*
X8597689Y-9747379D01*
X7850005Y-10493760D01*
X7444862Y-11469451D01*
X7443940Y-12525914D01*
X7847379Y-13502311D01*
X8593760Y-14249995D01*
X9569451Y-14655138D01*
X10625914Y-14656060D01*
X11602311Y-14252621D01*
X12349995Y-13506240D01*
X12695945Y-12673100D01*
X19024900Y-12673100D01*
X19024900Y-14012433D01*
X19000000Y-14012433D01*
X18864411Y-14038741D01*
X18745241Y-14117023D01*
X18665469Y-14235201D01*
X18637433Y-14375000D01*
X18637433Y-15625000D01*
X18663741Y-15760589D01*
X18742023Y-15879759D01*
X18860201Y-15959531D01*
X19000000Y-15987567D01*
X20500000Y-15987567D01*
X20635589Y-15961259D01*
X20754759Y-15882977D01*
X20834531Y-15764799D01*
X20862567Y-15625000D01*
X20862567Y-14375000D01*
X20836259Y-14239411D01*
X20757977Y-14120241D01*
X20639799Y-14040469D01*
X20500000Y-14012433D01*
X20371100Y-14012433D01*
X20371100Y-12500000D01*
X20371100Y-12000000D01*
X20371100Y-11656567D01*
X20714000Y-11656567D01*
X20849589Y-11630259D01*
X20968759Y-11551977D01*
X21048531Y-11433799D01*
X21076567Y-11294000D01*
X21076567Y-19898400D01*
X7101600Y-19898400D01*
X7101600Y-19255515D01*
X7725914Y-19256060D01*
X8702311Y-18852621D01*
X9449995Y-18106240D01*
X9855138Y-17130549D01*
X9856060Y-16074086D01*
X9452621Y-15097689D01*
X8706240Y-14350005D01*
X7730549Y-13944862D01*
X6674086Y-13943940D01*
X6656060Y-13951388D01*
X6656060Y-11474086D01*
X6252621Y-10497689D01*
X5506240Y-9750005D01*
X4530549Y-9344862D01*
X3474086Y-9343940D01*
X2497689Y-9747379D01*
X1750005Y-10493760D01*
X1344862Y-11469451D01*
X1343940Y-12525914D01*
X1747379Y-13502311D01*
X2493760Y-14249995D01*
X3469451Y-14655138D01*
X4525914Y-14656060D01*
X5502311Y-14252621D01*
X6249995Y-13506240D01*
X6655138Y-12530549D01*
X6656060Y-11474086D01*
X6656060Y-13951388D01*
X5697689Y-14347379D01*
X4950005Y-15093760D01*
X4544862Y-16069451D01*
X4543985Y-17073570D01*
X405600Y-17369169D01*
X405600Y-5256365D01*
X505157Y-5497312D01*
X1497464Y-6491352D01*
X2794639Y-7029986D01*
X4199199Y-7031212D01*
X5497312Y-6494843D01*
X6491352Y-5502536D01*
X7029986Y-4205361D01*
X7031212Y-2800801D01*
X6494843Y-1502688D01*
X5502536Y-508648D01*
X5254368Y-405600D01*
X30743634Y-405600D01*
X30502688Y-505157D01*
X29508648Y-1497464D01*
X28970014Y-2794639D01*
X28968788Y-4199199D01*
X29505157Y-5497312D01*
X30497464Y-6491352D01*
X31794639Y-7029986D01*
X33199199Y-7031212D01*
X34497312Y-6494843D01*
X35491352Y-5502536D01*
X35594400Y-5254368D01*
X35594400Y-19898400D01*
M02*
