G04 #@! TF.FileFunction,Copper,L2,Bot,Signal*
%FSLAX46Y46*%
G04 Gerber Fmt 4.6, Leading zero omitted, Abs format (unit mm)*
G04 Created by KiCad (PCBNEW (after 2015-mar-04 BZR unknown)-product) date 9/5/2017 9:59:39 AM*
%MOMM*%
G01*
G04 APERTURE LIST*
%ADD10C,0.150000*%
%ADD11C,2.540000*%
%ADD12C,6.350000*%
%ADD13C,1.574800*%
%ADD14C,1.651000*%
%ADD15R,0.909320X1.219200*%
%ADD16R,1.524000X1.524000*%
%ADD17C,1.524000*%
%ADD18R,1.300000X1.300000*%
%ADD19C,1.300000*%
%ADD20R,1.300000X1.500000*%
%ADD21R,1.500000X1.300000*%
%ADD22R,5.080000X2.413000*%
%ADD23C,0.889000*%
%ADD24C,0.203200*%
%ADD25C,0.254000*%
%ADD26C,0.635000*%
G04 APERTURE END LIST*
D10*
D11*
X17018000Y-27178000D03*
X12018000Y-27178000D03*
D12*
X4000000Y-27030000D03*
X41000000Y-4030000D03*
X4000000Y-4030000D03*
D13*
X13000000Y-15030000D03*
D14*
X13000000Y-17570000D03*
D11*
X7920000Y-20110000D03*
X7920000Y-9950000D03*
D12*
X41000000Y-27030000D03*
D13*
X32000000Y-15030000D03*
D14*
X32000000Y-12490000D03*
D11*
X37080000Y-9950000D03*
X37080000Y-20110000D03*
D15*
X25003760Y-24384000D03*
X21732240Y-24384000D03*
D16*
X15748000Y-29464000D03*
D17*
X13208000Y-29464000D03*
D18*
X32131000Y-27051000D03*
D19*
X34631000Y-27051000D03*
D20*
X22098000Y-19130000D03*
X22098000Y-16430000D03*
X19558000Y-19130000D03*
X19558000Y-16430000D03*
X26162000Y-10588000D03*
X26162000Y-13288000D03*
X23368000Y-10588000D03*
X23368000Y-13288000D03*
X21082000Y-10588000D03*
X21082000Y-13288000D03*
D21*
X21764000Y-22098000D03*
X24464000Y-22098000D03*
D22*
X2540000Y-17486000D03*
X2540000Y-12486000D03*
X42418000Y-12486000D03*
X42418000Y-17486000D03*
D23*
X24384000Y-28448000D03*
X17600000Y-10230000D03*
X16510000Y-22098000D03*
X27000000Y-18030000D03*
X6400800Y-12547600D03*
X6350000Y-17526000D03*
X38760400Y-12471400D03*
X38608000Y-17424400D03*
X23622000Y-24384000D03*
X25069800Y-20472400D03*
X22098000Y-20574000D03*
X19558000Y-20574000D03*
X26162000Y-8890000D03*
X23368000Y-8890000D03*
X21082000Y-8890000D03*
D24*
X38608000Y-17424400D02*
X38557200Y-17424400D01*
D25*
X25003760Y-24384000D02*
X23622000Y-24384000D01*
X21732240Y-24384000D02*
X21732240Y-22129760D01*
X21732240Y-22129760D02*
X21764000Y-22098000D01*
X21732240Y-24384000D02*
X21732240Y-24241760D01*
D26*
X22098000Y-16430000D02*
X22098000Y-15157000D01*
X22098000Y-15157000D02*
X22225000Y-15030000D01*
X19558000Y-16430000D02*
X19558000Y-15157000D01*
X19558000Y-15157000D02*
X19685000Y-15030000D01*
X21082000Y-13288000D02*
X21082000Y-15030000D01*
X23368000Y-13288000D02*
X23368000Y-14903000D01*
X23368000Y-14903000D02*
X23495000Y-15030000D01*
X26162000Y-13288000D02*
X26162000Y-15030000D01*
X26035000Y-15030000D02*
X26162000Y-15030000D01*
X26162000Y-15030000D02*
X32000000Y-15030000D01*
X23495000Y-15030000D02*
X26035000Y-15030000D01*
X22225000Y-15030000D02*
X23495000Y-15030000D01*
X20955000Y-15030000D02*
X21082000Y-15030000D01*
X21082000Y-15030000D02*
X22225000Y-15030000D01*
X19685000Y-15030000D02*
X20955000Y-15030000D01*
X13000000Y-15030000D02*
X19685000Y-15030000D01*
D25*
X24066500Y-22098000D02*
X25146000Y-22098000D01*
D24*
X24464000Y-21078200D02*
X25069800Y-20472400D01*
X24464000Y-22098000D02*
X24464000Y-21078200D01*
X22098000Y-20574000D02*
X22098000Y-19005000D01*
X22098000Y-19005000D02*
X22098000Y-18732500D01*
X19558000Y-20574000D02*
X19643000Y-20489000D01*
X19643000Y-20489000D02*
X19558000Y-18732500D01*
D25*
X26162000Y-10588000D02*
X26162000Y-8890000D01*
X26162000Y-8890000D02*
X26197000Y-8925000D01*
X23368000Y-10588000D02*
X23368000Y-8890000D01*
X23368000Y-8890000D02*
X23463000Y-8985000D01*
X21082000Y-10588000D02*
X21082000Y-8890000D01*
X21037000Y-8935000D02*
X21082000Y-8890000D01*
G36*
X44619800Y-26992551D02*
X44564790Y-27269104D01*
X44555784Y-27277681D01*
X44556616Y-26325771D01*
X44016388Y-25018319D01*
X43016942Y-24017128D01*
X42291000Y-23715690D01*
X42291000Y-19168750D01*
X42291000Y-17613000D01*
X42291000Y-17359000D01*
X42291000Y-15803250D01*
X42291000Y-14168750D01*
X42291000Y-12613000D01*
X42291000Y-12359000D01*
X42291000Y-10803250D01*
X42132250Y-10644500D01*
X39751691Y-10644500D01*
X39518302Y-10741173D01*
X39339673Y-10919801D01*
X39243000Y-11153190D01*
X39243000Y-11405809D01*
X39243000Y-12200250D01*
X39401750Y-12359000D01*
X42291000Y-12359000D01*
X42291000Y-12613000D01*
X39401750Y-12613000D01*
X39243000Y-12771750D01*
X39243000Y-13566191D01*
X39243000Y-13818810D01*
X39339673Y-14052199D01*
X39518302Y-14230827D01*
X39751691Y-14327500D01*
X42132250Y-14327500D01*
X42291000Y-14168750D01*
X42291000Y-15803250D01*
X42132250Y-15644500D01*
X39751691Y-15644500D01*
X39518302Y-15741173D01*
X39339673Y-15919801D01*
X39243000Y-16153190D01*
X39243000Y-16405809D01*
X39243000Y-17200250D01*
X39401750Y-17359000D01*
X42291000Y-17359000D01*
X42291000Y-17613000D01*
X39401750Y-17613000D01*
X39243000Y-17771750D01*
X39243000Y-18566191D01*
X39243000Y-18818810D01*
X39339673Y-19052199D01*
X39518302Y-19230827D01*
X39751691Y-19327500D01*
X42132250Y-19327500D01*
X42291000Y-19168750D01*
X42291000Y-23715690D01*
X41710435Y-23474619D01*
X40295771Y-23473384D01*
X38988319Y-24013612D01*
X38731286Y-24270197D01*
X38731286Y-19783037D01*
X38731286Y-9623037D01*
X38480466Y-9016005D01*
X38016437Y-8551166D01*
X37409845Y-8299287D01*
X36753037Y-8298714D01*
X36146005Y-8549534D01*
X35681166Y-9013563D01*
X35429287Y-9620155D01*
X35428714Y-10276963D01*
X35679534Y-10883995D01*
X36143563Y-11348834D01*
X36750155Y-11600713D01*
X37406963Y-11601286D01*
X38013995Y-11350466D01*
X38478834Y-10886437D01*
X38730713Y-10279845D01*
X38731286Y-9623037D01*
X38731286Y-19783037D01*
X38480466Y-19176005D01*
X38016437Y-18711166D01*
X37409845Y-18459287D01*
X36753037Y-18458714D01*
X36146005Y-18709534D01*
X35681166Y-19173563D01*
X35429287Y-19780155D01*
X35428714Y-20436963D01*
X35679534Y-21043995D01*
X36143563Y-21508834D01*
X36750155Y-21760713D01*
X37406963Y-21761286D01*
X38013995Y-21510466D01*
X38478834Y-21046437D01*
X38730713Y-20439845D01*
X38731286Y-19783037D01*
X38731286Y-24270197D01*
X37987128Y-25013058D01*
X37444619Y-26319565D01*
X37443384Y-27734229D01*
X37983612Y-29041681D01*
X38983058Y-30042872D01*
X40289565Y-30585381D01*
X41081973Y-30586072D01*
X41028921Y-30636598D01*
X40962551Y-30649800D01*
X35928622Y-30649800D01*
X35928622Y-27231922D01*
X35899083Y-26721572D01*
X35760611Y-26387271D01*
X35530016Y-26331590D01*
X35350410Y-26511195D01*
X35350410Y-26151984D01*
X35294729Y-25921389D01*
X34811922Y-25753378D01*
X34301572Y-25782917D01*
X33967271Y-25921389D01*
X33911590Y-26151984D01*
X34631000Y-26871395D01*
X35350410Y-26151984D01*
X35350410Y-26511195D01*
X34810605Y-27051000D01*
X35530016Y-27770410D01*
X35760611Y-27714729D01*
X35928622Y-27231922D01*
X35928622Y-30649800D01*
X35350410Y-30649800D01*
X35350410Y-27950016D01*
X34631000Y-27230605D01*
X34451395Y-27410210D01*
X34451395Y-27051000D01*
X33731984Y-26331590D01*
X33501389Y-26387271D01*
X33472340Y-26470748D01*
X33472340Y-12712869D01*
X33445553Y-12132465D01*
X33274976Y-11720656D01*
X33026215Y-11643390D01*
X32846610Y-11822995D01*
X32846610Y-11463785D01*
X32769344Y-11215024D01*
X32222869Y-11017660D01*
X31642465Y-11044447D01*
X31230656Y-11215024D01*
X31153390Y-11463785D01*
X32000000Y-12310395D01*
X32846610Y-11463785D01*
X32846610Y-11822995D01*
X32179605Y-12490000D01*
X33026215Y-13336610D01*
X33274976Y-13259344D01*
X33472340Y-12712869D01*
X33472340Y-26470748D01*
X33333378Y-26870078D01*
X33362917Y-27380428D01*
X33501389Y-27714729D01*
X33731984Y-27770410D01*
X34451395Y-27051000D01*
X34451395Y-27410210D01*
X33911590Y-27950016D01*
X33967271Y-28180611D01*
X34450078Y-28348622D01*
X34960428Y-28319083D01*
X35294729Y-28180611D01*
X35350410Y-27950016D01*
X35350410Y-30649800D01*
X33169464Y-30649800D01*
X33169464Y-27701000D01*
X33169464Y-26401000D01*
X33168602Y-26396557D01*
X33168602Y-14798611D01*
X32991099Y-14369019D01*
X32662709Y-14040057D01*
X32384318Y-13924458D01*
X32769344Y-13764976D01*
X32846610Y-13516215D01*
X32000000Y-12669605D01*
X31820395Y-12849210D01*
X31820395Y-12490000D01*
X30973785Y-11643390D01*
X30725024Y-11720656D01*
X30527660Y-12267131D01*
X30554447Y-12847535D01*
X30725024Y-13259344D01*
X30973785Y-13336610D01*
X31820395Y-12490000D01*
X31820395Y-12849210D01*
X31153390Y-13516215D01*
X31230656Y-13764976D01*
X31642227Y-13913618D01*
X31339019Y-14038901D01*
X31045910Y-14331500D01*
X27058930Y-14331500D01*
X27084956Y-14314404D01*
X27170426Y-14187784D01*
X27200464Y-14038000D01*
X27200464Y-12538000D01*
X27200464Y-11338000D01*
X27200464Y-9838000D01*
X27172278Y-9692726D01*
X27088404Y-9565044D01*
X26961784Y-9479574D01*
X26812000Y-9449536D01*
X26769940Y-9449536D01*
X26861417Y-9358219D01*
X26987357Y-9054923D01*
X26987643Y-8726518D01*
X26862233Y-8423002D01*
X26630219Y-8190583D01*
X26326923Y-8064643D01*
X25998518Y-8064357D01*
X25695002Y-8189767D01*
X25462583Y-8421781D01*
X25336643Y-8725077D01*
X25336357Y-9053482D01*
X25461767Y-9356998D01*
X25554143Y-9449536D01*
X25512000Y-9449536D01*
X25366726Y-9477722D01*
X25239044Y-9561596D01*
X25153574Y-9688216D01*
X25123536Y-9838000D01*
X25123536Y-11338000D01*
X25151722Y-11483274D01*
X25235596Y-11610956D01*
X25362216Y-11696426D01*
X25512000Y-11726464D01*
X26812000Y-11726464D01*
X26957274Y-11698278D01*
X27084956Y-11614404D01*
X27170426Y-11487784D01*
X27200464Y-11338000D01*
X27200464Y-12538000D01*
X27172278Y-12392726D01*
X27088404Y-12265044D01*
X26961784Y-12179574D01*
X26812000Y-12149536D01*
X25512000Y-12149536D01*
X25366726Y-12177722D01*
X25239044Y-12261596D01*
X25153574Y-12388216D01*
X25123536Y-12538000D01*
X25123536Y-14038000D01*
X25151722Y-14183274D01*
X25235596Y-14310956D01*
X25266031Y-14331500D01*
X24264930Y-14331500D01*
X24290956Y-14314404D01*
X24376426Y-14187784D01*
X24406464Y-14038000D01*
X24406464Y-12538000D01*
X24406464Y-11338000D01*
X24406464Y-9838000D01*
X24378278Y-9692726D01*
X24294404Y-9565044D01*
X24167784Y-9479574D01*
X24018000Y-9449536D01*
X23975940Y-9449536D01*
X24067417Y-9358219D01*
X24193357Y-9054923D01*
X24193643Y-8726518D01*
X24068233Y-8423002D01*
X23836219Y-8190583D01*
X23532923Y-8064643D01*
X23204518Y-8064357D01*
X22901002Y-8189767D01*
X22668583Y-8421781D01*
X22542643Y-8725077D01*
X22542357Y-9053482D01*
X22667767Y-9356998D01*
X22760143Y-9449536D01*
X22718000Y-9449536D01*
X22572726Y-9477722D01*
X22445044Y-9561596D01*
X22359574Y-9688216D01*
X22329536Y-9838000D01*
X22329536Y-11338000D01*
X22357722Y-11483274D01*
X22441596Y-11610956D01*
X22568216Y-11696426D01*
X22718000Y-11726464D01*
X24018000Y-11726464D01*
X24163274Y-11698278D01*
X24290956Y-11614404D01*
X24376426Y-11487784D01*
X24406464Y-11338000D01*
X24406464Y-12538000D01*
X24378278Y-12392726D01*
X24294404Y-12265044D01*
X24167784Y-12179574D01*
X24018000Y-12149536D01*
X22718000Y-12149536D01*
X22572726Y-12177722D01*
X22445044Y-12261596D01*
X22359574Y-12388216D01*
X22329536Y-12538000D01*
X22329536Y-14038000D01*
X22357722Y-14183274D01*
X22441596Y-14310956D01*
X22472031Y-14331500D01*
X22225000Y-14331500D01*
X21978930Y-14331500D01*
X22004956Y-14314404D01*
X22090426Y-14187784D01*
X22120464Y-14038000D01*
X22120464Y-12538000D01*
X22120464Y-11338000D01*
X22120464Y-9838000D01*
X22092278Y-9692726D01*
X22008404Y-9565044D01*
X21881784Y-9479574D01*
X21732000Y-9449536D01*
X21689940Y-9449536D01*
X21781417Y-9358219D01*
X21907357Y-9054923D01*
X21907643Y-8726518D01*
X21782233Y-8423002D01*
X21550219Y-8190583D01*
X21246923Y-8064643D01*
X20918518Y-8064357D01*
X20615002Y-8189767D01*
X20382583Y-8421781D01*
X20256643Y-8725077D01*
X20256357Y-9053482D01*
X20381767Y-9356998D01*
X20474143Y-9449536D01*
X20432000Y-9449536D01*
X20286726Y-9477722D01*
X20159044Y-9561596D01*
X20073574Y-9688216D01*
X20043536Y-9838000D01*
X20043536Y-11338000D01*
X20071722Y-11483274D01*
X20155596Y-11610956D01*
X20282216Y-11696426D01*
X20432000Y-11726464D01*
X21732000Y-11726464D01*
X21877274Y-11698278D01*
X22004956Y-11614404D01*
X22090426Y-11487784D01*
X22120464Y-11338000D01*
X22120464Y-12538000D01*
X22092278Y-12392726D01*
X22008404Y-12265044D01*
X21881784Y-12179574D01*
X21732000Y-12149536D01*
X20432000Y-12149536D01*
X20286726Y-12177722D01*
X20159044Y-12261596D01*
X20073574Y-12388216D01*
X20043536Y-12538000D01*
X20043536Y-14038000D01*
X20071722Y-14183274D01*
X20155596Y-14310956D01*
X20186031Y-14331500D01*
X19685000Y-14331500D01*
X13953645Y-14331500D01*
X13662709Y-14040057D01*
X13233429Y-13861804D01*
X12768611Y-13861398D01*
X12339019Y-14038901D01*
X12010057Y-14367291D01*
X11831804Y-14796571D01*
X11831398Y-15261389D01*
X12008901Y-15690981D01*
X12337291Y-16019943D01*
X12615681Y-16135541D01*
X12230656Y-16295024D01*
X12153390Y-16543785D01*
X13000000Y-17390395D01*
X13846610Y-16543785D01*
X13769344Y-16295024D01*
X13357772Y-16146381D01*
X13660981Y-16021099D01*
X13954089Y-15728500D01*
X18519536Y-15728500D01*
X18519536Y-17180000D01*
X18547722Y-17325274D01*
X18631596Y-17452956D01*
X18758216Y-17538426D01*
X18908000Y-17568464D01*
X20208000Y-17568464D01*
X20353274Y-17540278D01*
X20480956Y-17456404D01*
X20566426Y-17329784D01*
X20596464Y-17180000D01*
X20596464Y-15728500D01*
X20955000Y-15728500D01*
X21059536Y-15728500D01*
X21059536Y-17180000D01*
X21087722Y-17325274D01*
X21171596Y-17452956D01*
X21298216Y-17538426D01*
X21448000Y-17568464D01*
X22748000Y-17568464D01*
X22893274Y-17540278D01*
X23020956Y-17456404D01*
X23106426Y-17329784D01*
X23136464Y-17180000D01*
X23136464Y-15728500D01*
X23495000Y-15728500D01*
X26035000Y-15728500D01*
X26162000Y-15728500D01*
X31046354Y-15728500D01*
X31337291Y-16019943D01*
X31766571Y-16198196D01*
X32231389Y-16198602D01*
X32660981Y-16021099D01*
X32989943Y-15692709D01*
X33168196Y-15263429D01*
X33168602Y-14798611D01*
X33168602Y-26396557D01*
X33141278Y-26255726D01*
X33057404Y-26128044D01*
X32930784Y-26042574D01*
X32781000Y-26012536D01*
X31481000Y-26012536D01*
X31335726Y-26040722D01*
X31208044Y-26124596D01*
X31122574Y-26251216D01*
X31092536Y-26401000D01*
X31092536Y-27701000D01*
X31120722Y-27846274D01*
X31204596Y-27973956D01*
X31331216Y-28059426D01*
X31481000Y-28089464D01*
X32781000Y-28089464D01*
X32926274Y-28061278D01*
X33053956Y-27977404D01*
X33139426Y-27850784D01*
X33169464Y-27701000D01*
X33169464Y-30649800D01*
X25895443Y-30649800D01*
X25895443Y-20308918D01*
X25770033Y-20005402D01*
X25538019Y-19772983D01*
X25234723Y-19647043D01*
X24906318Y-19646757D01*
X24602802Y-19772167D01*
X24370383Y-20004181D01*
X24244443Y-20307477D01*
X24244174Y-20615525D01*
X24122750Y-20736950D01*
X24018136Y-20893517D01*
X23985112Y-21059536D01*
X23714000Y-21059536D01*
X23568726Y-21087722D01*
X23441044Y-21171596D01*
X23355574Y-21298216D01*
X23325536Y-21448000D01*
X23325536Y-22748000D01*
X23353722Y-22893274D01*
X23437596Y-23020956D01*
X23564216Y-23106426D01*
X23714000Y-23136464D01*
X25214000Y-23136464D01*
X25359274Y-23108278D01*
X25486956Y-23024404D01*
X25572426Y-22897784D01*
X25602464Y-22748000D01*
X25602464Y-22311659D01*
X25615331Y-22292403D01*
X25654000Y-22098000D01*
X25615331Y-21903597D01*
X25602464Y-21884340D01*
X25602464Y-21448000D01*
X25574278Y-21302726D01*
X25499062Y-21188224D01*
X25536798Y-21172633D01*
X25769217Y-20940619D01*
X25895157Y-20637323D01*
X25895443Y-20308918D01*
X25895443Y-30649800D01*
X25846884Y-30649800D01*
X25846884Y-24993600D01*
X25846884Y-23774400D01*
X25818698Y-23629126D01*
X25734824Y-23501444D01*
X25608204Y-23415974D01*
X25458420Y-23385936D01*
X24549100Y-23385936D01*
X24403826Y-23414122D01*
X24276144Y-23497996D01*
X24190674Y-23624616D01*
X24163855Y-23758347D01*
X24090219Y-23684583D01*
X23786923Y-23558643D01*
X23458518Y-23558357D01*
X23155002Y-23683767D01*
X23136464Y-23702272D01*
X23136464Y-19880000D01*
X23136464Y-18380000D01*
X23108278Y-18234726D01*
X23024404Y-18107044D01*
X22897784Y-18021574D01*
X22748000Y-17991536D01*
X21448000Y-17991536D01*
X21302726Y-18019722D01*
X21175044Y-18103596D01*
X21089574Y-18230216D01*
X21059536Y-18380000D01*
X21059536Y-19880000D01*
X21087722Y-20025274D01*
X21171596Y-20152956D01*
X21298216Y-20238426D01*
X21340022Y-20246809D01*
X21272643Y-20409077D01*
X21272357Y-20737482D01*
X21397767Y-21040998D01*
X21416272Y-21059536D01*
X21014000Y-21059536D01*
X20868726Y-21087722D01*
X20741044Y-21171596D01*
X20655574Y-21298216D01*
X20625536Y-21448000D01*
X20625536Y-22748000D01*
X20653722Y-22893274D01*
X20737596Y-23020956D01*
X20864216Y-23106426D01*
X21014000Y-23136464D01*
X21224240Y-23136464D01*
X21224240Y-23396285D01*
X21132306Y-23414122D01*
X21004624Y-23497996D01*
X20919154Y-23624616D01*
X20889116Y-23774400D01*
X20889116Y-24993600D01*
X20917302Y-25138874D01*
X21001176Y-25266556D01*
X21127796Y-25352026D01*
X21277580Y-25382064D01*
X22186900Y-25382064D01*
X22332174Y-25353878D01*
X22459856Y-25270004D01*
X22545326Y-25143384D01*
X22575364Y-24993600D01*
X22575364Y-23774400D01*
X22547178Y-23629126D01*
X22463304Y-23501444D01*
X22336684Y-23415974D01*
X22240240Y-23396632D01*
X22240240Y-23136464D01*
X22514000Y-23136464D01*
X22659274Y-23108278D01*
X22786956Y-23024404D01*
X22872426Y-22897784D01*
X22902464Y-22748000D01*
X22902464Y-21448000D01*
X22874278Y-21302726D01*
X22790404Y-21175044D01*
X22715207Y-21124285D01*
X22797417Y-21042219D01*
X22923357Y-20738923D01*
X22923643Y-20410518D01*
X22856268Y-20247457D01*
X22893274Y-20240278D01*
X23020956Y-20156404D01*
X23106426Y-20029784D01*
X23136464Y-19880000D01*
X23136464Y-23702272D01*
X22922583Y-23915781D01*
X22796643Y-24219077D01*
X22796357Y-24547482D01*
X22921767Y-24850998D01*
X23153781Y-25083417D01*
X23457077Y-25209357D01*
X23785482Y-25209643D01*
X24088998Y-25084233D01*
X24163743Y-25009617D01*
X24188822Y-25138874D01*
X24272696Y-25266556D01*
X24399316Y-25352026D01*
X24549100Y-25382064D01*
X25458420Y-25382064D01*
X25603694Y-25353878D01*
X25731376Y-25270004D01*
X25816846Y-25143384D01*
X25846884Y-24993600D01*
X25846884Y-30649800D01*
X20596464Y-30649800D01*
X20596464Y-19880000D01*
X20596464Y-18380000D01*
X20568278Y-18234726D01*
X20484404Y-18107044D01*
X20357784Y-18021574D01*
X20208000Y-17991536D01*
X18908000Y-17991536D01*
X18762726Y-18019722D01*
X18635044Y-18103596D01*
X18549574Y-18230216D01*
X18519536Y-18380000D01*
X18519536Y-19880000D01*
X18547722Y-20025274D01*
X18631596Y-20152956D01*
X18758216Y-20238426D01*
X18800022Y-20246809D01*
X18732643Y-20409077D01*
X18732357Y-20737482D01*
X18857767Y-21040998D01*
X19089781Y-21273417D01*
X19393077Y-21399357D01*
X19721482Y-21399643D01*
X20024998Y-21274233D01*
X20257417Y-21042219D01*
X20383357Y-20738923D01*
X20383643Y-20410518D01*
X20316268Y-20247457D01*
X20353274Y-20240278D01*
X20480956Y-20156404D01*
X20566426Y-20029784D01*
X20596464Y-19880000D01*
X20596464Y-30649800D01*
X18669286Y-30649800D01*
X18669286Y-26851037D01*
X18418466Y-26244005D01*
X17954437Y-25779166D01*
X17347845Y-25527287D01*
X16691037Y-25526714D01*
X16084005Y-25777534D01*
X15619166Y-26241563D01*
X15367287Y-26848155D01*
X15366714Y-27504963D01*
X15617534Y-28111995D01*
X15818723Y-28313536D01*
X14986000Y-28313536D01*
X14840726Y-28341722D01*
X14713044Y-28425596D01*
X14627574Y-28552216D01*
X14597536Y-28702000D01*
X14597536Y-29279943D01*
X14589362Y-29116632D01*
X14472340Y-28834116D01*
X14472340Y-17792869D01*
X14445553Y-17212465D01*
X14274976Y-16800656D01*
X14026215Y-16723390D01*
X13179605Y-17570000D01*
X14026215Y-18416610D01*
X14274976Y-18339344D01*
X14472340Y-17792869D01*
X14472340Y-28834116D01*
X14430397Y-28732857D01*
X14188213Y-28663392D01*
X14008608Y-28842997D01*
X14008608Y-28483787D01*
X13939143Y-28241603D01*
X13685045Y-28150949D01*
X13932261Y-27506964D01*
X13912436Y-26749368D01*
X13846610Y-26590450D01*
X13846610Y-18596215D01*
X13000000Y-17749605D01*
X12820395Y-17929210D01*
X12820395Y-17570000D01*
X11973785Y-16723390D01*
X11725024Y-16800656D01*
X11527660Y-17347131D01*
X11554447Y-17927535D01*
X11725024Y-18339344D01*
X11973785Y-18416610D01*
X12820395Y-17570000D01*
X12820395Y-17929210D01*
X12153390Y-18596215D01*
X12230656Y-18844976D01*
X12777131Y-19042340D01*
X13357535Y-19015553D01*
X13769344Y-18844976D01*
X13846610Y-18596215D01*
X13846610Y-26590450D01*
X13660657Y-26141520D01*
X13365777Y-26009828D01*
X13186172Y-26189433D01*
X13186172Y-25830223D01*
X13054480Y-25535343D01*
X12346964Y-25263739D01*
X11589368Y-25283564D01*
X10981520Y-25535343D01*
X10849828Y-25830223D01*
X12018000Y-26998395D01*
X13186172Y-25830223D01*
X13186172Y-26189433D01*
X12197605Y-27178000D01*
X12211747Y-27192142D01*
X12032142Y-27371747D01*
X12018000Y-27357605D01*
X11838395Y-27537210D01*
X11838395Y-27178000D01*
X10670223Y-26009828D01*
X10375343Y-26141520D01*
X10103739Y-26849036D01*
X10123564Y-27606632D01*
X10375343Y-28214480D01*
X10670223Y-28346172D01*
X11838395Y-27178000D01*
X11838395Y-27537210D01*
X10849828Y-28525777D01*
X10981520Y-28820657D01*
X11689036Y-29092261D01*
X11858966Y-29087814D01*
X11798856Y-29256302D01*
X11826638Y-29811368D01*
X11985603Y-30195143D01*
X12227787Y-30264608D01*
X13028395Y-29464000D01*
X13014252Y-29449857D01*
X13193857Y-29270252D01*
X13208000Y-29284395D01*
X14008608Y-28483787D01*
X14008608Y-28842997D01*
X13387605Y-29464000D01*
X14188213Y-30264608D01*
X14430397Y-30195143D01*
X14597536Y-29726658D01*
X14597536Y-30226000D01*
X14625722Y-30371274D01*
X14709596Y-30498956D01*
X14836216Y-30584426D01*
X14986000Y-30614464D01*
X16510000Y-30614464D01*
X16655274Y-30586278D01*
X16782956Y-30502404D01*
X16868426Y-30375784D01*
X16898464Y-30226000D01*
X16898464Y-28828896D01*
X17344963Y-28829286D01*
X17951995Y-28578466D01*
X18416834Y-28114437D01*
X18668713Y-27507845D01*
X18669286Y-26851037D01*
X18669286Y-30649800D01*
X13949640Y-30649800D01*
X14008608Y-30444213D01*
X13208000Y-29643605D01*
X12407392Y-30444213D01*
X12466359Y-30649800D01*
X9571286Y-30649800D01*
X9571286Y-19783037D01*
X9571286Y-9623037D01*
X9320466Y-9016005D01*
X8856437Y-8551166D01*
X8249845Y-8299287D01*
X7593037Y-8298714D01*
X6986005Y-8549534D01*
X6521166Y-9013563D01*
X6269287Y-9620155D01*
X6268714Y-10276963D01*
X6519534Y-10883995D01*
X6983563Y-11348834D01*
X7590155Y-11600713D01*
X8246963Y-11601286D01*
X8853995Y-11350466D01*
X9318834Y-10886437D01*
X9570713Y-10279845D01*
X9571286Y-9623037D01*
X9571286Y-19783037D01*
X9320466Y-19176005D01*
X8856437Y-18711166D01*
X8249845Y-18459287D01*
X7593037Y-18458714D01*
X6986005Y-18709534D01*
X6521166Y-19173563D01*
X6269287Y-19780155D01*
X6268714Y-20436963D01*
X6519534Y-21043995D01*
X6983563Y-21508834D01*
X7590155Y-21760713D01*
X8246963Y-21761286D01*
X8853995Y-21510466D01*
X9318834Y-21046437D01*
X9570713Y-20439845D01*
X9571286Y-19783037D01*
X9571286Y-30649800D01*
X4037448Y-30649800D01*
X3715461Y-30585752D01*
X4704229Y-30586616D01*
X6011681Y-30046388D01*
X7012872Y-29046942D01*
X7555381Y-27740435D01*
X7556616Y-26325771D01*
X7016388Y-25018319D01*
X6016942Y-24017128D01*
X5715000Y-23891750D01*
X5715000Y-18818810D01*
X5715000Y-18566191D01*
X5715000Y-17771750D01*
X5715000Y-17200250D01*
X5715000Y-16405809D01*
X5715000Y-16153190D01*
X5715000Y-13818810D01*
X5715000Y-13566191D01*
X5715000Y-12771750D01*
X5715000Y-12200250D01*
X5715000Y-11405809D01*
X5715000Y-11153190D01*
X5618327Y-10919801D01*
X5439698Y-10741173D01*
X5206309Y-10644500D01*
X2825750Y-10644500D01*
X2667000Y-10803250D01*
X2667000Y-12359000D01*
X5556250Y-12359000D01*
X5715000Y-12200250D01*
X5715000Y-12771750D01*
X5556250Y-12613000D01*
X2667000Y-12613000D01*
X2667000Y-14168750D01*
X2825750Y-14327500D01*
X5206309Y-14327500D01*
X5439698Y-14230827D01*
X5618327Y-14052199D01*
X5715000Y-13818810D01*
X5715000Y-16153190D01*
X5618327Y-15919801D01*
X5439698Y-15741173D01*
X5206309Y-15644500D01*
X2825750Y-15644500D01*
X2667000Y-15803250D01*
X2667000Y-17359000D01*
X5556250Y-17359000D01*
X5715000Y-17200250D01*
X5715000Y-17771750D01*
X5556250Y-17613000D01*
X2667000Y-17613000D01*
X2667000Y-19168750D01*
X2825750Y-19327500D01*
X5206309Y-19327500D01*
X5439698Y-19230827D01*
X5618327Y-19052199D01*
X5715000Y-18818810D01*
X5715000Y-23891750D01*
X4710435Y-23474619D01*
X3295771Y-23473384D01*
X1988319Y-24013612D01*
X987128Y-25013058D01*
X444619Y-26319565D01*
X443910Y-27131343D01*
X397633Y-27080195D01*
X380200Y-26992551D01*
X380200Y-19327500D01*
X2254250Y-19327500D01*
X2413000Y-19168750D01*
X2413000Y-17613000D01*
X2393000Y-17613000D01*
X2393000Y-17359000D01*
X2413000Y-17359000D01*
X2413000Y-15803250D01*
X2254250Y-15644500D01*
X380200Y-15644500D01*
X380200Y-14327500D01*
X2254250Y-14327500D01*
X2413000Y-14168750D01*
X2413000Y-12613000D01*
X2393000Y-12613000D01*
X2393000Y-12359000D01*
X2413000Y-12359000D01*
X2413000Y-10803250D01*
X2254250Y-10644500D01*
X380200Y-10644500D01*
X380200Y-4037448D01*
X444273Y-3715329D01*
X443384Y-4734229D01*
X983612Y-6041681D01*
X1983058Y-7042872D01*
X3289565Y-7585381D01*
X4704229Y-7586616D01*
X6011681Y-7046388D01*
X7012872Y-6046942D01*
X7555381Y-4740435D01*
X7556616Y-3325771D01*
X7016388Y-2018319D01*
X6016942Y-1017128D01*
X4710435Y-474619D01*
X3688679Y-473727D01*
X3724063Y-442536D01*
X4037448Y-380200D01*
X40962551Y-380200D01*
X41033172Y-394247D01*
X41127349Y-474109D01*
X40295771Y-473384D01*
X38988319Y-1013612D01*
X37987128Y-2013058D01*
X37444619Y-3319565D01*
X37443384Y-4734229D01*
X37983612Y-6041681D01*
X38983058Y-7042872D01*
X40289565Y-7585381D01*
X41704229Y-7586616D01*
X43011681Y-7046388D01*
X44012872Y-6046942D01*
X44555381Y-4740435D01*
X44556273Y-3718079D01*
X44619800Y-4037448D01*
X44619800Y-10644500D01*
X42703750Y-10644500D01*
X42545000Y-10803250D01*
X42545000Y-12359000D01*
X42565000Y-12359000D01*
X42565000Y-12613000D01*
X42545000Y-12613000D01*
X42545000Y-14168750D01*
X42703750Y-14327500D01*
X44619800Y-14327500D01*
X44619800Y-15644500D01*
X42703750Y-15644500D01*
X42545000Y-15803250D01*
X42545000Y-17359000D01*
X42565000Y-17359000D01*
X42565000Y-17613000D01*
X42545000Y-17613000D01*
X42545000Y-19168750D01*
X42703750Y-19327500D01*
X44619800Y-19327500D01*
X44619800Y-26992551D01*
X44619800Y-26992551D01*
G37*
X44619800Y-26992551D02*
X44564790Y-27269104D01*
X44555784Y-27277681D01*
X44556616Y-26325771D01*
X44016388Y-25018319D01*
X43016942Y-24017128D01*
X42291000Y-23715690D01*
X42291000Y-19168750D01*
X42291000Y-17613000D01*
X42291000Y-17359000D01*
X42291000Y-15803250D01*
X42291000Y-14168750D01*
X42291000Y-12613000D01*
X42291000Y-12359000D01*
X42291000Y-10803250D01*
X42132250Y-10644500D01*
X39751691Y-10644500D01*
X39518302Y-10741173D01*
X39339673Y-10919801D01*
X39243000Y-11153190D01*
X39243000Y-11405809D01*
X39243000Y-12200250D01*
X39401750Y-12359000D01*
X42291000Y-12359000D01*
X42291000Y-12613000D01*
X39401750Y-12613000D01*
X39243000Y-12771750D01*
X39243000Y-13566191D01*
X39243000Y-13818810D01*
X39339673Y-14052199D01*
X39518302Y-14230827D01*
X39751691Y-14327500D01*
X42132250Y-14327500D01*
X42291000Y-14168750D01*
X42291000Y-15803250D01*
X42132250Y-15644500D01*
X39751691Y-15644500D01*
X39518302Y-15741173D01*
X39339673Y-15919801D01*
X39243000Y-16153190D01*
X39243000Y-16405809D01*
X39243000Y-17200250D01*
X39401750Y-17359000D01*
X42291000Y-17359000D01*
X42291000Y-17613000D01*
X39401750Y-17613000D01*
X39243000Y-17771750D01*
X39243000Y-18566191D01*
X39243000Y-18818810D01*
X39339673Y-19052199D01*
X39518302Y-19230827D01*
X39751691Y-19327500D01*
X42132250Y-19327500D01*
X42291000Y-19168750D01*
X42291000Y-23715690D01*
X41710435Y-23474619D01*
X40295771Y-23473384D01*
X38988319Y-24013612D01*
X38731286Y-24270197D01*
X38731286Y-19783037D01*
X38731286Y-9623037D01*
X38480466Y-9016005D01*
X38016437Y-8551166D01*
X37409845Y-8299287D01*
X36753037Y-8298714D01*
X36146005Y-8549534D01*
X35681166Y-9013563D01*
X35429287Y-9620155D01*
X35428714Y-10276963D01*
X35679534Y-10883995D01*
X36143563Y-11348834D01*
X36750155Y-11600713D01*
X37406963Y-11601286D01*
X38013995Y-11350466D01*
X38478834Y-10886437D01*
X38730713Y-10279845D01*
X38731286Y-9623037D01*
X38731286Y-19783037D01*
X38480466Y-19176005D01*
X38016437Y-18711166D01*
X37409845Y-18459287D01*
X36753037Y-18458714D01*
X36146005Y-18709534D01*
X35681166Y-19173563D01*
X35429287Y-19780155D01*
X35428714Y-20436963D01*
X35679534Y-21043995D01*
X36143563Y-21508834D01*
X36750155Y-21760713D01*
X37406963Y-21761286D01*
X38013995Y-21510466D01*
X38478834Y-21046437D01*
X38730713Y-20439845D01*
X38731286Y-19783037D01*
X38731286Y-24270197D01*
X37987128Y-25013058D01*
X37444619Y-26319565D01*
X37443384Y-27734229D01*
X37983612Y-29041681D01*
X38983058Y-30042872D01*
X40289565Y-30585381D01*
X41081973Y-30586072D01*
X41028921Y-30636598D01*
X40962551Y-30649800D01*
X35928622Y-30649800D01*
X35928622Y-27231922D01*
X35899083Y-26721572D01*
X35760611Y-26387271D01*
X35530016Y-26331590D01*
X35350410Y-26511195D01*
X35350410Y-26151984D01*
X35294729Y-25921389D01*
X34811922Y-25753378D01*
X34301572Y-25782917D01*
X33967271Y-25921389D01*
X33911590Y-26151984D01*
X34631000Y-26871395D01*
X35350410Y-26151984D01*
X35350410Y-26511195D01*
X34810605Y-27051000D01*
X35530016Y-27770410D01*
X35760611Y-27714729D01*
X35928622Y-27231922D01*
X35928622Y-30649800D01*
X35350410Y-30649800D01*
X35350410Y-27950016D01*
X34631000Y-27230605D01*
X34451395Y-27410210D01*
X34451395Y-27051000D01*
X33731984Y-26331590D01*
X33501389Y-26387271D01*
X33472340Y-26470748D01*
X33472340Y-12712869D01*
X33445553Y-12132465D01*
X33274976Y-11720656D01*
X33026215Y-11643390D01*
X32846610Y-11822995D01*
X32846610Y-11463785D01*
X32769344Y-11215024D01*
X32222869Y-11017660D01*
X31642465Y-11044447D01*
X31230656Y-11215024D01*
X31153390Y-11463785D01*
X32000000Y-12310395D01*
X32846610Y-11463785D01*
X32846610Y-11822995D01*
X32179605Y-12490000D01*
X33026215Y-13336610D01*
X33274976Y-13259344D01*
X33472340Y-12712869D01*
X33472340Y-26470748D01*
X33333378Y-26870078D01*
X33362917Y-27380428D01*
X33501389Y-27714729D01*
X33731984Y-27770410D01*
X34451395Y-27051000D01*
X34451395Y-27410210D01*
X33911590Y-27950016D01*
X33967271Y-28180611D01*
X34450078Y-28348622D01*
X34960428Y-28319083D01*
X35294729Y-28180611D01*
X35350410Y-27950016D01*
X35350410Y-30649800D01*
X33169464Y-30649800D01*
X33169464Y-27701000D01*
X33169464Y-26401000D01*
X33168602Y-26396557D01*
X33168602Y-14798611D01*
X32991099Y-14369019D01*
X32662709Y-14040057D01*
X32384318Y-13924458D01*
X32769344Y-13764976D01*
X32846610Y-13516215D01*
X32000000Y-12669605D01*
X31820395Y-12849210D01*
X31820395Y-12490000D01*
X30973785Y-11643390D01*
X30725024Y-11720656D01*
X30527660Y-12267131D01*
X30554447Y-12847535D01*
X30725024Y-13259344D01*
X30973785Y-13336610D01*
X31820395Y-12490000D01*
X31820395Y-12849210D01*
X31153390Y-13516215D01*
X31230656Y-13764976D01*
X31642227Y-13913618D01*
X31339019Y-14038901D01*
X31045910Y-14331500D01*
X27058930Y-14331500D01*
X27084956Y-14314404D01*
X27170426Y-14187784D01*
X27200464Y-14038000D01*
X27200464Y-12538000D01*
X27200464Y-11338000D01*
X27200464Y-9838000D01*
X27172278Y-9692726D01*
X27088404Y-9565044D01*
X26961784Y-9479574D01*
X26812000Y-9449536D01*
X26769940Y-9449536D01*
X26861417Y-9358219D01*
X26987357Y-9054923D01*
X26987643Y-8726518D01*
X26862233Y-8423002D01*
X26630219Y-8190583D01*
X26326923Y-8064643D01*
X25998518Y-8064357D01*
X25695002Y-8189767D01*
X25462583Y-8421781D01*
X25336643Y-8725077D01*
X25336357Y-9053482D01*
X25461767Y-9356998D01*
X25554143Y-9449536D01*
X25512000Y-9449536D01*
X25366726Y-9477722D01*
X25239044Y-9561596D01*
X25153574Y-9688216D01*
X25123536Y-9838000D01*
X25123536Y-11338000D01*
X25151722Y-11483274D01*
X25235596Y-11610956D01*
X25362216Y-11696426D01*
X25512000Y-11726464D01*
X26812000Y-11726464D01*
X26957274Y-11698278D01*
X27084956Y-11614404D01*
X27170426Y-11487784D01*
X27200464Y-11338000D01*
X27200464Y-12538000D01*
X27172278Y-12392726D01*
X27088404Y-12265044D01*
X26961784Y-12179574D01*
X26812000Y-12149536D01*
X25512000Y-12149536D01*
X25366726Y-12177722D01*
X25239044Y-12261596D01*
X25153574Y-12388216D01*
X25123536Y-12538000D01*
X25123536Y-14038000D01*
X25151722Y-14183274D01*
X25235596Y-14310956D01*
X25266031Y-14331500D01*
X24264930Y-14331500D01*
X24290956Y-14314404D01*
X24376426Y-14187784D01*
X24406464Y-14038000D01*
X24406464Y-12538000D01*
X24406464Y-11338000D01*
X24406464Y-9838000D01*
X24378278Y-9692726D01*
X24294404Y-9565044D01*
X24167784Y-9479574D01*
X24018000Y-9449536D01*
X23975940Y-9449536D01*
X24067417Y-9358219D01*
X24193357Y-9054923D01*
X24193643Y-8726518D01*
X24068233Y-8423002D01*
X23836219Y-8190583D01*
X23532923Y-8064643D01*
X23204518Y-8064357D01*
X22901002Y-8189767D01*
X22668583Y-8421781D01*
X22542643Y-8725077D01*
X22542357Y-9053482D01*
X22667767Y-9356998D01*
X22760143Y-9449536D01*
X22718000Y-9449536D01*
X22572726Y-9477722D01*
X22445044Y-9561596D01*
X22359574Y-9688216D01*
X22329536Y-9838000D01*
X22329536Y-11338000D01*
X22357722Y-11483274D01*
X22441596Y-11610956D01*
X22568216Y-11696426D01*
X22718000Y-11726464D01*
X24018000Y-11726464D01*
X24163274Y-11698278D01*
X24290956Y-11614404D01*
X24376426Y-11487784D01*
X24406464Y-11338000D01*
X24406464Y-12538000D01*
X24378278Y-12392726D01*
X24294404Y-12265044D01*
X24167784Y-12179574D01*
X24018000Y-12149536D01*
X22718000Y-12149536D01*
X22572726Y-12177722D01*
X22445044Y-12261596D01*
X22359574Y-12388216D01*
X22329536Y-12538000D01*
X22329536Y-14038000D01*
X22357722Y-14183274D01*
X22441596Y-14310956D01*
X22472031Y-14331500D01*
X22225000Y-14331500D01*
X21978930Y-14331500D01*
X22004956Y-14314404D01*
X22090426Y-14187784D01*
X22120464Y-14038000D01*
X22120464Y-12538000D01*
X22120464Y-11338000D01*
X22120464Y-9838000D01*
X22092278Y-9692726D01*
X22008404Y-9565044D01*
X21881784Y-9479574D01*
X21732000Y-9449536D01*
X21689940Y-9449536D01*
X21781417Y-9358219D01*
X21907357Y-9054923D01*
X21907643Y-8726518D01*
X21782233Y-8423002D01*
X21550219Y-8190583D01*
X21246923Y-8064643D01*
X20918518Y-8064357D01*
X20615002Y-8189767D01*
X20382583Y-8421781D01*
X20256643Y-8725077D01*
X20256357Y-9053482D01*
X20381767Y-9356998D01*
X20474143Y-9449536D01*
X20432000Y-9449536D01*
X20286726Y-9477722D01*
X20159044Y-9561596D01*
X20073574Y-9688216D01*
X20043536Y-9838000D01*
X20043536Y-11338000D01*
X20071722Y-11483274D01*
X20155596Y-11610956D01*
X20282216Y-11696426D01*
X20432000Y-11726464D01*
X21732000Y-11726464D01*
X21877274Y-11698278D01*
X22004956Y-11614404D01*
X22090426Y-11487784D01*
X22120464Y-11338000D01*
X22120464Y-12538000D01*
X22092278Y-12392726D01*
X22008404Y-12265044D01*
X21881784Y-12179574D01*
X21732000Y-12149536D01*
X20432000Y-12149536D01*
X20286726Y-12177722D01*
X20159044Y-12261596D01*
X20073574Y-12388216D01*
X20043536Y-12538000D01*
X20043536Y-14038000D01*
X20071722Y-14183274D01*
X20155596Y-14310956D01*
X20186031Y-14331500D01*
X19685000Y-14331500D01*
X13953645Y-14331500D01*
X13662709Y-14040057D01*
X13233429Y-13861804D01*
X12768611Y-13861398D01*
X12339019Y-14038901D01*
X12010057Y-14367291D01*
X11831804Y-14796571D01*
X11831398Y-15261389D01*
X12008901Y-15690981D01*
X12337291Y-16019943D01*
X12615681Y-16135541D01*
X12230656Y-16295024D01*
X12153390Y-16543785D01*
X13000000Y-17390395D01*
X13846610Y-16543785D01*
X13769344Y-16295024D01*
X13357772Y-16146381D01*
X13660981Y-16021099D01*
X13954089Y-15728500D01*
X18519536Y-15728500D01*
X18519536Y-17180000D01*
X18547722Y-17325274D01*
X18631596Y-17452956D01*
X18758216Y-17538426D01*
X18908000Y-17568464D01*
X20208000Y-17568464D01*
X20353274Y-17540278D01*
X20480956Y-17456404D01*
X20566426Y-17329784D01*
X20596464Y-17180000D01*
X20596464Y-15728500D01*
X20955000Y-15728500D01*
X21059536Y-15728500D01*
X21059536Y-17180000D01*
X21087722Y-17325274D01*
X21171596Y-17452956D01*
X21298216Y-17538426D01*
X21448000Y-17568464D01*
X22748000Y-17568464D01*
X22893274Y-17540278D01*
X23020956Y-17456404D01*
X23106426Y-17329784D01*
X23136464Y-17180000D01*
X23136464Y-15728500D01*
X23495000Y-15728500D01*
X26035000Y-15728500D01*
X26162000Y-15728500D01*
X31046354Y-15728500D01*
X31337291Y-16019943D01*
X31766571Y-16198196D01*
X32231389Y-16198602D01*
X32660981Y-16021099D01*
X32989943Y-15692709D01*
X33168196Y-15263429D01*
X33168602Y-14798611D01*
X33168602Y-26396557D01*
X33141278Y-26255726D01*
X33057404Y-26128044D01*
X32930784Y-26042574D01*
X32781000Y-26012536D01*
X31481000Y-26012536D01*
X31335726Y-26040722D01*
X31208044Y-26124596D01*
X31122574Y-26251216D01*
X31092536Y-26401000D01*
X31092536Y-27701000D01*
X31120722Y-27846274D01*
X31204596Y-27973956D01*
X31331216Y-28059426D01*
X31481000Y-28089464D01*
X32781000Y-28089464D01*
X32926274Y-28061278D01*
X33053956Y-27977404D01*
X33139426Y-27850784D01*
X33169464Y-27701000D01*
X33169464Y-30649800D01*
X25895443Y-30649800D01*
X25895443Y-20308918D01*
X25770033Y-20005402D01*
X25538019Y-19772983D01*
X25234723Y-19647043D01*
X24906318Y-19646757D01*
X24602802Y-19772167D01*
X24370383Y-20004181D01*
X24244443Y-20307477D01*
X24244174Y-20615525D01*
X24122750Y-20736950D01*
X24018136Y-20893517D01*
X23985112Y-21059536D01*
X23714000Y-21059536D01*
X23568726Y-21087722D01*
X23441044Y-21171596D01*
X23355574Y-21298216D01*
X23325536Y-21448000D01*
X23325536Y-22748000D01*
X23353722Y-22893274D01*
X23437596Y-23020956D01*
X23564216Y-23106426D01*
X23714000Y-23136464D01*
X25214000Y-23136464D01*
X25359274Y-23108278D01*
X25486956Y-23024404D01*
X25572426Y-22897784D01*
X25602464Y-22748000D01*
X25602464Y-22311659D01*
X25615331Y-22292403D01*
X25654000Y-22098000D01*
X25615331Y-21903597D01*
X25602464Y-21884340D01*
X25602464Y-21448000D01*
X25574278Y-21302726D01*
X25499062Y-21188224D01*
X25536798Y-21172633D01*
X25769217Y-20940619D01*
X25895157Y-20637323D01*
X25895443Y-20308918D01*
X25895443Y-30649800D01*
X25846884Y-30649800D01*
X25846884Y-24993600D01*
X25846884Y-23774400D01*
X25818698Y-23629126D01*
X25734824Y-23501444D01*
X25608204Y-23415974D01*
X25458420Y-23385936D01*
X24549100Y-23385936D01*
X24403826Y-23414122D01*
X24276144Y-23497996D01*
X24190674Y-23624616D01*
X24163855Y-23758347D01*
X24090219Y-23684583D01*
X23786923Y-23558643D01*
X23458518Y-23558357D01*
X23155002Y-23683767D01*
X23136464Y-23702272D01*
X23136464Y-19880000D01*
X23136464Y-18380000D01*
X23108278Y-18234726D01*
X23024404Y-18107044D01*
X22897784Y-18021574D01*
X22748000Y-17991536D01*
X21448000Y-17991536D01*
X21302726Y-18019722D01*
X21175044Y-18103596D01*
X21089574Y-18230216D01*
X21059536Y-18380000D01*
X21059536Y-19880000D01*
X21087722Y-20025274D01*
X21171596Y-20152956D01*
X21298216Y-20238426D01*
X21340022Y-20246809D01*
X21272643Y-20409077D01*
X21272357Y-20737482D01*
X21397767Y-21040998D01*
X21416272Y-21059536D01*
X21014000Y-21059536D01*
X20868726Y-21087722D01*
X20741044Y-21171596D01*
X20655574Y-21298216D01*
X20625536Y-21448000D01*
X20625536Y-22748000D01*
X20653722Y-22893274D01*
X20737596Y-23020956D01*
X20864216Y-23106426D01*
X21014000Y-23136464D01*
X21224240Y-23136464D01*
X21224240Y-23396285D01*
X21132306Y-23414122D01*
X21004624Y-23497996D01*
X20919154Y-23624616D01*
X20889116Y-23774400D01*
X20889116Y-24993600D01*
X20917302Y-25138874D01*
X21001176Y-25266556D01*
X21127796Y-25352026D01*
X21277580Y-25382064D01*
X22186900Y-25382064D01*
X22332174Y-25353878D01*
X22459856Y-25270004D01*
X22545326Y-25143384D01*
X22575364Y-24993600D01*
X22575364Y-23774400D01*
X22547178Y-23629126D01*
X22463304Y-23501444D01*
X22336684Y-23415974D01*
X22240240Y-23396632D01*
X22240240Y-23136464D01*
X22514000Y-23136464D01*
X22659274Y-23108278D01*
X22786956Y-23024404D01*
X22872426Y-22897784D01*
X22902464Y-22748000D01*
X22902464Y-21448000D01*
X22874278Y-21302726D01*
X22790404Y-21175044D01*
X22715207Y-21124285D01*
X22797417Y-21042219D01*
X22923357Y-20738923D01*
X22923643Y-20410518D01*
X22856268Y-20247457D01*
X22893274Y-20240278D01*
X23020956Y-20156404D01*
X23106426Y-20029784D01*
X23136464Y-19880000D01*
X23136464Y-23702272D01*
X22922583Y-23915781D01*
X22796643Y-24219077D01*
X22796357Y-24547482D01*
X22921767Y-24850998D01*
X23153781Y-25083417D01*
X23457077Y-25209357D01*
X23785482Y-25209643D01*
X24088998Y-25084233D01*
X24163743Y-25009617D01*
X24188822Y-25138874D01*
X24272696Y-25266556D01*
X24399316Y-25352026D01*
X24549100Y-25382064D01*
X25458420Y-25382064D01*
X25603694Y-25353878D01*
X25731376Y-25270004D01*
X25816846Y-25143384D01*
X25846884Y-24993600D01*
X25846884Y-30649800D01*
X20596464Y-30649800D01*
X20596464Y-19880000D01*
X20596464Y-18380000D01*
X20568278Y-18234726D01*
X20484404Y-18107044D01*
X20357784Y-18021574D01*
X20208000Y-17991536D01*
X18908000Y-17991536D01*
X18762726Y-18019722D01*
X18635044Y-18103596D01*
X18549574Y-18230216D01*
X18519536Y-18380000D01*
X18519536Y-19880000D01*
X18547722Y-20025274D01*
X18631596Y-20152956D01*
X18758216Y-20238426D01*
X18800022Y-20246809D01*
X18732643Y-20409077D01*
X18732357Y-20737482D01*
X18857767Y-21040998D01*
X19089781Y-21273417D01*
X19393077Y-21399357D01*
X19721482Y-21399643D01*
X20024998Y-21274233D01*
X20257417Y-21042219D01*
X20383357Y-20738923D01*
X20383643Y-20410518D01*
X20316268Y-20247457D01*
X20353274Y-20240278D01*
X20480956Y-20156404D01*
X20566426Y-20029784D01*
X20596464Y-19880000D01*
X20596464Y-30649800D01*
X18669286Y-30649800D01*
X18669286Y-26851037D01*
X18418466Y-26244005D01*
X17954437Y-25779166D01*
X17347845Y-25527287D01*
X16691037Y-25526714D01*
X16084005Y-25777534D01*
X15619166Y-26241563D01*
X15367287Y-26848155D01*
X15366714Y-27504963D01*
X15617534Y-28111995D01*
X15818723Y-28313536D01*
X14986000Y-28313536D01*
X14840726Y-28341722D01*
X14713044Y-28425596D01*
X14627574Y-28552216D01*
X14597536Y-28702000D01*
X14597536Y-29279943D01*
X14589362Y-29116632D01*
X14472340Y-28834116D01*
X14472340Y-17792869D01*
X14445553Y-17212465D01*
X14274976Y-16800656D01*
X14026215Y-16723390D01*
X13179605Y-17570000D01*
X14026215Y-18416610D01*
X14274976Y-18339344D01*
X14472340Y-17792869D01*
X14472340Y-28834116D01*
X14430397Y-28732857D01*
X14188213Y-28663392D01*
X14008608Y-28842997D01*
X14008608Y-28483787D01*
X13939143Y-28241603D01*
X13685045Y-28150949D01*
X13932261Y-27506964D01*
X13912436Y-26749368D01*
X13846610Y-26590450D01*
X13846610Y-18596215D01*
X13000000Y-17749605D01*
X12820395Y-17929210D01*
X12820395Y-17570000D01*
X11973785Y-16723390D01*
X11725024Y-16800656D01*
X11527660Y-17347131D01*
X11554447Y-17927535D01*
X11725024Y-18339344D01*
X11973785Y-18416610D01*
X12820395Y-17570000D01*
X12820395Y-17929210D01*
X12153390Y-18596215D01*
X12230656Y-18844976D01*
X12777131Y-19042340D01*
X13357535Y-19015553D01*
X13769344Y-18844976D01*
X13846610Y-18596215D01*
X13846610Y-26590450D01*
X13660657Y-26141520D01*
X13365777Y-26009828D01*
X13186172Y-26189433D01*
X13186172Y-25830223D01*
X13054480Y-25535343D01*
X12346964Y-25263739D01*
X11589368Y-25283564D01*
X10981520Y-25535343D01*
X10849828Y-25830223D01*
X12018000Y-26998395D01*
X13186172Y-25830223D01*
X13186172Y-26189433D01*
X12197605Y-27178000D01*
X12211747Y-27192142D01*
X12032142Y-27371747D01*
X12018000Y-27357605D01*
X11838395Y-27537210D01*
X11838395Y-27178000D01*
X10670223Y-26009828D01*
X10375343Y-26141520D01*
X10103739Y-26849036D01*
X10123564Y-27606632D01*
X10375343Y-28214480D01*
X10670223Y-28346172D01*
X11838395Y-27178000D01*
X11838395Y-27537210D01*
X10849828Y-28525777D01*
X10981520Y-28820657D01*
X11689036Y-29092261D01*
X11858966Y-29087814D01*
X11798856Y-29256302D01*
X11826638Y-29811368D01*
X11985603Y-30195143D01*
X12227787Y-30264608D01*
X13028395Y-29464000D01*
X13014252Y-29449857D01*
X13193857Y-29270252D01*
X13208000Y-29284395D01*
X14008608Y-28483787D01*
X14008608Y-28842997D01*
X13387605Y-29464000D01*
X14188213Y-30264608D01*
X14430397Y-30195143D01*
X14597536Y-29726658D01*
X14597536Y-30226000D01*
X14625722Y-30371274D01*
X14709596Y-30498956D01*
X14836216Y-30584426D01*
X14986000Y-30614464D01*
X16510000Y-30614464D01*
X16655274Y-30586278D01*
X16782956Y-30502404D01*
X16868426Y-30375784D01*
X16898464Y-30226000D01*
X16898464Y-28828896D01*
X17344963Y-28829286D01*
X17951995Y-28578466D01*
X18416834Y-28114437D01*
X18668713Y-27507845D01*
X18669286Y-26851037D01*
X18669286Y-30649800D01*
X13949640Y-30649800D01*
X14008608Y-30444213D01*
X13208000Y-29643605D01*
X12407392Y-30444213D01*
X12466359Y-30649800D01*
X9571286Y-30649800D01*
X9571286Y-19783037D01*
X9571286Y-9623037D01*
X9320466Y-9016005D01*
X8856437Y-8551166D01*
X8249845Y-8299287D01*
X7593037Y-8298714D01*
X6986005Y-8549534D01*
X6521166Y-9013563D01*
X6269287Y-9620155D01*
X6268714Y-10276963D01*
X6519534Y-10883995D01*
X6983563Y-11348834D01*
X7590155Y-11600713D01*
X8246963Y-11601286D01*
X8853995Y-11350466D01*
X9318834Y-10886437D01*
X9570713Y-10279845D01*
X9571286Y-9623037D01*
X9571286Y-19783037D01*
X9320466Y-19176005D01*
X8856437Y-18711166D01*
X8249845Y-18459287D01*
X7593037Y-18458714D01*
X6986005Y-18709534D01*
X6521166Y-19173563D01*
X6269287Y-19780155D01*
X6268714Y-20436963D01*
X6519534Y-21043995D01*
X6983563Y-21508834D01*
X7590155Y-21760713D01*
X8246963Y-21761286D01*
X8853995Y-21510466D01*
X9318834Y-21046437D01*
X9570713Y-20439845D01*
X9571286Y-19783037D01*
X9571286Y-30649800D01*
X4037448Y-30649800D01*
X3715461Y-30585752D01*
X4704229Y-30586616D01*
X6011681Y-30046388D01*
X7012872Y-29046942D01*
X7555381Y-27740435D01*
X7556616Y-26325771D01*
X7016388Y-25018319D01*
X6016942Y-24017128D01*
X5715000Y-23891750D01*
X5715000Y-18818810D01*
X5715000Y-18566191D01*
X5715000Y-17771750D01*
X5715000Y-17200250D01*
X5715000Y-16405809D01*
X5715000Y-16153190D01*
X5715000Y-13818810D01*
X5715000Y-13566191D01*
X5715000Y-12771750D01*
X5715000Y-12200250D01*
X5715000Y-11405809D01*
X5715000Y-11153190D01*
X5618327Y-10919801D01*
X5439698Y-10741173D01*
X5206309Y-10644500D01*
X2825750Y-10644500D01*
X2667000Y-10803250D01*
X2667000Y-12359000D01*
X5556250Y-12359000D01*
X5715000Y-12200250D01*
X5715000Y-12771750D01*
X5556250Y-12613000D01*
X2667000Y-12613000D01*
X2667000Y-14168750D01*
X2825750Y-14327500D01*
X5206309Y-14327500D01*
X5439698Y-14230827D01*
X5618327Y-14052199D01*
X5715000Y-13818810D01*
X5715000Y-16153190D01*
X5618327Y-15919801D01*
X5439698Y-15741173D01*
X5206309Y-15644500D01*
X2825750Y-15644500D01*
X2667000Y-15803250D01*
X2667000Y-17359000D01*
X5556250Y-17359000D01*
X5715000Y-17200250D01*
X5715000Y-17771750D01*
X5556250Y-17613000D01*
X2667000Y-17613000D01*
X2667000Y-19168750D01*
X2825750Y-19327500D01*
X5206309Y-19327500D01*
X5439698Y-19230827D01*
X5618327Y-19052199D01*
X5715000Y-18818810D01*
X5715000Y-23891750D01*
X4710435Y-23474619D01*
X3295771Y-23473384D01*
X1988319Y-24013612D01*
X987128Y-25013058D01*
X444619Y-26319565D01*
X443910Y-27131343D01*
X397633Y-27080195D01*
X380200Y-26992551D01*
X380200Y-19327500D01*
X2254250Y-19327500D01*
X2413000Y-19168750D01*
X2413000Y-17613000D01*
X2393000Y-17613000D01*
X2393000Y-17359000D01*
X2413000Y-17359000D01*
X2413000Y-15803250D01*
X2254250Y-15644500D01*
X380200Y-15644500D01*
X380200Y-14327500D01*
X2254250Y-14327500D01*
X2413000Y-14168750D01*
X2413000Y-12613000D01*
X2393000Y-12613000D01*
X2393000Y-12359000D01*
X2413000Y-12359000D01*
X2413000Y-10803250D01*
X2254250Y-10644500D01*
X380200Y-10644500D01*
X380200Y-4037448D01*
X444273Y-3715329D01*
X443384Y-4734229D01*
X983612Y-6041681D01*
X1983058Y-7042872D01*
X3289565Y-7585381D01*
X4704229Y-7586616D01*
X6011681Y-7046388D01*
X7012872Y-6046942D01*
X7555381Y-4740435D01*
X7556616Y-3325771D01*
X7016388Y-2018319D01*
X6016942Y-1017128D01*
X4710435Y-474619D01*
X3688679Y-473727D01*
X3724063Y-442536D01*
X4037448Y-380200D01*
X40962551Y-380200D01*
X41033172Y-394247D01*
X41127349Y-474109D01*
X40295771Y-473384D01*
X38988319Y-1013612D01*
X37987128Y-2013058D01*
X37444619Y-3319565D01*
X37443384Y-4734229D01*
X37983612Y-6041681D01*
X38983058Y-7042872D01*
X40289565Y-7585381D01*
X41704229Y-7586616D01*
X43011681Y-7046388D01*
X44012872Y-6046942D01*
X44555381Y-4740435D01*
X44556273Y-3718079D01*
X44619800Y-4037448D01*
X44619800Y-10644500D01*
X42703750Y-10644500D01*
X42545000Y-10803250D01*
X42545000Y-12359000D01*
X42565000Y-12359000D01*
X42565000Y-12613000D01*
X42545000Y-12613000D01*
X42545000Y-14168750D01*
X42703750Y-14327500D01*
X44619800Y-14327500D01*
X44619800Y-15644500D01*
X42703750Y-15644500D01*
X42545000Y-15803250D01*
X42545000Y-17359000D01*
X42565000Y-17359000D01*
X42565000Y-17613000D01*
X42545000Y-17613000D01*
X42545000Y-19168750D01*
X42703750Y-19327500D01*
X44619800Y-19327500D01*
X44619800Y-26992551D01*
M02*
