G04 #@! TF.FileFunction,Copper,L2,Bot,Signal*
%FSLAX46Y46*%
G04 Gerber Fmt 4.6, Leading zero omitted, Abs format (unit mm)*
G04 Created by KiCad (PCBNEW (after 2015-mar-04 BZR unknown)-product) date 6/9/2017 2:32:57 PM*
%MOMM*%
G01*
G04 APERTURE LIST*
%ADD10C,0.100000*%
%ADD11R,1.727200X1.727200*%
%ADD12O,1.727200X1.727200*%
%ADD13R,1.727200X2.032000*%
%ADD14O,1.727200X2.032000*%
%ADD15R,2.032000X1.727200*%
%ADD16O,2.032000X1.727200*%
%ADD17C,4.800600*%
%ADD18C,1.501140*%
%ADD19C,9.525000*%
%ADD20R,1.700000X1.700000*%
%ADD21O,1.700000X1.700000*%
%ADD22C,0.610000*%
%ADD23C,0.203200*%
%ADD24C,0.635000*%
%ADD25C,0.254000*%
G04 APERTURE END LIST*
D10*
D11*
X27686000Y-89789000D03*
D12*
X25146000Y-89789000D03*
D13*
X27432000Y-33020000D03*
D14*
X29972000Y-33020000D03*
X32512000Y-33020000D03*
D15*
X29464000Y-82042000D03*
D16*
X29464000Y-79502000D03*
X29464000Y-76962000D03*
D17*
X60960000Y-29972000D03*
X54864000Y-29972000D03*
X58674000Y-24892000D03*
D11*
X23495000Y-82550000D03*
D12*
X20955000Y-82550000D03*
X23495000Y-80010000D03*
X20955000Y-80010000D03*
X23495000Y-77470000D03*
X20955000Y-77470000D03*
X23495000Y-74930000D03*
X20955000Y-74930000D03*
X23495000Y-72390000D03*
X20955000Y-72390000D03*
X23495000Y-69850000D03*
X20955000Y-69850000D03*
X23495000Y-67310000D03*
X20955000Y-67310000D03*
X23495000Y-64770000D03*
X20955000Y-64770000D03*
X23495000Y-62230000D03*
X20955000Y-62230000D03*
X23495000Y-59690000D03*
X20955000Y-59690000D03*
X23495000Y-57150000D03*
X20955000Y-57150000D03*
X23495000Y-54610000D03*
X20955000Y-54610000D03*
X23495000Y-52070000D03*
X20955000Y-52070000D03*
X23495000Y-49530000D03*
X20955000Y-49530000D03*
X23495000Y-46990000D03*
X20955000Y-46990000D03*
X23495000Y-44450000D03*
X20955000Y-44450000D03*
X23495000Y-41910000D03*
X20955000Y-41910000D03*
X23495000Y-39370000D03*
X20955000Y-39370000D03*
X23495000Y-36830000D03*
X20955000Y-36830000D03*
X23495000Y-34290000D03*
X20955000Y-34290000D03*
D18*
X34389060Y-43688000D03*
X39270940Y-43688000D03*
D15*
X54102000Y-83058000D03*
D16*
X54102000Y-85598000D03*
X54102000Y-88138000D03*
X54102000Y-90678000D03*
D11*
X39116000Y-91694000D03*
D12*
X41656000Y-91694000D03*
X39116000Y-94234000D03*
X41656000Y-94234000D03*
D19*
X16000000Y-16000000D03*
X59000000Y-16000000D03*
X16000000Y-99000000D03*
X59000000Y-99000000D03*
D20*
X54356000Y-48895000D03*
D21*
X54356000Y-51435000D03*
X54356000Y-53975000D03*
X54356000Y-56515000D03*
D20*
X54356000Y-65024000D03*
D21*
X54356000Y-67564000D03*
X54356000Y-70104000D03*
X54356000Y-72644000D03*
X54356000Y-75184000D03*
X54356000Y-77724000D03*
D22*
X38227000Y-37465000D03*
X33020000Y-37465000D03*
X61341000Y-44831000D03*
X45339000Y-46101000D03*
X49022000Y-57785000D03*
X48509000Y-28639000D03*
X34798000Y-18669000D03*
X35941000Y-76581000D03*
X38862000Y-20828000D03*
X60706000Y-37846000D03*
X49911000Y-17272000D03*
X23368000Y-22860000D03*
X25908000Y-55372000D03*
X28448000Y-65024000D03*
X21082000Y-28194000D03*
X26670000Y-49022000D03*
X27432000Y-29210000D03*
X39878000Y-72898000D03*
X41656000Y-72898000D03*
X35560000Y-85725000D03*
X46736000Y-71120000D03*
X33782000Y-59436000D03*
X33782000Y-58166000D03*
X39878000Y-48768000D03*
X39624000Y-63500000D03*
X38100000Y-58801000D03*
X40640000Y-34798000D03*
X40640000Y-29464000D03*
X40386000Y-58674000D03*
X48641000Y-65024000D03*
X27940000Y-24130000D03*
X50546000Y-53848000D03*
X49022000Y-54483000D03*
X42926000Y-90551000D03*
X43180000Y-61976000D03*
X42926000Y-85725000D03*
X42418000Y-61214000D03*
X41656000Y-87376000D03*
X27686000Y-51562000D03*
X26000000Y-66000000D03*
X43180000Y-39370000D03*
X43434000Y-44450000D03*
X43942000Y-60706000D03*
X43688000Y-59944000D03*
X45212000Y-59690000D03*
X45974000Y-51435000D03*
X32131000Y-50800000D03*
X29591000Y-51054000D03*
X25400000Y-30480000D03*
X32500000Y-29250000D03*
D23*
X35560000Y-85725000D02*
X35560000Y-85852000D01*
D24*
X38227000Y-58674000D02*
X40386000Y-58674000D01*
X38100000Y-58801000D02*
X38227000Y-58674000D01*
D25*
X38862000Y-58674000D02*
X40386000Y-58674000D01*
D24*
X40640000Y-29464000D02*
X40640000Y-34798000D01*
D23*
X40640000Y-34798000D02*
X40640000Y-29464000D01*
D24*
X42291000Y-43561000D02*
X42291000Y-44831000D01*
X42291000Y-44831000D02*
X47371000Y-49911000D01*
X42291000Y-43561000D02*
X42291000Y-38989000D01*
X42291000Y-38989000D02*
X38750000Y-35448000D01*
X48641000Y-61976000D02*
X47371000Y-60706000D01*
X48641000Y-65024000D02*
X48641000Y-61976000D01*
X47371000Y-49911000D02*
X47371000Y-60706000D01*
X27940000Y-24130000D02*
X32630000Y-24130000D01*
X38750000Y-30250000D02*
X38750000Y-35448000D01*
X32630000Y-24130000D02*
X38750000Y-30250000D01*
D23*
X52959000Y-51435000D02*
X54356000Y-51435000D01*
X50546000Y-53848000D02*
X52959000Y-51435000D01*
D25*
X54356000Y-48895000D02*
X53086000Y-48895000D01*
X49022000Y-52959000D02*
X49022000Y-54483000D01*
X53086000Y-48895000D02*
X49022000Y-52959000D01*
D23*
X42926000Y-85725000D02*
X42926000Y-90551000D01*
X42926000Y-81026000D02*
X42926000Y-85725000D01*
X42926000Y-62230000D02*
X43180000Y-61976000D01*
X42926000Y-81026000D02*
X42926000Y-62230000D01*
X42418000Y-78740000D02*
X42418000Y-84963000D01*
X41656000Y-85725000D02*
X41656000Y-87376000D01*
X42418000Y-84963000D02*
X41656000Y-85725000D01*
X42418000Y-78740000D02*
X42418000Y-61214000D01*
D25*
X22225000Y-48260000D02*
X24384000Y-48260000D01*
X24384000Y-48260000D02*
X27686000Y-51562000D01*
D23*
X22225000Y-48260000D02*
X20955000Y-49530000D01*
X22000000Y-66000000D02*
X20955000Y-67045000D01*
X26000000Y-66000000D02*
X22000000Y-66000000D01*
X20955000Y-67045000D02*
X20955000Y-67310000D01*
X43434000Y-44450000D02*
X43180000Y-44196000D01*
X43180000Y-44196000D02*
X43180000Y-39370000D01*
X46736000Y-66548000D02*
X46228000Y-66040000D01*
X43942000Y-60706000D02*
X43942000Y-65278000D01*
X43942000Y-65278000D02*
X44704000Y-66040000D01*
X44704000Y-66040000D02*
X46228000Y-66040000D01*
X46736000Y-68326000D02*
X46736000Y-66548000D01*
X49784000Y-72644000D02*
X48768000Y-71628000D01*
X48768000Y-71628000D02*
X48768000Y-70358000D01*
X48768000Y-70358000D02*
X46736000Y-68326000D01*
X54356000Y-72644000D02*
X49784000Y-72644000D01*
X47244000Y-67310000D02*
X47244000Y-66294000D01*
X47244000Y-66294000D02*
X46228000Y-65278000D01*
X46228000Y-65278000D02*
X44958000Y-65278000D01*
X44958000Y-65278000D02*
X44450000Y-64770000D01*
X44450000Y-64770000D02*
X44450000Y-61214000D01*
X44450000Y-61214000D02*
X44704000Y-60960000D01*
X44704000Y-60960000D02*
X44704000Y-60452000D01*
X44704000Y-60452000D02*
X44196000Y-59944000D01*
X44196000Y-59944000D02*
X43688000Y-59944000D01*
X50038000Y-70104000D02*
X47244000Y-67310000D01*
X54356000Y-70104000D02*
X50038000Y-70104000D01*
X49530000Y-67564000D02*
X45212000Y-63246000D01*
X45212000Y-63246000D02*
X45212000Y-59690000D01*
X54356000Y-67564000D02*
X49530000Y-67564000D01*
D24*
X45974000Y-51435000D02*
X32766000Y-51435000D01*
X32766000Y-51435000D02*
X32131000Y-50800000D01*
X29591000Y-48641000D02*
X29591000Y-51054000D01*
X27940000Y-38862000D02*
X28194000Y-38862000D01*
X27813000Y-82042000D02*
X29464000Y-82042000D01*
X27305000Y-81534000D02*
X27813000Y-82042000D01*
X27305000Y-74549000D02*
X27305000Y-81534000D01*
X29591000Y-72263000D02*
X27305000Y-74549000D01*
X29591000Y-40259000D02*
X29591000Y-48641000D01*
X29591000Y-48641000D02*
X29591000Y-72263000D01*
X28194000Y-38862000D02*
X29591000Y-40259000D01*
X25400000Y-30480000D02*
X27432000Y-32512000D01*
X27432000Y-32512000D02*
X27432000Y-33020000D01*
X27432000Y-33020000D02*
X27432000Y-38354000D01*
X27432000Y-38354000D02*
X27940000Y-38862000D01*
D23*
X27940000Y-38862000D02*
X27432000Y-38354000D01*
D24*
X30480000Y-41148000D02*
X30480000Y-73406000D01*
X30480000Y-73406000D02*
X29464000Y-74422000D01*
X29464000Y-76962000D02*
X29464000Y-74422000D01*
X32512000Y-35052000D02*
X32512000Y-33020000D01*
X30480000Y-37084000D02*
X32512000Y-35052000D01*
X30480000Y-41148000D02*
X30480000Y-37084000D01*
X32512000Y-33020000D02*
X32512000Y-29262000D01*
X32512000Y-29262000D02*
X32500000Y-29250000D01*
D25*
G36*
X64315000Y-95733746D02*
X64224815Y-95515482D01*
X63996369Y-95286636D01*
X63996369Y-30570358D01*
X63994221Y-29362843D01*
X63536257Y-28257221D01*
X63123936Y-27987670D01*
X62944330Y-28167275D01*
X62944330Y-27808064D01*
X62674779Y-27395743D01*
X61710369Y-26998279D01*
X61558358Y-26935631D01*
X60898412Y-26936804D01*
X60837937Y-26876329D01*
X61250257Y-26606779D01*
X61710369Y-25490358D01*
X61708221Y-24282843D01*
X61250257Y-23177221D01*
X60837936Y-22907670D01*
X58853605Y-24892000D01*
X58867747Y-24906142D01*
X58688142Y-25085747D01*
X58674000Y-25071605D01*
X58494395Y-25251210D01*
X58494395Y-24892000D01*
X56510064Y-22907670D01*
X56097743Y-23177221D01*
X55637631Y-24293642D01*
X55639779Y-25501157D01*
X56097743Y-26606779D01*
X56510064Y-26876330D01*
X58494395Y-24892000D01*
X58494395Y-25251210D01*
X56689670Y-27055936D01*
X56959221Y-27468257D01*
X58075642Y-27928369D01*
X58735586Y-27927194D01*
X58796062Y-27987670D01*
X58383743Y-28257221D01*
X57923631Y-29373642D01*
X57925779Y-30581157D01*
X58383743Y-31686779D01*
X58796064Y-31956330D01*
X60780395Y-29972000D01*
X60766252Y-29957857D01*
X60945857Y-29778252D01*
X60960000Y-29792395D01*
X62944330Y-27808064D01*
X62944330Y-28167275D01*
X61139605Y-29972000D01*
X63123936Y-31956330D01*
X63536257Y-31686779D01*
X63996369Y-30570358D01*
X63996369Y-95286636D01*
X62944330Y-94232760D01*
X62944330Y-32135936D01*
X60960000Y-30151605D01*
X60780395Y-30331210D01*
X58975670Y-32135936D01*
X59245221Y-32548257D01*
X60361642Y-33008369D01*
X61569157Y-33006221D01*
X62674779Y-32548257D01*
X62944330Y-32135936D01*
X62944330Y-94232760D01*
X62649158Y-93937072D01*
X62649158Y-41697784D01*
X62649158Y-37697784D01*
X62510910Y-37363200D01*
X62255147Y-37106989D01*
X61920804Y-36968158D01*
X61558784Y-36967842D01*
X61224200Y-37106090D01*
X60967989Y-37361853D01*
X60829158Y-37696196D01*
X60828842Y-38058216D01*
X60967090Y-38392800D01*
X61222853Y-38649011D01*
X61557196Y-38787842D01*
X61919216Y-38788158D01*
X62253800Y-38649910D01*
X62510011Y-38394147D01*
X62648842Y-38059804D01*
X62649158Y-37697784D01*
X62649158Y-41697784D01*
X62510910Y-41363200D01*
X62255147Y-41106989D01*
X61920804Y-40968158D01*
X61558784Y-40967842D01*
X61224200Y-41106090D01*
X60967989Y-41361853D01*
X60829158Y-41696196D01*
X60828842Y-42058216D01*
X60967090Y-42392800D01*
X61222853Y-42649011D01*
X61557196Y-42787842D01*
X61919216Y-42788158D01*
X62253800Y-42649910D01*
X62510011Y-42394147D01*
X62648842Y-42059804D01*
X62649158Y-41697784D01*
X62649158Y-93937072D01*
X62493632Y-93781275D01*
X60230575Y-92841571D01*
X57899826Y-92839537D01*
X57899826Y-29370890D01*
X57438702Y-28254887D01*
X56585604Y-27400298D01*
X55470407Y-26937228D01*
X54262890Y-26936174D01*
X53146887Y-27397298D01*
X52292298Y-28250396D01*
X51829228Y-29365593D01*
X51828174Y-30573110D01*
X52289298Y-31689113D01*
X53142396Y-32543702D01*
X54257593Y-33006772D01*
X55465110Y-33007826D01*
X56581113Y-32546702D01*
X57435702Y-31693604D01*
X57898772Y-30578407D01*
X57899826Y-29370890D01*
X57899826Y-92839537D01*
X57780175Y-92839433D01*
X55870093Y-93628662D01*
X55870093Y-75184000D01*
X55757054Y-74615715D01*
X55435147Y-74133946D01*
X55105973Y-73914000D01*
X55435147Y-73694054D01*
X55757054Y-73212285D01*
X55870093Y-72644000D01*
X55757054Y-72075715D01*
X55435147Y-71593946D01*
X55105973Y-71374000D01*
X55435147Y-71154054D01*
X55757054Y-70672285D01*
X55870093Y-70104000D01*
X55757054Y-69535715D01*
X55435147Y-69053946D01*
X55105973Y-68834000D01*
X55435147Y-68614054D01*
X55757054Y-68132285D01*
X55870093Y-67564000D01*
X55757054Y-66995715D01*
X55435147Y-66513946D01*
X55392273Y-66485298D01*
X55448123Y-66474463D01*
X55660927Y-66334673D01*
X55803377Y-66123640D01*
X55853440Y-65874000D01*
X55853440Y-64174000D01*
X55806463Y-63931877D01*
X55797476Y-63918195D01*
X55797476Y-56871890D01*
X55676155Y-56642000D01*
X54483000Y-56642000D01*
X54483000Y-57835819D01*
X54712892Y-57956486D01*
X55237358Y-57710183D01*
X55627645Y-57281924D01*
X55797476Y-56871890D01*
X55797476Y-63918195D01*
X55666673Y-63719073D01*
X55455640Y-63576623D01*
X55206000Y-63526560D01*
X54229000Y-63526560D01*
X54229000Y-57835819D01*
X54229000Y-56642000D01*
X53035845Y-56642000D01*
X52914524Y-56871890D01*
X53084355Y-57281924D01*
X53474642Y-57710183D01*
X53999108Y-57956486D01*
X54229000Y-57835819D01*
X54229000Y-63526560D01*
X53506000Y-63526560D01*
X53263877Y-63573537D01*
X53051073Y-63713327D01*
X52908623Y-63924360D01*
X52858560Y-64174000D01*
X52858560Y-65874000D01*
X52905537Y-66116123D01*
X53045327Y-66328927D01*
X53256360Y-66471377D01*
X53321124Y-66484364D01*
X53276853Y-66513946D01*
X53067410Y-66827400D01*
X49835110Y-66827400D01*
X48929560Y-65921850D01*
X48942390Y-65916549D01*
X49005506Y-65903995D01*
X49058544Y-65868555D01*
X49172772Y-65821358D01*
X49261014Y-65733269D01*
X49314519Y-65697519D01*
X49349957Y-65644482D01*
X49437429Y-65557163D01*
X49485244Y-65442010D01*
X49520995Y-65388506D01*
X49533439Y-65325944D01*
X49580837Y-65211798D01*
X49580945Y-65087114D01*
X49593500Y-65024000D01*
X49593500Y-61976000D01*
X49520995Y-61611494D01*
X49314519Y-61302481D01*
X48323500Y-60311462D01*
X48323500Y-55113802D01*
X48488837Y-55279429D01*
X48834202Y-55422837D01*
X49208157Y-55423163D01*
X49553772Y-55280358D01*
X49818429Y-55016163D01*
X49961837Y-54670798D01*
X49961904Y-54593407D01*
X50012837Y-54644429D01*
X50358202Y-54787837D01*
X50732157Y-54788163D01*
X51077772Y-54645358D01*
X51342429Y-54381163D01*
X51485837Y-54035798D01*
X51485911Y-53949798D01*
X53146196Y-52289513D01*
X53276853Y-52485054D01*
X53606026Y-52704999D01*
X53276853Y-52924946D01*
X52954946Y-53406715D01*
X52841907Y-53975000D01*
X52954946Y-54543285D01*
X53276853Y-55025054D01*
X53617553Y-55252702D01*
X53474642Y-55319817D01*
X53084355Y-55748076D01*
X52914524Y-56158110D01*
X53035845Y-56388000D01*
X54229000Y-56388000D01*
X54229000Y-56368000D01*
X54483000Y-56368000D01*
X54483000Y-56388000D01*
X55676155Y-56388000D01*
X55797476Y-56158110D01*
X55627645Y-55748076D01*
X55237358Y-55319817D01*
X55094446Y-55252702D01*
X55435147Y-55025054D01*
X55757054Y-54543285D01*
X55870093Y-53975000D01*
X55757054Y-53406715D01*
X55435147Y-52924946D01*
X55105973Y-52705000D01*
X55435147Y-52485054D01*
X55757054Y-52003285D01*
X55870093Y-51435000D01*
X55757054Y-50866715D01*
X55435147Y-50384946D01*
X55392273Y-50356298D01*
X55448123Y-50345463D01*
X55660927Y-50205673D01*
X55803377Y-49994640D01*
X55853440Y-49745000D01*
X55853440Y-48045000D01*
X55806463Y-47802877D01*
X55666673Y-47590073D01*
X55455640Y-47447623D01*
X55206000Y-47397560D01*
X53506000Y-47397560D01*
X53263877Y-47444537D01*
X53051073Y-47584327D01*
X52908623Y-47795360D01*
X52858560Y-48045000D01*
X52858560Y-48178240D01*
X52794395Y-48191004D01*
X52547185Y-48356185D01*
X48483185Y-52420185D01*
X48323500Y-52659169D01*
X48323500Y-49911000D01*
X48250995Y-49546494D01*
X48044519Y-49237481D01*
X44010122Y-45203084D01*
X44230429Y-44983163D01*
X44373837Y-44637798D01*
X44374163Y-44263843D01*
X44231358Y-43918228D01*
X43967163Y-43653571D01*
X43916600Y-43632575D01*
X43916600Y-39962887D01*
X43976429Y-39903163D01*
X44119837Y-39557798D01*
X44120163Y-39183843D01*
X43977358Y-38838228D01*
X43713163Y-38573571D01*
X43367798Y-38430163D01*
X43040956Y-38429878D01*
X42964519Y-38315481D01*
X40340486Y-35691448D01*
X40452202Y-35737837D01*
X40576885Y-35737945D01*
X40640000Y-35750500D01*
X40702563Y-35738055D01*
X40826157Y-35738163D01*
X40941390Y-35690549D01*
X41004506Y-35677995D01*
X41057544Y-35642555D01*
X41171772Y-35595358D01*
X41260014Y-35507269D01*
X41313519Y-35471519D01*
X41348957Y-35418482D01*
X41436429Y-35331163D01*
X41484244Y-35216010D01*
X41519995Y-35162506D01*
X41532439Y-35099944D01*
X41579837Y-34985798D01*
X41579945Y-34861114D01*
X41592500Y-34798000D01*
X41592500Y-29464000D01*
X41580055Y-29401436D01*
X41580163Y-29277843D01*
X41532549Y-29162609D01*
X41519995Y-29099494D01*
X41484555Y-29046455D01*
X41437358Y-28932228D01*
X41349269Y-28843985D01*
X41313519Y-28790481D01*
X41260482Y-28755042D01*
X41173163Y-28667571D01*
X41058010Y-28619755D01*
X41004506Y-28584005D01*
X40941944Y-28571560D01*
X40827798Y-28524163D01*
X40703114Y-28524054D01*
X40640000Y-28511500D01*
X40577436Y-28523944D01*
X40453843Y-28523837D01*
X40338609Y-28571450D01*
X40275494Y-28584005D01*
X40222455Y-28619444D01*
X40108228Y-28666642D01*
X40019985Y-28754730D01*
X39966481Y-28790481D01*
X39931042Y-28843517D01*
X39843571Y-28930837D01*
X39795755Y-29045989D01*
X39760005Y-29099494D01*
X39747560Y-29162055D01*
X39700163Y-29276202D01*
X39700054Y-29400885D01*
X39687500Y-29464000D01*
X39687500Y-30174590D01*
X39629995Y-29885494D01*
X39423519Y-29576481D01*
X33303519Y-23456481D01*
X32994506Y-23250005D01*
X32630000Y-23177500D01*
X27940000Y-23177500D01*
X27877436Y-23189944D01*
X27753843Y-23189837D01*
X27638609Y-23237450D01*
X27575494Y-23250005D01*
X27522455Y-23285444D01*
X27408228Y-23332642D01*
X27319985Y-23420730D01*
X27266481Y-23456481D01*
X27231042Y-23509517D01*
X27143571Y-23596837D01*
X27095755Y-23711989D01*
X27060005Y-23765494D01*
X27047560Y-23828055D01*
X27000163Y-23942202D01*
X27000054Y-24066885D01*
X26987500Y-24130000D01*
X26999944Y-24192563D01*
X26999837Y-24316157D01*
X27047450Y-24431390D01*
X27060005Y-24494506D01*
X27095444Y-24547544D01*
X27142642Y-24661772D01*
X27230730Y-24750014D01*
X27266481Y-24803519D01*
X27319517Y-24838957D01*
X27406837Y-24926429D01*
X27521989Y-24974244D01*
X27575494Y-25009995D01*
X27638055Y-25022439D01*
X27752202Y-25069837D01*
X27876885Y-25069945D01*
X27940000Y-25082500D01*
X32235462Y-25082500D01*
X37797500Y-30644538D01*
X37797500Y-35448000D01*
X37870005Y-35812506D01*
X38076481Y-36121519D01*
X41338500Y-39383538D01*
X41338500Y-43561000D01*
X41338500Y-44831000D01*
X41411005Y-45195506D01*
X41617481Y-45504519D01*
X46418500Y-50305538D01*
X46418500Y-50601754D01*
X46392010Y-50590755D01*
X46338506Y-50555005D01*
X46275944Y-50542560D01*
X46161798Y-50495163D01*
X46037114Y-50495054D01*
X45974000Y-50482500D01*
X38259625Y-50482500D01*
X38477879Y-45790049D01*
X39563483Y-45066312D01*
X40054777Y-44863314D01*
X40444884Y-44473887D01*
X40656269Y-43964816D01*
X40656750Y-43413602D01*
X40446254Y-42904163D01*
X40410319Y-42868165D01*
X40516298Y-38735000D01*
X33144012Y-38735000D01*
X33240336Y-42876936D01*
X33215116Y-42902113D01*
X33003731Y-43411184D01*
X33003250Y-43962398D01*
X33213746Y-44471837D01*
X33603173Y-44861944D01*
X34112244Y-45073329D01*
X34490677Y-45073659D01*
X34506216Y-45082292D01*
X35999497Y-45206732D01*
X36955879Y-46521757D01*
X36848831Y-50482500D01*
X33160538Y-50482500D01*
X32804519Y-50126481D01*
X32751482Y-50091042D01*
X32664163Y-50003571D01*
X32549010Y-49955755D01*
X32495506Y-49920005D01*
X32432944Y-49907560D01*
X32318798Y-49860163D01*
X32194114Y-49860054D01*
X32131000Y-49847500D01*
X32068436Y-49859944D01*
X31944843Y-49859837D01*
X31829609Y-49907450D01*
X31766494Y-49920005D01*
X31713455Y-49955444D01*
X31599228Y-50002642D01*
X31510985Y-50090730D01*
X31457481Y-50126481D01*
X31432500Y-50163867D01*
X31432500Y-41148000D01*
X31432500Y-37478538D01*
X33185519Y-35725519D01*
X33391995Y-35416506D01*
X33464500Y-35052000D01*
X33464500Y-34336023D01*
X33571670Y-34264415D01*
X33896526Y-33778234D01*
X34010600Y-33204745D01*
X34010600Y-32835255D01*
X33896526Y-32261766D01*
X33571670Y-31775585D01*
X33464500Y-31703976D01*
X33464500Y-29262000D01*
X33440097Y-29139319D01*
X33440163Y-29063843D01*
X33411086Y-28993471D01*
X33391995Y-28897495D01*
X33391995Y-28897494D01*
X33338103Y-28816840D01*
X33338103Y-28816839D01*
X33297358Y-28718228D01*
X33221314Y-28642051D01*
X33221312Y-28642049D01*
X33185520Y-28588481D01*
X33173519Y-28576481D01*
X33120482Y-28541042D01*
X33033163Y-28453571D01*
X32918010Y-28405755D01*
X32864506Y-28370005D01*
X32801944Y-28357560D01*
X32687798Y-28310163D01*
X32563114Y-28310054D01*
X32500000Y-28297500D01*
X32437436Y-28309944D01*
X32313843Y-28309837D01*
X32198609Y-28357450D01*
X32135494Y-28370005D01*
X32082455Y-28405444D01*
X31968228Y-28452642D01*
X31879985Y-28540730D01*
X31826481Y-28576481D01*
X31791042Y-28629517D01*
X31703571Y-28716837D01*
X31655755Y-28831989D01*
X31620005Y-28885494D01*
X31607560Y-28948055D01*
X31560163Y-29062202D01*
X31560054Y-29186885D01*
X31547500Y-29250000D01*
X31559500Y-29310327D01*
X31559500Y-31703976D01*
X31452330Y-31775585D01*
X31242000Y-32090365D01*
X31031670Y-31775585D01*
X30545489Y-31450729D01*
X29972000Y-31336655D01*
X29398511Y-31450729D01*
X28912330Y-31775585D01*
X28901784Y-31791367D01*
X28896063Y-31761877D01*
X28756273Y-31549073D01*
X28545240Y-31406623D01*
X28295600Y-31356560D01*
X27623598Y-31356560D01*
X26073519Y-29806481D01*
X26020482Y-29771042D01*
X25933163Y-29683571D01*
X25818010Y-29635755D01*
X25764506Y-29600005D01*
X25701944Y-29587560D01*
X25587798Y-29540163D01*
X25463114Y-29540054D01*
X25400000Y-29527500D01*
X25337436Y-29539944D01*
X25213843Y-29539837D01*
X25098609Y-29587450D01*
X25035494Y-29600005D01*
X24982455Y-29635444D01*
X24868228Y-29682642D01*
X24779985Y-29770730D01*
X24726481Y-29806481D01*
X24691042Y-29859517D01*
X24603571Y-29946837D01*
X24555755Y-30061989D01*
X24520005Y-30115494D01*
X24507560Y-30178055D01*
X24460163Y-30292202D01*
X24460054Y-30416885D01*
X24447500Y-30480000D01*
X24459944Y-30542563D01*
X24459837Y-30666157D01*
X24507450Y-30781390D01*
X24520005Y-30844506D01*
X24555444Y-30897544D01*
X24602642Y-31011772D01*
X24690730Y-31100014D01*
X24726481Y-31153519D01*
X25920960Y-32347998D01*
X25920960Y-34036000D01*
X25967937Y-34278123D01*
X26107727Y-34490927D01*
X26318760Y-34633377D01*
X26479500Y-34665611D01*
X26479500Y-38354000D01*
X26552005Y-38718506D01*
X26758481Y-39027519D01*
X27266480Y-39535519D01*
X27266481Y-39535519D01*
X27575494Y-39741995D01*
X27764565Y-39779603D01*
X28638500Y-40653538D01*
X28638500Y-48641000D01*
X28638500Y-51054000D01*
X28638500Y-71868462D01*
X28626163Y-71880799D01*
X28626163Y-51375843D01*
X28483358Y-51030228D01*
X28219163Y-50765571D01*
X27873798Y-50622163D01*
X27823749Y-50622119D01*
X24922815Y-47721185D01*
X24840338Y-47666076D01*
X24840338Y-47666075D01*
X24908885Y-47563489D01*
X25022959Y-46990000D01*
X24908885Y-46416511D01*
X24584029Y-45930330D01*
X24269248Y-45720000D01*
X24584029Y-45509670D01*
X24908885Y-45023489D01*
X25022959Y-44450000D01*
X24908885Y-43876511D01*
X24584029Y-43390330D01*
X24269248Y-43180000D01*
X24584029Y-42969670D01*
X24908885Y-42483489D01*
X25022959Y-41910000D01*
X24908885Y-41336511D01*
X24584029Y-40850330D01*
X24269248Y-40640000D01*
X24584029Y-40429670D01*
X24908885Y-39943489D01*
X25022959Y-39370000D01*
X25022959Y-34290000D01*
X24908885Y-33716511D01*
X24584029Y-33230330D01*
X24097848Y-32905474D01*
X23524359Y-32791400D01*
X23465641Y-32791400D01*
X22892152Y-32905474D01*
X22405971Y-33230330D01*
X22225000Y-33501172D01*
X22044029Y-33230330D01*
X21557848Y-32905474D01*
X20984359Y-32791400D01*
X20925641Y-32791400D01*
X20352152Y-32905474D01*
X19865971Y-33230330D01*
X19541115Y-33716511D01*
X19427041Y-34290000D01*
X19541115Y-34863489D01*
X19865971Y-35349670D01*
X20189228Y-35565663D01*
X20066510Y-35623179D01*
X19672312Y-36055053D01*
X19500042Y-36470974D01*
X19621183Y-36703000D01*
X20828000Y-36703000D01*
X20828000Y-36683000D01*
X21082000Y-36683000D01*
X21082000Y-36703000D01*
X22161183Y-36703000D01*
X22288817Y-36703000D01*
X23368000Y-36703000D01*
X23368000Y-36683000D01*
X23622000Y-36683000D01*
X23622000Y-36703000D01*
X24828817Y-36703000D01*
X24949958Y-36470974D01*
X24777688Y-36055053D01*
X24383490Y-35623179D01*
X24260771Y-35565663D01*
X24584029Y-35349670D01*
X24908885Y-34863489D01*
X25022959Y-34290000D01*
X25022959Y-39370000D01*
X24908885Y-38796511D01*
X24584029Y-38310330D01*
X24260771Y-38094336D01*
X24383490Y-38036821D01*
X24777688Y-37604947D01*
X24949958Y-37189026D01*
X24828817Y-36957000D01*
X23622000Y-36957000D01*
X23622000Y-36977000D01*
X23368000Y-36977000D01*
X23368000Y-36957000D01*
X22288817Y-36957000D01*
X22161183Y-36957000D01*
X21082000Y-36957000D01*
X21082000Y-36977000D01*
X20828000Y-36977000D01*
X20828000Y-36957000D01*
X19621183Y-36957000D01*
X19500042Y-37189026D01*
X19672312Y-37604947D01*
X20066510Y-38036821D01*
X20189228Y-38094336D01*
X19865971Y-38310330D01*
X19541115Y-38796511D01*
X19427041Y-39370000D01*
X19541115Y-39943489D01*
X19865971Y-40429670D01*
X20180751Y-40640000D01*
X19865971Y-40850330D01*
X19541115Y-41336511D01*
X19427041Y-41910000D01*
X19541115Y-42483489D01*
X19865971Y-42969670D01*
X20180751Y-43180000D01*
X19865971Y-43390330D01*
X19541115Y-43876511D01*
X19427041Y-44450000D01*
X19541115Y-45023489D01*
X19865971Y-45509670D01*
X20180751Y-45720000D01*
X19865971Y-45930330D01*
X19541115Y-46416511D01*
X19427041Y-46990000D01*
X19541115Y-47563489D01*
X19865971Y-48049670D01*
X20180751Y-48260000D01*
X19865971Y-48470330D01*
X19541115Y-48956511D01*
X19427041Y-49530000D01*
X19541115Y-50103489D01*
X19865971Y-50589670D01*
X20180751Y-50800000D01*
X19865971Y-51010330D01*
X19541115Y-51496511D01*
X19427041Y-52070000D01*
X19541115Y-52643489D01*
X19865971Y-53129670D01*
X20180751Y-53340000D01*
X19865971Y-53550330D01*
X19541115Y-54036511D01*
X19427041Y-54610000D01*
X19541115Y-55183489D01*
X19865971Y-55669670D01*
X20180751Y-55880000D01*
X19865971Y-56090330D01*
X19541115Y-56576511D01*
X19427041Y-57150000D01*
X19541115Y-57723489D01*
X19865971Y-58209670D01*
X20180751Y-58420000D01*
X19865971Y-58630330D01*
X19541115Y-59116511D01*
X19427041Y-59690000D01*
X19541115Y-60263489D01*
X19865971Y-60749670D01*
X20180751Y-60960000D01*
X19865971Y-61170330D01*
X19541115Y-61656511D01*
X19427041Y-62230000D01*
X19541115Y-62803489D01*
X19865971Y-63289670D01*
X20180751Y-63500000D01*
X19865971Y-63710330D01*
X19541115Y-64196511D01*
X19427041Y-64770000D01*
X19541115Y-65343489D01*
X19865971Y-65829670D01*
X20180751Y-66040000D01*
X19865971Y-66250330D01*
X19541115Y-66736511D01*
X19427041Y-67310000D01*
X19541115Y-67883489D01*
X19865971Y-68369670D01*
X20180751Y-68580000D01*
X19865971Y-68790330D01*
X19541115Y-69276511D01*
X19427041Y-69850000D01*
X19541115Y-70423489D01*
X19865971Y-70909670D01*
X20180751Y-71120000D01*
X19865971Y-71330330D01*
X19541115Y-71816511D01*
X19427041Y-72390000D01*
X19541115Y-72963489D01*
X19865971Y-73449670D01*
X20180751Y-73660000D01*
X19865971Y-73870330D01*
X19541115Y-74356511D01*
X19427041Y-74930000D01*
X19541115Y-75503489D01*
X19865971Y-75989670D01*
X20180751Y-76200000D01*
X19865971Y-76410330D01*
X19541115Y-76896511D01*
X19427041Y-77470000D01*
X19541115Y-78043489D01*
X19865971Y-78529670D01*
X20180751Y-78740000D01*
X19865971Y-78950330D01*
X19541115Y-79436511D01*
X19427041Y-80010000D01*
X19541115Y-80583489D01*
X19865971Y-81069670D01*
X20189228Y-81285663D01*
X20066510Y-81343179D01*
X19672312Y-81775053D01*
X19500042Y-82190974D01*
X19621183Y-82423000D01*
X20828000Y-82423000D01*
X20828000Y-82403000D01*
X21082000Y-82403000D01*
X21082000Y-82423000D01*
X22155150Y-82423000D01*
X22288817Y-82423000D01*
X23368000Y-82423000D01*
X23368000Y-82403000D01*
X23622000Y-82403000D01*
X23622000Y-82423000D01*
X24834850Y-82423000D01*
X24993600Y-82264250D01*
X24993600Y-81812709D01*
X24993600Y-81560090D01*
X24896927Y-81326701D01*
X24718298Y-81148073D01*
X24562976Y-81083736D01*
X24584029Y-81069670D01*
X24908885Y-80583489D01*
X25022959Y-80010000D01*
X24908885Y-79436511D01*
X24584029Y-78950330D01*
X24269248Y-78740000D01*
X24584029Y-78529670D01*
X24908885Y-78043489D01*
X25022959Y-77470000D01*
X24908885Y-76896511D01*
X24584029Y-76410330D01*
X24269248Y-76200000D01*
X24584029Y-75989670D01*
X24908885Y-75503489D01*
X25022959Y-74930000D01*
X24908885Y-74356511D01*
X24584029Y-73870330D01*
X24269248Y-73660000D01*
X24584029Y-73449670D01*
X24908885Y-72963489D01*
X25022959Y-72390000D01*
X24908885Y-71816511D01*
X24584029Y-71330330D01*
X24269248Y-71120000D01*
X24584029Y-70909670D01*
X24908885Y-70423489D01*
X25022959Y-69850000D01*
X24908885Y-69276511D01*
X24584029Y-68790330D01*
X24269248Y-68580000D01*
X24584029Y-68369670D01*
X24908885Y-67883489D01*
X25022959Y-67310000D01*
X24908902Y-66736600D01*
X25407112Y-66736600D01*
X25466837Y-66796429D01*
X25812202Y-66939837D01*
X26186157Y-66940163D01*
X26531772Y-66797358D01*
X26796429Y-66533163D01*
X26939837Y-66187798D01*
X26940163Y-65813843D01*
X26797358Y-65468228D01*
X26533163Y-65203571D01*
X26187798Y-65060163D01*
X25813843Y-65059837D01*
X25468228Y-65202642D01*
X25407363Y-65263400D01*
X24924815Y-65263400D01*
X25022959Y-64770000D01*
X24908885Y-64196511D01*
X24584029Y-63710330D01*
X24269248Y-63500000D01*
X24584029Y-63289670D01*
X24908885Y-62803489D01*
X25022959Y-62230000D01*
X24908885Y-61656511D01*
X24584029Y-61170330D01*
X24269248Y-60960000D01*
X24584029Y-60749670D01*
X24908885Y-60263489D01*
X25022959Y-59690000D01*
X24908885Y-59116511D01*
X24584029Y-58630330D01*
X24269248Y-58420000D01*
X24584029Y-58209670D01*
X24908885Y-57723489D01*
X25022959Y-57150000D01*
X24908885Y-56576511D01*
X24584029Y-56090330D01*
X24269248Y-55880000D01*
X24584029Y-55669670D01*
X24908885Y-55183489D01*
X25022959Y-54610000D01*
X24908885Y-54036511D01*
X24584029Y-53550330D01*
X24269248Y-53340000D01*
X24584029Y-53129670D01*
X24908885Y-52643489D01*
X25022959Y-52070000D01*
X24908885Y-51496511D01*
X24584029Y-51010330D01*
X24269248Y-50800000D01*
X24584029Y-50589670D01*
X24908885Y-50103489D01*
X24948865Y-49902495D01*
X26745879Y-51699509D01*
X26745837Y-51748157D01*
X26888642Y-52093772D01*
X27152837Y-52358429D01*
X27498202Y-52501837D01*
X27872157Y-52502163D01*
X28217772Y-52359358D01*
X28482429Y-52095163D01*
X28625837Y-51749798D01*
X28626163Y-51375843D01*
X28626163Y-71880799D01*
X26631481Y-73875481D01*
X26425005Y-74184494D01*
X26352500Y-74549000D01*
X26352500Y-81534000D01*
X26425005Y-81898506D01*
X26631481Y-82207519D01*
X27139480Y-82715519D01*
X27139481Y-82715519D01*
X27448494Y-82921995D01*
X27813000Y-82994500D01*
X27817808Y-82994500D01*
X27847537Y-83147723D01*
X27987327Y-83360527D01*
X28198360Y-83502977D01*
X28448000Y-83553040D01*
X30480000Y-83553040D01*
X30722123Y-83506063D01*
X30934927Y-83366273D01*
X31077377Y-83155240D01*
X31127440Y-82905600D01*
X31127440Y-81178400D01*
X31080463Y-80936277D01*
X30940673Y-80723473D01*
X30729640Y-80581023D01*
X30691037Y-80573281D01*
X30708415Y-80561670D01*
X31033271Y-80075489D01*
X31147345Y-79502000D01*
X31033271Y-78928511D01*
X30708415Y-78442330D01*
X30393634Y-78232000D01*
X30708415Y-78021670D01*
X31033271Y-77535489D01*
X31147345Y-76962000D01*
X31033271Y-76388511D01*
X30708415Y-75902330D01*
X30416500Y-75707278D01*
X30416500Y-74816538D01*
X31153519Y-74079519D01*
X31359995Y-73770506D01*
X31432500Y-73406000D01*
X31432500Y-51436132D01*
X31457481Y-51473519D01*
X32092481Y-52108519D01*
X32401494Y-52314995D01*
X32401495Y-52314995D01*
X32766000Y-52387500D01*
X45974000Y-52387500D01*
X46036563Y-52375055D01*
X46160157Y-52375163D01*
X46275390Y-52327549D01*
X46338506Y-52314995D01*
X46391544Y-52279555D01*
X46418500Y-52268418D01*
X46418500Y-60706000D01*
X46491005Y-61070506D01*
X46697481Y-61379519D01*
X47688500Y-62370538D01*
X47688500Y-64680790D01*
X45948600Y-62940890D01*
X45948600Y-60282887D01*
X46008429Y-60223163D01*
X46151837Y-59877798D01*
X46152163Y-59503843D01*
X46009358Y-59158228D01*
X45745163Y-58893571D01*
X45399798Y-58750163D01*
X45025843Y-58749837D01*
X44680228Y-58892642D01*
X44415571Y-59156837D01*
X44379425Y-59243885D01*
X44301919Y-59228468D01*
X44221163Y-59147571D01*
X43875798Y-59004163D01*
X43501843Y-59003837D01*
X43156228Y-59146642D01*
X42891571Y-59410837D01*
X42748163Y-59756202D01*
X42747837Y-60130157D01*
X42849079Y-60375182D01*
X42605798Y-60274163D01*
X42231843Y-60273837D01*
X41886228Y-60416642D01*
X41621571Y-60680837D01*
X41478163Y-61026202D01*
X41477837Y-61400157D01*
X41620642Y-61745772D01*
X41681400Y-61806636D01*
X41681400Y-78740000D01*
X41681400Y-84657890D01*
X41338500Y-85000790D01*
X41338500Y-58674000D01*
X41326055Y-58611436D01*
X41326163Y-58487843D01*
X41278549Y-58372609D01*
X41265995Y-58309494D01*
X41230555Y-58256455D01*
X41183358Y-58142228D01*
X41095269Y-58053985D01*
X41059519Y-58000481D01*
X41006482Y-57965042D01*
X40919163Y-57877571D01*
X40804010Y-57829755D01*
X40750506Y-57794005D01*
X40687944Y-57781560D01*
X40573798Y-57734163D01*
X40449114Y-57734054D01*
X40386000Y-57721500D01*
X38227000Y-57721500D01*
X37862494Y-57794005D01*
X37553481Y-58000481D01*
X37426481Y-58127481D01*
X37391042Y-58180517D01*
X37303571Y-58267837D01*
X37255755Y-58382989D01*
X37220005Y-58436494D01*
X37207560Y-58499055D01*
X37160163Y-58613202D01*
X37160054Y-58737885D01*
X37147500Y-58801000D01*
X37159944Y-58863563D01*
X37159837Y-58987157D01*
X37207450Y-59102390D01*
X37220005Y-59165506D01*
X37255444Y-59218544D01*
X37302642Y-59332772D01*
X37390730Y-59421014D01*
X37426481Y-59474519D01*
X37479517Y-59509957D01*
X37566837Y-59597429D01*
X37681989Y-59645244D01*
X37735494Y-59680995D01*
X37798055Y-59693439D01*
X37912202Y-59740837D01*
X38036885Y-59740945D01*
X38100000Y-59753500D01*
X38162563Y-59741055D01*
X38286157Y-59741163D01*
X38401390Y-59693549D01*
X38464506Y-59680995D01*
X38517544Y-59645555D01*
X38563663Y-59626500D01*
X40386000Y-59626500D01*
X40448563Y-59614055D01*
X40572157Y-59614163D01*
X40687390Y-59566549D01*
X40750506Y-59553995D01*
X40803544Y-59518555D01*
X40917772Y-59471358D01*
X41006014Y-59383269D01*
X41059519Y-59347519D01*
X41094957Y-59294482D01*
X41182429Y-59207163D01*
X41230244Y-59092010D01*
X41265995Y-59038506D01*
X41278439Y-58975944D01*
X41325837Y-58861798D01*
X41325945Y-58737114D01*
X41338500Y-58674000D01*
X41338500Y-85000790D01*
X41135145Y-85204145D01*
X40975470Y-85443115D01*
X40919400Y-85725000D01*
X40919400Y-86783112D01*
X40859571Y-86842837D01*
X40716163Y-87188202D01*
X40715837Y-87562157D01*
X40858642Y-87907772D01*
X41122837Y-88172429D01*
X41468202Y-88315837D01*
X41842157Y-88316163D01*
X42187772Y-88173358D01*
X42189400Y-88171732D01*
X42189400Y-89958112D01*
X42129571Y-90017837D01*
X42027574Y-90263470D01*
X41685359Y-90195400D01*
X41626641Y-90195400D01*
X41053152Y-90309474D01*
X40586470Y-90621300D01*
X40580063Y-90588277D01*
X40440273Y-90375473D01*
X40229240Y-90233023D01*
X39979600Y-90182960D01*
X38252400Y-90182960D01*
X38010277Y-90229937D01*
X37797473Y-90369727D01*
X37655023Y-90580760D01*
X37604960Y-90830400D01*
X37604960Y-92557600D01*
X37651937Y-92799723D01*
X37791727Y-93012527D01*
X38002760Y-93154977D01*
X38043659Y-93163179D01*
X38026971Y-93174330D01*
X37702115Y-93660511D01*
X37588041Y-94234000D01*
X37702115Y-94807489D01*
X38026971Y-95293670D01*
X38513152Y-95618526D01*
X39086641Y-95732600D01*
X39145359Y-95732600D01*
X39718848Y-95618526D01*
X40205029Y-95293670D01*
X40386000Y-95022827D01*
X40566971Y-95293670D01*
X41053152Y-95618526D01*
X41626641Y-95732600D01*
X41685359Y-95732600D01*
X42258848Y-95618526D01*
X42745029Y-95293670D01*
X43069885Y-94807489D01*
X43183959Y-94234000D01*
X43069885Y-93660511D01*
X42745029Y-93174330D01*
X42430248Y-92964000D01*
X42745029Y-92753670D01*
X43069885Y-92267489D01*
X43183959Y-91694000D01*
X43141223Y-91479153D01*
X43457772Y-91348358D01*
X43722429Y-91084163D01*
X43865837Y-90738798D01*
X43866163Y-90364843D01*
X43723358Y-90019228D01*
X43662600Y-89958363D01*
X43662600Y-86317887D01*
X43722429Y-86258163D01*
X43865837Y-85912798D01*
X43866163Y-85538843D01*
X43723358Y-85193228D01*
X43662600Y-85132363D01*
X43662600Y-81026000D01*
X43662600Y-66040310D01*
X44183145Y-66560855D01*
X44422115Y-66720530D01*
X44422116Y-66720530D01*
X44704000Y-66776600D01*
X45922890Y-66776600D01*
X45999400Y-66853110D01*
X45999400Y-68326000D01*
X46055470Y-68607885D01*
X46215145Y-68846855D01*
X48031400Y-70663110D01*
X48031400Y-71628000D01*
X48087470Y-71909885D01*
X48247145Y-72148855D01*
X49263145Y-73164855D01*
X49502115Y-73324530D01*
X49784000Y-73380600D01*
X53067410Y-73380600D01*
X53276853Y-73694054D01*
X53606026Y-73914000D01*
X53276853Y-74133946D01*
X52954946Y-74615715D01*
X52841907Y-75184000D01*
X52954946Y-75752285D01*
X53276853Y-76234054D01*
X53617553Y-76461702D01*
X53474642Y-76528817D01*
X53084355Y-76957076D01*
X52914524Y-77367110D01*
X53035845Y-77597000D01*
X54229000Y-77597000D01*
X54229000Y-77577000D01*
X54483000Y-77577000D01*
X54483000Y-77597000D01*
X55676155Y-77597000D01*
X55797476Y-77367110D01*
X55627645Y-76957076D01*
X55237358Y-76528817D01*
X55094446Y-76461702D01*
X55435147Y-76234054D01*
X55757054Y-75752285D01*
X55870093Y-75184000D01*
X55870093Y-93628662D01*
X55797476Y-93658667D01*
X55797476Y-78080890D01*
X55676155Y-77851000D01*
X54483000Y-77851000D01*
X54483000Y-79044819D01*
X54712892Y-79165486D01*
X55237358Y-78919183D01*
X55627645Y-78490924D01*
X55797476Y-78080890D01*
X55797476Y-93658667D01*
X55785345Y-93663679D01*
X55785345Y-90678000D01*
X55671271Y-90104511D01*
X55346415Y-89618330D01*
X55031634Y-89408000D01*
X55346415Y-89197670D01*
X55671271Y-88711489D01*
X55785345Y-88138000D01*
X55671271Y-87564511D01*
X55346415Y-87078330D01*
X55031634Y-86868000D01*
X55346415Y-86657670D01*
X55671271Y-86171489D01*
X55785345Y-85598000D01*
X55671271Y-85024511D01*
X55346415Y-84538330D01*
X55324219Y-84523499D01*
X55477698Y-84459927D01*
X55656327Y-84281299D01*
X55753000Y-84047910D01*
X55753000Y-83795291D01*
X55753000Y-83343750D01*
X55753000Y-82772250D01*
X55753000Y-82320709D01*
X55753000Y-82068090D01*
X55656327Y-81834701D01*
X55477698Y-81656073D01*
X55244309Y-81559400D01*
X54387750Y-81559400D01*
X54229000Y-81718150D01*
X54229000Y-79044819D01*
X54229000Y-77851000D01*
X53035845Y-77851000D01*
X52914524Y-78080890D01*
X53084355Y-78490924D01*
X53474642Y-78919183D01*
X53999108Y-79165486D01*
X54229000Y-79044819D01*
X54229000Y-81718150D01*
X54229000Y-82931000D01*
X55594250Y-82931000D01*
X55753000Y-82772250D01*
X55753000Y-83343750D01*
X55594250Y-83185000D01*
X54229000Y-83185000D01*
X54229000Y-83205000D01*
X53975000Y-83205000D01*
X53975000Y-83185000D01*
X53975000Y-82931000D01*
X53975000Y-81718150D01*
X53816250Y-81559400D01*
X52959691Y-81559400D01*
X52726302Y-81656073D01*
X52547673Y-81834701D01*
X52451000Y-82068090D01*
X52451000Y-82320709D01*
X52451000Y-82772250D01*
X52609750Y-82931000D01*
X53975000Y-82931000D01*
X53975000Y-83185000D01*
X52609750Y-83185000D01*
X52451000Y-83343750D01*
X52451000Y-83795291D01*
X52451000Y-84047910D01*
X52547673Y-84281299D01*
X52726302Y-84459927D01*
X52879780Y-84523499D01*
X52857585Y-84538330D01*
X52532729Y-85024511D01*
X52418655Y-85598000D01*
X52532729Y-86171489D01*
X52857585Y-86657670D01*
X53172365Y-86868000D01*
X52857585Y-87078330D01*
X52532729Y-87564511D01*
X52418655Y-88138000D01*
X52532729Y-88711489D01*
X52857585Y-89197670D01*
X53172365Y-89408000D01*
X52857585Y-89618330D01*
X52532729Y-90104511D01*
X52418655Y-90678000D01*
X52532729Y-91251489D01*
X52857585Y-91737670D01*
X53343766Y-92062526D01*
X53917255Y-92176600D01*
X54286745Y-92176600D01*
X54860234Y-92062526D01*
X55346415Y-91737670D01*
X55671271Y-91251489D01*
X55785345Y-90678000D01*
X55785345Y-93663679D01*
X55515482Y-93775185D01*
X53781275Y-95506368D01*
X52841571Y-97769425D01*
X52839433Y-100219825D01*
X53775185Y-102484518D01*
X55506368Y-104218725D01*
X55738223Y-104315000D01*
X29197040Y-104315000D01*
X29197040Y-90652600D01*
X29197040Y-88925400D01*
X29150063Y-88683277D01*
X29010273Y-88470473D01*
X28799240Y-88328023D01*
X28549600Y-88277960D01*
X26822400Y-88277960D01*
X26580277Y-88324937D01*
X26367473Y-88464727D01*
X26225023Y-88675760D01*
X26206088Y-88770178D01*
X26034490Y-88582179D01*
X25505027Y-88334032D01*
X25273000Y-88454531D01*
X25273000Y-89662000D01*
X25293000Y-89662000D01*
X25293000Y-89916000D01*
X25273000Y-89916000D01*
X25273000Y-91123469D01*
X25505027Y-91243968D01*
X26034490Y-90995821D01*
X26205253Y-90808736D01*
X26221937Y-90894723D01*
X26361727Y-91107527D01*
X26572760Y-91249977D01*
X26822400Y-91300040D01*
X28549600Y-91300040D01*
X28791723Y-91253063D01*
X29004527Y-91113273D01*
X29146977Y-90902240D01*
X29197040Y-90652600D01*
X29197040Y-104315000D01*
X25019000Y-104315000D01*
X25019000Y-91123469D01*
X25019000Y-89916000D01*
X25019000Y-89662000D01*
X25019000Y-88454531D01*
X24993600Y-88441339D01*
X24993600Y-83539910D01*
X24993600Y-83287291D01*
X24993600Y-82835750D01*
X24834850Y-82677000D01*
X23622000Y-82677000D01*
X23622000Y-83889850D01*
X23780750Y-84048600D01*
X24484909Y-84048600D01*
X24718298Y-83951927D01*
X24896927Y-83773299D01*
X24993600Y-83539910D01*
X24993600Y-88441339D01*
X24786973Y-88334032D01*
X24257510Y-88582179D01*
X23863312Y-89014053D01*
X23691042Y-89429974D01*
X23812183Y-89662000D01*
X25019000Y-89662000D01*
X25019000Y-89916000D01*
X23812183Y-89916000D01*
X23691042Y-90148026D01*
X23863312Y-90563947D01*
X24257510Y-90995821D01*
X24786973Y-91243968D01*
X25019000Y-91123469D01*
X25019000Y-104315000D01*
X23368000Y-104315000D01*
X23368000Y-83889850D01*
X23368000Y-82677000D01*
X22288817Y-82677000D01*
X22155150Y-82677000D01*
X21082000Y-82677000D01*
X21082000Y-83884469D01*
X21314027Y-84004968D01*
X21843490Y-83756821D01*
X22010471Y-83573880D01*
X22093073Y-83773299D01*
X22271702Y-83951927D01*
X22505091Y-84048600D01*
X23209250Y-84048600D01*
X23368000Y-83889850D01*
X23368000Y-104315000D01*
X19266253Y-104315000D01*
X19484518Y-104224815D01*
X21218725Y-102493632D01*
X22158429Y-100230575D01*
X22160567Y-97780175D01*
X21224815Y-95515482D01*
X20828000Y-95117973D01*
X20828000Y-83884469D01*
X20828000Y-82677000D01*
X19621183Y-82677000D01*
X19500042Y-82909026D01*
X19672312Y-83324947D01*
X20066510Y-83756821D01*
X20595973Y-84004968D01*
X20828000Y-83884469D01*
X20828000Y-95117973D01*
X19493632Y-93781275D01*
X17230575Y-92841571D01*
X14780175Y-92839433D01*
X12515482Y-93775185D01*
X10781275Y-95506368D01*
X10685000Y-95738223D01*
X10685000Y-19266253D01*
X10775185Y-19484518D01*
X12506368Y-21218725D01*
X14769425Y-22158429D01*
X17219825Y-22160567D01*
X19484518Y-21224815D01*
X21218725Y-19493632D01*
X22158429Y-17230575D01*
X22160567Y-14780175D01*
X21224815Y-12515482D01*
X19493632Y-10781275D01*
X19261776Y-10685000D01*
X55733746Y-10685000D01*
X55515482Y-10775185D01*
X53781275Y-12506368D01*
X52841571Y-14769425D01*
X52839433Y-17219825D01*
X53775185Y-19484518D01*
X55506368Y-21218725D01*
X57554482Y-22069177D01*
X56959221Y-22315743D01*
X56689670Y-22728064D01*
X58674000Y-24712395D01*
X60658330Y-22728064D01*
X60388779Y-22315743D01*
X60011817Y-22160385D01*
X60219825Y-22160567D01*
X62484518Y-21224815D01*
X64218725Y-19493632D01*
X64315000Y-19261776D01*
X64315000Y-95733746D01*
X64315000Y-95733746D01*
G37*
X64315000Y-95733746D02*
X64224815Y-95515482D01*
X63996369Y-95286636D01*
X63996369Y-30570358D01*
X63994221Y-29362843D01*
X63536257Y-28257221D01*
X63123936Y-27987670D01*
X62944330Y-28167275D01*
X62944330Y-27808064D01*
X62674779Y-27395743D01*
X61710369Y-26998279D01*
X61558358Y-26935631D01*
X60898412Y-26936804D01*
X60837937Y-26876329D01*
X61250257Y-26606779D01*
X61710369Y-25490358D01*
X61708221Y-24282843D01*
X61250257Y-23177221D01*
X60837936Y-22907670D01*
X58853605Y-24892000D01*
X58867747Y-24906142D01*
X58688142Y-25085747D01*
X58674000Y-25071605D01*
X58494395Y-25251210D01*
X58494395Y-24892000D01*
X56510064Y-22907670D01*
X56097743Y-23177221D01*
X55637631Y-24293642D01*
X55639779Y-25501157D01*
X56097743Y-26606779D01*
X56510064Y-26876330D01*
X58494395Y-24892000D01*
X58494395Y-25251210D01*
X56689670Y-27055936D01*
X56959221Y-27468257D01*
X58075642Y-27928369D01*
X58735586Y-27927194D01*
X58796062Y-27987670D01*
X58383743Y-28257221D01*
X57923631Y-29373642D01*
X57925779Y-30581157D01*
X58383743Y-31686779D01*
X58796064Y-31956330D01*
X60780395Y-29972000D01*
X60766252Y-29957857D01*
X60945857Y-29778252D01*
X60960000Y-29792395D01*
X62944330Y-27808064D01*
X62944330Y-28167275D01*
X61139605Y-29972000D01*
X63123936Y-31956330D01*
X63536257Y-31686779D01*
X63996369Y-30570358D01*
X63996369Y-95286636D01*
X62944330Y-94232760D01*
X62944330Y-32135936D01*
X60960000Y-30151605D01*
X60780395Y-30331210D01*
X58975670Y-32135936D01*
X59245221Y-32548257D01*
X60361642Y-33008369D01*
X61569157Y-33006221D01*
X62674779Y-32548257D01*
X62944330Y-32135936D01*
X62944330Y-94232760D01*
X62649158Y-93937072D01*
X62649158Y-41697784D01*
X62649158Y-37697784D01*
X62510910Y-37363200D01*
X62255147Y-37106989D01*
X61920804Y-36968158D01*
X61558784Y-36967842D01*
X61224200Y-37106090D01*
X60967989Y-37361853D01*
X60829158Y-37696196D01*
X60828842Y-38058216D01*
X60967090Y-38392800D01*
X61222853Y-38649011D01*
X61557196Y-38787842D01*
X61919216Y-38788158D01*
X62253800Y-38649910D01*
X62510011Y-38394147D01*
X62648842Y-38059804D01*
X62649158Y-37697784D01*
X62649158Y-41697784D01*
X62510910Y-41363200D01*
X62255147Y-41106989D01*
X61920804Y-40968158D01*
X61558784Y-40967842D01*
X61224200Y-41106090D01*
X60967989Y-41361853D01*
X60829158Y-41696196D01*
X60828842Y-42058216D01*
X60967090Y-42392800D01*
X61222853Y-42649011D01*
X61557196Y-42787842D01*
X61919216Y-42788158D01*
X62253800Y-42649910D01*
X62510011Y-42394147D01*
X62648842Y-42059804D01*
X62649158Y-41697784D01*
X62649158Y-93937072D01*
X62493632Y-93781275D01*
X60230575Y-92841571D01*
X57899826Y-92839537D01*
X57899826Y-29370890D01*
X57438702Y-28254887D01*
X56585604Y-27400298D01*
X55470407Y-26937228D01*
X54262890Y-26936174D01*
X53146887Y-27397298D01*
X52292298Y-28250396D01*
X51829228Y-29365593D01*
X51828174Y-30573110D01*
X52289298Y-31689113D01*
X53142396Y-32543702D01*
X54257593Y-33006772D01*
X55465110Y-33007826D01*
X56581113Y-32546702D01*
X57435702Y-31693604D01*
X57898772Y-30578407D01*
X57899826Y-29370890D01*
X57899826Y-92839537D01*
X57780175Y-92839433D01*
X55870093Y-93628662D01*
X55870093Y-75184000D01*
X55757054Y-74615715D01*
X55435147Y-74133946D01*
X55105973Y-73914000D01*
X55435147Y-73694054D01*
X55757054Y-73212285D01*
X55870093Y-72644000D01*
X55757054Y-72075715D01*
X55435147Y-71593946D01*
X55105973Y-71374000D01*
X55435147Y-71154054D01*
X55757054Y-70672285D01*
X55870093Y-70104000D01*
X55757054Y-69535715D01*
X55435147Y-69053946D01*
X55105973Y-68834000D01*
X55435147Y-68614054D01*
X55757054Y-68132285D01*
X55870093Y-67564000D01*
X55757054Y-66995715D01*
X55435147Y-66513946D01*
X55392273Y-66485298D01*
X55448123Y-66474463D01*
X55660927Y-66334673D01*
X55803377Y-66123640D01*
X55853440Y-65874000D01*
X55853440Y-64174000D01*
X55806463Y-63931877D01*
X55797476Y-63918195D01*
X55797476Y-56871890D01*
X55676155Y-56642000D01*
X54483000Y-56642000D01*
X54483000Y-57835819D01*
X54712892Y-57956486D01*
X55237358Y-57710183D01*
X55627645Y-57281924D01*
X55797476Y-56871890D01*
X55797476Y-63918195D01*
X55666673Y-63719073D01*
X55455640Y-63576623D01*
X55206000Y-63526560D01*
X54229000Y-63526560D01*
X54229000Y-57835819D01*
X54229000Y-56642000D01*
X53035845Y-56642000D01*
X52914524Y-56871890D01*
X53084355Y-57281924D01*
X53474642Y-57710183D01*
X53999108Y-57956486D01*
X54229000Y-57835819D01*
X54229000Y-63526560D01*
X53506000Y-63526560D01*
X53263877Y-63573537D01*
X53051073Y-63713327D01*
X52908623Y-63924360D01*
X52858560Y-64174000D01*
X52858560Y-65874000D01*
X52905537Y-66116123D01*
X53045327Y-66328927D01*
X53256360Y-66471377D01*
X53321124Y-66484364D01*
X53276853Y-66513946D01*
X53067410Y-66827400D01*
X49835110Y-66827400D01*
X48929560Y-65921850D01*
X48942390Y-65916549D01*
X49005506Y-65903995D01*
X49058544Y-65868555D01*
X49172772Y-65821358D01*
X49261014Y-65733269D01*
X49314519Y-65697519D01*
X49349957Y-65644482D01*
X49437429Y-65557163D01*
X49485244Y-65442010D01*
X49520995Y-65388506D01*
X49533439Y-65325944D01*
X49580837Y-65211798D01*
X49580945Y-65087114D01*
X49593500Y-65024000D01*
X49593500Y-61976000D01*
X49520995Y-61611494D01*
X49314519Y-61302481D01*
X48323500Y-60311462D01*
X48323500Y-55113802D01*
X48488837Y-55279429D01*
X48834202Y-55422837D01*
X49208157Y-55423163D01*
X49553772Y-55280358D01*
X49818429Y-55016163D01*
X49961837Y-54670798D01*
X49961904Y-54593407D01*
X50012837Y-54644429D01*
X50358202Y-54787837D01*
X50732157Y-54788163D01*
X51077772Y-54645358D01*
X51342429Y-54381163D01*
X51485837Y-54035798D01*
X51485911Y-53949798D01*
X53146196Y-52289513D01*
X53276853Y-52485054D01*
X53606026Y-52704999D01*
X53276853Y-52924946D01*
X52954946Y-53406715D01*
X52841907Y-53975000D01*
X52954946Y-54543285D01*
X53276853Y-55025054D01*
X53617553Y-55252702D01*
X53474642Y-55319817D01*
X53084355Y-55748076D01*
X52914524Y-56158110D01*
X53035845Y-56388000D01*
X54229000Y-56388000D01*
X54229000Y-56368000D01*
X54483000Y-56368000D01*
X54483000Y-56388000D01*
X55676155Y-56388000D01*
X55797476Y-56158110D01*
X55627645Y-55748076D01*
X55237358Y-55319817D01*
X55094446Y-55252702D01*
X55435147Y-55025054D01*
X55757054Y-54543285D01*
X55870093Y-53975000D01*
X55757054Y-53406715D01*
X55435147Y-52924946D01*
X55105973Y-52705000D01*
X55435147Y-52485054D01*
X55757054Y-52003285D01*
X55870093Y-51435000D01*
X55757054Y-50866715D01*
X55435147Y-50384946D01*
X55392273Y-50356298D01*
X55448123Y-50345463D01*
X55660927Y-50205673D01*
X55803377Y-49994640D01*
X55853440Y-49745000D01*
X55853440Y-48045000D01*
X55806463Y-47802877D01*
X55666673Y-47590073D01*
X55455640Y-47447623D01*
X55206000Y-47397560D01*
X53506000Y-47397560D01*
X53263877Y-47444537D01*
X53051073Y-47584327D01*
X52908623Y-47795360D01*
X52858560Y-48045000D01*
X52858560Y-48178240D01*
X52794395Y-48191004D01*
X52547185Y-48356185D01*
X48483185Y-52420185D01*
X48323500Y-52659169D01*
X48323500Y-49911000D01*
X48250995Y-49546494D01*
X48044519Y-49237481D01*
X44010122Y-45203084D01*
X44230429Y-44983163D01*
X44373837Y-44637798D01*
X44374163Y-44263843D01*
X44231358Y-43918228D01*
X43967163Y-43653571D01*
X43916600Y-43632575D01*
X43916600Y-39962887D01*
X43976429Y-39903163D01*
X44119837Y-39557798D01*
X44120163Y-39183843D01*
X43977358Y-38838228D01*
X43713163Y-38573571D01*
X43367798Y-38430163D01*
X43040956Y-38429878D01*
X42964519Y-38315481D01*
X40340486Y-35691448D01*
X40452202Y-35737837D01*
X40576885Y-35737945D01*
X40640000Y-35750500D01*
X40702563Y-35738055D01*
X40826157Y-35738163D01*
X40941390Y-35690549D01*
X41004506Y-35677995D01*
X41057544Y-35642555D01*
X41171772Y-35595358D01*
X41260014Y-35507269D01*
X41313519Y-35471519D01*
X41348957Y-35418482D01*
X41436429Y-35331163D01*
X41484244Y-35216010D01*
X41519995Y-35162506D01*
X41532439Y-35099944D01*
X41579837Y-34985798D01*
X41579945Y-34861114D01*
X41592500Y-34798000D01*
X41592500Y-29464000D01*
X41580055Y-29401436D01*
X41580163Y-29277843D01*
X41532549Y-29162609D01*
X41519995Y-29099494D01*
X41484555Y-29046455D01*
X41437358Y-28932228D01*
X41349269Y-28843985D01*
X41313519Y-28790481D01*
X41260482Y-28755042D01*
X41173163Y-28667571D01*
X41058010Y-28619755D01*
X41004506Y-28584005D01*
X40941944Y-28571560D01*
X40827798Y-28524163D01*
X40703114Y-28524054D01*
X40640000Y-28511500D01*
X40577436Y-28523944D01*
X40453843Y-28523837D01*
X40338609Y-28571450D01*
X40275494Y-28584005D01*
X40222455Y-28619444D01*
X40108228Y-28666642D01*
X40019985Y-28754730D01*
X39966481Y-28790481D01*
X39931042Y-28843517D01*
X39843571Y-28930837D01*
X39795755Y-29045989D01*
X39760005Y-29099494D01*
X39747560Y-29162055D01*
X39700163Y-29276202D01*
X39700054Y-29400885D01*
X39687500Y-29464000D01*
X39687500Y-30174590D01*
X39629995Y-29885494D01*
X39423519Y-29576481D01*
X33303519Y-23456481D01*
X32994506Y-23250005D01*
X32630000Y-23177500D01*
X27940000Y-23177500D01*
X27877436Y-23189944D01*
X27753843Y-23189837D01*
X27638609Y-23237450D01*
X27575494Y-23250005D01*
X27522455Y-23285444D01*
X27408228Y-23332642D01*
X27319985Y-23420730D01*
X27266481Y-23456481D01*
X27231042Y-23509517D01*
X27143571Y-23596837D01*
X27095755Y-23711989D01*
X27060005Y-23765494D01*
X27047560Y-23828055D01*
X27000163Y-23942202D01*
X27000054Y-24066885D01*
X26987500Y-24130000D01*
X26999944Y-24192563D01*
X26999837Y-24316157D01*
X27047450Y-24431390D01*
X27060005Y-24494506D01*
X27095444Y-24547544D01*
X27142642Y-24661772D01*
X27230730Y-24750014D01*
X27266481Y-24803519D01*
X27319517Y-24838957D01*
X27406837Y-24926429D01*
X27521989Y-24974244D01*
X27575494Y-25009995D01*
X27638055Y-25022439D01*
X27752202Y-25069837D01*
X27876885Y-25069945D01*
X27940000Y-25082500D01*
X32235462Y-25082500D01*
X37797500Y-30644538D01*
X37797500Y-35448000D01*
X37870005Y-35812506D01*
X38076481Y-36121519D01*
X41338500Y-39383538D01*
X41338500Y-43561000D01*
X41338500Y-44831000D01*
X41411005Y-45195506D01*
X41617481Y-45504519D01*
X46418500Y-50305538D01*
X46418500Y-50601754D01*
X46392010Y-50590755D01*
X46338506Y-50555005D01*
X46275944Y-50542560D01*
X46161798Y-50495163D01*
X46037114Y-50495054D01*
X45974000Y-50482500D01*
X38259625Y-50482500D01*
X38477879Y-45790049D01*
X39563483Y-45066312D01*
X40054777Y-44863314D01*
X40444884Y-44473887D01*
X40656269Y-43964816D01*
X40656750Y-43413602D01*
X40446254Y-42904163D01*
X40410319Y-42868165D01*
X40516298Y-38735000D01*
X33144012Y-38735000D01*
X33240336Y-42876936D01*
X33215116Y-42902113D01*
X33003731Y-43411184D01*
X33003250Y-43962398D01*
X33213746Y-44471837D01*
X33603173Y-44861944D01*
X34112244Y-45073329D01*
X34490677Y-45073659D01*
X34506216Y-45082292D01*
X35999497Y-45206732D01*
X36955879Y-46521757D01*
X36848831Y-50482500D01*
X33160538Y-50482500D01*
X32804519Y-50126481D01*
X32751482Y-50091042D01*
X32664163Y-50003571D01*
X32549010Y-49955755D01*
X32495506Y-49920005D01*
X32432944Y-49907560D01*
X32318798Y-49860163D01*
X32194114Y-49860054D01*
X32131000Y-49847500D01*
X32068436Y-49859944D01*
X31944843Y-49859837D01*
X31829609Y-49907450D01*
X31766494Y-49920005D01*
X31713455Y-49955444D01*
X31599228Y-50002642D01*
X31510985Y-50090730D01*
X31457481Y-50126481D01*
X31432500Y-50163867D01*
X31432500Y-41148000D01*
X31432500Y-37478538D01*
X33185519Y-35725519D01*
X33391995Y-35416506D01*
X33464500Y-35052000D01*
X33464500Y-34336023D01*
X33571670Y-34264415D01*
X33896526Y-33778234D01*
X34010600Y-33204745D01*
X34010600Y-32835255D01*
X33896526Y-32261766D01*
X33571670Y-31775585D01*
X33464500Y-31703976D01*
X33464500Y-29262000D01*
X33440097Y-29139319D01*
X33440163Y-29063843D01*
X33411086Y-28993471D01*
X33391995Y-28897495D01*
X33391995Y-28897494D01*
X33338103Y-28816840D01*
X33338103Y-28816839D01*
X33297358Y-28718228D01*
X33221314Y-28642051D01*
X33221312Y-28642049D01*
X33185520Y-28588481D01*
X33173519Y-28576481D01*
X33120482Y-28541042D01*
X33033163Y-28453571D01*
X32918010Y-28405755D01*
X32864506Y-28370005D01*
X32801944Y-28357560D01*
X32687798Y-28310163D01*
X32563114Y-28310054D01*
X32500000Y-28297500D01*
X32437436Y-28309944D01*
X32313843Y-28309837D01*
X32198609Y-28357450D01*
X32135494Y-28370005D01*
X32082455Y-28405444D01*
X31968228Y-28452642D01*
X31879985Y-28540730D01*
X31826481Y-28576481D01*
X31791042Y-28629517D01*
X31703571Y-28716837D01*
X31655755Y-28831989D01*
X31620005Y-28885494D01*
X31607560Y-28948055D01*
X31560163Y-29062202D01*
X31560054Y-29186885D01*
X31547500Y-29250000D01*
X31559500Y-29310327D01*
X31559500Y-31703976D01*
X31452330Y-31775585D01*
X31242000Y-32090365D01*
X31031670Y-31775585D01*
X30545489Y-31450729D01*
X29972000Y-31336655D01*
X29398511Y-31450729D01*
X28912330Y-31775585D01*
X28901784Y-31791367D01*
X28896063Y-31761877D01*
X28756273Y-31549073D01*
X28545240Y-31406623D01*
X28295600Y-31356560D01*
X27623598Y-31356560D01*
X26073519Y-29806481D01*
X26020482Y-29771042D01*
X25933163Y-29683571D01*
X25818010Y-29635755D01*
X25764506Y-29600005D01*
X25701944Y-29587560D01*
X25587798Y-29540163D01*
X25463114Y-29540054D01*
X25400000Y-29527500D01*
X25337436Y-29539944D01*
X25213843Y-29539837D01*
X25098609Y-29587450D01*
X25035494Y-29600005D01*
X24982455Y-29635444D01*
X24868228Y-29682642D01*
X24779985Y-29770730D01*
X24726481Y-29806481D01*
X24691042Y-29859517D01*
X24603571Y-29946837D01*
X24555755Y-30061989D01*
X24520005Y-30115494D01*
X24507560Y-30178055D01*
X24460163Y-30292202D01*
X24460054Y-30416885D01*
X24447500Y-30480000D01*
X24459944Y-30542563D01*
X24459837Y-30666157D01*
X24507450Y-30781390D01*
X24520005Y-30844506D01*
X24555444Y-30897544D01*
X24602642Y-31011772D01*
X24690730Y-31100014D01*
X24726481Y-31153519D01*
X25920960Y-32347998D01*
X25920960Y-34036000D01*
X25967937Y-34278123D01*
X26107727Y-34490927D01*
X26318760Y-34633377D01*
X26479500Y-34665611D01*
X26479500Y-38354000D01*
X26552005Y-38718506D01*
X26758481Y-39027519D01*
X27266480Y-39535519D01*
X27266481Y-39535519D01*
X27575494Y-39741995D01*
X27764565Y-39779603D01*
X28638500Y-40653538D01*
X28638500Y-48641000D01*
X28638500Y-51054000D01*
X28638500Y-71868462D01*
X28626163Y-71880799D01*
X28626163Y-51375843D01*
X28483358Y-51030228D01*
X28219163Y-50765571D01*
X27873798Y-50622163D01*
X27823749Y-50622119D01*
X24922815Y-47721185D01*
X24840338Y-47666076D01*
X24840338Y-47666075D01*
X24908885Y-47563489D01*
X25022959Y-46990000D01*
X24908885Y-46416511D01*
X24584029Y-45930330D01*
X24269248Y-45720000D01*
X24584029Y-45509670D01*
X24908885Y-45023489D01*
X25022959Y-44450000D01*
X24908885Y-43876511D01*
X24584029Y-43390330D01*
X24269248Y-43180000D01*
X24584029Y-42969670D01*
X24908885Y-42483489D01*
X25022959Y-41910000D01*
X24908885Y-41336511D01*
X24584029Y-40850330D01*
X24269248Y-40640000D01*
X24584029Y-40429670D01*
X24908885Y-39943489D01*
X25022959Y-39370000D01*
X25022959Y-34290000D01*
X24908885Y-33716511D01*
X24584029Y-33230330D01*
X24097848Y-32905474D01*
X23524359Y-32791400D01*
X23465641Y-32791400D01*
X22892152Y-32905474D01*
X22405971Y-33230330D01*
X22225000Y-33501172D01*
X22044029Y-33230330D01*
X21557848Y-32905474D01*
X20984359Y-32791400D01*
X20925641Y-32791400D01*
X20352152Y-32905474D01*
X19865971Y-33230330D01*
X19541115Y-33716511D01*
X19427041Y-34290000D01*
X19541115Y-34863489D01*
X19865971Y-35349670D01*
X20189228Y-35565663D01*
X20066510Y-35623179D01*
X19672312Y-36055053D01*
X19500042Y-36470974D01*
X19621183Y-36703000D01*
X20828000Y-36703000D01*
X20828000Y-36683000D01*
X21082000Y-36683000D01*
X21082000Y-36703000D01*
X22161183Y-36703000D01*
X22288817Y-36703000D01*
X23368000Y-36703000D01*
X23368000Y-36683000D01*
X23622000Y-36683000D01*
X23622000Y-36703000D01*
X24828817Y-36703000D01*
X24949958Y-36470974D01*
X24777688Y-36055053D01*
X24383490Y-35623179D01*
X24260771Y-35565663D01*
X24584029Y-35349670D01*
X24908885Y-34863489D01*
X25022959Y-34290000D01*
X25022959Y-39370000D01*
X24908885Y-38796511D01*
X24584029Y-38310330D01*
X24260771Y-38094336D01*
X24383490Y-38036821D01*
X24777688Y-37604947D01*
X24949958Y-37189026D01*
X24828817Y-36957000D01*
X23622000Y-36957000D01*
X23622000Y-36977000D01*
X23368000Y-36977000D01*
X23368000Y-36957000D01*
X22288817Y-36957000D01*
X22161183Y-36957000D01*
X21082000Y-36957000D01*
X21082000Y-36977000D01*
X20828000Y-36977000D01*
X20828000Y-36957000D01*
X19621183Y-36957000D01*
X19500042Y-37189026D01*
X19672312Y-37604947D01*
X20066510Y-38036821D01*
X20189228Y-38094336D01*
X19865971Y-38310330D01*
X19541115Y-38796511D01*
X19427041Y-39370000D01*
X19541115Y-39943489D01*
X19865971Y-40429670D01*
X20180751Y-40640000D01*
X19865971Y-40850330D01*
X19541115Y-41336511D01*
X19427041Y-41910000D01*
X19541115Y-42483489D01*
X19865971Y-42969670D01*
X20180751Y-43180000D01*
X19865971Y-43390330D01*
X19541115Y-43876511D01*
X19427041Y-44450000D01*
X19541115Y-45023489D01*
X19865971Y-45509670D01*
X20180751Y-45720000D01*
X19865971Y-45930330D01*
X19541115Y-46416511D01*
X19427041Y-46990000D01*
X19541115Y-47563489D01*
X19865971Y-48049670D01*
X20180751Y-48260000D01*
X19865971Y-48470330D01*
X19541115Y-48956511D01*
X19427041Y-49530000D01*
X19541115Y-50103489D01*
X19865971Y-50589670D01*
X20180751Y-50800000D01*
X19865971Y-51010330D01*
X19541115Y-51496511D01*
X19427041Y-52070000D01*
X19541115Y-52643489D01*
X19865971Y-53129670D01*
X20180751Y-53340000D01*
X19865971Y-53550330D01*
X19541115Y-54036511D01*
X19427041Y-54610000D01*
X19541115Y-55183489D01*
X19865971Y-55669670D01*
X20180751Y-55880000D01*
X19865971Y-56090330D01*
X19541115Y-56576511D01*
X19427041Y-57150000D01*
X19541115Y-57723489D01*
X19865971Y-58209670D01*
X20180751Y-58420000D01*
X19865971Y-58630330D01*
X19541115Y-59116511D01*
X19427041Y-59690000D01*
X19541115Y-60263489D01*
X19865971Y-60749670D01*
X20180751Y-60960000D01*
X19865971Y-61170330D01*
X19541115Y-61656511D01*
X19427041Y-62230000D01*
X19541115Y-62803489D01*
X19865971Y-63289670D01*
X20180751Y-63500000D01*
X19865971Y-63710330D01*
X19541115Y-64196511D01*
X19427041Y-64770000D01*
X19541115Y-65343489D01*
X19865971Y-65829670D01*
X20180751Y-66040000D01*
X19865971Y-66250330D01*
X19541115Y-66736511D01*
X19427041Y-67310000D01*
X19541115Y-67883489D01*
X19865971Y-68369670D01*
X20180751Y-68580000D01*
X19865971Y-68790330D01*
X19541115Y-69276511D01*
X19427041Y-69850000D01*
X19541115Y-70423489D01*
X19865971Y-70909670D01*
X20180751Y-71120000D01*
X19865971Y-71330330D01*
X19541115Y-71816511D01*
X19427041Y-72390000D01*
X19541115Y-72963489D01*
X19865971Y-73449670D01*
X20180751Y-73660000D01*
X19865971Y-73870330D01*
X19541115Y-74356511D01*
X19427041Y-74930000D01*
X19541115Y-75503489D01*
X19865971Y-75989670D01*
X20180751Y-76200000D01*
X19865971Y-76410330D01*
X19541115Y-76896511D01*
X19427041Y-77470000D01*
X19541115Y-78043489D01*
X19865971Y-78529670D01*
X20180751Y-78740000D01*
X19865971Y-78950330D01*
X19541115Y-79436511D01*
X19427041Y-80010000D01*
X19541115Y-80583489D01*
X19865971Y-81069670D01*
X20189228Y-81285663D01*
X20066510Y-81343179D01*
X19672312Y-81775053D01*
X19500042Y-82190974D01*
X19621183Y-82423000D01*
X20828000Y-82423000D01*
X20828000Y-82403000D01*
X21082000Y-82403000D01*
X21082000Y-82423000D01*
X22155150Y-82423000D01*
X22288817Y-82423000D01*
X23368000Y-82423000D01*
X23368000Y-82403000D01*
X23622000Y-82403000D01*
X23622000Y-82423000D01*
X24834850Y-82423000D01*
X24993600Y-82264250D01*
X24993600Y-81812709D01*
X24993600Y-81560090D01*
X24896927Y-81326701D01*
X24718298Y-81148073D01*
X24562976Y-81083736D01*
X24584029Y-81069670D01*
X24908885Y-80583489D01*
X25022959Y-80010000D01*
X24908885Y-79436511D01*
X24584029Y-78950330D01*
X24269248Y-78740000D01*
X24584029Y-78529670D01*
X24908885Y-78043489D01*
X25022959Y-77470000D01*
X24908885Y-76896511D01*
X24584029Y-76410330D01*
X24269248Y-76200000D01*
X24584029Y-75989670D01*
X24908885Y-75503489D01*
X25022959Y-74930000D01*
X24908885Y-74356511D01*
X24584029Y-73870330D01*
X24269248Y-73660000D01*
X24584029Y-73449670D01*
X24908885Y-72963489D01*
X25022959Y-72390000D01*
X24908885Y-71816511D01*
X24584029Y-71330330D01*
X24269248Y-71120000D01*
X24584029Y-70909670D01*
X24908885Y-70423489D01*
X25022959Y-69850000D01*
X24908885Y-69276511D01*
X24584029Y-68790330D01*
X24269248Y-68580000D01*
X24584029Y-68369670D01*
X24908885Y-67883489D01*
X25022959Y-67310000D01*
X24908902Y-66736600D01*
X25407112Y-66736600D01*
X25466837Y-66796429D01*
X25812202Y-66939837D01*
X26186157Y-66940163D01*
X26531772Y-66797358D01*
X26796429Y-66533163D01*
X26939837Y-66187798D01*
X26940163Y-65813843D01*
X26797358Y-65468228D01*
X26533163Y-65203571D01*
X26187798Y-65060163D01*
X25813843Y-65059837D01*
X25468228Y-65202642D01*
X25407363Y-65263400D01*
X24924815Y-65263400D01*
X25022959Y-64770000D01*
X24908885Y-64196511D01*
X24584029Y-63710330D01*
X24269248Y-63500000D01*
X24584029Y-63289670D01*
X24908885Y-62803489D01*
X25022959Y-62230000D01*
X24908885Y-61656511D01*
X24584029Y-61170330D01*
X24269248Y-60960000D01*
X24584029Y-60749670D01*
X24908885Y-60263489D01*
X25022959Y-59690000D01*
X24908885Y-59116511D01*
X24584029Y-58630330D01*
X24269248Y-58420000D01*
X24584029Y-58209670D01*
X24908885Y-57723489D01*
X25022959Y-57150000D01*
X24908885Y-56576511D01*
X24584029Y-56090330D01*
X24269248Y-55880000D01*
X24584029Y-55669670D01*
X24908885Y-55183489D01*
X25022959Y-54610000D01*
X24908885Y-54036511D01*
X24584029Y-53550330D01*
X24269248Y-53340000D01*
X24584029Y-53129670D01*
X24908885Y-52643489D01*
X25022959Y-52070000D01*
X24908885Y-51496511D01*
X24584029Y-51010330D01*
X24269248Y-50800000D01*
X24584029Y-50589670D01*
X24908885Y-50103489D01*
X24948865Y-49902495D01*
X26745879Y-51699509D01*
X26745837Y-51748157D01*
X26888642Y-52093772D01*
X27152837Y-52358429D01*
X27498202Y-52501837D01*
X27872157Y-52502163D01*
X28217772Y-52359358D01*
X28482429Y-52095163D01*
X28625837Y-51749798D01*
X28626163Y-51375843D01*
X28626163Y-71880799D01*
X26631481Y-73875481D01*
X26425005Y-74184494D01*
X26352500Y-74549000D01*
X26352500Y-81534000D01*
X26425005Y-81898506D01*
X26631481Y-82207519D01*
X27139480Y-82715519D01*
X27139481Y-82715519D01*
X27448494Y-82921995D01*
X27813000Y-82994500D01*
X27817808Y-82994500D01*
X27847537Y-83147723D01*
X27987327Y-83360527D01*
X28198360Y-83502977D01*
X28448000Y-83553040D01*
X30480000Y-83553040D01*
X30722123Y-83506063D01*
X30934927Y-83366273D01*
X31077377Y-83155240D01*
X31127440Y-82905600D01*
X31127440Y-81178400D01*
X31080463Y-80936277D01*
X30940673Y-80723473D01*
X30729640Y-80581023D01*
X30691037Y-80573281D01*
X30708415Y-80561670D01*
X31033271Y-80075489D01*
X31147345Y-79502000D01*
X31033271Y-78928511D01*
X30708415Y-78442330D01*
X30393634Y-78232000D01*
X30708415Y-78021670D01*
X31033271Y-77535489D01*
X31147345Y-76962000D01*
X31033271Y-76388511D01*
X30708415Y-75902330D01*
X30416500Y-75707278D01*
X30416500Y-74816538D01*
X31153519Y-74079519D01*
X31359995Y-73770506D01*
X31432500Y-73406000D01*
X31432500Y-51436132D01*
X31457481Y-51473519D01*
X32092481Y-52108519D01*
X32401494Y-52314995D01*
X32401495Y-52314995D01*
X32766000Y-52387500D01*
X45974000Y-52387500D01*
X46036563Y-52375055D01*
X46160157Y-52375163D01*
X46275390Y-52327549D01*
X46338506Y-52314995D01*
X46391544Y-52279555D01*
X46418500Y-52268418D01*
X46418500Y-60706000D01*
X46491005Y-61070506D01*
X46697481Y-61379519D01*
X47688500Y-62370538D01*
X47688500Y-64680790D01*
X45948600Y-62940890D01*
X45948600Y-60282887D01*
X46008429Y-60223163D01*
X46151837Y-59877798D01*
X46152163Y-59503843D01*
X46009358Y-59158228D01*
X45745163Y-58893571D01*
X45399798Y-58750163D01*
X45025843Y-58749837D01*
X44680228Y-58892642D01*
X44415571Y-59156837D01*
X44379425Y-59243885D01*
X44301919Y-59228468D01*
X44221163Y-59147571D01*
X43875798Y-59004163D01*
X43501843Y-59003837D01*
X43156228Y-59146642D01*
X42891571Y-59410837D01*
X42748163Y-59756202D01*
X42747837Y-60130157D01*
X42849079Y-60375182D01*
X42605798Y-60274163D01*
X42231843Y-60273837D01*
X41886228Y-60416642D01*
X41621571Y-60680837D01*
X41478163Y-61026202D01*
X41477837Y-61400157D01*
X41620642Y-61745772D01*
X41681400Y-61806636D01*
X41681400Y-78740000D01*
X41681400Y-84657890D01*
X41338500Y-85000790D01*
X41338500Y-58674000D01*
X41326055Y-58611436D01*
X41326163Y-58487843D01*
X41278549Y-58372609D01*
X41265995Y-58309494D01*
X41230555Y-58256455D01*
X41183358Y-58142228D01*
X41095269Y-58053985D01*
X41059519Y-58000481D01*
X41006482Y-57965042D01*
X40919163Y-57877571D01*
X40804010Y-57829755D01*
X40750506Y-57794005D01*
X40687944Y-57781560D01*
X40573798Y-57734163D01*
X40449114Y-57734054D01*
X40386000Y-57721500D01*
X38227000Y-57721500D01*
X37862494Y-57794005D01*
X37553481Y-58000481D01*
X37426481Y-58127481D01*
X37391042Y-58180517D01*
X37303571Y-58267837D01*
X37255755Y-58382989D01*
X37220005Y-58436494D01*
X37207560Y-58499055D01*
X37160163Y-58613202D01*
X37160054Y-58737885D01*
X37147500Y-58801000D01*
X37159944Y-58863563D01*
X37159837Y-58987157D01*
X37207450Y-59102390D01*
X37220005Y-59165506D01*
X37255444Y-59218544D01*
X37302642Y-59332772D01*
X37390730Y-59421014D01*
X37426481Y-59474519D01*
X37479517Y-59509957D01*
X37566837Y-59597429D01*
X37681989Y-59645244D01*
X37735494Y-59680995D01*
X37798055Y-59693439D01*
X37912202Y-59740837D01*
X38036885Y-59740945D01*
X38100000Y-59753500D01*
X38162563Y-59741055D01*
X38286157Y-59741163D01*
X38401390Y-59693549D01*
X38464506Y-59680995D01*
X38517544Y-59645555D01*
X38563663Y-59626500D01*
X40386000Y-59626500D01*
X40448563Y-59614055D01*
X40572157Y-59614163D01*
X40687390Y-59566549D01*
X40750506Y-59553995D01*
X40803544Y-59518555D01*
X40917772Y-59471358D01*
X41006014Y-59383269D01*
X41059519Y-59347519D01*
X41094957Y-59294482D01*
X41182429Y-59207163D01*
X41230244Y-59092010D01*
X41265995Y-59038506D01*
X41278439Y-58975944D01*
X41325837Y-58861798D01*
X41325945Y-58737114D01*
X41338500Y-58674000D01*
X41338500Y-85000790D01*
X41135145Y-85204145D01*
X40975470Y-85443115D01*
X40919400Y-85725000D01*
X40919400Y-86783112D01*
X40859571Y-86842837D01*
X40716163Y-87188202D01*
X40715837Y-87562157D01*
X40858642Y-87907772D01*
X41122837Y-88172429D01*
X41468202Y-88315837D01*
X41842157Y-88316163D01*
X42187772Y-88173358D01*
X42189400Y-88171732D01*
X42189400Y-89958112D01*
X42129571Y-90017837D01*
X42027574Y-90263470D01*
X41685359Y-90195400D01*
X41626641Y-90195400D01*
X41053152Y-90309474D01*
X40586470Y-90621300D01*
X40580063Y-90588277D01*
X40440273Y-90375473D01*
X40229240Y-90233023D01*
X39979600Y-90182960D01*
X38252400Y-90182960D01*
X38010277Y-90229937D01*
X37797473Y-90369727D01*
X37655023Y-90580760D01*
X37604960Y-90830400D01*
X37604960Y-92557600D01*
X37651937Y-92799723D01*
X37791727Y-93012527D01*
X38002760Y-93154977D01*
X38043659Y-93163179D01*
X38026971Y-93174330D01*
X37702115Y-93660511D01*
X37588041Y-94234000D01*
X37702115Y-94807489D01*
X38026971Y-95293670D01*
X38513152Y-95618526D01*
X39086641Y-95732600D01*
X39145359Y-95732600D01*
X39718848Y-95618526D01*
X40205029Y-95293670D01*
X40386000Y-95022827D01*
X40566971Y-95293670D01*
X41053152Y-95618526D01*
X41626641Y-95732600D01*
X41685359Y-95732600D01*
X42258848Y-95618526D01*
X42745029Y-95293670D01*
X43069885Y-94807489D01*
X43183959Y-94234000D01*
X43069885Y-93660511D01*
X42745029Y-93174330D01*
X42430248Y-92964000D01*
X42745029Y-92753670D01*
X43069885Y-92267489D01*
X43183959Y-91694000D01*
X43141223Y-91479153D01*
X43457772Y-91348358D01*
X43722429Y-91084163D01*
X43865837Y-90738798D01*
X43866163Y-90364843D01*
X43723358Y-90019228D01*
X43662600Y-89958363D01*
X43662600Y-86317887D01*
X43722429Y-86258163D01*
X43865837Y-85912798D01*
X43866163Y-85538843D01*
X43723358Y-85193228D01*
X43662600Y-85132363D01*
X43662600Y-81026000D01*
X43662600Y-66040310D01*
X44183145Y-66560855D01*
X44422115Y-66720530D01*
X44422116Y-66720530D01*
X44704000Y-66776600D01*
X45922890Y-66776600D01*
X45999400Y-66853110D01*
X45999400Y-68326000D01*
X46055470Y-68607885D01*
X46215145Y-68846855D01*
X48031400Y-70663110D01*
X48031400Y-71628000D01*
X48087470Y-71909885D01*
X48247145Y-72148855D01*
X49263145Y-73164855D01*
X49502115Y-73324530D01*
X49784000Y-73380600D01*
X53067410Y-73380600D01*
X53276853Y-73694054D01*
X53606026Y-73914000D01*
X53276853Y-74133946D01*
X52954946Y-74615715D01*
X52841907Y-75184000D01*
X52954946Y-75752285D01*
X53276853Y-76234054D01*
X53617553Y-76461702D01*
X53474642Y-76528817D01*
X53084355Y-76957076D01*
X52914524Y-77367110D01*
X53035845Y-77597000D01*
X54229000Y-77597000D01*
X54229000Y-77577000D01*
X54483000Y-77577000D01*
X54483000Y-77597000D01*
X55676155Y-77597000D01*
X55797476Y-77367110D01*
X55627645Y-76957076D01*
X55237358Y-76528817D01*
X55094446Y-76461702D01*
X55435147Y-76234054D01*
X55757054Y-75752285D01*
X55870093Y-75184000D01*
X55870093Y-93628662D01*
X55797476Y-93658667D01*
X55797476Y-78080890D01*
X55676155Y-77851000D01*
X54483000Y-77851000D01*
X54483000Y-79044819D01*
X54712892Y-79165486D01*
X55237358Y-78919183D01*
X55627645Y-78490924D01*
X55797476Y-78080890D01*
X55797476Y-93658667D01*
X55785345Y-93663679D01*
X55785345Y-90678000D01*
X55671271Y-90104511D01*
X55346415Y-89618330D01*
X55031634Y-89408000D01*
X55346415Y-89197670D01*
X55671271Y-88711489D01*
X55785345Y-88138000D01*
X55671271Y-87564511D01*
X55346415Y-87078330D01*
X55031634Y-86868000D01*
X55346415Y-86657670D01*
X55671271Y-86171489D01*
X55785345Y-85598000D01*
X55671271Y-85024511D01*
X55346415Y-84538330D01*
X55324219Y-84523499D01*
X55477698Y-84459927D01*
X55656327Y-84281299D01*
X55753000Y-84047910D01*
X55753000Y-83795291D01*
X55753000Y-83343750D01*
X55753000Y-82772250D01*
X55753000Y-82320709D01*
X55753000Y-82068090D01*
X55656327Y-81834701D01*
X55477698Y-81656073D01*
X55244309Y-81559400D01*
X54387750Y-81559400D01*
X54229000Y-81718150D01*
X54229000Y-79044819D01*
X54229000Y-77851000D01*
X53035845Y-77851000D01*
X52914524Y-78080890D01*
X53084355Y-78490924D01*
X53474642Y-78919183D01*
X53999108Y-79165486D01*
X54229000Y-79044819D01*
X54229000Y-81718150D01*
X54229000Y-82931000D01*
X55594250Y-82931000D01*
X55753000Y-82772250D01*
X55753000Y-83343750D01*
X55594250Y-83185000D01*
X54229000Y-83185000D01*
X54229000Y-83205000D01*
X53975000Y-83205000D01*
X53975000Y-83185000D01*
X53975000Y-82931000D01*
X53975000Y-81718150D01*
X53816250Y-81559400D01*
X52959691Y-81559400D01*
X52726302Y-81656073D01*
X52547673Y-81834701D01*
X52451000Y-82068090D01*
X52451000Y-82320709D01*
X52451000Y-82772250D01*
X52609750Y-82931000D01*
X53975000Y-82931000D01*
X53975000Y-83185000D01*
X52609750Y-83185000D01*
X52451000Y-83343750D01*
X52451000Y-83795291D01*
X52451000Y-84047910D01*
X52547673Y-84281299D01*
X52726302Y-84459927D01*
X52879780Y-84523499D01*
X52857585Y-84538330D01*
X52532729Y-85024511D01*
X52418655Y-85598000D01*
X52532729Y-86171489D01*
X52857585Y-86657670D01*
X53172365Y-86868000D01*
X52857585Y-87078330D01*
X52532729Y-87564511D01*
X52418655Y-88138000D01*
X52532729Y-88711489D01*
X52857585Y-89197670D01*
X53172365Y-89408000D01*
X52857585Y-89618330D01*
X52532729Y-90104511D01*
X52418655Y-90678000D01*
X52532729Y-91251489D01*
X52857585Y-91737670D01*
X53343766Y-92062526D01*
X53917255Y-92176600D01*
X54286745Y-92176600D01*
X54860234Y-92062526D01*
X55346415Y-91737670D01*
X55671271Y-91251489D01*
X55785345Y-90678000D01*
X55785345Y-93663679D01*
X55515482Y-93775185D01*
X53781275Y-95506368D01*
X52841571Y-97769425D01*
X52839433Y-100219825D01*
X53775185Y-102484518D01*
X55506368Y-104218725D01*
X55738223Y-104315000D01*
X29197040Y-104315000D01*
X29197040Y-90652600D01*
X29197040Y-88925400D01*
X29150063Y-88683277D01*
X29010273Y-88470473D01*
X28799240Y-88328023D01*
X28549600Y-88277960D01*
X26822400Y-88277960D01*
X26580277Y-88324937D01*
X26367473Y-88464727D01*
X26225023Y-88675760D01*
X26206088Y-88770178D01*
X26034490Y-88582179D01*
X25505027Y-88334032D01*
X25273000Y-88454531D01*
X25273000Y-89662000D01*
X25293000Y-89662000D01*
X25293000Y-89916000D01*
X25273000Y-89916000D01*
X25273000Y-91123469D01*
X25505027Y-91243968D01*
X26034490Y-90995821D01*
X26205253Y-90808736D01*
X26221937Y-90894723D01*
X26361727Y-91107527D01*
X26572760Y-91249977D01*
X26822400Y-91300040D01*
X28549600Y-91300040D01*
X28791723Y-91253063D01*
X29004527Y-91113273D01*
X29146977Y-90902240D01*
X29197040Y-90652600D01*
X29197040Y-104315000D01*
X25019000Y-104315000D01*
X25019000Y-91123469D01*
X25019000Y-89916000D01*
X25019000Y-89662000D01*
X25019000Y-88454531D01*
X24993600Y-88441339D01*
X24993600Y-83539910D01*
X24993600Y-83287291D01*
X24993600Y-82835750D01*
X24834850Y-82677000D01*
X23622000Y-82677000D01*
X23622000Y-83889850D01*
X23780750Y-84048600D01*
X24484909Y-84048600D01*
X24718298Y-83951927D01*
X24896927Y-83773299D01*
X24993600Y-83539910D01*
X24993600Y-88441339D01*
X24786973Y-88334032D01*
X24257510Y-88582179D01*
X23863312Y-89014053D01*
X23691042Y-89429974D01*
X23812183Y-89662000D01*
X25019000Y-89662000D01*
X25019000Y-89916000D01*
X23812183Y-89916000D01*
X23691042Y-90148026D01*
X23863312Y-90563947D01*
X24257510Y-90995821D01*
X24786973Y-91243968D01*
X25019000Y-91123469D01*
X25019000Y-104315000D01*
X23368000Y-104315000D01*
X23368000Y-83889850D01*
X23368000Y-82677000D01*
X22288817Y-82677000D01*
X22155150Y-82677000D01*
X21082000Y-82677000D01*
X21082000Y-83884469D01*
X21314027Y-84004968D01*
X21843490Y-83756821D01*
X22010471Y-83573880D01*
X22093073Y-83773299D01*
X22271702Y-83951927D01*
X22505091Y-84048600D01*
X23209250Y-84048600D01*
X23368000Y-83889850D01*
X23368000Y-104315000D01*
X19266253Y-104315000D01*
X19484518Y-104224815D01*
X21218725Y-102493632D01*
X22158429Y-100230575D01*
X22160567Y-97780175D01*
X21224815Y-95515482D01*
X20828000Y-95117973D01*
X20828000Y-83884469D01*
X20828000Y-82677000D01*
X19621183Y-82677000D01*
X19500042Y-82909026D01*
X19672312Y-83324947D01*
X20066510Y-83756821D01*
X20595973Y-84004968D01*
X20828000Y-83884469D01*
X20828000Y-95117973D01*
X19493632Y-93781275D01*
X17230575Y-92841571D01*
X14780175Y-92839433D01*
X12515482Y-93775185D01*
X10781275Y-95506368D01*
X10685000Y-95738223D01*
X10685000Y-19266253D01*
X10775185Y-19484518D01*
X12506368Y-21218725D01*
X14769425Y-22158429D01*
X17219825Y-22160567D01*
X19484518Y-21224815D01*
X21218725Y-19493632D01*
X22158429Y-17230575D01*
X22160567Y-14780175D01*
X21224815Y-12515482D01*
X19493632Y-10781275D01*
X19261776Y-10685000D01*
X55733746Y-10685000D01*
X55515482Y-10775185D01*
X53781275Y-12506368D01*
X52841571Y-14769425D01*
X52839433Y-17219825D01*
X53775185Y-19484518D01*
X55506368Y-21218725D01*
X57554482Y-22069177D01*
X56959221Y-22315743D01*
X56689670Y-22728064D01*
X58674000Y-24712395D01*
X60658330Y-22728064D01*
X60388779Y-22315743D01*
X60011817Y-22160385D01*
X60219825Y-22160567D01*
X62484518Y-21224815D01*
X64218725Y-19493632D01*
X64315000Y-19261776D01*
X64315000Y-95733746D01*
M02*
