M48
;DRILL file {Pcbnew (2013-05-31 BZR 4019)-stable} date 7/18/2014 10:39:43 PM
;FORMAT={-:-/ absolute / inch / decimal}
FMAT,2
INCH,TZ
T1C0.025
T2C0.040
T3C0.053
T4C0.080
T5C0.098
T6C0.120
%
G90
G05
M72
T1
X0.2598Y-0.4409
X0.2756Y-0.5118
X0.2913Y-0.2992
X0.3071Y-0.4724
X0.3386Y-0.189
X0.3543Y-0.6614
X0.4252Y-0.1732
X0.4409Y-0.6614
X0.5276Y-0.189
X0.6378Y-0.4646
X0.6693Y-0.2913
X0.7165Y-0.1654
X0.7323Y-0.6693
X0.7638Y-0.315
X0.8898Y-0.4882
X0.9055Y-0.2047
X1.1417Y-0.2362
X1.2205Y-0.0472
X1.2362Y-0.5197
X1.2441Y-0.5984
X1.2835Y-0.3228
X1.3307Y-0.3622
X1.3543Y-0.6614
X1.3701Y-0.2756
X1.5433Y-0.2756
X1.5669Y-0.6614
T2
X0.2886Y-0.7374
X0.2886Y-0.8374
X0.2933Y-0.0787
X0.3886Y-0.7374
X0.3886Y-0.8374
X0.3933Y-0.0787
X0.4933Y-0.0787
X0.5614Y-0.5591
X0.5933Y-0.0787
X0.6614Y-0.5591
X0.6933Y-0.0787
X0.7614Y-0.5591
X0.7933Y-0.0787
T3
X1.748Y-0.3701
X1.748Y-0.5669
T4
X0.8657Y-0.7795
X1.0157Y-0.7795
X1.1657Y-0.7795
T5
X0.1181Y-0.1272
X0.1181Y-0.8161
X1.811Y-0.1272
X1.811Y-0.8083
T6
X0.6407Y-0.7795
X1.3907Y-0.7795
T0
M30
