M48
; DRILL file {KiCad (6.0.1)} date Mon Oct  3 06:37:37 2022
; FORMAT={-:-/ absolute / inch / decimal}
; #@! TF.CreationDate,2022-10-03T06:37:37-04:00
; #@! TF.GenerationSoftware,Kicad,Pcbnew,(6.0.1)
; #@! TF.FileFunction,MixedPlating,1,2
FMAT,2
INCH
; #@! TA.AperFunction,Plated,PTH,ComponentDrill
T1C0.0276
; #@! TA.AperFunction,Plated,PTH,ComponentDrill
T2C0.0300
; #@! TA.AperFunction,Plated,PTH,ComponentDrill
T3C0.0315
; #@! TA.AperFunction,Plated,PTH,ComponentDrill
T4C0.0394
; #@! TA.AperFunction,Plated,PTH,ComponentDrill
T5C0.1250
%
G90
G05
T1
X4.2717Y-2.6059
X4.2717Y-2.9059
X5.0984Y-2.6059
X5.0984Y-2.9059
X5.9252Y-2.6134
X5.9252Y-2.9134
X6.752Y-2.6134
X6.752Y-2.9134
T3
X4.2717Y-2.4803
X4.3701Y-2.4803
X5.0984Y-2.4803
X5.1969Y-2.4803
X5.9252Y-2.4803
X6.0236Y-2.4803
X6.752Y-2.4803
X6.8504Y-2.4803
T4
X5.062Y-2.0079
X5.162Y-2.0079
X5.262Y-2.0079
X5.362Y-2.0079
X5.462Y-2.0079
X5.562Y-2.0079
X5.662Y-2.0079
X5.762Y-2.0079
X5.862Y-2.0079
X5.962Y-2.0079
T5
X3.7008Y-1.7323
X3.7008Y-3.2677
X7.3228Y-1.7323
X7.3228Y-3.2677
T2
G00X4.0885Y-3.348
M15
G01X4.0485Y-3.348
M16
G05
G00X4.2885Y-3.348
M15
G01X4.2485Y-3.348
M16
G05
G00X4.4885Y-3.348
M15
G01X4.4485Y-3.348
M16
G05
G00X4.9153Y-3.348
M15
G01X4.8753Y-3.348
M16
G05
G00X5.1153Y-3.348
M15
G01X5.0753Y-3.348
M16
G05
G00X5.3153Y-3.348
M15
G01X5.2753Y-3.348
M16
G05
G00X5.742Y-3.348
M15
G01X5.702Y-3.348
M16
G05
G00X5.942Y-3.348
M15
G01X5.902Y-3.348
M16
G05
G00X6.142Y-3.348
M15
G01X6.102Y-3.348
M16
G05
G00X6.5688Y-3.3465
M15
G01X6.5288Y-3.3465
M16
G05
G00X6.7688Y-3.3465
M15
G01X6.7288Y-3.3465
M16
G05
G00X6.9688Y-3.3465
M15
G01X6.9288Y-3.3465
M16
G05
T0
M30
