solid GPS-Box
facet normal 0.793353340291236 -0.60876142900872 0.0
outer loop
vertex 81.8938968554247 1.24218246289731 0.0
vertex 81.6200640302673 0.929935969732711 25.4
vertex 81.6200640302673 0.929935969732711 0.0
endloop
endfacet
facet normal 0.707106781186542 -0.707106781186553 0.0
outer loop
vertex 81.6200640302673 0.929935969732711 25.4
vertex 81.8938968554247 1.24218246289731 0.0
vertex 81.8938968554247 1.24218246289731 25.4
endloop
endfacet
facet normal 0.608761429008724 0.793353340291233 0.0
outer loop
vertex 81.3078175371027 50.1438968554247 25.4
vertex 81.6200640302673 49.8700640302673 0.0
vertex 81.3078175371027 50.1438968554247 0.0
endloop
endfacet
facet normal 0.70710678118654 0.707106781186555 0.0
outer loop
vertex 81.6200640302673 49.8700640302673 0.0
vertex 81.3078175371027 50.1438968554247 25.4
vertex 81.6200640302673 49.8700640302673 25.4
endloop
endfacet
facet normal 0.500000000000008 0.866025403784434 0.0
outer loop
vertex 80.9625 50.3746306570156 25.4
vertex 81.3078175371027 50.1438968554247 0.0
vertex 80.9625 50.3746306570156 0.0
endloop
endfacet
facet normal 0.608761429008724 0.793353340291233 0.0
outer loop
vertex 81.3078175371027 50.1438968554247 0.0
vertex 80.9625 50.3746306570156 25.4
vertex 81.3078175371027 50.1438968554247 25.4
endloop
endfacet
facet normal -0.793353340291235 0.608761429008721 0.0
outer loop
vertex 7.03150314457533 49.5578175371027 25.4
vertex 6.80076934298441 49.2125 0.0
vertex 6.80076934298441 49.2125 25.4
endloop
endfacet
facet normal -0.866025403784437 0.500000000000002 0.0
outer loop
vertex 6.80076934298441 49.2125 0.0
vertex 7.03150314457533 49.5578175371027 25.4
vertex 7.03150314457533 49.5578175371027 0.0
endloop
endfacet
facet normal 0.866025403784442 -0.499999999999994 0.0
outer loop
vertex 82.1246306570156 1.5875 0.0
vertex 81.8938968554247 1.24218246289731 25.4
vertex 81.8938968554247 1.24218246289731 0.0
endloop
endfacet
facet normal 0.793353340291236 -0.60876142900872 0.0
outer loop
vertex 81.8938968554247 1.24218246289731 25.4
vertex 82.1246306570156 1.5875 0.0
vertex 82.1246306570156 1.5875 25.4
endloop
endfacet
facet normal -1.68314166730236e-017 1.0 -4.98407337039495e-017
outer loop
vertex 9.5504 3.175 25.4
vertex 79.375 3.175 4.445
vertex 9.5504 3.175 4.445
endloop
endfacet
facet normal -1.68314166730236e-017 1.0 -4.98407337039495e-017
outer loop
vertex 79.375 3.175 4.445
vertex 9.5504 3.175 25.4
vertex 79.375 3.175 24.3982633355625
endloop
endfacet
facet normal -1.68314166730236e-017 1.0 -4.98407337039495e-017
outer loop
vertex 79.375 3.175 24.3982633355625
vertex 9.5504 3.175 25.4
vertex 79.375 3.175 25.4
endloop
endfacet
facet normal -1.68314166730236e-017 1.0 -4.98407337039495e-017
outer loop
vertex 79.375 3.175 25.4
vertex 9.5504 3.175 25.4
vertex 77.3605492363728 3.175 25.4
endloop
endfacet
facet normal 0.0 -1.0 0.0
outer loop
vertex 82.55 31.3171075986869 18.8572633624075
vertex 79.375 31.3171075986869 10.0180633624075
vertex 82.55 31.3171075986869 10.0180633624075
endloop
endfacet
facet normal 0.0 -1.0 0.0
outer loop
vertex 79.375 31.3171075986869 10.0180633624075
vertex 82.55 31.3171075986869 18.8572633624075
vertex 79.375 31.3171075986869 18.8572633624075
endloop
endfacet
facet normal -0.0 -0.0 -1.0
outer loop
vertex 82.55 31.3171075986869 18.8572633624075
vertex 79.375 19.8871075986869 18.8572633624075
vertex 79.375 31.3171075986869 18.8572633624075
endloop
endfacet
facet normal -0.0 -0.0 -1.0
outer loop
vertex 79.375 19.8871075986869 18.8572633624075
vertex 82.55 31.3171075986869 18.8572633624075
vertex 82.55 19.8871075986869 18.8572633624075
endloop
endfacet
facet normal 0.0 0.0 1.0
outer loop
vertex 82.55 19.8871075986869 10.0180633624075
vertex 79.375 31.3171075986869 10.0180633624075
vertex 79.375 19.8871075986869 10.0180633624075
endloop
endfacet
facet normal 0.0 0.0 1.0
outer loop
vertex 79.375 31.3171075986869 10.0180633624075
vertex 82.55 19.8871075986869 10.0180633624075
vertex 82.55 31.3171075986869 10.0180633624075
endloop
endfacet
facet normal 0.0 1.0 0.0
outer loop
vertex 79.375 19.8871075986869 18.8572633624075
vertex 82.55 19.8871075986869 10.0180633624075
vertex 79.375 19.8871075986869 10.0180633624075
endloop
endfacet
facet normal 0.0 1.0 0.0
outer loop
vertex 82.55 19.8871075986869 10.0180633624075
vertex 79.375 19.8871075986869 18.8572633624075
vertex 82.55 19.8871075986869 18.8572633624075
endloop
endfacet
facet normal -0.0 -1.0 -0.0
outer loop
vertex 79.375 47.625 25.4
vertex 9.5504 47.625 4.445
vertex 79.375 47.625 4.445
endloop
endfacet
facet normal -0.0 -1.0 -0.0
outer loop
vertex 9.5504 47.625 4.445
vertex 79.375 47.625 25.4
vertex 9.5504 47.625 25.4
endloop
endfacet
facet normal 1.0 0.0 0.0
outer loop
vertex 9.5504 47.625 4.445
vertex 9.5504 3.175 25.4
vertex 9.5504 3.175 4.445
endloop
endfacet
facet normal 1.0 0.0 0.0
outer loop
vertex 9.5504 3.175 25.4
vertex 9.5504 47.625 4.445
vertex 9.5504 47.625 25.4
endloop
endfacet
facet normal 0.0 0.0 -1.0
outer loop
vertex 6.40256256513815 48.0394206602987 0.0
vertex 6.3754 3.175 0.0
vertex 6.3754 47.625 0.0
endloop
endfacet
facet normal 0.0 0.0 -1.0
outer loop
vertex 6.3754 3.175 0.0
vertex 6.40256256513815 48.0394206602987 0.0
vertex 6.40256256513815 2.76057933970134 0.0
endloop
endfacet
facet normal 0.0 0.0 -1.0
outer loop
vertex 6.40256256513815 2.76057933970134 0.0
vertex 6.40256256513815 48.0394206602987 0.0
vertex 6.48358550153221 48.4467504682005 0.0
endloop
endfacet
facet normal 0.0 0.0 -1.0
outer loop
vertex 6.40256256513815 2.76057933970134 0.0
vertex 6.48358550153221 48.4467504682005 0.0
vertex 6.48358550153221 2.3532495317995 0.0
endloop
endfacet
facet normal 0.0 0.0 -1.0
outer loop
vertex 6.48358550153221 2.3532495317995 0.0
vertex 6.48358550153221 48.4467504682005 0.0
vertex 6.61708248427666 48.8400198977592 0.0
endloop
endfacet
facet normal 0.0 0.0 -1.0
outer loop
vertex 6.48358550153221 2.3532495317995 0.0
vertex 6.61708248427666 48.8400198977592 0.0
vertex 6.61708248427667 1.95998010224084 0.0
endloop
endfacet
facet normal 0.0 0.0 -1.0
outer loop
vertex 6.61708248427667 1.95998010224084 0.0
vertex 6.61708248427666 48.8400198977592 0.0
vertex 6.80076934298441 49.2125 0.0
endloop
endfacet
facet normal 0.0 0.0 -1.0
outer loop
vertex 6.61708248427667 1.95998010224084 0.0
vertex 6.80076934298441 49.2125 0.0
vertex 6.80076934298441 1.5875 0.0
endloop
endfacet
facet normal 0.0 0.0 -1.0
outer loop
vertex 6.80076934298441 1.5875 0.0
vertex 6.80076934298441 49.2125 0.0
vertex 7.03150314457533 49.5578175371027 0.0
endloop
endfacet
facet normal 0.0 0.0 -1.0
outer loop
vertex 6.80076934298441 1.5875 0.0
vertex 7.03150314457533 49.5578175371027 0.0
vertex 7.03150314457533 1.24218246289731 0.0
endloop
endfacet
facet normal 0.0 0.0 -1.0
outer loop
vertex 7.03150314457533 1.24218246289731 0.0
vertex 7.03150314457533 49.5578175371027 0.0
vertex 7.30533596973271 49.8700640302673 0.0
endloop
endfacet
facet normal 0.0 0.0 -1.0
outer loop
vertex 7.03150314457533 1.24218246289731 0.0
vertex 7.30533596973271 49.8700640302673 0.0
vertex 7.30533596973271 0.929935969732712 0.0
endloop
endfacet
facet normal 0.0 0.0 -1.0
outer loop
vertex 7.30533596973271 0.929935969732712 0.0
vertex 7.30533596973271 49.8700640302673 0.0
vertex 7.61758246289731 50.1438968554247 0.0
endloop
endfacet
facet normal 0.0 0.0 -1.0
outer loop
vertex 7.30533596973271 0.929935969732712 0.0
vertex 7.61758246289731 50.1438968554247 0.0
vertex 7.61758246289731 0.656103144575329 0.0
endloop
endfacet
facet normal 0.0 0.0 -1.0
outer loop
vertex 7.61758246289731 0.656103144575329 0.0
vertex 7.61758246289731 50.1438968554247 0.0
vertex 7.9629 0.425369342984408 0.0
endloop
endfacet
facet normal 0.0 0.0 -1.0
outer loop
vertex 7.9629 0.425369342984408 0.0
vertex 7.61758246289731 50.1438968554247 0.0
vertex 7.9629 50.3746306570156 0.0
endloop
endfacet
facet normal 0.0 0.0 -1.0
outer loop
vertex 7.9629 0.425369342984408 0.0
vertex 7.9629 50.3746306570156 0.0
vertex 8.33538010224084 0.241682484276665 0.0
endloop
endfacet
facet normal 0.0 0.0 -1.0
outer loop
vertex 8.33538010224084 0.241682484276665 0.0
vertex 7.9629 50.3746306570156 0.0
vertex 8.33538010224084 50.5583175157233 0.0
endloop
endfacet
facet normal 0.0 0.0 -1.0
outer loop
vertex 8.33538010224084 0.241682484276665 0.0
vertex 8.33538010224084 50.5583175157233 0.0
vertex 8.7286495317995 0.108185501532209 0.0
endloop
endfacet
facet normal 0.0 0.0 -1.0
outer loop
vertex 8.7286495317995 0.108185501532209 0.0
vertex 8.33538010224084 50.5583175157233 0.0
vertex 8.7286495317995 50.6918144984678 0.0
endloop
endfacet
facet normal 0.0 0.0 -1.0
outer loop
vertex 8.7286495317995 0.108185501532209 0.0
vertex 8.7286495317995 50.6918144984678 0.0
vertex 9.13597933970134 0.0271625651381527 0.0
endloop
endfacet
facet normal 0.0 0.0 -1.0
outer loop
vertex 9.13597933970134 0.0271625651381527 0.0
vertex 8.7286495317995 50.6918144984678 0.0
vertex 9.13597933970134 50.7728374348618 0.0
endloop
endfacet
facet normal 0.0 0.0 -1.0
outer loop
vertex 9.13597933970134 0.0271625651381527 0.0
vertex 9.13597933970134 50.7728374348618 0.0
vertex 9.5504 7.04991620636974e-016 0.0
endloop
endfacet
facet normal 0.0 0.0 -1.0
outer loop
vertex 9.5504 7.04991620636974e-016 0.0
vertex 9.13597933970134 50.7728374348618 0.0
vertex 9.55040000000001 50.8 0.0
endloop
endfacet
facet normal 0.0 0.0 -1.0
outer loop
vertex 9.5504 7.04991620636974e-016 0.0
vertex 9.55040000000001 50.8 0.0
vertex 79.375 0.0 0.0
endloop
endfacet
facet normal 0.0 0.0 -1.0
outer loop
vertex 79.375 0.0 0.0
vertex 9.55040000000001 50.8 0.0
vertex 79.375 50.8 0.0
endloop
endfacet
facet normal 0.0 0.0 -1.0
outer loop
vertex 79.375 0.0 0.0
vertex 79.375 50.8 0.0
vertex 79.7894206602987 50.7728374348618 0.0
endloop
endfacet
facet normal 0.0 0.0 -1.0
outer loop
vertex 79.375 0.0 0.0
vertex 79.7894206602987 50.7728374348618 0.0
vertex 79.7894206602987 0.027162565138152 0.0
endloop
endfacet
facet normal 0.0 0.0 -1.0
outer loop
vertex 79.7894206602987 0.027162565138152 0.0
vertex 79.7894206602987 50.7728374348618 0.0
vertex 80.1967504682005 50.6918144984678 0.0
endloop
endfacet
facet normal 0.0 0.0 -1.0
outer loop
vertex 79.7894206602987 0.027162565138152 0.0
vertex 80.1967504682005 50.6918144984678 0.0
vertex 80.1967504682005 0.108185501532208 0.0
endloop
endfacet
facet normal 0.0 0.0 -1.0
outer loop
vertex 80.1967504682005 0.108185501532208 0.0
vertex 80.1967504682005 50.6918144984678 0.0
vertex 80.5900198977592 50.5583175157233 0.0
endloop
endfacet
facet normal 0.0 0.0 -1.0
outer loop
vertex 80.1967504682005 0.108185501532208 0.0
vertex 80.5900198977592 50.5583175157233 0.0
vertex 80.5900198977592 0.241682484276665 0.0
endloop
endfacet
facet normal 0.0 0.0 -1.0
outer loop
vertex 80.5900198977592 0.241682484276665 0.0
vertex 80.5900198977592 50.5583175157233 0.0
vertex 80.9625 50.3746306570156 0.0
endloop
endfacet
facet normal 0.0 0.0 -1.0
outer loop
vertex 80.5900198977592 0.241682484276665 0.0
vertex 80.9625 50.3746306570156 0.0
vertex 80.9625 0.425369342984407 0.0
endloop
endfacet
facet normal 0.0 0.0 -1.0
outer loop
vertex 80.9625 0.425369342984407 0.0
vertex 80.9625 50.3746306570156 0.0
vertex 81.3078175371027 50.1438968554247 0.0
endloop
endfacet
facet normal 0.0 0.0 -1.0
outer loop
vertex 80.9625 0.425369342984407 0.0
vertex 81.3078175371027 50.1438968554247 0.0
vertex 81.3078175371027 0.656103144575329 0.0
endloop
endfacet
facet normal 0.0 0.0 -1.0
outer loop
vertex 81.3078175371027 0.656103144575329 0.0
vertex 81.3078175371027 50.1438968554247 0.0
vertex 81.6200640302673 49.8700640302673 0.0
endloop
endfacet
facet normal 0.0 0.0 -1.0
outer loop
vertex 81.3078175371027 0.656103144575329 0.0
vertex 81.6200640302673 49.8700640302673 0.0
vertex 81.6200640302673 0.929935969732711 0.0
endloop
endfacet
facet normal 0.0 0.0 -1.0
outer loop
vertex 81.6200640302673 0.929935969732711 0.0
vertex 81.6200640302673 49.8700640302673 0.0
vertex 81.8938968554247 49.5578175371027 0.0
endloop
endfacet
facet normal 0.0 0.0 -1.0
outer loop
vertex 81.6200640302673 0.929935969732711 0.0
vertex 81.8938968554247 49.5578175371027 0.0
vertex 81.8938968554247 1.24218246289731 0.0
endloop
endfacet
facet normal 0.0 0.0 -1.0
outer loop
vertex 81.8938968554247 1.24218246289731 0.0
vertex 81.8938968554247 49.5578175371027 0.0
vertex 82.1246306570156 49.2125 0.0
endloop
endfacet
facet normal 0.0 0.0 -1.0
outer loop
vertex 81.8938968554247 1.24218246289731 0.0
vertex 82.1246306570156 49.2125 0.0
vertex 82.1246306570156 1.5875 0.0
endloop
endfacet
facet normal 0.0 0.0 -1.0
outer loop
vertex 82.1246306570156 1.5875 0.0
vertex 82.1246306570156 49.2125 0.0
vertex 82.3083175157233 48.8400198977592 0.0
endloop
endfacet
facet normal 0.0 0.0 -1.0
outer loop
vertex 82.1246306570156 1.5875 0.0
vertex 82.3083175157233 48.8400198977592 0.0
vertex 82.3083175157233 1.95998010224084 0.0
endloop
endfacet
facet normal 0.0 0.0 -1.0
outer loop
vertex 82.3083175157233 1.95998010224084 0.0
vertex 82.3083175157233 48.8400198977592 0.0
vertex 82.4418144984678 48.4467504682005 0.0
endloop
endfacet
facet normal 0.0 0.0 -1.0
outer loop
vertex 82.3083175157233 1.95998010224084 0.0
vertex 82.4418144984678 48.4467504682005 0.0
vertex 82.4418144984678 2.3532495317995 0.0
endloop
endfacet
facet normal 0.0 0.0 -1.0
outer loop
vertex 82.4418144984678 2.3532495317995 0.0
vertex 82.4418144984678 48.4467504682005 0.0
vertex 82.5228374348618 48.0394206602987 0.0
endloop
endfacet
facet normal 0.0 0.0 -1.0
outer loop
vertex 82.4418144984678 2.3532495317995 0.0
vertex 82.5228374348618 48.0394206602987 0.0
vertex 82.5228374348618 2.76057933970134 0.0
endloop
endfacet
facet normal 0.0 0.0 -1.0
outer loop
vertex 82.5228374348618 2.76057933970134 0.0
vertex 82.5228374348618 48.0394206602987 0.0
vertex 82.55 47.625 0.0
endloop
endfacet
facet normal 0.0 0.0 -1.0
outer loop
vertex 82.5228374348618 2.76057933970134 0.0
vertex 82.55 47.625 0.0
vertex 82.55 3.175 0.0
endloop
endfacet
facet normal 0.923879532511283 -0.382683432365098 0.0
outer loop
vertex 82.3083175157233 1.95998010224084 0.0
vertex 82.1246306570156 1.5875 25.4
vertex 82.1246306570156 1.5875 0.0
endloop
endfacet
facet normal 0.866025403784442 -0.499999999999994 0.0
outer loop
vertex 82.1246306570156 1.5875 25.4
vertex 82.3083175157233 1.95998010224084 0.0
vertex 82.3083175157233 1.95998010224084 25.4
endloop
endfacet
facet normal 0.965925826289067 -0.258819045102525 0.0
outer loop
vertex 82.4418144984678 2.3532495317995 0.0
vertex 82.3083175157233 1.95998010224084 25.4
vertex 82.3083175157233 1.95998010224084 0.0
endloop
endfacet
facet normal 0.923879532511283 -0.382683432365098 0.0
outer loop
vertex 82.3083175157233 1.95998010224084 25.4
vertex 82.4418144984678 2.3532495317995 0.0
vertex 82.4418144984678 2.3532495317995 25.4
endloop
endfacet
facet normal -0.866025403784437 0.500000000000002 0.0
outer loop
vertex 6.80076934298441 49.2125 25.4
vertex 6.61708248427666 48.8400198977592 0.0
vertex 6.61708248427666 48.8400198977592 25.4
endloop
endfacet
facet normal -0.923879532511285 0.382683432365094 0.0
outer loop
vertex 6.61708248427666 48.8400198977592 0.0
vertex 6.80076934298441 49.2125 25.4
vertex 6.80076934298441 49.2125 0.0
endloop
endfacet
facet normal 0.258819045102517 0.965925826289069 0.0
outer loop
vertex 80.1967504682005 50.6918144984678 25.4
vertex 80.5900198977592 50.5583175157233 0.0
vertex 80.1967504682005 50.6918144984678 0.0
endloop
endfacet
facet normal 0.382683432365091 0.923879532511286 0.0
outer loop
vertex 80.5900198977592 50.5583175157233 0.0
vertex 80.1967504682005 50.6918144984678 25.4
vertex 80.5900198977592 50.5583175157233 25.4
endloop
endfacet
facet normal -0.499999999999999 -0.866025403784439 0.0
outer loop
vertex 7.9629 0.425369342984408 25.4
vertex 7.61758246289731 0.656103144575329 0.0
vertex 7.9629 0.425369342984408 0.0
endloop
endfacet
facet normal -0.60876142900872 -0.793353340291236 0.0
outer loop
vertex 7.61758246289731 0.656103144575329 0.0
vertex 7.9629 0.425369342984408 25.4
vertex 7.61758246289731 0.656103144575329 25.4
endloop
endfacet
facet normal 0.0 0.0 1.0
outer loop
vertex 79.375 0.0 25.4
vertex 9.5504 3.175 25.4
vertex 9.5504 7.04991620636974e-016 25.4
endloop
endfacet
facet normal 0.0 0.0 1.0
outer loop
vertex 9.5504 3.175 25.4
vertex 79.375 0.0 25.4
vertex 77.3605492363728 3.175 25.4
endloop
endfacet
facet normal 0.0 0.0 1.0
outer loop
vertex 77.3605492363728 3.175 25.4
vertex 79.375 0.0 25.4
vertex 79.375 3.175 25.4
endloop
endfacet
facet normal 0.0 0.0 1.0
outer loop
vertex 79.375 3.175 25.4
vertex 79.375 0.0 25.4
vertex 79.7894206602987 0.027162565138152 25.4
endloop
endfacet
facet normal 0.0 0.0 1.0
outer loop
vertex 79.375 3.175 25.4
vertex 79.7894206602987 0.027162565138152 25.4
vertex 79.375 5.18945076362719 25.4
endloop
endfacet
facet normal 0.0 0.0 1.0
outer loop
vertex 79.375 5.18945076362719 25.4
vertex 79.7894206602987 0.027162565138152 25.4
vertex 79.375 47.625 25.4
endloop
endfacet
facet normal 0.0 0.0 1.0
outer loop
vertex 79.375 47.625 25.4
vertex 79.7894206602987 0.027162565138152 25.4
vertex 79.375 50.8 25.4
endloop
endfacet
facet normal 0.0 0.0 1.0
outer loop
vertex 79.375 50.8 25.4
vertex 79.7894206602987 0.027162565138152 25.4
vertex 79.7894206602987 50.7728374348618 25.4
endloop
endfacet
facet normal 0.0 0.0 1.0
outer loop
vertex 79.7894206602987 50.7728374348618 25.4
vertex 79.7894206602987 0.027162565138152 25.4
vertex 80.1967504682005 0.108185501532208 25.4
endloop
endfacet
facet normal 0.0 0.0 1.0
outer loop
vertex 79.7894206602987 50.7728374348618 25.4
vertex 80.1967504682005 0.108185501532208 25.4
vertex 80.1967504682005 50.6918144984678 25.4
endloop
endfacet
facet normal 0.0 0.0 1.0
outer loop
vertex 80.1967504682005 50.6918144984678 25.4
vertex 80.1967504682005 0.108185501532208 25.4
vertex 80.5900198977592 0.241682484276665 25.4
endloop
endfacet
facet normal 0.0 0.0 1.0
outer loop
vertex 80.1967504682005 50.6918144984678 25.4
vertex 80.5900198977592 0.241682484276665 25.4
vertex 80.5900198977592 50.5583175157233 25.4
endloop
endfacet
facet normal 0.0 0.0 1.0
outer loop
vertex 80.5900198977592 50.5583175157233 25.4
vertex 80.5900198977592 0.241682484276665 25.4
vertex 80.9625 0.425369342984407 25.4
endloop
endfacet
facet normal 0.0 0.0 1.0
outer loop
vertex 80.5900198977592 50.5583175157233 25.4
vertex 80.9625 0.425369342984407 25.4
vertex 80.9625 50.3746306570156 25.4
endloop
endfacet
facet normal 0.0 0.0 1.0
outer loop
vertex 80.9625 50.3746306570156 25.4
vertex 80.9625 0.425369342984407 25.4
vertex 81.3078175371027 0.656103144575329 25.4
endloop
endfacet
facet normal 0.0 0.0 1.0
outer loop
vertex 80.9625 50.3746306570156 25.4
vertex 81.3078175371027 0.656103144575329 25.4
vertex 81.3078175371027 50.1438968554247 25.4
endloop
endfacet
facet normal 0.0 0.0 1.0
outer loop
vertex 81.3078175371027 50.1438968554247 25.4
vertex 81.3078175371027 0.656103144575329 25.4
vertex 81.6200640302673 0.929935969732711 25.4
endloop
endfacet
facet normal 0.0 0.0 1.0
outer loop
vertex 81.3078175371027 50.1438968554247 25.4
vertex 81.6200640302673 0.929935969732711 25.4
vertex 81.6200640302673 49.8700640302673 25.4
endloop
endfacet
facet normal 0.0 0.0 1.0
outer loop
vertex 81.6200640302673 49.8700640302673 25.4
vertex 81.6200640302673 0.929935969732711 25.4
vertex 81.8938968554247 1.24218246289731 25.4
endloop
endfacet
facet normal 0.0 0.0 1.0
outer loop
vertex 81.6200640302673 49.8700640302673 25.4
vertex 81.8938968554247 1.24218246289731 25.4
vertex 81.8938968554247 49.5578175371027 25.4
endloop
endfacet
facet normal 0.0 0.0 1.0
outer loop
vertex 81.8938968554247 49.5578175371027 25.4
vertex 81.8938968554247 1.24218246289731 25.4
vertex 82.1246306570156 1.5875 25.4
endloop
endfacet
facet normal 0.0 0.0 1.0
outer loop
vertex 81.8938968554247 49.5578175371027 25.4
vertex 82.1246306570156 1.5875 25.4
vertex 82.1246306570156 49.2125 25.4
endloop
endfacet
facet normal 0.0 0.0 1.0
outer loop
vertex 82.1246306570156 49.2125 25.4
vertex 82.1246306570156 1.5875 25.4
vertex 82.3083175157233 1.95998010224084 25.4
endloop
endfacet
facet normal 0.0 0.0 1.0
outer loop
vertex 82.1246306570156 49.2125 25.4
vertex 82.3083175157233 1.95998010224084 25.4
vertex 82.3083175157233 48.8400198977592 25.4
endloop
endfacet
facet normal 0.0 0.0 1.0
outer loop
vertex 82.3083175157233 48.8400198977592 25.4
vertex 82.3083175157233 1.95998010224084 25.4
vertex 82.4418144984678 2.3532495317995 25.4
endloop
endfacet
facet normal 0.0 0.0 1.0
outer loop
vertex 82.3083175157233 48.8400198977592 25.4
vertex 82.4418144984678 2.3532495317995 25.4
vertex 82.4418144984678 48.4467504682005 25.4
endloop
endfacet
facet normal 0.0 0.0 1.0
outer loop
vertex 82.4418144984678 48.4467504682005 25.4
vertex 82.4418144984678 2.3532495317995 25.4
vertex 82.5228374348618 2.76057933970134 25.4
endloop
endfacet
facet normal 0.0 0.0 1.0
outer loop
vertex 82.4418144984678 48.4467504682005 25.4
vertex 82.5228374348618 2.76057933970134 25.4
vertex 82.5228374348618 48.0394206602987 25.4
endloop
endfacet
facet normal 0.0 0.0 1.0
outer loop
vertex 82.5228374348618 48.0394206602987 25.4
vertex 82.5228374348618 2.76057933970134 25.4
vertex 82.55 3.175 25.4
endloop
endfacet
facet normal 0.0 0.0 1.0
outer loop
vertex 82.5228374348618 48.0394206602987 25.4
vertex 82.55 3.175 25.4
vertex 82.55 47.625 25.4
endloop
endfacet
facet normal 0.0 0.0 1.0
outer loop
vertex 6.3754 3.175 25.4
vertex 6.40256256513815 48.0394206602987 25.4
vertex 6.3754 47.625 25.4
endloop
endfacet
facet normal 0.0 0.0 1.0
outer loop
vertex 6.40256256513815 48.0394206602987 25.4
vertex 6.3754 3.175 25.4
vertex 6.40256256513815 2.76057933970134 25.4
endloop
endfacet
facet normal 0.0 0.0 1.0
outer loop
vertex 6.40256256513815 48.0394206602987 25.4
vertex 6.40256256513815 2.76057933970134 25.4
vertex 6.48358550153221 48.4467504682005 25.4
endloop
endfacet
facet normal 0.0 0.0 1.0
outer loop
vertex 6.48358550153221 48.4467504682005 25.4
vertex 6.40256256513815 2.76057933970134 25.4
vertex 6.48358550153221 2.3532495317995 25.4
endloop
endfacet
facet normal 0.0 0.0 1.0
outer loop
vertex 6.48358550153221 48.4467504682005 25.4
vertex 6.48358550153221 2.3532495317995 25.4
vertex 6.61708248427666 48.8400198977592 25.4
endloop
endfacet
facet normal 0.0 0.0 1.0
outer loop
vertex 6.61708248427666 48.8400198977592 25.4
vertex 6.48358550153221 2.3532495317995 25.4
vertex 6.61708248427667 1.95998010224084 25.4
endloop
endfacet
facet normal 0.0 0.0 1.0
outer loop
vertex 6.61708248427666 48.8400198977592 25.4
vertex 6.61708248427667 1.95998010224084 25.4
vertex 6.80076934298441 49.2125 25.4
endloop
endfacet
facet normal 0.0 0.0 1.0
outer loop
vertex 6.80076934298441 49.2125 25.4
vertex 6.61708248427667 1.95998010224084 25.4
vertex 6.80076934298441 1.5875 25.4
endloop
endfacet
facet normal 0.0 0.0 1.0
outer loop
vertex 6.80076934298441 49.2125 25.4
vertex 6.80076934298441 1.5875 25.4
vertex 7.03150314457533 49.5578175371027 25.4
endloop
endfacet
facet normal 0.0 0.0 1.0
outer loop
vertex 7.03150314457533 49.5578175371027 25.4
vertex 6.80076934298441 1.5875 25.4
vertex 7.03150314457533 1.24218246289731 25.4
endloop
endfacet
facet normal 0.0 0.0 1.0
outer loop
vertex 7.03150314457533 49.5578175371027 25.4
vertex 7.03150314457533 1.24218246289731 25.4
vertex 7.30533596973271 49.8700640302673 25.4
endloop
endfacet
facet normal 0.0 0.0 1.0
outer loop
vertex 7.30533596973271 49.8700640302673 25.4
vertex 7.03150314457533 1.24218246289731 25.4
vertex 7.30533596973271 0.929935969732712 25.4
endloop
endfacet
facet normal 0.0 0.0 1.0
outer loop
vertex 7.30533596973271 49.8700640302673 25.4
vertex 7.30533596973271 0.929935969732712 25.4
vertex 7.61758246289731 0.656103144575329 25.4
endloop
endfacet
facet normal 0.0 0.0 1.0
outer loop
vertex 7.30533596973271 49.8700640302673 25.4
vertex 7.61758246289731 0.656103144575329 25.4
vertex 7.61758246289731 50.1438968554247 25.4
endloop
endfacet
facet normal 0.0 0.0 1.0
outer loop
vertex 7.61758246289731 50.1438968554247 25.4
vertex 7.61758246289731 0.656103144575329 25.4
vertex 7.9629 0.425369342984408 25.4
endloop
endfacet
facet normal 0.0 0.0 1.0
outer loop
vertex 7.61758246289731 50.1438968554247 25.4
vertex 7.9629 0.425369342984408 25.4
vertex 7.9629 50.3746306570156 25.4
endloop
endfacet
facet normal 0.0 0.0 1.0
outer loop
vertex 7.9629 50.3746306570156 25.4
vertex 7.9629 0.425369342984408 25.4
vertex 8.33538010224084 0.241682484276665 25.4
endloop
endfacet
facet normal 0.0 0.0 1.0
outer loop
vertex 7.9629 50.3746306570156 25.4
vertex 8.33538010224084 0.241682484276665 25.4
vertex 8.33538010224084 50.5583175157233 25.4
endloop
endfacet
facet normal 0.0 0.0 1.0
outer loop
vertex 8.33538010224084 50.5583175157233 25.4
vertex 8.33538010224084 0.241682484276665 25.4
vertex 8.7286495317995 0.108185501532209 25.4
endloop
endfacet
facet normal 0.0 0.0 1.0
outer loop
vertex 8.33538010224084 50.5583175157233 25.4
vertex 8.7286495317995 0.108185501532209 25.4
vertex 8.7286495317995 50.6918144984678 25.4
endloop
endfacet
facet normal 0.0 0.0 1.0
outer loop
vertex 8.7286495317995 50.6918144984678 25.4
vertex 8.7286495317995 0.108185501532209 25.4
vertex 9.13597933970134 0.0271625651381527 25.4
endloop
endfacet
facet normal 0.0 0.0 1.0
outer loop
vertex 8.7286495317995 50.6918144984678 25.4
vertex 9.13597933970134 0.0271625651381527 25.4
vertex 9.13597933970134 50.7728374348618 25.4
endloop
endfacet
facet normal 0.0 0.0 1.0
outer loop
vertex 9.13597933970134 50.7728374348618 25.4
vertex 9.13597933970134 0.0271625651381527 25.4
vertex 9.5504 7.04991620636974e-016 25.4
endloop
endfacet
facet normal 0.0 0.0 1.0
outer loop
vertex 9.13597933970134 50.7728374348618 25.4
vertex 9.5504 7.04991620636974e-016 25.4
vertex 9.5504 47.625 25.4
endloop
endfacet
facet normal 0.0 0.0 1.0
outer loop
vertex 9.13597933970134 50.7728374348618 25.4
vertex 9.5504 47.625 25.4
vertex 9.55040000000001 50.8 25.4
endloop
endfacet
facet normal 0.0 0.0 1.0
outer loop
vertex 9.5504 47.625 25.4
vertex 9.5504 7.04991620636974e-016 25.4
vertex 9.5504 3.175 25.4
endloop
endfacet
facet normal 0.0 0.0 1.0
outer loop
vertex 9.55040000000001 50.8 25.4
vertex 9.5504 47.625 25.4
vertex 79.375 47.625 25.4
endloop
endfacet
facet normal 0.0 0.0 1.0
outer loop
vertex 9.55040000000001 50.8 25.4
vertex 79.375 47.625 25.4
vertex 79.375 50.8 25.4
endloop
endfacet
facet normal 0.991444861373811 -0.130526192220047 0.0
outer loop
vertex 82.5228374348618 2.76057933970134 0.0
vertex 82.4418144984678 2.3532495317995 25.4
vertex 82.4418144984678 2.3532495317995 0.0
endloop
endfacet
facet normal 0.965925826289067 -0.258819045102525 0.0
outer loop
vertex 82.4418144984678 2.3532495317995 25.4
vertex 82.5228374348618 2.76057933970134 0.0
vertex 82.5228374348618 2.76057933970134 25.4
endloop
endfacet
facet normal 0.997858923238604 -0.0654031292301391 0.0
outer loop
vertex 82.55 3.175 0.0
vertex 82.5228374348618 2.76057933970134 25.4
vertex 82.5228374348618 2.76057933970134 0.0
endloop
endfacet
facet normal 0.991444861373811 -0.130526192220047 0.0
outer loop
vertex 82.5228374348618 2.76057933970134 25.4
vertex 82.55 3.175 0.0
vertex 82.55 3.175 25.4
endloop
endfacet
facet normal 1.0 0.0 0.0
outer loop
vertex 82.55 3.175 0.0
vertex 82.55 19.8871075986869 10.0180633624075
vertex 82.55 3.175 25.4
endloop
endfacet
facet normal 1.0 0.0 0.0
outer loop
vertex 82.55 19.8871075986869 10.0180633624075
vertex 82.55 3.175 0.0
vertex 82.55 47.625 0.0
endloop
endfacet
facet normal 1.0 0.0 0.0
outer loop
vertex 82.55 19.8871075986869 10.0180633624075
vertex 82.55 47.625 0.0
vertex 82.55 31.3171075986869 10.0180633624075
endloop
endfacet
facet normal 1.0 0.0 0.0
outer loop
vertex 82.55 31.3171075986869 10.0180633624075
vertex 82.55 47.625 0.0
vertex 82.55 31.3171075986869 18.8572633624075
endloop
endfacet
facet normal 1.0 0.0 0.0
outer loop
vertex 82.55 3.175 25.4
vertex 82.55 19.8871075986869 18.8572633624075
vertex 82.55 47.625 25.4
endloop
endfacet
facet normal 1.0 0.0 0.0
outer loop
vertex 82.55 19.8871075986869 18.8572633624075
vertex 82.55 3.175 25.4
vertex 82.55 19.8871075986869 10.0180633624075
endloop
endfacet
facet normal 1.0 0.0 0.0
outer loop
vertex 82.55 47.625 25.4
vertex 82.55 19.8871075986869 18.8572633624075
vertex 82.55 31.3171075986869 18.8572633624075
endloop
endfacet
facet normal 1.0 0.0 0.0
outer loop
vertex 82.55 47.625 25.4
vertex 82.55 31.3171075986869 18.8572633624075
vertex 82.55 47.625 0.0
endloop
endfacet
facet normal -1.00966080813492e-017 -1.0 0.0
outer loop
vertex 79.375 0.0 25.4
vertex 9.5504 7.04991620636974e-016 0.0
vertex 79.375 0.0 0.0
endloop
endfacet
facet normal -1.00966080813492e-017 -1.0 0.0
outer loop
vertex 9.5504 7.04991620636974e-016 0.0
vertex 79.375 0.0 25.4
vertex 9.5504 7.04991620636974e-016 25.4
endloop
endfacet
facet normal -0.707106781186548 0.707106781186547 0.0
outer loop
vertex 7.30533596973271 49.8700640302673 25.4
vertex 7.03150314457533 49.5578175371027 0.0
vertex 7.03150314457533 49.5578175371027 25.4
endloop
endfacet
facet normal -0.793353340291235 0.608761429008721 0.0
outer loop
vertex 7.03150314457533 49.5578175371027 0.0
vertex 7.30533596973271 49.8700640302673 25.4
vertex 7.30533596973271 49.8700640302673 0.0
endloop
endfacet
facet normal -0.923879532511285 0.382683432365094 0.0
outer loop
vertex 6.61708248427666 48.8400198977592 25.4
vertex 6.48358550153221 48.4467504682005 0.0
vertex 6.48358550153221 48.4467504682005 25.4
endloop
endfacet
facet normal -0.965925826289069 0.25881904510252 0.0
outer loop
vertex 6.48358550153221 48.4467504682005 0.0
vertex 6.61708248427666 48.8400198977592 25.4
vertex 6.61708248427666 48.8400198977592 0.0
endloop
endfacet
facet normal -0.965925826289069 0.25881904510252 0.0
outer loop
vertex 6.48358550153221 48.4467504682005 25.4
vertex 6.40256256513815 48.0394206602987 0.0
vertex 6.40256256513815 48.0394206602987 25.4
endloop
endfacet
facet normal -0.99144486137381 0.130526192220051 0.0
outer loop
vertex 6.40256256513815 48.0394206602987 0.0
vertex 6.48358550153221 48.4467504682005 25.4
vertex 6.48358550153221 48.4467504682005 0.0
endloop
endfacet
facet normal -0.99144486137381 0.130526192220051 0.0
outer loop
vertex 6.40256256513815 48.0394206602987 25.4
vertex 6.3754 47.625 0.0
vertex 6.3754 47.625 25.4
endloop
endfacet
facet normal -0.997858923238604 0.0654031292301427 0.0
outer loop
vertex 6.3754 47.625 0.0
vertex 6.40256256513815 48.0394206602987 25.4
vertex 6.40256256513815 48.0394206602987 0.0
endloop
endfacet
facet normal -0.130526192220047 0.991444861373811 0.0
outer loop
vertex 9.13597933970134 50.7728374348618 25.4
vertex 9.55040000000001 50.8 0.0
vertex 9.13597933970134 50.7728374348618 0.0
endloop
endfacet
facet normal -0.0654031292301388 0.997858923238604 0.0
outer loop
vertex 9.55040000000001 50.8 0.0
vertex 9.13597933970134 50.7728374348618 25.4
vertex 9.55040000000001 50.8 25.4
endloop
endfacet
facet normal -0.258819045102518 0.965925826289069 0.0
outer loop
vertex 8.7286495317995 50.6918144984678 25.4
vertex 9.13597933970134 50.7728374348618 0.0
vertex 8.7286495317995 50.6918144984678 0.0
endloop
endfacet
facet normal -0.130526192220047 0.991444861373811 0.0
outer loop
vertex 9.13597933970134 50.7728374348618 0.0
vertex 8.7286495317995 50.6918144984678 25.4
vertex 9.13597933970134 50.7728374348618 25.4
endloop
endfacet
facet normal 0.130526192220048 0.991444861373811 0.0
outer loop
vertex 79.7894206602987 50.7728374348618 25.4
vertex 80.1967504682005 50.6918144984678 0.0
vertex 79.7894206602987 50.7728374348618 0.0
endloop
endfacet
facet normal 0.258819045102517 0.965925826289069 0.0
outer loop
vertex 80.1967504682005 50.6918144984678 0.0
vertex 79.7894206602987 50.7728374348618 25.4
vertex 80.1967504682005 50.6918144984678 25.4
endloop
endfacet
facet normal 0.0654031292301384 0.997858923238604 0.0
outer loop
vertex 79.375 50.8 25.4
vertex 79.7894206602987 50.7728374348618 0.0
vertex 79.375 50.8 0.0
endloop
endfacet
facet normal 0.130526192220048 0.991444861373811 0.0
outer loop
vertex 79.7894206602987 50.7728374348618 0.0
vertex 79.375 50.8 25.4
vertex 79.7894206602987 50.7728374348618 25.4
endloop
endfacet
facet normal 0.991444861373811 0.130526192220046 0.0
outer loop
vertex 82.5228374348618 48.0394206602987 0.0
vertex 82.55 47.625 25.4
vertex 82.55 47.625 0.0
endloop
endfacet
facet normal 0.997858923238604 0.0654031292301393 0.0
outer loop
vertex 82.55 47.625 25.4
vertex 82.5228374348618 48.0394206602987 0.0
vertex 82.5228374348618 48.0394206602987 25.4
endloop
endfacet
facet normal 0.965925826289067 0.258819045102525 0.0
outer loop
vertex 82.4418144984678 48.4467504682005 0.0
vertex 82.5228374348618 48.0394206602987 25.4
vertex 82.5228374348618 48.0394206602987 0.0
endloop
endfacet
facet normal 0.991444861373811 0.130526192220046 0.0
outer loop
vertex 82.5228374348618 48.0394206602987 25.4
vertex 82.4418144984678 48.4467504682005 0.0
vertex 82.4418144984678 48.4467504682005 25.4
endloop
endfacet
facet normal -0.382683432365091 0.923879532511286 0.0
outer loop
vertex 8.33538010224084 50.5583175157233 25.4
vertex 8.7286495317995 50.6918144984678 0.0
vertex 8.33538010224084 50.5583175157233 0.0
endloop
endfacet
facet normal -0.258819045102518 0.965925826289069 0.0
outer loop
vertex 8.7286495317995 50.6918144984678 0.0
vertex 8.33538010224084 50.5583175157233 25.4
vertex 8.7286495317995 50.6918144984678 25.4
endloop
endfacet
facet normal 0.923879532511283 0.382683432365099 0.0
outer loop
vertex 82.3083175157233 48.8400198977592 0.0
vertex 82.4418144984678 48.4467504682005 25.4
vertex 82.4418144984678 48.4467504682005 0.0
endloop
endfacet
facet normal 0.965925826289067 0.258819045102525 0.0
outer loop
vertex 82.4418144984678 48.4467504682005 25.4
vertex 82.3083175157233 48.8400198977592 0.0
vertex 82.3083175157233 48.8400198977592 25.4
endloop
endfacet
facet normal -0.38268343236509 -0.923879532511287 0.0
outer loop
vertex 8.33538010224084 0.241682484276665 25.4
vertex 7.9629 0.425369342984408 0.0
vertex 8.33538010224084 0.241682484276665 0.0
endloop
endfacet
facet normal -0.499999999999999 -0.866025403784439 0.0
outer loop
vertex 7.9629 0.425369342984408 0.0
vertex 8.33538010224084 0.241682484276665 25.4
vertex 7.9629 0.425369342984408 25.4
endloop
endfacet
facet normal -0.258819045102521 -0.965925826289069 0.0
outer loop
vertex 8.7286495317995 0.108185501532209 25.4
vertex 8.33538010224084 0.241682484276665 0.0
vertex 8.7286495317995 0.108185501532209 0.0
endloop
endfacet
facet normal -0.38268343236509 -0.923879532511287 0.0
outer loop
vertex 8.33538010224084 0.241682484276665 0.0
vertex 8.7286495317995 0.108185501532209 25.4
vertex 8.33538010224084 0.241682484276665 25.4
endloop
endfacet
facet normal -0.130526192220052 -0.99144486137381 0.0
outer loop
vertex 9.13597933970134 0.0271625651381527 25.4
vertex 8.7286495317995 0.108185501532209 0.0
vertex 9.13597933970134 0.0271625651381527 0.0
endloop
endfacet
facet normal -0.258819045102521 -0.965925826289069 0.0
outer loop
vertex 8.7286495317995 0.108185501532209 0.0
vertex 9.13597933970134 0.0271625651381527 25.4
vertex 8.7286495317995 0.108185501532209 25.4
endloop
endfacet
facet normal -0.0654031292301433 -0.997858923238604 0.0
outer loop
vertex 9.5504 7.04991620636974e-016 25.4
vertex 9.13597933970134 0.0271625651381527 0.0
vertex 9.5504 7.04991620636974e-016 0.0
endloop
endfacet
facet normal -0.130526192220052 -0.99144486137381 0.0
outer loop
vertex 9.13597933970134 0.0271625651381527 0.0
vertex 9.5504 7.04991620636974e-016 25.4
vertex 9.13597933970134 0.0271625651381527 25.4
endloop
endfacet
facet normal -1.0 -5.60793511528302e-017 9.36570735743545e-017
outer loop
vertex 79.375 5.18945076362719 25.4
vertex 79.375 3.175 24.3982633355625
vertex 79.375 3.175 25.4
endloop
endfacet
facet normal -1.0 -5.60793511528302e-017 9.36570735743545e-017
outer loop
vertex 79.375 47.625 25.4
vertex 79.375 19.8871075986869 18.8572633624075
vertex 79.375 5.18945076362719 25.4
endloop
endfacet
facet normal -1.0 -5.60793511528302e-017 9.36570735743545e-017
outer loop
vertex 79.375 19.8871075986869 18.8572633624075
vertex 79.375 47.625 25.4
vertex 79.375 31.3171075986869 18.8572633624075
endloop
endfacet
facet normal -1.0 -5.60793511528302e-017 9.36570735743545e-017
outer loop
vertex 79.375 31.3171075986869 18.8572633624075
vertex 79.375 47.625 25.4
vertex 79.375 31.3171075986869 10.0180633624075
endloop
endfacet
facet normal -1.0 -5.60793511528302e-017 9.36570735743545e-017
outer loop
vertex 79.375 3.175 4.445
vertex 79.375 19.8871075986869 10.0180633624075
vertex 79.375 47.625 4.445
endloop
endfacet
facet normal -1.0 -5.60793511528302e-017 9.36570735743545e-017
outer loop
vertex 79.375 19.8871075986869 10.0180633624075
vertex 79.375 3.175 4.445
vertex 79.375 3.175 24.3982633355625
endloop
endfacet
facet normal -1.0 -5.60793511528302e-017 9.36570735743545e-017
outer loop
vertex 79.375 19.8871075986869 10.0180633624075
vertex 79.375 3.175 24.3982633355625
vertex 79.375 5.18945076362719 25.4
endloop
endfacet
facet normal -1.0 -5.60793511528302e-017 9.36570735743545e-017
outer loop
vertex 79.375 19.8871075986869 10.0180633624075
vertex 79.375 5.18945076362719 25.4
vertex 79.375 19.8871075986869 18.8572633624075
endloop
endfacet
facet normal -1.0 -5.60793511528302e-017 9.36570735743545e-017
outer loop
vertex 79.375 47.625 4.445
vertex 79.375 19.8871075986869 10.0180633624075
vertex 79.375 31.3171075986869 10.0180633624075
endloop
endfacet
facet normal -1.0 -5.60793511528302e-017 9.36570735743545e-017
outer loop
vertex 79.375 47.625 4.445
vertex 79.375 31.3171075986869 10.0180633624075
vertex 79.375 47.625 25.4
endloop
endfacet
facet normal 0.0 0.0 1.0
outer loop
vertex 79.375 3.175 4.445
vertex 9.5504 47.625 4.445
vertex 9.5504 3.175 4.445
endloop
endfacet
facet normal 0.0 0.0 1.0
outer loop
vertex 9.5504 47.625 4.445
vertex 79.375 3.175 4.445
vertex 79.375 47.625 4.445
endloop
endfacet
facet normal 0.0 1.0 0.0
outer loop
vertex 9.55040000000001 50.8 25.4
vertex 79.375 50.8 0.0
vertex 9.55040000000001 50.8 0.0
endloop
endfacet
facet normal 0.0 1.0 0.0
outer loop
vertex 79.375 50.8 0.0
vertex 9.55040000000001 50.8 25.4
vertex 79.375 50.8 25.4
endloop
endfacet
facet normal -1.0 -3.1720657846433e-017 0.0
outer loop
vertex 6.3754 47.625 25.4
vertex 6.3754 3.175 0.0
vertex 6.3754 3.175 25.4
endloop
endfacet
facet normal -1.0 -3.1720657846433e-017 0.0
outer loop
vertex 6.3754 3.175 0.0
vertex 6.3754 47.625 25.4
vertex 6.3754 47.625 0.0
endloop
endfacet
facet normal 0.130526192220053 -0.99144486137381 0.0
outer loop
vertex 79.7894206602987 0.027162565138152 25.4
vertex 79.375 0.0 0.0
vertex 79.7894206602987 0.027162565138152 0.0
endloop
endfacet
facet normal 0.0654031292301426 -0.997858923238604 0.0
outer loop
vertex 79.375 0.0 0.0
vertex 79.7894206602987 0.027162565138152 25.4
vertex 79.375 0.0 25.4
endloop
endfacet
facet normal -0.60876142900872 -0.793353340291236 0.0
outer loop
vertex 7.61758246289731 0.656103144575329 25.4
vertex 7.30533596973271 0.929935969732712 0.0
vertex 7.61758246289731 0.656103144575329 0.0
endloop
endfacet
facet normal -0.707106781186548 -0.707106781186547 0.0
outer loop
vertex 7.30533596973271 0.929935969732712 0.0
vertex 7.61758246289731 0.656103144575329 25.4
vertex 7.30533596973271 0.929935969732712 25.4
endloop
endfacet
facet normal 0.382683432365091 0.923879532511286 0.0
outer loop
vertex 80.5900198977592 50.5583175157233 25.4
vertex 80.9625 50.3746306570156 0.0
vertex 80.5900198977592 50.5583175157233 0.0
endloop
endfacet
facet normal 0.500000000000008 0.866025403784434 0.0
outer loop
vertex 80.9625 50.3746306570156 0.0
vertex 80.5900198977592 50.5583175157233 25.4
vertex 80.9625 50.3746306570156 25.4
endloop
endfacet
facet normal -0.997858923238603 -0.0654031292301459 0.0
outer loop
vertex 6.3754 3.175 25.4
vertex 6.40256256513815 2.76057933970134 0.0
vertex 6.40256256513815 2.76057933970134 25.4
endloop
endfacet
facet normal -0.99144486137381 -0.130526192220054 0.0
outer loop
vertex 6.40256256513815 2.76057933970134 0.0
vertex 6.3754 3.175 25.4
vertex 6.3754 3.175 0.0
endloop
endfacet
facet normal -0.99144486137381 -0.130526192220054 0.0
outer loop
vertex 6.40256256513815 2.76057933970134 25.4
vertex 6.48358550153221 2.3532495317995 0.0
vertex 6.48358550153221 2.3532495317995 25.4
endloop
endfacet
facet normal -0.965925826289068 -0.258819045102522 0.0
outer loop
vertex 6.48358550153221 2.3532495317995 0.0
vertex 6.40256256513815 2.76057933970134 25.4
vertex 6.40256256513815 2.76057933970134 0.0
endloop
endfacet
facet normal -0.965925826289068 -0.258819045102522 0.0
outer loop
vertex 6.48358550153221 2.3532495317995 25.4
vertex 6.61708248427667 1.95998010224084 0.0
vertex 6.61708248427667 1.95998010224084 25.4
endloop
endfacet
facet normal -0.923879532511286 -0.382683432365091 0.0
outer loop
vertex 6.61708248427667 1.95998010224084 0.0
vertex 6.48358550153221 2.3532495317995 25.4
vertex 6.48358550153221 2.3532495317995 0.0
endloop
endfacet
facet normal -0.923879532511286 -0.382683432365091 0.0
outer loop
vertex 6.61708248427667 1.95998010224084 25.4
vertex 6.80076934298441 1.5875 0.0
vertex 6.80076934298441 1.5875 25.4
endloop
endfacet
facet normal -0.866025403784439 -0.5 0.0
outer loop
vertex 6.80076934298441 1.5875 0.0
vertex 6.61708248427667 1.95998010224084 25.4
vertex 6.61708248427667 1.95998010224084 0.0
endloop
endfacet
facet normal -0.866025403784439 -0.5 0.0
outer loop
vertex 6.80076934298441 1.5875 25.4
vertex 7.03150314457533 1.24218246289731 0.0
vertex 7.03150314457533 1.24218246289731 25.4
endloop
endfacet
facet normal -0.793353340291236 -0.60876142900872 0.0
outer loop
vertex 7.03150314457533 1.24218246289731 0.0
vertex 6.80076934298441 1.5875 25.4
vertex 6.80076934298441 1.5875 0.0
endloop
endfacet
facet normal -0.793353340291236 -0.60876142900872 0.0
outer loop
vertex 7.03150314457533 1.24218246289731 25.4
vertex 7.30533596973271 0.929935969732712 0.0
vertex 7.30533596973271 0.929935969732712 25.4
endloop
endfacet
facet normal -0.707106781186548 -0.707106781186547 0.0
outer loop
vertex 7.30533596973271 0.929935969732712 0.0
vertex 7.03150314457533 1.24218246289731 25.4
vertex 7.03150314457533 1.24218246289731 0.0
endloop
endfacet
facet normal 0.258819045102519 -0.965925826289069 0.0
outer loop
vertex 80.1967504682005 0.108185501532208 25.4
vertex 79.7894206602987 0.027162565138152 0.0
vertex 80.1967504682005 0.108185501532208 0.0
endloop
endfacet
facet normal 0.130526192220053 -0.99144486137381 0.0
outer loop
vertex 79.7894206602987 0.027162565138152 0.0
vertex 80.1967504682005 0.108185501532208 25.4
vertex 79.7894206602987 0.027162565138152 25.4
endloop
endfacet
facet normal 0.382683432365089 -0.923879532511287 0.0
outer loop
vertex 80.5900198977592 0.241682484276665 25.4
vertex 80.1967504682005 0.108185501532208 0.0
vertex 80.5900198977592 0.241682484276665 0.0
endloop
endfacet
facet normal 0.258819045102519 -0.965925826289069 0.0
outer loop
vertex 80.1967504682005 0.108185501532208 0.0
vertex 80.5900198977592 0.241682484276665 25.4
vertex 80.1967504682005 0.108185501532208 25.4
endloop
endfacet
facet normal 0.500000000000005 -0.866025403784436 0.0
outer loop
vertex 80.9625 0.425369342984407 25.4
vertex 80.5900198977592 0.241682484276665 0.0
vertex 80.9625 0.425369342984407 0.0
endloop
endfacet
facet normal 0.382683432365089 -0.923879532511287 0.0
outer loop
vertex 80.5900198977592 0.241682484276665 0.0
vertex 80.9625 0.425369342984407 25.4
vertex 80.5900198977592 0.241682484276665 25.4
endloop
endfacet
facet normal 0.608761429008723 -0.793353340291234 0.0
outer loop
vertex 81.3078175371027 0.656103144575329 25.4
vertex 80.9625 0.425369342984407 0.0
vertex 81.3078175371027 0.656103144575329 0.0
endloop
endfacet
facet normal 0.500000000000005 -0.866025403784436 0.0
outer loop
vertex 80.9625 0.425369342984407 0.0
vertex 81.3078175371027 0.656103144575329 25.4
vertex 80.9625 0.425369342984407 25.4
endloop
endfacet
facet normal 0.707106781186542 -0.707106781186553 0.0
outer loop
vertex 81.6200640302673 0.929935969732711 25.4
vertex 81.3078175371027 0.656103144575329 0.0
vertex 81.6200640302673 0.929935969732711 0.0
endloop
endfacet
facet normal 0.608761429008723 -0.793353340291234 0.0
outer loop
vertex 81.3078175371027 0.656103144575329 0.0
vertex 81.6200640302673 0.929935969732711 25.4
vertex 81.3078175371027 0.656103144575329 25.4
endloop
endfacet
facet normal -0.499999999999998 0.86602540378444 0.0
outer loop
vertex 7.9629 50.3746306570156 25.4
vertex 8.33538010224084 50.5583175157233 0.0
vertex 7.9629 50.3746306570156 0.0
endloop
endfacet
facet normal -0.382683432365091 0.923879532511286 0.0
outer loop
vertex 8.33538010224084 50.5583175157233 0.0
vertex 7.9629 50.3746306570156 25.4
vertex 8.33538010224084 50.5583175157233 25.4
endloop
endfacet
facet normal 0.866025403784443 0.499999999999993 0.0
outer loop
vertex 82.1246306570156 49.2125 0.0
vertex 82.3083175157233 48.8400198977592 25.4
vertex 82.3083175157233 48.8400198977592 0.0
endloop
endfacet
facet normal 0.923879532511283 0.382683432365099 0.0
outer loop
vertex 82.3083175157233 48.8400198977592 25.4
vertex 82.1246306570156 49.2125 0.0
vertex 82.1246306570156 49.2125 25.4
endloop
endfacet
facet normal -0.608761429008719 0.793353340291236 0.0
outer loop
vertex 7.61758246289731 50.1438968554247 25.4
vertex 7.9629 50.3746306570156 0.0
vertex 7.61758246289731 50.1438968554247 0.0
endloop
endfacet
facet normal -0.499999999999998 0.86602540378444 0.0
outer loop
vertex 7.9629 50.3746306570156 0.0
vertex 7.61758246289731 50.1438968554247 25.4
vertex 7.9629 50.3746306570156 25.4
endloop
endfacet
facet normal -0.707106781186548 0.707106781186547 0.0
outer loop
vertex 7.30533596973271 49.8700640302673 25.4
vertex 7.61758246289731 50.1438968554247 0.0
vertex 7.30533596973271 49.8700640302673 0.0
endloop
endfacet
facet normal -0.608761429008719 0.793353340291236 0.0
outer loop
vertex 7.61758246289731 50.1438968554247 0.0
vertex 7.30533596973271 49.8700640302673 25.4
vertex 7.61758246289731 50.1438968554247 25.4
endloop
endfacet
facet normal 0.793353340291236 0.60876142900872 0.0
outer loop
vertex 81.8938968554247 49.5578175371027 0.0
vertex 82.1246306570156 49.2125 25.4
vertex 82.1246306570156 49.2125 0.0
endloop
endfacet
facet normal 0.866025403784443 0.499999999999993 0.0
outer loop
vertex 82.1246306570156 49.2125 25.4
vertex 81.8938968554247 49.5578175371027 0.0
vertex 81.8938968554247 49.5578175371027 25.4
endloop
endfacet
facet normal 0.70710678118654 0.707106781186555 0.0
outer loop
vertex 81.6200640302673 49.8700640302673 0.0
vertex 81.8938968554247 49.5578175371027 25.4
vertex 81.8938968554247 49.5578175371027 0.0
endloop
endfacet
facet normal 0.793353340291236 0.60876142900872 0.0
outer loop
vertex 81.8938968554247 49.5578175371027 25.4
vertex 81.6200640302673 49.8700640302673 0.0
vertex 81.6200640302673 49.8700640302673 25.4
endloop
endfacet
endsolid GPS-Box
