G04 #@! TF.GenerationSoftware,KiCad,Pcbnew,(5.0.2)-1*
G04 #@! TF.CreationDate,2019-12-07T21:07:37-05:00*
G04 #@! TF.ProjectId,ESP-32_VGA,4553502d-3332-45f5-9647-412e6b696361,2*
G04 #@! TF.SameCoordinates,Original*
G04 #@! TF.FileFunction,Soldermask,Top*
G04 #@! TF.FilePolarity,Negative*
%FSLAX46Y46*%
G04 Gerber Fmt 4.6, Leading zero omitted, Abs format (unit mm)*
G04 Created by KiCad (PCBNEW (5.0.2)-1) date 12/7/2019 9:07:37 PM*
%MOMM*%
%LPD*%
G01*
G04 APERTURE LIST*
%ADD10C,0.150000*%
G04 APERTURE END LIST*
D10*
G36*
X100389169Y-94420519D02*
X101255889Y-94779526D01*
X102035920Y-95300726D01*
X102699274Y-95964080D01*
X103220474Y-96744111D01*
X103579481Y-97610831D01*
X103762500Y-98530933D01*
X103762500Y-99469067D01*
X103579481Y-100389169D01*
X103220474Y-101255889D01*
X102699274Y-102035920D01*
X102035920Y-102699274D01*
X101255889Y-103220474D01*
X100389169Y-103579481D01*
X99469067Y-103762500D01*
X98530933Y-103762500D01*
X97610831Y-103579481D01*
X96744111Y-103220474D01*
X95964080Y-102699274D01*
X95300726Y-102035920D01*
X94779526Y-101255889D01*
X94420519Y-100389169D01*
X94237500Y-99469067D01*
X94237500Y-98530933D01*
X94420519Y-97610831D01*
X94779526Y-96744111D01*
X95300726Y-95964080D01*
X95964080Y-95300726D01*
X96744111Y-94779526D01*
X97610831Y-94420519D01*
X98530933Y-94237500D01*
X99469067Y-94237500D01*
X100389169Y-94420519D01*
X100389169Y-94420519D01*
G37*
G36*
X17389169Y-94420519D02*
X18255889Y-94779526D01*
X19035920Y-95300726D01*
X19699274Y-95964080D01*
X20220474Y-96744111D01*
X20579481Y-97610831D01*
X20762500Y-98530933D01*
X20762500Y-99469067D01*
X20579481Y-100389169D01*
X20220474Y-101255889D01*
X19699274Y-102035920D01*
X19035920Y-102699274D01*
X18255889Y-103220474D01*
X17389169Y-103579481D01*
X16469067Y-103762500D01*
X15530933Y-103762500D01*
X14610831Y-103579481D01*
X13744111Y-103220474D01*
X12964080Y-102699274D01*
X12300726Y-102035920D01*
X11779526Y-101255889D01*
X11420519Y-100389169D01*
X11237500Y-99469067D01*
X11237500Y-98530933D01*
X11420519Y-97610831D01*
X11779526Y-96744111D01*
X12300726Y-95964080D01*
X12964080Y-95300726D01*
X13744111Y-94779526D01*
X14610831Y-94420519D01*
X15530933Y-94237500D01*
X16469067Y-94237500D01*
X17389169Y-94420519D01*
X17389169Y-94420519D01*
G37*
G36*
X45617582Y-101615223D02*
X45688267Y-101629283D01*
X45745783Y-101653107D01*
X45826942Y-101686724D01*
X45951750Y-101770118D01*
X46057882Y-101876250D01*
X46141276Y-102001058D01*
X46198717Y-102139734D01*
X46228000Y-102286948D01*
X46228000Y-102437052D01*
X46217314Y-102490773D01*
X46198717Y-102584267D01*
X46151080Y-102699274D01*
X46141276Y-102722942D01*
X46057882Y-102847750D01*
X45951750Y-102953882D01*
X45951747Y-102953884D01*
X45826942Y-103037276D01*
X45688267Y-103094717D01*
X45639195Y-103104478D01*
X45541052Y-103124000D01*
X45390948Y-103124000D01*
X45292805Y-103104478D01*
X45243733Y-103094717D01*
X45105058Y-103037276D01*
X44980253Y-102953884D01*
X44980250Y-102953882D01*
X44874118Y-102847750D01*
X44790724Y-102722942D01*
X44780920Y-102699274D01*
X44733283Y-102584267D01*
X44714686Y-102490773D01*
X44704000Y-102437052D01*
X44704000Y-102286948D01*
X44733283Y-102139734D01*
X44790724Y-102001058D01*
X44874118Y-101876250D01*
X44980250Y-101770118D01*
X45105058Y-101686724D01*
X45186217Y-101653107D01*
X45243733Y-101629283D01*
X45314418Y-101615223D01*
X45390948Y-101600000D01*
X45541052Y-101600000D01*
X45617582Y-101615223D01*
X45617582Y-101615223D01*
G37*
G36*
X71017582Y-101615223D02*
X71088267Y-101629283D01*
X71145783Y-101653107D01*
X71226942Y-101686724D01*
X71351750Y-101770118D01*
X71457882Y-101876250D01*
X71541276Y-102001058D01*
X71598717Y-102139734D01*
X71628000Y-102286948D01*
X71628000Y-102437052D01*
X71617314Y-102490773D01*
X71598717Y-102584267D01*
X71551080Y-102699274D01*
X71541276Y-102722942D01*
X71457882Y-102847750D01*
X71351750Y-102953882D01*
X71351747Y-102953884D01*
X71226942Y-103037276D01*
X71088267Y-103094717D01*
X71039195Y-103104478D01*
X70941052Y-103124000D01*
X70790948Y-103124000D01*
X70692805Y-103104478D01*
X70643733Y-103094717D01*
X70505058Y-103037276D01*
X70380253Y-102953884D01*
X70380250Y-102953882D01*
X70274118Y-102847750D01*
X70190724Y-102722942D01*
X70180920Y-102699274D01*
X70133283Y-102584267D01*
X70114686Y-102490773D01*
X70104000Y-102437052D01*
X70104000Y-102286948D01*
X70133283Y-102139734D01*
X70190724Y-102001058D01*
X70274118Y-101876250D01*
X70380250Y-101770118D01*
X70505058Y-101686724D01*
X70586217Y-101653107D01*
X70643733Y-101629283D01*
X70714418Y-101615223D01*
X70790948Y-101600000D01*
X70941052Y-101600000D01*
X71017582Y-101615223D01*
X71017582Y-101615223D01*
G37*
G36*
X82343522Y-101546039D02*
X82377053Y-101556211D01*
X82407960Y-101572731D01*
X82435043Y-101594957D01*
X82457269Y-101622040D01*
X82473789Y-101652947D01*
X82483961Y-101686478D01*
X82488000Y-101727487D01*
X82488000Y-102506513D01*
X82483961Y-102547522D01*
X82473789Y-102581053D01*
X82457269Y-102611960D01*
X82435043Y-102639043D01*
X82407960Y-102661269D01*
X82377053Y-102677789D01*
X82343522Y-102687961D01*
X82302513Y-102692000D01*
X81273487Y-102692000D01*
X81232478Y-102687961D01*
X81198947Y-102677789D01*
X81168040Y-102661269D01*
X81140957Y-102639043D01*
X81118731Y-102611960D01*
X81102211Y-102581053D01*
X81092039Y-102547522D01*
X81088000Y-102506513D01*
X81088000Y-101727487D01*
X81092039Y-101686478D01*
X81102211Y-101652947D01*
X81118731Y-101622040D01*
X81140957Y-101594957D01*
X81168040Y-101572731D01*
X81198947Y-101556211D01*
X81232478Y-101546039D01*
X81273487Y-101542000D01*
X82302513Y-101542000D01*
X82343522Y-101546039D01*
X82343522Y-101546039D01*
G37*
G36*
X82343522Y-99496039D02*
X82377053Y-99506211D01*
X82407960Y-99522731D01*
X82435043Y-99544957D01*
X82457269Y-99572040D01*
X82473789Y-99602947D01*
X82483961Y-99636478D01*
X82488000Y-99677487D01*
X82488000Y-100456513D01*
X82483961Y-100497522D01*
X82473789Y-100531053D01*
X82457269Y-100561960D01*
X82435043Y-100589043D01*
X82407960Y-100611269D01*
X82377053Y-100627789D01*
X82343522Y-100637961D01*
X82302513Y-100642000D01*
X81273487Y-100642000D01*
X81232478Y-100637961D01*
X81198947Y-100627789D01*
X81168040Y-100611269D01*
X81140957Y-100589043D01*
X81118731Y-100561960D01*
X81102211Y-100531053D01*
X81092039Y-100497522D01*
X81088000Y-100456513D01*
X81088000Y-99677487D01*
X81092039Y-99636478D01*
X81102211Y-99602947D01*
X81118731Y-99572040D01*
X81140957Y-99544957D01*
X81168040Y-99522731D01*
X81198947Y-99506211D01*
X81232478Y-99496039D01*
X81273487Y-99492000D01*
X82302513Y-99492000D01*
X82343522Y-99496039D01*
X82343522Y-99496039D01*
G37*
G36*
X45639195Y-99079522D02*
X45688267Y-99089283D01*
X45826942Y-99146724D01*
X45951750Y-99230118D01*
X46057882Y-99336250D01*
X46057884Y-99336253D01*
X46141276Y-99461058D01*
X46184423Y-99565223D01*
X46198717Y-99599734D01*
X46228000Y-99746948D01*
X46228000Y-99897052D01*
X46198717Y-100044266D01*
X46141276Y-100182942D01*
X46057882Y-100307750D01*
X45951750Y-100413882D01*
X45951747Y-100413884D01*
X45826942Y-100497276D01*
X45688267Y-100554717D01*
X45639195Y-100564478D01*
X45541052Y-100584000D01*
X45390948Y-100584000D01*
X45292805Y-100564478D01*
X45243733Y-100554717D01*
X45105058Y-100497276D01*
X44980253Y-100413884D01*
X44980250Y-100413882D01*
X44874118Y-100307750D01*
X44790724Y-100182942D01*
X44733283Y-100044266D01*
X44704000Y-99897052D01*
X44704000Y-99746948D01*
X44733283Y-99599734D01*
X44747578Y-99565223D01*
X44790724Y-99461058D01*
X44874116Y-99336253D01*
X44874118Y-99336250D01*
X44980250Y-99230118D01*
X45105058Y-99146724D01*
X45243733Y-99089283D01*
X45292805Y-99079522D01*
X45390948Y-99060000D01*
X45541052Y-99060000D01*
X45639195Y-99079522D01*
X45639195Y-99079522D01*
G37*
G36*
X71039195Y-99079522D02*
X71088267Y-99089283D01*
X71226942Y-99146724D01*
X71351750Y-99230118D01*
X71457882Y-99336250D01*
X71457884Y-99336253D01*
X71541276Y-99461058D01*
X71584423Y-99565223D01*
X71598717Y-99599734D01*
X71628000Y-99746948D01*
X71628000Y-99897052D01*
X71598717Y-100044266D01*
X71541276Y-100182942D01*
X71457882Y-100307750D01*
X71351750Y-100413882D01*
X71351747Y-100413884D01*
X71226942Y-100497276D01*
X71088267Y-100554717D01*
X71039195Y-100564478D01*
X70941052Y-100584000D01*
X70790948Y-100584000D01*
X70692805Y-100564478D01*
X70643733Y-100554717D01*
X70505058Y-100497276D01*
X70380253Y-100413884D01*
X70380250Y-100413882D01*
X70274118Y-100307750D01*
X70190724Y-100182942D01*
X70133283Y-100044266D01*
X70104000Y-99897052D01*
X70104000Y-99746948D01*
X70133283Y-99599734D01*
X70147578Y-99565223D01*
X70190724Y-99461058D01*
X70274116Y-99336253D01*
X70274118Y-99336250D01*
X70380250Y-99230118D01*
X70505058Y-99146724D01*
X70643733Y-99089283D01*
X70692805Y-99079522D01*
X70790948Y-99060000D01*
X70941052Y-99060000D01*
X71039195Y-99079522D01*
X71039195Y-99079522D01*
G37*
G36*
X45639195Y-96539522D02*
X45688267Y-96549283D01*
X45826942Y-96606724D01*
X45951750Y-96690118D01*
X46057882Y-96796250D01*
X46141276Y-96921058D01*
X46198717Y-97059734D01*
X46228000Y-97206948D01*
X46228000Y-97357052D01*
X46198717Y-97504266D01*
X46141276Y-97642942D01*
X46057882Y-97767750D01*
X45951750Y-97873882D01*
X45951747Y-97873884D01*
X45826942Y-97957276D01*
X45688267Y-98014717D01*
X45639195Y-98024478D01*
X45541052Y-98044000D01*
X45390948Y-98044000D01*
X45292805Y-98024478D01*
X45243733Y-98014717D01*
X45105058Y-97957276D01*
X44980253Y-97873884D01*
X44980250Y-97873882D01*
X44874118Y-97767750D01*
X44790724Y-97642942D01*
X44733283Y-97504266D01*
X44704000Y-97357052D01*
X44704000Y-97206948D01*
X44733283Y-97059734D01*
X44790724Y-96921058D01*
X44874118Y-96796250D01*
X44980250Y-96690118D01*
X45105058Y-96606724D01*
X45243733Y-96549283D01*
X45292805Y-96539522D01*
X45390948Y-96520000D01*
X45541052Y-96520000D01*
X45639195Y-96539522D01*
X45639195Y-96539522D01*
G37*
G36*
X71039195Y-96539522D02*
X71088267Y-96549283D01*
X71226942Y-96606724D01*
X71351750Y-96690118D01*
X71457882Y-96796250D01*
X71541276Y-96921058D01*
X71598717Y-97059734D01*
X71628000Y-97206948D01*
X71628000Y-97357052D01*
X71598717Y-97504266D01*
X71541276Y-97642942D01*
X71457882Y-97767750D01*
X71351750Y-97873882D01*
X71351747Y-97873884D01*
X71226942Y-97957276D01*
X71088267Y-98014717D01*
X71039195Y-98024478D01*
X70941052Y-98044000D01*
X70790948Y-98044000D01*
X70692805Y-98024478D01*
X70643733Y-98014717D01*
X70505058Y-97957276D01*
X70380253Y-97873884D01*
X70380250Y-97873882D01*
X70274118Y-97767750D01*
X70190724Y-97642942D01*
X70133283Y-97504266D01*
X70104000Y-97357052D01*
X70104000Y-97206948D01*
X70133283Y-97059734D01*
X70190724Y-96921058D01*
X70274118Y-96796250D01*
X70380250Y-96690118D01*
X70505058Y-96606724D01*
X70643733Y-96549283D01*
X70692805Y-96539522D01*
X70790948Y-96520000D01*
X70941052Y-96520000D01*
X71039195Y-96539522D01*
X71039195Y-96539522D01*
G37*
G36*
X71039195Y-93999522D02*
X71088267Y-94009283D01*
X71226942Y-94066724D01*
X71351750Y-94150118D01*
X71457882Y-94256250D01*
X71541276Y-94381058D01*
X71598717Y-94519734D01*
X71628000Y-94666948D01*
X71628000Y-94817052D01*
X71598717Y-94964266D01*
X71541276Y-95102942D01*
X71457882Y-95227750D01*
X71351750Y-95333882D01*
X71351747Y-95333884D01*
X71226942Y-95417276D01*
X71088267Y-95474717D01*
X71039195Y-95484478D01*
X70941052Y-95504000D01*
X70790948Y-95504000D01*
X70692805Y-95484478D01*
X70643733Y-95474717D01*
X70505058Y-95417276D01*
X70380253Y-95333884D01*
X70380250Y-95333882D01*
X70274118Y-95227750D01*
X70190724Y-95102942D01*
X70133283Y-94964266D01*
X70104000Y-94817052D01*
X70104000Y-94666948D01*
X70133283Y-94519734D01*
X70190724Y-94381058D01*
X70274118Y-94256250D01*
X70380250Y-94150118D01*
X70505058Y-94066724D01*
X70643733Y-94009283D01*
X70692805Y-93999522D01*
X70790948Y-93980000D01*
X70941052Y-93980000D01*
X71039195Y-93999522D01*
X71039195Y-93999522D01*
G37*
G36*
X45639195Y-93999522D02*
X45688267Y-94009283D01*
X45826942Y-94066724D01*
X45951750Y-94150118D01*
X46057882Y-94256250D01*
X46141276Y-94381058D01*
X46198717Y-94519734D01*
X46228000Y-94666948D01*
X46228000Y-94817052D01*
X46198717Y-94964266D01*
X46141276Y-95102942D01*
X46057882Y-95227750D01*
X45951750Y-95333882D01*
X45951747Y-95333884D01*
X45826942Y-95417276D01*
X45688267Y-95474717D01*
X45639195Y-95484478D01*
X45541052Y-95504000D01*
X45390948Y-95504000D01*
X45292805Y-95484478D01*
X45243733Y-95474717D01*
X45105058Y-95417276D01*
X44980253Y-95333884D01*
X44980250Y-95333882D01*
X44874118Y-95227750D01*
X44790724Y-95102942D01*
X44733283Y-94964266D01*
X44704000Y-94817052D01*
X44704000Y-94666948D01*
X44733283Y-94519734D01*
X44790724Y-94381058D01*
X44874118Y-94256250D01*
X44980250Y-94150118D01*
X45105058Y-94066724D01*
X45243733Y-94009283D01*
X45292805Y-93999522D01*
X45390948Y-93980000D01*
X45541052Y-93980000D01*
X45639195Y-93999522D01*
X45639195Y-93999522D01*
G37*
G36*
X71039195Y-91459522D02*
X71088267Y-91469283D01*
X71226942Y-91526724D01*
X71351750Y-91610118D01*
X71457882Y-91716250D01*
X71541276Y-91841058D01*
X71598717Y-91979734D01*
X71628000Y-92126948D01*
X71628000Y-92277052D01*
X71598717Y-92424266D01*
X71541276Y-92562942D01*
X71457882Y-92687750D01*
X71351750Y-92793882D01*
X71351747Y-92793884D01*
X71226942Y-92877276D01*
X71088267Y-92934717D01*
X71039195Y-92944478D01*
X70941052Y-92964000D01*
X70790948Y-92964000D01*
X70692805Y-92944478D01*
X70643733Y-92934717D01*
X70505058Y-92877276D01*
X70380253Y-92793884D01*
X70380250Y-92793882D01*
X70274118Y-92687750D01*
X70190724Y-92562942D01*
X70133283Y-92424266D01*
X70104000Y-92277052D01*
X70104000Y-92126948D01*
X70133283Y-91979734D01*
X70190724Y-91841058D01*
X70274118Y-91716250D01*
X70380250Y-91610118D01*
X70505058Y-91526724D01*
X70643733Y-91469283D01*
X70692805Y-91459522D01*
X70790948Y-91440000D01*
X70941052Y-91440000D01*
X71039195Y-91459522D01*
X71039195Y-91459522D01*
G37*
G36*
X45639195Y-91459522D02*
X45688267Y-91469283D01*
X45826942Y-91526724D01*
X45951750Y-91610118D01*
X46057882Y-91716250D01*
X46141276Y-91841058D01*
X46198717Y-91979734D01*
X46228000Y-92126948D01*
X46228000Y-92277052D01*
X46198717Y-92424266D01*
X46141276Y-92562942D01*
X46057882Y-92687750D01*
X45951750Y-92793882D01*
X45951747Y-92793884D01*
X45826942Y-92877276D01*
X45688267Y-92934717D01*
X45639195Y-92944478D01*
X45541052Y-92964000D01*
X45390948Y-92964000D01*
X45292805Y-92944478D01*
X45243733Y-92934717D01*
X45105058Y-92877276D01*
X44980253Y-92793884D01*
X44980250Y-92793882D01*
X44874118Y-92687750D01*
X44790724Y-92562942D01*
X44733283Y-92424266D01*
X44704000Y-92277052D01*
X44704000Y-92126948D01*
X44733283Y-91979734D01*
X44790724Y-91841058D01*
X44874118Y-91716250D01*
X44980250Y-91610118D01*
X45105058Y-91526724D01*
X45243733Y-91469283D01*
X45292805Y-91459522D01*
X45390948Y-91440000D01*
X45541052Y-91440000D01*
X45639195Y-91459522D01*
X45639195Y-91459522D01*
G37*
G36*
X100062030Y-90222469D02*
X100062033Y-90222470D01*
X100062034Y-90222470D01*
X100250535Y-90279651D01*
X100250537Y-90279652D01*
X100424260Y-90372509D01*
X100576528Y-90497472D01*
X100701491Y-90649740D01*
X100794348Y-90823463D01*
X100851531Y-91011970D01*
X100870838Y-91208000D01*
X100851531Y-91404030D01*
X100794348Y-91592537D01*
X100701491Y-91766260D01*
X100576528Y-91918528D01*
X100424260Y-92043491D01*
X100424258Y-92043492D01*
X100250535Y-92136349D01*
X100062034Y-92193530D01*
X100062033Y-92193530D01*
X100062030Y-92193531D01*
X99915124Y-92208000D01*
X98316876Y-92208000D01*
X98169970Y-92193531D01*
X98169967Y-92193530D01*
X98169966Y-92193530D01*
X97981465Y-92136349D01*
X97807742Y-92043492D01*
X97807740Y-92043491D01*
X97655472Y-91918528D01*
X97530509Y-91766260D01*
X97437652Y-91592537D01*
X97380469Y-91404030D01*
X97361162Y-91208000D01*
X97380469Y-91011970D01*
X97437652Y-90823463D01*
X97530509Y-90649740D01*
X97655472Y-90497472D01*
X97807740Y-90372509D01*
X97981463Y-90279652D01*
X97981465Y-90279651D01*
X98169966Y-90222470D01*
X98169967Y-90222470D01*
X98169970Y-90222469D01*
X98316876Y-90208000D01*
X99915124Y-90208000D01*
X100062030Y-90222469D01*
X100062030Y-90222469D01*
G37*
G36*
X71039195Y-88919522D02*
X71088267Y-88929283D01*
X71128625Y-88946000D01*
X71226942Y-88986724D01*
X71351750Y-89070118D01*
X71457882Y-89176250D01*
X71541276Y-89301058D01*
X71598717Y-89439734D01*
X71628000Y-89586948D01*
X71628000Y-89737052D01*
X71598717Y-89884266D01*
X71541276Y-90022942D01*
X71457882Y-90147750D01*
X71351750Y-90253882D01*
X71351747Y-90253884D01*
X71226942Y-90337276D01*
X71088267Y-90394717D01*
X71039195Y-90404478D01*
X70941052Y-90424000D01*
X70790948Y-90424000D01*
X70692805Y-90404478D01*
X70643733Y-90394717D01*
X70505058Y-90337276D01*
X70380253Y-90253884D01*
X70380250Y-90253882D01*
X70274118Y-90147750D01*
X70190724Y-90022942D01*
X70133283Y-89884266D01*
X70104000Y-89737052D01*
X70104000Y-89586948D01*
X70133283Y-89439734D01*
X70190724Y-89301058D01*
X70274118Y-89176250D01*
X70380250Y-89070118D01*
X70505058Y-88986724D01*
X70603375Y-88946000D01*
X70643733Y-88929283D01*
X70692805Y-88919522D01*
X70790948Y-88900000D01*
X70941052Y-88900000D01*
X71039195Y-88919522D01*
X71039195Y-88919522D01*
G37*
G36*
X45639195Y-88919522D02*
X45688267Y-88929283D01*
X45728625Y-88946000D01*
X45826942Y-88986724D01*
X45951750Y-89070118D01*
X46057882Y-89176250D01*
X46141276Y-89301058D01*
X46198717Y-89439734D01*
X46228000Y-89586948D01*
X46228000Y-89737052D01*
X46198717Y-89884266D01*
X46141276Y-90022942D01*
X46057882Y-90147750D01*
X45951750Y-90253882D01*
X45951747Y-90253884D01*
X45826942Y-90337276D01*
X45688267Y-90394717D01*
X45639195Y-90404478D01*
X45541052Y-90424000D01*
X45390948Y-90424000D01*
X45292805Y-90404478D01*
X45243733Y-90394717D01*
X45105058Y-90337276D01*
X44980253Y-90253884D01*
X44980250Y-90253882D01*
X44874118Y-90147750D01*
X44790724Y-90022942D01*
X44733283Y-89884266D01*
X44704000Y-89737052D01*
X44704000Y-89586948D01*
X44733283Y-89439734D01*
X44790724Y-89301058D01*
X44874118Y-89176250D01*
X44980250Y-89070118D01*
X45105058Y-88986724D01*
X45203375Y-88946000D01*
X45243733Y-88929283D01*
X45292805Y-88919522D01*
X45390948Y-88900000D01*
X45541052Y-88900000D01*
X45639195Y-88919522D01*
X45639195Y-88919522D01*
G37*
G36*
X86508000Y-88946000D02*
X85008000Y-88946000D01*
X85008000Y-88346000D01*
X86508000Y-88346000D01*
X86508000Y-88946000D01*
X86508000Y-88946000D01*
G37*
G36*
X81108000Y-88946000D02*
X79608000Y-88946000D01*
X79608000Y-88346000D01*
X81108000Y-88346000D01*
X81108000Y-88946000D01*
X81108000Y-88946000D01*
G37*
G36*
X93699352Y-86988743D02*
X93844941Y-87049048D01*
X93975973Y-87136601D01*
X94087399Y-87248027D01*
X94174952Y-87379059D01*
X94235257Y-87524648D01*
X94266000Y-87679205D01*
X94266000Y-87836795D01*
X94235257Y-87991352D01*
X94174952Y-88136941D01*
X94087399Y-88267973D01*
X93975973Y-88379399D01*
X93844941Y-88466952D01*
X93699352Y-88527257D01*
X93544795Y-88558000D01*
X93387205Y-88558000D01*
X93232648Y-88527257D01*
X93087059Y-88466952D01*
X92956027Y-88379399D01*
X92844601Y-88267973D01*
X92757048Y-88136941D01*
X92696743Y-87991352D01*
X92666000Y-87836795D01*
X92666000Y-87679205D01*
X92696743Y-87524648D01*
X92757048Y-87379059D01*
X92844601Y-87248027D01*
X92956027Y-87136601D01*
X93087059Y-87049048D01*
X93232648Y-86988743D01*
X93387205Y-86958000D01*
X93544795Y-86958000D01*
X93699352Y-86988743D01*
X93699352Y-86988743D01*
G37*
G36*
X96499352Y-86988743D02*
X96644941Y-87049048D01*
X96775973Y-87136601D01*
X96887399Y-87248027D01*
X96974952Y-87379059D01*
X97035257Y-87524648D01*
X97066000Y-87679205D01*
X97066000Y-87836795D01*
X97035257Y-87991352D01*
X96974952Y-88136941D01*
X96887399Y-88267973D01*
X96775973Y-88379399D01*
X96644941Y-88466952D01*
X96499352Y-88527257D01*
X96344795Y-88558000D01*
X96187205Y-88558000D01*
X96032648Y-88527257D01*
X95887059Y-88466952D01*
X95756027Y-88379399D01*
X95644601Y-88267973D01*
X95557048Y-88136941D01*
X95496743Y-87991352D01*
X95466000Y-87836795D01*
X95466000Y-87679205D01*
X95496743Y-87524648D01*
X95557048Y-87379059D01*
X95644601Y-87248027D01*
X95756027Y-87136601D01*
X95887059Y-87049048D01*
X96032648Y-86988743D01*
X96187205Y-86958000D01*
X96344795Y-86958000D01*
X96499352Y-86988743D01*
X96499352Y-86988743D01*
G37*
G36*
X71039195Y-86379522D02*
X71088267Y-86389283D01*
X71128625Y-86406000D01*
X71226942Y-86446724D01*
X71351750Y-86530118D01*
X71457882Y-86636250D01*
X71457884Y-86636253D01*
X71541276Y-86761058D01*
X71598717Y-86899733D01*
X71628000Y-87046950D01*
X71628000Y-87197050D01*
X71598717Y-87344267D01*
X71546836Y-87469519D01*
X71541276Y-87482942D01*
X71457882Y-87607750D01*
X71351750Y-87713882D01*
X71351747Y-87713884D01*
X71226942Y-87797276D01*
X71088267Y-87854717D01*
X71039195Y-87864478D01*
X70941052Y-87884000D01*
X70790948Y-87884000D01*
X70692805Y-87864478D01*
X70643733Y-87854717D01*
X70505058Y-87797276D01*
X70380253Y-87713884D01*
X70380250Y-87713882D01*
X70274118Y-87607750D01*
X70190724Y-87482942D01*
X70185164Y-87469519D01*
X70133283Y-87344267D01*
X70104000Y-87197050D01*
X70104000Y-87046950D01*
X70133283Y-86899733D01*
X70190724Y-86761058D01*
X70274116Y-86636253D01*
X70274118Y-86636250D01*
X70380250Y-86530118D01*
X70505058Y-86446724D01*
X70603375Y-86406000D01*
X70643733Y-86389283D01*
X70692805Y-86379522D01*
X70790948Y-86360000D01*
X70941052Y-86360000D01*
X71039195Y-86379522D01*
X71039195Y-86379522D01*
G37*
G36*
X45639195Y-86379522D02*
X45688267Y-86389283D01*
X45728625Y-86406000D01*
X45826942Y-86446724D01*
X45951750Y-86530118D01*
X46057882Y-86636250D01*
X46057884Y-86636253D01*
X46141276Y-86761058D01*
X46198717Y-86899733D01*
X46228000Y-87046950D01*
X46228000Y-87197050D01*
X46198717Y-87344267D01*
X46146836Y-87469519D01*
X46141276Y-87482942D01*
X46057882Y-87607750D01*
X45951750Y-87713882D01*
X45951747Y-87713884D01*
X45826942Y-87797276D01*
X45688267Y-87854717D01*
X45639195Y-87864478D01*
X45541052Y-87884000D01*
X45390948Y-87884000D01*
X45292805Y-87864478D01*
X45243733Y-87854717D01*
X45105058Y-87797276D01*
X44980253Y-87713884D01*
X44980250Y-87713882D01*
X44874118Y-87607750D01*
X44790724Y-87482942D01*
X44785164Y-87469519D01*
X44733283Y-87344267D01*
X44704000Y-87197050D01*
X44704000Y-87046950D01*
X44733283Y-86899733D01*
X44790724Y-86761058D01*
X44874116Y-86636253D01*
X44874118Y-86636250D01*
X44980250Y-86530118D01*
X45105058Y-86446724D01*
X45203375Y-86406000D01*
X45243733Y-86389283D01*
X45292805Y-86379522D01*
X45390948Y-86360000D01*
X45541052Y-86360000D01*
X45639195Y-86379522D01*
X45639195Y-86379522D01*
G37*
G36*
X31838000Y-87845000D02*
X30138000Y-87845000D01*
X30138000Y-86145000D01*
X31838000Y-86145000D01*
X31838000Y-87845000D01*
X31838000Y-87845000D01*
G37*
G36*
X26074630Y-86157299D02*
X26234855Y-86205903D01*
X26382520Y-86284831D01*
X26511949Y-86391051D01*
X26618169Y-86520480D01*
X26697097Y-86668145D01*
X26745701Y-86828370D01*
X26762112Y-86995000D01*
X26745701Y-87161630D01*
X26697097Y-87321855D01*
X26618169Y-87469520D01*
X26511949Y-87598949D01*
X26382520Y-87705169D01*
X26234855Y-87784097D01*
X26074630Y-87832701D01*
X25949752Y-87845000D01*
X25866248Y-87845000D01*
X25741370Y-87832701D01*
X25581145Y-87784097D01*
X25433480Y-87705169D01*
X25304051Y-87598949D01*
X25197831Y-87469520D01*
X25118903Y-87321855D01*
X25070299Y-87161630D01*
X25053888Y-86995000D01*
X25070299Y-86828370D01*
X25118903Y-86668145D01*
X25197831Y-86520480D01*
X25304051Y-86391051D01*
X25433480Y-86284831D01*
X25581145Y-86205903D01*
X25741370Y-86157299D01*
X25866248Y-86145000D01*
X25949752Y-86145000D01*
X26074630Y-86157299D01*
X26074630Y-86157299D01*
G37*
G36*
X28614630Y-86157299D02*
X28774855Y-86205903D01*
X28922520Y-86284831D01*
X29051949Y-86391051D01*
X29158169Y-86520480D01*
X29237097Y-86668145D01*
X29285701Y-86828370D01*
X29302112Y-86995000D01*
X29285701Y-87161630D01*
X29237097Y-87321855D01*
X29158169Y-87469520D01*
X29051949Y-87598949D01*
X28922520Y-87705169D01*
X28774855Y-87784097D01*
X28614630Y-87832701D01*
X28489752Y-87845000D01*
X28406248Y-87845000D01*
X28281370Y-87832701D01*
X28121145Y-87784097D01*
X27973480Y-87705169D01*
X27844051Y-87598949D01*
X27737831Y-87469520D01*
X27658903Y-87321855D01*
X27610299Y-87161630D01*
X27593888Y-86995000D01*
X27610299Y-86828370D01*
X27658903Y-86668145D01*
X27737831Y-86520480D01*
X27844051Y-86391051D01*
X27973480Y-86284831D01*
X28121145Y-86205903D01*
X28281370Y-86157299D01*
X28406248Y-86145000D01*
X28489752Y-86145000D01*
X28614630Y-86157299D01*
X28614630Y-86157299D01*
G37*
G36*
X81108000Y-87676000D02*
X79608000Y-87676000D01*
X79608000Y-87076000D01*
X81108000Y-87076000D01*
X81108000Y-87676000D01*
X81108000Y-87676000D01*
G37*
G36*
X86508000Y-87676000D02*
X85008000Y-87676000D01*
X85008000Y-87076000D01*
X86508000Y-87076000D01*
X86508000Y-87676000D01*
X86508000Y-87676000D01*
G37*
G36*
X96499352Y-84888743D02*
X96644941Y-84949048D01*
X96775973Y-85036601D01*
X96887399Y-85148027D01*
X96974952Y-85279059D01*
X97035257Y-85424648D01*
X97066000Y-85579205D01*
X97066000Y-85736795D01*
X97035257Y-85891352D01*
X96974952Y-86036941D01*
X96887399Y-86167973D01*
X96775973Y-86279399D01*
X96644941Y-86366952D01*
X96499352Y-86427257D01*
X96344795Y-86458000D01*
X96187205Y-86458000D01*
X96032648Y-86427257D01*
X95887059Y-86366952D01*
X95756027Y-86279399D01*
X95644601Y-86167973D01*
X95557048Y-86036941D01*
X95496743Y-85891352D01*
X95466000Y-85736795D01*
X95466000Y-85579205D01*
X95496743Y-85424648D01*
X95557048Y-85279059D01*
X95644601Y-85148027D01*
X95756027Y-85036601D01*
X95887059Y-84949048D01*
X96032648Y-84888743D01*
X96187205Y-84858000D01*
X96344795Y-84858000D01*
X96499352Y-84888743D01*
X96499352Y-84888743D01*
G37*
G36*
X86508000Y-86406000D02*
X85008000Y-86406000D01*
X85008000Y-85806000D01*
X86508000Y-85806000D01*
X86508000Y-86406000D01*
X86508000Y-86406000D01*
G37*
G36*
X81108000Y-86406000D02*
X79608000Y-86406000D01*
X79608000Y-85806000D01*
X81108000Y-85806000D01*
X81108000Y-86406000D01*
X81108000Y-86406000D01*
G37*
G36*
X100112029Y-82372469D02*
X100112032Y-82372470D01*
X100112033Y-82372470D01*
X100300534Y-82429651D01*
X100300536Y-82429652D01*
X100300539Y-82429653D01*
X100474258Y-82522507D01*
X100626528Y-82647472D01*
X100751491Y-82799740D01*
X100844348Y-82973463D01*
X100901531Y-83161970D01*
X100916000Y-83308876D01*
X100916000Y-85407124D01*
X100901531Y-85554030D01*
X100901530Y-85554033D01*
X100901530Y-85554034D01*
X100846091Y-85736793D01*
X100844348Y-85742537D01*
X100751491Y-85916260D01*
X100626528Y-86068528D01*
X100474260Y-86193491D01*
X100474258Y-86193492D01*
X100300535Y-86286349D01*
X100112034Y-86343530D01*
X100112033Y-86343530D01*
X100112030Y-86343531D01*
X99916000Y-86362838D01*
X99719971Y-86343531D01*
X99719968Y-86343530D01*
X99719967Y-86343530D01*
X99531466Y-86286349D01*
X99357743Y-86193492D01*
X99357741Y-86193491D01*
X99205473Y-86068528D01*
X99080510Y-85916260D01*
X98987653Y-85742537D01*
X98985911Y-85736793D01*
X98930471Y-85554034D01*
X98930471Y-85554033D01*
X98930470Y-85554030D01*
X98916001Y-85407124D01*
X98916000Y-83308877D01*
X98930469Y-83161971D01*
X98930470Y-83161967D01*
X98987651Y-82973466D01*
X98987652Y-82973464D01*
X98987653Y-82973461D01*
X99080507Y-82799742D01*
X99205472Y-82647472D01*
X99357740Y-82522509D01*
X99531463Y-82429652D01*
X99531465Y-82429651D01*
X99719966Y-82372470D01*
X99719967Y-82372470D01*
X99719970Y-82372469D01*
X99916000Y-82353162D01*
X100112029Y-82372469D01*
X100112029Y-82372469D01*
G37*
G36*
X45639195Y-83839522D02*
X45688267Y-83849283D01*
X45728625Y-83866000D01*
X45826942Y-83906724D01*
X45951750Y-83990118D01*
X46057882Y-84096250D01*
X46057884Y-84096253D01*
X46141276Y-84221058D01*
X46169158Y-84288370D01*
X46198717Y-84359734D01*
X46228000Y-84506948D01*
X46228000Y-84657052D01*
X46198717Y-84804266D01*
X46141276Y-84942942D01*
X46057882Y-85067750D01*
X45951750Y-85173882D01*
X45951747Y-85173884D01*
X45826942Y-85257276D01*
X45688267Y-85314717D01*
X45639195Y-85324478D01*
X45541052Y-85344000D01*
X45390948Y-85344000D01*
X45292805Y-85324478D01*
X45243733Y-85314717D01*
X45105058Y-85257276D01*
X44980253Y-85173884D01*
X44980250Y-85173882D01*
X44874118Y-85067750D01*
X44790724Y-84942942D01*
X44733283Y-84804266D01*
X44704000Y-84657052D01*
X44704000Y-84506948D01*
X44733283Y-84359734D01*
X44762843Y-84288370D01*
X44790724Y-84221058D01*
X44874116Y-84096253D01*
X44874118Y-84096250D01*
X44980250Y-83990118D01*
X45105058Y-83906724D01*
X45203375Y-83866000D01*
X45243733Y-83849283D01*
X45292805Y-83839522D01*
X45390948Y-83820000D01*
X45541052Y-83820000D01*
X45639195Y-83839522D01*
X45639195Y-83839522D01*
G37*
G36*
X71039195Y-83839522D02*
X71088267Y-83849283D01*
X71128625Y-83866000D01*
X71226942Y-83906724D01*
X71351750Y-83990118D01*
X71457882Y-84096250D01*
X71457884Y-84096253D01*
X71541276Y-84221058D01*
X71569158Y-84288370D01*
X71598717Y-84359734D01*
X71628000Y-84506948D01*
X71628000Y-84657052D01*
X71598717Y-84804266D01*
X71541276Y-84942942D01*
X71457882Y-85067750D01*
X71351750Y-85173882D01*
X71351747Y-85173884D01*
X71226942Y-85257276D01*
X71088267Y-85314717D01*
X71039195Y-85324478D01*
X70941052Y-85344000D01*
X70790948Y-85344000D01*
X70692805Y-85324478D01*
X70643733Y-85314717D01*
X70505058Y-85257276D01*
X70380253Y-85173884D01*
X70380250Y-85173882D01*
X70274118Y-85067750D01*
X70190724Y-84942942D01*
X70133283Y-84804266D01*
X70104000Y-84657052D01*
X70104000Y-84506948D01*
X70133283Y-84359734D01*
X70162843Y-84288370D01*
X70190724Y-84221058D01*
X70274116Y-84096253D01*
X70274118Y-84096250D01*
X70380250Y-83990118D01*
X70505058Y-83906724D01*
X70603375Y-83866000D01*
X70643733Y-83849283D01*
X70692805Y-83839522D01*
X70790948Y-83820000D01*
X70941052Y-83820000D01*
X71039195Y-83839522D01*
X71039195Y-83839522D01*
G37*
G36*
X28614630Y-83617299D02*
X28774855Y-83665903D01*
X28922520Y-83744831D01*
X29051949Y-83851051D01*
X29158169Y-83980480D01*
X29237097Y-84128145D01*
X29285701Y-84288370D01*
X29302112Y-84455000D01*
X29285701Y-84621630D01*
X29237097Y-84781855D01*
X29158169Y-84929520D01*
X29051949Y-85058949D01*
X28922520Y-85165169D01*
X28774855Y-85244097D01*
X28614630Y-85292701D01*
X28489752Y-85305000D01*
X28406248Y-85305000D01*
X28281370Y-85292701D01*
X28121145Y-85244097D01*
X27973480Y-85165169D01*
X27844051Y-85058949D01*
X27737831Y-84929520D01*
X27658903Y-84781855D01*
X27610299Y-84621630D01*
X27593888Y-84455000D01*
X27610299Y-84288370D01*
X27658903Y-84128145D01*
X27737831Y-83980480D01*
X27844051Y-83851051D01*
X27973480Y-83744831D01*
X28121145Y-83665903D01*
X28281370Y-83617299D01*
X28406248Y-83605000D01*
X28489752Y-83605000D01*
X28614630Y-83617299D01*
X28614630Y-83617299D01*
G37*
G36*
X31154630Y-83617299D02*
X31314855Y-83665903D01*
X31462520Y-83744831D01*
X31591949Y-83851051D01*
X31698169Y-83980480D01*
X31777097Y-84128145D01*
X31825701Y-84288370D01*
X31842112Y-84455000D01*
X31825701Y-84621630D01*
X31777097Y-84781855D01*
X31698169Y-84929520D01*
X31591949Y-85058949D01*
X31462520Y-85165169D01*
X31314855Y-85244097D01*
X31154630Y-85292701D01*
X31029752Y-85305000D01*
X30946248Y-85305000D01*
X30821370Y-85292701D01*
X30661145Y-85244097D01*
X30513480Y-85165169D01*
X30384051Y-85058949D01*
X30277831Y-84929520D01*
X30198903Y-84781855D01*
X30150299Y-84621630D01*
X30133888Y-84455000D01*
X30150299Y-84288370D01*
X30198903Y-84128145D01*
X30277831Y-83980480D01*
X30384051Y-83851051D01*
X30513480Y-83744831D01*
X30661145Y-83665903D01*
X30821370Y-83617299D01*
X30946248Y-83605000D01*
X31029752Y-83605000D01*
X31154630Y-83617299D01*
X31154630Y-83617299D01*
G37*
G36*
X26074630Y-83617299D02*
X26234855Y-83665903D01*
X26382520Y-83744831D01*
X26511949Y-83851051D01*
X26618169Y-83980480D01*
X26697097Y-84128145D01*
X26745701Y-84288370D01*
X26762112Y-84455000D01*
X26745701Y-84621630D01*
X26697097Y-84781855D01*
X26618169Y-84929520D01*
X26511949Y-85058949D01*
X26382520Y-85165169D01*
X26234855Y-85244097D01*
X26074630Y-85292701D01*
X25949752Y-85305000D01*
X25866248Y-85305000D01*
X25741370Y-85292701D01*
X25581145Y-85244097D01*
X25433480Y-85165169D01*
X25304051Y-85058949D01*
X25197831Y-84929520D01*
X25118903Y-84781855D01*
X25070299Y-84621630D01*
X25053888Y-84455000D01*
X25070299Y-84288370D01*
X25118903Y-84128145D01*
X25197831Y-83980480D01*
X25304051Y-83851051D01*
X25433480Y-83744831D01*
X25581145Y-83665903D01*
X25741370Y-83617299D01*
X25866248Y-83605000D01*
X25949752Y-83605000D01*
X26074630Y-83617299D01*
X26074630Y-83617299D01*
G37*
G36*
X86508000Y-85136000D02*
X85008000Y-85136000D01*
X85008000Y-84536000D01*
X86508000Y-84536000D01*
X86508000Y-85136000D01*
X86508000Y-85136000D01*
G37*
G36*
X81108000Y-85136000D02*
X79608000Y-85136000D01*
X79608000Y-84536000D01*
X81108000Y-84536000D01*
X81108000Y-85136000D01*
X81108000Y-85136000D01*
G37*
G36*
X86508000Y-83866000D02*
X85008000Y-83866000D01*
X85008000Y-83266000D01*
X86508000Y-83266000D01*
X86508000Y-83866000D01*
X86508000Y-83866000D01*
G37*
G36*
X81108000Y-83866000D02*
X79608000Y-83866000D01*
X79608000Y-83266000D01*
X81108000Y-83266000D01*
X81108000Y-83866000D01*
X81108000Y-83866000D01*
G37*
G36*
X97066000Y-83858000D02*
X95466000Y-83858000D01*
X95466000Y-82258000D01*
X97066000Y-82258000D01*
X97066000Y-83858000D01*
X97066000Y-83858000D01*
G37*
G36*
X45639195Y-81299522D02*
X45688267Y-81309283D01*
X45826942Y-81366724D01*
X45951750Y-81450118D01*
X46057882Y-81556250D01*
X46057884Y-81556253D01*
X46141276Y-81681058D01*
X46198717Y-81819733D01*
X46228000Y-81966950D01*
X46228000Y-82117050D01*
X46198717Y-82264267D01*
X46153898Y-82372469D01*
X46141276Y-82402942D01*
X46057882Y-82527750D01*
X45951750Y-82633882D01*
X45951747Y-82633884D01*
X45826942Y-82717276D01*
X45688267Y-82774717D01*
X45639195Y-82784478D01*
X45541052Y-82804000D01*
X45390948Y-82804000D01*
X45292805Y-82784478D01*
X45243733Y-82774717D01*
X45105058Y-82717276D01*
X44980253Y-82633884D01*
X44980250Y-82633882D01*
X44874118Y-82527750D01*
X44790724Y-82402942D01*
X44778102Y-82372469D01*
X44733283Y-82264267D01*
X44704000Y-82117050D01*
X44704000Y-81966950D01*
X44733283Y-81819733D01*
X44790724Y-81681058D01*
X44874116Y-81556253D01*
X44874118Y-81556250D01*
X44980250Y-81450118D01*
X45105058Y-81366724D01*
X45243733Y-81309283D01*
X45292805Y-81299522D01*
X45390948Y-81280000D01*
X45541052Y-81280000D01*
X45639195Y-81299522D01*
X45639195Y-81299522D01*
G37*
G36*
X71039195Y-81299522D02*
X71088267Y-81309283D01*
X71226942Y-81366724D01*
X71351750Y-81450118D01*
X71457882Y-81556250D01*
X71457884Y-81556253D01*
X71541276Y-81681058D01*
X71598717Y-81819733D01*
X71628000Y-81966950D01*
X71628000Y-82117050D01*
X71598717Y-82264267D01*
X71553898Y-82372469D01*
X71541276Y-82402942D01*
X71457882Y-82527750D01*
X71351750Y-82633882D01*
X71351747Y-82633884D01*
X71226942Y-82717276D01*
X71088267Y-82774717D01*
X71039195Y-82784478D01*
X70941052Y-82804000D01*
X70790948Y-82804000D01*
X70692805Y-82784478D01*
X70643733Y-82774717D01*
X70505058Y-82717276D01*
X70380253Y-82633884D01*
X70380250Y-82633882D01*
X70274118Y-82527750D01*
X70190724Y-82402942D01*
X70178102Y-82372469D01*
X70133283Y-82264267D01*
X70104000Y-82117050D01*
X70104000Y-81966950D01*
X70133283Y-81819733D01*
X70190724Y-81681058D01*
X70274116Y-81556253D01*
X70274118Y-81556250D01*
X70380250Y-81450118D01*
X70505058Y-81366724D01*
X70643733Y-81309283D01*
X70692805Y-81299522D01*
X70790948Y-81280000D01*
X70941052Y-81280000D01*
X71039195Y-81299522D01*
X71039195Y-81299522D01*
G37*
G36*
X26074630Y-81077299D02*
X26234855Y-81125903D01*
X26382520Y-81204831D01*
X26511949Y-81311051D01*
X26618169Y-81440480D01*
X26697097Y-81588145D01*
X26745701Y-81748370D01*
X26762112Y-81915000D01*
X26745701Y-82081630D01*
X26697097Y-82241855D01*
X26618169Y-82389520D01*
X26511949Y-82518949D01*
X26382520Y-82625169D01*
X26234855Y-82704097D01*
X26074630Y-82752701D01*
X25949752Y-82765000D01*
X25866248Y-82765000D01*
X25741370Y-82752701D01*
X25581145Y-82704097D01*
X25433480Y-82625169D01*
X25304051Y-82518949D01*
X25197831Y-82389520D01*
X25118903Y-82241855D01*
X25070299Y-82081630D01*
X25053888Y-81915000D01*
X25070299Y-81748370D01*
X25118903Y-81588145D01*
X25197831Y-81440480D01*
X25304051Y-81311051D01*
X25433480Y-81204831D01*
X25581145Y-81125903D01*
X25741370Y-81077299D01*
X25866248Y-81065000D01*
X25949752Y-81065000D01*
X26074630Y-81077299D01*
X26074630Y-81077299D01*
G37*
G36*
X28614630Y-81077299D02*
X28774855Y-81125903D01*
X28922520Y-81204831D01*
X29051949Y-81311051D01*
X29158169Y-81440480D01*
X29237097Y-81588145D01*
X29285701Y-81748370D01*
X29302112Y-81915000D01*
X29285701Y-82081630D01*
X29237097Y-82241855D01*
X29158169Y-82389520D01*
X29051949Y-82518949D01*
X28922520Y-82625169D01*
X28774855Y-82704097D01*
X28614630Y-82752701D01*
X28489752Y-82765000D01*
X28406248Y-82765000D01*
X28281370Y-82752701D01*
X28121145Y-82704097D01*
X27973480Y-82625169D01*
X27844051Y-82518949D01*
X27737831Y-82389520D01*
X27658903Y-82241855D01*
X27610299Y-82081630D01*
X27593888Y-81915000D01*
X27610299Y-81748370D01*
X27658903Y-81588145D01*
X27737831Y-81440480D01*
X27844051Y-81311051D01*
X27973480Y-81204831D01*
X28121145Y-81125903D01*
X28281370Y-81077299D01*
X28406248Y-81065000D01*
X28489752Y-81065000D01*
X28614630Y-81077299D01*
X28614630Y-81077299D01*
G37*
G36*
X31154630Y-81077299D02*
X31314855Y-81125903D01*
X31462520Y-81204831D01*
X31591949Y-81311051D01*
X31698169Y-81440480D01*
X31777097Y-81588145D01*
X31825701Y-81748370D01*
X31842112Y-81915000D01*
X31825701Y-82081630D01*
X31777097Y-82241855D01*
X31698169Y-82389520D01*
X31591949Y-82518949D01*
X31462520Y-82625169D01*
X31314855Y-82704097D01*
X31154630Y-82752701D01*
X31029752Y-82765000D01*
X30946248Y-82765000D01*
X30821370Y-82752701D01*
X30661145Y-82704097D01*
X30513480Y-82625169D01*
X30384051Y-82518949D01*
X30277831Y-82389520D01*
X30198903Y-82241855D01*
X30150299Y-82081630D01*
X30133888Y-81915000D01*
X30150299Y-81748370D01*
X30198903Y-81588145D01*
X30277831Y-81440480D01*
X30384051Y-81311051D01*
X30513480Y-81204831D01*
X30661145Y-81125903D01*
X30821370Y-81077299D01*
X30946248Y-81065000D01*
X31029752Y-81065000D01*
X31154630Y-81077299D01*
X31154630Y-81077299D01*
G37*
G36*
X81108000Y-82596000D02*
X79608000Y-82596000D01*
X79608000Y-81996000D01*
X81108000Y-81996000D01*
X81108000Y-82596000D01*
X81108000Y-82596000D01*
G37*
G36*
X86508000Y-82596000D02*
X85008000Y-82596000D01*
X85008000Y-81996000D01*
X86508000Y-81996000D01*
X86508000Y-82596000D01*
X86508000Y-82596000D01*
G37*
G36*
X96499352Y-80188743D02*
X96644941Y-80249048D01*
X96775973Y-80336601D01*
X96887399Y-80448027D01*
X96974952Y-80579059D01*
X97035257Y-80724648D01*
X97066000Y-80879205D01*
X97066000Y-81036795D01*
X97035257Y-81191352D01*
X96974952Y-81336941D01*
X96887399Y-81467973D01*
X96775973Y-81579399D01*
X96644941Y-81666952D01*
X96499352Y-81727257D01*
X96344795Y-81758000D01*
X96187205Y-81758000D01*
X96032648Y-81727257D01*
X95887059Y-81666952D01*
X95756027Y-81579399D01*
X95644601Y-81467973D01*
X95557048Y-81336941D01*
X95496743Y-81191352D01*
X95466000Y-81036795D01*
X95466000Y-80879205D01*
X95496743Y-80724648D01*
X95557048Y-80579059D01*
X95644601Y-80448027D01*
X95756027Y-80336601D01*
X95887059Y-80249048D01*
X96032648Y-80188743D01*
X96187205Y-80158000D01*
X96344795Y-80158000D01*
X96499352Y-80188743D01*
X96499352Y-80188743D01*
G37*
G36*
X93699352Y-80188743D02*
X93844941Y-80249048D01*
X93975973Y-80336601D01*
X94087399Y-80448027D01*
X94174952Y-80579059D01*
X94235257Y-80724648D01*
X94266000Y-80879205D01*
X94266000Y-81036795D01*
X94235257Y-81191352D01*
X94174952Y-81336941D01*
X94087399Y-81467973D01*
X93975973Y-81579399D01*
X93844941Y-81666952D01*
X93699352Y-81727257D01*
X93544795Y-81758000D01*
X93387205Y-81758000D01*
X93232648Y-81727257D01*
X93087059Y-81666952D01*
X92956027Y-81579399D01*
X92844601Y-81467973D01*
X92757048Y-81336941D01*
X92696743Y-81191352D01*
X92666000Y-81036795D01*
X92666000Y-80879205D01*
X92696743Y-80724648D01*
X92757048Y-80579059D01*
X92844601Y-80448027D01*
X92956027Y-80336601D01*
X93087059Y-80249048D01*
X93232648Y-80188743D01*
X93387205Y-80158000D01*
X93544795Y-80158000D01*
X93699352Y-80188743D01*
X93699352Y-80188743D01*
G37*
G36*
X86508000Y-81326000D02*
X85008000Y-81326000D01*
X85008000Y-80726000D01*
X86508000Y-80726000D01*
X86508000Y-81326000D01*
X86508000Y-81326000D01*
G37*
G36*
X81108000Y-81326000D02*
X79608000Y-81326000D01*
X79608000Y-80726000D01*
X81108000Y-80726000D01*
X81108000Y-81326000D01*
X81108000Y-81326000D01*
G37*
G36*
X71039195Y-78759522D02*
X71088267Y-78769283D01*
X71226942Y-78826724D01*
X71351750Y-78910118D01*
X71457882Y-79016250D01*
X71457884Y-79016253D01*
X71541276Y-79141058D01*
X71569158Y-79208370D01*
X71598717Y-79279734D01*
X71628000Y-79426948D01*
X71628000Y-79577052D01*
X71598717Y-79724266D01*
X71541276Y-79862942D01*
X71457882Y-79987750D01*
X71351750Y-80093882D01*
X71351747Y-80093884D01*
X71226942Y-80177276D01*
X71088267Y-80234717D01*
X71039195Y-80244478D01*
X70941052Y-80264000D01*
X70790948Y-80264000D01*
X70692805Y-80244478D01*
X70643733Y-80234717D01*
X70505058Y-80177276D01*
X70380253Y-80093884D01*
X70380250Y-80093882D01*
X70274118Y-79987750D01*
X70190724Y-79862942D01*
X70133283Y-79724266D01*
X70104000Y-79577052D01*
X70104000Y-79426948D01*
X70133283Y-79279734D01*
X70162843Y-79208370D01*
X70190724Y-79141058D01*
X70274116Y-79016253D01*
X70274118Y-79016250D01*
X70380250Y-78910118D01*
X70505058Y-78826724D01*
X70643733Y-78769283D01*
X70692805Y-78759522D01*
X70790948Y-78740000D01*
X70941052Y-78740000D01*
X71039195Y-78759522D01*
X71039195Y-78759522D01*
G37*
G36*
X45639195Y-78759522D02*
X45688267Y-78769283D01*
X45826942Y-78826724D01*
X45951750Y-78910118D01*
X46057882Y-79016250D01*
X46057884Y-79016253D01*
X46141276Y-79141058D01*
X46169158Y-79208370D01*
X46198717Y-79279734D01*
X46228000Y-79426948D01*
X46228000Y-79577052D01*
X46198717Y-79724266D01*
X46141276Y-79862942D01*
X46057882Y-79987750D01*
X45951750Y-80093882D01*
X45951747Y-80093884D01*
X45826942Y-80177276D01*
X45688267Y-80234717D01*
X45639195Y-80244478D01*
X45541052Y-80264000D01*
X45390948Y-80264000D01*
X45292805Y-80244478D01*
X45243733Y-80234717D01*
X45105058Y-80177276D01*
X44980253Y-80093884D01*
X44980250Y-80093882D01*
X44874118Y-79987750D01*
X44790724Y-79862942D01*
X44733283Y-79724266D01*
X44704000Y-79577052D01*
X44704000Y-79426948D01*
X44733283Y-79279734D01*
X44762843Y-79208370D01*
X44790724Y-79141058D01*
X44874116Y-79016253D01*
X44874118Y-79016250D01*
X44980250Y-78910118D01*
X45105058Y-78826724D01*
X45243733Y-78769283D01*
X45292805Y-78759522D01*
X45390948Y-78740000D01*
X45541052Y-78740000D01*
X45639195Y-78759522D01*
X45639195Y-78759522D01*
G37*
G36*
X28614630Y-78537299D02*
X28774855Y-78585903D01*
X28922520Y-78664831D01*
X29051949Y-78771051D01*
X29158169Y-78900480D01*
X29237097Y-79048145D01*
X29285701Y-79208370D01*
X29302112Y-79375000D01*
X29285701Y-79541630D01*
X29237097Y-79701855D01*
X29158169Y-79849520D01*
X29051949Y-79978949D01*
X28922520Y-80085169D01*
X28774855Y-80164097D01*
X28614630Y-80212701D01*
X28489752Y-80225000D01*
X28406248Y-80225000D01*
X28281370Y-80212701D01*
X28121145Y-80164097D01*
X27973480Y-80085169D01*
X27844051Y-79978949D01*
X27737831Y-79849520D01*
X27658903Y-79701855D01*
X27610299Y-79541630D01*
X27593888Y-79375000D01*
X27610299Y-79208370D01*
X27658903Y-79048145D01*
X27737831Y-78900480D01*
X27844051Y-78771051D01*
X27973480Y-78664831D01*
X28121145Y-78585903D01*
X28281370Y-78537299D01*
X28406248Y-78525000D01*
X28489752Y-78525000D01*
X28614630Y-78537299D01*
X28614630Y-78537299D01*
G37*
G36*
X31154630Y-78537299D02*
X31314855Y-78585903D01*
X31462520Y-78664831D01*
X31591949Y-78771051D01*
X31698169Y-78900480D01*
X31777097Y-79048145D01*
X31825701Y-79208370D01*
X31842112Y-79375000D01*
X31825701Y-79541630D01*
X31777097Y-79701855D01*
X31698169Y-79849520D01*
X31591949Y-79978949D01*
X31462520Y-80085169D01*
X31314855Y-80164097D01*
X31154630Y-80212701D01*
X31029752Y-80225000D01*
X30946248Y-80225000D01*
X30821370Y-80212701D01*
X30661145Y-80164097D01*
X30513480Y-80085169D01*
X30384051Y-79978949D01*
X30277831Y-79849520D01*
X30198903Y-79701855D01*
X30150299Y-79541630D01*
X30133888Y-79375000D01*
X30150299Y-79208370D01*
X30198903Y-79048145D01*
X30277831Y-78900480D01*
X30384051Y-78771051D01*
X30513480Y-78664831D01*
X30661145Y-78585903D01*
X30821370Y-78537299D01*
X30946248Y-78525000D01*
X31029752Y-78525000D01*
X31154630Y-78537299D01*
X31154630Y-78537299D01*
G37*
G36*
X26074630Y-78537299D02*
X26234855Y-78585903D01*
X26382520Y-78664831D01*
X26511949Y-78771051D01*
X26618169Y-78900480D01*
X26697097Y-79048145D01*
X26745701Y-79208370D01*
X26762112Y-79375000D01*
X26745701Y-79541630D01*
X26697097Y-79701855D01*
X26618169Y-79849520D01*
X26511949Y-79978949D01*
X26382520Y-80085169D01*
X26234855Y-80164097D01*
X26074630Y-80212701D01*
X25949752Y-80225000D01*
X25866248Y-80225000D01*
X25741370Y-80212701D01*
X25581145Y-80164097D01*
X25433480Y-80085169D01*
X25304051Y-79978949D01*
X25197831Y-79849520D01*
X25118903Y-79701855D01*
X25070299Y-79541630D01*
X25053888Y-79375000D01*
X25070299Y-79208370D01*
X25118903Y-79048145D01*
X25197831Y-78900480D01*
X25304051Y-78771051D01*
X25433480Y-78664831D01*
X25581145Y-78585903D01*
X25741370Y-78537299D01*
X25866248Y-78525000D01*
X25949752Y-78525000D01*
X26074630Y-78537299D01*
X26074630Y-78537299D01*
G37*
G36*
X100062030Y-76522469D02*
X100062033Y-76522470D01*
X100062034Y-76522470D01*
X100250535Y-76579651D01*
X100250537Y-76579652D01*
X100424260Y-76672509D01*
X100576528Y-76797472D01*
X100701491Y-76949740D01*
X100701492Y-76949742D01*
X100794349Y-77123465D01*
X100850788Y-77309520D01*
X100851531Y-77311970D01*
X100870838Y-77508000D01*
X100851531Y-77704030D01*
X100794348Y-77892537D01*
X100701491Y-78066260D01*
X100576528Y-78218528D01*
X100424260Y-78343491D01*
X100424258Y-78343492D01*
X100250535Y-78436349D01*
X100062034Y-78493530D01*
X100062033Y-78493530D01*
X100062030Y-78493531D01*
X99915124Y-78508000D01*
X98316876Y-78508000D01*
X98169970Y-78493531D01*
X98169967Y-78493530D01*
X98169966Y-78493530D01*
X97981465Y-78436349D01*
X97807742Y-78343492D01*
X97807740Y-78343491D01*
X97655472Y-78218528D01*
X97530509Y-78066260D01*
X97437652Y-77892537D01*
X97380469Y-77704030D01*
X97361162Y-77508000D01*
X97380469Y-77311970D01*
X97381212Y-77309520D01*
X97437651Y-77123465D01*
X97530508Y-76949742D01*
X97530509Y-76949740D01*
X97655472Y-76797472D01*
X97807740Y-76672509D01*
X97981463Y-76579652D01*
X97981465Y-76579651D01*
X98169966Y-76522470D01*
X98169967Y-76522470D01*
X98169970Y-76522469D01*
X98316876Y-76508000D01*
X99915124Y-76508000D01*
X100062030Y-76522469D01*
X100062030Y-76522469D01*
G37*
G36*
X71039195Y-76219522D02*
X71088267Y-76229283D01*
X71226942Y-76286724D01*
X71351750Y-76370118D01*
X71457882Y-76476250D01*
X71457884Y-76476253D01*
X71541276Y-76601058D01*
X71570872Y-76672508D01*
X71598717Y-76739734D01*
X71628000Y-76886948D01*
X71628000Y-77037052D01*
X71598717Y-77184266D01*
X71541276Y-77322942D01*
X71457882Y-77447750D01*
X71351750Y-77553882D01*
X71351747Y-77553884D01*
X71226942Y-77637276D01*
X71088267Y-77694717D01*
X71041447Y-77704030D01*
X70941052Y-77724000D01*
X70790948Y-77724000D01*
X70690553Y-77704030D01*
X70643733Y-77694717D01*
X70505058Y-77637276D01*
X70380253Y-77553884D01*
X70380250Y-77553882D01*
X70274118Y-77447750D01*
X70190724Y-77322942D01*
X70133283Y-77184266D01*
X70104000Y-77037052D01*
X70104000Y-76886948D01*
X70133283Y-76739734D01*
X70161129Y-76672508D01*
X70190724Y-76601058D01*
X70274116Y-76476253D01*
X70274118Y-76476250D01*
X70380250Y-76370118D01*
X70505058Y-76286724D01*
X70643733Y-76229283D01*
X70692805Y-76219522D01*
X70790948Y-76200000D01*
X70941052Y-76200000D01*
X71039195Y-76219522D01*
X71039195Y-76219522D01*
G37*
G36*
X45639195Y-76219522D02*
X45688267Y-76229283D01*
X45826942Y-76286724D01*
X45951750Y-76370118D01*
X46057882Y-76476250D01*
X46057884Y-76476253D01*
X46141276Y-76601058D01*
X46170872Y-76672508D01*
X46198717Y-76739734D01*
X46228000Y-76886948D01*
X46228000Y-77037052D01*
X46198717Y-77184266D01*
X46141276Y-77322942D01*
X46057882Y-77447750D01*
X45951750Y-77553882D01*
X45951747Y-77553884D01*
X45826942Y-77637276D01*
X45688267Y-77694717D01*
X45641447Y-77704030D01*
X45541052Y-77724000D01*
X45390948Y-77724000D01*
X45290553Y-77704030D01*
X45243733Y-77694717D01*
X45105058Y-77637276D01*
X44980253Y-77553884D01*
X44980250Y-77553882D01*
X44874118Y-77447750D01*
X44790724Y-77322942D01*
X44733283Y-77184266D01*
X44704000Y-77037052D01*
X44704000Y-76886948D01*
X44733283Y-76739734D01*
X44761129Y-76672508D01*
X44790724Y-76601058D01*
X44874116Y-76476253D01*
X44874118Y-76476250D01*
X44980250Y-76370118D01*
X45105058Y-76286724D01*
X45243733Y-76229283D01*
X45292805Y-76219522D01*
X45390948Y-76200000D01*
X45541052Y-76200000D01*
X45639195Y-76219522D01*
X45639195Y-76219522D01*
G37*
G36*
X31154630Y-75997299D02*
X31314855Y-76045903D01*
X31462520Y-76124831D01*
X31591949Y-76231051D01*
X31698169Y-76360480D01*
X31777097Y-76508145D01*
X31825701Y-76668370D01*
X31842112Y-76835000D01*
X31825701Y-77001630D01*
X31777097Y-77161855D01*
X31698169Y-77309520D01*
X31591949Y-77438949D01*
X31462520Y-77545169D01*
X31314855Y-77624097D01*
X31154630Y-77672701D01*
X31029752Y-77685000D01*
X30946248Y-77685000D01*
X30821370Y-77672701D01*
X30661145Y-77624097D01*
X30513480Y-77545169D01*
X30384051Y-77438949D01*
X30277831Y-77309520D01*
X30198903Y-77161855D01*
X30150299Y-77001630D01*
X30133888Y-76835000D01*
X30150299Y-76668370D01*
X30198903Y-76508145D01*
X30277831Y-76360480D01*
X30384051Y-76231051D01*
X30513480Y-76124831D01*
X30661145Y-76045903D01*
X30821370Y-75997299D01*
X30946248Y-75985000D01*
X31029752Y-75985000D01*
X31154630Y-75997299D01*
X31154630Y-75997299D01*
G37*
G36*
X28614630Y-75997299D02*
X28774855Y-76045903D01*
X28922520Y-76124831D01*
X29051949Y-76231051D01*
X29158169Y-76360480D01*
X29237097Y-76508145D01*
X29285701Y-76668370D01*
X29302112Y-76835000D01*
X29285701Y-77001630D01*
X29237097Y-77161855D01*
X29158169Y-77309520D01*
X29051949Y-77438949D01*
X28922520Y-77545169D01*
X28774855Y-77624097D01*
X28614630Y-77672701D01*
X28489752Y-77685000D01*
X28406248Y-77685000D01*
X28281370Y-77672701D01*
X28121145Y-77624097D01*
X27973480Y-77545169D01*
X27844051Y-77438949D01*
X27737831Y-77309520D01*
X27658903Y-77161855D01*
X27610299Y-77001630D01*
X27593888Y-76835000D01*
X27610299Y-76668370D01*
X27658903Y-76508145D01*
X27737831Y-76360480D01*
X27844051Y-76231051D01*
X27973480Y-76124831D01*
X28121145Y-76045903D01*
X28281370Y-75997299D01*
X28406248Y-75985000D01*
X28489752Y-75985000D01*
X28614630Y-75997299D01*
X28614630Y-75997299D01*
G37*
G36*
X26074630Y-75997299D02*
X26234855Y-76045903D01*
X26382520Y-76124831D01*
X26511949Y-76231051D01*
X26618169Y-76360480D01*
X26697097Y-76508145D01*
X26745701Y-76668370D01*
X26762112Y-76835000D01*
X26745701Y-77001630D01*
X26697097Y-77161855D01*
X26618169Y-77309520D01*
X26511949Y-77438949D01*
X26382520Y-77545169D01*
X26234855Y-77624097D01*
X26074630Y-77672701D01*
X25949752Y-77685000D01*
X25866248Y-77685000D01*
X25741370Y-77672701D01*
X25581145Y-77624097D01*
X25433480Y-77545169D01*
X25304051Y-77438949D01*
X25197831Y-77309520D01*
X25118903Y-77161855D01*
X25070299Y-77001630D01*
X25053888Y-76835000D01*
X25070299Y-76668370D01*
X25118903Y-76508145D01*
X25197831Y-76360480D01*
X25304051Y-76231051D01*
X25433480Y-76124831D01*
X25581145Y-76045903D01*
X25741370Y-75997299D01*
X25866248Y-75985000D01*
X25949752Y-75985000D01*
X26074630Y-75997299D01*
X26074630Y-75997299D01*
G37*
G36*
X45639195Y-73679522D02*
X45688267Y-73689283D01*
X45826942Y-73746724D01*
X45951750Y-73830118D01*
X46057882Y-73936250D01*
X46057884Y-73936253D01*
X46141276Y-74061058D01*
X46169158Y-74128370D01*
X46198717Y-74199734D01*
X46228000Y-74346948D01*
X46228000Y-74497052D01*
X46198717Y-74644266D01*
X46141276Y-74782942D01*
X46057882Y-74907750D01*
X45951750Y-75013882D01*
X45951747Y-75013884D01*
X45826942Y-75097276D01*
X45688267Y-75154717D01*
X45639195Y-75164478D01*
X45541052Y-75184000D01*
X45390948Y-75184000D01*
X45292805Y-75164478D01*
X45243733Y-75154717D01*
X45105058Y-75097276D01*
X44980253Y-75013884D01*
X44980250Y-75013882D01*
X44874118Y-74907750D01*
X44790724Y-74782942D01*
X44733283Y-74644266D01*
X44704000Y-74497052D01*
X44704000Y-74346948D01*
X44733283Y-74199734D01*
X44762843Y-74128370D01*
X44790724Y-74061058D01*
X44874116Y-73936253D01*
X44874118Y-73936250D01*
X44980250Y-73830118D01*
X45105058Y-73746724D01*
X45243733Y-73689283D01*
X45292805Y-73679522D01*
X45390948Y-73660000D01*
X45541052Y-73660000D01*
X45639195Y-73679522D01*
X45639195Y-73679522D01*
G37*
G36*
X71039195Y-73679522D02*
X71088267Y-73689283D01*
X71226942Y-73746724D01*
X71351750Y-73830118D01*
X71457882Y-73936250D01*
X71457884Y-73936253D01*
X71541276Y-74061058D01*
X71569158Y-74128370D01*
X71598717Y-74199734D01*
X71628000Y-74346948D01*
X71628000Y-74497052D01*
X71598717Y-74644266D01*
X71541276Y-74782942D01*
X71457882Y-74907750D01*
X71351750Y-75013882D01*
X71351747Y-75013884D01*
X71226942Y-75097276D01*
X71088267Y-75154717D01*
X71039195Y-75164478D01*
X70941052Y-75184000D01*
X70790948Y-75184000D01*
X70692805Y-75164478D01*
X70643733Y-75154717D01*
X70505058Y-75097276D01*
X70380253Y-75013884D01*
X70380250Y-75013882D01*
X70274118Y-74907750D01*
X70190724Y-74782942D01*
X70133283Y-74644266D01*
X70104000Y-74497052D01*
X70104000Y-74346948D01*
X70133283Y-74199734D01*
X70162843Y-74128370D01*
X70190724Y-74061058D01*
X70274116Y-73936253D01*
X70274118Y-73936250D01*
X70380250Y-73830118D01*
X70505058Y-73746724D01*
X70643733Y-73689283D01*
X70692805Y-73679522D01*
X70790948Y-73660000D01*
X70941052Y-73660000D01*
X71039195Y-73679522D01*
X71039195Y-73679522D01*
G37*
G36*
X26074630Y-73457299D02*
X26234855Y-73505903D01*
X26382520Y-73584831D01*
X26511949Y-73691051D01*
X26618169Y-73820480D01*
X26697097Y-73968145D01*
X26745701Y-74128370D01*
X26762112Y-74295000D01*
X26745701Y-74461630D01*
X26697097Y-74621855D01*
X26618169Y-74769520D01*
X26511949Y-74898949D01*
X26382520Y-75005169D01*
X26234855Y-75084097D01*
X26074630Y-75132701D01*
X25949752Y-75145000D01*
X25866248Y-75145000D01*
X25741370Y-75132701D01*
X25581145Y-75084097D01*
X25433480Y-75005169D01*
X25304051Y-74898949D01*
X25197831Y-74769520D01*
X25118903Y-74621855D01*
X25070299Y-74461630D01*
X25053888Y-74295000D01*
X25070299Y-74128370D01*
X25118903Y-73968145D01*
X25197831Y-73820480D01*
X25304051Y-73691051D01*
X25433480Y-73584831D01*
X25581145Y-73505903D01*
X25741370Y-73457299D01*
X25866248Y-73445000D01*
X25949752Y-73445000D01*
X26074630Y-73457299D01*
X26074630Y-73457299D01*
G37*
G36*
X28614630Y-73457299D02*
X28774855Y-73505903D01*
X28922520Y-73584831D01*
X29051949Y-73691051D01*
X29158169Y-73820480D01*
X29237097Y-73968145D01*
X29285701Y-74128370D01*
X29302112Y-74295000D01*
X29285701Y-74461630D01*
X29237097Y-74621855D01*
X29158169Y-74769520D01*
X29051949Y-74898949D01*
X28922520Y-75005169D01*
X28774855Y-75084097D01*
X28614630Y-75132701D01*
X28489752Y-75145000D01*
X28406248Y-75145000D01*
X28281370Y-75132701D01*
X28121145Y-75084097D01*
X27973480Y-75005169D01*
X27844051Y-74898949D01*
X27737831Y-74769520D01*
X27658903Y-74621855D01*
X27610299Y-74461630D01*
X27593888Y-74295000D01*
X27610299Y-74128370D01*
X27658903Y-73968145D01*
X27737831Y-73820480D01*
X27844051Y-73691051D01*
X27973480Y-73584831D01*
X28121145Y-73505903D01*
X28281370Y-73457299D01*
X28406248Y-73445000D01*
X28489752Y-73445000D01*
X28614630Y-73457299D01*
X28614630Y-73457299D01*
G37*
G36*
X31154630Y-73457299D02*
X31314855Y-73505903D01*
X31462520Y-73584831D01*
X31591949Y-73691051D01*
X31698169Y-73820480D01*
X31777097Y-73968145D01*
X31825701Y-74128370D01*
X31842112Y-74295000D01*
X31825701Y-74461630D01*
X31777097Y-74621855D01*
X31698169Y-74769520D01*
X31591949Y-74898949D01*
X31462520Y-75005169D01*
X31314855Y-75084097D01*
X31154630Y-75132701D01*
X31029752Y-75145000D01*
X30946248Y-75145000D01*
X30821370Y-75132701D01*
X30661145Y-75084097D01*
X30513480Y-75005169D01*
X30384051Y-74898949D01*
X30277831Y-74769520D01*
X30198903Y-74621855D01*
X30150299Y-74461630D01*
X30133888Y-74295000D01*
X30150299Y-74128370D01*
X30198903Y-73968145D01*
X30277831Y-73820480D01*
X30384051Y-73691051D01*
X30513480Y-73584831D01*
X30661145Y-73505903D01*
X30821370Y-73457299D01*
X30946248Y-73445000D01*
X31029752Y-73445000D01*
X31154630Y-73457299D01*
X31154630Y-73457299D01*
G37*
G36*
X100062030Y-71172469D02*
X100062033Y-71172470D01*
X100062034Y-71172470D01*
X100250535Y-71229651D01*
X100250537Y-71229652D01*
X100424260Y-71322509D01*
X100576528Y-71447472D01*
X100701491Y-71599740D01*
X100784479Y-71755000D01*
X100794349Y-71773465D01*
X100839294Y-71921629D01*
X100851531Y-71961970D01*
X100870838Y-72158000D01*
X100851531Y-72354030D01*
X100851530Y-72354033D01*
X100851530Y-72354034D01*
X100815175Y-72473882D01*
X100794348Y-72542537D01*
X100701491Y-72716260D01*
X100576528Y-72868528D01*
X100424260Y-72993491D01*
X100424258Y-72993492D01*
X100250535Y-73086349D01*
X100062034Y-73143530D01*
X100062033Y-73143530D01*
X100062030Y-73143531D01*
X99915124Y-73158000D01*
X98316876Y-73158000D01*
X98169970Y-73143531D01*
X98169967Y-73143530D01*
X98169966Y-73143530D01*
X97981465Y-73086349D01*
X97807742Y-72993492D01*
X97807740Y-72993491D01*
X97655472Y-72868528D01*
X97530509Y-72716260D01*
X97437652Y-72542537D01*
X97416826Y-72473882D01*
X97380470Y-72354034D01*
X97380470Y-72354033D01*
X97380469Y-72354030D01*
X97361162Y-72158000D01*
X97380469Y-71961970D01*
X97392706Y-71921629D01*
X97437651Y-71773465D01*
X97447521Y-71755000D01*
X97530509Y-71599740D01*
X97655472Y-71447472D01*
X97807740Y-71322509D01*
X97981463Y-71229652D01*
X97981465Y-71229651D01*
X98169966Y-71172470D01*
X98169967Y-71172470D01*
X98169970Y-71172469D01*
X98316876Y-71158000D01*
X99915124Y-71158000D01*
X100062030Y-71172469D01*
X100062030Y-71172469D01*
G37*
G36*
X71039195Y-71139522D02*
X71088267Y-71149283D01*
X71144245Y-71172470D01*
X71226942Y-71206724D01*
X71351750Y-71290118D01*
X71457882Y-71396250D01*
X71457884Y-71396253D01*
X71541276Y-71521058D01*
X71569158Y-71588370D01*
X71598717Y-71659734D01*
X71628000Y-71806948D01*
X71628000Y-71957052D01*
X71598717Y-72104266D01*
X71541276Y-72242942D01*
X71457882Y-72367750D01*
X71351750Y-72473882D01*
X71351747Y-72473884D01*
X71226942Y-72557276D01*
X71088267Y-72614717D01*
X71039195Y-72624478D01*
X70941052Y-72644000D01*
X70790948Y-72644000D01*
X70692805Y-72624478D01*
X70643733Y-72614717D01*
X70505058Y-72557276D01*
X70380253Y-72473884D01*
X70380250Y-72473882D01*
X70274118Y-72367750D01*
X70190724Y-72242942D01*
X70133283Y-72104266D01*
X70104000Y-71957052D01*
X70104000Y-71806948D01*
X70133283Y-71659734D01*
X70162843Y-71588370D01*
X70190724Y-71521058D01*
X70274116Y-71396253D01*
X70274118Y-71396250D01*
X70380250Y-71290118D01*
X70505058Y-71206724D01*
X70587755Y-71172470D01*
X70643733Y-71149283D01*
X70692805Y-71139522D01*
X70790948Y-71120000D01*
X70941052Y-71120000D01*
X71039195Y-71139522D01*
X71039195Y-71139522D01*
G37*
G36*
X45639195Y-71139522D02*
X45688267Y-71149283D01*
X45744245Y-71172470D01*
X45826942Y-71206724D01*
X45951750Y-71290118D01*
X46057882Y-71396250D01*
X46057884Y-71396253D01*
X46141276Y-71521058D01*
X46169158Y-71588370D01*
X46198717Y-71659734D01*
X46228000Y-71806948D01*
X46228000Y-71957052D01*
X46198717Y-72104266D01*
X46141276Y-72242942D01*
X46057882Y-72367750D01*
X45951750Y-72473882D01*
X45951747Y-72473884D01*
X45826942Y-72557276D01*
X45688267Y-72614717D01*
X45639195Y-72624478D01*
X45541052Y-72644000D01*
X45390948Y-72644000D01*
X45292805Y-72624478D01*
X45243733Y-72614717D01*
X45105058Y-72557276D01*
X44980253Y-72473884D01*
X44980250Y-72473882D01*
X44874118Y-72367750D01*
X44790724Y-72242942D01*
X44733283Y-72104266D01*
X44704000Y-71957052D01*
X44704000Y-71806948D01*
X44733283Y-71659734D01*
X44762843Y-71588370D01*
X44790724Y-71521058D01*
X44874116Y-71396253D01*
X44874118Y-71396250D01*
X44980250Y-71290118D01*
X45105058Y-71206724D01*
X45187755Y-71172470D01*
X45243733Y-71149283D01*
X45292805Y-71139522D01*
X45390948Y-71120000D01*
X45541052Y-71120000D01*
X45639195Y-71139522D01*
X45639195Y-71139522D01*
G37*
G36*
X31154630Y-70917299D02*
X31314855Y-70965903D01*
X31462520Y-71044831D01*
X31591949Y-71151051D01*
X31698169Y-71280480D01*
X31777097Y-71428145D01*
X31825701Y-71588370D01*
X31842112Y-71755000D01*
X31825701Y-71921630D01*
X31777097Y-72081855D01*
X31698169Y-72229520D01*
X31591949Y-72358949D01*
X31462520Y-72465169D01*
X31314855Y-72544097D01*
X31154630Y-72592701D01*
X31029752Y-72605000D01*
X30946248Y-72605000D01*
X30821370Y-72592701D01*
X30661145Y-72544097D01*
X30513480Y-72465169D01*
X30384051Y-72358949D01*
X30277831Y-72229520D01*
X30198903Y-72081855D01*
X30150299Y-71921630D01*
X30133888Y-71755000D01*
X30150299Y-71588370D01*
X30198903Y-71428145D01*
X30277831Y-71280480D01*
X30384051Y-71151051D01*
X30513480Y-71044831D01*
X30661145Y-70965903D01*
X30821370Y-70917299D01*
X30946248Y-70905000D01*
X31029752Y-70905000D01*
X31154630Y-70917299D01*
X31154630Y-70917299D01*
G37*
G36*
X26074630Y-70917299D02*
X26234855Y-70965903D01*
X26382520Y-71044831D01*
X26511949Y-71151051D01*
X26618169Y-71280480D01*
X26697097Y-71428145D01*
X26745701Y-71588370D01*
X26762112Y-71755000D01*
X26745701Y-71921630D01*
X26697097Y-72081855D01*
X26618169Y-72229520D01*
X26511949Y-72358949D01*
X26382520Y-72465169D01*
X26234855Y-72544097D01*
X26074630Y-72592701D01*
X25949752Y-72605000D01*
X25866248Y-72605000D01*
X25741370Y-72592701D01*
X25581145Y-72544097D01*
X25433480Y-72465169D01*
X25304051Y-72358949D01*
X25197831Y-72229520D01*
X25118903Y-72081855D01*
X25070299Y-71921630D01*
X25053888Y-71755000D01*
X25070299Y-71588370D01*
X25118903Y-71428145D01*
X25197831Y-71280480D01*
X25304051Y-71151051D01*
X25433480Y-71044831D01*
X25581145Y-70965903D01*
X25741370Y-70917299D01*
X25866248Y-70905000D01*
X25949752Y-70905000D01*
X26074630Y-70917299D01*
X26074630Y-70917299D01*
G37*
G36*
X28614630Y-70917299D02*
X28774855Y-70965903D01*
X28922520Y-71044831D01*
X29051949Y-71151051D01*
X29158169Y-71280480D01*
X29237097Y-71428145D01*
X29285701Y-71588370D01*
X29302112Y-71755000D01*
X29285701Y-71921630D01*
X29237097Y-72081855D01*
X29158169Y-72229520D01*
X29051949Y-72358949D01*
X28922520Y-72465169D01*
X28774855Y-72544097D01*
X28614630Y-72592701D01*
X28489752Y-72605000D01*
X28406248Y-72605000D01*
X28281370Y-72592701D01*
X28121145Y-72544097D01*
X27973480Y-72465169D01*
X27844051Y-72358949D01*
X27737831Y-72229520D01*
X27658903Y-72081855D01*
X27610299Y-71921630D01*
X27593888Y-71755000D01*
X27610299Y-71588370D01*
X27658903Y-71428145D01*
X27737831Y-71280480D01*
X27844051Y-71151051D01*
X27973480Y-71044831D01*
X28121145Y-70965903D01*
X28281370Y-70917299D01*
X28406248Y-70905000D01*
X28489752Y-70905000D01*
X28614630Y-70917299D01*
X28614630Y-70917299D01*
G37*
G36*
X45639195Y-68599522D02*
X45688267Y-68609283D01*
X45826942Y-68666724D01*
X45951750Y-68750118D01*
X46057882Y-68856250D01*
X46057884Y-68856253D01*
X46141276Y-68981058D01*
X46185135Y-69086942D01*
X46198717Y-69119734D01*
X46228000Y-69266948D01*
X46228000Y-69417052D01*
X46198717Y-69564266D01*
X46141276Y-69702942D01*
X46057882Y-69827750D01*
X45951750Y-69933882D01*
X45951747Y-69933884D01*
X45826942Y-70017276D01*
X45688267Y-70074717D01*
X45639195Y-70084478D01*
X45541052Y-70104000D01*
X45390948Y-70104000D01*
X45292805Y-70084478D01*
X45243733Y-70074717D01*
X45105058Y-70017276D01*
X44980253Y-69933884D01*
X44980250Y-69933882D01*
X44874118Y-69827750D01*
X44790724Y-69702942D01*
X44733283Y-69564266D01*
X44704000Y-69417052D01*
X44704000Y-69266948D01*
X44733283Y-69119734D01*
X44746866Y-69086942D01*
X44790724Y-68981058D01*
X44874116Y-68856253D01*
X44874118Y-68856250D01*
X44980250Y-68750118D01*
X45105058Y-68666724D01*
X45243733Y-68609283D01*
X45292805Y-68599522D01*
X45390948Y-68580000D01*
X45541052Y-68580000D01*
X45639195Y-68599522D01*
X45639195Y-68599522D01*
G37*
G36*
X71039195Y-68599522D02*
X71088267Y-68609283D01*
X71226942Y-68666724D01*
X71351750Y-68750118D01*
X71457882Y-68856250D01*
X71457884Y-68856253D01*
X71541276Y-68981058D01*
X71585135Y-69086942D01*
X71598717Y-69119734D01*
X71628000Y-69266948D01*
X71628000Y-69417052D01*
X71598717Y-69564266D01*
X71541276Y-69702942D01*
X71457882Y-69827750D01*
X71351750Y-69933882D01*
X71351747Y-69933884D01*
X71226942Y-70017276D01*
X71088267Y-70074717D01*
X71039195Y-70084478D01*
X70941052Y-70104000D01*
X70790948Y-70104000D01*
X70692805Y-70084478D01*
X70643733Y-70074717D01*
X70505058Y-70017276D01*
X70380253Y-69933884D01*
X70380250Y-69933882D01*
X70274118Y-69827750D01*
X70190724Y-69702942D01*
X70133283Y-69564266D01*
X70104000Y-69417052D01*
X70104000Y-69266948D01*
X70133283Y-69119734D01*
X70146866Y-69086942D01*
X70190724Y-68981058D01*
X70274116Y-68856253D01*
X70274118Y-68856250D01*
X70380250Y-68750118D01*
X70505058Y-68666724D01*
X70643733Y-68609283D01*
X70692805Y-68599522D01*
X70790948Y-68580000D01*
X70941052Y-68580000D01*
X71039195Y-68599522D01*
X71039195Y-68599522D01*
G37*
G36*
X28614630Y-68377299D02*
X28774855Y-68425903D01*
X28922520Y-68504831D01*
X29051949Y-68611051D01*
X29158169Y-68740480D01*
X29237097Y-68888145D01*
X29285701Y-69048370D01*
X29302112Y-69215000D01*
X29285701Y-69381630D01*
X29237097Y-69541855D01*
X29158169Y-69689520D01*
X29051949Y-69818949D01*
X28922520Y-69925169D01*
X28774855Y-70004097D01*
X28614630Y-70052701D01*
X28489752Y-70065000D01*
X28406248Y-70065000D01*
X28281370Y-70052701D01*
X28121145Y-70004097D01*
X27973480Y-69925169D01*
X27844051Y-69818949D01*
X27737831Y-69689520D01*
X27658903Y-69541855D01*
X27610299Y-69381630D01*
X27593888Y-69215000D01*
X27610299Y-69048370D01*
X27658903Y-68888145D01*
X27737831Y-68740480D01*
X27844051Y-68611051D01*
X27973480Y-68504831D01*
X28121145Y-68425903D01*
X28281370Y-68377299D01*
X28406248Y-68365000D01*
X28489752Y-68365000D01*
X28614630Y-68377299D01*
X28614630Y-68377299D01*
G37*
G36*
X31154630Y-68377299D02*
X31314855Y-68425903D01*
X31462520Y-68504831D01*
X31591949Y-68611051D01*
X31698169Y-68740480D01*
X31777097Y-68888145D01*
X31825701Y-69048370D01*
X31842112Y-69215000D01*
X31825701Y-69381630D01*
X31777097Y-69541855D01*
X31698169Y-69689520D01*
X31591949Y-69818949D01*
X31462520Y-69925169D01*
X31314855Y-70004097D01*
X31154630Y-70052701D01*
X31029752Y-70065000D01*
X30946248Y-70065000D01*
X30821370Y-70052701D01*
X30661145Y-70004097D01*
X30513480Y-69925169D01*
X30384051Y-69818949D01*
X30277831Y-69689520D01*
X30198903Y-69541855D01*
X30150299Y-69381630D01*
X30133888Y-69215000D01*
X30150299Y-69048370D01*
X30198903Y-68888145D01*
X30277831Y-68740480D01*
X30384051Y-68611051D01*
X30513480Y-68504831D01*
X30661145Y-68425903D01*
X30821370Y-68377299D01*
X30946248Y-68365000D01*
X31029752Y-68365000D01*
X31154630Y-68377299D01*
X31154630Y-68377299D01*
G37*
G36*
X26758000Y-70065000D02*
X25058000Y-70065000D01*
X25058000Y-68365000D01*
X26758000Y-68365000D01*
X26758000Y-70065000D01*
X26758000Y-70065000D01*
G37*
G36*
X93699352Y-67938743D02*
X93844941Y-67999048D01*
X93975973Y-68086601D01*
X94087399Y-68198027D01*
X94174952Y-68329059D01*
X94235257Y-68474648D01*
X94266000Y-68629205D01*
X94266000Y-68786795D01*
X94235257Y-68941352D01*
X94174952Y-69086941D01*
X94087399Y-69217973D01*
X93975973Y-69329399D01*
X93844941Y-69416952D01*
X93699352Y-69477257D01*
X93544795Y-69508000D01*
X93387205Y-69508000D01*
X93232648Y-69477257D01*
X93087059Y-69416952D01*
X92956027Y-69329399D01*
X92844601Y-69217973D01*
X92757048Y-69086941D01*
X92696743Y-68941352D01*
X92666000Y-68786795D01*
X92666000Y-68629205D01*
X92696743Y-68474648D01*
X92757048Y-68329059D01*
X92844601Y-68198027D01*
X92956027Y-68086601D01*
X93087059Y-67999048D01*
X93232648Y-67938743D01*
X93387205Y-67908000D01*
X93544795Y-67908000D01*
X93699352Y-67938743D01*
X93699352Y-67938743D01*
G37*
G36*
X96499352Y-67938743D02*
X96644941Y-67999048D01*
X96775973Y-68086601D01*
X96887399Y-68198027D01*
X96974952Y-68329059D01*
X97035257Y-68474648D01*
X97066000Y-68629205D01*
X97066000Y-68786795D01*
X97035257Y-68941352D01*
X96974952Y-69086941D01*
X96887399Y-69217973D01*
X96775973Y-69329399D01*
X96644941Y-69416952D01*
X96499352Y-69477257D01*
X96344795Y-69508000D01*
X96187205Y-69508000D01*
X96032648Y-69477257D01*
X95887059Y-69416952D01*
X95756027Y-69329399D01*
X95644601Y-69217973D01*
X95557048Y-69086941D01*
X95496743Y-68941352D01*
X95466000Y-68786795D01*
X95466000Y-68629205D01*
X95496743Y-68474648D01*
X95557048Y-68329059D01*
X95644601Y-68198027D01*
X95756027Y-68086601D01*
X95887059Y-67999048D01*
X96032648Y-67938743D01*
X96187205Y-67908000D01*
X96344795Y-67908000D01*
X96499352Y-67938743D01*
X96499352Y-67938743D01*
G37*
G36*
X45639195Y-66059522D02*
X45688267Y-66069283D01*
X45757661Y-66098027D01*
X45826942Y-66126724D01*
X45951750Y-66210118D01*
X46057882Y-66316250D01*
X46057884Y-66316253D01*
X46141276Y-66441058D01*
X46177788Y-66529205D01*
X46198717Y-66579734D01*
X46221155Y-66692535D01*
X46228000Y-66726950D01*
X46228000Y-66877050D01*
X46199859Y-67018528D01*
X46198717Y-67024266D01*
X46141276Y-67162942D01*
X46057882Y-67287750D01*
X45951750Y-67393882D01*
X45951747Y-67393884D01*
X45826942Y-67477276D01*
X45688267Y-67534717D01*
X45639195Y-67544478D01*
X45541052Y-67564000D01*
X45390948Y-67564000D01*
X45292805Y-67544478D01*
X45243733Y-67534717D01*
X45105058Y-67477276D01*
X44980253Y-67393884D01*
X44980250Y-67393882D01*
X44874118Y-67287750D01*
X44790724Y-67162942D01*
X44733283Y-67024266D01*
X44732142Y-67018528D01*
X44704000Y-66877050D01*
X44704000Y-66726950D01*
X44710846Y-66692535D01*
X44733283Y-66579734D01*
X44754213Y-66529205D01*
X44790724Y-66441058D01*
X44874116Y-66316253D01*
X44874118Y-66316250D01*
X44980250Y-66210118D01*
X45105058Y-66126724D01*
X45174339Y-66098027D01*
X45243733Y-66069283D01*
X45292805Y-66059522D01*
X45390948Y-66040000D01*
X45541052Y-66040000D01*
X45639195Y-66059522D01*
X45639195Y-66059522D01*
G37*
G36*
X71039195Y-66059522D02*
X71088267Y-66069283D01*
X71157661Y-66098027D01*
X71226942Y-66126724D01*
X71351750Y-66210118D01*
X71457882Y-66316250D01*
X71457884Y-66316253D01*
X71541276Y-66441058D01*
X71577788Y-66529205D01*
X71598717Y-66579734D01*
X71621155Y-66692535D01*
X71628000Y-66726950D01*
X71628000Y-66877050D01*
X71599859Y-67018528D01*
X71598717Y-67024266D01*
X71541276Y-67162942D01*
X71457882Y-67287750D01*
X71351750Y-67393882D01*
X71351747Y-67393884D01*
X71226942Y-67477276D01*
X71088267Y-67534717D01*
X71039195Y-67544478D01*
X70941052Y-67564000D01*
X70790948Y-67564000D01*
X70692805Y-67544478D01*
X70643733Y-67534717D01*
X70505058Y-67477276D01*
X70380253Y-67393884D01*
X70380250Y-67393882D01*
X70274118Y-67287750D01*
X70190724Y-67162942D01*
X70133283Y-67024266D01*
X70132142Y-67018528D01*
X70104000Y-66877050D01*
X70104000Y-66726950D01*
X70110846Y-66692535D01*
X70133283Y-66579734D01*
X70154213Y-66529205D01*
X70190724Y-66441058D01*
X70274116Y-66316253D01*
X70274118Y-66316250D01*
X70380250Y-66210118D01*
X70505058Y-66126724D01*
X70574339Y-66098027D01*
X70643733Y-66069283D01*
X70692805Y-66059522D01*
X70790948Y-66040000D01*
X70941052Y-66040000D01*
X71039195Y-66059522D01*
X71039195Y-66059522D01*
G37*
G36*
X96499352Y-65838743D02*
X96644941Y-65899048D01*
X96775973Y-65986601D01*
X96887399Y-66098027D01*
X96974952Y-66229059D01*
X97035257Y-66374648D01*
X97066000Y-66529205D01*
X97066000Y-66686795D01*
X97035257Y-66841352D01*
X96974952Y-66986941D01*
X96887399Y-67117973D01*
X96775973Y-67229399D01*
X96644941Y-67316952D01*
X96499352Y-67377257D01*
X96344795Y-67408000D01*
X96187205Y-67408000D01*
X96032648Y-67377257D01*
X95887059Y-67316952D01*
X95756027Y-67229399D01*
X95644601Y-67117973D01*
X95557048Y-66986941D01*
X95496743Y-66841352D01*
X95466000Y-66686795D01*
X95466000Y-66529205D01*
X95496743Y-66374648D01*
X95557048Y-66229059D01*
X95644601Y-66098027D01*
X95756027Y-65986601D01*
X95887059Y-65899048D01*
X96032648Y-65838743D01*
X96187205Y-65808000D01*
X96344795Y-65808000D01*
X96499352Y-65838743D01*
X96499352Y-65838743D01*
G37*
G36*
X100112029Y-63322469D02*
X100112032Y-63322470D01*
X100112033Y-63322470D01*
X100300534Y-63379651D01*
X100300536Y-63379652D01*
X100300539Y-63379653D01*
X100474258Y-63472507D01*
X100626528Y-63597472D01*
X100751491Y-63749740D01*
X100844348Y-63923463D01*
X100901531Y-64111970D01*
X100916000Y-64258876D01*
X100916000Y-66357124D01*
X100901531Y-66504030D01*
X100901530Y-66504033D01*
X100901530Y-66504034D01*
X100846091Y-66686793D01*
X100844348Y-66692537D01*
X100751491Y-66866260D01*
X100626528Y-67018528D01*
X100474260Y-67143491D01*
X100474258Y-67143492D01*
X100300535Y-67236349D01*
X100112034Y-67293530D01*
X100112033Y-67293530D01*
X100112030Y-67293531D01*
X99916000Y-67312838D01*
X99719971Y-67293531D01*
X99719968Y-67293530D01*
X99719967Y-67293530D01*
X99531466Y-67236349D01*
X99357743Y-67143492D01*
X99357741Y-67143491D01*
X99205473Y-67018528D01*
X99080510Y-66866260D01*
X98987653Y-66692537D01*
X98985911Y-66686793D01*
X98930471Y-66504034D01*
X98930471Y-66504033D01*
X98930470Y-66504030D01*
X98916001Y-66357124D01*
X98916000Y-64258877D01*
X98930469Y-64111971D01*
X98930470Y-64111967D01*
X98987651Y-63923466D01*
X98987652Y-63923464D01*
X98987653Y-63923461D01*
X99080507Y-63749742D01*
X99205472Y-63597472D01*
X99357740Y-63472509D01*
X99531463Y-63379652D01*
X99531465Y-63379651D01*
X99719966Y-63322470D01*
X99719967Y-63322470D01*
X99719970Y-63322469D01*
X99916000Y-63303162D01*
X100112029Y-63322469D01*
X100112029Y-63322469D01*
G37*
G36*
X97066000Y-64808000D02*
X95466000Y-64808000D01*
X95466000Y-63208000D01*
X97066000Y-63208000D01*
X97066000Y-64808000D01*
X97066000Y-64808000D01*
G37*
G36*
X93699352Y-61138743D02*
X93844941Y-61199048D01*
X93975973Y-61286601D01*
X94087399Y-61398027D01*
X94174952Y-61529059D01*
X94235257Y-61674648D01*
X94266000Y-61829205D01*
X94266000Y-61986795D01*
X94235257Y-62141352D01*
X94174952Y-62286941D01*
X94087399Y-62417973D01*
X93975973Y-62529399D01*
X93844941Y-62616952D01*
X93699352Y-62677257D01*
X93544795Y-62708000D01*
X93387205Y-62708000D01*
X93232648Y-62677257D01*
X93087059Y-62616952D01*
X92956027Y-62529399D01*
X92844601Y-62417973D01*
X92757048Y-62286941D01*
X92696743Y-62141352D01*
X92666000Y-61986795D01*
X92666000Y-61829205D01*
X92696743Y-61674648D01*
X92757048Y-61529059D01*
X92844601Y-61398027D01*
X92956027Y-61286601D01*
X93087059Y-61199048D01*
X93232648Y-61138743D01*
X93387205Y-61108000D01*
X93544795Y-61108000D01*
X93699352Y-61138743D01*
X93699352Y-61138743D01*
G37*
G36*
X96499352Y-61138743D02*
X96644941Y-61199048D01*
X96775973Y-61286601D01*
X96887399Y-61398027D01*
X96974952Y-61529059D01*
X97035257Y-61674648D01*
X97066000Y-61829205D01*
X97066000Y-61986795D01*
X97035257Y-62141352D01*
X96974952Y-62286941D01*
X96887399Y-62417973D01*
X96775973Y-62529399D01*
X96644941Y-62616952D01*
X96499352Y-62677257D01*
X96344795Y-62708000D01*
X96187205Y-62708000D01*
X96032648Y-62677257D01*
X95887059Y-62616952D01*
X95756027Y-62529399D01*
X95644601Y-62417973D01*
X95557048Y-62286941D01*
X95496743Y-62141352D01*
X95466000Y-61986795D01*
X95466000Y-61829205D01*
X95496743Y-61674648D01*
X95557048Y-61529059D01*
X95644601Y-61398027D01*
X95756027Y-61286601D01*
X95887059Y-61199048D01*
X96032648Y-61138743D01*
X96187205Y-61108000D01*
X96344795Y-61108000D01*
X96499352Y-61138743D01*
X96499352Y-61138743D01*
G37*
G36*
X100062030Y-57472469D02*
X100062033Y-57472470D01*
X100062034Y-57472470D01*
X100250535Y-57529651D01*
X100250537Y-57529652D01*
X100424260Y-57622509D01*
X100576528Y-57747472D01*
X100701491Y-57899740D01*
X100794348Y-58073463D01*
X100851531Y-58261970D01*
X100870838Y-58458000D01*
X100851531Y-58654030D01*
X100794348Y-58842537D01*
X100701491Y-59016260D01*
X100576528Y-59168528D01*
X100424260Y-59293491D01*
X100424258Y-59293492D01*
X100250535Y-59386349D01*
X100062034Y-59443530D01*
X100062033Y-59443530D01*
X100062030Y-59443531D01*
X99915124Y-59458000D01*
X98316876Y-59458000D01*
X98169970Y-59443531D01*
X98169967Y-59443530D01*
X98169966Y-59443530D01*
X97981465Y-59386349D01*
X97807742Y-59293492D01*
X97807740Y-59293491D01*
X97655472Y-59168528D01*
X97530509Y-59016260D01*
X97437652Y-58842537D01*
X97380469Y-58654030D01*
X97361162Y-58458000D01*
X97380469Y-58261970D01*
X97437652Y-58073463D01*
X97530509Y-57899740D01*
X97655472Y-57747472D01*
X97807740Y-57622509D01*
X97981463Y-57529652D01*
X97981465Y-57529651D01*
X98169966Y-57472470D01*
X98169967Y-57472470D01*
X98169970Y-57472469D01*
X98316876Y-57458000D01*
X99915124Y-57458000D01*
X100062030Y-57472469D01*
X100062030Y-57472469D01*
G37*
G36*
X31330000Y-53174000D02*
X29630000Y-53174000D01*
X29630000Y-51474000D01*
X31330000Y-51474000D01*
X31330000Y-53174000D01*
X31330000Y-53174000D01*
G37*
G36*
X28106630Y-51486299D02*
X28266855Y-51534903D01*
X28414520Y-51613831D01*
X28543949Y-51720051D01*
X28650169Y-51849480D01*
X28729097Y-51997145D01*
X28777701Y-52157370D01*
X28794112Y-52324000D01*
X28777701Y-52490630D01*
X28729097Y-52650855D01*
X28650169Y-52798520D01*
X28543949Y-52927949D01*
X28414520Y-53034169D01*
X28266855Y-53113097D01*
X28106630Y-53161701D01*
X27981752Y-53174000D01*
X27898248Y-53174000D01*
X27773370Y-53161701D01*
X27613145Y-53113097D01*
X27465480Y-53034169D01*
X27336051Y-52927949D01*
X27229831Y-52798520D01*
X27150903Y-52650855D01*
X27102299Y-52490630D01*
X27085888Y-52324000D01*
X27102299Y-52157370D01*
X27150903Y-51997145D01*
X27229831Y-51849480D01*
X27336051Y-51720051D01*
X27465480Y-51613831D01*
X27613145Y-51534903D01*
X27773370Y-51486299D01*
X27898248Y-51474000D01*
X27981752Y-51474000D01*
X28106630Y-51486299D01*
X28106630Y-51486299D01*
G37*
G36*
X94246043Y-49309746D02*
X94537223Y-49430357D01*
X94799284Y-49605461D01*
X95022139Y-49828316D01*
X95197243Y-50090377D01*
X95317854Y-50381557D01*
X95379340Y-50690672D01*
X95379340Y-51005848D01*
X95317854Y-51314963D01*
X95197243Y-51606143D01*
X95022139Y-51868204D01*
X94799284Y-52091059D01*
X94537223Y-52266163D01*
X94246043Y-52386774D01*
X93936928Y-52448260D01*
X93621752Y-52448260D01*
X93312637Y-52386774D01*
X93021457Y-52266163D01*
X92759396Y-52091059D01*
X92536541Y-51868204D01*
X92361437Y-51606143D01*
X92240826Y-51314963D01*
X92179340Y-51005848D01*
X92179340Y-50690672D01*
X92240826Y-50381557D01*
X92361437Y-50090377D01*
X92536541Y-49828316D01*
X92759396Y-49605461D01*
X93021457Y-49430357D01*
X93312637Y-49309746D01*
X93621752Y-49248260D01*
X93936928Y-49248260D01*
X94246043Y-49309746D01*
X94246043Y-49309746D01*
G37*
G36*
X28106630Y-48946299D02*
X28266855Y-48994903D01*
X28414520Y-49073831D01*
X28543949Y-49180051D01*
X28650169Y-49309480D01*
X28729097Y-49457145D01*
X28777701Y-49617370D01*
X28794112Y-49784000D01*
X28777701Y-49950630D01*
X28729097Y-50110855D01*
X28650169Y-50258520D01*
X28543949Y-50387949D01*
X28414520Y-50494169D01*
X28266855Y-50573097D01*
X28106630Y-50621701D01*
X27981752Y-50634000D01*
X27898248Y-50634000D01*
X27773370Y-50621701D01*
X27613145Y-50573097D01*
X27465480Y-50494169D01*
X27336051Y-50387949D01*
X27229831Y-50258520D01*
X27150903Y-50110855D01*
X27102299Y-49950630D01*
X27085888Y-49784000D01*
X27102299Y-49617370D01*
X27150903Y-49457145D01*
X27229831Y-49309480D01*
X27336051Y-49180051D01*
X27465480Y-49073831D01*
X27613145Y-48994903D01*
X27773370Y-48946299D01*
X27898248Y-48934000D01*
X27981752Y-48934000D01*
X28106630Y-48946299D01*
X28106630Y-48946299D01*
G37*
G36*
X30646630Y-48946299D02*
X30806855Y-48994903D01*
X30954520Y-49073831D01*
X31083949Y-49180051D01*
X31190169Y-49309480D01*
X31269097Y-49457145D01*
X31317701Y-49617370D01*
X31334112Y-49784000D01*
X31317701Y-49950630D01*
X31269097Y-50110855D01*
X31190169Y-50258520D01*
X31083949Y-50387949D01*
X30954520Y-50494169D01*
X30806855Y-50573097D01*
X30646630Y-50621701D01*
X30521752Y-50634000D01*
X30438248Y-50634000D01*
X30313370Y-50621701D01*
X30153145Y-50573097D01*
X30005480Y-50494169D01*
X29876051Y-50387949D01*
X29769831Y-50258520D01*
X29690903Y-50110855D01*
X29642299Y-49950630D01*
X29625888Y-49784000D01*
X29642299Y-49617370D01*
X29690903Y-49457145D01*
X29769831Y-49309480D01*
X29876051Y-49180051D01*
X30005480Y-49073831D01*
X30153145Y-48994903D01*
X30313370Y-48946299D01*
X30438248Y-48934000D01*
X30521752Y-48934000D01*
X30646630Y-48946299D01*
X30646630Y-48946299D01*
G37*
G36*
X14725765Y-46760403D02*
X14848445Y-46784805D01*
X15079571Y-46880541D01*
X15287581Y-47019529D01*
X15464471Y-47196419D01*
X15464473Y-47196422D01*
X15603459Y-47404429D01*
X15699195Y-47635555D01*
X15699195Y-47635557D01*
X15741443Y-47847948D01*
X15748000Y-47880916D01*
X15748000Y-48131084D01*
X15699195Y-48376445D01*
X15603459Y-48607571D01*
X15464471Y-48815581D01*
X15287581Y-48992471D01*
X15287578Y-48992473D01*
X15079571Y-49131459D01*
X14848445Y-49227195D01*
X14742543Y-49248260D01*
X14603086Y-49276000D01*
X14352914Y-49276000D01*
X14213457Y-49248260D01*
X14107555Y-49227195D01*
X13876429Y-49131459D01*
X13668422Y-48992473D01*
X13668419Y-48992471D01*
X13491529Y-48815581D01*
X13352541Y-48607571D01*
X13256805Y-48376445D01*
X13208000Y-48131084D01*
X13208000Y-47880916D01*
X13214558Y-47847948D01*
X13256805Y-47635557D01*
X13256805Y-47635555D01*
X13352541Y-47404429D01*
X13491527Y-47196422D01*
X13491529Y-47196419D01*
X13668419Y-47019529D01*
X13876429Y-46880541D01*
X14107555Y-46784805D01*
X14230235Y-46760403D01*
X14352914Y-46736000D01*
X14603086Y-46736000D01*
X14725765Y-46760403D01*
X14725765Y-46760403D01*
G37*
G36*
X30646630Y-46406299D02*
X30806855Y-46454903D01*
X30954520Y-46533831D01*
X31083949Y-46640051D01*
X31190169Y-46769480D01*
X31269097Y-46917145D01*
X31317701Y-47077370D01*
X31334112Y-47244000D01*
X31317701Y-47410630D01*
X31269097Y-47570855D01*
X31190169Y-47718520D01*
X31083949Y-47847949D01*
X30954520Y-47954169D01*
X30806855Y-48033097D01*
X30646630Y-48081701D01*
X30521752Y-48094000D01*
X30438248Y-48094000D01*
X30313370Y-48081701D01*
X30153145Y-48033097D01*
X30005480Y-47954169D01*
X29876051Y-47847949D01*
X29769831Y-47718520D01*
X29690903Y-47570855D01*
X29642299Y-47410630D01*
X29625888Y-47244000D01*
X29642299Y-47077370D01*
X29690903Y-46917145D01*
X29769831Y-46769480D01*
X29876051Y-46640051D01*
X30005480Y-46533831D01*
X30153145Y-46454903D01*
X30313370Y-46406299D01*
X30438248Y-46394000D01*
X30521752Y-46394000D01*
X30646630Y-46406299D01*
X30646630Y-46406299D01*
G37*
G36*
X28106630Y-46406299D02*
X28266855Y-46454903D01*
X28414520Y-46533831D01*
X28543949Y-46640051D01*
X28650169Y-46769480D01*
X28729097Y-46917145D01*
X28777701Y-47077370D01*
X28794112Y-47244000D01*
X28777701Y-47410630D01*
X28729097Y-47570855D01*
X28650169Y-47718520D01*
X28543949Y-47847949D01*
X28414520Y-47954169D01*
X28266855Y-48033097D01*
X28106630Y-48081701D01*
X27981752Y-48094000D01*
X27898248Y-48094000D01*
X27773370Y-48081701D01*
X27613145Y-48033097D01*
X27465480Y-47954169D01*
X27336051Y-47847949D01*
X27229831Y-47718520D01*
X27150903Y-47570855D01*
X27102299Y-47410630D01*
X27085888Y-47244000D01*
X27102299Y-47077370D01*
X27150903Y-46917145D01*
X27229831Y-46769480D01*
X27336051Y-46640051D01*
X27465480Y-46533831D01*
X27613145Y-46454903D01*
X27773370Y-46406299D01*
X27898248Y-46394000D01*
X27981752Y-46394000D01*
X28106630Y-46406299D01*
X28106630Y-46406299D01*
G37*
G36*
X48561522Y-44650039D02*
X48595053Y-44660211D01*
X48625960Y-44676731D01*
X48653043Y-44698957D01*
X48675269Y-44726040D01*
X48691789Y-44756947D01*
X48701961Y-44790478D01*
X48706000Y-44831487D01*
X48706000Y-45610513D01*
X48701961Y-45651522D01*
X48691789Y-45685053D01*
X48675269Y-45715960D01*
X48653043Y-45743043D01*
X48625960Y-45765269D01*
X48595053Y-45781789D01*
X48561522Y-45791961D01*
X48520513Y-45796000D01*
X47491487Y-45796000D01*
X47450478Y-45791961D01*
X47416947Y-45781789D01*
X47386040Y-45765269D01*
X47358957Y-45743043D01*
X47336731Y-45715960D01*
X47320211Y-45685053D01*
X47310039Y-45651522D01*
X47306000Y-45610513D01*
X47306000Y-44831487D01*
X47310039Y-44790478D01*
X47320211Y-44756947D01*
X47336731Y-44726040D01*
X47358957Y-44698957D01*
X47386040Y-44676731D01*
X47416947Y-44660211D01*
X47450478Y-44650039D01*
X47491487Y-44646000D01*
X48520513Y-44646000D01*
X48561522Y-44650039D01*
X48561522Y-44650039D01*
G37*
G36*
X28106630Y-43866299D02*
X28266855Y-43914903D01*
X28414520Y-43993831D01*
X28543949Y-44100051D01*
X28650169Y-44229480D01*
X28729097Y-44377145D01*
X28777701Y-44537370D01*
X28794112Y-44704000D01*
X28777701Y-44870630D01*
X28729097Y-45030855D01*
X28650169Y-45178520D01*
X28543949Y-45307949D01*
X28414520Y-45414169D01*
X28266855Y-45493097D01*
X28106630Y-45541701D01*
X27981752Y-45554000D01*
X27898248Y-45554000D01*
X27773370Y-45541701D01*
X27613145Y-45493097D01*
X27465480Y-45414169D01*
X27336051Y-45307949D01*
X27229831Y-45178520D01*
X27150903Y-45030855D01*
X27102299Y-44870630D01*
X27085888Y-44704000D01*
X27102299Y-44537370D01*
X27150903Y-44377145D01*
X27229831Y-44229480D01*
X27336051Y-44100051D01*
X27465480Y-43993831D01*
X27613145Y-43914903D01*
X27773370Y-43866299D01*
X27898248Y-43854000D01*
X27981752Y-43854000D01*
X28106630Y-43866299D01*
X28106630Y-43866299D01*
G37*
G36*
X30646630Y-43866299D02*
X30806855Y-43914903D01*
X30954520Y-43993831D01*
X31083949Y-44100051D01*
X31190169Y-44229480D01*
X31269097Y-44377145D01*
X31317701Y-44537370D01*
X31334112Y-44704000D01*
X31317701Y-44870630D01*
X31269097Y-45030855D01*
X31190169Y-45178520D01*
X31083949Y-45307949D01*
X30954520Y-45414169D01*
X30806855Y-45493097D01*
X30646630Y-45541701D01*
X30521752Y-45554000D01*
X30438248Y-45554000D01*
X30313370Y-45541701D01*
X30153145Y-45493097D01*
X30005480Y-45414169D01*
X29876051Y-45307949D01*
X29769831Y-45178520D01*
X29690903Y-45030855D01*
X29642299Y-44870630D01*
X29625888Y-44704000D01*
X29642299Y-44537370D01*
X29690903Y-44377145D01*
X29769831Y-44229480D01*
X29876051Y-44100051D01*
X30005480Y-43993831D01*
X30153145Y-43914903D01*
X30313370Y-43866299D01*
X30438248Y-43854000D01*
X30521752Y-43854000D01*
X30646630Y-43866299D01*
X30646630Y-43866299D01*
G37*
G36*
X14725765Y-41760403D02*
X14848445Y-41784805D01*
X15079571Y-41880541D01*
X15287581Y-42019529D01*
X15464471Y-42196419D01*
X15464473Y-42196422D01*
X15603459Y-42404429D01*
X15699195Y-42635555D01*
X15723597Y-42758235D01*
X15748000Y-42880914D01*
X15748000Y-43131086D01*
X15723597Y-43253765D01*
X15699195Y-43376445D01*
X15629471Y-43544773D01*
X15603459Y-43607571D01*
X15464471Y-43815581D01*
X15287581Y-43992471D01*
X15287578Y-43992473D01*
X15079571Y-44131459D01*
X14848445Y-44227195D01*
X14725764Y-44251598D01*
X14603086Y-44276000D01*
X14352914Y-44276000D01*
X14230236Y-44251598D01*
X14107555Y-44227195D01*
X13876429Y-44131459D01*
X13668422Y-43992473D01*
X13668419Y-43992471D01*
X13491529Y-43815581D01*
X13352541Y-43607571D01*
X13326529Y-43544773D01*
X13256805Y-43376445D01*
X13232403Y-43253765D01*
X13208000Y-43131086D01*
X13208000Y-42880914D01*
X13232402Y-42758236D01*
X13256805Y-42635555D01*
X13352541Y-42404429D01*
X13491527Y-42196422D01*
X13491529Y-42196419D01*
X13668419Y-42019529D01*
X13876429Y-41880541D01*
X14107555Y-41784805D01*
X14230235Y-41760403D01*
X14352914Y-41736000D01*
X14603086Y-41736000D01*
X14725765Y-41760403D01*
X14725765Y-41760403D01*
G37*
G36*
X96523085Y-42531202D02*
X96650203Y-42583856D01*
X96764611Y-42660301D01*
X96861899Y-42757589D01*
X96938344Y-42871997D01*
X96990998Y-42999115D01*
X97017840Y-43134062D01*
X97017840Y-43271658D01*
X96990998Y-43406605D01*
X96938344Y-43533723D01*
X96861899Y-43648131D01*
X96764611Y-43745419D01*
X96650203Y-43821864D01*
X96523085Y-43874518D01*
X96388138Y-43901360D01*
X96250542Y-43901360D01*
X96115595Y-43874518D01*
X95988477Y-43821864D01*
X95874069Y-43745419D01*
X95776781Y-43648131D01*
X95700336Y-43533723D01*
X95647682Y-43406605D01*
X95620840Y-43271658D01*
X95620840Y-43134062D01*
X95647682Y-42999115D01*
X95700336Y-42871997D01*
X95776781Y-42757589D01*
X95874069Y-42660301D01*
X95988477Y-42583856D01*
X96115595Y-42531202D01*
X96250542Y-42504360D01*
X96388138Y-42504360D01*
X96523085Y-42531202D01*
X96523085Y-42531202D01*
G37*
G36*
X91443085Y-42531202D02*
X91570203Y-42583856D01*
X91684611Y-42660301D01*
X91781899Y-42757589D01*
X91858344Y-42871997D01*
X91910998Y-42999115D01*
X91937840Y-43134062D01*
X91937840Y-43271658D01*
X91910998Y-43406605D01*
X91858344Y-43533723D01*
X91781899Y-43648131D01*
X91684611Y-43745419D01*
X91570203Y-43821864D01*
X91443085Y-43874518D01*
X91308138Y-43901360D01*
X91170542Y-43901360D01*
X91035595Y-43874518D01*
X90908477Y-43821864D01*
X90794069Y-43745419D01*
X90696781Y-43648131D01*
X90620336Y-43533723D01*
X90567682Y-43406605D01*
X90540840Y-43271658D01*
X90540840Y-43134062D01*
X90567682Y-42999115D01*
X90620336Y-42871997D01*
X90696781Y-42757589D01*
X90794069Y-42660301D01*
X90908477Y-42583856D01*
X91035595Y-42531202D01*
X91170542Y-42504360D01*
X91308138Y-42504360D01*
X91443085Y-42531202D01*
X91443085Y-42531202D01*
G37*
G36*
X81701522Y-42484039D02*
X81735053Y-42494211D01*
X81765960Y-42510731D01*
X81793043Y-42532957D01*
X81815269Y-42560040D01*
X81831789Y-42590947D01*
X81841961Y-42624478D01*
X81846000Y-42665487D01*
X81846000Y-43694513D01*
X81841961Y-43735522D01*
X81831789Y-43769053D01*
X81815269Y-43799960D01*
X81793043Y-43827043D01*
X81765960Y-43849269D01*
X81735053Y-43865789D01*
X81701522Y-43875961D01*
X81660513Y-43880000D01*
X80881487Y-43880000D01*
X80840478Y-43875961D01*
X80806947Y-43865789D01*
X80776040Y-43849269D01*
X80748957Y-43827043D01*
X80726731Y-43799960D01*
X80710211Y-43769053D01*
X80700039Y-43735522D01*
X80696000Y-43694513D01*
X80696000Y-42665487D01*
X80700039Y-42624478D01*
X80710211Y-42590947D01*
X80726731Y-42560040D01*
X80748957Y-42532957D01*
X80776040Y-42510731D01*
X80806947Y-42494211D01*
X80840478Y-42484039D01*
X80881487Y-42480000D01*
X81660513Y-42480000D01*
X81701522Y-42484039D01*
X81701522Y-42484039D01*
G37*
G36*
X83751522Y-42484039D02*
X83785053Y-42494211D01*
X83815960Y-42510731D01*
X83843043Y-42532957D01*
X83865269Y-42560040D01*
X83881789Y-42590947D01*
X83891961Y-42624478D01*
X83896000Y-42665487D01*
X83896000Y-43694513D01*
X83891961Y-43735522D01*
X83881789Y-43769053D01*
X83865269Y-43799960D01*
X83843043Y-43827043D01*
X83815960Y-43849269D01*
X83785053Y-43865789D01*
X83751522Y-43875961D01*
X83710513Y-43880000D01*
X82931487Y-43880000D01*
X82890478Y-43875961D01*
X82856947Y-43865789D01*
X82826040Y-43849269D01*
X82798957Y-43827043D01*
X82776731Y-43799960D01*
X82760211Y-43769053D01*
X82750039Y-43735522D01*
X82746000Y-43694513D01*
X82746000Y-42665487D01*
X82750039Y-42624478D01*
X82760211Y-42590947D01*
X82776731Y-42560040D01*
X82798957Y-42532957D01*
X82826040Y-42510731D01*
X82856947Y-42494211D01*
X82890478Y-42484039D01*
X82931487Y-42480000D01*
X83710513Y-42480000D01*
X83751522Y-42484039D01*
X83751522Y-42484039D01*
G37*
G36*
X48561522Y-42600039D02*
X48595053Y-42610211D01*
X48625960Y-42626731D01*
X48653043Y-42648957D01*
X48675269Y-42676040D01*
X48691789Y-42706947D01*
X48701961Y-42740478D01*
X48706000Y-42781487D01*
X48706000Y-43560513D01*
X48701961Y-43601522D01*
X48691789Y-43635053D01*
X48675269Y-43665960D01*
X48653043Y-43693043D01*
X48625960Y-43715269D01*
X48595053Y-43731789D01*
X48561522Y-43741961D01*
X48520513Y-43746000D01*
X47491487Y-43746000D01*
X47450478Y-43741961D01*
X47416947Y-43731789D01*
X47386040Y-43715269D01*
X47358957Y-43693043D01*
X47336731Y-43665960D01*
X47320211Y-43635053D01*
X47310039Y-43601522D01*
X47306000Y-43560513D01*
X47306000Y-42781487D01*
X47310039Y-42740478D01*
X47320211Y-42706947D01*
X47336731Y-42676040D01*
X47358957Y-42648957D01*
X47386040Y-42626731D01*
X47416947Y-42610211D01*
X47450478Y-42600039D01*
X47491487Y-42596000D01*
X48520513Y-42596000D01*
X48561522Y-42600039D01*
X48561522Y-42600039D01*
G37*
G36*
X93983085Y-41388202D02*
X94110203Y-41440856D01*
X94224611Y-41517301D01*
X94321899Y-41614589D01*
X94398344Y-41728997D01*
X94450998Y-41856115D01*
X94477840Y-41991062D01*
X94477840Y-42128658D01*
X94450998Y-42263605D01*
X94398344Y-42390723D01*
X94321899Y-42505131D01*
X94224611Y-42602419D01*
X94110203Y-42678864D01*
X93983085Y-42731518D01*
X93848138Y-42758360D01*
X93710542Y-42758360D01*
X93575595Y-42731518D01*
X93448477Y-42678864D01*
X93334069Y-42602419D01*
X93236781Y-42505131D01*
X93160336Y-42390723D01*
X93107682Y-42263605D01*
X93080840Y-42128658D01*
X93080840Y-41991062D01*
X93107682Y-41856115D01*
X93160336Y-41728997D01*
X93236781Y-41614589D01*
X93334069Y-41517301D01*
X93448477Y-41440856D01*
X93575595Y-41388202D01*
X93710542Y-41361360D01*
X93848138Y-41361360D01*
X93983085Y-41388202D01*
X93983085Y-41388202D01*
G37*
G36*
X91443085Y-40242662D02*
X91570203Y-40295316D01*
X91684611Y-40371761D01*
X91781899Y-40469049D01*
X91858344Y-40583457D01*
X91910998Y-40710575D01*
X91937840Y-40845522D01*
X91937840Y-40983118D01*
X91910998Y-41118065D01*
X91858344Y-41245183D01*
X91781899Y-41359591D01*
X91684611Y-41456879D01*
X91570203Y-41533324D01*
X91443085Y-41585978D01*
X91308138Y-41612820D01*
X91170542Y-41612820D01*
X91035595Y-41585978D01*
X90908477Y-41533324D01*
X90794069Y-41456879D01*
X90696781Y-41359591D01*
X90620336Y-41245183D01*
X90567682Y-41118065D01*
X90540840Y-40983118D01*
X90540840Y-40845522D01*
X90567682Y-40710575D01*
X90620336Y-40583457D01*
X90696781Y-40469049D01*
X90794069Y-40371761D01*
X90908477Y-40295316D01*
X91035595Y-40242662D01*
X91170542Y-40215820D01*
X91308138Y-40215820D01*
X91443085Y-40242662D01*
X91443085Y-40242662D01*
G37*
G36*
X96523085Y-40242662D02*
X96650203Y-40295316D01*
X96764611Y-40371761D01*
X96861899Y-40469049D01*
X96938344Y-40583457D01*
X96990998Y-40710575D01*
X97017840Y-40845522D01*
X97017840Y-40983118D01*
X96990998Y-41118065D01*
X96938344Y-41245183D01*
X96861899Y-41359591D01*
X96764611Y-41456879D01*
X96650203Y-41533324D01*
X96523085Y-41585978D01*
X96388138Y-41612820D01*
X96250542Y-41612820D01*
X96115595Y-41585978D01*
X95988477Y-41533324D01*
X95874069Y-41456879D01*
X95776781Y-41359591D01*
X95700336Y-41245183D01*
X95647682Y-41118065D01*
X95620840Y-40983118D01*
X95620840Y-40845522D01*
X95647682Y-40710575D01*
X95700336Y-40583457D01*
X95776781Y-40469049D01*
X95874069Y-40371761D01*
X95988477Y-40295316D01*
X96115595Y-40242662D01*
X96250542Y-40215820D01*
X96388138Y-40215820D01*
X96523085Y-40242662D01*
X96523085Y-40242662D01*
G37*
G36*
X83751522Y-40198039D02*
X83785053Y-40208211D01*
X83815960Y-40224731D01*
X83843043Y-40246957D01*
X83865269Y-40274040D01*
X83881789Y-40304947D01*
X83891961Y-40338478D01*
X83896000Y-40379487D01*
X83896000Y-41408513D01*
X83891961Y-41449522D01*
X83881789Y-41483053D01*
X83865269Y-41513960D01*
X83843043Y-41541043D01*
X83815960Y-41563269D01*
X83785053Y-41579789D01*
X83751522Y-41589961D01*
X83710513Y-41594000D01*
X82931487Y-41594000D01*
X82890478Y-41589961D01*
X82856947Y-41579789D01*
X82826040Y-41563269D01*
X82798957Y-41541043D01*
X82776731Y-41513960D01*
X82760211Y-41483053D01*
X82750039Y-41449522D01*
X82746000Y-41408513D01*
X82746000Y-40379487D01*
X82750039Y-40338478D01*
X82760211Y-40304947D01*
X82776731Y-40274040D01*
X82798957Y-40246957D01*
X82826040Y-40224731D01*
X82856947Y-40208211D01*
X82890478Y-40198039D01*
X82931487Y-40194000D01*
X83710513Y-40194000D01*
X83751522Y-40198039D01*
X83751522Y-40198039D01*
G37*
G36*
X81701522Y-40198039D02*
X81735053Y-40208211D01*
X81765960Y-40224731D01*
X81793043Y-40246957D01*
X81815269Y-40274040D01*
X81831789Y-40304947D01*
X81841961Y-40338478D01*
X81846000Y-40379487D01*
X81846000Y-41408513D01*
X81841961Y-41449522D01*
X81831789Y-41483053D01*
X81815269Y-41513960D01*
X81793043Y-41541043D01*
X81765960Y-41563269D01*
X81735053Y-41579789D01*
X81701522Y-41589961D01*
X81660513Y-41594000D01*
X80881487Y-41594000D01*
X80840478Y-41589961D01*
X80806947Y-41579789D01*
X80776040Y-41563269D01*
X80748957Y-41541043D01*
X80726731Y-41513960D01*
X80710211Y-41483053D01*
X80700039Y-41449522D01*
X80696000Y-41408513D01*
X80696000Y-40379487D01*
X80700039Y-40338478D01*
X80710211Y-40304947D01*
X80726731Y-40274040D01*
X80748957Y-40246957D01*
X80776040Y-40224731D01*
X80806947Y-40208211D01*
X80840478Y-40198039D01*
X80881487Y-40194000D01*
X81660513Y-40194000D01*
X81701522Y-40198039D01*
X81701522Y-40198039D01*
G37*
G36*
X30411522Y-39690039D02*
X30445053Y-39700211D01*
X30475960Y-39716731D01*
X30503043Y-39738957D01*
X30525269Y-39766040D01*
X30541789Y-39796947D01*
X30551961Y-39830478D01*
X30556000Y-39871487D01*
X30556000Y-40900513D01*
X30551961Y-40941522D01*
X30541789Y-40975053D01*
X30525269Y-41005960D01*
X30503043Y-41033043D01*
X30475960Y-41055269D01*
X30445053Y-41071789D01*
X30411522Y-41081961D01*
X30370513Y-41086000D01*
X29591487Y-41086000D01*
X29550478Y-41081961D01*
X29516947Y-41071789D01*
X29486040Y-41055269D01*
X29458957Y-41033043D01*
X29436731Y-41005960D01*
X29420211Y-40975053D01*
X29410039Y-40941522D01*
X29406000Y-40900513D01*
X29406000Y-39871487D01*
X29410039Y-39830478D01*
X29420211Y-39796947D01*
X29436731Y-39766040D01*
X29458957Y-39738957D01*
X29486040Y-39716731D01*
X29516947Y-39700211D01*
X29550478Y-39690039D01*
X29591487Y-39686000D01*
X30370513Y-39686000D01*
X30411522Y-39690039D01*
X30411522Y-39690039D01*
G37*
G36*
X28361522Y-39690039D02*
X28395053Y-39700211D01*
X28425960Y-39716731D01*
X28453043Y-39738957D01*
X28475269Y-39766040D01*
X28491789Y-39796947D01*
X28501961Y-39830478D01*
X28506000Y-39871487D01*
X28506000Y-40900513D01*
X28501961Y-40941522D01*
X28491789Y-40975053D01*
X28475269Y-41005960D01*
X28453043Y-41033043D01*
X28425960Y-41055269D01*
X28395053Y-41071789D01*
X28361522Y-41081961D01*
X28320513Y-41086000D01*
X27541487Y-41086000D01*
X27500478Y-41081961D01*
X27466947Y-41071789D01*
X27436040Y-41055269D01*
X27408957Y-41033043D01*
X27386731Y-41005960D01*
X27370211Y-40975053D01*
X27360039Y-40941522D01*
X27356000Y-40900513D01*
X27356000Y-39871487D01*
X27360039Y-39830478D01*
X27370211Y-39796947D01*
X27386731Y-39766040D01*
X27408957Y-39738957D01*
X27436040Y-39716731D01*
X27466947Y-39700211D01*
X27500478Y-39690039D01*
X27541487Y-39686000D01*
X28320513Y-39686000D01*
X28361522Y-39690039D01*
X28361522Y-39690039D01*
G37*
G36*
X93983085Y-39097122D02*
X94110203Y-39149776D01*
X94224611Y-39226221D01*
X94321899Y-39323509D01*
X94398344Y-39437917D01*
X94450998Y-39565035D01*
X94477840Y-39699982D01*
X94477840Y-39837578D01*
X94450998Y-39972525D01*
X94398344Y-40099643D01*
X94321899Y-40214051D01*
X94224611Y-40311339D01*
X94110203Y-40387784D01*
X93983085Y-40440438D01*
X93848138Y-40467280D01*
X93710542Y-40467280D01*
X93575595Y-40440438D01*
X93448477Y-40387784D01*
X93334069Y-40311339D01*
X93236781Y-40214051D01*
X93160336Y-40099643D01*
X93107682Y-39972525D01*
X93080840Y-39837578D01*
X93080840Y-39699982D01*
X93107682Y-39565035D01*
X93160336Y-39437917D01*
X93236781Y-39323509D01*
X93334069Y-39226221D01*
X93448477Y-39149776D01*
X93575595Y-39097122D01*
X93710542Y-39070280D01*
X93848138Y-39070280D01*
X93983085Y-39097122D01*
X93983085Y-39097122D01*
G37*
G36*
X96520545Y-37951582D02*
X96647663Y-38004236D01*
X96762071Y-38080681D01*
X96859359Y-38177969D01*
X96935804Y-38292377D01*
X96988458Y-38419495D01*
X97015300Y-38554442D01*
X97015300Y-38692038D01*
X96988458Y-38826985D01*
X96935804Y-38954103D01*
X96859359Y-39068511D01*
X96762071Y-39165799D01*
X96647663Y-39242244D01*
X96520545Y-39294898D01*
X96385598Y-39321740D01*
X96248002Y-39321740D01*
X96113055Y-39294898D01*
X95985937Y-39242244D01*
X95871529Y-39165799D01*
X95774241Y-39068511D01*
X95697796Y-38954103D01*
X95645142Y-38826985D01*
X95618300Y-38692038D01*
X95618300Y-38554442D01*
X95645142Y-38419495D01*
X95697796Y-38292377D01*
X95774241Y-38177969D01*
X95871529Y-38080681D01*
X95985937Y-38004236D01*
X96113055Y-37951582D01*
X96248002Y-37924740D01*
X96385598Y-37924740D01*
X96520545Y-37951582D01*
X96520545Y-37951582D01*
G37*
G36*
X91443085Y-37949042D02*
X91570203Y-38001696D01*
X91684611Y-38078141D01*
X91781899Y-38175429D01*
X91858344Y-38289837D01*
X91910998Y-38416955D01*
X91937840Y-38551902D01*
X91937840Y-38689498D01*
X91910998Y-38824445D01*
X91858344Y-38951563D01*
X91781899Y-39065971D01*
X91684611Y-39163259D01*
X91570203Y-39239704D01*
X91443085Y-39292358D01*
X91308138Y-39319200D01*
X91170542Y-39319200D01*
X91035595Y-39292358D01*
X90908477Y-39239704D01*
X90794069Y-39163259D01*
X90696781Y-39065971D01*
X90620336Y-38951563D01*
X90567682Y-38824445D01*
X90540840Y-38689498D01*
X90540840Y-38551902D01*
X90567682Y-38416955D01*
X90620336Y-38289837D01*
X90696781Y-38175429D01*
X90794069Y-38078141D01*
X90908477Y-38001696D01*
X91035595Y-37949042D01*
X91170542Y-37922200D01*
X91308138Y-37922200D01*
X91443085Y-37949042D01*
X91443085Y-37949042D01*
G37*
G36*
X81701522Y-37912039D02*
X81735053Y-37922211D01*
X81765960Y-37938731D01*
X81793043Y-37960957D01*
X81815269Y-37988040D01*
X81831789Y-38018947D01*
X81841961Y-38052478D01*
X81846000Y-38093487D01*
X81846000Y-39122513D01*
X81841961Y-39163522D01*
X81831789Y-39197053D01*
X81815269Y-39227960D01*
X81793043Y-39255043D01*
X81765960Y-39277269D01*
X81735053Y-39293789D01*
X81701522Y-39303961D01*
X81660513Y-39308000D01*
X80881487Y-39308000D01*
X80840478Y-39303961D01*
X80806947Y-39293789D01*
X80776040Y-39277269D01*
X80748957Y-39255043D01*
X80726731Y-39227960D01*
X80710211Y-39197053D01*
X80700039Y-39163522D01*
X80696000Y-39122513D01*
X80696000Y-38093487D01*
X80700039Y-38052478D01*
X80710211Y-38018947D01*
X80726731Y-37988040D01*
X80748957Y-37960957D01*
X80776040Y-37938731D01*
X80806947Y-37922211D01*
X80840478Y-37912039D01*
X80881487Y-37908000D01*
X81660513Y-37908000D01*
X81701522Y-37912039D01*
X81701522Y-37912039D01*
G37*
G36*
X83751522Y-37912039D02*
X83785053Y-37922211D01*
X83815960Y-37938731D01*
X83843043Y-37960957D01*
X83865269Y-37988040D01*
X83881789Y-38018947D01*
X83891961Y-38052478D01*
X83896000Y-38093487D01*
X83896000Y-39122513D01*
X83891961Y-39163522D01*
X83881789Y-39197053D01*
X83865269Y-39227960D01*
X83843043Y-39255043D01*
X83815960Y-39277269D01*
X83785053Y-39293789D01*
X83751522Y-39303961D01*
X83710513Y-39308000D01*
X82931487Y-39308000D01*
X82890478Y-39303961D01*
X82856947Y-39293789D01*
X82826040Y-39277269D01*
X82798957Y-39255043D01*
X82776731Y-39227960D01*
X82760211Y-39197053D01*
X82750039Y-39163522D01*
X82746000Y-39122513D01*
X82746000Y-38093487D01*
X82750039Y-38052478D01*
X82760211Y-38018947D01*
X82776731Y-37988040D01*
X82798957Y-37960957D01*
X82826040Y-37938731D01*
X82856947Y-37922211D01*
X82890478Y-37912039D01*
X82931487Y-37908000D01*
X83710513Y-37908000D01*
X83751522Y-37912039D01*
X83751522Y-37912039D01*
G37*
G36*
X93983085Y-36808582D02*
X94110203Y-36861236D01*
X94224611Y-36937681D01*
X94321899Y-37034969D01*
X94398344Y-37149377D01*
X94450998Y-37276495D01*
X94477840Y-37411442D01*
X94477840Y-37549038D01*
X94450998Y-37683985D01*
X94398344Y-37811103D01*
X94321899Y-37925511D01*
X94224611Y-38022799D01*
X94110203Y-38099244D01*
X93983085Y-38151898D01*
X93848138Y-38178740D01*
X93710542Y-38178740D01*
X93575595Y-38151898D01*
X93448477Y-38099244D01*
X93334069Y-38022799D01*
X93236781Y-37925511D01*
X93160336Y-37811103D01*
X93107682Y-37683985D01*
X93080840Y-37549038D01*
X93080840Y-37411442D01*
X93107682Y-37276495D01*
X93160336Y-37149377D01*
X93236781Y-37034969D01*
X93334069Y-36937681D01*
X93448477Y-36861236D01*
X93575595Y-36808582D01*
X93710542Y-36781740D01*
X93848138Y-36781740D01*
X93983085Y-36808582D01*
X93983085Y-36808582D01*
G37*
G36*
X22476030Y-35999469D02*
X22476033Y-35999470D01*
X22476034Y-35999470D01*
X22664535Y-36056651D01*
X22664537Y-36056652D01*
X22838260Y-36149509D01*
X22990528Y-36274472D01*
X23115491Y-36426740D01*
X23115492Y-36426742D01*
X23208349Y-36600465D01*
X23260384Y-36772001D01*
X23265531Y-36788970D01*
X23284838Y-36985000D01*
X23265531Y-37181030D01*
X23208348Y-37369537D01*
X23115491Y-37543260D01*
X22990528Y-37695528D01*
X22838260Y-37820491D01*
X22838258Y-37820492D01*
X22664535Y-37913349D01*
X22476034Y-37970530D01*
X22476033Y-37970530D01*
X22476030Y-37970531D01*
X22329124Y-37985000D01*
X19630876Y-37985000D01*
X19483970Y-37970531D01*
X19483967Y-37970530D01*
X19483966Y-37970530D01*
X19295465Y-37913349D01*
X19121742Y-37820492D01*
X19121740Y-37820491D01*
X18969472Y-37695528D01*
X18844509Y-37543260D01*
X18751652Y-37369537D01*
X18694469Y-37181030D01*
X18675162Y-36985000D01*
X18694469Y-36788970D01*
X18699616Y-36772001D01*
X18751651Y-36600465D01*
X18844508Y-36426742D01*
X18844509Y-36426740D01*
X18969472Y-36274472D01*
X19121740Y-36149509D01*
X19295463Y-36056652D01*
X19295465Y-36056651D01*
X19483966Y-35999470D01*
X19483967Y-35999470D01*
X19483970Y-35999469D01*
X19630876Y-35985000D01*
X22329124Y-35985000D01*
X22476030Y-35999469D01*
X22476030Y-35999469D01*
G37*
G36*
X48348000Y-37680000D02*
X46648000Y-37680000D01*
X46648000Y-35980000D01*
X48348000Y-35980000D01*
X48348000Y-37680000D01*
X48348000Y-37680000D01*
G37*
G36*
X91443085Y-35663042D02*
X91570203Y-35715696D01*
X91684611Y-35792141D01*
X91781899Y-35889429D01*
X91858344Y-36003837D01*
X91910998Y-36130955D01*
X91937840Y-36265902D01*
X91937840Y-36403498D01*
X91910998Y-36538445D01*
X91858344Y-36665563D01*
X91781899Y-36779971D01*
X91684611Y-36877259D01*
X91570203Y-36953704D01*
X91443085Y-37006358D01*
X91308138Y-37033200D01*
X91170542Y-37033200D01*
X91035595Y-37006358D01*
X90908477Y-36953704D01*
X90794069Y-36877259D01*
X90696781Y-36779971D01*
X90620336Y-36665563D01*
X90567682Y-36538445D01*
X90540840Y-36403498D01*
X90540840Y-36265902D01*
X90567682Y-36130955D01*
X90620336Y-36003837D01*
X90696781Y-35889429D01*
X90794069Y-35792141D01*
X90908477Y-35715696D01*
X91035595Y-35663042D01*
X91170542Y-35636200D01*
X91308138Y-35636200D01*
X91443085Y-35663042D01*
X91443085Y-35663042D01*
G37*
G36*
X96523085Y-35663042D02*
X96650203Y-35715696D01*
X96764611Y-35792141D01*
X96861899Y-35889429D01*
X96938344Y-36003837D01*
X96990998Y-36130955D01*
X97017840Y-36265902D01*
X97017840Y-36403498D01*
X96990998Y-36538445D01*
X96938344Y-36665563D01*
X96861899Y-36779971D01*
X96764611Y-36877259D01*
X96650203Y-36953704D01*
X96523085Y-37006358D01*
X96388138Y-37033200D01*
X96250542Y-37033200D01*
X96115595Y-37006358D01*
X95988477Y-36953704D01*
X95874069Y-36877259D01*
X95776781Y-36779971D01*
X95700336Y-36665563D01*
X95647682Y-36538445D01*
X95620840Y-36403498D01*
X95620840Y-36265902D01*
X95647682Y-36130955D01*
X95700336Y-36003837D01*
X95776781Y-35889429D01*
X95874069Y-35792141D01*
X95988477Y-35715696D01*
X96115595Y-35663042D01*
X96250542Y-35636200D01*
X96388138Y-35636200D01*
X96523085Y-35663042D01*
X96523085Y-35663042D01*
G37*
G36*
X81701522Y-35626039D02*
X81735053Y-35636211D01*
X81765960Y-35652731D01*
X81793043Y-35674957D01*
X81815269Y-35702040D01*
X81831789Y-35732947D01*
X81841961Y-35766478D01*
X81846000Y-35807487D01*
X81846000Y-36836513D01*
X81841961Y-36877522D01*
X81831789Y-36911053D01*
X81815269Y-36941960D01*
X81793043Y-36969043D01*
X81765960Y-36991269D01*
X81735053Y-37007789D01*
X81701522Y-37017961D01*
X81660513Y-37022000D01*
X80881487Y-37022000D01*
X80840478Y-37017961D01*
X80806947Y-37007789D01*
X80776040Y-36991269D01*
X80748957Y-36969043D01*
X80726731Y-36941960D01*
X80710211Y-36911053D01*
X80700039Y-36877522D01*
X80696000Y-36836513D01*
X80696000Y-35807487D01*
X80700039Y-35766478D01*
X80710211Y-35732947D01*
X80726731Y-35702040D01*
X80748957Y-35674957D01*
X80776040Y-35652731D01*
X80806947Y-35636211D01*
X80840478Y-35626039D01*
X80881487Y-35622000D01*
X81660513Y-35622000D01*
X81701522Y-35626039D01*
X81701522Y-35626039D01*
G37*
G36*
X83751522Y-35626039D02*
X83785053Y-35636211D01*
X83815960Y-35652731D01*
X83843043Y-35674957D01*
X83865269Y-35702040D01*
X83881789Y-35732947D01*
X83891961Y-35766478D01*
X83896000Y-35807487D01*
X83896000Y-36836513D01*
X83891961Y-36877522D01*
X83881789Y-36911053D01*
X83865269Y-36941960D01*
X83843043Y-36969043D01*
X83815960Y-36991269D01*
X83785053Y-37007789D01*
X83751522Y-37017961D01*
X83710513Y-37022000D01*
X82931487Y-37022000D01*
X82890478Y-37017961D01*
X82856947Y-37007789D01*
X82826040Y-36991269D01*
X82798957Y-36969043D01*
X82776731Y-36941960D01*
X82760211Y-36911053D01*
X82750039Y-36877522D01*
X82746000Y-36836513D01*
X82746000Y-35807487D01*
X82750039Y-35766478D01*
X82760211Y-35732947D01*
X82776731Y-35702040D01*
X82798957Y-35674957D01*
X82826040Y-35652731D01*
X82856947Y-35636211D01*
X82890478Y-35626039D01*
X82931487Y-35622000D01*
X83710513Y-35622000D01*
X83751522Y-35626039D01*
X83751522Y-35626039D01*
G37*
G36*
X44426964Y-34560837D02*
X44458528Y-34570412D01*
X44487617Y-34585960D01*
X44513114Y-34606886D01*
X44534040Y-34632383D01*
X44549588Y-34661472D01*
X44559163Y-34693036D01*
X44563000Y-34731998D01*
X44563000Y-35807002D01*
X44559163Y-35845964D01*
X44549588Y-35877528D01*
X44534040Y-35906617D01*
X44513114Y-35932114D01*
X44487617Y-35953040D01*
X44458528Y-35968588D01*
X44426964Y-35978163D01*
X44388002Y-35982000D01*
X42987998Y-35982000D01*
X42949036Y-35978163D01*
X42917472Y-35968588D01*
X42888383Y-35953040D01*
X42862886Y-35932114D01*
X42841960Y-35906617D01*
X42826412Y-35877528D01*
X42816837Y-35845964D01*
X42813000Y-35807002D01*
X42813000Y-34731998D01*
X42816837Y-34693036D01*
X42826412Y-34661472D01*
X42841960Y-34632383D01*
X42862886Y-34606886D01*
X42888383Y-34585960D01*
X42917472Y-34570412D01*
X42949036Y-34560837D01*
X42987998Y-34557000D01*
X44388002Y-34557000D01*
X44426964Y-34560837D01*
X44426964Y-34560837D01*
G37*
G36*
X93983085Y-34517502D02*
X94110203Y-34570156D01*
X94224611Y-34646601D01*
X94321899Y-34743889D01*
X94398344Y-34858297D01*
X94450998Y-34985415D01*
X94477840Y-35120362D01*
X94477840Y-35257958D01*
X94450998Y-35392905D01*
X94398344Y-35520023D01*
X94321899Y-35634431D01*
X94224611Y-35731719D01*
X94110203Y-35808164D01*
X93983085Y-35860818D01*
X93848138Y-35887660D01*
X93710542Y-35887660D01*
X93575595Y-35860818D01*
X93448477Y-35808164D01*
X93334069Y-35731719D01*
X93236781Y-35634431D01*
X93160336Y-35520023D01*
X93107682Y-35392905D01*
X93080840Y-35257958D01*
X93080840Y-35120362D01*
X93107682Y-34985415D01*
X93160336Y-34858297D01*
X93236781Y-34743889D01*
X93334069Y-34646601D01*
X93448477Y-34570156D01*
X93575595Y-34517502D01*
X93710542Y-34490660D01*
X93848138Y-34490660D01*
X93983085Y-34517502D01*
X93983085Y-34517502D01*
G37*
G36*
X58451964Y-33418837D02*
X58483528Y-33428412D01*
X58512617Y-33443960D01*
X58538114Y-33464886D01*
X58559040Y-33490383D01*
X58574588Y-33519472D01*
X58584163Y-33551036D01*
X58588000Y-33589998D01*
X58588000Y-34990002D01*
X58584163Y-35028964D01*
X58574588Y-35060528D01*
X58559040Y-35089617D01*
X58538114Y-35115114D01*
X58512617Y-35136040D01*
X58483528Y-35151588D01*
X58451964Y-35161163D01*
X58413002Y-35165000D01*
X57337998Y-35165000D01*
X57299036Y-35161163D01*
X57267472Y-35151588D01*
X57238383Y-35136040D01*
X57212886Y-35115114D01*
X57191960Y-35089617D01*
X57176412Y-35060528D01*
X57166837Y-35028964D01*
X57163000Y-34990002D01*
X57163000Y-33589998D01*
X57166837Y-33551036D01*
X57176412Y-33519472D01*
X57191960Y-33490383D01*
X57212886Y-33464886D01*
X57238383Y-33443960D01*
X57267472Y-33428412D01*
X57299036Y-33418837D01*
X57337998Y-33415000D01*
X58413002Y-33415000D01*
X58451964Y-33418837D01*
X58451964Y-33418837D01*
G37*
G36*
X55476964Y-33418837D02*
X55508528Y-33428412D01*
X55537617Y-33443960D01*
X55563114Y-33464886D01*
X55584040Y-33490383D01*
X55599588Y-33519472D01*
X55609163Y-33551036D01*
X55613000Y-33589998D01*
X55613000Y-34990002D01*
X55609163Y-35028964D01*
X55599588Y-35060528D01*
X55584040Y-35089617D01*
X55563114Y-35115114D01*
X55537617Y-35136040D01*
X55508528Y-35151588D01*
X55476964Y-35161163D01*
X55438002Y-35165000D01*
X54362998Y-35165000D01*
X54324036Y-35161163D01*
X54292472Y-35151588D01*
X54263383Y-35136040D01*
X54237886Y-35115114D01*
X54216960Y-35089617D01*
X54201412Y-35060528D01*
X54191837Y-35028964D01*
X54188000Y-34990002D01*
X54188000Y-33589998D01*
X54191837Y-33551036D01*
X54201412Y-33519472D01*
X54216960Y-33490383D01*
X54237886Y-33464886D01*
X54263383Y-33443960D01*
X54292472Y-33428412D01*
X54324036Y-33418837D01*
X54362998Y-33415000D01*
X55438002Y-33415000D01*
X55476964Y-33418837D01*
X55476964Y-33418837D01*
G37*
G36*
X47664630Y-33452299D02*
X47824855Y-33500903D01*
X47972520Y-33579831D01*
X48101949Y-33686051D01*
X48208169Y-33815480D01*
X48287097Y-33963145D01*
X48335701Y-34123370D01*
X48352112Y-34290000D01*
X48335701Y-34456630D01*
X48287097Y-34616855D01*
X48208169Y-34764520D01*
X48101949Y-34893949D01*
X47972520Y-35000169D01*
X47824855Y-35079097D01*
X47664630Y-35127701D01*
X47539752Y-35140000D01*
X47456248Y-35140000D01*
X47331370Y-35127701D01*
X47171145Y-35079097D01*
X47023480Y-35000169D01*
X46894051Y-34893949D01*
X46787831Y-34764520D01*
X46708903Y-34616855D01*
X46660299Y-34456630D01*
X46643888Y-34290000D01*
X46660299Y-34123370D01*
X46708903Y-33963145D01*
X46787831Y-33815480D01*
X46894051Y-33686051D01*
X47023480Y-33579831D01*
X47171145Y-33500903D01*
X47331370Y-33452299D01*
X47456248Y-33440000D01*
X47539752Y-33440000D01*
X47664630Y-33452299D01*
X47664630Y-33452299D01*
G37*
G36*
X91443085Y-33371962D02*
X91570203Y-33424616D01*
X91684611Y-33501061D01*
X91781899Y-33598349D01*
X91858344Y-33712757D01*
X91910998Y-33839875D01*
X91937840Y-33974822D01*
X91937840Y-34112418D01*
X91910998Y-34247365D01*
X91858344Y-34374483D01*
X91781899Y-34488891D01*
X91684611Y-34586179D01*
X91570203Y-34662624D01*
X91443085Y-34715278D01*
X91308138Y-34742120D01*
X91170542Y-34742120D01*
X91035595Y-34715278D01*
X90908477Y-34662624D01*
X90794069Y-34586179D01*
X90696781Y-34488891D01*
X90620336Y-34374483D01*
X90567682Y-34247365D01*
X90540840Y-34112418D01*
X90540840Y-33974822D01*
X90567682Y-33839875D01*
X90620336Y-33712757D01*
X90696781Y-33598349D01*
X90794069Y-33501061D01*
X90908477Y-33424616D01*
X91035595Y-33371962D01*
X91170542Y-33345120D01*
X91308138Y-33345120D01*
X91443085Y-33371962D01*
X91443085Y-33371962D01*
G37*
G36*
X96523085Y-33371962D02*
X96650203Y-33424616D01*
X96764611Y-33501061D01*
X96861899Y-33598349D01*
X96938344Y-33712757D01*
X96990998Y-33839875D01*
X97017840Y-33974822D01*
X97017840Y-34112418D01*
X96990998Y-34247365D01*
X96938344Y-34374483D01*
X96861899Y-34488891D01*
X96764611Y-34586179D01*
X96650203Y-34662624D01*
X96523085Y-34715278D01*
X96388138Y-34742120D01*
X96250542Y-34742120D01*
X96115595Y-34715278D01*
X95988477Y-34662624D01*
X95874069Y-34586179D01*
X95776781Y-34488891D01*
X95700336Y-34374483D01*
X95647682Y-34247365D01*
X95620840Y-34112418D01*
X95620840Y-33974822D01*
X95647682Y-33839875D01*
X95700336Y-33712757D01*
X95776781Y-33598349D01*
X95874069Y-33501061D01*
X95988477Y-33424616D01*
X96115595Y-33371962D01*
X96250542Y-33345120D01*
X96388138Y-33345120D01*
X96523085Y-33371962D01*
X96523085Y-33371962D01*
G37*
G36*
X83751522Y-33340039D02*
X83785053Y-33350211D01*
X83815960Y-33366731D01*
X83843043Y-33388957D01*
X83865269Y-33416040D01*
X83881789Y-33446947D01*
X83891961Y-33480478D01*
X83896000Y-33521487D01*
X83896000Y-34550513D01*
X83891961Y-34591522D01*
X83881789Y-34625053D01*
X83865269Y-34655960D01*
X83843043Y-34683043D01*
X83815960Y-34705269D01*
X83785053Y-34721789D01*
X83751522Y-34731961D01*
X83710513Y-34736000D01*
X82931487Y-34736000D01*
X82890478Y-34731961D01*
X82856947Y-34721789D01*
X82826040Y-34705269D01*
X82798957Y-34683043D01*
X82776731Y-34655960D01*
X82760211Y-34625053D01*
X82750039Y-34591522D01*
X82746000Y-34550513D01*
X82746000Y-33521487D01*
X82750039Y-33480478D01*
X82760211Y-33446947D01*
X82776731Y-33416040D01*
X82798957Y-33388957D01*
X82826040Y-33366731D01*
X82856947Y-33350211D01*
X82890478Y-33340039D01*
X82931487Y-33336000D01*
X83710513Y-33336000D01*
X83751522Y-33340039D01*
X83751522Y-33340039D01*
G37*
G36*
X81701522Y-33340039D02*
X81735053Y-33350211D01*
X81765960Y-33366731D01*
X81793043Y-33388957D01*
X81815269Y-33416040D01*
X81831789Y-33446947D01*
X81841961Y-33480478D01*
X81846000Y-33521487D01*
X81846000Y-34550513D01*
X81841961Y-34591522D01*
X81831789Y-34625053D01*
X81815269Y-34655960D01*
X81793043Y-34683043D01*
X81765960Y-34705269D01*
X81735053Y-34721789D01*
X81701522Y-34731961D01*
X81660513Y-34736000D01*
X80881487Y-34736000D01*
X80840478Y-34731961D01*
X80806947Y-34721789D01*
X80776040Y-34705269D01*
X80748957Y-34683043D01*
X80726731Y-34655960D01*
X80710211Y-34625053D01*
X80700039Y-34591522D01*
X80696000Y-34550513D01*
X80696000Y-33521487D01*
X80700039Y-33480478D01*
X80710211Y-33446947D01*
X80726731Y-33416040D01*
X80748957Y-33388957D01*
X80776040Y-33366731D01*
X80806947Y-33350211D01*
X80840478Y-33340039D01*
X80881487Y-33336000D01*
X81660513Y-33336000D01*
X81701522Y-33340039D01*
X81701522Y-33340039D01*
G37*
G36*
X24076029Y-30099469D02*
X24076032Y-30099470D01*
X24076033Y-30099470D01*
X24264534Y-30156651D01*
X24264536Y-30156652D01*
X24264539Y-30156653D01*
X24438258Y-30249507D01*
X24590528Y-30374472D01*
X24715491Y-30526740D01*
X24808348Y-30700463D01*
X24865531Y-30888970D01*
X24880000Y-31035876D01*
X24880000Y-33734124D01*
X24865531Y-33881030D01*
X24865530Y-33881033D01*
X24865530Y-33881034D01*
X24837080Y-33974822D01*
X24808348Y-34069537D01*
X24715491Y-34243260D01*
X24590528Y-34395528D01*
X24438260Y-34520491D01*
X24264537Y-34613348D01*
X24264535Y-34613349D01*
X24076034Y-34670530D01*
X24076033Y-34670530D01*
X24076030Y-34670531D01*
X23880000Y-34689838D01*
X23683971Y-34670531D01*
X23683968Y-34670530D01*
X23683967Y-34670530D01*
X23495466Y-34613349D01*
X23495464Y-34613348D01*
X23321741Y-34520491D01*
X23169473Y-34395528D01*
X23044510Y-34243260D01*
X22951653Y-34069537D01*
X22922922Y-33974822D01*
X22894471Y-33881034D01*
X22894471Y-33881033D01*
X22894470Y-33881030D01*
X22880001Y-33734124D01*
X22880000Y-31035877D01*
X22894469Y-30888971D01*
X22894470Y-30888967D01*
X22951651Y-30700466D01*
X22951652Y-30700464D01*
X22951653Y-30700461D01*
X23044507Y-30526742D01*
X23169472Y-30374472D01*
X23321740Y-30249509D01*
X23495463Y-30156652D01*
X23495465Y-30156651D01*
X23683966Y-30099470D01*
X23683967Y-30099470D01*
X23683970Y-30099469D01*
X23880000Y-30080162D01*
X24076029Y-30099469D01*
X24076029Y-30099469D01*
G37*
G36*
X17976029Y-30099469D02*
X17976032Y-30099470D01*
X17976033Y-30099470D01*
X18164534Y-30156651D01*
X18164536Y-30156652D01*
X18164539Y-30156653D01*
X18338258Y-30249507D01*
X18490528Y-30374472D01*
X18615491Y-30526740D01*
X18708348Y-30700463D01*
X18765531Y-30888970D01*
X18780000Y-31035876D01*
X18780000Y-33734124D01*
X18765531Y-33881030D01*
X18765530Y-33881033D01*
X18765530Y-33881034D01*
X18737080Y-33974822D01*
X18708348Y-34069537D01*
X18615491Y-34243260D01*
X18490528Y-34395528D01*
X18338260Y-34520491D01*
X18164537Y-34613348D01*
X18164535Y-34613349D01*
X17976034Y-34670530D01*
X17976033Y-34670530D01*
X17976030Y-34670531D01*
X17780000Y-34689838D01*
X17583971Y-34670531D01*
X17583968Y-34670530D01*
X17583967Y-34670530D01*
X17395466Y-34613349D01*
X17395464Y-34613348D01*
X17221741Y-34520491D01*
X17069473Y-34395528D01*
X16944510Y-34243260D01*
X16851653Y-34069537D01*
X16822922Y-33974822D01*
X16794471Y-33881034D01*
X16794471Y-33881033D01*
X16794470Y-33881030D01*
X16780001Y-33734124D01*
X16780000Y-31035877D01*
X16794469Y-30888971D01*
X16794470Y-30888967D01*
X16851651Y-30700466D01*
X16851652Y-30700464D01*
X16851653Y-30700461D01*
X16944507Y-30526742D01*
X17069472Y-30374472D01*
X17221740Y-30249509D01*
X17395463Y-30156652D01*
X17395465Y-30156651D01*
X17583966Y-30099470D01*
X17583967Y-30099470D01*
X17583970Y-30099469D01*
X17780000Y-30080162D01*
X17976029Y-30099469D01*
X17976029Y-30099469D01*
G37*
G36*
X41195522Y-33474039D02*
X41229053Y-33484211D01*
X41259960Y-33500731D01*
X41287043Y-33522957D01*
X41309269Y-33550040D01*
X41325789Y-33580947D01*
X41335961Y-33614478D01*
X41340000Y-33655487D01*
X41340000Y-34434513D01*
X41335961Y-34475522D01*
X41325789Y-34509053D01*
X41309269Y-34539960D01*
X41287043Y-34567043D01*
X41259960Y-34589269D01*
X41229053Y-34605789D01*
X41195522Y-34615961D01*
X41154513Y-34620000D01*
X40125487Y-34620000D01*
X40084478Y-34615961D01*
X40050947Y-34605789D01*
X40020040Y-34589269D01*
X39992957Y-34567043D01*
X39970731Y-34539960D01*
X39954211Y-34509053D01*
X39944039Y-34475522D01*
X39940000Y-34434513D01*
X39940000Y-33655487D01*
X39944039Y-33614478D01*
X39954211Y-33580947D01*
X39970731Y-33550040D01*
X39992957Y-33522957D01*
X40020040Y-33500731D01*
X40050947Y-33484211D01*
X40084478Y-33474039D01*
X40125487Y-33470000D01*
X41154513Y-33470000D01*
X41195522Y-33474039D01*
X41195522Y-33474039D01*
G37*
G36*
X37846000Y-34544000D02*
X35814000Y-34544000D01*
X35814000Y-33528000D01*
X37846000Y-33528000D01*
X37846000Y-34544000D01*
X37846000Y-34544000D01*
G37*
G36*
X93983085Y-32226422D02*
X94110203Y-32279076D01*
X94224611Y-32355521D01*
X94321899Y-32452809D01*
X94398344Y-32567217D01*
X94450998Y-32694335D01*
X94477840Y-32829282D01*
X94477840Y-32966878D01*
X94450998Y-33101825D01*
X94398344Y-33228943D01*
X94321899Y-33343351D01*
X94224611Y-33440639D01*
X94110203Y-33517084D01*
X93983085Y-33569738D01*
X93848138Y-33596580D01*
X93710542Y-33596580D01*
X93575595Y-33569738D01*
X93448477Y-33517084D01*
X93334069Y-33440639D01*
X93236781Y-33343351D01*
X93160336Y-33228943D01*
X93107682Y-33101825D01*
X93080840Y-32966878D01*
X93080840Y-32829282D01*
X93107682Y-32694335D01*
X93160336Y-32567217D01*
X93236781Y-32452809D01*
X93334069Y-32355521D01*
X93448477Y-32279076D01*
X93575595Y-32226422D01*
X93710542Y-32199580D01*
X93848138Y-32199580D01*
X93983085Y-32226422D01*
X93983085Y-32226422D01*
G37*
G36*
X31242000Y-33578800D02*
X29210000Y-33578800D01*
X29210000Y-29921200D01*
X31242000Y-29921200D01*
X31242000Y-33578800D01*
X31242000Y-33578800D01*
G37*
G36*
X44426964Y-31585837D02*
X44458528Y-31595412D01*
X44487617Y-31610960D01*
X44513114Y-31631886D01*
X44534040Y-31657383D01*
X44549588Y-31686472D01*
X44559163Y-31718036D01*
X44563000Y-31756998D01*
X44563000Y-32832002D01*
X44559163Y-32870964D01*
X44549588Y-32902528D01*
X44534040Y-32931617D01*
X44513114Y-32957114D01*
X44487617Y-32978040D01*
X44458528Y-32993588D01*
X44426964Y-33003163D01*
X44388002Y-33007000D01*
X42987998Y-33007000D01*
X42949036Y-33003163D01*
X42917472Y-32993588D01*
X42888383Y-32978040D01*
X42862886Y-32957114D01*
X42841960Y-32931617D01*
X42826412Y-32902528D01*
X42816837Y-32870964D01*
X42813000Y-32832002D01*
X42813000Y-31756998D01*
X42816837Y-31718036D01*
X42826412Y-31686472D01*
X42841960Y-31657383D01*
X42862886Y-31631886D01*
X42888383Y-31610960D01*
X42917472Y-31595412D01*
X42949036Y-31585837D01*
X42987998Y-31582000D01*
X44388002Y-31582000D01*
X44426964Y-31585837D01*
X44426964Y-31585837D01*
G37*
G36*
X47664630Y-30912299D02*
X47824855Y-30960903D01*
X47972520Y-31039831D01*
X48101949Y-31146051D01*
X48208169Y-31275480D01*
X48287097Y-31423145D01*
X48335701Y-31583370D01*
X48352112Y-31750000D01*
X48335701Y-31916630D01*
X48287097Y-32076855D01*
X48208169Y-32224520D01*
X48101949Y-32353949D01*
X47972520Y-32460169D01*
X47824855Y-32539097D01*
X47664630Y-32587701D01*
X47539752Y-32600000D01*
X47456248Y-32600000D01*
X47331370Y-32587701D01*
X47171145Y-32539097D01*
X47023480Y-32460169D01*
X46894051Y-32353949D01*
X46787831Y-32224520D01*
X46708903Y-32076855D01*
X46660299Y-31916630D01*
X46643888Y-31750000D01*
X46660299Y-31583370D01*
X46708903Y-31423145D01*
X46787831Y-31275480D01*
X46894051Y-31146051D01*
X47023480Y-31039831D01*
X47171145Y-30960903D01*
X47331370Y-30912299D01*
X47456248Y-30900000D01*
X47539752Y-30900000D01*
X47664630Y-30912299D01*
X47664630Y-30912299D01*
G37*
G36*
X41195522Y-31424039D02*
X41229053Y-31434211D01*
X41259960Y-31450731D01*
X41287043Y-31472957D01*
X41309269Y-31500040D01*
X41325789Y-31530947D01*
X41335961Y-31564478D01*
X41340000Y-31605487D01*
X41340000Y-32384513D01*
X41335961Y-32425522D01*
X41325789Y-32459053D01*
X41309269Y-32489960D01*
X41287043Y-32517043D01*
X41259960Y-32539269D01*
X41229053Y-32555789D01*
X41195522Y-32565961D01*
X41154513Y-32570000D01*
X40125487Y-32570000D01*
X40084478Y-32565961D01*
X40050947Y-32555789D01*
X40020040Y-32539269D01*
X39992957Y-32517043D01*
X39970731Y-32489960D01*
X39954211Y-32459053D01*
X39944039Y-32425522D01*
X39940000Y-32384513D01*
X39940000Y-31605487D01*
X39944039Y-31564478D01*
X39954211Y-31530947D01*
X39970731Y-31500040D01*
X39992957Y-31472957D01*
X40020040Y-31450731D01*
X40050947Y-31434211D01*
X40084478Y-31424039D01*
X40125487Y-31420000D01*
X41154513Y-31420000D01*
X41195522Y-31424039D01*
X41195522Y-31424039D01*
G37*
G36*
X83751522Y-31054039D02*
X83785053Y-31064211D01*
X83815960Y-31080731D01*
X83843043Y-31102957D01*
X83865269Y-31130040D01*
X83881789Y-31160947D01*
X83891961Y-31194478D01*
X83896000Y-31235487D01*
X83896000Y-32264513D01*
X83891961Y-32305522D01*
X83881789Y-32339053D01*
X83865269Y-32369960D01*
X83843043Y-32397043D01*
X83815960Y-32419269D01*
X83785053Y-32435789D01*
X83751522Y-32445961D01*
X83710513Y-32450000D01*
X82931487Y-32450000D01*
X82890478Y-32445961D01*
X82856947Y-32435789D01*
X82826040Y-32419269D01*
X82798957Y-32397043D01*
X82776731Y-32369960D01*
X82760211Y-32339053D01*
X82750039Y-32305522D01*
X82746000Y-32264513D01*
X82746000Y-31235487D01*
X82750039Y-31194478D01*
X82760211Y-31160947D01*
X82776731Y-31130040D01*
X82798957Y-31102957D01*
X82826040Y-31080731D01*
X82856947Y-31064211D01*
X82890478Y-31054039D01*
X82931487Y-31050000D01*
X83710513Y-31050000D01*
X83751522Y-31054039D01*
X83751522Y-31054039D01*
G37*
G36*
X81701522Y-31054039D02*
X81735053Y-31064211D01*
X81765960Y-31080731D01*
X81793043Y-31102957D01*
X81815269Y-31130040D01*
X81831789Y-31160947D01*
X81841961Y-31194478D01*
X81846000Y-31235487D01*
X81846000Y-32264513D01*
X81841961Y-32305522D01*
X81831789Y-32339053D01*
X81815269Y-32369960D01*
X81793043Y-32397043D01*
X81765960Y-32419269D01*
X81735053Y-32435789D01*
X81701522Y-32445961D01*
X81660513Y-32450000D01*
X80881487Y-32450000D01*
X80840478Y-32445961D01*
X80806947Y-32435789D01*
X80776040Y-32419269D01*
X80748957Y-32397043D01*
X80726731Y-32369960D01*
X80710211Y-32339053D01*
X80700039Y-32305522D01*
X80696000Y-32264513D01*
X80696000Y-31235487D01*
X80700039Y-31194478D01*
X80710211Y-31160947D01*
X80726731Y-31130040D01*
X80748957Y-31102957D01*
X80776040Y-31080731D01*
X80806947Y-31064211D01*
X80840478Y-31054039D01*
X80881487Y-31050000D01*
X81660513Y-31050000D01*
X81701522Y-31054039D01*
X81701522Y-31054039D01*
G37*
G36*
X37846000Y-32258000D02*
X35814000Y-32258000D01*
X35814000Y-31242000D01*
X37846000Y-31242000D01*
X37846000Y-32258000D01*
X37846000Y-32258000D01*
G37*
G36*
X77909522Y-29022039D02*
X77943053Y-29032211D01*
X77973960Y-29048731D01*
X78001043Y-29070957D01*
X78023269Y-29098040D01*
X78039789Y-29128947D01*
X78049961Y-29162478D01*
X78054000Y-29203487D01*
X78054000Y-30232513D01*
X78049961Y-30273522D01*
X78039789Y-30307053D01*
X78023269Y-30337960D01*
X78001043Y-30365043D01*
X77973960Y-30387269D01*
X77943053Y-30403789D01*
X77909522Y-30413961D01*
X77868513Y-30418000D01*
X77089487Y-30418000D01*
X77048478Y-30413961D01*
X77014947Y-30403789D01*
X76984040Y-30387269D01*
X76956957Y-30365043D01*
X76934731Y-30337960D01*
X76918211Y-30307053D01*
X76908039Y-30273522D01*
X76904000Y-30232513D01*
X76904000Y-29203487D01*
X76908039Y-29162478D01*
X76918211Y-29128947D01*
X76934731Y-29098040D01*
X76956957Y-29070957D01*
X76984040Y-29048731D01*
X77014947Y-29032211D01*
X77048478Y-29022039D01*
X77089487Y-29018000D01*
X77868513Y-29018000D01*
X77909522Y-29022039D01*
X77909522Y-29022039D01*
G37*
G36*
X75859522Y-29022039D02*
X75893053Y-29032211D01*
X75923960Y-29048731D01*
X75951043Y-29070957D01*
X75973269Y-29098040D01*
X75989789Y-29128947D01*
X75999961Y-29162478D01*
X76004000Y-29203487D01*
X76004000Y-30232513D01*
X75999961Y-30273522D01*
X75989789Y-30307053D01*
X75973269Y-30337960D01*
X75951043Y-30365043D01*
X75923960Y-30387269D01*
X75893053Y-30403789D01*
X75859522Y-30413961D01*
X75818513Y-30418000D01*
X75039487Y-30418000D01*
X74998478Y-30413961D01*
X74964947Y-30403789D01*
X74934040Y-30387269D01*
X74906957Y-30365043D01*
X74884731Y-30337960D01*
X74868211Y-30307053D01*
X74858039Y-30273522D01*
X74854000Y-30232513D01*
X74854000Y-29203487D01*
X74858039Y-29162478D01*
X74868211Y-29128947D01*
X74884731Y-29098040D01*
X74906957Y-29070957D01*
X74934040Y-29048731D01*
X74964947Y-29032211D01*
X74998478Y-29022039D01*
X75039487Y-29018000D01*
X75818513Y-29018000D01*
X75859522Y-29022039D01*
X75859522Y-29022039D01*
G37*
G36*
X37846000Y-29972000D02*
X35814000Y-29972000D01*
X35814000Y-28956000D01*
X37846000Y-28956000D01*
X37846000Y-29972000D01*
X37846000Y-29972000D01*
G37*
G36*
X69273522Y-28006039D02*
X69307053Y-28016211D01*
X69337960Y-28032731D01*
X69365043Y-28054957D01*
X69387269Y-28082040D01*
X69403789Y-28112947D01*
X69413961Y-28146478D01*
X69418000Y-28187487D01*
X69418000Y-29216513D01*
X69413961Y-29257522D01*
X69403789Y-29291053D01*
X69387269Y-29321960D01*
X69365043Y-29349043D01*
X69337960Y-29371269D01*
X69307053Y-29387789D01*
X69273522Y-29397961D01*
X69232513Y-29402000D01*
X68453487Y-29402000D01*
X68412478Y-29397961D01*
X68378947Y-29387789D01*
X68348040Y-29371269D01*
X68320957Y-29349043D01*
X68298731Y-29321960D01*
X68282211Y-29291053D01*
X68272039Y-29257522D01*
X68268000Y-29216513D01*
X68268000Y-28187487D01*
X68272039Y-28146478D01*
X68282211Y-28112947D01*
X68298731Y-28082040D01*
X68320957Y-28054957D01*
X68348040Y-28032731D01*
X68378947Y-28016211D01*
X68412478Y-28006039D01*
X68453487Y-28002000D01*
X69232513Y-28002000D01*
X69273522Y-28006039D01*
X69273522Y-28006039D01*
G37*
G36*
X67223522Y-28006039D02*
X67257053Y-28016211D01*
X67287960Y-28032731D01*
X67315043Y-28054957D01*
X67337269Y-28082040D01*
X67353789Y-28112947D01*
X67363961Y-28146478D01*
X67368000Y-28187487D01*
X67368000Y-29216513D01*
X67363961Y-29257522D01*
X67353789Y-29291053D01*
X67337269Y-29321960D01*
X67315043Y-29349043D01*
X67287960Y-29371269D01*
X67257053Y-29387789D01*
X67223522Y-29397961D01*
X67182513Y-29402000D01*
X66403487Y-29402000D01*
X66362478Y-29397961D01*
X66328947Y-29387789D01*
X66298040Y-29371269D01*
X66270957Y-29349043D01*
X66248731Y-29321960D01*
X66232211Y-29291053D01*
X66222039Y-29257522D01*
X66218000Y-29216513D01*
X66218000Y-28187487D01*
X66222039Y-28146478D01*
X66232211Y-28112947D01*
X66248731Y-28082040D01*
X66270957Y-28054957D01*
X66298040Y-28032731D01*
X66328947Y-28016211D01*
X66362478Y-28006039D01*
X66403487Y-28002000D01*
X67182513Y-28002000D01*
X67223522Y-28006039D01*
X67223522Y-28006039D01*
G37*
G36*
X77909522Y-26228039D02*
X77943053Y-26238211D01*
X77973960Y-26254731D01*
X78001043Y-26276957D01*
X78023269Y-26304040D01*
X78039789Y-26334947D01*
X78049961Y-26368478D01*
X78054000Y-26409487D01*
X78054000Y-27438513D01*
X78049961Y-27479522D01*
X78039789Y-27513053D01*
X78023269Y-27543960D01*
X78001043Y-27571043D01*
X77973960Y-27593269D01*
X77943053Y-27609789D01*
X77909522Y-27619961D01*
X77868513Y-27624000D01*
X77089487Y-27624000D01*
X77048478Y-27619961D01*
X77014947Y-27609789D01*
X76984040Y-27593269D01*
X76956957Y-27571043D01*
X76934731Y-27543960D01*
X76918211Y-27513053D01*
X76908039Y-27479522D01*
X76904000Y-27438513D01*
X76904000Y-26409487D01*
X76908039Y-26368478D01*
X76918211Y-26334947D01*
X76934731Y-26304040D01*
X76956957Y-26276957D01*
X76984040Y-26254731D01*
X77014947Y-26238211D01*
X77048478Y-26228039D01*
X77089487Y-26224000D01*
X77868513Y-26224000D01*
X77909522Y-26228039D01*
X77909522Y-26228039D01*
G37*
G36*
X75859522Y-26228039D02*
X75893053Y-26238211D01*
X75923960Y-26254731D01*
X75951043Y-26276957D01*
X75973269Y-26304040D01*
X75989789Y-26334947D01*
X75999961Y-26368478D01*
X76004000Y-26409487D01*
X76004000Y-27438513D01*
X75999961Y-27479522D01*
X75989789Y-27513053D01*
X75973269Y-27543960D01*
X75951043Y-27571043D01*
X75923960Y-27593269D01*
X75893053Y-27609789D01*
X75859522Y-27619961D01*
X75818513Y-27624000D01*
X75039487Y-27624000D01*
X74998478Y-27619961D01*
X74964947Y-27609789D01*
X74934040Y-27593269D01*
X74906957Y-27571043D01*
X74884731Y-27543960D01*
X74868211Y-27513053D01*
X74858039Y-27479522D01*
X74854000Y-27438513D01*
X74854000Y-26409487D01*
X74858039Y-26368478D01*
X74868211Y-26334947D01*
X74884731Y-26304040D01*
X74906957Y-26276957D01*
X74934040Y-26254731D01*
X74964947Y-26238211D01*
X74998478Y-26228039D01*
X75039487Y-26224000D01*
X75818513Y-26224000D01*
X75859522Y-26228039D01*
X75859522Y-26228039D01*
G37*
G36*
X94246043Y-24321226D02*
X94537223Y-24441837D01*
X94799284Y-24616941D01*
X95022139Y-24839796D01*
X95197243Y-25101857D01*
X95317854Y-25393037D01*
X95379340Y-25702152D01*
X95379340Y-26017328D01*
X95317854Y-26326443D01*
X95197243Y-26617623D01*
X95022139Y-26879684D01*
X94799284Y-27102539D01*
X94537223Y-27277643D01*
X94246043Y-27398254D01*
X93936928Y-27459740D01*
X93621752Y-27459740D01*
X93312637Y-27398254D01*
X93021457Y-27277643D01*
X92759396Y-27102539D01*
X92536541Y-26879684D01*
X92361437Y-26617623D01*
X92240826Y-26326443D01*
X92179340Y-26017328D01*
X92179340Y-25702152D01*
X92240826Y-25393037D01*
X92361437Y-25101857D01*
X92536541Y-24839796D01*
X92759396Y-24616941D01*
X93021457Y-24441837D01*
X93312637Y-24321226D01*
X93621752Y-24259740D01*
X93936928Y-24259740D01*
X94246043Y-24321226D01*
X94246043Y-24321226D01*
G37*
G36*
X79025964Y-22403403D02*
X79057528Y-22412978D01*
X79086617Y-22428526D01*
X79112114Y-22449452D01*
X79133040Y-22474949D01*
X79148588Y-22504038D01*
X79158163Y-22535602D01*
X79162000Y-22574564D01*
X79162000Y-24874568D01*
X79158163Y-24913530D01*
X79148588Y-24945094D01*
X79133040Y-24974183D01*
X79112114Y-24999680D01*
X79086617Y-25020606D01*
X79057528Y-25036154D01*
X79025964Y-25045729D01*
X78987002Y-25049566D01*
X77911998Y-25049566D01*
X77873036Y-25045729D01*
X77841472Y-25036154D01*
X77812383Y-25020606D01*
X77786886Y-24999680D01*
X77765960Y-24974183D01*
X77750412Y-24945094D01*
X77740837Y-24913530D01*
X77737000Y-24874568D01*
X77737000Y-22574564D01*
X77740837Y-22535602D01*
X77750412Y-22504038D01*
X77765960Y-22474949D01*
X77786886Y-22449452D01*
X77812383Y-22428526D01*
X77841472Y-22412978D01*
X77873036Y-22403403D01*
X77911998Y-22399566D01*
X78987002Y-22399566D01*
X79025964Y-22403403D01*
X79025964Y-22403403D01*
G37*
G36*
X76050964Y-22403403D02*
X76082528Y-22412978D01*
X76111617Y-22428526D01*
X76137114Y-22449452D01*
X76158040Y-22474949D01*
X76173588Y-22504038D01*
X76183163Y-22535602D01*
X76187000Y-22574564D01*
X76187000Y-24874568D01*
X76183163Y-24913530D01*
X76173588Y-24945094D01*
X76158040Y-24974183D01*
X76137114Y-24999680D01*
X76111617Y-25020606D01*
X76082528Y-25036154D01*
X76050964Y-25045729D01*
X76012002Y-25049566D01*
X74936998Y-25049566D01*
X74898036Y-25045729D01*
X74866472Y-25036154D01*
X74837383Y-25020606D01*
X74811886Y-24999680D01*
X74790960Y-24974183D01*
X74775412Y-24945094D01*
X74765837Y-24913530D01*
X74762000Y-24874568D01*
X74762000Y-22574564D01*
X74765837Y-22535602D01*
X74775412Y-22504038D01*
X74790960Y-22474949D01*
X74811886Y-22449452D01*
X74837383Y-22428526D01*
X74866472Y-22412978D01*
X74898036Y-22403403D01*
X74936998Y-22399566D01*
X76012002Y-22399566D01*
X76050964Y-22403403D01*
X76050964Y-22403403D01*
G37*
G36*
X59348630Y-19990299D02*
X59508855Y-20038903D01*
X59656520Y-20117831D01*
X59785949Y-20224051D01*
X59892169Y-20353480D01*
X59971097Y-20501145D01*
X60019701Y-20661370D01*
X60036112Y-20828000D01*
X60019701Y-20994630D01*
X59971097Y-21154855D01*
X59892169Y-21302520D01*
X59785949Y-21431949D01*
X59656520Y-21538169D01*
X59508855Y-21617097D01*
X59348630Y-21665701D01*
X59223752Y-21678000D01*
X59140248Y-21678000D01*
X59015370Y-21665701D01*
X58855145Y-21617097D01*
X58707480Y-21538169D01*
X58578051Y-21431949D01*
X58471831Y-21302520D01*
X58392903Y-21154855D01*
X58344299Y-20994630D01*
X58327888Y-20828000D01*
X58344299Y-20661370D01*
X58392903Y-20501145D01*
X58471831Y-20353480D01*
X58578051Y-20224051D01*
X58707480Y-20117831D01*
X58855145Y-20038903D01*
X59015370Y-19990299D01*
X59140248Y-19978000D01*
X59223752Y-19978000D01*
X59348630Y-19990299D01*
X59348630Y-19990299D01*
G37*
G36*
X56808630Y-19990299D02*
X56968855Y-20038903D01*
X57116520Y-20117831D01*
X57245949Y-20224051D01*
X57352169Y-20353480D01*
X57431097Y-20501145D01*
X57479701Y-20661370D01*
X57496112Y-20828000D01*
X57479701Y-20994630D01*
X57431097Y-21154855D01*
X57352169Y-21302520D01*
X57245949Y-21431949D01*
X57116520Y-21538169D01*
X56968855Y-21617097D01*
X56808630Y-21665701D01*
X56683752Y-21678000D01*
X56600248Y-21678000D01*
X56475370Y-21665701D01*
X56315145Y-21617097D01*
X56167480Y-21538169D01*
X56038051Y-21431949D01*
X55931831Y-21302520D01*
X55852903Y-21154855D01*
X55804299Y-20994630D01*
X55787888Y-20828000D01*
X55804299Y-20661370D01*
X55852903Y-20501145D01*
X55931831Y-20353480D01*
X56038051Y-20224051D01*
X56167480Y-20117831D01*
X56315145Y-20038903D01*
X56475370Y-19990299D01*
X56600248Y-19978000D01*
X56683752Y-19978000D01*
X56808630Y-19990299D01*
X56808630Y-19990299D01*
G37*
G36*
X61888630Y-19990299D02*
X62048855Y-20038903D01*
X62196520Y-20117831D01*
X62325949Y-20224051D01*
X62432169Y-20353480D01*
X62511097Y-20501145D01*
X62559701Y-20661370D01*
X62576112Y-20828000D01*
X62559701Y-20994630D01*
X62511097Y-21154855D01*
X62432169Y-21302520D01*
X62325949Y-21431949D01*
X62196520Y-21538169D01*
X62048855Y-21617097D01*
X61888630Y-21665701D01*
X61763752Y-21678000D01*
X61680248Y-21678000D01*
X61555370Y-21665701D01*
X61395145Y-21617097D01*
X61247480Y-21538169D01*
X61118051Y-21431949D01*
X61011831Y-21302520D01*
X60932903Y-21154855D01*
X60884299Y-20994630D01*
X60867888Y-20828000D01*
X60884299Y-20661370D01*
X60932903Y-20501145D01*
X61011831Y-20353480D01*
X61118051Y-20224051D01*
X61247480Y-20117831D01*
X61395145Y-20038903D01*
X61555370Y-19990299D01*
X61680248Y-19978000D01*
X61763752Y-19978000D01*
X61888630Y-19990299D01*
X61888630Y-19990299D01*
G37*
G36*
X54268630Y-19990299D02*
X54428855Y-20038903D01*
X54576520Y-20117831D01*
X54705949Y-20224051D01*
X54812169Y-20353480D01*
X54891097Y-20501145D01*
X54939701Y-20661370D01*
X54956112Y-20828000D01*
X54939701Y-20994630D01*
X54891097Y-21154855D01*
X54812169Y-21302520D01*
X54705949Y-21431949D01*
X54576520Y-21538169D01*
X54428855Y-21617097D01*
X54268630Y-21665701D01*
X54143752Y-21678000D01*
X54060248Y-21678000D01*
X53935370Y-21665701D01*
X53775145Y-21617097D01*
X53627480Y-21538169D01*
X53498051Y-21431949D01*
X53391831Y-21302520D01*
X53312903Y-21154855D01*
X53264299Y-20994630D01*
X53247888Y-20828000D01*
X53264299Y-20661370D01*
X53312903Y-20501145D01*
X53391831Y-20353480D01*
X53498051Y-20224051D01*
X53627480Y-20117831D01*
X53775145Y-20038903D01*
X53935370Y-19990299D01*
X54060248Y-19978000D01*
X54143752Y-19978000D01*
X54268630Y-19990299D01*
X54268630Y-19990299D01*
G37*
G36*
X51728630Y-19990299D02*
X51888855Y-20038903D01*
X52036520Y-20117831D01*
X52165949Y-20224051D01*
X52272169Y-20353480D01*
X52351097Y-20501145D01*
X52399701Y-20661370D01*
X52416112Y-20828000D01*
X52399701Y-20994630D01*
X52351097Y-21154855D01*
X52272169Y-21302520D01*
X52165949Y-21431949D01*
X52036520Y-21538169D01*
X51888855Y-21617097D01*
X51728630Y-21665701D01*
X51603752Y-21678000D01*
X51520248Y-21678000D01*
X51395370Y-21665701D01*
X51235145Y-21617097D01*
X51087480Y-21538169D01*
X50958051Y-21431949D01*
X50851831Y-21302520D01*
X50772903Y-21154855D01*
X50724299Y-20994630D01*
X50707888Y-20828000D01*
X50724299Y-20661370D01*
X50772903Y-20501145D01*
X50851831Y-20353480D01*
X50958051Y-20224051D01*
X51087480Y-20117831D01*
X51235145Y-20038903D01*
X51395370Y-19990299D01*
X51520248Y-19978000D01*
X51603752Y-19978000D01*
X51728630Y-19990299D01*
X51728630Y-19990299D01*
G37*
G36*
X49872000Y-21678000D02*
X48172000Y-21678000D01*
X48172000Y-19978000D01*
X49872000Y-19978000D01*
X49872000Y-21678000D01*
X49872000Y-21678000D01*
G37*
G36*
X29884630Y-19736299D02*
X30044855Y-19784903D01*
X30192520Y-19863831D01*
X30321949Y-19970051D01*
X30428169Y-20099480D01*
X30507097Y-20247145D01*
X30555701Y-20407370D01*
X30572112Y-20574000D01*
X30555701Y-20740630D01*
X30507097Y-20900855D01*
X30428169Y-21048520D01*
X30321949Y-21177949D01*
X30192520Y-21284169D01*
X30044855Y-21363097D01*
X29884630Y-21411701D01*
X29759752Y-21424000D01*
X29676248Y-21424000D01*
X29551370Y-21411701D01*
X29391145Y-21363097D01*
X29243480Y-21284169D01*
X29114051Y-21177949D01*
X29007831Y-21048520D01*
X28928903Y-20900855D01*
X28880299Y-20740630D01*
X28863888Y-20574000D01*
X28880299Y-20407370D01*
X28928903Y-20247145D01*
X29007831Y-20099480D01*
X29114051Y-19970051D01*
X29243480Y-19863831D01*
X29391145Y-19784903D01*
X29551370Y-19736299D01*
X29676248Y-19724000D01*
X29759752Y-19724000D01*
X29884630Y-19736299D01*
X29884630Y-19736299D01*
G37*
G36*
X28028000Y-21424000D02*
X26328000Y-21424000D01*
X26328000Y-19724000D01*
X28028000Y-19724000D01*
X28028000Y-21424000D01*
X28028000Y-21424000D01*
G37*
G36*
X40044630Y-19736299D02*
X40204855Y-19784903D01*
X40352520Y-19863831D01*
X40481949Y-19970051D01*
X40588169Y-20099480D01*
X40667097Y-20247145D01*
X40715701Y-20407370D01*
X40732112Y-20574000D01*
X40715701Y-20740630D01*
X40667097Y-20900855D01*
X40588169Y-21048520D01*
X40481949Y-21177949D01*
X40352520Y-21284169D01*
X40204855Y-21363097D01*
X40044630Y-21411701D01*
X39919752Y-21424000D01*
X39836248Y-21424000D01*
X39711370Y-21411701D01*
X39551145Y-21363097D01*
X39403480Y-21284169D01*
X39274051Y-21177949D01*
X39167831Y-21048520D01*
X39088903Y-20900855D01*
X39040299Y-20740630D01*
X39023888Y-20574000D01*
X39040299Y-20407370D01*
X39088903Y-20247145D01*
X39167831Y-20099480D01*
X39274051Y-19970051D01*
X39403480Y-19863831D01*
X39551145Y-19784903D01*
X39711370Y-19736299D01*
X39836248Y-19724000D01*
X39919752Y-19724000D01*
X40044630Y-19736299D01*
X40044630Y-19736299D01*
G37*
G36*
X37504630Y-19736299D02*
X37664855Y-19784903D01*
X37812520Y-19863831D01*
X37941949Y-19970051D01*
X38048169Y-20099480D01*
X38127097Y-20247145D01*
X38175701Y-20407370D01*
X38192112Y-20574000D01*
X38175701Y-20740630D01*
X38127097Y-20900855D01*
X38048169Y-21048520D01*
X37941949Y-21177949D01*
X37812520Y-21284169D01*
X37664855Y-21363097D01*
X37504630Y-21411701D01*
X37379752Y-21424000D01*
X37296248Y-21424000D01*
X37171370Y-21411701D01*
X37011145Y-21363097D01*
X36863480Y-21284169D01*
X36734051Y-21177949D01*
X36627831Y-21048520D01*
X36548903Y-20900855D01*
X36500299Y-20740630D01*
X36483888Y-20574000D01*
X36500299Y-20407370D01*
X36548903Y-20247145D01*
X36627831Y-20099480D01*
X36734051Y-19970051D01*
X36863480Y-19863831D01*
X37011145Y-19784903D01*
X37171370Y-19736299D01*
X37296248Y-19724000D01*
X37379752Y-19724000D01*
X37504630Y-19736299D01*
X37504630Y-19736299D01*
G37*
G36*
X34964630Y-19736299D02*
X35124855Y-19784903D01*
X35272520Y-19863831D01*
X35401949Y-19970051D01*
X35508169Y-20099480D01*
X35587097Y-20247145D01*
X35635701Y-20407370D01*
X35652112Y-20574000D01*
X35635701Y-20740630D01*
X35587097Y-20900855D01*
X35508169Y-21048520D01*
X35401949Y-21177949D01*
X35272520Y-21284169D01*
X35124855Y-21363097D01*
X34964630Y-21411701D01*
X34839752Y-21424000D01*
X34756248Y-21424000D01*
X34631370Y-21411701D01*
X34471145Y-21363097D01*
X34323480Y-21284169D01*
X34194051Y-21177949D01*
X34087831Y-21048520D01*
X34008903Y-20900855D01*
X33960299Y-20740630D01*
X33943888Y-20574000D01*
X33960299Y-20407370D01*
X34008903Y-20247145D01*
X34087831Y-20099480D01*
X34194051Y-19970051D01*
X34323480Y-19863831D01*
X34471145Y-19784903D01*
X34631370Y-19736299D01*
X34756248Y-19724000D01*
X34839752Y-19724000D01*
X34964630Y-19736299D01*
X34964630Y-19736299D01*
G37*
G36*
X32424630Y-19736299D02*
X32584855Y-19784903D01*
X32732520Y-19863831D01*
X32861949Y-19970051D01*
X32968169Y-20099480D01*
X33047097Y-20247145D01*
X33095701Y-20407370D01*
X33112112Y-20574000D01*
X33095701Y-20740630D01*
X33047097Y-20900855D01*
X32968169Y-21048520D01*
X32861949Y-21177949D01*
X32732520Y-21284169D01*
X32584855Y-21363097D01*
X32424630Y-21411701D01*
X32299752Y-21424000D01*
X32216248Y-21424000D01*
X32091370Y-21411701D01*
X31931145Y-21363097D01*
X31783480Y-21284169D01*
X31654051Y-21177949D01*
X31547831Y-21048520D01*
X31468903Y-20900855D01*
X31420299Y-20740630D01*
X31403888Y-20574000D01*
X31420299Y-20407370D01*
X31468903Y-20247145D01*
X31547831Y-20099480D01*
X31654051Y-19970051D01*
X31783480Y-19863831D01*
X31931145Y-19784903D01*
X32091370Y-19736299D01*
X32216248Y-19724000D01*
X32299752Y-19724000D01*
X32424630Y-19736299D01*
X32424630Y-19736299D01*
G37*
G36*
X84125379Y-16404909D02*
X84529849Y-16572446D01*
X84889021Y-16812437D01*
X84893864Y-16815673D01*
X85203427Y-17125236D01*
X85203429Y-17125239D01*
X85398071Y-17416541D01*
X85446655Y-17489253D01*
X85614191Y-17893721D01*
X85699600Y-18323101D01*
X85699600Y-18760899D01*
X85614191Y-19190279D01*
X85474107Y-19528473D01*
X85446654Y-19594749D01*
X85206663Y-19953921D01*
X85203427Y-19958764D01*
X84893864Y-20268327D01*
X84893861Y-20268329D01*
X84529849Y-20511554D01*
X84529848Y-20511555D01*
X84529847Y-20511555D01*
X84125379Y-20679091D01*
X83695999Y-20764500D01*
X83258201Y-20764500D01*
X82828821Y-20679091D01*
X82424353Y-20511555D01*
X82424352Y-20511555D01*
X82424351Y-20511554D01*
X82060339Y-20268329D01*
X82060336Y-20268327D01*
X81750773Y-19958764D01*
X81747537Y-19953921D01*
X81507546Y-19594749D01*
X81480094Y-19528473D01*
X81340009Y-19190279D01*
X81254600Y-18760899D01*
X81254600Y-18323101D01*
X81340009Y-17893721D01*
X81507545Y-17489253D01*
X81556130Y-17416541D01*
X81750771Y-17125239D01*
X81750773Y-17125236D01*
X82060336Y-16815673D01*
X82065179Y-16812437D01*
X82424351Y-16572446D01*
X82828821Y-16404909D01*
X83258201Y-16319500D01*
X83695999Y-16319500D01*
X84125379Y-16404909D01*
X84125379Y-16404909D01*
G37*
G36*
X73635179Y-16404909D02*
X74039649Y-16572446D01*
X74398821Y-16812437D01*
X74403664Y-16815673D01*
X74713227Y-17125236D01*
X74713229Y-17125239D01*
X74907871Y-17416541D01*
X74956455Y-17489253D01*
X75123991Y-17893721D01*
X75209400Y-18323101D01*
X75209400Y-18760899D01*
X75123991Y-19190279D01*
X74983907Y-19528473D01*
X74956454Y-19594749D01*
X74716463Y-19953921D01*
X74713227Y-19958764D01*
X74403664Y-20268327D01*
X74403661Y-20268329D01*
X74039649Y-20511554D01*
X74039648Y-20511555D01*
X74039647Y-20511555D01*
X73635179Y-20679091D01*
X73205799Y-20764500D01*
X72768001Y-20764500D01*
X72338621Y-20679091D01*
X71934153Y-20511555D01*
X71934152Y-20511555D01*
X71934151Y-20511554D01*
X71570139Y-20268329D01*
X71570136Y-20268327D01*
X71260573Y-19958764D01*
X71257337Y-19953921D01*
X71017346Y-19594749D01*
X70989894Y-19528473D01*
X70849809Y-19190279D01*
X70764400Y-18760899D01*
X70764400Y-18323101D01*
X70849809Y-17893721D01*
X71017345Y-17489253D01*
X71065930Y-17416541D01*
X71260571Y-17125239D01*
X71260573Y-17125236D01*
X71570136Y-16815673D01*
X71574979Y-16812437D01*
X71934151Y-16572446D01*
X72338621Y-16404909D01*
X72768001Y-16319500D01*
X73205799Y-16319500D01*
X73635179Y-16404909D01*
X73635179Y-16404909D01*
G37*
G36*
X100389169Y-11420519D02*
X101255889Y-11779526D01*
X102035920Y-12300726D01*
X102699274Y-12964080D01*
X103220474Y-13744111D01*
X103579481Y-14610831D01*
X103762500Y-15530933D01*
X103762500Y-16469067D01*
X103579481Y-17389169D01*
X103220474Y-18255889D01*
X102699274Y-19035920D01*
X102035920Y-19699274D01*
X101255889Y-20220474D01*
X100389169Y-20579481D01*
X99469067Y-20762500D01*
X98530933Y-20762500D01*
X97610831Y-20579481D01*
X96744111Y-20220474D01*
X95964080Y-19699274D01*
X95300726Y-19035920D01*
X94779526Y-18255889D01*
X94420519Y-17389169D01*
X94237500Y-16469067D01*
X94237500Y-15530933D01*
X94420519Y-14610831D01*
X94779526Y-13744111D01*
X95300726Y-12964080D01*
X95964080Y-12300726D01*
X96744111Y-11779526D01*
X97610831Y-11420519D01*
X98530933Y-11237500D01*
X99469067Y-11237500D01*
X100389169Y-11420519D01*
X100389169Y-11420519D01*
G37*
G36*
X17264169Y-11295519D02*
X18130889Y-11654526D01*
X18910920Y-12175726D01*
X19574274Y-12839080D01*
X20095474Y-13619111D01*
X20454481Y-14485831D01*
X20637500Y-15405933D01*
X20637500Y-16344067D01*
X20454481Y-17264169D01*
X20095474Y-18130889D01*
X19574274Y-18910920D01*
X18910920Y-19574274D01*
X18130889Y-20095474D01*
X17264169Y-20454481D01*
X16344067Y-20637500D01*
X15405933Y-20637500D01*
X14485831Y-20454481D01*
X13619111Y-20095474D01*
X12839080Y-19574274D01*
X12175726Y-18910920D01*
X11654526Y-18130889D01*
X11295519Y-17264169D01*
X11112500Y-16344067D01*
X11112500Y-15405933D01*
X11295519Y-14485831D01*
X11654526Y-13619111D01*
X12175726Y-12839080D01*
X12839080Y-12175726D01*
X13619111Y-11654526D01*
X14485831Y-11295519D01*
X15405933Y-11112500D01*
X16344067Y-11112500D01*
X17264169Y-11295519D01*
X17264169Y-11295519D01*
G37*
G36*
X78479765Y-17296403D02*
X78602445Y-17320805D01*
X78833571Y-17416541D01*
X79041581Y-17555529D01*
X79218471Y-17732419D01*
X79218473Y-17732422D01*
X79357459Y-17940429D01*
X79453195Y-18171555D01*
X79502000Y-18416916D01*
X79502000Y-18667084D01*
X79453195Y-18912445D01*
X79357459Y-19143571D01*
X79218471Y-19351581D01*
X79041581Y-19528471D01*
X79041578Y-19528473D01*
X78833571Y-19667459D01*
X78602445Y-19763195D01*
X78493311Y-19784903D01*
X78357086Y-19812000D01*
X78106914Y-19812000D01*
X77970689Y-19784903D01*
X77861555Y-19763195D01*
X77630429Y-19667459D01*
X77422422Y-19528473D01*
X77422419Y-19528471D01*
X77245529Y-19351581D01*
X77106541Y-19143571D01*
X77010805Y-18912445D01*
X76962000Y-18667084D01*
X76962000Y-18416916D01*
X77010805Y-18171555D01*
X77106541Y-17940429D01*
X77245527Y-17732422D01*
X77245529Y-17732419D01*
X77422419Y-17555529D01*
X77630429Y-17416541D01*
X77861555Y-17320805D01*
X77984236Y-17296402D01*
X78106914Y-17272000D01*
X78357086Y-17272000D01*
X78479765Y-17296403D01*
X78479765Y-17296403D01*
G37*
G36*
X78880279Y-10893109D02*
X79284749Y-11060646D01*
X79362354Y-11112500D01*
X79648764Y-11303873D01*
X79958327Y-11613436D01*
X80201555Y-11977453D01*
X80369091Y-12381921D01*
X80454500Y-12811301D01*
X80454500Y-13249099D01*
X80369091Y-13678479D01*
X80201555Y-14082947D01*
X79958327Y-14446964D01*
X79648764Y-14756527D01*
X79648761Y-14756529D01*
X79284749Y-14999754D01*
X79284748Y-14999755D01*
X79284747Y-14999755D01*
X78880279Y-15167291D01*
X78450899Y-15252700D01*
X78013101Y-15252700D01*
X77583721Y-15167291D01*
X77179253Y-14999755D01*
X77179252Y-14999755D01*
X77179251Y-14999754D01*
X76815239Y-14756529D01*
X76815236Y-14756527D01*
X76505673Y-14446964D01*
X76262445Y-14082947D01*
X76094909Y-13678479D01*
X76009500Y-13249099D01*
X76009500Y-12811301D01*
X76094909Y-12381921D01*
X76262445Y-11977453D01*
X76505673Y-11613436D01*
X76815236Y-11303873D01*
X77101646Y-11112500D01*
X77179251Y-11060646D01*
X77583721Y-10893109D01*
X78013101Y-10807700D01*
X78450899Y-10807700D01*
X78880279Y-10893109D01*
X78880279Y-10893109D01*
G37*
M02*
