  0
SECTION
  2
HEADER
  9
$ANGBASE
  50
0.0
  9
$ANGDIR
  70
  1
  9
$MEASUREMENT
  70
0
  0
ENDSEC
  0
SECTION
  2
TABLES
  0
TABLE
  2
LTYPE
  70
1
  0
LTYPE
  2
CONTINUOUS
  70
0
  3
Solid line
  72
65
  73
0
  40
0.0
  0
ENDTAB
  0
TABLE
  2
STYLE
  70
4
  0
STYLE
  2
KICAD
  70
0
  40
0
  41
1
  42
1
  50
0
  71
0
  3
isocp.shx
  0
STYLE
  2
KICADB
  70
0
  40
0
  41
1
  42
1
  50
0
  71
0
  3
isocp.shx
  0
STYLE
  2
KICADI
  70
0
  40
0
  41
1
  42
1
  50
15
  71
0
  3
isocp.shx
  0
STYLE
  2
KICADBI
  70
0
  40
0
  41
1
  42
1
  50
15
  71
0
  3
isocp.shx
  0
ENDTAB
  0
TABLE
  2
LAYER
  70
30
  0
LAYER
  2
BLACK
  70
0
  62
7
  6
CONTINUOUS
  0
LAYER
  2
GRAY1
  70
0
  62
251
  6
CONTINUOUS
  0
LAYER
  2
GRAY2
  70
0
  62
8
  6
CONTINUOUS
  0
LAYER
  2
GRAY3
  70
0
  62
9
  6
CONTINUOUS
  0
LAYER
  2
WHITE
  70
0
  62
7
  6
CONTINUOUS
  0
LAYER
  2
LYELLOW
  70
0
  62
51
  6
CONTINUOUS
  0
LAYER
  2
BLUE1
  70
0
  62
178
  6
CONTINUOUS
  0
LAYER
  2
GREEN1
  70
0
  62
98
  6
CONTINUOUS
  0
LAYER
  2
CYAN1
  70
0
  62
138
  6
CONTINUOUS
  0
LAYER
  2
RED1
  70
0
  62
18
  6
CONTINUOUS
  0
LAYER
  2
MAGENTA1
  70
0
  62
228
  6
CONTINUOUS
  0
LAYER
  2
BROWN1
  70
0
  62
58
  6
CONTINUOUS
  0
LAYER
  2
BLUE2
  70
0
  62
5
  6
CONTINUOUS
  0
LAYER
  2
GREEN2
  70
0
  62
3
  6
CONTINUOUS
  0
LAYER
  2
CYAN2
  70
0
  62
4
  6
CONTINUOUS
  0
LAYER
  2
RED2
  70
0
  62
1
  6
CONTINUOUS
  0
LAYER
  2
MAGENTA2
  70
0
  62
6
  6
CONTINUOUS
  0
LAYER
  2
BROWN2
  70
0
  62
54
  6
CONTINUOUS
  0
LAYER
  2
BLUE3
  70
0
  62
171
  6
CONTINUOUS
  0
LAYER
  2
GREEN3
  70
0
  62
91
  6
CONTINUOUS
  0
LAYER
  2
CYAN3
  70
0
  62
131
  6
CONTINUOUS
  0
LAYER
  2
RED3
  70
0
  62
11
  6
CONTINUOUS
  0
LAYER
  2
MAGENTA3
  70
0
  62
221
  6
CONTINUOUS
  0
LAYER
  2
YELLOW3
  70
0
  62
2
  6
CONTINUOUS
  0
LAYER
  2
BLUE4
  70
0
  62
5
  6
CONTINUOUS
  0
LAYER
  2
GREEN4
  70
0
  62
3
  6
CONTINUOUS
  0
LAYER
  2
CYAN4
  70
0
  62
4
  6
CONTINUOUS
  0
LAYER
  2
RED4
  70
0
  62
1
  6
CONTINUOUS
  0
LAYER
  2
MAGENTA4
  70
0
  62
6
  6
CONTINUOUS
  0
LAYER
  2
YELLOW4
  70
0
  62
2
  6
CONTINUOUS
  0
ENDTAB
  0
ENDSEC
  0
SECTION
  2
ENTITIES
0
LINE
8
Black
10
15
20
-105.05
11
60
21
-105.05
0
LINE
8
Black
10
15
20
-104.95
11
60
21
-104.95
0
ARC
8
Black
10
60
20
-105
40
0.05
50
270
51
450
0
ARC
8
Black
10
15
20
-105
40
0.05
50
90
51
270
0
LINE
8
Black
10
65.05
20
-100
11
65.05
21
-15
0
LINE
8
Black
10
64.95
20
-100
11
64.95
21
-15
0
ARC
8
Black
10
65
20
-15
40
0.05
50
360
51
540
0
ARC
8
Black
10
65
20
-100
40
0.05
50
180
51
360
0
LINE
8
Black
10
15
20
-10.05
11
60
21
-10.05
0
LINE
8
Black
10
15
20
-9.95
11
60
21
-9.95
0
ARC
8
Black
10
60
20
-10
40
0.05
50
270
51
450
0
ARC
8
Black
10
15
20
-10
40
0.05
50
90
51
270
0
LINE
8
Black
10
10.05
20
-100
11
10.05
21
-15
0
LINE
8
Black
10
9.95
20
-100
11
9.95
21
-15
0
ARC
8
Black
10
10
20
-15
40
0.05
50
360
51
540
0
ARC
8
Black
10
10
20
-100
40
0.05
50
180
51
360
0
ARC
8
Black
10
15
20
-100
40
5
50
-180
51
-90
0
ARC
8
Black
10
60
20
-100
40
5
50
-90
51
-0
0
ARC
8
Black
10
60
20
-15
40
5
50
-0
51
90
0
ARC
8
Black
10
15
20
-15
40
5
50
90
51
180
0
LINE
8
Black
10
20.932
20
-28.044
11
21.232
21
-28.344
0
LINE
8
Black
10
21.232
20
-28.044
11
20.932
21
-28.344
0
LINE
8
Black
10
23.218
20
-22.71
11
23.518
21
-23.01
0
LINE
8
Black
10
23.518
20
-22.71
11
23.218
21
-23.01
0
LINE
8
Black
10
25.25
20
-30.33
11
25.55
21
-30.63
0
LINE
8
Black
10
25.55
20
-30.33
11
25.25
21
-30.63
0
LINE
8
Black
10
25.758
20
-55.222
11
26.058
21
-55.522
0
LINE
8
Black
10
26.058
20
-55.222
11
25.758
21
-55.522
0
LINE
8
Black
10
25.85
20
-65.85
11
26.15
21
-66.15
0
LINE
8
Black
10
26.15
20
-65.85
11
25.85
21
-66.15
0
LINE
8
Black
10
26.52
20
-48.872
11
26.82
21
-49.172
0
LINE
8
Black
10
26.82
20
-48.872
11
26.52
21
-49.172
0
LINE
8
Black
10
27.282
20
-29.06
11
27.582
21
-29.36
0
LINE
8
Black
10
27.582
20
-29.06
11
27.282
21
-29.36
0
LINE
8
Black
10
27.536
20
-51.412
11
27.836
21
-51.712
0
LINE
8
Black
10
27.836
20
-51.412
11
27.536
21
-51.712
0
LINE
8
Black
10
27.79
20
-23.98
11
28.09
21
-24.28
0
LINE
8
Black
10
28.09
20
-23.98
11
27.79
21
-24.28
0
LINE
8
Black
10
28.298
20
-64.874
11
28.598
21
-65.174
0
LINE
8
Black
10
28.598
20
-64.874
11
28.298
21
-65.174
0
LINE
8
Black
10
29.441
20
-50.904
11
29.741
21
-51.204
0
LINE
8
Black
10
29.741
20
-50.904
11
29.441
21
-51.204
0
LINE
8
Black
10
31.981
20
-50.65
11
32.281
21
-50.95
0
LINE
8
Black
10
32.281
20
-50.65
11
31.981
21
-50.95
0
LINE
8
Black
10
32.35
20
-29.1
11
32.65
21
-29.4
0
LINE
8
Black
10
32.65
20
-29.1
11
32.35
21
-29.4
0
LINE
8
Black
10
32.87
20
-37.315
11
33.17
21
-37.615
0
LINE
8
Black
10
33.17
20
-37.315
11
32.87
21
-37.615
0
LINE
8
Black
10
33.632
20
-58.016
11
33.932
21
-58.316
0
LINE
8
Black
10
33.932
20
-58.016
11
33.632
21
-58.316
0
LINE
8
Black
10
33.632
20
-59.286
11
33.932
21
-59.586
0
LINE
8
Black
10
33.932
20
-59.286
11
33.632
21
-59.586
0
LINE
8
Black
10
34.648
20
-18.519
11
34.948
21
-18.819
0
LINE
8
Black
10
34.948
20
-18.519
11
34.648
21
-18.819
0
LINE
8
Black
10
35.41
20
-85.575
11
35.71
21
-85.875
0
LINE
8
Black
10
35.71
20
-85.575
11
35.41
21
-85.875
0
LINE
8
Black
10
35.791
20
-76.431
11
36.091
21
-76.731
0
LINE
8
Black
10
36.091
20
-76.431
11
35.791
21
-76.731
0
LINE
8
Black
10
37.95
20
-58.651
11
38.25
21
-58.951
0
LINE
8
Black
10
38.25
20
-58.651
11
37.95
21
-58.951
0
LINE
8
Black
10
38.077
20
-37.315
11
38.377
21
-37.615
0
LINE
8
Black
10
38.377
20
-37.315
11
38.077
21
-37.615
0
LINE
8
Black
10
38.712
20
-20.678
11
39.012
21
-20.978
0
LINE
8
Black
10
39.012
20
-20.678
11
38.712
21
-20.978
0
LINE
8
Black
10
39.474
20
-63.35
11
39.774
21
-63.65
0
LINE
8
Black
10
39.774
20
-63.35
11
39.474
21
-63.65
0
LINE
8
Black
10
39.728
20
-48.618
11
40.028
21
-48.918
0
LINE
8
Black
10
40.028
20
-48.618
11
39.728
21
-48.918
0
LINE
8
Black
10
39.728
20
-72.748
11
40.028
21
-73.048
0
LINE
8
Black
10
40.028
20
-72.748
11
39.728
21
-73.048
0
LINE
8
Black
10
40.236
20
-58.524
11
40.536
21
-58.824
0
LINE
8
Black
10
40.536
20
-58.524
11
40.236
21
-58.824
0
LINE
8
Black
10
40.49
20
-29.314
11
40.79
21
-29.614
0
LINE
8
Black
10
40.79
20
-29.314
11
40.49
21
-29.614
0
LINE
8
Black
10
40.49
20
-34.648
11
40.79
21
-34.948
0
LINE
8
Black
10
40.79
20
-34.648
11
40.49
21
-34.948
0
LINE
8
Black
10
41.506
20
-72.748
11
41.806
21
-73.048
0
LINE
8
Black
10
41.806
20
-72.748
11
41.506
21
-73.048
0
LINE
8
Black
10
41.506
20
-87.226
11
41.806
21
-87.526
0
LINE
8
Black
10
41.806
20
-87.226
11
41.506
21
-87.526
0
LINE
8
Black
10
42.268
20
-61.064
11
42.568
21
-61.364
0
LINE
8
Black
10
42.568
20
-61.064
11
42.268
21
-61.364
0
LINE
8
Black
10
42.776
20
-85.575
11
43.076
21
-85.875
0
LINE
8
Black
10
43.076
20
-85.575
11
42.776
21
-85.875
0
LINE
8
Black
10
42.776
20
-90.401
11
43.076
21
-90.701
0
LINE
8
Black
10
43.076
20
-90.401
11
42.776
21
-90.701
0
LINE
8
Black
10
43.03
20
-39.22
11
43.33
21
-39.52
0
LINE
8
Black
10
43.33
20
-39.22
11
43.03
21
-39.52
0
LINE
8
Black
10
43.03
20
-61.826
11
43.33
21
-62.126
0
LINE
8
Black
10
43.33
20
-61.826
11
43.03
21
-62.126
0
LINE
8
Black
10
43.284
20
-44.3
11
43.584
21
-44.6
0
LINE
8
Black
10
43.584
20
-44.3
11
43.284
21
-44.6
0
LINE
8
Black
10
43.538
20
-59.794
11
43.838
21
-60.094
0
LINE
8
Black
10
43.838
20
-59.794
11
43.538
21
-60.094
0
LINE
8
Black
10
43.792
20
-60.556
11
44.092
21
-60.856
0
LINE
8
Black
10
44.092
20
-60.556
11
43.792
21
-60.856
0
LINE
8
Black
10
45.062
20
-59.54
11
45.362
21
-59.84
0
LINE
8
Black
10
45.362
20
-59.54
11
45.062
21
-59.84
0
LINE
8
Black
10
45.189
20
-45.951
11
45.489
21
-46.251
0
LINE
8
Black
10
45.489
20
-45.951
11
45.189
21
-46.251
0
LINE
8
Black
10
45.824
20
-51.285
11
46.124
21
-51.585
0
LINE
8
Black
10
46.124
20
-51.285
11
45.824
21
-51.585
0
LINE
8
Black
10
46.586
20
-70.97
11
46.886
21
-71.27
0
LINE
8
Black
10
46.886
20
-70.97
11
46.586
21
-71.27
0
LINE
8
Black
10
48.359
20
-28.489
11
48.659
21
-28.789
0
LINE
8
Black
10
48.659
20
-28.489
11
48.359
21
-28.789
0
LINE
8
Black
10
48.491
20
-64.874
11
48.791
21
-65.174
0
LINE
8
Black
10
48.791
20
-64.874
11
48.491
21
-65.174
0
LINE
8
Black
10
48.872
20
-54.333
11
49.172
21
-54.633
0
LINE
8
Black
10
49.172
20
-54.333
11
48.872
21
-54.633
0
LINE
8
Black
10
48.872
20
-57.635
11
49.172
21
-57.935
0
LINE
8
Black
10
49.172
20
-57.635
11
48.872
21
-57.935
0
LINE
8
Black
10
49.761
20
-17.122
11
50.061
21
-17.422
0
LINE
8
Black
10
50.061
20
-17.122
11
49.761
21
-17.422
0
LINE
8
Black
10
50.396
20
-53.698
11
50.696
21
-53.998
0
LINE
8
Black
10
50.696
20
-53.698
11
50.396
21
-53.998
0
LINE
8
Black
10
60.556
20
-37.696
11
60.856
21
-37.996
0
LINE
8
Black
10
60.856
20
-37.696
11
60.556
21
-37.996
0
LINE
8
Black
10
61.191
20
-44.681
11
61.491
21
-44.981
0
LINE
8
Black
10
61.491
20
-44.681
11
61.191
21
-44.981
0
CIRCLE
8
Black
10
34.3891
20
-43.688
40
0.40005
0
CIRCLE
8
Black
10
39.2709
20
-43.688
40
0.40005
0
LINE
8
Black
10
54.356
20
-48.395
11
54.356
21
-49.395
0
LINE
8
Black
10
53.856
20
-48.895
11
54.856
21
-48.895
0
LINE
8
Black
10
54.356
20
-50.935
11
54.356
21
-51.935
0
LINE
8
Black
10
53.856
20
-51.435
11
54.856
21
-51.435
0
LINE
8
Black
10
54.356
20
-53.475
11
54.356
21
-54.475
0
LINE
8
Black
10
53.856
20
-53.975
11
54.856
21
-53.975
0
LINE
8
Black
10
54.356
20
-56.015
11
54.356
21
-57.015
0
LINE
8
Black
10
53.856
20
-56.515
11
54.856
21
-56.515
0
LINE
8
Black
10
54.356
20
-64.524
11
54.356
21
-65.524
0
LINE
8
Black
10
53.856
20
-65.024
11
54.856
21
-65.024
0
LINE
8
Black
10
54.356
20
-67.064
11
54.356
21
-68.064
0
LINE
8
Black
10
53.856
20
-67.564
11
54.856
21
-67.564
0
LINE
8
Black
10
54.356
20
-69.604
11
54.356
21
-70.604
0
LINE
8
Black
10
53.856
20
-70.104
11
54.856
21
-70.104
0
LINE
8
Black
10
54.356
20
-72.144
11
54.356
21
-73.144
0
LINE
8
Black
10
53.856
20
-72.644
11
54.856
21
-72.644
0
LINE
8
Black
10
54.356
20
-74.684
11
54.356
21
-75.684
0
LINE
8
Black
10
53.856
20
-75.184
11
54.856
21
-75.184
0
LINE
8
Black
10
54.356
20
-77.224
11
54.356
21
-78.224
0
LINE
8
Black
10
53.856
20
-77.724
11
54.856
21
-77.724
0
LINE
8
Black
10
21.3142
20
-34.6492
11
21.3142
21
-33.9308
0
LINE
8
Black
10
21.3142
20
-33.9308
11
20.5958
21
-33.9308
0
LINE
8
Black
10
20.5958
20
-33.9308
11
20.5958
21
-34.6492
0
LINE
8
Black
10
20.5958
20
-34.6492
11
21.3142
21
-34.6492
0
LINE
8
Black
10
21.3142
20
-37.1892
11
21.3142
21
-36.4708
0
LINE
8
Black
10
21.3142
20
-36.4708
11
20.5958
21
-36.4708
0
LINE
8
Black
10
20.5958
20
-36.4708
11
20.5958
21
-37.1892
0
LINE
8
Black
10
20.5958
20
-37.1892
11
21.3142
21
-37.1892
0
LINE
8
Black
10
21.3142
20
-39.7292
11
21.3142
21
-39.0108
0
LINE
8
Black
10
21.3142
20
-39.0108
11
20.5958
21
-39.0108
0
LINE
8
Black
10
20.5958
20
-39.0108
11
20.5958
21
-39.7292
0
LINE
8
Black
10
20.5958
20
-39.7292
11
21.3142
21
-39.7292
0
LINE
8
Black
10
21.3142
20
-42.2692
11
21.3142
21
-41.5508
0
LINE
8
Black
10
21.3142
20
-41.5508
11
20.5958
21
-41.5508
0
LINE
8
Black
10
20.5958
20
-41.5508
11
20.5958
21
-42.2692
0
LINE
8
Black
10
20.5958
20
-42.2692
11
21.3142
21
-42.2692
0
LINE
8
Black
10
21.3142
20
-44.8092
11
21.3142
21
-44.0908
0
LINE
8
Black
10
21.3142
20
-44.0908
11
20.5958
21
-44.0908
0
LINE
8
Black
10
20.5958
20
-44.0908
11
20.5958
21
-44.8092
0
LINE
8
Black
10
20.5958
20
-44.8092
11
21.3142
21
-44.8092
0
LINE
8
Black
10
21.3142
20
-47.3492
11
21.3142
21
-46.6308
0
LINE
8
Black
10
21.3142
20
-46.6308
11
20.5958
21
-46.6308
0
LINE
8
Black
10
20.5958
20
-46.6308
11
20.5958
21
-47.3492
0
LINE
8
Black
10
20.5958
20
-47.3492
11
21.3142
21
-47.3492
0
LINE
8
Black
10
21.3142
20
-49.8892
11
21.3142
21
-49.1708
0
LINE
8
Black
10
21.3142
20
-49.1708
11
20.5958
21
-49.1708
0
LINE
8
Black
10
20.5958
20
-49.1708
11
20.5958
21
-49.8892
0
LINE
8
Black
10
20.5958
20
-49.8892
11
21.3142
21
-49.8892
0
LINE
8
Black
10
21.3142
20
-52.4292
11
21.3142
21
-51.7108
0
LINE
8
Black
10
21.3142
20
-51.7108
11
20.5958
21
-51.7108
0
LINE
8
Black
10
20.5958
20
-51.7108
11
20.5958
21
-52.4292
0
LINE
8
Black
10
20.5958
20
-52.4292
11
21.3142
21
-52.4292
0
LINE
8
Black
10
21.3142
20
-54.9692
11
21.3142
21
-54.2508
0
LINE
8
Black
10
21.3142
20
-54.2508
11
20.5958
21
-54.2508
0
LINE
8
Black
10
20.5958
20
-54.2508
11
20.5958
21
-54.9692
0
LINE
8
Black
10
20.5958
20
-54.9692
11
21.3142
21
-54.9692
0
LINE
8
Black
10
21.3142
20
-57.5092
11
21.3142
21
-56.7908
0
LINE
8
Black
10
21.3142
20
-56.7908
11
20.5958
21
-56.7908
0
LINE
8
Black
10
20.5958
20
-56.7908
11
20.5958
21
-57.5092
0
LINE
8
Black
10
20.5958
20
-57.5092
11
21.3142
21
-57.5092
0
LINE
8
Black
10
21.3142
20
-60.0492
11
21.3142
21
-59.3308
0
LINE
8
Black
10
21.3142
20
-59.3308
11
20.5958
21
-59.3308
0
LINE
8
Black
10
20.5958
20
-59.3308
11
20.5958
21
-60.0492
0
LINE
8
Black
10
20.5958
20
-60.0492
11
21.3142
21
-60.0492
0
LINE
8
Black
10
21.3142
20
-62.5892
11
21.3142
21
-61.8708
0
LINE
8
Black
10
21.3142
20
-61.8708
11
20.5958
21
-61.8708
0
LINE
8
Black
10
20.5958
20
-61.8708
11
20.5958
21
-62.5892
0
LINE
8
Black
10
20.5958
20
-62.5892
11
21.3142
21
-62.5892
0
LINE
8
Black
10
21.3142
20
-65.1292
11
21.3142
21
-64.4108
0
LINE
8
Black
10
21.3142
20
-64.4108
11
20.5958
21
-64.4108
0
LINE
8
Black
10
20.5958
20
-64.4108
11
20.5958
21
-65.1292
0
LINE
8
Black
10
20.5958
20
-65.1292
11
21.3142
21
-65.1292
0
LINE
8
Black
10
21.3142
20
-67.6692
11
21.3142
21
-66.9508
0
LINE
8
Black
10
21.3142
20
-66.9508
11
20.5958
21
-66.9508
0
LINE
8
Black
10
20.5958
20
-66.9508
11
20.5958
21
-67.6692
0
LINE
8
Black
10
20.5958
20
-67.6692
11
21.3142
21
-67.6692
0
LINE
8
Black
10
21.3142
20
-70.2092
11
21.3142
21
-69.4908
0
LINE
8
Black
10
21.3142
20
-69.4908
11
20.5958
21
-69.4908
0
LINE
8
Black
10
20.5958
20
-69.4908
11
20.5958
21
-70.2092
0
LINE
8
Black
10
20.5958
20
-70.2092
11
21.3142
21
-70.2092
0
LINE
8
Black
10
21.3142
20
-72.7492
11
21.3142
21
-72.0308
0
LINE
8
Black
10
21.3142
20
-72.0308
11
20.5958
21
-72.0308
0
LINE
8
Black
10
20.5958
20
-72.0308
11
20.5958
21
-72.7492
0
LINE
8
Black
10
20.5958
20
-72.7492
11
21.3142
21
-72.7492
0
LINE
8
Black
10
21.3142
20
-75.2892
11
21.3142
21
-74.5708
0
LINE
8
Black
10
21.3142
20
-74.5708
11
20.5958
21
-74.5708
0
LINE
8
Black
10
20.5958
20
-74.5708
11
20.5958
21
-75.2892
0
LINE
8
Black
10
20.5958
20
-75.2892
11
21.3142
21
-75.2892
0
LINE
8
Black
10
21.3142
20
-77.8292
11
21.3142
21
-77.1108
0
LINE
8
Black
10
21.3142
20
-77.1108
11
20.5958
21
-77.1108
0
LINE
8
Black
10
20.5958
20
-77.1108
11
20.5958
21
-77.8292
0
LINE
8
Black
10
20.5958
20
-77.8292
11
21.3142
21
-77.8292
0
LINE
8
Black
10
21.3142
20
-80.3692
11
21.3142
21
-79.6508
0
LINE
8
Black
10
21.3142
20
-79.6508
11
20.5958
21
-79.6508
0
LINE
8
Black
10
20.5958
20
-79.6508
11
20.5958
21
-80.3692
0
LINE
8
Black
10
20.5958
20
-80.3692
11
21.3142
21
-80.3692
0
LINE
8
Black
10
21.3142
20
-82.9092
11
21.3142
21
-82.1908
0
LINE
8
Black
10
21.3142
20
-82.1908
11
20.5958
21
-82.1908
0
LINE
8
Black
10
20.5958
20
-82.1908
11
20.5958
21
-82.9092
0
LINE
8
Black
10
20.5958
20
-82.9092
11
21.3142
21
-82.9092
0
LINE
8
Black
10
23.8542
20
-34.6492
11
23.8542
21
-33.9308
0
LINE
8
Black
10
23.8542
20
-33.9308
11
23.1358
21
-33.9308
0
LINE
8
Black
10
23.1358
20
-33.9308
11
23.1358
21
-34.6492
0
LINE
8
Black
10
23.1358
20
-34.6492
11
23.8542
21
-34.6492
0
LINE
8
Black
10
23.8542
20
-37.1892
11
23.8542
21
-36.4708
0
LINE
8
Black
10
23.8542
20
-36.4708
11
23.1358
21
-36.4708
0
LINE
8
Black
10
23.1358
20
-36.4708
11
23.1358
21
-37.1892
0
LINE
8
Black
10
23.1358
20
-37.1892
11
23.8542
21
-37.1892
0
LINE
8
Black
10
23.8542
20
-39.7292
11
23.8542
21
-39.0108
0
LINE
8
Black
10
23.8542
20
-39.0108
11
23.1358
21
-39.0108
0
LINE
8
Black
10
23.1358
20
-39.0108
11
23.1358
21
-39.7292
0
LINE
8
Black
10
23.1358
20
-39.7292
11
23.8542
21
-39.7292
0
LINE
8
Black
10
23.8542
20
-42.2692
11
23.8542
21
-41.5508
0
LINE
8
Black
10
23.8542
20
-41.5508
11
23.1358
21
-41.5508
0
LINE
8
Black
10
23.1358
20
-41.5508
11
23.1358
21
-42.2692
0
LINE
8
Black
10
23.1358
20
-42.2692
11
23.8542
21
-42.2692
0
LINE
8
Black
10
23.8542
20
-44.8092
11
23.8542
21
-44.0908
0
LINE
8
Black
10
23.8542
20
-44.0908
11
23.1358
21
-44.0908
0
LINE
8
Black
10
23.1358
20
-44.0908
11
23.1358
21
-44.8092
0
LINE
8
Black
10
23.1358
20
-44.8092
11
23.8542
21
-44.8092
0
LINE
8
Black
10
23.8542
20
-47.3492
11
23.8542
21
-46.6308
0
LINE
8
Black
10
23.8542
20
-46.6308
11
23.1358
21
-46.6308
0
LINE
8
Black
10
23.1358
20
-46.6308
11
23.1358
21
-47.3492
0
LINE
8
Black
10
23.1358
20
-47.3492
11
23.8542
21
-47.3492
0
LINE
8
Black
10
23.8542
20
-49.8892
11
23.8542
21
-49.1708
0
LINE
8
Black
10
23.8542
20
-49.1708
11
23.1358
21
-49.1708
0
LINE
8
Black
10
23.1358
20
-49.1708
11
23.1358
21
-49.8892
0
LINE
8
Black
10
23.1358
20
-49.8892
11
23.8542
21
-49.8892
0
LINE
8
Black
10
23.8542
20
-52.4292
11
23.8542
21
-51.7108
0
LINE
8
Black
10
23.8542
20
-51.7108
11
23.1358
21
-51.7108
0
LINE
8
Black
10
23.1358
20
-51.7108
11
23.1358
21
-52.4292
0
LINE
8
Black
10
23.1358
20
-52.4292
11
23.8542
21
-52.4292
0
LINE
8
Black
10
23.8542
20
-54.9692
11
23.8542
21
-54.2508
0
LINE
8
Black
10
23.8542
20
-54.2508
11
23.1358
21
-54.2508
0
LINE
8
Black
10
23.1358
20
-54.2508
11
23.1358
21
-54.9692
0
LINE
8
Black
10
23.1358
20
-54.9692
11
23.8542
21
-54.9692
0
LINE
8
Black
10
23.8542
20
-57.5092
11
23.8542
21
-56.7908
0
LINE
8
Black
10
23.8542
20
-56.7908
11
23.1358
21
-56.7908
0
LINE
8
Black
10
23.1358
20
-56.7908
11
23.1358
21
-57.5092
0
LINE
8
Black
10
23.1358
20
-57.5092
11
23.8542
21
-57.5092
0
LINE
8
Black
10
23.8542
20
-60.0492
11
23.8542
21
-59.3308
0
LINE
8
Black
10
23.8542
20
-59.3308
11
23.1358
21
-59.3308
0
LINE
8
Black
10
23.1358
20
-59.3308
11
23.1358
21
-60.0492
0
LINE
8
Black
10
23.1358
20
-60.0492
11
23.8542
21
-60.0492
0
LINE
8
Black
10
23.8542
20
-62.5892
11
23.8542
21
-61.8708
0
LINE
8
Black
10
23.8542
20
-61.8708
11
23.1358
21
-61.8708
0
LINE
8
Black
10
23.1358
20
-61.8708
11
23.1358
21
-62.5892
0
LINE
8
Black
10
23.1358
20
-62.5892
11
23.8542
21
-62.5892
0
LINE
8
Black
10
23.8542
20
-65.1292
11
23.8542
21
-64.4108
0
LINE
8
Black
10
23.8542
20
-64.4108
11
23.1358
21
-64.4108
0
LINE
8
Black
10
23.1358
20
-64.4108
11
23.1358
21
-65.1292
0
LINE
8
Black
10
23.1358
20
-65.1292
11
23.8542
21
-65.1292
0
LINE
8
Black
10
23.8542
20
-67.6692
11
23.8542
21
-66.9508
0
LINE
8
Black
10
23.8542
20
-66.9508
11
23.1358
21
-66.9508
0
LINE
8
Black
10
23.1358
20
-66.9508
11
23.1358
21
-67.6692
0
LINE
8
Black
10
23.1358
20
-67.6692
11
23.8542
21
-67.6692
0
LINE
8
Black
10
23.8542
20
-70.2092
11
23.8542
21
-69.4908
0
LINE
8
Black
10
23.8542
20
-69.4908
11
23.1358
21
-69.4908
0
LINE
8
Black
10
23.1358
20
-69.4908
11
23.1358
21
-70.2092
0
LINE
8
Black
10
23.1358
20
-70.2092
11
23.8542
21
-70.2092
0
LINE
8
Black
10
23.8542
20
-72.7492
11
23.8542
21
-72.0308
0
LINE
8
Black
10
23.8542
20
-72.0308
11
23.1358
21
-72.0308
0
LINE
8
Black
10
23.1358
20
-72.0308
11
23.1358
21
-72.7492
0
LINE
8
Black
10
23.1358
20
-72.7492
11
23.8542
21
-72.7492
0
LINE
8
Black
10
23.8542
20
-75.2892
11
23.8542
21
-74.5708
0
LINE
8
Black
10
23.8542
20
-74.5708
11
23.1358
21
-74.5708
0
LINE
8
Black
10
23.1358
20
-74.5708
11
23.1358
21
-75.2892
0
LINE
8
Black
10
23.1358
20
-75.2892
11
23.8542
21
-75.2892
0
LINE
8
Black
10
23.8542
20
-77.8292
11
23.8542
21
-77.1108
0
LINE
8
Black
10
23.8542
20
-77.1108
11
23.1358
21
-77.1108
0
LINE
8
Black
10
23.1358
20
-77.1108
11
23.1358
21
-77.8292
0
LINE
8
Black
10
23.1358
20
-77.8292
11
23.8542
21
-77.8292
0
LINE
8
Black
10
23.8542
20
-80.3692
11
23.8542
21
-79.6508
0
LINE
8
Black
10
23.8542
20
-79.6508
11
23.1358
21
-79.6508
0
LINE
8
Black
10
23.1358
20
-79.6508
11
23.1358
21
-80.3692
0
LINE
8
Black
10
23.1358
20
-80.3692
11
23.8542
21
-80.3692
0
LINE
8
Black
10
23.8542
20
-82.9092
11
23.8542
21
-82.1908
0
LINE
8
Black
10
23.8542
20
-82.1908
11
23.1358
21
-82.1908
0
LINE
8
Black
10
23.1358
20
-82.1908
11
23.1358
21
-82.9092
0
LINE
8
Black
10
23.1358
20
-82.9092
11
23.8542
21
-82.9092
0
LINE
8
Black
10
25.5052
20
-90.1482
11
25.5052
21
-89.4298
0
LINE
8
Black
10
25.5052
20
-89.4298
11
24.7868
21
-89.4298
0
LINE
8
Black
10
24.7868
20
-89.4298
11
24.7868
21
-90.1482
0
LINE
8
Black
10
24.7868
20
-90.1482
11
25.5052
21
-90.1482
0
LINE
8
Black
10
27.7912
20
-33.3792
11
27.7912
21
-32.6608
0
LINE
8
Black
10
27.7912
20
-32.6608
11
27.0728
21
-32.6608
0
LINE
8
Black
10
27.0728
20
-32.6608
11
27.0728
21
-33.3792
0
LINE
8
Black
10
27.0728
20
-33.3792
11
27.7912
21
-33.3792
0
LINE
8
Black
10
28.0452
20
-90.1482
11
28.0452
21
-89.4298
0
LINE
8
Black
10
28.0452
20
-89.4298
11
27.3268
21
-89.4298
0
LINE
8
Black
10
27.3268
20
-89.4298
11
27.3268
21
-90.1482
0
LINE
8
Black
10
27.3268
20
-90.1482
11
28.0452
21
-90.1482
0
LINE
8
Black
10
29.8232
20
-77.3212
11
29.8232
21
-76.6028
0
LINE
8
Black
10
29.8232
20
-76.6028
11
29.1048
21
-76.6028
0
LINE
8
Black
10
29.1048
20
-76.6028
11
29.1048
21
-77.3212
0
LINE
8
Black
10
29.1048
20
-77.3212
11
29.8232
21
-77.3212
0
LINE
8
Black
10
29.8232
20
-79.8612
11
29.8232
21
-79.1428
0
LINE
8
Black
10
29.8232
20
-79.1428
11
29.1048
21
-79.1428
0
LINE
8
Black
10
29.1048
20
-79.1428
11
29.1048
21
-79.8612
0
LINE
8
Black
10
29.1048
20
-79.8612
11
29.8232
21
-79.8612
0
LINE
8
Black
10
29.8232
20
-82.4012
11
29.8232
21
-81.6828
0
LINE
8
Black
10
29.8232
20
-81.6828
11
29.1048
21
-81.6828
0
LINE
8
Black
10
29.1048
20
-81.6828
11
29.1048
21
-82.4012
0
LINE
8
Black
10
29.1048
20
-82.4012
11
29.8232
21
-82.4012
0
LINE
8
Black
10
30.3312
20
-33.3792
11
30.3312
21
-32.6608
0
LINE
8
Black
10
30.3312
20
-32.6608
11
29.6128
21
-32.6608
0
LINE
8
Black
10
29.6128
20
-32.6608
11
29.6128
21
-33.3792
0
LINE
8
Black
10
29.6128
20
-33.3792
11
30.3312
21
-33.3792
0
LINE
8
Black
10
32.8712
20
-33.3792
11
32.8712
21
-32.6608
0
LINE
8
Black
10
32.8712
20
-32.6608
11
32.1528
21
-32.6608
0
LINE
8
Black
10
32.1528
20
-32.6608
11
32.1528
21
-33.3792
0
LINE
8
Black
10
32.1528
20
-33.3792
11
32.8712
21
-33.3792
0
LINE
8
Black
10
39.4752
20
-92.0532
11
39.4752
21
-91.3348
0
LINE
8
Black
10
39.4752
20
-91.3348
11
38.7568
21
-91.3348
0
LINE
8
Black
10
38.7568
20
-91.3348
11
38.7568
21
-92.0532
0
LINE
8
Black
10
38.7568
20
-92.0532
11
39.4752
21
-92.0532
0
LINE
8
Black
10
39.4752
20
-94.5932
11
39.4752
21
-93.8748
0
LINE
8
Black
10
39.4752
20
-93.8748
11
38.7568
21
-93.8748
0
LINE
8
Black
10
38.7568
20
-93.8748
11
38.7568
21
-94.5932
0
LINE
8
Black
10
38.7568
20
-94.5932
11
39.4752
21
-94.5932
0
LINE
8
Black
10
42.0152
20
-92.0532
11
42.0152
21
-91.3348
0
LINE
8
Black
10
42.0152
20
-91.3348
11
41.2968
21
-91.3348
0
LINE
8
Black
10
41.2968
20
-91.3348
11
41.2968
21
-92.0532
0
LINE
8
Black
10
41.2968
20
-92.0532
11
42.0152
21
-92.0532
0
LINE
8
Black
10
42.0152
20
-94.5932
11
42.0152
21
-93.8748
0
LINE
8
Black
10
42.0152
20
-93.8748
11
41.2968
21
-93.8748
0
LINE
8
Black
10
41.2968
20
-93.8748
11
41.2968
21
-94.5932
0
LINE
8
Black
10
41.2968
20
-94.5932
11
42.0152
21
-94.5932
0
LINE
8
Black
10
54.4612
20
-83.4172
11
54.4612
21
-82.6988
0
LINE
8
Black
10
54.4612
20
-82.6988
11
53.7428
21
-82.6988
0
LINE
8
Black
10
53.7428
20
-82.6988
11
53.7428
21
-83.4172
0
LINE
8
Black
10
53.7428
20
-83.4172
11
54.4612
21
-83.4172
0
LINE
8
Black
10
54.4612
20
-85.9572
11
54.4612
21
-85.2388
0
LINE
8
Black
10
54.4612
20
-85.2388
11
53.7428
21
-85.2388
0
LINE
8
Black
10
53.7428
20
-85.2388
11
53.7428
21
-85.9572
0
LINE
8
Black
10
53.7428
20
-85.9572
11
54.4612
21
-85.9572
0
LINE
8
Black
10
54.4612
20
-88.4972
11
54.4612
21
-87.7788
0
LINE
8
Black
10
54.4612
20
-87.7788
11
53.7428
21
-87.7788
0
LINE
8
Black
10
53.7428
20
-87.7788
11
53.7428
21
-88.4972
0
LINE
8
Black
10
53.7428
20
-88.4972
11
54.4612
21
-88.4972
0
LINE
8
Black
10
54.4612
20
-91.0372
11
54.4612
21
-90.3188
0
LINE
8
Black
10
54.4612
20
-90.3188
11
53.7428
21
-90.3188
0
LINE
8
Black
10
53.7428
20
-90.3188
11
53.7428
21
-91.0372
0
LINE
8
Black
10
53.7428
20
-91.0372
11
54.4612
21
-91.0372
0
LINE
8
Black
10
58.674
20
-26.162
11
59.944
21
-24.892
0
LINE
8
Black
10
59.944
20
-24.892
11
58.674
21
-23.622
0
LINE
8
Black
10
58.674
20
-23.622
11
57.404
21
-24.892
0
LINE
8
Black
10
57.404
20
-24.892
11
58.674
21
-26.162
0
LINE
8
Black
10
60.96
20
-31.242
11
62.23
21
-29.972
0
LINE
8
Black
10
62.23
20
-29.972
11
60.96
21
-28.702
0
LINE
8
Black
10
60.96
20
-28.702
11
59.69
21
-29.972
0
LINE
8
Black
10
59.69
20
-29.972
11
60.96
21
-31.242
0
LINE
8
Black
10
53.34
20
-28.448
11
56.388
21
-31.496
0
LINE
8
Black
10
56.388
20
-28.448
11
53.34
21
-31.496
0
CIRCLE
8
Black
10
54.864
20
-29.972
40
1.524
0
LINE
8
Black
10
14.0823
20
-14.0823
11
17.9177
21
-17.9177
0
LINE
8
Black
10
17.9177
20
-14.0823
11
14.0823
21
-17.9177
0
LINE
8
Black
10
16
20
-14.0823
11
16
21
-17.9177
0
LINE
8
Black
10
14.0823
20
-16
11
17.9177
21
-16
0
LINE
8
Black
10
14.0823
20
-97.0823
11
17.9177
21
-100.918
0
LINE
8
Black
10
17.9177
20
-97.0823
11
14.0823
21
-100.918
0
LINE
8
Black
10
16
20
-97.0823
11
16
21
-100.918
0
LINE
8
Black
10
14.0823
20
-99
11
17.9177
21
-99
0
LINE
8
Black
10
57.0823
20
-14.0823
11
60.9177
21
-17.9177
0
LINE
8
Black
10
60.9177
20
-14.0823
11
57.0823
21
-17.9177
0
LINE
8
Black
10
59
20
-14.0823
11
59
21
-17.9177
0
LINE
8
Black
10
57.0823
20
-16
11
60.9177
21
-16
0
LINE
8
Black
10
57.0823
20
-97.0823
11
60.9177
21
-100.918
0
LINE
8
Black
10
60.9177
20
-97.0823
11
57.0823
21
-100.918
0
LINE
8
Black
10
59
20
-97.0823
11
59
21
-100.918
0
LINE
8
Black
10
57.0823
20
-99
11
60.9177
21
-99
0
LINE
8
Black
10
12.6643
20
-109.707
11
12.6643
21
-106.707
0
LINE
8
Black
10
12.6643
20
-106.707
11
13.3786
21
-106.707
0
LINE
8
Black
10
13.3786
20
-106.707
11
13.8071
21
-106.85
0
LINE
8
Black
10
13.8071
20
-106.85
11
14.0929
21
-107.136
0
LINE
8
Black
10
14.0929
20
-107.136
11
14.2357
21
-107.421
0
LINE
8
Black
10
14.2357
20
-107.421
11
14.3786
21
-107.993
0
LINE
8
Black
10
14.3786
20
-107.993
11
14.3786
21
-108.421
0
LINE
8
Black
10
14.3786
20
-108.421
11
14.2357
21
-108.993
0
LINE
8
Black
10
14.2357
20
-108.993
11
14.0929
21
-109.279
0
LINE
8
Black
10
14.0929
20
-109.279
11
13.8071
21
-109.564
0
LINE
8
Black
10
13.8071
20
-109.564
11
13.3786
21
-109.707
0
LINE
8
Black
10
13.3786
20
-109.707
11
12.6643
21
-109.707
0
LINE
8
Black
10
15.6643
20
-109.707
11
15.6643
21
-107.707
0
LINE
8
Black
10
15.6643
20
-108.279
11
15.8071
21
-107.993
0
LINE
8
Black
10
15.8071
20
-107.993
11
15.95
21
-107.85
0
LINE
8
Black
10
15.95
20
-107.85
11
16.2357
21
-107.707
0
LINE
8
Black
10
16.2357
20
-107.707
11
16.5214
21
-107.707
0
LINE
8
Black
10
17.5214
20
-109.707
11
17.5214
21
-107.707
0
LINE
8
Black
10
17.5214
20
-106.707
11
17.3786
21
-106.85
0
LINE
8
Black
10
17.3786
20
-106.85
11
17.5214
21
-106.993
0
LINE
8
Black
10
17.5214
20
-106.993
11
17.6643
21
-106.85
0
LINE
8
Black
10
17.6643
20
-106.85
11
17.5214
21
-106.707
0
LINE
8
Black
10
17.5214
20
-106.707
11
17.5214
21
-106.993
0
LINE
8
Black
10
19.3786
20
-109.707
11
19.0929
21
-109.564
0
LINE
8
Black
10
19.0929
20
-109.564
11
18.95
21
-109.279
0
LINE
8
Black
10
18.95
20
-109.279
11
18.95
21
-106.707
0
LINE
8
Black
10
20.95
20
-109.707
11
20.6643
21
-109.564
0
LINE
8
Black
10
20.6643
20
-109.564
11
20.5214
21
-109.279
0
LINE
8
Black
10
20.5214
20
-109.279
11
20.5214
21
-106.707
0
LINE
8
Black
10
24.3786
20
-109.707
11
24.3786
21
-106.707
0
LINE
8
Black
10
24.3786
20
-106.707
11
25.3786
21
-108.85
0
LINE
8
Black
10
25.3786
20
-108.85
11
26.3786
21
-106.707
0
LINE
8
Black
10
26.3786
20
-106.707
11
26.3786
21
-109.707
0
LINE
8
Black
10
29.0929
20
-109.707
11
29.0929
21
-108.136
0
LINE
8
Black
10
29.0929
20
-108.136
11
28.95
21
-107.85
0
LINE
8
Black
10
28.95
20
-107.85
11
28.6643
21
-107.707
0
LINE
8
Black
10
28.6643
20
-107.707
11
28.0929
21
-107.707
0
LINE
8
Black
10
28.0929
20
-107.707
11
27.8071
21
-107.85
0
LINE
8
Black
10
29.0929
20
-109.564
11
28.8071
21
-109.707
0
LINE
8
Black
10
28.8071
20
-109.707
11
28.0929
21
-109.707
0
LINE
8
Black
10
28.0929
20
-109.707
11
27.8071
21
-109.564
0
LINE
8
Black
10
27.8071
20
-109.564
11
27.6643
21
-109.279
0
LINE
8
Black
10
27.6643
20
-109.279
11
27.6643
21
-108.993
0
LINE
8
Black
10
27.6643
20
-108.993
11
27.8071
21
-108.707
0
LINE
8
Black
10
27.8071
20
-108.707
11
28.0929
21
-108.564
0
LINE
8
Black
10
28.0929
20
-108.564
11
28.8071
21
-108.564
0
LINE
8
Black
10
28.8071
20
-108.564
11
29.0929
21
-108.421
0
LINE
8
Black
10
30.5214
20
-107.707
11
30.5214
21
-110.707
0
LINE
8
Black
10
30.5214
20
-107.85
11
30.8071
21
-107.707
0
LINE
8
Black
10
30.8071
20
-107.707
11
31.3786
21
-107.707
0
LINE
8
Black
10
31.3786
20
-107.707
11
31.6643
21
-107.85
0
LINE
8
Black
10
31.6643
20
-107.85
11
31.8071
21
-107.993
0
LINE
8
Black
10
31.8071
20
-107.993
11
31.95
21
-108.279
0
LINE
8
Black
10
31.95
20
-108.279
11
31.95
21
-109.136
0
LINE
8
Black
10
31.95
20
-109.136
11
31.8071
21
-109.421
0
LINE
8
Black
10
31.8071
20
-109.421
11
31.6643
21
-109.564
0
LINE
8
Black
10
31.6643
20
-109.564
11
31.3786
21
-109.707
0
LINE
8
Black
10
31.3786
20
-109.707
11
30.8071
21
-109.707
0
LINE
8
Black
10
30.8071
20
-109.707
11
30.5214
21
-109.564
0
LINE
8
Black
10
33.2357
20
-109.421
11
33.3786
21
-109.564
0
LINE
8
Black
10
33.3786
20
-109.564
11
33.2357
21
-109.707
0
LINE
8
Black
10
33.2357
20
-109.707
11
33.0929
21
-109.564
0
LINE
8
Black
10
33.0929
20
-109.564
11
33.2357
21
-109.421
0
LINE
8
Black
10
33.2357
20
-109.421
11
33.2357
21
-109.707
0
LINE
8
Black
10
33.2357
20
-107.85
11
33.3786
21
-107.993
0
LINE
8
Black
10
33.3786
20
-107.993
11
33.2357
21
-108.136
0
LINE
8
Black
10
33.2357
20
-108.136
11
33.0929
21
-107.993
0
LINE
8
Black
10
33.0929
20
-107.993
11
33.2357
21
-107.85
0
LINE
8
Black
10
33.2357
20
-107.85
11
33.2357
21
-108.136
0
LINE
8
Black
10
9.65
20
-114.5
11
9.95
21
-114.8
0
LINE
8
Black
10
9.95
20
-114.5
11
9.65
21
-114.8
0
LINE
8
Black
10
13.2357
20
-113.007
11
13.5214
21
-113.007
0
LINE
8
Black
10
13.5214
20
-113.007
11
13.8071
21
-113.15
0
LINE
8
Black
10
13.8071
20
-113.15
11
13.95
21
-113.293
0
LINE
8
Black
10
13.95
20
-113.293
11
14.0929
21
-113.579
0
LINE
8
Black
10
14.0929
20
-113.579
11
14.2357
21
-114.15
0
LINE
8
Black
10
14.2357
20
-114.15
11
14.2357
21
-114.864
0
LINE
8
Black
10
14.2357
20
-114.864
11
14.0929
21
-115.436
0
LINE
8
Black
10
14.0929
20
-115.436
11
13.95
21
-115.721
0
LINE
8
Black
10
13.95
20
-115.721
11
13.8071
21
-115.864
0
LINE
8
Black
10
13.8071
20
-115.864
11
13.5214
21
-116.007
0
LINE
8
Black
10
13.5214
20
-116.007
11
13.2357
21
-116.007
0
LINE
8
Black
10
13.2357
20
-116.007
11
12.95
21
-115.864
0
LINE
8
Black
10
12.95
20
-115.864
11
12.8071
21
-115.721
0
LINE
8
Black
10
12.8071
20
-115.721
11
12.6643
21
-115.436
0
LINE
8
Black
10
12.6643
20
-115.436
11
12.5214
21
-114.864
0
LINE
8
Black
10
12.5214
20
-114.864
11
12.5214
21
-114.15
0
LINE
8
Black
10
12.5214
20
-114.15
11
12.6643
21
-113.579
0
LINE
8
Black
10
12.6643
20
-113.579
11
12.8071
21
-113.293
0
LINE
8
Black
10
12.8071
20
-113.293
11
12.95
21
-113.15
0
LINE
8
Black
10
12.95
20
-113.15
11
13.2357
21
-113.007
0
LINE
8
Black
10
15.5214
20
-115.721
11
15.6643
21
-115.864
0
LINE
8
Black
10
15.6643
20
-115.864
11
15.5214
21
-116.007
0
LINE
8
Black
10
15.5214
20
-116.007
11
15.3786
21
-115.864
0
LINE
8
Black
10
15.3786
20
-115.864
11
15.5214
21
-115.721
0
LINE
8
Black
10
15.5214
20
-115.721
11
15.5214
21
-116.007
0
LINE
8
Black
10
16.6643
20
-113.007
11
18.5214
21
-113.007
0
LINE
8
Black
10
18.5214
20
-113.007
11
17.5214
21
-114.15
0
LINE
8
Black
10
17.5214
20
-114.15
11
17.95
21
-114.15
0
LINE
8
Black
10
17.95
20
-114.15
11
18.2357
21
-114.293
0
LINE
8
Black
10
18.2357
20
-114.293
11
18.3786
21
-114.436
0
LINE
8
Black
10
18.3786
20
-114.436
11
18.5214
21
-114.721
0
LINE
8
Black
10
18.5214
20
-114.721
11
18.5214
21
-115.436
0
LINE
8
Black
10
18.5214
20
-115.436
11
18.3786
21
-115.721
0
LINE
8
Black
10
18.3786
20
-115.721
11
18.2357
21
-115.864
0
LINE
8
Black
10
18.2357
20
-115.864
11
17.95
21
-116.007
0
LINE
8
Black
10
17.95
20
-116.007
11
17.0929
21
-116.007
0
LINE
8
Black
10
17.0929
20
-116.007
11
16.8071
21
-115.864
0
LINE
8
Black
10
16.8071
20
-115.864
11
16.6643
21
-115.721
0
LINE
8
Black
10
20.3786
20
-113.007
11
20.6643
21
-113.007
0
LINE
8
Black
10
20.6643
20
-113.007
11
20.95
21
-113.15
0
LINE
8
Black
10
20.95
20
-113.15
11
21.0929
21
-113.293
0
LINE
8
Black
10
21.0929
20
-113.293
11
21.2357
21
-113.579
0
LINE
8
Black
10
21.2357
20
-113.579
11
21.3786
21
-114.15
0
LINE
8
Black
10
21.3786
20
-114.15
11
21.3786
21
-114.864
0
LINE
8
Black
10
21.3786
20
-114.864
11
21.2357
21
-115.436
0
LINE
8
Black
10
21.2357
20
-115.436
11
21.0929
21
-115.721
0
LINE
8
Black
10
21.0929
20
-115.721
11
20.95
21
-115.864
0
LINE
8
Black
10
20.95
20
-115.864
11
20.6643
21
-116.007
0
LINE
8
Black
10
20.6643
20
-116.007
11
20.3786
21
-116.007
0
LINE
8
Black
10
20.3786
20
-116.007
11
20.0929
21
-115.864
0
LINE
8
Black
10
20.0929
20
-115.864
11
19.95
21
-115.721
0
LINE
8
Black
10
19.95
20
-115.721
11
19.8071
21
-115.436
0
LINE
8
Black
10
19.8071
20
-115.436
11
19.6643
21
-114.864
0
LINE
8
Black
10
19.6643
20
-114.864
11
19.6643
21
-114.15
0
LINE
8
Black
10
19.6643
20
-114.15
11
19.8071
21
-113.579
0
LINE
8
Black
10
19.8071
20
-113.579
11
19.95
21
-113.293
0
LINE
8
Black
10
19.95
20
-113.293
11
20.0929
21
-113.15
0
LINE
8
Black
10
20.0929
20
-113.15
11
20.3786
21
-113.007
0
LINE
8
Black
10
22.6643
20
-116.007
11
22.6643
21
-114.007
0
LINE
8
Black
10
22.6643
20
-114.293
11
22.8071
21
-114.15
0
LINE
8
Black
10
22.8071
20
-114.15
11
23.0929
21
-114.007
0
LINE
8
Black
10
23.0929
20
-114.007
11
23.5214
21
-114.007
0
LINE
8
Black
10
23.5214
20
-114.007
11
23.8071
21
-114.15
0
LINE
8
Black
10
23.8071
20
-114.15
11
23.95
21
-114.436
0
LINE
8
Black
10
23.95
20
-114.436
11
23.95
21
-116.007
0
LINE
8
Black
10
23.95
20
-114.436
11
24.0929
21
-114.15
0
LINE
8
Black
10
24.0929
20
-114.15
11
24.3786
21
-114.007
0
LINE
8
Black
10
24.3786
20
-114.007
11
24.8071
21
-114.007
0
LINE
8
Black
10
24.8071
20
-114.007
11
25.0929
21
-114.15
0
LINE
8
Black
10
25.0929
20
-114.15
11
25.2357
21
-114.436
0
LINE
8
Black
10
25.2357
20
-114.436
11
25.2357
21
-116.007
0
LINE
8
Black
10
26.6643
20
-116.007
11
26.6643
21
-114.007
0
LINE
8
Black
10
26.6643
20
-114.293
11
26.8071
21
-114.15
0
LINE
8
Black
10
26.8071
20
-114.15
11
27.0929
21
-114.007
0
LINE
8
Black
10
27.0929
20
-114.007
11
27.5214
21
-114.007
0
LINE
8
Black
10
27.5214
20
-114.007
11
27.8071
21
-114.15
0
LINE
8
Black
10
27.8071
20
-114.15
11
27.95
21
-114.436
0
LINE
8
Black
10
27.95
20
-114.436
11
27.95
21
-116.007
0
LINE
8
Black
10
27.95
20
-114.436
11
28.0929
21
-114.15
0
LINE
8
Black
10
28.0929
20
-114.15
11
28.3786
21
-114.007
0
LINE
8
Black
10
28.3786
20
-114.007
11
28.8071
21
-114.007
0
LINE
8
Black
10
28.8071
20
-114.007
11
29.0929
21
-114.15
0
LINE
8
Black
10
29.0929
20
-114.15
11
29.2357
21
-114.436
0
LINE
8
Black
10
29.2357
20
-114.436
11
29.2357
21
-116.007
0
LINE
8
Black
10
35.0929
20
-112.864
11
32.5214
21
-116.721
0
LINE
8
Black
10
38.95
20
-113.007
11
39.2357
21
-113.007
0
LINE
8
Black
10
39.2357
20
-113.007
11
39.5214
21
-113.15
0
LINE
8
Black
10
39.5214
20
-113.15
11
39.6643
21
-113.293
0
LINE
8
Black
10
39.6643
20
-113.293
11
39.8071
21
-113.579
0
LINE
8
Black
10
39.8071
20
-113.579
11
39.95
21
-114.15
0
LINE
8
Black
10
39.95
20
-114.15
11
39.95
21
-114.864
0
LINE
8
Black
10
39.95
20
-114.864
11
39.8071
21
-115.436
0
LINE
8
Black
10
39.8071
20
-115.436
11
39.6643
21
-115.721
0
LINE
8
Black
10
39.6643
20
-115.721
11
39.5214
21
-115.864
0
LINE
8
Black
10
39.5214
20
-115.864
11
39.2357
21
-116.007
0
LINE
8
Black
10
39.2357
20
-116.007
11
38.95
21
-116.007
0
LINE
8
Black
10
38.95
20
-116.007
11
38.6643
21
-115.864
0
LINE
8
Black
10
38.6643
20
-115.864
11
38.5214
21
-115.721
0
LINE
8
Black
10
38.5214
20
-115.721
11
38.3786
21
-115.436
0
LINE
8
Black
10
38.3786
20
-115.436
11
38.2357
21
-114.864
0
LINE
8
Black
10
38.2357
20
-114.864
11
38.2357
21
-114.15
0
LINE
8
Black
10
38.2357
20
-114.15
11
38.3786
21
-113.579
0
LINE
8
Black
10
38.3786
20
-113.579
11
38.5214
21
-113.293
0
LINE
8
Black
10
38.5214
20
-113.293
11
38.6643
21
-113.15
0
LINE
8
Black
10
38.6643
20
-113.15
11
38.95
21
-113.007
0
LINE
8
Black
10
41.2357
20
-115.721
11
41.3786
21
-115.864
0
LINE
8
Black
10
41.3786
20
-115.864
11
41.2357
21
-116.007
0
LINE
8
Black
10
41.2357
20
-116.007
11
41.0929
21
-115.864
0
LINE
8
Black
10
41.0929
20
-115.864
11
41.2357
21
-115.721
0
LINE
8
Black
10
41.2357
20
-115.721
11
41.2357
21
-116.007
0
LINE
8
Black
10
43.2357
20
-113.007
11
43.5214
21
-113.007
0
LINE
8
Black
10
43.5214
20
-113.007
11
43.8071
21
-113.15
0
LINE
8
Black
10
43.8071
20
-113.15
11
43.95
21
-113.293
0
LINE
8
Black
10
43.95
20
-113.293
11
44.0929
21
-113.579
0
LINE
8
Black
10
44.0929
20
-113.579
11
44.2357
21
-114.15
0
LINE
8
Black
10
44.2357
20
-114.15
11
44.2357
21
-114.864
0
LINE
8
Black
10
44.2357
20
-114.864
11
44.0929
21
-115.436
0
LINE
8
Black
10
44.0929
20
-115.436
11
43.95
21
-115.721
0
LINE
8
Black
10
43.95
20
-115.721
11
43.8071
21
-115.864
0
LINE
8
Black
10
43.8071
20
-115.864
11
43.5214
21
-116.007
0
LINE
8
Black
10
43.5214
20
-116.007
11
43.2357
21
-116.007
0
LINE
8
Black
10
43.2357
20
-116.007
11
42.95
21
-115.864
0
LINE
8
Black
10
42.95
20
-115.864
11
42.8071
21
-115.721
0
LINE
8
Black
10
42.8071
20
-115.721
11
42.6643
21
-115.436
0
LINE
8
Black
10
42.6643
20
-115.436
11
42.5214
21
-114.864
0
LINE
8
Black
10
42.5214
20
-114.864
11
42.5214
21
-114.15
0
LINE
8
Black
10
42.5214
20
-114.15
11
42.6643
21
-113.579
0
LINE
8
Black
10
42.6643
20
-113.579
11
42.8071
21
-113.293
0
LINE
8
Black
10
42.8071
20
-113.293
11
42.95
21
-113.15
0
LINE
8
Black
10
42.95
20
-113.15
11
43.2357
21
-113.007
0
LINE
8
Black
10
47.0929
20
-116.007
11
45.3786
21
-116.007
0
LINE
8
Black
10
46.2357
20
-116.007
11
46.2357
21
-113.007
0
LINE
8
Black
10
46.2357
20
-113.007
11
45.95
21
-113.436
0
LINE
8
Black
10
45.95
20
-113.436
11
45.6643
21
-113.721
0
LINE
8
Black
10
45.6643
20
-113.721
11
45.3786
21
-113.864
0
LINE
8
Black
10
48.2357
20
-113.293
11
48.3786
21
-113.15
0
LINE
8
Black
10
48.3786
20
-113.15
11
48.6643
21
-113.007
0
LINE
8
Black
10
48.6643
20
-113.007
11
49.3786
21
-113.007
0
LINE
8
Black
10
49.3786
20
-113.007
11
49.6643
21
-113.15
0
LINE
8
Black
10
49.6643
20
-113.15
11
49.8071
21
-113.293
0
LINE
8
Black
10
49.8071
20
-113.293
11
49.95
21
-113.579
0
LINE
8
Black
10
49.95
20
-113.579
11
49.95
21
-113.864
0
LINE
8
Black
10
49.95
20
-113.864
11
49.8071
21
-114.293
0
LINE
8
Black
10
49.8071
20
-114.293
11
48.0929
21
-116.007
0
LINE
8
Black
10
48.0929
20
-116.007
11
49.95
21
-116.007
0
LINE
8
Black
10
51.0929
20
-113.007
11
51.0929
21
-113.579
0
LINE
8
Black
10
52.2357
20
-113.007
11
52.2357
21
-113.579
0
LINE
8
Black
10
56.6643
20
-117.15
11
56.5214
21
-117.007
0
LINE
8
Black
10
56.5214
20
-117.007
11
56.2357
21
-116.579
0
LINE
8
Black
10
56.2357
20
-116.579
11
56.0929
21
-116.293
0
LINE
8
Black
10
56.0929
20
-116.293
11
55.95
21
-115.864
0
LINE
8
Black
10
55.95
20
-115.864
11
55.8071
21
-115.15
0
LINE
8
Black
10
55.8071
20
-115.15
11
55.8071
21
-114.579
0
LINE
8
Black
10
55.8071
20
-114.579
11
55.95
21
-113.864
0
LINE
8
Black
10
55.95
20
-113.864
11
56.0929
21
-113.436
0
LINE
8
Black
10
56.0929
20
-113.436
11
56.2357
21
-113.15
0
LINE
8
Black
10
56.2357
20
-113.15
11
56.5214
21
-112.721
0
LINE
8
Black
10
56.5214
20
-112.721
11
56.6643
21
-112.579
0
LINE
8
Black
10
59.2357
20
-113.007
11
57.8071
21
-113.007
0
LINE
8
Black
10
57.8071
20
-113.007
11
57.6643
21
-114.436
0
LINE
8
Black
10
57.6643
20
-114.436
11
57.8071
21
-114.293
0
LINE
8
Black
10
57.8071
20
-114.293
11
58.0929
21
-114.15
0
LINE
8
Black
10
58.0929
20
-114.15
11
58.8071
21
-114.15
0
LINE
8
Black
10
58.8071
20
-114.15
11
59.0929
21
-114.293
0
LINE
8
Black
10
59.0929
20
-114.293
11
59.2357
21
-114.436
0
LINE
8
Black
10
59.2357
20
-114.436
11
59.3786
21
-114.721
0
LINE
8
Black
10
59.3786
20
-114.721
11
59.3786
21
-115.436
0
LINE
8
Black
10
59.3786
20
-115.436
11
59.2357
21
-115.721
0
LINE
8
Black
10
59.2357
20
-115.721
11
59.0929
21
-115.864
0
LINE
8
Black
10
59.0929
20
-115.864
11
58.8071
21
-116.007
0
LINE
8
Black
10
58.8071
20
-116.007
11
58.0929
21
-116.007
0
LINE
8
Black
10
58.0929
20
-116.007
11
57.8071
21
-115.864
0
LINE
8
Black
10
57.8071
20
-115.864
11
57.6643
21
-115.721
0
LINE
8
Black
10
61.2357
20
-113.007
11
61.5214
21
-113.007
0
LINE
8
Black
10
61.5214
20
-113.007
11
61.8071
21
-113.15
0
LINE
8
Black
10
61.8071
20
-113.15
11
61.95
21
-113.293
0
LINE
8
Black
10
61.95
20
-113.293
11
62.0929
21
-113.579
0
LINE
8
Black
10
62.0929
20
-113.579
11
62.2357
21
-114.15
0
LINE
8
Black
10
62.2357
20
-114.15
11
62.2357
21
-114.864
0
LINE
8
Black
10
62.2357
20
-114.864
11
62.0929
21
-115.436
0
LINE
8
Black
10
62.0929
20
-115.436
11
61.95
21
-115.721
0
LINE
8
Black
10
61.95
20
-115.721
11
61.8071
21
-115.864
0
LINE
8
Black
10
61.8071
20
-115.864
11
61.5214
21
-116.007
0
LINE
8
Black
10
61.5214
20
-116.007
11
61.2357
21
-116.007
0
LINE
8
Black
10
61.2357
20
-116.007
11
60.95
21
-115.864
0
LINE
8
Black
10
60.95
20
-115.864
11
60.8071
21
-115.721
0
LINE
8
Black
10
60.8071
20
-115.721
11
60.6643
21
-115.436
0
LINE
8
Black
10
60.6643
20
-115.436
11
60.5214
21
-114.864
0
LINE
8
Black
10
60.5214
20
-114.864
11
60.5214
21
-114.15
0
LINE
8
Black
10
60.5214
20
-114.15
11
60.6643
21
-113.579
0
LINE
8
Black
10
60.6643
20
-113.579
11
60.8071
21
-113.293
0
LINE
8
Black
10
60.8071
20
-113.293
11
60.95
21
-113.15
0
LINE
8
Black
10
60.95
20
-113.15
11
61.2357
21
-113.007
0
LINE
8
Black
10
65.8071
20
-116.007
11
65.8071
21
-113.007
0
LINE
8
Black
10
67.0929
20
-116.007
11
67.0929
21
-114.436
0
LINE
8
Black
10
67.0929
20
-114.436
11
66.95
21
-114.15
0
LINE
8
Black
10
66.95
20
-114.15
11
66.6643
21
-114.007
0
LINE
8
Black
10
66.6643
20
-114.007
11
66.2357
21
-114.007
0
LINE
8
Black
10
66.2357
20
-114.007
11
65.95
21
-114.15
0
LINE
8
Black
10
65.95
20
-114.15
11
65.8071
21
-114.293
0
LINE
8
Black
10
68.95
20
-116.007
11
68.6643
21
-115.864
0
LINE
8
Black
10
68.6643
20
-115.864
11
68.5214
21
-115.721
0
LINE
8
Black
10
68.5214
20
-115.721
11
68.3786
21
-115.436
0
LINE
8
Black
10
68.3786
20
-115.436
11
68.3786
21
-114.579
0
LINE
8
Black
10
68.3786
20
-114.579
11
68.5214
21
-114.293
0
LINE
8
Black
10
68.5214
20
-114.293
11
68.6643
21
-114.15
0
LINE
8
Black
10
68.6643
20
-114.15
11
68.95
21
-114.007
0
LINE
8
Black
10
68.95
20
-114.007
11
69.3786
21
-114.007
0
LINE
8
Black
10
69.3786
20
-114.007
11
69.6643
21
-114.15
0
LINE
8
Black
10
69.6643
20
-114.15
11
69.8071
21
-114.293
0
LINE
8
Black
10
69.8071
20
-114.293
11
69.95
21
-114.579
0
LINE
8
Black
10
69.95
20
-114.579
11
69.95
21
-115.436
0
LINE
8
Black
10
69.95
20
-115.436
11
69.8071
21
-115.721
0
LINE
8
Black
10
69.8071
20
-115.721
11
69.6643
21
-115.864
0
LINE
8
Black
10
69.6643
20
-115.864
11
69.3786
21
-116.007
0
LINE
8
Black
10
69.3786
20
-116.007
11
68.95
21
-116.007
0
LINE
8
Black
10
71.6643
20
-116.007
11
71.3786
21
-115.864
0
LINE
8
Black
10
71.3786
20
-115.864
11
71.2357
21
-115.579
0
LINE
8
Black
10
71.2357
20
-115.579
11
71.2357
21
-113.007
0
LINE
8
Black
10
73.95
20
-115.864
11
73.6643
21
-116.007
0
LINE
8
Black
10
73.6643
20
-116.007
11
73.0929
21
-116.007
0
LINE
8
Black
10
73.0929
20
-116.007
11
72.8071
21
-115.864
0
LINE
8
Black
10
72.8071
20
-115.864
11
72.6643
21
-115.579
0
LINE
8
Black
10
72.6643
20
-115.579
11
72.6643
21
-114.436
0
LINE
8
Black
10
72.6643
20
-114.436
11
72.8071
21
-114.15
0
LINE
8
Black
10
72.8071
20
-114.15
11
73.0929
21
-114.007
0
LINE
8
Black
10
73.0929
20
-114.007
11
73.6643
21
-114.007
0
LINE
8
Black
10
73.6643
20
-114.007
11
73.95
21
-114.15
0
LINE
8
Black
10
73.95
20
-114.15
11
74.0929
21
-114.436
0
LINE
8
Black
10
74.0929
20
-114.436
11
74.0929
21
-114.721
0
LINE
8
Black
10
74.0929
20
-114.721
11
72.6643
21
-115.007
0
LINE
8
Black
10
75.2357
20
-115.864
11
75.5214
21
-116.007
0
LINE
8
Black
10
75.5214
20
-116.007
11
76.0929
21
-116.007
0
LINE
8
Black
10
76.0929
20
-116.007
11
76.3786
21
-115.864
0
LINE
8
Black
10
76.3786
20
-115.864
11
76.5214
21
-115.579
0
LINE
8
Black
10
76.5214
20
-115.579
11
76.5214
21
-115.436
0
LINE
8
Black
10
76.5214
20
-115.436
11
76.3786
21
-115.15
0
LINE
8
Black
10
76.3786
20
-115.15
11
76.0929
21
-115.007
0
LINE
8
Black
10
76.0929
20
-115.007
11
75.6643
21
-115.007
0
LINE
8
Black
10
75.6643
20
-115.007
11
75.3786
21
-114.864
0
LINE
8
Black
10
75.3786
20
-114.864
11
75.2357
21
-114.579
0
LINE
8
Black
10
75.2357
20
-114.579
11
75.2357
21
-114.436
0
LINE
8
Black
10
75.2357
20
-114.436
11
75.3786
21
-114.15
0
LINE
8
Black
10
75.3786
20
-114.15
11
75.6643
21
-114.007
0
LINE
8
Black
10
75.6643
20
-114.007
11
76.0929
21
-114.007
0
LINE
8
Black
10
76.0929
20
-114.007
11
76.3786
21
-114.15
0
LINE
8
Black
10
77.5214
20
-117.15
11
77.6643
21
-117.007
0
LINE
8
Black
10
77.6643
20
-117.007
11
77.95
21
-116.579
0
LINE
8
Black
10
77.95
20
-116.579
11
78.0929
21
-116.293
0
LINE
8
Black
10
78.0929
20
-116.293
11
78.2357
21
-115.864
0
LINE
8
Black
10
78.2357
20
-115.864
11
78.3786
21
-115.15
0
LINE
8
Black
10
78.3786
20
-115.15
11
78.3786
21
-114.579
0
LINE
8
Black
10
78.3786
20
-114.579
11
78.2357
21
-113.864
0
LINE
8
Black
10
78.2357
20
-113.864
11
78.0929
21
-113.436
0
LINE
8
Black
10
78.0929
20
-113.436
11
77.95
21
-113.15
0
LINE
8
Black
10
77.95
20
-113.15
11
77.6643
21
-112.721
0
LINE
8
Black
10
77.6643
20
-112.721
11
77.5214
21
-112.579
0
CIRCLE
8
Black
10
9.54995
20
-118.61
40
0.40005
0
LINE
8
Black
10
13.2357
20
-116.967
11
13.5214
21
-116.967
0
LINE
8
Black
10
13.5214
20
-116.967
11
13.8071
21
-117.11
0
LINE
8
Black
10
13.8071
20
-117.11
11
13.95
21
-117.253
0
LINE
8
Black
10
13.95
20
-117.253
11
14.0929
21
-117.539
0
LINE
8
Black
10
14.0929
20
-117.539
11
14.2357
21
-118.11
0
LINE
8
Black
10
14.2357
20
-118.11
11
14.2357
21
-118.824
0
LINE
8
Black
10
14.2357
20
-118.824
11
14.0929
21
-119.396
0
LINE
8
Black
10
14.0929
20
-119.396
11
13.95
21
-119.681
0
LINE
8
Black
10
13.95
20
-119.681
11
13.8071
21
-119.824
0
LINE
8
Black
10
13.8071
20
-119.824
11
13.5214
21
-119.967
0
LINE
8
Black
10
13.5214
20
-119.967
11
13.2357
21
-119.967
0
LINE
8
Black
10
13.2357
20
-119.967
11
12.95
21
-119.824
0
LINE
8
Black
10
12.95
20
-119.824
11
12.8071
21
-119.681
0
LINE
8
Black
10
12.8071
20
-119.681
11
12.6643
21
-119.396
0
LINE
8
Black
10
12.6643
20
-119.396
11
12.5214
21
-118.824
0
LINE
8
Black
10
12.5214
20
-118.824
11
12.5214
21
-118.11
0
LINE
8
Black
10
12.5214
20
-118.11
11
12.6643
21
-117.539
0
LINE
8
Black
10
12.6643
20
-117.539
11
12.8071
21
-117.253
0
LINE
8
Black
10
12.8071
20
-117.253
11
12.95
21
-117.11
0
LINE
8
Black
10
12.95
20
-117.11
11
13.2357
21
-116.967
0
LINE
8
Black
10
15.5214
20
-119.681
11
15.6643
21
-119.824
0
LINE
8
Black
10
15.6643
20
-119.824
11
15.5214
21
-119.967
0
LINE
8
Black
10
15.5214
20
-119.967
11
15.3786
21
-119.824
0
LINE
8
Black
10
15.3786
20
-119.824
11
15.5214
21
-119.681
0
LINE
8
Black
10
15.5214
20
-119.681
11
15.5214
21
-119.967
0
LINE
8
Black
10
17.3786
20
-118.253
11
17.0929
21
-118.11
0
LINE
8
Black
10
17.0929
20
-118.11
11
16.95
21
-117.967
0
LINE
8
Black
10
16.95
20
-117.967
11
16.8071
21
-117.681
0
LINE
8
Black
10
16.8071
20
-117.681
11
16.8071
21
-117.539
0
LINE
8
Black
10
16.8071
20
-117.539
11
16.95
21
-117.253
0
LINE
8
Black
10
16.95
20
-117.253
11
17.0929
21
-117.11
0
LINE
8
Black
10
17.0929
20
-117.11
11
17.3786
21
-116.967
0
LINE
8
Black
10
17.3786
20
-116.967
11
17.95
21
-116.967
0
LINE
8
Black
10
17.95
20
-116.967
11
18.2357
21
-117.11
0
LINE
8
Black
10
18.2357
20
-117.11
11
18.3786
21
-117.253
0
LINE
8
Black
10
18.3786
20
-117.253
11
18.5214
21
-117.539
0
LINE
8
Black
10
18.5214
20
-117.539
11
18.5214
21
-117.681
0
LINE
8
Black
10
18.5214
20
-117.681
11
18.3786
21
-117.967
0
LINE
8
Black
10
18.3786
20
-117.967
11
18.2357
21
-118.11
0
LINE
8
Black
10
18.2357
20
-118.11
11
17.95
21
-118.253
0
LINE
8
Black
10
17.95
20
-118.253
11
17.3786
21
-118.253
0
LINE
8
Black
10
17.3786
20
-118.253
11
17.0929
21
-118.396
0
LINE
8
Black
10
17.0929
20
-118.396
11
16.95
21
-118.539
0
LINE
8
Black
10
16.95
20
-118.539
11
16.8071
21
-118.824
0
LINE
8
Black
10
16.8071
20
-118.824
11
16.8071
21
-119.396
0
LINE
8
Black
10
16.8071
20
-119.396
11
16.95
21
-119.681
0
LINE
8
Black
10
16.95
20
-119.681
11
17.0929
21
-119.824
0
LINE
8
Black
10
17.0929
20
-119.824
11
17.3786
21
-119.967
0
LINE
8
Black
10
17.3786
20
-119.967
11
17.95
21
-119.967
0
LINE
8
Black
10
17.95
20
-119.967
11
18.2357
21
-119.824
0
LINE
8
Black
10
18.2357
20
-119.824
11
18.3786
21
-119.681
0
LINE
8
Black
10
18.3786
20
-119.681
11
18.5214
21
-119.396
0
LINE
8
Black
10
18.5214
20
-119.396
11
18.5214
21
-118.824
0
LINE
8
Black
10
18.5214
20
-118.824
11
18.3786
21
-118.539
0
LINE
8
Black
10
18.3786
20
-118.539
11
18.2357
21
-118.396
0
LINE
8
Black
10
18.2357
20
-118.396
11
17.95
21
-118.253
0
LINE
8
Black
10
20.3786
20
-116.967
11
20.6643
21
-116.967
0
LINE
8
Black
10
20.6643
20
-116.967
11
20.95
21
-117.11
0
LINE
8
Black
10
20.95
20
-117.11
11
21.0929
21
-117.253
0
LINE
8
Black
10
21.0929
20
-117.253
11
21.2357
21
-117.539
0
LINE
8
Black
10
21.2357
20
-117.539
11
21.3786
21
-118.11
0
LINE
8
Black
10
21.3786
20
-118.11
11
21.3786
21
-118.824
0
LINE
8
Black
10
21.3786
20
-118.824
11
21.2357
21
-119.396
0
LINE
8
Black
10
21.2357
20
-119.396
11
21.0929
21
-119.681
0
LINE
8
Black
10
21.0929
20
-119.681
11
20.95
21
-119.824
0
LINE
8
Black
10
20.95
20
-119.824
11
20.6643
21
-119.967
0
LINE
8
Black
10
20.6643
20
-119.967
11
20.3786
21
-119.967
0
LINE
8
Black
10
20.3786
20
-119.967
11
20.0929
21
-119.824
0
LINE
8
Black
10
20.0929
20
-119.824
11
19.95
21
-119.681
0
LINE
8
Black
10
19.95
20
-119.681
11
19.8071
21
-119.396
0
LINE
8
Black
10
19.8071
20
-119.396
11
19.6643
21
-118.824
0
LINE
8
Black
10
19.6643
20
-118.824
11
19.6643
21
-118.11
0
LINE
8
Black
10
19.6643
20
-118.11
11
19.8071
21
-117.539
0
LINE
8
Black
10
19.8071
20
-117.539
11
19.95
21
-117.253
0
LINE
8
Black
10
19.95
20
-117.253
11
20.0929
21
-117.11
0
LINE
8
Black
10
20.0929
20
-117.11
11
20.3786
21
-116.967
0
LINE
8
Black
10
22.6643
20
-119.967
11
22.6643
21
-117.967
0
LINE
8
Black
10
22.6643
20
-118.253
11
22.8071
21
-118.11
0
LINE
8
Black
10
22.8071
20
-118.11
11
23.0929
21
-117.967
0
LINE
8
Black
10
23.0929
20
-117.967
11
23.5214
21
-117.967
0
LINE
8
Black
10
23.5214
20
-117.967
11
23.8071
21
-118.11
0
LINE
8
Black
10
23.8071
20
-118.11
11
23.95
21
-118.396
0
LINE
8
Black
10
23.95
20
-118.396
11
23.95
21
-119.967
0
LINE
8
Black
10
23.95
20
-118.396
11
24.0929
21
-118.11
0
LINE
8
Black
10
24.0929
20
-118.11
11
24.3786
21
-117.967
0
LINE
8
Black
10
24.3786
20
-117.967
11
24.8071
21
-117.967
0
LINE
8
Black
10
24.8071
20
-117.967
11
25.0929
21
-118.11
0
LINE
8
Black
10
25.0929
20
-118.11
11
25.2357
21
-118.396
0
LINE
8
Black
10
25.2357
20
-118.396
11
25.2357
21
-119.967
0
LINE
8
Black
10
26.6643
20
-119.967
11
26.6643
21
-117.967
0
LINE
8
Black
10
26.6643
20
-118.253
11
26.8071
21
-118.11
0
LINE
8
Black
10
26.8071
20
-118.11
11
27.0929
21
-117.967
0
LINE
8
Black
10
27.0929
20
-117.967
11
27.5214
21
-117.967
0
LINE
8
Black
10
27.5214
20
-117.967
11
27.8071
21
-118.11
0
LINE
8
Black
10
27.8071
20
-118.11
11
27.95
21
-118.396
0
LINE
8
Black
10
27.95
20
-118.396
11
27.95
21
-119.967
0
LINE
8
Black
10
27.95
20
-118.396
11
28.0929
21
-118.11
0
LINE
8
Black
10
28.0929
20
-118.11
11
28.3786
21
-117.967
0
LINE
8
Black
10
28.3786
20
-117.967
11
28.8071
21
-117.967
0
LINE
8
Black
10
28.8071
20
-117.967
11
29.0929
21
-118.11
0
LINE
8
Black
10
29.0929
20
-118.11
11
29.2357
21
-118.396
0
LINE
8
Black
10
29.2357
20
-118.396
11
29.2357
21
-119.967
0
LINE
8
Black
10
35.0929
20
-116.824
11
32.5214
21
-120.681
0
LINE
8
Black
10
38.95
20
-116.967
11
39.2357
21
-116.967
0
LINE
8
Black
10
39.2357
20
-116.967
11
39.5214
21
-117.11
0
LINE
8
Black
10
39.5214
20
-117.11
11
39.6643
21
-117.253
0
LINE
8
Black
10
39.6643
20
-117.253
11
39.8071
21
-117.539
0
LINE
8
Black
10
39.8071
20
-117.539
11
39.95
21
-118.11
0
LINE
8
Black
10
39.95
20
-118.11
11
39.95
21
-118.824
0
LINE
8
Black
10
39.95
20
-118.824
11
39.8071
21
-119.396
0
LINE
8
Black
10
39.8071
20
-119.396
11
39.6643
21
-119.681
0
LINE
8
Black
10
39.6643
20
-119.681
11
39.5214
21
-119.824
0
LINE
8
Black
10
39.5214
20
-119.824
11
39.2357
21
-119.967
0
LINE
8
Black
10
39.2357
20
-119.967
11
38.95
21
-119.967
0
LINE
8
Black
10
38.95
20
-119.967
11
38.6643
21
-119.824
0
LINE
8
Black
10
38.6643
20
-119.824
11
38.5214
21
-119.681
0
LINE
8
Black
10
38.5214
20
-119.681
11
38.3786
21
-119.396
0
LINE
8
Black
10
38.3786
20
-119.396
11
38.2357
21
-118.824
0
LINE
8
Black
10
38.2357
20
-118.824
11
38.2357
21
-118.11
0
LINE
8
Black
10
38.2357
20
-118.11
11
38.3786
21
-117.539
0
LINE
8
Black
10
38.3786
20
-117.539
11
38.5214
21
-117.253
0
LINE
8
Black
10
38.5214
20
-117.253
11
38.6643
21
-117.11
0
LINE
8
Black
10
38.6643
20
-117.11
11
38.95
21
-116.967
0
LINE
8
Black
10
41.2357
20
-119.681
11
41.3786
21
-119.824
0
LINE
8
Black
10
41.3786
20
-119.824
11
41.2357
21
-119.967
0
LINE
8
Black
10
41.2357
20
-119.967
11
41.0929
21
-119.824
0
LINE
8
Black
10
41.0929
20
-119.824
11
41.2357
21
-119.681
0
LINE
8
Black
10
41.2357
20
-119.681
11
41.2357
21
-119.967
0
LINE
8
Black
10
43.2357
20
-116.967
11
43.5214
21
-116.967
0
LINE
8
Black
10
43.5214
20
-116.967
11
43.8071
21
-117.11
0
LINE
8
Black
10
43.8071
20
-117.11
11
43.95
21
-117.253
0
LINE
8
Black
10
43.95
20
-117.253
11
44.0929
21
-117.539
0
LINE
8
Black
10
44.0929
20
-117.539
11
44.2357
21
-118.11
0
LINE
8
Black
10
44.2357
20
-118.11
11
44.2357
21
-118.824
0
LINE
8
Black
10
44.2357
20
-118.824
11
44.0929
21
-119.396
0
LINE
8
Black
10
44.0929
20
-119.396
11
43.95
21
-119.681
0
LINE
8
Black
10
43.95
20
-119.681
11
43.8071
21
-119.824
0
LINE
8
Black
10
43.8071
20
-119.824
11
43.5214
21
-119.967
0
LINE
8
Black
10
43.5214
20
-119.967
11
43.2357
21
-119.967
0
LINE
8
Black
10
43.2357
20
-119.967
11
42.95
21
-119.824
0
LINE
8
Black
10
42.95
20
-119.824
11
42.8071
21
-119.681
0
LINE
8
Black
10
42.8071
20
-119.681
11
42.6643
21
-119.396
0
LINE
8
Black
10
42.6643
20
-119.396
11
42.5214
21
-118.824
0
LINE
8
Black
10
42.5214
20
-118.824
11
42.5214
21
-118.11
0
LINE
8
Black
10
42.5214
20
-118.11
11
42.6643
21
-117.539
0
LINE
8
Black
10
42.6643
20
-117.539
11
42.8071
21
-117.253
0
LINE
8
Black
10
42.8071
20
-117.253
11
42.95
21
-117.11
0
LINE
8
Black
10
42.95
20
-117.11
11
43.2357
21
-116.967
0
LINE
8
Black
10
45.2357
20
-116.967
11
47.0929
21
-116.967
0
LINE
8
Black
10
47.0929
20
-116.967
11
46.0929
21
-118.11
0
LINE
8
Black
10
46.0929
20
-118.11
11
46.5214
21
-118.11
0
LINE
8
Black
10
46.5214
20
-118.11
11
46.8071
21
-118.253
0
LINE
8
Black
10
46.8071
20
-118.253
11
46.95
21
-118.396
0
LINE
8
Black
10
46.95
20
-118.396
11
47.0929
21
-118.681
0
LINE
8
Black
10
47.0929
20
-118.681
11
47.0929
21
-119.396
0
LINE
8
Black
10
47.0929
20
-119.396
11
46.95
21
-119.681
0
LINE
8
Black
10
46.95
20
-119.681
11
46.8071
21
-119.824
0
LINE
8
Black
10
46.8071
20
-119.824
11
46.5214
21
-119.967
0
LINE
8
Black
10
46.5214
20
-119.967
11
45.6643
21
-119.967
0
LINE
8
Black
10
45.6643
20
-119.967
11
45.3786
21
-119.824
0
LINE
8
Black
10
45.3786
20
-119.824
11
45.2357
21
-119.681
0
LINE
8
Black
10
48.2357
20
-117.253
11
48.3786
21
-117.11
0
LINE
8
Black
10
48.3786
20
-117.11
11
48.6643
21
-116.967
0
LINE
8
Black
10
48.6643
20
-116.967
11
49.3786
21
-116.967
0
LINE
8
Black
10
49.3786
20
-116.967
11
49.6643
21
-117.11
0
LINE
8
Black
10
49.6643
20
-117.11
11
49.8071
21
-117.253
0
LINE
8
Black
10
49.8071
20
-117.253
11
49.95
21
-117.539
0
LINE
8
Black
10
49.95
20
-117.539
11
49.95
21
-117.824
0
LINE
8
Black
10
49.95
20
-117.824
11
49.8071
21
-118.253
0
LINE
8
Black
10
49.8071
20
-118.253
11
48.0929
21
-119.967
0
LINE
8
Black
10
48.0929
20
-119.967
11
49.95
21
-119.967
0
LINE
8
Black
10
51.0929
20
-116.967
11
51.0929
21
-117.539
0
LINE
8
Black
10
52.2357
20
-116.967
11
52.2357
21
-117.539
0
LINE
8
Black
10
56.6643
20
-121.11
11
56.5214
21
-120.967
0
LINE
8
Black
10
56.5214
20
-120.967
11
56.2357
21
-120.539
0
LINE
8
Black
10
56.2357
20
-120.539
11
56.0929
21
-120.253
0
LINE
8
Black
10
56.0929
20
-120.253
11
55.95
21
-119.824
0
LINE
8
Black
10
55.95
20
-119.824
11
55.8071
21
-119.11
0
LINE
8
Black
10
55.8071
20
-119.11
11
55.8071
21
-118.539
0
LINE
8
Black
10
55.8071
20
-118.539
11
55.95
21
-117.824
0
LINE
8
Black
10
55.95
20
-117.824
11
56.0929
21
-117.396
0
LINE
8
Black
10
56.0929
20
-117.396
11
56.2357
21
-117.11
0
LINE
8
Black
10
56.2357
20
-117.11
11
56.5214
21
-116.681
0
LINE
8
Black
10
56.5214
20
-116.681
11
56.6643
21
-116.539
0
LINE
8
Black
10
57.6643
20
-117.253
11
57.8071
21
-117.11
0
LINE
8
Black
10
57.8071
20
-117.11
11
58.0929
21
-116.967
0
LINE
8
Black
10
58.0929
20
-116.967
11
58.8071
21
-116.967
0
LINE
8
Black
10
58.8071
20
-116.967
11
59.0929
21
-117.11
0
LINE
8
Black
10
59.0929
20
-117.11
11
59.2357
21
-117.253
0
LINE
8
Black
10
59.2357
20
-117.253
11
59.3786
21
-117.539
0
LINE
8
Black
10
59.3786
20
-117.539
11
59.3786
21
-117.824
0
LINE
8
Black
10
59.3786
20
-117.824
11
59.2357
21
-118.253
0
LINE
8
Black
10
59.2357
20
-118.253
11
57.5214
21
-119.967
0
LINE
8
Black
10
57.5214
20
-119.967
11
59.3786
21
-119.967
0
LINE
8
Black
10
62.95
20
-119.967
11
62.95
21
-116.967
0
LINE
8
Black
10
64.2357
20
-119.967
11
64.2357
21
-118.396
0
LINE
8
Black
10
64.2357
20
-118.396
11
64.0929
21
-118.11
0
LINE
8
Black
10
64.0929
20
-118.11
11
63.8071
21
-117.967
0
LINE
8
Black
10
63.8071
20
-117.967
11
63.3786
21
-117.967
0
LINE
8
Black
10
63.3786
20
-117.967
11
63.0929
21
-118.11
0
LINE
8
Black
10
63.0929
20
-118.11
11
62.95
21
-118.253
0
LINE
8
Black
10
66.0929
20
-119.967
11
65.8071
21
-119.824
0
LINE
8
Black
10
65.8071
20
-119.824
11
65.6643
21
-119.681
0
LINE
8
Black
10
65.6643
20
-119.681
11
65.5214
21
-119.396
0
LINE
8
Black
10
65.5214
20
-119.396
11
65.5214
21
-118.539
0
LINE
8
Black
10
65.5214
20
-118.539
11
65.6643
21
-118.253
0
LINE
8
Black
10
65.6643
20
-118.253
11
65.8071
21
-118.11
0
LINE
8
Black
10
65.8071
20
-118.11
11
66.0929
21
-117.967
0
LINE
8
Black
10
66.0929
20
-117.967
11
66.5214
21
-117.967
0
LINE
8
Black
10
66.5214
20
-117.967
11
66.8071
21
-118.11
0
LINE
8
Black
10
66.8071
20
-118.11
11
66.95
21
-118.253
0
LINE
8
Black
10
66.95
20
-118.253
11
67.0929
21
-118.539
0
LINE
8
Black
10
67.0929
20
-118.539
11
67.0929
21
-119.396
0
LINE
8
Black
10
67.0929
20
-119.396
11
66.95
21
-119.681
0
LINE
8
Black
10
66.95
20
-119.681
11
66.8071
21
-119.824
0
LINE
8
Black
10
66.8071
20
-119.824
11
66.5214
21
-119.967
0
LINE
8
Black
10
66.5214
20
-119.967
11
66.0929
21
-119.967
0
LINE
8
Black
10
68.8071
20
-119.967
11
68.5214
21
-119.824
0
LINE
8
Black
10
68.5214
20
-119.824
11
68.3786
21
-119.539
0
LINE
8
Black
10
68.3786
20
-119.539
11
68.3786
21
-116.967
0
LINE
8
Black
10
71.0929
20
-119.824
11
70.8071
21
-119.967
0
LINE
8
Black
10
70.8071
20
-119.967
11
70.2357
21
-119.967
0
LINE
8
Black
10
70.2357
20
-119.967
11
69.95
21
-119.824
0
LINE
8
Black
10
69.95
20
-119.824
11
69.8071
21
-119.539
0
LINE
8
Black
10
69.8071
20
-119.539
11
69.8071
21
-118.396
0
LINE
8
Black
10
69.8071
20
-118.396
11
69.95
21
-118.11
0
LINE
8
Black
10
69.95
20
-118.11
11
70.2357
21
-117.967
0
LINE
8
Black
10
70.2357
20
-117.967
11
70.8071
21
-117.967
0
LINE
8
Black
10
70.8071
20
-117.967
11
71.0929
21
-118.11
0
LINE
8
Black
10
71.0929
20
-118.11
11
71.2357
21
-118.396
0
LINE
8
Black
10
71.2357
20
-118.396
11
71.2357
21
-118.681
0
LINE
8
Black
10
71.2357
20
-118.681
11
69.8071
21
-118.967
0
LINE
8
Black
10
72.3786
20
-119.824
11
72.6643
21
-119.967
0
LINE
8
Black
10
72.6643
20
-119.967
11
73.2357
21
-119.967
0
LINE
8
Black
10
73.2357
20
-119.967
11
73.5214
21
-119.824
0
LINE
8
Black
10
73.5214
20
-119.824
11
73.6643
21
-119.539
0
LINE
8
Black
10
73.6643
20
-119.539
11
73.6643
21
-119.396
0
LINE
8
Black
10
73.6643
20
-119.396
11
73.5214
21
-119.11
0
LINE
8
Black
10
73.5214
20
-119.11
11
73.2357
21
-118.967
0
LINE
8
Black
10
73.2357
20
-118.967
11
72.8071
21
-118.967
0
LINE
8
Black
10
72.8071
20
-118.967
11
72.5214
21
-118.824
0
LINE
8
Black
10
72.5214
20
-118.824
11
72.3786
21
-118.539
0
LINE
8
Black
10
72.3786
20
-118.539
11
72.3786
21
-118.396
0
LINE
8
Black
10
72.3786
20
-118.396
11
72.5214
21
-118.11
0
LINE
8
Black
10
72.5214
20
-118.11
11
72.8071
21
-117.967
0
LINE
8
Black
10
72.8071
20
-117.967
11
73.2357
21
-117.967
0
LINE
8
Black
10
73.2357
20
-117.967
11
73.5214
21
-118.11
0
LINE
8
Black
10
74.6643
20
-121.11
11
74.8071
21
-120.967
0
LINE
8
Black
10
74.8071
20
-120.967
11
75.0929
21
-120.539
0
LINE
8
Black
10
75.0929
20
-120.539
11
75.2357
21
-120.253
0
LINE
8
Black
10
75.2357
20
-120.253
11
75.3786
21
-119.824
0
LINE
8
Black
10
75.3786
20
-119.824
11
75.5214
21
-119.11
0
LINE
8
Black
10
75.5214
20
-119.11
11
75.5214
21
-118.539
0
LINE
8
Black
10
75.5214
20
-118.539
11
75.3786
21
-117.824
0
LINE
8
Black
10
75.3786
20
-117.824
11
75.2357
21
-117.396
0
LINE
8
Black
10
75.2357
20
-117.396
11
75.0929
21
-117.11
0
LINE
8
Black
10
75.0929
20
-117.11
11
74.8071
21
-116.681
0
LINE
8
Black
10
74.8071
20
-116.681
11
74.6643
21
-116.539
0
LINE
8
Black
10
9.45
20
-122.07
11
9.45
21
-123.07
0
LINE
8
Black
10
8.95
20
-122.57
11
9.95
21
-122.57
0
LINE
8
Black
10
14.2357
20
-123.927
11
12.5214
21
-123.927
0
LINE
8
Black
10
13.3786
20
-123.927
11
13.3786
21
-120.927
0
LINE
8
Black
10
13.3786
20
-120.927
11
13.0929
21
-121.356
0
LINE
8
Black
10
13.0929
20
-121.356
11
12.8071
21
-121.641
0
LINE
8
Black
10
12.8071
20
-121.641
11
12.5214
21
-121.784
0
LINE
8
Black
10
15.5214
20
-123.641
11
15.6643
21
-123.784
0
LINE
8
Black
10
15.6643
20
-123.784
11
15.5214
21
-123.927
0
LINE
8
Black
10
15.5214
20
-123.927
11
15.3786
21
-123.784
0
LINE
8
Black
10
15.3786
20
-123.784
11
15.5214
21
-123.641
0
LINE
8
Black
10
15.5214
20
-123.641
11
15.5214
21
-123.927
0
LINE
8
Black
10
17.5214
20
-120.927
11
17.8071
21
-120.927
0
LINE
8
Black
10
17.8071
20
-120.927
11
18.0929
21
-121.07
0
LINE
8
Black
10
18.0929
20
-121.07
11
18.2357
21
-121.213
0
LINE
8
Black
10
18.2357
20
-121.213
11
18.3786
21
-121.499
0
LINE
8
Black
10
18.3786
20
-121.499
11
18.5214
21
-122.07
0
LINE
8
Black
10
18.5214
20
-122.07
11
18.5214
21
-122.784
0
LINE
8
Black
10
18.5214
20
-122.784
11
18.3786
21
-123.356
0
LINE
8
Black
10
18.3786
20
-123.356
11
18.2357
21
-123.641
0
LINE
8
Black
10
18.2357
20
-123.641
11
18.0929
21
-123.784
0
LINE
8
Black
10
18.0929
20
-123.784
11
17.8071
21
-123.927
0
LINE
8
Black
10
17.8071
20
-123.927
11
17.5214
21
-123.927
0
LINE
8
Black
10
17.5214
20
-123.927
11
17.2357
21
-123.784
0
LINE
8
Black
10
17.2357
20
-123.784
11
17.0929
21
-123.641
0
LINE
8
Black
10
17.0929
20
-123.641
11
16.95
21
-123.356
0
LINE
8
Black
10
16.95
20
-123.356
11
16.8071
21
-122.784
0
LINE
8
Black
10
16.8071
20
-122.784
11
16.8071
21
-122.07
0
LINE
8
Black
10
16.8071
20
-122.07
11
16.95
21
-121.499
0
LINE
8
Black
10
16.95
20
-121.499
11
17.0929
21
-121.213
0
LINE
8
Black
10
17.0929
20
-121.213
11
17.2357
21
-121.07
0
LINE
8
Black
10
17.2357
20
-121.07
11
17.5214
21
-120.927
0
LINE
8
Black
10
20.3786
20
-120.927
11
20.6643
21
-120.927
0
LINE
8
Black
10
20.6643
20
-120.927
11
20.95
21
-121.07
0
LINE
8
Black
10
20.95
20
-121.07
11
21.0929
21
-121.213
0
LINE
8
Black
10
21.0929
20
-121.213
11
21.2357
21
-121.499
0
LINE
8
Black
10
21.2357
20
-121.499
11
21.3786
21
-122.07
0
LINE
8
Black
10
21.3786
20
-122.07
11
21.3786
21
-122.784
0
LINE
8
Black
10
21.3786
20
-122.784
11
21.2357
21
-123.356
0
LINE
8
Black
10
21.2357
20
-123.356
11
21.0929
21
-123.641
0
LINE
8
Black
10
21.0929
20
-123.641
11
20.95
21
-123.784
0
LINE
8
Black
10
20.95
20
-123.784
11
20.6643
21
-123.927
0
LINE
8
Black
10
20.6643
20
-123.927
11
20.3786
21
-123.927
0
LINE
8
Black
10
20.3786
20
-123.927
11
20.0929
21
-123.784
0
LINE
8
Black
10
20.0929
20
-123.784
11
19.95
21
-123.641
0
LINE
8
Black
10
19.95
20
-123.641
11
19.8071
21
-123.356
0
LINE
8
Black
10
19.8071
20
-123.356
11
19.6643
21
-122.784
0
LINE
8
Black
10
19.6643
20
-122.784
11
19.6643
21
-122.07
0
LINE
8
Black
10
19.6643
20
-122.07
11
19.8071
21
-121.499
0
LINE
8
Black
10
19.8071
20
-121.499
11
19.95
21
-121.213
0
LINE
8
Black
10
19.95
20
-121.213
11
20.0929
21
-121.07
0
LINE
8
Black
10
20.0929
20
-121.07
11
20.3786
21
-120.927
0
LINE
8
Black
10
22.6643
20
-123.927
11
22.6643
21
-121.927
0
LINE
8
Black
10
22.6643
20
-122.213
11
22.8071
21
-122.07
0
LINE
8
Black
10
22.8071
20
-122.07
11
23.0929
21
-121.927
0
LINE
8
Black
10
23.0929
20
-121.927
11
23.5214
21
-121.927
0
LINE
8
Black
10
23.5214
20
-121.927
11
23.8071
21
-122.07
0
LINE
8
Black
10
23.8071
20
-122.07
11
23.95
21
-122.356
0
LINE
8
Black
10
23.95
20
-122.356
11
23.95
21
-123.927
0
LINE
8
Black
10
23.95
20
-122.356
11
24.0929
21
-122.07
0
LINE
8
Black
10
24.0929
20
-122.07
11
24.3786
21
-121.927
0
LINE
8
Black
10
24.3786
20
-121.927
11
24.8071
21
-121.927
0
LINE
8
Black
10
24.8071
20
-121.927
11
25.0929
21
-122.07
0
LINE
8
Black
10
25.0929
20
-122.07
11
25.2357
21
-122.356
0
LINE
8
Black
10
25.2357
20
-122.356
11
25.2357
21
-123.927
0
LINE
8
Black
10
26.6643
20
-123.927
11
26.6643
21
-121.927
0
LINE
8
Black
10
26.6643
20
-122.213
11
26.8071
21
-122.07
0
LINE
8
Black
10
26.8071
20
-122.07
11
27.0929
21
-121.927
0
LINE
8
Black
10
27.0929
20
-121.927
11
27.5214
21
-121.927
0
LINE
8
Black
10
27.5214
20
-121.927
11
27.8071
21
-122.07
0
LINE
8
Black
10
27.8071
20
-122.07
11
27.95
21
-122.356
0
LINE
8
Black
10
27.95
20
-122.356
11
27.95
21
-123.927
0
LINE
8
Black
10
27.95
20
-122.356
11
28.0929
21
-122.07
0
LINE
8
Black
10
28.0929
20
-122.07
11
28.3786
21
-121.927
0
LINE
8
Black
10
28.3786
20
-121.927
11
28.8071
21
-121.927
0
LINE
8
Black
10
28.8071
20
-121.927
11
29.0929
21
-122.07
0
LINE
8
Black
10
29.0929
20
-122.07
11
29.2357
21
-122.356
0
LINE
8
Black
10
29.2357
20
-122.356
11
29.2357
21
-123.927
0
LINE
8
Black
10
35.0929
20
-120.784
11
32.5214
21
-124.641
0
LINE
8
Black
10
38.95
20
-120.927
11
39.2357
21
-120.927
0
LINE
8
Black
10
39.2357
20
-120.927
11
39.5214
21
-121.07
0
LINE
8
Black
10
39.5214
20
-121.07
11
39.6643
21
-121.213
0
LINE
8
Black
10
39.6643
20
-121.213
11
39.8071
21
-121.499
0
LINE
8
Black
10
39.8071
20
-121.499
11
39.95
21
-122.07
0
LINE
8
Black
10
39.95
20
-122.07
11
39.95
21
-122.784
0
LINE
8
Black
10
39.95
20
-122.784
11
39.8071
21
-123.356
0
LINE
8
Black
10
39.8071
20
-123.356
11
39.6643
21
-123.641
0
LINE
8
Black
10
39.6643
20
-123.641
11
39.5214
21
-123.784
0
LINE
8
Black
10
39.5214
20
-123.784
11
39.2357
21
-123.927
0
LINE
8
Black
10
39.2357
20
-123.927
11
38.95
21
-123.927
0
LINE
8
Black
10
38.95
20
-123.927
11
38.6643
21
-123.784
0
LINE
8
Black
10
38.6643
20
-123.784
11
38.5214
21
-123.641
0
LINE
8
Black
10
38.5214
20
-123.641
11
38.3786
21
-123.356
0
LINE
8
Black
10
38.3786
20
-123.356
11
38.2357
21
-122.784
0
LINE
8
Black
10
38.2357
20
-122.784
11
38.2357
21
-122.07
0
LINE
8
Black
10
38.2357
20
-122.07
11
38.3786
21
-121.499
0
LINE
8
Black
10
38.3786
20
-121.499
11
38.5214
21
-121.213
0
LINE
8
Black
10
38.5214
20
-121.213
11
38.6643
21
-121.07
0
LINE
8
Black
10
38.6643
20
-121.07
11
38.95
21
-120.927
0
LINE
8
Black
10
41.2357
20
-123.641
11
41.3786
21
-123.784
0
LINE
8
Black
10
41.3786
20
-123.784
11
41.2357
21
-123.927
0
LINE
8
Black
10
41.2357
20
-123.927
11
41.0929
21
-123.784
0
LINE
8
Black
10
41.0929
20
-123.784
11
41.2357
21
-123.641
0
LINE
8
Black
10
41.2357
20
-123.641
11
41.2357
21
-123.927
0
LINE
8
Black
10
43.2357
20
-120.927
11
43.5214
21
-120.927
0
LINE
8
Black
10
43.5214
20
-120.927
11
43.8071
21
-121.07
0
LINE
8
Black
10
43.8071
20
-121.07
11
43.95
21
-121.213
0
LINE
8
Black
10
43.95
20
-121.213
11
44.0929
21
-121.499
0
LINE
8
Black
10
44.0929
20
-121.499
11
44.2357
21
-122.07
0
LINE
8
Black
10
44.2357
20
-122.07
11
44.2357
21
-122.784
0
LINE
8
Black
10
44.2357
20
-122.784
11
44.0929
21
-123.356
0
LINE
8
Black
10
44.0929
20
-123.356
11
43.95
21
-123.641
0
LINE
8
Black
10
43.95
20
-123.641
11
43.8071
21
-123.784
0
LINE
8
Black
10
43.8071
20
-123.784
11
43.5214
21
-123.927
0
LINE
8
Black
10
43.5214
20
-123.927
11
43.2357
21
-123.927
0
LINE
8
Black
10
43.2357
20
-123.927
11
42.95
21
-123.784
0
LINE
8
Black
10
42.95
20
-123.784
11
42.8071
21
-123.641
0
LINE
8
Black
10
42.8071
20
-123.641
11
42.6643
21
-123.356
0
LINE
8
Black
10
42.6643
20
-123.356
11
42.5214
21
-122.784
0
LINE
8
Black
10
42.5214
20
-122.784
11
42.5214
21
-122.07
0
LINE
8
Black
10
42.5214
20
-122.07
11
42.6643
21
-121.499
0
LINE
8
Black
10
42.6643
20
-121.499
11
42.8071
21
-121.213
0
LINE
8
Black
10
42.8071
20
-121.213
11
42.95
21
-121.07
0
LINE
8
Black
10
42.95
20
-121.07
11
43.2357
21
-120.927
0
LINE
8
Black
10
45.2357
20
-120.927
11
47.0929
21
-120.927
0
LINE
8
Black
10
47.0929
20
-120.927
11
46.0929
21
-122.07
0
LINE
8
Black
10
46.0929
20
-122.07
11
46.5214
21
-122.07
0
LINE
8
Black
10
46.5214
20
-122.07
11
46.8071
21
-122.213
0
LINE
8
Black
10
46.8071
20
-122.213
11
46.95
21
-122.356
0
LINE
8
Black
10
46.95
20
-122.356
11
47.0929
21
-122.641
0
LINE
8
Black
10
47.0929
20
-122.641
11
47.0929
21
-123.356
0
LINE
8
Black
10
47.0929
20
-123.356
11
46.95
21
-123.641
0
LINE
8
Black
10
46.95
20
-123.641
11
46.8071
21
-123.784
0
LINE
8
Black
10
46.8071
20
-123.784
11
46.5214
21
-123.927
0
LINE
8
Black
10
46.5214
20
-123.927
11
45.6643
21
-123.927
0
LINE
8
Black
10
45.6643
20
-123.927
11
45.3786
21
-123.784
0
LINE
8
Black
10
45.3786
20
-123.784
11
45.2357
21
-123.641
0
LINE
8
Black
10
48.5214
20
-123.927
11
49.0929
21
-123.927
0
LINE
8
Black
10
49.0929
20
-123.927
11
49.3786
21
-123.784
0
LINE
8
Black
10
49.3786
20
-123.784
11
49.5214
21
-123.641
0
LINE
8
Black
10
49.5214
20
-123.641
11
49.8071
21
-123.213
0
LINE
8
Black
10
49.8071
20
-123.213
11
49.95
21
-122.641
0
LINE
8
Black
10
49.95
20
-122.641
11
49.95
21
-121.499
0
LINE
8
Black
10
49.95
20
-121.499
11
49.8071
21
-121.213
0
LINE
8
Black
10
49.8071
20
-121.213
11
49.6643
21
-121.07
0
LINE
8
Black
10
49.6643
20
-121.07
11
49.3786
21
-120.927
0
LINE
8
Black
10
49.3786
20
-120.927
11
48.8071
21
-120.927
0
LINE
8
Black
10
48.8071
20
-120.927
11
48.5214
21
-121.07
0
LINE
8
Black
10
48.5214
20
-121.07
11
48.3786
21
-121.213
0
LINE
8
Black
10
48.3786
20
-121.213
11
48.2357
21
-121.499
0
LINE
8
Black
10
48.2357
20
-121.499
11
48.2357
21
-122.213
0
LINE
8
Black
10
48.2357
20
-122.213
11
48.3786
21
-122.499
0
LINE
8
Black
10
48.3786
20
-122.499
11
48.5214
21
-122.641
0
LINE
8
Black
10
48.5214
20
-122.641
11
48.8071
21
-122.784
0
LINE
8
Black
10
48.8071
20
-122.784
11
49.3786
21
-122.784
0
LINE
8
Black
10
49.3786
20
-122.784
11
49.6643
21
-122.641
0
LINE
8
Black
10
49.6643
20
-122.641
11
49.8071
21
-122.499
0
LINE
8
Black
10
49.8071
20
-122.499
11
49.95
21
-122.213
0
LINE
8
Black
10
51.0929
20
-120.927
11
51.0929
21
-121.499
0
LINE
8
Black
10
52.2357
20
-120.927
11
52.2357
21
-121.499
0
LINE
8
Black
10
56.6643
20
-125.07
11
56.5214
21
-124.927
0
LINE
8
Black
10
56.5214
20
-124.927
11
56.2357
21
-124.499
0
LINE
8
Black
10
56.2357
20
-124.499
11
56.0929
21
-124.213
0
LINE
8
Black
10
56.0929
20
-124.213
11
55.95
21
-123.784
0
LINE
8
Black
10
55.95
20
-123.784
11
55.8071
21
-123.07
0
LINE
8
Black
10
55.8071
20
-123.07
11
55.8071
21
-122.499
0
LINE
8
Black
10
55.8071
20
-122.499
11
55.95
21
-121.784
0
LINE
8
Black
10
55.95
20
-121.784
11
56.0929
21
-121.356
0
LINE
8
Black
10
56.0929
20
-121.356
11
56.2357
21
-121.07
0
LINE
8
Black
10
56.2357
20
-121.07
11
56.5214
21
-120.641
0
LINE
8
Black
10
56.5214
20
-120.641
11
56.6643
21
-120.499
0
LINE
8
Black
10
59.3786
20
-123.927
11
57.6643
21
-123.927
0
LINE
8
Black
10
58.5214
20
-123.927
11
58.5214
21
-120.927
0
LINE
8
Black
10
58.5214
20
-120.927
11
58.2357
21
-121.356
0
LINE
8
Black
10
58.2357
20
-121.356
11
57.95
21
-121.641
0
LINE
8
Black
10
57.95
20
-121.641
11
57.6643
21
-121.784
0
LINE
8
Black
10
61.2357
20
-120.927
11
61.5214
21
-120.927
0
LINE
8
Black
10
61.5214
20
-120.927
11
61.8071
21
-121.07
0
LINE
8
Black
10
61.8071
20
-121.07
11
61.95
21
-121.213
0
LINE
8
Black
10
61.95
20
-121.213
11
62.0929
21
-121.499
0
LINE
8
Black
10
62.0929
20
-121.499
11
62.2357
21
-122.07
0
LINE
8
Black
10
62.2357
20
-122.07
11
62.2357
21
-122.784
0
LINE
8
Black
10
62.2357
20
-122.784
11
62.0929
21
-123.356
0
LINE
8
Black
10
62.0929
20
-123.356
11
61.95
21
-123.641
0
LINE
8
Black
10
61.95
20
-123.641
11
61.8071
21
-123.784
0
LINE
8
Black
10
61.8071
20
-123.784
11
61.5214
21
-123.927
0
LINE
8
Black
10
61.5214
20
-123.927
11
61.2357
21
-123.927
0
LINE
8
Black
10
61.2357
20
-123.927
11
60.95
21
-123.784
0
LINE
8
Black
10
60.95
20
-123.784
11
60.8071
21
-123.641
0
LINE
8
Black
10
60.8071
20
-123.641
11
60.6643
21
-123.356
0
LINE
8
Black
10
60.6643
20
-123.356
11
60.5214
21
-122.784
0
LINE
8
Black
10
60.5214
20
-122.784
11
60.5214
21
-122.07
0
LINE
8
Black
10
60.5214
20
-122.07
11
60.6643
21
-121.499
0
LINE
8
Black
10
60.6643
20
-121.499
11
60.8071
21
-121.213
0
LINE
8
Black
10
60.8071
20
-121.213
11
60.95
21
-121.07
0
LINE
8
Black
10
60.95
20
-121.07
11
61.2357
21
-120.927
0
LINE
8
Black
10
65.8071
20
-123.927
11
65.8071
21
-120.927
0
LINE
8
Black
10
67.0929
20
-123.927
11
67.0929
21
-122.356
0
LINE
8
Black
10
67.0929
20
-122.356
11
66.95
21
-122.07
0
LINE
8
Black
10
66.95
20
-122.07
11
66.6643
21
-121.927
0
LINE
8
Black
10
66.6643
20
-121.927
11
66.2357
21
-121.927
0
LINE
8
Black
10
66.2357
20
-121.927
11
65.95
21
-122.07
0
LINE
8
Black
10
65.95
20
-122.07
11
65.8071
21
-122.213
0
LINE
8
Black
10
68.95
20
-123.927
11
68.6643
21
-123.784
0
LINE
8
Black
10
68.6643
20
-123.784
11
68.5214
21
-123.641
0
LINE
8
Black
10
68.5214
20
-123.641
11
68.3786
21
-123.356
0
LINE
8
Black
10
68.3786
20
-123.356
11
68.3786
21
-122.499
0
LINE
8
Black
10
68.3786
20
-122.499
11
68.5214
21
-122.213
0
LINE
8
Black
10
68.5214
20
-122.213
11
68.6643
21
-122.07
0
LINE
8
Black
10
68.6643
20
-122.07
11
68.95
21
-121.927
0
LINE
8
Black
10
68.95
20
-121.927
11
69.3786
21
-121.927
0
LINE
8
Black
10
69.3786
20
-121.927
11
69.6643
21
-122.07
0
LINE
8
Black
10
69.6643
20
-122.07
11
69.8071
21
-122.213
0
LINE
8
Black
10
69.8071
20
-122.213
11
69.95
21
-122.499
0
LINE
8
Black
10
69.95
20
-122.499
11
69.95
21
-123.356
0
LINE
8
Black
10
69.95
20
-123.356
11
69.8071
21
-123.641
0
LINE
8
Black
10
69.8071
20
-123.641
11
69.6643
21
-123.784
0
LINE
8
Black
10
69.6643
20
-123.784
11
69.3786
21
-123.927
0
LINE
8
Black
10
69.3786
20
-123.927
11
68.95
21
-123.927
0
LINE
8
Black
10
71.6643
20
-123.927
11
71.3786
21
-123.784
0
LINE
8
Black
10
71.3786
20
-123.784
11
71.2357
21
-123.499
0
LINE
8
Black
10
71.2357
20
-123.499
11
71.2357
21
-120.927
0
LINE
8
Black
10
73.95
20
-123.784
11
73.6643
21
-123.927
0
LINE
8
Black
10
73.6643
20
-123.927
11
73.0929
21
-123.927
0
LINE
8
Black
10
73.0929
20
-123.927
11
72.8071
21
-123.784
0
LINE
8
Black
10
72.8071
20
-123.784
11
72.6643
21
-123.499
0
LINE
8
Black
10
72.6643
20
-123.499
11
72.6643
21
-122.356
0
LINE
8
Black
10
72.6643
20
-122.356
11
72.8071
21
-122.07
0
LINE
8
Black
10
72.8071
20
-122.07
11
73.0929
21
-121.927
0
LINE
8
Black
10
73.0929
20
-121.927
11
73.6643
21
-121.927
0
LINE
8
Black
10
73.6643
20
-121.927
11
73.95
21
-122.07
0
LINE
8
Black
10
73.95
20
-122.07
11
74.0929
21
-122.356
0
LINE
8
Black
10
74.0929
20
-122.356
11
74.0929
21
-122.641
0
LINE
8
Black
10
74.0929
20
-122.641
11
72.6643
21
-122.927
0
LINE
8
Black
10
75.2357
20
-123.784
11
75.5214
21
-123.927
0
LINE
8
Black
10
75.5214
20
-123.927
11
76.0929
21
-123.927
0
LINE
8
Black
10
76.0929
20
-123.927
11
76.3786
21
-123.784
0
LINE
8
Black
10
76.3786
20
-123.784
11
76.5214
21
-123.499
0
LINE
8
Black
10
76.5214
20
-123.499
11
76.5214
21
-123.356
0
LINE
8
Black
10
76.5214
20
-123.356
11
76.3786
21
-123.07
0
LINE
8
Black
10
76.3786
20
-123.07
11
76.0929
21
-122.927
0
LINE
8
Black
10
76.0929
20
-122.927
11
75.6643
21
-122.927
0
LINE
8
Black
10
75.6643
20
-122.927
11
75.3786
21
-122.784
0
LINE
8
Black
10
75.3786
20
-122.784
11
75.2357
21
-122.499
0
LINE
8
Black
10
75.2357
20
-122.499
11
75.2357
21
-122.356
0
LINE
8
Black
10
75.2357
20
-122.356
11
75.3786
21
-122.07
0
LINE
8
Black
10
75.3786
20
-122.07
11
75.6643
21
-121.927
0
LINE
8
Black
10
75.6643
20
-121.927
11
76.0929
21
-121.927
0
LINE
8
Black
10
76.0929
20
-121.927
11
76.3786
21
-122.07
0
LINE
8
Black
10
77.5214
20
-125.07
11
77.6643
21
-124.927
0
LINE
8
Black
10
77.6643
20
-124.927
11
77.95
21
-124.499
0
LINE
8
Black
10
77.95
20
-124.499
11
78.0929
21
-124.213
0
LINE
8
Black
10
78.0929
20
-124.213
11
78.2357
21
-123.784
0
LINE
8
Black
10
78.2357
20
-123.784
11
78.3786
21
-123.07
0
LINE
8
Black
10
78.3786
20
-123.07
11
78.3786
21
-122.499
0
LINE
8
Black
10
78.3786
20
-122.499
11
78.2357
21
-121.784
0
LINE
8
Black
10
78.2357
20
-121.784
11
78.0929
21
-121.356
0
LINE
8
Black
10
78.0929
20
-121.356
11
77.95
21
-121.07
0
LINE
8
Black
10
77.95
20
-121.07
11
77.6643
21
-120.641
0
LINE
8
Black
10
77.6643
20
-120.641
11
77.5214
21
-120.499
0
LINE
8
Black
10
9.80121
20
-126.889
11
9.80121
21
-126.171
0
LINE
8
Black
10
9.80121
20
-126.171
11
9.08279
21
-126.171
0
LINE
8
Black
10
9.08279
20
-126.171
11
9.08279
21
-126.889
0
LINE
8
Black
10
9.08279
20
-126.889
11
9.80121
21
-126.889
0
LINE
8
Black
10
14.2357
20
-127.887
11
12.5214
21
-127.887
0
LINE
8
Black
10
13.3786
20
-127.887
11
13.3786
21
-124.887
0
LINE
8
Black
10
13.3786
20
-124.887
11
13.0929
21
-125.316
0
LINE
8
Black
10
13.0929
20
-125.316
11
12.8071
21
-125.601
0
LINE
8
Black
10
12.8071
20
-125.601
11
12.5214
21
-125.744
0
LINE
8
Black
10
15.5214
20
-127.601
11
15.6643
21
-127.744
0
LINE
8
Black
10
15.6643
20
-127.744
11
15.5214
21
-127.887
0
LINE
8
Black
10
15.5214
20
-127.887
11
15.3786
21
-127.744
0
LINE
8
Black
10
15.3786
20
-127.744
11
15.5214
21
-127.601
0
LINE
8
Black
10
15.5214
20
-127.601
11
15.5214
21
-127.887
0
LINE
8
Black
10
17.5214
20
-124.887
11
17.8071
21
-124.887
0
LINE
8
Black
10
17.8071
20
-124.887
11
18.0929
21
-125.03
0
LINE
8
Black
10
18.0929
20
-125.03
11
18.2357
21
-125.173
0
LINE
8
Black
10
18.2357
20
-125.173
11
18.3786
21
-125.459
0
LINE
8
Black
10
18.3786
20
-125.459
11
18.5214
21
-126.03
0
LINE
8
Black
10
18.5214
20
-126.03
11
18.5214
21
-126.744
0
LINE
8
Black
10
18.5214
20
-126.744
11
18.3786
21
-127.316
0
LINE
8
Black
10
18.3786
20
-127.316
11
18.2357
21
-127.601
0
LINE
8
Black
10
18.2357
20
-127.601
11
18.0929
21
-127.744
0
LINE
8
Black
10
18.0929
20
-127.744
11
17.8071
21
-127.887
0
LINE
8
Black
10
17.8071
20
-127.887
11
17.5214
21
-127.887
0
LINE
8
Black
10
17.5214
20
-127.887
11
17.2357
21
-127.744
0
LINE
8
Black
10
17.2357
20
-127.744
11
17.0929
21
-127.601
0
LINE
8
Black
10
17.0929
20
-127.601
11
16.95
21
-127.316
0
LINE
8
Black
10
16.95
20
-127.316
11
16.8071
21
-126.744
0
LINE
8
Black
10
16.8071
20
-126.744
11
16.8071
21
-126.03
0
LINE
8
Black
10
16.8071
20
-126.03
11
16.95
21
-125.459
0
LINE
8
Black
10
16.95
20
-125.459
11
17.0929
21
-125.173
0
LINE
8
Black
10
17.0929
20
-125.173
11
17.2357
21
-125.03
0
LINE
8
Black
10
17.2357
20
-125.03
11
17.5214
21
-124.887
0
LINE
8
Black
10
19.6643
20
-125.173
11
19.8071
21
-125.03
0
LINE
8
Black
10
19.8071
20
-125.03
11
20.0929
21
-124.887
0
LINE
8
Black
10
20.0929
20
-124.887
11
20.8071
21
-124.887
0
LINE
8
Black
10
20.8071
20
-124.887
11
21.0929
21
-125.03
0
LINE
8
Black
10
21.0929
20
-125.03
11
21.2357
21
-125.173
0
LINE
8
Black
10
21.2357
20
-125.173
11
21.3786
21
-125.459
0
LINE
8
Black
10
21.3786
20
-125.459
11
21.3786
21
-125.744
0
LINE
8
Black
10
21.3786
20
-125.744
11
21.2357
21
-126.173
0
LINE
8
Black
10
21.2357
20
-126.173
11
19.5214
21
-127.887
0
LINE
8
Black
10
19.5214
20
-127.887
11
21.3786
21
-127.887
0
LINE
8
Black
10
22.6643
20
-127.887
11
22.6643
21
-125.887
0
LINE
8
Black
10
22.6643
20
-126.173
11
22.8071
21
-126.03
0
LINE
8
Black
10
22.8071
20
-126.03
11
23.0929
21
-125.887
0
LINE
8
Black
10
23.0929
20
-125.887
11
23.5214
21
-125.887
0
LINE
8
Black
10
23.5214
20
-125.887
11
23.8071
21
-126.03
0
LINE
8
Black
10
23.8071
20
-126.03
11
23.95
21
-126.316
0
LINE
8
Black
10
23.95
20
-126.316
11
23.95
21
-127.887
0
LINE
8
Black
10
23.95
20
-126.316
11
24.0929
21
-126.03
0
LINE
8
Black
10
24.0929
20
-126.03
11
24.3786
21
-125.887
0
LINE
8
Black
10
24.3786
20
-125.887
11
24.8071
21
-125.887
0
LINE
8
Black
10
24.8071
20
-125.887
11
25.0929
21
-126.03
0
LINE
8
Black
10
25.0929
20
-126.03
11
25.2357
21
-126.316
0
LINE
8
Black
10
25.2357
20
-126.316
11
25.2357
21
-127.887
0
LINE
8
Black
10
26.6643
20
-127.887
11
26.6643
21
-125.887
0
LINE
8
Black
10
26.6643
20
-126.173
11
26.8071
21
-126.03
0
LINE
8
Black
10
26.8071
20
-126.03
11
27.0929
21
-125.887
0
LINE
8
Black
10
27.0929
20
-125.887
11
27.5214
21
-125.887
0
LINE
8
Black
10
27.5214
20
-125.887
11
27.8071
21
-126.03
0
LINE
8
Black
10
27.8071
20
-126.03
11
27.95
21
-126.316
0
LINE
8
Black
10
27.95
20
-126.316
11
27.95
21
-127.887
0
LINE
8
Black
10
27.95
20
-126.316
11
28.0929
21
-126.03
0
LINE
8
Black
10
28.0929
20
-126.03
11
28.3786
21
-125.887
0
LINE
8
Black
10
28.3786
20
-125.887
11
28.8071
21
-125.887
0
LINE
8
Black
10
28.8071
20
-125.887
11
29.0929
21
-126.03
0
LINE
8
Black
10
29.0929
20
-126.03
11
29.2357
21
-126.316
0
LINE
8
Black
10
29.2357
20
-126.316
11
29.2357
21
-127.887
0
LINE
8
Black
10
35.0929
20
-124.744
11
32.5214
21
-128.601
0
LINE
8
Black
10
38.95
20
-124.887
11
39.2357
21
-124.887
0
LINE
8
Black
10
39.2357
20
-124.887
11
39.5214
21
-125.03
0
LINE
8
Black
10
39.5214
20
-125.03
11
39.6643
21
-125.173
0
LINE
8
Black
10
39.6643
20
-125.173
11
39.8071
21
-125.459
0
LINE
8
Black
10
39.8071
20
-125.459
11
39.95
21
-126.03
0
LINE
8
Black
10
39.95
20
-126.03
11
39.95
21
-126.744
0
LINE
8
Black
10
39.95
20
-126.744
11
39.8071
21
-127.316
0
LINE
8
Black
10
39.8071
20
-127.316
11
39.6643
21
-127.601
0
LINE
8
Black
10
39.6643
20
-127.601
11
39.5214
21
-127.744
0
LINE
8
Black
10
39.5214
20
-127.744
11
39.2357
21
-127.887
0
LINE
8
Black
10
39.2357
20
-127.887
11
38.95
21
-127.887
0
LINE
8
Black
10
38.95
20
-127.887
11
38.6643
21
-127.744
0
LINE
8
Black
10
38.6643
20
-127.744
11
38.5214
21
-127.601
0
LINE
8
Black
10
38.5214
20
-127.601
11
38.3786
21
-127.316
0
LINE
8
Black
10
38.3786
20
-127.316
11
38.2357
21
-126.744
0
LINE
8
Black
10
38.2357
20
-126.744
11
38.2357
21
-126.03
0
LINE
8
Black
10
38.2357
20
-126.03
11
38.3786
21
-125.459
0
LINE
8
Black
10
38.3786
20
-125.459
11
38.5214
21
-125.173
0
LINE
8
Black
10
38.5214
20
-125.173
11
38.6643
21
-125.03
0
LINE
8
Black
10
38.6643
20
-125.03
11
38.95
21
-124.887
0
LINE
8
Black
10
41.2357
20
-127.601
11
41.3786
21
-127.744
0
LINE
8
Black
10
41.3786
20
-127.744
11
41.2357
21
-127.887
0
LINE
8
Black
10
41.2357
20
-127.887
11
41.0929
21
-127.744
0
LINE
8
Black
10
41.0929
20
-127.744
11
41.2357
21
-127.601
0
LINE
8
Black
10
41.2357
20
-127.601
11
41.2357
21
-127.887
0
LINE
8
Black
10
43.2357
20
-124.887
11
43.5214
21
-124.887
0
LINE
8
Black
10
43.5214
20
-124.887
11
43.8071
21
-125.03
0
LINE
8
Black
10
43.8071
20
-125.03
11
43.95
21
-125.173
0
LINE
8
Black
10
43.95
20
-125.173
11
44.0929
21
-125.459
0
LINE
8
Black
10
44.0929
20
-125.459
11
44.2357
21
-126.03
0
LINE
8
Black
10
44.2357
20
-126.03
11
44.2357
21
-126.744
0
LINE
8
Black
10
44.2357
20
-126.744
11
44.0929
21
-127.316
0
LINE
8
Black
10
44.0929
20
-127.316
11
43.95
21
-127.601
0
LINE
8
Black
10
43.95
20
-127.601
11
43.8071
21
-127.744
0
LINE
8
Black
10
43.8071
20
-127.744
11
43.5214
21
-127.887
0
LINE
8
Black
10
43.5214
20
-127.887
11
43.2357
21
-127.887
0
LINE
8
Black
10
43.2357
20
-127.887
11
42.95
21
-127.744
0
LINE
8
Black
10
42.95
20
-127.744
11
42.8071
21
-127.601
0
LINE
8
Black
10
42.8071
20
-127.601
11
42.6643
21
-127.316
0
LINE
8
Black
10
42.6643
20
-127.316
11
42.5214
21
-126.744
0
LINE
8
Black
10
42.5214
20
-126.744
11
42.5214
21
-126.03
0
LINE
8
Black
10
42.5214
20
-126.03
11
42.6643
21
-125.459
0
LINE
8
Black
10
42.6643
20
-125.459
11
42.8071
21
-125.173
0
LINE
8
Black
10
42.8071
20
-125.173
11
42.95
21
-125.03
0
LINE
8
Black
10
42.95
20
-125.03
11
43.2357
21
-124.887
0
LINE
8
Black
10
46.8071
20
-125.887
11
46.8071
21
-127.887
0
LINE
8
Black
10
46.0929
20
-124.744
11
45.3786
21
-126.887
0
LINE
8
Black
10
45.3786
20
-126.887
11
47.2357
21
-126.887
0
LINE
8
Black
10
48.95
20
-124.887
11
49.2357
21
-124.887
0
LINE
8
Black
10
49.2357
20
-124.887
11
49.5214
21
-125.03
0
LINE
8
Black
10
49.5214
20
-125.03
11
49.6643
21
-125.173
0
LINE
8
Black
10
49.6643
20
-125.173
11
49.8071
21
-125.459
0
LINE
8
Black
10
49.8071
20
-125.459
11
49.95
21
-126.03
0
LINE
8
Black
10
49.95
20
-126.03
11
49.95
21
-126.744
0
LINE
8
Black
10
49.95
20
-126.744
11
49.8071
21
-127.316
0
LINE
8
Black
10
49.8071
20
-127.316
11
49.6643
21
-127.601
0
LINE
8
Black
10
49.6643
20
-127.601
11
49.5214
21
-127.744
0
LINE
8
Black
10
49.5214
20
-127.744
11
49.2357
21
-127.887
0
LINE
8
Black
10
49.2357
20
-127.887
11
48.95
21
-127.887
0
LINE
8
Black
10
48.95
20
-127.887
11
48.6643
21
-127.744
0
LINE
8
Black
10
48.6643
20
-127.744
11
48.5214
21
-127.601
0
LINE
8
Black
10
48.5214
20
-127.601
11
48.3786
21
-127.316
0
LINE
8
Black
10
48.3786
20
-127.316
11
48.2357
21
-126.744
0
LINE
8
Black
10
48.2357
20
-126.744
11
48.2357
21
-126.03
0
LINE
8
Black
10
48.2357
20
-126.03
11
48.3786
21
-125.459
0
LINE
8
Black
10
48.3786
20
-125.459
11
48.5214
21
-125.173
0
LINE
8
Black
10
48.5214
20
-125.173
11
48.6643
21
-125.03
0
LINE
8
Black
10
48.6643
20
-125.03
11
48.95
21
-124.887
0
LINE
8
Black
10
51.0929
20
-124.887
11
51.0929
21
-125.459
0
LINE
8
Black
10
52.2357
20
-124.887
11
52.2357
21
-125.459
0
LINE
8
Black
10
56.6643
20
-129.03
11
56.5214
21
-128.887
0
LINE
8
Black
10
56.5214
20
-128.887
11
56.2357
21
-128.459
0
LINE
8
Black
10
56.2357
20
-128.459
11
56.0929
21
-128.173
0
LINE
8
Black
10
56.0929
20
-128.173
11
55.95
21
-127.744
0
LINE
8
Black
10
55.95
20
-127.744
11
55.8071
21
-127.03
0
LINE
8
Black
10
55.8071
20
-127.03
11
55.8071
21
-126.459
0
LINE
8
Black
10
55.8071
20
-126.459
11
55.95
21
-125.744
0
LINE
8
Black
10
55.95
20
-125.744
11
56.0929
21
-125.316
0
LINE
8
Black
10
56.0929
20
-125.316
11
56.2357
21
-125.03
0
LINE
8
Black
10
56.2357
20
-125.03
11
56.5214
21
-124.601
0
LINE
8
Black
10
56.5214
20
-124.601
11
56.6643
21
-124.459
0
LINE
8
Black
10
59.2357
20
-124.887
11
57.8071
21
-124.887
0
LINE
8
Black
10
57.8071
20
-124.887
11
57.6643
21
-126.316
0
LINE
8
Black
10
57.6643
20
-126.316
11
57.8071
21
-126.173
0
LINE
8
Black
10
57.8071
20
-126.173
11
58.0929
21
-126.03
0
LINE
8
Black
10
58.0929
20
-126.03
11
58.8071
21
-126.03
0
LINE
8
Black
10
58.8071
20
-126.03
11
59.0929
21
-126.173
0
LINE
8
Black
10
59.0929
20
-126.173
11
59.2357
21
-126.316
0
LINE
8
Black
10
59.2357
20
-126.316
11
59.3786
21
-126.601
0
LINE
8
Black
10
59.3786
20
-126.601
11
59.3786
21
-127.316
0
LINE
8
Black
10
59.3786
20
-127.316
11
59.2357
21
-127.601
0
LINE
8
Black
10
59.2357
20
-127.601
11
59.0929
21
-127.744
0
LINE
8
Black
10
59.0929
20
-127.744
11
58.8071
21
-127.887
0
LINE
8
Black
10
58.8071
20
-127.887
11
58.0929
21
-127.887
0
LINE
8
Black
10
58.0929
20
-127.887
11
57.8071
21
-127.744
0
LINE
8
Black
10
57.8071
20
-127.744
11
57.6643
21
-127.601
0
LINE
8
Black
10
61.95
20
-124.887
11
61.3786
21
-124.887
0
LINE
8
Black
10
61.3786
20
-124.887
11
61.0929
21
-125.03
0
LINE
8
Black
10
61.0929
20
-125.03
11
60.95
21
-125.173
0
LINE
8
Black
10
60.95
20
-125.173
11
60.6643
21
-125.601
0
LINE
8
Black
10
60.6643
20
-125.601
11
60.5214
21
-126.173
0
LINE
8
Black
10
60.5214
20
-126.173
11
60.5214
21
-127.316
0
LINE
8
Black
10
60.5214
20
-127.316
11
60.6643
21
-127.601
0
LINE
8
Black
10
60.6643
20
-127.601
11
60.8071
21
-127.744
0
LINE
8
Black
10
60.8071
20
-127.744
11
61.0929
21
-127.887
0
LINE
8
Black
10
61.0929
20
-127.887
11
61.6643
21
-127.887
0
LINE
8
Black
10
61.6643
20
-127.887
11
61.95
21
-127.744
0
LINE
8
Black
10
61.95
20
-127.744
11
62.0929
21
-127.601
0
LINE
8
Black
10
62.0929
20
-127.601
11
62.2357
21
-127.316
0
LINE
8
Black
10
62.2357
20
-127.316
11
62.2357
21
-126.601
0
LINE
8
Black
10
62.2357
20
-126.601
11
62.0929
21
-126.316
0
LINE
8
Black
10
62.0929
20
-126.316
11
61.95
21
-126.173
0
LINE
8
Black
10
61.95
20
-126.173
11
61.6643
21
-126.03
0
LINE
8
Black
10
61.6643
20
-126.03
11
61.0929
21
-126.03
0
LINE
8
Black
10
61.0929
20
-126.03
11
60.8071
21
-126.173
0
LINE
8
Black
10
60.8071
20
-126.173
11
60.6643
21
-126.316
0
LINE
8
Black
10
60.6643
20
-126.316
11
60.5214
21
-126.601
0
LINE
8
Black
10
65.8071
20
-127.887
11
65.8071
21
-124.887
0
LINE
8
Black
10
67.0929
20
-127.887
11
67.0929
21
-126.316
0
LINE
8
Black
10
67.0929
20
-126.316
11
66.95
21
-126.03
0
LINE
8
Black
10
66.95
20
-126.03
11
66.6643
21
-125.887
0
LINE
8
Black
10
66.6643
20
-125.887
11
66.2357
21
-125.887
0
LINE
8
Black
10
66.2357
20
-125.887
11
65.95
21
-126.03
0
LINE
8
Black
10
65.95
20
-126.03
11
65.8071
21
-126.173
0
LINE
8
Black
10
68.95
20
-127.887
11
68.6643
21
-127.744
0
LINE
8
Black
10
68.6643
20
-127.744
11
68.5214
21
-127.601
0
LINE
8
Black
10
68.5214
20
-127.601
11
68.3786
21
-127.316
0
LINE
8
Black
10
68.3786
20
-127.316
11
68.3786
21
-126.459
0
LINE
8
Black
10
68.3786
20
-126.459
11
68.5214
21
-126.173
0
LINE
8
Black
10
68.5214
20
-126.173
11
68.6643
21
-126.03
0
LINE
8
Black
10
68.6643
20
-126.03
11
68.95
21
-125.887
0
LINE
8
Black
10
68.95
20
-125.887
11
69.3786
21
-125.887
0
LINE
8
Black
10
69.3786
20
-125.887
11
69.6643
21
-126.03
0
LINE
8
Black
10
69.6643
20
-126.03
11
69.8071
21
-126.173
0
LINE
8
Black
10
69.8071
20
-126.173
11
69.95
21
-126.459
0
LINE
8
Black
10
69.95
20
-126.459
11
69.95
21
-127.316
0
LINE
8
Black
10
69.95
20
-127.316
11
69.8071
21
-127.601
0
LINE
8
Black
10
69.8071
20
-127.601
11
69.6643
21
-127.744
0
LINE
8
Black
10
69.6643
20
-127.744
11
69.3786
21
-127.887
0
LINE
8
Black
10
69.3786
20
-127.887
11
68.95
21
-127.887
0
LINE
8
Black
10
71.6643
20
-127.887
11
71.3786
21
-127.744
0
LINE
8
Black
10
71.3786
20
-127.744
11
71.2357
21
-127.459
0
LINE
8
Black
10
71.2357
20
-127.459
11
71.2357
21
-124.887
0
LINE
8
Black
10
73.95
20
-127.744
11
73.6643
21
-127.887
0
LINE
8
Black
10
73.6643
20
-127.887
11
73.0929
21
-127.887
0
LINE
8
Black
10
73.0929
20
-127.887
11
72.8071
21
-127.744
0
LINE
8
Black
10
72.8071
20
-127.744
11
72.6643
21
-127.459
0
LINE
8
Black
10
72.6643
20
-127.459
11
72.6643
21
-126.316
0
LINE
8
Black
10
72.6643
20
-126.316
11
72.8071
21
-126.03
0
LINE
8
Black
10
72.8071
20
-126.03
11
73.0929
21
-125.887
0
LINE
8
Black
10
73.0929
20
-125.887
11
73.6643
21
-125.887
0
LINE
8
Black
10
73.6643
20
-125.887
11
73.95
21
-126.03
0
LINE
8
Black
10
73.95
20
-126.03
11
74.0929
21
-126.316
0
LINE
8
Black
10
74.0929
20
-126.316
11
74.0929
21
-126.601
0
LINE
8
Black
10
74.0929
20
-126.601
11
72.6643
21
-126.887
0
LINE
8
Black
10
75.2357
20
-127.744
11
75.5214
21
-127.887
0
LINE
8
Black
10
75.5214
20
-127.887
11
76.0929
21
-127.887
0
LINE
8
Black
10
76.0929
20
-127.887
11
76.3786
21
-127.744
0
LINE
8
Black
10
76.3786
20
-127.744
11
76.5214
21
-127.459
0
LINE
8
Black
10
76.5214
20
-127.459
11
76.5214
21
-127.316
0
LINE
8
Black
10
76.5214
20
-127.316
11
76.3786
21
-127.03
0
LINE
8
Black
10
76.3786
20
-127.03
11
76.0929
21
-126.887
0
LINE
8
Black
10
76.0929
20
-126.887
11
75.6643
21
-126.887
0
LINE
8
Black
10
75.6643
20
-126.887
11
75.3786
21
-126.744
0
LINE
8
Black
10
75.3786
20
-126.744
11
75.2357
21
-126.459
0
LINE
8
Black
10
75.2357
20
-126.459
11
75.2357
21
-126.316
0
LINE
8
Black
10
75.2357
20
-126.316
11
75.3786
21
-126.03
0
LINE
8
Black
10
75.3786
20
-126.03
11
75.6643
21
-125.887
0
LINE
8
Black
10
75.6643
20
-125.887
11
76.0929
21
-125.887
0
LINE
8
Black
10
76.0929
20
-125.887
11
76.3786
21
-126.03
0
LINE
8
Black
10
77.5214
20
-129.03
11
77.6643
21
-128.887
0
LINE
8
Black
10
77.6643
20
-128.887
11
77.95
21
-128.459
0
LINE
8
Black
10
77.95
20
-128.459
11
78.0929
21
-128.173
0
LINE
8
Black
10
78.0929
20
-128.173
11
78.2357
21
-127.744
0
LINE
8
Black
10
78.2357
20
-127.744
11
78.3786
21
-127.03
0
LINE
8
Black
10
78.3786
20
-127.03
11
78.3786
21
-126.459
0
LINE
8
Black
10
78.3786
20
-126.459
11
78.2357
21
-125.744
0
LINE
8
Black
10
78.2357
20
-125.744
11
78.0929
21
-125.316
0
LINE
8
Black
10
78.0929
20
-125.316
11
77.95
21
-125.03
0
LINE
8
Black
10
77.95
20
-125.03
11
77.6643
21
-124.601
0
LINE
8
Black
10
77.6643
20
-124.601
11
77.5214
21
-124.459
0
LINE
8
Black
10
8.68
20
-131.76
11
9.95
21
-130.49
0
LINE
8
Black
10
9.95
20
-130.49
11
8.68
21
-129.22
0
LINE
8
Black
10
8.68
20
-129.22
11
7.41
21
-130.49
0
LINE
8
Black
10
7.41
20
-130.49
11
8.68
21
-131.76
0
LINE
8
Black
10
12.5214
20
-129.133
11
12.6643
21
-128.99
0
LINE
8
Black
10
12.6643
20
-128.99
11
12.95
21
-128.847
0
LINE
8
Black
10
12.95
20
-128.847
11
13.6643
21
-128.847
0
LINE
8
Black
10
13.6643
20
-128.847
11
13.95
21
-128.99
0
LINE
8
Black
10
13.95
20
-128.99
11
14.0929
21
-129.133
0
LINE
8
Black
10
14.0929
20
-129.133
11
14.2357
21
-129.419
0
LINE
8
Black
10
14.2357
20
-129.419
11
14.2357
21
-129.704
0
LINE
8
Black
10
14.2357
20
-129.704
11
14.0929
21
-130.133
0
LINE
8
Black
10
14.0929
20
-130.133
11
12.3786
21
-131.847
0
LINE
8
Black
10
12.3786
20
-131.847
11
14.2357
21
-131.847
0
LINE
8
Black
10
15.5214
20
-131.561
11
15.6643
21
-131.704
0
LINE
8
Black
10
15.6643
20
-131.704
11
15.5214
21
-131.847
0
LINE
8
Black
10
15.5214
20
-131.847
11
15.3786
21
-131.704
0
LINE
8
Black
10
15.3786
20
-131.704
11
15.5214
21
-131.561
0
LINE
8
Black
10
15.5214
20
-131.561
11
15.5214
21
-131.847
0
LINE
8
Black
10
18.3786
20
-128.847
11
16.95
21
-128.847
0
LINE
8
Black
10
16.95
20
-128.847
11
16.8071
21
-130.276
0
LINE
8
Black
10
16.8071
20
-130.276
11
16.95
21
-130.133
0
LINE
8
Black
10
16.95
20
-130.133
11
17.2357
21
-129.99
0
LINE
8
Black
10
17.2357
20
-129.99
11
17.95
21
-129.99
0
LINE
8
Black
10
17.95
20
-129.99
11
18.2357
21
-130.133
0
LINE
8
Black
10
18.2357
20
-130.133
11
18.3786
21
-130.276
0
LINE
8
Black
10
18.3786
20
-130.276
11
18.5214
21
-130.561
0
LINE
8
Black
10
18.5214
20
-130.561
11
18.5214
21
-131.276
0
LINE
8
Black
10
18.5214
20
-131.276
11
18.3786
21
-131.561
0
LINE
8
Black
10
18.3786
20
-131.561
11
18.2357
21
-131.704
0
LINE
8
Black
10
18.2357
20
-131.704
11
17.95
21
-131.847
0
LINE
8
Black
10
17.95
20
-131.847
11
17.2357
21
-131.847
0
LINE
8
Black
10
17.2357
20
-131.847
11
16.95
21
-131.704
0
LINE
8
Black
10
16.95
20
-131.704
11
16.8071
21
-131.561
0
LINE
8
Black
10
21.0929
20
-129.847
11
21.0929
21
-131.847
0
LINE
8
Black
10
20.3786
20
-128.704
11
19.6643
21
-130.847
0
LINE
8
Black
10
19.6643
20
-130.847
11
21.5214
21
-130.847
0
LINE
8
Black
10
22.6643
20
-131.847
11
22.6643
21
-129.847
0
LINE
8
Black
10
22.6643
20
-130.133
11
22.8071
21
-129.99
0
LINE
8
Black
10
22.8071
20
-129.99
11
23.0929
21
-129.847
0
LINE
8
Black
10
23.0929
20
-129.847
11
23.5214
21
-129.847
0
LINE
8
Black
10
23.5214
20
-129.847
11
23.8071
21
-129.99
0
LINE
8
Black
10
23.8071
20
-129.99
11
23.95
21
-130.276
0
LINE
8
Black
10
23.95
20
-130.276
11
23.95
21
-131.847
0
LINE
8
Black
10
23.95
20
-130.276
11
24.0929
21
-129.99
0
LINE
8
Black
10
24.0929
20
-129.99
11
24.3786
21
-129.847
0
LINE
8
Black
10
24.3786
20
-129.847
11
24.8071
21
-129.847
0
LINE
8
Black
10
24.8071
20
-129.847
11
25.0929
21
-129.99
0
LINE
8
Black
10
25.0929
20
-129.99
11
25.2357
21
-130.276
0
LINE
8
Black
10
25.2357
20
-130.276
11
25.2357
21
-131.847
0
LINE
8
Black
10
26.6643
20
-131.847
11
26.6643
21
-129.847
0
LINE
8
Black
10
26.6643
20
-130.133
11
26.8071
21
-129.99
0
LINE
8
Black
10
26.8071
20
-129.99
11
27.0929
21
-129.847
0
LINE
8
Black
10
27.0929
20
-129.847
11
27.5214
21
-129.847
0
LINE
8
Black
10
27.5214
20
-129.847
11
27.8071
21
-129.99
0
LINE
8
Black
10
27.8071
20
-129.99
11
27.95
21
-130.276
0
LINE
8
Black
10
27.95
20
-130.276
11
27.95
21
-131.847
0
LINE
8
Black
10
27.95
20
-130.276
11
28.0929
21
-129.99
0
LINE
8
Black
10
28.0929
20
-129.99
11
28.3786
21
-129.847
0
LINE
8
Black
10
28.3786
20
-129.847
11
28.8071
21
-129.847
0
LINE
8
Black
10
28.8071
20
-129.847
11
29.0929
21
-129.99
0
LINE
8
Black
10
29.0929
20
-129.99
11
29.2357
21
-130.276
0
LINE
8
Black
10
29.2357
20
-130.276
11
29.2357
21
-131.847
0
LINE
8
Black
10
35.0929
20
-128.704
11
32.5214
21
-132.561
0
LINE
8
Black
10
38.95
20
-128.847
11
39.2357
21
-128.847
0
LINE
8
Black
10
39.2357
20
-128.847
11
39.5214
21
-128.99
0
LINE
8
Black
10
39.5214
20
-128.99
11
39.6643
21
-129.133
0
LINE
8
Black
10
39.6643
20
-129.133
11
39.8071
21
-129.419
0
LINE
8
Black
10
39.8071
20
-129.419
11
39.95
21
-129.99
0
LINE
8
Black
10
39.95
20
-129.99
11
39.95
21
-130.704
0
LINE
8
Black
10
39.95
20
-130.704
11
39.8071
21
-131.276
0
LINE
8
Black
10
39.8071
20
-131.276
11
39.6643
21
-131.561
0
LINE
8
Black
10
39.6643
20
-131.561
11
39.5214
21
-131.704
0
LINE
8
Black
10
39.5214
20
-131.704
11
39.2357
21
-131.847
0
LINE
8
Black
10
39.2357
20
-131.847
11
38.95
21
-131.847
0
LINE
8
Black
10
38.95
20
-131.847
11
38.6643
21
-131.704
0
LINE
8
Black
10
38.6643
20
-131.704
11
38.5214
21
-131.561
0
LINE
8
Black
10
38.5214
20
-131.561
11
38.3786
21
-131.276
0
LINE
8
Black
10
38.3786
20
-131.276
11
38.2357
21
-130.704
0
LINE
8
Black
10
38.2357
20
-130.704
11
38.2357
21
-129.99
0
LINE
8
Black
10
38.2357
20
-129.99
11
38.3786
21
-129.419
0
LINE
8
Black
10
38.3786
20
-129.419
11
38.5214
21
-129.133
0
LINE
8
Black
10
38.5214
20
-129.133
11
38.6643
21
-128.99
0
LINE
8
Black
10
38.6643
20
-128.99
11
38.95
21
-128.847
0
LINE
8
Black
10
41.2357
20
-131.561
11
41.3786
21
-131.704
0
LINE
8
Black
10
41.3786
20
-131.704
11
41.2357
21
-131.847
0
LINE
8
Black
10
41.2357
20
-131.847
11
41.0929
21
-131.704
0
LINE
8
Black
10
41.0929
20
-131.704
11
41.2357
21
-131.561
0
LINE
8
Black
10
41.2357
20
-131.561
11
41.2357
21
-131.847
0
LINE
8
Black
10
44.2357
20
-131.847
11
42.5214
21
-131.847
0
LINE
8
Black
10
43.3786
20
-131.847
11
43.3786
21
-128.847
0
LINE
8
Black
10
43.3786
20
-128.847
11
43.0929
21
-129.276
0
LINE
8
Black
10
43.0929
20
-129.276
11
42.8071
21
-129.561
0
LINE
8
Black
10
42.8071
20
-129.561
11
42.5214
21
-129.704
0
LINE
8
Black
10
46.0929
20
-128.847
11
46.3786
21
-128.847
0
LINE
8
Black
10
46.3786
20
-128.847
11
46.6643
21
-128.99
0
LINE
8
Black
10
46.6643
20
-128.99
11
46.8071
21
-129.133
0
LINE
8
Black
10
46.8071
20
-129.133
11
46.95
21
-129.419
0
LINE
8
Black
10
46.95
20
-129.419
11
47.0929
21
-129.99
0
LINE
8
Black
10
47.0929
20
-129.99
11
47.0929
21
-130.704
0
LINE
8
Black
10
47.0929
20
-130.704
11
46.95
21
-131.276
0
LINE
8
Black
10
46.95
20
-131.276
11
46.8071
21
-131.561
0
LINE
8
Black
10
46.8071
20
-131.561
11
46.6643
21
-131.704
0
LINE
8
Black
10
46.6643
20
-131.704
11
46.3786
21
-131.847
0
LINE
8
Black
10
46.3786
20
-131.847
11
46.0929
21
-131.847
0
LINE
8
Black
10
46.0929
20
-131.847
11
45.8071
21
-131.704
0
LINE
8
Black
10
45.8071
20
-131.704
11
45.6643
21
-131.561
0
LINE
8
Black
10
45.6643
20
-131.561
11
45.5214
21
-131.276
0
LINE
8
Black
10
45.5214
20
-131.276
11
45.3786
21
-130.704
0
LINE
8
Black
10
45.3786
20
-130.704
11
45.3786
21
-129.99
0
LINE
8
Black
10
45.3786
20
-129.99
11
45.5214
21
-129.419
0
LINE
8
Black
10
45.5214
20
-129.419
11
45.6643
21
-129.133
0
LINE
8
Black
10
45.6643
20
-129.133
11
45.8071
21
-128.99
0
LINE
8
Black
10
45.8071
20
-128.99
11
46.0929
21
-128.847
0
LINE
8
Black
10
48.95
20
-128.847
11
49.2357
21
-128.847
0
LINE
8
Black
10
49.2357
20
-128.847
11
49.5214
21
-128.99
0
LINE
8
Black
10
49.5214
20
-128.99
11
49.6643
21
-129.133
0
LINE
8
Black
10
49.6643
20
-129.133
11
49.8071
21
-129.419
0
LINE
8
Black
10
49.8071
20
-129.419
11
49.95
21
-129.99
0
LINE
8
Black
10
49.95
20
-129.99
11
49.95
21
-130.704
0
LINE
8
Black
10
49.95
20
-130.704
11
49.8071
21
-131.276
0
LINE
8
Black
10
49.8071
20
-131.276
11
49.6643
21
-131.561
0
LINE
8
Black
10
49.6643
20
-131.561
11
49.5214
21
-131.704
0
LINE
8
Black
10
49.5214
20
-131.704
11
49.2357
21
-131.847
0
LINE
8
Black
10
49.2357
20
-131.847
11
48.95
21
-131.847
0
LINE
8
Black
10
48.95
20
-131.847
11
48.6643
21
-131.704
0
LINE
8
Black
10
48.6643
20
-131.704
11
48.5214
21
-131.561
0
LINE
8
Black
10
48.5214
20
-131.561
11
48.3786
21
-131.276
0
LINE
8
Black
10
48.3786
20
-131.276
11
48.2357
21
-130.704
0
LINE
8
Black
10
48.2357
20
-130.704
11
48.2357
21
-129.99
0
LINE
8
Black
10
48.2357
20
-129.99
11
48.3786
21
-129.419
0
LINE
8
Black
10
48.3786
20
-129.419
11
48.5214
21
-129.133
0
LINE
8
Black
10
48.5214
20
-129.133
11
48.6643
21
-128.99
0
LINE
8
Black
10
48.6643
20
-128.99
11
48.95
21
-128.847
0
LINE
8
Black
10
51.0929
20
-128.847
11
51.0929
21
-129.419
0
LINE
8
Black
10
52.2357
20
-128.847
11
52.2357
21
-129.419
0
LINE
8
Black
10
56.6643
20
-132.99
11
56.5214
21
-132.847
0
LINE
8
Black
10
56.5214
20
-132.847
11
56.2357
21
-132.419
0
LINE
8
Black
10
56.2357
20
-132.419
11
56.0929
21
-132.133
0
LINE
8
Black
10
56.0929
20
-132.133
11
55.95
21
-131.704
0
LINE
8
Black
10
55.95
20
-131.704
11
55.8071
21
-130.99
0
LINE
8
Black
10
55.8071
20
-130.99
11
55.8071
21
-130.419
0
LINE
8
Black
10
55.8071
20
-130.419
11
55.95
21
-129.704
0
LINE
8
Black
10
55.95
20
-129.704
11
56.0929
21
-129.276
0
LINE
8
Black
10
56.0929
20
-129.276
11
56.2357
21
-128.99
0
LINE
8
Black
10
56.2357
20
-128.99
11
56.5214
21
-128.561
0
LINE
8
Black
10
56.5214
20
-128.561
11
56.6643
21
-128.419
0
LINE
8
Black
10
57.6643
20
-129.133
11
57.8071
21
-128.99
0
LINE
8
Black
10
57.8071
20
-128.99
11
58.0929
21
-128.847
0
LINE
8
Black
10
58.0929
20
-128.847
11
58.8071
21
-128.847
0
LINE
8
Black
10
58.8071
20
-128.847
11
59.0929
21
-128.99
0
LINE
8
Black
10
59.0929
20
-128.99
11
59.2357
21
-129.133
0
LINE
8
Black
10
59.2357
20
-129.133
11
59.3786
21
-129.419
0
LINE
8
Black
10
59.3786
20
-129.419
11
59.3786
21
-129.704
0
LINE
8
Black
10
59.3786
20
-129.704
11
59.2357
21
-130.133
0
LINE
8
Black
10
59.2357
20
-130.133
11
57.5214
21
-131.847
0
LINE
8
Black
10
57.5214
20
-131.847
11
59.3786
21
-131.847
0
LINE
8
Black
10
62.95
20
-131.847
11
62.95
21
-128.847
0
LINE
8
Black
10
64.2357
20
-131.847
11
64.2357
21
-130.276
0
LINE
8
Black
10
64.2357
20
-130.276
11
64.0929
21
-129.99
0
LINE
8
Black
10
64.0929
20
-129.99
11
63.8071
21
-129.847
0
LINE
8
Black
10
63.8071
20
-129.847
11
63.3786
21
-129.847
0
LINE
8
Black
10
63.3786
20
-129.847
11
63.0929
21
-129.99
0
LINE
8
Black
10
63.0929
20
-129.99
11
62.95
21
-130.133
0
LINE
8
Black
10
66.0929
20
-131.847
11
65.8071
21
-131.704
0
LINE
8
Black
10
65.8071
20
-131.704
11
65.6643
21
-131.561
0
LINE
8
Black
10
65.6643
20
-131.561
11
65.5214
21
-131.276
0
LINE
8
Black
10
65.5214
20
-131.276
11
65.5214
21
-130.419
0
LINE
8
Black
10
65.5214
20
-130.419
11
65.6643
21
-130.133
0
LINE
8
Black
10
65.6643
20
-130.133
11
65.8071
21
-129.99
0
LINE
8
Black
10
65.8071
20
-129.99
11
66.0929
21
-129.847
0
LINE
8
Black
10
66.0929
20
-129.847
11
66.5214
21
-129.847
0
LINE
8
Black
10
66.5214
20
-129.847
11
66.8071
21
-129.99
0
LINE
8
Black
10
66.8071
20
-129.99
11
66.95
21
-130.133
0
LINE
8
Black
10
66.95
20
-130.133
11
67.0929
21
-130.419
0
LINE
8
Black
10
67.0929
20
-130.419
11
67.0929
21
-131.276
0
LINE
8
Black
10
67.0929
20
-131.276
11
66.95
21
-131.561
0
LINE
8
Black
10
66.95
20
-131.561
11
66.8071
21
-131.704
0
LINE
8
Black
10
66.8071
20
-131.704
11
66.5214
21
-131.847
0
LINE
8
Black
10
66.5214
20
-131.847
11
66.0929
21
-131.847
0
LINE
8
Black
10
68.8071
20
-131.847
11
68.5214
21
-131.704
0
LINE
8
Black
10
68.5214
20
-131.704
11
68.3786
21
-131.419
0
LINE
8
Black
10
68.3786
20
-131.419
11
68.3786
21
-128.847
0
LINE
8
Black
10
71.0929
20
-131.704
11
70.8071
21
-131.847
0
LINE
8
Black
10
70.8071
20
-131.847
11
70.2357
21
-131.847
0
LINE
8
Black
10
70.2357
20
-131.847
11
69.95
21
-131.704
0
LINE
8
Black
10
69.95
20
-131.704
11
69.8071
21
-131.419
0
LINE
8
Black
10
69.8071
20
-131.419
11
69.8071
21
-130.276
0
LINE
8
Black
10
69.8071
20
-130.276
11
69.95
21
-129.99
0
LINE
8
Black
10
69.95
20
-129.99
11
70.2357
21
-129.847
0
LINE
8
Black
10
70.2357
20
-129.847
11
70.8071
21
-129.847
0
LINE
8
Black
10
70.8071
20
-129.847
11
71.0929
21
-129.99
0
LINE
8
Black
10
71.0929
20
-129.99
11
71.2357
21
-130.276
0
LINE
8
Black
10
71.2357
20
-130.276
11
71.2357
21
-130.561
0
LINE
8
Black
10
71.2357
20
-130.561
11
69.8071
21
-130.847
0
LINE
8
Black
10
72.3786
20
-131.704
11
72.6643
21
-131.847
0
LINE
8
Black
10
72.6643
20
-131.847
11
73.2357
21
-131.847
0
LINE
8
Black
10
73.2357
20
-131.847
11
73.5214
21
-131.704
0
LINE
8
Black
10
73.5214
20
-131.704
11
73.6643
21
-131.419
0
LINE
8
Black
10
73.6643
20
-131.419
11
73.6643
21
-131.276
0
LINE
8
Black
10
73.6643
20
-131.276
11
73.5214
21
-130.99
0
LINE
8
Black
10
73.5214
20
-130.99
11
73.2357
21
-130.847
0
LINE
8
Black
10
73.2357
20
-130.847
11
72.8071
21
-130.847
0
LINE
8
Black
10
72.8071
20
-130.847
11
72.5214
21
-130.704
0
LINE
8
Black
10
72.5214
20
-130.704
11
72.3786
21
-130.419
0
LINE
8
Black
10
72.3786
20
-130.419
11
72.3786
21
-130.276
0
LINE
8
Black
10
72.3786
20
-130.276
11
72.5214
21
-129.99
0
LINE
8
Black
10
72.5214
20
-129.99
11
72.8071
21
-129.847
0
LINE
8
Black
10
72.8071
20
-129.847
11
73.2357
21
-129.847
0
LINE
8
Black
10
73.2357
20
-129.847
11
73.5214
21
-129.99
0
LINE
8
Black
10
74.6643
20
-132.99
11
74.8071
21
-132.847
0
LINE
8
Black
10
74.8071
20
-132.847
11
75.0929
21
-132.419
0
LINE
8
Black
10
75.0929
20
-132.419
11
75.2357
21
-132.133
0
LINE
8
Black
10
75.2357
20
-132.133
11
75.3786
21
-131.704
0
LINE
8
Black
10
75.3786
20
-131.704
11
75.5214
21
-130.99
0
LINE
8
Black
10
75.5214
20
-130.99
11
75.5214
21
-130.419
0
LINE
8
Black
10
75.5214
20
-130.419
11
75.3786
21
-129.704
0
LINE
8
Black
10
75.3786
20
-129.704
11
75.2357
21
-129.276
0
LINE
8
Black
10
75.2357
20
-129.276
11
75.0929
21
-128.99
0
LINE
8
Black
10
75.0929
20
-128.99
11
74.8071
21
-128.561
0
LINE
8
Black
10
74.8071
20
-128.561
11
74.6643
21
-128.419
0
LINE
8
Black
10
6.902
20
-132.926
11
9.95
21
-135.974
0
LINE
8
Black
10
9.95
20
-132.926
11
6.902
21
-135.974
0
CIRCLE
8
Black
10
8.426
20
-134.45
40
1.524
0
LINE
8
Black
10
12.3786
20
-132.807
11
14.2357
21
-132.807
0
LINE
8
Black
10
14.2357
20
-132.807
11
13.2357
21
-133.95
0
LINE
8
Black
10
13.2357
20
-133.95
11
13.6643
21
-133.95
0
LINE
8
Black
10
13.6643
20
-133.95
11
13.95
21
-134.093
0
LINE
8
Black
10
13.95
20
-134.093
11
14.0929
21
-134.236
0
LINE
8
Black
10
14.0929
20
-134.236
11
14.2357
21
-134.521
0
LINE
8
Black
10
14.2357
20
-134.521
11
14.2357
21
-135.236
0
LINE
8
Black
10
14.2357
20
-135.236
11
14.0929
21
-135.521
0
LINE
8
Black
10
14.0929
20
-135.521
11
13.95
21
-135.664
0
LINE
8
Black
10
13.95
20
-135.664
11
13.6643
21
-135.807
0
LINE
8
Black
10
13.6643
20
-135.807
11
12.8071
21
-135.807
0
LINE
8
Black
10
12.8071
20
-135.807
11
12.5214
21
-135.664
0
LINE
8
Black
10
12.5214
20
-135.664
11
12.3786
21
-135.521
0
LINE
8
Black
10
15.5214
20
-135.521
11
15.6643
21
-135.664
0
LINE
8
Black
10
15.6643
20
-135.664
11
15.5214
21
-135.807
0
LINE
8
Black
10
15.5214
20
-135.807
11
15.3786
21
-135.664
0
LINE
8
Black
10
15.3786
20
-135.664
11
15.5214
21
-135.521
0
LINE
8
Black
10
15.5214
20
-135.521
11
15.5214
21
-135.807
0
LINE
8
Black
10
17.5214
20
-132.807
11
17.8071
21
-132.807
0
LINE
8
Black
10
17.8071
20
-132.807
11
18.0929
21
-132.95
0
LINE
8
Black
10
18.0929
20
-132.95
11
18.2357
21
-133.093
0
LINE
8
Black
10
18.2357
20
-133.093
11
18.3786
21
-133.379
0
LINE
8
Black
10
18.3786
20
-133.379
11
18.5214
21
-133.95
0
LINE
8
Black
10
18.5214
20
-133.95
11
18.5214
21
-134.664
0
LINE
8
Black
10
18.5214
20
-134.664
11
18.3786
21
-135.236
0
LINE
8
Black
10
18.3786
20
-135.236
11
18.2357
21
-135.521
0
LINE
8
Black
10
18.2357
20
-135.521
11
18.0929
21
-135.664
0
LINE
8
Black
10
18.0929
20
-135.664
11
17.8071
21
-135.807
0
LINE
8
Black
10
17.8071
20
-135.807
11
17.5214
21
-135.807
0
LINE
8
Black
10
17.5214
20
-135.807
11
17.2357
21
-135.664
0
LINE
8
Black
10
17.2357
20
-135.664
11
17.0929
21
-135.521
0
LINE
8
Black
10
17.0929
20
-135.521
11
16.95
21
-135.236
0
LINE
8
Black
10
16.95
20
-135.236
11
16.8071
21
-134.664
0
LINE
8
Black
10
16.8071
20
-134.664
11
16.8071
21
-133.95
0
LINE
8
Black
10
16.8071
20
-133.95
11
16.95
21
-133.379
0
LINE
8
Black
10
16.95
20
-133.379
11
17.0929
21
-133.093
0
LINE
8
Black
10
17.0929
20
-133.093
11
17.2357
21
-132.95
0
LINE
8
Black
10
17.2357
20
-132.95
11
17.5214
21
-132.807
0
LINE
8
Black
10
21.2357
20
-132.807
11
19.8071
21
-132.807
0
LINE
8
Black
10
19.8071
20
-132.807
11
19.6643
21
-134.236
0
LINE
8
Black
10
19.6643
20
-134.236
11
19.8071
21
-134.093
0
LINE
8
Black
10
19.8071
20
-134.093
11
20.0929
21
-133.95
0
LINE
8
Black
10
20.0929
20
-133.95
11
20.8071
21
-133.95
0
LINE
8
Black
10
20.8071
20
-133.95
11
21.0929
21
-134.093
0
LINE
8
Black
10
21.0929
20
-134.093
11
21.2357
21
-134.236
0
LINE
8
Black
10
21.2357
20
-134.236
11
21.3786
21
-134.521
0
LINE
8
Black
10
21.3786
20
-134.521
11
21.3786
21
-135.236
0
LINE
8
Black
10
21.3786
20
-135.236
11
21.2357
21
-135.521
0
LINE
8
Black
10
21.2357
20
-135.521
11
21.0929
21
-135.664
0
LINE
8
Black
10
21.0929
20
-135.664
11
20.8071
21
-135.807
0
LINE
8
Black
10
20.8071
20
-135.807
11
20.0929
21
-135.807
0
LINE
8
Black
10
20.0929
20
-135.807
11
19.8071
21
-135.664
0
LINE
8
Black
10
19.8071
20
-135.664
11
19.6643
21
-135.521
0
LINE
8
Black
10
22.6643
20
-135.807
11
22.6643
21
-133.807
0
LINE
8
Black
10
22.6643
20
-134.093
11
22.8071
21
-133.95
0
LINE
8
Black
10
22.8071
20
-133.95
11
23.0929
21
-133.807
0
LINE
8
Black
10
23.0929
20
-133.807
11
23.5214
21
-133.807
0
LINE
8
Black
10
23.5214
20
-133.807
11
23.8071
21
-133.95
0
LINE
8
Black
10
23.8071
20
-133.95
11
23.95
21
-134.236
0
LINE
8
Black
10
23.95
20
-134.236
11
23.95
21
-135.807
0
LINE
8
Black
10
23.95
20
-134.236
11
24.0929
21
-133.95
0
LINE
8
Black
10
24.0929
20
-133.95
11
24.3786
21
-133.807
0
LINE
8
Black
10
24.3786
20
-133.807
11
24.8071
21
-133.807
0
LINE
8
Black
10
24.8071
20
-133.807
11
25.0929
21
-133.95
0
LINE
8
Black
10
25.0929
20
-133.95
11
25.2357
21
-134.236
0
LINE
8
Black
10
25.2357
20
-134.236
11
25.2357
21
-135.807
0
LINE
8
Black
10
26.6643
20
-135.807
11
26.6643
21
-133.807
0
LINE
8
Black
10
26.6643
20
-134.093
11
26.8071
21
-133.95
0
LINE
8
Black
10
26.8071
20
-133.95
11
27.0929
21
-133.807
0
LINE
8
Black
10
27.0929
20
-133.807
11
27.5214
21
-133.807
0
LINE
8
Black
10
27.5214
20
-133.807
11
27.8071
21
-133.95
0
LINE
8
Black
10
27.8071
20
-133.95
11
27.95
21
-134.236
0
LINE
8
Black
10
27.95
20
-134.236
11
27.95
21
-135.807
0
LINE
8
Black
10
27.95
20
-134.236
11
28.0929
21
-133.95
0
LINE
8
Black
10
28.0929
20
-133.95
11
28.3786
21
-133.807
0
LINE
8
Black
10
28.3786
20
-133.807
11
28.8071
21
-133.807
0
LINE
8
Black
10
28.8071
20
-133.807
11
29.0929
21
-133.95
0
LINE
8
Black
10
29.0929
20
-133.95
11
29.2357
21
-134.236
0
LINE
8
Black
10
29.2357
20
-134.236
11
29.2357
21
-135.807
0
LINE
8
Black
10
35.0929
20
-132.664
11
32.5214
21
-136.521
0
LINE
8
Black
10
38.95
20
-132.807
11
39.2357
21
-132.807
0
LINE
8
Black
10
39.2357
20
-132.807
11
39.5214
21
-132.95
0
LINE
8
Black
10
39.5214
20
-132.95
11
39.6643
21
-133.093
0
LINE
8
Black
10
39.6643
20
-133.093
11
39.8071
21
-133.379
0
LINE
8
Black
10
39.8071
20
-133.379
11
39.95
21
-133.95
0
LINE
8
Black
10
39.95
20
-133.95
11
39.95
21
-134.664
0
LINE
8
Black
10
39.95
20
-134.664
11
39.8071
21
-135.236
0
LINE
8
Black
10
39.8071
20
-135.236
11
39.6643
21
-135.521
0
LINE
8
Black
10
39.6643
20
-135.521
11
39.5214
21
-135.664
0
LINE
8
Black
10
39.5214
20
-135.664
11
39.2357
21
-135.807
0
LINE
8
Black
10
39.2357
20
-135.807
11
38.95
21
-135.807
0
LINE
8
Black
10
38.95
20
-135.807
11
38.6643
21
-135.664
0
LINE
8
Black
10
38.6643
20
-135.664
11
38.5214
21
-135.521
0
LINE
8
Black
10
38.5214
20
-135.521
11
38.3786
21
-135.236
0
LINE
8
Black
10
38.3786
20
-135.236
11
38.2357
21
-134.664
0
LINE
8
Black
10
38.2357
20
-134.664
11
38.2357
21
-133.95
0
LINE
8
Black
10
38.2357
20
-133.95
11
38.3786
21
-133.379
0
LINE
8
Black
10
38.3786
20
-133.379
11
38.5214
21
-133.093
0
LINE
8
Black
10
38.5214
20
-133.093
11
38.6643
21
-132.95
0
LINE
8
Black
10
38.6643
20
-132.95
11
38.95
21
-132.807
0
LINE
8
Black
10
41.2357
20
-135.521
11
41.3786
21
-135.664
0
LINE
8
Black
10
41.3786
20
-135.664
11
41.2357
21
-135.807
0
LINE
8
Black
10
41.2357
20
-135.807
11
41.0929
21
-135.664
0
LINE
8
Black
10
41.0929
20
-135.664
11
41.2357
21
-135.521
0
LINE
8
Black
10
41.2357
20
-135.521
11
41.2357
21
-135.807
0
LINE
8
Black
10
44.2357
20
-135.807
11
42.5214
21
-135.807
0
LINE
8
Black
10
43.3786
20
-135.807
11
43.3786
21
-132.807
0
LINE
8
Black
10
43.3786
20
-132.807
11
43.0929
21
-133.236
0
LINE
8
Black
10
43.0929
20
-133.236
11
42.8071
21
-133.521
0
LINE
8
Black
10
42.8071
20
-133.521
11
42.5214
21
-133.664
0
LINE
8
Black
10
45.3786
20
-133.093
11
45.5214
21
-132.95
0
LINE
8
Black
10
45.5214
20
-132.95
11
45.8071
21
-132.807
0
LINE
8
Black
10
45.8071
20
-132.807
11
46.5214
21
-132.807
0
LINE
8
Black
10
46.5214
20
-132.807
11
46.8071
21
-132.95
0
LINE
8
Black
10
46.8071
20
-132.95
11
46.95
21
-133.093
0
LINE
8
Black
10
46.95
20
-133.093
11
47.0929
21
-133.379
0
LINE
8
Black
10
47.0929
20
-133.379
11
47.0929
21
-133.664
0
LINE
8
Black
10
47.0929
20
-133.664
11
46.95
21
-134.093
0
LINE
8
Black
10
46.95
20
-134.093
11
45.2357
21
-135.807
0
LINE
8
Black
10
45.2357
20
-135.807
11
47.0929
21
-135.807
0
LINE
8
Black
10
48.95
20
-132.807
11
49.2357
21
-132.807
0
LINE
8
Black
10
49.2357
20
-132.807
11
49.5214
21
-132.95
0
LINE
8
Black
10
49.5214
20
-132.95
11
49.6643
21
-133.093
0
LINE
8
Black
10
49.6643
20
-133.093
11
49.8071
21
-133.379
0
LINE
8
Black
10
49.8071
20
-133.379
11
49.95
21
-133.95
0
LINE
8
Black
10
49.95
20
-133.95
11
49.95
21
-134.664
0
LINE
8
Black
10
49.95
20
-134.664
11
49.8071
21
-135.236
0
LINE
8
Black
10
49.8071
20
-135.236
11
49.6643
21
-135.521
0
LINE
8
Black
10
49.6643
20
-135.521
11
49.5214
21
-135.664
0
LINE
8
Black
10
49.5214
20
-135.664
11
49.2357
21
-135.807
0
LINE
8
Black
10
49.2357
20
-135.807
11
48.95
21
-135.807
0
LINE
8
Black
10
48.95
20
-135.807
11
48.6643
21
-135.664
0
LINE
8
Black
10
48.6643
20
-135.664
11
48.5214
21
-135.521
0
LINE
8
Black
10
48.5214
20
-135.521
11
48.3786
21
-135.236
0
LINE
8
Black
10
48.3786
20
-135.236
11
48.2357
21
-134.664
0
LINE
8
Black
10
48.2357
20
-134.664
11
48.2357
21
-133.95
0
LINE
8
Black
10
48.2357
20
-133.95
11
48.3786
21
-133.379
0
LINE
8
Black
10
48.3786
20
-133.379
11
48.5214
21
-133.093
0
LINE
8
Black
10
48.5214
20
-133.093
11
48.6643
21
-132.95
0
LINE
8
Black
10
48.6643
20
-132.95
11
48.95
21
-132.807
0
LINE
8
Black
10
51.0929
20
-132.807
11
51.0929
21
-133.379
0
LINE
8
Black
10
52.2357
20
-132.807
11
52.2357
21
-133.379
0
LINE
8
Black
10
56.6643
20
-136.95
11
56.5214
21
-136.807
0
LINE
8
Black
10
56.5214
20
-136.807
11
56.2357
21
-136.379
0
LINE
8
Black
10
56.2357
20
-136.379
11
56.0929
21
-136.093
0
LINE
8
Black
10
56.0929
20
-136.093
11
55.95
21
-135.664
0
LINE
8
Black
10
55.95
20
-135.664
11
55.8071
21
-134.95
0
LINE
8
Black
10
55.8071
20
-134.95
11
55.8071
21
-134.379
0
LINE
8
Black
10
55.8071
20
-134.379
11
55.95
21
-133.664
0
LINE
8
Black
10
55.95
20
-133.664
11
56.0929
21
-133.236
0
LINE
8
Black
10
56.0929
20
-133.236
11
56.2357
21
-132.95
0
LINE
8
Black
10
56.2357
20
-132.95
11
56.5214
21
-132.521
0
LINE
8
Black
10
56.5214
20
-132.521
11
56.6643
21
-132.379
0
LINE
8
Black
10
59.3786
20
-135.807
11
57.6643
21
-135.807
0
LINE
8
Black
10
58.5214
20
-135.807
11
58.5214
21
-132.807
0
LINE
8
Black
10
58.5214
20
-132.807
11
58.2357
21
-133.236
0
LINE
8
Black
10
58.2357
20
-133.236
11
57.95
21
-133.521
0
LINE
8
Black
10
57.95
20
-133.521
11
57.6643
21
-133.664
0
LINE
8
Black
10
62.95
20
-135.807
11
62.95
21
-132.807
0
LINE
8
Black
10
64.2357
20
-135.807
11
64.2357
21
-134.236
0
LINE
8
Black
10
64.2357
20
-134.236
11
64.0929
21
-133.95
0
LINE
8
Black
10
64.0929
20
-133.95
11
63.8071
21
-133.807
0
LINE
8
Black
10
63.8071
20
-133.807
11
63.3786
21
-133.807
0
LINE
8
Black
10
63.3786
20
-133.807
11
63.0929
21
-133.95
0
LINE
8
Black
10
63.0929
20
-133.95
11
62.95
21
-134.093
0
LINE
8
Black
10
66.0929
20
-135.807
11
65.8071
21
-135.664
0
LINE
8
Black
10
65.8071
20
-135.664
11
65.6643
21
-135.521
0
LINE
8
Black
10
65.6643
20
-135.521
11
65.5214
21
-135.236
0
LINE
8
Black
10
65.5214
20
-135.236
11
65.5214
21
-134.379
0
LINE
8
Black
10
65.5214
20
-134.379
11
65.6643
21
-134.093
0
LINE
8
Black
10
65.6643
20
-134.093
11
65.8071
21
-133.95
0
LINE
8
Black
10
65.8071
20
-133.95
11
66.0929
21
-133.807
0
LINE
8
Black
10
66.0929
20
-133.807
11
66.5214
21
-133.807
0
LINE
8
Black
10
66.5214
20
-133.807
11
66.8071
21
-133.95
0
LINE
8
Black
10
66.8071
20
-133.95
11
66.95
21
-134.093
0
LINE
8
Black
10
66.95
20
-134.093
11
67.0929
21
-134.379
0
LINE
8
Black
10
67.0929
20
-134.379
11
67.0929
21
-135.236
0
LINE
8
Black
10
67.0929
20
-135.236
11
66.95
21
-135.521
0
LINE
8
Black
10
66.95
20
-135.521
11
66.8071
21
-135.664
0
LINE
8
Black
10
66.8071
20
-135.664
11
66.5214
21
-135.807
0
LINE
8
Black
10
66.5214
20
-135.807
11
66.0929
21
-135.807
0
LINE
8
Black
10
68.8071
20
-135.807
11
68.5214
21
-135.664
0
LINE
8
Black
10
68.5214
20
-135.664
11
68.3786
21
-135.379
0
LINE
8
Black
10
68.3786
20
-135.379
11
68.3786
21
-132.807
0
LINE
8
Black
10
71.0929
20
-135.664
11
70.8071
21
-135.807
0
LINE
8
Black
10
70.8071
20
-135.807
11
70.2357
21
-135.807
0
LINE
8
Black
10
70.2357
20
-135.807
11
69.95
21
-135.664
0
LINE
8
Black
10
69.95
20
-135.664
11
69.8071
21
-135.379
0
LINE
8
Black
10
69.8071
20
-135.379
11
69.8071
21
-134.236
0
LINE
8
Black
10
69.8071
20
-134.236
11
69.95
21
-133.95
0
LINE
8
Black
10
69.95
20
-133.95
11
70.2357
21
-133.807
0
LINE
8
Black
10
70.2357
20
-133.807
11
70.8071
21
-133.807
0
LINE
8
Black
10
70.8071
20
-133.807
11
71.0929
21
-133.95
0
LINE
8
Black
10
71.0929
20
-133.95
11
71.2357
21
-134.236
0
LINE
8
Black
10
71.2357
20
-134.236
11
71.2357
21
-134.521
0
LINE
8
Black
10
71.2357
20
-134.521
11
69.8071
21
-134.807
0
LINE
8
Black
10
72.2357
20
-136.95
11
72.3786
21
-136.807
0
LINE
8
Black
10
72.3786
20
-136.807
11
72.6643
21
-136.379
0
LINE
8
Black
10
72.6643
20
-136.379
11
72.8071
21
-136.093
0
LINE
8
Black
10
72.8071
20
-136.093
11
72.95
21
-135.664
0
LINE
8
Black
10
72.95
20
-135.664
11
73.0929
21
-134.95
0
LINE
8
Black
10
73.0929
20
-134.95
11
73.0929
21
-134.379
0
LINE
8
Black
10
73.0929
20
-134.379
11
72.95
21
-133.664
0
LINE
8
Black
10
72.95
20
-133.664
11
72.8071
21
-133.236
0
LINE
8
Black
10
72.8071
20
-133.236
11
72.6643
21
-132.95
0
LINE
8
Black
10
72.6643
20
-132.95
11
72.3786
21
-132.521
0
LINE
8
Black
10
72.3786
20
-132.521
11
72.2357
21
-132.379
0
LINE
8
Black
10
6.1146
20
-136.88
11
9.95
21
-140.716
0
LINE
8
Black
10
9.95
20
-136.88
11
6.1146
21
-140.716
0
LINE
8
Black
10
8.0323
20
-136.88
11
8.0323
21
-140.716
0
LINE
8
Black
10
6.1146
20
-138.798
11
9.95
21
-138.798
0
LINE
8
Black
10
12.3786
20
-137.155
11
14.2357
21
-137.155
0
LINE
8
Black
10
14.2357
20
-137.155
11
13.2357
21
-138.298
0
LINE
8
Black
10
13.2357
20
-138.298
11
13.6643
21
-138.298
0
LINE
8
Black
10
13.6643
20
-138.298
11
13.95
21
-138.441
0
LINE
8
Black
10
13.95
20
-138.441
11
14.0929
21
-138.584
0
LINE
8
Black
10
14.0929
20
-138.584
11
14.2357
21
-138.869
0
LINE
8
Black
10
14.2357
20
-138.869
11
14.2357
21
-139.584
0
LINE
8
Black
10
14.2357
20
-139.584
11
14.0929
21
-139.869
0
LINE
8
Black
10
14.0929
20
-139.869
11
13.95
21
-140.012
0
LINE
8
Black
10
13.95
20
-140.012
11
13.6643
21
-140.155
0
LINE
8
Black
10
13.6643
20
-140.155
11
12.8071
21
-140.155
0
LINE
8
Black
10
12.8071
20
-140.155
11
12.5214
21
-140.012
0
LINE
8
Black
10
12.5214
20
-140.012
11
12.3786
21
-139.869
0
LINE
8
Black
10
15.5214
20
-139.869
11
15.6643
21
-140.012
0
LINE
8
Black
10
15.6643
20
-140.012
11
15.5214
21
-140.155
0
LINE
8
Black
10
15.5214
20
-140.155
11
15.3786
21
-140.012
0
LINE
8
Black
10
15.3786
20
-140.012
11
15.5214
21
-139.869
0
LINE
8
Black
10
15.5214
20
-139.869
11
15.5214
21
-140.155
0
LINE
8
Black
10
17.3786
20
-138.441
11
17.0929
21
-138.298
0
LINE
8
Black
10
17.0929
20
-138.298
11
16.95
21
-138.155
0
LINE
8
Black
10
16.95
20
-138.155
11
16.8071
21
-137.869
0
LINE
8
Black
10
16.8071
20
-137.869
11
16.8071
21
-137.727
0
LINE
8
Black
10
16.8071
20
-137.727
11
16.95
21
-137.441
0
LINE
8
Black
10
16.95
20
-137.441
11
17.0929
21
-137.298
0
LINE
8
Black
10
17.0929
20
-137.298
11
17.3786
21
-137.155
0
LINE
8
Black
10
17.3786
20
-137.155
11
17.95
21
-137.155
0
LINE
8
Black
10
17.95
20
-137.155
11
18.2357
21
-137.298
0
LINE
8
Black
10
18.2357
20
-137.298
11
18.3786
21
-137.441
0
LINE
8
Black
10
18.3786
20
-137.441
11
18.5214
21
-137.727
0
LINE
8
Black
10
18.5214
20
-137.727
11
18.5214
21
-137.869
0
LINE
8
Black
10
18.5214
20
-137.869
11
18.3786
21
-138.155
0
LINE
8
Black
10
18.3786
20
-138.155
11
18.2357
21
-138.298
0
LINE
8
Black
10
18.2357
20
-138.298
11
17.95
21
-138.441
0
LINE
8
Black
10
17.95
20
-138.441
11
17.3786
21
-138.441
0
LINE
8
Black
10
17.3786
20
-138.441
11
17.0929
21
-138.584
0
LINE
8
Black
10
17.0929
20
-138.584
11
16.95
21
-138.727
0
LINE
8
Black
10
16.95
20
-138.727
11
16.8071
21
-139.012
0
LINE
8
Black
10
16.8071
20
-139.012
11
16.8071
21
-139.584
0
LINE
8
Black
10
16.8071
20
-139.584
11
16.95
21
-139.869
0
LINE
8
Black
10
16.95
20
-139.869
11
17.0929
21
-140.012
0
LINE
8
Black
10
17.0929
20
-140.012
11
17.3786
21
-140.155
0
LINE
8
Black
10
17.3786
20
-140.155
11
17.95
21
-140.155
0
LINE
8
Black
10
17.95
20
-140.155
11
18.2357
21
-140.012
0
LINE
8
Black
10
18.2357
20
-140.012
11
18.3786
21
-139.869
0
LINE
8
Black
10
18.3786
20
-139.869
11
18.5214
21
-139.584
0
LINE
8
Black
10
18.5214
20
-139.584
11
18.5214
21
-139.012
0
LINE
8
Black
10
18.5214
20
-139.012
11
18.3786
21
-138.727
0
LINE
8
Black
10
18.3786
20
-138.727
11
18.2357
21
-138.584
0
LINE
8
Black
10
18.2357
20
-138.584
11
17.95
21
-138.441
0
LINE
8
Black
10
21.0929
20
-138.155
11
21.0929
21
-140.155
0
LINE
8
Black
10
20.3786
20
-137.012
11
19.6643
21
-139.155
0
LINE
8
Black
10
19.6643
20
-139.155
11
21.5214
21
-139.155
0
LINE
8
Black
10
22.6643
20
-140.155
11
22.6643
21
-138.155
0
LINE
8
Black
10
22.6643
20
-138.441
11
22.8071
21
-138.298
0
LINE
8
Black
10
22.8071
20
-138.298
11
23.0929
21
-138.155
0
LINE
8
Black
10
23.0929
20
-138.155
11
23.5214
21
-138.155
0
LINE
8
Black
10
23.5214
20
-138.155
11
23.8071
21
-138.298
0
LINE
8
Black
10
23.8071
20
-138.298
11
23.95
21
-138.584
0
LINE
8
Black
10
23.95
20
-138.584
11
23.95
21
-140.155
0
LINE
8
Black
10
23.95
20
-138.584
11
24.0929
21
-138.298
0
LINE
8
Black
10
24.0929
20
-138.298
11
24.3786
21
-138.155
0
LINE
8
Black
10
24.3786
20
-138.155
11
24.8071
21
-138.155
0
LINE
8
Black
10
24.8071
20
-138.155
11
25.0929
21
-138.298
0
LINE
8
Black
10
25.0929
20
-138.298
11
25.2357
21
-138.584
0
LINE
8
Black
10
25.2357
20
-138.584
11
25.2357
21
-140.155
0
LINE
8
Black
10
26.6643
20
-140.155
11
26.6643
21
-138.155
0
LINE
8
Black
10
26.6643
20
-138.441
11
26.8071
21
-138.298
0
LINE
8
Black
10
26.8071
20
-138.298
11
27.0929
21
-138.155
0
LINE
8
Black
10
27.0929
20
-138.155
11
27.5214
21
-138.155
0
LINE
8
Black
10
27.5214
20
-138.155
11
27.8071
21
-138.298
0
LINE
8
Black
10
27.8071
20
-138.298
11
27.95
21
-138.584
0
LINE
8
Black
10
27.95
20
-138.584
11
27.95
21
-140.155
0
LINE
8
Black
10
27.95
20
-138.584
11
28.0929
21
-138.298
0
LINE
8
Black
10
28.0929
20
-138.298
11
28.3786
21
-138.155
0
LINE
8
Black
10
28.3786
20
-138.155
11
28.8071
21
-138.155
0
LINE
8
Black
10
28.8071
20
-138.155
11
29.0929
21
-138.298
0
LINE
8
Black
10
29.0929
20
-138.298
11
29.2357
21
-138.584
0
LINE
8
Black
10
29.2357
20
-138.584
11
29.2357
21
-140.155
0
LINE
8
Black
10
35.0929
20
-137.012
11
32.5214
21
-140.869
0
LINE
8
Black
10
38.95
20
-137.155
11
39.2357
21
-137.155
0
LINE
8
Black
10
39.2357
20
-137.155
11
39.5214
21
-137.298
0
LINE
8
Black
10
39.5214
20
-137.298
11
39.6643
21
-137.441
0
LINE
8
Black
10
39.6643
20
-137.441
11
39.8071
21
-137.727
0
LINE
8
Black
10
39.8071
20
-137.727
11
39.95
21
-138.298
0
LINE
8
Black
10
39.95
20
-138.298
11
39.95
21
-139.012
0
LINE
8
Black
10
39.95
20
-139.012
11
39.8071
21
-139.584
0
LINE
8
Black
10
39.8071
20
-139.584
11
39.6643
21
-139.869
0
LINE
8
Black
10
39.6643
20
-139.869
11
39.5214
21
-140.012
0
LINE
8
Black
10
39.5214
20
-140.012
11
39.2357
21
-140.155
0
LINE
8
Black
10
39.2357
20
-140.155
11
38.95
21
-140.155
0
LINE
8
Black
10
38.95
20
-140.155
11
38.6643
21
-140.012
0
LINE
8
Black
10
38.6643
20
-140.012
11
38.5214
21
-139.869
0
LINE
8
Black
10
38.5214
20
-139.869
11
38.3786
21
-139.584
0
LINE
8
Black
10
38.3786
20
-139.584
11
38.2357
21
-139.012
0
LINE
8
Black
10
38.2357
20
-139.012
11
38.2357
21
-138.298
0
LINE
8
Black
10
38.2357
20
-138.298
11
38.3786
21
-137.727
0
LINE
8
Black
10
38.3786
20
-137.727
11
38.5214
21
-137.441
0
LINE
8
Black
10
38.5214
20
-137.441
11
38.6643
21
-137.298
0
LINE
8
Black
10
38.6643
20
-137.298
11
38.95
21
-137.155
0
LINE
8
Black
10
41.2357
20
-139.869
11
41.3786
21
-140.012
0
LINE
8
Black
10
41.3786
20
-140.012
11
41.2357
21
-140.155
0
LINE
8
Black
10
41.2357
20
-140.155
11
41.0929
21
-140.012
0
LINE
8
Black
10
41.0929
20
-140.012
11
41.2357
21
-139.869
0
LINE
8
Black
10
41.2357
20
-139.869
11
41.2357
21
-140.155
0
LINE
8
Black
10
44.2357
20
-140.155
11
42.5214
21
-140.155
0
LINE
8
Black
10
43.3786
20
-140.155
11
43.3786
21
-137.155
0
LINE
8
Black
10
43.3786
20
-137.155
11
43.0929
21
-137.584
0
LINE
8
Black
10
43.0929
20
-137.584
11
42.8071
21
-137.869
0
LINE
8
Black
10
42.8071
20
-137.869
11
42.5214
21
-138.012
0
LINE
8
Black
10
46.95
20
-137.155
11
45.5214
21
-137.155
0
LINE
8
Black
10
45.5214
20
-137.155
11
45.3786
21
-138.584
0
LINE
8
Black
10
45.3786
20
-138.584
11
45.5214
21
-138.441
0
LINE
8
Black
10
45.5214
20
-138.441
11
45.8071
21
-138.298
0
LINE
8
Black
10
45.8071
20
-138.298
11
46.5214
21
-138.298
0
LINE
8
Black
10
46.5214
20
-138.298
11
46.8071
21
-138.441
0
LINE
8
Black
10
46.8071
20
-138.441
11
46.95
21
-138.584
0
LINE
8
Black
10
46.95
20
-138.584
11
47.0929
21
-138.869
0
LINE
8
Black
10
47.0929
20
-138.869
11
47.0929
21
-139.584
0
LINE
8
Black
10
47.0929
20
-139.584
11
46.95
21
-139.869
0
LINE
8
Black
10
46.95
20
-139.869
11
46.8071
21
-140.012
0
LINE
8
Black
10
46.8071
20
-140.012
11
46.5214
21
-140.155
0
LINE
8
Black
10
46.5214
20
-140.155
11
45.8071
21
-140.155
0
LINE
8
Black
10
45.8071
20
-140.155
11
45.5214
21
-140.012
0
LINE
8
Black
10
45.5214
20
-140.012
11
45.3786
21
-139.869
0
LINE
8
Black
10
49.95
20
-140.155
11
48.2357
21
-140.155
0
LINE
8
Black
10
49.0929
20
-140.155
11
49.0929
21
-137.155
0
LINE
8
Black
10
49.0929
20
-137.155
11
48.8071
21
-137.584
0
LINE
8
Black
10
48.8071
20
-137.584
11
48.5214
21
-137.869
0
LINE
8
Black
10
48.5214
20
-137.869
11
48.2357
21
-138.012
0
LINE
8
Black
10
51.0929
20
-137.155
11
51.0929
21
-137.727
0
LINE
8
Black
10
52.2357
20
-137.155
11
52.2357
21
-137.727
0
LINE
8
Black
10
56.6643
20
-141.298
11
56.5214
21
-141.155
0
LINE
8
Black
10
56.5214
20
-141.155
11
56.2357
21
-140.727
0
LINE
8
Black
10
56.2357
20
-140.727
11
56.0929
21
-140.441
0
LINE
8
Black
10
56.0929
20
-140.441
11
55.95
21
-140.012
0
LINE
8
Black
10
55.95
20
-140.012
11
55.8071
21
-139.298
0
LINE
8
Black
10
55.8071
20
-139.298
11
55.8071
21
-138.727
0
LINE
8
Black
10
55.8071
20
-138.727
11
55.95
21
-138.012
0
LINE
8
Black
10
55.95
20
-138.012
11
56.0929
21
-137.584
0
LINE
8
Black
10
56.0929
20
-137.584
11
56.2357
21
-137.298
0
LINE
8
Black
10
56.2357
20
-137.298
11
56.5214
21
-136.869
0
LINE
8
Black
10
56.5214
20
-136.869
11
56.6643
21
-136.727
0
LINE
8
Black
10
59.0929
20
-138.155
11
59.0929
21
-140.155
0
LINE
8
Black
10
58.3786
20
-137.012
11
57.6643
21
-139.155
0
LINE
8
Black
10
57.6643
20
-139.155
11
59.5214
21
-139.155
0
LINE
8
Black
10
62.95
20
-140.155
11
62.95
21
-137.155
0
LINE
8
Black
10
64.2357
20
-140.155
11
64.2357
21
-138.584
0
LINE
8
Black
10
64.2357
20
-138.584
11
64.0929
21
-138.298
0
LINE
8
Black
10
64.0929
20
-138.298
11
63.8071
21
-138.155
0
LINE
8
Black
10
63.8071
20
-138.155
11
63.3786
21
-138.155
0
LINE
8
Black
10
63.3786
20
-138.155
11
63.0929
21
-138.298
0
LINE
8
Black
10
63.0929
20
-138.298
11
62.95
21
-138.441
0
LINE
8
Black
10
66.0929
20
-140.155
11
65.8071
21
-140.012
0
LINE
8
Black
10
65.8071
20
-140.012
11
65.6643
21
-139.869
0
LINE
8
Black
10
65.6643
20
-139.869
11
65.5214
21
-139.584
0
LINE
8
Black
10
65.5214
20
-139.584
11
65.5214
21
-138.727
0
LINE
8
Black
10
65.5214
20
-138.727
11
65.6643
21
-138.441
0
LINE
8
Black
10
65.6643
20
-138.441
11
65.8071
21
-138.298
0
LINE
8
Black
10
65.8071
20
-138.298
11
66.0929
21
-138.155
0
LINE
8
Black
10
66.0929
20
-138.155
11
66.5214
21
-138.155
0
LINE
8
Black
10
66.5214
20
-138.155
11
66.8071
21
-138.298
0
LINE
8
Black
10
66.8071
20
-138.298
11
66.95
21
-138.441
0
LINE
8
Black
10
66.95
20
-138.441
11
67.0929
21
-138.727
0
LINE
8
Black
10
67.0929
20
-138.727
11
67.0929
21
-139.584
0
LINE
8
Black
10
67.0929
20
-139.584
11
66.95
21
-139.869
0
LINE
8
Black
10
66.95
20
-139.869
11
66.8071
21
-140.012
0
LINE
8
Black
10
66.8071
20
-140.012
11
66.5214
21
-140.155
0
LINE
8
Black
10
66.5214
20
-140.155
11
66.0929
21
-140.155
0
LINE
8
Black
10
68.8071
20
-140.155
11
68.5214
21
-140.012
0
LINE
8
Black
10
68.5214
20
-140.012
11
68.3786
21
-139.727
0
LINE
8
Black
10
68.3786
20
-139.727
11
68.3786
21
-137.155
0
LINE
8
Black
10
71.0929
20
-140.012
11
70.8071
21
-140.155
0
LINE
8
Black
10
70.8071
20
-140.155
11
70.2357
21
-140.155
0
LINE
8
Black
10
70.2357
20
-140.155
11
69.95
21
-140.012
0
LINE
8
Black
10
69.95
20
-140.012
11
69.8071
21
-139.727
0
LINE
8
Black
10
69.8071
20
-139.727
11
69.8071
21
-138.584
0
LINE
8
Black
10
69.8071
20
-138.584
11
69.95
21
-138.298
0
LINE
8
Black
10
69.95
20
-138.298
11
70.2357
21
-138.155
0
LINE
8
Black
10
70.2357
20
-138.155
11
70.8071
21
-138.155
0
LINE
8
Black
10
70.8071
20
-138.155
11
71.0929
21
-138.298
0
LINE
8
Black
10
71.0929
20
-138.298
11
71.2357
21
-138.584
0
LINE
8
Black
10
71.2357
20
-138.584
11
71.2357
21
-138.869
0
LINE
8
Black
10
71.2357
20
-138.869
11
69.8071
21
-139.155
0
LINE
8
Black
10
72.3786
20
-140.012
11
72.6643
21
-140.155
0
LINE
8
Black
10
72.6643
20
-140.155
11
73.2357
21
-140.155
0
LINE
8
Black
10
73.2357
20
-140.155
11
73.5214
21
-140.012
0
LINE
8
Black
10
73.5214
20
-140.012
11
73.6643
21
-139.727
0
LINE
8
Black
10
73.6643
20
-139.727
11
73.6643
21
-139.584
0
LINE
8
Black
10
73.6643
20
-139.584
11
73.5214
21
-139.298
0
LINE
8
Black
10
73.5214
20
-139.298
11
73.2357
21
-139.155
0
LINE
8
Black
10
73.2357
20
-139.155
11
72.8071
21
-139.155
0
LINE
8
Black
10
72.8071
20
-139.155
11
72.5214
21
-139.012
0
LINE
8
Black
10
72.5214
20
-139.012
11
72.3786
21
-138.727
0
LINE
8
Black
10
72.3786
20
-138.727
11
72.3786
21
-138.584
0
LINE
8
Black
10
72.3786
20
-138.584
11
72.5214
21
-138.298
0
LINE
8
Black
10
72.5214
20
-138.298
11
72.8071
21
-138.155
0
LINE
8
Black
10
72.8071
20
-138.155
11
73.2357
21
-138.155
0
LINE
8
Black
10
73.2357
20
-138.155
11
73.5214
21
-138.298
0
LINE
8
Black
10
74.6643
20
-141.298
11
74.8071
21
-141.155
0
LINE
8
Black
10
74.8071
20
-141.155
11
75.0929
21
-140.727
0
LINE
8
Black
10
75.0929
20
-140.727
11
75.2357
21
-140.441
0
LINE
8
Black
10
75.2357
20
-140.441
11
75.3786
21
-140.012
0
LINE
8
Black
10
75.3786
20
-140.012
11
75.5214
21
-139.298
0
LINE
8
Black
10
75.5214
20
-139.298
11
75.5214
21
-138.727
0
LINE
8
Black
10
75.5214
20
-138.727
11
75.3786
21
-138.012
0
LINE
8
Black
10
75.3786
20
-138.012
11
75.2357
21
-137.584
0
LINE
8
Black
10
75.2357
20
-137.584
11
75.0929
21
-137.298
0
LINE
8
Black
10
75.0929
20
-137.298
11
74.8071
21
-136.869
0
LINE
8
Black
10
74.8071
20
-136.869
11
74.6643
21
-136.727
  0
ENDSEC
  0
EOF
