  0
SECTION
  2
HEADER
  9
$ANGBASE
  50
0.0
  9
$ANGDIR
  70
  1
  9
$MEASUREMENT
  70
0
  0
ENDSEC
  0
SECTION
  2
TABLES
  0
TABLE
  2
LTYPE
  70
1
  0
LTYPE
  2
CONTINUOUS
  70
0
  3
Solid line
  72
65
  73
0
  40
0.0
  0
ENDTAB
  0
TABLE
  2
STYLE
  70
4
  0
STYLE
  2
KICAD
  70
0
  40
0
  41
1
  42
1
  50
0
  71
0
  3
isocp.shx
  0
STYLE
  2
KICADB
  70
0
  40
0
  41
1
  42
1
  50
0
  71
0
  3
isocp.shx
  0
STYLE
  2
KICADI
  70
0
  40
0
  41
1
  42
1
  50
15
  71
0
  3
isocp.shx
  0
STYLE
  2
KICADBI
  70
0
  40
0
  41
1
  42
1
  50
15
  71
0
  3
isocp.shx
  0
ENDTAB
  0
TABLE
  2
LAYER
  70
30
  0
LAYER
  2
BLACK
  70
0
  62
7
  6
CONTINUOUS
  0
LAYER
  2
GRAY1
  70
0
  62
251
  6
CONTINUOUS
  0
LAYER
  2
GRAY2
  70
0
  62
8
  6
CONTINUOUS
  0
LAYER
  2
GRAY3
  70
0
  62
9
  6
CONTINUOUS
  0
LAYER
  2
WHITE
  70
0
  62
7
  6
CONTINUOUS
  0
LAYER
  2
LYELLOW
  70
0
  62
51
  6
CONTINUOUS
  0
LAYER
  2
BLUE1
  70
0
  62
178
  6
CONTINUOUS
  0
LAYER
  2
GREEN1
  70
0
  62
98
  6
CONTINUOUS
  0
LAYER
  2
CYAN1
  70
0
  62
138
  6
CONTINUOUS
  0
LAYER
  2
RED1
  70
0
  62
18
  6
CONTINUOUS
  0
LAYER
  2
MAGENTA1
  70
0
  62
228
  6
CONTINUOUS
  0
LAYER
  2
BROWN1
  70
0
  62
58
  6
CONTINUOUS
  0
LAYER
  2
BLUE2
  70
0
  62
5
  6
CONTINUOUS
  0
LAYER
  2
GREEN2
  70
0
  62
3
  6
CONTINUOUS
  0
LAYER
  2
CYAN2
  70
0
  62
4
  6
CONTINUOUS
  0
LAYER
  2
RED2
  70
0
  62
1
  6
CONTINUOUS
  0
LAYER
  2
MAGENTA2
  70
0
  62
6
  6
CONTINUOUS
  0
LAYER
  2
BROWN2
  70
0
  62
54
  6
CONTINUOUS
  0
LAYER
  2
BLUE3
  70
0
  62
171
  6
CONTINUOUS
  0
LAYER
  2
GREEN3
  70
0
  62
91
  6
CONTINUOUS
  0
LAYER
  2
CYAN3
  70
0
  62
131
  6
CONTINUOUS
  0
LAYER
  2
RED3
  70
0
  62
11
  6
CONTINUOUS
  0
LAYER
  2
MAGENTA3
  70
0
  62
221
  6
CONTINUOUS
  0
LAYER
  2
YELLOW3
  70
0
  62
2
  6
CONTINUOUS
  0
LAYER
  2
BLUE4
  70
0
  62
5
  6
CONTINUOUS
  0
LAYER
  2
GREEN4
  70
0
  62
3
  6
CONTINUOUS
  0
LAYER
  2
CYAN4
  70
0
  62
4
  6
CONTINUOUS
  0
LAYER
  2
RED4
  70
0
  62
1
  6
CONTINUOUS
  0
LAYER
  2
MAGENTA4
  70
0
  62
6
  6
CONTINUOUS
  0
LAYER
  2
YELLOW4
  70
0
  62
2
  6
CONTINUOUS
  0
ENDTAB
  0
ENDSEC
  0
SECTION
  2
ENTITIES
0
LINE
8
Black
10
15
20
-105.05
11
60
21
-105.05
0
LINE
8
Black
10
15
20
-104.95
11
60
21
-104.95
0
ARC
8
Black
10
60
20
-105
40
0.05
50
270
51
450
0
ARC
8
Black
10
15
20
-105
40
0.05
50
90
51
270
0
LINE
8
Black
10
65.05
20
-100
11
65.05
21
-15
0
LINE
8
Black
10
64.95
20
-100
11
64.95
21
-15
0
ARC
8
Black
10
65
20
-15
40
0.05
50
360
51
540
0
ARC
8
Black
10
65
20
-100
40
0.05
50
180
51
360
0
LINE
8
Black
10
15
20
-10.05
11
60
21
-10.05
0
LINE
8
Black
10
15
20
-9.95
11
60
21
-9.95
0
ARC
8
Black
10
60
20
-10
40
0.05
50
270
51
450
0
ARC
8
Black
10
15
20
-10
40
0.05
50
90
51
270
0
LINE
8
Black
10
10.05
20
-100
11
10.05
21
-15
0
LINE
8
Black
10
9.95
20
-100
11
9.95
21
-15
0
ARC
8
Black
10
10
20
-15
40
0.05
50
360
51
540
0
ARC
8
Black
10
10
20
-100
40
0.05
50
180
51
360
0
ARC
8
Black
10
15
20
-100
40
5
50
-180
51
-90
0
ARC
8
Black
10
60
20
-100
40
5
50
-90
51
-0
0
ARC
8
Black
10
60
20
-15
40
5
50
-0
51
90
0
ARC
8
Black
10
15
20
-15
40
5
50
90
51
180
0
LINE
8
Black
10
61.464
20
-37.603
11
62.014
21
-38.153
0
LINE
8
Black
10
62.014
20
-37.603
11
61.464
21
-38.153
0
ARC
8
Black
10
61.739
20
-37.878
40
0.275
50
360
51
540
0
ARC
8
Black
10
61.739
20
-37.878
40
0.275
50
180
51
360
0
LINE
8
Black
10
61.464
20
-41.603
11
62.014
21
-42.153
0
LINE
8
Black
10
62.014
20
-41.603
11
61.464
21
-42.153
0
LINE
8
Black
10
12.6643
20
-109.707
11
12.6643
21
-106.707
0
LINE
8
Black
10
12.6643
20
-106.707
11
13.3786
21
-106.707
0
LINE
8
Black
10
13.3786
20
-106.707
11
13.8071
21
-106.85
0
LINE
8
Black
10
13.8071
20
-106.85
11
14.0929
21
-107.136
0
LINE
8
Black
10
14.0929
20
-107.136
11
14.2357
21
-107.421
0
LINE
8
Black
10
14.2357
20
-107.421
11
14.3786
21
-107.993
0
LINE
8
Black
10
14.3786
20
-107.993
11
14.3786
21
-108.421
0
LINE
8
Black
10
14.3786
20
-108.421
11
14.2357
21
-108.993
0
LINE
8
Black
10
14.2357
20
-108.993
11
14.0929
21
-109.279
0
LINE
8
Black
10
14.0929
20
-109.279
11
13.8071
21
-109.564
0
LINE
8
Black
10
13.8071
20
-109.564
11
13.3786
21
-109.707
0
LINE
8
Black
10
13.3786
20
-109.707
11
12.6643
21
-109.707
0
LINE
8
Black
10
15.6643
20
-109.707
11
15.6643
21
-107.707
0
LINE
8
Black
10
15.6643
20
-108.279
11
15.8071
21
-107.993
0
LINE
8
Black
10
15.8071
20
-107.993
11
15.95
21
-107.85
0
LINE
8
Black
10
15.95
20
-107.85
11
16.2357
21
-107.707
0
LINE
8
Black
10
16.2357
20
-107.707
11
16.5214
21
-107.707
0
LINE
8
Black
10
17.5214
20
-109.707
11
17.5214
21
-107.707
0
LINE
8
Black
10
17.5214
20
-106.707
11
17.3786
21
-106.85
0
LINE
8
Black
10
17.3786
20
-106.85
11
17.5214
21
-106.993
0
LINE
8
Black
10
17.5214
20
-106.993
11
17.6643
21
-106.85
0
LINE
8
Black
10
17.6643
20
-106.85
11
17.5214
21
-106.707
0
LINE
8
Black
10
17.5214
20
-106.707
11
17.5214
21
-106.993
0
LINE
8
Black
10
19.3786
20
-109.707
11
19.0929
21
-109.564
0
LINE
8
Black
10
19.0929
20
-109.564
11
18.95
21
-109.279
0
LINE
8
Black
10
18.95
20
-109.279
11
18.95
21
-106.707
0
LINE
8
Black
10
20.95
20
-109.707
11
20.6643
21
-109.564
0
LINE
8
Black
10
20.6643
20
-109.564
11
20.5214
21
-109.279
0
LINE
8
Black
10
20.5214
20
-109.279
11
20.5214
21
-106.707
0
LINE
8
Black
10
24.3786
20
-109.707
11
24.3786
21
-106.707
0
LINE
8
Black
10
24.3786
20
-106.707
11
25.3786
21
-108.85
0
LINE
8
Black
10
25.3786
20
-108.85
11
26.3786
21
-106.707
0
LINE
8
Black
10
26.3786
20
-106.707
11
26.3786
21
-109.707
0
LINE
8
Black
10
29.0929
20
-109.707
11
29.0929
21
-108.136
0
LINE
8
Black
10
29.0929
20
-108.136
11
28.95
21
-107.85
0
LINE
8
Black
10
28.95
20
-107.85
11
28.6643
21
-107.707
0
LINE
8
Black
10
28.6643
20
-107.707
11
28.0929
21
-107.707
0
LINE
8
Black
10
28.0929
20
-107.707
11
27.8071
21
-107.85
0
LINE
8
Black
10
29.0929
20
-109.564
11
28.8071
21
-109.707
0
LINE
8
Black
10
28.8071
20
-109.707
11
28.0929
21
-109.707
0
LINE
8
Black
10
28.0929
20
-109.707
11
27.8071
21
-109.564
0
LINE
8
Black
10
27.8071
20
-109.564
11
27.6643
21
-109.279
0
LINE
8
Black
10
27.6643
20
-109.279
11
27.6643
21
-108.993
0
LINE
8
Black
10
27.6643
20
-108.993
11
27.8071
21
-108.707
0
LINE
8
Black
10
27.8071
20
-108.707
11
28.0929
21
-108.564
0
LINE
8
Black
10
28.0929
20
-108.564
11
28.8071
21
-108.564
0
LINE
8
Black
10
28.8071
20
-108.564
11
29.0929
21
-108.421
0
LINE
8
Black
10
30.5214
20
-107.707
11
30.5214
21
-110.707
0
LINE
8
Black
10
30.5214
20
-107.85
11
30.8071
21
-107.707
0
LINE
8
Black
10
30.8071
20
-107.707
11
31.3786
21
-107.707
0
LINE
8
Black
10
31.3786
20
-107.707
11
31.6643
21
-107.85
0
LINE
8
Black
10
31.6643
20
-107.85
11
31.8071
21
-107.993
0
LINE
8
Black
10
31.8071
20
-107.993
11
31.95
21
-108.279
0
LINE
8
Black
10
31.95
20
-108.279
11
31.95
21
-109.136
0
LINE
8
Black
10
31.95
20
-109.136
11
31.8071
21
-109.421
0
LINE
8
Black
10
31.8071
20
-109.421
11
31.6643
21
-109.564
0
LINE
8
Black
10
31.6643
20
-109.564
11
31.3786
21
-109.707
0
LINE
8
Black
10
31.3786
20
-109.707
11
30.8071
21
-109.707
0
LINE
8
Black
10
30.8071
20
-109.707
11
30.5214
21
-109.564
0
LINE
8
Black
10
33.2357
20
-109.421
11
33.3786
21
-109.564
0
LINE
8
Black
10
33.3786
20
-109.564
11
33.2357
21
-109.707
0
LINE
8
Black
10
33.2357
20
-109.707
11
33.0929
21
-109.564
0
LINE
8
Black
10
33.0929
20
-109.564
11
33.2357
21
-109.421
0
LINE
8
Black
10
33.2357
20
-109.421
11
33.2357
21
-109.707
0
LINE
8
Black
10
33.2357
20
-107.85
11
33.3786
21
-107.993
0
LINE
8
Black
10
33.3786
20
-107.993
11
33.2357
21
-108.136
0
LINE
8
Black
10
33.2357
20
-108.136
11
33.0929
21
-107.993
0
LINE
8
Black
10
33.0929
20
-107.993
11
33.2357
21
-107.85
0
LINE
8
Black
10
33.2357
20
-107.85
11
33.2357
21
-108.136
0
LINE
8
Black
10
9.4
20
-114.375
11
9.95
21
-114.925
0
LINE
8
Black
10
9.95
20
-114.375
11
9.4
21
-114.925
0
LINE
8
Black
10
13.2357
20
-113.007
11
13.5214
21
-113.007
0
LINE
8
Black
10
13.5214
20
-113.007
11
13.8071
21
-113.15
0
LINE
8
Black
10
13.8071
20
-113.15
11
13.95
21
-113.293
0
LINE
8
Black
10
13.95
20
-113.293
11
14.0929
21
-113.579
0
LINE
8
Black
10
14.0929
20
-113.579
11
14.2357
21
-114.15
0
LINE
8
Black
10
14.2357
20
-114.15
11
14.2357
21
-114.864
0
LINE
8
Black
10
14.2357
20
-114.864
11
14.0929
21
-115.436
0
LINE
8
Black
10
14.0929
20
-115.436
11
13.95
21
-115.721
0
LINE
8
Black
10
13.95
20
-115.721
11
13.8071
21
-115.864
0
LINE
8
Black
10
13.8071
20
-115.864
11
13.5214
21
-116.007
0
LINE
8
Black
10
13.5214
20
-116.007
11
13.2357
21
-116.007
0
LINE
8
Black
10
13.2357
20
-116.007
11
12.95
21
-115.864
0
LINE
8
Black
10
12.95
20
-115.864
11
12.8071
21
-115.721
0
LINE
8
Black
10
12.8071
20
-115.721
11
12.6643
21
-115.436
0
LINE
8
Black
10
12.6643
20
-115.436
11
12.5214
21
-114.864
0
LINE
8
Black
10
12.5214
20
-114.864
11
12.5214
21
-114.15
0
LINE
8
Black
10
12.5214
20
-114.15
11
12.6643
21
-113.579
0
LINE
8
Black
10
12.6643
20
-113.579
11
12.8071
21
-113.293
0
LINE
8
Black
10
12.8071
20
-113.293
11
12.95
21
-113.15
0
LINE
8
Black
10
12.95
20
-113.15
11
13.2357
21
-113.007
0
LINE
8
Black
10
15.5214
20
-115.721
11
15.6643
21
-115.864
0
LINE
8
Black
10
15.6643
20
-115.864
11
15.5214
21
-116.007
0
LINE
8
Black
10
15.5214
20
-116.007
11
15.3786
21
-115.864
0
LINE
8
Black
10
15.3786
20
-115.864
11
15.5214
21
-115.721
0
LINE
8
Black
10
15.5214
20
-115.721
11
15.5214
21
-116.007
0
LINE
8
Black
10
18.3786
20
-113.007
11
16.95
21
-113.007
0
LINE
8
Black
10
16.95
20
-113.007
11
16.8071
21
-114.436
0
LINE
8
Black
10
16.8071
20
-114.436
11
16.95
21
-114.293
0
LINE
8
Black
10
16.95
20
-114.293
11
17.2357
21
-114.15
0
LINE
8
Black
10
17.2357
20
-114.15
11
17.95
21
-114.15
0
LINE
8
Black
10
17.95
20
-114.15
11
18.2357
21
-114.293
0
LINE
8
Black
10
18.2357
20
-114.293
11
18.3786
21
-114.436
0
LINE
8
Black
10
18.3786
20
-114.436
11
18.5214
21
-114.721
0
LINE
8
Black
10
18.5214
20
-114.721
11
18.5214
21
-115.436
0
LINE
8
Black
10
18.5214
20
-115.436
11
18.3786
21
-115.721
0
LINE
8
Black
10
18.3786
20
-115.721
11
18.2357
21
-115.864
0
LINE
8
Black
10
18.2357
20
-115.864
11
17.95
21
-116.007
0
LINE
8
Black
10
17.95
20
-116.007
11
17.2357
21
-116.007
0
LINE
8
Black
10
17.2357
20
-116.007
11
16.95
21
-115.864
0
LINE
8
Black
10
16.95
20
-115.864
11
16.8071
21
-115.721
0
LINE
8
Black
10
21.2357
20
-113.007
11
19.8071
21
-113.007
0
LINE
8
Black
10
19.8071
20
-113.007
11
19.6643
21
-114.436
0
LINE
8
Black
10
19.6643
20
-114.436
11
19.8071
21
-114.293
0
LINE
8
Black
10
19.8071
20
-114.293
11
20.0929
21
-114.15
0
LINE
8
Black
10
20.0929
20
-114.15
11
20.8071
21
-114.15
0
LINE
8
Black
10
20.8071
20
-114.15
11
21.0929
21
-114.293
0
LINE
8
Black
10
21.0929
20
-114.293
11
21.2357
21
-114.436
0
LINE
8
Black
10
21.2357
20
-114.436
11
21.3786
21
-114.721
0
LINE
8
Black
10
21.3786
20
-114.721
11
21.3786
21
-115.436
0
LINE
8
Black
10
21.3786
20
-115.436
11
21.2357
21
-115.721
0
LINE
8
Black
10
21.2357
20
-115.721
11
21.0929
21
-115.864
0
LINE
8
Black
10
21.0929
20
-115.864
11
20.8071
21
-116.007
0
LINE
8
Black
10
20.8071
20
-116.007
11
20.0929
21
-116.007
0
LINE
8
Black
10
20.0929
20
-116.007
11
19.8071
21
-115.864
0
LINE
8
Black
10
19.8071
20
-115.864
11
19.6643
21
-115.721
0
LINE
8
Black
10
22.6643
20
-116.007
11
22.6643
21
-114.007
0
LINE
8
Black
10
22.6643
20
-114.293
11
22.8071
21
-114.15
0
LINE
8
Black
10
22.8071
20
-114.15
11
23.0929
21
-114.007
0
LINE
8
Black
10
23.0929
20
-114.007
11
23.5214
21
-114.007
0
LINE
8
Black
10
23.5214
20
-114.007
11
23.8071
21
-114.15
0
LINE
8
Black
10
23.8071
20
-114.15
11
23.95
21
-114.436
0
LINE
8
Black
10
23.95
20
-114.436
11
23.95
21
-116.007
0
LINE
8
Black
10
23.95
20
-114.436
11
24.0929
21
-114.15
0
LINE
8
Black
10
24.0929
20
-114.15
11
24.3786
21
-114.007
0
LINE
8
Black
10
24.3786
20
-114.007
11
24.8071
21
-114.007
0
LINE
8
Black
10
24.8071
20
-114.007
11
25.0929
21
-114.15
0
LINE
8
Black
10
25.0929
20
-114.15
11
25.2357
21
-114.436
0
LINE
8
Black
10
25.2357
20
-114.436
11
25.2357
21
-116.007
0
LINE
8
Black
10
26.6643
20
-116.007
11
26.6643
21
-114.007
0
LINE
8
Black
10
26.6643
20
-114.293
11
26.8071
21
-114.15
0
LINE
8
Black
10
26.8071
20
-114.15
11
27.0929
21
-114.007
0
LINE
8
Black
10
27.0929
20
-114.007
11
27.5214
21
-114.007
0
LINE
8
Black
10
27.5214
20
-114.007
11
27.8071
21
-114.15
0
LINE
8
Black
10
27.8071
20
-114.15
11
27.95
21
-114.436
0
LINE
8
Black
10
27.95
20
-114.436
11
27.95
21
-116.007
0
LINE
8
Black
10
27.95
20
-114.436
11
28.0929
21
-114.15
0
LINE
8
Black
10
28.0929
20
-114.15
11
28.3786
21
-114.007
0
LINE
8
Black
10
28.3786
20
-114.007
11
28.8071
21
-114.007
0
LINE
8
Black
10
28.8071
20
-114.007
11
29.0929
21
-114.15
0
LINE
8
Black
10
29.0929
20
-114.15
11
29.2357
21
-114.436
0
LINE
8
Black
10
29.2357
20
-114.436
11
29.2357
21
-116.007
0
LINE
8
Black
10
35.0929
20
-112.864
11
32.5214
21
-116.721
0
LINE
8
Black
10
38.95
20
-113.007
11
39.2357
21
-113.007
0
LINE
8
Black
10
39.2357
20
-113.007
11
39.5214
21
-113.15
0
LINE
8
Black
10
39.5214
20
-113.15
11
39.6643
21
-113.293
0
LINE
8
Black
10
39.6643
20
-113.293
11
39.8071
21
-113.579
0
LINE
8
Black
10
39.8071
20
-113.579
11
39.95
21
-114.15
0
LINE
8
Black
10
39.95
20
-114.15
11
39.95
21
-114.864
0
LINE
8
Black
10
39.95
20
-114.864
11
39.8071
21
-115.436
0
LINE
8
Black
10
39.8071
20
-115.436
11
39.6643
21
-115.721
0
LINE
8
Black
10
39.6643
20
-115.721
11
39.5214
21
-115.864
0
LINE
8
Black
10
39.5214
20
-115.864
11
39.2357
21
-116.007
0
LINE
8
Black
10
39.2357
20
-116.007
11
38.95
21
-116.007
0
LINE
8
Black
10
38.95
20
-116.007
11
38.6643
21
-115.864
0
LINE
8
Black
10
38.6643
20
-115.864
11
38.5214
21
-115.721
0
LINE
8
Black
10
38.5214
20
-115.721
11
38.3786
21
-115.436
0
LINE
8
Black
10
38.3786
20
-115.436
11
38.2357
21
-114.864
0
LINE
8
Black
10
38.2357
20
-114.864
11
38.2357
21
-114.15
0
LINE
8
Black
10
38.2357
20
-114.15
11
38.3786
21
-113.579
0
LINE
8
Black
10
38.3786
20
-113.579
11
38.5214
21
-113.293
0
LINE
8
Black
10
38.5214
20
-113.293
11
38.6643
21
-113.15
0
LINE
8
Black
10
38.6643
20
-113.15
11
38.95
21
-113.007
0
LINE
8
Black
10
41.2357
20
-115.721
11
41.3786
21
-115.864
0
LINE
8
Black
10
41.3786
20
-115.864
11
41.2357
21
-116.007
0
LINE
8
Black
10
41.2357
20
-116.007
11
41.0929
21
-115.864
0
LINE
8
Black
10
41.0929
20
-115.864
11
41.2357
21
-115.721
0
LINE
8
Black
10
41.2357
20
-115.721
11
41.2357
21
-116.007
0
LINE
8
Black
10
43.2357
20
-113.007
11
43.5214
21
-113.007
0
LINE
8
Black
10
43.5214
20
-113.007
11
43.8071
21
-113.15
0
LINE
8
Black
10
43.8071
20
-113.15
11
43.95
21
-113.293
0
LINE
8
Black
10
43.95
20
-113.293
11
44.0929
21
-113.579
0
LINE
8
Black
10
44.0929
20
-113.579
11
44.2357
21
-114.15
0
LINE
8
Black
10
44.2357
20
-114.15
11
44.2357
21
-114.864
0
LINE
8
Black
10
44.2357
20
-114.864
11
44.0929
21
-115.436
0
LINE
8
Black
10
44.0929
20
-115.436
11
43.95
21
-115.721
0
LINE
8
Black
10
43.95
20
-115.721
11
43.8071
21
-115.864
0
LINE
8
Black
10
43.8071
20
-115.864
11
43.5214
21
-116.007
0
LINE
8
Black
10
43.5214
20
-116.007
11
43.2357
21
-116.007
0
LINE
8
Black
10
43.2357
20
-116.007
11
42.95
21
-115.864
0
LINE
8
Black
10
42.95
20
-115.864
11
42.8071
21
-115.721
0
LINE
8
Black
10
42.8071
20
-115.721
11
42.6643
21
-115.436
0
LINE
8
Black
10
42.6643
20
-115.436
11
42.5214
21
-114.864
0
LINE
8
Black
10
42.5214
20
-114.864
11
42.5214
21
-114.15
0
LINE
8
Black
10
42.5214
20
-114.15
11
42.6643
21
-113.579
0
LINE
8
Black
10
42.6643
20
-113.579
11
42.8071
21
-113.293
0
LINE
8
Black
10
42.8071
20
-113.293
11
42.95
21
-113.15
0
LINE
8
Black
10
42.95
20
-113.15
11
43.2357
21
-113.007
0
LINE
8
Black
10
45.3786
20
-113.293
11
45.5214
21
-113.15
0
LINE
8
Black
10
45.5214
20
-113.15
11
45.8071
21
-113.007
0
LINE
8
Black
10
45.8071
20
-113.007
11
46.5214
21
-113.007
0
LINE
8
Black
10
46.5214
20
-113.007
11
46.8071
21
-113.15
0
LINE
8
Black
10
46.8071
20
-113.15
11
46.95
21
-113.293
0
LINE
8
Black
10
46.95
20
-113.293
11
47.0929
21
-113.579
0
LINE
8
Black
10
47.0929
20
-113.579
11
47.0929
21
-113.864
0
LINE
8
Black
10
47.0929
20
-113.864
11
46.95
21
-114.293
0
LINE
8
Black
10
46.95
20
-114.293
11
45.2357
21
-116.007
0
LINE
8
Black
10
45.2357
20
-116.007
11
47.0929
21
-116.007
0
LINE
8
Black
10
48.2357
20
-113.293
11
48.3786
21
-113.15
0
LINE
8
Black
10
48.3786
20
-113.15
11
48.6643
21
-113.007
0
LINE
8
Black
10
48.6643
20
-113.007
11
49.3786
21
-113.007
0
LINE
8
Black
10
49.3786
20
-113.007
11
49.6643
21
-113.15
0
LINE
8
Black
10
49.6643
20
-113.15
11
49.8071
21
-113.293
0
LINE
8
Black
10
49.8071
20
-113.293
11
49.95
21
-113.579
0
LINE
8
Black
10
49.95
20
-113.579
11
49.95
21
-113.864
0
LINE
8
Black
10
49.95
20
-113.864
11
49.8071
21
-114.293
0
LINE
8
Black
10
49.8071
20
-114.293
11
48.0929
21
-116.007
0
LINE
8
Black
10
48.0929
20
-116.007
11
49.95
21
-116.007
0
LINE
8
Black
10
51.0929
20
-113.007
11
51.0929
21
-113.579
0
LINE
8
Black
10
52.2357
20
-113.007
11
52.2357
21
-113.579
0
LINE
8
Black
10
56.6643
20
-117.15
11
56.5214
21
-117.007
0
LINE
8
Black
10
56.5214
20
-117.007
11
56.2357
21
-116.579
0
LINE
8
Black
10
56.2357
20
-116.579
11
56.0929
21
-116.293
0
LINE
8
Black
10
56.0929
20
-116.293
11
55.95
21
-115.864
0
LINE
8
Black
10
55.95
20
-115.864
11
55.8071
21
-115.15
0
LINE
8
Black
10
55.8071
20
-115.15
11
55.8071
21
-114.579
0
LINE
8
Black
10
55.8071
20
-114.579
11
55.95
21
-113.864
0
LINE
8
Black
10
55.95
20
-113.864
11
56.0929
21
-113.436
0
LINE
8
Black
10
56.0929
20
-113.436
11
56.2357
21
-113.15
0
LINE
8
Black
10
56.2357
20
-113.15
11
56.5214
21
-112.721
0
LINE
8
Black
10
56.5214
20
-112.721
11
56.6643
21
-112.579
0
LINE
8
Black
10
59.3786
20
-116.007
11
57.6643
21
-116.007
0
LINE
8
Black
10
58.5214
20
-116.007
11
58.5214
21
-113.007
0
LINE
8
Black
10
58.5214
20
-113.007
11
58.2357
21
-113.436
0
LINE
8
Black
10
58.2357
20
-113.436
11
57.95
21
-113.721
0
LINE
8
Black
10
57.95
20
-113.721
11
57.6643
21
-113.864
0
LINE
8
Black
10
62.95
20
-116.007
11
62.95
21
-113.007
0
LINE
8
Black
10
64.2357
20
-116.007
11
64.2357
21
-114.436
0
LINE
8
Black
10
64.2357
20
-114.436
11
64.0929
21
-114.15
0
LINE
8
Black
10
64.0929
20
-114.15
11
63.8071
21
-114.007
0
LINE
8
Black
10
63.8071
20
-114.007
11
63.3786
21
-114.007
0
LINE
8
Black
10
63.3786
20
-114.007
11
63.0929
21
-114.15
0
LINE
8
Black
10
63.0929
20
-114.15
11
62.95
21
-114.293
0
LINE
8
Black
10
66.0929
20
-116.007
11
65.8071
21
-115.864
0
LINE
8
Black
10
65.8071
20
-115.864
11
65.6643
21
-115.721
0
LINE
8
Black
10
65.6643
20
-115.721
11
65.5214
21
-115.436
0
LINE
8
Black
10
65.5214
20
-115.436
11
65.5214
21
-114.579
0
LINE
8
Black
10
65.5214
20
-114.579
11
65.6643
21
-114.293
0
LINE
8
Black
10
65.6643
20
-114.293
11
65.8071
21
-114.15
0
LINE
8
Black
10
65.8071
20
-114.15
11
66.0929
21
-114.007
0
LINE
8
Black
10
66.0929
20
-114.007
11
66.5214
21
-114.007
0
LINE
8
Black
10
66.5214
20
-114.007
11
66.8071
21
-114.15
0
LINE
8
Black
10
66.8071
20
-114.15
11
66.95
21
-114.293
0
LINE
8
Black
10
66.95
20
-114.293
11
67.0929
21
-114.579
0
LINE
8
Black
10
67.0929
20
-114.579
11
67.0929
21
-115.436
0
LINE
8
Black
10
67.0929
20
-115.436
11
66.95
21
-115.721
0
LINE
8
Black
10
66.95
20
-115.721
11
66.8071
21
-115.864
0
LINE
8
Black
10
66.8071
20
-115.864
11
66.5214
21
-116.007
0
LINE
8
Black
10
66.5214
20
-116.007
11
66.0929
21
-116.007
0
LINE
8
Black
10
68.8071
20
-116.007
11
68.5214
21
-115.864
0
LINE
8
Black
10
68.5214
20
-115.864
11
68.3786
21
-115.579
0
LINE
8
Black
10
68.3786
20
-115.579
11
68.3786
21
-113.007
0
LINE
8
Black
10
71.0929
20
-115.864
11
70.8071
21
-116.007
0
LINE
8
Black
10
70.8071
20
-116.007
11
70.2357
21
-116.007
0
LINE
8
Black
10
70.2357
20
-116.007
11
69.95
21
-115.864
0
LINE
8
Black
10
69.95
20
-115.864
11
69.8071
21
-115.579
0
LINE
8
Black
10
69.8071
20
-115.579
11
69.8071
21
-114.436
0
LINE
8
Black
10
69.8071
20
-114.436
11
69.95
21
-114.15
0
LINE
8
Black
10
69.95
20
-114.15
11
70.2357
21
-114.007
0
LINE
8
Black
10
70.2357
20
-114.007
11
70.8071
21
-114.007
0
LINE
8
Black
10
70.8071
20
-114.007
11
71.0929
21
-114.15
0
LINE
8
Black
10
71.0929
20
-114.15
11
71.2357
21
-114.436
0
LINE
8
Black
10
71.2357
20
-114.436
11
71.2357
21
-114.721
0
LINE
8
Black
10
71.2357
20
-114.721
11
69.8071
21
-115.007
0
LINE
8
Black
10
72.3786
20
-115.864
11
72.6643
21
-116.007
0
LINE
8
Black
10
72.6643
20
-116.007
11
73.2357
21
-116.007
0
LINE
8
Black
10
73.2357
20
-116.007
11
73.5214
21
-115.864
0
LINE
8
Black
10
73.5214
20
-115.864
11
73.6643
21
-115.579
0
LINE
8
Black
10
73.6643
20
-115.579
11
73.6643
21
-115.436
0
LINE
8
Black
10
73.6643
20
-115.436
11
73.5214
21
-115.15
0
LINE
8
Black
10
73.5214
20
-115.15
11
73.2357
21
-115.007
0
LINE
8
Black
10
73.2357
20
-115.007
11
72.8071
21
-115.007
0
LINE
8
Black
10
72.8071
20
-115.007
11
72.5214
21
-114.864
0
LINE
8
Black
10
72.5214
20
-114.864
11
72.3786
21
-114.579
0
LINE
8
Black
10
72.3786
20
-114.579
11
72.3786
21
-114.436
0
LINE
8
Black
10
72.3786
20
-114.436
11
72.5214
21
-114.15
0
LINE
8
Black
10
72.5214
20
-114.15
11
72.8071
21
-114.007
0
LINE
8
Black
10
72.8071
20
-114.007
11
73.2357
21
-114.007
0
LINE
8
Black
10
73.2357
20
-114.007
11
73.5214
21
-114.15
0
LINE
8
Black
10
77.2357
20
-114.864
11
79.5214
21
-114.864
0
LINE
8
Black
10
78.3786
20
-116.007
11
78.3786
21
-113.721
0
LINE
8
Black
10
84.8071
20
-116.007
11
83.0929
21
-116.007
0
LINE
8
Black
10
83.95
20
-116.007
11
83.95
21
-113.007
0
LINE
8
Black
10
83.95
20
-113.007
11
83.6643
21
-113.436
0
LINE
8
Black
10
83.6643
20
-113.436
11
83.3786
21
-113.721
0
LINE
8
Black
10
83.3786
20
-113.721
11
83.0929
21
-113.864
0
LINE
8
Black
10
88.2357
20
-115.864
11
88.5214
21
-116.007
0
LINE
8
Black
10
88.5214
20
-116.007
11
89.0929
21
-116.007
0
LINE
8
Black
10
89.0929
20
-116.007
11
89.3786
21
-115.864
0
LINE
8
Black
10
89.3786
20
-115.864
11
89.5214
21
-115.579
0
LINE
8
Black
10
89.5214
20
-115.579
11
89.5214
21
-115.436
0
LINE
8
Black
10
89.5214
20
-115.436
11
89.3786
21
-115.15
0
LINE
8
Black
10
89.3786
20
-115.15
11
89.0929
21
-115.007
0
LINE
8
Black
10
89.0929
20
-115.007
11
88.6643
21
-115.007
0
LINE
8
Black
10
88.6643
20
-115.007
11
88.3786
21
-114.864
0
LINE
8
Black
10
88.3786
20
-114.864
11
88.2357
21
-114.579
0
LINE
8
Black
10
88.2357
20
-114.579
11
88.2357
21
-114.436
0
LINE
8
Black
10
88.2357
20
-114.436
11
88.3786
21
-114.15
0
LINE
8
Black
10
88.3786
20
-114.15
11
88.6643
21
-114.007
0
LINE
8
Black
10
88.6643
20
-114.007
11
89.0929
21
-114.007
0
LINE
8
Black
10
89.0929
20
-114.007
11
89.3786
21
-114.15
0
LINE
8
Black
10
91.2357
20
-116.007
11
90.95
21
-115.864
0
LINE
8
Black
10
90.95
20
-115.864
11
90.8071
21
-115.579
0
LINE
8
Black
10
90.8071
20
-115.579
11
90.8071
21
-113.007
0
LINE
8
Black
10
92.8071
20
-116.007
11
92.5214
21
-115.864
0
LINE
8
Black
10
92.5214
20
-115.864
11
92.3786
21
-115.721
0
LINE
8
Black
10
92.3786
20
-115.721
11
92.2357
21
-115.436
0
LINE
8
Black
10
92.2357
20
-115.436
11
92.2357
21
-114.579
0
LINE
8
Black
10
92.2357
20
-114.579
11
92.3786
21
-114.293
0
LINE
8
Black
10
92.3786
20
-114.293
11
92.5214
21
-114.15
0
LINE
8
Black
10
92.5214
20
-114.15
11
92.8071
21
-114.007
0
LINE
8
Black
10
92.8071
20
-114.007
11
93.2357
21
-114.007
0
LINE
8
Black
10
93.2357
20
-114.007
11
93.5214
21
-114.15
0
LINE
8
Black
10
93.5214
20
-114.15
11
93.6643
21
-114.293
0
LINE
8
Black
10
93.6643
20
-114.293
11
93.8071
21
-114.579
0
LINE
8
Black
10
93.8071
20
-114.579
11
93.8071
21
-115.436
0
LINE
8
Black
10
93.8071
20
-115.436
11
93.6643
21
-115.721
0
LINE
8
Black
10
93.6643
20
-115.721
11
93.5214
21
-115.864
0
LINE
8
Black
10
93.5214
20
-115.864
11
93.2357
21
-116.007
0
LINE
8
Black
10
93.2357
20
-116.007
11
92.8071
21
-116.007
0
LINE
8
Black
10
94.6643
20
-114.007
11
95.8071
21
-114.007
0
LINE
8
Black
10
95.0929
20
-113.007
11
95.0929
21
-115.579
0
LINE
8
Black
10
95.0929
20
-115.579
11
95.2357
21
-115.864
0
LINE
8
Black
10
95.2357
20
-115.864
11
95.5214
21
-116.007
0
LINE
8
Black
10
95.5214
20
-116.007
11
95.8071
21
-116.007
0
LINE
8
Black
10
96.5214
20
-117.15
11
96.6643
21
-117.007
0
LINE
8
Black
10
96.6643
20
-117.007
11
96.95
21
-116.579
0
LINE
8
Black
10
96.95
20
-116.579
11
97.0929
21
-116.293
0
LINE
8
Black
10
97.0929
20
-116.293
11
97.2357
21
-115.864
0
LINE
8
Black
10
97.2357
20
-115.864
11
97.3786
21
-115.15
0
LINE
8
Black
10
97.3786
20
-115.15
11
97.3786
21
-114.579
0
LINE
8
Black
10
97.3786
20
-114.579
11
97.2357
21
-113.864
0
LINE
8
Black
10
97.2357
20
-113.864
11
97.0929
21
-113.436
0
LINE
8
Black
10
97.0929
20
-113.436
11
96.95
21
-113.15
0
LINE
8
Black
10
96.95
20
-113.15
11
96.6643
21
-112.721
0
LINE
8
Black
10
96.6643
20
-112.721
11
96.5214
21
-112.579
  0
ENDSEC
  0
EOF
