G04 #@! TF.GenerationSoftware,KiCad,Pcbnew,8.0.4*
G04 #@! TF.CreationDate,2024-09-12T21:07:59-04:00*
G04 #@! TF.ProjectId,LB-65CXX-01,4c422d36-3543-4585-982d-30312e6b6963,2*
G04 #@! TF.SameCoordinates,Original*
G04 #@! TF.FileFunction,Legend,Bot*
G04 #@! TF.FilePolarity,Positive*
%FSLAX46Y46*%
G04 Gerber Fmt 4.6, Leading zero omitted, Abs format (unit mm)*
G04 Created by KiCad (PCBNEW 8.0.4) date 2024-09-12 21:07:59*
%MOMM*%
%LPD*%
G01*
G04 APERTURE LIST*
%ADD10C,0.476250*%
%ADD11C,0.635000*%
%ADD12C,0.304800*%
%ADD13C,0.650000*%
G04 APERTURE END LIST*
D10*
X167075754Y-49767453D02*
X167257183Y-49676739D01*
X167257183Y-49676739D02*
X167347897Y-49495310D01*
X167347897Y-49495310D02*
X167347897Y-47862453D01*
X165533612Y-49767453D02*
X165533612Y-48769596D01*
X165533612Y-48769596D02*
X165624326Y-48588167D01*
X165624326Y-48588167D02*
X165805754Y-48497453D01*
X165805754Y-48497453D02*
X166168612Y-48497453D01*
X166168612Y-48497453D02*
X166350040Y-48588167D01*
X165533612Y-49676739D02*
X165715040Y-49767453D01*
X165715040Y-49767453D02*
X166168612Y-49767453D01*
X166168612Y-49767453D02*
X166350040Y-49676739D01*
X166350040Y-49676739D02*
X166440754Y-49495310D01*
X166440754Y-49495310D02*
X166440754Y-49313881D01*
X166440754Y-49313881D02*
X166350040Y-49132453D01*
X166350040Y-49132453D02*
X166168612Y-49041739D01*
X166168612Y-49041739D02*
X165715040Y-49041739D01*
X165715040Y-49041739D02*
X165533612Y-48951024D01*
X164626469Y-48497453D02*
X164626469Y-49767453D01*
X164626469Y-48678881D02*
X164535755Y-48588167D01*
X164535755Y-48588167D02*
X164354326Y-48497453D01*
X164354326Y-48497453D02*
X164082183Y-48497453D01*
X164082183Y-48497453D02*
X163900755Y-48588167D01*
X163900755Y-48588167D02*
X163810041Y-48769596D01*
X163810041Y-48769596D02*
X163810041Y-49767453D01*
X162086470Y-49767453D02*
X162086470Y-47862453D01*
X162086470Y-49676739D02*
X162267898Y-49767453D01*
X162267898Y-49767453D02*
X162630755Y-49767453D01*
X162630755Y-49767453D02*
X162812184Y-49676739D01*
X162812184Y-49676739D02*
X162902898Y-49586024D01*
X162902898Y-49586024D02*
X162993612Y-49404596D01*
X162993612Y-49404596D02*
X162993612Y-48860310D01*
X162993612Y-48860310D02*
X162902898Y-48678881D01*
X162902898Y-48678881D02*
X162812184Y-48588167D01*
X162812184Y-48588167D02*
X162630755Y-48497453D01*
X162630755Y-48497453D02*
X162267898Y-48497453D01*
X162267898Y-48497453D02*
X162086470Y-48588167D01*
X161179327Y-49041739D02*
X159727899Y-49041739D01*
X158820756Y-49767453D02*
X158820756Y-47862453D01*
X158820756Y-48588167D02*
X158639328Y-48497453D01*
X158639328Y-48497453D02*
X158276470Y-48497453D01*
X158276470Y-48497453D02*
X158095042Y-48588167D01*
X158095042Y-48588167D02*
X158004328Y-48678881D01*
X158004328Y-48678881D02*
X157913613Y-48860310D01*
X157913613Y-48860310D02*
X157913613Y-49404596D01*
X157913613Y-49404596D02*
X158004328Y-49586024D01*
X158004328Y-49586024D02*
X158095042Y-49676739D01*
X158095042Y-49676739D02*
X158276470Y-49767453D01*
X158276470Y-49767453D02*
X158639328Y-49767453D01*
X158639328Y-49767453D02*
X158820756Y-49676739D01*
X156825042Y-49767453D02*
X157006471Y-49676739D01*
X157006471Y-49676739D02*
X157097185Y-49586024D01*
X157097185Y-49586024D02*
X157187899Y-49404596D01*
X157187899Y-49404596D02*
X157187899Y-48860310D01*
X157187899Y-48860310D02*
X157097185Y-48678881D01*
X157097185Y-48678881D02*
X157006471Y-48588167D01*
X157006471Y-48588167D02*
X156825042Y-48497453D01*
X156825042Y-48497453D02*
X156552899Y-48497453D01*
X156552899Y-48497453D02*
X156371471Y-48588167D01*
X156371471Y-48588167D02*
X156280757Y-48678881D01*
X156280757Y-48678881D02*
X156190042Y-48860310D01*
X156190042Y-48860310D02*
X156190042Y-49404596D01*
X156190042Y-49404596D02*
X156280757Y-49586024D01*
X156280757Y-49586024D02*
X156371471Y-49676739D01*
X156371471Y-49676739D02*
X156552899Y-49767453D01*
X156552899Y-49767453D02*
X156825042Y-49767453D01*
X154557186Y-49767453D02*
X154557186Y-48769596D01*
X154557186Y-48769596D02*
X154647900Y-48588167D01*
X154647900Y-48588167D02*
X154829328Y-48497453D01*
X154829328Y-48497453D02*
X155192186Y-48497453D01*
X155192186Y-48497453D02*
X155373614Y-48588167D01*
X154557186Y-49676739D02*
X154738614Y-49767453D01*
X154738614Y-49767453D02*
X155192186Y-49767453D01*
X155192186Y-49767453D02*
X155373614Y-49676739D01*
X155373614Y-49676739D02*
X155464328Y-49495310D01*
X155464328Y-49495310D02*
X155464328Y-49313881D01*
X155464328Y-49313881D02*
X155373614Y-49132453D01*
X155373614Y-49132453D02*
X155192186Y-49041739D01*
X155192186Y-49041739D02*
X154738614Y-49041739D01*
X154738614Y-49041739D02*
X154557186Y-48951024D01*
X153650043Y-49767453D02*
X153650043Y-48497453D01*
X153650043Y-48860310D02*
X153559329Y-48678881D01*
X153559329Y-48678881D02*
X153468615Y-48588167D01*
X153468615Y-48588167D02*
X153287186Y-48497453D01*
X153287186Y-48497453D02*
X153105757Y-48497453D01*
X151654329Y-49767453D02*
X151654329Y-47862453D01*
X151654329Y-49676739D02*
X151835757Y-49767453D01*
X151835757Y-49767453D02*
X152198614Y-49767453D01*
X152198614Y-49767453D02*
X152380043Y-49676739D01*
X152380043Y-49676739D02*
X152470757Y-49586024D01*
X152470757Y-49586024D02*
X152561471Y-49404596D01*
X152561471Y-49404596D02*
X152561471Y-48860310D01*
X152561471Y-48860310D02*
X152470757Y-48678881D01*
X152470757Y-48678881D02*
X152380043Y-48588167D01*
X152380043Y-48588167D02*
X152198614Y-48497453D01*
X152198614Y-48497453D02*
X151835757Y-48497453D01*
X151835757Y-48497453D02*
X151654329Y-48588167D01*
X150837900Y-49676739D02*
X150656472Y-49767453D01*
X150656472Y-49767453D02*
X150293615Y-49767453D01*
X150293615Y-49767453D02*
X150112186Y-49676739D01*
X150112186Y-49676739D02*
X150021472Y-49495310D01*
X150021472Y-49495310D02*
X150021472Y-49404596D01*
X150021472Y-49404596D02*
X150112186Y-49223167D01*
X150112186Y-49223167D02*
X150293615Y-49132453D01*
X150293615Y-49132453D02*
X150565758Y-49132453D01*
X150565758Y-49132453D02*
X150747186Y-49041739D01*
X150747186Y-49041739D02*
X150837900Y-48860310D01*
X150837900Y-48860310D02*
X150837900Y-48769596D01*
X150837900Y-48769596D02*
X150747186Y-48588167D01*
X150747186Y-48588167D02*
X150565758Y-48497453D01*
X150565758Y-48497453D02*
X150293615Y-48497453D01*
X150293615Y-48497453D02*
X150112186Y-48588167D01*
X149205043Y-49586024D02*
X149114329Y-49676739D01*
X149114329Y-49676739D02*
X149205043Y-49767453D01*
X149205043Y-49767453D02*
X149295757Y-49676739D01*
X149295757Y-49676739D02*
X149205043Y-49586024D01*
X149205043Y-49586024D02*
X149205043Y-49767453D01*
X147481472Y-49676739D02*
X147662900Y-49767453D01*
X147662900Y-49767453D02*
X148025757Y-49767453D01*
X148025757Y-49767453D02*
X148207186Y-49676739D01*
X148207186Y-49676739D02*
X148297900Y-49586024D01*
X148297900Y-49586024D02*
X148388614Y-49404596D01*
X148388614Y-49404596D02*
X148388614Y-48860310D01*
X148388614Y-48860310D02*
X148297900Y-48678881D01*
X148297900Y-48678881D02*
X148207186Y-48588167D01*
X148207186Y-48588167D02*
X148025757Y-48497453D01*
X148025757Y-48497453D02*
X147662900Y-48497453D01*
X147662900Y-48497453D02*
X147481472Y-48588167D01*
X146392900Y-49767453D02*
X146574329Y-49676739D01*
X146574329Y-49676739D02*
X146665043Y-49586024D01*
X146665043Y-49586024D02*
X146755757Y-49404596D01*
X146755757Y-49404596D02*
X146755757Y-48860310D01*
X146755757Y-48860310D02*
X146665043Y-48678881D01*
X146665043Y-48678881D02*
X146574329Y-48588167D01*
X146574329Y-48588167D02*
X146392900Y-48497453D01*
X146392900Y-48497453D02*
X146120757Y-48497453D01*
X146120757Y-48497453D02*
X145939329Y-48588167D01*
X145939329Y-48588167D02*
X145848615Y-48678881D01*
X145848615Y-48678881D02*
X145757900Y-48860310D01*
X145757900Y-48860310D02*
X145757900Y-49404596D01*
X145757900Y-49404596D02*
X145848615Y-49586024D01*
X145848615Y-49586024D02*
X145939329Y-49676739D01*
X145939329Y-49676739D02*
X146120757Y-49767453D01*
X146120757Y-49767453D02*
X146392900Y-49767453D01*
X144941472Y-49767453D02*
X144941472Y-48497453D01*
X144941472Y-48678881D02*
X144850758Y-48588167D01*
X144850758Y-48588167D02*
X144669329Y-48497453D01*
X144669329Y-48497453D02*
X144397186Y-48497453D01*
X144397186Y-48497453D02*
X144215758Y-48588167D01*
X144215758Y-48588167D02*
X144125044Y-48769596D01*
X144125044Y-48769596D02*
X144125044Y-49767453D01*
X144125044Y-48769596D02*
X144034329Y-48588167D01*
X144034329Y-48588167D02*
X143852901Y-48497453D01*
X143852901Y-48497453D02*
X143580758Y-48497453D01*
X143580758Y-48497453D02*
X143399329Y-48588167D01*
X143399329Y-48588167D02*
X143308615Y-48769596D01*
X143308615Y-48769596D02*
X143308615Y-49767453D01*
X141040758Y-47771739D02*
X142673615Y-50221024D01*
X163447185Y-52834396D02*
X164354328Y-52834396D01*
X164354328Y-52834396D02*
X164354328Y-50929396D01*
X162177185Y-51836539D02*
X161905042Y-51927253D01*
X161905042Y-51927253D02*
X161814328Y-52017967D01*
X161814328Y-52017967D02*
X161723614Y-52199396D01*
X161723614Y-52199396D02*
X161723614Y-52471539D01*
X161723614Y-52471539D02*
X161814328Y-52652967D01*
X161814328Y-52652967D02*
X161905042Y-52743682D01*
X161905042Y-52743682D02*
X162086471Y-52834396D01*
X162086471Y-52834396D02*
X162812185Y-52834396D01*
X162812185Y-52834396D02*
X162812185Y-50929396D01*
X162812185Y-50929396D02*
X162177185Y-50929396D01*
X162177185Y-50929396D02*
X161995757Y-51020110D01*
X161995757Y-51020110D02*
X161905042Y-51110824D01*
X161905042Y-51110824D02*
X161814328Y-51292253D01*
X161814328Y-51292253D02*
X161814328Y-51473682D01*
X161814328Y-51473682D02*
X161905042Y-51655110D01*
X161905042Y-51655110D02*
X161995757Y-51745824D01*
X161995757Y-51745824D02*
X162177185Y-51836539D01*
X162177185Y-51836539D02*
X162812185Y-51836539D01*
X160907185Y-52108682D02*
X159455757Y-52108682D01*
X157732186Y-50929396D02*
X158095043Y-50929396D01*
X158095043Y-50929396D02*
X158276471Y-51020110D01*
X158276471Y-51020110D02*
X158367186Y-51110824D01*
X158367186Y-51110824D02*
X158548614Y-51382967D01*
X158548614Y-51382967D02*
X158639328Y-51745824D01*
X158639328Y-51745824D02*
X158639328Y-52471539D01*
X158639328Y-52471539D02*
X158548614Y-52652967D01*
X158548614Y-52652967D02*
X158457900Y-52743682D01*
X158457900Y-52743682D02*
X158276471Y-52834396D01*
X158276471Y-52834396D02*
X157913614Y-52834396D01*
X157913614Y-52834396D02*
X157732186Y-52743682D01*
X157732186Y-52743682D02*
X157641471Y-52652967D01*
X157641471Y-52652967D02*
X157550757Y-52471539D01*
X157550757Y-52471539D02*
X157550757Y-52017967D01*
X157550757Y-52017967D02*
X157641471Y-51836539D01*
X157641471Y-51836539D02*
X157732186Y-51745824D01*
X157732186Y-51745824D02*
X157913614Y-51655110D01*
X157913614Y-51655110D02*
X158276471Y-51655110D01*
X158276471Y-51655110D02*
X158457900Y-51745824D01*
X158457900Y-51745824D02*
X158548614Y-51836539D01*
X158548614Y-51836539D02*
X158639328Y-52017967D01*
X155827185Y-50929396D02*
X156734328Y-50929396D01*
X156734328Y-50929396D02*
X156825042Y-51836539D01*
X156825042Y-51836539D02*
X156734328Y-51745824D01*
X156734328Y-51745824D02*
X156552900Y-51655110D01*
X156552900Y-51655110D02*
X156099328Y-51655110D01*
X156099328Y-51655110D02*
X155917900Y-51745824D01*
X155917900Y-51745824D02*
X155827185Y-51836539D01*
X155827185Y-51836539D02*
X155736471Y-52017967D01*
X155736471Y-52017967D02*
X155736471Y-52471539D01*
X155736471Y-52471539D02*
X155827185Y-52652967D01*
X155827185Y-52652967D02*
X155917900Y-52743682D01*
X155917900Y-52743682D02*
X156099328Y-52834396D01*
X156099328Y-52834396D02*
X156552900Y-52834396D01*
X156552900Y-52834396D02*
X156734328Y-52743682D01*
X156734328Y-52743682D02*
X156825042Y-52652967D01*
X153831471Y-52652967D02*
X153922185Y-52743682D01*
X153922185Y-52743682D02*
X154194328Y-52834396D01*
X154194328Y-52834396D02*
X154375756Y-52834396D01*
X154375756Y-52834396D02*
X154647899Y-52743682D01*
X154647899Y-52743682D02*
X154829328Y-52562253D01*
X154829328Y-52562253D02*
X154920042Y-52380824D01*
X154920042Y-52380824D02*
X155010756Y-52017967D01*
X155010756Y-52017967D02*
X155010756Y-51745824D01*
X155010756Y-51745824D02*
X154920042Y-51382967D01*
X154920042Y-51382967D02*
X154829328Y-51201539D01*
X154829328Y-51201539D02*
X154647899Y-51020110D01*
X154647899Y-51020110D02*
X154375756Y-50929396D01*
X154375756Y-50929396D02*
X154194328Y-50929396D01*
X154194328Y-50929396D02*
X153922185Y-51020110D01*
X153922185Y-51020110D02*
X153831471Y-51110824D01*
X153196471Y-50929396D02*
X151926471Y-52834396D01*
X151926471Y-50929396D02*
X153196471Y-52834396D01*
X151382185Y-50929396D02*
X150112185Y-52834396D01*
X150112185Y-50929396D02*
X151382185Y-52834396D01*
X149386470Y-52108682D02*
X147935042Y-52108682D01*
X146665042Y-50929396D02*
X146483613Y-50929396D01*
X146483613Y-50929396D02*
X146302185Y-51020110D01*
X146302185Y-51020110D02*
X146211471Y-51110824D01*
X146211471Y-51110824D02*
X146120756Y-51292253D01*
X146120756Y-51292253D02*
X146030042Y-51655110D01*
X146030042Y-51655110D02*
X146030042Y-52108682D01*
X146030042Y-52108682D02*
X146120756Y-52471539D01*
X146120756Y-52471539D02*
X146211471Y-52652967D01*
X146211471Y-52652967D02*
X146302185Y-52743682D01*
X146302185Y-52743682D02*
X146483613Y-52834396D01*
X146483613Y-52834396D02*
X146665042Y-52834396D01*
X146665042Y-52834396D02*
X146846471Y-52743682D01*
X146846471Y-52743682D02*
X146937185Y-52652967D01*
X146937185Y-52652967D02*
X147027899Y-52471539D01*
X147027899Y-52471539D02*
X147118613Y-52108682D01*
X147118613Y-52108682D02*
X147118613Y-51655110D01*
X147118613Y-51655110D02*
X147027899Y-51292253D01*
X147027899Y-51292253D02*
X146937185Y-51110824D01*
X146937185Y-51110824D02*
X146846471Y-51020110D01*
X146846471Y-51020110D02*
X146665042Y-50929396D01*
X144215756Y-52834396D02*
X145304327Y-52834396D01*
X144760042Y-52834396D02*
X144760042Y-50929396D01*
X144760042Y-50929396D02*
X144941470Y-51201539D01*
X144941470Y-51201539D02*
X145122899Y-51382967D01*
X145122899Y-51382967D02*
X145304327Y-51473682D01*
D11*
X177872571Y-144652032D02*
X178719238Y-143442508D01*
X179324000Y-144652032D02*
X179324000Y-142112032D01*
X179324000Y-142112032D02*
X178356381Y-142112032D01*
X178356381Y-142112032D02*
X178114476Y-142232984D01*
X178114476Y-142232984D02*
X177993523Y-142353937D01*
X177993523Y-142353937D02*
X177872571Y-142595841D01*
X177872571Y-142595841D02*
X177872571Y-142958699D01*
X177872571Y-142958699D02*
X177993523Y-143200603D01*
X177993523Y-143200603D02*
X178114476Y-143321556D01*
X178114476Y-143321556D02*
X178356381Y-143442508D01*
X178356381Y-143442508D02*
X179324000Y-143442508D01*
X176784000Y-143321556D02*
X175937333Y-143321556D01*
X175574476Y-144652032D02*
X176784000Y-144652032D01*
X176784000Y-144652032D02*
X176784000Y-142112032D01*
X176784000Y-142112032D02*
X175574476Y-142112032D01*
X174848762Y-142112032D02*
X174002095Y-144652032D01*
X174002095Y-144652032D02*
X173155428Y-142112032D01*
X170494476Y-142353937D02*
X170373524Y-142232984D01*
X170373524Y-142232984D02*
X170131619Y-142112032D01*
X170131619Y-142112032D02*
X169526857Y-142112032D01*
X169526857Y-142112032D02*
X169284952Y-142232984D01*
X169284952Y-142232984D02*
X169164000Y-142353937D01*
X169164000Y-142353937D02*
X169043047Y-142595841D01*
X169043047Y-142595841D02*
X169043047Y-142837746D01*
X169043047Y-142837746D02*
X169164000Y-143200603D01*
X169164000Y-143200603D02*
X170615428Y-144652032D01*
X170615428Y-144652032D02*
X169043047Y-144652032D01*
D12*
X146703143Y-138413181D02*
X145832286Y-138413181D01*
X146267714Y-139937181D02*
X146267714Y-138413181D01*
X145324285Y-139138895D02*
X144816285Y-139138895D01*
X144598571Y-139937181D02*
X145324285Y-139937181D01*
X145324285Y-139937181D02*
X145324285Y-138413181D01*
X145324285Y-138413181D02*
X144598571Y-138413181D01*
X144018000Y-139864610D02*
X143800286Y-139937181D01*
X143800286Y-139937181D02*
X143437428Y-139937181D01*
X143437428Y-139937181D02*
X143292286Y-139864610D01*
X143292286Y-139864610D02*
X143219714Y-139792038D01*
X143219714Y-139792038D02*
X143147143Y-139646895D01*
X143147143Y-139646895D02*
X143147143Y-139501752D01*
X143147143Y-139501752D02*
X143219714Y-139356610D01*
X143219714Y-139356610D02*
X143292286Y-139284038D01*
X143292286Y-139284038D02*
X143437428Y-139211467D01*
X143437428Y-139211467D02*
X143727714Y-139138895D01*
X143727714Y-139138895D02*
X143872857Y-139066324D01*
X143872857Y-139066324D02*
X143945428Y-138993752D01*
X143945428Y-138993752D02*
X144018000Y-138848610D01*
X144018000Y-138848610D02*
X144018000Y-138703467D01*
X144018000Y-138703467D02*
X143945428Y-138558324D01*
X143945428Y-138558324D02*
X143872857Y-138485752D01*
X143872857Y-138485752D02*
X143727714Y-138413181D01*
X143727714Y-138413181D02*
X143364857Y-138413181D01*
X143364857Y-138413181D02*
X143147143Y-138485752D01*
X142711714Y-138413181D02*
X141840857Y-138413181D01*
X142276285Y-139937181D02*
X142276285Y-138413181D01*
D13*
X142272000Y-140748000D02*
X146272000Y-140748000D01*
X146272000Y-140748000D02*
X146272000Y-144748000D01*
X146272000Y-144748000D02*
X142272000Y-144748000D01*
X142272000Y-144748000D02*
X142272000Y-140748000D01*
X142272000Y-140748000D02*
X142272000Y-141248000D01*
X142272000Y-141248000D02*
X146272000Y-141248000D01*
X146272000Y-141248000D02*
X146272000Y-141748000D01*
X146272000Y-141748000D02*
X142272000Y-141748000D01*
X142272000Y-141748000D02*
X142272000Y-142248000D01*
X142272000Y-142248000D02*
X146272000Y-142248000D01*
X146272000Y-142248000D02*
X146272000Y-142748000D01*
X146272000Y-142748000D02*
X142272000Y-142748000D01*
X142272000Y-142748000D02*
X142272000Y-143248000D01*
X142272000Y-143248000D02*
X145772000Y-143248000D01*
X145772000Y-143248000D02*
X146272000Y-143248000D01*
X146272000Y-143248000D02*
X146272000Y-143748000D01*
X146272000Y-143748000D02*
X142272000Y-143748000D01*
X142272000Y-143748000D02*
X142272000Y-144248000D01*
X142272000Y-144248000D02*
X146272000Y-144248000D01*
M02*
