%TF.GenerationSoftware,KiCad,Pcbnew,(5.1.10)-1*%
%TF.CreationDate,2021-10-30T10:02:25-04:00*%
%TF.ProjectId,W7ZOI_TIA_SMT,57375a4f-495f-4544-9941-5f534d542e6b,rev?*%
%TF.SameCoordinates,Original*%
%TF.FileFunction,Copper,L2,Bot*%
%TF.FilePolarity,Positive*%
%FSLAX46Y46*%
G04 Gerber Fmt 4.6, Leading zero omitted, Abs format (unit mm)*
G04 Created by KiCad (PCBNEW (5.1.10)-1) date 2021-10-30 10:02:25*
%MOMM*%
%LPD*%
G01*
G04 APERTURE LIST*
%TA.AperFunction,ComponentPad*%
%ADD10C,1.600000*%
%TD*%
%TA.AperFunction,ComponentPad*%
%ADD11O,1.600000X1.600000*%
%TD*%
%TA.AperFunction,SMDPad,CuDef*%
%ADD12R,4.200000X1.350000*%
%TD*%
%TA.AperFunction,ComponentPad*%
%ADD13C,1.574800*%
%TD*%
%TA.AperFunction,ComponentPad*%
%ADD14C,1.651000*%
%TD*%
%TA.AperFunction,ComponentPad*%
%ADD15O,2.600000X1.400000*%
%TD*%
%TA.AperFunction,ComponentPad*%
%ADD16O,4.600000X2.000000*%
%TD*%
%TA.AperFunction,ComponentPad*%
%ADD17O,2.000000X4.600000*%
%TD*%
%TA.AperFunction,ViaPad*%
%ADD18C,0.889000*%
%TD*%
%TA.AperFunction,Conductor*%
%ADD19C,0.635000*%
%TD*%
%TA.AperFunction,Conductor*%
%ADD20C,1.270000*%
%TD*%
%TA.AperFunction,Conductor*%
%ADD21C,0.254000*%
%TD*%
%TA.AperFunction,Conductor*%
%ADD22C,0.150000*%
%TD*%
G04 APERTURE END LIST*
D10*
%TO.P,R11,1*%
%TO.N,VOUTLR*%
X277040000Y-97534600D03*
D11*
%TO.P,R11,2*%
%TO.N,GND*%
X266880000Y-97534600D03*
%TD*%
D12*
%TO.P,P1,2*%
%TO.N,GND*%
X217040000Y-96709600D03*
X217040000Y-102359600D03*
%TD*%
%TO.P,P2,2*%
%TO.N,GND*%
X292040000Y-96709600D03*
X292040000Y-102359600D03*
%TD*%
D13*
%TO.P,P3,1*%
%TO.N,VINLR*%
X228040000Y-99534600D03*
D14*
%TO.P,P3,2*%
%TO.N,GND*%
X228040000Y-102074600D03*
D15*
%TO.P,P3,*%
%TO.N,*%
X223360000Y-104614600D03*
X223360000Y-94454600D03*
%TD*%
%TO.P,P4,*%
%TO.N,*%
X285720000Y-104614600D03*
X285720000Y-94454600D03*
D14*
%TO.P,P4,2*%
%TO.N,GND*%
X281040000Y-96994600D03*
D13*
%TO.P,P4,1*%
%TO.N,VOUTLR*%
X281040000Y-99534600D03*
%TD*%
D16*
%TO.P,J1,3*%
%TO.N,GND*%
X222240000Y-77134600D03*
D17*
%TO.P,J1,1*%
%TO.N,VCCLR*%
X225140000Y-72534600D03*
%TO.P,J1,2*%
%TO.N,GND*%
X219040000Y-72534600D03*
%TD*%
%TO.P,J2,2*%
%TO.N,GND*%
X219040000Y-84534600D03*
%TO.P,J2,1*%
%TO.N,VCCRL*%
X225140000Y-84534600D03*
D16*
%TO.P,J2,3*%
%TO.N,GND*%
X222240000Y-89134600D03*
%TD*%
D11*
%TO.P,R22,2*%
%TO.N,GND*%
X246200000Y-96034600D03*
D10*
%TO.P,R22,1*%
%TO.N,VINLR*%
X236040000Y-96034600D03*
%TD*%
D18*
%TO.N,GND*%
X244040000Y-107034600D03*
X252540000Y-99534600D03*
X258540000Y-94534600D03*
X275040000Y-100534600D03*
X239540000Y-93034600D03*
X264540000Y-84534600D03*
X270540000Y-87534600D03*
X272040000Y-92034600D03*
X292040000Y-105034600D03*
X292040000Y-94534600D03*
X217040000Y-94034600D03*
X217040000Y-105034600D03*
X235540000Y-99034600D03*
X263540000Y-92034600D03*
X288540000Y-90034600D03*
X288540000Y-82534600D03*
X288540000Y-74034600D03*
X288540000Y-67534600D03*
X275040000Y-67534600D03*
X262540000Y-67534600D03*
X250040000Y-67534600D03*
X238540000Y-67534600D03*
X227040000Y-67534600D03*
X218540000Y-67534600D03*
X222040000Y-80534600D03*
X222040000Y-69534600D03*
X217540000Y-109534600D03*
X224540000Y-109534600D03*
X217040000Y-89534600D03*
X217040000Y-78534600D03*
X284040000Y-78534600D03*
X292540000Y-78534600D03*
X292540000Y-71034600D03*
X284040000Y-71034600D03*
X283540000Y-86534600D03*
X292540000Y-87034600D03*
X292540000Y-109034600D03*
X284540000Y-109034600D03*
%TO.N,/V6*%
X273540000Y-90534600D03*
X273540000Y-103534600D03*
%TO.N,/V7*%
X265540000Y-101534600D03*
X267077500Y-93072100D03*
%TO.N,VINLR*%
X223540000Y-99534600D03*
%TO.N,VOUTLR*%
X288540000Y-99534600D03*
%TO.N,Net-(Q6-Pad2)*%
X240540000Y-101534600D03*
X260540000Y-101534600D03*
%TD*%
D19*
%TO.N,/V6*%
X273540000Y-103534600D02*
X273540000Y-90534600D01*
%TO.N,/V7*%
X265540000Y-101534600D02*
X264040000Y-100034600D01*
X264040000Y-96109600D02*
X267077500Y-93072100D01*
X264040000Y-100034600D02*
X264040000Y-96109600D01*
D20*
%TO.N,VINLR*%
X228040000Y-99534600D02*
X223540000Y-99534600D01*
%TO.N,VOUTLR*%
X288540000Y-99534600D02*
X281040000Y-99534600D01*
D19*
%TO.N,Net-(Q6-Pad2)*%
X260540000Y-101534600D02*
X240540000Y-101534600D01*
%TD*%
D21*
%TO.N,GND*%
X294159801Y-95398478D02*
X294140000Y-95396528D01*
X292325750Y-95399600D01*
X292167000Y-95558350D01*
X292167000Y-96582600D01*
X292187000Y-96582600D01*
X292187000Y-96836600D01*
X292167000Y-96836600D01*
X292167000Y-97860850D01*
X292325750Y-98019600D01*
X294140000Y-98022672D01*
X294159801Y-98020722D01*
X294159801Y-101048478D01*
X294140000Y-101046528D01*
X292325750Y-101049600D01*
X292167000Y-101208350D01*
X292167000Y-102232600D01*
X292187000Y-102232600D01*
X292187000Y-102486600D01*
X292167000Y-102486600D01*
X292167000Y-103510850D01*
X292325750Y-103669600D01*
X294140000Y-103672672D01*
X294159801Y-103670722D01*
X294159801Y-111154400D01*
X214920200Y-111154400D01*
X214920200Y-104614600D01*
X221673770Y-104614600D01*
X221694642Y-104826513D01*
X221756454Y-105030282D01*
X221856833Y-105218077D01*
X221991919Y-105382681D01*
X222156523Y-105517767D01*
X222344318Y-105618146D01*
X222548087Y-105679958D01*
X222706900Y-105695600D01*
X224013100Y-105695600D01*
X224171913Y-105679958D01*
X224375682Y-105618146D01*
X224563477Y-105517767D01*
X224728081Y-105382681D01*
X224863167Y-105218077D01*
X224963546Y-105030282D01*
X225025358Y-104826513D01*
X225046230Y-104614600D01*
X284033770Y-104614600D01*
X284054642Y-104826513D01*
X284116454Y-105030282D01*
X284216833Y-105218077D01*
X284351919Y-105382681D01*
X284516523Y-105517767D01*
X284704318Y-105618146D01*
X284908087Y-105679958D01*
X285066900Y-105695600D01*
X286373100Y-105695600D01*
X286531913Y-105679958D01*
X286735682Y-105618146D01*
X286923477Y-105517767D01*
X287088081Y-105382681D01*
X287223167Y-105218077D01*
X287323546Y-105030282D01*
X287385358Y-104826513D01*
X287406230Y-104614600D01*
X287385358Y-104402687D01*
X287323546Y-104198918D01*
X287223167Y-104011123D01*
X287088081Y-103846519D01*
X286923477Y-103711433D01*
X286735682Y-103611054D01*
X286531913Y-103549242D01*
X286373100Y-103533600D01*
X285066900Y-103533600D01*
X284908087Y-103549242D01*
X284704318Y-103611054D01*
X284516523Y-103711433D01*
X284351919Y-103846519D01*
X284216833Y-104011123D01*
X284116454Y-104198918D01*
X284054642Y-104402687D01*
X284033770Y-104614600D01*
X225046230Y-104614600D01*
X225025358Y-104402687D01*
X224963546Y-104198918D01*
X224863167Y-104011123D01*
X224728081Y-103846519D01*
X224563477Y-103711433D01*
X224375682Y-103611054D01*
X224171913Y-103549242D01*
X224013100Y-103533600D01*
X222706900Y-103533600D01*
X222548087Y-103549242D01*
X222344318Y-103611054D01*
X222156523Y-103711433D01*
X221991919Y-103846519D01*
X221856833Y-104011123D01*
X221756454Y-104198918D01*
X221694642Y-104402687D01*
X221673770Y-104614600D01*
X214920200Y-104614600D01*
X214920200Y-103670722D01*
X214940000Y-103672672D01*
X216754250Y-103669600D01*
X216913000Y-103510850D01*
X216913000Y-102486600D01*
X217167000Y-102486600D01*
X217167000Y-103510850D01*
X217325750Y-103669600D01*
X219140000Y-103672672D01*
X219264482Y-103660412D01*
X219384180Y-103624102D01*
X219494494Y-103565137D01*
X219591185Y-103485785D01*
X219670537Y-103389094D01*
X219729502Y-103278780D01*
X219765812Y-103159082D01*
X219773058Y-103085509D01*
X227208696Y-103085509D01*
X227283367Y-103332081D01*
X227543228Y-103455531D01*
X227822180Y-103525913D01*
X228109502Y-103540521D01*
X228394154Y-103498794D01*
X228665196Y-103402337D01*
X228796633Y-103332081D01*
X228871304Y-103085509D01*
X228040000Y-102254205D01*
X227208696Y-103085509D01*
X219773058Y-103085509D01*
X219778072Y-103034600D01*
X219775000Y-102645350D01*
X219616250Y-102486600D01*
X217167000Y-102486600D01*
X216913000Y-102486600D01*
X216893000Y-102486600D01*
X216893000Y-102232600D01*
X216913000Y-102232600D01*
X216913000Y-101208350D01*
X217167000Y-101208350D01*
X217167000Y-102232600D01*
X219616250Y-102232600D01*
X219704748Y-102144102D01*
X226574079Y-102144102D01*
X226615806Y-102428754D01*
X226712263Y-102699796D01*
X226782519Y-102831233D01*
X227029091Y-102905904D01*
X227860395Y-102074600D01*
X228219605Y-102074600D01*
X229050909Y-102905904D01*
X229297481Y-102831233D01*
X229420931Y-102571372D01*
X229491313Y-102292420D01*
X229505921Y-102005098D01*
X229464194Y-101720446D01*
X229369122Y-101453295D01*
X239714500Y-101453295D01*
X239714500Y-101615905D01*
X239746224Y-101775389D01*
X239808452Y-101925621D01*
X239898792Y-102060825D01*
X240013775Y-102175808D01*
X240148979Y-102266148D01*
X240299211Y-102328376D01*
X240458695Y-102360100D01*
X240621305Y-102360100D01*
X240780789Y-102328376D01*
X240931021Y-102266148D01*
X240980481Y-102233100D01*
X260099519Y-102233100D01*
X260148979Y-102266148D01*
X260299211Y-102328376D01*
X260458695Y-102360100D01*
X260621305Y-102360100D01*
X260780789Y-102328376D01*
X260931021Y-102266148D01*
X261066225Y-102175808D01*
X261181208Y-102060825D01*
X261271548Y-101925621D01*
X261333776Y-101775389D01*
X261365500Y-101615905D01*
X261365500Y-101453295D01*
X261333776Y-101293811D01*
X261271548Y-101143579D01*
X261181208Y-101008375D01*
X261066225Y-100893392D01*
X260931021Y-100803052D01*
X260780789Y-100740824D01*
X260621305Y-100709100D01*
X260458695Y-100709100D01*
X260299211Y-100740824D01*
X260148979Y-100803052D01*
X260099519Y-100836100D01*
X240980481Y-100836100D01*
X240931021Y-100803052D01*
X240780789Y-100740824D01*
X240621305Y-100709100D01*
X240458695Y-100709100D01*
X240299211Y-100740824D01*
X240148979Y-100803052D01*
X240013775Y-100893392D01*
X239898792Y-101008375D01*
X239808452Y-101143579D01*
X239746224Y-101293811D01*
X239714500Y-101453295D01*
X229369122Y-101453295D01*
X229367737Y-101449404D01*
X229297481Y-101317967D01*
X229050909Y-101243296D01*
X228219605Y-102074600D01*
X227860395Y-102074600D01*
X227029091Y-101243296D01*
X226782519Y-101317967D01*
X226659069Y-101577828D01*
X226588687Y-101856780D01*
X226574079Y-102144102D01*
X219704748Y-102144102D01*
X219775000Y-102073850D01*
X219778072Y-101684600D01*
X219765812Y-101560118D01*
X219729502Y-101440420D01*
X219670537Y-101330106D01*
X219591185Y-101233415D01*
X219494494Y-101154063D01*
X219384180Y-101095098D01*
X219264482Y-101058788D01*
X219140000Y-101046528D01*
X217325750Y-101049600D01*
X217167000Y-101208350D01*
X216913000Y-101208350D01*
X216754250Y-101049600D01*
X214940000Y-101046528D01*
X214920200Y-101048478D01*
X214920200Y-99534600D01*
X222519085Y-99534600D01*
X222538702Y-99733771D01*
X222596798Y-99925287D01*
X222691140Y-100101790D01*
X222818104Y-100256496D01*
X222972810Y-100383460D01*
X223149313Y-100477802D01*
X223340829Y-100535898D01*
X223490098Y-100550600D01*
X227457488Y-100550600D01*
X227486555Y-100570022D01*
X227683034Y-100651407D01*
X227414804Y-100746863D01*
X227283367Y-100817119D01*
X227208696Y-101063691D01*
X228040000Y-101894995D01*
X228871304Y-101063691D01*
X228796633Y-100817119D01*
X228536772Y-100693669D01*
X228386482Y-100655750D01*
X228593445Y-100570022D01*
X228784811Y-100442155D01*
X228947555Y-100279411D01*
X229075422Y-100088045D01*
X229163499Y-99875410D01*
X229208400Y-99649677D01*
X229208400Y-99419523D01*
X229163499Y-99193790D01*
X229075422Y-98981155D01*
X228947555Y-98789789D01*
X228784811Y-98627045D01*
X228593445Y-98499178D01*
X228380810Y-98411101D01*
X228155077Y-98366200D01*
X227924923Y-98366200D01*
X227699190Y-98411101D01*
X227486555Y-98499178D01*
X227457488Y-98518600D01*
X223490098Y-98518600D01*
X223340829Y-98533302D01*
X223149313Y-98591398D01*
X222972810Y-98685740D01*
X222818104Y-98812704D01*
X222691140Y-98967410D01*
X222596798Y-99143913D01*
X222538702Y-99335429D01*
X222519085Y-99534600D01*
X214920200Y-99534600D01*
X214920200Y-98020722D01*
X214940000Y-98022672D01*
X216754250Y-98019600D01*
X216913000Y-97860850D01*
X216913000Y-96836600D01*
X217167000Y-96836600D01*
X217167000Y-97860850D01*
X217325750Y-98019600D01*
X219140000Y-98022672D01*
X219264482Y-98010412D01*
X219384180Y-97974102D01*
X219494494Y-97915137D01*
X219591185Y-97835785D01*
X219670537Y-97739094D01*
X219729502Y-97628780D01*
X219765812Y-97509082D01*
X219778072Y-97384600D01*
X219775000Y-96995350D01*
X219616250Y-96836600D01*
X217167000Y-96836600D01*
X216913000Y-96836600D01*
X216893000Y-96836600D01*
X216893000Y-96582600D01*
X216913000Y-96582600D01*
X216913000Y-95558350D01*
X217167000Y-95558350D01*
X217167000Y-96582600D01*
X219616250Y-96582600D01*
X219775000Y-96423850D01*
X219778072Y-96034600D01*
X219766617Y-95918282D01*
X234859000Y-95918282D01*
X234859000Y-96150918D01*
X234904386Y-96379085D01*
X234993412Y-96594013D01*
X235122658Y-96787443D01*
X235287157Y-96951942D01*
X235480587Y-97081188D01*
X235695515Y-97170214D01*
X235923682Y-97215600D01*
X236156318Y-97215600D01*
X236384485Y-97170214D01*
X236599413Y-97081188D01*
X236792843Y-96951942D01*
X236957342Y-96787443D01*
X237086588Y-96594013D01*
X237173727Y-96383639D01*
X244808096Y-96383639D01*
X244848754Y-96517687D01*
X244968963Y-96772020D01*
X245136481Y-96998014D01*
X245344869Y-97186985D01*
X245586119Y-97331670D01*
X245850960Y-97426509D01*
X246073000Y-97305224D01*
X246073000Y-96161600D01*
X246327000Y-96161600D01*
X246327000Y-97305224D01*
X246549040Y-97426509D01*
X246813881Y-97331670D01*
X247055131Y-97186985D01*
X247263519Y-96998014D01*
X247431037Y-96772020D01*
X247551246Y-96517687D01*
X247591904Y-96383639D01*
X247469915Y-96161600D01*
X246327000Y-96161600D01*
X246073000Y-96161600D01*
X244930085Y-96161600D01*
X244808096Y-96383639D01*
X237173727Y-96383639D01*
X237175614Y-96379085D01*
X237221000Y-96150918D01*
X237221000Y-96109600D01*
X263338122Y-96109600D01*
X263341501Y-96143908D01*
X263341500Y-100000302D01*
X263338122Y-100034600D01*
X263341500Y-100068898D01*
X263341500Y-100068908D01*
X263351607Y-100171529D01*
X263377382Y-100256496D01*
X263391549Y-100303198D01*
X263456409Y-100424543D01*
X263521826Y-100504253D01*
X263521829Y-100504256D01*
X263543697Y-100530902D01*
X263570344Y-100552771D01*
X264734619Y-101717046D01*
X264746224Y-101775389D01*
X264808452Y-101925621D01*
X264898792Y-102060825D01*
X265013775Y-102175808D01*
X265148979Y-102266148D01*
X265299211Y-102328376D01*
X265458695Y-102360100D01*
X265621305Y-102360100D01*
X265780789Y-102328376D01*
X265931021Y-102266148D01*
X266066225Y-102175808D01*
X266181208Y-102060825D01*
X266271548Y-101925621D01*
X266333776Y-101775389D01*
X266365500Y-101615905D01*
X266365500Y-101453295D01*
X266333776Y-101293811D01*
X266271548Y-101143579D01*
X266181208Y-101008375D01*
X266066225Y-100893392D01*
X265931021Y-100803052D01*
X265780789Y-100740824D01*
X265722446Y-100729219D01*
X264738500Y-99745273D01*
X264738500Y-97883639D01*
X265488096Y-97883639D01*
X265528754Y-98017687D01*
X265648963Y-98272020D01*
X265816481Y-98498014D01*
X266024869Y-98686985D01*
X266266119Y-98831670D01*
X266530960Y-98926509D01*
X266753000Y-98805224D01*
X266753000Y-97661600D01*
X267007000Y-97661600D01*
X267007000Y-98805224D01*
X267229040Y-98926509D01*
X267493881Y-98831670D01*
X267735131Y-98686985D01*
X267943519Y-98498014D01*
X268111037Y-98272020D01*
X268231246Y-98017687D01*
X268271904Y-97883639D01*
X268149915Y-97661600D01*
X267007000Y-97661600D01*
X266753000Y-97661600D01*
X265610085Y-97661600D01*
X265488096Y-97883639D01*
X264738500Y-97883639D01*
X264738500Y-97185561D01*
X265488096Y-97185561D01*
X265610085Y-97407600D01*
X266753000Y-97407600D01*
X266753000Y-96263976D01*
X267007000Y-96263976D01*
X267007000Y-97407600D01*
X268149915Y-97407600D01*
X268271904Y-97185561D01*
X268231246Y-97051513D01*
X268111037Y-96797180D01*
X267943519Y-96571186D01*
X267735131Y-96382215D01*
X267493881Y-96237530D01*
X267229040Y-96142691D01*
X267007000Y-96263976D01*
X266753000Y-96263976D01*
X266530960Y-96142691D01*
X266266119Y-96237530D01*
X266024869Y-96382215D01*
X265816481Y-96571186D01*
X265648963Y-96797180D01*
X265528754Y-97051513D01*
X265488096Y-97185561D01*
X264738500Y-97185561D01*
X264738500Y-96398927D01*
X267259947Y-93877481D01*
X267318289Y-93865876D01*
X267468521Y-93803648D01*
X267603725Y-93713308D01*
X267718708Y-93598325D01*
X267809048Y-93463121D01*
X267871276Y-93312889D01*
X267903000Y-93153405D01*
X267903000Y-92990795D01*
X267871276Y-92831311D01*
X267809048Y-92681079D01*
X267718708Y-92545875D01*
X267603725Y-92430892D01*
X267468521Y-92340552D01*
X267318289Y-92278324D01*
X267158805Y-92246600D01*
X266996195Y-92246600D01*
X266836711Y-92278324D01*
X266686479Y-92340552D01*
X266551275Y-92430892D01*
X266436292Y-92545875D01*
X266345952Y-92681079D01*
X266283724Y-92831311D01*
X266272119Y-92889653D01*
X263570344Y-95591429D01*
X263543698Y-95613297D01*
X263521830Y-95639943D01*
X263521826Y-95639947D01*
X263456409Y-95719657D01*
X263391549Y-95841002D01*
X263351608Y-95972671D01*
X263338122Y-96109600D01*
X237221000Y-96109600D01*
X237221000Y-95918282D01*
X237175614Y-95690115D01*
X237173728Y-95685561D01*
X244808096Y-95685561D01*
X244930085Y-95907600D01*
X246073000Y-95907600D01*
X246073000Y-94763976D01*
X246327000Y-94763976D01*
X246327000Y-95907600D01*
X247469915Y-95907600D01*
X247591904Y-95685561D01*
X247551246Y-95551513D01*
X247431037Y-95297180D01*
X247263519Y-95071186D01*
X247055131Y-94882215D01*
X246813881Y-94737530D01*
X246549040Y-94642691D01*
X246327000Y-94763976D01*
X246073000Y-94763976D01*
X245850960Y-94642691D01*
X245586119Y-94737530D01*
X245344869Y-94882215D01*
X245136481Y-95071186D01*
X244968963Y-95297180D01*
X244848754Y-95551513D01*
X244808096Y-95685561D01*
X237173728Y-95685561D01*
X237086588Y-95475187D01*
X236957342Y-95281757D01*
X236792843Y-95117258D01*
X236599413Y-94988012D01*
X236384485Y-94898986D01*
X236156318Y-94853600D01*
X235923682Y-94853600D01*
X235695515Y-94898986D01*
X235480587Y-94988012D01*
X235287157Y-95117258D01*
X235122658Y-95281757D01*
X234993412Y-95475187D01*
X234904386Y-95690115D01*
X234859000Y-95918282D01*
X219766617Y-95918282D01*
X219765812Y-95910118D01*
X219729502Y-95790420D01*
X219670537Y-95680106D01*
X219591185Y-95583415D01*
X219494494Y-95504063D01*
X219384180Y-95445098D01*
X219264482Y-95408788D01*
X219140000Y-95396528D01*
X217325750Y-95399600D01*
X217167000Y-95558350D01*
X216913000Y-95558350D01*
X216754250Y-95399600D01*
X214940000Y-95396528D01*
X214920200Y-95398478D01*
X214920200Y-94454600D01*
X221673770Y-94454600D01*
X221694642Y-94666513D01*
X221756454Y-94870282D01*
X221856833Y-95058077D01*
X221991919Y-95222681D01*
X222156523Y-95357767D01*
X222344318Y-95458146D01*
X222548087Y-95519958D01*
X222706900Y-95535600D01*
X224013100Y-95535600D01*
X224171913Y-95519958D01*
X224375682Y-95458146D01*
X224563477Y-95357767D01*
X224728081Y-95222681D01*
X224863167Y-95058077D01*
X224963546Y-94870282D01*
X225025358Y-94666513D01*
X225046230Y-94454600D01*
X225025358Y-94242687D01*
X224963546Y-94038918D01*
X224863167Y-93851123D01*
X224728081Y-93686519D01*
X224563477Y-93551433D01*
X224375682Y-93451054D01*
X224171913Y-93389242D01*
X224013100Y-93373600D01*
X222706900Y-93373600D01*
X222548087Y-93389242D01*
X222344318Y-93451054D01*
X222156523Y-93551433D01*
X221991919Y-93686519D01*
X221856833Y-93851123D01*
X221756454Y-94038918D01*
X221694642Y-94242687D01*
X221673770Y-94454600D01*
X214920200Y-94454600D01*
X214920200Y-89515034D01*
X219349876Y-89515034D01*
X219380856Y-89642955D01*
X219509990Y-89937361D01*
X219694078Y-90200917D01*
X219926046Y-90423495D01*
X220196980Y-90596542D01*
X220496468Y-90713407D01*
X220813000Y-90769600D01*
X222113000Y-90769600D01*
X222113000Y-89261600D01*
X222367000Y-89261600D01*
X222367000Y-90769600D01*
X223667000Y-90769600D01*
X223983532Y-90713407D01*
X224283020Y-90596542D01*
X224507297Y-90453295D01*
X272714500Y-90453295D01*
X272714500Y-90615905D01*
X272746224Y-90775389D01*
X272808452Y-90925621D01*
X272841501Y-90975083D01*
X272841500Y-103094119D01*
X272808452Y-103143579D01*
X272746224Y-103293811D01*
X272714500Y-103453295D01*
X272714500Y-103615905D01*
X272746224Y-103775389D01*
X272808452Y-103925621D01*
X272898792Y-104060825D01*
X273013775Y-104175808D01*
X273148979Y-104266148D01*
X273299211Y-104328376D01*
X273458695Y-104360100D01*
X273621305Y-104360100D01*
X273780789Y-104328376D01*
X273931021Y-104266148D01*
X274066225Y-104175808D01*
X274181208Y-104060825D01*
X274271548Y-103925621D01*
X274333776Y-103775389D01*
X274365500Y-103615905D01*
X274365500Y-103453295D01*
X274333776Y-103293811D01*
X274271548Y-103143579D01*
X274238500Y-103094119D01*
X274238500Y-103034600D01*
X289301928Y-103034600D01*
X289314188Y-103159082D01*
X289350498Y-103278780D01*
X289409463Y-103389094D01*
X289488815Y-103485785D01*
X289585506Y-103565137D01*
X289695820Y-103624102D01*
X289815518Y-103660412D01*
X289940000Y-103672672D01*
X291754250Y-103669600D01*
X291913000Y-103510850D01*
X291913000Y-102486600D01*
X289463750Y-102486600D01*
X289305000Y-102645350D01*
X289301928Y-103034600D01*
X274238500Y-103034600D01*
X274238500Y-101684600D01*
X289301928Y-101684600D01*
X289305000Y-102073850D01*
X289463750Y-102232600D01*
X291913000Y-102232600D01*
X291913000Y-101208350D01*
X291754250Y-101049600D01*
X289940000Y-101046528D01*
X289815518Y-101058788D01*
X289695820Y-101095098D01*
X289585506Y-101154063D01*
X289488815Y-101233415D01*
X289409463Y-101330106D01*
X289350498Y-101440420D01*
X289314188Y-101560118D01*
X289301928Y-101684600D01*
X274238500Y-101684600D01*
X274238500Y-99419523D01*
X279871600Y-99419523D01*
X279871600Y-99649677D01*
X279916501Y-99875410D01*
X280004578Y-100088045D01*
X280132445Y-100279411D01*
X280295189Y-100442155D01*
X280486555Y-100570022D01*
X280699190Y-100658099D01*
X280924923Y-100703000D01*
X281155077Y-100703000D01*
X281380810Y-100658099D01*
X281593445Y-100570022D01*
X281622512Y-100550600D01*
X288589902Y-100550600D01*
X288739171Y-100535898D01*
X288930687Y-100477802D01*
X289107190Y-100383460D01*
X289261896Y-100256496D01*
X289388860Y-100101790D01*
X289483202Y-99925287D01*
X289541298Y-99733771D01*
X289560915Y-99534600D01*
X289541298Y-99335429D01*
X289483202Y-99143913D01*
X289388860Y-98967410D01*
X289261896Y-98812704D01*
X289107190Y-98685740D01*
X288930687Y-98591398D01*
X288739171Y-98533302D01*
X288589902Y-98518600D01*
X281622512Y-98518600D01*
X281593445Y-98499178D01*
X281396966Y-98417793D01*
X281665196Y-98322337D01*
X281796633Y-98252081D01*
X281871304Y-98005509D01*
X281040000Y-97174205D01*
X280208696Y-98005509D01*
X280283367Y-98252081D01*
X280543228Y-98375531D01*
X280693518Y-98413450D01*
X280486555Y-98499178D01*
X280295189Y-98627045D01*
X280132445Y-98789789D01*
X280004578Y-98981155D01*
X279916501Y-99193790D01*
X279871600Y-99419523D01*
X274238500Y-99419523D01*
X274238500Y-97418282D01*
X275859000Y-97418282D01*
X275859000Y-97650918D01*
X275904386Y-97879085D01*
X275993412Y-98094013D01*
X276122658Y-98287443D01*
X276287157Y-98451942D01*
X276480587Y-98581188D01*
X276695515Y-98670214D01*
X276923682Y-98715600D01*
X277156318Y-98715600D01*
X277384485Y-98670214D01*
X277599413Y-98581188D01*
X277792843Y-98451942D01*
X277957342Y-98287443D01*
X278086588Y-98094013D01*
X278175614Y-97879085D01*
X278221000Y-97650918D01*
X278221000Y-97418282D01*
X278175614Y-97190115D01*
X278123418Y-97064102D01*
X279574079Y-97064102D01*
X279615806Y-97348754D01*
X279712263Y-97619796D01*
X279782519Y-97751233D01*
X280029091Y-97825904D01*
X280860395Y-96994600D01*
X281219605Y-96994600D01*
X282050909Y-97825904D01*
X282297481Y-97751233D01*
X282420931Y-97491372D01*
X282447870Y-97384600D01*
X289301928Y-97384600D01*
X289314188Y-97509082D01*
X289350498Y-97628780D01*
X289409463Y-97739094D01*
X289488815Y-97835785D01*
X289585506Y-97915137D01*
X289695820Y-97974102D01*
X289815518Y-98010412D01*
X289940000Y-98022672D01*
X291754250Y-98019600D01*
X291913000Y-97860850D01*
X291913000Y-96836600D01*
X289463750Y-96836600D01*
X289305000Y-96995350D01*
X289301928Y-97384600D01*
X282447870Y-97384600D01*
X282491313Y-97212420D01*
X282505921Y-96925098D01*
X282464194Y-96640446D01*
X282367737Y-96369404D01*
X282297481Y-96237967D01*
X282050909Y-96163296D01*
X281219605Y-96994600D01*
X280860395Y-96994600D01*
X280029091Y-96163296D01*
X279782519Y-96237967D01*
X279659069Y-96497828D01*
X279588687Y-96776780D01*
X279574079Y-97064102D01*
X278123418Y-97064102D01*
X278086588Y-96975187D01*
X277957342Y-96781757D01*
X277792843Y-96617258D01*
X277599413Y-96488012D01*
X277384485Y-96398986D01*
X277156318Y-96353600D01*
X276923682Y-96353600D01*
X276695515Y-96398986D01*
X276480587Y-96488012D01*
X276287157Y-96617258D01*
X276122658Y-96781757D01*
X275993412Y-96975187D01*
X275904386Y-97190115D01*
X275859000Y-97418282D01*
X274238500Y-97418282D01*
X274238500Y-95983691D01*
X280208696Y-95983691D01*
X281040000Y-96814995D01*
X281820395Y-96034600D01*
X289301928Y-96034600D01*
X289305000Y-96423850D01*
X289463750Y-96582600D01*
X291913000Y-96582600D01*
X291913000Y-95558350D01*
X291754250Y-95399600D01*
X289940000Y-95396528D01*
X289815518Y-95408788D01*
X289695820Y-95445098D01*
X289585506Y-95504063D01*
X289488815Y-95583415D01*
X289409463Y-95680106D01*
X289350498Y-95790420D01*
X289314188Y-95910118D01*
X289301928Y-96034600D01*
X281820395Y-96034600D01*
X281871304Y-95983691D01*
X281796633Y-95737119D01*
X281536772Y-95613669D01*
X281257820Y-95543287D01*
X280970498Y-95528679D01*
X280685846Y-95570406D01*
X280414804Y-95666863D01*
X280283367Y-95737119D01*
X280208696Y-95983691D01*
X274238500Y-95983691D01*
X274238500Y-94454600D01*
X284033770Y-94454600D01*
X284054642Y-94666513D01*
X284116454Y-94870282D01*
X284216833Y-95058077D01*
X284351919Y-95222681D01*
X284516523Y-95357767D01*
X284704318Y-95458146D01*
X284908087Y-95519958D01*
X285066900Y-95535600D01*
X286373100Y-95535600D01*
X286531913Y-95519958D01*
X286735682Y-95458146D01*
X286923477Y-95357767D01*
X287088081Y-95222681D01*
X287223167Y-95058077D01*
X287323546Y-94870282D01*
X287385358Y-94666513D01*
X287406230Y-94454600D01*
X287385358Y-94242687D01*
X287323546Y-94038918D01*
X287223167Y-93851123D01*
X287088081Y-93686519D01*
X286923477Y-93551433D01*
X286735682Y-93451054D01*
X286531913Y-93389242D01*
X286373100Y-93373600D01*
X285066900Y-93373600D01*
X284908087Y-93389242D01*
X284704318Y-93451054D01*
X284516523Y-93551433D01*
X284351919Y-93686519D01*
X284216833Y-93851123D01*
X284116454Y-94038918D01*
X284054642Y-94242687D01*
X284033770Y-94454600D01*
X274238500Y-94454600D01*
X274238500Y-90975081D01*
X274271548Y-90925621D01*
X274333776Y-90775389D01*
X274365500Y-90615905D01*
X274365500Y-90453295D01*
X274333776Y-90293811D01*
X274271548Y-90143579D01*
X274181208Y-90008375D01*
X274066225Y-89893392D01*
X273931021Y-89803052D01*
X273780789Y-89740824D01*
X273621305Y-89709100D01*
X273458695Y-89709100D01*
X273299211Y-89740824D01*
X273148979Y-89803052D01*
X273013775Y-89893392D01*
X272898792Y-90008375D01*
X272808452Y-90143579D01*
X272746224Y-90293811D01*
X272714500Y-90453295D01*
X224507297Y-90453295D01*
X224553954Y-90423495D01*
X224785922Y-90200917D01*
X224970010Y-89937361D01*
X225099144Y-89642955D01*
X225130124Y-89515034D01*
X225010777Y-89261600D01*
X222367000Y-89261600D01*
X222113000Y-89261600D01*
X219469223Y-89261600D01*
X219349876Y-89515034D01*
X214920200Y-89515034D01*
X214920200Y-88754166D01*
X219349876Y-88754166D01*
X219469223Y-89007600D01*
X222113000Y-89007600D01*
X222113000Y-87499600D01*
X222367000Y-87499600D01*
X222367000Y-89007600D01*
X225010777Y-89007600D01*
X225130124Y-88754166D01*
X225099144Y-88626245D01*
X224970010Y-88331839D01*
X224785922Y-88068283D01*
X224553954Y-87845705D01*
X224283020Y-87672658D01*
X223983532Y-87555793D01*
X223667000Y-87499600D01*
X222367000Y-87499600D01*
X222113000Y-87499600D01*
X220813000Y-87499600D01*
X220496468Y-87555793D01*
X220196980Y-87672658D01*
X219926046Y-87845705D01*
X219694078Y-88068283D01*
X219509990Y-88331839D01*
X219380856Y-88626245D01*
X219349876Y-88754166D01*
X214920200Y-88754166D01*
X214920200Y-84661600D01*
X217405000Y-84661600D01*
X217405000Y-85961600D01*
X217461193Y-86278132D01*
X217578058Y-86577620D01*
X217751105Y-86848554D01*
X217973683Y-87080522D01*
X218237239Y-87264610D01*
X218531645Y-87393744D01*
X218659566Y-87424724D01*
X218913000Y-87305377D01*
X218913000Y-84661600D01*
X219167000Y-84661600D01*
X219167000Y-87305377D01*
X219420434Y-87424724D01*
X219548355Y-87393744D01*
X219842761Y-87264610D01*
X220106317Y-87080522D01*
X220328895Y-86848554D01*
X220501942Y-86577620D01*
X220618807Y-86278132D01*
X220675000Y-85961600D01*
X220675000Y-84661600D01*
X219167000Y-84661600D01*
X218913000Y-84661600D01*
X217405000Y-84661600D01*
X214920200Y-84661600D01*
X214920200Y-83107600D01*
X217405000Y-83107600D01*
X217405000Y-84407600D01*
X218913000Y-84407600D01*
X218913000Y-81763823D01*
X219167000Y-81763823D01*
X219167000Y-84407600D01*
X220675000Y-84407600D01*
X220675000Y-83166758D01*
X223759000Y-83166758D01*
X223759001Y-85902443D01*
X223778983Y-86105323D01*
X223857950Y-86365643D01*
X223986186Y-86605555D01*
X224158762Y-86815839D01*
X224369046Y-86988415D01*
X224608958Y-87116651D01*
X224869278Y-87195618D01*
X225140000Y-87222282D01*
X225410723Y-87195618D01*
X225671043Y-87116651D01*
X225910955Y-86988415D01*
X226121239Y-86815839D01*
X226293815Y-86605555D01*
X226422051Y-86365643D01*
X226501018Y-86105323D01*
X226521000Y-85902443D01*
X226521000Y-83166757D01*
X226501018Y-82963877D01*
X226422051Y-82703557D01*
X226293815Y-82463645D01*
X226121238Y-82253361D01*
X225910954Y-82080785D01*
X225671042Y-81952549D01*
X225410722Y-81873582D01*
X225140000Y-81846918D01*
X224869277Y-81873582D01*
X224608957Y-81952549D01*
X224369045Y-82080785D01*
X224158761Y-82253362D01*
X223986185Y-82463646D01*
X223857949Y-82703558D01*
X223778982Y-82963878D01*
X223759000Y-83166758D01*
X220675000Y-83166758D01*
X220675000Y-83107600D01*
X220618807Y-82791068D01*
X220501942Y-82491580D01*
X220328895Y-82220646D01*
X220106317Y-81988678D01*
X219842761Y-81804590D01*
X219548355Y-81675456D01*
X219420434Y-81644476D01*
X219167000Y-81763823D01*
X218913000Y-81763823D01*
X218659566Y-81644476D01*
X218531645Y-81675456D01*
X218237239Y-81804590D01*
X217973683Y-81988678D01*
X217751105Y-82220646D01*
X217578058Y-82491580D01*
X217461193Y-82791068D01*
X217405000Y-83107600D01*
X214920200Y-83107600D01*
X214920200Y-77515034D01*
X219349876Y-77515034D01*
X219380856Y-77642955D01*
X219509990Y-77937361D01*
X219694078Y-78200917D01*
X219926046Y-78423495D01*
X220196980Y-78596542D01*
X220496468Y-78713407D01*
X220813000Y-78769600D01*
X222113000Y-78769600D01*
X222113000Y-77261600D01*
X222367000Y-77261600D01*
X222367000Y-78769600D01*
X223667000Y-78769600D01*
X223983532Y-78713407D01*
X224283020Y-78596542D01*
X224553954Y-78423495D01*
X224785922Y-78200917D01*
X224970010Y-77937361D01*
X225099144Y-77642955D01*
X225130124Y-77515034D01*
X225010777Y-77261600D01*
X222367000Y-77261600D01*
X222113000Y-77261600D01*
X219469223Y-77261600D01*
X219349876Y-77515034D01*
X214920200Y-77515034D01*
X214920200Y-76754166D01*
X219349876Y-76754166D01*
X219469223Y-77007600D01*
X222113000Y-77007600D01*
X222113000Y-75499600D01*
X222367000Y-75499600D01*
X222367000Y-77007600D01*
X225010777Y-77007600D01*
X225130124Y-76754166D01*
X225099144Y-76626245D01*
X224970010Y-76331839D01*
X224785922Y-76068283D01*
X224553954Y-75845705D01*
X224283020Y-75672658D01*
X223983532Y-75555793D01*
X223667000Y-75499600D01*
X222367000Y-75499600D01*
X222113000Y-75499600D01*
X220813000Y-75499600D01*
X220496468Y-75555793D01*
X220196980Y-75672658D01*
X219926046Y-75845705D01*
X219694078Y-76068283D01*
X219509990Y-76331839D01*
X219380856Y-76626245D01*
X219349876Y-76754166D01*
X214920200Y-76754166D01*
X214920200Y-72661600D01*
X217405000Y-72661600D01*
X217405000Y-73961600D01*
X217461193Y-74278132D01*
X217578058Y-74577620D01*
X217751105Y-74848554D01*
X217973683Y-75080522D01*
X218237239Y-75264610D01*
X218531645Y-75393744D01*
X218659566Y-75424724D01*
X218913000Y-75305377D01*
X218913000Y-72661600D01*
X219167000Y-72661600D01*
X219167000Y-75305377D01*
X219420434Y-75424724D01*
X219548355Y-75393744D01*
X219842761Y-75264610D01*
X220106317Y-75080522D01*
X220328895Y-74848554D01*
X220501942Y-74577620D01*
X220618807Y-74278132D01*
X220675000Y-73961600D01*
X220675000Y-72661600D01*
X219167000Y-72661600D01*
X218913000Y-72661600D01*
X217405000Y-72661600D01*
X214920200Y-72661600D01*
X214920200Y-71107600D01*
X217405000Y-71107600D01*
X217405000Y-72407600D01*
X218913000Y-72407600D01*
X218913000Y-69763823D01*
X219167000Y-69763823D01*
X219167000Y-72407600D01*
X220675000Y-72407600D01*
X220675000Y-71166758D01*
X223759000Y-71166758D01*
X223759001Y-73902443D01*
X223778983Y-74105323D01*
X223857950Y-74365643D01*
X223986186Y-74605555D01*
X224158762Y-74815839D01*
X224369046Y-74988415D01*
X224608958Y-75116651D01*
X224869278Y-75195618D01*
X225140000Y-75222282D01*
X225410723Y-75195618D01*
X225671043Y-75116651D01*
X225910955Y-74988415D01*
X226121239Y-74815839D01*
X226293815Y-74605555D01*
X226422051Y-74365643D01*
X226501018Y-74105323D01*
X226521000Y-73902443D01*
X226521000Y-71166757D01*
X226501018Y-70963877D01*
X226422051Y-70703557D01*
X226293815Y-70463645D01*
X226121238Y-70253361D01*
X225910954Y-70080785D01*
X225671042Y-69952549D01*
X225410722Y-69873582D01*
X225140000Y-69846918D01*
X224869277Y-69873582D01*
X224608957Y-69952549D01*
X224369045Y-70080785D01*
X224158761Y-70253362D01*
X223986185Y-70463646D01*
X223857949Y-70703558D01*
X223778982Y-70963878D01*
X223759000Y-71166758D01*
X220675000Y-71166758D01*
X220675000Y-71107600D01*
X220618807Y-70791068D01*
X220501942Y-70491580D01*
X220328895Y-70220646D01*
X220106317Y-69988678D01*
X219842761Y-69804590D01*
X219548355Y-69675456D01*
X219420434Y-69644476D01*
X219167000Y-69763823D01*
X218913000Y-69763823D01*
X218659566Y-69644476D01*
X218531645Y-69675456D01*
X218237239Y-69804590D01*
X217973683Y-69988678D01*
X217751105Y-70220646D01*
X217578058Y-70491580D01*
X217461193Y-70791068D01*
X217405000Y-71107600D01*
X214920200Y-71107600D01*
X214920200Y-65414800D01*
X294159800Y-65414800D01*
X294159801Y-95398478D01*
%TA.AperFunction,Conductor*%
D22*
G36*
X294159801Y-95398478D02*
G01*
X294140000Y-95396528D01*
X292325750Y-95399600D01*
X292167000Y-95558350D01*
X292167000Y-96582600D01*
X292187000Y-96582600D01*
X292187000Y-96836600D01*
X292167000Y-96836600D01*
X292167000Y-97860850D01*
X292325750Y-98019600D01*
X294140000Y-98022672D01*
X294159801Y-98020722D01*
X294159801Y-101048478D01*
X294140000Y-101046528D01*
X292325750Y-101049600D01*
X292167000Y-101208350D01*
X292167000Y-102232600D01*
X292187000Y-102232600D01*
X292187000Y-102486600D01*
X292167000Y-102486600D01*
X292167000Y-103510850D01*
X292325750Y-103669600D01*
X294140000Y-103672672D01*
X294159801Y-103670722D01*
X294159801Y-111154400D01*
X214920200Y-111154400D01*
X214920200Y-104614600D01*
X221673770Y-104614600D01*
X221694642Y-104826513D01*
X221756454Y-105030282D01*
X221856833Y-105218077D01*
X221991919Y-105382681D01*
X222156523Y-105517767D01*
X222344318Y-105618146D01*
X222548087Y-105679958D01*
X222706900Y-105695600D01*
X224013100Y-105695600D01*
X224171913Y-105679958D01*
X224375682Y-105618146D01*
X224563477Y-105517767D01*
X224728081Y-105382681D01*
X224863167Y-105218077D01*
X224963546Y-105030282D01*
X225025358Y-104826513D01*
X225046230Y-104614600D01*
X284033770Y-104614600D01*
X284054642Y-104826513D01*
X284116454Y-105030282D01*
X284216833Y-105218077D01*
X284351919Y-105382681D01*
X284516523Y-105517767D01*
X284704318Y-105618146D01*
X284908087Y-105679958D01*
X285066900Y-105695600D01*
X286373100Y-105695600D01*
X286531913Y-105679958D01*
X286735682Y-105618146D01*
X286923477Y-105517767D01*
X287088081Y-105382681D01*
X287223167Y-105218077D01*
X287323546Y-105030282D01*
X287385358Y-104826513D01*
X287406230Y-104614600D01*
X287385358Y-104402687D01*
X287323546Y-104198918D01*
X287223167Y-104011123D01*
X287088081Y-103846519D01*
X286923477Y-103711433D01*
X286735682Y-103611054D01*
X286531913Y-103549242D01*
X286373100Y-103533600D01*
X285066900Y-103533600D01*
X284908087Y-103549242D01*
X284704318Y-103611054D01*
X284516523Y-103711433D01*
X284351919Y-103846519D01*
X284216833Y-104011123D01*
X284116454Y-104198918D01*
X284054642Y-104402687D01*
X284033770Y-104614600D01*
X225046230Y-104614600D01*
X225025358Y-104402687D01*
X224963546Y-104198918D01*
X224863167Y-104011123D01*
X224728081Y-103846519D01*
X224563477Y-103711433D01*
X224375682Y-103611054D01*
X224171913Y-103549242D01*
X224013100Y-103533600D01*
X222706900Y-103533600D01*
X222548087Y-103549242D01*
X222344318Y-103611054D01*
X222156523Y-103711433D01*
X221991919Y-103846519D01*
X221856833Y-104011123D01*
X221756454Y-104198918D01*
X221694642Y-104402687D01*
X221673770Y-104614600D01*
X214920200Y-104614600D01*
X214920200Y-103670722D01*
X214940000Y-103672672D01*
X216754250Y-103669600D01*
X216913000Y-103510850D01*
X216913000Y-102486600D01*
X217167000Y-102486600D01*
X217167000Y-103510850D01*
X217325750Y-103669600D01*
X219140000Y-103672672D01*
X219264482Y-103660412D01*
X219384180Y-103624102D01*
X219494494Y-103565137D01*
X219591185Y-103485785D01*
X219670537Y-103389094D01*
X219729502Y-103278780D01*
X219765812Y-103159082D01*
X219773058Y-103085509D01*
X227208696Y-103085509D01*
X227283367Y-103332081D01*
X227543228Y-103455531D01*
X227822180Y-103525913D01*
X228109502Y-103540521D01*
X228394154Y-103498794D01*
X228665196Y-103402337D01*
X228796633Y-103332081D01*
X228871304Y-103085509D01*
X228040000Y-102254205D01*
X227208696Y-103085509D01*
X219773058Y-103085509D01*
X219778072Y-103034600D01*
X219775000Y-102645350D01*
X219616250Y-102486600D01*
X217167000Y-102486600D01*
X216913000Y-102486600D01*
X216893000Y-102486600D01*
X216893000Y-102232600D01*
X216913000Y-102232600D01*
X216913000Y-101208350D01*
X217167000Y-101208350D01*
X217167000Y-102232600D01*
X219616250Y-102232600D01*
X219704748Y-102144102D01*
X226574079Y-102144102D01*
X226615806Y-102428754D01*
X226712263Y-102699796D01*
X226782519Y-102831233D01*
X227029091Y-102905904D01*
X227860395Y-102074600D01*
X228219605Y-102074600D01*
X229050909Y-102905904D01*
X229297481Y-102831233D01*
X229420931Y-102571372D01*
X229491313Y-102292420D01*
X229505921Y-102005098D01*
X229464194Y-101720446D01*
X229369122Y-101453295D01*
X239714500Y-101453295D01*
X239714500Y-101615905D01*
X239746224Y-101775389D01*
X239808452Y-101925621D01*
X239898792Y-102060825D01*
X240013775Y-102175808D01*
X240148979Y-102266148D01*
X240299211Y-102328376D01*
X240458695Y-102360100D01*
X240621305Y-102360100D01*
X240780789Y-102328376D01*
X240931021Y-102266148D01*
X240980481Y-102233100D01*
X260099519Y-102233100D01*
X260148979Y-102266148D01*
X260299211Y-102328376D01*
X260458695Y-102360100D01*
X260621305Y-102360100D01*
X260780789Y-102328376D01*
X260931021Y-102266148D01*
X261066225Y-102175808D01*
X261181208Y-102060825D01*
X261271548Y-101925621D01*
X261333776Y-101775389D01*
X261365500Y-101615905D01*
X261365500Y-101453295D01*
X261333776Y-101293811D01*
X261271548Y-101143579D01*
X261181208Y-101008375D01*
X261066225Y-100893392D01*
X260931021Y-100803052D01*
X260780789Y-100740824D01*
X260621305Y-100709100D01*
X260458695Y-100709100D01*
X260299211Y-100740824D01*
X260148979Y-100803052D01*
X260099519Y-100836100D01*
X240980481Y-100836100D01*
X240931021Y-100803052D01*
X240780789Y-100740824D01*
X240621305Y-100709100D01*
X240458695Y-100709100D01*
X240299211Y-100740824D01*
X240148979Y-100803052D01*
X240013775Y-100893392D01*
X239898792Y-101008375D01*
X239808452Y-101143579D01*
X239746224Y-101293811D01*
X239714500Y-101453295D01*
X229369122Y-101453295D01*
X229367737Y-101449404D01*
X229297481Y-101317967D01*
X229050909Y-101243296D01*
X228219605Y-102074600D01*
X227860395Y-102074600D01*
X227029091Y-101243296D01*
X226782519Y-101317967D01*
X226659069Y-101577828D01*
X226588687Y-101856780D01*
X226574079Y-102144102D01*
X219704748Y-102144102D01*
X219775000Y-102073850D01*
X219778072Y-101684600D01*
X219765812Y-101560118D01*
X219729502Y-101440420D01*
X219670537Y-101330106D01*
X219591185Y-101233415D01*
X219494494Y-101154063D01*
X219384180Y-101095098D01*
X219264482Y-101058788D01*
X219140000Y-101046528D01*
X217325750Y-101049600D01*
X217167000Y-101208350D01*
X216913000Y-101208350D01*
X216754250Y-101049600D01*
X214940000Y-101046528D01*
X214920200Y-101048478D01*
X214920200Y-99534600D01*
X222519085Y-99534600D01*
X222538702Y-99733771D01*
X222596798Y-99925287D01*
X222691140Y-100101790D01*
X222818104Y-100256496D01*
X222972810Y-100383460D01*
X223149313Y-100477802D01*
X223340829Y-100535898D01*
X223490098Y-100550600D01*
X227457488Y-100550600D01*
X227486555Y-100570022D01*
X227683034Y-100651407D01*
X227414804Y-100746863D01*
X227283367Y-100817119D01*
X227208696Y-101063691D01*
X228040000Y-101894995D01*
X228871304Y-101063691D01*
X228796633Y-100817119D01*
X228536772Y-100693669D01*
X228386482Y-100655750D01*
X228593445Y-100570022D01*
X228784811Y-100442155D01*
X228947555Y-100279411D01*
X229075422Y-100088045D01*
X229163499Y-99875410D01*
X229208400Y-99649677D01*
X229208400Y-99419523D01*
X229163499Y-99193790D01*
X229075422Y-98981155D01*
X228947555Y-98789789D01*
X228784811Y-98627045D01*
X228593445Y-98499178D01*
X228380810Y-98411101D01*
X228155077Y-98366200D01*
X227924923Y-98366200D01*
X227699190Y-98411101D01*
X227486555Y-98499178D01*
X227457488Y-98518600D01*
X223490098Y-98518600D01*
X223340829Y-98533302D01*
X223149313Y-98591398D01*
X222972810Y-98685740D01*
X222818104Y-98812704D01*
X222691140Y-98967410D01*
X222596798Y-99143913D01*
X222538702Y-99335429D01*
X222519085Y-99534600D01*
X214920200Y-99534600D01*
X214920200Y-98020722D01*
X214940000Y-98022672D01*
X216754250Y-98019600D01*
X216913000Y-97860850D01*
X216913000Y-96836600D01*
X217167000Y-96836600D01*
X217167000Y-97860850D01*
X217325750Y-98019600D01*
X219140000Y-98022672D01*
X219264482Y-98010412D01*
X219384180Y-97974102D01*
X219494494Y-97915137D01*
X219591185Y-97835785D01*
X219670537Y-97739094D01*
X219729502Y-97628780D01*
X219765812Y-97509082D01*
X219778072Y-97384600D01*
X219775000Y-96995350D01*
X219616250Y-96836600D01*
X217167000Y-96836600D01*
X216913000Y-96836600D01*
X216893000Y-96836600D01*
X216893000Y-96582600D01*
X216913000Y-96582600D01*
X216913000Y-95558350D01*
X217167000Y-95558350D01*
X217167000Y-96582600D01*
X219616250Y-96582600D01*
X219775000Y-96423850D01*
X219778072Y-96034600D01*
X219766617Y-95918282D01*
X234859000Y-95918282D01*
X234859000Y-96150918D01*
X234904386Y-96379085D01*
X234993412Y-96594013D01*
X235122658Y-96787443D01*
X235287157Y-96951942D01*
X235480587Y-97081188D01*
X235695515Y-97170214D01*
X235923682Y-97215600D01*
X236156318Y-97215600D01*
X236384485Y-97170214D01*
X236599413Y-97081188D01*
X236792843Y-96951942D01*
X236957342Y-96787443D01*
X237086588Y-96594013D01*
X237173727Y-96383639D01*
X244808096Y-96383639D01*
X244848754Y-96517687D01*
X244968963Y-96772020D01*
X245136481Y-96998014D01*
X245344869Y-97186985D01*
X245586119Y-97331670D01*
X245850960Y-97426509D01*
X246073000Y-97305224D01*
X246073000Y-96161600D01*
X246327000Y-96161600D01*
X246327000Y-97305224D01*
X246549040Y-97426509D01*
X246813881Y-97331670D01*
X247055131Y-97186985D01*
X247263519Y-96998014D01*
X247431037Y-96772020D01*
X247551246Y-96517687D01*
X247591904Y-96383639D01*
X247469915Y-96161600D01*
X246327000Y-96161600D01*
X246073000Y-96161600D01*
X244930085Y-96161600D01*
X244808096Y-96383639D01*
X237173727Y-96383639D01*
X237175614Y-96379085D01*
X237221000Y-96150918D01*
X237221000Y-96109600D01*
X263338122Y-96109600D01*
X263341501Y-96143908D01*
X263341500Y-100000302D01*
X263338122Y-100034600D01*
X263341500Y-100068898D01*
X263341500Y-100068908D01*
X263351607Y-100171529D01*
X263377382Y-100256496D01*
X263391549Y-100303198D01*
X263456409Y-100424543D01*
X263521826Y-100504253D01*
X263521829Y-100504256D01*
X263543697Y-100530902D01*
X263570344Y-100552771D01*
X264734619Y-101717046D01*
X264746224Y-101775389D01*
X264808452Y-101925621D01*
X264898792Y-102060825D01*
X265013775Y-102175808D01*
X265148979Y-102266148D01*
X265299211Y-102328376D01*
X265458695Y-102360100D01*
X265621305Y-102360100D01*
X265780789Y-102328376D01*
X265931021Y-102266148D01*
X266066225Y-102175808D01*
X266181208Y-102060825D01*
X266271548Y-101925621D01*
X266333776Y-101775389D01*
X266365500Y-101615905D01*
X266365500Y-101453295D01*
X266333776Y-101293811D01*
X266271548Y-101143579D01*
X266181208Y-101008375D01*
X266066225Y-100893392D01*
X265931021Y-100803052D01*
X265780789Y-100740824D01*
X265722446Y-100729219D01*
X264738500Y-99745273D01*
X264738500Y-97883639D01*
X265488096Y-97883639D01*
X265528754Y-98017687D01*
X265648963Y-98272020D01*
X265816481Y-98498014D01*
X266024869Y-98686985D01*
X266266119Y-98831670D01*
X266530960Y-98926509D01*
X266753000Y-98805224D01*
X266753000Y-97661600D01*
X267007000Y-97661600D01*
X267007000Y-98805224D01*
X267229040Y-98926509D01*
X267493881Y-98831670D01*
X267735131Y-98686985D01*
X267943519Y-98498014D01*
X268111037Y-98272020D01*
X268231246Y-98017687D01*
X268271904Y-97883639D01*
X268149915Y-97661600D01*
X267007000Y-97661600D01*
X266753000Y-97661600D01*
X265610085Y-97661600D01*
X265488096Y-97883639D01*
X264738500Y-97883639D01*
X264738500Y-97185561D01*
X265488096Y-97185561D01*
X265610085Y-97407600D01*
X266753000Y-97407600D01*
X266753000Y-96263976D01*
X267007000Y-96263976D01*
X267007000Y-97407600D01*
X268149915Y-97407600D01*
X268271904Y-97185561D01*
X268231246Y-97051513D01*
X268111037Y-96797180D01*
X267943519Y-96571186D01*
X267735131Y-96382215D01*
X267493881Y-96237530D01*
X267229040Y-96142691D01*
X267007000Y-96263976D01*
X266753000Y-96263976D01*
X266530960Y-96142691D01*
X266266119Y-96237530D01*
X266024869Y-96382215D01*
X265816481Y-96571186D01*
X265648963Y-96797180D01*
X265528754Y-97051513D01*
X265488096Y-97185561D01*
X264738500Y-97185561D01*
X264738500Y-96398927D01*
X267259947Y-93877481D01*
X267318289Y-93865876D01*
X267468521Y-93803648D01*
X267603725Y-93713308D01*
X267718708Y-93598325D01*
X267809048Y-93463121D01*
X267871276Y-93312889D01*
X267903000Y-93153405D01*
X267903000Y-92990795D01*
X267871276Y-92831311D01*
X267809048Y-92681079D01*
X267718708Y-92545875D01*
X267603725Y-92430892D01*
X267468521Y-92340552D01*
X267318289Y-92278324D01*
X267158805Y-92246600D01*
X266996195Y-92246600D01*
X266836711Y-92278324D01*
X266686479Y-92340552D01*
X266551275Y-92430892D01*
X266436292Y-92545875D01*
X266345952Y-92681079D01*
X266283724Y-92831311D01*
X266272119Y-92889653D01*
X263570344Y-95591429D01*
X263543698Y-95613297D01*
X263521830Y-95639943D01*
X263521826Y-95639947D01*
X263456409Y-95719657D01*
X263391549Y-95841002D01*
X263351608Y-95972671D01*
X263338122Y-96109600D01*
X237221000Y-96109600D01*
X237221000Y-95918282D01*
X237175614Y-95690115D01*
X237173728Y-95685561D01*
X244808096Y-95685561D01*
X244930085Y-95907600D01*
X246073000Y-95907600D01*
X246073000Y-94763976D01*
X246327000Y-94763976D01*
X246327000Y-95907600D01*
X247469915Y-95907600D01*
X247591904Y-95685561D01*
X247551246Y-95551513D01*
X247431037Y-95297180D01*
X247263519Y-95071186D01*
X247055131Y-94882215D01*
X246813881Y-94737530D01*
X246549040Y-94642691D01*
X246327000Y-94763976D01*
X246073000Y-94763976D01*
X245850960Y-94642691D01*
X245586119Y-94737530D01*
X245344869Y-94882215D01*
X245136481Y-95071186D01*
X244968963Y-95297180D01*
X244848754Y-95551513D01*
X244808096Y-95685561D01*
X237173728Y-95685561D01*
X237086588Y-95475187D01*
X236957342Y-95281757D01*
X236792843Y-95117258D01*
X236599413Y-94988012D01*
X236384485Y-94898986D01*
X236156318Y-94853600D01*
X235923682Y-94853600D01*
X235695515Y-94898986D01*
X235480587Y-94988012D01*
X235287157Y-95117258D01*
X235122658Y-95281757D01*
X234993412Y-95475187D01*
X234904386Y-95690115D01*
X234859000Y-95918282D01*
X219766617Y-95918282D01*
X219765812Y-95910118D01*
X219729502Y-95790420D01*
X219670537Y-95680106D01*
X219591185Y-95583415D01*
X219494494Y-95504063D01*
X219384180Y-95445098D01*
X219264482Y-95408788D01*
X219140000Y-95396528D01*
X217325750Y-95399600D01*
X217167000Y-95558350D01*
X216913000Y-95558350D01*
X216754250Y-95399600D01*
X214940000Y-95396528D01*
X214920200Y-95398478D01*
X214920200Y-94454600D01*
X221673770Y-94454600D01*
X221694642Y-94666513D01*
X221756454Y-94870282D01*
X221856833Y-95058077D01*
X221991919Y-95222681D01*
X222156523Y-95357767D01*
X222344318Y-95458146D01*
X222548087Y-95519958D01*
X222706900Y-95535600D01*
X224013100Y-95535600D01*
X224171913Y-95519958D01*
X224375682Y-95458146D01*
X224563477Y-95357767D01*
X224728081Y-95222681D01*
X224863167Y-95058077D01*
X224963546Y-94870282D01*
X225025358Y-94666513D01*
X225046230Y-94454600D01*
X225025358Y-94242687D01*
X224963546Y-94038918D01*
X224863167Y-93851123D01*
X224728081Y-93686519D01*
X224563477Y-93551433D01*
X224375682Y-93451054D01*
X224171913Y-93389242D01*
X224013100Y-93373600D01*
X222706900Y-93373600D01*
X222548087Y-93389242D01*
X222344318Y-93451054D01*
X222156523Y-93551433D01*
X221991919Y-93686519D01*
X221856833Y-93851123D01*
X221756454Y-94038918D01*
X221694642Y-94242687D01*
X221673770Y-94454600D01*
X214920200Y-94454600D01*
X214920200Y-89515034D01*
X219349876Y-89515034D01*
X219380856Y-89642955D01*
X219509990Y-89937361D01*
X219694078Y-90200917D01*
X219926046Y-90423495D01*
X220196980Y-90596542D01*
X220496468Y-90713407D01*
X220813000Y-90769600D01*
X222113000Y-90769600D01*
X222113000Y-89261600D01*
X222367000Y-89261600D01*
X222367000Y-90769600D01*
X223667000Y-90769600D01*
X223983532Y-90713407D01*
X224283020Y-90596542D01*
X224507297Y-90453295D01*
X272714500Y-90453295D01*
X272714500Y-90615905D01*
X272746224Y-90775389D01*
X272808452Y-90925621D01*
X272841501Y-90975083D01*
X272841500Y-103094119D01*
X272808452Y-103143579D01*
X272746224Y-103293811D01*
X272714500Y-103453295D01*
X272714500Y-103615905D01*
X272746224Y-103775389D01*
X272808452Y-103925621D01*
X272898792Y-104060825D01*
X273013775Y-104175808D01*
X273148979Y-104266148D01*
X273299211Y-104328376D01*
X273458695Y-104360100D01*
X273621305Y-104360100D01*
X273780789Y-104328376D01*
X273931021Y-104266148D01*
X274066225Y-104175808D01*
X274181208Y-104060825D01*
X274271548Y-103925621D01*
X274333776Y-103775389D01*
X274365500Y-103615905D01*
X274365500Y-103453295D01*
X274333776Y-103293811D01*
X274271548Y-103143579D01*
X274238500Y-103094119D01*
X274238500Y-103034600D01*
X289301928Y-103034600D01*
X289314188Y-103159082D01*
X289350498Y-103278780D01*
X289409463Y-103389094D01*
X289488815Y-103485785D01*
X289585506Y-103565137D01*
X289695820Y-103624102D01*
X289815518Y-103660412D01*
X289940000Y-103672672D01*
X291754250Y-103669600D01*
X291913000Y-103510850D01*
X291913000Y-102486600D01*
X289463750Y-102486600D01*
X289305000Y-102645350D01*
X289301928Y-103034600D01*
X274238500Y-103034600D01*
X274238500Y-101684600D01*
X289301928Y-101684600D01*
X289305000Y-102073850D01*
X289463750Y-102232600D01*
X291913000Y-102232600D01*
X291913000Y-101208350D01*
X291754250Y-101049600D01*
X289940000Y-101046528D01*
X289815518Y-101058788D01*
X289695820Y-101095098D01*
X289585506Y-101154063D01*
X289488815Y-101233415D01*
X289409463Y-101330106D01*
X289350498Y-101440420D01*
X289314188Y-101560118D01*
X289301928Y-101684600D01*
X274238500Y-101684600D01*
X274238500Y-99419523D01*
X279871600Y-99419523D01*
X279871600Y-99649677D01*
X279916501Y-99875410D01*
X280004578Y-100088045D01*
X280132445Y-100279411D01*
X280295189Y-100442155D01*
X280486555Y-100570022D01*
X280699190Y-100658099D01*
X280924923Y-100703000D01*
X281155077Y-100703000D01*
X281380810Y-100658099D01*
X281593445Y-100570022D01*
X281622512Y-100550600D01*
X288589902Y-100550600D01*
X288739171Y-100535898D01*
X288930687Y-100477802D01*
X289107190Y-100383460D01*
X289261896Y-100256496D01*
X289388860Y-100101790D01*
X289483202Y-99925287D01*
X289541298Y-99733771D01*
X289560915Y-99534600D01*
X289541298Y-99335429D01*
X289483202Y-99143913D01*
X289388860Y-98967410D01*
X289261896Y-98812704D01*
X289107190Y-98685740D01*
X288930687Y-98591398D01*
X288739171Y-98533302D01*
X288589902Y-98518600D01*
X281622512Y-98518600D01*
X281593445Y-98499178D01*
X281396966Y-98417793D01*
X281665196Y-98322337D01*
X281796633Y-98252081D01*
X281871304Y-98005509D01*
X281040000Y-97174205D01*
X280208696Y-98005509D01*
X280283367Y-98252081D01*
X280543228Y-98375531D01*
X280693518Y-98413450D01*
X280486555Y-98499178D01*
X280295189Y-98627045D01*
X280132445Y-98789789D01*
X280004578Y-98981155D01*
X279916501Y-99193790D01*
X279871600Y-99419523D01*
X274238500Y-99419523D01*
X274238500Y-97418282D01*
X275859000Y-97418282D01*
X275859000Y-97650918D01*
X275904386Y-97879085D01*
X275993412Y-98094013D01*
X276122658Y-98287443D01*
X276287157Y-98451942D01*
X276480587Y-98581188D01*
X276695515Y-98670214D01*
X276923682Y-98715600D01*
X277156318Y-98715600D01*
X277384485Y-98670214D01*
X277599413Y-98581188D01*
X277792843Y-98451942D01*
X277957342Y-98287443D01*
X278086588Y-98094013D01*
X278175614Y-97879085D01*
X278221000Y-97650918D01*
X278221000Y-97418282D01*
X278175614Y-97190115D01*
X278123418Y-97064102D01*
X279574079Y-97064102D01*
X279615806Y-97348754D01*
X279712263Y-97619796D01*
X279782519Y-97751233D01*
X280029091Y-97825904D01*
X280860395Y-96994600D01*
X281219605Y-96994600D01*
X282050909Y-97825904D01*
X282297481Y-97751233D01*
X282420931Y-97491372D01*
X282447870Y-97384600D01*
X289301928Y-97384600D01*
X289314188Y-97509082D01*
X289350498Y-97628780D01*
X289409463Y-97739094D01*
X289488815Y-97835785D01*
X289585506Y-97915137D01*
X289695820Y-97974102D01*
X289815518Y-98010412D01*
X289940000Y-98022672D01*
X291754250Y-98019600D01*
X291913000Y-97860850D01*
X291913000Y-96836600D01*
X289463750Y-96836600D01*
X289305000Y-96995350D01*
X289301928Y-97384600D01*
X282447870Y-97384600D01*
X282491313Y-97212420D01*
X282505921Y-96925098D01*
X282464194Y-96640446D01*
X282367737Y-96369404D01*
X282297481Y-96237967D01*
X282050909Y-96163296D01*
X281219605Y-96994600D01*
X280860395Y-96994600D01*
X280029091Y-96163296D01*
X279782519Y-96237967D01*
X279659069Y-96497828D01*
X279588687Y-96776780D01*
X279574079Y-97064102D01*
X278123418Y-97064102D01*
X278086588Y-96975187D01*
X277957342Y-96781757D01*
X277792843Y-96617258D01*
X277599413Y-96488012D01*
X277384485Y-96398986D01*
X277156318Y-96353600D01*
X276923682Y-96353600D01*
X276695515Y-96398986D01*
X276480587Y-96488012D01*
X276287157Y-96617258D01*
X276122658Y-96781757D01*
X275993412Y-96975187D01*
X275904386Y-97190115D01*
X275859000Y-97418282D01*
X274238500Y-97418282D01*
X274238500Y-95983691D01*
X280208696Y-95983691D01*
X281040000Y-96814995D01*
X281820395Y-96034600D01*
X289301928Y-96034600D01*
X289305000Y-96423850D01*
X289463750Y-96582600D01*
X291913000Y-96582600D01*
X291913000Y-95558350D01*
X291754250Y-95399600D01*
X289940000Y-95396528D01*
X289815518Y-95408788D01*
X289695820Y-95445098D01*
X289585506Y-95504063D01*
X289488815Y-95583415D01*
X289409463Y-95680106D01*
X289350498Y-95790420D01*
X289314188Y-95910118D01*
X289301928Y-96034600D01*
X281820395Y-96034600D01*
X281871304Y-95983691D01*
X281796633Y-95737119D01*
X281536772Y-95613669D01*
X281257820Y-95543287D01*
X280970498Y-95528679D01*
X280685846Y-95570406D01*
X280414804Y-95666863D01*
X280283367Y-95737119D01*
X280208696Y-95983691D01*
X274238500Y-95983691D01*
X274238500Y-94454600D01*
X284033770Y-94454600D01*
X284054642Y-94666513D01*
X284116454Y-94870282D01*
X284216833Y-95058077D01*
X284351919Y-95222681D01*
X284516523Y-95357767D01*
X284704318Y-95458146D01*
X284908087Y-95519958D01*
X285066900Y-95535600D01*
X286373100Y-95535600D01*
X286531913Y-95519958D01*
X286735682Y-95458146D01*
X286923477Y-95357767D01*
X287088081Y-95222681D01*
X287223167Y-95058077D01*
X287323546Y-94870282D01*
X287385358Y-94666513D01*
X287406230Y-94454600D01*
X287385358Y-94242687D01*
X287323546Y-94038918D01*
X287223167Y-93851123D01*
X287088081Y-93686519D01*
X286923477Y-93551433D01*
X286735682Y-93451054D01*
X286531913Y-93389242D01*
X286373100Y-93373600D01*
X285066900Y-93373600D01*
X284908087Y-93389242D01*
X284704318Y-93451054D01*
X284516523Y-93551433D01*
X284351919Y-93686519D01*
X284216833Y-93851123D01*
X284116454Y-94038918D01*
X284054642Y-94242687D01*
X284033770Y-94454600D01*
X274238500Y-94454600D01*
X274238500Y-90975081D01*
X274271548Y-90925621D01*
X274333776Y-90775389D01*
X274365500Y-90615905D01*
X274365500Y-90453295D01*
X274333776Y-90293811D01*
X274271548Y-90143579D01*
X274181208Y-90008375D01*
X274066225Y-89893392D01*
X273931021Y-89803052D01*
X273780789Y-89740824D01*
X273621305Y-89709100D01*
X273458695Y-89709100D01*
X273299211Y-89740824D01*
X273148979Y-89803052D01*
X273013775Y-89893392D01*
X272898792Y-90008375D01*
X272808452Y-90143579D01*
X272746224Y-90293811D01*
X272714500Y-90453295D01*
X224507297Y-90453295D01*
X224553954Y-90423495D01*
X224785922Y-90200917D01*
X224970010Y-89937361D01*
X225099144Y-89642955D01*
X225130124Y-89515034D01*
X225010777Y-89261600D01*
X222367000Y-89261600D01*
X222113000Y-89261600D01*
X219469223Y-89261600D01*
X219349876Y-89515034D01*
X214920200Y-89515034D01*
X214920200Y-88754166D01*
X219349876Y-88754166D01*
X219469223Y-89007600D01*
X222113000Y-89007600D01*
X222113000Y-87499600D01*
X222367000Y-87499600D01*
X222367000Y-89007600D01*
X225010777Y-89007600D01*
X225130124Y-88754166D01*
X225099144Y-88626245D01*
X224970010Y-88331839D01*
X224785922Y-88068283D01*
X224553954Y-87845705D01*
X224283020Y-87672658D01*
X223983532Y-87555793D01*
X223667000Y-87499600D01*
X222367000Y-87499600D01*
X222113000Y-87499600D01*
X220813000Y-87499600D01*
X220496468Y-87555793D01*
X220196980Y-87672658D01*
X219926046Y-87845705D01*
X219694078Y-88068283D01*
X219509990Y-88331839D01*
X219380856Y-88626245D01*
X219349876Y-88754166D01*
X214920200Y-88754166D01*
X214920200Y-84661600D01*
X217405000Y-84661600D01*
X217405000Y-85961600D01*
X217461193Y-86278132D01*
X217578058Y-86577620D01*
X217751105Y-86848554D01*
X217973683Y-87080522D01*
X218237239Y-87264610D01*
X218531645Y-87393744D01*
X218659566Y-87424724D01*
X218913000Y-87305377D01*
X218913000Y-84661600D01*
X219167000Y-84661600D01*
X219167000Y-87305377D01*
X219420434Y-87424724D01*
X219548355Y-87393744D01*
X219842761Y-87264610D01*
X220106317Y-87080522D01*
X220328895Y-86848554D01*
X220501942Y-86577620D01*
X220618807Y-86278132D01*
X220675000Y-85961600D01*
X220675000Y-84661600D01*
X219167000Y-84661600D01*
X218913000Y-84661600D01*
X217405000Y-84661600D01*
X214920200Y-84661600D01*
X214920200Y-83107600D01*
X217405000Y-83107600D01*
X217405000Y-84407600D01*
X218913000Y-84407600D01*
X218913000Y-81763823D01*
X219167000Y-81763823D01*
X219167000Y-84407600D01*
X220675000Y-84407600D01*
X220675000Y-83166758D01*
X223759000Y-83166758D01*
X223759001Y-85902443D01*
X223778983Y-86105323D01*
X223857950Y-86365643D01*
X223986186Y-86605555D01*
X224158762Y-86815839D01*
X224369046Y-86988415D01*
X224608958Y-87116651D01*
X224869278Y-87195618D01*
X225140000Y-87222282D01*
X225410723Y-87195618D01*
X225671043Y-87116651D01*
X225910955Y-86988415D01*
X226121239Y-86815839D01*
X226293815Y-86605555D01*
X226422051Y-86365643D01*
X226501018Y-86105323D01*
X226521000Y-85902443D01*
X226521000Y-83166757D01*
X226501018Y-82963877D01*
X226422051Y-82703557D01*
X226293815Y-82463645D01*
X226121238Y-82253361D01*
X225910954Y-82080785D01*
X225671042Y-81952549D01*
X225410722Y-81873582D01*
X225140000Y-81846918D01*
X224869277Y-81873582D01*
X224608957Y-81952549D01*
X224369045Y-82080785D01*
X224158761Y-82253362D01*
X223986185Y-82463646D01*
X223857949Y-82703558D01*
X223778982Y-82963878D01*
X223759000Y-83166758D01*
X220675000Y-83166758D01*
X220675000Y-83107600D01*
X220618807Y-82791068D01*
X220501942Y-82491580D01*
X220328895Y-82220646D01*
X220106317Y-81988678D01*
X219842761Y-81804590D01*
X219548355Y-81675456D01*
X219420434Y-81644476D01*
X219167000Y-81763823D01*
X218913000Y-81763823D01*
X218659566Y-81644476D01*
X218531645Y-81675456D01*
X218237239Y-81804590D01*
X217973683Y-81988678D01*
X217751105Y-82220646D01*
X217578058Y-82491580D01*
X217461193Y-82791068D01*
X217405000Y-83107600D01*
X214920200Y-83107600D01*
X214920200Y-77515034D01*
X219349876Y-77515034D01*
X219380856Y-77642955D01*
X219509990Y-77937361D01*
X219694078Y-78200917D01*
X219926046Y-78423495D01*
X220196980Y-78596542D01*
X220496468Y-78713407D01*
X220813000Y-78769600D01*
X222113000Y-78769600D01*
X222113000Y-77261600D01*
X222367000Y-77261600D01*
X222367000Y-78769600D01*
X223667000Y-78769600D01*
X223983532Y-78713407D01*
X224283020Y-78596542D01*
X224553954Y-78423495D01*
X224785922Y-78200917D01*
X224970010Y-77937361D01*
X225099144Y-77642955D01*
X225130124Y-77515034D01*
X225010777Y-77261600D01*
X222367000Y-77261600D01*
X222113000Y-77261600D01*
X219469223Y-77261600D01*
X219349876Y-77515034D01*
X214920200Y-77515034D01*
X214920200Y-76754166D01*
X219349876Y-76754166D01*
X219469223Y-77007600D01*
X222113000Y-77007600D01*
X222113000Y-75499600D01*
X222367000Y-75499600D01*
X222367000Y-77007600D01*
X225010777Y-77007600D01*
X225130124Y-76754166D01*
X225099144Y-76626245D01*
X224970010Y-76331839D01*
X224785922Y-76068283D01*
X224553954Y-75845705D01*
X224283020Y-75672658D01*
X223983532Y-75555793D01*
X223667000Y-75499600D01*
X222367000Y-75499600D01*
X222113000Y-75499600D01*
X220813000Y-75499600D01*
X220496468Y-75555793D01*
X220196980Y-75672658D01*
X219926046Y-75845705D01*
X219694078Y-76068283D01*
X219509990Y-76331839D01*
X219380856Y-76626245D01*
X219349876Y-76754166D01*
X214920200Y-76754166D01*
X214920200Y-72661600D01*
X217405000Y-72661600D01*
X217405000Y-73961600D01*
X217461193Y-74278132D01*
X217578058Y-74577620D01*
X217751105Y-74848554D01*
X217973683Y-75080522D01*
X218237239Y-75264610D01*
X218531645Y-75393744D01*
X218659566Y-75424724D01*
X218913000Y-75305377D01*
X218913000Y-72661600D01*
X219167000Y-72661600D01*
X219167000Y-75305377D01*
X219420434Y-75424724D01*
X219548355Y-75393744D01*
X219842761Y-75264610D01*
X220106317Y-75080522D01*
X220328895Y-74848554D01*
X220501942Y-74577620D01*
X220618807Y-74278132D01*
X220675000Y-73961600D01*
X220675000Y-72661600D01*
X219167000Y-72661600D01*
X218913000Y-72661600D01*
X217405000Y-72661600D01*
X214920200Y-72661600D01*
X214920200Y-71107600D01*
X217405000Y-71107600D01*
X217405000Y-72407600D01*
X218913000Y-72407600D01*
X218913000Y-69763823D01*
X219167000Y-69763823D01*
X219167000Y-72407600D01*
X220675000Y-72407600D01*
X220675000Y-71166758D01*
X223759000Y-71166758D01*
X223759001Y-73902443D01*
X223778983Y-74105323D01*
X223857950Y-74365643D01*
X223986186Y-74605555D01*
X224158762Y-74815839D01*
X224369046Y-74988415D01*
X224608958Y-75116651D01*
X224869278Y-75195618D01*
X225140000Y-75222282D01*
X225410723Y-75195618D01*
X225671043Y-75116651D01*
X225910955Y-74988415D01*
X226121239Y-74815839D01*
X226293815Y-74605555D01*
X226422051Y-74365643D01*
X226501018Y-74105323D01*
X226521000Y-73902443D01*
X226521000Y-71166757D01*
X226501018Y-70963877D01*
X226422051Y-70703557D01*
X226293815Y-70463645D01*
X226121238Y-70253361D01*
X225910954Y-70080785D01*
X225671042Y-69952549D01*
X225410722Y-69873582D01*
X225140000Y-69846918D01*
X224869277Y-69873582D01*
X224608957Y-69952549D01*
X224369045Y-70080785D01*
X224158761Y-70253362D01*
X223986185Y-70463646D01*
X223857949Y-70703558D01*
X223778982Y-70963878D01*
X223759000Y-71166758D01*
X220675000Y-71166758D01*
X220675000Y-71107600D01*
X220618807Y-70791068D01*
X220501942Y-70491580D01*
X220328895Y-70220646D01*
X220106317Y-69988678D01*
X219842761Y-69804590D01*
X219548355Y-69675456D01*
X219420434Y-69644476D01*
X219167000Y-69763823D01*
X218913000Y-69763823D01*
X218659566Y-69644476D01*
X218531645Y-69675456D01*
X218237239Y-69804590D01*
X217973683Y-69988678D01*
X217751105Y-70220646D01*
X217578058Y-70491580D01*
X217461193Y-70791068D01*
X217405000Y-71107600D01*
X214920200Y-71107600D01*
X214920200Y-65414800D01*
X294159800Y-65414800D01*
X294159801Y-95398478D01*
G37*
%TD.AperFunction*%
%TD*%
M02*
