G04 (created by PCBNEW-RS274X (2012-01-19 BZR 3256)-stable) date 10/26/2012 1:28:17 PM*
G01*
G70*
G90*
%MOIN*%
G04 Gerber Fmt 3.4, Leading zero omitted, Abs format*
%FSLAX34Y34*%
G04 APERTURE LIST*
%ADD10C,0.006000*%
%ADD11C,0.007500*%
%ADD12C,0.010000*%
%ADD13C,0.012000*%
%ADD14C,0.015000*%
%ADD15C,0.005000*%
%ADD16C,0.002600*%
%ADD17C,0.004000*%
%ADD18C,0.002000*%
%ADD19C,0.008000*%
G04 APERTURE END LIST*
G54D10*
G54D11*
X56401Y-36417D02*
X56301Y-36226D01*
X56229Y-36417D02*
X56229Y-36017D01*
X56344Y-36017D01*
X56372Y-36036D01*
X56387Y-36055D01*
X56401Y-36093D01*
X56401Y-36150D01*
X56387Y-36188D01*
X56372Y-36207D01*
X56344Y-36226D01*
X56229Y-36226D01*
X56515Y-36398D02*
X56558Y-36417D01*
X56629Y-36417D01*
X56658Y-36398D01*
X56672Y-36379D01*
X56687Y-36341D01*
X56687Y-36303D01*
X56672Y-36265D01*
X56658Y-36245D01*
X56629Y-36226D01*
X56572Y-36207D01*
X56544Y-36188D01*
X56529Y-36169D01*
X56515Y-36131D01*
X56515Y-36093D01*
X56529Y-36055D01*
X56544Y-36036D01*
X56572Y-36017D01*
X56644Y-36017D01*
X56687Y-36036D01*
X56773Y-36017D02*
X56944Y-36017D01*
X56858Y-36417D02*
X56858Y-36017D01*
G54D12*
X57407Y-29402D02*
X57407Y-28902D01*
X57407Y-29140D02*
X57636Y-29140D01*
X57636Y-29402D02*
X57636Y-28902D01*
X57788Y-28902D02*
X57883Y-29402D01*
X57960Y-29045D01*
X58036Y-29402D01*
X58131Y-28902D01*
X62355Y-38442D02*
X62355Y-38042D01*
X62450Y-38042D01*
X62508Y-38061D01*
X62546Y-38099D01*
X62565Y-38137D01*
X62584Y-38213D01*
X62584Y-38270D01*
X62565Y-38347D01*
X62546Y-38385D01*
X62508Y-38423D01*
X62450Y-38442D01*
X62355Y-38442D01*
X62717Y-38042D02*
X62965Y-38042D01*
X62831Y-38194D01*
X62889Y-38194D01*
X62927Y-38213D01*
X62946Y-38232D01*
X62965Y-38270D01*
X62965Y-38366D01*
X62946Y-38404D01*
X62927Y-38423D01*
X62889Y-38442D01*
X62774Y-38442D01*
X62736Y-38423D01*
X62717Y-38404D01*
X53877Y-28082D02*
X54010Y-28482D01*
X54144Y-28082D01*
X60597Y-30062D02*
X60463Y-30062D01*
X60463Y-30272D02*
X60463Y-29872D01*
X60654Y-29872D01*
X60997Y-29872D02*
X60806Y-29872D01*
X60787Y-30062D01*
X60806Y-30043D01*
X60844Y-30024D01*
X60940Y-30024D01*
X60978Y-30043D01*
X60997Y-30062D01*
X61016Y-30100D01*
X61016Y-30196D01*
X60997Y-30234D01*
X60978Y-30253D01*
X60940Y-30272D01*
X60844Y-30272D01*
X60806Y-30253D01*
X60787Y-30234D01*
X61504Y-30042D02*
X61638Y-30042D01*
X61695Y-30252D02*
X61504Y-30252D01*
X61504Y-29852D01*
X61695Y-29852D01*
X61847Y-29890D02*
X61866Y-29871D01*
X61904Y-29852D01*
X62000Y-29852D01*
X62038Y-29871D01*
X62057Y-29890D01*
X62076Y-29928D01*
X62076Y-29966D01*
X62057Y-30023D01*
X61828Y-30252D01*
X62076Y-30252D01*
X62275Y-37792D02*
X62275Y-37392D01*
X62370Y-37392D01*
X62428Y-37411D01*
X62466Y-37449D01*
X62485Y-37487D01*
X62504Y-37563D01*
X62504Y-37620D01*
X62485Y-37697D01*
X62466Y-37735D01*
X62428Y-37773D01*
X62370Y-37792D01*
X62275Y-37792D01*
X62866Y-37392D02*
X62675Y-37392D01*
X62656Y-37582D01*
X62675Y-37563D01*
X62713Y-37544D01*
X62809Y-37544D01*
X62847Y-37563D01*
X62866Y-37582D01*
X62885Y-37620D01*
X62885Y-37716D01*
X62866Y-37754D01*
X62847Y-37773D01*
X62809Y-37792D01*
X62713Y-37792D01*
X62675Y-37773D01*
X62656Y-37754D01*
X62439Y-33719D02*
X62496Y-33747D01*
X62515Y-33776D01*
X62534Y-33833D01*
X62534Y-33919D01*
X62515Y-33976D01*
X62496Y-34004D01*
X62458Y-34033D01*
X62305Y-34033D01*
X62305Y-33433D01*
X62439Y-33433D01*
X62477Y-33461D01*
X62496Y-33490D01*
X62515Y-33547D01*
X62515Y-33604D01*
X62496Y-33661D01*
X62477Y-33690D01*
X62439Y-33719D01*
X62305Y-33719D01*
X62877Y-33633D02*
X62877Y-34033D01*
X62781Y-33404D02*
X62686Y-33833D01*
X62934Y-33833D01*
X53887Y-39683D02*
X54020Y-40283D01*
X54154Y-39683D01*
X60475Y-38402D02*
X60475Y-38002D01*
X60570Y-38002D01*
X60628Y-38021D01*
X60666Y-38059D01*
X60685Y-38097D01*
X60704Y-38173D01*
X60704Y-38230D01*
X60685Y-38307D01*
X60666Y-38345D01*
X60628Y-38383D01*
X60570Y-38402D01*
X60475Y-38402D01*
X61085Y-38402D02*
X60856Y-38402D01*
X60970Y-38402D02*
X60970Y-38002D01*
X60932Y-38059D01*
X60894Y-38097D01*
X60856Y-38116D01*
X62275Y-36083D02*
X62275Y-35483D01*
X62370Y-35483D01*
X62428Y-35511D01*
X62466Y-35569D01*
X62485Y-35626D01*
X62504Y-35740D01*
X62504Y-35826D01*
X62485Y-35940D01*
X62466Y-35997D01*
X62428Y-36054D01*
X62370Y-36083D01*
X62275Y-36083D01*
X62847Y-35483D02*
X62770Y-35483D01*
X62732Y-35511D01*
X62713Y-35540D01*
X62675Y-35626D01*
X62656Y-35740D01*
X62656Y-35969D01*
X62675Y-36026D01*
X62694Y-36054D01*
X62732Y-36083D01*
X62809Y-36083D01*
X62847Y-36054D01*
X62866Y-36026D01*
X62885Y-35969D01*
X62885Y-35826D01*
X62866Y-35769D01*
X62847Y-35740D01*
X62809Y-35711D01*
X62732Y-35711D01*
X62694Y-35740D01*
X62675Y-35769D01*
X62656Y-35826D01*
X62684Y-30234D02*
X62665Y-30253D01*
X62608Y-30272D01*
X62570Y-30272D01*
X62512Y-30253D01*
X62474Y-30215D01*
X62455Y-30177D01*
X62436Y-30100D01*
X62436Y-30043D01*
X62455Y-29967D01*
X62474Y-29929D01*
X62512Y-29891D01*
X62570Y-29872D01*
X62608Y-29872D01*
X62665Y-29891D01*
X62684Y-29910D01*
X62817Y-29872D02*
X63084Y-29872D01*
X62912Y-30272D01*
X54105Y-40831D02*
X54067Y-40812D01*
X54010Y-40812D01*
X53952Y-40831D01*
X53914Y-40869D01*
X53895Y-40907D01*
X53876Y-40983D01*
X53876Y-41040D01*
X53895Y-41117D01*
X53914Y-41155D01*
X53952Y-41193D01*
X54010Y-41212D01*
X54048Y-41212D01*
X54105Y-41193D01*
X54124Y-41174D01*
X54124Y-41040D01*
X54048Y-41040D01*
X54055Y-27031D02*
X54017Y-27012D01*
X53960Y-27012D01*
X53902Y-27031D01*
X53864Y-27069D01*
X53845Y-27107D01*
X53826Y-27183D01*
X53826Y-27240D01*
X53845Y-27317D01*
X53864Y-27355D01*
X53902Y-27393D01*
X53960Y-27412D01*
X53998Y-27412D01*
X54055Y-27393D01*
X54074Y-27374D01*
X54074Y-27240D01*
X53998Y-27240D01*
X54283Y-30062D02*
X54416Y-30462D01*
X54550Y-30062D01*
X54664Y-30443D02*
X54721Y-30462D01*
X54817Y-30462D01*
X54855Y-30443D01*
X54874Y-30424D01*
X54893Y-30386D01*
X54893Y-30348D01*
X54874Y-30310D01*
X54855Y-30290D01*
X54817Y-30271D01*
X54740Y-30252D01*
X54702Y-30233D01*
X54683Y-30214D01*
X54664Y-30176D01*
X54664Y-30138D01*
X54683Y-30100D01*
X54702Y-30081D01*
X54740Y-30062D01*
X54836Y-30062D01*
X54893Y-30081D01*
X55064Y-30252D02*
X55198Y-30252D01*
X55255Y-30462D02*
X55064Y-30462D01*
X55064Y-30062D01*
X55255Y-30062D01*
X55617Y-30462D02*
X55426Y-30462D01*
X55426Y-30062D01*
X59667Y-30032D02*
X59533Y-30032D01*
X59533Y-30242D02*
X59533Y-29842D01*
X59724Y-29842D01*
X60048Y-29975D02*
X60048Y-30242D01*
X59952Y-29823D02*
X59857Y-30109D01*
X60105Y-30109D01*
X53689Y-39002D02*
X53746Y-39021D01*
X53765Y-39040D01*
X53784Y-39079D01*
X53784Y-39136D01*
X53765Y-39174D01*
X53746Y-39193D01*
X53708Y-39212D01*
X53555Y-39212D01*
X53555Y-38812D01*
X53689Y-38812D01*
X53727Y-38831D01*
X53746Y-38850D01*
X53765Y-38888D01*
X53765Y-38926D01*
X53746Y-38964D01*
X53727Y-38983D01*
X53689Y-39002D01*
X53555Y-39002D01*
X54031Y-38812D02*
X54070Y-38812D01*
X54108Y-38831D01*
X54127Y-38850D01*
X54146Y-38888D01*
X54165Y-38964D01*
X54165Y-39060D01*
X54146Y-39136D01*
X54127Y-39174D01*
X54108Y-39193D01*
X54070Y-39212D01*
X54031Y-39212D01*
X53993Y-39193D01*
X53974Y-39174D01*
X53955Y-39136D01*
X53936Y-39060D01*
X53936Y-38964D01*
X53955Y-38888D01*
X53974Y-38850D01*
X53993Y-38831D01*
X54031Y-38812D01*
X61435Y-38402D02*
X61435Y-37902D01*
X61530Y-37902D01*
X61588Y-37926D01*
X61626Y-37974D01*
X61645Y-38021D01*
X61664Y-38117D01*
X61664Y-38188D01*
X61645Y-38283D01*
X61626Y-38331D01*
X61588Y-38379D01*
X61530Y-38402D01*
X61435Y-38402D01*
X61816Y-37950D02*
X61835Y-37926D01*
X61873Y-37902D01*
X61969Y-37902D01*
X62007Y-37926D01*
X62026Y-37950D01*
X62045Y-37998D01*
X62045Y-38045D01*
X62026Y-38117D01*
X61797Y-38402D01*
X62045Y-38402D01*
G54D13*
X63365Y-38914D02*
X63451Y-38943D01*
X63594Y-38943D01*
X63651Y-38914D01*
X63680Y-38886D01*
X63708Y-38829D01*
X63708Y-38771D01*
X63680Y-38714D01*
X63651Y-38686D01*
X63594Y-38657D01*
X63480Y-38629D01*
X63422Y-38600D01*
X63394Y-38571D01*
X63365Y-38514D01*
X63365Y-38457D01*
X63394Y-38400D01*
X63422Y-38371D01*
X63480Y-38343D01*
X63622Y-38343D01*
X63708Y-38371D01*
X64336Y-38343D02*
X64536Y-38943D01*
X64736Y-38343D01*
X65707Y-38371D02*
X65650Y-38343D01*
X65564Y-38343D01*
X65479Y-38371D01*
X65421Y-38429D01*
X65393Y-38486D01*
X65364Y-38600D01*
X65364Y-38686D01*
X65393Y-38800D01*
X65421Y-38857D01*
X65479Y-38914D01*
X65564Y-38943D01*
X65621Y-38943D01*
X65707Y-38914D01*
X65736Y-38886D01*
X65736Y-38686D01*
X65621Y-38686D01*
X55226Y-34417D02*
X55683Y-34417D01*
X55226Y-35657D02*
X55683Y-35657D01*
X55454Y-35962D02*
X55454Y-35352D01*
G54D12*
X53647Y-28723D02*
X53914Y-29323D01*
X53914Y-28723D02*
X53647Y-29323D01*
X51186Y-28793D02*
X51186Y-29279D01*
X51205Y-29336D01*
X51224Y-29364D01*
X51262Y-29393D01*
X51339Y-29393D01*
X51377Y-29364D01*
X51396Y-29336D01*
X51415Y-29279D01*
X51415Y-28793D01*
X62389Y-31779D02*
X62446Y-31807D01*
X62465Y-31836D01*
X62484Y-31893D01*
X62484Y-31979D01*
X62465Y-32036D01*
X62446Y-32064D01*
X62408Y-32093D01*
X62255Y-32093D01*
X62255Y-31493D01*
X62389Y-31493D01*
X62427Y-31521D01*
X62446Y-31550D01*
X62465Y-31607D01*
X62465Y-31664D01*
X62446Y-31721D01*
X62427Y-31750D01*
X62389Y-31779D01*
X62255Y-31779D01*
X62827Y-31493D02*
X62750Y-31493D01*
X62712Y-31521D01*
X62693Y-31550D01*
X62655Y-31636D01*
X62636Y-31750D01*
X62636Y-31979D01*
X62655Y-32036D01*
X62674Y-32064D01*
X62712Y-32093D01*
X62789Y-32093D01*
X62827Y-32064D01*
X62846Y-32036D01*
X62865Y-31979D01*
X62865Y-31836D01*
X62846Y-31779D01*
X62827Y-31750D01*
X62789Y-31721D01*
X62712Y-31721D01*
X62674Y-31750D01*
X62655Y-31779D01*
X62636Y-31836D01*
X62305Y-37093D02*
X62305Y-36493D01*
X62400Y-36493D01*
X62458Y-36521D01*
X62496Y-36579D01*
X62515Y-36636D01*
X62534Y-36750D01*
X62534Y-36836D01*
X62515Y-36950D01*
X62496Y-37007D01*
X62458Y-37064D01*
X62400Y-37093D01*
X62305Y-37093D01*
X62877Y-36693D02*
X62877Y-37093D01*
X62781Y-36464D02*
X62686Y-36893D01*
X62934Y-36893D01*
G54D14*
X50470Y-31451D02*
X51061Y-31451D01*
X50470Y-34049D02*
X51061Y-34049D01*
X50470Y-31451D02*
X50470Y-34049D01*
G54D15*
X55000Y-31950D02*
X54999Y-31959D01*
X54996Y-31969D01*
X54991Y-31977D01*
X54985Y-31985D01*
X54977Y-31991D01*
X54969Y-31996D01*
X54960Y-31998D01*
X54950Y-31999D01*
X54941Y-31999D01*
X54932Y-31996D01*
X54923Y-31991D01*
X54916Y-31985D01*
X54909Y-31978D01*
X54905Y-31969D01*
X54902Y-31960D01*
X54901Y-31950D01*
X54901Y-31941D01*
X54904Y-31932D01*
X54908Y-31923D01*
X54915Y-31916D01*
X54922Y-31909D01*
X54930Y-31905D01*
X54940Y-31902D01*
X54949Y-31901D01*
X54958Y-31901D01*
X54968Y-31904D01*
X54976Y-31908D01*
X54984Y-31914D01*
X54990Y-31922D01*
X54995Y-31930D01*
X54998Y-31939D01*
X54999Y-31949D01*
X55000Y-31950D01*
X54500Y-31950D02*
X54900Y-31950D01*
X54900Y-31950D02*
X54900Y-32550D01*
X54900Y-32550D02*
X54500Y-32550D01*
X54100Y-32550D02*
X53700Y-32550D01*
X53700Y-32550D02*
X53700Y-31950D01*
X53700Y-31950D02*
X54100Y-31950D01*
X55000Y-32750D02*
X54999Y-32759D01*
X54996Y-32769D01*
X54991Y-32777D01*
X54985Y-32785D01*
X54977Y-32791D01*
X54969Y-32796D01*
X54960Y-32798D01*
X54950Y-32799D01*
X54941Y-32799D01*
X54932Y-32796D01*
X54923Y-32791D01*
X54916Y-32785D01*
X54909Y-32778D01*
X54905Y-32769D01*
X54902Y-32760D01*
X54901Y-32750D01*
X54901Y-32741D01*
X54904Y-32732D01*
X54908Y-32723D01*
X54915Y-32716D01*
X54922Y-32709D01*
X54930Y-32705D01*
X54940Y-32702D01*
X54949Y-32701D01*
X54958Y-32701D01*
X54968Y-32704D01*
X54976Y-32708D01*
X54984Y-32714D01*
X54990Y-32722D01*
X54995Y-32730D01*
X54998Y-32739D01*
X54999Y-32749D01*
X55000Y-32750D01*
X54500Y-32750D02*
X54900Y-32750D01*
X54900Y-32750D02*
X54900Y-33350D01*
X54900Y-33350D02*
X54500Y-33350D01*
X54100Y-33350D02*
X53700Y-33350D01*
X53700Y-33350D02*
X53700Y-32750D01*
X53700Y-32750D02*
X54100Y-32750D01*
X64700Y-29450D02*
X64699Y-29459D01*
X64696Y-29469D01*
X64691Y-29477D01*
X64685Y-29485D01*
X64677Y-29491D01*
X64669Y-29496D01*
X64660Y-29498D01*
X64650Y-29499D01*
X64641Y-29499D01*
X64632Y-29496D01*
X64623Y-29491D01*
X64616Y-29485D01*
X64609Y-29478D01*
X64605Y-29469D01*
X64602Y-29460D01*
X64601Y-29450D01*
X64601Y-29441D01*
X64604Y-29432D01*
X64608Y-29423D01*
X64615Y-29416D01*
X64622Y-29409D01*
X64630Y-29405D01*
X64640Y-29402D01*
X64649Y-29401D01*
X64658Y-29401D01*
X64668Y-29404D01*
X64676Y-29408D01*
X64684Y-29414D01*
X64690Y-29422D01*
X64695Y-29430D01*
X64698Y-29439D01*
X64699Y-29449D01*
X64700Y-29450D01*
X64200Y-29450D02*
X64600Y-29450D01*
X64600Y-29450D02*
X64600Y-30050D01*
X64600Y-30050D02*
X64200Y-30050D01*
X63800Y-30050D02*
X63400Y-30050D01*
X63400Y-30050D02*
X63400Y-29450D01*
X63400Y-29450D02*
X63800Y-29450D01*
X56160Y-37380D02*
X56159Y-37389D01*
X56156Y-37399D01*
X56151Y-37407D01*
X56145Y-37415D01*
X56137Y-37421D01*
X56129Y-37426D01*
X56120Y-37428D01*
X56110Y-37429D01*
X56101Y-37429D01*
X56092Y-37426D01*
X56083Y-37421D01*
X56076Y-37415D01*
X56069Y-37408D01*
X56065Y-37399D01*
X56062Y-37390D01*
X56061Y-37380D01*
X56061Y-37371D01*
X56064Y-37362D01*
X56068Y-37353D01*
X56075Y-37346D01*
X56082Y-37339D01*
X56090Y-37335D01*
X56100Y-37332D01*
X56109Y-37331D01*
X56118Y-37331D01*
X56128Y-37334D01*
X56136Y-37338D01*
X56144Y-37344D01*
X56150Y-37352D01*
X56155Y-37360D01*
X56158Y-37369D01*
X56159Y-37379D01*
X56160Y-37380D01*
X56110Y-36930D02*
X56110Y-37330D01*
X56110Y-37330D02*
X55510Y-37330D01*
X55510Y-37330D02*
X55510Y-36930D01*
X55510Y-36530D02*
X55510Y-36130D01*
X55510Y-36130D02*
X56110Y-36130D01*
X56110Y-36130D02*
X56110Y-36530D01*
G54D16*
X61804Y-30532D02*
X61804Y-30404D01*
X61804Y-30404D02*
X61607Y-30404D01*
X61607Y-30532D02*
X61607Y-30404D01*
X61804Y-30532D02*
X61607Y-30532D01*
X61804Y-30777D02*
X61804Y-30718D01*
X61804Y-30718D02*
X61705Y-30718D01*
X61705Y-30777D02*
X61705Y-30718D01*
X61804Y-30777D02*
X61705Y-30777D01*
X61804Y-30582D02*
X61804Y-30523D01*
X61804Y-30523D02*
X61705Y-30523D01*
X61705Y-30582D02*
X61705Y-30523D01*
X61804Y-30582D02*
X61705Y-30582D01*
X61804Y-30728D02*
X61804Y-30572D01*
X61804Y-30572D02*
X61735Y-30572D01*
X61735Y-30728D02*
X61735Y-30572D01*
X61804Y-30728D02*
X61735Y-30728D01*
X62393Y-30532D02*
X62393Y-30404D01*
X62393Y-30404D02*
X62196Y-30404D01*
X62196Y-30532D02*
X62196Y-30404D01*
X62393Y-30532D02*
X62196Y-30532D01*
X62393Y-30896D02*
X62393Y-30768D01*
X62393Y-30768D02*
X62196Y-30768D01*
X62196Y-30896D02*
X62196Y-30768D01*
X62393Y-30896D02*
X62196Y-30896D01*
X62295Y-30582D02*
X62295Y-30523D01*
X62295Y-30523D02*
X62196Y-30523D01*
X62196Y-30582D02*
X62196Y-30523D01*
X62295Y-30582D02*
X62196Y-30582D01*
X62295Y-30777D02*
X62295Y-30718D01*
X62295Y-30718D02*
X62196Y-30718D01*
X62196Y-30777D02*
X62196Y-30718D01*
X62295Y-30777D02*
X62196Y-30777D01*
X62265Y-30728D02*
X62265Y-30572D01*
X62265Y-30572D02*
X62196Y-30572D01*
X62196Y-30728D02*
X62196Y-30572D01*
X62265Y-30728D02*
X62196Y-30728D01*
X62000Y-30689D02*
X62000Y-30611D01*
X62000Y-30611D02*
X61922Y-30611D01*
X61922Y-30689D02*
X61922Y-30611D01*
X62000Y-30689D02*
X61922Y-30689D01*
X61804Y-30886D02*
X61804Y-30768D01*
X61804Y-30768D02*
X61686Y-30768D01*
X61686Y-30886D02*
X61686Y-30768D01*
X61804Y-30886D02*
X61686Y-30886D01*
X61636Y-30896D02*
X61636Y-30807D01*
X61636Y-30807D02*
X61607Y-30807D01*
X61607Y-30896D02*
X61607Y-30807D01*
X61636Y-30896D02*
X61607Y-30896D01*
G54D17*
X61794Y-30424D02*
X62206Y-30424D01*
X62196Y-30876D02*
X61636Y-30876D01*
G54D18*
X61694Y-30827D02*
X61693Y-30832D01*
X61691Y-30837D01*
X61689Y-30842D01*
X61685Y-30846D01*
X61681Y-30850D01*
X61676Y-30852D01*
X61671Y-30854D01*
X61666Y-30854D01*
X61661Y-30854D01*
X61656Y-30852D01*
X61651Y-30850D01*
X61647Y-30847D01*
X61643Y-30842D01*
X61641Y-30838D01*
X61639Y-30832D01*
X61639Y-30827D01*
X61639Y-30822D01*
X61640Y-30817D01*
X61643Y-30812D01*
X61646Y-30808D01*
X61651Y-30805D01*
X61655Y-30802D01*
X61660Y-30800D01*
X61666Y-30800D01*
X61670Y-30800D01*
X61676Y-30801D01*
X61681Y-30804D01*
X61685Y-30807D01*
X61688Y-30811D01*
X61691Y-30816D01*
X61693Y-30821D01*
X61693Y-30827D01*
X61694Y-30827D01*
G54D17*
X61607Y-30787D02*
X61618Y-30786D01*
X61630Y-30784D01*
X61642Y-30782D01*
X61653Y-30778D01*
X61664Y-30774D01*
X61675Y-30768D01*
X61685Y-30762D01*
X61695Y-30754D01*
X61703Y-30746D01*
X61711Y-30738D01*
X61719Y-30728D01*
X61725Y-30718D01*
X61731Y-30707D01*
X61735Y-30696D01*
X61739Y-30685D01*
X61741Y-30673D01*
X61743Y-30661D01*
X61744Y-30650D01*
X61743Y-30639D01*
X61741Y-30627D01*
X61739Y-30615D01*
X61735Y-30604D01*
X61731Y-30593D01*
X61725Y-30582D01*
X61719Y-30572D01*
X61711Y-30562D01*
X61703Y-30554D01*
X61695Y-30546D01*
X61685Y-30538D01*
X61675Y-30532D01*
X61664Y-30526D01*
X61653Y-30522D01*
X61642Y-30518D01*
X61630Y-30516D01*
X61618Y-30514D01*
X61607Y-30513D01*
X62393Y-30513D02*
X62382Y-30514D01*
X62370Y-30516D01*
X62358Y-30518D01*
X62347Y-30522D01*
X62336Y-30526D01*
X62325Y-30532D01*
X62315Y-30538D01*
X62305Y-30546D01*
X62297Y-30554D01*
X62289Y-30562D01*
X62281Y-30572D01*
X62275Y-30582D01*
X62269Y-30593D01*
X62265Y-30604D01*
X62261Y-30615D01*
X62259Y-30627D01*
X62257Y-30639D01*
X62256Y-30650D01*
X62257Y-30661D01*
X62259Y-30673D01*
X62261Y-30685D01*
X62265Y-30696D01*
X62269Y-30707D01*
X62275Y-30718D01*
X62281Y-30728D01*
X62289Y-30738D01*
X62297Y-30746D01*
X62305Y-30754D01*
X62315Y-30762D01*
X62325Y-30768D01*
X62336Y-30774D01*
X62347Y-30778D01*
X62358Y-30782D01*
X62370Y-30784D01*
X62382Y-30786D01*
X62393Y-30787D01*
G54D15*
X55000Y-33500D02*
X54999Y-33509D01*
X54996Y-33519D01*
X54991Y-33527D01*
X54985Y-33535D01*
X54977Y-33541D01*
X54969Y-33546D01*
X54960Y-33548D01*
X54950Y-33549D01*
X54941Y-33549D01*
X54932Y-33546D01*
X54923Y-33541D01*
X54916Y-33535D01*
X54909Y-33528D01*
X54905Y-33519D01*
X54902Y-33510D01*
X54901Y-33500D01*
X54901Y-33491D01*
X54904Y-33482D01*
X54908Y-33473D01*
X54915Y-33466D01*
X54922Y-33459D01*
X54930Y-33455D01*
X54940Y-33452D01*
X54949Y-33451D01*
X54958Y-33451D01*
X54968Y-33454D01*
X54976Y-33458D01*
X54984Y-33464D01*
X54990Y-33472D01*
X54995Y-33480D01*
X54998Y-33489D01*
X54999Y-33499D01*
X55000Y-33500D01*
X54500Y-33500D02*
X54900Y-33500D01*
X54900Y-33500D02*
X54900Y-34100D01*
X54900Y-34100D02*
X54500Y-34100D01*
X54100Y-34100D02*
X53700Y-34100D01*
X53700Y-34100D02*
X53700Y-33500D01*
X53700Y-33500D02*
X54100Y-33500D01*
X56240Y-37340D02*
X56238Y-37353D01*
X56234Y-37366D01*
X56228Y-37378D01*
X56219Y-37389D01*
X56209Y-37398D01*
X56197Y-37404D01*
X56184Y-37408D01*
X56170Y-37409D01*
X56157Y-37408D01*
X56144Y-37404D01*
X56132Y-37398D01*
X56122Y-37390D01*
X56113Y-37379D01*
X56106Y-37367D01*
X56102Y-37354D01*
X56101Y-37340D01*
X56102Y-37328D01*
X56105Y-37315D01*
X56112Y-37303D01*
X56120Y-37292D01*
X56131Y-37283D01*
X56142Y-37276D01*
X56155Y-37272D01*
X56169Y-37271D01*
X56182Y-37272D01*
X56195Y-37275D01*
X56207Y-37281D01*
X56218Y-37290D01*
X56227Y-37300D01*
X56233Y-37312D01*
X56238Y-37325D01*
X56239Y-37339D01*
X56240Y-37340D01*
X55520Y-38490D02*
X56120Y-38490D01*
X56120Y-38490D02*
X56120Y-37390D01*
X56120Y-37390D02*
X55520Y-37390D01*
X54920Y-37390D02*
X54320Y-37390D01*
X54320Y-37390D02*
X54320Y-38490D01*
X54320Y-38490D02*
X54920Y-38490D01*
X64800Y-30050D02*
X64799Y-30059D01*
X64796Y-30069D01*
X64791Y-30077D01*
X64785Y-30085D01*
X64777Y-30091D01*
X64769Y-30096D01*
X64760Y-30098D01*
X64750Y-30099D01*
X64741Y-30099D01*
X64732Y-30096D01*
X64723Y-30091D01*
X64716Y-30085D01*
X64709Y-30078D01*
X64705Y-30069D01*
X64702Y-30060D01*
X64701Y-30050D01*
X64701Y-30041D01*
X64704Y-30032D01*
X64708Y-30023D01*
X64715Y-30016D01*
X64722Y-30009D01*
X64730Y-30005D01*
X64740Y-30002D01*
X64749Y-30001D01*
X64758Y-30001D01*
X64768Y-30004D01*
X64776Y-30008D01*
X64784Y-30014D01*
X64790Y-30022D01*
X64795Y-30030D01*
X64798Y-30039D01*
X64799Y-30049D01*
X64800Y-30050D01*
X65200Y-30050D02*
X64800Y-30050D01*
X64800Y-30050D02*
X64800Y-29450D01*
X64800Y-29450D02*
X65200Y-29450D01*
X65600Y-29450D02*
X66000Y-29450D01*
X66000Y-29450D02*
X66000Y-30050D01*
X66000Y-30050D02*
X65600Y-30050D01*
X53450Y-30650D02*
X53450Y-31550D01*
X53450Y-31550D02*
X54100Y-31550D01*
X54800Y-30650D02*
X55450Y-30650D01*
X55450Y-30650D02*
X55450Y-31550D01*
X55450Y-31550D02*
X54800Y-31550D01*
X54100Y-30650D02*
X53450Y-30650D01*
G54D13*
X60720Y-31780D02*
X60720Y-35720D01*
X60720Y-35720D02*
X56780Y-35720D01*
X56780Y-31970D02*
X56780Y-35720D01*
X56970Y-31780D02*
X60720Y-31780D01*
X56780Y-31970D02*
X56970Y-31780D01*
G54D19*
X57500Y-32250D02*
X57495Y-32298D01*
X57481Y-32345D01*
X57458Y-32388D01*
X57427Y-32426D01*
X57389Y-32457D01*
X57346Y-32480D01*
X57300Y-32494D01*
X57251Y-32499D01*
X57204Y-32495D01*
X57157Y-32481D01*
X57114Y-32459D01*
X57076Y-32428D01*
X57044Y-32391D01*
X57021Y-32348D01*
X57006Y-32301D01*
X57001Y-32253D01*
X57005Y-32205D01*
X57018Y-32158D01*
X57040Y-32115D01*
X57071Y-32077D01*
X57108Y-32045D01*
X57150Y-32021D01*
X57197Y-32006D01*
X57245Y-32001D01*
X57293Y-32004D01*
X57340Y-32017D01*
X57383Y-32039D01*
X57422Y-32069D01*
X57454Y-32106D01*
X57478Y-32149D01*
X57493Y-32195D01*
X57499Y-32244D01*
X57500Y-32250D01*
G54D14*
X60170Y-38349D02*
X57610Y-38349D01*
X57610Y-38349D02*
X57610Y-36971D01*
X57610Y-36971D02*
X60170Y-36971D01*
X60170Y-36971D02*
X60170Y-38349D01*
G54D15*
X56050Y-30000D02*
X56049Y-30009D01*
X56046Y-30019D01*
X56041Y-30027D01*
X56035Y-30035D01*
X56027Y-30041D01*
X56019Y-30046D01*
X56010Y-30048D01*
X56000Y-30049D01*
X55991Y-30049D01*
X55982Y-30046D01*
X55973Y-30041D01*
X55966Y-30035D01*
X55959Y-30028D01*
X55955Y-30019D01*
X55952Y-30010D01*
X55951Y-30000D01*
X55951Y-29991D01*
X55954Y-29982D01*
X55958Y-29973D01*
X55965Y-29966D01*
X55972Y-29959D01*
X55980Y-29955D01*
X55990Y-29952D01*
X55999Y-29951D01*
X56008Y-29951D01*
X56018Y-29954D01*
X56026Y-29958D01*
X56034Y-29964D01*
X56040Y-29972D01*
X56045Y-29980D01*
X56048Y-29989D01*
X56049Y-29999D01*
X56050Y-30000D01*
X56000Y-30450D02*
X56000Y-30050D01*
X56000Y-30050D02*
X56600Y-30050D01*
X56600Y-30050D02*
X56600Y-30450D01*
X56600Y-30850D02*
X56600Y-31250D01*
X56600Y-31250D02*
X56000Y-31250D01*
X56000Y-31250D02*
X56000Y-30850D01*
X54420Y-36080D02*
X54419Y-36089D01*
X54416Y-36099D01*
X54411Y-36107D01*
X54405Y-36115D01*
X54397Y-36121D01*
X54389Y-36126D01*
X54380Y-36128D01*
X54370Y-36129D01*
X54361Y-36129D01*
X54352Y-36126D01*
X54343Y-36121D01*
X54336Y-36115D01*
X54329Y-36108D01*
X54325Y-36099D01*
X54322Y-36090D01*
X54321Y-36080D01*
X54321Y-36071D01*
X54324Y-36062D01*
X54328Y-36053D01*
X54335Y-36046D01*
X54342Y-36039D01*
X54350Y-36035D01*
X54360Y-36032D01*
X54369Y-36031D01*
X54378Y-36031D01*
X54388Y-36034D01*
X54396Y-36038D01*
X54404Y-36044D01*
X54410Y-36052D01*
X54415Y-36060D01*
X54418Y-36069D01*
X54419Y-36079D01*
X54420Y-36080D01*
X54370Y-36530D02*
X54370Y-36130D01*
X54370Y-36130D02*
X54970Y-36130D01*
X54970Y-36130D02*
X54970Y-36530D01*
X54970Y-36930D02*
X54970Y-37330D01*
X54970Y-37330D02*
X54370Y-37330D01*
X54370Y-37330D02*
X54370Y-36930D01*
G54D19*
X54117Y-36395D02*
X54117Y-35195D01*
X54117Y-35195D02*
X51317Y-35195D01*
X51317Y-35195D02*
X51317Y-36395D01*
X54117Y-37595D02*
X54117Y-37895D01*
X54117Y-37895D02*
X53517Y-38795D01*
X53517Y-38795D02*
X51917Y-38795D01*
X51917Y-38795D02*
X51317Y-37895D01*
X51317Y-37895D02*
X51317Y-37595D01*
G54D10*
X55250Y-26750D02*
X56250Y-26750D01*
X56250Y-26750D02*
X56250Y-29750D01*
X56250Y-29750D02*
X55250Y-29750D01*
X55250Y-29750D02*
X55250Y-26750D01*
X56250Y-27750D02*
X55250Y-27750D01*
X51200Y-30400D02*
X51200Y-29400D01*
X51200Y-29400D02*
X54200Y-29400D01*
X54200Y-29400D02*
X54200Y-30400D01*
X54200Y-30400D02*
X51200Y-30400D01*
X52200Y-29400D02*
X52200Y-30400D01*
X62250Y-26750D02*
X63250Y-26750D01*
X63250Y-26750D02*
X63250Y-29750D01*
X63250Y-29750D02*
X62250Y-29750D01*
X62250Y-29750D02*
X62250Y-26750D01*
X63250Y-27750D02*
X62250Y-27750D01*
X66000Y-30250D02*
X66000Y-31250D01*
X66000Y-31250D02*
X63000Y-31250D01*
X63000Y-31250D02*
X63000Y-30250D01*
X63000Y-30250D02*
X66000Y-30250D01*
X65000Y-31250D02*
X65000Y-30250D01*
X66000Y-34250D02*
X66000Y-35250D01*
X66000Y-35250D02*
X63000Y-35250D01*
X63000Y-35250D02*
X63000Y-34250D01*
X63000Y-34250D02*
X66000Y-34250D01*
X65000Y-35250D02*
X65000Y-34250D01*
X66000Y-35250D02*
X66000Y-36250D01*
X66000Y-36250D02*
X63000Y-36250D01*
X63000Y-36250D02*
X63000Y-35250D01*
X63000Y-35250D02*
X66000Y-35250D01*
X65000Y-36250D02*
X65000Y-35250D01*
X66000Y-37250D02*
X66000Y-38250D01*
X66000Y-38250D02*
X63000Y-38250D01*
X63000Y-38250D02*
X63000Y-37250D01*
X63000Y-37250D02*
X66000Y-37250D01*
X65000Y-38250D02*
X65000Y-37250D01*
X66000Y-36250D02*
X66000Y-37250D01*
X66000Y-37250D02*
X63000Y-37250D01*
X63000Y-37250D02*
X63000Y-36250D01*
X63000Y-36250D02*
X66000Y-36250D01*
X65000Y-37250D02*
X65000Y-36250D01*
X63250Y-41500D02*
X62250Y-41500D01*
X62250Y-41500D02*
X62250Y-38500D01*
X62250Y-38500D02*
X63250Y-38500D01*
X63250Y-38500D02*
X63250Y-41500D01*
X62250Y-40500D02*
X63250Y-40500D01*
X62250Y-41500D02*
X61250Y-41500D01*
X61250Y-41500D02*
X61250Y-38500D01*
X61250Y-38500D02*
X62250Y-38500D01*
X62250Y-38500D02*
X62250Y-41500D01*
X61250Y-40500D02*
X62250Y-40500D01*
X60250Y-41500D02*
X59250Y-41500D01*
X59250Y-41500D02*
X59250Y-38500D01*
X59250Y-38500D02*
X60250Y-38500D01*
X60250Y-38500D02*
X60250Y-41500D01*
X59250Y-40500D02*
X60250Y-40500D01*
X61250Y-41500D02*
X60250Y-41500D01*
X60250Y-41500D02*
X60250Y-38500D01*
X60250Y-38500D02*
X61250Y-38500D01*
X61250Y-38500D02*
X61250Y-41500D01*
X60250Y-40500D02*
X61250Y-40500D01*
X59250Y-41500D02*
X58250Y-41500D01*
X58250Y-41500D02*
X58250Y-38500D01*
X58250Y-38500D02*
X59250Y-38500D01*
X59250Y-38500D02*
X59250Y-41500D01*
X58250Y-40500D02*
X59250Y-40500D01*
X66000Y-31250D02*
X66000Y-32250D01*
X66000Y-32250D02*
X63000Y-32250D01*
X63000Y-32250D02*
X63000Y-31250D01*
X63000Y-31250D02*
X66000Y-31250D01*
X65000Y-32250D02*
X65000Y-31250D01*
X66000Y-32250D02*
X66000Y-33250D01*
X66000Y-33250D02*
X63000Y-33250D01*
X63000Y-33250D02*
X63000Y-32250D01*
X63000Y-32250D02*
X66000Y-32250D01*
X65000Y-33250D02*
X65000Y-32250D01*
X66000Y-33250D02*
X66000Y-34250D01*
X66000Y-34250D02*
X63000Y-34250D01*
X63000Y-34250D02*
X63000Y-33250D01*
X63000Y-33250D02*
X66000Y-33250D01*
X65000Y-34250D02*
X65000Y-33250D01*
X58250Y-41500D02*
X57250Y-41500D01*
X57250Y-41500D02*
X57250Y-38500D01*
X57250Y-38500D02*
X58250Y-38500D01*
X58250Y-38500D02*
X58250Y-41500D01*
X57250Y-40500D02*
X58250Y-40500D01*
X57250Y-41500D02*
X56250Y-41500D01*
X56250Y-41500D02*
X56250Y-38500D01*
X56250Y-38500D02*
X57250Y-38500D01*
X57250Y-38500D02*
X57250Y-41500D01*
X56250Y-40500D02*
X57250Y-40500D01*
X56250Y-41500D02*
X55250Y-41500D01*
X55250Y-41500D02*
X55250Y-38500D01*
X55250Y-38500D02*
X56250Y-38500D01*
X56250Y-38500D02*
X56250Y-41500D01*
X55250Y-40500D02*
X56250Y-40500D01*
X55250Y-41500D02*
X54250Y-41500D01*
X54250Y-41500D02*
X54250Y-38500D01*
X54250Y-38500D02*
X55250Y-38500D01*
X55250Y-38500D02*
X55250Y-41500D01*
X54250Y-40500D02*
X55250Y-40500D01*
X54250Y-26750D02*
X55250Y-26750D01*
X55250Y-26750D02*
X55250Y-29750D01*
X55250Y-29750D02*
X54250Y-29750D01*
X54250Y-29750D02*
X54250Y-26750D01*
X55250Y-27750D02*
X54250Y-27750D01*
X61250Y-26750D02*
X62250Y-26750D01*
X62250Y-26750D02*
X62250Y-29750D01*
X62250Y-29750D02*
X61250Y-29750D01*
X61250Y-29750D02*
X61250Y-26750D01*
X62250Y-27750D02*
X61250Y-27750D01*
X60250Y-26750D02*
X61250Y-26750D01*
X61250Y-26750D02*
X61250Y-29750D01*
X61250Y-29750D02*
X60250Y-29750D01*
X60250Y-29750D02*
X60250Y-26750D01*
X61250Y-27750D02*
X60250Y-27750D01*
X59250Y-26750D02*
X60250Y-26750D01*
X60250Y-26750D02*
X60250Y-29750D01*
X60250Y-29750D02*
X59250Y-29750D01*
X59250Y-29750D02*
X59250Y-26750D01*
X60250Y-27750D02*
X59250Y-27750D01*
X58250Y-26750D02*
X59250Y-26750D01*
X59250Y-26750D02*
X59250Y-29750D01*
X59250Y-29750D02*
X58250Y-29750D01*
X58250Y-29750D02*
X58250Y-26750D01*
X59250Y-27750D02*
X58250Y-27750D01*
X56250Y-26750D02*
X57250Y-26750D01*
X57250Y-26750D02*
X57250Y-29750D01*
X57250Y-29750D02*
X56250Y-29750D01*
X56250Y-29750D02*
X56250Y-26750D01*
X57250Y-27750D02*
X56250Y-27750D01*
X55150Y-36100D02*
X54150Y-36100D01*
X54150Y-36100D02*
X54150Y-34100D01*
X54150Y-34100D02*
X55150Y-34100D01*
X55150Y-34100D02*
X55150Y-36100D01*
X57250Y-26750D02*
X58250Y-26750D01*
X58250Y-26750D02*
X58250Y-28750D01*
X58250Y-28750D02*
X57250Y-28750D01*
X57250Y-28750D02*
X57250Y-26750D01*
X57250Y-38500D02*
X56250Y-38500D01*
X56250Y-38500D02*
X56250Y-36500D01*
X56250Y-36500D02*
X57250Y-36500D01*
X57250Y-36500D02*
X57250Y-38500D01*
G54D13*
X52913Y-34450D02*
X53341Y-34450D01*
X53427Y-34478D01*
X53484Y-34535D01*
X53513Y-34621D01*
X53513Y-34678D01*
X53513Y-33850D02*
X53513Y-34193D01*
X53513Y-34021D02*
X52913Y-34021D01*
X52999Y-34078D01*
X53056Y-34136D01*
X53084Y-34193D01*
G54D15*
X55158Y-32401D02*
X55075Y-32282D01*
X55016Y-32401D02*
X55016Y-32151D01*
X55111Y-32151D01*
X55135Y-32163D01*
X55146Y-32175D01*
X55158Y-32199D01*
X55158Y-32235D01*
X55146Y-32258D01*
X55135Y-32270D01*
X55111Y-32282D01*
X55016Y-32282D01*
X55396Y-32401D02*
X55254Y-32401D01*
X55325Y-32401D02*
X55325Y-32151D01*
X55301Y-32187D01*
X55277Y-32211D01*
X55254Y-32223D01*
X55108Y-33151D02*
X55025Y-33032D01*
X54966Y-33151D02*
X54966Y-32901D01*
X55061Y-32901D01*
X55085Y-32913D01*
X55096Y-32925D01*
X55108Y-32949D01*
X55108Y-32985D01*
X55096Y-33008D01*
X55085Y-33020D01*
X55061Y-33032D01*
X54966Y-33032D01*
X55204Y-32925D02*
X55216Y-32913D01*
X55239Y-32901D01*
X55299Y-32901D01*
X55323Y-32913D01*
X55335Y-32925D01*
X55346Y-32949D01*
X55346Y-32973D01*
X55335Y-33008D01*
X55192Y-33151D01*
X55346Y-33151D01*
X63528Y-29331D02*
X63445Y-29212D01*
X63386Y-29331D02*
X63386Y-29081D01*
X63481Y-29081D01*
X63505Y-29093D01*
X63516Y-29105D01*
X63528Y-29129D01*
X63528Y-29165D01*
X63516Y-29188D01*
X63505Y-29200D01*
X63481Y-29212D01*
X63386Y-29212D01*
X63612Y-29081D02*
X63766Y-29081D01*
X63683Y-29176D01*
X63719Y-29176D01*
X63743Y-29188D01*
X63755Y-29200D01*
X63766Y-29224D01*
X63766Y-29284D01*
X63755Y-29307D01*
X63743Y-29319D01*
X63719Y-29331D01*
X63647Y-29331D01*
X63624Y-29319D01*
X63612Y-29307D01*
X55776Y-36002D02*
X55693Y-35883D01*
X55634Y-36002D02*
X55634Y-35752D01*
X55729Y-35752D01*
X55753Y-35764D01*
X55764Y-35776D01*
X55776Y-35800D01*
X55776Y-35836D01*
X55764Y-35859D01*
X55753Y-35871D01*
X55729Y-35883D01*
X55634Y-35883D01*
X55895Y-36002D02*
X55943Y-36002D01*
X55967Y-35990D01*
X55979Y-35978D01*
X56003Y-35943D01*
X56014Y-35895D01*
X56014Y-35800D01*
X56003Y-35776D01*
X55991Y-35764D01*
X55967Y-35752D01*
X55919Y-35752D01*
X55895Y-35764D01*
X55884Y-35776D01*
X55872Y-35800D01*
X55872Y-35859D01*
X55884Y-35883D01*
X55895Y-35895D01*
X55919Y-35907D01*
X55967Y-35907D01*
X55991Y-35895D01*
X56003Y-35883D01*
X56014Y-35859D01*
X61676Y-31236D02*
X61676Y-30936D01*
X61748Y-30936D01*
X61791Y-30951D01*
X61819Y-30979D01*
X61834Y-31008D01*
X61848Y-31065D01*
X61848Y-31108D01*
X61834Y-31165D01*
X61819Y-31194D01*
X61791Y-31222D01*
X61748Y-31236D01*
X61676Y-31236D01*
X61962Y-31222D02*
X62005Y-31236D01*
X62076Y-31236D01*
X62105Y-31222D01*
X62119Y-31208D01*
X62134Y-31179D01*
X62134Y-31151D01*
X62119Y-31122D01*
X62105Y-31108D01*
X62076Y-31094D01*
X62019Y-31079D01*
X61991Y-31065D01*
X61976Y-31051D01*
X61962Y-31022D01*
X61962Y-30994D01*
X61976Y-30965D01*
X61991Y-30951D01*
X62019Y-30936D01*
X62091Y-30936D01*
X62134Y-30951D01*
X62248Y-30965D02*
X62262Y-30951D01*
X62291Y-30936D01*
X62362Y-30936D01*
X62391Y-30951D01*
X62405Y-30965D01*
X62420Y-30994D01*
X62420Y-31022D01*
X62405Y-31065D01*
X62234Y-31236D01*
X62420Y-31236D01*
X55108Y-33877D02*
X55096Y-33889D01*
X55061Y-33901D01*
X55037Y-33901D01*
X55001Y-33889D01*
X54977Y-33865D01*
X54966Y-33842D01*
X54954Y-33794D01*
X54954Y-33758D01*
X54966Y-33711D01*
X54977Y-33687D01*
X55001Y-33663D01*
X55037Y-33651D01*
X55061Y-33651D01*
X55096Y-33663D01*
X55108Y-33675D01*
X55346Y-33901D02*
X55204Y-33901D01*
X55275Y-33901D02*
X55275Y-33651D01*
X55251Y-33687D01*
X55227Y-33711D01*
X55204Y-33723D01*
X54308Y-37731D02*
X54322Y-37745D01*
X54336Y-37788D01*
X54336Y-37817D01*
X54322Y-37860D01*
X54294Y-37888D01*
X54265Y-37903D01*
X54208Y-37917D01*
X54165Y-37917D01*
X54108Y-37903D01*
X54079Y-37888D01*
X54051Y-37860D01*
X54036Y-37817D01*
X54036Y-37788D01*
X54051Y-37745D01*
X54065Y-37731D01*
X54136Y-37474D02*
X54336Y-37474D01*
X54022Y-37545D02*
X54236Y-37617D01*
X54236Y-37431D01*
X65810Y-29359D02*
X65798Y-29371D01*
X65763Y-29383D01*
X65739Y-29383D01*
X65703Y-29371D01*
X65679Y-29347D01*
X65668Y-29324D01*
X65656Y-29276D01*
X65656Y-29240D01*
X65668Y-29193D01*
X65679Y-29169D01*
X65703Y-29145D01*
X65739Y-29133D01*
X65763Y-29133D01*
X65798Y-29145D01*
X65810Y-29157D01*
X66037Y-29133D02*
X65918Y-29133D01*
X65906Y-29252D01*
X65918Y-29240D01*
X65941Y-29228D01*
X66001Y-29228D01*
X66025Y-29240D01*
X66037Y-29252D01*
X66048Y-29276D01*
X66048Y-29336D01*
X66037Y-29359D01*
X66025Y-29371D01*
X66001Y-29383D01*
X65941Y-29383D01*
X65918Y-29371D01*
X65906Y-29359D01*
X55650Y-31714D02*
X55550Y-31714D01*
X55550Y-31871D02*
X55550Y-31571D01*
X55693Y-31571D01*
X55965Y-31871D02*
X55793Y-31871D01*
X55879Y-31871D02*
X55879Y-31571D01*
X55850Y-31614D01*
X55822Y-31643D01*
X55793Y-31657D01*
G54D13*
X58038Y-33305D02*
X58038Y-34114D01*
X58086Y-34210D01*
X58133Y-34257D01*
X58229Y-34305D01*
X58419Y-34305D01*
X58514Y-34257D01*
X58562Y-34210D01*
X58610Y-34114D01*
X58610Y-33305D01*
X59610Y-34305D02*
X59038Y-34305D01*
X59324Y-34305D02*
X59324Y-33305D01*
X59229Y-33448D01*
X59134Y-33543D01*
X59038Y-33590D01*
G54D11*
X60282Y-36496D02*
X60482Y-36896D01*
X60482Y-36496D02*
X60282Y-36896D01*
X60754Y-36896D02*
X60582Y-36896D01*
X60668Y-36896D02*
X60668Y-36496D01*
X60639Y-36553D01*
X60611Y-36591D01*
X60582Y-36610D01*
G54D15*
X56977Y-30742D02*
X56989Y-30754D01*
X57001Y-30789D01*
X57001Y-30813D01*
X56989Y-30849D01*
X56965Y-30873D01*
X56942Y-30884D01*
X56894Y-30896D01*
X56858Y-30896D01*
X56811Y-30884D01*
X56787Y-30873D01*
X56763Y-30849D01*
X56751Y-30813D01*
X56751Y-30789D01*
X56763Y-30754D01*
X56775Y-30742D01*
X56751Y-30658D02*
X56751Y-30504D01*
X56846Y-30587D01*
X56846Y-30551D01*
X56858Y-30527D01*
X56870Y-30515D01*
X56894Y-30504D01*
X56954Y-30504D01*
X56977Y-30515D01*
X56989Y-30527D01*
X57001Y-30551D01*
X57001Y-30623D01*
X56989Y-30646D01*
X56977Y-30658D01*
X55293Y-36785D02*
X55305Y-36797D01*
X55317Y-36832D01*
X55317Y-36856D01*
X55305Y-36892D01*
X55281Y-36916D01*
X55258Y-36927D01*
X55210Y-36939D01*
X55174Y-36939D01*
X55127Y-36927D01*
X55103Y-36916D01*
X55079Y-36892D01*
X55067Y-36856D01*
X55067Y-36832D01*
X55079Y-36797D01*
X55091Y-36785D01*
X55091Y-36689D02*
X55079Y-36677D01*
X55067Y-36654D01*
X55067Y-36594D01*
X55079Y-36570D01*
X55091Y-36558D01*
X55115Y-36547D01*
X55139Y-36547D01*
X55174Y-36558D01*
X55317Y-36701D01*
X55317Y-36547D01*
G54D19*
X52395Y-36762D02*
X52395Y-37086D01*
X52414Y-37124D01*
X52433Y-37143D01*
X52471Y-37162D01*
X52548Y-37162D01*
X52586Y-37143D01*
X52605Y-37124D01*
X52624Y-37086D01*
X52624Y-36762D01*
X52795Y-36800D02*
X52814Y-36781D01*
X52852Y-36762D01*
X52948Y-36762D01*
X52986Y-36781D01*
X53005Y-36800D01*
X53024Y-36838D01*
X53024Y-36876D01*
X53005Y-36933D01*
X52776Y-37162D01*
X53024Y-37162D01*
G54D10*
X57600Y-26021D02*
X57600Y-26236D01*
X57586Y-26279D01*
X57557Y-26307D01*
X57514Y-26321D01*
X57486Y-26321D01*
X57872Y-26121D02*
X57872Y-26321D01*
X57801Y-26007D02*
X57729Y-26221D01*
X57915Y-26221D01*
M02*
