  0
SECTION
  2
HEADER
  9
$ANGBASE
  50
0.0
  9
$ANGDIR
  70
  1
  9
$MEASUREMENT
  70
0
  0
ENDSEC
  0
SECTION
  2
TABLES
  0
TABLE
  2
LTYPE
  70
1
  0
LTYPE
  2
CONTINUOUS
  70
0
  3
Solid line
  72
65
  73
0
  40
0.0
  0
ENDTAB
  0
TABLE
  2
STYLE
  70
4
  0
STYLE
  2
KICAD
  70
0
  40
0
  41
1
  42
1
  50
0
  71
0
  3
isocp.shx
  0
STYLE
  2
KICADB
  70
0
  40
0
  41
1
  42
1
  50
0
  71
0
  3
isocp.shx
  0
STYLE
  2
KICADI
  70
0
  40
0
  41
1
  42
1
  50
15
  71
0
  3
isocp.shx
  0
STYLE
  2
KICADBI
  70
0
  40
0
  41
1
  42
1
  50
15
  71
0
  3
isocp.shx
  0
ENDTAB
  0
TABLE
  2
LAYER
  70
24
  0
LAYER
  2
BLACK
  70
0
  62
250
  6
CONTINUOUS
  0
LAYER
  2
BLUE
  70
0
  62
5
  6
CONTINUOUS
  0
LAYER
  2
GREEN
  70
0
  62
3
  6
CONTINUOUS
  0
LAYER
  2
CYAN
  70
0
  62
4
  6
CONTINUOUS
  0
LAYER
  2
RED
  70
0
  62
1
  6
CONTINUOUS
  0
LAYER
  2
MAGENTA
  70
0
  62
6
  6
CONTINUOUS
  0
LAYER
  2
BROWN
  70
0
  62
54
  6
CONTINUOUS
  0
LAYER
  2
LIGHTGRAY
  70
0
  62
9
  6
CONTINUOUS
  0
LAYER
  2
DARKGRAY
  70
0
  62
8
  6
CONTINUOUS
  0
LAYER
  2
LIGHTBLUE
  70
0
  62
171
  6
CONTINUOUS
  0
LAYER
  2
LIGHTGREEN
  70
0
  62
91
  6
CONTINUOUS
  0
LAYER
  2
LIGHTCYAN
  70
0
  62
131
  6
CONTINUOUS
  0
LAYER
  2
LIGHTRED
  70
0
  62
11
  6
CONTINUOUS
  0
LAYER
  2
LIGHTMAGENTA
  70
0
  62
221
  6
CONTINUOUS
  0
LAYER
  2
YELLOW
  70
0
  62
2
  6
CONTINUOUS
  0
LAYER
  2
WHITE
  70
0
  62
7
  6
CONTINUOUS
  0
LAYER
  2
DARKDARKGRAY
  70
0
  62
251
  6
CONTINUOUS
  0
LAYER
  2
DARKBLUE
  70
0
  62
178
  6
CONTINUOUS
  0
LAYER
  2
DARKGREEN
  70
0
  62
98
  6
CONTINUOUS
  0
LAYER
  2
DARKCYAN
  70
0
  62
138
  6
CONTINUOUS
  0
LAYER
  2
DARKRED
  70
0
  62
18
  6
CONTINUOUS
  0
LAYER
  2
DARKMAGENTA
  70
0
  62
228
  6
CONTINUOUS
  0
LAYER
  2
DARKBROWN
  70
0
  62
58
  6
CONTINUOUS
  0
LAYER
  2
LIGHTYELLOW
  70
0
  62
51
  6
CONTINUOUS
  0
ENDTAB
  0
ENDSEC
  0
SECTION
  2
ENTITIES
0
LINE
8
BLACK
10
86.9186
20
-46.5171
11
86.0614
21
-46.5171
0
LINE
8
BLACK
10
86.49
20
-46.5171
11
86.49
21
-45.0171
0
LINE
8
BLACK
10
86.49
20
-45.0171
11
86.3471
21
-45.2314
0
LINE
8
BLACK
10
86.3471
20
-45.2314
11
86.2043
21
-45.3743
0
LINE
8
BLACK
10
86.2043
20
-45.3743
11
86.0614
21
-45.4457
0
LINE
8
BLACK
10
16.5947
20
-61.2019
11
21.1667
21
-59.0248
0
LINE
8
BLACK
10
16.764
20
-56.8476
11
21.336
21
-59.0248
0
LINE
8
BLACK
10
16.9333
20
-53.5819
11
16.9333
21
-53.0981
0
LINE
8
BLACK
10
16.9333
20
-53.0981
11
17.1027
21
-52.8562
0
LINE
8
BLACK
10
17.1027
20
-52.8562
11
17.4413
21
-52.6143
0
LINE
8
BLACK
10
17.4413
20
-52.6143
11
18.1187
21
-52.4933
0
LINE
8
BLACK
10
18.1187
20
-52.4933
11
19.304
21
-52.4933
0
LINE
8
BLACK
10
19.304
20
-52.4933
11
19.9813
21
-52.6143
0
LINE
8
BLACK
10
19.9813
20
-52.6143
11
20.32
21
-52.8562
0
LINE
8
BLACK
10
20.32
20
-52.8562
11
20.4893
21
-53.0981
0
LINE
8
BLACK
10
20.4893
20
-53.0981
11
20.4893
21
-53.5819
0
LINE
8
BLACK
10
20.4893
20
-53.5819
11
20.32
21
-53.8238
0
LINE
8
BLACK
10
20.32
20
-53.8238
11
19.9813
21
-54.0657
0
LINE
8
BLACK
10
19.9813
20
-54.0657
11
19.304
21
-54.1867
0
LINE
8
BLACK
10
19.304
20
-54.1867
11
18.1187
21
-54.1867
0
LINE
8
BLACK
10
18.1187
20
-54.1867
11
17.4413
21
-54.0657
0
LINE
8
BLACK
10
17.4413
20
-54.0657
11
17.1027
21
-53.8238
0
LINE
8
BLACK
10
17.1027
20
-53.8238
11
16.9333
21
-53.5819
0
LINE
8
BLACK
10
20.4893
20
-51.4048
11
16.9333
21
-51.4048
0
LINE
8
BLACK
10
16.9333
20
-51.4048
11
16.9333
21
-50.4371
0
LINE
8
BLACK
10
16.9333
20
-50.4371
11
17.1027
21
-50.1952
0
LINE
8
BLACK
10
17.1027
20
-50.1952
11
17.272
21
-50.0743
0
LINE
8
BLACK
10
17.272
20
-50.0743
11
17.6107
21
-49.9533
0
LINE
8
BLACK
10
17.6107
20
-49.9533
11
18.1187
21
-49.9533
0
LINE
8
BLACK
10
18.1187
20
-49.9533
11
18.4573
21
-50.0743
0
LINE
8
BLACK
10
18.4573
20
-50.0743
11
18.6267
21
-50.1952
0
LINE
8
BLACK
10
18.6267
20
-50.1952
11
18.796
21
-50.4371
0
LINE
8
BLACK
10
18.796
20
-50.4371
11
18.796
21
-51.4048
0
LINE
8
BLACK
10
16.9333
20
-49.2276
11
16.9333
21
-47.7762
0
LINE
8
BLACK
10
20.4893
20
-48.5019
11
16.9333
21
-48.5019
0
LINE
8
BLACK
10
16.9333
20
-46.4457
11
16.9333
21
-45.9619
0
LINE
8
BLACK
10
16.9333
20
-45.9619
11
17.1027
21
-45.72
0
LINE
8
BLACK
10
17.1027
20
-45.72
11
17.4413
21
-45.4781
0
LINE
8
BLACK
10
17.4413
20
-45.4781
11
18.1187
21
-45.3571
0
LINE
8
BLACK
10
18.1187
20
-45.3571
11
19.304
21
-45.3571
0
LINE
8
BLACK
10
19.304
20
-45.3571
11
19.9813
21
-45.4781
0
LINE
8
BLACK
10
19.9813
20
-45.4781
11
20.32
21
-45.72
0
LINE
8
BLACK
10
20.32
20
-45.72
11
20.4893
21
-45.9619
0
LINE
8
BLACK
10
20.4893
20
-45.9619
11
20.4893
21
-46.4457
0
LINE
8
BLACK
10
20.4893
20
-46.4457
11
20.32
21
-46.6876
0
LINE
8
BLACK
10
20.32
20
-46.6876
11
19.9813
21
-46.9295
0
LINE
8
BLACK
10
19.9813
20
-46.9295
11
19.304
21
-47.0505
0
LINE
8
BLACK
10
19.304
20
-47.0505
11
18.1187
21
-47.0505
0
LINE
8
BLACK
10
18.1187
20
-47.0505
11
17.4413
21
-46.9295
0
LINE
8
BLACK
10
17.4413
20
-46.9295
11
17.1027
21
-46.6876
0
LINE
8
BLACK
10
17.1027
20
-46.6876
11
16.9333
21
-46.4457
0
LINE
8
BLACK
10
20.4893
20
-42.3333
11
16.9333
21
-42.3333
0
LINE
8
BLACK
10
20.4893
20
-41.1238
11
16.9333
21
-41.1238
0
LINE
8
BLACK
10
16.9333
20
-41.1238
11
20.4893
21
-39.6724
0
LINE
8
BLACK
10
20.4893
20
-39.6724
11
16.9333
21
-39.6724
0
LINE
8
BLACK
10
16.5947
20
-37.3743
11
21.1667
21
-35.1971
0
LINE
8
BLACK
10
16.764
20
-33.02
11
21.336
21
-35.1971
0
LINE
8
BLACK
10
79.8594
20
-16.7997
11
81.0023
21
-16.7997
0
LINE
8
BLACK
10
80.4309
20
-17.3711
11
80.4309
21
-16.2283
0
LINE
8
BLACK
10
82.4309
20
-15.8711
11
81.7166
21
-15.8711
0
LINE
8
BLACK
10
81.7166
20
-15.8711
11
81.6451
21
-16.5854
0
LINE
8
BLACK
10
81.6451
20
-16.5854
11
81.7166
21
-16.514
0
LINE
8
BLACK
10
81.7166
20
-16.514
11
81.8594
21
-16.4426
0
LINE
8
BLACK
10
81.8594
20
-16.4426
11
82.2166
21
-16.4426
0
LINE
8
BLACK
10
82.2166
20
-16.4426
11
82.3594
21
-16.514
0
LINE
8
BLACK
10
82.3594
20
-16.514
11
82.4309
21
-16.5854
0
LINE
8
BLACK
10
82.4309
20
-16.5854
11
82.5023
21
-16.7283
0
LINE
8
BLACK
10
82.5023
20
-16.7283
11
82.5023
21
-17.0854
0
LINE
8
BLACK
10
82.5023
20
-17.0854
11
82.4309
21
-17.2283
0
LINE
8
BLACK
10
82.4309
20
-17.2283
11
82.3594
21
-17.2997
0
LINE
8
BLACK
10
82.3594
20
-17.2997
11
82.2166
21
-17.3711
0
LINE
8
BLACK
10
82.2166
20
-17.3711
11
81.8594
21
-17.3711
0
LINE
8
BLACK
10
81.8594
20
-17.3711
11
81.7166
21
-17.2997
0
LINE
8
BLACK
10
81.7166
20
-17.2997
11
81.6451
21
-17.2283
0
LINE
8
BLACK
10
82.9309
20
-15.8711
11
83.4309
21
-17.3711
0
LINE
8
BLACK
10
83.4309
20
-17.3711
11
83.9309
21
-15.8711
0
LINE
8
BLACK
10
80.6451
20
-20.7426
11
80.5023
21
-20.6711
0
LINE
8
BLACK
10
80.5023
20
-20.6711
11
80.288
21
-20.6711
0
LINE
8
BLACK
10
80.288
20
-20.6711
11
80.0737
21
-20.7426
0
LINE
8
BLACK
10
80.0737
20
-20.7426
11
79.9309
21
-20.8854
0
LINE
8
BLACK
10
79.9309
20
-20.8854
11
79.8594
21
-21.0283
0
LINE
8
BLACK
10
79.8594
20
-21.0283
11
79.788
21
-21.314
0
LINE
8
BLACK
10
79.788
20
-21.314
11
79.788
21
-21.5283
0
LINE
8
BLACK
10
79.788
20
-21.5283
11
79.8594
21
-21.814
0
LINE
8
BLACK
10
79.8594
20
-21.814
11
79.9309
21
-21.9569
0
LINE
8
BLACK
10
79.9309
20
-21.9569
11
80.0737
21
-22.0997
0
LINE
8
BLACK
10
80.0737
20
-22.0997
11
80.288
21
-22.1711
0
LINE
8
BLACK
10
80.288
20
-22.1711
11
80.4309
21
-22.1711
0
LINE
8
BLACK
10
80.4309
20
-22.1711
11
80.6451
21
-22.0997
0
LINE
8
BLACK
10
80.6451
20
-22.0997
11
80.7166
21
-22.0283
0
LINE
8
BLACK
10
80.7166
20
-22.0283
11
80.7166
21
-21.5283
0
LINE
8
BLACK
10
80.7166
20
-21.5283
11
80.4309
21
-21.5283
0
LINE
8
BLACK
10
81.3594
20
-22.1711
11
81.3594
21
-20.6711
0
LINE
8
BLACK
10
81.3594
20
-20.6711
11
82.2166
21
-22.1711
0
LINE
8
BLACK
10
82.2166
20
-22.1711
11
82.2166
21
-20.6711
0
LINE
8
BLACK
10
82.9309
20
-22.1711
11
82.9309
21
-20.6711
0
LINE
8
BLACK
10
82.9309
20
-20.6711
11
83.288
21
-20.6711
0
LINE
8
BLACK
10
83.288
20
-20.6711
11
83.5023
21
-20.7426
0
LINE
8
BLACK
10
83.5023
20
-20.7426
11
83.6451
21
-20.8854
0
LINE
8
BLACK
10
83.6451
20
-20.8854
11
83.7166
21
-21.0283
0
LINE
8
BLACK
10
83.7166
20
-21.0283
11
83.788
21
-21.314
0
LINE
8
BLACK
10
83.788
20
-21.314
11
83.788
21
-21.5283
0
LINE
8
BLACK
10
83.788
20
-21.5283
11
83.7166
21
-21.814
0
LINE
8
BLACK
10
83.7166
20
-21.814
11
83.6451
21
-21.9569
0
LINE
8
BLACK
10
83.6451
20
-21.9569
11
83.5023
21
-22.0997
0
LINE
8
BLACK
10
83.5023
20
-22.0997
11
83.288
21
-22.1711
0
LINE
8
BLACK
10
83.288
20
-22.1711
11
82.9309
21
-22.1711
0
LINE
8
BLACK
10
88.8764
20
-63.3214
11
89.0907
21
-63.3929
0
LINE
8
BLACK
10
89.0907
20
-63.3929
11
89.1621
21
-63.4643
0
LINE
8
BLACK
10
89.1621
20
-63.4643
11
89.2336
21
-63.6071
0
LINE
8
BLACK
10
89.2336
20
-63.6071
11
89.2336
21
-63.8214
0
LINE
8
BLACK
10
89.2336
20
-63.8214
11
89.1621
21
-63.9643
0
LINE
8
BLACK
10
89.1621
20
-63.9643
11
89.0907
21
-64.0357
0
LINE
8
BLACK
10
89.0907
20
-64.0357
11
88.9479
21
-64.1071
0
LINE
8
BLACK
10
88.9479
20
-64.1071
11
88.3764
21
-64.1071
0
LINE
8
BLACK
10
88.3764
20
-64.1071
11
88.3764
21
-62.6071
0
LINE
8
BLACK
10
88.3764
20
-62.6071
11
88.8764
21
-62.6071
0
LINE
8
BLACK
10
88.8764
20
-62.6071
11
89.0193
21
-62.6786
0
LINE
8
BLACK
10
89.0193
20
-62.6786
11
89.0907
21
-62.75
0
LINE
8
BLACK
10
89.0907
20
-62.75
11
89.1621
21
-62.8929
0
LINE
8
BLACK
10
89.1621
20
-62.8929
11
89.1621
21
-63.0357
0
LINE
8
BLACK
10
89.1621
20
-63.0357
11
89.0907
21
-63.1786
0
LINE
8
BLACK
10
89.0907
20
-63.1786
11
89.0193
21
-63.25
0
LINE
8
BLACK
10
89.0193
20
-63.25
11
88.8764
21
-63.3214
0
LINE
8
BLACK
10
88.8764
20
-63.3214
11
88.3764
21
-63.3214
0
LINE
8
BLACK
10
89.805
20
-63.6786
11
90.5193
21
-63.6786
0
LINE
8
BLACK
10
89.6621
20
-64.1071
11
90.1621
21
-62.6071
0
LINE
8
BLACK
10
90.1621
20
-62.6071
11
90.6621
21
-64.1071
0
LINE
8
BLACK
10
91.0907
20
-64.0357
11
91.305
21
-64.1071
0
LINE
8
BLACK
10
91.305
20
-64.1071
11
91.6621
21
-64.1071
0
LINE
8
BLACK
10
91.6621
20
-64.1071
11
91.805
21
-64.0357
0
LINE
8
BLACK
10
91.805
20
-64.0357
11
91.8764
21
-63.9643
0
LINE
8
BLACK
10
91.8764
20
-63.9643
11
91.9479
21
-63.8214
0
LINE
8
BLACK
10
91.9479
20
-63.8214
11
91.9479
21
-63.6786
0
LINE
8
BLACK
10
91.9479
20
-63.6786
11
91.8764
21
-63.5357
0
LINE
8
BLACK
10
91.8764
20
-63.5357
11
91.805
21
-63.4643
0
LINE
8
BLACK
10
91.805
20
-63.4643
11
91.6621
21
-63.3929
0
LINE
8
BLACK
10
91.6621
20
-63.3929
11
91.3764
21
-63.3214
0
LINE
8
BLACK
10
91.3764
20
-63.3214
11
91.2336
21
-63.25
0
LINE
8
BLACK
10
91.2336
20
-63.25
11
91.1621
21
-63.1786
0
LINE
8
BLACK
10
91.1621
20
-63.1786
11
91.0907
21
-63.0357
0
LINE
8
BLACK
10
91.0907
20
-63.0357
11
91.0907
21
-62.8929
0
LINE
8
BLACK
10
91.0907
20
-62.8929
11
91.1621
21
-62.75
0
LINE
8
BLACK
10
91.1621
20
-62.75
11
91.2336
21
-62.6786
0
LINE
8
BLACK
10
91.2336
20
-62.6786
11
91.3764
21
-62.6071
0
LINE
8
BLACK
10
91.3764
20
-62.6071
11
91.7336
21
-62.6071
0
LINE
8
BLACK
10
91.7336
20
-62.6071
11
91.9479
21
-62.6786
0
LINE
8
BLACK
10
92.5907
20
-63.3214
11
93.0907
21
-63.3214
0
LINE
8
BLACK
10
93.305
20
-64.1071
11
92.5907
21
-64.1071
0
LINE
8
BLACK
10
92.5907
20
-64.1071
11
92.5907
21
-62.6071
0
LINE
8
BLACK
10
92.5907
20
-62.6071
11
93.305
21
-62.6071
0
LINE
8
BLACK
10
88.9479
20
-66.0786
11
89.6621
21
-66.0786
0
LINE
8
BLACK
10
88.805
20
-66.5071
11
89.305
21
-65.0071
0
LINE
8
BLACK
10
89.305
20
-65.0071
11
89.805
21
-66.5071
0
LINE
8
BLACK
10
90.305
20
-66.5071
11
90.305
21
-65.0071
0
LINE
8
BLACK
10
90.305
20
-65.0071
11
90.6621
21
-65.0071
0
LINE
8
BLACK
10
90.6621
20
-65.0071
11
90.8764
21
-65.0786
0
LINE
8
BLACK
10
90.8764
20
-65.0786
11
91.0193
21
-65.2214
0
LINE
8
BLACK
10
91.0193
20
-65.2214
11
91.0907
21
-65.3643
0
LINE
8
BLACK
10
91.0907
20
-65.3643
11
91.1621
21
-65.65
0
LINE
8
BLACK
10
91.1621
20
-65.65
11
91.1621
21
-65.8643
0
LINE
8
BLACK
10
91.1621
20
-65.8643
11
91.0907
21
-66.15
0
LINE
8
BLACK
10
91.0907
20
-66.15
11
91.0193
21
-66.2929
0
LINE
8
BLACK
10
91.0193
20
-66.2929
11
90.8764
21
-66.4357
0
LINE
8
BLACK
10
90.8764
20
-66.4357
11
90.6621
21
-66.5071
0
LINE
8
BLACK
10
90.6621
20
-66.5071
11
90.305
21
-66.5071
0
LINE
8
BLACK
10
92.6621
20
-66.5071
11
92.1621
21
-65.7929
0
LINE
8
BLACK
10
91.805
20
-66.5071
11
91.805
21
-65.0071
0
LINE
8
BLACK
10
91.805
20
-65.0071
11
92.3764
21
-65.0071
0
LINE
8
BLACK
10
92.3764
20
-65.0071
11
92.5193
21
-65.0786
0
LINE
8
BLACK
10
92.5193
20
-65.0786
11
92.5907
21
-65.15
0
LINE
8
BLACK
10
92.5907
20
-65.15
11
92.6621
21
-65.2929
0
LINE
8
BLACK
10
92.6621
20
-65.2929
11
92.6621
21
-65.5071
0
LINE
8
BLACK
10
92.6621
20
-65.5071
11
92.5907
21
-65.65
0
LINE
8
BLACK
10
92.5907
20
-65.65
11
92.5193
21
-65.7214
0
LINE
8
BLACK
10
92.5193
20
-65.7214
11
92.3764
21
-65.7929
0
LINE
8
BLACK
10
92.3764
20
-65.7929
11
91.805
21
-65.7929
0
LINE
8
BLACK
10
88.9836
20
-68.9071
11
89.7693
21
-67.9071
0
LINE
8
BLACK
10
88.9836
20
-67.9071
11
89.7693
21
-68.9071
0
LINE
8
BLACK
10
90.2693
20
-67.55
11
90.3407
21
-67.4786
0
LINE
8
BLACK
10
90.3407
20
-67.4786
11
90.4836
21
-67.4071
0
LINE
8
BLACK
10
90.4836
20
-67.4071
11
90.8407
21
-67.4071
0
LINE
8
BLACK
10
90.8407
20
-67.4071
11
90.9836
21
-67.4786
0
LINE
8
BLACK
10
90.9836
20
-67.4786
11
91.055
21
-67.55
0
LINE
8
BLACK
10
91.055
20
-67.55
11
91.1264
21
-67.6929
0
LINE
8
BLACK
10
91.1264
20
-67.6929
11
91.1264
21
-67.8357
0
LINE
8
BLACK
10
91.1264
20
-67.8357
11
91.055
21
-68.05
0
LINE
8
BLACK
10
91.055
20
-68.05
11
90.1979
21
-68.9071
0
LINE
8
BLACK
10
90.1979
20
-68.9071
11
91.1264
21
-68.9071
0
LINE
8
BLACK
10
92.055
20
-67.4071
11
92.1979
21
-67.4071
0
LINE
8
BLACK
10
92.1979
20
-67.4071
11
92.3407
21
-67.4786
0
LINE
8
BLACK
10
92.3407
20
-67.4786
11
92.4121
21
-67.55
0
LINE
8
BLACK
10
92.4121
20
-67.55
11
92.4836
21
-67.6929
0
LINE
8
BLACK
10
92.4836
20
-67.6929
11
92.555
21
-67.9786
0
LINE
8
BLACK
10
92.555
20
-67.9786
11
92.555
21
-68.3357
0
LINE
8
BLACK
10
92.555
20
-68.3357
11
92.4836
21
-68.6214
0
LINE
8
BLACK
10
92.4836
20
-68.6214
11
92.4121
21
-68.7643
0
LINE
8
BLACK
10
92.4121
20
-68.7643
11
92.3407
21
-68.8357
0
LINE
8
BLACK
10
92.3407
20
-68.8357
11
92.1979
21
-68.9071
0
LINE
8
BLACK
10
92.1979
20
-68.9071
11
92.055
21
-68.9071
0
LINE
8
BLACK
10
92.055
20
-68.9071
11
91.9121
21
-68.8357
0
LINE
8
BLACK
10
91.9121
20
-68.8357
11
91.8407
21
-68.7643
0
LINE
8
BLACK
10
91.8407
20
-68.7643
11
91.7693
21
-68.6214
0
LINE
8
BLACK
10
91.7693
20
-68.6214
11
91.6979
21
-68.3357
0
LINE
8
BLACK
10
91.6979
20
-68.3357
11
91.6979
21
-67.9786
0
LINE
8
BLACK
10
91.6979
20
-67.9786
11
91.7693
21
-67.6929
0
LINE
8
BLACK
10
91.7693
20
-67.6929
11
91.8407
21
-67.55
0
LINE
8
BLACK
10
91.8407
20
-67.55
11
91.9121
21
-67.4786
0
LINE
8
BLACK
10
91.9121
20
-67.4786
11
92.055
21
-67.4071
0
LINE
8
BLACK
10
57.1519
20
-80.9495
11
56.9614
21
-80.8543
0
LINE
8
BLACK
10
56.9614
20
-80.8543
11
56.8662
21
-80.6638
0
LINE
8
BLACK
10
56.8662
20
-80.6638
11
56.8662
21
-78.9495
0
LINE
8
BLACK
10
58.771
20
-80.9495
11
58.771
21
-79.9019
0
LINE
8
BLACK
10
58.771
20
-79.9019
11
58.6757
21
-79.7114
0
LINE
8
BLACK
10
58.6757
20
-79.7114
11
58.4852
21
-79.6162
0
LINE
8
BLACK
10
58.4852
20
-79.6162
11
58.1043
21
-79.6162
0
LINE
8
BLACK
10
58.1043
20
-79.6162
11
57.9138
21
-79.7114
0
LINE
8
BLACK
10
58.771
20
-80.8543
11
58.5805
21
-80.9495
0
LINE
8
BLACK
10
58.5805
20
-80.9495
11
58.1043
21
-80.9495
0
LINE
8
BLACK
10
58.1043
20
-80.9495
11
57.9138
21
-80.8543
0
LINE
8
BLACK
10
57.9138
20
-80.8543
11
57.8186
21
-80.6638
0
LINE
8
BLACK
10
57.8186
20
-80.6638
11
57.8186
21
-80.4733
0
LINE
8
BLACK
10
57.8186
20
-80.4733
11
57.9138
21
-80.2829
0
LINE
8
BLACK
10
57.9138
20
-80.2829
11
58.1043
21
-80.1876
0
LINE
8
BLACK
10
58.1043
20
-80.1876
11
58.5805
21
-80.1876
0
LINE
8
BLACK
10
58.5805
20
-80.1876
11
58.771
21
-80.0924
0
LINE
8
BLACK
10
59.7233
20
-79.6162
11
59.7233
21
-80.9495
0
LINE
8
BLACK
10
59.7233
20
-79.8067
11
59.8186
21
-79.7114
0
LINE
8
BLACK
10
59.8186
20
-79.7114
11
60.009
21
-79.6162
0
LINE
8
BLACK
10
60.009
20
-79.6162
11
60.2948
21
-79.6162
0
LINE
8
BLACK
10
60.2948
20
-79.6162
11
60.4852
21
-79.7114
0
LINE
8
BLACK
10
60.4852
20
-79.7114
11
60.5805
21
-79.9019
0
LINE
8
BLACK
10
60.5805
20
-79.9019
11
60.5805
21
-80.9495
0
LINE
8
BLACK
10
62.39
20
-80.9495
11
62.39
21
-78.9495
0
LINE
8
BLACK
10
62.39
20
-80.8543
11
62.1995
21
-80.9495
0
LINE
8
BLACK
10
62.1995
20
-80.9495
11
61.8186
21
-80.9495
0
LINE
8
BLACK
10
61.8186
20
-80.9495
11
61.6281
21
-80.8543
0
LINE
8
BLACK
10
61.6281
20
-80.8543
11
61.5329
21
-80.759
0
LINE
8
BLACK
10
61.5329
20
-80.759
11
61.4376
21
-80.5686
0
LINE
8
BLACK
10
61.4376
20
-80.5686
11
61.4376
21
-79.9971
0
LINE
8
BLACK
10
61.4376
20
-79.9971
11
61.5329
21
-79.8067
0
LINE
8
BLACK
10
61.5329
20
-79.8067
11
61.6281
21
-79.7114
0
LINE
8
BLACK
10
61.6281
20
-79.7114
11
61.8186
21
-79.6162
0
LINE
8
BLACK
10
61.8186
20
-79.6162
11
62.1995
21
-79.6162
0
LINE
8
BLACK
10
62.1995
20
-79.6162
11
62.39
21
-79.7114
0
LINE
8
BLACK
10
63.3424
20
-80.1876
11
64.8662
21
-80.1876
0
LINE
8
BLACK
10
65.8186
20
-80.9495
11
65.8186
21
-78.9495
0
LINE
8
BLACK
10
65.8186
20
-79.7114
11
66.009
21
-79.6162
0
LINE
8
BLACK
10
66.009
20
-79.6162
11
66.39
21
-79.6162
0
LINE
8
BLACK
10
66.39
20
-79.6162
11
66.5805
21
-79.7114
0
LINE
8
BLACK
10
66.5805
20
-79.7114
11
66.6757
21
-79.8067
0
LINE
8
BLACK
10
66.6757
20
-79.8067
11
66.771
21
-79.9971
0
LINE
8
BLACK
10
66.771
20
-79.9971
11
66.771
21
-80.5686
0
LINE
8
BLACK
10
66.771
20
-80.5686
11
66.6757
21
-80.759
0
LINE
8
BLACK
10
66.6757
20
-80.759
11
66.5805
21
-80.8543
0
LINE
8
BLACK
10
66.5805
20
-80.8543
11
66.39
21
-80.9495
0
LINE
8
BLACK
10
66.39
20
-80.9495
11
66.009
21
-80.9495
0
LINE
8
BLACK
10
66.009
20
-80.9495
11
65.8186
21
-80.8543
0
LINE
8
BLACK
10
67.9138
20
-80.9495
11
67.7233
21
-80.8543
0
LINE
8
BLACK
10
67.7233
20
-80.8543
11
67.6281
21
-80.759
0
LINE
8
BLACK
10
67.6281
20
-80.759
11
67.5329
21
-80.5686
0
LINE
8
BLACK
10
67.5329
20
-80.5686
11
67.5329
21
-79.9971
0
LINE
8
BLACK
10
67.5329
20
-79.9971
11
67.6281
21
-79.8067
0
LINE
8
BLACK
10
67.6281
20
-79.8067
11
67.7233
21
-79.7114
0
LINE
8
BLACK
10
67.7233
20
-79.7114
11
67.9138
21
-79.6162
0
LINE
8
BLACK
10
67.9138
20
-79.6162
11
68.1995
21
-79.6162
0
LINE
8
BLACK
10
68.1995
20
-79.6162
11
68.39
21
-79.7114
0
LINE
8
BLACK
10
68.39
20
-79.7114
11
68.4852
21
-79.8067
0
LINE
8
BLACK
10
68.4852
20
-79.8067
11
68.5805
21
-79.9971
0
LINE
8
BLACK
10
68.5805
20
-79.9971
11
68.5805
21
-80.5686
0
LINE
8
BLACK
10
68.5805
20
-80.5686
11
68.4852
21
-80.759
0
LINE
8
BLACK
10
68.4852
20
-80.759
11
68.39
21
-80.8543
0
LINE
8
BLACK
10
68.39
20
-80.8543
11
68.1995
21
-80.9495
0
LINE
8
BLACK
10
68.1995
20
-80.9495
11
67.9138
21
-80.9495
0
LINE
8
BLACK
10
70.2948
20
-80.9495
11
70.2948
21
-79.9019
0
LINE
8
BLACK
10
70.2948
20
-79.9019
11
70.1995
21
-79.7114
0
LINE
8
BLACK
10
70.1995
20
-79.7114
11
70.009
21
-79.6162
0
LINE
8
BLACK
10
70.009
20
-79.6162
11
69.6281
21
-79.6162
0
LINE
8
BLACK
10
69.6281
20
-79.6162
11
69.4376
21
-79.7114
0
LINE
8
BLACK
10
70.2948
20
-80.8543
11
70.1043
21
-80.9495
0
LINE
8
BLACK
10
70.1043
20
-80.9495
11
69.6281
21
-80.9495
0
LINE
8
BLACK
10
69.6281
20
-80.9495
11
69.4376
21
-80.8543
0
LINE
8
BLACK
10
69.4376
20
-80.8543
11
69.3424
21
-80.6638
0
LINE
8
BLACK
10
69.3424
20
-80.6638
11
69.3424
21
-80.4733
0
LINE
8
BLACK
10
69.3424
20
-80.4733
11
69.4376
21
-80.2829
0
LINE
8
BLACK
10
69.4376
20
-80.2829
11
69.6281
21
-80.1876
0
LINE
8
BLACK
10
69.6281
20
-80.1876
11
70.1043
21
-80.1876
0
LINE
8
BLACK
10
70.1043
20
-80.1876
11
70.2948
21
-80.0924
0
LINE
8
BLACK
10
71.2471
20
-80.9495
11
71.2471
21
-79.6162
0
LINE
8
BLACK
10
71.2471
20
-79.9971
11
71.3424
21
-79.8067
0
LINE
8
BLACK
10
71.3424
20
-79.8067
11
71.4376
21
-79.7114
0
LINE
8
BLACK
10
71.4376
20
-79.7114
11
71.6281
21
-79.6162
0
LINE
8
BLACK
10
71.6281
20
-79.6162
11
71.8186
21
-79.6162
0
LINE
8
BLACK
10
73.3424
20
-80.9495
11
73.3424
21
-78.9495
0
LINE
8
BLACK
10
73.3424
20
-80.8543
11
73.1519
21
-80.9495
0
LINE
8
BLACK
10
73.1519
20
-80.9495
11
72.771
21
-80.9495
0
LINE
8
BLACK
10
72.771
20
-80.9495
11
72.5805
21
-80.8543
0
LINE
8
BLACK
10
72.5805
20
-80.8543
11
72.4852
21
-80.759
0
LINE
8
BLACK
10
72.4852
20
-80.759
11
72.39
21
-80.5686
0
LINE
8
BLACK
10
72.39
20
-80.5686
11
72.39
21
-79.9971
0
LINE
8
BLACK
10
72.39
20
-79.9971
11
72.4852
21
-79.8067
0
LINE
8
BLACK
10
72.4852
20
-79.8067
11
72.5805
21
-79.7114
0
LINE
8
BLACK
10
72.5805
20
-79.7114
11
72.771
21
-79.6162
0
LINE
8
BLACK
10
72.771
20
-79.6162
11
73.1519
21
-79.6162
0
LINE
8
BLACK
10
73.1519
20
-79.6162
11
73.3424
21
-79.7114
0
LINE
8
BLACK
10
74.1995
20
-80.8543
11
74.39
21
-80.9495
0
LINE
8
BLACK
10
74.39
20
-80.9495
11
74.771
21
-80.9495
0
LINE
8
BLACK
10
74.771
20
-80.9495
11
74.9614
21
-80.8543
0
LINE
8
BLACK
10
74.9614
20
-80.8543
11
75.0567
21
-80.6638
0
LINE
8
BLACK
10
75.0567
20
-80.6638
11
75.0567
21
-80.5686
0
LINE
8
BLACK
10
75.0567
20
-80.5686
11
74.9614
21
-80.3781
0
LINE
8
BLACK
10
74.9614
20
-80.3781
11
74.771
21
-80.2829
0
LINE
8
BLACK
10
74.771
20
-80.2829
11
74.4852
21
-80.2829
0
LINE
8
BLACK
10
74.4852
20
-80.2829
11
74.2948
21
-80.1876
0
LINE
8
BLACK
10
74.2948
20
-80.1876
11
74.1995
21
-79.9971
0
LINE
8
BLACK
10
74.1995
20
-79.9971
11
74.1995
21
-79.9019
0
LINE
8
BLACK
10
74.1995
20
-79.9019
11
74.2948
21
-79.7114
0
LINE
8
BLACK
10
74.2948
20
-79.7114
11
74.4852
21
-79.6162
0
LINE
8
BLACK
10
74.4852
20
-79.6162
11
74.771
21
-79.6162
0
LINE
8
BLACK
10
74.771
20
-79.6162
11
74.9614
21
-79.7114
0
LINE
8
BLACK
10
75.9138
20
-80.759
11
76.009
21
-80.8543
0
LINE
8
BLACK
10
76.009
20
-80.8543
11
75.9138
21
-80.9495
0
LINE
8
BLACK
10
75.9138
20
-80.9495
11
75.8186
21
-80.8543
0
LINE
8
BLACK
10
75.8186
20
-80.8543
11
75.9138
21
-80.759
0
LINE
8
BLACK
10
75.9138
20
-80.759
11
75.9138
21
-80.9495
0
LINE
8
BLACK
10
77.7233
20
-80.8543
11
77.5329
21
-80.9495
0
LINE
8
BLACK
10
77.5329
20
-80.9495
11
77.1519
21
-80.9495
0
LINE
8
BLACK
10
77.1519
20
-80.9495
11
76.9614
21
-80.8543
0
LINE
8
BLACK
10
76.9614
20
-80.8543
11
76.8662
21
-80.759
0
LINE
8
BLACK
10
76.8662
20
-80.759
11
76.771
21
-80.5686
0
LINE
8
BLACK
10
76.771
20
-80.5686
11
76.771
21
-79.9971
0
LINE
8
BLACK
10
76.771
20
-79.9971
11
76.8662
21
-79.8067
0
LINE
8
BLACK
10
76.8662
20
-79.8067
11
76.9614
21
-79.7114
0
LINE
8
BLACK
10
76.9614
20
-79.7114
11
77.1519
21
-79.6162
0
LINE
8
BLACK
10
77.1519
20
-79.6162
11
77.5329
21
-79.6162
0
LINE
8
BLACK
10
77.5329
20
-79.6162
11
77.7233
21
-79.7114
0
LINE
8
BLACK
10
78.8662
20
-80.9495
11
78.6757
21
-80.8543
0
LINE
8
BLACK
10
78.6757
20
-80.8543
11
78.5805
21
-80.759
0
LINE
8
BLACK
10
78.5805
20
-80.759
11
78.4852
21
-80.5686
0
LINE
8
BLACK
10
78.4852
20
-80.5686
11
78.4852
21
-79.9971
0
LINE
8
BLACK
10
78.4852
20
-79.9971
11
78.5805
21
-79.8067
0
LINE
8
BLACK
10
78.5805
20
-79.8067
11
78.6757
21
-79.7114
0
LINE
8
BLACK
10
78.6757
20
-79.7114
11
78.8662
21
-79.6162
0
LINE
8
BLACK
10
78.8662
20
-79.6162
11
79.1519
21
-79.6162
0
LINE
8
BLACK
10
79.1519
20
-79.6162
11
79.3424
21
-79.7114
0
LINE
8
BLACK
10
79.3424
20
-79.7114
11
79.4376
21
-79.8067
0
LINE
8
BLACK
10
79.4376
20
-79.8067
11
79.5329
21
-79.9971
0
LINE
8
BLACK
10
79.5329
20
-79.9971
11
79.5329
21
-80.5686
0
LINE
8
BLACK
10
79.5329
20
-80.5686
11
79.4376
21
-80.759
0
LINE
8
BLACK
10
79.4376
20
-80.759
11
79.3424
21
-80.8543
0
LINE
8
BLACK
10
79.3424
20
-80.8543
11
79.1519
21
-80.9495
0
LINE
8
BLACK
10
79.1519
20
-80.9495
11
78.8662
21
-80.9495
0
LINE
8
BLACK
10
80.39
20
-80.9495
11
80.39
21
-79.6162
0
LINE
8
BLACK
10
80.39
20
-79.8067
11
80.4852
21
-79.7114
0
LINE
8
BLACK
10
80.4852
20
-79.7114
11
80.6757
21
-79.6162
0
LINE
8
BLACK
10
80.6757
20
-79.6162
11
80.9614
21
-79.6162
0
LINE
8
BLACK
10
80.9614
20
-79.6162
11
81.1519
21
-79.7114
0
LINE
8
BLACK
10
81.1519
20
-79.7114
11
81.2471
21
-79.9019
0
LINE
8
BLACK
10
81.2471
20
-79.9019
11
81.2471
21
-80.9495
0
LINE
8
BLACK
10
81.2471
20
-79.9019
11
81.3424
21
-79.7114
0
LINE
8
BLACK
10
81.3424
20
-79.7114
11
81.5329
21
-79.6162
0
LINE
8
BLACK
10
81.5329
20
-79.6162
11
81.8186
21
-79.6162
0
LINE
8
BLACK
10
81.8186
20
-79.6162
11
82.009
21
-79.7114
0
LINE
8
BLACK
10
82.009
20
-79.7114
11
82.1043
21
-79.9019
0
LINE
8
BLACK
10
82.1043
20
-79.9019
11
82.1043
21
-80.9495
0
LINE
8
BLACK
10
84.4852
20
-78.8543
11
82.771
21
-81.4257
0
LINE
8
BLACK
10
57.2471
20
-82.2495
11
57.6281
21
-82.2495
0
LINE
8
BLACK
10
57.6281
20
-82.2495
11
57.8186
21
-82.3448
0
LINE
8
BLACK
10
57.8186
20
-82.3448
11
58.009
21
-82.5352
0
LINE
8
BLACK
10
58.009
20
-82.5352
11
58.1043
21
-82.9162
0
LINE
8
BLACK
10
58.1043
20
-82.9162
11
58.1043
21
-83.5829
0
LINE
8
BLACK
10
58.1043
20
-83.5829
11
58.009
21
-83.9638
0
LINE
8
BLACK
10
58.009
20
-83.9638
11
57.8186
21
-84.1543
0
LINE
8
BLACK
10
57.8186
20
-84.1543
11
57.6281
21
-84.2495
0
LINE
8
BLACK
10
57.6281
20
-84.2495
11
57.2471
21
-84.2495
0
LINE
8
BLACK
10
57.2471
20
-84.2495
11
57.0567
21
-84.1543
0
LINE
8
BLACK
10
57.0567
20
-84.1543
11
56.8662
21
-83.9638
0
LINE
8
BLACK
10
56.8662
20
-83.9638
11
56.771
21
-83.5829
0
LINE
8
BLACK
10
56.771
20
-83.5829
11
56.771
21
-82.9162
0
LINE
8
BLACK
10
56.771
20
-82.9162
11
56.8662
21
-82.5352
0
LINE
8
BLACK
10
56.8662
20
-82.5352
11
57.0567
21
-82.3448
0
LINE
8
BLACK
10
57.0567
20
-82.3448
11
57.2471
21
-82.2495
0
LINE
8
BLACK
10
58.9614
20
-82.9162
11
58.9614
21
-84.9162
0
LINE
8
BLACK
10
58.9614
20
-83.0114
11
59.1519
21
-82.9162
0
LINE
8
BLACK
10
59.1519
20
-82.9162
11
59.5329
21
-82.9162
0
LINE
8
BLACK
10
59.5329
20
-82.9162
11
59.7233
21
-83.0114
0
LINE
8
BLACK
10
59.7233
20
-83.0114
11
59.8186
21
-83.1067
0
LINE
8
BLACK
10
59.8186
20
-83.1067
11
59.9138
21
-83.2971
0
LINE
8
BLACK
10
59.9138
20
-83.2971
11
59.9138
21
-83.8686
0
LINE
8
BLACK
10
59.9138
20
-83.8686
11
59.8186
21
-84.059
0
LINE
8
BLACK
10
59.8186
20
-84.059
11
59.7233
21
-84.1543
0
LINE
8
BLACK
10
59.7233
20
-84.1543
11
59.5329
21
-84.2495
0
LINE
8
BLACK
10
59.5329
20
-84.2495
11
59.1519
21
-84.2495
0
LINE
8
BLACK
10
59.1519
20
-84.2495
11
58.9614
21
-84.1543
0
LINE
8
BLACK
10
60.4852
20
-82.9162
11
61.2471
21
-82.9162
0
LINE
8
BLACK
10
60.771
20
-82.2495
11
60.771
21
-83.9638
0
LINE
8
BLACK
10
60.771
20
-83.9638
11
60.8662
21
-84.1543
0
LINE
8
BLACK
10
60.8662
20
-84.1543
11
61.0567
21
-84.2495
0
LINE
8
BLACK
10
61.0567
20
-84.2495
11
61.2471
21
-84.2495
0
LINE
8
BLACK
10
62.1995
20
-84.2495
11
62.009
21
-84.1543
0
LINE
8
BLACK
10
62.009
20
-84.1543
11
61.9138
21
-84.059
0
LINE
8
BLACK
10
61.9138
20
-84.059
11
61.8186
21
-83.8686
0
LINE
8
BLACK
10
61.8186
20
-83.8686
11
61.8186
21
-83.2971
0
LINE
8
BLACK
10
61.8186
20
-83.2971
11
61.9138
21
-83.1067
0
LINE
8
BLACK
10
61.9138
20
-83.1067
11
62.009
21
-83.0114
0
LINE
8
BLACK
10
62.009
20
-83.0114
11
62.1995
21
-82.9162
0
LINE
8
BLACK
10
62.1995
20
-82.9162
11
62.4852
21
-82.9162
0
LINE
8
BLACK
10
62.4852
20
-82.9162
11
62.6757
21
-83.0114
0
LINE
8
BLACK
10
62.6757
20
-83.0114
11
62.771
21
-83.1067
0
LINE
8
BLACK
10
62.771
20
-83.1067
11
62.8662
21
-83.2971
0
LINE
8
BLACK
10
62.8662
20
-83.2971
11
62.8662
21
-83.8686
0
LINE
8
BLACK
10
62.8662
20
-83.8686
11
62.771
21
-84.059
0
LINE
8
BLACK
10
62.771
20
-84.059
11
62.6757
21
-84.1543
0
LINE
8
BLACK
10
62.6757
20
-84.1543
11
62.4852
21
-84.2495
0
LINE
8
BLACK
10
62.4852
20
-84.2495
11
62.1995
21
-84.2495
0
LINE
8
BLACK
10
63.7233
20
-84.2495
11
63.7233
21
-82.2495
0
LINE
8
BLACK
10
64.6757
20
-82.9162
11
64.6757
21
-84.2495
0
LINE
8
BLACK
10
64.6757
20
-83.1067
11
64.771
21
-83.0114
0
LINE
8
BLACK
10
64.771
20
-83.0114
11
64.9614
21
-82.9162
0
LINE
8
BLACK
10
64.9614
20
-82.9162
11
65.2471
21
-82.9162
0
LINE
8
BLACK
10
65.2471
20
-82.9162
11
65.4376
21
-83.0114
0
LINE
8
BLACK
10
65.4376
20
-83.0114
11
65.5329
21
-83.2019
0
LINE
8
BLACK
10
65.5329
20
-83.2019
11
65.5329
21
-84.2495
0
LINE
8
BLACK
10
66.771
20
-83.1067
11
66.5805
21
-83.0114
0
LINE
8
BLACK
10
66.5805
20
-83.0114
11
66.4852
21
-82.9162
0
LINE
8
BLACK
10
66.4852
20
-82.9162
11
66.39
21
-82.7257
0
LINE
8
BLACK
10
66.39
20
-82.7257
11
66.39
21
-82.6305
0
LINE
8
BLACK
10
66.39
20
-82.6305
11
66.4852
21
-82.44
0
LINE
8
BLACK
10
66.4852
20
-82.44
11
66.5805
21
-82.3448
0
LINE
8
BLACK
10
66.5805
20
-82.3448
11
66.771
21
-82.2495
0
LINE
8
BLACK
10
66.771
20
-82.2495
11
67.1519
21
-82.2495
0
LINE
8
BLACK
10
67.1519
20
-82.2495
11
67.3424
21
-82.3448
0
LINE
8
BLACK
10
67.3424
20
-82.3448
11
67.4376
21
-82.44
0
LINE
8
BLACK
10
67.4376
20
-82.44
11
67.5329
21
-82.6305
0
LINE
8
BLACK
10
67.5329
20
-82.6305
11
67.5329
21
-82.7257
0
LINE
8
BLACK
10
67.5329
20
-82.7257
11
67.4376
21
-82.9162
0
LINE
8
BLACK
10
67.4376
20
-82.9162
11
67.3424
21
-83.0114
0
LINE
8
BLACK
10
67.3424
20
-83.0114
11
67.1519
21
-83.1067
0
LINE
8
BLACK
10
67.1519
20
-83.1067
11
66.771
21
-83.1067
0
LINE
8
BLACK
10
66.771
20
-83.1067
11
66.5805
21
-83.2019
0
LINE
8
BLACK
10
66.5805
20
-83.2019
11
66.4852
21
-83.2971
0
LINE
8
BLACK
10
66.4852
20
-83.2971
11
66.39
21
-83.4876
0
LINE
8
BLACK
10
66.39
20
-83.4876
11
66.39
21
-83.8686
0
LINE
8
BLACK
10
66.39
20
-83.8686
11
66.4852
21
-84.059
0
LINE
8
BLACK
10
66.4852
20
-84.059
11
66.5805
21
-84.1543
0
LINE
8
BLACK
10
66.5805
20
-84.1543
11
66.771
21
-84.2495
0
LINE
8
BLACK
10
66.771
20
-84.2495
11
67.1519
21
-84.2495
0
LINE
8
BLACK
10
67.1519
20
-84.2495
11
67.3424
21
-84.1543
0
LINE
8
BLACK
10
67.3424
20
-84.1543
11
67.4376
21
-84.059
0
LINE
8
BLACK
10
67.4376
20
-84.059
11
67.5329
21
-83.8686
0
LINE
8
BLACK
10
67.5329
20
-83.8686
11
67.5329
21
-83.4876
0
LINE
8
BLACK
10
67.5329
20
-83.4876
11
67.4376
21
-83.2971
0
LINE
8
BLACK
10
67.4376
20
-83.2971
11
67.3424
21
-83.2019
0
LINE
8
BLACK
10
67.3424
20
-83.2019
11
67.1519
21
-83.1067
0
LINE
8
BLACK
10
68.39
20
-83.4876
11
69.9138
21
-83.4876
0
LINE
8
BLACK
10
70.8662
20
-84.2495
11
70.8662
21
-82.2495
0
LINE
8
BLACK
10
71.7233
20
-82.44
11
71.8186
21
-82.3448
0
LINE
8
BLACK
10
71.8186
20
-82.3448
11
72.009
21
-82.2495
0
LINE
8
BLACK
10
72.009
20
-82.2495
11
72.4852
21
-82.2495
0
LINE
8
BLACK
10
72.4852
20
-82.2495
11
72.6757
21
-82.3448
0
LINE
8
BLACK
10
72.6757
20
-82.3448
11
72.771
21
-82.44
0
LINE
8
BLACK
10
72.771
20
-82.44
11
72.8662
21
-82.6305
0
LINE
8
BLACK
10
72.8662
20
-82.6305
11
72.8662
21
-82.821
0
LINE
8
BLACK
10
72.8662
20
-82.821
11
72.771
21
-83.1067
0
LINE
8
BLACK
10
72.771
20
-83.1067
11
71.6281
21
-84.2495
0
LINE
8
BLACK
10
71.6281
20
-84.2495
11
72.8662
21
-84.2495
0
LINE
8
BLACK
10
74.8662
20
-84.059
11
74.771
21
-84.1543
0
LINE
8
BLACK
10
74.771
20
-84.1543
11
74.4852
21
-84.2495
0
LINE
8
BLACK
10
74.4852
20
-84.2495
11
74.2948
21
-84.2495
0
LINE
8
BLACK
10
74.2948
20
-84.2495
11
74.009
21
-84.1543
0
LINE
8
BLACK
10
74.009
20
-84.1543
11
73.8186
21
-83.9638
0
LINE
8
BLACK
10
73.8186
20
-83.9638
11
73.7233
21
-83.7733
0
LINE
8
BLACK
10
73.7233
20
-83.7733
11
73.6281
21
-83.3924
0
LINE
8
BLACK
10
73.6281
20
-83.3924
11
73.6281
21
-83.1067
0
LINE
8
BLACK
10
73.6281
20
-83.1067
11
73.7233
21
-82.7257
0
LINE
8
BLACK
10
73.7233
20
-82.7257
11
73.8186
21
-82.5352
0
LINE
8
BLACK
10
73.8186
20
-82.5352
11
74.009
21
-82.3448
0
LINE
8
BLACK
10
74.009
20
-82.3448
11
74.2948
21
-82.2495
0
LINE
8
BLACK
10
74.2948
20
-82.2495
11
74.4852
21
-82.2495
0
LINE
8
BLACK
10
74.4852
20
-82.2495
11
74.771
21
-82.3448
0
LINE
8
BLACK
10
74.771
20
-82.3448
11
74.8662
21
-82.44
0
LINE
8
BLACK
10
56.8662
20
-87.5495
11
56.8662
21
-85.5495
0
LINE
8
BLACK
10
56.8662
20
-85.5495
11
57.6281
21
-85.5495
0
LINE
8
BLACK
10
57.6281
20
-85.5495
11
57.8186
21
-85.6448
0
LINE
8
BLACK
10
57.8186
20
-85.6448
11
57.9138
21
-85.74
0
LINE
8
BLACK
10
57.9138
20
-85.74
11
58.009
21
-85.9305
0
LINE
8
BLACK
10
58.009
20
-85.9305
11
58.009
21
-86.2162
0
LINE
8
BLACK
10
58.009
20
-86.2162
11
57.9138
21
-86.4067
0
LINE
8
BLACK
10
57.9138
20
-86.4067
11
57.8186
21
-86.5019
0
LINE
8
BLACK
10
57.8186
20
-86.5019
11
57.6281
21
-86.5971
0
LINE
8
BLACK
10
57.6281
20
-86.5971
11
56.8662
21
-86.5971
0
LINE
8
BLACK
10
58.6757
20
-85.5495
11
59.1519
21
-87.5495
0
LINE
8
BLACK
10
59.1519
20
-87.5495
11
59.5329
21
-86.121
0
LINE
8
BLACK
10
59.5329
20
-86.121
11
59.9138
21
-87.5495
0
LINE
8
BLACK
10
59.9138
20
-87.5495
11
60.39
21
-85.5495
0
LINE
8
BLACK
10
61.8186
20
-86.5019
11
62.1043
21
-86.5971
0
LINE
8
BLACK
10
62.1043
20
-86.5971
11
62.1995
21
-86.6924
0
LINE
8
BLACK
10
62.1995
20
-86.6924
11
62.2948
21
-86.8829
0
LINE
8
BLACK
10
62.2948
20
-86.8829
11
62.2948
21
-87.1686
0
LINE
8
BLACK
10
62.2948
20
-87.1686
11
62.1995
21
-87.359
0
LINE
8
BLACK
10
62.1995
20
-87.359
11
62.1043
21
-87.4543
0
LINE
8
BLACK
10
62.1043
20
-87.4543
11
61.9138
21
-87.5495
0
LINE
8
BLACK
10
61.9138
20
-87.5495
11
61.1519
21
-87.5495
0
LINE
8
BLACK
10
61.1519
20
-87.5495
11
61.1519
21
-85.5495
0
LINE
8
BLACK
10
61.1519
20
-85.5495
11
61.8186
21
-85.5495
0
LINE
8
BLACK
10
61.8186
20
-85.5495
11
62.009
21
-85.6448
0
LINE
8
BLACK
10
62.009
20
-85.6448
11
62.1043
21
-85.74
0
LINE
8
BLACK
10
62.1043
20
-85.74
11
62.1995
21
-85.9305
0
LINE
8
BLACK
10
62.1995
20
-85.9305
11
62.1995
21
-86.121
0
LINE
8
BLACK
10
62.1995
20
-86.121
11
62.1043
21
-86.3114
0
LINE
8
BLACK
10
62.1043
20
-86.3114
11
62.009
21
-86.4067
0
LINE
8
BLACK
10
62.009
20
-86.4067
11
61.8186
21
-86.5019
0
LINE
8
BLACK
10
61.8186
20
-86.5019
11
61.1519
21
-86.5019
0
LINE
8
BLACK
10
65.8186
20
-87.5495
11
65.1519
21
-86.5971
0
LINE
8
BLACK
10
64.6757
20
-87.5495
11
64.6757
21
-85.5495
0
LINE
8
BLACK
10
64.6757
20
-85.5495
11
65.4376
21
-85.5495
0
LINE
8
BLACK
10
65.4376
20
-85.5495
11
65.6281
21
-85.6448
0
LINE
8
BLACK
10
65.6281
20
-85.6448
11
65.7233
21
-85.74
0
LINE
8
BLACK
10
65.7233
20
-85.74
11
65.8186
21
-85.9305
0
LINE
8
BLACK
10
65.8186
20
-85.9305
11
65.8186
21
-86.2162
0
LINE
8
BLACK
10
65.8186
20
-86.2162
11
65.7233
21
-86.4067
0
LINE
8
BLACK
10
65.7233
20
-86.4067
11
65.6281
21
-86.5019
0
LINE
8
BLACK
10
65.6281
20
-86.5019
11
65.4376
21
-86.5971
0
LINE
8
BLACK
10
65.4376
20
-86.5971
11
64.6757
21
-86.5971
0
LINE
8
BLACK
10
67.4376
20
-87.4543
11
67.2471
21
-87.5495
0
LINE
8
BLACK
10
67.2471
20
-87.5495
11
66.8662
21
-87.5495
0
LINE
8
BLACK
10
66.8662
20
-87.5495
11
66.6757
21
-87.4543
0
LINE
8
BLACK
10
66.6757
20
-87.4543
11
66.5805
21
-87.2638
0
LINE
8
BLACK
10
66.5805
20
-87.2638
11
66.5805
21
-86.5019
0
LINE
8
BLACK
10
66.5805
20
-86.5019
11
66.6757
21
-86.3114
0
LINE
8
BLACK
10
66.6757
20
-86.3114
11
66.8662
21
-86.2162
0
LINE
8
BLACK
10
66.8662
20
-86.2162
11
67.2471
21
-86.2162
0
LINE
8
BLACK
10
67.2471
20
-86.2162
11
67.4376
21
-86.3114
0
LINE
8
BLACK
10
67.4376
20
-86.3114
11
67.5329
21
-86.5019
0
LINE
8
BLACK
10
67.5329
20
-86.5019
11
67.5329
21
-86.6924
0
LINE
8
BLACK
10
67.5329
20
-86.6924
11
66.5805
21
-86.8829
0
LINE
8
BLACK
10
68.1995
20
-86.2162
11
68.6757
21
-87.5495
0
LINE
8
BLACK
10
68.6757
20
-87.5495
11
69.1519
21
-86.2162
0
LINE
8
BLACK
10
71.2471
20
-85.5495
11
72.5805
21
-87.5495
0
LINE
8
BLACK
10
72.5805
20
-85.5495
11
71.2471
21
-87.5495
0
LINE
8
BLACK
10
74.39
20
-87.5495
11
73.2471
21
-87.5495
0
LINE
8
BLACK
10
73.8186
20
-87.5495
11
73.8186
21
-85.5495
0
LINE
8
BLACK
10
73.8186
20
-85.5495
11
73.6281
21
-85.8352
0
LINE
8
BLACK
10
73.6281
20
-85.8352
11
73.4376
21
-86.0257
0
LINE
8
BLACK
10
73.4376
20
-86.0257
11
73.2471
21
-86.121
0
LINE
8
BLACK
10
56.6743
20
-91.9757
11
56.8886
21
-92.0471
0
LINE
8
BLACK
10
56.8886
20
-92.0471
11
57.2457
21
-92.0471
0
LINE
8
BLACK
10
57.2457
20
-92.0471
11
57.3886
21
-91.9757
0
LINE
8
BLACK
10
57.3886
20
-91.9757
11
57.46
21
-91.9043
0
LINE
8
BLACK
10
57.46
20
-91.9043
11
57.5314
21
-91.7614
0
LINE
8
BLACK
10
57.5314
20
-91.7614
11
57.5314
21
-91.6186
0
LINE
8
BLACK
10
57.5314
20
-91.6186
11
57.46
21
-91.4757
0
LINE
8
BLACK
10
57.46
20
-91.4757
11
57.3886
21
-91.4043
0
LINE
8
BLACK
10
57.3886
20
-91.4043
11
57.2457
21
-91.3329
0
LINE
8
BLACK
10
57.2457
20
-91.3329
11
56.96
21
-91.2614
0
LINE
8
BLACK
10
56.96
20
-91.2614
11
56.8171
21
-91.19
0
LINE
8
BLACK
10
56.8171
20
-91.19
11
56.7457
21
-91.1186
0
LINE
8
BLACK
10
56.7457
20
-91.1186
11
56.6743
21
-90.9757
0
LINE
8
BLACK
10
56.6743
20
-90.9757
11
56.6743
21
-90.8329
0
LINE
8
BLACK
10
56.6743
20
-90.8329
11
56.7457
21
-90.69
0
LINE
8
BLACK
10
56.7457
20
-90.69
11
56.8171
21
-90.6186
0
LINE
8
BLACK
10
56.8171
20
-90.6186
11
56.96
21
-90.5471
0
LINE
8
BLACK
10
56.96
20
-90.5471
11
57.3171
21
-90.5471
0
LINE
8
BLACK
10
57.3171
20
-90.5471
11
57.5314
21
-90.6186
0
LINE
8
BLACK
10
59.2457
20
-90.4757
11
57.96
21
-92.4043
0
LINE
8
BLACK
10
59.7457
20
-92.0471
11
59.7457
21
-90.5471
0
LINE
8
BLACK
10
59.7457
20
-90.5471
11
60.6029
21
-92.0471
0
LINE
8
BLACK
10
60.6029
20
-92.0471
11
60.6029
21
-90.5471
0
LINE
8
BLACK
10
15.1771
20
-90.9836
11
15.8914
21
-90.9836
0
LINE
8
BLACK
10
15.0343
20
-91.4121
11
15.5343
21
-89.9121
0
LINE
8
BLACK
10
15.5343
20
-89.9121
11
16.0343
21
-91.4121
0
LINE
8
BLACK
10
16.4629
20
-91.3407
11
16.6771
21
-91.4121
0
LINE
8
BLACK
10
16.6771
20
-91.4121
11
17.0343
21
-91.4121
0
LINE
8
BLACK
10
17.0343
20
-91.4121
11
17.1771
21
-91.3407
0
LINE
8
BLACK
10
17.1771
20
-91.3407
11
17.2486
21
-91.2693
0
LINE
8
BLACK
10
17.2486
20
-91.2693
11
17.32
21
-91.1264
0
LINE
8
BLACK
10
17.32
20
-91.1264
11
17.32
21
-90.9836
0
LINE
8
BLACK
10
17.32
20
-90.9836
11
17.2486
21
-90.8407
0
LINE
8
BLACK
10
17.2486
20
-90.8407
11
17.1771
21
-90.7693
0
LINE
8
BLACK
10
17.1771
20
-90.7693
11
17.0343
21
-90.6979
0
LINE
8
BLACK
10
17.0343
20
-90.6979
11
16.7486
21
-90.6264
0
LINE
8
BLACK
10
16.7486
20
-90.6264
11
16.6057
21
-90.555
0
LINE
8
BLACK
10
16.6057
20
-90.555
11
16.5343
21
-90.4836
0
LINE
8
BLACK
10
16.5343
20
-90.4836
11
16.4629
21
-90.3407
0
LINE
8
BLACK
10
16.4629
20
-90.3407
11
16.4629
21
-90.1979
0
LINE
8
BLACK
10
16.4629
20
-90.1979
11
16.5343
21
-90.055
0
LINE
8
BLACK
10
16.5343
20
-90.055
11
16.6057
21
-89.9836
0
LINE
8
BLACK
10
16.6057
20
-89.9836
11
16.7486
21
-89.9121
0
LINE
8
BLACK
10
16.7486
20
-89.9121
11
17.1057
21
-89.9121
0
LINE
8
BLACK
10
17.1057
20
-89.9121
11
17.32
21
-89.9836
0
LINE
8
BLACK
10
17.8914
20
-91.3407
11
18.1057
21
-91.4121
0
LINE
8
BLACK
10
18.1057
20
-91.4121
11
18.4629
21
-91.4121
0
LINE
8
BLACK
10
18.4629
20
-91.4121
11
18.6057
21
-91.3407
0
LINE
8
BLACK
10
18.6057
20
-91.3407
11
18.6771
21
-91.2693
0
LINE
8
BLACK
10
18.6771
20
-91.2693
11
18.7486
21
-91.1264
0
LINE
8
BLACK
10
18.7486
20
-91.1264
11
18.7486
21
-90.9836
0
LINE
8
BLACK
10
18.7486
20
-90.9836
11
18.6771
21
-90.8407
0
LINE
8
BLACK
10
18.6771
20
-90.8407
11
18.6057
21
-90.7693
0
LINE
8
BLACK
10
18.6057
20
-90.7693
11
18.4629
21
-90.6979
0
LINE
8
BLACK
10
18.4629
20
-90.6979
11
18.1771
21
-90.6264
0
LINE
8
BLACK
10
18.1771
20
-90.6264
11
18.0343
21
-90.555
0
LINE
8
BLACK
10
18.0343
20
-90.555
11
17.9629
21
-90.4836
0
LINE
8
BLACK
10
17.9629
20
-90.4836
11
17.8914
21
-90.3407
0
LINE
8
BLACK
10
17.8914
20
-90.3407
11
17.8914
21
-90.1979
0
LINE
8
BLACK
10
17.8914
20
-90.1979
11
17.9629
21
-90.055
0
LINE
8
BLACK
10
17.9629
20
-90.055
11
18.0343
21
-89.9836
0
LINE
8
BLACK
10
18.0343
20
-89.9836
11
18.1771
21
-89.9121
0
LINE
8
BLACK
10
18.1771
20
-89.9121
11
18.5343
21
-89.9121
0
LINE
8
BLACK
10
18.5343
20
-89.9121
11
18.7486
21
-89.9836
0
LINE
8
BLACK
10
19.6771
20
-90.6979
11
19.6771
21
-91.4121
0
LINE
8
BLACK
10
19.1771
20
-89.9121
11
19.6771
21
-90.6979
0
LINE
8
BLACK
10
19.6771
20
-90.6979
11
20.1771
21
-89.9121
0
LINE
8
BLACK
10
17.3914
20
-93.8121
11
16.8914
21
-93.0979
0
LINE
8
BLACK
10
16.5343
20
-93.8121
11
16.5343
21
-92.3121
0
LINE
8
BLACK
10
16.5343
20
-92.3121
11
17.1057
21
-92.3121
0
LINE
8
BLACK
10
17.1057
20
-92.3121
11
17.2486
21
-92.3836
0
LINE
8
BLACK
10
17.2486
20
-92.3836
11
17.32
21
-92.455
0
LINE
8
BLACK
10
17.32
20
-92.455
11
17.3914
21
-92.5979
0
LINE
8
BLACK
10
17.3914
20
-92.5979
11
17.3914
21
-92.8121
0
LINE
8
BLACK
10
17.3914
20
-92.8121
11
17.32
21
-92.955
0
LINE
8
BLACK
10
17.32
20
-92.955
11
17.2486
21
-93.0264
0
LINE
8
BLACK
10
17.2486
20
-93.0264
11
17.1057
21
-93.0979
0
LINE
8
BLACK
10
17.1057
20
-93.0979
11
16.5343
21
-93.0979
0
LINE
8
BLACK
10
18.0343
20
-93.0264
11
18.5343
21
-93.0264
0
LINE
8
BLACK
10
18.7486
20
-93.8121
11
18.0343
21
-93.8121
0
LINE
8
BLACK
10
18.0343
20
-93.8121
11
18.0343
21
-92.3121
0
LINE
8
BLACK
10
18.0343
20
-92.3121
11
18.7486
21
-92.3121
0
LINE
8
BLACK
10
19.1771
20
-92.3121
11
19.6771
21
-93.8121
0
LINE
8
BLACK
10
19.6771
20
-93.8121
11
20.1771
21
-92.3121
0
LINE
8
BLACK
10
90.7657
20
-36.7106
11
90.7657
21
-35.1231
0
LINE
8
BLACK
10
91.5216
20
-36.7106
11
91.5216
21
-35.1231
0
LINE
8
BLACK
10
91.5216
20
-35.1231
11
92.4288
21
-36.7106
0
LINE
8
BLACK
10
92.4288
20
-36.7106
11
92.4288
21
-35.1231
0
LINE
8
BLACK
10
92.958
20
-35.1231
11
93.8651
21
-35.1231
0
LINE
8
BLACK
10
93.4115
20
-36.7106
11
93.4115
21
-35.1231
0
LINE
8
BLACK
10
90.3121
20
-39.1575
11
90.5389
21
-39.2331
0
LINE
8
BLACK
10
90.5389
20
-39.2331
11
90.9169
21
-39.2331
0
LINE
8
BLACK
10
90.9169
20
-39.2331
11
91.0681
21
-39.1575
0
LINE
8
BLACK
10
91.0681
20
-39.1575
11
91.1437
21
-39.0819
0
LINE
8
BLACK
10
91.1437
20
-39.0819
11
91.2193
21
-38.9307
0
LINE
8
BLACK
10
91.2193
20
-38.9307
11
91.2193
21
-38.7795
0
LINE
8
BLACK
10
91.2193
20
-38.7795
11
91.1437
21
-38.6283
0
LINE
8
BLACK
10
91.1437
20
-38.6283
11
91.0681
21
-38.5527
0
LINE
8
BLACK
10
91.0681
20
-38.5527
11
90.9169
21
-38.4771
0
LINE
8
BLACK
10
90.9169
20
-38.4771
11
90.6145
21
-38.4015
0
LINE
8
BLACK
10
90.6145
20
-38.4015
11
90.4633
21
-38.3259
0
LINE
8
BLACK
10
90.4633
20
-38.3259
11
90.3877
21
-38.2503
0
LINE
8
BLACK
10
90.3877
20
-38.2503
11
90.3121
21
-38.0991
0
LINE
8
BLACK
10
90.3121
20
-38.0991
11
90.3121
21
-37.9479
0
LINE
8
BLACK
10
90.3121
20
-37.9479
11
90.3877
21
-37.7968
0
LINE
8
BLACK
10
90.3877
20
-37.7968
11
90.4633
21
-37.7212
0
LINE
8
BLACK
10
90.4633
20
-37.7212
11
90.6145
21
-37.6456
0
LINE
8
BLACK
10
90.6145
20
-37.6456
11
90.9925
21
-37.6456
0
LINE
8
BLACK
10
90.9925
20
-37.6456
11
91.2193
21
-37.7212
0
LINE
8
BLACK
10
92.8068
20
-39.0819
11
92.7312
21
-39.1575
0
LINE
8
BLACK
10
92.7312
20
-39.1575
11
92.5044
21
-39.2331
0
LINE
8
BLACK
10
92.5044
20
-39.2331
11
92.3532
21
-39.2331
0
LINE
8
BLACK
10
92.3532
20
-39.2331
11
92.1264
21
-39.1575
0
LINE
8
BLACK
10
92.1264
20
-39.1575
11
91.9752
21
-39.0063
0
LINE
8
BLACK
10
91.9752
20
-39.0063
11
91.8996
21
-38.8551
0
LINE
8
BLACK
10
91.8996
20
-38.8551
11
91.824
21
-38.5527
0
LINE
8
BLACK
10
91.824
20
-38.5527
11
91.824
21
-38.3259
0
LINE
8
BLACK
10
91.824
20
-38.3259
11
91.8996
21
-38.0235
0
LINE
8
BLACK
10
91.8996
20
-38.0235
11
91.9752
21
-37.8723
0
LINE
8
BLACK
10
91.9752
20
-37.8723
11
92.1264
21
-37.7212
0
LINE
8
BLACK
10
92.1264
20
-37.7212
11
92.3532
21
-37.6456
0
LINE
8
BLACK
10
92.3532
20
-37.6456
11
92.5044
21
-37.6456
0
LINE
8
BLACK
10
92.5044
20
-37.6456
11
92.7312
21
-37.7212
0
LINE
8
BLACK
10
92.7312
20
-37.7212
11
92.8068
21
-37.7968
0
LINE
8
BLACK
10
94.2431
20
-39.2331
11
93.4871
21
-39.2331
0
LINE
8
BLACK
10
93.4871
20
-39.2331
11
93.4871
21
-37.6456
0
LINE
8
BLACK
10
90.2743
20
-41.68
11
90.5011
21
-41.7556
0
LINE
8
BLACK
10
90.5011
20
-41.7556
11
90.8791
21
-41.7556
0
LINE
8
BLACK
10
90.8791
20
-41.7556
11
91.0303
21
-41.68
0
LINE
8
BLACK
10
91.0303
20
-41.68
11
91.1059
21
-41.6044
0
LINE
8
BLACK
10
91.1059
20
-41.6044
11
91.1815
21
-41.4532
0
LINE
8
BLACK
10
91.1815
20
-41.4532
11
91.1815
21
-41.302
0
LINE
8
BLACK
10
91.1815
20
-41.302
11
91.1059
21
-41.1508
0
LINE
8
BLACK
10
91.1059
20
-41.1508
11
91.0303
21
-41.0752
0
LINE
8
BLACK
10
91.0303
20
-41.0752
11
90.8791
21
-40.9996
0
LINE
8
BLACK
10
90.8791
20
-40.9996
11
90.5767
21
-40.924
0
LINE
8
BLACK
10
90.5767
20
-40.924
11
90.4255
21
-40.8484
0
LINE
8
BLACK
10
90.4255
20
-40.8484
11
90.3499
21
-40.7728
0
LINE
8
BLACK
10
90.3499
20
-40.7728
11
90.2743
21
-40.6216
0
LINE
8
BLACK
10
90.2743
20
-40.6216
11
90.2743
21
-40.4704
0
LINE
8
BLACK
10
90.2743
20
-40.4704
11
90.3499
21
-40.3193
0
LINE
8
BLACK
10
90.3499
20
-40.3193
11
90.4255
21
-40.2437
0
LINE
8
BLACK
10
90.4255
20
-40.2437
11
90.5767
21
-40.1681
0
LINE
8
BLACK
10
90.5767
20
-40.1681
11
90.9547
21
-40.1681
0
LINE
8
BLACK
10
90.9547
20
-40.1681
11
91.1815
21
-40.2437
0
LINE
8
BLACK
10
91.8618
20
-41.7556
11
91.8618
21
-40.1681
0
LINE
8
BLACK
10
91.8618
20
-40.1681
11
92.2398
21
-40.1681
0
LINE
8
BLACK
10
92.2398
20
-40.1681
11
92.4666
21
-40.2437
0
LINE
8
BLACK
10
92.4666
20
-40.2437
11
92.6178
21
-40.3948
0
LINE
8
BLACK
10
92.6178
20
-40.3948
11
92.6934
21
-40.546
0
LINE
8
BLACK
10
92.6934
20
-40.546
11
92.769
21
-40.8484
0
LINE
8
BLACK
10
92.769
20
-40.8484
11
92.769
21
-41.0752
0
LINE
8
BLACK
10
92.769
20
-41.0752
11
92.6934
21
-41.3776
0
LINE
8
BLACK
10
92.6934
20
-41.3776
11
92.6178
21
-41.5288
0
LINE
8
BLACK
10
92.6178
20
-41.5288
11
92.4666
21
-41.68
0
LINE
8
BLACK
10
92.4666
20
-41.68
11
92.2398
21
-41.7556
0
LINE
8
BLACK
10
92.2398
20
-41.7556
11
91.8618
21
-41.7556
0
LINE
8
BLACK
10
93.3737
20
-41.302
11
94.1297
21
-41.302
0
LINE
8
BLACK
10
93.2225
20
-41.7556
11
93.7517
21
-40.1681
0
LINE
8
BLACK
10
93.7517
20
-40.1681
11
94.2809
21
-41.7556
0
LINE
8
BLACK
10
90.1609
20
-43.6733
11
91.3705
21
-43.6733
0
LINE
8
BLACK
10
90.7657
20
-44.2781
11
90.7657
21
-43.0685
0
LINE
8
BLACK
10
92.8824
20
-42.6906
11
92.1264
21
-42.6906
0
LINE
8
BLACK
10
92.1264
20
-42.6906
11
92.0508
21
-43.4465
0
LINE
8
BLACK
10
92.0508
20
-43.4465
11
92.1264
21
-43.3709
0
LINE
8
BLACK
10
92.1264
20
-43.3709
11
92.2776
21
-43.2953
0
LINE
8
BLACK
10
92.2776
20
-43.2953
11
92.6556
21
-43.2953
0
LINE
8
BLACK
10
92.6556
20
-43.2953
11
92.8068
21
-43.3709
0
LINE
8
BLACK
10
92.8068
20
-43.3709
11
92.8824
21
-43.4465
0
LINE
8
BLACK
10
92.8824
20
-43.4465
11
92.958
21
-43.5977
0
LINE
8
BLACK
10
92.958
20
-43.5977
11
92.958
21
-43.9757
0
LINE
8
BLACK
10
92.958
20
-43.9757
11
92.8824
21
-44.1269
0
LINE
8
BLACK
10
92.8824
20
-44.1269
11
92.8068
21
-44.2025
0
LINE
8
BLACK
10
92.8068
20
-44.2025
11
92.6556
21
-44.2781
0
LINE
8
BLACK
10
92.6556
20
-44.2781
11
92.2776
21
-44.2781
0
LINE
8
BLACK
10
92.2776
20
-44.2781
11
92.1264
21
-44.2025
0
LINE
8
BLACK
10
92.1264
20
-44.2025
11
92.0508
21
-44.1269
0
LINE
8
BLACK
10
93.4115
20
-42.6906
11
93.9407
21
-44.2781
0
LINE
8
BLACK
10
93.9407
20
-44.2781
11
94.4699
21
-42.6906
0
LINE
8
BLACK
10
90.9925
20
-45.2887
11
90.8413
21
-45.2131
0
LINE
8
BLACK
10
90.8413
20
-45.2131
11
90.6145
21
-45.2131
0
LINE
8
BLACK
10
90.6145
20
-45.2131
11
90.3877
21
-45.2887
0
LINE
8
BLACK
10
90.3877
20
-45.2887
11
90.2365
21
-45.4398
0
LINE
8
BLACK
10
90.2365
20
-45.4398
11
90.1609
21
-45.591
0
LINE
8
BLACK
10
90.1609
20
-45.591
11
90.0853
21
-45.8934
0
LINE
8
BLACK
10
90.0853
20
-45.8934
11
90.0853
21
-46.1202
0
LINE
8
BLACK
10
90.0853
20
-46.1202
11
90.1609
21
-46.4226
0
LINE
8
BLACK
10
90.1609
20
-46.4226
11
90.2365
21
-46.5738
0
LINE
8
BLACK
10
90.2365
20
-46.5738
11
90.3877
21
-46.725
0
LINE
8
BLACK
10
90.3877
20
-46.725
11
90.6145
21
-46.8006
0
LINE
8
BLACK
10
90.6145
20
-46.8006
11
90.7657
21
-46.8006
0
LINE
8
BLACK
10
90.7657
20
-46.8006
11
90.9925
21
-46.725
0
LINE
8
BLACK
10
90.9925
20
-46.725
11
91.0681
21
-46.6494
0
LINE
8
BLACK
10
91.0681
20
-46.6494
11
91.0681
21
-46.1202
0
LINE
8
BLACK
10
91.0681
20
-46.1202
11
90.7657
21
-46.1202
0
LINE
8
BLACK
10
91.7484
20
-46.8006
11
91.7484
21
-45.2131
0
LINE
8
BLACK
10
91.7484
20
-45.2131
11
92.6556
21
-46.8006
0
LINE
8
BLACK
10
92.6556
20
-46.8006
11
92.6556
21
-45.2131
0
LINE
8
BLACK
10
93.4115
20
-46.8006
11
93.4115
21
-45.2131
0
LINE
8
BLACK
10
93.4115
20
-45.2131
11
93.7895
21
-45.2131
0
LINE
8
BLACK
10
93.7895
20
-45.2131
11
94.0163
21
-45.2887
0
LINE
8
BLACK
10
94.0163
20
-45.2887
11
94.1675
21
-45.4398
0
LINE
8
BLACK
10
94.1675
20
-45.4398
11
94.2431
21
-45.591
0
LINE
8
BLACK
10
94.2431
20
-45.591
11
94.3187
21
-45.8934
0
LINE
8
BLACK
10
94.3187
20
-45.8934
11
94.3187
21
-46.1202
0
LINE
8
BLACK
10
94.3187
20
-46.1202
11
94.2431
21
-46.4226
0
LINE
8
BLACK
10
94.2431
20
-46.4226
11
94.1675
21
-46.5738
0
LINE
8
BLACK
10
94.1675
20
-46.5738
11
94.0163
21
-46.725
0
LINE
8
BLACK
10
94.0163
20
-46.725
11
93.7895
21
-46.8006
0
LINE
8
BLACK
10
93.7895
20
-46.8006
11
93.4115
21
-46.8006
0
LINE
8
BLACK
10
84.1057
20
-34.1371
11
84.1057
21
-32.6371
0
LINE
8
BLACK
10
84.7486
20
-32.78
11
84.82
21
-32.7086
0
LINE
8
BLACK
10
84.82
20
-32.7086
11
84.9629
21
-32.6371
0
LINE
8
BLACK
10
84.9629
20
-32.6371
11
85.32
21
-32.6371
0
LINE
8
BLACK
10
85.32
20
-32.6371
11
85.4629
21
-32.7086
0
LINE
8
BLACK
10
85.4629
20
-32.7086
11
85.5343
21
-32.78
0
LINE
8
BLACK
10
85.5343
20
-32.78
11
85.6057
21
-32.9229
0
LINE
8
BLACK
10
85.6057
20
-32.9229
11
85.6057
21
-33.0657
0
LINE
8
BLACK
10
85.6057
20
-33.0657
11
85.5343
21
-33.28
0
LINE
8
BLACK
10
85.5343
20
-33.28
11
84.6771
21
-34.1371
0
LINE
8
BLACK
10
84.6771
20
-34.1371
11
85.6057
21
-34.1371
0
LINE
8
BLACK
10
87.1057
20
-33.9943
11
87.0343
21
-34.0657
0
LINE
8
BLACK
10
87.0343
20
-34.0657
11
86.82
21
-34.1371
0
LINE
8
BLACK
10
86.82
20
-34.1371
11
86.6771
21
-34.1371
0
LINE
8
BLACK
10
86.6771
20
-34.1371
11
86.4629
21
-34.0657
0
LINE
8
BLACK
10
86.4629
20
-34.0657
11
86.32
21
-33.9229
0
LINE
8
BLACK
10
86.32
20
-33.9229
11
86.2486
21
-33.78
0
LINE
8
BLACK
10
86.2486
20
-33.78
11
86.1771
21
-33.4943
0
LINE
8
BLACK
10
86.1771
20
-33.4943
11
86.1771
21
-33.28
0
LINE
8
BLACK
10
86.1771
20
-33.28
11
86.2486
21
-32.9943
0
LINE
8
BLACK
10
86.2486
20
-32.9943
11
86.32
21
-32.8514
0
LINE
8
BLACK
10
86.32
20
-32.8514
11
86.4629
21
-32.7086
0
LINE
8
BLACK
10
86.4629
20
-32.7086
11
86.6771
21
-32.6371
0
LINE
8
BLACK
10
86.6771
20
-32.6371
11
86.82
21
-32.6371
0
LINE
8
BLACK
10
86.82
20
-32.6371
11
87.0343
21
-32.7086
0
LINE
8
BLACK
10
87.0343
20
-32.7086
11
87.1057
21
-32.78
0
LINE
8
BLACK
10
88.9479
20
-51.6136
11
89.6621
21
-51.6136
0
LINE
8
BLACK
10
88.805
20
-52.0421
11
89.305
21
-50.5421
0
LINE
8
BLACK
10
89.305
20
-50.5421
11
89.805
21
-52.0421
0
LINE
8
BLACK
10
90.305
20
-52.0421
11
90.305
21
-50.5421
0
LINE
8
BLACK
10
90.305
20
-50.5421
11
90.6621
21
-50.5421
0
LINE
8
BLACK
10
90.6621
20
-50.5421
11
90.8764
21
-50.6136
0
LINE
8
BLACK
10
90.8764
20
-50.6136
11
91.0193
21
-50.7564
0
LINE
8
BLACK
10
91.0193
20
-50.7564
11
91.0907
21
-50.8993
0
LINE
8
BLACK
10
91.0907
20
-50.8993
11
91.1621
21
-51.185
0
LINE
8
BLACK
10
91.1621
20
-51.185
11
91.1621
21
-51.3993
0
LINE
8
BLACK
10
91.1621
20
-51.3993
11
91.0907
21
-51.685
0
LINE
8
BLACK
10
91.0907
20
-51.685
11
91.0193
21
-51.8279
0
LINE
8
BLACK
10
91.0193
20
-51.8279
11
90.8764
21
-51.9707
0
LINE
8
BLACK
10
90.8764
20
-51.9707
11
90.6621
21
-52.0421
0
LINE
8
BLACK
10
90.6621
20
-52.0421
11
90.305
21
-52.0421
0
LINE
8
BLACK
10
92.6621
20
-52.0421
11
92.1621
21
-51.3279
0
LINE
8
BLACK
10
91.805
20
-52.0421
11
91.805
21
-50.5421
0
LINE
8
BLACK
10
91.805
20
-50.5421
11
92.3764
21
-50.5421
0
LINE
8
BLACK
10
92.3764
20
-50.5421
11
92.5193
21
-50.6136
0
LINE
8
BLACK
10
92.5193
20
-50.6136
11
92.5907
21
-50.685
0
LINE
8
BLACK
10
92.5907
20
-50.685
11
92.6621
21
-50.8279
0
LINE
8
BLACK
10
92.6621
20
-50.8279
11
92.6621
21
-51.0421
0
LINE
8
BLACK
10
92.6621
20
-51.0421
11
92.5907
21
-51.185
0
LINE
8
BLACK
10
92.5907
20
-51.185
11
92.5193
21
-51.2564
0
LINE
8
BLACK
10
92.5193
20
-51.2564
11
92.3764
21
-51.3279
0
LINE
8
BLACK
10
92.3764
20
-51.3279
11
91.805
21
-51.3279
0
LINE
8
BLACK
10
93.5514
20
-53.74
11
93.6229
21
-53.6686
0
LINE
8
BLACK
10
93.6229
20
-53.6686
11
93.7657
21
-53.5971
0
LINE
8
BLACK
10
93.7657
20
-53.5971
11
94.1229
21
-53.5971
0
LINE
8
BLACK
10
94.1229
20
-53.5971
11
94.2657
21
-53.6686
0
LINE
8
BLACK
10
94.2657
20
-53.6686
11
94.3371
21
-53.74
0
LINE
8
BLACK
10
94.3371
20
-53.74
11
94.4086
21
-53.8829
0
LINE
8
BLACK
10
94.4086
20
-53.8829
11
94.4086
21
-54.0257
0
LINE
8
BLACK
10
94.4086
20
-54.0257
11
94.3371
21
-54.24
0
LINE
8
BLACK
10
94.3371
20
-54.24
11
93.48
21
-55.0971
0
LINE
8
BLACK
10
93.48
20
-55.0971
11
94.4086
21
-55.0971
0
LINE
8
BLACK
10
94.4086
20
-57.4971
11
93.5514
21
-57.4971
0
LINE
8
BLACK
10
93.98
20
-57.4971
11
93.98
21
-55.9971
0
LINE
8
BLACK
10
93.98
20
-55.9971
11
93.8371
21
-56.2114
0
LINE
8
BLACK
10
93.8371
20
-56.2114
11
93.6943
21
-56.3543
0
LINE
8
BLACK
10
93.6943
20
-56.3543
11
93.5514
21
-56.4257
0
LINE
8
BLACK
10
93.9086
20
-58.3971
11
94.0514
21
-58.3971
0
LINE
8
BLACK
10
94.0514
20
-58.3971
11
94.1943
21
-58.4686
0
LINE
8
BLACK
10
94.1943
20
-58.4686
11
94.2657
21
-58.54
0
LINE
8
BLACK
10
94.2657
20
-58.54
11
94.3371
21
-58.6829
0
LINE
8
BLACK
10
94.3371
20
-58.6829
11
94.4086
21
-58.9686
0
LINE
8
BLACK
10
94.4086
20
-58.9686
11
94.4086
21
-59.3257
0
LINE
8
BLACK
10
94.4086
20
-59.3257
11
94.3371
21
-59.6114
0
LINE
8
BLACK
10
94.3371
20
-59.6114
11
94.2657
21
-59.7543
0
LINE
8
BLACK
10
94.2657
20
-59.7543
11
94.1943
21
-59.8257
0
LINE
8
BLACK
10
94.1943
20
-59.8257
11
94.0514
21
-59.8971
0
LINE
8
BLACK
10
94.0514
20
-59.8971
11
93.9086
21
-59.8971
0
LINE
8
BLACK
10
93.9086
20
-59.8971
11
93.7657
21
-59.8257
0
LINE
8
BLACK
10
93.7657
20
-59.8257
11
93.6943
21
-59.7543
0
LINE
8
BLACK
10
93.6943
20
-59.7543
11
93.6229
21
-59.6114
0
LINE
8
BLACK
10
93.6229
20
-59.6114
11
93.5514
21
-59.3257
0
LINE
8
BLACK
10
93.5514
20
-59.3257
11
93.5514
21
-58.9686
0
LINE
8
BLACK
10
93.5514
20
-58.9686
11
93.6229
21
-58.6829
0
LINE
8
BLACK
10
93.6229
20
-58.6829
11
93.6943
21
-58.54
0
LINE
8
BLACK
10
93.6943
20
-58.54
11
93.7657
21
-58.4686
0
LINE
8
BLACK
10
93.7657
20
-58.4686
11
93.9086
21
-58.3971
0
LINE
8
BLACK
10
76.2302
20
-28.7443
11
76.2302
21
-25.1883
0
LINE
8
BLACK
10
76.2302
20
-25.1883
11
76.835
21
-25.1883
0
LINE
8
BLACK
10
76.835
20
-25.1883
11
77.1979
21
-25.3577
0
LINE
8
BLACK
10
77.1979
20
-25.3577
11
77.4398
21
-25.6963
0
LINE
8
BLACK
10
77.4398
20
-25.6963
11
77.5607
21
-26.035
0
LINE
8
BLACK
10
77.5607
20
-26.035
11
77.6817
21
-26.7123
0
LINE
8
BLACK
10
77.6817
20
-26.7123
11
77.6817
21
-27.2203
0
LINE
8
BLACK
10
77.6817
20
-27.2203
11
77.5607
21
-27.8977
0
LINE
8
BLACK
10
77.5607
20
-27.8977
11
77.4398
21
-28.2363
0
LINE
8
BLACK
10
77.4398
20
-28.2363
11
77.1979
21
-28.575
0
LINE
8
BLACK
10
77.1979
20
-28.575
11
76.835
21
-28.7443
0
LINE
8
BLACK
10
76.835
20
-28.7443
11
76.2302
21
-28.7443
0
LINE
8
BLACK
10
78.7702
20
-28.7443
11
78.7702
21
-25.1883
0
LINE
8
BLACK
10
81.3102
20
-25.3577
11
81.0683
21
-25.1883
0
LINE
8
BLACK
10
81.0683
20
-25.1883
11
80.7055
21
-25.1883
0
LINE
8
BLACK
10
80.7055
20
-25.1883
11
80.3426
21
-25.3577
0
LINE
8
BLACK
10
80.3426
20
-25.3577
11
80.1007
21
-25.6963
0
LINE
8
BLACK
10
80.1007
20
-25.6963
11
79.9798
21
-26.035
0
LINE
8
BLACK
10
79.9798
20
-26.035
11
79.8588
21
-26.7123
0
LINE
8
BLACK
10
79.8588
20
-26.7123
11
79.8588
21
-27.2203
0
LINE
8
BLACK
10
79.8588
20
-27.2203
11
79.9798
21
-27.8977
0
LINE
8
BLACK
10
79.9798
20
-27.8977
11
80.1007
21
-28.2363
0
LINE
8
BLACK
10
80.1007
20
-28.2363
11
80.3426
21
-28.575
0
LINE
8
BLACK
10
80.3426
20
-28.575
11
80.7055
21
-28.7443
0
LINE
8
BLACK
10
80.7055
20
-28.7443
11
80.9474
21
-28.7443
0
LINE
8
BLACK
10
80.9474
20
-28.7443
11
81.3102
21
-28.575
0
LINE
8
BLACK
10
81.3102
20
-28.575
11
81.4312
21
-28.4057
0
LINE
8
BLACK
10
81.4312
20
-28.4057
11
81.4312
21
-27.2203
0
LINE
8
BLACK
10
81.4312
20
-27.2203
11
80.9474
21
-27.2203
0
LINE
8
BLACK
10
72.6017
20
-30.8017
11
73.0855
21
-30.8017
0
LINE
8
BLACK
10
73.0855
20
-30.8017
11
73.3274
21
-30.9711
0
LINE
8
BLACK
10
73.3274
20
-30.9711
11
73.5693
21
-31.3097
0
LINE
8
BLACK
10
73.5693
20
-31.3097
11
73.6902
21
-31.9871
0
LINE
8
BLACK
10
73.6902
20
-31.9871
11
73.6902
21
-33.1724
0
LINE
8
BLACK
10
73.6902
20
-33.1724
11
73.5693
21
-33.8497
0
LINE
8
BLACK
10
73.5693
20
-33.8497
11
73.3274
21
-34.1884
0
LINE
8
BLACK
10
73.3274
20
-34.1884
11
73.0855
21
-34.3577
0
LINE
8
BLACK
10
73.0855
20
-34.3577
11
72.6017
21
-34.3577
0
LINE
8
BLACK
10
72.6017
20
-34.3577
11
72.3598
21
-34.1884
0
LINE
8
BLACK
10
72.3598
20
-34.1884
11
72.1179
21
-33.8497
0
LINE
8
BLACK
10
72.1179
20
-33.8497
11
71.9969
21
-33.1724
0
LINE
8
BLACK
10
71.9969
20
-33.1724
11
71.9969
21
-31.9871
0
LINE
8
BLACK
10
71.9969
20
-31.9871
11
72.1179
21
-31.3097
0
LINE
8
BLACK
10
72.1179
20
-31.3097
11
72.3598
21
-30.9711
0
LINE
8
BLACK
10
72.3598
20
-30.9711
11
72.6017
21
-30.8017
0
LINE
8
BLACK
10
74.7788
20
-30.8017
11
74.7788
21
-33.6804
0
LINE
8
BLACK
10
74.7788
20
-33.6804
11
74.8998
21
-34.0191
0
LINE
8
BLACK
10
74.8998
20
-34.0191
11
75.0207
21
-34.1884
0
LINE
8
BLACK
10
75.0207
20
-34.1884
11
75.2626
21
-34.3577
0
LINE
8
BLACK
10
75.2626
20
-34.3577
11
75.7464
21
-34.3577
0
LINE
8
BLACK
10
75.7464
20
-34.3577
11
75.9883
21
-34.1884
0
LINE
8
BLACK
10
75.9883
20
-34.1884
11
76.1093
21
-34.0191
0
LINE
8
BLACK
10
76.1093
20
-34.0191
11
76.2302
21
-33.6804
0
LINE
8
BLACK
10
76.2302
20
-33.6804
11
76.2302
21
-30.8017
0
LINE
8
BLACK
10
77.0769
20
-30.8017
11
78.5283
21
-30.8017
0
LINE
8
BLACK
10
77.8026
20
-34.3577
11
77.8026
21
-30.8017
0
LINE
8
BLACK
10
79.375
20
-31.9871
11
81.3102
21
-33.0031
0
LINE
8
BLACK
10
81.3102
20
-33.0031
11
79.375
21
-34.0191
0
LINE
8
BLACK
10
23.6474
20
-63.5
11
23.6474
21
-60.96
0
LINE
8
BLACK
10
23.3426
20
-63.5
11
23.3426
21
-60.96
0
ARC
8
BLACK
10
23.495
20
-60.96
40
0.1524
50
360
51
540
0
ARC
8
BLACK
10
23.495
20
-63.5
40
0.1524
50
180
51
360
0
LINE
8
BLACK
10
23.495
20
-63.6524
11
32.385
21
-63.6524
0
LINE
8
BLACK
10
23.495
20
-63.3476
11
32.385
21
-63.3476
0
ARC
8
BLACK
10
32.385
20
-63.5
40
0.1524
50
270
51
450
0
ARC
8
BLACK
10
23.495
20
-63.5
40
0.1524
50
90
51
270
0
LINE
8
BLACK
10
32.5374
20
-63.5
11
32.5374
21
-60.96
0
LINE
8
BLACK
10
32.2326
20
-63.5
11
32.2326
21
-60.96
0
ARC
8
BLACK
10
32.385
20
-60.96
40
0.1524
50
360
51
540
0
ARC
8
BLACK
10
32.385
20
-63.5
40
0.1524
50
180
51
360
0
LINE
8
BLACK
10
23.495
20
-61.1124
11
32.385
21
-61.1124
0
LINE
8
BLACK
10
23.495
20
-60.8076
11
32.385
21
-60.8076
0
ARC
8
BLACK
10
32.385
20
-60.96
40
0.1524
50
270
51
450
0
ARC
8
BLACK
10
23.495
20
-60.96
40
0.1524
50
90
51
270
0
LINE
8
BLACK
10
23.6028
20
-61.7028
11
24.2378
21
-61.0678
0
LINE
8
BLACK
10
23.3872
20
-61.4872
11
24.0222
21
-60.8522
0
ARC
8
BLACK
10
24.13
20
-60.96
40
0.1524
50
315
51
495
0
ARC
8
BLACK
10
23.495
20
-61.595
40
0.1524
50
135
51
315
0
LINE
8
BLACK
10
22.225
20
-62.3824
11
23.495
21
-62.3824
0
LINE
8
BLACK
10
22.225
20
-62.0776
11
23.495
21
-62.0776
0
ARC
8
BLACK
10
23.495
20
-62.23
40
0.1524
50
270
51
450
0
ARC
8
BLACK
10
22.225
20
-62.23
40
0.1524
50
90
51
270
0
LINE
8
BLACK
10
32.385
20
-62.3824
11
33.655
21
-62.3824
0
LINE
8
BLACK
10
32.385
20
-62.0776
11
33.655
21
-62.0776
0
ARC
8
BLACK
10
33.655
20
-62.23
40
0.1524
50
270
51
450
0
ARC
8
BLACK
10
32.385
20
-62.23
40
0.1524
50
90
51
270
0
LINE
8
BLACK
10
23.6474
20
-86.36
11
23.6474
21
-83.82
0
LINE
8
BLACK
10
23.3426
20
-86.36
11
23.3426
21
-83.82
0
ARC
8
BLACK
10
23.495
20
-83.82
40
0.1524
50
360
51
540
0
ARC
8
BLACK
10
23.495
20
-86.36
40
0.1524
50
180
51
360
0
LINE
8
BLACK
10
23.495
20
-86.5124
11
32.385
21
-86.5124
0
LINE
8
BLACK
10
23.495
20
-86.2076
11
32.385
21
-86.2076
0
ARC
8
BLACK
10
32.385
20
-86.36
40
0.1524
50
270
51
450
0
ARC
8
BLACK
10
23.495
20
-86.36
40
0.1524
50
90
51
270
0
LINE
8
BLACK
10
32.5374
20
-86.36
11
32.5374
21
-83.82
0
LINE
8
BLACK
10
32.2326
20
-86.36
11
32.2326
21
-83.82
0
ARC
8
BLACK
10
32.385
20
-83.82
40
0.1524
50
360
51
540
0
ARC
8
BLACK
10
32.385
20
-86.36
40
0.1524
50
180
51
360
0
LINE
8
BLACK
10
23.495
20
-83.9724
11
32.385
21
-83.9724
0
LINE
8
BLACK
10
23.495
20
-83.6676
11
32.385
21
-83.6676
0
ARC
8
BLACK
10
32.385
20
-83.82
40
0.1524
50
270
51
450
0
ARC
8
BLACK
10
23.495
20
-83.82
40
0.1524
50
90
51
270
0
LINE
8
BLACK
10
23.6028
20
-84.5628
11
24.2378
21
-83.9278
0
LINE
8
BLACK
10
23.3872
20
-84.3472
11
24.0222
21
-83.7122
0
ARC
8
BLACK
10
24.13
20
-83.82
40
0.1524
50
315
51
495
0
ARC
8
BLACK
10
23.495
20
-84.455
40
0.1524
50
135
51
315
0
LINE
8
BLACK
10
22.225
20
-85.2424
11
23.495
21
-85.2424
0
LINE
8
BLACK
10
22.225
20
-84.9376
11
23.495
21
-84.9376
0
ARC
8
BLACK
10
23.495
20
-85.09
40
0.1524
50
270
51
450
0
ARC
8
BLACK
10
22.225
20
-85.09
40
0.1524
50
90
51
270
0
LINE
8
BLACK
10
32.385
20
-85.2424
11
33.655
21
-85.2424
0
LINE
8
BLACK
10
32.385
20
-84.9376
11
33.655
21
-84.9376
0
ARC
8
BLACK
10
33.655
20
-85.09
40
0.1524
50
270
51
450
0
ARC
8
BLACK
10
32.385
20
-85.09
40
0.1524
50
90
51
270
0
LINE
8
BLACK
10
23.6474
20
-74.93
11
23.6474
21
-72.39
0
LINE
8
BLACK
10
23.3426
20
-74.93
11
23.3426
21
-72.39
0
ARC
8
BLACK
10
23.495
20
-72.39
40
0.1524
50
360
51
540
0
ARC
8
BLACK
10
23.495
20
-74.93
40
0.1524
50
180
51
360
0
LINE
8
BLACK
10
23.495
20
-75.0824
11
32.385
21
-75.0824
0
LINE
8
BLACK
10
23.495
20
-74.7776
11
32.385
21
-74.7776
0
ARC
8
BLACK
10
32.385
20
-74.93
40
0.1524
50
270
51
450
0
ARC
8
BLACK
10
23.495
20
-74.93
40
0.1524
50
90
51
270
0
LINE
8
BLACK
10
32.5374
20
-74.93
11
32.5374
21
-72.39
0
LINE
8
BLACK
10
32.2326
20
-74.93
11
32.2326
21
-72.39
0
ARC
8
BLACK
10
32.385
20
-72.39
40
0.1524
50
360
51
540
0
ARC
8
BLACK
10
32.385
20
-74.93
40
0.1524
50
180
51
360
0
LINE
8
BLACK
10
23.495
20
-72.5424
11
32.385
21
-72.5424
0
LINE
8
BLACK
10
23.495
20
-72.2376
11
32.385
21
-72.2376
0
ARC
8
BLACK
10
32.385
20
-72.39
40
0.1524
50
270
51
450
0
ARC
8
BLACK
10
23.495
20
-72.39
40
0.1524
50
90
51
270
0
LINE
8
BLACK
10
23.6028
20
-73.1328
11
24.2378
21
-72.4978
0
LINE
8
BLACK
10
23.3872
20
-72.9172
11
24.0222
21
-72.2822
0
ARC
8
BLACK
10
24.13
20
-72.39
40
0.1524
50
315
51
495
0
ARC
8
BLACK
10
23.495
20
-73.025
40
0.1524
50
135
51
315
0
LINE
8
BLACK
10
22.225
20
-73.8124
11
23.495
21
-73.8124
0
LINE
8
BLACK
10
22.225
20
-73.5076
11
23.495
21
-73.5076
0
ARC
8
BLACK
10
23.495
20
-73.66
40
0.1524
50
270
51
450
0
ARC
8
BLACK
10
22.225
20
-73.66
40
0.1524
50
90
51
270
0
LINE
8
BLACK
10
32.385
20
-73.8124
11
33.655
21
-73.8124
0
LINE
8
BLACK
10
32.385
20
-73.5076
11
33.655
21
-73.5076
0
ARC
8
BLACK
10
33.655
20
-73.66
40
0.1524
50
270
51
450
0
ARC
8
BLACK
10
32.385
20
-73.66
40
0.1524
50
90
51
270
0
LINE
8
BLACK
10
23.6474
20
-52.07
11
23.6474
21
-49.53
0
LINE
8
BLACK
10
23.3426
20
-52.07
11
23.3426
21
-49.53
0
ARC
8
BLACK
10
23.495
20
-49.53
40
0.1524
50
360
51
540
0
ARC
8
BLACK
10
23.495
20
-52.07
40
0.1524
50
180
51
360
0
LINE
8
BLACK
10
23.495
20
-52.2224
11
32.385
21
-52.2224
0
LINE
8
BLACK
10
23.495
20
-51.9176
11
32.385
21
-51.9176
0
ARC
8
BLACK
10
32.385
20
-52.07
40
0.1524
50
270
51
450
0
ARC
8
BLACK
10
23.495
20
-52.07
40
0.1524
50
90
51
270
0
LINE
8
BLACK
10
32.5374
20
-52.07
11
32.5374
21
-49.53
0
LINE
8
BLACK
10
32.2326
20
-52.07
11
32.2326
21
-49.53
0
ARC
8
BLACK
10
32.385
20
-49.53
40
0.1524
50
360
51
540
0
ARC
8
BLACK
10
32.385
20
-52.07
40
0.1524
50
180
51
360
0
LINE
8
BLACK
10
23.495
20
-49.6824
11
32.385
21
-49.6824
0
LINE
8
BLACK
10
23.495
20
-49.3776
11
32.385
21
-49.3776
0
ARC
8
BLACK
10
32.385
20
-49.53
40
0.1524
50
270
51
450
0
ARC
8
BLACK
10
23.495
20
-49.53
40
0.1524
50
90
51
270
0
LINE
8
BLACK
10
23.6028
20
-50.2728
11
24.2378
21
-49.6378
0
LINE
8
BLACK
10
23.3872
20
-50.0572
11
24.0222
21
-49.4222
0
ARC
8
BLACK
10
24.13
20
-49.53
40
0.1524
50
315
51
495
0
ARC
8
BLACK
10
23.495
20
-50.165
40
0.1524
50
135
51
315
0
LINE
8
BLACK
10
22.225
20
-50.9524
11
23.495
21
-50.9524
0
LINE
8
BLACK
10
22.225
20
-50.6476
11
23.495
21
-50.6476
0
ARC
8
BLACK
10
23.495
20
-50.8
40
0.1524
50
270
51
450
0
ARC
8
BLACK
10
22.225
20
-50.8
40
0.1524
50
90
51
270
0
LINE
8
BLACK
10
32.385
20
-50.9524
11
33.655
21
-50.9524
0
LINE
8
BLACK
10
32.385
20
-50.6476
11
33.655
21
-50.6476
0
ARC
8
BLACK
10
33.655
20
-50.8
40
0.1524
50
270
51
450
0
ARC
8
BLACK
10
32.385
20
-50.8
40
0.1524
50
90
51
270
0
LINE
8
BLACK
10
23.6474
20
-40.64
11
23.6474
21
-38.1
0
LINE
8
BLACK
10
23.3426
20
-40.64
11
23.3426
21
-38.1
0
ARC
8
BLACK
10
23.495
20
-38.1
40
0.1524
50
360
51
540
0
ARC
8
BLACK
10
23.495
20
-40.64
40
0.1524
50
180
51
360
0
LINE
8
BLACK
10
23.495
20
-40.7924
11
32.385
21
-40.7924
0
LINE
8
BLACK
10
23.495
20
-40.4876
11
32.385
21
-40.4876
0
ARC
8
BLACK
10
32.385
20
-40.64
40
0.1524
50
270
51
450
0
ARC
8
BLACK
10
23.495
20
-40.64
40
0.1524
50
90
51
270
0
LINE
8
BLACK
10
32.5374
20
-40.64
11
32.5374
21
-38.1
0
LINE
8
BLACK
10
32.2326
20
-40.64
11
32.2326
21
-38.1
0
ARC
8
BLACK
10
32.385
20
-38.1
40
0.1524
50
360
51
540
0
ARC
8
BLACK
10
32.385
20
-40.64
40
0.1524
50
180
51
360
0
LINE
8
BLACK
10
23.495
20
-38.2524
11
32.385
21
-38.2524
0
LINE
8
BLACK
10
23.495
20
-37.9476
11
32.385
21
-37.9476
0
ARC
8
BLACK
10
32.385
20
-38.1
40
0.1524
50
270
51
450
0
ARC
8
BLACK
10
23.495
20
-38.1
40
0.1524
50
90
51
270
0
LINE
8
BLACK
10
23.6028
20
-38.8428
11
24.2378
21
-38.2078
0
LINE
8
BLACK
10
23.3872
20
-38.6272
11
24.0222
21
-37.9922
0
ARC
8
BLACK
10
24.13
20
-38.1
40
0.1524
50
315
51
495
0
ARC
8
BLACK
10
23.495
20
-38.735
40
0.1524
50
135
51
315
0
LINE
8
BLACK
10
22.225
20
-39.5224
11
23.495
21
-39.5224
0
LINE
8
BLACK
10
22.225
20
-39.2176
11
23.495
21
-39.2176
0
ARC
8
BLACK
10
23.495
20
-39.37
40
0.1524
50
270
51
450
0
ARC
8
BLACK
10
22.225
20
-39.37
40
0.1524
50
90
51
270
0
LINE
8
BLACK
10
32.385
20
-39.5224
11
33.655
21
-39.5224
0
LINE
8
BLACK
10
32.385
20
-39.2176
11
33.655
21
-39.2176
0
ARC
8
BLACK
10
33.655
20
-39.37
40
0.1524
50
270
51
450
0
ARC
8
BLACK
10
32.385
20
-39.37
40
0.1524
50
90
51
270
0
LINE
8
BLACK
10
23.6474
20
-29.21
11
23.6474
21
-26.67
0
LINE
8
BLACK
10
23.3426
20
-29.21
11
23.3426
21
-26.67
0
ARC
8
BLACK
10
23.495
20
-26.67
40
0.1524
50
360
51
540
0
ARC
8
BLACK
10
23.495
20
-29.21
40
0.1524
50
180
51
360
0
LINE
8
BLACK
10
23.495
20
-29.3624
11
32.385
21
-29.3624
0
LINE
8
BLACK
10
23.495
20
-29.0576
11
32.385
21
-29.0576
0
ARC
8
BLACK
10
32.385
20
-29.21
40
0.1524
50
270
51
450
0
ARC
8
BLACK
10
23.495
20
-29.21
40
0.1524
50
90
51
270
0
LINE
8
BLACK
10
32.5374
20
-29.21
11
32.5374
21
-26.67
0
LINE
8
BLACK
10
32.2326
20
-29.21
11
32.2326
21
-26.67
0
ARC
8
BLACK
10
32.385
20
-26.67
40
0.1524
50
360
51
540
0
ARC
8
BLACK
10
32.385
20
-29.21
40
0.1524
50
180
51
360
0
LINE
8
BLACK
10
23.495
20
-26.8224
11
32.385
21
-26.8224
0
LINE
8
BLACK
10
23.495
20
-26.5176
11
32.385
21
-26.5176
0
ARC
8
BLACK
10
32.385
20
-26.67
40
0.1524
50
270
51
450
0
ARC
8
BLACK
10
23.495
20
-26.67
40
0.1524
50
90
51
270
0
LINE
8
BLACK
10
23.6028
20
-27.4128
11
24.2378
21
-26.7778
0
LINE
8
BLACK
10
23.3872
20
-27.1972
11
24.0222
21
-26.5622
0
ARC
8
BLACK
10
24.13
20
-26.67
40
0.1524
50
315
51
495
0
ARC
8
BLACK
10
23.495
20
-27.305
40
0.1524
50
135
51
315
0
LINE
8
BLACK
10
22.225
20
-28.0924
11
23.495
21
-28.0924
0
LINE
8
BLACK
10
22.225
20
-27.7876
11
23.495
21
-27.7876
0
ARC
8
BLACK
10
23.495
20
-27.94
40
0.1524
50
270
51
450
0
ARC
8
BLACK
10
22.225
20
-27.94
40
0.1524
50
90
51
270
0
LINE
8
BLACK
10
32.385
20
-28.0924
11
33.655
21
-28.0924
0
LINE
8
BLACK
10
32.385
20
-27.7876
11
33.655
21
-27.7876
0
ARC
8
BLACK
10
33.655
20
-27.94
40
0.1524
50
270
51
450
0
ARC
8
BLACK
10
32.385
20
-27.94
40
0.1524
50
90
51
270
0
LINE
8
BLACK
10
23.6474
20
-17.78
11
23.6474
21
-15.24
0
LINE
8
BLACK
10
23.3426
20
-17.78
11
23.3426
21
-15.24
0
ARC
8
BLACK
10
23.495
20
-15.24
40
0.1524
50
360
51
540
0
ARC
8
BLACK
10
23.495
20
-17.78
40
0.1524
50
180
51
360
0
LINE
8
BLACK
10
23.495
20
-17.9324
11
32.385
21
-17.9324
0
LINE
8
BLACK
10
23.495
20
-17.6276
11
32.385
21
-17.6276
0
ARC
8
BLACK
10
32.385
20
-17.78
40
0.1524
50
270
51
450
0
ARC
8
BLACK
10
23.495
20
-17.78
40
0.1524
50
90
51
270
0
LINE
8
BLACK
10
32.5374
20
-17.78
11
32.5374
21
-15.24
0
LINE
8
BLACK
10
32.2326
20
-17.78
11
32.2326
21
-15.24
0
ARC
8
BLACK
10
32.385
20
-15.24
40
0.1524
50
360
51
540
0
ARC
8
BLACK
10
32.385
20
-17.78
40
0.1524
50
180
51
360
0
LINE
8
BLACK
10
23.495
20
-15.3924
11
32.385
21
-15.3924
0
LINE
8
BLACK
10
23.495
20
-15.0876
11
32.385
21
-15.0876
0
ARC
8
BLACK
10
32.385
20
-15.24
40
0.1524
50
270
51
450
0
ARC
8
BLACK
10
23.495
20
-15.24
40
0.1524
50
90
51
270
0
LINE
8
BLACK
10
23.6028
20
-15.9828
11
24.2378
21
-15.3478
0
LINE
8
BLACK
10
23.3872
20
-15.7672
11
24.0222
21
-15.1322
0
ARC
8
BLACK
10
24.13
20
-15.24
40
0.1524
50
315
51
495
0
ARC
8
BLACK
10
23.495
20
-15.875
40
0.1524
50
135
51
315
0
LINE
8
BLACK
10
22.225
20
-16.6624
11
23.495
21
-16.6624
0
LINE
8
BLACK
10
22.225
20
-16.3576
11
23.495
21
-16.3576
0
ARC
8
BLACK
10
23.495
20
-16.51
40
0.1524
50
270
51
450
0
ARC
8
BLACK
10
22.225
20
-16.51
40
0.1524
50
90
51
270
0
LINE
8
BLACK
10
32.385
20
-16.6624
11
33.655
21
-16.6624
0
LINE
8
BLACK
10
32.385
20
-16.3576
11
33.655
21
-16.3576
0
ARC
8
BLACK
10
33.655
20
-16.51
40
0.1524
50
270
51
450
0
ARC
8
BLACK
10
32.385
20
-16.51
40
0.1524
50
90
51
270
0
LINE
8
BLACK
10
23.6474
20
-6.35
11
23.6474
21
-3.81
0
LINE
8
BLACK
10
23.3426
20
-6.35
11
23.3426
21
-3.81
0
ARC
8
BLACK
10
23.495
20
-3.81
40
0.1524
50
360
51
540
0
ARC
8
BLACK
10
23.495
20
-6.35
40
0.1524
50
180
51
360
0
LINE
8
BLACK
10
23.495
20
-6.5024
11
32.385
21
-6.5024
0
LINE
8
BLACK
10
23.495
20
-6.1976
11
32.385
21
-6.1976
0
ARC
8
BLACK
10
32.385
20
-6.35
40
0.1524
50
270
51
450
0
ARC
8
BLACK
10
23.495
20
-6.35
40
0.1524
50
90
51
270
0
LINE
8
BLACK
10
32.5374
20
-6.35
11
32.5374
21
-3.81
0
LINE
8
BLACK
10
32.2326
20
-6.35
11
32.2326
21
-3.81
0
ARC
8
BLACK
10
32.385
20
-3.81
40
0.1524
50
360
51
540
0
ARC
8
BLACK
10
32.385
20
-6.35
40
0.1524
50
180
51
360
0
LINE
8
BLACK
10
23.495
20
-3.9624
11
32.385
21
-3.9624
0
LINE
8
BLACK
10
23.495
20
-3.6576
11
32.385
21
-3.6576
0
ARC
8
BLACK
10
32.385
20
-3.81
40
0.1524
50
270
51
450
0
ARC
8
BLACK
10
23.495
20
-3.81
40
0.1524
50
90
51
270
0
LINE
8
BLACK
10
23.6028
20
-4.55276
11
24.2378
21
-3.91776
0
LINE
8
BLACK
10
23.3872
20
-4.33724
11
24.0222
21
-3.70224
0
ARC
8
BLACK
10
24.13
20
-3.81
40
0.1524
50
315
51
495
0
ARC
8
BLACK
10
23.495
20
-4.445
40
0.1524
50
135
51
315
0
LINE
8
BLACK
10
22.225
20
-5.2324
11
23.495
21
-5.2324
0
LINE
8
BLACK
10
22.225
20
-4.9276
11
23.495
21
-4.9276
0
ARC
8
BLACK
10
23.495
20
-5.08
40
0.1524
50
270
51
450
0
ARC
8
BLACK
10
22.225
20
-5.08
40
0.1524
50
90
51
270
0
LINE
8
BLACK
10
32.385
20
-5.2324
11
33.655
21
-5.2324
0
LINE
8
BLACK
10
32.385
20
-4.9276
11
33.655
21
-4.9276
0
ARC
8
BLACK
10
33.655
20
-5.08
40
0.1524
50
270
51
450
0
ARC
8
BLACK
10
32.385
20
-5.08
40
0.1524
50
90
51
270
0
LINE
8
BLACK
10
44.6405
20
-12.065
11
44.6405
21
-3.175
0
LINE
8
BLACK
10
44.2595
20
-12.065
11
44.2595
21
-3.175
0
ARC
8
BLACK
10
44.45
20
-3.175
40
0.1905
50
360
51
540
0
ARC
8
BLACK
10
44.45
20
-12.065
40
0.1905
50
180
51
360
0
LINE
8
BLACK
10
39.37
20
-12.2555
11
44.45
21
-12.2555
0
LINE
8
BLACK
10
39.37
20
-11.8745
11
44.45
21
-11.8745
0
ARC
8
BLACK
10
44.45
20
-12.065
40
0.1905
50
270
51
450
0
ARC
8
BLACK
10
39.37
20
-12.065
40
0.1905
50
90
51
270
0
LINE
8
BLACK
10
39.5605
20
-12.065
11
39.5605
21
-3.175
0
LINE
8
BLACK
10
39.1795
20
-12.065
11
39.1795
21
-3.175
0
ARC
8
BLACK
10
39.37
20
-3.175
40
0.1905
50
360
51
540
0
ARC
8
BLACK
10
39.37
20
-12.065
40
0.1905
50
180
51
360
0
LINE
8
BLACK
10
39.37
20
-3.3655
11
44.45
21
-3.3655
0
LINE
8
BLACK
10
39.37
20
-2.9845
11
44.45
21
-2.9845
0
ARC
8
BLACK
10
44.45
20
-3.175
40
0.1905
50
270
51
450
0
ARC
8
BLACK
10
39.37
20
-3.175
40
0.1905
50
90
51
270
0
LINE
8
BLACK
10
42.7355
20
-4.445
11
42.7355
21
-3.175
0
LINE
8
BLACK
10
42.3545
20
-4.445
11
42.3545
21
-3.175
0
ARC
8
BLACK
10
42.545
20
-3.175
40
0.1905
50
360
51
540
0
ARC
8
BLACK
10
42.545
20
-4.445
40
0.1905
50
180
51
360
0
LINE
8
BLACK
10
41.275
20
-4.6355
11
42.545
21
-4.6355
0
LINE
8
BLACK
10
41.275
20
-4.2545
11
42.545
21
-4.2545
0
ARC
8
BLACK
10
42.545
20
-4.445
40
0.1905
50
270
51
450
0
ARC
8
BLACK
10
41.275
20
-4.445
40
0.1905
50
90
51
270
0
LINE
8
BLACK
10
41.4655
20
-4.445
11
41.4655
21
-3.175
0
LINE
8
BLACK
10
41.0845
20
-4.445
11
41.0845
21
-3.175
0
ARC
8
BLACK
10
41.275
20
-3.175
40
0.1905
50
360
51
540
0
ARC
8
BLACK
10
41.275
20
-4.445
40
0.1905
50
180
51
360
0
LINE
8
BLACK
10
44.6405
20
-92.075
11
44.6405
21
-83.185
0
LINE
8
BLACK
10
44.2595
20
-92.075
11
44.2595
21
-83.185
0
ARC
8
BLACK
10
44.45
20
-83.185
40
0.1905
50
360
51
540
0
ARC
8
BLACK
10
44.45
20
-92.075
40
0.1905
50
180
51
360
0
LINE
8
BLACK
10
39.37
20
-92.2655
11
44.45
21
-92.2655
0
LINE
8
BLACK
10
39.37
20
-91.8845
11
44.45
21
-91.8845
0
ARC
8
BLACK
10
44.45
20
-92.075
40
0.1905
50
270
51
450
0
ARC
8
BLACK
10
39.37
20
-92.075
40
0.1905
50
90
51
270
0
LINE
8
BLACK
10
39.5605
20
-92.075
11
39.5605
21
-83.185
0
LINE
8
BLACK
10
39.1795
20
-92.075
11
39.1795
21
-83.185
0
ARC
8
BLACK
10
39.37
20
-83.185
40
0.1905
50
360
51
540
0
ARC
8
BLACK
10
39.37
20
-92.075
40
0.1905
50
180
51
360
0
LINE
8
BLACK
10
39.37
20
-83.3755
11
44.45
21
-83.3755
0
LINE
8
BLACK
10
39.37
20
-82.9945
11
44.45
21
-82.9945
0
ARC
8
BLACK
10
44.45
20
-83.185
40
0.1905
50
270
51
450
0
ARC
8
BLACK
10
39.37
20
-83.185
40
0.1905
50
90
51
270
0
LINE
8
BLACK
10
42.7355
20
-84.455
11
42.7355
21
-83.185
0
LINE
8
BLACK
10
42.3545
20
-84.455
11
42.3545
21
-83.185
0
ARC
8
BLACK
10
42.545
20
-83.185
40
0.1905
50
360
51
540
0
ARC
8
BLACK
10
42.545
20
-84.455
40
0.1905
50
180
51
360
0
LINE
8
BLACK
10
41.275
20
-84.6455
11
42.545
21
-84.6455
0
LINE
8
BLACK
10
41.275
20
-84.2645
11
42.545
21
-84.2645
0
ARC
8
BLACK
10
42.545
20
-84.455
40
0.1905
50
270
51
450
0
ARC
8
BLACK
10
41.275
20
-84.455
40
0.1905
50
90
51
270
0
LINE
8
BLACK
10
41.4655
20
-84.455
11
41.4655
21
-83.185
0
LINE
8
BLACK
10
41.0845
20
-84.455
11
41.0845
21
-83.185
0
ARC
8
BLACK
10
41.275
20
-83.185
40
0.1905
50
360
51
540
0
ARC
8
BLACK
10
41.275
20
-84.455
40
0.1905
50
180
51
360
0
LINE
8
BLACK
10
44.6405
20
-80.645
11
44.6405
21
-71.755
0
LINE
8
BLACK
10
44.2595
20
-80.645
11
44.2595
21
-71.755
0
ARC
8
BLACK
10
44.45
20
-71.755
40
0.1905
50
360
51
540
0
ARC
8
BLACK
10
44.45
20
-80.645
40
0.1905
50
180
51
360
0
LINE
8
BLACK
10
39.37
20
-80.8355
11
44.45
21
-80.8355
0
LINE
8
BLACK
10
39.37
20
-80.4545
11
44.45
21
-80.4545
0
ARC
8
BLACK
10
44.45
20
-80.645
40
0.1905
50
270
51
450
0
ARC
8
BLACK
10
39.37
20
-80.645
40
0.1905
50
90
51
270
0
LINE
8
BLACK
10
39.5605
20
-80.645
11
39.5605
21
-71.755
0
LINE
8
BLACK
10
39.1795
20
-80.645
11
39.1795
21
-71.755
0
ARC
8
BLACK
10
39.37
20
-71.755
40
0.1905
50
360
51
540
0
ARC
8
BLACK
10
39.37
20
-80.645
40
0.1905
50
180
51
360
0
LINE
8
BLACK
10
39.37
20
-71.9455
11
44.45
21
-71.9455
0
LINE
8
BLACK
10
39.37
20
-71.5645
11
44.45
21
-71.5645
0
ARC
8
BLACK
10
44.45
20
-71.755
40
0.1905
50
270
51
450
0
ARC
8
BLACK
10
39.37
20
-71.755
40
0.1905
50
90
51
270
0
LINE
8
BLACK
10
42.7355
20
-73.025
11
42.7355
21
-71.755
0
LINE
8
BLACK
10
42.3545
20
-73.025
11
42.3545
21
-71.755
0
ARC
8
BLACK
10
42.545
20
-71.755
40
0.1905
50
360
51
540
0
ARC
8
BLACK
10
42.545
20
-73.025
40
0.1905
50
180
51
360
0
LINE
8
BLACK
10
41.275
20
-73.2155
11
42.545
21
-73.2155
0
LINE
8
BLACK
10
41.275
20
-72.8345
11
42.545
21
-72.8345
0
ARC
8
BLACK
10
42.545
20
-73.025
40
0.1905
50
270
51
450
0
ARC
8
BLACK
10
41.275
20
-73.025
40
0.1905
50
90
51
270
0
LINE
8
BLACK
10
41.4655
20
-73.025
11
41.4655
21
-71.755
0
LINE
8
BLACK
10
41.0845
20
-73.025
11
41.0845
21
-71.755
0
ARC
8
BLACK
10
41.275
20
-71.755
40
0.1905
50
360
51
540
0
ARC
8
BLACK
10
41.275
20
-73.025
40
0.1905
50
180
51
360
0
LINE
8
BLACK
10
44.6405
20
-69.215
11
44.6405
21
-60.325
0
LINE
8
BLACK
10
44.2595
20
-69.215
11
44.2595
21
-60.325
0
ARC
8
BLACK
10
44.45
20
-60.325
40
0.1905
50
360
51
540
0
ARC
8
BLACK
10
44.45
20
-69.215
40
0.1905
50
180
51
360
0
LINE
8
BLACK
10
39.37
20
-69.4055
11
44.45
21
-69.4055
0
LINE
8
BLACK
10
39.37
20
-69.0245
11
44.45
21
-69.0245
0
ARC
8
BLACK
10
44.45
20
-69.215
40
0.1905
50
270
51
450
0
ARC
8
BLACK
10
39.37
20
-69.215
40
0.1905
50
90
51
270
0
LINE
8
BLACK
10
39.5605
20
-69.215
11
39.5605
21
-60.325
0
LINE
8
BLACK
10
39.1795
20
-69.215
11
39.1795
21
-60.325
0
ARC
8
BLACK
10
39.37
20
-60.325
40
0.1905
50
360
51
540
0
ARC
8
BLACK
10
39.37
20
-69.215
40
0.1905
50
180
51
360
0
LINE
8
BLACK
10
39.37
20
-60.5155
11
44.45
21
-60.5155
0
LINE
8
BLACK
10
39.37
20
-60.1345
11
44.45
21
-60.1345
0
ARC
8
BLACK
10
44.45
20
-60.325
40
0.1905
50
270
51
450
0
ARC
8
BLACK
10
39.37
20
-60.325
40
0.1905
50
90
51
270
0
LINE
8
BLACK
10
42.7355
20
-61.595
11
42.7355
21
-60.325
0
LINE
8
BLACK
10
42.3545
20
-61.595
11
42.3545
21
-60.325
0
ARC
8
BLACK
10
42.545
20
-60.325
40
0.1905
50
360
51
540
0
ARC
8
BLACK
10
42.545
20
-61.595
40
0.1905
50
180
51
360
0
LINE
8
BLACK
10
41.275
20
-61.7855
11
42.545
21
-61.7855
0
LINE
8
BLACK
10
41.275
20
-61.4045
11
42.545
21
-61.4045
0
ARC
8
BLACK
10
42.545
20
-61.595
40
0.1905
50
270
51
450
0
ARC
8
BLACK
10
41.275
20
-61.595
40
0.1905
50
90
51
270
0
LINE
8
BLACK
10
41.4655
20
-61.595
11
41.4655
21
-60.325
0
LINE
8
BLACK
10
41.0845
20
-61.595
11
41.0845
21
-60.325
0
ARC
8
BLACK
10
41.275
20
-60.325
40
0.1905
50
360
51
540
0
ARC
8
BLACK
10
41.275
20
-61.595
40
0.1905
50
180
51
360
0
LINE
8
BLACK
10
44.6405
20
-57.785
11
44.6405
21
-48.895
0
LINE
8
BLACK
10
44.2595
20
-57.785
11
44.2595
21
-48.895
0
ARC
8
BLACK
10
44.45
20
-48.895
40
0.1905
50
360
51
540
0
ARC
8
BLACK
10
44.45
20
-57.785
40
0.1905
50
180
51
360
0
LINE
8
BLACK
10
39.37
20
-57.9755
11
44.45
21
-57.9755
0
LINE
8
BLACK
10
39.37
20
-57.5945
11
44.45
21
-57.5945
0
ARC
8
BLACK
10
44.45
20
-57.785
40
0.1905
50
270
51
450
0
ARC
8
BLACK
10
39.37
20
-57.785
40
0.1905
50
90
51
270
0
LINE
8
BLACK
10
39.5605
20
-57.785
11
39.5605
21
-48.895
0
LINE
8
BLACK
10
39.1795
20
-57.785
11
39.1795
21
-48.895
0
ARC
8
BLACK
10
39.37
20
-48.895
40
0.1905
50
360
51
540
0
ARC
8
BLACK
10
39.37
20
-57.785
40
0.1905
50
180
51
360
0
LINE
8
BLACK
10
39.37
20
-49.0855
11
44.45
21
-49.0855
0
LINE
8
BLACK
10
39.37
20
-48.7045
11
44.45
21
-48.7045
0
ARC
8
BLACK
10
44.45
20
-48.895
40
0.1905
50
270
51
450
0
ARC
8
BLACK
10
39.37
20
-48.895
40
0.1905
50
90
51
270
0
LINE
8
BLACK
10
42.7355
20
-50.165
11
42.7355
21
-48.895
0
LINE
8
BLACK
10
42.3545
20
-50.165
11
42.3545
21
-48.895
0
ARC
8
BLACK
10
42.545
20
-48.895
40
0.1905
50
360
51
540
0
ARC
8
BLACK
10
42.545
20
-50.165
40
0.1905
50
180
51
360
0
LINE
8
BLACK
10
41.275
20
-50.3555
11
42.545
21
-50.3555
0
LINE
8
BLACK
10
41.275
20
-49.9745
11
42.545
21
-49.9745
0
ARC
8
BLACK
10
42.545
20
-50.165
40
0.1905
50
270
51
450
0
ARC
8
BLACK
10
41.275
20
-50.165
40
0.1905
50
90
51
270
0
LINE
8
BLACK
10
41.4655
20
-50.165
11
41.4655
21
-48.895
0
LINE
8
BLACK
10
41.0845
20
-50.165
11
41.0845
21
-48.895
0
ARC
8
BLACK
10
41.275
20
-48.895
40
0.1905
50
360
51
540
0
ARC
8
BLACK
10
41.275
20
-50.165
40
0.1905
50
180
51
360
0
LINE
8
BLACK
10
44.6405
20
-46.355
11
44.6405
21
-37.465
0
LINE
8
BLACK
10
44.2595
20
-46.355
11
44.2595
21
-37.465
0
ARC
8
BLACK
10
44.45
20
-37.465
40
0.1905
50
360
51
540
0
ARC
8
BLACK
10
44.45
20
-46.355
40
0.1905
50
180
51
360
0
LINE
8
BLACK
10
39.37
20
-46.5455
11
44.45
21
-46.5455
0
LINE
8
BLACK
10
39.37
20
-46.1645
11
44.45
21
-46.1645
0
ARC
8
BLACK
10
44.45
20
-46.355
40
0.1905
50
270
51
450
0
ARC
8
BLACK
10
39.37
20
-46.355
40
0.1905
50
90
51
270
0
LINE
8
BLACK
10
39.5605
20
-46.355
11
39.5605
21
-37.465
0
LINE
8
BLACK
10
39.1795
20
-46.355
11
39.1795
21
-37.465
0
ARC
8
BLACK
10
39.37
20
-37.465
40
0.1905
50
360
51
540
0
ARC
8
BLACK
10
39.37
20
-46.355
40
0.1905
50
180
51
360
0
LINE
8
BLACK
10
39.37
20
-37.6555
11
44.45
21
-37.6555
0
LINE
8
BLACK
10
39.37
20
-37.2745
11
44.45
21
-37.2745
0
ARC
8
BLACK
10
44.45
20
-37.465
40
0.1905
50
270
51
450
0
ARC
8
BLACK
10
39.37
20
-37.465
40
0.1905
50
90
51
270
0
LINE
8
BLACK
10
42.7355
20
-38.735
11
42.7355
21
-37.465
0
LINE
8
BLACK
10
42.3545
20
-38.735
11
42.3545
21
-37.465
0
ARC
8
BLACK
10
42.545
20
-37.465
40
0.1905
50
360
51
540
0
ARC
8
BLACK
10
42.545
20
-38.735
40
0.1905
50
180
51
360
0
LINE
8
BLACK
10
41.275
20
-38.9255
11
42.545
21
-38.9255
0
LINE
8
BLACK
10
41.275
20
-38.5445
11
42.545
21
-38.5445
0
ARC
8
BLACK
10
42.545
20
-38.735
40
0.1905
50
270
51
450
0
ARC
8
BLACK
10
41.275
20
-38.735
40
0.1905
50
90
51
270
0
LINE
8
BLACK
10
41.4655
20
-38.735
11
41.4655
21
-37.465
0
LINE
8
BLACK
10
41.0845
20
-38.735
11
41.0845
21
-37.465
0
ARC
8
BLACK
10
41.275
20
-37.465
40
0.1905
50
360
51
540
0
ARC
8
BLACK
10
41.275
20
-38.735
40
0.1905
50
180
51
360
0
LINE
8
BLACK
10
44.6405
20
-34.925
11
44.6405
21
-26.035
0
LINE
8
BLACK
10
44.2595
20
-34.925
11
44.2595
21
-26.035
0
ARC
8
BLACK
10
44.45
20
-26.035
40
0.1905
50
360
51
540
0
ARC
8
BLACK
10
44.45
20
-34.925
40
0.1905
50
180
51
360
0
LINE
8
BLACK
10
39.37
20
-35.1155
11
44.45
21
-35.1155
0
LINE
8
BLACK
10
39.37
20
-34.7345
11
44.45
21
-34.7345
0
ARC
8
BLACK
10
44.45
20
-34.925
40
0.1905
50
270
51
450
0
ARC
8
BLACK
10
39.37
20
-34.925
40
0.1905
50
90
51
270
0
LINE
8
BLACK
10
39.5605
20
-34.925
11
39.5605
21
-26.035
0
LINE
8
BLACK
10
39.1795
20
-34.925
11
39.1795
21
-26.035
0
ARC
8
BLACK
10
39.37
20
-26.035
40
0.1905
50
360
51
540
0
ARC
8
BLACK
10
39.37
20
-34.925
40
0.1905
50
180
51
360
0
LINE
8
BLACK
10
39.37
20
-26.2255
11
44.45
21
-26.2255
0
LINE
8
BLACK
10
39.37
20
-25.8445
11
44.45
21
-25.8445
0
ARC
8
BLACK
10
44.45
20
-26.035
40
0.1905
50
270
51
450
0
ARC
8
BLACK
10
39.37
20
-26.035
40
0.1905
50
90
51
270
0
LINE
8
BLACK
10
42.7355
20
-27.305
11
42.7355
21
-26.035
0
LINE
8
BLACK
10
42.3545
20
-27.305
11
42.3545
21
-26.035
0
ARC
8
BLACK
10
42.545
20
-26.035
40
0.1905
50
360
51
540
0
ARC
8
BLACK
10
42.545
20
-27.305
40
0.1905
50
180
51
360
0
LINE
8
BLACK
10
41.275
20
-27.4955
11
42.545
21
-27.4955
0
LINE
8
BLACK
10
41.275
20
-27.1145
11
42.545
21
-27.1145
0
ARC
8
BLACK
10
42.545
20
-27.305
40
0.1905
50
270
51
450
0
ARC
8
BLACK
10
41.275
20
-27.305
40
0.1905
50
90
51
270
0
LINE
8
BLACK
10
41.4655
20
-27.305
11
41.4655
21
-26.035
0
LINE
8
BLACK
10
41.0845
20
-27.305
11
41.0845
21
-26.035
0
ARC
8
BLACK
10
41.275
20
-26.035
40
0.1905
50
360
51
540
0
ARC
8
BLACK
10
41.275
20
-27.305
40
0.1905
50
180
51
360
0
LINE
8
BLACK
10
44.6405
20
-23.495
11
44.6405
21
-14.605
0
LINE
8
BLACK
10
44.2595
20
-23.495
11
44.2595
21
-14.605
0
ARC
8
BLACK
10
44.45
20
-14.605
40
0.1905
50
360
51
540
0
ARC
8
BLACK
10
44.45
20
-23.495
40
0.1905
50
180
51
360
0
LINE
8
BLACK
10
39.37
20
-23.6855
11
44.45
21
-23.6855
0
LINE
8
BLACK
10
39.37
20
-23.3045
11
44.45
21
-23.3045
0
ARC
8
BLACK
10
44.45
20
-23.495
40
0.1905
50
270
51
450
0
ARC
8
BLACK
10
39.37
20
-23.495
40
0.1905
50
90
51
270
0
LINE
8
BLACK
10
39.5605
20
-23.495
11
39.5605
21
-14.605
0
LINE
8
BLACK
10
39.1795
20
-23.495
11
39.1795
21
-14.605
0
ARC
8
BLACK
10
39.37
20
-14.605
40
0.1905
50
360
51
540
0
ARC
8
BLACK
10
39.37
20
-23.495
40
0.1905
50
180
51
360
0
LINE
8
BLACK
10
39.37
20
-14.7955
11
44.45
21
-14.7955
0
LINE
8
BLACK
10
39.37
20
-14.4145
11
44.45
21
-14.4145
0
ARC
8
BLACK
10
44.45
20
-14.605
40
0.1905
50
270
51
450
0
ARC
8
BLACK
10
39.37
20
-14.605
40
0.1905
50
90
51
270
0
LINE
8
BLACK
10
42.7355
20
-15.875
11
42.7355
21
-14.605
0
LINE
8
BLACK
10
42.3545
20
-15.875
11
42.3545
21
-14.605
0
ARC
8
BLACK
10
42.545
20
-14.605
40
0.1905
50
360
51
540
0
ARC
8
BLACK
10
42.545
20
-15.875
40
0.1905
50
180
51
360
0
LINE
8
BLACK
10
41.275
20
-16.0655
11
42.545
21
-16.0655
0
LINE
8
BLACK
10
41.275
20
-15.6845
11
42.545
21
-15.6845
0
ARC
8
BLACK
10
42.545
20
-15.875
40
0.1905
50
270
51
450
0
ARC
8
BLACK
10
41.275
20
-15.875
40
0.1905
50
90
51
270
0
LINE
8
BLACK
10
41.4655
20
-15.875
11
41.4655
21
-14.605
0
LINE
8
BLACK
10
41.0845
20
-15.875
11
41.0845
21
-14.605
0
ARC
8
BLACK
10
41.275
20
-14.605
40
0.1905
50
360
51
540
0
ARC
8
BLACK
10
41.275
20
-15.875
40
0.1905
50
180
51
360
0
LINE
8
BLACK
10
1.27
20
-20.9824
11
15.24
21
-20.9824
0
LINE
8
BLACK
10
1.27
20
-20.6776
11
15.24
21
-20.6776
0
ARC
8
BLACK
10
15.24
20
-20.83
40
0.1524
50
270
51
450
0
ARC
8
BLACK
10
1.27
20
-20.83
40
0.1524
50
90
51
270
0
LINE
8
BLACK
10
6.35
20
-28.6024
11
15.24
21
-28.6024
0
LINE
8
BLACK
10
6.35
20
-28.2976
11
15.24
21
-28.2976
0
ARC
8
BLACK
10
15.24
20
-28.45
40
0.1524
50
270
51
450
0
ARC
8
BLACK
10
6.35
20
-28.45
40
0.1524
50
90
51
270
0
LINE
8
BLACK
10
1.27
20
-26.6974
11
6.35
21
-26.6974
0
LINE
8
BLACK
10
1.27
20
-26.3926
11
6.35
21
-26.3926
0
ARC
8
BLACK
10
6.35
20
-26.545
40
0.1524
50
270
51
450
0
ARC
8
BLACK
10
1.27
20
-26.545
40
0.1524
50
90
51
270
0
LINE
8
BLACK
10
1.27
20
-68.6074
11
6.35
21
-68.6074
0
LINE
8
BLACK
10
1.27
20
-68.3026
11
6.35
21
-68.3026
0
ARC
8
BLACK
10
6.35
20
-68.455
40
0.1524
50
270
51
450
0
ARC
8
BLACK
10
1.27
20
-68.455
40
0.1524
50
90
51
270
0
LINE
8
BLACK
10
6.35
20
-66.7024
11
15.24
21
-66.7024
0
LINE
8
BLACK
10
6.35
20
-66.3976
11
15.24
21
-66.3976
0
ARC
8
BLACK
10
15.24
20
-66.55
40
0.1524
50
270
51
450
0
ARC
8
BLACK
10
6.35
20
-66.55
40
0.1524
50
90
51
270
0
LINE
8
BLACK
10
1.27
20
-74.3224
11
15.24
21
-74.3224
0
LINE
8
BLACK
10
1.27
20
-74.0176
11
15.24
21
-74.0176
0
ARC
8
BLACK
10
15.24
20
-74.17
40
0.1524
50
270
51
450
0
ARC
8
BLACK
10
1.27
20
-74.17
40
0.1524
50
90
51
270
0
LINE
8
BLACK
10
6.5024
20
-28.45
11
6.5024
21
-20.83
0
LINE
8
BLACK
10
6.1976
20
-28.45
11
6.1976
21
-20.83
0
ARC
8
BLACK
10
6.35
20
-20.83
40
0.1524
50
360
51
540
0
ARC
8
BLACK
10
6.35
20
-28.45
40
0.1524
50
180
51
360
0
LINE
8
BLACK
10
6.5024
20
-74.17
11
6.5024
21
-66.55
0
LINE
8
BLACK
10
6.1976
20
-74.17
11
6.1976
21
-66.55
0
ARC
8
BLACK
10
6.35
20
-66.55
40
0.1524
50
360
51
540
0
ARC
8
BLACK
10
6.35
20
-74.17
40
0.1524
50
180
51
360
0
LINE
8
BLACK
10
1.27
20
-27.3324
11
4.445
21
-27.3324
0
LINE
8
BLACK
10
1.27
20
-27.0276
11
4.445
21
-27.0276
0
ARC
8
BLACK
10
4.445
20
-27.18
40
0.1524
50
270
51
450
0
ARC
8
BLACK
10
1.27
20
-27.18
40
0.1524
50
90
51
270
0
LINE
8
BLACK
10
1.27
20
-67.9724
11
4.445
21
-67.9724
0
LINE
8
BLACK
10
1.27
20
-67.6676
11
4.445
21
-67.6676
0
ARC
8
BLACK
10
4.445
20
-67.82
40
0.1524
50
270
51
450
0
ARC
8
BLACK
10
1.27
20
-67.82
40
0.1524
50
90
51
270
0
LINE
8
BLACK
10
-5.715
20
-27.3324
11
0
21
-27.3324
0
LINE
8
BLACK
10
-5.715
20
-27.0276
11
0
21
-27.0276
0
ARC
8
BLACK
10
0
20
-27.18
40
0.1524
50
270
51
450
0
ARC
8
BLACK
10
-5.715
20
-27.18
40
0.1524
50
90
51
270
0
LINE
8
BLACK
10
-5.715
20
-67.9724
11
0
21
-67.9724
0
LINE
8
BLACK
10
-5.715
20
-67.6676
11
0
21
-67.6676
0
ARC
8
BLACK
10
0
20
-67.82
40
0.1524
50
270
51
450
0
ARC
8
BLACK
10
-5.715
20
-67.82
40
0.1524
50
90
51
270
0
LINE
8
BLACK
10
0
20
-20.9824
11
1.27
21
-20.9824
0
LINE
8
BLACK
10
0
20
-20.6776
11
1.27
21
-20.6776
0
ARC
8
BLACK
10
1.27
20
-20.83
40
0.1524
50
270
51
450
0
ARC
8
BLACK
10
0
20
-20.83
40
0.1524
50
90
51
270
0
LINE
8
BLACK
10
0.1524
20
-74.17
11
0.1524
21
-20.83
0
LINE
8
BLACK
10
-0.1524
20
-74.17
11
-0.1524
21
-20.83
0
ARC
8
BLACK
10
0
20
-20.83
40
0.1524
50
360
51
540
0
ARC
8
BLACK
10
0
20
-74.17
40
0.1524
50
180
51
360
0
LINE
8
BLACK
10
0
20
-74.3224
11
1.27
21
-74.3224
0
LINE
8
BLACK
10
0
20
-74.0176
11
1.27
21
-74.0176
0
ARC
8
BLACK
10
1.27
20
-74.17
40
0.1524
50
270
51
450
0
ARC
8
BLACK
10
0
20
-74.17
40
0.1524
50
90
51
270
0
LINE
8
BLACK
10
1.4224
20
-74.17
11
1.4224
21
-20.83
0
LINE
8
BLACK
10
1.1176
20
-74.17
11
1.1176
21
-20.83
0
ARC
8
BLACK
10
1.27
20
-20.83
40
0.1524
50
360
51
540
0
ARC
8
BLACK
10
1.27
20
-74.17
40
0.1524
50
180
51
360
0
LINE
8
BLACK
10
15.3924
20
-28.45
11
15.3924
21
-20.83
0
LINE
8
BLACK
10
15.0876
20
-28.45
11
15.0876
21
-20.83
0
ARC
8
BLACK
10
15.24
20
-20.83
40
0.1524
50
360
51
540
0
ARC
8
BLACK
10
15.24
20
-28.45
40
0.1524
50
180
51
360
0
LINE
8
BLACK
10
4.5974
20
-67.82
11
4.5974
21
-27.18
0
LINE
8
BLACK
10
4.2926
20
-67.82
11
4.2926
21
-27.18
0
ARC
8
BLACK
10
4.445
20
-27.18
40
0.1524
50
360
51
540
0
ARC
8
BLACK
10
4.445
20
-67.82
40
0.1524
50
180
51
360
0
LINE
8
BLACK
10
-5.5626
20
-67.82
11
-5.5626
21
-27.18
0
LINE
8
BLACK
10
-5.8674
20
-67.82
11
-5.8674
21
-27.18
0
ARC
8
BLACK
10
-5.715
20
-27.18
40
0.1524
50
360
51
540
0
ARC
8
BLACK
10
-5.715
20
-67.82
40
0.1524
50
180
51
360
0
LINE
8
BLACK
10
15.3924
20
-74.17
11
15.3924
21
-66.55
0
LINE
8
BLACK
10
15.0876
20
-74.17
11
15.0876
21
-66.55
0
ARC
8
BLACK
10
15.24
20
-66.55
40
0.1524
50
360
51
540
0
ARC
8
BLACK
10
15.24
20
-74.17
40
0.1524
50
180
51
360
0
LINE
8
BLACK
10
22.606
20
-90.4875
11
34.036
21
-90.4875
0
LINE
8
BLACK
10
22.606
20
-89.8525
11
34.036
21
-89.8525
0
ARC
8
BLACK
10
34.036
20
-90.17
40
0.3175
50
270
51
450
0
ARC
8
BLACK
10
22.606
20
-90.17
40
0.3175
50
90
51
270
0
LINE
8
BLACK
10
34.3535
20
-90.805
11
34.3535
21
-90.17
0
LINE
8
BLACK
10
33.7185
20
-90.805
11
33.7185
21
-90.17
0
ARC
8
BLACK
10
34.036
20
-90.17
40
0.3175
50
360
51
540
0
ARC
8
BLACK
10
34.036
20
-90.805
40
0.3175
50
180
51
360
0
LINE
8
BLACK
10
22.606
20
-91.1225
11
34.036
21
-91.1225
0
LINE
8
BLACK
10
22.606
20
-90.4875
11
34.036
21
-90.4875
0
ARC
8
BLACK
10
34.036
20
-90.805
40
0.3175
50
270
51
450
0
ARC
8
BLACK
10
22.606
20
-90.805
40
0.3175
50
90
51
270
0
LINE
8
BLACK
10
22.9235
20
-91.44
11
22.9235
21
-90.805
0
LINE
8
BLACK
10
22.2885
20
-91.44
11
22.2885
21
-90.805
0
ARC
8
BLACK
10
22.606
20
-90.805
40
0.3175
50
360
51
540
0
ARC
8
BLACK
10
22.606
20
-91.44
40
0.3175
50
180
51
360
0
LINE
8
BLACK
10
22.606
20
-91.7575
11
34.163
21
-91.7575
0
LINE
8
BLACK
10
22.606
20
-91.1225
11
34.163
21
-91.1225
0
ARC
8
BLACK
10
34.163
20
-91.44
40
0.3175
50
270
51
450
0
ARC
8
BLACK
10
22.606
20
-91.44
40
0.3175
50
90
51
270
0
LINE
8
BLACK
10
34.4805
20
-92.075
11
34.4805
21
-91.44
0
LINE
8
BLACK
10
33.8455
20
-92.075
11
33.8455
21
-91.44
0
ARC
8
BLACK
10
34.163
20
-91.44
40
0.3175
50
360
51
540
0
ARC
8
BLACK
10
34.163
20
-92.075
40
0.3175
50
180
51
360
0
LINE
8
BLACK
10
22.606
20
-92.3925
11
34.163
21
-92.3925
0
LINE
8
BLACK
10
22.606
20
-91.7575
11
34.163
21
-91.7575
0
ARC
8
BLACK
10
34.163
20
-92.075
40
0.3175
50
270
51
450
0
ARC
8
BLACK
10
22.606
20
-92.075
40
0.3175
50
90
51
270
0
LINE
8
BLACK
10
22.9235
20
-92.583
11
22.9235
21
-92.075
0
LINE
8
BLACK
10
22.2885
20
-92.583
11
22.2885
21
-92.075
0
ARC
8
BLACK
10
22.606
20
-92.075
40
0.3175
50
360
51
540
0
ARC
8
BLACK
10
22.606
20
-92.583
40
0.3175
50
180
51
360
0
LINE
8
BLACK
10
22.606
20
-92.9005
11
34.036
21
-92.9005
0
LINE
8
BLACK
10
22.606
20
-92.2655
11
34.036
21
-92.2655
0
ARC
8
BLACK
10
34.036
20
-92.583
40
0.3175
50
270
51
450
0
ARC
8
BLACK
10
22.606
20
-92.583
40
0.3175
50
90
51
270
0
LINE
8
BLACK
10
22.479
20
-89.8525
11
34.29
21
-89.8525
0
LINE
8
BLACK
10
22.479
20
-89.4715
11
34.29
21
-89.4715
0
ARC
8
BLACK
10
34.29
20
-89.662
40
0.1905
50
270
51
450
0
ARC
8
BLACK
10
22.479
20
-89.662
40
0.1905
50
90
51
270
0
LINE
8
BLACK
10
22.6695
20
-92.964
11
22.6695
21
-89.662
0
LINE
8
BLACK
10
22.2885
20
-92.964
11
22.2885
21
-89.662
0
ARC
8
BLACK
10
22.479
20
-89.662
40
0.1905
50
360
51
540
0
ARC
8
BLACK
10
22.479
20
-92.964
40
0.1905
50
180
51
360
0
LINE
8
BLACK
10
22.479
20
-93.1545
11
34.29
21
-93.1545
0
LINE
8
BLACK
10
22.479
20
-92.7735
11
34.29
21
-92.7735
0
ARC
8
BLACK
10
34.29
20
-92.964
40
0.1905
50
270
51
450
0
ARC
8
BLACK
10
22.479
20
-92.964
40
0.1905
50
90
51
270
0
LINE
8
BLACK
10
34.4805
20
-92.964
11
34.4805
21
-89.662
0
LINE
8
BLACK
10
34.0995
20
-92.964
11
34.0995
21
-89.662
0
ARC
8
BLACK
10
34.29
20
-89.662
40
0.1905
50
360
51
540
0
ARC
8
BLACK
10
34.29
20
-92.964
40
0.1905
50
180
51
360
0
LINE
8
BLACK
10
92.8116
20
-60.325
11
92.8116
21
-52.705
0
LINE
8
BLACK
10
92.6084
20
-60.325
11
92.6084
21
-52.705
0
ARC
8
BLACK
10
92.71
20
-52.705
40
0.1016
50
360
51
540
0
ARC
8
BLACK
10
92.71
20
-60.325
40
0.1016
50
180
51
360
0
LINE
8
BLACK
10
87.7316
20
-60.325
11
87.7316
21
-52.705
0
LINE
8
BLACK
10
87.5284
20
-60.325
11
87.5284
21
-52.705
0
ARC
8
BLACK
10
87.63
20
-52.705
40
0.1016
50
360
51
540
0
ARC
8
BLACK
10
87.63
20
-60.325
40
0.1016
50
180
51
360
0
LINE
8
BLACK
10
87.63
20
-52.8066
11
92.71
21
-52.8066
0
LINE
8
BLACK
10
87.63
20
-52.6034
11
92.71
21
-52.6034
0
ARC
8
BLACK
10
92.71
20
-52.705
40
0.1016
50
270
51
450
0
ARC
8
BLACK
10
87.63
20
-52.705
40
0.1016
50
90
51
270
0
LINE
8
BLACK
10
87.63
20
-60.4266
11
92.71
21
-60.4266
0
LINE
8
BLACK
10
87.63
20
-60.2234
11
92.71
21
-60.2234
0
ARC
8
BLACK
10
92.71
20
-60.325
40
0.1016
50
270
51
450
0
ARC
8
BLACK
10
87.63
20
-60.325
40
0.1016
50
90
51
270
0
LINE
8
BLACK
10
70.0405
20
-36.83
11
70.0405
21
-35.56
0
LINE
8
BLACK
10
69.6595
20
-36.83
11
69.6595
21
-35.56
0
ARC
8
BLACK
10
69.85
20
-35.56
40
0.1905
50
360
51
540
0
ARC
8
BLACK
10
69.85
20
-36.83
40
0.1905
50
180
51
360
0
LINE
8
BLACK
10
67.31
20
-37.0205
11
69.85
21
-37.0205
0
LINE
8
BLACK
10
67.31
20
-36.6395
11
69.85
21
-36.6395
0
ARC
8
BLACK
10
69.85
20
-36.83
40
0.1905
50
270
51
450
0
ARC
8
BLACK
10
67.31
20
-36.83
40
0.1905
50
90
51
270
0
LINE
8
BLACK
10
67.5005
20
-36.83
11
67.5005
21
-35.56
0
LINE
8
BLACK
10
67.1195
20
-36.83
11
67.1195
21
-35.56
0
ARC
8
BLACK
10
67.31
20
-35.56
40
0.1905
50
360
51
540
0
ARC
8
BLACK
10
67.31
20
-36.83
40
0.1905
50
180
51
360
0
LINE
8
BLACK
10
71.3105
20
-60.96
11
71.3105
21
-35.56
0
LINE
8
BLACK
10
70.9295
20
-60.96
11
70.9295
21
-35.56
0
ARC
8
BLACK
10
71.12
20
-35.56
40
0.1905
50
360
51
540
0
ARC
8
BLACK
10
71.12
20
-60.96
40
0.1905
50
180
51
360
0
LINE
8
BLACK
10
66.04
20
-61.1505
11
71.12
21
-61.1505
0
LINE
8
BLACK
10
66.04
20
-60.7695
11
71.12
21
-60.7695
0
ARC
8
BLACK
10
71.12
20
-60.96
40
0.1905
50
270
51
450
0
ARC
8
BLACK
10
66.04
20
-60.96
40
0.1905
50
90
51
270
0
LINE
8
BLACK
10
66.2305
20
-60.96
11
66.2305
21
-35.56
0
LINE
8
BLACK
10
65.8495
20
-60.96
11
65.8495
21
-35.56
0
ARC
8
BLACK
10
66.04
20
-35.56
40
0.1905
50
360
51
540
0
ARC
8
BLACK
10
66.04
20
-60.96
40
0.1905
50
180
51
360
0
LINE
8
BLACK
10
66.04
20
-35.7505
11
71.12
21
-35.7505
0
LINE
8
BLACK
10
66.04
20
-35.3695
11
71.12
21
-35.3695
0
ARC
8
BLACK
10
71.12
20
-35.56
40
0.1905
50
270
51
450
0
ARC
8
BLACK
10
66.04
20
-35.56
40
0.1905
50
90
51
270
0
LINE
8
BLACK
10
85.4
20
-14.7005
11
93.4
21
-14.7005
0
LINE
8
BLACK
10
85.4
20
-14.3195
11
93.4
21
-14.3195
0
ARC
8
BLACK
10
93.4
20
-14.51
40
0.1905
50
270
51
450
0
ARC
8
BLACK
10
85.4
20
-14.51
40
0.1905
50
90
51
270
0
LINE
8
BLACK
10
85.4
20
-23.7005
11
93.4
21
-23.7005
0
LINE
8
BLACK
10
85.4
20
-23.3195
11
93.4
21
-23.3195
0
ARC
8
BLACK
10
93.4
20
-23.51
40
0.1905
50
270
51
450
0
ARC
8
BLACK
10
85.4
20
-23.51
40
0.1905
50
90
51
270
0
LINE
8
BLACK
10
85.5905
20
-23.51
11
85.5905
21
-14.51
0
LINE
8
BLACK
10
85.2095
20
-23.51
11
85.2095
21
-14.51
0
ARC
8
BLACK
10
85.4
20
-14.51
40
0.1905
50
360
51
540
0
ARC
8
BLACK
10
85.4
20
-23.51
40
0.1905
50
180
51
360
0
LINE
8
BLACK
10
92.5905
20
-23.51
11
92.5905
21
-14.51
0
LINE
8
BLACK
10
92.2095
20
-23.51
11
92.2095
21
-14.51
0
ARC
8
BLACK
10
92.4
20
-14.51
40
0.1905
50
360
51
540
0
ARC
8
BLACK
10
92.4
20
-23.51
40
0.1905
50
180
51
360
0
LINE
8
BLACK
10
93.5905
20
-23.51
11
93.5905
21
-14.51
0
LINE
8
BLACK
10
93.2095
20
-23.51
11
93.2095
21
-14.51
0
ARC
8
BLACK
10
93.4
20
-14.51
40
0.1905
50
360
51
540
0
ARC
8
BLACK
10
93.4
20
-23.51
40
0.1905
50
180
51
360
0
LINE
8
BLACK
10
87.63
20
-47.1424
11
90.17
21
-47.1424
0
LINE
8
BLACK
10
87.63
20
-46.8376
11
90.17
21
-46.8376
0
ARC
8
BLACK
10
90.17
20
-46.99
40
0.1524
50
270
51
450
0
ARC
8
BLACK
10
87.63
20
-46.99
40
0.1524
50
90
51
270
0
LINE
8
BLACK
10
87.63
20
-34.4424
11
90.17
21
-34.4424
0
LINE
8
BLACK
10
87.63
20
-34.1376
11
90.17
21
-34.1376
0
ARC
8
BLACK
10
90.17
20
-34.29
40
0.1524
50
270
51
450
0
ARC
8
BLACK
10
87.63
20
-34.29
40
0.1524
50
90
51
270
0
LINE
8
BLACK
10
87.7824
20
-46.99
11
87.7824
21
-34.29
0
LINE
8
BLACK
10
87.4776
20
-46.99
11
87.4776
21
-34.29
0
ARC
8
BLACK
10
87.63
20
-34.29
40
0.1524
50
360
51
540
0
ARC
8
BLACK
10
87.63
20
-46.99
40
0.1524
50
180
51
360
0
LINE
8
BLACK
10
90.3224
20
-46.99
11
90.3224
21
-34.29
0
LINE
8
BLACK
10
90.0176
20
-46.99
11
90.0176
21
-34.29
0
ARC
8
BLACK
10
90.17
20
-34.29
40
0.1524
50
360
51
540
0
ARC
8
BLACK
10
90.17
20
-46.99
40
0.1524
50
180
51
360
0
LINE
8
BLACK
10
59.055
20
-34.4424
11
61.595
21
-34.4424
0
LINE
8
BLACK
10
59.055
20
-34.1376
11
61.595
21
-34.1376
0
ARC
8
BLACK
10
61.595
20
-34.29
40
0.1524
50
270
51
450
0
ARC
8
BLACK
10
59.055
20
-34.29
40
0.1524
50
90
51
270
0
LINE
8
BLACK
10
61.7474
20
-59.69
11
61.7474
21
-34.29
0
LINE
8
BLACK
10
61.4426
20
-59.69
11
61.4426
21
-34.29
0
ARC
8
BLACK
10
61.595
20
-34.29
40
0.1524
50
360
51
540
0
ARC
8
BLACK
10
61.595
20
-59.69
40
0.1524
50
180
51
360
0
LINE
8
BLACK
10
59.055
20
-59.8424
11
61.595
21
-59.8424
0
LINE
8
BLACK
10
59.055
20
-59.5376
11
61.595
21
-59.5376
0
ARC
8
BLACK
10
61.595
20
-59.69
40
0.1524
50
270
51
450
0
ARC
8
BLACK
10
59.055
20
-59.69
40
0.1524
50
90
51
270
0
LINE
8
BLACK
10
59.2074
20
-59.69
11
59.2074
21
-34.29
0
LINE
8
BLACK
10
58.9026
20
-59.69
11
58.9026
21
-34.29
0
ARC
8
BLACK
10
59.055
20
-34.29
40
0.1524
50
360
51
540
0
ARC
8
BLACK
10
59.055
20
-59.69
40
0.1524
50
180
51
360
0
LINE
8
BLACK
10
59.055
20
-36.9824
11
61.595
21
-36.9824
0
LINE
8
BLACK
10
59.055
20
-36.6776
11
61.595
21
-36.6776
0
ARC
8
BLACK
10
61.595
20
-36.83
40
0.1524
50
270
51
450
0
ARC
8
BLACK
10
59.055
20
-36.83
40
0.1524
50
90
51
270
0
LINE
8
BLACK
10
82.55
20
-50.3174
11
85.09
21
-50.3174
0
LINE
8
BLACK
10
82.55
20
-50.0126
11
85.09
21
-50.0126
0
ARC
8
BLACK
10
85.09
20
-50.165
40
0.1524
50
270
51
450
0
ARC
8
BLACK
10
82.55
20
-50.165
40
0.1524
50
90
51
270
0
LINE
8
BLACK
10
85.2424
20
-75.565
11
85.2424
21
-50.165
0
LINE
8
BLACK
10
84.9376
20
-75.565
11
84.9376
21
-50.165
0
ARC
8
BLACK
10
85.09
20
-50.165
40
0.1524
50
360
51
540
0
ARC
8
BLACK
10
85.09
20
-75.565
40
0.1524
50
180
51
360
0
LINE
8
BLACK
10
82.55
20
-75.7174
11
85.09
21
-75.7174
0
LINE
8
BLACK
10
82.55
20
-75.4126
11
85.09
21
-75.4126
0
ARC
8
BLACK
10
85.09
20
-75.565
40
0.1524
50
270
51
450
0
ARC
8
BLACK
10
82.55
20
-75.565
40
0.1524
50
90
51
270
0
LINE
8
BLACK
10
82.7024
20
-75.565
11
82.7024
21
-50.165
0
LINE
8
BLACK
10
82.3976
20
-75.565
11
82.3976
21
-50.165
0
ARC
8
BLACK
10
82.55
20
-50.165
40
0.1524
50
360
51
540
0
ARC
8
BLACK
10
82.55
20
-75.565
40
0.1524
50
180
51
360
0
LINE
8
BLACK
10
82.55
20
-52.8574
11
85.09
21
-52.8574
0
LINE
8
BLACK
10
82.55
20
-52.5526
11
85.09
21
-52.5526
0
ARC
8
BLACK
10
85.09
20
-52.705
40
0.1524
50
270
51
450
0
ARC
8
BLACK
10
82.55
20
-52.705
40
0.1524
50
90
51
270
0
LINE
8
BLACK
10
85.217
20
-46.99
11
85.217
21
-36.83
0
LINE
8
BLACK
10
84.963
20
-46.99
11
84.963
21
-36.83
0
ARC
8
BLACK
10
85.09
20
-36.83
40
0.127
50
360
51
540
0
ARC
8
BLACK
10
85.09
20
-46.99
40
0.127
50
180
51
360
0
LINE
8
BLACK
10
82.677
20
-46.99
11
82.677
21
-36.83
0
LINE
8
BLACK
10
82.423
20
-46.99
11
82.423
21
-36.83
0
ARC
8
BLACK
10
82.55
20
-36.83
40
0.127
50
360
51
540
0
ARC
8
BLACK
10
82.55
20
-46.99
40
0.127
50
180
51
360
0
LINE
8
BLACK
10
82.55
20
-47.117
11
85.09
21
-47.117
0
LINE
8
BLACK
10
82.55
20
-46.863
11
85.09
21
-46.863
0
ARC
8
BLACK
10
85.09
20
-46.99
40
0.127
50
270
51
450
0
ARC
8
BLACK
10
82.55
20
-46.99
40
0.127
50
90
51
270
0
LINE
8
BLACK
10
82.55
20
-36.957
11
85.09
21
-36.957
0
LINE
8
BLACK
10
82.55
20
-36.703
11
85.09
21
-36.703
0
ARC
8
BLACK
10
85.09
20
-36.83
40
0.127
50
270
51
450
0
ARC
8
BLACK
10
82.55
20
-36.83
40
0.127
50
90
51
270
0
LINE
8
BLACK
10
62.484
20
-90.4875
11
73.914
21
-90.4875
0
LINE
8
BLACK
10
62.484
20
-89.8525
11
73.914
21
-89.8525
0
ARC
8
BLACK
10
73.914
20
-90.17
40
0.3175
50
270
51
450
0
ARC
8
BLACK
10
62.484
20
-90.17
40
0.3175
50
90
51
270
0
LINE
8
BLACK
10
74.2315
20
-90.805
11
74.2315
21
-90.17
0
LINE
8
BLACK
10
73.5965
20
-90.805
11
73.5965
21
-90.17
0
ARC
8
BLACK
10
73.914
20
-90.17
40
0.3175
50
360
51
540
0
ARC
8
BLACK
10
73.914
20
-90.805
40
0.3175
50
180
51
360
0
LINE
8
BLACK
10
62.484
20
-91.1225
11
73.914
21
-91.1225
0
LINE
8
BLACK
10
62.484
20
-90.4875
11
73.914
21
-90.4875
0
ARC
8
BLACK
10
73.914
20
-90.805
40
0.3175
50
270
51
450
0
ARC
8
BLACK
10
62.484
20
-90.805
40
0.3175
50
90
51
270
0
LINE
8
BLACK
10
62.8015
20
-91.44
11
62.8015
21
-90.805
0
LINE
8
BLACK
10
62.1665
20
-91.44
11
62.1665
21
-90.805
0
ARC
8
BLACK
10
62.484
20
-90.805
40
0.3175
50
360
51
540
0
ARC
8
BLACK
10
62.484
20
-91.44
40
0.3175
50
180
51
360
0
LINE
8
BLACK
10
62.484
20
-91.7575
11
74.041
21
-91.7575
0
LINE
8
BLACK
10
62.484
20
-91.1225
11
74.041
21
-91.1225
0
ARC
8
BLACK
10
74.041
20
-91.44
40
0.3175
50
270
51
450
0
ARC
8
BLACK
10
62.484
20
-91.44
40
0.3175
50
90
51
270
0
LINE
8
BLACK
10
74.3585
20
-92.075
11
74.3585
21
-91.44
0
LINE
8
BLACK
10
73.7235
20
-92.075
11
73.7235
21
-91.44
0
ARC
8
BLACK
10
74.041
20
-91.44
40
0.3175
50
360
51
540
0
ARC
8
BLACK
10
74.041
20
-92.075
40
0.3175
50
180
51
360
0
LINE
8
BLACK
10
62.484
20
-92.3925
11
74.041
21
-92.3925
0
LINE
8
BLACK
10
62.484
20
-91.7575
11
74.041
21
-91.7575
0
ARC
8
BLACK
10
74.041
20
-92.075
40
0.3175
50
270
51
450
0
ARC
8
BLACK
10
62.484
20
-92.075
40
0.3175
50
90
51
270
0
LINE
8
BLACK
10
62.8015
20
-92.583
11
62.8015
21
-92.075
0
LINE
8
BLACK
10
62.1665
20
-92.583
11
62.1665
21
-92.075
0
ARC
8
BLACK
10
62.484
20
-92.075
40
0.3175
50
360
51
540
0
ARC
8
BLACK
10
62.484
20
-92.583
40
0.3175
50
180
51
360
0
LINE
8
BLACK
10
62.484
20
-92.9005
11
73.914
21
-92.9005
0
LINE
8
BLACK
10
62.484
20
-92.2655
11
73.914
21
-92.2655
0
ARC
8
BLACK
10
73.914
20
-92.583
40
0.3175
50
270
51
450
0
ARC
8
BLACK
10
62.484
20
-92.583
40
0.3175
50
90
51
270
0
LINE
8
BLACK
10
62.357
20
-89.8525
11
74.168
21
-89.8525
0
LINE
8
BLACK
10
62.357
20
-89.4715
11
74.168
21
-89.4715
0
ARC
8
BLACK
10
74.168
20
-89.662
40
0.1905
50
270
51
450
0
ARC
8
BLACK
10
62.357
20
-89.662
40
0.1905
50
90
51
270
0
LINE
8
BLACK
10
62.5475
20
-92.964
11
62.5475
21
-89.662
0
LINE
8
BLACK
10
62.1665
20
-92.964
11
62.1665
21
-89.662
0
ARC
8
BLACK
10
62.357
20
-89.662
40
0.1905
50
360
51
540
0
ARC
8
BLACK
10
62.357
20
-92.964
40
0.1905
50
180
51
360
0
LINE
8
BLACK
10
62.357
20
-93.1545
11
74.168
21
-93.1545
0
LINE
8
BLACK
10
62.357
20
-92.7735
11
74.168
21
-92.7735
0
ARC
8
BLACK
10
74.168
20
-92.964
40
0.1905
50
270
51
450
0
ARC
8
BLACK
10
62.357
20
-92.964
40
0.1905
50
90
51
270
0
LINE
8
BLACK
10
74.3585
20
-92.964
11
74.3585
21
-89.662
0
LINE
8
BLACK
10
73.9775
20
-92.964
11
73.9775
21
-89.662
0
ARC
8
BLACK
10
74.168
20
-89.662
40
0.1905
50
360
51
540
0
ARC
8
BLACK
10
74.168
20
-92.964
40
0.1905
50
180
51
360
0
LINE
8
BLACK
10
27.7733
20
-60.0948
11
27.44
21
-59.6186
0
LINE
8
BLACK
10
27.2019
20
-60.0948
11
27.2019
21
-59.0948
0
LINE
8
BLACK
10
27.2019
20
-59.0948
11
27.5829
21
-59.0948
0
LINE
8
BLACK
10
27.5829
20
-59.0948
11
27.6781
21
-59.1424
0
LINE
8
BLACK
10
27.6781
20
-59.1424
11
27.7257
21
-59.19
0
LINE
8
BLACK
10
27.7257
20
-59.19
11
27.7733
21
-59.2852
0
LINE
8
BLACK
10
27.7733
20
-59.2852
11
27.7733
21
-59.4281
0
LINE
8
BLACK
10
27.7733
20
-59.4281
11
27.7257
21
-59.5233
0
LINE
8
BLACK
10
27.7257
20
-59.5233
11
27.6781
21
-59.571
0
LINE
8
BLACK
10
27.6781
20
-59.571
11
27.5829
21
-59.6186
0
LINE
8
BLACK
10
27.5829
20
-59.6186
11
27.2019
21
-59.6186
0
LINE
8
BLACK
10
28.6305
20
-59.0948
11
28.44
21
-59.0948
0
LINE
8
BLACK
10
28.44
20
-59.0948
11
28.3448
21
-59.1424
0
LINE
8
BLACK
10
28.3448
20
-59.1424
11
28.2971
21
-59.19
0
LINE
8
BLACK
10
28.2971
20
-59.19
11
28.2019
21
-59.3329
0
LINE
8
BLACK
10
28.2019
20
-59.3329
11
28.1543
21
-59.5233
0
LINE
8
BLACK
10
28.1543
20
-59.5233
11
28.1543
21
-59.9043
0
LINE
8
BLACK
10
28.1543
20
-59.9043
11
28.2019
21
-59.9995
0
LINE
8
BLACK
10
28.2019
20
-59.9995
11
28.2495
21
-60.0471
0
LINE
8
BLACK
10
28.2495
20
-60.0471
11
28.3448
21
-60.0948
0
LINE
8
BLACK
10
28.3448
20
-60.0948
11
28.5352
21
-60.0948
0
LINE
8
BLACK
10
28.5352
20
-60.0948
11
28.6305
21
-60.0471
0
LINE
8
BLACK
10
28.6305
20
-60.0471
11
28.6781
21
-59.9995
0
LINE
8
BLACK
10
28.6781
20
-59.9995
11
28.7257
21
-59.9043
0
LINE
8
BLACK
10
28.7257
20
-59.9043
11
28.7257
21
-59.6662
0
LINE
8
BLACK
10
28.7257
20
-59.6662
11
28.6781
21
-59.571
0
LINE
8
BLACK
10
28.6781
20
-59.571
11
28.6305
21
-59.5233
0
LINE
8
BLACK
10
28.6305
20
-59.5233
11
28.5352
21
-59.4757
0
LINE
8
BLACK
10
28.5352
20
-59.4757
11
28.3448
21
-59.4757
0
LINE
8
BLACK
10
28.3448
20
-59.4757
11
28.2495
21
-59.5233
0
LINE
8
BLACK
10
28.2495
20
-59.5233
11
28.2019
21
-59.571
0
LINE
8
BLACK
10
28.2019
20
-59.571
11
28.1543
21
-59.6662
0
LINE
8
BLACK
10
27.7733
20
-82.9548
11
27.44
21
-82.4786
0
LINE
8
BLACK
10
27.2019
20
-82.9548
11
27.2019
21
-81.9548
0
LINE
8
BLACK
10
27.2019
20
-81.9548
11
27.5829
21
-81.9548
0
LINE
8
BLACK
10
27.5829
20
-81.9548
11
27.6781
21
-82.0024
0
LINE
8
BLACK
10
27.6781
20
-82.0024
11
27.7257
21
-82.05
0
LINE
8
BLACK
10
27.7257
20
-82.05
11
27.7733
21
-82.1452
0
LINE
8
BLACK
10
27.7733
20
-82.1452
11
27.7733
21
-82.2881
0
LINE
8
BLACK
10
27.7733
20
-82.2881
11
27.7257
21
-82.3833
0
LINE
8
BLACK
10
27.7257
20
-82.3833
11
27.6781
21
-82.431
0
LINE
8
BLACK
10
27.6781
20
-82.431
11
27.5829
21
-82.4786
0
LINE
8
BLACK
10
27.5829
20
-82.4786
11
27.2019
21
-82.4786
0
LINE
8
BLACK
10
28.3448
20
-82.3833
11
28.2495
21
-82.3357
0
LINE
8
BLACK
10
28.2495
20
-82.3357
11
28.2019
21
-82.2881
0
LINE
8
BLACK
10
28.2019
20
-82.2881
11
28.1543
21
-82.1929
0
LINE
8
BLACK
10
28.1543
20
-82.1929
11
28.1543
21
-82.1452
0
LINE
8
BLACK
10
28.1543
20
-82.1452
11
28.2019
21
-82.05
0
LINE
8
BLACK
10
28.2019
20
-82.05
11
28.2495
21
-82.0024
0
LINE
8
BLACK
10
28.2495
20
-82.0024
11
28.3448
21
-81.9548
0
LINE
8
BLACK
10
28.3448
20
-81.9548
11
28.5352
21
-81.9548
0
LINE
8
BLACK
10
28.5352
20
-81.9548
11
28.6305
21
-82.0024
0
LINE
8
BLACK
10
28.6305
20
-82.0024
11
28.6781
21
-82.05
0
LINE
8
BLACK
10
28.6781
20
-82.05
11
28.7257
21
-82.1452
0
LINE
8
BLACK
10
28.7257
20
-82.1452
11
28.7257
21
-82.1929
0
LINE
8
BLACK
10
28.7257
20
-82.1929
11
28.6781
21
-82.2881
0
LINE
8
BLACK
10
28.6781
20
-82.2881
11
28.6305
21
-82.3357
0
LINE
8
BLACK
10
28.6305
20
-82.3357
11
28.5352
21
-82.3833
0
LINE
8
BLACK
10
28.5352
20
-82.3833
11
28.3448
21
-82.3833
0
LINE
8
BLACK
10
28.3448
20
-82.3833
11
28.2495
21
-82.431
0
LINE
8
BLACK
10
28.2495
20
-82.431
11
28.2019
21
-82.4786
0
LINE
8
BLACK
10
28.2019
20
-82.4786
11
28.1543
21
-82.5738
0
LINE
8
BLACK
10
28.1543
20
-82.5738
11
28.1543
21
-82.7643
0
LINE
8
BLACK
10
28.1543
20
-82.7643
11
28.2019
21
-82.8595
0
LINE
8
BLACK
10
28.2019
20
-82.8595
11
28.2495
21
-82.9071
0
LINE
8
BLACK
10
28.2495
20
-82.9071
11
28.3448
21
-82.9548
0
LINE
8
BLACK
10
28.3448
20
-82.9548
11
28.5352
21
-82.9548
0
LINE
8
BLACK
10
28.5352
20
-82.9548
11
28.6305
21
-82.9071
0
LINE
8
BLACK
10
28.6305
20
-82.9071
11
28.6781
21
-82.8595
0
LINE
8
BLACK
10
28.6781
20
-82.8595
11
28.7257
21
-82.7643
0
LINE
8
BLACK
10
28.7257
20
-82.7643
11
28.7257
21
-82.5738
0
LINE
8
BLACK
10
28.7257
20
-82.5738
11
28.6781
21
-82.4786
0
LINE
8
BLACK
10
28.6781
20
-82.4786
11
28.6305
21
-82.431
0
LINE
8
BLACK
10
28.6305
20
-82.431
11
28.5352
21
-82.3833
0
LINE
8
BLACK
10
27.7733
20
-71.5248
11
27.44
21
-71.0486
0
LINE
8
BLACK
10
27.2019
20
-71.5248
11
27.2019
21
-70.5248
0
LINE
8
BLACK
10
27.2019
20
-70.5248
11
27.5829
21
-70.5248
0
LINE
8
BLACK
10
27.5829
20
-70.5248
11
27.6781
21
-70.5724
0
LINE
8
BLACK
10
27.6781
20
-70.5724
11
27.7257
21
-70.62
0
LINE
8
BLACK
10
27.7257
20
-70.62
11
27.7733
21
-70.7152
0
LINE
8
BLACK
10
27.7733
20
-70.7152
11
27.7733
21
-70.8581
0
LINE
8
BLACK
10
27.7733
20
-70.8581
11
27.7257
21
-70.9533
0
LINE
8
BLACK
10
27.7257
20
-70.9533
11
27.6781
21
-71.001
0
LINE
8
BLACK
10
27.6781
20
-71.001
11
27.5829
21
-71.0486
0
LINE
8
BLACK
10
27.5829
20
-71.0486
11
27.2019
21
-71.0486
0
LINE
8
BLACK
10
28.1067
20
-70.5248
11
28.7733
21
-70.5248
0
LINE
8
BLACK
10
28.7733
20
-70.5248
11
28.3448
21
-71.5248
0
LINE
8
BLACK
10
27.7733
20
-48.6648
11
27.44
21
-48.1886
0
LINE
8
BLACK
10
27.2019
20
-48.6648
11
27.2019
21
-47.6648
0
LINE
8
BLACK
10
27.2019
20
-47.6648
11
27.5829
21
-47.6648
0
LINE
8
BLACK
10
27.5829
20
-47.6648
11
27.6781
21
-47.7124
0
LINE
8
BLACK
10
27.6781
20
-47.7124
11
27.7257
21
-47.76
0
LINE
8
BLACK
10
27.7257
20
-47.76
11
27.7733
21
-47.8552
0
LINE
8
BLACK
10
27.7733
20
-47.8552
11
27.7733
21
-47.9981
0
LINE
8
BLACK
10
27.7733
20
-47.9981
11
27.7257
21
-48.0933
0
LINE
8
BLACK
10
27.7257
20
-48.0933
11
27.6781
21
-48.141
0
LINE
8
BLACK
10
27.6781
20
-48.141
11
27.5829
21
-48.1886
0
LINE
8
BLACK
10
27.5829
20
-48.1886
11
27.2019
21
-48.1886
0
LINE
8
BLACK
10
28.6781
20
-47.6648
11
28.2019
21
-47.6648
0
LINE
8
BLACK
10
28.2019
20
-47.6648
11
28.1543
21
-48.141
0
LINE
8
BLACK
10
28.1543
20
-48.141
11
28.2019
21
-48.0933
0
LINE
8
BLACK
10
28.2019
20
-48.0933
11
28.2971
21
-48.0457
0
LINE
8
BLACK
10
28.2971
20
-48.0457
11
28.5352
21
-48.0457
0
LINE
8
BLACK
10
28.5352
20
-48.0457
11
28.6305
21
-48.0933
0
LINE
8
BLACK
10
28.6305
20
-48.0933
11
28.6781
21
-48.141
0
LINE
8
BLACK
10
28.6781
20
-48.141
11
28.7257
21
-48.2362
0
LINE
8
BLACK
10
28.7257
20
-48.2362
11
28.7257
21
-48.4743
0
LINE
8
BLACK
10
28.7257
20
-48.4743
11
28.6781
21
-48.5695
0
LINE
8
BLACK
10
28.6781
20
-48.5695
11
28.6305
21
-48.6171
0
LINE
8
BLACK
10
28.6305
20
-48.6171
11
28.5352
21
-48.6648
0
LINE
8
BLACK
10
28.5352
20
-48.6648
11
28.2971
21
-48.6648
0
LINE
8
BLACK
10
28.2971
20
-48.6648
11
28.2019
21
-48.6171
0
LINE
8
BLACK
10
28.2019
20
-48.6171
11
28.1543
21
-48.5695
0
LINE
8
BLACK
10
27.1383
20
-37.2348
11
26.805
21
-36.7586
0
LINE
8
BLACK
10
26.5669
20
-37.2348
11
26.5669
21
-36.2348
0
LINE
8
BLACK
10
26.5669
20
-36.2348
11
26.9479
21
-36.2348
0
LINE
8
BLACK
10
26.9479
20
-36.2348
11
27.0431
21
-36.2824
0
LINE
8
BLACK
10
27.0431
20
-36.2824
11
27.0907
21
-36.33
0
LINE
8
BLACK
10
27.0907
20
-36.33
11
27.1383
21
-36.4252
0
LINE
8
BLACK
10
27.1383
20
-36.4252
11
27.1383
21
-36.5681
0
LINE
8
BLACK
10
27.1383
20
-36.5681
11
27.0907
21
-36.6633
0
LINE
8
BLACK
10
27.0907
20
-36.6633
11
27.0431
21
-36.711
0
LINE
8
BLACK
10
27.0431
20
-36.711
11
26.9479
21
-36.7586
0
LINE
8
BLACK
10
26.9479
20
-36.7586
11
26.5669
21
-36.7586
0
LINE
8
BLACK
10
27.9955
20
-36.5681
11
27.9955
21
-37.2348
0
LINE
8
BLACK
10
27.7574
20
-36.1871
11
27.5193
21
-36.9014
0
LINE
8
BLACK
10
27.5193
20
-36.9014
11
28.1383
21
-36.9014
0
LINE
8
BLACK
10
27.1383
20
-25.1698
11
26.805
21
-24.6936
0
LINE
8
BLACK
10
26.5669
20
-25.1698
11
26.5669
21
-24.1698
0
LINE
8
BLACK
10
26.5669
20
-24.1698
11
26.9479
21
-24.1698
0
LINE
8
BLACK
10
26.9479
20
-24.1698
11
27.0431
21
-24.2174
0
LINE
8
BLACK
10
27.0431
20
-24.2174
11
27.0907
21
-24.265
0
LINE
8
BLACK
10
27.0907
20
-24.265
11
27.1383
21
-24.3602
0
LINE
8
BLACK
10
27.1383
20
-24.3602
11
27.1383
21
-24.5031
0
LINE
8
BLACK
10
27.1383
20
-24.5031
11
27.0907
21
-24.5983
0
LINE
8
BLACK
10
27.0907
20
-24.5983
11
27.0431
21
-24.646
0
LINE
8
BLACK
10
27.0431
20
-24.646
11
26.9479
21
-24.6936
0
LINE
8
BLACK
10
26.9479
20
-24.6936
11
26.5669
21
-24.6936
0
LINE
8
BLACK
10
27.4717
20
-24.1698
11
28.0907
21
-24.1698
0
LINE
8
BLACK
10
28.0907
20
-24.1698
11
27.7574
21
-24.5507
0
LINE
8
BLACK
10
27.7574
20
-24.5507
11
27.9002
21
-24.5507
0
LINE
8
BLACK
10
27.9002
20
-24.5507
11
27.9955
21
-24.5983
0
LINE
8
BLACK
10
27.9955
20
-24.5983
11
28.0431
21
-24.646
0
LINE
8
BLACK
10
28.0431
20
-24.646
11
28.0907
21
-24.7412
0
LINE
8
BLACK
10
28.0907
20
-24.7412
11
28.0907
21
-24.9793
0
LINE
8
BLACK
10
28.0907
20
-24.9793
11
28.0431
21
-25.0745
0
LINE
8
BLACK
10
28.0431
20
-25.0745
11
27.9955
21
-25.1221
0
LINE
8
BLACK
10
27.9955
20
-25.1221
11
27.9002
21
-25.1698
0
LINE
8
BLACK
10
27.9002
20
-25.1698
11
27.6145
21
-25.1698
0
LINE
8
BLACK
10
27.6145
20
-25.1698
11
27.5193
21
-25.1221
0
LINE
8
BLACK
10
27.5193
20
-25.1221
11
27.4717
21
-25.0745
0
LINE
8
BLACK
10
27.1383
20
-14.3748
11
26.805
21
-13.8986
0
LINE
8
BLACK
10
26.5669
20
-14.3748
11
26.5669
21
-13.3748
0
LINE
8
BLACK
10
26.5669
20
-13.3748
11
26.9479
21
-13.3748
0
LINE
8
BLACK
10
26.9479
20
-13.3748
11
27.0431
21
-13.4224
0
LINE
8
BLACK
10
27.0431
20
-13.4224
11
27.0907
21
-13.47
0
LINE
8
BLACK
10
27.0907
20
-13.47
11
27.1383
21
-13.5652
0
LINE
8
BLACK
10
27.1383
20
-13.5652
11
27.1383
21
-13.7081
0
LINE
8
BLACK
10
27.1383
20
-13.7081
11
27.0907
21
-13.8033
0
LINE
8
BLACK
10
27.0907
20
-13.8033
11
27.0431
21
-13.851
0
LINE
8
BLACK
10
27.0431
20
-13.851
11
26.9479
21
-13.8986
0
LINE
8
BLACK
10
26.9479
20
-13.8986
11
26.5669
21
-13.8986
0
LINE
8
BLACK
10
27.5193
20
-13.47
11
27.5669
21
-13.4224
0
LINE
8
BLACK
10
27.5669
20
-13.4224
11
27.6621
21
-13.3748
0
LINE
8
BLACK
10
27.6621
20
-13.3748
11
27.9002
21
-13.3748
0
LINE
8
BLACK
10
27.9002
20
-13.3748
11
27.9955
21
-13.4224
0
LINE
8
BLACK
10
27.9955
20
-13.4224
11
28.0431
21
-13.47
0
LINE
8
BLACK
10
28.0431
20
-13.47
11
28.0907
21
-13.5652
0
LINE
8
BLACK
10
28.0907
20
-13.5652
11
28.0907
21
-13.6605
0
LINE
8
BLACK
10
28.0907
20
-13.6605
11
28.0431
21
-13.8033
0
LINE
8
BLACK
10
28.0431
20
-13.8033
11
27.4717
21
-14.3748
0
LINE
8
BLACK
10
27.4717
20
-14.3748
11
28.0907
21
-14.3748
0
LINE
8
BLACK
10
27.1383
20
-2.94476
11
26.805
21
-2.46857
0
LINE
8
BLACK
10
26.5669
20
-2.94476
11
26.5669
21
-1.94476
0
LINE
8
BLACK
10
26.5669
20
-1.94476
11
26.9479
21
-1.94476
0
LINE
8
BLACK
10
26.9479
20
-1.94476
11
27.0431
21
-1.99238
0
LINE
8
BLACK
10
27.0431
20
-1.99238
11
27.0907
21
-2.04
0
LINE
8
BLACK
10
27.0907
20
-2.04
11
27.1383
21
-2.13524
0
LINE
8
BLACK
10
27.1383
20
-2.13524
11
27.1383
21
-2.2781
0
LINE
8
BLACK
10
27.1383
20
-2.2781
11
27.0907
21
-2.37333
0
LINE
8
BLACK
10
27.0907
20
-2.37333
11
27.0431
21
-2.42095
0
LINE
8
BLACK
10
27.0431
20
-2.42095
11
26.9479
21
-2.46857
0
LINE
8
BLACK
10
26.9479
20
-2.46857
11
26.5669
21
-2.46857
0
LINE
8
BLACK
10
28.0907
20
-2.94476
11
27.5193
21
-2.94476
0
LINE
8
BLACK
10
27.805
20
-2.94476
11
27.805
21
-1.94476
0
LINE
8
BLACK
10
27.805
20
-1.94476
11
27.7098
21
-2.08762
0
LINE
8
BLACK
10
27.7098
20
-2.08762
11
27.6145
21
-2.18286
0
LINE
8
BLACK
10
27.6145
20
-2.18286
11
27.5193
21
-2.23048
0
LINE
8
BLACK
10
36.7031
20
-1.94476
11
36.7031
21
-2.75429
0
LINE
8
BLACK
10
36.7031
20
-2.75429
11
36.7507
21
-2.84952
0
LINE
8
BLACK
10
36.7507
20
-2.84952
11
36.7983
21
-2.89714
0
LINE
8
BLACK
10
36.7983
20
-2.89714
11
36.8936
21
-2.94476
0
LINE
8
BLACK
10
36.8936
20
-2.94476
11
37.084
21
-2.94476
0
LINE
8
BLACK
10
37.084
20
-2.94476
11
37.1793
21
-2.89714
0
LINE
8
BLACK
10
37.1793
20
-2.89714
11
37.2269
21
-2.84952
0
LINE
8
BLACK
10
37.2269
20
-2.84952
11
37.2745
21
-2.75429
0
LINE
8
BLACK
10
37.2745
20
-2.75429
11
37.2745
21
-1.94476
0
LINE
8
BLACK
10
38.2745
20
-2.94476
11
37.7031
21
-2.94476
0
LINE
8
BLACK
10
37.9888
20
-2.94476
11
37.9888
21
-1.94476
0
LINE
8
BLACK
10
37.9888
20
-1.94476
11
37.8936
21
-2.08762
0
LINE
8
BLACK
10
37.8936
20
-2.08762
11
37.7983
21
-2.18286
0
LINE
8
BLACK
10
37.7983
20
-2.18286
11
37.7031
21
-2.23048
0
LINE
8
BLACK
10
36.0681
20
-81.9548
11
36.0681
21
-82.7643
0
LINE
8
BLACK
10
36.0681
20
-82.7643
11
36.1157
21
-82.8595
0
LINE
8
BLACK
10
36.1157
20
-82.8595
11
36.1633
21
-82.9071
0
LINE
8
BLACK
10
36.1633
20
-82.9071
11
36.2586
21
-82.9548
0
LINE
8
BLACK
10
36.2586
20
-82.9548
11
36.449
21
-82.9548
0
LINE
8
BLACK
10
36.449
20
-82.9548
11
36.5443
21
-82.9071
0
LINE
8
BLACK
10
36.5443
20
-82.9071
11
36.5919
21
-82.8595
0
LINE
8
BLACK
10
36.5919
20
-82.8595
11
36.6395
21
-82.7643
0
LINE
8
BLACK
10
36.6395
20
-82.7643
11
36.6395
21
-81.9548
0
LINE
8
BLACK
10
37.2586
20
-82.3833
11
37.1633
21
-82.3357
0
LINE
8
BLACK
10
37.1633
20
-82.3357
11
37.1157
21
-82.2881
0
LINE
8
BLACK
10
37.1157
20
-82.2881
11
37.0681
21
-82.1929
0
LINE
8
BLACK
10
37.0681
20
-82.1929
11
37.0681
21
-82.1452
0
LINE
8
BLACK
10
37.0681
20
-82.1452
11
37.1157
21
-82.05
0
LINE
8
BLACK
10
37.1157
20
-82.05
11
37.1633
21
-82.0024
0
LINE
8
BLACK
10
37.1633
20
-82.0024
11
37.2586
21
-81.9548
0
LINE
8
BLACK
10
37.2586
20
-81.9548
11
37.449
21
-81.9548
0
LINE
8
BLACK
10
37.449
20
-81.9548
11
37.5443
21
-82.0024
0
LINE
8
BLACK
10
37.5443
20
-82.0024
11
37.5919
21
-82.05
0
LINE
8
BLACK
10
37.5919
20
-82.05
11
37.6395
21
-82.1452
0
LINE
8
BLACK
10
37.6395
20
-82.1452
11
37.6395
21
-82.1929
0
LINE
8
BLACK
10
37.6395
20
-82.1929
11
37.5919
21
-82.2881
0
LINE
8
BLACK
10
37.5919
20
-82.2881
11
37.5443
21
-82.3357
0
LINE
8
BLACK
10
37.5443
20
-82.3357
11
37.449
21
-82.3833
0
LINE
8
BLACK
10
37.449
20
-82.3833
11
37.2586
21
-82.3833
0
LINE
8
BLACK
10
37.2586
20
-82.3833
11
37.1633
21
-82.431
0
LINE
8
BLACK
10
37.1633
20
-82.431
11
37.1157
21
-82.4786
0
LINE
8
BLACK
10
37.1157
20
-82.4786
11
37.0681
21
-82.5738
0
LINE
8
BLACK
10
37.0681
20
-82.5738
11
37.0681
21
-82.7643
0
LINE
8
BLACK
10
37.0681
20
-82.7643
11
37.1157
21
-82.8595
0
LINE
8
BLACK
10
37.1157
20
-82.8595
11
37.1633
21
-82.9071
0
LINE
8
BLACK
10
37.1633
20
-82.9071
11
37.2586
21
-82.9548
0
LINE
8
BLACK
10
37.2586
20
-82.9548
11
37.449
21
-82.9548
0
LINE
8
BLACK
10
37.449
20
-82.9548
11
37.5443
21
-82.9071
0
LINE
8
BLACK
10
37.5443
20
-82.9071
11
37.5919
21
-82.8595
0
LINE
8
BLACK
10
37.5919
20
-82.8595
11
37.6395
21
-82.7643
0
LINE
8
BLACK
10
37.6395
20
-82.7643
11
37.6395
21
-82.5738
0
LINE
8
BLACK
10
37.6395
20
-82.5738
11
37.5919
21
-82.4786
0
LINE
8
BLACK
10
37.5919
20
-82.4786
11
37.5443
21
-82.431
0
LINE
8
BLACK
10
37.5443
20
-82.431
11
37.449
21
-82.3833
0
LINE
8
BLACK
10
36.7031
20
-70.5248
11
36.7031
21
-71.3343
0
LINE
8
BLACK
10
36.7031
20
-71.3343
11
36.7507
21
-71.4295
0
LINE
8
BLACK
10
36.7507
20
-71.4295
11
36.7983
21
-71.4771
0
LINE
8
BLACK
10
36.7983
20
-71.4771
11
36.8936
21
-71.5248
0
LINE
8
BLACK
10
36.8936
20
-71.5248
11
37.084
21
-71.5248
0
LINE
8
BLACK
10
37.084
20
-71.5248
11
37.1793
21
-71.4771
0
LINE
8
BLACK
10
37.1793
20
-71.4771
11
37.2269
21
-71.4295
0
LINE
8
BLACK
10
37.2269
20
-71.4295
11
37.2745
21
-71.3343
0
LINE
8
BLACK
10
37.2745
20
-71.3343
11
37.2745
21
-70.5248
0
LINE
8
BLACK
10
37.6555
20
-70.5248
11
38.3221
21
-70.5248
0
LINE
8
BLACK
10
38.3221
20
-70.5248
11
37.8936
21
-71.5248
0
LINE
8
BLACK
10
36.7031
20
-59.0948
11
36.7031
21
-59.9043
0
LINE
8
BLACK
10
36.7031
20
-59.9043
11
36.7507
21
-59.9995
0
LINE
8
BLACK
10
36.7507
20
-59.9995
11
36.7983
21
-60.0471
0
LINE
8
BLACK
10
36.7983
20
-60.0471
11
36.8936
21
-60.0948
0
LINE
8
BLACK
10
36.8936
20
-60.0948
11
37.084
21
-60.0948
0
LINE
8
BLACK
10
37.084
20
-60.0948
11
37.1793
21
-60.0471
0
LINE
8
BLACK
10
37.1793
20
-60.0471
11
37.2269
21
-59.9995
0
LINE
8
BLACK
10
37.2269
20
-59.9995
11
37.2745
21
-59.9043
0
LINE
8
BLACK
10
37.2745
20
-59.9043
11
37.2745
21
-59.0948
0
LINE
8
BLACK
10
38.1793
20
-59.0948
11
37.9888
21
-59.0948
0
LINE
8
BLACK
10
37.9888
20
-59.0948
11
37.8936
21
-59.1424
0
LINE
8
BLACK
10
37.8936
20
-59.1424
11
37.846
21
-59.19
0
LINE
8
BLACK
10
37.846
20
-59.19
11
37.7507
21
-59.3329
0
LINE
8
BLACK
10
37.7507
20
-59.3329
11
37.7031
21
-59.5233
0
LINE
8
BLACK
10
37.7031
20
-59.5233
11
37.7031
21
-59.9043
0
LINE
8
BLACK
10
37.7031
20
-59.9043
11
37.7507
21
-59.9995
0
LINE
8
BLACK
10
37.7507
20
-59.9995
11
37.7983
21
-60.0471
0
LINE
8
BLACK
10
37.7983
20
-60.0471
11
37.8936
21
-60.0948
0
LINE
8
BLACK
10
37.8936
20
-60.0948
11
38.084
21
-60.0948
0
LINE
8
BLACK
10
38.084
20
-60.0948
11
38.1793
21
-60.0471
0
LINE
8
BLACK
10
38.1793
20
-60.0471
11
38.2269
21
-59.9995
0
LINE
8
BLACK
10
38.2269
20
-59.9995
11
38.2745
21
-59.9043
0
LINE
8
BLACK
10
38.2745
20
-59.9043
11
38.2745
21
-59.6662
0
LINE
8
BLACK
10
38.2745
20
-59.6662
11
38.2269
21
-59.571
0
LINE
8
BLACK
10
38.2269
20
-59.571
11
38.1793
21
-59.5233
0
LINE
8
BLACK
10
38.1793
20
-59.5233
11
38.084
21
-59.4757
0
LINE
8
BLACK
10
38.084
20
-59.4757
11
37.8936
21
-59.4757
0
LINE
8
BLACK
10
37.8936
20
-59.4757
11
37.7983
21
-59.5233
0
LINE
8
BLACK
10
37.7983
20
-59.5233
11
37.7507
21
-59.571
0
LINE
8
BLACK
10
37.7507
20
-59.571
11
37.7031
21
-59.6662
0
LINE
8
BLACK
10
36.0681
20
-48.2998
11
36.0681
21
-49.1093
0
LINE
8
BLACK
10
36.0681
20
-49.1093
11
36.1157
21
-49.2045
0
LINE
8
BLACK
10
36.1157
20
-49.2045
11
36.1633
21
-49.2521
0
LINE
8
BLACK
10
36.1633
20
-49.2521
11
36.2586
21
-49.2998
0
LINE
8
BLACK
10
36.2586
20
-49.2998
11
36.449
21
-49.2998
0
LINE
8
BLACK
10
36.449
20
-49.2998
11
36.5443
21
-49.2521
0
LINE
8
BLACK
10
36.5443
20
-49.2521
11
36.5919
21
-49.2045
0
LINE
8
BLACK
10
36.5919
20
-49.2045
11
36.6395
21
-49.1093
0
LINE
8
BLACK
10
36.6395
20
-49.1093
11
36.6395
21
-48.2998
0
LINE
8
BLACK
10
37.5919
20
-48.2998
11
37.1157
21
-48.2998
0
LINE
8
BLACK
10
37.1157
20
-48.2998
11
37.0681
21
-48.776
0
LINE
8
BLACK
10
37.0681
20
-48.776
11
37.1157
21
-48.7283
0
LINE
8
BLACK
10
37.1157
20
-48.7283
11
37.211
21
-48.6807
0
LINE
8
BLACK
10
37.211
20
-48.6807
11
37.449
21
-48.6807
0
LINE
8
BLACK
10
37.449
20
-48.6807
11
37.5443
21
-48.7283
0
LINE
8
BLACK
10
37.5443
20
-48.7283
11
37.5919
21
-48.776
0
LINE
8
BLACK
10
37.5919
20
-48.776
11
37.6395
21
-48.8712
0
LINE
8
BLACK
10
37.6395
20
-48.8712
11
37.6395
21
-49.1093
0
LINE
8
BLACK
10
37.6395
20
-49.1093
11
37.5919
21
-49.2045
0
LINE
8
BLACK
10
37.5919
20
-49.2045
11
37.5443
21
-49.2521
0
LINE
8
BLACK
10
37.5443
20
-49.2521
11
37.449
21
-49.2998
0
LINE
8
BLACK
10
37.449
20
-49.2998
11
37.211
21
-49.2998
0
LINE
8
BLACK
10
37.211
20
-49.2998
11
37.1157
21
-49.2521
0
LINE
8
BLACK
10
37.1157
20
-49.2521
11
37.0681
21
-49.2045
0
LINE
8
BLACK
10
36.0681
20
-36.2348
11
36.0681
21
-37.0443
0
LINE
8
BLACK
10
36.0681
20
-37.0443
11
36.1157
21
-37.1395
0
LINE
8
BLACK
10
36.1157
20
-37.1395
11
36.1633
21
-37.1871
0
LINE
8
BLACK
10
36.1633
20
-37.1871
11
36.2586
21
-37.2348
0
LINE
8
BLACK
10
36.2586
20
-37.2348
11
36.449
21
-37.2348
0
LINE
8
BLACK
10
36.449
20
-37.2348
11
36.5443
21
-37.1871
0
LINE
8
BLACK
10
36.5443
20
-37.1871
11
36.5919
21
-37.1395
0
LINE
8
BLACK
10
36.5919
20
-37.1395
11
36.6395
21
-37.0443
0
LINE
8
BLACK
10
36.6395
20
-37.0443
11
36.6395
21
-36.2348
0
LINE
8
BLACK
10
37.5443
20
-36.5681
11
37.5443
21
-37.2348
0
LINE
8
BLACK
10
37.3062
20
-36.1871
11
37.0681
21
-36.9014
0
LINE
8
BLACK
10
37.0681
20
-36.9014
11
37.6871
21
-36.9014
0
LINE
8
BLACK
10
36.0681
20
-24.8048
11
36.0681
21
-25.6143
0
LINE
8
BLACK
10
36.0681
20
-25.6143
11
36.1157
21
-25.7095
0
LINE
8
BLACK
10
36.1157
20
-25.7095
11
36.1633
21
-25.7571
0
LINE
8
BLACK
10
36.1633
20
-25.7571
11
36.2586
21
-25.8048
0
LINE
8
BLACK
10
36.2586
20
-25.8048
11
36.449
21
-25.8048
0
LINE
8
BLACK
10
36.449
20
-25.8048
11
36.5443
21
-25.7571
0
LINE
8
BLACK
10
36.5443
20
-25.7571
11
36.5919
21
-25.7095
0
LINE
8
BLACK
10
36.5919
20
-25.7095
11
36.6395
21
-25.6143
0
LINE
8
BLACK
10
36.6395
20
-25.6143
11
36.6395
21
-24.8048
0
LINE
8
BLACK
10
37.0205
20
-24.8048
11
37.6395
21
-24.8048
0
LINE
8
BLACK
10
37.6395
20
-24.8048
11
37.3062
21
-25.1857
0
LINE
8
BLACK
10
37.3062
20
-25.1857
11
37.449
21
-25.1857
0
LINE
8
BLACK
10
37.449
20
-25.1857
11
37.5443
21
-25.2333
0
LINE
8
BLACK
10
37.5443
20
-25.2333
11
37.5919
21
-25.281
0
LINE
8
BLACK
10
37.5919
20
-25.281
11
37.6395
21
-25.3762
0
LINE
8
BLACK
10
37.6395
20
-25.3762
11
37.6395
21
-25.6143
0
LINE
8
BLACK
10
37.6395
20
-25.6143
11
37.5919
21
-25.7095
0
LINE
8
BLACK
10
37.5919
20
-25.7095
11
37.5443
21
-25.7571
0
LINE
8
BLACK
10
37.5443
20
-25.7571
11
37.449
21
-25.8048
0
LINE
8
BLACK
10
37.449
20
-25.8048
11
37.1633
21
-25.8048
0
LINE
8
BLACK
10
37.1633
20
-25.8048
11
37.0681
21
-25.7571
0
LINE
8
BLACK
10
37.0681
20
-25.7571
11
37.0205
21
-25.7095
0
LINE
8
BLACK
10
36.0681
20
-13.3748
11
36.0681
21
-14.1843
0
LINE
8
BLACK
10
36.0681
20
-14.1843
11
36.1157
21
-14.2795
0
LINE
8
BLACK
10
36.1157
20
-14.2795
11
36.1633
21
-14.3271
0
LINE
8
BLACK
10
36.1633
20
-14.3271
11
36.2586
21
-14.3748
0
LINE
8
BLACK
10
36.2586
20
-14.3748
11
36.449
21
-14.3748
0
LINE
8
BLACK
10
36.449
20
-14.3748
11
36.5443
21
-14.3271
0
LINE
8
BLACK
10
36.5443
20
-14.3271
11
36.5919
21
-14.2795
0
LINE
8
BLACK
10
36.5919
20
-14.2795
11
36.6395
21
-14.1843
0
LINE
8
BLACK
10
36.6395
20
-14.1843
11
36.6395
21
-13.3748
0
LINE
8
BLACK
10
37.0681
20
-13.47
11
37.1157
21
-13.4224
0
LINE
8
BLACK
10
37.1157
20
-13.4224
11
37.211
21
-13.3748
0
LINE
8
BLACK
10
37.211
20
-13.3748
11
37.449
21
-13.3748
0
LINE
8
BLACK
10
37.449
20
-13.3748
11
37.5443
21
-13.4224
0
LINE
8
BLACK
10
37.5443
20
-13.4224
11
37.5919
21
-13.47
0
LINE
8
BLACK
10
37.5919
20
-13.47
11
37.6395
21
-13.5652
0
LINE
8
BLACK
10
37.6395
20
-13.5652
11
37.6395
21
-13.6605
0
LINE
8
BLACK
10
37.6395
20
-13.6605
11
37.5919
21
-13.8033
0
LINE
8
BLACK
10
37.5919
20
-13.8033
11
37.0205
21
-14.3748
0
LINE
8
BLACK
10
37.0205
20
-14.3748
11
37.6395
21
-14.3748
0
LINE
8
BLACK
10
17.8667
20
-29.9048
11
17.8667
21
-30.619
0
LINE
8
BLACK
10
17.8667
20
-30.619
11
17.819
21
-30.7619
0
LINE
8
BLACK
10
17.819
20
-30.7619
11
17.7238
21
-30.8571
0
LINE
8
BLACK
10
17.7238
20
-30.8571
11
17.581
21
-30.9048
0
LINE
8
BLACK
10
17.581
20
-30.9048
11
17.4857
21
-30.9048
0
LINE
8
BLACK
10
18.8667
20
-30.9048
11
18.2952
21
-30.9048
0
LINE
8
BLACK
10
18.581
20
-30.9048
11
18.581
21
-29.9048
0
LINE
8
BLACK
10
18.581
20
-29.9048
11
18.4857
21
-30.0476
0
LINE
8
BLACK
10
18.4857
20
-30.0476
11
18.3905
21
-30.1429
0
LINE
8
BLACK
10
18.3905
20
-30.1429
11
18.2952
21
-30.1905
0
LINE
8
BLACK
10
90.0381
20
-61.7748
11
90.0381
21
-60.7748
0
LINE
8
BLACK
10
90.0381
20
-61.251
11
90.6095
21
-61.251
0
LINE
8
BLACK
10
90.6095
20
-61.7748
11
90.6095
21
-60.7748
0
LINE
8
BLACK
10
91.0857
20
-61.7748
11
91.0857
21
-60.7748
0
LINE
8
BLACK
10
91.0857
20
-60.7748
11
91.3238
21
-60.7748
0
LINE
8
BLACK
10
91.3238
20
-60.7748
11
91.4667
21
-60.8224
0
LINE
8
BLACK
10
91.4667
20
-60.8224
11
91.5619
21
-60.9176
0
LINE
8
BLACK
10
91.5619
20
-60.9176
11
91.6095
21
-61.0129
0
LINE
8
BLACK
10
91.6095
20
-61.0129
11
91.6571
21
-61.2033
0
LINE
8
BLACK
10
91.6571
20
-61.2033
11
91.6571
21
-61.3462
0
LINE
8
BLACK
10
91.6571
20
-61.3462
11
91.6095
21
-61.5367
0
LINE
8
BLACK
10
91.6095
20
-61.5367
11
91.5619
21
-61.6319
0
LINE
8
BLACK
10
91.5619
20
-61.6319
11
91.4667
21
-61.7271
0
LINE
8
BLACK
10
91.4667
20
-61.7271
11
91.3238
21
-61.7748
0
LINE
8
BLACK
10
91.3238
20
-61.7748
11
91.0857
21
-61.7748
0
LINE
8
BLACK
10
92.6571
20
-61.7748
11
92.3238
21
-61.2986
0
LINE
8
BLACK
10
92.0857
20
-61.7748
11
92.0857
21
-60.7748
0
LINE
8
BLACK
10
92.0857
20
-60.7748
11
92.4667
21
-60.7748
0
LINE
8
BLACK
10
92.4667
20
-60.7748
11
92.5619
21
-60.8224
0
LINE
8
BLACK
10
92.5619
20
-60.8224
11
92.6095
21
-60.87
0
LINE
8
BLACK
10
92.6095
20
-60.87
11
92.6571
21
-60.9652
0
LINE
8
BLACK
10
92.6571
20
-60.9652
11
92.6571
21
-61.1081
0
LINE
8
BLACK
10
92.6571
20
-61.1081
11
92.6095
21
-61.2033
0
LINE
8
BLACK
10
92.6095
20
-61.2033
11
92.5619
21
-61.251
0
LINE
8
BLACK
10
92.5619
20
-61.251
11
92.4667
21
-61.2986
0
LINE
8
BLACK
10
92.4667
20
-61.2986
11
92.0857
21
-61.2986
0
LINE
8
BLACK
10
93.6095
20
-61.7748
11
93.0381
21
-61.7748
0
LINE
8
BLACK
10
93.3238
20
-61.7748
11
93.3238
21
-60.7748
0
LINE
8
BLACK
10
93.3238
20
-60.7748
11
93.2286
21
-60.9176
0
LINE
8
BLACK
10
93.2286
20
-60.9176
11
93.1333
21
-61.0129
0
LINE
8
BLACK
10
93.1333
20
-61.0129
11
93.0381
21
-61.0605
0
LINE
8
BLACK
10
63.5001
20
-34.2028
11
63.5001
21
-35.0123
0
LINE
8
BLACK
10
63.5001
20
-35.0123
11
63.5477
21
-35.1075
0
LINE
8
BLACK
10
63.5477
20
-35.1075
11
63.5953
21
-35.1551
0
LINE
8
BLACK
10
63.5953
20
-35.1551
11
63.6906
21
-35.2028
0
LINE
8
BLACK
10
63.6906
20
-35.2028
11
63.881
21
-35.2028
0
LINE
8
BLACK
10
63.881
20
-35.2028
11
63.9763
21
-35.1551
0
LINE
8
BLACK
10
63.9763
20
-35.1551
11
64.0239
21
-35.1075
0
LINE
8
BLACK
10
64.0239
20
-35.1075
11
64.0715
21
-35.0123
0
LINE
8
BLACK
10
64.0715
20
-35.0123
11
64.0715
21
-34.2028
0
LINE
8
BLACK
10
64.5953
20
-35.2028
11
64.7858
21
-35.2028
0
LINE
8
BLACK
10
64.7858
20
-35.2028
11
64.881
21
-35.1551
0
LINE
8
BLACK
10
64.881
20
-35.1551
11
64.9287
21
-35.1075
0
LINE
8
BLACK
10
64.9287
20
-35.1075
11
65.0239
21
-34.9647
0
LINE
8
BLACK
10
65.0239
20
-34.9647
11
65.0715
21
-34.7742
0
LINE
8
BLACK
10
65.0715
20
-34.7742
11
65.0715
21
-34.3932
0
LINE
8
BLACK
10
65.0715
20
-34.3932
11
65.0239
21
-34.298
0
LINE
8
BLACK
10
65.0239
20
-34.298
11
64.9763
21
-34.2504
0
LINE
8
BLACK
10
64.9763
20
-34.2504
11
64.881
21
-34.2028
0
LINE
8
BLACK
10
64.881
20
-34.2028
11
64.6906
21
-34.2028
0
LINE
8
BLACK
10
64.6906
20
-34.2028
11
64.5953
21
-34.2504
0
LINE
8
BLACK
10
64.5953
20
-34.2504
11
64.5477
21
-34.298
0
LINE
8
BLACK
10
64.5477
20
-34.298
11
64.5001
21
-34.3932
0
LINE
8
BLACK
10
64.5001
20
-34.3932
11
64.5001
21
-34.6313
0
LINE
8
BLACK
10
64.5001
20
-34.6313
11
64.5477
21
-34.7266
0
LINE
8
BLACK
10
64.5477
20
-34.7266
11
64.5953
21
-34.7742
0
LINE
8
BLACK
10
64.5953
20
-34.7742
11
64.6906
21
-34.8218
0
LINE
8
BLACK
10
64.6906
20
-34.8218
11
64.881
21
-34.8218
0
LINE
8
BLACK
10
64.881
20
-34.8218
11
64.9763
21
-34.7742
0
LINE
8
BLACK
10
64.9763
20
-34.7742
11
65.0239
21
-34.7266
0
LINE
8
BLACK
10
65.0239
20
-34.7266
11
65.0715
21
-34.6313
0
LINE
8
BLACK
10
88.6937
20
-12.6128
11
88.6937
21
-13.327
0
LINE
8
BLACK
10
88.6937
20
-13.327
11
88.646
21
-13.4699
0
LINE
8
BLACK
10
88.646
20
-13.4699
11
88.5508
21
-13.5651
0
LINE
8
BLACK
10
88.5508
20
-13.5651
11
88.408
21
-13.6128
0
LINE
8
BLACK
10
88.408
20
-13.6128
11
88.3127
21
-13.6128
0
LINE
8
BLACK
10
89.1222
20
-12.708
11
89.1699
21
-12.6604
0
LINE
8
BLACK
10
89.1699
20
-12.6604
11
89.2651
21
-12.6128
0
LINE
8
BLACK
10
89.2651
20
-12.6128
11
89.5032
21
-12.6128
0
LINE
8
BLACK
10
89.5032
20
-12.6128
11
89.5984
21
-12.6604
0
LINE
8
BLACK
10
89.5984
20
-12.6604
11
89.646
21
-12.708
0
LINE
8
BLACK
10
89.646
20
-12.708
11
89.6937
21
-12.8032
0
LINE
8
BLACK
10
89.6937
20
-12.8032
11
89.6937
21
-12.8985
0
LINE
8
BLACK
10
89.6937
20
-12.8985
11
89.646
21
-13.0413
0
LINE
8
BLACK
10
89.646
20
-13.0413
11
89.0746
21
-13.6128
0
LINE
8
BLACK
10
89.0746
20
-13.6128
11
89.6937
21
-13.6128
0
LINE
8
BLACK
10
88.4397
20
-47.5378
11
88.4397
21
-48.252
0
LINE
8
BLACK
10
88.4397
20
-48.252
11
88.392
21
-48.3949
0
LINE
8
BLACK
10
88.392
20
-48.3949
11
88.2968
21
-48.4901
0
LINE
8
BLACK
10
88.2968
20
-48.4901
11
88.154
21
-48.5378
0
LINE
8
BLACK
10
88.154
20
-48.5378
11
88.0587
21
-48.5378
0
LINE
8
BLACK
10
89.3444
20
-47.8711
11
89.3444
21
-48.5378
0
LINE
8
BLACK
10
89.1063
20
-47.4901
11
88.8682
21
-48.2044
0
LINE
8
BLACK
10
88.8682
20
-48.2044
11
89.4873
21
-48.2044
0
LINE
8
BLACK
10
58.4048
20
-35.6667
11
57.9286
21
-36
0
LINE
8
BLACK
10
58.4048
20
-36.2381
11
57.4048
21
-36.2381
0
LINE
8
BLACK
10
57.4048
20
-36.2381
11
57.4048
21
-35.8571
0
LINE
8
BLACK
10
57.4048
20
-35.8571
11
57.4524
21
-35.7619
0
LINE
8
BLACK
10
57.4524
20
-35.7619
11
57.5
21
-35.7143
0
LINE
8
BLACK
10
57.5
20
-35.7143
11
57.5952
21
-35.6667
0
LINE
8
BLACK
10
57.5952
20
-35.6667
11
57.7381
21
-35.6667
0
LINE
8
BLACK
10
57.7381
20
-35.6667
11
57.8333
21
-35.7143
0
LINE
8
BLACK
10
57.8333
20
-35.7143
11
57.881
21
-35.7619
0
LINE
8
BLACK
10
57.881
20
-35.7619
11
57.9286
21
-35.8571
0
LINE
8
BLACK
10
57.9286
20
-35.8571
11
57.9286
21
-36.2381
0
LINE
8
BLACK
10
58.4048
20
-35.2381
11
57.4048
21
-35.2381
0
LINE
8
BLACK
10
57.4048
20
-35.2381
11
57.4048
21
-34.8571
0
LINE
8
BLACK
10
57.4048
20
-34.8571
11
57.4524
21
-34.7619
0
LINE
8
BLACK
10
57.4524
20
-34.7619
11
57.5
21
-34.7143
0
LINE
8
BLACK
10
57.5
20
-34.7143
11
57.5952
21
-34.6667
0
LINE
8
BLACK
10
57.5952
20
-34.6667
11
57.7381
21
-34.6667
0
LINE
8
BLACK
10
57.7381
20
-34.6667
11
57.8333
21
-34.7143
0
LINE
8
BLACK
10
57.8333
20
-34.7143
11
57.881
21
-34.7619
0
LINE
8
BLACK
10
57.881
20
-34.7619
11
57.9286
21
-34.8571
0
LINE
8
BLACK
10
57.9286
20
-34.8571
11
57.9286
21
-35.2381
0
LINE
8
BLACK
10
58.4048
20
-33.7143
11
58.4048
21
-34.2857
0
LINE
8
BLACK
10
58.4048
20
-34
11
57.4048
21
-34
0
LINE
8
BLACK
10
57.4048
20
-34
11
57.5476
21
-34.0952
0
LINE
8
BLACK
10
57.5476
20
-34.0952
11
57.6429
21
-34.1905
0
LINE
8
BLACK
10
57.6429
20
-34.1905
11
57.6905
21
-34.2857
0
LINE
8
BLACK
10
81.7148
20
-51.9067
11
81.2386
21
-52.24
0
LINE
8
BLACK
10
81.7148
20
-52.4781
11
80.7148
21
-52.4781
0
LINE
8
BLACK
10
80.7148
20
-52.4781
11
80.7148
21
-52.0971
0
LINE
8
BLACK
10
80.7148
20
-52.0971
11
80.7624
21
-52.0019
0
LINE
8
BLACK
10
80.7624
20
-52.0019
11
80.81
21
-51.9543
0
LINE
8
BLACK
10
80.81
20
-51.9543
11
80.9052
21
-51.9067
0
LINE
8
BLACK
10
80.9052
20
-51.9067
11
81.0481
21
-51.9067
0
LINE
8
BLACK
10
81.0481
20
-51.9067
11
81.1433
21
-51.9543
0
LINE
8
BLACK
10
81.1433
20
-51.9543
11
81.191
21
-52.0019
0
LINE
8
BLACK
10
81.191
20
-52.0019
11
81.2386
21
-52.0971
0
LINE
8
BLACK
10
81.2386
20
-52.0971
11
81.2386
21
-52.4781
0
LINE
8
BLACK
10
81.7148
20
-51.4781
11
80.7148
21
-51.4781
0
LINE
8
BLACK
10
80.7148
20
-51.4781
11
80.7148
21
-51.0971
0
LINE
8
BLACK
10
80.7148
20
-51.0971
11
80.7624
21
-51.0019
0
LINE
8
BLACK
10
80.7624
20
-51.0019
11
80.81
21
-50.9543
0
LINE
8
BLACK
10
80.81
20
-50.9543
11
80.9052
21
-50.9067
0
LINE
8
BLACK
10
80.9052
20
-50.9067
11
81.0481
21
-50.9067
0
LINE
8
BLACK
10
81.0481
20
-50.9067
11
81.1433
21
-50.9543
0
LINE
8
BLACK
10
81.1433
20
-50.9543
11
81.191
21
-51.0019
0
LINE
8
BLACK
10
81.191
20
-51.0019
11
81.2386
21
-51.0971
0
LINE
8
BLACK
10
81.2386
20
-51.0971
11
81.2386
21
-51.4781
0
LINE
8
BLACK
10
80.81
20
-50.5257
11
80.7624
21
-50.4781
0
LINE
8
BLACK
10
80.7624
20
-50.4781
11
80.7148
21
-50.3829
0
LINE
8
BLACK
10
80.7148
20
-50.3829
11
80.7148
21
-50.1448
0
LINE
8
BLACK
10
80.7148
20
-50.1448
11
80.7624
21
-50.0495
0
LINE
8
BLACK
10
80.7624
20
-50.0495
11
80.81
21
-50.0019
0
LINE
8
BLACK
10
80.81
20
-50.0019
11
80.9052
21
-49.9543
0
LINE
8
BLACK
10
80.9052
20
-49.9543
11
81.0005
21
-49.9543
0
LINE
8
BLACK
10
81.0005
20
-49.9543
11
81.1433
21
-50.0019
0
LINE
8
BLACK
10
81.1433
20
-50.0019
11
81.7148
21
-50.5733
0
LINE
8
BLACK
10
81.7148
20
-50.5733
11
81.7148
21
-49.9543
0
LINE
8
BLACK
10
81.0548
20
-46.2433
11
81.769
21
-46.2433
0
LINE
8
BLACK
10
81.769
20
-46.2433
11
81.9119
21
-46.291
0
LINE
8
BLACK
10
81.9119
20
-46.291
11
82.0071
21
-46.3862
0
LINE
8
BLACK
10
82.0071
20
-46.3862
11
82.0548
21
-46.529
0
LINE
8
BLACK
10
82.0548
20
-46.529
11
82.0548
21
-46.6243
0
LINE
8
BLACK
10
81.0548
20
-45.8624
11
81.0548
21
-45.2433
0
LINE
8
BLACK
10
81.0548
20
-45.2433
11
81.4357
21
-45.5767
0
LINE
8
BLACK
10
81.4357
20
-45.5767
11
81.4357
21
-45.4338
0
LINE
8
BLACK
10
81.4357
20
-45.4338
11
81.4833
21
-45.3386
0
LINE
8
BLACK
10
81.4833
20
-45.3386
11
81.531
21
-45.291
0
LINE
8
BLACK
10
81.531
20
-45.291
11
81.6262
21
-45.2433
0
LINE
8
BLACK
10
81.6262
20
-45.2433
11
81.8643
21
-45.2433
0
LINE
8
BLACK
10
81.8643
20
-45.2433
11
81.9595
21
-45.291
0
LINE
8
BLACK
10
81.9595
20
-45.291
11
82.0071
21
-45.3386
0
LINE
8
BLACK
10
82.0071
20
-45.3386
11
82.0548
21
-45.4338
0
LINE
8
BLACK
10
82.0548
20
-45.4338
11
82.0548
21
-45.7195
0
LINE
8
BLACK
10
82.0548
20
-45.7195
11
82.0071
21
-45.8148
0
LINE
8
BLACK
10
82.0071
20
-45.8148
11
81.9595
21
-45.8624
  0
ENDSEC
  0
EOF
