G04 #@! TF.FileFunction,Copper,L2,Bot,Signal*
%FSLAX46Y46*%
G04 Gerber Fmt 4.6, Leading zero omitted, Abs format (unit mm)*
G04 Created by KiCad (PCBNEW (after 2015-mar-04 BZR unknown)-product) date 4/26/2015 2:57:46 PM*
%MOMM*%
G01*
G04 APERTURE LIST*
%ADD10C,0.150000*%
%ADD11C,1.524000*%
%ADD12R,1.397000X1.397000*%
%ADD13C,1.397000*%
%ADD14C,3.810000*%
%ADD15R,1.524000X1.524000*%
%ADD16C,9.525000*%
%ADD17R,2.032000X2.032000*%
%ADD18O,2.032000X2.032000*%
%ADD19R,1.727200X1.727200*%
%ADD20O,1.727200X1.727200*%
%ADD21R,1.300000X1.300000*%
%ADD22C,1.300000*%
%ADD23R,2.286000X1.574800*%
%ADD24O,2.286000X1.574800*%
%ADD25C,0.889000*%
%ADD26C,0.254000*%
%ADD27C,0.635000*%
G04 APERTURE END LIST*
D10*
D11*
X177225000Y-142230000D03*
X188655000Y-142230000D03*
X177225000Y-165090000D03*
X188655000Y-165090000D03*
X177225000Y-153660000D03*
X188655000Y-153660000D03*
X177225000Y-130800000D03*
X188655000Y-130800000D03*
X177225000Y-119370000D03*
X188655000Y-119370000D03*
X177225000Y-107940000D03*
X188655000Y-107940000D03*
X177225000Y-96510000D03*
X188655000Y-96510000D03*
X177225000Y-85080000D03*
X188655000Y-85080000D03*
D12*
X193100000Y-85080000D03*
D13*
X193100000Y-87620000D03*
X193100000Y-90160000D03*
X200720000Y-90160000D03*
X200720000Y-87620000D03*
X200720000Y-85080000D03*
D12*
X193100000Y-165090000D03*
D13*
X193100000Y-167630000D03*
X193100000Y-170170000D03*
X200720000Y-170170000D03*
X200720000Y-167630000D03*
X200720000Y-165090000D03*
D12*
X193100000Y-153660000D03*
D13*
X193100000Y-156200000D03*
X193100000Y-158740000D03*
X200720000Y-158740000D03*
X200720000Y-156200000D03*
X200720000Y-153660000D03*
D12*
X193100000Y-142230000D03*
D13*
X193100000Y-144770000D03*
X193100000Y-147310000D03*
X200720000Y-147310000D03*
X200720000Y-144770000D03*
X200720000Y-142230000D03*
D12*
X193100000Y-130800000D03*
D13*
X193100000Y-133340000D03*
X193100000Y-135880000D03*
X200720000Y-135880000D03*
X200720000Y-133340000D03*
X200720000Y-130800000D03*
D12*
X193100000Y-119370000D03*
D13*
X193100000Y-121910000D03*
X193100000Y-124450000D03*
X200720000Y-124450000D03*
X200720000Y-121910000D03*
X200720000Y-119370000D03*
D12*
X193100000Y-107940000D03*
D13*
X193100000Y-110480000D03*
X193100000Y-113020000D03*
X200720000Y-113020000D03*
X200720000Y-110480000D03*
X200720000Y-107940000D03*
D12*
X193100000Y-96510000D03*
D13*
X193100000Y-99050000D03*
X193100000Y-101590000D03*
X200720000Y-101590000D03*
X200720000Y-99050000D03*
X200720000Y-96510000D03*
D14*
X166430000Y-104005000D03*
X166430000Y-150995000D03*
D11*
X168970000Y-144010000D03*
X168970000Y-141216000D03*
X168970000Y-138549000D03*
X168970000Y-135755000D03*
X168970000Y-132961000D03*
X168970000Y-130167000D03*
X168970000Y-127500000D03*
X168970000Y-124706000D03*
X168970000Y-121912000D03*
X168970000Y-119118000D03*
X168970000Y-116451000D03*
X168970000Y-113657000D03*
D15*
X168970000Y-110863000D03*
D11*
X166430000Y-142435200D03*
X166430000Y-139895200D03*
X166430000Y-137101200D03*
X166430000Y-134358000D03*
X166430000Y-131614800D03*
X166430000Y-128820800D03*
X166430000Y-126077600D03*
X166430000Y-123334400D03*
X166430000Y-120489600D03*
X166430000Y-117797200D03*
X166430000Y-115054000D03*
X166430000Y-112260000D03*
D15*
X243840000Y-139065000D03*
D11*
X241300000Y-139065000D03*
X243840000Y-136525000D03*
X241300000Y-136525000D03*
X243840000Y-133985000D03*
X241300000Y-133985000D03*
D12*
X215325000Y-115560000D03*
D13*
X215325000Y-118100000D03*
X215325000Y-120640000D03*
X215325000Y-123180000D03*
X215325000Y-125720000D03*
X215325000Y-128260000D03*
X215325000Y-130800000D03*
X215325000Y-133340000D03*
X215325000Y-135880000D03*
X215325000Y-138420000D03*
D15*
X238820000Y-125720000D03*
D11*
X238820000Y-123180000D03*
X238820000Y-120640000D03*
X238820000Y-118100000D03*
D16*
X244000000Y-169000000D03*
X244000000Y-86000000D03*
X161000000Y-169000000D03*
X161000000Y-86000000D03*
D15*
X243900000Y-125720000D03*
D11*
X243900000Y-123180000D03*
X243900000Y-120640000D03*
X243900000Y-118100000D03*
D15*
X243900000Y-158740000D03*
D11*
X243900000Y-156200000D03*
X243900000Y-153660000D03*
D15*
X243900000Y-101590000D03*
D11*
X243900000Y-99050000D03*
X243900000Y-96510000D03*
D17*
X244154000Y-146040000D03*
D18*
X244154000Y-148580000D03*
D11*
X214055000Y-145278000D03*
X225485000Y-145278000D03*
X214055000Y-147818000D03*
X225485000Y-147818000D03*
X214055000Y-150358000D03*
X225485000Y-150358000D03*
X209610000Y-118735000D03*
X209610000Y-130165000D03*
X214055000Y-142738000D03*
X225485000Y-142738000D03*
X214055000Y-152898000D03*
X225485000Y-152898000D03*
D19*
X224850000Y-92700000D03*
D20*
X222310000Y-92700000D03*
X224850000Y-90160000D03*
X222310000Y-90160000D03*
D11*
X229295000Y-83810000D03*
X217865000Y-83810000D03*
X229295000Y-86350000D03*
X217865000Y-86350000D03*
D21*
X226060000Y-97536000D03*
D22*
X221060000Y-97536000D03*
D21*
X221488000Y-113030000D03*
D22*
X226488000Y-113030000D03*
D23*
X219770000Y-101082000D03*
D24*
X219770000Y-103622000D03*
X219770000Y-106162000D03*
X219770000Y-108702000D03*
X227390000Y-108702000D03*
X227390000Y-106162000D03*
X227390000Y-103622000D03*
X227390000Y-101082000D03*
D23*
X219770000Y-118100000D03*
D24*
X219770000Y-120640000D03*
X219770000Y-123180000D03*
X219770000Y-125720000D03*
X219770000Y-128260000D03*
X219770000Y-130800000D03*
X219770000Y-133340000D03*
X219770000Y-135880000D03*
X219770000Y-138420000D03*
X227390000Y-138420000D03*
X227390000Y-135880000D03*
X227390000Y-133340000D03*
X227390000Y-130800000D03*
X227390000Y-128260000D03*
X227390000Y-125720000D03*
X227390000Y-123180000D03*
X227390000Y-120640000D03*
X227390000Y-118100000D03*
D25*
X230886000Y-104902000D03*
X234502000Y-149850000D03*
X234502000Y-129276000D03*
X230946000Y-129276000D03*
X234502000Y-138928000D03*
X233172000Y-107442000D03*
X233232000Y-136642000D03*
X232978000Y-147564000D03*
X233232000Y-126990000D03*
X229362000Y-110490000D03*
X230622000Y-145278000D03*
X235772000Y-124450000D03*
X229422000Y-124450000D03*
X235772000Y-134356000D03*
X229422000Y-142738000D03*
X229422000Y-137150000D03*
X228914000Y-155946000D03*
X223266000Y-111506000D03*
X236982000Y-112014000D03*
X235010000Y-106162000D03*
X235010000Y-90922000D03*
X236534000Y-92700000D03*
X236280000Y-108702000D03*
X239582000Y-114290000D03*
X239582000Y-99050000D03*
X229422000Y-99050000D03*
X231962000Y-146294000D03*
X231962000Y-103622000D03*
X231962000Y-152898000D03*
D26*
X230886000Y-104902000D02*
X230946000Y-104902000D01*
X234502000Y-149850000D02*
X234502000Y-138928000D01*
X234502000Y-138928000D02*
X234502000Y-135372000D01*
X234502000Y-135372000D02*
X234502000Y-132578000D01*
X234502000Y-129276000D02*
X234502000Y-132578000D01*
X230946000Y-129276000D02*
X230946000Y-104902000D01*
X233172000Y-107442000D02*
X233232000Y-107442000D01*
X233232000Y-136642000D02*
X233232000Y-134102000D01*
X233232000Y-147310000D02*
X233232000Y-136642000D01*
X232978000Y-147564000D02*
X233232000Y-147310000D01*
X233232000Y-126990000D02*
X233232000Y-134102000D01*
X233232000Y-126990000D02*
X233232000Y-107442000D01*
X229362000Y-110490000D02*
X229422000Y-110490000D01*
X229422000Y-130870000D02*
X229422000Y-124450000D01*
X230632000Y-132080000D02*
X229422000Y-130870000D01*
X230632000Y-145268000D02*
X230632000Y-132080000D01*
X230622000Y-145278000D02*
X230632000Y-145268000D01*
X235772000Y-128514000D02*
X235772000Y-124450000D01*
X235772000Y-134356000D02*
X235772000Y-133086000D01*
X235772000Y-133086000D02*
X235772000Y-128514000D01*
X229422000Y-110490000D02*
X229422000Y-117846000D01*
X229422000Y-117846000D02*
X229422000Y-124450000D01*
X177450000Y-119628000D02*
X177513500Y-119564500D01*
X229422000Y-142230000D02*
X229422000Y-137150000D01*
X228914000Y-155946000D02*
X229422000Y-155438000D01*
X229422000Y-155438000D02*
X229422000Y-142738000D01*
X229422000Y-142738000D02*
X229422000Y-142230000D01*
X238820000Y-118100000D02*
X238820000Y-115630000D01*
X223580000Y-111820000D02*
X223580000Y-112268000D01*
X223266000Y-111506000D02*
X223580000Y-111820000D01*
X236982000Y-113792000D02*
X236982000Y-112014000D01*
X238820000Y-115630000D02*
X236982000Y-113792000D01*
X235010000Y-90922000D02*
X235010000Y-106162000D01*
X219770000Y-118100000D02*
X222310000Y-118100000D01*
X222310000Y-118100000D02*
X223580000Y-116830000D01*
X223580000Y-116830000D02*
X223580000Y-112268000D01*
X225358000Y-106162000D02*
X227390000Y-106162000D01*
X223580000Y-112268000D02*
X223580000Y-107940000D01*
X223580000Y-107940000D02*
X225358000Y-106162000D01*
X236534000Y-108448000D02*
X236534000Y-92700000D01*
X236280000Y-108702000D02*
X236534000Y-108448000D01*
X219770000Y-120640000D02*
X223072000Y-120640000D01*
X225866000Y-108702000D02*
X227390000Y-108702000D01*
X224342000Y-110226000D02*
X225866000Y-108702000D01*
X224342000Y-119370000D02*
X224342000Y-110226000D01*
X223072000Y-120640000D02*
X224342000Y-119370000D01*
D27*
X214055000Y-142738000D02*
X212150000Y-140833000D01*
X212150000Y-140833000D02*
X212150000Y-138039000D01*
X214055000Y-145278000D02*
X214055000Y-142738000D01*
X214055000Y-147818000D02*
X214055000Y-145278000D01*
X214055000Y-150358000D02*
X214055000Y-147818000D01*
X214055000Y-152898000D02*
X214055000Y-150358000D01*
X212150000Y-139944000D02*
X212150000Y-140833000D01*
X239582000Y-99050000D02*
X239582000Y-114290000D01*
X229295000Y-83810000D02*
X229295000Y-86350000D01*
X229295000Y-86350000D02*
X229422000Y-86477000D01*
X229422000Y-86477000D02*
X229422000Y-99050000D01*
X214055000Y-142738000D02*
X214055000Y-142611000D01*
X212150000Y-121275000D02*
X209610000Y-118735000D01*
X212150000Y-140198000D02*
X212150000Y-139944000D01*
X212150000Y-139944000D02*
X212150000Y-138039000D01*
X212150000Y-138039000D02*
X212150000Y-121275000D01*
X227908000Y-97536000D02*
X229422000Y-99050000D01*
X226060000Y-97536000D02*
X227908000Y-97536000D01*
D26*
X231962000Y-131816000D02*
X231962000Y-146294000D01*
X231962000Y-130292000D02*
X231962000Y-103622000D01*
X231962000Y-131816000D02*
X231962000Y-130292000D01*
X231962000Y-146294000D02*
X231962000Y-152898000D01*
X177450000Y-142488000D02*
X176815000Y-142488000D01*
G36*
X249569000Y-168957547D02*
X249396783Y-169823339D01*
X249398435Y-167931081D01*
X248578446Y-165946556D01*
X247061430Y-164426891D01*
X245759975Y-163886479D01*
X245759975Y-148962944D01*
X245759975Y-148197056D01*
X245560385Y-147715182D01*
X245288112Y-147421547D01*
X245315274Y-147416278D01*
X245442956Y-147332404D01*
X245528426Y-147205784D01*
X245558464Y-147056000D01*
X245558464Y-145024000D01*
X245530278Y-144878726D01*
X245446404Y-144751044D01*
X245319784Y-144665574D01*
X245309144Y-144663440D01*
X245309144Y-96717698D01*
X245281362Y-96162632D01*
X245122397Y-95778857D01*
X244880213Y-95709392D01*
X244700608Y-95888997D01*
X244700608Y-95529787D01*
X244631143Y-95287603D01*
X244107698Y-95100856D01*
X243552632Y-95128638D01*
X243168857Y-95287603D01*
X243099392Y-95529787D01*
X243900000Y-96330395D01*
X244700608Y-95529787D01*
X244700608Y-95888997D01*
X244079605Y-96510000D01*
X244880213Y-97310608D01*
X245122397Y-97241143D01*
X245309144Y-96717698D01*
X245309144Y-144663440D01*
X245297000Y-144661004D01*
X245297000Y-126608309D01*
X245297000Y-126005750D01*
X245297000Y-125434250D01*
X245297000Y-124831691D01*
X245297000Y-102478309D01*
X245297000Y-101875750D01*
X245297000Y-101304250D01*
X245297000Y-100701691D01*
X245200327Y-100468302D01*
X245021699Y-100289673D01*
X244788310Y-100193000D01*
X244535691Y-100193000D01*
X244459407Y-100193000D01*
X244618458Y-100127282D01*
X244976026Y-99770337D01*
X245169779Y-99303727D01*
X245170220Y-98798490D01*
X244977282Y-98331542D01*
X244620337Y-97973974D01*
X244334483Y-97855277D01*
X244631143Y-97732397D01*
X244700608Y-97490213D01*
X243900000Y-96689605D01*
X243720395Y-96869210D01*
X243720395Y-96510000D01*
X242919787Y-95709392D01*
X242677603Y-95778857D01*
X242490856Y-96302302D01*
X242518638Y-96857368D01*
X242677603Y-97241143D01*
X242919787Y-97310608D01*
X243720395Y-96510000D01*
X243720395Y-96869210D01*
X243099392Y-97490213D01*
X243168857Y-97732397D01*
X243487787Y-97846180D01*
X243181542Y-97972718D01*
X242823974Y-98329663D01*
X242630221Y-98796273D01*
X242629780Y-99301510D01*
X242822718Y-99768458D01*
X243179663Y-100126026D01*
X243340954Y-100193000D01*
X243264309Y-100193000D01*
X243011690Y-100193000D01*
X242778301Y-100289673D01*
X242599673Y-100468302D01*
X242503000Y-100701691D01*
X242503000Y-101304250D01*
X242661750Y-101463000D01*
X243773000Y-101463000D01*
X243773000Y-101443000D01*
X244027000Y-101443000D01*
X244027000Y-101463000D01*
X245138250Y-101463000D01*
X245297000Y-101304250D01*
X245297000Y-101875750D01*
X245138250Y-101717000D01*
X244027000Y-101717000D01*
X244027000Y-102828250D01*
X244185750Y-102987000D01*
X244535691Y-102987000D01*
X244788310Y-102987000D01*
X245021699Y-102890327D01*
X245200327Y-102711698D01*
X245297000Y-102478309D01*
X245297000Y-124831691D01*
X245200327Y-124598302D01*
X245021699Y-124419673D01*
X244788310Y-124323000D01*
X244535691Y-124323000D01*
X244459407Y-124323000D01*
X244618458Y-124257282D01*
X244976026Y-123900337D01*
X245169779Y-123433727D01*
X245170220Y-122928490D01*
X245043198Y-122621071D01*
X245043198Y-120413641D01*
X245043198Y-117873641D01*
X244869554Y-117453388D01*
X244548303Y-117131577D01*
X244128354Y-116957199D01*
X243773000Y-116956888D01*
X243773000Y-102828250D01*
X243773000Y-101717000D01*
X242661750Y-101717000D01*
X242503000Y-101875750D01*
X242503000Y-102478309D01*
X242599673Y-102711698D01*
X242778301Y-102890327D01*
X243011690Y-102987000D01*
X243264309Y-102987000D01*
X243614250Y-102987000D01*
X243773000Y-102828250D01*
X243773000Y-116956888D01*
X243673641Y-116956802D01*
X243253388Y-117130446D01*
X242931577Y-117451697D01*
X242757199Y-117871646D01*
X242756802Y-118326359D01*
X242930446Y-118746612D01*
X243251697Y-119068423D01*
X243671646Y-119242801D01*
X244126359Y-119243198D01*
X244546612Y-119069554D01*
X244868423Y-118748303D01*
X245042801Y-118328354D01*
X245043198Y-117873641D01*
X245043198Y-120413641D01*
X244869554Y-119993388D01*
X244548303Y-119671577D01*
X244128354Y-119497199D01*
X243673641Y-119496802D01*
X243253388Y-119670446D01*
X242931577Y-119991697D01*
X242757199Y-120411646D01*
X242756802Y-120866359D01*
X242930446Y-121286612D01*
X243251697Y-121608423D01*
X243671646Y-121782801D01*
X244126359Y-121783198D01*
X244546612Y-121609554D01*
X244868423Y-121288303D01*
X245042801Y-120868354D01*
X245043198Y-120413641D01*
X245043198Y-122621071D01*
X244977282Y-122461542D01*
X244620337Y-122103974D01*
X244153727Y-121910221D01*
X243648490Y-121909780D01*
X243181542Y-122102718D01*
X242823974Y-122459663D01*
X242630221Y-122926273D01*
X242629780Y-123431510D01*
X242822718Y-123898458D01*
X243179663Y-124256026D01*
X243340954Y-124323000D01*
X243264309Y-124323000D01*
X243011690Y-124323000D01*
X242778301Y-124419673D01*
X242599673Y-124598302D01*
X242503000Y-124831691D01*
X242503000Y-125434250D01*
X242661750Y-125593000D01*
X243773000Y-125593000D01*
X243773000Y-125573000D01*
X244027000Y-125573000D01*
X244027000Y-125593000D01*
X245138250Y-125593000D01*
X245297000Y-125434250D01*
X245297000Y-126005750D01*
X245138250Y-125847000D01*
X244027000Y-125847000D01*
X244027000Y-126958250D01*
X244185750Y-127117000D01*
X244535691Y-127117000D01*
X244788310Y-127117000D01*
X245021699Y-127020327D01*
X245200327Y-126841698D01*
X245297000Y-126608309D01*
X245297000Y-144661004D01*
X245249144Y-144651407D01*
X245249144Y-136732698D01*
X245249144Y-134192698D01*
X245221362Y-133637632D01*
X245062397Y-133253857D01*
X244820213Y-133184392D01*
X244640608Y-133363997D01*
X244640608Y-133004787D01*
X244571143Y-132762603D01*
X244047698Y-132575856D01*
X243773000Y-132589605D01*
X243773000Y-126958250D01*
X243773000Y-125847000D01*
X242661750Y-125847000D01*
X242503000Y-126005750D01*
X242503000Y-126608309D01*
X242599673Y-126841698D01*
X242778301Y-127020327D01*
X243011690Y-127117000D01*
X243264309Y-127117000D01*
X243614250Y-127117000D01*
X243773000Y-126958250D01*
X243773000Y-132589605D01*
X243492632Y-132603638D01*
X243108857Y-132762603D01*
X243039392Y-133004787D01*
X243840000Y-133805395D01*
X244640608Y-133004787D01*
X244640608Y-133363997D01*
X244019605Y-133985000D01*
X244820213Y-134785608D01*
X245062397Y-134716143D01*
X245249144Y-134192698D01*
X245249144Y-136732698D01*
X245221362Y-136177632D01*
X245062397Y-135793857D01*
X244820213Y-135724392D01*
X244640608Y-135903997D01*
X244640608Y-135544787D01*
X244571143Y-135302603D01*
X244447655Y-135258547D01*
X244571143Y-135207397D01*
X244640608Y-134965213D01*
X243840000Y-134164605D01*
X243660395Y-134344210D01*
X243660395Y-133985000D01*
X242859787Y-133184392D01*
X242617603Y-133253857D01*
X242440147Y-133751258D01*
X242269554Y-133338388D01*
X241948303Y-133016577D01*
X241528354Y-132842199D01*
X241073641Y-132841802D01*
X240653388Y-133015446D01*
X240534665Y-133133962D01*
X240534665Y-114101367D01*
X240407500Y-113793604D01*
X240407500Y-99545748D01*
X240534335Y-99240295D01*
X240534665Y-98861367D01*
X240389961Y-98511157D01*
X240122253Y-98242980D01*
X239772295Y-98097665D01*
X239393367Y-98097335D01*
X239043157Y-98242039D01*
X238774980Y-98509747D01*
X238629665Y-98859705D01*
X238629335Y-99238633D01*
X238756500Y-99546395D01*
X238756500Y-113794251D01*
X238629665Y-114099705D01*
X238629335Y-114478633D01*
X238774039Y-114828843D01*
X239041747Y-115097020D01*
X239391705Y-115242335D01*
X239770633Y-115242665D01*
X240120843Y-115097961D01*
X240389020Y-114830253D01*
X240534335Y-114480295D01*
X240534665Y-114101367D01*
X240534665Y-133133962D01*
X240331577Y-133336697D01*
X240217000Y-133612629D01*
X240217000Y-126608309D01*
X240217000Y-126005750D01*
X240217000Y-125434250D01*
X240217000Y-124831691D01*
X240120327Y-124598302D01*
X239941699Y-124419673D01*
X239708310Y-124323000D01*
X239455691Y-124323000D01*
X239379407Y-124323000D01*
X239538458Y-124257282D01*
X239896026Y-123900337D01*
X240089779Y-123433727D01*
X240090220Y-122928490D01*
X239963198Y-122621071D01*
X239963198Y-120413641D01*
X239963198Y-117873641D01*
X239789554Y-117453388D01*
X239468303Y-117131577D01*
X239328000Y-117073318D01*
X239328000Y-115630000D01*
X239289331Y-115435597D01*
X239179211Y-115270790D01*
X237490000Y-113581579D01*
X237490000Y-112673302D01*
X237681417Y-112482219D01*
X237807357Y-112178923D01*
X237807643Y-111850518D01*
X237682233Y-111547002D01*
X237450219Y-111314583D01*
X237359643Y-111276972D01*
X237359643Y-92536518D01*
X237234233Y-92233002D01*
X237002219Y-92000583D01*
X236698923Y-91874643D01*
X236370518Y-91874357D01*
X236067002Y-91999767D01*
X235834583Y-92231781D01*
X235708643Y-92535077D01*
X235708357Y-92863482D01*
X235833767Y-93166998D01*
X236026000Y-93359566D01*
X236026000Y-107913758D01*
X235835643Y-107992411D01*
X235835643Y-105998518D01*
X235710233Y-105695002D01*
X235518000Y-105502433D01*
X235518000Y-91581302D01*
X235709417Y-91390219D01*
X235835357Y-91086923D01*
X235835643Y-90758518D01*
X235710233Y-90455002D01*
X235478219Y-90222583D01*
X235174923Y-90096643D01*
X234846518Y-90096357D01*
X234543002Y-90221767D01*
X234310583Y-90453781D01*
X234184643Y-90757077D01*
X234184357Y-91085482D01*
X234309767Y-91388998D01*
X234502000Y-91581566D01*
X234502000Y-105502697D01*
X234310583Y-105693781D01*
X234184643Y-105997077D01*
X234184357Y-106325482D01*
X234309767Y-106628998D01*
X234541781Y-106861417D01*
X234845077Y-106987357D01*
X235173482Y-106987643D01*
X235476998Y-106862233D01*
X235709417Y-106630219D01*
X235835357Y-106326923D01*
X235835643Y-105998518D01*
X235835643Y-107992411D01*
X235813002Y-108001767D01*
X235580583Y-108233781D01*
X235454643Y-108537077D01*
X235454357Y-108865482D01*
X235579767Y-109168998D01*
X235811781Y-109401417D01*
X236115077Y-109527357D01*
X236443482Y-109527643D01*
X236746998Y-109402233D01*
X236979417Y-109170219D01*
X237105357Y-108866923D01*
X237105643Y-108538518D01*
X237042000Y-108384489D01*
X237042000Y-93359302D01*
X237233417Y-93168219D01*
X237359357Y-92864923D01*
X237359643Y-92536518D01*
X237359643Y-111276972D01*
X237146923Y-111188643D01*
X236818518Y-111188357D01*
X236515002Y-111313767D01*
X236282583Y-111545781D01*
X236156643Y-111849077D01*
X236156357Y-112177482D01*
X236281767Y-112480998D01*
X236474000Y-112673566D01*
X236474000Y-113792000D01*
X236512669Y-113986403D01*
X236622790Y-114151210D01*
X238312000Y-115840420D01*
X238312000Y-117073173D01*
X238173388Y-117130446D01*
X237851577Y-117451697D01*
X237677199Y-117871646D01*
X237676802Y-118326359D01*
X237850446Y-118746612D01*
X238171697Y-119068423D01*
X238591646Y-119242801D01*
X239046359Y-119243198D01*
X239466612Y-119069554D01*
X239788423Y-118748303D01*
X239962801Y-118328354D01*
X239963198Y-117873641D01*
X239963198Y-120413641D01*
X239789554Y-119993388D01*
X239468303Y-119671577D01*
X239048354Y-119497199D01*
X238593641Y-119496802D01*
X238173388Y-119670446D01*
X237851577Y-119991697D01*
X237677199Y-120411646D01*
X237676802Y-120866359D01*
X237850446Y-121286612D01*
X238171697Y-121608423D01*
X238591646Y-121782801D01*
X239046359Y-121783198D01*
X239466612Y-121609554D01*
X239788423Y-121288303D01*
X239962801Y-120868354D01*
X239963198Y-120413641D01*
X239963198Y-122621071D01*
X239897282Y-122461542D01*
X239540337Y-122103974D01*
X239073727Y-121910221D01*
X238568490Y-121909780D01*
X238101542Y-122102718D01*
X237743974Y-122459663D01*
X237550221Y-122926273D01*
X237549780Y-123431510D01*
X237742718Y-123898458D01*
X238099663Y-124256026D01*
X238260954Y-124323000D01*
X238184309Y-124323000D01*
X237931690Y-124323000D01*
X237698301Y-124419673D01*
X237519673Y-124598302D01*
X237423000Y-124831691D01*
X237423000Y-125434250D01*
X237581750Y-125593000D01*
X238693000Y-125593000D01*
X238693000Y-125573000D01*
X238947000Y-125573000D01*
X238947000Y-125593000D01*
X240058250Y-125593000D01*
X240217000Y-125434250D01*
X240217000Y-126005750D01*
X240058250Y-125847000D01*
X238947000Y-125847000D01*
X238947000Y-126958250D01*
X239105750Y-127117000D01*
X239455691Y-127117000D01*
X239708310Y-127117000D01*
X239941699Y-127020327D01*
X240120327Y-126841698D01*
X240217000Y-126608309D01*
X240217000Y-133612629D01*
X240157199Y-133756646D01*
X240156802Y-134211359D01*
X240330446Y-134631612D01*
X240651697Y-134953423D01*
X241071646Y-135127801D01*
X241526359Y-135128198D01*
X241946612Y-134954554D01*
X242268423Y-134633303D01*
X242442801Y-134213354D01*
X242442970Y-134019339D01*
X242458638Y-134332368D01*
X242617603Y-134716143D01*
X242859787Y-134785608D01*
X243660395Y-133985000D01*
X243660395Y-134344210D01*
X243039392Y-134965213D01*
X243108857Y-135207397D01*
X243232344Y-135251452D01*
X243108857Y-135302603D01*
X243039392Y-135544787D01*
X243840000Y-136345395D01*
X244640608Y-135544787D01*
X244640608Y-135903997D01*
X244019605Y-136525000D01*
X244820213Y-137325608D01*
X245062397Y-137256143D01*
X245249144Y-136732698D01*
X245249144Y-144651407D01*
X245237000Y-144648972D01*
X245237000Y-139953309D01*
X245237000Y-139350750D01*
X245237000Y-138779250D01*
X245237000Y-138176691D01*
X245140327Y-137943302D01*
X244961699Y-137764673D01*
X244728310Y-137668000D01*
X244593916Y-137668000D01*
X244640608Y-137505213D01*
X243840000Y-136704605D01*
X243660395Y-136884210D01*
X243660395Y-136525000D01*
X242859787Y-135724392D01*
X242617603Y-135793857D01*
X242440147Y-136291258D01*
X242269554Y-135878388D01*
X241948303Y-135556577D01*
X241528354Y-135382199D01*
X241073641Y-135381802D01*
X240653388Y-135555446D01*
X240331577Y-135876697D01*
X240157199Y-136296646D01*
X240156802Y-136751359D01*
X240330446Y-137171612D01*
X240651697Y-137493423D01*
X241071646Y-137667801D01*
X241526359Y-137668198D01*
X241946612Y-137494554D01*
X242268423Y-137173303D01*
X242442801Y-136753354D01*
X242442970Y-136559339D01*
X242458638Y-136872368D01*
X242617603Y-137256143D01*
X242859787Y-137325608D01*
X243660395Y-136525000D01*
X243660395Y-136884210D01*
X243039392Y-137505213D01*
X243086083Y-137668000D01*
X242951690Y-137668000D01*
X242718301Y-137764673D01*
X242539673Y-137943302D01*
X242443000Y-138176691D01*
X242443000Y-138779250D01*
X242601748Y-138937998D01*
X242443198Y-138937998D01*
X242443111Y-138937998D01*
X242443198Y-138838641D01*
X242269554Y-138418388D01*
X241948303Y-138096577D01*
X241528354Y-137922199D01*
X241073641Y-137921802D01*
X240653388Y-138095446D01*
X240331577Y-138416697D01*
X240157199Y-138836646D01*
X240156802Y-139291359D01*
X240330446Y-139711612D01*
X240651697Y-140033423D01*
X241071646Y-140207801D01*
X241526359Y-140208198D01*
X241946612Y-140034554D01*
X242268423Y-139713303D01*
X242442801Y-139293354D01*
X242443000Y-139065424D01*
X242443000Y-139192002D01*
X242443198Y-139192002D01*
X242601748Y-139192002D01*
X242443198Y-139350552D01*
X242443000Y-139350750D01*
X242443000Y-139953309D01*
X242539673Y-140186698D01*
X242718301Y-140365327D01*
X242951690Y-140462000D01*
X243204309Y-140462000D01*
X243554250Y-140462000D01*
X243713000Y-140303250D01*
X243713000Y-139192000D01*
X243693000Y-139192000D01*
X243693000Y-138938000D01*
X243713000Y-138938000D01*
X243713000Y-138918000D01*
X243967000Y-138918000D01*
X243967000Y-138938000D01*
X245078250Y-138938000D01*
X245237000Y-138779250D01*
X245237000Y-139350750D01*
X245078250Y-139192000D01*
X243967000Y-139192000D01*
X243967000Y-140303250D01*
X244125750Y-140462000D01*
X244475691Y-140462000D01*
X244728310Y-140462000D01*
X244961699Y-140365327D01*
X245140327Y-140186698D01*
X245237000Y-139953309D01*
X245237000Y-144648972D01*
X245170000Y-144635536D01*
X243713000Y-144635536D01*
X243138000Y-144635536D01*
X242992726Y-144663722D01*
X242865044Y-144747596D01*
X242779574Y-144874216D01*
X242749536Y-145024000D01*
X242749536Y-147056000D01*
X242777722Y-147201274D01*
X242861596Y-147328956D01*
X242988216Y-147414426D01*
X243020490Y-147420898D01*
X242747615Y-147715182D01*
X242548025Y-148197056D01*
X242667164Y-148453000D01*
X244027000Y-148453000D01*
X244027000Y-148433000D01*
X244281000Y-148433000D01*
X244281000Y-148453000D01*
X245640836Y-148453000D01*
X245759975Y-148197056D01*
X245759975Y-148962944D01*
X245640836Y-148707000D01*
X244281000Y-148707000D01*
X244281000Y-150067367D01*
X244536946Y-150185983D01*
X245122379Y-149917188D01*
X245560385Y-149444818D01*
X245759975Y-148962944D01*
X245759975Y-163886479D01*
X245309144Y-163699277D01*
X245309144Y-153867698D01*
X245281362Y-153312632D01*
X245122397Y-152928857D01*
X244880213Y-152859392D01*
X244700608Y-153038997D01*
X244700608Y-152679787D01*
X244631143Y-152437603D01*
X244107698Y-152250856D01*
X244027000Y-152254895D01*
X244027000Y-150067367D01*
X244027000Y-148707000D01*
X242667164Y-148707000D01*
X242548025Y-148962944D01*
X242747615Y-149444818D01*
X243185621Y-149917188D01*
X243771054Y-150185983D01*
X244027000Y-150067367D01*
X244027000Y-152254895D01*
X243552632Y-152278638D01*
X243168857Y-152437603D01*
X243099392Y-152679787D01*
X243900000Y-153480395D01*
X244700608Y-152679787D01*
X244700608Y-153038997D01*
X244079605Y-153660000D01*
X244880213Y-154460608D01*
X245122397Y-154391143D01*
X245309144Y-153867698D01*
X245309144Y-163699277D01*
X245297000Y-163694235D01*
X245297000Y-159628309D01*
X245297000Y-159025750D01*
X245297000Y-158454250D01*
X245297000Y-157851691D01*
X245200327Y-157618302D01*
X245043198Y-157461172D01*
X245021699Y-157439673D01*
X244788310Y-157343000D01*
X244535691Y-157343000D01*
X244185750Y-157343000D01*
X244027002Y-157501748D01*
X244027002Y-157343111D01*
X244126359Y-157343198D01*
X244546612Y-157169554D01*
X244868423Y-156848303D01*
X245042801Y-156428354D01*
X245043198Y-155973641D01*
X244869554Y-155553388D01*
X244548303Y-155231577D01*
X244128354Y-155057199D01*
X243934339Y-155057029D01*
X244247368Y-155041362D01*
X244631143Y-154882397D01*
X244700608Y-154640213D01*
X243900000Y-153839605D01*
X243720395Y-154019210D01*
X243720395Y-153660000D01*
X242919787Y-152859392D01*
X242677603Y-152928857D01*
X242490856Y-153452302D01*
X242518638Y-154007368D01*
X242677603Y-154391143D01*
X242919787Y-154460608D01*
X243720395Y-153660000D01*
X243720395Y-154019210D01*
X243099392Y-154640213D01*
X243168857Y-154882397D01*
X243666258Y-155059852D01*
X243253388Y-155230446D01*
X242931577Y-155551697D01*
X242757199Y-155971646D01*
X242756802Y-156426359D01*
X242930446Y-156846612D01*
X243251697Y-157168423D01*
X243671646Y-157342801D01*
X243899575Y-157343000D01*
X243772998Y-157343000D01*
X243772998Y-157501748D01*
X243614250Y-157343000D01*
X243264309Y-157343000D01*
X243011690Y-157343000D01*
X242778301Y-157439673D01*
X242599673Y-157618302D01*
X242503000Y-157851691D01*
X242503000Y-158454250D01*
X242661750Y-158613000D01*
X243773000Y-158613000D01*
X243773000Y-158593000D01*
X244027000Y-158593000D01*
X244027000Y-158613000D01*
X245138250Y-158613000D01*
X245297000Y-158454250D01*
X245297000Y-159025750D01*
X245138250Y-158867000D01*
X244027000Y-158867000D01*
X244027000Y-159978250D01*
X244185750Y-160137000D01*
X244535691Y-160137000D01*
X244788310Y-160137000D01*
X245021699Y-160040327D01*
X245200327Y-159861698D01*
X245297000Y-159628309D01*
X245297000Y-163694235D01*
X245078339Y-163603439D01*
X243773000Y-163602299D01*
X243773000Y-159978250D01*
X243773000Y-158867000D01*
X242661750Y-158867000D01*
X242503000Y-159025750D01*
X242503000Y-159628309D01*
X242599673Y-159861698D01*
X242778301Y-160040327D01*
X243011690Y-160137000D01*
X243264309Y-160137000D01*
X243614250Y-160137000D01*
X243773000Y-159978250D01*
X243773000Y-163602299D01*
X242931081Y-163601565D01*
X240946556Y-164421554D01*
X239426891Y-165938570D01*
X238693000Y-167705974D01*
X238693000Y-126958250D01*
X238693000Y-125847000D01*
X237581750Y-125847000D01*
X237423000Y-126005750D01*
X237423000Y-126608309D01*
X237519673Y-126841698D01*
X237698301Y-127020327D01*
X237931690Y-127117000D01*
X238184309Y-127117000D01*
X238534250Y-127117000D01*
X238693000Y-126958250D01*
X238693000Y-167705974D01*
X238603439Y-167921661D01*
X238601565Y-170068919D01*
X239421554Y-172053444D01*
X240938570Y-173573109D01*
X242921661Y-174396561D01*
X244330717Y-174397790D01*
X244190897Y-174522584D01*
X243957552Y-174569000D01*
X236597643Y-174569000D01*
X236597643Y-134192518D01*
X236472233Y-133889002D01*
X236280000Y-133696433D01*
X236280000Y-133086000D01*
X236280000Y-128514000D01*
X236280000Y-125109302D01*
X236471417Y-124918219D01*
X236597357Y-124614923D01*
X236597643Y-124286518D01*
X236472233Y-123983002D01*
X236240219Y-123750583D01*
X235936923Y-123624643D01*
X235608518Y-123624357D01*
X235305002Y-123749767D01*
X235072583Y-123981781D01*
X234946643Y-124285077D01*
X234946357Y-124613482D01*
X235071767Y-124916998D01*
X235264000Y-125109566D01*
X235264000Y-128514000D01*
X235264000Y-128958489D01*
X235202233Y-128809002D01*
X234970219Y-128576583D01*
X234666923Y-128450643D01*
X234338518Y-128450357D01*
X234035002Y-128575767D01*
X233802583Y-128807781D01*
X233740000Y-128958497D01*
X233740000Y-127649302D01*
X233931417Y-127458219D01*
X234057357Y-127154923D01*
X234057643Y-126826518D01*
X233932233Y-126523002D01*
X233740000Y-126330433D01*
X233740000Y-108041407D01*
X233871417Y-107910219D01*
X233997357Y-107606923D01*
X233997643Y-107278518D01*
X233872233Y-106975002D01*
X233640219Y-106742583D01*
X233336923Y-106616643D01*
X233008518Y-106616357D01*
X232705002Y-106741767D01*
X232472583Y-106973781D01*
X232470000Y-106980001D01*
X232470000Y-104281302D01*
X232661417Y-104090219D01*
X232787357Y-103786923D01*
X232787643Y-103458518D01*
X232662233Y-103155002D01*
X232430219Y-102922583D01*
X232126923Y-102796643D01*
X231798518Y-102796357D01*
X231495002Y-102921767D01*
X231262583Y-103153781D01*
X231136643Y-103457077D01*
X231136357Y-103785482D01*
X231261767Y-104088998D01*
X231454000Y-104281566D01*
X231454000Y-104302538D01*
X231354219Y-104202583D01*
X231050923Y-104076643D01*
X230722518Y-104076357D01*
X230419002Y-104201767D01*
X230186583Y-104433781D01*
X230060643Y-104737077D01*
X230060357Y-105065482D01*
X230185767Y-105368998D01*
X230417781Y-105601417D01*
X230438000Y-105609812D01*
X230438000Y-128616697D01*
X230246583Y-128807781D01*
X230120643Y-129111077D01*
X230120357Y-129439482D01*
X230245767Y-129742998D01*
X230477781Y-129975417D01*
X230781077Y-130101357D01*
X231109482Y-130101643D01*
X231412998Y-129976233D01*
X231454000Y-129935302D01*
X231454000Y-130292000D01*
X231454000Y-131816000D01*
X231454000Y-145634697D01*
X231447643Y-145641042D01*
X231447643Y-145114518D01*
X231322233Y-144811002D01*
X231140000Y-144628450D01*
X231140000Y-132080000D01*
X231107746Y-131917849D01*
X231101331Y-131885597D01*
X231101331Y-131885596D01*
X230991210Y-131720790D01*
X230991210Y-131720789D01*
X229930000Y-130659579D01*
X229930000Y-125109302D01*
X230121417Y-124918219D01*
X230247357Y-124614923D01*
X230247643Y-124286518D01*
X230122233Y-123983002D01*
X229930000Y-123790433D01*
X229930000Y-117846000D01*
X229930000Y-111089407D01*
X230061417Y-110958219D01*
X230187357Y-110654923D01*
X230187643Y-110326518D01*
X230062233Y-110023002D01*
X229830219Y-109790583D01*
X229526923Y-109664643D01*
X229198518Y-109664357D01*
X229073345Y-109716077D01*
X229073345Y-101082000D01*
X228974739Y-100586272D01*
X228693931Y-100166014D01*
X228273673Y-99885206D01*
X227777945Y-99786600D01*
X227002055Y-99786600D01*
X226506327Y-99885206D01*
X226086069Y-100166014D01*
X225805261Y-100586272D01*
X225706655Y-101082000D01*
X225805261Y-101577728D01*
X226086069Y-101997986D01*
X226506327Y-102278794D01*
X227002055Y-102377400D01*
X227777945Y-102377400D01*
X228273673Y-102278794D01*
X228693931Y-101997986D01*
X228974739Y-101577728D01*
X229073345Y-101082000D01*
X229073345Y-109716077D01*
X228943857Y-109769580D01*
X228943857Y-108702000D01*
X228854918Y-108254873D01*
X228601641Y-107875816D01*
X228222584Y-107622539D01*
X227775457Y-107533600D01*
X227004543Y-107533600D01*
X226557416Y-107622539D01*
X226178359Y-107875816D01*
X225965755Y-108194000D01*
X225866000Y-108194000D01*
X225671597Y-108232669D01*
X225616910Y-108269209D01*
X225506789Y-108342790D01*
X224088000Y-109761579D01*
X224088000Y-108150420D01*
X225568420Y-106670000D01*
X225965755Y-106670000D01*
X226178359Y-106988184D01*
X226557416Y-107241461D01*
X227004543Y-107330400D01*
X227775457Y-107330400D01*
X228222584Y-107241461D01*
X228601641Y-106988184D01*
X228854918Y-106609127D01*
X228943857Y-106162000D01*
X228943857Y-103622000D01*
X228854918Y-103174873D01*
X228601641Y-102795816D01*
X228222584Y-102542539D01*
X227775457Y-102453600D01*
X227004543Y-102453600D01*
X226557416Y-102542539D01*
X226178359Y-102795816D01*
X225925082Y-103174873D01*
X225836143Y-103622000D01*
X225925082Y-104069127D01*
X226178359Y-104448184D01*
X226557416Y-104701461D01*
X227004543Y-104790400D01*
X227775457Y-104790400D01*
X228222584Y-104701461D01*
X228601641Y-104448184D01*
X228854918Y-104069127D01*
X228943857Y-103622000D01*
X228943857Y-106162000D01*
X228854918Y-105714873D01*
X228601641Y-105335816D01*
X228222584Y-105082539D01*
X227775457Y-104993600D01*
X227004543Y-104993600D01*
X226557416Y-105082539D01*
X226178359Y-105335816D01*
X225965755Y-105654000D01*
X225358000Y-105654000D01*
X225163597Y-105692669D01*
X224998790Y-105802790D01*
X223578983Y-107222597D01*
X223578983Y-92700000D01*
X223578983Y-90160000D01*
X223484243Y-89683712D01*
X223214448Y-89279935D01*
X222810671Y-89010140D01*
X222334383Y-88915400D01*
X222285617Y-88915400D01*
X221809329Y-89010140D01*
X221405552Y-89279935D01*
X221135757Y-89683712D01*
X221041017Y-90160000D01*
X221135757Y-90636288D01*
X221405552Y-91040065D01*
X221809329Y-91309860D01*
X222285617Y-91404600D01*
X222334383Y-91404600D01*
X222810671Y-91309860D01*
X223214448Y-91040065D01*
X223484243Y-90636288D01*
X223578983Y-90160000D01*
X223578983Y-92700000D01*
X223484243Y-92223712D01*
X223214448Y-91819935D01*
X222810671Y-91550140D01*
X222334383Y-91455400D01*
X222285617Y-91455400D01*
X221809329Y-91550140D01*
X221405552Y-91819935D01*
X221135757Y-92223712D01*
X221041017Y-92700000D01*
X221135757Y-93176288D01*
X221405552Y-93580065D01*
X221809329Y-93849860D01*
X222285617Y-93944600D01*
X222334383Y-93944600D01*
X222810671Y-93849860D01*
X223214448Y-93580065D01*
X223484243Y-93176288D01*
X223578983Y-92700000D01*
X223578983Y-107222597D01*
X223220790Y-107580790D01*
X223110669Y-107745597D01*
X223072000Y-107940000D01*
X223072000Y-110692966D01*
X222799002Y-110805767D01*
X222566583Y-111037781D01*
X222440643Y-111341077D01*
X222440357Y-111669482D01*
X222565767Y-111972998D01*
X222797781Y-112205417D01*
X223072000Y-112319283D01*
X223072000Y-116619580D01*
X222655952Y-117035628D01*
X222655952Y-113680000D01*
X222655952Y-112380000D01*
X222618370Y-112186301D01*
X222506539Y-112016058D01*
X222357622Y-111915538D01*
X222357622Y-97716922D01*
X222328083Y-97206572D01*
X222189611Y-96872271D01*
X221959016Y-96816590D01*
X221779410Y-96996195D01*
X221779410Y-96636984D01*
X221723729Y-96406389D01*
X221240922Y-96238378D01*
X220730572Y-96267917D01*
X220396271Y-96406389D01*
X220340590Y-96636984D01*
X221060000Y-97356395D01*
X221779410Y-96636984D01*
X221779410Y-96996195D01*
X221239605Y-97536000D01*
X221959016Y-98255410D01*
X222189611Y-98199729D01*
X222357622Y-97716922D01*
X222357622Y-111915538D01*
X222337712Y-111902099D01*
X222138000Y-111862048D01*
X221779410Y-111862048D01*
X221779410Y-98435016D01*
X221060000Y-97715605D01*
X220880395Y-97895210D01*
X220880395Y-97536000D01*
X220160984Y-96816590D01*
X219930389Y-96872271D01*
X219762378Y-97355078D01*
X219791917Y-97865428D01*
X219930389Y-98199729D01*
X220160984Y-98255410D01*
X220880395Y-97536000D01*
X220880395Y-97895210D01*
X220340590Y-98435016D01*
X220396271Y-98665611D01*
X220879078Y-98833622D01*
X221389428Y-98804083D01*
X221723729Y-98665611D01*
X221779410Y-98435016D01*
X221779410Y-111862048D01*
X221505010Y-111862048D01*
X221505010Y-109049060D01*
X221505010Y-108354940D01*
X221488327Y-108275004D01*
X221221191Y-107786014D01*
X220787262Y-107436475D01*
X220316535Y-107298359D01*
X220602584Y-107241461D01*
X220981641Y-106988184D01*
X221234918Y-106609127D01*
X221323857Y-106162000D01*
X221323857Y-103622000D01*
X221301464Y-103509422D01*
X221301464Y-101869400D01*
X221301464Y-100294600D01*
X221273278Y-100149326D01*
X221189404Y-100021644D01*
X221062784Y-99936174D01*
X220913000Y-99906136D01*
X218627000Y-99906136D01*
X218481726Y-99934322D01*
X218354044Y-100018196D01*
X218268574Y-100144816D01*
X218238536Y-100294600D01*
X218238536Y-101869400D01*
X218266722Y-102014674D01*
X218350596Y-102142356D01*
X218477216Y-102227826D01*
X218627000Y-102257864D01*
X220913000Y-102257864D01*
X221058274Y-102229678D01*
X221185956Y-102145804D01*
X221271426Y-102019184D01*
X221301464Y-101869400D01*
X221301464Y-103509422D01*
X221234918Y-103174873D01*
X220981641Y-102795816D01*
X220602584Y-102542539D01*
X220155457Y-102453600D01*
X219384543Y-102453600D01*
X218937416Y-102542539D01*
X218558359Y-102795816D01*
X218305082Y-103174873D01*
X218216143Y-103622000D01*
X218305082Y-104069127D01*
X218558359Y-104448184D01*
X218937416Y-104701461D01*
X219384543Y-104790400D01*
X220155457Y-104790400D01*
X220602584Y-104701461D01*
X220981641Y-104448184D01*
X221234918Y-104069127D01*
X221323857Y-103622000D01*
X221323857Y-106162000D01*
X221234918Y-105714873D01*
X220981641Y-105335816D01*
X220602584Y-105082539D01*
X220155457Y-104993600D01*
X219384543Y-104993600D01*
X218937416Y-105082539D01*
X218558359Y-105335816D01*
X218305082Y-105714873D01*
X218216143Y-106162000D01*
X218305082Y-106609127D01*
X218558359Y-106988184D01*
X218937416Y-107241461D01*
X219223464Y-107298359D01*
X218752738Y-107436475D01*
X218318809Y-107786014D01*
X218051673Y-108275004D01*
X218034990Y-108354940D01*
X218157148Y-108575000D01*
X219643000Y-108575000D01*
X219643000Y-108555000D01*
X219897000Y-108555000D01*
X219897000Y-108575000D01*
X221382852Y-108575000D01*
X221505010Y-108354940D01*
X221505010Y-109049060D01*
X221382852Y-108829000D01*
X219897000Y-108829000D01*
X219897000Y-110124400D01*
X220252600Y-110124400D01*
X220787262Y-109967525D01*
X221221191Y-109617986D01*
X221488327Y-109128996D01*
X221505010Y-109049060D01*
X221505010Y-111862048D01*
X220838000Y-111862048D01*
X220644301Y-111899630D01*
X220474058Y-112011461D01*
X220360099Y-112180288D01*
X220320048Y-112380000D01*
X220320048Y-113680000D01*
X220357630Y-113873699D01*
X220469461Y-114043942D01*
X220638288Y-114157901D01*
X220838000Y-114197952D01*
X222138000Y-114197952D01*
X222331699Y-114160370D01*
X222501942Y-114048539D01*
X222615901Y-113879712D01*
X222655952Y-113680000D01*
X222655952Y-117035628D01*
X222099580Y-117592000D01*
X221301464Y-117592000D01*
X221301464Y-117312600D01*
X221273278Y-117167326D01*
X221189404Y-117039644D01*
X221062784Y-116954174D01*
X220913000Y-116924136D01*
X219643000Y-116924136D01*
X219643000Y-110124400D01*
X219643000Y-108829000D01*
X218157148Y-108829000D01*
X218034990Y-109049060D01*
X218051673Y-109128996D01*
X218318809Y-109617986D01*
X218752738Y-109967525D01*
X219287400Y-110124400D01*
X219643000Y-110124400D01*
X219643000Y-116924136D01*
X218627000Y-116924136D01*
X218481726Y-116952322D01*
X218354044Y-117036196D01*
X218268574Y-117162816D01*
X218238536Y-117312600D01*
X218238536Y-118887400D01*
X218266722Y-119032674D01*
X218350596Y-119160356D01*
X218477216Y-119245826D01*
X218627000Y-119275864D01*
X220913000Y-119275864D01*
X221058274Y-119247678D01*
X221185956Y-119163804D01*
X221271426Y-119037184D01*
X221301464Y-118887400D01*
X221301464Y-118608000D01*
X222310000Y-118608000D01*
X222504403Y-118569331D01*
X222669210Y-118459210D01*
X223834000Y-117294420D01*
X223834000Y-119159580D01*
X222861580Y-120132000D01*
X221194244Y-120132000D01*
X220981641Y-119813816D01*
X220602584Y-119560539D01*
X220155457Y-119471600D01*
X219384543Y-119471600D01*
X218937416Y-119560539D01*
X218558359Y-119813816D01*
X218305082Y-120192873D01*
X218216143Y-120640000D01*
X218305082Y-121087127D01*
X218558359Y-121466184D01*
X218937416Y-121719461D01*
X219384543Y-121808400D01*
X220155457Y-121808400D01*
X220602584Y-121719461D01*
X220981641Y-121466184D01*
X221194244Y-121148000D01*
X223072000Y-121148000D01*
X223266403Y-121109331D01*
X223431210Y-120999210D01*
X224701210Y-119729210D01*
X224811331Y-119564404D01*
X224811331Y-119564403D01*
X224817746Y-119532150D01*
X224849999Y-119370000D01*
X224850000Y-119370000D01*
X224850000Y-110436420D01*
X226010081Y-109276338D01*
X226178359Y-109528184D01*
X226557416Y-109781461D01*
X227004543Y-109870400D01*
X227775457Y-109870400D01*
X228222584Y-109781461D01*
X228601641Y-109528184D01*
X228854918Y-109149127D01*
X228943857Y-108702000D01*
X228943857Y-109769580D01*
X228895002Y-109789767D01*
X228662583Y-110021781D01*
X228536643Y-110325077D01*
X228536357Y-110653482D01*
X228661767Y-110956998D01*
X228893781Y-111189417D01*
X228914000Y-111197812D01*
X228914000Y-117513369D01*
X228693931Y-117184014D01*
X228273673Y-116903206D01*
X227785622Y-116806127D01*
X227785622Y-113210922D01*
X227756083Y-112700572D01*
X227617611Y-112366271D01*
X227387016Y-112310590D01*
X227207410Y-112490195D01*
X227207410Y-112130984D01*
X227151729Y-111900389D01*
X226668922Y-111732378D01*
X226158572Y-111761917D01*
X225824271Y-111900389D01*
X225768590Y-112130984D01*
X226488000Y-112850395D01*
X227207410Y-112130984D01*
X227207410Y-112490195D01*
X226667605Y-113030000D01*
X227387016Y-113749410D01*
X227617611Y-113693729D01*
X227785622Y-113210922D01*
X227785622Y-116806127D01*
X227777945Y-116804600D01*
X227207410Y-116804600D01*
X227207410Y-113929016D01*
X226488000Y-113209605D01*
X226308395Y-113389210D01*
X226308395Y-113030000D01*
X225588984Y-112310590D01*
X225358389Y-112366271D01*
X225190378Y-112849078D01*
X225219917Y-113359428D01*
X225358389Y-113693729D01*
X225588984Y-113749410D01*
X226308395Y-113030000D01*
X226308395Y-113389210D01*
X225768590Y-113929016D01*
X225824271Y-114159611D01*
X226307078Y-114327622D01*
X226817428Y-114298083D01*
X227151729Y-114159611D01*
X227207410Y-113929016D01*
X227207410Y-116804600D01*
X227002055Y-116804600D01*
X226506327Y-116903206D01*
X226086069Y-117184014D01*
X225805261Y-117604272D01*
X225706655Y-118100000D01*
X225805261Y-118595728D01*
X226086069Y-119015986D01*
X226506327Y-119296794D01*
X227002055Y-119395400D01*
X227777945Y-119395400D01*
X228273673Y-119296794D01*
X228693931Y-119015986D01*
X228914000Y-118686630D01*
X228914000Y-120489898D01*
X228854918Y-120192873D01*
X228601641Y-119813816D01*
X228222584Y-119560539D01*
X227775457Y-119471600D01*
X227004543Y-119471600D01*
X226557416Y-119560539D01*
X226178359Y-119813816D01*
X225925082Y-120192873D01*
X225836143Y-120640000D01*
X225925082Y-121087127D01*
X226178359Y-121466184D01*
X226557416Y-121719461D01*
X227004543Y-121808400D01*
X227775457Y-121808400D01*
X228222584Y-121719461D01*
X228601641Y-121466184D01*
X228854918Y-121087127D01*
X228914000Y-120790101D01*
X228914000Y-123029898D01*
X228854918Y-122732873D01*
X228601641Y-122353816D01*
X228222584Y-122100539D01*
X227775457Y-122011600D01*
X227004543Y-122011600D01*
X226557416Y-122100539D01*
X226178359Y-122353816D01*
X225925082Y-122732873D01*
X225836143Y-123180000D01*
X225925082Y-123627127D01*
X226178359Y-124006184D01*
X226557416Y-124259461D01*
X227004543Y-124348400D01*
X227775457Y-124348400D01*
X228222584Y-124259461D01*
X228601641Y-124006184D01*
X228854918Y-123627127D01*
X228914000Y-123330101D01*
X228914000Y-123790697D01*
X228722583Y-123981781D01*
X228596643Y-124285077D01*
X228596357Y-124613482D01*
X228721767Y-124916998D01*
X228914000Y-125109566D01*
X228914000Y-125569898D01*
X228854918Y-125272873D01*
X228601641Y-124893816D01*
X228222584Y-124640539D01*
X227775457Y-124551600D01*
X227004543Y-124551600D01*
X226557416Y-124640539D01*
X226178359Y-124893816D01*
X225925082Y-125272873D01*
X225836143Y-125720000D01*
X225925082Y-126167127D01*
X226178359Y-126546184D01*
X226557416Y-126799461D01*
X227004543Y-126888400D01*
X227775457Y-126888400D01*
X228222584Y-126799461D01*
X228601641Y-126546184D01*
X228854918Y-126167127D01*
X228914000Y-125870101D01*
X228914000Y-128109898D01*
X228854918Y-127812873D01*
X228601641Y-127433816D01*
X228222584Y-127180539D01*
X227775457Y-127091600D01*
X227004543Y-127091600D01*
X226557416Y-127180539D01*
X226178359Y-127433816D01*
X225925082Y-127812873D01*
X225836143Y-128260000D01*
X225925082Y-128707127D01*
X226178359Y-129086184D01*
X226557416Y-129339461D01*
X227004543Y-129428400D01*
X227775457Y-129428400D01*
X228222584Y-129339461D01*
X228601641Y-129086184D01*
X228854918Y-128707127D01*
X228914000Y-128410101D01*
X228914000Y-130649898D01*
X228854918Y-130352873D01*
X228601641Y-129973816D01*
X228222584Y-129720539D01*
X227775457Y-129631600D01*
X227004543Y-129631600D01*
X226557416Y-129720539D01*
X226178359Y-129973816D01*
X225925082Y-130352873D01*
X225836143Y-130800000D01*
X225925082Y-131247127D01*
X226178359Y-131626184D01*
X226557416Y-131879461D01*
X227004543Y-131968400D01*
X227775457Y-131968400D01*
X228222584Y-131879461D01*
X228601641Y-131626184D01*
X228854918Y-131247127D01*
X228921966Y-130910050D01*
X228952669Y-131064403D01*
X229062790Y-131229210D01*
X230124000Y-132290420D01*
X230124000Y-136687278D01*
X230122233Y-136683002D01*
X229890219Y-136450583D01*
X229586923Y-136324643D01*
X229258518Y-136324357D01*
X228955002Y-136449767D01*
X228943857Y-136460892D01*
X228943857Y-135880000D01*
X228943857Y-133340000D01*
X228854918Y-132892873D01*
X228601641Y-132513816D01*
X228222584Y-132260539D01*
X227775457Y-132171600D01*
X227004543Y-132171600D01*
X226557416Y-132260539D01*
X226178359Y-132513816D01*
X225925082Y-132892873D01*
X225836143Y-133340000D01*
X225925082Y-133787127D01*
X226178359Y-134166184D01*
X226557416Y-134419461D01*
X227004543Y-134508400D01*
X227775457Y-134508400D01*
X228222584Y-134419461D01*
X228601641Y-134166184D01*
X228854918Y-133787127D01*
X228943857Y-133340000D01*
X228943857Y-135880000D01*
X228854918Y-135432873D01*
X228601641Y-135053816D01*
X228222584Y-134800539D01*
X227775457Y-134711600D01*
X227004543Y-134711600D01*
X226557416Y-134800539D01*
X226178359Y-135053816D01*
X225925082Y-135432873D01*
X225836143Y-135880000D01*
X225925082Y-136327127D01*
X226178359Y-136706184D01*
X226557416Y-136959461D01*
X227004543Y-137048400D01*
X227775457Y-137048400D01*
X228222584Y-136959461D01*
X228601641Y-136706184D01*
X228854918Y-136327127D01*
X228943857Y-135880000D01*
X228943857Y-136460892D01*
X228722583Y-136681781D01*
X228596643Y-136985077D01*
X228596357Y-137313482D01*
X228721767Y-137616998D01*
X228914000Y-137809566D01*
X228914000Y-138269898D01*
X228854918Y-137972873D01*
X228601641Y-137593816D01*
X228222584Y-137340539D01*
X227775457Y-137251600D01*
X227004543Y-137251600D01*
X226557416Y-137340539D01*
X226178359Y-137593816D01*
X225925082Y-137972873D01*
X225836143Y-138420000D01*
X225925082Y-138867127D01*
X226178359Y-139246184D01*
X226557416Y-139499461D01*
X227004543Y-139588400D01*
X227775457Y-139588400D01*
X228222584Y-139499461D01*
X228601641Y-139246184D01*
X228854918Y-138867127D01*
X228914000Y-138570101D01*
X228914000Y-142078697D01*
X228722583Y-142269781D01*
X228596643Y-142573077D01*
X228596357Y-142901482D01*
X228721767Y-143204998D01*
X228914000Y-143397566D01*
X228914000Y-155120499D01*
X228750518Y-155120357D01*
X228447002Y-155245767D01*
X228214583Y-155477781D01*
X228088643Y-155781077D01*
X228088357Y-156109482D01*
X228213767Y-156412998D01*
X228445781Y-156645417D01*
X228749077Y-156771357D01*
X229077482Y-156771643D01*
X229380998Y-156646233D01*
X229613417Y-156414219D01*
X229739357Y-156110923D01*
X229739593Y-155838826D01*
X229781210Y-155797211D01*
X229781210Y-155797210D01*
X229854790Y-155687090D01*
X229891330Y-155632404D01*
X229891331Y-155632403D01*
X229929999Y-155438000D01*
X229930000Y-155438000D01*
X229930000Y-145753245D01*
X230153781Y-145977417D01*
X230457077Y-146103357D01*
X230785482Y-146103643D01*
X231088998Y-145978233D01*
X231321417Y-145746219D01*
X231447357Y-145442923D01*
X231447643Y-145114518D01*
X231447643Y-145641042D01*
X231262583Y-145825781D01*
X231136643Y-146129077D01*
X231136357Y-146457482D01*
X231261767Y-146760998D01*
X231454000Y-146953566D01*
X231454000Y-152238697D01*
X231262583Y-152429781D01*
X231136643Y-152733077D01*
X231136357Y-153061482D01*
X231261767Y-153364998D01*
X231493781Y-153597417D01*
X231797077Y-153723357D01*
X232125482Y-153723643D01*
X232428998Y-153598233D01*
X232661417Y-153366219D01*
X232787357Y-153062923D01*
X232787643Y-152734518D01*
X232662233Y-152431002D01*
X232470000Y-152238433D01*
X232470000Y-148223566D01*
X232509781Y-148263417D01*
X232813077Y-148389357D01*
X233141482Y-148389643D01*
X233444998Y-148264233D01*
X233677417Y-148032219D01*
X233803357Y-147728923D01*
X233803643Y-147400518D01*
X233740000Y-147246489D01*
X233740000Y-139245510D01*
X233801767Y-139394998D01*
X233994000Y-139587566D01*
X233994000Y-149190697D01*
X233802583Y-149381781D01*
X233676643Y-149685077D01*
X233676357Y-150013482D01*
X233801767Y-150316998D01*
X234033781Y-150549417D01*
X234337077Y-150675357D01*
X234665482Y-150675643D01*
X234968998Y-150550233D01*
X235201417Y-150318219D01*
X235327357Y-150014923D01*
X235327643Y-149686518D01*
X235202233Y-149383002D01*
X235010000Y-149190433D01*
X235010000Y-139587302D01*
X235201417Y-139396219D01*
X235327357Y-139092923D01*
X235327643Y-138764518D01*
X235202233Y-138461002D01*
X235010000Y-138268433D01*
X235010000Y-135372000D01*
X235010000Y-134673510D01*
X235071767Y-134822998D01*
X235303781Y-135055417D01*
X235607077Y-135181357D01*
X235935482Y-135181643D01*
X236238998Y-135056233D01*
X236471417Y-134824219D01*
X236597357Y-134520923D01*
X236597643Y-134192518D01*
X236597643Y-174569000D01*
X226628198Y-174569000D01*
X226628198Y-152671641D01*
X226628198Y-150131641D01*
X226628198Y-147591641D01*
X226628198Y-145051641D01*
X226628198Y-142511641D01*
X226454554Y-142091388D01*
X226133303Y-141769577D01*
X225713354Y-141595199D01*
X225258641Y-141594802D01*
X224838388Y-141768446D01*
X224516577Y-142089697D01*
X224342199Y-142509646D01*
X224341802Y-142964359D01*
X224515446Y-143384612D01*
X224836697Y-143706423D01*
X225256646Y-143880801D01*
X225711359Y-143881198D01*
X226131612Y-143707554D01*
X226453423Y-143386303D01*
X226627801Y-142966354D01*
X226628198Y-142511641D01*
X226628198Y-145051641D01*
X226454554Y-144631388D01*
X226133303Y-144309577D01*
X225713354Y-144135199D01*
X225258641Y-144134802D01*
X224838388Y-144308446D01*
X224516577Y-144629697D01*
X224342199Y-145049646D01*
X224341802Y-145504359D01*
X224515446Y-145924612D01*
X224836697Y-146246423D01*
X225256646Y-146420801D01*
X225711359Y-146421198D01*
X226131612Y-146247554D01*
X226453423Y-145926303D01*
X226627801Y-145506354D01*
X226628198Y-145051641D01*
X226628198Y-147591641D01*
X226454554Y-147171388D01*
X226133303Y-146849577D01*
X225713354Y-146675199D01*
X225258641Y-146674802D01*
X224838388Y-146848446D01*
X224516577Y-147169697D01*
X224342199Y-147589646D01*
X224341802Y-148044359D01*
X224515446Y-148464612D01*
X224836697Y-148786423D01*
X225256646Y-148960801D01*
X225711359Y-148961198D01*
X226131612Y-148787554D01*
X226453423Y-148466303D01*
X226627801Y-148046354D01*
X226628198Y-147591641D01*
X226628198Y-150131641D01*
X226454554Y-149711388D01*
X226133303Y-149389577D01*
X225713354Y-149215199D01*
X225258641Y-149214802D01*
X224838388Y-149388446D01*
X224516577Y-149709697D01*
X224342199Y-150129646D01*
X224341802Y-150584359D01*
X224515446Y-151004612D01*
X224836697Y-151326423D01*
X225256646Y-151500801D01*
X225711359Y-151501198D01*
X226131612Y-151327554D01*
X226453423Y-151006303D01*
X226627801Y-150586354D01*
X226628198Y-150131641D01*
X226628198Y-152671641D01*
X226454554Y-152251388D01*
X226133303Y-151929577D01*
X225713354Y-151755199D01*
X225258641Y-151754802D01*
X224838388Y-151928446D01*
X224516577Y-152249697D01*
X224342199Y-152669646D01*
X224341802Y-153124359D01*
X224515446Y-153544612D01*
X224836697Y-153866423D01*
X225256646Y-154040801D01*
X225711359Y-154041198D01*
X226131612Y-153867554D01*
X226453423Y-153546303D01*
X226627801Y-153126354D01*
X226628198Y-152671641D01*
X226628198Y-174569000D01*
X221505010Y-174569000D01*
X221505010Y-138767060D01*
X221505010Y-138072940D01*
X221488327Y-137993004D01*
X221221191Y-137504014D01*
X220787262Y-137154475D01*
X220316535Y-137016359D01*
X220602584Y-136959461D01*
X220981641Y-136706184D01*
X221234918Y-136327127D01*
X221323857Y-135880000D01*
X221323857Y-133340000D01*
X221323857Y-130800000D01*
X221323857Y-128260000D01*
X221323857Y-125720000D01*
X221323857Y-123180000D01*
X221234918Y-122732873D01*
X220981641Y-122353816D01*
X220602584Y-122100539D01*
X220155457Y-122011600D01*
X219384543Y-122011600D01*
X218937416Y-122100539D01*
X218558359Y-122353816D01*
X218305082Y-122732873D01*
X218216143Y-123180000D01*
X218305082Y-123627127D01*
X218558359Y-124006184D01*
X218937416Y-124259461D01*
X219384543Y-124348400D01*
X220155457Y-124348400D01*
X220602584Y-124259461D01*
X220981641Y-124006184D01*
X221234918Y-123627127D01*
X221323857Y-123180000D01*
X221323857Y-125720000D01*
X221234918Y-125272873D01*
X220981641Y-124893816D01*
X220602584Y-124640539D01*
X220155457Y-124551600D01*
X219384543Y-124551600D01*
X218937416Y-124640539D01*
X218558359Y-124893816D01*
X218305082Y-125272873D01*
X218216143Y-125720000D01*
X218305082Y-126167127D01*
X218558359Y-126546184D01*
X218937416Y-126799461D01*
X219384543Y-126888400D01*
X220155457Y-126888400D01*
X220602584Y-126799461D01*
X220981641Y-126546184D01*
X221234918Y-126167127D01*
X221323857Y-125720000D01*
X221323857Y-128260000D01*
X221234918Y-127812873D01*
X220981641Y-127433816D01*
X220602584Y-127180539D01*
X220155457Y-127091600D01*
X219384543Y-127091600D01*
X218937416Y-127180539D01*
X218558359Y-127433816D01*
X218305082Y-127812873D01*
X218216143Y-128260000D01*
X218305082Y-128707127D01*
X218558359Y-129086184D01*
X218937416Y-129339461D01*
X219384543Y-129428400D01*
X220155457Y-129428400D01*
X220602584Y-129339461D01*
X220981641Y-129086184D01*
X221234918Y-128707127D01*
X221323857Y-128260000D01*
X221323857Y-130800000D01*
X221234918Y-130352873D01*
X220981641Y-129973816D01*
X220602584Y-129720539D01*
X220155457Y-129631600D01*
X219384543Y-129631600D01*
X218937416Y-129720539D01*
X218558359Y-129973816D01*
X218305082Y-130352873D01*
X218216143Y-130800000D01*
X218305082Y-131247127D01*
X218558359Y-131626184D01*
X218937416Y-131879461D01*
X219384543Y-131968400D01*
X220155457Y-131968400D01*
X220602584Y-131879461D01*
X220981641Y-131626184D01*
X221234918Y-131247127D01*
X221323857Y-130800000D01*
X221323857Y-133340000D01*
X221234918Y-132892873D01*
X220981641Y-132513816D01*
X220602584Y-132260539D01*
X220155457Y-132171600D01*
X219384543Y-132171600D01*
X218937416Y-132260539D01*
X218558359Y-132513816D01*
X218305082Y-132892873D01*
X218216143Y-133340000D01*
X218305082Y-133787127D01*
X218558359Y-134166184D01*
X218937416Y-134419461D01*
X219384543Y-134508400D01*
X220155457Y-134508400D01*
X220602584Y-134419461D01*
X220981641Y-134166184D01*
X221234918Y-133787127D01*
X221323857Y-133340000D01*
X221323857Y-135880000D01*
X221234918Y-135432873D01*
X220981641Y-135053816D01*
X220602584Y-134800539D01*
X220155457Y-134711600D01*
X219384543Y-134711600D01*
X218937416Y-134800539D01*
X218558359Y-135053816D01*
X218305082Y-135432873D01*
X218216143Y-135880000D01*
X218305082Y-136327127D01*
X218558359Y-136706184D01*
X218937416Y-136959461D01*
X219223464Y-137016359D01*
X218752738Y-137154475D01*
X218318809Y-137504014D01*
X218051673Y-137993004D01*
X218034990Y-138072940D01*
X218157148Y-138293000D01*
X219643000Y-138293000D01*
X219643000Y-138273000D01*
X219897000Y-138273000D01*
X219897000Y-138293000D01*
X221382852Y-138293000D01*
X221505010Y-138072940D01*
X221505010Y-138767060D01*
X221382852Y-138547000D01*
X219897000Y-138547000D01*
X219897000Y-139842400D01*
X220252600Y-139842400D01*
X220787262Y-139685525D01*
X221221191Y-139335986D01*
X221488327Y-138846996D01*
X221505010Y-138767060D01*
X221505010Y-174569000D01*
X219643000Y-174569000D01*
X219643000Y-139842400D01*
X219643000Y-138547000D01*
X218157148Y-138547000D01*
X218034990Y-138767060D01*
X218051673Y-138846996D01*
X218318809Y-139335986D01*
X218752738Y-139685525D01*
X219287400Y-139842400D01*
X219643000Y-139842400D01*
X219643000Y-174569000D01*
X216541452Y-174569000D01*
X216541452Y-116258500D01*
X216541452Y-114861500D01*
X216503870Y-114667801D01*
X216392039Y-114497558D01*
X216223212Y-114383599D01*
X216023500Y-114343548D01*
X214626500Y-114343548D01*
X214432801Y-114381130D01*
X214262558Y-114492961D01*
X214148599Y-114661788D01*
X214108548Y-114861500D01*
X214108548Y-116258500D01*
X214146130Y-116452199D01*
X214257961Y-116622442D01*
X214426788Y-116736401D01*
X214626500Y-116776452D01*
X216023500Y-116776452D01*
X216217199Y-116738870D01*
X216387442Y-116627039D01*
X216501401Y-116458212D01*
X216541452Y-116258500D01*
X216541452Y-174569000D01*
X216404687Y-174569000D01*
X216404687Y-138206216D01*
X216404687Y-135666216D01*
X216404687Y-133126216D01*
X216404687Y-130586216D01*
X216404687Y-128046216D01*
X216404687Y-125506216D01*
X216404687Y-122966216D01*
X216404687Y-120426216D01*
X216404687Y-117886216D01*
X216240689Y-117489311D01*
X215937286Y-117185378D01*
X215540668Y-117020687D01*
X215111216Y-117020313D01*
X214714311Y-117184311D01*
X214410378Y-117487714D01*
X214245687Y-117884332D01*
X214245313Y-118313784D01*
X214409311Y-118710689D01*
X214712714Y-119014622D01*
X215109332Y-119179313D01*
X215538784Y-119179687D01*
X215935689Y-119015689D01*
X216239622Y-118712286D01*
X216404313Y-118315668D01*
X216404687Y-117886216D01*
X216404687Y-120426216D01*
X216240689Y-120029311D01*
X215937286Y-119725378D01*
X215540668Y-119560687D01*
X215111216Y-119560313D01*
X214714311Y-119724311D01*
X214410378Y-120027714D01*
X214245687Y-120424332D01*
X214245313Y-120853784D01*
X214409311Y-121250689D01*
X214712714Y-121554622D01*
X215109332Y-121719313D01*
X215538784Y-121719687D01*
X215935689Y-121555689D01*
X216239622Y-121252286D01*
X216404313Y-120855668D01*
X216404687Y-120426216D01*
X216404687Y-122966216D01*
X216240689Y-122569311D01*
X215937286Y-122265378D01*
X215540668Y-122100687D01*
X215111216Y-122100313D01*
X214714311Y-122264311D01*
X214410378Y-122567714D01*
X214245687Y-122964332D01*
X214245313Y-123393784D01*
X214409311Y-123790689D01*
X214712714Y-124094622D01*
X215109332Y-124259313D01*
X215538784Y-124259687D01*
X215935689Y-124095689D01*
X216239622Y-123792286D01*
X216404313Y-123395668D01*
X216404687Y-122966216D01*
X216404687Y-125506216D01*
X216240689Y-125109311D01*
X215937286Y-124805378D01*
X215540668Y-124640687D01*
X215111216Y-124640313D01*
X214714311Y-124804311D01*
X214410378Y-125107714D01*
X214245687Y-125504332D01*
X214245313Y-125933784D01*
X214409311Y-126330689D01*
X214712714Y-126634622D01*
X215109332Y-126799313D01*
X215538784Y-126799687D01*
X215935689Y-126635689D01*
X216239622Y-126332286D01*
X216404313Y-125935668D01*
X216404687Y-125506216D01*
X216404687Y-128046216D01*
X216240689Y-127649311D01*
X215937286Y-127345378D01*
X215540668Y-127180687D01*
X215111216Y-127180313D01*
X214714311Y-127344311D01*
X214410378Y-127647714D01*
X214245687Y-128044332D01*
X214245313Y-128473784D01*
X214409311Y-128870689D01*
X214712714Y-129174622D01*
X215109332Y-129339313D01*
X215538784Y-129339687D01*
X215935689Y-129175689D01*
X216239622Y-128872286D01*
X216404313Y-128475668D01*
X216404687Y-128046216D01*
X216404687Y-130586216D01*
X216240689Y-130189311D01*
X215937286Y-129885378D01*
X215540668Y-129720687D01*
X215111216Y-129720313D01*
X214714311Y-129884311D01*
X214410378Y-130187714D01*
X214245687Y-130584332D01*
X214245313Y-131013784D01*
X214409311Y-131410689D01*
X214712714Y-131714622D01*
X215109332Y-131879313D01*
X215538784Y-131879687D01*
X215935689Y-131715689D01*
X216239622Y-131412286D01*
X216404313Y-131015668D01*
X216404687Y-130586216D01*
X216404687Y-133126216D01*
X216240689Y-132729311D01*
X215937286Y-132425378D01*
X215540668Y-132260687D01*
X215111216Y-132260313D01*
X214714311Y-132424311D01*
X214410378Y-132727714D01*
X214245687Y-133124332D01*
X214245313Y-133553784D01*
X214409311Y-133950689D01*
X214712714Y-134254622D01*
X215109332Y-134419313D01*
X215538784Y-134419687D01*
X215935689Y-134255689D01*
X216239622Y-133952286D01*
X216404313Y-133555668D01*
X216404687Y-133126216D01*
X216404687Y-135666216D01*
X216240689Y-135269311D01*
X215937286Y-134965378D01*
X215540668Y-134800687D01*
X215111216Y-134800313D01*
X214714311Y-134964311D01*
X214410378Y-135267714D01*
X214245687Y-135664332D01*
X214245313Y-136093784D01*
X214409311Y-136490689D01*
X214712714Y-136794622D01*
X215109332Y-136959313D01*
X215538784Y-136959687D01*
X215935689Y-136795689D01*
X216239622Y-136492286D01*
X216404313Y-136095668D01*
X216404687Y-135666216D01*
X216404687Y-138206216D01*
X216240689Y-137809311D01*
X215937286Y-137505378D01*
X215540668Y-137340687D01*
X215111216Y-137340313D01*
X214714311Y-137504311D01*
X214410378Y-137807714D01*
X214245687Y-138204332D01*
X214245313Y-138633784D01*
X214409311Y-139030689D01*
X214712714Y-139334622D01*
X215109332Y-139499313D01*
X215538784Y-139499687D01*
X215935689Y-139335689D01*
X216239622Y-139032286D01*
X216404313Y-138635668D01*
X216404687Y-138206216D01*
X216404687Y-174569000D01*
X215325220Y-174569000D01*
X215325220Y-152646490D01*
X215132282Y-152179542D01*
X214880500Y-151927320D01*
X214880500Y-151328426D01*
X215131026Y-151078337D01*
X215324779Y-150611727D01*
X215325220Y-150106490D01*
X215132282Y-149639542D01*
X214880500Y-149387320D01*
X214880500Y-148788426D01*
X215131026Y-148538337D01*
X215324779Y-148071727D01*
X215325220Y-147566490D01*
X215132282Y-147099542D01*
X214880500Y-146847320D01*
X214880500Y-146248426D01*
X215131026Y-145998337D01*
X215324779Y-145531727D01*
X215325220Y-145026490D01*
X215132282Y-144559542D01*
X214880500Y-144307320D01*
X214880500Y-143708426D01*
X215131026Y-143458337D01*
X215324779Y-142991727D01*
X215325220Y-142486490D01*
X215132282Y-142019542D01*
X214775337Y-141661974D01*
X214308727Y-141468221D01*
X213952343Y-141467909D01*
X212975500Y-140491066D01*
X212975500Y-140198000D01*
X212975500Y-139944000D01*
X212975500Y-138039000D01*
X212975500Y-121275000D01*
X212912663Y-120959095D01*
X212912662Y-120959094D01*
X212733717Y-120691283D01*
X212733713Y-120691280D01*
X210879911Y-118837477D01*
X210880220Y-118483490D01*
X210687282Y-118016542D01*
X210330337Y-117658974D01*
X209863727Y-117465221D01*
X209358490Y-117464780D01*
X208891542Y-117657718D01*
X208533974Y-118014663D01*
X208340221Y-118481273D01*
X208339780Y-118986510D01*
X208532718Y-119453458D01*
X208889663Y-119811026D01*
X209356273Y-120004779D01*
X209712656Y-120005090D01*
X211324500Y-121616933D01*
X211324500Y-138039000D01*
X211324500Y-139944000D01*
X211324500Y-140198000D01*
X211324500Y-140833000D01*
X211387337Y-141148906D01*
X211566283Y-141416717D01*
X212785088Y-142635522D01*
X212784780Y-142989510D01*
X212977718Y-143456458D01*
X213229500Y-143708679D01*
X213229500Y-144307573D01*
X212978974Y-144557663D01*
X212785221Y-145024273D01*
X212784780Y-145529510D01*
X212977718Y-145996458D01*
X213229500Y-146248679D01*
X213229500Y-146847573D01*
X212978974Y-147097663D01*
X212785221Y-147564273D01*
X212784780Y-148069510D01*
X212977718Y-148536458D01*
X213229500Y-148788679D01*
X213229500Y-149387573D01*
X212978974Y-149637663D01*
X212785221Y-150104273D01*
X212784780Y-150609510D01*
X212977718Y-151076458D01*
X213229500Y-151328679D01*
X213229500Y-151927573D01*
X212978974Y-152177663D01*
X212785221Y-152644273D01*
X212784780Y-153149510D01*
X212977718Y-153616458D01*
X213334663Y-153974026D01*
X213801273Y-154167779D01*
X214306510Y-154168220D01*
X214773458Y-153975282D01*
X215131026Y-153618337D01*
X215324779Y-153151727D01*
X215325220Y-152646490D01*
X215325220Y-174569000D01*
X210753198Y-174569000D01*
X210753198Y-129938641D01*
X210579554Y-129518388D01*
X210258303Y-129196577D01*
X209838354Y-129022199D01*
X209383641Y-129021802D01*
X208963388Y-129195446D01*
X208641577Y-129516697D01*
X208467199Y-129936646D01*
X208466802Y-130391359D01*
X208640446Y-130811612D01*
X208961697Y-131133423D01*
X209381646Y-131307801D01*
X209836359Y-131308198D01*
X210256612Y-131134554D01*
X210578423Y-130813303D01*
X210752801Y-130393354D01*
X210753198Y-129938641D01*
X210753198Y-174569000D01*
X202065927Y-174569000D01*
X202065927Y-170362520D01*
X202065927Y-158932520D01*
X202065927Y-147502520D01*
X202065927Y-136072520D01*
X202065927Y-124642520D01*
X202065927Y-113212520D01*
X202065927Y-101782520D01*
X202065927Y-90352520D01*
X202037148Y-89822801D01*
X201889800Y-89467071D01*
X201799687Y-89443490D01*
X201799687Y-87406216D01*
X201635689Y-87009311D01*
X201332286Y-86705378D01*
X200935668Y-86540687D01*
X200506216Y-86540313D01*
X200109311Y-86704311D01*
X199805378Y-87007714D01*
X199640687Y-87404332D01*
X199640313Y-87833784D01*
X199804311Y-88230689D01*
X200107714Y-88534622D01*
X200504332Y-88699313D01*
X200933784Y-88699687D01*
X201330689Y-88535689D01*
X201634622Y-88232286D01*
X201799313Y-87835668D01*
X201799687Y-87406216D01*
X201799687Y-89443490D01*
X201654188Y-89405417D01*
X201474583Y-89585022D01*
X201474583Y-89225812D01*
X201412929Y-88990200D01*
X200912520Y-88814073D01*
X200382801Y-88842852D01*
X200027071Y-88990200D01*
X199965417Y-89225812D01*
X200720000Y-89980395D01*
X201474583Y-89225812D01*
X201474583Y-89585022D01*
X200899605Y-90160000D01*
X201654188Y-90914583D01*
X201889800Y-90852929D01*
X202065927Y-90352520D01*
X202065927Y-101782520D01*
X202037148Y-101252801D01*
X201889800Y-100897071D01*
X201799687Y-100873490D01*
X201799687Y-98836216D01*
X201799687Y-96296216D01*
X201635689Y-95899311D01*
X201474583Y-95737923D01*
X201474583Y-91094188D01*
X200720000Y-90339605D01*
X200540395Y-90519210D01*
X200540395Y-90160000D01*
X199785812Y-89405417D01*
X199550200Y-89467071D01*
X199374073Y-89967480D01*
X199402852Y-90497199D01*
X199550200Y-90852929D01*
X199785812Y-90914583D01*
X200540395Y-90160000D01*
X200540395Y-90519210D01*
X199965417Y-91094188D01*
X200027071Y-91329800D01*
X200527480Y-91505927D01*
X201057199Y-91477148D01*
X201412929Y-91329800D01*
X201474583Y-91094188D01*
X201474583Y-95737923D01*
X201332286Y-95595378D01*
X200935668Y-95430687D01*
X200506216Y-95430313D01*
X200109311Y-95594311D01*
X199805378Y-95897714D01*
X199640687Y-96294332D01*
X199640313Y-96723784D01*
X199804311Y-97120689D01*
X200107714Y-97424622D01*
X200504332Y-97589313D01*
X200933784Y-97589687D01*
X201330689Y-97425689D01*
X201634622Y-97122286D01*
X201799313Y-96725668D01*
X201799687Y-96296216D01*
X201799687Y-98836216D01*
X201635689Y-98439311D01*
X201332286Y-98135378D01*
X200935668Y-97970687D01*
X200506216Y-97970313D01*
X200109311Y-98134311D01*
X199805378Y-98437714D01*
X199640687Y-98834332D01*
X199640313Y-99263784D01*
X199804311Y-99660689D01*
X200107714Y-99964622D01*
X200504332Y-100129313D01*
X200933784Y-100129687D01*
X201330689Y-99965689D01*
X201634622Y-99662286D01*
X201799313Y-99265668D01*
X201799687Y-98836216D01*
X201799687Y-100873490D01*
X201654188Y-100835417D01*
X201474583Y-101015022D01*
X201474583Y-100655812D01*
X201412929Y-100420200D01*
X200912520Y-100244073D01*
X200382801Y-100272852D01*
X200027071Y-100420200D01*
X199965417Y-100655812D01*
X200720000Y-101410395D01*
X201474583Y-100655812D01*
X201474583Y-101015022D01*
X200899605Y-101590000D01*
X201654188Y-102344583D01*
X201889800Y-102282929D01*
X202065927Y-101782520D01*
X202065927Y-113212520D01*
X202037148Y-112682801D01*
X201889800Y-112327071D01*
X201799687Y-112303490D01*
X201799687Y-110266216D01*
X201799687Y-107726216D01*
X201635689Y-107329311D01*
X201474583Y-107167923D01*
X201474583Y-102524188D01*
X200720000Y-101769605D01*
X200540395Y-101949210D01*
X200540395Y-101590000D01*
X199785812Y-100835417D01*
X199550200Y-100897071D01*
X199374073Y-101397480D01*
X199402852Y-101927199D01*
X199550200Y-102282929D01*
X199785812Y-102344583D01*
X200540395Y-101590000D01*
X200540395Y-101949210D01*
X199965417Y-102524188D01*
X200027071Y-102759800D01*
X200527480Y-102935927D01*
X201057199Y-102907148D01*
X201412929Y-102759800D01*
X201474583Y-102524188D01*
X201474583Y-107167923D01*
X201332286Y-107025378D01*
X200935668Y-106860687D01*
X200506216Y-106860313D01*
X200109311Y-107024311D01*
X199805378Y-107327714D01*
X199640687Y-107724332D01*
X199640313Y-108153784D01*
X199804311Y-108550689D01*
X200107714Y-108854622D01*
X200504332Y-109019313D01*
X200933784Y-109019687D01*
X201330689Y-108855689D01*
X201634622Y-108552286D01*
X201799313Y-108155668D01*
X201799687Y-107726216D01*
X201799687Y-110266216D01*
X201635689Y-109869311D01*
X201332286Y-109565378D01*
X200935668Y-109400687D01*
X200506216Y-109400313D01*
X200109311Y-109564311D01*
X199805378Y-109867714D01*
X199640687Y-110264332D01*
X199640313Y-110693784D01*
X199804311Y-111090689D01*
X200107714Y-111394622D01*
X200504332Y-111559313D01*
X200933784Y-111559687D01*
X201330689Y-111395689D01*
X201634622Y-111092286D01*
X201799313Y-110695668D01*
X201799687Y-110266216D01*
X201799687Y-112303490D01*
X201654188Y-112265417D01*
X201474583Y-112445022D01*
X201474583Y-112085812D01*
X201412929Y-111850200D01*
X200912520Y-111674073D01*
X200382801Y-111702852D01*
X200027071Y-111850200D01*
X199965417Y-112085812D01*
X200720000Y-112840395D01*
X201474583Y-112085812D01*
X201474583Y-112445022D01*
X200899605Y-113020000D01*
X201654188Y-113774583D01*
X201889800Y-113712929D01*
X202065927Y-113212520D01*
X202065927Y-124642520D01*
X202037148Y-124112801D01*
X201889800Y-123757071D01*
X201799687Y-123733490D01*
X201799687Y-121696216D01*
X201799687Y-119156216D01*
X201635689Y-118759311D01*
X201474583Y-118597923D01*
X201474583Y-113954188D01*
X200720000Y-113199605D01*
X200540395Y-113379210D01*
X200540395Y-113020000D01*
X199785812Y-112265417D01*
X199550200Y-112327071D01*
X199374073Y-112827480D01*
X199402852Y-113357199D01*
X199550200Y-113712929D01*
X199785812Y-113774583D01*
X200540395Y-113020000D01*
X200540395Y-113379210D01*
X199965417Y-113954188D01*
X200027071Y-114189800D01*
X200527480Y-114365927D01*
X201057199Y-114337148D01*
X201412929Y-114189800D01*
X201474583Y-113954188D01*
X201474583Y-118597923D01*
X201332286Y-118455378D01*
X200935668Y-118290687D01*
X200506216Y-118290313D01*
X200109311Y-118454311D01*
X199805378Y-118757714D01*
X199640687Y-119154332D01*
X199640313Y-119583784D01*
X199804311Y-119980689D01*
X200107714Y-120284622D01*
X200504332Y-120449313D01*
X200933784Y-120449687D01*
X201330689Y-120285689D01*
X201634622Y-119982286D01*
X201799313Y-119585668D01*
X201799687Y-119156216D01*
X201799687Y-121696216D01*
X201635689Y-121299311D01*
X201332286Y-120995378D01*
X200935668Y-120830687D01*
X200506216Y-120830313D01*
X200109311Y-120994311D01*
X199805378Y-121297714D01*
X199640687Y-121694332D01*
X199640313Y-122123784D01*
X199804311Y-122520689D01*
X200107714Y-122824622D01*
X200504332Y-122989313D01*
X200933784Y-122989687D01*
X201330689Y-122825689D01*
X201634622Y-122522286D01*
X201799313Y-122125668D01*
X201799687Y-121696216D01*
X201799687Y-123733490D01*
X201654188Y-123695417D01*
X201474583Y-123875022D01*
X201474583Y-123515812D01*
X201412929Y-123280200D01*
X200912520Y-123104073D01*
X200382801Y-123132852D01*
X200027071Y-123280200D01*
X199965417Y-123515812D01*
X200720000Y-124270395D01*
X201474583Y-123515812D01*
X201474583Y-123875022D01*
X200899605Y-124450000D01*
X201654188Y-125204583D01*
X201889800Y-125142929D01*
X202065927Y-124642520D01*
X202065927Y-136072520D01*
X202037148Y-135542801D01*
X201889800Y-135187071D01*
X201799687Y-135163490D01*
X201799687Y-133126216D01*
X201799687Y-130586216D01*
X201635689Y-130189311D01*
X201474583Y-130027923D01*
X201474583Y-125384188D01*
X200720000Y-124629605D01*
X200540395Y-124809210D01*
X200540395Y-124450000D01*
X199785812Y-123695417D01*
X199550200Y-123757071D01*
X199374073Y-124257480D01*
X199402852Y-124787199D01*
X199550200Y-125142929D01*
X199785812Y-125204583D01*
X200540395Y-124450000D01*
X200540395Y-124809210D01*
X199965417Y-125384188D01*
X200027071Y-125619800D01*
X200527480Y-125795927D01*
X201057199Y-125767148D01*
X201412929Y-125619800D01*
X201474583Y-125384188D01*
X201474583Y-130027923D01*
X201332286Y-129885378D01*
X200935668Y-129720687D01*
X200506216Y-129720313D01*
X200109311Y-129884311D01*
X199805378Y-130187714D01*
X199640687Y-130584332D01*
X199640313Y-131013784D01*
X199804311Y-131410689D01*
X200107714Y-131714622D01*
X200504332Y-131879313D01*
X200933784Y-131879687D01*
X201330689Y-131715689D01*
X201634622Y-131412286D01*
X201799313Y-131015668D01*
X201799687Y-130586216D01*
X201799687Y-133126216D01*
X201635689Y-132729311D01*
X201332286Y-132425378D01*
X200935668Y-132260687D01*
X200506216Y-132260313D01*
X200109311Y-132424311D01*
X199805378Y-132727714D01*
X199640687Y-133124332D01*
X199640313Y-133553784D01*
X199804311Y-133950689D01*
X200107714Y-134254622D01*
X200504332Y-134419313D01*
X200933784Y-134419687D01*
X201330689Y-134255689D01*
X201634622Y-133952286D01*
X201799313Y-133555668D01*
X201799687Y-133126216D01*
X201799687Y-135163490D01*
X201654188Y-135125417D01*
X201474583Y-135305022D01*
X201474583Y-134945812D01*
X201412929Y-134710200D01*
X200912520Y-134534073D01*
X200382801Y-134562852D01*
X200027071Y-134710200D01*
X199965417Y-134945812D01*
X200720000Y-135700395D01*
X201474583Y-134945812D01*
X201474583Y-135305022D01*
X200899605Y-135880000D01*
X201654188Y-136634583D01*
X201889800Y-136572929D01*
X202065927Y-136072520D01*
X202065927Y-147502520D01*
X202037148Y-146972801D01*
X201889800Y-146617071D01*
X201799687Y-146593490D01*
X201799687Y-144556216D01*
X201799687Y-142016216D01*
X201635689Y-141619311D01*
X201474583Y-141457923D01*
X201474583Y-136814188D01*
X200720000Y-136059605D01*
X199965417Y-136814188D01*
X200027071Y-137049800D01*
X200527480Y-137225927D01*
X201057199Y-137197148D01*
X201412929Y-137049800D01*
X201474583Y-136814188D01*
X201474583Y-141457923D01*
X201332286Y-141315378D01*
X200935668Y-141150687D01*
X200506216Y-141150313D01*
X200109311Y-141314311D01*
X199805378Y-141617714D01*
X199640687Y-142014332D01*
X199640313Y-142443784D01*
X199804311Y-142840689D01*
X200107714Y-143144622D01*
X200504332Y-143309313D01*
X200933784Y-143309687D01*
X201330689Y-143145689D01*
X201634622Y-142842286D01*
X201799313Y-142445668D01*
X201799687Y-142016216D01*
X201799687Y-144556216D01*
X201635689Y-144159311D01*
X201332286Y-143855378D01*
X200935668Y-143690687D01*
X200506216Y-143690313D01*
X200109311Y-143854311D01*
X199805378Y-144157714D01*
X199640687Y-144554332D01*
X199640313Y-144983784D01*
X199804311Y-145380689D01*
X200107714Y-145684622D01*
X200504332Y-145849313D01*
X200933784Y-145849687D01*
X201330689Y-145685689D01*
X201634622Y-145382286D01*
X201799313Y-144985668D01*
X201799687Y-144556216D01*
X201799687Y-146593490D01*
X201654188Y-146555417D01*
X201474583Y-146735022D01*
X201474583Y-146375812D01*
X201412929Y-146140200D01*
X200912520Y-145964073D01*
X200382801Y-145992852D01*
X200027071Y-146140200D01*
X199965417Y-146375812D01*
X200720000Y-147130395D01*
X201474583Y-146375812D01*
X201474583Y-146735022D01*
X200899605Y-147310000D01*
X201654188Y-148064583D01*
X201889800Y-148002929D01*
X202065927Y-147502520D01*
X202065927Y-158932520D01*
X202037148Y-158402801D01*
X201889800Y-158047071D01*
X201799687Y-158023490D01*
X201799687Y-155986216D01*
X201799687Y-153446216D01*
X201635689Y-153049311D01*
X201474583Y-152887923D01*
X201474583Y-148244188D01*
X200720000Y-147489605D01*
X199965417Y-148244188D01*
X200027071Y-148479800D01*
X200527480Y-148655927D01*
X201057199Y-148627148D01*
X201412929Y-148479800D01*
X201474583Y-148244188D01*
X201474583Y-152887923D01*
X201332286Y-152745378D01*
X200935668Y-152580687D01*
X200506216Y-152580313D01*
X200109311Y-152744311D01*
X199805378Y-153047714D01*
X199640687Y-153444332D01*
X199640313Y-153873784D01*
X199804311Y-154270689D01*
X200107714Y-154574622D01*
X200504332Y-154739313D01*
X200933784Y-154739687D01*
X201330689Y-154575689D01*
X201634622Y-154272286D01*
X201799313Y-153875668D01*
X201799687Y-153446216D01*
X201799687Y-155986216D01*
X201635689Y-155589311D01*
X201332286Y-155285378D01*
X200935668Y-155120687D01*
X200506216Y-155120313D01*
X200109311Y-155284311D01*
X199805378Y-155587714D01*
X199640687Y-155984332D01*
X199640313Y-156413784D01*
X199804311Y-156810689D01*
X200107714Y-157114622D01*
X200504332Y-157279313D01*
X200933784Y-157279687D01*
X201330689Y-157115689D01*
X201634622Y-156812286D01*
X201799313Y-156415668D01*
X201799687Y-155986216D01*
X201799687Y-158023490D01*
X201654188Y-157985417D01*
X201474583Y-158165022D01*
X201474583Y-157805812D01*
X201412929Y-157570200D01*
X200912520Y-157394073D01*
X200382801Y-157422852D01*
X200027071Y-157570200D01*
X199965417Y-157805812D01*
X200720000Y-158560395D01*
X201474583Y-157805812D01*
X201474583Y-158165022D01*
X200899605Y-158740000D01*
X201654188Y-159494583D01*
X201889800Y-159432929D01*
X202065927Y-158932520D01*
X202065927Y-170362520D01*
X202037148Y-169832801D01*
X201889800Y-169477071D01*
X201799687Y-169453490D01*
X201799687Y-167416216D01*
X201799687Y-164876216D01*
X201635689Y-164479311D01*
X201474583Y-164317923D01*
X201474583Y-159674188D01*
X200720000Y-158919605D01*
X199965417Y-159674188D01*
X200027071Y-159909800D01*
X200527480Y-160085927D01*
X201057199Y-160057148D01*
X201412929Y-159909800D01*
X201474583Y-159674188D01*
X201474583Y-164317923D01*
X201332286Y-164175378D01*
X200935668Y-164010687D01*
X200506216Y-164010313D01*
X200109311Y-164174311D01*
X199805378Y-164477714D01*
X199640687Y-164874332D01*
X199640313Y-165303784D01*
X199804311Y-165700689D01*
X200107714Y-166004622D01*
X200504332Y-166169313D01*
X200933784Y-166169687D01*
X201330689Y-166005689D01*
X201634622Y-165702286D01*
X201799313Y-165305668D01*
X201799687Y-164876216D01*
X201799687Y-167416216D01*
X201635689Y-167019311D01*
X201332286Y-166715378D01*
X200935668Y-166550687D01*
X200506216Y-166550313D01*
X200109311Y-166714311D01*
X199805378Y-167017714D01*
X199640687Y-167414332D01*
X199640313Y-167843784D01*
X199804311Y-168240689D01*
X200107714Y-168544622D01*
X200504332Y-168709313D01*
X200933784Y-168709687D01*
X201330689Y-168545689D01*
X201634622Y-168242286D01*
X201799313Y-167845668D01*
X201799687Y-167416216D01*
X201799687Y-169453490D01*
X201654188Y-169415417D01*
X201474583Y-169595022D01*
X201474583Y-169235812D01*
X201412929Y-169000200D01*
X200912520Y-168824073D01*
X200382801Y-168852852D01*
X200027071Y-169000200D01*
X199965417Y-169235812D01*
X200720000Y-169990395D01*
X201474583Y-169235812D01*
X201474583Y-169595022D01*
X200899605Y-170170000D01*
X201654188Y-170924583D01*
X201889800Y-170862929D01*
X202065927Y-170362520D01*
X202065927Y-174569000D01*
X201474583Y-174569000D01*
X201474583Y-171104188D01*
X200720000Y-170349605D01*
X199965417Y-171104188D01*
X200027071Y-171339800D01*
X200527480Y-171515927D01*
X201057199Y-171487148D01*
X201412929Y-171339800D01*
X201474583Y-171104188D01*
X201474583Y-174569000D01*
X199515748Y-174569000D01*
X199504815Y-170753361D01*
X199550200Y-170862929D01*
X199785812Y-170924583D01*
X200540395Y-170170000D01*
X199785812Y-169415417D01*
X199550200Y-169477071D01*
X199501554Y-169615281D01*
X199471836Y-159243742D01*
X199550200Y-159432929D01*
X199785812Y-159494583D01*
X200540395Y-158740000D01*
X199785812Y-157985417D01*
X199550200Y-158047071D01*
X199469068Y-158277580D01*
X199438857Y-147734124D01*
X199550200Y-148002929D01*
X199785812Y-148064583D01*
X200540395Y-147310000D01*
X199785812Y-146555417D01*
X199550200Y-146617071D01*
X199436581Y-146939880D01*
X199405878Y-136224506D01*
X199550200Y-136572929D01*
X199785812Y-136634583D01*
X200540395Y-135880000D01*
X199785812Y-135125417D01*
X199550200Y-135187071D01*
X199404095Y-135602180D01*
X199263365Y-86487371D01*
X216721835Y-86538170D01*
X216721802Y-86576359D01*
X216895446Y-86996612D01*
X217216697Y-87318423D01*
X217636646Y-87492801D01*
X218091359Y-87493198D01*
X218511612Y-87319554D01*
X218833423Y-86998303D01*
X219007801Y-86578354D01*
X219007830Y-86544821D01*
X228024806Y-86571058D01*
X228024780Y-86601510D01*
X228217718Y-87068458D01*
X228574663Y-87426026D01*
X228596500Y-87435093D01*
X228596500Y-97057066D01*
X228491717Y-96952283D01*
X228223906Y-96773337D01*
X227908000Y-96710500D01*
X227193901Y-96710500D01*
X227190370Y-96692301D01*
X227078539Y-96522058D01*
X226909712Y-96408099D01*
X226710000Y-96368048D01*
X226118983Y-96368048D01*
X226118983Y-90160000D01*
X226024243Y-89683712D01*
X225754448Y-89279935D01*
X225350671Y-89010140D01*
X224874383Y-88915400D01*
X224825617Y-88915400D01*
X224349329Y-89010140D01*
X223945552Y-89279935D01*
X223675757Y-89683712D01*
X223581017Y-90160000D01*
X223675757Y-90636288D01*
X223945552Y-91040065D01*
X224349329Y-91309860D01*
X224825617Y-91404600D01*
X224874383Y-91404600D01*
X225350671Y-91309860D01*
X225754448Y-91040065D01*
X226024243Y-90636288D01*
X226118983Y-90160000D01*
X226118983Y-96368048D01*
X226102064Y-96368048D01*
X226102064Y-93563600D01*
X226102064Y-91836400D01*
X226073878Y-91691126D01*
X225990004Y-91563444D01*
X225863384Y-91477974D01*
X225713600Y-91447936D01*
X223986400Y-91447936D01*
X223841126Y-91476122D01*
X223713444Y-91559996D01*
X223627974Y-91686616D01*
X223597936Y-91836400D01*
X223597936Y-93563600D01*
X223626122Y-93708874D01*
X223709996Y-93836556D01*
X223836616Y-93922026D01*
X223986400Y-93952064D01*
X225713600Y-93952064D01*
X225858874Y-93923878D01*
X225986556Y-93840004D01*
X226072026Y-93713384D01*
X226102064Y-93563600D01*
X226102064Y-96368048D01*
X225410000Y-96368048D01*
X225216301Y-96405630D01*
X225046058Y-96517461D01*
X224932099Y-96686288D01*
X224892048Y-96886000D01*
X224892048Y-98186000D01*
X224929630Y-98379699D01*
X225041461Y-98549942D01*
X225210288Y-98663901D01*
X225410000Y-98703952D01*
X226710000Y-98703952D01*
X226903699Y-98666370D01*
X227073942Y-98554539D01*
X227187901Y-98385712D01*
X227192756Y-98361500D01*
X227566066Y-98361500D01*
X228487737Y-99283170D01*
X228614039Y-99588843D01*
X228881747Y-99857020D01*
X229231705Y-100002335D01*
X229610633Y-100002665D01*
X229960843Y-99857961D01*
X230229020Y-99590253D01*
X230374335Y-99240295D01*
X230374665Y-98861367D01*
X230247500Y-98553604D01*
X230247500Y-87193647D01*
X230371026Y-87070337D01*
X230564779Y-86603727D01*
X230564801Y-86578449D01*
X238601972Y-86601835D01*
X238601565Y-87068919D01*
X239421554Y-89053444D01*
X240938570Y-90573109D01*
X242921661Y-91396561D01*
X245068919Y-91398435D01*
X247053444Y-90578446D01*
X248573109Y-89061430D01*
X249396561Y-87078339D01*
X249396949Y-86633245D01*
X249569000Y-86633746D01*
X249569000Y-168957547D01*
X249569000Y-168957547D01*
G37*
X249569000Y-168957547D02*
X249396783Y-169823339D01*
X249398435Y-167931081D01*
X248578446Y-165946556D01*
X247061430Y-164426891D01*
X245759975Y-163886479D01*
X245759975Y-148962944D01*
X245759975Y-148197056D01*
X245560385Y-147715182D01*
X245288112Y-147421547D01*
X245315274Y-147416278D01*
X245442956Y-147332404D01*
X245528426Y-147205784D01*
X245558464Y-147056000D01*
X245558464Y-145024000D01*
X245530278Y-144878726D01*
X245446404Y-144751044D01*
X245319784Y-144665574D01*
X245309144Y-144663440D01*
X245309144Y-96717698D01*
X245281362Y-96162632D01*
X245122397Y-95778857D01*
X244880213Y-95709392D01*
X244700608Y-95888997D01*
X244700608Y-95529787D01*
X244631143Y-95287603D01*
X244107698Y-95100856D01*
X243552632Y-95128638D01*
X243168857Y-95287603D01*
X243099392Y-95529787D01*
X243900000Y-96330395D01*
X244700608Y-95529787D01*
X244700608Y-95888997D01*
X244079605Y-96510000D01*
X244880213Y-97310608D01*
X245122397Y-97241143D01*
X245309144Y-96717698D01*
X245309144Y-144663440D01*
X245297000Y-144661004D01*
X245297000Y-126608309D01*
X245297000Y-126005750D01*
X245297000Y-125434250D01*
X245297000Y-124831691D01*
X245297000Y-102478309D01*
X245297000Y-101875750D01*
X245297000Y-101304250D01*
X245297000Y-100701691D01*
X245200327Y-100468302D01*
X245021699Y-100289673D01*
X244788310Y-100193000D01*
X244535691Y-100193000D01*
X244459407Y-100193000D01*
X244618458Y-100127282D01*
X244976026Y-99770337D01*
X245169779Y-99303727D01*
X245170220Y-98798490D01*
X244977282Y-98331542D01*
X244620337Y-97973974D01*
X244334483Y-97855277D01*
X244631143Y-97732397D01*
X244700608Y-97490213D01*
X243900000Y-96689605D01*
X243720395Y-96869210D01*
X243720395Y-96510000D01*
X242919787Y-95709392D01*
X242677603Y-95778857D01*
X242490856Y-96302302D01*
X242518638Y-96857368D01*
X242677603Y-97241143D01*
X242919787Y-97310608D01*
X243720395Y-96510000D01*
X243720395Y-96869210D01*
X243099392Y-97490213D01*
X243168857Y-97732397D01*
X243487787Y-97846180D01*
X243181542Y-97972718D01*
X242823974Y-98329663D01*
X242630221Y-98796273D01*
X242629780Y-99301510D01*
X242822718Y-99768458D01*
X243179663Y-100126026D01*
X243340954Y-100193000D01*
X243264309Y-100193000D01*
X243011690Y-100193000D01*
X242778301Y-100289673D01*
X242599673Y-100468302D01*
X242503000Y-100701691D01*
X242503000Y-101304250D01*
X242661750Y-101463000D01*
X243773000Y-101463000D01*
X243773000Y-101443000D01*
X244027000Y-101443000D01*
X244027000Y-101463000D01*
X245138250Y-101463000D01*
X245297000Y-101304250D01*
X245297000Y-101875750D01*
X245138250Y-101717000D01*
X244027000Y-101717000D01*
X244027000Y-102828250D01*
X244185750Y-102987000D01*
X244535691Y-102987000D01*
X244788310Y-102987000D01*
X245021699Y-102890327D01*
X245200327Y-102711698D01*
X245297000Y-102478309D01*
X245297000Y-124831691D01*
X245200327Y-124598302D01*
X245021699Y-124419673D01*
X244788310Y-124323000D01*
X244535691Y-124323000D01*
X244459407Y-124323000D01*
X244618458Y-124257282D01*
X244976026Y-123900337D01*
X245169779Y-123433727D01*
X245170220Y-122928490D01*
X245043198Y-122621071D01*
X245043198Y-120413641D01*
X245043198Y-117873641D01*
X244869554Y-117453388D01*
X244548303Y-117131577D01*
X244128354Y-116957199D01*
X243773000Y-116956888D01*
X243773000Y-102828250D01*
X243773000Y-101717000D01*
X242661750Y-101717000D01*
X242503000Y-101875750D01*
X242503000Y-102478309D01*
X242599673Y-102711698D01*
X242778301Y-102890327D01*
X243011690Y-102987000D01*
X243264309Y-102987000D01*
X243614250Y-102987000D01*
X243773000Y-102828250D01*
X243773000Y-116956888D01*
X243673641Y-116956802D01*
X243253388Y-117130446D01*
X242931577Y-117451697D01*
X242757199Y-117871646D01*
X242756802Y-118326359D01*
X242930446Y-118746612D01*
X243251697Y-119068423D01*
X243671646Y-119242801D01*
X244126359Y-119243198D01*
X244546612Y-119069554D01*
X244868423Y-118748303D01*
X245042801Y-118328354D01*
X245043198Y-117873641D01*
X245043198Y-120413641D01*
X244869554Y-119993388D01*
X244548303Y-119671577D01*
X244128354Y-119497199D01*
X243673641Y-119496802D01*
X243253388Y-119670446D01*
X242931577Y-119991697D01*
X242757199Y-120411646D01*
X242756802Y-120866359D01*
X242930446Y-121286612D01*
X243251697Y-121608423D01*
X243671646Y-121782801D01*
X244126359Y-121783198D01*
X244546612Y-121609554D01*
X244868423Y-121288303D01*
X245042801Y-120868354D01*
X245043198Y-120413641D01*
X245043198Y-122621071D01*
X244977282Y-122461542D01*
X244620337Y-122103974D01*
X244153727Y-121910221D01*
X243648490Y-121909780D01*
X243181542Y-122102718D01*
X242823974Y-122459663D01*
X242630221Y-122926273D01*
X242629780Y-123431510D01*
X242822718Y-123898458D01*
X243179663Y-124256026D01*
X243340954Y-124323000D01*
X243264309Y-124323000D01*
X243011690Y-124323000D01*
X242778301Y-124419673D01*
X242599673Y-124598302D01*
X242503000Y-124831691D01*
X242503000Y-125434250D01*
X242661750Y-125593000D01*
X243773000Y-125593000D01*
X243773000Y-125573000D01*
X244027000Y-125573000D01*
X244027000Y-125593000D01*
X245138250Y-125593000D01*
X245297000Y-125434250D01*
X245297000Y-126005750D01*
X245138250Y-125847000D01*
X244027000Y-125847000D01*
X244027000Y-126958250D01*
X244185750Y-127117000D01*
X244535691Y-127117000D01*
X244788310Y-127117000D01*
X245021699Y-127020327D01*
X245200327Y-126841698D01*
X245297000Y-126608309D01*
X245297000Y-144661004D01*
X245249144Y-144651407D01*
X245249144Y-136732698D01*
X245249144Y-134192698D01*
X245221362Y-133637632D01*
X245062397Y-133253857D01*
X244820213Y-133184392D01*
X244640608Y-133363997D01*
X244640608Y-133004787D01*
X244571143Y-132762603D01*
X244047698Y-132575856D01*
X243773000Y-132589605D01*
X243773000Y-126958250D01*
X243773000Y-125847000D01*
X242661750Y-125847000D01*
X242503000Y-126005750D01*
X242503000Y-126608309D01*
X242599673Y-126841698D01*
X242778301Y-127020327D01*
X243011690Y-127117000D01*
X243264309Y-127117000D01*
X243614250Y-127117000D01*
X243773000Y-126958250D01*
X243773000Y-132589605D01*
X243492632Y-132603638D01*
X243108857Y-132762603D01*
X243039392Y-133004787D01*
X243840000Y-133805395D01*
X244640608Y-133004787D01*
X244640608Y-133363997D01*
X244019605Y-133985000D01*
X244820213Y-134785608D01*
X245062397Y-134716143D01*
X245249144Y-134192698D01*
X245249144Y-136732698D01*
X245221362Y-136177632D01*
X245062397Y-135793857D01*
X244820213Y-135724392D01*
X244640608Y-135903997D01*
X244640608Y-135544787D01*
X244571143Y-135302603D01*
X244447655Y-135258547D01*
X244571143Y-135207397D01*
X244640608Y-134965213D01*
X243840000Y-134164605D01*
X243660395Y-134344210D01*
X243660395Y-133985000D01*
X242859787Y-133184392D01*
X242617603Y-133253857D01*
X242440147Y-133751258D01*
X242269554Y-133338388D01*
X241948303Y-133016577D01*
X241528354Y-132842199D01*
X241073641Y-132841802D01*
X240653388Y-133015446D01*
X240534665Y-133133962D01*
X240534665Y-114101367D01*
X240407500Y-113793604D01*
X240407500Y-99545748D01*
X240534335Y-99240295D01*
X240534665Y-98861367D01*
X240389961Y-98511157D01*
X240122253Y-98242980D01*
X239772295Y-98097665D01*
X239393367Y-98097335D01*
X239043157Y-98242039D01*
X238774980Y-98509747D01*
X238629665Y-98859705D01*
X238629335Y-99238633D01*
X238756500Y-99546395D01*
X238756500Y-113794251D01*
X238629665Y-114099705D01*
X238629335Y-114478633D01*
X238774039Y-114828843D01*
X239041747Y-115097020D01*
X239391705Y-115242335D01*
X239770633Y-115242665D01*
X240120843Y-115097961D01*
X240389020Y-114830253D01*
X240534335Y-114480295D01*
X240534665Y-114101367D01*
X240534665Y-133133962D01*
X240331577Y-133336697D01*
X240217000Y-133612629D01*
X240217000Y-126608309D01*
X240217000Y-126005750D01*
X240217000Y-125434250D01*
X240217000Y-124831691D01*
X240120327Y-124598302D01*
X239941699Y-124419673D01*
X239708310Y-124323000D01*
X239455691Y-124323000D01*
X239379407Y-124323000D01*
X239538458Y-124257282D01*
X239896026Y-123900337D01*
X240089779Y-123433727D01*
X240090220Y-122928490D01*
X239963198Y-122621071D01*
X239963198Y-120413641D01*
X239963198Y-117873641D01*
X239789554Y-117453388D01*
X239468303Y-117131577D01*
X239328000Y-117073318D01*
X239328000Y-115630000D01*
X239289331Y-115435597D01*
X239179211Y-115270790D01*
X237490000Y-113581579D01*
X237490000Y-112673302D01*
X237681417Y-112482219D01*
X237807357Y-112178923D01*
X237807643Y-111850518D01*
X237682233Y-111547002D01*
X237450219Y-111314583D01*
X237359643Y-111276972D01*
X237359643Y-92536518D01*
X237234233Y-92233002D01*
X237002219Y-92000583D01*
X236698923Y-91874643D01*
X236370518Y-91874357D01*
X236067002Y-91999767D01*
X235834583Y-92231781D01*
X235708643Y-92535077D01*
X235708357Y-92863482D01*
X235833767Y-93166998D01*
X236026000Y-93359566D01*
X236026000Y-107913758D01*
X235835643Y-107992411D01*
X235835643Y-105998518D01*
X235710233Y-105695002D01*
X235518000Y-105502433D01*
X235518000Y-91581302D01*
X235709417Y-91390219D01*
X235835357Y-91086923D01*
X235835643Y-90758518D01*
X235710233Y-90455002D01*
X235478219Y-90222583D01*
X235174923Y-90096643D01*
X234846518Y-90096357D01*
X234543002Y-90221767D01*
X234310583Y-90453781D01*
X234184643Y-90757077D01*
X234184357Y-91085482D01*
X234309767Y-91388998D01*
X234502000Y-91581566D01*
X234502000Y-105502697D01*
X234310583Y-105693781D01*
X234184643Y-105997077D01*
X234184357Y-106325482D01*
X234309767Y-106628998D01*
X234541781Y-106861417D01*
X234845077Y-106987357D01*
X235173482Y-106987643D01*
X235476998Y-106862233D01*
X235709417Y-106630219D01*
X235835357Y-106326923D01*
X235835643Y-105998518D01*
X235835643Y-107992411D01*
X235813002Y-108001767D01*
X235580583Y-108233781D01*
X235454643Y-108537077D01*
X235454357Y-108865482D01*
X235579767Y-109168998D01*
X235811781Y-109401417D01*
X236115077Y-109527357D01*
X236443482Y-109527643D01*
X236746998Y-109402233D01*
X236979417Y-109170219D01*
X237105357Y-108866923D01*
X237105643Y-108538518D01*
X237042000Y-108384489D01*
X237042000Y-93359302D01*
X237233417Y-93168219D01*
X237359357Y-92864923D01*
X237359643Y-92536518D01*
X237359643Y-111276972D01*
X237146923Y-111188643D01*
X236818518Y-111188357D01*
X236515002Y-111313767D01*
X236282583Y-111545781D01*
X236156643Y-111849077D01*
X236156357Y-112177482D01*
X236281767Y-112480998D01*
X236474000Y-112673566D01*
X236474000Y-113792000D01*
X236512669Y-113986403D01*
X236622790Y-114151210D01*
X238312000Y-115840420D01*
X238312000Y-117073173D01*
X238173388Y-117130446D01*
X237851577Y-117451697D01*
X237677199Y-117871646D01*
X237676802Y-118326359D01*
X237850446Y-118746612D01*
X238171697Y-119068423D01*
X238591646Y-119242801D01*
X239046359Y-119243198D01*
X239466612Y-119069554D01*
X239788423Y-118748303D01*
X239962801Y-118328354D01*
X239963198Y-117873641D01*
X239963198Y-120413641D01*
X239789554Y-119993388D01*
X239468303Y-119671577D01*
X239048354Y-119497199D01*
X238593641Y-119496802D01*
X238173388Y-119670446D01*
X237851577Y-119991697D01*
X237677199Y-120411646D01*
X237676802Y-120866359D01*
X237850446Y-121286612D01*
X238171697Y-121608423D01*
X238591646Y-121782801D01*
X239046359Y-121783198D01*
X239466612Y-121609554D01*
X239788423Y-121288303D01*
X239962801Y-120868354D01*
X239963198Y-120413641D01*
X239963198Y-122621071D01*
X239897282Y-122461542D01*
X239540337Y-122103974D01*
X239073727Y-121910221D01*
X238568490Y-121909780D01*
X238101542Y-122102718D01*
X237743974Y-122459663D01*
X237550221Y-122926273D01*
X237549780Y-123431510D01*
X237742718Y-123898458D01*
X238099663Y-124256026D01*
X238260954Y-124323000D01*
X238184309Y-124323000D01*
X237931690Y-124323000D01*
X237698301Y-124419673D01*
X237519673Y-124598302D01*
X237423000Y-124831691D01*
X237423000Y-125434250D01*
X237581750Y-125593000D01*
X238693000Y-125593000D01*
X238693000Y-125573000D01*
X238947000Y-125573000D01*
X238947000Y-125593000D01*
X240058250Y-125593000D01*
X240217000Y-125434250D01*
X240217000Y-126005750D01*
X240058250Y-125847000D01*
X238947000Y-125847000D01*
X238947000Y-126958250D01*
X239105750Y-127117000D01*
X239455691Y-127117000D01*
X239708310Y-127117000D01*
X239941699Y-127020327D01*
X240120327Y-126841698D01*
X240217000Y-126608309D01*
X240217000Y-133612629D01*
X240157199Y-133756646D01*
X240156802Y-134211359D01*
X240330446Y-134631612D01*
X240651697Y-134953423D01*
X241071646Y-135127801D01*
X241526359Y-135128198D01*
X241946612Y-134954554D01*
X242268423Y-134633303D01*
X242442801Y-134213354D01*
X242442970Y-134019339D01*
X242458638Y-134332368D01*
X242617603Y-134716143D01*
X242859787Y-134785608D01*
X243660395Y-133985000D01*
X243660395Y-134344210D01*
X243039392Y-134965213D01*
X243108857Y-135207397D01*
X243232344Y-135251452D01*
X243108857Y-135302603D01*
X243039392Y-135544787D01*
X243840000Y-136345395D01*
X244640608Y-135544787D01*
X244640608Y-135903997D01*
X244019605Y-136525000D01*
X244820213Y-137325608D01*
X245062397Y-137256143D01*
X245249144Y-136732698D01*
X245249144Y-144651407D01*
X245237000Y-144648972D01*
X245237000Y-139953309D01*
X245237000Y-139350750D01*
X245237000Y-138779250D01*
X245237000Y-138176691D01*
X245140327Y-137943302D01*
X244961699Y-137764673D01*
X244728310Y-137668000D01*
X244593916Y-137668000D01*
X244640608Y-137505213D01*
X243840000Y-136704605D01*
X243660395Y-136884210D01*
X243660395Y-136525000D01*
X242859787Y-135724392D01*
X242617603Y-135793857D01*
X242440147Y-136291258D01*
X242269554Y-135878388D01*
X241948303Y-135556577D01*
X241528354Y-135382199D01*
X241073641Y-135381802D01*
X240653388Y-135555446D01*
X240331577Y-135876697D01*
X240157199Y-136296646D01*
X240156802Y-136751359D01*
X240330446Y-137171612D01*
X240651697Y-137493423D01*
X241071646Y-137667801D01*
X241526359Y-137668198D01*
X241946612Y-137494554D01*
X242268423Y-137173303D01*
X242442801Y-136753354D01*
X242442970Y-136559339D01*
X242458638Y-136872368D01*
X242617603Y-137256143D01*
X242859787Y-137325608D01*
X243660395Y-136525000D01*
X243660395Y-136884210D01*
X243039392Y-137505213D01*
X243086083Y-137668000D01*
X242951690Y-137668000D01*
X242718301Y-137764673D01*
X242539673Y-137943302D01*
X242443000Y-138176691D01*
X242443000Y-138779250D01*
X242601748Y-138937998D01*
X242443198Y-138937998D01*
X242443111Y-138937998D01*
X242443198Y-138838641D01*
X242269554Y-138418388D01*
X241948303Y-138096577D01*
X241528354Y-137922199D01*
X241073641Y-137921802D01*
X240653388Y-138095446D01*
X240331577Y-138416697D01*
X240157199Y-138836646D01*
X240156802Y-139291359D01*
X240330446Y-139711612D01*
X240651697Y-140033423D01*
X241071646Y-140207801D01*
X241526359Y-140208198D01*
X241946612Y-140034554D01*
X242268423Y-139713303D01*
X242442801Y-139293354D01*
X242443000Y-139065424D01*
X242443000Y-139192002D01*
X242443198Y-139192002D01*
X242601748Y-139192002D01*
X242443198Y-139350552D01*
X242443000Y-139350750D01*
X242443000Y-139953309D01*
X242539673Y-140186698D01*
X242718301Y-140365327D01*
X242951690Y-140462000D01*
X243204309Y-140462000D01*
X243554250Y-140462000D01*
X243713000Y-140303250D01*
X243713000Y-139192000D01*
X243693000Y-139192000D01*
X243693000Y-138938000D01*
X243713000Y-138938000D01*
X243713000Y-138918000D01*
X243967000Y-138918000D01*
X243967000Y-138938000D01*
X245078250Y-138938000D01*
X245237000Y-138779250D01*
X245237000Y-139350750D01*
X245078250Y-139192000D01*
X243967000Y-139192000D01*
X243967000Y-140303250D01*
X244125750Y-140462000D01*
X244475691Y-140462000D01*
X244728310Y-140462000D01*
X244961699Y-140365327D01*
X245140327Y-140186698D01*
X245237000Y-139953309D01*
X245237000Y-144648972D01*
X245170000Y-144635536D01*
X243713000Y-144635536D01*
X243138000Y-144635536D01*
X242992726Y-144663722D01*
X242865044Y-144747596D01*
X242779574Y-144874216D01*
X242749536Y-145024000D01*
X242749536Y-147056000D01*
X242777722Y-147201274D01*
X242861596Y-147328956D01*
X242988216Y-147414426D01*
X243020490Y-147420898D01*
X242747615Y-147715182D01*
X242548025Y-148197056D01*
X242667164Y-148453000D01*
X244027000Y-148453000D01*
X244027000Y-148433000D01*
X244281000Y-148433000D01*
X244281000Y-148453000D01*
X245640836Y-148453000D01*
X245759975Y-148197056D01*
X245759975Y-148962944D01*
X245640836Y-148707000D01*
X244281000Y-148707000D01*
X244281000Y-150067367D01*
X244536946Y-150185983D01*
X245122379Y-149917188D01*
X245560385Y-149444818D01*
X245759975Y-148962944D01*
X245759975Y-163886479D01*
X245309144Y-163699277D01*
X245309144Y-153867698D01*
X245281362Y-153312632D01*
X245122397Y-152928857D01*
X244880213Y-152859392D01*
X244700608Y-153038997D01*
X244700608Y-152679787D01*
X244631143Y-152437603D01*
X244107698Y-152250856D01*
X244027000Y-152254895D01*
X244027000Y-150067367D01*
X244027000Y-148707000D01*
X242667164Y-148707000D01*
X242548025Y-148962944D01*
X242747615Y-149444818D01*
X243185621Y-149917188D01*
X243771054Y-150185983D01*
X244027000Y-150067367D01*
X244027000Y-152254895D01*
X243552632Y-152278638D01*
X243168857Y-152437603D01*
X243099392Y-152679787D01*
X243900000Y-153480395D01*
X244700608Y-152679787D01*
X244700608Y-153038997D01*
X244079605Y-153660000D01*
X244880213Y-154460608D01*
X245122397Y-154391143D01*
X245309144Y-153867698D01*
X245309144Y-163699277D01*
X245297000Y-163694235D01*
X245297000Y-159628309D01*
X245297000Y-159025750D01*
X245297000Y-158454250D01*
X245297000Y-157851691D01*
X245200327Y-157618302D01*
X245043198Y-157461172D01*
X245021699Y-157439673D01*
X244788310Y-157343000D01*
X244535691Y-157343000D01*
X244185750Y-157343000D01*
X244027002Y-157501748D01*
X244027002Y-157343111D01*
X244126359Y-157343198D01*
X244546612Y-157169554D01*
X244868423Y-156848303D01*
X245042801Y-156428354D01*
X245043198Y-155973641D01*
X244869554Y-155553388D01*
X244548303Y-155231577D01*
X244128354Y-155057199D01*
X243934339Y-155057029D01*
X244247368Y-155041362D01*
X244631143Y-154882397D01*
X244700608Y-154640213D01*
X243900000Y-153839605D01*
X243720395Y-154019210D01*
X243720395Y-153660000D01*
X242919787Y-152859392D01*
X242677603Y-152928857D01*
X242490856Y-153452302D01*
X242518638Y-154007368D01*
X242677603Y-154391143D01*
X242919787Y-154460608D01*
X243720395Y-153660000D01*
X243720395Y-154019210D01*
X243099392Y-154640213D01*
X243168857Y-154882397D01*
X243666258Y-155059852D01*
X243253388Y-155230446D01*
X242931577Y-155551697D01*
X242757199Y-155971646D01*
X242756802Y-156426359D01*
X242930446Y-156846612D01*
X243251697Y-157168423D01*
X243671646Y-157342801D01*
X243899575Y-157343000D01*
X243772998Y-157343000D01*
X243772998Y-157501748D01*
X243614250Y-157343000D01*
X243264309Y-157343000D01*
X243011690Y-157343000D01*
X242778301Y-157439673D01*
X242599673Y-157618302D01*
X242503000Y-157851691D01*
X242503000Y-158454250D01*
X242661750Y-158613000D01*
X243773000Y-158613000D01*
X243773000Y-158593000D01*
X244027000Y-158593000D01*
X244027000Y-158613000D01*
X245138250Y-158613000D01*
X245297000Y-158454250D01*
X245297000Y-159025750D01*
X245138250Y-158867000D01*
X244027000Y-158867000D01*
X244027000Y-159978250D01*
X244185750Y-160137000D01*
X244535691Y-160137000D01*
X244788310Y-160137000D01*
X245021699Y-160040327D01*
X245200327Y-159861698D01*
X245297000Y-159628309D01*
X245297000Y-163694235D01*
X245078339Y-163603439D01*
X243773000Y-163602299D01*
X243773000Y-159978250D01*
X243773000Y-158867000D01*
X242661750Y-158867000D01*
X242503000Y-159025750D01*
X242503000Y-159628309D01*
X242599673Y-159861698D01*
X242778301Y-160040327D01*
X243011690Y-160137000D01*
X243264309Y-160137000D01*
X243614250Y-160137000D01*
X243773000Y-159978250D01*
X243773000Y-163602299D01*
X242931081Y-163601565D01*
X240946556Y-164421554D01*
X239426891Y-165938570D01*
X238693000Y-167705974D01*
X238693000Y-126958250D01*
X238693000Y-125847000D01*
X237581750Y-125847000D01*
X237423000Y-126005750D01*
X237423000Y-126608309D01*
X237519673Y-126841698D01*
X237698301Y-127020327D01*
X237931690Y-127117000D01*
X238184309Y-127117000D01*
X238534250Y-127117000D01*
X238693000Y-126958250D01*
X238693000Y-167705974D01*
X238603439Y-167921661D01*
X238601565Y-170068919D01*
X239421554Y-172053444D01*
X240938570Y-173573109D01*
X242921661Y-174396561D01*
X244330717Y-174397790D01*
X244190897Y-174522584D01*
X243957552Y-174569000D01*
X236597643Y-174569000D01*
X236597643Y-134192518D01*
X236472233Y-133889002D01*
X236280000Y-133696433D01*
X236280000Y-133086000D01*
X236280000Y-128514000D01*
X236280000Y-125109302D01*
X236471417Y-124918219D01*
X236597357Y-124614923D01*
X236597643Y-124286518D01*
X236472233Y-123983002D01*
X236240219Y-123750583D01*
X235936923Y-123624643D01*
X235608518Y-123624357D01*
X235305002Y-123749767D01*
X235072583Y-123981781D01*
X234946643Y-124285077D01*
X234946357Y-124613482D01*
X235071767Y-124916998D01*
X235264000Y-125109566D01*
X235264000Y-128514000D01*
X235264000Y-128958489D01*
X235202233Y-128809002D01*
X234970219Y-128576583D01*
X234666923Y-128450643D01*
X234338518Y-128450357D01*
X234035002Y-128575767D01*
X233802583Y-128807781D01*
X233740000Y-128958497D01*
X233740000Y-127649302D01*
X233931417Y-127458219D01*
X234057357Y-127154923D01*
X234057643Y-126826518D01*
X233932233Y-126523002D01*
X233740000Y-126330433D01*
X233740000Y-108041407D01*
X233871417Y-107910219D01*
X233997357Y-107606923D01*
X233997643Y-107278518D01*
X233872233Y-106975002D01*
X233640219Y-106742583D01*
X233336923Y-106616643D01*
X233008518Y-106616357D01*
X232705002Y-106741767D01*
X232472583Y-106973781D01*
X232470000Y-106980001D01*
X232470000Y-104281302D01*
X232661417Y-104090219D01*
X232787357Y-103786923D01*
X232787643Y-103458518D01*
X232662233Y-103155002D01*
X232430219Y-102922583D01*
X232126923Y-102796643D01*
X231798518Y-102796357D01*
X231495002Y-102921767D01*
X231262583Y-103153781D01*
X231136643Y-103457077D01*
X231136357Y-103785482D01*
X231261767Y-104088998D01*
X231454000Y-104281566D01*
X231454000Y-104302538D01*
X231354219Y-104202583D01*
X231050923Y-104076643D01*
X230722518Y-104076357D01*
X230419002Y-104201767D01*
X230186583Y-104433781D01*
X230060643Y-104737077D01*
X230060357Y-105065482D01*
X230185767Y-105368998D01*
X230417781Y-105601417D01*
X230438000Y-105609812D01*
X230438000Y-128616697D01*
X230246583Y-128807781D01*
X230120643Y-129111077D01*
X230120357Y-129439482D01*
X230245767Y-129742998D01*
X230477781Y-129975417D01*
X230781077Y-130101357D01*
X231109482Y-130101643D01*
X231412998Y-129976233D01*
X231454000Y-129935302D01*
X231454000Y-130292000D01*
X231454000Y-131816000D01*
X231454000Y-145634697D01*
X231447643Y-145641042D01*
X231447643Y-145114518D01*
X231322233Y-144811002D01*
X231140000Y-144628450D01*
X231140000Y-132080000D01*
X231107746Y-131917849D01*
X231101331Y-131885597D01*
X231101331Y-131885596D01*
X230991210Y-131720790D01*
X230991210Y-131720789D01*
X229930000Y-130659579D01*
X229930000Y-125109302D01*
X230121417Y-124918219D01*
X230247357Y-124614923D01*
X230247643Y-124286518D01*
X230122233Y-123983002D01*
X229930000Y-123790433D01*
X229930000Y-117846000D01*
X229930000Y-111089407D01*
X230061417Y-110958219D01*
X230187357Y-110654923D01*
X230187643Y-110326518D01*
X230062233Y-110023002D01*
X229830219Y-109790583D01*
X229526923Y-109664643D01*
X229198518Y-109664357D01*
X229073345Y-109716077D01*
X229073345Y-101082000D01*
X228974739Y-100586272D01*
X228693931Y-100166014D01*
X228273673Y-99885206D01*
X227777945Y-99786600D01*
X227002055Y-99786600D01*
X226506327Y-99885206D01*
X226086069Y-100166014D01*
X225805261Y-100586272D01*
X225706655Y-101082000D01*
X225805261Y-101577728D01*
X226086069Y-101997986D01*
X226506327Y-102278794D01*
X227002055Y-102377400D01*
X227777945Y-102377400D01*
X228273673Y-102278794D01*
X228693931Y-101997986D01*
X228974739Y-101577728D01*
X229073345Y-101082000D01*
X229073345Y-109716077D01*
X228943857Y-109769580D01*
X228943857Y-108702000D01*
X228854918Y-108254873D01*
X228601641Y-107875816D01*
X228222584Y-107622539D01*
X227775457Y-107533600D01*
X227004543Y-107533600D01*
X226557416Y-107622539D01*
X226178359Y-107875816D01*
X225965755Y-108194000D01*
X225866000Y-108194000D01*
X225671597Y-108232669D01*
X225616910Y-108269209D01*
X225506789Y-108342790D01*
X224088000Y-109761579D01*
X224088000Y-108150420D01*
X225568420Y-106670000D01*
X225965755Y-106670000D01*
X226178359Y-106988184D01*
X226557416Y-107241461D01*
X227004543Y-107330400D01*
X227775457Y-107330400D01*
X228222584Y-107241461D01*
X228601641Y-106988184D01*
X228854918Y-106609127D01*
X228943857Y-106162000D01*
X228943857Y-103622000D01*
X228854918Y-103174873D01*
X228601641Y-102795816D01*
X228222584Y-102542539D01*
X227775457Y-102453600D01*
X227004543Y-102453600D01*
X226557416Y-102542539D01*
X226178359Y-102795816D01*
X225925082Y-103174873D01*
X225836143Y-103622000D01*
X225925082Y-104069127D01*
X226178359Y-104448184D01*
X226557416Y-104701461D01*
X227004543Y-104790400D01*
X227775457Y-104790400D01*
X228222584Y-104701461D01*
X228601641Y-104448184D01*
X228854918Y-104069127D01*
X228943857Y-103622000D01*
X228943857Y-106162000D01*
X228854918Y-105714873D01*
X228601641Y-105335816D01*
X228222584Y-105082539D01*
X227775457Y-104993600D01*
X227004543Y-104993600D01*
X226557416Y-105082539D01*
X226178359Y-105335816D01*
X225965755Y-105654000D01*
X225358000Y-105654000D01*
X225163597Y-105692669D01*
X224998790Y-105802790D01*
X223578983Y-107222597D01*
X223578983Y-92700000D01*
X223578983Y-90160000D01*
X223484243Y-89683712D01*
X223214448Y-89279935D01*
X222810671Y-89010140D01*
X222334383Y-88915400D01*
X222285617Y-88915400D01*
X221809329Y-89010140D01*
X221405552Y-89279935D01*
X221135757Y-89683712D01*
X221041017Y-90160000D01*
X221135757Y-90636288D01*
X221405552Y-91040065D01*
X221809329Y-91309860D01*
X222285617Y-91404600D01*
X222334383Y-91404600D01*
X222810671Y-91309860D01*
X223214448Y-91040065D01*
X223484243Y-90636288D01*
X223578983Y-90160000D01*
X223578983Y-92700000D01*
X223484243Y-92223712D01*
X223214448Y-91819935D01*
X222810671Y-91550140D01*
X222334383Y-91455400D01*
X222285617Y-91455400D01*
X221809329Y-91550140D01*
X221405552Y-91819935D01*
X221135757Y-92223712D01*
X221041017Y-92700000D01*
X221135757Y-93176288D01*
X221405552Y-93580065D01*
X221809329Y-93849860D01*
X222285617Y-93944600D01*
X222334383Y-93944600D01*
X222810671Y-93849860D01*
X223214448Y-93580065D01*
X223484243Y-93176288D01*
X223578983Y-92700000D01*
X223578983Y-107222597D01*
X223220790Y-107580790D01*
X223110669Y-107745597D01*
X223072000Y-107940000D01*
X223072000Y-110692966D01*
X222799002Y-110805767D01*
X222566583Y-111037781D01*
X222440643Y-111341077D01*
X222440357Y-111669482D01*
X222565767Y-111972998D01*
X222797781Y-112205417D01*
X223072000Y-112319283D01*
X223072000Y-116619580D01*
X222655952Y-117035628D01*
X222655952Y-113680000D01*
X222655952Y-112380000D01*
X222618370Y-112186301D01*
X222506539Y-112016058D01*
X222357622Y-111915538D01*
X222357622Y-97716922D01*
X222328083Y-97206572D01*
X222189611Y-96872271D01*
X221959016Y-96816590D01*
X221779410Y-96996195D01*
X221779410Y-96636984D01*
X221723729Y-96406389D01*
X221240922Y-96238378D01*
X220730572Y-96267917D01*
X220396271Y-96406389D01*
X220340590Y-96636984D01*
X221060000Y-97356395D01*
X221779410Y-96636984D01*
X221779410Y-96996195D01*
X221239605Y-97536000D01*
X221959016Y-98255410D01*
X222189611Y-98199729D01*
X222357622Y-97716922D01*
X222357622Y-111915538D01*
X222337712Y-111902099D01*
X222138000Y-111862048D01*
X221779410Y-111862048D01*
X221779410Y-98435016D01*
X221060000Y-97715605D01*
X220880395Y-97895210D01*
X220880395Y-97536000D01*
X220160984Y-96816590D01*
X219930389Y-96872271D01*
X219762378Y-97355078D01*
X219791917Y-97865428D01*
X219930389Y-98199729D01*
X220160984Y-98255410D01*
X220880395Y-97536000D01*
X220880395Y-97895210D01*
X220340590Y-98435016D01*
X220396271Y-98665611D01*
X220879078Y-98833622D01*
X221389428Y-98804083D01*
X221723729Y-98665611D01*
X221779410Y-98435016D01*
X221779410Y-111862048D01*
X221505010Y-111862048D01*
X221505010Y-109049060D01*
X221505010Y-108354940D01*
X221488327Y-108275004D01*
X221221191Y-107786014D01*
X220787262Y-107436475D01*
X220316535Y-107298359D01*
X220602584Y-107241461D01*
X220981641Y-106988184D01*
X221234918Y-106609127D01*
X221323857Y-106162000D01*
X221323857Y-103622000D01*
X221301464Y-103509422D01*
X221301464Y-101869400D01*
X221301464Y-100294600D01*
X221273278Y-100149326D01*
X221189404Y-100021644D01*
X221062784Y-99936174D01*
X220913000Y-99906136D01*
X218627000Y-99906136D01*
X218481726Y-99934322D01*
X218354044Y-100018196D01*
X218268574Y-100144816D01*
X218238536Y-100294600D01*
X218238536Y-101869400D01*
X218266722Y-102014674D01*
X218350596Y-102142356D01*
X218477216Y-102227826D01*
X218627000Y-102257864D01*
X220913000Y-102257864D01*
X221058274Y-102229678D01*
X221185956Y-102145804D01*
X221271426Y-102019184D01*
X221301464Y-101869400D01*
X221301464Y-103509422D01*
X221234918Y-103174873D01*
X220981641Y-102795816D01*
X220602584Y-102542539D01*
X220155457Y-102453600D01*
X219384543Y-102453600D01*
X218937416Y-102542539D01*
X218558359Y-102795816D01*
X218305082Y-103174873D01*
X218216143Y-103622000D01*
X218305082Y-104069127D01*
X218558359Y-104448184D01*
X218937416Y-104701461D01*
X219384543Y-104790400D01*
X220155457Y-104790400D01*
X220602584Y-104701461D01*
X220981641Y-104448184D01*
X221234918Y-104069127D01*
X221323857Y-103622000D01*
X221323857Y-106162000D01*
X221234918Y-105714873D01*
X220981641Y-105335816D01*
X220602584Y-105082539D01*
X220155457Y-104993600D01*
X219384543Y-104993600D01*
X218937416Y-105082539D01*
X218558359Y-105335816D01*
X218305082Y-105714873D01*
X218216143Y-106162000D01*
X218305082Y-106609127D01*
X218558359Y-106988184D01*
X218937416Y-107241461D01*
X219223464Y-107298359D01*
X218752738Y-107436475D01*
X218318809Y-107786014D01*
X218051673Y-108275004D01*
X218034990Y-108354940D01*
X218157148Y-108575000D01*
X219643000Y-108575000D01*
X219643000Y-108555000D01*
X219897000Y-108555000D01*
X219897000Y-108575000D01*
X221382852Y-108575000D01*
X221505010Y-108354940D01*
X221505010Y-109049060D01*
X221382852Y-108829000D01*
X219897000Y-108829000D01*
X219897000Y-110124400D01*
X220252600Y-110124400D01*
X220787262Y-109967525D01*
X221221191Y-109617986D01*
X221488327Y-109128996D01*
X221505010Y-109049060D01*
X221505010Y-111862048D01*
X220838000Y-111862048D01*
X220644301Y-111899630D01*
X220474058Y-112011461D01*
X220360099Y-112180288D01*
X220320048Y-112380000D01*
X220320048Y-113680000D01*
X220357630Y-113873699D01*
X220469461Y-114043942D01*
X220638288Y-114157901D01*
X220838000Y-114197952D01*
X222138000Y-114197952D01*
X222331699Y-114160370D01*
X222501942Y-114048539D01*
X222615901Y-113879712D01*
X222655952Y-113680000D01*
X222655952Y-117035628D01*
X222099580Y-117592000D01*
X221301464Y-117592000D01*
X221301464Y-117312600D01*
X221273278Y-117167326D01*
X221189404Y-117039644D01*
X221062784Y-116954174D01*
X220913000Y-116924136D01*
X219643000Y-116924136D01*
X219643000Y-110124400D01*
X219643000Y-108829000D01*
X218157148Y-108829000D01*
X218034990Y-109049060D01*
X218051673Y-109128996D01*
X218318809Y-109617986D01*
X218752738Y-109967525D01*
X219287400Y-110124400D01*
X219643000Y-110124400D01*
X219643000Y-116924136D01*
X218627000Y-116924136D01*
X218481726Y-116952322D01*
X218354044Y-117036196D01*
X218268574Y-117162816D01*
X218238536Y-117312600D01*
X218238536Y-118887400D01*
X218266722Y-119032674D01*
X218350596Y-119160356D01*
X218477216Y-119245826D01*
X218627000Y-119275864D01*
X220913000Y-119275864D01*
X221058274Y-119247678D01*
X221185956Y-119163804D01*
X221271426Y-119037184D01*
X221301464Y-118887400D01*
X221301464Y-118608000D01*
X222310000Y-118608000D01*
X222504403Y-118569331D01*
X222669210Y-118459210D01*
X223834000Y-117294420D01*
X223834000Y-119159580D01*
X222861580Y-120132000D01*
X221194244Y-120132000D01*
X220981641Y-119813816D01*
X220602584Y-119560539D01*
X220155457Y-119471600D01*
X219384543Y-119471600D01*
X218937416Y-119560539D01*
X218558359Y-119813816D01*
X218305082Y-120192873D01*
X218216143Y-120640000D01*
X218305082Y-121087127D01*
X218558359Y-121466184D01*
X218937416Y-121719461D01*
X219384543Y-121808400D01*
X220155457Y-121808400D01*
X220602584Y-121719461D01*
X220981641Y-121466184D01*
X221194244Y-121148000D01*
X223072000Y-121148000D01*
X223266403Y-121109331D01*
X223431210Y-120999210D01*
X224701210Y-119729210D01*
X224811331Y-119564404D01*
X224811331Y-119564403D01*
X224817746Y-119532150D01*
X224849999Y-119370000D01*
X224850000Y-119370000D01*
X224850000Y-110436420D01*
X226010081Y-109276338D01*
X226178359Y-109528184D01*
X226557416Y-109781461D01*
X227004543Y-109870400D01*
X227775457Y-109870400D01*
X228222584Y-109781461D01*
X228601641Y-109528184D01*
X228854918Y-109149127D01*
X228943857Y-108702000D01*
X228943857Y-109769580D01*
X228895002Y-109789767D01*
X228662583Y-110021781D01*
X228536643Y-110325077D01*
X228536357Y-110653482D01*
X228661767Y-110956998D01*
X228893781Y-111189417D01*
X228914000Y-111197812D01*
X228914000Y-117513369D01*
X228693931Y-117184014D01*
X228273673Y-116903206D01*
X227785622Y-116806127D01*
X227785622Y-113210922D01*
X227756083Y-112700572D01*
X227617611Y-112366271D01*
X227387016Y-112310590D01*
X227207410Y-112490195D01*
X227207410Y-112130984D01*
X227151729Y-111900389D01*
X226668922Y-111732378D01*
X226158572Y-111761917D01*
X225824271Y-111900389D01*
X225768590Y-112130984D01*
X226488000Y-112850395D01*
X227207410Y-112130984D01*
X227207410Y-112490195D01*
X226667605Y-113030000D01*
X227387016Y-113749410D01*
X227617611Y-113693729D01*
X227785622Y-113210922D01*
X227785622Y-116806127D01*
X227777945Y-116804600D01*
X227207410Y-116804600D01*
X227207410Y-113929016D01*
X226488000Y-113209605D01*
X226308395Y-113389210D01*
X226308395Y-113030000D01*
X225588984Y-112310590D01*
X225358389Y-112366271D01*
X225190378Y-112849078D01*
X225219917Y-113359428D01*
X225358389Y-113693729D01*
X225588984Y-113749410D01*
X226308395Y-113030000D01*
X226308395Y-113389210D01*
X225768590Y-113929016D01*
X225824271Y-114159611D01*
X226307078Y-114327622D01*
X226817428Y-114298083D01*
X227151729Y-114159611D01*
X227207410Y-113929016D01*
X227207410Y-116804600D01*
X227002055Y-116804600D01*
X226506327Y-116903206D01*
X226086069Y-117184014D01*
X225805261Y-117604272D01*
X225706655Y-118100000D01*
X225805261Y-118595728D01*
X226086069Y-119015986D01*
X226506327Y-119296794D01*
X227002055Y-119395400D01*
X227777945Y-119395400D01*
X228273673Y-119296794D01*
X228693931Y-119015986D01*
X228914000Y-118686630D01*
X228914000Y-120489898D01*
X228854918Y-120192873D01*
X228601641Y-119813816D01*
X228222584Y-119560539D01*
X227775457Y-119471600D01*
X227004543Y-119471600D01*
X226557416Y-119560539D01*
X226178359Y-119813816D01*
X225925082Y-120192873D01*
X225836143Y-120640000D01*
X225925082Y-121087127D01*
X226178359Y-121466184D01*
X226557416Y-121719461D01*
X227004543Y-121808400D01*
X227775457Y-121808400D01*
X228222584Y-121719461D01*
X228601641Y-121466184D01*
X228854918Y-121087127D01*
X228914000Y-120790101D01*
X228914000Y-123029898D01*
X228854918Y-122732873D01*
X228601641Y-122353816D01*
X228222584Y-122100539D01*
X227775457Y-122011600D01*
X227004543Y-122011600D01*
X226557416Y-122100539D01*
X226178359Y-122353816D01*
X225925082Y-122732873D01*
X225836143Y-123180000D01*
X225925082Y-123627127D01*
X226178359Y-124006184D01*
X226557416Y-124259461D01*
X227004543Y-124348400D01*
X227775457Y-124348400D01*
X228222584Y-124259461D01*
X228601641Y-124006184D01*
X228854918Y-123627127D01*
X228914000Y-123330101D01*
X228914000Y-123790697D01*
X228722583Y-123981781D01*
X228596643Y-124285077D01*
X228596357Y-124613482D01*
X228721767Y-124916998D01*
X228914000Y-125109566D01*
X228914000Y-125569898D01*
X228854918Y-125272873D01*
X228601641Y-124893816D01*
X228222584Y-124640539D01*
X227775457Y-124551600D01*
X227004543Y-124551600D01*
X226557416Y-124640539D01*
X226178359Y-124893816D01*
X225925082Y-125272873D01*
X225836143Y-125720000D01*
X225925082Y-126167127D01*
X226178359Y-126546184D01*
X226557416Y-126799461D01*
X227004543Y-126888400D01*
X227775457Y-126888400D01*
X228222584Y-126799461D01*
X228601641Y-126546184D01*
X228854918Y-126167127D01*
X228914000Y-125870101D01*
X228914000Y-128109898D01*
X228854918Y-127812873D01*
X228601641Y-127433816D01*
X228222584Y-127180539D01*
X227775457Y-127091600D01*
X227004543Y-127091600D01*
X226557416Y-127180539D01*
X226178359Y-127433816D01*
X225925082Y-127812873D01*
X225836143Y-128260000D01*
X225925082Y-128707127D01*
X226178359Y-129086184D01*
X226557416Y-129339461D01*
X227004543Y-129428400D01*
X227775457Y-129428400D01*
X228222584Y-129339461D01*
X228601641Y-129086184D01*
X228854918Y-128707127D01*
X228914000Y-128410101D01*
X228914000Y-130649898D01*
X228854918Y-130352873D01*
X228601641Y-129973816D01*
X228222584Y-129720539D01*
X227775457Y-129631600D01*
X227004543Y-129631600D01*
X226557416Y-129720539D01*
X226178359Y-129973816D01*
X225925082Y-130352873D01*
X225836143Y-130800000D01*
X225925082Y-131247127D01*
X226178359Y-131626184D01*
X226557416Y-131879461D01*
X227004543Y-131968400D01*
X227775457Y-131968400D01*
X228222584Y-131879461D01*
X228601641Y-131626184D01*
X228854918Y-131247127D01*
X228921966Y-130910050D01*
X228952669Y-131064403D01*
X229062790Y-131229210D01*
X230124000Y-132290420D01*
X230124000Y-136687278D01*
X230122233Y-136683002D01*
X229890219Y-136450583D01*
X229586923Y-136324643D01*
X229258518Y-136324357D01*
X228955002Y-136449767D01*
X228943857Y-136460892D01*
X228943857Y-135880000D01*
X228943857Y-133340000D01*
X228854918Y-132892873D01*
X228601641Y-132513816D01*
X228222584Y-132260539D01*
X227775457Y-132171600D01*
X227004543Y-132171600D01*
X226557416Y-132260539D01*
X226178359Y-132513816D01*
X225925082Y-132892873D01*
X225836143Y-133340000D01*
X225925082Y-133787127D01*
X226178359Y-134166184D01*
X226557416Y-134419461D01*
X227004543Y-134508400D01*
X227775457Y-134508400D01*
X228222584Y-134419461D01*
X228601641Y-134166184D01*
X228854918Y-133787127D01*
X228943857Y-133340000D01*
X228943857Y-135880000D01*
X228854918Y-135432873D01*
X228601641Y-135053816D01*
X228222584Y-134800539D01*
X227775457Y-134711600D01*
X227004543Y-134711600D01*
X226557416Y-134800539D01*
X226178359Y-135053816D01*
X225925082Y-135432873D01*
X225836143Y-135880000D01*
X225925082Y-136327127D01*
X226178359Y-136706184D01*
X226557416Y-136959461D01*
X227004543Y-137048400D01*
X227775457Y-137048400D01*
X228222584Y-136959461D01*
X228601641Y-136706184D01*
X228854918Y-136327127D01*
X228943857Y-135880000D01*
X228943857Y-136460892D01*
X228722583Y-136681781D01*
X228596643Y-136985077D01*
X228596357Y-137313482D01*
X228721767Y-137616998D01*
X228914000Y-137809566D01*
X228914000Y-138269898D01*
X228854918Y-137972873D01*
X228601641Y-137593816D01*
X228222584Y-137340539D01*
X227775457Y-137251600D01*
X227004543Y-137251600D01*
X226557416Y-137340539D01*
X226178359Y-137593816D01*
X225925082Y-137972873D01*
X225836143Y-138420000D01*
X225925082Y-138867127D01*
X226178359Y-139246184D01*
X226557416Y-139499461D01*
X227004543Y-139588400D01*
X227775457Y-139588400D01*
X228222584Y-139499461D01*
X228601641Y-139246184D01*
X228854918Y-138867127D01*
X228914000Y-138570101D01*
X228914000Y-142078697D01*
X228722583Y-142269781D01*
X228596643Y-142573077D01*
X228596357Y-142901482D01*
X228721767Y-143204998D01*
X228914000Y-143397566D01*
X228914000Y-155120499D01*
X228750518Y-155120357D01*
X228447002Y-155245767D01*
X228214583Y-155477781D01*
X228088643Y-155781077D01*
X228088357Y-156109482D01*
X228213767Y-156412998D01*
X228445781Y-156645417D01*
X228749077Y-156771357D01*
X229077482Y-156771643D01*
X229380998Y-156646233D01*
X229613417Y-156414219D01*
X229739357Y-156110923D01*
X229739593Y-155838826D01*
X229781210Y-155797211D01*
X229781210Y-155797210D01*
X229854790Y-155687090D01*
X229891330Y-155632404D01*
X229891331Y-155632403D01*
X229929999Y-155438000D01*
X229930000Y-155438000D01*
X229930000Y-145753245D01*
X230153781Y-145977417D01*
X230457077Y-146103357D01*
X230785482Y-146103643D01*
X231088998Y-145978233D01*
X231321417Y-145746219D01*
X231447357Y-145442923D01*
X231447643Y-145114518D01*
X231447643Y-145641042D01*
X231262583Y-145825781D01*
X231136643Y-146129077D01*
X231136357Y-146457482D01*
X231261767Y-146760998D01*
X231454000Y-146953566D01*
X231454000Y-152238697D01*
X231262583Y-152429781D01*
X231136643Y-152733077D01*
X231136357Y-153061482D01*
X231261767Y-153364998D01*
X231493781Y-153597417D01*
X231797077Y-153723357D01*
X232125482Y-153723643D01*
X232428998Y-153598233D01*
X232661417Y-153366219D01*
X232787357Y-153062923D01*
X232787643Y-152734518D01*
X232662233Y-152431002D01*
X232470000Y-152238433D01*
X232470000Y-148223566D01*
X232509781Y-148263417D01*
X232813077Y-148389357D01*
X233141482Y-148389643D01*
X233444998Y-148264233D01*
X233677417Y-148032219D01*
X233803357Y-147728923D01*
X233803643Y-147400518D01*
X233740000Y-147246489D01*
X233740000Y-139245510D01*
X233801767Y-139394998D01*
X233994000Y-139587566D01*
X233994000Y-149190697D01*
X233802583Y-149381781D01*
X233676643Y-149685077D01*
X233676357Y-150013482D01*
X233801767Y-150316998D01*
X234033781Y-150549417D01*
X234337077Y-150675357D01*
X234665482Y-150675643D01*
X234968998Y-150550233D01*
X235201417Y-150318219D01*
X235327357Y-150014923D01*
X235327643Y-149686518D01*
X235202233Y-149383002D01*
X235010000Y-149190433D01*
X235010000Y-139587302D01*
X235201417Y-139396219D01*
X235327357Y-139092923D01*
X235327643Y-138764518D01*
X235202233Y-138461002D01*
X235010000Y-138268433D01*
X235010000Y-135372000D01*
X235010000Y-134673510D01*
X235071767Y-134822998D01*
X235303781Y-135055417D01*
X235607077Y-135181357D01*
X235935482Y-135181643D01*
X236238998Y-135056233D01*
X236471417Y-134824219D01*
X236597357Y-134520923D01*
X236597643Y-134192518D01*
X236597643Y-174569000D01*
X226628198Y-174569000D01*
X226628198Y-152671641D01*
X226628198Y-150131641D01*
X226628198Y-147591641D01*
X226628198Y-145051641D01*
X226628198Y-142511641D01*
X226454554Y-142091388D01*
X226133303Y-141769577D01*
X225713354Y-141595199D01*
X225258641Y-141594802D01*
X224838388Y-141768446D01*
X224516577Y-142089697D01*
X224342199Y-142509646D01*
X224341802Y-142964359D01*
X224515446Y-143384612D01*
X224836697Y-143706423D01*
X225256646Y-143880801D01*
X225711359Y-143881198D01*
X226131612Y-143707554D01*
X226453423Y-143386303D01*
X226627801Y-142966354D01*
X226628198Y-142511641D01*
X226628198Y-145051641D01*
X226454554Y-144631388D01*
X226133303Y-144309577D01*
X225713354Y-144135199D01*
X225258641Y-144134802D01*
X224838388Y-144308446D01*
X224516577Y-144629697D01*
X224342199Y-145049646D01*
X224341802Y-145504359D01*
X224515446Y-145924612D01*
X224836697Y-146246423D01*
X225256646Y-146420801D01*
X225711359Y-146421198D01*
X226131612Y-146247554D01*
X226453423Y-145926303D01*
X226627801Y-145506354D01*
X226628198Y-145051641D01*
X226628198Y-147591641D01*
X226454554Y-147171388D01*
X226133303Y-146849577D01*
X225713354Y-146675199D01*
X225258641Y-146674802D01*
X224838388Y-146848446D01*
X224516577Y-147169697D01*
X224342199Y-147589646D01*
X224341802Y-148044359D01*
X224515446Y-148464612D01*
X224836697Y-148786423D01*
X225256646Y-148960801D01*
X225711359Y-148961198D01*
X226131612Y-148787554D01*
X226453423Y-148466303D01*
X226627801Y-148046354D01*
X226628198Y-147591641D01*
X226628198Y-150131641D01*
X226454554Y-149711388D01*
X226133303Y-149389577D01*
X225713354Y-149215199D01*
X225258641Y-149214802D01*
X224838388Y-149388446D01*
X224516577Y-149709697D01*
X224342199Y-150129646D01*
X224341802Y-150584359D01*
X224515446Y-151004612D01*
X224836697Y-151326423D01*
X225256646Y-151500801D01*
X225711359Y-151501198D01*
X226131612Y-151327554D01*
X226453423Y-151006303D01*
X226627801Y-150586354D01*
X226628198Y-150131641D01*
X226628198Y-152671641D01*
X226454554Y-152251388D01*
X226133303Y-151929577D01*
X225713354Y-151755199D01*
X225258641Y-151754802D01*
X224838388Y-151928446D01*
X224516577Y-152249697D01*
X224342199Y-152669646D01*
X224341802Y-153124359D01*
X224515446Y-153544612D01*
X224836697Y-153866423D01*
X225256646Y-154040801D01*
X225711359Y-154041198D01*
X226131612Y-153867554D01*
X226453423Y-153546303D01*
X226627801Y-153126354D01*
X226628198Y-152671641D01*
X226628198Y-174569000D01*
X221505010Y-174569000D01*
X221505010Y-138767060D01*
X221505010Y-138072940D01*
X221488327Y-137993004D01*
X221221191Y-137504014D01*
X220787262Y-137154475D01*
X220316535Y-137016359D01*
X220602584Y-136959461D01*
X220981641Y-136706184D01*
X221234918Y-136327127D01*
X221323857Y-135880000D01*
X221323857Y-133340000D01*
X221323857Y-130800000D01*
X221323857Y-128260000D01*
X221323857Y-125720000D01*
X221323857Y-123180000D01*
X221234918Y-122732873D01*
X220981641Y-122353816D01*
X220602584Y-122100539D01*
X220155457Y-122011600D01*
X219384543Y-122011600D01*
X218937416Y-122100539D01*
X218558359Y-122353816D01*
X218305082Y-122732873D01*
X218216143Y-123180000D01*
X218305082Y-123627127D01*
X218558359Y-124006184D01*
X218937416Y-124259461D01*
X219384543Y-124348400D01*
X220155457Y-124348400D01*
X220602584Y-124259461D01*
X220981641Y-124006184D01*
X221234918Y-123627127D01*
X221323857Y-123180000D01*
X221323857Y-125720000D01*
X221234918Y-125272873D01*
X220981641Y-124893816D01*
X220602584Y-124640539D01*
X220155457Y-124551600D01*
X219384543Y-124551600D01*
X218937416Y-124640539D01*
X218558359Y-124893816D01*
X218305082Y-125272873D01*
X218216143Y-125720000D01*
X218305082Y-126167127D01*
X218558359Y-126546184D01*
X218937416Y-126799461D01*
X219384543Y-126888400D01*
X220155457Y-126888400D01*
X220602584Y-126799461D01*
X220981641Y-126546184D01*
X221234918Y-126167127D01*
X221323857Y-125720000D01*
X221323857Y-128260000D01*
X221234918Y-127812873D01*
X220981641Y-127433816D01*
X220602584Y-127180539D01*
X220155457Y-127091600D01*
X219384543Y-127091600D01*
X218937416Y-127180539D01*
X218558359Y-127433816D01*
X218305082Y-127812873D01*
X218216143Y-128260000D01*
X218305082Y-128707127D01*
X218558359Y-129086184D01*
X218937416Y-129339461D01*
X219384543Y-129428400D01*
X220155457Y-129428400D01*
X220602584Y-129339461D01*
X220981641Y-129086184D01*
X221234918Y-128707127D01*
X221323857Y-128260000D01*
X221323857Y-130800000D01*
X221234918Y-130352873D01*
X220981641Y-129973816D01*
X220602584Y-129720539D01*
X220155457Y-129631600D01*
X219384543Y-129631600D01*
X218937416Y-129720539D01*
X218558359Y-129973816D01*
X218305082Y-130352873D01*
X218216143Y-130800000D01*
X218305082Y-131247127D01*
X218558359Y-131626184D01*
X218937416Y-131879461D01*
X219384543Y-131968400D01*
X220155457Y-131968400D01*
X220602584Y-131879461D01*
X220981641Y-131626184D01*
X221234918Y-131247127D01*
X221323857Y-130800000D01*
X221323857Y-133340000D01*
X221234918Y-132892873D01*
X220981641Y-132513816D01*
X220602584Y-132260539D01*
X220155457Y-132171600D01*
X219384543Y-132171600D01*
X218937416Y-132260539D01*
X218558359Y-132513816D01*
X218305082Y-132892873D01*
X218216143Y-133340000D01*
X218305082Y-133787127D01*
X218558359Y-134166184D01*
X218937416Y-134419461D01*
X219384543Y-134508400D01*
X220155457Y-134508400D01*
X220602584Y-134419461D01*
X220981641Y-134166184D01*
X221234918Y-133787127D01*
X221323857Y-133340000D01*
X221323857Y-135880000D01*
X221234918Y-135432873D01*
X220981641Y-135053816D01*
X220602584Y-134800539D01*
X220155457Y-134711600D01*
X219384543Y-134711600D01*
X218937416Y-134800539D01*
X218558359Y-135053816D01*
X218305082Y-135432873D01*
X218216143Y-135880000D01*
X218305082Y-136327127D01*
X218558359Y-136706184D01*
X218937416Y-136959461D01*
X219223464Y-137016359D01*
X218752738Y-137154475D01*
X218318809Y-137504014D01*
X218051673Y-137993004D01*
X218034990Y-138072940D01*
X218157148Y-138293000D01*
X219643000Y-138293000D01*
X219643000Y-138273000D01*
X219897000Y-138273000D01*
X219897000Y-138293000D01*
X221382852Y-138293000D01*
X221505010Y-138072940D01*
X221505010Y-138767060D01*
X221382852Y-138547000D01*
X219897000Y-138547000D01*
X219897000Y-139842400D01*
X220252600Y-139842400D01*
X220787262Y-139685525D01*
X221221191Y-139335986D01*
X221488327Y-138846996D01*
X221505010Y-138767060D01*
X221505010Y-174569000D01*
X219643000Y-174569000D01*
X219643000Y-139842400D01*
X219643000Y-138547000D01*
X218157148Y-138547000D01*
X218034990Y-138767060D01*
X218051673Y-138846996D01*
X218318809Y-139335986D01*
X218752738Y-139685525D01*
X219287400Y-139842400D01*
X219643000Y-139842400D01*
X219643000Y-174569000D01*
X216541452Y-174569000D01*
X216541452Y-116258500D01*
X216541452Y-114861500D01*
X216503870Y-114667801D01*
X216392039Y-114497558D01*
X216223212Y-114383599D01*
X216023500Y-114343548D01*
X214626500Y-114343548D01*
X214432801Y-114381130D01*
X214262558Y-114492961D01*
X214148599Y-114661788D01*
X214108548Y-114861500D01*
X214108548Y-116258500D01*
X214146130Y-116452199D01*
X214257961Y-116622442D01*
X214426788Y-116736401D01*
X214626500Y-116776452D01*
X216023500Y-116776452D01*
X216217199Y-116738870D01*
X216387442Y-116627039D01*
X216501401Y-116458212D01*
X216541452Y-116258500D01*
X216541452Y-174569000D01*
X216404687Y-174569000D01*
X216404687Y-138206216D01*
X216404687Y-135666216D01*
X216404687Y-133126216D01*
X216404687Y-130586216D01*
X216404687Y-128046216D01*
X216404687Y-125506216D01*
X216404687Y-122966216D01*
X216404687Y-120426216D01*
X216404687Y-117886216D01*
X216240689Y-117489311D01*
X215937286Y-117185378D01*
X215540668Y-117020687D01*
X215111216Y-117020313D01*
X214714311Y-117184311D01*
X214410378Y-117487714D01*
X214245687Y-117884332D01*
X214245313Y-118313784D01*
X214409311Y-118710689D01*
X214712714Y-119014622D01*
X215109332Y-119179313D01*
X215538784Y-119179687D01*
X215935689Y-119015689D01*
X216239622Y-118712286D01*
X216404313Y-118315668D01*
X216404687Y-117886216D01*
X216404687Y-120426216D01*
X216240689Y-120029311D01*
X215937286Y-119725378D01*
X215540668Y-119560687D01*
X215111216Y-119560313D01*
X214714311Y-119724311D01*
X214410378Y-120027714D01*
X214245687Y-120424332D01*
X214245313Y-120853784D01*
X214409311Y-121250689D01*
X214712714Y-121554622D01*
X215109332Y-121719313D01*
X215538784Y-121719687D01*
X215935689Y-121555689D01*
X216239622Y-121252286D01*
X216404313Y-120855668D01*
X216404687Y-120426216D01*
X216404687Y-122966216D01*
X216240689Y-122569311D01*
X215937286Y-122265378D01*
X215540668Y-122100687D01*
X215111216Y-122100313D01*
X214714311Y-122264311D01*
X214410378Y-122567714D01*
X214245687Y-122964332D01*
X214245313Y-123393784D01*
X214409311Y-123790689D01*
X214712714Y-124094622D01*
X215109332Y-124259313D01*
X215538784Y-124259687D01*
X215935689Y-124095689D01*
X216239622Y-123792286D01*
X216404313Y-123395668D01*
X216404687Y-122966216D01*
X216404687Y-125506216D01*
X216240689Y-125109311D01*
X215937286Y-124805378D01*
X215540668Y-124640687D01*
X215111216Y-124640313D01*
X214714311Y-124804311D01*
X214410378Y-125107714D01*
X214245687Y-125504332D01*
X214245313Y-125933784D01*
X214409311Y-126330689D01*
X214712714Y-126634622D01*
X215109332Y-126799313D01*
X215538784Y-126799687D01*
X215935689Y-126635689D01*
X216239622Y-126332286D01*
X216404313Y-125935668D01*
X216404687Y-125506216D01*
X216404687Y-128046216D01*
X216240689Y-127649311D01*
X215937286Y-127345378D01*
X215540668Y-127180687D01*
X215111216Y-127180313D01*
X214714311Y-127344311D01*
X214410378Y-127647714D01*
X214245687Y-128044332D01*
X214245313Y-128473784D01*
X214409311Y-128870689D01*
X214712714Y-129174622D01*
X215109332Y-129339313D01*
X215538784Y-129339687D01*
X215935689Y-129175689D01*
X216239622Y-128872286D01*
X216404313Y-128475668D01*
X216404687Y-128046216D01*
X216404687Y-130586216D01*
X216240689Y-130189311D01*
X215937286Y-129885378D01*
X215540668Y-129720687D01*
X215111216Y-129720313D01*
X214714311Y-129884311D01*
X214410378Y-130187714D01*
X214245687Y-130584332D01*
X214245313Y-131013784D01*
X214409311Y-131410689D01*
X214712714Y-131714622D01*
X215109332Y-131879313D01*
X215538784Y-131879687D01*
X215935689Y-131715689D01*
X216239622Y-131412286D01*
X216404313Y-131015668D01*
X216404687Y-130586216D01*
X216404687Y-133126216D01*
X216240689Y-132729311D01*
X215937286Y-132425378D01*
X215540668Y-132260687D01*
X215111216Y-132260313D01*
X214714311Y-132424311D01*
X214410378Y-132727714D01*
X214245687Y-133124332D01*
X214245313Y-133553784D01*
X214409311Y-133950689D01*
X214712714Y-134254622D01*
X215109332Y-134419313D01*
X215538784Y-134419687D01*
X215935689Y-134255689D01*
X216239622Y-133952286D01*
X216404313Y-133555668D01*
X216404687Y-133126216D01*
X216404687Y-135666216D01*
X216240689Y-135269311D01*
X215937286Y-134965378D01*
X215540668Y-134800687D01*
X215111216Y-134800313D01*
X214714311Y-134964311D01*
X214410378Y-135267714D01*
X214245687Y-135664332D01*
X214245313Y-136093784D01*
X214409311Y-136490689D01*
X214712714Y-136794622D01*
X215109332Y-136959313D01*
X215538784Y-136959687D01*
X215935689Y-136795689D01*
X216239622Y-136492286D01*
X216404313Y-136095668D01*
X216404687Y-135666216D01*
X216404687Y-138206216D01*
X216240689Y-137809311D01*
X215937286Y-137505378D01*
X215540668Y-137340687D01*
X215111216Y-137340313D01*
X214714311Y-137504311D01*
X214410378Y-137807714D01*
X214245687Y-138204332D01*
X214245313Y-138633784D01*
X214409311Y-139030689D01*
X214712714Y-139334622D01*
X215109332Y-139499313D01*
X215538784Y-139499687D01*
X215935689Y-139335689D01*
X216239622Y-139032286D01*
X216404313Y-138635668D01*
X216404687Y-138206216D01*
X216404687Y-174569000D01*
X215325220Y-174569000D01*
X215325220Y-152646490D01*
X215132282Y-152179542D01*
X214880500Y-151927320D01*
X214880500Y-151328426D01*
X215131026Y-151078337D01*
X215324779Y-150611727D01*
X215325220Y-150106490D01*
X215132282Y-149639542D01*
X214880500Y-149387320D01*
X214880500Y-148788426D01*
X215131026Y-148538337D01*
X215324779Y-148071727D01*
X215325220Y-147566490D01*
X215132282Y-147099542D01*
X214880500Y-146847320D01*
X214880500Y-146248426D01*
X215131026Y-145998337D01*
X215324779Y-145531727D01*
X215325220Y-145026490D01*
X215132282Y-144559542D01*
X214880500Y-144307320D01*
X214880500Y-143708426D01*
X215131026Y-143458337D01*
X215324779Y-142991727D01*
X215325220Y-142486490D01*
X215132282Y-142019542D01*
X214775337Y-141661974D01*
X214308727Y-141468221D01*
X213952343Y-141467909D01*
X212975500Y-140491066D01*
X212975500Y-140198000D01*
X212975500Y-139944000D01*
X212975500Y-138039000D01*
X212975500Y-121275000D01*
X212912663Y-120959095D01*
X212912662Y-120959094D01*
X212733717Y-120691283D01*
X212733713Y-120691280D01*
X210879911Y-118837477D01*
X210880220Y-118483490D01*
X210687282Y-118016542D01*
X210330337Y-117658974D01*
X209863727Y-117465221D01*
X209358490Y-117464780D01*
X208891542Y-117657718D01*
X208533974Y-118014663D01*
X208340221Y-118481273D01*
X208339780Y-118986510D01*
X208532718Y-119453458D01*
X208889663Y-119811026D01*
X209356273Y-120004779D01*
X209712656Y-120005090D01*
X211324500Y-121616933D01*
X211324500Y-138039000D01*
X211324500Y-139944000D01*
X211324500Y-140198000D01*
X211324500Y-140833000D01*
X211387337Y-141148906D01*
X211566283Y-141416717D01*
X212785088Y-142635522D01*
X212784780Y-142989510D01*
X212977718Y-143456458D01*
X213229500Y-143708679D01*
X213229500Y-144307573D01*
X212978974Y-144557663D01*
X212785221Y-145024273D01*
X212784780Y-145529510D01*
X212977718Y-145996458D01*
X213229500Y-146248679D01*
X213229500Y-146847573D01*
X212978974Y-147097663D01*
X212785221Y-147564273D01*
X212784780Y-148069510D01*
X212977718Y-148536458D01*
X213229500Y-148788679D01*
X213229500Y-149387573D01*
X212978974Y-149637663D01*
X212785221Y-150104273D01*
X212784780Y-150609510D01*
X212977718Y-151076458D01*
X213229500Y-151328679D01*
X213229500Y-151927573D01*
X212978974Y-152177663D01*
X212785221Y-152644273D01*
X212784780Y-153149510D01*
X212977718Y-153616458D01*
X213334663Y-153974026D01*
X213801273Y-154167779D01*
X214306510Y-154168220D01*
X214773458Y-153975282D01*
X215131026Y-153618337D01*
X215324779Y-153151727D01*
X215325220Y-152646490D01*
X215325220Y-174569000D01*
X210753198Y-174569000D01*
X210753198Y-129938641D01*
X210579554Y-129518388D01*
X210258303Y-129196577D01*
X209838354Y-129022199D01*
X209383641Y-129021802D01*
X208963388Y-129195446D01*
X208641577Y-129516697D01*
X208467199Y-129936646D01*
X208466802Y-130391359D01*
X208640446Y-130811612D01*
X208961697Y-131133423D01*
X209381646Y-131307801D01*
X209836359Y-131308198D01*
X210256612Y-131134554D01*
X210578423Y-130813303D01*
X210752801Y-130393354D01*
X210753198Y-129938641D01*
X210753198Y-174569000D01*
X202065927Y-174569000D01*
X202065927Y-170362520D01*
X202065927Y-158932520D01*
X202065927Y-147502520D01*
X202065927Y-136072520D01*
X202065927Y-124642520D01*
X202065927Y-113212520D01*
X202065927Y-101782520D01*
X202065927Y-90352520D01*
X202037148Y-89822801D01*
X201889800Y-89467071D01*
X201799687Y-89443490D01*
X201799687Y-87406216D01*
X201635689Y-87009311D01*
X201332286Y-86705378D01*
X200935668Y-86540687D01*
X200506216Y-86540313D01*
X200109311Y-86704311D01*
X199805378Y-87007714D01*
X199640687Y-87404332D01*
X199640313Y-87833784D01*
X199804311Y-88230689D01*
X200107714Y-88534622D01*
X200504332Y-88699313D01*
X200933784Y-88699687D01*
X201330689Y-88535689D01*
X201634622Y-88232286D01*
X201799313Y-87835668D01*
X201799687Y-87406216D01*
X201799687Y-89443490D01*
X201654188Y-89405417D01*
X201474583Y-89585022D01*
X201474583Y-89225812D01*
X201412929Y-88990200D01*
X200912520Y-88814073D01*
X200382801Y-88842852D01*
X200027071Y-88990200D01*
X199965417Y-89225812D01*
X200720000Y-89980395D01*
X201474583Y-89225812D01*
X201474583Y-89585022D01*
X200899605Y-90160000D01*
X201654188Y-90914583D01*
X201889800Y-90852929D01*
X202065927Y-90352520D01*
X202065927Y-101782520D01*
X202037148Y-101252801D01*
X201889800Y-100897071D01*
X201799687Y-100873490D01*
X201799687Y-98836216D01*
X201799687Y-96296216D01*
X201635689Y-95899311D01*
X201474583Y-95737923D01*
X201474583Y-91094188D01*
X200720000Y-90339605D01*
X200540395Y-90519210D01*
X200540395Y-90160000D01*
X199785812Y-89405417D01*
X199550200Y-89467071D01*
X199374073Y-89967480D01*
X199402852Y-90497199D01*
X199550200Y-90852929D01*
X199785812Y-90914583D01*
X200540395Y-90160000D01*
X200540395Y-90519210D01*
X199965417Y-91094188D01*
X200027071Y-91329800D01*
X200527480Y-91505927D01*
X201057199Y-91477148D01*
X201412929Y-91329800D01*
X201474583Y-91094188D01*
X201474583Y-95737923D01*
X201332286Y-95595378D01*
X200935668Y-95430687D01*
X200506216Y-95430313D01*
X200109311Y-95594311D01*
X199805378Y-95897714D01*
X199640687Y-96294332D01*
X199640313Y-96723784D01*
X199804311Y-97120689D01*
X200107714Y-97424622D01*
X200504332Y-97589313D01*
X200933784Y-97589687D01*
X201330689Y-97425689D01*
X201634622Y-97122286D01*
X201799313Y-96725668D01*
X201799687Y-96296216D01*
X201799687Y-98836216D01*
X201635689Y-98439311D01*
X201332286Y-98135378D01*
X200935668Y-97970687D01*
X200506216Y-97970313D01*
X200109311Y-98134311D01*
X199805378Y-98437714D01*
X199640687Y-98834332D01*
X199640313Y-99263784D01*
X199804311Y-99660689D01*
X200107714Y-99964622D01*
X200504332Y-100129313D01*
X200933784Y-100129687D01*
X201330689Y-99965689D01*
X201634622Y-99662286D01*
X201799313Y-99265668D01*
X201799687Y-98836216D01*
X201799687Y-100873490D01*
X201654188Y-100835417D01*
X201474583Y-101015022D01*
X201474583Y-100655812D01*
X201412929Y-100420200D01*
X200912520Y-100244073D01*
X200382801Y-100272852D01*
X200027071Y-100420200D01*
X199965417Y-100655812D01*
X200720000Y-101410395D01*
X201474583Y-100655812D01*
X201474583Y-101015022D01*
X200899605Y-101590000D01*
X201654188Y-102344583D01*
X201889800Y-102282929D01*
X202065927Y-101782520D01*
X202065927Y-113212520D01*
X202037148Y-112682801D01*
X201889800Y-112327071D01*
X201799687Y-112303490D01*
X201799687Y-110266216D01*
X201799687Y-107726216D01*
X201635689Y-107329311D01*
X201474583Y-107167923D01*
X201474583Y-102524188D01*
X200720000Y-101769605D01*
X200540395Y-101949210D01*
X200540395Y-101590000D01*
X199785812Y-100835417D01*
X199550200Y-100897071D01*
X199374073Y-101397480D01*
X199402852Y-101927199D01*
X199550200Y-102282929D01*
X199785812Y-102344583D01*
X200540395Y-101590000D01*
X200540395Y-101949210D01*
X199965417Y-102524188D01*
X200027071Y-102759800D01*
X200527480Y-102935927D01*
X201057199Y-102907148D01*
X201412929Y-102759800D01*
X201474583Y-102524188D01*
X201474583Y-107167923D01*
X201332286Y-107025378D01*
X200935668Y-106860687D01*
X200506216Y-106860313D01*
X200109311Y-107024311D01*
X199805378Y-107327714D01*
X199640687Y-107724332D01*
X199640313Y-108153784D01*
X199804311Y-108550689D01*
X200107714Y-108854622D01*
X200504332Y-109019313D01*
X200933784Y-109019687D01*
X201330689Y-108855689D01*
X201634622Y-108552286D01*
X201799313Y-108155668D01*
X201799687Y-107726216D01*
X201799687Y-110266216D01*
X201635689Y-109869311D01*
X201332286Y-109565378D01*
X200935668Y-109400687D01*
X200506216Y-109400313D01*
X200109311Y-109564311D01*
X199805378Y-109867714D01*
X199640687Y-110264332D01*
X199640313Y-110693784D01*
X199804311Y-111090689D01*
X200107714Y-111394622D01*
X200504332Y-111559313D01*
X200933784Y-111559687D01*
X201330689Y-111395689D01*
X201634622Y-111092286D01*
X201799313Y-110695668D01*
X201799687Y-110266216D01*
X201799687Y-112303490D01*
X201654188Y-112265417D01*
X201474583Y-112445022D01*
X201474583Y-112085812D01*
X201412929Y-111850200D01*
X200912520Y-111674073D01*
X200382801Y-111702852D01*
X200027071Y-111850200D01*
X199965417Y-112085812D01*
X200720000Y-112840395D01*
X201474583Y-112085812D01*
X201474583Y-112445022D01*
X200899605Y-113020000D01*
X201654188Y-113774583D01*
X201889800Y-113712929D01*
X202065927Y-113212520D01*
X202065927Y-124642520D01*
X202037148Y-124112801D01*
X201889800Y-123757071D01*
X201799687Y-123733490D01*
X201799687Y-121696216D01*
X201799687Y-119156216D01*
X201635689Y-118759311D01*
X201474583Y-118597923D01*
X201474583Y-113954188D01*
X200720000Y-113199605D01*
X200540395Y-113379210D01*
X200540395Y-113020000D01*
X199785812Y-112265417D01*
X199550200Y-112327071D01*
X199374073Y-112827480D01*
X199402852Y-113357199D01*
X199550200Y-113712929D01*
X199785812Y-113774583D01*
X200540395Y-113020000D01*
X200540395Y-113379210D01*
X199965417Y-113954188D01*
X200027071Y-114189800D01*
X200527480Y-114365927D01*
X201057199Y-114337148D01*
X201412929Y-114189800D01*
X201474583Y-113954188D01*
X201474583Y-118597923D01*
X201332286Y-118455378D01*
X200935668Y-118290687D01*
X200506216Y-118290313D01*
X200109311Y-118454311D01*
X199805378Y-118757714D01*
X199640687Y-119154332D01*
X199640313Y-119583784D01*
X199804311Y-119980689D01*
X200107714Y-120284622D01*
X200504332Y-120449313D01*
X200933784Y-120449687D01*
X201330689Y-120285689D01*
X201634622Y-119982286D01*
X201799313Y-119585668D01*
X201799687Y-119156216D01*
X201799687Y-121696216D01*
X201635689Y-121299311D01*
X201332286Y-120995378D01*
X200935668Y-120830687D01*
X200506216Y-120830313D01*
X200109311Y-120994311D01*
X199805378Y-121297714D01*
X199640687Y-121694332D01*
X199640313Y-122123784D01*
X199804311Y-122520689D01*
X200107714Y-122824622D01*
X200504332Y-122989313D01*
X200933784Y-122989687D01*
X201330689Y-122825689D01*
X201634622Y-122522286D01*
X201799313Y-122125668D01*
X201799687Y-121696216D01*
X201799687Y-123733490D01*
X201654188Y-123695417D01*
X201474583Y-123875022D01*
X201474583Y-123515812D01*
X201412929Y-123280200D01*
X200912520Y-123104073D01*
X200382801Y-123132852D01*
X200027071Y-123280200D01*
X199965417Y-123515812D01*
X200720000Y-124270395D01*
X201474583Y-123515812D01*
X201474583Y-123875022D01*
X200899605Y-124450000D01*
X201654188Y-125204583D01*
X201889800Y-125142929D01*
X202065927Y-124642520D01*
X202065927Y-136072520D01*
X202037148Y-135542801D01*
X201889800Y-135187071D01*
X201799687Y-135163490D01*
X201799687Y-133126216D01*
X201799687Y-130586216D01*
X201635689Y-130189311D01*
X201474583Y-130027923D01*
X201474583Y-125384188D01*
X200720000Y-124629605D01*
X200540395Y-124809210D01*
X200540395Y-124450000D01*
X199785812Y-123695417D01*
X199550200Y-123757071D01*
X199374073Y-124257480D01*
X199402852Y-124787199D01*
X199550200Y-125142929D01*
X199785812Y-125204583D01*
X200540395Y-124450000D01*
X200540395Y-124809210D01*
X199965417Y-125384188D01*
X200027071Y-125619800D01*
X200527480Y-125795927D01*
X201057199Y-125767148D01*
X201412929Y-125619800D01*
X201474583Y-125384188D01*
X201474583Y-130027923D01*
X201332286Y-129885378D01*
X200935668Y-129720687D01*
X200506216Y-129720313D01*
X200109311Y-129884311D01*
X199805378Y-130187714D01*
X199640687Y-130584332D01*
X199640313Y-131013784D01*
X199804311Y-131410689D01*
X200107714Y-131714622D01*
X200504332Y-131879313D01*
X200933784Y-131879687D01*
X201330689Y-131715689D01*
X201634622Y-131412286D01*
X201799313Y-131015668D01*
X201799687Y-130586216D01*
X201799687Y-133126216D01*
X201635689Y-132729311D01*
X201332286Y-132425378D01*
X200935668Y-132260687D01*
X200506216Y-132260313D01*
X200109311Y-132424311D01*
X199805378Y-132727714D01*
X199640687Y-133124332D01*
X199640313Y-133553784D01*
X199804311Y-133950689D01*
X200107714Y-134254622D01*
X200504332Y-134419313D01*
X200933784Y-134419687D01*
X201330689Y-134255689D01*
X201634622Y-133952286D01*
X201799313Y-133555668D01*
X201799687Y-133126216D01*
X201799687Y-135163490D01*
X201654188Y-135125417D01*
X201474583Y-135305022D01*
X201474583Y-134945812D01*
X201412929Y-134710200D01*
X200912520Y-134534073D01*
X200382801Y-134562852D01*
X200027071Y-134710200D01*
X199965417Y-134945812D01*
X200720000Y-135700395D01*
X201474583Y-134945812D01*
X201474583Y-135305022D01*
X200899605Y-135880000D01*
X201654188Y-136634583D01*
X201889800Y-136572929D01*
X202065927Y-136072520D01*
X202065927Y-147502520D01*
X202037148Y-146972801D01*
X201889800Y-146617071D01*
X201799687Y-146593490D01*
X201799687Y-144556216D01*
X201799687Y-142016216D01*
X201635689Y-141619311D01*
X201474583Y-141457923D01*
X201474583Y-136814188D01*
X200720000Y-136059605D01*
X199965417Y-136814188D01*
X200027071Y-137049800D01*
X200527480Y-137225927D01*
X201057199Y-137197148D01*
X201412929Y-137049800D01*
X201474583Y-136814188D01*
X201474583Y-141457923D01*
X201332286Y-141315378D01*
X200935668Y-141150687D01*
X200506216Y-141150313D01*
X200109311Y-141314311D01*
X199805378Y-141617714D01*
X199640687Y-142014332D01*
X199640313Y-142443784D01*
X199804311Y-142840689D01*
X200107714Y-143144622D01*
X200504332Y-143309313D01*
X200933784Y-143309687D01*
X201330689Y-143145689D01*
X201634622Y-142842286D01*
X201799313Y-142445668D01*
X201799687Y-142016216D01*
X201799687Y-144556216D01*
X201635689Y-144159311D01*
X201332286Y-143855378D01*
X200935668Y-143690687D01*
X200506216Y-143690313D01*
X200109311Y-143854311D01*
X199805378Y-144157714D01*
X199640687Y-144554332D01*
X199640313Y-144983784D01*
X199804311Y-145380689D01*
X200107714Y-145684622D01*
X200504332Y-145849313D01*
X200933784Y-145849687D01*
X201330689Y-145685689D01*
X201634622Y-145382286D01*
X201799313Y-144985668D01*
X201799687Y-144556216D01*
X201799687Y-146593490D01*
X201654188Y-146555417D01*
X201474583Y-146735022D01*
X201474583Y-146375812D01*
X201412929Y-146140200D01*
X200912520Y-145964073D01*
X200382801Y-145992852D01*
X200027071Y-146140200D01*
X199965417Y-146375812D01*
X200720000Y-147130395D01*
X201474583Y-146375812D01*
X201474583Y-146735022D01*
X200899605Y-147310000D01*
X201654188Y-148064583D01*
X201889800Y-148002929D01*
X202065927Y-147502520D01*
X202065927Y-158932520D01*
X202037148Y-158402801D01*
X201889800Y-158047071D01*
X201799687Y-158023490D01*
X201799687Y-155986216D01*
X201799687Y-153446216D01*
X201635689Y-153049311D01*
X201474583Y-152887923D01*
X201474583Y-148244188D01*
X200720000Y-147489605D01*
X199965417Y-148244188D01*
X200027071Y-148479800D01*
X200527480Y-148655927D01*
X201057199Y-148627148D01*
X201412929Y-148479800D01*
X201474583Y-148244188D01*
X201474583Y-152887923D01*
X201332286Y-152745378D01*
X200935668Y-152580687D01*
X200506216Y-152580313D01*
X200109311Y-152744311D01*
X199805378Y-153047714D01*
X199640687Y-153444332D01*
X199640313Y-153873784D01*
X199804311Y-154270689D01*
X200107714Y-154574622D01*
X200504332Y-154739313D01*
X200933784Y-154739687D01*
X201330689Y-154575689D01*
X201634622Y-154272286D01*
X201799313Y-153875668D01*
X201799687Y-153446216D01*
X201799687Y-155986216D01*
X201635689Y-155589311D01*
X201332286Y-155285378D01*
X200935668Y-155120687D01*
X200506216Y-155120313D01*
X200109311Y-155284311D01*
X199805378Y-155587714D01*
X199640687Y-155984332D01*
X199640313Y-156413784D01*
X199804311Y-156810689D01*
X200107714Y-157114622D01*
X200504332Y-157279313D01*
X200933784Y-157279687D01*
X201330689Y-157115689D01*
X201634622Y-156812286D01*
X201799313Y-156415668D01*
X201799687Y-155986216D01*
X201799687Y-158023490D01*
X201654188Y-157985417D01*
X201474583Y-158165022D01*
X201474583Y-157805812D01*
X201412929Y-157570200D01*
X200912520Y-157394073D01*
X200382801Y-157422852D01*
X200027071Y-157570200D01*
X199965417Y-157805812D01*
X200720000Y-158560395D01*
X201474583Y-157805812D01*
X201474583Y-158165022D01*
X200899605Y-158740000D01*
X201654188Y-159494583D01*
X201889800Y-159432929D01*
X202065927Y-158932520D01*
X202065927Y-170362520D01*
X202037148Y-169832801D01*
X201889800Y-169477071D01*
X201799687Y-169453490D01*
X201799687Y-167416216D01*
X201799687Y-164876216D01*
X201635689Y-164479311D01*
X201474583Y-164317923D01*
X201474583Y-159674188D01*
X200720000Y-158919605D01*
X199965417Y-159674188D01*
X200027071Y-159909800D01*
X200527480Y-160085927D01*
X201057199Y-160057148D01*
X201412929Y-159909800D01*
X201474583Y-159674188D01*
X201474583Y-164317923D01*
X201332286Y-164175378D01*
X200935668Y-164010687D01*
X200506216Y-164010313D01*
X200109311Y-164174311D01*
X199805378Y-164477714D01*
X199640687Y-164874332D01*
X199640313Y-165303784D01*
X199804311Y-165700689D01*
X200107714Y-166004622D01*
X200504332Y-166169313D01*
X200933784Y-166169687D01*
X201330689Y-166005689D01*
X201634622Y-165702286D01*
X201799313Y-165305668D01*
X201799687Y-164876216D01*
X201799687Y-167416216D01*
X201635689Y-167019311D01*
X201332286Y-166715378D01*
X200935668Y-166550687D01*
X200506216Y-166550313D01*
X200109311Y-166714311D01*
X199805378Y-167017714D01*
X199640687Y-167414332D01*
X199640313Y-167843784D01*
X199804311Y-168240689D01*
X200107714Y-168544622D01*
X200504332Y-168709313D01*
X200933784Y-168709687D01*
X201330689Y-168545689D01*
X201634622Y-168242286D01*
X201799313Y-167845668D01*
X201799687Y-167416216D01*
X201799687Y-169453490D01*
X201654188Y-169415417D01*
X201474583Y-169595022D01*
X201474583Y-169235812D01*
X201412929Y-169000200D01*
X200912520Y-168824073D01*
X200382801Y-168852852D01*
X200027071Y-169000200D01*
X199965417Y-169235812D01*
X200720000Y-169990395D01*
X201474583Y-169235812D01*
X201474583Y-169595022D01*
X200899605Y-170170000D01*
X201654188Y-170924583D01*
X201889800Y-170862929D01*
X202065927Y-170362520D01*
X202065927Y-174569000D01*
X201474583Y-174569000D01*
X201474583Y-171104188D01*
X200720000Y-170349605D01*
X199965417Y-171104188D01*
X200027071Y-171339800D01*
X200527480Y-171515927D01*
X201057199Y-171487148D01*
X201412929Y-171339800D01*
X201474583Y-171104188D01*
X201474583Y-174569000D01*
X199515748Y-174569000D01*
X199504815Y-170753361D01*
X199550200Y-170862929D01*
X199785812Y-170924583D01*
X200540395Y-170170000D01*
X199785812Y-169415417D01*
X199550200Y-169477071D01*
X199501554Y-169615281D01*
X199471836Y-159243742D01*
X199550200Y-159432929D01*
X199785812Y-159494583D01*
X200540395Y-158740000D01*
X199785812Y-157985417D01*
X199550200Y-158047071D01*
X199469068Y-158277580D01*
X199438857Y-147734124D01*
X199550200Y-148002929D01*
X199785812Y-148064583D01*
X200540395Y-147310000D01*
X199785812Y-146555417D01*
X199550200Y-146617071D01*
X199436581Y-146939880D01*
X199405878Y-136224506D01*
X199550200Y-136572929D01*
X199785812Y-136634583D01*
X200540395Y-135880000D01*
X199785812Y-135125417D01*
X199550200Y-135187071D01*
X199404095Y-135602180D01*
X199263365Y-86487371D01*
X216721835Y-86538170D01*
X216721802Y-86576359D01*
X216895446Y-86996612D01*
X217216697Y-87318423D01*
X217636646Y-87492801D01*
X218091359Y-87493198D01*
X218511612Y-87319554D01*
X218833423Y-86998303D01*
X219007801Y-86578354D01*
X219007830Y-86544821D01*
X228024806Y-86571058D01*
X228024780Y-86601510D01*
X228217718Y-87068458D01*
X228574663Y-87426026D01*
X228596500Y-87435093D01*
X228596500Y-97057066D01*
X228491717Y-96952283D01*
X228223906Y-96773337D01*
X227908000Y-96710500D01*
X227193901Y-96710500D01*
X227190370Y-96692301D01*
X227078539Y-96522058D01*
X226909712Y-96408099D01*
X226710000Y-96368048D01*
X226118983Y-96368048D01*
X226118983Y-90160000D01*
X226024243Y-89683712D01*
X225754448Y-89279935D01*
X225350671Y-89010140D01*
X224874383Y-88915400D01*
X224825617Y-88915400D01*
X224349329Y-89010140D01*
X223945552Y-89279935D01*
X223675757Y-89683712D01*
X223581017Y-90160000D01*
X223675757Y-90636288D01*
X223945552Y-91040065D01*
X224349329Y-91309860D01*
X224825617Y-91404600D01*
X224874383Y-91404600D01*
X225350671Y-91309860D01*
X225754448Y-91040065D01*
X226024243Y-90636288D01*
X226118983Y-90160000D01*
X226118983Y-96368048D01*
X226102064Y-96368048D01*
X226102064Y-93563600D01*
X226102064Y-91836400D01*
X226073878Y-91691126D01*
X225990004Y-91563444D01*
X225863384Y-91477974D01*
X225713600Y-91447936D01*
X223986400Y-91447936D01*
X223841126Y-91476122D01*
X223713444Y-91559996D01*
X223627974Y-91686616D01*
X223597936Y-91836400D01*
X223597936Y-93563600D01*
X223626122Y-93708874D01*
X223709996Y-93836556D01*
X223836616Y-93922026D01*
X223986400Y-93952064D01*
X225713600Y-93952064D01*
X225858874Y-93923878D01*
X225986556Y-93840004D01*
X226072026Y-93713384D01*
X226102064Y-93563600D01*
X226102064Y-96368048D01*
X225410000Y-96368048D01*
X225216301Y-96405630D01*
X225046058Y-96517461D01*
X224932099Y-96686288D01*
X224892048Y-96886000D01*
X224892048Y-98186000D01*
X224929630Y-98379699D01*
X225041461Y-98549942D01*
X225210288Y-98663901D01*
X225410000Y-98703952D01*
X226710000Y-98703952D01*
X226903699Y-98666370D01*
X227073942Y-98554539D01*
X227187901Y-98385712D01*
X227192756Y-98361500D01*
X227566066Y-98361500D01*
X228487737Y-99283170D01*
X228614039Y-99588843D01*
X228881747Y-99857020D01*
X229231705Y-100002335D01*
X229610633Y-100002665D01*
X229960843Y-99857961D01*
X230229020Y-99590253D01*
X230374335Y-99240295D01*
X230374665Y-98861367D01*
X230247500Y-98553604D01*
X230247500Y-87193647D01*
X230371026Y-87070337D01*
X230564779Y-86603727D01*
X230564801Y-86578449D01*
X238601972Y-86601835D01*
X238601565Y-87068919D01*
X239421554Y-89053444D01*
X240938570Y-90573109D01*
X242921661Y-91396561D01*
X245068919Y-91398435D01*
X247053444Y-90578446D01*
X248573109Y-89061430D01*
X249396561Y-87078339D01*
X249396949Y-86633245D01*
X249569000Y-86633746D01*
X249569000Y-168957547D01*
M02*
