M48
; DRILL file {KiCad (5.1.5)-3} date 8/21/2021 7:51:43 AM
; FORMAT={-:-/ absolute / inch / decimal}
; #@! TF.CreationDate,2021-08-21T07:51:43-04:00
; #@! TF.GenerationSoftware,Kicad,Pcbnew,(5.1.5)-3
; #@! TF.FileFunction,Plated,1,2,PTH
FMAT,2
INCH
T1C0.0295
T2C0.0315
T3C0.0394
%
G90
G05
T1
X2.5308Y-1.9705
X2.8308Y-1.9705
X2.8008Y-2.6705
X2.8508Y-2.6205
X2.8508Y-2.7205
X2.3808Y-2.1805
X2.3808Y-2.4805
X2.3308Y-2.6605
X2.3808Y-2.6105
X2.4308Y-2.6605
T2
X2.3208Y-1.5605
X2.3208Y-1.9605
X2.5608Y-1.6705
X2.5608Y-1.7689
X2.6108Y-2.1405
X2.6108Y-2.5405
X2.8008Y-1.4805
X2.8008Y-1.8805
X2.8408Y-2.4005
X2.8408Y-2.4989
X2.6908Y-1.4805
X2.6908Y-1.8805
X2.8408Y-2.0921
X2.8408Y-2.1905
X2.4308Y-1.5605
X2.4308Y-1.9605
X2.7208Y-2.1405
X2.7208Y-2.5405
X2.3224Y-2.0605
X2.4208Y-2.0605
X2.5008Y-2.1405
X2.5008Y-2.5405
X2.5624Y-2.6705
X2.6608Y-2.6705
T3
X2.8408Y-2.3005
X2.3708Y-1.4605
X2.5608Y-1.5505
X2.7308Y-2.7705
T0
M30
