G04 #@! TF.FileFunction,Copper,L2,Bot,Signal*
%FSLAX46Y46*%
G04 Gerber Fmt 4.6, Leading zero omitted, Abs format (unit mm)*
G04 Created by KiCad (PCBNEW (after 2015-mar-04 BZR unknown)-product) date 10/19/2015 1:10:15 PM*
%MOMM*%
G01*
G04 APERTURE LIST*
%ADD10C,0.150000*%
%ADD11C,1.397000*%
%ADD12R,1.397000X1.397000*%
%ADD13R,1.524000X1.524000*%
%ADD14C,1.524000*%
%ADD15C,1.778000*%
%ADD16R,1.778000X1.778000*%
%ADD17C,6.350000*%
%ADD18R,1.300000X1.300000*%
%ADD19C,1.300000*%
%ADD20C,4.600000*%
%ADD21C,0.889000*%
%ADD22C,0.635000*%
%ADD23C,0.203200*%
%ADD24C,0.254000*%
G04 APERTURE END LIST*
D10*
D11*
X26788000Y-11816000D03*
X24248000Y-11816000D03*
X4944000Y-38232000D03*
X2404000Y-38232000D03*
X18406000Y-14864000D03*
X15866000Y-14864000D03*
X9652000Y-34544000D03*
X12192000Y-34544000D03*
X14732000Y-34544000D03*
X17272000Y-34544000D03*
X19812000Y-34544000D03*
X22352000Y-34544000D03*
X24892000Y-34544000D03*
X27432000Y-34544000D03*
X29972000Y-34544000D03*
X32512000Y-34544000D03*
X35052000Y-34544000D03*
X37592000Y-34544000D03*
X40132000Y-34544000D03*
D12*
X7112000Y-34544000D03*
D11*
X40132000Y-26924000D03*
X37592000Y-26924000D03*
X35052000Y-26924000D03*
X32512000Y-26924000D03*
X29972000Y-26924000D03*
X27432000Y-26924000D03*
X24892000Y-26924000D03*
X22352000Y-26924000D03*
X19812000Y-26924000D03*
X17272000Y-26924000D03*
X14732000Y-26924000D03*
X12192000Y-26924000D03*
X9652000Y-26924000D03*
X7112000Y-26924000D03*
D13*
X10650000Y-47000000D03*
D14*
X13190000Y-47000000D03*
X15730000Y-47000000D03*
X18270000Y-47000000D03*
X20810000Y-47000000D03*
X23350000Y-47000000D03*
D13*
X19812000Y-43180000D03*
D14*
X19812000Y-40640000D03*
X19812000Y-38100000D03*
D13*
X29972000Y-18288000D03*
D14*
X29972000Y-20828000D03*
X29972000Y-23368000D03*
D13*
X32512000Y-18288000D03*
D14*
X32512000Y-20828000D03*
X32512000Y-23368000D03*
D13*
X35052000Y-18288000D03*
D14*
X35052000Y-20828000D03*
X35052000Y-23368000D03*
D13*
X37592000Y-18288000D03*
D14*
X37592000Y-20828000D03*
X37592000Y-23368000D03*
D13*
X40132000Y-18288000D03*
D14*
X40132000Y-20828000D03*
X40132000Y-23368000D03*
D13*
X40132000Y-43180000D03*
D14*
X40132000Y-40640000D03*
X40132000Y-38100000D03*
D13*
X37592000Y-43180000D03*
D14*
X37592000Y-40640000D03*
X37592000Y-38100000D03*
D13*
X35052000Y-43180000D03*
D14*
X35052000Y-40640000D03*
X35052000Y-38100000D03*
D13*
X32512000Y-43180000D03*
D14*
X32512000Y-40640000D03*
X32512000Y-38100000D03*
D13*
X19812000Y-18288000D03*
D14*
X19812000Y-20828000D03*
X19812000Y-23368000D03*
D13*
X17272000Y-43180000D03*
D14*
X17272000Y-40640000D03*
X17272000Y-38100000D03*
D13*
X14732000Y-43180000D03*
D14*
X14732000Y-40640000D03*
X14732000Y-38100000D03*
D13*
X12192000Y-43180000D03*
D14*
X12192000Y-40640000D03*
X12192000Y-38100000D03*
D13*
X9652000Y-43180000D03*
D14*
X9652000Y-40640000D03*
X9652000Y-38100000D03*
D13*
X7112000Y-18288000D03*
D14*
X7112000Y-20828000D03*
X7112000Y-23368000D03*
D13*
X9652000Y-18288000D03*
D14*
X9652000Y-20828000D03*
X9652000Y-23368000D03*
D13*
X12192000Y-18288000D03*
D14*
X12192000Y-20828000D03*
X12192000Y-23368000D03*
D13*
X14732000Y-18288000D03*
D14*
X14732000Y-20828000D03*
X14732000Y-23368000D03*
D13*
X17272000Y-18288000D03*
D14*
X17272000Y-20828000D03*
X17272000Y-23368000D03*
D15*
X2540000Y-24638000D03*
D16*
X2540000Y-34798000D03*
D14*
X2540000Y-11938000D03*
X2540000Y-22098000D03*
D13*
X22352000Y-18288000D03*
D14*
X22352000Y-20828000D03*
X22352000Y-23368000D03*
D13*
X26162000Y-18288000D03*
D14*
X26162000Y-20828000D03*
X26162000Y-23368000D03*
D11*
X28153360Y-38608000D03*
X23154640Y-38608000D03*
X25654000Y-38608000D03*
D13*
X31750000Y-12446000D03*
D14*
X31750000Y-9906000D03*
X34290000Y-12446000D03*
X34290000Y-9906000D03*
X36830000Y-12446000D03*
X36830000Y-9906000D03*
X39370000Y-12446000D03*
X39370000Y-9906000D03*
X41910000Y-12446000D03*
X41910000Y-9906000D03*
X44450000Y-12446000D03*
X44450000Y-9906000D03*
D11*
X25264000Y-43820000D03*
X27804000Y-43820000D03*
X46346000Y-37470000D03*
X46346000Y-40010000D03*
D17*
X4000000Y-4000000D03*
X45000000Y-4000000D03*
X45000000Y-45000000D03*
X4000000Y-45000000D03*
D18*
X9262000Y-12070000D03*
D19*
X6762000Y-12070000D03*
D18*
X36440000Y-3434000D03*
D19*
X33940000Y-3434000D03*
D20*
X16120000Y-4069000D03*
X16120000Y-10069000D03*
X11320000Y-7569000D03*
D21*
X38599000Y-15499000D03*
X33782000Y-16383000D03*
X44060000Y-14864000D03*
X44314000Y-29342000D03*
X35043000Y-29278500D03*
X45339000Y-23114000D03*
X42028000Y-15372000D03*
X42282000Y-30231000D03*
X29264500Y-6736000D03*
X40948500Y-6863000D03*
X21708000Y-36581000D03*
X22100000Y-44500000D03*
X24502000Y-29088000D03*
D22*
X32512000Y-20828000D02*
X29972000Y-20828000D01*
X35052000Y-20828000D02*
X32512000Y-20828000D01*
X37592000Y-20828000D02*
X35052000Y-20828000D01*
X40132000Y-20828000D02*
X37592000Y-20828000D01*
X17272000Y-40640000D02*
X19812000Y-40640000D01*
X14732000Y-40640000D02*
X17272000Y-40640000D01*
X12192000Y-40640000D02*
X14732000Y-40640000D01*
X9652000Y-40640000D02*
X12192000Y-40640000D01*
D23*
X22352000Y-23364000D02*
X23740000Y-21976000D01*
X23740000Y-21976000D02*
X23740000Y-17150000D01*
X23740000Y-17150000D02*
X21454000Y-14864000D01*
X21454000Y-14864000D02*
X18406000Y-14864000D01*
X22352000Y-23368000D02*
X22352000Y-23364000D01*
X38599000Y-15499000D02*
X39370000Y-14728000D01*
X39370000Y-14728000D02*
X39370000Y-12446000D01*
X33782000Y-16383000D02*
X31750000Y-14351000D01*
X31750000Y-14351000D02*
X31750000Y-12446000D01*
X29972000Y-23368000D02*
X29972000Y-26924000D01*
X44949000Y-21976000D02*
X44949000Y-19817000D01*
X44060000Y-22865000D02*
X44949000Y-21976000D01*
X44949000Y-19817000D02*
X44949000Y-15880000D01*
X44949000Y-15753000D02*
X44060000Y-14864000D01*
X44949000Y-15880000D02*
X44949000Y-15753000D01*
X44060000Y-29088000D02*
X44060000Y-25024000D01*
X44314000Y-29342000D02*
X44060000Y-29088000D01*
X44060000Y-25024000D02*
X44060000Y-22865000D01*
X35052000Y-29287500D02*
X35043000Y-29278500D01*
X35052000Y-34544000D02*
X35052000Y-29287500D01*
X43425000Y-17912000D02*
X40758000Y-15245000D01*
X43425000Y-21341000D02*
X43425000Y-17912000D01*
X41520000Y-23246000D02*
X43425000Y-21341000D01*
X39370000Y-9906000D02*
X39370000Y-9920000D01*
X39370000Y-9920000D02*
X40758000Y-11308000D01*
X40758000Y-11308000D02*
X40758000Y-15245000D01*
X37592000Y-34095500D02*
X41520000Y-30167500D01*
X41520000Y-30167500D02*
X41520000Y-23246000D01*
X37592000Y-34544000D02*
X37592000Y-34095500D01*
X43180000Y-15635000D02*
X43180000Y-11176000D01*
X43180000Y-32834500D02*
X43180000Y-24643000D01*
X43180000Y-11176000D02*
X41910000Y-9906000D01*
X43180000Y-22983000D02*
X44441000Y-21722000D01*
X44441000Y-21722000D02*
X44441000Y-16896000D01*
X44441000Y-16896000D02*
X43180000Y-15635000D01*
X43180000Y-24643000D02*
X43180000Y-22983000D01*
X43180000Y-33270000D02*
X41906000Y-34544000D01*
X41906000Y-34544000D02*
X40132000Y-34544000D01*
X43180000Y-32834500D02*
X43180000Y-33270000D01*
X45339000Y-23114000D02*
X45720000Y-22733000D01*
X45720000Y-22733000D02*
X45720000Y-11176000D01*
X45720000Y-11176000D02*
X44450000Y-9906000D01*
D22*
X6473000Y-34544000D02*
X7112000Y-34544000D01*
X2409000Y-38608000D02*
X6473000Y-34544000D01*
X2286000Y-38608000D02*
X2409000Y-38608000D01*
D23*
X43933000Y-17277000D02*
X42028000Y-15372000D01*
X43933000Y-21569598D02*
X43933000Y-17277000D01*
X42282000Y-23220598D02*
X43933000Y-21569598D01*
X42282000Y-25278000D02*
X42282000Y-24897000D01*
X42282000Y-30231000D02*
X42282000Y-25278000D01*
X42282000Y-24897000D02*
X42282000Y-23220598D01*
D22*
X26788000Y-11816000D02*
X26788000Y-9212500D01*
X26788000Y-9212500D02*
X29264500Y-6736000D01*
X16120000Y-10165000D02*
X25137000Y-10165000D01*
X25137000Y-10165000D02*
X26788000Y-11816000D01*
X16120000Y-10165000D02*
X25645000Y-10165000D01*
X25645000Y-10165000D02*
X26416000Y-10936000D01*
X26416000Y-10936000D02*
X26788000Y-11816000D01*
X26416000Y-10936000D02*
X25645000Y-10165000D01*
X26788000Y-11816000D02*
X26416000Y-10936000D01*
D23*
X43171000Y-10546000D02*
X44450000Y-11825000D01*
X43171000Y-8768000D02*
X43171000Y-10546000D01*
X42536000Y-8133000D02*
X43171000Y-8768000D01*
D22*
X41329500Y-6863000D02*
X42536000Y-8069500D01*
X42536000Y-8069500D02*
X42536000Y-8133000D01*
X40948500Y-6863000D02*
X41329500Y-6863000D01*
D23*
X44450000Y-11825000D02*
X44450000Y-12446000D01*
D22*
X25654000Y-40128000D02*
X25645000Y-40137000D01*
X25654000Y-38608000D02*
X25654000Y-40128000D01*
D23*
X20438000Y-39400000D02*
X5618000Y-39400000D01*
X20900000Y-39400000D02*
X20438000Y-39400000D01*
X5618000Y-39400000D02*
X4826000Y-38608000D01*
X23350000Y-41850000D02*
X20900000Y-39400000D01*
X23350000Y-47000000D02*
X23350000Y-41850000D01*
X21073000Y-35819000D02*
X21708000Y-36454000D01*
X15734000Y-47000000D02*
X17136000Y-45598000D01*
X17136000Y-45598000D02*
X21454000Y-45598000D01*
X21454000Y-45598000D02*
X22100000Y-44952000D01*
X22100000Y-44952000D02*
X22100000Y-44500000D01*
X15730000Y-47000000D02*
X15734000Y-47000000D01*
X21073000Y-35819000D02*
X21073000Y-32580500D01*
X21708000Y-36454000D02*
X21073000Y-35819000D01*
X21708000Y-36581000D02*
X21708000Y-36454000D01*
D22*
X24502000Y-29151500D02*
X21073000Y-32580500D01*
X24502000Y-29088000D02*
X24502000Y-29151500D01*
D24*
G36*
X48399700Y-42918302D02*
X48339572Y-42772782D01*
X47691927Y-42124005D01*
X47691927Y-40202520D01*
X47663148Y-39672801D01*
X47515800Y-39317071D01*
X47476496Y-39306786D01*
X47476496Y-37246156D01*
X47304781Y-36830573D01*
X46987100Y-36512337D01*
X46571817Y-36339897D01*
X46122156Y-36339504D01*
X45706573Y-36511219D01*
X45388337Y-36828900D01*
X45215897Y-37244183D01*
X45215504Y-37693844D01*
X45387219Y-38109427D01*
X45704900Y-38427663D01*
X46120183Y-38600103D01*
X46569844Y-38600496D01*
X46985427Y-38428781D01*
X47303663Y-38111100D01*
X47476103Y-37695817D01*
X47476496Y-37246156D01*
X47476496Y-39306786D01*
X47280188Y-39255417D01*
X47100583Y-39435022D01*
X47100583Y-39075812D01*
X47038929Y-38840200D01*
X46538520Y-38664073D01*
X46008801Y-38692852D01*
X45653071Y-38840200D01*
X45591417Y-39075812D01*
X46346000Y-39830395D01*
X47100583Y-39075812D01*
X47100583Y-39435022D01*
X46525605Y-40010000D01*
X47280188Y-40764583D01*
X47515800Y-40702929D01*
X47691927Y-40202520D01*
X47691927Y-42124005D01*
X47233043Y-41664320D01*
X46451374Y-41339742D01*
X46683199Y-41327148D01*
X47038929Y-41179800D01*
X47100583Y-40944188D01*
X46346000Y-40189605D01*
X46166395Y-40369210D01*
X46166395Y-40010000D01*
X45411812Y-39255417D01*
X45176200Y-39317071D01*
X45000073Y-39817480D01*
X45028852Y-40347199D01*
X45176200Y-40702929D01*
X45411812Y-40764583D01*
X46166395Y-40010000D01*
X46166395Y-40369210D01*
X45591417Y-40944188D01*
X45622649Y-41063541D01*
X44220318Y-41062318D01*
X42772782Y-41660428D01*
X41664320Y-42766957D01*
X41529000Y-43092842D01*
X41529000Y-43052998D01*
X41370252Y-43052998D01*
X41529000Y-42894250D01*
X41529000Y-42291691D01*
X41432327Y-42058302D01*
X41253699Y-41879673D01*
X41020310Y-41783000D01*
X40767691Y-41783000D01*
X40491866Y-41783000D01*
X40807350Y-41652645D01*
X41143464Y-41317116D01*
X41325592Y-40878503D01*
X41326007Y-40403580D01*
X41326007Y-37863580D01*
X41144645Y-37424650D01*
X40809116Y-37088536D01*
X40370503Y-36906408D01*
X39895580Y-36905993D01*
X39456650Y-37087355D01*
X39120536Y-37422884D01*
X38938408Y-37861497D01*
X38937993Y-38336420D01*
X39119355Y-38775350D01*
X39454884Y-39111464D01*
X39893497Y-39293592D01*
X40368420Y-39294007D01*
X40807350Y-39112645D01*
X41143464Y-38777116D01*
X41325592Y-38338503D01*
X41326007Y-37863580D01*
X41326007Y-40403580D01*
X41144645Y-39964650D01*
X40809116Y-39628536D01*
X40370503Y-39446408D01*
X39895580Y-39445993D01*
X39456650Y-39627355D01*
X39120536Y-39962884D01*
X38938408Y-40401497D01*
X38937993Y-40876420D01*
X39119355Y-41315350D01*
X39454884Y-41651464D01*
X39771657Y-41783000D01*
X39496309Y-41783000D01*
X39243690Y-41783000D01*
X39010301Y-41879673D01*
X38862000Y-42027974D01*
X38713699Y-41879673D01*
X38480310Y-41783000D01*
X38227691Y-41783000D01*
X37951866Y-41783000D01*
X38267350Y-41652645D01*
X38603464Y-41317116D01*
X38785592Y-40878503D01*
X38786007Y-40403580D01*
X38786007Y-37863580D01*
X38604645Y-37424650D01*
X38269116Y-37088536D01*
X37830503Y-36906408D01*
X37355580Y-36905993D01*
X36916650Y-37087355D01*
X36580536Y-37422884D01*
X36398408Y-37861497D01*
X36397993Y-38336420D01*
X36579355Y-38775350D01*
X36914884Y-39111464D01*
X37353497Y-39293592D01*
X37828420Y-39294007D01*
X38267350Y-39112645D01*
X38603464Y-38777116D01*
X38785592Y-38338503D01*
X38786007Y-37863580D01*
X38786007Y-40403580D01*
X38604645Y-39964650D01*
X38269116Y-39628536D01*
X37830503Y-39446408D01*
X37355580Y-39445993D01*
X36916650Y-39627355D01*
X36580536Y-39962884D01*
X36398408Y-40401497D01*
X36397993Y-40876420D01*
X36579355Y-41315350D01*
X36914884Y-41651464D01*
X37231657Y-41783000D01*
X36956309Y-41783000D01*
X36703690Y-41783000D01*
X36470301Y-41879673D01*
X36322000Y-42027974D01*
X36173699Y-41879673D01*
X35940310Y-41783000D01*
X35687691Y-41783000D01*
X35411866Y-41783000D01*
X35727350Y-41652645D01*
X36063464Y-41317116D01*
X36245592Y-40878503D01*
X36246007Y-40403580D01*
X36246007Y-37863580D01*
X36246007Y-23131580D01*
X36064645Y-22692650D01*
X35729116Y-22356536D01*
X35290503Y-22174408D01*
X34815580Y-22173993D01*
X34376650Y-22355355D01*
X34040536Y-22690884D01*
X33858408Y-23129497D01*
X33857993Y-23604420D01*
X34039355Y-24043350D01*
X34374884Y-24379464D01*
X34813497Y-24561592D01*
X35288420Y-24562007D01*
X35727350Y-24380645D01*
X36063464Y-24045116D01*
X36245592Y-23606503D01*
X36246007Y-23131580D01*
X36246007Y-37863580D01*
X36182496Y-37709871D01*
X36182496Y-34320156D01*
X36182496Y-26700156D01*
X36010781Y-26284573D01*
X35693100Y-25966337D01*
X35277817Y-25793897D01*
X34828156Y-25793504D01*
X34412573Y-25965219D01*
X34094337Y-26282900D01*
X33921897Y-26698183D01*
X33921504Y-27147844D01*
X34093219Y-27563427D01*
X34410900Y-27881663D01*
X34826183Y-28054103D01*
X35275844Y-28054496D01*
X35691427Y-27882781D01*
X36009663Y-27565100D01*
X36182103Y-27149817D01*
X36182496Y-26700156D01*
X36182496Y-34320156D01*
X36010781Y-33904573D01*
X35693100Y-33586337D01*
X35585400Y-33541616D01*
X35585400Y-29975241D01*
X35785458Y-29775532D01*
X35919148Y-29453572D01*
X35919452Y-29104958D01*
X35786324Y-28782764D01*
X35540032Y-28536042D01*
X35218072Y-28402352D01*
X34869458Y-28402048D01*
X34547264Y-28535176D01*
X34300542Y-28781468D01*
X34166852Y-29103428D01*
X34166548Y-29452042D01*
X34299676Y-29774236D01*
X34518600Y-29993542D01*
X34518600Y-33541409D01*
X34412573Y-33585219D01*
X34094337Y-33902900D01*
X33921897Y-34318183D01*
X33921504Y-34767844D01*
X34093219Y-35183427D01*
X34410900Y-35501663D01*
X34826183Y-35674103D01*
X35275844Y-35674496D01*
X35691427Y-35502781D01*
X36009663Y-35185100D01*
X36182103Y-34769817D01*
X36182496Y-34320156D01*
X36182496Y-37709871D01*
X36064645Y-37424650D01*
X35729116Y-37088536D01*
X35290503Y-36906408D01*
X34815580Y-36905993D01*
X34376650Y-37087355D01*
X34040536Y-37422884D01*
X33858408Y-37861497D01*
X33857993Y-38336420D01*
X34039355Y-38775350D01*
X34374884Y-39111464D01*
X34813497Y-39293592D01*
X35288420Y-39294007D01*
X35727350Y-39112645D01*
X36063464Y-38777116D01*
X36245592Y-38338503D01*
X36246007Y-37863580D01*
X36246007Y-40403580D01*
X36064645Y-39964650D01*
X35729116Y-39628536D01*
X35290503Y-39446408D01*
X34815580Y-39445993D01*
X34376650Y-39627355D01*
X34040536Y-39962884D01*
X33858408Y-40401497D01*
X33857993Y-40876420D01*
X34039355Y-41315350D01*
X34374884Y-41651464D01*
X34691657Y-41783000D01*
X34416309Y-41783000D01*
X34163690Y-41783000D01*
X33930301Y-41879673D01*
X33782000Y-42027974D01*
X33633699Y-41879673D01*
X33400310Y-41783000D01*
X33147691Y-41783000D01*
X32871866Y-41783000D01*
X33187350Y-41652645D01*
X33523464Y-41317116D01*
X33705592Y-40878503D01*
X33706007Y-40403580D01*
X33706007Y-37863580D01*
X33706007Y-23131580D01*
X33524645Y-22692650D01*
X33189116Y-22356536D01*
X32750503Y-22174408D01*
X32275580Y-22173993D01*
X31836650Y-22355355D01*
X31500536Y-22690884D01*
X31318408Y-23129497D01*
X31317993Y-23604420D01*
X31499355Y-24043350D01*
X31834884Y-24379464D01*
X32273497Y-24561592D01*
X32748420Y-24562007D01*
X33187350Y-24380645D01*
X33523464Y-24045116D01*
X33705592Y-23606503D01*
X33706007Y-23131580D01*
X33706007Y-37863580D01*
X33642496Y-37709871D01*
X33642496Y-34320156D01*
X33642496Y-26700156D01*
X33470781Y-26284573D01*
X33153100Y-25966337D01*
X32737817Y-25793897D01*
X32288156Y-25793504D01*
X31872573Y-25965219D01*
X31554337Y-26282900D01*
X31381897Y-26698183D01*
X31381504Y-27147844D01*
X31553219Y-27563427D01*
X31870900Y-27881663D01*
X32286183Y-28054103D01*
X32735844Y-28054496D01*
X33151427Y-27882781D01*
X33469663Y-27565100D01*
X33642103Y-27149817D01*
X33642496Y-26700156D01*
X33642496Y-34320156D01*
X33470781Y-33904573D01*
X33153100Y-33586337D01*
X32737817Y-33413897D01*
X32288156Y-33413504D01*
X31872573Y-33585219D01*
X31554337Y-33902900D01*
X31381897Y-34318183D01*
X31381504Y-34767844D01*
X31553219Y-35183427D01*
X31870900Y-35501663D01*
X32286183Y-35674103D01*
X32735844Y-35674496D01*
X33151427Y-35502781D01*
X33469663Y-35185100D01*
X33642103Y-34769817D01*
X33642496Y-34320156D01*
X33642496Y-37709871D01*
X33524645Y-37424650D01*
X33189116Y-37088536D01*
X32750503Y-36906408D01*
X32275580Y-36905993D01*
X31836650Y-37087355D01*
X31500536Y-37422884D01*
X31318408Y-37861497D01*
X31317993Y-38336420D01*
X31499355Y-38775350D01*
X31834884Y-39111464D01*
X32273497Y-39293592D01*
X32748420Y-39294007D01*
X33187350Y-39112645D01*
X33523464Y-38777116D01*
X33705592Y-38338503D01*
X33706007Y-37863580D01*
X33706007Y-40403580D01*
X33524645Y-39964650D01*
X33189116Y-39628536D01*
X32750503Y-39446408D01*
X32275580Y-39445993D01*
X31836650Y-39627355D01*
X31500536Y-39962884D01*
X31318408Y-40401497D01*
X31317993Y-40876420D01*
X31499355Y-41315350D01*
X31834884Y-41651464D01*
X32151657Y-41783000D01*
X31876309Y-41783000D01*
X31623690Y-41783000D01*
X31390301Y-41879673D01*
X31211673Y-42058302D01*
X31166007Y-42168549D01*
X31166007Y-23131580D01*
X30984645Y-22692650D01*
X30649116Y-22356536D01*
X30210503Y-22174408D01*
X29735580Y-22173993D01*
X29296650Y-22355355D01*
X28960536Y-22690884D01*
X28778408Y-23129497D01*
X28777993Y-23604420D01*
X28959355Y-24043350D01*
X29294884Y-24379464D01*
X29438600Y-24439140D01*
X29438600Y-25921409D01*
X29332573Y-25965219D01*
X29014337Y-26282900D01*
X28841897Y-26698183D01*
X28841504Y-27147844D01*
X29013219Y-27563427D01*
X29330900Y-27881663D01*
X29746183Y-28054103D01*
X30195844Y-28054496D01*
X30611427Y-27882781D01*
X30929663Y-27565100D01*
X31102103Y-27149817D01*
X31102496Y-26700156D01*
X30930781Y-26284573D01*
X30613100Y-25966337D01*
X30505400Y-25921616D01*
X30505400Y-24439297D01*
X30647350Y-24380645D01*
X30983464Y-24045116D01*
X31165592Y-23606503D01*
X31166007Y-23131580D01*
X31166007Y-42168549D01*
X31115000Y-42291691D01*
X31115000Y-42894250D01*
X31273750Y-43053000D01*
X32385000Y-43053000D01*
X32385000Y-43033000D01*
X32639000Y-43033000D01*
X32639000Y-43053000D01*
X33750250Y-43053000D01*
X33782000Y-43021250D01*
X33813750Y-43053000D01*
X34925000Y-43053000D01*
X34925000Y-43033000D01*
X35179000Y-43033000D01*
X35179000Y-43053000D01*
X36290250Y-43053000D01*
X36322000Y-43021250D01*
X36353750Y-43053000D01*
X37465000Y-43053000D01*
X37465000Y-43033000D01*
X37719000Y-43033000D01*
X37719000Y-43053000D01*
X38830250Y-43053000D01*
X38862000Y-43021250D01*
X38893750Y-43053000D01*
X40005000Y-43053000D01*
X40005000Y-43033000D01*
X40259000Y-43033000D01*
X40259000Y-43053000D01*
X40279000Y-43053000D01*
X40279000Y-43307000D01*
X40259000Y-43307000D01*
X40259000Y-44418250D01*
X40417750Y-44577000D01*
X40767691Y-44577000D01*
X41020310Y-44577000D01*
X41063383Y-44559158D01*
X41062318Y-45779682D01*
X41660428Y-47227218D01*
X42766957Y-48335680D01*
X42921134Y-48399700D01*
X40005000Y-48399700D01*
X40005000Y-44418250D01*
X40005000Y-43307000D01*
X38893750Y-43307000D01*
X38862000Y-43338750D01*
X38830250Y-43307000D01*
X37719000Y-43307000D01*
X37719000Y-44418250D01*
X37877750Y-44577000D01*
X38227691Y-44577000D01*
X38480310Y-44577000D01*
X38713699Y-44480327D01*
X38862000Y-44332025D01*
X39010301Y-44480327D01*
X39243690Y-44577000D01*
X39496309Y-44577000D01*
X39846250Y-44577000D01*
X40005000Y-44418250D01*
X40005000Y-48399700D01*
X37465000Y-48399700D01*
X37465000Y-44418250D01*
X37465000Y-43307000D01*
X36353750Y-43307000D01*
X36322000Y-43338750D01*
X36290250Y-43307000D01*
X35179000Y-43307000D01*
X35179000Y-44418250D01*
X35337750Y-44577000D01*
X35687691Y-44577000D01*
X35940310Y-44577000D01*
X36173699Y-44480327D01*
X36322000Y-44332025D01*
X36470301Y-44480327D01*
X36703690Y-44577000D01*
X36956309Y-44577000D01*
X37306250Y-44577000D01*
X37465000Y-44418250D01*
X37465000Y-48399700D01*
X34925000Y-48399700D01*
X34925000Y-44418250D01*
X34925000Y-43307000D01*
X33813750Y-43307000D01*
X33782000Y-43338750D01*
X33750250Y-43307000D01*
X32639000Y-43307000D01*
X32639000Y-44418250D01*
X32797750Y-44577000D01*
X33147691Y-44577000D01*
X33400310Y-44577000D01*
X33633699Y-44480327D01*
X33782000Y-44332025D01*
X33930301Y-44480327D01*
X34163690Y-44577000D01*
X34416309Y-44577000D01*
X34766250Y-44577000D01*
X34925000Y-44418250D01*
X34925000Y-48399700D01*
X32385000Y-48399700D01*
X32385000Y-44418250D01*
X32385000Y-43307000D01*
X31273750Y-43307000D01*
X31115000Y-43465750D01*
X31115000Y-44068309D01*
X31211673Y-44301698D01*
X31390301Y-44480327D01*
X31623690Y-44577000D01*
X31876309Y-44577000D01*
X32226250Y-44577000D01*
X32385000Y-44418250D01*
X32385000Y-48399700D01*
X31102496Y-48399700D01*
X31102496Y-34320156D01*
X30979000Y-34021272D01*
X30979000Y-33279000D01*
X28562496Y-33279000D01*
X28562496Y-26700156D01*
X28390781Y-26284573D01*
X28073100Y-25966337D01*
X27657817Y-25793897D01*
X27364259Y-25793640D01*
X27364259Y-19050000D01*
X27364259Y-17526000D01*
X27332315Y-17361356D01*
X27237258Y-17216649D01*
X27093755Y-17119784D01*
X26924000Y-17085741D01*
X25400000Y-17085741D01*
X25235356Y-17117685D01*
X25090649Y-17212742D01*
X25002583Y-17343209D01*
X25002583Y-12750188D01*
X24248000Y-11995605D01*
X24068395Y-12175210D01*
X23493417Y-12750188D01*
X23555071Y-12985800D01*
X24055480Y-13161927D01*
X24585199Y-13133148D01*
X24940929Y-12985800D01*
X25002583Y-12750188D01*
X25002583Y-17343209D01*
X24993784Y-17356245D01*
X24959741Y-17526000D01*
X24959741Y-19050000D01*
X24991685Y-19214644D01*
X25086742Y-19359351D01*
X25230245Y-19456216D01*
X25400000Y-19490259D01*
X26924000Y-19490259D01*
X27088644Y-19458315D01*
X27233351Y-19363258D01*
X27330216Y-19219755D01*
X27364259Y-19050000D01*
X27364259Y-25793640D01*
X27356007Y-25793633D01*
X27356007Y-23131580D01*
X27356007Y-20591580D01*
X27174645Y-20152650D01*
X26839116Y-19816536D01*
X26400503Y-19634408D01*
X25925580Y-19633993D01*
X25486650Y-19815355D01*
X25150536Y-20150884D01*
X24968408Y-20589497D01*
X24967993Y-21064420D01*
X25149355Y-21503350D01*
X25484884Y-21839464D01*
X25923497Y-22021592D01*
X26398420Y-22022007D01*
X26837350Y-21840645D01*
X27173464Y-21505116D01*
X27355592Y-21066503D01*
X27356007Y-20591580D01*
X27356007Y-23131580D01*
X27174645Y-22692650D01*
X26839116Y-22356536D01*
X26400503Y-22174408D01*
X25925580Y-22173993D01*
X25486650Y-22355355D01*
X25150536Y-22690884D01*
X24968408Y-23129497D01*
X24967993Y-23604420D01*
X25149355Y-24043350D01*
X25484884Y-24379464D01*
X25923497Y-24561592D01*
X26398420Y-24562007D01*
X26837350Y-24380645D01*
X27173464Y-24045116D01*
X27355592Y-23606503D01*
X27356007Y-23131580D01*
X27356007Y-25793633D01*
X27208156Y-25793504D01*
X26792573Y-25965219D01*
X26474337Y-26282900D01*
X26301897Y-26698183D01*
X26301504Y-27147844D01*
X26473219Y-27563427D01*
X26790900Y-27881663D01*
X27206183Y-28054103D01*
X27655844Y-28054496D01*
X28071427Y-27882781D01*
X28389663Y-27565100D01*
X28562103Y-27149817D01*
X28562496Y-26700156D01*
X28562496Y-33279000D01*
X26439508Y-33279000D01*
X26181321Y-34139621D01*
X26061800Y-33851071D01*
X26022496Y-33840786D01*
X26022496Y-26700156D01*
X25850781Y-26284573D01*
X25533100Y-25966337D01*
X25117817Y-25793897D01*
X24668156Y-25793504D01*
X24273400Y-25956613D01*
X24273400Y-21976000D01*
X24273400Y-17150000D01*
X24232797Y-16945877D01*
X24117171Y-16772829D01*
X21831171Y-14486829D01*
X21658123Y-14371203D01*
X21454000Y-14330600D01*
X19408590Y-14330600D01*
X19364781Y-14224573D01*
X19047100Y-13906337D01*
X18631817Y-13733897D01*
X18182156Y-13733504D01*
X17766573Y-13905219D01*
X17448337Y-14222900D01*
X17275897Y-14638183D01*
X17275504Y-15087844D01*
X17447219Y-15503427D01*
X17764900Y-15821663D01*
X18180183Y-15994103D01*
X18629844Y-15994496D01*
X19045427Y-15822781D01*
X19363663Y-15505100D01*
X19408383Y-15397400D01*
X21233058Y-15397400D01*
X22921399Y-17085741D01*
X21590000Y-17085741D01*
X21425356Y-17117685D01*
X21280649Y-17212742D01*
X21188258Y-17349616D01*
X21112327Y-17166302D01*
X20933699Y-16987673D01*
X20700310Y-16891000D01*
X20447691Y-16891000D01*
X20097750Y-16891000D01*
X19939000Y-17049750D01*
X19939000Y-18161000D01*
X19959000Y-18161000D01*
X19959000Y-18415000D01*
X19939000Y-18415000D01*
X19939000Y-18435000D01*
X19685000Y-18435000D01*
X19685000Y-18415000D01*
X19685000Y-18161000D01*
X19685000Y-17049750D01*
X19526250Y-16891000D01*
X19176309Y-16891000D01*
X18923690Y-16891000D01*
X18690301Y-16987673D01*
X18542000Y-17135974D01*
X18393699Y-16987673D01*
X18160310Y-16891000D01*
X17907691Y-16891000D01*
X17557750Y-16891000D01*
X17399000Y-17049750D01*
X17399000Y-18161000D01*
X18510250Y-18161000D01*
X18542000Y-18129250D01*
X18573750Y-18161000D01*
X19685000Y-18161000D01*
X19685000Y-18415000D01*
X18573750Y-18415000D01*
X18542000Y-18446750D01*
X18510250Y-18415000D01*
X17399000Y-18415000D01*
X17399000Y-18435000D01*
X17211927Y-18435000D01*
X17211927Y-15056520D01*
X17183148Y-14526801D01*
X17035800Y-14171071D01*
X16800188Y-14109417D01*
X16620583Y-14289022D01*
X16620583Y-13929812D01*
X16558929Y-13694200D01*
X16058520Y-13518073D01*
X15528801Y-13546852D01*
X15173071Y-13694200D01*
X15111417Y-13929812D01*
X15866000Y-14684395D01*
X16620583Y-13929812D01*
X16620583Y-14289022D01*
X16045605Y-14864000D01*
X16800188Y-15618583D01*
X17035800Y-15556929D01*
X17211927Y-15056520D01*
X17211927Y-18435000D01*
X17145000Y-18435000D01*
X17145000Y-18415000D01*
X17145000Y-18161000D01*
X17145000Y-17049750D01*
X16986250Y-16891000D01*
X16636309Y-16891000D01*
X16620583Y-16891000D01*
X16620583Y-15798188D01*
X15866000Y-15043605D01*
X15686395Y-15223210D01*
X15686395Y-14864000D01*
X14931812Y-14109417D01*
X14696200Y-14171071D01*
X14520073Y-14671480D01*
X14548852Y-15201199D01*
X14696200Y-15556929D01*
X14931812Y-15618583D01*
X15686395Y-14864000D01*
X15686395Y-15223210D01*
X15111417Y-15798188D01*
X15173071Y-16033800D01*
X15673480Y-16209927D01*
X16203199Y-16181148D01*
X16558929Y-16033800D01*
X16620583Y-15798188D01*
X16620583Y-16891000D01*
X16383690Y-16891000D01*
X16150301Y-16987673D01*
X16002000Y-17135974D01*
X15853699Y-16987673D01*
X15620310Y-16891000D01*
X15367691Y-16891000D01*
X15017750Y-16891000D01*
X14859000Y-17049750D01*
X14859000Y-18161000D01*
X15970250Y-18161000D01*
X16002000Y-18129250D01*
X16033750Y-18161000D01*
X17145000Y-18161000D01*
X17145000Y-18415000D01*
X16033750Y-18415000D01*
X16002000Y-18446750D01*
X15970250Y-18415000D01*
X14859000Y-18415000D01*
X14859000Y-18435000D01*
X14605000Y-18435000D01*
X14605000Y-18415000D01*
X14605000Y-18161000D01*
X14605000Y-17049750D01*
X14446250Y-16891000D01*
X14096309Y-16891000D01*
X13843690Y-16891000D01*
X13610301Y-16987673D01*
X13462000Y-17135974D01*
X13313699Y-16987673D01*
X13231948Y-16953810D01*
X13080310Y-16891000D01*
X12827691Y-16891000D01*
X12477750Y-16891000D01*
X12319000Y-17049750D01*
X12319000Y-18161000D01*
X13430250Y-18161000D01*
X13462000Y-18129250D01*
X13493750Y-18161000D01*
X14605000Y-18161000D01*
X14605000Y-18415000D01*
X13493750Y-18415000D01*
X13462000Y-18446750D01*
X13430250Y-18415000D01*
X12319000Y-18415000D01*
X12319000Y-18435000D01*
X12065000Y-18435000D01*
X12065000Y-18415000D01*
X12065000Y-18161000D01*
X12065000Y-17049750D01*
X11906250Y-16891000D01*
X11556309Y-16891000D01*
X11303690Y-16891000D01*
X11070301Y-16987673D01*
X10922000Y-17135974D01*
X10773699Y-16987673D01*
X10540310Y-16891000D01*
X10352259Y-16891000D01*
X10352259Y-12720000D01*
X10352259Y-11420000D01*
X10320315Y-11255356D01*
X10225258Y-11110649D01*
X10081755Y-11013784D01*
X9912000Y-10979741D01*
X8612000Y-10979741D01*
X8447356Y-11011685D01*
X8302649Y-11106742D01*
X8205784Y-11250245D01*
X8171741Y-11420000D01*
X8171741Y-12720000D01*
X8203685Y-12884644D01*
X8298742Y-13029351D01*
X8442245Y-13126216D01*
X8612000Y-13160259D01*
X9912000Y-13160259D01*
X10076644Y-13128315D01*
X10221351Y-13033258D01*
X10318216Y-12889755D01*
X10352259Y-12720000D01*
X10352259Y-16891000D01*
X10287691Y-16891000D01*
X9937750Y-16891000D01*
X9779000Y-17049750D01*
X9779000Y-18161000D01*
X10890250Y-18161000D01*
X10922000Y-18129250D01*
X10953750Y-18161000D01*
X12065000Y-18161000D01*
X12065000Y-18415000D01*
X10953750Y-18415000D01*
X10922000Y-18446750D01*
X10890250Y-18415000D01*
X9779000Y-18415000D01*
X9779000Y-18435000D01*
X9525000Y-18435000D01*
X9525000Y-18415000D01*
X9525000Y-18161000D01*
X9525000Y-17049750D01*
X9366250Y-16891000D01*
X9016309Y-16891000D01*
X8763690Y-16891000D01*
X8530301Y-16987673D01*
X8382000Y-17135974D01*
X8233699Y-16987673D01*
X8059622Y-16915567D01*
X8059622Y-12250922D01*
X8030083Y-11740572D01*
X7891611Y-11406271D01*
X7661016Y-11350590D01*
X7481410Y-11530195D01*
X7481410Y-11170984D01*
X7425729Y-10940389D01*
X6942922Y-10772378D01*
X6432572Y-10801917D01*
X6098271Y-10940389D01*
X6042590Y-11170984D01*
X6762000Y-11890395D01*
X7481410Y-11170984D01*
X7481410Y-11530195D01*
X6941605Y-12070000D01*
X7661016Y-12789410D01*
X7891611Y-12733729D01*
X8059622Y-12250922D01*
X8059622Y-16915567D01*
X8000310Y-16891000D01*
X7747691Y-16891000D01*
X7481410Y-16891000D01*
X7481410Y-12969016D01*
X6762000Y-12249605D01*
X6582395Y-12429210D01*
X6582395Y-12070000D01*
X5862984Y-11350590D01*
X5632389Y-11406271D01*
X5464378Y-11889078D01*
X5493917Y-12399428D01*
X5632389Y-12733729D01*
X5862984Y-12789410D01*
X6582395Y-12070000D01*
X6582395Y-12429210D01*
X6042590Y-12969016D01*
X6098271Y-13199611D01*
X6581078Y-13367622D01*
X7091428Y-13338083D01*
X7425729Y-13199611D01*
X7481410Y-12969016D01*
X7481410Y-16891000D01*
X7397750Y-16891000D01*
X7239000Y-17049750D01*
X7239000Y-18161000D01*
X8350250Y-18161000D01*
X8382000Y-18129250D01*
X8413750Y-18161000D01*
X9525000Y-18161000D01*
X9525000Y-18415000D01*
X8413750Y-18415000D01*
X8382000Y-18446750D01*
X8350250Y-18415000D01*
X7239000Y-18415000D01*
X7239000Y-18435000D01*
X6985000Y-18435000D01*
X6985000Y-18415000D01*
X6985000Y-18161000D01*
X6985000Y-17049750D01*
X6826250Y-16891000D01*
X6476309Y-16891000D01*
X6223690Y-16891000D01*
X5990301Y-16987673D01*
X5811673Y-17166302D01*
X5715000Y-17399691D01*
X5715000Y-18002250D01*
X5873750Y-18161000D01*
X6985000Y-18161000D01*
X6985000Y-18415000D01*
X5873750Y-18415000D01*
X5715000Y-18573750D01*
X5715000Y-19176309D01*
X5811673Y-19409698D01*
X5990301Y-19588327D01*
X6223690Y-19685000D01*
X6476309Y-19685000D01*
X6752133Y-19685000D01*
X6436650Y-19815355D01*
X6100536Y-20150884D01*
X5918408Y-20589497D01*
X5917993Y-21064420D01*
X6099355Y-21503350D01*
X6434884Y-21839464D01*
X6873497Y-22021592D01*
X7348420Y-22022007D01*
X7787350Y-21840645D01*
X8123464Y-21505116D01*
X8305592Y-21066503D01*
X8306007Y-20591580D01*
X8124645Y-20152650D01*
X7789116Y-19816536D01*
X7472342Y-19685000D01*
X7747691Y-19685000D01*
X8000310Y-19685000D01*
X8233699Y-19588327D01*
X8382000Y-19440025D01*
X8530301Y-19588327D01*
X8763690Y-19685000D01*
X9016309Y-19685000D01*
X9292133Y-19685000D01*
X8976650Y-19815355D01*
X8640536Y-20150884D01*
X8458408Y-20589497D01*
X8457993Y-21064420D01*
X8639355Y-21503350D01*
X8974884Y-21839464D01*
X9413497Y-22021592D01*
X9888420Y-22022007D01*
X10327350Y-21840645D01*
X10663464Y-21505116D01*
X10845592Y-21066503D01*
X10846007Y-20591580D01*
X10664645Y-20152650D01*
X10329116Y-19816536D01*
X10012342Y-19685000D01*
X10287691Y-19685000D01*
X10540310Y-19685000D01*
X10773699Y-19588327D01*
X10922000Y-19440025D01*
X11070301Y-19588327D01*
X11303690Y-19685000D01*
X11556309Y-19685000D01*
X11832133Y-19685000D01*
X11516650Y-19815355D01*
X11180536Y-20150884D01*
X10998408Y-20589497D01*
X10997993Y-21064420D01*
X11179355Y-21503350D01*
X11514884Y-21839464D01*
X11953497Y-22021592D01*
X12428420Y-22022007D01*
X12867350Y-21840645D01*
X13203464Y-21505116D01*
X13385592Y-21066503D01*
X13386007Y-20591580D01*
X13204645Y-20152650D01*
X12869116Y-19816536D01*
X12552342Y-19685000D01*
X12827691Y-19685000D01*
X13080310Y-19685000D01*
X13313699Y-19588327D01*
X13462000Y-19440025D01*
X13610301Y-19588327D01*
X13843690Y-19685000D01*
X14096309Y-19685000D01*
X14372133Y-19685000D01*
X14056650Y-19815355D01*
X13720536Y-20150884D01*
X13538408Y-20589497D01*
X13537993Y-21064420D01*
X13719355Y-21503350D01*
X14054884Y-21839464D01*
X14493497Y-22021592D01*
X14968420Y-22022007D01*
X15407350Y-21840645D01*
X15743464Y-21505116D01*
X15925592Y-21066503D01*
X15926007Y-20591580D01*
X15744645Y-20152650D01*
X15409116Y-19816536D01*
X15092342Y-19685000D01*
X15367691Y-19685000D01*
X15620310Y-19685000D01*
X15853699Y-19588327D01*
X16002000Y-19440025D01*
X16150301Y-19588327D01*
X16383690Y-19685000D01*
X16636309Y-19685000D01*
X16912133Y-19685000D01*
X16596650Y-19815355D01*
X16260536Y-20150884D01*
X16078408Y-20589497D01*
X16077993Y-21064420D01*
X16259355Y-21503350D01*
X16594884Y-21839464D01*
X17033497Y-22021592D01*
X17508420Y-22022007D01*
X17947350Y-21840645D01*
X18283464Y-21505116D01*
X18465592Y-21066503D01*
X18466007Y-20591580D01*
X18284645Y-20152650D01*
X17949116Y-19816536D01*
X17632342Y-19685000D01*
X17907691Y-19685000D01*
X18160310Y-19685000D01*
X18393699Y-19588327D01*
X18542000Y-19440025D01*
X18690301Y-19588327D01*
X18923690Y-19685000D01*
X19176309Y-19685000D01*
X19452133Y-19685000D01*
X19136650Y-19815355D01*
X18800536Y-20150884D01*
X18618408Y-20589497D01*
X18617993Y-21064420D01*
X18799355Y-21503350D01*
X19134884Y-21839464D01*
X19573497Y-22021592D01*
X20048420Y-22022007D01*
X20487350Y-21840645D01*
X20823464Y-21505116D01*
X21005592Y-21066503D01*
X21006007Y-20591580D01*
X20824645Y-20152650D01*
X20489116Y-19816536D01*
X20172342Y-19685000D01*
X20447691Y-19685000D01*
X20700310Y-19685000D01*
X20933699Y-19588327D01*
X21112327Y-19409698D01*
X21188698Y-19225320D01*
X21276742Y-19359351D01*
X21420245Y-19456216D01*
X21590000Y-19490259D01*
X23114000Y-19490259D01*
X23206600Y-19472292D01*
X23206600Y-19994329D01*
X23029116Y-19816536D01*
X22590503Y-19634408D01*
X22115580Y-19633993D01*
X21676650Y-19815355D01*
X21340536Y-20150884D01*
X21158408Y-20589497D01*
X21157993Y-21064420D01*
X21339355Y-21503350D01*
X21674884Y-21839464D01*
X22113497Y-22021592D01*
X22588420Y-22022007D01*
X23027350Y-21840645D01*
X23206600Y-21661706D01*
X23206600Y-21755058D01*
X22729523Y-22232134D01*
X22590503Y-22174408D01*
X22115580Y-22173993D01*
X21676650Y-22355355D01*
X21340536Y-22690884D01*
X21158408Y-23129497D01*
X21157993Y-23604420D01*
X21339355Y-24043350D01*
X21674884Y-24379464D01*
X22113497Y-24561592D01*
X22588420Y-24562007D01*
X23027350Y-24380645D01*
X23363464Y-24045116D01*
X23545592Y-23606503D01*
X23546007Y-23131580D01*
X23485412Y-22984929D01*
X24117167Y-22353173D01*
X24117170Y-22353171D01*
X24117171Y-22353171D01*
X24186483Y-22249436D01*
X24232797Y-22180124D01*
X24232797Y-22180123D01*
X24273400Y-21976000D01*
X24273400Y-25956613D01*
X24252573Y-25965219D01*
X23934337Y-26282900D01*
X23761897Y-26698183D01*
X23761504Y-27147844D01*
X23933219Y-27563427D01*
X24250900Y-27881663D01*
X24666183Y-28054103D01*
X25115844Y-28054496D01*
X25531427Y-27882781D01*
X25849663Y-27565100D01*
X26022103Y-27149817D01*
X26022496Y-26700156D01*
X26022496Y-33840786D01*
X25826188Y-33789417D01*
X25646583Y-33969022D01*
X25646583Y-33609812D01*
X25584929Y-33374200D01*
X25084520Y-33198073D01*
X24554801Y-33226852D01*
X24199071Y-33374200D01*
X24137417Y-33609812D01*
X24892000Y-34364395D01*
X25646583Y-33609812D01*
X25646583Y-33969022D01*
X25071605Y-34544000D01*
X25085747Y-34558142D01*
X24906142Y-34737747D01*
X24892000Y-34723605D01*
X24712395Y-34903210D01*
X24712395Y-34544000D01*
X23957812Y-33789417D01*
X23722200Y-33851071D01*
X23546073Y-34351480D01*
X23574852Y-34881199D01*
X23722200Y-35236929D01*
X23957812Y-35298583D01*
X24712395Y-34544000D01*
X24712395Y-34903210D01*
X24137417Y-35478188D01*
X24199071Y-35713800D01*
X24497963Y-35819000D01*
X24438500Y-35819000D01*
X23676500Y-36835000D01*
X22551374Y-36835000D01*
X22584148Y-36756072D01*
X22584452Y-36407458D01*
X22451324Y-36085264D01*
X22205032Y-35838542D01*
X21883072Y-35704852D01*
X21713045Y-35704703D01*
X21606400Y-35598058D01*
X21606400Y-35396980D01*
X21710900Y-35501663D01*
X22126183Y-35674103D01*
X22575844Y-35674496D01*
X22991427Y-35502781D01*
X23309663Y-35185100D01*
X23482103Y-34769817D01*
X23482496Y-34320156D01*
X23310781Y-33904573D01*
X22993100Y-33586337D01*
X22577817Y-33413897D01*
X22128156Y-33413504D01*
X21712573Y-33585219D01*
X21606400Y-33691206D01*
X21606400Y-33106770D01*
X24800243Y-29912926D01*
X24997736Y-29831324D01*
X25244458Y-29585032D01*
X25378148Y-29263072D01*
X25378452Y-28914458D01*
X25245324Y-28592264D01*
X24999032Y-28345542D01*
X24677072Y-28211852D01*
X24328458Y-28211548D01*
X24006264Y-28344676D01*
X23759542Y-28590968D01*
X23697927Y-28739352D01*
X23697927Y-27116520D01*
X23669148Y-26586801D01*
X23521800Y-26231071D01*
X23286188Y-26169417D01*
X23106583Y-26349022D01*
X23106583Y-25989812D01*
X23044929Y-25754200D01*
X22544520Y-25578073D01*
X22014801Y-25606852D01*
X21659071Y-25754200D01*
X21597417Y-25989812D01*
X22352000Y-26744395D01*
X23106583Y-25989812D01*
X23106583Y-26349022D01*
X22531605Y-26924000D01*
X23286188Y-27678583D01*
X23521800Y-27616929D01*
X23697927Y-27116520D01*
X23697927Y-28739352D01*
X23625852Y-28912928D01*
X23625803Y-28968026D01*
X23106583Y-29487246D01*
X23106583Y-27858188D01*
X22352000Y-27103605D01*
X22172395Y-27283210D01*
X22172395Y-26924000D01*
X21417812Y-26169417D01*
X21182200Y-26231071D01*
X21006073Y-26731480D01*
X21034852Y-27261199D01*
X21182200Y-27616929D01*
X21417812Y-27678583D01*
X22172395Y-26924000D01*
X22172395Y-27283210D01*
X21597417Y-27858188D01*
X21659071Y-28093800D01*
X22159480Y-28269927D01*
X22689199Y-28241148D01*
X23044929Y-28093800D01*
X23106583Y-27858188D01*
X23106583Y-29487246D01*
X21006007Y-31587822D01*
X21006007Y-23131580D01*
X20824645Y-22692650D01*
X20489116Y-22356536D01*
X20050503Y-22174408D01*
X19575580Y-22173993D01*
X19136650Y-22355355D01*
X18800536Y-22690884D01*
X18618408Y-23129497D01*
X18617993Y-23604420D01*
X18799355Y-24043350D01*
X19134884Y-24379464D01*
X19573497Y-24561592D01*
X20048420Y-24562007D01*
X20487350Y-24380645D01*
X20823464Y-24045116D01*
X21005592Y-23606503D01*
X21006007Y-23131580D01*
X21006007Y-31587822D01*
X20942496Y-31651333D01*
X20942496Y-26700156D01*
X20770781Y-26284573D01*
X20453100Y-25966337D01*
X20037817Y-25793897D01*
X19588156Y-25793504D01*
X19172573Y-25965219D01*
X18854337Y-26282900D01*
X18681897Y-26698183D01*
X18681504Y-27147844D01*
X18853219Y-27563427D01*
X19170900Y-27881663D01*
X19586183Y-28054103D01*
X20035844Y-28054496D01*
X20451427Y-27882781D01*
X20769663Y-27565100D01*
X20942103Y-27149817D01*
X20942496Y-26700156D01*
X20942496Y-31651333D01*
X20543165Y-32050665D01*
X20380737Y-32293755D01*
X20323700Y-32580500D01*
X20380737Y-32867245D01*
X20539600Y-33104999D01*
X20539600Y-33672988D01*
X20453100Y-33586337D01*
X20037817Y-33413897D01*
X19588156Y-33413504D01*
X19172573Y-33585219D01*
X18854337Y-33902900D01*
X18681897Y-34318183D01*
X18681504Y-34767844D01*
X18853219Y-35183427D01*
X19170900Y-35501663D01*
X19586183Y-35674103D01*
X20035844Y-35674496D01*
X20451427Y-35502781D01*
X20539600Y-35414761D01*
X20539600Y-35819000D01*
X20580203Y-36023123D01*
X20695829Y-36196171D01*
X20853485Y-36353827D01*
X20831852Y-36405928D01*
X20831548Y-36754542D01*
X20964676Y-37076736D01*
X21210968Y-37323458D01*
X21532928Y-37457148D01*
X21881542Y-37457452D01*
X22203736Y-37324324D01*
X22343000Y-37185302D01*
X22343000Y-37821131D01*
X22196977Y-37966900D01*
X22024537Y-38382183D01*
X22024144Y-38831844D01*
X22195859Y-39247427D01*
X22343000Y-39394825D01*
X22343000Y-39883000D01*
X24121000Y-39883000D01*
X24121000Y-39311500D01*
X24401453Y-39101160D01*
X24484200Y-39300929D01*
X24719812Y-39362583D01*
X25469395Y-38613000D01*
X25838605Y-38613000D01*
X26588188Y-39362583D01*
X26823800Y-39300929D01*
X26913752Y-39045357D01*
X27169000Y-39300605D01*
X27169000Y-39883000D01*
X28884672Y-39883000D01*
X30979000Y-37003298D01*
X30979000Y-35066282D01*
X31102103Y-34769817D01*
X31102496Y-34320156D01*
X31102496Y-48399700D01*
X29149927Y-48399700D01*
X29149927Y-44012520D01*
X29121148Y-43482801D01*
X28973800Y-43127071D01*
X28738188Y-43065417D01*
X28558583Y-43245022D01*
X28558583Y-42885812D01*
X28496929Y-42650200D01*
X27996520Y-42474073D01*
X27466801Y-42502852D01*
X27111071Y-42650200D01*
X27049417Y-42885812D01*
X27804000Y-43640395D01*
X28558583Y-42885812D01*
X28558583Y-43245022D01*
X27983605Y-43820000D01*
X28738188Y-44574583D01*
X28973800Y-44512929D01*
X29149927Y-44012520D01*
X29149927Y-48399700D01*
X28558583Y-48399700D01*
X28558583Y-44754188D01*
X27804000Y-43999605D01*
X27624395Y-44179210D01*
X27624395Y-43820000D01*
X26869812Y-43065417D01*
X26634200Y-43127071D01*
X26458073Y-43627480D01*
X26486852Y-44157199D01*
X26634200Y-44512929D01*
X26869812Y-44574583D01*
X27624395Y-43820000D01*
X27624395Y-44179210D01*
X27049417Y-44754188D01*
X27111071Y-44989800D01*
X27611480Y-45165927D01*
X28141199Y-45137148D01*
X28496929Y-44989800D01*
X28558583Y-44754188D01*
X28558583Y-48399700D01*
X26408583Y-48399700D01*
X26408583Y-39542188D01*
X25654000Y-38787605D01*
X24899417Y-39542188D01*
X24961071Y-39777800D01*
X25461480Y-39953927D01*
X25991199Y-39925148D01*
X26346929Y-39777800D01*
X26408583Y-39542188D01*
X26408583Y-48399700D01*
X26394496Y-48399700D01*
X26394496Y-43596156D01*
X26222781Y-43180573D01*
X25905100Y-42862337D01*
X25489817Y-42689897D01*
X25040156Y-42689504D01*
X24624573Y-42861219D01*
X24306337Y-43178900D01*
X24133897Y-43594183D01*
X24133504Y-44043844D01*
X24305219Y-44459427D01*
X24622900Y-44777663D01*
X25038183Y-44950103D01*
X25487844Y-44950496D01*
X25903427Y-44778781D01*
X26221663Y-44461100D01*
X26394103Y-44045817D01*
X26394496Y-43596156D01*
X26394496Y-48399700D01*
X24544007Y-48399700D01*
X24544007Y-46763580D01*
X24362645Y-46324650D01*
X24027116Y-45988536D01*
X23883400Y-45928859D01*
X23883400Y-41850000D01*
X23842797Y-41645877D01*
X23842797Y-41645876D01*
X23727171Y-41472829D01*
X21277171Y-39022829D01*
X21104123Y-38907203D01*
X20900000Y-38866600D01*
X20733823Y-38866600D01*
X20823464Y-38777116D01*
X21005592Y-38338503D01*
X21006007Y-37863580D01*
X20824645Y-37424650D01*
X20489116Y-37088536D01*
X20050503Y-36906408D01*
X19575580Y-36905993D01*
X19136650Y-37087355D01*
X18800536Y-37422884D01*
X18618408Y-37861497D01*
X18617993Y-38336420D01*
X18799355Y-38775350D01*
X18890446Y-38866600D01*
X18193823Y-38866600D01*
X18283464Y-38777116D01*
X18465592Y-38338503D01*
X18466007Y-37863580D01*
X18466007Y-23131580D01*
X18284645Y-22692650D01*
X17949116Y-22356536D01*
X17510503Y-22174408D01*
X17035580Y-22173993D01*
X16596650Y-22355355D01*
X16260536Y-22690884D01*
X16078408Y-23129497D01*
X16077993Y-23604420D01*
X16259355Y-24043350D01*
X16594884Y-24379464D01*
X17033497Y-24561592D01*
X17508420Y-24562007D01*
X17947350Y-24380645D01*
X18283464Y-24045116D01*
X18465592Y-23606503D01*
X18466007Y-23131580D01*
X18466007Y-37863580D01*
X18402496Y-37709871D01*
X18402496Y-34320156D01*
X18402496Y-26700156D01*
X18230781Y-26284573D01*
X17913100Y-25966337D01*
X17497817Y-25793897D01*
X17048156Y-25793504D01*
X16632573Y-25965219D01*
X16314337Y-26282900D01*
X16141897Y-26698183D01*
X16141504Y-27147844D01*
X16313219Y-27563427D01*
X16630900Y-27881663D01*
X17046183Y-28054103D01*
X17495844Y-28054496D01*
X17911427Y-27882781D01*
X18229663Y-27565100D01*
X18402103Y-27149817D01*
X18402496Y-26700156D01*
X18402496Y-34320156D01*
X18230781Y-33904573D01*
X17913100Y-33586337D01*
X17497817Y-33413897D01*
X17048156Y-33413504D01*
X16632573Y-33585219D01*
X16314337Y-33902900D01*
X16141897Y-34318183D01*
X16141504Y-34767844D01*
X16313219Y-35183427D01*
X16630900Y-35501663D01*
X17046183Y-35674103D01*
X17495844Y-35674496D01*
X17911427Y-35502781D01*
X18229663Y-35185100D01*
X18402103Y-34769817D01*
X18402496Y-34320156D01*
X18402496Y-37709871D01*
X18284645Y-37424650D01*
X17949116Y-37088536D01*
X17510503Y-36906408D01*
X17035580Y-36905993D01*
X16596650Y-37087355D01*
X16260536Y-37422884D01*
X16078408Y-37861497D01*
X16077993Y-38336420D01*
X16259355Y-38775350D01*
X16350446Y-38866600D01*
X15653823Y-38866600D01*
X15743464Y-38777116D01*
X15925592Y-38338503D01*
X15926007Y-37863580D01*
X15926007Y-23131580D01*
X15744645Y-22692650D01*
X15409116Y-22356536D01*
X14970503Y-22174408D01*
X14495580Y-22173993D01*
X14056650Y-22355355D01*
X13720536Y-22690884D01*
X13538408Y-23129497D01*
X13537993Y-23604420D01*
X13719355Y-24043350D01*
X14054884Y-24379464D01*
X14493497Y-24561592D01*
X14968420Y-24562007D01*
X15407350Y-24380645D01*
X15743464Y-24045116D01*
X15925592Y-23606503D01*
X15926007Y-23131580D01*
X15926007Y-37863580D01*
X15862496Y-37709871D01*
X15862496Y-34320156D01*
X15862496Y-26700156D01*
X15690781Y-26284573D01*
X15373100Y-25966337D01*
X14957817Y-25793897D01*
X14508156Y-25793504D01*
X14092573Y-25965219D01*
X13774337Y-26282900D01*
X13601897Y-26698183D01*
X13601504Y-27147844D01*
X13773219Y-27563427D01*
X14090900Y-27881663D01*
X14506183Y-28054103D01*
X14955844Y-28054496D01*
X15371427Y-27882781D01*
X15689663Y-27565100D01*
X15862103Y-27149817D01*
X15862496Y-26700156D01*
X15862496Y-34320156D01*
X15690781Y-33904573D01*
X15373100Y-33586337D01*
X14957817Y-33413897D01*
X14508156Y-33413504D01*
X14092573Y-33585219D01*
X13774337Y-33902900D01*
X13601897Y-34318183D01*
X13601504Y-34767844D01*
X13773219Y-35183427D01*
X14090900Y-35501663D01*
X14506183Y-35674103D01*
X14955844Y-35674496D01*
X15371427Y-35502781D01*
X15689663Y-35185100D01*
X15862103Y-34769817D01*
X15862496Y-34320156D01*
X15862496Y-37709871D01*
X15744645Y-37424650D01*
X15409116Y-37088536D01*
X14970503Y-36906408D01*
X14495580Y-36905993D01*
X14056650Y-37087355D01*
X13720536Y-37422884D01*
X13538408Y-37861497D01*
X13537993Y-38336420D01*
X13719355Y-38775350D01*
X13810446Y-38866600D01*
X13113823Y-38866600D01*
X13203464Y-38777116D01*
X13385592Y-38338503D01*
X13386007Y-37863580D01*
X13386007Y-23131580D01*
X13204645Y-22692650D01*
X12869116Y-22356536D01*
X12430503Y-22174408D01*
X11955580Y-22173993D01*
X11516650Y-22355355D01*
X11180536Y-22690884D01*
X10998408Y-23129497D01*
X10997993Y-23604420D01*
X11179355Y-24043350D01*
X11514884Y-24379464D01*
X11953497Y-24561592D01*
X12428420Y-24562007D01*
X12867350Y-24380645D01*
X13203464Y-24045116D01*
X13385592Y-23606503D01*
X13386007Y-23131580D01*
X13386007Y-37863580D01*
X13322496Y-37709871D01*
X13322496Y-34320156D01*
X13322496Y-26700156D01*
X13150781Y-26284573D01*
X12833100Y-25966337D01*
X12417817Y-25793897D01*
X11968156Y-25793504D01*
X11552573Y-25965219D01*
X11234337Y-26282900D01*
X11061897Y-26698183D01*
X11061504Y-27147844D01*
X11233219Y-27563427D01*
X11550900Y-27881663D01*
X11966183Y-28054103D01*
X12415844Y-28054496D01*
X12831427Y-27882781D01*
X13149663Y-27565100D01*
X13322103Y-27149817D01*
X13322496Y-26700156D01*
X13322496Y-34320156D01*
X13150781Y-33904573D01*
X12833100Y-33586337D01*
X12417817Y-33413897D01*
X11968156Y-33413504D01*
X11552573Y-33585219D01*
X11234337Y-33902900D01*
X11061897Y-34318183D01*
X11061504Y-34767844D01*
X11233219Y-35183427D01*
X11550900Y-35501663D01*
X11966183Y-35674103D01*
X12415844Y-35674496D01*
X12831427Y-35502781D01*
X13149663Y-35185100D01*
X13322103Y-34769817D01*
X13322496Y-34320156D01*
X13322496Y-37709871D01*
X13204645Y-37424650D01*
X12869116Y-37088536D01*
X12430503Y-36906408D01*
X11955580Y-36905993D01*
X11516650Y-37087355D01*
X11180536Y-37422884D01*
X10998408Y-37861497D01*
X10997993Y-38336420D01*
X11179355Y-38775350D01*
X11270446Y-38866600D01*
X10573823Y-38866600D01*
X10663464Y-38777116D01*
X10845592Y-38338503D01*
X10846007Y-37863580D01*
X10846007Y-23131580D01*
X10664645Y-22692650D01*
X10329116Y-22356536D01*
X9890503Y-22174408D01*
X9415580Y-22173993D01*
X8976650Y-22355355D01*
X8640536Y-22690884D01*
X8458408Y-23129497D01*
X8457993Y-23604420D01*
X8639355Y-24043350D01*
X8974884Y-24379464D01*
X9413497Y-24561592D01*
X9888420Y-24562007D01*
X10327350Y-24380645D01*
X10663464Y-24045116D01*
X10845592Y-23606503D01*
X10846007Y-23131580D01*
X10846007Y-37863580D01*
X10782496Y-37709871D01*
X10782496Y-34320156D01*
X10782496Y-26700156D01*
X10610781Y-26284573D01*
X10293100Y-25966337D01*
X9877817Y-25793897D01*
X9428156Y-25793504D01*
X9012573Y-25965219D01*
X8694337Y-26282900D01*
X8521897Y-26698183D01*
X8521504Y-27147844D01*
X8693219Y-27563427D01*
X9010900Y-27881663D01*
X9426183Y-28054103D01*
X9875844Y-28054496D01*
X10291427Y-27882781D01*
X10609663Y-27565100D01*
X10782103Y-27149817D01*
X10782496Y-26700156D01*
X10782496Y-34320156D01*
X10610781Y-33904573D01*
X10293100Y-33586337D01*
X9877817Y-33413897D01*
X9428156Y-33413504D01*
X9012573Y-33585219D01*
X8694337Y-33902900D01*
X8521897Y-34318183D01*
X8521504Y-34767844D01*
X8693219Y-35183427D01*
X9010900Y-35501663D01*
X9426183Y-35674103D01*
X9875844Y-35674496D01*
X10291427Y-35502781D01*
X10609663Y-35185100D01*
X10782103Y-34769817D01*
X10782496Y-34320156D01*
X10782496Y-37709871D01*
X10664645Y-37424650D01*
X10329116Y-37088536D01*
X9890503Y-36906408D01*
X9415580Y-36905993D01*
X8976650Y-37087355D01*
X8640536Y-37422884D01*
X8458408Y-37861497D01*
X8457993Y-38336420D01*
X8639355Y-38775350D01*
X8730446Y-38866600D01*
X8306007Y-38866600D01*
X8306007Y-23131580D01*
X8124645Y-22692650D01*
X7789116Y-22356536D01*
X7350503Y-22174408D01*
X6875580Y-22173993D01*
X6436650Y-22355355D01*
X6100536Y-22690884D01*
X5918408Y-23129497D01*
X5917993Y-23604420D01*
X6099355Y-24043350D01*
X6434884Y-24379464D01*
X6873497Y-24561592D01*
X7348420Y-24562007D01*
X7787350Y-24380645D01*
X8123464Y-24045116D01*
X8305592Y-23606503D01*
X8306007Y-23131580D01*
X8306007Y-38866600D01*
X5904362Y-38866600D01*
X6074103Y-38457817D01*
X6074496Y-38008156D01*
X5902781Y-37592573D01*
X5585100Y-37274337D01*
X5169817Y-37101897D01*
X4974943Y-37101726D01*
X6397183Y-35679486D01*
X6413500Y-35682759D01*
X7810500Y-35682759D01*
X7975144Y-35650815D01*
X8119851Y-35555758D01*
X8216716Y-35412255D01*
X8250759Y-35242500D01*
X8250759Y-33845500D01*
X8242496Y-33802911D01*
X8242496Y-26700156D01*
X8070781Y-26284573D01*
X7753100Y-25966337D01*
X7337817Y-25793897D01*
X6888156Y-25793504D01*
X6472573Y-25965219D01*
X6154337Y-26282900D01*
X5981897Y-26698183D01*
X5981504Y-27147844D01*
X6153219Y-27563427D01*
X6470900Y-27881663D01*
X6886183Y-28054103D01*
X7335844Y-28054496D01*
X7751427Y-27882781D01*
X8069663Y-27565100D01*
X8242103Y-27149817D01*
X8242496Y-26700156D01*
X8242496Y-33802911D01*
X8218815Y-33680856D01*
X8123758Y-33536149D01*
X7980255Y-33439284D01*
X7810500Y-33405241D01*
X6413500Y-33405241D01*
X6248856Y-33437185D01*
X6104149Y-33532242D01*
X6007284Y-33675745D01*
X5973241Y-33845500D01*
X5973241Y-33994068D01*
X5943165Y-34014165D01*
X3869259Y-36088070D01*
X3869259Y-35687000D01*
X3869259Y-33909000D01*
X3861029Y-33866581D01*
X3861029Y-24376429D01*
X3734007Y-24069012D01*
X3734007Y-21861580D01*
X3734007Y-11701580D01*
X3552645Y-11262650D01*
X3217116Y-10926536D01*
X2778503Y-10744408D01*
X2303580Y-10743993D01*
X1864650Y-10925355D01*
X1528536Y-11260884D01*
X1346408Y-11699497D01*
X1345993Y-12174420D01*
X1527355Y-12613350D01*
X1862884Y-12949464D01*
X2301497Y-13131592D01*
X2776420Y-13132007D01*
X3215350Y-12950645D01*
X3551464Y-12615116D01*
X3733592Y-12176503D01*
X3734007Y-11701580D01*
X3734007Y-21861580D01*
X3552645Y-21422650D01*
X3217116Y-21086536D01*
X2778503Y-20904408D01*
X2303580Y-20903993D01*
X1864650Y-21085355D01*
X1528536Y-21420884D01*
X1346408Y-21859497D01*
X1345993Y-22334420D01*
X1527355Y-22773350D01*
X1862884Y-23109464D01*
X2301497Y-23291592D01*
X2776420Y-23292007D01*
X3215350Y-23110645D01*
X3551464Y-22775116D01*
X3733592Y-22336503D01*
X3734007Y-21861580D01*
X3734007Y-24069012D01*
X3660373Y-23890804D01*
X3289150Y-23518933D01*
X2803876Y-23317430D01*
X2278429Y-23316971D01*
X1792804Y-23517627D01*
X1420933Y-23888850D01*
X1219430Y-24374124D01*
X1218971Y-24899571D01*
X1419627Y-25385196D01*
X1790850Y-25757067D01*
X2276124Y-25958570D01*
X2801571Y-25959029D01*
X3287196Y-25758373D01*
X3659067Y-25387150D01*
X3860570Y-24901876D01*
X3861029Y-24376429D01*
X3861029Y-33866581D01*
X3837315Y-33744356D01*
X3742258Y-33599649D01*
X3598755Y-33502784D01*
X3429000Y-33468741D01*
X1651000Y-33468741D01*
X1486356Y-33500685D01*
X1341649Y-33595742D01*
X1244784Y-33739245D01*
X1210741Y-33909000D01*
X1210741Y-35687000D01*
X1242685Y-35851644D01*
X1337742Y-35996351D01*
X1481245Y-36093216D01*
X1651000Y-36127259D01*
X3429000Y-36127259D01*
X3593644Y-36095315D01*
X3738351Y-36000258D01*
X3835216Y-35856755D01*
X3869259Y-35687000D01*
X3869259Y-36088070D01*
X2789236Y-37168093D01*
X2629817Y-37101897D01*
X2180156Y-37101504D01*
X1764573Y-37273219D01*
X1446337Y-37590900D01*
X1273897Y-38006183D01*
X1273504Y-38455844D01*
X1445219Y-38871427D01*
X1762900Y-39189663D01*
X1950006Y-39267356D01*
X1999255Y-39300263D01*
X2056840Y-39311717D01*
X2178183Y-39362103D01*
X2627844Y-39362496D01*
X3043427Y-39190781D01*
X3361663Y-38873100D01*
X3473923Y-38602746D01*
X3813672Y-38262997D01*
X3813504Y-38455844D01*
X3985219Y-38871427D01*
X4302900Y-39189663D01*
X4718183Y-39362103D01*
X4825855Y-39362197D01*
X5240829Y-39777171D01*
X5413877Y-39892797D01*
X5618000Y-39933400D01*
X8670071Y-39933400D01*
X8640536Y-39962884D01*
X8458408Y-40401497D01*
X8457993Y-40876420D01*
X8639355Y-41315350D01*
X8974884Y-41651464D01*
X9291657Y-41783000D01*
X9016309Y-41783000D01*
X8763690Y-41783000D01*
X8530301Y-41879673D01*
X8351673Y-42058302D01*
X8255000Y-42291691D01*
X8255000Y-42894250D01*
X8413750Y-43053000D01*
X9525000Y-43053000D01*
X9525000Y-43033000D01*
X9779000Y-43033000D01*
X9779000Y-43053000D01*
X10890250Y-43053000D01*
X10922000Y-43021250D01*
X10953750Y-43053000D01*
X12065000Y-43053000D01*
X12065000Y-43033000D01*
X12319000Y-43033000D01*
X12319000Y-43053000D01*
X13430250Y-43053000D01*
X13462000Y-43021250D01*
X13493750Y-43053000D01*
X14605000Y-43053000D01*
X14605000Y-43033000D01*
X14859000Y-43033000D01*
X14859000Y-43053000D01*
X15970250Y-43053000D01*
X16002000Y-43021250D01*
X16033750Y-43053000D01*
X17145000Y-43053000D01*
X17145000Y-43033000D01*
X17399000Y-43033000D01*
X17399000Y-43053000D01*
X18510250Y-43053000D01*
X18542000Y-43021250D01*
X18573750Y-43053000D01*
X19685000Y-43053000D01*
X19685000Y-43033000D01*
X19939000Y-43033000D01*
X19939000Y-43053000D01*
X21050250Y-43053000D01*
X21209000Y-42894250D01*
X21209000Y-42291691D01*
X21112327Y-42058302D01*
X20933699Y-41879673D01*
X20700310Y-41783000D01*
X20447691Y-41783000D01*
X20171866Y-41783000D01*
X20487350Y-41652645D01*
X20823464Y-41317116D01*
X21005592Y-40878503D01*
X21006007Y-40403580D01*
X20905153Y-40159495D01*
X22816600Y-42070942D01*
X22816600Y-43977493D01*
X22597032Y-43757542D01*
X22275072Y-43623852D01*
X21926458Y-43623548D01*
X21604264Y-43756676D01*
X21357542Y-44002968D01*
X21223852Y-44324928D01*
X21223548Y-44673542D01*
X21340666Y-44956991D01*
X21233058Y-45064600D01*
X21209000Y-45064600D01*
X21209000Y-44068309D01*
X21209000Y-43465750D01*
X21050250Y-43307000D01*
X19939000Y-43307000D01*
X19939000Y-44418250D01*
X20097750Y-44577000D01*
X20447691Y-44577000D01*
X20700310Y-44577000D01*
X20933699Y-44480327D01*
X21112327Y-44301698D01*
X21209000Y-44068309D01*
X21209000Y-45064600D01*
X19685000Y-45064600D01*
X19685000Y-44418250D01*
X19685000Y-43307000D01*
X18573750Y-43307000D01*
X18542000Y-43338750D01*
X18510250Y-43307000D01*
X17399000Y-43307000D01*
X17399000Y-44418250D01*
X17557750Y-44577000D01*
X17907691Y-44577000D01*
X18160310Y-44577000D01*
X18393699Y-44480327D01*
X18542000Y-44332025D01*
X18690301Y-44480327D01*
X18923690Y-44577000D01*
X19176309Y-44577000D01*
X19526250Y-44577000D01*
X19685000Y-44418250D01*
X19685000Y-45064600D01*
X17145000Y-45064600D01*
X17145000Y-44418250D01*
X17145000Y-43307000D01*
X16033750Y-43307000D01*
X16002000Y-43338750D01*
X15970250Y-43307000D01*
X14859000Y-43307000D01*
X14859000Y-44418250D01*
X15017750Y-44577000D01*
X15367691Y-44577000D01*
X15620310Y-44577000D01*
X15853699Y-44480327D01*
X16002000Y-44332025D01*
X16150301Y-44480327D01*
X16383690Y-44577000D01*
X16636309Y-44577000D01*
X16986250Y-44577000D01*
X17145000Y-44418250D01*
X17145000Y-45064600D01*
X17136000Y-45064600D01*
X16931876Y-45105203D01*
X16862563Y-45151516D01*
X16758829Y-45220829D01*
X16758826Y-45220832D01*
X16113176Y-45866481D01*
X15968503Y-45806408D01*
X15493580Y-45805993D01*
X15054650Y-45987355D01*
X14718536Y-46322884D01*
X14605000Y-46596307D01*
X14605000Y-44418250D01*
X14605000Y-43307000D01*
X13493750Y-43307000D01*
X13462000Y-43338750D01*
X13430250Y-43307000D01*
X12319000Y-43307000D01*
X12319000Y-44418250D01*
X12477750Y-44577000D01*
X12827691Y-44577000D01*
X13080310Y-44577000D01*
X13313699Y-44480327D01*
X13462000Y-44332025D01*
X13610301Y-44480327D01*
X13843690Y-44577000D01*
X14096309Y-44577000D01*
X14446250Y-44577000D01*
X14605000Y-44418250D01*
X14605000Y-46596307D01*
X14572464Y-46674662D01*
X14571362Y-46652632D01*
X14412397Y-46268857D01*
X14170213Y-46199392D01*
X13990608Y-46378997D01*
X13990608Y-46019787D01*
X13921143Y-45777603D01*
X13397698Y-45590856D01*
X12842632Y-45618638D01*
X12458857Y-45777603D01*
X12389392Y-46019787D01*
X13190000Y-46820395D01*
X13990608Y-46019787D01*
X13990608Y-46378997D01*
X13369605Y-47000000D01*
X14170213Y-47800608D01*
X14412397Y-47731143D01*
X14564383Y-47305130D01*
X14717355Y-47675350D01*
X15052884Y-48011464D01*
X15491497Y-48193592D01*
X15966420Y-48194007D01*
X16405350Y-48012645D01*
X16741464Y-47677116D01*
X16923592Y-47238503D01*
X16924007Y-46763580D01*
X16865751Y-46622590D01*
X17356941Y-46131400D01*
X17450353Y-46131400D01*
X17258536Y-46322884D01*
X17076408Y-46761497D01*
X17075993Y-47236420D01*
X17257355Y-47675350D01*
X17592884Y-48011464D01*
X18031497Y-48193592D01*
X18506420Y-48194007D01*
X18945350Y-48012645D01*
X19281464Y-47677116D01*
X19463592Y-47238503D01*
X19464007Y-46763580D01*
X19282645Y-46324650D01*
X19089731Y-46131400D01*
X19990353Y-46131400D01*
X19798536Y-46322884D01*
X19616408Y-46761497D01*
X19615993Y-47236420D01*
X19797355Y-47675350D01*
X20132884Y-48011464D01*
X20571497Y-48193592D01*
X21046420Y-48194007D01*
X21485350Y-48012645D01*
X21821464Y-47677116D01*
X22003592Y-47238503D01*
X22004007Y-46763580D01*
X21822645Y-46324650D01*
X21600617Y-46102235D01*
X21658123Y-46090797D01*
X21831171Y-45975171D01*
X22477171Y-45329171D01*
X22511189Y-45278257D01*
X22595736Y-45243324D01*
X22816600Y-45022844D01*
X22816600Y-45928702D01*
X22674650Y-45987355D01*
X22338536Y-46322884D01*
X22156408Y-46761497D01*
X22155993Y-47236420D01*
X22337355Y-47675350D01*
X22672884Y-48011464D01*
X23111497Y-48193592D01*
X23586420Y-48194007D01*
X24025350Y-48012645D01*
X24361464Y-47677116D01*
X24543592Y-47238503D01*
X24544007Y-46763580D01*
X24544007Y-48399700D01*
X13170986Y-48399700D01*
X13537368Y-48381362D01*
X13921143Y-48222397D01*
X13990608Y-47980213D01*
X13190000Y-47179605D01*
X13010395Y-47359210D01*
X13010395Y-47000000D01*
X12209787Y-46199392D01*
X12065000Y-46240920D01*
X12065000Y-44418250D01*
X12065000Y-43307000D01*
X10953750Y-43307000D01*
X10922000Y-43338750D01*
X10890250Y-43307000D01*
X9779000Y-43307000D01*
X9779000Y-44418250D01*
X9937750Y-44577000D01*
X10287691Y-44577000D01*
X10540310Y-44577000D01*
X10773699Y-44480327D01*
X10922000Y-44332025D01*
X11070301Y-44480327D01*
X11303690Y-44577000D01*
X11556309Y-44577000D01*
X11906250Y-44577000D01*
X12065000Y-44418250D01*
X12065000Y-46240920D01*
X12047000Y-46246083D01*
X12047000Y-46111690D01*
X11950327Y-45878301D01*
X11771698Y-45699673D01*
X11538309Y-45603000D01*
X10935750Y-45603000D01*
X10777000Y-45761750D01*
X10777000Y-46873000D01*
X10797000Y-46873000D01*
X10797000Y-47127000D01*
X10777000Y-47127000D01*
X10777000Y-48238250D01*
X10935750Y-48397000D01*
X11538309Y-48397000D01*
X11771698Y-48300327D01*
X11950327Y-48121699D01*
X12047000Y-47888310D01*
X12047000Y-47753916D01*
X12209787Y-47800608D01*
X13010395Y-47000000D01*
X13010395Y-47359210D01*
X12389392Y-47980213D01*
X12458857Y-48222397D01*
X12955830Y-48399700D01*
X10523000Y-48399700D01*
X10523000Y-48238250D01*
X10523000Y-47127000D01*
X10523000Y-46873000D01*
X10523000Y-45761750D01*
X10364250Y-45603000D01*
X9761691Y-45603000D01*
X9528302Y-45699673D01*
X9525000Y-45702974D01*
X9525000Y-44418250D01*
X9525000Y-43307000D01*
X8413750Y-43307000D01*
X8255000Y-43465750D01*
X8255000Y-44068309D01*
X8351673Y-44301698D01*
X8530301Y-44480327D01*
X8763690Y-44577000D01*
X9016309Y-44577000D01*
X9366250Y-44577000D01*
X9525000Y-44418250D01*
X9525000Y-45702974D01*
X9349673Y-45878301D01*
X9253000Y-46111690D01*
X9253000Y-46364309D01*
X9253000Y-46714250D01*
X9411750Y-46873000D01*
X10523000Y-46873000D01*
X10523000Y-47127000D01*
X9411750Y-47127000D01*
X9253000Y-47285750D01*
X9253000Y-47635691D01*
X9253000Y-47888310D01*
X9349673Y-48121699D01*
X9528302Y-48300327D01*
X9761691Y-48397000D01*
X10364250Y-48397000D01*
X10523000Y-48238250D01*
X10523000Y-48399700D01*
X6081697Y-48399700D01*
X6227218Y-48339572D01*
X7335680Y-47233043D01*
X7936315Y-45786553D01*
X7937682Y-44220318D01*
X7339572Y-42772782D01*
X6233043Y-41664320D01*
X4786553Y-41063685D01*
X3220318Y-41062318D01*
X1772782Y-41660428D01*
X664320Y-42766957D01*
X622300Y-42868152D01*
X622300Y-6134941D01*
X660428Y-6227218D01*
X1766957Y-7335680D01*
X3213447Y-7936315D01*
X4779682Y-7937682D01*
X6227218Y-7339572D01*
X7335680Y-6233043D01*
X7936315Y-4786553D01*
X7937682Y-3220318D01*
X7339572Y-1772782D01*
X6233043Y-664320D01*
X6131847Y-622300D01*
X42865058Y-622300D01*
X42772782Y-660428D01*
X41664320Y-1766957D01*
X41063685Y-3213447D01*
X41062318Y-4779682D01*
X41645040Y-6189977D01*
X41616245Y-6170737D01*
X41465758Y-6140803D01*
X41445532Y-6120542D01*
X41123572Y-5986852D01*
X40774958Y-5986548D01*
X40452764Y-6119676D01*
X40206042Y-6365968D01*
X40072352Y-6687928D01*
X40072048Y-7036542D01*
X40205176Y-7358736D01*
X40451468Y-7605458D01*
X40773428Y-7739148D01*
X41122042Y-7739452D01*
X41139194Y-7732364D01*
X41878295Y-8471465D01*
X42006165Y-8662835D01*
X42080266Y-8712348D01*
X41673580Y-8711993D01*
X41234650Y-8893355D01*
X40898536Y-9228884D01*
X40716408Y-9667497D01*
X40715993Y-10142420D01*
X40897355Y-10581350D01*
X41232884Y-10917464D01*
X41671497Y-11099592D01*
X42146420Y-11100007D01*
X42290239Y-11040581D01*
X42646600Y-11396942D01*
X42646600Y-11494123D01*
X42587116Y-11434536D01*
X42148503Y-11252408D01*
X41673580Y-11251993D01*
X41291400Y-11409906D01*
X41291400Y-11308000D01*
X41250797Y-11103877D01*
X41250797Y-11103876D01*
X41204483Y-11034563D01*
X41135171Y-10930829D01*
X41135167Y-10930826D01*
X40500584Y-10296242D01*
X40563592Y-10144503D01*
X40564007Y-9669580D01*
X40382645Y-9230650D01*
X40047116Y-8894536D01*
X39608503Y-8712408D01*
X39133580Y-8711993D01*
X38694650Y-8893355D01*
X38358536Y-9228884D01*
X38212464Y-9580662D01*
X38211362Y-9558632D01*
X38052397Y-9174857D01*
X37810213Y-9105392D01*
X37630608Y-9284997D01*
X37630608Y-8925787D01*
X37561143Y-8683603D01*
X37530259Y-8672584D01*
X37530259Y-4084000D01*
X37530259Y-2784000D01*
X37498315Y-2619356D01*
X37403258Y-2474649D01*
X37259755Y-2377784D01*
X37090000Y-2343741D01*
X35790000Y-2343741D01*
X35625356Y-2375685D01*
X35480649Y-2470742D01*
X35383784Y-2614245D01*
X35349741Y-2784000D01*
X35349741Y-4084000D01*
X35381685Y-4248644D01*
X35476742Y-4393351D01*
X35620245Y-4490216D01*
X35790000Y-4524259D01*
X37090000Y-4524259D01*
X37254644Y-4492315D01*
X37399351Y-4397258D01*
X37496216Y-4253755D01*
X37530259Y-4084000D01*
X37530259Y-8672584D01*
X37037698Y-8496856D01*
X36482632Y-8524638D01*
X36098857Y-8683603D01*
X36029392Y-8925787D01*
X36830000Y-9726395D01*
X37630608Y-8925787D01*
X37630608Y-9284997D01*
X37009605Y-9906000D01*
X37810213Y-10706608D01*
X38052397Y-10637143D01*
X38204383Y-10211130D01*
X38357355Y-10581350D01*
X38692884Y-10917464D01*
X39131497Y-11099592D01*
X39606420Y-11100007D01*
X39740333Y-11044675D01*
X40224600Y-11528941D01*
X40224600Y-11612329D01*
X40047116Y-11434536D01*
X39608503Y-11252408D01*
X39133580Y-11251993D01*
X38694650Y-11433355D01*
X38358536Y-11768884D01*
X38176408Y-12207497D01*
X38175993Y-12682420D01*
X38357355Y-13121350D01*
X38692884Y-13457464D01*
X38836600Y-13517140D01*
X38836600Y-14507058D01*
X38720852Y-14622805D01*
X38425458Y-14622548D01*
X38103264Y-14755676D01*
X38024007Y-14834794D01*
X38024007Y-12209580D01*
X37842645Y-11770650D01*
X37507116Y-11434536D01*
X37155337Y-11288464D01*
X37177368Y-11287362D01*
X37561143Y-11128397D01*
X37630608Y-10886213D01*
X36830000Y-10085605D01*
X36650395Y-10265210D01*
X36650395Y-9906000D01*
X35849787Y-9105392D01*
X35607603Y-9174857D01*
X35455616Y-9600869D01*
X35302645Y-9230650D01*
X35237622Y-9165513D01*
X35237622Y-3614922D01*
X35208083Y-3104572D01*
X35069611Y-2770271D01*
X34839016Y-2714590D01*
X34659410Y-2894195D01*
X34659410Y-2534984D01*
X34603729Y-2304389D01*
X34120922Y-2136378D01*
X33610572Y-2165917D01*
X33276271Y-2304389D01*
X33220590Y-2534984D01*
X33940000Y-3254395D01*
X34659410Y-2534984D01*
X34659410Y-2894195D01*
X34119605Y-3434000D01*
X34839016Y-4153410D01*
X35069611Y-4097729D01*
X35237622Y-3614922D01*
X35237622Y-9165513D01*
X34967116Y-8894536D01*
X34659410Y-8766765D01*
X34659410Y-4333016D01*
X33940000Y-3613605D01*
X33760395Y-3793210D01*
X33760395Y-3434000D01*
X33040984Y-2714590D01*
X32810389Y-2770271D01*
X32642378Y-3253078D01*
X32671917Y-3763428D01*
X32810389Y-4097729D01*
X33040984Y-4153410D01*
X33760395Y-3434000D01*
X33760395Y-3793210D01*
X33220590Y-4333016D01*
X33276271Y-4563611D01*
X33759078Y-4731622D01*
X34269428Y-4702083D01*
X34603729Y-4563611D01*
X34659410Y-4333016D01*
X34659410Y-8766765D01*
X34528503Y-8712408D01*
X34053580Y-8711993D01*
X33614650Y-8893355D01*
X33278536Y-9228884D01*
X33096408Y-9667497D01*
X33095993Y-10142420D01*
X33277355Y-10581350D01*
X33612884Y-10917464D01*
X34051497Y-11099592D01*
X34526420Y-11100007D01*
X34965350Y-10918645D01*
X35301464Y-10583116D01*
X35447535Y-10231337D01*
X35448638Y-10253368D01*
X35607603Y-10637143D01*
X35849787Y-10706608D01*
X36650395Y-9906000D01*
X36650395Y-10265210D01*
X36029392Y-10886213D01*
X36098857Y-11128397D01*
X36524869Y-11280383D01*
X36154650Y-11433355D01*
X35818536Y-11768884D01*
X35636408Y-12207497D01*
X35635993Y-12682420D01*
X35817355Y-13121350D01*
X36152884Y-13457464D01*
X36591497Y-13639592D01*
X37066420Y-13640007D01*
X37505350Y-13458645D01*
X37841464Y-13123116D01*
X38023592Y-12684503D01*
X38024007Y-12209580D01*
X38024007Y-14834794D01*
X37856542Y-15001968D01*
X37722852Y-15323928D01*
X37722548Y-15672542D01*
X37855676Y-15994736D01*
X38101968Y-16241458D01*
X38423928Y-16375148D01*
X38772542Y-16375452D01*
X39094736Y-16242324D01*
X39341458Y-15996032D01*
X39475148Y-15674072D01*
X39475407Y-15376934D01*
X39747171Y-15105171D01*
X39862797Y-14932123D01*
X39903400Y-14728000D01*
X39903401Y-14728000D01*
X39903400Y-14727994D01*
X39903400Y-13517297D01*
X40045350Y-13458645D01*
X40224600Y-13279706D01*
X40224600Y-15245000D01*
X40265203Y-15449123D01*
X40380829Y-15622171D01*
X42891600Y-18132941D01*
X42891600Y-21120058D01*
X41529000Y-22482657D01*
X41529000Y-19176309D01*
X41529000Y-18573750D01*
X41529000Y-18002250D01*
X41529000Y-17399691D01*
X41432327Y-17166302D01*
X41253699Y-16987673D01*
X41020310Y-16891000D01*
X40767691Y-16891000D01*
X40417750Y-16891000D01*
X40259000Y-17049750D01*
X40259000Y-18161000D01*
X41370250Y-18161000D01*
X41529000Y-18002250D01*
X41529000Y-18573750D01*
X41370250Y-18415000D01*
X40259000Y-18415000D01*
X40259000Y-18435000D01*
X40005000Y-18435000D01*
X40005000Y-18415000D01*
X40005000Y-18161000D01*
X40005000Y-17049750D01*
X39846250Y-16891000D01*
X39496309Y-16891000D01*
X39243690Y-16891000D01*
X39010301Y-16987673D01*
X38862000Y-17135974D01*
X38713699Y-16987673D01*
X38480310Y-16891000D01*
X38227691Y-16891000D01*
X37877750Y-16891000D01*
X37719000Y-17049750D01*
X37719000Y-18161000D01*
X38830250Y-18161000D01*
X38862000Y-18129250D01*
X38893750Y-18161000D01*
X40005000Y-18161000D01*
X40005000Y-18415000D01*
X38893750Y-18415000D01*
X38862000Y-18446750D01*
X38830250Y-18415000D01*
X37719000Y-18415000D01*
X37719000Y-18435000D01*
X37465000Y-18435000D01*
X37465000Y-18415000D01*
X37465000Y-18161000D01*
X37465000Y-17049750D01*
X37306250Y-16891000D01*
X36956309Y-16891000D01*
X36703690Y-16891000D01*
X36470301Y-16987673D01*
X36322000Y-17135974D01*
X36173699Y-16987673D01*
X35940310Y-16891000D01*
X35687691Y-16891000D01*
X35484007Y-16891000D01*
X35484007Y-12209580D01*
X35302645Y-11770650D01*
X34967116Y-11434536D01*
X34528503Y-11252408D01*
X34053580Y-11251993D01*
X33614650Y-11433355D01*
X33278536Y-11768884D01*
X33096408Y-12207497D01*
X33095993Y-12682420D01*
X33277355Y-13121350D01*
X33612884Y-13457464D01*
X34051497Y-13639592D01*
X34526420Y-13640007D01*
X34965350Y-13458645D01*
X35301464Y-13123116D01*
X35483592Y-12684503D01*
X35484007Y-12209580D01*
X35484007Y-16891000D01*
X35337750Y-16891000D01*
X35179000Y-17049750D01*
X35179000Y-18161000D01*
X36290250Y-18161000D01*
X36322000Y-18129250D01*
X36353750Y-18161000D01*
X37465000Y-18161000D01*
X37465000Y-18415000D01*
X36353750Y-18415000D01*
X36322000Y-18446750D01*
X36290250Y-18415000D01*
X35179000Y-18415000D01*
X35179000Y-18435000D01*
X34925000Y-18435000D01*
X34925000Y-18415000D01*
X34925000Y-18161000D01*
X34925000Y-17049750D01*
X34766250Y-16891000D01*
X34513470Y-16891000D01*
X34524458Y-16880032D01*
X34658148Y-16558072D01*
X34658452Y-16209458D01*
X34525324Y-15887264D01*
X34279032Y-15640542D01*
X33957072Y-15506852D01*
X33659934Y-15506592D01*
X32283400Y-14130058D01*
X32283400Y-13648259D01*
X32512000Y-13648259D01*
X32676644Y-13616315D01*
X32821351Y-13521258D01*
X32918216Y-13377755D01*
X32952259Y-13208000D01*
X32952259Y-11684000D01*
X32944007Y-11641467D01*
X32944007Y-9669580D01*
X32762645Y-9230650D01*
X32427116Y-8894536D01*
X31988503Y-8712408D01*
X31513580Y-8711993D01*
X31074650Y-8893355D01*
X30738536Y-9228884D01*
X30556408Y-9667497D01*
X30555993Y-10142420D01*
X30737355Y-10581350D01*
X31072884Y-10917464D01*
X31511497Y-11099592D01*
X31986420Y-11100007D01*
X32425350Y-10918645D01*
X32761464Y-10583116D01*
X32943592Y-10144503D01*
X32944007Y-9669580D01*
X32944007Y-11641467D01*
X32920315Y-11519356D01*
X32825258Y-11374649D01*
X32681755Y-11277784D01*
X32512000Y-11243741D01*
X30988000Y-11243741D01*
X30823356Y-11275685D01*
X30678649Y-11370742D01*
X30581784Y-11514245D01*
X30547741Y-11684000D01*
X30547741Y-13208000D01*
X30579685Y-13372644D01*
X30674742Y-13517351D01*
X30818245Y-13614216D01*
X30988000Y-13648259D01*
X31216600Y-13648259D01*
X31216600Y-14351000D01*
X31257203Y-14555123D01*
X31372829Y-14728171D01*
X32905805Y-16261147D01*
X32905548Y-16556542D01*
X33038676Y-16878736D01*
X33050918Y-16891000D01*
X32797750Y-16891000D01*
X32639000Y-17049750D01*
X32639000Y-18161000D01*
X33750250Y-18161000D01*
X33782000Y-18129250D01*
X33813750Y-18161000D01*
X34925000Y-18161000D01*
X34925000Y-18415000D01*
X33813750Y-18415000D01*
X33782000Y-18446750D01*
X33750250Y-18415000D01*
X32639000Y-18415000D01*
X32639000Y-18435000D01*
X32385000Y-18435000D01*
X32385000Y-18415000D01*
X32385000Y-18161000D01*
X32385000Y-17049750D01*
X32226250Y-16891000D01*
X31876309Y-16891000D01*
X31623690Y-16891000D01*
X31390301Y-16987673D01*
X31242000Y-17135974D01*
X31093699Y-16987673D01*
X30860310Y-16891000D01*
X30607691Y-16891000D01*
X30257750Y-16891000D01*
X30140952Y-17007798D01*
X30140952Y-6562458D01*
X30007824Y-6240264D01*
X29761532Y-5993542D01*
X29439572Y-5859852D01*
X29090958Y-5859548D01*
X28768764Y-5992676D01*
X28522042Y-6238968D01*
X28394352Y-6546477D01*
X26258165Y-8682665D01*
X26095737Y-8925755D01*
X26038700Y-9212500D01*
X26038700Y-9544202D01*
X25931745Y-9472737D01*
X25645000Y-9415700D01*
X25137000Y-9415700D01*
X19056843Y-9415700D01*
X19056843Y-4643464D01*
X19053127Y-3475855D01*
X18613451Y-2414383D01*
X18211553Y-2157052D01*
X18031948Y-2336657D01*
X18031948Y-1977447D01*
X17774617Y-1575549D01*
X16694464Y-1132157D01*
X15526855Y-1135873D01*
X14465383Y-1575549D01*
X14208052Y-1977447D01*
X16120000Y-3889395D01*
X18031948Y-1977447D01*
X18031948Y-2336657D01*
X16299605Y-4069000D01*
X18211553Y-5980948D01*
X18613451Y-5723617D01*
X19056843Y-4643464D01*
X19056843Y-9415700D01*
X18805873Y-9415700D01*
X18437258Y-8523581D01*
X18031948Y-8117563D01*
X18031948Y-6160553D01*
X16120000Y-4248605D01*
X15940395Y-4428210D01*
X15940395Y-4069000D01*
X14028447Y-2157052D01*
X13626549Y-2414383D01*
X13183157Y-3494536D01*
X13186873Y-4662145D01*
X13626549Y-5723617D01*
X14028447Y-5980948D01*
X15940395Y-4069000D01*
X15940395Y-4428210D01*
X14208052Y-6160553D01*
X14465383Y-6562451D01*
X15545536Y-7005843D01*
X16713145Y-7002127D01*
X17774617Y-6562451D01*
X18031948Y-6160553D01*
X18031948Y-8117563D01*
X17669461Y-7754443D01*
X16665773Y-7337675D01*
X15578995Y-7336727D01*
X14574581Y-7751742D01*
X14256606Y-8069162D01*
X14253127Y-6975855D01*
X13813451Y-5914383D01*
X13411553Y-5657052D01*
X13231948Y-5836657D01*
X13231948Y-5477447D01*
X12974617Y-5075549D01*
X11894464Y-4632157D01*
X10726855Y-4635873D01*
X9665383Y-5075549D01*
X9408052Y-5477447D01*
X11320000Y-7389395D01*
X13231948Y-5477447D01*
X13231948Y-5836657D01*
X11499605Y-7569000D01*
X11513747Y-7583142D01*
X11334142Y-7762747D01*
X11320000Y-7748605D01*
X11140395Y-7928210D01*
X11140395Y-7569000D01*
X9228447Y-5657052D01*
X8826549Y-5914383D01*
X8383157Y-6994536D01*
X8386873Y-8162145D01*
X8826549Y-9223617D01*
X9228447Y-9480948D01*
X11140395Y-7569000D01*
X11140395Y-7928210D01*
X9408052Y-9660553D01*
X9665383Y-10062451D01*
X10745536Y-10505843D01*
X11913145Y-10502127D01*
X12974617Y-10062451D01*
X13231946Y-9660554D01*
X13231948Y-9660556D01*
X13344454Y-9773062D01*
X13388495Y-9729020D01*
X13387727Y-10610005D01*
X13802742Y-11614419D01*
X14570539Y-12383557D01*
X15574227Y-12800325D01*
X16661005Y-12801273D01*
X17665419Y-12386258D01*
X18434557Y-11618461D01*
X18726950Y-10914300D01*
X23230418Y-10914300D01*
X23198555Y-10946163D01*
X23313809Y-11061417D01*
X23078200Y-11123071D01*
X22902073Y-11623480D01*
X22930852Y-12153199D01*
X23078200Y-12508929D01*
X23313812Y-12570583D01*
X24068395Y-11816000D01*
X24054252Y-11801857D01*
X24233857Y-11622252D01*
X24248000Y-11636395D01*
X24262142Y-11622252D01*
X24441747Y-11801857D01*
X24427605Y-11816000D01*
X25182188Y-12570583D01*
X25417800Y-12508929D01*
X25593927Y-12008520D01*
X25575145Y-11662815D01*
X25657761Y-11745431D01*
X25657504Y-12039844D01*
X25829219Y-12455427D01*
X26146900Y-12773663D01*
X26562183Y-12946103D01*
X27011844Y-12946496D01*
X27427427Y-12774781D01*
X27745663Y-12457100D01*
X27918103Y-12041817D01*
X27918496Y-11592156D01*
X27746781Y-11176573D01*
X27537300Y-10966726D01*
X27537300Y-9522870D01*
X29454531Y-7605638D01*
X29760236Y-7479324D01*
X30006958Y-7233032D01*
X30140648Y-6911072D01*
X30140952Y-6562458D01*
X30140952Y-17007798D01*
X30099000Y-17049750D01*
X30099000Y-18161000D01*
X31210250Y-18161000D01*
X31242000Y-18129250D01*
X31273750Y-18161000D01*
X32385000Y-18161000D01*
X32385000Y-18415000D01*
X31273750Y-18415000D01*
X31242000Y-18446750D01*
X31210250Y-18415000D01*
X30099000Y-18415000D01*
X30099000Y-18435000D01*
X29845000Y-18435000D01*
X29845000Y-18415000D01*
X29845000Y-18161000D01*
X29845000Y-17049750D01*
X29686250Y-16891000D01*
X29336309Y-16891000D01*
X29083690Y-16891000D01*
X28850301Y-16987673D01*
X28671673Y-17166302D01*
X28575000Y-17399691D01*
X28575000Y-18002250D01*
X28733750Y-18161000D01*
X29845000Y-18161000D01*
X29845000Y-18415000D01*
X28733750Y-18415000D01*
X28575000Y-18573750D01*
X28575000Y-19176309D01*
X28671673Y-19409698D01*
X28850301Y-19588327D01*
X29083690Y-19685000D01*
X29336309Y-19685000D01*
X29612133Y-19685000D01*
X29296650Y-19815355D01*
X28960536Y-20150884D01*
X28778408Y-20589497D01*
X28777993Y-21064420D01*
X28959355Y-21503350D01*
X29294884Y-21839464D01*
X29733497Y-22021592D01*
X30208420Y-22022007D01*
X30647350Y-21840645D01*
X30911154Y-21577300D01*
X31573176Y-21577300D01*
X31834884Y-21839464D01*
X32273497Y-22021592D01*
X32748420Y-22022007D01*
X33187350Y-21840645D01*
X33451154Y-21577300D01*
X34113176Y-21577300D01*
X34374884Y-21839464D01*
X34813497Y-22021592D01*
X35288420Y-22022007D01*
X35727350Y-21840645D01*
X35991154Y-21577300D01*
X36653176Y-21577300D01*
X36914884Y-21839464D01*
X37353497Y-22021592D01*
X37828420Y-22022007D01*
X38267350Y-21840645D01*
X38531154Y-21577300D01*
X39193176Y-21577300D01*
X39454884Y-21839464D01*
X39893497Y-22021592D01*
X40368420Y-22022007D01*
X40807350Y-21840645D01*
X41143464Y-21505116D01*
X41325592Y-21066503D01*
X41326007Y-20591580D01*
X41144645Y-20152650D01*
X40809116Y-19816536D01*
X40492342Y-19685000D01*
X40767691Y-19685000D01*
X41020310Y-19685000D01*
X41253699Y-19588327D01*
X41432327Y-19409698D01*
X41529000Y-19176309D01*
X41529000Y-22482657D01*
X41195625Y-22816032D01*
X41144645Y-22692650D01*
X40809116Y-22356536D01*
X40370503Y-22174408D01*
X39895580Y-22173993D01*
X39456650Y-22355355D01*
X39120536Y-22690884D01*
X38938408Y-23129497D01*
X38937993Y-23604420D01*
X39119355Y-24043350D01*
X39454884Y-24379464D01*
X39893497Y-24561592D01*
X40368420Y-24562007D01*
X40807350Y-24380645D01*
X40986600Y-24201706D01*
X40986600Y-26180209D01*
X40773100Y-25966337D01*
X40357817Y-25793897D01*
X39908156Y-25793504D01*
X39492573Y-25965219D01*
X39174337Y-26282900D01*
X39001897Y-26698183D01*
X39001504Y-27147844D01*
X39173219Y-27563427D01*
X39490900Y-27881663D01*
X39906183Y-28054103D01*
X40355844Y-28054496D01*
X40771427Y-27882781D01*
X40986600Y-27667983D01*
X40986600Y-29946558D01*
X38786007Y-32147150D01*
X38786007Y-23131580D01*
X38604645Y-22692650D01*
X38269116Y-22356536D01*
X37830503Y-22174408D01*
X37355580Y-22173993D01*
X36916650Y-22355355D01*
X36580536Y-22690884D01*
X36398408Y-23129497D01*
X36397993Y-23604420D01*
X36579355Y-24043350D01*
X36914884Y-24379464D01*
X37353497Y-24561592D01*
X37828420Y-24562007D01*
X38267350Y-24380645D01*
X38603464Y-24045116D01*
X38785592Y-23606503D01*
X38786007Y-23131580D01*
X38786007Y-32147150D01*
X38722496Y-32210661D01*
X38722496Y-26700156D01*
X38550781Y-26284573D01*
X38233100Y-25966337D01*
X37817817Y-25793897D01*
X37368156Y-25793504D01*
X36952573Y-25965219D01*
X36634337Y-26282900D01*
X36461897Y-26698183D01*
X36461504Y-27147844D01*
X36633219Y-27563427D01*
X36950900Y-27881663D01*
X37366183Y-28054103D01*
X37815844Y-28054496D01*
X38231427Y-27882781D01*
X38549663Y-27565100D01*
X38722103Y-27149817D01*
X38722496Y-26700156D01*
X38722496Y-32210661D01*
X37519521Y-33413636D01*
X37368156Y-33413504D01*
X36952573Y-33585219D01*
X36634337Y-33902900D01*
X36461897Y-34318183D01*
X36461504Y-34767844D01*
X36633219Y-35183427D01*
X36950900Y-35501663D01*
X37366183Y-35674103D01*
X37815844Y-35674496D01*
X38231427Y-35502781D01*
X38549663Y-35185100D01*
X38722103Y-34769817D01*
X38722496Y-34320156D01*
X38550781Y-33904573D01*
X38544030Y-33897811D01*
X41626814Y-30815027D01*
X41784968Y-30973458D01*
X42106928Y-31107148D01*
X42455542Y-31107452D01*
X42646600Y-31028508D01*
X42646600Y-32834500D01*
X42646600Y-33049058D01*
X41685058Y-34010600D01*
X41134590Y-34010600D01*
X41090781Y-33904573D01*
X40773100Y-33586337D01*
X40357817Y-33413897D01*
X39908156Y-33413504D01*
X39492573Y-33585219D01*
X39174337Y-33902900D01*
X39001897Y-34318183D01*
X39001504Y-34767844D01*
X39173219Y-35183427D01*
X39490900Y-35501663D01*
X39906183Y-35674103D01*
X40355844Y-35674496D01*
X40771427Y-35502781D01*
X41089663Y-35185100D01*
X41134383Y-35077400D01*
X41906000Y-35077400D01*
X42110123Y-35036797D01*
X42283171Y-34921171D01*
X43557171Y-33647171D01*
X43672797Y-33474123D01*
X43713400Y-33270000D01*
X43713400Y-32834500D01*
X43713400Y-29980709D01*
X43816968Y-30084458D01*
X44138928Y-30218148D01*
X44487542Y-30218452D01*
X44809736Y-30085324D01*
X45056458Y-29839032D01*
X45190148Y-29517072D01*
X45190452Y-29168458D01*
X45057324Y-28846264D01*
X44811032Y-28599542D01*
X44593400Y-28509172D01*
X44593400Y-25024000D01*
X44593400Y-23604227D01*
X44595676Y-23609736D01*
X44841968Y-23856458D01*
X45163928Y-23990148D01*
X45512542Y-23990452D01*
X45834736Y-23857324D01*
X46081458Y-23611032D01*
X46215148Y-23289072D01*
X46215452Y-22940458D01*
X46213212Y-22935037D01*
X46253400Y-22733000D01*
X46253400Y-11176000D01*
X46212797Y-10971877D01*
X46212797Y-10971876D01*
X46097171Y-10798829D01*
X45584691Y-10286349D01*
X45643592Y-10144503D01*
X45644007Y-9669580D01*
X45462645Y-9230650D01*
X45127116Y-8894536D01*
X44688503Y-8712408D01*
X44213580Y-8711993D01*
X43774650Y-8893355D01*
X43704400Y-8963482D01*
X43704400Y-8768005D01*
X43704400Y-8768000D01*
X43704401Y-8768000D01*
X43663797Y-8563877D01*
X43548171Y-8390830D01*
X43548171Y-8390829D01*
X43548167Y-8390826D01*
X43285300Y-8127958D01*
X43285300Y-8069500D01*
X43228263Y-7782756D01*
X43228263Y-7782755D01*
X43065835Y-7539665D01*
X42929232Y-7403062D01*
X44213447Y-7936315D01*
X45779682Y-7937682D01*
X47227218Y-7339572D01*
X48335680Y-6233043D01*
X48399700Y-6078865D01*
X48399700Y-42918302D01*
X48399700Y-42918302D01*
G37*
X48399700Y-42918302D02*
X48339572Y-42772782D01*
X47691927Y-42124005D01*
X47691927Y-40202520D01*
X47663148Y-39672801D01*
X47515800Y-39317071D01*
X47476496Y-39306786D01*
X47476496Y-37246156D01*
X47304781Y-36830573D01*
X46987100Y-36512337D01*
X46571817Y-36339897D01*
X46122156Y-36339504D01*
X45706573Y-36511219D01*
X45388337Y-36828900D01*
X45215897Y-37244183D01*
X45215504Y-37693844D01*
X45387219Y-38109427D01*
X45704900Y-38427663D01*
X46120183Y-38600103D01*
X46569844Y-38600496D01*
X46985427Y-38428781D01*
X47303663Y-38111100D01*
X47476103Y-37695817D01*
X47476496Y-37246156D01*
X47476496Y-39306786D01*
X47280188Y-39255417D01*
X47100583Y-39435022D01*
X47100583Y-39075812D01*
X47038929Y-38840200D01*
X46538520Y-38664073D01*
X46008801Y-38692852D01*
X45653071Y-38840200D01*
X45591417Y-39075812D01*
X46346000Y-39830395D01*
X47100583Y-39075812D01*
X47100583Y-39435022D01*
X46525605Y-40010000D01*
X47280188Y-40764583D01*
X47515800Y-40702929D01*
X47691927Y-40202520D01*
X47691927Y-42124005D01*
X47233043Y-41664320D01*
X46451374Y-41339742D01*
X46683199Y-41327148D01*
X47038929Y-41179800D01*
X47100583Y-40944188D01*
X46346000Y-40189605D01*
X46166395Y-40369210D01*
X46166395Y-40010000D01*
X45411812Y-39255417D01*
X45176200Y-39317071D01*
X45000073Y-39817480D01*
X45028852Y-40347199D01*
X45176200Y-40702929D01*
X45411812Y-40764583D01*
X46166395Y-40010000D01*
X46166395Y-40369210D01*
X45591417Y-40944188D01*
X45622649Y-41063541D01*
X44220318Y-41062318D01*
X42772782Y-41660428D01*
X41664320Y-42766957D01*
X41529000Y-43092842D01*
X41529000Y-43052998D01*
X41370252Y-43052998D01*
X41529000Y-42894250D01*
X41529000Y-42291691D01*
X41432327Y-42058302D01*
X41253699Y-41879673D01*
X41020310Y-41783000D01*
X40767691Y-41783000D01*
X40491866Y-41783000D01*
X40807350Y-41652645D01*
X41143464Y-41317116D01*
X41325592Y-40878503D01*
X41326007Y-40403580D01*
X41326007Y-37863580D01*
X41144645Y-37424650D01*
X40809116Y-37088536D01*
X40370503Y-36906408D01*
X39895580Y-36905993D01*
X39456650Y-37087355D01*
X39120536Y-37422884D01*
X38938408Y-37861497D01*
X38937993Y-38336420D01*
X39119355Y-38775350D01*
X39454884Y-39111464D01*
X39893497Y-39293592D01*
X40368420Y-39294007D01*
X40807350Y-39112645D01*
X41143464Y-38777116D01*
X41325592Y-38338503D01*
X41326007Y-37863580D01*
X41326007Y-40403580D01*
X41144645Y-39964650D01*
X40809116Y-39628536D01*
X40370503Y-39446408D01*
X39895580Y-39445993D01*
X39456650Y-39627355D01*
X39120536Y-39962884D01*
X38938408Y-40401497D01*
X38937993Y-40876420D01*
X39119355Y-41315350D01*
X39454884Y-41651464D01*
X39771657Y-41783000D01*
X39496309Y-41783000D01*
X39243690Y-41783000D01*
X39010301Y-41879673D01*
X38862000Y-42027974D01*
X38713699Y-41879673D01*
X38480310Y-41783000D01*
X38227691Y-41783000D01*
X37951866Y-41783000D01*
X38267350Y-41652645D01*
X38603464Y-41317116D01*
X38785592Y-40878503D01*
X38786007Y-40403580D01*
X38786007Y-37863580D01*
X38604645Y-37424650D01*
X38269116Y-37088536D01*
X37830503Y-36906408D01*
X37355580Y-36905993D01*
X36916650Y-37087355D01*
X36580536Y-37422884D01*
X36398408Y-37861497D01*
X36397993Y-38336420D01*
X36579355Y-38775350D01*
X36914884Y-39111464D01*
X37353497Y-39293592D01*
X37828420Y-39294007D01*
X38267350Y-39112645D01*
X38603464Y-38777116D01*
X38785592Y-38338503D01*
X38786007Y-37863580D01*
X38786007Y-40403580D01*
X38604645Y-39964650D01*
X38269116Y-39628536D01*
X37830503Y-39446408D01*
X37355580Y-39445993D01*
X36916650Y-39627355D01*
X36580536Y-39962884D01*
X36398408Y-40401497D01*
X36397993Y-40876420D01*
X36579355Y-41315350D01*
X36914884Y-41651464D01*
X37231657Y-41783000D01*
X36956309Y-41783000D01*
X36703690Y-41783000D01*
X36470301Y-41879673D01*
X36322000Y-42027974D01*
X36173699Y-41879673D01*
X35940310Y-41783000D01*
X35687691Y-41783000D01*
X35411866Y-41783000D01*
X35727350Y-41652645D01*
X36063464Y-41317116D01*
X36245592Y-40878503D01*
X36246007Y-40403580D01*
X36246007Y-37863580D01*
X36246007Y-23131580D01*
X36064645Y-22692650D01*
X35729116Y-22356536D01*
X35290503Y-22174408D01*
X34815580Y-22173993D01*
X34376650Y-22355355D01*
X34040536Y-22690884D01*
X33858408Y-23129497D01*
X33857993Y-23604420D01*
X34039355Y-24043350D01*
X34374884Y-24379464D01*
X34813497Y-24561592D01*
X35288420Y-24562007D01*
X35727350Y-24380645D01*
X36063464Y-24045116D01*
X36245592Y-23606503D01*
X36246007Y-23131580D01*
X36246007Y-37863580D01*
X36182496Y-37709871D01*
X36182496Y-34320156D01*
X36182496Y-26700156D01*
X36010781Y-26284573D01*
X35693100Y-25966337D01*
X35277817Y-25793897D01*
X34828156Y-25793504D01*
X34412573Y-25965219D01*
X34094337Y-26282900D01*
X33921897Y-26698183D01*
X33921504Y-27147844D01*
X34093219Y-27563427D01*
X34410900Y-27881663D01*
X34826183Y-28054103D01*
X35275844Y-28054496D01*
X35691427Y-27882781D01*
X36009663Y-27565100D01*
X36182103Y-27149817D01*
X36182496Y-26700156D01*
X36182496Y-34320156D01*
X36010781Y-33904573D01*
X35693100Y-33586337D01*
X35585400Y-33541616D01*
X35585400Y-29975241D01*
X35785458Y-29775532D01*
X35919148Y-29453572D01*
X35919452Y-29104958D01*
X35786324Y-28782764D01*
X35540032Y-28536042D01*
X35218072Y-28402352D01*
X34869458Y-28402048D01*
X34547264Y-28535176D01*
X34300542Y-28781468D01*
X34166852Y-29103428D01*
X34166548Y-29452042D01*
X34299676Y-29774236D01*
X34518600Y-29993542D01*
X34518600Y-33541409D01*
X34412573Y-33585219D01*
X34094337Y-33902900D01*
X33921897Y-34318183D01*
X33921504Y-34767844D01*
X34093219Y-35183427D01*
X34410900Y-35501663D01*
X34826183Y-35674103D01*
X35275844Y-35674496D01*
X35691427Y-35502781D01*
X36009663Y-35185100D01*
X36182103Y-34769817D01*
X36182496Y-34320156D01*
X36182496Y-37709871D01*
X36064645Y-37424650D01*
X35729116Y-37088536D01*
X35290503Y-36906408D01*
X34815580Y-36905993D01*
X34376650Y-37087355D01*
X34040536Y-37422884D01*
X33858408Y-37861497D01*
X33857993Y-38336420D01*
X34039355Y-38775350D01*
X34374884Y-39111464D01*
X34813497Y-39293592D01*
X35288420Y-39294007D01*
X35727350Y-39112645D01*
X36063464Y-38777116D01*
X36245592Y-38338503D01*
X36246007Y-37863580D01*
X36246007Y-40403580D01*
X36064645Y-39964650D01*
X35729116Y-39628536D01*
X35290503Y-39446408D01*
X34815580Y-39445993D01*
X34376650Y-39627355D01*
X34040536Y-39962884D01*
X33858408Y-40401497D01*
X33857993Y-40876420D01*
X34039355Y-41315350D01*
X34374884Y-41651464D01*
X34691657Y-41783000D01*
X34416309Y-41783000D01*
X34163690Y-41783000D01*
X33930301Y-41879673D01*
X33782000Y-42027974D01*
X33633699Y-41879673D01*
X33400310Y-41783000D01*
X33147691Y-41783000D01*
X32871866Y-41783000D01*
X33187350Y-41652645D01*
X33523464Y-41317116D01*
X33705592Y-40878503D01*
X33706007Y-40403580D01*
X33706007Y-37863580D01*
X33706007Y-23131580D01*
X33524645Y-22692650D01*
X33189116Y-22356536D01*
X32750503Y-22174408D01*
X32275580Y-22173993D01*
X31836650Y-22355355D01*
X31500536Y-22690884D01*
X31318408Y-23129497D01*
X31317993Y-23604420D01*
X31499355Y-24043350D01*
X31834884Y-24379464D01*
X32273497Y-24561592D01*
X32748420Y-24562007D01*
X33187350Y-24380645D01*
X33523464Y-24045116D01*
X33705592Y-23606503D01*
X33706007Y-23131580D01*
X33706007Y-37863580D01*
X33642496Y-37709871D01*
X33642496Y-34320156D01*
X33642496Y-26700156D01*
X33470781Y-26284573D01*
X33153100Y-25966337D01*
X32737817Y-25793897D01*
X32288156Y-25793504D01*
X31872573Y-25965219D01*
X31554337Y-26282900D01*
X31381897Y-26698183D01*
X31381504Y-27147844D01*
X31553219Y-27563427D01*
X31870900Y-27881663D01*
X32286183Y-28054103D01*
X32735844Y-28054496D01*
X33151427Y-27882781D01*
X33469663Y-27565100D01*
X33642103Y-27149817D01*
X33642496Y-26700156D01*
X33642496Y-34320156D01*
X33470781Y-33904573D01*
X33153100Y-33586337D01*
X32737817Y-33413897D01*
X32288156Y-33413504D01*
X31872573Y-33585219D01*
X31554337Y-33902900D01*
X31381897Y-34318183D01*
X31381504Y-34767844D01*
X31553219Y-35183427D01*
X31870900Y-35501663D01*
X32286183Y-35674103D01*
X32735844Y-35674496D01*
X33151427Y-35502781D01*
X33469663Y-35185100D01*
X33642103Y-34769817D01*
X33642496Y-34320156D01*
X33642496Y-37709871D01*
X33524645Y-37424650D01*
X33189116Y-37088536D01*
X32750503Y-36906408D01*
X32275580Y-36905993D01*
X31836650Y-37087355D01*
X31500536Y-37422884D01*
X31318408Y-37861497D01*
X31317993Y-38336420D01*
X31499355Y-38775350D01*
X31834884Y-39111464D01*
X32273497Y-39293592D01*
X32748420Y-39294007D01*
X33187350Y-39112645D01*
X33523464Y-38777116D01*
X33705592Y-38338503D01*
X33706007Y-37863580D01*
X33706007Y-40403580D01*
X33524645Y-39964650D01*
X33189116Y-39628536D01*
X32750503Y-39446408D01*
X32275580Y-39445993D01*
X31836650Y-39627355D01*
X31500536Y-39962884D01*
X31318408Y-40401497D01*
X31317993Y-40876420D01*
X31499355Y-41315350D01*
X31834884Y-41651464D01*
X32151657Y-41783000D01*
X31876309Y-41783000D01*
X31623690Y-41783000D01*
X31390301Y-41879673D01*
X31211673Y-42058302D01*
X31166007Y-42168549D01*
X31166007Y-23131580D01*
X30984645Y-22692650D01*
X30649116Y-22356536D01*
X30210503Y-22174408D01*
X29735580Y-22173993D01*
X29296650Y-22355355D01*
X28960536Y-22690884D01*
X28778408Y-23129497D01*
X28777993Y-23604420D01*
X28959355Y-24043350D01*
X29294884Y-24379464D01*
X29438600Y-24439140D01*
X29438600Y-25921409D01*
X29332573Y-25965219D01*
X29014337Y-26282900D01*
X28841897Y-26698183D01*
X28841504Y-27147844D01*
X29013219Y-27563427D01*
X29330900Y-27881663D01*
X29746183Y-28054103D01*
X30195844Y-28054496D01*
X30611427Y-27882781D01*
X30929663Y-27565100D01*
X31102103Y-27149817D01*
X31102496Y-26700156D01*
X30930781Y-26284573D01*
X30613100Y-25966337D01*
X30505400Y-25921616D01*
X30505400Y-24439297D01*
X30647350Y-24380645D01*
X30983464Y-24045116D01*
X31165592Y-23606503D01*
X31166007Y-23131580D01*
X31166007Y-42168549D01*
X31115000Y-42291691D01*
X31115000Y-42894250D01*
X31273750Y-43053000D01*
X32385000Y-43053000D01*
X32385000Y-43033000D01*
X32639000Y-43033000D01*
X32639000Y-43053000D01*
X33750250Y-43053000D01*
X33782000Y-43021250D01*
X33813750Y-43053000D01*
X34925000Y-43053000D01*
X34925000Y-43033000D01*
X35179000Y-43033000D01*
X35179000Y-43053000D01*
X36290250Y-43053000D01*
X36322000Y-43021250D01*
X36353750Y-43053000D01*
X37465000Y-43053000D01*
X37465000Y-43033000D01*
X37719000Y-43033000D01*
X37719000Y-43053000D01*
X38830250Y-43053000D01*
X38862000Y-43021250D01*
X38893750Y-43053000D01*
X40005000Y-43053000D01*
X40005000Y-43033000D01*
X40259000Y-43033000D01*
X40259000Y-43053000D01*
X40279000Y-43053000D01*
X40279000Y-43307000D01*
X40259000Y-43307000D01*
X40259000Y-44418250D01*
X40417750Y-44577000D01*
X40767691Y-44577000D01*
X41020310Y-44577000D01*
X41063383Y-44559158D01*
X41062318Y-45779682D01*
X41660428Y-47227218D01*
X42766957Y-48335680D01*
X42921134Y-48399700D01*
X40005000Y-48399700D01*
X40005000Y-44418250D01*
X40005000Y-43307000D01*
X38893750Y-43307000D01*
X38862000Y-43338750D01*
X38830250Y-43307000D01*
X37719000Y-43307000D01*
X37719000Y-44418250D01*
X37877750Y-44577000D01*
X38227691Y-44577000D01*
X38480310Y-44577000D01*
X38713699Y-44480327D01*
X38862000Y-44332025D01*
X39010301Y-44480327D01*
X39243690Y-44577000D01*
X39496309Y-44577000D01*
X39846250Y-44577000D01*
X40005000Y-44418250D01*
X40005000Y-48399700D01*
X37465000Y-48399700D01*
X37465000Y-44418250D01*
X37465000Y-43307000D01*
X36353750Y-43307000D01*
X36322000Y-43338750D01*
X36290250Y-43307000D01*
X35179000Y-43307000D01*
X35179000Y-44418250D01*
X35337750Y-44577000D01*
X35687691Y-44577000D01*
X35940310Y-44577000D01*
X36173699Y-44480327D01*
X36322000Y-44332025D01*
X36470301Y-44480327D01*
X36703690Y-44577000D01*
X36956309Y-44577000D01*
X37306250Y-44577000D01*
X37465000Y-44418250D01*
X37465000Y-48399700D01*
X34925000Y-48399700D01*
X34925000Y-44418250D01*
X34925000Y-43307000D01*
X33813750Y-43307000D01*
X33782000Y-43338750D01*
X33750250Y-43307000D01*
X32639000Y-43307000D01*
X32639000Y-44418250D01*
X32797750Y-44577000D01*
X33147691Y-44577000D01*
X33400310Y-44577000D01*
X33633699Y-44480327D01*
X33782000Y-44332025D01*
X33930301Y-44480327D01*
X34163690Y-44577000D01*
X34416309Y-44577000D01*
X34766250Y-44577000D01*
X34925000Y-44418250D01*
X34925000Y-48399700D01*
X32385000Y-48399700D01*
X32385000Y-44418250D01*
X32385000Y-43307000D01*
X31273750Y-43307000D01*
X31115000Y-43465750D01*
X31115000Y-44068309D01*
X31211673Y-44301698D01*
X31390301Y-44480327D01*
X31623690Y-44577000D01*
X31876309Y-44577000D01*
X32226250Y-44577000D01*
X32385000Y-44418250D01*
X32385000Y-48399700D01*
X31102496Y-48399700D01*
X31102496Y-34320156D01*
X30979000Y-34021272D01*
X30979000Y-33279000D01*
X28562496Y-33279000D01*
X28562496Y-26700156D01*
X28390781Y-26284573D01*
X28073100Y-25966337D01*
X27657817Y-25793897D01*
X27364259Y-25793640D01*
X27364259Y-19050000D01*
X27364259Y-17526000D01*
X27332315Y-17361356D01*
X27237258Y-17216649D01*
X27093755Y-17119784D01*
X26924000Y-17085741D01*
X25400000Y-17085741D01*
X25235356Y-17117685D01*
X25090649Y-17212742D01*
X25002583Y-17343209D01*
X25002583Y-12750188D01*
X24248000Y-11995605D01*
X24068395Y-12175210D01*
X23493417Y-12750188D01*
X23555071Y-12985800D01*
X24055480Y-13161927D01*
X24585199Y-13133148D01*
X24940929Y-12985800D01*
X25002583Y-12750188D01*
X25002583Y-17343209D01*
X24993784Y-17356245D01*
X24959741Y-17526000D01*
X24959741Y-19050000D01*
X24991685Y-19214644D01*
X25086742Y-19359351D01*
X25230245Y-19456216D01*
X25400000Y-19490259D01*
X26924000Y-19490259D01*
X27088644Y-19458315D01*
X27233351Y-19363258D01*
X27330216Y-19219755D01*
X27364259Y-19050000D01*
X27364259Y-25793640D01*
X27356007Y-25793633D01*
X27356007Y-23131580D01*
X27356007Y-20591580D01*
X27174645Y-20152650D01*
X26839116Y-19816536D01*
X26400503Y-19634408D01*
X25925580Y-19633993D01*
X25486650Y-19815355D01*
X25150536Y-20150884D01*
X24968408Y-20589497D01*
X24967993Y-21064420D01*
X25149355Y-21503350D01*
X25484884Y-21839464D01*
X25923497Y-22021592D01*
X26398420Y-22022007D01*
X26837350Y-21840645D01*
X27173464Y-21505116D01*
X27355592Y-21066503D01*
X27356007Y-20591580D01*
X27356007Y-23131580D01*
X27174645Y-22692650D01*
X26839116Y-22356536D01*
X26400503Y-22174408D01*
X25925580Y-22173993D01*
X25486650Y-22355355D01*
X25150536Y-22690884D01*
X24968408Y-23129497D01*
X24967993Y-23604420D01*
X25149355Y-24043350D01*
X25484884Y-24379464D01*
X25923497Y-24561592D01*
X26398420Y-24562007D01*
X26837350Y-24380645D01*
X27173464Y-24045116D01*
X27355592Y-23606503D01*
X27356007Y-23131580D01*
X27356007Y-25793633D01*
X27208156Y-25793504D01*
X26792573Y-25965219D01*
X26474337Y-26282900D01*
X26301897Y-26698183D01*
X26301504Y-27147844D01*
X26473219Y-27563427D01*
X26790900Y-27881663D01*
X27206183Y-28054103D01*
X27655844Y-28054496D01*
X28071427Y-27882781D01*
X28389663Y-27565100D01*
X28562103Y-27149817D01*
X28562496Y-26700156D01*
X28562496Y-33279000D01*
X26439508Y-33279000D01*
X26181321Y-34139621D01*
X26061800Y-33851071D01*
X26022496Y-33840786D01*
X26022496Y-26700156D01*
X25850781Y-26284573D01*
X25533100Y-25966337D01*
X25117817Y-25793897D01*
X24668156Y-25793504D01*
X24273400Y-25956613D01*
X24273400Y-21976000D01*
X24273400Y-17150000D01*
X24232797Y-16945877D01*
X24117171Y-16772829D01*
X21831171Y-14486829D01*
X21658123Y-14371203D01*
X21454000Y-14330600D01*
X19408590Y-14330600D01*
X19364781Y-14224573D01*
X19047100Y-13906337D01*
X18631817Y-13733897D01*
X18182156Y-13733504D01*
X17766573Y-13905219D01*
X17448337Y-14222900D01*
X17275897Y-14638183D01*
X17275504Y-15087844D01*
X17447219Y-15503427D01*
X17764900Y-15821663D01*
X18180183Y-15994103D01*
X18629844Y-15994496D01*
X19045427Y-15822781D01*
X19363663Y-15505100D01*
X19408383Y-15397400D01*
X21233058Y-15397400D01*
X22921399Y-17085741D01*
X21590000Y-17085741D01*
X21425356Y-17117685D01*
X21280649Y-17212742D01*
X21188258Y-17349616D01*
X21112327Y-17166302D01*
X20933699Y-16987673D01*
X20700310Y-16891000D01*
X20447691Y-16891000D01*
X20097750Y-16891000D01*
X19939000Y-17049750D01*
X19939000Y-18161000D01*
X19959000Y-18161000D01*
X19959000Y-18415000D01*
X19939000Y-18415000D01*
X19939000Y-18435000D01*
X19685000Y-18435000D01*
X19685000Y-18415000D01*
X19685000Y-18161000D01*
X19685000Y-17049750D01*
X19526250Y-16891000D01*
X19176309Y-16891000D01*
X18923690Y-16891000D01*
X18690301Y-16987673D01*
X18542000Y-17135974D01*
X18393699Y-16987673D01*
X18160310Y-16891000D01*
X17907691Y-16891000D01*
X17557750Y-16891000D01*
X17399000Y-17049750D01*
X17399000Y-18161000D01*
X18510250Y-18161000D01*
X18542000Y-18129250D01*
X18573750Y-18161000D01*
X19685000Y-18161000D01*
X19685000Y-18415000D01*
X18573750Y-18415000D01*
X18542000Y-18446750D01*
X18510250Y-18415000D01*
X17399000Y-18415000D01*
X17399000Y-18435000D01*
X17211927Y-18435000D01*
X17211927Y-15056520D01*
X17183148Y-14526801D01*
X17035800Y-14171071D01*
X16800188Y-14109417D01*
X16620583Y-14289022D01*
X16620583Y-13929812D01*
X16558929Y-13694200D01*
X16058520Y-13518073D01*
X15528801Y-13546852D01*
X15173071Y-13694200D01*
X15111417Y-13929812D01*
X15866000Y-14684395D01*
X16620583Y-13929812D01*
X16620583Y-14289022D01*
X16045605Y-14864000D01*
X16800188Y-15618583D01*
X17035800Y-15556929D01*
X17211927Y-15056520D01*
X17211927Y-18435000D01*
X17145000Y-18435000D01*
X17145000Y-18415000D01*
X17145000Y-18161000D01*
X17145000Y-17049750D01*
X16986250Y-16891000D01*
X16636309Y-16891000D01*
X16620583Y-16891000D01*
X16620583Y-15798188D01*
X15866000Y-15043605D01*
X15686395Y-15223210D01*
X15686395Y-14864000D01*
X14931812Y-14109417D01*
X14696200Y-14171071D01*
X14520073Y-14671480D01*
X14548852Y-15201199D01*
X14696200Y-15556929D01*
X14931812Y-15618583D01*
X15686395Y-14864000D01*
X15686395Y-15223210D01*
X15111417Y-15798188D01*
X15173071Y-16033800D01*
X15673480Y-16209927D01*
X16203199Y-16181148D01*
X16558929Y-16033800D01*
X16620583Y-15798188D01*
X16620583Y-16891000D01*
X16383690Y-16891000D01*
X16150301Y-16987673D01*
X16002000Y-17135974D01*
X15853699Y-16987673D01*
X15620310Y-16891000D01*
X15367691Y-16891000D01*
X15017750Y-16891000D01*
X14859000Y-17049750D01*
X14859000Y-18161000D01*
X15970250Y-18161000D01*
X16002000Y-18129250D01*
X16033750Y-18161000D01*
X17145000Y-18161000D01*
X17145000Y-18415000D01*
X16033750Y-18415000D01*
X16002000Y-18446750D01*
X15970250Y-18415000D01*
X14859000Y-18415000D01*
X14859000Y-18435000D01*
X14605000Y-18435000D01*
X14605000Y-18415000D01*
X14605000Y-18161000D01*
X14605000Y-17049750D01*
X14446250Y-16891000D01*
X14096309Y-16891000D01*
X13843690Y-16891000D01*
X13610301Y-16987673D01*
X13462000Y-17135974D01*
X13313699Y-16987673D01*
X13231948Y-16953810D01*
X13080310Y-16891000D01*
X12827691Y-16891000D01*
X12477750Y-16891000D01*
X12319000Y-17049750D01*
X12319000Y-18161000D01*
X13430250Y-18161000D01*
X13462000Y-18129250D01*
X13493750Y-18161000D01*
X14605000Y-18161000D01*
X14605000Y-18415000D01*
X13493750Y-18415000D01*
X13462000Y-18446750D01*
X13430250Y-18415000D01*
X12319000Y-18415000D01*
X12319000Y-18435000D01*
X12065000Y-18435000D01*
X12065000Y-18415000D01*
X12065000Y-18161000D01*
X12065000Y-17049750D01*
X11906250Y-16891000D01*
X11556309Y-16891000D01*
X11303690Y-16891000D01*
X11070301Y-16987673D01*
X10922000Y-17135974D01*
X10773699Y-16987673D01*
X10540310Y-16891000D01*
X10352259Y-16891000D01*
X10352259Y-12720000D01*
X10352259Y-11420000D01*
X10320315Y-11255356D01*
X10225258Y-11110649D01*
X10081755Y-11013784D01*
X9912000Y-10979741D01*
X8612000Y-10979741D01*
X8447356Y-11011685D01*
X8302649Y-11106742D01*
X8205784Y-11250245D01*
X8171741Y-11420000D01*
X8171741Y-12720000D01*
X8203685Y-12884644D01*
X8298742Y-13029351D01*
X8442245Y-13126216D01*
X8612000Y-13160259D01*
X9912000Y-13160259D01*
X10076644Y-13128315D01*
X10221351Y-13033258D01*
X10318216Y-12889755D01*
X10352259Y-12720000D01*
X10352259Y-16891000D01*
X10287691Y-16891000D01*
X9937750Y-16891000D01*
X9779000Y-17049750D01*
X9779000Y-18161000D01*
X10890250Y-18161000D01*
X10922000Y-18129250D01*
X10953750Y-18161000D01*
X12065000Y-18161000D01*
X12065000Y-18415000D01*
X10953750Y-18415000D01*
X10922000Y-18446750D01*
X10890250Y-18415000D01*
X9779000Y-18415000D01*
X9779000Y-18435000D01*
X9525000Y-18435000D01*
X9525000Y-18415000D01*
X9525000Y-18161000D01*
X9525000Y-17049750D01*
X9366250Y-16891000D01*
X9016309Y-16891000D01*
X8763690Y-16891000D01*
X8530301Y-16987673D01*
X8382000Y-17135974D01*
X8233699Y-16987673D01*
X8059622Y-16915567D01*
X8059622Y-12250922D01*
X8030083Y-11740572D01*
X7891611Y-11406271D01*
X7661016Y-11350590D01*
X7481410Y-11530195D01*
X7481410Y-11170984D01*
X7425729Y-10940389D01*
X6942922Y-10772378D01*
X6432572Y-10801917D01*
X6098271Y-10940389D01*
X6042590Y-11170984D01*
X6762000Y-11890395D01*
X7481410Y-11170984D01*
X7481410Y-11530195D01*
X6941605Y-12070000D01*
X7661016Y-12789410D01*
X7891611Y-12733729D01*
X8059622Y-12250922D01*
X8059622Y-16915567D01*
X8000310Y-16891000D01*
X7747691Y-16891000D01*
X7481410Y-16891000D01*
X7481410Y-12969016D01*
X6762000Y-12249605D01*
X6582395Y-12429210D01*
X6582395Y-12070000D01*
X5862984Y-11350590D01*
X5632389Y-11406271D01*
X5464378Y-11889078D01*
X5493917Y-12399428D01*
X5632389Y-12733729D01*
X5862984Y-12789410D01*
X6582395Y-12070000D01*
X6582395Y-12429210D01*
X6042590Y-12969016D01*
X6098271Y-13199611D01*
X6581078Y-13367622D01*
X7091428Y-13338083D01*
X7425729Y-13199611D01*
X7481410Y-12969016D01*
X7481410Y-16891000D01*
X7397750Y-16891000D01*
X7239000Y-17049750D01*
X7239000Y-18161000D01*
X8350250Y-18161000D01*
X8382000Y-18129250D01*
X8413750Y-18161000D01*
X9525000Y-18161000D01*
X9525000Y-18415000D01*
X8413750Y-18415000D01*
X8382000Y-18446750D01*
X8350250Y-18415000D01*
X7239000Y-18415000D01*
X7239000Y-18435000D01*
X6985000Y-18435000D01*
X6985000Y-18415000D01*
X6985000Y-18161000D01*
X6985000Y-17049750D01*
X6826250Y-16891000D01*
X6476309Y-16891000D01*
X6223690Y-16891000D01*
X5990301Y-16987673D01*
X5811673Y-17166302D01*
X5715000Y-17399691D01*
X5715000Y-18002250D01*
X5873750Y-18161000D01*
X6985000Y-18161000D01*
X6985000Y-18415000D01*
X5873750Y-18415000D01*
X5715000Y-18573750D01*
X5715000Y-19176309D01*
X5811673Y-19409698D01*
X5990301Y-19588327D01*
X6223690Y-19685000D01*
X6476309Y-19685000D01*
X6752133Y-19685000D01*
X6436650Y-19815355D01*
X6100536Y-20150884D01*
X5918408Y-20589497D01*
X5917993Y-21064420D01*
X6099355Y-21503350D01*
X6434884Y-21839464D01*
X6873497Y-22021592D01*
X7348420Y-22022007D01*
X7787350Y-21840645D01*
X8123464Y-21505116D01*
X8305592Y-21066503D01*
X8306007Y-20591580D01*
X8124645Y-20152650D01*
X7789116Y-19816536D01*
X7472342Y-19685000D01*
X7747691Y-19685000D01*
X8000310Y-19685000D01*
X8233699Y-19588327D01*
X8382000Y-19440025D01*
X8530301Y-19588327D01*
X8763690Y-19685000D01*
X9016309Y-19685000D01*
X9292133Y-19685000D01*
X8976650Y-19815355D01*
X8640536Y-20150884D01*
X8458408Y-20589497D01*
X8457993Y-21064420D01*
X8639355Y-21503350D01*
X8974884Y-21839464D01*
X9413497Y-22021592D01*
X9888420Y-22022007D01*
X10327350Y-21840645D01*
X10663464Y-21505116D01*
X10845592Y-21066503D01*
X10846007Y-20591580D01*
X10664645Y-20152650D01*
X10329116Y-19816536D01*
X10012342Y-19685000D01*
X10287691Y-19685000D01*
X10540310Y-19685000D01*
X10773699Y-19588327D01*
X10922000Y-19440025D01*
X11070301Y-19588327D01*
X11303690Y-19685000D01*
X11556309Y-19685000D01*
X11832133Y-19685000D01*
X11516650Y-19815355D01*
X11180536Y-20150884D01*
X10998408Y-20589497D01*
X10997993Y-21064420D01*
X11179355Y-21503350D01*
X11514884Y-21839464D01*
X11953497Y-22021592D01*
X12428420Y-22022007D01*
X12867350Y-21840645D01*
X13203464Y-21505116D01*
X13385592Y-21066503D01*
X13386007Y-20591580D01*
X13204645Y-20152650D01*
X12869116Y-19816536D01*
X12552342Y-19685000D01*
X12827691Y-19685000D01*
X13080310Y-19685000D01*
X13313699Y-19588327D01*
X13462000Y-19440025D01*
X13610301Y-19588327D01*
X13843690Y-19685000D01*
X14096309Y-19685000D01*
X14372133Y-19685000D01*
X14056650Y-19815355D01*
X13720536Y-20150884D01*
X13538408Y-20589497D01*
X13537993Y-21064420D01*
X13719355Y-21503350D01*
X14054884Y-21839464D01*
X14493497Y-22021592D01*
X14968420Y-22022007D01*
X15407350Y-21840645D01*
X15743464Y-21505116D01*
X15925592Y-21066503D01*
X15926007Y-20591580D01*
X15744645Y-20152650D01*
X15409116Y-19816536D01*
X15092342Y-19685000D01*
X15367691Y-19685000D01*
X15620310Y-19685000D01*
X15853699Y-19588327D01*
X16002000Y-19440025D01*
X16150301Y-19588327D01*
X16383690Y-19685000D01*
X16636309Y-19685000D01*
X16912133Y-19685000D01*
X16596650Y-19815355D01*
X16260536Y-20150884D01*
X16078408Y-20589497D01*
X16077993Y-21064420D01*
X16259355Y-21503350D01*
X16594884Y-21839464D01*
X17033497Y-22021592D01*
X17508420Y-22022007D01*
X17947350Y-21840645D01*
X18283464Y-21505116D01*
X18465592Y-21066503D01*
X18466007Y-20591580D01*
X18284645Y-20152650D01*
X17949116Y-19816536D01*
X17632342Y-19685000D01*
X17907691Y-19685000D01*
X18160310Y-19685000D01*
X18393699Y-19588327D01*
X18542000Y-19440025D01*
X18690301Y-19588327D01*
X18923690Y-19685000D01*
X19176309Y-19685000D01*
X19452133Y-19685000D01*
X19136650Y-19815355D01*
X18800536Y-20150884D01*
X18618408Y-20589497D01*
X18617993Y-21064420D01*
X18799355Y-21503350D01*
X19134884Y-21839464D01*
X19573497Y-22021592D01*
X20048420Y-22022007D01*
X20487350Y-21840645D01*
X20823464Y-21505116D01*
X21005592Y-21066503D01*
X21006007Y-20591580D01*
X20824645Y-20152650D01*
X20489116Y-19816536D01*
X20172342Y-19685000D01*
X20447691Y-19685000D01*
X20700310Y-19685000D01*
X20933699Y-19588327D01*
X21112327Y-19409698D01*
X21188698Y-19225320D01*
X21276742Y-19359351D01*
X21420245Y-19456216D01*
X21590000Y-19490259D01*
X23114000Y-19490259D01*
X23206600Y-19472292D01*
X23206600Y-19994329D01*
X23029116Y-19816536D01*
X22590503Y-19634408D01*
X22115580Y-19633993D01*
X21676650Y-19815355D01*
X21340536Y-20150884D01*
X21158408Y-20589497D01*
X21157993Y-21064420D01*
X21339355Y-21503350D01*
X21674884Y-21839464D01*
X22113497Y-22021592D01*
X22588420Y-22022007D01*
X23027350Y-21840645D01*
X23206600Y-21661706D01*
X23206600Y-21755058D01*
X22729523Y-22232134D01*
X22590503Y-22174408D01*
X22115580Y-22173993D01*
X21676650Y-22355355D01*
X21340536Y-22690884D01*
X21158408Y-23129497D01*
X21157993Y-23604420D01*
X21339355Y-24043350D01*
X21674884Y-24379464D01*
X22113497Y-24561592D01*
X22588420Y-24562007D01*
X23027350Y-24380645D01*
X23363464Y-24045116D01*
X23545592Y-23606503D01*
X23546007Y-23131580D01*
X23485412Y-22984929D01*
X24117167Y-22353173D01*
X24117170Y-22353171D01*
X24117171Y-22353171D01*
X24186483Y-22249436D01*
X24232797Y-22180124D01*
X24232797Y-22180123D01*
X24273400Y-21976000D01*
X24273400Y-25956613D01*
X24252573Y-25965219D01*
X23934337Y-26282900D01*
X23761897Y-26698183D01*
X23761504Y-27147844D01*
X23933219Y-27563427D01*
X24250900Y-27881663D01*
X24666183Y-28054103D01*
X25115844Y-28054496D01*
X25531427Y-27882781D01*
X25849663Y-27565100D01*
X26022103Y-27149817D01*
X26022496Y-26700156D01*
X26022496Y-33840786D01*
X25826188Y-33789417D01*
X25646583Y-33969022D01*
X25646583Y-33609812D01*
X25584929Y-33374200D01*
X25084520Y-33198073D01*
X24554801Y-33226852D01*
X24199071Y-33374200D01*
X24137417Y-33609812D01*
X24892000Y-34364395D01*
X25646583Y-33609812D01*
X25646583Y-33969022D01*
X25071605Y-34544000D01*
X25085747Y-34558142D01*
X24906142Y-34737747D01*
X24892000Y-34723605D01*
X24712395Y-34903210D01*
X24712395Y-34544000D01*
X23957812Y-33789417D01*
X23722200Y-33851071D01*
X23546073Y-34351480D01*
X23574852Y-34881199D01*
X23722200Y-35236929D01*
X23957812Y-35298583D01*
X24712395Y-34544000D01*
X24712395Y-34903210D01*
X24137417Y-35478188D01*
X24199071Y-35713800D01*
X24497963Y-35819000D01*
X24438500Y-35819000D01*
X23676500Y-36835000D01*
X22551374Y-36835000D01*
X22584148Y-36756072D01*
X22584452Y-36407458D01*
X22451324Y-36085264D01*
X22205032Y-35838542D01*
X21883072Y-35704852D01*
X21713045Y-35704703D01*
X21606400Y-35598058D01*
X21606400Y-35396980D01*
X21710900Y-35501663D01*
X22126183Y-35674103D01*
X22575844Y-35674496D01*
X22991427Y-35502781D01*
X23309663Y-35185100D01*
X23482103Y-34769817D01*
X23482496Y-34320156D01*
X23310781Y-33904573D01*
X22993100Y-33586337D01*
X22577817Y-33413897D01*
X22128156Y-33413504D01*
X21712573Y-33585219D01*
X21606400Y-33691206D01*
X21606400Y-33106770D01*
X24800243Y-29912926D01*
X24997736Y-29831324D01*
X25244458Y-29585032D01*
X25378148Y-29263072D01*
X25378452Y-28914458D01*
X25245324Y-28592264D01*
X24999032Y-28345542D01*
X24677072Y-28211852D01*
X24328458Y-28211548D01*
X24006264Y-28344676D01*
X23759542Y-28590968D01*
X23697927Y-28739352D01*
X23697927Y-27116520D01*
X23669148Y-26586801D01*
X23521800Y-26231071D01*
X23286188Y-26169417D01*
X23106583Y-26349022D01*
X23106583Y-25989812D01*
X23044929Y-25754200D01*
X22544520Y-25578073D01*
X22014801Y-25606852D01*
X21659071Y-25754200D01*
X21597417Y-25989812D01*
X22352000Y-26744395D01*
X23106583Y-25989812D01*
X23106583Y-26349022D01*
X22531605Y-26924000D01*
X23286188Y-27678583D01*
X23521800Y-27616929D01*
X23697927Y-27116520D01*
X23697927Y-28739352D01*
X23625852Y-28912928D01*
X23625803Y-28968026D01*
X23106583Y-29487246D01*
X23106583Y-27858188D01*
X22352000Y-27103605D01*
X22172395Y-27283210D01*
X22172395Y-26924000D01*
X21417812Y-26169417D01*
X21182200Y-26231071D01*
X21006073Y-26731480D01*
X21034852Y-27261199D01*
X21182200Y-27616929D01*
X21417812Y-27678583D01*
X22172395Y-26924000D01*
X22172395Y-27283210D01*
X21597417Y-27858188D01*
X21659071Y-28093800D01*
X22159480Y-28269927D01*
X22689199Y-28241148D01*
X23044929Y-28093800D01*
X23106583Y-27858188D01*
X23106583Y-29487246D01*
X21006007Y-31587822D01*
X21006007Y-23131580D01*
X20824645Y-22692650D01*
X20489116Y-22356536D01*
X20050503Y-22174408D01*
X19575580Y-22173993D01*
X19136650Y-22355355D01*
X18800536Y-22690884D01*
X18618408Y-23129497D01*
X18617993Y-23604420D01*
X18799355Y-24043350D01*
X19134884Y-24379464D01*
X19573497Y-24561592D01*
X20048420Y-24562007D01*
X20487350Y-24380645D01*
X20823464Y-24045116D01*
X21005592Y-23606503D01*
X21006007Y-23131580D01*
X21006007Y-31587822D01*
X20942496Y-31651333D01*
X20942496Y-26700156D01*
X20770781Y-26284573D01*
X20453100Y-25966337D01*
X20037817Y-25793897D01*
X19588156Y-25793504D01*
X19172573Y-25965219D01*
X18854337Y-26282900D01*
X18681897Y-26698183D01*
X18681504Y-27147844D01*
X18853219Y-27563427D01*
X19170900Y-27881663D01*
X19586183Y-28054103D01*
X20035844Y-28054496D01*
X20451427Y-27882781D01*
X20769663Y-27565100D01*
X20942103Y-27149817D01*
X20942496Y-26700156D01*
X20942496Y-31651333D01*
X20543165Y-32050665D01*
X20380737Y-32293755D01*
X20323700Y-32580500D01*
X20380737Y-32867245D01*
X20539600Y-33104999D01*
X20539600Y-33672988D01*
X20453100Y-33586337D01*
X20037817Y-33413897D01*
X19588156Y-33413504D01*
X19172573Y-33585219D01*
X18854337Y-33902900D01*
X18681897Y-34318183D01*
X18681504Y-34767844D01*
X18853219Y-35183427D01*
X19170900Y-35501663D01*
X19586183Y-35674103D01*
X20035844Y-35674496D01*
X20451427Y-35502781D01*
X20539600Y-35414761D01*
X20539600Y-35819000D01*
X20580203Y-36023123D01*
X20695829Y-36196171D01*
X20853485Y-36353827D01*
X20831852Y-36405928D01*
X20831548Y-36754542D01*
X20964676Y-37076736D01*
X21210968Y-37323458D01*
X21532928Y-37457148D01*
X21881542Y-37457452D01*
X22203736Y-37324324D01*
X22343000Y-37185302D01*
X22343000Y-37821131D01*
X22196977Y-37966900D01*
X22024537Y-38382183D01*
X22024144Y-38831844D01*
X22195859Y-39247427D01*
X22343000Y-39394825D01*
X22343000Y-39883000D01*
X24121000Y-39883000D01*
X24121000Y-39311500D01*
X24401453Y-39101160D01*
X24484200Y-39300929D01*
X24719812Y-39362583D01*
X25469395Y-38613000D01*
X25838605Y-38613000D01*
X26588188Y-39362583D01*
X26823800Y-39300929D01*
X26913752Y-39045357D01*
X27169000Y-39300605D01*
X27169000Y-39883000D01*
X28884672Y-39883000D01*
X30979000Y-37003298D01*
X30979000Y-35066282D01*
X31102103Y-34769817D01*
X31102496Y-34320156D01*
X31102496Y-48399700D01*
X29149927Y-48399700D01*
X29149927Y-44012520D01*
X29121148Y-43482801D01*
X28973800Y-43127071D01*
X28738188Y-43065417D01*
X28558583Y-43245022D01*
X28558583Y-42885812D01*
X28496929Y-42650200D01*
X27996520Y-42474073D01*
X27466801Y-42502852D01*
X27111071Y-42650200D01*
X27049417Y-42885812D01*
X27804000Y-43640395D01*
X28558583Y-42885812D01*
X28558583Y-43245022D01*
X27983605Y-43820000D01*
X28738188Y-44574583D01*
X28973800Y-44512929D01*
X29149927Y-44012520D01*
X29149927Y-48399700D01*
X28558583Y-48399700D01*
X28558583Y-44754188D01*
X27804000Y-43999605D01*
X27624395Y-44179210D01*
X27624395Y-43820000D01*
X26869812Y-43065417D01*
X26634200Y-43127071D01*
X26458073Y-43627480D01*
X26486852Y-44157199D01*
X26634200Y-44512929D01*
X26869812Y-44574583D01*
X27624395Y-43820000D01*
X27624395Y-44179210D01*
X27049417Y-44754188D01*
X27111071Y-44989800D01*
X27611480Y-45165927D01*
X28141199Y-45137148D01*
X28496929Y-44989800D01*
X28558583Y-44754188D01*
X28558583Y-48399700D01*
X26408583Y-48399700D01*
X26408583Y-39542188D01*
X25654000Y-38787605D01*
X24899417Y-39542188D01*
X24961071Y-39777800D01*
X25461480Y-39953927D01*
X25991199Y-39925148D01*
X26346929Y-39777800D01*
X26408583Y-39542188D01*
X26408583Y-48399700D01*
X26394496Y-48399700D01*
X26394496Y-43596156D01*
X26222781Y-43180573D01*
X25905100Y-42862337D01*
X25489817Y-42689897D01*
X25040156Y-42689504D01*
X24624573Y-42861219D01*
X24306337Y-43178900D01*
X24133897Y-43594183D01*
X24133504Y-44043844D01*
X24305219Y-44459427D01*
X24622900Y-44777663D01*
X25038183Y-44950103D01*
X25487844Y-44950496D01*
X25903427Y-44778781D01*
X26221663Y-44461100D01*
X26394103Y-44045817D01*
X26394496Y-43596156D01*
X26394496Y-48399700D01*
X24544007Y-48399700D01*
X24544007Y-46763580D01*
X24362645Y-46324650D01*
X24027116Y-45988536D01*
X23883400Y-45928859D01*
X23883400Y-41850000D01*
X23842797Y-41645877D01*
X23842797Y-41645876D01*
X23727171Y-41472829D01*
X21277171Y-39022829D01*
X21104123Y-38907203D01*
X20900000Y-38866600D01*
X20733823Y-38866600D01*
X20823464Y-38777116D01*
X21005592Y-38338503D01*
X21006007Y-37863580D01*
X20824645Y-37424650D01*
X20489116Y-37088536D01*
X20050503Y-36906408D01*
X19575580Y-36905993D01*
X19136650Y-37087355D01*
X18800536Y-37422884D01*
X18618408Y-37861497D01*
X18617993Y-38336420D01*
X18799355Y-38775350D01*
X18890446Y-38866600D01*
X18193823Y-38866600D01*
X18283464Y-38777116D01*
X18465592Y-38338503D01*
X18466007Y-37863580D01*
X18466007Y-23131580D01*
X18284645Y-22692650D01*
X17949116Y-22356536D01*
X17510503Y-22174408D01*
X17035580Y-22173993D01*
X16596650Y-22355355D01*
X16260536Y-22690884D01*
X16078408Y-23129497D01*
X16077993Y-23604420D01*
X16259355Y-24043350D01*
X16594884Y-24379464D01*
X17033497Y-24561592D01*
X17508420Y-24562007D01*
X17947350Y-24380645D01*
X18283464Y-24045116D01*
X18465592Y-23606503D01*
X18466007Y-23131580D01*
X18466007Y-37863580D01*
X18402496Y-37709871D01*
X18402496Y-34320156D01*
X18402496Y-26700156D01*
X18230781Y-26284573D01*
X17913100Y-25966337D01*
X17497817Y-25793897D01*
X17048156Y-25793504D01*
X16632573Y-25965219D01*
X16314337Y-26282900D01*
X16141897Y-26698183D01*
X16141504Y-27147844D01*
X16313219Y-27563427D01*
X16630900Y-27881663D01*
X17046183Y-28054103D01*
X17495844Y-28054496D01*
X17911427Y-27882781D01*
X18229663Y-27565100D01*
X18402103Y-27149817D01*
X18402496Y-26700156D01*
X18402496Y-34320156D01*
X18230781Y-33904573D01*
X17913100Y-33586337D01*
X17497817Y-33413897D01*
X17048156Y-33413504D01*
X16632573Y-33585219D01*
X16314337Y-33902900D01*
X16141897Y-34318183D01*
X16141504Y-34767844D01*
X16313219Y-35183427D01*
X16630900Y-35501663D01*
X17046183Y-35674103D01*
X17495844Y-35674496D01*
X17911427Y-35502781D01*
X18229663Y-35185100D01*
X18402103Y-34769817D01*
X18402496Y-34320156D01*
X18402496Y-37709871D01*
X18284645Y-37424650D01*
X17949116Y-37088536D01*
X17510503Y-36906408D01*
X17035580Y-36905993D01*
X16596650Y-37087355D01*
X16260536Y-37422884D01*
X16078408Y-37861497D01*
X16077993Y-38336420D01*
X16259355Y-38775350D01*
X16350446Y-38866600D01*
X15653823Y-38866600D01*
X15743464Y-38777116D01*
X15925592Y-38338503D01*
X15926007Y-37863580D01*
X15926007Y-23131580D01*
X15744645Y-22692650D01*
X15409116Y-22356536D01*
X14970503Y-22174408D01*
X14495580Y-22173993D01*
X14056650Y-22355355D01*
X13720536Y-22690884D01*
X13538408Y-23129497D01*
X13537993Y-23604420D01*
X13719355Y-24043350D01*
X14054884Y-24379464D01*
X14493497Y-24561592D01*
X14968420Y-24562007D01*
X15407350Y-24380645D01*
X15743464Y-24045116D01*
X15925592Y-23606503D01*
X15926007Y-23131580D01*
X15926007Y-37863580D01*
X15862496Y-37709871D01*
X15862496Y-34320156D01*
X15862496Y-26700156D01*
X15690781Y-26284573D01*
X15373100Y-25966337D01*
X14957817Y-25793897D01*
X14508156Y-25793504D01*
X14092573Y-25965219D01*
X13774337Y-26282900D01*
X13601897Y-26698183D01*
X13601504Y-27147844D01*
X13773219Y-27563427D01*
X14090900Y-27881663D01*
X14506183Y-28054103D01*
X14955844Y-28054496D01*
X15371427Y-27882781D01*
X15689663Y-27565100D01*
X15862103Y-27149817D01*
X15862496Y-26700156D01*
X15862496Y-34320156D01*
X15690781Y-33904573D01*
X15373100Y-33586337D01*
X14957817Y-33413897D01*
X14508156Y-33413504D01*
X14092573Y-33585219D01*
X13774337Y-33902900D01*
X13601897Y-34318183D01*
X13601504Y-34767844D01*
X13773219Y-35183427D01*
X14090900Y-35501663D01*
X14506183Y-35674103D01*
X14955844Y-35674496D01*
X15371427Y-35502781D01*
X15689663Y-35185100D01*
X15862103Y-34769817D01*
X15862496Y-34320156D01*
X15862496Y-37709871D01*
X15744645Y-37424650D01*
X15409116Y-37088536D01*
X14970503Y-36906408D01*
X14495580Y-36905993D01*
X14056650Y-37087355D01*
X13720536Y-37422884D01*
X13538408Y-37861497D01*
X13537993Y-38336420D01*
X13719355Y-38775350D01*
X13810446Y-38866600D01*
X13113823Y-38866600D01*
X13203464Y-38777116D01*
X13385592Y-38338503D01*
X13386007Y-37863580D01*
X13386007Y-23131580D01*
X13204645Y-22692650D01*
X12869116Y-22356536D01*
X12430503Y-22174408D01*
X11955580Y-22173993D01*
X11516650Y-22355355D01*
X11180536Y-22690884D01*
X10998408Y-23129497D01*
X10997993Y-23604420D01*
X11179355Y-24043350D01*
X11514884Y-24379464D01*
X11953497Y-24561592D01*
X12428420Y-24562007D01*
X12867350Y-24380645D01*
X13203464Y-24045116D01*
X13385592Y-23606503D01*
X13386007Y-23131580D01*
X13386007Y-37863580D01*
X13322496Y-37709871D01*
X13322496Y-34320156D01*
X13322496Y-26700156D01*
X13150781Y-26284573D01*
X12833100Y-25966337D01*
X12417817Y-25793897D01*
X11968156Y-25793504D01*
X11552573Y-25965219D01*
X11234337Y-26282900D01*
X11061897Y-26698183D01*
X11061504Y-27147844D01*
X11233219Y-27563427D01*
X11550900Y-27881663D01*
X11966183Y-28054103D01*
X12415844Y-28054496D01*
X12831427Y-27882781D01*
X13149663Y-27565100D01*
X13322103Y-27149817D01*
X13322496Y-26700156D01*
X13322496Y-34320156D01*
X13150781Y-33904573D01*
X12833100Y-33586337D01*
X12417817Y-33413897D01*
X11968156Y-33413504D01*
X11552573Y-33585219D01*
X11234337Y-33902900D01*
X11061897Y-34318183D01*
X11061504Y-34767844D01*
X11233219Y-35183427D01*
X11550900Y-35501663D01*
X11966183Y-35674103D01*
X12415844Y-35674496D01*
X12831427Y-35502781D01*
X13149663Y-35185100D01*
X13322103Y-34769817D01*
X13322496Y-34320156D01*
X13322496Y-37709871D01*
X13204645Y-37424650D01*
X12869116Y-37088536D01*
X12430503Y-36906408D01*
X11955580Y-36905993D01*
X11516650Y-37087355D01*
X11180536Y-37422884D01*
X10998408Y-37861497D01*
X10997993Y-38336420D01*
X11179355Y-38775350D01*
X11270446Y-38866600D01*
X10573823Y-38866600D01*
X10663464Y-38777116D01*
X10845592Y-38338503D01*
X10846007Y-37863580D01*
X10846007Y-23131580D01*
X10664645Y-22692650D01*
X10329116Y-22356536D01*
X9890503Y-22174408D01*
X9415580Y-22173993D01*
X8976650Y-22355355D01*
X8640536Y-22690884D01*
X8458408Y-23129497D01*
X8457993Y-23604420D01*
X8639355Y-24043350D01*
X8974884Y-24379464D01*
X9413497Y-24561592D01*
X9888420Y-24562007D01*
X10327350Y-24380645D01*
X10663464Y-24045116D01*
X10845592Y-23606503D01*
X10846007Y-23131580D01*
X10846007Y-37863580D01*
X10782496Y-37709871D01*
X10782496Y-34320156D01*
X10782496Y-26700156D01*
X10610781Y-26284573D01*
X10293100Y-25966337D01*
X9877817Y-25793897D01*
X9428156Y-25793504D01*
X9012573Y-25965219D01*
X8694337Y-26282900D01*
X8521897Y-26698183D01*
X8521504Y-27147844D01*
X8693219Y-27563427D01*
X9010900Y-27881663D01*
X9426183Y-28054103D01*
X9875844Y-28054496D01*
X10291427Y-27882781D01*
X10609663Y-27565100D01*
X10782103Y-27149817D01*
X10782496Y-26700156D01*
X10782496Y-34320156D01*
X10610781Y-33904573D01*
X10293100Y-33586337D01*
X9877817Y-33413897D01*
X9428156Y-33413504D01*
X9012573Y-33585219D01*
X8694337Y-33902900D01*
X8521897Y-34318183D01*
X8521504Y-34767844D01*
X8693219Y-35183427D01*
X9010900Y-35501663D01*
X9426183Y-35674103D01*
X9875844Y-35674496D01*
X10291427Y-35502781D01*
X10609663Y-35185100D01*
X10782103Y-34769817D01*
X10782496Y-34320156D01*
X10782496Y-37709871D01*
X10664645Y-37424650D01*
X10329116Y-37088536D01*
X9890503Y-36906408D01*
X9415580Y-36905993D01*
X8976650Y-37087355D01*
X8640536Y-37422884D01*
X8458408Y-37861497D01*
X8457993Y-38336420D01*
X8639355Y-38775350D01*
X8730446Y-38866600D01*
X8306007Y-38866600D01*
X8306007Y-23131580D01*
X8124645Y-22692650D01*
X7789116Y-22356536D01*
X7350503Y-22174408D01*
X6875580Y-22173993D01*
X6436650Y-22355355D01*
X6100536Y-22690884D01*
X5918408Y-23129497D01*
X5917993Y-23604420D01*
X6099355Y-24043350D01*
X6434884Y-24379464D01*
X6873497Y-24561592D01*
X7348420Y-24562007D01*
X7787350Y-24380645D01*
X8123464Y-24045116D01*
X8305592Y-23606503D01*
X8306007Y-23131580D01*
X8306007Y-38866600D01*
X5904362Y-38866600D01*
X6074103Y-38457817D01*
X6074496Y-38008156D01*
X5902781Y-37592573D01*
X5585100Y-37274337D01*
X5169817Y-37101897D01*
X4974943Y-37101726D01*
X6397183Y-35679486D01*
X6413500Y-35682759D01*
X7810500Y-35682759D01*
X7975144Y-35650815D01*
X8119851Y-35555758D01*
X8216716Y-35412255D01*
X8250759Y-35242500D01*
X8250759Y-33845500D01*
X8242496Y-33802911D01*
X8242496Y-26700156D01*
X8070781Y-26284573D01*
X7753100Y-25966337D01*
X7337817Y-25793897D01*
X6888156Y-25793504D01*
X6472573Y-25965219D01*
X6154337Y-26282900D01*
X5981897Y-26698183D01*
X5981504Y-27147844D01*
X6153219Y-27563427D01*
X6470900Y-27881663D01*
X6886183Y-28054103D01*
X7335844Y-28054496D01*
X7751427Y-27882781D01*
X8069663Y-27565100D01*
X8242103Y-27149817D01*
X8242496Y-26700156D01*
X8242496Y-33802911D01*
X8218815Y-33680856D01*
X8123758Y-33536149D01*
X7980255Y-33439284D01*
X7810500Y-33405241D01*
X6413500Y-33405241D01*
X6248856Y-33437185D01*
X6104149Y-33532242D01*
X6007284Y-33675745D01*
X5973241Y-33845500D01*
X5973241Y-33994068D01*
X5943165Y-34014165D01*
X3869259Y-36088070D01*
X3869259Y-35687000D01*
X3869259Y-33909000D01*
X3861029Y-33866581D01*
X3861029Y-24376429D01*
X3734007Y-24069012D01*
X3734007Y-21861580D01*
X3734007Y-11701580D01*
X3552645Y-11262650D01*
X3217116Y-10926536D01*
X2778503Y-10744408D01*
X2303580Y-10743993D01*
X1864650Y-10925355D01*
X1528536Y-11260884D01*
X1346408Y-11699497D01*
X1345993Y-12174420D01*
X1527355Y-12613350D01*
X1862884Y-12949464D01*
X2301497Y-13131592D01*
X2776420Y-13132007D01*
X3215350Y-12950645D01*
X3551464Y-12615116D01*
X3733592Y-12176503D01*
X3734007Y-11701580D01*
X3734007Y-21861580D01*
X3552645Y-21422650D01*
X3217116Y-21086536D01*
X2778503Y-20904408D01*
X2303580Y-20903993D01*
X1864650Y-21085355D01*
X1528536Y-21420884D01*
X1346408Y-21859497D01*
X1345993Y-22334420D01*
X1527355Y-22773350D01*
X1862884Y-23109464D01*
X2301497Y-23291592D01*
X2776420Y-23292007D01*
X3215350Y-23110645D01*
X3551464Y-22775116D01*
X3733592Y-22336503D01*
X3734007Y-21861580D01*
X3734007Y-24069012D01*
X3660373Y-23890804D01*
X3289150Y-23518933D01*
X2803876Y-23317430D01*
X2278429Y-23316971D01*
X1792804Y-23517627D01*
X1420933Y-23888850D01*
X1219430Y-24374124D01*
X1218971Y-24899571D01*
X1419627Y-25385196D01*
X1790850Y-25757067D01*
X2276124Y-25958570D01*
X2801571Y-25959029D01*
X3287196Y-25758373D01*
X3659067Y-25387150D01*
X3860570Y-24901876D01*
X3861029Y-24376429D01*
X3861029Y-33866581D01*
X3837315Y-33744356D01*
X3742258Y-33599649D01*
X3598755Y-33502784D01*
X3429000Y-33468741D01*
X1651000Y-33468741D01*
X1486356Y-33500685D01*
X1341649Y-33595742D01*
X1244784Y-33739245D01*
X1210741Y-33909000D01*
X1210741Y-35687000D01*
X1242685Y-35851644D01*
X1337742Y-35996351D01*
X1481245Y-36093216D01*
X1651000Y-36127259D01*
X3429000Y-36127259D01*
X3593644Y-36095315D01*
X3738351Y-36000258D01*
X3835216Y-35856755D01*
X3869259Y-35687000D01*
X3869259Y-36088070D01*
X2789236Y-37168093D01*
X2629817Y-37101897D01*
X2180156Y-37101504D01*
X1764573Y-37273219D01*
X1446337Y-37590900D01*
X1273897Y-38006183D01*
X1273504Y-38455844D01*
X1445219Y-38871427D01*
X1762900Y-39189663D01*
X1950006Y-39267356D01*
X1999255Y-39300263D01*
X2056840Y-39311717D01*
X2178183Y-39362103D01*
X2627844Y-39362496D01*
X3043427Y-39190781D01*
X3361663Y-38873100D01*
X3473923Y-38602746D01*
X3813672Y-38262997D01*
X3813504Y-38455844D01*
X3985219Y-38871427D01*
X4302900Y-39189663D01*
X4718183Y-39362103D01*
X4825855Y-39362197D01*
X5240829Y-39777171D01*
X5413877Y-39892797D01*
X5618000Y-39933400D01*
X8670071Y-39933400D01*
X8640536Y-39962884D01*
X8458408Y-40401497D01*
X8457993Y-40876420D01*
X8639355Y-41315350D01*
X8974884Y-41651464D01*
X9291657Y-41783000D01*
X9016309Y-41783000D01*
X8763690Y-41783000D01*
X8530301Y-41879673D01*
X8351673Y-42058302D01*
X8255000Y-42291691D01*
X8255000Y-42894250D01*
X8413750Y-43053000D01*
X9525000Y-43053000D01*
X9525000Y-43033000D01*
X9779000Y-43033000D01*
X9779000Y-43053000D01*
X10890250Y-43053000D01*
X10922000Y-43021250D01*
X10953750Y-43053000D01*
X12065000Y-43053000D01*
X12065000Y-43033000D01*
X12319000Y-43033000D01*
X12319000Y-43053000D01*
X13430250Y-43053000D01*
X13462000Y-43021250D01*
X13493750Y-43053000D01*
X14605000Y-43053000D01*
X14605000Y-43033000D01*
X14859000Y-43033000D01*
X14859000Y-43053000D01*
X15970250Y-43053000D01*
X16002000Y-43021250D01*
X16033750Y-43053000D01*
X17145000Y-43053000D01*
X17145000Y-43033000D01*
X17399000Y-43033000D01*
X17399000Y-43053000D01*
X18510250Y-43053000D01*
X18542000Y-43021250D01*
X18573750Y-43053000D01*
X19685000Y-43053000D01*
X19685000Y-43033000D01*
X19939000Y-43033000D01*
X19939000Y-43053000D01*
X21050250Y-43053000D01*
X21209000Y-42894250D01*
X21209000Y-42291691D01*
X21112327Y-42058302D01*
X20933699Y-41879673D01*
X20700310Y-41783000D01*
X20447691Y-41783000D01*
X20171866Y-41783000D01*
X20487350Y-41652645D01*
X20823464Y-41317116D01*
X21005592Y-40878503D01*
X21006007Y-40403580D01*
X20905153Y-40159495D01*
X22816600Y-42070942D01*
X22816600Y-43977493D01*
X22597032Y-43757542D01*
X22275072Y-43623852D01*
X21926458Y-43623548D01*
X21604264Y-43756676D01*
X21357542Y-44002968D01*
X21223852Y-44324928D01*
X21223548Y-44673542D01*
X21340666Y-44956991D01*
X21233058Y-45064600D01*
X21209000Y-45064600D01*
X21209000Y-44068309D01*
X21209000Y-43465750D01*
X21050250Y-43307000D01*
X19939000Y-43307000D01*
X19939000Y-44418250D01*
X20097750Y-44577000D01*
X20447691Y-44577000D01*
X20700310Y-44577000D01*
X20933699Y-44480327D01*
X21112327Y-44301698D01*
X21209000Y-44068309D01*
X21209000Y-45064600D01*
X19685000Y-45064600D01*
X19685000Y-44418250D01*
X19685000Y-43307000D01*
X18573750Y-43307000D01*
X18542000Y-43338750D01*
X18510250Y-43307000D01*
X17399000Y-43307000D01*
X17399000Y-44418250D01*
X17557750Y-44577000D01*
X17907691Y-44577000D01*
X18160310Y-44577000D01*
X18393699Y-44480327D01*
X18542000Y-44332025D01*
X18690301Y-44480327D01*
X18923690Y-44577000D01*
X19176309Y-44577000D01*
X19526250Y-44577000D01*
X19685000Y-44418250D01*
X19685000Y-45064600D01*
X17145000Y-45064600D01*
X17145000Y-44418250D01*
X17145000Y-43307000D01*
X16033750Y-43307000D01*
X16002000Y-43338750D01*
X15970250Y-43307000D01*
X14859000Y-43307000D01*
X14859000Y-44418250D01*
X15017750Y-44577000D01*
X15367691Y-44577000D01*
X15620310Y-44577000D01*
X15853699Y-44480327D01*
X16002000Y-44332025D01*
X16150301Y-44480327D01*
X16383690Y-44577000D01*
X16636309Y-44577000D01*
X16986250Y-44577000D01*
X17145000Y-44418250D01*
X17145000Y-45064600D01*
X17136000Y-45064600D01*
X16931876Y-45105203D01*
X16862563Y-45151516D01*
X16758829Y-45220829D01*
X16758826Y-45220832D01*
X16113176Y-45866481D01*
X15968503Y-45806408D01*
X15493580Y-45805993D01*
X15054650Y-45987355D01*
X14718536Y-46322884D01*
X14605000Y-46596307D01*
X14605000Y-44418250D01*
X14605000Y-43307000D01*
X13493750Y-43307000D01*
X13462000Y-43338750D01*
X13430250Y-43307000D01*
X12319000Y-43307000D01*
X12319000Y-44418250D01*
X12477750Y-44577000D01*
X12827691Y-44577000D01*
X13080310Y-44577000D01*
X13313699Y-44480327D01*
X13462000Y-44332025D01*
X13610301Y-44480327D01*
X13843690Y-44577000D01*
X14096309Y-44577000D01*
X14446250Y-44577000D01*
X14605000Y-44418250D01*
X14605000Y-46596307D01*
X14572464Y-46674662D01*
X14571362Y-46652632D01*
X14412397Y-46268857D01*
X14170213Y-46199392D01*
X13990608Y-46378997D01*
X13990608Y-46019787D01*
X13921143Y-45777603D01*
X13397698Y-45590856D01*
X12842632Y-45618638D01*
X12458857Y-45777603D01*
X12389392Y-46019787D01*
X13190000Y-46820395D01*
X13990608Y-46019787D01*
X13990608Y-46378997D01*
X13369605Y-47000000D01*
X14170213Y-47800608D01*
X14412397Y-47731143D01*
X14564383Y-47305130D01*
X14717355Y-47675350D01*
X15052884Y-48011464D01*
X15491497Y-48193592D01*
X15966420Y-48194007D01*
X16405350Y-48012645D01*
X16741464Y-47677116D01*
X16923592Y-47238503D01*
X16924007Y-46763580D01*
X16865751Y-46622590D01*
X17356941Y-46131400D01*
X17450353Y-46131400D01*
X17258536Y-46322884D01*
X17076408Y-46761497D01*
X17075993Y-47236420D01*
X17257355Y-47675350D01*
X17592884Y-48011464D01*
X18031497Y-48193592D01*
X18506420Y-48194007D01*
X18945350Y-48012645D01*
X19281464Y-47677116D01*
X19463592Y-47238503D01*
X19464007Y-46763580D01*
X19282645Y-46324650D01*
X19089731Y-46131400D01*
X19990353Y-46131400D01*
X19798536Y-46322884D01*
X19616408Y-46761497D01*
X19615993Y-47236420D01*
X19797355Y-47675350D01*
X20132884Y-48011464D01*
X20571497Y-48193592D01*
X21046420Y-48194007D01*
X21485350Y-48012645D01*
X21821464Y-47677116D01*
X22003592Y-47238503D01*
X22004007Y-46763580D01*
X21822645Y-46324650D01*
X21600617Y-46102235D01*
X21658123Y-46090797D01*
X21831171Y-45975171D01*
X22477171Y-45329171D01*
X22511189Y-45278257D01*
X22595736Y-45243324D01*
X22816600Y-45022844D01*
X22816600Y-45928702D01*
X22674650Y-45987355D01*
X22338536Y-46322884D01*
X22156408Y-46761497D01*
X22155993Y-47236420D01*
X22337355Y-47675350D01*
X22672884Y-48011464D01*
X23111497Y-48193592D01*
X23586420Y-48194007D01*
X24025350Y-48012645D01*
X24361464Y-47677116D01*
X24543592Y-47238503D01*
X24544007Y-46763580D01*
X24544007Y-48399700D01*
X13170986Y-48399700D01*
X13537368Y-48381362D01*
X13921143Y-48222397D01*
X13990608Y-47980213D01*
X13190000Y-47179605D01*
X13010395Y-47359210D01*
X13010395Y-47000000D01*
X12209787Y-46199392D01*
X12065000Y-46240920D01*
X12065000Y-44418250D01*
X12065000Y-43307000D01*
X10953750Y-43307000D01*
X10922000Y-43338750D01*
X10890250Y-43307000D01*
X9779000Y-43307000D01*
X9779000Y-44418250D01*
X9937750Y-44577000D01*
X10287691Y-44577000D01*
X10540310Y-44577000D01*
X10773699Y-44480327D01*
X10922000Y-44332025D01*
X11070301Y-44480327D01*
X11303690Y-44577000D01*
X11556309Y-44577000D01*
X11906250Y-44577000D01*
X12065000Y-44418250D01*
X12065000Y-46240920D01*
X12047000Y-46246083D01*
X12047000Y-46111690D01*
X11950327Y-45878301D01*
X11771698Y-45699673D01*
X11538309Y-45603000D01*
X10935750Y-45603000D01*
X10777000Y-45761750D01*
X10777000Y-46873000D01*
X10797000Y-46873000D01*
X10797000Y-47127000D01*
X10777000Y-47127000D01*
X10777000Y-48238250D01*
X10935750Y-48397000D01*
X11538309Y-48397000D01*
X11771698Y-48300327D01*
X11950327Y-48121699D01*
X12047000Y-47888310D01*
X12047000Y-47753916D01*
X12209787Y-47800608D01*
X13010395Y-47000000D01*
X13010395Y-47359210D01*
X12389392Y-47980213D01*
X12458857Y-48222397D01*
X12955830Y-48399700D01*
X10523000Y-48399700D01*
X10523000Y-48238250D01*
X10523000Y-47127000D01*
X10523000Y-46873000D01*
X10523000Y-45761750D01*
X10364250Y-45603000D01*
X9761691Y-45603000D01*
X9528302Y-45699673D01*
X9525000Y-45702974D01*
X9525000Y-44418250D01*
X9525000Y-43307000D01*
X8413750Y-43307000D01*
X8255000Y-43465750D01*
X8255000Y-44068309D01*
X8351673Y-44301698D01*
X8530301Y-44480327D01*
X8763690Y-44577000D01*
X9016309Y-44577000D01*
X9366250Y-44577000D01*
X9525000Y-44418250D01*
X9525000Y-45702974D01*
X9349673Y-45878301D01*
X9253000Y-46111690D01*
X9253000Y-46364309D01*
X9253000Y-46714250D01*
X9411750Y-46873000D01*
X10523000Y-46873000D01*
X10523000Y-47127000D01*
X9411750Y-47127000D01*
X9253000Y-47285750D01*
X9253000Y-47635691D01*
X9253000Y-47888310D01*
X9349673Y-48121699D01*
X9528302Y-48300327D01*
X9761691Y-48397000D01*
X10364250Y-48397000D01*
X10523000Y-48238250D01*
X10523000Y-48399700D01*
X6081697Y-48399700D01*
X6227218Y-48339572D01*
X7335680Y-47233043D01*
X7936315Y-45786553D01*
X7937682Y-44220318D01*
X7339572Y-42772782D01*
X6233043Y-41664320D01*
X4786553Y-41063685D01*
X3220318Y-41062318D01*
X1772782Y-41660428D01*
X664320Y-42766957D01*
X622300Y-42868152D01*
X622300Y-6134941D01*
X660428Y-6227218D01*
X1766957Y-7335680D01*
X3213447Y-7936315D01*
X4779682Y-7937682D01*
X6227218Y-7339572D01*
X7335680Y-6233043D01*
X7936315Y-4786553D01*
X7937682Y-3220318D01*
X7339572Y-1772782D01*
X6233043Y-664320D01*
X6131847Y-622300D01*
X42865058Y-622300D01*
X42772782Y-660428D01*
X41664320Y-1766957D01*
X41063685Y-3213447D01*
X41062318Y-4779682D01*
X41645040Y-6189977D01*
X41616245Y-6170737D01*
X41465758Y-6140803D01*
X41445532Y-6120542D01*
X41123572Y-5986852D01*
X40774958Y-5986548D01*
X40452764Y-6119676D01*
X40206042Y-6365968D01*
X40072352Y-6687928D01*
X40072048Y-7036542D01*
X40205176Y-7358736D01*
X40451468Y-7605458D01*
X40773428Y-7739148D01*
X41122042Y-7739452D01*
X41139194Y-7732364D01*
X41878295Y-8471465D01*
X42006165Y-8662835D01*
X42080266Y-8712348D01*
X41673580Y-8711993D01*
X41234650Y-8893355D01*
X40898536Y-9228884D01*
X40716408Y-9667497D01*
X40715993Y-10142420D01*
X40897355Y-10581350D01*
X41232884Y-10917464D01*
X41671497Y-11099592D01*
X42146420Y-11100007D01*
X42290239Y-11040581D01*
X42646600Y-11396942D01*
X42646600Y-11494123D01*
X42587116Y-11434536D01*
X42148503Y-11252408D01*
X41673580Y-11251993D01*
X41291400Y-11409906D01*
X41291400Y-11308000D01*
X41250797Y-11103877D01*
X41250797Y-11103876D01*
X41204483Y-11034563D01*
X41135171Y-10930829D01*
X41135167Y-10930826D01*
X40500584Y-10296242D01*
X40563592Y-10144503D01*
X40564007Y-9669580D01*
X40382645Y-9230650D01*
X40047116Y-8894536D01*
X39608503Y-8712408D01*
X39133580Y-8711993D01*
X38694650Y-8893355D01*
X38358536Y-9228884D01*
X38212464Y-9580662D01*
X38211362Y-9558632D01*
X38052397Y-9174857D01*
X37810213Y-9105392D01*
X37630608Y-9284997D01*
X37630608Y-8925787D01*
X37561143Y-8683603D01*
X37530259Y-8672584D01*
X37530259Y-4084000D01*
X37530259Y-2784000D01*
X37498315Y-2619356D01*
X37403258Y-2474649D01*
X37259755Y-2377784D01*
X37090000Y-2343741D01*
X35790000Y-2343741D01*
X35625356Y-2375685D01*
X35480649Y-2470742D01*
X35383784Y-2614245D01*
X35349741Y-2784000D01*
X35349741Y-4084000D01*
X35381685Y-4248644D01*
X35476742Y-4393351D01*
X35620245Y-4490216D01*
X35790000Y-4524259D01*
X37090000Y-4524259D01*
X37254644Y-4492315D01*
X37399351Y-4397258D01*
X37496216Y-4253755D01*
X37530259Y-4084000D01*
X37530259Y-8672584D01*
X37037698Y-8496856D01*
X36482632Y-8524638D01*
X36098857Y-8683603D01*
X36029392Y-8925787D01*
X36830000Y-9726395D01*
X37630608Y-8925787D01*
X37630608Y-9284997D01*
X37009605Y-9906000D01*
X37810213Y-10706608D01*
X38052397Y-10637143D01*
X38204383Y-10211130D01*
X38357355Y-10581350D01*
X38692884Y-10917464D01*
X39131497Y-11099592D01*
X39606420Y-11100007D01*
X39740333Y-11044675D01*
X40224600Y-11528941D01*
X40224600Y-11612329D01*
X40047116Y-11434536D01*
X39608503Y-11252408D01*
X39133580Y-11251993D01*
X38694650Y-11433355D01*
X38358536Y-11768884D01*
X38176408Y-12207497D01*
X38175993Y-12682420D01*
X38357355Y-13121350D01*
X38692884Y-13457464D01*
X38836600Y-13517140D01*
X38836600Y-14507058D01*
X38720852Y-14622805D01*
X38425458Y-14622548D01*
X38103264Y-14755676D01*
X38024007Y-14834794D01*
X38024007Y-12209580D01*
X37842645Y-11770650D01*
X37507116Y-11434536D01*
X37155337Y-11288464D01*
X37177368Y-11287362D01*
X37561143Y-11128397D01*
X37630608Y-10886213D01*
X36830000Y-10085605D01*
X36650395Y-10265210D01*
X36650395Y-9906000D01*
X35849787Y-9105392D01*
X35607603Y-9174857D01*
X35455616Y-9600869D01*
X35302645Y-9230650D01*
X35237622Y-9165513D01*
X35237622Y-3614922D01*
X35208083Y-3104572D01*
X35069611Y-2770271D01*
X34839016Y-2714590D01*
X34659410Y-2894195D01*
X34659410Y-2534984D01*
X34603729Y-2304389D01*
X34120922Y-2136378D01*
X33610572Y-2165917D01*
X33276271Y-2304389D01*
X33220590Y-2534984D01*
X33940000Y-3254395D01*
X34659410Y-2534984D01*
X34659410Y-2894195D01*
X34119605Y-3434000D01*
X34839016Y-4153410D01*
X35069611Y-4097729D01*
X35237622Y-3614922D01*
X35237622Y-9165513D01*
X34967116Y-8894536D01*
X34659410Y-8766765D01*
X34659410Y-4333016D01*
X33940000Y-3613605D01*
X33760395Y-3793210D01*
X33760395Y-3434000D01*
X33040984Y-2714590D01*
X32810389Y-2770271D01*
X32642378Y-3253078D01*
X32671917Y-3763428D01*
X32810389Y-4097729D01*
X33040984Y-4153410D01*
X33760395Y-3434000D01*
X33760395Y-3793210D01*
X33220590Y-4333016D01*
X33276271Y-4563611D01*
X33759078Y-4731622D01*
X34269428Y-4702083D01*
X34603729Y-4563611D01*
X34659410Y-4333016D01*
X34659410Y-8766765D01*
X34528503Y-8712408D01*
X34053580Y-8711993D01*
X33614650Y-8893355D01*
X33278536Y-9228884D01*
X33096408Y-9667497D01*
X33095993Y-10142420D01*
X33277355Y-10581350D01*
X33612884Y-10917464D01*
X34051497Y-11099592D01*
X34526420Y-11100007D01*
X34965350Y-10918645D01*
X35301464Y-10583116D01*
X35447535Y-10231337D01*
X35448638Y-10253368D01*
X35607603Y-10637143D01*
X35849787Y-10706608D01*
X36650395Y-9906000D01*
X36650395Y-10265210D01*
X36029392Y-10886213D01*
X36098857Y-11128397D01*
X36524869Y-11280383D01*
X36154650Y-11433355D01*
X35818536Y-11768884D01*
X35636408Y-12207497D01*
X35635993Y-12682420D01*
X35817355Y-13121350D01*
X36152884Y-13457464D01*
X36591497Y-13639592D01*
X37066420Y-13640007D01*
X37505350Y-13458645D01*
X37841464Y-13123116D01*
X38023592Y-12684503D01*
X38024007Y-12209580D01*
X38024007Y-14834794D01*
X37856542Y-15001968D01*
X37722852Y-15323928D01*
X37722548Y-15672542D01*
X37855676Y-15994736D01*
X38101968Y-16241458D01*
X38423928Y-16375148D01*
X38772542Y-16375452D01*
X39094736Y-16242324D01*
X39341458Y-15996032D01*
X39475148Y-15674072D01*
X39475407Y-15376934D01*
X39747171Y-15105171D01*
X39862797Y-14932123D01*
X39903400Y-14728000D01*
X39903401Y-14728000D01*
X39903400Y-14727994D01*
X39903400Y-13517297D01*
X40045350Y-13458645D01*
X40224600Y-13279706D01*
X40224600Y-15245000D01*
X40265203Y-15449123D01*
X40380829Y-15622171D01*
X42891600Y-18132941D01*
X42891600Y-21120058D01*
X41529000Y-22482657D01*
X41529000Y-19176309D01*
X41529000Y-18573750D01*
X41529000Y-18002250D01*
X41529000Y-17399691D01*
X41432327Y-17166302D01*
X41253699Y-16987673D01*
X41020310Y-16891000D01*
X40767691Y-16891000D01*
X40417750Y-16891000D01*
X40259000Y-17049750D01*
X40259000Y-18161000D01*
X41370250Y-18161000D01*
X41529000Y-18002250D01*
X41529000Y-18573750D01*
X41370250Y-18415000D01*
X40259000Y-18415000D01*
X40259000Y-18435000D01*
X40005000Y-18435000D01*
X40005000Y-18415000D01*
X40005000Y-18161000D01*
X40005000Y-17049750D01*
X39846250Y-16891000D01*
X39496309Y-16891000D01*
X39243690Y-16891000D01*
X39010301Y-16987673D01*
X38862000Y-17135974D01*
X38713699Y-16987673D01*
X38480310Y-16891000D01*
X38227691Y-16891000D01*
X37877750Y-16891000D01*
X37719000Y-17049750D01*
X37719000Y-18161000D01*
X38830250Y-18161000D01*
X38862000Y-18129250D01*
X38893750Y-18161000D01*
X40005000Y-18161000D01*
X40005000Y-18415000D01*
X38893750Y-18415000D01*
X38862000Y-18446750D01*
X38830250Y-18415000D01*
X37719000Y-18415000D01*
X37719000Y-18435000D01*
X37465000Y-18435000D01*
X37465000Y-18415000D01*
X37465000Y-18161000D01*
X37465000Y-17049750D01*
X37306250Y-16891000D01*
X36956309Y-16891000D01*
X36703690Y-16891000D01*
X36470301Y-16987673D01*
X36322000Y-17135974D01*
X36173699Y-16987673D01*
X35940310Y-16891000D01*
X35687691Y-16891000D01*
X35484007Y-16891000D01*
X35484007Y-12209580D01*
X35302645Y-11770650D01*
X34967116Y-11434536D01*
X34528503Y-11252408D01*
X34053580Y-11251993D01*
X33614650Y-11433355D01*
X33278536Y-11768884D01*
X33096408Y-12207497D01*
X33095993Y-12682420D01*
X33277355Y-13121350D01*
X33612884Y-13457464D01*
X34051497Y-13639592D01*
X34526420Y-13640007D01*
X34965350Y-13458645D01*
X35301464Y-13123116D01*
X35483592Y-12684503D01*
X35484007Y-12209580D01*
X35484007Y-16891000D01*
X35337750Y-16891000D01*
X35179000Y-17049750D01*
X35179000Y-18161000D01*
X36290250Y-18161000D01*
X36322000Y-18129250D01*
X36353750Y-18161000D01*
X37465000Y-18161000D01*
X37465000Y-18415000D01*
X36353750Y-18415000D01*
X36322000Y-18446750D01*
X36290250Y-18415000D01*
X35179000Y-18415000D01*
X35179000Y-18435000D01*
X34925000Y-18435000D01*
X34925000Y-18415000D01*
X34925000Y-18161000D01*
X34925000Y-17049750D01*
X34766250Y-16891000D01*
X34513470Y-16891000D01*
X34524458Y-16880032D01*
X34658148Y-16558072D01*
X34658452Y-16209458D01*
X34525324Y-15887264D01*
X34279032Y-15640542D01*
X33957072Y-15506852D01*
X33659934Y-15506592D01*
X32283400Y-14130058D01*
X32283400Y-13648259D01*
X32512000Y-13648259D01*
X32676644Y-13616315D01*
X32821351Y-13521258D01*
X32918216Y-13377755D01*
X32952259Y-13208000D01*
X32952259Y-11684000D01*
X32944007Y-11641467D01*
X32944007Y-9669580D01*
X32762645Y-9230650D01*
X32427116Y-8894536D01*
X31988503Y-8712408D01*
X31513580Y-8711993D01*
X31074650Y-8893355D01*
X30738536Y-9228884D01*
X30556408Y-9667497D01*
X30555993Y-10142420D01*
X30737355Y-10581350D01*
X31072884Y-10917464D01*
X31511497Y-11099592D01*
X31986420Y-11100007D01*
X32425350Y-10918645D01*
X32761464Y-10583116D01*
X32943592Y-10144503D01*
X32944007Y-9669580D01*
X32944007Y-11641467D01*
X32920315Y-11519356D01*
X32825258Y-11374649D01*
X32681755Y-11277784D01*
X32512000Y-11243741D01*
X30988000Y-11243741D01*
X30823356Y-11275685D01*
X30678649Y-11370742D01*
X30581784Y-11514245D01*
X30547741Y-11684000D01*
X30547741Y-13208000D01*
X30579685Y-13372644D01*
X30674742Y-13517351D01*
X30818245Y-13614216D01*
X30988000Y-13648259D01*
X31216600Y-13648259D01*
X31216600Y-14351000D01*
X31257203Y-14555123D01*
X31372829Y-14728171D01*
X32905805Y-16261147D01*
X32905548Y-16556542D01*
X33038676Y-16878736D01*
X33050918Y-16891000D01*
X32797750Y-16891000D01*
X32639000Y-17049750D01*
X32639000Y-18161000D01*
X33750250Y-18161000D01*
X33782000Y-18129250D01*
X33813750Y-18161000D01*
X34925000Y-18161000D01*
X34925000Y-18415000D01*
X33813750Y-18415000D01*
X33782000Y-18446750D01*
X33750250Y-18415000D01*
X32639000Y-18415000D01*
X32639000Y-18435000D01*
X32385000Y-18435000D01*
X32385000Y-18415000D01*
X32385000Y-18161000D01*
X32385000Y-17049750D01*
X32226250Y-16891000D01*
X31876309Y-16891000D01*
X31623690Y-16891000D01*
X31390301Y-16987673D01*
X31242000Y-17135974D01*
X31093699Y-16987673D01*
X30860310Y-16891000D01*
X30607691Y-16891000D01*
X30257750Y-16891000D01*
X30140952Y-17007798D01*
X30140952Y-6562458D01*
X30007824Y-6240264D01*
X29761532Y-5993542D01*
X29439572Y-5859852D01*
X29090958Y-5859548D01*
X28768764Y-5992676D01*
X28522042Y-6238968D01*
X28394352Y-6546477D01*
X26258165Y-8682665D01*
X26095737Y-8925755D01*
X26038700Y-9212500D01*
X26038700Y-9544202D01*
X25931745Y-9472737D01*
X25645000Y-9415700D01*
X25137000Y-9415700D01*
X19056843Y-9415700D01*
X19056843Y-4643464D01*
X19053127Y-3475855D01*
X18613451Y-2414383D01*
X18211553Y-2157052D01*
X18031948Y-2336657D01*
X18031948Y-1977447D01*
X17774617Y-1575549D01*
X16694464Y-1132157D01*
X15526855Y-1135873D01*
X14465383Y-1575549D01*
X14208052Y-1977447D01*
X16120000Y-3889395D01*
X18031948Y-1977447D01*
X18031948Y-2336657D01*
X16299605Y-4069000D01*
X18211553Y-5980948D01*
X18613451Y-5723617D01*
X19056843Y-4643464D01*
X19056843Y-9415700D01*
X18805873Y-9415700D01*
X18437258Y-8523581D01*
X18031948Y-8117563D01*
X18031948Y-6160553D01*
X16120000Y-4248605D01*
X15940395Y-4428210D01*
X15940395Y-4069000D01*
X14028447Y-2157052D01*
X13626549Y-2414383D01*
X13183157Y-3494536D01*
X13186873Y-4662145D01*
X13626549Y-5723617D01*
X14028447Y-5980948D01*
X15940395Y-4069000D01*
X15940395Y-4428210D01*
X14208052Y-6160553D01*
X14465383Y-6562451D01*
X15545536Y-7005843D01*
X16713145Y-7002127D01*
X17774617Y-6562451D01*
X18031948Y-6160553D01*
X18031948Y-8117563D01*
X17669461Y-7754443D01*
X16665773Y-7337675D01*
X15578995Y-7336727D01*
X14574581Y-7751742D01*
X14256606Y-8069162D01*
X14253127Y-6975855D01*
X13813451Y-5914383D01*
X13411553Y-5657052D01*
X13231948Y-5836657D01*
X13231948Y-5477447D01*
X12974617Y-5075549D01*
X11894464Y-4632157D01*
X10726855Y-4635873D01*
X9665383Y-5075549D01*
X9408052Y-5477447D01*
X11320000Y-7389395D01*
X13231948Y-5477447D01*
X13231948Y-5836657D01*
X11499605Y-7569000D01*
X11513747Y-7583142D01*
X11334142Y-7762747D01*
X11320000Y-7748605D01*
X11140395Y-7928210D01*
X11140395Y-7569000D01*
X9228447Y-5657052D01*
X8826549Y-5914383D01*
X8383157Y-6994536D01*
X8386873Y-8162145D01*
X8826549Y-9223617D01*
X9228447Y-9480948D01*
X11140395Y-7569000D01*
X11140395Y-7928210D01*
X9408052Y-9660553D01*
X9665383Y-10062451D01*
X10745536Y-10505843D01*
X11913145Y-10502127D01*
X12974617Y-10062451D01*
X13231946Y-9660554D01*
X13231948Y-9660556D01*
X13344454Y-9773062D01*
X13388495Y-9729020D01*
X13387727Y-10610005D01*
X13802742Y-11614419D01*
X14570539Y-12383557D01*
X15574227Y-12800325D01*
X16661005Y-12801273D01*
X17665419Y-12386258D01*
X18434557Y-11618461D01*
X18726950Y-10914300D01*
X23230418Y-10914300D01*
X23198555Y-10946163D01*
X23313809Y-11061417D01*
X23078200Y-11123071D01*
X22902073Y-11623480D01*
X22930852Y-12153199D01*
X23078200Y-12508929D01*
X23313812Y-12570583D01*
X24068395Y-11816000D01*
X24054252Y-11801857D01*
X24233857Y-11622252D01*
X24248000Y-11636395D01*
X24262142Y-11622252D01*
X24441747Y-11801857D01*
X24427605Y-11816000D01*
X25182188Y-12570583D01*
X25417800Y-12508929D01*
X25593927Y-12008520D01*
X25575145Y-11662815D01*
X25657761Y-11745431D01*
X25657504Y-12039844D01*
X25829219Y-12455427D01*
X26146900Y-12773663D01*
X26562183Y-12946103D01*
X27011844Y-12946496D01*
X27427427Y-12774781D01*
X27745663Y-12457100D01*
X27918103Y-12041817D01*
X27918496Y-11592156D01*
X27746781Y-11176573D01*
X27537300Y-10966726D01*
X27537300Y-9522870D01*
X29454531Y-7605638D01*
X29760236Y-7479324D01*
X30006958Y-7233032D01*
X30140648Y-6911072D01*
X30140952Y-6562458D01*
X30140952Y-17007798D01*
X30099000Y-17049750D01*
X30099000Y-18161000D01*
X31210250Y-18161000D01*
X31242000Y-18129250D01*
X31273750Y-18161000D01*
X32385000Y-18161000D01*
X32385000Y-18415000D01*
X31273750Y-18415000D01*
X31242000Y-18446750D01*
X31210250Y-18415000D01*
X30099000Y-18415000D01*
X30099000Y-18435000D01*
X29845000Y-18435000D01*
X29845000Y-18415000D01*
X29845000Y-18161000D01*
X29845000Y-17049750D01*
X29686250Y-16891000D01*
X29336309Y-16891000D01*
X29083690Y-16891000D01*
X28850301Y-16987673D01*
X28671673Y-17166302D01*
X28575000Y-17399691D01*
X28575000Y-18002250D01*
X28733750Y-18161000D01*
X29845000Y-18161000D01*
X29845000Y-18415000D01*
X28733750Y-18415000D01*
X28575000Y-18573750D01*
X28575000Y-19176309D01*
X28671673Y-19409698D01*
X28850301Y-19588327D01*
X29083690Y-19685000D01*
X29336309Y-19685000D01*
X29612133Y-19685000D01*
X29296650Y-19815355D01*
X28960536Y-20150884D01*
X28778408Y-20589497D01*
X28777993Y-21064420D01*
X28959355Y-21503350D01*
X29294884Y-21839464D01*
X29733497Y-22021592D01*
X30208420Y-22022007D01*
X30647350Y-21840645D01*
X30911154Y-21577300D01*
X31573176Y-21577300D01*
X31834884Y-21839464D01*
X32273497Y-22021592D01*
X32748420Y-22022007D01*
X33187350Y-21840645D01*
X33451154Y-21577300D01*
X34113176Y-21577300D01*
X34374884Y-21839464D01*
X34813497Y-22021592D01*
X35288420Y-22022007D01*
X35727350Y-21840645D01*
X35991154Y-21577300D01*
X36653176Y-21577300D01*
X36914884Y-21839464D01*
X37353497Y-22021592D01*
X37828420Y-22022007D01*
X38267350Y-21840645D01*
X38531154Y-21577300D01*
X39193176Y-21577300D01*
X39454884Y-21839464D01*
X39893497Y-22021592D01*
X40368420Y-22022007D01*
X40807350Y-21840645D01*
X41143464Y-21505116D01*
X41325592Y-21066503D01*
X41326007Y-20591580D01*
X41144645Y-20152650D01*
X40809116Y-19816536D01*
X40492342Y-19685000D01*
X40767691Y-19685000D01*
X41020310Y-19685000D01*
X41253699Y-19588327D01*
X41432327Y-19409698D01*
X41529000Y-19176309D01*
X41529000Y-22482657D01*
X41195625Y-22816032D01*
X41144645Y-22692650D01*
X40809116Y-22356536D01*
X40370503Y-22174408D01*
X39895580Y-22173993D01*
X39456650Y-22355355D01*
X39120536Y-22690884D01*
X38938408Y-23129497D01*
X38937993Y-23604420D01*
X39119355Y-24043350D01*
X39454884Y-24379464D01*
X39893497Y-24561592D01*
X40368420Y-24562007D01*
X40807350Y-24380645D01*
X40986600Y-24201706D01*
X40986600Y-26180209D01*
X40773100Y-25966337D01*
X40357817Y-25793897D01*
X39908156Y-25793504D01*
X39492573Y-25965219D01*
X39174337Y-26282900D01*
X39001897Y-26698183D01*
X39001504Y-27147844D01*
X39173219Y-27563427D01*
X39490900Y-27881663D01*
X39906183Y-28054103D01*
X40355844Y-28054496D01*
X40771427Y-27882781D01*
X40986600Y-27667983D01*
X40986600Y-29946558D01*
X38786007Y-32147150D01*
X38786007Y-23131580D01*
X38604645Y-22692650D01*
X38269116Y-22356536D01*
X37830503Y-22174408D01*
X37355580Y-22173993D01*
X36916650Y-22355355D01*
X36580536Y-22690884D01*
X36398408Y-23129497D01*
X36397993Y-23604420D01*
X36579355Y-24043350D01*
X36914884Y-24379464D01*
X37353497Y-24561592D01*
X37828420Y-24562007D01*
X38267350Y-24380645D01*
X38603464Y-24045116D01*
X38785592Y-23606503D01*
X38786007Y-23131580D01*
X38786007Y-32147150D01*
X38722496Y-32210661D01*
X38722496Y-26700156D01*
X38550781Y-26284573D01*
X38233100Y-25966337D01*
X37817817Y-25793897D01*
X37368156Y-25793504D01*
X36952573Y-25965219D01*
X36634337Y-26282900D01*
X36461897Y-26698183D01*
X36461504Y-27147844D01*
X36633219Y-27563427D01*
X36950900Y-27881663D01*
X37366183Y-28054103D01*
X37815844Y-28054496D01*
X38231427Y-27882781D01*
X38549663Y-27565100D01*
X38722103Y-27149817D01*
X38722496Y-26700156D01*
X38722496Y-32210661D01*
X37519521Y-33413636D01*
X37368156Y-33413504D01*
X36952573Y-33585219D01*
X36634337Y-33902900D01*
X36461897Y-34318183D01*
X36461504Y-34767844D01*
X36633219Y-35183427D01*
X36950900Y-35501663D01*
X37366183Y-35674103D01*
X37815844Y-35674496D01*
X38231427Y-35502781D01*
X38549663Y-35185100D01*
X38722103Y-34769817D01*
X38722496Y-34320156D01*
X38550781Y-33904573D01*
X38544030Y-33897811D01*
X41626814Y-30815027D01*
X41784968Y-30973458D01*
X42106928Y-31107148D01*
X42455542Y-31107452D01*
X42646600Y-31028508D01*
X42646600Y-32834500D01*
X42646600Y-33049058D01*
X41685058Y-34010600D01*
X41134590Y-34010600D01*
X41090781Y-33904573D01*
X40773100Y-33586337D01*
X40357817Y-33413897D01*
X39908156Y-33413504D01*
X39492573Y-33585219D01*
X39174337Y-33902900D01*
X39001897Y-34318183D01*
X39001504Y-34767844D01*
X39173219Y-35183427D01*
X39490900Y-35501663D01*
X39906183Y-35674103D01*
X40355844Y-35674496D01*
X40771427Y-35502781D01*
X41089663Y-35185100D01*
X41134383Y-35077400D01*
X41906000Y-35077400D01*
X42110123Y-35036797D01*
X42283171Y-34921171D01*
X43557171Y-33647171D01*
X43672797Y-33474123D01*
X43713400Y-33270000D01*
X43713400Y-32834500D01*
X43713400Y-29980709D01*
X43816968Y-30084458D01*
X44138928Y-30218148D01*
X44487542Y-30218452D01*
X44809736Y-30085324D01*
X45056458Y-29839032D01*
X45190148Y-29517072D01*
X45190452Y-29168458D01*
X45057324Y-28846264D01*
X44811032Y-28599542D01*
X44593400Y-28509172D01*
X44593400Y-25024000D01*
X44593400Y-23604227D01*
X44595676Y-23609736D01*
X44841968Y-23856458D01*
X45163928Y-23990148D01*
X45512542Y-23990452D01*
X45834736Y-23857324D01*
X46081458Y-23611032D01*
X46215148Y-23289072D01*
X46215452Y-22940458D01*
X46213212Y-22935037D01*
X46253400Y-22733000D01*
X46253400Y-11176000D01*
X46212797Y-10971877D01*
X46212797Y-10971876D01*
X46097171Y-10798829D01*
X45584691Y-10286349D01*
X45643592Y-10144503D01*
X45644007Y-9669580D01*
X45462645Y-9230650D01*
X45127116Y-8894536D01*
X44688503Y-8712408D01*
X44213580Y-8711993D01*
X43774650Y-8893355D01*
X43704400Y-8963482D01*
X43704400Y-8768005D01*
X43704400Y-8768000D01*
X43704401Y-8768000D01*
X43663797Y-8563877D01*
X43548171Y-8390830D01*
X43548171Y-8390829D01*
X43548167Y-8390826D01*
X43285300Y-8127958D01*
X43285300Y-8069500D01*
X43228263Y-7782756D01*
X43228263Y-7782755D01*
X43065835Y-7539665D01*
X42929232Y-7403062D01*
X44213447Y-7936315D01*
X45779682Y-7937682D01*
X47227218Y-7339572D01*
X48335680Y-6233043D01*
X48399700Y-6078865D01*
X48399700Y-42918302D01*
M02*
