G04 #@! TF.GenerationSoftware,KiCad,Pcbnew,(6.0.1)*
G04 #@! TF.CreationDate,2022-05-14T09:46:04-04:00*
G04 #@! TF.ProjectId,PiPico-01,50695069-636f-42d3-9031-2e6b69636164,2*
G04 #@! TF.SameCoordinates,Original*
G04 #@! TF.FileFunction,Legend,Top*
G04 #@! TF.FilePolarity,Positive*
%FSLAX46Y46*%
G04 Gerber Fmt 4.6, Leading zero omitted, Abs format (unit mm)*
G04 Created by KiCad (PCBNEW (6.0.1)) date 2022-05-14 09:46:04*
%MOMM*%
%LPD*%
G01*
G04 APERTURE LIST*
%ADD10C,0.285750*%
%ADD11C,0.150000*%
%ADD12C,0.635000*%
%ADD13C,0.304800*%
%ADD14C,0.793750*%
%ADD15C,0.317500*%
%ADD16C,0.120000*%
%ADD17C,0.381000*%
%ADD18C,0.650000*%
%ADD19C,0.010000*%
%ADD20C,3.200000*%
%ADD21C,1.600000*%
%ADD22C,1.100000*%
G04 APERTURE END LIST*
D10*
X24615019Y-51571071D02*
X24615019Y-50428071D01*
X25159304Y-50536928D02*
X25219780Y-50482500D01*
X25340733Y-50428071D01*
X25643114Y-50428071D01*
X25764066Y-50482500D01*
X25824542Y-50536928D01*
X25885019Y-50645785D01*
X25885019Y-50754642D01*
X25824542Y-50917928D01*
X25098828Y-51571071D01*
X25885019Y-51571071D01*
X27155019Y-51462214D02*
X27094542Y-51516642D01*
X26913114Y-51571071D01*
X26792161Y-51571071D01*
X26610733Y-51516642D01*
X26489780Y-51407785D01*
X26429304Y-51298928D01*
X26368828Y-51081214D01*
X26368828Y-50917928D01*
X26429304Y-50700214D01*
X26489780Y-50591357D01*
X26610733Y-50482500D01*
X26792161Y-50428071D01*
X26913114Y-50428071D01*
X27094542Y-50482500D01*
X27155019Y-50536928D01*
X28485495Y-50428071D02*
X29211209Y-50428071D01*
X28848352Y-51571071D02*
X28848352Y-50428071D01*
X29634542Y-50972357D02*
X30057876Y-50972357D01*
X30239304Y-51571071D02*
X29634542Y-51571071D01*
X29634542Y-50428071D01*
X30239304Y-50428071D01*
X31509304Y-51571071D02*
X31085971Y-51026785D01*
X30783590Y-51571071D02*
X30783590Y-50428071D01*
X31267400Y-50428071D01*
X31388352Y-50482500D01*
X31448828Y-50536928D01*
X31509304Y-50645785D01*
X31509304Y-50809071D01*
X31448828Y-50917928D01*
X31388352Y-50972357D01*
X31267400Y-51026785D01*
X30783590Y-51026785D01*
X32053590Y-51571071D02*
X32053590Y-50428071D01*
X32476923Y-51244500D01*
X32900257Y-50428071D01*
X32900257Y-51571071D01*
X33444542Y-51516642D02*
X33625971Y-51571071D01*
X33928352Y-51571071D01*
X34049304Y-51516642D01*
X34109780Y-51462214D01*
X34170257Y-51353357D01*
X34170257Y-51244500D01*
X34109780Y-51135642D01*
X34049304Y-51081214D01*
X33928352Y-51026785D01*
X33686447Y-50972357D01*
X33565495Y-50917928D01*
X33505019Y-50863500D01*
X33444542Y-50754642D01*
X33444542Y-50645785D01*
X33505019Y-50536928D01*
X33565495Y-50482500D01*
X33686447Y-50428071D01*
X33988828Y-50428071D01*
X34170257Y-50482500D01*
D11*
X26859000Y-54351000D02*
X24130000Y-54356000D01*
X29459000Y-54351000D02*
X33528000Y-54351000D01*
D12*
X70454761Y-12615333D02*
X71664285Y-12615333D01*
X70212857Y-13341047D02*
X71059523Y-10801047D01*
X71906190Y-13341047D01*
X72752857Y-10801047D02*
X72752857Y-12857238D01*
X72873809Y-13099142D01*
X72994761Y-13220095D01*
X73236666Y-13341047D01*
X73720476Y-13341047D01*
X73962380Y-13220095D01*
X74083333Y-13099142D01*
X74204285Y-12857238D01*
X74204285Y-10801047D01*
X75413809Y-13341047D02*
X75413809Y-10801047D01*
X76018571Y-10801047D01*
X76381428Y-10922000D01*
X76623333Y-11163904D01*
X76744285Y-11405809D01*
X76865238Y-11889619D01*
X76865238Y-12252476D01*
X76744285Y-12736285D01*
X76623333Y-12978190D01*
X76381428Y-13220095D01*
X76018571Y-13341047D01*
X75413809Y-13341047D01*
X20586095Y-86601904D02*
X20707047Y-86239047D01*
X20707047Y-85634285D01*
X20586095Y-85392380D01*
X20465142Y-85271428D01*
X20223238Y-85150476D01*
X19981333Y-85150476D01*
X19739428Y-85271428D01*
X19618476Y-85392380D01*
X19497523Y-85634285D01*
X19376571Y-86118095D01*
X19255619Y-86360000D01*
X19134666Y-86480952D01*
X18892761Y-86601904D01*
X18650857Y-86601904D01*
X18408952Y-86480952D01*
X18288000Y-86360000D01*
X18167047Y-86118095D01*
X18167047Y-85513333D01*
X18288000Y-85150476D01*
X20707047Y-84061904D02*
X18167047Y-84061904D01*
X18167047Y-83457142D01*
X18288000Y-83094285D01*
X18529904Y-82852380D01*
X18771809Y-82731428D01*
X19255619Y-82610476D01*
X19618476Y-82610476D01*
X20102285Y-82731428D01*
X20344190Y-82852380D01*
X20586095Y-83094285D01*
X20707047Y-83457142D01*
X20707047Y-84061904D01*
X20465142Y-78135238D02*
X20586095Y-78256190D01*
X20707047Y-78619047D01*
X20707047Y-78860952D01*
X20586095Y-79223809D01*
X20344190Y-79465714D01*
X20102285Y-79586666D01*
X19618476Y-79707619D01*
X19255619Y-79707619D01*
X18771809Y-79586666D01*
X18529904Y-79465714D01*
X18288000Y-79223809D01*
X18167047Y-78860952D01*
X18167047Y-78619047D01*
X18288000Y-78256190D01*
X18408952Y-78135238D01*
X19981333Y-77167619D02*
X19981333Y-75958095D01*
X20707047Y-77409523D02*
X18167047Y-76562857D01*
X20707047Y-75716190D01*
X20707047Y-73418095D02*
X19497523Y-74264761D01*
X20707047Y-74869523D02*
X18167047Y-74869523D01*
X18167047Y-73901904D01*
X18288000Y-73660000D01*
X18408952Y-73539047D01*
X18650857Y-73418095D01*
X19013714Y-73418095D01*
X19255619Y-73539047D01*
X19376571Y-73660000D01*
X19497523Y-73901904D01*
X19497523Y-74869523D01*
X20707047Y-72329523D02*
X18167047Y-72329523D01*
X18167047Y-71724761D01*
X18288000Y-71361904D01*
X18529904Y-71120000D01*
X18771809Y-70999047D01*
X19255619Y-70878095D01*
X19618476Y-70878095D01*
X20102285Y-70999047D01*
X20344190Y-71120000D01*
X20586095Y-71361904D01*
X20707047Y-71724761D01*
X20707047Y-72329523D01*
X101116190Y-69983047D02*
X99906666Y-69983047D01*
X99785714Y-71192571D01*
X99906666Y-71071619D01*
X100148571Y-70950666D01*
X100753333Y-70950666D01*
X100995238Y-71071619D01*
X101116190Y-71192571D01*
X101237142Y-71434476D01*
X101237142Y-72039238D01*
X101116190Y-72281142D01*
X100995238Y-72402095D01*
X100753333Y-72523047D01*
X100148571Y-72523047D01*
X99906666Y-72402095D01*
X99785714Y-72281142D01*
X101962857Y-69983047D02*
X102809523Y-72523047D01*
X103656190Y-69983047D01*
X85019847Y-41152838D02*
X87559847Y-40306171D01*
X85019847Y-39459504D01*
X85140800Y-37282361D02*
X85019847Y-37524266D01*
X85019847Y-37887123D01*
X85140800Y-38249980D01*
X85382704Y-38491885D01*
X85624609Y-38612838D01*
X86108419Y-38733790D01*
X86471276Y-38733790D01*
X86955085Y-38612838D01*
X87196990Y-38491885D01*
X87438895Y-38249980D01*
X87559847Y-37887123D01*
X87559847Y-37645219D01*
X87438895Y-37282361D01*
X87317942Y-37161409D01*
X86471276Y-37161409D01*
X86471276Y-37645219D01*
X86834133Y-36193790D02*
X86834133Y-34984266D01*
X87559847Y-36435695D02*
X85019847Y-35589028D01*
X87559847Y-34742361D01*
D13*
X24279618Y-26079425D02*
X24506403Y-26155020D01*
X24581999Y-26230615D01*
X24657594Y-26381806D01*
X24657594Y-26608591D01*
X24581999Y-26759782D01*
X24506403Y-26835377D01*
X24355213Y-26910972D01*
X23750451Y-26910972D01*
X23750451Y-25323472D01*
X24279618Y-25323472D01*
X24430808Y-25399068D01*
X24506403Y-25474663D01*
X24581999Y-25625853D01*
X24581999Y-25777044D01*
X24506403Y-25928234D01*
X24430808Y-26003829D01*
X24279618Y-26079425D01*
X23750451Y-26079425D01*
X25640332Y-25323472D02*
X25791522Y-25323472D01*
X25942713Y-25399068D01*
X26018308Y-25474663D01*
X26093903Y-25625853D01*
X26169499Y-25928234D01*
X26169499Y-26306210D01*
X26093903Y-26608591D01*
X26018308Y-26759782D01*
X25942713Y-26835377D01*
X25791522Y-26910972D01*
X25640332Y-26910972D01*
X25489141Y-26835377D01*
X25413546Y-26759782D01*
X25337951Y-26608591D01*
X25262356Y-26306210D01*
X25262356Y-25928234D01*
X25337951Y-25625853D01*
X25413546Y-25474663D01*
X25489141Y-25399068D01*
X25640332Y-25323472D01*
X24279618Y-28635300D02*
X24506403Y-28710895D01*
X24581999Y-28786490D01*
X24657594Y-28937681D01*
X24657594Y-29164466D01*
X24581999Y-29315657D01*
X24506403Y-29391252D01*
X24355213Y-29466847D01*
X23750451Y-29466847D01*
X23750451Y-27879347D01*
X24279618Y-27879347D01*
X24430808Y-27954943D01*
X24506403Y-28030538D01*
X24581999Y-28181728D01*
X24581999Y-28332919D01*
X24506403Y-28484109D01*
X24430808Y-28559704D01*
X24279618Y-28635300D01*
X23750451Y-28635300D01*
X26169499Y-29466847D02*
X25262356Y-29466847D01*
X25715927Y-29466847D02*
X25715927Y-27879347D01*
X25564737Y-28106133D01*
X25413546Y-28257323D01*
X25262356Y-28332919D01*
X23750451Y-30435222D02*
X24279618Y-32022722D01*
X24808784Y-30435222D01*
X25262356Y-30586413D02*
X25337951Y-30510818D01*
X25489141Y-30435222D01*
X25867118Y-30435222D01*
X26018308Y-30510818D01*
X26093903Y-30586413D01*
X26169499Y-30737603D01*
X26169499Y-30888794D01*
X26093903Y-31115579D01*
X25186760Y-32022722D01*
X26169499Y-32022722D01*
X24279618Y-33747050D02*
X24506403Y-33822645D01*
X24581999Y-33898240D01*
X24657594Y-34049431D01*
X24657594Y-34276216D01*
X24581999Y-34427407D01*
X24506403Y-34503002D01*
X24355213Y-34578597D01*
X23750451Y-34578597D01*
X23750451Y-32991097D01*
X24279618Y-32991097D01*
X24430808Y-33066693D01*
X24506403Y-33142288D01*
X24581999Y-33293478D01*
X24581999Y-33444669D01*
X24506403Y-33595859D01*
X24430808Y-33671454D01*
X24279618Y-33747050D01*
X23750451Y-33747050D01*
X25186760Y-32991097D02*
X26169499Y-32991097D01*
X25640332Y-33595859D01*
X25867118Y-33595859D01*
X26018308Y-33671454D01*
X26093903Y-33747050D01*
X26169499Y-33898240D01*
X26169499Y-34276216D01*
X26093903Y-34427407D01*
X26018308Y-34503002D01*
X25867118Y-34578597D01*
X25413546Y-34578597D01*
X25262356Y-34503002D01*
X25186760Y-34427407D01*
X24279618Y-36302925D02*
X24506403Y-36378520D01*
X24581999Y-36454115D01*
X24657594Y-36605306D01*
X24657594Y-36832091D01*
X24581999Y-36983282D01*
X24506403Y-37058877D01*
X24355213Y-37134472D01*
X23750451Y-37134472D01*
X23750451Y-35546972D01*
X24279618Y-35546972D01*
X24430808Y-35622568D01*
X24506403Y-35698163D01*
X24581999Y-35849353D01*
X24581999Y-36000544D01*
X24506403Y-36151734D01*
X24430808Y-36227329D01*
X24279618Y-36302925D01*
X23750451Y-36302925D01*
X26018308Y-36076139D02*
X26018308Y-37134472D01*
X25640332Y-35471377D02*
X25262356Y-36605306D01*
X26245094Y-36605306D01*
X24279618Y-38858800D02*
X24506403Y-38934395D01*
X24581999Y-39009990D01*
X24657594Y-39161181D01*
X24657594Y-39387966D01*
X24581999Y-39539157D01*
X24506403Y-39614752D01*
X24355213Y-39690347D01*
X23750451Y-39690347D01*
X23750451Y-38102847D01*
X24279618Y-38102847D01*
X24430808Y-38178443D01*
X24506403Y-38254038D01*
X24581999Y-38405228D01*
X24581999Y-38556419D01*
X24506403Y-38707609D01*
X24430808Y-38783204D01*
X24279618Y-38858800D01*
X23750451Y-38858800D01*
X26093903Y-38102847D02*
X25337951Y-38102847D01*
X25262356Y-38858800D01*
X25337951Y-38783204D01*
X25489141Y-38707609D01*
X25867118Y-38707609D01*
X26018308Y-38783204D01*
X26093903Y-38858800D01*
X26169499Y-39009990D01*
X26169499Y-39387966D01*
X26093903Y-39539157D01*
X26018308Y-39614752D01*
X25867118Y-39690347D01*
X25489141Y-39690347D01*
X25337951Y-39614752D01*
X25262356Y-39539157D01*
X24279618Y-41414675D02*
X24506403Y-41490270D01*
X24581999Y-41565865D01*
X24657594Y-41717056D01*
X24657594Y-41943841D01*
X24581999Y-42095032D01*
X24506403Y-42170627D01*
X24355213Y-42246222D01*
X23750451Y-42246222D01*
X23750451Y-40658722D01*
X24279618Y-40658722D01*
X24430808Y-40734318D01*
X24506403Y-40809913D01*
X24581999Y-40961103D01*
X24581999Y-41112294D01*
X24506403Y-41263484D01*
X24430808Y-41339079D01*
X24279618Y-41414675D01*
X23750451Y-41414675D01*
X26018308Y-40658722D02*
X25715927Y-40658722D01*
X25564737Y-40734318D01*
X25489141Y-40809913D01*
X25337951Y-41036698D01*
X25262356Y-41339079D01*
X25262356Y-41943841D01*
X25337951Y-42095032D01*
X25413546Y-42170627D01*
X25564737Y-42246222D01*
X25867118Y-42246222D01*
X26018308Y-42170627D01*
X26093903Y-42095032D01*
X26169499Y-41943841D01*
X26169499Y-41565865D01*
X26093903Y-41414675D01*
X26018308Y-41339079D01*
X25867118Y-41263484D01*
X25564737Y-41263484D01*
X25413546Y-41339079D01*
X25337951Y-41414675D01*
X25262356Y-41565865D01*
X24279618Y-43970550D02*
X24506403Y-44046145D01*
X24581999Y-44121740D01*
X24657594Y-44272931D01*
X24657594Y-44499716D01*
X24581999Y-44650907D01*
X24506403Y-44726502D01*
X24355213Y-44802097D01*
X23750451Y-44802097D01*
X23750451Y-43214597D01*
X24279618Y-43214597D01*
X24430808Y-43290193D01*
X24506403Y-43365788D01*
X24581999Y-43516978D01*
X24581999Y-43668169D01*
X24506403Y-43819359D01*
X24430808Y-43894954D01*
X24279618Y-43970550D01*
X23750451Y-43970550D01*
X25186760Y-43214597D02*
X26245094Y-43214597D01*
X25564737Y-44802097D01*
X23296880Y-45770472D02*
X23826046Y-47357972D01*
X24355213Y-45770472D01*
X24884380Y-46753210D02*
X26093903Y-46753210D01*
X25489141Y-47357972D02*
X25489141Y-46148448D01*
X24506403Y-48401943D02*
X24355213Y-48326347D01*
X24128427Y-48326347D01*
X23901641Y-48401943D01*
X23750451Y-48553133D01*
X23674856Y-48704323D01*
X23599260Y-49006704D01*
X23599260Y-49233490D01*
X23674856Y-49535871D01*
X23750451Y-49687062D01*
X23901641Y-49838252D01*
X24128427Y-49913847D01*
X24279618Y-49913847D01*
X24506403Y-49838252D01*
X24581999Y-49762657D01*
X24581999Y-49233490D01*
X24279618Y-49233490D01*
X25262356Y-49913847D02*
X25262356Y-48326347D01*
X25640332Y-48326347D01*
X25867118Y-48401943D01*
X26018308Y-48553133D01*
X26093903Y-48704323D01*
X26169499Y-49006704D01*
X26169499Y-49233490D01*
X26093903Y-49535871D01*
X26018308Y-49687062D01*
X25867118Y-49838252D01*
X25640332Y-49913847D01*
X25262356Y-49913847D01*
D14*
X45777452Y-97575309D02*
X45777452Y-100145547D01*
X45928642Y-100447928D01*
X46079833Y-100599119D01*
X46382214Y-100750309D01*
X46986976Y-100750309D01*
X47289357Y-100599119D01*
X47440547Y-100447928D01*
X47591738Y-100145547D01*
X47591738Y-97575309D01*
X48952452Y-100599119D02*
X49406023Y-100750309D01*
X50161976Y-100750309D01*
X50464357Y-100599119D01*
X50615547Y-100447928D01*
X50766738Y-100145547D01*
X50766738Y-99843166D01*
X50615547Y-99540785D01*
X50464357Y-99389595D01*
X50161976Y-99238404D01*
X49557214Y-99087214D01*
X49254833Y-98936023D01*
X49103642Y-98784833D01*
X48952452Y-98482452D01*
X48952452Y-98180071D01*
X49103642Y-97877690D01*
X49254833Y-97726500D01*
X49557214Y-97575309D01*
X50313166Y-97575309D01*
X50766738Y-97726500D01*
X53185785Y-99087214D02*
X53639357Y-99238404D01*
X53790547Y-99389595D01*
X53941738Y-99691976D01*
X53941738Y-100145547D01*
X53790547Y-100447928D01*
X53639357Y-100599119D01*
X53336976Y-100750309D01*
X52127452Y-100750309D01*
X52127452Y-97575309D01*
X53185785Y-97575309D01*
X53488166Y-97726500D01*
X53639357Y-97877690D01*
X53790547Y-98180071D01*
X53790547Y-98482452D01*
X53639357Y-98784833D01*
X53488166Y-98936023D01*
X53185785Y-99087214D01*
X52127452Y-99087214D01*
D12*
X96520000Y-84485238D02*
X96399047Y-84727142D01*
X96399047Y-85090000D01*
X96520000Y-85452857D01*
X96761904Y-85694761D01*
X97003809Y-85815714D01*
X97487619Y-85936666D01*
X97850476Y-85936666D01*
X98334285Y-85815714D01*
X98576190Y-85694761D01*
X98818095Y-85452857D01*
X98939047Y-85090000D01*
X98939047Y-84848095D01*
X98818095Y-84485238D01*
X98697142Y-84364285D01*
X97850476Y-84364285D01*
X97850476Y-84848095D01*
X98939047Y-83275714D02*
X96399047Y-83275714D01*
X98939047Y-81824285D01*
X96399047Y-81824285D01*
X98939047Y-80614761D02*
X96399047Y-80614761D01*
X96399047Y-80010000D01*
X96520000Y-79647142D01*
X96761904Y-79405238D01*
X97003809Y-79284285D01*
X97487619Y-79163333D01*
X97850476Y-79163333D01*
X98334285Y-79284285D01*
X98576190Y-79405238D01*
X98818095Y-79647142D01*
X98939047Y-80010000D01*
X98939047Y-80614761D01*
X24223738Y-14374434D02*
X23921357Y-14223244D01*
X23770166Y-13920863D01*
X23770166Y-11199434D01*
X26793976Y-14374434D02*
X26793976Y-12711339D01*
X26642785Y-12408958D01*
X26340404Y-12257767D01*
X25735642Y-12257767D01*
X25433261Y-12408958D01*
X26793976Y-14223244D02*
X26491595Y-14374434D01*
X25735642Y-14374434D01*
X25433261Y-14223244D01*
X25282071Y-13920863D01*
X25282071Y-13618482D01*
X25433261Y-13316101D01*
X25735642Y-13164910D01*
X26491595Y-13164910D01*
X26793976Y-13013720D01*
X28305880Y-12257767D02*
X28305880Y-14374434D01*
X28305880Y-12560148D02*
X28457071Y-12408958D01*
X28759452Y-12257767D01*
X29213023Y-12257767D01*
X29515404Y-12408958D01*
X29666595Y-12711339D01*
X29666595Y-14374434D01*
X32539214Y-14374434D02*
X32539214Y-11199434D01*
X32539214Y-14223244D02*
X32236833Y-14374434D01*
X31632071Y-14374434D01*
X31329690Y-14223244D01*
X31178499Y-14072053D01*
X31027309Y-13769672D01*
X31027309Y-12862529D01*
X31178499Y-12560148D01*
X31329690Y-12408958D01*
X31632071Y-12257767D01*
X32236833Y-12257767D01*
X32539214Y-12408958D01*
X34051119Y-13164910D02*
X36470166Y-13164910D01*
X37982071Y-14374434D02*
X37982071Y-11199434D01*
X37982071Y-12408958D02*
X38284452Y-12257767D01*
X38889214Y-12257767D01*
X39191595Y-12408958D01*
X39342785Y-12560148D01*
X39493976Y-12862529D01*
X39493976Y-13769672D01*
X39342785Y-14072053D01*
X39191595Y-14223244D01*
X38889214Y-14374434D01*
X38284452Y-14374434D01*
X37982071Y-14223244D01*
X41308261Y-14374434D02*
X41005880Y-14223244D01*
X40854690Y-14072053D01*
X40703499Y-13769672D01*
X40703499Y-12862529D01*
X40854690Y-12560148D01*
X41005880Y-12408958D01*
X41308261Y-12257767D01*
X41761833Y-12257767D01*
X42064214Y-12408958D01*
X42215404Y-12560148D01*
X42366595Y-12862529D01*
X42366595Y-13769672D01*
X42215404Y-14072053D01*
X42064214Y-14223244D01*
X41761833Y-14374434D01*
X41308261Y-14374434D01*
X45088023Y-14374434D02*
X45088023Y-12711339D01*
X44936833Y-12408958D01*
X44634452Y-12257767D01*
X44029690Y-12257767D01*
X43727309Y-12408958D01*
X45088023Y-14223244D02*
X44785642Y-14374434D01*
X44029690Y-14374434D01*
X43727309Y-14223244D01*
X43576119Y-13920863D01*
X43576119Y-13618482D01*
X43727309Y-13316101D01*
X44029690Y-13164910D01*
X44785642Y-13164910D01*
X45088023Y-13013720D01*
X46599928Y-14374434D02*
X46599928Y-12257767D01*
X46599928Y-12862529D02*
X46751119Y-12560148D01*
X46902309Y-12408958D01*
X47204690Y-12257767D01*
X47507071Y-12257767D01*
X49926119Y-14374434D02*
X49926119Y-11199434D01*
X49926119Y-14223244D02*
X49623738Y-14374434D01*
X49018976Y-14374434D01*
X48716595Y-14223244D01*
X48565404Y-14072053D01*
X48414214Y-13769672D01*
X48414214Y-12862529D01*
X48565404Y-12560148D01*
X48716595Y-12408958D01*
X49018976Y-12257767D01*
X49623738Y-12257767D01*
X49926119Y-12408958D01*
X51286833Y-14223244D02*
X51589214Y-14374434D01*
X52193976Y-14374434D01*
X52496357Y-14223244D01*
X52647547Y-13920863D01*
X52647547Y-13769672D01*
X52496357Y-13467291D01*
X52193976Y-13316101D01*
X51740404Y-13316101D01*
X51438023Y-13164910D01*
X51286833Y-12862529D01*
X51286833Y-12711339D01*
X51438023Y-12408958D01*
X51740404Y-12257767D01*
X52193976Y-12257767D01*
X52496357Y-12408958D01*
X54008261Y-14072053D02*
X54159452Y-14223244D01*
X54008261Y-14374434D01*
X53857071Y-14223244D01*
X54008261Y-14072053D01*
X54008261Y-14374434D01*
X56880880Y-14223244D02*
X56578500Y-14374434D01*
X55973738Y-14374434D01*
X55671357Y-14223244D01*
X55520166Y-14072053D01*
X55368976Y-13769672D01*
X55368976Y-12862529D01*
X55520166Y-12560148D01*
X55671357Y-12408958D01*
X55973738Y-12257767D01*
X56578500Y-12257767D01*
X56880880Y-12408958D01*
X58695166Y-14374434D02*
X58392785Y-14223244D01*
X58241595Y-14072053D01*
X58090404Y-13769672D01*
X58090404Y-12862529D01*
X58241595Y-12560148D01*
X58392785Y-12408958D01*
X58695166Y-12257767D01*
X59148738Y-12257767D01*
X59451119Y-12408958D01*
X59602309Y-12560148D01*
X59753500Y-12862529D01*
X59753500Y-13769672D01*
X59602309Y-14072053D01*
X59451119Y-14223244D01*
X59148738Y-14374434D01*
X58695166Y-14374434D01*
X61114214Y-14374434D02*
X61114214Y-12257767D01*
X61114214Y-12560148D02*
X61265404Y-12408958D01*
X61567785Y-12257767D01*
X62021357Y-12257767D01*
X62323738Y-12408958D01*
X62474928Y-12711339D01*
X62474928Y-14374434D01*
X62474928Y-12711339D02*
X62626119Y-12408958D01*
X62928500Y-12257767D01*
X63382071Y-12257767D01*
X63684452Y-12408958D01*
X63835642Y-12711339D01*
X63835642Y-14374434D01*
X67615404Y-11048244D02*
X64893976Y-15130386D01*
X33748738Y-19486184D02*
X33748738Y-16311184D01*
X34958261Y-16311184D01*
X35260642Y-16462375D01*
X35411833Y-16613565D01*
X35563023Y-16915946D01*
X35563023Y-17369517D01*
X35411833Y-17671898D01*
X35260642Y-17823089D01*
X34958261Y-17974279D01*
X33748738Y-17974279D01*
X36923738Y-19486184D02*
X36923738Y-17369517D01*
X36923738Y-16311184D02*
X36772547Y-16462375D01*
X36923738Y-16613565D01*
X37074928Y-16462375D01*
X36923738Y-16311184D01*
X36923738Y-16613565D01*
X38435642Y-19486184D02*
X38435642Y-16311184D01*
X39645166Y-16311184D01*
X39947547Y-16462375D01*
X40098738Y-16613565D01*
X40249928Y-16915946D01*
X40249928Y-17369517D01*
X40098738Y-17671898D01*
X39947547Y-17823089D01*
X39645166Y-17974279D01*
X38435642Y-17974279D01*
X41610642Y-19486184D02*
X41610642Y-17369517D01*
X41610642Y-16311184D02*
X41459452Y-16462375D01*
X41610642Y-16613565D01*
X41761833Y-16462375D01*
X41610642Y-16311184D01*
X41610642Y-16613565D01*
X44483261Y-19334994D02*
X44180880Y-19486184D01*
X43576119Y-19486184D01*
X43273738Y-19334994D01*
X43122547Y-19183803D01*
X42971357Y-18881422D01*
X42971357Y-17974279D01*
X43122547Y-17671898D01*
X43273738Y-17520708D01*
X43576119Y-17369517D01*
X44180880Y-17369517D01*
X44483261Y-17520708D01*
X46297547Y-19486184D02*
X45995166Y-19334994D01*
X45843976Y-19183803D01*
X45692785Y-18881422D01*
X45692785Y-17974279D01*
X45843976Y-17671898D01*
X45995166Y-17520708D01*
X46297547Y-17369517D01*
X46751119Y-17369517D01*
X47053500Y-17520708D01*
X47204690Y-17671898D01*
X47355880Y-17974279D01*
X47355880Y-18881422D01*
X47204690Y-19183803D01*
X47053500Y-19334994D01*
X46751119Y-19486184D01*
X46297547Y-19486184D01*
X48716595Y-18276660D02*
X51135642Y-18276660D01*
X53252309Y-16311184D02*
X53554690Y-16311184D01*
X53857071Y-16462375D01*
X54008261Y-16613565D01*
X54159452Y-16915946D01*
X54310642Y-17520708D01*
X54310642Y-18276660D01*
X54159452Y-18881422D01*
X54008261Y-19183803D01*
X53857071Y-19334994D01*
X53554690Y-19486184D01*
X53252309Y-19486184D01*
X52949928Y-19334994D01*
X52798738Y-19183803D01*
X52647547Y-18881422D01*
X52496357Y-18276660D01*
X52496357Y-17520708D01*
X52647547Y-16915946D01*
X52798738Y-16613565D01*
X52949928Y-16462375D01*
X53252309Y-16311184D01*
X57334452Y-19486184D02*
X55520166Y-19486184D01*
X56427309Y-19486184D02*
X56427309Y-16311184D01*
X56124928Y-16764755D01*
X55822547Y-17067136D01*
X55520166Y-17218327D01*
D14*
X51474309Y-85380285D02*
X49962404Y-86438619D01*
X51474309Y-87194571D02*
X48299309Y-87194571D01*
X48299309Y-85985047D01*
X48450500Y-85682666D01*
X48601690Y-85531476D01*
X48904071Y-85380285D01*
X49357642Y-85380285D01*
X49660023Y-85531476D01*
X49811214Y-85682666D01*
X49962404Y-85985047D01*
X49962404Y-87194571D01*
X51474309Y-84019571D02*
X48299309Y-84019571D01*
X48299309Y-82810047D01*
X48450500Y-82507666D01*
X48601690Y-82356476D01*
X48904071Y-82205285D01*
X49357642Y-82205285D01*
X49660023Y-82356476D01*
X49811214Y-82507666D01*
X49962404Y-82810047D01*
X49962404Y-84019571D01*
X51474309Y-80844571D02*
X49357642Y-80844571D01*
X48299309Y-80844571D02*
X48450500Y-80995761D01*
X48601690Y-80844571D01*
X48450500Y-80693380D01*
X48299309Y-80844571D01*
X48601690Y-80844571D01*
X51474309Y-76913619D02*
X48299309Y-76913619D01*
X48299309Y-75704095D01*
X48450500Y-75401714D01*
X48601690Y-75250523D01*
X48904071Y-75099333D01*
X49357642Y-75099333D01*
X49660023Y-75250523D01*
X49811214Y-75401714D01*
X49962404Y-75704095D01*
X49962404Y-76913619D01*
X51474309Y-73738619D02*
X48299309Y-73738619D01*
X51171928Y-70412428D02*
X51323119Y-70563619D01*
X51474309Y-71017190D01*
X51474309Y-71319571D01*
X51323119Y-71773142D01*
X51020738Y-72075523D01*
X50718357Y-72226714D01*
X50113595Y-72377904D01*
X49660023Y-72377904D01*
X49055261Y-72226714D01*
X48752880Y-72075523D01*
X48450500Y-71773142D01*
X48299309Y-71319571D01*
X48299309Y-71017190D01*
X48450500Y-70563619D01*
X48601690Y-70412428D01*
X48299309Y-68446952D02*
X48299309Y-67842190D01*
X48450500Y-67539809D01*
X48752880Y-67237428D01*
X49357642Y-67086238D01*
X50415976Y-67086238D01*
X51020738Y-67237428D01*
X51323119Y-67539809D01*
X51474309Y-67842190D01*
X51474309Y-68446952D01*
X51323119Y-68749333D01*
X51020738Y-69051714D01*
X50415976Y-69202904D01*
X49357642Y-69202904D01*
X48752880Y-69051714D01*
X48450500Y-68749333D01*
X48299309Y-68446952D01*
D13*
X32758500Y-26208401D02*
X33514453Y-26208401D01*
X32607310Y-26661972D02*
X33136477Y-25074472D01*
X33665643Y-26661972D01*
X34043620Y-25074472D02*
X35101953Y-25074472D01*
X34421596Y-26661972D01*
X32758500Y-28764276D02*
X33514453Y-28764276D01*
X32607310Y-29217847D02*
X33136477Y-27630347D01*
X33665643Y-29217847D01*
X34875167Y-27630347D02*
X34572786Y-27630347D01*
X34421596Y-27705943D01*
X34346000Y-27781538D01*
X34194810Y-28008323D01*
X34119215Y-28310704D01*
X34119215Y-28915466D01*
X34194810Y-29066657D01*
X34270405Y-29142252D01*
X34421596Y-29217847D01*
X34723977Y-29217847D01*
X34875167Y-29142252D01*
X34950762Y-29066657D01*
X35026358Y-28915466D01*
X35026358Y-28537490D01*
X34950762Y-28386300D01*
X34875167Y-28310704D01*
X34723977Y-28235109D01*
X34421596Y-28235109D01*
X34270405Y-28310704D01*
X34194810Y-28386300D01*
X34119215Y-28537490D01*
X32758500Y-31320151D02*
X33514453Y-31320151D01*
X32607310Y-31773722D02*
X33136477Y-30186222D01*
X33665643Y-31773722D01*
X34950762Y-30186222D02*
X34194810Y-30186222D01*
X34119215Y-30942175D01*
X34194810Y-30866579D01*
X34346000Y-30790984D01*
X34723977Y-30790984D01*
X34875167Y-30866579D01*
X34950762Y-30942175D01*
X35026358Y-31093365D01*
X35026358Y-31471341D01*
X34950762Y-31622532D01*
X34875167Y-31698127D01*
X34723977Y-31773722D01*
X34346000Y-31773722D01*
X34194810Y-31698127D01*
X34119215Y-31622532D01*
X32758500Y-33876026D02*
X33514453Y-33876026D01*
X32607310Y-34329597D02*
X33136477Y-32742097D01*
X33665643Y-34329597D01*
X34875167Y-33271264D02*
X34875167Y-34329597D01*
X34497191Y-32666502D02*
X34119215Y-33800431D01*
X35101953Y-33800431D01*
X32758500Y-36431901D02*
X33514453Y-36431901D01*
X32607310Y-36885472D02*
X33136477Y-35297972D01*
X33665643Y-36885472D01*
X34043620Y-35297972D02*
X35026358Y-35297972D01*
X34497191Y-35902734D01*
X34723977Y-35902734D01*
X34875167Y-35978329D01*
X34950762Y-36053925D01*
X35026358Y-36205115D01*
X35026358Y-36583091D01*
X34950762Y-36734282D01*
X34875167Y-36809877D01*
X34723977Y-36885472D01*
X34270405Y-36885472D01*
X34119215Y-36809877D01*
X34043620Y-36734282D01*
X32758500Y-38987776D02*
X33514453Y-38987776D01*
X32607310Y-39441347D02*
X33136477Y-37853847D01*
X33665643Y-39441347D01*
X34119215Y-38005038D02*
X34194810Y-37929443D01*
X34346000Y-37853847D01*
X34723977Y-37853847D01*
X34875167Y-37929443D01*
X34950762Y-38005038D01*
X35026358Y-38156228D01*
X35026358Y-38307419D01*
X34950762Y-38534204D01*
X34043620Y-39441347D01*
X35026358Y-39441347D01*
X32758500Y-41543651D02*
X33514453Y-41543651D01*
X32607310Y-41997222D02*
X33136477Y-40409722D01*
X33665643Y-41997222D01*
X35026358Y-41997222D02*
X34119215Y-41997222D01*
X34572786Y-41997222D02*
X34572786Y-40409722D01*
X34421596Y-40636508D01*
X34270405Y-40787698D01*
X34119215Y-40863294D01*
X32758500Y-44099526D02*
X33514453Y-44099526D01*
X32607310Y-44553097D02*
X33136477Y-42965597D01*
X33665643Y-44553097D01*
X34497191Y-42965597D02*
X34648381Y-42965597D01*
X34799572Y-43041193D01*
X34875167Y-43116788D01*
X34950762Y-43267978D01*
X35026358Y-43570359D01*
X35026358Y-43948335D01*
X34950762Y-44250716D01*
X34875167Y-44401907D01*
X34799572Y-44477502D01*
X34648381Y-44553097D01*
X34497191Y-44553097D01*
X34346000Y-44477502D01*
X34270405Y-44401907D01*
X34194810Y-44250716D01*
X34119215Y-43948335D01*
X34119215Y-43570359D01*
X34194810Y-43267978D01*
X34270405Y-43116788D01*
X34346000Y-43041193D01*
X34497191Y-42965597D01*
X32607310Y-45521472D02*
X33136477Y-47108972D01*
X33665643Y-45521472D01*
X35101953Y-46957782D02*
X35026358Y-47033377D01*
X34799572Y-47108972D01*
X34648381Y-47108972D01*
X34421596Y-47033377D01*
X34270405Y-46882187D01*
X34194810Y-46730996D01*
X34119215Y-46428615D01*
X34119215Y-46201829D01*
X34194810Y-45899448D01*
X34270405Y-45748258D01*
X34421596Y-45597068D01*
X34648381Y-45521472D01*
X34799572Y-45521472D01*
X35026358Y-45597068D01*
X35101953Y-45672663D01*
X36689453Y-46957782D02*
X36613858Y-47033377D01*
X36387072Y-47108972D01*
X36235881Y-47108972D01*
X36009096Y-47033377D01*
X35857905Y-46882187D01*
X35782310Y-46730996D01*
X35706715Y-46428615D01*
X35706715Y-46201829D01*
X35782310Y-45899448D01*
X35857905Y-45748258D01*
X36009096Y-45597068D01*
X36235881Y-45521472D01*
X36387072Y-45521472D01*
X36613858Y-45597068D01*
X36689453Y-45672663D01*
X33665643Y-48152943D02*
X33514453Y-48077347D01*
X33287667Y-48077347D01*
X33060881Y-48152943D01*
X32909691Y-48304133D01*
X32834096Y-48455323D01*
X32758500Y-48757704D01*
X32758500Y-48984490D01*
X32834096Y-49286871D01*
X32909691Y-49438062D01*
X33060881Y-49589252D01*
X33287667Y-49664847D01*
X33438858Y-49664847D01*
X33665643Y-49589252D01*
X33741239Y-49513657D01*
X33741239Y-48984490D01*
X33438858Y-48984490D01*
X34421596Y-49664847D02*
X34421596Y-48077347D01*
X35328739Y-49664847D01*
X35328739Y-48077347D01*
X36084691Y-49664847D02*
X36084691Y-48077347D01*
X36462667Y-48077347D01*
X36689453Y-48152943D01*
X36840643Y-48304133D01*
X36916239Y-48455323D01*
X36991834Y-48757704D01*
X36991834Y-48984490D01*
X36916239Y-49286871D01*
X36840643Y-49438062D01*
X36689453Y-49589252D01*
X36462667Y-49664847D01*
X36084691Y-49664847D01*
D12*
X86239047Y-86299523D02*
X86239047Y-84727142D01*
X87206666Y-85573809D01*
X87206666Y-85210952D01*
X87327619Y-84969047D01*
X87448571Y-84848095D01*
X87690476Y-84727142D01*
X88295238Y-84727142D01*
X88537142Y-84848095D01*
X88658095Y-84969047D01*
X88779047Y-85210952D01*
X88779047Y-85936666D01*
X88658095Y-86178571D01*
X88537142Y-86299523D01*
X88537142Y-83638571D02*
X88658095Y-83517619D01*
X88779047Y-83638571D01*
X88658095Y-83759523D01*
X88537142Y-83638571D01*
X88779047Y-83638571D01*
X86239047Y-82670952D02*
X86239047Y-81098571D01*
X87206666Y-81945238D01*
X87206666Y-81582380D01*
X87327619Y-81340476D01*
X87448571Y-81219523D01*
X87690476Y-81098571D01*
X88295238Y-81098571D01*
X88537142Y-81219523D01*
X88658095Y-81340476D01*
X88779047Y-81582380D01*
X88779047Y-82308095D01*
X88658095Y-82550000D01*
X88537142Y-82670952D01*
X86239047Y-80372857D02*
X88779047Y-79526190D01*
X86239047Y-78679523D01*
X18929047Y-51700540D02*
X16389047Y-51700540D01*
X18203333Y-50853874D01*
X16389047Y-50007207D01*
X18929047Y-50007207D01*
X18687142Y-47346255D02*
X18808095Y-47467207D01*
X18929047Y-47830064D01*
X18929047Y-48071969D01*
X18808095Y-48434826D01*
X18566190Y-48676731D01*
X18324285Y-48797683D01*
X17840476Y-48918635D01*
X17477619Y-48918635D01*
X16993809Y-48797683D01*
X16751904Y-48676731D01*
X16510000Y-48434826D01*
X16389047Y-48071969D01*
X16389047Y-47830064D01*
X16510000Y-47467207D01*
X16630952Y-47346255D01*
X18929047Y-46257683D02*
X16389047Y-46257683D01*
X16389047Y-45290064D01*
X16510000Y-45048159D01*
X16630952Y-44927207D01*
X16872857Y-44806255D01*
X17235714Y-44806255D01*
X17477619Y-44927207D01*
X17598571Y-45048159D01*
X17719523Y-45290064D01*
X17719523Y-46257683D01*
X16630952Y-43838635D02*
X16510000Y-43717683D01*
X16389047Y-43475778D01*
X16389047Y-42871016D01*
X16510000Y-42629112D01*
X16630952Y-42508159D01*
X16872857Y-42387207D01*
X17114761Y-42387207D01*
X17477619Y-42508159D01*
X18929047Y-43959588D01*
X18929047Y-42387207D01*
X16389047Y-41540540D02*
X16389047Y-39968159D01*
X17356666Y-40814826D01*
X17356666Y-40451969D01*
X17477619Y-40210064D01*
X17598571Y-40089112D01*
X17840476Y-39968159D01*
X18445238Y-39968159D01*
X18687142Y-40089112D01*
X18808095Y-40210064D01*
X18929047Y-40451969D01*
X18929047Y-41177683D01*
X18808095Y-41419588D01*
X18687142Y-41540540D01*
X16389047Y-38395778D02*
X16389047Y-38153874D01*
X16510000Y-37911969D01*
X16630952Y-37791016D01*
X16872857Y-37670064D01*
X17356666Y-37549112D01*
X17961428Y-37549112D01*
X18445238Y-37670064D01*
X18687142Y-37791016D01*
X18808095Y-37911969D01*
X18929047Y-38153874D01*
X18929047Y-38395778D01*
X18808095Y-38637683D01*
X18687142Y-38758635D01*
X18445238Y-38879588D01*
X17961428Y-39000540D01*
X17356666Y-39000540D01*
X16872857Y-38879588D01*
X16630952Y-38758635D01*
X16510000Y-38637683D01*
X16389047Y-38395778D01*
X18929047Y-35130064D02*
X18929047Y-36581493D01*
X18929047Y-35855778D02*
X16389047Y-35855778D01*
X16751904Y-36097683D01*
X16993809Y-36339588D01*
X17114761Y-36581493D01*
X16389047Y-34283397D02*
X16389047Y-32590064D01*
X18929047Y-33678635D01*
D11*
X91948095Y-71342380D02*
X91948095Y-70342380D01*
X91948095Y-70818571D02*
X92519523Y-70818571D01*
X92519523Y-71342380D02*
X92519523Y-70342380D01*
X92948095Y-70437619D02*
X92995714Y-70390000D01*
X93090952Y-70342380D01*
X93329047Y-70342380D01*
X93424285Y-70390000D01*
X93471904Y-70437619D01*
X93519523Y-70532857D01*
X93519523Y-70628095D01*
X93471904Y-70770952D01*
X92900476Y-71342380D01*
X93519523Y-71342380D01*
D15*
X88134976Y-28056719D02*
X86737976Y-28056719D01*
X86737976Y-27524528D01*
X86804500Y-27391480D01*
X86871023Y-27324957D01*
X87004071Y-27258433D01*
X87203642Y-27258433D01*
X87336690Y-27324957D01*
X87403214Y-27391480D01*
X87469738Y-27524528D01*
X87469738Y-28056719D01*
X86737976Y-26792766D02*
X86737976Y-25927957D01*
X87270166Y-26393623D01*
X87270166Y-26194052D01*
X87336690Y-26061004D01*
X87403214Y-25994480D01*
X87536261Y-25927957D01*
X87868880Y-25927957D01*
X88001928Y-25994480D01*
X88068452Y-26061004D01*
X88134976Y-26194052D01*
X88134976Y-26593195D01*
X88068452Y-26726242D01*
X88001928Y-26792766D01*
X30222976Y-88857666D02*
X31220833Y-88857666D01*
X31420404Y-88924190D01*
X31553452Y-89057238D01*
X31619976Y-89256809D01*
X31619976Y-89389857D01*
X30688642Y-87593714D02*
X31619976Y-87593714D01*
X30156452Y-87926333D02*
X31154309Y-88258952D01*
X31154309Y-87394142D01*
X76221166Y-92579976D02*
X75755500Y-91914738D01*
X75422880Y-92579976D02*
X75422880Y-91182976D01*
X75955071Y-91182976D01*
X76088119Y-91249500D01*
X76154642Y-91316023D01*
X76221166Y-91449071D01*
X76221166Y-91648642D01*
X76154642Y-91781690D01*
X76088119Y-91848214D01*
X75955071Y-91914738D01*
X75422880Y-91914738D01*
X77418595Y-91648642D02*
X77418595Y-92579976D01*
X77085976Y-91116452D02*
X76753357Y-92114309D01*
X77618166Y-92114309D01*
X76221166Y-90039976D02*
X75755500Y-89374738D01*
X75422880Y-90039976D02*
X75422880Y-88642976D01*
X75955071Y-88642976D01*
X76088119Y-88709500D01*
X76154642Y-88776023D01*
X76221166Y-88909071D01*
X76221166Y-89108642D01*
X76154642Y-89241690D01*
X76088119Y-89308214D01*
X75955071Y-89374738D01*
X75422880Y-89374738D01*
X77551642Y-90039976D02*
X76753357Y-90039976D01*
X77152500Y-90039976D02*
X77152500Y-88642976D01*
X77019452Y-88842547D01*
X76886404Y-88975595D01*
X76753357Y-89042119D01*
X76221166Y-95119976D02*
X75755500Y-94454738D01*
X75422880Y-95119976D02*
X75422880Y-93722976D01*
X75955071Y-93722976D01*
X76088119Y-93789500D01*
X76154642Y-93856023D01*
X76221166Y-93989071D01*
X76221166Y-94188642D01*
X76154642Y-94321690D01*
X76088119Y-94388214D01*
X75955071Y-94454738D01*
X75422880Y-94454738D01*
X76686833Y-93722976D02*
X77618166Y-93722976D01*
X77019452Y-95119976D01*
X76013128Y-100199976D02*
X75547461Y-99534738D01*
X75214842Y-100199976D02*
X75214842Y-98802976D01*
X75747033Y-98802976D01*
X75880080Y-98869500D01*
X75946604Y-98936023D01*
X76013128Y-99069071D01*
X76013128Y-99268642D01*
X75946604Y-99401690D01*
X75880080Y-99468214D01*
X75747033Y-99534738D01*
X75214842Y-99534738D01*
X77343604Y-100199976D02*
X76545319Y-100199976D01*
X76944461Y-100199976D02*
X76944461Y-98802976D01*
X76811414Y-99002547D01*
X76678366Y-99135595D01*
X76545319Y-99202119D01*
X78208414Y-98802976D02*
X78341461Y-98802976D01*
X78474509Y-98869500D01*
X78541033Y-98936023D01*
X78607557Y-99069071D01*
X78674080Y-99335166D01*
X78674080Y-99667785D01*
X78607557Y-99933880D01*
X78541033Y-100066928D01*
X78474509Y-100133452D01*
X78341461Y-100199976D01*
X78208414Y-100199976D01*
X78075366Y-100133452D01*
X78008842Y-100066928D01*
X77942319Y-99933880D01*
X77875795Y-99667785D01*
X77875795Y-99335166D01*
X77942319Y-99069071D01*
X78008842Y-98936023D01*
X78075366Y-98869500D01*
X78208414Y-98802976D01*
X75911528Y-102790776D02*
X75445861Y-102125538D01*
X75113242Y-102790776D02*
X75113242Y-101393776D01*
X75645433Y-101393776D01*
X75778480Y-101460300D01*
X75845004Y-101526823D01*
X75911528Y-101659871D01*
X75911528Y-101859442D01*
X75845004Y-101992490D01*
X75778480Y-102059014D01*
X75645433Y-102125538D01*
X75113242Y-102125538D01*
X77242004Y-102790776D02*
X76443719Y-102790776D01*
X76842861Y-102790776D02*
X76842861Y-101393776D01*
X76709814Y-101593347D01*
X76576766Y-101726395D01*
X76443719Y-101792919D01*
X77707671Y-101393776D02*
X78572480Y-101393776D01*
X78106814Y-101925966D01*
X78306385Y-101925966D01*
X78439433Y-101992490D01*
X78505957Y-102059014D01*
X78572480Y-102192061D01*
X78572480Y-102524680D01*
X78505957Y-102657728D01*
X78439433Y-102724252D01*
X78306385Y-102790776D01*
X77907242Y-102790776D01*
X77774195Y-102724252D01*
X77707671Y-102657728D01*
X76221166Y-69719976D02*
X75755500Y-69054738D01*
X75422880Y-69719976D02*
X75422880Y-68322976D01*
X75955071Y-68322976D01*
X76088119Y-68389500D01*
X76154642Y-68456023D01*
X76221166Y-68589071D01*
X76221166Y-68788642D01*
X76154642Y-68921690D01*
X76088119Y-68988214D01*
X75955071Y-69054738D01*
X75422880Y-69054738D01*
X76753357Y-68456023D02*
X76819880Y-68389500D01*
X76952928Y-68322976D01*
X77285547Y-68322976D01*
X77418595Y-68389500D01*
X77485119Y-68456023D01*
X77551642Y-68589071D01*
X77551642Y-68722119D01*
X77485119Y-68921690D01*
X76686833Y-69719976D01*
X77551642Y-69719976D01*
X63363928Y-33397976D02*
X62898261Y-32732738D01*
X62565642Y-33397976D02*
X62565642Y-32000976D01*
X63097833Y-32000976D01*
X63230880Y-32067500D01*
X63297404Y-32134023D01*
X63363928Y-32267071D01*
X63363928Y-32466642D01*
X63297404Y-32599690D01*
X63230880Y-32666214D01*
X63097833Y-32732738D01*
X62565642Y-32732738D01*
X63896119Y-32134023D02*
X63962642Y-32067500D01*
X64095690Y-32000976D01*
X64428309Y-32000976D01*
X64561357Y-32067500D01*
X64627880Y-32134023D01*
X64694404Y-32267071D01*
X64694404Y-32400119D01*
X64627880Y-32599690D01*
X63829595Y-33397976D01*
X64694404Y-33397976D01*
X65226595Y-32134023D02*
X65293119Y-32067500D01*
X65426166Y-32000976D01*
X65758785Y-32000976D01*
X65891833Y-32067500D01*
X65958357Y-32134023D01*
X66024880Y-32267071D01*
X66024880Y-32400119D01*
X65958357Y-32599690D01*
X65160071Y-33397976D01*
X66024880Y-33397976D01*
X75967166Y-74799976D02*
X75501500Y-74134738D01*
X75168880Y-74799976D02*
X75168880Y-73402976D01*
X75701071Y-73402976D01*
X75834119Y-73469500D01*
X75900642Y-73536023D01*
X75967166Y-73669071D01*
X75967166Y-73868642D01*
X75900642Y-74001690D01*
X75834119Y-74068214D01*
X75701071Y-74134738D01*
X75168880Y-74134738D01*
X77231119Y-73402976D02*
X76565880Y-73402976D01*
X76499357Y-74068214D01*
X76565880Y-74001690D01*
X76698928Y-73935166D01*
X77031547Y-73935166D01*
X77164595Y-74001690D01*
X77231119Y-74068214D01*
X77297642Y-74201261D01*
X77297642Y-74533880D01*
X77231119Y-74666928D01*
X77164595Y-74733452D01*
X77031547Y-74799976D01*
X76698928Y-74799976D01*
X76565880Y-74733452D01*
X76499357Y-74666928D01*
X76170366Y-77390776D02*
X75704700Y-76725538D01*
X75372080Y-77390776D02*
X75372080Y-75993776D01*
X75904271Y-75993776D01*
X76037319Y-76060300D01*
X76103842Y-76126823D01*
X76170366Y-76259871D01*
X76170366Y-76459442D01*
X76103842Y-76592490D01*
X76037319Y-76659014D01*
X75904271Y-76725538D01*
X75372080Y-76725538D01*
X76968652Y-76592490D02*
X76835604Y-76525966D01*
X76769080Y-76459442D01*
X76702557Y-76326395D01*
X76702557Y-76259871D01*
X76769080Y-76126823D01*
X76835604Y-76060300D01*
X76968652Y-75993776D01*
X77234747Y-75993776D01*
X77367795Y-76060300D01*
X77434319Y-76126823D01*
X77500842Y-76259871D01*
X77500842Y-76326395D01*
X77434319Y-76459442D01*
X77367795Y-76525966D01*
X77234747Y-76592490D01*
X76968652Y-76592490D01*
X76835604Y-76659014D01*
X76769080Y-76725538D01*
X76702557Y-76858585D01*
X76702557Y-77124680D01*
X76769080Y-77257728D01*
X76835604Y-77324252D01*
X76968652Y-77390776D01*
X77234747Y-77390776D01*
X77367795Y-77324252D01*
X77434319Y-77257728D01*
X77500842Y-77124680D01*
X77500842Y-76858585D01*
X77434319Y-76725538D01*
X77367795Y-76659014D01*
X77234747Y-76592490D01*
X76063928Y-79879976D02*
X75598261Y-79214738D01*
X75265642Y-79879976D02*
X75265642Y-78482976D01*
X75797833Y-78482976D01*
X75930880Y-78549500D01*
X75997404Y-78616023D01*
X76063928Y-78749071D01*
X76063928Y-78948642D01*
X75997404Y-79081690D01*
X75930880Y-79148214D01*
X75797833Y-79214738D01*
X75265642Y-79214738D01*
X77394404Y-79879976D02*
X76596119Y-79879976D01*
X76995261Y-79879976D02*
X76995261Y-78482976D01*
X76862214Y-78682547D01*
X76729166Y-78815595D01*
X76596119Y-78882119D01*
X78724880Y-79879976D02*
X77926595Y-79879976D01*
X78325738Y-79879976D02*
X78325738Y-78482976D01*
X78192690Y-78682547D01*
X78059642Y-78815595D01*
X77926595Y-78882119D01*
X76063928Y-82419976D02*
X75598261Y-81754738D01*
X75265642Y-82419976D02*
X75265642Y-81022976D01*
X75797833Y-81022976D01*
X75930880Y-81089500D01*
X75997404Y-81156023D01*
X76063928Y-81289071D01*
X76063928Y-81488642D01*
X75997404Y-81621690D01*
X75930880Y-81688214D01*
X75797833Y-81754738D01*
X75265642Y-81754738D01*
X77394404Y-82419976D02*
X76596119Y-82419976D01*
X76995261Y-82419976D02*
X76995261Y-81022976D01*
X76862214Y-81222547D01*
X76729166Y-81355595D01*
X76596119Y-81422119D01*
X78591833Y-81488642D02*
X78591833Y-82419976D01*
X78259214Y-80956452D02*
X77926595Y-81954309D01*
X78791404Y-81954309D01*
X76322766Y-54429176D02*
X75857100Y-53763938D01*
X75524480Y-54429176D02*
X75524480Y-53032176D01*
X76056671Y-53032176D01*
X76189719Y-53098700D01*
X76256242Y-53165223D01*
X76322766Y-53298271D01*
X76322766Y-53497842D01*
X76256242Y-53630890D01*
X76189719Y-53697414D01*
X76056671Y-53763938D01*
X75524480Y-53763938D01*
X76788433Y-53032176D02*
X77653242Y-53032176D01*
X77187576Y-53564366D01*
X77387147Y-53564366D01*
X77520195Y-53630890D01*
X77586719Y-53697414D01*
X77653242Y-53830461D01*
X77653242Y-54163080D01*
X77586719Y-54296128D01*
X77520195Y-54362652D01*
X77387147Y-54429176D01*
X76988004Y-54429176D01*
X76854957Y-54362652D01*
X76788433Y-54296128D01*
X76271966Y-57070776D02*
X75806300Y-56405538D01*
X75473680Y-57070776D02*
X75473680Y-55673776D01*
X76005871Y-55673776D01*
X76138919Y-55740300D01*
X76205442Y-55806823D01*
X76271966Y-55939871D01*
X76271966Y-56139442D01*
X76205442Y-56272490D01*
X76138919Y-56339014D01*
X76005871Y-56405538D01*
X75473680Y-56405538D01*
X77469395Y-55673776D02*
X77203300Y-55673776D01*
X77070252Y-55740300D01*
X77003728Y-55806823D01*
X76870680Y-56006395D01*
X76804157Y-56272490D01*
X76804157Y-56804680D01*
X76870680Y-56937728D01*
X76937204Y-57004252D01*
X77070252Y-57070776D01*
X77336347Y-57070776D01*
X77469395Y-57004252D01*
X77535919Y-56937728D01*
X77602442Y-56804680D01*
X77602442Y-56472061D01*
X77535919Y-56339014D01*
X77469395Y-56272490D01*
X77336347Y-56205966D01*
X77070252Y-56205966D01*
X76937204Y-56272490D01*
X76870680Y-56339014D01*
X76804157Y-56472061D01*
X76170366Y-62252376D02*
X75704700Y-61587138D01*
X75372080Y-62252376D02*
X75372080Y-60855376D01*
X75904271Y-60855376D01*
X76037319Y-60921900D01*
X76103842Y-60988423D01*
X76170366Y-61121471D01*
X76170366Y-61321042D01*
X76103842Y-61454090D01*
X76037319Y-61520614D01*
X75904271Y-61587138D01*
X75372080Y-61587138D01*
X76835604Y-62252376D02*
X77101700Y-62252376D01*
X77234747Y-62185852D01*
X77301271Y-62119328D01*
X77434319Y-61919757D01*
X77500842Y-61653661D01*
X77500842Y-61121471D01*
X77434319Y-60988423D01*
X77367795Y-60921900D01*
X77234747Y-60855376D01*
X76968652Y-60855376D01*
X76835604Y-60921900D01*
X76769080Y-60988423D01*
X76702557Y-61121471D01*
X76702557Y-61454090D01*
X76769080Y-61587138D01*
X76835604Y-61653661D01*
X76968652Y-61720185D01*
X77234747Y-61720185D01*
X77367795Y-61653661D01*
X77434319Y-61587138D01*
X77500842Y-61454090D01*
X76063928Y-64639976D02*
X75598261Y-63974738D01*
X75265642Y-64639976D02*
X75265642Y-63242976D01*
X75797833Y-63242976D01*
X75930880Y-63309500D01*
X75997404Y-63376023D01*
X76063928Y-63509071D01*
X76063928Y-63708642D01*
X75997404Y-63841690D01*
X75930880Y-63908214D01*
X75797833Y-63974738D01*
X75265642Y-63974738D01*
X77394404Y-64639976D02*
X76596119Y-64639976D01*
X76995261Y-64639976D02*
X76995261Y-63242976D01*
X76862214Y-63442547D01*
X76729166Y-63575595D01*
X76596119Y-63642119D01*
X77926595Y-63376023D02*
X77993119Y-63309500D01*
X78126166Y-63242976D01*
X78458785Y-63242976D01*
X78591833Y-63309500D01*
X78658357Y-63376023D01*
X78724880Y-63509071D01*
X78724880Y-63642119D01*
X78658357Y-63841690D01*
X77860071Y-64639976D01*
X78724880Y-64639976D01*
X76063928Y-67179976D02*
X75598261Y-66514738D01*
X75265642Y-67179976D02*
X75265642Y-65782976D01*
X75797833Y-65782976D01*
X75930880Y-65849500D01*
X75997404Y-65916023D01*
X76063928Y-66049071D01*
X76063928Y-66248642D01*
X75997404Y-66381690D01*
X75930880Y-66448214D01*
X75797833Y-66514738D01*
X75265642Y-66514738D01*
X77394404Y-67179976D02*
X76596119Y-67179976D01*
X76995261Y-67179976D02*
X76995261Y-65782976D01*
X76862214Y-65982547D01*
X76729166Y-66115595D01*
X76596119Y-66182119D01*
X78658357Y-65782976D02*
X77993119Y-65782976D01*
X77926595Y-66448214D01*
X77993119Y-66381690D01*
X78126166Y-66315166D01*
X78458785Y-66315166D01*
X78591833Y-66381690D01*
X78658357Y-66448214D01*
X78724880Y-66581261D01*
X78724880Y-66913880D01*
X78658357Y-67046928D01*
X78591833Y-67113452D01*
X78458785Y-67179976D01*
X78126166Y-67179976D01*
X77993119Y-67113452D01*
X77926595Y-67046928D01*
X63363928Y-25523976D02*
X62898261Y-24858738D01*
X62565642Y-25523976D02*
X62565642Y-24126976D01*
X63097833Y-24126976D01*
X63230880Y-24193500D01*
X63297404Y-24260023D01*
X63363928Y-24393071D01*
X63363928Y-24592642D01*
X63297404Y-24725690D01*
X63230880Y-24792214D01*
X63097833Y-24858738D01*
X62565642Y-24858738D01*
X63896119Y-24260023D02*
X63962642Y-24193500D01*
X64095690Y-24126976D01*
X64428309Y-24126976D01*
X64561357Y-24193500D01*
X64627880Y-24260023D01*
X64694404Y-24393071D01*
X64694404Y-24526119D01*
X64627880Y-24725690D01*
X63829595Y-25523976D01*
X64694404Y-25523976D01*
X65891833Y-24592642D02*
X65891833Y-25523976D01*
X65559214Y-24060452D02*
X65226595Y-25058309D01*
X66091404Y-25058309D01*
X76063928Y-87499976D02*
X75598261Y-86834738D01*
X75265642Y-87499976D02*
X75265642Y-86102976D01*
X75797833Y-86102976D01*
X75930880Y-86169500D01*
X75997404Y-86236023D01*
X76063928Y-86369071D01*
X76063928Y-86568642D01*
X75997404Y-86701690D01*
X75930880Y-86768214D01*
X75797833Y-86834738D01*
X75265642Y-86834738D01*
X77394404Y-87499976D02*
X76596119Y-87499976D01*
X76995261Y-87499976D02*
X76995261Y-86102976D01*
X76862214Y-86302547D01*
X76729166Y-86435595D01*
X76596119Y-86502119D01*
X78591833Y-86102976D02*
X78325738Y-86102976D01*
X78192690Y-86169500D01*
X78126166Y-86236023D01*
X77993119Y-86435595D01*
X77926595Y-86701690D01*
X77926595Y-87233880D01*
X77993119Y-87366928D01*
X78059642Y-87433452D01*
X78192690Y-87499976D01*
X78458785Y-87499976D01*
X78591833Y-87433452D01*
X78658357Y-87366928D01*
X78724880Y-87233880D01*
X78724880Y-86901261D01*
X78658357Y-86768214D01*
X78591833Y-86701690D01*
X78458785Y-86635166D01*
X78192690Y-86635166D01*
X78059642Y-86701690D01*
X77993119Y-86768214D01*
X77926595Y-86901261D01*
X76317928Y-46859976D02*
X75852261Y-46194738D01*
X75519642Y-46859976D02*
X75519642Y-45462976D01*
X76051833Y-45462976D01*
X76184880Y-45529500D01*
X76251404Y-45596023D01*
X76317928Y-45729071D01*
X76317928Y-45928642D01*
X76251404Y-46061690D01*
X76184880Y-46128214D01*
X76051833Y-46194738D01*
X75519642Y-46194738D01*
X77648404Y-46859976D02*
X76850119Y-46859976D01*
X77249261Y-46859976D02*
X77249261Y-45462976D01*
X77116214Y-45662547D01*
X76983166Y-45795595D01*
X76850119Y-45862119D01*
X78114071Y-45462976D02*
X79045404Y-45462976D01*
X78446690Y-46859976D01*
X76317928Y-49653976D02*
X75852261Y-48988738D01*
X75519642Y-49653976D02*
X75519642Y-48256976D01*
X76051833Y-48256976D01*
X76184880Y-48323500D01*
X76251404Y-48390023D01*
X76317928Y-48523071D01*
X76317928Y-48722642D01*
X76251404Y-48855690D01*
X76184880Y-48922214D01*
X76051833Y-48988738D01*
X75519642Y-48988738D01*
X77648404Y-49653976D02*
X76850119Y-49653976D01*
X77249261Y-49653976D02*
X77249261Y-48256976D01*
X77116214Y-48456547D01*
X76983166Y-48589595D01*
X76850119Y-48656119D01*
X78446690Y-48855690D02*
X78313642Y-48789166D01*
X78247119Y-48722642D01*
X78180595Y-48589595D01*
X78180595Y-48523071D01*
X78247119Y-48390023D01*
X78313642Y-48323500D01*
X78446690Y-48256976D01*
X78712785Y-48256976D01*
X78845833Y-48323500D01*
X78912357Y-48390023D01*
X78978880Y-48523071D01*
X78978880Y-48589595D01*
X78912357Y-48722642D01*
X78845833Y-48789166D01*
X78712785Y-48855690D01*
X78446690Y-48855690D01*
X78313642Y-48922214D01*
X78247119Y-48988738D01*
X78180595Y-49121785D01*
X78180595Y-49387880D01*
X78247119Y-49520928D01*
X78313642Y-49587452D01*
X78446690Y-49653976D01*
X78712785Y-49653976D01*
X78845833Y-49587452D01*
X78912357Y-49520928D01*
X78978880Y-49387880D01*
X78978880Y-49121785D01*
X78912357Y-48988738D01*
X78845833Y-48922214D01*
X78712785Y-48855690D01*
X45440623Y-106417972D02*
X45440623Y-107548876D01*
X45507146Y-107681924D01*
X45573670Y-107748448D01*
X45706718Y-107814972D01*
X45972813Y-107814972D01*
X46105861Y-107748448D01*
X46172384Y-107681924D01*
X46238908Y-107548876D01*
X46238908Y-106417972D01*
X47635908Y-107814972D02*
X46837623Y-107814972D01*
X47236765Y-107814972D02*
X47236765Y-106417972D01*
X47103718Y-106617543D01*
X46970670Y-106750591D01*
X46837623Y-106817115D01*
D13*
X60493289Y-101356115D02*
X61436718Y-101356115D01*
X60965004Y-101356115D02*
X60965004Y-103007115D01*
X61122242Y-102771257D01*
X61279480Y-102614019D01*
X61436718Y-102535400D01*
D15*
X90720333Y-54352976D02*
X90720333Y-55350833D01*
X90653809Y-55550404D01*
X90520761Y-55683452D01*
X90321190Y-55749976D01*
X90188142Y-55749976D01*
X92117333Y-55749976D02*
X91319047Y-55749976D01*
X91718190Y-55749976D02*
X91718190Y-54352976D01*
X91585142Y-54552547D01*
X91452095Y-54685595D01*
X91319047Y-54752119D01*
X81047166Y-42154928D02*
X80980642Y-42221452D01*
X80781071Y-42287976D01*
X80648023Y-42287976D01*
X80448452Y-42221452D01*
X80315404Y-42088404D01*
X80248880Y-41955357D01*
X80182357Y-41689261D01*
X80182357Y-41489690D01*
X80248880Y-41223595D01*
X80315404Y-41090547D01*
X80448452Y-40957500D01*
X80648023Y-40890976D01*
X80781071Y-40890976D01*
X80980642Y-40957500D01*
X81047166Y-41024023D01*
X81579357Y-41024023D02*
X81645880Y-40957500D01*
X81778928Y-40890976D01*
X82111547Y-40890976D01*
X82244595Y-40957500D01*
X82311119Y-41024023D01*
X82377642Y-41157071D01*
X82377642Y-41290119D01*
X82311119Y-41489690D01*
X81512833Y-42287976D01*
X82377642Y-42287976D01*
D11*
X72623821Y-26528342D02*
X72576202Y-26575961D01*
X72433345Y-26623580D01*
X72338107Y-26623580D01*
X72195249Y-26575961D01*
X72100011Y-26480723D01*
X72052392Y-26385485D01*
X72004773Y-26195009D01*
X72004773Y-26052152D01*
X72052392Y-25861676D01*
X72100011Y-25766438D01*
X72195249Y-25671200D01*
X72338107Y-25623580D01*
X72433345Y-25623580D01*
X72576202Y-25671200D01*
X72623821Y-25718819D01*
X73195249Y-26052152D02*
X73100011Y-26004533D01*
X73052392Y-25956914D01*
X73004773Y-25861676D01*
X73004773Y-25814057D01*
X73052392Y-25718819D01*
X73100011Y-25671200D01*
X73195249Y-25623580D01*
X73385726Y-25623580D01*
X73480964Y-25671200D01*
X73528583Y-25718819D01*
X73576202Y-25814057D01*
X73576202Y-25861676D01*
X73528583Y-25956914D01*
X73480964Y-26004533D01*
X73385726Y-26052152D01*
X73195249Y-26052152D01*
X73100011Y-26099771D01*
X73052392Y-26147390D01*
X73004773Y-26242628D01*
X73004773Y-26433104D01*
X73052392Y-26528342D01*
X73100011Y-26575961D01*
X73195249Y-26623580D01*
X73385726Y-26623580D01*
X73480964Y-26575961D01*
X73528583Y-26528342D01*
X73576202Y-26433104D01*
X73576202Y-26242628D01*
X73528583Y-26147390D01*
X73480964Y-26099771D01*
X73385726Y-26052152D01*
D15*
X62739166Y-30501728D02*
X62672642Y-30568252D01*
X62473071Y-30634776D01*
X62340023Y-30634776D01*
X62140452Y-30568252D01*
X62007404Y-30435204D01*
X61940880Y-30302157D01*
X61874357Y-30036061D01*
X61874357Y-29836490D01*
X61940880Y-29570395D01*
X62007404Y-29437347D01*
X62140452Y-29304300D01*
X62340023Y-29237776D01*
X62473071Y-29237776D01*
X62672642Y-29304300D01*
X62739166Y-29370823D01*
X63936595Y-29237776D02*
X63670500Y-29237776D01*
X63537452Y-29304300D01*
X63470928Y-29370823D01*
X63337880Y-29570395D01*
X63271357Y-29836490D01*
X63271357Y-30368680D01*
X63337880Y-30501728D01*
X63404404Y-30568252D01*
X63537452Y-30634776D01*
X63803547Y-30634776D01*
X63936595Y-30568252D01*
X64003119Y-30501728D01*
X64069642Y-30368680D01*
X64069642Y-30036061D01*
X64003119Y-29903014D01*
X63936595Y-29836490D01*
X63803547Y-29769966D01*
X63537452Y-29769966D01*
X63404404Y-29836490D01*
X63337880Y-29903014D01*
X63271357Y-30036061D01*
X87072928Y-69320833D02*
X87139452Y-69387357D01*
X87205976Y-69586928D01*
X87205976Y-69719976D01*
X87139452Y-69919547D01*
X87006404Y-70052595D01*
X86873357Y-70119119D01*
X86607261Y-70185642D01*
X86407690Y-70185642D01*
X86141595Y-70119119D01*
X86008547Y-70052595D01*
X85875500Y-69919547D01*
X85808976Y-69719976D01*
X85808976Y-69586928D01*
X85875500Y-69387357D01*
X85942023Y-69320833D01*
X87205976Y-67990357D02*
X87205976Y-68788642D01*
X87205976Y-68389500D02*
X85808976Y-68389500D01*
X86008547Y-68522547D01*
X86141595Y-68655595D01*
X86208119Y-68788642D01*
X30501166Y-91176928D02*
X30434642Y-91243452D01*
X30235071Y-91309976D01*
X30102023Y-91309976D01*
X29902452Y-91243452D01*
X29769404Y-91110404D01*
X29702880Y-90977357D01*
X29636357Y-90711261D01*
X29636357Y-90511690D01*
X29702880Y-90245595D01*
X29769404Y-90112547D01*
X29902452Y-89979500D01*
X30102023Y-89912976D01*
X30235071Y-89912976D01*
X30434642Y-89979500D01*
X30501166Y-90046023D01*
X30966833Y-89912976D02*
X31831642Y-89912976D01*
X31365976Y-90445166D01*
X31565547Y-90445166D01*
X31698595Y-90511690D01*
X31765119Y-90578214D01*
X31831642Y-90711261D01*
X31831642Y-91043880D01*
X31765119Y-91176928D01*
X31698595Y-91243452D01*
X31565547Y-91309976D01*
X31166404Y-91309976D01*
X31033357Y-91243452D01*
X30966833Y-91176928D01*
X86310928Y-95736833D02*
X86377452Y-95803357D01*
X86443976Y-96002928D01*
X86443976Y-96135976D01*
X86377452Y-96335547D01*
X86244404Y-96468595D01*
X86111357Y-96535119D01*
X85845261Y-96601642D01*
X85645690Y-96601642D01*
X85379595Y-96535119D01*
X85246547Y-96468595D01*
X85113500Y-96335547D01*
X85046976Y-96135976D01*
X85046976Y-96002928D01*
X85113500Y-95803357D01*
X85180023Y-95736833D01*
X85512642Y-94539404D02*
X86443976Y-94539404D01*
X84980452Y-94872023D02*
X85978309Y-95204642D01*
X85978309Y-94339833D01*
X53291619Y-38096976D02*
X53291619Y-39227880D01*
X53358142Y-39360928D01*
X53424666Y-39427452D01*
X53557714Y-39493976D01*
X53823809Y-39493976D01*
X53956857Y-39427452D01*
X54023380Y-39360928D01*
X54089904Y-39227880D01*
X54089904Y-38096976D01*
X54622095Y-38096976D02*
X55486904Y-38096976D01*
X55021238Y-38629166D01*
X55220809Y-38629166D01*
X55353857Y-38695690D01*
X55420380Y-38762214D01*
X55486904Y-38895261D01*
X55486904Y-39227880D01*
X55420380Y-39360928D01*
X55353857Y-39427452D01*
X55220809Y-39493976D01*
X54821666Y-39493976D01*
X54688619Y-39427452D01*
X54622095Y-39360928D01*
D11*
X86526380Y-57380095D02*
X85526380Y-57380095D01*
X85526380Y-57142000D01*
X85574000Y-56999142D01*
X85669238Y-56903904D01*
X85764476Y-56856285D01*
X85954952Y-56808666D01*
X86097809Y-56808666D01*
X86288285Y-56856285D01*
X86383523Y-56903904D01*
X86478761Y-56999142D01*
X86526380Y-57142000D01*
X86526380Y-57380095D01*
X85621619Y-56427714D02*
X85574000Y-56380095D01*
X85526380Y-56284857D01*
X85526380Y-56046761D01*
X85574000Y-55951523D01*
X85621619Y-55903904D01*
X85716857Y-55856285D01*
X85812095Y-55856285D01*
X85954952Y-55903904D01*
X86526380Y-56475333D01*
X86526380Y-55856285D01*
D15*
X88425976Y-56911119D02*
X87028976Y-56911119D01*
X87028976Y-56578500D01*
X87095500Y-56378928D01*
X87228547Y-56245880D01*
X87361595Y-56179357D01*
X87627690Y-56112833D01*
X87827261Y-56112833D01*
X88093357Y-56179357D01*
X88226404Y-56245880D01*
X88359452Y-56378928D01*
X88425976Y-56578500D01*
X88425976Y-56911119D01*
X88425976Y-54782357D02*
X88425976Y-55580642D01*
X88425976Y-55181500D02*
X87028976Y-55181500D01*
X87228547Y-55314547D01*
X87361595Y-55447595D01*
X87428119Y-55580642D01*
D11*
X87126380Y-49791904D02*
X86126380Y-49791904D01*
X87126380Y-49220476D02*
X86554952Y-49649047D01*
X86126380Y-49220476D02*
X86697809Y-49791904D01*
D15*
X39899166Y-31994928D02*
X39832642Y-32061452D01*
X39633071Y-32127976D01*
X39500023Y-32127976D01*
X39300452Y-32061452D01*
X39167404Y-31928404D01*
X39100880Y-31795357D01*
X39034357Y-31529261D01*
X39034357Y-31329690D01*
X39100880Y-31063595D01*
X39167404Y-30930547D01*
X39300452Y-30797500D01*
X39500023Y-30730976D01*
X39633071Y-30730976D01*
X39832642Y-30797500D01*
X39899166Y-30864023D01*
X41163119Y-30730976D02*
X40497880Y-30730976D01*
X40431357Y-31396214D01*
X40497880Y-31329690D01*
X40630928Y-31263166D01*
X40963547Y-31263166D01*
X41096595Y-31329690D01*
X41163119Y-31396214D01*
X41229642Y-31529261D01*
X41229642Y-31861880D01*
X41163119Y-31994928D01*
X41096595Y-32061452D01*
X40963547Y-32127976D01*
X40630928Y-32127976D01*
X40497880Y-32061452D01*
X40431357Y-31994928D01*
X40757928Y-26905976D02*
X40292261Y-26240738D01*
X39959642Y-26905976D02*
X39959642Y-25508976D01*
X40491833Y-25508976D01*
X40624880Y-25575500D01*
X40691404Y-25642023D01*
X40757928Y-25775071D01*
X40757928Y-25974642D01*
X40691404Y-26107690D01*
X40624880Y-26174214D01*
X40491833Y-26240738D01*
X39959642Y-26240738D01*
X41290119Y-25642023D02*
X41356642Y-25575500D01*
X41489690Y-25508976D01*
X41822309Y-25508976D01*
X41955357Y-25575500D01*
X42021880Y-25642023D01*
X42088404Y-25775071D01*
X42088404Y-25908119D01*
X42021880Y-26107690D01*
X41223595Y-26905976D01*
X42088404Y-26905976D01*
X42554071Y-25508976D02*
X43418880Y-25508976D01*
X42953214Y-26041166D01*
X43152785Y-26041166D01*
X43285833Y-26107690D01*
X43352357Y-26174214D01*
X43418880Y-26307261D01*
X43418880Y-26639880D01*
X43352357Y-26772928D01*
X43285833Y-26839452D01*
X43152785Y-26905976D01*
X42753642Y-26905976D01*
X42620595Y-26839452D01*
X42554071Y-26772928D01*
X16627928Y-63369976D02*
X16162261Y-62704738D01*
X15829642Y-63369976D02*
X15829642Y-61972976D01*
X16361833Y-61972976D01*
X16494880Y-62039500D01*
X16561404Y-62106023D01*
X16627928Y-62239071D01*
X16627928Y-62438642D01*
X16561404Y-62571690D01*
X16494880Y-62638214D01*
X16361833Y-62704738D01*
X15829642Y-62704738D01*
X17160119Y-62106023D02*
X17226642Y-62039500D01*
X17359690Y-61972976D01*
X17692309Y-61972976D01*
X17825357Y-62039500D01*
X17891880Y-62106023D01*
X17958404Y-62239071D01*
X17958404Y-62372119D01*
X17891880Y-62571690D01*
X17093595Y-63369976D01*
X17958404Y-63369976D01*
X18823214Y-61972976D02*
X18956261Y-61972976D01*
X19089309Y-62039500D01*
X19155833Y-62106023D01*
X19222357Y-62239071D01*
X19288880Y-62505166D01*
X19288880Y-62837785D01*
X19222357Y-63103880D01*
X19155833Y-63236928D01*
X19089309Y-63303452D01*
X18956261Y-63369976D01*
X18823214Y-63369976D01*
X18690166Y-63303452D01*
X18623642Y-63236928D01*
X18557119Y-63103880D01*
X18490595Y-62837785D01*
X18490595Y-62505166D01*
X18557119Y-62239071D01*
X18623642Y-62106023D01*
X18690166Y-62039500D01*
X18823214Y-61972976D01*
X23993928Y-57527976D02*
X23528261Y-56862738D01*
X23195642Y-57527976D02*
X23195642Y-56130976D01*
X23727833Y-56130976D01*
X23860880Y-56197500D01*
X23927404Y-56264023D01*
X23993928Y-56397071D01*
X23993928Y-56596642D01*
X23927404Y-56729690D01*
X23860880Y-56796214D01*
X23727833Y-56862738D01*
X23195642Y-56862738D01*
X25324404Y-57527976D02*
X24526119Y-57527976D01*
X24925261Y-57527976D02*
X24925261Y-56130976D01*
X24792214Y-56330547D01*
X24659166Y-56463595D01*
X24526119Y-56530119D01*
X25989642Y-57527976D02*
X26255738Y-57527976D01*
X26388785Y-57461452D01*
X26455309Y-57394928D01*
X26588357Y-57195357D01*
X26654880Y-56929261D01*
X26654880Y-56397071D01*
X26588357Y-56264023D01*
X26521833Y-56197500D01*
X26388785Y-56130976D01*
X26122690Y-56130976D01*
X25989642Y-56197500D01*
X25923119Y-56264023D01*
X25856595Y-56397071D01*
X25856595Y-56729690D01*
X25923119Y-56862738D01*
X25989642Y-56929261D01*
X26122690Y-56995785D01*
X26388785Y-56995785D01*
X26521833Y-56929261D01*
X26588357Y-56862738D01*
X26654880Y-56729690D01*
X32300333Y-101596976D02*
X32300333Y-102594833D01*
X32233809Y-102794404D01*
X32100761Y-102927452D01*
X31901190Y-102993976D01*
X31768142Y-102993976D01*
X33165142Y-102195690D02*
X33032095Y-102129166D01*
X32965571Y-102062642D01*
X32899047Y-101929595D01*
X32899047Y-101863071D01*
X32965571Y-101730023D01*
X33032095Y-101663500D01*
X33165142Y-101596976D01*
X33431238Y-101596976D01*
X33564285Y-101663500D01*
X33630809Y-101730023D01*
X33697333Y-101863071D01*
X33697333Y-101929595D01*
X33630809Y-102062642D01*
X33564285Y-102129166D01*
X33431238Y-102195690D01*
X33165142Y-102195690D01*
X33032095Y-102262214D01*
X32965571Y-102328738D01*
X32899047Y-102461785D01*
X32899047Y-102727880D01*
X32965571Y-102860928D01*
X33032095Y-102927452D01*
X33165142Y-102993976D01*
X33431238Y-102993976D01*
X33564285Y-102927452D01*
X33630809Y-102860928D01*
X33697333Y-102727880D01*
X33697333Y-102461785D01*
X33630809Y-102328738D01*
X33564285Y-102262214D01*
X33431238Y-102195690D01*
X69307528Y-21978376D02*
X68841861Y-21313138D01*
X68509242Y-21978376D02*
X68509242Y-20581376D01*
X69041433Y-20581376D01*
X69174480Y-20647900D01*
X69241004Y-20714423D01*
X69307528Y-20847471D01*
X69307528Y-21047042D01*
X69241004Y-21180090D01*
X69174480Y-21246614D01*
X69041433Y-21313138D01*
X68509242Y-21313138D01*
X69839719Y-20714423D02*
X69906242Y-20647900D01*
X70039290Y-20581376D01*
X70371909Y-20581376D01*
X70504957Y-20647900D01*
X70571480Y-20714423D01*
X70638004Y-20847471D01*
X70638004Y-20980519D01*
X70571480Y-21180090D01*
X69773195Y-21978376D01*
X70638004Y-21978376D01*
X71835433Y-20581376D02*
X71569338Y-20581376D01*
X71436290Y-20647900D01*
X71369766Y-20714423D01*
X71236719Y-20913995D01*
X71170195Y-21180090D01*
X71170195Y-21712280D01*
X71236719Y-21845328D01*
X71303242Y-21911852D01*
X71436290Y-21978376D01*
X71702385Y-21978376D01*
X71835433Y-21911852D01*
X71901957Y-21845328D01*
X71968480Y-21712280D01*
X71968480Y-21379661D01*
X71901957Y-21246614D01*
X71835433Y-21180090D01*
X71702385Y-21113566D01*
X71436290Y-21113566D01*
X71303242Y-21180090D01*
X71236719Y-21246614D01*
X71170195Y-21379661D01*
X24934333Y-52320976D02*
X24934333Y-53318833D01*
X24867809Y-53518404D01*
X24734761Y-53651452D01*
X24535190Y-53717976D01*
X24402142Y-53717976D01*
X25533047Y-52454023D02*
X25599571Y-52387500D01*
X25732619Y-52320976D01*
X26065238Y-52320976D01*
X26198285Y-52387500D01*
X26264809Y-52454023D01*
X26331333Y-52587071D01*
X26331333Y-52720119D01*
X26264809Y-52919690D01*
X25466523Y-53717976D01*
X26331333Y-53717976D01*
X27728333Y-22705231D02*
X27728333Y-23703088D01*
X27661809Y-23902659D01*
X27528761Y-24035707D01*
X27329190Y-24102231D01*
X27196142Y-24102231D01*
X28992285Y-22705231D02*
X28726190Y-22705231D01*
X28593142Y-22771755D01*
X28526619Y-22838278D01*
X28393571Y-23037850D01*
X28327047Y-23303945D01*
X28327047Y-23836135D01*
X28393571Y-23969183D01*
X28460095Y-24035707D01*
X28593142Y-24102231D01*
X28859238Y-24102231D01*
X28992285Y-24035707D01*
X29058809Y-23969183D01*
X29125333Y-23836135D01*
X29125333Y-23503516D01*
X29058809Y-23370469D01*
X28992285Y-23303945D01*
X28859238Y-23237421D01*
X28593142Y-23237421D01*
X28460095Y-23303945D01*
X28393571Y-23370469D01*
X28327047Y-23503516D01*
X12397619Y-22348976D02*
X12397619Y-23479880D01*
X12464142Y-23612928D01*
X12530666Y-23679452D01*
X12663714Y-23745976D01*
X12929809Y-23745976D01*
X13062857Y-23679452D01*
X13129380Y-23612928D01*
X13195904Y-23479880D01*
X13195904Y-22348976D01*
X13794619Y-22482023D02*
X13861142Y-22415500D01*
X13994190Y-22348976D01*
X14326809Y-22348976D01*
X14459857Y-22415500D01*
X14526380Y-22482023D01*
X14592904Y-22615071D01*
X14592904Y-22748119D01*
X14526380Y-22947690D01*
X13728095Y-23745976D01*
X14592904Y-23745976D01*
D11*
X46772533Y-25757142D02*
X46724914Y-25804761D01*
X46582057Y-25852380D01*
X46486819Y-25852380D01*
X46343961Y-25804761D01*
X46248723Y-25709523D01*
X46201104Y-25614285D01*
X46153485Y-25423809D01*
X46153485Y-25280952D01*
X46201104Y-25090476D01*
X46248723Y-24995238D01*
X46343961Y-24900000D01*
X46486819Y-24852380D01*
X46582057Y-24852380D01*
X46724914Y-24900000D01*
X46772533Y-24947619D01*
X47105866Y-24852380D02*
X47772533Y-24852380D01*
X47343961Y-25852380D01*
D15*
X81422333Y-5240976D02*
X81422333Y-6238833D01*
X81355809Y-6438404D01*
X81222761Y-6571452D01*
X81023190Y-6637976D01*
X80890142Y-6637976D01*
X81954523Y-5240976D02*
X82819333Y-5240976D01*
X82353666Y-5773166D01*
X82553238Y-5773166D01*
X82686285Y-5839690D01*
X82752809Y-5906214D01*
X82819333Y-6039261D01*
X82819333Y-6371880D01*
X82752809Y-6504928D01*
X82686285Y-6571452D01*
X82553238Y-6637976D01*
X82154095Y-6637976D01*
X82021047Y-6571452D01*
X81954523Y-6504928D01*
X39691128Y-23847576D02*
X39225461Y-23182338D01*
X38892842Y-23847576D02*
X38892842Y-22450576D01*
X39425033Y-22450576D01*
X39558080Y-22517100D01*
X39624604Y-22583623D01*
X39691128Y-22716671D01*
X39691128Y-22916242D01*
X39624604Y-23049290D01*
X39558080Y-23115814D01*
X39425033Y-23182338D01*
X38892842Y-23182338D01*
X40223319Y-22583623D02*
X40289842Y-22517100D01*
X40422890Y-22450576D01*
X40755509Y-22450576D01*
X40888557Y-22517100D01*
X40955080Y-22583623D01*
X41021604Y-22716671D01*
X41021604Y-22849719D01*
X40955080Y-23049290D01*
X40156795Y-23847576D01*
X41021604Y-23847576D01*
X42285557Y-22450576D02*
X41620319Y-22450576D01*
X41553795Y-23115814D01*
X41620319Y-23049290D01*
X41753366Y-22982766D01*
X42085985Y-22982766D01*
X42219033Y-23049290D01*
X42285557Y-23115814D01*
X42352080Y-23248861D01*
X42352080Y-23581480D01*
X42285557Y-23714528D01*
X42219033Y-23781052D01*
X42085985Y-23847576D01*
X41753366Y-23847576D01*
X41620319Y-23781052D01*
X41553795Y-23714528D01*
X47869928Y-33905976D02*
X47404261Y-33240738D01*
X47071642Y-33905976D02*
X47071642Y-32508976D01*
X47603833Y-32508976D01*
X47736880Y-32575500D01*
X47803404Y-32642023D01*
X47869928Y-32775071D01*
X47869928Y-32974642D01*
X47803404Y-33107690D01*
X47736880Y-33174214D01*
X47603833Y-33240738D01*
X47071642Y-33240738D01*
X48402119Y-32642023D02*
X48468642Y-32575500D01*
X48601690Y-32508976D01*
X48934309Y-32508976D01*
X49067357Y-32575500D01*
X49133880Y-32642023D01*
X49200404Y-32775071D01*
X49200404Y-32908119D01*
X49133880Y-33107690D01*
X48335595Y-33905976D01*
X49200404Y-33905976D01*
X50530880Y-33905976D02*
X49732595Y-33905976D01*
X50131738Y-33905976D02*
X50131738Y-32508976D01*
X49998690Y-32708547D01*
X49865642Y-32841595D01*
X49732595Y-32908119D01*
X65320333Y-103120976D02*
X65320333Y-104118833D01*
X65253809Y-104318404D01*
X65120761Y-104451452D01*
X64921190Y-104517976D01*
X64788142Y-104517976D01*
X65852523Y-103120976D02*
X66783857Y-103120976D01*
X66185142Y-104517976D01*
D16*
X93980000Y-72330000D02*
X95310000Y-72330000D01*
X95310000Y-72330000D02*
X95310000Y-73660000D01*
X90110000Y-72330000D02*
X92710000Y-72330000D01*
X90110000Y-72330000D02*
X90110000Y-92770000D01*
X92710000Y-72330000D02*
X92710000Y-74930000D01*
X95310000Y-74930000D02*
X95310000Y-92770000D01*
X92710000Y-74930000D02*
X95310000Y-74930000D01*
X90110000Y-92770000D02*
X95310000Y-92770000D01*
D17*
X89408000Y-52832000D02*
X104902000Y-52832000D01*
X110998000Y-22225000D02*
X105283000Y-22225000D01*
X105156000Y-23241000D02*
X110998000Y-23241000D01*
X89334340Y-21844000D02*
X89334340Y-52832000D01*
X105156000Y-52451000D02*
X110998000Y-52451000D01*
X105156000Y-45466000D02*
X110998000Y-45466000D01*
X105156000Y-47371000D02*
X110998000Y-47371000D01*
X105156000Y-51435000D02*
X110998000Y-51435000D01*
D18*
X89408000Y-28448000D02*
X104394000Y-28448000D01*
D17*
X110998000Y-29210000D02*
X105156000Y-29210000D01*
X105156000Y-48387000D02*
X110998000Y-48387000D01*
X89408000Y-21844000D02*
X104902000Y-21844000D01*
X110998000Y-45466000D02*
X110998000Y-29210000D01*
D18*
X89408000Y-46228000D02*
X104140000Y-46228000D01*
D17*
X105156000Y-27305000D02*
X110998000Y-27305000D01*
X105156000Y-52832000D02*
X105156000Y-21844000D01*
X110998000Y-27305000D02*
X110998000Y-22225000D01*
X110998000Y-52451000D02*
X110998000Y-47371000D01*
D18*
X104394000Y-52832000D02*
X104394000Y-22098000D01*
D17*
X105156000Y-26289000D02*
X110998000Y-26289000D01*
D11*
X13756500Y-91789000D02*
X23027500Y-91789000D01*
X23027500Y-91789000D02*
X24297500Y-89630000D01*
X24297500Y-89630000D02*
X25313500Y-89630000D01*
X10835500Y-66135000D02*
X10835500Y-91662000D01*
X10835500Y-91789000D02*
X13756500Y-91789000D01*
X10835500Y-91662000D02*
X10835500Y-91789000D01*
D19*
X25101500Y-91194000D02*
X25111500Y-91194000D01*
D11*
X13756500Y-66135000D02*
X10835500Y-66135000D01*
X25313500Y-66135000D02*
X13756500Y-66135000D01*
D16*
X67234000Y-91948000D02*
X68184000Y-91948000D01*
X72974000Y-91948000D02*
X72024000Y-91948000D01*
X72024000Y-91028000D02*
X68184000Y-91028000D01*
X72024000Y-92868000D02*
X72024000Y-91028000D01*
X68184000Y-92868000D02*
X72024000Y-92868000D01*
X68184000Y-91028000D02*
X68184000Y-92868000D01*
X67234000Y-89408000D02*
X68184000Y-89408000D01*
X72024000Y-88488000D02*
X68184000Y-88488000D01*
X72974000Y-89408000D02*
X72024000Y-89408000D01*
X72024000Y-90328000D02*
X72024000Y-88488000D01*
X68184000Y-90328000D02*
X72024000Y-90328000D01*
X68184000Y-88488000D02*
X68184000Y-90328000D01*
X72974000Y-94488000D02*
X72024000Y-94488000D01*
X72024000Y-95408000D02*
X72024000Y-93568000D01*
X67234000Y-94488000D02*
X68184000Y-94488000D01*
X72024000Y-93568000D02*
X68184000Y-93568000D01*
X68184000Y-93568000D02*
X68184000Y-95408000D01*
X68184000Y-95408000D02*
X72024000Y-95408000D01*
X72974000Y-99568000D02*
X72024000Y-99568000D01*
X68184000Y-100488000D02*
X72024000Y-100488000D01*
X68184000Y-98648000D02*
X68184000Y-100488000D01*
X72024000Y-98648000D02*
X68184000Y-98648000D01*
X72024000Y-100488000D02*
X72024000Y-98648000D01*
X67234000Y-99568000D02*
X68184000Y-99568000D01*
X68184000Y-103028000D02*
X72024000Y-103028000D01*
X72024000Y-101188000D02*
X68184000Y-101188000D01*
X72974000Y-102108000D02*
X72024000Y-102108000D01*
X67234000Y-102108000D02*
X68184000Y-102108000D01*
X72024000Y-103028000D02*
X72024000Y-101188000D01*
X68184000Y-101188000D02*
X68184000Y-103028000D01*
X72974000Y-69088000D02*
X72024000Y-69088000D01*
X72024000Y-68168000D02*
X68184000Y-68168000D01*
X68184000Y-68168000D02*
X68184000Y-70008000D01*
X68184000Y-70008000D02*
X72024000Y-70008000D01*
X67234000Y-69088000D02*
X68184000Y-69088000D01*
X72024000Y-70008000D02*
X72024000Y-68168000D01*
X66182000Y-35718000D02*
X66182000Y-33878000D01*
X67132000Y-34798000D02*
X66182000Y-34798000D01*
X62342000Y-33878000D02*
X62342000Y-35718000D01*
X61392000Y-34798000D02*
X62342000Y-34798000D01*
X62342000Y-35718000D02*
X66182000Y-35718000D01*
X66182000Y-33878000D02*
X62342000Y-33878000D01*
X67234000Y-74168000D02*
X68184000Y-74168000D01*
X68184000Y-75088000D02*
X72024000Y-75088000D01*
X72024000Y-75088000D02*
X72024000Y-73248000D01*
X72024000Y-73248000D02*
X68184000Y-73248000D01*
X72974000Y-74168000D02*
X72024000Y-74168000D01*
X68184000Y-73248000D02*
X68184000Y-75088000D01*
X72024000Y-77628000D02*
X72024000Y-75788000D01*
X72024000Y-75788000D02*
X68184000Y-75788000D01*
X72974000Y-76708000D02*
X72024000Y-76708000D01*
X68184000Y-75788000D02*
X68184000Y-77628000D01*
X68184000Y-77628000D02*
X72024000Y-77628000D01*
X67234000Y-76708000D02*
X68184000Y-76708000D01*
X68184000Y-78328000D02*
X68184000Y-80168000D01*
X68184000Y-80168000D02*
X72024000Y-80168000D01*
X72024000Y-80168000D02*
X72024000Y-78328000D01*
X72974000Y-79248000D02*
X72024000Y-79248000D01*
X67234000Y-79248000D02*
X68184000Y-79248000D01*
X72024000Y-78328000D02*
X68184000Y-78328000D01*
X67234000Y-81788000D02*
X68184000Y-81788000D01*
X72024000Y-80868000D02*
X68184000Y-80868000D01*
X72974000Y-81788000D02*
X72024000Y-81788000D01*
X68184000Y-80868000D02*
X68184000Y-82708000D01*
X68184000Y-82708000D02*
X72024000Y-82708000D01*
X72024000Y-82708000D02*
X72024000Y-80868000D01*
X68184000Y-52928000D02*
X68184000Y-54768000D01*
X72024000Y-54768000D02*
X72024000Y-52928000D01*
X72024000Y-52928000D02*
X68184000Y-52928000D01*
X67234000Y-53848000D02*
X68184000Y-53848000D01*
X68184000Y-54768000D02*
X72024000Y-54768000D01*
X72974000Y-53848000D02*
X72024000Y-53848000D01*
X67234000Y-56388000D02*
X68184000Y-56388000D01*
X72024000Y-57308000D02*
X72024000Y-55468000D01*
X68184000Y-55468000D02*
X68184000Y-57308000D01*
X72974000Y-56388000D02*
X72024000Y-56388000D01*
X68184000Y-57308000D02*
X72024000Y-57308000D01*
X72024000Y-55468000D02*
X68184000Y-55468000D01*
X68184000Y-60548000D02*
X68184000Y-62388000D01*
X68184000Y-62388000D02*
X72024000Y-62388000D01*
X72024000Y-62388000D02*
X72024000Y-60548000D01*
X67234000Y-61468000D02*
X68184000Y-61468000D01*
X72974000Y-61468000D02*
X72024000Y-61468000D01*
X72024000Y-60548000D02*
X68184000Y-60548000D01*
X72974000Y-64008000D02*
X72024000Y-64008000D01*
X72024000Y-64928000D02*
X72024000Y-63088000D01*
X68184000Y-63088000D02*
X68184000Y-64928000D01*
X67234000Y-64008000D02*
X68184000Y-64008000D01*
X68184000Y-64928000D02*
X72024000Y-64928000D01*
X72024000Y-63088000D02*
X68184000Y-63088000D01*
X72024000Y-67468000D02*
X72024000Y-65628000D01*
X67234000Y-66548000D02*
X68184000Y-66548000D01*
X72024000Y-65628000D02*
X68184000Y-65628000D01*
X68184000Y-65628000D02*
X68184000Y-67468000D01*
X72974000Y-66548000D02*
X72024000Y-66548000D01*
X68184000Y-67468000D02*
X72024000Y-67468000D01*
X66182000Y-26156400D02*
X62342000Y-26156400D01*
X62342000Y-27996400D02*
X66182000Y-27996400D01*
X66182000Y-27996400D02*
X66182000Y-26156400D01*
X67132000Y-27076400D02*
X66182000Y-27076400D01*
X61392000Y-27076400D02*
X62342000Y-27076400D01*
X62342000Y-26156400D02*
X62342000Y-27996400D01*
X68184000Y-87788000D02*
X72024000Y-87788000D01*
X68184000Y-85948000D02*
X68184000Y-87788000D01*
X72024000Y-85948000D02*
X68184000Y-85948000D01*
X67234000Y-86868000D02*
X68184000Y-86868000D01*
X72024000Y-87788000D02*
X72024000Y-85948000D01*
X72974000Y-86868000D02*
X72024000Y-86868000D01*
X68184000Y-45308000D02*
X68184000Y-47148000D01*
X67234000Y-46228000D02*
X68184000Y-46228000D01*
X68184000Y-47148000D02*
X72024000Y-47148000D01*
X72024000Y-45308000D02*
X68184000Y-45308000D01*
X72024000Y-47148000D02*
X72024000Y-45308000D01*
X72974000Y-46228000D02*
X72024000Y-46228000D01*
X72024000Y-49942000D02*
X72024000Y-48102000D01*
X72974000Y-49022000D02*
X72024000Y-49022000D01*
X68184000Y-49942000D02*
X72024000Y-49942000D01*
X72024000Y-48102000D02*
X68184000Y-48102000D01*
X68184000Y-48102000D02*
X68184000Y-49942000D01*
X67234000Y-49022000D02*
X68184000Y-49022000D01*
X59755004Y-103492996D02*
X59755004Y-52452996D01*
X39315004Y-52452996D02*
X39315004Y-103492996D01*
X57265004Y-52512996D02*
X44345004Y-52512996D01*
X57265004Y-103432996D02*
X57265004Y-52512996D01*
X59755004Y-52452996D02*
X39315004Y-52452996D01*
X41805004Y-52512996D02*
X41805004Y-103432996D01*
X39315004Y-103492996D02*
X59755004Y-103492996D01*
X44345004Y-103432996D02*
X49805004Y-103432996D01*
X51805004Y-103432996D02*
X57265004Y-103432996D01*
X50535004Y-103432996D02*
G75*
G03*
X48535004Y-103432996I-1000000J151360D01*
G01*
X88747000Y-60980000D02*
X88247000Y-60480000D01*
X105567000Y-56120000D02*
X97597000Y-56120000D01*
X88947000Y-68340000D02*
X88947000Y-56120000D01*
X105567000Y-68340000D02*
X105567000Y-56120000D01*
X88247000Y-60480000D02*
X88247000Y-61480000D01*
X88247000Y-61480000D02*
X88747000Y-60980000D01*
X105567000Y-68340000D02*
X97597000Y-68340000D01*
X88947000Y-68340000D02*
X92697000Y-68340000D01*
X88947000Y-56120000D02*
X92697000Y-56120000D01*
X84924000Y-43531000D02*
X84924000Y-42826000D01*
X84924000Y-45566000D02*
X80684000Y-45566000D01*
X80684000Y-45566000D02*
X80684000Y-44861000D01*
X80684000Y-43531000D02*
X80684000Y-42826000D01*
X84924000Y-42826000D02*
X80684000Y-42826000D01*
X84924000Y-45566000D02*
X84924000Y-44861000D01*
X75271488Y-29116200D02*
X75271488Y-30726200D01*
X74871488Y-28367200D02*
X74871488Y-28881200D01*
X74631488Y-28095200D02*
X74631488Y-28881200D01*
X74071488Y-30961200D02*
X74071488Y-32168200D01*
X74311488Y-30961200D02*
X74311488Y-32016200D01*
X74551488Y-28020200D02*
X74551488Y-28881200D01*
X73551488Y-27453200D02*
X73551488Y-28881200D01*
X74871488Y-30961200D02*
X74871488Y-31475200D01*
X73270488Y-27385200D02*
X73270488Y-28881200D01*
X73270488Y-30961200D02*
X73270488Y-32457200D01*
X75071488Y-30961200D02*
X75071488Y-31172200D01*
X74351488Y-30961200D02*
X74351488Y-31986200D01*
X70235713Y-28196200D02*
X70235713Y-28696200D01*
X73951488Y-30961200D02*
X73951488Y-32231200D01*
X73110488Y-27360200D02*
X73110488Y-28881200D01*
X75191488Y-28910200D02*
X75191488Y-30932200D01*
X73430488Y-27420200D02*
X73430488Y-28881200D01*
X73551488Y-30961200D02*
X73551488Y-32389200D01*
X72990488Y-27348200D02*
X72990488Y-32494200D01*
X74991488Y-30961200D02*
X74991488Y-31304200D01*
X73671488Y-30961200D02*
X73671488Y-32349200D01*
X73671488Y-27493200D02*
X73671488Y-28881200D01*
X74151488Y-30961200D02*
X74151488Y-32121200D01*
X73350488Y-30961200D02*
X73350488Y-32441200D01*
X69985713Y-28446200D02*
X70485713Y-28446200D01*
X72870488Y-27342200D02*
X72870488Y-32500200D01*
X73310488Y-27393200D02*
X73310488Y-28881200D01*
X73230488Y-27378200D02*
X73230488Y-28881200D01*
X74351488Y-27856200D02*
X74351488Y-28881200D01*
X73751488Y-27523200D02*
X73751488Y-28881200D01*
X73511488Y-27441200D02*
X73511488Y-28881200D01*
X74271488Y-30961200D02*
X74271488Y-32043200D01*
X75391488Y-29637200D02*
X75391488Y-30205200D01*
X75231488Y-29006200D02*
X75231488Y-30836200D01*
X74191488Y-27746200D02*
X74191488Y-28881200D01*
X74511488Y-30961200D02*
X74511488Y-31858200D01*
X73831488Y-30961200D02*
X73831488Y-32286200D01*
X74071488Y-27674200D02*
X74071488Y-28881200D01*
X73711488Y-30961200D02*
X73711488Y-32335200D01*
X74591488Y-28057200D02*
X74591488Y-28881200D01*
X73911488Y-30961200D02*
X73911488Y-32250200D01*
X72950488Y-27345200D02*
X72950488Y-32497200D01*
X72790488Y-27341200D02*
X72790488Y-32501200D01*
X73390488Y-27410200D02*
X73390488Y-28881200D01*
X73070488Y-30961200D02*
X73070488Y-32486200D01*
X73631488Y-27479200D02*
X73631488Y-28881200D01*
X74431488Y-27917200D02*
X74431488Y-28881200D01*
X73871488Y-27573200D02*
X73871488Y-28881200D01*
X73150488Y-30961200D02*
X73150488Y-32477200D01*
X73190488Y-27371200D02*
X73190488Y-28881200D01*
X74671488Y-28136200D02*
X74671488Y-28881200D01*
X74951488Y-30961200D02*
X74951488Y-31364200D01*
X74031488Y-27653200D02*
X74031488Y-28881200D01*
X73230488Y-30961200D02*
X73230488Y-32464200D01*
X74631488Y-30961200D02*
X74631488Y-31747200D01*
X74951488Y-28478200D02*
X74951488Y-28881200D01*
X74311488Y-27826200D02*
X74311488Y-28881200D01*
X73991488Y-30961200D02*
X73991488Y-32211200D01*
X74791488Y-28268200D02*
X74791488Y-28881200D01*
X74751488Y-28222200D02*
X74751488Y-28881200D01*
X73030488Y-27352200D02*
X73030488Y-28881200D01*
X75351488Y-29403200D02*
X75351488Y-30439200D01*
X72910488Y-27343200D02*
X72910488Y-32499200D01*
X74511488Y-27984200D02*
X74511488Y-28881200D01*
X73711488Y-27507200D02*
X73711488Y-28881200D01*
X75111488Y-28743200D02*
X75111488Y-31099200D01*
X73991488Y-27631200D02*
X73991488Y-28881200D01*
X75151488Y-28823200D02*
X75151488Y-31019200D01*
X74991488Y-28538200D02*
X74991488Y-28881200D01*
X75311488Y-29244200D02*
X75311488Y-30598200D01*
X73390488Y-30961200D02*
X73390488Y-32432200D01*
X73911488Y-27592200D02*
X73911488Y-28881200D01*
X74911488Y-28421200D02*
X74911488Y-28881200D01*
X74111488Y-30961200D02*
X74111488Y-32145200D01*
X73631488Y-30961200D02*
X73631488Y-32363200D01*
X74831488Y-28316200D02*
X74831488Y-28881200D01*
X74591488Y-30961200D02*
X74591488Y-31785200D01*
X74271488Y-27799200D02*
X74271488Y-28881200D01*
X74111488Y-27697200D02*
X74111488Y-28881200D01*
X75031488Y-30961200D02*
X75031488Y-31240200D01*
X74431488Y-30961200D02*
X74431488Y-31925200D01*
X73470488Y-27430200D02*
X73470488Y-28881200D01*
X74831488Y-30961200D02*
X74831488Y-31526200D01*
X73591488Y-27466200D02*
X73591488Y-28881200D01*
X73831488Y-27556200D02*
X73831488Y-28881200D01*
X73150488Y-27365200D02*
X73150488Y-28881200D01*
X74391488Y-27886200D02*
X74391488Y-28881200D01*
X73190488Y-30961200D02*
X73190488Y-32471200D01*
X73470488Y-30961200D02*
X73470488Y-32412200D01*
X72830488Y-27341200D02*
X72830488Y-32501200D01*
X73871488Y-30961200D02*
X73871488Y-32269200D01*
X75071488Y-28670200D02*
X75071488Y-28881200D01*
X74031488Y-30961200D02*
X74031488Y-32189200D01*
X73070488Y-27356200D02*
X73070488Y-28881200D01*
X73310488Y-30961200D02*
X73310488Y-32449200D01*
X74391488Y-30961200D02*
X74391488Y-31956200D01*
X73791488Y-30961200D02*
X73791488Y-32303200D01*
X74791488Y-30961200D02*
X74791488Y-31574200D01*
X73791488Y-27539200D02*
X73791488Y-28881200D01*
X74471488Y-30961200D02*
X74471488Y-31892200D01*
X73030488Y-30961200D02*
X73030488Y-32490200D01*
X74471488Y-27950200D02*
X74471488Y-28881200D01*
X74231488Y-27772200D02*
X74231488Y-28881200D01*
X74711488Y-30961200D02*
X74711488Y-31664200D01*
X73951488Y-27611200D02*
X73951488Y-28881200D01*
X74671488Y-30961200D02*
X74671488Y-31706200D01*
X73110488Y-30961200D02*
X73110488Y-32482200D01*
X74231488Y-30961200D02*
X74231488Y-32070200D01*
X74551488Y-30961200D02*
X74551488Y-31822200D01*
X74751488Y-30961200D02*
X74751488Y-31620200D01*
X74191488Y-30961200D02*
X74191488Y-32096200D01*
X73751488Y-30961200D02*
X73751488Y-32319200D01*
X73350488Y-27401200D02*
X73350488Y-28881200D01*
X73591488Y-30961200D02*
X73591488Y-32376200D01*
X73430488Y-30961200D02*
X73430488Y-32422200D01*
X74151488Y-27721200D02*
X74151488Y-28881200D01*
X74911488Y-30961200D02*
X74911488Y-31421200D01*
X75031488Y-28602200D02*
X75031488Y-28881200D01*
X73511488Y-30961200D02*
X73511488Y-32401200D01*
X74711488Y-28178200D02*
X74711488Y-28881200D01*
X75410488Y-29921200D02*
G75*
G03*
X75410488Y-29921200I-2620000J0D01*
G01*
X64682000Y-31392800D02*
X64682000Y-30687800D01*
X68922000Y-29357800D02*
X68922000Y-28652800D01*
X68922000Y-31392800D02*
X68922000Y-30687800D01*
X64682000Y-29357800D02*
X64682000Y-28652800D01*
X68922000Y-28652800D02*
X64682000Y-28652800D01*
X68922000Y-31392800D02*
X64682000Y-31392800D01*
X83409000Y-66968000D02*
X82704000Y-66968000D01*
X85444000Y-66968000D02*
X85444000Y-71208000D01*
X85444000Y-66968000D02*
X84739000Y-66968000D01*
X82704000Y-66968000D02*
X82704000Y-71208000D01*
X83409000Y-71208000D02*
X82704000Y-71208000D01*
X85444000Y-71208000D02*
X84739000Y-71208000D01*
X29364000Y-92114000D02*
X29364000Y-96354000D01*
X30069000Y-92114000D02*
X29364000Y-92114000D01*
X32104000Y-96354000D02*
X31399000Y-96354000D01*
X32104000Y-92114000D02*
X31399000Y-92114000D01*
X32104000Y-92114000D02*
X32104000Y-96354000D01*
X30069000Y-96354000D02*
X29364000Y-96354000D01*
X82647000Y-97624000D02*
X81942000Y-97624000D01*
X81942000Y-93384000D02*
X81942000Y-97624000D01*
X82647000Y-93384000D02*
X81942000Y-93384000D01*
X84682000Y-93384000D02*
X83977000Y-93384000D01*
X84682000Y-97624000D02*
X83977000Y-97624000D01*
X84682000Y-93384000D02*
X84682000Y-97624000D01*
X57759600Y-37001600D02*
X57759600Y-35591600D01*
X55990000Y-35582000D02*
X55990000Y-38172000D01*
X85074000Y-54392000D02*
X83074000Y-54392000D01*
X85074000Y-54392000D02*
X85074000Y-58292000D01*
X83074000Y-54392000D02*
X83074000Y-58292000D01*
X85914000Y-51010000D02*
X86794000Y-51010000D01*
X81354000Y-51010000D02*
X81354000Y-60750000D01*
X81354000Y-60750000D02*
X82234000Y-60750000D01*
X86794000Y-51010000D02*
X86794000Y-60750000D01*
X86794000Y-60750000D02*
X85914000Y-60750000D01*
X86794000Y-52555000D02*
X81354000Y-52555000D01*
X86794000Y-52675000D02*
X81354000Y-52675000D01*
X86794000Y-52435000D02*
X81354000Y-52435000D01*
X82234000Y-51010000D02*
X81354000Y-51010000D01*
X46316000Y-30831000D02*
X46316000Y-30126000D01*
X42076000Y-30831000D02*
X42076000Y-30126000D01*
X46316000Y-32866000D02*
X46316000Y-32161000D01*
X46316000Y-32866000D02*
X42076000Y-32866000D01*
X46316000Y-30126000D02*
X42076000Y-30126000D01*
X42076000Y-32866000D02*
X42076000Y-32161000D01*
X38786000Y-28194000D02*
X39736000Y-28194000D01*
X44526000Y-28194000D02*
X43576000Y-28194000D01*
X39736000Y-29114000D02*
X43576000Y-29114000D01*
X39736000Y-27274000D02*
X39736000Y-29114000D01*
X43576000Y-27274000D02*
X39736000Y-27274000D01*
X43576000Y-29114000D02*
X43576000Y-27274000D01*
X23226000Y-61818000D02*
X23226000Y-63658000D01*
X27066000Y-63658000D02*
X27066000Y-61818000D01*
X27066000Y-61818000D02*
X23226000Y-61818000D01*
X22276000Y-62738000D02*
X23226000Y-62738000D01*
X28016000Y-62738000D02*
X27066000Y-62738000D01*
X23226000Y-63658000D02*
X27066000Y-63658000D01*
X31064000Y-58928000D02*
X30114000Y-58928000D01*
X26274000Y-58008000D02*
X26274000Y-59848000D01*
X30114000Y-58008000D02*
X26274000Y-58008000D01*
X26274000Y-59848000D02*
X30114000Y-59848000D01*
X30114000Y-59848000D02*
X30114000Y-58008000D01*
X25324000Y-58928000D02*
X26274000Y-58928000D01*
X33976000Y-100838000D02*
X33976000Y-52518000D01*
X36636000Y-100838000D02*
X33976000Y-100838000D01*
X36636000Y-102108000D02*
X36636000Y-103438000D01*
X36636000Y-100838000D02*
X36636000Y-52518000D01*
X36636000Y-52518000D02*
X33976000Y-52518000D01*
X36636000Y-103438000D02*
X35306000Y-103438000D01*
X72125600Y-22346400D02*
X68285600Y-22346400D01*
X72125600Y-24186400D02*
X72125600Y-22346400D01*
X68285600Y-22346400D02*
X68285600Y-24186400D01*
X68285600Y-24186400D02*
X72125600Y-24186400D01*
X67335600Y-23266400D02*
X68285600Y-23266400D01*
X73075600Y-23266400D02*
X72125600Y-23266400D01*
X29459000Y-54351000D02*
X29459000Y-51751000D01*
X26859000Y-54351000D02*
X29459000Y-54351000D01*
X26859000Y-53081000D02*
X26859000Y-51751000D01*
X26859000Y-51751000D02*
X28189000Y-51751000D01*
X26859000Y-54351000D02*
X26859000Y-56951000D01*
X32059000Y-51751000D02*
X32059000Y-56951000D01*
X29459000Y-51751000D02*
X32059000Y-51751000D01*
X26859000Y-56951000D02*
X32059000Y-56951000D01*
X26859000Y-27285255D02*
X26859000Y-50205255D01*
X26859000Y-27285255D02*
X29459000Y-27285255D01*
X29459000Y-27285255D02*
X29459000Y-24685255D01*
X32059000Y-24685255D02*
X32059000Y-50205255D01*
X26859000Y-24685255D02*
X28189000Y-24685255D01*
X26859000Y-26015255D02*
X26859000Y-24685255D01*
X26859000Y-50205255D02*
X32059000Y-50205255D01*
X29459000Y-24685255D02*
X32059000Y-24685255D01*
X14886000Y-24690255D02*
X14886000Y-60370255D01*
X14886000Y-60370255D02*
X20186000Y-60370255D01*
X20186000Y-60370255D02*
X20186000Y-24690255D01*
X16536000Y-24690255D02*
X14886000Y-24690255D01*
X20186000Y-24690255D02*
X18536000Y-24690255D01*
X16536000Y-24690255D02*
G75*
G03*
X18536000Y-24690255I1000000J0D01*
G01*
X50689349Y-29234000D02*
X50689349Y-30759000D01*
X51650349Y-29234000D02*
X51650349Y-30462000D01*
X51049349Y-29234000D02*
X51049349Y-30695000D01*
X51770349Y-29234000D02*
X51770349Y-30394000D01*
X51730349Y-29234000D02*
X51730349Y-30418000D01*
X50889349Y-29234000D02*
X50889349Y-30730000D01*
X51490349Y-29234000D02*
X51490349Y-30542000D01*
X50529349Y-25616000D02*
X50529349Y-30772000D01*
X52490349Y-26640000D02*
X52490349Y-27154000D01*
X52970349Y-27676000D02*
X52970349Y-28712000D01*
X51490349Y-25846000D02*
X51490349Y-27154000D01*
X51770349Y-25994000D02*
X51770349Y-27154000D01*
X50929349Y-29234000D02*
X50929349Y-30722000D01*
X51970349Y-26129000D02*
X51970349Y-27154000D01*
X52810349Y-27183000D02*
X52810349Y-29205000D01*
X52770349Y-27096000D02*
X52770349Y-29292000D01*
X51850349Y-26045000D02*
X51850349Y-27154000D01*
X50769349Y-29234000D02*
X50769349Y-30750000D01*
X52090349Y-26223000D02*
X52090349Y-27154000D01*
X52530349Y-26694000D02*
X52530349Y-27154000D01*
X52890349Y-27389000D02*
X52890349Y-28999000D01*
X50969349Y-29234000D02*
X50969349Y-30714000D01*
X50729349Y-25633000D02*
X50729349Y-27154000D01*
X52610349Y-26811000D02*
X52610349Y-27154000D01*
X52290349Y-29234000D02*
X52290349Y-29979000D01*
X50649349Y-25625000D02*
X50649349Y-27154000D01*
X52170349Y-29234000D02*
X52170349Y-30095000D01*
X50729349Y-29234000D02*
X50729349Y-30755000D01*
X52690349Y-26943000D02*
X52690349Y-27154000D01*
X50849349Y-25651000D02*
X50849349Y-27154000D01*
X52570349Y-26751000D02*
X52570349Y-27154000D01*
X52410349Y-29234000D02*
X52410349Y-29847000D01*
X51810349Y-26019000D02*
X51810349Y-27154000D01*
X51330349Y-29234000D02*
X51330349Y-30608000D01*
X51530349Y-29234000D02*
X51530349Y-30523000D01*
X52170349Y-26293000D02*
X52170349Y-27154000D01*
X50929349Y-25666000D02*
X50929349Y-27154000D01*
X52370349Y-26495000D02*
X52370349Y-27154000D01*
X51290349Y-29234000D02*
X51290349Y-30622000D01*
X51049349Y-25693000D02*
X51049349Y-27154000D01*
X51450349Y-29234000D02*
X51450349Y-30559000D01*
X50809349Y-29234000D02*
X50809349Y-30744000D01*
X51009349Y-25683000D02*
X51009349Y-27154000D01*
X52050349Y-26190000D02*
X52050349Y-27154000D01*
X51370349Y-25796000D02*
X51370349Y-27154000D01*
X52250349Y-26368000D02*
X52250349Y-27154000D01*
X51650349Y-25926000D02*
X51650349Y-27154000D01*
X52090349Y-29234000D02*
X52090349Y-30165000D01*
X52730349Y-27016000D02*
X52730349Y-29372000D01*
X51890349Y-29234000D02*
X51890349Y-30316000D01*
X51250349Y-29234000D02*
X51250349Y-30636000D01*
X51690349Y-29234000D02*
X51690349Y-30441000D01*
X52290349Y-26409000D02*
X52290349Y-27154000D01*
X51370349Y-29234000D02*
X51370349Y-30592000D01*
X51170349Y-25726000D02*
X51170349Y-27154000D01*
X51210349Y-29234000D02*
X51210349Y-30649000D01*
X52690349Y-29234000D02*
X52690349Y-29445000D01*
X51570349Y-29234000D02*
X51570349Y-30504000D01*
X52010349Y-29234000D02*
X52010349Y-30229000D01*
X52130349Y-26257000D02*
X52130349Y-27154000D01*
X51530349Y-25865000D02*
X51530349Y-27154000D01*
X51730349Y-25970000D02*
X51730349Y-27154000D01*
X51089349Y-29234000D02*
X51089349Y-30685000D01*
X50849349Y-29234000D02*
X50849349Y-30737000D01*
X52130349Y-29234000D02*
X52130349Y-30131000D01*
X52410349Y-26541000D02*
X52410349Y-27154000D01*
X50689349Y-25629000D02*
X50689349Y-27154000D01*
X51610349Y-25904000D02*
X51610349Y-27154000D01*
X51130349Y-29234000D02*
X51130349Y-30674000D01*
X51210349Y-25739000D02*
X51210349Y-27154000D01*
X50809349Y-25644000D02*
X50809349Y-27154000D01*
X52570349Y-29234000D02*
X52570349Y-29637000D01*
X50769349Y-25638000D02*
X50769349Y-27154000D01*
X51330349Y-25780000D02*
X51330349Y-27154000D01*
X51850349Y-29234000D02*
X51850349Y-30343000D01*
X52930349Y-27517000D02*
X52930349Y-28871000D01*
X51610349Y-29234000D02*
X51610349Y-30484000D01*
X50409349Y-25614000D02*
X50409349Y-30774000D01*
X52050349Y-29234000D02*
X52050349Y-30198000D01*
X52330349Y-26451000D02*
X52330349Y-27154000D01*
X52650349Y-26875000D02*
X52650349Y-27154000D01*
X50969349Y-25674000D02*
X50969349Y-27154000D01*
X51290349Y-25766000D02*
X51290349Y-27154000D01*
X52010349Y-26159000D02*
X52010349Y-27154000D01*
X52610349Y-29234000D02*
X52610349Y-29577000D01*
X50449349Y-25614000D02*
X50449349Y-30774000D01*
X52210349Y-26330000D02*
X52210349Y-27154000D01*
X50569349Y-25618000D02*
X50569349Y-30770000D01*
X52530349Y-29234000D02*
X52530349Y-29694000D01*
X47604574Y-26719000D02*
X48104574Y-26719000D01*
X50889349Y-25658000D02*
X50889349Y-27154000D01*
X52250349Y-29234000D02*
X52250349Y-30020000D01*
X47854574Y-26469000D02*
X47854574Y-26969000D01*
X52210349Y-29234000D02*
X52210349Y-30058000D01*
X51410349Y-29234000D02*
X51410349Y-30576000D01*
X51810349Y-29234000D02*
X51810349Y-30369000D01*
X51130349Y-25714000D02*
X51130349Y-27154000D01*
X51930349Y-29234000D02*
X51930349Y-30289000D01*
X51170349Y-29234000D02*
X51170349Y-30662000D01*
X52490349Y-29234000D02*
X52490349Y-29748000D01*
X51970349Y-29234000D02*
X51970349Y-30259000D01*
X52850349Y-27279000D02*
X52850349Y-29109000D01*
X53010349Y-27910000D02*
X53010349Y-28478000D01*
X52650349Y-29234000D02*
X52650349Y-29513000D01*
X52450349Y-26589000D02*
X52450349Y-27154000D01*
X51410349Y-25812000D02*
X51410349Y-27154000D01*
X51890349Y-26072000D02*
X51890349Y-27154000D01*
X51450349Y-25829000D02*
X51450349Y-27154000D01*
X51250349Y-25752000D02*
X51250349Y-27154000D01*
X50649349Y-29234000D02*
X50649349Y-30763000D01*
X52370349Y-29234000D02*
X52370349Y-29893000D01*
X51930349Y-26099000D02*
X51930349Y-27154000D01*
X51690349Y-25947000D02*
X51690349Y-27154000D01*
X51089349Y-25703000D02*
X51089349Y-27154000D01*
X50609349Y-25621000D02*
X50609349Y-30767000D01*
X51570349Y-25884000D02*
X51570349Y-27154000D01*
X50489349Y-25615000D02*
X50489349Y-30773000D01*
X51009349Y-29234000D02*
X51009349Y-30705000D01*
X52450349Y-29234000D02*
X52450349Y-29799000D01*
X52330349Y-29234000D02*
X52330349Y-29937000D01*
X53029349Y-28194000D02*
G75*
G03*
X53029349Y-28194000I-2620000J0D01*
G01*
X86108000Y-11136000D02*
X86108000Y-25376000D01*
X85808000Y-7136000D02*
X85808000Y-11136000D01*
X77668000Y-25376000D02*
X77668000Y-11136000D01*
X85808000Y-11136000D02*
X86108000Y-11136000D01*
X79568000Y-7136000D02*
X85808000Y-7136000D01*
X77668000Y-11136000D02*
X79568000Y-11136000D01*
X79568000Y-11136000D02*
X79568000Y-7136000D01*
X86108000Y-25376000D02*
X77668000Y-25376000D01*
X50723600Y-23114000D02*
X49773600Y-23114000D01*
X49773600Y-22194000D02*
X45933600Y-22194000D01*
X44983600Y-23114000D02*
X45933600Y-23114000D01*
X45933600Y-22194000D02*
X45933600Y-24034000D01*
X45933600Y-24034000D02*
X49773600Y-24034000D01*
X49773600Y-24034000D02*
X49773600Y-22194000D01*
X46406000Y-35052000D02*
X47356000Y-35052000D01*
X51196000Y-34132000D02*
X47356000Y-34132000D01*
X47356000Y-35972000D02*
X51196000Y-35972000D01*
X51196000Y-35972000D02*
X51196000Y-34132000D01*
X47356000Y-34132000D02*
X47356000Y-35972000D01*
X52146000Y-35052000D02*
X51196000Y-35052000D01*
X64830000Y-52518000D02*
X62170000Y-52518000D01*
X64830000Y-100838000D02*
X64830000Y-52518000D01*
X64830000Y-103438000D02*
X63500000Y-103438000D01*
X64830000Y-100838000D02*
X62170000Y-100838000D01*
X62170000Y-100838000D02*
X62170000Y-52518000D01*
X64830000Y-102108000D02*
X64830000Y-103438000D01*
D20*
X93779340Y-24843740D03*
X93779340Y-49832260D03*
D21*
X25821500Y-88494000D03*
D22*
X25821500Y-67494000D03*
M02*
