G04 (created by PCBNEW-RS274X (2011-05-25)-stable) date Sat 23 Jun 2012 12:43:35 PM EDT*
G01*
G70*
G90*
%MOIN*%
G04 Gerber Fmt 3.4, Leading zero omitted, Abs format*
%FSLAX34Y34*%
G04 APERTURE LIST*
%ADD10C,0.008000*%
%ADD11C,0.012000*%
%ADD12C,0.015000*%
%ADD13C,0.005000*%
%ADD14C,0.011300*%
%ADD15C,0.011200*%
%ADD16C,0.006000*%
%ADD17C,0.010700*%
%ADD18C,0.007500*%
%ADD19C,0.010600*%
G04 APERTURE END LIST*
G54D10*
G54D11*
X42472Y-43069D02*
X42929Y-43069D01*
X42700Y-43374D02*
X42700Y-42764D01*
X42857Y-43662D02*
X42800Y-43624D01*
X42714Y-43624D01*
X42629Y-43662D01*
X42571Y-43738D01*
X42543Y-43814D01*
X42514Y-43967D01*
X42514Y-44081D01*
X42543Y-44233D01*
X42571Y-44310D01*
X42629Y-44386D01*
X42714Y-44424D01*
X42771Y-44424D01*
X42857Y-44386D01*
X42886Y-44348D01*
X42886Y-44081D01*
X42771Y-44081D01*
X42857Y-44762D02*
X42800Y-44724D01*
X42714Y-44724D01*
X42629Y-44762D01*
X42571Y-44838D01*
X42543Y-44914D01*
X42514Y-45067D01*
X42514Y-45181D01*
X42543Y-45333D01*
X42571Y-45410D01*
X42629Y-45486D01*
X42714Y-45524D01*
X42771Y-45524D01*
X42857Y-45486D01*
X42886Y-45448D01*
X42886Y-45181D01*
X42771Y-45181D01*
X46526Y-40508D02*
X46497Y-40546D01*
X46411Y-40584D01*
X46354Y-40584D01*
X46269Y-40546D01*
X46211Y-40470D01*
X46183Y-40393D01*
X46154Y-40241D01*
X46154Y-40127D01*
X46183Y-39974D01*
X46211Y-39898D01*
X46269Y-39822D01*
X46354Y-39784D01*
X46411Y-39784D01*
X46497Y-39822D01*
X46526Y-39860D01*
X46203Y-41544D02*
X46203Y-40744D01*
X46346Y-40744D01*
X46431Y-40782D01*
X46489Y-40858D01*
X46517Y-40934D01*
X46546Y-41087D01*
X46546Y-41201D01*
X46517Y-41353D01*
X46489Y-41430D01*
X46431Y-41506D01*
X46346Y-41544D01*
X46203Y-41544D01*
X46120Y-41724D02*
X46320Y-42524D01*
X46520Y-41724D01*
X46457Y-42802D02*
X46400Y-42764D01*
X46314Y-42764D01*
X46229Y-42802D01*
X46171Y-42878D01*
X46143Y-42954D01*
X46114Y-43107D01*
X46114Y-43221D01*
X46143Y-43373D01*
X46171Y-43450D01*
X46229Y-43526D01*
X46314Y-43564D01*
X46371Y-43564D01*
X46457Y-43526D01*
X46486Y-43488D01*
X46486Y-43221D01*
X46371Y-43221D01*
X72164Y-45065D02*
X71364Y-45065D01*
X72088Y-44436D02*
X72126Y-44465D01*
X72164Y-44551D01*
X72164Y-44608D01*
X72126Y-44693D01*
X72050Y-44751D01*
X71973Y-44779D01*
X71821Y-44808D01*
X71707Y-44808D01*
X71554Y-44779D01*
X71478Y-44751D01*
X71402Y-44693D01*
X71364Y-44608D01*
X71364Y-44551D01*
X71402Y-44465D01*
X71440Y-44436D01*
X72126Y-44208D02*
X72164Y-44122D01*
X72164Y-43979D01*
X72126Y-43922D01*
X72088Y-43893D01*
X72011Y-43865D01*
X71935Y-43865D01*
X71859Y-43893D01*
X71821Y-43922D01*
X71783Y-43979D01*
X71745Y-44093D01*
X71707Y-44151D01*
X71669Y-44179D01*
X71592Y-44208D01*
X71516Y-44208D01*
X71440Y-44179D01*
X71402Y-44151D01*
X71364Y-44093D01*
X71364Y-43951D01*
X71402Y-43865D01*
X72164Y-43608D02*
X71364Y-43608D01*
X71364Y-43380D01*
X71402Y-43322D01*
X71440Y-43294D01*
X71516Y-43265D01*
X71630Y-43265D01*
X71707Y-43294D01*
X71745Y-43322D01*
X71783Y-43380D01*
X71783Y-43608D01*
X44563Y-43844D02*
X44563Y-44491D01*
X44591Y-44568D01*
X44620Y-44606D01*
X44677Y-44644D01*
X44791Y-44644D01*
X44849Y-44606D01*
X44877Y-44568D01*
X44906Y-44491D01*
X44906Y-43844D01*
X45163Y-44606D02*
X45249Y-44644D01*
X45392Y-44644D01*
X45449Y-44606D01*
X45478Y-44568D01*
X45506Y-44491D01*
X45506Y-44415D01*
X45478Y-44339D01*
X45449Y-44301D01*
X45392Y-44263D01*
X45278Y-44225D01*
X45220Y-44187D01*
X45192Y-44149D01*
X45163Y-44072D01*
X45163Y-43996D01*
X45192Y-43920D01*
X45220Y-43882D01*
X45278Y-43844D01*
X45420Y-43844D01*
X45506Y-43882D01*
X45963Y-44225D02*
X46049Y-44263D01*
X46077Y-44301D01*
X46106Y-44377D01*
X46106Y-44491D01*
X46077Y-44568D01*
X46049Y-44606D01*
X45991Y-44644D01*
X45763Y-44644D01*
X45763Y-43844D01*
X45963Y-43844D01*
X46020Y-43882D01*
X46049Y-43920D01*
X46077Y-43996D01*
X46077Y-44072D01*
X46049Y-44149D01*
X46020Y-44187D01*
X45963Y-44225D01*
X45763Y-44225D01*
X50860Y-44940D02*
X53860Y-44940D01*
X53860Y-44940D02*
X53860Y-45940D01*
X53860Y-45940D02*
X50860Y-45940D01*
X50860Y-45940D02*
X50860Y-44940D01*
X53610Y-44940D02*
X53610Y-45940D01*
X53360Y-45940D02*
X53360Y-44940D01*
X50860Y-45440D02*
X50360Y-45440D01*
X53860Y-45440D02*
X54360Y-45440D01*
G54D12*
X49700Y-41700D02*
X64700Y-41700D01*
X64700Y-41700D02*
X64700Y-43700D01*
X64700Y-43700D02*
X49700Y-43700D01*
X49700Y-43700D02*
X49700Y-41700D01*
X49700Y-42200D02*
X50200Y-42200D01*
X50200Y-42200D02*
X50200Y-43200D01*
X50200Y-43200D02*
X49700Y-43200D01*
G54D13*
X57780Y-40050D02*
X57780Y-39300D01*
X57780Y-39300D02*
X54780Y-39300D01*
X54780Y-39300D02*
X54780Y-40300D01*
X54780Y-40300D02*
X57780Y-40300D01*
X57780Y-40300D02*
X57780Y-40050D01*
X58030Y-39800D02*
X57780Y-39800D01*
X54780Y-39800D02*
X54530Y-39800D01*
X57780Y-40050D02*
X57530Y-40300D01*
X53480Y-40070D02*
X53480Y-39320D01*
X53480Y-39320D02*
X50480Y-39320D01*
X50480Y-39320D02*
X50480Y-40320D01*
X50480Y-40320D02*
X53480Y-40320D01*
X53480Y-40320D02*
X53480Y-40070D01*
X53730Y-39820D02*
X53480Y-39820D01*
X50480Y-39820D02*
X50230Y-39820D01*
X53480Y-40070D02*
X53230Y-40320D01*
X68460Y-45510D02*
X68460Y-44760D01*
X68460Y-44760D02*
X65460Y-44760D01*
X65460Y-44760D02*
X65460Y-45760D01*
X65460Y-45760D02*
X68460Y-45760D01*
X68460Y-45760D02*
X68460Y-45510D01*
X68710Y-45260D02*
X68460Y-45260D01*
X65460Y-45260D02*
X65210Y-45260D01*
X68460Y-45510D02*
X68210Y-45760D01*
G54D11*
X47063Y-44776D02*
X47063Y-45776D01*
X47063Y-45776D02*
X45063Y-45776D01*
X45063Y-45776D02*
X45063Y-44776D01*
X45063Y-44776D02*
X47063Y-44776D01*
X45940Y-39620D02*
X45940Y-39620D01*
X44940Y-39620D02*
X45940Y-39620D01*
X45940Y-39620D02*
X45940Y-39620D01*
X45940Y-39620D02*
X45940Y-43620D01*
X45940Y-43620D02*
X44940Y-43620D01*
X44940Y-43620D02*
X44940Y-39620D01*
X44940Y-40620D02*
X45940Y-40620D01*
X44200Y-45600D02*
X43200Y-45600D01*
X43200Y-45600D02*
X43200Y-39600D01*
X43200Y-39600D02*
X44200Y-39600D01*
X44200Y-39600D02*
X44200Y-45600D01*
X44200Y-44600D02*
X43200Y-44600D01*
G54D10*
X71740Y-41960D02*
X71740Y-43160D01*
X71740Y-43160D02*
X74540Y-43160D01*
X74540Y-43160D02*
X74540Y-41960D01*
X71740Y-40760D02*
X71740Y-40460D01*
X71740Y-40460D02*
X72340Y-39560D01*
X72340Y-39560D02*
X73940Y-39560D01*
X73940Y-39560D02*
X74540Y-40460D01*
X74540Y-40460D02*
X74540Y-40760D01*
X69240Y-45600D02*
X69240Y-42600D01*
X71240Y-42600D02*
X71240Y-45600D01*
X71240Y-45600D02*
X69240Y-45600D01*
X69240Y-42600D02*
X71240Y-42600D01*
G54D13*
X79661Y-40440D02*
X79641Y-40634D01*
X79585Y-40821D01*
X79493Y-40993D01*
X79370Y-41145D01*
X79219Y-41269D01*
X79047Y-41362D01*
X78861Y-41420D01*
X78666Y-41440D01*
X78473Y-41423D01*
X78286Y-41368D01*
X78112Y-41277D01*
X77960Y-41155D01*
X77835Y-41005D01*
X77740Y-40834D01*
X77681Y-40648D01*
X77660Y-40453D01*
X77676Y-40260D01*
X77730Y-40072D01*
X77819Y-39898D01*
X77940Y-39745D01*
X78089Y-39619D01*
X78260Y-39523D01*
X78446Y-39463D01*
X78640Y-39440D01*
X78833Y-39455D01*
X79021Y-39507D01*
X79196Y-39595D01*
X79350Y-39716D01*
X79477Y-39863D01*
X79574Y-40033D01*
X79636Y-40219D01*
X79660Y-40413D01*
X79661Y-40440D01*
X76661Y-40320D02*
X76641Y-40514D01*
X76585Y-40701D01*
X76493Y-40873D01*
X76370Y-41025D01*
X76219Y-41149D01*
X76047Y-41242D01*
X75861Y-41300D01*
X75666Y-41320D01*
X75473Y-41303D01*
X75286Y-41248D01*
X75112Y-41157D01*
X74960Y-41035D01*
X74835Y-40885D01*
X74740Y-40714D01*
X74681Y-40528D01*
X74660Y-40333D01*
X74676Y-40140D01*
X74730Y-39952D01*
X74819Y-39778D01*
X74940Y-39625D01*
X75089Y-39499D01*
X75260Y-39403D01*
X75446Y-39343D01*
X75640Y-39320D01*
X75833Y-39335D01*
X76021Y-39387D01*
X76196Y-39475D01*
X76350Y-39596D01*
X76477Y-39743D01*
X76574Y-39913D01*
X76636Y-40099D01*
X76660Y-40293D01*
X76661Y-40320D01*
G54D11*
X60830Y-40350D02*
X58850Y-40350D01*
X58850Y-40350D02*
X58850Y-39350D01*
X58850Y-39350D02*
X60850Y-39350D01*
X60850Y-39350D02*
X60850Y-40350D01*
X60850Y-40100D02*
X60600Y-40350D01*
X46900Y-43280D02*
X46900Y-41300D01*
X46900Y-41300D02*
X47900Y-41300D01*
X47900Y-41300D02*
X47900Y-43300D01*
X47900Y-43300D02*
X46900Y-43300D01*
X47150Y-43300D02*
X46900Y-43050D01*
X49602Y-45776D02*
X47622Y-45776D01*
X47622Y-45776D02*
X47622Y-44776D01*
X47622Y-44776D02*
X49622Y-44776D01*
X49622Y-44776D02*
X49622Y-45776D01*
X49622Y-45526D02*
X49372Y-45776D01*
X69400Y-41220D02*
X71380Y-41220D01*
X71380Y-41220D02*
X71380Y-42220D01*
X71380Y-42220D02*
X69380Y-42220D01*
X69380Y-42220D02*
X69380Y-41220D01*
X69380Y-41470D02*
X69630Y-41220D01*
X74160Y-45860D02*
X72180Y-45860D01*
X72180Y-45860D02*
X72180Y-44860D01*
X72180Y-44860D02*
X74180Y-44860D01*
X74180Y-44860D02*
X74180Y-45860D01*
X74180Y-45610D02*
X73930Y-45860D01*
X69400Y-39860D02*
X71380Y-39860D01*
X71380Y-39860D02*
X71380Y-40860D01*
X71380Y-40860D02*
X69380Y-40860D01*
X69380Y-40860D02*
X69380Y-39860D01*
X69380Y-40110D02*
X69630Y-39860D01*
X74300Y-44440D02*
X72320Y-44440D01*
X72320Y-44440D02*
X72320Y-43440D01*
X72320Y-43440D02*
X74320Y-43440D01*
X74320Y-43440D02*
X74320Y-44440D01*
X74320Y-44190D02*
X74070Y-44440D01*
G54D12*
X80800Y-45700D02*
X81100Y-45700D01*
X81100Y-45700D02*
X81100Y-42300D01*
X81100Y-42300D02*
X80800Y-42300D01*
X79600Y-45700D02*
X79600Y-42300D01*
X75800Y-45700D02*
X75800Y-42300D01*
X80800Y-42300D02*
X75800Y-42300D01*
X80800Y-45700D02*
X75800Y-45700D01*
G54D11*
X60358Y-44972D02*
X60358Y-45972D01*
X60358Y-45972D02*
X57358Y-45972D01*
X57358Y-45972D02*
X57358Y-44972D01*
X57358Y-44972D02*
X60358Y-44972D01*
X59358Y-45972D02*
X59358Y-44972D01*
G54D13*
X67700Y-42350D02*
X67680Y-42544D01*
X67624Y-42731D01*
X67532Y-42903D01*
X67409Y-43054D01*
X67259Y-43179D01*
X67087Y-43271D01*
X66901Y-43329D01*
X66706Y-43349D01*
X66513Y-43332D01*
X66326Y-43277D01*
X66153Y-43186D01*
X66001Y-43064D01*
X65875Y-42914D01*
X65781Y-42743D01*
X65722Y-42557D01*
X65701Y-42363D01*
X65717Y-42170D01*
X65771Y-41982D01*
X65860Y-41809D01*
X65981Y-41656D01*
X66130Y-41529D01*
X66300Y-41434D01*
X66486Y-41374D01*
X66680Y-41351D01*
X66873Y-41366D01*
X67061Y-41418D01*
X67235Y-41506D01*
X67389Y-41626D01*
X67517Y-41774D01*
X67613Y-41944D01*
X67675Y-42129D01*
X67699Y-42323D01*
X67700Y-42350D01*
X65200Y-43850D02*
X65200Y-40850D01*
X65200Y-40850D02*
X68200Y-40850D01*
X68200Y-40850D02*
X68200Y-43850D01*
X65200Y-43850D02*
X68200Y-43850D01*
G54D12*
X61023Y-46024D02*
X61023Y-49252D01*
X61023Y-49252D02*
X45275Y-49252D01*
X45275Y-49252D02*
X45275Y-46024D01*
X45275Y-46024D02*
X61023Y-46024D01*
X61016Y-39214D02*
X61016Y-35986D01*
X61016Y-35986D02*
X76764Y-35986D01*
X76764Y-35986D02*
X76764Y-39214D01*
X76764Y-39214D02*
X61016Y-39214D01*
X45116Y-39214D02*
X45116Y-35986D01*
X45116Y-35986D02*
X60864Y-35986D01*
X60864Y-35986D02*
X60864Y-39214D01*
X60864Y-39214D02*
X45116Y-39214D01*
X76771Y-46024D02*
X76771Y-49252D01*
X76771Y-49252D02*
X61023Y-49252D01*
X61023Y-49252D02*
X61023Y-46024D01*
X61023Y-46024D02*
X76771Y-46024D01*
G54D10*
X51925Y-45722D02*
X51925Y-45222D01*
X52020Y-45222D01*
X52078Y-45246D01*
X52116Y-45294D01*
X52135Y-45341D01*
X52154Y-45437D01*
X52154Y-45508D01*
X52135Y-45603D01*
X52116Y-45651D01*
X52078Y-45699D01*
X52020Y-45722D01*
X51925Y-45722D01*
X52535Y-45722D02*
X52306Y-45722D01*
X52420Y-45722D02*
X52420Y-45222D01*
X52382Y-45294D01*
X52344Y-45341D01*
X52306Y-45365D01*
G54D14*
X48777Y-42203D02*
X48777Y-42689D01*
X48799Y-42746D01*
X48820Y-42774D01*
X48863Y-42803D01*
X48949Y-42803D01*
X48991Y-42774D01*
X49013Y-42746D01*
X49034Y-42689D01*
X49034Y-42203D01*
X49484Y-42803D02*
X49227Y-42803D01*
X49355Y-42803D02*
X49355Y-42203D01*
X49312Y-42289D01*
X49270Y-42346D01*
X49227Y-42374D01*
G54D15*
X54721Y-42728D02*
X54980Y-42728D01*
X54670Y-42917D02*
X54851Y-42256D01*
X55032Y-42917D01*
X55135Y-42256D02*
X55445Y-42256D01*
X55290Y-42917D02*
X55290Y-42256D01*
X55626Y-42917D02*
X55626Y-42256D01*
X55807Y-42728D01*
X55988Y-42256D01*
X55988Y-42917D01*
X56247Y-42571D02*
X56428Y-42571D01*
X56506Y-42917D02*
X56247Y-42917D01*
X56247Y-42256D01*
X56506Y-42256D01*
X57023Y-42288D02*
X56971Y-42256D01*
X56893Y-42256D01*
X56816Y-42288D01*
X56764Y-42350D01*
X56738Y-42413D01*
X56712Y-42539D01*
X56712Y-42634D01*
X56738Y-42760D01*
X56764Y-42823D01*
X56816Y-42886D01*
X56893Y-42917D01*
X56945Y-42917D01*
X57023Y-42886D01*
X57049Y-42854D01*
X57049Y-42634D01*
X56945Y-42634D01*
X57255Y-42728D02*
X57514Y-42728D01*
X57204Y-42917D02*
X57385Y-42256D01*
X57566Y-42917D01*
X57695Y-42256D02*
X58031Y-42256D01*
X57850Y-42508D01*
X57927Y-42508D01*
X57979Y-42539D01*
X58005Y-42571D01*
X58031Y-42634D01*
X58031Y-42791D01*
X58005Y-42854D01*
X57979Y-42886D01*
X57927Y-42917D01*
X57772Y-42917D01*
X57720Y-42886D01*
X57695Y-42854D01*
X58237Y-42319D02*
X58263Y-42288D01*
X58315Y-42256D01*
X58444Y-42256D01*
X58496Y-42288D01*
X58522Y-42319D01*
X58548Y-42382D01*
X58548Y-42445D01*
X58522Y-42539D01*
X58212Y-42917D01*
X58548Y-42917D01*
X58858Y-42539D02*
X58806Y-42508D01*
X58780Y-42476D01*
X58754Y-42413D01*
X58754Y-42382D01*
X58780Y-42319D01*
X58806Y-42288D01*
X58858Y-42256D01*
X58961Y-42256D01*
X59013Y-42288D01*
X59039Y-42319D01*
X59065Y-42382D01*
X59065Y-42413D01*
X59039Y-42476D01*
X59013Y-42508D01*
X58961Y-42539D01*
X58858Y-42539D01*
X58806Y-42571D01*
X58780Y-42602D01*
X58754Y-42665D01*
X58754Y-42791D01*
X58780Y-42854D01*
X58806Y-42886D01*
X58858Y-42917D01*
X58961Y-42917D01*
X59013Y-42886D01*
X59039Y-42854D01*
X59065Y-42791D01*
X59065Y-42665D01*
X59039Y-42602D01*
X59013Y-42571D01*
X58961Y-42539D01*
X59297Y-42665D02*
X59711Y-42665D01*
X59969Y-42917D02*
X59969Y-42256D01*
X60176Y-42256D01*
X60228Y-42288D01*
X60254Y-42319D01*
X60280Y-42382D01*
X60280Y-42476D01*
X60254Y-42539D01*
X60228Y-42571D01*
X60176Y-42602D01*
X59969Y-42602D01*
G54D16*
X54354Y-40682D02*
X54220Y-40444D01*
X54125Y-40682D02*
X54125Y-40182D01*
X54278Y-40182D01*
X54316Y-40206D01*
X54335Y-40230D01*
X54354Y-40278D01*
X54354Y-40349D01*
X54335Y-40397D01*
X54316Y-40420D01*
X54278Y-40444D01*
X54125Y-40444D01*
X54487Y-40182D02*
X54735Y-40182D01*
X54601Y-40373D01*
X54659Y-40373D01*
X54697Y-40397D01*
X54716Y-40420D01*
X54735Y-40468D01*
X54735Y-40587D01*
X54716Y-40635D01*
X54697Y-40659D01*
X54659Y-40682D01*
X54544Y-40682D01*
X54506Y-40659D01*
X54487Y-40635D01*
X50074Y-40782D02*
X49940Y-40544D01*
X49845Y-40782D02*
X49845Y-40282D01*
X49998Y-40282D01*
X50036Y-40306D01*
X50055Y-40330D01*
X50074Y-40378D01*
X50074Y-40449D01*
X50055Y-40497D01*
X50036Y-40520D01*
X49998Y-40544D01*
X49845Y-40544D01*
X50226Y-40330D02*
X50245Y-40306D01*
X50283Y-40282D01*
X50379Y-40282D01*
X50417Y-40306D01*
X50436Y-40330D01*
X50455Y-40378D01*
X50455Y-40425D01*
X50436Y-40497D01*
X50207Y-40782D01*
X50455Y-40782D01*
X66714Y-44702D02*
X66580Y-44464D01*
X66485Y-44702D02*
X66485Y-44202D01*
X66638Y-44202D01*
X66676Y-44226D01*
X66695Y-44250D01*
X66714Y-44298D01*
X66714Y-44369D01*
X66695Y-44417D01*
X66676Y-44440D01*
X66638Y-44464D01*
X66485Y-44464D01*
X67095Y-44702D02*
X66866Y-44702D01*
X66980Y-44702D02*
X66980Y-44202D01*
X66942Y-44274D01*
X66904Y-44321D01*
X66866Y-44345D01*
G54D17*
X46683Y-43934D02*
X46683Y-44421D01*
X46663Y-44518D01*
X46622Y-44583D01*
X46561Y-44615D01*
X46520Y-44615D01*
X46887Y-44615D02*
X46887Y-43934D01*
X47050Y-43934D01*
X47091Y-43967D01*
X47111Y-43999D01*
X47131Y-44064D01*
X47131Y-44161D01*
X47111Y-44226D01*
X47091Y-44258D01*
X47050Y-44291D01*
X46887Y-44291D01*
X47295Y-43999D02*
X47315Y-43967D01*
X47356Y-43934D01*
X47458Y-43934D01*
X47498Y-43967D01*
X47519Y-43999D01*
X47539Y-44064D01*
X47539Y-44129D01*
X47519Y-44226D01*
X47274Y-44615D01*
X47539Y-44615D01*
X44253Y-40297D02*
X44741Y-40297D01*
X44838Y-40317D01*
X44903Y-40358D01*
X44936Y-40419D01*
X44936Y-40460D01*
X44936Y-40093D02*
X44253Y-40093D01*
X44253Y-39930D01*
X44285Y-39889D01*
X44318Y-39869D01*
X44383Y-39849D01*
X44481Y-39849D01*
X44546Y-39869D01*
X44578Y-39889D01*
X44611Y-39930D01*
X44611Y-40093D01*
X44546Y-39604D02*
X44513Y-39645D01*
X44481Y-39665D01*
X44416Y-39685D01*
X44383Y-39685D01*
X44318Y-39665D01*
X44285Y-39645D01*
X44253Y-39604D01*
X44253Y-39522D01*
X44285Y-39482D01*
X44318Y-39461D01*
X44383Y-39441D01*
X44416Y-39441D01*
X44481Y-39461D01*
X44513Y-39482D01*
X44546Y-39522D01*
X44546Y-39604D01*
X44578Y-39645D01*
X44611Y-39665D01*
X44676Y-39685D01*
X44806Y-39685D01*
X44871Y-39665D01*
X44903Y-39645D01*
X44936Y-39604D01*
X44936Y-39522D01*
X44903Y-39482D01*
X44871Y-39461D01*
X44806Y-39441D01*
X44676Y-39441D01*
X44611Y-39461D01*
X44578Y-39482D01*
X44546Y-39522D01*
X42344Y-42007D02*
X42831Y-42007D01*
X42928Y-42027D01*
X42993Y-42068D01*
X43025Y-42129D01*
X43025Y-42170D01*
X43025Y-41803D02*
X42344Y-41803D01*
X42344Y-41640D01*
X42377Y-41599D01*
X42409Y-41579D01*
X42474Y-41559D01*
X42571Y-41559D01*
X42636Y-41579D01*
X42668Y-41599D01*
X42701Y-41640D01*
X42701Y-41803D01*
X43025Y-41151D02*
X43025Y-41395D01*
X43025Y-41273D02*
X42344Y-41273D01*
X42441Y-41314D01*
X42506Y-41355D01*
X42539Y-41395D01*
G54D10*
X72755Y-41142D02*
X72755Y-41466D01*
X72774Y-41504D01*
X72793Y-41523D01*
X72831Y-41542D01*
X72908Y-41542D01*
X72946Y-41523D01*
X72965Y-41504D01*
X72984Y-41466D01*
X72984Y-41142D01*
X73155Y-41180D02*
X73174Y-41161D01*
X73212Y-41142D01*
X73308Y-41142D01*
X73346Y-41161D01*
X73365Y-41180D01*
X73384Y-41218D01*
X73384Y-41256D01*
X73365Y-41313D01*
X73136Y-41542D01*
X73384Y-41542D01*
X68762Y-44333D02*
X69048Y-44333D01*
X69105Y-44353D01*
X69143Y-44391D01*
X69162Y-44448D01*
X69162Y-44486D01*
X69162Y-44143D02*
X68762Y-44143D01*
X68762Y-43990D01*
X68781Y-43952D01*
X68800Y-43933D01*
X68838Y-43914D01*
X68895Y-43914D01*
X68933Y-43933D01*
X68952Y-43952D01*
X68971Y-43990D01*
X68971Y-44143D01*
X68762Y-43781D02*
X68762Y-43533D01*
X68914Y-43667D01*
X68914Y-43609D01*
X68933Y-43571D01*
X68952Y-43552D01*
X68990Y-43533D01*
X69086Y-43533D01*
X69124Y-43552D01*
X69143Y-43571D01*
X69162Y-43609D01*
X69162Y-43724D01*
X69143Y-43762D01*
X69124Y-43781D01*
G54D13*
X78850Y-41813D02*
X78836Y-41827D01*
X78793Y-41841D01*
X78764Y-41841D01*
X78721Y-41827D01*
X78693Y-41799D01*
X78678Y-41770D01*
X78664Y-41713D01*
X78664Y-41670D01*
X78678Y-41613D01*
X78693Y-41584D01*
X78721Y-41556D01*
X78764Y-41541D01*
X78793Y-41541D01*
X78836Y-41556D01*
X78850Y-41570D01*
X79107Y-41641D02*
X79107Y-41841D01*
X79036Y-41527D02*
X78964Y-41741D01*
X79150Y-41741D01*
G54D18*
X78317Y-41604D02*
X78317Y-41375D01*
X78431Y-41489D02*
X78203Y-41489D01*
G54D13*
X74810Y-41563D02*
X74796Y-41577D01*
X74753Y-41591D01*
X74724Y-41591D01*
X74681Y-41577D01*
X74653Y-41549D01*
X74638Y-41520D01*
X74624Y-41463D01*
X74624Y-41420D01*
X74638Y-41363D01*
X74653Y-41334D01*
X74681Y-41306D01*
X74724Y-41291D01*
X74753Y-41291D01*
X74796Y-41306D01*
X74810Y-41320D01*
X74924Y-41320D02*
X74938Y-41306D01*
X74967Y-41291D01*
X75038Y-41291D01*
X75067Y-41306D01*
X75081Y-41320D01*
X75096Y-41349D01*
X75096Y-41377D01*
X75081Y-41420D01*
X74910Y-41591D01*
X75096Y-41591D01*
G54D18*
X75317Y-41534D02*
X75317Y-41305D01*
X75431Y-41419D02*
X75203Y-41419D01*
G54D10*
X59684Y-40874D02*
X59665Y-40893D01*
X59608Y-40912D01*
X59570Y-40912D01*
X59512Y-40893D01*
X59474Y-40855D01*
X59455Y-40817D01*
X59436Y-40740D01*
X59436Y-40683D01*
X59455Y-40607D01*
X59474Y-40569D01*
X59512Y-40531D01*
X59570Y-40512D01*
X59608Y-40512D01*
X59665Y-40531D01*
X59684Y-40550D01*
X59874Y-40912D02*
X59950Y-40912D01*
X59989Y-40893D01*
X60008Y-40874D01*
X60046Y-40817D01*
X60065Y-40740D01*
X60065Y-40588D01*
X60046Y-40550D01*
X60027Y-40531D01*
X59989Y-40512D01*
X59912Y-40512D01*
X59874Y-40531D01*
X59855Y-40550D01*
X59836Y-40588D01*
X59836Y-40683D01*
X59855Y-40721D01*
X59874Y-40740D01*
X59912Y-40760D01*
X59989Y-40760D01*
X60027Y-40740D01*
X60046Y-40721D01*
X60065Y-40683D01*
X47334Y-41074D02*
X47315Y-41093D01*
X47258Y-41112D01*
X47220Y-41112D01*
X47162Y-41093D01*
X47124Y-41055D01*
X47105Y-41017D01*
X47086Y-40940D01*
X47086Y-40883D01*
X47105Y-40807D01*
X47124Y-40769D01*
X47162Y-40731D01*
X47220Y-40712D01*
X47258Y-40712D01*
X47315Y-40731D01*
X47334Y-40750D01*
X47562Y-40883D02*
X47524Y-40864D01*
X47505Y-40845D01*
X47486Y-40807D01*
X47486Y-40788D01*
X47505Y-40750D01*
X47524Y-40731D01*
X47562Y-40712D01*
X47639Y-40712D01*
X47677Y-40731D01*
X47696Y-40750D01*
X47715Y-40788D01*
X47715Y-40807D01*
X47696Y-40845D01*
X47677Y-40864D01*
X47639Y-40883D01*
X47562Y-40883D01*
X47524Y-40902D01*
X47505Y-40921D01*
X47486Y-40960D01*
X47486Y-41036D01*
X47505Y-41074D01*
X47524Y-41093D01*
X47562Y-41112D01*
X47639Y-41112D01*
X47677Y-41093D01*
X47696Y-41074D01*
X47715Y-41036D01*
X47715Y-40960D01*
X47696Y-40921D01*
X47677Y-40902D01*
X47639Y-40883D01*
X48934Y-44524D02*
X48915Y-44543D01*
X48858Y-44562D01*
X48820Y-44562D01*
X48762Y-44543D01*
X48724Y-44505D01*
X48705Y-44467D01*
X48686Y-44390D01*
X48686Y-44333D01*
X48705Y-44257D01*
X48724Y-44219D01*
X48762Y-44181D01*
X48820Y-44162D01*
X48858Y-44162D01*
X48915Y-44181D01*
X48934Y-44200D01*
X49315Y-44562D02*
X49086Y-44562D01*
X49200Y-44562D02*
X49200Y-44162D01*
X49162Y-44219D01*
X49124Y-44257D01*
X49086Y-44276D01*
X68774Y-41864D02*
X68755Y-41883D01*
X68698Y-41902D01*
X68660Y-41902D01*
X68602Y-41883D01*
X68564Y-41845D01*
X68545Y-41807D01*
X68526Y-41730D01*
X68526Y-41673D01*
X68545Y-41597D01*
X68564Y-41559D01*
X68602Y-41521D01*
X68660Y-41502D01*
X68698Y-41502D01*
X68755Y-41521D01*
X68774Y-41540D01*
X68907Y-41502D02*
X69174Y-41502D01*
X69002Y-41902D01*
X71654Y-45624D02*
X71635Y-45643D01*
X71578Y-45662D01*
X71540Y-45662D01*
X71482Y-45643D01*
X71444Y-45605D01*
X71425Y-45567D01*
X71406Y-45490D01*
X71406Y-45433D01*
X71425Y-45357D01*
X71444Y-45319D01*
X71482Y-45281D01*
X71540Y-45262D01*
X71578Y-45262D01*
X71635Y-45281D01*
X71654Y-45300D01*
X71997Y-45262D02*
X71920Y-45262D01*
X71882Y-45281D01*
X71863Y-45300D01*
X71825Y-45357D01*
X71806Y-45433D01*
X71806Y-45586D01*
X71825Y-45624D01*
X71844Y-45643D01*
X71882Y-45662D01*
X71959Y-45662D01*
X71997Y-45643D01*
X72016Y-45624D01*
X72035Y-45586D01*
X72035Y-45490D01*
X72016Y-45452D01*
X71997Y-45433D01*
X71959Y-45414D01*
X71882Y-45414D01*
X71844Y-45433D01*
X71825Y-45452D01*
X71806Y-45490D01*
X68834Y-40544D02*
X68815Y-40563D01*
X68758Y-40582D01*
X68720Y-40582D01*
X68662Y-40563D01*
X68624Y-40525D01*
X68605Y-40487D01*
X68586Y-40410D01*
X68586Y-40353D01*
X68605Y-40277D01*
X68624Y-40239D01*
X68662Y-40201D01*
X68720Y-40182D01*
X68758Y-40182D01*
X68815Y-40201D01*
X68834Y-40220D01*
X69196Y-40182D02*
X69005Y-40182D01*
X68986Y-40372D01*
X69005Y-40353D01*
X69043Y-40334D01*
X69139Y-40334D01*
X69177Y-40353D01*
X69196Y-40372D01*
X69215Y-40410D01*
X69215Y-40506D01*
X69196Y-40544D01*
X69177Y-40563D01*
X69139Y-40582D01*
X69043Y-40582D01*
X69005Y-40563D01*
X68986Y-40544D01*
X74154Y-44784D02*
X74135Y-44803D01*
X74078Y-44822D01*
X74040Y-44822D01*
X73982Y-44803D01*
X73944Y-44765D01*
X73925Y-44727D01*
X73906Y-44650D01*
X73906Y-44593D01*
X73925Y-44517D01*
X73944Y-44479D01*
X73982Y-44441D01*
X74040Y-44422D01*
X74078Y-44422D01*
X74135Y-44441D01*
X74154Y-44460D01*
X74287Y-44422D02*
X74535Y-44422D01*
X74401Y-44574D01*
X74459Y-44574D01*
X74497Y-44593D01*
X74516Y-44612D01*
X74535Y-44650D01*
X74535Y-44746D01*
X74516Y-44784D01*
X74497Y-44803D01*
X74459Y-44822D01*
X74344Y-44822D01*
X74306Y-44803D01*
X74287Y-44784D01*
G54D19*
X60557Y-45040D02*
X60839Y-45745D01*
X60839Y-45040D02*
X60557Y-45745D01*
X61223Y-45745D02*
X60981Y-45745D01*
X61102Y-45745D02*
X61102Y-45040D01*
X61062Y-45141D01*
X61021Y-45208D01*
X60981Y-45241D01*
G54D10*
X66127Y-40743D02*
X66184Y-40762D01*
X66280Y-40762D01*
X66318Y-40743D01*
X66337Y-40724D01*
X66356Y-40686D01*
X66356Y-40648D01*
X66337Y-40610D01*
X66318Y-40590D01*
X66280Y-40571D01*
X66203Y-40552D01*
X66165Y-40533D01*
X66146Y-40514D01*
X66127Y-40476D01*
X66127Y-40438D01*
X66146Y-40400D01*
X66165Y-40381D01*
X66203Y-40362D01*
X66299Y-40362D01*
X66356Y-40381D01*
X66489Y-40362D02*
X66584Y-40762D01*
X66661Y-40476D01*
X66737Y-40762D01*
X66832Y-40362D01*
X67194Y-40762D02*
X66965Y-40762D01*
X67079Y-40762D02*
X67079Y-40362D01*
X67041Y-40419D01*
X67003Y-40457D01*
X66965Y-40476D01*
G54D11*
X55620Y-45263D02*
X55620Y-45691D01*
X55592Y-45777D01*
X55535Y-45834D01*
X55449Y-45863D01*
X55392Y-45863D01*
X55906Y-45863D02*
X55906Y-45263D01*
X56134Y-45263D01*
X56192Y-45291D01*
X56220Y-45320D01*
X56249Y-45377D01*
X56249Y-45463D01*
X56220Y-45520D01*
X56192Y-45549D01*
X56134Y-45577D01*
X55906Y-45577D01*
X56449Y-45263D02*
X56849Y-45263D01*
X56592Y-45863D01*
X62440Y-39483D02*
X62440Y-39911D01*
X62412Y-39997D01*
X62355Y-40054D01*
X62269Y-40083D01*
X62212Y-40083D01*
X62726Y-40083D02*
X62726Y-39483D01*
X62954Y-39483D01*
X63012Y-39511D01*
X63040Y-39540D01*
X63069Y-39597D01*
X63069Y-39683D01*
X63040Y-39740D01*
X63012Y-39769D01*
X62954Y-39797D01*
X62726Y-39797D01*
X63583Y-39483D02*
X63469Y-39483D01*
X63412Y-39511D01*
X63383Y-39540D01*
X63326Y-39626D01*
X63297Y-39740D01*
X63297Y-39969D01*
X63326Y-40026D01*
X63354Y-40054D01*
X63412Y-40083D01*
X63526Y-40083D01*
X63583Y-40054D01*
X63612Y-40026D01*
X63640Y-39969D01*
X63640Y-39826D01*
X63612Y-39769D01*
X63583Y-39740D01*
X63526Y-39711D01*
X63412Y-39711D01*
X63354Y-39740D01*
X63326Y-39769D01*
X63297Y-39826D01*
X47500Y-38643D02*
X47500Y-39071D01*
X47472Y-39157D01*
X47415Y-39214D01*
X47329Y-39243D01*
X47272Y-39243D01*
X47786Y-39243D02*
X47786Y-38643D01*
X48014Y-38643D01*
X48072Y-38671D01*
X48100Y-38700D01*
X48129Y-38757D01*
X48129Y-38843D01*
X48100Y-38900D01*
X48072Y-38929D01*
X48014Y-38957D01*
X47786Y-38957D01*
X48672Y-38643D02*
X48386Y-38643D01*
X48357Y-38929D01*
X48386Y-38900D01*
X48443Y-38871D01*
X48586Y-38871D01*
X48643Y-38900D01*
X48672Y-38929D01*
X48700Y-38986D01*
X48700Y-39129D01*
X48672Y-39186D01*
X48643Y-39214D01*
X48586Y-39243D01*
X48443Y-39243D01*
X48386Y-39214D01*
X48357Y-39186D01*
X62420Y-45303D02*
X62420Y-45731D01*
X62392Y-45817D01*
X62335Y-45874D01*
X62249Y-45903D01*
X62192Y-45903D01*
X62706Y-45903D02*
X62706Y-45303D01*
X62934Y-45303D01*
X62992Y-45331D01*
X63020Y-45360D01*
X63049Y-45417D01*
X63049Y-45503D01*
X63020Y-45560D01*
X62992Y-45589D01*
X62934Y-45617D01*
X62706Y-45617D01*
X63563Y-45503D02*
X63563Y-45903D01*
X63420Y-45274D02*
X63277Y-45703D01*
X63649Y-45703D01*
M02*
