G04 #@! TF.FileFunction,Copper,L2,Bot,Signal*
%FSLAX46Y46*%
G04 Gerber Fmt 4.6, Leading zero omitted, Abs format (unit mm)*
G04 Created by KiCad (PCBNEW 4.0.5) date 06/03/17 13:20:55*
%MOMM*%
%LPD*%
G01*
G04 APERTURE LIST*
%ADD10C,0.150000*%
%ADD11R,1.800000X1.800000*%
%ADD12C,1.800000*%
%ADD13C,6.350000*%
%ADD14R,1.700000X1.700000*%
%ADD15O,1.700000X1.700000*%
%ADD16C,0.203200*%
G04 APERTURE END LIST*
D10*
D11*
X107000000Y-40016000D03*
D12*
X107000000Y-42556000D03*
D11*
X107000000Y-53016000D03*
D12*
X107000000Y-55556000D03*
D11*
X112000000Y-40016000D03*
D12*
X112000000Y-42556000D03*
D11*
X112000000Y-53016000D03*
D12*
X112000000Y-55556000D03*
D11*
X117000000Y-40016000D03*
D12*
X117000000Y-42556000D03*
D11*
X117000000Y-53016000D03*
D12*
X117000000Y-55556000D03*
D11*
X122000000Y-40016000D03*
D12*
X122000000Y-42556000D03*
D11*
X122000000Y-53016000D03*
D12*
X122000000Y-55556000D03*
D11*
X127000000Y-40016000D03*
D12*
X127000000Y-42556000D03*
D11*
X127000000Y-53016000D03*
D12*
X127000000Y-55556000D03*
D11*
X132000000Y-40016000D03*
D12*
X132000000Y-42556000D03*
D11*
X132000000Y-53016000D03*
D12*
X132000000Y-55556000D03*
D11*
X137000000Y-40016000D03*
D12*
X137000000Y-42556000D03*
D11*
X137000000Y-53016000D03*
D12*
X137000000Y-55556000D03*
D11*
X142000000Y-40016000D03*
D12*
X142000000Y-42556000D03*
D11*
X142000000Y-53016000D03*
D12*
X142000000Y-55556000D03*
D11*
X67000000Y-40016000D03*
D12*
X67000000Y-42556000D03*
D11*
X67000000Y-53016000D03*
D12*
X67000000Y-55556000D03*
D11*
X72000000Y-40016000D03*
D12*
X72000000Y-42556000D03*
D11*
X72000000Y-53016000D03*
D12*
X72000000Y-55556000D03*
D11*
X77000000Y-40016000D03*
D12*
X77000000Y-42556000D03*
D11*
X77000000Y-53016000D03*
D12*
X77000000Y-55556000D03*
D11*
X82000000Y-40016000D03*
D12*
X82000000Y-42556000D03*
D11*
X82000000Y-53016000D03*
D12*
X82000000Y-55556000D03*
D11*
X87000000Y-40016000D03*
D12*
X87000000Y-42556000D03*
D11*
X87000000Y-53016000D03*
D12*
X87000000Y-55556000D03*
D11*
X92000000Y-40016000D03*
D12*
X92000000Y-42556000D03*
D11*
X92000000Y-53016000D03*
D12*
X92000000Y-55556000D03*
D11*
X97000000Y-40016000D03*
D12*
X97000000Y-42556000D03*
D11*
X97000000Y-53016000D03*
D12*
X97000000Y-55556000D03*
D11*
X102000000Y-40016000D03*
D12*
X102000000Y-42556000D03*
D11*
X102000000Y-53016000D03*
D12*
X102000000Y-55556000D03*
D13*
X61000000Y-40000000D03*
X148000000Y-40000000D03*
X61000000Y-77000000D03*
X148000000Y-77000000D03*
D14*
X128500000Y-75016000D03*
D15*
X128500000Y-77556000D03*
X125960000Y-75016000D03*
X125960000Y-77556000D03*
X123420000Y-75016000D03*
X123420000Y-77556000D03*
X120880000Y-75016000D03*
X120880000Y-77556000D03*
X118340000Y-75016000D03*
X118340000Y-77556000D03*
X115800000Y-75016000D03*
X115800000Y-77556000D03*
X113260000Y-75016000D03*
X113260000Y-77556000D03*
X110720000Y-75016000D03*
X110720000Y-77556000D03*
X108180000Y-75016000D03*
X108180000Y-77556000D03*
X105640000Y-75016000D03*
X105640000Y-77556000D03*
X103100000Y-75016000D03*
X103100000Y-77556000D03*
X100560000Y-75016000D03*
X100560000Y-77556000D03*
X98020000Y-75016000D03*
X98020000Y-77556000D03*
X95480000Y-75016000D03*
X95480000Y-77556000D03*
X92940000Y-75016000D03*
X92940000Y-77556000D03*
X90400000Y-75016000D03*
X90400000Y-77556000D03*
X87860000Y-75016000D03*
X87860000Y-77556000D03*
X85320000Y-75016000D03*
X85320000Y-77556000D03*
X82780000Y-75016000D03*
X82780000Y-77556000D03*
X80240000Y-75016000D03*
X80240000Y-77556000D03*
D16*
G36*
X146002688Y-37005157D02*
X145008648Y-37997464D01*
X144470014Y-39294639D01*
X144468788Y-40699199D01*
X145005157Y-41997312D01*
X145997464Y-42991352D01*
X147294639Y-43529986D01*
X148699199Y-43531212D01*
X149997312Y-42994843D01*
X150991352Y-42002536D01*
X151453900Y-40888596D01*
X151453900Y-76113692D01*
X150994843Y-75002688D01*
X150002536Y-74008648D01*
X148705361Y-73470014D01*
X147300801Y-73468788D01*
X146002688Y-74005157D01*
X145008648Y-74997464D01*
X144470014Y-76294639D01*
X144468788Y-77699199D01*
X145005157Y-78997312D01*
X145997464Y-79991352D01*
X147111404Y-80453900D01*
X61886308Y-80453900D01*
X62997312Y-79994843D01*
X63991352Y-79002536D01*
X64435209Y-77933609D01*
X78830079Y-77933609D01*
X79081908Y-78444419D01*
X79510046Y-78819975D01*
X79862393Y-78965910D01*
X80087600Y-78854286D01*
X80087600Y-77708400D01*
X80392400Y-77708400D01*
X80392400Y-78854286D01*
X80617607Y-78965910D01*
X80969954Y-78819975D01*
X81398092Y-78444419D01*
X81510000Y-78217425D01*
X81621908Y-78444419D01*
X82050046Y-78819975D01*
X82402393Y-78965910D01*
X82627600Y-78854286D01*
X82627600Y-77708400D01*
X80392400Y-77708400D01*
X80087600Y-77708400D01*
X78940766Y-77708400D01*
X78830079Y-77933609D01*
X64435209Y-77933609D01*
X64529986Y-77705361D01*
X64531212Y-76300801D01*
X64156369Y-75393609D01*
X78830079Y-75393609D01*
X79081908Y-75904419D01*
X79510046Y-76279975D01*
X79524593Y-76286000D01*
X79510046Y-76292025D01*
X79081908Y-76667581D01*
X78830079Y-77178391D01*
X78940766Y-77403600D01*
X80087600Y-77403600D01*
X80087600Y-75168400D01*
X80392400Y-75168400D01*
X80392400Y-77403600D01*
X82627600Y-77403600D01*
X82627600Y-75168400D01*
X80392400Y-75168400D01*
X80087600Y-75168400D01*
X78940766Y-75168400D01*
X78830079Y-75393609D01*
X64156369Y-75393609D01*
X63994843Y-75002688D01*
X63631182Y-74638391D01*
X78830079Y-74638391D01*
X78940766Y-74863600D01*
X80087600Y-74863600D01*
X80087600Y-73717714D01*
X80392400Y-73717714D01*
X80392400Y-74863600D01*
X82627600Y-74863600D01*
X82627600Y-73717714D01*
X82932400Y-73717714D01*
X82932400Y-74863600D01*
X82952400Y-74863600D01*
X82952400Y-75168400D01*
X82932400Y-75168400D01*
X82932400Y-77403600D01*
X82952400Y-77403600D01*
X82952400Y-77708400D01*
X82932400Y-77708400D01*
X82932400Y-78854286D01*
X83157607Y-78965910D01*
X83509954Y-78819975D01*
X83938092Y-78444419D01*
X84186282Y-77940991D01*
X84206171Y-78040982D01*
X84467512Y-78432107D01*
X84858637Y-78693448D01*
X85320000Y-78785219D01*
X85781363Y-78693448D01*
X86172488Y-78432107D01*
X86433829Y-78040982D01*
X86525600Y-77579619D01*
X86525600Y-77532381D01*
X86654400Y-77532381D01*
X86654400Y-77579619D01*
X86746171Y-78040982D01*
X87007512Y-78432107D01*
X87398637Y-78693448D01*
X87860000Y-78785219D01*
X88321363Y-78693448D01*
X88712488Y-78432107D01*
X88973829Y-78040982D01*
X89065600Y-77579619D01*
X89065600Y-77532381D01*
X89194400Y-77532381D01*
X89194400Y-77579619D01*
X89286171Y-78040982D01*
X89547512Y-78432107D01*
X89938637Y-78693448D01*
X90400000Y-78785219D01*
X90861363Y-78693448D01*
X91252488Y-78432107D01*
X91513829Y-78040982D01*
X91605600Y-77579619D01*
X91605600Y-77532381D01*
X91734400Y-77532381D01*
X91734400Y-77579619D01*
X91826171Y-78040982D01*
X92087512Y-78432107D01*
X92478637Y-78693448D01*
X92940000Y-78785219D01*
X93401363Y-78693448D01*
X93792488Y-78432107D01*
X94053829Y-78040982D01*
X94145600Y-77579619D01*
X94145600Y-77532381D01*
X94274400Y-77532381D01*
X94274400Y-77579619D01*
X94366171Y-78040982D01*
X94627512Y-78432107D01*
X95018637Y-78693448D01*
X95480000Y-78785219D01*
X95941363Y-78693448D01*
X96332488Y-78432107D01*
X96593829Y-78040982D01*
X96685600Y-77579619D01*
X96685600Y-77532381D01*
X96814400Y-77532381D01*
X96814400Y-77579619D01*
X96906171Y-78040982D01*
X97167512Y-78432107D01*
X97558637Y-78693448D01*
X98020000Y-78785219D01*
X98481363Y-78693448D01*
X98872488Y-78432107D01*
X99133829Y-78040982D01*
X99225600Y-77579619D01*
X99225600Y-77532381D01*
X99354400Y-77532381D01*
X99354400Y-77579619D01*
X99446171Y-78040982D01*
X99707512Y-78432107D01*
X100098637Y-78693448D01*
X100560000Y-78785219D01*
X101021363Y-78693448D01*
X101412488Y-78432107D01*
X101673829Y-78040982D01*
X101765600Y-77579619D01*
X101765600Y-77532381D01*
X101894400Y-77532381D01*
X101894400Y-77579619D01*
X101986171Y-78040982D01*
X102247512Y-78432107D01*
X102638637Y-78693448D01*
X103100000Y-78785219D01*
X103561363Y-78693448D01*
X103952488Y-78432107D01*
X104213829Y-78040982D01*
X104305600Y-77579619D01*
X104305600Y-77532381D01*
X104434400Y-77532381D01*
X104434400Y-77579619D01*
X104526171Y-78040982D01*
X104787512Y-78432107D01*
X105178637Y-78693448D01*
X105640000Y-78785219D01*
X106101363Y-78693448D01*
X106492488Y-78432107D01*
X106753829Y-78040982D01*
X106845600Y-77579619D01*
X106845600Y-77532381D01*
X106974400Y-77532381D01*
X106974400Y-77579619D01*
X107066171Y-78040982D01*
X107327512Y-78432107D01*
X107718637Y-78693448D01*
X108180000Y-78785219D01*
X108641363Y-78693448D01*
X109032488Y-78432107D01*
X109293829Y-78040982D01*
X109385600Y-77579619D01*
X109385600Y-77532381D01*
X109514400Y-77532381D01*
X109514400Y-77579619D01*
X109606171Y-78040982D01*
X109867512Y-78432107D01*
X110258637Y-78693448D01*
X110720000Y-78785219D01*
X111181363Y-78693448D01*
X111572488Y-78432107D01*
X111833829Y-78040982D01*
X111925600Y-77579619D01*
X111925600Y-77532381D01*
X112054400Y-77532381D01*
X112054400Y-77579619D01*
X112146171Y-78040982D01*
X112407512Y-78432107D01*
X112798637Y-78693448D01*
X113260000Y-78785219D01*
X113721363Y-78693448D01*
X114112488Y-78432107D01*
X114373829Y-78040982D01*
X114465600Y-77579619D01*
X114465600Y-77532381D01*
X114594400Y-77532381D01*
X114594400Y-77579619D01*
X114686171Y-78040982D01*
X114947512Y-78432107D01*
X115338637Y-78693448D01*
X115800000Y-78785219D01*
X116261363Y-78693448D01*
X116652488Y-78432107D01*
X116913829Y-78040982D01*
X117005600Y-77579619D01*
X117005600Y-77532381D01*
X117134400Y-77532381D01*
X117134400Y-77579619D01*
X117226171Y-78040982D01*
X117487512Y-78432107D01*
X117878637Y-78693448D01*
X118340000Y-78785219D01*
X118801363Y-78693448D01*
X119192488Y-78432107D01*
X119453829Y-78040982D01*
X119545600Y-77579619D01*
X119545600Y-77532381D01*
X119674400Y-77532381D01*
X119674400Y-77579619D01*
X119766171Y-78040982D01*
X120027512Y-78432107D01*
X120418637Y-78693448D01*
X120880000Y-78785219D01*
X121341363Y-78693448D01*
X121732488Y-78432107D01*
X121993829Y-78040982D01*
X122085600Y-77579619D01*
X122085600Y-77532381D01*
X121993829Y-77071018D01*
X121732488Y-76679893D01*
X121341363Y-76418552D01*
X120880000Y-76326781D01*
X120418637Y-76418552D01*
X120027512Y-76679893D01*
X119766171Y-77071018D01*
X119674400Y-77532381D01*
X119545600Y-77532381D01*
X119453829Y-77071018D01*
X119192488Y-76679893D01*
X118801363Y-76418552D01*
X118340000Y-76326781D01*
X117878637Y-76418552D01*
X117487512Y-76679893D01*
X117226171Y-77071018D01*
X117134400Y-77532381D01*
X117005600Y-77532381D01*
X116913829Y-77071018D01*
X116652488Y-76679893D01*
X116261363Y-76418552D01*
X115800000Y-76326781D01*
X115338637Y-76418552D01*
X114947512Y-76679893D01*
X114686171Y-77071018D01*
X114594400Y-77532381D01*
X114465600Y-77532381D01*
X114373829Y-77071018D01*
X114112488Y-76679893D01*
X113721363Y-76418552D01*
X113260000Y-76326781D01*
X112798637Y-76418552D01*
X112407512Y-76679893D01*
X112146171Y-77071018D01*
X112054400Y-77532381D01*
X111925600Y-77532381D01*
X111833829Y-77071018D01*
X111572488Y-76679893D01*
X111181363Y-76418552D01*
X110720000Y-76326781D01*
X110258637Y-76418552D01*
X109867512Y-76679893D01*
X109606171Y-77071018D01*
X109514400Y-77532381D01*
X109385600Y-77532381D01*
X109293829Y-77071018D01*
X109032488Y-76679893D01*
X108641363Y-76418552D01*
X108180000Y-76326781D01*
X107718637Y-76418552D01*
X107327512Y-76679893D01*
X107066171Y-77071018D01*
X106974400Y-77532381D01*
X106845600Y-77532381D01*
X106753829Y-77071018D01*
X106492488Y-76679893D01*
X106101363Y-76418552D01*
X105640000Y-76326781D01*
X105178637Y-76418552D01*
X104787512Y-76679893D01*
X104526171Y-77071018D01*
X104434400Y-77532381D01*
X104305600Y-77532381D01*
X104213829Y-77071018D01*
X103952488Y-76679893D01*
X103561363Y-76418552D01*
X103100000Y-76326781D01*
X102638637Y-76418552D01*
X102247512Y-76679893D01*
X101986171Y-77071018D01*
X101894400Y-77532381D01*
X101765600Y-77532381D01*
X101673829Y-77071018D01*
X101412488Y-76679893D01*
X101021363Y-76418552D01*
X100560000Y-76326781D01*
X100098637Y-76418552D01*
X99707512Y-76679893D01*
X99446171Y-77071018D01*
X99354400Y-77532381D01*
X99225600Y-77532381D01*
X99133829Y-77071018D01*
X98872488Y-76679893D01*
X98481363Y-76418552D01*
X98020000Y-76326781D01*
X97558637Y-76418552D01*
X97167512Y-76679893D01*
X96906171Y-77071018D01*
X96814400Y-77532381D01*
X96685600Y-77532381D01*
X96593829Y-77071018D01*
X96332488Y-76679893D01*
X95941363Y-76418552D01*
X95480000Y-76326781D01*
X95018637Y-76418552D01*
X94627512Y-76679893D01*
X94366171Y-77071018D01*
X94274400Y-77532381D01*
X94145600Y-77532381D01*
X94053829Y-77071018D01*
X93792488Y-76679893D01*
X93401363Y-76418552D01*
X92940000Y-76326781D01*
X92478637Y-76418552D01*
X92087512Y-76679893D01*
X91826171Y-77071018D01*
X91734400Y-77532381D01*
X91605600Y-77532381D01*
X91513829Y-77071018D01*
X91252488Y-76679893D01*
X90861363Y-76418552D01*
X90400000Y-76326781D01*
X89938637Y-76418552D01*
X89547512Y-76679893D01*
X89286171Y-77071018D01*
X89194400Y-77532381D01*
X89065600Y-77532381D01*
X88973829Y-77071018D01*
X88712488Y-76679893D01*
X88321363Y-76418552D01*
X87860000Y-76326781D01*
X87398637Y-76418552D01*
X87007512Y-76679893D01*
X86746171Y-77071018D01*
X86654400Y-77532381D01*
X86525600Y-77532381D01*
X86433829Y-77071018D01*
X86172488Y-76679893D01*
X85781363Y-76418552D01*
X85320000Y-76326781D01*
X84858637Y-76418552D01*
X84467512Y-76679893D01*
X84206171Y-77071018D01*
X84186282Y-77171009D01*
X83938092Y-76667581D01*
X83509954Y-76292025D01*
X83495407Y-76286000D01*
X83509954Y-76279975D01*
X83938092Y-75904419D01*
X84186282Y-75400991D01*
X84206171Y-75500982D01*
X84467512Y-75892107D01*
X84858637Y-76153448D01*
X85320000Y-76245219D01*
X85781363Y-76153448D01*
X86172488Y-75892107D01*
X86433829Y-75500982D01*
X86525600Y-75039619D01*
X86525600Y-74992381D01*
X86654400Y-74992381D01*
X86654400Y-75039619D01*
X86746171Y-75500982D01*
X87007512Y-75892107D01*
X87398637Y-76153448D01*
X87860000Y-76245219D01*
X88321363Y-76153448D01*
X88712488Y-75892107D01*
X88973829Y-75500982D01*
X89065600Y-75039619D01*
X89065600Y-74992381D01*
X89194400Y-74992381D01*
X89194400Y-75039619D01*
X89286171Y-75500982D01*
X89547512Y-75892107D01*
X89938637Y-76153448D01*
X90400000Y-76245219D01*
X90861363Y-76153448D01*
X91252488Y-75892107D01*
X91513829Y-75500982D01*
X91605600Y-75039619D01*
X91605600Y-74992381D01*
X91734400Y-74992381D01*
X91734400Y-75039619D01*
X91826171Y-75500982D01*
X92087512Y-75892107D01*
X92478637Y-76153448D01*
X92940000Y-76245219D01*
X93401363Y-76153448D01*
X93792488Y-75892107D01*
X94053829Y-75500982D01*
X94145600Y-75039619D01*
X94145600Y-74992381D01*
X94274400Y-74992381D01*
X94274400Y-75039619D01*
X94366171Y-75500982D01*
X94627512Y-75892107D01*
X95018637Y-76153448D01*
X95480000Y-76245219D01*
X95941363Y-76153448D01*
X96332488Y-75892107D01*
X96593829Y-75500982D01*
X96685600Y-75039619D01*
X96685600Y-74992381D01*
X96814400Y-74992381D01*
X96814400Y-75039619D01*
X96906171Y-75500982D01*
X97167512Y-75892107D01*
X97558637Y-76153448D01*
X98020000Y-76245219D01*
X98481363Y-76153448D01*
X98872488Y-75892107D01*
X99133829Y-75500982D01*
X99225600Y-75039619D01*
X99225600Y-74992381D01*
X99354400Y-74992381D01*
X99354400Y-75039619D01*
X99446171Y-75500982D01*
X99707512Y-75892107D01*
X100098637Y-76153448D01*
X100560000Y-76245219D01*
X101021363Y-76153448D01*
X101412488Y-75892107D01*
X101673829Y-75500982D01*
X101765600Y-75039619D01*
X101765600Y-74992381D01*
X101894400Y-74992381D01*
X101894400Y-75039619D01*
X101986171Y-75500982D01*
X102247512Y-75892107D01*
X102638637Y-76153448D01*
X103100000Y-76245219D01*
X103561363Y-76153448D01*
X103952488Y-75892107D01*
X104213829Y-75500982D01*
X104305600Y-75039619D01*
X104305600Y-74992381D01*
X104434400Y-74992381D01*
X104434400Y-75039619D01*
X104526171Y-75500982D01*
X104787512Y-75892107D01*
X105178637Y-76153448D01*
X105640000Y-76245219D01*
X106101363Y-76153448D01*
X106492488Y-75892107D01*
X106753829Y-75500982D01*
X106845600Y-75039619D01*
X106845600Y-74992381D01*
X106974400Y-74992381D01*
X106974400Y-75039619D01*
X107066171Y-75500982D01*
X107327512Y-75892107D01*
X107718637Y-76153448D01*
X108180000Y-76245219D01*
X108641363Y-76153448D01*
X109032488Y-75892107D01*
X109293829Y-75500982D01*
X109385600Y-75039619D01*
X109385600Y-74992381D01*
X109514400Y-74992381D01*
X109514400Y-75039619D01*
X109606171Y-75500982D01*
X109867512Y-75892107D01*
X110258637Y-76153448D01*
X110720000Y-76245219D01*
X111181363Y-76153448D01*
X111572488Y-75892107D01*
X111833829Y-75500982D01*
X111925600Y-75039619D01*
X111925600Y-74992381D01*
X112054400Y-74992381D01*
X112054400Y-75039619D01*
X112146171Y-75500982D01*
X112407512Y-75892107D01*
X112798637Y-76153448D01*
X113260000Y-76245219D01*
X113721363Y-76153448D01*
X114112488Y-75892107D01*
X114373829Y-75500982D01*
X114465600Y-75039619D01*
X114465600Y-74992381D01*
X114594400Y-74992381D01*
X114594400Y-75039619D01*
X114686171Y-75500982D01*
X114947512Y-75892107D01*
X115338637Y-76153448D01*
X115800000Y-76245219D01*
X116261363Y-76153448D01*
X116652488Y-75892107D01*
X116913829Y-75500982D01*
X117005600Y-75039619D01*
X117005600Y-74992381D01*
X117134400Y-74992381D01*
X117134400Y-75039619D01*
X117226171Y-75500982D01*
X117487512Y-75892107D01*
X117878637Y-76153448D01*
X118340000Y-76245219D01*
X118801363Y-76153448D01*
X119192488Y-75892107D01*
X119453829Y-75500982D01*
X119545600Y-75039619D01*
X119545600Y-74992381D01*
X119674400Y-74992381D01*
X119674400Y-75039619D01*
X119766171Y-75500982D01*
X120027512Y-75892107D01*
X120418637Y-76153448D01*
X120880000Y-76245219D01*
X121341363Y-76153448D01*
X121732488Y-75892107D01*
X121993829Y-75500982D01*
X122085600Y-75039619D01*
X122085600Y-74992381D01*
X122214400Y-74992381D01*
X122214400Y-75039619D01*
X122306171Y-75500982D01*
X122567512Y-75892107D01*
X122958637Y-76153448D01*
X123420000Y-76245219D01*
X123881363Y-76153448D01*
X124272488Y-75892107D01*
X124533829Y-75500982D01*
X124553718Y-75400991D01*
X124801908Y-75904419D01*
X125230046Y-76279975D01*
X125244593Y-76286000D01*
X125230046Y-76292025D01*
X124801908Y-76667581D01*
X124553718Y-77171009D01*
X124533829Y-77071018D01*
X124272488Y-76679893D01*
X123881363Y-76418552D01*
X123420000Y-76326781D01*
X122958637Y-76418552D01*
X122567512Y-76679893D01*
X122306171Y-77071018D01*
X122214400Y-77532381D01*
X122214400Y-77579619D01*
X122306171Y-78040982D01*
X122567512Y-78432107D01*
X122958637Y-78693448D01*
X123420000Y-78785219D01*
X123881363Y-78693448D01*
X124272488Y-78432107D01*
X124533829Y-78040982D01*
X124553718Y-77940991D01*
X124801908Y-78444419D01*
X125230046Y-78819975D01*
X125582393Y-78965910D01*
X125807600Y-78854286D01*
X125807600Y-77708400D01*
X126112400Y-77708400D01*
X126112400Y-78854286D01*
X126337607Y-78965910D01*
X126689954Y-78819975D01*
X127118092Y-78444419D01*
X127230000Y-78217425D01*
X127341908Y-78444419D01*
X127770046Y-78819975D01*
X128122393Y-78965910D01*
X128347600Y-78854286D01*
X128347600Y-77708400D01*
X128652400Y-77708400D01*
X128652400Y-78854286D01*
X128877607Y-78965910D01*
X129229954Y-78819975D01*
X129658092Y-78444419D01*
X129909921Y-77933609D01*
X129799234Y-77708400D01*
X128652400Y-77708400D01*
X128347600Y-77708400D01*
X126112400Y-77708400D01*
X125807600Y-77708400D01*
X125787600Y-77708400D01*
X125787600Y-77403600D01*
X125807600Y-77403600D01*
X125807600Y-75168400D01*
X126112400Y-75168400D01*
X126112400Y-77403600D01*
X128347600Y-77403600D01*
X128347600Y-75168400D01*
X128652400Y-75168400D01*
X128652400Y-77403600D01*
X129799234Y-77403600D01*
X129909921Y-77178391D01*
X129658092Y-76667581D01*
X129439232Y-76475600D01*
X129471257Y-76475600D01*
X129695311Y-76382794D01*
X129866794Y-76211311D01*
X129959600Y-75987257D01*
X129959600Y-75320800D01*
X129807200Y-75168400D01*
X128652400Y-75168400D01*
X128347600Y-75168400D01*
X126112400Y-75168400D01*
X125807600Y-75168400D01*
X125787600Y-75168400D01*
X125787600Y-74863600D01*
X125807600Y-74863600D01*
X125807600Y-73717714D01*
X126112400Y-73717714D01*
X126112400Y-74863600D01*
X128347600Y-74863600D01*
X128347600Y-73708800D01*
X128652400Y-73708800D01*
X128652400Y-74863600D01*
X129807200Y-74863600D01*
X129959600Y-74711200D01*
X129959600Y-74044743D01*
X129866794Y-73820689D01*
X129695311Y-73649206D01*
X129471257Y-73556400D01*
X128804800Y-73556400D01*
X128652400Y-73708800D01*
X128347600Y-73708800D01*
X128195200Y-73556400D01*
X127528743Y-73556400D01*
X127304689Y-73649206D01*
X127133206Y-73820689D01*
X127040400Y-74044743D01*
X127040400Y-74059431D01*
X126689954Y-73752025D01*
X126337607Y-73606090D01*
X126112400Y-73717714D01*
X125807600Y-73717714D01*
X125582393Y-73606090D01*
X125230046Y-73752025D01*
X124801908Y-74127581D01*
X124553718Y-74631009D01*
X124533829Y-74531018D01*
X124272488Y-74139893D01*
X123881363Y-73878552D01*
X123420000Y-73786781D01*
X122958637Y-73878552D01*
X122567512Y-74139893D01*
X122306171Y-74531018D01*
X122214400Y-74992381D01*
X122085600Y-74992381D01*
X121993829Y-74531018D01*
X121732488Y-74139893D01*
X121341363Y-73878552D01*
X120880000Y-73786781D01*
X120418637Y-73878552D01*
X120027512Y-74139893D01*
X119766171Y-74531018D01*
X119674400Y-74992381D01*
X119545600Y-74992381D01*
X119453829Y-74531018D01*
X119192488Y-74139893D01*
X118801363Y-73878552D01*
X118340000Y-73786781D01*
X117878637Y-73878552D01*
X117487512Y-74139893D01*
X117226171Y-74531018D01*
X117134400Y-74992381D01*
X117005600Y-74992381D01*
X116913829Y-74531018D01*
X116652488Y-74139893D01*
X116261363Y-73878552D01*
X115800000Y-73786781D01*
X115338637Y-73878552D01*
X114947512Y-74139893D01*
X114686171Y-74531018D01*
X114594400Y-74992381D01*
X114465600Y-74992381D01*
X114373829Y-74531018D01*
X114112488Y-74139893D01*
X113721363Y-73878552D01*
X113260000Y-73786781D01*
X112798637Y-73878552D01*
X112407512Y-74139893D01*
X112146171Y-74531018D01*
X112054400Y-74992381D01*
X111925600Y-74992381D01*
X111833829Y-74531018D01*
X111572488Y-74139893D01*
X111181363Y-73878552D01*
X110720000Y-73786781D01*
X110258637Y-73878552D01*
X109867512Y-74139893D01*
X109606171Y-74531018D01*
X109514400Y-74992381D01*
X109385600Y-74992381D01*
X109293829Y-74531018D01*
X109032488Y-74139893D01*
X108641363Y-73878552D01*
X108180000Y-73786781D01*
X107718637Y-73878552D01*
X107327512Y-74139893D01*
X107066171Y-74531018D01*
X106974400Y-74992381D01*
X106845600Y-74992381D01*
X106753829Y-74531018D01*
X106492488Y-74139893D01*
X106101363Y-73878552D01*
X105640000Y-73786781D01*
X105178637Y-73878552D01*
X104787512Y-74139893D01*
X104526171Y-74531018D01*
X104434400Y-74992381D01*
X104305600Y-74992381D01*
X104213829Y-74531018D01*
X103952488Y-74139893D01*
X103561363Y-73878552D01*
X103100000Y-73786781D01*
X102638637Y-73878552D01*
X102247512Y-74139893D01*
X101986171Y-74531018D01*
X101894400Y-74992381D01*
X101765600Y-74992381D01*
X101673829Y-74531018D01*
X101412488Y-74139893D01*
X101021363Y-73878552D01*
X100560000Y-73786781D01*
X100098637Y-73878552D01*
X99707512Y-74139893D01*
X99446171Y-74531018D01*
X99354400Y-74992381D01*
X99225600Y-74992381D01*
X99133829Y-74531018D01*
X98872488Y-74139893D01*
X98481363Y-73878552D01*
X98020000Y-73786781D01*
X97558637Y-73878552D01*
X97167512Y-74139893D01*
X96906171Y-74531018D01*
X96814400Y-74992381D01*
X96685600Y-74992381D01*
X96593829Y-74531018D01*
X96332488Y-74139893D01*
X95941363Y-73878552D01*
X95480000Y-73786781D01*
X95018637Y-73878552D01*
X94627512Y-74139893D01*
X94366171Y-74531018D01*
X94274400Y-74992381D01*
X94145600Y-74992381D01*
X94053829Y-74531018D01*
X93792488Y-74139893D01*
X93401363Y-73878552D01*
X92940000Y-73786781D01*
X92478637Y-73878552D01*
X92087512Y-74139893D01*
X91826171Y-74531018D01*
X91734400Y-74992381D01*
X91605600Y-74992381D01*
X91513829Y-74531018D01*
X91252488Y-74139893D01*
X90861363Y-73878552D01*
X90400000Y-73786781D01*
X89938637Y-73878552D01*
X89547512Y-74139893D01*
X89286171Y-74531018D01*
X89194400Y-74992381D01*
X89065600Y-74992381D01*
X88973829Y-74531018D01*
X88712488Y-74139893D01*
X88321363Y-73878552D01*
X87860000Y-73786781D01*
X87398637Y-73878552D01*
X87007512Y-74139893D01*
X86746171Y-74531018D01*
X86654400Y-74992381D01*
X86525600Y-74992381D01*
X86433829Y-74531018D01*
X86172488Y-74139893D01*
X85781363Y-73878552D01*
X85320000Y-73786781D01*
X84858637Y-73878552D01*
X84467512Y-74139893D01*
X84206171Y-74531018D01*
X84186282Y-74631009D01*
X83938092Y-74127581D01*
X83509954Y-73752025D01*
X83157607Y-73606090D01*
X82932400Y-73717714D01*
X82627600Y-73717714D01*
X82402393Y-73606090D01*
X82050046Y-73752025D01*
X81621908Y-74127581D01*
X81510000Y-74354575D01*
X81398092Y-74127581D01*
X80969954Y-73752025D01*
X80617607Y-73606090D01*
X80392400Y-73717714D01*
X80087600Y-73717714D01*
X79862393Y-73606090D01*
X79510046Y-73752025D01*
X79081908Y-74127581D01*
X78830079Y-74638391D01*
X63631182Y-74638391D01*
X63002536Y-74008648D01*
X61705361Y-73470014D01*
X60300801Y-73468788D01*
X59002688Y-74005157D01*
X58008648Y-74997464D01*
X57546100Y-76111404D01*
X57546100Y-53320800D01*
X65490400Y-53320800D01*
X65490400Y-54037257D01*
X65583206Y-54261311D01*
X65754689Y-54432794D01*
X65978743Y-54525600D01*
X66254961Y-54525600D01*
X65936175Y-54843831D01*
X65744618Y-55305150D01*
X65744182Y-55804659D01*
X65934933Y-56266311D01*
X66287831Y-56619825D01*
X66749150Y-56811382D01*
X67248659Y-56811818D01*
X67710311Y-56621067D01*
X68063825Y-56268169D01*
X68255382Y-55806850D01*
X68255818Y-55307341D01*
X68065067Y-54845689D01*
X67745536Y-54525600D01*
X68021257Y-54525600D01*
X68245311Y-54432794D01*
X68416794Y-54261311D01*
X68509600Y-54037257D01*
X68509600Y-53320800D01*
X70490400Y-53320800D01*
X70490400Y-54037257D01*
X70583206Y-54261311D01*
X70754689Y-54432794D01*
X70978743Y-54525600D01*
X71254961Y-54525600D01*
X70936175Y-54843831D01*
X70744618Y-55305150D01*
X70744182Y-55804659D01*
X70934933Y-56266311D01*
X71287831Y-56619825D01*
X71749150Y-56811382D01*
X72248659Y-56811818D01*
X72710311Y-56621067D01*
X73063825Y-56268169D01*
X73255382Y-55806850D01*
X73255818Y-55307341D01*
X73065067Y-54845689D01*
X72745536Y-54525600D01*
X73021257Y-54525600D01*
X73245311Y-54432794D01*
X73416794Y-54261311D01*
X73509600Y-54037257D01*
X73509600Y-53320800D01*
X75490400Y-53320800D01*
X75490400Y-54037257D01*
X75583206Y-54261311D01*
X75754689Y-54432794D01*
X75978743Y-54525600D01*
X76254961Y-54525600D01*
X75936175Y-54843831D01*
X75744618Y-55305150D01*
X75744182Y-55804659D01*
X75934933Y-56266311D01*
X76287831Y-56619825D01*
X76749150Y-56811382D01*
X77248659Y-56811818D01*
X77710311Y-56621067D01*
X78063825Y-56268169D01*
X78255382Y-55806850D01*
X78255818Y-55307341D01*
X78065067Y-54845689D01*
X77745536Y-54525600D01*
X78021257Y-54525600D01*
X78245311Y-54432794D01*
X78416794Y-54261311D01*
X78509600Y-54037257D01*
X78509600Y-53320800D01*
X80490400Y-53320800D01*
X80490400Y-54037257D01*
X80583206Y-54261311D01*
X80754689Y-54432794D01*
X80978743Y-54525600D01*
X81254961Y-54525600D01*
X80936175Y-54843831D01*
X80744618Y-55305150D01*
X80744182Y-55804659D01*
X80934933Y-56266311D01*
X81287831Y-56619825D01*
X81749150Y-56811382D01*
X82248659Y-56811818D01*
X82710311Y-56621067D01*
X83063825Y-56268169D01*
X83255382Y-55806850D01*
X83255818Y-55307341D01*
X83065067Y-54845689D01*
X82745536Y-54525600D01*
X83021257Y-54525600D01*
X83245311Y-54432794D01*
X83416794Y-54261311D01*
X83509600Y-54037257D01*
X83509600Y-53320800D01*
X85490400Y-53320800D01*
X85490400Y-54037257D01*
X85583206Y-54261311D01*
X85754689Y-54432794D01*
X85978743Y-54525600D01*
X86254961Y-54525600D01*
X85936175Y-54843831D01*
X85744618Y-55305150D01*
X85744182Y-55804659D01*
X85934933Y-56266311D01*
X86287831Y-56619825D01*
X86749150Y-56811382D01*
X87248659Y-56811818D01*
X87710311Y-56621067D01*
X88063825Y-56268169D01*
X88255382Y-55806850D01*
X88255818Y-55307341D01*
X88065067Y-54845689D01*
X87745536Y-54525600D01*
X88021257Y-54525600D01*
X88245311Y-54432794D01*
X88416794Y-54261311D01*
X88509600Y-54037257D01*
X88509600Y-53320800D01*
X90490400Y-53320800D01*
X90490400Y-54037257D01*
X90583206Y-54261311D01*
X90754689Y-54432794D01*
X90978743Y-54525600D01*
X91254961Y-54525600D01*
X90936175Y-54843831D01*
X90744618Y-55305150D01*
X90744182Y-55804659D01*
X90934933Y-56266311D01*
X91287831Y-56619825D01*
X91749150Y-56811382D01*
X92248659Y-56811818D01*
X92710311Y-56621067D01*
X93063825Y-56268169D01*
X93255382Y-55806850D01*
X93255818Y-55307341D01*
X93065067Y-54845689D01*
X92745536Y-54525600D01*
X93021257Y-54525600D01*
X93245311Y-54432794D01*
X93416794Y-54261311D01*
X93509600Y-54037257D01*
X93509600Y-53320800D01*
X95490400Y-53320800D01*
X95490400Y-54037257D01*
X95583206Y-54261311D01*
X95754689Y-54432794D01*
X95978743Y-54525600D01*
X96254961Y-54525600D01*
X95936175Y-54843831D01*
X95744618Y-55305150D01*
X95744182Y-55804659D01*
X95934933Y-56266311D01*
X96287831Y-56619825D01*
X96749150Y-56811382D01*
X97248659Y-56811818D01*
X97710311Y-56621067D01*
X98063825Y-56268169D01*
X98255382Y-55806850D01*
X98255818Y-55307341D01*
X98065067Y-54845689D01*
X97745536Y-54525600D01*
X98021257Y-54525600D01*
X98245311Y-54432794D01*
X98416794Y-54261311D01*
X98509600Y-54037257D01*
X98509600Y-53320800D01*
X100490400Y-53320800D01*
X100490400Y-54037257D01*
X100583206Y-54261311D01*
X100754689Y-54432794D01*
X100978743Y-54525600D01*
X101254961Y-54525600D01*
X100936175Y-54843831D01*
X100744618Y-55305150D01*
X100744182Y-55804659D01*
X100934933Y-56266311D01*
X101287831Y-56619825D01*
X101749150Y-56811382D01*
X102248659Y-56811818D01*
X102710311Y-56621067D01*
X103063825Y-56268169D01*
X103255382Y-55806850D01*
X103255818Y-55307341D01*
X103065067Y-54845689D01*
X102745536Y-54525600D01*
X103021257Y-54525600D01*
X103245311Y-54432794D01*
X103416794Y-54261311D01*
X103509600Y-54037257D01*
X103509600Y-53320800D01*
X105490400Y-53320800D01*
X105490400Y-54037257D01*
X105583206Y-54261311D01*
X105754689Y-54432794D01*
X105978743Y-54525600D01*
X106254961Y-54525600D01*
X105936175Y-54843831D01*
X105744618Y-55305150D01*
X105744182Y-55804659D01*
X105934933Y-56266311D01*
X106287831Y-56619825D01*
X106749150Y-56811382D01*
X107248659Y-56811818D01*
X107710311Y-56621067D01*
X108063825Y-56268169D01*
X108255382Y-55806850D01*
X108255818Y-55307341D01*
X108065067Y-54845689D01*
X107745536Y-54525600D01*
X108021257Y-54525600D01*
X108245311Y-54432794D01*
X108416794Y-54261311D01*
X108509600Y-54037257D01*
X108509600Y-53320800D01*
X110490400Y-53320800D01*
X110490400Y-54037257D01*
X110583206Y-54261311D01*
X110754689Y-54432794D01*
X110978743Y-54525600D01*
X111254961Y-54525600D01*
X110936175Y-54843831D01*
X110744618Y-55305150D01*
X110744182Y-55804659D01*
X110934933Y-56266311D01*
X111287831Y-56619825D01*
X111749150Y-56811382D01*
X112248659Y-56811818D01*
X112710311Y-56621067D01*
X113063825Y-56268169D01*
X113255382Y-55806850D01*
X113255818Y-55307341D01*
X113065067Y-54845689D01*
X112745536Y-54525600D01*
X113021257Y-54525600D01*
X113245311Y-54432794D01*
X113416794Y-54261311D01*
X113509600Y-54037257D01*
X113509600Y-53320800D01*
X115490400Y-53320800D01*
X115490400Y-54037257D01*
X115583206Y-54261311D01*
X115754689Y-54432794D01*
X115978743Y-54525600D01*
X116254961Y-54525600D01*
X115936175Y-54843831D01*
X115744618Y-55305150D01*
X115744182Y-55804659D01*
X115934933Y-56266311D01*
X116287831Y-56619825D01*
X116749150Y-56811382D01*
X117248659Y-56811818D01*
X117710311Y-56621067D01*
X118063825Y-56268169D01*
X118255382Y-55806850D01*
X118255818Y-55307341D01*
X118065067Y-54845689D01*
X117745536Y-54525600D01*
X118021257Y-54525600D01*
X118245311Y-54432794D01*
X118416794Y-54261311D01*
X118509600Y-54037257D01*
X118509600Y-53320800D01*
X120490400Y-53320800D01*
X120490400Y-54037257D01*
X120583206Y-54261311D01*
X120754689Y-54432794D01*
X120978743Y-54525600D01*
X121254961Y-54525600D01*
X120936175Y-54843831D01*
X120744618Y-55305150D01*
X120744182Y-55804659D01*
X120934933Y-56266311D01*
X121287831Y-56619825D01*
X121749150Y-56811382D01*
X122248659Y-56811818D01*
X122710311Y-56621067D01*
X123063825Y-56268169D01*
X123255382Y-55806850D01*
X123255818Y-55307341D01*
X123065067Y-54845689D01*
X122745536Y-54525600D01*
X123021257Y-54525600D01*
X123245311Y-54432794D01*
X123416794Y-54261311D01*
X123509600Y-54037257D01*
X123509600Y-53320800D01*
X125490400Y-53320800D01*
X125490400Y-54037257D01*
X125583206Y-54261311D01*
X125754689Y-54432794D01*
X125978743Y-54525600D01*
X126254961Y-54525600D01*
X125936175Y-54843831D01*
X125744618Y-55305150D01*
X125744182Y-55804659D01*
X125934933Y-56266311D01*
X126287831Y-56619825D01*
X126749150Y-56811382D01*
X127248659Y-56811818D01*
X127710311Y-56621067D01*
X128063825Y-56268169D01*
X128255382Y-55806850D01*
X128255818Y-55307341D01*
X128065067Y-54845689D01*
X127745536Y-54525600D01*
X128021257Y-54525600D01*
X128245311Y-54432794D01*
X128416794Y-54261311D01*
X128509600Y-54037257D01*
X128509600Y-53320800D01*
X130490400Y-53320800D01*
X130490400Y-54037257D01*
X130583206Y-54261311D01*
X130754689Y-54432794D01*
X130978743Y-54525600D01*
X131254961Y-54525600D01*
X130936175Y-54843831D01*
X130744618Y-55305150D01*
X130744182Y-55804659D01*
X130934933Y-56266311D01*
X131287831Y-56619825D01*
X131749150Y-56811382D01*
X132248659Y-56811818D01*
X132710311Y-56621067D01*
X133063825Y-56268169D01*
X133255382Y-55806850D01*
X133255818Y-55307341D01*
X133065067Y-54845689D01*
X132745536Y-54525600D01*
X133021257Y-54525600D01*
X133245311Y-54432794D01*
X133416794Y-54261311D01*
X133509600Y-54037257D01*
X133509600Y-53320800D01*
X135490400Y-53320800D01*
X135490400Y-54037257D01*
X135583206Y-54261311D01*
X135754689Y-54432794D01*
X135978743Y-54525600D01*
X136254961Y-54525600D01*
X135936175Y-54843831D01*
X135744618Y-55305150D01*
X135744182Y-55804659D01*
X135934933Y-56266311D01*
X136287831Y-56619825D01*
X136749150Y-56811382D01*
X137248659Y-56811818D01*
X137710311Y-56621067D01*
X138063825Y-56268169D01*
X138255382Y-55806850D01*
X138255818Y-55307341D01*
X138065067Y-54845689D01*
X137745536Y-54525600D01*
X138021257Y-54525600D01*
X138245311Y-54432794D01*
X138416794Y-54261311D01*
X138509600Y-54037257D01*
X138509600Y-53320800D01*
X140490400Y-53320800D01*
X140490400Y-54037257D01*
X140583206Y-54261311D01*
X140754689Y-54432794D01*
X140978743Y-54525600D01*
X141254961Y-54525600D01*
X140936175Y-54843831D01*
X140744618Y-55305150D01*
X140744182Y-55804659D01*
X140934933Y-56266311D01*
X141287831Y-56619825D01*
X141749150Y-56811382D01*
X142248659Y-56811818D01*
X142710311Y-56621067D01*
X143063825Y-56268169D01*
X143255382Y-55806850D01*
X143255818Y-55307341D01*
X143065067Y-54845689D01*
X142745536Y-54525600D01*
X143021257Y-54525600D01*
X143245311Y-54432794D01*
X143416794Y-54261311D01*
X143509600Y-54037257D01*
X143509600Y-53320800D01*
X143357200Y-53168400D01*
X142152400Y-53168400D01*
X142152400Y-53188400D01*
X141847600Y-53188400D01*
X141847600Y-53168400D01*
X140642800Y-53168400D01*
X140490400Y-53320800D01*
X138509600Y-53320800D01*
X138357200Y-53168400D01*
X137152400Y-53168400D01*
X137152400Y-53188400D01*
X136847600Y-53188400D01*
X136847600Y-53168400D01*
X135642800Y-53168400D01*
X135490400Y-53320800D01*
X133509600Y-53320800D01*
X133357200Y-53168400D01*
X132152400Y-53168400D01*
X132152400Y-53188400D01*
X131847600Y-53188400D01*
X131847600Y-53168400D01*
X130642800Y-53168400D01*
X130490400Y-53320800D01*
X128509600Y-53320800D01*
X128357200Y-53168400D01*
X127152400Y-53168400D01*
X127152400Y-53188400D01*
X126847600Y-53188400D01*
X126847600Y-53168400D01*
X125642800Y-53168400D01*
X125490400Y-53320800D01*
X123509600Y-53320800D01*
X123357200Y-53168400D01*
X122152400Y-53168400D01*
X122152400Y-53188400D01*
X121847600Y-53188400D01*
X121847600Y-53168400D01*
X120642800Y-53168400D01*
X120490400Y-53320800D01*
X118509600Y-53320800D01*
X118357200Y-53168400D01*
X117152400Y-53168400D01*
X117152400Y-53188400D01*
X116847600Y-53188400D01*
X116847600Y-53168400D01*
X115642800Y-53168400D01*
X115490400Y-53320800D01*
X113509600Y-53320800D01*
X113357200Y-53168400D01*
X112152400Y-53168400D01*
X112152400Y-53188400D01*
X111847600Y-53188400D01*
X111847600Y-53168400D01*
X110642800Y-53168400D01*
X110490400Y-53320800D01*
X108509600Y-53320800D01*
X108357200Y-53168400D01*
X107152400Y-53168400D01*
X107152400Y-53188400D01*
X106847600Y-53188400D01*
X106847600Y-53168400D01*
X105642800Y-53168400D01*
X105490400Y-53320800D01*
X103509600Y-53320800D01*
X103357200Y-53168400D01*
X102152400Y-53168400D01*
X102152400Y-53188400D01*
X101847600Y-53188400D01*
X101847600Y-53168400D01*
X100642800Y-53168400D01*
X100490400Y-53320800D01*
X98509600Y-53320800D01*
X98357200Y-53168400D01*
X97152400Y-53168400D01*
X97152400Y-53188400D01*
X96847600Y-53188400D01*
X96847600Y-53168400D01*
X95642800Y-53168400D01*
X95490400Y-53320800D01*
X93509600Y-53320800D01*
X93357200Y-53168400D01*
X92152400Y-53168400D01*
X92152400Y-53188400D01*
X91847600Y-53188400D01*
X91847600Y-53168400D01*
X90642800Y-53168400D01*
X90490400Y-53320800D01*
X88509600Y-53320800D01*
X88357200Y-53168400D01*
X87152400Y-53168400D01*
X87152400Y-53188400D01*
X86847600Y-53188400D01*
X86847600Y-53168400D01*
X85642800Y-53168400D01*
X85490400Y-53320800D01*
X83509600Y-53320800D01*
X83357200Y-53168400D01*
X82152400Y-53168400D01*
X82152400Y-53188400D01*
X81847600Y-53188400D01*
X81847600Y-53168400D01*
X80642800Y-53168400D01*
X80490400Y-53320800D01*
X78509600Y-53320800D01*
X78357200Y-53168400D01*
X77152400Y-53168400D01*
X77152400Y-53188400D01*
X76847600Y-53188400D01*
X76847600Y-53168400D01*
X75642800Y-53168400D01*
X75490400Y-53320800D01*
X73509600Y-53320800D01*
X73357200Y-53168400D01*
X72152400Y-53168400D01*
X72152400Y-53188400D01*
X71847600Y-53188400D01*
X71847600Y-53168400D01*
X70642800Y-53168400D01*
X70490400Y-53320800D01*
X68509600Y-53320800D01*
X68357200Y-53168400D01*
X67152400Y-53168400D01*
X67152400Y-53188400D01*
X66847600Y-53188400D01*
X66847600Y-53168400D01*
X65642800Y-53168400D01*
X65490400Y-53320800D01*
X57546100Y-53320800D01*
X57546100Y-51994743D01*
X65490400Y-51994743D01*
X65490400Y-52711200D01*
X65642800Y-52863600D01*
X66847600Y-52863600D01*
X66847600Y-51658800D01*
X67152400Y-51658800D01*
X67152400Y-52863600D01*
X68357200Y-52863600D01*
X68509600Y-52711200D01*
X68509600Y-51994743D01*
X70490400Y-51994743D01*
X70490400Y-52711200D01*
X70642800Y-52863600D01*
X71847600Y-52863600D01*
X71847600Y-51658800D01*
X72152400Y-51658800D01*
X72152400Y-52863600D01*
X73357200Y-52863600D01*
X73509600Y-52711200D01*
X73509600Y-51994743D01*
X75490400Y-51994743D01*
X75490400Y-52711200D01*
X75642800Y-52863600D01*
X76847600Y-52863600D01*
X76847600Y-51658800D01*
X77152400Y-51658800D01*
X77152400Y-52863600D01*
X78357200Y-52863600D01*
X78509600Y-52711200D01*
X78509600Y-51994743D01*
X80490400Y-51994743D01*
X80490400Y-52711200D01*
X80642800Y-52863600D01*
X81847600Y-52863600D01*
X81847600Y-51658800D01*
X82152400Y-51658800D01*
X82152400Y-52863600D01*
X83357200Y-52863600D01*
X83509600Y-52711200D01*
X83509600Y-51994743D01*
X85490400Y-51994743D01*
X85490400Y-52711200D01*
X85642800Y-52863600D01*
X86847600Y-52863600D01*
X86847600Y-51658800D01*
X87152400Y-51658800D01*
X87152400Y-52863600D01*
X88357200Y-52863600D01*
X88509600Y-52711200D01*
X88509600Y-51994743D01*
X90490400Y-51994743D01*
X90490400Y-52711200D01*
X90642800Y-52863600D01*
X91847600Y-52863600D01*
X91847600Y-51658800D01*
X92152400Y-51658800D01*
X92152400Y-52863600D01*
X93357200Y-52863600D01*
X93509600Y-52711200D01*
X93509600Y-51994743D01*
X95490400Y-51994743D01*
X95490400Y-52711200D01*
X95642800Y-52863600D01*
X96847600Y-52863600D01*
X96847600Y-51658800D01*
X97152400Y-51658800D01*
X97152400Y-52863600D01*
X98357200Y-52863600D01*
X98509600Y-52711200D01*
X98509600Y-51994743D01*
X100490400Y-51994743D01*
X100490400Y-52711200D01*
X100642800Y-52863600D01*
X101847600Y-52863600D01*
X101847600Y-51658800D01*
X102152400Y-51658800D01*
X102152400Y-52863600D01*
X103357200Y-52863600D01*
X103509600Y-52711200D01*
X103509600Y-51994743D01*
X105490400Y-51994743D01*
X105490400Y-52711200D01*
X105642800Y-52863600D01*
X106847600Y-52863600D01*
X106847600Y-51658800D01*
X107152400Y-51658800D01*
X107152400Y-52863600D01*
X108357200Y-52863600D01*
X108509600Y-52711200D01*
X108509600Y-51994743D01*
X110490400Y-51994743D01*
X110490400Y-52711200D01*
X110642800Y-52863600D01*
X111847600Y-52863600D01*
X111847600Y-51658800D01*
X112152400Y-51658800D01*
X112152400Y-52863600D01*
X113357200Y-52863600D01*
X113509600Y-52711200D01*
X113509600Y-51994743D01*
X115490400Y-51994743D01*
X115490400Y-52711200D01*
X115642800Y-52863600D01*
X116847600Y-52863600D01*
X116847600Y-51658800D01*
X117152400Y-51658800D01*
X117152400Y-52863600D01*
X118357200Y-52863600D01*
X118509600Y-52711200D01*
X118509600Y-51994743D01*
X120490400Y-51994743D01*
X120490400Y-52711200D01*
X120642800Y-52863600D01*
X121847600Y-52863600D01*
X121847600Y-51658800D01*
X122152400Y-51658800D01*
X122152400Y-52863600D01*
X123357200Y-52863600D01*
X123509600Y-52711200D01*
X123509600Y-51994743D01*
X125490400Y-51994743D01*
X125490400Y-52711200D01*
X125642800Y-52863600D01*
X126847600Y-52863600D01*
X126847600Y-51658800D01*
X127152400Y-51658800D01*
X127152400Y-52863600D01*
X128357200Y-52863600D01*
X128509600Y-52711200D01*
X128509600Y-51994743D01*
X130490400Y-51994743D01*
X130490400Y-52711200D01*
X130642800Y-52863600D01*
X131847600Y-52863600D01*
X131847600Y-51658800D01*
X132152400Y-51658800D01*
X132152400Y-52863600D01*
X133357200Y-52863600D01*
X133509600Y-52711200D01*
X133509600Y-51994743D01*
X135490400Y-51994743D01*
X135490400Y-52711200D01*
X135642800Y-52863600D01*
X136847600Y-52863600D01*
X136847600Y-51658800D01*
X137152400Y-51658800D01*
X137152400Y-52863600D01*
X138357200Y-52863600D01*
X138509600Y-52711200D01*
X138509600Y-51994743D01*
X140490400Y-51994743D01*
X140490400Y-52711200D01*
X140642800Y-52863600D01*
X141847600Y-52863600D01*
X141847600Y-51658800D01*
X142152400Y-51658800D01*
X142152400Y-52863600D01*
X143357200Y-52863600D01*
X143509600Y-52711200D01*
X143509600Y-51994743D01*
X143416794Y-51770689D01*
X143245311Y-51599206D01*
X143021257Y-51506400D01*
X142304800Y-51506400D01*
X142152400Y-51658800D01*
X141847600Y-51658800D01*
X141695200Y-51506400D01*
X140978743Y-51506400D01*
X140754689Y-51599206D01*
X140583206Y-51770689D01*
X140490400Y-51994743D01*
X138509600Y-51994743D01*
X138416794Y-51770689D01*
X138245311Y-51599206D01*
X138021257Y-51506400D01*
X137304800Y-51506400D01*
X137152400Y-51658800D01*
X136847600Y-51658800D01*
X136695200Y-51506400D01*
X135978743Y-51506400D01*
X135754689Y-51599206D01*
X135583206Y-51770689D01*
X135490400Y-51994743D01*
X133509600Y-51994743D01*
X133416794Y-51770689D01*
X133245311Y-51599206D01*
X133021257Y-51506400D01*
X132304800Y-51506400D01*
X132152400Y-51658800D01*
X131847600Y-51658800D01*
X131695200Y-51506400D01*
X130978743Y-51506400D01*
X130754689Y-51599206D01*
X130583206Y-51770689D01*
X130490400Y-51994743D01*
X128509600Y-51994743D01*
X128416794Y-51770689D01*
X128245311Y-51599206D01*
X128021257Y-51506400D01*
X127304800Y-51506400D01*
X127152400Y-51658800D01*
X126847600Y-51658800D01*
X126695200Y-51506400D01*
X125978743Y-51506400D01*
X125754689Y-51599206D01*
X125583206Y-51770689D01*
X125490400Y-51994743D01*
X123509600Y-51994743D01*
X123416794Y-51770689D01*
X123245311Y-51599206D01*
X123021257Y-51506400D01*
X122304800Y-51506400D01*
X122152400Y-51658800D01*
X121847600Y-51658800D01*
X121695200Y-51506400D01*
X120978743Y-51506400D01*
X120754689Y-51599206D01*
X120583206Y-51770689D01*
X120490400Y-51994743D01*
X118509600Y-51994743D01*
X118416794Y-51770689D01*
X118245311Y-51599206D01*
X118021257Y-51506400D01*
X117304800Y-51506400D01*
X117152400Y-51658800D01*
X116847600Y-51658800D01*
X116695200Y-51506400D01*
X115978743Y-51506400D01*
X115754689Y-51599206D01*
X115583206Y-51770689D01*
X115490400Y-51994743D01*
X113509600Y-51994743D01*
X113416794Y-51770689D01*
X113245311Y-51599206D01*
X113021257Y-51506400D01*
X112304800Y-51506400D01*
X112152400Y-51658800D01*
X111847600Y-51658800D01*
X111695200Y-51506400D01*
X110978743Y-51506400D01*
X110754689Y-51599206D01*
X110583206Y-51770689D01*
X110490400Y-51994743D01*
X108509600Y-51994743D01*
X108416794Y-51770689D01*
X108245311Y-51599206D01*
X108021257Y-51506400D01*
X107304800Y-51506400D01*
X107152400Y-51658800D01*
X106847600Y-51658800D01*
X106695200Y-51506400D01*
X105978743Y-51506400D01*
X105754689Y-51599206D01*
X105583206Y-51770689D01*
X105490400Y-51994743D01*
X103509600Y-51994743D01*
X103416794Y-51770689D01*
X103245311Y-51599206D01*
X103021257Y-51506400D01*
X102304800Y-51506400D01*
X102152400Y-51658800D01*
X101847600Y-51658800D01*
X101695200Y-51506400D01*
X100978743Y-51506400D01*
X100754689Y-51599206D01*
X100583206Y-51770689D01*
X100490400Y-51994743D01*
X98509600Y-51994743D01*
X98416794Y-51770689D01*
X98245311Y-51599206D01*
X98021257Y-51506400D01*
X97304800Y-51506400D01*
X97152400Y-51658800D01*
X96847600Y-51658800D01*
X96695200Y-51506400D01*
X95978743Y-51506400D01*
X95754689Y-51599206D01*
X95583206Y-51770689D01*
X95490400Y-51994743D01*
X93509600Y-51994743D01*
X93416794Y-51770689D01*
X93245311Y-51599206D01*
X93021257Y-51506400D01*
X92304800Y-51506400D01*
X92152400Y-51658800D01*
X91847600Y-51658800D01*
X91695200Y-51506400D01*
X90978743Y-51506400D01*
X90754689Y-51599206D01*
X90583206Y-51770689D01*
X90490400Y-51994743D01*
X88509600Y-51994743D01*
X88416794Y-51770689D01*
X88245311Y-51599206D01*
X88021257Y-51506400D01*
X87304800Y-51506400D01*
X87152400Y-51658800D01*
X86847600Y-51658800D01*
X86695200Y-51506400D01*
X85978743Y-51506400D01*
X85754689Y-51599206D01*
X85583206Y-51770689D01*
X85490400Y-51994743D01*
X83509600Y-51994743D01*
X83416794Y-51770689D01*
X83245311Y-51599206D01*
X83021257Y-51506400D01*
X82304800Y-51506400D01*
X82152400Y-51658800D01*
X81847600Y-51658800D01*
X81695200Y-51506400D01*
X80978743Y-51506400D01*
X80754689Y-51599206D01*
X80583206Y-51770689D01*
X80490400Y-51994743D01*
X78509600Y-51994743D01*
X78416794Y-51770689D01*
X78245311Y-51599206D01*
X78021257Y-51506400D01*
X77304800Y-51506400D01*
X77152400Y-51658800D01*
X76847600Y-51658800D01*
X76695200Y-51506400D01*
X75978743Y-51506400D01*
X75754689Y-51599206D01*
X75583206Y-51770689D01*
X75490400Y-51994743D01*
X73509600Y-51994743D01*
X73416794Y-51770689D01*
X73245311Y-51599206D01*
X73021257Y-51506400D01*
X72304800Y-51506400D01*
X72152400Y-51658800D01*
X71847600Y-51658800D01*
X71695200Y-51506400D01*
X70978743Y-51506400D01*
X70754689Y-51599206D01*
X70583206Y-51770689D01*
X70490400Y-51994743D01*
X68509600Y-51994743D01*
X68416794Y-51770689D01*
X68245311Y-51599206D01*
X68021257Y-51506400D01*
X67304800Y-51506400D01*
X67152400Y-51658800D01*
X66847600Y-51658800D01*
X66695200Y-51506400D01*
X65978743Y-51506400D01*
X65754689Y-51599206D01*
X65583206Y-51770689D01*
X65490400Y-51994743D01*
X57546100Y-51994743D01*
X57546100Y-40886308D01*
X58005157Y-41997312D01*
X58997464Y-42991352D01*
X60294639Y-43529986D01*
X61699199Y-43531212D01*
X62997312Y-42994843D01*
X63991352Y-42002536D01*
X64529986Y-40705361D01*
X64530321Y-40320800D01*
X65490400Y-40320800D01*
X65490400Y-41037257D01*
X65583206Y-41261311D01*
X65754689Y-41432794D01*
X65978743Y-41525600D01*
X66254961Y-41525600D01*
X65936175Y-41843831D01*
X65744618Y-42305150D01*
X65744182Y-42804659D01*
X65934933Y-43266311D01*
X66287831Y-43619825D01*
X66749150Y-43811382D01*
X67248659Y-43811818D01*
X67710311Y-43621067D01*
X68063825Y-43268169D01*
X68255382Y-42806850D01*
X68255818Y-42307341D01*
X68065067Y-41845689D01*
X67745536Y-41525600D01*
X68021257Y-41525600D01*
X68245311Y-41432794D01*
X68416794Y-41261311D01*
X68509600Y-41037257D01*
X68509600Y-40320800D01*
X70490400Y-40320800D01*
X70490400Y-41037257D01*
X70583206Y-41261311D01*
X70754689Y-41432794D01*
X70978743Y-41525600D01*
X71254961Y-41525600D01*
X70936175Y-41843831D01*
X70744618Y-42305150D01*
X70744182Y-42804659D01*
X70934933Y-43266311D01*
X71287831Y-43619825D01*
X71749150Y-43811382D01*
X72248659Y-43811818D01*
X72710311Y-43621067D01*
X73063825Y-43268169D01*
X73255382Y-42806850D01*
X73255818Y-42307341D01*
X73065067Y-41845689D01*
X72745536Y-41525600D01*
X73021257Y-41525600D01*
X73245311Y-41432794D01*
X73416794Y-41261311D01*
X73509600Y-41037257D01*
X73509600Y-40320800D01*
X75490400Y-40320800D01*
X75490400Y-41037257D01*
X75583206Y-41261311D01*
X75754689Y-41432794D01*
X75978743Y-41525600D01*
X76254961Y-41525600D01*
X75936175Y-41843831D01*
X75744618Y-42305150D01*
X75744182Y-42804659D01*
X75934933Y-43266311D01*
X76287831Y-43619825D01*
X76749150Y-43811382D01*
X77248659Y-43811818D01*
X77710311Y-43621067D01*
X78063825Y-43268169D01*
X78255382Y-42806850D01*
X78255818Y-42307341D01*
X78065067Y-41845689D01*
X77745536Y-41525600D01*
X78021257Y-41525600D01*
X78245311Y-41432794D01*
X78416794Y-41261311D01*
X78509600Y-41037257D01*
X78509600Y-40320800D01*
X80490400Y-40320800D01*
X80490400Y-41037257D01*
X80583206Y-41261311D01*
X80754689Y-41432794D01*
X80978743Y-41525600D01*
X81254961Y-41525600D01*
X80936175Y-41843831D01*
X80744618Y-42305150D01*
X80744182Y-42804659D01*
X80934933Y-43266311D01*
X81287831Y-43619825D01*
X81749150Y-43811382D01*
X82248659Y-43811818D01*
X82710311Y-43621067D01*
X83063825Y-43268169D01*
X83255382Y-42806850D01*
X83255818Y-42307341D01*
X83065067Y-41845689D01*
X82745536Y-41525600D01*
X83021257Y-41525600D01*
X83245311Y-41432794D01*
X83416794Y-41261311D01*
X83509600Y-41037257D01*
X83509600Y-40320800D01*
X85490400Y-40320800D01*
X85490400Y-41037257D01*
X85583206Y-41261311D01*
X85754689Y-41432794D01*
X85978743Y-41525600D01*
X86254961Y-41525600D01*
X85936175Y-41843831D01*
X85744618Y-42305150D01*
X85744182Y-42804659D01*
X85934933Y-43266311D01*
X86287831Y-43619825D01*
X86749150Y-43811382D01*
X87248659Y-43811818D01*
X87710311Y-43621067D01*
X88063825Y-43268169D01*
X88255382Y-42806850D01*
X88255818Y-42307341D01*
X88065067Y-41845689D01*
X87745536Y-41525600D01*
X88021257Y-41525600D01*
X88245311Y-41432794D01*
X88416794Y-41261311D01*
X88509600Y-41037257D01*
X88509600Y-40320800D01*
X90490400Y-40320800D01*
X90490400Y-41037257D01*
X90583206Y-41261311D01*
X90754689Y-41432794D01*
X90978743Y-41525600D01*
X91254961Y-41525600D01*
X90936175Y-41843831D01*
X90744618Y-42305150D01*
X90744182Y-42804659D01*
X90934933Y-43266311D01*
X91287831Y-43619825D01*
X91749150Y-43811382D01*
X92248659Y-43811818D01*
X92710311Y-43621067D01*
X93063825Y-43268169D01*
X93255382Y-42806850D01*
X93255818Y-42307341D01*
X93065067Y-41845689D01*
X92745536Y-41525600D01*
X93021257Y-41525600D01*
X93245311Y-41432794D01*
X93416794Y-41261311D01*
X93509600Y-41037257D01*
X93509600Y-40320800D01*
X95490400Y-40320800D01*
X95490400Y-41037257D01*
X95583206Y-41261311D01*
X95754689Y-41432794D01*
X95978743Y-41525600D01*
X96254961Y-41525600D01*
X95936175Y-41843831D01*
X95744618Y-42305150D01*
X95744182Y-42804659D01*
X95934933Y-43266311D01*
X96287831Y-43619825D01*
X96749150Y-43811382D01*
X97248659Y-43811818D01*
X97710311Y-43621067D01*
X98063825Y-43268169D01*
X98255382Y-42806850D01*
X98255818Y-42307341D01*
X98065067Y-41845689D01*
X97745536Y-41525600D01*
X98021257Y-41525600D01*
X98245311Y-41432794D01*
X98416794Y-41261311D01*
X98509600Y-41037257D01*
X98509600Y-40320800D01*
X100490400Y-40320800D01*
X100490400Y-41037257D01*
X100583206Y-41261311D01*
X100754689Y-41432794D01*
X100978743Y-41525600D01*
X101254961Y-41525600D01*
X100936175Y-41843831D01*
X100744618Y-42305150D01*
X100744182Y-42804659D01*
X100934933Y-43266311D01*
X101287831Y-43619825D01*
X101749150Y-43811382D01*
X102248659Y-43811818D01*
X102710311Y-43621067D01*
X103063825Y-43268169D01*
X103255382Y-42806850D01*
X103255818Y-42307341D01*
X103065067Y-41845689D01*
X102745536Y-41525600D01*
X103021257Y-41525600D01*
X103245311Y-41432794D01*
X103416794Y-41261311D01*
X103509600Y-41037257D01*
X103509600Y-40320800D01*
X105490400Y-40320800D01*
X105490400Y-41037257D01*
X105583206Y-41261311D01*
X105754689Y-41432794D01*
X105978743Y-41525600D01*
X106254961Y-41525600D01*
X105936175Y-41843831D01*
X105744618Y-42305150D01*
X105744182Y-42804659D01*
X105934933Y-43266311D01*
X106287831Y-43619825D01*
X106749150Y-43811382D01*
X107248659Y-43811818D01*
X107710311Y-43621067D01*
X108063825Y-43268169D01*
X108255382Y-42806850D01*
X108255818Y-42307341D01*
X108065067Y-41845689D01*
X107745536Y-41525600D01*
X108021257Y-41525600D01*
X108245311Y-41432794D01*
X108416794Y-41261311D01*
X108509600Y-41037257D01*
X108509600Y-40320800D01*
X110490400Y-40320800D01*
X110490400Y-41037257D01*
X110583206Y-41261311D01*
X110754689Y-41432794D01*
X110978743Y-41525600D01*
X111254961Y-41525600D01*
X110936175Y-41843831D01*
X110744618Y-42305150D01*
X110744182Y-42804659D01*
X110934933Y-43266311D01*
X111287831Y-43619825D01*
X111749150Y-43811382D01*
X112248659Y-43811818D01*
X112710311Y-43621067D01*
X113063825Y-43268169D01*
X113255382Y-42806850D01*
X113255818Y-42307341D01*
X113065067Y-41845689D01*
X112745536Y-41525600D01*
X113021257Y-41525600D01*
X113245311Y-41432794D01*
X113416794Y-41261311D01*
X113509600Y-41037257D01*
X113509600Y-40320800D01*
X115490400Y-40320800D01*
X115490400Y-41037257D01*
X115583206Y-41261311D01*
X115754689Y-41432794D01*
X115978743Y-41525600D01*
X116254961Y-41525600D01*
X115936175Y-41843831D01*
X115744618Y-42305150D01*
X115744182Y-42804659D01*
X115934933Y-43266311D01*
X116287831Y-43619825D01*
X116749150Y-43811382D01*
X117248659Y-43811818D01*
X117710311Y-43621067D01*
X118063825Y-43268169D01*
X118255382Y-42806850D01*
X118255818Y-42307341D01*
X118065067Y-41845689D01*
X117745536Y-41525600D01*
X118021257Y-41525600D01*
X118245311Y-41432794D01*
X118416794Y-41261311D01*
X118509600Y-41037257D01*
X118509600Y-40320800D01*
X120490400Y-40320800D01*
X120490400Y-41037257D01*
X120583206Y-41261311D01*
X120754689Y-41432794D01*
X120978743Y-41525600D01*
X121254961Y-41525600D01*
X120936175Y-41843831D01*
X120744618Y-42305150D01*
X120744182Y-42804659D01*
X120934933Y-43266311D01*
X121287831Y-43619825D01*
X121749150Y-43811382D01*
X122248659Y-43811818D01*
X122710311Y-43621067D01*
X123063825Y-43268169D01*
X123255382Y-42806850D01*
X123255818Y-42307341D01*
X123065067Y-41845689D01*
X122745536Y-41525600D01*
X123021257Y-41525600D01*
X123245311Y-41432794D01*
X123416794Y-41261311D01*
X123509600Y-41037257D01*
X123509600Y-40320800D01*
X125490400Y-40320800D01*
X125490400Y-41037257D01*
X125583206Y-41261311D01*
X125754689Y-41432794D01*
X125978743Y-41525600D01*
X126254961Y-41525600D01*
X125936175Y-41843831D01*
X125744618Y-42305150D01*
X125744182Y-42804659D01*
X125934933Y-43266311D01*
X126287831Y-43619825D01*
X126749150Y-43811382D01*
X127248659Y-43811818D01*
X127710311Y-43621067D01*
X128063825Y-43268169D01*
X128255382Y-42806850D01*
X128255818Y-42307341D01*
X128065067Y-41845689D01*
X127745536Y-41525600D01*
X128021257Y-41525600D01*
X128245311Y-41432794D01*
X128416794Y-41261311D01*
X128509600Y-41037257D01*
X128509600Y-40320800D01*
X130490400Y-40320800D01*
X130490400Y-41037257D01*
X130583206Y-41261311D01*
X130754689Y-41432794D01*
X130978743Y-41525600D01*
X131254961Y-41525600D01*
X130936175Y-41843831D01*
X130744618Y-42305150D01*
X130744182Y-42804659D01*
X130934933Y-43266311D01*
X131287831Y-43619825D01*
X131749150Y-43811382D01*
X132248659Y-43811818D01*
X132710311Y-43621067D01*
X133063825Y-43268169D01*
X133255382Y-42806850D01*
X133255818Y-42307341D01*
X133065067Y-41845689D01*
X132745536Y-41525600D01*
X133021257Y-41525600D01*
X133245311Y-41432794D01*
X133416794Y-41261311D01*
X133509600Y-41037257D01*
X133509600Y-40320800D01*
X135490400Y-40320800D01*
X135490400Y-41037257D01*
X135583206Y-41261311D01*
X135754689Y-41432794D01*
X135978743Y-41525600D01*
X136254961Y-41525600D01*
X135936175Y-41843831D01*
X135744618Y-42305150D01*
X135744182Y-42804659D01*
X135934933Y-43266311D01*
X136287831Y-43619825D01*
X136749150Y-43811382D01*
X137248659Y-43811818D01*
X137710311Y-43621067D01*
X138063825Y-43268169D01*
X138255382Y-42806850D01*
X138255818Y-42307341D01*
X138065067Y-41845689D01*
X137745536Y-41525600D01*
X138021257Y-41525600D01*
X138245311Y-41432794D01*
X138416794Y-41261311D01*
X138509600Y-41037257D01*
X138509600Y-40320800D01*
X140490400Y-40320800D01*
X140490400Y-41037257D01*
X140583206Y-41261311D01*
X140754689Y-41432794D01*
X140978743Y-41525600D01*
X141254961Y-41525600D01*
X140936175Y-41843831D01*
X140744618Y-42305150D01*
X140744182Y-42804659D01*
X140934933Y-43266311D01*
X141287831Y-43619825D01*
X141749150Y-43811382D01*
X142248659Y-43811818D01*
X142710311Y-43621067D01*
X143063825Y-43268169D01*
X143255382Y-42806850D01*
X143255818Y-42307341D01*
X143065067Y-41845689D01*
X142745536Y-41525600D01*
X143021257Y-41525600D01*
X143245311Y-41432794D01*
X143416794Y-41261311D01*
X143509600Y-41037257D01*
X143509600Y-40320800D01*
X143357200Y-40168400D01*
X142152400Y-40168400D01*
X142152400Y-40188400D01*
X141847600Y-40188400D01*
X141847600Y-40168400D01*
X140642800Y-40168400D01*
X140490400Y-40320800D01*
X138509600Y-40320800D01*
X138357200Y-40168400D01*
X137152400Y-40168400D01*
X137152400Y-40188400D01*
X136847600Y-40188400D01*
X136847600Y-40168400D01*
X135642800Y-40168400D01*
X135490400Y-40320800D01*
X133509600Y-40320800D01*
X133357200Y-40168400D01*
X132152400Y-40168400D01*
X132152400Y-40188400D01*
X131847600Y-40188400D01*
X131847600Y-40168400D01*
X130642800Y-40168400D01*
X130490400Y-40320800D01*
X128509600Y-40320800D01*
X128357200Y-40168400D01*
X127152400Y-40168400D01*
X127152400Y-40188400D01*
X126847600Y-40188400D01*
X126847600Y-40168400D01*
X125642800Y-40168400D01*
X125490400Y-40320800D01*
X123509600Y-40320800D01*
X123357200Y-40168400D01*
X122152400Y-40168400D01*
X122152400Y-40188400D01*
X121847600Y-40188400D01*
X121847600Y-40168400D01*
X120642800Y-40168400D01*
X120490400Y-40320800D01*
X118509600Y-40320800D01*
X118357200Y-40168400D01*
X117152400Y-40168400D01*
X117152400Y-40188400D01*
X116847600Y-40188400D01*
X116847600Y-40168400D01*
X115642800Y-40168400D01*
X115490400Y-40320800D01*
X113509600Y-40320800D01*
X113357200Y-40168400D01*
X112152400Y-40168400D01*
X112152400Y-40188400D01*
X111847600Y-40188400D01*
X111847600Y-40168400D01*
X110642800Y-40168400D01*
X110490400Y-40320800D01*
X108509600Y-40320800D01*
X108357200Y-40168400D01*
X107152400Y-40168400D01*
X107152400Y-40188400D01*
X106847600Y-40188400D01*
X106847600Y-40168400D01*
X105642800Y-40168400D01*
X105490400Y-40320800D01*
X103509600Y-40320800D01*
X103357200Y-40168400D01*
X102152400Y-40168400D01*
X102152400Y-40188400D01*
X101847600Y-40188400D01*
X101847600Y-40168400D01*
X100642800Y-40168400D01*
X100490400Y-40320800D01*
X98509600Y-40320800D01*
X98357200Y-40168400D01*
X97152400Y-40168400D01*
X97152400Y-40188400D01*
X96847600Y-40188400D01*
X96847600Y-40168400D01*
X95642800Y-40168400D01*
X95490400Y-40320800D01*
X93509600Y-40320800D01*
X93357200Y-40168400D01*
X92152400Y-40168400D01*
X92152400Y-40188400D01*
X91847600Y-40188400D01*
X91847600Y-40168400D01*
X90642800Y-40168400D01*
X90490400Y-40320800D01*
X88509600Y-40320800D01*
X88357200Y-40168400D01*
X87152400Y-40168400D01*
X87152400Y-40188400D01*
X86847600Y-40188400D01*
X86847600Y-40168400D01*
X85642800Y-40168400D01*
X85490400Y-40320800D01*
X83509600Y-40320800D01*
X83357200Y-40168400D01*
X82152400Y-40168400D01*
X82152400Y-40188400D01*
X81847600Y-40188400D01*
X81847600Y-40168400D01*
X80642800Y-40168400D01*
X80490400Y-40320800D01*
X78509600Y-40320800D01*
X78357200Y-40168400D01*
X77152400Y-40168400D01*
X77152400Y-40188400D01*
X76847600Y-40188400D01*
X76847600Y-40168400D01*
X75642800Y-40168400D01*
X75490400Y-40320800D01*
X73509600Y-40320800D01*
X73357200Y-40168400D01*
X72152400Y-40168400D01*
X72152400Y-40188400D01*
X71847600Y-40188400D01*
X71847600Y-40168400D01*
X70642800Y-40168400D01*
X70490400Y-40320800D01*
X68509600Y-40320800D01*
X68357200Y-40168400D01*
X67152400Y-40168400D01*
X67152400Y-40188400D01*
X66847600Y-40188400D01*
X66847600Y-40168400D01*
X65642800Y-40168400D01*
X65490400Y-40320800D01*
X64530321Y-40320800D01*
X64531212Y-39300801D01*
X64404752Y-38994743D01*
X65490400Y-38994743D01*
X65490400Y-39711200D01*
X65642800Y-39863600D01*
X66847600Y-39863600D01*
X66847600Y-38658800D01*
X67152400Y-38658800D01*
X67152400Y-39863600D01*
X68357200Y-39863600D01*
X68509600Y-39711200D01*
X68509600Y-38994743D01*
X70490400Y-38994743D01*
X70490400Y-39711200D01*
X70642800Y-39863600D01*
X71847600Y-39863600D01*
X71847600Y-38658800D01*
X72152400Y-38658800D01*
X72152400Y-39863600D01*
X73357200Y-39863600D01*
X73509600Y-39711200D01*
X73509600Y-38994743D01*
X75490400Y-38994743D01*
X75490400Y-39711200D01*
X75642800Y-39863600D01*
X76847600Y-39863600D01*
X76847600Y-38658800D01*
X77152400Y-38658800D01*
X77152400Y-39863600D01*
X78357200Y-39863600D01*
X78509600Y-39711200D01*
X78509600Y-38994743D01*
X80490400Y-38994743D01*
X80490400Y-39711200D01*
X80642800Y-39863600D01*
X81847600Y-39863600D01*
X81847600Y-38658800D01*
X82152400Y-38658800D01*
X82152400Y-39863600D01*
X83357200Y-39863600D01*
X83509600Y-39711200D01*
X83509600Y-38994743D01*
X85490400Y-38994743D01*
X85490400Y-39711200D01*
X85642800Y-39863600D01*
X86847600Y-39863600D01*
X86847600Y-38658800D01*
X87152400Y-38658800D01*
X87152400Y-39863600D01*
X88357200Y-39863600D01*
X88509600Y-39711200D01*
X88509600Y-38994743D01*
X90490400Y-38994743D01*
X90490400Y-39711200D01*
X90642800Y-39863600D01*
X91847600Y-39863600D01*
X91847600Y-38658800D01*
X92152400Y-38658800D01*
X92152400Y-39863600D01*
X93357200Y-39863600D01*
X93509600Y-39711200D01*
X93509600Y-38994743D01*
X95490400Y-38994743D01*
X95490400Y-39711200D01*
X95642800Y-39863600D01*
X96847600Y-39863600D01*
X96847600Y-38658800D01*
X97152400Y-38658800D01*
X97152400Y-39863600D01*
X98357200Y-39863600D01*
X98509600Y-39711200D01*
X98509600Y-38994743D01*
X100490400Y-38994743D01*
X100490400Y-39711200D01*
X100642800Y-39863600D01*
X101847600Y-39863600D01*
X101847600Y-38658800D01*
X102152400Y-38658800D01*
X102152400Y-39863600D01*
X103357200Y-39863600D01*
X103509600Y-39711200D01*
X103509600Y-38994743D01*
X105490400Y-38994743D01*
X105490400Y-39711200D01*
X105642800Y-39863600D01*
X106847600Y-39863600D01*
X106847600Y-38658800D01*
X107152400Y-38658800D01*
X107152400Y-39863600D01*
X108357200Y-39863600D01*
X108509600Y-39711200D01*
X108509600Y-38994743D01*
X110490400Y-38994743D01*
X110490400Y-39711200D01*
X110642800Y-39863600D01*
X111847600Y-39863600D01*
X111847600Y-38658800D01*
X112152400Y-38658800D01*
X112152400Y-39863600D01*
X113357200Y-39863600D01*
X113509600Y-39711200D01*
X113509600Y-38994743D01*
X115490400Y-38994743D01*
X115490400Y-39711200D01*
X115642800Y-39863600D01*
X116847600Y-39863600D01*
X116847600Y-38658800D01*
X117152400Y-38658800D01*
X117152400Y-39863600D01*
X118357200Y-39863600D01*
X118509600Y-39711200D01*
X118509600Y-38994743D01*
X120490400Y-38994743D01*
X120490400Y-39711200D01*
X120642800Y-39863600D01*
X121847600Y-39863600D01*
X121847600Y-38658800D01*
X122152400Y-38658800D01*
X122152400Y-39863600D01*
X123357200Y-39863600D01*
X123509600Y-39711200D01*
X123509600Y-38994743D01*
X125490400Y-38994743D01*
X125490400Y-39711200D01*
X125642800Y-39863600D01*
X126847600Y-39863600D01*
X126847600Y-38658800D01*
X127152400Y-38658800D01*
X127152400Y-39863600D01*
X128357200Y-39863600D01*
X128509600Y-39711200D01*
X128509600Y-38994743D01*
X130490400Y-38994743D01*
X130490400Y-39711200D01*
X130642800Y-39863600D01*
X131847600Y-39863600D01*
X131847600Y-38658800D01*
X132152400Y-38658800D01*
X132152400Y-39863600D01*
X133357200Y-39863600D01*
X133509600Y-39711200D01*
X133509600Y-38994743D01*
X135490400Y-38994743D01*
X135490400Y-39711200D01*
X135642800Y-39863600D01*
X136847600Y-39863600D01*
X136847600Y-38658800D01*
X137152400Y-38658800D01*
X137152400Y-39863600D01*
X138357200Y-39863600D01*
X138509600Y-39711200D01*
X138509600Y-38994743D01*
X140490400Y-38994743D01*
X140490400Y-39711200D01*
X140642800Y-39863600D01*
X141847600Y-39863600D01*
X141847600Y-38658800D01*
X142152400Y-38658800D01*
X142152400Y-39863600D01*
X143357200Y-39863600D01*
X143509600Y-39711200D01*
X143509600Y-38994743D01*
X143416794Y-38770689D01*
X143245311Y-38599206D01*
X143021257Y-38506400D01*
X142304800Y-38506400D01*
X142152400Y-38658800D01*
X141847600Y-38658800D01*
X141695200Y-38506400D01*
X140978743Y-38506400D01*
X140754689Y-38599206D01*
X140583206Y-38770689D01*
X140490400Y-38994743D01*
X138509600Y-38994743D01*
X138416794Y-38770689D01*
X138245311Y-38599206D01*
X138021257Y-38506400D01*
X137304800Y-38506400D01*
X137152400Y-38658800D01*
X136847600Y-38658800D01*
X136695200Y-38506400D01*
X135978743Y-38506400D01*
X135754689Y-38599206D01*
X135583206Y-38770689D01*
X135490400Y-38994743D01*
X133509600Y-38994743D01*
X133416794Y-38770689D01*
X133245311Y-38599206D01*
X133021257Y-38506400D01*
X132304800Y-38506400D01*
X132152400Y-38658800D01*
X131847600Y-38658800D01*
X131695200Y-38506400D01*
X130978743Y-38506400D01*
X130754689Y-38599206D01*
X130583206Y-38770689D01*
X130490400Y-38994743D01*
X128509600Y-38994743D01*
X128416794Y-38770689D01*
X128245311Y-38599206D01*
X128021257Y-38506400D01*
X127304800Y-38506400D01*
X127152400Y-38658800D01*
X126847600Y-38658800D01*
X126695200Y-38506400D01*
X125978743Y-38506400D01*
X125754689Y-38599206D01*
X125583206Y-38770689D01*
X125490400Y-38994743D01*
X123509600Y-38994743D01*
X123416794Y-38770689D01*
X123245311Y-38599206D01*
X123021257Y-38506400D01*
X122304800Y-38506400D01*
X122152400Y-38658800D01*
X121847600Y-38658800D01*
X121695200Y-38506400D01*
X120978743Y-38506400D01*
X120754689Y-38599206D01*
X120583206Y-38770689D01*
X120490400Y-38994743D01*
X118509600Y-38994743D01*
X118416794Y-38770689D01*
X118245311Y-38599206D01*
X118021257Y-38506400D01*
X117304800Y-38506400D01*
X117152400Y-38658800D01*
X116847600Y-38658800D01*
X116695200Y-38506400D01*
X115978743Y-38506400D01*
X115754689Y-38599206D01*
X115583206Y-38770689D01*
X115490400Y-38994743D01*
X113509600Y-38994743D01*
X113416794Y-38770689D01*
X113245311Y-38599206D01*
X113021257Y-38506400D01*
X112304800Y-38506400D01*
X112152400Y-38658800D01*
X111847600Y-38658800D01*
X111695200Y-38506400D01*
X110978743Y-38506400D01*
X110754689Y-38599206D01*
X110583206Y-38770689D01*
X110490400Y-38994743D01*
X108509600Y-38994743D01*
X108416794Y-38770689D01*
X108245311Y-38599206D01*
X108021257Y-38506400D01*
X107304800Y-38506400D01*
X107152400Y-38658800D01*
X106847600Y-38658800D01*
X106695200Y-38506400D01*
X105978743Y-38506400D01*
X105754689Y-38599206D01*
X105583206Y-38770689D01*
X105490400Y-38994743D01*
X103509600Y-38994743D01*
X103416794Y-38770689D01*
X103245311Y-38599206D01*
X103021257Y-38506400D01*
X102304800Y-38506400D01*
X102152400Y-38658800D01*
X101847600Y-38658800D01*
X101695200Y-38506400D01*
X100978743Y-38506400D01*
X100754689Y-38599206D01*
X100583206Y-38770689D01*
X100490400Y-38994743D01*
X98509600Y-38994743D01*
X98416794Y-38770689D01*
X98245311Y-38599206D01*
X98021257Y-38506400D01*
X97304800Y-38506400D01*
X97152400Y-38658800D01*
X96847600Y-38658800D01*
X96695200Y-38506400D01*
X95978743Y-38506400D01*
X95754689Y-38599206D01*
X95583206Y-38770689D01*
X95490400Y-38994743D01*
X93509600Y-38994743D01*
X93416794Y-38770689D01*
X93245311Y-38599206D01*
X93021257Y-38506400D01*
X92304800Y-38506400D01*
X92152400Y-38658800D01*
X91847600Y-38658800D01*
X91695200Y-38506400D01*
X90978743Y-38506400D01*
X90754689Y-38599206D01*
X90583206Y-38770689D01*
X90490400Y-38994743D01*
X88509600Y-38994743D01*
X88416794Y-38770689D01*
X88245311Y-38599206D01*
X88021257Y-38506400D01*
X87304800Y-38506400D01*
X87152400Y-38658800D01*
X86847600Y-38658800D01*
X86695200Y-38506400D01*
X85978743Y-38506400D01*
X85754689Y-38599206D01*
X85583206Y-38770689D01*
X85490400Y-38994743D01*
X83509600Y-38994743D01*
X83416794Y-38770689D01*
X83245311Y-38599206D01*
X83021257Y-38506400D01*
X82304800Y-38506400D01*
X82152400Y-38658800D01*
X81847600Y-38658800D01*
X81695200Y-38506400D01*
X80978743Y-38506400D01*
X80754689Y-38599206D01*
X80583206Y-38770689D01*
X80490400Y-38994743D01*
X78509600Y-38994743D01*
X78416794Y-38770689D01*
X78245311Y-38599206D01*
X78021257Y-38506400D01*
X77304800Y-38506400D01*
X77152400Y-38658800D01*
X76847600Y-38658800D01*
X76695200Y-38506400D01*
X75978743Y-38506400D01*
X75754689Y-38599206D01*
X75583206Y-38770689D01*
X75490400Y-38994743D01*
X73509600Y-38994743D01*
X73416794Y-38770689D01*
X73245311Y-38599206D01*
X73021257Y-38506400D01*
X72304800Y-38506400D01*
X72152400Y-38658800D01*
X71847600Y-38658800D01*
X71695200Y-38506400D01*
X70978743Y-38506400D01*
X70754689Y-38599206D01*
X70583206Y-38770689D01*
X70490400Y-38994743D01*
X68509600Y-38994743D01*
X68416794Y-38770689D01*
X68245311Y-38599206D01*
X68021257Y-38506400D01*
X67304800Y-38506400D01*
X67152400Y-38658800D01*
X66847600Y-38658800D01*
X66695200Y-38506400D01*
X65978743Y-38506400D01*
X65754689Y-38599206D01*
X65583206Y-38770689D01*
X65490400Y-38994743D01*
X64404752Y-38994743D01*
X63994843Y-38002688D01*
X63002536Y-37008648D01*
X61888596Y-36546100D01*
X147113692Y-36546100D01*
X146002688Y-37005157D01*
X146002688Y-37005157D01*
G37*
X146002688Y-37005157D02*
X145008648Y-37997464D01*
X144470014Y-39294639D01*
X144468788Y-40699199D01*
X145005157Y-41997312D01*
X145997464Y-42991352D01*
X147294639Y-43529986D01*
X148699199Y-43531212D01*
X149997312Y-42994843D01*
X150991352Y-42002536D01*
X151453900Y-40888596D01*
X151453900Y-76113692D01*
X150994843Y-75002688D01*
X150002536Y-74008648D01*
X148705361Y-73470014D01*
X147300801Y-73468788D01*
X146002688Y-74005157D01*
X145008648Y-74997464D01*
X144470014Y-76294639D01*
X144468788Y-77699199D01*
X145005157Y-78997312D01*
X145997464Y-79991352D01*
X147111404Y-80453900D01*
X61886308Y-80453900D01*
X62997312Y-79994843D01*
X63991352Y-79002536D01*
X64435209Y-77933609D01*
X78830079Y-77933609D01*
X79081908Y-78444419D01*
X79510046Y-78819975D01*
X79862393Y-78965910D01*
X80087600Y-78854286D01*
X80087600Y-77708400D01*
X80392400Y-77708400D01*
X80392400Y-78854286D01*
X80617607Y-78965910D01*
X80969954Y-78819975D01*
X81398092Y-78444419D01*
X81510000Y-78217425D01*
X81621908Y-78444419D01*
X82050046Y-78819975D01*
X82402393Y-78965910D01*
X82627600Y-78854286D01*
X82627600Y-77708400D01*
X80392400Y-77708400D01*
X80087600Y-77708400D01*
X78940766Y-77708400D01*
X78830079Y-77933609D01*
X64435209Y-77933609D01*
X64529986Y-77705361D01*
X64531212Y-76300801D01*
X64156369Y-75393609D01*
X78830079Y-75393609D01*
X79081908Y-75904419D01*
X79510046Y-76279975D01*
X79524593Y-76286000D01*
X79510046Y-76292025D01*
X79081908Y-76667581D01*
X78830079Y-77178391D01*
X78940766Y-77403600D01*
X80087600Y-77403600D01*
X80087600Y-75168400D01*
X80392400Y-75168400D01*
X80392400Y-77403600D01*
X82627600Y-77403600D01*
X82627600Y-75168400D01*
X80392400Y-75168400D01*
X80087600Y-75168400D01*
X78940766Y-75168400D01*
X78830079Y-75393609D01*
X64156369Y-75393609D01*
X63994843Y-75002688D01*
X63631182Y-74638391D01*
X78830079Y-74638391D01*
X78940766Y-74863600D01*
X80087600Y-74863600D01*
X80087600Y-73717714D01*
X80392400Y-73717714D01*
X80392400Y-74863600D01*
X82627600Y-74863600D01*
X82627600Y-73717714D01*
X82932400Y-73717714D01*
X82932400Y-74863600D01*
X82952400Y-74863600D01*
X82952400Y-75168400D01*
X82932400Y-75168400D01*
X82932400Y-77403600D01*
X82952400Y-77403600D01*
X82952400Y-77708400D01*
X82932400Y-77708400D01*
X82932400Y-78854286D01*
X83157607Y-78965910D01*
X83509954Y-78819975D01*
X83938092Y-78444419D01*
X84186282Y-77940991D01*
X84206171Y-78040982D01*
X84467512Y-78432107D01*
X84858637Y-78693448D01*
X85320000Y-78785219D01*
X85781363Y-78693448D01*
X86172488Y-78432107D01*
X86433829Y-78040982D01*
X86525600Y-77579619D01*
X86525600Y-77532381D01*
X86654400Y-77532381D01*
X86654400Y-77579619D01*
X86746171Y-78040982D01*
X87007512Y-78432107D01*
X87398637Y-78693448D01*
X87860000Y-78785219D01*
X88321363Y-78693448D01*
X88712488Y-78432107D01*
X88973829Y-78040982D01*
X89065600Y-77579619D01*
X89065600Y-77532381D01*
X89194400Y-77532381D01*
X89194400Y-77579619D01*
X89286171Y-78040982D01*
X89547512Y-78432107D01*
X89938637Y-78693448D01*
X90400000Y-78785219D01*
X90861363Y-78693448D01*
X91252488Y-78432107D01*
X91513829Y-78040982D01*
X91605600Y-77579619D01*
X91605600Y-77532381D01*
X91734400Y-77532381D01*
X91734400Y-77579619D01*
X91826171Y-78040982D01*
X92087512Y-78432107D01*
X92478637Y-78693448D01*
X92940000Y-78785219D01*
X93401363Y-78693448D01*
X93792488Y-78432107D01*
X94053829Y-78040982D01*
X94145600Y-77579619D01*
X94145600Y-77532381D01*
X94274400Y-77532381D01*
X94274400Y-77579619D01*
X94366171Y-78040982D01*
X94627512Y-78432107D01*
X95018637Y-78693448D01*
X95480000Y-78785219D01*
X95941363Y-78693448D01*
X96332488Y-78432107D01*
X96593829Y-78040982D01*
X96685600Y-77579619D01*
X96685600Y-77532381D01*
X96814400Y-77532381D01*
X96814400Y-77579619D01*
X96906171Y-78040982D01*
X97167512Y-78432107D01*
X97558637Y-78693448D01*
X98020000Y-78785219D01*
X98481363Y-78693448D01*
X98872488Y-78432107D01*
X99133829Y-78040982D01*
X99225600Y-77579619D01*
X99225600Y-77532381D01*
X99354400Y-77532381D01*
X99354400Y-77579619D01*
X99446171Y-78040982D01*
X99707512Y-78432107D01*
X100098637Y-78693448D01*
X100560000Y-78785219D01*
X101021363Y-78693448D01*
X101412488Y-78432107D01*
X101673829Y-78040982D01*
X101765600Y-77579619D01*
X101765600Y-77532381D01*
X101894400Y-77532381D01*
X101894400Y-77579619D01*
X101986171Y-78040982D01*
X102247512Y-78432107D01*
X102638637Y-78693448D01*
X103100000Y-78785219D01*
X103561363Y-78693448D01*
X103952488Y-78432107D01*
X104213829Y-78040982D01*
X104305600Y-77579619D01*
X104305600Y-77532381D01*
X104434400Y-77532381D01*
X104434400Y-77579619D01*
X104526171Y-78040982D01*
X104787512Y-78432107D01*
X105178637Y-78693448D01*
X105640000Y-78785219D01*
X106101363Y-78693448D01*
X106492488Y-78432107D01*
X106753829Y-78040982D01*
X106845600Y-77579619D01*
X106845600Y-77532381D01*
X106974400Y-77532381D01*
X106974400Y-77579619D01*
X107066171Y-78040982D01*
X107327512Y-78432107D01*
X107718637Y-78693448D01*
X108180000Y-78785219D01*
X108641363Y-78693448D01*
X109032488Y-78432107D01*
X109293829Y-78040982D01*
X109385600Y-77579619D01*
X109385600Y-77532381D01*
X109514400Y-77532381D01*
X109514400Y-77579619D01*
X109606171Y-78040982D01*
X109867512Y-78432107D01*
X110258637Y-78693448D01*
X110720000Y-78785219D01*
X111181363Y-78693448D01*
X111572488Y-78432107D01*
X111833829Y-78040982D01*
X111925600Y-77579619D01*
X111925600Y-77532381D01*
X112054400Y-77532381D01*
X112054400Y-77579619D01*
X112146171Y-78040982D01*
X112407512Y-78432107D01*
X112798637Y-78693448D01*
X113260000Y-78785219D01*
X113721363Y-78693448D01*
X114112488Y-78432107D01*
X114373829Y-78040982D01*
X114465600Y-77579619D01*
X114465600Y-77532381D01*
X114594400Y-77532381D01*
X114594400Y-77579619D01*
X114686171Y-78040982D01*
X114947512Y-78432107D01*
X115338637Y-78693448D01*
X115800000Y-78785219D01*
X116261363Y-78693448D01*
X116652488Y-78432107D01*
X116913829Y-78040982D01*
X117005600Y-77579619D01*
X117005600Y-77532381D01*
X117134400Y-77532381D01*
X117134400Y-77579619D01*
X117226171Y-78040982D01*
X117487512Y-78432107D01*
X117878637Y-78693448D01*
X118340000Y-78785219D01*
X118801363Y-78693448D01*
X119192488Y-78432107D01*
X119453829Y-78040982D01*
X119545600Y-77579619D01*
X119545600Y-77532381D01*
X119674400Y-77532381D01*
X119674400Y-77579619D01*
X119766171Y-78040982D01*
X120027512Y-78432107D01*
X120418637Y-78693448D01*
X120880000Y-78785219D01*
X121341363Y-78693448D01*
X121732488Y-78432107D01*
X121993829Y-78040982D01*
X122085600Y-77579619D01*
X122085600Y-77532381D01*
X121993829Y-77071018D01*
X121732488Y-76679893D01*
X121341363Y-76418552D01*
X120880000Y-76326781D01*
X120418637Y-76418552D01*
X120027512Y-76679893D01*
X119766171Y-77071018D01*
X119674400Y-77532381D01*
X119545600Y-77532381D01*
X119453829Y-77071018D01*
X119192488Y-76679893D01*
X118801363Y-76418552D01*
X118340000Y-76326781D01*
X117878637Y-76418552D01*
X117487512Y-76679893D01*
X117226171Y-77071018D01*
X117134400Y-77532381D01*
X117005600Y-77532381D01*
X116913829Y-77071018D01*
X116652488Y-76679893D01*
X116261363Y-76418552D01*
X115800000Y-76326781D01*
X115338637Y-76418552D01*
X114947512Y-76679893D01*
X114686171Y-77071018D01*
X114594400Y-77532381D01*
X114465600Y-77532381D01*
X114373829Y-77071018D01*
X114112488Y-76679893D01*
X113721363Y-76418552D01*
X113260000Y-76326781D01*
X112798637Y-76418552D01*
X112407512Y-76679893D01*
X112146171Y-77071018D01*
X112054400Y-77532381D01*
X111925600Y-77532381D01*
X111833829Y-77071018D01*
X111572488Y-76679893D01*
X111181363Y-76418552D01*
X110720000Y-76326781D01*
X110258637Y-76418552D01*
X109867512Y-76679893D01*
X109606171Y-77071018D01*
X109514400Y-77532381D01*
X109385600Y-77532381D01*
X109293829Y-77071018D01*
X109032488Y-76679893D01*
X108641363Y-76418552D01*
X108180000Y-76326781D01*
X107718637Y-76418552D01*
X107327512Y-76679893D01*
X107066171Y-77071018D01*
X106974400Y-77532381D01*
X106845600Y-77532381D01*
X106753829Y-77071018D01*
X106492488Y-76679893D01*
X106101363Y-76418552D01*
X105640000Y-76326781D01*
X105178637Y-76418552D01*
X104787512Y-76679893D01*
X104526171Y-77071018D01*
X104434400Y-77532381D01*
X104305600Y-77532381D01*
X104213829Y-77071018D01*
X103952488Y-76679893D01*
X103561363Y-76418552D01*
X103100000Y-76326781D01*
X102638637Y-76418552D01*
X102247512Y-76679893D01*
X101986171Y-77071018D01*
X101894400Y-77532381D01*
X101765600Y-77532381D01*
X101673829Y-77071018D01*
X101412488Y-76679893D01*
X101021363Y-76418552D01*
X100560000Y-76326781D01*
X100098637Y-76418552D01*
X99707512Y-76679893D01*
X99446171Y-77071018D01*
X99354400Y-77532381D01*
X99225600Y-77532381D01*
X99133829Y-77071018D01*
X98872488Y-76679893D01*
X98481363Y-76418552D01*
X98020000Y-76326781D01*
X97558637Y-76418552D01*
X97167512Y-76679893D01*
X96906171Y-77071018D01*
X96814400Y-77532381D01*
X96685600Y-77532381D01*
X96593829Y-77071018D01*
X96332488Y-76679893D01*
X95941363Y-76418552D01*
X95480000Y-76326781D01*
X95018637Y-76418552D01*
X94627512Y-76679893D01*
X94366171Y-77071018D01*
X94274400Y-77532381D01*
X94145600Y-77532381D01*
X94053829Y-77071018D01*
X93792488Y-76679893D01*
X93401363Y-76418552D01*
X92940000Y-76326781D01*
X92478637Y-76418552D01*
X92087512Y-76679893D01*
X91826171Y-77071018D01*
X91734400Y-77532381D01*
X91605600Y-77532381D01*
X91513829Y-77071018D01*
X91252488Y-76679893D01*
X90861363Y-76418552D01*
X90400000Y-76326781D01*
X89938637Y-76418552D01*
X89547512Y-76679893D01*
X89286171Y-77071018D01*
X89194400Y-77532381D01*
X89065600Y-77532381D01*
X88973829Y-77071018D01*
X88712488Y-76679893D01*
X88321363Y-76418552D01*
X87860000Y-76326781D01*
X87398637Y-76418552D01*
X87007512Y-76679893D01*
X86746171Y-77071018D01*
X86654400Y-77532381D01*
X86525600Y-77532381D01*
X86433829Y-77071018D01*
X86172488Y-76679893D01*
X85781363Y-76418552D01*
X85320000Y-76326781D01*
X84858637Y-76418552D01*
X84467512Y-76679893D01*
X84206171Y-77071018D01*
X84186282Y-77171009D01*
X83938092Y-76667581D01*
X83509954Y-76292025D01*
X83495407Y-76286000D01*
X83509954Y-76279975D01*
X83938092Y-75904419D01*
X84186282Y-75400991D01*
X84206171Y-75500982D01*
X84467512Y-75892107D01*
X84858637Y-76153448D01*
X85320000Y-76245219D01*
X85781363Y-76153448D01*
X86172488Y-75892107D01*
X86433829Y-75500982D01*
X86525600Y-75039619D01*
X86525600Y-74992381D01*
X86654400Y-74992381D01*
X86654400Y-75039619D01*
X86746171Y-75500982D01*
X87007512Y-75892107D01*
X87398637Y-76153448D01*
X87860000Y-76245219D01*
X88321363Y-76153448D01*
X88712488Y-75892107D01*
X88973829Y-75500982D01*
X89065600Y-75039619D01*
X89065600Y-74992381D01*
X89194400Y-74992381D01*
X89194400Y-75039619D01*
X89286171Y-75500982D01*
X89547512Y-75892107D01*
X89938637Y-76153448D01*
X90400000Y-76245219D01*
X90861363Y-76153448D01*
X91252488Y-75892107D01*
X91513829Y-75500982D01*
X91605600Y-75039619D01*
X91605600Y-74992381D01*
X91734400Y-74992381D01*
X91734400Y-75039619D01*
X91826171Y-75500982D01*
X92087512Y-75892107D01*
X92478637Y-76153448D01*
X92940000Y-76245219D01*
X93401363Y-76153448D01*
X93792488Y-75892107D01*
X94053829Y-75500982D01*
X94145600Y-75039619D01*
X94145600Y-74992381D01*
X94274400Y-74992381D01*
X94274400Y-75039619D01*
X94366171Y-75500982D01*
X94627512Y-75892107D01*
X95018637Y-76153448D01*
X95480000Y-76245219D01*
X95941363Y-76153448D01*
X96332488Y-75892107D01*
X96593829Y-75500982D01*
X96685600Y-75039619D01*
X96685600Y-74992381D01*
X96814400Y-74992381D01*
X96814400Y-75039619D01*
X96906171Y-75500982D01*
X97167512Y-75892107D01*
X97558637Y-76153448D01*
X98020000Y-76245219D01*
X98481363Y-76153448D01*
X98872488Y-75892107D01*
X99133829Y-75500982D01*
X99225600Y-75039619D01*
X99225600Y-74992381D01*
X99354400Y-74992381D01*
X99354400Y-75039619D01*
X99446171Y-75500982D01*
X99707512Y-75892107D01*
X100098637Y-76153448D01*
X100560000Y-76245219D01*
X101021363Y-76153448D01*
X101412488Y-75892107D01*
X101673829Y-75500982D01*
X101765600Y-75039619D01*
X101765600Y-74992381D01*
X101894400Y-74992381D01*
X101894400Y-75039619D01*
X101986171Y-75500982D01*
X102247512Y-75892107D01*
X102638637Y-76153448D01*
X103100000Y-76245219D01*
X103561363Y-76153448D01*
X103952488Y-75892107D01*
X104213829Y-75500982D01*
X104305600Y-75039619D01*
X104305600Y-74992381D01*
X104434400Y-74992381D01*
X104434400Y-75039619D01*
X104526171Y-75500982D01*
X104787512Y-75892107D01*
X105178637Y-76153448D01*
X105640000Y-76245219D01*
X106101363Y-76153448D01*
X106492488Y-75892107D01*
X106753829Y-75500982D01*
X106845600Y-75039619D01*
X106845600Y-74992381D01*
X106974400Y-74992381D01*
X106974400Y-75039619D01*
X107066171Y-75500982D01*
X107327512Y-75892107D01*
X107718637Y-76153448D01*
X108180000Y-76245219D01*
X108641363Y-76153448D01*
X109032488Y-75892107D01*
X109293829Y-75500982D01*
X109385600Y-75039619D01*
X109385600Y-74992381D01*
X109514400Y-74992381D01*
X109514400Y-75039619D01*
X109606171Y-75500982D01*
X109867512Y-75892107D01*
X110258637Y-76153448D01*
X110720000Y-76245219D01*
X111181363Y-76153448D01*
X111572488Y-75892107D01*
X111833829Y-75500982D01*
X111925600Y-75039619D01*
X111925600Y-74992381D01*
X112054400Y-74992381D01*
X112054400Y-75039619D01*
X112146171Y-75500982D01*
X112407512Y-75892107D01*
X112798637Y-76153448D01*
X113260000Y-76245219D01*
X113721363Y-76153448D01*
X114112488Y-75892107D01*
X114373829Y-75500982D01*
X114465600Y-75039619D01*
X114465600Y-74992381D01*
X114594400Y-74992381D01*
X114594400Y-75039619D01*
X114686171Y-75500982D01*
X114947512Y-75892107D01*
X115338637Y-76153448D01*
X115800000Y-76245219D01*
X116261363Y-76153448D01*
X116652488Y-75892107D01*
X116913829Y-75500982D01*
X117005600Y-75039619D01*
X117005600Y-74992381D01*
X117134400Y-74992381D01*
X117134400Y-75039619D01*
X117226171Y-75500982D01*
X117487512Y-75892107D01*
X117878637Y-76153448D01*
X118340000Y-76245219D01*
X118801363Y-76153448D01*
X119192488Y-75892107D01*
X119453829Y-75500982D01*
X119545600Y-75039619D01*
X119545600Y-74992381D01*
X119674400Y-74992381D01*
X119674400Y-75039619D01*
X119766171Y-75500982D01*
X120027512Y-75892107D01*
X120418637Y-76153448D01*
X120880000Y-76245219D01*
X121341363Y-76153448D01*
X121732488Y-75892107D01*
X121993829Y-75500982D01*
X122085600Y-75039619D01*
X122085600Y-74992381D01*
X122214400Y-74992381D01*
X122214400Y-75039619D01*
X122306171Y-75500982D01*
X122567512Y-75892107D01*
X122958637Y-76153448D01*
X123420000Y-76245219D01*
X123881363Y-76153448D01*
X124272488Y-75892107D01*
X124533829Y-75500982D01*
X124553718Y-75400991D01*
X124801908Y-75904419D01*
X125230046Y-76279975D01*
X125244593Y-76286000D01*
X125230046Y-76292025D01*
X124801908Y-76667581D01*
X124553718Y-77171009D01*
X124533829Y-77071018D01*
X124272488Y-76679893D01*
X123881363Y-76418552D01*
X123420000Y-76326781D01*
X122958637Y-76418552D01*
X122567512Y-76679893D01*
X122306171Y-77071018D01*
X122214400Y-77532381D01*
X122214400Y-77579619D01*
X122306171Y-78040982D01*
X122567512Y-78432107D01*
X122958637Y-78693448D01*
X123420000Y-78785219D01*
X123881363Y-78693448D01*
X124272488Y-78432107D01*
X124533829Y-78040982D01*
X124553718Y-77940991D01*
X124801908Y-78444419D01*
X125230046Y-78819975D01*
X125582393Y-78965910D01*
X125807600Y-78854286D01*
X125807600Y-77708400D01*
X126112400Y-77708400D01*
X126112400Y-78854286D01*
X126337607Y-78965910D01*
X126689954Y-78819975D01*
X127118092Y-78444419D01*
X127230000Y-78217425D01*
X127341908Y-78444419D01*
X127770046Y-78819975D01*
X128122393Y-78965910D01*
X128347600Y-78854286D01*
X128347600Y-77708400D01*
X128652400Y-77708400D01*
X128652400Y-78854286D01*
X128877607Y-78965910D01*
X129229954Y-78819975D01*
X129658092Y-78444419D01*
X129909921Y-77933609D01*
X129799234Y-77708400D01*
X128652400Y-77708400D01*
X128347600Y-77708400D01*
X126112400Y-77708400D01*
X125807600Y-77708400D01*
X125787600Y-77708400D01*
X125787600Y-77403600D01*
X125807600Y-77403600D01*
X125807600Y-75168400D01*
X126112400Y-75168400D01*
X126112400Y-77403600D01*
X128347600Y-77403600D01*
X128347600Y-75168400D01*
X128652400Y-75168400D01*
X128652400Y-77403600D01*
X129799234Y-77403600D01*
X129909921Y-77178391D01*
X129658092Y-76667581D01*
X129439232Y-76475600D01*
X129471257Y-76475600D01*
X129695311Y-76382794D01*
X129866794Y-76211311D01*
X129959600Y-75987257D01*
X129959600Y-75320800D01*
X129807200Y-75168400D01*
X128652400Y-75168400D01*
X128347600Y-75168400D01*
X126112400Y-75168400D01*
X125807600Y-75168400D01*
X125787600Y-75168400D01*
X125787600Y-74863600D01*
X125807600Y-74863600D01*
X125807600Y-73717714D01*
X126112400Y-73717714D01*
X126112400Y-74863600D01*
X128347600Y-74863600D01*
X128347600Y-73708800D01*
X128652400Y-73708800D01*
X128652400Y-74863600D01*
X129807200Y-74863600D01*
X129959600Y-74711200D01*
X129959600Y-74044743D01*
X129866794Y-73820689D01*
X129695311Y-73649206D01*
X129471257Y-73556400D01*
X128804800Y-73556400D01*
X128652400Y-73708800D01*
X128347600Y-73708800D01*
X128195200Y-73556400D01*
X127528743Y-73556400D01*
X127304689Y-73649206D01*
X127133206Y-73820689D01*
X127040400Y-74044743D01*
X127040400Y-74059431D01*
X126689954Y-73752025D01*
X126337607Y-73606090D01*
X126112400Y-73717714D01*
X125807600Y-73717714D01*
X125582393Y-73606090D01*
X125230046Y-73752025D01*
X124801908Y-74127581D01*
X124553718Y-74631009D01*
X124533829Y-74531018D01*
X124272488Y-74139893D01*
X123881363Y-73878552D01*
X123420000Y-73786781D01*
X122958637Y-73878552D01*
X122567512Y-74139893D01*
X122306171Y-74531018D01*
X122214400Y-74992381D01*
X122085600Y-74992381D01*
X121993829Y-74531018D01*
X121732488Y-74139893D01*
X121341363Y-73878552D01*
X120880000Y-73786781D01*
X120418637Y-73878552D01*
X120027512Y-74139893D01*
X119766171Y-74531018D01*
X119674400Y-74992381D01*
X119545600Y-74992381D01*
X119453829Y-74531018D01*
X119192488Y-74139893D01*
X118801363Y-73878552D01*
X118340000Y-73786781D01*
X117878637Y-73878552D01*
X117487512Y-74139893D01*
X117226171Y-74531018D01*
X117134400Y-74992381D01*
X117005600Y-74992381D01*
X116913829Y-74531018D01*
X116652488Y-74139893D01*
X116261363Y-73878552D01*
X115800000Y-73786781D01*
X115338637Y-73878552D01*
X114947512Y-74139893D01*
X114686171Y-74531018D01*
X114594400Y-74992381D01*
X114465600Y-74992381D01*
X114373829Y-74531018D01*
X114112488Y-74139893D01*
X113721363Y-73878552D01*
X113260000Y-73786781D01*
X112798637Y-73878552D01*
X112407512Y-74139893D01*
X112146171Y-74531018D01*
X112054400Y-74992381D01*
X111925600Y-74992381D01*
X111833829Y-74531018D01*
X111572488Y-74139893D01*
X111181363Y-73878552D01*
X110720000Y-73786781D01*
X110258637Y-73878552D01*
X109867512Y-74139893D01*
X109606171Y-74531018D01*
X109514400Y-74992381D01*
X109385600Y-74992381D01*
X109293829Y-74531018D01*
X109032488Y-74139893D01*
X108641363Y-73878552D01*
X108180000Y-73786781D01*
X107718637Y-73878552D01*
X107327512Y-74139893D01*
X107066171Y-74531018D01*
X106974400Y-74992381D01*
X106845600Y-74992381D01*
X106753829Y-74531018D01*
X106492488Y-74139893D01*
X106101363Y-73878552D01*
X105640000Y-73786781D01*
X105178637Y-73878552D01*
X104787512Y-74139893D01*
X104526171Y-74531018D01*
X104434400Y-74992381D01*
X104305600Y-74992381D01*
X104213829Y-74531018D01*
X103952488Y-74139893D01*
X103561363Y-73878552D01*
X103100000Y-73786781D01*
X102638637Y-73878552D01*
X102247512Y-74139893D01*
X101986171Y-74531018D01*
X101894400Y-74992381D01*
X101765600Y-74992381D01*
X101673829Y-74531018D01*
X101412488Y-74139893D01*
X101021363Y-73878552D01*
X100560000Y-73786781D01*
X100098637Y-73878552D01*
X99707512Y-74139893D01*
X99446171Y-74531018D01*
X99354400Y-74992381D01*
X99225600Y-74992381D01*
X99133829Y-74531018D01*
X98872488Y-74139893D01*
X98481363Y-73878552D01*
X98020000Y-73786781D01*
X97558637Y-73878552D01*
X97167512Y-74139893D01*
X96906171Y-74531018D01*
X96814400Y-74992381D01*
X96685600Y-74992381D01*
X96593829Y-74531018D01*
X96332488Y-74139893D01*
X95941363Y-73878552D01*
X95480000Y-73786781D01*
X95018637Y-73878552D01*
X94627512Y-74139893D01*
X94366171Y-74531018D01*
X94274400Y-74992381D01*
X94145600Y-74992381D01*
X94053829Y-74531018D01*
X93792488Y-74139893D01*
X93401363Y-73878552D01*
X92940000Y-73786781D01*
X92478637Y-73878552D01*
X92087512Y-74139893D01*
X91826171Y-74531018D01*
X91734400Y-74992381D01*
X91605600Y-74992381D01*
X91513829Y-74531018D01*
X91252488Y-74139893D01*
X90861363Y-73878552D01*
X90400000Y-73786781D01*
X89938637Y-73878552D01*
X89547512Y-74139893D01*
X89286171Y-74531018D01*
X89194400Y-74992381D01*
X89065600Y-74992381D01*
X88973829Y-74531018D01*
X88712488Y-74139893D01*
X88321363Y-73878552D01*
X87860000Y-73786781D01*
X87398637Y-73878552D01*
X87007512Y-74139893D01*
X86746171Y-74531018D01*
X86654400Y-74992381D01*
X86525600Y-74992381D01*
X86433829Y-74531018D01*
X86172488Y-74139893D01*
X85781363Y-73878552D01*
X85320000Y-73786781D01*
X84858637Y-73878552D01*
X84467512Y-74139893D01*
X84206171Y-74531018D01*
X84186282Y-74631009D01*
X83938092Y-74127581D01*
X83509954Y-73752025D01*
X83157607Y-73606090D01*
X82932400Y-73717714D01*
X82627600Y-73717714D01*
X82402393Y-73606090D01*
X82050046Y-73752025D01*
X81621908Y-74127581D01*
X81510000Y-74354575D01*
X81398092Y-74127581D01*
X80969954Y-73752025D01*
X80617607Y-73606090D01*
X80392400Y-73717714D01*
X80087600Y-73717714D01*
X79862393Y-73606090D01*
X79510046Y-73752025D01*
X79081908Y-74127581D01*
X78830079Y-74638391D01*
X63631182Y-74638391D01*
X63002536Y-74008648D01*
X61705361Y-73470014D01*
X60300801Y-73468788D01*
X59002688Y-74005157D01*
X58008648Y-74997464D01*
X57546100Y-76111404D01*
X57546100Y-53320800D01*
X65490400Y-53320800D01*
X65490400Y-54037257D01*
X65583206Y-54261311D01*
X65754689Y-54432794D01*
X65978743Y-54525600D01*
X66254961Y-54525600D01*
X65936175Y-54843831D01*
X65744618Y-55305150D01*
X65744182Y-55804659D01*
X65934933Y-56266311D01*
X66287831Y-56619825D01*
X66749150Y-56811382D01*
X67248659Y-56811818D01*
X67710311Y-56621067D01*
X68063825Y-56268169D01*
X68255382Y-55806850D01*
X68255818Y-55307341D01*
X68065067Y-54845689D01*
X67745536Y-54525600D01*
X68021257Y-54525600D01*
X68245311Y-54432794D01*
X68416794Y-54261311D01*
X68509600Y-54037257D01*
X68509600Y-53320800D01*
X70490400Y-53320800D01*
X70490400Y-54037257D01*
X70583206Y-54261311D01*
X70754689Y-54432794D01*
X70978743Y-54525600D01*
X71254961Y-54525600D01*
X70936175Y-54843831D01*
X70744618Y-55305150D01*
X70744182Y-55804659D01*
X70934933Y-56266311D01*
X71287831Y-56619825D01*
X71749150Y-56811382D01*
X72248659Y-56811818D01*
X72710311Y-56621067D01*
X73063825Y-56268169D01*
X73255382Y-55806850D01*
X73255818Y-55307341D01*
X73065067Y-54845689D01*
X72745536Y-54525600D01*
X73021257Y-54525600D01*
X73245311Y-54432794D01*
X73416794Y-54261311D01*
X73509600Y-54037257D01*
X73509600Y-53320800D01*
X75490400Y-53320800D01*
X75490400Y-54037257D01*
X75583206Y-54261311D01*
X75754689Y-54432794D01*
X75978743Y-54525600D01*
X76254961Y-54525600D01*
X75936175Y-54843831D01*
X75744618Y-55305150D01*
X75744182Y-55804659D01*
X75934933Y-56266311D01*
X76287831Y-56619825D01*
X76749150Y-56811382D01*
X77248659Y-56811818D01*
X77710311Y-56621067D01*
X78063825Y-56268169D01*
X78255382Y-55806850D01*
X78255818Y-55307341D01*
X78065067Y-54845689D01*
X77745536Y-54525600D01*
X78021257Y-54525600D01*
X78245311Y-54432794D01*
X78416794Y-54261311D01*
X78509600Y-54037257D01*
X78509600Y-53320800D01*
X80490400Y-53320800D01*
X80490400Y-54037257D01*
X80583206Y-54261311D01*
X80754689Y-54432794D01*
X80978743Y-54525600D01*
X81254961Y-54525600D01*
X80936175Y-54843831D01*
X80744618Y-55305150D01*
X80744182Y-55804659D01*
X80934933Y-56266311D01*
X81287831Y-56619825D01*
X81749150Y-56811382D01*
X82248659Y-56811818D01*
X82710311Y-56621067D01*
X83063825Y-56268169D01*
X83255382Y-55806850D01*
X83255818Y-55307341D01*
X83065067Y-54845689D01*
X82745536Y-54525600D01*
X83021257Y-54525600D01*
X83245311Y-54432794D01*
X83416794Y-54261311D01*
X83509600Y-54037257D01*
X83509600Y-53320800D01*
X85490400Y-53320800D01*
X85490400Y-54037257D01*
X85583206Y-54261311D01*
X85754689Y-54432794D01*
X85978743Y-54525600D01*
X86254961Y-54525600D01*
X85936175Y-54843831D01*
X85744618Y-55305150D01*
X85744182Y-55804659D01*
X85934933Y-56266311D01*
X86287831Y-56619825D01*
X86749150Y-56811382D01*
X87248659Y-56811818D01*
X87710311Y-56621067D01*
X88063825Y-56268169D01*
X88255382Y-55806850D01*
X88255818Y-55307341D01*
X88065067Y-54845689D01*
X87745536Y-54525600D01*
X88021257Y-54525600D01*
X88245311Y-54432794D01*
X88416794Y-54261311D01*
X88509600Y-54037257D01*
X88509600Y-53320800D01*
X90490400Y-53320800D01*
X90490400Y-54037257D01*
X90583206Y-54261311D01*
X90754689Y-54432794D01*
X90978743Y-54525600D01*
X91254961Y-54525600D01*
X90936175Y-54843831D01*
X90744618Y-55305150D01*
X90744182Y-55804659D01*
X90934933Y-56266311D01*
X91287831Y-56619825D01*
X91749150Y-56811382D01*
X92248659Y-56811818D01*
X92710311Y-56621067D01*
X93063825Y-56268169D01*
X93255382Y-55806850D01*
X93255818Y-55307341D01*
X93065067Y-54845689D01*
X92745536Y-54525600D01*
X93021257Y-54525600D01*
X93245311Y-54432794D01*
X93416794Y-54261311D01*
X93509600Y-54037257D01*
X93509600Y-53320800D01*
X95490400Y-53320800D01*
X95490400Y-54037257D01*
X95583206Y-54261311D01*
X95754689Y-54432794D01*
X95978743Y-54525600D01*
X96254961Y-54525600D01*
X95936175Y-54843831D01*
X95744618Y-55305150D01*
X95744182Y-55804659D01*
X95934933Y-56266311D01*
X96287831Y-56619825D01*
X96749150Y-56811382D01*
X97248659Y-56811818D01*
X97710311Y-56621067D01*
X98063825Y-56268169D01*
X98255382Y-55806850D01*
X98255818Y-55307341D01*
X98065067Y-54845689D01*
X97745536Y-54525600D01*
X98021257Y-54525600D01*
X98245311Y-54432794D01*
X98416794Y-54261311D01*
X98509600Y-54037257D01*
X98509600Y-53320800D01*
X100490400Y-53320800D01*
X100490400Y-54037257D01*
X100583206Y-54261311D01*
X100754689Y-54432794D01*
X100978743Y-54525600D01*
X101254961Y-54525600D01*
X100936175Y-54843831D01*
X100744618Y-55305150D01*
X100744182Y-55804659D01*
X100934933Y-56266311D01*
X101287831Y-56619825D01*
X101749150Y-56811382D01*
X102248659Y-56811818D01*
X102710311Y-56621067D01*
X103063825Y-56268169D01*
X103255382Y-55806850D01*
X103255818Y-55307341D01*
X103065067Y-54845689D01*
X102745536Y-54525600D01*
X103021257Y-54525600D01*
X103245311Y-54432794D01*
X103416794Y-54261311D01*
X103509600Y-54037257D01*
X103509600Y-53320800D01*
X105490400Y-53320800D01*
X105490400Y-54037257D01*
X105583206Y-54261311D01*
X105754689Y-54432794D01*
X105978743Y-54525600D01*
X106254961Y-54525600D01*
X105936175Y-54843831D01*
X105744618Y-55305150D01*
X105744182Y-55804659D01*
X105934933Y-56266311D01*
X106287831Y-56619825D01*
X106749150Y-56811382D01*
X107248659Y-56811818D01*
X107710311Y-56621067D01*
X108063825Y-56268169D01*
X108255382Y-55806850D01*
X108255818Y-55307341D01*
X108065067Y-54845689D01*
X107745536Y-54525600D01*
X108021257Y-54525600D01*
X108245311Y-54432794D01*
X108416794Y-54261311D01*
X108509600Y-54037257D01*
X108509600Y-53320800D01*
X110490400Y-53320800D01*
X110490400Y-54037257D01*
X110583206Y-54261311D01*
X110754689Y-54432794D01*
X110978743Y-54525600D01*
X111254961Y-54525600D01*
X110936175Y-54843831D01*
X110744618Y-55305150D01*
X110744182Y-55804659D01*
X110934933Y-56266311D01*
X111287831Y-56619825D01*
X111749150Y-56811382D01*
X112248659Y-56811818D01*
X112710311Y-56621067D01*
X113063825Y-56268169D01*
X113255382Y-55806850D01*
X113255818Y-55307341D01*
X113065067Y-54845689D01*
X112745536Y-54525600D01*
X113021257Y-54525600D01*
X113245311Y-54432794D01*
X113416794Y-54261311D01*
X113509600Y-54037257D01*
X113509600Y-53320800D01*
X115490400Y-53320800D01*
X115490400Y-54037257D01*
X115583206Y-54261311D01*
X115754689Y-54432794D01*
X115978743Y-54525600D01*
X116254961Y-54525600D01*
X115936175Y-54843831D01*
X115744618Y-55305150D01*
X115744182Y-55804659D01*
X115934933Y-56266311D01*
X116287831Y-56619825D01*
X116749150Y-56811382D01*
X117248659Y-56811818D01*
X117710311Y-56621067D01*
X118063825Y-56268169D01*
X118255382Y-55806850D01*
X118255818Y-55307341D01*
X118065067Y-54845689D01*
X117745536Y-54525600D01*
X118021257Y-54525600D01*
X118245311Y-54432794D01*
X118416794Y-54261311D01*
X118509600Y-54037257D01*
X118509600Y-53320800D01*
X120490400Y-53320800D01*
X120490400Y-54037257D01*
X120583206Y-54261311D01*
X120754689Y-54432794D01*
X120978743Y-54525600D01*
X121254961Y-54525600D01*
X120936175Y-54843831D01*
X120744618Y-55305150D01*
X120744182Y-55804659D01*
X120934933Y-56266311D01*
X121287831Y-56619825D01*
X121749150Y-56811382D01*
X122248659Y-56811818D01*
X122710311Y-56621067D01*
X123063825Y-56268169D01*
X123255382Y-55806850D01*
X123255818Y-55307341D01*
X123065067Y-54845689D01*
X122745536Y-54525600D01*
X123021257Y-54525600D01*
X123245311Y-54432794D01*
X123416794Y-54261311D01*
X123509600Y-54037257D01*
X123509600Y-53320800D01*
X125490400Y-53320800D01*
X125490400Y-54037257D01*
X125583206Y-54261311D01*
X125754689Y-54432794D01*
X125978743Y-54525600D01*
X126254961Y-54525600D01*
X125936175Y-54843831D01*
X125744618Y-55305150D01*
X125744182Y-55804659D01*
X125934933Y-56266311D01*
X126287831Y-56619825D01*
X126749150Y-56811382D01*
X127248659Y-56811818D01*
X127710311Y-56621067D01*
X128063825Y-56268169D01*
X128255382Y-55806850D01*
X128255818Y-55307341D01*
X128065067Y-54845689D01*
X127745536Y-54525600D01*
X128021257Y-54525600D01*
X128245311Y-54432794D01*
X128416794Y-54261311D01*
X128509600Y-54037257D01*
X128509600Y-53320800D01*
X130490400Y-53320800D01*
X130490400Y-54037257D01*
X130583206Y-54261311D01*
X130754689Y-54432794D01*
X130978743Y-54525600D01*
X131254961Y-54525600D01*
X130936175Y-54843831D01*
X130744618Y-55305150D01*
X130744182Y-55804659D01*
X130934933Y-56266311D01*
X131287831Y-56619825D01*
X131749150Y-56811382D01*
X132248659Y-56811818D01*
X132710311Y-56621067D01*
X133063825Y-56268169D01*
X133255382Y-55806850D01*
X133255818Y-55307341D01*
X133065067Y-54845689D01*
X132745536Y-54525600D01*
X133021257Y-54525600D01*
X133245311Y-54432794D01*
X133416794Y-54261311D01*
X133509600Y-54037257D01*
X133509600Y-53320800D01*
X135490400Y-53320800D01*
X135490400Y-54037257D01*
X135583206Y-54261311D01*
X135754689Y-54432794D01*
X135978743Y-54525600D01*
X136254961Y-54525600D01*
X135936175Y-54843831D01*
X135744618Y-55305150D01*
X135744182Y-55804659D01*
X135934933Y-56266311D01*
X136287831Y-56619825D01*
X136749150Y-56811382D01*
X137248659Y-56811818D01*
X137710311Y-56621067D01*
X138063825Y-56268169D01*
X138255382Y-55806850D01*
X138255818Y-55307341D01*
X138065067Y-54845689D01*
X137745536Y-54525600D01*
X138021257Y-54525600D01*
X138245311Y-54432794D01*
X138416794Y-54261311D01*
X138509600Y-54037257D01*
X138509600Y-53320800D01*
X140490400Y-53320800D01*
X140490400Y-54037257D01*
X140583206Y-54261311D01*
X140754689Y-54432794D01*
X140978743Y-54525600D01*
X141254961Y-54525600D01*
X140936175Y-54843831D01*
X140744618Y-55305150D01*
X140744182Y-55804659D01*
X140934933Y-56266311D01*
X141287831Y-56619825D01*
X141749150Y-56811382D01*
X142248659Y-56811818D01*
X142710311Y-56621067D01*
X143063825Y-56268169D01*
X143255382Y-55806850D01*
X143255818Y-55307341D01*
X143065067Y-54845689D01*
X142745536Y-54525600D01*
X143021257Y-54525600D01*
X143245311Y-54432794D01*
X143416794Y-54261311D01*
X143509600Y-54037257D01*
X143509600Y-53320800D01*
X143357200Y-53168400D01*
X142152400Y-53168400D01*
X142152400Y-53188400D01*
X141847600Y-53188400D01*
X141847600Y-53168400D01*
X140642800Y-53168400D01*
X140490400Y-53320800D01*
X138509600Y-53320800D01*
X138357200Y-53168400D01*
X137152400Y-53168400D01*
X137152400Y-53188400D01*
X136847600Y-53188400D01*
X136847600Y-53168400D01*
X135642800Y-53168400D01*
X135490400Y-53320800D01*
X133509600Y-53320800D01*
X133357200Y-53168400D01*
X132152400Y-53168400D01*
X132152400Y-53188400D01*
X131847600Y-53188400D01*
X131847600Y-53168400D01*
X130642800Y-53168400D01*
X130490400Y-53320800D01*
X128509600Y-53320800D01*
X128357200Y-53168400D01*
X127152400Y-53168400D01*
X127152400Y-53188400D01*
X126847600Y-53188400D01*
X126847600Y-53168400D01*
X125642800Y-53168400D01*
X125490400Y-53320800D01*
X123509600Y-53320800D01*
X123357200Y-53168400D01*
X122152400Y-53168400D01*
X122152400Y-53188400D01*
X121847600Y-53188400D01*
X121847600Y-53168400D01*
X120642800Y-53168400D01*
X120490400Y-53320800D01*
X118509600Y-53320800D01*
X118357200Y-53168400D01*
X117152400Y-53168400D01*
X117152400Y-53188400D01*
X116847600Y-53188400D01*
X116847600Y-53168400D01*
X115642800Y-53168400D01*
X115490400Y-53320800D01*
X113509600Y-53320800D01*
X113357200Y-53168400D01*
X112152400Y-53168400D01*
X112152400Y-53188400D01*
X111847600Y-53188400D01*
X111847600Y-53168400D01*
X110642800Y-53168400D01*
X110490400Y-53320800D01*
X108509600Y-53320800D01*
X108357200Y-53168400D01*
X107152400Y-53168400D01*
X107152400Y-53188400D01*
X106847600Y-53188400D01*
X106847600Y-53168400D01*
X105642800Y-53168400D01*
X105490400Y-53320800D01*
X103509600Y-53320800D01*
X103357200Y-53168400D01*
X102152400Y-53168400D01*
X102152400Y-53188400D01*
X101847600Y-53188400D01*
X101847600Y-53168400D01*
X100642800Y-53168400D01*
X100490400Y-53320800D01*
X98509600Y-53320800D01*
X98357200Y-53168400D01*
X97152400Y-53168400D01*
X97152400Y-53188400D01*
X96847600Y-53188400D01*
X96847600Y-53168400D01*
X95642800Y-53168400D01*
X95490400Y-53320800D01*
X93509600Y-53320800D01*
X93357200Y-53168400D01*
X92152400Y-53168400D01*
X92152400Y-53188400D01*
X91847600Y-53188400D01*
X91847600Y-53168400D01*
X90642800Y-53168400D01*
X90490400Y-53320800D01*
X88509600Y-53320800D01*
X88357200Y-53168400D01*
X87152400Y-53168400D01*
X87152400Y-53188400D01*
X86847600Y-53188400D01*
X86847600Y-53168400D01*
X85642800Y-53168400D01*
X85490400Y-53320800D01*
X83509600Y-53320800D01*
X83357200Y-53168400D01*
X82152400Y-53168400D01*
X82152400Y-53188400D01*
X81847600Y-53188400D01*
X81847600Y-53168400D01*
X80642800Y-53168400D01*
X80490400Y-53320800D01*
X78509600Y-53320800D01*
X78357200Y-53168400D01*
X77152400Y-53168400D01*
X77152400Y-53188400D01*
X76847600Y-53188400D01*
X76847600Y-53168400D01*
X75642800Y-53168400D01*
X75490400Y-53320800D01*
X73509600Y-53320800D01*
X73357200Y-53168400D01*
X72152400Y-53168400D01*
X72152400Y-53188400D01*
X71847600Y-53188400D01*
X71847600Y-53168400D01*
X70642800Y-53168400D01*
X70490400Y-53320800D01*
X68509600Y-53320800D01*
X68357200Y-53168400D01*
X67152400Y-53168400D01*
X67152400Y-53188400D01*
X66847600Y-53188400D01*
X66847600Y-53168400D01*
X65642800Y-53168400D01*
X65490400Y-53320800D01*
X57546100Y-53320800D01*
X57546100Y-51994743D01*
X65490400Y-51994743D01*
X65490400Y-52711200D01*
X65642800Y-52863600D01*
X66847600Y-52863600D01*
X66847600Y-51658800D01*
X67152400Y-51658800D01*
X67152400Y-52863600D01*
X68357200Y-52863600D01*
X68509600Y-52711200D01*
X68509600Y-51994743D01*
X70490400Y-51994743D01*
X70490400Y-52711200D01*
X70642800Y-52863600D01*
X71847600Y-52863600D01*
X71847600Y-51658800D01*
X72152400Y-51658800D01*
X72152400Y-52863600D01*
X73357200Y-52863600D01*
X73509600Y-52711200D01*
X73509600Y-51994743D01*
X75490400Y-51994743D01*
X75490400Y-52711200D01*
X75642800Y-52863600D01*
X76847600Y-52863600D01*
X76847600Y-51658800D01*
X77152400Y-51658800D01*
X77152400Y-52863600D01*
X78357200Y-52863600D01*
X78509600Y-52711200D01*
X78509600Y-51994743D01*
X80490400Y-51994743D01*
X80490400Y-52711200D01*
X80642800Y-52863600D01*
X81847600Y-52863600D01*
X81847600Y-51658800D01*
X82152400Y-51658800D01*
X82152400Y-52863600D01*
X83357200Y-52863600D01*
X83509600Y-52711200D01*
X83509600Y-51994743D01*
X85490400Y-51994743D01*
X85490400Y-52711200D01*
X85642800Y-52863600D01*
X86847600Y-52863600D01*
X86847600Y-51658800D01*
X87152400Y-51658800D01*
X87152400Y-52863600D01*
X88357200Y-52863600D01*
X88509600Y-52711200D01*
X88509600Y-51994743D01*
X90490400Y-51994743D01*
X90490400Y-52711200D01*
X90642800Y-52863600D01*
X91847600Y-52863600D01*
X91847600Y-51658800D01*
X92152400Y-51658800D01*
X92152400Y-52863600D01*
X93357200Y-52863600D01*
X93509600Y-52711200D01*
X93509600Y-51994743D01*
X95490400Y-51994743D01*
X95490400Y-52711200D01*
X95642800Y-52863600D01*
X96847600Y-52863600D01*
X96847600Y-51658800D01*
X97152400Y-51658800D01*
X97152400Y-52863600D01*
X98357200Y-52863600D01*
X98509600Y-52711200D01*
X98509600Y-51994743D01*
X100490400Y-51994743D01*
X100490400Y-52711200D01*
X100642800Y-52863600D01*
X101847600Y-52863600D01*
X101847600Y-51658800D01*
X102152400Y-51658800D01*
X102152400Y-52863600D01*
X103357200Y-52863600D01*
X103509600Y-52711200D01*
X103509600Y-51994743D01*
X105490400Y-51994743D01*
X105490400Y-52711200D01*
X105642800Y-52863600D01*
X106847600Y-52863600D01*
X106847600Y-51658800D01*
X107152400Y-51658800D01*
X107152400Y-52863600D01*
X108357200Y-52863600D01*
X108509600Y-52711200D01*
X108509600Y-51994743D01*
X110490400Y-51994743D01*
X110490400Y-52711200D01*
X110642800Y-52863600D01*
X111847600Y-52863600D01*
X111847600Y-51658800D01*
X112152400Y-51658800D01*
X112152400Y-52863600D01*
X113357200Y-52863600D01*
X113509600Y-52711200D01*
X113509600Y-51994743D01*
X115490400Y-51994743D01*
X115490400Y-52711200D01*
X115642800Y-52863600D01*
X116847600Y-52863600D01*
X116847600Y-51658800D01*
X117152400Y-51658800D01*
X117152400Y-52863600D01*
X118357200Y-52863600D01*
X118509600Y-52711200D01*
X118509600Y-51994743D01*
X120490400Y-51994743D01*
X120490400Y-52711200D01*
X120642800Y-52863600D01*
X121847600Y-52863600D01*
X121847600Y-51658800D01*
X122152400Y-51658800D01*
X122152400Y-52863600D01*
X123357200Y-52863600D01*
X123509600Y-52711200D01*
X123509600Y-51994743D01*
X125490400Y-51994743D01*
X125490400Y-52711200D01*
X125642800Y-52863600D01*
X126847600Y-52863600D01*
X126847600Y-51658800D01*
X127152400Y-51658800D01*
X127152400Y-52863600D01*
X128357200Y-52863600D01*
X128509600Y-52711200D01*
X128509600Y-51994743D01*
X130490400Y-51994743D01*
X130490400Y-52711200D01*
X130642800Y-52863600D01*
X131847600Y-52863600D01*
X131847600Y-51658800D01*
X132152400Y-51658800D01*
X132152400Y-52863600D01*
X133357200Y-52863600D01*
X133509600Y-52711200D01*
X133509600Y-51994743D01*
X135490400Y-51994743D01*
X135490400Y-52711200D01*
X135642800Y-52863600D01*
X136847600Y-52863600D01*
X136847600Y-51658800D01*
X137152400Y-51658800D01*
X137152400Y-52863600D01*
X138357200Y-52863600D01*
X138509600Y-52711200D01*
X138509600Y-51994743D01*
X140490400Y-51994743D01*
X140490400Y-52711200D01*
X140642800Y-52863600D01*
X141847600Y-52863600D01*
X141847600Y-51658800D01*
X142152400Y-51658800D01*
X142152400Y-52863600D01*
X143357200Y-52863600D01*
X143509600Y-52711200D01*
X143509600Y-51994743D01*
X143416794Y-51770689D01*
X143245311Y-51599206D01*
X143021257Y-51506400D01*
X142304800Y-51506400D01*
X142152400Y-51658800D01*
X141847600Y-51658800D01*
X141695200Y-51506400D01*
X140978743Y-51506400D01*
X140754689Y-51599206D01*
X140583206Y-51770689D01*
X140490400Y-51994743D01*
X138509600Y-51994743D01*
X138416794Y-51770689D01*
X138245311Y-51599206D01*
X138021257Y-51506400D01*
X137304800Y-51506400D01*
X137152400Y-51658800D01*
X136847600Y-51658800D01*
X136695200Y-51506400D01*
X135978743Y-51506400D01*
X135754689Y-51599206D01*
X135583206Y-51770689D01*
X135490400Y-51994743D01*
X133509600Y-51994743D01*
X133416794Y-51770689D01*
X133245311Y-51599206D01*
X133021257Y-51506400D01*
X132304800Y-51506400D01*
X132152400Y-51658800D01*
X131847600Y-51658800D01*
X131695200Y-51506400D01*
X130978743Y-51506400D01*
X130754689Y-51599206D01*
X130583206Y-51770689D01*
X130490400Y-51994743D01*
X128509600Y-51994743D01*
X128416794Y-51770689D01*
X128245311Y-51599206D01*
X128021257Y-51506400D01*
X127304800Y-51506400D01*
X127152400Y-51658800D01*
X126847600Y-51658800D01*
X126695200Y-51506400D01*
X125978743Y-51506400D01*
X125754689Y-51599206D01*
X125583206Y-51770689D01*
X125490400Y-51994743D01*
X123509600Y-51994743D01*
X123416794Y-51770689D01*
X123245311Y-51599206D01*
X123021257Y-51506400D01*
X122304800Y-51506400D01*
X122152400Y-51658800D01*
X121847600Y-51658800D01*
X121695200Y-51506400D01*
X120978743Y-51506400D01*
X120754689Y-51599206D01*
X120583206Y-51770689D01*
X120490400Y-51994743D01*
X118509600Y-51994743D01*
X118416794Y-51770689D01*
X118245311Y-51599206D01*
X118021257Y-51506400D01*
X117304800Y-51506400D01*
X117152400Y-51658800D01*
X116847600Y-51658800D01*
X116695200Y-51506400D01*
X115978743Y-51506400D01*
X115754689Y-51599206D01*
X115583206Y-51770689D01*
X115490400Y-51994743D01*
X113509600Y-51994743D01*
X113416794Y-51770689D01*
X113245311Y-51599206D01*
X113021257Y-51506400D01*
X112304800Y-51506400D01*
X112152400Y-51658800D01*
X111847600Y-51658800D01*
X111695200Y-51506400D01*
X110978743Y-51506400D01*
X110754689Y-51599206D01*
X110583206Y-51770689D01*
X110490400Y-51994743D01*
X108509600Y-51994743D01*
X108416794Y-51770689D01*
X108245311Y-51599206D01*
X108021257Y-51506400D01*
X107304800Y-51506400D01*
X107152400Y-51658800D01*
X106847600Y-51658800D01*
X106695200Y-51506400D01*
X105978743Y-51506400D01*
X105754689Y-51599206D01*
X105583206Y-51770689D01*
X105490400Y-51994743D01*
X103509600Y-51994743D01*
X103416794Y-51770689D01*
X103245311Y-51599206D01*
X103021257Y-51506400D01*
X102304800Y-51506400D01*
X102152400Y-51658800D01*
X101847600Y-51658800D01*
X101695200Y-51506400D01*
X100978743Y-51506400D01*
X100754689Y-51599206D01*
X100583206Y-51770689D01*
X100490400Y-51994743D01*
X98509600Y-51994743D01*
X98416794Y-51770689D01*
X98245311Y-51599206D01*
X98021257Y-51506400D01*
X97304800Y-51506400D01*
X97152400Y-51658800D01*
X96847600Y-51658800D01*
X96695200Y-51506400D01*
X95978743Y-51506400D01*
X95754689Y-51599206D01*
X95583206Y-51770689D01*
X95490400Y-51994743D01*
X93509600Y-51994743D01*
X93416794Y-51770689D01*
X93245311Y-51599206D01*
X93021257Y-51506400D01*
X92304800Y-51506400D01*
X92152400Y-51658800D01*
X91847600Y-51658800D01*
X91695200Y-51506400D01*
X90978743Y-51506400D01*
X90754689Y-51599206D01*
X90583206Y-51770689D01*
X90490400Y-51994743D01*
X88509600Y-51994743D01*
X88416794Y-51770689D01*
X88245311Y-51599206D01*
X88021257Y-51506400D01*
X87304800Y-51506400D01*
X87152400Y-51658800D01*
X86847600Y-51658800D01*
X86695200Y-51506400D01*
X85978743Y-51506400D01*
X85754689Y-51599206D01*
X85583206Y-51770689D01*
X85490400Y-51994743D01*
X83509600Y-51994743D01*
X83416794Y-51770689D01*
X83245311Y-51599206D01*
X83021257Y-51506400D01*
X82304800Y-51506400D01*
X82152400Y-51658800D01*
X81847600Y-51658800D01*
X81695200Y-51506400D01*
X80978743Y-51506400D01*
X80754689Y-51599206D01*
X80583206Y-51770689D01*
X80490400Y-51994743D01*
X78509600Y-51994743D01*
X78416794Y-51770689D01*
X78245311Y-51599206D01*
X78021257Y-51506400D01*
X77304800Y-51506400D01*
X77152400Y-51658800D01*
X76847600Y-51658800D01*
X76695200Y-51506400D01*
X75978743Y-51506400D01*
X75754689Y-51599206D01*
X75583206Y-51770689D01*
X75490400Y-51994743D01*
X73509600Y-51994743D01*
X73416794Y-51770689D01*
X73245311Y-51599206D01*
X73021257Y-51506400D01*
X72304800Y-51506400D01*
X72152400Y-51658800D01*
X71847600Y-51658800D01*
X71695200Y-51506400D01*
X70978743Y-51506400D01*
X70754689Y-51599206D01*
X70583206Y-51770689D01*
X70490400Y-51994743D01*
X68509600Y-51994743D01*
X68416794Y-51770689D01*
X68245311Y-51599206D01*
X68021257Y-51506400D01*
X67304800Y-51506400D01*
X67152400Y-51658800D01*
X66847600Y-51658800D01*
X66695200Y-51506400D01*
X65978743Y-51506400D01*
X65754689Y-51599206D01*
X65583206Y-51770689D01*
X65490400Y-51994743D01*
X57546100Y-51994743D01*
X57546100Y-40886308D01*
X58005157Y-41997312D01*
X58997464Y-42991352D01*
X60294639Y-43529986D01*
X61699199Y-43531212D01*
X62997312Y-42994843D01*
X63991352Y-42002536D01*
X64529986Y-40705361D01*
X64530321Y-40320800D01*
X65490400Y-40320800D01*
X65490400Y-41037257D01*
X65583206Y-41261311D01*
X65754689Y-41432794D01*
X65978743Y-41525600D01*
X66254961Y-41525600D01*
X65936175Y-41843831D01*
X65744618Y-42305150D01*
X65744182Y-42804659D01*
X65934933Y-43266311D01*
X66287831Y-43619825D01*
X66749150Y-43811382D01*
X67248659Y-43811818D01*
X67710311Y-43621067D01*
X68063825Y-43268169D01*
X68255382Y-42806850D01*
X68255818Y-42307341D01*
X68065067Y-41845689D01*
X67745536Y-41525600D01*
X68021257Y-41525600D01*
X68245311Y-41432794D01*
X68416794Y-41261311D01*
X68509600Y-41037257D01*
X68509600Y-40320800D01*
X70490400Y-40320800D01*
X70490400Y-41037257D01*
X70583206Y-41261311D01*
X70754689Y-41432794D01*
X70978743Y-41525600D01*
X71254961Y-41525600D01*
X70936175Y-41843831D01*
X70744618Y-42305150D01*
X70744182Y-42804659D01*
X70934933Y-43266311D01*
X71287831Y-43619825D01*
X71749150Y-43811382D01*
X72248659Y-43811818D01*
X72710311Y-43621067D01*
X73063825Y-43268169D01*
X73255382Y-42806850D01*
X73255818Y-42307341D01*
X73065067Y-41845689D01*
X72745536Y-41525600D01*
X73021257Y-41525600D01*
X73245311Y-41432794D01*
X73416794Y-41261311D01*
X73509600Y-41037257D01*
X73509600Y-40320800D01*
X75490400Y-40320800D01*
X75490400Y-41037257D01*
X75583206Y-41261311D01*
X75754689Y-41432794D01*
X75978743Y-41525600D01*
X76254961Y-41525600D01*
X75936175Y-41843831D01*
X75744618Y-42305150D01*
X75744182Y-42804659D01*
X75934933Y-43266311D01*
X76287831Y-43619825D01*
X76749150Y-43811382D01*
X77248659Y-43811818D01*
X77710311Y-43621067D01*
X78063825Y-43268169D01*
X78255382Y-42806850D01*
X78255818Y-42307341D01*
X78065067Y-41845689D01*
X77745536Y-41525600D01*
X78021257Y-41525600D01*
X78245311Y-41432794D01*
X78416794Y-41261311D01*
X78509600Y-41037257D01*
X78509600Y-40320800D01*
X80490400Y-40320800D01*
X80490400Y-41037257D01*
X80583206Y-41261311D01*
X80754689Y-41432794D01*
X80978743Y-41525600D01*
X81254961Y-41525600D01*
X80936175Y-41843831D01*
X80744618Y-42305150D01*
X80744182Y-42804659D01*
X80934933Y-43266311D01*
X81287831Y-43619825D01*
X81749150Y-43811382D01*
X82248659Y-43811818D01*
X82710311Y-43621067D01*
X83063825Y-43268169D01*
X83255382Y-42806850D01*
X83255818Y-42307341D01*
X83065067Y-41845689D01*
X82745536Y-41525600D01*
X83021257Y-41525600D01*
X83245311Y-41432794D01*
X83416794Y-41261311D01*
X83509600Y-41037257D01*
X83509600Y-40320800D01*
X85490400Y-40320800D01*
X85490400Y-41037257D01*
X85583206Y-41261311D01*
X85754689Y-41432794D01*
X85978743Y-41525600D01*
X86254961Y-41525600D01*
X85936175Y-41843831D01*
X85744618Y-42305150D01*
X85744182Y-42804659D01*
X85934933Y-43266311D01*
X86287831Y-43619825D01*
X86749150Y-43811382D01*
X87248659Y-43811818D01*
X87710311Y-43621067D01*
X88063825Y-43268169D01*
X88255382Y-42806850D01*
X88255818Y-42307341D01*
X88065067Y-41845689D01*
X87745536Y-41525600D01*
X88021257Y-41525600D01*
X88245311Y-41432794D01*
X88416794Y-41261311D01*
X88509600Y-41037257D01*
X88509600Y-40320800D01*
X90490400Y-40320800D01*
X90490400Y-41037257D01*
X90583206Y-41261311D01*
X90754689Y-41432794D01*
X90978743Y-41525600D01*
X91254961Y-41525600D01*
X90936175Y-41843831D01*
X90744618Y-42305150D01*
X90744182Y-42804659D01*
X90934933Y-43266311D01*
X91287831Y-43619825D01*
X91749150Y-43811382D01*
X92248659Y-43811818D01*
X92710311Y-43621067D01*
X93063825Y-43268169D01*
X93255382Y-42806850D01*
X93255818Y-42307341D01*
X93065067Y-41845689D01*
X92745536Y-41525600D01*
X93021257Y-41525600D01*
X93245311Y-41432794D01*
X93416794Y-41261311D01*
X93509600Y-41037257D01*
X93509600Y-40320800D01*
X95490400Y-40320800D01*
X95490400Y-41037257D01*
X95583206Y-41261311D01*
X95754689Y-41432794D01*
X95978743Y-41525600D01*
X96254961Y-41525600D01*
X95936175Y-41843831D01*
X95744618Y-42305150D01*
X95744182Y-42804659D01*
X95934933Y-43266311D01*
X96287831Y-43619825D01*
X96749150Y-43811382D01*
X97248659Y-43811818D01*
X97710311Y-43621067D01*
X98063825Y-43268169D01*
X98255382Y-42806850D01*
X98255818Y-42307341D01*
X98065067Y-41845689D01*
X97745536Y-41525600D01*
X98021257Y-41525600D01*
X98245311Y-41432794D01*
X98416794Y-41261311D01*
X98509600Y-41037257D01*
X98509600Y-40320800D01*
X100490400Y-40320800D01*
X100490400Y-41037257D01*
X100583206Y-41261311D01*
X100754689Y-41432794D01*
X100978743Y-41525600D01*
X101254961Y-41525600D01*
X100936175Y-41843831D01*
X100744618Y-42305150D01*
X100744182Y-42804659D01*
X100934933Y-43266311D01*
X101287831Y-43619825D01*
X101749150Y-43811382D01*
X102248659Y-43811818D01*
X102710311Y-43621067D01*
X103063825Y-43268169D01*
X103255382Y-42806850D01*
X103255818Y-42307341D01*
X103065067Y-41845689D01*
X102745536Y-41525600D01*
X103021257Y-41525600D01*
X103245311Y-41432794D01*
X103416794Y-41261311D01*
X103509600Y-41037257D01*
X103509600Y-40320800D01*
X105490400Y-40320800D01*
X105490400Y-41037257D01*
X105583206Y-41261311D01*
X105754689Y-41432794D01*
X105978743Y-41525600D01*
X106254961Y-41525600D01*
X105936175Y-41843831D01*
X105744618Y-42305150D01*
X105744182Y-42804659D01*
X105934933Y-43266311D01*
X106287831Y-43619825D01*
X106749150Y-43811382D01*
X107248659Y-43811818D01*
X107710311Y-43621067D01*
X108063825Y-43268169D01*
X108255382Y-42806850D01*
X108255818Y-42307341D01*
X108065067Y-41845689D01*
X107745536Y-41525600D01*
X108021257Y-41525600D01*
X108245311Y-41432794D01*
X108416794Y-41261311D01*
X108509600Y-41037257D01*
X108509600Y-40320800D01*
X110490400Y-40320800D01*
X110490400Y-41037257D01*
X110583206Y-41261311D01*
X110754689Y-41432794D01*
X110978743Y-41525600D01*
X111254961Y-41525600D01*
X110936175Y-41843831D01*
X110744618Y-42305150D01*
X110744182Y-42804659D01*
X110934933Y-43266311D01*
X111287831Y-43619825D01*
X111749150Y-43811382D01*
X112248659Y-43811818D01*
X112710311Y-43621067D01*
X113063825Y-43268169D01*
X113255382Y-42806850D01*
X113255818Y-42307341D01*
X113065067Y-41845689D01*
X112745536Y-41525600D01*
X113021257Y-41525600D01*
X113245311Y-41432794D01*
X113416794Y-41261311D01*
X113509600Y-41037257D01*
X113509600Y-40320800D01*
X115490400Y-40320800D01*
X115490400Y-41037257D01*
X115583206Y-41261311D01*
X115754689Y-41432794D01*
X115978743Y-41525600D01*
X116254961Y-41525600D01*
X115936175Y-41843831D01*
X115744618Y-42305150D01*
X115744182Y-42804659D01*
X115934933Y-43266311D01*
X116287831Y-43619825D01*
X116749150Y-43811382D01*
X117248659Y-43811818D01*
X117710311Y-43621067D01*
X118063825Y-43268169D01*
X118255382Y-42806850D01*
X118255818Y-42307341D01*
X118065067Y-41845689D01*
X117745536Y-41525600D01*
X118021257Y-41525600D01*
X118245311Y-41432794D01*
X118416794Y-41261311D01*
X118509600Y-41037257D01*
X118509600Y-40320800D01*
X120490400Y-40320800D01*
X120490400Y-41037257D01*
X120583206Y-41261311D01*
X120754689Y-41432794D01*
X120978743Y-41525600D01*
X121254961Y-41525600D01*
X120936175Y-41843831D01*
X120744618Y-42305150D01*
X120744182Y-42804659D01*
X120934933Y-43266311D01*
X121287831Y-43619825D01*
X121749150Y-43811382D01*
X122248659Y-43811818D01*
X122710311Y-43621067D01*
X123063825Y-43268169D01*
X123255382Y-42806850D01*
X123255818Y-42307341D01*
X123065067Y-41845689D01*
X122745536Y-41525600D01*
X123021257Y-41525600D01*
X123245311Y-41432794D01*
X123416794Y-41261311D01*
X123509600Y-41037257D01*
X123509600Y-40320800D01*
X125490400Y-40320800D01*
X125490400Y-41037257D01*
X125583206Y-41261311D01*
X125754689Y-41432794D01*
X125978743Y-41525600D01*
X126254961Y-41525600D01*
X125936175Y-41843831D01*
X125744618Y-42305150D01*
X125744182Y-42804659D01*
X125934933Y-43266311D01*
X126287831Y-43619825D01*
X126749150Y-43811382D01*
X127248659Y-43811818D01*
X127710311Y-43621067D01*
X128063825Y-43268169D01*
X128255382Y-42806850D01*
X128255818Y-42307341D01*
X128065067Y-41845689D01*
X127745536Y-41525600D01*
X128021257Y-41525600D01*
X128245311Y-41432794D01*
X128416794Y-41261311D01*
X128509600Y-41037257D01*
X128509600Y-40320800D01*
X130490400Y-40320800D01*
X130490400Y-41037257D01*
X130583206Y-41261311D01*
X130754689Y-41432794D01*
X130978743Y-41525600D01*
X131254961Y-41525600D01*
X130936175Y-41843831D01*
X130744618Y-42305150D01*
X130744182Y-42804659D01*
X130934933Y-43266311D01*
X131287831Y-43619825D01*
X131749150Y-43811382D01*
X132248659Y-43811818D01*
X132710311Y-43621067D01*
X133063825Y-43268169D01*
X133255382Y-42806850D01*
X133255818Y-42307341D01*
X133065067Y-41845689D01*
X132745536Y-41525600D01*
X133021257Y-41525600D01*
X133245311Y-41432794D01*
X133416794Y-41261311D01*
X133509600Y-41037257D01*
X133509600Y-40320800D01*
X135490400Y-40320800D01*
X135490400Y-41037257D01*
X135583206Y-41261311D01*
X135754689Y-41432794D01*
X135978743Y-41525600D01*
X136254961Y-41525600D01*
X135936175Y-41843831D01*
X135744618Y-42305150D01*
X135744182Y-42804659D01*
X135934933Y-43266311D01*
X136287831Y-43619825D01*
X136749150Y-43811382D01*
X137248659Y-43811818D01*
X137710311Y-43621067D01*
X138063825Y-43268169D01*
X138255382Y-42806850D01*
X138255818Y-42307341D01*
X138065067Y-41845689D01*
X137745536Y-41525600D01*
X138021257Y-41525600D01*
X138245311Y-41432794D01*
X138416794Y-41261311D01*
X138509600Y-41037257D01*
X138509600Y-40320800D01*
X140490400Y-40320800D01*
X140490400Y-41037257D01*
X140583206Y-41261311D01*
X140754689Y-41432794D01*
X140978743Y-41525600D01*
X141254961Y-41525600D01*
X140936175Y-41843831D01*
X140744618Y-42305150D01*
X140744182Y-42804659D01*
X140934933Y-43266311D01*
X141287831Y-43619825D01*
X141749150Y-43811382D01*
X142248659Y-43811818D01*
X142710311Y-43621067D01*
X143063825Y-43268169D01*
X143255382Y-42806850D01*
X143255818Y-42307341D01*
X143065067Y-41845689D01*
X142745536Y-41525600D01*
X143021257Y-41525600D01*
X143245311Y-41432794D01*
X143416794Y-41261311D01*
X143509600Y-41037257D01*
X143509600Y-40320800D01*
X143357200Y-40168400D01*
X142152400Y-40168400D01*
X142152400Y-40188400D01*
X141847600Y-40188400D01*
X141847600Y-40168400D01*
X140642800Y-40168400D01*
X140490400Y-40320800D01*
X138509600Y-40320800D01*
X138357200Y-40168400D01*
X137152400Y-40168400D01*
X137152400Y-40188400D01*
X136847600Y-40188400D01*
X136847600Y-40168400D01*
X135642800Y-40168400D01*
X135490400Y-40320800D01*
X133509600Y-40320800D01*
X133357200Y-40168400D01*
X132152400Y-40168400D01*
X132152400Y-40188400D01*
X131847600Y-40188400D01*
X131847600Y-40168400D01*
X130642800Y-40168400D01*
X130490400Y-40320800D01*
X128509600Y-40320800D01*
X128357200Y-40168400D01*
X127152400Y-40168400D01*
X127152400Y-40188400D01*
X126847600Y-40188400D01*
X126847600Y-40168400D01*
X125642800Y-40168400D01*
X125490400Y-40320800D01*
X123509600Y-40320800D01*
X123357200Y-40168400D01*
X122152400Y-40168400D01*
X122152400Y-40188400D01*
X121847600Y-40188400D01*
X121847600Y-40168400D01*
X120642800Y-40168400D01*
X120490400Y-40320800D01*
X118509600Y-40320800D01*
X118357200Y-40168400D01*
X117152400Y-40168400D01*
X117152400Y-40188400D01*
X116847600Y-40188400D01*
X116847600Y-40168400D01*
X115642800Y-40168400D01*
X115490400Y-40320800D01*
X113509600Y-40320800D01*
X113357200Y-40168400D01*
X112152400Y-40168400D01*
X112152400Y-40188400D01*
X111847600Y-40188400D01*
X111847600Y-40168400D01*
X110642800Y-40168400D01*
X110490400Y-40320800D01*
X108509600Y-40320800D01*
X108357200Y-40168400D01*
X107152400Y-40168400D01*
X107152400Y-40188400D01*
X106847600Y-40188400D01*
X106847600Y-40168400D01*
X105642800Y-40168400D01*
X105490400Y-40320800D01*
X103509600Y-40320800D01*
X103357200Y-40168400D01*
X102152400Y-40168400D01*
X102152400Y-40188400D01*
X101847600Y-40188400D01*
X101847600Y-40168400D01*
X100642800Y-40168400D01*
X100490400Y-40320800D01*
X98509600Y-40320800D01*
X98357200Y-40168400D01*
X97152400Y-40168400D01*
X97152400Y-40188400D01*
X96847600Y-40188400D01*
X96847600Y-40168400D01*
X95642800Y-40168400D01*
X95490400Y-40320800D01*
X93509600Y-40320800D01*
X93357200Y-40168400D01*
X92152400Y-40168400D01*
X92152400Y-40188400D01*
X91847600Y-40188400D01*
X91847600Y-40168400D01*
X90642800Y-40168400D01*
X90490400Y-40320800D01*
X88509600Y-40320800D01*
X88357200Y-40168400D01*
X87152400Y-40168400D01*
X87152400Y-40188400D01*
X86847600Y-40188400D01*
X86847600Y-40168400D01*
X85642800Y-40168400D01*
X85490400Y-40320800D01*
X83509600Y-40320800D01*
X83357200Y-40168400D01*
X82152400Y-40168400D01*
X82152400Y-40188400D01*
X81847600Y-40188400D01*
X81847600Y-40168400D01*
X80642800Y-40168400D01*
X80490400Y-40320800D01*
X78509600Y-40320800D01*
X78357200Y-40168400D01*
X77152400Y-40168400D01*
X77152400Y-40188400D01*
X76847600Y-40188400D01*
X76847600Y-40168400D01*
X75642800Y-40168400D01*
X75490400Y-40320800D01*
X73509600Y-40320800D01*
X73357200Y-40168400D01*
X72152400Y-40168400D01*
X72152400Y-40188400D01*
X71847600Y-40188400D01*
X71847600Y-40168400D01*
X70642800Y-40168400D01*
X70490400Y-40320800D01*
X68509600Y-40320800D01*
X68357200Y-40168400D01*
X67152400Y-40168400D01*
X67152400Y-40188400D01*
X66847600Y-40188400D01*
X66847600Y-40168400D01*
X65642800Y-40168400D01*
X65490400Y-40320800D01*
X64530321Y-40320800D01*
X64531212Y-39300801D01*
X64404752Y-38994743D01*
X65490400Y-38994743D01*
X65490400Y-39711200D01*
X65642800Y-39863600D01*
X66847600Y-39863600D01*
X66847600Y-38658800D01*
X67152400Y-38658800D01*
X67152400Y-39863600D01*
X68357200Y-39863600D01*
X68509600Y-39711200D01*
X68509600Y-38994743D01*
X70490400Y-38994743D01*
X70490400Y-39711200D01*
X70642800Y-39863600D01*
X71847600Y-39863600D01*
X71847600Y-38658800D01*
X72152400Y-38658800D01*
X72152400Y-39863600D01*
X73357200Y-39863600D01*
X73509600Y-39711200D01*
X73509600Y-38994743D01*
X75490400Y-38994743D01*
X75490400Y-39711200D01*
X75642800Y-39863600D01*
X76847600Y-39863600D01*
X76847600Y-38658800D01*
X77152400Y-38658800D01*
X77152400Y-39863600D01*
X78357200Y-39863600D01*
X78509600Y-39711200D01*
X78509600Y-38994743D01*
X80490400Y-38994743D01*
X80490400Y-39711200D01*
X80642800Y-39863600D01*
X81847600Y-39863600D01*
X81847600Y-38658800D01*
X82152400Y-38658800D01*
X82152400Y-39863600D01*
X83357200Y-39863600D01*
X83509600Y-39711200D01*
X83509600Y-38994743D01*
X85490400Y-38994743D01*
X85490400Y-39711200D01*
X85642800Y-39863600D01*
X86847600Y-39863600D01*
X86847600Y-38658800D01*
X87152400Y-38658800D01*
X87152400Y-39863600D01*
X88357200Y-39863600D01*
X88509600Y-39711200D01*
X88509600Y-38994743D01*
X90490400Y-38994743D01*
X90490400Y-39711200D01*
X90642800Y-39863600D01*
X91847600Y-39863600D01*
X91847600Y-38658800D01*
X92152400Y-38658800D01*
X92152400Y-39863600D01*
X93357200Y-39863600D01*
X93509600Y-39711200D01*
X93509600Y-38994743D01*
X95490400Y-38994743D01*
X95490400Y-39711200D01*
X95642800Y-39863600D01*
X96847600Y-39863600D01*
X96847600Y-38658800D01*
X97152400Y-38658800D01*
X97152400Y-39863600D01*
X98357200Y-39863600D01*
X98509600Y-39711200D01*
X98509600Y-38994743D01*
X100490400Y-38994743D01*
X100490400Y-39711200D01*
X100642800Y-39863600D01*
X101847600Y-39863600D01*
X101847600Y-38658800D01*
X102152400Y-38658800D01*
X102152400Y-39863600D01*
X103357200Y-39863600D01*
X103509600Y-39711200D01*
X103509600Y-38994743D01*
X105490400Y-38994743D01*
X105490400Y-39711200D01*
X105642800Y-39863600D01*
X106847600Y-39863600D01*
X106847600Y-38658800D01*
X107152400Y-38658800D01*
X107152400Y-39863600D01*
X108357200Y-39863600D01*
X108509600Y-39711200D01*
X108509600Y-38994743D01*
X110490400Y-38994743D01*
X110490400Y-39711200D01*
X110642800Y-39863600D01*
X111847600Y-39863600D01*
X111847600Y-38658800D01*
X112152400Y-38658800D01*
X112152400Y-39863600D01*
X113357200Y-39863600D01*
X113509600Y-39711200D01*
X113509600Y-38994743D01*
X115490400Y-38994743D01*
X115490400Y-39711200D01*
X115642800Y-39863600D01*
X116847600Y-39863600D01*
X116847600Y-38658800D01*
X117152400Y-38658800D01*
X117152400Y-39863600D01*
X118357200Y-39863600D01*
X118509600Y-39711200D01*
X118509600Y-38994743D01*
X120490400Y-38994743D01*
X120490400Y-39711200D01*
X120642800Y-39863600D01*
X121847600Y-39863600D01*
X121847600Y-38658800D01*
X122152400Y-38658800D01*
X122152400Y-39863600D01*
X123357200Y-39863600D01*
X123509600Y-39711200D01*
X123509600Y-38994743D01*
X125490400Y-38994743D01*
X125490400Y-39711200D01*
X125642800Y-39863600D01*
X126847600Y-39863600D01*
X126847600Y-38658800D01*
X127152400Y-38658800D01*
X127152400Y-39863600D01*
X128357200Y-39863600D01*
X128509600Y-39711200D01*
X128509600Y-38994743D01*
X130490400Y-38994743D01*
X130490400Y-39711200D01*
X130642800Y-39863600D01*
X131847600Y-39863600D01*
X131847600Y-38658800D01*
X132152400Y-38658800D01*
X132152400Y-39863600D01*
X133357200Y-39863600D01*
X133509600Y-39711200D01*
X133509600Y-38994743D01*
X135490400Y-38994743D01*
X135490400Y-39711200D01*
X135642800Y-39863600D01*
X136847600Y-39863600D01*
X136847600Y-38658800D01*
X137152400Y-38658800D01*
X137152400Y-39863600D01*
X138357200Y-39863600D01*
X138509600Y-39711200D01*
X138509600Y-38994743D01*
X140490400Y-38994743D01*
X140490400Y-39711200D01*
X140642800Y-39863600D01*
X141847600Y-39863600D01*
X141847600Y-38658800D01*
X142152400Y-38658800D01*
X142152400Y-39863600D01*
X143357200Y-39863600D01*
X143509600Y-39711200D01*
X143509600Y-38994743D01*
X143416794Y-38770689D01*
X143245311Y-38599206D01*
X143021257Y-38506400D01*
X142304800Y-38506400D01*
X142152400Y-38658800D01*
X141847600Y-38658800D01*
X141695200Y-38506400D01*
X140978743Y-38506400D01*
X140754689Y-38599206D01*
X140583206Y-38770689D01*
X140490400Y-38994743D01*
X138509600Y-38994743D01*
X138416794Y-38770689D01*
X138245311Y-38599206D01*
X138021257Y-38506400D01*
X137304800Y-38506400D01*
X137152400Y-38658800D01*
X136847600Y-38658800D01*
X136695200Y-38506400D01*
X135978743Y-38506400D01*
X135754689Y-38599206D01*
X135583206Y-38770689D01*
X135490400Y-38994743D01*
X133509600Y-38994743D01*
X133416794Y-38770689D01*
X133245311Y-38599206D01*
X133021257Y-38506400D01*
X132304800Y-38506400D01*
X132152400Y-38658800D01*
X131847600Y-38658800D01*
X131695200Y-38506400D01*
X130978743Y-38506400D01*
X130754689Y-38599206D01*
X130583206Y-38770689D01*
X130490400Y-38994743D01*
X128509600Y-38994743D01*
X128416794Y-38770689D01*
X128245311Y-38599206D01*
X128021257Y-38506400D01*
X127304800Y-38506400D01*
X127152400Y-38658800D01*
X126847600Y-38658800D01*
X126695200Y-38506400D01*
X125978743Y-38506400D01*
X125754689Y-38599206D01*
X125583206Y-38770689D01*
X125490400Y-38994743D01*
X123509600Y-38994743D01*
X123416794Y-38770689D01*
X123245311Y-38599206D01*
X123021257Y-38506400D01*
X122304800Y-38506400D01*
X122152400Y-38658800D01*
X121847600Y-38658800D01*
X121695200Y-38506400D01*
X120978743Y-38506400D01*
X120754689Y-38599206D01*
X120583206Y-38770689D01*
X120490400Y-38994743D01*
X118509600Y-38994743D01*
X118416794Y-38770689D01*
X118245311Y-38599206D01*
X118021257Y-38506400D01*
X117304800Y-38506400D01*
X117152400Y-38658800D01*
X116847600Y-38658800D01*
X116695200Y-38506400D01*
X115978743Y-38506400D01*
X115754689Y-38599206D01*
X115583206Y-38770689D01*
X115490400Y-38994743D01*
X113509600Y-38994743D01*
X113416794Y-38770689D01*
X113245311Y-38599206D01*
X113021257Y-38506400D01*
X112304800Y-38506400D01*
X112152400Y-38658800D01*
X111847600Y-38658800D01*
X111695200Y-38506400D01*
X110978743Y-38506400D01*
X110754689Y-38599206D01*
X110583206Y-38770689D01*
X110490400Y-38994743D01*
X108509600Y-38994743D01*
X108416794Y-38770689D01*
X108245311Y-38599206D01*
X108021257Y-38506400D01*
X107304800Y-38506400D01*
X107152400Y-38658800D01*
X106847600Y-38658800D01*
X106695200Y-38506400D01*
X105978743Y-38506400D01*
X105754689Y-38599206D01*
X105583206Y-38770689D01*
X105490400Y-38994743D01*
X103509600Y-38994743D01*
X103416794Y-38770689D01*
X103245311Y-38599206D01*
X103021257Y-38506400D01*
X102304800Y-38506400D01*
X102152400Y-38658800D01*
X101847600Y-38658800D01*
X101695200Y-38506400D01*
X100978743Y-38506400D01*
X100754689Y-38599206D01*
X100583206Y-38770689D01*
X100490400Y-38994743D01*
X98509600Y-38994743D01*
X98416794Y-38770689D01*
X98245311Y-38599206D01*
X98021257Y-38506400D01*
X97304800Y-38506400D01*
X97152400Y-38658800D01*
X96847600Y-38658800D01*
X96695200Y-38506400D01*
X95978743Y-38506400D01*
X95754689Y-38599206D01*
X95583206Y-38770689D01*
X95490400Y-38994743D01*
X93509600Y-38994743D01*
X93416794Y-38770689D01*
X93245311Y-38599206D01*
X93021257Y-38506400D01*
X92304800Y-38506400D01*
X92152400Y-38658800D01*
X91847600Y-38658800D01*
X91695200Y-38506400D01*
X90978743Y-38506400D01*
X90754689Y-38599206D01*
X90583206Y-38770689D01*
X90490400Y-38994743D01*
X88509600Y-38994743D01*
X88416794Y-38770689D01*
X88245311Y-38599206D01*
X88021257Y-38506400D01*
X87304800Y-38506400D01*
X87152400Y-38658800D01*
X86847600Y-38658800D01*
X86695200Y-38506400D01*
X85978743Y-38506400D01*
X85754689Y-38599206D01*
X85583206Y-38770689D01*
X85490400Y-38994743D01*
X83509600Y-38994743D01*
X83416794Y-38770689D01*
X83245311Y-38599206D01*
X83021257Y-38506400D01*
X82304800Y-38506400D01*
X82152400Y-38658800D01*
X81847600Y-38658800D01*
X81695200Y-38506400D01*
X80978743Y-38506400D01*
X80754689Y-38599206D01*
X80583206Y-38770689D01*
X80490400Y-38994743D01*
X78509600Y-38994743D01*
X78416794Y-38770689D01*
X78245311Y-38599206D01*
X78021257Y-38506400D01*
X77304800Y-38506400D01*
X77152400Y-38658800D01*
X76847600Y-38658800D01*
X76695200Y-38506400D01*
X75978743Y-38506400D01*
X75754689Y-38599206D01*
X75583206Y-38770689D01*
X75490400Y-38994743D01*
X73509600Y-38994743D01*
X73416794Y-38770689D01*
X73245311Y-38599206D01*
X73021257Y-38506400D01*
X72304800Y-38506400D01*
X72152400Y-38658800D01*
X71847600Y-38658800D01*
X71695200Y-38506400D01*
X70978743Y-38506400D01*
X70754689Y-38599206D01*
X70583206Y-38770689D01*
X70490400Y-38994743D01*
X68509600Y-38994743D01*
X68416794Y-38770689D01*
X68245311Y-38599206D01*
X68021257Y-38506400D01*
X67304800Y-38506400D01*
X67152400Y-38658800D01*
X66847600Y-38658800D01*
X66695200Y-38506400D01*
X65978743Y-38506400D01*
X65754689Y-38599206D01*
X65583206Y-38770689D01*
X65490400Y-38994743D01*
X64404752Y-38994743D01*
X63994843Y-38002688D01*
X63002536Y-37008648D01*
X61888596Y-36546100D01*
X147113692Y-36546100D01*
X146002688Y-37005157D01*
M02*
