M48
;DRILL file {Pcbnew (2013-07-07 BZR 4022)-stable} date 11/23/2014 11:31:00 PM
;FORMAT={-:-/ absolute / inch / decimal}
FMAT,2
INCH,TZ
T1C0.025
T2C0.032
T3C0.035
T4C0.039
T5C0.040
T6C0.125
%
G90
G05
M72
T1
X2.355Y-2.415
X2.5689Y-2.2539
X2.5906Y-2.6063
X2.628Y-3.4154
X2.6969Y-3.1693
X2.7Y-3.02
X2.735Y-1.9
X2.7854Y-3.3169
X2.815Y-3.1299
X2.8504Y-2.2992
X2.8642Y-1.9587
X2.8819Y-2.1102
X2.8839Y-2.874
X2.925Y-2.44
X2.9291Y-2.5591
X2.937Y-1.9449
X2.96Y-2.61
X2.9724Y-3.2185
X2.985Y-1.83
X3.015Y-2.105
X3.0709Y-2.3228
X3.0945Y-2.1969
X3.126Y-2.3701
X3.1693Y-2.1949
X3.175Y-2.36
X3.21Y-1.905
X3.27Y-2.285
X3.2913Y-2.3622
X3.2972Y-2.6181
X3.3169Y-2.9724
X3.4449Y-3.4154
X3.4488Y-2.2835
X3.4488Y-2.3858
X3.49Y-1.905
X3.5433Y-3.0512
X3.575Y-2.925
X3.605Y-2.635
X3.735Y-1.9
X3.7402Y-2.1654
X3.7402Y-2.3327
X4.02Y-2.485
T2
X2.37Y-2.15
X2.37Y-2.25
T3
X2.71Y-2.3954
X2.71Y-2.6946
T4
X3.8484Y-2.0846
X3.8484Y-2.3406
X3.8484Y-2.7381
X3.8484Y-2.9941
X4.0256Y-2.0846
X4.0256Y-2.3406
X4.0256Y-2.7381
X4.0256Y-2.9941
T5
X2.405Y-2.825
X2.405Y-2.925
X2.405Y-3.025
X2.505Y-2.825
X2.505Y-2.925
X2.505Y-3.025
X2.56Y-2.025
X2.56Y-2.125
X2.66Y-2.025
X2.66Y-2.125
X2.76Y-2.025
X2.76Y-2.125
X3.1783Y-2.8248
X3.2783Y-2.8248
T6
X2.3228Y-1.7323
X2.3228Y-3.3465
X3.937Y-1.7323
X3.937Y-3.3465
T0
M30
