G04 (created by PCBNEW (2013-05-31 BZR 4019)-stable) date 8/24/2014 4:13:45 PM*
%MOIN*%
G04 Gerber Fmt 3.4, Leading zero omitted, Abs format*
%FSLAX34Y34*%
G01*
G70*
G90*
G04 APERTURE LIST*
%ADD10C,0.00590551*%
%ADD11R,0.06X0.06*%
%ADD12C,0.06*%
%ADD13R,0.08X0.06*%
%ADD14R,0.035X0.055*%
%ADD15C,0.108268*%
%ADD16R,0.00984252X0.0610236*%
%ADD17R,0.055X0.035*%
%ADD18R,0.065X0.0236*%
%ADD19C,0.0393701*%
%ADD20C,0.035*%
%ADD21C,0.025*%
%ADD22C,0.01*%
%ADD23C,0.008*%
G04 APERTURE END LIST*
G54D10*
G54D11*
X32854Y-28594D03*
G54D12*
X32854Y-27594D03*
X32854Y-26594D03*
X32854Y-25594D03*
G54D11*
X34854Y-28594D03*
G54D12*
X34854Y-27594D03*
X34854Y-26594D03*
G54D11*
X36854Y-28594D03*
G54D12*
X36854Y-27594D03*
X36854Y-26594D03*
G54D11*
X38854Y-28594D03*
G54D12*
X38854Y-27594D03*
X38854Y-26594D03*
G54D11*
X40854Y-28594D03*
G54D12*
X40854Y-27594D03*
X40854Y-26594D03*
G54D11*
X37854Y-28594D03*
G54D12*
X37854Y-27594D03*
X37854Y-26594D03*
G54D11*
X39854Y-28594D03*
G54D12*
X39854Y-27594D03*
X39854Y-26594D03*
G54D11*
X42854Y-28594D03*
G54D12*
X42854Y-27594D03*
X42854Y-26594D03*
X42854Y-25594D03*
X42854Y-24594D03*
X42854Y-23594D03*
G54D11*
X31854Y-28594D03*
G54D12*
X31854Y-27594D03*
X31854Y-26594D03*
X31854Y-25594D03*
G54D11*
X35854Y-28594D03*
G54D12*
X35854Y-27594D03*
X35854Y-26594D03*
G54D11*
X41854Y-28594D03*
G54D12*
X41854Y-27594D03*
X41854Y-26594D03*
X41854Y-25594D03*
X41854Y-24594D03*
X41854Y-23594D03*
G54D13*
X30709Y-21266D03*
X30709Y-22566D03*
G54D11*
X44309Y-25466D03*
G54D12*
X44309Y-24466D03*
X44309Y-23466D03*
G54D11*
X45309Y-25466D03*
G54D12*
X45309Y-24466D03*
X45309Y-23466D03*
G54D11*
X47309Y-25466D03*
G54D12*
X47309Y-24466D03*
X47309Y-23466D03*
G54D11*
X48309Y-25466D03*
G54D12*
X48309Y-24466D03*
X48309Y-23466D03*
G54D11*
X50309Y-25466D03*
G54D12*
X50309Y-24466D03*
X50309Y-23466D03*
G54D11*
X46309Y-25466D03*
G54D12*
X46309Y-24466D03*
X46309Y-23466D03*
G54D11*
X49309Y-25466D03*
G54D12*
X49309Y-24466D03*
X49309Y-23466D03*
G54D11*
X51309Y-25466D03*
G54D12*
X51309Y-24466D03*
X51309Y-23466D03*
G54D11*
X52309Y-25466D03*
G54D12*
X52309Y-24466D03*
X52309Y-23466D03*
G54D11*
X30854Y-19594D03*
G54D12*
X30854Y-18594D03*
X35854Y-19594D03*
X31854Y-18594D03*
X36854Y-19594D03*
X32854Y-18594D03*
X37854Y-19594D03*
X33854Y-18594D03*
X38854Y-19594D03*
X34854Y-18594D03*
X39854Y-19594D03*
X35854Y-18594D03*
X40854Y-19594D03*
X36854Y-18594D03*
X41854Y-19594D03*
X37854Y-18594D03*
X42854Y-19594D03*
X38854Y-18594D03*
X43854Y-19594D03*
X39854Y-18594D03*
X44854Y-19594D03*
X40854Y-18594D03*
X45854Y-19594D03*
X41854Y-18594D03*
X42854Y-18594D03*
X46854Y-19594D03*
X43854Y-18594D03*
X45854Y-18594D03*
X46854Y-18594D03*
X47854Y-18594D03*
X48854Y-18594D03*
X47854Y-19594D03*
X48854Y-19594D03*
X31854Y-19594D03*
X32854Y-19594D03*
X33854Y-19594D03*
X34854Y-19594D03*
X49854Y-19594D03*
X49854Y-18594D03*
X44854Y-18594D03*
G54D11*
X33854Y-28594D03*
G54D12*
X33854Y-27594D03*
X33854Y-26594D03*
X35809Y-30216D03*
X36809Y-30216D03*
G54D11*
X40809Y-30216D03*
G54D12*
X39809Y-30216D03*
X38809Y-30216D03*
X37809Y-30216D03*
X34809Y-30216D03*
X33809Y-30216D03*
G54D14*
X48534Y-29416D03*
X47784Y-29416D03*
X48534Y-30456D03*
X47784Y-30456D03*
X48534Y-31476D03*
X47784Y-31476D03*
X48534Y-32456D03*
X47784Y-32456D03*
G54D11*
X51659Y-32116D03*
G54D12*
X50659Y-32116D03*
X51659Y-31116D03*
X50659Y-31116D03*
X51659Y-30116D03*
X50659Y-30116D03*
X51659Y-29116D03*
X50659Y-29116D03*
G54D15*
X51771Y-38385D03*
X28937Y-38385D03*
X51771Y-19094D03*
X28937Y-19094D03*
G54D11*
X41059Y-38716D03*
G54D12*
X41059Y-37716D03*
X41059Y-36716D03*
G54D11*
X40059Y-38716D03*
G54D12*
X40059Y-37716D03*
X40059Y-36716D03*
G54D11*
X39059Y-38716D03*
G54D12*
X39059Y-37716D03*
X39059Y-36716D03*
G54D11*
X38059Y-38716D03*
G54D12*
X38059Y-37716D03*
X38059Y-36716D03*
G54D11*
X37059Y-38716D03*
G54D12*
X37059Y-37716D03*
X37059Y-36716D03*
G54D11*
X36059Y-38716D03*
G54D12*
X36059Y-37716D03*
X36059Y-36716D03*
G54D11*
X35059Y-38716D03*
G54D12*
X35059Y-37716D03*
X35059Y-36716D03*
G54D11*
X34059Y-38716D03*
G54D12*
X34059Y-37716D03*
X34059Y-36716D03*
G54D16*
X35897Y-34318D03*
X36163Y-34318D03*
X36419Y-34318D03*
X36675Y-34318D03*
X36931Y-34318D03*
X37187Y-34318D03*
X37442Y-34318D03*
X37698Y-34318D03*
X37954Y-34318D03*
X38210Y-34318D03*
X38210Y-32114D03*
X37954Y-32114D03*
X37698Y-32114D03*
X37442Y-32114D03*
X37187Y-32114D03*
X36931Y-32114D03*
X36675Y-32114D03*
X36419Y-32114D03*
X36163Y-32114D03*
X35907Y-32114D03*
G54D13*
X29334Y-21266D03*
X29334Y-22566D03*
G54D14*
X34734Y-32666D03*
X33984Y-32666D03*
G54D17*
X31959Y-37891D03*
X31959Y-38641D03*
G54D14*
X44984Y-32766D03*
X45734Y-32766D03*
G54D18*
X44359Y-31066D03*
X46559Y-31066D03*
X44359Y-30566D03*
X44359Y-30066D03*
X44359Y-29566D03*
X46559Y-30566D03*
X46559Y-30066D03*
X46559Y-29566D03*
G54D19*
X51959Y-36216D03*
X28309Y-20766D03*
G54D20*
X29359Y-33841D03*
X29334Y-24066D03*
X46234Y-32791D03*
X31934Y-39066D03*
X33534Y-32666D03*
X35609Y-34316D03*
X46559Y-29216D03*
X34251Y-21062D03*
X45559Y-28566D03*
X43859Y-26516D03*
X43659Y-21166D03*
X45059Y-28666D03*
X40754Y-23144D03*
G54D21*
X29334Y-22566D02*
X29334Y-24066D01*
G54D22*
X47784Y-31476D02*
X47784Y-31051D01*
X50479Y-30936D02*
X50659Y-31116D01*
X47899Y-30936D02*
X50479Y-30936D01*
X47784Y-31051D02*
X47899Y-30936D01*
X46559Y-31066D02*
X47029Y-31066D01*
X47439Y-31476D02*
X47784Y-31476D01*
X47029Y-31066D02*
X47439Y-31476D01*
X47784Y-30456D02*
X47784Y-30231D01*
X50479Y-29936D02*
X50659Y-30116D01*
X48079Y-29936D02*
X50479Y-29936D01*
X47784Y-30231D02*
X48079Y-29936D01*
X46559Y-30566D02*
X47129Y-30566D01*
X47239Y-30456D02*
X47784Y-30456D01*
X47129Y-30566D02*
X47239Y-30456D01*
X47784Y-29416D02*
X47784Y-29111D01*
X50459Y-28916D02*
X50659Y-29116D01*
X47979Y-28916D02*
X50459Y-28916D01*
X47784Y-29111D02*
X47979Y-28916D01*
X46509Y-30066D02*
X47134Y-30066D01*
X47134Y-30066D02*
X47784Y-29416D01*
X45734Y-32766D02*
X46209Y-32766D01*
X46209Y-32766D02*
X46234Y-32791D01*
X31959Y-38641D02*
X31959Y-39041D01*
X31959Y-39041D02*
X31934Y-39066D01*
X33984Y-32666D02*
X33534Y-32666D01*
X35897Y-34318D02*
X35611Y-34318D01*
X35611Y-34318D02*
X35609Y-34316D01*
X46509Y-29566D02*
X46509Y-29266D01*
X46509Y-29266D02*
X46559Y-29216D01*
X46309Y-23466D02*
X46309Y-19049D01*
X46309Y-19049D02*
X45854Y-18594D01*
X47309Y-23466D02*
X47309Y-22966D01*
X46854Y-22511D02*
X46854Y-19594D01*
X47309Y-22966D02*
X46854Y-22511D01*
X49309Y-23466D02*
X49309Y-22466D01*
X48309Y-21466D02*
X48309Y-19049D01*
X49309Y-22466D02*
X48309Y-21466D01*
X48309Y-19049D02*
X47854Y-18594D01*
X48309Y-19049D02*
X47854Y-18594D01*
X35854Y-26594D02*
X35854Y-19594D01*
X34854Y-26594D02*
X34854Y-20594D01*
X35354Y-19094D02*
X35854Y-18594D01*
X35354Y-20094D02*
X35354Y-19094D01*
X34854Y-20594D02*
X35354Y-20094D01*
X47854Y-19594D02*
X47854Y-22011D01*
X48309Y-22466D02*
X48309Y-23466D01*
X47854Y-22011D02*
X48309Y-22466D01*
X51309Y-23466D02*
X51309Y-22966D01*
X49309Y-19049D02*
X48854Y-18594D01*
X49309Y-20966D02*
X49309Y-19049D01*
X51309Y-22966D02*
X49309Y-20966D01*
X48904Y-18594D02*
X48854Y-18594D01*
X52309Y-23466D02*
X50309Y-21466D01*
X49937Y-18594D02*
X49854Y-18594D01*
X50309Y-18966D02*
X49937Y-18594D01*
X50309Y-19466D02*
X50309Y-18966D01*
X50309Y-19966D02*
X50309Y-19466D01*
X50309Y-21466D02*
X50309Y-19966D01*
X38854Y-26594D02*
X38804Y-26594D01*
X37854Y-25644D02*
X37854Y-19594D01*
X38804Y-26594D02*
X37854Y-25644D01*
X37854Y-26594D02*
X37354Y-26094D01*
X37354Y-19094D02*
X37854Y-18594D01*
X37354Y-26094D02*
X37354Y-19094D01*
X39854Y-26594D02*
X39804Y-26594D01*
X38354Y-19094D02*
X38854Y-18594D01*
X38354Y-25144D02*
X38354Y-19094D01*
X39804Y-26594D02*
X38354Y-25144D01*
X40354Y-22621D02*
X40354Y-23416D01*
X40509Y-26249D02*
X40854Y-26594D01*
X40509Y-23571D02*
X40509Y-26249D01*
X40354Y-23416D02*
X40509Y-23571D01*
X40609Y-20366D02*
X40354Y-20111D01*
X40609Y-22366D02*
X40609Y-20366D01*
X40354Y-22621D02*
X40609Y-22366D01*
X40354Y-19094D02*
X40854Y-18594D01*
X40354Y-20111D02*
X40354Y-19094D01*
X50309Y-23466D02*
X50309Y-22716D01*
X48854Y-21261D02*
X48854Y-19594D01*
X50309Y-22716D02*
X48854Y-21261D01*
X36854Y-26594D02*
X36854Y-19594D01*
X33854Y-25791D02*
X33854Y-26594D01*
X34055Y-25590D02*
X33854Y-25791D01*
X34055Y-21259D02*
X34055Y-25590D01*
X34251Y-21062D02*
X34055Y-21259D01*
X44309Y-23466D02*
X44309Y-20966D01*
X44854Y-20421D02*
X44854Y-19594D01*
X44309Y-20966D02*
X44854Y-20421D01*
X45309Y-23466D02*
X45309Y-21216D01*
X45854Y-20671D02*
X45854Y-19594D01*
X45309Y-21216D02*
X45854Y-20671D01*
X32854Y-25594D02*
X32854Y-25471D01*
X33659Y-20666D02*
X34354Y-19971D01*
X33659Y-24666D02*
X33659Y-20666D01*
X32854Y-25471D02*
X33659Y-24666D01*
X34354Y-19094D02*
X34854Y-18594D01*
X34354Y-19971D02*
X34354Y-19094D01*
X43309Y-25966D02*
X43859Y-26516D01*
X43309Y-21516D02*
X43309Y-25966D01*
X43659Y-21166D02*
X43309Y-21516D01*
X44959Y-30066D02*
X44359Y-30066D01*
X45559Y-29466D02*
X44959Y-30066D01*
X45559Y-28566D02*
X45559Y-29466D01*
X31854Y-25594D02*
X31854Y-25221D01*
X32859Y-20416D02*
X32854Y-20416D01*
X32859Y-24216D02*
X32859Y-20416D01*
X31854Y-25221D02*
X32859Y-24216D01*
X32854Y-20416D02*
X32854Y-19594D01*
X45059Y-28666D02*
X45034Y-28691D01*
X44359Y-29566D02*
X44709Y-29566D01*
X45059Y-28716D02*
X45034Y-28691D01*
X45059Y-29216D02*
X45059Y-28716D01*
X44709Y-29566D02*
X45059Y-29216D01*
X31354Y-26244D02*
X31354Y-24771D01*
X31854Y-24271D02*
X31854Y-19594D01*
X31354Y-24771D02*
X31854Y-24271D01*
X31854Y-26594D02*
X31704Y-26594D01*
X31704Y-26594D02*
X31354Y-26244D01*
X42354Y-19816D02*
X42354Y-23094D01*
X42354Y-23094D02*
X41854Y-23594D01*
X41854Y-18594D02*
X42354Y-19094D01*
X42354Y-19094D02*
X42354Y-19816D01*
X42854Y-23594D02*
X42854Y-20544D01*
X43354Y-19094D02*
X42854Y-18594D01*
X43354Y-20044D02*
X43354Y-19094D01*
X42854Y-20544D02*
X43354Y-20044D01*
X41104Y-23616D02*
X41104Y-22911D01*
X41104Y-22911D02*
X40854Y-22661D01*
X40854Y-22661D02*
X40854Y-19594D01*
G54D23*
X41104Y-23716D02*
X41104Y-23616D01*
G54D22*
X41854Y-25594D02*
X42854Y-25594D01*
X41854Y-25594D02*
X41504Y-25594D01*
X41104Y-25194D02*
X41104Y-23716D01*
X41504Y-25594D02*
X41104Y-25194D01*
X41854Y-26594D02*
X41804Y-26594D01*
X41804Y-26594D02*
X40754Y-25544D01*
X40754Y-25544D02*
X40754Y-23144D01*
X41854Y-26594D02*
X42854Y-26594D01*
X41854Y-19594D02*
X41854Y-22571D01*
X41854Y-22571D02*
X41354Y-23071D01*
X41354Y-23366D02*
X41354Y-23071D01*
X41354Y-24294D02*
X41354Y-23366D01*
X41854Y-24594D02*
X41654Y-24594D01*
X41654Y-24594D02*
X41354Y-24294D01*
X41854Y-24594D02*
X42854Y-24594D01*
X32854Y-26594D02*
X32804Y-26594D01*
X32804Y-26594D02*
X32359Y-26149D01*
X33359Y-19089D02*
X33854Y-18594D01*
X33359Y-24316D02*
X33359Y-19089D01*
X32359Y-25316D02*
X33359Y-24316D01*
X32359Y-26149D02*
X32359Y-25316D01*
X44359Y-30566D02*
X44989Y-30566D01*
X44989Y-30566D02*
X45459Y-31036D01*
X45819Y-32016D02*
X46719Y-32016D01*
X45459Y-31656D02*
X45819Y-32016D01*
X45459Y-31036D02*
X45459Y-31656D01*
X47159Y-32456D02*
X47784Y-32456D01*
X46719Y-32016D02*
X47159Y-32456D01*
X47784Y-32456D02*
X47784Y-32371D01*
X47784Y-32371D02*
X48199Y-31956D01*
X48199Y-31956D02*
X50499Y-31956D01*
X50499Y-31956D02*
X50659Y-32116D01*
G54D21*
X30854Y-19594D02*
X30854Y-21121D01*
X30854Y-21121D02*
X30709Y-21266D01*
G54D22*
X37934Y-35491D02*
X39314Y-35491D01*
X40059Y-36236D02*
X40059Y-36716D01*
X39314Y-35491D02*
X40059Y-36236D01*
X37698Y-34318D02*
X37698Y-35256D01*
X37698Y-35256D02*
X37934Y-35491D01*
X38210Y-34318D02*
X40001Y-34318D01*
X40001Y-34318D02*
X41059Y-35376D01*
X41059Y-35376D02*
X41059Y-36716D01*
X36419Y-32114D02*
X36419Y-31276D01*
X35384Y-30791D02*
X34809Y-30216D01*
X35934Y-30791D02*
X35384Y-30791D01*
X36419Y-31276D02*
X35934Y-30791D01*
X38210Y-32114D02*
X40386Y-32114D01*
X40809Y-31691D02*
X40809Y-30216D01*
X40386Y-32114D02*
X40809Y-31691D01*
X37698Y-32114D02*
X37698Y-31376D01*
X39809Y-30666D02*
X39809Y-30216D01*
X39509Y-30966D02*
X39809Y-30666D01*
X38109Y-30966D02*
X39509Y-30966D01*
X37698Y-31376D02*
X38109Y-30966D01*
X37442Y-32114D02*
X37442Y-31282D01*
X38309Y-30716D02*
X38809Y-30216D01*
X38009Y-30716D02*
X38309Y-30716D01*
X37442Y-31282D02*
X38009Y-30716D01*
X37187Y-32114D02*
X37187Y-30838D01*
X37187Y-30838D02*
X37809Y-30216D01*
X36931Y-32114D02*
X36931Y-30338D01*
X36931Y-30338D02*
X36809Y-30216D01*
X36675Y-32114D02*
X36675Y-31082D01*
X36675Y-31082D02*
X35809Y-30216D01*
X36163Y-32114D02*
X36163Y-31345D01*
X34609Y-31016D02*
X33809Y-30216D01*
X35834Y-31016D02*
X34609Y-31016D01*
X36163Y-31345D02*
X35834Y-31016D01*
X34059Y-36716D02*
X34909Y-35866D01*
X36163Y-35062D02*
X36163Y-34318D01*
X35359Y-35866D02*
X36163Y-35062D01*
X34909Y-35866D02*
X35359Y-35866D01*
G54D21*
X30854Y-18594D02*
X30681Y-18594D01*
X30681Y-18594D02*
X30159Y-19116D01*
X30159Y-20116D02*
X29334Y-20941D01*
X30159Y-19116D02*
X30159Y-20116D01*
X29334Y-20941D02*
X29334Y-21266D01*
X29334Y-21266D02*
X29334Y-20941D01*
X30854Y-18594D02*
X31854Y-18594D01*
G54D22*
X36419Y-34318D02*
X36419Y-35106D01*
X35469Y-36056D02*
X35469Y-36306D01*
X36419Y-35106D02*
X35469Y-36056D01*
X35469Y-36306D02*
X35059Y-36716D01*
X35469Y-36306D02*
X35059Y-36716D01*
X36675Y-34318D02*
X36675Y-35450D01*
X36675Y-35450D02*
X36059Y-36066D01*
X36059Y-36066D02*
X36059Y-36716D01*
X36931Y-34318D02*
X36931Y-36588D01*
X36931Y-36588D02*
X37059Y-36716D01*
X37187Y-34318D02*
X37187Y-35844D01*
X37187Y-35844D02*
X38059Y-36716D01*
X37442Y-34318D02*
X37442Y-35400D01*
X39059Y-36091D02*
X39059Y-36716D01*
X38759Y-35791D02*
X39059Y-36091D01*
X37834Y-35791D02*
X38759Y-35791D01*
X37442Y-35400D02*
X37834Y-35791D01*
G54D10*
G36*
X52979Y-37361D02*
X52863Y-37361D01*
X52863Y-24548D01*
X52852Y-24329D01*
X52790Y-24178D01*
X52759Y-24169D01*
X52759Y-23377D01*
X52690Y-23211D01*
X52564Y-23085D01*
X52398Y-23016D01*
X52219Y-23016D01*
X52164Y-23039D01*
X50509Y-21383D01*
X50509Y-19966D01*
X50509Y-19466D01*
X50509Y-18966D01*
X50509Y-18966D01*
X50493Y-18889D01*
X50493Y-18889D01*
X50479Y-18868D01*
X50450Y-18825D01*
X50450Y-18825D01*
X50304Y-18678D01*
X50304Y-18505D01*
X50236Y-18339D01*
X50109Y-18213D01*
X49944Y-18144D01*
X49765Y-18144D01*
X49599Y-18212D01*
X49473Y-18339D01*
X49404Y-18504D01*
X49404Y-18683D01*
X49472Y-18849D01*
X49599Y-18975D01*
X49764Y-19044D01*
X49943Y-19044D01*
X50057Y-18997D01*
X50109Y-19049D01*
X50109Y-19213D01*
X49944Y-19144D01*
X49765Y-19144D01*
X49599Y-19212D01*
X49509Y-19303D01*
X49509Y-19049D01*
X49493Y-18972D01*
X49493Y-18972D01*
X49479Y-18951D01*
X49450Y-18907D01*
X49450Y-18907D01*
X49281Y-18738D01*
X49304Y-18684D01*
X49304Y-18505D01*
X49236Y-18339D01*
X49109Y-18213D01*
X48944Y-18144D01*
X48765Y-18144D01*
X48599Y-18212D01*
X48473Y-18339D01*
X48404Y-18504D01*
X48404Y-18683D01*
X48472Y-18849D01*
X48599Y-18975D01*
X48764Y-19044D01*
X48943Y-19044D01*
X48998Y-19021D01*
X49109Y-19132D01*
X49109Y-19213D01*
X48944Y-19144D01*
X48765Y-19144D01*
X48599Y-19212D01*
X48509Y-19303D01*
X48509Y-19049D01*
X48493Y-18972D01*
X48493Y-18972D01*
X48479Y-18951D01*
X48450Y-18907D01*
X48450Y-18907D01*
X48281Y-18738D01*
X48304Y-18684D01*
X48304Y-18505D01*
X48236Y-18339D01*
X48109Y-18213D01*
X47944Y-18144D01*
X47765Y-18144D01*
X47599Y-18212D01*
X47473Y-18339D01*
X47404Y-18504D01*
X47404Y-18683D01*
X47472Y-18849D01*
X47599Y-18975D01*
X47764Y-19044D01*
X47943Y-19044D01*
X47998Y-19021D01*
X48109Y-19132D01*
X48109Y-19213D01*
X47944Y-19144D01*
X47765Y-19144D01*
X47599Y-19212D01*
X47473Y-19339D01*
X47404Y-19504D01*
X47404Y-19683D01*
X47472Y-19849D01*
X47599Y-19975D01*
X47654Y-19998D01*
X47654Y-22011D01*
X47669Y-22088D01*
X47712Y-22153D01*
X48109Y-22549D01*
X48109Y-23062D01*
X48054Y-23084D01*
X47927Y-23211D01*
X47859Y-23376D01*
X47858Y-23555D01*
X47927Y-23721D01*
X48053Y-23847D01*
X48219Y-23916D01*
X48295Y-23916D01*
X48172Y-23922D01*
X48021Y-23985D01*
X47993Y-24080D01*
X48309Y-24395D01*
X48624Y-24080D01*
X48596Y-23985D01*
X48401Y-23915D01*
X48563Y-23848D01*
X48690Y-23721D01*
X48758Y-23556D01*
X48759Y-23377D01*
X48690Y-23211D01*
X48564Y-23085D01*
X48509Y-23062D01*
X48509Y-22466D01*
X48493Y-22389D01*
X48493Y-22389D01*
X48479Y-22368D01*
X48450Y-22325D01*
X48450Y-22325D01*
X48054Y-21928D01*
X48054Y-19998D01*
X48108Y-19976D01*
X48109Y-19976D01*
X48109Y-21466D01*
X48124Y-21543D01*
X48167Y-21607D01*
X49109Y-22549D01*
X49109Y-23062D01*
X49054Y-23084D01*
X48927Y-23211D01*
X48859Y-23376D01*
X48858Y-23555D01*
X48927Y-23721D01*
X49053Y-23847D01*
X49219Y-23916D01*
X49295Y-23916D01*
X49172Y-23922D01*
X49021Y-23985D01*
X48993Y-24080D01*
X49309Y-24395D01*
X49624Y-24080D01*
X49596Y-23985D01*
X49401Y-23915D01*
X49563Y-23848D01*
X49690Y-23721D01*
X49758Y-23556D01*
X49759Y-23377D01*
X49690Y-23211D01*
X49564Y-23085D01*
X49509Y-23062D01*
X49509Y-22466D01*
X49493Y-22389D01*
X49493Y-22389D01*
X49479Y-22368D01*
X49450Y-22325D01*
X49450Y-22325D01*
X48509Y-21383D01*
X48509Y-19885D01*
X48599Y-19975D01*
X48654Y-19998D01*
X48654Y-21261D01*
X48669Y-21338D01*
X48712Y-21403D01*
X50109Y-22799D01*
X50109Y-23062D01*
X50054Y-23084D01*
X49927Y-23211D01*
X49859Y-23376D01*
X49858Y-23555D01*
X49927Y-23721D01*
X50053Y-23847D01*
X50219Y-23916D01*
X50295Y-23916D01*
X50172Y-23922D01*
X50021Y-23985D01*
X49993Y-24080D01*
X50309Y-24395D01*
X50624Y-24080D01*
X50596Y-23985D01*
X50401Y-23915D01*
X50563Y-23848D01*
X50690Y-23721D01*
X50758Y-23556D01*
X50759Y-23377D01*
X50690Y-23211D01*
X50564Y-23085D01*
X50509Y-23062D01*
X50509Y-22716D01*
X50493Y-22639D01*
X50493Y-22639D01*
X50450Y-22575D01*
X49054Y-21178D01*
X49054Y-19998D01*
X49108Y-19976D01*
X49109Y-19976D01*
X49109Y-20966D01*
X49124Y-21043D01*
X49167Y-21107D01*
X51109Y-23049D01*
X51109Y-23062D01*
X51054Y-23084D01*
X50927Y-23211D01*
X50859Y-23376D01*
X50858Y-23555D01*
X50927Y-23721D01*
X51053Y-23847D01*
X51219Y-23916D01*
X51295Y-23916D01*
X51172Y-23922D01*
X51021Y-23985D01*
X50993Y-24080D01*
X51309Y-24395D01*
X51624Y-24080D01*
X51596Y-23985D01*
X51401Y-23915D01*
X51563Y-23848D01*
X51690Y-23721D01*
X51758Y-23556D01*
X51759Y-23377D01*
X51690Y-23211D01*
X51564Y-23085D01*
X51509Y-23062D01*
X51509Y-22966D01*
X51509Y-22966D01*
X51504Y-22945D01*
X51881Y-23322D01*
X51859Y-23376D01*
X51858Y-23555D01*
X51927Y-23721D01*
X52053Y-23847D01*
X52219Y-23916D01*
X52295Y-23916D01*
X52172Y-23922D01*
X52021Y-23985D01*
X51993Y-24080D01*
X52309Y-24395D01*
X52624Y-24080D01*
X52596Y-23985D01*
X52401Y-23915D01*
X52563Y-23848D01*
X52690Y-23721D01*
X52758Y-23556D01*
X52759Y-23377D01*
X52759Y-24169D01*
X52694Y-24151D01*
X52379Y-24466D01*
X52694Y-24781D01*
X52790Y-24754D01*
X52863Y-24548D01*
X52863Y-37361D01*
X52759Y-37361D01*
X52759Y-25736D01*
X52759Y-25136D01*
X52736Y-25081D01*
X52694Y-25039D01*
X52639Y-25016D01*
X52579Y-25016D01*
X52323Y-25016D01*
X52445Y-25010D01*
X52596Y-24947D01*
X52624Y-24852D01*
X52309Y-24537D01*
X52238Y-24607D01*
X52238Y-24466D01*
X51923Y-24151D01*
X51827Y-24178D01*
X51810Y-24227D01*
X51790Y-24178D01*
X51694Y-24151D01*
X51379Y-24466D01*
X51694Y-24781D01*
X51790Y-24754D01*
X51807Y-24705D01*
X51827Y-24754D01*
X51923Y-24781D01*
X52238Y-24466D01*
X52238Y-24607D01*
X51993Y-24852D01*
X52021Y-24947D01*
X52213Y-25016D01*
X51979Y-25016D01*
X51924Y-25039D01*
X51881Y-25081D01*
X51859Y-25136D01*
X51859Y-25196D01*
X51859Y-25796D01*
X51881Y-25851D01*
X51923Y-25893D01*
X51979Y-25916D01*
X52038Y-25916D01*
X52638Y-25916D01*
X52693Y-25893D01*
X52736Y-25851D01*
X52759Y-25796D01*
X52759Y-25736D01*
X52759Y-37361D01*
X52599Y-37361D01*
X52599Y-36089D01*
X52502Y-35854D01*
X52322Y-35673D01*
X52109Y-35585D01*
X52109Y-31027D01*
X52109Y-30027D01*
X52109Y-29027D01*
X52040Y-28861D01*
X51914Y-28735D01*
X51759Y-28670D01*
X51759Y-25736D01*
X51759Y-25136D01*
X51736Y-25081D01*
X51694Y-25039D01*
X51639Y-25016D01*
X51579Y-25016D01*
X51323Y-25016D01*
X51445Y-25010D01*
X51596Y-24947D01*
X51624Y-24852D01*
X51309Y-24537D01*
X51238Y-24607D01*
X51238Y-24466D01*
X50923Y-24151D01*
X50827Y-24178D01*
X50810Y-24227D01*
X50790Y-24178D01*
X50694Y-24151D01*
X50379Y-24466D01*
X50694Y-24781D01*
X50790Y-24754D01*
X50807Y-24705D01*
X50827Y-24754D01*
X50923Y-24781D01*
X51238Y-24466D01*
X51238Y-24607D01*
X50993Y-24852D01*
X51021Y-24947D01*
X51213Y-25016D01*
X50979Y-25016D01*
X50924Y-25039D01*
X50881Y-25081D01*
X50859Y-25136D01*
X50859Y-25196D01*
X50859Y-25796D01*
X50881Y-25851D01*
X50923Y-25893D01*
X50979Y-25916D01*
X51038Y-25916D01*
X51638Y-25916D01*
X51693Y-25893D01*
X51736Y-25851D01*
X51759Y-25796D01*
X51759Y-25736D01*
X51759Y-28670D01*
X51748Y-28666D01*
X51569Y-28666D01*
X51404Y-28734D01*
X51277Y-28861D01*
X51209Y-29026D01*
X51208Y-29205D01*
X51277Y-29371D01*
X51403Y-29497D01*
X51569Y-29566D01*
X51748Y-29566D01*
X51913Y-29498D01*
X52040Y-29371D01*
X52108Y-29206D01*
X52109Y-29027D01*
X52109Y-30027D01*
X52040Y-29861D01*
X51914Y-29735D01*
X51748Y-29666D01*
X51569Y-29666D01*
X51404Y-29734D01*
X51277Y-29861D01*
X51209Y-30026D01*
X51208Y-30205D01*
X51277Y-30371D01*
X51403Y-30497D01*
X51569Y-30566D01*
X51748Y-30566D01*
X51913Y-30498D01*
X52040Y-30371D01*
X52108Y-30206D01*
X52109Y-30027D01*
X52109Y-31027D01*
X52040Y-30861D01*
X51914Y-30735D01*
X51748Y-30666D01*
X51569Y-30666D01*
X51404Y-30734D01*
X51277Y-30861D01*
X51209Y-31026D01*
X51208Y-31205D01*
X51277Y-31371D01*
X51403Y-31497D01*
X51569Y-31566D01*
X51748Y-31566D01*
X51913Y-31498D01*
X52040Y-31371D01*
X52108Y-31206D01*
X52109Y-31027D01*
X52109Y-35585D01*
X52109Y-35585D01*
X52109Y-32386D01*
X52109Y-31786D01*
X52086Y-31731D01*
X52044Y-31689D01*
X51989Y-31666D01*
X51929Y-31666D01*
X51329Y-31666D01*
X51274Y-31689D01*
X51231Y-31731D01*
X51209Y-31786D01*
X51209Y-31846D01*
X51209Y-32446D01*
X51231Y-32501D01*
X51273Y-32543D01*
X51329Y-32566D01*
X51388Y-32566D01*
X51988Y-32566D01*
X52043Y-32543D01*
X52086Y-32501D01*
X52109Y-32446D01*
X52109Y-32386D01*
X52109Y-35585D01*
X52087Y-35576D01*
X51832Y-35575D01*
X51596Y-35673D01*
X51416Y-35853D01*
X51318Y-36088D01*
X51318Y-36343D01*
X51415Y-36578D01*
X51595Y-36759D01*
X51831Y-36856D01*
X52085Y-36857D01*
X52321Y-36759D01*
X52501Y-36579D01*
X52599Y-36344D01*
X52599Y-36089D01*
X52599Y-37361D01*
X51109Y-37361D01*
X51109Y-32027D01*
X51040Y-31861D01*
X50914Y-31735D01*
X50748Y-31666D01*
X50569Y-31666D01*
X50404Y-31734D01*
X50382Y-31756D01*
X48959Y-31756D01*
X48959Y-31702D01*
X48959Y-31589D01*
X48896Y-31526D01*
X48584Y-31526D01*
X48584Y-31534D01*
X48484Y-31534D01*
X48484Y-31526D01*
X48476Y-31526D01*
X48476Y-31426D01*
X48484Y-31426D01*
X48484Y-31418D01*
X48584Y-31418D01*
X48584Y-31426D01*
X48896Y-31426D01*
X48959Y-31364D01*
X48959Y-31251D01*
X48959Y-31151D01*
X48952Y-31136D01*
X50209Y-31136D01*
X50208Y-31205D01*
X50277Y-31371D01*
X50403Y-31497D01*
X50569Y-31566D01*
X50748Y-31566D01*
X50913Y-31498D01*
X51040Y-31371D01*
X51108Y-31206D01*
X51109Y-31027D01*
X51040Y-30861D01*
X50914Y-30735D01*
X50748Y-30666D01*
X50569Y-30666D01*
X50404Y-30734D01*
X50402Y-30736D01*
X48959Y-30736D01*
X48959Y-30682D01*
X48959Y-30569D01*
X48896Y-30506D01*
X48584Y-30506D01*
X48584Y-30514D01*
X48484Y-30514D01*
X48484Y-30506D01*
X48476Y-30506D01*
X48476Y-30406D01*
X48484Y-30406D01*
X48484Y-30398D01*
X48584Y-30398D01*
X48584Y-30406D01*
X48896Y-30406D01*
X48959Y-30344D01*
X48959Y-30231D01*
X48959Y-30136D01*
X50209Y-30136D01*
X50208Y-30205D01*
X50277Y-30371D01*
X50403Y-30497D01*
X50569Y-30566D01*
X50748Y-30566D01*
X50913Y-30498D01*
X51040Y-30371D01*
X51108Y-30206D01*
X51109Y-30027D01*
X51040Y-29861D01*
X50914Y-29735D01*
X50748Y-29666D01*
X50569Y-29666D01*
X50404Y-29734D01*
X50402Y-29736D01*
X48959Y-29736D01*
X48959Y-29642D01*
X48959Y-29529D01*
X48896Y-29466D01*
X48584Y-29466D01*
X48584Y-29474D01*
X48484Y-29474D01*
X48484Y-29466D01*
X48476Y-29466D01*
X48476Y-29366D01*
X48484Y-29366D01*
X48484Y-29358D01*
X48584Y-29358D01*
X48584Y-29366D01*
X48896Y-29366D01*
X48959Y-29304D01*
X48959Y-29191D01*
X48959Y-29116D01*
X50209Y-29116D01*
X50208Y-29205D01*
X50277Y-29371D01*
X50403Y-29497D01*
X50569Y-29566D01*
X50748Y-29566D01*
X50913Y-29498D01*
X51040Y-29371D01*
X51108Y-29206D01*
X51109Y-29027D01*
X51040Y-28861D01*
X50914Y-28735D01*
X50759Y-28670D01*
X50759Y-25736D01*
X50759Y-25136D01*
X50736Y-25081D01*
X50694Y-25039D01*
X50639Y-25016D01*
X50579Y-25016D01*
X50323Y-25016D01*
X50445Y-25010D01*
X50596Y-24947D01*
X50624Y-24852D01*
X50309Y-24537D01*
X50238Y-24607D01*
X50238Y-24466D01*
X49923Y-24151D01*
X49827Y-24178D01*
X49810Y-24227D01*
X49790Y-24178D01*
X49694Y-24151D01*
X49379Y-24466D01*
X49694Y-24781D01*
X49790Y-24754D01*
X49807Y-24705D01*
X49827Y-24754D01*
X49923Y-24781D01*
X50238Y-24466D01*
X50238Y-24607D01*
X49993Y-24852D01*
X50021Y-24947D01*
X50213Y-25016D01*
X49979Y-25016D01*
X49924Y-25039D01*
X49881Y-25081D01*
X49859Y-25136D01*
X49859Y-25196D01*
X49859Y-25796D01*
X49881Y-25851D01*
X49923Y-25893D01*
X49979Y-25916D01*
X50038Y-25916D01*
X50638Y-25916D01*
X50693Y-25893D01*
X50736Y-25851D01*
X50759Y-25796D01*
X50759Y-25736D01*
X50759Y-28670D01*
X50748Y-28666D01*
X50569Y-28666D01*
X50448Y-28716D01*
X49759Y-28716D01*
X49759Y-25736D01*
X49759Y-25136D01*
X49736Y-25081D01*
X49694Y-25039D01*
X49639Y-25016D01*
X49579Y-25016D01*
X49323Y-25016D01*
X49445Y-25010D01*
X49596Y-24947D01*
X49624Y-24852D01*
X49309Y-24537D01*
X49238Y-24607D01*
X49238Y-24466D01*
X48923Y-24151D01*
X48827Y-24178D01*
X48810Y-24227D01*
X48790Y-24178D01*
X48694Y-24151D01*
X48379Y-24466D01*
X48694Y-24781D01*
X48790Y-24754D01*
X48807Y-24705D01*
X48827Y-24754D01*
X48923Y-24781D01*
X49238Y-24466D01*
X49238Y-24607D01*
X48993Y-24852D01*
X49021Y-24947D01*
X49213Y-25016D01*
X48979Y-25016D01*
X48924Y-25039D01*
X48881Y-25081D01*
X48859Y-25136D01*
X48859Y-25196D01*
X48859Y-25796D01*
X48881Y-25851D01*
X48923Y-25893D01*
X48979Y-25916D01*
X49038Y-25916D01*
X49638Y-25916D01*
X49693Y-25893D01*
X49736Y-25851D01*
X49759Y-25796D01*
X49759Y-25736D01*
X49759Y-28716D01*
X48759Y-28716D01*
X48759Y-25736D01*
X48759Y-25136D01*
X48736Y-25081D01*
X48694Y-25039D01*
X48639Y-25016D01*
X48579Y-25016D01*
X48323Y-25016D01*
X48445Y-25010D01*
X48596Y-24947D01*
X48624Y-24852D01*
X48309Y-24537D01*
X48238Y-24607D01*
X48238Y-24466D01*
X47923Y-24151D01*
X47827Y-24178D01*
X47810Y-24227D01*
X47790Y-24178D01*
X47759Y-24169D01*
X47759Y-23377D01*
X47690Y-23211D01*
X47564Y-23085D01*
X47509Y-23062D01*
X47509Y-22966D01*
X47493Y-22889D01*
X47493Y-22889D01*
X47479Y-22868D01*
X47450Y-22825D01*
X47450Y-22825D01*
X47054Y-22428D01*
X47054Y-19998D01*
X47108Y-19976D01*
X47235Y-19849D01*
X47304Y-19684D01*
X47304Y-19505D01*
X47304Y-18505D01*
X47236Y-18339D01*
X47109Y-18213D01*
X46944Y-18144D01*
X46765Y-18144D01*
X46599Y-18212D01*
X46473Y-18339D01*
X46404Y-18504D01*
X46404Y-18683D01*
X46472Y-18849D01*
X46599Y-18975D01*
X46764Y-19044D01*
X46943Y-19044D01*
X47108Y-18976D01*
X47235Y-18849D01*
X47304Y-18684D01*
X47304Y-18505D01*
X47304Y-19505D01*
X47236Y-19339D01*
X47109Y-19213D01*
X46944Y-19144D01*
X46765Y-19144D01*
X46599Y-19212D01*
X46509Y-19303D01*
X46509Y-19049D01*
X46493Y-18972D01*
X46493Y-18972D01*
X46479Y-18951D01*
X46450Y-18907D01*
X46450Y-18907D01*
X46281Y-18738D01*
X46304Y-18684D01*
X46304Y-18505D01*
X46236Y-18339D01*
X46109Y-18213D01*
X45944Y-18144D01*
X45765Y-18144D01*
X45599Y-18212D01*
X45473Y-18339D01*
X45404Y-18504D01*
X45404Y-18683D01*
X45472Y-18849D01*
X45599Y-18975D01*
X45764Y-19044D01*
X45943Y-19044D01*
X45998Y-19021D01*
X46109Y-19132D01*
X46109Y-19213D01*
X45944Y-19144D01*
X45765Y-19144D01*
X45599Y-19212D01*
X45473Y-19339D01*
X45404Y-19504D01*
X45404Y-19683D01*
X45472Y-19849D01*
X45599Y-19975D01*
X45654Y-19998D01*
X45654Y-20588D01*
X45304Y-20938D01*
X45304Y-19505D01*
X45304Y-18505D01*
X45236Y-18339D01*
X45109Y-18213D01*
X44944Y-18144D01*
X44765Y-18144D01*
X44599Y-18212D01*
X44473Y-18339D01*
X44404Y-18504D01*
X44404Y-18683D01*
X44472Y-18849D01*
X44599Y-18975D01*
X44764Y-19044D01*
X44943Y-19044D01*
X45108Y-18976D01*
X45235Y-18849D01*
X45304Y-18684D01*
X45304Y-18505D01*
X45304Y-19505D01*
X45236Y-19339D01*
X45109Y-19213D01*
X44944Y-19144D01*
X44765Y-19144D01*
X44599Y-19212D01*
X44473Y-19339D01*
X44404Y-19504D01*
X44404Y-19683D01*
X44472Y-19849D01*
X44599Y-19975D01*
X44654Y-19998D01*
X44654Y-20338D01*
X44304Y-20688D01*
X44304Y-19505D01*
X44304Y-18505D01*
X44236Y-18339D01*
X44109Y-18213D01*
X43944Y-18144D01*
X43765Y-18144D01*
X43599Y-18212D01*
X43473Y-18339D01*
X43404Y-18504D01*
X43404Y-18683D01*
X43472Y-18849D01*
X43599Y-18975D01*
X43764Y-19044D01*
X43943Y-19044D01*
X44108Y-18976D01*
X44235Y-18849D01*
X44304Y-18684D01*
X44304Y-18505D01*
X44304Y-19505D01*
X44236Y-19339D01*
X44109Y-19213D01*
X43944Y-19144D01*
X43765Y-19144D01*
X43599Y-19212D01*
X43554Y-19258D01*
X43554Y-19094D01*
X43541Y-19030D01*
X43539Y-19017D01*
X43539Y-19017D01*
X43495Y-18953D01*
X43281Y-18738D01*
X43304Y-18684D01*
X43304Y-18505D01*
X43236Y-18339D01*
X43109Y-18213D01*
X42944Y-18144D01*
X42765Y-18144D01*
X42599Y-18212D01*
X42473Y-18339D01*
X42404Y-18504D01*
X42404Y-18683D01*
X42472Y-18849D01*
X42599Y-18975D01*
X42764Y-19044D01*
X42943Y-19044D01*
X42998Y-19021D01*
X43154Y-19177D01*
X43154Y-19258D01*
X43109Y-19213D01*
X42944Y-19144D01*
X42765Y-19144D01*
X42599Y-19212D01*
X42554Y-19258D01*
X42554Y-19094D01*
X42541Y-19030D01*
X42539Y-19017D01*
X42539Y-19017D01*
X42495Y-18953D01*
X42281Y-18738D01*
X42304Y-18684D01*
X42304Y-18505D01*
X42236Y-18339D01*
X42109Y-18213D01*
X41944Y-18144D01*
X41765Y-18144D01*
X41599Y-18212D01*
X41473Y-18339D01*
X41404Y-18504D01*
X41404Y-18683D01*
X41472Y-18849D01*
X41599Y-18975D01*
X41764Y-19044D01*
X41943Y-19044D01*
X41998Y-19021D01*
X42154Y-19177D01*
X42154Y-19258D01*
X42109Y-19213D01*
X41944Y-19144D01*
X41765Y-19144D01*
X41599Y-19212D01*
X41473Y-19339D01*
X41404Y-19504D01*
X41404Y-19683D01*
X41472Y-19849D01*
X41599Y-19975D01*
X41654Y-19998D01*
X41654Y-22488D01*
X41292Y-22850D01*
X41289Y-22835D01*
X41289Y-22835D01*
X41274Y-22813D01*
X41245Y-22770D01*
X41245Y-22770D01*
X41054Y-22578D01*
X41054Y-19998D01*
X41108Y-19976D01*
X41235Y-19849D01*
X41304Y-19684D01*
X41304Y-19505D01*
X41236Y-19339D01*
X41109Y-19213D01*
X40944Y-19144D01*
X40765Y-19144D01*
X40599Y-19212D01*
X40554Y-19258D01*
X40554Y-19177D01*
X40709Y-19021D01*
X40764Y-19044D01*
X40943Y-19044D01*
X41108Y-18976D01*
X41235Y-18849D01*
X41304Y-18684D01*
X41304Y-18505D01*
X41236Y-18339D01*
X41109Y-18213D01*
X40944Y-18144D01*
X40765Y-18144D01*
X40599Y-18212D01*
X40473Y-18339D01*
X40404Y-18504D01*
X40404Y-18683D01*
X40427Y-18738D01*
X40304Y-18861D01*
X40304Y-18505D01*
X40236Y-18339D01*
X40109Y-18213D01*
X39944Y-18144D01*
X39765Y-18144D01*
X39599Y-18212D01*
X39473Y-18339D01*
X39404Y-18504D01*
X39404Y-18683D01*
X39472Y-18849D01*
X39599Y-18975D01*
X39764Y-19044D01*
X39943Y-19044D01*
X40108Y-18976D01*
X40235Y-18849D01*
X40304Y-18684D01*
X40304Y-18505D01*
X40304Y-18861D01*
X40212Y-18953D01*
X40169Y-19017D01*
X40154Y-19094D01*
X40154Y-19258D01*
X40109Y-19213D01*
X39944Y-19144D01*
X39765Y-19144D01*
X39599Y-19212D01*
X39473Y-19339D01*
X39404Y-19504D01*
X39404Y-19683D01*
X39472Y-19849D01*
X39599Y-19975D01*
X39764Y-20044D01*
X39943Y-20044D01*
X40108Y-19976D01*
X40154Y-19930D01*
X40154Y-20111D01*
X40169Y-20188D01*
X40212Y-20253D01*
X40409Y-20449D01*
X40409Y-22283D01*
X40212Y-22479D01*
X40169Y-22544D01*
X40154Y-22621D01*
X40154Y-23416D01*
X40169Y-23493D01*
X40212Y-23557D01*
X40309Y-23654D01*
X40309Y-26249D01*
X40324Y-26325D01*
X40367Y-26390D01*
X40427Y-26450D01*
X40404Y-26504D01*
X40404Y-26683D01*
X40472Y-26849D01*
X40599Y-26975D01*
X40764Y-27044D01*
X40840Y-27044D01*
X40717Y-27050D01*
X40566Y-27113D01*
X40539Y-27208D01*
X40854Y-27523D01*
X41169Y-27208D01*
X41142Y-27113D01*
X40946Y-27043D01*
X41108Y-26976D01*
X41235Y-26849D01*
X41304Y-26684D01*
X41304Y-26505D01*
X41236Y-26339D01*
X41109Y-26213D01*
X40944Y-26144D01*
X40765Y-26144D01*
X40709Y-26167D01*
X40709Y-26166D01*
X40709Y-25782D01*
X41412Y-26485D01*
X41404Y-26504D01*
X41404Y-26683D01*
X41472Y-26849D01*
X41599Y-26975D01*
X41764Y-27044D01*
X41840Y-27044D01*
X41717Y-27050D01*
X41566Y-27113D01*
X41539Y-27208D01*
X41854Y-27523D01*
X42169Y-27208D01*
X42142Y-27113D01*
X41946Y-27043D01*
X42108Y-26976D01*
X42235Y-26849D01*
X42258Y-26794D01*
X42450Y-26794D01*
X42472Y-26849D01*
X42599Y-26975D01*
X42764Y-27044D01*
X42840Y-27044D01*
X42717Y-27050D01*
X42566Y-27113D01*
X42539Y-27208D01*
X42854Y-27523D01*
X43169Y-27208D01*
X43142Y-27113D01*
X42946Y-27043D01*
X43108Y-26976D01*
X43235Y-26849D01*
X43304Y-26684D01*
X43304Y-26505D01*
X43236Y-26339D01*
X43109Y-26213D01*
X42944Y-26144D01*
X42765Y-26144D01*
X42599Y-26212D01*
X42473Y-26339D01*
X42450Y-26394D01*
X42258Y-26394D01*
X42236Y-26339D01*
X42109Y-26213D01*
X41944Y-26144D01*
X41765Y-26144D01*
X41674Y-26181D01*
X40954Y-25461D01*
X40954Y-25323D01*
X40962Y-25335D01*
X41362Y-25735D01*
X41362Y-25735D01*
X41406Y-25764D01*
X41427Y-25779D01*
X41427Y-25779D01*
X41445Y-25782D01*
X41445Y-25782D01*
X41472Y-25849D01*
X41599Y-25975D01*
X41764Y-26044D01*
X41943Y-26044D01*
X42108Y-25976D01*
X42235Y-25849D01*
X42258Y-25794D01*
X42450Y-25794D01*
X42472Y-25849D01*
X42599Y-25975D01*
X42764Y-26044D01*
X42943Y-26044D01*
X43108Y-25976D01*
X43110Y-25974D01*
X43124Y-26043D01*
X43167Y-26107D01*
X43534Y-26474D01*
X43533Y-26580D01*
X43583Y-26700D01*
X43674Y-26791D01*
X43794Y-26841D01*
X43923Y-26841D01*
X44042Y-26792D01*
X44134Y-26700D01*
X44183Y-26581D01*
X44184Y-26452D01*
X44134Y-26332D01*
X44043Y-26241D01*
X43923Y-26191D01*
X43816Y-26191D01*
X43509Y-25883D01*
X43509Y-21599D01*
X43616Y-21491D01*
X43723Y-21491D01*
X43842Y-21442D01*
X43934Y-21350D01*
X43983Y-21231D01*
X43984Y-21102D01*
X43934Y-20982D01*
X43843Y-20891D01*
X43723Y-20841D01*
X43594Y-20841D01*
X43475Y-20890D01*
X43383Y-20982D01*
X43334Y-21101D01*
X43334Y-21208D01*
X43167Y-21375D01*
X43124Y-21439D01*
X43109Y-21516D01*
X43109Y-23213D01*
X43054Y-23190D01*
X43054Y-20627D01*
X43495Y-20185D01*
X43539Y-20121D01*
X43539Y-20121D01*
X43541Y-20108D01*
X43554Y-20044D01*
X43554Y-20044D01*
X43554Y-19930D01*
X43599Y-19975D01*
X43764Y-20044D01*
X43943Y-20044D01*
X44108Y-19976D01*
X44235Y-19849D01*
X44304Y-19684D01*
X44304Y-19505D01*
X44304Y-20688D01*
X44167Y-20825D01*
X44124Y-20889D01*
X44109Y-20966D01*
X44109Y-23062D01*
X44054Y-23084D01*
X43927Y-23211D01*
X43859Y-23376D01*
X43858Y-23555D01*
X43927Y-23721D01*
X44053Y-23847D01*
X44219Y-23916D01*
X44295Y-23916D01*
X44172Y-23922D01*
X44021Y-23985D01*
X43993Y-24080D01*
X44309Y-24395D01*
X44624Y-24080D01*
X44596Y-23985D01*
X44401Y-23915D01*
X44563Y-23848D01*
X44690Y-23721D01*
X44758Y-23556D01*
X44759Y-23377D01*
X44690Y-23211D01*
X44564Y-23085D01*
X44509Y-23062D01*
X44509Y-21049D01*
X44995Y-20562D01*
X44995Y-20562D01*
X45024Y-20519D01*
X45039Y-20497D01*
X45039Y-20497D01*
X45054Y-20421D01*
X45054Y-20421D01*
X45054Y-19998D01*
X45108Y-19976D01*
X45235Y-19849D01*
X45304Y-19684D01*
X45304Y-19505D01*
X45304Y-20938D01*
X45167Y-21075D01*
X45124Y-21139D01*
X45109Y-21216D01*
X45109Y-23062D01*
X45054Y-23084D01*
X44927Y-23211D01*
X44859Y-23376D01*
X44858Y-23555D01*
X44927Y-23721D01*
X45053Y-23847D01*
X45219Y-23916D01*
X45295Y-23916D01*
X45172Y-23922D01*
X45021Y-23985D01*
X44993Y-24080D01*
X45309Y-24395D01*
X45624Y-24080D01*
X45596Y-23985D01*
X45401Y-23915D01*
X45563Y-23848D01*
X45690Y-23721D01*
X45758Y-23556D01*
X45759Y-23377D01*
X45690Y-23211D01*
X45564Y-23085D01*
X45509Y-23062D01*
X45509Y-21299D01*
X45995Y-20812D01*
X45995Y-20812D01*
X46024Y-20769D01*
X46039Y-20747D01*
X46039Y-20747D01*
X46054Y-20671D01*
X46054Y-20671D01*
X46054Y-19998D01*
X46108Y-19976D01*
X46109Y-19976D01*
X46109Y-23062D01*
X46054Y-23084D01*
X45927Y-23211D01*
X45859Y-23376D01*
X45858Y-23555D01*
X45927Y-23721D01*
X46053Y-23847D01*
X46219Y-23916D01*
X46295Y-23916D01*
X46172Y-23922D01*
X46021Y-23985D01*
X45993Y-24080D01*
X46309Y-24395D01*
X46624Y-24080D01*
X46596Y-23985D01*
X46401Y-23915D01*
X46563Y-23848D01*
X46690Y-23721D01*
X46758Y-23556D01*
X46759Y-23377D01*
X46690Y-23211D01*
X46564Y-23085D01*
X46509Y-23062D01*
X46509Y-19885D01*
X46599Y-19975D01*
X46654Y-19998D01*
X46654Y-22511D01*
X46669Y-22588D01*
X46712Y-22653D01*
X47109Y-23049D01*
X47109Y-23062D01*
X47054Y-23084D01*
X46927Y-23211D01*
X46859Y-23376D01*
X46858Y-23555D01*
X46927Y-23721D01*
X47053Y-23847D01*
X47219Y-23916D01*
X47295Y-23916D01*
X47172Y-23922D01*
X47021Y-23985D01*
X46993Y-24080D01*
X47309Y-24395D01*
X47624Y-24080D01*
X47596Y-23985D01*
X47401Y-23915D01*
X47563Y-23848D01*
X47690Y-23721D01*
X47758Y-23556D01*
X47759Y-23377D01*
X47759Y-24169D01*
X47694Y-24151D01*
X47379Y-24466D01*
X47694Y-24781D01*
X47790Y-24754D01*
X47807Y-24705D01*
X47827Y-24754D01*
X47923Y-24781D01*
X48238Y-24466D01*
X48238Y-24607D01*
X47993Y-24852D01*
X48021Y-24947D01*
X48213Y-25016D01*
X47979Y-25016D01*
X47924Y-25039D01*
X47881Y-25081D01*
X47859Y-25136D01*
X47859Y-25196D01*
X47859Y-25796D01*
X47881Y-25851D01*
X47923Y-25893D01*
X47979Y-25916D01*
X48038Y-25916D01*
X48638Y-25916D01*
X48693Y-25893D01*
X48736Y-25851D01*
X48759Y-25796D01*
X48759Y-25736D01*
X48759Y-28716D01*
X47979Y-28716D01*
X47902Y-28731D01*
X47880Y-28746D01*
X47837Y-28775D01*
X47759Y-28853D01*
X47759Y-25736D01*
X47759Y-25136D01*
X47736Y-25081D01*
X47694Y-25039D01*
X47639Y-25016D01*
X47579Y-25016D01*
X47323Y-25016D01*
X47445Y-25010D01*
X47596Y-24947D01*
X47624Y-24852D01*
X47309Y-24537D01*
X47238Y-24607D01*
X47238Y-24466D01*
X46923Y-24151D01*
X46827Y-24178D01*
X46810Y-24227D01*
X46790Y-24178D01*
X46694Y-24151D01*
X46379Y-24466D01*
X46694Y-24781D01*
X46790Y-24754D01*
X46807Y-24705D01*
X46827Y-24754D01*
X46923Y-24781D01*
X47238Y-24466D01*
X47238Y-24607D01*
X46993Y-24852D01*
X47021Y-24947D01*
X47213Y-25016D01*
X46979Y-25016D01*
X46924Y-25039D01*
X46881Y-25081D01*
X46859Y-25136D01*
X46859Y-25196D01*
X46859Y-25796D01*
X46881Y-25851D01*
X46923Y-25893D01*
X46979Y-25916D01*
X47038Y-25916D01*
X47638Y-25916D01*
X47693Y-25893D01*
X47736Y-25851D01*
X47759Y-25796D01*
X47759Y-25736D01*
X47759Y-28853D01*
X47642Y-28970D01*
X47628Y-28991D01*
X47579Y-28991D01*
X47524Y-29014D01*
X47481Y-29056D01*
X47459Y-29111D01*
X47459Y-29171D01*
X47459Y-29458D01*
X47051Y-29866D01*
X47012Y-29866D01*
X47011Y-29863D01*
X46969Y-29821D01*
X46957Y-29816D01*
X46968Y-29811D01*
X47011Y-29769D01*
X47034Y-29714D01*
X47034Y-29654D01*
X47034Y-29418D01*
X47011Y-29363D01*
X46969Y-29321D01*
X46914Y-29298D01*
X46876Y-29298D01*
X46883Y-29281D01*
X46884Y-29152D01*
X46834Y-29032D01*
X46759Y-28956D01*
X46759Y-25736D01*
X46759Y-25136D01*
X46736Y-25081D01*
X46694Y-25039D01*
X46639Y-25016D01*
X46579Y-25016D01*
X46323Y-25016D01*
X46445Y-25010D01*
X46596Y-24947D01*
X46624Y-24852D01*
X46309Y-24537D01*
X46238Y-24607D01*
X46238Y-24466D01*
X45923Y-24151D01*
X45827Y-24178D01*
X45810Y-24227D01*
X45790Y-24178D01*
X45694Y-24151D01*
X45379Y-24466D01*
X45694Y-24781D01*
X45790Y-24754D01*
X45807Y-24705D01*
X45827Y-24754D01*
X45923Y-24781D01*
X46238Y-24466D01*
X46238Y-24607D01*
X45993Y-24852D01*
X46021Y-24947D01*
X46213Y-25016D01*
X45979Y-25016D01*
X45924Y-25039D01*
X45881Y-25081D01*
X45859Y-25136D01*
X45859Y-25196D01*
X45859Y-25796D01*
X45881Y-25851D01*
X45923Y-25893D01*
X45979Y-25916D01*
X46038Y-25916D01*
X46638Y-25916D01*
X46693Y-25893D01*
X46736Y-25851D01*
X46759Y-25796D01*
X46759Y-25736D01*
X46759Y-28956D01*
X46743Y-28941D01*
X46623Y-28891D01*
X46494Y-28891D01*
X46375Y-28940D01*
X46283Y-29032D01*
X46234Y-29151D01*
X46233Y-29280D01*
X46241Y-29298D01*
X46204Y-29298D01*
X46149Y-29321D01*
X46106Y-29363D01*
X46084Y-29418D01*
X46084Y-29478D01*
X46084Y-29714D01*
X46106Y-29769D01*
X46148Y-29811D01*
X46160Y-29816D01*
X46149Y-29821D01*
X46106Y-29863D01*
X46084Y-29918D01*
X46084Y-29978D01*
X46084Y-30214D01*
X46106Y-30269D01*
X46148Y-30311D01*
X46160Y-30316D01*
X46149Y-30321D01*
X46106Y-30363D01*
X46084Y-30418D01*
X46084Y-30478D01*
X46084Y-30714D01*
X46106Y-30769D01*
X46148Y-30811D01*
X46160Y-30816D01*
X46149Y-30821D01*
X46106Y-30863D01*
X46084Y-30918D01*
X46084Y-30978D01*
X46084Y-31214D01*
X46106Y-31269D01*
X46148Y-31311D01*
X46204Y-31334D01*
X46263Y-31334D01*
X46913Y-31334D01*
X46968Y-31311D01*
X46980Y-31300D01*
X47297Y-31617D01*
X47362Y-31661D01*
X47439Y-31676D01*
X47459Y-31676D01*
X47459Y-31781D01*
X47481Y-31836D01*
X47523Y-31878D01*
X47579Y-31901D01*
X47638Y-31901D01*
X47971Y-31901D01*
X47841Y-32031D01*
X47579Y-32031D01*
X47524Y-32054D01*
X47481Y-32096D01*
X47459Y-32151D01*
X47459Y-32211D01*
X47459Y-32256D01*
X47241Y-32256D01*
X46860Y-31875D01*
X46795Y-31831D01*
X46719Y-31816D01*
X45901Y-31816D01*
X45659Y-31573D01*
X45659Y-31036D01*
X45643Y-30959D01*
X45643Y-30959D01*
X45600Y-30895D01*
X45130Y-30425D01*
X45065Y-30381D01*
X44989Y-30366D01*
X44812Y-30366D01*
X44811Y-30363D01*
X44769Y-30321D01*
X44757Y-30316D01*
X44768Y-30311D01*
X44811Y-30269D01*
X44812Y-30266D01*
X44959Y-30266D01*
X45035Y-30251D01*
X45100Y-30207D01*
X45700Y-29607D01*
X45700Y-29607D01*
X45729Y-29564D01*
X45743Y-29543D01*
X45743Y-29543D01*
X45759Y-29466D01*
X45759Y-29466D01*
X45759Y-28826D01*
X45834Y-28750D01*
X45883Y-28631D01*
X45884Y-28502D01*
X45834Y-28382D01*
X45759Y-28306D01*
X45759Y-25736D01*
X45759Y-25136D01*
X45736Y-25081D01*
X45694Y-25039D01*
X45639Y-25016D01*
X45579Y-25016D01*
X45323Y-25016D01*
X45445Y-25010D01*
X45596Y-24947D01*
X45624Y-24852D01*
X45309Y-24537D01*
X45238Y-24607D01*
X45238Y-24466D01*
X44923Y-24151D01*
X44827Y-24178D01*
X44810Y-24227D01*
X44790Y-24178D01*
X44694Y-24151D01*
X44379Y-24466D01*
X44694Y-24781D01*
X44790Y-24754D01*
X44807Y-24705D01*
X44827Y-24754D01*
X44923Y-24781D01*
X45238Y-24466D01*
X45238Y-24607D01*
X44993Y-24852D01*
X45021Y-24947D01*
X45213Y-25016D01*
X44979Y-25016D01*
X44924Y-25039D01*
X44881Y-25081D01*
X44859Y-25136D01*
X44859Y-25196D01*
X44859Y-25796D01*
X44881Y-25851D01*
X44923Y-25893D01*
X44979Y-25916D01*
X45038Y-25916D01*
X45638Y-25916D01*
X45693Y-25893D01*
X45736Y-25851D01*
X45759Y-25796D01*
X45759Y-25736D01*
X45759Y-28306D01*
X45743Y-28291D01*
X45623Y-28241D01*
X45494Y-28241D01*
X45375Y-28290D01*
X45283Y-28382D01*
X45269Y-28417D01*
X45243Y-28391D01*
X45123Y-28341D01*
X44994Y-28341D01*
X44875Y-28390D01*
X44783Y-28482D01*
X44759Y-28541D01*
X44759Y-25736D01*
X44759Y-25136D01*
X44736Y-25081D01*
X44694Y-25039D01*
X44639Y-25016D01*
X44579Y-25016D01*
X44323Y-25016D01*
X44445Y-25010D01*
X44596Y-24947D01*
X44624Y-24852D01*
X44309Y-24537D01*
X44238Y-24607D01*
X44238Y-24466D01*
X43923Y-24151D01*
X43827Y-24178D01*
X43754Y-24384D01*
X43765Y-24603D01*
X43827Y-24754D01*
X43923Y-24781D01*
X44238Y-24466D01*
X44238Y-24607D01*
X43993Y-24852D01*
X44021Y-24947D01*
X44213Y-25016D01*
X43979Y-25016D01*
X43924Y-25039D01*
X43881Y-25081D01*
X43859Y-25136D01*
X43859Y-25196D01*
X43859Y-25796D01*
X43881Y-25851D01*
X43923Y-25893D01*
X43979Y-25916D01*
X44038Y-25916D01*
X44638Y-25916D01*
X44693Y-25893D01*
X44736Y-25851D01*
X44759Y-25796D01*
X44759Y-25736D01*
X44759Y-28541D01*
X44734Y-28601D01*
X44733Y-28730D01*
X44783Y-28850D01*
X44859Y-28926D01*
X44859Y-29133D01*
X44694Y-29298D01*
X44654Y-29298D01*
X44004Y-29298D01*
X43949Y-29321D01*
X43906Y-29363D01*
X43884Y-29418D01*
X43884Y-29478D01*
X43884Y-29714D01*
X43906Y-29769D01*
X43948Y-29811D01*
X43960Y-29816D01*
X43949Y-29821D01*
X43906Y-29863D01*
X43884Y-29918D01*
X43884Y-29978D01*
X43884Y-30214D01*
X43906Y-30269D01*
X43948Y-30311D01*
X43960Y-30316D01*
X43949Y-30321D01*
X43906Y-30363D01*
X43884Y-30418D01*
X43884Y-30478D01*
X43884Y-30714D01*
X43893Y-30736D01*
X43892Y-30736D01*
X43821Y-30807D01*
X43784Y-30899D01*
X43784Y-30954D01*
X43846Y-31016D01*
X44309Y-31016D01*
X44309Y-31008D01*
X44409Y-31008D01*
X44409Y-31016D01*
X44871Y-31016D01*
X44934Y-30954D01*
X44934Y-30899D01*
X44896Y-30807D01*
X44855Y-30766D01*
X44906Y-30766D01*
X45259Y-31119D01*
X45259Y-31656D01*
X45274Y-31733D01*
X45317Y-31797D01*
X45677Y-32157D01*
X45677Y-32157D01*
X45720Y-32186D01*
X45742Y-32201D01*
X45742Y-32201D01*
X45819Y-32216D01*
X45819Y-32216D01*
X46636Y-32216D01*
X47017Y-32597D01*
X47082Y-32641D01*
X47082Y-32641D01*
X47159Y-32656D01*
X47459Y-32656D01*
X47459Y-32761D01*
X47481Y-32816D01*
X47523Y-32858D01*
X47579Y-32881D01*
X47638Y-32881D01*
X47988Y-32881D01*
X48043Y-32858D01*
X48086Y-32816D01*
X48109Y-32761D01*
X48109Y-32731D01*
X48109Y-32781D01*
X48147Y-32873D01*
X48217Y-32943D01*
X48309Y-32981D01*
X48421Y-32981D01*
X48484Y-32919D01*
X48484Y-32506D01*
X48476Y-32506D01*
X48476Y-32406D01*
X48484Y-32406D01*
X48484Y-32398D01*
X48584Y-32398D01*
X48584Y-32406D01*
X48896Y-32406D01*
X48959Y-32344D01*
X48959Y-32231D01*
X48959Y-32156D01*
X50209Y-32156D01*
X50208Y-32205D01*
X50277Y-32371D01*
X50403Y-32497D01*
X50569Y-32566D01*
X50748Y-32566D01*
X50913Y-32498D01*
X51040Y-32371D01*
X51108Y-32206D01*
X51109Y-32027D01*
X51109Y-37361D01*
X50558Y-37361D01*
X50568Y-39594D01*
X48959Y-39594D01*
X48959Y-32682D01*
X48959Y-32569D01*
X48896Y-32506D01*
X48584Y-32506D01*
X48584Y-32919D01*
X48646Y-32981D01*
X48758Y-32981D01*
X48850Y-32943D01*
X48920Y-32873D01*
X48959Y-32781D01*
X48959Y-32682D01*
X48959Y-39594D01*
X46559Y-39594D01*
X46559Y-32727D01*
X46509Y-32607D01*
X46418Y-32516D01*
X46298Y-32466D01*
X46169Y-32466D01*
X46059Y-32512D01*
X46059Y-32461D01*
X46036Y-32406D01*
X45994Y-32364D01*
X45939Y-32341D01*
X45879Y-32341D01*
X45529Y-32341D01*
X45474Y-32364D01*
X45431Y-32406D01*
X45409Y-32461D01*
X45409Y-32491D01*
X45409Y-32441D01*
X45370Y-32349D01*
X45300Y-32279D01*
X45208Y-32241D01*
X45096Y-32241D01*
X45034Y-32304D01*
X45034Y-32716D01*
X45041Y-32716D01*
X45041Y-32816D01*
X45034Y-32816D01*
X45034Y-33229D01*
X45096Y-33291D01*
X45208Y-33291D01*
X45300Y-33253D01*
X45370Y-33183D01*
X45409Y-33091D01*
X45409Y-33071D01*
X45409Y-33071D01*
X45431Y-33126D01*
X45473Y-33168D01*
X45529Y-33191D01*
X45588Y-33191D01*
X45938Y-33191D01*
X45993Y-33168D01*
X46036Y-33126D01*
X46059Y-33071D01*
X46059Y-33070D01*
X46169Y-33116D01*
X46298Y-33116D01*
X46417Y-33067D01*
X46509Y-32975D01*
X46558Y-32856D01*
X46559Y-32727D01*
X46559Y-39594D01*
X44934Y-39594D01*
X44934Y-31234D01*
X44934Y-31179D01*
X44871Y-31116D01*
X44409Y-31116D01*
X44409Y-31372D01*
X44471Y-31434D01*
X44634Y-31434D01*
X44734Y-31434D01*
X44825Y-31396D01*
X44896Y-31325D01*
X44934Y-31234D01*
X44934Y-39594D01*
X44934Y-39594D01*
X44934Y-33229D01*
X44934Y-32816D01*
X44934Y-32716D01*
X44934Y-32304D01*
X44871Y-32241D01*
X44759Y-32241D01*
X44667Y-32279D01*
X44597Y-32349D01*
X44559Y-32441D01*
X44559Y-32541D01*
X44559Y-32654D01*
X44621Y-32716D01*
X44934Y-32716D01*
X44934Y-32816D01*
X44621Y-32816D01*
X44559Y-32879D01*
X44559Y-32992D01*
X44559Y-33091D01*
X44597Y-33183D01*
X44667Y-33253D01*
X44759Y-33291D01*
X44871Y-33291D01*
X44934Y-33229D01*
X44934Y-39594D01*
X44309Y-39594D01*
X44309Y-31372D01*
X44309Y-31116D01*
X43846Y-31116D01*
X43784Y-31179D01*
X43784Y-31234D01*
X43821Y-31325D01*
X43892Y-31396D01*
X43984Y-31434D01*
X44083Y-31434D01*
X44246Y-31434D01*
X44309Y-31372D01*
X44309Y-39594D01*
X43409Y-39594D01*
X43409Y-27676D01*
X43398Y-27457D01*
X43335Y-27306D01*
X43240Y-27279D01*
X42925Y-27594D01*
X43240Y-27909D01*
X43335Y-27882D01*
X43409Y-27676D01*
X43409Y-39594D01*
X43304Y-39594D01*
X43304Y-28864D01*
X43304Y-28264D01*
X43281Y-28209D01*
X43239Y-28167D01*
X43184Y-28144D01*
X43124Y-28144D01*
X42868Y-28144D01*
X42991Y-28138D01*
X43142Y-28075D01*
X43169Y-27980D01*
X42854Y-27665D01*
X42783Y-27735D01*
X42783Y-27594D01*
X42468Y-27279D01*
X42373Y-27306D01*
X42355Y-27355D01*
X42335Y-27306D01*
X42240Y-27279D01*
X41925Y-27594D01*
X42240Y-27909D01*
X42335Y-27882D01*
X42352Y-27833D01*
X42373Y-27882D01*
X42468Y-27909D01*
X42783Y-27594D01*
X42783Y-27735D01*
X42539Y-27980D01*
X42566Y-28075D01*
X42759Y-28144D01*
X42524Y-28144D01*
X42469Y-28167D01*
X42427Y-28209D01*
X42404Y-28264D01*
X42404Y-28324D01*
X42404Y-28924D01*
X42427Y-28979D01*
X42469Y-29021D01*
X42524Y-29044D01*
X42584Y-29044D01*
X43184Y-29044D01*
X43239Y-29021D01*
X43281Y-28979D01*
X43304Y-28924D01*
X43304Y-28864D01*
X43304Y-39594D01*
X42559Y-39594D01*
X42559Y-33216D01*
X42304Y-33217D01*
X42304Y-28864D01*
X42304Y-28264D01*
X42281Y-28209D01*
X42239Y-28167D01*
X42184Y-28144D01*
X42124Y-28144D01*
X41868Y-28144D01*
X41991Y-28138D01*
X42142Y-28075D01*
X42169Y-27980D01*
X41854Y-27665D01*
X41783Y-27735D01*
X41783Y-27594D01*
X41468Y-27279D01*
X41373Y-27306D01*
X41355Y-27355D01*
X41335Y-27306D01*
X41240Y-27279D01*
X40925Y-27594D01*
X41240Y-27909D01*
X41335Y-27882D01*
X41352Y-27833D01*
X41373Y-27882D01*
X41468Y-27909D01*
X41783Y-27594D01*
X41783Y-27735D01*
X41539Y-27980D01*
X41566Y-28075D01*
X41759Y-28144D01*
X41524Y-28144D01*
X41469Y-28167D01*
X41427Y-28209D01*
X41404Y-28264D01*
X41404Y-28324D01*
X41404Y-28924D01*
X41427Y-28979D01*
X41469Y-29021D01*
X41524Y-29044D01*
X41584Y-29044D01*
X42184Y-29044D01*
X42239Y-29021D01*
X42281Y-28979D01*
X42304Y-28924D01*
X42304Y-28864D01*
X42304Y-33217D01*
X41304Y-33224D01*
X41304Y-28864D01*
X41304Y-28264D01*
X41281Y-28209D01*
X41239Y-28167D01*
X41184Y-28144D01*
X41124Y-28144D01*
X40868Y-28144D01*
X40991Y-28138D01*
X41142Y-28075D01*
X41169Y-27980D01*
X40854Y-27665D01*
X40783Y-27735D01*
X40783Y-27594D01*
X40468Y-27279D01*
X40373Y-27306D01*
X40355Y-27355D01*
X40335Y-27306D01*
X40304Y-27297D01*
X40304Y-26505D01*
X40236Y-26339D01*
X40109Y-26213D01*
X39944Y-26144D01*
X39765Y-26144D01*
X39674Y-26181D01*
X38554Y-25061D01*
X38554Y-19930D01*
X38599Y-19975D01*
X38764Y-20044D01*
X38943Y-20044D01*
X39108Y-19976D01*
X39235Y-19849D01*
X39304Y-19684D01*
X39304Y-19505D01*
X39236Y-19339D01*
X39109Y-19213D01*
X38944Y-19144D01*
X38765Y-19144D01*
X38599Y-19212D01*
X38554Y-19258D01*
X38554Y-19177D01*
X38709Y-19021D01*
X38764Y-19044D01*
X38943Y-19044D01*
X39108Y-18976D01*
X39235Y-18849D01*
X39304Y-18684D01*
X39304Y-18505D01*
X39236Y-18339D01*
X39109Y-18213D01*
X38944Y-18144D01*
X38765Y-18144D01*
X38599Y-18212D01*
X38473Y-18339D01*
X38404Y-18504D01*
X38404Y-18683D01*
X38427Y-18738D01*
X38212Y-18953D01*
X38169Y-19017D01*
X38154Y-19094D01*
X38154Y-19258D01*
X38109Y-19213D01*
X37944Y-19144D01*
X37765Y-19144D01*
X37599Y-19212D01*
X37554Y-19258D01*
X37554Y-19177D01*
X37709Y-19021D01*
X37764Y-19044D01*
X37943Y-19044D01*
X38108Y-18976D01*
X38235Y-18849D01*
X38304Y-18684D01*
X38304Y-18505D01*
X38236Y-18339D01*
X38109Y-18213D01*
X37944Y-18144D01*
X37765Y-18144D01*
X37599Y-18212D01*
X37473Y-18339D01*
X37404Y-18504D01*
X37404Y-18683D01*
X37427Y-18738D01*
X37304Y-18861D01*
X37304Y-18505D01*
X37236Y-18339D01*
X37109Y-18213D01*
X36944Y-18144D01*
X36765Y-18144D01*
X36599Y-18212D01*
X36473Y-18339D01*
X36404Y-18504D01*
X36404Y-18683D01*
X36472Y-18849D01*
X36599Y-18975D01*
X36764Y-19044D01*
X36943Y-19044D01*
X37108Y-18976D01*
X37235Y-18849D01*
X37304Y-18684D01*
X37304Y-18505D01*
X37304Y-18861D01*
X37212Y-18953D01*
X37169Y-19017D01*
X37154Y-19094D01*
X37154Y-19258D01*
X37109Y-19213D01*
X36944Y-19144D01*
X36765Y-19144D01*
X36599Y-19212D01*
X36473Y-19339D01*
X36404Y-19504D01*
X36404Y-19683D01*
X36472Y-19849D01*
X36599Y-19975D01*
X36654Y-19998D01*
X36654Y-26190D01*
X36599Y-26212D01*
X36473Y-26339D01*
X36404Y-26504D01*
X36404Y-26683D01*
X36472Y-26849D01*
X36599Y-26975D01*
X36764Y-27044D01*
X36840Y-27044D01*
X36717Y-27050D01*
X36566Y-27113D01*
X36539Y-27208D01*
X36854Y-27523D01*
X37169Y-27208D01*
X37142Y-27113D01*
X36946Y-27043D01*
X37108Y-26976D01*
X37235Y-26849D01*
X37304Y-26684D01*
X37304Y-26505D01*
X37236Y-26339D01*
X37109Y-26213D01*
X37054Y-26190D01*
X37054Y-19998D01*
X37108Y-19976D01*
X37154Y-19930D01*
X37154Y-26094D01*
X37169Y-26171D01*
X37212Y-26235D01*
X37427Y-26450D01*
X37404Y-26504D01*
X37404Y-26683D01*
X37472Y-26849D01*
X37599Y-26975D01*
X37764Y-27044D01*
X37840Y-27044D01*
X37717Y-27050D01*
X37566Y-27113D01*
X37539Y-27208D01*
X37854Y-27523D01*
X38169Y-27208D01*
X38142Y-27113D01*
X37946Y-27043D01*
X38108Y-26976D01*
X38235Y-26849D01*
X38304Y-26684D01*
X38304Y-26505D01*
X38236Y-26339D01*
X38109Y-26213D01*
X37944Y-26144D01*
X37765Y-26144D01*
X37709Y-26167D01*
X37554Y-26011D01*
X37554Y-19930D01*
X37599Y-19975D01*
X37654Y-19998D01*
X37654Y-25644D01*
X37669Y-25721D01*
X37712Y-25785D01*
X38412Y-26485D01*
X38404Y-26504D01*
X38404Y-26683D01*
X38472Y-26849D01*
X38599Y-26975D01*
X38764Y-27044D01*
X38840Y-27044D01*
X38717Y-27050D01*
X38566Y-27113D01*
X38539Y-27208D01*
X38854Y-27523D01*
X39169Y-27208D01*
X39142Y-27113D01*
X38946Y-27043D01*
X39108Y-26976D01*
X39235Y-26849D01*
X39304Y-26684D01*
X39304Y-26505D01*
X39236Y-26339D01*
X39109Y-26213D01*
X38944Y-26144D01*
X38765Y-26144D01*
X38674Y-26181D01*
X38054Y-25561D01*
X38054Y-19998D01*
X38108Y-19976D01*
X38154Y-19930D01*
X38154Y-25144D01*
X38169Y-25221D01*
X38212Y-25285D01*
X39412Y-26485D01*
X39404Y-26504D01*
X39404Y-26683D01*
X39472Y-26849D01*
X39599Y-26975D01*
X39764Y-27044D01*
X39840Y-27044D01*
X39717Y-27050D01*
X39566Y-27113D01*
X39539Y-27208D01*
X39854Y-27523D01*
X40169Y-27208D01*
X40142Y-27113D01*
X39946Y-27043D01*
X40108Y-26976D01*
X40235Y-26849D01*
X40304Y-26684D01*
X40304Y-26505D01*
X40304Y-27297D01*
X40240Y-27279D01*
X39925Y-27594D01*
X40240Y-27909D01*
X40335Y-27882D01*
X40352Y-27833D01*
X40373Y-27882D01*
X40468Y-27909D01*
X40783Y-27594D01*
X40783Y-27735D01*
X40539Y-27980D01*
X40566Y-28075D01*
X40759Y-28144D01*
X40524Y-28144D01*
X40469Y-28167D01*
X40427Y-28209D01*
X40404Y-28264D01*
X40404Y-28324D01*
X40404Y-28924D01*
X40427Y-28979D01*
X40469Y-29021D01*
X40524Y-29044D01*
X40584Y-29044D01*
X41184Y-29044D01*
X41239Y-29021D01*
X41281Y-28979D01*
X41304Y-28924D01*
X41304Y-28864D01*
X41304Y-33224D01*
X41259Y-33224D01*
X41259Y-30486D01*
X41259Y-29886D01*
X41236Y-29831D01*
X41194Y-29789D01*
X41139Y-29766D01*
X41079Y-29766D01*
X40479Y-29766D01*
X40424Y-29789D01*
X40381Y-29831D01*
X40359Y-29886D01*
X40359Y-29946D01*
X40359Y-30546D01*
X40381Y-30601D01*
X40423Y-30643D01*
X40479Y-30666D01*
X40538Y-30666D01*
X40609Y-30666D01*
X40609Y-31608D01*
X40304Y-31913D01*
X40304Y-28864D01*
X40304Y-28264D01*
X40281Y-28209D01*
X40239Y-28167D01*
X40184Y-28144D01*
X40124Y-28144D01*
X39868Y-28144D01*
X39991Y-28138D01*
X40142Y-28075D01*
X40169Y-27980D01*
X39854Y-27665D01*
X39783Y-27735D01*
X39783Y-27594D01*
X39468Y-27279D01*
X39373Y-27306D01*
X39355Y-27355D01*
X39335Y-27306D01*
X39240Y-27279D01*
X38925Y-27594D01*
X39240Y-27909D01*
X39335Y-27882D01*
X39352Y-27833D01*
X39373Y-27882D01*
X39468Y-27909D01*
X39783Y-27594D01*
X39783Y-27735D01*
X39539Y-27980D01*
X39566Y-28075D01*
X39759Y-28144D01*
X39524Y-28144D01*
X39469Y-28167D01*
X39427Y-28209D01*
X39404Y-28264D01*
X39404Y-28324D01*
X39404Y-28924D01*
X39427Y-28979D01*
X39469Y-29021D01*
X39524Y-29044D01*
X39584Y-29044D01*
X40184Y-29044D01*
X40239Y-29021D01*
X40281Y-28979D01*
X40304Y-28924D01*
X40304Y-28864D01*
X40304Y-31913D01*
X40303Y-31914D01*
X40259Y-31914D01*
X40259Y-30127D01*
X40190Y-29961D01*
X40064Y-29835D01*
X39898Y-29766D01*
X39719Y-29766D01*
X39554Y-29834D01*
X39427Y-29961D01*
X39359Y-30126D01*
X39358Y-30305D01*
X39427Y-30471D01*
X39553Y-30597D01*
X39582Y-30609D01*
X39426Y-30766D01*
X39304Y-30766D01*
X39304Y-28864D01*
X39304Y-28264D01*
X39281Y-28209D01*
X39239Y-28167D01*
X39184Y-28144D01*
X39124Y-28144D01*
X38868Y-28144D01*
X38991Y-28138D01*
X39142Y-28075D01*
X39169Y-27980D01*
X38854Y-27665D01*
X38783Y-27735D01*
X38783Y-27594D01*
X38468Y-27279D01*
X38373Y-27306D01*
X38355Y-27355D01*
X38335Y-27306D01*
X38240Y-27279D01*
X37925Y-27594D01*
X38240Y-27909D01*
X38335Y-27882D01*
X38352Y-27833D01*
X38373Y-27882D01*
X38468Y-27909D01*
X38783Y-27594D01*
X38783Y-27735D01*
X38539Y-27980D01*
X38566Y-28075D01*
X38759Y-28144D01*
X38524Y-28144D01*
X38469Y-28167D01*
X38427Y-28209D01*
X38404Y-28264D01*
X38404Y-28324D01*
X38404Y-28924D01*
X38427Y-28979D01*
X38469Y-29021D01*
X38524Y-29044D01*
X38584Y-29044D01*
X39184Y-29044D01*
X39239Y-29021D01*
X39281Y-28979D01*
X39304Y-28924D01*
X39304Y-28864D01*
X39304Y-30766D01*
X38541Y-30766D01*
X38664Y-30643D01*
X38719Y-30666D01*
X38898Y-30666D01*
X39063Y-30598D01*
X39190Y-30471D01*
X39258Y-30306D01*
X39259Y-30127D01*
X39190Y-29961D01*
X39064Y-29835D01*
X38898Y-29766D01*
X38719Y-29766D01*
X38554Y-29834D01*
X38427Y-29961D01*
X38359Y-30126D01*
X38358Y-30305D01*
X38381Y-30360D01*
X38304Y-30438D01*
X38304Y-28864D01*
X38304Y-28264D01*
X38281Y-28209D01*
X38239Y-28167D01*
X38184Y-28144D01*
X38124Y-28144D01*
X37868Y-28144D01*
X37991Y-28138D01*
X38142Y-28075D01*
X38169Y-27980D01*
X37854Y-27665D01*
X37783Y-27735D01*
X37783Y-27594D01*
X37468Y-27279D01*
X37373Y-27306D01*
X37355Y-27355D01*
X37335Y-27306D01*
X37240Y-27279D01*
X36925Y-27594D01*
X37240Y-27909D01*
X37335Y-27882D01*
X37352Y-27833D01*
X37373Y-27882D01*
X37468Y-27909D01*
X37783Y-27594D01*
X37783Y-27735D01*
X37539Y-27980D01*
X37566Y-28075D01*
X37759Y-28144D01*
X37524Y-28144D01*
X37469Y-28167D01*
X37427Y-28209D01*
X37404Y-28264D01*
X37404Y-28324D01*
X37404Y-28924D01*
X37427Y-28979D01*
X37469Y-29021D01*
X37524Y-29044D01*
X37584Y-29044D01*
X38184Y-29044D01*
X38239Y-29021D01*
X38281Y-28979D01*
X38304Y-28924D01*
X38304Y-28864D01*
X38304Y-30438D01*
X38226Y-30516D01*
X38145Y-30516D01*
X38190Y-30471D01*
X38258Y-30306D01*
X38259Y-30127D01*
X38190Y-29961D01*
X38064Y-29835D01*
X37898Y-29766D01*
X37719Y-29766D01*
X37554Y-29834D01*
X37427Y-29961D01*
X37359Y-30126D01*
X37358Y-30305D01*
X37381Y-30360D01*
X37304Y-30438D01*
X37304Y-28864D01*
X37304Y-28264D01*
X37281Y-28209D01*
X37239Y-28167D01*
X37184Y-28144D01*
X37124Y-28144D01*
X36868Y-28144D01*
X36991Y-28138D01*
X37142Y-28075D01*
X37169Y-27980D01*
X36854Y-27665D01*
X36783Y-27735D01*
X36783Y-27594D01*
X36468Y-27279D01*
X36373Y-27306D01*
X36355Y-27355D01*
X36335Y-27306D01*
X36304Y-27297D01*
X36304Y-26505D01*
X36236Y-26339D01*
X36109Y-26213D01*
X36054Y-26190D01*
X36054Y-19998D01*
X36108Y-19976D01*
X36235Y-19849D01*
X36304Y-19684D01*
X36304Y-19505D01*
X36236Y-19339D01*
X36109Y-19213D01*
X35944Y-19144D01*
X35765Y-19144D01*
X35599Y-19212D01*
X35554Y-19258D01*
X35554Y-19177D01*
X35709Y-19021D01*
X35764Y-19044D01*
X35943Y-19044D01*
X36108Y-18976D01*
X36235Y-18849D01*
X36304Y-18684D01*
X36304Y-18505D01*
X36236Y-18339D01*
X36109Y-18213D01*
X35944Y-18144D01*
X35765Y-18144D01*
X35599Y-18212D01*
X35473Y-18339D01*
X35404Y-18504D01*
X35404Y-18683D01*
X35427Y-18738D01*
X35212Y-18953D01*
X35169Y-19017D01*
X35154Y-19094D01*
X35154Y-19258D01*
X35109Y-19213D01*
X34944Y-19144D01*
X34765Y-19144D01*
X34599Y-19212D01*
X34554Y-19258D01*
X34554Y-19177D01*
X34709Y-19021D01*
X34764Y-19044D01*
X34943Y-19044D01*
X35108Y-18976D01*
X35235Y-18849D01*
X35304Y-18684D01*
X35304Y-18505D01*
X35236Y-18339D01*
X35109Y-18213D01*
X34944Y-18144D01*
X34765Y-18144D01*
X34599Y-18212D01*
X34473Y-18339D01*
X34404Y-18504D01*
X34404Y-18683D01*
X34427Y-18738D01*
X34212Y-18953D01*
X34169Y-19017D01*
X34154Y-19094D01*
X34154Y-19258D01*
X34109Y-19213D01*
X33944Y-19144D01*
X33765Y-19144D01*
X33599Y-19212D01*
X33559Y-19253D01*
X33559Y-19172D01*
X33709Y-19021D01*
X33764Y-19044D01*
X33943Y-19044D01*
X34108Y-18976D01*
X34235Y-18849D01*
X34304Y-18684D01*
X34304Y-18505D01*
X34236Y-18339D01*
X34109Y-18213D01*
X33944Y-18144D01*
X33765Y-18144D01*
X33599Y-18212D01*
X33473Y-18339D01*
X33404Y-18504D01*
X33404Y-18683D01*
X33427Y-18738D01*
X33304Y-18861D01*
X33304Y-18505D01*
X33236Y-18339D01*
X33109Y-18213D01*
X32944Y-18144D01*
X32765Y-18144D01*
X32599Y-18212D01*
X32473Y-18339D01*
X32404Y-18504D01*
X32404Y-18683D01*
X32472Y-18849D01*
X32599Y-18975D01*
X32764Y-19044D01*
X32943Y-19044D01*
X33108Y-18976D01*
X33235Y-18849D01*
X33304Y-18684D01*
X33304Y-18505D01*
X33304Y-18861D01*
X33217Y-18948D01*
X33174Y-19013D01*
X33159Y-19089D01*
X33159Y-19262D01*
X33109Y-19213D01*
X32944Y-19144D01*
X32765Y-19144D01*
X32599Y-19212D01*
X32473Y-19339D01*
X32404Y-19504D01*
X32404Y-19683D01*
X32472Y-19849D01*
X32599Y-19975D01*
X32654Y-19998D01*
X32654Y-20416D01*
X32659Y-20440D01*
X32659Y-24133D01*
X31712Y-25079D01*
X31669Y-25144D01*
X31661Y-25187D01*
X31599Y-25212D01*
X31554Y-25258D01*
X31554Y-24854D01*
X31995Y-24412D01*
X32039Y-24347D01*
X32039Y-24347D01*
X32041Y-24335D01*
X32054Y-24271D01*
X32054Y-24271D01*
X32054Y-19998D01*
X32108Y-19976D01*
X32235Y-19849D01*
X32304Y-19684D01*
X32304Y-19505D01*
X32236Y-19339D01*
X32109Y-19213D01*
X31944Y-19144D01*
X31765Y-19144D01*
X31599Y-19212D01*
X31473Y-19339D01*
X31404Y-19504D01*
X31404Y-19683D01*
X31472Y-19849D01*
X31599Y-19975D01*
X31654Y-19998D01*
X31654Y-24188D01*
X31359Y-24483D01*
X31359Y-22916D01*
X31359Y-22217D01*
X31321Y-22125D01*
X31250Y-22054D01*
X31159Y-22016D01*
X31059Y-22016D01*
X30821Y-22016D01*
X30759Y-22079D01*
X30759Y-22516D01*
X31296Y-22516D01*
X31359Y-22454D01*
X31359Y-22217D01*
X31359Y-22916D01*
X31359Y-22679D01*
X31296Y-22616D01*
X30759Y-22616D01*
X30759Y-23054D01*
X30821Y-23116D01*
X31059Y-23116D01*
X31159Y-23116D01*
X31250Y-23078D01*
X31321Y-23007D01*
X31359Y-22916D01*
X31359Y-24483D01*
X31212Y-24629D01*
X31169Y-24694D01*
X31154Y-24771D01*
X31154Y-26244D01*
X31169Y-26321D01*
X31212Y-26385D01*
X31404Y-26577D01*
X31404Y-26683D01*
X31472Y-26849D01*
X31599Y-26975D01*
X31764Y-27044D01*
X31840Y-27044D01*
X31717Y-27050D01*
X31566Y-27113D01*
X31539Y-27208D01*
X31854Y-27523D01*
X32169Y-27208D01*
X32142Y-27113D01*
X31946Y-27043D01*
X32108Y-26976D01*
X32235Y-26849D01*
X32304Y-26684D01*
X32304Y-26505D01*
X32236Y-26339D01*
X32109Y-26213D01*
X31944Y-26144D01*
X31765Y-26144D01*
X31603Y-26211D01*
X31554Y-26161D01*
X31554Y-25930D01*
X31599Y-25975D01*
X31764Y-26044D01*
X31943Y-26044D01*
X32108Y-25976D01*
X32159Y-25926D01*
X32159Y-26149D01*
X32174Y-26225D01*
X32217Y-26290D01*
X32412Y-26485D01*
X32404Y-26504D01*
X32404Y-26683D01*
X32472Y-26849D01*
X32599Y-26975D01*
X32764Y-27044D01*
X32840Y-27044D01*
X32717Y-27050D01*
X32566Y-27113D01*
X32539Y-27208D01*
X32854Y-27523D01*
X33169Y-27208D01*
X33142Y-27113D01*
X32946Y-27043D01*
X33108Y-26976D01*
X33235Y-26849D01*
X33304Y-26684D01*
X33304Y-26505D01*
X33236Y-26339D01*
X33109Y-26213D01*
X32944Y-26144D01*
X32765Y-26144D01*
X32674Y-26181D01*
X32559Y-26066D01*
X32559Y-25935D01*
X32599Y-25975D01*
X32764Y-26044D01*
X32943Y-26044D01*
X33108Y-25976D01*
X33235Y-25849D01*
X33304Y-25684D01*
X33304Y-25505D01*
X33245Y-25362D01*
X33800Y-24807D01*
X33800Y-24807D01*
X33829Y-24764D01*
X33843Y-24743D01*
X33843Y-24743D01*
X33855Y-24686D01*
X33855Y-25507D01*
X33712Y-25649D01*
X33669Y-25714D01*
X33654Y-25791D01*
X33654Y-26190D01*
X33599Y-26212D01*
X33473Y-26339D01*
X33404Y-26504D01*
X33404Y-26683D01*
X33472Y-26849D01*
X33599Y-26975D01*
X33764Y-27044D01*
X33840Y-27044D01*
X33717Y-27050D01*
X33566Y-27113D01*
X33539Y-27208D01*
X33854Y-27523D01*
X34169Y-27208D01*
X34142Y-27113D01*
X33946Y-27043D01*
X34108Y-26976D01*
X34235Y-26849D01*
X34304Y-26684D01*
X34304Y-26505D01*
X34236Y-26339D01*
X34109Y-26213D01*
X34054Y-26190D01*
X34054Y-25874D01*
X34196Y-25731D01*
X34196Y-25731D01*
X34225Y-25688D01*
X34239Y-25667D01*
X34239Y-25667D01*
X34255Y-25590D01*
X34255Y-25590D01*
X34255Y-21387D01*
X34316Y-21388D01*
X34435Y-21338D01*
X34527Y-21247D01*
X34576Y-21127D01*
X34577Y-20998D01*
X34527Y-20879D01*
X34436Y-20787D01*
X34316Y-20738D01*
X34187Y-20737D01*
X34068Y-20787D01*
X33976Y-20878D01*
X33927Y-20998D01*
X33926Y-21105D01*
X33913Y-21118D01*
X33870Y-21183D01*
X33859Y-21240D01*
X33859Y-20749D01*
X34495Y-20112D01*
X34539Y-20047D01*
X34539Y-20047D01*
X34554Y-19971D01*
X34554Y-19930D01*
X34599Y-19975D01*
X34764Y-20044D01*
X34943Y-20044D01*
X35108Y-19976D01*
X35154Y-19930D01*
X35154Y-20011D01*
X34712Y-20453D01*
X34669Y-20517D01*
X34654Y-20594D01*
X34654Y-26190D01*
X34599Y-26212D01*
X34473Y-26339D01*
X34404Y-26504D01*
X34404Y-26683D01*
X34472Y-26849D01*
X34599Y-26975D01*
X34764Y-27044D01*
X34840Y-27044D01*
X34717Y-27050D01*
X34566Y-27113D01*
X34539Y-27208D01*
X34854Y-27523D01*
X35169Y-27208D01*
X35142Y-27113D01*
X34946Y-27043D01*
X35108Y-26976D01*
X35235Y-26849D01*
X35304Y-26684D01*
X35304Y-26505D01*
X35236Y-26339D01*
X35109Y-26213D01*
X35054Y-26190D01*
X35054Y-20677D01*
X35495Y-20235D01*
X35539Y-20171D01*
X35539Y-20171D01*
X35541Y-20158D01*
X35554Y-20094D01*
X35554Y-20094D01*
X35554Y-19930D01*
X35599Y-19975D01*
X35654Y-19998D01*
X35654Y-26190D01*
X35599Y-26212D01*
X35473Y-26339D01*
X35404Y-26504D01*
X35404Y-26683D01*
X35472Y-26849D01*
X35599Y-26975D01*
X35764Y-27044D01*
X35840Y-27044D01*
X35717Y-27050D01*
X35566Y-27113D01*
X35539Y-27208D01*
X35854Y-27523D01*
X36169Y-27208D01*
X36142Y-27113D01*
X35946Y-27043D01*
X36108Y-26976D01*
X36235Y-26849D01*
X36304Y-26684D01*
X36304Y-26505D01*
X36304Y-27297D01*
X36240Y-27279D01*
X35925Y-27594D01*
X36240Y-27909D01*
X36335Y-27882D01*
X36352Y-27833D01*
X36373Y-27882D01*
X36468Y-27909D01*
X36783Y-27594D01*
X36783Y-27735D01*
X36539Y-27980D01*
X36566Y-28075D01*
X36759Y-28144D01*
X36524Y-28144D01*
X36469Y-28167D01*
X36427Y-28209D01*
X36404Y-28264D01*
X36404Y-28324D01*
X36404Y-28924D01*
X36427Y-28979D01*
X36469Y-29021D01*
X36524Y-29044D01*
X36584Y-29044D01*
X37184Y-29044D01*
X37239Y-29021D01*
X37281Y-28979D01*
X37304Y-28924D01*
X37304Y-28864D01*
X37304Y-30438D01*
X37131Y-30611D01*
X37131Y-30530D01*
X37190Y-30471D01*
X37258Y-30306D01*
X37259Y-30127D01*
X37190Y-29961D01*
X37064Y-29835D01*
X36898Y-29766D01*
X36719Y-29766D01*
X36554Y-29834D01*
X36427Y-29961D01*
X36359Y-30126D01*
X36358Y-30305D01*
X36427Y-30471D01*
X36553Y-30597D01*
X36719Y-30666D01*
X36731Y-30666D01*
X36731Y-30855D01*
X36304Y-30428D01*
X36304Y-28864D01*
X36304Y-28264D01*
X36281Y-28209D01*
X36239Y-28167D01*
X36184Y-28144D01*
X36124Y-28144D01*
X35868Y-28144D01*
X35991Y-28138D01*
X36142Y-28075D01*
X36169Y-27980D01*
X35854Y-27665D01*
X35783Y-27735D01*
X35783Y-27594D01*
X35468Y-27279D01*
X35373Y-27306D01*
X35355Y-27355D01*
X35335Y-27306D01*
X35240Y-27279D01*
X34925Y-27594D01*
X35240Y-27909D01*
X35335Y-27882D01*
X35352Y-27833D01*
X35373Y-27882D01*
X35468Y-27909D01*
X35783Y-27594D01*
X35783Y-27735D01*
X35539Y-27980D01*
X35566Y-28075D01*
X35759Y-28144D01*
X35524Y-28144D01*
X35469Y-28167D01*
X35427Y-28209D01*
X35404Y-28264D01*
X35404Y-28324D01*
X35404Y-28924D01*
X35427Y-28979D01*
X35469Y-29021D01*
X35524Y-29044D01*
X35584Y-29044D01*
X36184Y-29044D01*
X36239Y-29021D01*
X36281Y-28979D01*
X36304Y-28924D01*
X36304Y-28864D01*
X36304Y-30428D01*
X36236Y-30360D01*
X36258Y-30306D01*
X36259Y-30127D01*
X36190Y-29961D01*
X36064Y-29835D01*
X35898Y-29766D01*
X35719Y-29766D01*
X35554Y-29834D01*
X35427Y-29961D01*
X35359Y-30126D01*
X35358Y-30305D01*
X35427Y-30471D01*
X35547Y-30591D01*
X35466Y-30591D01*
X35304Y-30428D01*
X35304Y-28864D01*
X35304Y-28264D01*
X35281Y-28209D01*
X35239Y-28167D01*
X35184Y-28144D01*
X35124Y-28144D01*
X34868Y-28144D01*
X34991Y-28138D01*
X35142Y-28075D01*
X35169Y-27980D01*
X34854Y-27665D01*
X34783Y-27735D01*
X34783Y-27594D01*
X34468Y-27279D01*
X34373Y-27306D01*
X34355Y-27355D01*
X34335Y-27306D01*
X34240Y-27279D01*
X33925Y-27594D01*
X34240Y-27909D01*
X34335Y-27882D01*
X34352Y-27833D01*
X34373Y-27882D01*
X34468Y-27909D01*
X34783Y-27594D01*
X34783Y-27735D01*
X34539Y-27980D01*
X34566Y-28075D01*
X34759Y-28144D01*
X34524Y-28144D01*
X34469Y-28167D01*
X34427Y-28209D01*
X34404Y-28264D01*
X34404Y-28324D01*
X34404Y-28924D01*
X34427Y-28979D01*
X34469Y-29021D01*
X34524Y-29044D01*
X34584Y-29044D01*
X35184Y-29044D01*
X35239Y-29021D01*
X35281Y-28979D01*
X35304Y-28924D01*
X35304Y-28864D01*
X35304Y-30428D01*
X35236Y-30360D01*
X35258Y-30306D01*
X35259Y-30127D01*
X35190Y-29961D01*
X35064Y-29835D01*
X34898Y-29766D01*
X34719Y-29766D01*
X34554Y-29834D01*
X34427Y-29961D01*
X34359Y-30126D01*
X34358Y-30305D01*
X34427Y-30471D01*
X34553Y-30597D01*
X34719Y-30666D01*
X34898Y-30666D01*
X34953Y-30643D01*
X35126Y-30816D01*
X34691Y-30816D01*
X34304Y-30428D01*
X34304Y-28864D01*
X34304Y-28264D01*
X34281Y-28209D01*
X34239Y-28167D01*
X34184Y-28144D01*
X34124Y-28144D01*
X33868Y-28144D01*
X33991Y-28138D01*
X34142Y-28075D01*
X34169Y-27980D01*
X33854Y-27665D01*
X33783Y-27735D01*
X33783Y-27594D01*
X33468Y-27279D01*
X33373Y-27306D01*
X33355Y-27355D01*
X33335Y-27306D01*
X33240Y-27279D01*
X32925Y-27594D01*
X33240Y-27909D01*
X33335Y-27882D01*
X33352Y-27833D01*
X33373Y-27882D01*
X33468Y-27909D01*
X33783Y-27594D01*
X33783Y-27735D01*
X33539Y-27980D01*
X33566Y-28075D01*
X33759Y-28144D01*
X33524Y-28144D01*
X33469Y-28167D01*
X33427Y-28209D01*
X33404Y-28264D01*
X33404Y-28324D01*
X33404Y-28924D01*
X33427Y-28979D01*
X33469Y-29021D01*
X33524Y-29044D01*
X33584Y-29044D01*
X34184Y-29044D01*
X34239Y-29021D01*
X34281Y-28979D01*
X34304Y-28924D01*
X34304Y-28864D01*
X34304Y-30428D01*
X34236Y-30360D01*
X34258Y-30306D01*
X34259Y-30127D01*
X34190Y-29961D01*
X34064Y-29835D01*
X33898Y-29766D01*
X33719Y-29766D01*
X33554Y-29834D01*
X33427Y-29961D01*
X33359Y-30126D01*
X33358Y-30305D01*
X33427Y-30471D01*
X33553Y-30597D01*
X33719Y-30666D01*
X33898Y-30666D01*
X33953Y-30643D01*
X34467Y-31157D01*
X34467Y-31157D01*
X34510Y-31186D01*
X34532Y-31201D01*
X34532Y-31201D01*
X34609Y-31216D01*
X34609Y-31216D01*
X35751Y-31216D01*
X35963Y-31428D01*
X35963Y-31590D01*
X35932Y-31621D01*
X35932Y-32064D01*
X35956Y-32064D01*
X35956Y-32164D01*
X35932Y-32164D01*
X35932Y-32606D01*
X35994Y-32669D01*
X36006Y-32669D01*
X36098Y-32631D01*
X36160Y-32569D01*
X36242Y-32569D01*
X36291Y-32549D01*
X36340Y-32569D01*
X36399Y-32569D01*
X36498Y-32569D01*
X36547Y-32549D01*
X36596Y-32569D01*
X36655Y-32569D01*
X36754Y-32569D01*
X36803Y-32549D01*
X36851Y-32569D01*
X36911Y-32569D01*
X37010Y-32569D01*
X37059Y-32549D01*
X37107Y-32569D01*
X37167Y-32569D01*
X37265Y-32569D01*
X37315Y-32549D01*
X37363Y-32569D01*
X37423Y-32569D01*
X37521Y-32569D01*
X37570Y-32549D01*
X37619Y-32569D01*
X37679Y-32569D01*
X37701Y-32569D01*
X37764Y-32631D01*
X37856Y-32669D01*
X37867Y-32669D01*
X37930Y-32606D01*
X37930Y-32164D01*
X37905Y-32164D01*
X37905Y-32064D01*
X37930Y-32064D01*
X37930Y-31621D01*
X37898Y-31590D01*
X37898Y-31459D01*
X38191Y-31166D01*
X39509Y-31166D01*
X39585Y-31151D01*
X39650Y-31107D01*
X39950Y-30807D01*
X39950Y-30807D01*
X39979Y-30764D01*
X39993Y-30743D01*
X39993Y-30743D01*
X40009Y-30666D01*
X40009Y-30666D01*
X40009Y-30620D01*
X40063Y-30598D01*
X40190Y-30471D01*
X40258Y-30306D01*
X40259Y-30127D01*
X40259Y-31914D01*
X38409Y-31914D01*
X38409Y-31779D01*
X38387Y-31724D01*
X38344Y-31681D01*
X38289Y-31659D01*
X38230Y-31659D01*
X38207Y-31659D01*
X38145Y-31596D01*
X38053Y-31559D01*
X38041Y-31559D01*
X37979Y-31621D01*
X37979Y-32064D01*
X38003Y-32064D01*
X38003Y-32164D01*
X37979Y-32164D01*
X37979Y-32606D01*
X38041Y-32669D01*
X38053Y-32669D01*
X38145Y-32631D01*
X38207Y-32569D01*
X38289Y-32569D01*
X38344Y-32546D01*
X38386Y-32504D01*
X38409Y-32449D01*
X38409Y-32389D01*
X38409Y-32314D01*
X40386Y-32314D01*
X40462Y-32298D01*
X40527Y-32255D01*
X40950Y-31832D01*
X40993Y-31768D01*
X40993Y-31768D01*
X40996Y-31755D01*
X41009Y-31691D01*
X41009Y-31691D01*
X41009Y-30666D01*
X41138Y-30666D01*
X41193Y-30643D01*
X41236Y-30601D01*
X41259Y-30546D01*
X41259Y-30486D01*
X41259Y-33224D01*
X35882Y-33260D01*
X35882Y-32606D01*
X35882Y-32164D01*
X35882Y-32064D01*
X35882Y-31621D01*
X35820Y-31559D01*
X35808Y-31559D01*
X35716Y-31596D01*
X35646Y-31667D01*
X35608Y-31759D01*
X35608Y-31858D01*
X35608Y-32001D01*
X35670Y-32064D01*
X35882Y-32064D01*
X35882Y-32164D01*
X35670Y-32164D01*
X35608Y-32226D01*
X35608Y-32369D01*
X35608Y-32469D01*
X35646Y-32561D01*
X35716Y-32631D01*
X35808Y-32669D01*
X35820Y-32669D01*
X35882Y-32606D01*
X35882Y-33260D01*
X35159Y-33265D01*
X35159Y-32892D01*
X35159Y-32441D01*
X35159Y-32341D01*
X35120Y-32249D01*
X35050Y-32179D01*
X34958Y-32141D01*
X34846Y-32141D01*
X34784Y-32204D01*
X34784Y-32616D01*
X35096Y-32616D01*
X35159Y-32554D01*
X35159Y-32441D01*
X35159Y-32892D01*
X35159Y-32779D01*
X35096Y-32716D01*
X34784Y-32716D01*
X34784Y-33129D01*
X34846Y-33191D01*
X34958Y-33191D01*
X35050Y-33153D01*
X35120Y-33083D01*
X35159Y-32991D01*
X35159Y-32892D01*
X35159Y-33265D01*
X34684Y-33268D01*
X34684Y-33129D01*
X34684Y-32716D01*
X34676Y-32716D01*
X34676Y-32616D01*
X34684Y-32616D01*
X34684Y-32204D01*
X34621Y-32141D01*
X34509Y-32141D01*
X34417Y-32179D01*
X34347Y-32249D01*
X34309Y-32341D01*
X34309Y-32361D01*
X34286Y-32306D01*
X34244Y-32264D01*
X34189Y-32241D01*
X34129Y-32241D01*
X33779Y-32241D01*
X33724Y-32264D01*
X33681Y-32306D01*
X33659Y-32361D01*
X33659Y-32366D01*
X33598Y-32341D01*
X33469Y-32341D01*
X33350Y-32390D01*
X33304Y-32436D01*
X33304Y-28864D01*
X33304Y-28264D01*
X33281Y-28209D01*
X33239Y-28167D01*
X33184Y-28144D01*
X33124Y-28144D01*
X32868Y-28144D01*
X32991Y-28138D01*
X33142Y-28075D01*
X33169Y-27980D01*
X32854Y-27665D01*
X32783Y-27735D01*
X32783Y-27594D01*
X32468Y-27279D01*
X32373Y-27306D01*
X32355Y-27355D01*
X32335Y-27306D01*
X32240Y-27279D01*
X31925Y-27594D01*
X32240Y-27909D01*
X32335Y-27882D01*
X32352Y-27833D01*
X32373Y-27882D01*
X32468Y-27909D01*
X32783Y-27594D01*
X32783Y-27735D01*
X32539Y-27980D01*
X32566Y-28075D01*
X32759Y-28144D01*
X32524Y-28144D01*
X32469Y-28167D01*
X32427Y-28209D01*
X32404Y-28264D01*
X32404Y-28324D01*
X32404Y-28924D01*
X32427Y-28979D01*
X32469Y-29021D01*
X32524Y-29044D01*
X32584Y-29044D01*
X33184Y-29044D01*
X33239Y-29021D01*
X33281Y-28979D01*
X33304Y-28924D01*
X33304Y-28864D01*
X33304Y-32436D01*
X33258Y-32482D01*
X33209Y-32601D01*
X33208Y-32730D01*
X33258Y-32850D01*
X33349Y-32941D01*
X33469Y-32991D01*
X33598Y-32991D01*
X33659Y-32966D01*
X33659Y-32971D01*
X33681Y-33026D01*
X33723Y-33068D01*
X33779Y-33091D01*
X33838Y-33091D01*
X34188Y-33091D01*
X34243Y-33068D01*
X34286Y-33026D01*
X34309Y-32971D01*
X34309Y-32941D01*
X34309Y-32991D01*
X34347Y-33083D01*
X34417Y-33153D01*
X34509Y-33191D01*
X34621Y-33191D01*
X34684Y-33129D01*
X34684Y-33268D01*
X32304Y-33284D01*
X32304Y-28864D01*
X32304Y-28264D01*
X32281Y-28209D01*
X32239Y-28167D01*
X32184Y-28144D01*
X32124Y-28144D01*
X31868Y-28144D01*
X31991Y-28138D01*
X32142Y-28075D01*
X32169Y-27980D01*
X31854Y-27665D01*
X31783Y-27735D01*
X31783Y-27594D01*
X31468Y-27279D01*
X31373Y-27306D01*
X31299Y-27512D01*
X31310Y-27731D01*
X31373Y-27882D01*
X31468Y-27909D01*
X31783Y-27594D01*
X31783Y-27735D01*
X31539Y-27980D01*
X31566Y-28075D01*
X31759Y-28144D01*
X31524Y-28144D01*
X31469Y-28167D01*
X31427Y-28209D01*
X31404Y-28264D01*
X31404Y-28324D01*
X31404Y-28924D01*
X31427Y-28979D01*
X31469Y-29021D01*
X31524Y-29044D01*
X31584Y-29044D01*
X32184Y-29044D01*
X32239Y-29021D01*
X32281Y-28979D01*
X32304Y-28924D01*
X32304Y-28864D01*
X32304Y-33284D01*
X30659Y-33295D01*
X30659Y-23054D01*
X30659Y-22616D01*
X30659Y-22516D01*
X30659Y-22079D01*
X30596Y-22016D01*
X30358Y-22016D01*
X30259Y-22016D01*
X30167Y-22054D01*
X30096Y-22125D01*
X30059Y-22217D01*
X30059Y-22454D01*
X30121Y-22516D01*
X30659Y-22516D01*
X30659Y-22616D01*
X30121Y-22616D01*
X30059Y-22679D01*
X30059Y-22916D01*
X30096Y-23007D01*
X30167Y-23078D01*
X30259Y-23116D01*
X30358Y-23116D01*
X30596Y-23116D01*
X30659Y-23054D01*
X30659Y-33295D01*
X29884Y-33300D01*
X29884Y-22836D01*
X29884Y-22236D01*
X29861Y-22181D01*
X29819Y-22139D01*
X29764Y-22116D01*
X29704Y-22116D01*
X28904Y-22116D01*
X28849Y-22139D01*
X28806Y-22181D01*
X28784Y-22236D01*
X28784Y-22296D01*
X28784Y-22896D01*
X28806Y-22951D01*
X28848Y-22993D01*
X28904Y-23016D01*
X28963Y-23016D01*
X29059Y-23016D01*
X29059Y-23881D01*
X29058Y-23882D01*
X29009Y-24001D01*
X29008Y-24130D01*
X29058Y-24250D01*
X29149Y-24341D01*
X29269Y-24391D01*
X29398Y-24391D01*
X29517Y-24342D01*
X29609Y-24250D01*
X29658Y-24131D01*
X29659Y-24002D01*
X29609Y-23882D01*
X29609Y-23881D01*
X29609Y-23016D01*
X29763Y-23016D01*
X29818Y-22993D01*
X29861Y-22951D01*
X29884Y-22896D01*
X29884Y-22836D01*
X29884Y-33300D01*
X27728Y-33315D01*
X27728Y-21039D01*
X27765Y-21128D01*
X27945Y-21309D01*
X28181Y-21406D01*
X28435Y-21407D01*
X28671Y-21309D01*
X28784Y-21197D01*
X28784Y-21596D01*
X28806Y-21651D01*
X28848Y-21693D01*
X28904Y-21716D01*
X28963Y-21716D01*
X29763Y-21716D01*
X29818Y-21693D01*
X29861Y-21651D01*
X29884Y-21596D01*
X29884Y-21536D01*
X29884Y-20936D01*
X29861Y-20881D01*
X29822Y-20842D01*
X30353Y-20310D01*
X30413Y-20221D01*
X30413Y-20221D01*
X30434Y-20116D01*
X30434Y-19986D01*
X30469Y-20021D01*
X30524Y-20044D01*
X30579Y-20044D01*
X30579Y-20816D01*
X30279Y-20816D01*
X30224Y-20839D01*
X30181Y-20881D01*
X30159Y-20936D01*
X30159Y-20996D01*
X30159Y-21596D01*
X30181Y-21651D01*
X30223Y-21693D01*
X30279Y-21716D01*
X30338Y-21716D01*
X31138Y-21716D01*
X31193Y-21693D01*
X31236Y-21651D01*
X31259Y-21596D01*
X31259Y-21536D01*
X31259Y-20936D01*
X31236Y-20881D01*
X31194Y-20839D01*
X31139Y-20816D01*
X31129Y-20816D01*
X31129Y-20044D01*
X31184Y-20044D01*
X31239Y-20021D01*
X31281Y-19979D01*
X31304Y-19924D01*
X31304Y-19864D01*
X31304Y-19264D01*
X31281Y-19209D01*
X31239Y-19167D01*
X31184Y-19144D01*
X31124Y-19144D01*
X30524Y-19144D01*
X30516Y-19147D01*
X30662Y-19002D01*
X30764Y-19044D01*
X30943Y-19044D01*
X31108Y-18976D01*
X31215Y-18869D01*
X31493Y-18869D01*
X31599Y-18975D01*
X31764Y-19044D01*
X31943Y-19044D01*
X32108Y-18976D01*
X32235Y-18849D01*
X32304Y-18684D01*
X32304Y-18505D01*
X32236Y-18339D01*
X32109Y-18213D01*
X31944Y-18144D01*
X31765Y-18144D01*
X31599Y-18212D01*
X31492Y-18319D01*
X31215Y-18319D01*
X31109Y-18213D01*
X30944Y-18144D01*
X30765Y-18144D01*
X30599Y-18212D01*
X30473Y-18339D01*
X30420Y-18466D01*
X30009Y-18877D01*
X30009Y-17886D01*
X50684Y-17886D01*
X50689Y-20265D01*
X52979Y-20290D01*
X52979Y-37361D01*
X52979Y-37361D01*
G37*
G54D22*
X52979Y-37361D02*
X52863Y-37361D01*
X52863Y-24548D01*
X52852Y-24329D01*
X52790Y-24178D01*
X52759Y-24169D01*
X52759Y-23377D01*
X52690Y-23211D01*
X52564Y-23085D01*
X52398Y-23016D01*
X52219Y-23016D01*
X52164Y-23039D01*
X50509Y-21383D01*
X50509Y-19966D01*
X50509Y-19466D01*
X50509Y-18966D01*
X50509Y-18966D01*
X50493Y-18889D01*
X50493Y-18889D01*
X50479Y-18868D01*
X50450Y-18825D01*
X50450Y-18825D01*
X50304Y-18678D01*
X50304Y-18505D01*
X50236Y-18339D01*
X50109Y-18213D01*
X49944Y-18144D01*
X49765Y-18144D01*
X49599Y-18212D01*
X49473Y-18339D01*
X49404Y-18504D01*
X49404Y-18683D01*
X49472Y-18849D01*
X49599Y-18975D01*
X49764Y-19044D01*
X49943Y-19044D01*
X50057Y-18997D01*
X50109Y-19049D01*
X50109Y-19213D01*
X49944Y-19144D01*
X49765Y-19144D01*
X49599Y-19212D01*
X49509Y-19303D01*
X49509Y-19049D01*
X49493Y-18972D01*
X49493Y-18972D01*
X49479Y-18951D01*
X49450Y-18907D01*
X49450Y-18907D01*
X49281Y-18738D01*
X49304Y-18684D01*
X49304Y-18505D01*
X49236Y-18339D01*
X49109Y-18213D01*
X48944Y-18144D01*
X48765Y-18144D01*
X48599Y-18212D01*
X48473Y-18339D01*
X48404Y-18504D01*
X48404Y-18683D01*
X48472Y-18849D01*
X48599Y-18975D01*
X48764Y-19044D01*
X48943Y-19044D01*
X48998Y-19021D01*
X49109Y-19132D01*
X49109Y-19213D01*
X48944Y-19144D01*
X48765Y-19144D01*
X48599Y-19212D01*
X48509Y-19303D01*
X48509Y-19049D01*
X48493Y-18972D01*
X48493Y-18972D01*
X48479Y-18951D01*
X48450Y-18907D01*
X48450Y-18907D01*
X48281Y-18738D01*
X48304Y-18684D01*
X48304Y-18505D01*
X48236Y-18339D01*
X48109Y-18213D01*
X47944Y-18144D01*
X47765Y-18144D01*
X47599Y-18212D01*
X47473Y-18339D01*
X47404Y-18504D01*
X47404Y-18683D01*
X47472Y-18849D01*
X47599Y-18975D01*
X47764Y-19044D01*
X47943Y-19044D01*
X47998Y-19021D01*
X48109Y-19132D01*
X48109Y-19213D01*
X47944Y-19144D01*
X47765Y-19144D01*
X47599Y-19212D01*
X47473Y-19339D01*
X47404Y-19504D01*
X47404Y-19683D01*
X47472Y-19849D01*
X47599Y-19975D01*
X47654Y-19998D01*
X47654Y-22011D01*
X47669Y-22088D01*
X47712Y-22153D01*
X48109Y-22549D01*
X48109Y-23062D01*
X48054Y-23084D01*
X47927Y-23211D01*
X47859Y-23376D01*
X47858Y-23555D01*
X47927Y-23721D01*
X48053Y-23847D01*
X48219Y-23916D01*
X48295Y-23916D01*
X48172Y-23922D01*
X48021Y-23985D01*
X47993Y-24080D01*
X48309Y-24395D01*
X48624Y-24080D01*
X48596Y-23985D01*
X48401Y-23915D01*
X48563Y-23848D01*
X48690Y-23721D01*
X48758Y-23556D01*
X48759Y-23377D01*
X48690Y-23211D01*
X48564Y-23085D01*
X48509Y-23062D01*
X48509Y-22466D01*
X48493Y-22389D01*
X48493Y-22389D01*
X48479Y-22368D01*
X48450Y-22325D01*
X48450Y-22325D01*
X48054Y-21928D01*
X48054Y-19998D01*
X48108Y-19976D01*
X48109Y-19976D01*
X48109Y-21466D01*
X48124Y-21543D01*
X48167Y-21607D01*
X49109Y-22549D01*
X49109Y-23062D01*
X49054Y-23084D01*
X48927Y-23211D01*
X48859Y-23376D01*
X48858Y-23555D01*
X48927Y-23721D01*
X49053Y-23847D01*
X49219Y-23916D01*
X49295Y-23916D01*
X49172Y-23922D01*
X49021Y-23985D01*
X48993Y-24080D01*
X49309Y-24395D01*
X49624Y-24080D01*
X49596Y-23985D01*
X49401Y-23915D01*
X49563Y-23848D01*
X49690Y-23721D01*
X49758Y-23556D01*
X49759Y-23377D01*
X49690Y-23211D01*
X49564Y-23085D01*
X49509Y-23062D01*
X49509Y-22466D01*
X49493Y-22389D01*
X49493Y-22389D01*
X49479Y-22368D01*
X49450Y-22325D01*
X49450Y-22325D01*
X48509Y-21383D01*
X48509Y-19885D01*
X48599Y-19975D01*
X48654Y-19998D01*
X48654Y-21261D01*
X48669Y-21338D01*
X48712Y-21403D01*
X50109Y-22799D01*
X50109Y-23062D01*
X50054Y-23084D01*
X49927Y-23211D01*
X49859Y-23376D01*
X49858Y-23555D01*
X49927Y-23721D01*
X50053Y-23847D01*
X50219Y-23916D01*
X50295Y-23916D01*
X50172Y-23922D01*
X50021Y-23985D01*
X49993Y-24080D01*
X50309Y-24395D01*
X50624Y-24080D01*
X50596Y-23985D01*
X50401Y-23915D01*
X50563Y-23848D01*
X50690Y-23721D01*
X50758Y-23556D01*
X50759Y-23377D01*
X50690Y-23211D01*
X50564Y-23085D01*
X50509Y-23062D01*
X50509Y-22716D01*
X50493Y-22639D01*
X50493Y-22639D01*
X50450Y-22575D01*
X49054Y-21178D01*
X49054Y-19998D01*
X49108Y-19976D01*
X49109Y-19976D01*
X49109Y-20966D01*
X49124Y-21043D01*
X49167Y-21107D01*
X51109Y-23049D01*
X51109Y-23062D01*
X51054Y-23084D01*
X50927Y-23211D01*
X50859Y-23376D01*
X50858Y-23555D01*
X50927Y-23721D01*
X51053Y-23847D01*
X51219Y-23916D01*
X51295Y-23916D01*
X51172Y-23922D01*
X51021Y-23985D01*
X50993Y-24080D01*
X51309Y-24395D01*
X51624Y-24080D01*
X51596Y-23985D01*
X51401Y-23915D01*
X51563Y-23848D01*
X51690Y-23721D01*
X51758Y-23556D01*
X51759Y-23377D01*
X51690Y-23211D01*
X51564Y-23085D01*
X51509Y-23062D01*
X51509Y-22966D01*
X51509Y-22966D01*
X51504Y-22945D01*
X51881Y-23322D01*
X51859Y-23376D01*
X51858Y-23555D01*
X51927Y-23721D01*
X52053Y-23847D01*
X52219Y-23916D01*
X52295Y-23916D01*
X52172Y-23922D01*
X52021Y-23985D01*
X51993Y-24080D01*
X52309Y-24395D01*
X52624Y-24080D01*
X52596Y-23985D01*
X52401Y-23915D01*
X52563Y-23848D01*
X52690Y-23721D01*
X52758Y-23556D01*
X52759Y-23377D01*
X52759Y-24169D01*
X52694Y-24151D01*
X52379Y-24466D01*
X52694Y-24781D01*
X52790Y-24754D01*
X52863Y-24548D01*
X52863Y-37361D01*
X52759Y-37361D01*
X52759Y-25736D01*
X52759Y-25136D01*
X52736Y-25081D01*
X52694Y-25039D01*
X52639Y-25016D01*
X52579Y-25016D01*
X52323Y-25016D01*
X52445Y-25010D01*
X52596Y-24947D01*
X52624Y-24852D01*
X52309Y-24537D01*
X52238Y-24607D01*
X52238Y-24466D01*
X51923Y-24151D01*
X51827Y-24178D01*
X51810Y-24227D01*
X51790Y-24178D01*
X51694Y-24151D01*
X51379Y-24466D01*
X51694Y-24781D01*
X51790Y-24754D01*
X51807Y-24705D01*
X51827Y-24754D01*
X51923Y-24781D01*
X52238Y-24466D01*
X52238Y-24607D01*
X51993Y-24852D01*
X52021Y-24947D01*
X52213Y-25016D01*
X51979Y-25016D01*
X51924Y-25039D01*
X51881Y-25081D01*
X51859Y-25136D01*
X51859Y-25196D01*
X51859Y-25796D01*
X51881Y-25851D01*
X51923Y-25893D01*
X51979Y-25916D01*
X52038Y-25916D01*
X52638Y-25916D01*
X52693Y-25893D01*
X52736Y-25851D01*
X52759Y-25796D01*
X52759Y-25736D01*
X52759Y-37361D01*
X52599Y-37361D01*
X52599Y-36089D01*
X52502Y-35854D01*
X52322Y-35673D01*
X52109Y-35585D01*
X52109Y-31027D01*
X52109Y-30027D01*
X52109Y-29027D01*
X52040Y-28861D01*
X51914Y-28735D01*
X51759Y-28670D01*
X51759Y-25736D01*
X51759Y-25136D01*
X51736Y-25081D01*
X51694Y-25039D01*
X51639Y-25016D01*
X51579Y-25016D01*
X51323Y-25016D01*
X51445Y-25010D01*
X51596Y-24947D01*
X51624Y-24852D01*
X51309Y-24537D01*
X51238Y-24607D01*
X51238Y-24466D01*
X50923Y-24151D01*
X50827Y-24178D01*
X50810Y-24227D01*
X50790Y-24178D01*
X50694Y-24151D01*
X50379Y-24466D01*
X50694Y-24781D01*
X50790Y-24754D01*
X50807Y-24705D01*
X50827Y-24754D01*
X50923Y-24781D01*
X51238Y-24466D01*
X51238Y-24607D01*
X50993Y-24852D01*
X51021Y-24947D01*
X51213Y-25016D01*
X50979Y-25016D01*
X50924Y-25039D01*
X50881Y-25081D01*
X50859Y-25136D01*
X50859Y-25196D01*
X50859Y-25796D01*
X50881Y-25851D01*
X50923Y-25893D01*
X50979Y-25916D01*
X51038Y-25916D01*
X51638Y-25916D01*
X51693Y-25893D01*
X51736Y-25851D01*
X51759Y-25796D01*
X51759Y-25736D01*
X51759Y-28670D01*
X51748Y-28666D01*
X51569Y-28666D01*
X51404Y-28734D01*
X51277Y-28861D01*
X51209Y-29026D01*
X51208Y-29205D01*
X51277Y-29371D01*
X51403Y-29497D01*
X51569Y-29566D01*
X51748Y-29566D01*
X51913Y-29498D01*
X52040Y-29371D01*
X52108Y-29206D01*
X52109Y-29027D01*
X52109Y-30027D01*
X52040Y-29861D01*
X51914Y-29735D01*
X51748Y-29666D01*
X51569Y-29666D01*
X51404Y-29734D01*
X51277Y-29861D01*
X51209Y-30026D01*
X51208Y-30205D01*
X51277Y-30371D01*
X51403Y-30497D01*
X51569Y-30566D01*
X51748Y-30566D01*
X51913Y-30498D01*
X52040Y-30371D01*
X52108Y-30206D01*
X52109Y-30027D01*
X52109Y-31027D01*
X52040Y-30861D01*
X51914Y-30735D01*
X51748Y-30666D01*
X51569Y-30666D01*
X51404Y-30734D01*
X51277Y-30861D01*
X51209Y-31026D01*
X51208Y-31205D01*
X51277Y-31371D01*
X51403Y-31497D01*
X51569Y-31566D01*
X51748Y-31566D01*
X51913Y-31498D01*
X52040Y-31371D01*
X52108Y-31206D01*
X52109Y-31027D01*
X52109Y-35585D01*
X52109Y-35585D01*
X52109Y-32386D01*
X52109Y-31786D01*
X52086Y-31731D01*
X52044Y-31689D01*
X51989Y-31666D01*
X51929Y-31666D01*
X51329Y-31666D01*
X51274Y-31689D01*
X51231Y-31731D01*
X51209Y-31786D01*
X51209Y-31846D01*
X51209Y-32446D01*
X51231Y-32501D01*
X51273Y-32543D01*
X51329Y-32566D01*
X51388Y-32566D01*
X51988Y-32566D01*
X52043Y-32543D01*
X52086Y-32501D01*
X52109Y-32446D01*
X52109Y-32386D01*
X52109Y-35585D01*
X52087Y-35576D01*
X51832Y-35575D01*
X51596Y-35673D01*
X51416Y-35853D01*
X51318Y-36088D01*
X51318Y-36343D01*
X51415Y-36578D01*
X51595Y-36759D01*
X51831Y-36856D01*
X52085Y-36857D01*
X52321Y-36759D01*
X52501Y-36579D01*
X52599Y-36344D01*
X52599Y-36089D01*
X52599Y-37361D01*
X51109Y-37361D01*
X51109Y-32027D01*
X51040Y-31861D01*
X50914Y-31735D01*
X50748Y-31666D01*
X50569Y-31666D01*
X50404Y-31734D01*
X50382Y-31756D01*
X48959Y-31756D01*
X48959Y-31702D01*
X48959Y-31589D01*
X48896Y-31526D01*
X48584Y-31526D01*
X48584Y-31534D01*
X48484Y-31534D01*
X48484Y-31526D01*
X48476Y-31526D01*
X48476Y-31426D01*
X48484Y-31426D01*
X48484Y-31418D01*
X48584Y-31418D01*
X48584Y-31426D01*
X48896Y-31426D01*
X48959Y-31364D01*
X48959Y-31251D01*
X48959Y-31151D01*
X48952Y-31136D01*
X50209Y-31136D01*
X50208Y-31205D01*
X50277Y-31371D01*
X50403Y-31497D01*
X50569Y-31566D01*
X50748Y-31566D01*
X50913Y-31498D01*
X51040Y-31371D01*
X51108Y-31206D01*
X51109Y-31027D01*
X51040Y-30861D01*
X50914Y-30735D01*
X50748Y-30666D01*
X50569Y-30666D01*
X50404Y-30734D01*
X50402Y-30736D01*
X48959Y-30736D01*
X48959Y-30682D01*
X48959Y-30569D01*
X48896Y-30506D01*
X48584Y-30506D01*
X48584Y-30514D01*
X48484Y-30514D01*
X48484Y-30506D01*
X48476Y-30506D01*
X48476Y-30406D01*
X48484Y-30406D01*
X48484Y-30398D01*
X48584Y-30398D01*
X48584Y-30406D01*
X48896Y-30406D01*
X48959Y-30344D01*
X48959Y-30231D01*
X48959Y-30136D01*
X50209Y-30136D01*
X50208Y-30205D01*
X50277Y-30371D01*
X50403Y-30497D01*
X50569Y-30566D01*
X50748Y-30566D01*
X50913Y-30498D01*
X51040Y-30371D01*
X51108Y-30206D01*
X51109Y-30027D01*
X51040Y-29861D01*
X50914Y-29735D01*
X50748Y-29666D01*
X50569Y-29666D01*
X50404Y-29734D01*
X50402Y-29736D01*
X48959Y-29736D01*
X48959Y-29642D01*
X48959Y-29529D01*
X48896Y-29466D01*
X48584Y-29466D01*
X48584Y-29474D01*
X48484Y-29474D01*
X48484Y-29466D01*
X48476Y-29466D01*
X48476Y-29366D01*
X48484Y-29366D01*
X48484Y-29358D01*
X48584Y-29358D01*
X48584Y-29366D01*
X48896Y-29366D01*
X48959Y-29304D01*
X48959Y-29191D01*
X48959Y-29116D01*
X50209Y-29116D01*
X50208Y-29205D01*
X50277Y-29371D01*
X50403Y-29497D01*
X50569Y-29566D01*
X50748Y-29566D01*
X50913Y-29498D01*
X51040Y-29371D01*
X51108Y-29206D01*
X51109Y-29027D01*
X51040Y-28861D01*
X50914Y-28735D01*
X50759Y-28670D01*
X50759Y-25736D01*
X50759Y-25136D01*
X50736Y-25081D01*
X50694Y-25039D01*
X50639Y-25016D01*
X50579Y-25016D01*
X50323Y-25016D01*
X50445Y-25010D01*
X50596Y-24947D01*
X50624Y-24852D01*
X50309Y-24537D01*
X50238Y-24607D01*
X50238Y-24466D01*
X49923Y-24151D01*
X49827Y-24178D01*
X49810Y-24227D01*
X49790Y-24178D01*
X49694Y-24151D01*
X49379Y-24466D01*
X49694Y-24781D01*
X49790Y-24754D01*
X49807Y-24705D01*
X49827Y-24754D01*
X49923Y-24781D01*
X50238Y-24466D01*
X50238Y-24607D01*
X49993Y-24852D01*
X50021Y-24947D01*
X50213Y-25016D01*
X49979Y-25016D01*
X49924Y-25039D01*
X49881Y-25081D01*
X49859Y-25136D01*
X49859Y-25196D01*
X49859Y-25796D01*
X49881Y-25851D01*
X49923Y-25893D01*
X49979Y-25916D01*
X50038Y-25916D01*
X50638Y-25916D01*
X50693Y-25893D01*
X50736Y-25851D01*
X50759Y-25796D01*
X50759Y-25736D01*
X50759Y-28670D01*
X50748Y-28666D01*
X50569Y-28666D01*
X50448Y-28716D01*
X49759Y-28716D01*
X49759Y-25736D01*
X49759Y-25136D01*
X49736Y-25081D01*
X49694Y-25039D01*
X49639Y-25016D01*
X49579Y-25016D01*
X49323Y-25016D01*
X49445Y-25010D01*
X49596Y-24947D01*
X49624Y-24852D01*
X49309Y-24537D01*
X49238Y-24607D01*
X49238Y-24466D01*
X48923Y-24151D01*
X48827Y-24178D01*
X48810Y-24227D01*
X48790Y-24178D01*
X48694Y-24151D01*
X48379Y-24466D01*
X48694Y-24781D01*
X48790Y-24754D01*
X48807Y-24705D01*
X48827Y-24754D01*
X48923Y-24781D01*
X49238Y-24466D01*
X49238Y-24607D01*
X48993Y-24852D01*
X49021Y-24947D01*
X49213Y-25016D01*
X48979Y-25016D01*
X48924Y-25039D01*
X48881Y-25081D01*
X48859Y-25136D01*
X48859Y-25196D01*
X48859Y-25796D01*
X48881Y-25851D01*
X48923Y-25893D01*
X48979Y-25916D01*
X49038Y-25916D01*
X49638Y-25916D01*
X49693Y-25893D01*
X49736Y-25851D01*
X49759Y-25796D01*
X49759Y-25736D01*
X49759Y-28716D01*
X48759Y-28716D01*
X48759Y-25736D01*
X48759Y-25136D01*
X48736Y-25081D01*
X48694Y-25039D01*
X48639Y-25016D01*
X48579Y-25016D01*
X48323Y-25016D01*
X48445Y-25010D01*
X48596Y-24947D01*
X48624Y-24852D01*
X48309Y-24537D01*
X48238Y-24607D01*
X48238Y-24466D01*
X47923Y-24151D01*
X47827Y-24178D01*
X47810Y-24227D01*
X47790Y-24178D01*
X47759Y-24169D01*
X47759Y-23377D01*
X47690Y-23211D01*
X47564Y-23085D01*
X47509Y-23062D01*
X47509Y-22966D01*
X47493Y-22889D01*
X47493Y-22889D01*
X47479Y-22868D01*
X47450Y-22825D01*
X47450Y-22825D01*
X47054Y-22428D01*
X47054Y-19998D01*
X47108Y-19976D01*
X47235Y-19849D01*
X47304Y-19684D01*
X47304Y-19505D01*
X47304Y-18505D01*
X47236Y-18339D01*
X47109Y-18213D01*
X46944Y-18144D01*
X46765Y-18144D01*
X46599Y-18212D01*
X46473Y-18339D01*
X46404Y-18504D01*
X46404Y-18683D01*
X46472Y-18849D01*
X46599Y-18975D01*
X46764Y-19044D01*
X46943Y-19044D01*
X47108Y-18976D01*
X47235Y-18849D01*
X47304Y-18684D01*
X47304Y-18505D01*
X47304Y-19505D01*
X47236Y-19339D01*
X47109Y-19213D01*
X46944Y-19144D01*
X46765Y-19144D01*
X46599Y-19212D01*
X46509Y-19303D01*
X46509Y-19049D01*
X46493Y-18972D01*
X46493Y-18972D01*
X46479Y-18951D01*
X46450Y-18907D01*
X46450Y-18907D01*
X46281Y-18738D01*
X46304Y-18684D01*
X46304Y-18505D01*
X46236Y-18339D01*
X46109Y-18213D01*
X45944Y-18144D01*
X45765Y-18144D01*
X45599Y-18212D01*
X45473Y-18339D01*
X45404Y-18504D01*
X45404Y-18683D01*
X45472Y-18849D01*
X45599Y-18975D01*
X45764Y-19044D01*
X45943Y-19044D01*
X45998Y-19021D01*
X46109Y-19132D01*
X46109Y-19213D01*
X45944Y-19144D01*
X45765Y-19144D01*
X45599Y-19212D01*
X45473Y-19339D01*
X45404Y-19504D01*
X45404Y-19683D01*
X45472Y-19849D01*
X45599Y-19975D01*
X45654Y-19998D01*
X45654Y-20588D01*
X45304Y-20938D01*
X45304Y-19505D01*
X45304Y-18505D01*
X45236Y-18339D01*
X45109Y-18213D01*
X44944Y-18144D01*
X44765Y-18144D01*
X44599Y-18212D01*
X44473Y-18339D01*
X44404Y-18504D01*
X44404Y-18683D01*
X44472Y-18849D01*
X44599Y-18975D01*
X44764Y-19044D01*
X44943Y-19044D01*
X45108Y-18976D01*
X45235Y-18849D01*
X45304Y-18684D01*
X45304Y-18505D01*
X45304Y-19505D01*
X45236Y-19339D01*
X45109Y-19213D01*
X44944Y-19144D01*
X44765Y-19144D01*
X44599Y-19212D01*
X44473Y-19339D01*
X44404Y-19504D01*
X44404Y-19683D01*
X44472Y-19849D01*
X44599Y-19975D01*
X44654Y-19998D01*
X44654Y-20338D01*
X44304Y-20688D01*
X44304Y-19505D01*
X44304Y-18505D01*
X44236Y-18339D01*
X44109Y-18213D01*
X43944Y-18144D01*
X43765Y-18144D01*
X43599Y-18212D01*
X43473Y-18339D01*
X43404Y-18504D01*
X43404Y-18683D01*
X43472Y-18849D01*
X43599Y-18975D01*
X43764Y-19044D01*
X43943Y-19044D01*
X44108Y-18976D01*
X44235Y-18849D01*
X44304Y-18684D01*
X44304Y-18505D01*
X44304Y-19505D01*
X44236Y-19339D01*
X44109Y-19213D01*
X43944Y-19144D01*
X43765Y-19144D01*
X43599Y-19212D01*
X43554Y-19258D01*
X43554Y-19094D01*
X43541Y-19030D01*
X43539Y-19017D01*
X43539Y-19017D01*
X43495Y-18953D01*
X43281Y-18738D01*
X43304Y-18684D01*
X43304Y-18505D01*
X43236Y-18339D01*
X43109Y-18213D01*
X42944Y-18144D01*
X42765Y-18144D01*
X42599Y-18212D01*
X42473Y-18339D01*
X42404Y-18504D01*
X42404Y-18683D01*
X42472Y-18849D01*
X42599Y-18975D01*
X42764Y-19044D01*
X42943Y-19044D01*
X42998Y-19021D01*
X43154Y-19177D01*
X43154Y-19258D01*
X43109Y-19213D01*
X42944Y-19144D01*
X42765Y-19144D01*
X42599Y-19212D01*
X42554Y-19258D01*
X42554Y-19094D01*
X42541Y-19030D01*
X42539Y-19017D01*
X42539Y-19017D01*
X42495Y-18953D01*
X42281Y-18738D01*
X42304Y-18684D01*
X42304Y-18505D01*
X42236Y-18339D01*
X42109Y-18213D01*
X41944Y-18144D01*
X41765Y-18144D01*
X41599Y-18212D01*
X41473Y-18339D01*
X41404Y-18504D01*
X41404Y-18683D01*
X41472Y-18849D01*
X41599Y-18975D01*
X41764Y-19044D01*
X41943Y-19044D01*
X41998Y-19021D01*
X42154Y-19177D01*
X42154Y-19258D01*
X42109Y-19213D01*
X41944Y-19144D01*
X41765Y-19144D01*
X41599Y-19212D01*
X41473Y-19339D01*
X41404Y-19504D01*
X41404Y-19683D01*
X41472Y-19849D01*
X41599Y-19975D01*
X41654Y-19998D01*
X41654Y-22488D01*
X41292Y-22850D01*
X41289Y-22835D01*
X41289Y-22835D01*
X41274Y-22813D01*
X41245Y-22770D01*
X41245Y-22770D01*
X41054Y-22578D01*
X41054Y-19998D01*
X41108Y-19976D01*
X41235Y-19849D01*
X41304Y-19684D01*
X41304Y-19505D01*
X41236Y-19339D01*
X41109Y-19213D01*
X40944Y-19144D01*
X40765Y-19144D01*
X40599Y-19212D01*
X40554Y-19258D01*
X40554Y-19177D01*
X40709Y-19021D01*
X40764Y-19044D01*
X40943Y-19044D01*
X41108Y-18976D01*
X41235Y-18849D01*
X41304Y-18684D01*
X41304Y-18505D01*
X41236Y-18339D01*
X41109Y-18213D01*
X40944Y-18144D01*
X40765Y-18144D01*
X40599Y-18212D01*
X40473Y-18339D01*
X40404Y-18504D01*
X40404Y-18683D01*
X40427Y-18738D01*
X40304Y-18861D01*
X40304Y-18505D01*
X40236Y-18339D01*
X40109Y-18213D01*
X39944Y-18144D01*
X39765Y-18144D01*
X39599Y-18212D01*
X39473Y-18339D01*
X39404Y-18504D01*
X39404Y-18683D01*
X39472Y-18849D01*
X39599Y-18975D01*
X39764Y-19044D01*
X39943Y-19044D01*
X40108Y-18976D01*
X40235Y-18849D01*
X40304Y-18684D01*
X40304Y-18505D01*
X40304Y-18861D01*
X40212Y-18953D01*
X40169Y-19017D01*
X40154Y-19094D01*
X40154Y-19258D01*
X40109Y-19213D01*
X39944Y-19144D01*
X39765Y-19144D01*
X39599Y-19212D01*
X39473Y-19339D01*
X39404Y-19504D01*
X39404Y-19683D01*
X39472Y-19849D01*
X39599Y-19975D01*
X39764Y-20044D01*
X39943Y-20044D01*
X40108Y-19976D01*
X40154Y-19930D01*
X40154Y-20111D01*
X40169Y-20188D01*
X40212Y-20253D01*
X40409Y-20449D01*
X40409Y-22283D01*
X40212Y-22479D01*
X40169Y-22544D01*
X40154Y-22621D01*
X40154Y-23416D01*
X40169Y-23493D01*
X40212Y-23557D01*
X40309Y-23654D01*
X40309Y-26249D01*
X40324Y-26325D01*
X40367Y-26390D01*
X40427Y-26450D01*
X40404Y-26504D01*
X40404Y-26683D01*
X40472Y-26849D01*
X40599Y-26975D01*
X40764Y-27044D01*
X40840Y-27044D01*
X40717Y-27050D01*
X40566Y-27113D01*
X40539Y-27208D01*
X40854Y-27523D01*
X41169Y-27208D01*
X41142Y-27113D01*
X40946Y-27043D01*
X41108Y-26976D01*
X41235Y-26849D01*
X41304Y-26684D01*
X41304Y-26505D01*
X41236Y-26339D01*
X41109Y-26213D01*
X40944Y-26144D01*
X40765Y-26144D01*
X40709Y-26167D01*
X40709Y-26166D01*
X40709Y-25782D01*
X41412Y-26485D01*
X41404Y-26504D01*
X41404Y-26683D01*
X41472Y-26849D01*
X41599Y-26975D01*
X41764Y-27044D01*
X41840Y-27044D01*
X41717Y-27050D01*
X41566Y-27113D01*
X41539Y-27208D01*
X41854Y-27523D01*
X42169Y-27208D01*
X42142Y-27113D01*
X41946Y-27043D01*
X42108Y-26976D01*
X42235Y-26849D01*
X42258Y-26794D01*
X42450Y-26794D01*
X42472Y-26849D01*
X42599Y-26975D01*
X42764Y-27044D01*
X42840Y-27044D01*
X42717Y-27050D01*
X42566Y-27113D01*
X42539Y-27208D01*
X42854Y-27523D01*
X43169Y-27208D01*
X43142Y-27113D01*
X42946Y-27043D01*
X43108Y-26976D01*
X43235Y-26849D01*
X43304Y-26684D01*
X43304Y-26505D01*
X43236Y-26339D01*
X43109Y-26213D01*
X42944Y-26144D01*
X42765Y-26144D01*
X42599Y-26212D01*
X42473Y-26339D01*
X42450Y-26394D01*
X42258Y-26394D01*
X42236Y-26339D01*
X42109Y-26213D01*
X41944Y-26144D01*
X41765Y-26144D01*
X41674Y-26181D01*
X40954Y-25461D01*
X40954Y-25323D01*
X40962Y-25335D01*
X41362Y-25735D01*
X41362Y-25735D01*
X41406Y-25764D01*
X41427Y-25779D01*
X41427Y-25779D01*
X41445Y-25782D01*
X41445Y-25782D01*
X41472Y-25849D01*
X41599Y-25975D01*
X41764Y-26044D01*
X41943Y-26044D01*
X42108Y-25976D01*
X42235Y-25849D01*
X42258Y-25794D01*
X42450Y-25794D01*
X42472Y-25849D01*
X42599Y-25975D01*
X42764Y-26044D01*
X42943Y-26044D01*
X43108Y-25976D01*
X43110Y-25974D01*
X43124Y-26043D01*
X43167Y-26107D01*
X43534Y-26474D01*
X43533Y-26580D01*
X43583Y-26700D01*
X43674Y-26791D01*
X43794Y-26841D01*
X43923Y-26841D01*
X44042Y-26792D01*
X44134Y-26700D01*
X44183Y-26581D01*
X44184Y-26452D01*
X44134Y-26332D01*
X44043Y-26241D01*
X43923Y-26191D01*
X43816Y-26191D01*
X43509Y-25883D01*
X43509Y-21599D01*
X43616Y-21491D01*
X43723Y-21491D01*
X43842Y-21442D01*
X43934Y-21350D01*
X43983Y-21231D01*
X43984Y-21102D01*
X43934Y-20982D01*
X43843Y-20891D01*
X43723Y-20841D01*
X43594Y-20841D01*
X43475Y-20890D01*
X43383Y-20982D01*
X43334Y-21101D01*
X43334Y-21208D01*
X43167Y-21375D01*
X43124Y-21439D01*
X43109Y-21516D01*
X43109Y-23213D01*
X43054Y-23190D01*
X43054Y-20627D01*
X43495Y-20185D01*
X43539Y-20121D01*
X43539Y-20121D01*
X43541Y-20108D01*
X43554Y-20044D01*
X43554Y-20044D01*
X43554Y-19930D01*
X43599Y-19975D01*
X43764Y-20044D01*
X43943Y-20044D01*
X44108Y-19976D01*
X44235Y-19849D01*
X44304Y-19684D01*
X44304Y-19505D01*
X44304Y-20688D01*
X44167Y-20825D01*
X44124Y-20889D01*
X44109Y-20966D01*
X44109Y-23062D01*
X44054Y-23084D01*
X43927Y-23211D01*
X43859Y-23376D01*
X43858Y-23555D01*
X43927Y-23721D01*
X44053Y-23847D01*
X44219Y-23916D01*
X44295Y-23916D01*
X44172Y-23922D01*
X44021Y-23985D01*
X43993Y-24080D01*
X44309Y-24395D01*
X44624Y-24080D01*
X44596Y-23985D01*
X44401Y-23915D01*
X44563Y-23848D01*
X44690Y-23721D01*
X44758Y-23556D01*
X44759Y-23377D01*
X44690Y-23211D01*
X44564Y-23085D01*
X44509Y-23062D01*
X44509Y-21049D01*
X44995Y-20562D01*
X44995Y-20562D01*
X45024Y-20519D01*
X45039Y-20497D01*
X45039Y-20497D01*
X45054Y-20421D01*
X45054Y-20421D01*
X45054Y-19998D01*
X45108Y-19976D01*
X45235Y-19849D01*
X45304Y-19684D01*
X45304Y-19505D01*
X45304Y-20938D01*
X45167Y-21075D01*
X45124Y-21139D01*
X45109Y-21216D01*
X45109Y-23062D01*
X45054Y-23084D01*
X44927Y-23211D01*
X44859Y-23376D01*
X44858Y-23555D01*
X44927Y-23721D01*
X45053Y-23847D01*
X45219Y-23916D01*
X45295Y-23916D01*
X45172Y-23922D01*
X45021Y-23985D01*
X44993Y-24080D01*
X45309Y-24395D01*
X45624Y-24080D01*
X45596Y-23985D01*
X45401Y-23915D01*
X45563Y-23848D01*
X45690Y-23721D01*
X45758Y-23556D01*
X45759Y-23377D01*
X45690Y-23211D01*
X45564Y-23085D01*
X45509Y-23062D01*
X45509Y-21299D01*
X45995Y-20812D01*
X45995Y-20812D01*
X46024Y-20769D01*
X46039Y-20747D01*
X46039Y-20747D01*
X46054Y-20671D01*
X46054Y-20671D01*
X46054Y-19998D01*
X46108Y-19976D01*
X46109Y-19976D01*
X46109Y-23062D01*
X46054Y-23084D01*
X45927Y-23211D01*
X45859Y-23376D01*
X45858Y-23555D01*
X45927Y-23721D01*
X46053Y-23847D01*
X46219Y-23916D01*
X46295Y-23916D01*
X46172Y-23922D01*
X46021Y-23985D01*
X45993Y-24080D01*
X46309Y-24395D01*
X46624Y-24080D01*
X46596Y-23985D01*
X46401Y-23915D01*
X46563Y-23848D01*
X46690Y-23721D01*
X46758Y-23556D01*
X46759Y-23377D01*
X46690Y-23211D01*
X46564Y-23085D01*
X46509Y-23062D01*
X46509Y-19885D01*
X46599Y-19975D01*
X46654Y-19998D01*
X46654Y-22511D01*
X46669Y-22588D01*
X46712Y-22653D01*
X47109Y-23049D01*
X47109Y-23062D01*
X47054Y-23084D01*
X46927Y-23211D01*
X46859Y-23376D01*
X46858Y-23555D01*
X46927Y-23721D01*
X47053Y-23847D01*
X47219Y-23916D01*
X47295Y-23916D01*
X47172Y-23922D01*
X47021Y-23985D01*
X46993Y-24080D01*
X47309Y-24395D01*
X47624Y-24080D01*
X47596Y-23985D01*
X47401Y-23915D01*
X47563Y-23848D01*
X47690Y-23721D01*
X47758Y-23556D01*
X47759Y-23377D01*
X47759Y-24169D01*
X47694Y-24151D01*
X47379Y-24466D01*
X47694Y-24781D01*
X47790Y-24754D01*
X47807Y-24705D01*
X47827Y-24754D01*
X47923Y-24781D01*
X48238Y-24466D01*
X48238Y-24607D01*
X47993Y-24852D01*
X48021Y-24947D01*
X48213Y-25016D01*
X47979Y-25016D01*
X47924Y-25039D01*
X47881Y-25081D01*
X47859Y-25136D01*
X47859Y-25196D01*
X47859Y-25796D01*
X47881Y-25851D01*
X47923Y-25893D01*
X47979Y-25916D01*
X48038Y-25916D01*
X48638Y-25916D01*
X48693Y-25893D01*
X48736Y-25851D01*
X48759Y-25796D01*
X48759Y-25736D01*
X48759Y-28716D01*
X47979Y-28716D01*
X47902Y-28731D01*
X47880Y-28746D01*
X47837Y-28775D01*
X47759Y-28853D01*
X47759Y-25736D01*
X47759Y-25136D01*
X47736Y-25081D01*
X47694Y-25039D01*
X47639Y-25016D01*
X47579Y-25016D01*
X47323Y-25016D01*
X47445Y-25010D01*
X47596Y-24947D01*
X47624Y-24852D01*
X47309Y-24537D01*
X47238Y-24607D01*
X47238Y-24466D01*
X46923Y-24151D01*
X46827Y-24178D01*
X46810Y-24227D01*
X46790Y-24178D01*
X46694Y-24151D01*
X46379Y-24466D01*
X46694Y-24781D01*
X46790Y-24754D01*
X46807Y-24705D01*
X46827Y-24754D01*
X46923Y-24781D01*
X47238Y-24466D01*
X47238Y-24607D01*
X46993Y-24852D01*
X47021Y-24947D01*
X47213Y-25016D01*
X46979Y-25016D01*
X46924Y-25039D01*
X46881Y-25081D01*
X46859Y-25136D01*
X46859Y-25196D01*
X46859Y-25796D01*
X46881Y-25851D01*
X46923Y-25893D01*
X46979Y-25916D01*
X47038Y-25916D01*
X47638Y-25916D01*
X47693Y-25893D01*
X47736Y-25851D01*
X47759Y-25796D01*
X47759Y-25736D01*
X47759Y-28853D01*
X47642Y-28970D01*
X47628Y-28991D01*
X47579Y-28991D01*
X47524Y-29014D01*
X47481Y-29056D01*
X47459Y-29111D01*
X47459Y-29171D01*
X47459Y-29458D01*
X47051Y-29866D01*
X47012Y-29866D01*
X47011Y-29863D01*
X46969Y-29821D01*
X46957Y-29816D01*
X46968Y-29811D01*
X47011Y-29769D01*
X47034Y-29714D01*
X47034Y-29654D01*
X47034Y-29418D01*
X47011Y-29363D01*
X46969Y-29321D01*
X46914Y-29298D01*
X46876Y-29298D01*
X46883Y-29281D01*
X46884Y-29152D01*
X46834Y-29032D01*
X46759Y-28956D01*
X46759Y-25736D01*
X46759Y-25136D01*
X46736Y-25081D01*
X46694Y-25039D01*
X46639Y-25016D01*
X46579Y-25016D01*
X46323Y-25016D01*
X46445Y-25010D01*
X46596Y-24947D01*
X46624Y-24852D01*
X46309Y-24537D01*
X46238Y-24607D01*
X46238Y-24466D01*
X45923Y-24151D01*
X45827Y-24178D01*
X45810Y-24227D01*
X45790Y-24178D01*
X45694Y-24151D01*
X45379Y-24466D01*
X45694Y-24781D01*
X45790Y-24754D01*
X45807Y-24705D01*
X45827Y-24754D01*
X45923Y-24781D01*
X46238Y-24466D01*
X46238Y-24607D01*
X45993Y-24852D01*
X46021Y-24947D01*
X46213Y-25016D01*
X45979Y-25016D01*
X45924Y-25039D01*
X45881Y-25081D01*
X45859Y-25136D01*
X45859Y-25196D01*
X45859Y-25796D01*
X45881Y-25851D01*
X45923Y-25893D01*
X45979Y-25916D01*
X46038Y-25916D01*
X46638Y-25916D01*
X46693Y-25893D01*
X46736Y-25851D01*
X46759Y-25796D01*
X46759Y-25736D01*
X46759Y-28956D01*
X46743Y-28941D01*
X46623Y-28891D01*
X46494Y-28891D01*
X46375Y-28940D01*
X46283Y-29032D01*
X46234Y-29151D01*
X46233Y-29280D01*
X46241Y-29298D01*
X46204Y-29298D01*
X46149Y-29321D01*
X46106Y-29363D01*
X46084Y-29418D01*
X46084Y-29478D01*
X46084Y-29714D01*
X46106Y-29769D01*
X46148Y-29811D01*
X46160Y-29816D01*
X46149Y-29821D01*
X46106Y-29863D01*
X46084Y-29918D01*
X46084Y-29978D01*
X46084Y-30214D01*
X46106Y-30269D01*
X46148Y-30311D01*
X46160Y-30316D01*
X46149Y-30321D01*
X46106Y-30363D01*
X46084Y-30418D01*
X46084Y-30478D01*
X46084Y-30714D01*
X46106Y-30769D01*
X46148Y-30811D01*
X46160Y-30816D01*
X46149Y-30821D01*
X46106Y-30863D01*
X46084Y-30918D01*
X46084Y-30978D01*
X46084Y-31214D01*
X46106Y-31269D01*
X46148Y-31311D01*
X46204Y-31334D01*
X46263Y-31334D01*
X46913Y-31334D01*
X46968Y-31311D01*
X46980Y-31300D01*
X47297Y-31617D01*
X47362Y-31661D01*
X47439Y-31676D01*
X47459Y-31676D01*
X47459Y-31781D01*
X47481Y-31836D01*
X47523Y-31878D01*
X47579Y-31901D01*
X47638Y-31901D01*
X47971Y-31901D01*
X47841Y-32031D01*
X47579Y-32031D01*
X47524Y-32054D01*
X47481Y-32096D01*
X47459Y-32151D01*
X47459Y-32211D01*
X47459Y-32256D01*
X47241Y-32256D01*
X46860Y-31875D01*
X46795Y-31831D01*
X46719Y-31816D01*
X45901Y-31816D01*
X45659Y-31573D01*
X45659Y-31036D01*
X45643Y-30959D01*
X45643Y-30959D01*
X45600Y-30895D01*
X45130Y-30425D01*
X45065Y-30381D01*
X44989Y-30366D01*
X44812Y-30366D01*
X44811Y-30363D01*
X44769Y-30321D01*
X44757Y-30316D01*
X44768Y-30311D01*
X44811Y-30269D01*
X44812Y-30266D01*
X44959Y-30266D01*
X45035Y-30251D01*
X45100Y-30207D01*
X45700Y-29607D01*
X45700Y-29607D01*
X45729Y-29564D01*
X45743Y-29543D01*
X45743Y-29543D01*
X45759Y-29466D01*
X45759Y-29466D01*
X45759Y-28826D01*
X45834Y-28750D01*
X45883Y-28631D01*
X45884Y-28502D01*
X45834Y-28382D01*
X45759Y-28306D01*
X45759Y-25736D01*
X45759Y-25136D01*
X45736Y-25081D01*
X45694Y-25039D01*
X45639Y-25016D01*
X45579Y-25016D01*
X45323Y-25016D01*
X45445Y-25010D01*
X45596Y-24947D01*
X45624Y-24852D01*
X45309Y-24537D01*
X45238Y-24607D01*
X45238Y-24466D01*
X44923Y-24151D01*
X44827Y-24178D01*
X44810Y-24227D01*
X44790Y-24178D01*
X44694Y-24151D01*
X44379Y-24466D01*
X44694Y-24781D01*
X44790Y-24754D01*
X44807Y-24705D01*
X44827Y-24754D01*
X44923Y-24781D01*
X45238Y-24466D01*
X45238Y-24607D01*
X44993Y-24852D01*
X45021Y-24947D01*
X45213Y-25016D01*
X44979Y-25016D01*
X44924Y-25039D01*
X44881Y-25081D01*
X44859Y-25136D01*
X44859Y-25196D01*
X44859Y-25796D01*
X44881Y-25851D01*
X44923Y-25893D01*
X44979Y-25916D01*
X45038Y-25916D01*
X45638Y-25916D01*
X45693Y-25893D01*
X45736Y-25851D01*
X45759Y-25796D01*
X45759Y-25736D01*
X45759Y-28306D01*
X45743Y-28291D01*
X45623Y-28241D01*
X45494Y-28241D01*
X45375Y-28290D01*
X45283Y-28382D01*
X45269Y-28417D01*
X45243Y-28391D01*
X45123Y-28341D01*
X44994Y-28341D01*
X44875Y-28390D01*
X44783Y-28482D01*
X44759Y-28541D01*
X44759Y-25736D01*
X44759Y-25136D01*
X44736Y-25081D01*
X44694Y-25039D01*
X44639Y-25016D01*
X44579Y-25016D01*
X44323Y-25016D01*
X44445Y-25010D01*
X44596Y-24947D01*
X44624Y-24852D01*
X44309Y-24537D01*
X44238Y-24607D01*
X44238Y-24466D01*
X43923Y-24151D01*
X43827Y-24178D01*
X43754Y-24384D01*
X43765Y-24603D01*
X43827Y-24754D01*
X43923Y-24781D01*
X44238Y-24466D01*
X44238Y-24607D01*
X43993Y-24852D01*
X44021Y-24947D01*
X44213Y-25016D01*
X43979Y-25016D01*
X43924Y-25039D01*
X43881Y-25081D01*
X43859Y-25136D01*
X43859Y-25196D01*
X43859Y-25796D01*
X43881Y-25851D01*
X43923Y-25893D01*
X43979Y-25916D01*
X44038Y-25916D01*
X44638Y-25916D01*
X44693Y-25893D01*
X44736Y-25851D01*
X44759Y-25796D01*
X44759Y-25736D01*
X44759Y-28541D01*
X44734Y-28601D01*
X44733Y-28730D01*
X44783Y-28850D01*
X44859Y-28926D01*
X44859Y-29133D01*
X44694Y-29298D01*
X44654Y-29298D01*
X44004Y-29298D01*
X43949Y-29321D01*
X43906Y-29363D01*
X43884Y-29418D01*
X43884Y-29478D01*
X43884Y-29714D01*
X43906Y-29769D01*
X43948Y-29811D01*
X43960Y-29816D01*
X43949Y-29821D01*
X43906Y-29863D01*
X43884Y-29918D01*
X43884Y-29978D01*
X43884Y-30214D01*
X43906Y-30269D01*
X43948Y-30311D01*
X43960Y-30316D01*
X43949Y-30321D01*
X43906Y-30363D01*
X43884Y-30418D01*
X43884Y-30478D01*
X43884Y-30714D01*
X43893Y-30736D01*
X43892Y-30736D01*
X43821Y-30807D01*
X43784Y-30899D01*
X43784Y-30954D01*
X43846Y-31016D01*
X44309Y-31016D01*
X44309Y-31008D01*
X44409Y-31008D01*
X44409Y-31016D01*
X44871Y-31016D01*
X44934Y-30954D01*
X44934Y-30899D01*
X44896Y-30807D01*
X44855Y-30766D01*
X44906Y-30766D01*
X45259Y-31119D01*
X45259Y-31656D01*
X45274Y-31733D01*
X45317Y-31797D01*
X45677Y-32157D01*
X45677Y-32157D01*
X45720Y-32186D01*
X45742Y-32201D01*
X45742Y-32201D01*
X45819Y-32216D01*
X45819Y-32216D01*
X46636Y-32216D01*
X47017Y-32597D01*
X47082Y-32641D01*
X47082Y-32641D01*
X47159Y-32656D01*
X47459Y-32656D01*
X47459Y-32761D01*
X47481Y-32816D01*
X47523Y-32858D01*
X47579Y-32881D01*
X47638Y-32881D01*
X47988Y-32881D01*
X48043Y-32858D01*
X48086Y-32816D01*
X48109Y-32761D01*
X48109Y-32731D01*
X48109Y-32781D01*
X48147Y-32873D01*
X48217Y-32943D01*
X48309Y-32981D01*
X48421Y-32981D01*
X48484Y-32919D01*
X48484Y-32506D01*
X48476Y-32506D01*
X48476Y-32406D01*
X48484Y-32406D01*
X48484Y-32398D01*
X48584Y-32398D01*
X48584Y-32406D01*
X48896Y-32406D01*
X48959Y-32344D01*
X48959Y-32231D01*
X48959Y-32156D01*
X50209Y-32156D01*
X50208Y-32205D01*
X50277Y-32371D01*
X50403Y-32497D01*
X50569Y-32566D01*
X50748Y-32566D01*
X50913Y-32498D01*
X51040Y-32371D01*
X51108Y-32206D01*
X51109Y-32027D01*
X51109Y-37361D01*
X50558Y-37361D01*
X50568Y-39594D01*
X48959Y-39594D01*
X48959Y-32682D01*
X48959Y-32569D01*
X48896Y-32506D01*
X48584Y-32506D01*
X48584Y-32919D01*
X48646Y-32981D01*
X48758Y-32981D01*
X48850Y-32943D01*
X48920Y-32873D01*
X48959Y-32781D01*
X48959Y-32682D01*
X48959Y-39594D01*
X46559Y-39594D01*
X46559Y-32727D01*
X46509Y-32607D01*
X46418Y-32516D01*
X46298Y-32466D01*
X46169Y-32466D01*
X46059Y-32512D01*
X46059Y-32461D01*
X46036Y-32406D01*
X45994Y-32364D01*
X45939Y-32341D01*
X45879Y-32341D01*
X45529Y-32341D01*
X45474Y-32364D01*
X45431Y-32406D01*
X45409Y-32461D01*
X45409Y-32491D01*
X45409Y-32441D01*
X45370Y-32349D01*
X45300Y-32279D01*
X45208Y-32241D01*
X45096Y-32241D01*
X45034Y-32304D01*
X45034Y-32716D01*
X45041Y-32716D01*
X45041Y-32816D01*
X45034Y-32816D01*
X45034Y-33229D01*
X45096Y-33291D01*
X45208Y-33291D01*
X45300Y-33253D01*
X45370Y-33183D01*
X45409Y-33091D01*
X45409Y-33071D01*
X45409Y-33071D01*
X45431Y-33126D01*
X45473Y-33168D01*
X45529Y-33191D01*
X45588Y-33191D01*
X45938Y-33191D01*
X45993Y-33168D01*
X46036Y-33126D01*
X46059Y-33071D01*
X46059Y-33070D01*
X46169Y-33116D01*
X46298Y-33116D01*
X46417Y-33067D01*
X46509Y-32975D01*
X46558Y-32856D01*
X46559Y-32727D01*
X46559Y-39594D01*
X44934Y-39594D01*
X44934Y-31234D01*
X44934Y-31179D01*
X44871Y-31116D01*
X44409Y-31116D01*
X44409Y-31372D01*
X44471Y-31434D01*
X44634Y-31434D01*
X44734Y-31434D01*
X44825Y-31396D01*
X44896Y-31325D01*
X44934Y-31234D01*
X44934Y-39594D01*
X44934Y-39594D01*
X44934Y-33229D01*
X44934Y-32816D01*
X44934Y-32716D01*
X44934Y-32304D01*
X44871Y-32241D01*
X44759Y-32241D01*
X44667Y-32279D01*
X44597Y-32349D01*
X44559Y-32441D01*
X44559Y-32541D01*
X44559Y-32654D01*
X44621Y-32716D01*
X44934Y-32716D01*
X44934Y-32816D01*
X44621Y-32816D01*
X44559Y-32879D01*
X44559Y-32992D01*
X44559Y-33091D01*
X44597Y-33183D01*
X44667Y-33253D01*
X44759Y-33291D01*
X44871Y-33291D01*
X44934Y-33229D01*
X44934Y-39594D01*
X44309Y-39594D01*
X44309Y-31372D01*
X44309Y-31116D01*
X43846Y-31116D01*
X43784Y-31179D01*
X43784Y-31234D01*
X43821Y-31325D01*
X43892Y-31396D01*
X43984Y-31434D01*
X44083Y-31434D01*
X44246Y-31434D01*
X44309Y-31372D01*
X44309Y-39594D01*
X43409Y-39594D01*
X43409Y-27676D01*
X43398Y-27457D01*
X43335Y-27306D01*
X43240Y-27279D01*
X42925Y-27594D01*
X43240Y-27909D01*
X43335Y-27882D01*
X43409Y-27676D01*
X43409Y-39594D01*
X43304Y-39594D01*
X43304Y-28864D01*
X43304Y-28264D01*
X43281Y-28209D01*
X43239Y-28167D01*
X43184Y-28144D01*
X43124Y-28144D01*
X42868Y-28144D01*
X42991Y-28138D01*
X43142Y-28075D01*
X43169Y-27980D01*
X42854Y-27665D01*
X42783Y-27735D01*
X42783Y-27594D01*
X42468Y-27279D01*
X42373Y-27306D01*
X42355Y-27355D01*
X42335Y-27306D01*
X42240Y-27279D01*
X41925Y-27594D01*
X42240Y-27909D01*
X42335Y-27882D01*
X42352Y-27833D01*
X42373Y-27882D01*
X42468Y-27909D01*
X42783Y-27594D01*
X42783Y-27735D01*
X42539Y-27980D01*
X42566Y-28075D01*
X42759Y-28144D01*
X42524Y-28144D01*
X42469Y-28167D01*
X42427Y-28209D01*
X42404Y-28264D01*
X42404Y-28324D01*
X42404Y-28924D01*
X42427Y-28979D01*
X42469Y-29021D01*
X42524Y-29044D01*
X42584Y-29044D01*
X43184Y-29044D01*
X43239Y-29021D01*
X43281Y-28979D01*
X43304Y-28924D01*
X43304Y-28864D01*
X43304Y-39594D01*
X42559Y-39594D01*
X42559Y-33216D01*
X42304Y-33217D01*
X42304Y-28864D01*
X42304Y-28264D01*
X42281Y-28209D01*
X42239Y-28167D01*
X42184Y-28144D01*
X42124Y-28144D01*
X41868Y-28144D01*
X41991Y-28138D01*
X42142Y-28075D01*
X42169Y-27980D01*
X41854Y-27665D01*
X41783Y-27735D01*
X41783Y-27594D01*
X41468Y-27279D01*
X41373Y-27306D01*
X41355Y-27355D01*
X41335Y-27306D01*
X41240Y-27279D01*
X40925Y-27594D01*
X41240Y-27909D01*
X41335Y-27882D01*
X41352Y-27833D01*
X41373Y-27882D01*
X41468Y-27909D01*
X41783Y-27594D01*
X41783Y-27735D01*
X41539Y-27980D01*
X41566Y-28075D01*
X41759Y-28144D01*
X41524Y-28144D01*
X41469Y-28167D01*
X41427Y-28209D01*
X41404Y-28264D01*
X41404Y-28324D01*
X41404Y-28924D01*
X41427Y-28979D01*
X41469Y-29021D01*
X41524Y-29044D01*
X41584Y-29044D01*
X42184Y-29044D01*
X42239Y-29021D01*
X42281Y-28979D01*
X42304Y-28924D01*
X42304Y-28864D01*
X42304Y-33217D01*
X41304Y-33224D01*
X41304Y-28864D01*
X41304Y-28264D01*
X41281Y-28209D01*
X41239Y-28167D01*
X41184Y-28144D01*
X41124Y-28144D01*
X40868Y-28144D01*
X40991Y-28138D01*
X41142Y-28075D01*
X41169Y-27980D01*
X40854Y-27665D01*
X40783Y-27735D01*
X40783Y-27594D01*
X40468Y-27279D01*
X40373Y-27306D01*
X40355Y-27355D01*
X40335Y-27306D01*
X40304Y-27297D01*
X40304Y-26505D01*
X40236Y-26339D01*
X40109Y-26213D01*
X39944Y-26144D01*
X39765Y-26144D01*
X39674Y-26181D01*
X38554Y-25061D01*
X38554Y-19930D01*
X38599Y-19975D01*
X38764Y-20044D01*
X38943Y-20044D01*
X39108Y-19976D01*
X39235Y-19849D01*
X39304Y-19684D01*
X39304Y-19505D01*
X39236Y-19339D01*
X39109Y-19213D01*
X38944Y-19144D01*
X38765Y-19144D01*
X38599Y-19212D01*
X38554Y-19258D01*
X38554Y-19177D01*
X38709Y-19021D01*
X38764Y-19044D01*
X38943Y-19044D01*
X39108Y-18976D01*
X39235Y-18849D01*
X39304Y-18684D01*
X39304Y-18505D01*
X39236Y-18339D01*
X39109Y-18213D01*
X38944Y-18144D01*
X38765Y-18144D01*
X38599Y-18212D01*
X38473Y-18339D01*
X38404Y-18504D01*
X38404Y-18683D01*
X38427Y-18738D01*
X38212Y-18953D01*
X38169Y-19017D01*
X38154Y-19094D01*
X38154Y-19258D01*
X38109Y-19213D01*
X37944Y-19144D01*
X37765Y-19144D01*
X37599Y-19212D01*
X37554Y-19258D01*
X37554Y-19177D01*
X37709Y-19021D01*
X37764Y-19044D01*
X37943Y-19044D01*
X38108Y-18976D01*
X38235Y-18849D01*
X38304Y-18684D01*
X38304Y-18505D01*
X38236Y-18339D01*
X38109Y-18213D01*
X37944Y-18144D01*
X37765Y-18144D01*
X37599Y-18212D01*
X37473Y-18339D01*
X37404Y-18504D01*
X37404Y-18683D01*
X37427Y-18738D01*
X37304Y-18861D01*
X37304Y-18505D01*
X37236Y-18339D01*
X37109Y-18213D01*
X36944Y-18144D01*
X36765Y-18144D01*
X36599Y-18212D01*
X36473Y-18339D01*
X36404Y-18504D01*
X36404Y-18683D01*
X36472Y-18849D01*
X36599Y-18975D01*
X36764Y-19044D01*
X36943Y-19044D01*
X37108Y-18976D01*
X37235Y-18849D01*
X37304Y-18684D01*
X37304Y-18505D01*
X37304Y-18861D01*
X37212Y-18953D01*
X37169Y-19017D01*
X37154Y-19094D01*
X37154Y-19258D01*
X37109Y-19213D01*
X36944Y-19144D01*
X36765Y-19144D01*
X36599Y-19212D01*
X36473Y-19339D01*
X36404Y-19504D01*
X36404Y-19683D01*
X36472Y-19849D01*
X36599Y-19975D01*
X36654Y-19998D01*
X36654Y-26190D01*
X36599Y-26212D01*
X36473Y-26339D01*
X36404Y-26504D01*
X36404Y-26683D01*
X36472Y-26849D01*
X36599Y-26975D01*
X36764Y-27044D01*
X36840Y-27044D01*
X36717Y-27050D01*
X36566Y-27113D01*
X36539Y-27208D01*
X36854Y-27523D01*
X37169Y-27208D01*
X37142Y-27113D01*
X36946Y-27043D01*
X37108Y-26976D01*
X37235Y-26849D01*
X37304Y-26684D01*
X37304Y-26505D01*
X37236Y-26339D01*
X37109Y-26213D01*
X37054Y-26190D01*
X37054Y-19998D01*
X37108Y-19976D01*
X37154Y-19930D01*
X37154Y-26094D01*
X37169Y-26171D01*
X37212Y-26235D01*
X37427Y-26450D01*
X37404Y-26504D01*
X37404Y-26683D01*
X37472Y-26849D01*
X37599Y-26975D01*
X37764Y-27044D01*
X37840Y-27044D01*
X37717Y-27050D01*
X37566Y-27113D01*
X37539Y-27208D01*
X37854Y-27523D01*
X38169Y-27208D01*
X38142Y-27113D01*
X37946Y-27043D01*
X38108Y-26976D01*
X38235Y-26849D01*
X38304Y-26684D01*
X38304Y-26505D01*
X38236Y-26339D01*
X38109Y-26213D01*
X37944Y-26144D01*
X37765Y-26144D01*
X37709Y-26167D01*
X37554Y-26011D01*
X37554Y-19930D01*
X37599Y-19975D01*
X37654Y-19998D01*
X37654Y-25644D01*
X37669Y-25721D01*
X37712Y-25785D01*
X38412Y-26485D01*
X38404Y-26504D01*
X38404Y-26683D01*
X38472Y-26849D01*
X38599Y-26975D01*
X38764Y-27044D01*
X38840Y-27044D01*
X38717Y-27050D01*
X38566Y-27113D01*
X38539Y-27208D01*
X38854Y-27523D01*
X39169Y-27208D01*
X39142Y-27113D01*
X38946Y-27043D01*
X39108Y-26976D01*
X39235Y-26849D01*
X39304Y-26684D01*
X39304Y-26505D01*
X39236Y-26339D01*
X39109Y-26213D01*
X38944Y-26144D01*
X38765Y-26144D01*
X38674Y-26181D01*
X38054Y-25561D01*
X38054Y-19998D01*
X38108Y-19976D01*
X38154Y-19930D01*
X38154Y-25144D01*
X38169Y-25221D01*
X38212Y-25285D01*
X39412Y-26485D01*
X39404Y-26504D01*
X39404Y-26683D01*
X39472Y-26849D01*
X39599Y-26975D01*
X39764Y-27044D01*
X39840Y-27044D01*
X39717Y-27050D01*
X39566Y-27113D01*
X39539Y-27208D01*
X39854Y-27523D01*
X40169Y-27208D01*
X40142Y-27113D01*
X39946Y-27043D01*
X40108Y-26976D01*
X40235Y-26849D01*
X40304Y-26684D01*
X40304Y-26505D01*
X40304Y-27297D01*
X40240Y-27279D01*
X39925Y-27594D01*
X40240Y-27909D01*
X40335Y-27882D01*
X40352Y-27833D01*
X40373Y-27882D01*
X40468Y-27909D01*
X40783Y-27594D01*
X40783Y-27735D01*
X40539Y-27980D01*
X40566Y-28075D01*
X40759Y-28144D01*
X40524Y-28144D01*
X40469Y-28167D01*
X40427Y-28209D01*
X40404Y-28264D01*
X40404Y-28324D01*
X40404Y-28924D01*
X40427Y-28979D01*
X40469Y-29021D01*
X40524Y-29044D01*
X40584Y-29044D01*
X41184Y-29044D01*
X41239Y-29021D01*
X41281Y-28979D01*
X41304Y-28924D01*
X41304Y-28864D01*
X41304Y-33224D01*
X41259Y-33224D01*
X41259Y-30486D01*
X41259Y-29886D01*
X41236Y-29831D01*
X41194Y-29789D01*
X41139Y-29766D01*
X41079Y-29766D01*
X40479Y-29766D01*
X40424Y-29789D01*
X40381Y-29831D01*
X40359Y-29886D01*
X40359Y-29946D01*
X40359Y-30546D01*
X40381Y-30601D01*
X40423Y-30643D01*
X40479Y-30666D01*
X40538Y-30666D01*
X40609Y-30666D01*
X40609Y-31608D01*
X40304Y-31913D01*
X40304Y-28864D01*
X40304Y-28264D01*
X40281Y-28209D01*
X40239Y-28167D01*
X40184Y-28144D01*
X40124Y-28144D01*
X39868Y-28144D01*
X39991Y-28138D01*
X40142Y-28075D01*
X40169Y-27980D01*
X39854Y-27665D01*
X39783Y-27735D01*
X39783Y-27594D01*
X39468Y-27279D01*
X39373Y-27306D01*
X39355Y-27355D01*
X39335Y-27306D01*
X39240Y-27279D01*
X38925Y-27594D01*
X39240Y-27909D01*
X39335Y-27882D01*
X39352Y-27833D01*
X39373Y-27882D01*
X39468Y-27909D01*
X39783Y-27594D01*
X39783Y-27735D01*
X39539Y-27980D01*
X39566Y-28075D01*
X39759Y-28144D01*
X39524Y-28144D01*
X39469Y-28167D01*
X39427Y-28209D01*
X39404Y-28264D01*
X39404Y-28324D01*
X39404Y-28924D01*
X39427Y-28979D01*
X39469Y-29021D01*
X39524Y-29044D01*
X39584Y-29044D01*
X40184Y-29044D01*
X40239Y-29021D01*
X40281Y-28979D01*
X40304Y-28924D01*
X40304Y-28864D01*
X40304Y-31913D01*
X40303Y-31914D01*
X40259Y-31914D01*
X40259Y-30127D01*
X40190Y-29961D01*
X40064Y-29835D01*
X39898Y-29766D01*
X39719Y-29766D01*
X39554Y-29834D01*
X39427Y-29961D01*
X39359Y-30126D01*
X39358Y-30305D01*
X39427Y-30471D01*
X39553Y-30597D01*
X39582Y-30609D01*
X39426Y-30766D01*
X39304Y-30766D01*
X39304Y-28864D01*
X39304Y-28264D01*
X39281Y-28209D01*
X39239Y-28167D01*
X39184Y-28144D01*
X39124Y-28144D01*
X38868Y-28144D01*
X38991Y-28138D01*
X39142Y-28075D01*
X39169Y-27980D01*
X38854Y-27665D01*
X38783Y-27735D01*
X38783Y-27594D01*
X38468Y-27279D01*
X38373Y-27306D01*
X38355Y-27355D01*
X38335Y-27306D01*
X38240Y-27279D01*
X37925Y-27594D01*
X38240Y-27909D01*
X38335Y-27882D01*
X38352Y-27833D01*
X38373Y-27882D01*
X38468Y-27909D01*
X38783Y-27594D01*
X38783Y-27735D01*
X38539Y-27980D01*
X38566Y-28075D01*
X38759Y-28144D01*
X38524Y-28144D01*
X38469Y-28167D01*
X38427Y-28209D01*
X38404Y-28264D01*
X38404Y-28324D01*
X38404Y-28924D01*
X38427Y-28979D01*
X38469Y-29021D01*
X38524Y-29044D01*
X38584Y-29044D01*
X39184Y-29044D01*
X39239Y-29021D01*
X39281Y-28979D01*
X39304Y-28924D01*
X39304Y-28864D01*
X39304Y-30766D01*
X38541Y-30766D01*
X38664Y-30643D01*
X38719Y-30666D01*
X38898Y-30666D01*
X39063Y-30598D01*
X39190Y-30471D01*
X39258Y-30306D01*
X39259Y-30127D01*
X39190Y-29961D01*
X39064Y-29835D01*
X38898Y-29766D01*
X38719Y-29766D01*
X38554Y-29834D01*
X38427Y-29961D01*
X38359Y-30126D01*
X38358Y-30305D01*
X38381Y-30360D01*
X38304Y-30438D01*
X38304Y-28864D01*
X38304Y-28264D01*
X38281Y-28209D01*
X38239Y-28167D01*
X38184Y-28144D01*
X38124Y-28144D01*
X37868Y-28144D01*
X37991Y-28138D01*
X38142Y-28075D01*
X38169Y-27980D01*
X37854Y-27665D01*
X37783Y-27735D01*
X37783Y-27594D01*
X37468Y-27279D01*
X37373Y-27306D01*
X37355Y-27355D01*
X37335Y-27306D01*
X37240Y-27279D01*
X36925Y-27594D01*
X37240Y-27909D01*
X37335Y-27882D01*
X37352Y-27833D01*
X37373Y-27882D01*
X37468Y-27909D01*
X37783Y-27594D01*
X37783Y-27735D01*
X37539Y-27980D01*
X37566Y-28075D01*
X37759Y-28144D01*
X37524Y-28144D01*
X37469Y-28167D01*
X37427Y-28209D01*
X37404Y-28264D01*
X37404Y-28324D01*
X37404Y-28924D01*
X37427Y-28979D01*
X37469Y-29021D01*
X37524Y-29044D01*
X37584Y-29044D01*
X38184Y-29044D01*
X38239Y-29021D01*
X38281Y-28979D01*
X38304Y-28924D01*
X38304Y-28864D01*
X38304Y-30438D01*
X38226Y-30516D01*
X38145Y-30516D01*
X38190Y-30471D01*
X38258Y-30306D01*
X38259Y-30127D01*
X38190Y-29961D01*
X38064Y-29835D01*
X37898Y-29766D01*
X37719Y-29766D01*
X37554Y-29834D01*
X37427Y-29961D01*
X37359Y-30126D01*
X37358Y-30305D01*
X37381Y-30360D01*
X37304Y-30438D01*
X37304Y-28864D01*
X37304Y-28264D01*
X37281Y-28209D01*
X37239Y-28167D01*
X37184Y-28144D01*
X37124Y-28144D01*
X36868Y-28144D01*
X36991Y-28138D01*
X37142Y-28075D01*
X37169Y-27980D01*
X36854Y-27665D01*
X36783Y-27735D01*
X36783Y-27594D01*
X36468Y-27279D01*
X36373Y-27306D01*
X36355Y-27355D01*
X36335Y-27306D01*
X36304Y-27297D01*
X36304Y-26505D01*
X36236Y-26339D01*
X36109Y-26213D01*
X36054Y-26190D01*
X36054Y-19998D01*
X36108Y-19976D01*
X36235Y-19849D01*
X36304Y-19684D01*
X36304Y-19505D01*
X36236Y-19339D01*
X36109Y-19213D01*
X35944Y-19144D01*
X35765Y-19144D01*
X35599Y-19212D01*
X35554Y-19258D01*
X35554Y-19177D01*
X35709Y-19021D01*
X35764Y-19044D01*
X35943Y-19044D01*
X36108Y-18976D01*
X36235Y-18849D01*
X36304Y-18684D01*
X36304Y-18505D01*
X36236Y-18339D01*
X36109Y-18213D01*
X35944Y-18144D01*
X35765Y-18144D01*
X35599Y-18212D01*
X35473Y-18339D01*
X35404Y-18504D01*
X35404Y-18683D01*
X35427Y-18738D01*
X35212Y-18953D01*
X35169Y-19017D01*
X35154Y-19094D01*
X35154Y-19258D01*
X35109Y-19213D01*
X34944Y-19144D01*
X34765Y-19144D01*
X34599Y-19212D01*
X34554Y-19258D01*
X34554Y-19177D01*
X34709Y-19021D01*
X34764Y-19044D01*
X34943Y-19044D01*
X35108Y-18976D01*
X35235Y-18849D01*
X35304Y-18684D01*
X35304Y-18505D01*
X35236Y-18339D01*
X35109Y-18213D01*
X34944Y-18144D01*
X34765Y-18144D01*
X34599Y-18212D01*
X34473Y-18339D01*
X34404Y-18504D01*
X34404Y-18683D01*
X34427Y-18738D01*
X34212Y-18953D01*
X34169Y-19017D01*
X34154Y-19094D01*
X34154Y-19258D01*
X34109Y-19213D01*
X33944Y-19144D01*
X33765Y-19144D01*
X33599Y-19212D01*
X33559Y-19253D01*
X33559Y-19172D01*
X33709Y-19021D01*
X33764Y-19044D01*
X33943Y-19044D01*
X34108Y-18976D01*
X34235Y-18849D01*
X34304Y-18684D01*
X34304Y-18505D01*
X34236Y-18339D01*
X34109Y-18213D01*
X33944Y-18144D01*
X33765Y-18144D01*
X33599Y-18212D01*
X33473Y-18339D01*
X33404Y-18504D01*
X33404Y-18683D01*
X33427Y-18738D01*
X33304Y-18861D01*
X33304Y-18505D01*
X33236Y-18339D01*
X33109Y-18213D01*
X32944Y-18144D01*
X32765Y-18144D01*
X32599Y-18212D01*
X32473Y-18339D01*
X32404Y-18504D01*
X32404Y-18683D01*
X32472Y-18849D01*
X32599Y-18975D01*
X32764Y-19044D01*
X32943Y-19044D01*
X33108Y-18976D01*
X33235Y-18849D01*
X33304Y-18684D01*
X33304Y-18505D01*
X33304Y-18861D01*
X33217Y-18948D01*
X33174Y-19013D01*
X33159Y-19089D01*
X33159Y-19262D01*
X33109Y-19213D01*
X32944Y-19144D01*
X32765Y-19144D01*
X32599Y-19212D01*
X32473Y-19339D01*
X32404Y-19504D01*
X32404Y-19683D01*
X32472Y-19849D01*
X32599Y-19975D01*
X32654Y-19998D01*
X32654Y-20416D01*
X32659Y-20440D01*
X32659Y-24133D01*
X31712Y-25079D01*
X31669Y-25144D01*
X31661Y-25187D01*
X31599Y-25212D01*
X31554Y-25258D01*
X31554Y-24854D01*
X31995Y-24412D01*
X32039Y-24347D01*
X32039Y-24347D01*
X32041Y-24335D01*
X32054Y-24271D01*
X32054Y-24271D01*
X32054Y-19998D01*
X32108Y-19976D01*
X32235Y-19849D01*
X32304Y-19684D01*
X32304Y-19505D01*
X32236Y-19339D01*
X32109Y-19213D01*
X31944Y-19144D01*
X31765Y-19144D01*
X31599Y-19212D01*
X31473Y-19339D01*
X31404Y-19504D01*
X31404Y-19683D01*
X31472Y-19849D01*
X31599Y-19975D01*
X31654Y-19998D01*
X31654Y-24188D01*
X31359Y-24483D01*
X31359Y-22916D01*
X31359Y-22217D01*
X31321Y-22125D01*
X31250Y-22054D01*
X31159Y-22016D01*
X31059Y-22016D01*
X30821Y-22016D01*
X30759Y-22079D01*
X30759Y-22516D01*
X31296Y-22516D01*
X31359Y-22454D01*
X31359Y-22217D01*
X31359Y-22916D01*
X31359Y-22679D01*
X31296Y-22616D01*
X30759Y-22616D01*
X30759Y-23054D01*
X30821Y-23116D01*
X31059Y-23116D01*
X31159Y-23116D01*
X31250Y-23078D01*
X31321Y-23007D01*
X31359Y-22916D01*
X31359Y-24483D01*
X31212Y-24629D01*
X31169Y-24694D01*
X31154Y-24771D01*
X31154Y-26244D01*
X31169Y-26321D01*
X31212Y-26385D01*
X31404Y-26577D01*
X31404Y-26683D01*
X31472Y-26849D01*
X31599Y-26975D01*
X31764Y-27044D01*
X31840Y-27044D01*
X31717Y-27050D01*
X31566Y-27113D01*
X31539Y-27208D01*
X31854Y-27523D01*
X32169Y-27208D01*
X32142Y-27113D01*
X31946Y-27043D01*
X32108Y-26976D01*
X32235Y-26849D01*
X32304Y-26684D01*
X32304Y-26505D01*
X32236Y-26339D01*
X32109Y-26213D01*
X31944Y-26144D01*
X31765Y-26144D01*
X31603Y-26211D01*
X31554Y-26161D01*
X31554Y-25930D01*
X31599Y-25975D01*
X31764Y-26044D01*
X31943Y-26044D01*
X32108Y-25976D01*
X32159Y-25926D01*
X32159Y-26149D01*
X32174Y-26225D01*
X32217Y-26290D01*
X32412Y-26485D01*
X32404Y-26504D01*
X32404Y-26683D01*
X32472Y-26849D01*
X32599Y-26975D01*
X32764Y-27044D01*
X32840Y-27044D01*
X32717Y-27050D01*
X32566Y-27113D01*
X32539Y-27208D01*
X32854Y-27523D01*
X33169Y-27208D01*
X33142Y-27113D01*
X32946Y-27043D01*
X33108Y-26976D01*
X33235Y-26849D01*
X33304Y-26684D01*
X33304Y-26505D01*
X33236Y-26339D01*
X33109Y-26213D01*
X32944Y-26144D01*
X32765Y-26144D01*
X32674Y-26181D01*
X32559Y-26066D01*
X32559Y-25935D01*
X32599Y-25975D01*
X32764Y-26044D01*
X32943Y-26044D01*
X33108Y-25976D01*
X33235Y-25849D01*
X33304Y-25684D01*
X33304Y-25505D01*
X33245Y-25362D01*
X33800Y-24807D01*
X33800Y-24807D01*
X33829Y-24764D01*
X33843Y-24743D01*
X33843Y-24743D01*
X33855Y-24686D01*
X33855Y-25507D01*
X33712Y-25649D01*
X33669Y-25714D01*
X33654Y-25791D01*
X33654Y-26190D01*
X33599Y-26212D01*
X33473Y-26339D01*
X33404Y-26504D01*
X33404Y-26683D01*
X33472Y-26849D01*
X33599Y-26975D01*
X33764Y-27044D01*
X33840Y-27044D01*
X33717Y-27050D01*
X33566Y-27113D01*
X33539Y-27208D01*
X33854Y-27523D01*
X34169Y-27208D01*
X34142Y-27113D01*
X33946Y-27043D01*
X34108Y-26976D01*
X34235Y-26849D01*
X34304Y-26684D01*
X34304Y-26505D01*
X34236Y-26339D01*
X34109Y-26213D01*
X34054Y-26190D01*
X34054Y-25874D01*
X34196Y-25731D01*
X34196Y-25731D01*
X34225Y-25688D01*
X34239Y-25667D01*
X34239Y-25667D01*
X34255Y-25590D01*
X34255Y-25590D01*
X34255Y-21387D01*
X34316Y-21388D01*
X34435Y-21338D01*
X34527Y-21247D01*
X34576Y-21127D01*
X34577Y-20998D01*
X34527Y-20879D01*
X34436Y-20787D01*
X34316Y-20738D01*
X34187Y-20737D01*
X34068Y-20787D01*
X33976Y-20878D01*
X33927Y-20998D01*
X33926Y-21105D01*
X33913Y-21118D01*
X33870Y-21183D01*
X33859Y-21240D01*
X33859Y-20749D01*
X34495Y-20112D01*
X34539Y-20047D01*
X34539Y-20047D01*
X34554Y-19971D01*
X34554Y-19930D01*
X34599Y-19975D01*
X34764Y-20044D01*
X34943Y-20044D01*
X35108Y-19976D01*
X35154Y-19930D01*
X35154Y-20011D01*
X34712Y-20453D01*
X34669Y-20517D01*
X34654Y-20594D01*
X34654Y-26190D01*
X34599Y-26212D01*
X34473Y-26339D01*
X34404Y-26504D01*
X34404Y-26683D01*
X34472Y-26849D01*
X34599Y-26975D01*
X34764Y-27044D01*
X34840Y-27044D01*
X34717Y-27050D01*
X34566Y-27113D01*
X34539Y-27208D01*
X34854Y-27523D01*
X35169Y-27208D01*
X35142Y-27113D01*
X34946Y-27043D01*
X35108Y-26976D01*
X35235Y-26849D01*
X35304Y-26684D01*
X35304Y-26505D01*
X35236Y-26339D01*
X35109Y-26213D01*
X35054Y-26190D01*
X35054Y-20677D01*
X35495Y-20235D01*
X35539Y-20171D01*
X35539Y-20171D01*
X35541Y-20158D01*
X35554Y-20094D01*
X35554Y-20094D01*
X35554Y-19930D01*
X35599Y-19975D01*
X35654Y-19998D01*
X35654Y-26190D01*
X35599Y-26212D01*
X35473Y-26339D01*
X35404Y-26504D01*
X35404Y-26683D01*
X35472Y-26849D01*
X35599Y-26975D01*
X35764Y-27044D01*
X35840Y-27044D01*
X35717Y-27050D01*
X35566Y-27113D01*
X35539Y-27208D01*
X35854Y-27523D01*
X36169Y-27208D01*
X36142Y-27113D01*
X35946Y-27043D01*
X36108Y-26976D01*
X36235Y-26849D01*
X36304Y-26684D01*
X36304Y-26505D01*
X36304Y-27297D01*
X36240Y-27279D01*
X35925Y-27594D01*
X36240Y-27909D01*
X36335Y-27882D01*
X36352Y-27833D01*
X36373Y-27882D01*
X36468Y-27909D01*
X36783Y-27594D01*
X36783Y-27735D01*
X36539Y-27980D01*
X36566Y-28075D01*
X36759Y-28144D01*
X36524Y-28144D01*
X36469Y-28167D01*
X36427Y-28209D01*
X36404Y-28264D01*
X36404Y-28324D01*
X36404Y-28924D01*
X36427Y-28979D01*
X36469Y-29021D01*
X36524Y-29044D01*
X36584Y-29044D01*
X37184Y-29044D01*
X37239Y-29021D01*
X37281Y-28979D01*
X37304Y-28924D01*
X37304Y-28864D01*
X37304Y-30438D01*
X37131Y-30611D01*
X37131Y-30530D01*
X37190Y-30471D01*
X37258Y-30306D01*
X37259Y-30127D01*
X37190Y-29961D01*
X37064Y-29835D01*
X36898Y-29766D01*
X36719Y-29766D01*
X36554Y-29834D01*
X36427Y-29961D01*
X36359Y-30126D01*
X36358Y-30305D01*
X36427Y-30471D01*
X36553Y-30597D01*
X36719Y-30666D01*
X36731Y-30666D01*
X36731Y-30855D01*
X36304Y-30428D01*
X36304Y-28864D01*
X36304Y-28264D01*
X36281Y-28209D01*
X36239Y-28167D01*
X36184Y-28144D01*
X36124Y-28144D01*
X35868Y-28144D01*
X35991Y-28138D01*
X36142Y-28075D01*
X36169Y-27980D01*
X35854Y-27665D01*
X35783Y-27735D01*
X35783Y-27594D01*
X35468Y-27279D01*
X35373Y-27306D01*
X35355Y-27355D01*
X35335Y-27306D01*
X35240Y-27279D01*
X34925Y-27594D01*
X35240Y-27909D01*
X35335Y-27882D01*
X35352Y-27833D01*
X35373Y-27882D01*
X35468Y-27909D01*
X35783Y-27594D01*
X35783Y-27735D01*
X35539Y-27980D01*
X35566Y-28075D01*
X35759Y-28144D01*
X35524Y-28144D01*
X35469Y-28167D01*
X35427Y-28209D01*
X35404Y-28264D01*
X35404Y-28324D01*
X35404Y-28924D01*
X35427Y-28979D01*
X35469Y-29021D01*
X35524Y-29044D01*
X35584Y-29044D01*
X36184Y-29044D01*
X36239Y-29021D01*
X36281Y-28979D01*
X36304Y-28924D01*
X36304Y-28864D01*
X36304Y-30428D01*
X36236Y-30360D01*
X36258Y-30306D01*
X36259Y-30127D01*
X36190Y-29961D01*
X36064Y-29835D01*
X35898Y-29766D01*
X35719Y-29766D01*
X35554Y-29834D01*
X35427Y-29961D01*
X35359Y-30126D01*
X35358Y-30305D01*
X35427Y-30471D01*
X35547Y-30591D01*
X35466Y-30591D01*
X35304Y-30428D01*
X35304Y-28864D01*
X35304Y-28264D01*
X35281Y-28209D01*
X35239Y-28167D01*
X35184Y-28144D01*
X35124Y-28144D01*
X34868Y-28144D01*
X34991Y-28138D01*
X35142Y-28075D01*
X35169Y-27980D01*
X34854Y-27665D01*
X34783Y-27735D01*
X34783Y-27594D01*
X34468Y-27279D01*
X34373Y-27306D01*
X34355Y-27355D01*
X34335Y-27306D01*
X34240Y-27279D01*
X33925Y-27594D01*
X34240Y-27909D01*
X34335Y-27882D01*
X34352Y-27833D01*
X34373Y-27882D01*
X34468Y-27909D01*
X34783Y-27594D01*
X34783Y-27735D01*
X34539Y-27980D01*
X34566Y-28075D01*
X34759Y-28144D01*
X34524Y-28144D01*
X34469Y-28167D01*
X34427Y-28209D01*
X34404Y-28264D01*
X34404Y-28324D01*
X34404Y-28924D01*
X34427Y-28979D01*
X34469Y-29021D01*
X34524Y-29044D01*
X34584Y-29044D01*
X35184Y-29044D01*
X35239Y-29021D01*
X35281Y-28979D01*
X35304Y-28924D01*
X35304Y-28864D01*
X35304Y-30428D01*
X35236Y-30360D01*
X35258Y-30306D01*
X35259Y-30127D01*
X35190Y-29961D01*
X35064Y-29835D01*
X34898Y-29766D01*
X34719Y-29766D01*
X34554Y-29834D01*
X34427Y-29961D01*
X34359Y-30126D01*
X34358Y-30305D01*
X34427Y-30471D01*
X34553Y-30597D01*
X34719Y-30666D01*
X34898Y-30666D01*
X34953Y-30643D01*
X35126Y-30816D01*
X34691Y-30816D01*
X34304Y-30428D01*
X34304Y-28864D01*
X34304Y-28264D01*
X34281Y-28209D01*
X34239Y-28167D01*
X34184Y-28144D01*
X34124Y-28144D01*
X33868Y-28144D01*
X33991Y-28138D01*
X34142Y-28075D01*
X34169Y-27980D01*
X33854Y-27665D01*
X33783Y-27735D01*
X33783Y-27594D01*
X33468Y-27279D01*
X33373Y-27306D01*
X33355Y-27355D01*
X33335Y-27306D01*
X33240Y-27279D01*
X32925Y-27594D01*
X33240Y-27909D01*
X33335Y-27882D01*
X33352Y-27833D01*
X33373Y-27882D01*
X33468Y-27909D01*
X33783Y-27594D01*
X33783Y-27735D01*
X33539Y-27980D01*
X33566Y-28075D01*
X33759Y-28144D01*
X33524Y-28144D01*
X33469Y-28167D01*
X33427Y-28209D01*
X33404Y-28264D01*
X33404Y-28324D01*
X33404Y-28924D01*
X33427Y-28979D01*
X33469Y-29021D01*
X33524Y-29044D01*
X33584Y-29044D01*
X34184Y-29044D01*
X34239Y-29021D01*
X34281Y-28979D01*
X34304Y-28924D01*
X34304Y-28864D01*
X34304Y-30428D01*
X34236Y-30360D01*
X34258Y-30306D01*
X34259Y-30127D01*
X34190Y-29961D01*
X34064Y-29835D01*
X33898Y-29766D01*
X33719Y-29766D01*
X33554Y-29834D01*
X33427Y-29961D01*
X33359Y-30126D01*
X33358Y-30305D01*
X33427Y-30471D01*
X33553Y-30597D01*
X33719Y-30666D01*
X33898Y-30666D01*
X33953Y-30643D01*
X34467Y-31157D01*
X34467Y-31157D01*
X34510Y-31186D01*
X34532Y-31201D01*
X34532Y-31201D01*
X34609Y-31216D01*
X34609Y-31216D01*
X35751Y-31216D01*
X35963Y-31428D01*
X35963Y-31590D01*
X35932Y-31621D01*
X35932Y-32064D01*
X35956Y-32064D01*
X35956Y-32164D01*
X35932Y-32164D01*
X35932Y-32606D01*
X35994Y-32669D01*
X36006Y-32669D01*
X36098Y-32631D01*
X36160Y-32569D01*
X36242Y-32569D01*
X36291Y-32549D01*
X36340Y-32569D01*
X36399Y-32569D01*
X36498Y-32569D01*
X36547Y-32549D01*
X36596Y-32569D01*
X36655Y-32569D01*
X36754Y-32569D01*
X36803Y-32549D01*
X36851Y-32569D01*
X36911Y-32569D01*
X37010Y-32569D01*
X37059Y-32549D01*
X37107Y-32569D01*
X37167Y-32569D01*
X37265Y-32569D01*
X37315Y-32549D01*
X37363Y-32569D01*
X37423Y-32569D01*
X37521Y-32569D01*
X37570Y-32549D01*
X37619Y-32569D01*
X37679Y-32569D01*
X37701Y-32569D01*
X37764Y-32631D01*
X37856Y-32669D01*
X37867Y-32669D01*
X37930Y-32606D01*
X37930Y-32164D01*
X37905Y-32164D01*
X37905Y-32064D01*
X37930Y-32064D01*
X37930Y-31621D01*
X37898Y-31590D01*
X37898Y-31459D01*
X38191Y-31166D01*
X39509Y-31166D01*
X39585Y-31151D01*
X39650Y-31107D01*
X39950Y-30807D01*
X39950Y-30807D01*
X39979Y-30764D01*
X39993Y-30743D01*
X39993Y-30743D01*
X40009Y-30666D01*
X40009Y-30666D01*
X40009Y-30620D01*
X40063Y-30598D01*
X40190Y-30471D01*
X40258Y-30306D01*
X40259Y-30127D01*
X40259Y-31914D01*
X38409Y-31914D01*
X38409Y-31779D01*
X38387Y-31724D01*
X38344Y-31681D01*
X38289Y-31659D01*
X38230Y-31659D01*
X38207Y-31659D01*
X38145Y-31596D01*
X38053Y-31559D01*
X38041Y-31559D01*
X37979Y-31621D01*
X37979Y-32064D01*
X38003Y-32064D01*
X38003Y-32164D01*
X37979Y-32164D01*
X37979Y-32606D01*
X38041Y-32669D01*
X38053Y-32669D01*
X38145Y-32631D01*
X38207Y-32569D01*
X38289Y-32569D01*
X38344Y-32546D01*
X38386Y-32504D01*
X38409Y-32449D01*
X38409Y-32389D01*
X38409Y-32314D01*
X40386Y-32314D01*
X40462Y-32298D01*
X40527Y-32255D01*
X40950Y-31832D01*
X40993Y-31768D01*
X40993Y-31768D01*
X40996Y-31755D01*
X41009Y-31691D01*
X41009Y-31691D01*
X41009Y-30666D01*
X41138Y-30666D01*
X41193Y-30643D01*
X41236Y-30601D01*
X41259Y-30546D01*
X41259Y-30486D01*
X41259Y-33224D01*
X35882Y-33260D01*
X35882Y-32606D01*
X35882Y-32164D01*
X35882Y-32064D01*
X35882Y-31621D01*
X35820Y-31559D01*
X35808Y-31559D01*
X35716Y-31596D01*
X35646Y-31667D01*
X35608Y-31759D01*
X35608Y-31858D01*
X35608Y-32001D01*
X35670Y-32064D01*
X35882Y-32064D01*
X35882Y-32164D01*
X35670Y-32164D01*
X35608Y-32226D01*
X35608Y-32369D01*
X35608Y-32469D01*
X35646Y-32561D01*
X35716Y-32631D01*
X35808Y-32669D01*
X35820Y-32669D01*
X35882Y-32606D01*
X35882Y-33260D01*
X35159Y-33265D01*
X35159Y-32892D01*
X35159Y-32441D01*
X35159Y-32341D01*
X35120Y-32249D01*
X35050Y-32179D01*
X34958Y-32141D01*
X34846Y-32141D01*
X34784Y-32204D01*
X34784Y-32616D01*
X35096Y-32616D01*
X35159Y-32554D01*
X35159Y-32441D01*
X35159Y-32892D01*
X35159Y-32779D01*
X35096Y-32716D01*
X34784Y-32716D01*
X34784Y-33129D01*
X34846Y-33191D01*
X34958Y-33191D01*
X35050Y-33153D01*
X35120Y-33083D01*
X35159Y-32991D01*
X35159Y-32892D01*
X35159Y-33265D01*
X34684Y-33268D01*
X34684Y-33129D01*
X34684Y-32716D01*
X34676Y-32716D01*
X34676Y-32616D01*
X34684Y-32616D01*
X34684Y-32204D01*
X34621Y-32141D01*
X34509Y-32141D01*
X34417Y-32179D01*
X34347Y-32249D01*
X34309Y-32341D01*
X34309Y-32361D01*
X34286Y-32306D01*
X34244Y-32264D01*
X34189Y-32241D01*
X34129Y-32241D01*
X33779Y-32241D01*
X33724Y-32264D01*
X33681Y-32306D01*
X33659Y-32361D01*
X33659Y-32366D01*
X33598Y-32341D01*
X33469Y-32341D01*
X33350Y-32390D01*
X33304Y-32436D01*
X33304Y-28864D01*
X33304Y-28264D01*
X33281Y-28209D01*
X33239Y-28167D01*
X33184Y-28144D01*
X33124Y-28144D01*
X32868Y-28144D01*
X32991Y-28138D01*
X33142Y-28075D01*
X33169Y-27980D01*
X32854Y-27665D01*
X32783Y-27735D01*
X32783Y-27594D01*
X32468Y-27279D01*
X32373Y-27306D01*
X32355Y-27355D01*
X32335Y-27306D01*
X32240Y-27279D01*
X31925Y-27594D01*
X32240Y-27909D01*
X32335Y-27882D01*
X32352Y-27833D01*
X32373Y-27882D01*
X32468Y-27909D01*
X32783Y-27594D01*
X32783Y-27735D01*
X32539Y-27980D01*
X32566Y-28075D01*
X32759Y-28144D01*
X32524Y-28144D01*
X32469Y-28167D01*
X32427Y-28209D01*
X32404Y-28264D01*
X32404Y-28324D01*
X32404Y-28924D01*
X32427Y-28979D01*
X32469Y-29021D01*
X32524Y-29044D01*
X32584Y-29044D01*
X33184Y-29044D01*
X33239Y-29021D01*
X33281Y-28979D01*
X33304Y-28924D01*
X33304Y-28864D01*
X33304Y-32436D01*
X33258Y-32482D01*
X33209Y-32601D01*
X33208Y-32730D01*
X33258Y-32850D01*
X33349Y-32941D01*
X33469Y-32991D01*
X33598Y-32991D01*
X33659Y-32966D01*
X33659Y-32971D01*
X33681Y-33026D01*
X33723Y-33068D01*
X33779Y-33091D01*
X33838Y-33091D01*
X34188Y-33091D01*
X34243Y-33068D01*
X34286Y-33026D01*
X34309Y-32971D01*
X34309Y-32941D01*
X34309Y-32991D01*
X34347Y-33083D01*
X34417Y-33153D01*
X34509Y-33191D01*
X34621Y-33191D01*
X34684Y-33129D01*
X34684Y-33268D01*
X32304Y-33284D01*
X32304Y-28864D01*
X32304Y-28264D01*
X32281Y-28209D01*
X32239Y-28167D01*
X32184Y-28144D01*
X32124Y-28144D01*
X31868Y-28144D01*
X31991Y-28138D01*
X32142Y-28075D01*
X32169Y-27980D01*
X31854Y-27665D01*
X31783Y-27735D01*
X31783Y-27594D01*
X31468Y-27279D01*
X31373Y-27306D01*
X31299Y-27512D01*
X31310Y-27731D01*
X31373Y-27882D01*
X31468Y-27909D01*
X31783Y-27594D01*
X31783Y-27735D01*
X31539Y-27980D01*
X31566Y-28075D01*
X31759Y-28144D01*
X31524Y-28144D01*
X31469Y-28167D01*
X31427Y-28209D01*
X31404Y-28264D01*
X31404Y-28324D01*
X31404Y-28924D01*
X31427Y-28979D01*
X31469Y-29021D01*
X31524Y-29044D01*
X31584Y-29044D01*
X32184Y-29044D01*
X32239Y-29021D01*
X32281Y-28979D01*
X32304Y-28924D01*
X32304Y-28864D01*
X32304Y-33284D01*
X30659Y-33295D01*
X30659Y-23054D01*
X30659Y-22616D01*
X30659Y-22516D01*
X30659Y-22079D01*
X30596Y-22016D01*
X30358Y-22016D01*
X30259Y-22016D01*
X30167Y-22054D01*
X30096Y-22125D01*
X30059Y-22217D01*
X30059Y-22454D01*
X30121Y-22516D01*
X30659Y-22516D01*
X30659Y-22616D01*
X30121Y-22616D01*
X30059Y-22679D01*
X30059Y-22916D01*
X30096Y-23007D01*
X30167Y-23078D01*
X30259Y-23116D01*
X30358Y-23116D01*
X30596Y-23116D01*
X30659Y-23054D01*
X30659Y-33295D01*
X29884Y-33300D01*
X29884Y-22836D01*
X29884Y-22236D01*
X29861Y-22181D01*
X29819Y-22139D01*
X29764Y-22116D01*
X29704Y-22116D01*
X28904Y-22116D01*
X28849Y-22139D01*
X28806Y-22181D01*
X28784Y-22236D01*
X28784Y-22296D01*
X28784Y-22896D01*
X28806Y-22951D01*
X28848Y-22993D01*
X28904Y-23016D01*
X28963Y-23016D01*
X29059Y-23016D01*
X29059Y-23881D01*
X29058Y-23882D01*
X29009Y-24001D01*
X29008Y-24130D01*
X29058Y-24250D01*
X29149Y-24341D01*
X29269Y-24391D01*
X29398Y-24391D01*
X29517Y-24342D01*
X29609Y-24250D01*
X29658Y-24131D01*
X29659Y-24002D01*
X29609Y-23882D01*
X29609Y-23881D01*
X29609Y-23016D01*
X29763Y-23016D01*
X29818Y-22993D01*
X29861Y-22951D01*
X29884Y-22896D01*
X29884Y-22836D01*
X29884Y-33300D01*
X27728Y-33315D01*
X27728Y-21039D01*
X27765Y-21128D01*
X27945Y-21309D01*
X28181Y-21406D01*
X28435Y-21407D01*
X28671Y-21309D01*
X28784Y-21197D01*
X28784Y-21596D01*
X28806Y-21651D01*
X28848Y-21693D01*
X28904Y-21716D01*
X28963Y-21716D01*
X29763Y-21716D01*
X29818Y-21693D01*
X29861Y-21651D01*
X29884Y-21596D01*
X29884Y-21536D01*
X29884Y-20936D01*
X29861Y-20881D01*
X29822Y-20842D01*
X30353Y-20310D01*
X30413Y-20221D01*
X30413Y-20221D01*
X30434Y-20116D01*
X30434Y-19986D01*
X30469Y-20021D01*
X30524Y-20044D01*
X30579Y-20044D01*
X30579Y-20816D01*
X30279Y-20816D01*
X30224Y-20839D01*
X30181Y-20881D01*
X30159Y-20936D01*
X30159Y-20996D01*
X30159Y-21596D01*
X30181Y-21651D01*
X30223Y-21693D01*
X30279Y-21716D01*
X30338Y-21716D01*
X31138Y-21716D01*
X31193Y-21693D01*
X31236Y-21651D01*
X31259Y-21596D01*
X31259Y-21536D01*
X31259Y-20936D01*
X31236Y-20881D01*
X31194Y-20839D01*
X31139Y-20816D01*
X31129Y-20816D01*
X31129Y-20044D01*
X31184Y-20044D01*
X31239Y-20021D01*
X31281Y-19979D01*
X31304Y-19924D01*
X31304Y-19864D01*
X31304Y-19264D01*
X31281Y-19209D01*
X31239Y-19167D01*
X31184Y-19144D01*
X31124Y-19144D01*
X30524Y-19144D01*
X30516Y-19147D01*
X30662Y-19002D01*
X30764Y-19044D01*
X30943Y-19044D01*
X31108Y-18976D01*
X31215Y-18869D01*
X31493Y-18869D01*
X31599Y-18975D01*
X31764Y-19044D01*
X31943Y-19044D01*
X32108Y-18976D01*
X32235Y-18849D01*
X32304Y-18684D01*
X32304Y-18505D01*
X32236Y-18339D01*
X32109Y-18213D01*
X31944Y-18144D01*
X31765Y-18144D01*
X31599Y-18212D01*
X31492Y-18319D01*
X31215Y-18319D01*
X31109Y-18213D01*
X30944Y-18144D01*
X30765Y-18144D01*
X30599Y-18212D01*
X30473Y-18339D01*
X30420Y-18466D01*
X30009Y-18877D01*
X30009Y-17886D01*
X50684Y-17886D01*
X50689Y-20265D01*
X52979Y-20290D01*
X52979Y-37361D01*
G54D10*
G36*
X42058Y-33591D02*
X42034Y-39614D01*
X41613Y-39614D01*
X41613Y-37798D01*
X41602Y-37579D01*
X41540Y-37428D01*
X41509Y-37419D01*
X41509Y-36627D01*
X41440Y-36461D01*
X41314Y-36335D01*
X41259Y-36312D01*
X41259Y-35376D01*
X41246Y-35312D01*
X41243Y-35299D01*
X41243Y-35299D01*
X41200Y-35235D01*
X40142Y-34177D01*
X40077Y-34134D01*
X40001Y-34118D01*
X38409Y-34118D01*
X38409Y-33984D01*
X38387Y-33928D01*
X38344Y-33886D01*
X38289Y-33863D01*
X38230Y-33863D01*
X38207Y-33863D01*
X38145Y-33801D01*
X38053Y-33763D01*
X38041Y-33763D01*
X37979Y-33826D01*
X37979Y-34268D01*
X38003Y-34268D01*
X38003Y-34368D01*
X37979Y-34368D01*
X37979Y-34811D01*
X38041Y-34874D01*
X38053Y-34874D01*
X38145Y-34836D01*
X38207Y-34774D01*
X38289Y-34774D01*
X38344Y-34751D01*
X38386Y-34709D01*
X38409Y-34653D01*
X38409Y-34594D01*
X38409Y-34518D01*
X39918Y-34518D01*
X40859Y-35459D01*
X40859Y-36312D01*
X40804Y-36334D01*
X40677Y-36461D01*
X40609Y-36626D01*
X40608Y-36805D01*
X40677Y-36971D01*
X40803Y-37097D01*
X40969Y-37166D01*
X41045Y-37166D01*
X40922Y-37172D01*
X40771Y-37235D01*
X40743Y-37330D01*
X41059Y-37645D01*
X41374Y-37330D01*
X41346Y-37235D01*
X41151Y-37165D01*
X41313Y-37098D01*
X41440Y-36971D01*
X41508Y-36806D01*
X41509Y-36627D01*
X41509Y-37419D01*
X41444Y-37401D01*
X41129Y-37716D01*
X41444Y-38031D01*
X41540Y-38004D01*
X41613Y-37798D01*
X41613Y-39614D01*
X41509Y-39614D01*
X41509Y-38986D01*
X41509Y-38386D01*
X41486Y-38331D01*
X41444Y-38289D01*
X41389Y-38266D01*
X41329Y-38266D01*
X41073Y-38266D01*
X41195Y-38260D01*
X41346Y-38197D01*
X41374Y-38102D01*
X41059Y-37787D01*
X40988Y-37857D01*
X40988Y-37716D01*
X40673Y-37401D01*
X40577Y-37428D01*
X40560Y-37477D01*
X40540Y-37428D01*
X40509Y-37419D01*
X40509Y-36627D01*
X40440Y-36461D01*
X40314Y-36335D01*
X40259Y-36312D01*
X40259Y-36236D01*
X40246Y-36172D01*
X40243Y-36159D01*
X40243Y-36159D01*
X40200Y-36095D01*
X39455Y-35350D01*
X39390Y-35306D01*
X39314Y-35291D01*
X38016Y-35291D01*
X37898Y-35173D01*
X37898Y-34842D01*
X37930Y-34811D01*
X37930Y-34368D01*
X37905Y-34368D01*
X37905Y-34268D01*
X37930Y-34268D01*
X37930Y-33826D01*
X37867Y-33763D01*
X37856Y-33763D01*
X37764Y-33801D01*
X37701Y-33863D01*
X37619Y-33863D01*
X37570Y-33884D01*
X37522Y-33863D01*
X37462Y-33863D01*
X37363Y-33863D01*
X37314Y-33884D01*
X37266Y-33863D01*
X37206Y-33863D01*
X37108Y-33863D01*
X37059Y-33884D01*
X37010Y-33863D01*
X36950Y-33863D01*
X36852Y-33863D01*
X36803Y-33884D01*
X36754Y-33863D01*
X36694Y-33863D01*
X36596Y-33863D01*
X36547Y-33884D01*
X36498Y-33863D01*
X36438Y-33863D01*
X36340Y-33863D01*
X36291Y-33884D01*
X36242Y-33863D01*
X36182Y-33863D01*
X36084Y-33863D01*
X36030Y-33886D01*
X35976Y-33863D01*
X35917Y-33863D01*
X35818Y-33863D01*
X35763Y-33886D01*
X35721Y-33928D01*
X35698Y-33983D01*
X35698Y-34001D01*
X35673Y-33991D01*
X35544Y-33991D01*
X35425Y-34040D01*
X35333Y-34132D01*
X35284Y-34251D01*
X35283Y-34380D01*
X35333Y-34500D01*
X35424Y-34591D01*
X35544Y-34641D01*
X35673Y-34641D01*
X35698Y-34631D01*
X35698Y-34653D01*
X35721Y-34708D01*
X35763Y-34751D01*
X35818Y-34773D01*
X35878Y-34774D01*
X35963Y-34774D01*
X35963Y-34979D01*
X35276Y-35666D01*
X34909Y-35666D01*
X34832Y-35681D01*
X34767Y-35725D01*
X34203Y-36289D01*
X34148Y-36266D01*
X33969Y-36266D01*
X33804Y-36334D01*
X33677Y-36461D01*
X33609Y-36626D01*
X33608Y-36805D01*
X33677Y-36971D01*
X33803Y-37097D01*
X33969Y-37166D01*
X34045Y-37166D01*
X33922Y-37172D01*
X33771Y-37235D01*
X33743Y-37330D01*
X34059Y-37645D01*
X34374Y-37330D01*
X34346Y-37235D01*
X34151Y-37165D01*
X34313Y-37098D01*
X34440Y-36971D01*
X34508Y-36806D01*
X34509Y-36627D01*
X34486Y-36572D01*
X34991Y-36066D01*
X35269Y-36066D01*
X35269Y-36223D01*
X35203Y-36289D01*
X35148Y-36266D01*
X34969Y-36266D01*
X34804Y-36334D01*
X34677Y-36461D01*
X34609Y-36626D01*
X34608Y-36805D01*
X34677Y-36971D01*
X34803Y-37097D01*
X34969Y-37166D01*
X35045Y-37166D01*
X34922Y-37172D01*
X34771Y-37235D01*
X34743Y-37330D01*
X35059Y-37645D01*
X35374Y-37330D01*
X35346Y-37235D01*
X35151Y-37165D01*
X35313Y-37098D01*
X35440Y-36971D01*
X35508Y-36806D01*
X35509Y-36627D01*
X35486Y-36572D01*
X35610Y-36447D01*
X35653Y-36383D01*
X35669Y-36306D01*
X35669Y-36139D01*
X36475Y-35333D01*
X36475Y-35367D01*
X35917Y-35925D01*
X35874Y-35989D01*
X35859Y-36066D01*
X35859Y-36312D01*
X35804Y-36334D01*
X35677Y-36461D01*
X35609Y-36626D01*
X35608Y-36805D01*
X35677Y-36971D01*
X35803Y-37097D01*
X35969Y-37166D01*
X36045Y-37166D01*
X35922Y-37172D01*
X35771Y-37235D01*
X35743Y-37330D01*
X36059Y-37645D01*
X36374Y-37330D01*
X36346Y-37235D01*
X36151Y-37165D01*
X36313Y-37098D01*
X36440Y-36971D01*
X36508Y-36806D01*
X36509Y-36627D01*
X36440Y-36461D01*
X36314Y-36335D01*
X36259Y-36312D01*
X36259Y-36149D01*
X36731Y-35677D01*
X36731Y-36408D01*
X36677Y-36461D01*
X36609Y-36626D01*
X36608Y-36805D01*
X36677Y-36971D01*
X36803Y-37097D01*
X36969Y-37166D01*
X37045Y-37166D01*
X36922Y-37172D01*
X36771Y-37235D01*
X36743Y-37330D01*
X37059Y-37645D01*
X37374Y-37330D01*
X37346Y-37235D01*
X37151Y-37165D01*
X37313Y-37098D01*
X37440Y-36971D01*
X37508Y-36806D01*
X37509Y-36627D01*
X37440Y-36461D01*
X37314Y-36335D01*
X37148Y-36266D01*
X37131Y-36266D01*
X37131Y-36071D01*
X37631Y-36572D01*
X37609Y-36626D01*
X37608Y-36805D01*
X37677Y-36971D01*
X37803Y-37097D01*
X37969Y-37166D01*
X38045Y-37166D01*
X37922Y-37172D01*
X37771Y-37235D01*
X37743Y-37330D01*
X38059Y-37645D01*
X38374Y-37330D01*
X38346Y-37235D01*
X38151Y-37165D01*
X38313Y-37098D01*
X38440Y-36971D01*
X38508Y-36806D01*
X38509Y-36627D01*
X38440Y-36461D01*
X38314Y-36335D01*
X38148Y-36266D01*
X37969Y-36266D01*
X37914Y-36289D01*
X37387Y-35761D01*
X37387Y-35627D01*
X37692Y-35932D01*
X37757Y-35976D01*
X37757Y-35976D01*
X37834Y-35991D01*
X38676Y-35991D01*
X38859Y-36174D01*
X38859Y-36312D01*
X38804Y-36334D01*
X38677Y-36461D01*
X38609Y-36626D01*
X38608Y-36805D01*
X38677Y-36971D01*
X38803Y-37097D01*
X38969Y-37166D01*
X39045Y-37166D01*
X38922Y-37172D01*
X38771Y-37235D01*
X38743Y-37330D01*
X39059Y-37645D01*
X39374Y-37330D01*
X39346Y-37235D01*
X39151Y-37165D01*
X39313Y-37098D01*
X39440Y-36971D01*
X39508Y-36806D01*
X39509Y-36627D01*
X39440Y-36461D01*
X39314Y-36335D01*
X39259Y-36312D01*
X39259Y-36091D01*
X39259Y-36091D01*
X39243Y-36014D01*
X39243Y-36014D01*
X39229Y-35993D01*
X39200Y-35950D01*
X39200Y-35950D01*
X38941Y-35691D01*
X39231Y-35691D01*
X39854Y-36314D01*
X39804Y-36334D01*
X39677Y-36461D01*
X39609Y-36626D01*
X39608Y-36805D01*
X39677Y-36971D01*
X39803Y-37097D01*
X39969Y-37166D01*
X40045Y-37166D01*
X39922Y-37172D01*
X39771Y-37235D01*
X39743Y-37330D01*
X40059Y-37645D01*
X40374Y-37330D01*
X40346Y-37235D01*
X40151Y-37165D01*
X40313Y-37098D01*
X40440Y-36971D01*
X40508Y-36806D01*
X40509Y-36627D01*
X40509Y-37419D01*
X40444Y-37401D01*
X40129Y-37716D01*
X40444Y-38031D01*
X40540Y-38004D01*
X40557Y-37955D01*
X40577Y-38004D01*
X40673Y-38031D01*
X40988Y-37716D01*
X40988Y-37857D01*
X40743Y-38102D01*
X40771Y-38197D01*
X40963Y-38266D01*
X40729Y-38266D01*
X40674Y-38289D01*
X40631Y-38331D01*
X40609Y-38386D01*
X40609Y-38446D01*
X40609Y-39046D01*
X40631Y-39101D01*
X40673Y-39143D01*
X40729Y-39166D01*
X40788Y-39166D01*
X41388Y-39166D01*
X41443Y-39143D01*
X41486Y-39101D01*
X41509Y-39046D01*
X41509Y-38986D01*
X41509Y-39614D01*
X40509Y-39614D01*
X40509Y-38986D01*
X40509Y-38386D01*
X40486Y-38331D01*
X40444Y-38289D01*
X40389Y-38266D01*
X40329Y-38266D01*
X40073Y-38266D01*
X40195Y-38260D01*
X40346Y-38197D01*
X40374Y-38102D01*
X40059Y-37787D01*
X39988Y-37857D01*
X39988Y-37716D01*
X39673Y-37401D01*
X39577Y-37428D01*
X39560Y-37477D01*
X39540Y-37428D01*
X39444Y-37401D01*
X39129Y-37716D01*
X39444Y-38031D01*
X39540Y-38004D01*
X39557Y-37955D01*
X39577Y-38004D01*
X39673Y-38031D01*
X39988Y-37716D01*
X39988Y-37857D01*
X39743Y-38102D01*
X39771Y-38197D01*
X39963Y-38266D01*
X39729Y-38266D01*
X39674Y-38289D01*
X39631Y-38331D01*
X39609Y-38386D01*
X39609Y-38446D01*
X39609Y-39046D01*
X39631Y-39101D01*
X39673Y-39143D01*
X39729Y-39166D01*
X39788Y-39166D01*
X40388Y-39166D01*
X40443Y-39143D01*
X40486Y-39101D01*
X40509Y-39046D01*
X40509Y-38986D01*
X40509Y-39614D01*
X39509Y-39614D01*
X39509Y-38986D01*
X39509Y-38386D01*
X39486Y-38331D01*
X39444Y-38289D01*
X39389Y-38266D01*
X39329Y-38266D01*
X39073Y-38266D01*
X39195Y-38260D01*
X39346Y-38197D01*
X39374Y-38102D01*
X39059Y-37787D01*
X38988Y-37857D01*
X38988Y-37716D01*
X38673Y-37401D01*
X38577Y-37428D01*
X38560Y-37477D01*
X38540Y-37428D01*
X38444Y-37401D01*
X38129Y-37716D01*
X38444Y-38031D01*
X38540Y-38004D01*
X38557Y-37955D01*
X38577Y-38004D01*
X38673Y-38031D01*
X38988Y-37716D01*
X38988Y-37857D01*
X38743Y-38102D01*
X38771Y-38197D01*
X38963Y-38266D01*
X38729Y-38266D01*
X38674Y-38289D01*
X38631Y-38331D01*
X38609Y-38386D01*
X38609Y-38446D01*
X38609Y-39046D01*
X38631Y-39101D01*
X38673Y-39143D01*
X38729Y-39166D01*
X38788Y-39166D01*
X39388Y-39166D01*
X39443Y-39143D01*
X39486Y-39101D01*
X39509Y-39046D01*
X39509Y-38986D01*
X39509Y-39614D01*
X38509Y-39614D01*
X38509Y-38986D01*
X38509Y-38386D01*
X38486Y-38331D01*
X38444Y-38289D01*
X38389Y-38266D01*
X38329Y-38266D01*
X38073Y-38266D01*
X38195Y-38260D01*
X38346Y-38197D01*
X38374Y-38102D01*
X38059Y-37787D01*
X37988Y-37857D01*
X37988Y-37716D01*
X37673Y-37401D01*
X37577Y-37428D01*
X37560Y-37477D01*
X37540Y-37428D01*
X37444Y-37401D01*
X37129Y-37716D01*
X37444Y-38031D01*
X37540Y-38004D01*
X37557Y-37955D01*
X37577Y-38004D01*
X37673Y-38031D01*
X37988Y-37716D01*
X37988Y-37857D01*
X37743Y-38102D01*
X37771Y-38197D01*
X37963Y-38266D01*
X37729Y-38266D01*
X37674Y-38289D01*
X37631Y-38331D01*
X37609Y-38386D01*
X37609Y-38446D01*
X37609Y-39046D01*
X37631Y-39101D01*
X37673Y-39143D01*
X37729Y-39166D01*
X37788Y-39166D01*
X38388Y-39166D01*
X38443Y-39143D01*
X38486Y-39101D01*
X38509Y-39046D01*
X38509Y-38986D01*
X38509Y-39614D01*
X37509Y-39614D01*
X37509Y-38986D01*
X37509Y-38386D01*
X37486Y-38331D01*
X37444Y-38289D01*
X37389Y-38266D01*
X37329Y-38266D01*
X37073Y-38266D01*
X37195Y-38260D01*
X37346Y-38197D01*
X37374Y-38102D01*
X37059Y-37787D01*
X36988Y-37857D01*
X36988Y-37716D01*
X36673Y-37401D01*
X36577Y-37428D01*
X36560Y-37477D01*
X36540Y-37428D01*
X36444Y-37401D01*
X36129Y-37716D01*
X36444Y-38031D01*
X36540Y-38004D01*
X36557Y-37955D01*
X36577Y-38004D01*
X36673Y-38031D01*
X36988Y-37716D01*
X36988Y-37857D01*
X36743Y-38102D01*
X36771Y-38197D01*
X36963Y-38266D01*
X36729Y-38266D01*
X36674Y-38289D01*
X36631Y-38331D01*
X36609Y-38386D01*
X36609Y-38446D01*
X36609Y-39046D01*
X36631Y-39101D01*
X36673Y-39143D01*
X36729Y-39166D01*
X36788Y-39166D01*
X37388Y-39166D01*
X37443Y-39143D01*
X37486Y-39101D01*
X37509Y-39046D01*
X37509Y-38986D01*
X37509Y-39614D01*
X36509Y-39614D01*
X36509Y-38986D01*
X36509Y-38386D01*
X36486Y-38331D01*
X36444Y-38289D01*
X36389Y-38266D01*
X36329Y-38266D01*
X36073Y-38266D01*
X36195Y-38260D01*
X36346Y-38197D01*
X36374Y-38102D01*
X36059Y-37787D01*
X35988Y-37857D01*
X35988Y-37716D01*
X35673Y-37401D01*
X35577Y-37428D01*
X35560Y-37477D01*
X35540Y-37428D01*
X35444Y-37401D01*
X35129Y-37716D01*
X35444Y-38031D01*
X35540Y-38004D01*
X35557Y-37955D01*
X35577Y-38004D01*
X35673Y-38031D01*
X35988Y-37716D01*
X35988Y-37857D01*
X35743Y-38102D01*
X35771Y-38197D01*
X35963Y-38266D01*
X35729Y-38266D01*
X35674Y-38289D01*
X35631Y-38331D01*
X35609Y-38386D01*
X35609Y-38446D01*
X35609Y-39046D01*
X35631Y-39101D01*
X35673Y-39143D01*
X35729Y-39166D01*
X35788Y-39166D01*
X36388Y-39166D01*
X36443Y-39143D01*
X36486Y-39101D01*
X36509Y-39046D01*
X36509Y-38986D01*
X36509Y-39614D01*
X35509Y-39614D01*
X35509Y-38986D01*
X35509Y-38386D01*
X35486Y-38331D01*
X35444Y-38289D01*
X35389Y-38266D01*
X35329Y-38266D01*
X35073Y-38266D01*
X35195Y-38260D01*
X35346Y-38197D01*
X35374Y-38102D01*
X35059Y-37787D01*
X34988Y-37857D01*
X34988Y-37716D01*
X34673Y-37401D01*
X34577Y-37428D01*
X34560Y-37477D01*
X34540Y-37428D01*
X34444Y-37401D01*
X34129Y-37716D01*
X34444Y-38031D01*
X34540Y-38004D01*
X34557Y-37955D01*
X34577Y-38004D01*
X34673Y-38031D01*
X34988Y-37716D01*
X34988Y-37857D01*
X34743Y-38102D01*
X34771Y-38197D01*
X34963Y-38266D01*
X34729Y-38266D01*
X34674Y-38289D01*
X34631Y-38331D01*
X34609Y-38386D01*
X34609Y-38446D01*
X34609Y-39046D01*
X34631Y-39101D01*
X34673Y-39143D01*
X34729Y-39166D01*
X34788Y-39166D01*
X35388Y-39166D01*
X35443Y-39143D01*
X35486Y-39101D01*
X35509Y-39046D01*
X35509Y-38986D01*
X35509Y-39614D01*
X34509Y-39614D01*
X34509Y-38986D01*
X34509Y-38386D01*
X34486Y-38331D01*
X34444Y-38289D01*
X34389Y-38266D01*
X34329Y-38266D01*
X34073Y-38266D01*
X34195Y-38260D01*
X34346Y-38197D01*
X34374Y-38102D01*
X34059Y-37787D01*
X33988Y-37857D01*
X33988Y-37716D01*
X33673Y-37401D01*
X33577Y-37428D01*
X33504Y-37634D01*
X33515Y-37853D01*
X33577Y-38004D01*
X33673Y-38031D01*
X33988Y-37716D01*
X33988Y-37857D01*
X33743Y-38102D01*
X33771Y-38197D01*
X33963Y-38266D01*
X33729Y-38266D01*
X33674Y-38289D01*
X33631Y-38331D01*
X33609Y-38386D01*
X33609Y-38446D01*
X33609Y-39046D01*
X33631Y-39101D01*
X33673Y-39143D01*
X33729Y-39166D01*
X33788Y-39166D01*
X34388Y-39166D01*
X34443Y-39143D01*
X34486Y-39101D01*
X34509Y-39046D01*
X34509Y-38986D01*
X34509Y-39614D01*
X32484Y-39614D01*
X32484Y-38116D01*
X32484Y-37667D01*
X32446Y-37575D01*
X32375Y-37504D01*
X32284Y-37466D01*
X32184Y-37466D01*
X32071Y-37466D01*
X32009Y-37529D01*
X32009Y-37841D01*
X32421Y-37841D01*
X32484Y-37779D01*
X32484Y-37667D01*
X32484Y-38116D01*
X32484Y-38004D01*
X32421Y-37941D01*
X32009Y-37941D01*
X32009Y-37949D01*
X31909Y-37949D01*
X31909Y-37941D01*
X31909Y-37841D01*
X31909Y-37529D01*
X31846Y-37466D01*
X31733Y-37466D01*
X31634Y-37466D01*
X31542Y-37504D01*
X31471Y-37575D01*
X31434Y-37667D01*
X31434Y-37779D01*
X31496Y-37841D01*
X31909Y-37841D01*
X31909Y-37941D01*
X31496Y-37941D01*
X31434Y-38004D01*
X31434Y-38116D01*
X31471Y-38207D01*
X31542Y-38278D01*
X31634Y-38316D01*
X31654Y-38316D01*
X31654Y-38316D01*
X31599Y-38339D01*
X31556Y-38381D01*
X31534Y-38436D01*
X31534Y-38496D01*
X31534Y-38846D01*
X31556Y-38901D01*
X31598Y-38943D01*
X31628Y-38955D01*
X31609Y-39001D01*
X31608Y-39130D01*
X31658Y-39250D01*
X31749Y-39341D01*
X31869Y-39391D01*
X31998Y-39391D01*
X32117Y-39342D01*
X32209Y-39250D01*
X32258Y-39131D01*
X32259Y-39002D01*
X32244Y-38966D01*
X32263Y-38966D01*
X32318Y-38943D01*
X32361Y-38901D01*
X32384Y-38846D01*
X32384Y-38786D01*
X32384Y-38436D01*
X32361Y-38381D01*
X32319Y-38339D01*
X32264Y-38316D01*
X32234Y-38316D01*
X32284Y-38316D01*
X32375Y-38278D01*
X32446Y-38207D01*
X32484Y-38116D01*
X32484Y-39614D01*
X30148Y-39614D01*
X30143Y-37406D01*
X27708Y-37406D01*
X27708Y-33641D01*
X42058Y-33591D01*
X42058Y-33591D01*
G37*
G54D22*
X42058Y-33591D02*
X42034Y-39614D01*
X41613Y-39614D01*
X41613Y-37798D01*
X41602Y-37579D01*
X41540Y-37428D01*
X41509Y-37419D01*
X41509Y-36627D01*
X41440Y-36461D01*
X41314Y-36335D01*
X41259Y-36312D01*
X41259Y-35376D01*
X41246Y-35312D01*
X41243Y-35299D01*
X41243Y-35299D01*
X41200Y-35235D01*
X40142Y-34177D01*
X40077Y-34134D01*
X40001Y-34118D01*
X38409Y-34118D01*
X38409Y-33984D01*
X38387Y-33928D01*
X38344Y-33886D01*
X38289Y-33863D01*
X38230Y-33863D01*
X38207Y-33863D01*
X38145Y-33801D01*
X38053Y-33763D01*
X38041Y-33763D01*
X37979Y-33826D01*
X37979Y-34268D01*
X38003Y-34268D01*
X38003Y-34368D01*
X37979Y-34368D01*
X37979Y-34811D01*
X38041Y-34874D01*
X38053Y-34874D01*
X38145Y-34836D01*
X38207Y-34774D01*
X38289Y-34774D01*
X38344Y-34751D01*
X38386Y-34709D01*
X38409Y-34653D01*
X38409Y-34594D01*
X38409Y-34518D01*
X39918Y-34518D01*
X40859Y-35459D01*
X40859Y-36312D01*
X40804Y-36334D01*
X40677Y-36461D01*
X40609Y-36626D01*
X40608Y-36805D01*
X40677Y-36971D01*
X40803Y-37097D01*
X40969Y-37166D01*
X41045Y-37166D01*
X40922Y-37172D01*
X40771Y-37235D01*
X40743Y-37330D01*
X41059Y-37645D01*
X41374Y-37330D01*
X41346Y-37235D01*
X41151Y-37165D01*
X41313Y-37098D01*
X41440Y-36971D01*
X41508Y-36806D01*
X41509Y-36627D01*
X41509Y-37419D01*
X41444Y-37401D01*
X41129Y-37716D01*
X41444Y-38031D01*
X41540Y-38004D01*
X41613Y-37798D01*
X41613Y-39614D01*
X41509Y-39614D01*
X41509Y-38986D01*
X41509Y-38386D01*
X41486Y-38331D01*
X41444Y-38289D01*
X41389Y-38266D01*
X41329Y-38266D01*
X41073Y-38266D01*
X41195Y-38260D01*
X41346Y-38197D01*
X41374Y-38102D01*
X41059Y-37787D01*
X40988Y-37857D01*
X40988Y-37716D01*
X40673Y-37401D01*
X40577Y-37428D01*
X40560Y-37477D01*
X40540Y-37428D01*
X40509Y-37419D01*
X40509Y-36627D01*
X40440Y-36461D01*
X40314Y-36335D01*
X40259Y-36312D01*
X40259Y-36236D01*
X40246Y-36172D01*
X40243Y-36159D01*
X40243Y-36159D01*
X40200Y-36095D01*
X39455Y-35350D01*
X39390Y-35306D01*
X39314Y-35291D01*
X38016Y-35291D01*
X37898Y-35173D01*
X37898Y-34842D01*
X37930Y-34811D01*
X37930Y-34368D01*
X37905Y-34368D01*
X37905Y-34268D01*
X37930Y-34268D01*
X37930Y-33826D01*
X37867Y-33763D01*
X37856Y-33763D01*
X37764Y-33801D01*
X37701Y-33863D01*
X37619Y-33863D01*
X37570Y-33884D01*
X37522Y-33863D01*
X37462Y-33863D01*
X37363Y-33863D01*
X37314Y-33884D01*
X37266Y-33863D01*
X37206Y-33863D01*
X37108Y-33863D01*
X37059Y-33884D01*
X37010Y-33863D01*
X36950Y-33863D01*
X36852Y-33863D01*
X36803Y-33884D01*
X36754Y-33863D01*
X36694Y-33863D01*
X36596Y-33863D01*
X36547Y-33884D01*
X36498Y-33863D01*
X36438Y-33863D01*
X36340Y-33863D01*
X36291Y-33884D01*
X36242Y-33863D01*
X36182Y-33863D01*
X36084Y-33863D01*
X36030Y-33886D01*
X35976Y-33863D01*
X35917Y-33863D01*
X35818Y-33863D01*
X35763Y-33886D01*
X35721Y-33928D01*
X35698Y-33983D01*
X35698Y-34001D01*
X35673Y-33991D01*
X35544Y-33991D01*
X35425Y-34040D01*
X35333Y-34132D01*
X35284Y-34251D01*
X35283Y-34380D01*
X35333Y-34500D01*
X35424Y-34591D01*
X35544Y-34641D01*
X35673Y-34641D01*
X35698Y-34631D01*
X35698Y-34653D01*
X35721Y-34708D01*
X35763Y-34751D01*
X35818Y-34773D01*
X35878Y-34774D01*
X35963Y-34774D01*
X35963Y-34979D01*
X35276Y-35666D01*
X34909Y-35666D01*
X34832Y-35681D01*
X34767Y-35725D01*
X34203Y-36289D01*
X34148Y-36266D01*
X33969Y-36266D01*
X33804Y-36334D01*
X33677Y-36461D01*
X33609Y-36626D01*
X33608Y-36805D01*
X33677Y-36971D01*
X33803Y-37097D01*
X33969Y-37166D01*
X34045Y-37166D01*
X33922Y-37172D01*
X33771Y-37235D01*
X33743Y-37330D01*
X34059Y-37645D01*
X34374Y-37330D01*
X34346Y-37235D01*
X34151Y-37165D01*
X34313Y-37098D01*
X34440Y-36971D01*
X34508Y-36806D01*
X34509Y-36627D01*
X34486Y-36572D01*
X34991Y-36066D01*
X35269Y-36066D01*
X35269Y-36223D01*
X35203Y-36289D01*
X35148Y-36266D01*
X34969Y-36266D01*
X34804Y-36334D01*
X34677Y-36461D01*
X34609Y-36626D01*
X34608Y-36805D01*
X34677Y-36971D01*
X34803Y-37097D01*
X34969Y-37166D01*
X35045Y-37166D01*
X34922Y-37172D01*
X34771Y-37235D01*
X34743Y-37330D01*
X35059Y-37645D01*
X35374Y-37330D01*
X35346Y-37235D01*
X35151Y-37165D01*
X35313Y-37098D01*
X35440Y-36971D01*
X35508Y-36806D01*
X35509Y-36627D01*
X35486Y-36572D01*
X35610Y-36447D01*
X35653Y-36383D01*
X35669Y-36306D01*
X35669Y-36139D01*
X36475Y-35333D01*
X36475Y-35367D01*
X35917Y-35925D01*
X35874Y-35989D01*
X35859Y-36066D01*
X35859Y-36312D01*
X35804Y-36334D01*
X35677Y-36461D01*
X35609Y-36626D01*
X35608Y-36805D01*
X35677Y-36971D01*
X35803Y-37097D01*
X35969Y-37166D01*
X36045Y-37166D01*
X35922Y-37172D01*
X35771Y-37235D01*
X35743Y-37330D01*
X36059Y-37645D01*
X36374Y-37330D01*
X36346Y-37235D01*
X36151Y-37165D01*
X36313Y-37098D01*
X36440Y-36971D01*
X36508Y-36806D01*
X36509Y-36627D01*
X36440Y-36461D01*
X36314Y-36335D01*
X36259Y-36312D01*
X36259Y-36149D01*
X36731Y-35677D01*
X36731Y-36408D01*
X36677Y-36461D01*
X36609Y-36626D01*
X36608Y-36805D01*
X36677Y-36971D01*
X36803Y-37097D01*
X36969Y-37166D01*
X37045Y-37166D01*
X36922Y-37172D01*
X36771Y-37235D01*
X36743Y-37330D01*
X37059Y-37645D01*
X37374Y-37330D01*
X37346Y-37235D01*
X37151Y-37165D01*
X37313Y-37098D01*
X37440Y-36971D01*
X37508Y-36806D01*
X37509Y-36627D01*
X37440Y-36461D01*
X37314Y-36335D01*
X37148Y-36266D01*
X37131Y-36266D01*
X37131Y-36071D01*
X37631Y-36572D01*
X37609Y-36626D01*
X37608Y-36805D01*
X37677Y-36971D01*
X37803Y-37097D01*
X37969Y-37166D01*
X38045Y-37166D01*
X37922Y-37172D01*
X37771Y-37235D01*
X37743Y-37330D01*
X38059Y-37645D01*
X38374Y-37330D01*
X38346Y-37235D01*
X38151Y-37165D01*
X38313Y-37098D01*
X38440Y-36971D01*
X38508Y-36806D01*
X38509Y-36627D01*
X38440Y-36461D01*
X38314Y-36335D01*
X38148Y-36266D01*
X37969Y-36266D01*
X37914Y-36289D01*
X37387Y-35761D01*
X37387Y-35627D01*
X37692Y-35932D01*
X37757Y-35976D01*
X37757Y-35976D01*
X37834Y-35991D01*
X38676Y-35991D01*
X38859Y-36174D01*
X38859Y-36312D01*
X38804Y-36334D01*
X38677Y-36461D01*
X38609Y-36626D01*
X38608Y-36805D01*
X38677Y-36971D01*
X38803Y-37097D01*
X38969Y-37166D01*
X39045Y-37166D01*
X38922Y-37172D01*
X38771Y-37235D01*
X38743Y-37330D01*
X39059Y-37645D01*
X39374Y-37330D01*
X39346Y-37235D01*
X39151Y-37165D01*
X39313Y-37098D01*
X39440Y-36971D01*
X39508Y-36806D01*
X39509Y-36627D01*
X39440Y-36461D01*
X39314Y-36335D01*
X39259Y-36312D01*
X39259Y-36091D01*
X39259Y-36091D01*
X39243Y-36014D01*
X39243Y-36014D01*
X39229Y-35993D01*
X39200Y-35950D01*
X39200Y-35950D01*
X38941Y-35691D01*
X39231Y-35691D01*
X39854Y-36314D01*
X39804Y-36334D01*
X39677Y-36461D01*
X39609Y-36626D01*
X39608Y-36805D01*
X39677Y-36971D01*
X39803Y-37097D01*
X39969Y-37166D01*
X40045Y-37166D01*
X39922Y-37172D01*
X39771Y-37235D01*
X39743Y-37330D01*
X40059Y-37645D01*
X40374Y-37330D01*
X40346Y-37235D01*
X40151Y-37165D01*
X40313Y-37098D01*
X40440Y-36971D01*
X40508Y-36806D01*
X40509Y-36627D01*
X40509Y-37419D01*
X40444Y-37401D01*
X40129Y-37716D01*
X40444Y-38031D01*
X40540Y-38004D01*
X40557Y-37955D01*
X40577Y-38004D01*
X40673Y-38031D01*
X40988Y-37716D01*
X40988Y-37857D01*
X40743Y-38102D01*
X40771Y-38197D01*
X40963Y-38266D01*
X40729Y-38266D01*
X40674Y-38289D01*
X40631Y-38331D01*
X40609Y-38386D01*
X40609Y-38446D01*
X40609Y-39046D01*
X40631Y-39101D01*
X40673Y-39143D01*
X40729Y-39166D01*
X40788Y-39166D01*
X41388Y-39166D01*
X41443Y-39143D01*
X41486Y-39101D01*
X41509Y-39046D01*
X41509Y-38986D01*
X41509Y-39614D01*
X40509Y-39614D01*
X40509Y-38986D01*
X40509Y-38386D01*
X40486Y-38331D01*
X40444Y-38289D01*
X40389Y-38266D01*
X40329Y-38266D01*
X40073Y-38266D01*
X40195Y-38260D01*
X40346Y-38197D01*
X40374Y-38102D01*
X40059Y-37787D01*
X39988Y-37857D01*
X39988Y-37716D01*
X39673Y-37401D01*
X39577Y-37428D01*
X39560Y-37477D01*
X39540Y-37428D01*
X39444Y-37401D01*
X39129Y-37716D01*
X39444Y-38031D01*
X39540Y-38004D01*
X39557Y-37955D01*
X39577Y-38004D01*
X39673Y-38031D01*
X39988Y-37716D01*
X39988Y-37857D01*
X39743Y-38102D01*
X39771Y-38197D01*
X39963Y-38266D01*
X39729Y-38266D01*
X39674Y-38289D01*
X39631Y-38331D01*
X39609Y-38386D01*
X39609Y-38446D01*
X39609Y-39046D01*
X39631Y-39101D01*
X39673Y-39143D01*
X39729Y-39166D01*
X39788Y-39166D01*
X40388Y-39166D01*
X40443Y-39143D01*
X40486Y-39101D01*
X40509Y-39046D01*
X40509Y-38986D01*
X40509Y-39614D01*
X39509Y-39614D01*
X39509Y-38986D01*
X39509Y-38386D01*
X39486Y-38331D01*
X39444Y-38289D01*
X39389Y-38266D01*
X39329Y-38266D01*
X39073Y-38266D01*
X39195Y-38260D01*
X39346Y-38197D01*
X39374Y-38102D01*
X39059Y-37787D01*
X38988Y-37857D01*
X38988Y-37716D01*
X38673Y-37401D01*
X38577Y-37428D01*
X38560Y-37477D01*
X38540Y-37428D01*
X38444Y-37401D01*
X38129Y-37716D01*
X38444Y-38031D01*
X38540Y-38004D01*
X38557Y-37955D01*
X38577Y-38004D01*
X38673Y-38031D01*
X38988Y-37716D01*
X38988Y-37857D01*
X38743Y-38102D01*
X38771Y-38197D01*
X38963Y-38266D01*
X38729Y-38266D01*
X38674Y-38289D01*
X38631Y-38331D01*
X38609Y-38386D01*
X38609Y-38446D01*
X38609Y-39046D01*
X38631Y-39101D01*
X38673Y-39143D01*
X38729Y-39166D01*
X38788Y-39166D01*
X39388Y-39166D01*
X39443Y-39143D01*
X39486Y-39101D01*
X39509Y-39046D01*
X39509Y-38986D01*
X39509Y-39614D01*
X38509Y-39614D01*
X38509Y-38986D01*
X38509Y-38386D01*
X38486Y-38331D01*
X38444Y-38289D01*
X38389Y-38266D01*
X38329Y-38266D01*
X38073Y-38266D01*
X38195Y-38260D01*
X38346Y-38197D01*
X38374Y-38102D01*
X38059Y-37787D01*
X37988Y-37857D01*
X37988Y-37716D01*
X37673Y-37401D01*
X37577Y-37428D01*
X37560Y-37477D01*
X37540Y-37428D01*
X37444Y-37401D01*
X37129Y-37716D01*
X37444Y-38031D01*
X37540Y-38004D01*
X37557Y-37955D01*
X37577Y-38004D01*
X37673Y-38031D01*
X37988Y-37716D01*
X37988Y-37857D01*
X37743Y-38102D01*
X37771Y-38197D01*
X37963Y-38266D01*
X37729Y-38266D01*
X37674Y-38289D01*
X37631Y-38331D01*
X37609Y-38386D01*
X37609Y-38446D01*
X37609Y-39046D01*
X37631Y-39101D01*
X37673Y-39143D01*
X37729Y-39166D01*
X37788Y-39166D01*
X38388Y-39166D01*
X38443Y-39143D01*
X38486Y-39101D01*
X38509Y-39046D01*
X38509Y-38986D01*
X38509Y-39614D01*
X37509Y-39614D01*
X37509Y-38986D01*
X37509Y-38386D01*
X37486Y-38331D01*
X37444Y-38289D01*
X37389Y-38266D01*
X37329Y-38266D01*
X37073Y-38266D01*
X37195Y-38260D01*
X37346Y-38197D01*
X37374Y-38102D01*
X37059Y-37787D01*
X36988Y-37857D01*
X36988Y-37716D01*
X36673Y-37401D01*
X36577Y-37428D01*
X36560Y-37477D01*
X36540Y-37428D01*
X36444Y-37401D01*
X36129Y-37716D01*
X36444Y-38031D01*
X36540Y-38004D01*
X36557Y-37955D01*
X36577Y-38004D01*
X36673Y-38031D01*
X36988Y-37716D01*
X36988Y-37857D01*
X36743Y-38102D01*
X36771Y-38197D01*
X36963Y-38266D01*
X36729Y-38266D01*
X36674Y-38289D01*
X36631Y-38331D01*
X36609Y-38386D01*
X36609Y-38446D01*
X36609Y-39046D01*
X36631Y-39101D01*
X36673Y-39143D01*
X36729Y-39166D01*
X36788Y-39166D01*
X37388Y-39166D01*
X37443Y-39143D01*
X37486Y-39101D01*
X37509Y-39046D01*
X37509Y-38986D01*
X37509Y-39614D01*
X36509Y-39614D01*
X36509Y-38986D01*
X36509Y-38386D01*
X36486Y-38331D01*
X36444Y-38289D01*
X36389Y-38266D01*
X36329Y-38266D01*
X36073Y-38266D01*
X36195Y-38260D01*
X36346Y-38197D01*
X36374Y-38102D01*
X36059Y-37787D01*
X35988Y-37857D01*
X35988Y-37716D01*
X35673Y-37401D01*
X35577Y-37428D01*
X35560Y-37477D01*
X35540Y-37428D01*
X35444Y-37401D01*
X35129Y-37716D01*
X35444Y-38031D01*
X35540Y-38004D01*
X35557Y-37955D01*
X35577Y-38004D01*
X35673Y-38031D01*
X35988Y-37716D01*
X35988Y-37857D01*
X35743Y-38102D01*
X35771Y-38197D01*
X35963Y-38266D01*
X35729Y-38266D01*
X35674Y-38289D01*
X35631Y-38331D01*
X35609Y-38386D01*
X35609Y-38446D01*
X35609Y-39046D01*
X35631Y-39101D01*
X35673Y-39143D01*
X35729Y-39166D01*
X35788Y-39166D01*
X36388Y-39166D01*
X36443Y-39143D01*
X36486Y-39101D01*
X36509Y-39046D01*
X36509Y-38986D01*
X36509Y-39614D01*
X35509Y-39614D01*
X35509Y-38986D01*
X35509Y-38386D01*
X35486Y-38331D01*
X35444Y-38289D01*
X35389Y-38266D01*
X35329Y-38266D01*
X35073Y-38266D01*
X35195Y-38260D01*
X35346Y-38197D01*
X35374Y-38102D01*
X35059Y-37787D01*
X34988Y-37857D01*
X34988Y-37716D01*
X34673Y-37401D01*
X34577Y-37428D01*
X34560Y-37477D01*
X34540Y-37428D01*
X34444Y-37401D01*
X34129Y-37716D01*
X34444Y-38031D01*
X34540Y-38004D01*
X34557Y-37955D01*
X34577Y-38004D01*
X34673Y-38031D01*
X34988Y-37716D01*
X34988Y-37857D01*
X34743Y-38102D01*
X34771Y-38197D01*
X34963Y-38266D01*
X34729Y-38266D01*
X34674Y-38289D01*
X34631Y-38331D01*
X34609Y-38386D01*
X34609Y-38446D01*
X34609Y-39046D01*
X34631Y-39101D01*
X34673Y-39143D01*
X34729Y-39166D01*
X34788Y-39166D01*
X35388Y-39166D01*
X35443Y-39143D01*
X35486Y-39101D01*
X35509Y-39046D01*
X35509Y-38986D01*
X35509Y-39614D01*
X34509Y-39614D01*
X34509Y-38986D01*
X34509Y-38386D01*
X34486Y-38331D01*
X34444Y-38289D01*
X34389Y-38266D01*
X34329Y-38266D01*
X34073Y-38266D01*
X34195Y-38260D01*
X34346Y-38197D01*
X34374Y-38102D01*
X34059Y-37787D01*
X33988Y-37857D01*
X33988Y-37716D01*
X33673Y-37401D01*
X33577Y-37428D01*
X33504Y-37634D01*
X33515Y-37853D01*
X33577Y-38004D01*
X33673Y-38031D01*
X33988Y-37716D01*
X33988Y-37857D01*
X33743Y-38102D01*
X33771Y-38197D01*
X33963Y-38266D01*
X33729Y-38266D01*
X33674Y-38289D01*
X33631Y-38331D01*
X33609Y-38386D01*
X33609Y-38446D01*
X33609Y-39046D01*
X33631Y-39101D01*
X33673Y-39143D01*
X33729Y-39166D01*
X33788Y-39166D01*
X34388Y-39166D01*
X34443Y-39143D01*
X34486Y-39101D01*
X34509Y-39046D01*
X34509Y-38986D01*
X34509Y-39614D01*
X32484Y-39614D01*
X32484Y-38116D01*
X32484Y-37667D01*
X32446Y-37575D01*
X32375Y-37504D01*
X32284Y-37466D01*
X32184Y-37466D01*
X32071Y-37466D01*
X32009Y-37529D01*
X32009Y-37841D01*
X32421Y-37841D01*
X32484Y-37779D01*
X32484Y-37667D01*
X32484Y-38116D01*
X32484Y-38004D01*
X32421Y-37941D01*
X32009Y-37941D01*
X32009Y-37949D01*
X31909Y-37949D01*
X31909Y-37941D01*
X31909Y-37841D01*
X31909Y-37529D01*
X31846Y-37466D01*
X31733Y-37466D01*
X31634Y-37466D01*
X31542Y-37504D01*
X31471Y-37575D01*
X31434Y-37667D01*
X31434Y-37779D01*
X31496Y-37841D01*
X31909Y-37841D01*
X31909Y-37941D01*
X31496Y-37941D01*
X31434Y-38004D01*
X31434Y-38116D01*
X31471Y-38207D01*
X31542Y-38278D01*
X31634Y-38316D01*
X31654Y-38316D01*
X31654Y-38316D01*
X31599Y-38339D01*
X31556Y-38381D01*
X31534Y-38436D01*
X31534Y-38496D01*
X31534Y-38846D01*
X31556Y-38901D01*
X31598Y-38943D01*
X31628Y-38955D01*
X31609Y-39001D01*
X31608Y-39130D01*
X31658Y-39250D01*
X31749Y-39341D01*
X31869Y-39391D01*
X31998Y-39391D01*
X32117Y-39342D01*
X32209Y-39250D01*
X32258Y-39131D01*
X32259Y-39002D01*
X32244Y-38966D01*
X32263Y-38966D01*
X32318Y-38943D01*
X32361Y-38901D01*
X32384Y-38846D01*
X32384Y-38786D01*
X32384Y-38436D01*
X32361Y-38381D01*
X32319Y-38339D01*
X32264Y-38316D01*
X32234Y-38316D01*
X32284Y-38316D01*
X32375Y-38278D01*
X32446Y-38207D01*
X32484Y-38116D01*
X32484Y-39614D01*
X30148Y-39614D01*
X30143Y-37406D01*
X27708Y-37406D01*
X27708Y-33641D01*
X42058Y-33591D01*
M02*
