G04 #@! TF.FileFunction,Copper,L1,Top,Signal*
%FSLAX46Y46*%
G04 Gerber Fmt 4.6, Leading zero omitted, Abs format (unit mm)*
G04 Created by KiCad (PCBNEW (after 2015-mar-04 BZR unknown)-product) date 11/22/2015 8:39:50 PM*
%MOMM*%
G01*
G04 APERTURE LIST*
%ADD10C,0.150000*%
%ADD11R,3.657600X2.032000*%
%ADD12R,1.016000X2.032000*%
%ADD13C,1.397000*%
%ADD14R,1.397000X1.397000*%
%ADD15R,1.524000X1.524000*%
%ADD16C,1.524000*%
%ADD17C,1.778000*%
%ADD18R,1.778000X1.778000*%
%ADD19C,6.350000*%
%ADD20R,1.300000X1.300000*%
%ADD21C,1.300000*%
%ADD22C,4.600000*%
%ADD23C,0.889000*%
%ADD24C,0.203200*%
%ADD25C,0.635000*%
%ADD26C,0.254000*%
G04 APERTURE END LIST*
D10*
D11*
X115518000Y-51910000D03*
D12*
X115518000Y-58514000D03*
X117804000Y-58514000D03*
X113232000Y-58514000D03*
D13*
X116788000Y-61816000D03*
X114248000Y-61816000D03*
X94944000Y-88232000D03*
X92404000Y-88232000D03*
X108406000Y-64864000D03*
X105866000Y-64864000D03*
X99652000Y-84544000D03*
X102192000Y-84544000D03*
X104732000Y-84544000D03*
X107272000Y-84544000D03*
X109812000Y-84544000D03*
X112352000Y-84544000D03*
X114892000Y-84544000D03*
X117432000Y-84544000D03*
X119972000Y-84544000D03*
X122512000Y-84544000D03*
X125052000Y-84544000D03*
X127592000Y-84544000D03*
X130132000Y-84544000D03*
D14*
X97112000Y-84544000D03*
D13*
X130132000Y-76924000D03*
X127592000Y-76924000D03*
X125052000Y-76924000D03*
X122512000Y-76924000D03*
X119972000Y-76924000D03*
X117432000Y-76924000D03*
X114892000Y-76924000D03*
X112352000Y-76924000D03*
X109812000Y-76924000D03*
X107272000Y-76924000D03*
X104732000Y-76924000D03*
X102192000Y-76924000D03*
X99652000Y-76924000D03*
X97112000Y-76924000D03*
D15*
X100650000Y-97000000D03*
D16*
X103190000Y-97000000D03*
X105730000Y-97000000D03*
X108270000Y-97000000D03*
X110810000Y-97000000D03*
X113350000Y-97000000D03*
D15*
X109812000Y-93180000D03*
D16*
X109812000Y-90640000D03*
X109812000Y-88100000D03*
D15*
X119972000Y-68288000D03*
D16*
X119972000Y-70828000D03*
X119972000Y-73368000D03*
D15*
X122512000Y-68288000D03*
D16*
X122512000Y-70828000D03*
X122512000Y-73368000D03*
D15*
X125052000Y-68288000D03*
D16*
X125052000Y-70828000D03*
X125052000Y-73368000D03*
D15*
X127592000Y-68288000D03*
D16*
X127592000Y-70828000D03*
X127592000Y-73368000D03*
D15*
X130132000Y-68288000D03*
D16*
X130132000Y-70828000D03*
X130132000Y-73368000D03*
D15*
X130132000Y-93180000D03*
D16*
X130132000Y-90640000D03*
X130132000Y-88100000D03*
D15*
X127592000Y-93180000D03*
D16*
X127592000Y-90640000D03*
X127592000Y-88100000D03*
D15*
X125052000Y-93180000D03*
D16*
X125052000Y-90640000D03*
X125052000Y-88100000D03*
D15*
X122512000Y-93180000D03*
D16*
X122512000Y-90640000D03*
X122512000Y-88100000D03*
D15*
X109812000Y-68288000D03*
D16*
X109812000Y-70828000D03*
X109812000Y-73368000D03*
D15*
X107272000Y-93180000D03*
D16*
X107272000Y-90640000D03*
X107272000Y-88100000D03*
D15*
X104732000Y-93180000D03*
D16*
X104732000Y-90640000D03*
X104732000Y-88100000D03*
D15*
X102192000Y-93180000D03*
D16*
X102192000Y-90640000D03*
X102192000Y-88100000D03*
D15*
X99652000Y-93180000D03*
D16*
X99652000Y-90640000D03*
X99652000Y-88100000D03*
D15*
X97112000Y-68288000D03*
D16*
X97112000Y-70828000D03*
X97112000Y-73368000D03*
D15*
X99652000Y-68288000D03*
D16*
X99652000Y-70828000D03*
X99652000Y-73368000D03*
D15*
X102192000Y-68288000D03*
D16*
X102192000Y-70828000D03*
X102192000Y-73368000D03*
D15*
X104732000Y-68288000D03*
D16*
X104732000Y-70828000D03*
X104732000Y-73368000D03*
D15*
X107272000Y-68288000D03*
D16*
X107272000Y-70828000D03*
X107272000Y-73368000D03*
D17*
X92540000Y-74638000D03*
D18*
X92540000Y-84798000D03*
D16*
X92540000Y-61938000D03*
X92540000Y-72098000D03*
D15*
X112352000Y-68288000D03*
D16*
X112352000Y-70828000D03*
X112352000Y-73368000D03*
D15*
X116162000Y-68288000D03*
D16*
X116162000Y-70828000D03*
X116162000Y-73368000D03*
D13*
X118153360Y-88608000D03*
X113154640Y-88608000D03*
X115654000Y-88608000D03*
D15*
X121750000Y-62446000D03*
D16*
X121750000Y-59906000D03*
X124290000Y-62446000D03*
X124290000Y-59906000D03*
X126830000Y-62446000D03*
X126830000Y-59906000D03*
X129370000Y-62446000D03*
X129370000Y-59906000D03*
X131910000Y-62446000D03*
X131910000Y-59906000D03*
X134450000Y-62446000D03*
X134450000Y-59906000D03*
D13*
X115264000Y-93820000D03*
X117804000Y-93820000D03*
X136346000Y-87470000D03*
X136346000Y-90010000D03*
D19*
X94000000Y-54000000D03*
X135000000Y-54000000D03*
X135000000Y-95000000D03*
X94000000Y-95000000D03*
D20*
X99262000Y-62070000D03*
D21*
X96762000Y-62070000D03*
D20*
X126440000Y-53434000D03*
D21*
X123940000Y-53434000D03*
D22*
X106120000Y-54069000D03*
X106120000Y-60169000D03*
X101520000Y-57269000D03*
D23*
X128599000Y-65499000D03*
X123782000Y-66383000D03*
X125043000Y-79278500D03*
X134314000Y-79342000D03*
X134060000Y-64864000D03*
X135339000Y-73114000D03*
X132282000Y-80231000D03*
X132028000Y-65372000D03*
X130948500Y-56863000D03*
X119264500Y-56736000D03*
X114502000Y-79088000D03*
X112100000Y-94500000D03*
X111708000Y-86581000D03*
D24*
X112352000Y-68288000D02*
X112401500Y-68288000D01*
X112401500Y-68288000D02*
X113740000Y-69626500D01*
X112352000Y-68288000D02*
X112352000Y-68474500D01*
X112352000Y-68474500D02*
X111200000Y-69626500D01*
D25*
X109812000Y-76924000D02*
X109812000Y-73368000D01*
X107272000Y-76924000D02*
X107272000Y-73368000D01*
X104732000Y-76924000D02*
X104732000Y-73368000D01*
X102192000Y-76924000D02*
X102192000Y-73368000D01*
X99652000Y-76924000D02*
X99652000Y-73368000D01*
X97112000Y-76924000D02*
X97112000Y-73368000D01*
X114892000Y-76924000D02*
X114892000Y-76684000D01*
X112352000Y-74144000D02*
X112352000Y-73368000D01*
X114892000Y-76684000D02*
X112352000Y-74144000D01*
X99652000Y-88100000D02*
X99652000Y-84544000D01*
D24*
X108270000Y-97000000D02*
X108270000Y-96870000D01*
X100900000Y-89348000D02*
X99652000Y-88100000D01*
X100900000Y-94400000D02*
X100900000Y-89348000D01*
X101700000Y-95200000D02*
X100900000Y-94400000D01*
X106600000Y-95200000D02*
X101700000Y-95200000D01*
X108270000Y-96870000D02*
X106600000Y-95200000D01*
D25*
X102192000Y-88100000D02*
X102192000Y-84544000D01*
D24*
X110810000Y-97000000D02*
X110810000Y-96910000D01*
X102792000Y-88700000D02*
X102192000Y-88100000D01*
X103500000Y-88700000D02*
X102792000Y-88700000D01*
X104200000Y-89400000D02*
X103500000Y-88700000D01*
X107900000Y-89400000D02*
X104200000Y-89400000D01*
X108500000Y-90000000D02*
X107900000Y-89400000D01*
X108500000Y-94600000D02*
X108500000Y-90000000D01*
X110810000Y-96910000D02*
X108500000Y-94600000D01*
X127592000Y-73368000D02*
X127592000Y-72983000D01*
X128853000Y-65753000D02*
X128599000Y-65499000D01*
X128853000Y-71722000D02*
X128853000Y-65753000D01*
X127592000Y-72983000D02*
X128853000Y-71722000D01*
D25*
X127592000Y-73368000D02*
X127592000Y-76924000D01*
D24*
X125560000Y-62832000D02*
X125560000Y-65254000D01*
X125560000Y-65254000D02*
X126195000Y-65889000D01*
D25*
X125052000Y-73368000D02*
X125052000Y-76924000D01*
D24*
X125052000Y-73368000D02*
X125052000Y-72860000D01*
X126195000Y-71717000D02*
X126195000Y-65889000D01*
X125052000Y-72860000D02*
X126195000Y-71717000D01*
X125560000Y-61176000D02*
X124290000Y-59906000D01*
X125560000Y-62832000D02*
X125560000Y-61176000D01*
D25*
X122512000Y-73368000D02*
X122512000Y-76924000D01*
D24*
X122512000Y-73368000D02*
X122766000Y-73368000D01*
X123782000Y-72352000D02*
X123782000Y-66383000D01*
X122766000Y-73368000D02*
X123782000Y-72352000D01*
X121242000Y-68547000D02*
X121242000Y-67458500D01*
X124290000Y-64410500D02*
X124290000Y-62446000D01*
X121242000Y-67458500D02*
X124290000Y-64410500D01*
X119972000Y-73368000D02*
X119972000Y-73241000D01*
X119972000Y-73241000D02*
X121242000Y-71971000D01*
X121242000Y-71971000D02*
X121242000Y-68547000D01*
D25*
X104732000Y-88100000D02*
X104732000Y-84544000D01*
X107272000Y-88100000D02*
X107272000Y-84544000D01*
X109812000Y-88100000D02*
X109812000Y-84544000D01*
X122512000Y-84544000D02*
X122512000Y-88100000D01*
D24*
X125106500Y-79342000D02*
X134314000Y-79342000D01*
X125043000Y-79278500D02*
X125106500Y-79342000D01*
X134060000Y-64864000D02*
X131910000Y-62714000D01*
X131910000Y-62714000D02*
X131910000Y-62446000D01*
D25*
X125052000Y-84544000D02*
X125052000Y-88100000D01*
X127592000Y-84544000D02*
X127592000Y-88100000D01*
X130132000Y-84544000D02*
X130132000Y-88100000D01*
X130132000Y-73368000D02*
X130132000Y-76924000D01*
D24*
X130132000Y-73368000D02*
X135085000Y-73368000D01*
X135085000Y-73368000D02*
X135339000Y-73114000D01*
D25*
X117432000Y-84544000D02*
X117432000Y-85810000D01*
X115054640Y-86708000D02*
X113154640Y-88608000D01*
X116534000Y-86708000D02*
X115054640Y-86708000D01*
X117432000Y-85810000D02*
X116534000Y-86708000D01*
X119972000Y-84544000D02*
X119972000Y-86789360D01*
X119972000Y-86789360D02*
X118153360Y-88608000D01*
D24*
X113300000Y-81120000D02*
X99280000Y-81120000D01*
X97112000Y-83288000D02*
X97112000Y-84544000D01*
X99280000Y-81120000D02*
X97112000Y-83288000D01*
X126830000Y-62446000D02*
X126830000Y-63095000D01*
X130885000Y-64229000D02*
X132028000Y-65372000D01*
X127964000Y-64229000D02*
X130885000Y-64229000D01*
X126830000Y-63095000D02*
X127964000Y-64229000D01*
X131393000Y-81120000D02*
X132282000Y-80231000D01*
X113300000Y-81120000D02*
X131393000Y-81120000D01*
D25*
X92540000Y-74638000D02*
X92540000Y-79972000D01*
X92540000Y-79972000D02*
X97112000Y-84544000D01*
X92540000Y-74638000D02*
X92540000Y-72098000D01*
X119391500Y-56863000D02*
X130948500Y-56863000D01*
X119264500Y-56736000D02*
X119391500Y-56863000D01*
X117804000Y-60800000D02*
X116788000Y-61816000D01*
X117804000Y-58514000D02*
X117804000Y-60800000D01*
X104215000Y-62070000D02*
X106120000Y-60165000D01*
X99262000Y-62070000D02*
X104215000Y-62070000D01*
X116162000Y-68288000D02*
X116162000Y-64746000D01*
X116162000Y-64746000D02*
X116153000Y-64737000D01*
X113232000Y-60800000D02*
X114248000Y-61816000D01*
X113232000Y-58514000D02*
X113232000Y-60800000D01*
D24*
X116592500Y-73368000D02*
X116162000Y-73368000D01*
D25*
X111708000Y-91661000D02*
X111708000Y-86454000D01*
X112100000Y-92053000D02*
X111708000Y-91661000D01*
X112100000Y-94500000D02*
X112100000Y-92053000D01*
D24*
X111708000Y-86581000D02*
X111708000Y-86454000D01*
X114506000Y-79088000D02*
X116162000Y-77432000D01*
X116162000Y-77432000D02*
X116162000Y-73368000D01*
X114502000Y-79088000D02*
X114506000Y-79088000D01*
D25*
X97112000Y-70828000D02*
X99652000Y-70828000D01*
X99652000Y-70828000D02*
X102192000Y-70828000D01*
X102192000Y-70828000D02*
X104732000Y-70828000D01*
X104732000Y-70828000D02*
X107272000Y-70828000D01*
X107272000Y-70828000D02*
X109812000Y-70828000D01*
X109812000Y-70828000D02*
X112352000Y-70828000D01*
D26*
G36*
X122705747Y-70842142D02*
X122526142Y-71021747D01*
X122512000Y-71007605D01*
X122497857Y-71021747D01*
X122318252Y-70842142D01*
X122332395Y-70828000D01*
X122318252Y-70813857D01*
X122497857Y-70634252D01*
X122512000Y-70648395D01*
X122526142Y-70634252D01*
X122705747Y-70813857D01*
X122691605Y-70828000D01*
X122705747Y-70842142D01*
X122705747Y-70842142D01*
G37*
X122705747Y-70842142D02*
X122526142Y-71021747D01*
X122512000Y-71007605D01*
X122497857Y-71021747D01*
X122318252Y-70842142D01*
X122332395Y-70828000D01*
X122318252Y-70813857D01*
X122497857Y-70634252D01*
X122512000Y-70648395D01*
X122526142Y-70634252D01*
X122705747Y-70813857D01*
X122691605Y-70828000D01*
X122705747Y-70842142D01*
G36*
X125245747Y-70842142D02*
X125066142Y-71021747D01*
X125052000Y-71007605D01*
X125037857Y-71021747D01*
X124858252Y-70842142D01*
X124872395Y-70828000D01*
X124858252Y-70813857D01*
X125037857Y-70634252D01*
X125052000Y-70648395D01*
X125066142Y-70634252D01*
X125245747Y-70813857D01*
X125231605Y-70828000D01*
X125245747Y-70842142D01*
X125245747Y-70842142D01*
G37*
X125245747Y-70842142D02*
X125066142Y-71021747D01*
X125052000Y-71007605D01*
X125037857Y-71021747D01*
X124858252Y-70842142D01*
X124872395Y-70828000D01*
X124858252Y-70813857D01*
X125037857Y-70634252D01*
X125052000Y-70648395D01*
X125066142Y-70634252D01*
X125245747Y-70813857D01*
X125231605Y-70828000D01*
X125245747Y-70842142D01*
G36*
X127785747Y-70842142D02*
X127606142Y-71021747D01*
X127592000Y-71007605D01*
X127577857Y-71021747D01*
X127398252Y-70842142D01*
X127412395Y-70828000D01*
X127398252Y-70813857D01*
X127577857Y-70634252D01*
X127592000Y-70648395D01*
X127606142Y-70634252D01*
X127785747Y-70813857D01*
X127771605Y-70828000D01*
X127785747Y-70842142D01*
X127785747Y-70842142D01*
G37*
X127785747Y-70842142D02*
X127606142Y-71021747D01*
X127592000Y-71007605D01*
X127577857Y-71021747D01*
X127398252Y-70842142D01*
X127412395Y-70828000D01*
X127398252Y-70813857D01*
X127577857Y-70634252D01*
X127592000Y-70648395D01*
X127606142Y-70634252D01*
X127785747Y-70813857D01*
X127771605Y-70828000D01*
X127785747Y-70842142D01*
G36*
X138399700Y-92918302D02*
X138339572Y-92772782D01*
X137691927Y-92124005D01*
X137691927Y-87662520D01*
X137663148Y-87132801D01*
X137515800Y-86777071D01*
X137280188Y-86715417D01*
X137100583Y-86895022D01*
X137100583Y-86535812D01*
X137038929Y-86300200D01*
X136538520Y-86124073D01*
X136215452Y-86141624D01*
X136215452Y-72940458D01*
X136082324Y-72618264D01*
X135836032Y-72371542D01*
X135644007Y-72291805D01*
X135644007Y-62209580D01*
X135644007Y-59669580D01*
X135462645Y-59230650D01*
X135127116Y-58894536D01*
X134688503Y-58712408D01*
X134213580Y-58711993D01*
X133774650Y-58893355D01*
X133438536Y-59228884D01*
X133256408Y-59667497D01*
X133255993Y-60142420D01*
X133437355Y-60581350D01*
X133772884Y-60917464D01*
X134211497Y-61099592D01*
X134686420Y-61100007D01*
X135125350Y-60918645D01*
X135461464Y-60583116D01*
X135643592Y-60144503D01*
X135644007Y-59669580D01*
X135644007Y-62209580D01*
X135462645Y-61770650D01*
X135127116Y-61434536D01*
X134688503Y-61252408D01*
X134213580Y-61251993D01*
X133774650Y-61433355D01*
X133438536Y-61768884D01*
X133256408Y-62207497D01*
X133255993Y-62682420D01*
X133437355Y-63121350D01*
X133772884Y-63457464D01*
X134211497Y-63639592D01*
X134686420Y-63640007D01*
X135125350Y-63458645D01*
X135461464Y-63123116D01*
X135643592Y-62684503D01*
X135644007Y-62209580D01*
X135644007Y-72291805D01*
X135514072Y-72237852D01*
X135165458Y-72237548D01*
X134936452Y-72332171D01*
X134936452Y-64690458D01*
X134803324Y-64368264D01*
X134557032Y-64121542D01*
X134235072Y-63987852D01*
X133937934Y-63987592D01*
X132966059Y-63015717D01*
X133103592Y-62684503D01*
X133104007Y-62209580D01*
X133104007Y-59669580D01*
X132922645Y-59230650D01*
X132587116Y-58894536D01*
X132148503Y-58712408D01*
X131673580Y-58711993D01*
X131234650Y-58893355D01*
X130898536Y-59228884D01*
X130716408Y-59667497D01*
X130715993Y-60142420D01*
X130897355Y-60581350D01*
X131232884Y-60917464D01*
X131671497Y-61099592D01*
X132146420Y-61100007D01*
X132585350Y-60918645D01*
X132921464Y-60583116D01*
X133103592Y-60144503D01*
X133104007Y-59669580D01*
X133104007Y-62209580D01*
X132922645Y-61770650D01*
X132587116Y-61434536D01*
X132148503Y-61252408D01*
X131673580Y-61251993D01*
X131234650Y-61433355D01*
X130898536Y-61768884D01*
X130716408Y-62207497D01*
X130715993Y-62682420D01*
X130897355Y-63121350D01*
X131232884Y-63457464D01*
X131671497Y-63639592D01*
X132081608Y-63639950D01*
X133183805Y-64742147D01*
X133183548Y-65037542D01*
X133316676Y-65359736D01*
X133562968Y-65606458D01*
X133884928Y-65740148D01*
X134233542Y-65740452D01*
X134555736Y-65607324D01*
X134802458Y-65361032D01*
X134936148Y-65039072D01*
X134936452Y-64690458D01*
X134936452Y-72332171D01*
X134843264Y-72370676D01*
X134596542Y-72616968D01*
X134506172Y-72834600D01*
X131541144Y-72834600D01*
X131541144Y-71035698D01*
X131513362Y-70480632D01*
X131354397Y-70096857D01*
X131112213Y-70027392D01*
X130311605Y-70828000D01*
X131112213Y-71628608D01*
X131354397Y-71559143D01*
X131541144Y-71035698D01*
X131541144Y-72834600D01*
X131203297Y-72834600D01*
X131144645Y-72692650D01*
X130809116Y-72356536D01*
X130457337Y-72210464D01*
X130479368Y-72209362D01*
X130863143Y-72050397D01*
X130932608Y-71808213D01*
X130132000Y-71007605D01*
X130117857Y-71021747D01*
X129938252Y-70842142D01*
X129952395Y-70828000D01*
X129938252Y-70813857D01*
X130117857Y-70634252D01*
X130132000Y-70648395D01*
X130932608Y-69847787D01*
X130863143Y-69605603D01*
X130539837Y-69490259D01*
X130894000Y-69490259D01*
X131058644Y-69458315D01*
X131203351Y-69363258D01*
X131300216Y-69219755D01*
X131334259Y-69050000D01*
X131334259Y-67526000D01*
X131302315Y-67361356D01*
X131207258Y-67216649D01*
X131063755Y-67119784D01*
X130894000Y-67085741D01*
X129386400Y-67085741D01*
X129386400Y-65887800D01*
X129475148Y-65674072D01*
X129475452Y-65325458D01*
X129342324Y-65003264D01*
X129101879Y-64762400D01*
X130664058Y-64762400D01*
X131151805Y-65250147D01*
X131151548Y-65545542D01*
X131284676Y-65867736D01*
X131530968Y-66114458D01*
X131852928Y-66248148D01*
X132201542Y-66248452D01*
X132523736Y-66115324D01*
X132770458Y-65869032D01*
X132904148Y-65547072D01*
X132904452Y-65198458D01*
X132771324Y-64876264D01*
X132525032Y-64629542D01*
X132203072Y-64495852D01*
X131905934Y-64495592D01*
X131262171Y-63851829D01*
X131089123Y-63736203D01*
X130885000Y-63695600D01*
X130564007Y-63695600D01*
X130564007Y-62209580D01*
X130564007Y-59669580D01*
X130382645Y-59230650D01*
X130047116Y-58894536D01*
X129608503Y-58712408D01*
X129133580Y-58711993D01*
X128694650Y-58893355D01*
X128358536Y-59228884D01*
X128176408Y-59667497D01*
X128175993Y-60142420D01*
X128357355Y-60581350D01*
X128692884Y-60917464D01*
X129131497Y-61099592D01*
X129606420Y-61100007D01*
X130045350Y-60918645D01*
X130381464Y-60583116D01*
X130563592Y-60144503D01*
X130564007Y-59669580D01*
X130564007Y-62209580D01*
X130382645Y-61770650D01*
X130047116Y-61434536D01*
X129608503Y-61252408D01*
X129133580Y-61251993D01*
X128694650Y-61433355D01*
X128358536Y-61768884D01*
X128176408Y-62207497D01*
X128175993Y-62682420D01*
X128357355Y-63121350D01*
X128692884Y-63457464D01*
X129131497Y-63639592D01*
X129606420Y-63640007D01*
X130045350Y-63458645D01*
X130381464Y-63123116D01*
X130563592Y-62684503D01*
X130564007Y-62209580D01*
X130564007Y-63695600D01*
X128184942Y-63695600D01*
X127726861Y-63237519D01*
X127841464Y-63123116D01*
X128023592Y-62684503D01*
X128024007Y-62209580D01*
X128024007Y-59669580D01*
X127842645Y-59230650D01*
X127507116Y-58894536D01*
X127068503Y-58712408D01*
X126593580Y-58711993D01*
X126154650Y-58893355D01*
X125818536Y-59228884D01*
X125636408Y-59667497D01*
X125635993Y-60142420D01*
X125817355Y-60581350D01*
X126152884Y-60917464D01*
X126591497Y-61099592D01*
X127066420Y-61100007D01*
X127505350Y-60918645D01*
X127841464Y-60583116D01*
X128023592Y-60144503D01*
X128024007Y-59669580D01*
X128024007Y-62209580D01*
X127842645Y-61770650D01*
X127507116Y-61434536D01*
X127068503Y-61252408D01*
X126593580Y-61251993D01*
X126154650Y-61433355D01*
X126093400Y-61494498D01*
X126093400Y-61176000D01*
X126052797Y-60971877D01*
X126052797Y-60971876D01*
X125937171Y-60798829D01*
X125424691Y-60286349D01*
X125483592Y-60144503D01*
X125484007Y-59669580D01*
X125302645Y-59230650D01*
X124967116Y-58894536D01*
X124528503Y-58712408D01*
X124053580Y-58711993D01*
X123614650Y-58893355D01*
X123278536Y-59228884D01*
X123132464Y-59580662D01*
X123131362Y-59558632D01*
X122972397Y-59174857D01*
X122730213Y-59105392D01*
X122550608Y-59284997D01*
X122550608Y-58925787D01*
X122481143Y-58683603D01*
X121957698Y-58496856D01*
X121402632Y-58524638D01*
X121018857Y-58683603D01*
X120949392Y-58925787D01*
X121750000Y-59726395D01*
X122550608Y-58925787D01*
X122550608Y-59284997D01*
X121929605Y-59906000D01*
X122730213Y-60706608D01*
X122972397Y-60637143D01*
X123124383Y-60211130D01*
X123277355Y-60581350D01*
X123612884Y-60917464D01*
X124051497Y-61099592D01*
X124526420Y-61100007D01*
X124670239Y-61040581D01*
X125026600Y-61396942D01*
X125026600Y-61494123D01*
X124967116Y-61434536D01*
X124528503Y-61252408D01*
X124053580Y-61251993D01*
X123614650Y-61433355D01*
X123278536Y-61768884D01*
X123096408Y-62207497D01*
X123095993Y-62682420D01*
X123277355Y-63121350D01*
X123612884Y-63457464D01*
X123756600Y-63517140D01*
X123756600Y-64189558D01*
X122952259Y-64993899D01*
X122952259Y-63208000D01*
X122952259Y-61684000D01*
X122920315Y-61519356D01*
X122825258Y-61374649D01*
X122681755Y-61277784D01*
X122512000Y-61243741D01*
X122202678Y-61243741D01*
X122481143Y-61128397D01*
X122550608Y-60886213D01*
X121750000Y-60085605D01*
X121570395Y-60265210D01*
X121570395Y-59906000D01*
X120769787Y-59105392D01*
X120527603Y-59174857D01*
X120340856Y-59698302D01*
X120368638Y-60253368D01*
X120527603Y-60637143D01*
X120769787Y-60706608D01*
X121570395Y-59906000D01*
X121570395Y-60265210D01*
X120949392Y-60886213D01*
X121018857Y-61128397D01*
X121342162Y-61243741D01*
X120988000Y-61243741D01*
X120823356Y-61275685D01*
X120678649Y-61370742D01*
X120581784Y-61514245D01*
X120547741Y-61684000D01*
X120547741Y-63208000D01*
X120579685Y-63372644D01*
X120674742Y-63517351D01*
X120818245Y-63614216D01*
X120988000Y-63648259D01*
X122512000Y-63648259D01*
X122676644Y-63616315D01*
X122821351Y-63521258D01*
X122918216Y-63377755D01*
X122952259Y-63208000D01*
X122952259Y-64993899D01*
X120864829Y-67081329D01*
X120846770Y-67108356D01*
X120734000Y-67085741D01*
X119210000Y-67085741D01*
X119045356Y-67117685D01*
X118900649Y-67212742D01*
X118803784Y-67356245D01*
X118769741Y-67526000D01*
X118769741Y-69050000D01*
X118801685Y-69214644D01*
X118896742Y-69359351D01*
X119040245Y-69456216D01*
X119210000Y-69490259D01*
X119519321Y-69490259D01*
X119240857Y-69605603D01*
X119171392Y-69847787D01*
X119972000Y-70648395D01*
X119986142Y-70634252D01*
X120165747Y-70813857D01*
X120151605Y-70828000D01*
X120165747Y-70842142D01*
X119986142Y-71021747D01*
X119972000Y-71007605D01*
X119792395Y-71187210D01*
X119792395Y-70828000D01*
X118991787Y-70027392D01*
X118749603Y-70096857D01*
X118562856Y-70620302D01*
X118590638Y-71175368D01*
X118749603Y-71559143D01*
X118991787Y-71628608D01*
X119792395Y-70828000D01*
X119792395Y-71187210D01*
X119171392Y-71808213D01*
X119240857Y-72050397D01*
X119666869Y-72202383D01*
X119296650Y-72355355D01*
X118960536Y-72690884D01*
X118778408Y-73129497D01*
X118777993Y-73604420D01*
X118959355Y-74043350D01*
X119294884Y-74379464D01*
X119733497Y-74561592D01*
X120208420Y-74562007D01*
X120647350Y-74380645D01*
X120983464Y-74045116D01*
X121165592Y-73606503D01*
X121166007Y-73131580D01*
X121069449Y-72897892D01*
X121619171Y-72348171D01*
X121734797Y-72175124D01*
X121734797Y-72175123D01*
X121768308Y-72006649D01*
X121780857Y-72050397D01*
X122206869Y-72202383D01*
X121836650Y-72355355D01*
X121500536Y-72690884D01*
X121318408Y-73129497D01*
X121317993Y-73604420D01*
X121499355Y-74043350D01*
X121762700Y-74307154D01*
X121762700Y-76074900D01*
X121554337Y-76282900D01*
X121381897Y-76698183D01*
X121381504Y-77147844D01*
X121553219Y-77563427D01*
X121870900Y-77881663D01*
X122286183Y-78054103D01*
X122735844Y-78054496D01*
X123151427Y-77882781D01*
X123469663Y-77565100D01*
X123642103Y-77149817D01*
X123642496Y-76700156D01*
X123470781Y-76284573D01*
X123261300Y-76074726D01*
X123261300Y-74306823D01*
X123523464Y-74045116D01*
X123705592Y-73606503D01*
X123705962Y-73182379D01*
X123929106Y-72959235D01*
X123858408Y-73129497D01*
X123857993Y-73604420D01*
X124039355Y-74043350D01*
X124302700Y-74307154D01*
X124302700Y-76074900D01*
X124094337Y-76282900D01*
X123921897Y-76698183D01*
X123921504Y-77147844D01*
X124093219Y-77563427D01*
X124410900Y-77881663D01*
X124826183Y-78054103D01*
X125275844Y-78054496D01*
X125691427Y-77882781D01*
X126009663Y-77565100D01*
X126182103Y-77149817D01*
X126182496Y-76700156D01*
X126010781Y-76284573D01*
X125801300Y-76074726D01*
X125801300Y-74306823D01*
X126063464Y-74045116D01*
X126245592Y-73606503D01*
X126246007Y-73131580D01*
X126064645Y-72692650D01*
X126019208Y-72647133D01*
X126572171Y-72094171D01*
X126687797Y-71921123D01*
X126690109Y-71909498D01*
X126791392Y-71808215D01*
X126860857Y-72050397D01*
X127286869Y-72202383D01*
X126916650Y-72355355D01*
X126580536Y-72690884D01*
X126398408Y-73129497D01*
X126397993Y-73604420D01*
X126579355Y-74043350D01*
X126842700Y-74307154D01*
X126842700Y-76074900D01*
X126634337Y-76282900D01*
X126461897Y-76698183D01*
X126461504Y-77147844D01*
X126633219Y-77563427D01*
X126950900Y-77881663D01*
X127366183Y-78054103D01*
X127815844Y-78054496D01*
X128231427Y-77882781D01*
X128549663Y-77565100D01*
X128722103Y-77149817D01*
X128722496Y-76700156D01*
X128550781Y-76284573D01*
X128341300Y-76074726D01*
X128341300Y-74306823D01*
X128603464Y-74045116D01*
X128785592Y-73606503D01*
X128786007Y-73131580D01*
X128614014Y-72715327D01*
X129230171Y-72099171D01*
X129345797Y-71926124D01*
X129345797Y-71926123D01*
X129353747Y-71886153D01*
X129400857Y-72050397D01*
X129826869Y-72202383D01*
X129456650Y-72355355D01*
X129120536Y-72690884D01*
X128938408Y-73129497D01*
X128937993Y-73604420D01*
X129119355Y-74043350D01*
X129382700Y-74307154D01*
X129382700Y-76074900D01*
X129174337Y-76282900D01*
X129001897Y-76698183D01*
X129001504Y-77147844D01*
X129173219Y-77563427D01*
X129490900Y-77881663D01*
X129906183Y-78054103D01*
X130355844Y-78054496D01*
X130771427Y-77882781D01*
X131089663Y-77565100D01*
X131262103Y-77149817D01*
X131262496Y-76700156D01*
X131090781Y-76284573D01*
X130881300Y-76074726D01*
X130881300Y-74306823D01*
X131143464Y-74045116D01*
X131203140Y-73901400D01*
X134950199Y-73901400D01*
X135163928Y-73990148D01*
X135512542Y-73990452D01*
X135834736Y-73857324D01*
X136081458Y-73611032D01*
X136215148Y-73289072D01*
X136215452Y-72940458D01*
X136215452Y-86141624D01*
X136008801Y-86152852D01*
X135653071Y-86300200D01*
X135591417Y-86535812D01*
X136346000Y-87290395D01*
X137100583Y-86535812D01*
X137100583Y-86895022D01*
X136525605Y-87470000D01*
X137280188Y-88224583D01*
X137515800Y-88162929D01*
X137691927Y-87662520D01*
X137691927Y-92124005D01*
X137476496Y-91908198D01*
X137476496Y-89786156D01*
X137304781Y-89370573D01*
X137100583Y-89166018D01*
X137100583Y-88404188D01*
X136346000Y-87649605D01*
X136166395Y-87829210D01*
X136166395Y-87470000D01*
X135411812Y-86715417D01*
X135190452Y-86773341D01*
X135190452Y-79168458D01*
X135057324Y-78846264D01*
X134811032Y-78599542D01*
X134489072Y-78465852D01*
X134140458Y-78465548D01*
X133818264Y-78598676D01*
X133607973Y-78808600D01*
X125796999Y-78808600D01*
X125786324Y-78782764D01*
X125540032Y-78536042D01*
X125218072Y-78402352D01*
X124869458Y-78402048D01*
X124547264Y-78535176D01*
X124300542Y-78781468D01*
X124166852Y-79103428D01*
X124166548Y-79452042D01*
X124299676Y-79774236D01*
X124545968Y-80020958D01*
X124867928Y-80154648D01*
X125216542Y-80154952D01*
X125538736Y-80021824D01*
X125685415Y-79875400D01*
X131480814Y-79875400D01*
X131405852Y-80055928D01*
X131405592Y-80353065D01*
X131172057Y-80586600D01*
X121102496Y-80586600D01*
X121102496Y-76700156D01*
X120930781Y-76284573D01*
X120613100Y-75966337D01*
X120197817Y-75793897D01*
X119748156Y-75793504D01*
X119332573Y-75965219D01*
X119014337Y-76282900D01*
X118841897Y-76698183D01*
X118841504Y-77147844D01*
X119013219Y-77563427D01*
X119330900Y-77881663D01*
X119746183Y-78054103D01*
X120195844Y-78054496D01*
X120611427Y-77882781D01*
X120929663Y-77565100D01*
X121102103Y-77149817D01*
X121102496Y-76700156D01*
X121102496Y-80586600D01*
X118777927Y-80586600D01*
X118777927Y-77116520D01*
X118749148Y-76586801D01*
X118601800Y-76231071D01*
X118366188Y-76169417D01*
X118186583Y-76349022D01*
X118186583Y-75989812D01*
X118124929Y-75754200D01*
X117624520Y-75578073D01*
X117571144Y-75580972D01*
X117571144Y-71035698D01*
X117543362Y-70480632D01*
X117384397Y-70096857D01*
X117142213Y-70027392D01*
X116341605Y-70828000D01*
X117142213Y-71628608D01*
X117384397Y-71559143D01*
X117571144Y-71035698D01*
X117571144Y-75580972D01*
X117094801Y-75606852D01*
X116739071Y-75754200D01*
X116695400Y-75921089D01*
X116695400Y-74439297D01*
X116837350Y-74380645D01*
X117173464Y-74045116D01*
X117355592Y-73606503D01*
X117356007Y-73131580D01*
X117174645Y-72692650D01*
X116839116Y-72356536D01*
X116487337Y-72210464D01*
X116509368Y-72209362D01*
X116893143Y-72050397D01*
X116962608Y-71808213D01*
X116162000Y-71007605D01*
X115982395Y-71187210D01*
X115982395Y-70828000D01*
X115181787Y-70027392D01*
X114939603Y-70096857D01*
X114752856Y-70620302D01*
X114780638Y-71175368D01*
X114939603Y-71559143D01*
X115181787Y-71628608D01*
X115982395Y-70828000D01*
X115982395Y-71187210D01*
X115361392Y-71808213D01*
X115430857Y-72050397D01*
X115856869Y-72202383D01*
X115486650Y-72355355D01*
X115150536Y-72690884D01*
X114968408Y-73129497D01*
X114967993Y-73604420D01*
X115149355Y-74043350D01*
X115484884Y-74379464D01*
X115628600Y-74439140D01*
X115628600Y-76062003D01*
X115533100Y-75966337D01*
X115117817Y-75793897D01*
X115061517Y-75793847D01*
X113749000Y-74481330D01*
X113749000Y-69176309D01*
X113749000Y-68573750D01*
X113749000Y-68002250D01*
X113749000Y-67399691D01*
X113652327Y-67166302D01*
X113473699Y-66987673D01*
X113240310Y-66891000D01*
X112987691Y-66891000D01*
X112637750Y-66891000D01*
X112479000Y-67049750D01*
X112479000Y-68161000D01*
X113590250Y-68161000D01*
X113749000Y-68002250D01*
X113749000Y-68573750D01*
X113590250Y-68415000D01*
X112479000Y-68415000D01*
X112479000Y-68435000D01*
X112225000Y-68435000D01*
X112225000Y-68415000D01*
X112205000Y-68415000D01*
X112205000Y-68161000D01*
X112225000Y-68161000D01*
X112225000Y-67049750D01*
X112066250Y-66891000D01*
X111716309Y-66891000D01*
X111463690Y-66891000D01*
X111230301Y-66987673D01*
X111051673Y-67166302D01*
X110975301Y-67350679D01*
X110887258Y-67216649D01*
X110743755Y-67119784D01*
X110574000Y-67085741D01*
X109050000Y-67085741D01*
X108885356Y-67117685D01*
X108740649Y-67212742D01*
X108643784Y-67356245D01*
X108609741Y-67526000D01*
X108609741Y-69050000D01*
X108641685Y-69214644D01*
X108736742Y-69359351D01*
X108880245Y-69456216D01*
X109050000Y-69490259D01*
X110574000Y-69490259D01*
X110738644Y-69458315D01*
X110883351Y-69363258D01*
X110975741Y-69226383D01*
X111051673Y-69409698D01*
X111230301Y-69588327D01*
X111463690Y-69685000D01*
X111716309Y-69685000D01*
X111992133Y-69685000D01*
X111676650Y-69815355D01*
X111412845Y-70078700D01*
X110750823Y-70078700D01*
X110489116Y-69816536D01*
X110050503Y-69634408D01*
X109575580Y-69633993D01*
X109136650Y-69815355D01*
X108872845Y-70078700D01*
X108474259Y-70078700D01*
X108474259Y-69050000D01*
X108474259Y-67526000D01*
X108442315Y-67361356D01*
X108347258Y-67216649D01*
X108203755Y-67119784D01*
X108034000Y-67085741D01*
X106510000Y-67085741D01*
X106345356Y-67117685D01*
X106200649Y-67212742D01*
X106103784Y-67356245D01*
X106069741Y-67526000D01*
X106069741Y-69050000D01*
X106101685Y-69214644D01*
X106196742Y-69359351D01*
X106340245Y-69456216D01*
X106510000Y-69490259D01*
X108034000Y-69490259D01*
X108198644Y-69458315D01*
X108343351Y-69363258D01*
X108440216Y-69219755D01*
X108474259Y-69050000D01*
X108474259Y-70078700D01*
X108210823Y-70078700D01*
X107949116Y-69816536D01*
X107510503Y-69634408D01*
X107035580Y-69633993D01*
X106596650Y-69815355D01*
X106332845Y-70078700D01*
X105934259Y-70078700D01*
X105934259Y-69050000D01*
X105934259Y-67526000D01*
X105902315Y-67361356D01*
X105807258Y-67216649D01*
X105663755Y-67119784D01*
X105494000Y-67085741D01*
X103970000Y-67085741D01*
X103805356Y-67117685D01*
X103660649Y-67212742D01*
X103563784Y-67356245D01*
X103529741Y-67526000D01*
X103529741Y-69050000D01*
X103561685Y-69214644D01*
X103656742Y-69359351D01*
X103800245Y-69456216D01*
X103970000Y-69490259D01*
X105494000Y-69490259D01*
X105658644Y-69458315D01*
X105803351Y-69363258D01*
X105900216Y-69219755D01*
X105934259Y-69050000D01*
X105934259Y-70078700D01*
X105670823Y-70078700D01*
X105409116Y-69816536D01*
X104970503Y-69634408D01*
X104495580Y-69633993D01*
X104056650Y-69815355D01*
X103792845Y-70078700D01*
X103394259Y-70078700D01*
X103394259Y-69050000D01*
X103394259Y-67526000D01*
X103362315Y-67361356D01*
X103267258Y-67216649D01*
X103123755Y-67119784D01*
X102954000Y-67085741D01*
X101430000Y-67085741D01*
X101265356Y-67117685D01*
X101120649Y-67212742D01*
X101023784Y-67356245D01*
X100989741Y-67526000D01*
X100989741Y-69050000D01*
X101021685Y-69214644D01*
X101116742Y-69359351D01*
X101260245Y-69456216D01*
X101430000Y-69490259D01*
X102954000Y-69490259D01*
X103118644Y-69458315D01*
X103263351Y-69363258D01*
X103360216Y-69219755D01*
X103394259Y-69050000D01*
X103394259Y-70078700D01*
X103130823Y-70078700D01*
X102869116Y-69816536D01*
X102430503Y-69634408D01*
X101955580Y-69633993D01*
X101516650Y-69815355D01*
X101252845Y-70078700D01*
X100854259Y-70078700D01*
X100854259Y-69050000D01*
X100854259Y-67526000D01*
X100822315Y-67361356D01*
X100727258Y-67216649D01*
X100583755Y-67119784D01*
X100414000Y-67085741D01*
X98890000Y-67085741D01*
X98725356Y-67117685D01*
X98580649Y-67212742D01*
X98483784Y-67356245D01*
X98449741Y-67526000D01*
X98449741Y-69050000D01*
X98481685Y-69214644D01*
X98576742Y-69359351D01*
X98720245Y-69456216D01*
X98890000Y-69490259D01*
X100414000Y-69490259D01*
X100578644Y-69458315D01*
X100723351Y-69363258D01*
X100820216Y-69219755D01*
X100854259Y-69050000D01*
X100854259Y-70078700D01*
X100590823Y-70078700D01*
X100329116Y-69816536D01*
X99890503Y-69634408D01*
X99415580Y-69633993D01*
X98976650Y-69815355D01*
X98712845Y-70078700D01*
X98314259Y-70078700D01*
X98314259Y-69050000D01*
X98314259Y-67526000D01*
X98282315Y-67361356D01*
X98187258Y-67216649D01*
X98043755Y-67119784D01*
X97874000Y-67085741D01*
X96350000Y-67085741D01*
X96185356Y-67117685D01*
X96040649Y-67212742D01*
X95943784Y-67356245D01*
X95909741Y-67526000D01*
X95909741Y-69050000D01*
X95941685Y-69214644D01*
X96036742Y-69359351D01*
X96180245Y-69456216D01*
X96350000Y-69490259D01*
X97874000Y-69490259D01*
X98038644Y-69458315D01*
X98183351Y-69363258D01*
X98280216Y-69219755D01*
X98314259Y-69050000D01*
X98314259Y-70078700D01*
X98050823Y-70078700D01*
X97789116Y-69816536D01*
X97350503Y-69634408D01*
X96875580Y-69633993D01*
X96436650Y-69815355D01*
X96100536Y-70150884D01*
X95918408Y-70589497D01*
X95917993Y-71064420D01*
X96099355Y-71503350D01*
X96434884Y-71839464D01*
X96873497Y-72021592D01*
X97348420Y-72022007D01*
X97787350Y-71840645D01*
X98051154Y-71577300D01*
X98713176Y-71577300D01*
X98974884Y-71839464D01*
X99413497Y-72021592D01*
X99888420Y-72022007D01*
X100327350Y-71840645D01*
X100591154Y-71577300D01*
X101253176Y-71577300D01*
X101514884Y-71839464D01*
X101953497Y-72021592D01*
X102428420Y-72022007D01*
X102867350Y-71840645D01*
X103131154Y-71577300D01*
X103793176Y-71577300D01*
X104054884Y-71839464D01*
X104493497Y-72021592D01*
X104968420Y-72022007D01*
X105407350Y-71840645D01*
X105671154Y-71577300D01*
X106333176Y-71577300D01*
X106594884Y-71839464D01*
X107033497Y-72021592D01*
X107508420Y-72022007D01*
X107947350Y-71840645D01*
X108211154Y-71577300D01*
X108873176Y-71577300D01*
X109134884Y-71839464D01*
X109573497Y-72021592D01*
X110048420Y-72022007D01*
X110487350Y-71840645D01*
X110751154Y-71577300D01*
X111413176Y-71577300D01*
X111674884Y-71839464D01*
X112113497Y-72021592D01*
X112588420Y-72022007D01*
X113027350Y-71840645D01*
X113363464Y-71505116D01*
X113545592Y-71066503D01*
X113546007Y-70591580D01*
X113364645Y-70152650D01*
X113029116Y-69816536D01*
X112712342Y-69685000D01*
X112987691Y-69685000D01*
X113240310Y-69685000D01*
X113473699Y-69588327D01*
X113652327Y-69409698D01*
X113749000Y-69176309D01*
X113749000Y-74481330D01*
X113338102Y-74070432D01*
X113363464Y-74045116D01*
X113545592Y-73606503D01*
X113546007Y-73131580D01*
X113364645Y-72692650D01*
X113029116Y-72356536D01*
X112590503Y-72174408D01*
X112115580Y-72173993D01*
X111676650Y-72355355D01*
X111340536Y-72690884D01*
X111158408Y-73129497D01*
X111157993Y-73604420D01*
X111339355Y-74043350D01*
X111643229Y-74347753D01*
X111659737Y-74430745D01*
X111822165Y-74673835D01*
X113786723Y-76638393D01*
X113761897Y-76698183D01*
X113761504Y-77147844D01*
X113933219Y-77563427D01*
X114250900Y-77881663D01*
X114666183Y-78054103D01*
X114785450Y-78054207D01*
X114627848Y-78211809D01*
X114328458Y-78211548D01*
X114006264Y-78344676D01*
X113759542Y-78590968D01*
X113625852Y-78912928D01*
X113625548Y-79261542D01*
X113758676Y-79583736D01*
X114004968Y-79830458D01*
X114326928Y-79964148D01*
X114675542Y-79964452D01*
X114997736Y-79831324D01*
X115244458Y-79585032D01*
X115378148Y-79263072D01*
X115378403Y-78969938D01*
X116539171Y-77809171D01*
X116654797Y-77636123D01*
X116683234Y-77493160D01*
X116683235Y-77493159D01*
X117252395Y-76924000D01*
X117238252Y-76909857D01*
X117417857Y-76730252D01*
X117432000Y-76744395D01*
X118186583Y-75989812D01*
X118186583Y-76349022D01*
X117611605Y-76924000D01*
X118366188Y-77678583D01*
X118601800Y-77616929D01*
X118777927Y-77116520D01*
X118777927Y-80586600D01*
X118186583Y-80586600D01*
X118186583Y-77858188D01*
X117432000Y-77103605D01*
X116677417Y-77858188D01*
X116739071Y-78093800D01*
X117239480Y-78269927D01*
X117769199Y-78241148D01*
X118124929Y-78093800D01*
X118186583Y-77858188D01*
X118186583Y-80586600D01*
X113482496Y-80586600D01*
X113482496Y-76700156D01*
X113310781Y-76284573D01*
X112993100Y-75966337D01*
X112577817Y-75793897D01*
X112128156Y-75793504D01*
X111712573Y-75965219D01*
X111394337Y-76282900D01*
X111221897Y-76698183D01*
X111221504Y-77147844D01*
X111393219Y-77563427D01*
X111710900Y-77881663D01*
X112126183Y-78054103D01*
X112575844Y-78054496D01*
X112991427Y-77882781D01*
X113309663Y-77565100D01*
X113482103Y-77149817D01*
X113482496Y-76700156D01*
X113482496Y-80586600D01*
X113300000Y-80586600D01*
X111006007Y-80586600D01*
X111006007Y-73131580D01*
X110824645Y-72692650D01*
X110489116Y-72356536D01*
X110050503Y-72174408D01*
X109575580Y-72173993D01*
X109136650Y-72355355D01*
X108800536Y-72690884D01*
X108618408Y-73129497D01*
X108617993Y-73604420D01*
X108799355Y-74043350D01*
X109062700Y-74307154D01*
X109062700Y-76074900D01*
X108854337Y-76282900D01*
X108681897Y-76698183D01*
X108681504Y-77147844D01*
X108853219Y-77563427D01*
X109170900Y-77881663D01*
X109586183Y-78054103D01*
X110035844Y-78054496D01*
X110451427Y-77882781D01*
X110769663Y-77565100D01*
X110942103Y-77149817D01*
X110942496Y-76700156D01*
X110770781Y-76284573D01*
X110561300Y-76074726D01*
X110561300Y-74306823D01*
X110823464Y-74045116D01*
X111005592Y-73606503D01*
X111006007Y-73131580D01*
X111006007Y-80586600D01*
X108466007Y-80586600D01*
X108466007Y-73131580D01*
X108284645Y-72692650D01*
X107949116Y-72356536D01*
X107510503Y-72174408D01*
X107035580Y-72173993D01*
X106596650Y-72355355D01*
X106260536Y-72690884D01*
X106078408Y-73129497D01*
X106077993Y-73604420D01*
X106259355Y-74043350D01*
X106522700Y-74307154D01*
X106522700Y-76074900D01*
X106314337Y-76282900D01*
X106141897Y-76698183D01*
X106141504Y-77147844D01*
X106313219Y-77563427D01*
X106630900Y-77881663D01*
X107046183Y-78054103D01*
X107495844Y-78054496D01*
X107911427Y-77882781D01*
X108229663Y-77565100D01*
X108402103Y-77149817D01*
X108402496Y-76700156D01*
X108230781Y-76284573D01*
X108021300Y-76074726D01*
X108021300Y-74306823D01*
X108283464Y-74045116D01*
X108465592Y-73606503D01*
X108466007Y-73131580D01*
X108466007Y-80586600D01*
X105926007Y-80586600D01*
X105926007Y-73131580D01*
X105744645Y-72692650D01*
X105409116Y-72356536D01*
X104970503Y-72174408D01*
X104495580Y-72173993D01*
X104056650Y-72355355D01*
X103720536Y-72690884D01*
X103538408Y-73129497D01*
X103537993Y-73604420D01*
X103719355Y-74043350D01*
X103982700Y-74307154D01*
X103982700Y-76074900D01*
X103774337Y-76282900D01*
X103601897Y-76698183D01*
X103601504Y-77147844D01*
X103773219Y-77563427D01*
X104090900Y-77881663D01*
X104506183Y-78054103D01*
X104955844Y-78054496D01*
X105371427Y-77882781D01*
X105689663Y-77565100D01*
X105862103Y-77149817D01*
X105862496Y-76700156D01*
X105690781Y-76284573D01*
X105481300Y-76074726D01*
X105481300Y-74306823D01*
X105743464Y-74045116D01*
X105925592Y-73606503D01*
X105926007Y-73131580D01*
X105926007Y-80586600D01*
X103386007Y-80586600D01*
X103386007Y-73131580D01*
X103204645Y-72692650D01*
X102869116Y-72356536D01*
X102430503Y-72174408D01*
X101955580Y-72173993D01*
X101516650Y-72355355D01*
X101180536Y-72690884D01*
X100998408Y-73129497D01*
X100997993Y-73604420D01*
X101179355Y-74043350D01*
X101442700Y-74307154D01*
X101442700Y-76074900D01*
X101234337Y-76282900D01*
X101061897Y-76698183D01*
X101061504Y-77147844D01*
X101233219Y-77563427D01*
X101550900Y-77881663D01*
X101966183Y-78054103D01*
X102415844Y-78054496D01*
X102831427Y-77882781D01*
X103149663Y-77565100D01*
X103322103Y-77149817D01*
X103322496Y-76700156D01*
X103150781Y-76284573D01*
X102941300Y-76074726D01*
X102941300Y-74306823D01*
X103203464Y-74045116D01*
X103385592Y-73606503D01*
X103386007Y-73131580D01*
X103386007Y-80586600D01*
X100846007Y-80586600D01*
X100846007Y-73131580D01*
X100664645Y-72692650D01*
X100329116Y-72356536D01*
X99890503Y-72174408D01*
X99415580Y-72173993D01*
X98976650Y-72355355D01*
X98640536Y-72690884D01*
X98458408Y-73129497D01*
X98457993Y-73604420D01*
X98639355Y-74043350D01*
X98902700Y-74307154D01*
X98902700Y-76074900D01*
X98694337Y-76282900D01*
X98521897Y-76698183D01*
X98521504Y-77147844D01*
X98693219Y-77563427D01*
X99010900Y-77881663D01*
X99426183Y-78054103D01*
X99875844Y-78054496D01*
X100291427Y-77882781D01*
X100609663Y-77565100D01*
X100782103Y-77149817D01*
X100782496Y-76700156D01*
X100610781Y-76284573D01*
X100401300Y-76074726D01*
X100401300Y-74306823D01*
X100663464Y-74045116D01*
X100845592Y-73606503D01*
X100846007Y-73131580D01*
X100846007Y-80586600D01*
X99280000Y-80586600D01*
X99075877Y-80627203D01*
X98902829Y-80742829D01*
X98306007Y-81339651D01*
X98306007Y-73131580D01*
X98124645Y-72692650D01*
X97789116Y-72356536D01*
X97350503Y-72174408D01*
X96875580Y-72173993D01*
X96436650Y-72355355D01*
X96100536Y-72690884D01*
X95918408Y-73129497D01*
X95917993Y-73604420D01*
X96099355Y-74043350D01*
X96362700Y-74307154D01*
X96362700Y-76074900D01*
X96154337Y-76282900D01*
X95981897Y-76698183D01*
X95981504Y-77147844D01*
X96153219Y-77563427D01*
X96470900Y-77881663D01*
X96886183Y-78054103D01*
X97335844Y-78054496D01*
X97751427Y-77882781D01*
X98069663Y-77565100D01*
X98242103Y-77149817D01*
X98242496Y-76700156D01*
X98070781Y-76284573D01*
X97861300Y-76074726D01*
X97861300Y-74306823D01*
X98123464Y-74045116D01*
X98305592Y-73606503D01*
X98306007Y-73131580D01*
X98306007Y-81339651D01*
X96734829Y-82910829D01*
X96656190Y-83028520D01*
X93949144Y-80321474D01*
X93949144Y-62145698D01*
X93921362Y-61590632D01*
X93762397Y-61206857D01*
X93520213Y-61137392D01*
X93340608Y-61316997D01*
X93340608Y-60957787D01*
X93271143Y-60715603D01*
X92747698Y-60528856D01*
X92192632Y-60556638D01*
X91808857Y-60715603D01*
X91739392Y-60957787D01*
X92540000Y-61758395D01*
X93340608Y-60957787D01*
X93340608Y-61316997D01*
X92719605Y-61938000D01*
X93520213Y-62738608D01*
X93762397Y-62669143D01*
X93949144Y-62145698D01*
X93949144Y-80321474D01*
X93289300Y-79661630D01*
X93289300Y-75756272D01*
X93659067Y-75387150D01*
X93860570Y-74901876D01*
X93861029Y-74376429D01*
X93660373Y-73890804D01*
X93289300Y-73519083D01*
X93289300Y-73036823D01*
X93551464Y-72775116D01*
X93733592Y-72336503D01*
X93734007Y-71861580D01*
X93552645Y-71422650D01*
X93340608Y-71210243D01*
X93340608Y-62918213D01*
X92540000Y-62117605D01*
X92360395Y-62297210D01*
X92360395Y-61938000D01*
X91559787Y-61137392D01*
X91317603Y-61206857D01*
X91130856Y-61730302D01*
X91158638Y-62285368D01*
X91317603Y-62669143D01*
X91559787Y-62738608D01*
X92360395Y-61938000D01*
X92360395Y-62297210D01*
X91739392Y-62918213D01*
X91808857Y-63160397D01*
X92332302Y-63347144D01*
X92887368Y-63319362D01*
X93271143Y-63160397D01*
X93340608Y-62918213D01*
X93340608Y-71210243D01*
X93217116Y-71086536D01*
X92778503Y-70904408D01*
X92303580Y-70903993D01*
X91864650Y-71085355D01*
X91528536Y-71420884D01*
X91346408Y-71859497D01*
X91345993Y-72334420D01*
X91527355Y-72773350D01*
X91790700Y-73037154D01*
X91790700Y-73519727D01*
X91420933Y-73888850D01*
X91219430Y-74374124D01*
X91218971Y-74899571D01*
X91419627Y-75385196D01*
X91790700Y-75756916D01*
X91790700Y-79972000D01*
X91847737Y-80258745D01*
X92010165Y-80501835D01*
X95973241Y-84464911D01*
X95973241Y-85242500D01*
X96005185Y-85407144D01*
X96100242Y-85551851D01*
X96243745Y-85648716D01*
X96413500Y-85682759D01*
X97810500Y-85682759D01*
X97975144Y-85650815D01*
X98119851Y-85555758D01*
X98216716Y-85412255D01*
X98250759Y-85242500D01*
X98250759Y-83845500D01*
X98218815Y-83680856D01*
X98123758Y-83536149D01*
X97980255Y-83439284D01*
X97810500Y-83405241D01*
X97749101Y-83405241D01*
X99500942Y-81653400D01*
X113300000Y-81653400D01*
X131393000Y-81653400D01*
X131597123Y-81612797D01*
X131770171Y-81497171D01*
X132160147Y-81107194D01*
X132455542Y-81107452D01*
X132777736Y-80974324D01*
X133024458Y-80728032D01*
X133158148Y-80406072D01*
X133158452Y-80057458D01*
X133083227Y-79875400D01*
X133608274Y-79875400D01*
X133816968Y-80084458D01*
X134138928Y-80218148D01*
X134487542Y-80218452D01*
X134809736Y-80085324D01*
X135056458Y-79839032D01*
X135190148Y-79517072D01*
X135190452Y-79168458D01*
X135190452Y-86773341D01*
X135176200Y-86777071D01*
X135000073Y-87277480D01*
X135028852Y-87807199D01*
X135176200Y-88162929D01*
X135411812Y-88224583D01*
X136166395Y-87470000D01*
X136166395Y-87829210D01*
X135591417Y-88404188D01*
X135653071Y-88639800D01*
X136153480Y-88815927D01*
X136683199Y-88787148D01*
X137038929Y-88639800D01*
X137100583Y-88404188D01*
X137100583Y-89166018D01*
X136987100Y-89052337D01*
X136571817Y-88879897D01*
X136122156Y-88879504D01*
X135706573Y-89051219D01*
X135388337Y-89368900D01*
X135215897Y-89784183D01*
X135215504Y-90233844D01*
X135387219Y-90649427D01*
X135704900Y-90967663D01*
X136120183Y-91140103D01*
X136569844Y-91140496D01*
X136985427Y-90968781D01*
X137303663Y-90651100D01*
X137476103Y-90235817D01*
X137476496Y-89786156D01*
X137476496Y-91908198D01*
X137233043Y-91664320D01*
X135786553Y-91063685D01*
X134220318Y-91062318D01*
X132772782Y-91660428D01*
X131664320Y-92766957D01*
X131541144Y-93063597D01*
X131541144Y-90847698D01*
X131513362Y-90292632D01*
X131354397Y-89908857D01*
X131326007Y-89900713D01*
X131326007Y-87863580D01*
X131144645Y-87424650D01*
X130881300Y-87160845D01*
X130881300Y-85393099D01*
X131089663Y-85185100D01*
X131262103Y-84769817D01*
X131262496Y-84320156D01*
X131090781Y-83904573D01*
X130773100Y-83586337D01*
X130357817Y-83413897D01*
X129908156Y-83413504D01*
X129492573Y-83585219D01*
X129174337Y-83902900D01*
X129001897Y-84318183D01*
X129001504Y-84767844D01*
X129173219Y-85183427D01*
X129382700Y-85393273D01*
X129382700Y-87161176D01*
X129120536Y-87422884D01*
X128938408Y-87861497D01*
X128937993Y-88336420D01*
X129119355Y-88775350D01*
X129454884Y-89111464D01*
X129806662Y-89257535D01*
X129784632Y-89258638D01*
X129400857Y-89417603D01*
X129331392Y-89659787D01*
X130132000Y-90460395D01*
X130932608Y-89659787D01*
X130863143Y-89417603D01*
X130437130Y-89265616D01*
X130807350Y-89112645D01*
X131143464Y-88777116D01*
X131325592Y-88338503D01*
X131326007Y-87863580D01*
X131326007Y-89900713D01*
X131112213Y-89839392D01*
X130311605Y-90640000D01*
X131112213Y-91440608D01*
X131354397Y-91371143D01*
X131541144Y-90847698D01*
X131541144Y-93063597D01*
X131334259Y-93561832D01*
X131334259Y-92418000D01*
X131302315Y-92253356D01*
X131207258Y-92108649D01*
X131063755Y-92011784D01*
X130894000Y-91977741D01*
X130584678Y-91977741D01*
X130863143Y-91862397D01*
X130932608Y-91620213D01*
X130132000Y-90819605D01*
X129952395Y-90999210D01*
X129952395Y-90640000D01*
X129151787Y-89839392D01*
X128909603Y-89908857D01*
X128865547Y-90032344D01*
X128814397Y-89908857D01*
X128786007Y-89900713D01*
X128786007Y-87863580D01*
X128604645Y-87424650D01*
X128341300Y-87160845D01*
X128341300Y-85393099D01*
X128549663Y-85185100D01*
X128722103Y-84769817D01*
X128722496Y-84320156D01*
X128550781Y-83904573D01*
X128233100Y-83586337D01*
X127817817Y-83413897D01*
X127368156Y-83413504D01*
X126952573Y-83585219D01*
X126634337Y-83902900D01*
X126461897Y-84318183D01*
X126461504Y-84767844D01*
X126633219Y-85183427D01*
X126842700Y-85393273D01*
X126842700Y-87161176D01*
X126580536Y-87422884D01*
X126398408Y-87861497D01*
X126397993Y-88336420D01*
X126579355Y-88775350D01*
X126914884Y-89111464D01*
X127266662Y-89257535D01*
X127244632Y-89258638D01*
X126860857Y-89417603D01*
X126791392Y-89659787D01*
X127592000Y-90460395D01*
X128392608Y-89659787D01*
X128323143Y-89417603D01*
X127897130Y-89265616D01*
X128267350Y-89112645D01*
X128603464Y-88777116D01*
X128785592Y-88338503D01*
X128786007Y-87863580D01*
X128786007Y-89900713D01*
X128572213Y-89839392D01*
X127771605Y-90640000D01*
X128572213Y-91440608D01*
X128814397Y-91371143D01*
X128858452Y-91247655D01*
X128909603Y-91371143D01*
X129151787Y-91440608D01*
X129952395Y-90640000D01*
X129952395Y-90999210D01*
X129331392Y-91620213D01*
X129400857Y-91862397D01*
X129724162Y-91977741D01*
X129370000Y-91977741D01*
X129205356Y-92009685D01*
X129060649Y-92104742D01*
X128963784Y-92248245D01*
X128929741Y-92418000D01*
X128929741Y-93942000D01*
X128961685Y-94106644D01*
X129056742Y-94251351D01*
X129200245Y-94348216D01*
X129370000Y-94382259D01*
X130894000Y-94382259D01*
X131058644Y-94350315D01*
X131063568Y-94347080D01*
X131062318Y-95779682D01*
X131660428Y-97227218D01*
X132766957Y-98335680D01*
X132921134Y-98399700D01*
X128794259Y-98399700D01*
X128794259Y-93942000D01*
X128794259Y-92418000D01*
X128762315Y-92253356D01*
X128667258Y-92108649D01*
X128523755Y-92011784D01*
X128354000Y-91977741D01*
X128044678Y-91977741D01*
X128323143Y-91862397D01*
X128392608Y-91620213D01*
X127592000Y-90819605D01*
X127412395Y-90999210D01*
X127412395Y-90640000D01*
X126611787Y-89839392D01*
X126369603Y-89908857D01*
X126325547Y-90032344D01*
X126274397Y-89908857D01*
X126246007Y-89900713D01*
X126246007Y-87863580D01*
X126064645Y-87424650D01*
X125801300Y-87160845D01*
X125801300Y-85393099D01*
X126009663Y-85185100D01*
X126182103Y-84769817D01*
X126182496Y-84320156D01*
X126010781Y-83904573D01*
X125693100Y-83586337D01*
X125277817Y-83413897D01*
X124828156Y-83413504D01*
X124412573Y-83585219D01*
X124094337Y-83902900D01*
X123921897Y-84318183D01*
X123921504Y-84767844D01*
X124093219Y-85183427D01*
X124302700Y-85393273D01*
X124302700Y-87161176D01*
X124040536Y-87422884D01*
X123858408Y-87861497D01*
X123857993Y-88336420D01*
X124039355Y-88775350D01*
X124374884Y-89111464D01*
X124726662Y-89257535D01*
X124704632Y-89258638D01*
X124320857Y-89417603D01*
X124251392Y-89659787D01*
X125052000Y-90460395D01*
X125852608Y-89659787D01*
X125783143Y-89417603D01*
X125357130Y-89265616D01*
X125727350Y-89112645D01*
X126063464Y-88777116D01*
X126245592Y-88338503D01*
X126246007Y-87863580D01*
X126246007Y-89900713D01*
X126032213Y-89839392D01*
X125231605Y-90640000D01*
X126032213Y-91440608D01*
X126274397Y-91371143D01*
X126318452Y-91247655D01*
X126369603Y-91371143D01*
X126611787Y-91440608D01*
X127412395Y-90640000D01*
X127412395Y-90999210D01*
X126791392Y-91620213D01*
X126860857Y-91862397D01*
X127184162Y-91977741D01*
X126830000Y-91977741D01*
X126665356Y-92009685D01*
X126520649Y-92104742D01*
X126423784Y-92248245D01*
X126389741Y-92418000D01*
X126389741Y-93942000D01*
X126421685Y-94106644D01*
X126516742Y-94251351D01*
X126660245Y-94348216D01*
X126830000Y-94382259D01*
X128354000Y-94382259D01*
X128518644Y-94350315D01*
X128663351Y-94255258D01*
X128760216Y-94111755D01*
X128794259Y-93942000D01*
X128794259Y-98399700D01*
X126254259Y-98399700D01*
X126254259Y-93942000D01*
X126254259Y-92418000D01*
X126222315Y-92253356D01*
X126127258Y-92108649D01*
X125983755Y-92011784D01*
X125814000Y-91977741D01*
X125504678Y-91977741D01*
X125783143Y-91862397D01*
X125852608Y-91620213D01*
X125052000Y-90819605D01*
X124872395Y-90999210D01*
X124872395Y-90640000D01*
X124071787Y-89839392D01*
X123829603Y-89908857D01*
X123785547Y-90032344D01*
X123734397Y-89908857D01*
X123706007Y-89900713D01*
X123706007Y-87863580D01*
X123524645Y-87424650D01*
X123261300Y-87160845D01*
X123261300Y-85393099D01*
X123469663Y-85185100D01*
X123642103Y-84769817D01*
X123642496Y-84320156D01*
X123470781Y-83904573D01*
X123153100Y-83586337D01*
X122737817Y-83413897D01*
X122288156Y-83413504D01*
X121872573Y-83585219D01*
X121554337Y-83902900D01*
X121381897Y-84318183D01*
X121381504Y-84767844D01*
X121553219Y-85183427D01*
X121762700Y-85393273D01*
X121762700Y-87161176D01*
X121500536Y-87422884D01*
X121318408Y-87861497D01*
X121317993Y-88336420D01*
X121499355Y-88775350D01*
X121834884Y-89111464D01*
X122186662Y-89257535D01*
X122164632Y-89258638D01*
X121780857Y-89417603D01*
X121711392Y-89659787D01*
X122512000Y-90460395D01*
X123312608Y-89659787D01*
X123243143Y-89417603D01*
X122817130Y-89265616D01*
X123187350Y-89112645D01*
X123523464Y-88777116D01*
X123705592Y-88338503D01*
X123706007Y-87863580D01*
X123706007Y-89900713D01*
X123492213Y-89839392D01*
X122691605Y-90640000D01*
X123492213Y-91440608D01*
X123734397Y-91371143D01*
X123778452Y-91247655D01*
X123829603Y-91371143D01*
X124071787Y-91440608D01*
X124872395Y-90640000D01*
X124872395Y-90999210D01*
X124251392Y-91620213D01*
X124320857Y-91862397D01*
X124644162Y-91977741D01*
X124290000Y-91977741D01*
X124125356Y-92009685D01*
X123980649Y-92104742D01*
X123883784Y-92248245D01*
X123849741Y-92418000D01*
X123849741Y-93942000D01*
X123881685Y-94106644D01*
X123976742Y-94251351D01*
X124120245Y-94348216D01*
X124290000Y-94382259D01*
X125814000Y-94382259D01*
X125978644Y-94350315D01*
X126123351Y-94255258D01*
X126220216Y-94111755D01*
X126254259Y-93942000D01*
X126254259Y-98399700D01*
X123714259Y-98399700D01*
X123714259Y-93942000D01*
X123714259Y-92418000D01*
X123682315Y-92253356D01*
X123587258Y-92108649D01*
X123443755Y-92011784D01*
X123274000Y-91977741D01*
X122964678Y-91977741D01*
X123243143Y-91862397D01*
X123312608Y-91620213D01*
X122512000Y-90819605D01*
X122332395Y-90999210D01*
X122332395Y-90640000D01*
X121531787Y-89839392D01*
X121289603Y-89908857D01*
X121102856Y-90432302D01*
X121130638Y-90987368D01*
X121289603Y-91371143D01*
X121531787Y-91440608D01*
X122332395Y-90640000D01*
X122332395Y-90999210D01*
X121711392Y-91620213D01*
X121780857Y-91862397D01*
X122104162Y-91977741D01*
X121750000Y-91977741D01*
X121585356Y-92009685D01*
X121440649Y-92104742D01*
X121343784Y-92248245D01*
X121309741Y-92418000D01*
X121309741Y-93942000D01*
X121341685Y-94106644D01*
X121436742Y-94251351D01*
X121580245Y-94348216D01*
X121750000Y-94382259D01*
X123274000Y-94382259D01*
X123438644Y-94350315D01*
X123583351Y-94255258D01*
X123680216Y-94111755D01*
X123714259Y-93942000D01*
X123714259Y-98399700D01*
X121102496Y-98399700D01*
X121102496Y-84320156D01*
X120979000Y-84021272D01*
X120979000Y-83279000D01*
X116788000Y-83279000D01*
X116434841Y-83279000D01*
X116157975Y-84386466D01*
X116022496Y-84792903D01*
X116022496Y-84320156D01*
X115850781Y-83904573D01*
X115533100Y-83586337D01*
X115117817Y-83413897D01*
X114668156Y-83413504D01*
X114252573Y-83585219D01*
X113934337Y-83902900D01*
X113761897Y-84318183D01*
X113761504Y-84767844D01*
X113933219Y-85183427D01*
X114250900Y-85501663D01*
X114666183Y-85674103D01*
X115115844Y-85674496D01*
X115531427Y-85502781D01*
X115849663Y-85185100D01*
X116022103Y-84769817D01*
X116022496Y-84320156D01*
X116022496Y-84792903D01*
X115680464Y-85819000D01*
X114438500Y-85819000D01*
X113697927Y-86806430D01*
X113697927Y-84736520D01*
X113669148Y-84206801D01*
X113521800Y-83851071D01*
X113286188Y-83789417D01*
X113106583Y-83969022D01*
X113106583Y-83609812D01*
X113044929Y-83374200D01*
X112544520Y-83198073D01*
X112014801Y-83226852D01*
X111659071Y-83374200D01*
X111597417Y-83609812D01*
X112352000Y-84364395D01*
X113106583Y-83609812D01*
X113106583Y-83969022D01*
X112531605Y-84544000D01*
X113286188Y-85298583D01*
X113521800Y-85236929D01*
X113697927Y-84736520D01*
X113697927Y-86806430D01*
X113676500Y-86835000D01*
X112551374Y-86835000D01*
X112584148Y-86756072D01*
X112584452Y-86407458D01*
X112451324Y-86085264D01*
X112251345Y-85884936D01*
X112689199Y-85861148D01*
X113044929Y-85713800D01*
X113106583Y-85478188D01*
X112352000Y-84723605D01*
X112172395Y-84903210D01*
X112172395Y-84544000D01*
X111417812Y-83789417D01*
X111182200Y-83851071D01*
X111006073Y-84351480D01*
X111034852Y-84881199D01*
X111182200Y-85236929D01*
X111417812Y-85298583D01*
X112172395Y-84544000D01*
X112172395Y-84903210D01*
X111597417Y-85478188D01*
X111656677Y-85704654D01*
X111534458Y-85704548D01*
X111212264Y-85837676D01*
X110965542Y-86083968D01*
X110831852Y-86405928D01*
X110831548Y-86754542D01*
X110958700Y-87062272D01*
X110958700Y-87749088D01*
X110824645Y-87424650D01*
X110561300Y-87160845D01*
X110561300Y-85393099D01*
X110769663Y-85185100D01*
X110942103Y-84769817D01*
X110942496Y-84320156D01*
X110770781Y-83904573D01*
X110453100Y-83586337D01*
X110037817Y-83413897D01*
X109588156Y-83413504D01*
X109172573Y-83585219D01*
X108854337Y-83902900D01*
X108681897Y-84318183D01*
X108681504Y-84767844D01*
X108853219Y-85183427D01*
X109062700Y-85393273D01*
X109062700Y-87161176D01*
X108800536Y-87422884D01*
X108618408Y-87861497D01*
X108617993Y-88336420D01*
X108799355Y-88775350D01*
X109134884Y-89111464D01*
X109486662Y-89257535D01*
X109464632Y-89258638D01*
X109080857Y-89417603D01*
X109011392Y-89659784D01*
X108896382Y-89544774D01*
X108847749Y-89593407D01*
X108277171Y-89022829D01*
X108133492Y-88926826D01*
X108283464Y-88777116D01*
X108465592Y-88338503D01*
X108466007Y-87863580D01*
X108284645Y-87424650D01*
X108021300Y-87160845D01*
X108021300Y-85393099D01*
X108229663Y-85185100D01*
X108402103Y-84769817D01*
X108402496Y-84320156D01*
X108230781Y-83904573D01*
X107913100Y-83586337D01*
X107497817Y-83413897D01*
X107048156Y-83413504D01*
X106632573Y-83585219D01*
X106314337Y-83902900D01*
X106141897Y-84318183D01*
X106141504Y-84767844D01*
X106313219Y-85183427D01*
X106522700Y-85393273D01*
X106522700Y-87161176D01*
X106260536Y-87422884D01*
X106078408Y-87861497D01*
X106077993Y-88336420D01*
X106259355Y-88775350D01*
X106350446Y-88866600D01*
X105653823Y-88866600D01*
X105743464Y-88777116D01*
X105925592Y-88338503D01*
X105926007Y-87863580D01*
X105744645Y-87424650D01*
X105481300Y-87160845D01*
X105481300Y-85393099D01*
X105689663Y-85185100D01*
X105862103Y-84769817D01*
X105862496Y-84320156D01*
X105690781Y-83904573D01*
X105373100Y-83586337D01*
X104957817Y-83413897D01*
X104508156Y-83413504D01*
X104092573Y-83585219D01*
X103774337Y-83902900D01*
X103601897Y-84318183D01*
X103601504Y-84767844D01*
X103773219Y-85183427D01*
X103982700Y-85393273D01*
X103982700Y-87161176D01*
X103720536Y-87422884D01*
X103538408Y-87861497D01*
X103538134Y-88174185D01*
X103500000Y-88166600D01*
X103385742Y-88166600D01*
X103386007Y-87863580D01*
X103204645Y-87424650D01*
X102941300Y-87160845D01*
X102941300Y-85393099D01*
X103149663Y-85185100D01*
X103322103Y-84769817D01*
X103322496Y-84320156D01*
X103150781Y-83904573D01*
X102833100Y-83586337D01*
X102417817Y-83413897D01*
X101968156Y-83413504D01*
X101552573Y-83585219D01*
X101234337Y-83902900D01*
X101061897Y-84318183D01*
X101061504Y-84767844D01*
X101233219Y-85183427D01*
X101442700Y-85393273D01*
X101442700Y-87161176D01*
X101180536Y-87422884D01*
X100998408Y-87861497D01*
X100997993Y-88336420D01*
X101179355Y-88775350D01*
X101514884Y-89111464D01*
X101866662Y-89257535D01*
X101844632Y-89258638D01*
X101460857Y-89417603D01*
X101433400Y-89513329D01*
X101433400Y-89348005D01*
X101433400Y-89348000D01*
X101433401Y-89348000D01*
X101392797Y-89143877D01*
X101277171Y-88970830D01*
X101277171Y-88970829D01*
X101277167Y-88970826D01*
X100786691Y-88480350D01*
X100845592Y-88338503D01*
X100846007Y-87863580D01*
X100664645Y-87424650D01*
X100401300Y-87160845D01*
X100401300Y-85393099D01*
X100609663Y-85185100D01*
X100782103Y-84769817D01*
X100782496Y-84320156D01*
X100610781Y-83904573D01*
X100293100Y-83586337D01*
X99877817Y-83413897D01*
X99428156Y-83413504D01*
X99012573Y-83585219D01*
X98694337Y-83902900D01*
X98521897Y-84318183D01*
X98521504Y-84767844D01*
X98693219Y-85183427D01*
X98902700Y-85393273D01*
X98902700Y-87161176D01*
X98640536Y-87422884D01*
X98458408Y-87861497D01*
X98457993Y-88336420D01*
X98639355Y-88775350D01*
X98974884Y-89111464D01*
X99326662Y-89257535D01*
X99304632Y-89258638D01*
X98920857Y-89417603D01*
X98851392Y-89659787D01*
X99652000Y-90460395D01*
X99666142Y-90446252D01*
X99845747Y-90625857D01*
X99831605Y-90640000D01*
X99845747Y-90654142D01*
X99666142Y-90833747D01*
X99652000Y-90819605D01*
X99472395Y-90999210D01*
X99472395Y-90640000D01*
X98671787Y-89839392D01*
X98429603Y-89908857D01*
X98242856Y-90432302D01*
X98270638Y-90987368D01*
X98429603Y-91371143D01*
X98671787Y-91440608D01*
X99472395Y-90640000D01*
X99472395Y-90999210D01*
X98851392Y-91620213D01*
X98920857Y-91862397D01*
X99244162Y-91977741D01*
X98890000Y-91977741D01*
X98725356Y-92009685D01*
X98580649Y-92104742D01*
X98483784Y-92248245D01*
X98449741Y-92418000D01*
X98449741Y-93942000D01*
X98481685Y-94106644D01*
X98576742Y-94251351D01*
X98720245Y-94348216D01*
X98890000Y-94382259D01*
X100366600Y-94382259D01*
X100366600Y-94400000D01*
X100407203Y-94604123D01*
X100522829Y-94777171D01*
X101322829Y-95577171D01*
X101495877Y-95692797D01*
X101700000Y-95733400D01*
X106379058Y-95733400D01*
X107173450Y-96527792D01*
X107076408Y-96761497D01*
X107075993Y-97236420D01*
X107257355Y-97675350D01*
X107592884Y-98011464D01*
X108031497Y-98193592D01*
X108506420Y-98194007D01*
X108945350Y-98012645D01*
X109281464Y-97677116D01*
X109463592Y-97238503D01*
X109464007Y-96763580D01*
X109282645Y-96324650D01*
X108947116Y-95988536D01*
X108508503Y-95806408D01*
X108033580Y-95805993D01*
X107981750Y-95827408D01*
X106977171Y-94822829D01*
X106804123Y-94707203D01*
X106600000Y-94666600D01*
X105934259Y-94666600D01*
X105934259Y-93942000D01*
X105934259Y-92418000D01*
X105902315Y-92253356D01*
X105807258Y-92108649D01*
X105663755Y-92011784D01*
X105494000Y-91977741D01*
X105184678Y-91977741D01*
X105463143Y-91862397D01*
X105532608Y-91620213D01*
X104732000Y-90819605D01*
X104552395Y-90999210D01*
X103931392Y-91620213D01*
X104000857Y-91862397D01*
X104324162Y-91977741D01*
X103970000Y-91977741D01*
X103805356Y-92009685D01*
X103660649Y-92104742D01*
X103563784Y-92248245D01*
X103529741Y-92418000D01*
X103529741Y-93942000D01*
X103561685Y-94106644D01*
X103656742Y-94251351D01*
X103800245Y-94348216D01*
X103970000Y-94382259D01*
X105494000Y-94382259D01*
X105658644Y-94350315D01*
X105803351Y-94255258D01*
X105900216Y-94111755D01*
X105934259Y-93942000D01*
X105934259Y-94666600D01*
X101920942Y-94666600D01*
X101636601Y-94382259D01*
X102954000Y-94382259D01*
X103118644Y-94350315D01*
X103263351Y-94255258D01*
X103360216Y-94111755D01*
X103394259Y-93942000D01*
X103394259Y-92418000D01*
X103362315Y-92253356D01*
X103267258Y-92108649D01*
X103123755Y-92011784D01*
X102954000Y-91977741D01*
X102644678Y-91977741D01*
X102923143Y-91862397D01*
X102992608Y-91620213D01*
X102192000Y-90819605D01*
X102177857Y-90833747D01*
X101998252Y-90654142D01*
X102012395Y-90640000D01*
X101998252Y-90625857D01*
X102177857Y-90446252D01*
X102192000Y-90460395D01*
X102992608Y-89659787D01*
X102923143Y-89417603D01*
X102497130Y-89265616D01*
X102645585Y-89204276D01*
X102792000Y-89233400D01*
X103279058Y-89233400D01*
X103703407Y-89657748D01*
X103636774Y-89724382D01*
X103751784Y-89839392D01*
X103509603Y-89908857D01*
X103465547Y-90032344D01*
X103414397Y-89908857D01*
X103172213Y-89839392D01*
X102371605Y-90640000D01*
X103172213Y-91440608D01*
X103414397Y-91371143D01*
X103458452Y-91247655D01*
X103509603Y-91371143D01*
X103751787Y-91440608D01*
X104552395Y-90640000D01*
X104538252Y-90625857D01*
X104717857Y-90446252D01*
X104732000Y-90460395D01*
X104746142Y-90446252D01*
X104925747Y-90625857D01*
X104911605Y-90640000D01*
X105712213Y-91440608D01*
X105954397Y-91371143D01*
X105998452Y-91247655D01*
X106049603Y-91371143D01*
X106291787Y-91440608D01*
X107092395Y-90640000D01*
X107078252Y-90625857D01*
X107257857Y-90446252D01*
X107272000Y-90460395D01*
X107286142Y-90446252D01*
X107465747Y-90625857D01*
X107451605Y-90640000D01*
X107465747Y-90654142D01*
X107286142Y-90833747D01*
X107272000Y-90819605D01*
X106471392Y-91620213D01*
X106540857Y-91862397D01*
X106864162Y-91977741D01*
X106510000Y-91977741D01*
X106345356Y-92009685D01*
X106200649Y-92104742D01*
X106103784Y-92248245D01*
X106069741Y-92418000D01*
X106069741Y-93942000D01*
X106101685Y-94106644D01*
X106196742Y-94251351D01*
X106340245Y-94348216D01*
X106510000Y-94382259D01*
X107966600Y-94382259D01*
X107966600Y-94600000D01*
X108007203Y-94804123D01*
X108122829Y-94977171D01*
X109701714Y-96556056D01*
X109616408Y-96761497D01*
X109615993Y-97236420D01*
X109797355Y-97675350D01*
X110132884Y-98011464D01*
X110571497Y-98193592D01*
X111046420Y-98194007D01*
X111485350Y-98012645D01*
X111821464Y-97677116D01*
X112003592Y-97238503D01*
X112004007Y-96763580D01*
X111822645Y-96324650D01*
X111487116Y-95988536D01*
X111048503Y-95806408D01*
X110573580Y-95805993D01*
X110493445Y-95839103D01*
X109033400Y-94379058D01*
X109033400Y-94378930D01*
X109050000Y-94382259D01*
X110574000Y-94382259D01*
X110738644Y-94350315D01*
X110883351Y-94255258D01*
X110980216Y-94111755D01*
X111014259Y-93942000D01*
X111014259Y-92418000D01*
X110982315Y-92253356D01*
X110887258Y-92108649D01*
X110743755Y-92011784D01*
X110574000Y-91977741D01*
X110264678Y-91977741D01*
X110543143Y-91862397D01*
X110612608Y-91620213D01*
X109812000Y-90819605D01*
X109797857Y-90833747D01*
X109618252Y-90654142D01*
X109632395Y-90640000D01*
X109618252Y-90625857D01*
X109797857Y-90446252D01*
X109812000Y-90460395D01*
X110612608Y-89659787D01*
X110543143Y-89417603D01*
X110117130Y-89265616D01*
X110487350Y-89112645D01*
X110823464Y-88777116D01*
X110958700Y-88451431D01*
X110958700Y-89887145D01*
X110792213Y-89839392D01*
X109991605Y-90640000D01*
X110792213Y-91440608D01*
X110958700Y-91392854D01*
X110958700Y-91661000D01*
X111015737Y-91947745D01*
X111178165Y-92190835D01*
X111350700Y-92363370D01*
X111350700Y-94019445D01*
X111223852Y-94324928D01*
X111223548Y-94673542D01*
X111356676Y-94995736D01*
X111602968Y-95242458D01*
X111924928Y-95376148D01*
X112273542Y-95376452D01*
X112595736Y-95243324D01*
X112842458Y-94997032D01*
X112976148Y-94675072D01*
X112976452Y-94326458D01*
X112849300Y-94018727D01*
X112849300Y-92053000D01*
X112792263Y-91766256D01*
X112792263Y-91766255D01*
X112629835Y-91523165D01*
X112457300Y-91350630D01*
X112457300Y-89883000D01*
X114248000Y-89883000D01*
X115264000Y-89883000D01*
X117042000Y-89883000D01*
X118884672Y-89883000D01*
X120979000Y-87003298D01*
X120979000Y-85066282D01*
X121102103Y-84769817D01*
X121102496Y-84320156D01*
X121102496Y-98399700D01*
X118934496Y-98399700D01*
X118934496Y-93596156D01*
X118762781Y-93180573D01*
X118445100Y-92862337D01*
X118029817Y-92689897D01*
X117580156Y-92689504D01*
X117164573Y-92861219D01*
X116846337Y-93178900D01*
X116673897Y-93594183D01*
X116673504Y-94043844D01*
X116845219Y-94459427D01*
X117162900Y-94777663D01*
X117578183Y-94950103D01*
X118027844Y-94950496D01*
X118443427Y-94778781D01*
X118761663Y-94461100D01*
X118934103Y-94045817D01*
X118934496Y-93596156D01*
X118934496Y-98399700D01*
X116609927Y-98399700D01*
X116609927Y-94012520D01*
X116581148Y-93482801D01*
X116433800Y-93127071D01*
X116198188Y-93065417D01*
X116018583Y-93245022D01*
X116018583Y-92885812D01*
X115956929Y-92650200D01*
X115456520Y-92474073D01*
X114926801Y-92502852D01*
X114571071Y-92650200D01*
X114509417Y-92885812D01*
X115264000Y-93640395D01*
X116018583Y-92885812D01*
X116018583Y-93245022D01*
X115443605Y-93820000D01*
X116198188Y-94574583D01*
X116433800Y-94512929D01*
X116609927Y-94012520D01*
X116609927Y-98399700D01*
X116018583Y-98399700D01*
X116018583Y-94754188D01*
X115264000Y-93999605D01*
X115084395Y-94179210D01*
X115084395Y-93820000D01*
X114329812Y-93065417D01*
X114094200Y-93127071D01*
X113918073Y-93627480D01*
X113946852Y-94157199D01*
X114094200Y-94512929D01*
X114329812Y-94574583D01*
X115084395Y-93820000D01*
X115084395Y-94179210D01*
X114509417Y-94754188D01*
X114571071Y-94989800D01*
X115071480Y-95165927D01*
X115601199Y-95137148D01*
X115956929Y-94989800D01*
X116018583Y-94754188D01*
X116018583Y-98399700D01*
X114544007Y-98399700D01*
X114544007Y-96763580D01*
X114362645Y-96324650D01*
X114027116Y-95988536D01*
X113588503Y-95806408D01*
X113113580Y-95805993D01*
X112674650Y-95987355D01*
X112338536Y-96322884D01*
X112156408Y-96761497D01*
X112155993Y-97236420D01*
X112337355Y-97675350D01*
X112672884Y-98011464D01*
X113111497Y-98193592D01*
X113586420Y-98194007D01*
X114025350Y-98012645D01*
X114361464Y-97677116D01*
X114543592Y-97238503D01*
X114544007Y-96763580D01*
X114544007Y-98399700D01*
X112004007Y-98399700D01*
X106924007Y-98399700D01*
X106924007Y-96763580D01*
X106742645Y-96324650D01*
X106407116Y-95988536D01*
X105968503Y-95806408D01*
X105493580Y-95805993D01*
X105054650Y-95987355D01*
X104718536Y-96322884D01*
X104536408Y-96761497D01*
X104535993Y-97236420D01*
X104717355Y-97675350D01*
X105052884Y-98011464D01*
X105491497Y-98193592D01*
X105966420Y-98194007D01*
X106405350Y-98012645D01*
X106741464Y-97677116D01*
X106923592Y-97238503D01*
X106924007Y-96763580D01*
X106924007Y-98399700D01*
X104384007Y-98399700D01*
X104384007Y-96763580D01*
X104202645Y-96324650D01*
X103867116Y-95988536D01*
X103428503Y-95806408D01*
X102953580Y-95805993D01*
X102514650Y-95987355D01*
X102178536Y-96322884D01*
X101996408Y-96761497D01*
X101995993Y-97236420D01*
X102177355Y-97675350D01*
X102512884Y-98011464D01*
X102951497Y-98193592D01*
X103426420Y-98194007D01*
X103865350Y-98012645D01*
X104201464Y-97677116D01*
X104383592Y-97238503D01*
X104384007Y-96763580D01*
X104384007Y-98399700D01*
X101852259Y-98399700D01*
X101852259Y-97762000D01*
X101852259Y-96238000D01*
X101820315Y-96073356D01*
X101725258Y-95928649D01*
X101581755Y-95831784D01*
X101412000Y-95797741D01*
X99888000Y-95797741D01*
X99723356Y-95829685D01*
X99578649Y-95924742D01*
X99481784Y-96068245D01*
X99447741Y-96238000D01*
X99447741Y-97762000D01*
X99479685Y-97926644D01*
X99574742Y-98071351D01*
X99718245Y-98168216D01*
X99888000Y-98202259D01*
X101412000Y-98202259D01*
X101576644Y-98170315D01*
X101721351Y-98075258D01*
X101818216Y-97931755D01*
X101852259Y-97762000D01*
X101852259Y-98399700D01*
X96081697Y-98399700D01*
X96227218Y-98339572D01*
X97335680Y-97233043D01*
X97936315Y-95786553D01*
X97937682Y-94220318D01*
X97339572Y-92772782D01*
X96233043Y-91664320D01*
X96074496Y-91598485D01*
X96074496Y-88008156D01*
X95902781Y-87592573D01*
X95585100Y-87274337D01*
X95169817Y-87101897D01*
X94720156Y-87101504D01*
X94304573Y-87273219D01*
X94064000Y-87513372D01*
X94064000Y-85813309D01*
X94064000Y-85083750D01*
X94064000Y-84512250D01*
X94064000Y-83782691D01*
X93967327Y-83549302D01*
X93788699Y-83370673D01*
X93555310Y-83274000D01*
X93302691Y-83274000D01*
X92825750Y-83274000D01*
X92667000Y-83432750D01*
X92667000Y-84671000D01*
X93905250Y-84671000D01*
X94064000Y-84512250D01*
X94064000Y-85083750D01*
X93905250Y-84925000D01*
X92667000Y-84925000D01*
X92667000Y-86163250D01*
X92825750Y-86322000D01*
X93302691Y-86322000D01*
X93555310Y-86322000D01*
X93788699Y-86225327D01*
X93967327Y-86046698D01*
X94064000Y-85813309D01*
X94064000Y-87513372D01*
X93986337Y-87590900D01*
X93813897Y-88006183D01*
X93813504Y-88455844D01*
X93985219Y-88871427D01*
X94302900Y-89189663D01*
X94718183Y-89362103D01*
X95167844Y-89362496D01*
X95583427Y-89190781D01*
X95901663Y-88873100D01*
X96074103Y-88457817D01*
X96074496Y-88008156D01*
X96074496Y-91598485D01*
X94786553Y-91063685D01*
X93534496Y-91062592D01*
X93534496Y-88008156D01*
X93362781Y-87592573D01*
X93045100Y-87274337D01*
X92629817Y-87101897D01*
X92413000Y-87101707D01*
X92413000Y-86163250D01*
X92413000Y-84925000D01*
X92413000Y-84671000D01*
X92413000Y-83432750D01*
X92254250Y-83274000D01*
X91777309Y-83274000D01*
X91524690Y-83274000D01*
X91291301Y-83370673D01*
X91112673Y-83549302D01*
X91016000Y-83782691D01*
X91016000Y-84512250D01*
X91174750Y-84671000D01*
X92413000Y-84671000D01*
X92413000Y-84925000D01*
X91174750Y-84925000D01*
X91016000Y-85083750D01*
X91016000Y-85813309D01*
X91112673Y-86046698D01*
X91291301Y-86225327D01*
X91524690Y-86322000D01*
X91777309Y-86322000D01*
X92254250Y-86322000D01*
X92413000Y-86163250D01*
X92413000Y-87101707D01*
X92180156Y-87101504D01*
X91764573Y-87273219D01*
X91446337Y-87590900D01*
X91273897Y-88006183D01*
X91273504Y-88455844D01*
X91445219Y-88871427D01*
X91762900Y-89189663D01*
X92178183Y-89362103D01*
X92627844Y-89362496D01*
X93043427Y-89190781D01*
X93361663Y-88873100D01*
X93534103Y-88457817D01*
X93534496Y-88008156D01*
X93534496Y-91062592D01*
X93220318Y-91062318D01*
X91772782Y-91660428D01*
X90664320Y-92766957D01*
X90622300Y-92868152D01*
X90622300Y-60033000D01*
X94196181Y-60033000D01*
X94450181Y-66129000D01*
X115412700Y-66129000D01*
X115412700Y-67085741D01*
X115400000Y-67085741D01*
X115235356Y-67117685D01*
X115090649Y-67212742D01*
X114993784Y-67356245D01*
X114959741Y-67526000D01*
X114959741Y-69050000D01*
X114991685Y-69214644D01*
X115086742Y-69359351D01*
X115230245Y-69456216D01*
X115400000Y-69490259D01*
X115709321Y-69490259D01*
X115430857Y-69605603D01*
X115361392Y-69847787D01*
X116162000Y-70648395D01*
X116962608Y-69847787D01*
X116893143Y-69605603D01*
X116569837Y-69490259D01*
X116924000Y-69490259D01*
X117088644Y-69458315D01*
X117233351Y-69363258D01*
X117330216Y-69219755D01*
X117364259Y-69050000D01*
X117364259Y-67526000D01*
X117332315Y-67361356D01*
X117237258Y-67216649D01*
X117093755Y-67119784D01*
X116924000Y-67085741D01*
X116911300Y-67085741D01*
X116911300Y-66129000D01*
X120099973Y-66129000D01*
X120036473Y-57810500D01*
X133910450Y-57810500D01*
X134213447Y-57936315D01*
X135779682Y-57937682D01*
X136087485Y-57810500D01*
X138399700Y-57810500D01*
X138399700Y-92918302D01*
X138399700Y-92918302D01*
G37*
X138399700Y-92918302D02*
X138339572Y-92772782D01*
X137691927Y-92124005D01*
X137691927Y-87662520D01*
X137663148Y-87132801D01*
X137515800Y-86777071D01*
X137280188Y-86715417D01*
X137100583Y-86895022D01*
X137100583Y-86535812D01*
X137038929Y-86300200D01*
X136538520Y-86124073D01*
X136215452Y-86141624D01*
X136215452Y-72940458D01*
X136082324Y-72618264D01*
X135836032Y-72371542D01*
X135644007Y-72291805D01*
X135644007Y-62209580D01*
X135644007Y-59669580D01*
X135462645Y-59230650D01*
X135127116Y-58894536D01*
X134688503Y-58712408D01*
X134213580Y-58711993D01*
X133774650Y-58893355D01*
X133438536Y-59228884D01*
X133256408Y-59667497D01*
X133255993Y-60142420D01*
X133437355Y-60581350D01*
X133772884Y-60917464D01*
X134211497Y-61099592D01*
X134686420Y-61100007D01*
X135125350Y-60918645D01*
X135461464Y-60583116D01*
X135643592Y-60144503D01*
X135644007Y-59669580D01*
X135644007Y-62209580D01*
X135462645Y-61770650D01*
X135127116Y-61434536D01*
X134688503Y-61252408D01*
X134213580Y-61251993D01*
X133774650Y-61433355D01*
X133438536Y-61768884D01*
X133256408Y-62207497D01*
X133255993Y-62682420D01*
X133437355Y-63121350D01*
X133772884Y-63457464D01*
X134211497Y-63639592D01*
X134686420Y-63640007D01*
X135125350Y-63458645D01*
X135461464Y-63123116D01*
X135643592Y-62684503D01*
X135644007Y-62209580D01*
X135644007Y-72291805D01*
X135514072Y-72237852D01*
X135165458Y-72237548D01*
X134936452Y-72332171D01*
X134936452Y-64690458D01*
X134803324Y-64368264D01*
X134557032Y-64121542D01*
X134235072Y-63987852D01*
X133937934Y-63987592D01*
X132966059Y-63015717D01*
X133103592Y-62684503D01*
X133104007Y-62209580D01*
X133104007Y-59669580D01*
X132922645Y-59230650D01*
X132587116Y-58894536D01*
X132148503Y-58712408D01*
X131673580Y-58711993D01*
X131234650Y-58893355D01*
X130898536Y-59228884D01*
X130716408Y-59667497D01*
X130715993Y-60142420D01*
X130897355Y-60581350D01*
X131232884Y-60917464D01*
X131671497Y-61099592D01*
X132146420Y-61100007D01*
X132585350Y-60918645D01*
X132921464Y-60583116D01*
X133103592Y-60144503D01*
X133104007Y-59669580D01*
X133104007Y-62209580D01*
X132922645Y-61770650D01*
X132587116Y-61434536D01*
X132148503Y-61252408D01*
X131673580Y-61251993D01*
X131234650Y-61433355D01*
X130898536Y-61768884D01*
X130716408Y-62207497D01*
X130715993Y-62682420D01*
X130897355Y-63121350D01*
X131232884Y-63457464D01*
X131671497Y-63639592D01*
X132081608Y-63639950D01*
X133183805Y-64742147D01*
X133183548Y-65037542D01*
X133316676Y-65359736D01*
X133562968Y-65606458D01*
X133884928Y-65740148D01*
X134233542Y-65740452D01*
X134555736Y-65607324D01*
X134802458Y-65361032D01*
X134936148Y-65039072D01*
X134936452Y-64690458D01*
X134936452Y-72332171D01*
X134843264Y-72370676D01*
X134596542Y-72616968D01*
X134506172Y-72834600D01*
X131541144Y-72834600D01*
X131541144Y-71035698D01*
X131513362Y-70480632D01*
X131354397Y-70096857D01*
X131112213Y-70027392D01*
X130311605Y-70828000D01*
X131112213Y-71628608D01*
X131354397Y-71559143D01*
X131541144Y-71035698D01*
X131541144Y-72834600D01*
X131203297Y-72834600D01*
X131144645Y-72692650D01*
X130809116Y-72356536D01*
X130457337Y-72210464D01*
X130479368Y-72209362D01*
X130863143Y-72050397D01*
X130932608Y-71808213D01*
X130132000Y-71007605D01*
X130117857Y-71021747D01*
X129938252Y-70842142D01*
X129952395Y-70828000D01*
X129938252Y-70813857D01*
X130117857Y-70634252D01*
X130132000Y-70648395D01*
X130932608Y-69847787D01*
X130863143Y-69605603D01*
X130539837Y-69490259D01*
X130894000Y-69490259D01*
X131058644Y-69458315D01*
X131203351Y-69363258D01*
X131300216Y-69219755D01*
X131334259Y-69050000D01*
X131334259Y-67526000D01*
X131302315Y-67361356D01*
X131207258Y-67216649D01*
X131063755Y-67119784D01*
X130894000Y-67085741D01*
X129386400Y-67085741D01*
X129386400Y-65887800D01*
X129475148Y-65674072D01*
X129475452Y-65325458D01*
X129342324Y-65003264D01*
X129101879Y-64762400D01*
X130664058Y-64762400D01*
X131151805Y-65250147D01*
X131151548Y-65545542D01*
X131284676Y-65867736D01*
X131530968Y-66114458D01*
X131852928Y-66248148D01*
X132201542Y-66248452D01*
X132523736Y-66115324D01*
X132770458Y-65869032D01*
X132904148Y-65547072D01*
X132904452Y-65198458D01*
X132771324Y-64876264D01*
X132525032Y-64629542D01*
X132203072Y-64495852D01*
X131905934Y-64495592D01*
X131262171Y-63851829D01*
X131089123Y-63736203D01*
X130885000Y-63695600D01*
X130564007Y-63695600D01*
X130564007Y-62209580D01*
X130564007Y-59669580D01*
X130382645Y-59230650D01*
X130047116Y-58894536D01*
X129608503Y-58712408D01*
X129133580Y-58711993D01*
X128694650Y-58893355D01*
X128358536Y-59228884D01*
X128176408Y-59667497D01*
X128175993Y-60142420D01*
X128357355Y-60581350D01*
X128692884Y-60917464D01*
X129131497Y-61099592D01*
X129606420Y-61100007D01*
X130045350Y-60918645D01*
X130381464Y-60583116D01*
X130563592Y-60144503D01*
X130564007Y-59669580D01*
X130564007Y-62209580D01*
X130382645Y-61770650D01*
X130047116Y-61434536D01*
X129608503Y-61252408D01*
X129133580Y-61251993D01*
X128694650Y-61433355D01*
X128358536Y-61768884D01*
X128176408Y-62207497D01*
X128175993Y-62682420D01*
X128357355Y-63121350D01*
X128692884Y-63457464D01*
X129131497Y-63639592D01*
X129606420Y-63640007D01*
X130045350Y-63458645D01*
X130381464Y-63123116D01*
X130563592Y-62684503D01*
X130564007Y-62209580D01*
X130564007Y-63695600D01*
X128184942Y-63695600D01*
X127726861Y-63237519D01*
X127841464Y-63123116D01*
X128023592Y-62684503D01*
X128024007Y-62209580D01*
X128024007Y-59669580D01*
X127842645Y-59230650D01*
X127507116Y-58894536D01*
X127068503Y-58712408D01*
X126593580Y-58711993D01*
X126154650Y-58893355D01*
X125818536Y-59228884D01*
X125636408Y-59667497D01*
X125635993Y-60142420D01*
X125817355Y-60581350D01*
X126152884Y-60917464D01*
X126591497Y-61099592D01*
X127066420Y-61100007D01*
X127505350Y-60918645D01*
X127841464Y-60583116D01*
X128023592Y-60144503D01*
X128024007Y-59669580D01*
X128024007Y-62209580D01*
X127842645Y-61770650D01*
X127507116Y-61434536D01*
X127068503Y-61252408D01*
X126593580Y-61251993D01*
X126154650Y-61433355D01*
X126093400Y-61494498D01*
X126093400Y-61176000D01*
X126052797Y-60971877D01*
X126052797Y-60971876D01*
X125937171Y-60798829D01*
X125424691Y-60286349D01*
X125483592Y-60144503D01*
X125484007Y-59669580D01*
X125302645Y-59230650D01*
X124967116Y-58894536D01*
X124528503Y-58712408D01*
X124053580Y-58711993D01*
X123614650Y-58893355D01*
X123278536Y-59228884D01*
X123132464Y-59580662D01*
X123131362Y-59558632D01*
X122972397Y-59174857D01*
X122730213Y-59105392D01*
X122550608Y-59284997D01*
X122550608Y-58925787D01*
X122481143Y-58683603D01*
X121957698Y-58496856D01*
X121402632Y-58524638D01*
X121018857Y-58683603D01*
X120949392Y-58925787D01*
X121750000Y-59726395D01*
X122550608Y-58925787D01*
X122550608Y-59284997D01*
X121929605Y-59906000D01*
X122730213Y-60706608D01*
X122972397Y-60637143D01*
X123124383Y-60211130D01*
X123277355Y-60581350D01*
X123612884Y-60917464D01*
X124051497Y-61099592D01*
X124526420Y-61100007D01*
X124670239Y-61040581D01*
X125026600Y-61396942D01*
X125026600Y-61494123D01*
X124967116Y-61434536D01*
X124528503Y-61252408D01*
X124053580Y-61251993D01*
X123614650Y-61433355D01*
X123278536Y-61768884D01*
X123096408Y-62207497D01*
X123095993Y-62682420D01*
X123277355Y-63121350D01*
X123612884Y-63457464D01*
X123756600Y-63517140D01*
X123756600Y-64189558D01*
X122952259Y-64993899D01*
X122952259Y-63208000D01*
X122952259Y-61684000D01*
X122920315Y-61519356D01*
X122825258Y-61374649D01*
X122681755Y-61277784D01*
X122512000Y-61243741D01*
X122202678Y-61243741D01*
X122481143Y-61128397D01*
X122550608Y-60886213D01*
X121750000Y-60085605D01*
X121570395Y-60265210D01*
X121570395Y-59906000D01*
X120769787Y-59105392D01*
X120527603Y-59174857D01*
X120340856Y-59698302D01*
X120368638Y-60253368D01*
X120527603Y-60637143D01*
X120769787Y-60706608D01*
X121570395Y-59906000D01*
X121570395Y-60265210D01*
X120949392Y-60886213D01*
X121018857Y-61128397D01*
X121342162Y-61243741D01*
X120988000Y-61243741D01*
X120823356Y-61275685D01*
X120678649Y-61370742D01*
X120581784Y-61514245D01*
X120547741Y-61684000D01*
X120547741Y-63208000D01*
X120579685Y-63372644D01*
X120674742Y-63517351D01*
X120818245Y-63614216D01*
X120988000Y-63648259D01*
X122512000Y-63648259D01*
X122676644Y-63616315D01*
X122821351Y-63521258D01*
X122918216Y-63377755D01*
X122952259Y-63208000D01*
X122952259Y-64993899D01*
X120864829Y-67081329D01*
X120846770Y-67108356D01*
X120734000Y-67085741D01*
X119210000Y-67085741D01*
X119045356Y-67117685D01*
X118900649Y-67212742D01*
X118803784Y-67356245D01*
X118769741Y-67526000D01*
X118769741Y-69050000D01*
X118801685Y-69214644D01*
X118896742Y-69359351D01*
X119040245Y-69456216D01*
X119210000Y-69490259D01*
X119519321Y-69490259D01*
X119240857Y-69605603D01*
X119171392Y-69847787D01*
X119972000Y-70648395D01*
X119986142Y-70634252D01*
X120165747Y-70813857D01*
X120151605Y-70828000D01*
X120165747Y-70842142D01*
X119986142Y-71021747D01*
X119972000Y-71007605D01*
X119792395Y-71187210D01*
X119792395Y-70828000D01*
X118991787Y-70027392D01*
X118749603Y-70096857D01*
X118562856Y-70620302D01*
X118590638Y-71175368D01*
X118749603Y-71559143D01*
X118991787Y-71628608D01*
X119792395Y-70828000D01*
X119792395Y-71187210D01*
X119171392Y-71808213D01*
X119240857Y-72050397D01*
X119666869Y-72202383D01*
X119296650Y-72355355D01*
X118960536Y-72690884D01*
X118778408Y-73129497D01*
X118777993Y-73604420D01*
X118959355Y-74043350D01*
X119294884Y-74379464D01*
X119733497Y-74561592D01*
X120208420Y-74562007D01*
X120647350Y-74380645D01*
X120983464Y-74045116D01*
X121165592Y-73606503D01*
X121166007Y-73131580D01*
X121069449Y-72897892D01*
X121619171Y-72348171D01*
X121734797Y-72175124D01*
X121734797Y-72175123D01*
X121768308Y-72006649D01*
X121780857Y-72050397D01*
X122206869Y-72202383D01*
X121836650Y-72355355D01*
X121500536Y-72690884D01*
X121318408Y-73129497D01*
X121317993Y-73604420D01*
X121499355Y-74043350D01*
X121762700Y-74307154D01*
X121762700Y-76074900D01*
X121554337Y-76282900D01*
X121381897Y-76698183D01*
X121381504Y-77147844D01*
X121553219Y-77563427D01*
X121870900Y-77881663D01*
X122286183Y-78054103D01*
X122735844Y-78054496D01*
X123151427Y-77882781D01*
X123469663Y-77565100D01*
X123642103Y-77149817D01*
X123642496Y-76700156D01*
X123470781Y-76284573D01*
X123261300Y-76074726D01*
X123261300Y-74306823D01*
X123523464Y-74045116D01*
X123705592Y-73606503D01*
X123705962Y-73182379D01*
X123929106Y-72959235D01*
X123858408Y-73129497D01*
X123857993Y-73604420D01*
X124039355Y-74043350D01*
X124302700Y-74307154D01*
X124302700Y-76074900D01*
X124094337Y-76282900D01*
X123921897Y-76698183D01*
X123921504Y-77147844D01*
X124093219Y-77563427D01*
X124410900Y-77881663D01*
X124826183Y-78054103D01*
X125275844Y-78054496D01*
X125691427Y-77882781D01*
X126009663Y-77565100D01*
X126182103Y-77149817D01*
X126182496Y-76700156D01*
X126010781Y-76284573D01*
X125801300Y-76074726D01*
X125801300Y-74306823D01*
X126063464Y-74045116D01*
X126245592Y-73606503D01*
X126246007Y-73131580D01*
X126064645Y-72692650D01*
X126019208Y-72647133D01*
X126572171Y-72094171D01*
X126687797Y-71921123D01*
X126690109Y-71909498D01*
X126791392Y-71808215D01*
X126860857Y-72050397D01*
X127286869Y-72202383D01*
X126916650Y-72355355D01*
X126580536Y-72690884D01*
X126398408Y-73129497D01*
X126397993Y-73604420D01*
X126579355Y-74043350D01*
X126842700Y-74307154D01*
X126842700Y-76074900D01*
X126634337Y-76282900D01*
X126461897Y-76698183D01*
X126461504Y-77147844D01*
X126633219Y-77563427D01*
X126950900Y-77881663D01*
X127366183Y-78054103D01*
X127815844Y-78054496D01*
X128231427Y-77882781D01*
X128549663Y-77565100D01*
X128722103Y-77149817D01*
X128722496Y-76700156D01*
X128550781Y-76284573D01*
X128341300Y-76074726D01*
X128341300Y-74306823D01*
X128603464Y-74045116D01*
X128785592Y-73606503D01*
X128786007Y-73131580D01*
X128614014Y-72715327D01*
X129230171Y-72099171D01*
X129345797Y-71926124D01*
X129345797Y-71926123D01*
X129353747Y-71886153D01*
X129400857Y-72050397D01*
X129826869Y-72202383D01*
X129456650Y-72355355D01*
X129120536Y-72690884D01*
X128938408Y-73129497D01*
X128937993Y-73604420D01*
X129119355Y-74043350D01*
X129382700Y-74307154D01*
X129382700Y-76074900D01*
X129174337Y-76282900D01*
X129001897Y-76698183D01*
X129001504Y-77147844D01*
X129173219Y-77563427D01*
X129490900Y-77881663D01*
X129906183Y-78054103D01*
X130355844Y-78054496D01*
X130771427Y-77882781D01*
X131089663Y-77565100D01*
X131262103Y-77149817D01*
X131262496Y-76700156D01*
X131090781Y-76284573D01*
X130881300Y-76074726D01*
X130881300Y-74306823D01*
X131143464Y-74045116D01*
X131203140Y-73901400D01*
X134950199Y-73901400D01*
X135163928Y-73990148D01*
X135512542Y-73990452D01*
X135834736Y-73857324D01*
X136081458Y-73611032D01*
X136215148Y-73289072D01*
X136215452Y-72940458D01*
X136215452Y-86141624D01*
X136008801Y-86152852D01*
X135653071Y-86300200D01*
X135591417Y-86535812D01*
X136346000Y-87290395D01*
X137100583Y-86535812D01*
X137100583Y-86895022D01*
X136525605Y-87470000D01*
X137280188Y-88224583D01*
X137515800Y-88162929D01*
X137691927Y-87662520D01*
X137691927Y-92124005D01*
X137476496Y-91908198D01*
X137476496Y-89786156D01*
X137304781Y-89370573D01*
X137100583Y-89166018D01*
X137100583Y-88404188D01*
X136346000Y-87649605D01*
X136166395Y-87829210D01*
X136166395Y-87470000D01*
X135411812Y-86715417D01*
X135190452Y-86773341D01*
X135190452Y-79168458D01*
X135057324Y-78846264D01*
X134811032Y-78599542D01*
X134489072Y-78465852D01*
X134140458Y-78465548D01*
X133818264Y-78598676D01*
X133607973Y-78808600D01*
X125796999Y-78808600D01*
X125786324Y-78782764D01*
X125540032Y-78536042D01*
X125218072Y-78402352D01*
X124869458Y-78402048D01*
X124547264Y-78535176D01*
X124300542Y-78781468D01*
X124166852Y-79103428D01*
X124166548Y-79452042D01*
X124299676Y-79774236D01*
X124545968Y-80020958D01*
X124867928Y-80154648D01*
X125216542Y-80154952D01*
X125538736Y-80021824D01*
X125685415Y-79875400D01*
X131480814Y-79875400D01*
X131405852Y-80055928D01*
X131405592Y-80353065D01*
X131172057Y-80586600D01*
X121102496Y-80586600D01*
X121102496Y-76700156D01*
X120930781Y-76284573D01*
X120613100Y-75966337D01*
X120197817Y-75793897D01*
X119748156Y-75793504D01*
X119332573Y-75965219D01*
X119014337Y-76282900D01*
X118841897Y-76698183D01*
X118841504Y-77147844D01*
X119013219Y-77563427D01*
X119330900Y-77881663D01*
X119746183Y-78054103D01*
X120195844Y-78054496D01*
X120611427Y-77882781D01*
X120929663Y-77565100D01*
X121102103Y-77149817D01*
X121102496Y-76700156D01*
X121102496Y-80586600D01*
X118777927Y-80586600D01*
X118777927Y-77116520D01*
X118749148Y-76586801D01*
X118601800Y-76231071D01*
X118366188Y-76169417D01*
X118186583Y-76349022D01*
X118186583Y-75989812D01*
X118124929Y-75754200D01*
X117624520Y-75578073D01*
X117571144Y-75580972D01*
X117571144Y-71035698D01*
X117543362Y-70480632D01*
X117384397Y-70096857D01*
X117142213Y-70027392D01*
X116341605Y-70828000D01*
X117142213Y-71628608D01*
X117384397Y-71559143D01*
X117571144Y-71035698D01*
X117571144Y-75580972D01*
X117094801Y-75606852D01*
X116739071Y-75754200D01*
X116695400Y-75921089D01*
X116695400Y-74439297D01*
X116837350Y-74380645D01*
X117173464Y-74045116D01*
X117355592Y-73606503D01*
X117356007Y-73131580D01*
X117174645Y-72692650D01*
X116839116Y-72356536D01*
X116487337Y-72210464D01*
X116509368Y-72209362D01*
X116893143Y-72050397D01*
X116962608Y-71808213D01*
X116162000Y-71007605D01*
X115982395Y-71187210D01*
X115982395Y-70828000D01*
X115181787Y-70027392D01*
X114939603Y-70096857D01*
X114752856Y-70620302D01*
X114780638Y-71175368D01*
X114939603Y-71559143D01*
X115181787Y-71628608D01*
X115982395Y-70828000D01*
X115982395Y-71187210D01*
X115361392Y-71808213D01*
X115430857Y-72050397D01*
X115856869Y-72202383D01*
X115486650Y-72355355D01*
X115150536Y-72690884D01*
X114968408Y-73129497D01*
X114967993Y-73604420D01*
X115149355Y-74043350D01*
X115484884Y-74379464D01*
X115628600Y-74439140D01*
X115628600Y-76062003D01*
X115533100Y-75966337D01*
X115117817Y-75793897D01*
X115061517Y-75793847D01*
X113749000Y-74481330D01*
X113749000Y-69176309D01*
X113749000Y-68573750D01*
X113749000Y-68002250D01*
X113749000Y-67399691D01*
X113652327Y-67166302D01*
X113473699Y-66987673D01*
X113240310Y-66891000D01*
X112987691Y-66891000D01*
X112637750Y-66891000D01*
X112479000Y-67049750D01*
X112479000Y-68161000D01*
X113590250Y-68161000D01*
X113749000Y-68002250D01*
X113749000Y-68573750D01*
X113590250Y-68415000D01*
X112479000Y-68415000D01*
X112479000Y-68435000D01*
X112225000Y-68435000D01*
X112225000Y-68415000D01*
X112205000Y-68415000D01*
X112205000Y-68161000D01*
X112225000Y-68161000D01*
X112225000Y-67049750D01*
X112066250Y-66891000D01*
X111716309Y-66891000D01*
X111463690Y-66891000D01*
X111230301Y-66987673D01*
X111051673Y-67166302D01*
X110975301Y-67350679D01*
X110887258Y-67216649D01*
X110743755Y-67119784D01*
X110574000Y-67085741D01*
X109050000Y-67085741D01*
X108885356Y-67117685D01*
X108740649Y-67212742D01*
X108643784Y-67356245D01*
X108609741Y-67526000D01*
X108609741Y-69050000D01*
X108641685Y-69214644D01*
X108736742Y-69359351D01*
X108880245Y-69456216D01*
X109050000Y-69490259D01*
X110574000Y-69490259D01*
X110738644Y-69458315D01*
X110883351Y-69363258D01*
X110975741Y-69226383D01*
X111051673Y-69409698D01*
X111230301Y-69588327D01*
X111463690Y-69685000D01*
X111716309Y-69685000D01*
X111992133Y-69685000D01*
X111676650Y-69815355D01*
X111412845Y-70078700D01*
X110750823Y-70078700D01*
X110489116Y-69816536D01*
X110050503Y-69634408D01*
X109575580Y-69633993D01*
X109136650Y-69815355D01*
X108872845Y-70078700D01*
X108474259Y-70078700D01*
X108474259Y-69050000D01*
X108474259Y-67526000D01*
X108442315Y-67361356D01*
X108347258Y-67216649D01*
X108203755Y-67119784D01*
X108034000Y-67085741D01*
X106510000Y-67085741D01*
X106345356Y-67117685D01*
X106200649Y-67212742D01*
X106103784Y-67356245D01*
X106069741Y-67526000D01*
X106069741Y-69050000D01*
X106101685Y-69214644D01*
X106196742Y-69359351D01*
X106340245Y-69456216D01*
X106510000Y-69490259D01*
X108034000Y-69490259D01*
X108198644Y-69458315D01*
X108343351Y-69363258D01*
X108440216Y-69219755D01*
X108474259Y-69050000D01*
X108474259Y-70078700D01*
X108210823Y-70078700D01*
X107949116Y-69816536D01*
X107510503Y-69634408D01*
X107035580Y-69633993D01*
X106596650Y-69815355D01*
X106332845Y-70078700D01*
X105934259Y-70078700D01*
X105934259Y-69050000D01*
X105934259Y-67526000D01*
X105902315Y-67361356D01*
X105807258Y-67216649D01*
X105663755Y-67119784D01*
X105494000Y-67085741D01*
X103970000Y-67085741D01*
X103805356Y-67117685D01*
X103660649Y-67212742D01*
X103563784Y-67356245D01*
X103529741Y-67526000D01*
X103529741Y-69050000D01*
X103561685Y-69214644D01*
X103656742Y-69359351D01*
X103800245Y-69456216D01*
X103970000Y-69490259D01*
X105494000Y-69490259D01*
X105658644Y-69458315D01*
X105803351Y-69363258D01*
X105900216Y-69219755D01*
X105934259Y-69050000D01*
X105934259Y-70078700D01*
X105670823Y-70078700D01*
X105409116Y-69816536D01*
X104970503Y-69634408D01*
X104495580Y-69633993D01*
X104056650Y-69815355D01*
X103792845Y-70078700D01*
X103394259Y-70078700D01*
X103394259Y-69050000D01*
X103394259Y-67526000D01*
X103362315Y-67361356D01*
X103267258Y-67216649D01*
X103123755Y-67119784D01*
X102954000Y-67085741D01*
X101430000Y-67085741D01*
X101265356Y-67117685D01*
X101120649Y-67212742D01*
X101023784Y-67356245D01*
X100989741Y-67526000D01*
X100989741Y-69050000D01*
X101021685Y-69214644D01*
X101116742Y-69359351D01*
X101260245Y-69456216D01*
X101430000Y-69490259D01*
X102954000Y-69490259D01*
X103118644Y-69458315D01*
X103263351Y-69363258D01*
X103360216Y-69219755D01*
X103394259Y-69050000D01*
X103394259Y-70078700D01*
X103130823Y-70078700D01*
X102869116Y-69816536D01*
X102430503Y-69634408D01*
X101955580Y-69633993D01*
X101516650Y-69815355D01*
X101252845Y-70078700D01*
X100854259Y-70078700D01*
X100854259Y-69050000D01*
X100854259Y-67526000D01*
X100822315Y-67361356D01*
X100727258Y-67216649D01*
X100583755Y-67119784D01*
X100414000Y-67085741D01*
X98890000Y-67085741D01*
X98725356Y-67117685D01*
X98580649Y-67212742D01*
X98483784Y-67356245D01*
X98449741Y-67526000D01*
X98449741Y-69050000D01*
X98481685Y-69214644D01*
X98576742Y-69359351D01*
X98720245Y-69456216D01*
X98890000Y-69490259D01*
X100414000Y-69490259D01*
X100578644Y-69458315D01*
X100723351Y-69363258D01*
X100820216Y-69219755D01*
X100854259Y-69050000D01*
X100854259Y-70078700D01*
X100590823Y-70078700D01*
X100329116Y-69816536D01*
X99890503Y-69634408D01*
X99415580Y-69633993D01*
X98976650Y-69815355D01*
X98712845Y-70078700D01*
X98314259Y-70078700D01*
X98314259Y-69050000D01*
X98314259Y-67526000D01*
X98282315Y-67361356D01*
X98187258Y-67216649D01*
X98043755Y-67119784D01*
X97874000Y-67085741D01*
X96350000Y-67085741D01*
X96185356Y-67117685D01*
X96040649Y-67212742D01*
X95943784Y-67356245D01*
X95909741Y-67526000D01*
X95909741Y-69050000D01*
X95941685Y-69214644D01*
X96036742Y-69359351D01*
X96180245Y-69456216D01*
X96350000Y-69490259D01*
X97874000Y-69490259D01*
X98038644Y-69458315D01*
X98183351Y-69363258D01*
X98280216Y-69219755D01*
X98314259Y-69050000D01*
X98314259Y-70078700D01*
X98050823Y-70078700D01*
X97789116Y-69816536D01*
X97350503Y-69634408D01*
X96875580Y-69633993D01*
X96436650Y-69815355D01*
X96100536Y-70150884D01*
X95918408Y-70589497D01*
X95917993Y-71064420D01*
X96099355Y-71503350D01*
X96434884Y-71839464D01*
X96873497Y-72021592D01*
X97348420Y-72022007D01*
X97787350Y-71840645D01*
X98051154Y-71577300D01*
X98713176Y-71577300D01*
X98974884Y-71839464D01*
X99413497Y-72021592D01*
X99888420Y-72022007D01*
X100327350Y-71840645D01*
X100591154Y-71577300D01*
X101253176Y-71577300D01*
X101514884Y-71839464D01*
X101953497Y-72021592D01*
X102428420Y-72022007D01*
X102867350Y-71840645D01*
X103131154Y-71577300D01*
X103793176Y-71577300D01*
X104054884Y-71839464D01*
X104493497Y-72021592D01*
X104968420Y-72022007D01*
X105407350Y-71840645D01*
X105671154Y-71577300D01*
X106333176Y-71577300D01*
X106594884Y-71839464D01*
X107033497Y-72021592D01*
X107508420Y-72022007D01*
X107947350Y-71840645D01*
X108211154Y-71577300D01*
X108873176Y-71577300D01*
X109134884Y-71839464D01*
X109573497Y-72021592D01*
X110048420Y-72022007D01*
X110487350Y-71840645D01*
X110751154Y-71577300D01*
X111413176Y-71577300D01*
X111674884Y-71839464D01*
X112113497Y-72021592D01*
X112588420Y-72022007D01*
X113027350Y-71840645D01*
X113363464Y-71505116D01*
X113545592Y-71066503D01*
X113546007Y-70591580D01*
X113364645Y-70152650D01*
X113029116Y-69816536D01*
X112712342Y-69685000D01*
X112987691Y-69685000D01*
X113240310Y-69685000D01*
X113473699Y-69588327D01*
X113652327Y-69409698D01*
X113749000Y-69176309D01*
X113749000Y-74481330D01*
X113338102Y-74070432D01*
X113363464Y-74045116D01*
X113545592Y-73606503D01*
X113546007Y-73131580D01*
X113364645Y-72692650D01*
X113029116Y-72356536D01*
X112590503Y-72174408D01*
X112115580Y-72173993D01*
X111676650Y-72355355D01*
X111340536Y-72690884D01*
X111158408Y-73129497D01*
X111157993Y-73604420D01*
X111339355Y-74043350D01*
X111643229Y-74347753D01*
X111659737Y-74430745D01*
X111822165Y-74673835D01*
X113786723Y-76638393D01*
X113761897Y-76698183D01*
X113761504Y-77147844D01*
X113933219Y-77563427D01*
X114250900Y-77881663D01*
X114666183Y-78054103D01*
X114785450Y-78054207D01*
X114627848Y-78211809D01*
X114328458Y-78211548D01*
X114006264Y-78344676D01*
X113759542Y-78590968D01*
X113625852Y-78912928D01*
X113625548Y-79261542D01*
X113758676Y-79583736D01*
X114004968Y-79830458D01*
X114326928Y-79964148D01*
X114675542Y-79964452D01*
X114997736Y-79831324D01*
X115244458Y-79585032D01*
X115378148Y-79263072D01*
X115378403Y-78969938D01*
X116539171Y-77809171D01*
X116654797Y-77636123D01*
X116683234Y-77493160D01*
X116683235Y-77493159D01*
X117252395Y-76924000D01*
X117238252Y-76909857D01*
X117417857Y-76730252D01*
X117432000Y-76744395D01*
X118186583Y-75989812D01*
X118186583Y-76349022D01*
X117611605Y-76924000D01*
X118366188Y-77678583D01*
X118601800Y-77616929D01*
X118777927Y-77116520D01*
X118777927Y-80586600D01*
X118186583Y-80586600D01*
X118186583Y-77858188D01*
X117432000Y-77103605D01*
X116677417Y-77858188D01*
X116739071Y-78093800D01*
X117239480Y-78269927D01*
X117769199Y-78241148D01*
X118124929Y-78093800D01*
X118186583Y-77858188D01*
X118186583Y-80586600D01*
X113482496Y-80586600D01*
X113482496Y-76700156D01*
X113310781Y-76284573D01*
X112993100Y-75966337D01*
X112577817Y-75793897D01*
X112128156Y-75793504D01*
X111712573Y-75965219D01*
X111394337Y-76282900D01*
X111221897Y-76698183D01*
X111221504Y-77147844D01*
X111393219Y-77563427D01*
X111710900Y-77881663D01*
X112126183Y-78054103D01*
X112575844Y-78054496D01*
X112991427Y-77882781D01*
X113309663Y-77565100D01*
X113482103Y-77149817D01*
X113482496Y-76700156D01*
X113482496Y-80586600D01*
X113300000Y-80586600D01*
X111006007Y-80586600D01*
X111006007Y-73131580D01*
X110824645Y-72692650D01*
X110489116Y-72356536D01*
X110050503Y-72174408D01*
X109575580Y-72173993D01*
X109136650Y-72355355D01*
X108800536Y-72690884D01*
X108618408Y-73129497D01*
X108617993Y-73604420D01*
X108799355Y-74043350D01*
X109062700Y-74307154D01*
X109062700Y-76074900D01*
X108854337Y-76282900D01*
X108681897Y-76698183D01*
X108681504Y-77147844D01*
X108853219Y-77563427D01*
X109170900Y-77881663D01*
X109586183Y-78054103D01*
X110035844Y-78054496D01*
X110451427Y-77882781D01*
X110769663Y-77565100D01*
X110942103Y-77149817D01*
X110942496Y-76700156D01*
X110770781Y-76284573D01*
X110561300Y-76074726D01*
X110561300Y-74306823D01*
X110823464Y-74045116D01*
X111005592Y-73606503D01*
X111006007Y-73131580D01*
X111006007Y-80586600D01*
X108466007Y-80586600D01*
X108466007Y-73131580D01*
X108284645Y-72692650D01*
X107949116Y-72356536D01*
X107510503Y-72174408D01*
X107035580Y-72173993D01*
X106596650Y-72355355D01*
X106260536Y-72690884D01*
X106078408Y-73129497D01*
X106077993Y-73604420D01*
X106259355Y-74043350D01*
X106522700Y-74307154D01*
X106522700Y-76074900D01*
X106314337Y-76282900D01*
X106141897Y-76698183D01*
X106141504Y-77147844D01*
X106313219Y-77563427D01*
X106630900Y-77881663D01*
X107046183Y-78054103D01*
X107495844Y-78054496D01*
X107911427Y-77882781D01*
X108229663Y-77565100D01*
X108402103Y-77149817D01*
X108402496Y-76700156D01*
X108230781Y-76284573D01*
X108021300Y-76074726D01*
X108021300Y-74306823D01*
X108283464Y-74045116D01*
X108465592Y-73606503D01*
X108466007Y-73131580D01*
X108466007Y-80586600D01*
X105926007Y-80586600D01*
X105926007Y-73131580D01*
X105744645Y-72692650D01*
X105409116Y-72356536D01*
X104970503Y-72174408D01*
X104495580Y-72173993D01*
X104056650Y-72355355D01*
X103720536Y-72690884D01*
X103538408Y-73129497D01*
X103537993Y-73604420D01*
X103719355Y-74043350D01*
X103982700Y-74307154D01*
X103982700Y-76074900D01*
X103774337Y-76282900D01*
X103601897Y-76698183D01*
X103601504Y-77147844D01*
X103773219Y-77563427D01*
X104090900Y-77881663D01*
X104506183Y-78054103D01*
X104955844Y-78054496D01*
X105371427Y-77882781D01*
X105689663Y-77565100D01*
X105862103Y-77149817D01*
X105862496Y-76700156D01*
X105690781Y-76284573D01*
X105481300Y-76074726D01*
X105481300Y-74306823D01*
X105743464Y-74045116D01*
X105925592Y-73606503D01*
X105926007Y-73131580D01*
X105926007Y-80586600D01*
X103386007Y-80586600D01*
X103386007Y-73131580D01*
X103204645Y-72692650D01*
X102869116Y-72356536D01*
X102430503Y-72174408D01*
X101955580Y-72173993D01*
X101516650Y-72355355D01*
X101180536Y-72690884D01*
X100998408Y-73129497D01*
X100997993Y-73604420D01*
X101179355Y-74043350D01*
X101442700Y-74307154D01*
X101442700Y-76074900D01*
X101234337Y-76282900D01*
X101061897Y-76698183D01*
X101061504Y-77147844D01*
X101233219Y-77563427D01*
X101550900Y-77881663D01*
X101966183Y-78054103D01*
X102415844Y-78054496D01*
X102831427Y-77882781D01*
X103149663Y-77565100D01*
X103322103Y-77149817D01*
X103322496Y-76700156D01*
X103150781Y-76284573D01*
X102941300Y-76074726D01*
X102941300Y-74306823D01*
X103203464Y-74045116D01*
X103385592Y-73606503D01*
X103386007Y-73131580D01*
X103386007Y-80586600D01*
X100846007Y-80586600D01*
X100846007Y-73131580D01*
X100664645Y-72692650D01*
X100329116Y-72356536D01*
X99890503Y-72174408D01*
X99415580Y-72173993D01*
X98976650Y-72355355D01*
X98640536Y-72690884D01*
X98458408Y-73129497D01*
X98457993Y-73604420D01*
X98639355Y-74043350D01*
X98902700Y-74307154D01*
X98902700Y-76074900D01*
X98694337Y-76282900D01*
X98521897Y-76698183D01*
X98521504Y-77147844D01*
X98693219Y-77563427D01*
X99010900Y-77881663D01*
X99426183Y-78054103D01*
X99875844Y-78054496D01*
X100291427Y-77882781D01*
X100609663Y-77565100D01*
X100782103Y-77149817D01*
X100782496Y-76700156D01*
X100610781Y-76284573D01*
X100401300Y-76074726D01*
X100401300Y-74306823D01*
X100663464Y-74045116D01*
X100845592Y-73606503D01*
X100846007Y-73131580D01*
X100846007Y-80586600D01*
X99280000Y-80586600D01*
X99075877Y-80627203D01*
X98902829Y-80742829D01*
X98306007Y-81339651D01*
X98306007Y-73131580D01*
X98124645Y-72692650D01*
X97789116Y-72356536D01*
X97350503Y-72174408D01*
X96875580Y-72173993D01*
X96436650Y-72355355D01*
X96100536Y-72690884D01*
X95918408Y-73129497D01*
X95917993Y-73604420D01*
X96099355Y-74043350D01*
X96362700Y-74307154D01*
X96362700Y-76074900D01*
X96154337Y-76282900D01*
X95981897Y-76698183D01*
X95981504Y-77147844D01*
X96153219Y-77563427D01*
X96470900Y-77881663D01*
X96886183Y-78054103D01*
X97335844Y-78054496D01*
X97751427Y-77882781D01*
X98069663Y-77565100D01*
X98242103Y-77149817D01*
X98242496Y-76700156D01*
X98070781Y-76284573D01*
X97861300Y-76074726D01*
X97861300Y-74306823D01*
X98123464Y-74045116D01*
X98305592Y-73606503D01*
X98306007Y-73131580D01*
X98306007Y-81339651D01*
X96734829Y-82910829D01*
X96656190Y-83028520D01*
X93949144Y-80321474D01*
X93949144Y-62145698D01*
X93921362Y-61590632D01*
X93762397Y-61206857D01*
X93520213Y-61137392D01*
X93340608Y-61316997D01*
X93340608Y-60957787D01*
X93271143Y-60715603D01*
X92747698Y-60528856D01*
X92192632Y-60556638D01*
X91808857Y-60715603D01*
X91739392Y-60957787D01*
X92540000Y-61758395D01*
X93340608Y-60957787D01*
X93340608Y-61316997D01*
X92719605Y-61938000D01*
X93520213Y-62738608D01*
X93762397Y-62669143D01*
X93949144Y-62145698D01*
X93949144Y-80321474D01*
X93289300Y-79661630D01*
X93289300Y-75756272D01*
X93659067Y-75387150D01*
X93860570Y-74901876D01*
X93861029Y-74376429D01*
X93660373Y-73890804D01*
X93289300Y-73519083D01*
X93289300Y-73036823D01*
X93551464Y-72775116D01*
X93733592Y-72336503D01*
X93734007Y-71861580D01*
X93552645Y-71422650D01*
X93340608Y-71210243D01*
X93340608Y-62918213D01*
X92540000Y-62117605D01*
X92360395Y-62297210D01*
X92360395Y-61938000D01*
X91559787Y-61137392D01*
X91317603Y-61206857D01*
X91130856Y-61730302D01*
X91158638Y-62285368D01*
X91317603Y-62669143D01*
X91559787Y-62738608D01*
X92360395Y-61938000D01*
X92360395Y-62297210D01*
X91739392Y-62918213D01*
X91808857Y-63160397D01*
X92332302Y-63347144D01*
X92887368Y-63319362D01*
X93271143Y-63160397D01*
X93340608Y-62918213D01*
X93340608Y-71210243D01*
X93217116Y-71086536D01*
X92778503Y-70904408D01*
X92303580Y-70903993D01*
X91864650Y-71085355D01*
X91528536Y-71420884D01*
X91346408Y-71859497D01*
X91345993Y-72334420D01*
X91527355Y-72773350D01*
X91790700Y-73037154D01*
X91790700Y-73519727D01*
X91420933Y-73888850D01*
X91219430Y-74374124D01*
X91218971Y-74899571D01*
X91419627Y-75385196D01*
X91790700Y-75756916D01*
X91790700Y-79972000D01*
X91847737Y-80258745D01*
X92010165Y-80501835D01*
X95973241Y-84464911D01*
X95973241Y-85242500D01*
X96005185Y-85407144D01*
X96100242Y-85551851D01*
X96243745Y-85648716D01*
X96413500Y-85682759D01*
X97810500Y-85682759D01*
X97975144Y-85650815D01*
X98119851Y-85555758D01*
X98216716Y-85412255D01*
X98250759Y-85242500D01*
X98250759Y-83845500D01*
X98218815Y-83680856D01*
X98123758Y-83536149D01*
X97980255Y-83439284D01*
X97810500Y-83405241D01*
X97749101Y-83405241D01*
X99500942Y-81653400D01*
X113300000Y-81653400D01*
X131393000Y-81653400D01*
X131597123Y-81612797D01*
X131770171Y-81497171D01*
X132160147Y-81107194D01*
X132455542Y-81107452D01*
X132777736Y-80974324D01*
X133024458Y-80728032D01*
X133158148Y-80406072D01*
X133158452Y-80057458D01*
X133083227Y-79875400D01*
X133608274Y-79875400D01*
X133816968Y-80084458D01*
X134138928Y-80218148D01*
X134487542Y-80218452D01*
X134809736Y-80085324D01*
X135056458Y-79839032D01*
X135190148Y-79517072D01*
X135190452Y-79168458D01*
X135190452Y-86773341D01*
X135176200Y-86777071D01*
X135000073Y-87277480D01*
X135028852Y-87807199D01*
X135176200Y-88162929D01*
X135411812Y-88224583D01*
X136166395Y-87470000D01*
X136166395Y-87829210D01*
X135591417Y-88404188D01*
X135653071Y-88639800D01*
X136153480Y-88815927D01*
X136683199Y-88787148D01*
X137038929Y-88639800D01*
X137100583Y-88404188D01*
X137100583Y-89166018D01*
X136987100Y-89052337D01*
X136571817Y-88879897D01*
X136122156Y-88879504D01*
X135706573Y-89051219D01*
X135388337Y-89368900D01*
X135215897Y-89784183D01*
X135215504Y-90233844D01*
X135387219Y-90649427D01*
X135704900Y-90967663D01*
X136120183Y-91140103D01*
X136569844Y-91140496D01*
X136985427Y-90968781D01*
X137303663Y-90651100D01*
X137476103Y-90235817D01*
X137476496Y-89786156D01*
X137476496Y-91908198D01*
X137233043Y-91664320D01*
X135786553Y-91063685D01*
X134220318Y-91062318D01*
X132772782Y-91660428D01*
X131664320Y-92766957D01*
X131541144Y-93063597D01*
X131541144Y-90847698D01*
X131513362Y-90292632D01*
X131354397Y-89908857D01*
X131326007Y-89900713D01*
X131326007Y-87863580D01*
X131144645Y-87424650D01*
X130881300Y-87160845D01*
X130881300Y-85393099D01*
X131089663Y-85185100D01*
X131262103Y-84769817D01*
X131262496Y-84320156D01*
X131090781Y-83904573D01*
X130773100Y-83586337D01*
X130357817Y-83413897D01*
X129908156Y-83413504D01*
X129492573Y-83585219D01*
X129174337Y-83902900D01*
X129001897Y-84318183D01*
X129001504Y-84767844D01*
X129173219Y-85183427D01*
X129382700Y-85393273D01*
X129382700Y-87161176D01*
X129120536Y-87422884D01*
X128938408Y-87861497D01*
X128937993Y-88336420D01*
X129119355Y-88775350D01*
X129454884Y-89111464D01*
X129806662Y-89257535D01*
X129784632Y-89258638D01*
X129400857Y-89417603D01*
X129331392Y-89659787D01*
X130132000Y-90460395D01*
X130932608Y-89659787D01*
X130863143Y-89417603D01*
X130437130Y-89265616D01*
X130807350Y-89112645D01*
X131143464Y-88777116D01*
X131325592Y-88338503D01*
X131326007Y-87863580D01*
X131326007Y-89900713D01*
X131112213Y-89839392D01*
X130311605Y-90640000D01*
X131112213Y-91440608D01*
X131354397Y-91371143D01*
X131541144Y-90847698D01*
X131541144Y-93063597D01*
X131334259Y-93561832D01*
X131334259Y-92418000D01*
X131302315Y-92253356D01*
X131207258Y-92108649D01*
X131063755Y-92011784D01*
X130894000Y-91977741D01*
X130584678Y-91977741D01*
X130863143Y-91862397D01*
X130932608Y-91620213D01*
X130132000Y-90819605D01*
X129952395Y-90999210D01*
X129952395Y-90640000D01*
X129151787Y-89839392D01*
X128909603Y-89908857D01*
X128865547Y-90032344D01*
X128814397Y-89908857D01*
X128786007Y-89900713D01*
X128786007Y-87863580D01*
X128604645Y-87424650D01*
X128341300Y-87160845D01*
X128341300Y-85393099D01*
X128549663Y-85185100D01*
X128722103Y-84769817D01*
X128722496Y-84320156D01*
X128550781Y-83904573D01*
X128233100Y-83586337D01*
X127817817Y-83413897D01*
X127368156Y-83413504D01*
X126952573Y-83585219D01*
X126634337Y-83902900D01*
X126461897Y-84318183D01*
X126461504Y-84767844D01*
X126633219Y-85183427D01*
X126842700Y-85393273D01*
X126842700Y-87161176D01*
X126580536Y-87422884D01*
X126398408Y-87861497D01*
X126397993Y-88336420D01*
X126579355Y-88775350D01*
X126914884Y-89111464D01*
X127266662Y-89257535D01*
X127244632Y-89258638D01*
X126860857Y-89417603D01*
X126791392Y-89659787D01*
X127592000Y-90460395D01*
X128392608Y-89659787D01*
X128323143Y-89417603D01*
X127897130Y-89265616D01*
X128267350Y-89112645D01*
X128603464Y-88777116D01*
X128785592Y-88338503D01*
X128786007Y-87863580D01*
X128786007Y-89900713D01*
X128572213Y-89839392D01*
X127771605Y-90640000D01*
X128572213Y-91440608D01*
X128814397Y-91371143D01*
X128858452Y-91247655D01*
X128909603Y-91371143D01*
X129151787Y-91440608D01*
X129952395Y-90640000D01*
X129952395Y-90999210D01*
X129331392Y-91620213D01*
X129400857Y-91862397D01*
X129724162Y-91977741D01*
X129370000Y-91977741D01*
X129205356Y-92009685D01*
X129060649Y-92104742D01*
X128963784Y-92248245D01*
X128929741Y-92418000D01*
X128929741Y-93942000D01*
X128961685Y-94106644D01*
X129056742Y-94251351D01*
X129200245Y-94348216D01*
X129370000Y-94382259D01*
X130894000Y-94382259D01*
X131058644Y-94350315D01*
X131063568Y-94347080D01*
X131062318Y-95779682D01*
X131660428Y-97227218D01*
X132766957Y-98335680D01*
X132921134Y-98399700D01*
X128794259Y-98399700D01*
X128794259Y-93942000D01*
X128794259Y-92418000D01*
X128762315Y-92253356D01*
X128667258Y-92108649D01*
X128523755Y-92011784D01*
X128354000Y-91977741D01*
X128044678Y-91977741D01*
X128323143Y-91862397D01*
X128392608Y-91620213D01*
X127592000Y-90819605D01*
X127412395Y-90999210D01*
X127412395Y-90640000D01*
X126611787Y-89839392D01*
X126369603Y-89908857D01*
X126325547Y-90032344D01*
X126274397Y-89908857D01*
X126246007Y-89900713D01*
X126246007Y-87863580D01*
X126064645Y-87424650D01*
X125801300Y-87160845D01*
X125801300Y-85393099D01*
X126009663Y-85185100D01*
X126182103Y-84769817D01*
X126182496Y-84320156D01*
X126010781Y-83904573D01*
X125693100Y-83586337D01*
X125277817Y-83413897D01*
X124828156Y-83413504D01*
X124412573Y-83585219D01*
X124094337Y-83902900D01*
X123921897Y-84318183D01*
X123921504Y-84767844D01*
X124093219Y-85183427D01*
X124302700Y-85393273D01*
X124302700Y-87161176D01*
X124040536Y-87422884D01*
X123858408Y-87861497D01*
X123857993Y-88336420D01*
X124039355Y-88775350D01*
X124374884Y-89111464D01*
X124726662Y-89257535D01*
X124704632Y-89258638D01*
X124320857Y-89417603D01*
X124251392Y-89659787D01*
X125052000Y-90460395D01*
X125852608Y-89659787D01*
X125783143Y-89417603D01*
X125357130Y-89265616D01*
X125727350Y-89112645D01*
X126063464Y-88777116D01*
X126245592Y-88338503D01*
X126246007Y-87863580D01*
X126246007Y-89900713D01*
X126032213Y-89839392D01*
X125231605Y-90640000D01*
X126032213Y-91440608D01*
X126274397Y-91371143D01*
X126318452Y-91247655D01*
X126369603Y-91371143D01*
X126611787Y-91440608D01*
X127412395Y-90640000D01*
X127412395Y-90999210D01*
X126791392Y-91620213D01*
X126860857Y-91862397D01*
X127184162Y-91977741D01*
X126830000Y-91977741D01*
X126665356Y-92009685D01*
X126520649Y-92104742D01*
X126423784Y-92248245D01*
X126389741Y-92418000D01*
X126389741Y-93942000D01*
X126421685Y-94106644D01*
X126516742Y-94251351D01*
X126660245Y-94348216D01*
X126830000Y-94382259D01*
X128354000Y-94382259D01*
X128518644Y-94350315D01*
X128663351Y-94255258D01*
X128760216Y-94111755D01*
X128794259Y-93942000D01*
X128794259Y-98399700D01*
X126254259Y-98399700D01*
X126254259Y-93942000D01*
X126254259Y-92418000D01*
X126222315Y-92253356D01*
X126127258Y-92108649D01*
X125983755Y-92011784D01*
X125814000Y-91977741D01*
X125504678Y-91977741D01*
X125783143Y-91862397D01*
X125852608Y-91620213D01*
X125052000Y-90819605D01*
X124872395Y-90999210D01*
X124872395Y-90640000D01*
X124071787Y-89839392D01*
X123829603Y-89908857D01*
X123785547Y-90032344D01*
X123734397Y-89908857D01*
X123706007Y-89900713D01*
X123706007Y-87863580D01*
X123524645Y-87424650D01*
X123261300Y-87160845D01*
X123261300Y-85393099D01*
X123469663Y-85185100D01*
X123642103Y-84769817D01*
X123642496Y-84320156D01*
X123470781Y-83904573D01*
X123153100Y-83586337D01*
X122737817Y-83413897D01*
X122288156Y-83413504D01*
X121872573Y-83585219D01*
X121554337Y-83902900D01*
X121381897Y-84318183D01*
X121381504Y-84767844D01*
X121553219Y-85183427D01*
X121762700Y-85393273D01*
X121762700Y-87161176D01*
X121500536Y-87422884D01*
X121318408Y-87861497D01*
X121317993Y-88336420D01*
X121499355Y-88775350D01*
X121834884Y-89111464D01*
X122186662Y-89257535D01*
X122164632Y-89258638D01*
X121780857Y-89417603D01*
X121711392Y-89659787D01*
X122512000Y-90460395D01*
X123312608Y-89659787D01*
X123243143Y-89417603D01*
X122817130Y-89265616D01*
X123187350Y-89112645D01*
X123523464Y-88777116D01*
X123705592Y-88338503D01*
X123706007Y-87863580D01*
X123706007Y-89900713D01*
X123492213Y-89839392D01*
X122691605Y-90640000D01*
X123492213Y-91440608D01*
X123734397Y-91371143D01*
X123778452Y-91247655D01*
X123829603Y-91371143D01*
X124071787Y-91440608D01*
X124872395Y-90640000D01*
X124872395Y-90999210D01*
X124251392Y-91620213D01*
X124320857Y-91862397D01*
X124644162Y-91977741D01*
X124290000Y-91977741D01*
X124125356Y-92009685D01*
X123980649Y-92104742D01*
X123883784Y-92248245D01*
X123849741Y-92418000D01*
X123849741Y-93942000D01*
X123881685Y-94106644D01*
X123976742Y-94251351D01*
X124120245Y-94348216D01*
X124290000Y-94382259D01*
X125814000Y-94382259D01*
X125978644Y-94350315D01*
X126123351Y-94255258D01*
X126220216Y-94111755D01*
X126254259Y-93942000D01*
X126254259Y-98399700D01*
X123714259Y-98399700D01*
X123714259Y-93942000D01*
X123714259Y-92418000D01*
X123682315Y-92253356D01*
X123587258Y-92108649D01*
X123443755Y-92011784D01*
X123274000Y-91977741D01*
X122964678Y-91977741D01*
X123243143Y-91862397D01*
X123312608Y-91620213D01*
X122512000Y-90819605D01*
X122332395Y-90999210D01*
X122332395Y-90640000D01*
X121531787Y-89839392D01*
X121289603Y-89908857D01*
X121102856Y-90432302D01*
X121130638Y-90987368D01*
X121289603Y-91371143D01*
X121531787Y-91440608D01*
X122332395Y-90640000D01*
X122332395Y-90999210D01*
X121711392Y-91620213D01*
X121780857Y-91862397D01*
X122104162Y-91977741D01*
X121750000Y-91977741D01*
X121585356Y-92009685D01*
X121440649Y-92104742D01*
X121343784Y-92248245D01*
X121309741Y-92418000D01*
X121309741Y-93942000D01*
X121341685Y-94106644D01*
X121436742Y-94251351D01*
X121580245Y-94348216D01*
X121750000Y-94382259D01*
X123274000Y-94382259D01*
X123438644Y-94350315D01*
X123583351Y-94255258D01*
X123680216Y-94111755D01*
X123714259Y-93942000D01*
X123714259Y-98399700D01*
X121102496Y-98399700D01*
X121102496Y-84320156D01*
X120979000Y-84021272D01*
X120979000Y-83279000D01*
X116788000Y-83279000D01*
X116434841Y-83279000D01*
X116157975Y-84386466D01*
X116022496Y-84792903D01*
X116022496Y-84320156D01*
X115850781Y-83904573D01*
X115533100Y-83586337D01*
X115117817Y-83413897D01*
X114668156Y-83413504D01*
X114252573Y-83585219D01*
X113934337Y-83902900D01*
X113761897Y-84318183D01*
X113761504Y-84767844D01*
X113933219Y-85183427D01*
X114250900Y-85501663D01*
X114666183Y-85674103D01*
X115115844Y-85674496D01*
X115531427Y-85502781D01*
X115849663Y-85185100D01*
X116022103Y-84769817D01*
X116022496Y-84320156D01*
X116022496Y-84792903D01*
X115680464Y-85819000D01*
X114438500Y-85819000D01*
X113697927Y-86806430D01*
X113697927Y-84736520D01*
X113669148Y-84206801D01*
X113521800Y-83851071D01*
X113286188Y-83789417D01*
X113106583Y-83969022D01*
X113106583Y-83609812D01*
X113044929Y-83374200D01*
X112544520Y-83198073D01*
X112014801Y-83226852D01*
X111659071Y-83374200D01*
X111597417Y-83609812D01*
X112352000Y-84364395D01*
X113106583Y-83609812D01*
X113106583Y-83969022D01*
X112531605Y-84544000D01*
X113286188Y-85298583D01*
X113521800Y-85236929D01*
X113697927Y-84736520D01*
X113697927Y-86806430D01*
X113676500Y-86835000D01*
X112551374Y-86835000D01*
X112584148Y-86756072D01*
X112584452Y-86407458D01*
X112451324Y-86085264D01*
X112251345Y-85884936D01*
X112689199Y-85861148D01*
X113044929Y-85713800D01*
X113106583Y-85478188D01*
X112352000Y-84723605D01*
X112172395Y-84903210D01*
X112172395Y-84544000D01*
X111417812Y-83789417D01*
X111182200Y-83851071D01*
X111006073Y-84351480D01*
X111034852Y-84881199D01*
X111182200Y-85236929D01*
X111417812Y-85298583D01*
X112172395Y-84544000D01*
X112172395Y-84903210D01*
X111597417Y-85478188D01*
X111656677Y-85704654D01*
X111534458Y-85704548D01*
X111212264Y-85837676D01*
X110965542Y-86083968D01*
X110831852Y-86405928D01*
X110831548Y-86754542D01*
X110958700Y-87062272D01*
X110958700Y-87749088D01*
X110824645Y-87424650D01*
X110561300Y-87160845D01*
X110561300Y-85393099D01*
X110769663Y-85185100D01*
X110942103Y-84769817D01*
X110942496Y-84320156D01*
X110770781Y-83904573D01*
X110453100Y-83586337D01*
X110037817Y-83413897D01*
X109588156Y-83413504D01*
X109172573Y-83585219D01*
X108854337Y-83902900D01*
X108681897Y-84318183D01*
X108681504Y-84767844D01*
X108853219Y-85183427D01*
X109062700Y-85393273D01*
X109062700Y-87161176D01*
X108800536Y-87422884D01*
X108618408Y-87861497D01*
X108617993Y-88336420D01*
X108799355Y-88775350D01*
X109134884Y-89111464D01*
X109486662Y-89257535D01*
X109464632Y-89258638D01*
X109080857Y-89417603D01*
X109011392Y-89659784D01*
X108896382Y-89544774D01*
X108847749Y-89593407D01*
X108277171Y-89022829D01*
X108133492Y-88926826D01*
X108283464Y-88777116D01*
X108465592Y-88338503D01*
X108466007Y-87863580D01*
X108284645Y-87424650D01*
X108021300Y-87160845D01*
X108021300Y-85393099D01*
X108229663Y-85185100D01*
X108402103Y-84769817D01*
X108402496Y-84320156D01*
X108230781Y-83904573D01*
X107913100Y-83586337D01*
X107497817Y-83413897D01*
X107048156Y-83413504D01*
X106632573Y-83585219D01*
X106314337Y-83902900D01*
X106141897Y-84318183D01*
X106141504Y-84767844D01*
X106313219Y-85183427D01*
X106522700Y-85393273D01*
X106522700Y-87161176D01*
X106260536Y-87422884D01*
X106078408Y-87861497D01*
X106077993Y-88336420D01*
X106259355Y-88775350D01*
X106350446Y-88866600D01*
X105653823Y-88866600D01*
X105743464Y-88777116D01*
X105925592Y-88338503D01*
X105926007Y-87863580D01*
X105744645Y-87424650D01*
X105481300Y-87160845D01*
X105481300Y-85393099D01*
X105689663Y-85185100D01*
X105862103Y-84769817D01*
X105862496Y-84320156D01*
X105690781Y-83904573D01*
X105373100Y-83586337D01*
X104957817Y-83413897D01*
X104508156Y-83413504D01*
X104092573Y-83585219D01*
X103774337Y-83902900D01*
X103601897Y-84318183D01*
X103601504Y-84767844D01*
X103773219Y-85183427D01*
X103982700Y-85393273D01*
X103982700Y-87161176D01*
X103720536Y-87422884D01*
X103538408Y-87861497D01*
X103538134Y-88174185D01*
X103500000Y-88166600D01*
X103385742Y-88166600D01*
X103386007Y-87863580D01*
X103204645Y-87424650D01*
X102941300Y-87160845D01*
X102941300Y-85393099D01*
X103149663Y-85185100D01*
X103322103Y-84769817D01*
X103322496Y-84320156D01*
X103150781Y-83904573D01*
X102833100Y-83586337D01*
X102417817Y-83413897D01*
X101968156Y-83413504D01*
X101552573Y-83585219D01*
X101234337Y-83902900D01*
X101061897Y-84318183D01*
X101061504Y-84767844D01*
X101233219Y-85183427D01*
X101442700Y-85393273D01*
X101442700Y-87161176D01*
X101180536Y-87422884D01*
X100998408Y-87861497D01*
X100997993Y-88336420D01*
X101179355Y-88775350D01*
X101514884Y-89111464D01*
X101866662Y-89257535D01*
X101844632Y-89258638D01*
X101460857Y-89417603D01*
X101433400Y-89513329D01*
X101433400Y-89348005D01*
X101433400Y-89348000D01*
X101433401Y-89348000D01*
X101392797Y-89143877D01*
X101277171Y-88970830D01*
X101277171Y-88970829D01*
X101277167Y-88970826D01*
X100786691Y-88480350D01*
X100845592Y-88338503D01*
X100846007Y-87863580D01*
X100664645Y-87424650D01*
X100401300Y-87160845D01*
X100401300Y-85393099D01*
X100609663Y-85185100D01*
X100782103Y-84769817D01*
X100782496Y-84320156D01*
X100610781Y-83904573D01*
X100293100Y-83586337D01*
X99877817Y-83413897D01*
X99428156Y-83413504D01*
X99012573Y-83585219D01*
X98694337Y-83902900D01*
X98521897Y-84318183D01*
X98521504Y-84767844D01*
X98693219Y-85183427D01*
X98902700Y-85393273D01*
X98902700Y-87161176D01*
X98640536Y-87422884D01*
X98458408Y-87861497D01*
X98457993Y-88336420D01*
X98639355Y-88775350D01*
X98974884Y-89111464D01*
X99326662Y-89257535D01*
X99304632Y-89258638D01*
X98920857Y-89417603D01*
X98851392Y-89659787D01*
X99652000Y-90460395D01*
X99666142Y-90446252D01*
X99845747Y-90625857D01*
X99831605Y-90640000D01*
X99845747Y-90654142D01*
X99666142Y-90833747D01*
X99652000Y-90819605D01*
X99472395Y-90999210D01*
X99472395Y-90640000D01*
X98671787Y-89839392D01*
X98429603Y-89908857D01*
X98242856Y-90432302D01*
X98270638Y-90987368D01*
X98429603Y-91371143D01*
X98671787Y-91440608D01*
X99472395Y-90640000D01*
X99472395Y-90999210D01*
X98851392Y-91620213D01*
X98920857Y-91862397D01*
X99244162Y-91977741D01*
X98890000Y-91977741D01*
X98725356Y-92009685D01*
X98580649Y-92104742D01*
X98483784Y-92248245D01*
X98449741Y-92418000D01*
X98449741Y-93942000D01*
X98481685Y-94106644D01*
X98576742Y-94251351D01*
X98720245Y-94348216D01*
X98890000Y-94382259D01*
X100366600Y-94382259D01*
X100366600Y-94400000D01*
X100407203Y-94604123D01*
X100522829Y-94777171D01*
X101322829Y-95577171D01*
X101495877Y-95692797D01*
X101700000Y-95733400D01*
X106379058Y-95733400D01*
X107173450Y-96527792D01*
X107076408Y-96761497D01*
X107075993Y-97236420D01*
X107257355Y-97675350D01*
X107592884Y-98011464D01*
X108031497Y-98193592D01*
X108506420Y-98194007D01*
X108945350Y-98012645D01*
X109281464Y-97677116D01*
X109463592Y-97238503D01*
X109464007Y-96763580D01*
X109282645Y-96324650D01*
X108947116Y-95988536D01*
X108508503Y-95806408D01*
X108033580Y-95805993D01*
X107981750Y-95827408D01*
X106977171Y-94822829D01*
X106804123Y-94707203D01*
X106600000Y-94666600D01*
X105934259Y-94666600D01*
X105934259Y-93942000D01*
X105934259Y-92418000D01*
X105902315Y-92253356D01*
X105807258Y-92108649D01*
X105663755Y-92011784D01*
X105494000Y-91977741D01*
X105184678Y-91977741D01*
X105463143Y-91862397D01*
X105532608Y-91620213D01*
X104732000Y-90819605D01*
X104552395Y-90999210D01*
X103931392Y-91620213D01*
X104000857Y-91862397D01*
X104324162Y-91977741D01*
X103970000Y-91977741D01*
X103805356Y-92009685D01*
X103660649Y-92104742D01*
X103563784Y-92248245D01*
X103529741Y-92418000D01*
X103529741Y-93942000D01*
X103561685Y-94106644D01*
X103656742Y-94251351D01*
X103800245Y-94348216D01*
X103970000Y-94382259D01*
X105494000Y-94382259D01*
X105658644Y-94350315D01*
X105803351Y-94255258D01*
X105900216Y-94111755D01*
X105934259Y-93942000D01*
X105934259Y-94666600D01*
X101920942Y-94666600D01*
X101636601Y-94382259D01*
X102954000Y-94382259D01*
X103118644Y-94350315D01*
X103263351Y-94255258D01*
X103360216Y-94111755D01*
X103394259Y-93942000D01*
X103394259Y-92418000D01*
X103362315Y-92253356D01*
X103267258Y-92108649D01*
X103123755Y-92011784D01*
X102954000Y-91977741D01*
X102644678Y-91977741D01*
X102923143Y-91862397D01*
X102992608Y-91620213D01*
X102192000Y-90819605D01*
X102177857Y-90833747D01*
X101998252Y-90654142D01*
X102012395Y-90640000D01*
X101998252Y-90625857D01*
X102177857Y-90446252D01*
X102192000Y-90460395D01*
X102992608Y-89659787D01*
X102923143Y-89417603D01*
X102497130Y-89265616D01*
X102645585Y-89204276D01*
X102792000Y-89233400D01*
X103279058Y-89233400D01*
X103703407Y-89657748D01*
X103636774Y-89724382D01*
X103751784Y-89839392D01*
X103509603Y-89908857D01*
X103465547Y-90032344D01*
X103414397Y-89908857D01*
X103172213Y-89839392D01*
X102371605Y-90640000D01*
X103172213Y-91440608D01*
X103414397Y-91371143D01*
X103458452Y-91247655D01*
X103509603Y-91371143D01*
X103751787Y-91440608D01*
X104552395Y-90640000D01*
X104538252Y-90625857D01*
X104717857Y-90446252D01*
X104732000Y-90460395D01*
X104746142Y-90446252D01*
X104925747Y-90625857D01*
X104911605Y-90640000D01*
X105712213Y-91440608D01*
X105954397Y-91371143D01*
X105998452Y-91247655D01*
X106049603Y-91371143D01*
X106291787Y-91440608D01*
X107092395Y-90640000D01*
X107078252Y-90625857D01*
X107257857Y-90446252D01*
X107272000Y-90460395D01*
X107286142Y-90446252D01*
X107465747Y-90625857D01*
X107451605Y-90640000D01*
X107465747Y-90654142D01*
X107286142Y-90833747D01*
X107272000Y-90819605D01*
X106471392Y-91620213D01*
X106540857Y-91862397D01*
X106864162Y-91977741D01*
X106510000Y-91977741D01*
X106345356Y-92009685D01*
X106200649Y-92104742D01*
X106103784Y-92248245D01*
X106069741Y-92418000D01*
X106069741Y-93942000D01*
X106101685Y-94106644D01*
X106196742Y-94251351D01*
X106340245Y-94348216D01*
X106510000Y-94382259D01*
X107966600Y-94382259D01*
X107966600Y-94600000D01*
X108007203Y-94804123D01*
X108122829Y-94977171D01*
X109701714Y-96556056D01*
X109616408Y-96761497D01*
X109615993Y-97236420D01*
X109797355Y-97675350D01*
X110132884Y-98011464D01*
X110571497Y-98193592D01*
X111046420Y-98194007D01*
X111485350Y-98012645D01*
X111821464Y-97677116D01*
X112003592Y-97238503D01*
X112004007Y-96763580D01*
X111822645Y-96324650D01*
X111487116Y-95988536D01*
X111048503Y-95806408D01*
X110573580Y-95805993D01*
X110493445Y-95839103D01*
X109033400Y-94379058D01*
X109033400Y-94378930D01*
X109050000Y-94382259D01*
X110574000Y-94382259D01*
X110738644Y-94350315D01*
X110883351Y-94255258D01*
X110980216Y-94111755D01*
X111014259Y-93942000D01*
X111014259Y-92418000D01*
X110982315Y-92253356D01*
X110887258Y-92108649D01*
X110743755Y-92011784D01*
X110574000Y-91977741D01*
X110264678Y-91977741D01*
X110543143Y-91862397D01*
X110612608Y-91620213D01*
X109812000Y-90819605D01*
X109797857Y-90833747D01*
X109618252Y-90654142D01*
X109632395Y-90640000D01*
X109618252Y-90625857D01*
X109797857Y-90446252D01*
X109812000Y-90460395D01*
X110612608Y-89659787D01*
X110543143Y-89417603D01*
X110117130Y-89265616D01*
X110487350Y-89112645D01*
X110823464Y-88777116D01*
X110958700Y-88451431D01*
X110958700Y-89887145D01*
X110792213Y-89839392D01*
X109991605Y-90640000D01*
X110792213Y-91440608D01*
X110958700Y-91392854D01*
X110958700Y-91661000D01*
X111015737Y-91947745D01*
X111178165Y-92190835D01*
X111350700Y-92363370D01*
X111350700Y-94019445D01*
X111223852Y-94324928D01*
X111223548Y-94673542D01*
X111356676Y-94995736D01*
X111602968Y-95242458D01*
X111924928Y-95376148D01*
X112273542Y-95376452D01*
X112595736Y-95243324D01*
X112842458Y-94997032D01*
X112976148Y-94675072D01*
X112976452Y-94326458D01*
X112849300Y-94018727D01*
X112849300Y-92053000D01*
X112792263Y-91766256D01*
X112792263Y-91766255D01*
X112629835Y-91523165D01*
X112457300Y-91350630D01*
X112457300Y-89883000D01*
X114248000Y-89883000D01*
X115264000Y-89883000D01*
X117042000Y-89883000D01*
X118884672Y-89883000D01*
X120979000Y-87003298D01*
X120979000Y-85066282D01*
X121102103Y-84769817D01*
X121102496Y-84320156D01*
X121102496Y-98399700D01*
X118934496Y-98399700D01*
X118934496Y-93596156D01*
X118762781Y-93180573D01*
X118445100Y-92862337D01*
X118029817Y-92689897D01*
X117580156Y-92689504D01*
X117164573Y-92861219D01*
X116846337Y-93178900D01*
X116673897Y-93594183D01*
X116673504Y-94043844D01*
X116845219Y-94459427D01*
X117162900Y-94777663D01*
X117578183Y-94950103D01*
X118027844Y-94950496D01*
X118443427Y-94778781D01*
X118761663Y-94461100D01*
X118934103Y-94045817D01*
X118934496Y-93596156D01*
X118934496Y-98399700D01*
X116609927Y-98399700D01*
X116609927Y-94012520D01*
X116581148Y-93482801D01*
X116433800Y-93127071D01*
X116198188Y-93065417D01*
X116018583Y-93245022D01*
X116018583Y-92885812D01*
X115956929Y-92650200D01*
X115456520Y-92474073D01*
X114926801Y-92502852D01*
X114571071Y-92650200D01*
X114509417Y-92885812D01*
X115264000Y-93640395D01*
X116018583Y-92885812D01*
X116018583Y-93245022D01*
X115443605Y-93820000D01*
X116198188Y-94574583D01*
X116433800Y-94512929D01*
X116609927Y-94012520D01*
X116609927Y-98399700D01*
X116018583Y-98399700D01*
X116018583Y-94754188D01*
X115264000Y-93999605D01*
X115084395Y-94179210D01*
X115084395Y-93820000D01*
X114329812Y-93065417D01*
X114094200Y-93127071D01*
X113918073Y-93627480D01*
X113946852Y-94157199D01*
X114094200Y-94512929D01*
X114329812Y-94574583D01*
X115084395Y-93820000D01*
X115084395Y-94179210D01*
X114509417Y-94754188D01*
X114571071Y-94989800D01*
X115071480Y-95165927D01*
X115601199Y-95137148D01*
X115956929Y-94989800D01*
X116018583Y-94754188D01*
X116018583Y-98399700D01*
X114544007Y-98399700D01*
X114544007Y-96763580D01*
X114362645Y-96324650D01*
X114027116Y-95988536D01*
X113588503Y-95806408D01*
X113113580Y-95805993D01*
X112674650Y-95987355D01*
X112338536Y-96322884D01*
X112156408Y-96761497D01*
X112155993Y-97236420D01*
X112337355Y-97675350D01*
X112672884Y-98011464D01*
X113111497Y-98193592D01*
X113586420Y-98194007D01*
X114025350Y-98012645D01*
X114361464Y-97677116D01*
X114543592Y-97238503D01*
X114544007Y-96763580D01*
X114544007Y-98399700D01*
X112004007Y-98399700D01*
X106924007Y-98399700D01*
X106924007Y-96763580D01*
X106742645Y-96324650D01*
X106407116Y-95988536D01*
X105968503Y-95806408D01*
X105493580Y-95805993D01*
X105054650Y-95987355D01*
X104718536Y-96322884D01*
X104536408Y-96761497D01*
X104535993Y-97236420D01*
X104717355Y-97675350D01*
X105052884Y-98011464D01*
X105491497Y-98193592D01*
X105966420Y-98194007D01*
X106405350Y-98012645D01*
X106741464Y-97677116D01*
X106923592Y-97238503D01*
X106924007Y-96763580D01*
X106924007Y-98399700D01*
X104384007Y-98399700D01*
X104384007Y-96763580D01*
X104202645Y-96324650D01*
X103867116Y-95988536D01*
X103428503Y-95806408D01*
X102953580Y-95805993D01*
X102514650Y-95987355D01*
X102178536Y-96322884D01*
X101996408Y-96761497D01*
X101995993Y-97236420D01*
X102177355Y-97675350D01*
X102512884Y-98011464D01*
X102951497Y-98193592D01*
X103426420Y-98194007D01*
X103865350Y-98012645D01*
X104201464Y-97677116D01*
X104383592Y-97238503D01*
X104384007Y-96763580D01*
X104384007Y-98399700D01*
X101852259Y-98399700D01*
X101852259Y-97762000D01*
X101852259Y-96238000D01*
X101820315Y-96073356D01*
X101725258Y-95928649D01*
X101581755Y-95831784D01*
X101412000Y-95797741D01*
X99888000Y-95797741D01*
X99723356Y-95829685D01*
X99578649Y-95924742D01*
X99481784Y-96068245D01*
X99447741Y-96238000D01*
X99447741Y-97762000D01*
X99479685Y-97926644D01*
X99574742Y-98071351D01*
X99718245Y-98168216D01*
X99888000Y-98202259D01*
X101412000Y-98202259D01*
X101576644Y-98170315D01*
X101721351Y-98075258D01*
X101818216Y-97931755D01*
X101852259Y-97762000D01*
X101852259Y-98399700D01*
X96081697Y-98399700D01*
X96227218Y-98339572D01*
X97335680Y-97233043D01*
X97936315Y-95786553D01*
X97937682Y-94220318D01*
X97339572Y-92772782D01*
X96233043Y-91664320D01*
X96074496Y-91598485D01*
X96074496Y-88008156D01*
X95902781Y-87592573D01*
X95585100Y-87274337D01*
X95169817Y-87101897D01*
X94720156Y-87101504D01*
X94304573Y-87273219D01*
X94064000Y-87513372D01*
X94064000Y-85813309D01*
X94064000Y-85083750D01*
X94064000Y-84512250D01*
X94064000Y-83782691D01*
X93967327Y-83549302D01*
X93788699Y-83370673D01*
X93555310Y-83274000D01*
X93302691Y-83274000D01*
X92825750Y-83274000D01*
X92667000Y-83432750D01*
X92667000Y-84671000D01*
X93905250Y-84671000D01*
X94064000Y-84512250D01*
X94064000Y-85083750D01*
X93905250Y-84925000D01*
X92667000Y-84925000D01*
X92667000Y-86163250D01*
X92825750Y-86322000D01*
X93302691Y-86322000D01*
X93555310Y-86322000D01*
X93788699Y-86225327D01*
X93967327Y-86046698D01*
X94064000Y-85813309D01*
X94064000Y-87513372D01*
X93986337Y-87590900D01*
X93813897Y-88006183D01*
X93813504Y-88455844D01*
X93985219Y-88871427D01*
X94302900Y-89189663D01*
X94718183Y-89362103D01*
X95167844Y-89362496D01*
X95583427Y-89190781D01*
X95901663Y-88873100D01*
X96074103Y-88457817D01*
X96074496Y-88008156D01*
X96074496Y-91598485D01*
X94786553Y-91063685D01*
X93534496Y-91062592D01*
X93534496Y-88008156D01*
X93362781Y-87592573D01*
X93045100Y-87274337D01*
X92629817Y-87101897D01*
X92413000Y-87101707D01*
X92413000Y-86163250D01*
X92413000Y-84925000D01*
X92413000Y-84671000D01*
X92413000Y-83432750D01*
X92254250Y-83274000D01*
X91777309Y-83274000D01*
X91524690Y-83274000D01*
X91291301Y-83370673D01*
X91112673Y-83549302D01*
X91016000Y-83782691D01*
X91016000Y-84512250D01*
X91174750Y-84671000D01*
X92413000Y-84671000D01*
X92413000Y-84925000D01*
X91174750Y-84925000D01*
X91016000Y-85083750D01*
X91016000Y-85813309D01*
X91112673Y-86046698D01*
X91291301Y-86225327D01*
X91524690Y-86322000D01*
X91777309Y-86322000D01*
X92254250Y-86322000D01*
X92413000Y-86163250D01*
X92413000Y-87101707D01*
X92180156Y-87101504D01*
X91764573Y-87273219D01*
X91446337Y-87590900D01*
X91273897Y-88006183D01*
X91273504Y-88455844D01*
X91445219Y-88871427D01*
X91762900Y-89189663D01*
X92178183Y-89362103D01*
X92627844Y-89362496D01*
X93043427Y-89190781D01*
X93361663Y-88873100D01*
X93534103Y-88457817D01*
X93534496Y-88008156D01*
X93534496Y-91062592D01*
X93220318Y-91062318D01*
X91772782Y-91660428D01*
X90664320Y-92766957D01*
X90622300Y-92868152D01*
X90622300Y-60033000D01*
X94196181Y-60033000D01*
X94450181Y-66129000D01*
X115412700Y-66129000D01*
X115412700Y-67085741D01*
X115400000Y-67085741D01*
X115235356Y-67117685D01*
X115090649Y-67212742D01*
X114993784Y-67356245D01*
X114959741Y-67526000D01*
X114959741Y-69050000D01*
X114991685Y-69214644D01*
X115086742Y-69359351D01*
X115230245Y-69456216D01*
X115400000Y-69490259D01*
X115709321Y-69490259D01*
X115430857Y-69605603D01*
X115361392Y-69847787D01*
X116162000Y-70648395D01*
X116962608Y-69847787D01*
X116893143Y-69605603D01*
X116569837Y-69490259D01*
X116924000Y-69490259D01*
X117088644Y-69458315D01*
X117233351Y-69363258D01*
X117330216Y-69219755D01*
X117364259Y-69050000D01*
X117364259Y-67526000D01*
X117332315Y-67361356D01*
X117237258Y-67216649D01*
X117093755Y-67119784D01*
X116924000Y-67085741D01*
X116911300Y-67085741D01*
X116911300Y-66129000D01*
X120099973Y-66129000D01*
X120036473Y-57810500D01*
X133910450Y-57810500D01*
X134213447Y-57936315D01*
X135779682Y-57937682D01*
X136087485Y-57810500D01*
X138399700Y-57810500D01*
X138399700Y-92918302D01*
G36*
X130858000Y-55986620D02*
X130774958Y-55986548D01*
X130467227Y-56113700D01*
X127725000Y-56113700D01*
X127725000Y-54210310D01*
X127725000Y-53957691D01*
X127725000Y-53719750D01*
X127725000Y-53148250D01*
X127725000Y-52910309D01*
X127725000Y-52657690D01*
X127628327Y-52424301D01*
X127449698Y-52245673D01*
X127216309Y-52149000D01*
X126725750Y-52149000D01*
X126567000Y-52307750D01*
X126567000Y-53307000D01*
X127566250Y-53307000D01*
X127725000Y-53148250D01*
X127725000Y-53719750D01*
X127566250Y-53561000D01*
X126567000Y-53561000D01*
X126567000Y-54560250D01*
X126725750Y-54719000D01*
X127216309Y-54719000D01*
X127449698Y-54622327D01*
X127628327Y-54443699D01*
X127725000Y-54210310D01*
X127725000Y-56113700D01*
X126313000Y-56113700D01*
X126313000Y-54560250D01*
X126313000Y-53561000D01*
X126313000Y-53307000D01*
X126313000Y-52307750D01*
X126154250Y-52149000D01*
X125663691Y-52149000D01*
X125430302Y-52245673D01*
X125251673Y-52424301D01*
X125155000Y-52657690D01*
X125155000Y-52910309D01*
X125155000Y-53148250D01*
X125313750Y-53307000D01*
X126313000Y-53307000D01*
X126313000Y-53561000D01*
X125313750Y-53561000D01*
X125155000Y-53719750D01*
X125155000Y-53957691D01*
X125155000Y-54210310D01*
X125251673Y-54443699D01*
X125430302Y-54622327D01*
X125663691Y-54719000D01*
X126154250Y-54719000D01*
X126313000Y-54560250D01*
X126313000Y-56113700D01*
X125021988Y-56113700D01*
X125021988Y-53219761D01*
X124857640Y-52822010D01*
X124553591Y-52517429D01*
X124156127Y-52352388D01*
X123725761Y-52352012D01*
X123328010Y-52516360D01*
X123023429Y-52820409D01*
X122858388Y-53217873D01*
X122858012Y-53648239D01*
X123022360Y-54045990D01*
X123326409Y-54350571D01*
X123723873Y-54515612D01*
X124154239Y-54515988D01*
X124551990Y-54351640D01*
X124856571Y-54047591D01*
X125021612Y-53650127D01*
X125021988Y-53219761D01*
X125021988Y-56113700D01*
X119881480Y-56113700D01*
X119761532Y-55993542D01*
X119439572Y-55859852D01*
X119090958Y-55859548D01*
X118768764Y-55992676D01*
X118522042Y-56238968D01*
X118388352Y-56560928D01*
X118388048Y-56909542D01*
X118461685Y-57087759D01*
X118312000Y-57057741D01*
X117981800Y-57057741D01*
X117981800Y-53052310D01*
X117981800Y-52799691D01*
X117981800Y-52195750D01*
X117823050Y-52037000D01*
X115645000Y-52037000D01*
X115645000Y-53402250D01*
X115803750Y-53561000D01*
X117473109Y-53561000D01*
X117706498Y-53464327D01*
X117885127Y-53285699D01*
X117981800Y-53052310D01*
X117981800Y-57057741D01*
X117296000Y-57057741D01*
X117131356Y-57089685D01*
X116986649Y-57184742D01*
X116889784Y-57328245D01*
X116855741Y-57498000D01*
X116855741Y-59530000D01*
X116887685Y-59694644D01*
X116982742Y-59839351D01*
X117054700Y-59887922D01*
X117054700Y-60489630D01*
X116858568Y-60685761D01*
X116661000Y-60685588D01*
X116661000Y-59656310D01*
X116661000Y-59403691D01*
X116661000Y-58799750D01*
X116661000Y-58228250D01*
X116661000Y-57624309D01*
X116661000Y-57371690D01*
X116564327Y-57138301D01*
X116385698Y-56959673D01*
X116152309Y-56863000D01*
X115803750Y-56863000D01*
X115645000Y-57021750D01*
X115645000Y-58387000D01*
X116502250Y-58387000D01*
X116661000Y-58228250D01*
X116661000Y-58799750D01*
X116502250Y-58641000D01*
X115645000Y-58641000D01*
X115645000Y-60006250D01*
X115803750Y-60165000D01*
X116152309Y-60165000D01*
X116385698Y-60068327D01*
X116564327Y-59889699D01*
X116661000Y-59656310D01*
X116661000Y-60685588D01*
X116564156Y-60685504D01*
X116148573Y-60857219D01*
X115830337Y-61174900D01*
X115657897Y-61590183D01*
X115657504Y-62039844D01*
X115829219Y-62455427D01*
X116146900Y-62773663D01*
X116562183Y-62946103D01*
X117011844Y-62946496D01*
X117427427Y-62774781D01*
X117745663Y-62457100D01*
X117918103Y-62041817D01*
X117918362Y-61745307D01*
X118333835Y-61329835D01*
X118496263Y-61086745D01*
X118553300Y-60800000D01*
X118553300Y-59887960D01*
X118621351Y-59843258D01*
X118718216Y-59699755D01*
X118752259Y-59530000D01*
X118752259Y-57498000D01*
X118743883Y-57454832D01*
X118767468Y-57478458D01*
X119083000Y-57609478D01*
X119083000Y-65114340D01*
X115391000Y-65153512D01*
X115391000Y-60006250D01*
X115391000Y-58641000D01*
X115391000Y-58387000D01*
X115391000Y-57021750D01*
X115391000Y-53402250D01*
X115391000Y-52037000D01*
X113212950Y-52037000D01*
X113054200Y-52195750D01*
X113054200Y-52799691D01*
X113054200Y-53052310D01*
X113150873Y-53285699D01*
X113329502Y-53464327D01*
X113562891Y-53561000D01*
X115232250Y-53561000D01*
X115391000Y-53402250D01*
X115391000Y-57021750D01*
X115232250Y-56863000D01*
X114883691Y-56863000D01*
X114650302Y-56959673D01*
X114471673Y-57138301D01*
X114375000Y-57371690D01*
X114375000Y-57624309D01*
X114375000Y-58228250D01*
X114533750Y-58387000D01*
X115391000Y-58387000D01*
X115391000Y-58641000D01*
X114533750Y-58641000D01*
X114375000Y-58799750D01*
X114375000Y-59403691D01*
X114375000Y-59656310D01*
X114471673Y-59889699D01*
X114650302Y-60068327D01*
X114883691Y-60165000D01*
X115232250Y-60165000D01*
X115391000Y-60006250D01*
X115391000Y-65153512D01*
X115378496Y-65153645D01*
X115378496Y-61592156D01*
X115206781Y-61176573D01*
X114889100Y-60858337D01*
X114473817Y-60685897D01*
X114177307Y-60685637D01*
X113981300Y-60489630D01*
X113981300Y-59887960D01*
X114049351Y-59843258D01*
X114146216Y-59699755D01*
X114180259Y-59530000D01*
X114180259Y-57498000D01*
X114148315Y-57333356D01*
X114053258Y-57188649D01*
X113909755Y-57091784D01*
X113740000Y-57057741D01*
X112724000Y-57057741D01*
X112559356Y-57089685D01*
X112414649Y-57184742D01*
X112317784Y-57328245D01*
X112283741Y-57498000D01*
X112283741Y-59530000D01*
X112315685Y-59694644D01*
X112410742Y-59839351D01*
X112482700Y-59887922D01*
X112482700Y-60800000D01*
X112539737Y-61086745D01*
X112702165Y-61329835D01*
X113117761Y-61745431D01*
X113117504Y-62039844D01*
X113289219Y-62455427D01*
X113606900Y-62773663D01*
X114022183Y-62946103D01*
X114471844Y-62946496D01*
X114887427Y-62774781D01*
X115205663Y-62457100D01*
X115378103Y-62041817D01*
X115378496Y-61592156D01*
X115378496Y-65153645D01*
X109483628Y-65216190D01*
X109536103Y-65089817D01*
X109536496Y-64640156D01*
X109364781Y-64224573D01*
X109047100Y-63906337D01*
X108852273Y-63825438D01*
X108852273Y-59627995D01*
X108852273Y-53527995D01*
X108437258Y-52523581D01*
X107669461Y-51754443D01*
X106665773Y-51337675D01*
X105578995Y-51336727D01*
X104574581Y-51751742D01*
X103805443Y-52519539D01*
X103388675Y-53523227D01*
X103387727Y-54610005D01*
X103802742Y-55614419D01*
X104570539Y-56383557D01*
X105574227Y-56800325D01*
X106661005Y-56801273D01*
X107665419Y-56386258D01*
X108434557Y-55618461D01*
X108851325Y-54614773D01*
X108852273Y-53527995D01*
X108852273Y-59627995D01*
X108437258Y-58623581D01*
X107669461Y-57854443D01*
X106665773Y-57437675D01*
X105578995Y-57436727D01*
X104574581Y-57851742D01*
X103996247Y-58429067D01*
X104251325Y-57814773D01*
X104252273Y-56727995D01*
X103837258Y-55723581D01*
X103069461Y-54954443D01*
X102065773Y-54537675D01*
X100978995Y-54536727D01*
X99974581Y-54951742D01*
X99205443Y-55719539D01*
X98788675Y-56723227D01*
X98787727Y-57810005D01*
X99202742Y-58814419D01*
X99970539Y-59583557D01*
X100974227Y-60000325D01*
X102061005Y-60001273D01*
X103065419Y-59586258D01*
X103643752Y-59008932D01*
X103388675Y-59623227D01*
X103387727Y-60710005D01*
X103640060Y-61320700D01*
X100332992Y-61320700D01*
X100320315Y-61255356D01*
X100225258Y-61110649D01*
X100081755Y-61013784D01*
X99912000Y-60979741D01*
X98612000Y-60979741D01*
X98447356Y-61011685D01*
X98302649Y-61106742D01*
X98205784Y-61250245D01*
X98171741Y-61420000D01*
X98171741Y-62720000D01*
X98203685Y-62884644D01*
X98298742Y-63029351D01*
X98442245Y-63126216D01*
X98612000Y-63160259D01*
X99912000Y-63160259D01*
X100076644Y-63128315D01*
X100221351Y-63033258D01*
X100318216Y-62889755D01*
X100332345Y-62819300D01*
X104215000Y-62819300D01*
X104501745Y-62762263D01*
X104744835Y-62599835D01*
X104775857Y-62568812D01*
X105574227Y-62900325D01*
X106661005Y-62901273D01*
X107665419Y-62486258D01*
X108434557Y-61718461D01*
X108851325Y-60714773D01*
X108852273Y-59627995D01*
X108852273Y-63825438D01*
X108631817Y-63733897D01*
X108182156Y-63733504D01*
X107766573Y-63905219D01*
X107448337Y-64222900D01*
X107275897Y-64638183D01*
X107275504Y-65087844D01*
X107337942Y-65238955D01*
X106932388Y-65243258D01*
X106996103Y-65089817D01*
X106996496Y-64640156D01*
X106824781Y-64224573D01*
X106507100Y-63906337D01*
X106091817Y-63733897D01*
X105642156Y-63733504D01*
X105226573Y-63905219D01*
X104908337Y-64222900D01*
X104735897Y-64638183D01*
X104735504Y-65087844D01*
X104809028Y-65265787D01*
X97843988Y-65339687D01*
X97843988Y-61855761D01*
X97679640Y-61458010D01*
X97375591Y-61153429D01*
X96978127Y-60988388D01*
X96547761Y-60988012D01*
X96150010Y-61152360D01*
X95845429Y-61456409D01*
X95680388Y-61853873D01*
X95680012Y-62284239D01*
X95844360Y-62681990D01*
X96148409Y-62986571D01*
X96545873Y-63151612D01*
X96976239Y-63151988D01*
X97373990Y-62987640D01*
X97678571Y-62683591D01*
X97843612Y-62286127D01*
X97843988Y-61855761D01*
X97843988Y-65339687D01*
X95397500Y-65365645D01*
X95397500Y-59207500D01*
X90622300Y-59207500D01*
X90622300Y-56134941D01*
X90660428Y-56227218D01*
X91766957Y-57335680D01*
X93213447Y-57936315D01*
X94779682Y-57937682D01*
X96227218Y-57339572D01*
X97335680Y-56233043D01*
X97936315Y-54786553D01*
X97937682Y-53220318D01*
X97339572Y-51772782D01*
X96233043Y-50664320D01*
X96131847Y-50622300D01*
X113114422Y-50622300D01*
X113054200Y-50767690D01*
X113054200Y-51020309D01*
X113054200Y-51624250D01*
X113212950Y-51783000D01*
X115391000Y-51783000D01*
X115391000Y-51763000D01*
X115645000Y-51763000D01*
X115645000Y-51783000D01*
X117823050Y-51783000D01*
X117981800Y-51624250D01*
X117981800Y-51020309D01*
X117981800Y-50767690D01*
X117921577Y-50622300D01*
X130858000Y-50622300D01*
X130858000Y-55986620D01*
X130858000Y-55986620D01*
G37*
X130858000Y-55986620D02*
X130774958Y-55986548D01*
X130467227Y-56113700D01*
X127725000Y-56113700D01*
X127725000Y-54210310D01*
X127725000Y-53957691D01*
X127725000Y-53719750D01*
X127725000Y-53148250D01*
X127725000Y-52910309D01*
X127725000Y-52657690D01*
X127628327Y-52424301D01*
X127449698Y-52245673D01*
X127216309Y-52149000D01*
X126725750Y-52149000D01*
X126567000Y-52307750D01*
X126567000Y-53307000D01*
X127566250Y-53307000D01*
X127725000Y-53148250D01*
X127725000Y-53719750D01*
X127566250Y-53561000D01*
X126567000Y-53561000D01*
X126567000Y-54560250D01*
X126725750Y-54719000D01*
X127216309Y-54719000D01*
X127449698Y-54622327D01*
X127628327Y-54443699D01*
X127725000Y-54210310D01*
X127725000Y-56113700D01*
X126313000Y-56113700D01*
X126313000Y-54560250D01*
X126313000Y-53561000D01*
X126313000Y-53307000D01*
X126313000Y-52307750D01*
X126154250Y-52149000D01*
X125663691Y-52149000D01*
X125430302Y-52245673D01*
X125251673Y-52424301D01*
X125155000Y-52657690D01*
X125155000Y-52910309D01*
X125155000Y-53148250D01*
X125313750Y-53307000D01*
X126313000Y-53307000D01*
X126313000Y-53561000D01*
X125313750Y-53561000D01*
X125155000Y-53719750D01*
X125155000Y-53957691D01*
X125155000Y-54210310D01*
X125251673Y-54443699D01*
X125430302Y-54622327D01*
X125663691Y-54719000D01*
X126154250Y-54719000D01*
X126313000Y-54560250D01*
X126313000Y-56113700D01*
X125021988Y-56113700D01*
X125021988Y-53219761D01*
X124857640Y-52822010D01*
X124553591Y-52517429D01*
X124156127Y-52352388D01*
X123725761Y-52352012D01*
X123328010Y-52516360D01*
X123023429Y-52820409D01*
X122858388Y-53217873D01*
X122858012Y-53648239D01*
X123022360Y-54045990D01*
X123326409Y-54350571D01*
X123723873Y-54515612D01*
X124154239Y-54515988D01*
X124551990Y-54351640D01*
X124856571Y-54047591D01*
X125021612Y-53650127D01*
X125021988Y-53219761D01*
X125021988Y-56113700D01*
X119881480Y-56113700D01*
X119761532Y-55993542D01*
X119439572Y-55859852D01*
X119090958Y-55859548D01*
X118768764Y-55992676D01*
X118522042Y-56238968D01*
X118388352Y-56560928D01*
X118388048Y-56909542D01*
X118461685Y-57087759D01*
X118312000Y-57057741D01*
X117981800Y-57057741D01*
X117981800Y-53052310D01*
X117981800Y-52799691D01*
X117981800Y-52195750D01*
X117823050Y-52037000D01*
X115645000Y-52037000D01*
X115645000Y-53402250D01*
X115803750Y-53561000D01*
X117473109Y-53561000D01*
X117706498Y-53464327D01*
X117885127Y-53285699D01*
X117981800Y-53052310D01*
X117981800Y-57057741D01*
X117296000Y-57057741D01*
X117131356Y-57089685D01*
X116986649Y-57184742D01*
X116889784Y-57328245D01*
X116855741Y-57498000D01*
X116855741Y-59530000D01*
X116887685Y-59694644D01*
X116982742Y-59839351D01*
X117054700Y-59887922D01*
X117054700Y-60489630D01*
X116858568Y-60685761D01*
X116661000Y-60685588D01*
X116661000Y-59656310D01*
X116661000Y-59403691D01*
X116661000Y-58799750D01*
X116661000Y-58228250D01*
X116661000Y-57624309D01*
X116661000Y-57371690D01*
X116564327Y-57138301D01*
X116385698Y-56959673D01*
X116152309Y-56863000D01*
X115803750Y-56863000D01*
X115645000Y-57021750D01*
X115645000Y-58387000D01*
X116502250Y-58387000D01*
X116661000Y-58228250D01*
X116661000Y-58799750D01*
X116502250Y-58641000D01*
X115645000Y-58641000D01*
X115645000Y-60006250D01*
X115803750Y-60165000D01*
X116152309Y-60165000D01*
X116385698Y-60068327D01*
X116564327Y-59889699D01*
X116661000Y-59656310D01*
X116661000Y-60685588D01*
X116564156Y-60685504D01*
X116148573Y-60857219D01*
X115830337Y-61174900D01*
X115657897Y-61590183D01*
X115657504Y-62039844D01*
X115829219Y-62455427D01*
X116146900Y-62773663D01*
X116562183Y-62946103D01*
X117011844Y-62946496D01*
X117427427Y-62774781D01*
X117745663Y-62457100D01*
X117918103Y-62041817D01*
X117918362Y-61745307D01*
X118333835Y-61329835D01*
X118496263Y-61086745D01*
X118553300Y-60800000D01*
X118553300Y-59887960D01*
X118621351Y-59843258D01*
X118718216Y-59699755D01*
X118752259Y-59530000D01*
X118752259Y-57498000D01*
X118743883Y-57454832D01*
X118767468Y-57478458D01*
X119083000Y-57609478D01*
X119083000Y-65114340D01*
X115391000Y-65153512D01*
X115391000Y-60006250D01*
X115391000Y-58641000D01*
X115391000Y-58387000D01*
X115391000Y-57021750D01*
X115391000Y-53402250D01*
X115391000Y-52037000D01*
X113212950Y-52037000D01*
X113054200Y-52195750D01*
X113054200Y-52799691D01*
X113054200Y-53052310D01*
X113150873Y-53285699D01*
X113329502Y-53464327D01*
X113562891Y-53561000D01*
X115232250Y-53561000D01*
X115391000Y-53402250D01*
X115391000Y-57021750D01*
X115232250Y-56863000D01*
X114883691Y-56863000D01*
X114650302Y-56959673D01*
X114471673Y-57138301D01*
X114375000Y-57371690D01*
X114375000Y-57624309D01*
X114375000Y-58228250D01*
X114533750Y-58387000D01*
X115391000Y-58387000D01*
X115391000Y-58641000D01*
X114533750Y-58641000D01*
X114375000Y-58799750D01*
X114375000Y-59403691D01*
X114375000Y-59656310D01*
X114471673Y-59889699D01*
X114650302Y-60068327D01*
X114883691Y-60165000D01*
X115232250Y-60165000D01*
X115391000Y-60006250D01*
X115391000Y-65153512D01*
X115378496Y-65153645D01*
X115378496Y-61592156D01*
X115206781Y-61176573D01*
X114889100Y-60858337D01*
X114473817Y-60685897D01*
X114177307Y-60685637D01*
X113981300Y-60489630D01*
X113981300Y-59887960D01*
X114049351Y-59843258D01*
X114146216Y-59699755D01*
X114180259Y-59530000D01*
X114180259Y-57498000D01*
X114148315Y-57333356D01*
X114053258Y-57188649D01*
X113909755Y-57091784D01*
X113740000Y-57057741D01*
X112724000Y-57057741D01*
X112559356Y-57089685D01*
X112414649Y-57184742D01*
X112317784Y-57328245D01*
X112283741Y-57498000D01*
X112283741Y-59530000D01*
X112315685Y-59694644D01*
X112410742Y-59839351D01*
X112482700Y-59887922D01*
X112482700Y-60800000D01*
X112539737Y-61086745D01*
X112702165Y-61329835D01*
X113117761Y-61745431D01*
X113117504Y-62039844D01*
X113289219Y-62455427D01*
X113606900Y-62773663D01*
X114022183Y-62946103D01*
X114471844Y-62946496D01*
X114887427Y-62774781D01*
X115205663Y-62457100D01*
X115378103Y-62041817D01*
X115378496Y-61592156D01*
X115378496Y-65153645D01*
X109483628Y-65216190D01*
X109536103Y-65089817D01*
X109536496Y-64640156D01*
X109364781Y-64224573D01*
X109047100Y-63906337D01*
X108852273Y-63825438D01*
X108852273Y-59627995D01*
X108852273Y-53527995D01*
X108437258Y-52523581D01*
X107669461Y-51754443D01*
X106665773Y-51337675D01*
X105578995Y-51336727D01*
X104574581Y-51751742D01*
X103805443Y-52519539D01*
X103388675Y-53523227D01*
X103387727Y-54610005D01*
X103802742Y-55614419D01*
X104570539Y-56383557D01*
X105574227Y-56800325D01*
X106661005Y-56801273D01*
X107665419Y-56386258D01*
X108434557Y-55618461D01*
X108851325Y-54614773D01*
X108852273Y-53527995D01*
X108852273Y-59627995D01*
X108437258Y-58623581D01*
X107669461Y-57854443D01*
X106665773Y-57437675D01*
X105578995Y-57436727D01*
X104574581Y-57851742D01*
X103996247Y-58429067D01*
X104251325Y-57814773D01*
X104252273Y-56727995D01*
X103837258Y-55723581D01*
X103069461Y-54954443D01*
X102065773Y-54537675D01*
X100978995Y-54536727D01*
X99974581Y-54951742D01*
X99205443Y-55719539D01*
X98788675Y-56723227D01*
X98787727Y-57810005D01*
X99202742Y-58814419D01*
X99970539Y-59583557D01*
X100974227Y-60000325D01*
X102061005Y-60001273D01*
X103065419Y-59586258D01*
X103643752Y-59008932D01*
X103388675Y-59623227D01*
X103387727Y-60710005D01*
X103640060Y-61320700D01*
X100332992Y-61320700D01*
X100320315Y-61255356D01*
X100225258Y-61110649D01*
X100081755Y-61013784D01*
X99912000Y-60979741D01*
X98612000Y-60979741D01*
X98447356Y-61011685D01*
X98302649Y-61106742D01*
X98205784Y-61250245D01*
X98171741Y-61420000D01*
X98171741Y-62720000D01*
X98203685Y-62884644D01*
X98298742Y-63029351D01*
X98442245Y-63126216D01*
X98612000Y-63160259D01*
X99912000Y-63160259D01*
X100076644Y-63128315D01*
X100221351Y-63033258D01*
X100318216Y-62889755D01*
X100332345Y-62819300D01*
X104215000Y-62819300D01*
X104501745Y-62762263D01*
X104744835Y-62599835D01*
X104775857Y-62568812D01*
X105574227Y-62900325D01*
X106661005Y-62901273D01*
X107665419Y-62486258D01*
X108434557Y-61718461D01*
X108851325Y-60714773D01*
X108852273Y-59627995D01*
X108852273Y-63825438D01*
X108631817Y-63733897D01*
X108182156Y-63733504D01*
X107766573Y-63905219D01*
X107448337Y-64222900D01*
X107275897Y-64638183D01*
X107275504Y-65087844D01*
X107337942Y-65238955D01*
X106932388Y-65243258D01*
X106996103Y-65089817D01*
X106996496Y-64640156D01*
X106824781Y-64224573D01*
X106507100Y-63906337D01*
X106091817Y-63733897D01*
X105642156Y-63733504D01*
X105226573Y-63905219D01*
X104908337Y-64222900D01*
X104735897Y-64638183D01*
X104735504Y-65087844D01*
X104809028Y-65265787D01*
X97843988Y-65339687D01*
X97843988Y-61855761D01*
X97679640Y-61458010D01*
X97375591Y-61153429D01*
X96978127Y-60988388D01*
X96547761Y-60988012D01*
X96150010Y-61152360D01*
X95845429Y-61456409D01*
X95680388Y-61853873D01*
X95680012Y-62284239D01*
X95844360Y-62681990D01*
X96148409Y-62986571D01*
X96545873Y-63151612D01*
X96976239Y-63151988D01*
X97373990Y-62987640D01*
X97678571Y-62683591D01*
X97843612Y-62286127D01*
X97843988Y-61855761D01*
X97843988Y-65339687D01*
X95397500Y-65365645D01*
X95397500Y-59207500D01*
X90622300Y-59207500D01*
X90622300Y-56134941D01*
X90660428Y-56227218D01*
X91766957Y-57335680D01*
X93213447Y-57936315D01*
X94779682Y-57937682D01*
X96227218Y-57339572D01*
X97335680Y-56233043D01*
X97936315Y-54786553D01*
X97937682Y-53220318D01*
X97339572Y-51772782D01*
X96233043Y-50664320D01*
X96131847Y-50622300D01*
X113114422Y-50622300D01*
X113054200Y-50767690D01*
X113054200Y-51020309D01*
X113054200Y-51624250D01*
X113212950Y-51783000D01*
X115391000Y-51783000D01*
X115391000Y-51763000D01*
X115645000Y-51763000D01*
X115645000Y-51783000D01*
X117823050Y-51783000D01*
X117981800Y-51624250D01*
X117981800Y-51020309D01*
X117981800Y-50767690D01*
X117921577Y-50622300D01*
X130858000Y-50622300D01*
X130858000Y-55986620D01*
M02*
