M48
;DRILL file {KiCad 4.0.1-stable} date 7/9/2016 7:27:40 PM
;FORMAT={-:-/ absolute / inch / decimal}
FMAT,2
INCH,TZ
T1C0.025
T2C0.040
T3C0.100
T4C0.125
%
G90
G05
M72
T1
X0.72Y-0.71
X0.91Y-1.86
X0.96Y-1.52
X0.97Y-1.82
X1.Y-2.16
X1.04Y-0.57
X1.07Y-1.44
X1.07Y-2.23
X1.08Y-1.77
X1.08Y-1.85
X1.1Y-1.9
X1.16Y-1.64
X1.2Y-0.63
X1.24Y-2.16
X1.27Y-1.99
X1.28Y-1.51
X1.38Y-2.
X1.43Y-1.85
X1.45Y-1.71
X1.47Y-1.44
X1.52Y-1.55
X1.58Y-1.88
X1.58Y-2.18
X1.63Y-1.51
X1.69Y-2.2
X1.79Y-1.55
X1.87Y-1.99
X1.87Y-2.08
T2
X0.7Y-1.99
X0.8Y-1.99
X0.82Y-1.28
X0.82Y-1.38
X0.82Y-1.48
X0.82Y-1.58
X0.82Y-1.68
X0.82Y-1.78
X0.9Y-1.99
X1.Y-1.99
X1.22Y-1.15
X1.22Y-1.25
X1.22Y-1.35
X1.32Y-1.15
X1.32Y-1.25
X1.32Y-1.35
X1.42Y-1.15
X1.42Y-1.25
X1.42Y-1.35
X1.52Y-1.35
X1.62Y-1.35
X1.72Y-1.35
X2.01Y-1.25
X2.01Y-1.35
X2.01Y-1.45
X2.01Y-1.55
X2.01Y-1.65
X2.01Y-1.75
X2.01Y-1.85
X2.11Y-1.25
X2.11Y-1.35
X2.11Y-1.45
X2.11Y-1.55
X2.11Y-1.65
X2.11Y-1.75
X2.11Y-1.85
X2.21Y-1.25
X2.21Y-1.35
X2.21Y-1.45
X2.21Y-1.55
X2.21Y-1.65
X2.21Y-1.75
X2.21Y-1.85
T3
X0.5591Y-0.9016
X0.6969Y-1.0906
X0.7953Y-0.9016
T4
X0.5512Y-0.5512
X0.5512Y-2.1654
X2.1654Y-0.5512
X2.1654Y-2.1654
T0
M30
