G04 #@! TF.FileFunction,Legend,Bot*
%FSLAX46Y46*%
G04 Gerber Fmt 4.6, Leading zero omitted, Abs format (unit mm)*
G04 Created by KiCad (PCBNEW (after 2015-mar-04 BZR unknown)-product) date 7/18/2015 1:21:16 PM*
%MOMM*%
G01*
G04 APERTURE LIST*
%ADD10C,0.150000*%
%ADD11C,0.300000*%
%ADD12C,0.412750*%
%ADD13C,0.381000*%
G04 APERTURE END LIST*
D10*
D11*
X122778399Y-70071371D02*
X123635542Y-70071371D01*
X123206970Y-70071371D02*
X123206970Y-68571371D01*
X123349827Y-68785657D01*
X123492685Y-68928514D01*
X123635542Y-68999943D01*
X121064114Y-68714229D02*
X120992685Y-68642800D01*
X120849828Y-68571371D01*
X120492685Y-68571371D01*
X120349828Y-68642800D01*
X120278399Y-68714229D01*
X120206971Y-68857086D01*
X120206971Y-68999943D01*
X120278399Y-69214229D01*
X121135542Y-70071371D01*
X120206971Y-70071371D01*
X117564114Y-69928514D02*
X117635543Y-69999943D01*
X117849829Y-70071371D01*
X117992686Y-70071371D01*
X118206971Y-69999943D01*
X118349829Y-69857086D01*
X118421257Y-69714229D01*
X118492686Y-69428514D01*
X118492686Y-69214229D01*
X118421257Y-68928514D01*
X118349829Y-68785657D01*
X118206971Y-68642800D01*
X117992686Y-68571371D01*
X117849829Y-68571371D01*
X117635543Y-68642800D01*
X117564114Y-68714229D01*
X115778400Y-70071371D02*
X115778400Y-68571371D01*
X115421257Y-68571371D01*
X115206972Y-68642800D01*
X115064114Y-68785657D01*
X114992686Y-68928514D01*
X114921257Y-69214229D01*
X114921257Y-69428514D01*
X114992686Y-69714229D01*
X115064114Y-69857086D01*
X115206972Y-69999943D01*
X115421257Y-70071371D01*
X115778400Y-70071371D01*
X136052571Y-73743429D02*
X135981142Y-73672000D01*
X135838285Y-73600571D01*
X135481142Y-73600571D01*
X135338285Y-73672000D01*
X135266856Y-73743429D01*
X135195428Y-73886286D01*
X135195428Y-74029143D01*
X135266856Y-74243429D01*
X136123999Y-75100571D01*
X135195428Y-75100571D01*
X133766857Y-73672000D02*
X133909714Y-73600571D01*
X134124000Y-73600571D01*
X134338285Y-73672000D01*
X134481143Y-73814857D01*
X134552571Y-73957714D01*
X134624000Y-74243429D01*
X134624000Y-74457714D01*
X134552571Y-74743429D01*
X134481143Y-74886286D01*
X134338285Y-75029143D01*
X134124000Y-75100571D01*
X133981143Y-75100571D01*
X133766857Y-75029143D01*
X133695428Y-74957714D01*
X133695428Y-74457714D01*
X133981143Y-74457714D01*
X135195428Y-71798571D02*
X136052571Y-71798571D01*
X135623999Y-71798571D02*
X135623999Y-70298571D01*
X135766856Y-70512857D01*
X135909714Y-70655714D01*
X136052571Y-70727143D01*
X133766857Y-70370000D02*
X133909714Y-70298571D01*
X134124000Y-70298571D01*
X134338285Y-70370000D01*
X134481143Y-70512857D01*
X134552571Y-70655714D01*
X134624000Y-70941429D01*
X134624000Y-71155714D01*
X134552571Y-71441429D01*
X134481143Y-71584286D01*
X134338285Y-71727143D01*
X134124000Y-71798571D01*
X133981143Y-71798571D01*
X133766857Y-71727143D01*
X133695428Y-71655714D01*
X133695428Y-71155714D01*
X133981143Y-71155714D01*
X107092286Y-96619143D02*
X106878000Y-96690571D01*
X106520857Y-96690571D01*
X106378000Y-96619143D01*
X106306571Y-96547714D01*
X106235143Y-96404857D01*
X106235143Y-96262000D01*
X106306571Y-96119143D01*
X106378000Y-96047714D01*
X106520857Y-95976286D01*
X106806571Y-95904857D01*
X106949429Y-95833429D01*
X107020857Y-95762000D01*
X107092286Y-95619143D01*
X107092286Y-95476286D01*
X107020857Y-95333429D01*
X106949429Y-95262000D01*
X106806571Y-95190571D01*
X106449429Y-95190571D01*
X106235143Y-95262000D01*
X105592286Y-95904857D02*
X105092286Y-95904857D01*
X104878000Y-96690571D02*
X105592286Y-96690571D01*
X105592286Y-95190571D01*
X104878000Y-95190571D01*
X103520857Y-96690571D02*
X104235143Y-96690571D01*
X104235143Y-95190571D01*
X103020857Y-95904857D02*
X102520857Y-95904857D01*
X102306571Y-96690571D02*
X103020857Y-96690571D01*
X103020857Y-95190571D01*
X102306571Y-95190571D01*
X100806571Y-96547714D02*
X100878000Y-96619143D01*
X101092286Y-96690571D01*
X101235143Y-96690571D01*
X101449428Y-96619143D01*
X101592286Y-96476286D01*
X101663714Y-96333429D01*
X101735143Y-96047714D01*
X101735143Y-95833429D01*
X101663714Y-95547714D01*
X101592286Y-95404857D01*
X101449428Y-95262000D01*
X101235143Y-95190571D01*
X101092286Y-95190571D01*
X100878000Y-95262000D01*
X100806571Y-95333429D01*
X100378000Y-95190571D02*
X99520857Y-95190571D01*
X99949428Y-96690571D02*
X99949428Y-95190571D01*
X134647429Y-110914571D02*
X134647429Y-109414571D01*
X134290286Y-109414571D01*
X134076001Y-109486000D01*
X133933143Y-109628857D01*
X133861715Y-109771714D01*
X133790286Y-110057429D01*
X133790286Y-110271714D01*
X133861715Y-110557429D01*
X133933143Y-110700286D01*
X134076001Y-110843143D01*
X134290286Y-110914571D01*
X134647429Y-110914571D01*
X132861715Y-109414571D02*
X132576001Y-109414571D01*
X132433143Y-109486000D01*
X132290286Y-109628857D01*
X132218858Y-109914571D01*
X132218858Y-110414571D01*
X132290286Y-110700286D01*
X132433143Y-110843143D01*
X132576001Y-110914571D01*
X132861715Y-110914571D01*
X133004572Y-110843143D01*
X133147429Y-110700286D01*
X133218858Y-110414571D01*
X133218858Y-109914571D01*
X133147429Y-109628857D01*
X133004572Y-109486000D01*
X132861715Y-109414571D01*
X131718857Y-109414571D02*
X131361714Y-110914571D01*
X131076000Y-109843143D01*
X130790286Y-110914571D01*
X130433143Y-109414571D01*
X129861714Y-110914571D02*
X129861714Y-109414571D01*
X129004571Y-110914571D01*
X129004571Y-109414571D01*
X113760000Y-104183571D02*
X114260000Y-103469286D01*
X114617143Y-104183571D02*
X114617143Y-102683571D01*
X114045715Y-102683571D01*
X113902857Y-102755000D01*
X113831429Y-102826429D01*
X113760000Y-102969286D01*
X113760000Y-103183571D01*
X113831429Y-103326429D01*
X113902857Y-103397857D01*
X114045715Y-103469286D01*
X114617143Y-103469286D01*
X113117143Y-104183571D02*
X113117143Y-102683571D01*
X111617143Y-102755000D02*
X111760000Y-102683571D01*
X111974286Y-102683571D01*
X112188571Y-102755000D01*
X112331429Y-102897857D01*
X112402857Y-103040714D01*
X112474286Y-103326429D01*
X112474286Y-103540714D01*
X112402857Y-103826429D01*
X112331429Y-103969286D01*
X112188571Y-104112143D01*
X111974286Y-104183571D01*
X111831429Y-104183571D01*
X111617143Y-104112143D01*
X111545714Y-104040714D01*
X111545714Y-103540714D01*
X111831429Y-103540714D01*
X110902857Y-104183571D02*
X110902857Y-102683571D01*
X110902857Y-103397857D02*
X110045714Y-103397857D01*
X110045714Y-104183571D02*
X110045714Y-102683571D01*
X109545714Y-102683571D02*
X108688571Y-102683571D01*
X109117142Y-104183571D02*
X109117142Y-102683571D01*
X139223571Y-104183571D02*
X139937857Y-104183571D01*
X139937857Y-102683571D01*
X138723571Y-103397857D02*
X138223571Y-103397857D01*
X138009285Y-104183571D02*
X138723571Y-104183571D01*
X138723571Y-102683571D01*
X138009285Y-102683571D01*
X136866428Y-103397857D02*
X137366428Y-103397857D01*
X137366428Y-104183571D02*
X137366428Y-102683571D01*
X136652142Y-102683571D01*
X136295000Y-102683571D02*
X135437857Y-102683571D01*
X135866428Y-104183571D02*
X135866428Y-102683571D01*
X121320571Y-95952571D02*
X121320571Y-97166857D01*
X121249143Y-97309714D01*
X121177714Y-97381143D01*
X121034857Y-97452571D01*
X120749143Y-97452571D01*
X120606285Y-97381143D01*
X120534857Y-97309714D01*
X120463428Y-97166857D01*
X120463428Y-95952571D01*
X119749142Y-97452571D02*
X119749142Y-95952571D01*
X119177714Y-95952571D01*
X119034856Y-96024000D01*
X118963428Y-96095429D01*
X118891999Y-96238286D01*
X118891999Y-96452571D01*
X118963428Y-96595429D01*
X119034856Y-96666857D01*
X119177714Y-96738286D01*
X119749142Y-96738286D01*
D12*
X140608806Y-76584023D02*
X140530187Y-76426785D01*
X140372949Y-76348166D01*
X138957806Y-76348166D01*
X140608806Y-77920548D02*
X139743996Y-77920548D01*
X139586758Y-77841929D01*
X139508139Y-77684691D01*
X139508139Y-77370214D01*
X139586758Y-77212976D01*
X140530187Y-77920548D02*
X140608806Y-77763310D01*
X140608806Y-77370214D01*
X140530187Y-77212976D01*
X140372949Y-77134357D01*
X140215711Y-77134357D01*
X140058473Y-77212976D01*
X139979854Y-77370214D01*
X139979854Y-77763310D01*
X139901235Y-77920548D01*
X139508139Y-78706738D02*
X140608806Y-78706738D01*
X139665377Y-78706738D02*
X139586758Y-78785357D01*
X139508139Y-78942595D01*
X139508139Y-79178453D01*
X139586758Y-79335691D01*
X139743996Y-79414310D01*
X140608806Y-79414310D01*
X140608806Y-80908072D02*
X138957806Y-80908072D01*
X140530187Y-80908072D02*
X140608806Y-80750834D01*
X140608806Y-80436357D01*
X140530187Y-80279119D01*
X140451568Y-80200500D01*
X140294330Y-80121881D01*
X139822615Y-80121881D01*
X139665377Y-80200500D01*
X139586758Y-80279119D01*
X139508139Y-80436357D01*
X139508139Y-80750834D01*
X139586758Y-80908072D01*
X139979854Y-81694262D02*
X139979854Y-82952167D01*
X140608806Y-83738357D02*
X138957806Y-83738357D01*
X139586758Y-83738357D02*
X139508139Y-83895595D01*
X139508139Y-84210072D01*
X139586758Y-84367310D01*
X139665377Y-84445929D01*
X139822615Y-84524548D01*
X140294330Y-84524548D01*
X140451568Y-84445929D01*
X140530187Y-84367310D01*
X140608806Y-84210072D01*
X140608806Y-83895595D01*
X140530187Y-83738357D01*
X140608806Y-85467976D02*
X140530187Y-85310738D01*
X140451568Y-85232119D01*
X140294330Y-85153500D01*
X139822615Y-85153500D01*
X139665377Y-85232119D01*
X139586758Y-85310738D01*
X139508139Y-85467976D01*
X139508139Y-85703834D01*
X139586758Y-85861072D01*
X139665377Y-85939691D01*
X139822615Y-86018310D01*
X140294330Y-86018310D01*
X140451568Y-85939691D01*
X140530187Y-85861072D01*
X140608806Y-85703834D01*
X140608806Y-85467976D01*
X140608806Y-87433453D02*
X139743996Y-87433453D01*
X139586758Y-87354834D01*
X139508139Y-87197596D01*
X139508139Y-86883119D01*
X139586758Y-86725881D01*
X140530187Y-87433453D02*
X140608806Y-87276215D01*
X140608806Y-86883119D01*
X140530187Y-86725881D01*
X140372949Y-86647262D01*
X140215711Y-86647262D01*
X140058473Y-86725881D01*
X139979854Y-86883119D01*
X139979854Y-87276215D01*
X139901235Y-87433453D01*
X140608806Y-88219643D02*
X139508139Y-88219643D01*
X139822615Y-88219643D02*
X139665377Y-88298262D01*
X139586758Y-88376881D01*
X139508139Y-88534119D01*
X139508139Y-88691358D01*
X140608806Y-89949263D02*
X138957806Y-89949263D01*
X140530187Y-89949263D02*
X140608806Y-89792025D01*
X140608806Y-89477548D01*
X140530187Y-89320310D01*
X140451568Y-89241691D01*
X140294330Y-89163072D01*
X139822615Y-89163072D01*
X139665377Y-89241691D01*
X139586758Y-89320310D01*
X139508139Y-89477548D01*
X139508139Y-89792025D01*
X139586758Y-89949263D01*
X140530187Y-90656834D02*
X140608806Y-90814072D01*
X140608806Y-91128548D01*
X140530187Y-91285787D01*
X140372949Y-91364406D01*
X140294330Y-91364406D01*
X140137092Y-91285787D01*
X140058473Y-91128548D01*
X140058473Y-90892691D01*
X139979854Y-90735453D01*
X139822615Y-90656834D01*
X139743996Y-90656834D01*
X139586758Y-90735453D01*
X139508139Y-90892691D01*
X139508139Y-91128548D01*
X139586758Y-91285787D01*
X140451568Y-92071977D02*
X140530187Y-92150596D01*
X140608806Y-92071977D01*
X140530187Y-91993358D01*
X140451568Y-92071977D01*
X140608806Y-92071977D01*
X140530187Y-93565739D02*
X140608806Y-93408501D01*
X140608806Y-93094024D01*
X140530187Y-92936786D01*
X140451568Y-92858167D01*
X140294330Y-92779548D01*
X139822615Y-92779548D01*
X139665377Y-92858167D01*
X139586758Y-92936786D01*
X139508139Y-93094024D01*
X139508139Y-93408501D01*
X139586758Y-93565739D01*
X140608806Y-94509167D02*
X140530187Y-94351929D01*
X140451568Y-94273310D01*
X140294330Y-94194691D01*
X139822615Y-94194691D01*
X139665377Y-94273310D01*
X139586758Y-94351929D01*
X139508139Y-94509167D01*
X139508139Y-94745025D01*
X139586758Y-94902263D01*
X139665377Y-94980882D01*
X139822615Y-95059501D01*
X140294330Y-95059501D01*
X140451568Y-94980882D01*
X140530187Y-94902263D01*
X140608806Y-94745025D01*
X140608806Y-94509167D01*
X140608806Y-95767072D02*
X139508139Y-95767072D01*
X139665377Y-95767072D02*
X139586758Y-95845691D01*
X139508139Y-96002929D01*
X139508139Y-96238787D01*
X139586758Y-96396025D01*
X139743996Y-96474644D01*
X140608806Y-96474644D01*
X139743996Y-96474644D02*
X139586758Y-96553263D01*
X139508139Y-96710501D01*
X139508139Y-96946358D01*
X139586758Y-97103596D01*
X139743996Y-97182215D01*
X140608806Y-97182215D01*
X138879187Y-99147691D02*
X141001901Y-97732548D01*
X143332956Y-82952167D02*
X141681956Y-82952167D01*
X142861242Y-83502501D01*
X141681956Y-84052834D01*
X143332956Y-84052834D01*
X142546765Y-85153500D02*
X143332956Y-85153500D01*
X141681956Y-84603167D02*
X142546765Y-85153500D01*
X141681956Y-85703834D01*
X143332956Y-86254167D02*
X141681956Y-86254167D01*
X142861242Y-86804501D01*
X141681956Y-87354834D01*
X143332956Y-87354834D01*
X142468146Y-88141024D02*
X142468146Y-88691358D01*
X143332956Y-88927215D02*
X143332956Y-88141024D01*
X141681956Y-88141024D01*
X141681956Y-88927215D01*
X143332956Y-89634786D02*
X141681956Y-89634786D01*
X143332956Y-90578215D01*
X141681956Y-90578215D01*
X141681956Y-91364405D02*
X143018480Y-91364405D01*
X143175718Y-91443024D01*
X143254337Y-91521643D01*
X143332956Y-91678881D01*
X143332956Y-91993358D01*
X143254337Y-92150596D01*
X143175718Y-92229215D01*
X143018480Y-92307834D01*
X141681956Y-92307834D01*
D10*
X131410000Y-70245000D02*
X130210000Y-70245000D01*
X130210000Y-71995000D02*
X131410000Y-71995000D01*
X131410000Y-73420000D02*
X130210000Y-73420000D01*
X130210000Y-75170000D02*
X131410000Y-75170000D01*
X122040000Y-68270000D02*
X114420000Y-68270000D01*
X122040000Y-65730000D02*
X114420000Y-65730000D01*
X124860000Y-65450000D02*
X123310000Y-65450000D01*
X114420000Y-68270000D02*
X114420000Y-65730000D01*
X122040000Y-65730000D02*
X122040000Y-68270000D01*
X123310000Y-68550000D02*
X124860000Y-68550000D01*
X124860000Y-68550000D02*
X124860000Y-65450000D01*
D13*
X134951200Y-102399240D02*
X134951200Y-104400760D01*
X133698980Y-105650440D02*
X129701020Y-105650440D01*
X128448800Y-102399240D02*
X128448800Y-104149300D01*
X128448800Y-104149300D02*
X128448800Y-104400760D01*
X133698980Y-101149560D02*
X129701020Y-101149560D01*
X128351200Y-95799240D02*
X128351200Y-97800760D01*
X127098980Y-99050440D02*
X123101020Y-99050440D01*
X121848800Y-95799240D02*
X121848800Y-97549300D01*
X121848800Y-97549300D02*
X121848800Y-97800760D01*
X127098980Y-94549560D02*
X123101020Y-94549560D01*
X128351200Y-108999240D02*
X128351200Y-111000760D01*
X127098980Y-112250440D02*
X123101020Y-112250440D01*
X121848800Y-108999240D02*
X121848800Y-110749300D01*
X121848800Y-110749300D02*
X121848800Y-111000760D01*
X127098980Y-107749560D02*
X123101020Y-107749560D01*
X121751200Y-102399240D02*
X121751200Y-104400760D01*
X120498980Y-105650440D02*
X116501020Y-105650440D01*
X115248800Y-102399240D02*
X115248800Y-104149300D01*
X115248800Y-104149300D02*
X115248800Y-104400760D01*
X120498980Y-101149560D02*
X116501020Y-101149560D01*
X106727200Y-99199240D02*
X106727200Y-101200760D01*
X105474980Y-102450440D02*
X101477020Y-102450440D01*
X100224800Y-99199240D02*
X100224800Y-100949300D01*
X100224800Y-100949300D02*
X100224800Y-101200760D01*
X105474980Y-97949560D02*
X101477020Y-97949560D01*
D10*
X97546160Y-76408280D02*
X97546160Y-76083160D01*
X97546160Y-76083160D02*
X97045780Y-76083160D01*
X97045780Y-76408280D02*
X97045780Y-76083160D01*
X97546160Y-76408280D02*
X97045780Y-76408280D01*
X97546160Y-77030580D02*
X97546160Y-76880720D01*
X97546160Y-76880720D02*
X97294700Y-76880720D01*
X97294700Y-77030580D02*
X97294700Y-76880720D01*
X97546160Y-77030580D02*
X97294700Y-77030580D01*
X97546160Y-76535280D02*
X97546160Y-76385420D01*
X97546160Y-76385420D02*
X97294700Y-76385420D01*
X97294700Y-76535280D02*
X97294700Y-76385420D01*
X97546160Y-76535280D02*
X97294700Y-76535280D01*
X97546160Y-76906120D02*
X97546160Y-76509880D01*
X97546160Y-76509880D02*
X97370900Y-76509880D01*
X97370900Y-76906120D02*
X97370900Y-76509880D01*
X97546160Y-76906120D02*
X97370900Y-76906120D01*
X99042220Y-76408280D02*
X99042220Y-76083160D01*
X99042220Y-76083160D02*
X98541840Y-76083160D01*
X98541840Y-76408280D02*
X98541840Y-76083160D01*
X99042220Y-76408280D02*
X98541840Y-76408280D01*
X99042220Y-77332840D02*
X99042220Y-77007720D01*
X99042220Y-77007720D02*
X98541840Y-77007720D01*
X98541840Y-77332840D02*
X98541840Y-77007720D01*
X99042220Y-77332840D02*
X98541840Y-77332840D01*
X98793300Y-76535280D02*
X98793300Y-76385420D01*
X98793300Y-76385420D02*
X98541840Y-76385420D01*
X98541840Y-76535280D02*
X98541840Y-76385420D01*
X98793300Y-76535280D02*
X98541840Y-76535280D01*
X98793300Y-77030580D02*
X98793300Y-76880720D01*
X98793300Y-76880720D02*
X98541840Y-76880720D01*
X98541840Y-77030580D02*
X98541840Y-76880720D01*
X98793300Y-77030580D02*
X98541840Y-77030580D01*
X98717100Y-76906120D02*
X98717100Y-76509880D01*
X98717100Y-76509880D02*
X98541840Y-76509880D01*
X98541840Y-76906120D02*
X98541840Y-76509880D01*
X98717100Y-76906120D02*
X98541840Y-76906120D01*
X98044000Y-76807060D02*
X98044000Y-76608940D01*
X98044000Y-76608940D02*
X97845880Y-76608940D01*
X97845880Y-76807060D02*
X97845880Y-76608940D01*
X98044000Y-76807060D02*
X97845880Y-76807060D01*
X97546160Y-77307440D02*
X97546160Y-77007720D01*
X97546160Y-77007720D02*
X97246440Y-77007720D01*
X97246440Y-77307440D02*
X97246440Y-77007720D01*
X97546160Y-77307440D02*
X97246440Y-77307440D01*
X97119440Y-77332840D02*
X97119440Y-77106780D01*
X97119440Y-77106780D02*
X97045780Y-77106780D01*
X97045780Y-77332840D02*
X97045780Y-77106780D01*
X97119440Y-77332840D02*
X97045780Y-77332840D01*
X97520760Y-76133960D02*
X98567240Y-76133960D01*
X98541840Y-77282040D02*
X97119440Y-77282040D01*
X97267482Y-77157580D02*
G75*
G03X97267482Y-77157580I-71842J0D01*
G01*
X97045780Y-77055980D02*
G75*
G03X97045780Y-76360020I0J347980D01*
G01*
X99042220Y-76360020D02*
G75*
G03X99042220Y-77055980I0J-347980D01*
G01*
X97546160Y-80980280D02*
X97546160Y-80655160D01*
X97546160Y-80655160D02*
X97045780Y-80655160D01*
X97045780Y-80980280D02*
X97045780Y-80655160D01*
X97546160Y-80980280D02*
X97045780Y-80980280D01*
X97546160Y-81602580D02*
X97546160Y-81452720D01*
X97546160Y-81452720D02*
X97294700Y-81452720D01*
X97294700Y-81602580D02*
X97294700Y-81452720D01*
X97546160Y-81602580D02*
X97294700Y-81602580D01*
X97546160Y-81107280D02*
X97546160Y-80957420D01*
X97546160Y-80957420D02*
X97294700Y-80957420D01*
X97294700Y-81107280D02*
X97294700Y-80957420D01*
X97546160Y-81107280D02*
X97294700Y-81107280D01*
X97546160Y-81478120D02*
X97546160Y-81081880D01*
X97546160Y-81081880D02*
X97370900Y-81081880D01*
X97370900Y-81478120D02*
X97370900Y-81081880D01*
X97546160Y-81478120D02*
X97370900Y-81478120D01*
X99042220Y-80980280D02*
X99042220Y-80655160D01*
X99042220Y-80655160D02*
X98541840Y-80655160D01*
X98541840Y-80980280D02*
X98541840Y-80655160D01*
X99042220Y-80980280D02*
X98541840Y-80980280D01*
X99042220Y-81904840D02*
X99042220Y-81579720D01*
X99042220Y-81579720D02*
X98541840Y-81579720D01*
X98541840Y-81904840D02*
X98541840Y-81579720D01*
X99042220Y-81904840D02*
X98541840Y-81904840D01*
X98793300Y-81107280D02*
X98793300Y-80957420D01*
X98793300Y-80957420D02*
X98541840Y-80957420D01*
X98541840Y-81107280D02*
X98541840Y-80957420D01*
X98793300Y-81107280D02*
X98541840Y-81107280D01*
X98793300Y-81602580D02*
X98793300Y-81452720D01*
X98793300Y-81452720D02*
X98541840Y-81452720D01*
X98541840Y-81602580D02*
X98541840Y-81452720D01*
X98793300Y-81602580D02*
X98541840Y-81602580D01*
X98717100Y-81478120D02*
X98717100Y-81081880D01*
X98717100Y-81081880D02*
X98541840Y-81081880D01*
X98541840Y-81478120D02*
X98541840Y-81081880D01*
X98717100Y-81478120D02*
X98541840Y-81478120D01*
X98044000Y-81379060D02*
X98044000Y-81180940D01*
X98044000Y-81180940D02*
X97845880Y-81180940D01*
X97845880Y-81379060D02*
X97845880Y-81180940D01*
X98044000Y-81379060D02*
X97845880Y-81379060D01*
X97546160Y-81879440D02*
X97546160Y-81579720D01*
X97546160Y-81579720D02*
X97246440Y-81579720D01*
X97246440Y-81879440D02*
X97246440Y-81579720D01*
X97546160Y-81879440D02*
X97246440Y-81879440D01*
X97119440Y-81904840D02*
X97119440Y-81678780D01*
X97119440Y-81678780D02*
X97045780Y-81678780D01*
X97045780Y-81904840D02*
X97045780Y-81678780D01*
X97119440Y-81904840D02*
X97045780Y-81904840D01*
X97520760Y-80705960D02*
X98567240Y-80705960D01*
X98541840Y-81854040D02*
X97119440Y-81854040D01*
X97267482Y-81729580D02*
G75*
G03X97267482Y-81729580I-71842J0D01*
G01*
X97045780Y-81627980D02*
G75*
G03X97045780Y-80932020I0J347980D01*
G01*
X99042220Y-80932020D02*
G75*
G03X99042220Y-81627980I0J-347980D01*
G01*
X97546160Y-85298280D02*
X97546160Y-84973160D01*
X97546160Y-84973160D02*
X97045780Y-84973160D01*
X97045780Y-85298280D02*
X97045780Y-84973160D01*
X97546160Y-85298280D02*
X97045780Y-85298280D01*
X97546160Y-85920580D02*
X97546160Y-85770720D01*
X97546160Y-85770720D02*
X97294700Y-85770720D01*
X97294700Y-85920580D02*
X97294700Y-85770720D01*
X97546160Y-85920580D02*
X97294700Y-85920580D01*
X97546160Y-85425280D02*
X97546160Y-85275420D01*
X97546160Y-85275420D02*
X97294700Y-85275420D01*
X97294700Y-85425280D02*
X97294700Y-85275420D01*
X97546160Y-85425280D02*
X97294700Y-85425280D01*
X97546160Y-85796120D02*
X97546160Y-85399880D01*
X97546160Y-85399880D02*
X97370900Y-85399880D01*
X97370900Y-85796120D02*
X97370900Y-85399880D01*
X97546160Y-85796120D02*
X97370900Y-85796120D01*
X99042220Y-85298280D02*
X99042220Y-84973160D01*
X99042220Y-84973160D02*
X98541840Y-84973160D01*
X98541840Y-85298280D02*
X98541840Y-84973160D01*
X99042220Y-85298280D02*
X98541840Y-85298280D01*
X99042220Y-86222840D02*
X99042220Y-85897720D01*
X99042220Y-85897720D02*
X98541840Y-85897720D01*
X98541840Y-86222840D02*
X98541840Y-85897720D01*
X99042220Y-86222840D02*
X98541840Y-86222840D01*
X98793300Y-85425280D02*
X98793300Y-85275420D01*
X98793300Y-85275420D02*
X98541840Y-85275420D01*
X98541840Y-85425280D02*
X98541840Y-85275420D01*
X98793300Y-85425280D02*
X98541840Y-85425280D01*
X98793300Y-85920580D02*
X98793300Y-85770720D01*
X98793300Y-85770720D02*
X98541840Y-85770720D01*
X98541840Y-85920580D02*
X98541840Y-85770720D01*
X98793300Y-85920580D02*
X98541840Y-85920580D01*
X98717100Y-85796120D02*
X98717100Y-85399880D01*
X98717100Y-85399880D02*
X98541840Y-85399880D01*
X98541840Y-85796120D02*
X98541840Y-85399880D01*
X98717100Y-85796120D02*
X98541840Y-85796120D01*
X98044000Y-85697060D02*
X98044000Y-85498940D01*
X98044000Y-85498940D02*
X97845880Y-85498940D01*
X97845880Y-85697060D02*
X97845880Y-85498940D01*
X98044000Y-85697060D02*
X97845880Y-85697060D01*
X97546160Y-86197440D02*
X97546160Y-85897720D01*
X97546160Y-85897720D02*
X97246440Y-85897720D01*
X97246440Y-86197440D02*
X97246440Y-85897720D01*
X97546160Y-86197440D02*
X97246440Y-86197440D01*
X97119440Y-86222840D02*
X97119440Y-85996780D01*
X97119440Y-85996780D02*
X97045780Y-85996780D01*
X97045780Y-86222840D02*
X97045780Y-85996780D01*
X97119440Y-86222840D02*
X97045780Y-86222840D01*
X97520760Y-85023960D02*
X98567240Y-85023960D01*
X98541840Y-86172040D02*
X97119440Y-86172040D01*
X97267482Y-86047580D02*
G75*
G03X97267482Y-86047580I-71842J0D01*
G01*
X97045780Y-85945980D02*
G75*
G03X97045780Y-85250020I0J347980D01*
G01*
X99042220Y-85250020D02*
G75*
G03X99042220Y-85945980I0J-347980D01*
G01*
X133150429Y-69916524D02*
X133573762Y-69311762D01*
X133876143Y-69916524D02*
X133876143Y-68646524D01*
X133392334Y-68646524D01*
X133271381Y-68707000D01*
X133210905Y-68767476D01*
X133150429Y-68888429D01*
X133150429Y-69069857D01*
X133210905Y-69190810D01*
X133271381Y-69251286D01*
X133392334Y-69311762D01*
X133876143Y-69311762D01*
X132666619Y-68767476D02*
X132606143Y-68707000D01*
X132485191Y-68646524D01*
X132182810Y-68646524D01*
X132061857Y-68707000D01*
X132001381Y-68767476D01*
X131940905Y-68888429D01*
X131940905Y-69009381D01*
X132001381Y-69190810D01*
X132727095Y-69916524D01*
X131940905Y-69916524D01*
X131154714Y-68646524D02*
X131033762Y-68646524D01*
X130912810Y-68707000D01*
X130852333Y-68767476D01*
X130791857Y-68888429D01*
X130731381Y-69130333D01*
X130731381Y-69432714D01*
X130791857Y-69674619D01*
X130852333Y-69795571D01*
X130912810Y-69856048D01*
X131033762Y-69916524D01*
X131154714Y-69916524D01*
X131275667Y-69856048D01*
X131336143Y-69795571D01*
X131396619Y-69674619D01*
X131457095Y-69432714D01*
X131457095Y-69130333D01*
X131396619Y-68888429D01*
X131336143Y-68767476D01*
X131275667Y-68707000D01*
X131154714Y-68646524D01*
X132642429Y-76774524D02*
X133065762Y-76169762D01*
X133368143Y-76774524D02*
X133368143Y-75504524D01*
X132884334Y-75504524D01*
X132763381Y-75565000D01*
X132702905Y-75625476D01*
X132642429Y-75746429D01*
X132642429Y-75927857D01*
X132702905Y-76048810D01*
X132763381Y-76109286D01*
X132884334Y-76169762D01*
X133368143Y-76169762D01*
X132158619Y-75625476D02*
X132098143Y-75565000D01*
X131977191Y-75504524D01*
X131674810Y-75504524D01*
X131553857Y-75565000D01*
X131493381Y-75625476D01*
X131432905Y-75746429D01*
X131432905Y-75867381D01*
X131493381Y-76048810D01*
X132219095Y-76774524D01*
X131432905Y-76774524D01*
X130223381Y-76774524D02*
X130949095Y-76774524D01*
X130586238Y-76774524D02*
X130586238Y-75504524D01*
X130707190Y-75685952D01*
X130828143Y-75806905D01*
X130949095Y-75867381D01*
X126456924Y-66118619D02*
X125186924Y-66118619D01*
X125186924Y-66602428D01*
X125247400Y-66723381D01*
X125307876Y-66783857D01*
X125428829Y-66844333D01*
X125610257Y-66844333D01*
X125731210Y-66783857D01*
X125791686Y-66723381D01*
X125852162Y-66602428D01*
X125852162Y-66118619D01*
X126456924Y-68053857D02*
X126456924Y-67328143D01*
X126456924Y-67691000D02*
X125186924Y-67691000D01*
X125368352Y-67570048D01*
X125489305Y-67449095D01*
X125549781Y-67328143D01*
X133342533Y-103914048D02*
X133161105Y-103974524D01*
X132858724Y-103974524D01*
X132737771Y-103914048D01*
X132677295Y-103853571D01*
X132616819Y-103732619D01*
X132616819Y-103611667D01*
X132677295Y-103490714D01*
X132737771Y-103430238D01*
X132858724Y-103369762D01*
X133100628Y-103309286D01*
X133221581Y-103248810D01*
X133282057Y-103188333D01*
X133342533Y-103067381D01*
X133342533Y-102946429D01*
X133282057Y-102825476D01*
X133221581Y-102765000D01*
X133100628Y-102704524D01*
X132798248Y-102704524D01*
X132616819Y-102765000D01*
X132193485Y-102704524D02*
X131891104Y-103974524D01*
X131649200Y-103067381D01*
X131407295Y-103974524D01*
X131104914Y-102704524D01*
X129955866Y-103974524D02*
X130681580Y-103974524D01*
X130318723Y-103974524D02*
X130318723Y-102704524D01*
X130439675Y-102885952D01*
X130560628Y-103006905D01*
X130681580Y-103067381D01*
X126742533Y-97314048D02*
X126561105Y-97374524D01*
X126258724Y-97374524D01*
X126137771Y-97314048D01*
X126077295Y-97253571D01*
X126016819Y-97132619D01*
X126016819Y-97011667D01*
X126077295Y-96890714D01*
X126137771Y-96830238D01*
X126258724Y-96769762D01*
X126500628Y-96709286D01*
X126621581Y-96648810D01*
X126682057Y-96588333D01*
X126742533Y-96467381D01*
X126742533Y-96346429D01*
X126682057Y-96225476D01*
X126621581Y-96165000D01*
X126500628Y-96104524D01*
X126198248Y-96104524D01*
X126016819Y-96165000D01*
X125593485Y-96104524D02*
X125291104Y-97374524D01*
X125049200Y-96467381D01*
X124807295Y-97374524D01*
X124504914Y-96104524D01*
X124081580Y-96225476D02*
X124021104Y-96165000D01*
X123900152Y-96104524D01*
X123597771Y-96104524D01*
X123476818Y-96165000D01*
X123416342Y-96225476D01*
X123355866Y-96346429D01*
X123355866Y-96467381D01*
X123416342Y-96648810D01*
X124142056Y-97374524D01*
X123355866Y-97374524D01*
X126742533Y-110514048D02*
X126561105Y-110574524D01*
X126258724Y-110574524D01*
X126137771Y-110514048D01*
X126077295Y-110453571D01*
X126016819Y-110332619D01*
X126016819Y-110211667D01*
X126077295Y-110090714D01*
X126137771Y-110030238D01*
X126258724Y-109969762D01*
X126500628Y-109909286D01*
X126621581Y-109848810D01*
X126682057Y-109788333D01*
X126742533Y-109667381D01*
X126742533Y-109546429D01*
X126682057Y-109425476D01*
X126621581Y-109365000D01*
X126500628Y-109304524D01*
X126198248Y-109304524D01*
X126016819Y-109365000D01*
X125593485Y-109304524D02*
X125291104Y-110574524D01*
X125049200Y-109667381D01*
X124807295Y-110574524D01*
X124504914Y-109304524D01*
X124142056Y-109304524D02*
X123355866Y-109304524D01*
X123779199Y-109788333D01*
X123597771Y-109788333D01*
X123476818Y-109848810D01*
X123416342Y-109909286D01*
X123355866Y-110030238D01*
X123355866Y-110332619D01*
X123416342Y-110453571D01*
X123476818Y-110514048D01*
X123597771Y-110574524D01*
X123960628Y-110574524D01*
X124081580Y-110514048D01*
X124142056Y-110453571D01*
X120142533Y-103914048D02*
X119961105Y-103974524D01*
X119658724Y-103974524D01*
X119537771Y-103914048D01*
X119477295Y-103853571D01*
X119416819Y-103732619D01*
X119416819Y-103611667D01*
X119477295Y-103490714D01*
X119537771Y-103430238D01*
X119658724Y-103369762D01*
X119900628Y-103309286D01*
X120021581Y-103248810D01*
X120082057Y-103188333D01*
X120142533Y-103067381D01*
X120142533Y-102946429D01*
X120082057Y-102825476D01*
X120021581Y-102765000D01*
X119900628Y-102704524D01*
X119598248Y-102704524D01*
X119416819Y-102765000D01*
X118993485Y-102704524D02*
X118691104Y-103974524D01*
X118449200Y-103067381D01*
X118207295Y-103974524D01*
X117904914Y-102704524D01*
X116876818Y-103127857D02*
X116876818Y-103974524D01*
X117179199Y-102644048D02*
X117481580Y-103551190D01*
X116695390Y-103551190D01*
X105118533Y-100714048D02*
X104937105Y-100774524D01*
X104634724Y-100774524D01*
X104513771Y-100714048D01*
X104453295Y-100653571D01*
X104392819Y-100532619D01*
X104392819Y-100411667D01*
X104453295Y-100290714D01*
X104513771Y-100230238D01*
X104634724Y-100169762D01*
X104876628Y-100109286D01*
X104997581Y-100048810D01*
X105058057Y-99988333D01*
X105118533Y-99867381D01*
X105118533Y-99746429D01*
X105058057Y-99625476D01*
X104997581Y-99565000D01*
X104876628Y-99504524D01*
X104574248Y-99504524D01*
X104392819Y-99565000D01*
X103969485Y-99504524D02*
X103667104Y-100774524D01*
X103425200Y-99867381D01*
X103183295Y-100774524D01*
X102880914Y-99504524D01*
X101792342Y-99504524D02*
X102397104Y-99504524D01*
X102457580Y-100109286D01*
X102397104Y-100048810D01*
X102276152Y-99988333D01*
X101973771Y-99988333D01*
X101852818Y-100048810D01*
X101792342Y-100109286D01*
X101731866Y-100230238D01*
X101731866Y-100532619D01*
X101792342Y-100653571D01*
X101852818Y-100714048D01*
X101973771Y-100774524D01*
X102276152Y-100774524D01*
X102397104Y-100714048D01*
X102457580Y-100653571D01*
X102283381Y-77282524D02*
X102283381Y-76012524D01*
X101981000Y-76012524D01*
X101799572Y-76073000D01*
X101678619Y-76193952D01*
X101618143Y-76314905D01*
X101557667Y-76556810D01*
X101557667Y-76738238D01*
X101618143Y-76980143D01*
X101678619Y-77101095D01*
X101799572Y-77222048D01*
X101981000Y-77282524D01*
X102283381Y-77282524D01*
X100348143Y-77282524D02*
X101073857Y-77282524D01*
X100711000Y-77282524D02*
X100711000Y-76012524D01*
X100831952Y-76193952D01*
X100952905Y-76314905D01*
X101073857Y-76375381D01*
X102537381Y-81854524D02*
X102537381Y-80584524D01*
X102235000Y-80584524D01*
X102053572Y-80645000D01*
X101932619Y-80765952D01*
X101872143Y-80886905D01*
X101811667Y-81128810D01*
X101811667Y-81310238D01*
X101872143Y-81552143D01*
X101932619Y-81673095D01*
X102053572Y-81794048D01*
X102235000Y-81854524D01*
X102537381Y-81854524D01*
X101327857Y-80705476D02*
X101267381Y-80645000D01*
X101146429Y-80584524D01*
X100844048Y-80584524D01*
X100723095Y-80645000D01*
X100662619Y-80705476D01*
X100602143Y-80826429D01*
X100602143Y-80947381D01*
X100662619Y-81128810D01*
X101388333Y-81854524D01*
X100602143Y-81854524D01*
X102283381Y-86172524D02*
X102283381Y-84902524D01*
X101981000Y-84902524D01*
X101799572Y-84963000D01*
X101678619Y-85083952D01*
X101618143Y-85204905D01*
X101557667Y-85446810D01*
X101557667Y-85628238D01*
X101618143Y-85870143D01*
X101678619Y-85991095D01*
X101799572Y-86112048D01*
X101981000Y-86172524D01*
X102283381Y-86172524D01*
X101134333Y-84902524D02*
X100348143Y-84902524D01*
X100771476Y-85386333D01*
X100590048Y-85386333D01*
X100469095Y-85446810D01*
X100408619Y-85507286D01*
X100348143Y-85628238D01*
X100348143Y-85930619D01*
X100408619Y-86051571D01*
X100469095Y-86112048D01*
X100590048Y-86172524D01*
X100952905Y-86172524D01*
X101073857Y-86112048D01*
X101134333Y-86051571D01*
M02*
