  0
SECTION
  2
HEADER
  9
$ANGBASE
  50
0.0
  9
$ANGDIR
  70
  1
  9
$MEASUREMENT
  70
0
  0
ENDSEC
  0
SECTION
  2
TABLES
  0
TABLE
  2
LTYPE
  70
1
  0
LTYPE
  2
CONTINUOUS
  70
0
  3
Solid line
  72
65
  73
0
  40
0.0
  0
ENDTAB
  0
TABLE
  2
STYLE
  70
4
  0
STYLE
  2
KICAD
  70
0
  40
0
  41
1
  42
1
  50
0
  71
0
  3
isocp.shx
  0
STYLE
  2
KICADB
  70
0
  40
0
  41
1
  42
1
  50
0
  71
0
  3
isocp.shx
  0
STYLE
  2
KICADI
  70
0
  40
0
  41
1
  42
1
  50
15
  71
0
  3
isocp.shx
  0
STYLE
  2
KICADBI
  70
0
  40
0
  41
1
  42
1
  50
15
  71
0
  3
isocp.shx
  0
ENDTAB
  0
TABLE
  2
LAYER
  70
30
  0
LAYER
  2
BLACK
  70
0
  62
7
  6
CONTINUOUS
  0
LAYER
  2
GRAY1
  70
0
  62
251
  6
CONTINUOUS
  0
LAYER
  2
GRAY2
  70
0
  62
8
  6
CONTINUOUS
  0
LAYER
  2
GRAY3
  70
0
  62
9
  6
CONTINUOUS
  0
LAYER
  2
WHITE
  70
0
  62
7
  6
CONTINUOUS
  0
LAYER
  2
LYELLOW
  70
0
  62
51
  6
CONTINUOUS
  0
LAYER
  2
BLUE1
  70
0
  62
178
  6
CONTINUOUS
  0
LAYER
  2
GREEN1
  70
0
  62
98
  6
CONTINUOUS
  0
LAYER
  2
CYAN1
  70
0
  62
138
  6
CONTINUOUS
  0
LAYER
  2
RED1
  70
0
  62
18
  6
CONTINUOUS
  0
LAYER
  2
MAGENTA1
  70
0
  62
228
  6
CONTINUOUS
  0
LAYER
  2
BROWN1
  70
0
  62
58
  6
CONTINUOUS
  0
LAYER
  2
BLUE2
  70
0
  62
5
  6
CONTINUOUS
  0
LAYER
  2
GREEN2
  70
0
  62
3
  6
CONTINUOUS
  0
LAYER
  2
CYAN2
  70
0
  62
4
  6
CONTINUOUS
  0
LAYER
  2
RED2
  70
0
  62
1
  6
CONTINUOUS
  0
LAYER
  2
MAGENTA2
  70
0
  62
6
  6
CONTINUOUS
  0
LAYER
  2
BROWN2
  70
0
  62
54
  6
CONTINUOUS
  0
LAYER
  2
BLUE3
  70
0
  62
171
  6
CONTINUOUS
  0
LAYER
  2
GREEN3
  70
0
  62
91
  6
CONTINUOUS
  0
LAYER
  2
CYAN3
  70
0
  62
131
  6
CONTINUOUS
  0
LAYER
  2
RED3
  70
0
  62
11
  6
CONTINUOUS
  0
LAYER
  2
MAGENTA3
  70
0
  62
221
  6
CONTINUOUS
  0
LAYER
  2
YELLOW3
  70
0
  62
2
  6
CONTINUOUS
  0
LAYER
  2
BLUE4
  70
0
  62
5
  6
CONTINUOUS
  0
LAYER
  2
GREEN4
  70
0
  62
3
  6
CONTINUOUS
  0
LAYER
  2
CYAN4
  70
0
  62
4
  6
CONTINUOUS
  0
LAYER
  2
RED4
  70
0
  62
1
  6
CONTINUOUS
  0
LAYER
  2
MAGENTA4
  70
0
  62
6
  6
CONTINUOUS
  0
LAYER
  2
YELLOW4
  70
0
  62
2
  6
CONTINUOUS
  0
ENDTAB
  0
ENDSEC
  0
SECTION
  2
ENTITIES
0
LINE
8
Black
10
119.191
20
-90
11
119.191
21
-49
0
LINE
8
Black
10
118.81
20
-90
11
118.81
21
-49
0
ARC
8
Black
10
119
20
-49
40
0.1905
50
360
51
540
0
ARC
8
Black
10
119
20
-90
40
0.1905
50
180
51
360
0
LINE
8
Black
10
74
20
-94.1905
11
115
21
-94.1905
0
LINE
8
Black
10
74
20
-93.8095
11
115
21
-93.8095
0
ARC
8
Black
10
115
20
-94
40
0.1905
50
270
51
450
0
ARC
8
Black
10
74
20
-94
40
0.1905
50
90
51
270
0
LINE
8
Black
10
70.1905
20
-90
11
70.1905
21
-49
0
LINE
8
Black
10
69.8095
20
-90
11
69.8095
21
-49
0
ARC
8
Black
10
70
20
-49
40
0.1905
50
360
51
540
0
ARC
8
Black
10
70
20
-90
40
0.1905
50
180
51
360
0
LINE
8
Black
10
74
20
-45.1905
11
115
21
-45.1905
0
LINE
8
Black
10
74
20
-44.8095
11
115
21
-44.8095
0
ARC
8
Black
10
115
20
-45
40
0.1905
50
270
51
450
0
ARC
8
Black
10
74
20
-45
40
0.1905
50
90
51
270
0
ARC
8
Black
10
74
20
-90
40
4
50
-180
51
-90
0
ARC
8
Black
10
115
20
-90
40
4
50
-90
51
-0
0
ARC
8
Black
10
115
20
-49
40
4
50
-0
51
90
0
ARC
8
Black
10
74
20
-49
40
4
50
90
51
180
0
LINE
8
Black
10
72.2225
20
-76.4325
11
72.8575
21
-77.0675
0
LINE
8
Black
10
72.8575
20
-76.4325
11
72.2225
21
-77.0675
0
LINE
8
Black
10
76.0325
20
-81.5125
11
76.6675
21
-82.1475
0
LINE
8
Black
10
76.6675
20
-81.5125
11
76.0325
21
-82.1475
0
LINE
8
Black
10
77.9375
20
-73.3845
11
78.5725
21
-74.0195
0
LINE
8
Black
10
78.5725
20
-73.3845
11
77.9375
21
-74.0195
0
LINE
8
Black
10
78.5725
20
-76.4325
11
79.2075
21
-77.0675
0
LINE
8
Black
10
79.2075
20
-76.4325
11
78.5725
21
-77.0675
0
LINE
8
Black
10
78.5725
20
-78.9725
11
79.2075
21
-79.6075
0
LINE
8
Black
10
79.2075
20
-78.9725
11
78.5725
21
-79.6075
0
LINE
8
Black
10
80.16
20
-77.258
11
80.795
21
-77.893
0
LINE
8
Black
10
80.795
20
-77.258
11
80.16
21
-77.893
0
LINE
8
Black
10
80.7315
20
-73.5115
11
81.3665
21
-74.1465
0
LINE
8
Black
10
81.3665
20
-73.5115
11
80.7315
21
-74.1465
0
LINE
8
Black
10
81.6205
20
-81.7665
11
82.2555
21
-82.4015
0
LINE
8
Black
10
82.2555
20
-81.7665
11
81.6205
21
-82.4015
0
LINE
8
Black
10
83.716
20
-85.3225
11
84.351
21
-85.9575
0
LINE
8
Black
10
84.351
20
-85.3225
11
83.716
21
-85.9575
0
LINE
8
Black
10
85.5575
20
-82.846
11
86.1925
21
-83.481
0
LINE
8
Black
10
86.1925
20
-82.846
11
85.5575
21
-83.481
0
LINE
8
Black
10
86.1925
20
-75.9245
11
86.8275
21
-76.5595
0
LINE
8
Black
10
86.8275
20
-75.9245
11
86.1925
21
-76.5595
0
LINE
8
Black
10
87.3355
20
-91.736
11
87.9705
21
-92.371
0
LINE
8
Black
10
87.9705
20
-91.736
11
87.3355
21
-92.371
0
LINE
8
Black
10
87.526
20
-81.576
11
88.161
21
-82.211
0
LINE
8
Black
10
88.161
20
-81.576
11
87.526
21
-82.211
0
LINE
8
Black
10
88.4785
20
-55.8585
11
89.1135
21
-56.4935
0
LINE
8
Black
10
89.1135
20
-55.8585
11
88.4785
21
-56.4935
0
LINE
8
Black
10
88.4785
20
-66.0185
11
89.1135
21
-66.6535
0
LINE
8
Black
10
89.1135
20
-66.0185
11
88.4785
21
-66.6535
0
LINE
8
Black
10
90.2565
20
-75.9245
11
90.8915
21
-76.5595
0
LINE
8
Black
10
90.8915
20
-75.9245
11
90.2565
21
-76.5595
0
LINE
8
Black
10
90.2565
20
-86.4655
11
90.8915
21
-87.1005
0
LINE
8
Black
10
90.8915
20
-86.4655
11
90.2565
21
-87.1005
0
LINE
8
Black
10
102.183
20
-70.1825
11
102.818
21
-70.8175
0
LINE
8
Black
10
102.818
20
-70.1825
11
102.183
21
-70.8175
0
LINE
8
Black
10
102.183
20
-72.6825
11
102.818
21
-73.3175
0
LINE
8
Black
10
102.818
20
-72.6825
11
102.183
21
-73.3175
0
LINE
8
Black
10
103.973
20
-76.1785
11
104.608
21
-76.8135
0
LINE
8
Black
10
104.608
20
-76.1785
11
103.973
21
-76.8135
0
LINE
8
Black
10
106.64
20
-68.6855
11
107.275
21
-69.3205
0
LINE
8
Black
10
107.275
20
-68.6855
11
106.64
21
-69.3205
0
LINE
8
Black
10
106.767
20
-70.5905
11
107.402
21
-71.2255
0
LINE
8
Black
10
107.402
20
-70.5905
11
106.767
21
-71.2255
0
LINE
8
Black
10
106.767
20
-87.3545
11
107.402
21
-87.9895
0
LINE
8
Black
10
107.402
20
-87.3545
11
106.767
21
-87.9895
0
LINE
8
Black
10
107.402
20
-57.1285
11
108.037
21
-57.7635
0
LINE
8
Black
10
108.037
20
-57.1285
11
107.402
21
-57.7635
0
LINE
8
Black
10
107.529
20
-46.9685
11
108.164
21
-47.6035
0
LINE
8
Black
10
108.164
20
-46.9685
11
107.529
21
-47.6035
0
LINE
8
Black
10
108.799
20
-65.2565
11
109.434
21
-65.8915
0
LINE
8
Black
10
109.434
20
-65.2565
11
108.799
21
-65.8915
0
LINE
8
Black
10
109.942
20
-54.9695
11
110.577
21
-55.6045
0
LINE
8
Black
10
110.577
20
-54.9695
11
109.942
21
-55.6045
0
LINE
8
Black
10
111.085
20
-71.035
11
111.72
21
-71.67
0
LINE
8
Black
10
111.72
20
-71.035
11
111.085
21
-71.67
0
CIRCLE
8
Black
10
92.86
20
-48.81
40
0.4
0
CIRCLE
8
Black
10
92.86
20
-51.35
40
0.4
0
CIRCLE
8
Black
10
92.86
20
-53.89
40
0.4
0
CIRCLE
8
Black
10
92.86
20
-58.97
40
0.4
0
CIRCLE
8
Black
10
92.86
20
-61.51
40
0.4
0
CIRCLE
8
Black
10
92.86
20
-64.05
40
0.4
0
CIRCLE
8
Black
10
92.86
20
-75.48
40
0.4
0
CIRCLE
8
Black
10
92.86
20
-78.02
40
0.4
0
CIRCLE
8
Black
10
92.86
20
-80.56
40
0.4
0
CIRCLE
8
Black
10
92.86
20
-85.64
40
0.4
0
CIRCLE
8
Black
10
92.86
20
-88.18
40
0.4
0
CIRCLE
8
Black
10
92.86
20
-90.72
40
0.4
0
CIRCLE
8
Black
10
100.48
20
-48.81
40
0.4
0
CIRCLE
8
Black
10
100.48
20
-51.35
40
0.4
0
CIRCLE
8
Black
10
100.48
20
-53.89
40
0.4
0
CIRCLE
8
Black
10
100.48
20
-58.97
40
0.4
0
CIRCLE
8
Black
10
100.48
20
-61.51
40
0.4
0
CIRCLE
8
Black
10
100.48
20
-64.05
40
0.4
0
CIRCLE
8
Black
10
100.48
20
-75.48
40
0.4
0
CIRCLE
8
Black
10
100.48
20
-78.02
40
0.4
0
CIRCLE
8
Black
10
100.48
20
-80.56
40
0.4
0
CIRCLE
8
Black
10
100.48
20
-85.64
40
0.4
0
CIRCLE
8
Black
10
100.48
20
-88.18
40
0.4
0
CIRCLE
8
Black
10
100.48
20
-90.72
40
0.4
0
LINE
8
Black
10
76.35
20
-55.93
11
76.35
21
-56.93
0
LINE
8
Black
10
75.85
20
-56.43
11
76.85
21
-56.43
0
LINE
8
Black
10
76.35
20
-58.47
11
76.35
21
-59.47
0
LINE
8
Black
10
75.85
20
-58.97
11
76.85
21
-58.97
0
LINE
8
Black
10
76.35
20
-61.01
11
76.35
21
-62.01
0
LINE
8
Black
10
75.85
20
-61.51
11
76.85
21
-61.51
0
LINE
8
Black
10
76.35
20
-63.55
11
76.35
21
-64.55
0
LINE
8
Black
10
75.85
20
-64.05
11
76.85
21
-64.05
0
LINE
8
Black
10
82.192
20
-47.548
11
82.192
21
-48.548
0
LINE
8
Black
10
81.692
20
-48.048
11
82.692
21
-48.048
0
LINE
8
Black
10
82.192
20
-50.088
11
82.192
21
-51.088
0
LINE
8
Black
10
81.692
20
-50.588
11
82.692
21
-50.588
0
LINE
8
Black
10
112.545
20
-54.025
11
112.545
21
-55.025
0
LINE
8
Black
10
112.045
20
-54.525
11
113.045
21
-54.525
0
LINE
8
Black
10
112.545
20
-56.565
11
112.545
21
-57.565
0
LINE
8
Black
10
112.045
20
-57.065
11
113.045
21
-57.065
0
LINE
8
Black
10
113.18
20
-63.55
11
113.18
21
-64.55
0
LINE
8
Black
10
112.68
20
-64.05
11
113.68
21
-64.05
0
LINE
8
Black
10
113.18
20
-66.09
11
113.18
21
-67.09
0
LINE
8
Black
10
112.68
20
-66.59
11
113.68
21
-66.59
0
LINE
8
Black
10
113.18
20
-68.63
11
113.18
21
-69.63
0
LINE
8
Black
10
112.68
20
-69.13
11
113.68
21
-69.13
0
LINE
8
Black
10
113.18
20
-71.17
11
113.18
21
-72.17
0
LINE
8
Black
10
112.68
20
-71.67
11
113.68
21
-71.67
0
LINE
8
Black
10
113.18
20
-73.71
11
113.18
21
-74.71
0
LINE
8
Black
10
112.68
20
-74.21
11
113.68
21
-74.21
0
LINE
8
Black
10
113.18
20
-76.25
11
113.18
21
-77.25
0
LINE
8
Black
10
112.68
20
-76.75
11
113.68
21
-76.75
0
LINE
8
Black
10
75.1225
20
-50.1225
11
75.1225
21
-47.8775
0
LINE
8
Black
10
75.1225
20
-47.8775
11
72.8775
21
-47.8775
0
LINE
8
Black
10
72.8775
20
-47.8775
11
72.8775
21
-50.1225
0
LINE
8
Black
10
72.8775
20
-50.1225
11
75.1225
21
-50.1225
0
LINE
8
Black
10
75.1225
20
-91.1225
11
75.1225
21
-88.8775
0
LINE
8
Black
10
75.1225
20
-88.8775
11
72.8775
21
-88.8775
0
LINE
8
Black
10
72.8775
20
-88.8775
11
72.8775
21
-91.1225
0
LINE
8
Black
10
72.8775
20
-91.1225
11
75.1225
21
-91.1225
0
LINE
8
Black
10
116.123
20
-50.1225
11
116.123
21
-47.8775
0
LINE
8
Black
10
116.123
20
-47.8775
11
113.877
21
-47.8775
0
LINE
8
Black
10
113.877
20
-47.8775
11
113.877
21
-50.1225
0
LINE
8
Black
10
113.877
20
-50.1225
11
116.123
21
-50.1225
0
LINE
8
Black
10
116.123
20
-91.1225
11
116.123
21
-88.8775
0
LINE
8
Black
10
116.123
20
-88.8775
11
113.877
21
-88.8775
0
LINE
8
Black
10
113.877
20
-88.8775
11
113.877
21
-91.1225
0
LINE
8
Black
10
113.877
20
-91.1225
11
116.123
21
-91.1225
0
LINE
8
Black
10
72.5238
20
-98.8476
11
72.5238
21
-95.8476
0
LINE
8
Black
10
72.5238
20
-95.8476
11
73.2381
21
-95.8476
0
LINE
8
Black
10
73.2381
20
-95.8476
11
73.6666
21
-95.9905
0
LINE
8
Black
10
73.6666
20
-95.9905
11
73.9524
21
-96.2762
0
LINE
8
Black
10
73.9524
20
-96.2762
11
74.0952
21
-96.5619
0
LINE
8
Black
10
74.0952
20
-96.5619
11
74.2381
21
-97.1334
0
LINE
8
Black
10
74.2381
20
-97.1334
11
74.2381
21
-97.5619
0
LINE
8
Black
10
74.2381
20
-97.5619
11
74.0952
21
-98.1334
0
LINE
8
Black
10
74.0952
20
-98.1334
11
73.9524
21
-98.4191
0
LINE
8
Black
10
73.9524
20
-98.4191
11
73.6666
21
-98.7048
0
LINE
8
Black
10
73.6666
20
-98.7048
11
73.2381
21
-98.8476
0
LINE
8
Black
10
73.2381
20
-98.8476
11
72.5238
21
-98.8476
0
LINE
8
Black
10
75.5238
20
-98.8476
11
75.5238
21
-96.8476
0
LINE
8
Black
10
75.5238
20
-97.4191
11
75.6666
21
-97.1334
0
LINE
8
Black
10
75.6666
20
-97.1334
11
75.8095
21
-96.9905
0
LINE
8
Black
10
75.8095
20
-96.9905
11
76.0952
21
-96.8476
0
LINE
8
Black
10
76.0952
20
-96.8476
11
76.3809
21
-96.8476
0
LINE
8
Black
10
77.3809
20
-98.8476
11
77.3809
21
-96.8476
0
LINE
8
Black
10
77.3809
20
-95.8476
11
77.2381
21
-95.9905
0
LINE
8
Black
10
77.2381
20
-95.9905
11
77.3809
21
-96.1334
0
LINE
8
Black
10
77.3809
20
-96.1334
11
77.5238
21
-95.9905
0
LINE
8
Black
10
77.5238
20
-95.9905
11
77.3809
21
-95.8476
0
LINE
8
Black
10
77.3809
20
-95.8476
11
77.3809
21
-96.1334
0
LINE
8
Black
10
79.2381
20
-98.8476
11
78.9524
21
-98.7048
0
LINE
8
Black
10
78.9524
20
-98.7048
11
78.8095
21
-98.4191
0
LINE
8
Black
10
78.8095
20
-98.4191
11
78.8095
21
-95.8476
0
LINE
8
Black
10
80.8095
20
-98.8476
11
80.5238
21
-98.7048
0
LINE
8
Black
10
80.5238
20
-98.7048
11
80.3809
21
-98.4191
0
LINE
8
Black
10
80.3809
20
-98.4191
11
80.3809
21
-95.8476
0
LINE
8
Black
10
84.2381
20
-98.8476
11
84.2381
21
-95.8476
0
LINE
8
Black
10
84.2381
20
-95.8476
11
85.2381
21
-97.9905
0
LINE
8
Black
10
85.2381
20
-97.9905
11
86.2381
21
-95.8476
0
LINE
8
Black
10
86.2381
20
-95.8476
11
86.2381
21
-98.8476
0
LINE
8
Black
10
88.9524
20
-98.8476
11
88.9524
21
-97.2762
0
LINE
8
Black
10
88.9524
20
-97.2762
11
88.8095
21
-96.9905
0
LINE
8
Black
10
88.8095
20
-96.9905
11
88.5238
21
-96.8476
0
LINE
8
Black
10
88.5238
20
-96.8476
11
87.9524
21
-96.8476
0
LINE
8
Black
10
87.9524
20
-96.8476
11
87.6666
21
-96.9905
0
LINE
8
Black
10
88.9524
20
-98.7048
11
88.6666
21
-98.8476
0
LINE
8
Black
10
88.6666
20
-98.8476
11
87.9524
21
-98.8476
0
LINE
8
Black
10
87.9524
20
-98.8476
11
87.6666
21
-98.7048
0
LINE
8
Black
10
87.6666
20
-98.7048
11
87.5238
21
-98.4191
0
LINE
8
Black
10
87.5238
20
-98.4191
11
87.5238
21
-98.1334
0
LINE
8
Black
10
87.5238
20
-98.1334
11
87.6666
21
-97.8476
0
LINE
8
Black
10
87.6666
20
-97.8476
11
87.9524
21
-97.7048
0
LINE
8
Black
10
87.9524
20
-97.7048
11
88.6666
21
-97.7048
0
LINE
8
Black
10
88.6666
20
-97.7048
11
88.9524
21
-97.5619
0
LINE
8
Black
10
90.3809
20
-96.8476
11
90.3809
21
-99.8476
0
LINE
8
Black
10
90.3809
20
-96.9905
11
90.6666
21
-96.8476
0
LINE
8
Black
10
90.6666
20
-96.8476
11
91.2381
21
-96.8476
0
LINE
8
Black
10
91.2381
20
-96.8476
11
91.5238
21
-96.9905
0
LINE
8
Black
10
91.5238
20
-96.9905
11
91.6666
21
-97.1334
0
LINE
8
Black
10
91.6666
20
-97.1334
11
91.8095
21
-97.4191
0
LINE
8
Black
10
91.8095
20
-97.4191
11
91.8095
21
-98.2762
0
LINE
8
Black
10
91.8095
20
-98.2762
11
91.6666
21
-98.5619
0
LINE
8
Black
10
91.6666
20
-98.5619
11
91.5238
21
-98.7048
0
LINE
8
Black
10
91.5238
20
-98.7048
11
91.2381
21
-98.8476
0
LINE
8
Black
10
91.2381
20
-98.8476
11
90.6666
21
-98.8476
0
LINE
8
Black
10
90.6666
20
-98.8476
11
90.3809
21
-98.7048
0
LINE
8
Black
10
93.0952
20
-98.5619
11
93.2381
21
-98.7048
0
LINE
8
Black
10
93.2381
20
-98.7048
11
93.0952
21
-98.8476
0
LINE
8
Black
10
93.0952
20
-98.8476
11
92.9524
21
-98.7048
0
LINE
8
Black
10
92.9524
20
-98.7048
11
93.0952
21
-98.5619
0
LINE
8
Black
10
93.0952
20
-98.5619
11
93.0952
21
-98.8476
0
LINE
8
Black
10
93.0952
20
-96.9905
11
93.2381
21
-97.1334
0
LINE
8
Black
10
93.2381
20
-97.1334
11
93.0952
21
-97.2762
0
LINE
8
Black
10
93.0952
20
-97.2762
11
92.9524
21
-97.1334
0
LINE
8
Black
10
92.9524
20
-97.1334
11
93.0952
21
-96.9905
0
LINE
8
Black
10
93.0952
20
-96.9905
11
93.0952
21
-97.2762
0
LINE
8
Black
10
69.1745
20
-103.473
11
69.8095
21
-104.108
0
LINE
8
Black
10
69.8095
20
-103.473
11
69.1745
21
-104.108
0
LINE
8
Black
10
73.0952
20
-102.148
11
73.3809
21
-102.148
0
LINE
8
Black
10
73.3809
20
-102.148
11
73.6666
21
-102.291
0
LINE
8
Black
10
73.6666
20
-102.291
11
73.8095
21
-102.433
0
LINE
8
Black
10
73.8095
20
-102.433
11
73.9524
21
-102.719
0
LINE
8
Black
10
73.9524
20
-102.719
11
74.0952
21
-103.291
0
LINE
8
Black
10
74.0952
20
-103.291
11
74.0952
21
-104.005
0
LINE
8
Black
10
74.0952
20
-104.005
11
73.9524
21
-104.576
0
LINE
8
Black
10
73.9524
20
-104.576
11
73.8095
21
-104.862
0
LINE
8
Black
10
73.8095
20
-104.862
11
73.6666
21
-105.005
0
LINE
8
Black
10
73.6666
20
-105.005
11
73.3809
21
-105.148
0
LINE
8
Black
10
73.3809
20
-105.148
11
73.0952
21
-105.148
0
LINE
8
Black
10
73.0952
20
-105.148
11
72.8095
21
-105.005
0
LINE
8
Black
10
72.8095
20
-105.005
11
72.6666
21
-104.862
0
LINE
8
Black
10
72.6666
20
-104.862
11
72.5238
21
-104.576
0
LINE
8
Black
10
72.5238
20
-104.576
11
72.3809
21
-104.005
0
LINE
8
Black
10
72.3809
20
-104.005
11
72.3809
21
-103.291
0
LINE
8
Black
10
72.3809
20
-103.291
11
72.5238
21
-102.719
0
LINE
8
Black
10
72.5238
20
-102.719
11
72.6666
21
-102.433
0
LINE
8
Black
10
72.6666
20
-102.433
11
72.8095
21
-102.291
0
LINE
8
Black
10
72.8095
20
-102.291
11
73.0952
21
-102.148
0
LINE
8
Black
10
75.3809
20
-104.862
11
75.5238
21
-105.005
0
LINE
8
Black
10
75.5238
20
-105.005
11
75.3809
21
-105.148
0
LINE
8
Black
10
75.3809
20
-105.148
11
75.2381
21
-105.005
0
LINE
8
Black
10
75.2381
20
-105.005
11
75.3809
21
-104.862
0
LINE
8
Black
10
75.3809
20
-104.862
11
75.3809
21
-105.148
0
LINE
8
Black
10
78.0952
20
-102.148
11
77.5238
21
-102.148
0
LINE
8
Black
10
77.5238
20
-102.148
11
77.2381
21
-102.291
0
LINE
8
Black
10
77.2381
20
-102.291
11
77.0952
21
-102.433
0
LINE
8
Black
10
77.0952
20
-102.433
11
76.8095
21
-102.862
0
LINE
8
Black
10
76.8095
20
-102.862
11
76.6666
21
-103.433
0
LINE
8
Black
10
76.6666
20
-103.433
11
76.6666
21
-104.576
0
LINE
8
Black
10
76.6666
20
-104.576
11
76.8095
21
-104.862
0
LINE
8
Black
10
76.8095
20
-104.862
11
76.9524
21
-105.005
0
LINE
8
Black
10
76.9524
20
-105.005
11
77.2381
21
-105.148
0
LINE
8
Black
10
77.2381
20
-105.148
11
77.8095
21
-105.148
0
LINE
8
Black
10
77.8095
20
-105.148
11
78.0952
21
-105.005
0
LINE
8
Black
10
78.0952
20
-105.005
11
78.2381
21
-104.862
0
LINE
8
Black
10
78.2381
20
-104.862
11
78.3809
21
-104.576
0
LINE
8
Black
10
78.3809
20
-104.576
11
78.3809
21
-103.862
0
LINE
8
Black
10
78.3809
20
-103.862
11
78.2381
21
-103.576
0
LINE
8
Black
10
78.2381
20
-103.576
11
78.0952
21
-103.433
0
LINE
8
Black
10
78.0952
20
-103.433
11
77.8095
21
-103.291
0
LINE
8
Black
10
77.8095
20
-103.291
11
77.2381
21
-103.291
0
LINE
8
Black
10
77.2381
20
-103.291
11
76.9524
21
-103.433
0
LINE
8
Black
10
76.9524
20
-103.433
11
76.8095
21
-103.576
0
LINE
8
Black
10
76.8095
20
-103.576
11
76.6666
21
-103.862
0
LINE
8
Black
10
80.9524
20
-103.148
11
80.9524
21
-105.148
0
LINE
8
Black
10
80.2381
20
-102.005
11
79.5238
21
-104.148
0
LINE
8
Black
10
79.5238
20
-104.148
11
81.3809
21
-104.148
0
LINE
8
Black
10
82.5238
20
-105.148
11
82.5238
21
-103.148
0
LINE
8
Black
10
82.5238
20
-103.433
11
82.6666
21
-103.291
0
LINE
8
Black
10
82.6666
20
-103.291
11
82.9524
21
-103.148
0
LINE
8
Black
10
82.9524
20
-103.148
11
83.3809
21
-103.148
0
LINE
8
Black
10
83.3809
20
-103.148
11
83.6666
21
-103.291
0
LINE
8
Black
10
83.6666
20
-103.291
11
83.8095
21
-103.576
0
LINE
8
Black
10
83.8095
20
-103.576
11
83.8095
21
-105.148
0
LINE
8
Black
10
83.8095
20
-103.576
11
83.9524
21
-103.291
0
LINE
8
Black
10
83.9524
20
-103.291
11
84.2381
21
-103.148
0
LINE
8
Black
10
84.2381
20
-103.148
11
84.6666
21
-103.148
0
LINE
8
Black
10
84.6666
20
-103.148
11
84.9524
21
-103.291
0
LINE
8
Black
10
84.9524
20
-103.291
11
85.0952
21
-103.576
0
LINE
8
Black
10
85.0952
20
-103.576
11
85.0952
21
-105.148
0
LINE
8
Black
10
86.5238
20
-105.148
11
86.5238
21
-103.148
0
LINE
8
Black
10
86.5238
20
-103.433
11
86.6666
21
-103.291
0
LINE
8
Black
10
86.6666
20
-103.291
11
86.9524
21
-103.148
0
LINE
8
Black
10
86.9524
20
-103.148
11
87.3809
21
-103.148
0
LINE
8
Black
10
87.3809
20
-103.148
11
87.6666
21
-103.291
0
LINE
8
Black
10
87.6666
20
-103.291
11
87.8095
21
-103.576
0
LINE
8
Black
10
87.8095
20
-103.576
11
87.8095
21
-105.148
0
LINE
8
Black
10
87.8095
20
-103.576
11
87.9524
21
-103.291
0
LINE
8
Black
10
87.9524
20
-103.291
11
88.2381
21
-103.148
0
LINE
8
Black
10
88.2381
20
-103.148
11
88.6666
21
-103.148
0
LINE
8
Black
10
88.6666
20
-103.148
11
88.9524
21
-103.291
0
LINE
8
Black
10
88.9524
20
-103.291
11
89.0952
21
-103.576
0
LINE
8
Black
10
89.0952
20
-103.576
11
89.0952
21
-105.148
0
LINE
8
Black
10
94.9524
20
-102.005
11
92.3809
21
-105.862
0
LINE
8
Black
10
98.8095
20
-102.148
11
99.0952
21
-102.148
0
LINE
8
Black
10
99.0952
20
-102.148
11
99.3809
21
-102.291
0
LINE
8
Black
10
99.3809
20
-102.291
11
99.5238
21
-102.433
0
LINE
8
Black
10
99.5238
20
-102.433
11
99.6666
21
-102.719
0
LINE
8
Black
10
99.6666
20
-102.719
11
99.8095
21
-103.291
0
LINE
8
Black
10
99.8095
20
-103.291
11
99.8095
21
-104.005
0
LINE
8
Black
10
99.8095
20
-104.005
11
99.6666
21
-104.576
0
LINE
8
Black
10
99.6666
20
-104.576
11
99.5238
21
-104.862
0
LINE
8
Black
10
99.5238
20
-104.862
11
99.3809
21
-105.005
0
LINE
8
Black
10
99.3809
20
-105.005
11
99.0952
21
-105.148
0
LINE
8
Black
10
99.0952
20
-105.148
11
98.8095
21
-105.148
0
LINE
8
Black
10
98.8095
20
-105.148
11
98.5238
21
-105.005
0
LINE
8
Black
10
98.5238
20
-105.005
11
98.3809
21
-104.862
0
LINE
8
Black
10
98.3809
20
-104.862
11
98.2381
21
-104.576
0
LINE
8
Black
10
98.2381
20
-104.576
11
98.0952
21
-104.005
0
LINE
8
Black
10
98.0952
20
-104.005
11
98.0952
21
-103.291
0
LINE
8
Black
10
98.0952
20
-103.291
11
98.2381
21
-102.719
0
LINE
8
Black
10
98.2381
20
-102.719
11
98.3809
21
-102.433
0
LINE
8
Black
10
98.3809
20
-102.433
11
98.5238
21
-102.291
0
LINE
8
Black
10
98.5238
20
-102.291
11
98.8095
21
-102.148
0
LINE
8
Black
10
101.095
20
-104.862
11
101.238
21
-105.005
0
LINE
8
Black
10
101.238
20
-105.005
11
101.095
21
-105.148
0
LINE
8
Black
10
101.095
20
-105.148
11
100.952
21
-105.005
0
LINE
8
Black
10
100.952
20
-105.005
11
101.095
21
-104.862
0
LINE
8
Black
10
101.095
20
-104.862
11
101.095
21
-105.148
0
LINE
8
Black
10
103.095
20
-102.148
11
103.381
21
-102.148
0
LINE
8
Black
10
103.381
20
-102.148
11
103.667
21
-102.291
0
LINE
8
Black
10
103.667
20
-102.291
11
103.809
21
-102.433
0
LINE
8
Black
10
103.809
20
-102.433
11
103.952
21
-102.719
0
LINE
8
Black
10
103.952
20
-102.719
11
104.095
21
-103.291
0
LINE
8
Black
10
104.095
20
-103.291
11
104.095
21
-104.005
0
LINE
8
Black
10
104.095
20
-104.005
11
103.952
21
-104.576
0
LINE
8
Black
10
103.952
20
-104.576
11
103.809
21
-104.862
0
LINE
8
Black
10
103.809
20
-104.862
11
103.667
21
-105.005
0
LINE
8
Black
10
103.667
20
-105.005
11
103.381
21
-105.148
0
LINE
8
Black
10
103.381
20
-105.148
11
103.095
21
-105.148
0
LINE
8
Black
10
103.095
20
-105.148
11
102.809
21
-105.005
0
LINE
8
Black
10
102.809
20
-105.005
11
102.667
21
-104.862
0
LINE
8
Black
10
102.667
20
-104.862
11
102.524
21
-104.576
0
LINE
8
Black
10
102.524
20
-104.576
11
102.381
21
-104.005
0
LINE
8
Black
10
102.381
20
-104.005
11
102.381
21
-103.291
0
LINE
8
Black
10
102.381
20
-103.291
11
102.524
21
-102.719
0
LINE
8
Black
10
102.524
20
-102.719
11
102.667
21
-102.433
0
LINE
8
Black
10
102.667
20
-102.433
11
102.809
21
-102.291
0
LINE
8
Black
10
102.809
20
-102.291
11
103.095
21
-102.148
0
LINE
8
Black
10
105.238
20
-102.433
11
105.381
21
-102.291
0
LINE
8
Black
10
105.381
20
-102.291
11
105.667
21
-102.148
0
LINE
8
Black
10
105.667
20
-102.148
11
106.381
21
-102.148
0
LINE
8
Black
10
106.381
20
-102.148
11
106.667
21
-102.291
0
LINE
8
Black
10
106.667
20
-102.291
11
106.809
21
-102.433
0
LINE
8
Black
10
106.809
20
-102.433
11
106.952
21
-102.719
0
LINE
8
Black
10
106.952
20
-102.719
11
106.952
21
-103.005
0
LINE
8
Black
10
106.952
20
-103.005
11
106.809
21
-103.433
0
LINE
8
Black
10
106.809
20
-103.433
11
105.095
21
-105.148
0
LINE
8
Black
10
105.095
20
-105.148
11
106.952
21
-105.148
0
LINE
8
Black
10
109.667
20
-102.148
11
108.238
21
-102.148
0
LINE
8
Black
10
108.238
20
-102.148
11
108.095
21
-103.576
0
LINE
8
Black
10
108.095
20
-103.576
11
108.238
21
-103.433
0
LINE
8
Black
10
108.238
20
-103.433
11
108.524
21
-103.291
0
LINE
8
Black
10
108.524
20
-103.291
11
109.238
21
-103.291
0
LINE
8
Black
10
109.238
20
-103.291
11
109.524
21
-103.433
0
LINE
8
Black
10
109.524
20
-103.433
11
109.667
21
-103.576
0
LINE
8
Black
10
109.667
20
-103.576
11
109.809
21
-103.862
0
LINE
8
Black
10
109.809
20
-103.862
11
109.809
21
-104.576
0
LINE
8
Black
10
109.809
20
-104.576
11
109.667
21
-104.862
0
LINE
8
Black
10
109.667
20
-104.862
11
109.524
21
-105.005
0
LINE
8
Black
10
109.524
20
-105.005
11
109.238
21
-105.148
0
LINE
8
Black
10
109.238
20
-105.148
11
108.524
21
-105.148
0
LINE
8
Black
10
108.524
20
-105.148
11
108.238
21
-105.005
0
LINE
8
Black
10
108.238
20
-105.005
11
108.095
21
-104.862
0
LINE
8
Black
10
110.952
20
-102.148
11
110.952
21
-102.719
0
LINE
8
Black
10
112.095
20
-102.148
11
112.095
21
-102.719
0
LINE
8
Black
10
116.524
20
-106.291
11
116.381
21
-106.148
0
LINE
8
Black
10
116.381
20
-106.148
11
116.095
21
-105.719
0
LINE
8
Black
10
116.095
20
-105.719
11
115.952
21
-105.433
0
LINE
8
Black
10
115.952
20
-105.433
11
115.809
21
-105.005
0
LINE
8
Black
10
115.809
20
-105.005
11
115.667
21
-104.291
0
LINE
8
Black
10
115.667
20
-104.291
11
115.667
21
-103.719
0
LINE
8
Black
10
115.667
20
-103.719
11
115.809
21
-103.005
0
LINE
8
Black
10
115.809
20
-103.005
11
115.952
21
-102.576
0
LINE
8
Black
10
115.952
20
-102.576
11
116.095
21
-102.291
0
LINE
8
Black
10
116.095
20
-102.291
11
116.381
21
-101.862
0
LINE
8
Black
10
116.381
20
-101.862
11
116.524
21
-101.719
0
LINE
8
Black
10
117.524
20
-102.433
11
117.667
21
-102.291
0
LINE
8
Black
10
117.667
20
-102.291
11
117.952
21
-102.148
0
LINE
8
Black
10
117.952
20
-102.148
11
118.667
21
-102.148
0
LINE
8
Black
10
118.667
20
-102.148
11
118.952
21
-102.291
0
LINE
8
Black
10
118.952
20
-102.291
11
119.095
21
-102.433
0
LINE
8
Black
10
119.095
20
-102.433
11
119.238
21
-102.719
0
LINE
8
Black
10
119.238
20
-102.719
11
119.238
21
-103.005
0
LINE
8
Black
10
119.238
20
-103.005
11
119.095
21
-103.433
0
LINE
8
Black
10
119.095
20
-103.433
11
117.381
21
-105.148
0
LINE
8
Black
10
117.381
20
-105.148
11
119.238
21
-105.148
0
LINE
8
Black
10
120.952
20
-103.433
11
120.667
21
-103.291
0
LINE
8
Black
10
120.667
20
-103.291
11
120.524
21
-103.148
0
LINE
8
Black
10
120.524
20
-103.148
11
120.381
21
-102.862
0
LINE
8
Black
10
120.381
20
-102.862
11
120.381
21
-102.719
0
LINE
8
Black
10
120.381
20
-102.719
11
120.524
21
-102.433
0
LINE
8
Black
10
120.524
20
-102.433
11
120.667
21
-102.291
0
LINE
8
Black
10
120.667
20
-102.291
11
120.952
21
-102.148
0
LINE
8
Black
10
120.952
20
-102.148
11
121.524
21
-102.148
0
LINE
8
Black
10
121.524
20
-102.148
11
121.809
21
-102.291
0
LINE
8
Black
10
121.809
20
-102.291
11
121.952
21
-102.433
0
LINE
8
Black
10
121.952
20
-102.433
11
122.095
21
-102.719
0
LINE
8
Black
10
122.095
20
-102.719
11
122.095
21
-102.862
0
LINE
8
Black
10
122.095
20
-102.862
11
121.952
21
-103.148
0
LINE
8
Black
10
121.952
20
-103.148
11
121.809
21
-103.291
0
LINE
8
Black
10
121.809
20
-103.291
11
121.524
21
-103.433
0
LINE
8
Black
10
121.524
20
-103.433
11
120.952
21
-103.433
0
LINE
8
Black
10
120.952
20
-103.433
11
120.667
21
-103.576
0
LINE
8
Black
10
120.667
20
-103.576
11
120.524
21
-103.719
0
LINE
8
Black
10
120.524
20
-103.719
11
120.381
21
-104.005
0
LINE
8
Black
10
120.381
20
-104.005
11
120.381
21
-104.576
0
LINE
8
Black
10
120.381
20
-104.576
11
120.524
21
-104.862
0
LINE
8
Black
10
120.524
20
-104.862
11
120.667
21
-105.005
0
LINE
8
Black
10
120.667
20
-105.005
11
120.952
21
-105.148
0
LINE
8
Black
10
120.952
20
-105.148
11
121.524
21
-105.148
0
LINE
8
Black
10
121.524
20
-105.148
11
121.809
21
-105.005
0
LINE
8
Black
10
121.809
20
-105.005
11
121.952
21
-104.862
0
LINE
8
Black
10
121.952
20
-104.862
11
122.095
21
-104.576
0
LINE
8
Black
10
122.095
20
-104.576
11
122.095
21
-104.005
0
LINE
8
Black
10
122.095
20
-104.005
11
121.952
21
-103.719
0
LINE
8
Black
10
121.952
20
-103.719
11
121.809
21
-103.576
0
LINE
8
Black
10
121.809
20
-103.576
11
121.524
21
-103.433
0
LINE
8
Black
10
125.667
20
-105.148
11
125.667
21
-102.148
0
LINE
8
Black
10
126.952
20
-105.148
11
126.952
21
-103.576
0
LINE
8
Black
10
126.952
20
-103.576
11
126.809
21
-103.291
0
LINE
8
Black
10
126.809
20
-103.291
11
126.524
21
-103.148
0
LINE
8
Black
10
126.524
20
-103.148
11
126.095
21
-103.148
0
LINE
8
Black
10
126.095
20
-103.148
11
125.809
21
-103.291
0
LINE
8
Black
10
125.809
20
-103.291
11
125.667
21
-103.433
0
LINE
8
Black
10
128.809
20
-105.148
11
128.524
21
-105.005
0
LINE
8
Black
10
128.524
20
-105.005
11
128.381
21
-104.862
0
LINE
8
Black
10
128.381
20
-104.862
11
128.238
21
-104.576
0
LINE
8
Black
10
128.238
20
-104.576
11
128.238
21
-103.719
0
LINE
8
Black
10
128.238
20
-103.719
11
128.381
21
-103.433
0
LINE
8
Black
10
128.381
20
-103.433
11
128.524
21
-103.291
0
LINE
8
Black
10
128.524
20
-103.291
11
128.809
21
-103.148
0
LINE
8
Black
10
128.809
20
-103.148
11
129.238
21
-103.148
0
LINE
8
Black
10
129.238
20
-103.148
11
129.524
21
-103.291
0
LINE
8
Black
10
129.524
20
-103.291
11
129.667
21
-103.433
0
LINE
8
Black
10
129.667
20
-103.433
11
129.809
21
-103.719
0
LINE
8
Black
10
129.809
20
-103.719
11
129.809
21
-104.576
0
LINE
8
Black
10
129.809
20
-104.576
11
129.667
21
-104.862
0
LINE
8
Black
10
129.667
20
-104.862
11
129.524
21
-105.005
0
LINE
8
Black
10
129.524
20
-105.005
11
129.238
21
-105.148
0
LINE
8
Black
10
129.238
20
-105.148
11
128.809
21
-105.148
0
LINE
8
Black
10
131.524
20
-105.148
11
131.238
21
-105.005
0
LINE
8
Black
10
131.238
20
-105.005
11
131.095
21
-104.719
0
LINE
8
Black
10
131.095
20
-104.719
11
131.095
21
-102.148
0
LINE
8
Black
10
133.809
20
-105.005
11
133.524
21
-105.148
0
LINE
8
Black
10
133.524
20
-105.148
11
132.952
21
-105.148
0
LINE
8
Black
10
132.952
20
-105.148
11
132.667
21
-105.005
0
LINE
8
Black
10
132.667
20
-105.005
11
132.524
21
-104.719
0
LINE
8
Black
10
132.524
20
-104.719
11
132.524
21
-103.576
0
LINE
8
Black
10
132.524
20
-103.576
11
132.667
21
-103.291
0
LINE
8
Black
10
132.667
20
-103.291
11
132.952
21
-103.148
0
LINE
8
Black
10
132.952
20
-103.148
11
133.524
21
-103.148
0
LINE
8
Black
10
133.524
20
-103.148
11
133.809
21
-103.291
0
LINE
8
Black
10
133.809
20
-103.291
11
133.952
21
-103.576
0
LINE
8
Black
10
133.952
20
-103.576
11
133.952
21
-103.862
0
LINE
8
Black
10
133.952
20
-103.862
11
132.524
21
-104.148
0
LINE
8
Black
10
135.095
20
-105.005
11
135.381
21
-105.148
0
LINE
8
Black
10
135.381
20
-105.148
11
135.952
21
-105.148
0
LINE
8
Black
10
135.952
20
-105.148
11
136.238
21
-105.005
0
LINE
8
Black
10
136.238
20
-105.005
11
136.381
21
-104.719
0
LINE
8
Black
10
136.381
20
-104.719
11
136.381
21
-104.576
0
LINE
8
Black
10
136.381
20
-104.576
11
136.238
21
-104.291
0
LINE
8
Black
10
136.238
20
-104.291
11
135.952
21
-104.148
0
LINE
8
Black
10
135.952
20
-104.148
11
135.524
21
-104.148
0
LINE
8
Black
10
135.524
20
-104.148
11
135.238
21
-104.005
0
LINE
8
Black
10
135.238
20
-104.005
11
135.095
21
-103.719
0
LINE
8
Black
10
135.095
20
-103.719
11
135.095
21
-103.576
0
LINE
8
Black
10
135.095
20
-103.576
11
135.238
21
-103.291
0
LINE
8
Black
10
135.238
20
-103.291
11
135.524
21
-103.148
0
LINE
8
Black
10
135.524
20
-103.148
11
135.952
21
-103.148
0
LINE
8
Black
10
135.952
20
-103.148
11
136.238
21
-103.291
0
LINE
8
Black
10
137.381
20
-106.291
11
137.524
21
-106.148
0
LINE
8
Black
10
137.524
20
-106.148
11
137.809
21
-105.719
0
LINE
8
Black
10
137.809
20
-105.719
11
137.952
21
-105.433
0
LINE
8
Black
10
137.952
20
-105.433
11
138.095
21
-105.005
0
LINE
8
Black
10
138.095
20
-105.005
11
138.238
21
-104.291
0
LINE
8
Black
10
138.238
20
-104.291
11
138.238
21
-103.719
0
LINE
8
Black
10
138.238
20
-103.719
11
138.095
21
-103.005
0
LINE
8
Black
10
138.095
20
-103.005
11
137.952
21
-102.576
0
LINE
8
Black
10
137.952
20
-102.576
11
137.809
21
-102.291
0
LINE
8
Black
10
137.809
20
-102.291
11
137.524
21
-101.862
0
LINE
8
Black
10
137.524
20
-101.862
11
137.381
21
-101.719
0
CIRCLE
8
Black
10
69.4095
20
-107.751
40
0.4
0
LINE
8
Black
10
73.0952
20
-106.108
11
73.3809
21
-106.108
0
LINE
8
Black
10
73.3809
20
-106.108
11
73.6666
21
-106.251
0
LINE
8
Black
10
73.6666
20
-106.251
11
73.8095
21
-106.393
0
LINE
8
Black
10
73.8095
20
-106.393
11
73.9524
21
-106.679
0
LINE
8
Black
10
73.9524
20
-106.679
11
74.0952
21
-107.251
0
LINE
8
Black
10
74.0952
20
-107.251
11
74.0952
21
-107.965
0
LINE
8
Black
10
74.0952
20
-107.965
11
73.9524
21
-108.536
0
LINE
8
Black
10
73.9524
20
-108.536
11
73.8095
21
-108.822
0
LINE
8
Black
10
73.8095
20
-108.822
11
73.6666
21
-108.965
0
LINE
8
Black
10
73.6666
20
-108.965
11
73.3809
21
-109.108
0
LINE
8
Black
10
73.3809
20
-109.108
11
73.0952
21
-109.108
0
LINE
8
Black
10
73.0952
20
-109.108
11
72.8095
21
-108.965
0
LINE
8
Black
10
72.8095
20
-108.965
11
72.6666
21
-108.822
0
LINE
8
Black
10
72.6666
20
-108.822
11
72.5238
21
-108.536
0
LINE
8
Black
10
72.5238
20
-108.536
11
72.3809
21
-107.965
0
LINE
8
Black
10
72.3809
20
-107.965
11
72.3809
21
-107.251
0
LINE
8
Black
10
72.3809
20
-107.251
11
72.5238
21
-106.679
0
LINE
8
Black
10
72.5238
20
-106.679
11
72.6666
21
-106.393
0
LINE
8
Black
10
72.6666
20
-106.393
11
72.8095
21
-106.251
0
LINE
8
Black
10
72.8095
20
-106.251
11
73.0952
21
-106.108
0
LINE
8
Black
10
75.3809
20
-108.822
11
75.5238
21
-108.965
0
LINE
8
Black
10
75.5238
20
-108.965
11
75.3809
21
-109.108
0
LINE
8
Black
10
75.3809
20
-109.108
11
75.2381
21
-108.965
0
LINE
8
Black
10
75.2381
20
-108.965
11
75.3809
21
-108.822
0
LINE
8
Black
10
75.3809
20
-108.822
11
75.3809
21
-109.108
0
LINE
8
Black
10
77.2381
20
-107.393
11
76.9524
21
-107.251
0
LINE
8
Black
10
76.9524
20
-107.251
11
76.8095
21
-107.108
0
LINE
8
Black
10
76.8095
20
-107.108
11
76.6666
21
-106.822
0
LINE
8
Black
10
76.6666
20
-106.822
11
76.6666
21
-106.679
0
LINE
8
Black
10
76.6666
20
-106.679
11
76.8095
21
-106.393
0
LINE
8
Black
10
76.8095
20
-106.393
11
76.9524
21
-106.251
0
LINE
8
Black
10
76.9524
20
-106.251
11
77.2381
21
-106.108
0
LINE
8
Black
10
77.2381
20
-106.108
11
77.8095
21
-106.108
0
LINE
8
Black
10
77.8095
20
-106.108
11
78.0952
21
-106.251
0
LINE
8
Black
10
78.0952
20
-106.251
11
78.2381
21
-106.393
0
LINE
8
Black
10
78.2381
20
-106.393
11
78.3809
21
-106.679
0
LINE
8
Black
10
78.3809
20
-106.679
11
78.3809
21
-106.822
0
LINE
8
Black
10
78.3809
20
-106.822
11
78.2381
21
-107.108
0
LINE
8
Black
10
78.2381
20
-107.108
11
78.0952
21
-107.251
0
LINE
8
Black
10
78.0952
20
-107.251
11
77.8095
21
-107.393
0
LINE
8
Black
10
77.8095
20
-107.393
11
77.2381
21
-107.393
0
LINE
8
Black
10
77.2381
20
-107.393
11
76.9524
21
-107.536
0
LINE
8
Black
10
76.9524
20
-107.536
11
76.8095
21
-107.679
0
LINE
8
Black
10
76.8095
20
-107.679
11
76.6666
21
-107.965
0
LINE
8
Black
10
76.6666
20
-107.965
11
76.6666
21
-108.536
0
LINE
8
Black
10
76.6666
20
-108.536
11
76.8095
21
-108.822
0
LINE
8
Black
10
76.8095
20
-108.822
11
76.9524
21
-108.965
0
LINE
8
Black
10
76.9524
20
-108.965
11
77.2381
21
-109.108
0
LINE
8
Black
10
77.2381
20
-109.108
11
77.8095
21
-109.108
0
LINE
8
Black
10
77.8095
20
-109.108
11
78.0952
21
-108.965
0
LINE
8
Black
10
78.0952
20
-108.965
11
78.2381
21
-108.822
0
LINE
8
Black
10
78.2381
20
-108.822
11
78.3809
21
-108.536
0
LINE
8
Black
10
78.3809
20
-108.536
11
78.3809
21
-107.965
0
LINE
8
Black
10
78.3809
20
-107.965
11
78.2381
21
-107.679
0
LINE
8
Black
10
78.2381
20
-107.679
11
78.0952
21
-107.536
0
LINE
8
Black
10
78.0952
20
-107.536
11
77.8095
21
-107.393
0
LINE
8
Black
10
80.2381
20
-106.108
11
80.5238
21
-106.108
0
LINE
8
Black
10
80.5238
20
-106.108
11
80.8095
21
-106.251
0
LINE
8
Black
10
80.8095
20
-106.251
11
80.9524
21
-106.393
0
LINE
8
Black
10
80.9524
20
-106.393
11
81.0952
21
-106.679
0
LINE
8
Black
10
81.0952
20
-106.679
11
81.2381
21
-107.251
0
LINE
8
Black
10
81.2381
20
-107.251
11
81.2381
21
-107.965
0
LINE
8
Black
10
81.2381
20
-107.965
11
81.0952
21
-108.536
0
LINE
8
Black
10
81.0952
20
-108.536
11
80.9524
21
-108.822
0
LINE
8
Black
10
80.9524
20
-108.822
11
80.8095
21
-108.965
0
LINE
8
Black
10
80.8095
20
-108.965
11
80.5238
21
-109.108
0
LINE
8
Black
10
80.5238
20
-109.108
11
80.2381
21
-109.108
0
LINE
8
Black
10
80.2381
20
-109.108
11
79.9524
21
-108.965
0
LINE
8
Black
10
79.9524
20
-108.965
11
79.8095
21
-108.822
0
LINE
8
Black
10
79.8095
20
-108.822
11
79.6666
21
-108.536
0
LINE
8
Black
10
79.6666
20
-108.536
11
79.5238
21
-107.965
0
LINE
8
Black
10
79.5238
20
-107.965
11
79.5238
21
-107.251
0
LINE
8
Black
10
79.5238
20
-107.251
11
79.6666
21
-106.679
0
LINE
8
Black
10
79.6666
20
-106.679
11
79.8095
21
-106.393
0
LINE
8
Black
10
79.8095
20
-106.393
11
79.9524
21
-106.251
0
LINE
8
Black
10
79.9524
20
-106.251
11
80.2381
21
-106.108
0
LINE
8
Black
10
82.5238
20
-109.108
11
82.5238
21
-107.108
0
LINE
8
Black
10
82.5238
20
-107.393
11
82.6666
21
-107.251
0
LINE
8
Black
10
82.6666
20
-107.251
11
82.9524
21
-107.108
0
LINE
8
Black
10
82.9524
20
-107.108
11
83.3809
21
-107.108
0
LINE
8
Black
10
83.3809
20
-107.108
11
83.6666
21
-107.251
0
LINE
8
Black
10
83.6666
20
-107.251
11
83.8095
21
-107.536
0
LINE
8
Black
10
83.8095
20
-107.536
11
83.8095
21
-109.108
0
LINE
8
Black
10
83.8095
20
-107.536
11
83.9524
21
-107.251
0
LINE
8
Black
10
83.9524
20
-107.251
11
84.2381
21
-107.108
0
LINE
8
Black
10
84.2381
20
-107.108
11
84.6666
21
-107.108
0
LINE
8
Black
10
84.6666
20
-107.108
11
84.9524
21
-107.251
0
LINE
8
Black
10
84.9524
20
-107.251
11
85.0952
21
-107.536
0
LINE
8
Black
10
85.0952
20
-107.536
11
85.0952
21
-109.108
0
LINE
8
Black
10
86.5238
20
-109.108
11
86.5238
21
-107.108
0
LINE
8
Black
10
86.5238
20
-107.393
11
86.6666
21
-107.251
0
LINE
8
Black
10
86.6666
20
-107.251
11
86.9524
21
-107.108
0
LINE
8
Black
10
86.9524
20
-107.108
11
87.3809
21
-107.108
0
LINE
8
Black
10
87.3809
20
-107.108
11
87.6666
21
-107.251
0
LINE
8
Black
10
87.6666
20
-107.251
11
87.8095
21
-107.536
0
LINE
8
Black
10
87.8095
20
-107.536
11
87.8095
21
-109.108
0
LINE
8
Black
10
87.8095
20
-107.536
11
87.9524
21
-107.251
0
LINE
8
Black
10
87.9524
20
-107.251
11
88.2381
21
-107.108
0
LINE
8
Black
10
88.2381
20
-107.108
11
88.6666
21
-107.108
0
LINE
8
Black
10
88.6666
20
-107.108
11
88.9524
21
-107.251
0
LINE
8
Black
10
88.9524
20
-107.251
11
89.0952
21
-107.536
0
LINE
8
Black
10
89.0952
20
-107.536
11
89.0952
21
-109.108
0
LINE
8
Black
10
94.9524
20
-105.965
11
92.3809
21
-109.822
0
LINE
8
Black
10
98.8095
20
-106.108
11
99.0952
21
-106.108
0
LINE
8
Black
10
99.0952
20
-106.108
11
99.3809
21
-106.251
0
LINE
8
Black
10
99.3809
20
-106.251
11
99.5238
21
-106.393
0
LINE
8
Black
10
99.5238
20
-106.393
11
99.6666
21
-106.679
0
LINE
8
Black
10
99.6666
20
-106.679
11
99.8095
21
-107.251
0
LINE
8
Black
10
99.8095
20
-107.251
11
99.8095
21
-107.965
0
LINE
8
Black
10
99.8095
20
-107.965
11
99.6666
21
-108.536
0
LINE
8
Black
10
99.6666
20
-108.536
11
99.5238
21
-108.822
0
LINE
8
Black
10
99.5238
20
-108.822
11
99.3809
21
-108.965
0
LINE
8
Black
10
99.3809
20
-108.965
11
99.0952
21
-109.108
0
LINE
8
Black
10
99.0952
20
-109.108
11
98.8095
21
-109.108
0
LINE
8
Black
10
98.8095
20
-109.108
11
98.5238
21
-108.965
0
LINE
8
Black
10
98.5238
20
-108.965
11
98.3809
21
-108.822
0
LINE
8
Black
10
98.3809
20
-108.822
11
98.2381
21
-108.536
0
LINE
8
Black
10
98.2381
20
-108.536
11
98.0952
21
-107.965
0
LINE
8
Black
10
98.0952
20
-107.965
11
98.0952
21
-107.251
0
LINE
8
Black
10
98.0952
20
-107.251
11
98.2381
21
-106.679
0
LINE
8
Black
10
98.2381
20
-106.679
11
98.3809
21
-106.393
0
LINE
8
Black
10
98.3809
20
-106.393
11
98.5238
21
-106.251
0
LINE
8
Black
10
98.5238
20
-106.251
11
98.8095
21
-106.108
0
LINE
8
Black
10
101.095
20
-108.822
11
101.238
21
-108.965
0
LINE
8
Black
10
101.238
20
-108.965
11
101.095
21
-109.108
0
LINE
8
Black
10
101.095
20
-109.108
11
100.952
21
-108.965
0
LINE
8
Black
10
100.952
20
-108.965
11
101.095
21
-108.822
0
LINE
8
Black
10
101.095
20
-108.822
11
101.095
21
-109.108
0
LINE
8
Black
10
103.095
20
-106.108
11
103.381
21
-106.108
0
LINE
8
Black
10
103.381
20
-106.108
11
103.667
21
-106.251
0
LINE
8
Black
10
103.667
20
-106.251
11
103.809
21
-106.393
0
LINE
8
Black
10
103.809
20
-106.393
11
103.952
21
-106.679
0
LINE
8
Black
10
103.952
20
-106.679
11
104.095
21
-107.251
0
LINE
8
Black
10
104.095
20
-107.251
11
104.095
21
-107.965
0
LINE
8
Black
10
104.095
20
-107.965
11
103.952
21
-108.536
0
LINE
8
Black
10
103.952
20
-108.536
11
103.809
21
-108.822
0
LINE
8
Black
10
103.809
20
-108.822
11
103.667
21
-108.965
0
LINE
8
Black
10
103.667
20
-108.965
11
103.381
21
-109.108
0
LINE
8
Black
10
103.381
20
-109.108
11
103.095
21
-109.108
0
LINE
8
Black
10
103.095
20
-109.108
11
102.809
21
-108.965
0
LINE
8
Black
10
102.809
20
-108.965
11
102.667
21
-108.822
0
LINE
8
Black
10
102.667
20
-108.822
11
102.524
21
-108.536
0
LINE
8
Black
10
102.524
20
-108.536
11
102.381
21
-107.965
0
LINE
8
Black
10
102.381
20
-107.965
11
102.381
21
-107.251
0
LINE
8
Black
10
102.381
20
-107.251
11
102.524
21
-106.679
0
LINE
8
Black
10
102.524
20
-106.679
11
102.667
21
-106.393
0
LINE
8
Black
10
102.667
20
-106.393
11
102.809
21
-106.251
0
LINE
8
Black
10
102.809
20
-106.251
11
103.095
21
-106.108
0
LINE
8
Black
10
105.095
20
-106.108
11
106.952
21
-106.108
0
LINE
8
Black
10
106.952
20
-106.108
11
105.952
21
-107.251
0
LINE
8
Black
10
105.952
20
-107.251
11
106.381
21
-107.251
0
LINE
8
Black
10
106.381
20
-107.251
11
106.667
21
-107.393
0
LINE
8
Black
10
106.667
20
-107.393
11
106.809
21
-107.536
0
LINE
8
Black
10
106.809
20
-107.536
11
106.952
21
-107.822
0
LINE
8
Black
10
106.952
20
-107.822
11
106.952
21
-108.536
0
LINE
8
Black
10
106.952
20
-108.536
11
106.809
21
-108.822
0
LINE
8
Black
10
106.809
20
-108.822
11
106.667
21
-108.965
0
LINE
8
Black
10
106.667
20
-108.965
11
106.381
21
-109.108
0
LINE
8
Black
10
106.381
20
-109.108
11
105.524
21
-109.108
0
LINE
8
Black
10
105.524
20
-109.108
11
105.238
21
-108.965
0
LINE
8
Black
10
105.238
20
-108.965
11
105.095
21
-108.822
0
LINE
8
Black
10
109.809
20
-109.108
11
108.095
21
-109.108
0
LINE
8
Black
10
108.952
20
-109.108
11
108.952
21
-106.108
0
LINE
8
Black
10
108.952
20
-106.108
11
108.667
21
-106.536
0
LINE
8
Black
10
108.667
20
-106.536
11
108.381
21
-106.822
0
LINE
8
Black
10
108.381
20
-106.822
11
108.095
21
-106.965
0
LINE
8
Black
10
110.952
20
-106.108
11
110.952
21
-106.679
0
LINE
8
Black
10
112.095
20
-106.108
11
112.095
21
-106.679
0
LINE
8
Black
10
116.524
20
-110.251
11
116.381
21
-110.108
0
LINE
8
Black
10
116.381
20
-110.108
11
116.095
21
-109.679
0
LINE
8
Black
10
116.095
20
-109.679
11
115.952
21
-109.393
0
LINE
8
Black
10
115.952
20
-109.393
11
115.809
21
-108.965
0
LINE
8
Black
10
115.809
20
-108.965
11
115.667
21
-108.251
0
LINE
8
Black
10
115.667
20
-108.251
11
115.667
21
-107.679
0
LINE
8
Black
10
115.667
20
-107.679
11
115.809
21
-106.965
0
LINE
8
Black
10
115.809
20
-106.965
11
115.952
21
-106.536
0
LINE
8
Black
10
115.952
20
-106.536
11
116.095
21
-106.251
0
LINE
8
Black
10
116.095
20
-106.251
11
116.381
21
-105.822
0
LINE
8
Black
10
116.381
20
-105.822
11
116.524
21
-105.679
0
LINE
8
Black
10
117.524
20
-106.393
11
117.667
21
-106.251
0
LINE
8
Black
10
117.667
20
-106.251
11
117.952
21
-106.108
0
LINE
8
Black
10
117.952
20
-106.108
11
118.667
21
-106.108
0
LINE
8
Black
10
118.667
20
-106.108
11
118.952
21
-106.251
0
LINE
8
Black
10
118.952
20
-106.251
11
119.095
21
-106.393
0
LINE
8
Black
10
119.095
20
-106.393
11
119.238
21
-106.679
0
LINE
8
Black
10
119.238
20
-106.679
11
119.238
21
-106.965
0
LINE
8
Black
10
119.238
20
-106.965
11
119.095
21
-107.393
0
LINE
8
Black
10
119.095
20
-107.393
11
117.381
21
-109.108
0
LINE
8
Black
10
117.381
20
-109.108
11
119.238
21
-109.108
0
LINE
8
Black
10
121.809
20
-107.108
11
121.809
21
-109.108
0
LINE
8
Black
10
121.095
20
-105.965
11
120.381
21
-108.108
0
LINE
8
Black
10
120.381
20
-108.108
11
122.238
21
-108.108
0
LINE
8
Black
10
125.667
20
-109.108
11
125.667
21
-106.108
0
LINE
8
Black
10
126.952
20
-109.108
11
126.952
21
-107.536
0
LINE
8
Black
10
126.952
20
-107.536
11
126.809
21
-107.251
0
LINE
8
Black
10
126.809
20
-107.251
11
126.524
21
-107.108
0
LINE
8
Black
10
126.524
20
-107.108
11
126.095
21
-107.108
0
LINE
8
Black
10
126.095
20
-107.108
11
125.809
21
-107.251
0
LINE
8
Black
10
125.809
20
-107.251
11
125.667
21
-107.393
0
LINE
8
Black
10
128.809
20
-109.108
11
128.524
21
-108.965
0
LINE
8
Black
10
128.524
20
-108.965
11
128.381
21
-108.822
0
LINE
8
Black
10
128.381
20
-108.822
11
128.238
21
-108.536
0
LINE
8
Black
10
128.238
20
-108.536
11
128.238
21
-107.679
0
LINE
8
Black
10
128.238
20
-107.679
11
128.381
21
-107.393
0
LINE
8
Black
10
128.381
20
-107.393
11
128.524
21
-107.251
0
LINE
8
Black
10
128.524
20
-107.251
11
128.809
21
-107.108
0
LINE
8
Black
10
128.809
20
-107.108
11
129.238
21
-107.108
0
LINE
8
Black
10
129.238
20
-107.108
11
129.524
21
-107.251
0
LINE
8
Black
10
129.524
20
-107.251
11
129.667
21
-107.393
0
LINE
8
Black
10
129.667
20
-107.393
11
129.809
21
-107.679
0
LINE
8
Black
10
129.809
20
-107.679
11
129.809
21
-108.536
0
LINE
8
Black
10
129.809
20
-108.536
11
129.667
21
-108.822
0
LINE
8
Black
10
129.667
20
-108.822
11
129.524
21
-108.965
0
LINE
8
Black
10
129.524
20
-108.965
11
129.238
21
-109.108
0
LINE
8
Black
10
129.238
20
-109.108
11
128.809
21
-109.108
0
LINE
8
Black
10
131.524
20
-109.108
11
131.238
21
-108.965
0
LINE
8
Black
10
131.238
20
-108.965
11
131.095
21
-108.679
0
LINE
8
Black
10
131.095
20
-108.679
11
131.095
21
-106.108
0
LINE
8
Black
10
133.809
20
-108.965
11
133.524
21
-109.108
0
LINE
8
Black
10
133.524
20
-109.108
11
132.952
21
-109.108
0
LINE
8
Black
10
132.952
20
-109.108
11
132.667
21
-108.965
0
LINE
8
Black
10
132.667
20
-108.965
11
132.524
21
-108.679
0
LINE
8
Black
10
132.524
20
-108.679
11
132.524
21
-107.536
0
LINE
8
Black
10
132.524
20
-107.536
11
132.667
21
-107.251
0
LINE
8
Black
10
132.667
20
-107.251
11
132.952
21
-107.108
0
LINE
8
Black
10
132.952
20
-107.108
11
133.524
21
-107.108
0
LINE
8
Black
10
133.524
20
-107.108
11
133.809
21
-107.251
0
LINE
8
Black
10
133.809
20
-107.251
11
133.952
21
-107.536
0
LINE
8
Black
10
133.952
20
-107.536
11
133.952
21
-107.822
0
LINE
8
Black
10
133.952
20
-107.822
11
132.524
21
-108.108
0
LINE
8
Black
10
135.095
20
-108.965
11
135.381
21
-109.108
0
LINE
8
Black
10
135.381
20
-109.108
11
135.952
21
-109.108
0
LINE
8
Black
10
135.952
20
-109.108
11
136.238
21
-108.965
0
LINE
8
Black
10
136.238
20
-108.965
11
136.381
21
-108.679
0
LINE
8
Black
10
136.381
20
-108.679
11
136.381
21
-108.536
0
LINE
8
Black
10
136.381
20
-108.536
11
136.238
21
-108.251
0
LINE
8
Black
10
136.238
20
-108.251
11
135.952
21
-108.108
0
LINE
8
Black
10
135.952
20
-108.108
11
135.524
21
-108.108
0
LINE
8
Black
10
135.524
20
-108.108
11
135.238
21
-107.965
0
LINE
8
Black
10
135.238
20
-107.965
11
135.095
21
-107.679
0
LINE
8
Black
10
135.095
20
-107.679
11
135.095
21
-107.536
0
LINE
8
Black
10
135.095
20
-107.536
11
135.238
21
-107.251
0
LINE
8
Black
10
135.238
20
-107.251
11
135.524
21
-107.108
0
LINE
8
Black
10
135.524
20
-107.108
11
135.952
21
-107.108
0
LINE
8
Black
10
135.952
20
-107.108
11
136.238
21
-107.251
0
LINE
8
Black
10
137.381
20
-110.251
11
137.524
21
-110.108
0
LINE
8
Black
10
137.524
20
-110.108
11
137.809
21
-109.679
0
LINE
8
Black
10
137.809
20
-109.679
11
137.952
21
-109.393
0
LINE
8
Black
10
137.952
20
-109.393
11
138.095
21
-108.965
0
LINE
8
Black
10
138.095
20
-108.965
11
138.238
21
-108.251
0
LINE
8
Black
10
138.238
20
-108.251
11
138.238
21
-107.679
0
LINE
8
Black
10
138.238
20
-107.679
11
138.095
21
-106.965
0
LINE
8
Black
10
138.095
20
-106.965
11
137.952
21
-106.536
0
LINE
8
Black
10
137.952
20
-106.536
11
137.809
21
-106.251
0
LINE
8
Black
10
137.809
20
-106.251
11
137.524
21
-105.822
0
LINE
8
Black
10
137.524
20
-105.822
11
137.381
21
-105.679
0
LINE
8
Black
10
69.3095
20
-111.211
11
69.3095
21
-112.211
0
LINE
8
Black
10
68.8095
20
-111.711
11
69.8095
21
-111.711
0
LINE
8
Black
10
74.0952
20
-113.068
11
72.3809
21
-113.068
0
LINE
8
Black
10
73.2381
20
-113.068
11
73.2381
21
-110.068
0
LINE
8
Black
10
73.2381
20
-110.068
11
72.9524
21
-110.496
0
LINE
8
Black
10
72.9524
20
-110.496
11
72.6666
21
-110.782
0
LINE
8
Black
10
72.6666
20
-110.782
11
72.3809
21
-110.925
0
LINE
8
Black
10
75.3809
20
-112.782
11
75.5238
21
-112.925
0
LINE
8
Black
10
75.5238
20
-112.925
11
75.3809
21
-113.068
0
LINE
8
Black
10
75.3809
20
-113.068
11
75.2381
21
-112.925
0
LINE
8
Black
10
75.2381
20
-112.925
11
75.3809
21
-112.782
0
LINE
8
Black
10
75.3809
20
-112.782
11
75.3809
21
-113.068
0
LINE
8
Black
10
77.3809
20
-110.068
11
77.6666
21
-110.068
0
LINE
8
Black
10
77.6666
20
-110.068
11
77.9524
21
-110.211
0
LINE
8
Black
10
77.9524
20
-110.211
11
78.0952
21
-110.353
0
LINE
8
Black
10
78.0952
20
-110.353
11
78.2381
21
-110.639
0
LINE
8
Black
10
78.2381
20
-110.639
11
78.3809
21
-111.211
0
LINE
8
Black
10
78.3809
20
-111.211
11
78.3809
21
-111.925
0
LINE
8
Black
10
78.3809
20
-111.925
11
78.2381
21
-112.496
0
LINE
8
Black
10
78.2381
20
-112.496
11
78.0952
21
-112.782
0
LINE
8
Black
10
78.0952
20
-112.782
11
77.9524
21
-112.925
0
LINE
8
Black
10
77.9524
20
-112.925
11
77.6666
21
-113.068
0
LINE
8
Black
10
77.6666
20
-113.068
11
77.3809
21
-113.068
0
LINE
8
Black
10
77.3809
20
-113.068
11
77.0952
21
-112.925
0
LINE
8
Black
10
77.0952
20
-112.925
11
76.9524
21
-112.782
0
LINE
8
Black
10
76.9524
20
-112.782
11
76.8095
21
-112.496
0
LINE
8
Black
10
76.8095
20
-112.496
11
76.6666
21
-111.925
0
LINE
8
Black
10
76.6666
20
-111.925
11
76.6666
21
-111.211
0
LINE
8
Black
10
76.6666
20
-111.211
11
76.8095
21
-110.639
0
LINE
8
Black
10
76.8095
20
-110.639
11
76.9524
21
-110.353
0
LINE
8
Black
10
76.9524
20
-110.353
11
77.0952
21
-110.211
0
LINE
8
Black
10
77.0952
20
-110.211
11
77.3809
21
-110.068
0
LINE
8
Black
10
80.2381
20
-110.068
11
80.5238
21
-110.068
0
LINE
8
Black
10
80.5238
20
-110.068
11
80.8095
21
-110.211
0
LINE
8
Black
10
80.8095
20
-110.211
11
80.9524
21
-110.353
0
LINE
8
Black
10
80.9524
20
-110.353
11
81.0952
21
-110.639
0
LINE
8
Black
10
81.0952
20
-110.639
11
81.2381
21
-111.211
0
LINE
8
Black
10
81.2381
20
-111.211
11
81.2381
21
-111.925
0
LINE
8
Black
10
81.2381
20
-111.925
11
81.0952
21
-112.496
0
LINE
8
Black
10
81.0952
20
-112.496
11
80.9524
21
-112.782
0
LINE
8
Black
10
80.9524
20
-112.782
11
80.8095
21
-112.925
0
LINE
8
Black
10
80.8095
20
-112.925
11
80.5238
21
-113.068
0
LINE
8
Black
10
80.5238
20
-113.068
11
80.2381
21
-113.068
0
LINE
8
Black
10
80.2381
20
-113.068
11
79.9524
21
-112.925
0
LINE
8
Black
10
79.9524
20
-112.925
11
79.8095
21
-112.782
0
LINE
8
Black
10
79.8095
20
-112.782
11
79.6666
21
-112.496
0
LINE
8
Black
10
79.6666
20
-112.496
11
79.5238
21
-111.925
0
LINE
8
Black
10
79.5238
20
-111.925
11
79.5238
21
-111.211
0
LINE
8
Black
10
79.5238
20
-111.211
11
79.6666
21
-110.639
0
LINE
8
Black
10
79.6666
20
-110.639
11
79.8095
21
-110.353
0
LINE
8
Black
10
79.8095
20
-110.353
11
79.9524
21
-110.211
0
LINE
8
Black
10
79.9524
20
-110.211
11
80.2381
21
-110.068
0
LINE
8
Black
10
82.5238
20
-113.068
11
82.5238
21
-111.068
0
LINE
8
Black
10
82.5238
20
-111.353
11
82.6666
21
-111.211
0
LINE
8
Black
10
82.6666
20
-111.211
11
82.9524
21
-111.068
0
LINE
8
Black
10
82.9524
20
-111.068
11
83.3809
21
-111.068
0
LINE
8
Black
10
83.3809
20
-111.068
11
83.6666
21
-111.211
0
LINE
8
Black
10
83.6666
20
-111.211
11
83.8095
21
-111.496
0
LINE
8
Black
10
83.8095
20
-111.496
11
83.8095
21
-113.068
0
LINE
8
Black
10
83.8095
20
-111.496
11
83.9524
21
-111.211
0
LINE
8
Black
10
83.9524
20
-111.211
11
84.2381
21
-111.068
0
LINE
8
Black
10
84.2381
20
-111.068
11
84.6666
21
-111.068
0
LINE
8
Black
10
84.6666
20
-111.068
11
84.9524
21
-111.211
0
LINE
8
Black
10
84.9524
20
-111.211
11
85.0952
21
-111.496
0
LINE
8
Black
10
85.0952
20
-111.496
11
85.0952
21
-113.068
0
LINE
8
Black
10
86.5238
20
-113.068
11
86.5238
21
-111.068
0
LINE
8
Black
10
86.5238
20
-111.353
11
86.6666
21
-111.211
0
LINE
8
Black
10
86.6666
20
-111.211
11
86.9524
21
-111.068
0
LINE
8
Black
10
86.9524
20
-111.068
11
87.3809
21
-111.068
0
LINE
8
Black
10
87.3809
20
-111.068
11
87.6666
21
-111.211
0
LINE
8
Black
10
87.6666
20
-111.211
11
87.8095
21
-111.496
0
LINE
8
Black
10
87.8095
20
-111.496
11
87.8095
21
-113.068
0
LINE
8
Black
10
87.8095
20
-111.496
11
87.9524
21
-111.211
0
LINE
8
Black
10
87.9524
20
-111.211
11
88.2381
21
-111.068
0
LINE
8
Black
10
88.2381
20
-111.068
11
88.6666
21
-111.068
0
LINE
8
Black
10
88.6666
20
-111.068
11
88.9524
21
-111.211
0
LINE
8
Black
10
88.9524
20
-111.211
11
89.0952
21
-111.496
0
LINE
8
Black
10
89.0952
20
-111.496
11
89.0952
21
-113.068
0
LINE
8
Black
10
94.9524
20
-109.925
11
92.3809
21
-113.782
0
LINE
8
Black
10
98.8095
20
-110.068
11
99.0952
21
-110.068
0
LINE
8
Black
10
99.0952
20
-110.068
11
99.3809
21
-110.211
0
LINE
8
Black
10
99.3809
20
-110.211
11
99.5238
21
-110.353
0
LINE
8
Black
10
99.5238
20
-110.353
11
99.6666
21
-110.639
0
LINE
8
Black
10
99.6666
20
-110.639
11
99.8095
21
-111.211
0
LINE
8
Black
10
99.8095
20
-111.211
11
99.8095
21
-111.925
0
LINE
8
Black
10
99.8095
20
-111.925
11
99.6666
21
-112.496
0
LINE
8
Black
10
99.6666
20
-112.496
11
99.5238
21
-112.782
0
LINE
8
Black
10
99.5238
20
-112.782
11
99.3809
21
-112.925
0
LINE
8
Black
10
99.3809
20
-112.925
11
99.0952
21
-113.068
0
LINE
8
Black
10
99.0952
20
-113.068
11
98.8095
21
-113.068
0
LINE
8
Black
10
98.8095
20
-113.068
11
98.5238
21
-112.925
0
LINE
8
Black
10
98.5238
20
-112.925
11
98.3809
21
-112.782
0
LINE
8
Black
10
98.3809
20
-112.782
11
98.2381
21
-112.496
0
LINE
8
Black
10
98.2381
20
-112.496
11
98.0952
21
-111.925
0
LINE
8
Black
10
98.0952
20
-111.925
11
98.0952
21
-111.211
0
LINE
8
Black
10
98.0952
20
-111.211
11
98.2381
21
-110.639
0
LINE
8
Black
10
98.2381
20
-110.639
11
98.3809
21
-110.353
0
LINE
8
Black
10
98.3809
20
-110.353
11
98.5238
21
-110.211
0
LINE
8
Black
10
98.5238
20
-110.211
11
98.8095
21
-110.068
0
LINE
8
Black
10
101.095
20
-112.782
11
101.238
21
-112.925
0
LINE
8
Black
10
101.238
20
-112.925
11
101.095
21
-113.068
0
LINE
8
Black
10
101.095
20
-113.068
11
100.952
21
-112.925
0
LINE
8
Black
10
100.952
20
-112.925
11
101.095
21
-112.782
0
LINE
8
Black
10
101.095
20
-112.782
11
101.095
21
-113.068
0
LINE
8
Black
10
103.095
20
-110.068
11
103.381
21
-110.068
0
LINE
8
Black
10
103.381
20
-110.068
11
103.667
21
-110.211
0
LINE
8
Black
10
103.667
20
-110.211
11
103.809
21
-110.353
0
LINE
8
Black
10
103.809
20
-110.353
11
103.952
21
-110.639
0
LINE
8
Black
10
103.952
20
-110.639
11
104.095
21
-111.211
0
LINE
8
Black
10
104.095
20
-111.211
11
104.095
21
-111.925
0
LINE
8
Black
10
104.095
20
-111.925
11
103.952
21
-112.496
0
LINE
8
Black
10
103.952
20
-112.496
11
103.809
21
-112.782
0
LINE
8
Black
10
103.809
20
-112.782
11
103.667
21
-112.925
0
LINE
8
Black
10
103.667
20
-112.925
11
103.381
21
-113.068
0
LINE
8
Black
10
103.381
20
-113.068
11
103.095
21
-113.068
0
LINE
8
Black
10
103.095
20
-113.068
11
102.809
21
-112.925
0
LINE
8
Black
10
102.809
20
-112.925
11
102.667
21
-112.782
0
LINE
8
Black
10
102.667
20
-112.782
11
102.524
21
-112.496
0
LINE
8
Black
10
102.524
20
-112.496
11
102.381
21
-111.925
0
LINE
8
Black
10
102.381
20
-111.925
11
102.381
21
-111.211
0
LINE
8
Black
10
102.381
20
-111.211
11
102.524
21
-110.639
0
LINE
8
Black
10
102.524
20
-110.639
11
102.667
21
-110.353
0
LINE
8
Black
10
102.667
20
-110.353
11
102.809
21
-110.211
0
LINE
8
Black
10
102.809
20
-110.211
11
103.095
21
-110.068
0
LINE
8
Black
10
105.095
20
-110.068
11
106.952
21
-110.068
0
LINE
8
Black
10
106.952
20
-110.068
11
105.952
21
-111.211
0
LINE
8
Black
10
105.952
20
-111.211
11
106.381
21
-111.211
0
LINE
8
Black
10
106.381
20
-111.211
11
106.667
21
-111.353
0
LINE
8
Black
10
106.667
20
-111.353
11
106.809
21
-111.496
0
LINE
8
Black
10
106.809
20
-111.496
11
106.952
21
-111.782
0
LINE
8
Black
10
106.952
20
-111.782
11
106.952
21
-112.496
0
LINE
8
Black
10
106.952
20
-112.496
11
106.809
21
-112.782
0
LINE
8
Black
10
106.809
20
-112.782
11
106.667
21
-112.925
0
LINE
8
Black
10
106.667
20
-112.925
11
106.381
21
-113.068
0
LINE
8
Black
10
106.381
20
-113.068
11
105.524
21
-113.068
0
LINE
8
Black
10
105.524
20
-113.068
11
105.238
21
-112.925
0
LINE
8
Black
10
105.238
20
-112.925
11
105.095
21
-112.782
0
LINE
8
Black
10
108.381
20
-113.068
11
108.952
21
-113.068
0
LINE
8
Black
10
108.952
20
-113.068
11
109.238
21
-112.925
0
LINE
8
Black
10
109.238
20
-112.925
11
109.381
21
-112.782
0
LINE
8
Black
10
109.381
20
-112.782
11
109.667
21
-112.353
0
LINE
8
Black
10
109.667
20
-112.353
11
109.809
21
-111.782
0
LINE
8
Black
10
109.809
20
-111.782
11
109.809
21
-110.639
0
LINE
8
Black
10
109.809
20
-110.639
11
109.667
21
-110.353
0
LINE
8
Black
10
109.667
20
-110.353
11
109.524
21
-110.211
0
LINE
8
Black
10
109.524
20
-110.211
11
109.238
21
-110.068
0
LINE
8
Black
10
109.238
20
-110.068
11
108.667
21
-110.068
0
LINE
8
Black
10
108.667
20
-110.068
11
108.381
21
-110.211
0
LINE
8
Black
10
108.381
20
-110.211
11
108.238
21
-110.353
0
LINE
8
Black
10
108.238
20
-110.353
11
108.095
21
-110.639
0
LINE
8
Black
10
108.095
20
-110.639
11
108.095
21
-111.353
0
LINE
8
Black
10
108.095
20
-111.353
11
108.238
21
-111.639
0
LINE
8
Black
10
108.238
20
-111.639
11
108.381
21
-111.782
0
LINE
8
Black
10
108.381
20
-111.782
11
108.667
21
-111.925
0
LINE
8
Black
10
108.667
20
-111.925
11
109.238
21
-111.925
0
LINE
8
Black
10
109.238
20
-111.925
11
109.524
21
-111.782
0
LINE
8
Black
10
109.524
20
-111.782
11
109.667
21
-111.639
0
LINE
8
Black
10
109.667
20
-111.639
11
109.809
21
-111.353
0
LINE
8
Black
10
110.952
20
-110.068
11
110.952
21
-110.639
0
LINE
8
Black
10
112.095
20
-110.068
11
112.095
21
-110.639
0
LINE
8
Black
10
116.524
20
-114.211
11
116.381
21
-114.068
0
LINE
8
Black
10
116.381
20
-114.068
11
116.095
21
-113.639
0
LINE
8
Black
10
116.095
20
-113.639
11
115.952
21
-113.353
0
LINE
8
Black
10
115.952
20
-113.353
11
115.809
21
-112.925
0
LINE
8
Black
10
115.809
20
-112.925
11
115.667
21
-112.211
0
LINE
8
Black
10
115.667
20
-112.211
11
115.667
21
-111.639
0
LINE
8
Black
10
115.667
20
-111.639
11
115.809
21
-110.925
0
LINE
8
Black
10
115.809
20
-110.925
11
115.952
21
-110.496
0
LINE
8
Black
10
115.952
20
-110.496
11
116.095
21
-110.211
0
LINE
8
Black
10
116.095
20
-110.211
11
116.381
21
-109.782
0
LINE
8
Black
10
116.381
20
-109.782
11
116.524
21
-109.639
0
LINE
8
Black
10
119.238
20
-113.068
11
117.524
21
-113.068
0
LINE
8
Black
10
118.381
20
-113.068
11
118.381
21
-110.068
0
LINE
8
Black
10
118.381
20
-110.068
11
118.095
21
-110.496
0
LINE
8
Black
10
118.095
20
-110.496
11
117.809
21
-110.782
0
LINE
8
Black
10
117.809
20
-110.782
11
117.524
21
-110.925
0
LINE
8
Black
10
121.809
20
-111.068
11
121.809
21
-113.068
0
LINE
8
Black
10
121.095
20
-109.925
11
120.381
21
-112.068
0
LINE
8
Black
10
120.381
20
-112.068
11
122.238
21
-112.068
0
LINE
8
Black
10
125.667
20
-113.068
11
125.667
21
-110.068
0
LINE
8
Black
10
126.952
20
-113.068
11
126.952
21
-111.496
0
LINE
8
Black
10
126.952
20
-111.496
11
126.809
21
-111.211
0
LINE
8
Black
10
126.809
20
-111.211
11
126.524
21
-111.068
0
LINE
8
Black
10
126.524
20
-111.068
11
126.095
21
-111.068
0
LINE
8
Black
10
126.095
20
-111.068
11
125.809
21
-111.211
0
LINE
8
Black
10
125.809
20
-111.211
11
125.667
21
-111.353
0
LINE
8
Black
10
128.809
20
-113.068
11
128.524
21
-112.925
0
LINE
8
Black
10
128.524
20
-112.925
11
128.381
21
-112.782
0
LINE
8
Black
10
128.381
20
-112.782
11
128.238
21
-112.496
0
LINE
8
Black
10
128.238
20
-112.496
11
128.238
21
-111.639
0
LINE
8
Black
10
128.238
20
-111.639
11
128.381
21
-111.353
0
LINE
8
Black
10
128.381
20
-111.353
11
128.524
21
-111.211
0
LINE
8
Black
10
128.524
20
-111.211
11
128.809
21
-111.068
0
LINE
8
Black
10
128.809
20
-111.068
11
129.238
21
-111.068
0
LINE
8
Black
10
129.238
20
-111.068
11
129.524
21
-111.211
0
LINE
8
Black
10
129.524
20
-111.211
11
129.667
21
-111.353
0
LINE
8
Black
10
129.667
20
-111.353
11
129.809
21
-111.639
0
LINE
8
Black
10
129.809
20
-111.639
11
129.809
21
-112.496
0
LINE
8
Black
10
129.809
20
-112.496
11
129.667
21
-112.782
0
LINE
8
Black
10
129.667
20
-112.782
11
129.524
21
-112.925
0
LINE
8
Black
10
129.524
20
-112.925
11
129.238
21
-113.068
0
LINE
8
Black
10
129.238
20
-113.068
11
128.809
21
-113.068
0
LINE
8
Black
10
131.524
20
-113.068
11
131.238
21
-112.925
0
LINE
8
Black
10
131.238
20
-112.925
11
131.095
21
-112.639
0
LINE
8
Black
10
131.095
20
-112.639
11
131.095
21
-110.068
0
LINE
8
Black
10
133.809
20
-112.925
11
133.524
21
-113.068
0
LINE
8
Black
10
133.524
20
-113.068
11
132.952
21
-113.068
0
LINE
8
Black
10
132.952
20
-113.068
11
132.667
21
-112.925
0
LINE
8
Black
10
132.667
20
-112.925
11
132.524
21
-112.639
0
LINE
8
Black
10
132.524
20
-112.639
11
132.524
21
-111.496
0
LINE
8
Black
10
132.524
20
-111.496
11
132.667
21
-111.211
0
LINE
8
Black
10
132.667
20
-111.211
11
132.952
21
-111.068
0
LINE
8
Black
10
132.952
20
-111.068
11
133.524
21
-111.068
0
LINE
8
Black
10
133.524
20
-111.068
11
133.809
21
-111.211
0
LINE
8
Black
10
133.809
20
-111.211
11
133.952
21
-111.496
0
LINE
8
Black
10
133.952
20
-111.496
11
133.952
21
-111.782
0
LINE
8
Black
10
133.952
20
-111.782
11
132.524
21
-112.068
0
LINE
8
Black
10
135.095
20
-112.925
11
135.381
21
-113.068
0
LINE
8
Black
10
135.381
20
-113.068
11
135.952
21
-113.068
0
LINE
8
Black
10
135.952
20
-113.068
11
136.238
21
-112.925
0
LINE
8
Black
10
136.238
20
-112.925
11
136.381
21
-112.639
0
LINE
8
Black
10
136.381
20
-112.639
11
136.381
21
-112.496
0
LINE
8
Black
10
136.381
20
-112.496
11
136.238
21
-112.211
0
LINE
8
Black
10
136.238
20
-112.211
11
135.952
21
-112.068
0
LINE
8
Black
10
135.952
20
-112.068
11
135.524
21
-112.068
0
LINE
8
Black
10
135.524
20
-112.068
11
135.238
21
-111.925
0
LINE
8
Black
10
135.238
20
-111.925
11
135.095
21
-111.639
0
LINE
8
Black
10
135.095
20
-111.639
11
135.095
21
-111.496
0
LINE
8
Black
10
135.095
20
-111.496
11
135.238
21
-111.211
0
LINE
8
Black
10
135.238
20
-111.211
11
135.524
21
-111.068
0
LINE
8
Black
10
135.524
20
-111.068
11
135.952
21
-111.068
0
LINE
8
Black
10
135.952
20
-111.068
11
136.238
21
-111.211
0
LINE
8
Black
10
137.381
20
-114.211
11
137.524
21
-114.068
0
LINE
8
Black
10
137.524
20
-114.068
11
137.809
21
-113.639
0
LINE
8
Black
10
137.809
20
-113.639
11
137.952
21
-113.353
0
LINE
8
Black
10
137.952
20
-113.353
11
138.095
21
-112.925
0
LINE
8
Black
10
138.095
20
-112.925
11
138.238
21
-112.211
0
LINE
8
Black
10
138.238
20
-112.211
11
138.238
21
-111.639
0
LINE
8
Black
10
138.238
20
-111.639
11
138.095
21
-110.925
0
LINE
8
Black
10
138.095
20
-110.925
11
137.952
21
-110.496
0
LINE
8
Black
10
137.952
20
-110.496
11
137.809
21
-110.211
0
LINE
8
Black
10
137.809
20
-110.211
11
137.524
21
-109.782
0
LINE
8
Black
10
137.524
20
-109.782
11
137.381
21
-109.639
0
LINE
8
Black
10
69.3445
20
-116.793
11
69.3445
21
-114.548
0
LINE
8
Black
10
69.3445
20
-114.548
11
67.0995
21
-114.548
0
LINE
8
Black
10
67.0995
20
-114.548
11
67.0995
21
-116.793
0
LINE
8
Black
10
67.0995
20
-116.793
11
69.3445
21
-116.793
0
LINE
8
Black
10
72.2381
20
-114.028
11
74.0952
21
-114.028
0
LINE
8
Black
10
74.0952
20
-114.028
11
73.0952
21
-115.171
0
LINE
8
Black
10
73.0952
20
-115.171
11
73.5238
21
-115.171
0
LINE
8
Black
10
73.5238
20
-115.171
11
73.8095
21
-115.313
0
LINE
8
Black
10
73.8095
20
-115.313
11
73.9524
21
-115.456
0
LINE
8
Black
10
73.9524
20
-115.456
11
74.0952
21
-115.742
0
LINE
8
Black
10
74.0952
20
-115.742
11
74.0952
21
-116.456
0
LINE
8
Black
10
74.0952
20
-116.456
11
73.9524
21
-116.742
0
LINE
8
Black
10
73.9524
20
-116.742
11
73.8095
21
-116.885
0
LINE
8
Black
10
73.8095
20
-116.885
11
73.5238
21
-117.028
0
LINE
8
Black
10
73.5238
20
-117.028
11
72.6666
21
-117.028
0
LINE
8
Black
10
72.6666
20
-117.028
11
72.3809
21
-116.885
0
LINE
8
Black
10
72.3809
20
-116.885
11
72.2381
21
-116.742
0
LINE
8
Black
10
75.3809
20
-116.742
11
75.5238
21
-116.885
0
LINE
8
Black
10
75.5238
20
-116.885
11
75.3809
21
-117.028
0
LINE
8
Black
10
75.3809
20
-117.028
11
75.2381
21
-116.885
0
LINE
8
Black
10
75.2381
20
-116.885
11
75.3809
21
-116.742
0
LINE
8
Black
10
75.3809
20
-116.742
11
75.3809
21
-117.028
0
LINE
8
Black
10
78.3809
20
-117.028
11
76.6666
21
-117.028
0
LINE
8
Black
10
77.5238
20
-117.028
11
77.5238
21
-114.028
0
LINE
8
Black
10
77.5238
20
-114.028
11
77.2381
21
-114.456
0
LINE
8
Black
10
77.2381
20
-114.456
11
76.9524
21
-114.742
0
LINE
8
Black
10
76.9524
20
-114.742
11
76.6666
21
-114.885
0
LINE
8
Black
10
79.3809
20
-114.028
11
81.3809
21
-114.028
0
LINE
8
Black
10
81.3809
20
-114.028
11
80.0952
21
-117.028
0
LINE
8
Black
10
82.5238
20
-117.028
11
82.5238
21
-115.028
0
LINE
8
Black
10
82.5238
20
-115.313
11
82.6666
21
-115.171
0
LINE
8
Black
10
82.6666
20
-115.171
11
82.9524
21
-115.028
0
LINE
8
Black
10
82.9524
20
-115.028
11
83.3809
21
-115.028
0
LINE
8
Black
10
83.3809
20
-115.028
11
83.6666
21
-115.171
0
LINE
8
Black
10
83.6666
20
-115.171
11
83.8095
21
-115.456
0
LINE
8
Black
10
83.8095
20
-115.456
11
83.8095
21
-117.028
0
LINE
8
Black
10
83.8095
20
-115.456
11
83.9524
21
-115.171
0
LINE
8
Black
10
83.9524
20
-115.171
11
84.2381
21
-115.028
0
LINE
8
Black
10
84.2381
20
-115.028
11
84.6666
21
-115.028
0
LINE
8
Black
10
84.6666
20
-115.028
11
84.9524
21
-115.171
0
LINE
8
Black
10
84.9524
20
-115.171
11
85.0952
21
-115.456
0
LINE
8
Black
10
85.0952
20
-115.456
11
85.0952
21
-117.028
0
LINE
8
Black
10
86.5238
20
-117.028
11
86.5238
21
-115.028
0
LINE
8
Black
10
86.5238
20
-115.313
11
86.6666
21
-115.171
0
LINE
8
Black
10
86.6666
20
-115.171
11
86.9524
21
-115.028
0
LINE
8
Black
10
86.9524
20
-115.028
11
87.3809
21
-115.028
0
LINE
8
Black
10
87.3809
20
-115.028
11
87.6666
21
-115.171
0
LINE
8
Black
10
87.6666
20
-115.171
11
87.8095
21
-115.456
0
LINE
8
Black
10
87.8095
20
-115.456
11
87.8095
21
-117.028
0
LINE
8
Black
10
87.8095
20
-115.456
11
87.9524
21
-115.171
0
LINE
8
Black
10
87.9524
20
-115.171
11
88.2381
21
-115.028
0
LINE
8
Black
10
88.2381
20
-115.028
11
88.6666
21
-115.028
0
LINE
8
Black
10
88.6666
20
-115.028
11
88.9524
21
-115.171
0
LINE
8
Black
10
88.9524
20
-115.171
11
89.0952
21
-115.456
0
LINE
8
Black
10
89.0952
20
-115.456
11
89.0952
21
-117.028
0
LINE
8
Black
10
94.9524
20
-113.885
11
92.3809
21
-117.742
0
LINE
8
Black
10
98.8095
20
-114.028
11
99.0952
21
-114.028
0
LINE
8
Black
10
99.0952
20
-114.028
11
99.3809
21
-114.171
0
LINE
8
Black
10
99.3809
20
-114.171
11
99.5238
21
-114.313
0
LINE
8
Black
10
99.5238
20
-114.313
11
99.6666
21
-114.599
0
LINE
8
Black
10
99.6666
20
-114.599
11
99.8095
21
-115.171
0
LINE
8
Black
10
99.8095
20
-115.171
11
99.8095
21
-115.885
0
LINE
8
Black
10
99.8095
20
-115.885
11
99.6666
21
-116.456
0
LINE
8
Black
10
99.6666
20
-116.456
11
99.5238
21
-116.742
0
LINE
8
Black
10
99.5238
20
-116.742
11
99.3809
21
-116.885
0
LINE
8
Black
10
99.3809
20
-116.885
11
99.0952
21
-117.028
0
LINE
8
Black
10
99.0952
20
-117.028
11
98.8095
21
-117.028
0
LINE
8
Black
10
98.8095
20
-117.028
11
98.5238
21
-116.885
0
LINE
8
Black
10
98.5238
20
-116.885
11
98.3809
21
-116.742
0
LINE
8
Black
10
98.3809
20
-116.742
11
98.2381
21
-116.456
0
LINE
8
Black
10
98.2381
20
-116.456
11
98.0952
21
-115.885
0
LINE
8
Black
10
98.0952
20
-115.885
11
98.0952
21
-115.171
0
LINE
8
Black
10
98.0952
20
-115.171
11
98.2381
21
-114.599
0
LINE
8
Black
10
98.2381
20
-114.599
11
98.3809
21
-114.313
0
LINE
8
Black
10
98.3809
20
-114.313
11
98.5238
21
-114.171
0
LINE
8
Black
10
98.5238
20
-114.171
11
98.8095
21
-114.028
0
LINE
8
Black
10
101.095
20
-116.742
11
101.238
21
-116.885
0
LINE
8
Black
10
101.238
20
-116.885
11
101.095
21
-117.028
0
LINE
8
Black
10
101.095
20
-117.028
11
100.952
21
-116.885
0
LINE
8
Black
10
100.952
20
-116.885
11
101.095
21
-116.742
0
LINE
8
Black
10
101.095
20
-116.742
11
101.095
21
-117.028
0
LINE
8
Black
10
104.095
20
-117.028
11
102.381
21
-117.028
0
LINE
8
Black
10
103.238
20
-117.028
11
103.238
21
-114.028
0
LINE
8
Black
10
103.238
20
-114.028
11
102.952
21
-114.456
0
LINE
8
Black
10
102.952
20
-114.456
11
102.667
21
-114.742
0
LINE
8
Black
10
102.667
20
-114.742
11
102.381
21
-114.885
0
LINE
8
Black
10
105.238
20
-114.313
11
105.381
21
-114.171
0
LINE
8
Black
10
105.381
20
-114.171
11
105.667
21
-114.028
0
LINE
8
Black
10
105.667
20
-114.028
11
106.381
21
-114.028
0
LINE
8
Black
10
106.381
20
-114.028
11
106.667
21
-114.171
0
LINE
8
Black
10
106.667
20
-114.171
11
106.809
21
-114.313
0
LINE
8
Black
10
106.809
20
-114.313
11
106.952
21
-114.599
0
LINE
8
Black
10
106.952
20
-114.599
11
106.952
21
-114.885
0
LINE
8
Black
10
106.952
20
-114.885
11
106.809
21
-115.313
0
LINE
8
Black
10
106.809
20
-115.313
11
105.095
21
-117.028
0
LINE
8
Black
10
105.095
20
-117.028
11
106.952
21
-117.028
0
LINE
8
Black
10
109.667
20
-114.028
11
108.238
21
-114.028
0
LINE
8
Black
10
108.238
20
-114.028
11
108.095
21
-115.456
0
LINE
8
Black
10
108.095
20
-115.456
11
108.238
21
-115.313
0
LINE
8
Black
10
108.238
20
-115.313
11
108.524
21
-115.171
0
LINE
8
Black
10
108.524
20
-115.171
11
109.238
21
-115.171
0
LINE
8
Black
10
109.238
20
-115.171
11
109.524
21
-115.313
0
LINE
8
Black
10
109.524
20
-115.313
11
109.667
21
-115.456
0
LINE
8
Black
10
109.667
20
-115.456
11
109.809
21
-115.742
0
LINE
8
Black
10
109.809
20
-115.742
11
109.809
21
-116.456
0
LINE
8
Black
10
109.809
20
-116.456
11
109.667
21
-116.742
0
LINE
8
Black
10
109.667
20
-116.742
11
109.524
21
-116.885
0
LINE
8
Black
10
109.524
20
-116.885
11
109.238
21
-117.028
0
LINE
8
Black
10
109.238
20
-117.028
11
108.524
21
-117.028
0
LINE
8
Black
10
108.524
20
-117.028
11
108.238
21
-116.885
0
LINE
8
Black
10
108.238
20
-116.885
11
108.095
21
-116.742
0
LINE
8
Black
10
110.952
20
-114.028
11
110.952
21
-114.599
0
LINE
8
Black
10
112.095
20
-114.028
11
112.095
21
-114.599
0
LINE
8
Black
10
116.524
20
-118.171
11
116.381
21
-118.028
0
LINE
8
Black
10
116.381
20
-118.028
11
116.095
21
-117.599
0
LINE
8
Black
10
116.095
20
-117.599
11
115.952
21
-117.313
0
LINE
8
Black
10
115.952
20
-117.313
11
115.809
21
-116.885
0
LINE
8
Black
10
115.809
20
-116.885
11
115.667
21
-116.171
0
LINE
8
Black
10
115.667
20
-116.171
11
115.667
21
-115.599
0
LINE
8
Black
10
115.667
20
-115.599
11
115.809
21
-114.885
0
LINE
8
Black
10
115.809
20
-114.885
11
115.952
21
-114.456
0
LINE
8
Black
10
115.952
20
-114.456
11
116.095
21
-114.171
0
LINE
8
Black
10
116.095
20
-114.171
11
116.381
21
-113.742
0
LINE
8
Black
10
116.381
20
-113.742
11
116.524
21
-113.599
0
LINE
8
Black
10
118.952
20
-115.028
11
118.952
21
-117.028
0
LINE
8
Black
10
118.238
20
-113.885
11
117.524
21
-116.028
0
LINE
8
Black
10
117.524
20
-116.028
11
119.381
21
-116.028
0
LINE
8
Black
10
122.809
20
-117.028
11
122.809
21
-114.028
0
LINE
8
Black
10
124.095
20
-117.028
11
124.095
21
-115.456
0
LINE
8
Black
10
124.095
20
-115.456
11
123.952
21
-115.171
0
LINE
8
Black
10
123.952
20
-115.171
11
123.667
21
-115.028
0
LINE
8
Black
10
123.667
20
-115.028
11
123.238
21
-115.028
0
LINE
8
Black
10
123.238
20
-115.028
11
122.952
21
-115.171
0
LINE
8
Black
10
122.952
20
-115.171
11
122.809
21
-115.313
0
LINE
8
Black
10
125.952
20
-117.028
11
125.667
21
-116.885
0
LINE
8
Black
10
125.667
20
-116.885
11
125.524
21
-116.742
0
LINE
8
Black
10
125.524
20
-116.742
11
125.381
21
-116.456
0
LINE
8
Black
10
125.381
20
-116.456
11
125.381
21
-115.599
0
LINE
8
Black
10
125.381
20
-115.599
11
125.524
21
-115.313
0
LINE
8
Black
10
125.524
20
-115.313
11
125.667
21
-115.171
0
LINE
8
Black
10
125.667
20
-115.171
11
125.952
21
-115.028
0
LINE
8
Black
10
125.952
20
-115.028
11
126.381
21
-115.028
0
LINE
8
Black
10
126.381
20
-115.028
11
126.667
21
-115.171
0
LINE
8
Black
10
126.667
20
-115.171
11
126.809
21
-115.313
0
LINE
8
Black
10
126.809
20
-115.313
11
126.952
21
-115.599
0
LINE
8
Black
10
126.952
20
-115.599
11
126.952
21
-116.456
0
LINE
8
Black
10
126.952
20
-116.456
11
126.809
21
-116.742
0
LINE
8
Black
10
126.809
20
-116.742
11
126.667
21
-116.885
0
LINE
8
Black
10
126.667
20
-116.885
11
126.381
21
-117.028
0
LINE
8
Black
10
126.381
20
-117.028
11
125.952
21
-117.028
0
LINE
8
Black
10
128.667
20
-117.028
11
128.381
21
-116.885
0
LINE
8
Black
10
128.381
20
-116.885
11
128.238
21
-116.599
0
LINE
8
Black
10
128.238
20
-116.599
11
128.238
21
-114.028
0
LINE
8
Black
10
130.952
20
-116.885
11
130.667
21
-117.028
0
LINE
8
Black
10
130.667
20
-117.028
11
130.095
21
-117.028
0
LINE
8
Black
10
130.095
20
-117.028
11
129.809
21
-116.885
0
LINE
8
Black
10
129.809
20
-116.885
11
129.667
21
-116.599
0
LINE
8
Black
10
129.667
20
-116.599
11
129.667
21
-115.456
0
LINE
8
Black
10
129.667
20
-115.456
11
129.809
21
-115.171
0
LINE
8
Black
10
129.809
20
-115.171
11
130.095
21
-115.028
0
LINE
8
Black
10
130.095
20
-115.028
11
130.667
21
-115.028
0
LINE
8
Black
10
130.667
20
-115.028
11
130.952
21
-115.171
0
LINE
8
Black
10
130.952
20
-115.171
11
131.095
21
-115.456
0
LINE
8
Black
10
131.095
20
-115.456
11
131.095
21
-115.742
0
LINE
8
Black
10
131.095
20
-115.742
11
129.667
21
-116.028
0
LINE
8
Black
10
132.238
20
-116.885
11
132.524
21
-117.028
0
LINE
8
Black
10
132.524
20
-117.028
11
133.095
21
-117.028
0
LINE
8
Black
10
133.095
20
-117.028
11
133.381
21
-116.885
0
LINE
8
Black
10
133.381
20
-116.885
11
133.524
21
-116.599
0
LINE
8
Black
10
133.524
20
-116.599
11
133.524
21
-116.456
0
LINE
8
Black
10
133.524
20
-116.456
11
133.381
21
-116.171
0
LINE
8
Black
10
133.381
20
-116.171
11
133.095
21
-116.028
0
LINE
8
Black
10
133.095
20
-116.028
11
132.667
21
-116.028
0
LINE
8
Black
10
132.667
20
-116.028
11
132.381
21
-115.885
0
LINE
8
Black
10
132.381
20
-115.885
11
132.238
21
-115.599
0
LINE
8
Black
10
132.238
20
-115.599
11
132.238
21
-115.456
0
LINE
8
Black
10
132.238
20
-115.456
11
132.381
21
-115.171
0
LINE
8
Black
10
132.381
20
-115.171
11
132.667
21
-115.028
0
LINE
8
Black
10
132.667
20
-115.028
11
133.095
21
-115.028
0
LINE
8
Black
10
133.095
20
-115.028
11
133.381
21
-115.171
0
LINE
8
Black
10
134.524
20
-118.171
11
134.667
21
-118.028
0
LINE
8
Black
10
134.667
20
-118.028
11
134.952
21
-117.599
0
LINE
8
Black
10
134.952
20
-117.599
11
135.095
21
-117.313
0
LINE
8
Black
10
135.095
20
-117.313
11
135.238
21
-116.885
0
LINE
8
Black
10
135.238
20
-116.885
11
135.381
21
-116.171
0
LINE
8
Black
10
135.381
20
-116.171
11
135.381
21
-115.599
0
LINE
8
Black
10
135.381
20
-115.599
11
135.238
21
-114.885
0
LINE
8
Black
10
135.238
20
-114.885
11
135.095
21
-114.456
0
LINE
8
Black
10
135.095
20
-114.456
11
134.952
21
-114.171
0
LINE
8
Black
10
134.952
20
-114.171
11
134.667
21
-113.742
0
LINE
8
Black
10
134.667
20
-113.742
11
134.524
21
-113.599
  0
ENDSEC
  0
EOF
