  0
SECTION
  2
HEADER
  9
$ANGBASE
  50
0.0
  9
$ANGDIR
  70
  1
  9
$MEASUREMENT
  70
0
  0
ENDSEC
  0
SECTION
  2
TABLES
  0
TABLE
  2
LTYPE
  70
1
  0
LTYPE
  2
CONTINUOUS
  70
0
  3
Solid line
  72
65
  73
0
  40
0.0
  0
ENDTAB
  0
TABLE
  2
STYLE
  70
4
  0
STYLE
  2
KICAD
  70
0
  40
0
  41
1
  42
1
  50
0
  71
0
  3
isocp.shx
  0
STYLE
  2
KICADB
  70
0
  40
0
  41
1
  42
1
  50
0
  71
0
  3
isocp.shx
  0
STYLE
  2
KICADI
  70
0
  40
0
  41
1
  42
1
  50
15
  71
0
  3
isocp.shx
  0
STYLE
  2
KICADBI
  70
0
  40
0
  41
1
  42
1
  50
15
  71
0
  3
isocp.shx
  0
ENDTAB
  0
TABLE
  2
LAYER
  70
30
  0
LAYER
  2
BLACK
  70
0
  62
7
  6
CONTINUOUS
  0
LAYER
  2
GRAY1
  70
0
  62
251
  6
CONTINUOUS
  0
LAYER
  2
GRAY2
  70
0
  62
8
  6
CONTINUOUS
  0
LAYER
  2
GRAY3
  70
0
  62
9
  6
CONTINUOUS
  0
LAYER
  2
WHITE
  70
0
  62
7
  6
CONTINUOUS
  0
LAYER
  2
LYELLOW
  70
0
  62
51
  6
CONTINUOUS
  0
LAYER
  2
BLUE1
  70
0
  62
178
  6
CONTINUOUS
  0
LAYER
  2
GREEN1
  70
0
  62
98
  6
CONTINUOUS
  0
LAYER
  2
CYAN1
  70
0
  62
138
  6
CONTINUOUS
  0
LAYER
  2
RED1
  70
0
  62
18
  6
CONTINUOUS
  0
LAYER
  2
MAGENTA1
  70
0
  62
228
  6
CONTINUOUS
  0
LAYER
  2
BROWN1
  70
0
  62
58
  6
CONTINUOUS
  0
LAYER
  2
BLUE2
  70
0
  62
5
  6
CONTINUOUS
  0
LAYER
  2
GREEN2
  70
0
  62
3
  6
CONTINUOUS
  0
LAYER
  2
CYAN2
  70
0
  62
4
  6
CONTINUOUS
  0
LAYER
  2
RED2
  70
0
  62
1
  6
CONTINUOUS
  0
LAYER
  2
MAGENTA2
  70
0
  62
6
  6
CONTINUOUS
  0
LAYER
  2
BROWN2
  70
0
  62
54
  6
CONTINUOUS
  0
LAYER
  2
BLUE3
  70
0
  62
171
  6
CONTINUOUS
  0
LAYER
  2
GREEN3
  70
0
  62
91
  6
CONTINUOUS
  0
LAYER
  2
CYAN3
  70
0
  62
131
  6
CONTINUOUS
  0
LAYER
  2
RED3
  70
0
  62
11
  6
CONTINUOUS
  0
LAYER
  2
MAGENTA3
  70
0
  62
221
  6
CONTINUOUS
  0
LAYER
  2
YELLOW3
  70
0
  62
2
  6
CONTINUOUS
  0
LAYER
  2
BLUE4
  70
0
  62
5
  6
CONTINUOUS
  0
LAYER
  2
GREEN4
  70
0
  62
3
  6
CONTINUOUS
  0
LAYER
  2
CYAN4
  70
0
  62
4
  6
CONTINUOUS
  0
LAYER
  2
RED4
  70
0
  62
1
  6
CONTINUOUS
  0
LAYER
  2
MAGENTA4
  70
0
  62
6
  6
CONTINUOUS
  0
LAYER
  2
YELLOW4
  70
0
  62
2
  6
CONTINUOUS
  0
ENDTAB
  0
ENDSEC
  0
SECTION
  2
ENTITIES
0
LINE
8
Black
10
49.1905
20
-45
11
49.1905
21
-4
0
LINE
8
Black
10
48.8095
20
-45
11
48.8095
21
-4
0
ARC
8
Black
10
49
20
-4
40
0.1905
50
360
51
540
0
ARC
8
Black
10
49
20
-45
40
0.1905
50
180
51
360
0
LINE
8
Black
10
4
20
-49.1905
11
45
21
-49.1905
0
LINE
8
Black
10
4
20
-48.8095
11
45
21
-48.8095
0
ARC
8
Black
10
45
20
-49
40
0.1905
50
270
51
450
0
ARC
8
Black
10
4
20
-49
40
0.1905
50
90
51
270
0
LINE
8
Black
10
0.1905
20
-45
11
0.1905
21
-4
0
LINE
8
Black
10
-0.1905
20
-45
11
-0.1905
21
-4
0
ARC
8
Black
10
0
20
-4
40
0.1905
50
360
51
540
0
ARC
8
Black
10
0
20
-45
40
0.1905
50
180
51
360
0
LINE
8
Black
10
4
20
-0.1905
11
45
21
-0.1905
0
LINE
8
Black
10
4
20
0.1905
11
45
21
0.1905
0
ARC
8
Black
10
45
20
0
40
0.1905
50
270
51
450
0
ARC
8
Black
10
4
20
0
40
0.1905
50
90
51
270
0
ARC
8
Black
10
4
20
-45
40
4
50
-180
51
-90
0
ARC
8
Black
10
45
20
-45
40
4
50
-90
51
-0
0
ARC
8
Black
10
45
20
-4
40
4
50
-0
51
90
0
ARC
8
Black
10
4
20
-4
40
4
50
90
51
180
0
LINE
8
Black
10
2.2225
20
-31.4325
11
2.8575
21
-32.0675
0
LINE
8
Black
10
2.8575
20
-31.4325
11
2.2225
21
-32.0675
0
LINE
8
Black
10
6.0325
20
-36.5125
11
6.6675
21
-37.1475
0
LINE
8
Black
10
6.6675
20
-36.5125
11
6.0325
21
-37.1475
0
LINE
8
Black
10
7.9375
20
-28.3845
11
8.5725
21
-29.0195
0
LINE
8
Black
10
8.5725
20
-28.3845
11
7.9375
21
-29.0195
0
LINE
8
Black
10
8.5725
20
-31.4325
11
9.2075
21
-32.0675
0
LINE
8
Black
10
9.2075
20
-31.4325
11
8.5725
21
-32.0675
0
LINE
8
Black
10
8.5725
20
-33.9725
11
9.2075
21
-34.6075
0
LINE
8
Black
10
9.2075
20
-33.9725
11
8.5725
21
-34.6075
0
LINE
8
Black
10
10.16
20
-32.258
11
10.795
21
-32.893
0
LINE
8
Black
10
10.795
20
-32.258
11
10.16
21
-32.893
0
LINE
8
Black
10
10.7315
20
-28.5115
11
11.3665
21
-29.1465
0
LINE
8
Black
10
11.3665
20
-28.5115
11
10.7315
21
-29.1465
0
LINE
8
Black
10
11.6205
20
-36.7665
11
12.2555
21
-37.4015
0
LINE
8
Black
10
12.2555
20
-36.7665
11
11.6205
21
-37.4015
0
LINE
8
Black
10
13.716
20
-40.3225
11
14.351
21
-40.9575
0
LINE
8
Black
10
14.351
20
-40.3225
11
13.716
21
-40.9575
0
LINE
8
Black
10
15.5575
20
-37.846
11
16.1925
21
-38.481
0
LINE
8
Black
10
16.1925
20
-37.846
11
15.5575
21
-38.481
0
LINE
8
Black
10
16.1925
20
-30.9245
11
16.8275
21
-31.5595
0
LINE
8
Black
10
16.8275
20
-30.9245
11
16.1925
21
-31.5595
0
LINE
8
Black
10
17.3355
20
-46.736
11
17.9705
21
-47.371
0
LINE
8
Black
10
17.9705
20
-46.736
11
17.3355
21
-47.371
0
LINE
8
Black
10
17.526
20
-36.576
11
18.161
21
-37.211
0
LINE
8
Black
10
18.161
20
-36.576
11
17.526
21
-37.211
0
LINE
8
Black
10
18.4785
20
-10.8585
11
19.1135
21
-11.4935
0
LINE
8
Black
10
19.1135
20
-10.8585
11
18.4785
21
-11.4935
0
LINE
8
Black
10
18.4785
20
-21.0185
11
19.1135
21
-21.6535
0
LINE
8
Black
10
19.1135
20
-21.0185
11
18.4785
21
-21.6535
0
LINE
8
Black
10
20.2565
20
-30.9245
11
20.8915
21
-31.5595
0
LINE
8
Black
10
20.8915
20
-30.9245
11
20.2565
21
-31.5595
0
LINE
8
Black
10
20.2565
20
-41.4655
11
20.8915
21
-42.1005
0
LINE
8
Black
10
20.8915
20
-41.4655
11
20.2565
21
-42.1005
0
LINE
8
Black
10
32.1825
20
-25.1825
11
32.8175
21
-25.8175
0
LINE
8
Black
10
32.8175
20
-25.1825
11
32.1825
21
-25.8175
0
LINE
8
Black
10
32.1825
20
-27.6825
11
32.8175
21
-28.3175
0
LINE
8
Black
10
32.8175
20
-27.6825
11
32.1825
21
-28.3175
0
LINE
8
Black
10
33.9725
20
-31.1785
11
34.6075
21
-31.8135
0
LINE
8
Black
10
34.6075
20
-31.1785
11
33.9725
21
-31.8135
0
LINE
8
Black
10
36.6395
20
-23.6855
11
37.2745
21
-24.3205
0
LINE
8
Black
10
37.2745
20
-23.6855
11
36.6395
21
-24.3205
0
LINE
8
Black
10
36.7665
20
-25.5905
11
37.4015
21
-26.2255
0
LINE
8
Black
10
37.4015
20
-25.5905
11
36.7665
21
-26.2255
0
LINE
8
Black
10
36.7665
20
-42.3545
11
37.4015
21
-42.9895
0
LINE
8
Black
10
37.4015
20
-42.3545
11
36.7665
21
-42.9895
0
LINE
8
Black
10
37.4015
20
-12.1285
11
38.0365
21
-12.7635
0
LINE
8
Black
10
38.0365
20
-12.1285
11
37.4015
21
-12.7635
0
LINE
8
Black
10
37.5285
20
-1.9685
11
38.1635
21
-2.6035
0
LINE
8
Black
10
38.1635
20
-1.9685
11
37.5285
21
-2.6035
0
LINE
8
Black
10
38.7985
20
-20.2565
11
39.4335
21
-20.8915
0
LINE
8
Black
10
39.4335
20
-20.2565
11
38.7985
21
-20.8915
0
LINE
8
Black
10
39.9415
20
-9.9695
11
40.5765
21
-10.6045
0
LINE
8
Black
10
40.5765
20
-9.9695
11
39.9415
21
-10.6045
0
LINE
8
Black
10
41.0845
20
-26.035
11
41.7195
21
-26.67
0
LINE
8
Black
10
41.7195
20
-26.035
11
41.0845
21
-26.67
0
CIRCLE
8
Black
10
22.86
20
-3.81
40
0.4
0
CIRCLE
8
Black
10
22.86
20
-6.35
40
0.4
0
CIRCLE
8
Black
10
22.86
20
-8.89
40
0.4
0
CIRCLE
8
Black
10
22.86
20
-13.97
40
0.4
0
CIRCLE
8
Black
10
22.86
20
-16.51
40
0.4
0
CIRCLE
8
Black
10
22.86
20
-19.05
40
0.4
0
CIRCLE
8
Black
10
22.86
20
-30.48
40
0.4
0
CIRCLE
8
Black
10
22.86
20
-33.02
40
0.4
0
CIRCLE
8
Black
10
22.86
20
-35.56
40
0.4
0
CIRCLE
8
Black
10
22.86
20
-40.64
40
0.4
0
CIRCLE
8
Black
10
22.86
20
-43.18
40
0.4
0
CIRCLE
8
Black
10
22.86
20
-45.72
40
0.4
0
CIRCLE
8
Black
10
30.48
20
-3.81
40
0.4
0
CIRCLE
8
Black
10
30.48
20
-6.35
40
0.4
0
CIRCLE
8
Black
10
30.48
20
-8.89
40
0.4
0
CIRCLE
8
Black
10
30.48
20
-13.97
40
0.4
0
CIRCLE
8
Black
10
30.48
20
-16.51
40
0.4
0
CIRCLE
8
Black
10
30.48
20
-19.05
40
0.4
0
CIRCLE
8
Black
10
30.48
20
-30.48
40
0.4
0
CIRCLE
8
Black
10
30.48
20
-33.02
40
0.4
0
CIRCLE
8
Black
10
30.48
20
-35.56
40
0.4
0
CIRCLE
8
Black
10
30.48
20
-40.64
40
0.4
0
CIRCLE
8
Black
10
30.48
20
-43.18
40
0.4
0
CIRCLE
8
Black
10
30.48
20
-45.72
40
0.4
0
LINE
8
Black
10
6.35
20
-10.93
11
6.35
21
-11.93
0
LINE
8
Black
10
5.85
20
-11.43
11
6.85
21
-11.43
0
LINE
8
Black
10
6.35
20
-13.47
11
6.35
21
-14.47
0
LINE
8
Black
10
5.85
20
-13.97
11
6.85
21
-13.97
0
LINE
8
Black
10
6.35
20
-16.01
11
6.35
21
-17.01
0
LINE
8
Black
10
5.85
20
-16.51
11
6.85
21
-16.51
0
LINE
8
Black
10
6.35
20
-18.55
11
6.35
21
-19.55
0
LINE
8
Black
10
5.85
20
-19.05
11
6.85
21
-19.05
0
LINE
8
Black
10
12.192
20
-2.548
11
12.192
21
-3.548
0
LINE
8
Black
10
11.692
20
-3.048
11
12.692
21
-3.048
0
LINE
8
Black
10
12.192
20
-5.088
11
12.192
21
-6.088
0
LINE
8
Black
10
11.692
20
-5.588
11
12.692
21
-5.588
0
LINE
8
Black
10
42.545
20
-9.025
11
42.545
21
-10.025
0
LINE
8
Black
10
42.045
20
-9.525
11
43.045
21
-9.525
0
LINE
8
Black
10
42.545
20
-11.565
11
42.545
21
-12.565
0
LINE
8
Black
10
42.045
20
-12.065
11
43.045
21
-12.065
0
LINE
8
Black
10
43.18
20
-18.55
11
43.18
21
-19.55
0
LINE
8
Black
10
42.68
20
-19.05
11
43.68
21
-19.05
0
LINE
8
Black
10
43.18
20
-21.09
11
43.18
21
-22.09
0
LINE
8
Black
10
42.68
20
-21.59
11
43.68
21
-21.59
0
LINE
8
Black
10
43.18
20
-23.63
11
43.18
21
-24.63
0
LINE
8
Black
10
42.68
20
-24.13
11
43.68
21
-24.13
0
LINE
8
Black
10
43.18
20
-26.17
11
43.18
21
-27.17
0
LINE
8
Black
10
42.68
20
-26.67
11
43.68
21
-26.67
0
LINE
8
Black
10
43.18
20
-28.71
11
43.18
21
-29.71
0
LINE
8
Black
10
42.68
20
-29.21
11
43.68
21
-29.21
0
LINE
8
Black
10
43.18
20
-31.25
11
43.18
21
-32.25
0
LINE
8
Black
10
42.68
20
-31.75
11
43.68
21
-31.75
0
LINE
8
Black
10
5.12254
20
-5.12254
11
5.12254
21
-2.87746
0
LINE
8
Black
10
5.12254
20
-2.87746
11
2.87746
21
-2.87746
0
LINE
8
Black
10
2.87746
20
-2.87746
11
2.87746
21
-5.12254
0
LINE
8
Black
10
2.87746
20
-5.12254
11
5.12254
21
-5.12254
0
LINE
8
Black
10
5.12254
20
-46.1225
11
5.12254
21
-43.8775
0
LINE
8
Black
10
5.12254
20
-43.8775
11
2.87746
21
-43.8775
0
LINE
8
Black
10
2.87746
20
-43.8775
11
2.87746
21
-46.1225
0
LINE
8
Black
10
2.87746
20
-46.1225
11
5.12254
21
-46.1225
0
LINE
8
Black
10
46.1225
20
-5.12254
11
46.1225
21
-2.87746
0
LINE
8
Black
10
46.1225
20
-2.87746
11
43.8775
21
-2.87746
0
LINE
8
Black
10
43.8775
20
-2.87746
11
43.8775
21
-5.12254
0
LINE
8
Black
10
43.8775
20
-5.12254
11
46.1225
21
-5.12254
0
LINE
8
Black
10
46.1225
20
-46.1225
11
46.1225
21
-43.8775
0
LINE
8
Black
10
46.1225
20
-43.8775
11
43.8775
21
-43.8775
0
LINE
8
Black
10
43.8775
20
-43.8775
11
43.8775
21
-46.1225
0
LINE
8
Black
10
43.8775
20
-46.1225
11
46.1225
21
-46.1225
0
LINE
8
Black
10
2.52379
20
-53.8476
11
2.52379
21
-50.8476
0
LINE
8
Black
10
2.52379
20
-50.8476
11
3.23807
21
-50.8476
0
LINE
8
Black
10
3.23807
20
-50.8476
11
3.66664
21
-50.9905
0
LINE
8
Black
10
3.66664
20
-50.9905
11
3.95236
21
-51.2762
0
LINE
8
Black
10
3.95236
20
-51.2762
11
4.09521
21
-51.5619
0
LINE
8
Black
10
4.09521
20
-51.5619
11
4.23807
21
-52.1334
0
LINE
8
Black
10
4.23807
20
-52.1334
11
4.23807
21
-52.5619
0
LINE
8
Black
10
4.23807
20
-52.5619
11
4.09521
21
-53.1334
0
LINE
8
Black
10
4.09521
20
-53.1334
11
3.95236
21
-53.4191
0
LINE
8
Black
10
3.95236
20
-53.4191
11
3.66664
21
-53.7048
0
LINE
8
Black
10
3.66664
20
-53.7048
11
3.23807
21
-53.8476
0
LINE
8
Black
10
3.23807
20
-53.8476
11
2.52379
21
-53.8476
0
LINE
8
Black
10
5.52379
20
-53.8476
11
5.52379
21
-51.8476
0
LINE
8
Black
10
5.52379
20
-52.4191
11
5.66664
21
-52.1334
0
LINE
8
Black
10
5.66664
20
-52.1334
11
5.8095
21
-51.9905
0
LINE
8
Black
10
5.8095
20
-51.9905
11
6.09521
21
-51.8476
0
LINE
8
Black
10
6.09521
20
-51.8476
11
6.38093
21
-51.8476
0
LINE
8
Black
10
7.38093
20
-53.8476
11
7.38093
21
-51.8476
0
LINE
8
Black
10
7.38093
20
-50.8476
11
7.23807
21
-50.9905
0
LINE
8
Black
10
7.23807
20
-50.9905
11
7.38093
21
-51.1334
0
LINE
8
Black
10
7.38093
20
-51.1334
11
7.52379
21
-50.9905
0
LINE
8
Black
10
7.52379
20
-50.9905
11
7.38093
21
-50.8476
0
LINE
8
Black
10
7.38093
20
-50.8476
11
7.38093
21
-51.1334
0
LINE
8
Black
10
9.23807
20
-53.8476
11
8.95236
21
-53.7048
0
LINE
8
Black
10
8.95236
20
-53.7048
11
8.8095
21
-53.4191
0
LINE
8
Black
10
8.8095
20
-53.4191
11
8.8095
21
-50.8476
0
LINE
8
Black
10
10.8095
20
-53.8476
11
10.5238
21
-53.7048
0
LINE
8
Black
10
10.5238
20
-53.7048
11
10.3809
21
-53.4191
0
LINE
8
Black
10
10.3809
20
-53.4191
11
10.3809
21
-50.8476
0
LINE
8
Black
10
14.2381
20
-53.8476
11
14.2381
21
-50.8476
0
LINE
8
Black
10
14.2381
20
-50.8476
11
15.2381
21
-52.9905
0
LINE
8
Black
10
15.2381
20
-52.9905
11
16.2381
21
-50.8476
0
LINE
8
Black
10
16.2381
20
-50.8476
11
16.2381
21
-53.8476
0
LINE
8
Black
10
18.9524
20
-53.8476
11
18.9524
21
-52.2762
0
LINE
8
Black
10
18.9524
20
-52.2762
11
18.8095
21
-51.9905
0
LINE
8
Black
10
18.8095
20
-51.9905
11
18.5238
21
-51.8476
0
LINE
8
Black
10
18.5238
20
-51.8476
11
17.9524
21
-51.8476
0
LINE
8
Black
10
17.9524
20
-51.8476
11
17.6666
21
-51.9905
0
LINE
8
Black
10
18.9524
20
-53.7048
11
18.6666
21
-53.8476
0
LINE
8
Black
10
18.6666
20
-53.8476
11
17.9524
21
-53.8476
0
LINE
8
Black
10
17.9524
20
-53.8476
11
17.6666
21
-53.7048
0
LINE
8
Black
10
17.6666
20
-53.7048
11
17.5238
21
-53.4191
0
LINE
8
Black
10
17.5238
20
-53.4191
11
17.5238
21
-53.1334
0
LINE
8
Black
10
17.5238
20
-53.1334
11
17.6666
21
-52.8476
0
LINE
8
Black
10
17.6666
20
-52.8476
11
17.9524
21
-52.7048
0
LINE
8
Black
10
17.9524
20
-52.7048
11
18.6666
21
-52.7048
0
LINE
8
Black
10
18.6666
20
-52.7048
11
18.9524
21
-52.5619
0
LINE
8
Black
10
20.3809
20
-51.8476
11
20.3809
21
-54.8476
0
LINE
8
Black
10
20.3809
20
-51.9905
11
20.6666
21
-51.8476
0
LINE
8
Black
10
20.6666
20
-51.8476
11
21.2381
21
-51.8476
0
LINE
8
Black
10
21.2381
20
-51.8476
11
21.5238
21
-51.9905
0
LINE
8
Black
10
21.5238
20
-51.9905
11
21.6666
21
-52.1334
0
LINE
8
Black
10
21.6666
20
-52.1334
11
21.8095
21
-52.4191
0
LINE
8
Black
10
21.8095
20
-52.4191
11
21.8095
21
-53.2762
0
LINE
8
Black
10
21.8095
20
-53.2762
11
21.6666
21
-53.5619
0
LINE
8
Black
10
21.6666
20
-53.5619
11
21.5238
21
-53.7048
0
LINE
8
Black
10
21.5238
20
-53.7048
11
21.2381
21
-53.8476
0
LINE
8
Black
10
21.2381
20
-53.8476
11
20.6666
21
-53.8476
0
LINE
8
Black
10
20.6666
20
-53.8476
11
20.3809
21
-53.7048
0
LINE
8
Black
10
23.0952
20
-53.5619
11
23.2381
21
-53.7048
0
LINE
8
Black
10
23.2381
20
-53.7048
11
23.0952
21
-53.8476
0
LINE
8
Black
10
23.0952
20
-53.8476
11
22.9524
21
-53.7048
0
LINE
8
Black
10
22.9524
20
-53.7048
11
23.0952
21
-53.5619
0
LINE
8
Black
10
23.0952
20
-53.5619
11
23.0952
21
-53.8476
0
LINE
8
Black
10
23.0952
20
-51.9905
11
23.2381
21
-52.1334
0
LINE
8
Black
10
23.2381
20
-52.1334
11
23.0952
21
-52.2762
0
LINE
8
Black
10
23.0952
20
-52.2762
11
22.9524
21
-52.1334
0
LINE
8
Black
10
22.9524
20
-52.1334
11
23.0952
21
-51.9905
0
LINE
8
Black
10
23.0952
20
-51.9905
11
23.0952
21
-52.2762
0
LINE
8
Black
10
-0.825501
20
-58.473
11
-0.190501
21
-59.108
0
LINE
8
Black
10
-0.190501
20
-58.473
11
-0.825501
21
-59.108
0
LINE
8
Black
10
3.09521
20
-57.1476
11
3.38093
21
-57.1476
0
LINE
8
Black
10
3.38093
20
-57.1476
11
3.66664
21
-57.2905
0
LINE
8
Black
10
3.66664
20
-57.2905
11
3.8095
21
-57.4334
0
LINE
8
Black
10
3.8095
20
-57.4334
11
3.95236
21
-57.7191
0
LINE
8
Black
10
3.95236
20
-57.7191
11
4.09521
21
-58.2905
0
LINE
8
Black
10
4.09521
20
-58.2905
11
4.09521
21
-59.0048
0
LINE
8
Black
10
4.09521
20
-59.0048
11
3.95236
21
-59.5762
0
LINE
8
Black
10
3.95236
20
-59.5762
11
3.8095
21
-59.8619
0
LINE
8
Black
10
3.8095
20
-59.8619
11
3.66664
21
-60.0048
0
LINE
8
Black
10
3.66664
20
-60.0048
11
3.38093
21
-60.1476
0
LINE
8
Black
10
3.38093
20
-60.1476
11
3.09521
21
-60.1476
0
LINE
8
Black
10
3.09521
20
-60.1476
11
2.8095
21
-60.0048
0
LINE
8
Black
10
2.8095
20
-60.0048
11
2.66664
21
-59.8619
0
LINE
8
Black
10
2.66664
20
-59.8619
11
2.52379
21
-59.5762
0
LINE
8
Black
10
2.52379
20
-59.5762
11
2.38093
21
-59.0048
0
LINE
8
Black
10
2.38093
20
-59.0048
11
2.38093
21
-58.2905
0
LINE
8
Black
10
2.38093
20
-58.2905
11
2.52379
21
-57.7191
0
LINE
8
Black
10
2.52379
20
-57.7191
11
2.66664
21
-57.4334
0
LINE
8
Black
10
2.66664
20
-57.4334
11
2.8095
21
-57.2905
0
LINE
8
Black
10
2.8095
20
-57.2905
11
3.09521
21
-57.1476
0
LINE
8
Black
10
5.38093
20
-59.8619
11
5.52379
21
-60.0048
0
LINE
8
Black
10
5.52379
20
-60.0048
11
5.38093
21
-60.1476
0
LINE
8
Black
10
5.38093
20
-60.1476
11
5.23807
21
-60.0048
0
LINE
8
Black
10
5.23807
20
-60.0048
11
5.38093
21
-59.8619
0
LINE
8
Black
10
5.38093
20
-59.8619
11
5.38093
21
-60.1476
0
LINE
8
Black
10
8.09521
20
-57.1476
11
7.52378
21
-57.1476
0
LINE
8
Black
10
7.52378
20
-57.1476
11
7.23807
21
-57.2905
0
LINE
8
Black
10
7.23807
20
-57.2905
11
7.09521
21
-57.4334
0
LINE
8
Black
10
7.09521
20
-57.4334
11
6.8095
21
-57.8619
0
LINE
8
Black
10
6.8095
20
-57.8619
11
6.66664
21
-58.4334
0
LINE
8
Black
10
6.66664
20
-58.4334
11
6.66664
21
-59.5762
0
LINE
8
Black
10
6.66664
20
-59.5762
11
6.8095
21
-59.8619
0
LINE
8
Black
10
6.8095
20
-59.8619
11
6.95236
21
-60.0048
0
LINE
8
Black
10
6.95236
20
-60.0048
11
7.23807
21
-60.1476
0
LINE
8
Black
10
7.23807
20
-60.1476
11
7.8095
21
-60.1476
0
LINE
8
Black
10
7.8095
20
-60.1476
11
8.09521
21
-60.0048
0
LINE
8
Black
10
8.09521
20
-60.0048
11
8.23807
21
-59.8619
0
LINE
8
Black
10
8.23807
20
-59.8619
11
8.38093
21
-59.5762
0
LINE
8
Black
10
8.38093
20
-59.5762
11
8.38093
21
-58.8619
0
LINE
8
Black
10
8.38093
20
-58.8619
11
8.23807
21
-58.5762
0
LINE
8
Black
10
8.23807
20
-58.5762
11
8.09521
21
-58.4334
0
LINE
8
Black
10
8.09521
20
-58.4334
11
7.8095
21
-58.2905
0
LINE
8
Black
10
7.8095
20
-58.2905
11
7.23807
21
-58.2905
0
LINE
8
Black
10
7.23807
20
-58.2905
11
6.95236
21
-58.4334
0
LINE
8
Black
10
6.95236
20
-58.4334
11
6.8095
21
-58.5762
0
LINE
8
Black
10
6.8095
20
-58.5762
11
6.66664
21
-58.8619
0
LINE
8
Black
10
10.9524
20
-58.1476
11
10.9524
21
-60.1476
0
LINE
8
Black
10
10.2381
20
-57.0048
11
9.52379
21
-59.1476
0
LINE
8
Black
10
9.52379
20
-59.1476
11
11.3809
21
-59.1476
0
LINE
8
Black
10
12.5238
20
-60.1476
11
12.5238
21
-58.1476
0
LINE
8
Black
10
12.5238
20
-58.4334
11
12.6666
21
-58.2905
0
LINE
8
Black
10
12.6666
20
-58.2905
11
12.9524
21
-58.1476
0
LINE
8
Black
10
12.9524
20
-58.1476
11
13.3809
21
-58.1476
0
LINE
8
Black
10
13.3809
20
-58.1476
11
13.6666
21
-58.2905
0
LINE
8
Black
10
13.6666
20
-58.2905
11
13.8095
21
-58.5762
0
LINE
8
Black
10
13.8095
20
-58.5762
11
13.8095
21
-60.1476
0
LINE
8
Black
10
13.8095
20
-58.5762
11
13.9524
21
-58.2905
0
LINE
8
Black
10
13.9524
20
-58.2905
11
14.2381
21
-58.1476
0
LINE
8
Black
10
14.2381
20
-58.1476
11
14.6666
21
-58.1476
0
LINE
8
Black
10
14.6666
20
-58.1476
11
14.9524
21
-58.2905
0
LINE
8
Black
10
14.9524
20
-58.2905
11
15.0952
21
-58.5762
0
LINE
8
Black
10
15.0952
20
-58.5762
11
15.0952
21
-60.1476
0
LINE
8
Black
10
16.5238
20
-60.1476
11
16.5238
21
-58.1476
0
LINE
8
Black
10
16.5238
20
-58.4334
11
16.6666
21
-58.2905
0
LINE
8
Black
10
16.6666
20
-58.2905
11
16.9524
21
-58.1476
0
LINE
8
Black
10
16.9524
20
-58.1476
11
17.3809
21
-58.1476
0
LINE
8
Black
10
17.3809
20
-58.1476
11
17.6666
21
-58.2905
0
LINE
8
Black
10
17.6666
20
-58.2905
11
17.8095
21
-58.5762
0
LINE
8
Black
10
17.8095
20
-58.5762
11
17.8095
21
-60.1476
0
LINE
8
Black
10
17.8095
20
-58.5762
11
17.9524
21
-58.2905
0
LINE
8
Black
10
17.9524
20
-58.2905
11
18.2381
21
-58.1476
0
LINE
8
Black
10
18.2381
20
-58.1476
11
18.6666
21
-58.1476
0
LINE
8
Black
10
18.6666
20
-58.1476
11
18.9524
21
-58.2905
0
LINE
8
Black
10
18.9524
20
-58.2905
11
19.0952
21
-58.5762
0
LINE
8
Black
10
19.0952
20
-58.5762
11
19.0952
21
-60.1476
0
LINE
8
Black
10
24.9524
20
-57.0048
11
22.3809
21
-60.8619
0
LINE
8
Black
10
28.8095
20
-57.1476
11
29.0952
21
-57.1476
0
LINE
8
Black
10
29.0952
20
-57.1476
11
29.3809
21
-57.2905
0
LINE
8
Black
10
29.3809
20
-57.2905
11
29.5238
21
-57.4334
0
LINE
8
Black
10
29.5238
20
-57.4334
11
29.6666
21
-57.7191
0
LINE
8
Black
10
29.6666
20
-57.7191
11
29.8095
21
-58.2905
0
LINE
8
Black
10
29.8095
20
-58.2905
11
29.8095
21
-59.0048
0
LINE
8
Black
10
29.8095
20
-59.0048
11
29.6666
21
-59.5762
0
LINE
8
Black
10
29.6666
20
-59.5762
11
29.5238
21
-59.8619
0
LINE
8
Black
10
29.5238
20
-59.8619
11
29.3809
21
-60.0048
0
LINE
8
Black
10
29.3809
20
-60.0048
11
29.0952
21
-60.1476
0
LINE
8
Black
10
29.0952
20
-60.1476
11
28.8095
21
-60.1476
0
LINE
8
Black
10
28.8095
20
-60.1476
11
28.5238
21
-60.0048
0
LINE
8
Black
10
28.5238
20
-60.0048
11
28.3809
21
-59.8619
0
LINE
8
Black
10
28.3809
20
-59.8619
11
28.2381
21
-59.5762
0
LINE
8
Black
10
28.2381
20
-59.5762
11
28.0952
21
-59.0048
0
LINE
8
Black
10
28.0952
20
-59.0048
11
28.0952
21
-58.2905
0
LINE
8
Black
10
28.0952
20
-58.2905
11
28.2381
21
-57.7191
0
LINE
8
Black
10
28.2381
20
-57.7191
11
28.3809
21
-57.4334
0
LINE
8
Black
10
28.3809
20
-57.4334
11
28.5238
21
-57.2905
0
LINE
8
Black
10
28.5238
20
-57.2905
11
28.8095
21
-57.1476
0
LINE
8
Black
10
31.0952
20
-59.8619
11
31.2381
21
-60.0048
0
LINE
8
Black
10
31.2381
20
-60.0048
11
31.0952
21
-60.1476
0
LINE
8
Black
10
31.0952
20
-60.1476
11
30.9524
21
-60.0048
0
LINE
8
Black
10
30.9524
20
-60.0048
11
31.0952
21
-59.8619
0
LINE
8
Black
10
31.0952
20
-59.8619
11
31.0952
21
-60.1476
0
LINE
8
Black
10
33.0952
20
-57.1476
11
33.3809
21
-57.1476
0
LINE
8
Black
10
33.3809
20
-57.1476
11
33.6666
21
-57.2905
0
LINE
8
Black
10
33.6666
20
-57.2905
11
33.8095
21
-57.4334
0
LINE
8
Black
10
33.8095
20
-57.4334
11
33.9524
21
-57.7191
0
LINE
8
Black
10
33.9524
20
-57.7191
11
34.0952
21
-58.2905
0
LINE
8
Black
10
34.0952
20
-58.2905
11
34.0952
21
-59.0048
0
LINE
8
Black
10
34.0952
20
-59.0048
11
33.9524
21
-59.5762
0
LINE
8
Black
10
33.9524
20
-59.5762
11
33.8095
21
-59.8619
0
LINE
8
Black
10
33.8095
20
-59.8619
11
33.6666
21
-60.0048
0
LINE
8
Black
10
33.6666
20
-60.0048
11
33.3809
21
-60.1476
0
LINE
8
Black
10
33.3809
20
-60.1476
11
33.0952
21
-60.1476
0
LINE
8
Black
10
33.0952
20
-60.1476
11
32.8095
21
-60.0048
0
LINE
8
Black
10
32.8095
20
-60.0048
11
32.6666
21
-59.8619
0
LINE
8
Black
10
32.6666
20
-59.8619
11
32.5238
21
-59.5762
0
LINE
8
Black
10
32.5238
20
-59.5762
11
32.3809
21
-59.0048
0
LINE
8
Black
10
32.3809
20
-59.0048
11
32.3809
21
-58.2905
0
LINE
8
Black
10
32.3809
20
-58.2905
11
32.5238
21
-57.7191
0
LINE
8
Black
10
32.5238
20
-57.7191
11
32.6666
21
-57.4334
0
LINE
8
Black
10
32.6666
20
-57.4334
11
32.8095
21
-57.2905
0
LINE
8
Black
10
32.8095
20
-57.2905
11
33.0952
21
-57.1476
0
LINE
8
Black
10
35.2381
20
-57.4334
11
35.3809
21
-57.2905
0
LINE
8
Black
10
35.3809
20
-57.2905
11
35.6666
21
-57.1476
0
LINE
8
Black
10
35.6666
20
-57.1476
11
36.3809
21
-57.1476
0
LINE
8
Black
10
36.3809
20
-57.1476
11
36.6666
21
-57.2905
0
LINE
8
Black
10
36.6666
20
-57.2905
11
36.8095
21
-57.4334
0
LINE
8
Black
10
36.8095
20
-57.4334
11
36.9524
21
-57.7191
0
LINE
8
Black
10
36.9524
20
-57.7191
11
36.9524
21
-58.0048
0
LINE
8
Black
10
36.9524
20
-58.0048
11
36.8095
21
-58.4334
0
LINE
8
Black
10
36.8095
20
-58.4334
11
35.0952
21
-60.1476
0
LINE
8
Black
10
35.0952
20
-60.1476
11
36.9524
21
-60.1476
0
LINE
8
Black
10
39.6666
20
-57.1476
11
38.2381
21
-57.1476
0
LINE
8
Black
10
38.2381
20
-57.1476
11
38.0952
21
-58.5762
0
LINE
8
Black
10
38.0952
20
-58.5762
11
38.2381
21
-58.4334
0
LINE
8
Black
10
38.2381
20
-58.4334
11
38.5238
21
-58.2905
0
LINE
8
Black
10
38.5238
20
-58.2905
11
39.2381
21
-58.2905
0
LINE
8
Black
10
39.2381
20
-58.2905
11
39.5238
21
-58.4334
0
LINE
8
Black
10
39.5238
20
-58.4334
11
39.6666
21
-58.5762
0
LINE
8
Black
10
39.6666
20
-58.5762
11
39.8095
21
-58.8619
0
LINE
8
Black
10
39.8095
20
-58.8619
11
39.8095
21
-59.5762
0
LINE
8
Black
10
39.8095
20
-59.5762
11
39.6666
21
-59.8619
0
LINE
8
Black
10
39.6666
20
-59.8619
11
39.5238
21
-60.0048
0
LINE
8
Black
10
39.5238
20
-60.0048
11
39.2381
21
-60.1476
0
LINE
8
Black
10
39.2381
20
-60.1476
11
38.5238
21
-60.1476
0
LINE
8
Black
10
38.5238
20
-60.1476
11
38.2381
21
-60.0048
0
LINE
8
Black
10
38.2381
20
-60.0048
11
38.0952
21
-59.8619
0
LINE
8
Black
10
40.9524
20
-57.1476
11
40.9524
21
-57.7191
0
LINE
8
Black
10
42.0952
20
-57.1476
11
42.0952
21
-57.7191
0
LINE
8
Black
10
46.5238
20
-61.2905
11
46.3809
21
-61.1476
0
LINE
8
Black
10
46.3809
20
-61.1476
11
46.0952
21
-60.7191
0
LINE
8
Black
10
46.0952
20
-60.7191
11
45.9524
21
-60.4334
0
LINE
8
Black
10
45.9524
20
-60.4334
11
45.8095
21
-60.0048
0
LINE
8
Black
10
45.8095
20
-60.0048
11
45.6666
21
-59.2905
0
LINE
8
Black
10
45.6666
20
-59.2905
11
45.6666
21
-58.7191
0
LINE
8
Black
10
45.6666
20
-58.7191
11
45.8095
21
-58.0048
0
LINE
8
Black
10
45.8095
20
-58.0048
11
45.9524
21
-57.5762
0
LINE
8
Black
10
45.9524
20
-57.5762
11
46.0952
21
-57.2905
0
LINE
8
Black
10
46.0952
20
-57.2905
11
46.3809
21
-56.8619
0
LINE
8
Black
10
46.3809
20
-56.8619
11
46.5238
21
-56.7191
0
LINE
8
Black
10
47.5238
20
-57.4334
11
47.6666
21
-57.2905
0
LINE
8
Black
10
47.6666
20
-57.2905
11
47.9524
21
-57.1476
0
LINE
8
Black
10
47.9524
20
-57.1476
11
48.6666
21
-57.1476
0
LINE
8
Black
10
48.6666
20
-57.1476
11
48.9524
21
-57.2905
0
LINE
8
Black
10
48.9524
20
-57.2905
11
49.0952
21
-57.4334
0
LINE
8
Black
10
49.0952
20
-57.4334
11
49.2381
21
-57.7191
0
LINE
8
Black
10
49.2381
20
-57.7191
11
49.2381
21
-58.0048
0
LINE
8
Black
10
49.2381
20
-58.0048
11
49.0952
21
-58.4334
0
LINE
8
Black
10
49.0952
20
-58.4334
11
47.3809
21
-60.1476
0
LINE
8
Black
10
47.3809
20
-60.1476
11
49.2381
21
-60.1476
0
LINE
8
Black
10
50.9524
20
-58.4334
11
50.6666
21
-58.2905
0
LINE
8
Black
10
50.6666
20
-58.2905
11
50.5238
21
-58.1476
0
LINE
8
Black
10
50.5238
20
-58.1476
11
50.3809
21
-57.8619
0
LINE
8
Black
10
50.3809
20
-57.8619
11
50.3809
21
-57.7191
0
LINE
8
Black
10
50.3809
20
-57.7191
11
50.5238
21
-57.4334
0
LINE
8
Black
10
50.5238
20
-57.4334
11
50.6666
21
-57.2905
0
LINE
8
Black
10
50.6666
20
-57.2905
11
50.9524
21
-57.1476
0
LINE
8
Black
10
50.9524
20
-57.1476
11
51.5238
21
-57.1476
0
LINE
8
Black
10
51.5238
20
-57.1476
11
51.8095
21
-57.2905
0
LINE
8
Black
10
51.8095
20
-57.2905
11
51.9524
21
-57.4334
0
LINE
8
Black
10
51.9524
20
-57.4334
11
52.0952
21
-57.7191
0
LINE
8
Black
10
52.0952
20
-57.7191
11
52.0952
21
-57.8619
0
LINE
8
Black
10
52.0952
20
-57.8619
11
51.9524
21
-58.1476
0
LINE
8
Black
10
51.9524
20
-58.1476
11
51.8095
21
-58.2905
0
LINE
8
Black
10
51.8095
20
-58.2905
11
51.5238
21
-58.4334
0
LINE
8
Black
10
51.5238
20
-58.4334
11
50.9524
21
-58.4334
0
LINE
8
Black
10
50.9524
20
-58.4334
11
50.6666
21
-58.5762
0
LINE
8
Black
10
50.6666
20
-58.5762
11
50.5238
21
-58.7191
0
LINE
8
Black
10
50.5238
20
-58.7191
11
50.3809
21
-59.0048
0
LINE
8
Black
10
50.3809
20
-59.0048
11
50.3809
21
-59.5762
0
LINE
8
Black
10
50.3809
20
-59.5762
11
50.5238
21
-59.8619
0
LINE
8
Black
10
50.5238
20
-59.8619
11
50.6666
21
-60.0048
0
LINE
8
Black
10
50.6666
20
-60.0048
11
50.9524
21
-60.1476
0
LINE
8
Black
10
50.9524
20
-60.1476
11
51.5238
21
-60.1476
0
LINE
8
Black
10
51.5238
20
-60.1476
11
51.8095
21
-60.0048
0
LINE
8
Black
10
51.8095
20
-60.0048
11
51.9524
21
-59.8619
0
LINE
8
Black
10
51.9524
20
-59.8619
11
52.0952
21
-59.5762
0
LINE
8
Black
10
52.0952
20
-59.5762
11
52.0952
21
-59.0048
0
LINE
8
Black
10
52.0952
20
-59.0048
11
51.9524
21
-58.7191
0
LINE
8
Black
10
51.9524
20
-58.7191
11
51.8095
21
-58.5762
0
LINE
8
Black
10
51.8095
20
-58.5762
11
51.5238
21
-58.4334
0
LINE
8
Black
10
55.6666
20
-60.1476
11
55.6666
21
-57.1476
0
LINE
8
Black
10
56.9524
20
-60.1476
11
56.9524
21
-58.5762
0
LINE
8
Black
10
56.9524
20
-58.5762
11
56.8095
21
-58.2905
0
LINE
8
Black
10
56.8095
20
-58.2905
11
56.5238
21
-58.1476
0
LINE
8
Black
10
56.5238
20
-58.1476
11
56.0952
21
-58.1476
0
LINE
8
Black
10
56.0952
20
-58.1476
11
55.8095
21
-58.2905
0
LINE
8
Black
10
55.8095
20
-58.2905
11
55.6666
21
-58.4334
0
LINE
8
Black
10
58.8095
20
-60.1476
11
58.5238
21
-60.0048
0
LINE
8
Black
10
58.5238
20
-60.0048
11
58.3809
21
-59.8619
0
LINE
8
Black
10
58.3809
20
-59.8619
11
58.2381
21
-59.5762
0
LINE
8
Black
10
58.2381
20
-59.5762
11
58.2381
21
-58.7191
0
LINE
8
Black
10
58.2381
20
-58.7191
11
58.3809
21
-58.4334
0
LINE
8
Black
10
58.3809
20
-58.4334
11
58.5238
21
-58.2905
0
LINE
8
Black
10
58.5238
20
-58.2905
11
58.8095
21
-58.1476
0
LINE
8
Black
10
58.8095
20
-58.1476
11
59.2381
21
-58.1476
0
LINE
8
Black
10
59.2381
20
-58.1476
11
59.5238
21
-58.2905
0
LINE
8
Black
10
59.5238
20
-58.2905
11
59.6666
21
-58.4334
0
LINE
8
Black
10
59.6666
20
-58.4334
11
59.8095
21
-58.7191
0
LINE
8
Black
10
59.8095
20
-58.7191
11
59.8095
21
-59.5762
0
LINE
8
Black
10
59.8095
20
-59.5762
11
59.6666
21
-59.8619
0
LINE
8
Black
10
59.6666
20
-59.8619
11
59.5238
21
-60.0048
0
LINE
8
Black
10
59.5238
20
-60.0048
11
59.2381
21
-60.1476
0
LINE
8
Black
10
59.2381
20
-60.1476
11
58.8095
21
-60.1476
0
LINE
8
Black
10
61.5238
20
-60.1476
11
61.2381
21
-60.0048
0
LINE
8
Black
10
61.2381
20
-60.0048
11
61.0952
21
-59.7191
0
LINE
8
Black
10
61.0952
20
-59.7191
11
61.0952
21
-57.1476
0
LINE
8
Black
10
63.8095
20
-60.0048
11
63.5238
21
-60.1476
0
LINE
8
Black
10
63.5238
20
-60.1476
11
62.9524
21
-60.1476
0
LINE
8
Black
10
62.9524
20
-60.1476
11
62.6666
21
-60.0048
0
LINE
8
Black
10
62.6666
20
-60.0048
11
62.5238
21
-59.7191
0
LINE
8
Black
10
62.5238
20
-59.7191
11
62.5238
21
-58.5762
0
LINE
8
Black
10
62.5238
20
-58.5762
11
62.6666
21
-58.2905
0
LINE
8
Black
10
62.6666
20
-58.2905
11
62.9524
21
-58.1476
0
LINE
8
Black
10
62.9524
20
-58.1476
11
63.5238
21
-58.1476
0
LINE
8
Black
10
63.5238
20
-58.1476
11
63.8095
21
-58.2905
0
LINE
8
Black
10
63.8095
20
-58.2905
11
63.9524
21
-58.5762
0
LINE
8
Black
10
63.9524
20
-58.5762
11
63.9524
21
-58.8619
0
LINE
8
Black
10
63.9524
20
-58.8619
11
62.5238
21
-59.1476
0
LINE
8
Black
10
65.0952
20
-60.0048
11
65.3809
21
-60.1476
0
LINE
8
Black
10
65.3809
20
-60.1476
11
65.9524
21
-60.1476
0
LINE
8
Black
10
65.9524
20
-60.1476
11
66.2381
21
-60.0048
0
LINE
8
Black
10
66.2381
20
-60.0048
11
66.3809
21
-59.7191
0
LINE
8
Black
10
66.3809
20
-59.7191
11
66.3809
21
-59.5762
0
LINE
8
Black
10
66.3809
20
-59.5762
11
66.2381
21
-59.2905
0
LINE
8
Black
10
66.2381
20
-59.2905
11
65.9524
21
-59.1476
0
LINE
8
Black
10
65.9524
20
-59.1476
11
65.5238
21
-59.1476
0
LINE
8
Black
10
65.5238
20
-59.1476
11
65.2381
21
-59.0048
0
LINE
8
Black
10
65.2381
20
-59.0048
11
65.0952
21
-58.7191
0
LINE
8
Black
10
65.0952
20
-58.7191
11
65.0952
21
-58.5762
0
LINE
8
Black
10
65.0952
20
-58.5762
11
65.2381
21
-58.2905
0
LINE
8
Black
10
65.2381
20
-58.2905
11
65.5238
21
-58.1476
0
LINE
8
Black
10
65.5238
20
-58.1476
11
65.9524
21
-58.1476
0
LINE
8
Black
10
65.9524
20
-58.1476
11
66.2381
21
-58.2905
0
LINE
8
Black
10
67.3809
20
-61.2905
11
67.5238
21
-61.1476
0
LINE
8
Black
10
67.5238
20
-61.1476
11
67.8095
21
-60.7191
0
LINE
8
Black
10
67.8095
20
-60.7191
11
67.9524
21
-60.4334
0
LINE
8
Black
10
67.9524
20
-60.4334
11
68.0952
21
-60.0048
0
LINE
8
Black
10
68.0952
20
-60.0048
11
68.2381
21
-59.2905
0
LINE
8
Black
10
68.2381
20
-59.2905
11
68.2381
21
-58.7191
0
LINE
8
Black
10
68.2381
20
-58.7191
11
68.0952
21
-58.0048
0
LINE
8
Black
10
68.0952
20
-58.0048
11
67.9524
21
-57.5762
0
LINE
8
Black
10
67.9524
20
-57.5762
11
67.8095
21
-57.2905
0
LINE
8
Black
10
67.8095
20
-57.2905
11
67.5238
21
-56.8619
0
LINE
8
Black
10
67.5238
20
-56.8619
11
67.3809
21
-56.7191
0
CIRCLE
8
Black
10
-0.590501
20
-62.7505
40
0.4
0
LINE
8
Black
10
3.09521
20
-61.1076
11
3.38093
21
-61.1076
0
LINE
8
Black
10
3.38093
20
-61.1076
11
3.66664
21
-61.2505
0
LINE
8
Black
10
3.66664
20
-61.2505
11
3.8095
21
-61.3934
0
LINE
8
Black
10
3.8095
20
-61.3934
11
3.95236
21
-61.6791
0
LINE
8
Black
10
3.95236
20
-61.6791
11
4.09521
21
-62.2505
0
LINE
8
Black
10
4.09521
20
-62.2505
11
4.09521
21
-62.9648
0
LINE
8
Black
10
4.09521
20
-62.9648
11
3.95236
21
-63.5362
0
LINE
8
Black
10
3.95236
20
-63.5362
11
3.8095
21
-63.8219
0
LINE
8
Black
10
3.8095
20
-63.8219
11
3.66664
21
-63.9648
0
LINE
8
Black
10
3.66664
20
-63.9648
11
3.38093
21
-64.1076
0
LINE
8
Black
10
3.38093
20
-64.1076
11
3.09521
21
-64.1076
0
LINE
8
Black
10
3.09521
20
-64.1076
11
2.8095
21
-63.9648
0
LINE
8
Black
10
2.8095
20
-63.9648
11
2.66664
21
-63.8219
0
LINE
8
Black
10
2.66664
20
-63.8219
11
2.52379
21
-63.5362
0
LINE
8
Black
10
2.52379
20
-63.5362
11
2.38093
21
-62.9648
0
LINE
8
Black
10
2.38093
20
-62.9648
11
2.38093
21
-62.2505
0
LINE
8
Black
10
2.38093
20
-62.2505
11
2.52379
21
-61.6791
0
LINE
8
Black
10
2.52379
20
-61.6791
11
2.66664
21
-61.3934
0
LINE
8
Black
10
2.66664
20
-61.3934
11
2.8095
21
-61.2505
0
LINE
8
Black
10
2.8095
20
-61.2505
11
3.09521
21
-61.1076
0
LINE
8
Black
10
5.38093
20
-63.8219
11
5.52379
21
-63.9648
0
LINE
8
Black
10
5.52379
20
-63.9648
11
5.38093
21
-64.1076
0
LINE
8
Black
10
5.38093
20
-64.1076
11
5.23807
21
-63.9648
0
LINE
8
Black
10
5.23807
20
-63.9648
11
5.38093
21
-63.8219
0
LINE
8
Black
10
5.38093
20
-63.8219
11
5.38093
21
-64.1076
0
LINE
8
Black
10
7.23807
20
-62.3934
11
6.95236
21
-62.2505
0
LINE
8
Black
10
6.95236
20
-62.2505
11
6.8095
21
-62.1076
0
LINE
8
Black
10
6.8095
20
-62.1076
11
6.66664
21
-61.8219
0
LINE
8
Black
10
6.66664
20
-61.8219
11
6.66664
21
-61.6791
0
LINE
8
Black
10
6.66664
20
-61.6791
11
6.8095
21
-61.3934
0
LINE
8
Black
10
6.8095
20
-61.3934
11
6.95236
21
-61.2505
0
LINE
8
Black
10
6.95236
20
-61.2505
11
7.23807
21
-61.1076
0
LINE
8
Black
10
7.23807
20
-61.1076
11
7.8095
21
-61.1076
0
LINE
8
Black
10
7.8095
20
-61.1076
11
8.09521
21
-61.2505
0
LINE
8
Black
10
8.09521
20
-61.2505
11
8.23807
21
-61.3934
0
LINE
8
Black
10
8.23807
20
-61.3934
11
8.38093
21
-61.6791
0
LINE
8
Black
10
8.38093
20
-61.6791
11
8.38093
21
-61.8219
0
LINE
8
Black
10
8.38093
20
-61.8219
11
8.23807
21
-62.1076
0
LINE
8
Black
10
8.23807
20
-62.1076
11
8.09521
21
-62.2505
0
LINE
8
Black
10
8.09521
20
-62.2505
11
7.8095
21
-62.3934
0
LINE
8
Black
10
7.8095
20
-62.3934
11
7.23807
21
-62.3934
0
LINE
8
Black
10
7.23807
20
-62.3934
11
6.95236
21
-62.5362
0
LINE
8
Black
10
6.95236
20
-62.5362
11
6.8095
21
-62.6791
0
LINE
8
Black
10
6.8095
20
-62.6791
11
6.66664
21
-62.9648
0
LINE
8
Black
10
6.66664
20
-62.9648
11
6.66664
21
-63.5362
0
LINE
8
Black
10
6.66664
20
-63.5362
11
6.8095
21
-63.8219
0
LINE
8
Black
10
6.8095
20
-63.8219
11
6.95236
21
-63.9648
0
LINE
8
Black
10
6.95236
20
-63.9648
11
7.23807
21
-64.1076
0
LINE
8
Black
10
7.23807
20
-64.1076
11
7.8095
21
-64.1076
0
LINE
8
Black
10
7.8095
20
-64.1076
11
8.09521
21
-63.9648
0
LINE
8
Black
10
8.09521
20
-63.9648
11
8.23807
21
-63.8219
0
LINE
8
Black
10
8.23807
20
-63.8219
11
8.38093
21
-63.5362
0
LINE
8
Black
10
8.38093
20
-63.5362
11
8.38093
21
-62.9648
0
LINE
8
Black
10
8.38093
20
-62.9648
11
8.23807
21
-62.6791
0
LINE
8
Black
10
8.23807
20
-62.6791
11
8.09521
21
-62.5362
0
LINE
8
Black
10
8.09521
20
-62.5362
11
7.8095
21
-62.3934
0
LINE
8
Black
10
10.2381
20
-61.1076
11
10.5238
21
-61.1076
0
LINE
8
Black
10
10.5238
20
-61.1076
11
10.8095
21
-61.2505
0
LINE
8
Black
10
10.8095
20
-61.2505
11
10.9524
21
-61.3934
0
LINE
8
Black
10
10.9524
20
-61.3934
11
11.0952
21
-61.6791
0
LINE
8
Black
10
11.0952
20
-61.6791
11
11.2381
21
-62.2505
0
LINE
8
Black
10
11.2381
20
-62.2505
11
11.2381
21
-62.9648
0
LINE
8
Black
10
11.2381
20
-62.9648
11
11.0952
21
-63.5362
0
LINE
8
Black
10
11.0952
20
-63.5362
11
10.9524
21
-63.8219
0
LINE
8
Black
10
10.9524
20
-63.8219
11
10.8095
21
-63.9648
0
LINE
8
Black
10
10.8095
20
-63.9648
11
10.5238
21
-64.1076
0
LINE
8
Black
10
10.5238
20
-64.1076
11
10.2381
21
-64.1076
0
LINE
8
Black
10
10.2381
20
-64.1076
11
9.95236
21
-63.9648
0
LINE
8
Black
10
9.95236
20
-63.9648
11
9.8095
21
-63.8219
0
LINE
8
Black
10
9.8095
20
-63.8219
11
9.66664
21
-63.5362
0
LINE
8
Black
10
9.66664
20
-63.5362
11
9.52379
21
-62.9648
0
LINE
8
Black
10
9.52379
20
-62.9648
11
9.52379
21
-62.2505
0
LINE
8
Black
10
9.52379
20
-62.2505
11
9.66664
21
-61.6791
0
LINE
8
Black
10
9.66664
20
-61.6791
11
9.8095
21
-61.3934
0
LINE
8
Black
10
9.8095
20
-61.3934
11
9.95236
21
-61.2505
0
LINE
8
Black
10
9.95236
20
-61.2505
11
10.2381
21
-61.1076
0
LINE
8
Black
10
12.5238
20
-64.1076
11
12.5238
21
-62.1076
0
LINE
8
Black
10
12.5238
20
-62.3934
11
12.6666
21
-62.2505
0
LINE
8
Black
10
12.6666
20
-62.2505
11
12.9524
21
-62.1076
0
LINE
8
Black
10
12.9524
20
-62.1076
11
13.3809
21
-62.1076
0
LINE
8
Black
10
13.3809
20
-62.1076
11
13.6666
21
-62.2505
0
LINE
8
Black
10
13.6666
20
-62.2505
11
13.8095
21
-62.5362
0
LINE
8
Black
10
13.8095
20
-62.5362
11
13.8095
21
-64.1076
0
LINE
8
Black
10
13.8095
20
-62.5362
11
13.9524
21
-62.2505
0
LINE
8
Black
10
13.9524
20
-62.2505
11
14.2381
21
-62.1076
0
LINE
8
Black
10
14.2381
20
-62.1076
11
14.6666
21
-62.1076
0
LINE
8
Black
10
14.6666
20
-62.1076
11
14.9524
21
-62.2505
0
LINE
8
Black
10
14.9524
20
-62.2505
11
15.0952
21
-62.5362
0
LINE
8
Black
10
15.0952
20
-62.5362
11
15.0952
21
-64.1076
0
LINE
8
Black
10
16.5238
20
-64.1076
11
16.5238
21
-62.1076
0
LINE
8
Black
10
16.5238
20
-62.3934
11
16.6666
21
-62.2505
0
LINE
8
Black
10
16.6666
20
-62.2505
11
16.9524
21
-62.1076
0
LINE
8
Black
10
16.9524
20
-62.1076
11
17.3809
21
-62.1076
0
LINE
8
Black
10
17.3809
20
-62.1076
11
17.6666
21
-62.2505
0
LINE
8
Black
10
17.6666
20
-62.2505
11
17.8095
21
-62.5362
0
LINE
8
Black
10
17.8095
20
-62.5362
11
17.8095
21
-64.1076
0
LINE
8
Black
10
17.8095
20
-62.5362
11
17.9524
21
-62.2505
0
LINE
8
Black
10
17.9524
20
-62.2505
11
18.2381
21
-62.1076
0
LINE
8
Black
10
18.2381
20
-62.1076
11
18.6666
21
-62.1076
0
LINE
8
Black
10
18.6666
20
-62.1076
11
18.9524
21
-62.2505
0
LINE
8
Black
10
18.9524
20
-62.2505
11
19.0952
21
-62.5362
0
LINE
8
Black
10
19.0952
20
-62.5362
11
19.0952
21
-64.1076
0
LINE
8
Black
10
24.9524
20
-60.9648
11
22.3809
21
-64.8219
0
LINE
8
Black
10
28.8095
20
-61.1076
11
29.0952
21
-61.1076
0
LINE
8
Black
10
29.0952
20
-61.1076
11
29.3809
21
-61.2505
0
LINE
8
Black
10
29.3809
20
-61.2505
11
29.5238
21
-61.3934
0
LINE
8
Black
10
29.5238
20
-61.3934
11
29.6666
21
-61.6791
0
LINE
8
Black
10
29.6666
20
-61.6791
11
29.8095
21
-62.2505
0
LINE
8
Black
10
29.8095
20
-62.2505
11
29.8095
21
-62.9648
0
LINE
8
Black
10
29.8095
20
-62.9648
11
29.6666
21
-63.5362
0
LINE
8
Black
10
29.6666
20
-63.5362
11
29.5238
21
-63.8219
0
LINE
8
Black
10
29.5238
20
-63.8219
11
29.3809
21
-63.9648
0
LINE
8
Black
10
29.3809
20
-63.9648
11
29.0952
21
-64.1076
0
LINE
8
Black
10
29.0952
20
-64.1076
11
28.8095
21
-64.1076
0
LINE
8
Black
10
28.8095
20
-64.1076
11
28.5238
21
-63.9648
0
LINE
8
Black
10
28.5238
20
-63.9648
11
28.3809
21
-63.8219
0
LINE
8
Black
10
28.3809
20
-63.8219
11
28.2381
21
-63.5362
0
LINE
8
Black
10
28.2381
20
-63.5362
11
28.0952
21
-62.9648
0
LINE
8
Black
10
28.0952
20
-62.9648
11
28.0952
21
-62.2505
0
LINE
8
Black
10
28.0952
20
-62.2505
11
28.2381
21
-61.6791
0
LINE
8
Black
10
28.2381
20
-61.6791
11
28.3809
21
-61.3934
0
LINE
8
Black
10
28.3809
20
-61.3934
11
28.5238
21
-61.2505
0
LINE
8
Black
10
28.5238
20
-61.2505
11
28.8095
21
-61.1076
0
LINE
8
Black
10
31.0952
20
-63.8219
11
31.2381
21
-63.9648
0
LINE
8
Black
10
31.2381
20
-63.9648
11
31.0952
21
-64.1076
0
LINE
8
Black
10
31.0952
20
-64.1076
11
30.9524
21
-63.9648
0
LINE
8
Black
10
30.9524
20
-63.9648
11
31.0952
21
-63.8219
0
LINE
8
Black
10
31.0952
20
-63.8219
11
31.0952
21
-64.1076
0
LINE
8
Black
10
33.0952
20
-61.1076
11
33.3809
21
-61.1076
0
LINE
8
Black
10
33.3809
20
-61.1076
11
33.6666
21
-61.2505
0
LINE
8
Black
10
33.6666
20
-61.2505
11
33.8095
21
-61.3934
0
LINE
8
Black
10
33.8095
20
-61.3934
11
33.9524
21
-61.6791
0
LINE
8
Black
10
33.9524
20
-61.6791
11
34.0952
21
-62.2505
0
LINE
8
Black
10
34.0952
20
-62.2505
11
34.0952
21
-62.9648
0
LINE
8
Black
10
34.0952
20
-62.9648
11
33.9524
21
-63.5362
0
LINE
8
Black
10
33.9524
20
-63.5362
11
33.8095
21
-63.8219
0
LINE
8
Black
10
33.8095
20
-63.8219
11
33.6666
21
-63.9648
0
LINE
8
Black
10
33.6666
20
-63.9648
11
33.3809
21
-64.1076
0
LINE
8
Black
10
33.3809
20
-64.1076
11
33.0952
21
-64.1076
0
LINE
8
Black
10
33.0952
20
-64.1076
11
32.8095
21
-63.9648
0
LINE
8
Black
10
32.8095
20
-63.9648
11
32.6666
21
-63.8219
0
LINE
8
Black
10
32.6666
20
-63.8219
11
32.5238
21
-63.5362
0
LINE
8
Black
10
32.5238
20
-63.5362
11
32.3809
21
-62.9648
0
LINE
8
Black
10
32.3809
20
-62.9648
11
32.3809
21
-62.2505
0
LINE
8
Black
10
32.3809
20
-62.2505
11
32.5238
21
-61.6791
0
LINE
8
Black
10
32.5238
20
-61.6791
11
32.6666
21
-61.3934
0
LINE
8
Black
10
32.6666
20
-61.3934
11
32.8095
21
-61.2505
0
LINE
8
Black
10
32.8095
20
-61.2505
11
33.0952
21
-61.1076
0
LINE
8
Black
10
35.0952
20
-61.1076
11
36.9524
21
-61.1076
0
LINE
8
Black
10
36.9524
20
-61.1076
11
35.9524
21
-62.2505
0
LINE
8
Black
10
35.9524
20
-62.2505
11
36.3809
21
-62.2505
0
LINE
8
Black
10
36.3809
20
-62.2505
11
36.6666
21
-62.3934
0
LINE
8
Black
10
36.6666
20
-62.3934
11
36.8095
21
-62.5362
0
LINE
8
Black
10
36.8095
20
-62.5362
11
36.9524
21
-62.8219
0
LINE
8
Black
10
36.9524
20
-62.8219
11
36.9524
21
-63.5362
0
LINE
8
Black
10
36.9524
20
-63.5362
11
36.8095
21
-63.8219
0
LINE
8
Black
10
36.8095
20
-63.8219
11
36.6666
21
-63.9648
0
LINE
8
Black
10
36.6666
20
-63.9648
11
36.3809
21
-64.1076
0
LINE
8
Black
10
36.3809
20
-64.1076
11
35.5238
21
-64.1076
0
LINE
8
Black
10
35.5238
20
-64.1076
11
35.2381
21
-63.9648
0
LINE
8
Black
10
35.2381
20
-63.9648
11
35.0952
21
-63.8219
0
LINE
8
Black
10
39.8095
20
-64.1076
11
38.0952
21
-64.1076
0
LINE
8
Black
10
38.9524
20
-64.1076
11
38.9524
21
-61.1076
0
LINE
8
Black
10
38.9524
20
-61.1076
11
38.6666
21
-61.5362
0
LINE
8
Black
10
38.6666
20
-61.5362
11
38.3809
21
-61.8219
0
LINE
8
Black
10
38.3809
20
-61.8219
11
38.0952
21
-61.9648
0
LINE
8
Black
10
40.9524
20
-61.1076
11
40.9524
21
-61.6791
0
LINE
8
Black
10
42.0952
20
-61.1076
11
42.0952
21
-61.6791
0
LINE
8
Black
10
46.5238
20
-65.2505
11
46.3809
21
-65.1076
0
LINE
8
Black
10
46.3809
20
-65.1076
11
46.0952
21
-64.6791
0
LINE
8
Black
10
46.0952
20
-64.6791
11
45.9524
21
-64.3934
0
LINE
8
Black
10
45.9524
20
-64.3934
11
45.8095
21
-63.9648
0
LINE
8
Black
10
45.8095
20
-63.9648
11
45.6666
21
-63.2505
0
LINE
8
Black
10
45.6666
20
-63.2505
11
45.6666
21
-62.6791
0
LINE
8
Black
10
45.6666
20
-62.6791
11
45.8095
21
-61.9648
0
LINE
8
Black
10
45.8095
20
-61.9648
11
45.9524
21
-61.5362
0
LINE
8
Black
10
45.9524
20
-61.5362
11
46.0952
21
-61.2505
0
LINE
8
Black
10
46.0952
20
-61.2505
11
46.3809
21
-60.8219
0
LINE
8
Black
10
46.3809
20
-60.8219
11
46.5238
21
-60.6791
0
LINE
8
Black
10
47.5238
20
-61.3934
11
47.6666
21
-61.2505
0
LINE
8
Black
10
47.6666
20
-61.2505
11
47.9524
21
-61.1076
0
LINE
8
Black
10
47.9524
20
-61.1076
11
48.6666
21
-61.1076
0
LINE
8
Black
10
48.6666
20
-61.1076
11
48.9524
21
-61.2505
0
LINE
8
Black
10
48.9524
20
-61.2505
11
49.0952
21
-61.3934
0
LINE
8
Black
10
49.0952
20
-61.3934
11
49.2381
21
-61.6791
0
LINE
8
Black
10
49.2381
20
-61.6791
11
49.2381
21
-61.9648
0
LINE
8
Black
10
49.2381
20
-61.9648
11
49.0952
21
-62.3934
0
LINE
8
Black
10
49.0952
20
-62.3934
11
47.3809
21
-64.1076
0
LINE
8
Black
10
47.3809
20
-64.1076
11
49.2381
21
-64.1076
0
LINE
8
Black
10
51.8095
20
-62.1076
11
51.8095
21
-64.1076
0
LINE
8
Black
10
51.0952
20
-60.9648
11
50.3809
21
-63.1076
0
LINE
8
Black
10
50.3809
20
-63.1076
11
52.2381
21
-63.1076
0
LINE
8
Black
10
55.6666
20
-64.1076
11
55.6666
21
-61.1076
0
LINE
8
Black
10
56.9524
20
-64.1076
11
56.9524
21
-62.5362
0
LINE
8
Black
10
56.9524
20
-62.5362
11
56.8095
21
-62.2505
0
LINE
8
Black
10
56.8095
20
-62.2505
11
56.5238
21
-62.1076
0
LINE
8
Black
10
56.5238
20
-62.1076
11
56.0952
21
-62.1076
0
LINE
8
Black
10
56.0952
20
-62.1076
11
55.8095
21
-62.2505
0
LINE
8
Black
10
55.8095
20
-62.2505
11
55.6666
21
-62.3934
0
LINE
8
Black
10
58.8095
20
-64.1076
11
58.5238
21
-63.9648
0
LINE
8
Black
10
58.5238
20
-63.9648
11
58.3809
21
-63.8219
0
LINE
8
Black
10
58.3809
20
-63.8219
11
58.2381
21
-63.5362
0
LINE
8
Black
10
58.2381
20
-63.5362
11
58.2381
21
-62.6791
0
LINE
8
Black
10
58.2381
20
-62.6791
11
58.3809
21
-62.3934
0
LINE
8
Black
10
58.3809
20
-62.3934
11
58.5238
21
-62.2505
0
LINE
8
Black
10
58.5238
20
-62.2505
11
58.8095
21
-62.1076
0
LINE
8
Black
10
58.8095
20
-62.1076
11
59.2381
21
-62.1076
0
LINE
8
Black
10
59.2381
20
-62.1076
11
59.5238
21
-62.2505
0
LINE
8
Black
10
59.5238
20
-62.2505
11
59.6666
21
-62.3934
0
LINE
8
Black
10
59.6666
20
-62.3934
11
59.8095
21
-62.6791
0
LINE
8
Black
10
59.8095
20
-62.6791
11
59.8095
21
-63.5362
0
LINE
8
Black
10
59.8095
20
-63.5362
11
59.6666
21
-63.8219
0
LINE
8
Black
10
59.6666
20
-63.8219
11
59.5238
21
-63.9648
0
LINE
8
Black
10
59.5238
20
-63.9648
11
59.2381
21
-64.1076
0
LINE
8
Black
10
59.2381
20
-64.1076
11
58.8095
21
-64.1076
0
LINE
8
Black
10
61.5238
20
-64.1076
11
61.2381
21
-63.9648
0
LINE
8
Black
10
61.2381
20
-63.9648
11
61.0952
21
-63.6791
0
LINE
8
Black
10
61.0952
20
-63.6791
11
61.0952
21
-61.1076
0
LINE
8
Black
10
63.8095
20
-63.9648
11
63.5238
21
-64.1076
0
LINE
8
Black
10
63.5238
20
-64.1076
11
62.9524
21
-64.1076
0
LINE
8
Black
10
62.9524
20
-64.1076
11
62.6666
21
-63.9648
0
LINE
8
Black
10
62.6666
20
-63.9648
11
62.5238
21
-63.6791
0
LINE
8
Black
10
62.5238
20
-63.6791
11
62.5238
21
-62.5362
0
LINE
8
Black
10
62.5238
20
-62.5362
11
62.6666
21
-62.2505
0
LINE
8
Black
10
62.6666
20
-62.2505
11
62.9524
21
-62.1076
0
LINE
8
Black
10
62.9524
20
-62.1076
11
63.5238
21
-62.1076
0
LINE
8
Black
10
63.5238
20
-62.1076
11
63.8095
21
-62.2505
0
LINE
8
Black
10
63.8095
20
-62.2505
11
63.9524
21
-62.5362
0
LINE
8
Black
10
63.9524
20
-62.5362
11
63.9524
21
-62.8219
0
LINE
8
Black
10
63.9524
20
-62.8219
11
62.5238
21
-63.1076
0
LINE
8
Black
10
65.0952
20
-63.9648
11
65.3809
21
-64.1076
0
LINE
8
Black
10
65.3809
20
-64.1076
11
65.9524
21
-64.1076
0
LINE
8
Black
10
65.9524
20
-64.1076
11
66.2381
21
-63.9648
0
LINE
8
Black
10
66.2381
20
-63.9648
11
66.3809
21
-63.6791
0
LINE
8
Black
10
66.3809
20
-63.6791
11
66.3809
21
-63.5362
0
LINE
8
Black
10
66.3809
20
-63.5362
11
66.2381
21
-63.2505
0
LINE
8
Black
10
66.2381
20
-63.2505
11
65.9524
21
-63.1076
0
LINE
8
Black
10
65.9524
20
-63.1076
11
65.5238
21
-63.1076
0
LINE
8
Black
10
65.5238
20
-63.1076
11
65.2381
21
-62.9648
0
LINE
8
Black
10
65.2381
20
-62.9648
11
65.0952
21
-62.6791
0
LINE
8
Black
10
65.0952
20
-62.6791
11
65.0952
21
-62.5362
0
LINE
8
Black
10
65.0952
20
-62.5362
11
65.2381
21
-62.2505
0
LINE
8
Black
10
65.2381
20
-62.2505
11
65.5238
21
-62.1076
0
LINE
8
Black
10
65.5238
20
-62.1076
11
65.9524
21
-62.1076
0
LINE
8
Black
10
65.9524
20
-62.1076
11
66.2381
21
-62.2505
0
LINE
8
Black
10
67.3809
20
-65.2505
11
67.5238
21
-65.1076
0
LINE
8
Black
10
67.5238
20
-65.1076
11
67.8095
21
-64.6791
0
LINE
8
Black
10
67.8095
20
-64.6791
11
67.9524
21
-64.3934
0
LINE
8
Black
10
67.9524
20
-64.3934
11
68.0952
21
-63.9648
0
LINE
8
Black
10
68.0952
20
-63.9648
11
68.2381
21
-63.2505
0
LINE
8
Black
10
68.2381
20
-63.2505
11
68.2381
21
-62.6791
0
LINE
8
Black
10
68.2381
20
-62.6791
11
68.0952
21
-61.9648
0
LINE
8
Black
10
68.0952
20
-61.9648
11
67.9524
21
-61.5362
0
LINE
8
Black
10
67.9524
20
-61.5362
11
67.8095
21
-61.2505
0
LINE
8
Black
10
67.8095
20
-61.2505
11
67.5238
21
-60.8219
0
LINE
8
Black
10
67.5238
20
-60.8219
11
67.3809
21
-60.6791
0
LINE
8
Black
10
-0.690501
20
-66.2105
11
-0.690501
21
-67.2105
0
LINE
8
Black
10
-1.1905
20
-66.7105
11
-0.190501
21
-66.7105
0
LINE
8
Black
10
4.09521
20
-68.0676
11
2.38093
21
-68.0676
0
LINE
8
Black
10
3.23807
20
-68.0676
11
3.23807
21
-65.0676
0
LINE
8
Black
10
3.23807
20
-65.0676
11
2.95236
21
-65.4962
0
LINE
8
Black
10
2.95236
20
-65.4962
11
2.66664
21
-65.7819
0
LINE
8
Black
10
2.66664
20
-65.7819
11
2.38093
21
-65.9248
0
LINE
8
Black
10
5.38093
20
-67.7819
11
5.52379
21
-67.9248
0
LINE
8
Black
10
5.52379
20
-67.9248
11
5.38093
21
-68.0676
0
LINE
8
Black
10
5.38093
20
-68.0676
11
5.23807
21
-67.9248
0
LINE
8
Black
10
5.23807
20
-67.9248
11
5.38093
21
-67.7819
0
LINE
8
Black
10
5.38093
20
-67.7819
11
5.38093
21
-68.0676
0
LINE
8
Black
10
7.38093
20
-65.0676
11
7.66664
21
-65.0676
0
LINE
8
Black
10
7.66664
20
-65.0676
11
7.95236
21
-65.2105
0
LINE
8
Black
10
7.95236
20
-65.2105
11
8.09521
21
-65.3534
0
LINE
8
Black
10
8.09521
20
-65.3534
11
8.23807
21
-65.6391
0
LINE
8
Black
10
8.23807
20
-65.6391
11
8.38093
21
-66.2105
0
LINE
8
Black
10
8.38093
20
-66.2105
11
8.38093
21
-66.9248
0
LINE
8
Black
10
8.38093
20
-66.9248
11
8.23807
21
-67.4962
0
LINE
8
Black
10
8.23807
20
-67.4962
11
8.09521
21
-67.7819
0
LINE
8
Black
10
8.09521
20
-67.7819
11
7.95236
21
-67.9248
0
LINE
8
Black
10
7.95236
20
-67.9248
11
7.66664
21
-68.0676
0
LINE
8
Black
10
7.66664
20
-68.0676
11
7.38093
21
-68.0676
0
LINE
8
Black
10
7.38093
20
-68.0676
11
7.09521
21
-67.9248
0
LINE
8
Black
10
7.09521
20
-67.9248
11
6.95236
21
-67.7819
0
LINE
8
Black
10
6.95236
20
-67.7819
11
6.8095
21
-67.4962
0
LINE
8
Black
10
6.8095
20
-67.4962
11
6.66664
21
-66.9248
0
LINE
8
Black
10
6.66664
20
-66.9248
11
6.66664
21
-66.2105
0
LINE
8
Black
10
6.66664
20
-66.2105
11
6.8095
21
-65.6391
0
LINE
8
Black
10
6.8095
20
-65.6391
11
6.95236
21
-65.3534
0
LINE
8
Black
10
6.95236
20
-65.3534
11
7.09521
21
-65.2105
0
LINE
8
Black
10
7.09521
20
-65.2105
11
7.38093
21
-65.0676
0
LINE
8
Black
10
10.2381
20
-65.0676
11
10.5238
21
-65.0676
0
LINE
8
Black
10
10.5238
20
-65.0676
11
10.8095
21
-65.2105
0
LINE
8
Black
10
10.8095
20
-65.2105
11
10.9524
21
-65.3534
0
LINE
8
Black
10
10.9524
20
-65.3534
11
11.0952
21
-65.6391
0
LINE
8
Black
10
11.0952
20
-65.6391
11
11.2381
21
-66.2105
0
LINE
8
Black
10
11.2381
20
-66.2105
11
11.2381
21
-66.9248
0
LINE
8
Black
10
11.2381
20
-66.9248
11
11.0952
21
-67.4962
0
LINE
8
Black
10
11.0952
20
-67.4962
11
10.9524
21
-67.7819
0
LINE
8
Black
10
10.9524
20
-67.7819
11
10.8095
21
-67.9248
0
LINE
8
Black
10
10.8095
20
-67.9248
11
10.5238
21
-68.0676
0
LINE
8
Black
10
10.5238
20
-68.0676
11
10.2381
21
-68.0676
0
LINE
8
Black
10
10.2381
20
-68.0676
11
9.95236
21
-67.9248
0
LINE
8
Black
10
9.95236
20
-67.9248
11
9.8095
21
-67.7819
0
LINE
8
Black
10
9.8095
20
-67.7819
11
9.66664
21
-67.4962
0
LINE
8
Black
10
9.66664
20
-67.4962
11
9.52379
21
-66.9248
0
LINE
8
Black
10
9.52379
20
-66.9248
11
9.52379
21
-66.2105
0
LINE
8
Black
10
9.52379
20
-66.2105
11
9.66664
21
-65.6391
0
LINE
8
Black
10
9.66664
20
-65.6391
11
9.8095
21
-65.3534
0
LINE
8
Black
10
9.8095
20
-65.3534
11
9.95236
21
-65.2105
0
LINE
8
Black
10
9.95236
20
-65.2105
11
10.2381
21
-65.0676
0
LINE
8
Black
10
12.5238
20
-68.0676
11
12.5238
21
-66.0676
0
LINE
8
Black
10
12.5238
20
-66.3534
11
12.6666
21
-66.2105
0
LINE
8
Black
10
12.6666
20
-66.2105
11
12.9524
21
-66.0676
0
LINE
8
Black
10
12.9524
20
-66.0676
11
13.3809
21
-66.0676
0
LINE
8
Black
10
13.3809
20
-66.0676
11
13.6666
21
-66.2105
0
LINE
8
Black
10
13.6666
20
-66.2105
11
13.8095
21
-66.4962
0
LINE
8
Black
10
13.8095
20
-66.4962
11
13.8095
21
-68.0676
0
LINE
8
Black
10
13.8095
20
-66.4962
11
13.9524
21
-66.2105
0
LINE
8
Black
10
13.9524
20
-66.2105
11
14.2381
21
-66.0676
0
LINE
8
Black
10
14.2381
20
-66.0676
11
14.6666
21
-66.0676
0
LINE
8
Black
10
14.6666
20
-66.0676
11
14.9524
21
-66.2105
0
LINE
8
Black
10
14.9524
20
-66.2105
11
15.0952
21
-66.4962
0
LINE
8
Black
10
15.0952
20
-66.4962
11
15.0952
21
-68.0676
0
LINE
8
Black
10
16.5238
20
-68.0676
11
16.5238
21
-66.0676
0
LINE
8
Black
10
16.5238
20
-66.3534
11
16.6666
21
-66.2105
0
LINE
8
Black
10
16.6666
20
-66.2105
11
16.9524
21
-66.0676
0
LINE
8
Black
10
16.9524
20
-66.0676
11
17.3809
21
-66.0676
0
LINE
8
Black
10
17.3809
20
-66.0676
11
17.6666
21
-66.2105
0
LINE
8
Black
10
17.6666
20
-66.2105
11
17.8095
21
-66.4962
0
LINE
8
Black
10
17.8095
20
-66.4962
11
17.8095
21
-68.0676
0
LINE
8
Black
10
17.8095
20
-66.4962
11
17.9524
21
-66.2105
0
LINE
8
Black
10
17.9524
20
-66.2105
11
18.2381
21
-66.0676
0
LINE
8
Black
10
18.2381
20
-66.0676
11
18.6666
21
-66.0676
0
LINE
8
Black
10
18.6666
20
-66.0676
11
18.9524
21
-66.2105
0
LINE
8
Black
10
18.9524
20
-66.2105
11
19.0952
21
-66.4962
0
LINE
8
Black
10
19.0952
20
-66.4962
11
19.0952
21
-68.0676
0
LINE
8
Black
10
24.9524
20
-64.9248
11
22.3809
21
-68.7819
0
LINE
8
Black
10
28.8095
20
-65.0676
11
29.0952
21
-65.0676
0
LINE
8
Black
10
29.0952
20
-65.0676
11
29.3809
21
-65.2105
0
LINE
8
Black
10
29.3809
20
-65.2105
11
29.5238
21
-65.3534
0
LINE
8
Black
10
29.5238
20
-65.3534
11
29.6666
21
-65.6391
0
LINE
8
Black
10
29.6666
20
-65.6391
11
29.8095
21
-66.2105
0
LINE
8
Black
10
29.8095
20
-66.2105
11
29.8095
21
-66.9248
0
LINE
8
Black
10
29.8095
20
-66.9248
11
29.6666
21
-67.4962
0
LINE
8
Black
10
29.6666
20
-67.4962
11
29.5238
21
-67.7819
0
LINE
8
Black
10
29.5238
20
-67.7819
11
29.3809
21
-67.9248
0
LINE
8
Black
10
29.3809
20
-67.9248
11
29.0952
21
-68.0676
0
LINE
8
Black
10
29.0952
20
-68.0676
11
28.8095
21
-68.0676
0
LINE
8
Black
10
28.8095
20
-68.0676
11
28.5238
21
-67.9248
0
LINE
8
Black
10
28.5238
20
-67.9248
11
28.3809
21
-67.7819
0
LINE
8
Black
10
28.3809
20
-67.7819
11
28.2381
21
-67.4962
0
LINE
8
Black
10
28.2381
20
-67.4962
11
28.0952
21
-66.9248
0
LINE
8
Black
10
28.0952
20
-66.9248
11
28.0952
21
-66.2105
0
LINE
8
Black
10
28.0952
20
-66.2105
11
28.2381
21
-65.6391
0
LINE
8
Black
10
28.2381
20
-65.6391
11
28.3809
21
-65.3534
0
LINE
8
Black
10
28.3809
20
-65.3534
11
28.5238
21
-65.2105
0
LINE
8
Black
10
28.5238
20
-65.2105
11
28.8095
21
-65.0676
0
LINE
8
Black
10
31.0952
20
-67.7819
11
31.2381
21
-67.9248
0
LINE
8
Black
10
31.2381
20
-67.9248
11
31.0952
21
-68.0676
0
LINE
8
Black
10
31.0952
20
-68.0676
11
30.9524
21
-67.9248
0
LINE
8
Black
10
30.9524
20
-67.9248
11
31.0952
21
-67.7819
0
LINE
8
Black
10
31.0952
20
-67.7819
11
31.0952
21
-68.0676
0
LINE
8
Black
10
33.0952
20
-65.0676
11
33.3809
21
-65.0676
0
LINE
8
Black
10
33.3809
20
-65.0676
11
33.6666
21
-65.2105
0
LINE
8
Black
10
33.6666
20
-65.2105
11
33.8095
21
-65.3534
0
LINE
8
Black
10
33.8095
20
-65.3534
11
33.9524
21
-65.6391
0
LINE
8
Black
10
33.9524
20
-65.6391
11
34.0952
21
-66.2105
0
LINE
8
Black
10
34.0952
20
-66.2105
11
34.0952
21
-66.9248
0
LINE
8
Black
10
34.0952
20
-66.9248
11
33.9524
21
-67.4962
0
LINE
8
Black
10
33.9524
20
-67.4962
11
33.8095
21
-67.7819
0
LINE
8
Black
10
33.8095
20
-67.7819
11
33.6666
21
-67.9248
0
LINE
8
Black
10
33.6666
20
-67.9248
11
33.3809
21
-68.0676
0
LINE
8
Black
10
33.3809
20
-68.0676
11
33.0952
21
-68.0676
0
LINE
8
Black
10
33.0952
20
-68.0676
11
32.8095
21
-67.9248
0
LINE
8
Black
10
32.8095
20
-67.9248
11
32.6666
21
-67.7819
0
LINE
8
Black
10
32.6666
20
-67.7819
11
32.5238
21
-67.4962
0
LINE
8
Black
10
32.5238
20
-67.4962
11
32.3809
21
-66.9248
0
LINE
8
Black
10
32.3809
20
-66.9248
11
32.3809
21
-66.2105
0
LINE
8
Black
10
32.3809
20
-66.2105
11
32.5238
21
-65.6391
0
LINE
8
Black
10
32.5238
20
-65.6391
11
32.6666
21
-65.3534
0
LINE
8
Black
10
32.6666
20
-65.3534
11
32.8095
21
-65.2105
0
LINE
8
Black
10
32.8095
20
-65.2105
11
33.0952
21
-65.0676
0
LINE
8
Black
10
35.0952
20
-65.0676
11
36.9524
21
-65.0676
0
LINE
8
Black
10
36.9524
20
-65.0676
11
35.9524
21
-66.2105
0
LINE
8
Black
10
35.9524
20
-66.2105
11
36.3809
21
-66.2105
0
LINE
8
Black
10
36.3809
20
-66.2105
11
36.6666
21
-66.3534
0
LINE
8
Black
10
36.6666
20
-66.3534
11
36.8095
21
-66.4962
0
LINE
8
Black
10
36.8095
20
-66.4962
11
36.9524
21
-66.7819
0
LINE
8
Black
10
36.9524
20
-66.7819
11
36.9524
21
-67.4962
0
LINE
8
Black
10
36.9524
20
-67.4962
11
36.8095
21
-67.7819
0
LINE
8
Black
10
36.8095
20
-67.7819
11
36.6666
21
-67.9248
0
LINE
8
Black
10
36.6666
20
-67.9248
11
36.3809
21
-68.0676
0
LINE
8
Black
10
36.3809
20
-68.0676
11
35.5238
21
-68.0676
0
LINE
8
Black
10
35.5238
20
-68.0676
11
35.2381
21
-67.9248
0
LINE
8
Black
10
35.2381
20
-67.9248
11
35.0952
21
-67.7819
0
LINE
8
Black
10
38.3809
20
-68.0676
11
38.9524
21
-68.0676
0
LINE
8
Black
10
38.9524
20
-68.0676
11
39.2381
21
-67.9248
0
LINE
8
Black
10
39.2381
20
-67.9248
11
39.3809
21
-67.7819
0
LINE
8
Black
10
39.3809
20
-67.7819
11
39.6666
21
-67.3534
0
LINE
8
Black
10
39.6666
20
-67.3534
11
39.8095
21
-66.7819
0
LINE
8
Black
10
39.8095
20
-66.7819
11
39.8095
21
-65.6391
0
LINE
8
Black
10
39.8095
20
-65.6391
11
39.6666
21
-65.3534
0
LINE
8
Black
10
39.6666
20
-65.3534
11
39.5238
21
-65.2105
0
LINE
8
Black
10
39.5238
20
-65.2105
11
39.2381
21
-65.0676
0
LINE
8
Black
10
39.2381
20
-65.0676
11
38.6666
21
-65.0676
0
LINE
8
Black
10
38.6666
20
-65.0676
11
38.3809
21
-65.2105
0
LINE
8
Black
10
38.3809
20
-65.2105
11
38.2381
21
-65.3534
0
LINE
8
Black
10
38.2381
20
-65.3534
11
38.0952
21
-65.6391
0
LINE
8
Black
10
38.0952
20
-65.6391
11
38.0952
21
-66.3534
0
LINE
8
Black
10
38.0952
20
-66.3534
11
38.2381
21
-66.6391
0
LINE
8
Black
10
38.2381
20
-66.6391
11
38.3809
21
-66.7819
0
LINE
8
Black
10
38.3809
20
-66.7819
11
38.6666
21
-66.9248
0
LINE
8
Black
10
38.6666
20
-66.9248
11
39.2381
21
-66.9248
0
LINE
8
Black
10
39.2381
20
-66.9248
11
39.5238
21
-66.7819
0
LINE
8
Black
10
39.5238
20
-66.7819
11
39.6666
21
-66.6391
0
LINE
8
Black
10
39.6666
20
-66.6391
11
39.8095
21
-66.3534
0
LINE
8
Black
10
40.9524
20
-65.0676
11
40.9524
21
-65.6391
0
LINE
8
Black
10
42.0952
20
-65.0676
11
42.0952
21
-65.6391
0
LINE
8
Black
10
46.5238
20
-69.2105
11
46.3809
21
-69.0676
0
LINE
8
Black
10
46.3809
20
-69.0676
11
46.0952
21
-68.6391
0
LINE
8
Black
10
46.0952
20
-68.6391
11
45.9524
21
-68.3534
0
LINE
8
Black
10
45.9524
20
-68.3534
11
45.8095
21
-67.9248
0
LINE
8
Black
10
45.8095
20
-67.9248
11
45.6666
21
-67.2105
0
LINE
8
Black
10
45.6666
20
-67.2105
11
45.6666
21
-66.6391
0
LINE
8
Black
10
45.6666
20
-66.6391
11
45.8095
21
-65.9248
0
LINE
8
Black
10
45.8095
20
-65.9248
11
45.9524
21
-65.4962
0
LINE
8
Black
10
45.9524
20
-65.4962
11
46.0952
21
-65.2105
0
LINE
8
Black
10
46.0952
20
-65.2105
11
46.3809
21
-64.7819
0
LINE
8
Black
10
46.3809
20
-64.7819
11
46.5238
21
-64.6391
0
LINE
8
Black
10
49.2381
20
-68.0676
11
47.5238
21
-68.0676
0
LINE
8
Black
10
48.3809
20
-68.0676
11
48.3809
21
-65.0676
0
LINE
8
Black
10
48.3809
20
-65.0676
11
48.0952
21
-65.4962
0
LINE
8
Black
10
48.0952
20
-65.4962
11
47.8095
21
-65.7819
0
LINE
8
Black
10
47.8095
20
-65.7819
11
47.5238
21
-65.9248
0
LINE
8
Black
10
51.8095
20
-66.0676
11
51.8095
21
-68.0676
0
LINE
8
Black
10
51.0952
20
-64.9248
11
50.3809
21
-67.0676
0
LINE
8
Black
10
50.3809
20
-67.0676
11
52.2381
21
-67.0676
0
LINE
8
Black
10
55.6666
20
-68.0676
11
55.6666
21
-65.0676
0
LINE
8
Black
10
56.9524
20
-68.0676
11
56.9524
21
-66.4962
0
LINE
8
Black
10
56.9524
20
-66.4962
11
56.8095
21
-66.2105
0
LINE
8
Black
10
56.8095
20
-66.2105
11
56.5238
21
-66.0676
0
LINE
8
Black
10
56.5238
20
-66.0676
11
56.0952
21
-66.0676
0
LINE
8
Black
10
56.0952
20
-66.0676
11
55.8095
21
-66.2105
0
LINE
8
Black
10
55.8095
20
-66.2105
11
55.6666
21
-66.3534
0
LINE
8
Black
10
58.8095
20
-68.0676
11
58.5238
21
-67.9248
0
LINE
8
Black
10
58.5238
20
-67.9248
11
58.3809
21
-67.7819
0
LINE
8
Black
10
58.3809
20
-67.7819
11
58.2381
21
-67.4962
0
LINE
8
Black
10
58.2381
20
-67.4962
11
58.2381
21
-66.6391
0
LINE
8
Black
10
58.2381
20
-66.6391
11
58.3809
21
-66.3534
0
LINE
8
Black
10
58.3809
20
-66.3534
11
58.5238
21
-66.2105
0
LINE
8
Black
10
58.5238
20
-66.2105
11
58.8095
21
-66.0676
0
LINE
8
Black
10
58.8095
20
-66.0676
11
59.2381
21
-66.0676
0
LINE
8
Black
10
59.2381
20
-66.0676
11
59.5238
21
-66.2105
0
LINE
8
Black
10
59.5238
20
-66.2105
11
59.6666
21
-66.3534
0
LINE
8
Black
10
59.6666
20
-66.3534
11
59.8095
21
-66.6391
0
LINE
8
Black
10
59.8095
20
-66.6391
11
59.8095
21
-67.4962
0
LINE
8
Black
10
59.8095
20
-67.4962
11
59.6666
21
-67.7819
0
LINE
8
Black
10
59.6666
20
-67.7819
11
59.5238
21
-67.9248
0
LINE
8
Black
10
59.5238
20
-67.9248
11
59.2381
21
-68.0676
0
LINE
8
Black
10
59.2381
20
-68.0676
11
58.8095
21
-68.0676
0
LINE
8
Black
10
61.5238
20
-68.0676
11
61.2381
21
-67.9248
0
LINE
8
Black
10
61.2381
20
-67.9248
11
61.0952
21
-67.6391
0
LINE
8
Black
10
61.0952
20
-67.6391
11
61.0952
21
-65.0676
0
LINE
8
Black
10
63.8095
20
-67.9248
11
63.5238
21
-68.0676
0
LINE
8
Black
10
63.5238
20
-68.0676
11
62.9524
21
-68.0676
0
LINE
8
Black
10
62.9524
20
-68.0676
11
62.6666
21
-67.9248
0
LINE
8
Black
10
62.6666
20
-67.9248
11
62.5238
21
-67.6391
0
LINE
8
Black
10
62.5238
20
-67.6391
11
62.5238
21
-66.4962
0
LINE
8
Black
10
62.5238
20
-66.4962
11
62.6666
21
-66.2105
0
LINE
8
Black
10
62.6666
20
-66.2105
11
62.9524
21
-66.0676
0
LINE
8
Black
10
62.9524
20
-66.0676
11
63.5238
21
-66.0676
0
LINE
8
Black
10
63.5238
20
-66.0676
11
63.8095
21
-66.2105
0
LINE
8
Black
10
63.8095
20
-66.2105
11
63.9524
21
-66.4962
0
LINE
8
Black
10
63.9524
20
-66.4962
11
63.9524
21
-66.7819
0
LINE
8
Black
10
63.9524
20
-66.7819
11
62.5238
21
-67.0676
0
LINE
8
Black
10
65.0952
20
-67.9248
11
65.3809
21
-68.0676
0
LINE
8
Black
10
65.3809
20
-68.0676
11
65.9524
21
-68.0676
0
LINE
8
Black
10
65.9524
20
-68.0676
11
66.2381
21
-67.9248
0
LINE
8
Black
10
66.2381
20
-67.9248
11
66.3809
21
-67.6391
0
LINE
8
Black
10
66.3809
20
-67.6391
11
66.3809
21
-67.4962
0
LINE
8
Black
10
66.3809
20
-67.4962
11
66.2381
21
-67.2105
0
LINE
8
Black
10
66.2381
20
-67.2105
11
65.9524
21
-67.0676
0
LINE
8
Black
10
65.9524
20
-67.0676
11
65.5238
21
-67.0676
0
LINE
8
Black
10
65.5238
20
-67.0676
11
65.2381
21
-66.9248
0
LINE
8
Black
10
65.2381
20
-66.9248
11
65.0952
21
-66.6391
0
LINE
8
Black
10
65.0952
20
-66.6391
11
65.0952
21
-66.4962
0
LINE
8
Black
10
65.0952
20
-66.4962
11
65.2381
21
-66.2105
0
LINE
8
Black
10
65.2381
20
-66.2105
11
65.5238
21
-66.0676
0
LINE
8
Black
10
65.5238
20
-66.0676
11
65.9524
21
-66.0676
0
LINE
8
Black
10
65.9524
20
-66.0676
11
66.2381
21
-66.2105
0
LINE
8
Black
10
67.3809
20
-69.2105
11
67.5238
21
-69.0676
0
LINE
8
Black
10
67.5238
20
-69.0676
11
67.8095
21
-68.6391
0
LINE
8
Black
10
67.8095
20
-68.6391
11
67.9524
21
-68.3534
0
LINE
8
Black
10
67.9524
20
-68.3534
11
68.0952
21
-67.9248
0
LINE
8
Black
10
68.0952
20
-67.9248
11
68.2381
21
-67.2105
0
LINE
8
Black
10
68.2381
20
-67.2105
11
68.2381
21
-66.6391
0
LINE
8
Black
10
68.2381
20
-66.6391
11
68.0952
21
-65.9248
0
LINE
8
Black
10
68.0952
20
-65.9248
11
67.9524
21
-65.4962
0
LINE
8
Black
10
67.9524
20
-65.4962
11
67.8095
21
-65.2105
0
LINE
8
Black
10
67.8095
20
-65.2105
11
67.5238
21
-64.7819
0
LINE
8
Black
10
67.5238
20
-64.7819
11
67.3809
21
-64.6391
0
LINE
8
Black
10
-0.655458
20
-71.793
11
-0.655458
21
-69.548
0
LINE
8
Black
10
-0.655458
20
-69.548
11
-2.90054
21
-69.548
0
LINE
8
Black
10
-2.90054
20
-69.548
11
-2.90054
21
-71.793
0
LINE
8
Black
10
-2.90054
20
-71.793
11
-0.655458
21
-71.793
0
LINE
8
Black
10
2.23807
20
-69.0276
11
4.09521
21
-69.0276
0
LINE
8
Black
10
4.09521
20
-69.0276
11
3.09521
21
-70.1705
0
LINE
8
Black
10
3.09521
20
-70.1705
11
3.52379
21
-70.1705
0
LINE
8
Black
10
3.52379
20
-70.1705
11
3.8095
21
-70.3134
0
LINE
8
Black
10
3.8095
20
-70.3134
11
3.95236
21
-70.4562
0
LINE
8
Black
10
3.95236
20
-70.4562
11
4.09521
21
-70.7419
0
LINE
8
Black
10
4.09521
20
-70.7419
11
4.09521
21
-71.4562
0
LINE
8
Black
10
4.09521
20
-71.4562
11
3.95236
21
-71.7419
0
LINE
8
Black
10
3.95236
20
-71.7419
11
3.8095
21
-71.8848
0
LINE
8
Black
10
3.8095
20
-71.8848
11
3.52379
21
-72.0276
0
LINE
8
Black
10
3.52379
20
-72.0276
11
2.66664
21
-72.0276
0
LINE
8
Black
10
2.66664
20
-72.0276
11
2.38093
21
-71.8848
0
LINE
8
Black
10
2.38093
20
-71.8848
11
2.23807
21
-71.7419
0
LINE
8
Black
10
5.38093
20
-71.7419
11
5.52379
21
-71.8848
0
LINE
8
Black
10
5.52379
20
-71.8848
11
5.38093
21
-72.0276
0
LINE
8
Black
10
5.38093
20
-72.0276
11
5.23807
21
-71.8848
0
LINE
8
Black
10
5.23807
20
-71.8848
11
5.38093
21
-71.7419
0
LINE
8
Black
10
5.38093
20
-71.7419
11
5.38093
21
-72.0276
0
LINE
8
Black
10
8.38093
20
-72.0276
11
6.66664
21
-72.0276
0
LINE
8
Black
10
7.52378
20
-72.0276
11
7.52378
21
-69.0276
0
LINE
8
Black
10
7.52378
20
-69.0276
11
7.23807
21
-69.4562
0
LINE
8
Black
10
7.23807
20
-69.4562
11
6.95236
21
-69.7419
0
LINE
8
Black
10
6.95236
20
-69.7419
11
6.66664
21
-69.8848
0
LINE
8
Black
10
9.38093
20
-69.0276
11
11.3809
21
-69.0276
0
LINE
8
Black
10
11.3809
20
-69.0276
11
10.0952
21
-72.0276
0
LINE
8
Black
10
12.5238
20
-72.0276
11
12.5238
21
-70.0276
0
LINE
8
Black
10
12.5238
20
-70.3134
11
12.6666
21
-70.1705
0
LINE
8
Black
10
12.6666
20
-70.1705
11
12.9524
21
-70.0276
0
LINE
8
Black
10
12.9524
20
-70.0276
11
13.3809
21
-70.0276
0
LINE
8
Black
10
13.3809
20
-70.0276
11
13.6666
21
-70.1705
0
LINE
8
Black
10
13.6666
20
-70.1705
11
13.8095
21
-70.4562
0
LINE
8
Black
10
13.8095
20
-70.4562
11
13.8095
21
-72.0276
0
LINE
8
Black
10
13.8095
20
-70.4562
11
13.9524
21
-70.1705
0
LINE
8
Black
10
13.9524
20
-70.1705
11
14.2381
21
-70.0276
0
LINE
8
Black
10
14.2381
20
-70.0276
11
14.6666
21
-70.0276
0
LINE
8
Black
10
14.6666
20
-70.0276
11
14.9524
21
-70.1705
0
LINE
8
Black
10
14.9524
20
-70.1705
11
15.0952
21
-70.4562
0
LINE
8
Black
10
15.0952
20
-70.4562
11
15.0952
21
-72.0276
0
LINE
8
Black
10
16.5238
20
-72.0276
11
16.5238
21
-70.0276
0
LINE
8
Black
10
16.5238
20
-70.3134
11
16.6666
21
-70.1705
0
LINE
8
Black
10
16.6666
20
-70.1705
11
16.9524
21
-70.0276
0
LINE
8
Black
10
16.9524
20
-70.0276
11
17.3809
21
-70.0276
0
LINE
8
Black
10
17.3809
20
-70.0276
11
17.6666
21
-70.1705
0
LINE
8
Black
10
17.6666
20
-70.1705
11
17.8095
21
-70.4562
0
LINE
8
Black
10
17.8095
20
-70.4562
11
17.8095
21
-72.0276
0
LINE
8
Black
10
17.8095
20
-70.4562
11
17.9524
21
-70.1705
0
LINE
8
Black
10
17.9524
20
-70.1705
11
18.2381
21
-70.0276
0
LINE
8
Black
10
18.2381
20
-70.0276
11
18.6666
21
-70.0276
0
LINE
8
Black
10
18.6666
20
-70.0276
11
18.9524
21
-70.1705
0
LINE
8
Black
10
18.9524
20
-70.1705
11
19.0952
21
-70.4562
0
LINE
8
Black
10
19.0952
20
-70.4562
11
19.0952
21
-72.0276
0
LINE
8
Black
10
24.9524
20
-68.8848
11
22.3809
21
-72.7419
0
LINE
8
Black
10
28.8095
20
-69.0276
11
29.0952
21
-69.0276
0
LINE
8
Black
10
29.0952
20
-69.0276
11
29.3809
21
-69.1705
0
LINE
8
Black
10
29.3809
20
-69.1705
11
29.5238
21
-69.3134
0
LINE
8
Black
10
29.5238
20
-69.3134
11
29.6666
21
-69.5991
0
LINE
8
Black
10
29.6666
20
-69.5991
11
29.8095
21
-70.1705
0
LINE
8
Black
10
29.8095
20
-70.1705
11
29.8095
21
-70.8848
0
LINE
8
Black
10
29.8095
20
-70.8848
11
29.6666
21
-71.4562
0
LINE
8
Black
10
29.6666
20
-71.4562
11
29.5238
21
-71.7419
0
LINE
8
Black
10
29.5238
20
-71.7419
11
29.3809
21
-71.8848
0
LINE
8
Black
10
29.3809
20
-71.8848
11
29.0952
21
-72.0276
0
LINE
8
Black
10
29.0952
20
-72.0276
11
28.8095
21
-72.0276
0
LINE
8
Black
10
28.8095
20
-72.0276
11
28.5238
21
-71.8848
0
LINE
8
Black
10
28.5238
20
-71.8848
11
28.3809
21
-71.7419
0
LINE
8
Black
10
28.3809
20
-71.7419
11
28.2381
21
-71.4562
0
LINE
8
Black
10
28.2381
20
-71.4562
11
28.0952
21
-70.8848
0
LINE
8
Black
10
28.0952
20
-70.8848
11
28.0952
21
-70.1705
0
LINE
8
Black
10
28.0952
20
-70.1705
11
28.2381
21
-69.5991
0
LINE
8
Black
10
28.2381
20
-69.5991
11
28.3809
21
-69.3134
0
LINE
8
Black
10
28.3809
20
-69.3134
11
28.5238
21
-69.1705
0
LINE
8
Black
10
28.5238
20
-69.1705
11
28.8095
21
-69.0276
0
LINE
8
Black
10
31.0952
20
-71.7419
11
31.2381
21
-71.8848
0
LINE
8
Black
10
31.2381
20
-71.8848
11
31.0952
21
-72.0276
0
LINE
8
Black
10
31.0952
20
-72.0276
11
30.9524
21
-71.8848
0
LINE
8
Black
10
30.9524
20
-71.8848
11
31.0952
21
-71.7419
0
LINE
8
Black
10
31.0952
20
-71.7419
11
31.0952
21
-72.0276
0
LINE
8
Black
10
34.0952
20
-72.0276
11
32.3809
21
-72.0276
0
LINE
8
Black
10
33.2381
20
-72.0276
11
33.2381
21
-69.0276
0
LINE
8
Black
10
33.2381
20
-69.0276
11
32.9524
21
-69.4562
0
LINE
8
Black
10
32.9524
20
-69.4562
11
32.6666
21
-69.7419
0
LINE
8
Black
10
32.6666
20
-69.7419
11
32.3809
21
-69.8848
0
LINE
8
Black
10
35.2381
20
-69.3134
11
35.3809
21
-69.1705
0
LINE
8
Black
10
35.3809
20
-69.1705
11
35.6666
21
-69.0276
0
LINE
8
Black
10
35.6666
20
-69.0276
11
36.3809
21
-69.0276
0
LINE
8
Black
10
36.3809
20
-69.0276
11
36.6666
21
-69.1705
0
LINE
8
Black
10
36.6666
20
-69.1705
11
36.8095
21
-69.3134
0
LINE
8
Black
10
36.8095
20
-69.3134
11
36.9524
21
-69.5991
0
LINE
8
Black
10
36.9524
20
-69.5991
11
36.9524
21
-69.8848
0
LINE
8
Black
10
36.9524
20
-69.8848
11
36.8095
21
-70.3134
0
LINE
8
Black
10
36.8095
20
-70.3134
11
35.0952
21
-72.0276
0
LINE
8
Black
10
35.0952
20
-72.0276
11
36.9524
21
-72.0276
0
LINE
8
Black
10
39.6666
20
-69.0276
11
38.2381
21
-69.0276
0
LINE
8
Black
10
38.2381
20
-69.0276
11
38.0952
21
-70.4562
0
LINE
8
Black
10
38.0952
20
-70.4562
11
38.2381
21
-70.3134
0
LINE
8
Black
10
38.2381
20
-70.3134
11
38.5238
21
-70.1705
0
LINE
8
Black
10
38.5238
20
-70.1705
11
39.2381
21
-70.1705
0
LINE
8
Black
10
39.2381
20
-70.1705
11
39.5238
21
-70.3134
0
LINE
8
Black
10
39.5238
20
-70.3134
11
39.6666
21
-70.4562
0
LINE
8
Black
10
39.6666
20
-70.4562
11
39.8095
21
-70.7419
0
LINE
8
Black
10
39.8095
20
-70.7419
11
39.8095
21
-71.4562
0
LINE
8
Black
10
39.8095
20
-71.4562
11
39.6666
21
-71.7419
0
LINE
8
Black
10
39.6666
20
-71.7419
11
39.5238
21
-71.8848
0
LINE
8
Black
10
39.5238
20
-71.8848
11
39.2381
21
-72.0276
0
LINE
8
Black
10
39.2381
20
-72.0276
11
38.5238
21
-72.0276
0
LINE
8
Black
10
38.5238
20
-72.0276
11
38.2381
21
-71.8848
0
LINE
8
Black
10
38.2381
20
-71.8848
11
38.0952
21
-71.7419
0
LINE
8
Black
10
40.9524
20
-69.0276
11
40.9524
21
-69.5991
0
LINE
8
Black
10
42.0952
20
-69.0276
11
42.0952
21
-69.5991
0
LINE
8
Black
10
46.5238
20
-73.1705
11
46.3809
21
-73.0276
0
LINE
8
Black
10
46.3809
20
-73.0276
11
46.0952
21
-72.5991
0
LINE
8
Black
10
46.0952
20
-72.5991
11
45.9524
21
-72.3134
0
LINE
8
Black
10
45.9524
20
-72.3134
11
45.8095
21
-71.8848
0
LINE
8
Black
10
45.8095
20
-71.8848
11
45.6666
21
-71.1705
0
LINE
8
Black
10
45.6666
20
-71.1705
11
45.6666
21
-70.5991
0
LINE
8
Black
10
45.6666
20
-70.5991
11
45.8095
21
-69.8848
0
LINE
8
Black
10
45.8095
20
-69.8848
11
45.9524
21
-69.4562
0
LINE
8
Black
10
45.9524
20
-69.4562
11
46.0952
21
-69.1705
0
LINE
8
Black
10
46.0952
20
-69.1705
11
46.3809
21
-68.7419
0
LINE
8
Black
10
46.3809
20
-68.7419
11
46.5238
21
-68.5991
0
LINE
8
Black
10
48.9524
20
-70.0276
11
48.9524
21
-72.0276
0
LINE
8
Black
10
48.2381
20
-68.8848
11
47.5238
21
-71.0276
0
LINE
8
Black
10
47.5238
20
-71.0276
11
49.3809
21
-71.0276
0
LINE
8
Black
10
52.8095
20
-72.0276
11
52.8095
21
-69.0276
0
LINE
8
Black
10
54.0952
20
-72.0276
11
54.0952
21
-70.4562
0
LINE
8
Black
10
54.0952
20
-70.4562
11
53.9524
21
-70.1705
0
LINE
8
Black
10
53.9524
20
-70.1705
11
53.6666
21
-70.0276
0
LINE
8
Black
10
53.6666
20
-70.0276
11
53.2381
21
-70.0276
0
LINE
8
Black
10
53.2381
20
-70.0276
11
52.9524
21
-70.1705
0
LINE
8
Black
10
52.9524
20
-70.1705
11
52.8095
21
-70.3134
0
LINE
8
Black
10
55.9524
20
-72.0276
11
55.6666
21
-71.8848
0
LINE
8
Black
10
55.6666
20
-71.8848
11
55.5238
21
-71.7419
0
LINE
8
Black
10
55.5238
20
-71.7419
11
55.3809
21
-71.4562
0
LINE
8
Black
10
55.3809
20
-71.4562
11
55.3809
21
-70.5991
0
LINE
8
Black
10
55.3809
20
-70.5991
11
55.5238
21
-70.3134
0
LINE
8
Black
10
55.5238
20
-70.3134
11
55.6666
21
-70.1705
0
LINE
8
Black
10
55.6666
20
-70.1705
11
55.9524
21
-70.0276
0
LINE
8
Black
10
55.9524
20
-70.0276
11
56.3809
21
-70.0276
0
LINE
8
Black
10
56.3809
20
-70.0276
11
56.6666
21
-70.1705
0
LINE
8
Black
10
56.6666
20
-70.1705
11
56.8095
21
-70.3134
0
LINE
8
Black
10
56.8095
20
-70.3134
11
56.9524
21
-70.5991
0
LINE
8
Black
10
56.9524
20
-70.5991
11
56.9524
21
-71.4562
0
LINE
8
Black
10
56.9524
20
-71.4562
11
56.8095
21
-71.7419
0
LINE
8
Black
10
56.8095
20
-71.7419
11
56.6666
21
-71.8848
0
LINE
8
Black
10
56.6666
20
-71.8848
11
56.3809
21
-72.0276
0
LINE
8
Black
10
56.3809
20
-72.0276
11
55.9524
21
-72.0276
0
LINE
8
Black
10
58.6666
20
-72.0276
11
58.3809
21
-71.8848
0
LINE
8
Black
10
58.3809
20
-71.8848
11
58.2381
21
-71.5991
0
LINE
8
Black
10
58.2381
20
-71.5991
11
58.2381
21
-69.0276
0
LINE
8
Black
10
60.9524
20
-71.8848
11
60.6666
21
-72.0276
0
LINE
8
Black
10
60.6666
20
-72.0276
11
60.0952
21
-72.0276
0
LINE
8
Black
10
60.0952
20
-72.0276
11
59.8095
21
-71.8848
0
LINE
8
Black
10
59.8095
20
-71.8848
11
59.6666
21
-71.5991
0
LINE
8
Black
10
59.6666
20
-71.5991
11
59.6666
21
-70.4562
0
LINE
8
Black
10
59.6666
20
-70.4562
11
59.8095
21
-70.1705
0
LINE
8
Black
10
59.8095
20
-70.1705
11
60.0952
21
-70.0276
0
LINE
8
Black
10
60.0952
20
-70.0276
11
60.6666
21
-70.0276
0
LINE
8
Black
10
60.6666
20
-70.0276
11
60.9524
21
-70.1705
0
LINE
8
Black
10
60.9524
20
-70.1705
11
61.0952
21
-70.4562
0
LINE
8
Black
10
61.0952
20
-70.4562
11
61.0952
21
-70.7419
0
LINE
8
Black
10
61.0952
20
-70.7419
11
59.6666
21
-71.0276
0
LINE
8
Black
10
62.2381
20
-71.8848
11
62.5238
21
-72.0276
0
LINE
8
Black
10
62.5238
20
-72.0276
11
63.0952
21
-72.0276
0
LINE
8
Black
10
63.0952
20
-72.0276
11
63.3809
21
-71.8848
0
LINE
8
Black
10
63.3809
20
-71.8848
11
63.5238
21
-71.5991
0
LINE
8
Black
10
63.5238
20
-71.5991
11
63.5238
21
-71.4562
0
LINE
8
Black
10
63.5238
20
-71.4562
11
63.3809
21
-71.1705
0
LINE
8
Black
10
63.3809
20
-71.1705
11
63.0952
21
-71.0276
0
LINE
8
Black
10
63.0952
20
-71.0276
11
62.6666
21
-71.0276
0
LINE
8
Black
10
62.6666
20
-71.0276
11
62.3809
21
-70.8848
0
LINE
8
Black
10
62.3809
20
-70.8848
11
62.2381
21
-70.5991
0
LINE
8
Black
10
62.2381
20
-70.5991
11
62.2381
21
-70.4562
0
LINE
8
Black
10
62.2381
20
-70.4562
11
62.3809
21
-70.1705
0
LINE
8
Black
10
62.3809
20
-70.1705
11
62.6666
21
-70.0276
0
LINE
8
Black
10
62.6666
20
-70.0276
11
63.0952
21
-70.0276
0
LINE
8
Black
10
63.0952
20
-70.0276
11
63.3809
21
-70.1705
0
LINE
8
Black
10
64.5238
20
-73.1705
11
64.6666
21
-73.0276
0
LINE
8
Black
10
64.6666
20
-73.0276
11
64.9524
21
-72.5991
0
LINE
8
Black
10
64.9524
20
-72.5991
11
65.0952
21
-72.3134
0
LINE
8
Black
10
65.0952
20
-72.3134
11
65.2381
21
-71.8848
0
LINE
8
Black
10
65.2381
20
-71.8848
11
65.3809
21
-71.1705
0
LINE
8
Black
10
65.3809
20
-71.1705
11
65.3809
21
-70.5991
0
LINE
8
Black
10
65.3809
20
-70.5991
11
65.2381
21
-69.8848
0
LINE
8
Black
10
65.2381
20
-69.8848
11
65.0952
21
-69.4562
0
LINE
8
Black
10
65.0952
20
-69.4562
11
64.9524
21
-69.1705
0
LINE
8
Black
10
64.9524
20
-69.1705
11
64.6666
21
-68.7419
0
LINE
8
Black
10
64.6666
20
-68.7419
11
64.5238
21
-68.5991
  0
ENDSEC
  0
EOF
