M48
INCH,TZ
T1C0.006
T2C0.008
T3C0.025
T4C0.039
T5C0.120
%
G90
G05
T1
X42854Y-36496
X42854Y-36949
X43169Y-37402
X43484Y-37756
X43878Y-38189
X43957Y-36496
X44173Y-36890
X44193Y-38484
X44469Y-37224
X44705Y-38484
X44843Y-37421
X45020Y-34252
X45020Y-34646
X45020Y-35039
X45098Y-36476
X45118Y-33858
X45217Y-38484
X45276Y-37421
X45433Y-33563
X45512Y-36181
X45709Y-33268
X45728Y-38484
X45768Y-37205
X45846Y-35886
X45945Y-34646
X45945Y-35039
X45945Y-35433
X45984Y-25512
X45984Y-25906
X45984Y-26299
X45984Y-26693
X45984Y-27087
X45984Y-27480
X45984Y-27874
X45984Y-28268
X45984Y-28661
X45984Y-29055
X45984Y-29449
X45984Y-29843
X45984Y-30236
X45984Y-30630
X45984Y-31024
X45984Y-31417
X45984Y-31811
X45984Y-32205
X45984Y-32598
X45984Y-32992
X46043Y-34154
X46122Y-36870
X46181Y-38287
X46201Y-25197
X46398Y-33819
X46437Y-36575
X46516Y-24882
X46575Y-37913
X46713Y-33524
X46713Y-36240
X46811Y-34646
X46811Y-35039
X46811Y-35433
X46811Y-35827
X46850Y-24567
X46890Y-25906
X46890Y-26299
X46890Y-26693
X46890Y-27087
X46890Y-27480
X46890Y-27874
X46890Y-28268
X46890Y-28661
X46890Y-29055
X46890Y-29449
X46890Y-29843
X46890Y-30236
X46890Y-30630
X46890Y-31024
X46890Y-31417
X46890Y-31811
X46890Y-32205
X46890Y-32598
X46890Y-32992
X46909Y-37539
X47146Y-34291
X47165Y-25610
X47224Y-24272
X47441Y-25374
X47520Y-33917
X47776Y-35965
X47776Y-36535
X47795Y-31417
X47795Y-31811
X47795Y-32205
X47795Y-32598
X47795Y-32992
X47795Y-33386
T2
X49409Y-23583
X49409Y-25945
X49409Y-28366
X49409Y-30728
X49409Y-33071
X49409Y-35433
X49803Y-23386
X49803Y-23780
X49803Y-25748
X49803Y-26142
X49803Y-28169
X49803Y-28563
X49803Y-30531
X49803Y-30925
X49803Y-32874
X49803Y-33268
X49803Y-35236
X49803Y-35630
X50197Y-23583
X50197Y-25945
X50197Y-28366
X50197Y-30728
X50197Y-33071
X50197Y-35433
X50591Y-23386
X50591Y-23780
X50591Y-25748
X50591Y-26142
X50591Y-28169
X50591Y-28563
X50591Y-30531
X50591Y-30925
X50591Y-32874
X50591Y-33268
X50591Y-35236
X50591Y-35630
X50984Y-23583
X50984Y-25945
X50984Y-28366
X50984Y-30728
X50984Y-33071
X50984Y-35433
T3
X39921Y-35886
X41988Y-28110
X42146Y-35886
X42402Y-32972
X43366Y-34154
X43976Y-30591
X44035Y-26181
X44508Y-29272
X44902Y-30650
X45531Y-26220
X45610Y-30650
T4
X40413Y-23150
X40413Y-24150
X40413Y-25150
X40413Y-26150
X40413Y-27150
X40413Y-29039
X40413Y-30039
X40413Y-31039
X43669Y-22992
X44669Y-22992
X45669Y-22992
X48228Y-24803
X48228Y-25803
X48228Y-29528
X48228Y-30528
X48228Y-34252
X48228Y-35252
T5
X40945Y-21260
X40945Y-37795
X48031Y-21260
X48031Y-37795
T0
M30
