  0
SECTION
  2
HEADER
  9
$ANGBASE
  50
0.0
  9
$ANGDIR
  70
  1
  9
$MEASUREMENT
  70
0
  0
ENDSEC
  0
SECTION
  2
TABLES
  0
TABLE
  2
LTYPE
  70
1
  0
LTYPE
  2
CONTINUOUS
  70
0
  3
Solid line
  72
65
  73
0
  40
0.0
  0
ENDTAB
  0
TABLE
  2
STYLE
  70
4
  0
STYLE
  2
KICAD
  70
0
  40
0
  41
1
  42
1
  50
0
  71
0
  3
isocp.shx
  0
STYLE
  2
KICADB
  70
0
  40
0
  41
1
  42
1
  50
0
  71
0
  3
isocp.shx
  0
STYLE
  2
KICADI
  70
0
  40
0
  41
1
  42
1
  50
15
  71
0
  3
isocp.shx
  0
STYLE
  2
KICADBI
  70
0
  40
0
  41
1
  42
1
  50
15
  71
0
  3
isocp.shx
  0
ENDTAB
  0
TABLE
  2
LAYER
  70
24
  0
LAYER
  2
BLACK
  70
0
  62
250
  6
CONTINUOUS
  0
LAYER
  2
BLUE
  70
0
  62
5
  6
CONTINUOUS
  0
LAYER
  2
GREEN
  70
0
  62
3
  6
CONTINUOUS
  0
LAYER
  2
CYAN
  70
0
  62
4
  6
CONTINUOUS
  0
LAYER
  2
RED
  70
0
  62
1
  6
CONTINUOUS
  0
LAYER
  2
MAGENTA
  70
0
  62
6
  6
CONTINUOUS
  0
LAYER
  2
BROWN
  70
0
  62
54
  6
CONTINUOUS
  0
LAYER
  2
LIGHTGRAY
  70
0
  62
9
  6
CONTINUOUS
  0
LAYER
  2
DARKGRAY
  70
0
  62
8
  6
CONTINUOUS
  0
LAYER
  2
LIGHTBLUE
  70
0
  62
171
  6
CONTINUOUS
  0
LAYER
  2
LIGHTGREEN
  70
0
  62
91
  6
CONTINUOUS
  0
LAYER
  2
LIGHTCYAN
  70
0
  62
131
  6
CONTINUOUS
  0
LAYER
  2
LIGHTRED
  70
0
  62
11
  6
CONTINUOUS
  0
LAYER
  2
LIGHTMAGENTA
  70
0
  62
221
  6
CONTINUOUS
  0
LAYER
  2
YELLOW
  70
0
  62
2
  6
CONTINUOUS
  0
LAYER
  2
WHITE
  70
0
  62
7
  6
CONTINUOUS
  0
LAYER
  2
DARKDARKGRAY
  70
0
  62
251
  6
CONTINUOUS
  0
LAYER
  2
DARKBLUE
  70
0
  62
178
  6
CONTINUOUS
  0
LAYER
  2
DARKGREEN
  70
0
  62
98
  6
CONTINUOUS
  0
LAYER
  2
DARKCYAN
  70
0
  62
138
  6
CONTINUOUS
  0
LAYER
  2
DARKRED
  70
0
  62
18
  6
CONTINUOUS
  0
LAYER
  2
DARKMAGENTA
  70
0
  62
228
  6
CONTINUOUS
  0
LAYER
  2
DARKBROWN
  70
0
  62
58
  6
CONTINUOUS
  0
LAYER
  2
LIGHTYELLOW
  70
0
  62
51
  6
CONTINUOUS
  0
ENDTAB
  0
ENDSEC
  0
SECTION
  2
ENTITIES
0
LINE
8
BLACK
10
130.5
20
-72.325
11
133.5
21
-72.325
0
LINE
8
BLACK
10
130.5
20
-72.175
11
133.5
21
-72.175
0
ARC
8
BLACK
10
133.5
20
-72.25
40
0.075
50
270
51
450
0
ARC
8
BLACK
10
130.5
20
-72.25
40
0.075
50
90
51
270
0
LINE
8
BLACK
10
135.5
20
-70.075
11
141
21
-70.075
0
LINE
8
BLACK
10
135.5
20
-69.925
11
141
21
-69.925
0
ARC
8
BLACK
10
141
20
-70
40
0.075
50
270
51
450
0
ARC
8
BLACK
10
135.5
20
-70
40
0.075
50
90
51
270
0
LINE
8
BLACK
10
98
20
-70.075
11
128.5
21
-70.075
0
LINE
8
BLACK
10
98
20
-69.925
11
128.5
21
-69.925
0
ARC
8
BLACK
10
128.5
20
-70
40
0.075
50
270
51
450
0
ARC
8
BLACK
10
98
20
-70
40
0.075
50
90
51
270
0
LINE
8
BLACK
10
129.575
20
-71.25
11
129.575
21
-71
0
LINE
8
BLACK
10
129.425
20
-71.25
11
129.425
21
-71
0
ARC
8
BLACK
10
129.5
20
-71
40
0.075
50
360
51
540
0
ARC
8
BLACK
10
129.5
20
-71.25
40
0.075
50
180
51
360
0
LINE
8
BLACK
10
134.575
20
-71.25
11
134.575
21
-71
0
LINE
8
BLACK
10
134.425
20
-71.25
11
134.425
21
-71
0
ARC
8
BLACK
10
134.5
20
-71
40
0.075
50
360
51
540
0
ARC
8
BLACK
10
134.5
20
-71.25
40
0.075
50
180
51
360
0
ARC
8
BLACK
10
130.5
20
-71.25
40
1
50
-180
51
-90
0
ARC
8
BLACK
10
133.5
20
-71.25
40
1
50
-90
51
0
0
ARC
8
BLACK
10
135.5
20
-71
40
1
50
90
51
180
0
ARC
8
BLACK
10
128.5
20
-71
40
1
50
0
51
90
0
LINE
8
BLACK
10
144.075
20
-92.4
11
144.075
21
-73
0
LINE
8
BLACK
10
143.925
20
-92.4
11
143.925
21
-73
0
ARC
8
BLACK
10
144
20
-73
40
0.075
50
360
51
540
0
ARC
8
BLACK
10
144
20
-92.4
40
0.075
50
180
51
360
0
LINE
8
BLACK
10
95.075
20
-92.4
11
95.075
21
-73
0
LINE
8
BLACK
10
94.925
20
-92.4
11
94.925
21
-73
0
ARC
8
BLACK
10
95
20
-73
40
0.075
50
360
51
540
0
ARC
8
BLACK
10
95
20
-92.4
40
0.075
50
180
51
360
0
LINE
8
BLACK
10
98
20
-95.475
11
141
21
-95.475
0
LINE
8
BLACK
10
98
20
-95.325
11
141
21
-95.325
0
ARC
8
BLACK
10
141
20
-95.4
40
0.075
50
270
51
450
0
ARC
8
BLACK
10
98
20
-95.4
40
0.075
50
90
51
270
0
ARC
8
BLACK
10
98
20
-92.4
40
3
50
-180
51
-90
0
ARC
8
BLACK
10
141
20
-92.4
40
3
50
-90
51
0
0
ARC
8
BLACK
10
141
20
-73
40
3
50
0
51
90
0
ARC
8
BLACK
10
98
20
-73
40
3
50
90
51
180
0
LINE
8
BLACK
10
119.049
20
-83.105
11
117.652
21
-83.105
0
LINE
8
BLACK
10
117.652
20
-83.105
11
117.652
21
-83.994
0
LINE
8
BLACK
10
117.652
20
-83.994
11
119.049
21
-83.994
0
LINE
8
BLACK
10
119.049
20
-83.994
11
119.049
21
-83.105
0
LINE
8
BLACK
10
119.049
20
-85.01
11
117.652
21
-85.01
0
LINE
8
BLACK
10
117.652
20
-85.01
11
117.652
21
-85.899
0
LINE
8
BLACK
10
117.652
20
-85.899
11
119.049
21
-85.899
0
LINE
8
BLACK
10
119.049
20
-85.899
11
119.049
21
-85.01
0
LINE
8
BLACK
10
116.509
20
-83.105
11
115.112
21
-83.105
0
LINE
8
BLACK
10
115.112
20
-83.105
11
115.112
21
-83.994
0
LINE
8
BLACK
10
115.112
20
-83.994
11
116.509
21
-83.994
0
LINE
8
BLACK
10
116.509
20
-83.994
11
116.509
21
-83.105
0
LINE
8
BLACK
10
116.509
20
-85.01
11
115.112
21
-85.01
0
LINE
8
BLACK
10
115.112
20
-85.01
11
115.112
21
-85.899
0
LINE
8
BLACK
10
115.112
20
-85.899
11
116.509
21
-85.899
0
LINE
8
BLACK
10
116.509
20
-85.899
11
116.509
21
-85.01
0
LINE
8
BLACK
10
127.944
20
-92.7824
11
127.944
21
-94.0016
0
LINE
8
BLACK
10
127.944
20
-94.0016
11
128.853
21
-94.0016
0
LINE
8
BLACK
10
128.853
20
-94.0016
11
128.853
21
-92.7824
0
LINE
8
BLACK
10
128.853
20
-92.7824
11
127.944
21
-92.7824
0
LINE
8
BLACK
10
131.215
20
-92.7824
11
131.215
21
-94.0016
0
LINE
8
BLACK
10
131.215
20
-94.0016
11
132.124
21
-94.0016
0
LINE
8
BLACK
10
132.124
20
-94.0016
11
132.124
21
-92.7824
0
LINE
8
BLACK
10
132.124
20
-92.7824
11
131.215
21
-92.7824
0
LINE
8
BLACK
10
120.502
20
-93.397
11
121.899
21
-93.397
0
LINE
8
BLACK
10
121.899
20
-93.397
11
121.899
21
-92.508
0
LINE
8
BLACK
10
121.899
20
-92.508
11
120.502
21
-92.508
0
LINE
8
BLACK
10
120.502
20
-92.508
11
120.502
21
-93.397
0
LINE
8
BLACK
10
120.502
20
-91.492
11
121.899
21
-91.492
0
LINE
8
BLACK
10
121.899
20
-91.492
11
121.899
21
-90.603
0
LINE
8
BLACK
10
121.899
20
-90.603
11
120.502
21
-90.603
0
LINE
8
BLACK
10
120.502
20
-90.603
11
120.502
21
-91.492
0
LINE
8
BLACK
10
113.651
20
-90.7885
11
113.651
21
-89.3915
0
LINE
8
BLACK
10
113.651
20
-89.3915
11
112.762
21
-89.3915
0
LINE
8
BLACK
10
112.762
20
-89.3915
11
112.762
21
-90.7885
0
LINE
8
BLACK
10
112.762
20
-90.7885
11
113.651
21
-90.7885
0
LINE
8
BLACK
10
111.746
20
-90.7885
11
111.746
21
-89.3915
0
LINE
8
BLACK
10
111.746
20
-89.3915
11
110.857
21
-89.3915
0
LINE
8
BLACK
10
110.857
20
-89.3915
11
110.857
21
-90.7885
0
LINE
8
BLACK
10
110.857
20
-90.7885
11
111.746
21
-90.7885
0
LINE
8
BLACK
10
133.4
20
-90.217
11
134.797
21
-90.217
0
LINE
8
BLACK
10
134.797
20
-90.217
11
134.797
21
-89.328
0
LINE
8
BLACK
10
134.797
20
-89.328
11
133.4
21
-89.328
0
LINE
8
BLACK
10
133.4
20
-89.328
11
133.4
21
-90.217
0
LINE
8
BLACK
10
133.4
20
-88.312
11
134.797
21
-88.312
0
LINE
8
BLACK
10
134.797
20
-88.312
11
134.797
21
-87.423
0
LINE
8
BLACK
10
134.797
20
-87.423
11
133.4
21
-87.423
0
LINE
8
BLACK
10
133.4
20
-87.423
11
133.4
21
-88.312
0
LINE
8
BLACK
10
127.812
20
-90.217
11
129.209
21
-90.217
0
LINE
8
BLACK
10
129.209
20
-90.217
11
129.209
21
-89.328
0
LINE
8
BLACK
10
129.209
20
-89.328
11
127.812
21
-89.328
0
LINE
8
BLACK
10
127.812
20
-89.328
11
127.812
21
-90.217
0
LINE
8
BLACK
10
127.812
20
-88.312
11
129.209
21
-88.312
0
LINE
8
BLACK
10
129.209
20
-88.312
11
129.209
21
-87.423
0
LINE
8
BLACK
10
129.209
20
-87.423
11
127.812
21
-87.423
0
LINE
8
BLACK
10
127.812
20
-87.423
11
127.812
21
-88.312
0
CIRCLE
8
BLACK
10
135.368
20
-93.646
40
0.5
0
CIRCLE
8
BLACK
10
100.951
20
-78.279
40
0.5
0
LINE
8
BLACK
10
109.638
20
-87.252
11
111.162
21
-87.252
0
LINE
8
BLACK
10
111.162
20
-87.252
11
111.162
21
-85.728
0
LINE
8
BLACK
10
111.162
20
-85.728
11
109.638
21
-85.728
0
LINE
8
BLACK
10
109.638
20
-85.728
11
109.638
21
-87.252
0
CIRCLE
8
BLACK
10
110.4
20
-83.95
40
0.762
0
CIRCLE
8
BLACK
10
110.4
20
-81.41
40
0.762
0
LINE
8
BLACK
10
106.908
20
-93.832
11
108.432
21
-93.832
0
LINE
8
BLACK
10
108.432
20
-93.832
11
108.432
21
-92.308
0
LINE
8
BLACK
10
108.432
20
-92.308
11
106.908
21
-92.308
0
LINE
8
BLACK
10
106.908
20
-92.308
11
106.908
21
-93.832
0
CIRCLE
8
BLACK
10
105.13
20
-93.07
40
0.762
0
CIRCLE
8
BLACK
10
107.67
20
-90.53
40
0.762
0
CIRCLE
8
BLACK
10
105.13
20
-90.53
40
0.762
0
LINE
8
BLACK
10
117.588
20
-73.072
11
117.588
21
-71.548
0
LINE
8
BLACK
10
117.588
20
-71.548
11
116.064
21
-71.548
0
LINE
8
BLACK
10
116.064
20
-71.548
11
116.064
21
-73.072
0
LINE
8
BLACK
10
116.064
20
-73.072
11
117.588
21
-73.072
0
CIRCLE
8
BLACK
10
114.286
20
-72.31
40
0.762
0
CIRCLE
8
BLACK
10
111.746
20
-72.31
40
0.762
0
CIRCLE
8
BLACK
10
109.206
20
-72.31
40
0.762
0
CIRCLE
8
BLACK
10
106.666
20
-72.31
40
0.762
0
CIRCLE
8
BLACK
10
104.126
20
-72.31
40
0.762
0
LINE
8
BLACK
10
106.031
20
-77.3265
11
106.031
21
-75.9295
0
LINE
8
BLACK
10
106.031
20
-75.9295
11
105.142
21
-75.9295
0
LINE
8
BLACK
10
105.142
20
-75.9295
11
105.142
21
-77.3265
0
LINE
8
BLACK
10
105.142
20
-77.3265
11
106.031
21
-77.3265
0
LINE
8
BLACK
10
104.126
20
-77.3265
11
104.126
21
-75.9295
0
LINE
8
BLACK
10
104.126
20
-75.9295
11
103.237
21
-75.9295
0
LINE
8
BLACK
10
103.237
20
-75.9295
11
103.237
21
-77.3265
0
LINE
8
BLACK
10
103.237
20
-77.3265
11
104.126
21
-77.3265
0
LINE
8
BLACK
10
130.86
20
-90.217
11
132.257
21
-90.217
0
LINE
8
BLACK
10
132.257
20
-90.217
11
132.257
21
-89.328
0
LINE
8
BLACK
10
132.257
20
-89.328
11
130.86
21
-89.328
0
LINE
8
BLACK
10
130.86
20
-89.328
11
130.86
21
-90.217
0
LINE
8
BLACK
10
130.86
20
-88.312
11
132.257
21
-88.312
0
LINE
8
BLACK
10
132.257
20
-88.312
11
132.257
21
-87.423
0
LINE
8
BLACK
10
132.257
20
-87.423
11
130.86
21
-87.423
0
LINE
8
BLACK
10
130.86
20
-87.423
11
130.86
21
-88.312
0
LINE
8
BLACK
10
113.651
20
-93.0745
11
113.651
21
-91.6775
0
LINE
8
BLACK
10
113.651
20
-91.6775
11
112.762
21
-91.6775
0
LINE
8
BLACK
10
112.762
20
-91.6775
11
112.762
21
-93.0745
0
LINE
8
BLACK
10
112.762
20
-93.0745
11
113.651
21
-93.0745
0
LINE
8
BLACK
10
111.746
20
-93.0745
11
111.746
21
-91.6775
0
LINE
8
BLACK
10
111.746
20
-91.6775
11
110.857
21
-91.6775
0
LINE
8
BLACK
10
110.857
20
-91.6775
11
110.857
21
-93.0745
0
LINE
8
BLACK
10
110.857
20
-93.0745
11
111.746
21
-93.0745
0
LINE
8
BLACK
10
125.689
20
-93.2065
11
126.451
21
-93.2065
0
LINE
8
BLACK
10
126.451
20
-93.2065
11
126.451
21
-92.6985
0
LINE
8
BLACK
10
126.451
20
-92.6985
11
125.689
21
-92.6985
0
LINE
8
BLACK
10
125.689
20
-92.6985
11
125.689
21
-93.2065
0
LINE
8
BLACK
10
125.689
20
-91.3015
11
126.451
21
-91.3015
0
LINE
8
BLACK
10
126.451
20
-91.3015
11
126.451
21
-90.7935
0
LINE
8
BLACK
10
126.451
20
-90.7935
11
125.689
21
-90.7935
0
LINE
8
BLACK
10
125.689
20
-90.7935
11
125.689
21
-91.3015
0
LINE
8
BLACK
10
123.149
20
-93.2065
11
123.911
21
-93.2065
0
LINE
8
BLACK
10
123.911
20
-93.2065
11
123.911
21
-92.6985
0
LINE
8
BLACK
10
123.911
20
-92.6985
11
123.149
21
-92.6985
0
LINE
8
BLACK
10
123.149
20
-92.6985
11
123.149
21
-93.2065
0
LINE
8
BLACK
10
125.689
20
-92.254
11
126.451
21
-92.254
0
LINE
8
BLACK
10
126.451
20
-92.254
11
126.451
21
-91.746
0
LINE
8
BLACK
10
126.451
20
-91.746
11
125.689
21
-91.746
0
LINE
8
BLACK
10
125.689
20
-91.746
11
125.689
21
-92.254
0
LINE
8
BLACK
10
123.149
20
-91.3015
11
123.911
21
-91.3015
0
LINE
8
BLACK
10
123.911
20
-91.3015
11
123.911
21
-90.7935
0
LINE
8
BLACK
10
123.911
20
-90.7935
11
123.149
21
-90.7935
0
LINE
8
BLACK
10
123.149
20
-90.7935
11
123.149
21
-91.3015
0
LINE
8
BLACK
10
105.121
20
-81.1585
11
105.121
21
-79.5075
0
LINE
8
BLACK
10
105.121
20
-79.5075
11
104.714
21
-79.5075
0
LINE
8
BLACK
10
104.714
20
-79.5075
11
104.714
21
-81.1585
0
LINE
8
BLACK
10
104.714
20
-81.1585
11
105.121
21
-81.1585
0
LINE
8
BLACK
10
104.486
20
-81.1585
11
104.486
21
-79.5075
0
LINE
8
BLACK
10
104.486
20
-79.5075
11
104.079
21
-79.5075
0
LINE
8
BLACK
10
104.079
20
-79.5075
11
104.079
21
-81.1585
0
LINE
8
BLACK
10
104.079
20
-81.1585
11
104.486
21
-81.1585
0
LINE
8
BLACK
10
103.851
20
-81.1585
11
103.851
21
-79.5075
0
LINE
8
BLACK
10
103.851
20
-79.5075
11
103.444
21
-79.5075
0
LINE
8
BLACK
10
103.444
20
-79.5075
11
103.444
21
-81.1585
0
LINE
8
BLACK
10
103.444
20
-81.1585
11
103.851
21
-81.1585
0
LINE
8
BLACK
10
103.216
20
-81.1585
11
103.216
21
-79.5075
0
LINE
8
BLACK
10
103.216
20
-79.5075
11
102.809
21
-79.5075
0
LINE
8
BLACK
10
102.809
20
-79.5075
11
102.809
21
-81.1585
0
LINE
8
BLACK
10
102.809
20
-81.1585
11
103.216
21
-81.1585
0
LINE
8
BLACK
10
107.026
20
-86.4925
11
107.026
21
-84.8415
0
LINE
8
BLACK
10
107.026
20
-84.8415
11
106.619
21
-84.8415
0
LINE
8
BLACK
10
106.619
20
-84.8415
11
106.619
21
-86.4925
0
LINE
8
BLACK
10
106.619
20
-86.4925
11
107.026
21
-86.4925
0
LINE
8
BLACK
10
107.026
20
-81.1585
11
107.026
21
-79.5075
0
LINE
8
BLACK
10
107.026
20
-79.5075
11
106.619
21
-79.5075
0
LINE
8
BLACK
10
106.619
20
-79.5075
11
106.619
21
-81.1585
0
LINE
8
BLACK
10
106.619
20
-81.1585
11
107.026
21
-81.1585
0
LINE
8
BLACK
10
106.391
20
-81.1585
11
106.391
21
-79.5075
0
LINE
8
BLACK
10
106.391
20
-79.5075
11
105.984
21
-79.5075
0
LINE
8
BLACK
10
105.984
20
-79.5075
11
105.984
21
-81.1585
0
LINE
8
BLACK
10
105.984
20
-81.1585
11
106.391
21
-81.1585
0
LINE
8
BLACK
10
105.756
20
-81.1585
11
105.756
21
-79.5075
0
LINE
8
BLACK
10
105.756
20
-79.5075
11
105.349
21
-79.5075
0
LINE
8
BLACK
10
105.349
20
-79.5075
11
105.349
21
-81.1585
0
LINE
8
BLACK
10
105.349
20
-81.1585
11
105.756
21
-81.1585
0
LINE
8
BLACK
10
102.581
20
-86.4925
11
102.581
21
-84.8415
0
LINE
8
BLACK
10
102.581
20
-84.8415
11
102.174
21
-84.8415
0
LINE
8
BLACK
10
102.174
20
-84.8415
11
102.174
21
-86.4925
0
LINE
8
BLACK
10
102.174
20
-86.4925
11
102.581
21
-86.4925
0
LINE
8
BLACK
10
103.216
20
-86.4925
11
103.216
21
-84.8415
0
LINE
8
BLACK
10
103.216
20
-84.8415
11
102.809
21
-84.8415
0
LINE
8
BLACK
10
102.809
20
-84.8415
11
102.809
21
-86.4925
0
LINE
8
BLACK
10
102.809
20
-86.4925
11
103.216
21
-86.4925
0
LINE
8
BLACK
10
103.851
20
-86.4925
11
103.851
21
-84.8415
0
LINE
8
BLACK
10
103.851
20
-84.8415
11
103.444
21
-84.8415
0
LINE
8
BLACK
10
103.444
20
-84.8415
11
103.444
21
-86.4925
0
LINE
8
BLACK
10
103.444
20
-86.4925
11
103.851
21
-86.4925
0
LINE
8
BLACK
10
104.486
20
-86.4925
11
104.486
21
-84.8415
0
LINE
8
BLACK
10
104.486
20
-84.8415
11
104.079
21
-84.8415
0
LINE
8
BLACK
10
104.079
20
-84.8415
11
104.079
21
-86.4925
0
LINE
8
BLACK
10
104.079
20
-86.4925
11
104.486
21
-86.4925
0
LINE
8
BLACK
10
105.121
20
-86.4925
11
105.121
21
-84.8415
0
LINE
8
BLACK
10
105.121
20
-84.8415
11
104.714
21
-84.8415
0
LINE
8
BLACK
10
104.714
20
-84.8415
11
104.714
21
-86.4925
0
LINE
8
BLACK
10
104.714
20
-86.4925
11
105.121
21
-86.4925
0
LINE
8
BLACK
10
105.756
20
-86.4925
11
105.756
21
-84.8415
0
LINE
8
BLACK
10
105.756
20
-84.8415
11
105.349
21
-84.8415
0
LINE
8
BLACK
10
105.349
20
-84.8415
11
105.349
21
-86.4925
0
LINE
8
BLACK
10
105.349
20
-86.4925
11
105.756
21
-86.4925
0
LINE
8
BLACK
10
102.581
20
-81.1585
11
102.581
21
-79.5075
0
LINE
8
BLACK
10
102.581
20
-79.5075
11
102.174
21
-79.5075
0
LINE
8
BLACK
10
102.174
20
-79.5075
11
102.174
21
-81.1585
0
LINE
8
BLACK
10
102.174
20
-81.1585
11
102.581
21
-81.1585
0
LINE
8
BLACK
10
106.391
20
-86.4925
11
106.391
21
-84.8415
0
LINE
8
BLACK
10
106.391
20
-84.8415
11
105.984
21
-84.8415
0
LINE
8
BLACK
10
105.984
20
-84.8415
11
105.984
21
-86.4925
0
LINE
8
BLACK
10
105.984
20
-86.4925
11
106.391
21
-86.4925
0
LINE
8
BLACK
10
126.05
20
-86.004
11
123.35
21
-86.004
0
LINE
8
BLACK
10
123.35
20
-86.004
11
123.35
21
-87.204
0
LINE
8
BLACK
10
123.35
20
-87.204
11
126.05
21
-87.204
0
LINE
8
BLACK
10
126.05
20
-87.204
11
126.05
21
-86.004
0
LINE
8
BLACK
10
126.05
20
-88.404
11
123.35
21
-88.404
0
LINE
8
BLACK
10
123.35
20
-88.404
11
123.35
21
-89.604
0
LINE
8
BLACK
10
123.35
20
-89.604
11
126.05
21
-89.604
0
LINE
8
BLACK
10
126.05
20
-89.604
11
126.05
21
-88.404
0
LINE
8
BLACK
10
130.5
20
-77.7
11
130.5
21
-80.7
0
LINE
8
BLACK
10
130.5
20
-80.7
11
131.5
21
-80.7
0
LINE
8
BLACK
10
131.5
20
-80.7
11
131.5
21
-77.7
0
LINE
8
BLACK
10
131.5
20
-77.7
11
130.5
21
-77.7
0
LINE
8
BLACK
10
132.5
20
-77.7
11
132.5
21
-80.7
0
LINE
8
BLACK
10
132.5
20
-80.7
11
133.5
21
-80.7
0
LINE
8
BLACK
10
133.5
20
-80.7
11
133.5
21
-77.7
0
LINE
8
BLACK
10
133.5
20
-77.7
11
132.5
21
-77.7
0
LINE
8
BLACK
10
127.9
20
-72
11
127.9
21
-75.4
0
LINE
8
BLACK
10
127.9
20
-75.4
11
129.4
21
-75.4
0
LINE
8
BLACK
10
129.4
20
-75.4
11
129.4
21
-72
0
LINE
8
BLACK
10
129.4
20
-72
11
127.9
21
-72
0
LINE
8
BLACK
10
134.6
20
-72
11
134.6
21
-75.4
0
LINE
8
BLACK
10
134.6
20
-75.4
11
136.1
21
-75.4
0
LINE
8
BLACK
10
136.1
20
-75.4
11
136.1
21
-72
0
LINE
8
BLACK
10
136.1
20
-72
11
134.6
21
-72
0
LINE
8
BLACK
10
100.716
20
-81.387
11
98.684
21
-81.387
0
LINE
8
BLACK
10
98.684
20
-81.387
11
98.684
21
-82.911
0
LINE
8
BLACK
10
98.684
20
-82.911
11
100.716
21
-82.911
0
LINE
8
BLACK
10
100.716
20
-82.911
11
100.716
21
-81.387
0
LINE
8
BLACK
10
100.716
20
-84.689
11
98.684
21
-84.689
0
LINE
8
BLACK
10
98.684
20
-84.689
11
98.684
21
-86.213
0
LINE
8
BLACK
10
98.684
20
-86.213
11
100.716
21
-86.213
0
LINE
8
BLACK
10
100.716
20
-86.213
11
100.716
21
-84.689
0
LINE
8
BLACK
10
120.382
20
-76.755
11
122.414
21
-76.755
0
LINE
8
BLACK
10
122.414
20
-76.755
11
122.414
21
-75.231
0
LINE
8
BLACK
10
122.414
20
-75.231
11
120.382
21
-75.231
0
LINE
8
BLACK
10
120.382
20
-75.231
11
120.382
21
-76.755
0
LINE
8
BLACK
10
120.382
20
-73.453
11
122.414
21
-73.453
0
LINE
8
BLACK
10
122.414
20
-73.453
11
122.414
21
-71.929
0
LINE
8
BLACK
10
122.414
20
-71.929
11
120.382
21
-71.929
0
LINE
8
BLACK
10
120.382
20
-71.929
11
120.382
21
-73.453
0
CIRCLE
8
BLACK
10
98.6
20
-73.6
40
3.175
0
CIRCLE
8
BLACK
10
98.6
20
-91.9
40
3.175
0
CIRCLE
8
BLACK
10
140.4
20
-91.9
40
3.175
0
CIRCLE
8
BLACK
10
140.4
20
-73.6
40
3.175
0
LINE
8
BLACK
10
117.362
20
-89.568
11
115.838
21
-89.568
0
LINE
8
BLACK
10
115.838
20
-89.568
11
115.838
21
-91.092
0
LINE
8
BLACK
10
115.838
20
-91.092
11
117.362
21
-91.092
0
LINE
8
BLACK
10
117.362
20
-91.092
11
117.362
21
-89.568
0
CIRCLE
8
BLACK
10
116.6
20
-92.87
40
0.762
0
LINE
8
BLACK
10
124.256
20
-75.739
11
125.653
21
-75.739
0
LINE
8
BLACK
10
125.653
20
-75.739
11
125.653
21
-74.85
0
LINE
8
BLACK
10
125.653
20
-74.85
11
124.256
21
-74.85
0
LINE
8
BLACK
10
124.256
20
-74.85
11
124.256
21
-75.739
0
LINE
8
BLACK
10
124.256
20
-73.834
11
125.653
21
-73.834
0
LINE
8
BLACK
10
125.653
20
-73.834
11
125.653
21
-72.945
0
LINE
8
BLACK
10
125.653
20
-72.945
11
124.256
21
-72.945
0
LINE
8
BLACK
10
124.256
20
-72.945
11
124.256
21
-73.834
0
LINE
8
BLACK
10
117.969
20
-81.3905
11
118.731
21
-81.3905
0
LINE
8
BLACK
10
118.731
20
-81.3905
11
118.731
21
-80.8825
0
LINE
8
BLACK
10
118.731
20
-80.8825
11
117.969
21
-80.8825
0
LINE
8
BLACK
10
117.969
20
-80.8825
11
117.969
21
-81.3905
0
LINE
8
BLACK
10
117.969
20
-79.4855
11
118.731
21
-79.4855
0
LINE
8
BLACK
10
118.731
20
-79.4855
11
118.731
21
-78.9775
0
LINE
8
BLACK
10
118.731
20
-78.9775
11
117.969
21
-78.9775
0
LINE
8
BLACK
10
117.969
20
-78.9775
11
117.969
21
-79.4855
0
LINE
8
BLACK
10
115.429
20
-81.3905
11
116.191
21
-81.3905
0
LINE
8
BLACK
10
116.191
20
-81.3905
11
116.191
21
-80.8825
0
LINE
8
BLACK
10
116.191
20
-80.8825
11
115.429
21
-80.8825
0
LINE
8
BLACK
10
115.429
20
-80.8825
11
115.429
21
-81.3905
0
LINE
8
BLACK
10
117.969
20
-80.438
11
118.731
21
-80.438
0
LINE
8
BLACK
10
118.731
20
-80.438
11
118.731
21
-79.93
0
LINE
8
BLACK
10
118.731
20
-79.93
11
117.969
21
-79.93
0
LINE
8
BLACK
10
117.969
20
-79.93
11
117.969
21
-80.438
0
LINE
8
BLACK
10
115.429
20
-79.4855
11
116.191
21
-79.4855
0
LINE
8
BLACK
10
116.191
20
-79.4855
11
116.191
21
-78.9775
0
LINE
8
BLACK
10
116.191
20
-78.9775
11
115.429
21
-78.9775
0
LINE
8
BLACK
10
115.429
20
-78.9775
11
115.429
21
-79.4855
0
LINE
8
BLACK
10
121.906
20
-84.629
11
123.938
21
-84.629
0
LINE
8
BLACK
10
123.938
20
-84.629
11
123.938
21
-83.105
0
LINE
8
BLACK
10
123.938
20
-83.105
11
121.906
21
-83.105
0
LINE
8
BLACK
10
121.906
20
-83.105
11
121.906
21
-84.629
0
LINE
8
BLACK
10
121.906
20
-81.327
11
123.938
21
-81.327
0
LINE
8
BLACK
10
123.938
20
-81.327
11
123.938
21
-79.803
0
LINE
8
BLACK
10
123.938
20
-79.803
11
121.906
21
-79.803
0
LINE
8
BLACK
10
121.906
20
-79.803
11
121.906
21
-81.327
0
LINE
8
BLACK
10
134.225
20
-84.756
11
134.225
21
-82.724
0
LINE
8
BLACK
10
134.225
20
-82.724
11
132.701
21
-82.724
0
LINE
8
BLACK
10
132.701
20
-82.724
11
132.701
21
-84.756
0
LINE
8
BLACK
10
132.701
20
-84.756
11
134.225
21
-84.756
0
LINE
8
BLACK
10
130.923
20
-84.756
11
130.923
21
-82.724
0
LINE
8
BLACK
10
130.923
20
-82.724
11
129.399
21
-82.724
0
LINE
8
BLACK
10
129.399
20
-82.724
11
129.399
21
-84.756
0
LINE
8
BLACK
10
129.399
20
-84.756
11
130.923
21
-84.756
0
LINE
8
BLACK
10
125.208
20
-84.629
11
127.24
21
-84.629
0
LINE
8
BLACK
10
127.24
20
-84.629
11
127.24
21
-83.105
0
LINE
8
BLACK
10
127.24
20
-83.105
11
125.208
21
-83.105
0
LINE
8
BLACK
10
125.208
20
-83.105
11
125.208
21
-84.629
0
LINE
8
BLACK
10
125.208
20
-81.327
11
127.24
21
-81.327
0
LINE
8
BLACK
10
127.24
20
-81.327
11
127.24
21
-79.803
0
LINE
8
BLACK
10
127.24
20
-79.803
11
125.208
21
-79.803
0
LINE
8
BLACK
10
125.208
20
-79.803
11
125.208
21
-81.327
0
LINE
8
BLACK
10
136.13
20
-83.232
11
136.13
21
-84.756
0
LINE
8
BLACK
10
136.13
20
-84.756
11
137.654
21
-84.756
0
LINE
8
BLACK
10
137.654
20
-84.756
11
137.654
21
-83.232
0
LINE
8
BLACK
10
137.654
20
-83.232
11
136.13
21
-83.232
0
CIRCLE
8
BLACK
10
136.892
20
-81.454
40
0.762
0
CIRCLE
8
BLACK
10
139.432
20
-83.994
40
0.762
0
CIRCLE
8
BLACK
10
139.432
20
-81.454
40
0.762
0
CIRCLE
8
BLACK
10
141.972
20
-83.994
40
0.762
0
CIRCLE
8
BLACK
10
141.972
20
-81.454
40
0.762
0
CIRCLE
8
BLACK
10
113
20
-78.5
40
0.4445
0
CIRCLE
8
BLACK
10
103.85
20
-78.55
40
0.4445
0
CIRCLE
8
BLACK
10
101.205
20
-83.74
40
0.4445
0
CIRCLE
8
BLACK
10
101.713
20
-82.343
40
0.4445
0
CIRCLE
8
BLACK
10
107.174
20
-75.104
40
0.4445
0
CIRCLE
8
BLACK
10
102.856
20
-82.978
40
0.4445
0
CIRCLE
8
BLACK
10
103.364
20
-87.55
40
0.4445
0
CIRCLE
8
BLACK
10
133.15
20
-81.55
40
0.4445
0
CIRCLE
8
BLACK
10
117.334
20
-80.184
40
0.4445
0
CIRCLE
8
BLACK
10
123.176
20
-73.326
40
0.4445
0
CIRCLE
8
BLACK
10
124.7
20
-78.914
40
0.4445
0
CIRCLE
8
BLACK
10
114.286
20
-85.772
40
0.4445
0
CIRCLE
8
BLACK
10
131
20
-81.3
40
0.4445
0
CIRCLE
8
BLACK
10
105
20
-87.6
40
0.4445
0
CIRCLE
8
BLACK
10
103.3
20
-75
40
0.4445
0
CIRCLE
8
BLACK
10
104.3
20
-81.8
40
0.4445
0
CIRCLE
8
BLACK
10
126.9
20
-92
40
0.4445
0
CIRCLE
8
BLACK
10
129.65
20
-87.25
40
0.4445
0
CIRCLE
8
BLACK
10
120.89
20
-78.406
40
0.4445
0
CIRCLE
8
BLACK
10
120.128
20
-85.01
40
0.4445
0
CIRCLE
8
BLACK
10
97.395
20
-83.994
40
0.4445
0
LINE
8
BLACK
10
122.598
20
-86.9215
11
124.7
21
-86.9215
0
LINE
8
BLACK
10
122.598
20
-86.2865
11
124.7
21
-86.2865
0
ARC
8
BLACK
10
124.7
20
-86.604
40
0.3175
50
270
51
450
0
ARC
8
BLACK
10
122.598
20
-86.604
40
0.3175
50
90
51
270
0
LINE
8
BLACK
10
119.176
20
-92.87
11
119.176
21
-90.344
0
LINE
8
BLACK
10
118.541
20
-92.87
11
118.541
21
-90.344
0
ARC
8
BLACK
10
118.858
20
-90.344
40
0.3175
50
360
51
540
0
ARC
8
BLACK
10
118.858
20
-92.87
40
0.3175
50
180
51
360
0
LINE
8
BLACK
10
122.373
20
-86.3795
11
118.633
21
-90.1195
0
LINE
8
BLACK
10
122.823
20
-86.8285
11
119.083
21
-90.5685
0
ARC
8
BLACK
10
118.858
20
-90.344
40
0.3175
50
135
51
315
0
ARC
8
BLACK
10
122.598
20
-86.604
40
0.3175
50
-45
51
135
0
LINE
8
BLACK
10
124.7
20
-86.9215
11
125.392
21
-86.9215
0
LINE
8
BLACK
10
124.7
20
-86.2865
11
125.392
21
-86.2865
0
ARC
8
BLACK
10
125.392
20
-86.604
40
0.3175
50
270
51
450
0
ARC
8
BLACK
10
124.7
20
-86.604
40
0.3175
50
90
51
270
0
LINE
8
BLACK
10
126.542
20
-85.772
11
126.542
21
-83.867
0
LINE
8
BLACK
10
125.907
20
-85.772
11
125.907
21
-83.867
0
ARC
8
BLACK
10
126.224
20
-83.867
40
0.3175
50
360
51
540
0
ARC
8
BLACK
10
126.224
20
-85.772
40
0.3175
50
180
51
360
0
LINE
8
BLACK
10
125.617
20
-86.8285
11
126.449
21
-85.9965
0
LINE
8
BLACK
10
125.167
20
-86.3795
11
125.999
21
-85.5475
0
ARC
8
BLACK
10
126.224
20
-85.772
40
0.3175
50
315
51
495
0
ARC
8
BLACK
10
125.392
20
-86.604
40
0.3175
50
135
51
315
0
LINE
8
BLACK
10
116.6
20
-93.1875
11
118.858
21
-93.1875
0
LINE
8
BLACK
10
116.6
20
-92.5525
11
118.858
21
-92.5525
0
ARC
8
BLACK
10
118.858
20
-92.87
40
0.3175
50
270
51
450
0
ARC
8
BLACK
10
116.6
20
-92.87
40
0.3175
50
90
51
270
0
LINE
8
BLACK
10
118.858
20
-93.1875
11
119.606
21
-93.1875
0
LINE
8
BLACK
10
118.858
20
-92.5525
11
119.606
21
-92.5525
0
ARC
8
BLACK
10
119.606
20
-92.87
40
0.3175
50
270
51
450
0
ARC
8
BLACK
10
118.858
20
-92.87
40
0.3175
50
90
51
270
0
LINE
8
BLACK
10
119.938
20
-92.884
11
119.938
21
-92.87
0
LINE
8
BLACK
10
119.303
20
-92.884
11
119.303
21
-92.87
0
ARC
8
BLACK
10
119.62
20
-92.87
40
0.3175
50
360
51
540
0
ARC
8
BLACK
10
119.62
20
-92.884
40
0.3175
50
180
51
360
0
LINE
8
BLACK
10
119.381
20
-93.0945
11
119.395
21
-93.1085
0
LINE
8
BLACK
10
119.831
20
-92.6455
11
119.845
21
-92.6595
0
ARC
8
BLACK
10
119.62
20
-92.884
40
0.3175
50
225
51
405
0
ARC
8
BLACK
10
119.606
20
-92.87
40
0.3175
50
45
51
225
0
LINE
8
BLACK
10
126.542
20
-85.01
11
126.542
21
-83.74
0
LINE
8
BLACK
10
125.907
20
-85.01
11
125.907
21
-83.74
0
ARC
8
BLACK
10
126.224
20
-83.74
40
0.3175
50
360
51
540
0
ARC
8
BLACK
10
126.224
20
-85.01
40
0.3175
50
180
51
360
0
LINE
8
BLACK
10
126.351
20
-85.01
11
126.351
21
-83.74
0
LINE
8
BLACK
10
126.097
20
-85.01
11
126.097
21
-83.74
0
ARC
8
BLACK
10
126.224
20
-83.74
40
0.127
50
360
51
540
0
ARC
8
BLACK
10
126.224
20
-85.01
40
0.127
50
180
51
360
0
LINE
8
BLACK
10
121.2
20
-93.0795
11
123.53
21
-93.0795
0
LINE
8
BLACK
10
121.2
20
-92.8255
11
123.53
21
-92.8255
0
ARC
8
BLACK
10
123.53
20
-92.9525
40
0.127
50
270
51
450
0
ARC
8
BLACK
10
121.2
20
-92.9525
40
0.127
50
90
51
270
0
LINE
8
BLACK
10
121.29
20
-92.8627
11
121.207
21
-92.7802
0
LINE
8
BLACK
10
121.11
20
-93.0423
11
121.028
21
-92.9598
0
ARC
8
BLACK
10
121.118
20
-92.87
40
0.127
50
405
51
585
0
ARC
8
BLACK
10
121.2
20
-92.9525
40
0.127
50
225
51
405
0
LINE
8
BLACK
10
119.62
20
-92.997
11
121.118
21
-92.997
0
LINE
8
BLACK
10
119.62
20
-92.743
11
121.118
21
-92.743
0
ARC
8
BLACK
10
121.118
20
-92.87
40
0.127
50
270
51
450
0
ARC
8
BLACK
10
119.62
20
-92.87
40
0.127
50
90
51
270
0
LINE
8
BLACK
10
108.908
20
-86.8075
11
110.4
21
-86.8075
0
LINE
8
BLACK
10
108.908
20
-86.1725
11
110.4
21
-86.1725
0
ARC
8
BLACK
10
110.4
20
-86.49
40
0.3175
50
270
51
450
0
ARC
8
BLACK
10
108.908
20
-86.49
40
0.3175
50
90
51
270
0
LINE
8
BLACK
10
108.254
20
-85.518
11
108.254
21
-85.01
0
LINE
8
BLACK
10
107.619
20
-85.518
11
107.619
21
-85.01
0
ARC
8
BLACK
10
107.936
20
-85.01
40
0.3175
50
360
51
540
0
ARC
8
BLACK
10
107.936
20
-85.518
40
0.3175
50
180
51
360
0
LINE
8
BLACK
10
109.133
20
-86.2655
11
108.161
21
-85.2935
0
LINE
8
BLACK
10
108.683
20
-86.7145
11
107.711
21
-85.7425
0
ARC
8
BLACK
10
107.936
20
-85.518
40
0.3175
50
405
51
585
0
ARC
8
BLACK
10
108.908
20
-86.49
40
0.3175
50
225
51
405
0
LINE
8
BLACK
10
108.254
20
-85.01
11
108.254
21
-84.248
0
LINE
8
BLACK
10
107.619
20
-85.01
11
107.619
21
-84.248
0
ARC
8
BLACK
10
107.936
20
-84.248
40
0.3175
50
360
51
540
0
ARC
8
BLACK
10
107.936
20
-85.01
40
0.3175
50
180
51
360
0
LINE
8
BLACK
10
103.558
20
-84.4415
11
105.777
21
-82.222
0
LINE
8
BLACK
10
103.108
20
-83.9925
11
105.328
21
-81.773
0
ARC
8
BLACK
10
105.553
20
-81.9975
40
0.3175
50
315
51
495
0
ARC
8
BLACK
10
103.333
20
-84.217
40
0.3175
50
135
51
315
0
LINE
8
BLACK
10
106.853
20
-82.7535
11
105.825
21
-81.7255
0
LINE
8
BLACK
10
106.403
20
-83.2025
11
105.375
21
-82.1745
0
ARC
8
BLACK
10
105.6
20
-81.95
40
0.3175
50
405
51
585
0
ARC
8
BLACK
10
106.628
20
-82.978
40
0.3175
50
225
51
405
0
LINE
8
BLACK
10
105.553
20
-82.0516
11
105.6
21
-82.0516
0
LINE
8
BLACK
10
105.553
20
-81.8484
11
105.6
21
-81.8484
0
ARC
8
BLACK
10
105.6
20
-81.95
40
0.1016
50
270
51
450
0
ARC
8
BLACK
10
105.553
20
-81.95
40
0.1016
50
90
51
270
0
LINE
8
BLACK
10
108.161
20
-84.0235
11
106.891
21
-82.7535
0
LINE
8
BLACK
10
107.711
20
-84.4725
11
106.441
21
-83.2025
0
ARC
8
BLACK
10
106.666
20
-82.978
40
0.3175
50
405
51
585
0
ARC
8
BLACK
10
107.936
20
-84.248
40
0.3175
50
225
51
405
0
LINE
8
BLACK
10
106.628
20
-83.2955
11
106.666
21
-83.2955
0
LINE
8
BLACK
10
106.628
20
-82.6605
11
106.666
21
-82.6605
0
ARC
8
BLACK
10
106.666
20
-82.978
40
0.3175
50
270
51
450
0
ARC
8
BLACK
10
106.628
20
-82.978
40
0.3175
50
90
51
270
0
LINE
8
BLACK
10
109.19
20
-86.8075
11
110.4
21
-86.8075
0
LINE
8
BLACK
10
109.19
20
-86.1725
11
110.4
21
-86.1725
0
ARC
8
BLACK
10
110.4
20
-86.49
40
0.3175
50
270
51
450
0
ARC
8
BLACK
10
109.19
20
-86.49
40
0.3175
50
90
51
270
0
LINE
8
BLACK
10
109.19
20
-86.5916
11
110.4
21
-86.5916
0
LINE
8
BLACK
10
109.19
20
-86.3884
11
110.4
21
-86.3884
0
ARC
8
BLACK
10
110.4
20
-86.49
40
0.1016
50
270
51
450
0
ARC
8
BLACK
10
109.19
20
-86.49
40
0.1016
50
90
51
270
0
LINE
8
BLACK
10
103.114
20
-85.667
11
103.114
21
-84.5375
0
LINE
8
BLACK
10
102.911
20
-85.667
11
102.911
21
-84.5375
0
ARC
8
BLACK
10
103.013
20
-84.5375
40
0.1016
50
360
51
540
0
ARC
8
BLACK
10
103.013
20
-85.667
40
0.1016
50
180
51
360
0
LINE
8
BLACK
10
105.654
20
-81.9975
11
105.654
21
-81.95
0
LINE
8
BLACK
10
105.451
20
-81.9975
11
105.451
21
-81.95
0
ARC
8
BLACK
10
105.553
20
-81.95
40
0.1016
50
360
51
540
0
ARC
8
BLACK
10
105.553
20
-81.9975
40
0.1016
50
180
51
360
0
LINE
8
BLACK
10
105.654
20
-81.95
11
105.654
21
-80.333
0
LINE
8
BLACK
10
105.451
20
-81.95
11
105.451
21
-80.333
0
ARC
8
BLACK
10
105.553
20
-80.333
40
0.1016
50
360
51
540
0
ARC
8
BLACK
10
105.553
20
-81.95
40
0.1016
50
180
51
360
0
LINE
8
BLACK
10
103.084
20
-84.6093
11
103.405
21
-84.2888
0
LINE
8
BLACK
10
102.941
20
-84.4657
11
103.261
21
-84.1452
0
ARC
8
BLACK
10
103.333
20
-84.217
40
0.1016
50
315
51
495
0
ARC
8
BLACK
10
103.013
20
-84.5375
40
0.1016
50
135
51
315
0
LINE
8
BLACK
10
105.652
20
-80.334
11
105.69
21
-76.6291
0
LINE
8
BLACK
10
105.449
20
-80.3319
11
105.487
21
-76.627
0
ARC
8
BLACK
10
105.589
20
-76.628
40
0.1016
50
359.4
51
539.4
0
ARC
8
BLACK
10
105.55
20
-80.333
40
0.1016
50
179.4
51
359.4
0
LINE
8
BLACK
10
114.533
20
-77.087
11
114.417
21
-72.3068
0
LINE
8
BLACK
10
114.279
20
-77.0932
11
114.163
21
-72.313
0
ARC
8
BLACK
10
114.29
20
-72.3099
40
0.127
50
361.4
51
541.4
0
ARC
8
BLACK
10
114.406
20
-77.0901
40
0.127
50
181.4
51
361.4
0
LINE
8
BLACK
10
113.09
20
-78.5898
11
114.5
21
-77.1798
0
LINE
8
BLACK
10
112.91
20
-78.4102
11
114.32
21
-77.0002
0
ARC
8
BLACK
10
114.41
20
-77.09
40
0.127
50
315
51
495
0
ARC
8
BLACK
10
113
20
-78.5
40
0.127
50
135
51
315
0
LINE
8
BLACK
10
103.749
20
-80.333
11
103.749
21
-78.7525
0
LINE
8
BLACK
10
103.546
20
-80.333
11
103.546
21
-78.7525
0
ARC
8
BLACK
10
103.648
20
-78.7525
40
0.1016
50
360
51
540
0
ARC
8
BLACK
10
103.648
20
-80.333
40
0.1016
50
180
51
360
0
LINE
8
BLACK
10
103.719
20
-78.8243
11
103.922
21
-78.6218
0
LINE
8
BLACK
10
103.576
20
-78.6807
11
103.778
21
-78.4782
0
ARC
8
BLACK
10
103.85
20
-78.55
40
0.1016
50
315
51
495
0
ARC
8
BLACK
10
103.648
20
-78.7525
40
0.1016
50
135
51
315
0
LINE
8
BLACK
10
102.479
20
-85.667
11
102.479
21
-84.2775
0
LINE
8
BLACK
10
102.276
20
-85.667
11
102.276
21
-84.2775
0
ARC
8
BLACK
10
102.378
20
-84.2775
40
0.1016
50
360
51
540
0
ARC
8
BLACK
10
102.378
20
-85.667
40
0.1016
50
180
51
360
0
LINE
8
BLACK
10
101.205
20
-83.8416
11
101.84
21
-83.8416
0
LINE
8
BLACK
10
101.205
20
-83.6384
11
101.84
21
-83.6384
0
ARC
8
BLACK
10
101.84
20
-83.74
40
0.1016
50
270
51
450
0
ARC
8
BLACK
10
101.205
20
-83.74
40
0.1016
50
90
51
270
0
LINE
8
BLACK
10
102.449
20
-84.2057
11
101.912
21
-83.6682
0
LINE
8
BLACK
10
102.306
20
-84.3493
11
101.768
21
-83.8118
0
ARC
8
BLACK
10
101.84
20
-83.74
40
0.1016
50
405
51
585
0
ARC
8
BLACK
10
102.377
20
-84.2775
40
0.1016
50
225
51
405
0
LINE
8
BLACK
10
102.479
20
-81.6785
11
102.479
21
-80.333
0
LINE
8
BLACK
10
102.276
20
-81.6785
11
102.276
21
-80.333
0
ARC
8
BLACK
10
102.378
20
-80.333
40
0.1016
50
360
51
540
0
ARC
8
BLACK
10
102.378
20
-81.6785
40
0.1016
50
180
51
360
0
LINE
8
BLACK
10
101.785
20
-82.4148
11
102.449
21
-81.7503
0
LINE
8
BLACK
10
101.641
20
-82.2712
11
102.306
21
-81.6067
0
ARC
8
BLACK
10
102.378
20
-81.6785
40
0.1016
50
315
51
495
0
ARC
8
BLACK
10
101.713
20
-82.343
40
0.1016
50
135
51
315
0
LINE
8
BLACK
10
110.222
20
-92.503
11
111.302
21
-92.503
0
LINE
8
BLACK
10
110.222
20
-92.249
11
111.302
21
-92.249
0
ARC
8
BLACK
10
111.302
20
-92.376
40
0.127
50
270
51
450
0
ARC
8
BLACK
10
110.222
20
-92.376
40
0.127
50
90
51
270
0
LINE
8
BLACK
10
107.67
20
-93.197
11
109.528
21
-93.197
0
LINE
8
BLACK
10
107.67
20
-92.943
11
109.528
21
-92.943
0
ARC
8
BLACK
10
109.528
20
-93.07
40
0.127
50
270
51
450
0
ARC
8
BLACK
10
107.67
20
-93.07
40
0.127
50
90
51
270
0
LINE
8
BLACK
10
110.132
20
-92.2862
11
109.438
21
-92.9802
0
LINE
8
BLACK
10
110.312
20
-92.4658
11
109.618
21
-93.1598
0
ARC
8
BLACK
10
109.528
20
-93.07
40
0.127
50
135
51
315
0
ARC
8
BLACK
10
110.222
20
-92.376
40
0.127
50
-45
51
135
0
LINE
8
BLACK
10
109.46
20
-90.217
11
111.302
21
-90.217
0
LINE
8
BLACK
10
109.46
20
-89.963
11
111.302
21
-89.963
0
ARC
8
BLACK
10
111.302
20
-90.09
40
0.127
50
270
51
450
0
ARC
8
BLACK
10
109.46
20
-90.09
40
0.127
50
90
51
270
0
LINE
8
BLACK
10
107.67
20
-90.657
11
109.02
21
-90.657
0
LINE
8
BLACK
10
107.67
20
-90.403
11
109.02
21
-90.403
0
ARC
8
BLACK
10
109.02
20
-90.53
40
0.127
50
270
51
450
0
ARC
8
BLACK
10
107.67
20
-90.53
40
0.127
50
90
51
270
0
LINE
8
BLACK
10
109.37
20
-90.0002
11
108.93
21
-90.4402
0
LINE
8
BLACK
10
109.55
20
-90.1798
11
109.11
21
-90.6198
0
ARC
8
BLACK
10
109.02
20
-90.53
40
0.127
50
135
51
315
0
ARC
8
BLACK
10
109.46
20
-90.09
40
0.127
50
-45
51
135
0
LINE
8
BLACK
10
106.756
20
-77.9878
11
107.264
21
-77.4798
0
LINE
8
BLACK
10
106.576
20
-77.8082
11
107.084
21
-77.3002
0
ARC
8
BLACK
10
107.174
20
-77.39
40
0.127
50
315
51
495
0
ARC
8
BLACK
10
106.666
20
-77.898
40
0.127
50
135
51
315
0
LINE
8
BLACK
10
107.301
20
-77.39
11
107.301
21
-75.104
0
LINE
8
BLACK
10
107.047
20
-77.39
11
107.047
21
-75.104
0
ARC
8
BLACK
10
107.174
20
-75.104
40
0.127
50
360
51
540
0
ARC
8
BLACK
10
107.174
20
-77.39
40
0.127
50
180
51
360
0
LINE
8
BLACK
10
106.315
20
-80.333
11
106.315
21
-78.3765
0
LINE
8
BLACK
10
106.061
20
-80.333
11
106.061
21
-78.3765
0
ARC
8
BLACK
10
106.188
20
-78.3765
40
0.127
50
360
51
540
0
ARC
8
BLACK
10
106.188
20
-80.333
40
0.127
50
180
51
360
0
LINE
8
BLACK
10
106.277
20
-78.4663
11
106.756
21
-77.9878
0
LINE
8
BLACK
10
106.098
20
-78.2867
11
106.576
21
-77.8082
0
ARC
8
BLACK
10
106.666
20
-77.898
40
0.127
50
315
51
495
0
ARC
8
BLACK
10
106.188
20
-78.3765
40
0.127
50
135
51
315
0
LINE
8
BLACK
10
104.777
20
-75.866
11
104.777
21
-75.596
0
LINE
8
BLACK
10
104.523
20
-75.866
11
104.523
21
-75.596
0
ARC
8
BLACK
10
104.65
20
-75.596
40
0.127
50
360
51
540
0
ARC
8
BLACK
10
104.65
20
-75.866
40
0.127
50
180
51
360
0
LINE
8
BLACK
10
106.916
20
-74.2098
11
106.793
21
-72.3018
0
LINE
8
BLACK
10
106.663
20
-74.2262
11
106.54
21
-72.3182
0
ARC
8
BLACK
10
106.666
20
-72.31
40
0.127
50
363.7
51
543.7
0
ARC
8
BLACK
10
106.79
20
-74.218
40
0.127
50
183.7
51
363.7
0
LINE
8
BLACK
10
106.248
20
-74.9398
11
106.88
21
-74.3078
0
LINE
8
BLACK
10
106.068
20
-74.7602
11
106.7
21
-74.1282
0
ARC
8
BLACK
10
106.79
20
-74.218
40
0.127
50
315
51
495
0
ARC
8
BLACK
10
106.158
20
-74.85
40
0.127
50
135
51
315
0
LINE
8
BLACK
10
105.396
20
-74.977
11
106.158
21
-74.977
0
LINE
8
BLACK
10
105.396
20
-74.723
11
106.158
21
-74.723
0
ARC
8
BLACK
10
106.158
20
-74.85
40
0.127
50
270
51
450
0
ARC
8
BLACK
10
105.396
20
-74.85
40
0.127
50
90
51
270
0
LINE
8
BLACK
10
104.74
20
-75.6858
11
105.486
21
-74.9398
0
LINE
8
BLACK
10
104.56
20
-75.5062
11
105.306
21
-74.7602
0
ARC
8
BLACK
10
105.396
20
-74.85
40
0.127
50
315
51
495
0
ARC
8
BLACK
10
104.65
20
-75.596
40
0.127
50
135
51
315
0
LINE
8
BLACK
10
105.019
20
-80.333
11
105.019
21
-78.3175
0
LINE
8
BLACK
10
104.816
20
-80.333
11
104.816
21
-78.3175
0
ARC
8
BLACK
10
104.918
20
-78.3175
40
0.1016
50
360
51
540
0
ARC
8
BLACK
10
104.918
20
-80.333
40
0.1016
50
180
51
360
0
LINE
8
BLACK
10
104.752
20
-78.05
11
104.752
21
-75.866
0
LINE
8
BLACK
10
104.548
20
-78.05
11
104.548
21
-75.866
0
ARC
8
BLACK
10
104.65
20
-75.866
40
0.1016
50
360
51
540
0
ARC
8
BLACK
10
104.65
20
-78.05
40
0.1016
50
180
51
360
0
LINE
8
BLACK
10
104.989
20
-78.2457
11
104.722
21
-77.9782
0
LINE
8
BLACK
10
104.846
20
-78.3893
11
104.578
21
-78.1218
0
ARC
8
BLACK
10
104.65
20
-78.05
40
0.1016
50
405
51
585
0
ARC
8
BLACK
10
104.918
20
-78.3175
40
0.1016
50
225
51
405
0
LINE
8
BLACK
10
105.68
20
-86.6905
11
105.68
21
-85.667
0
LINE
8
BLACK
10
105.426
20
-86.6905
11
105.426
21
-85.667
0
ARC
8
BLACK
10
105.553
20
-85.667
40
0.127
50
360
51
540
0
ARC
8
BLACK
10
105.553
20
-86.6905
40
0.127
50
180
51
360
0
LINE
8
BLACK
10
106.322
20
-89.1582
11
105.04
21
-90.4402
0
LINE
8
BLACK
10
106.502
20
-89.3378
11
105.22
21
-90.6198
0
ARC
8
BLACK
10
105.13
20
-90.53
40
0.127
50
135
51
315
0
ARC
8
BLACK
10
106.412
20
-89.248
40
0.127
50
-45
51
135
0
LINE
8
BLACK
10
106.539
20
-89.248
11
106.539
21
-87.55
0
LINE
8
BLACK
10
106.285
20
-89.248
11
106.285
21
-87.55
0
ARC
8
BLACK
10
106.412
20
-87.55
40
0.127
50
360
51
540
0
ARC
8
BLACK
10
106.412
20
-89.248
40
0.127
50
180
51
360
0
LINE
8
BLACK
10
105.463
20
-86.7803
11
106.322
21
-87.6398
0
LINE
8
BLACK
10
105.642
20
-86.6007
11
106.502
21
-87.4602
0
ARC
8
BLACK
10
106.412
20
-87.55
40
0.127
50
225
51
405
0
ARC
8
BLACK
10
105.553
20
-86.6905
40
0.127
50
45
51
225
0
LINE
8
BLACK
10
106.95
20
-80.333
11
106.95
21
-78.7575
0
LINE
8
BLACK
10
106.696
20
-80.333
11
106.696
21
-78.7575
0
ARC
8
BLACK
10
106.823
20
-78.7575
40
0.127
50
360
51
540
0
ARC
8
BLACK
10
106.823
20
-80.333
40
0.127
50
180
51
360
0
LINE
8
BLACK
10
109.457
20
-76.246
11
109.333
21
-72.306
0
LINE
8
BLACK
10
109.203
20
-76.254
11
109.079
21
-72.314
0
ARC
8
BLACK
10
109.206
20
-72.31
40
0.127
50
361.8
51
541.8
0
ARC
8
BLACK
10
109.33
20
-76.25
40
0.127
50
181.8
51
361.8
0
LINE
8
BLACK
10
106.912
20
-78.8473
11
109.42
21
-76.3398
0
LINE
8
BLACK
10
106.733
20
-78.6677
11
109.24
21
-76.1602
0
ARC
8
BLACK
10
109.33
20
-76.25
40
0.127
50
315
51
495
0
ARC
8
BLACK
10
106.823
20
-78.7575
40
0.127
50
135
51
315
0
LINE
8
BLACK
10
103.14
20
-82.8215
11
103.14
21
-80.333
0
LINE
8
BLACK
10
102.886
20
-82.8215
11
102.886
21
-80.333
0
ARC
8
BLACK
10
103.013
20
-80.333
40
0.127
50
360
51
540
0
ARC
8
BLACK
10
103.013
20
-82.8215
40
0.127
50
180
51
360
0
LINE
8
BLACK
10
102.923
20
-82.7317
11
102.766
21
-82.8882
0
LINE
8
BLACK
10
103.102
20
-82.9113
11
102.946
21
-83.0678
0
ARC
8
BLACK
10
102.856
20
-82.978
40
0.127
50
135
51
315
0
ARC
8
BLACK
10
103.013
20
-82.8215
40
0.127
50
-45
51
135
0
LINE
8
BLACK
10
109.67
20
-84.2675
11
110.4
21
-84.2675
0
LINE
8
BLACK
10
109.67
20
-83.6325
11
110.4
21
-83.6325
0
ARC
8
BLACK
10
110.4
20
-83.95
40
0.3175
50
270
51
450
0
ARC
8
BLACK
10
109.67
20
-83.95
40
0.3175
50
90
51
270
0
LINE
8
BLACK
10
112.184
20
-76.4952
11
112.067
21
-72.301
0
LINE
8
BLACK
10
111.549
20
-76.513
11
111.432
21
-72.3188
0
ARC
8
BLACK
10
111.749
20
-72.3099
40
0.3175
50
361.6
51
541.6
0
ARC
8
BLACK
10
111.867
20
-76.5041
40
0.3175
50
181.6
51
361.6
0
LINE
8
BLACK
10
108.923
20
-79.9005
11
112.095
21
-76.7285
0
LINE
8
BLACK
10
108.473
20
-79.4515
11
111.645
21
-76.2795
0
ARC
8
BLACK
10
111.87
20
-76.504
40
0.3175
50
315
51
495
0
ARC
8
BLACK
10
108.698
20
-79.676
40
0.3175
50
135
51
315
0
LINE
8
BLACK
10
109.016
20
-82.978
11
109.016
21
-79.676
0
LINE
8
BLACK
10
108.381
20
-82.978
11
108.381
21
-79.676
0
ARC
8
BLACK
10
108.698
20
-79.676
40
0.3175
50
360
51
540
0
ARC
8
BLACK
10
108.698
20
-82.978
40
0.3175
50
180
51
360
0
LINE
8
BLACK
10
109.895
20
-83.7255
11
108.923
21
-82.7535
0
LINE
8
BLACK
10
109.445
20
-84.1745
11
108.473
21
-83.2025
0
ARC
8
BLACK
10
108.698
20
-82.978
40
0.3175
50
405
51
585
0
ARC
8
BLACK
10
109.67
20
-83.95
40
0.3175
50
225
51
405
0
LINE
8
BLACK
10
116.953
20
-76.3105
11
121.398
21
-76.3105
0
LINE
8
BLACK
10
116.953
20
-75.6755
11
121.398
21
-75.6755
0
ARC
8
BLACK
10
121.398
20
-75.993
40
0.3175
50
270
51
450
0
ARC
8
BLACK
10
116.953
20
-75.993
40
0.3175
50
90
51
270
0
LINE
8
BLACK
10
116.728
20
-75.7685
11
115.331
21
-77.1655
0
LINE
8
BLACK
10
117.178
20
-76.2175
11
115.781
21
-77.6145
0
ARC
8
BLACK
10
115.556
20
-77.39
40
0.3175
50
135
51
315
0
ARC
8
BLACK
10
116.953
20
-75.993
40
0.3175
50
-45
51
135
0
LINE
8
BLACK
10
114.858
20
-79.549
11
115.81
21
-79.549
0
LINE
8
BLACK
10
114.858
20
-78.914
11
115.81
21
-78.914
0
ARC
8
BLACK
10
115.81
20
-79.2315
40
0.3175
50
270
51
450
0
ARC
8
BLACK
10
114.858
20
-79.2315
40
0.3175
50
90
51
270
0
LINE
8
BLACK
10
115.082
20
-79.007
11
114.511
21
-78.4355
0
LINE
8
BLACK
10
114.633
20
-79.456
11
114.061
21
-78.8845
0
ARC
8
BLACK
10
114.286
20
-78.66
40
0.3175
50
405
51
585
0
ARC
8
BLACK
10
114.858
20
-79.2315
40
0.3175
50
225
51
405
0
LINE
8
BLACK
10
121.398
20
-76.12
11
122.795
21
-76.12
0
LINE
8
BLACK
10
121.398
20
-75.866
11
122.795
21
-75.866
0
ARC
8
BLACK
10
122.795
20
-75.993
40
0.127
50
270
51
450
0
ARC
8
BLACK
10
121.398
20
-75.993
40
0.127
50
90
51
270
0
LINE
8
BLACK
10
123.494
20
-75.4215
11
124.954
21
-75.4215
0
LINE
8
BLACK
10
123.494
20
-75.1675
11
124.954
21
-75.1675
0
ARC
8
BLACK
10
124.954
20
-75.2945
40
0.127
50
270
51
450
0
ARC
8
BLACK
10
123.494
20
-75.2945
40
0.127
50
90
51
270
0
LINE
8
BLACK
10
122.885
20
-76.0828
11
123.583
21
-75.3843
0
LINE
8
BLACK
10
122.705
20
-75.9032
11
123.404
21
-75.2047
0
ARC
8
BLACK
10
123.494
20
-75.2945
40
0.127
50
315
51
495
0
ARC
8
BLACK
10
122.795
20
-75.993
40
0.127
50
135
51
315
0
LINE
8
BLACK
10
114.947
20
-79.1417
11
114.376
21
-78.5702
0
LINE
8
BLACK
10
114.768
20
-79.3213
11
114.196
21
-78.7498
0
ARC
8
BLACK
10
114.286
20
-78.66
40
0.127
50
405
51
585
0
ARC
8
BLACK
10
114.858
20
-79.2315
40
0.127
50
225
51
405
0
LINE
8
BLACK
10
110.4
20
-81.7275
11
111.536
21
-81.7275
0
LINE
8
BLACK
10
110.4
20
-81.0925
11
111.536
21
-81.0925
0
ARC
8
BLACK
10
111.536
20
-81.41
40
0.3175
50
270
51
450
0
ARC
8
BLACK
10
110.4
20
-81.41
40
0.3175
50
90
51
270
0
LINE
8
BLACK
10
115.331
20
-77.1655
11
114.061
21
-78.4355
0
LINE
8
BLACK
10
115.781
20
-77.6145
11
114.511
21
-78.8845
0
ARC
8
BLACK
10
114.286
20
-78.66
40
0.3175
50
135
51
315
0
ARC
8
BLACK
10
115.556
20
-77.39
40
0.3175
50
-45
51
135
0
LINE
8
BLACK
10
114.061
20
-78.4355
11
111.311
21
-81.1855
0
LINE
8
BLACK
10
114.511
20
-78.8845
11
111.761
21
-81.6345
0
ARC
8
BLACK
10
111.536
20
-81.41
40
0.3175
50
135
51
315
0
ARC
8
BLACK
10
114.286
20
-78.66
40
0.3175
50
-45
51
135
0
LINE
8
BLACK
10
113.334
20
-90.09
11
113.334
21
-81.5175
0
LINE
8
BLACK
10
113.08
20
-90.09
11
113.08
21
-81.5175
0
ARC
8
BLACK
10
113.207
20
-81.5175
40
0.127
50
360
51
540
0
ARC
8
BLACK
10
113.207
20
-90.09
40
0.127
50
180
51
360
0
LINE
8
BLACK
10
110.508
20
-81.6445
11
113.207
21
-81.6445
0
LINE
8
BLACK
10
110.508
20
-81.3905
11
113.207
21
-81.3905
0
ARC
8
BLACK
10
113.207
20
-81.5175
40
0.127
50
270
51
450
0
ARC
8
BLACK
10
110.508
20
-81.5175
40
0.127
50
90
51
270
0
LINE
8
BLACK
10
110.597
20
-81.4277
11
110.49
21
-81.3202
0
LINE
8
BLACK
10
110.418
20
-81.6073
11
110.31
21
-81.4998
0
ARC
8
BLACK
10
110.4
20
-81.41
40
0.127
50
405
51
585
0
ARC
8
BLACK
10
110.507
20
-81.5175
40
0.127
50
225
51
405
0
LINE
8
BLACK
10
104.41
20
-87.1395
11
104.41
21
-85.667
0
LINE
8
BLACK
10
104.156
20
-87.1395
11
104.156
21
-85.667
0
ARC
8
BLACK
10
104.283
20
-85.667
40
0.127
50
360
51
540
0
ARC
8
BLACK
10
104.283
20
-87.1395
40
0.127
50
180
51
360
0
LINE
8
BLACK
10
104.193
20
-87.0497
11
103.782
21
-87.4602
0
LINE
8
BLACK
10
104.372
20
-87.2293
11
103.962
21
-87.6398
0
ARC
8
BLACK
10
103.872
20
-87.55
40
0.127
50
135
51
315
0
ARC
8
BLACK
10
104.283
20
-87.1395
40
0.127
50
-45
51
135
0
LINE
8
BLACK
10
103.364
20
-87.677
11
103.872
21
-87.677
0
LINE
8
BLACK
10
103.364
20
-87.423
11
103.872
21
-87.423
0
ARC
8
BLACK
10
103.872
20
-87.55
40
0.127
50
270
51
450
0
ARC
8
BLACK
10
103.364
20
-87.55
40
0.127
50
90
51
270
0
LINE
8
BLACK
10
103.682
20
-87.6
11
103.682
21
-87.55
0
LINE
8
BLACK
10
103.047
20
-87.6
11
103.047
21
-87.55
0
ARC
8
BLACK
10
103.364
20
-87.55
40
0.3175
50
360
51
540
0
ARC
8
BLACK
10
103.364
20
-87.6
40
0.3175
50
180
51
360
0
LINE
8
BLACK
10
100.018
20
-86.9
11
100.018
21
-85.451
0
LINE
8
BLACK
10
99.3825
20
-86.9
11
99.3825
21
-85.451
0
ARC
8
BLACK
10
99.7
20
-85.451
40
0.3175
50
360
51
540
0
ARC
8
BLACK
10
99.7
20
-86.9
40
0.3175
50
180
51
360
0
LINE
8
BLACK
10
99.4755
20
-87.1245
11
100.175
21
-87.8245
0
LINE
8
BLACK
10
99.9245
20
-86.6755
11
100.625
21
-87.3755
0
ARC
8
BLACK
10
100.4
20
-87.6
40
0.3175
50
225
51
405
0
ARC
8
BLACK
10
99.7
20
-86.9
40
0.3175
50
45
51
225
0
LINE
8
BLACK
10
99.4755
20
-87.1245
11
100.175
21
-87.8245
0
LINE
8
BLACK
10
99.9245
20
-86.6755
11
100.625
21
-87.3755
0
ARC
8
BLACK
10
100.4
20
-87.6
40
0.3175
50
225
51
405
0
ARC
8
BLACK
10
99.7
20
-86.9
40
0.3175
50
45
51
225
0
LINE
8
BLACK
10
100.4
20
-87.9175
11
103.364
21
-87.9175
0
LINE
8
BLACK
10
100.4
20
-87.2825
11
103.364
21
-87.2825
0
ARC
8
BLACK
10
103.364
20
-87.6
40
0.3175
50
270
51
450
0
ARC
8
BLACK
10
100.4
20
-87.6
40
0.3175
50
90
51
270
0
LINE
8
BLACK
10
99.6102
20
-86.9898
11
100.31
21
-87.6898
0
LINE
8
BLACK
10
99.7898
20
-86.8102
11
100.49
21
-87.5102
0
ARC
8
BLACK
10
100.4
20
-87.6
40
0.127
50
225
51
405
0
ARC
8
BLACK
10
99.7
20
-86.9
40
0.127
50
45
51
225
0
LINE
8
BLACK
10
100.472
20
-87.5282
11
99.7718
21
-86.8282
0
LINE
8
BLACK
10
100.328
20
-87.6718
11
99.6282
21
-86.9718
0
ARC
8
BLACK
10
99.7
20
-86.9
40
0.1016
50
405
51
585
0
ARC
8
BLACK
10
100.4
20
-87.6
40
0.1016
50
225
51
405
0
LINE
8
BLACK
10
113.334
20
-92.376
11
113.334
21
-90.09
0
LINE
8
BLACK
10
113.08
20
-92.376
11
113.08
21
-90.09
0
ARC
8
BLACK
10
113.207
20
-90.09
40
0.127
50
360
51
540
0
ARC
8
BLACK
10
113.207
20
-92.376
40
0.127
50
180
51
360
0
LINE
8
BLACK
10
118.35
20
-79.549
11
119.938
21
-79.549
0
LINE
8
BLACK
10
118.35
20
-78.914
11
119.938
21
-78.914
0
ARC
8
BLACK
10
119.938
20
-79.2315
40
0.3175
50
270
51
450
0
ARC
8
BLACK
10
118.35
20
-79.2315
40
0.3175
50
90
51
270
0
LINE
8
BLACK
10
121.017
20
-84.1845
11
122.922
21
-84.1845
0
LINE
8
BLACK
10
121.017
20
-83.5495
11
122.922
21
-83.5495
0
ARC
8
BLACK
10
122.922
20
-83.867
40
0.3175
50
270
51
450
0
ARC
8
BLACK
10
121.017
20
-83.867
40
0.3175
50
90
51
270
0
LINE
8
BLACK
10
120.607
20
-79.4515
11
120.162
21
-79.007
0
LINE
8
BLACK
10
120.157
20
-79.9005
11
119.713
21
-79.456
0
ARC
8
BLACK
10
119.938
20
-79.2315
40
0.3175
50
405
51
585
0
ARC
8
BLACK
10
120.382
20
-79.676
40
0.3175
50
225
51
405
0
LINE
8
BLACK
10
120.162
20
-79.007
11
120.099
21
-78.9435
0
LINE
8
BLACK
10
119.713
20
-79.456
11
119.649
21
-79.3925
0
ARC
8
BLACK
10
119.874
20
-79.168
40
0.3175
50
405
51
585
0
ARC
8
BLACK
10
119.938
20
-79.2315
40
0.3175
50
225
51
405
0
LINE
8
BLACK
10
120.7
20
-83.232
11
120.7
21
-79.676
0
LINE
8
BLACK
10
120.065
20
-83.232
11
120.065
21
-79.676
0
ARC
8
BLACK
10
120.382
20
-79.676
40
0.3175
50
360
51
540
0
ARC
8
BLACK
10
120.382
20
-83.232
40
0.3175
50
180
51
360
0
LINE
8
BLACK
10
121.242
20
-83.6425
11
120.607
21
-83.0075
0
LINE
8
BLACK
10
120.792
20
-84.0915
11
120.157
21
-83.4565
0
ARC
8
BLACK
10
120.382
20
-83.232
40
0.3175
50
405
51
585
0
ARC
8
BLACK
10
121.017
20
-83.867
40
0.3175
50
225
51
405
0
LINE
8
BLACK
10
116.918
20
-90.33
11
116.918
21
-90.189
0
LINE
8
BLACK
10
116.283
20
-90.33
11
116.283
21
-90.189
0
ARC
8
BLACK
10
116.6
20
-90.189
40
0.3175
50
360
51
540
0
ARC
8
BLACK
10
116.6
20
-90.33
40
0.3175
50
180
51
360
0
LINE
8
BLACK
10
116.825
20
-90.4135
11
123.147
21
-84.0915
0
LINE
8
BLACK
10
116.375
20
-89.9645
11
122.697
21
-83.6425
0
ARC
8
BLACK
10
122.922
20
-83.867
40
0.3175
50
315
51
495
0
ARC
8
BLACK
10
116.6
20
-90.189
40
0.3175
50
135
51
315
0
LINE
8
BLACK
10
133.222
20
-81.4782
11
133.072
21
-81.3282
0
LINE
8
BLACK
10
133.078
20
-81.6218
11
132.928
21
-81.4718
0
ARC
8
BLACK
10
133
20
-81.4
40
0.1016
50
405
51
585
0
ARC
8
BLACK
10
133.15
20
-81.55
40
0.1016
50
225
51
405
0
LINE
8
BLACK
10
133.102
20
-81.4
11
133.102
21
-79.2
0
LINE
8
BLACK
10
132.898
20
-81.4
11
132.898
21
-79.2
0
ARC
8
BLACK
10
133
20
-79.2
40
0.1016
50
360
51
540
0
ARC
8
BLACK
10
133
20
-81.4
40
0.1016
50
180
51
360
0
LINE
8
BLACK
10
117.334
20
-80.311
11
118.35
21
-80.311
0
LINE
8
BLACK
10
117.334
20
-80.057
11
118.35
21
-80.057
0
ARC
8
BLACK
10
118.35
20
-80.184
40
0.127
50
270
51
450
0
ARC
8
BLACK
10
117.334
20
-80.184
40
0.127
50
90
51
270
0
LINE
8
BLACK
10
121.398
20
-72.818
11
122.541
21
-72.818
0
LINE
8
BLACK
10
121.398
20
-72.564
11
122.541
21
-72.564
0
ARC
8
BLACK
10
122.541
20
-72.691
40
0.127
50
270
51
450
0
ARC
8
BLACK
10
121.398
20
-72.691
40
0.127
50
90
51
270
0
LINE
8
BLACK
10
122.451
20
-72.7808
11
123.086
21
-73.4158
0
LINE
8
BLACK
10
122.631
20
-72.6012
11
123.266
21
-73.2362
0
ARC
8
BLACK
10
123.176
20
-73.326
40
0.127
50
225
51
405
0
ARC
8
BLACK
10
122.541
20
-72.691
40
0.127
50
45
51
225
0
LINE
8
BLACK
10
123.012
20
-79.5118
11
123.52
21
-79.0038
0
LINE
8
BLACK
10
122.832
20
-79.3322
11
123.34
21
-78.8242
0
ARC
8
BLACK
10
123.43
20
-78.914
40
0.127
50
315
51
495
0
ARC
8
BLACK
10
122.922
20
-79.422
40
0.127
50
135
51
315
0
LINE
8
BLACK
10
123.43
20
-79.041
11
124.7
21
-79.041
0
LINE
8
BLACK
10
123.43
20
-78.787
11
124.7
21
-78.787
0
ARC
8
BLACK
10
124.7
20
-78.914
40
0.127
50
270
51
450
0
ARC
8
BLACK
10
123.43
20
-78.914
40
0.127
50
90
51
270
0
LINE
8
BLACK
10
123.049
20
-80.565
11
123.049
21
-79.422
0
LINE
8
BLACK
10
122.795
20
-80.565
11
122.795
21
-79.422
0
ARC
8
BLACK
10
122.922
20
-79.422
40
0.127
50
360
51
540
0
ARC
8
BLACK
10
122.922
20
-80.565
40
0.127
50
180
51
360
0
LINE
8
BLACK
10
124.7
20
-79.041
11
125.716
21
-79.041
0
LINE
8
BLACK
10
124.7
20
-78.787
11
125.716
21
-78.787
0
ARC
8
BLACK
10
125.716
20
-78.914
40
0.127
50
270
51
450
0
ARC
8
BLACK
10
124.7
20
-78.914
40
0.127
50
90
51
270
0
LINE
8
BLACK
10
114.604
20
-85.5815
11
115.81
21
-85.5815
0
LINE
8
BLACK
10
114.604
20
-85.3275
11
115.81
21
-85.3275
0
ARC
8
BLACK
10
115.81
20
-85.4545
40
0.127
50
270
51
450
0
ARC
8
BLACK
10
114.604
20
-85.4545
40
0.127
50
90
51
270
0
LINE
8
BLACK
10
114.514
20
-85.3647
11
114.196
21
-85.6822
0
LINE
8
BLACK
10
114.693
20
-85.5443
11
114.376
21
-85.8618
0
ARC
8
BLACK
10
114.286
20
-85.772
40
0.127
50
135
51
315
0
ARC
8
BLACK
10
114.604
20
-85.4545
40
0.127
50
-45
51
135
0
LINE
8
BLACK
10
130.479
20
-83.74
11
130.479
21
-82.139
0
LINE
8
BLACK
10
129.844
20
-83.74
11
129.844
21
-82.139
0
ARC
8
BLACK
10
130.161
20
-82.139
40
0.3175
50
360
51
540
0
ARC
8
BLACK
10
130.161
20
-83.74
40
0.3175
50
180
51
360
0
LINE
8
BLACK
10
131.318
20
-81.3
11
131.318
21
-79.2
0
LINE
8
BLACK
10
130.683
20
-81.3
11
130.683
21
-79.2
0
ARC
8
BLACK
10
131
20
-79.2
40
0.3175
50
360
51
540
0
ARC
8
BLACK
10
131
20
-81.3
40
0.3175
50
180
51
360
0
LINE
8
BLACK
10
130.386
20
-82.3635
11
131.225
21
-81.5245
0
LINE
8
BLACK
10
129.936
20
-81.9145
11
130.775
21
-81.0755
0
ARC
8
BLACK
10
131
20
-81.3
40
0.3175
50
315
51
495
0
ARC
8
BLACK
10
130.161
20
-82.139
40
0.3175
50
135
51
315
0
LINE
8
BLACK
10
126.351
20
-80.692
11
126.351
21
-79.422
0
LINE
8
BLACK
10
126.097
20
-80.692
11
126.097
21
-79.422
0
ARC
8
BLACK
10
126.224
20
-79.422
40
0.127
50
360
51
540
0
ARC
8
BLACK
10
126.224
20
-80.692
40
0.127
50
180
51
360
0
LINE
8
BLACK
10
126.314
20
-79.3322
11
125.806
21
-78.8242
0
LINE
8
BLACK
10
126.134
20
-79.5118
11
125.626
21
-79.0038
0
ARC
8
BLACK
10
125.716
20
-78.914
40
0.127
50
405
51
585
0
ARC
8
BLACK
10
126.224
20
-79.422
40
0.127
50
225
51
405
0
LINE
8
BLACK
10
105.019
20
-87.5175
11
105.019
21
-85.667
0
LINE
8
BLACK
10
104.816
20
-87.5175
11
104.816
21
-85.667
0
ARC
8
BLACK
10
104.918
20
-85.667
40
0.1016
50
360
51
540
0
ARC
8
BLACK
10
104.918
20
-87.5175
40
0.1016
50
180
51
360
0
LINE
8
BLACK
10
104.846
20
-87.5893
11
104.928
21
-87.6718
0
LINE
8
BLACK
10
104.989
20
-87.4457
11
105.072
21
-87.5282
0
ARC
8
BLACK
10
105
20
-87.6
40
0.1016
50
225
51
405
0
ARC
8
BLACK
10
104.918
20
-87.5175
40
0.1016
50
45
51
225
0
LINE
8
BLACK
10
103.783
20
-76.6253
11
103.749
21
-75.3448
0
LINE
8
BLACK
10
103.58
20
-76.6307
11
103.546
21
-75.3502
0
ARC
8
BLACK
10
103.648
20
-75.3475
40
0.1016
50
361.5
51
541.5
0
ARC
8
BLACK
10
103.681
20
-76.628
40
0.1016
50
181.5
51
361.5
0
LINE
8
BLACK
10
103.719
20
-75.2757
11
103.372
21
-74.9282
0
LINE
8
BLACK
10
103.576
20
-75.4193
11
103.228
21
-75.0718
0
ARC
8
BLACK
10
103.3
20
-75
40
0.1016
50
405
51
585
0
ARC
8
BLACK
10
103.648
20
-75.3475
40
0.1016
50
225
51
405
0
LINE
8
BLACK
10
104.384
20
-81.7825
11
104.384
21
-80.333
0
LINE
8
BLACK
10
104.181
20
-81.7825
11
104.181
21
-80.333
0
ARC
8
BLACK
10
104.283
20
-80.333
40
0.1016
50
360
51
540
0
ARC
8
BLACK
10
104.283
20
-81.7825
40
0.1016
50
180
51
360
0
LINE
8
BLACK
10
104.211
20
-81.8543
11
104.228
21
-81.8718
0
LINE
8
BLACK
10
104.354
20
-81.7107
11
104.372
21
-81.7282
0
ARC
8
BLACK
10
104.3
20
-81.8
40
0.1016
50
225
51
405
0
ARC
8
BLACK
10
104.283
20
-81.7825
40
0.1016
50
45
51
225
0
LINE
8
BLACK
10
126.07
20
-92.127
11
126.9
21
-92.127
0
LINE
8
BLACK
10
126.07
20
-91.873
11
126.9
21
-91.873
0
ARC
8
BLACK
10
126.9
20
-92
40
0.127
50
270
51
450
0
ARC
8
BLACK
10
126.07
20
-92
40
0.127
50
90
51
270
0
LINE
8
BLACK
10
128.661
20
-88.1456
11
129.799
21
-87.5274
0
LINE
8
BLACK
10
128.358
20
-87.5876
11
129.497
21
-86.9694
0
ARC
8
BLACK
10
129.648
20
-87.2484
40
0.3175
50
298.5
51
478.5
0
ARC
8
BLACK
10
128.509
20
-87.8666
40
0.3175
50
118.5
51
298.5
0
LINE
8
BLACK
10
129.423
20
-87.472
11
129.425
21
-87.4745
0
LINE
8
BLACK
10
129.872
20
-87.023
11
129.875
21
-87.0255
0
ARC
8
BLACK
10
129.65
20
-87.25
40
0.3175
50
225
51
405
0
ARC
8
BLACK
10
129.648
20
-87.2475
40
0.3175
50
45
51
225
0
LINE
8
BLACK
10
118.477
20
-83.5495
11
118.477
21
-81.1365
0
LINE
8
BLACK
10
118.223
20
-83.5495
11
118.223
21
-81.1365
0
ARC
8
BLACK
10
118.35
20
-81.1365
40
0.127
50
360
51
540
0
ARC
8
BLACK
10
118.35
20
-83.5495
40
0.127
50
180
51
360
0
LINE
8
BLACK
10
118.35
20
-85.5815
11
119.684
21
-85.5815
0
LINE
8
BLACK
10
118.35
20
-85.3275
11
119.684
21
-85.3275
0
ARC
8
BLACK
10
119.684
20
-85.4545
40
0.127
50
270
51
450
0
ARC
8
BLACK
10
118.35
20
-85.4545
40
0.127
50
90
51
270
0
LINE
8
BLACK
10
124.954
20
-73.5165
11
125.78
21
-73.5165
0
LINE
8
BLACK
10
124.954
20
-73.2625
11
125.78
21
-73.2625
0
ARC
8
BLACK
10
125.78
20
-73.3895
40
0.127
50
270
51
450
0
ARC
8
BLACK
10
124.954
20
-73.3895
40
0.127
50
90
51
270
0
LINE
8
BLACK
10
126.314
20
-73.7442
11
125.869
21
-73.2997
0
LINE
8
BLACK
10
126.134
20
-73.9238
11
125.69
21
-73.4793
0
ARC
8
BLACK
10
125.78
20
-73.3895
40
0.127
50
405
51
585
0
ARC
8
BLACK
10
126.224
20
-73.834
40
0.127
50
225
51
405
0
LINE
8
BLACK
10
126.351
20
-76.882
11
126.351
21
-73.834
0
LINE
8
BLACK
10
126.097
20
-76.882
11
126.097
21
-73.834
0
ARC
8
BLACK
10
126.224
20
-73.834
40
0.127
50
360
51
540
0
ARC
8
BLACK
10
126.224
20
-76.882
40
0.127
50
180
51
360
0
LINE
8
BLACK
10
125.298
20
-77.9878
11
126.314
21
-76.9718
0
LINE
8
BLACK
10
125.118
20
-77.8082
11
126.134
21
-76.7922
0
ARC
8
BLACK
10
126.224
20
-76.882
40
0.127
50
315
51
495
0
ARC
8
BLACK
10
125.208
20
-77.898
40
0.127
50
135
51
315
0
LINE
8
BLACK
10
121.398
20
-78.025
11
125.208
21
-78.025
0
LINE
8
BLACK
10
121.398
20
-77.771
11
125.208
21
-77.771
0
ARC
8
BLACK
10
125.208
20
-77.898
40
0.127
50
270
51
450
0
ARC
8
BLACK
10
121.398
20
-77.898
40
0.127
50
90
51
270
0
LINE
8
BLACK
10
120.98
20
-78.4958
11
121.488
21
-77.9878
0
LINE
8
BLACK
10
120.8
20
-78.3162
11
121.308
21
-77.8082
0
ARC
8
BLACK
10
121.398
20
-77.898
40
0.127
50
315
51
495
0
ARC
8
BLACK
10
120.89
20
-78.406
40
0.127
50
135
51
315
0
LINE
8
BLACK
10
119.773
20
-85.5443
11
120.218
21
-85.0998
0
LINE
8
BLACK
10
119.594
20
-85.3647
11
120.038
21
-84.9202
0
ARC
8
BLACK
10
120.128
20
-85.01
40
0.127
50
315
51
495
0
ARC
8
BLACK
10
119.684
20
-85.4545
40
0.127
50
135
51
315
0
LINE
8
BLACK
10
115.937
20
-83.5495
11
115.937
21
-81.1365
0
LINE
8
BLACK
10
115.683
20
-83.5495
11
115.683
21
-81.1365
0
ARC
8
BLACK
10
115.81
20
-81.1365
40
0.127
50
360
51
540
0
ARC
8
BLACK
10
115.81
20
-83.5495
40
0.127
50
180
51
360
0
LINE
8
BLACK
10
126.07
20
-91.1745
11
127.253
21
-91.1745
0
LINE
8
BLACK
10
126.07
20
-90.9205
11
127.253
21
-90.9205
0
ARC
8
BLACK
10
127.253
20
-91.0475
40
0.127
50
270
51
450
0
ARC
8
BLACK
10
126.07
20
-91.0475
40
0.127
50
90
51
270
0
LINE
8
BLACK
10
128.496
20
-89.983
11
128.606
21
-89.8555
0
LINE
8
BLACK
10
128.304
20
-89.817
11
128.414
21
-89.6895
0
ARC
8
BLACK
10
128.51
20
-89.7725
40
0.127
50
319.2
51
499.2
0
ARC
8
BLACK
10
128.4
20
-89.9
40
0.127
50
139.2
51
319.2
0
LINE
8
BLACK
10
127.342
20
-91.1373
11
128.49
21
-89.9898
0
LINE
8
BLACK
10
127.163
20
-90.9577
11
128.31
21
-89.8102
0
ARC
8
BLACK
10
128.4
20
-89.9
40
0.127
50
315
51
495
0
ARC
8
BLACK
10
127.253
20
-91.0475
40
0.127
50
135
51
315
0
LINE
8
BLACK
10
131.558
20
-90.09
11
134.098
21
-90.09
0
LINE
8
BLACK
10
131.558
20
-89.455
11
134.098
21
-89.455
0
ARC
8
BLACK
10
134.098
20
-89.7725
40
0.3175
50
270
51
450
0
ARC
8
BLACK
10
131.558
20
-89.7725
40
0.3175
50
90
51
270
0
LINE
8
BLACK
10
128.51
20
-90.09
11
131.558
21
-90.09
0
LINE
8
BLACK
10
128.51
20
-89.455
11
131.558
21
-89.455
0
ARC
8
BLACK
10
131.558
20
-89.7725
40
0.3175
50
270
51
450
0
ARC
8
BLACK
10
128.51
20
-89.7725
40
0.3175
50
90
51
270
0
LINE
8
BLACK
10
121.2
20
-91.1745
11
123.53
21
-91.1745
0
LINE
8
BLACK
10
121.2
20
-90.9205
11
123.53
21
-90.9205
0
ARC
8
BLACK
10
123.53
20
-91.0475
40
0.127
50
270
51
450
0
ARC
8
BLACK
10
121.2
20
-91.0475
40
0.127
50
90
51
270
0
LINE
8
BLACK
10
126.07
20
-93.0795
11
126.547
21
-93.0795
0
LINE
8
BLACK
10
126.07
20
-92.8255
11
126.547
21
-92.8255
0
ARC
8
BLACK
10
126.547
20
-92.9525
40
0.127
50
270
51
450
0
ARC
8
BLACK
10
126.07
20
-92.9525
40
0.127
50
90
51
270
0
LINE
8
BLACK
10
126.986
20
-93.519
11
128.398
21
-93.519
0
LINE
8
BLACK
10
126.986
20
-93.265
11
128.398
21
-93.265
0
ARC
8
BLACK
10
128.398
20
-93.392
40
0.127
50
270
51
450
0
ARC
8
BLACK
10
126.986
20
-93.392
40
0.127
50
90
51
270
0
LINE
8
BLACK
10
126.457
20
-93.0423
11
126.896
21
-93.4818
0
LINE
8
BLACK
10
126.636
20
-92.8627
11
127.076
21
-93.3022
0
ARC
8
BLACK
10
126.986
20
-93.392
40
0.127
50
225
51
405
0
ARC
8
BLACK
10
126.547
20
-92.9525
40
0.127
50
45
51
225
0
LINE
8
BLACK
10
125.277
20
-93.0795
11
126.07
21
-93.0795
0
LINE
8
BLACK
10
125.277
20
-92.8255
11
126.07
21
-92.8255
0
ARC
8
BLACK
10
126.07
20
-92.9525
40
0.127
50
270
51
450
0
ARC
8
BLACK
10
125.277
20
-92.9525
40
0.127
50
90
51
270
0
LINE
8
BLACK
10
124.827
20
-90.15
11
124.827
21
-89.004
0
LINE
8
BLACK
10
124.573
20
-90.15
11
124.573
21
-89.004
0
ARC
8
BLACK
10
124.7
20
-89.004
40
0.127
50
360
51
540
0
ARC
8
BLACK
10
124.7
20
-90.15
40
0.127
50
180
51
360
0
LINE
8
BLACK
10
124.827
20
-92.376
11
124.827
21
-90.15
0
LINE
8
BLACK
10
124.573
20
-92.376
11
124.573
21
-90.15
0
ARC
8
BLACK
10
124.7
20
-90.15
40
0.127
50
360
51
540
0
ARC
8
BLACK
10
124.7
20
-92.376
40
0.127
50
180
51
360
0
LINE
8
BLACK
10
125.366
20
-92.8627
11
124.79
21
-92.2862
0
LINE
8
BLACK
10
125.187
20
-93.0423
11
124.61
21
-92.4658
0
ARC
8
BLACK
10
124.7
20
-92.376
40
0.127
50
405
51
585
0
ARC
8
BLACK
10
125.277
20
-92.9525
40
0.127
50
225
51
405
0
LINE
8
BLACK
10
97.589
20
-82.4665
11
99.7
21
-82.4665
0
LINE
8
BLACK
10
97.589
20
-81.8315
11
99.7
21
-81.8315
0
ARC
8
BLACK
10
99.7
20
-82.149
40
0.3175
50
270
51
450
0
ARC
8
BLACK
10
97.589
20
-82.149
40
0.3175
50
90
51
270
0
LINE
8
BLACK
10
97.3645
20
-81.9245
11
97.1705
21
-82.1185
0
LINE
8
BLACK
10
97.8135
20
-82.3735
11
97.6195
21
-82.5675
0
ARC
8
BLACK
10
97.395
20
-82.343
40
0.3175
50
135
51
315
0
ARC
8
BLACK
10
97.589
20
-82.149
40
0.3175
50
-45
51
135
0
LINE
8
BLACK
10
97.7125
20
-83.994
11
97.7125
21
-82.343
0
LINE
8
BLACK
10
97.0775
20
-83.994
11
97.0775
21
-82.343
0
ARC
8
BLACK
10
97.395
20
-82.343
40
0.3175
50
360
51
540
0
ARC
8
BLACK
10
97.395
20
-83.994
40
0.3175
50
180
51
360
0
LINE
8
BLACK
10
97.7125
20
-83.994
11
97.7125
21
-82.343
0
LINE
8
BLACK
10
97.0775
20
-83.994
11
97.0775
21
-82.343
0
ARC
8
BLACK
10
97.395
20
-82.343
40
0.3175
50
360
51
540
0
ARC
8
BLACK
10
97.395
20
-83.994
40
0.3175
50
180
51
360
0
LINE
8
BLACK
10
143.595
20
-89.7075
11
143.381
21
-89.4935
0
LINE
8
BLACK
10
143.381
20
-89.4935
11
143.381
21
-81.6617
0
LINE
8
BLACK
10
143.381
20
-81.6617
11
143.353
21
-81.1066
0
LINE
8
BLACK
10
143.353
20
-81.1066
11
143.194
21
-80.7229
0
LINE
8
BLACK
10
143.194
20
-80.7229
11
142.952
21
-80.6534
0
LINE
8
BLACK
10
142.952
20
-80.6534
11
142.773
21
-80.833
0
LINE
8
BLACK
10
142.773
20
-80.833
11
142.773
21
-80.4738
0
LINE
8
BLACK
10
142.773
20
-80.4738
11
142.703
21
-80.2316
0
LINE
8
BLACK
10
142.703
20
-80.2316
11
142.18
21
-80.0449
0
LINE
8
BLACK
10
142.18
20
-80.0449
11
141.625
21
-80.0726
0
LINE
8
BLACK
10
141.625
20
-80.0726
11
141.241
21
-80.2316
0
LINE
8
BLACK
10
141.241
20
-80.2316
11
141.171
21
-80.4738
0
LINE
8
BLACK
10
141.171
20
-80.4738
11
141.972
21
-81.2744
0
LINE
8
BLACK
10
141.972
20
-81.2744
11
142.773
21
-80.4738
0
LINE
8
BLACK
10
142.773
20
-80.4738
11
142.773
21
-80.833
0
LINE
8
BLACK
10
142.773
20
-80.833
11
142.152
21
-81.454
0
LINE
8
BLACK
10
142.152
20
-81.454
11
142.952
21
-82.2546
0
LINE
8
BLACK
10
142.952
20
-82.2546
11
143.194
21
-82.1851
0
LINE
8
BLACK
10
143.194
20
-82.1851
11
143.381
21
-81.6617
0
LINE
8
BLACK
10
143.381
20
-81.6617
11
143.381
21
-89.4935
0
LINE
8
BLACK
10
143.381
20
-89.4935
11
143.115
21
-89.2271
0
LINE
8
BLACK
10
143.115
20
-89.2271
11
143.115
21
-83.7676
0
LINE
8
BLACK
10
143.115
20
-83.7676
11
142.942
21
-83.3474
0
LINE
8
BLACK
10
142.942
20
-83.3474
11
142.62
21
-83.0256
0
LINE
8
BLACK
10
142.62
20
-83.0256
11
142.2
21
-82.8512
0
LINE
8
BLACK
10
142.2
20
-82.8512
11
142.006
21
-82.851
0
LINE
8
BLACK
10
142.006
20
-82.851
11
142.319
21
-82.8354
0
LINE
8
BLACK
10
142.319
20
-82.8354
11
142.703
21
-82.6764
0
LINE
8
BLACK
10
142.703
20
-82.6764
11
142.773
21
-82.4342
0
LINE
8
BLACK
10
142.773
20
-82.4342
11
141.972
21
-81.6336
0
LINE
8
BLACK
10
141.972
20
-81.6336
11
141.792
21
-81.8132
0
LINE
8
BLACK
10
141.792
20
-81.8132
11
141.792
21
-81.454
0
LINE
8
BLACK
10
141.792
20
-81.454
11
140.992
21
-80.6534
0
LINE
8
BLACK
10
140.992
20
-80.6534
11
140.75
21
-80.7229
0
LINE
8
BLACK
10
140.75
20
-80.7229
11
140.706
21
-80.8463
0
LINE
8
BLACK
10
140.706
20
-80.8463
11
140.654
21
-80.7229
0
LINE
8
BLACK
10
140.654
20
-80.7229
11
140.412
21
-80.6534
0
LINE
8
BLACK
10
140.412
20
-80.6534
11
140.233
21
-80.833
0
LINE
8
BLACK
10
140.233
20
-80.833
11
140.233
21
-80.4738
0
LINE
8
BLACK
10
140.233
20
-80.4738
11
140.163
21
-80.2316
0
LINE
8
BLACK
10
140.163
20
-80.2316
11
139.64
21
-80.0449
0
LINE
8
BLACK
10
139.64
20
-80.0449
11
139.085
21
-80.0726
0
LINE
8
BLACK
10
139.085
20
-80.0726
11
138.701
21
-80.2316
0
LINE
8
BLACK
10
138.701
20
-80.2316
11
138.631
21
-80.4738
0
LINE
8
BLACK
10
138.631
20
-80.4738
11
139.432
21
-81.2744
0
LINE
8
BLACK
10
139.432
20
-81.2744
11
140.233
21
-80.4738
0
LINE
8
BLACK
10
140.233
20
-80.4738
11
140.233
21
-80.833
0
LINE
8
BLACK
10
140.233
20
-80.833
11
139.612
21
-81.454
0
LINE
8
BLACK
10
139.612
20
-81.454
11
140.412
21
-82.2546
0
LINE
8
BLACK
10
140.412
20
-82.2546
11
140.654
21
-82.1851
0
LINE
8
BLACK
10
140.654
20
-82.1851
11
140.698
21
-82.0617
0
LINE
8
BLACK
10
140.698
20
-82.0617
11
140.75
21
-82.1851
0
LINE
8
BLACK
10
140.75
20
-82.1851
11
140.992
21
-82.2546
0
LINE
8
BLACK
10
140.992
20
-82.2546
11
141.792
21
-81.454
0
LINE
8
BLACK
10
141.792
20
-81.454
11
141.792
21
-81.8132
0
LINE
8
BLACK
10
141.792
20
-81.8132
11
141.171
21
-82.4342
0
LINE
8
BLACK
10
141.171
20
-82.4342
11
141.241
21
-82.6764
0
LINE
8
BLACK
10
141.241
20
-82.6764
11
141.738
21
-82.8539
0
LINE
8
BLACK
10
141.738
20
-82.8539
11
141.325
21
-83.0244
0
LINE
8
BLACK
10
141.325
20
-83.0244
11
141.004
21
-83.3457
0
LINE
8
BLACK
10
141.004
20
-83.3457
11
140.829
21
-83.7656
0
LINE
8
BLACK
10
140.829
20
-83.7656
11
140.829
21
-84.2204
0
LINE
8
BLACK
10
140.829
20
-84.2204
11
141.002
21
-84.6406
0
LINE
8
BLACK
10
141.002
20
-84.6406
11
141.324
21
-84.9624
0
LINE
8
BLACK
10
141.324
20
-84.9624
11
141.744
21
-85.1368
0
LINE
8
BLACK
10
141.744
20
-85.1368
11
142.198
21
-85.1372
0
LINE
8
BLACK
10
142.198
20
-85.1372
11
142.619
21
-84.9636
0
LINE
8
BLACK
10
142.619
20
-84.9636
11
142.94
21
-84.6423
0
LINE
8
BLACK
10
142.94
20
-84.6423
11
143.115
21
-84.2224
0
LINE
8
BLACK
10
143.115
20
-84.2224
11
143.115
21
-83.7676
0
LINE
8
BLACK
10
143.115
20
-83.7676
11
143.115
21
-89.2271
0
LINE
8
BLACK
10
143.115
20
-89.2271
11
142.561
21
-88.6719
0
LINE
8
BLACK
10
142.561
20
-88.6719
11
141.161
21
-88.0907
0
LINE
8
BLACK
10
141.161
20
-88.0907
11
140.575
21
-88.0902
0
LINE
8
BLACK
10
140.575
20
-88.0902
11
140.575
21
-83.7676
0
LINE
8
BLACK
10
140.575
20
-83.7676
11
140.402
21
-83.3474
0
LINE
8
BLACK
10
140.402
20
-83.3474
11
140.08
21
-83.0256
0
LINE
8
BLACK
10
140.08
20
-83.0256
11
139.66
21
-82.8512
0
LINE
8
BLACK
10
139.66
20
-82.8512
11
139.466
21
-82.851
0
LINE
8
BLACK
10
139.466
20
-82.851
11
139.779
21
-82.8354
0
LINE
8
BLACK
10
139.779
20
-82.8354
11
140.163
21
-82.6764
0
LINE
8
BLACK
10
140.163
20
-82.6764
11
140.233
21
-82.4342
0
LINE
8
BLACK
10
140.233
20
-82.4342
11
139.432
21
-81.6336
0
LINE
8
BLACK
10
139.432
20
-81.6336
11
139.252
21
-81.8132
0
LINE
8
BLACK
10
139.252
20
-81.8132
11
139.252
21
-81.454
0
LINE
8
BLACK
10
139.252
20
-81.454
11
138.452
21
-80.6534
0
LINE
8
BLACK
10
138.452
20
-80.6534
11
138.21
21
-80.7229
0
LINE
8
BLACK
10
138.21
20
-80.7229
11
138.166
21
-80.8463
0
LINE
8
BLACK
10
138.166
20
-80.8463
11
138.114
21
-80.7229
0
LINE
8
BLACK
10
138.114
20
-80.7229
11
137.872
21
-80.6534
0
LINE
8
BLACK
10
137.872
20
-80.6534
11
137.693
21
-80.833
0
LINE
8
BLACK
10
137.693
20
-80.833
11
137.693
21
-80.4738
0
LINE
8
BLACK
10
137.693
20
-80.4738
11
137.623
21
-80.2316
0
LINE
8
BLACK
10
137.623
20
-80.2316
11
137.1
21
-80.0449
0
LINE
8
BLACK
10
137.1
20
-80.0449
11
136.545
21
-80.0726
0
LINE
8
BLACK
10
136.545
20
-80.0726
11
136.161
21
-80.2316
0
LINE
8
BLACK
10
136.161
20
-80.2316
11
136.091
21
-80.4738
0
LINE
8
BLACK
10
136.091
20
-80.4738
11
136.892
21
-81.2744
0
LINE
8
BLACK
10
136.892
20
-81.2744
11
137.693
21
-80.4738
0
LINE
8
BLACK
10
137.693
20
-80.4738
11
137.693
21
-80.833
0
LINE
8
BLACK
10
137.693
20
-80.833
11
137.072
21
-81.454
0
LINE
8
BLACK
10
137.072
20
-81.454
11
137.872
21
-82.2546
0
LINE
8
BLACK
10
137.872
20
-82.2546
11
138.114
21
-82.1851
0
LINE
8
BLACK
10
138.114
20
-82.1851
11
138.158
21
-82.0617
0
LINE
8
BLACK
10
138.158
20
-82.0617
11
138.21
21
-82.1851
0
LINE
8
BLACK
10
138.21
20
-82.1851
11
138.452
21
-82.2546
0
LINE
8
BLACK
10
138.452
20
-82.2546
11
139.252
21
-81.454
0
LINE
8
BLACK
10
139.252
20
-81.454
11
139.252
21
-81.8132
0
LINE
8
BLACK
10
139.252
20
-81.8132
11
138.631
21
-82.4342
0
LINE
8
BLACK
10
138.631
20
-82.4342
11
138.701
21
-82.6764
0
LINE
8
BLACK
10
138.701
20
-82.6764
11
139.198
21
-82.8539
0
LINE
8
BLACK
10
139.198
20
-82.8539
11
138.785
21
-83.0244
0
LINE
8
BLACK
10
138.785
20
-83.0244
11
138.464
21
-83.3457
0
LINE
8
BLACK
10
138.464
20
-83.3457
11
138.289
21
-83.7656
0
LINE
8
BLACK
10
138.289
20
-83.7656
11
138.289
21
-84.2204
0
LINE
8
BLACK
10
138.289
20
-84.2204
11
138.462
21
-84.6406
0
LINE
8
BLACK
10
138.462
20
-84.6406
11
138.784
21
-84.9624
0
LINE
8
BLACK
10
138.784
20
-84.9624
11
139.204
21
-85.1368
0
LINE
8
BLACK
10
139.204
20
-85.1368
11
139.658
21
-85.1372
0
LINE
8
BLACK
10
139.658
20
-85.1372
11
140.079
21
-84.9636
0
LINE
8
BLACK
10
140.079
20
-84.9636
11
140.4
21
-84.6423
0
LINE
8
BLACK
10
140.4
20
-84.6423
11
140.575
21
-84.2224
0
LINE
8
BLACK
10
140.575
20
-84.2224
11
140.575
21
-83.7676
0
LINE
8
BLACK
10
140.575
20
-83.7676
11
140.575
21
-88.0902
0
LINE
8
BLACK
10
140.575
20
-88.0902
11
139.645
21
-88.0893
0
LINE
8
BLACK
10
139.645
20
-88.0893
11
138.245
21
-88.6682
0
LINE
8
BLACK
10
138.245
20
-88.6682
11
138.035
21
-88.8774
0
LINE
8
BLACK
10
138.035
20
-88.8774
11
138.035
21
-84.6805
0
LINE
8
BLACK
10
138.035
20
-84.6805
11
138.035
21
-83.1565
0
LINE
8
BLACK
10
138.035
20
-83.1565
11
137.977
21
-83.0165
0
LINE
8
BLACK
10
137.977
20
-83.0165
11
137.87
21
-82.9092
0
LINE
8
BLACK
10
137.87
20
-82.9092
11
137.73
21
-82.8511
0
LINE
8
BLACK
10
137.73
20
-82.8511
11
137.579
21
-82.8509
0
LINE
8
BLACK
10
137.579
20
-82.8509
11
136.928
21
-82.8509
0
LINE
8
BLACK
10
136.928
20
-82.8509
11
137.239
21
-82.8354
0
LINE
8
BLACK
10
137.239
20
-82.8354
11
137.623
21
-82.6764
0
LINE
8
BLACK
10
137.623
20
-82.6764
11
137.693
21
-82.4342
0
LINE
8
BLACK
10
137.693
20
-82.4342
11
136.892
21
-81.6336
0
LINE
8
BLACK
10
136.892
20
-81.6336
11
136.712
21
-81.8132
0
LINE
8
BLACK
10
136.712
20
-81.8132
11
136.712
21
-81.454
0
LINE
8
BLACK
10
136.712
20
-81.454
11
135.912
21
-80.6534
0
LINE
8
BLACK
10
135.912
20
-80.6534
11
135.67
21
-80.7229
0
LINE
8
BLACK
10
135.67
20
-80.7229
11
135.483
21
-81.2463
0
LINE
8
BLACK
10
135.483
20
-81.2463
11
135.511
21
-81.8014
0
LINE
8
BLACK
10
135.511
20
-81.8014
11
135.67
21
-82.1851
0
LINE
8
BLACK
10
135.67
20
-82.1851
11
135.912
21
-82.2546
0
LINE
8
BLACK
10
135.912
20
-82.2546
11
136.712
21
-81.454
0
LINE
8
BLACK
10
136.712
20
-81.454
11
136.712
21
-81.8132
0
LINE
8
BLACK
10
136.712
20
-81.8132
11
136.091
21
-82.4342
0
LINE
8
BLACK
10
136.091
20
-82.4342
11
136.161
21
-82.6764
0
LINE
8
BLACK
10
136.161
20
-82.6764
11
136.65
21
-82.8509
0
LINE
8
BLACK
10
136.65
20
-82.8509
11
136.055
21
-82.8509
0
LINE
8
BLACK
10
136.055
20
-82.8509
11
135.914
21
-82.9088
0
LINE
8
BLACK
10
135.914
20
-82.9088
11
135.807
21
-83.0159
0
LINE
8
BLACK
10
135.807
20
-83.0159
11
135.749
21
-83.1559
0
LINE
8
BLACK
10
135.749
20
-83.1559
11
135.749
21
-83.3075
0
LINE
8
BLACK
10
135.749
20
-83.3075
11
135.749
21
-84.8315
0
LINE
8
BLACK
10
135.749
20
-84.8315
11
135.807
21
-84.9715
0
LINE
8
BLACK
10
135.807
20
-84.9715
11
135.914
21
-85.0788
0
LINE
8
BLACK
10
135.914
20
-85.0788
11
136.054
21
-85.1369
0
LINE
8
BLACK
10
136.054
20
-85.1369
11
136.205
21
-85.1371
0
LINE
8
BLACK
10
136.205
20
-85.1371
11
137.729
21
-85.1371
0
LINE
8
BLACK
10
137.729
20
-85.1371
11
137.87
21
-85.0792
0
LINE
8
BLACK
10
137.87
20
-85.0792
11
137.977
21
-84.9721
0
LINE
8
BLACK
10
137.977
20
-84.9721
11
138.035
21
-84.8321
0
LINE
8
BLACK
10
138.035
20
-84.8321
11
138.035
21
-84.6805
0
LINE
8
BLACK
10
138.035
20
-84.6805
11
138.035
21
-88.8774
0
LINE
8
BLACK
10
138.035
20
-88.8774
11
137.172
21
-89.739
0
LINE
8
BLACK
10
137.172
20
-89.739
11
136.591
21
-91.1388
0
LINE
8
BLACK
10
136.591
20
-91.1388
11
136.589
21
-92.5666
0
LINE
8
BLACK
10
136.589
20
-92.5666
11
136.291
21
-92.2675
0
LINE
8
BLACK
10
136.291
20
-92.2675
11
135.693
21
-92.0193
0
LINE
8
BLACK
10
135.693
20
-92.0193
11
135.046
21
-92.0187
0
LINE
8
BLACK
10
135.046
20
-92.0187
11
134.448
21
-92.2659
0
LINE
8
BLACK
10
134.448
20
-92.2659
11
133.99
21
-92.7232
0
LINE
8
BLACK
10
133.99
20
-92.7232
11
133.741
21
-93.321
0
LINE
8
BLACK
10
133.741
20
-93.321
11
133.741
21
-93.9682
0
LINE
8
BLACK
10
133.741
20
-93.9682
11
133.988
21
-94.5664
0
LINE
8
BLACK
10
133.988
20
-94.5664
11
134.416
21
-94.9948
0
LINE
8
BLACK
10
134.416
20
-94.9948
11
132.76
21
-94.9948
0
LINE
8
BLACK
10
132.76
20
-94.9948
11
132.76
21
-93.8758
0
LINE
8
BLACK
10
132.76
20
-93.8758
11
132.76
21
-92.9082
0
LINE
8
BLACK
10
132.76
20
-92.9082
11
132.759
21
-92.6555
0
LINE
8
BLACK
10
132.759
20
-92.6555
11
132.662
21
-92.4222
0
LINE
8
BLACK
10
132.662
20
-92.4222
11
132.484
21
-92.2438
0
LINE
8
BLACK
10
132.484
20
-92.2438
11
132.25
21
-92.1473
0
LINE
8
BLACK
10
132.25
20
-92.1473
11
131.956
21
-92.1474
0
LINE
8
BLACK
10
131.956
20
-92.1474
11
131.797
21
-92.3062
0
LINE
8
BLACK
10
131.797
20
-92.3062
11
131.797
21
-93.265
0
LINE
8
BLACK
10
131.797
20
-93.265
11
132.601
21
-93.265
0
LINE
8
BLACK
10
132.601
20
-93.265
11
132.759
21
-93.1063
0
LINE
8
BLACK
10
132.759
20
-93.1063
11
132.76
21
-92.9082
0
LINE
8
BLACK
10
132.76
20
-92.9082
11
132.76
21
-93.8758
0
LINE
8
BLACK
10
132.76
20
-93.8758
11
132.759
21
-93.6778
0
LINE
8
BLACK
10
132.759
20
-93.6778
11
132.601
21
-93.519
0
LINE
8
BLACK
10
132.601
20
-93.519
11
131.797
21
-93.519
0
LINE
8
BLACK
10
131.797
20
-93.519
11
131.797
21
-94.4779
0
LINE
8
BLACK
10
131.797
20
-94.4779
11
131.956
21
-94.6366
0
LINE
8
BLACK
10
131.956
20
-94.6366
11
132.25
21
-94.6367
0
LINE
8
BLACK
10
132.25
20
-94.6367
11
132.484
21
-94.5402
0
LINE
8
BLACK
10
132.484
20
-94.5402
11
132.662
21
-94.3618
0
LINE
8
BLACK
10
132.662
20
-94.3618
11
132.759
21
-94.1285
0
LINE
8
BLACK
10
132.759
20
-94.1285
11
132.76
21
-93.8758
0
LINE
8
BLACK
10
132.76
20
-93.8758
11
132.76
21
-94.9948
0
LINE
8
BLACK
10
132.76
20
-94.9948
11
131.543
21
-94.9948
0
LINE
8
BLACK
10
131.543
20
-94.9948
11
131.543
21
-94.4779
0
LINE
8
BLACK
10
131.543
20
-94.4779
11
131.543
21
-93.519
0
LINE
8
BLACK
10
131.543
20
-93.519
11
131.543
21
-93.265
0
LINE
8
BLACK
10
131.543
20
-93.265
11
131.543
21
-92.3062
0
LINE
8
BLACK
10
131.543
20
-92.3062
11
131.384
21
-92.1474
0
LINE
8
BLACK
10
131.384
20
-92.1474
11
131.089
21
-92.1473
0
LINE
8
BLACK
10
131.089
20
-92.1473
11
130.856
21
-92.2438
0
LINE
8
BLACK
10
130.856
20
-92.2438
11
130.677
21
-92.4222
0
LINE
8
BLACK
10
130.677
20
-92.4222
11
130.58
21
-92.6555
0
LINE
8
BLACK
10
130.58
20
-92.6555
11
130.58
21
-92.9082
0
LINE
8
BLACK
10
130.58
20
-92.9082
11
130.58
21
-93.1063
0
LINE
8
BLACK
10
130.58
20
-93.1063
11
130.739
21
-93.265
0
LINE
8
BLACK
10
130.739
20
-93.265
11
131.543
21
-93.265
0
LINE
8
BLACK
10
131.543
20
-93.265
11
131.543
21
-93.519
0
LINE
8
BLACK
10
131.543
20
-93.519
11
130.739
21
-93.519
0
LINE
8
BLACK
10
130.739
20
-93.519
11
130.58
21
-93.6778
0
LINE
8
BLACK
10
130.58
20
-93.6778
11
130.58
21
-93.8758
0
LINE
8
BLACK
10
130.58
20
-93.8758
11
130.58
21
-94.1285
0
LINE
8
BLACK
10
130.58
20
-94.1285
11
130.677
21
-94.3618
0
LINE
8
BLACK
10
130.677
20
-94.3618
11
130.856
21
-94.5402
0
LINE
8
BLACK
10
130.856
20
-94.5402
11
131.089
21
-94.6367
0
LINE
8
BLACK
10
131.089
20
-94.6367
11
131.384
21
-94.6366
0
LINE
8
BLACK
10
131.384
20
-94.6366
11
131.543
21
-94.4779
0
LINE
8
BLACK
10
131.543
20
-94.4779
11
131.543
21
-94.9948
0
LINE
8
BLACK
10
131.543
20
-94.9948
11
129.927
21
-94.9948
0
LINE
8
BLACK
10
129.927
20
-94.9948
11
129.927
21
-90.471
0
LINE
8
BLACK
10
129.927
20
-90.471
11
130.575
21
-90.471
0
LINE
8
BLACK
10
130.575
20
-90.471
11
130.643
21
-90.5398
0
LINE
8
BLACK
10
130.643
20
-90.5398
11
130.783
21
-90.5979
0
LINE
8
BLACK
10
130.783
20
-90.5979
11
130.935
21
-90.5981
0
LINE
8
BLACK
10
130.935
20
-90.5981
11
132.332
21
-90.5981
0
LINE
8
BLACK
10
132.332
20
-90.5981
11
132.472
21
-90.5402
0
LINE
8
BLACK
10
132.472
20
-90.5402
11
132.541
21
-90.471
0
LINE
8
BLACK
10
132.541
20
-90.471
11
133.115
21
-90.471
0
LINE
8
BLACK
10
133.115
20
-90.471
11
133.183
21
-90.5398
0
LINE
8
BLACK
10
133.183
20
-90.5398
11
133.323
21
-90.5979
0
LINE
8
BLACK
10
133.323
20
-90.5979
11
133.475
21
-90.5981
0
LINE
8
BLACK
10
133.475
20
-90.5981
11
134.872
21
-90.5981
0
LINE
8
BLACK
10
134.872
20
-90.5981
11
135.012
21
-90.5402
0
LINE
8
BLACK
10
135.012
20
-90.5402
11
135.119
21
-90.4331
0
LINE
8
BLACK
10
135.119
20
-90.4331
11
135.177
21
-90.2931
0
LINE
8
BLACK
10
135.177
20
-90.2931
11
135.178
21
-90.1415
0
LINE
8
BLACK
10
135.178
20
-90.1415
11
135.178
21
-89.2525
0
LINE
8
BLACK
10
135.178
20
-89.2525
11
135.12
21
-89.1125
0
LINE
8
BLACK
10
135.12
20
-89.1125
11
135.013
21
-89.0052
0
LINE
8
BLACK
10
135.013
20
-89.0052
11
134.873
21
-88.9471
0
LINE
8
BLACK
10
134.873
20
-88.9471
11
134.797
21
-88.947
0
LINE
8
BLACK
10
134.797
20
-88.947
11
134.923
21
-88.9469
0
LINE
8
BLACK
10
134.923
20
-88.9469
11
135.157
21
-88.85
0
LINE
8
BLACK
10
135.157
20
-88.85
11
135.335
21
-88.6712
0
LINE
8
BLACK
10
135.335
20
-88.6712
11
135.432
21
-88.4378
0
LINE
8
BLACK
10
135.432
20
-88.4378
11
135.432
21
-87.2972
0
LINE
8
BLACK
10
135.432
20
-87.2972
11
135.335
21
-87.0638
0
LINE
8
BLACK
10
135.335
20
-87.0638
11
135.157
21
-86.885
0
LINE
8
BLACK
10
135.157
20
-86.885
11
134.923
21
-86.7881
0
LINE
8
BLACK
10
134.923
20
-86.7881
11
134.86
21
-86.7881
0
LINE
8
BLACK
10
134.86
20
-86.7881
11
134.86
21
-84.6302
0
LINE
8
BLACK
10
134.86
20
-84.6302
11
134.86
21
-84.0258
0
LINE
8
BLACK
10
134.86
20
-84.0258
11
134.701
21
-83.867
0
LINE
8
BLACK
10
134.701
20
-83.867
11
133.59
21
-83.867
0
LINE
8
BLACK
10
133.59
20
-83.867
11
133.59
21
-85.2323
0
LINE
8
BLACK
10
133.59
20
-85.2323
11
133.749
21
-85.391
0
LINE
8
BLACK
10
133.749
20
-85.391
11
134.351
21
-85.3911
0
LINE
8
BLACK
10
134.351
20
-85.3911
11
134.584
21
-85.2946
0
LINE
8
BLACK
10
134.584
20
-85.2946
11
134.763
21
-85.1162
0
LINE
8
BLACK
10
134.763
20
-85.1162
11
134.86
21
-84.8829
0
LINE
8
BLACK
10
134.86
20
-84.8829
11
134.86
21
-84.6302
0
LINE
8
BLACK
10
134.86
20
-84.6302
11
134.86
21
-86.7881
0
LINE
8
BLACK
10
134.86
20
-86.7881
11
134.671
21
-86.7879
0
LINE
8
BLACK
10
134.671
20
-86.7879
11
134.384
21
-86.788
0
LINE
8
BLACK
10
134.384
20
-86.788
11
134.225
21
-86.9468
0
LINE
8
BLACK
10
134.225
20
-86.9468
11
134.225
21
-87.7405
0
LINE
8
BLACK
10
134.225
20
-87.7405
11
135.273
21
-87.7405
0
LINE
8
BLACK
10
135.273
20
-87.7405
11
135.432
21
-87.5818
0
LINE
8
BLACK
10
135.432
20
-87.5818
11
135.432
21
-87.2972
0
LINE
8
BLACK
10
135.432
20
-87.2972
11
135.432
21
-88.4378
0
LINE
8
BLACK
10
135.432
20
-88.4378
11
135.432
21
-88.1533
0
LINE
8
BLACK
10
135.432
20
-88.1533
11
135.273
21
-87.9945
0
LINE
8
BLACK
10
135.273
20
-87.9945
11
134.225
21
-87.9945
0
LINE
8
BLACK
10
134.225
20
-87.9945
11
134.225
21
-88.0145
0
LINE
8
BLACK
10
134.225
20
-88.0145
11
133.971
21
-88.0145
0
LINE
8
BLACK
10
133.971
20
-88.0145
11
133.971
21
-87.9945
0
LINE
8
BLACK
10
133.971
20
-87.9945
11
133.971
21
-87.7405
0
LINE
8
BLACK
10
133.971
20
-87.7405
11
133.971
21
-86.9468
0
LINE
8
BLACK
10
133.971
20
-86.9468
11
133.812
21
-86.788
0
LINE
8
BLACK
10
133.812
20
-86.788
11
133.525
21
-86.7879
0
LINE
8
BLACK
10
133.525
20
-86.7879
11
133.336
21
-86.7881
0
LINE
8
BLACK
10
133.336
20
-86.7881
11
133.336
21
-85.2323
0
LINE
8
BLACK
10
133.336
20
-85.2323
11
133.336
21
-83.867
0
LINE
8
BLACK
10
133.336
20
-83.867
11
132.225
21
-83.867
0
LINE
8
BLACK
10
132.225
20
-83.867
11
132.066
21
-84.0258
0
LINE
8
BLACK
10
132.066
20
-84.0258
11
132.066
21
-84.6302
0
LINE
8
BLACK
10
132.066
20
-84.6302
11
132.066
21
-84.8829
0
LINE
8
BLACK
10
132.066
20
-84.8829
11
132.163
21
-85.1162
0
LINE
8
BLACK
10
132.163
20
-85.1162
11
132.342
21
-85.2946
0
LINE
8
BLACK
10
132.342
20
-85.2946
11
132.575
21
-85.3911
0
LINE
8
BLACK
10
132.575
20
-85.3911
11
133.177
21
-85.391
0
LINE
8
BLACK
10
133.177
20
-85.391
11
133.336
21
-85.2323
0
LINE
8
BLACK
10
133.336
20
-85.2323
11
133.336
21
-86.7881
0
LINE
8
BLACK
10
133.336
20
-86.7881
11
133.273
21
-86.7881
0
LINE
8
BLACK
10
133.273
20
-86.7881
11
133.039
21
-86.885
0
LINE
8
BLACK
10
133.039
20
-86.885
11
132.861
21
-87.0638
0
LINE
8
BLACK
10
132.861
20
-87.0638
11
132.828
21
-87.1433
0
LINE
8
BLACK
10
132.828
20
-87.1433
11
132.795
21
-87.0638
0
LINE
8
BLACK
10
132.795
20
-87.0638
11
132.617
21
-86.885
0
LINE
8
BLACK
10
132.617
20
-86.885
11
132.383
21
-86.7881
0
LINE
8
BLACK
10
132.383
20
-86.7881
11
132.131
21
-86.7879
0
LINE
8
BLACK
10
132.131
20
-86.7879
11
131.844
21
-86.788
0
LINE
8
BLACK
10
131.844
20
-86.788
11
131.685
21
-86.9468
0
LINE
8
BLACK
10
131.685
20
-86.9468
11
131.685
21
-87.7405
0
LINE
8
BLACK
10
131.685
20
-87.7405
11
132.733
21
-87.7405
0
LINE
8
BLACK
10
132.733
20
-87.7405
11
132.828
21
-87.6453
0
LINE
8
BLACK
10
132.828
20
-87.6453
11
132.923
21
-87.7405
0
LINE
8
BLACK
10
132.923
20
-87.7405
11
133.971
21
-87.7405
0
LINE
8
BLACK
10
133.971
20
-87.7405
11
133.971
21
-87.9945
0
LINE
8
BLACK
10
133.971
20
-87.9945
11
132.923
21
-87.9945
0
LINE
8
BLACK
10
132.923
20
-87.9945
11
132.828
21
-88.0898
0
LINE
8
BLACK
10
132.828
20
-88.0898
11
132.733
21
-87.9945
0
LINE
8
BLACK
10
132.733
20
-87.9945
11
131.685
21
-87.9945
0
LINE
8
BLACK
10
131.685
20
-87.9945
11
131.685
21
-88.0145
0
LINE
8
BLACK
10
131.685
20
-88.0145
11
131.431
21
-88.0145
0
LINE
8
BLACK
10
131.431
20
-88.0145
11
131.431
21
-87.9945
0
LINE
8
BLACK
10
131.431
20
-87.9945
11
130.383
21
-87.9945
0
LINE
8
BLACK
10
130.383
20
-87.9945
11
130.225
21
-88.1533
0
LINE
8
BLACK
10
130.225
20
-88.1533
11
130.224
21
-88.4378
0
LINE
8
BLACK
10
130.224
20
-88.4378
11
130.321
21
-88.6712
0
LINE
8
BLACK
10
130.321
20
-88.6712
11
130.499
21
-88.85
0
LINE
8
BLACK
10
130.499
20
-88.85
11
130.733
21
-88.9469
0
LINE
8
BLACK
10
130.733
20
-88.9469
11
130.784
21
-88.9469
0
LINE
8
BLACK
10
130.784
20
-88.9469
11
130.784
21
-88.9469
0
LINE
8
BLACK
10
130.784
20
-88.9469
11
130.644
21
-89.0048
0
LINE
8
BLACK
10
130.644
20
-89.0048
11
130.575
21
-89.074
0
LINE
8
BLACK
10
130.575
20
-89.074
11
129.927
21
-89.074
0
LINE
8
BLACK
10
129.927
20
-89.074
11
129.927
21
-88.0287
0
LINE
8
BLACK
10
129.927
20
-88.0287
11
130.117
21
-87.9502
0
LINE
8
BLACK
10
130.117
20
-87.9502
11
130.349
21
-87.7182
0
LINE
8
BLACK
10
130.349
20
-87.7182
11
130.353
21
-87.7101
0
LINE
8
BLACK
10
130.353
20
-87.7101
11
130.383
21
-87.7405
0
LINE
8
BLACK
10
130.383
20
-87.7405
11
131.431
21
-87.7405
0
LINE
8
BLACK
10
131.431
20
-87.7405
11
131.431
21
-86.9468
0
LINE
8
BLACK
10
131.431
20
-86.9468
11
131.272
21
-86.788
0
LINE
8
BLACK
10
131.272
20
-86.788
11
130.985
21
-86.7879
0
LINE
8
BLACK
10
130.985
20
-86.7879
11
130.733
21
-86.7881
0
LINE
8
BLACK
10
130.733
20
-86.7881
11
130.499
21
-86.885
0
LINE
8
BLACK
10
130.499
20
-86.885
11
130.424
21
-86.9608
0
LINE
8
BLACK
10
130.424
20
-86.9608
11
130.35
21
-86.783
0
LINE
8
BLACK
10
130.35
20
-86.783
11
130.118
21
-86.5506
0
LINE
8
BLACK
10
130.118
20
-86.5506
11
129.927
21
-86.4712
0
LINE
8
BLACK
10
129.927
20
-86.4712
11
129.927
21
-85.1371
0
LINE
8
BLACK
10
129.927
20
-85.1371
11
130.998
21
-85.1371
0
LINE
8
BLACK
10
130.998
20
-85.1371
11
131.139
21
-85.0792
0
LINE
8
BLACK
10
131.139
20
-85.0792
11
131.246
21
-84.9721
0
LINE
8
BLACK
10
131.246
20
-84.9721
11
131.304
21
-84.8321
0
LINE
8
BLACK
10
131.304
20
-84.8321
11
131.304
21
-84.6805
0
LINE
8
BLACK
10
131.304
20
-84.6805
11
131.304
21
-82.6485
0
LINE
8
BLACK
10
131.304
20
-82.6485
11
131.288
21
-82.6101
0
LINE
8
BLACK
10
131.288
20
-82.6101
11
132.066
21
-82.6013
0
LINE
8
BLACK
10
132.066
20
-82.6013
11
132.066
21
-82.8498
0
LINE
8
BLACK
10
132.066
20
-82.8498
11
132.066
21
-83.4543
0
LINE
8
BLACK
10
132.066
20
-83.4543
11
132.225
21
-83.613
0
LINE
8
BLACK
10
132.225
20
-83.613
11
133.336
21
-83.613
0
LINE
8
BLACK
10
133.336
20
-83.613
11
133.336
21
-83.593
0
LINE
8
BLACK
10
133.336
20
-83.593
11
133.59
21
-83.593
0
LINE
8
BLACK
10
133.59
20
-83.593
11
133.59
21
-83.613
0
LINE
8
BLACK
10
133.59
20
-83.613
11
134.701
21
-83.613
0
LINE
8
BLACK
10
134.701
20
-83.613
11
134.86
21
-83.4543
0
LINE
8
BLACK
10
134.86
20
-83.4543
11
134.86
21
-82.8498
0
LINE
8
BLACK
10
134.86
20
-82.8498
11
134.86
21
-82.5971
0
LINE
8
BLACK
10
134.86
20
-82.5971
11
134.763
21
-82.3638
0
LINE
8
BLACK
10
134.763
20
-82.3638
11
134.584
21
-82.1854
0
LINE
8
BLACK
10
134.584
20
-82.1854
11
134.351
21
-82.0889
0
LINE
8
BLACK
10
134.351
20
-82.0889
11
134.327
21
-82.0889
0
LINE
8
BLACK
10
134.327
20
-82.0889
11
134.327
21
-76.2795
0
LINE
8
BLACK
10
134.327
20
-76.2795
11
136.927
21
-76.3295
0
LINE
8
BLACK
10
136.927
20
-76.3295
11
136.927
21
-75.1717
0
LINE
8
BLACK
10
136.927
20
-75.1717
11
137.168
21
-75.7554
0
LINE
8
BLACK
10
137.168
20
-75.7554
11
138.239
21
-76.8281
0
LINE
8
BLACK
10
138.239
20
-76.8281
11
139.639
21
-77.4093
0
LINE
8
BLACK
10
139.639
20
-77.4093
11
141.155
21
-77.4107
0
LINE
8
BLACK
10
141.155
20
-77.4107
11
142.555
21
-76.8318
0
LINE
8
BLACK
10
142.555
20
-76.8318
11
143.595
21
-75.7942
0
LINE
8
BLACK
10
143.595
20
-75.7942
11
143.595
21
-89.7075
0
LINE
8
BLACK
10
143.595
20
-89.7075
11
143.381
21
-89.4935
0
LINE
8
BLACK
10
143.381
20
-89.4935
11
143.381
21
-81.6617
0
LINE
8
BLACK
10
143.381
20
-81.6617
11
143.353
21
-81.1066
0
LINE
8
BLACK
10
143.353
20
-81.1066
11
143.194
21
-80.7229
0
LINE
8
BLACK
10
143.194
20
-80.7229
11
142.952
21
-80.6534
0
LINE
8
BLACK
10
142.952
20
-80.6534
11
142.773
21
-80.833
0
LINE
8
BLACK
10
142.773
20
-80.833
11
142.773
21
-80.4738
0
LINE
8
BLACK
10
142.773
20
-80.4738
11
142.703
21
-80.2316
0
LINE
8
BLACK
10
142.703
20
-80.2316
11
142.18
21
-80.0449
0
LINE
8
BLACK
10
142.18
20
-80.0449
11
141.625
21
-80.0726
0
LINE
8
BLACK
10
141.625
20
-80.0726
11
141.241
21
-80.2316
0
LINE
8
BLACK
10
141.241
20
-80.2316
11
141.171
21
-80.4738
0
LINE
8
BLACK
10
141.171
20
-80.4738
11
141.972
21
-81.2744
0
LINE
8
BLACK
10
141.972
20
-81.2744
11
142.773
21
-80.4738
0
LINE
8
BLACK
10
142.773
20
-80.4738
11
142.773
21
-80.833
0
LINE
8
BLACK
10
142.773
20
-80.833
11
142.152
21
-81.454
0
LINE
8
BLACK
10
142.152
20
-81.454
11
142.952
21
-82.2546
0
LINE
8
BLACK
10
142.952
20
-82.2546
11
143.194
21
-82.1851
0
LINE
8
BLACK
10
143.194
20
-82.1851
11
143.381
21
-81.6617
0
LINE
8
BLACK
10
143.381
20
-81.6617
11
143.381
21
-89.4935
0
LINE
8
BLACK
10
143.381
20
-89.4935
11
143.115
21
-89.2271
0
LINE
8
BLACK
10
143.115
20
-89.2271
11
143.115
21
-83.7676
0
LINE
8
BLACK
10
143.115
20
-83.7676
11
142.942
21
-83.3474
0
LINE
8
BLACK
10
142.942
20
-83.3474
11
142.62
21
-83.0256
0
LINE
8
BLACK
10
142.62
20
-83.0256
11
142.2
21
-82.8512
0
LINE
8
BLACK
10
142.2
20
-82.8512
11
142.006
21
-82.851
0
LINE
8
BLACK
10
142.006
20
-82.851
11
142.319
21
-82.8354
0
LINE
8
BLACK
10
142.319
20
-82.8354
11
142.703
21
-82.6764
0
LINE
8
BLACK
10
142.703
20
-82.6764
11
142.773
21
-82.4342
0
LINE
8
BLACK
10
142.773
20
-82.4342
11
141.972
21
-81.6336
0
LINE
8
BLACK
10
141.972
20
-81.6336
11
141.792
21
-81.8132
0
LINE
8
BLACK
10
141.792
20
-81.8132
11
141.792
21
-81.454
0
LINE
8
BLACK
10
141.792
20
-81.454
11
140.992
21
-80.6534
0
LINE
8
BLACK
10
140.992
20
-80.6534
11
140.75
21
-80.7229
0
LINE
8
BLACK
10
140.75
20
-80.7229
11
140.706
21
-80.8463
0
LINE
8
BLACK
10
140.706
20
-80.8463
11
140.654
21
-80.7229
0
LINE
8
BLACK
10
140.654
20
-80.7229
11
140.412
21
-80.6534
0
LINE
8
BLACK
10
140.412
20
-80.6534
11
140.233
21
-80.833
0
LINE
8
BLACK
10
140.233
20
-80.833
11
140.233
21
-80.4738
0
LINE
8
BLACK
10
140.233
20
-80.4738
11
140.163
21
-80.2316
0
LINE
8
BLACK
10
140.163
20
-80.2316
11
139.64
21
-80.0449
0
LINE
8
BLACK
10
139.64
20
-80.0449
11
139.085
21
-80.0726
0
LINE
8
BLACK
10
139.085
20
-80.0726
11
138.701
21
-80.2316
0
LINE
8
BLACK
10
138.701
20
-80.2316
11
138.631
21
-80.4738
0
LINE
8
BLACK
10
138.631
20
-80.4738
11
139.432
21
-81.2744
0
LINE
8
BLACK
10
139.432
20
-81.2744
11
140.233
21
-80.4738
0
LINE
8
BLACK
10
140.233
20
-80.4738
11
140.233
21
-80.833
0
LINE
8
BLACK
10
140.233
20
-80.833
11
139.612
21
-81.454
0
LINE
8
BLACK
10
139.612
20
-81.454
11
140.412
21
-82.2546
0
LINE
8
BLACK
10
140.412
20
-82.2546
11
140.654
21
-82.1851
0
LINE
8
BLACK
10
140.654
20
-82.1851
11
140.698
21
-82.0617
0
LINE
8
BLACK
10
140.698
20
-82.0617
11
140.75
21
-82.1851
0
LINE
8
BLACK
10
140.75
20
-82.1851
11
140.992
21
-82.2546
0
LINE
8
BLACK
10
140.992
20
-82.2546
11
141.792
21
-81.454
0
LINE
8
BLACK
10
141.792
20
-81.454
11
141.792
21
-81.8132
0
LINE
8
BLACK
10
141.792
20
-81.8132
11
141.171
21
-82.4342
0
LINE
8
BLACK
10
141.171
20
-82.4342
11
141.241
21
-82.6764
0
LINE
8
BLACK
10
141.241
20
-82.6764
11
141.738
21
-82.8539
0
LINE
8
BLACK
10
141.738
20
-82.8539
11
141.325
21
-83.0244
0
LINE
8
BLACK
10
141.325
20
-83.0244
11
141.004
21
-83.3457
0
LINE
8
BLACK
10
141.004
20
-83.3457
11
140.829
21
-83.7656
0
LINE
8
BLACK
10
140.829
20
-83.7656
11
140.829
21
-84.2204
0
LINE
8
BLACK
10
140.829
20
-84.2204
11
141.002
21
-84.6406
0
LINE
8
BLACK
10
141.002
20
-84.6406
11
141.324
21
-84.9624
0
LINE
8
BLACK
10
141.324
20
-84.9624
11
141.744
21
-85.1368
0
LINE
8
BLACK
10
141.744
20
-85.1368
11
142.198
21
-85.1372
0
LINE
8
BLACK
10
142.198
20
-85.1372
11
142.619
21
-84.9636
0
LINE
8
BLACK
10
142.619
20
-84.9636
11
142.94
21
-84.6423
0
LINE
8
BLACK
10
142.94
20
-84.6423
11
143.115
21
-84.2224
0
LINE
8
BLACK
10
143.115
20
-84.2224
11
143.115
21
-83.7676
0
LINE
8
BLACK
10
143.115
20
-83.7676
11
143.115
21
-89.2271
0
LINE
8
BLACK
10
143.115
20
-89.2271
11
142.561
21
-88.6719
0
LINE
8
BLACK
10
142.561
20
-88.6719
11
141.161
21
-88.0907
0
LINE
8
BLACK
10
141.161
20
-88.0907
11
140.575
21
-88.0902
0
LINE
8
BLACK
10
140.575
20
-88.0902
11
140.575
21
-83.7676
0
LINE
8
BLACK
10
140.575
20
-83.7676
11
140.402
21
-83.3474
0
LINE
8
BLACK
10
140.402
20
-83.3474
11
140.08
21
-83.0256
0
LINE
8
BLACK
10
140.08
20
-83.0256
11
139.66
21
-82.8512
0
LINE
8
BLACK
10
139.66
20
-82.8512
11
139.466
21
-82.851
0
LINE
8
BLACK
10
139.466
20
-82.851
11
139.779
21
-82.8354
0
LINE
8
BLACK
10
139.779
20
-82.8354
11
140.163
21
-82.6764
0
LINE
8
BLACK
10
140.163
20
-82.6764
11
140.233
21
-82.4342
0
LINE
8
BLACK
10
140.233
20
-82.4342
11
139.432
21
-81.6336
0
LINE
8
BLACK
10
139.432
20
-81.6336
11
139.252
21
-81.8132
0
LINE
8
BLACK
10
139.252
20
-81.8132
11
139.252
21
-81.454
0
LINE
8
BLACK
10
139.252
20
-81.454
11
138.452
21
-80.6534
0
LINE
8
BLACK
10
138.452
20
-80.6534
11
138.21
21
-80.7229
0
LINE
8
BLACK
10
138.21
20
-80.7229
11
138.166
21
-80.8463
0
LINE
8
BLACK
10
138.166
20
-80.8463
11
138.114
21
-80.7229
0
LINE
8
BLACK
10
138.114
20
-80.7229
11
137.872
21
-80.6534
0
LINE
8
BLACK
10
137.872
20
-80.6534
11
137.693
21
-80.833
0
LINE
8
BLACK
10
137.693
20
-80.833
11
137.693
21
-80.4738
0
LINE
8
BLACK
10
137.693
20
-80.4738
11
137.623
21
-80.2316
0
LINE
8
BLACK
10
137.623
20
-80.2316
11
137.1
21
-80.0449
0
LINE
8
BLACK
10
137.1
20
-80.0449
11
136.545
21
-80.0726
0
LINE
8
BLACK
10
136.545
20
-80.0726
11
136.161
21
-80.2316
0
LINE
8
BLACK
10
136.161
20
-80.2316
11
136.091
21
-80.4738
0
LINE
8
BLACK
10
136.091
20
-80.4738
11
136.892
21
-81.2744
0
LINE
8
BLACK
10
136.892
20
-81.2744
11
137.693
21
-80.4738
0
LINE
8
BLACK
10
137.693
20
-80.4738
11
137.693
21
-80.833
0
LINE
8
BLACK
10
137.693
20
-80.833
11
137.072
21
-81.454
0
LINE
8
BLACK
10
137.072
20
-81.454
11
137.872
21
-82.2546
0
LINE
8
BLACK
10
137.872
20
-82.2546
11
138.114
21
-82.1851
0
LINE
8
BLACK
10
138.114
20
-82.1851
11
138.158
21
-82.0617
0
LINE
8
BLACK
10
138.158
20
-82.0617
11
138.21
21
-82.1851
0
LINE
8
BLACK
10
138.21
20
-82.1851
11
138.452
21
-82.2546
0
LINE
8
BLACK
10
138.452
20
-82.2546
11
139.252
21
-81.454
0
LINE
8
BLACK
10
139.252
20
-81.454
11
139.252
21
-81.8132
0
LINE
8
BLACK
10
139.252
20
-81.8132
11
138.631
21
-82.4342
0
LINE
8
BLACK
10
138.631
20
-82.4342
11
138.701
21
-82.6764
0
LINE
8
BLACK
10
138.701
20
-82.6764
11
139.198
21
-82.8539
0
LINE
8
BLACK
10
139.198
20
-82.8539
11
138.785
21
-83.0244
0
LINE
8
BLACK
10
138.785
20
-83.0244
11
138.464
21
-83.3457
0
LINE
8
BLACK
10
138.464
20
-83.3457
11
138.289
21
-83.7656
0
LINE
8
BLACK
10
138.289
20
-83.7656
11
138.289
21
-84.2204
0
LINE
8
BLACK
10
138.289
20
-84.2204
11
138.462
21
-84.6406
0
LINE
8
BLACK
10
138.462
20
-84.6406
11
138.784
21
-84.9624
0
LINE
8
BLACK
10
138.784
20
-84.9624
11
139.204
21
-85.1368
0
LINE
8
BLACK
10
139.204
20
-85.1368
11
139.658
21
-85.1372
0
LINE
8
BLACK
10
139.658
20
-85.1372
11
140.079
21
-84.9636
0
LINE
8
BLACK
10
140.079
20
-84.9636
11
140.4
21
-84.6423
0
LINE
8
BLACK
10
140.4
20
-84.6423
11
140.575
21
-84.2224
0
LINE
8
BLACK
10
140.575
20
-84.2224
11
140.575
21
-83.7676
0
LINE
8
BLACK
10
140.575
20
-83.7676
11
140.575
21
-88.0902
0
LINE
8
BLACK
10
140.575
20
-88.0902
11
139.645
21
-88.0893
0
LINE
8
BLACK
10
139.645
20
-88.0893
11
138.245
21
-88.6682
0
LINE
8
BLACK
10
138.245
20
-88.6682
11
138.035
21
-88.8774
0
LINE
8
BLACK
10
138.035
20
-88.8774
11
138.035
21
-84.6805
0
LINE
8
BLACK
10
138.035
20
-84.6805
11
138.035
21
-83.1565
0
LINE
8
BLACK
10
138.035
20
-83.1565
11
137.977
21
-83.0165
0
LINE
8
BLACK
10
137.977
20
-83.0165
11
137.87
21
-82.9092
0
LINE
8
BLACK
10
137.87
20
-82.9092
11
137.73
21
-82.8511
0
LINE
8
BLACK
10
137.73
20
-82.8511
11
137.579
21
-82.8509
0
LINE
8
BLACK
10
137.579
20
-82.8509
11
136.928
21
-82.8509
0
LINE
8
BLACK
10
136.928
20
-82.8509
11
137.239
21
-82.8354
0
LINE
8
BLACK
10
137.239
20
-82.8354
11
137.623
21
-82.6764
0
LINE
8
BLACK
10
137.623
20
-82.6764
11
137.693
21
-82.4342
0
LINE
8
BLACK
10
137.693
20
-82.4342
11
136.892
21
-81.6336
0
LINE
8
BLACK
10
136.892
20
-81.6336
11
136.712
21
-81.8132
0
LINE
8
BLACK
10
136.712
20
-81.8132
11
136.712
21
-81.454
0
LINE
8
BLACK
10
136.712
20
-81.454
11
135.912
21
-80.6534
0
LINE
8
BLACK
10
135.912
20
-80.6534
11
135.67
21
-80.7229
0
LINE
8
BLACK
10
135.67
20
-80.7229
11
135.483
21
-81.2463
0
LINE
8
BLACK
10
135.483
20
-81.2463
11
135.511
21
-81.8014
0
LINE
8
BLACK
10
135.511
20
-81.8014
11
135.67
21
-82.1851
0
LINE
8
BLACK
10
135.67
20
-82.1851
11
135.912
21
-82.2546
0
LINE
8
BLACK
10
135.912
20
-82.2546
11
136.712
21
-81.454
0
LINE
8
BLACK
10
136.712
20
-81.454
11
136.712
21
-81.8132
0
LINE
8
BLACK
10
136.712
20
-81.8132
11
136.091
21
-82.4342
0
LINE
8
BLACK
10
136.091
20
-82.4342
11
136.161
21
-82.6764
0
LINE
8
BLACK
10
136.161
20
-82.6764
11
136.65
21
-82.8509
0
LINE
8
BLACK
10
136.65
20
-82.8509
11
136.055
21
-82.8509
0
LINE
8
BLACK
10
136.055
20
-82.8509
11
135.914
21
-82.9088
0
LINE
8
BLACK
10
135.914
20
-82.9088
11
135.807
21
-83.0159
0
LINE
8
BLACK
10
135.807
20
-83.0159
11
135.749
21
-83.1559
0
LINE
8
BLACK
10
135.749
20
-83.1559
11
135.749
21
-83.3075
0
LINE
8
BLACK
10
135.749
20
-83.3075
11
135.749
21
-84.8315
0
LINE
8
BLACK
10
135.749
20
-84.8315
11
135.807
21
-84.9715
0
LINE
8
BLACK
10
135.807
20
-84.9715
11
135.914
21
-85.0788
0
LINE
8
BLACK
10
135.914
20
-85.0788
11
136.054
21
-85.1369
0
LINE
8
BLACK
10
136.054
20
-85.1369
11
136.205
21
-85.1371
0
LINE
8
BLACK
10
136.205
20
-85.1371
11
137.729
21
-85.1371
0
LINE
8
BLACK
10
137.729
20
-85.1371
11
137.87
21
-85.0792
0
LINE
8
BLACK
10
137.87
20
-85.0792
11
137.977
21
-84.9721
0
LINE
8
BLACK
10
137.977
20
-84.9721
11
138.035
21
-84.8321
0
LINE
8
BLACK
10
138.035
20
-84.8321
11
138.035
21
-84.6805
0
LINE
8
BLACK
10
138.035
20
-84.6805
11
138.035
21
-88.8774
0
LINE
8
BLACK
10
138.035
20
-88.8774
11
137.172
21
-89.739
0
LINE
8
BLACK
10
137.172
20
-89.739
11
136.591
21
-91.1388
0
LINE
8
BLACK
10
136.591
20
-91.1388
11
136.589
21
-92.5666
0
LINE
8
BLACK
10
136.589
20
-92.5666
11
136.291
21
-92.2675
0
LINE
8
BLACK
10
136.291
20
-92.2675
11
135.693
21
-92.0193
0
LINE
8
BLACK
10
135.693
20
-92.0193
11
135.046
21
-92.0187
0
LINE
8
BLACK
10
135.046
20
-92.0187
11
134.448
21
-92.2659
0
LINE
8
BLACK
10
134.448
20
-92.2659
11
133.99
21
-92.7232
0
LINE
8
BLACK
10
133.99
20
-92.7232
11
133.741
21
-93.321
0
LINE
8
BLACK
10
133.741
20
-93.321
11
133.741
21
-93.9682
0
LINE
8
BLACK
10
133.741
20
-93.9682
11
133.988
21
-94.5664
0
LINE
8
BLACK
10
133.988
20
-94.5664
11
134.416
21
-94.9948
0
LINE
8
BLACK
10
134.416
20
-94.9948
11
132.76
21
-94.9948
0
LINE
8
BLACK
10
132.76
20
-94.9948
11
132.76
21
-93.8758
0
LINE
8
BLACK
10
132.76
20
-93.8758
11
132.76
21
-92.9082
0
LINE
8
BLACK
10
132.76
20
-92.9082
11
132.759
21
-92.6555
0
LINE
8
BLACK
10
132.759
20
-92.6555
11
132.662
21
-92.4222
0
LINE
8
BLACK
10
132.662
20
-92.4222
11
132.484
21
-92.2438
0
LINE
8
BLACK
10
132.484
20
-92.2438
11
132.25
21
-92.1473
0
LINE
8
BLACK
10
132.25
20
-92.1473
11
131.956
21
-92.1474
0
LINE
8
BLACK
10
131.956
20
-92.1474
11
131.797
21
-92.3062
0
LINE
8
BLACK
10
131.797
20
-92.3062
11
131.797
21
-93.265
0
LINE
8
BLACK
10
131.797
20
-93.265
11
132.601
21
-93.265
0
LINE
8
BLACK
10
132.601
20
-93.265
11
132.759
21
-93.1063
0
LINE
8
BLACK
10
132.759
20
-93.1063
11
132.76
21
-92.9082
0
LINE
8
BLACK
10
132.76
20
-92.9082
11
132.76
21
-93.8758
0
LINE
8
BLACK
10
132.76
20
-93.8758
11
132.759
21
-93.6778
0
LINE
8
BLACK
10
132.759
20
-93.6778
11
132.601
21
-93.519
0
LINE
8
BLACK
10
132.601
20
-93.519
11
131.797
21
-93.519
0
LINE
8
BLACK
10
131.797
20
-93.519
11
131.797
21
-94.4779
0
LINE
8
BLACK
10
131.797
20
-94.4779
11
131.956
21
-94.6366
0
LINE
8
BLACK
10
131.956
20
-94.6366
11
132.25
21
-94.6367
0
LINE
8
BLACK
10
132.25
20
-94.6367
11
132.484
21
-94.5402
0
LINE
8
BLACK
10
132.484
20
-94.5402
11
132.662
21
-94.3618
0
LINE
8
BLACK
10
132.662
20
-94.3618
11
132.759
21
-94.1285
0
LINE
8
BLACK
10
132.759
20
-94.1285
11
132.76
21
-93.8758
0
LINE
8
BLACK
10
132.76
20
-93.8758
11
132.76
21
-94.9948
0
LINE
8
BLACK
10
132.76
20
-94.9948
11
131.543
21
-94.9948
0
LINE
8
BLACK
10
131.543
20
-94.9948
11
131.543
21
-94.4779
0
LINE
8
BLACK
10
131.543
20
-94.4779
11
131.543
21
-93.519
0
LINE
8
BLACK
10
131.543
20
-93.519
11
131.543
21
-93.265
0
LINE
8
BLACK
10
131.543
20
-93.265
11
131.543
21
-92.3062
0
LINE
8
BLACK
10
131.543
20
-92.3062
11
131.384
21
-92.1474
0
LINE
8
BLACK
10
131.384
20
-92.1474
11
131.089
21
-92.1473
0
LINE
8
BLACK
10
131.089
20
-92.1473
11
130.856
21
-92.2438
0
LINE
8
BLACK
10
130.856
20
-92.2438
11
130.677
21
-92.4222
0
LINE
8
BLACK
10
130.677
20
-92.4222
11
130.58
21
-92.6555
0
LINE
8
BLACK
10
130.58
20
-92.6555
11
130.58
21
-92.9082
0
LINE
8
BLACK
10
130.58
20
-92.9082
11
130.58
21
-93.1063
0
LINE
8
BLACK
10
130.58
20
-93.1063
11
130.739
21
-93.265
0
LINE
8
BLACK
10
130.739
20
-93.265
11
131.543
21
-93.265
0
LINE
8
BLACK
10
131.543
20
-93.265
11
131.543
21
-93.519
0
LINE
8
BLACK
10
131.543
20
-93.519
11
130.739
21
-93.519
0
LINE
8
BLACK
10
130.739
20
-93.519
11
130.58
21
-93.6778
0
LINE
8
BLACK
10
130.58
20
-93.6778
11
130.58
21
-93.8758
0
LINE
8
BLACK
10
130.58
20
-93.8758
11
130.58
21
-94.1285
0
LINE
8
BLACK
10
130.58
20
-94.1285
11
130.677
21
-94.3618
0
LINE
8
BLACK
10
130.677
20
-94.3618
11
130.856
21
-94.5402
0
LINE
8
BLACK
10
130.856
20
-94.5402
11
131.089
21
-94.6367
0
LINE
8
BLACK
10
131.089
20
-94.6367
11
131.384
21
-94.6366
0
LINE
8
BLACK
10
131.384
20
-94.6366
11
131.543
21
-94.4779
0
LINE
8
BLACK
10
131.543
20
-94.4779
11
131.543
21
-94.9948
0
LINE
8
BLACK
10
131.543
20
-94.9948
11
129.927
21
-94.9948
0
LINE
8
BLACK
10
129.927
20
-94.9948
11
129.927
21
-90.471
0
LINE
8
BLACK
10
129.927
20
-90.471
11
130.575
21
-90.471
0
LINE
8
BLACK
10
130.575
20
-90.471
11
130.643
21
-90.5398
0
LINE
8
BLACK
10
130.643
20
-90.5398
11
130.783
21
-90.5979
0
LINE
8
BLACK
10
130.783
20
-90.5979
11
130.935
21
-90.5981
0
LINE
8
BLACK
10
130.935
20
-90.5981
11
132.332
21
-90.5981
0
LINE
8
BLACK
10
132.332
20
-90.5981
11
132.472
21
-90.5402
0
LINE
8
BLACK
10
132.472
20
-90.5402
11
132.541
21
-90.471
0
LINE
8
BLACK
10
132.541
20
-90.471
11
133.115
21
-90.471
0
LINE
8
BLACK
10
133.115
20
-90.471
11
133.183
21
-90.5398
0
LINE
8
BLACK
10
133.183
20
-90.5398
11
133.323
21
-90.5979
0
LINE
8
BLACK
10
133.323
20
-90.5979
11
133.475
21
-90.5981
0
LINE
8
BLACK
10
133.475
20
-90.5981
11
134.872
21
-90.5981
0
LINE
8
BLACK
10
134.872
20
-90.5981
11
135.012
21
-90.5402
0
LINE
8
BLACK
10
135.012
20
-90.5402
11
135.119
21
-90.4331
0
LINE
8
BLACK
10
135.119
20
-90.4331
11
135.177
21
-90.2931
0
LINE
8
BLACK
10
135.177
20
-90.2931
11
135.178
21
-90.1415
0
LINE
8
BLACK
10
135.178
20
-90.1415
11
135.178
21
-89.2525
0
LINE
8
BLACK
10
135.178
20
-89.2525
11
135.12
21
-89.1125
0
LINE
8
BLACK
10
135.12
20
-89.1125
11
135.013
21
-89.0052
0
LINE
8
BLACK
10
135.013
20
-89.0052
11
134.873
21
-88.9471
0
LINE
8
BLACK
10
134.873
20
-88.9471
11
134.797
21
-88.947
0
LINE
8
BLACK
10
134.797
20
-88.947
11
134.923
21
-88.9469
0
LINE
8
BLACK
10
134.923
20
-88.9469
11
135.157
21
-88.85
0
LINE
8
BLACK
10
135.157
20
-88.85
11
135.335
21
-88.6712
0
LINE
8
BLACK
10
135.335
20
-88.6712
11
135.432
21
-88.4378
0
LINE
8
BLACK
10
135.432
20
-88.4378
11
135.432
21
-87.2972
0
LINE
8
BLACK
10
135.432
20
-87.2972
11
135.335
21
-87.0638
0
LINE
8
BLACK
10
135.335
20
-87.0638
11
135.157
21
-86.885
0
LINE
8
BLACK
10
135.157
20
-86.885
11
134.923
21
-86.7881
0
LINE
8
BLACK
10
134.923
20
-86.7881
11
134.86
21
-86.7881
0
LINE
8
BLACK
10
134.86
20
-86.7881
11
134.86
21
-84.6302
0
LINE
8
BLACK
10
134.86
20
-84.6302
11
134.86
21
-84.0258
0
LINE
8
BLACK
10
134.86
20
-84.0258
11
134.701
21
-83.867
0
LINE
8
BLACK
10
134.701
20
-83.867
11
133.59
21
-83.867
0
LINE
8
BLACK
10
133.59
20
-83.867
11
133.59
21
-85.2323
0
LINE
8
BLACK
10
133.59
20
-85.2323
11
133.749
21
-85.391
0
LINE
8
BLACK
10
133.749
20
-85.391
11
134.351
21
-85.3911
0
LINE
8
BLACK
10
134.351
20
-85.3911
11
134.584
21
-85.2946
0
LINE
8
BLACK
10
134.584
20
-85.2946
11
134.763
21
-85.1162
0
LINE
8
BLACK
10
134.763
20
-85.1162
11
134.86
21
-84.8829
0
LINE
8
BLACK
10
134.86
20
-84.8829
11
134.86
21
-84.6302
0
LINE
8
BLACK
10
134.86
20
-84.6302
11
134.86
21
-86.7881
0
LINE
8
BLACK
10
134.86
20
-86.7881
11
134.671
21
-86.7879
0
LINE
8
BLACK
10
134.671
20
-86.7879
11
134.384
21
-86.788
0
LINE
8
BLACK
10
134.384
20
-86.788
11
134.225
21
-86.9468
0
LINE
8
BLACK
10
134.225
20
-86.9468
11
134.225
21
-87.7405
0
LINE
8
BLACK
10
134.225
20
-87.7405
11
135.273
21
-87.7405
0
LINE
8
BLACK
10
135.273
20
-87.7405
11
135.432
21
-87.5818
0
LINE
8
BLACK
10
135.432
20
-87.5818
11
135.432
21
-87.2972
0
LINE
8
BLACK
10
135.432
20
-87.2972
11
135.432
21
-88.4378
0
LINE
8
BLACK
10
135.432
20
-88.4378
11
135.432
21
-88.1533
0
LINE
8
BLACK
10
135.432
20
-88.1533
11
135.273
21
-87.9945
0
LINE
8
BLACK
10
135.273
20
-87.9945
11
134.225
21
-87.9945
0
LINE
8
BLACK
10
134.225
20
-87.9945
11
134.225
21
-88.0145
0
LINE
8
BLACK
10
134.225
20
-88.0145
11
133.971
21
-88.0145
0
LINE
8
BLACK
10
133.971
20
-88.0145
11
133.971
21
-87.9945
0
LINE
8
BLACK
10
133.971
20
-87.9945
11
133.971
21
-87.7405
0
LINE
8
BLACK
10
133.971
20
-87.7405
11
133.971
21
-86.9468
0
LINE
8
BLACK
10
133.971
20
-86.9468
11
133.812
21
-86.788
0
LINE
8
BLACK
10
133.812
20
-86.788
11
133.525
21
-86.7879
0
LINE
8
BLACK
10
133.525
20
-86.7879
11
133.336
21
-86.7881
0
LINE
8
BLACK
10
133.336
20
-86.7881
11
133.336
21
-85.2323
0
LINE
8
BLACK
10
133.336
20
-85.2323
11
133.336
21
-83.867
0
LINE
8
BLACK
10
133.336
20
-83.867
11
132.225
21
-83.867
0
LINE
8
BLACK
10
132.225
20
-83.867
11
132.066
21
-84.0258
0
LINE
8
BLACK
10
132.066
20
-84.0258
11
132.066
21
-84.6302
0
LINE
8
BLACK
10
132.066
20
-84.6302
11
132.066
21
-84.8829
0
LINE
8
BLACK
10
132.066
20
-84.8829
11
132.163
21
-85.1162
0
LINE
8
BLACK
10
132.163
20
-85.1162
11
132.342
21
-85.2946
0
LINE
8
BLACK
10
132.342
20
-85.2946
11
132.575
21
-85.3911
0
LINE
8
BLACK
10
132.575
20
-85.3911
11
133.177
21
-85.391
0
LINE
8
BLACK
10
133.177
20
-85.391
11
133.336
21
-85.2323
0
LINE
8
BLACK
10
133.336
20
-85.2323
11
133.336
21
-86.7881
0
LINE
8
BLACK
10
133.336
20
-86.7881
11
133.273
21
-86.7881
0
LINE
8
BLACK
10
133.273
20
-86.7881
11
133.039
21
-86.885
0
LINE
8
BLACK
10
133.039
20
-86.885
11
132.861
21
-87.0638
0
LINE
8
BLACK
10
132.861
20
-87.0638
11
132.828
21
-87.1433
0
LINE
8
BLACK
10
132.828
20
-87.1433
11
132.795
21
-87.0638
0
LINE
8
BLACK
10
132.795
20
-87.0638
11
132.617
21
-86.885
0
LINE
8
BLACK
10
132.617
20
-86.885
11
132.383
21
-86.7881
0
LINE
8
BLACK
10
132.383
20
-86.7881
11
132.131
21
-86.7879
0
LINE
8
BLACK
10
132.131
20
-86.7879
11
131.844
21
-86.788
0
LINE
8
BLACK
10
131.844
20
-86.788
11
131.685
21
-86.9468
0
LINE
8
BLACK
10
131.685
20
-86.9468
11
131.685
21
-87.7405
0
LINE
8
BLACK
10
131.685
20
-87.7405
11
132.733
21
-87.7405
0
LINE
8
BLACK
10
132.733
20
-87.7405
11
132.828
21
-87.6453
0
LINE
8
BLACK
10
132.828
20
-87.6453
11
132.923
21
-87.7405
0
LINE
8
BLACK
10
132.923
20
-87.7405
11
133.971
21
-87.7405
0
LINE
8
BLACK
10
133.971
20
-87.7405
11
133.971
21
-87.9945
0
LINE
8
BLACK
10
133.971
20
-87.9945
11
132.923
21
-87.9945
0
LINE
8
BLACK
10
132.923
20
-87.9945
11
132.828
21
-88.0898
0
LINE
8
BLACK
10
132.828
20
-88.0898
11
132.733
21
-87.9945
0
LINE
8
BLACK
10
132.733
20
-87.9945
11
131.685
21
-87.9945
0
LINE
8
BLACK
10
131.685
20
-87.9945
11
131.685
21
-88.0145
0
LINE
8
BLACK
10
131.685
20
-88.0145
11
131.431
21
-88.0145
0
LINE
8
BLACK
10
131.431
20
-88.0145
11
131.431
21
-87.9945
0
LINE
8
BLACK
10
131.431
20
-87.9945
11
130.383
21
-87.9945
0
LINE
8
BLACK
10
130.383
20
-87.9945
11
130.225
21
-88.1533
0
LINE
8
BLACK
10
130.225
20
-88.1533
11
130.224
21
-88.4378
0
LINE
8
BLACK
10
130.224
20
-88.4378
11
130.321
21
-88.6712
0
LINE
8
BLACK
10
130.321
20
-88.6712
11
130.499
21
-88.85
0
LINE
8
BLACK
10
130.499
20
-88.85
11
130.733
21
-88.9469
0
LINE
8
BLACK
10
130.733
20
-88.9469
11
130.784
21
-88.9469
0
LINE
8
BLACK
10
130.784
20
-88.9469
11
130.784
21
-88.9469
0
LINE
8
BLACK
10
130.784
20
-88.9469
11
130.644
21
-89.0048
0
LINE
8
BLACK
10
130.644
20
-89.0048
11
130.575
21
-89.074
0
LINE
8
BLACK
10
130.575
20
-89.074
11
129.927
21
-89.074
0
LINE
8
BLACK
10
129.927
20
-89.074
11
129.927
21
-88.0287
0
LINE
8
BLACK
10
129.927
20
-88.0287
11
130.117
21
-87.9502
0
LINE
8
BLACK
10
130.117
20
-87.9502
11
130.349
21
-87.7182
0
LINE
8
BLACK
10
130.349
20
-87.7182
11
130.353
21
-87.7101
0
LINE
8
BLACK
10
130.353
20
-87.7101
11
130.383
21
-87.7405
0
LINE
8
BLACK
10
130.383
20
-87.7405
11
131.431
21
-87.7405
0
LINE
8
BLACK
10
131.431
20
-87.7405
11
131.431
21
-86.9468
0
LINE
8
BLACK
10
131.431
20
-86.9468
11
131.272
21
-86.788
0
LINE
8
BLACK
10
131.272
20
-86.788
11
130.985
21
-86.7879
0
LINE
8
BLACK
10
130.985
20
-86.7879
11
130.733
21
-86.7881
0
LINE
8
BLACK
10
130.733
20
-86.7881
11
130.499
21
-86.885
0
LINE
8
BLACK
10
130.499
20
-86.885
11
130.424
21
-86.9608
0
LINE
8
BLACK
10
130.424
20
-86.9608
11
130.35
21
-86.783
0
LINE
8
BLACK
10
130.35
20
-86.783
11
130.118
21
-86.5506
0
LINE
8
BLACK
10
130.118
20
-86.5506
11
129.927
21
-86.4712
0
LINE
8
BLACK
10
129.927
20
-86.4712
11
129.927
21
-85.1371
0
LINE
8
BLACK
10
129.927
20
-85.1371
11
130.998
21
-85.1371
0
LINE
8
BLACK
10
130.998
20
-85.1371
11
131.139
21
-85.0792
0
LINE
8
BLACK
10
131.139
20
-85.0792
11
131.246
21
-84.9721
0
LINE
8
BLACK
10
131.246
20
-84.9721
11
131.304
21
-84.8321
0
LINE
8
BLACK
10
131.304
20
-84.8321
11
131.304
21
-84.6805
0
LINE
8
BLACK
10
131.304
20
-84.6805
11
131.304
21
-82.6485
0
LINE
8
BLACK
10
131.304
20
-82.6485
11
131.288
21
-82.6101
0
LINE
8
BLACK
10
131.288
20
-82.6101
11
132.066
21
-82.6013
0
LINE
8
BLACK
10
132.066
20
-82.6013
11
132.066
21
-82.8498
0
LINE
8
BLACK
10
132.066
20
-82.8498
11
132.066
21
-83.4543
0
LINE
8
BLACK
10
132.066
20
-83.4543
11
132.225
21
-83.613
0
LINE
8
BLACK
10
132.225
20
-83.613
11
133.336
21
-83.613
0
LINE
8
BLACK
10
133.336
20
-83.613
11
133.336
21
-83.593
0
LINE
8
BLACK
10
133.336
20
-83.593
11
133.59
21
-83.593
0
LINE
8
BLACK
10
133.59
20
-83.593
11
133.59
21
-83.613
0
LINE
8
BLACK
10
133.59
20
-83.613
11
134.701
21
-83.613
0
LINE
8
BLACK
10
134.701
20
-83.613
11
134.86
21
-83.4543
0
LINE
8
BLACK
10
134.86
20
-83.4543
11
134.86
21
-82.8498
0
LINE
8
BLACK
10
134.86
20
-82.8498
11
134.86
21
-82.5971
0
LINE
8
BLACK
10
134.86
20
-82.5971
11
134.763
21
-82.3638
0
LINE
8
BLACK
10
134.763
20
-82.3638
11
134.584
21
-82.1854
0
LINE
8
BLACK
10
134.584
20
-82.1854
11
134.351
21
-82.0889
0
LINE
8
BLACK
10
134.351
20
-82.0889
11
134.327
21
-82.0889
0
LINE
8
BLACK
10
134.327
20
-82.0889
11
134.327
21
-76.2795
0
LINE
8
BLACK
10
134.327
20
-76.2795
11
136.927
21
-76.3295
0
LINE
8
BLACK
10
136.927
20
-76.3295
11
136.927
21
-75.1717
0
LINE
8
BLACK
10
136.927
20
-75.1717
11
137.168
21
-75.7554
0
LINE
8
BLACK
10
137.168
20
-75.7554
11
138.239
21
-76.8281
0
LINE
8
BLACK
10
138.239
20
-76.8281
11
139.639
21
-77.4093
0
LINE
8
BLACK
10
139.639
20
-77.4093
11
141.155
21
-77.4107
0
LINE
8
BLACK
10
141.155
20
-77.4107
11
142.555
21
-76.8318
0
LINE
8
BLACK
10
142.555
20
-76.8318
11
143.595
21
-75.7942
0
LINE
8
BLACK
10
143.595
20
-75.7942
11
143.595
21
-89.7075
  0
ENDSEC
  0
EOF
