G04 #@! TF.FileFunction,Copper,L1,Top,Signal*
%FSLAX46Y46*%
G04 Gerber Fmt 4.6, Leading zero omitted, Abs format (unit mm)*
G04 Created by KiCad (PCBNEW (after 2015-mar-04 BZR unknown)-product) date 9/2/2016 2:53:59 PM*
%MOMM*%
G01*
G04 APERTURE LIST*
%ADD10C,0.150000*%
%ADD11R,2.540000X1.270000*%
%ADD12R,0.406400X1.651000*%
%ADD13R,0.600000X1.500000*%
%ADD14R,1.500000X1.300000*%
%ADD15R,1.727200X1.727200*%
%ADD16O,1.727200X1.727200*%
%ADD17C,0.889000*%
%ADD18C,0.203200*%
G04 APERTURE END LIST*
D10*
D11*
X151130000Y-103378000D03*
X151130000Y-100330000D03*
D12*
X157797500Y-99441000D03*
X157162500Y-99441000D03*
X156527500Y-99441000D03*
X155892500Y-99441000D03*
X159702500Y-104775000D03*
X159702500Y-99441000D03*
X159067500Y-99441000D03*
X158432500Y-99441000D03*
X155257500Y-104775000D03*
X155892500Y-104775000D03*
X156527500Y-104775000D03*
X157162500Y-104775000D03*
X157797500Y-104775000D03*
X158432500Y-104775000D03*
X155257500Y-99441000D03*
X159067500Y-104775000D03*
D13*
X162941000Y-104808000D03*
X164211000Y-104808000D03*
X165481000Y-104808000D03*
X166751000Y-104808000D03*
X168021000Y-104808000D03*
X169291000Y-104808000D03*
X170561000Y-104808000D03*
X171831000Y-104808000D03*
X171831000Y-99408000D03*
X170561000Y-99408000D03*
X169291000Y-99408000D03*
X168021000Y-99408000D03*
X166751000Y-99408000D03*
X165481000Y-99408000D03*
X164211000Y-99408000D03*
X162941000Y-99408000D03*
D14*
X155876000Y-97028000D03*
X158576000Y-97028000D03*
X160194000Y-107188000D03*
X162894000Y-107188000D03*
D15*
X177292000Y-104648000D03*
D16*
X174752000Y-104648000D03*
X177292000Y-102108000D03*
X174752000Y-102108000D03*
X177292000Y-99568000D03*
X174752000Y-99568000D03*
D14*
X163910000Y-97028000D03*
X161210000Y-97028000D03*
X167974000Y-107188000D03*
X165274000Y-107188000D03*
D17*
X155956000Y-106172000D03*
X163068000Y-100838000D03*
X157480000Y-106680000D03*
X154178000Y-104394000D03*
X159004000Y-103124000D03*
X156464000Y-101854000D03*
X167640000Y-103378000D03*
X167386000Y-101092000D03*
X155194000Y-102870000D03*
X155194000Y-101346000D03*
X169164000Y-102362000D03*
X169164000Y-100838000D03*
X161544000Y-98552000D03*
X172720000Y-99060000D03*
X151130000Y-101600000D03*
X157734000Y-103378000D03*
X157226000Y-100838000D03*
X164338000Y-100838000D03*
X165608000Y-100838000D03*
D18*
X155892500Y-104775000D02*
X155892500Y-103949500D01*
X155892500Y-103949500D02*
X158432500Y-101409500D01*
X158432500Y-101409500D02*
X158432500Y-99441000D01*
X155892500Y-104775000D02*
X155892500Y-106108500D01*
X155892500Y-106108500D02*
X155956000Y-106172000D01*
X157162500Y-104775000D02*
X157162500Y-106362500D01*
X162941000Y-100711000D02*
X162941000Y-99408000D01*
X163068000Y-100838000D02*
X162941000Y-100711000D01*
X157162500Y-106362500D02*
X157480000Y-106680000D01*
X156464000Y-100584000D02*
X156464000Y-101854000D01*
X159004000Y-103124000D02*
X161036000Y-103124000D01*
X161036000Y-103124000D02*
X167386000Y-103124000D01*
X167386000Y-103124000D02*
X167640000Y-103378000D01*
X168021000Y-99408000D02*
X168021000Y-100457000D01*
X168021000Y-100457000D02*
X167386000Y-101092000D01*
X156527500Y-99441000D02*
X156527500Y-100520500D01*
X156527500Y-100520500D02*
X156464000Y-100584000D01*
X155194000Y-102870000D02*
X155257500Y-102933500D01*
X155257500Y-102933500D02*
X155257500Y-104775000D01*
X155194000Y-101346000D02*
X155257500Y-101282500D01*
X155257500Y-101282500D02*
X155257500Y-99441000D01*
X166624000Y-102616000D02*
X168910000Y-102616000D01*
X168910000Y-102616000D02*
X169164000Y-102362000D01*
X159067500Y-99441000D02*
X159067500Y-101917500D01*
X169291000Y-100711000D02*
X169291000Y-99408000D01*
X169164000Y-100838000D02*
X169291000Y-100711000D01*
X159766000Y-102616000D02*
X166624000Y-102616000D01*
X159067500Y-101917500D02*
X159766000Y-102616000D01*
X159258000Y-98044000D02*
X161036000Y-98044000D01*
X161036000Y-98044000D02*
X161544000Y-98552000D01*
X157797500Y-99441000D02*
X157797500Y-98488500D01*
X172372000Y-99408000D02*
X171831000Y-99408000D01*
X172720000Y-99060000D02*
X172372000Y-99408000D01*
X158242000Y-98044000D02*
X159258000Y-98044000D01*
X157797500Y-98488500D02*
X158242000Y-98044000D01*
X166624000Y-102108000D02*
X167640000Y-102108000D01*
X170561000Y-100965000D02*
X170561000Y-99408000D01*
X169926000Y-101600000D02*
X170561000Y-100965000D01*
X168148000Y-101600000D02*
X169926000Y-101600000D01*
X167640000Y-102108000D02*
X168148000Y-101600000D01*
X159702500Y-99441000D02*
X159702500Y-101028500D01*
X160782000Y-102108000D02*
X166624000Y-102108000D01*
X159702500Y-101028500D02*
X160782000Y-102108000D01*
X151130000Y-100330000D02*
X151130000Y-101600000D01*
X157797500Y-104775000D02*
X157797500Y-103441500D01*
X157797500Y-103441500D02*
X157734000Y-103378000D01*
X157162500Y-99441000D02*
X157162500Y-100774500D01*
X157162500Y-100774500D02*
X157226000Y-100838000D01*
X164211000Y-99408000D02*
X164211000Y-100711000D01*
X164211000Y-100711000D02*
X164338000Y-100838000D01*
X155892500Y-99441000D02*
X155892500Y-97044500D01*
X155892500Y-97044500D02*
X155876000Y-97028000D01*
X158576000Y-97028000D02*
X161210000Y-97028000D01*
X160194000Y-107188000D02*
X158750000Y-107188000D01*
X158432500Y-106870500D02*
X158432500Y-104775000D01*
X158750000Y-107188000D02*
X158432500Y-106870500D01*
X158432500Y-104775000D02*
X158432500Y-103949500D01*
X162894000Y-107188000D02*
X165274000Y-107188000D01*
X170561000Y-104808000D02*
X170561000Y-105791000D01*
X177292000Y-106680000D02*
X177292000Y-104648000D01*
X176784000Y-107188000D02*
X177292000Y-106680000D01*
X171958000Y-107188000D02*
X176784000Y-107188000D01*
X170561000Y-105791000D02*
X171958000Y-107188000D01*
X165481000Y-99408000D02*
X165481000Y-100711000D01*
X165481000Y-100711000D02*
X165608000Y-100838000D01*
X174752000Y-102108000D02*
X172974000Y-102108000D01*
X171831000Y-103251000D02*
X171831000Y-104808000D01*
X172974000Y-102108000D02*
X171831000Y-103251000D01*
X177292000Y-99568000D02*
X177292000Y-99060000D01*
X177292000Y-99060000D02*
X175768000Y-97536000D01*
X175768000Y-97536000D02*
X167132000Y-97536000D01*
X167132000Y-97536000D02*
X166751000Y-97917000D01*
X166751000Y-97917000D02*
X166751000Y-99408000D01*
G36*
X159161349Y-107962700D02*
X152710771Y-107962700D01*
X152710771Y-100965000D01*
X152710771Y-99695000D01*
X152688222Y-99578781D01*
X152621123Y-99476635D01*
X152519827Y-99408259D01*
X152400000Y-99384229D01*
X149860000Y-99384229D01*
X149743781Y-99406778D01*
X149641635Y-99473877D01*
X149573259Y-99575173D01*
X149549229Y-99695000D01*
X149549229Y-100965000D01*
X149571778Y-101081219D01*
X149638877Y-101183365D01*
X149740173Y-101251741D01*
X149860000Y-101275771D01*
X150453300Y-101275771D01*
X150380830Y-101450301D01*
X150380570Y-101748391D01*
X150494404Y-102023890D01*
X150705001Y-102234856D01*
X150980301Y-102349170D01*
X151278391Y-102349430D01*
X151553890Y-102235596D01*
X151764856Y-102024999D01*
X151879170Y-101749699D01*
X151879430Y-101451609D01*
X151806775Y-101275771D01*
X152400000Y-101275771D01*
X152516219Y-101253222D01*
X152618365Y-101186123D01*
X152686741Y-101084827D01*
X152710771Y-100965000D01*
X152710771Y-107962700D01*
X152704800Y-107962700D01*
X152704800Y-104073628D01*
X152704800Y-103543100D01*
X152704800Y-103212900D01*
X152704800Y-102682372D01*
X152658397Y-102570345D01*
X152572656Y-102484603D01*
X152460629Y-102438200D01*
X152339372Y-102438200D01*
X151295100Y-102438200D01*
X151218900Y-102514400D01*
X151218900Y-103289100D01*
X152628600Y-103289100D01*
X152704800Y-103212900D01*
X152704800Y-103543100D01*
X152628600Y-103466900D01*
X151218900Y-103466900D01*
X151218900Y-104241600D01*
X151295100Y-104317800D01*
X152339372Y-104317800D01*
X152460629Y-104317800D01*
X152572656Y-104271397D01*
X152658397Y-104185655D01*
X152704800Y-104073628D01*
X152704800Y-107962700D01*
X151041100Y-107962700D01*
X151041100Y-104241600D01*
X151041100Y-103466900D01*
X151041100Y-103289100D01*
X151041100Y-102514400D01*
X150964900Y-102438200D01*
X149920628Y-102438200D01*
X149799371Y-102438200D01*
X149687344Y-102484603D01*
X149601603Y-102570345D01*
X149555200Y-102682372D01*
X149555200Y-103212900D01*
X149631400Y-103289100D01*
X151041100Y-103289100D01*
X151041100Y-103466900D01*
X149631400Y-103466900D01*
X149555200Y-103543100D01*
X149555200Y-104073628D01*
X149601603Y-104185655D01*
X149687344Y-104271397D01*
X149799371Y-104317800D01*
X149920628Y-104317800D01*
X150964900Y-104317800D01*
X151041100Y-104241600D01*
X151041100Y-107962700D01*
X148831300Y-107962700D01*
X148831300Y-96253300D01*
X154842548Y-96253300D01*
X154839259Y-96258173D01*
X154815229Y-96378000D01*
X154815229Y-97678000D01*
X154837778Y-97794219D01*
X154904877Y-97896365D01*
X155006173Y-97964741D01*
X155126000Y-97988771D01*
X155486100Y-97988771D01*
X155486100Y-98309822D01*
X155460700Y-98304729D01*
X155054300Y-98304729D01*
X154938081Y-98327278D01*
X154835935Y-98394377D01*
X154767559Y-98495673D01*
X154743529Y-98615500D01*
X154743529Y-100266500D01*
X154766078Y-100382719D01*
X154833177Y-100484865D01*
X154851100Y-100496963D01*
X154851100Y-100676939D01*
X154770110Y-100710404D01*
X154559144Y-100921001D01*
X154444830Y-101196301D01*
X154444570Y-101494391D01*
X154558404Y-101769890D01*
X154769001Y-101980856D01*
X155044301Y-102095170D01*
X155342391Y-102095430D01*
X155617890Y-101981596D01*
X155714672Y-101884982D01*
X155714570Y-102002391D01*
X155828404Y-102277890D01*
X156039001Y-102488856D01*
X156314301Y-102603170D01*
X156612391Y-102603430D01*
X156700056Y-102567207D01*
X155663900Y-103603363D01*
X155663900Y-103459666D01*
X155828856Y-103294999D01*
X155943170Y-103019699D01*
X155943430Y-102721609D01*
X155829596Y-102446110D01*
X155618999Y-102235144D01*
X155343699Y-102120830D01*
X155045609Y-102120570D01*
X154770110Y-102234404D01*
X154559144Y-102445001D01*
X154444830Y-102720301D01*
X154444570Y-103018391D01*
X154558404Y-103293890D01*
X154769001Y-103504856D01*
X154851100Y-103538946D01*
X154851100Y-103718415D01*
X154835935Y-103728377D01*
X154767559Y-103829673D01*
X154743529Y-103949500D01*
X154743529Y-105600500D01*
X154766078Y-105716719D01*
X154833177Y-105818865D01*
X154934473Y-105887241D01*
X155054300Y-105911271D01*
X155252933Y-105911271D01*
X155206830Y-106022301D01*
X155206570Y-106320391D01*
X155320404Y-106595890D01*
X155531001Y-106806856D01*
X155806301Y-106921170D01*
X156104391Y-106921430D01*
X156379890Y-106807596D01*
X156590856Y-106596999D01*
X156705170Y-106321699D01*
X156705430Y-106023609D01*
X156659012Y-105911271D01*
X156730700Y-105911271D01*
X156846919Y-105888722D01*
X156851455Y-105885742D01*
X156898672Y-105905300D01*
X156997400Y-105905300D01*
X157073600Y-105829100D01*
X157073600Y-104863900D01*
X157053600Y-104863900D01*
X157053600Y-104686100D01*
X157073600Y-104686100D01*
X157073600Y-104666100D01*
X157251400Y-104666100D01*
X157251400Y-104686100D01*
X157271400Y-104686100D01*
X157271400Y-104863900D01*
X157251400Y-104863900D01*
X157251400Y-105829100D01*
X157327600Y-105905300D01*
X157426328Y-105905300D01*
X157472744Y-105886073D01*
X157474473Y-105887241D01*
X157594300Y-105911271D01*
X158000700Y-105911271D01*
X158026100Y-105906342D01*
X158026100Y-106870500D01*
X158057035Y-107026023D01*
X158145132Y-107157868D01*
X158462632Y-107475368D01*
X158594477Y-107563465D01*
X158594478Y-107563465D01*
X158750000Y-107594400D01*
X159133229Y-107594400D01*
X159133229Y-107838000D01*
X159155778Y-107954219D01*
X159161349Y-107962700D01*
X159161349Y-107962700D01*
G37*
X159161349Y-107962700D02*
X152710771Y-107962700D01*
X152710771Y-100965000D01*
X152710771Y-99695000D01*
X152688222Y-99578781D01*
X152621123Y-99476635D01*
X152519827Y-99408259D01*
X152400000Y-99384229D01*
X149860000Y-99384229D01*
X149743781Y-99406778D01*
X149641635Y-99473877D01*
X149573259Y-99575173D01*
X149549229Y-99695000D01*
X149549229Y-100965000D01*
X149571778Y-101081219D01*
X149638877Y-101183365D01*
X149740173Y-101251741D01*
X149860000Y-101275771D01*
X150453300Y-101275771D01*
X150380830Y-101450301D01*
X150380570Y-101748391D01*
X150494404Y-102023890D01*
X150705001Y-102234856D01*
X150980301Y-102349170D01*
X151278391Y-102349430D01*
X151553890Y-102235596D01*
X151764856Y-102024999D01*
X151879170Y-101749699D01*
X151879430Y-101451609D01*
X151806775Y-101275771D01*
X152400000Y-101275771D01*
X152516219Y-101253222D01*
X152618365Y-101186123D01*
X152686741Y-101084827D01*
X152710771Y-100965000D01*
X152710771Y-107962700D01*
X152704800Y-107962700D01*
X152704800Y-104073628D01*
X152704800Y-103543100D01*
X152704800Y-103212900D01*
X152704800Y-102682372D01*
X152658397Y-102570345D01*
X152572656Y-102484603D01*
X152460629Y-102438200D01*
X152339372Y-102438200D01*
X151295100Y-102438200D01*
X151218900Y-102514400D01*
X151218900Y-103289100D01*
X152628600Y-103289100D01*
X152704800Y-103212900D01*
X152704800Y-103543100D01*
X152628600Y-103466900D01*
X151218900Y-103466900D01*
X151218900Y-104241600D01*
X151295100Y-104317800D01*
X152339372Y-104317800D01*
X152460629Y-104317800D01*
X152572656Y-104271397D01*
X152658397Y-104185655D01*
X152704800Y-104073628D01*
X152704800Y-107962700D01*
X151041100Y-107962700D01*
X151041100Y-104241600D01*
X151041100Y-103466900D01*
X151041100Y-103289100D01*
X151041100Y-102514400D01*
X150964900Y-102438200D01*
X149920628Y-102438200D01*
X149799371Y-102438200D01*
X149687344Y-102484603D01*
X149601603Y-102570345D01*
X149555200Y-102682372D01*
X149555200Y-103212900D01*
X149631400Y-103289100D01*
X151041100Y-103289100D01*
X151041100Y-103466900D01*
X149631400Y-103466900D01*
X149555200Y-103543100D01*
X149555200Y-104073628D01*
X149601603Y-104185655D01*
X149687344Y-104271397D01*
X149799371Y-104317800D01*
X149920628Y-104317800D01*
X150964900Y-104317800D01*
X151041100Y-104241600D01*
X151041100Y-107962700D01*
X148831300Y-107962700D01*
X148831300Y-96253300D01*
X154842548Y-96253300D01*
X154839259Y-96258173D01*
X154815229Y-96378000D01*
X154815229Y-97678000D01*
X154837778Y-97794219D01*
X154904877Y-97896365D01*
X155006173Y-97964741D01*
X155126000Y-97988771D01*
X155486100Y-97988771D01*
X155486100Y-98309822D01*
X155460700Y-98304729D01*
X155054300Y-98304729D01*
X154938081Y-98327278D01*
X154835935Y-98394377D01*
X154767559Y-98495673D01*
X154743529Y-98615500D01*
X154743529Y-100266500D01*
X154766078Y-100382719D01*
X154833177Y-100484865D01*
X154851100Y-100496963D01*
X154851100Y-100676939D01*
X154770110Y-100710404D01*
X154559144Y-100921001D01*
X154444830Y-101196301D01*
X154444570Y-101494391D01*
X154558404Y-101769890D01*
X154769001Y-101980856D01*
X155044301Y-102095170D01*
X155342391Y-102095430D01*
X155617890Y-101981596D01*
X155714672Y-101884982D01*
X155714570Y-102002391D01*
X155828404Y-102277890D01*
X156039001Y-102488856D01*
X156314301Y-102603170D01*
X156612391Y-102603430D01*
X156700056Y-102567207D01*
X155663900Y-103603363D01*
X155663900Y-103459666D01*
X155828856Y-103294999D01*
X155943170Y-103019699D01*
X155943430Y-102721609D01*
X155829596Y-102446110D01*
X155618999Y-102235144D01*
X155343699Y-102120830D01*
X155045609Y-102120570D01*
X154770110Y-102234404D01*
X154559144Y-102445001D01*
X154444830Y-102720301D01*
X154444570Y-103018391D01*
X154558404Y-103293890D01*
X154769001Y-103504856D01*
X154851100Y-103538946D01*
X154851100Y-103718415D01*
X154835935Y-103728377D01*
X154767559Y-103829673D01*
X154743529Y-103949500D01*
X154743529Y-105600500D01*
X154766078Y-105716719D01*
X154833177Y-105818865D01*
X154934473Y-105887241D01*
X155054300Y-105911271D01*
X155252933Y-105911271D01*
X155206830Y-106022301D01*
X155206570Y-106320391D01*
X155320404Y-106595890D01*
X155531001Y-106806856D01*
X155806301Y-106921170D01*
X156104391Y-106921430D01*
X156379890Y-106807596D01*
X156590856Y-106596999D01*
X156705170Y-106321699D01*
X156705430Y-106023609D01*
X156659012Y-105911271D01*
X156730700Y-105911271D01*
X156846919Y-105888722D01*
X156851455Y-105885742D01*
X156898672Y-105905300D01*
X156997400Y-105905300D01*
X157073600Y-105829100D01*
X157073600Y-104863900D01*
X157053600Y-104863900D01*
X157053600Y-104686100D01*
X157073600Y-104686100D01*
X157073600Y-104666100D01*
X157251400Y-104666100D01*
X157251400Y-104686100D01*
X157271400Y-104686100D01*
X157271400Y-104863900D01*
X157251400Y-104863900D01*
X157251400Y-105829100D01*
X157327600Y-105905300D01*
X157426328Y-105905300D01*
X157472744Y-105886073D01*
X157474473Y-105887241D01*
X157594300Y-105911271D01*
X158000700Y-105911271D01*
X158026100Y-105906342D01*
X158026100Y-106870500D01*
X158057035Y-107026023D01*
X158145132Y-107157868D01*
X158462632Y-107475368D01*
X158594477Y-107563465D01*
X158594478Y-107563465D01*
X158750000Y-107594400D01*
X159133229Y-107594400D01*
X159133229Y-107838000D01*
X159155778Y-107954219D01*
X159161349Y-107962700D01*
G36*
X178828700Y-107962700D02*
X178483290Y-107962700D01*
X178483290Y-102108000D01*
X178394351Y-101660873D01*
X178141074Y-101281816D01*
X177762017Y-101028539D01*
X177314890Y-100939600D01*
X177269110Y-100939600D01*
X176821983Y-101028539D01*
X176442926Y-101281816D01*
X176189649Y-101660873D01*
X176100710Y-102108000D01*
X176189649Y-102555127D01*
X176442926Y-102934184D01*
X176821983Y-103187461D01*
X177269110Y-103276400D01*
X177314890Y-103276400D01*
X177762017Y-103187461D01*
X178141074Y-102934184D01*
X178394351Y-102555127D01*
X178483290Y-102108000D01*
X178483290Y-107962700D01*
X178466371Y-107962700D01*
X178466371Y-105511600D01*
X178466371Y-103784400D01*
X178443822Y-103668181D01*
X178376723Y-103566035D01*
X178275427Y-103497659D01*
X178155600Y-103473629D01*
X176428400Y-103473629D01*
X176312181Y-103496178D01*
X176210035Y-103563277D01*
X176141659Y-103664573D01*
X176117629Y-103784400D01*
X176117629Y-105511600D01*
X176140178Y-105627819D01*
X176207277Y-105729965D01*
X176308573Y-105798341D01*
X176428400Y-105822371D01*
X176885600Y-105822371D01*
X176885600Y-106511663D01*
X176615663Y-106781600D01*
X175943290Y-106781600D01*
X175943290Y-104648000D01*
X175943290Y-102108000D01*
X175943290Y-99568000D01*
X175854351Y-99120873D01*
X175601074Y-98741816D01*
X175222017Y-98488539D01*
X174774890Y-98399600D01*
X174729110Y-98399600D01*
X174281983Y-98488539D01*
X173902926Y-98741816D01*
X173649649Y-99120873D01*
X173560710Y-99568000D01*
X173649649Y-100015127D01*
X173902926Y-100394184D01*
X174281983Y-100647461D01*
X174729110Y-100736400D01*
X174774890Y-100736400D01*
X175222017Y-100647461D01*
X175601074Y-100394184D01*
X175854351Y-100015127D01*
X175943290Y-99568000D01*
X175943290Y-102108000D01*
X175854351Y-101660873D01*
X175601074Y-101281816D01*
X175222017Y-101028539D01*
X174774890Y-100939600D01*
X174729110Y-100939600D01*
X174281983Y-101028539D01*
X173902926Y-101281816D01*
X173649649Y-101660873D01*
X173641547Y-101701600D01*
X173469430Y-101701600D01*
X173469430Y-98911609D01*
X173355596Y-98636110D01*
X173144999Y-98425144D01*
X172869699Y-98310830D01*
X172571609Y-98310570D01*
X172316858Y-98415830D01*
X172250827Y-98371259D01*
X172131000Y-98347229D01*
X171531000Y-98347229D01*
X171414781Y-98369778D01*
X171312635Y-98436877D01*
X171244259Y-98538173D01*
X171220229Y-98658000D01*
X171220229Y-100158000D01*
X171242778Y-100274219D01*
X171309877Y-100376365D01*
X171411173Y-100444741D01*
X171531000Y-100468771D01*
X172131000Y-100468771D01*
X172247219Y-100446222D01*
X172349365Y-100379123D01*
X172417741Y-100277827D01*
X172441771Y-100158000D01*
X172441771Y-99800521D01*
X172514590Y-99786037D01*
X172570301Y-99809170D01*
X172868391Y-99809430D01*
X173143890Y-99695596D01*
X173354856Y-99484999D01*
X173469170Y-99209699D01*
X173469430Y-98911609D01*
X173469430Y-101701600D01*
X172974000Y-101701600D01*
X172818477Y-101732535D01*
X172686632Y-101820632D01*
X171543632Y-102963632D01*
X171455535Y-103095477D01*
X171424600Y-103251000D01*
X171424600Y-103767872D01*
X171414781Y-103769778D01*
X171312635Y-103836877D01*
X171244259Y-103938173D01*
X171220229Y-104058000D01*
X171220229Y-105558000D01*
X171242778Y-105674219D01*
X171309877Y-105776365D01*
X171411173Y-105844741D01*
X171531000Y-105868771D01*
X172131000Y-105868771D01*
X172247219Y-105846222D01*
X172349365Y-105779123D01*
X172417741Y-105677827D01*
X172441771Y-105558000D01*
X172441771Y-104058000D01*
X172419222Y-103941781D01*
X172352123Y-103839635D01*
X172250827Y-103771259D01*
X172237400Y-103768566D01*
X172237400Y-103419336D01*
X173142336Y-102514400D01*
X173641547Y-102514400D01*
X173649649Y-102555127D01*
X173902926Y-102934184D01*
X174281983Y-103187461D01*
X174729110Y-103276400D01*
X174774890Y-103276400D01*
X175222017Y-103187461D01*
X175601074Y-102934184D01*
X175854351Y-102555127D01*
X175943290Y-102108000D01*
X175943290Y-104648000D01*
X175854351Y-104200873D01*
X175601074Y-103821816D01*
X175222017Y-103568539D01*
X174774890Y-103479600D01*
X174729110Y-103479600D01*
X174281983Y-103568539D01*
X173902926Y-103821816D01*
X173649649Y-104200873D01*
X173560710Y-104648000D01*
X173649649Y-105095127D01*
X173902926Y-105474184D01*
X174281983Y-105727461D01*
X174729110Y-105816400D01*
X174774890Y-105816400D01*
X175222017Y-105727461D01*
X175601074Y-105474184D01*
X175854351Y-105095127D01*
X175943290Y-104648000D01*
X175943290Y-106781600D01*
X172126336Y-106781600D01*
X171097295Y-105752559D01*
X171147741Y-105677827D01*
X171171771Y-105558000D01*
X171171771Y-104058000D01*
X171149222Y-103941781D01*
X171082123Y-103839635D01*
X170980827Y-103771259D01*
X170861000Y-103747229D01*
X170261000Y-103747229D01*
X170144781Y-103769778D01*
X170042635Y-103836877D01*
X169974259Y-103938173D01*
X169950229Y-104058000D01*
X169950229Y-105558000D01*
X169972778Y-105674219D01*
X170039877Y-105776365D01*
X170141173Y-105844741D01*
X170166291Y-105849778D01*
X170185535Y-105946523D01*
X170273632Y-106078368D01*
X171670632Y-107475368D01*
X171802477Y-107563465D01*
X171958000Y-107594400D01*
X176784000Y-107594400D01*
X176939522Y-107563465D01*
X176939523Y-107563465D01*
X177071368Y-107475368D01*
X177579368Y-106967369D01*
X177579368Y-106967368D01*
X177667465Y-106835523D01*
X177698399Y-106680000D01*
X177698400Y-106680000D01*
X177698400Y-105822371D01*
X178155600Y-105822371D01*
X178271819Y-105799822D01*
X178373965Y-105732723D01*
X178442341Y-105631427D01*
X178466371Y-105511600D01*
X178466371Y-107962700D01*
X169901771Y-107962700D01*
X169901771Y-105558000D01*
X169901771Y-104058000D01*
X169879222Y-103941781D01*
X169812123Y-103839635D01*
X169710827Y-103771259D01*
X169591000Y-103747229D01*
X168991000Y-103747229D01*
X168874781Y-103769778D01*
X168772635Y-103836877D01*
X168704259Y-103938173D01*
X168680229Y-104058000D01*
X168680229Y-105558000D01*
X168702778Y-105674219D01*
X168769877Y-105776365D01*
X168871173Y-105844741D01*
X168991000Y-105868771D01*
X169591000Y-105868771D01*
X169707219Y-105846222D01*
X169809365Y-105779123D01*
X169877741Y-105677827D01*
X169901771Y-105558000D01*
X169901771Y-107962700D01*
X169002260Y-107962700D01*
X169028800Y-107898629D01*
X169028800Y-107777372D01*
X169028800Y-107353100D01*
X169028800Y-107022900D01*
X169028800Y-106598628D01*
X169028800Y-106477371D01*
X168982397Y-106365344D01*
X168896655Y-106279603D01*
X168784628Y-106233200D01*
X168139100Y-106233200D01*
X168062900Y-106309400D01*
X168062900Y-107099100D01*
X168952600Y-107099100D01*
X169028800Y-107022900D01*
X169028800Y-107353100D01*
X168952600Y-107276900D01*
X168062900Y-107276900D01*
X168062900Y-107296900D01*
X167885100Y-107296900D01*
X167885100Y-107276900D01*
X167885100Y-107099100D01*
X167885100Y-106309400D01*
X167808900Y-106233200D01*
X167163372Y-106233200D01*
X167051345Y-106279603D01*
X166965603Y-106365344D01*
X166919200Y-106477371D01*
X166919200Y-106598628D01*
X166919200Y-107022900D01*
X166995400Y-107099100D01*
X167885100Y-107099100D01*
X167885100Y-107276900D01*
X166995400Y-107276900D01*
X166919200Y-107353100D01*
X166919200Y-107777372D01*
X166919200Y-107898629D01*
X166945739Y-107962700D01*
X166307451Y-107962700D01*
X166310741Y-107957827D01*
X166334771Y-107838000D01*
X166334771Y-106538000D01*
X166312222Y-106421781D01*
X166245123Y-106319635D01*
X166143827Y-106251259D01*
X166091771Y-106240819D01*
X166091771Y-105558000D01*
X166091771Y-104058000D01*
X166069222Y-103941781D01*
X166002123Y-103839635D01*
X165900827Y-103771259D01*
X165781000Y-103747229D01*
X165181000Y-103747229D01*
X165064781Y-103769778D01*
X164962635Y-103836877D01*
X164894259Y-103938173D01*
X164870229Y-104058000D01*
X164870229Y-105558000D01*
X164892778Y-105674219D01*
X164959877Y-105776365D01*
X165061173Y-105844741D01*
X165181000Y-105868771D01*
X165781000Y-105868771D01*
X165897219Y-105846222D01*
X165999365Y-105779123D01*
X166067741Y-105677827D01*
X166091771Y-105558000D01*
X166091771Y-106240819D01*
X166024000Y-106227229D01*
X164821771Y-106227229D01*
X164821771Y-105558000D01*
X164821771Y-104058000D01*
X164799222Y-103941781D01*
X164732123Y-103839635D01*
X164630827Y-103771259D01*
X164511000Y-103747229D01*
X163911000Y-103747229D01*
X163794781Y-103769778D01*
X163692635Y-103836877D01*
X163624259Y-103938173D01*
X163600229Y-104058000D01*
X163600229Y-105558000D01*
X163622778Y-105674219D01*
X163689877Y-105776365D01*
X163791173Y-105844741D01*
X163911000Y-105868771D01*
X164511000Y-105868771D01*
X164627219Y-105846222D01*
X164729365Y-105779123D01*
X164797741Y-105677827D01*
X164821771Y-105558000D01*
X164821771Y-106227229D01*
X164524000Y-106227229D01*
X164407781Y-106249778D01*
X164305635Y-106316877D01*
X164237259Y-106418173D01*
X164213229Y-106538000D01*
X164213229Y-106781600D01*
X163954771Y-106781600D01*
X163954771Y-106538000D01*
X163932222Y-106421781D01*
X163865123Y-106319635D01*
X163763827Y-106251259D01*
X163644000Y-106227229D01*
X163551771Y-106227229D01*
X163551771Y-105558000D01*
X163551771Y-104058000D01*
X163529222Y-103941781D01*
X163462123Y-103839635D01*
X163360827Y-103771259D01*
X163241000Y-103747229D01*
X162641000Y-103747229D01*
X162524781Y-103769778D01*
X162422635Y-103836877D01*
X162354259Y-103938173D01*
X162330229Y-104058000D01*
X162330229Y-105558000D01*
X162352778Y-105674219D01*
X162419877Y-105776365D01*
X162521173Y-105844741D01*
X162641000Y-105868771D01*
X163241000Y-105868771D01*
X163357219Y-105846222D01*
X163459365Y-105779123D01*
X163527741Y-105677827D01*
X163551771Y-105558000D01*
X163551771Y-106227229D01*
X162144000Y-106227229D01*
X162027781Y-106249778D01*
X161925635Y-106316877D01*
X161857259Y-106418173D01*
X161833229Y-106538000D01*
X161833229Y-107838000D01*
X161855778Y-107954219D01*
X161861349Y-107962700D01*
X161227451Y-107962700D01*
X161230741Y-107957827D01*
X161254771Y-107838000D01*
X161254771Y-106538000D01*
X161232222Y-106421781D01*
X161165123Y-106319635D01*
X161063827Y-106251259D01*
X160944000Y-106227229D01*
X159444000Y-106227229D01*
X159327781Y-106249778D01*
X159225635Y-106316877D01*
X159157259Y-106418173D01*
X159133229Y-106538000D01*
X159133229Y-106781600D01*
X158918336Y-106781600D01*
X158838900Y-106702164D01*
X158838900Y-105906177D01*
X158864300Y-105911271D01*
X159270700Y-105911271D01*
X159386888Y-105888728D01*
X159499300Y-105911271D01*
X159905700Y-105911271D01*
X160021919Y-105888722D01*
X160124065Y-105821623D01*
X160192441Y-105720327D01*
X160216471Y-105600500D01*
X160216471Y-103949500D01*
X160193922Y-103833281D01*
X160126823Y-103731135D01*
X160025527Y-103662759D01*
X159905700Y-103638729D01*
X159548968Y-103638729D01*
X159638856Y-103548999D01*
X159646578Y-103530400D01*
X161036000Y-103530400D01*
X166892226Y-103530400D01*
X166981818Y-103747229D01*
X166451000Y-103747229D01*
X166334781Y-103769778D01*
X166232635Y-103836877D01*
X166164259Y-103938173D01*
X166140229Y-104058000D01*
X166140229Y-105558000D01*
X166162778Y-105674219D01*
X166229877Y-105776365D01*
X166331173Y-105844741D01*
X166451000Y-105868771D01*
X167051000Y-105868771D01*
X167167219Y-105846222D01*
X167269365Y-105779123D01*
X167337741Y-105677827D01*
X167361771Y-105558000D01*
X167361771Y-104073799D01*
X167410229Y-104093921D01*
X167410229Y-105558000D01*
X167432778Y-105674219D01*
X167499877Y-105776365D01*
X167601173Y-105844741D01*
X167721000Y-105868771D01*
X168321000Y-105868771D01*
X168437219Y-105846222D01*
X168539365Y-105779123D01*
X168607741Y-105677827D01*
X168631771Y-105558000D01*
X168631771Y-104058000D01*
X168609222Y-103941781D01*
X168542123Y-103839635D01*
X168440827Y-103771259D01*
X168321000Y-103747229D01*
X168298013Y-103747229D01*
X168389170Y-103527699D01*
X168389430Y-103229609D01*
X168303812Y-103022400D01*
X168800518Y-103022400D01*
X169014301Y-103111170D01*
X169312391Y-103111430D01*
X169587890Y-102997596D01*
X169798856Y-102786999D01*
X169913170Y-102511699D01*
X169913430Y-102213609D01*
X169827812Y-102006400D01*
X169926000Y-102006400D01*
X170081522Y-101975465D01*
X170081523Y-101975465D01*
X170213368Y-101887368D01*
X170848368Y-101252368D01*
X170936465Y-101120523D01*
X170936465Y-101120522D01*
X170967400Y-100965000D01*
X170967400Y-100448127D01*
X170977219Y-100446222D01*
X171079365Y-100379123D01*
X171147741Y-100277827D01*
X171171771Y-100158000D01*
X171171771Y-98658000D01*
X171149222Y-98541781D01*
X171082123Y-98439635D01*
X170980827Y-98371259D01*
X170861000Y-98347229D01*
X170261000Y-98347229D01*
X170144781Y-98369778D01*
X170042635Y-98436877D01*
X169974259Y-98538173D01*
X169950229Y-98658000D01*
X169950229Y-100158000D01*
X169972778Y-100274219D01*
X170039877Y-100376365D01*
X170141173Y-100444741D01*
X170154600Y-100447433D01*
X170154600Y-100796664D01*
X169877385Y-101073878D01*
X169913170Y-100987699D01*
X169913430Y-100689609D01*
X169799596Y-100414110D01*
X169782371Y-100396855D01*
X169809365Y-100379123D01*
X169877741Y-100277827D01*
X169901771Y-100158000D01*
X169901771Y-98658000D01*
X169879222Y-98541781D01*
X169812123Y-98439635D01*
X169710827Y-98371259D01*
X169591000Y-98347229D01*
X168991000Y-98347229D01*
X168874781Y-98369778D01*
X168772635Y-98436877D01*
X168704259Y-98538173D01*
X168680229Y-98658000D01*
X168680229Y-100158000D01*
X168697162Y-100245276D01*
X168529144Y-100413001D01*
X168414830Y-100688301D01*
X168414570Y-100986391D01*
X168500187Y-101193600D01*
X168148000Y-101193600D01*
X168135209Y-101196144D01*
X168135430Y-100943609D01*
X168127739Y-100924996D01*
X168308368Y-100744368D01*
X168396465Y-100612523D01*
X168396465Y-100612522D01*
X168427400Y-100457000D01*
X168427400Y-100448127D01*
X168437219Y-100446222D01*
X168539365Y-100379123D01*
X168607741Y-100277827D01*
X168631771Y-100158000D01*
X168631771Y-98658000D01*
X168609222Y-98541781D01*
X168542123Y-98439635D01*
X168440827Y-98371259D01*
X168321000Y-98347229D01*
X167721000Y-98347229D01*
X167604781Y-98369778D01*
X167502635Y-98436877D01*
X167434259Y-98538173D01*
X167410229Y-98658000D01*
X167410229Y-100158000D01*
X167432778Y-100274219D01*
X167477814Y-100342779D01*
X167294005Y-100342619D01*
X167337741Y-100277827D01*
X167361771Y-100158000D01*
X167361771Y-98658000D01*
X167339222Y-98541781D01*
X167272123Y-98439635D01*
X167170827Y-98371259D01*
X167157400Y-98368566D01*
X167157400Y-98085336D01*
X167300336Y-97942400D01*
X175599663Y-97942400D01*
X176425363Y-98768100D01*
X176189649Y-99120873D01*
X176100710Y-99568000D01*
X176189649Y-100015127D01*
X176442926Y-100394184D01*
X176821983Y-100647461D01*
X177269110Y-100736400D01*
X177314890Y-100736400D01*
X177762017Y-100647461D01*
X178141074Y-100394184D01*
X178394351Y-100015127D01*
X178483290Y-99568000D01*
X178394351Y-99120873D01*
X178141074Y-98741816D01*
X177762017Y-98488539D01*
X177314890Y-98399600D01*
X177269110Y-98399600D01*
X177216751Y-98410014D01*
X176055368Y-97248632D01*
X175923523Y-97160535D01*
X175768000Y-97129600D01*
X167132000Y-97129600D01*
X166976477Y-97160535D01*
X166844632Y-97248632D01*
X166463632Y-97629632D01*
X166375535Y-97761477D01*
X166344600Y-97917000D01*
X166344600Y-98367872D01*
X166334781Y-98369778D01*
X166232635Y-98436877D01*
X166164259Y-98538173D01*
X166140229Y-98658000D01*
X166140229Y-100158000D01*
X166162778Y-100274219D01*
X166229877Y-100376365D01*
X166331173Y-100444741D01*
X166451000Y-100468771D01*
X166949721Y-100468771D01*
X166751144Y-100667001D01*
X166636830Y-100942301D01*
X166636570Y-101240391D01*
X166750404Y-101515890D01*
X166935789Y-101701600D01*
X166624000Y-101701600D01*
X166357430Y-101701600D01*
X166357430Y-100689609D01*
X166243596Y-100414110D01*
X166074400Y-100244618D01*
X166091771Y-100158000D01*
X166091771Y-98658000D01*
X166069222Y-98541781D01*
X166002123Y-98439635D01*
X165900827Y-98371259D01*
X165781000Y-98347229D01*
X165181000Y-98347229D01*
X165064781Y-98369778D01*
X164964800Y-98435454D01*
X164964800Y-97738629D01*
X164964800Y-97617372D01*
X164964800Y-97193100D01*
X164888600Y-97116900D01*
X163998900Y-97116900D01*
X163998900Y-97906600D01*
X164075100Y-97982800D01*
X164720628Y-97982800D01*
X164832655Y-97936397D01*
X164918397Y-97850656D01*
X164964800Y-97738629D01*
X164964800Y-98435454D01*
X164962635Y-98436877D01*
X164894259Y-98538173D01*
X164870229Y-98658000D01*
X164870229Y-100158000D01*
X164892778Y-100274219D01*
X164959877Y-100376365D01*
X164989686Y-100396487D01*
X164973144Y-100413001D01*
X164972951Y-100413464D01*
X164804400Y-100244618D01*
X164821771Y-100158000D01*
X164821771Y-98658000D01*
X164799222Y-98541781D01*
X164732123Y-98439635D01*
X164630827Y-98371259D01*
X164511000Y-98347229D01*
X163911000Y-98347229D01*
X163821100Y-98364671D01*
X163821100Y-97906600D01*
X163821100Y-97116900D01*
X162931400Y-97116900D01*
X162855200Y-97193100D01*
X162855200Y-97617372D01*
X162855200Y-97738629D01*
X162901603Y-97850656D01*
X162987345Y-97936397D01*
X163099372Y-97982800D01*
X163744900Y-97982800D01*
X163821100Y-97906600D01*
X163821100Y-98364671D01*
X163794781Y-98369778D01*
X163692635Y-98436877D01*
X163624259Y-98538173D01*
X163600229Y-98658000D01*
X163600229Y-100158000D01*
X163622778Y-100274219D01*
X163689877Y-100376365D01*
X163719686Y-100396487D01*
X163703144Y-100413001D01*
X163588830Y-100688301D01*
X163588570Y-100986391D01*
X163702404Y-101261890D01*
X163913001Y-101472856D01*
X164188301Y-101587170D01*
X164486391Y-101587430D01*
X164761890Y-101473596D01*
X164972856Y-101262999D01*
X164973048Y-101262535D01*
X165183001Y-101472856D01*
X165458301Y-101587170D01*
X165756391Y-101587430D01*
X166031890Y-101473596D01*
X166242856Y-101262999D01*
X166357170Y-100987699D01*
X166357430Y-100689609D01*
X166357430Y-101701600D01*
X163545800Y-101701600D01*
X163545800Y-100218628D01*
X163545800Y-99573100D01*
X163545800Y-99242900D01*
X163545800Y-98597372D01*
X163499397Y-98485345D01*
X163413656Y-98399603D01*
X163301629Y-98353200D01*
X163180372Y-98353200D01*
X163106100Y-98353200D01*
X163029900Y-98429400D01*
X163029900Y-99319100D01*
X163469600Y-99319100D01*
X163545800Y-99242900D01*
X163545800Y-99573100D01*
X163469600Y-99496900D01*
X163029900Y-99496900D01*
X163029900Y-100386600D01*
X163106100Y-100462800D01*
X163180372Y-100462800D01*
X163301629Y-100462800D01*
X163413656Y-100416397D01*
X163499397Y-100330655D01*
X163545800Y-100218628D01*
X163545800Y-101701600D01*
X162852100Y-101701600D01*
X162852100Y-100386600D01*
X162852100Y-99496900D01*
X162852100Y-99319100D01*
X162852100Y-98429400D01*
X162775900Y-98353200D01*
X162701628Y-98353200D01*
X162580371Y-98353200D01*
X162468344Y-98399603D01*
X162382603Y-98485345D01*
X162336200Y-98597372D01*
X162336200Y-99242900D01*
X162412400Y-99319100D01*
X162852100Y-99319100D01*
X162852100Y-99496900D01*
X162412400Y-99496900D01*
X162336200Y-99573100D01*
X162336200Y-100218628D01*
X162382603Y-100330655D01*
X162468344Y-100416397D01*
X162580371Y-100462800D01*
X162701628Y-100462800D01*
X162775900Y-100462800D01*
X162852100Y-100386600D01*
X162852100Y-101701600D01*
X160950336Y-101701600D01*
X160108900Y-100860163D01*
X160108900Y-100497584D01*
X160124065Y-100487623D01*
X160192441Y-100386327D01*
X160216471Y-100266500D01*
X160216471Y-98615500D01*
X160193922Y-98499281D01*
X160161812Y-98450400D01*
X160794788Y-98450400D01*
X160794570Y-98700391D01*
X160908404Y-98975890D01*
X161119001Y-99186856D01*
X161394301Y-99301170D01*
X161692391Y-99301430D01*
X161967890Y-99187596D01*
X162178856Y-98976999D01*
X162293170Y-98701699D01*
X162293430Y-98403609D01*
X162179596Y-98128110D01*
X162027438Y-97975686D01*
X162076219Y-97966222D01*
X162178365Y-97899123D01*
X162246741Y-97797827D01*
X162270771Y-97678000D01*
X162270771Y-96378000D01*
X162248222Y-96261781D01*
X162242650Y-96253300D01*
X162881739Y-96253300D01*
X162855200Y-96317371D01*
X162855200Y-96438628D01*
X162855200Y-96862900D01*
X162931400Y-96939100D01*
X163821100Y-96939100D01*
X163821100Y-96919100D01*
X163998900Y-96919100D01*
X163998900Y-96939100D01*
X164888600Y-96939100D01*
X164964800Y-96862900D01*
X164964800Y-96438628D01*
X164964800Y-96317371D01*
X164938260Y-96253300D01*
X178828700Y-96253300D01*
X178828700Y-107962700D01*
X178828700Y-107962700D01*
G37*
X178828700Y-107962700D02*
X178483290Y-107962700D01*
X178483290Y-102108000D01*
X178394351Y-101660873D01*
X178141074Y-101281816D01*
X177762017Y-101028539D01*
X177314890Y-100939600D01*
X177269110Y-100939600D01*
X176821983Y-101028539D01*
X176442926Y-101281816D01*
X176189649Y-101660873D01*
X176100710Y-102108000D01*
X176189649Y-102555127D01*
X176442926Y-102934184D01*
X176821983Y-103187461D01*
X177269110Y-103276400D01*
X177314890Y-103276400D01*
X177762017Y-103187461D01*
X178141074Y-102934184D01*
X178394351Y-102555127D01*
X178483290Y-102108000D01*
X178483290Y-107962700D01*
X178466371Y-107962700D01*
X178466371Y-105511600D01*
X178466371Y-103784400D01*
X178443822Y-103668181D01*
X178376723Y-103566035D01*
X178275427Y-103497659D01*
X178155600Y-103473629D01*
X176428400Y-103473629D01*
X176312181Y-103496178D01*
X176210035Y-103563277D01*
X176141659Y-103664573D01*
X176117629Y-103784400D01*
X176117629Y-105511600D01*
X176140178Y-105627819D01*
X176207277Y-105729965D01*
X176308573Y-105798341D01*
X176428400Y-105822371D01*
X176885600Y-105822371D01*
X176885600Y-106511663D01*
X176615663Y-106781600D01*
X175943290Y-106781600D01*
X175943290Y-104648000D01*
X175943290Y-102108000D01*
X175943290Y-99568000D01*
X175854351Y-99120873D01*
X175601074Y-98741816D01*
X175222017Y-98488539D01*
X174774890Y-98399600D01*
X174729110Y-98399600D01*
X174281983Y-98488539D01*
X173902926Y-98741816D01*
X173649649Y-99120873D01*
X173560710Y-99568000D01*
X173649649Y-100015127D01*
X173902926Y-100394184D01*
X174281983Y-100647461D01*
X174729110Y-100736400D01*
X174774890Y-100736400D01*
X175222017Y-100647461D01*
X175601074Y-100394184D01*
X175854351Y-100015127D01*
X175943290Y-99568000D01*
X175943290Y-102108000D01*
X175854351Y-101660873D01*
X175601074Y-101281816D01*
X175222017Y-101028539D01*
X174774890Y-100939600D01*
X174729110Y-100939600D01*
X174281983Y-101028539D01*
X173902926Y-101281816D01*
X173649649Y-101660873D01*
X173641547Y-101701600D01*
X173469430Y-101701600D01*
X173469430Y-98911609D01*
X173355596Y-98636110D01*
X173144999Y-98425144D01*
X172869699Y-98310830D01*
X172571609Y-98310570D01*
X172316858Y-98415830D01*
X172250827Y-98371259D01*
X172131000Y-98347229D01*
X171531000Y-98347229D01*
X171414781Y-98369778D01*
X171312635Y-98436877D01*
X171244259Y-98538173D01*
X171220229Y-98658000D01*
X171220229Y-100158000D01*
X171242778Y-100274219D01*
X171309877Y-100376365D01*
X171411173Y-100444741D01*
X171531000Y-100468771D01*
X172131000Y-100468771D01*
X172247219Y-100446222D01*
X172349365Y-100379123D01*
X172417741Y-100277827D01*
X172441771Y-100158000D01*
X172441771Y-99800521D01*
X172514590Y-99786037D01*
X172570301Y-99809170D01*
X172868391Y-99809430D01*
X173143890Y-99695596D01*
X173354856Y-99484999D01*
X173469170Y-99209699D01*
X173469430Y-98911609D01*
X173469430Y-101701600D01*
X172974000Y-101701600D01*
X172818477Y-101732535D01*
X172686632Y-101820632D01*
X171543632Y-102963632D01*
X171455535Y-103095477D01*
X171424600Y-103251000D01*
X171424600Y-103767872D01*
X171414781Y-103769778D01*
X171312635Y-103836877D01*
X171244259Y-103938173D01*
X171220229Y-104058000D01*
X171220229Y-105558000D01*
X171242778Y-105674219D01*
X171309877Y-105776365D01*
X171411173Y-105844741D01*
X171531000Y-105868771D01*
X172131000Y-105868771D01*
X172247219Y-105846222D01*
X172349365Y-105779123D01*
X172417741Y-105677827D01*
X172441771Y-105558000D01*
X172441771Y-104058000D01*
X172419222Y-103941781D01*
X172352123Y-103839635D01*
X172250827Y-103771259D01*
X172237400Y-103768566D01*
X172237400Y-103419336D01*
X173142336Y-102514400D01*
X173641547Y-102514400D01*
X173649649Y-102555127D01*
X173902926Y-102934184D01*
X174281983Y-103187461D01*
X174729110Y-103276400D01*
X174774890Y-103276400D01*
X175222017Y-103187461D01*
X175601074Y-102934184D01*
X175854351Y-102555127D01*
X175943290Y-102108000D01*
X175943290Y-104648000D01*
X175854351Y-104200873D01*
X175601074Y-103821816D01*
X175222017Y-103568539D01*
X174774890Y-103479600D01*
X174729110Y-103479600D01*
X174281983Y-103568539D01*
X173902926Y-103821816D01*
X173649649Y-104200873D01*
X173560710Y-104648000D01*
X173649649Y-105095127D01*
X173902926Y-105474184D01*
X174281983Y-105727461D01*
X174729110Y-105816400D01*
X174774890Y-105816400D01*
X175222017Y-105727461D01*
X175601074Y-105474184D01*
X175854351Y-105095127D01*
X175943290Y-104648000D01*
X175943290Y-106781600D01*
X172126336Y-106781600D01*
X171097295Y-105752559D01*
X171147741Y-105677827D01*
X171171771Y-105558000D01*
X171171771Y-104058000D01*
X171149222Y-103941781D01*
X171082123Y-103839635D01*
X170980827Y-103771259D01*
X170861000Y-103747229D01*
X170261000Y-103747229D01*
X170144781Y-103769778D01*
X170042635Y-103836877D01*
X169974259Y-103938173D01*
X169950229Y-104058000D01*
X169950229Y-105558000D01*
X169972778Y-105674219D01*
X170039877Y-105776365D01*
X170141173Y-105844741D01*
X170166291Y-105849778D01*
X170185535Y-105946523D01*
X170273632Y-106078368D01*
X171670632Y-107475368D01*
X171802477Y-107563465D01*
X171958000Y-107594400D01*
X176784000Y-107594400D01*
X176939522Y-107563465D01*
X176939523Y-107563465D01*
X177071368Y-107475368D01*
X177579368Y-106967369D01*
X177579368Y-106967368D01*
X177667465Y-106835523D01*
X177698399Y-106680000D01*
X177698400Y-106680000D01*
X177698400Y-105822371D01*
X178155600Y-105822371D01*
X178271819Y-105799822D01*
X178373965Y-105732723D01*
X178442341Y-105631427D01*
X178466371Y-105511600D01*
X178466371Y-107962700D01*
X169901771Y-107962700D01*
X169901771Y-105558000D01*
X169901771Y-104058000D01*
X169879222Y-103941781D01*
X169812123Y-103839635D01*
X169710827Y-103771259D01*
X169591000Y-103747229D01*
X168991000Y-103747229D01*
X168874781Y-103769778D01*
X168772635Y-103836877D01*
X168704259Y-103938173D01*
X168680229Y-104058000D01*
X168680229Y-105558000D01*
X168702778Y-105674219D01*
X168769877Y-105776365D01*
X168871173Y-105844741D01*
X168991000Y-105868771D01*
X169591000Y-105868771D01*
X169707219Y-105846222D01*
X169809365Y-105779123D01*
X169877741Y-105677827D01*
X169901771Y-105558000D01*
X169901771Y-107962700D01*
X169002260Y-107962700D01*
X169028800Y-107898629D01*
X169028800Y-107777372D01*
X169028800Y-107353100D01*
X169028800Y-107022900D01*
X169028800Y-106598628D01*
X169028800Y-106477371D01*
X168982397Y-106365344D01*
X168896655Y-106279603D01*
X168784628Y-106233200D01*
X168139100Y-106233200D01*
X168062900Y-106309400D01*
X168062900Y-107099100D01*
X168952600Y-107099100D01*
X169028800Y-107022900D01*
X169028800Y-107353100D01*
X168952600Y-107276900D01*
X168062900Y-107276900D01*
X168062900Y-107296900D01*
X167885100Y-107296900D01*
X167885100Y-107276900D01*
X167885100Y-107099100D01*
X167885100Y-106309400D01*
X167808900Y-106233200D01*
X167163372Y-106233200D01*
X167051345Y-106279603D01*
X166965603Y-106365344D01*
X166919200Y-106477371D01*
X166919200Y-106598628D01*
X166919200Y-107022900D01*
X166995400Y-107099100D01*
X167885100Y-107099100D01*
X167885100Y-107276900D01*
X166995400Y-107276900D01*
X166919200Y-107353100D01*
X166919200Y-107777372D01*
X166919200Y-107898629D01*
X166945739Y-107962700D01*
X166307451Y-107962700D01*
X166310741Y-107957827D01*
X166334771Y-107838000D01*
X166334771Y-106538000D01*
X166312222Y-106421781D01*
X166245123Y-106319635D01*
X166143827Y-106251259D01*
X166091771Y-106240819D01*
X166091771Y-105558000D01*
X166091771Y-104058000D01*
X166069222Y-103941781D01*
X166002123Y-103839635D01*
X165900827Y-103771259D01*
X165781000Y-103747229D01*
X165181000Y-103747229D01*
X165064781Y-103769778D01*
X164962635Y-103836877D01*
X164894259Y-103938173D01*
X164870229Y-104058000D01*
X164870229Y-105558000D01*
X164892778Y-105674219D01*
X164959877Y-105776365D01*
X165061173Y-105844741D01*
X165181000Y-105868771D01*
X165781000Y-105868771D01*
X165897219Y-105846222D01*
X165999365Y-105779123D01*
X166067741Y-105677827D01*
X166091771Y-105558000D01*
X166091771Y-106240819D01*
X166024000Y-106227229D01*
X164821771Y-106227229D01*
X164821771Y-105558000D01*
X164821771Y-104058000D01*
X164799222Y-103941781D01*
X164732123Y-103839635D01*
X164630827Y-103771259D01*
X164511000Y-103747229D01*
X163911000Y-103747229D01*
X163794781Y-103769778D01*
X163692635Y-103836877D01*
X163624259Y-103938173D01*
X163600229Y-104058000D01*
X163600229Y-105558000D01*
X163622778Y-105674219D01*
X163689877Y-105776365D01*
X163791173Y-105844741D01*
X163911000Y-105868771D01*
X164511000Y-105868771D01*
X164627219Y-105846222D01*
X164729365Y-105779123D01*
X164797741Y-105677827D01*
X164821771Y-105558000D01*
X164821771Y-106227229D01*
X164524000Y-106227229D01*
X164407781Y-106249778D01*
X164305635Y-106316877D01*
X164237259Y-106418173D01*
X164213229Y-106538000D01*
X164213229Y-106781600D01*
X163954771Y-106781600D01*
X163954771Y-106538000D01*
X163932222Y-106421781D01*
X163865123Y-106319635D01*
X163763827Y-106251259D01*
X163644000Y-106227229D01*
X163551771Y-106227229D01*
X163551771Y-105558000D01*
X163551771Y-104058000D01*
X163529222Y-103941781D01*
X163462123Y-103839635D01*
X163360827Y-103771259D01*
X163241000Y-103747229D01*
X162641000Y-103747229D01*
X162524781Y-103769778D01*
X162422635Y-103836877D01*
X162354259Y-103938173D01*
X162330229Y-104058000D01*
X162330229Y-105558000D01*
X162352778Y-105674219D01*
X162419877Y-105776365D01*
X162521173Y-105844741D01*
X162641000Y-105868771D01*
X163241000Y-105868771D01*
X163357219Y-105846222D01*
X163459365Y-105779123D01*
X163527741Y-105677827D01*
X163551771Y-105558000D01*
X163551771Y-106227229D01*
X162144000Y-106227229D01*
X162027781Y-106249778D01*
X161925635Y-106316877D01*
X161857259Y-106418173D01*
X161833229Y-106538000D01*
X161833229Y-107838000D01*
X161855778Y-107954219D01*
X161861349Y-107962700D01*
X161227451Y-107962700D01*
X161230741Y-107957827D01*
X161254771Y-107838000D01*
X161254771Y-106538000D01*
X161232222Y-106421781D01*
X161165123Y-106319635D01*
X161063827Y-106251259D01*
X160944000Y-106227229D01*
X159444000Y-106227229D01*
X159327781Y-106249778D01*
X159225635Y-106316877D01*
X159157259Y-106418173D01*
X159133229Y-106538000D01*
X159133229Y-106781600D01*
X158918336Y-106781600D01*
X158838900Y-106702164D01*
X158838900Y-105906177D01*
X158864300Y-105911271D01*
X159270700Y-105911271D01*
X159386888Y-105888728D01*
X159499300Y-105911271D01*
X159905700Y-105911271D01*
X160021919Y-105888722D01*
X160124065Y-105821623D01*
X160192441Y-105720327D01*
X160216471Y-105600500D01*
X160216471Y-103949500D01*
X160193922Y-103833281D01*
X160126823Y-103731135D01*
X160025527Y-103662759D01*
X159905700Y-103638729D01*
X159548968Y-103638729D01*
X159638856Y-103548999D01*
X159646578Y-103530400D01*
X161036000Y-103530400D01*
X166892226Y-103530400D01*
X166981818Y-103747229D01*
X166451000Y-103747229D01*
X166334781Y-103769778D01*
X166232635Y-103836877D01*
X166164259Y-103938173D01*
X166140229Y-104058000D01*
X166140229Y-105558000D01*
X166162778Y-105674219D01*
X166229877Y-105776365D01*
X166331173Y-105844741D01*
X166451000Y-105868771D01*
X167051000Y-105868771D01*
X167167219Y-105846222D01*
X167269365Y-105779123D01*
X167337741Y-105677827D01*
X167361771Y-105558000D01*
X167361771Y-104073799D01*
X167410229Y-104093921D01*
X167410229Y-105558000D01*
X167432778Y-105674219D01*
X167499877Y-105776365D01*
X167601173Y-105844741D01*
X167721000Y-105868771D01*
X168321000Y-105868771D01*
X168437219Y-105846222D01*
X168539365Y-105779123D01*
X168607741Y-105677827D01*
X168631771Y-105558000D01*
X168631771Y-104058000D01*
X168609222Y-103941781D01*
X168542123Y-103839635D01*
X168440827Y-103771259D01*
X168321000Y-103747229D01*
X168298013Y-103747229D01*
X168389170Y-103527699D01*
X168389430Y-103229609D01*
X168303812Y-103022400D01*
X168800518Y-103022400D01*
X169014301Y-103111170D01*
X169312391Y-103111430D01*
X169587890Y-102997596D01*
X169798856Y-102786999D01*
X169913170Y-102511699D01*
X169913430Y-102213609D01*
X169827812Y-102006400D01*
X169926000Y-102006400D01*
X170081522Y-101975465D01*
X170081523Y-101975465D01*
X170213368Y-101887368D01*
X170848368Y-101252368D01*
X170936465Y-101120523D01*
X170936465Y-101120522D01*
X170967400Y-100965000D01*
X170967400Y-100448127D01*
X170977219Y-100446222D01*
X171079365Y-100379123D01*
X171147741Y-100277827D01*
X171171771Y-100158000D01*
X171171771Y-98658000D01*
X171149222Y-98541781D01*
X171082123Y-98439635D01*
X170980827Y-98371259D01*
X170861000Y-98347229D01*
X170261000Y-98347229D01*
X170144781Y-98369778D01*
X170042635Y-98436877D01*
X169974259Y-98538173D01*
X169950229Y-98658000D01*
X169950229Y-100158000D01*
X169972778Y-100274219D01*
X170039877Y-100376365D01*
X170141173Y-100444741D01*
X170154600Y-100447433D01*
X170154600Y-100796664D01*
X169877385Y-101073878D01*
X169913170Y-100987699D01*
X169913430Y-100689609D01*
X169799596Y-100414110D01*
X169782371Y-100396855D01*
X169809365Y-100379123D01*
X169877741Y-100277827D01*
X169901771Y-100158000D01*
X169901771Y-98658000D01*
X169879222Y-98541781D01*
X169812123Y-98439635D01*
X169710827Y-98371259D01*
X169591000Y-98347229D01*
X168991000Y-98347229D01*
X168874781Y-98369778D01*
X168772635Y-98436877D01*
X168704259Y-98538173D01*
X168680229Y-98658000D01*
X168680229Y-100158000D01*
X168697162Y-100245276D01*
X168529144Y-100413001D01*
X168414830Y-100688301D01*
X168414570Y-100986391D01*
X168500187Y-101193600D01*
X168148000Y-101193600D01*
X168135209Y-101196144D01*
X168135430Y-100943609D01*
X168127739Y-100924996D01*
X168308368Y-100744368D01*
X168396465Y-100612523D01*
X168396465Y-100612522D01*
X168427400Y-100457000D01*
X168427400Y-100448127D01*
X168437219Y-100446222D01*
X168539365Y-100379123D01*
X168607741Y-100277827D01*
X168631771Y-100158000D01*
X168631771Y-98658000D01*
X168609222Y-98541781D01*
X168542123Y-98439635D01*
X168440827Y-98371259D01*
X168321000Y-98347229D01*
X167721000Y-98347229D01*
X167604781Y-98369778D01*
X167502635Y-98436877D01*
X167434259Y-98538173D01*
X167410229Y-98658000D01*
X167410229Y-100158000D01*
X167432778Y-100274219D01*
X167477814Y-100342779D01*
X167294005Y-100342619D01*
X167337741Y-100277827D01*
X167361771Y-100158000D01*
X167361771Y-98658000D01*
X167339222Y-98541781D01*
X167272123Y-98439635D01*
X167170827Y-98371259D01*
X167157400Y-98368566D01*
X167157400Y-98085336D01*
X167300336Y-97942400D01*
X175599663Y-97942400D01*
X176425363Y-98768100D01*
X176189649Y-99120873D01*
X176100710Y-99568000D01*
X176189649Y-100015127D01*
X176442926Y-100394184D01*
X176821983Y-100647461D01*
X177269110Y-100736400D01*
X177314890Y-100736400D01*
X177762017Y-100647461D01*
X178141074Y-100394184D01*
X178394351Y-100015127D01*
X178483290Y-99568000D01*
X178394351Y-99120873D01*
X178141074Y-98741816D01*
X177762017Y-98488539D01*
X177314890Y-98399600D01*
X177269110Y-98399600D01*
X177216751Y-98410014D01*
X176055368Y-97248632D01*
X175923523Y-97160535D01*
X175768000Y-97129600D01*
X167132000Y-97129600D01*
X166976477Y-97160535D01*
X166844632Y-97248632D01*
X166463632Y-97629632D01*
X166375535Y-97761477D01*
X166344600Y-97917000D01*
X166344600Y-98367872D01*
X166334781Y-98369778D01*
X166232635Y-98436877D01*
X166164259Y-98538173D01*
X166140229Y-98658000D01*
X166140229Y-100158000D01*
X166162778Y-100274219D01*
X166229877Y-100376365D01*
X166331173Y-100444741D01*
X166451000Y-100468771D01*
X166949721Y-100468771D01*
X166751144Y-100667001D01*
X166636830Y-100942301D01*
X166636570Y-101240391D01*
X166750404Y-101515890D01*
X166935789Y-101701600D01*
X166624000Y-101701600D01*
X166357430Y-101701600D01*
X166357430Y-100689609D01*
X166243596Y-100414110D01*
X166074400Y-100244618D01*
X166091771Y-100158000D01*
X166091771Y-98658000D01*
X166069222Y-98541781D01*
X166002123Y-98439635D01*
X165900827Y-98371259D01*
X165781000Y-98347229D01*
X165181000Y-98347229D01*
X165064781Y-98369778D01*
X164964800Y-98435454D01*
X164964800Y-97738629D01*
X164964800Y-97617372D01*
X164964800Y-97193100D01*
X164888600Y-97116900D01*
X163998900Y-97116900D01*
X163998900Y-97906600D01*
X164075100Y-97982800D01*
X164720628Y-97982800D01*
X164832655Y-97936397D01*
X164918397Y-97850656D01*
X164964800Y-97738629D01*
X164964800Y-98435454D01*
X164962635Y-98436877D01*
X164894259Y-98538173D01*
X164870229Y-98658000D01*
X164870229Y-100158000D01*
X164892778Y-100274219D01*
X164959877Y-100376365D01*
X164989686Y-100396487D01*
X164973144Y-100413001D01*
X164972951Y-100413464D01*
X164804400Y-100244618D01*
X164821771Y-100158000D01*
X164821771Y-98658000D01*
X164799222Y-98541781D01*
X164732123Y-98439635D01*
X164630827Y-98371259D01*
X164511000Y-98347229D01*
X163911000Y-98347229D01*
X163821100Y-98364671D01*
X163821100Y-97906600D01*
X163821100Y-97116900D01*
X162931400Y-97116900D01*
X162855200Y-97193100D01*
X162855200Y-97617372D01*
X162855200Y-97738629D01*
X162901603Y-97850656D01*
X162987345Y-97936397D01*
X163099372Y-97982800D01*
X163744900Y-97982800D01*
X163821100Y-97906600D01*
X163821100Y-98364671D01*
X163794781Y-98369778D01*
X163692635Y-98436877D01*
X163624259Y-98538173D01*
X163600229Y-98658000D01*
X163600229Y-100158000D01*
X163622778Y-100274219D01*
X163689877Y-100376365D01*
X163719686Y-100396487D01*
X163703144Y-100413001D01*
X163588830Y-100688301D01*
X163588570Y-100986391D01*
X163702404Y-101261890D01*
X163913001Y-101472856D01*
X164188301Y-101587170D01*
X164486391Y-101587430D01*
X164761890Y-101473596D01*
X164972856Y-101262999D01*
X164973048Y-101262535D01*
X165183001Y-101472856D01*
X165458301Y-101587170D01*
X165756391Y-101587430D01*
X166031890Y-101473596D01*
X166242856Y-101262999D01*
X166357170Y-100987699D01*
X166357430Y-100689609D01*
X166357430Y-101701600D01*
X163545800Y-101701600D01*
X163545800Y-100218628D01*
X163545800Y-99573100D01*
X163545800Y-99242900D01*
X163545800Y-98597372D01*
X163499397Y-98485345D01*
X163413656Y-98399603D01*
X163301629Y-98353200D01*
X163180372Y-98353200D01*
X163106100Y-98353200D01*
X163029900Y-98429400D01*
X163029900Y-99319100D01*
X163469600Y-99319100D01*
X163545800Y-99242900D01*
X163545800Y-99573100D01*
X163469600Y-99496900D01*
X163029900Y-99496900D01*
X163029900Y-100386600D01*
X163106100Y-100462800D01*
X163180372Y-100462800D01*
X163301629Y-100462800D01*
X163413656Y-100416397D01*
X163499397Y-100330655D01*
X163545800Y-100218628D01*
X163545800Y-101701600D01*
X162852100Y-101701600D01*
X162852100Y-100386600D01*
X162852100Y-99496900D01*
X162852100Y-99319100D01*
X162852100Y-98429400D01*
X162775900Y-98353200D01*
X162701628Y-98353200D01*
X162580371Y-98353200D01*
X162468344Y-98399603D01*
X162382603Y-98485345D01*
X162336200Y-98597372D01*
X162336200Y-99242900D01*
X162412400Y-99319100D01*
X162852100Y-99319100D01*
X162852100Y-99496900D01*
X162412400Y-99496900D01*
X162336200Y-99573100D01*
X162336200Y-100218628D01*
X162382603Y-100330655D01*
X162468344Y-100416397D01*
X162580371Y-100462800D01*
X162701628Y-100462800D01*
X162775900Y-100462800D01*
X162852100Y-100386600D01*
X162852100Y-101701600D01*
X160950336Y-101701600D01*
X160108900Y-100860163D01*
X160108900Y-100497584D01*
X160124065Y-100487623D01*
X160192441Y-100386327D01*
X160216471Y-100266500D01*
X160216471Y-98615500D01*
X160193922Y-98499281D01*
X160161812Y-98450400D01*
X160794788Y-98450400D01*
X160794570Y-98700391D01*
X160908404Y-98975890D01*
X161119001Y-99186856D01*
X161394301Y-99301170D01*
X161692391Y-99301430D01*
X161967890Y-99187596D01*
X162178856Y-98976999D01*
X162293170Y-98701699D01*
X162293430Y-98403609D01*
X162179596Y-98128110D01*
X162027438Y-97975686D01*
X162076219Y-97966222D01*
X162178365Y-97899123D01*
X162246741Y-97797827D01*
X162270771Y-97678000D01*
X162270771Y-96378000D01*
X162248222Y-96261781D01*
X162242650Y-96253300D01*
X162881739Y-96253300D01*
X162855200Y-96317371D01*
X162855200Y-96438628D01*
X162855200Y-96862900D01*
X162931400Y-96939100D01*
X163821100Y-96939100D01*
X163821100Y-96919100D01*
X163998900Y-96919100D01*
X163998900Y-96939100D01*
X164888600Y-96939100D01*
X164964800Y-96862900D01*
X164964800Y-96438628D01*
X164964800Y-96317371D01*
X164938260Y-96253300D01*
X178828700Y-96253300D01*
X178828700Y-107962700D01*
M02*
