G04 #@! TF.GenerationSoftware,KiCad,Pcbnew,(5.1.10)-1*
G04 #@! TF.CreationDate,2021-10-22T12:58:50-04:00*
G04 #@! TF.ProjectId,SSB6,53534236-2e6b-4696-9361-645f70636258,1*
G04 #@! TF.SameCoordinates,PX8c7ecc0PY46649b0*
G04 #@! TF.FileFunction,Copper,L1,Top*
G04 #@! TF.FilePolarity,Positive*
%FSLAX46Y46*%
G04 Gerber Fmt 4.6, Leading zero omitted, Abs format (unit mm)*
G04 Created by KiCad (PCBNEW (5.1.10)-1) date 2021-10-22 12:58:50*
%MOMM*%
%LPD*%
G01*
G04 APERTURE LIST*
G04 #@! TA.AperFunction,ComponentPad*
%ADD10O,3.302000X1.651000*%
G04 #@! TD*
G04 #@! TA.AperFunction,ComponentPad*
%ADD11C,1.651000*%
G04 #@! TD*
G04 #@! TA.AperFunction,ComponentPad*
%ADD12C,1.574800*%
G04 #@! TD*
G04 #@! TA.AperFunction,ComponentPad*
%ADD13C,6.350000*%
G04 #@! TD*
G04 #@! TA.AperFunction,ComponentPad*
%ADD14C,1.600000*%
G04 #@! TD*
G04 #@! TA.AperFunction,ComponentPad*
%ADD15C,1.500000*%
G04 #@! TD*
G04 #@! TA.AperFunction,ComponentPad*
%ADD16C,3.000000*%
G04 #@! TD*
G04 #@! TA.AperFunction,SMDPad,CuDef*
%ADD17R,5.080000X2.286000*%
G04 #@! TD*
G04 #@! TA.AperFunction,SMDPad,CuDef*
%ADD18R,5.080000X2.413000*%
G04 #@! TD*
G04 #@! TA.AperFunction,ComponentPad*
%ADD19R,1.700000X1.700000*%
G04 #@! TD*
G04 #@! TA.AperFunction,ViaPad*
%ADD20C,0.889000*%
G04 #@! TD*
G04 #@! TA.AperFunction,ViaPad*
%ADD21C,1.397000*%
G04 #@! TD*
G04 #@! TA.AperFunction,ViaPad*
%ADD22C,1.676400*%
G04 #@! TD*
G04 #@! TA.AperFunction,Conductor*
%ADD23C,0.635000*%
G04 #@! TD*
G04 #@! TA.AperFunction,Conductor*
%ADD24C,0.254000*%
G04 #@! TD*
G04 #@! TA.AperFunction,Conductor*
%ADD25C,0.150000*%
G04 #@! TD*
G04 APERTURE END LIST*
D10*
X-44430000Y-10020000D03*
X-44430000Y140000D03*
D11*
X-49510000Y-2400000D03*
D12*
X-49510000Y-4940000D03*
D10*
X-105390000Y140000D03*
X-105390000Y-10020000D03*
D11*
X-100310000Y-7480000D03*
D12*
X-100310000Y-4940000D03*
D13*
X-93960000Y-11290000D03*
D14*
X-92436000Y22238000D03*
X-87436000Y22238000D03*
X-92356000Y15634000D03*
X-87356000Y15634000D03*
X-87356000Y-6972000D03*
X-87356000Y-1972000D03*
X-75672000Y14618000D03*
X-75672000Y19618000D03*
X-70164000Y-3162000D03*
X-75164000Y-3162000D03*
X-70164000Y-8496000D03*
X-75164000Y-8496000D03*
X-64576000Y15634000D03*
X-69576000Y15634000D03*
X-64496000Y21222000D03*
X-69496000Y21222000D03*
X-63734000Y-8750000D03*
X-58734000Y-8750000D03*
X-63734000Y-3162000D03*
X-58734000Y-3162000D03*
X-58146000Y20380000D03*
X-58146000Y15380000D03*
D15*
X-87356000Y8776000D03*
X-87356000Y3896000D03*
X-75672000Y8776000D03*
X-75672000Y3896000D03*
X-69830000Y3896000D03*
X-69830000Y8776000D03*
X-63988000Y8776000D03*
X-63988000Y3896000D03*
X-58146000Y8830000D03*
X-58146000Y3950000D03*
X-81514000Y3950000D03*
X-81514000Y8830000D03*
D16*
X-112261000Y15911000D03*
X-97661000Y15911000D03*
X-107961000Y22411000D03*
X-107961000Y9411000D03*
X-101961000Y22411000D03*
X-101961000Y9411000D03*
X-50526000Y13602000D03*
X-37526000Y13602000D03*
X-50526000Y19602000D03*
X-37526000Y19602000D03*
X-44026000Y9302000D03*
X-44026000Y23902000D03*
D17*
X-111105000Y-4889200D03*
D18*
X-111105000Y-9207200D03*
X-111105000Y-571200D03*
X-38715000Y-9232600D03*
X-38715000Y-596600D03*
D17*
X-38715000Y-4914600D03*
D19*
X-92055000Y6109000D03*
X-53193000Y6109000D03*
D20*
X-111613000Y25159000D03*
X-99040000Y25159000D03*
D21*
X-84308000Y25794000D03*
X-66274000Y25413000D03*
D20*
X-54463000Y25413000D03*
X-39604000Y25540000D03*
X-39604000Y-16116000D03*
D21*
X-54336000Y-1638000D03*
X-95103000Y-495000D03*
D22*
X-54209000Y-14211000D03*
D20*
X-99040000Y-16624000D03*
X-111486000Y-16624000D03*
X-111613000Y5855000D03*
X-82276000Y14364000D03*
X-90912000Y25794000D03*
X-48494000Y24524000D03*
X-80498000Y-12052000D03*
X-106914000Y-16624000D03*
X-54336000Y-9258000D03*
D23*
X-87356000Y-1972000D02*
X-87356000Y3642000D01*
X-81822000Y3642000D02*
X-81514000Y3950000D01*
X-87356000Y3642000D02*
X-81822000Y3642000D01*
X-92356000Y22158000D02*
X-92436000Y22238000D01*
X-92356000Y15634000D02*
X-92356000Y22158000D01*
X-101788000Y22238000D02*
X-101961000Y22411000D01*
X-92436000Y22238000D02*
X-101788000Y22238000D01*
X-87356000Y15634000D02*
X-87356000Y8522000D01*
X-75726000Y8830000D02*
X-75672000Y8776000D01*
X-81514000Y8830000D02*
X-75726000Y8830000D01*
X-75672000Y14618000D02*
X-75672000Y8776000D01*
X-70164000Y3562000D02*
X-69830000Y3896000D01*
X-70164000Y-3162000D02*
X-70164000Y3562000D01*
X-70164000Y-3162000D02*
X-70164000Y-8496000D01*
X-75672000Y-2654000D02*
X-75164000Y-3162000D01*
X-75672000Y3896000D02*
X-75672000Y-2654000D01*
X-63988000Y15046000D02*
X-64576000Y15634000D01*
X-63988000Y8776000D02*
X-63988000Y15046000D01*
X-64576000Y21142000D02*
X-64496000Y21222000D01*
X-64576000Y15634000D02*
X-64576000Y21142000D01*
X-69830000Y15380000D02*
X-69576000Y15634000D01*
X-69830000Y8776000D02*
X-69830000Y15380000D01*
X-63988000Y-2908000D02*
X-63734000Y-3162000D01*
X-63988000Y3896000D02*
X-63988000Y-2908000D01*
X-63734000Y-3162000D02*
X-63734000Y-8750000D01*
X-58734000Y3362000D02*
X-58146000Y3950000D01*
X-58734000Y-3162000D02*
X-58734000Y3362000D01*
X-58146000Y8576000D02*
X-58146000Y15380000D01*
X-52304000Y15380000D02*
X-50526000Y13602000D01*
X-58146000Y15380000D02*
X-52304000Y15380000D01*
X-111105000Y-4940000D02*
X-100310000Y-4940000D01*
X-100310000Y1760000D02*
X-107961000Y9411000D01*
X-100310000Y-4940000D02*
X-100310000Y1760000D01*
X-101461000Y15911000D02*
X-107961000Y9411000D01*
X-97661000Y15911000D02*
X-101461000Y15911000D01*
X-38207000Y-4940000D02*
X-38080000Y-4813000D01*
X-44026000Y13102000D02*
X-50526000Y19602000D01*
X-44026000Y9302000D02*
X-44026000Y13102000D01*
X-44026000Y9302000D02*
X-44026000Y6259000D01*
X-46970000Y3315000D02*
X-46970000Y-4940000D01*
X-44026000Y6259000D02*
X-46970000Y3315000D01*
X-46970000Y-4940000D02*
X-49510000Y-4940000D01*
X-39350000Y-4940000D02*
X-46970000Y-4940000D01*
D24*
X-35451100Y14125269D02*
X-35560757Y14462383D01*
X-35718786Y14758038D01*
X-36034347Y14914048D01*
X-37346395Y13602000D01*
X-36034347Y12289952D01*
X-35718786Y12445962D01*
X-35527980Y12820745D01*
X-35451100Y13093684D01*
X-35451100Y5766100D01*
X-36171972Y5766100D01*
X-36199681Y5768864D01*
X-36228112Y5766100D01*
X-36228474Y5766100D01*
X-36256208Y5763369D01*
X-36311728Y5757971D01*
X-36312074Y5757866D01*
X-36312434Y5757831D01*
X-36366049Y5741567D01*
X-36419496Y5725427D01*
X-36419814Y5725258D01*
X-36420162Y5725152D01*
X-36469842Y5698597D01*
X-36518846Y5672483D01*
X-36519123Y5672256D01*
X-36519445Y5672084D01*
X-36563151Y5636216D01*
X-36605957Y5601175D01*
X-36606184Y5600900D01*
X-36606467Y5600667D01*
X-36642204Y5557121D01*
X-36677483Y5514243D01*
X-36677652Y5513928D01*
X-36677884Y5513645D01*
X-36704485Y5463878D01*
X-36730676Y5415026D01*
X-36730781Y5414683D01*
X-36730952Y5414362D01*
X-36747274Y5360555D01*
X-36763490Y5307339D01*
X-36763526Y5306981D01*
X-36763631Y5306634D01*
X-36769142Y5250679D01*
X-36771864Y5223390D01*
X-36771864Y5223036D01*
X-36774665Y5194600D01*
X-36771935Y5166879D01*
X-36776847Y1247152D01*
X-38429250Y1244900D01*
X-38588000Y1086150D01*
X-38588000Y-469600D01*
X-38568000Y-469600D01*
X-38568000Y-723600D01*
X-38588000Y-723600D01*
X-38588000Y-2279350D01*
X-38429250Y-2438100D01*
X-36781468Y-2440346D01*
X-36782656Y-3388757D01*
X-41255000Y-3388757D01*
X-41329689Y-3396113D01*
X-41401508Y-3417899D01*
X-41467696Y-3453278D01*
X-41525711Y-3500889D01*
X-41573322Y-3558904D01*
X-41608701Y-3625092D01*
X-41630487Y-3696911D01*
X-41637843Y-3771600D01*
X-41637843Y-4241500D01*
X-46271500Y-4241500D01*
X-46271500Y-1803100D01*
X-41893072Y-1803100D01*
X-41880812Y-1927582D01*
X-41844502Y-2047280D01*
X-41785537Y-2157594D01*
X-41706185Y-2254285D01*
X-41609494Y-2333637D01*
X-41499180Y-2392602D01*
X-41379482Y-2428912D01*
X-41255000Y-2441172D01*
X-39000750Y-2438100D01*
X-38842000Y-2279350D01*
X-38842000Y-723600D01*
X-41731250Y-723600D01*
X-41890000Y-882350D01*
X-41893072Y-1803100D01*
X-46271500Y-1803100D01*
X-46271500Y-518610D01*
X-46263521Y-533538D01*
X-46112752Y-717252D01*
X-45929038Y-868021D01*
X-45719441Y-980053D01*
X-45492015Y-1049042D01*
X-45314763Y-1066500D01*
X-43545237Y-1066500D01*
X-43367985Y-1049042D01*
X-43140559Y-980053D01*
X-42930962Y-868021D01*
X-42747248Y-717252D01*
X-42596479Y-533538D01*
X-42484447Y-323941D01*
X-42415458Y-96515D01*
X-42392163Y140000D01*
X-42415458Y376515D01*
X-42484447Y603941D01*
X-42487632Y609900D01*
X-41893072Y609900D01*
X-41890000Y-310850D01*
X-41731250Y-469600D01*
X-38842000Y-469600D01*
X-38842000Y1086150D01*
X-39000750Y1244900D01*
X-41255000Y1247972D01*
X-41379482Y1235712D01*
X-41499180Y1199402D01*
X-41609494Y1140437D01*
X-41706185Y1061085D01*
X-41785537Y964394D01*
X-41844502Y854080D01*
X-41880812Y734382D01*
X-41893072Y609900D01*
X-42487632Y609900D01*
X-42596479Y813538D01*
X-42747248Y997252D01*
X-42930962Y1148021D01*
X-43140559Y1260053D01*
X-43367985Y1329042D01*
X-43545237Y1346500D01*
X-45314763Y1346500D01*
X-45492015Y1329042D01*
X-45719441Y1260053D01*
X-45929038Y1148021D01*
X-46112752Y997252D01*
X-46263521Y813538D01*
X-46271500Y798610D01*
X-46271500Y3025673D01*
X-43556343Y5740829D01*
X-43529697Y5762697D01*
X-43507829Y5789343D01*
X-43507826Y5789346D01*
X-43442409Y5869056D01*
X-43377549Y5990402D01*
X-43377548Y5990403D01*
X-43337607Y6122070D01*
X-43327500Y6224691D01*
X-43327500Y6224702D01*
X-43324122Y6259000D01*
X-43327500Y6293298D01*
X-43327500Y7555349D01*
X-43135013Y7635080D01*
X-42826933Y7840932D01*
X-42564932Y8102933D01*
X-42359080Y8411013D01*
X-42217286Y8753333D01*
X-42145000Y9116738D01*
X-42145000Y9487262D01*
X-42217286Y9850667D01*
X-42359080Y10192987D01*
X-42564932Y10501067D01*
X-42826933Y10763068D01*
X-43135013Y10968920D01*
X-43327500Y11048651D01*
X-43327500Y12110347D01*
X-38838048Y12110347D01*
X-38682038Y11794786D01*
X-38307255Y11603980D01*
X-37902449Y11489956D01*
X-37483176Y11457098D01*
X-37065549Y11506666D01*
X-36665617Y11636757D01*
X-36369962Y11794786D01*
X-36213952Y12110347D01*
X-37526000Y13422395D01*
X-38838048Y12110347D01*
X-43327500Y12110347D01*
X-43327500Y13067703D01*
X-43324122Y13102001D01*
X-43327500Y13136299D01*
X-43327500Y13136309D01*
X-43337607Y13238930D01*
X-43377548Y13370597D01*
X-43402211Y13416738D01*
X-43442409Y13491944D01*
X-43497584Y13559176D01*
X-39670902Y13559176D01*
X-39621334Y13141549D01*
X-39491243Y12741617D01*
X-39333214Y12445962D01*
X-39017653Y12289952D01*
X-37705605Y13602000D01*
X-39017653Y14914048D01*
X-39333214Y14758038D01*
X-39524020Y14383255D01*
X-39638044Y13978449D01*
X-39670902Y13559176D01*
X-43497584Y13559176D01*
X-43507826Y13571655D01*
X-43507834Y13571663D01*
X-43529697Y13598303D01*
X-43556337Y13620166D01*
X-45029824Y15093653D01*
X-38838048Y15093653D01*
X-37526000Y13781605D01*
X-36213952Y15093653D01*
X-36369962Y15409214D01*
X-36744745Y15600020D01*
X-37149551Y15714044D01*
X-37568824Y15746902D01*
X-37986451Y15697334D01*
X-38386383Y15567243D01*
X-38682038Y15409214D01*
X-38838048Y15093653D01*
X-45029824Y15093653D01*
X-48797017Y18860845D01*
X-48717286Y19053333D01*
X-48645000Y19416738D01*
X-48645000Y19787262D01*
X-39407000Y19787262D01*
X-39407000Y19416738D01*
X-39334714Y19053333D01*
X-39192920Y18711013D01*
X-38987068Y18402933D01*
X-38725067Y18140932D01*
X-38416987Y17935080D01*
X-38074667Y17793286D01*
X-37711262Y17721000D01*
X-37340738Y17721000D01*
X-36977333Y17793286D01*
X-36635013Y17935080D01*
X-36326933Y18140932D01*
X-36064932Y18402933D01*
X-35859080Y18711013D01*
X-35717286Y19053333D01*
X-35645000Y19416738D01*
X-35645000Y19787262D01*
X-35717286Y20150667D01*
X-35859080Y20492987D01*
X-36064932Y20801067D01*
X-36326933Y21063068D01*
X-36635013Y21268920D01*
X-36977333Y21410714D01*
X-37340738Y21483000D01*
X-37711262Y21483000D01*
X-38074667Y21410714D01*
X-38416987Y21268920D01*
X-38725067Y21063068D01*
X-38987068Y20801067D01*
X-39192920Y20492987D01*
X-39334714Y20150667D01*
X-39407000Y19787262D01*
X-48645000Y19787262D01*
X-48717286Y20150667D01*
X-48859080Y20492987D01*
X-49064932Y20801067D01*
X-49326933Y21063068D01*
X-49635013Y21268920D01*
X-49977333Y21410714D01*
X-50340738Y21483000D01*
X-50711262Y21483000D01*
X-51074667Y21410714D01*
X-51416987Y21268920D01*
X-51725067Y21063068D01*
X-51987068Y20801067D01*
X-52192920Y20492987D01*
X-52334714Y20150667D01*
X-52407000Y19787262D01*
X-52407000Y19416738D01*
X-52334714Y19053333D01*
X-52192920Y18711013D01*
X-51987068Y18402933D01*
X-51725067Y18140932D01*
X-51416987Y17935080D01*
X-51074667Y17793286D01*
X-50711262Y17721000D01*
X-50340738Y17721000D01*
X-49977333Y17793286D01*
X-49784845Y17873017D01*
X-44724499Y12812670D01*
X-44724500Y11048651D01*
X-44916987Y10968920D01*
X-45225067Y10763068D01*
X-45487068Y10501067D01*
X-45692920Y10192987D01*
X-45834714Y9850667D01*
X-45907000Y9487262D01*
X-45907000Y9116738D01*
X-45834714Y8753333D01*
X-45692920Y8411013D01*
X-45487068Y8102933D01*
X-45225067Y7840932D01*
X-44916987Y7635080D01*
X-44724499Y7555349D01*
X-44724499Y6548329D01*
X-47439656Y3833171D01*
X-47466303Y3811302D01*
X-47488171Y3784656D01*
X-47488174Y3784653D01*
X-47553591Y3704943D01*
X-47595038Y3627401D01*
X-47618452Y3583596D01*
X-47658393Y3451929D01*
X-47668500Y3349308D01*
X-47668500Y3349298D01*
X-47671878Y3315000D01*
X-47668500Y3280702D01*
X-47668499Y-4241500D01*
X-48571501Y-4241500D01*
X-48602445Y-4195189D01*
X-48765189Y-4032445D01*
X-48956555Y-3904578D01*
X-49153034Y-3823193D01*
X-48884804Y-3727737D01*
X-48753367Y-3657481D01*
X-48678696Y-3410909D01*
X-49510000Y-2579605D01*
X-50341304Y-3410909D01*
X-50266633Y-3657481D01*
X-50006772Y-3780931D01*
X-49856482Y-3818850D01*
X-50063445Y-3904578D01*
X-50254811Y-4032445D01*
X-50417555Y-4195189D01*
X-50545422Y-4386555D01*
X-50633499Y-4599190D01*
X-50678400Y-4824923D01*
X-50678400Y-5055077D01*
X-50633499Y-5280810D01*
X-50545422Y-5493445D01*
X-50417555Y-5684811D01*
X-50254811Y-5847555D01*
X-50063445Y-5975422D01*
X-49850810Y-6063499D01*
X-49625077Y-6108400D01*
X-49394923Y-6108400D01*
X-49169190Y-6063499D01*
X-48956555Y-5975422D01*
X-48765189Y-5847555D01*
X-48602445Y-5684811D01*
X-48571501Y-5638500D01*
X-47004308Y-5638500D01*
X-46970000Y-5641879D01*
X-46935691Y-5638500D01*
X-41637843Y-5638500D01*
X-41637843Y-6057600D01*
X-41630487Y-6132289D01*
X-41608701Y-6204108D01*
X-41573322Y-6270296D01*
X-41525711Y-6328311D01*
X-41467696Y-6375922D01*
X-41401508Y-6411301D01*
X-41329689Y-6433087D01*
X-41255000Y-6440443D01*
X-36786480Y-6440443D01*
X-36787669Y-7388863D01*
X-38429250Y-7391100D01*
X-38588000Y-7549850D01*
X-38588000Y-9105600D01*
X-38568000Y-9105600D01*
X-38568000Y-9359600D01*
X-38588000Y-9359600D01*
X-38588000Y-10915350D01*
X-38429250Y-11074100D01*
X-36792289Y-11076331D01*
X-36797264Y-15046161D01*
X-36800065Y-15074600D01*
X-36794514Y-15130966D01*
X-36789170Y-15185928D01*
X-36789067Y-15186269D01*
X-36789031Y-15186634D01*
X-36772545Y-15240981D01*
X-36756626Y-15293696D01*
X-36756459Y-15294010D01*
X-36756352Y-15294362D01*
X-36729635Y-15344347D01*
X-36703683Y-15393046D01*
X-36703456Y-15393323D01*
X-36703284Y-15393645D01*
X-36667416Y-15437351D01*
X-36632375Y-15480157D01*
X-36632100Y-15480384D01*
X-36631867Y-15480667D01*
X-36588117Y-15516571D01*
X-36545443Y-15551683D01*
X-36545128Y-15551852D01*
X-36544845Y-15552084D01*
X-36495078Y-15578685D01*
X-36446226Y-15604876D01*
X-36445883Y-15604981D01*
X-36445562Y-15605152D01*
X-36391755Y-15621474D01*
X-36338539Y-15637690D01*
X-36338181Y-15637726D01*
X-36337834Y-15637831D01*
X-36281860Y-15643344D01*
X-36226519Y-15648864D01*
X-36198091Y-15646100D01*
X-35478035Y-15646100D01*
X-35484968Y-18229372D01*
X-114343500Y-18211629D01*
X-114343500Y-13131500D01*
X-113673074Y-13131500D01*
X-113645000Y-13134265D01*
X-113616926Y-13131500D01*
X-113532966Y-13123231D01*
X-113425238Y-13090552D01*
X-113325955Y-13037484D01*
X-113238933Y-12966067D01*
X-113167516Y-12879045D01*
X-113114448Y-12779762D01*
X-113081769Y-12672034D01*
X-113070735Y-12560000D01*
X-113073500Y-12531926D01*
X-113073500Y-11050993D01*
X-111390750Y-11048700D01*
X-111232000Y-10889950D01*
X-111232000Y-9334200D01*
X-110978000Y-9334200D01*
X-110978000Y-10889950D01*
X-110819250Y-11048700D01*
X-108565000Y-11051772D01*
X-108440518Y-11039512D01*
X-108320820Y-11003202D01*
X-108210506Y-10944237D01*
X-108113815Y-10864885D01*
X-108034463Y-10768194D01*
X-107975498Y-10657880D01*
X-107939188Y-10538182D01*
X-107926928Y-10413700D01*
X-107928241Y-10020000D01*
X-107427837Y-10020000D01*
X-107404542Y-10256515D01*
X-107335553Y-10483941D01*
X-107223521Y-10693538D01*
X-107072752Y-10877252D01*
X-106889038Y-11028021D01*
X-106679441Y-11140053D01*
X-106452015Y-11209042D01*
X-106274763Y-11226500D01*
X-104505237Y-11226500D01*
X-104327985Y-11209042D01*
X-104100559Y-11140053D01*
X-103890962Y-11028021D01*
X-103783421Y-10939765D01*
X-97516000Y-10939765D01*
X-97516000Y-11640235D01*
X-97379345Y-12327247D01*
X-97111286Y-12974398D01*
X-96722126Y-13556818D01*
X-96226818Y-14052126D01*
X-95644398Y-14441286D01*
X-94997247Y-14709345D01*
X-94310235Y-14846000D01*
X-93609765Y-14846000D01*
X-92922753Y-14709345D01*
X-92275602Y-14441286D01*
X-91693182Y-14052126D01*
X-91197874Y-13556818D01*
X-90808714Y-12974398D01*
X-90540655Y-12327247D01*
X-90404000Y-11640235D01*
X-90404000Y-10939765D01*
X-90540655Y-10252753D01*
X-90808714Y-9605602D01*
X-90886823Y-9488702D01*
X-75977097Y-9488702D01*
X-75905514Y-9732671D01*
X-75650004Y-9853571D01*
X-75375816Y-9922300D01*
X-75093488Y-9936217D01*
X-74813870Y-9894787D01*
X-74547708Y-9799603D01*
X-74422486Y-9732671D01*
X-74350903Y-9488702D01*
X-75164000Y-8675605D01*
X-75977097Y-9488702D01*
X-90886823Y-9488702D01*
X-91197874Y-9023182D01*
X-91654544Y-8566512D01*
X-76604217Y-8566512D01*
X-76562787Y-8846130D01*
X-76467603Y-9112292D01*
X-76400671Y-9237514D01*
X-76156702Y-9309097D01*
X-75343605Y-8496000D01*
X-74984395Y-8496000D01*
X-74171298Y-9309097D01*
X-73927329Y-9237514D01*
X-73806429Y-8982004D01*
X-73737700Y-8707816D01*
X-73723783Y-8425488D01*
X-73765213Y-8145870D01*
X-73860397Y-7879708D01*
X-73927329Y-7754486D01*
X-74171298Y-7682903D01*
X-74984395Y-8496000D01*
X-75343605Y-8496000D01*
X-76156702Y-7682903D01*
X-76400671Y-7754486D01*
X-76521571Y-8009996D01*
X-76590300Y-8284184D01*
X-76604217Y-8566512D01*
X-91654544Y-8566512D01*
X-91693182Y-8527874D01*
X-92275602Y-8138714D01*
X-92695703Y-7964702D01*
X-88169097Y-7964702D01*
X-88097514Y-8208671D01*
X-87842004Y-8329571D01*
X-87567816Y-8398300D01*
X-87285488Y-8412217D01*
X-87005870Y-8370787D01*
X-86739708Y-8275603D01*
X-86614486Y-8208671D01*
X-86542903Y-7964702D01*
X-87356000Y-7151605D01*
X-88169097Y-7964702D01*
X-92695703Y-7964702D01*
X-92922753Y-7870655D01*
X-93609765Y-7734000D01*
X-94310235Y-7734000D01*
X-94997247Y-7870655D01*
X-95644398Y-8138714D01*
X-96226818Y-8527874D01*
X-96722126Y-9023182D01*
X-97111286Y-9605602D01*
X-97379345Y-10252753D01*
X-97516000Y-10939765D01*
X-103783421Y-10939765D01*
X-103707248Y-10877252D01*
X-103556479Y-10693538D01*
X-103444447Y-10483941D01*
X-103375458Y-10256515D01*
X-103352163Y-10020000D01*
X-103375458Y-9783485D01*
X-103444447Y-9556059D01*
X-103556479Y-9346462D01*
X-103707248Y-9162748D01*
X-103890962Y-9011979D01*
X-104100559Y-8899947D01*
X-104327985Y-8830958D01*
X-104505237Y-8813500D01*
X-106274763Y-8813500D01*
X-106452015Y-8830958D01*
X-106679441Y-8899947D01*
X-106889038Y-9011979D01*
X-107072752Y-9162748D01*
X-107223521Y-9346462D01*
X-107335553Y-9556059D01*
X-107404542Y-9783485D01*
X-107427837Y-10020000D01*
X-107928241Y-10020000D01*
X-107930000Y-9492950D01*
X-108088750Y-9334200D01*
X-110978000Y-9334200D01*
X-111232000Y-9334200D01*
X-111252000Y-9334200D01*
X-111252000Y-9080200D01*
X-111232000Y-9080200D01*
X-111232000Y-7524450D01*
X-110978000Y-7524450D01*
X-110978000Y-9080200D01*
X-108088750Y-9080200D01*
X-107930000Y-8921450D01*
X-107928564Y-8490909D01*
X-101141304Y-8490909D01*
X-101066633Y-8737481D01*
X-100806772Y-8860931D01*
X-100527820Y-8931313D01*
X-100240498Y-8945921D01*
X-99955846Y-8904194D01*
X-99684804Y-8807737D01*
X-99553367Y-8737481D01*
X-99478696Y-8490909D01*
X-100310000Y-7659605D01*
X-101141304Y-8490909D01*
X-107928564Y-8490909D01*
X-107926928Y-8000700D01*
X-107939188Y-7876218D01*
X-107975498Y-7756520D01*
X-108034463Y-7646206D01*
X-108113815Y-7549515D01*
X-108113830Y-7549502D01*
X-101775921Y-7549502D01*
X-101734194Y-7834154D01*
X-101637737Y-8105196D01*
X-101567481Y-8236633D01*
X-101320909Y-8311304D01*
X-100489605Y-7480000D01*
X-100130395Y-7480000D01*
X-99299091Y-8311304D01*
X-99052519Y-8236633D01*
X-98929069Y-7976772D01*
X-98858687Y-7697820D01*
X-98844079Y-7410498D01*
X-98885806Y-7125846D01*
X-98915462Y-7042512D01*
X-88796217Y-7042512D01*
X-88754787Y-7322130D01*
X-88659603Y-7588292D01*
X-88592671Y-7713514D01*
X-88348702Y-7785097D01*
X-87535605Y-6972000D01*
X-87176395Y-6972000D01*
X-86363298Y-7785097D01*
X-86119329Y-7713514D01*
X-86019861Y-7503298D01*
X-75977097Y-7503298D01*
X-75164000Y-8316395D01*
X-74350903Y-7503298D01*
X-74422486Y-7259329D01*
X-74677996Y-7138429D01*
X-74952184Y-7069700D01*
X-75234512Y-7055783D01*
X-75514130Y-7097213D01*
X-75780292Y-7192397D01*
X-75905514Y-7259329D01*
X-75977097Y-7503298D01*
X-86019861Y-7503298D01*
X-85998429Y-7458004D01*
X-85929700Y-7183816D01*
X-85915783Y-6901488D01*
X-85957213Y-6621870D01*
X-86052397Y-6355708D01*
X-86119329Y-6230486D01*
X-86363298Y-6158903D01*
X-87176395Y-6972000D01*
X-87535605Y-6972000D01*
X-88348702Y-6158903D01*
X-88592671Y-6230486D01*
X-88713571Y-6485996D01*
X-88782300Y-6760184D01*
X-88796217Y-7042512D01*
X-98915462Y-7042512D01*
X-98982263Y-6854804D01*
X-99052519Y-6723367D01*
X-99299091Y-6648696D01*
X-100130395Y-7480000D01*
X-100489605Y-7480000D01*
X-101320909Y-6648696D01*
X-101567481Y-6723367D01*
X-101690931Y-6983228D01*
X-101761313Y-7262180D01*
X-101775921Y-7549502D01*
X-108113830Y-7549502D01*
X-108210506Y-7470163D01*
X-108320820Y-7411198D01*
X-108440518Y-7374888D01*
X-108565000Y-7362628D01*
X-110819250Y-7365700D01*
X-110978000Y-7524450D01*
X-111232000Y-7524450D01*
X-111390750Y-7365700D01*
X-113073500Y-7363407D01*
X-113073500Y-6415043D01*
X-108565000Y-6415043D01*
X-108490311Y-6407687D01*
X-108418492Y-6385901D01*
X-108352304Y-6350522D01*
X-108294289Y-6302911D01*
X-108246678Y-6244896D01*
X-108211299Y-6178708D01*
X-108189513Y-6106889D01*
X-108182157Y-6032200D01*
X-108182157Y-5638500D01*
X-101248499Y-5638500D01*
X-101217555Y-5684811D01*
X-101054811Y-5847555D01*
X-100863445Y-5975422D01*
X-100666966Y-6056807D01*
X-100935196Y-6152263D01*
X-101066633Y-6222519D01*
X-101141304Y-6469091D01*
X-100310000Y-7300395D01*
X-99478696Y-6469091D01*
X-99553367Y-6222519D01*
X-99813228Y-6099069D01*
X-99963518Y-6061150D01*
X-99765913Y-5979298D01*
X-88169097Y-5979298D01*
X-87356000Y-6792395D01*
X-86542903Y-5979298D01*
X-86614486Y-5735329D01*
X-86869996Y-5614429D01*
X-87144184Y-5545700D01*
X-87426512Y-5531783D01*
X-87706130Y-5573213D01*
X-87972292Y-5668397D01*
X-88097514Y-5735329D01*
X-88169097Y-5979298D01*
X-99765913Y-5979298D01*
X-99756555Y-5975422D01*
X-99565189Y-5847555D01*
X-99402445Y-5684811D01*
X-99274578Y-5493445D01*
X-99186501Y-5280810D01*
X-99141600Y-5055077D01*
X-99141600Y-4824923D01*
X-99186501Y-4599190D01*
X-99274578Y-4386555D01*
X-99402445Y-4195189D01*
X-99565189Y-4032445D01*
X-99611500Y-4001501D01*
X-99611500Y-1855682D01*
X-88537000Y-1855682D01*
X-88537000Y-2088318D01*
X-88491614Y-2316485D01*
X-88402588Y-2531413D01*
X-88273342Y-2724843D01*
X-88108843Y-2889342D01*
X-87915413Y-3018588D01*
X-87700485Y-3107614D01*
X-87472318Y-3153000D01*
X-87239682Y-3153000D01*
X-87011515Y-3107614D01*
X-86796587Y-3018588D01*
X-86603157Y-2889342D01*
X-86438658Y-2724843D01*
X-86309412Y-2531413D01*
X-86220386Y-2316485D01*
X-86175000Y-2088318D01*
X-86175000Y-1855682D01*
X-86220386Y-1627515D01*
X-86309412Y-1412587D01*
X-86438658Y-1219157D01*
X-86603157Y-1054658D01*
X-86657500Y-1018347D01*
X-86657500Y2943500D01*
X-82039539Y2943500D01*
X-81843900Y2862464D01*
X-81625394Y2819000D01*
X-81402606Y2819000D01*
X-81184100Y2862464D01*
X-80978271Y2947721D01*
X-80793030Y3071495D01*
X-80635495Y3229030D01*
X-80511721Y3414271D01*
X-80426464Y3620100D01*
X-80383000Y3838606D01*
X-80383000Y4007394D01*
X-76803000Y4007394D01*
X-76803000Y3784606D01*
X-76759536Y3566100D01*
X-76674279Y3360271D01*
X-76550505Y3175030D01*
X-76392970Y3017495D01*
X-76370500Y3002481D01*
X-76370499Y-2619692D01*
X-76373878Y-2654000D01*
X-76360392Y-2790929D01*
X-76320491Y-2922467D01*
X-76345000Y-3045682D01*
X-76345000Y-3278318D01*
X-76299614Y-3506485D01*
X-76210588Y-3721413D01*
X-76081342Y-3914843D01*
X-75916843Y-4079342D01*
X-75723413Y-4208588D01*
X-75508485Y-4297614D01*
X-75280318Y-4343000D01*
X-75047682Y-4343000D01*
X-74819515Y-4297614D01*
X-74604587Y-4208588D01*
X-74411157Y-4079342D01*
X-74246658Y-3914843D01*
X-74117412Y-3721413D01*
X-74028386Y-3506485D01*
X-73983000Y-3278318D01*
X-73983000Y-3045682D01*
X-71345000Y-3045682D01*
X-71345000Y-3278318D01*
X-71299614Y-3506485D01*
X-71210588Y-3721413D01*
X-71081342Y-3914843D01*
X-70916843Y-4079342D01*
X-70862500Y-4115653D01*
X-70862499Y-7542347D01*
X-70916843Y-7578658D01*
X-71081342Y-7743157D01*
X-71210588Y-7936587D01*
X-71299614Y-8151515D01*
X-71345000Y-8379682D01*
X-71345000Y-8612318D01*
X-71299614Y-8840485D01*
X-71210588Y-9055413D01*
X-71081342Y-9248843D01*
X-70916843Y-9413342D01*
X-70723413Y-9542588D01*
X-70508485Y-9631614D01*
X-70280318Y-9677000D01*
X-70047682Y-9677000D01*
X-69819515Y-9631614D01*
X-69604587Y-9542588D01*
X-69411157Y-9413342D01*
X-69246658Y-9248843D01*
X-69117412Y-9055413D01*
X-69028386Y-8840485D01*
X-68983000Y-8612318D01*
X-68983000Y-8379682D01*
X-69028386Y-8151515D01*
X-69117412Y-7936587D01*
X-69246658Y-7743157D01*
X-69411157Y-7578658D01*
X-69465500Y-7542347D01*
X-69465500Y-4115653D01*
X-69411157Y-4079342D01*
X-69246658Y-3914843D01*
X-69117412Y-3721413D01*
X-69028386Y-3506485D01*
X-68983000Y-3278318D01*
X-68983000Y-3045682D01*
X-69028386Y-2817515D01*
X-69117412Y-2602587D01*
X-69246658Y-2409157D01*
X-69411157Y-2244658D01*
X-69465500Y-2208347D01*
X-69465500Y2822796D01*
X-69294271Y2893721D01*
X-69109030Y3017495D01*
X-68951495Y3175030D01*
X-68827721Y3360271D01*
X-68742464Y3566100D01*
X-68699000Y3784606D01*
X-68699000Y4007394D01*
X-65119000Y4007394D01*
X-65119000Y3784606D01*
X-65075536Y3566100D01*
X-64990279Y3360271D01*
X-64866505Y3175030D01*
X-64708970Y3017495D01*
X-64686500Y3002481D01*
X-64686499Y-2461773D01*
X-64780588Y-2602587D01*
X-64869614Y-2817515D01*
X-64915000Y-3045682D01*
X-64915000Y-3278318D01*
X-64869614Y-3506485D01*
X-64780588Y-3721413D01*
X-64651342Y-3914843D01*
X-64486843Y-4079342D01*
X-64432500Y-4115653D01*
X-64432499Y-7796347D01*
X-64486843Y-7832658D01*
X-64651342Y-7997157D01*
X-64780588Y-8190587D01*
X-64869614Y-8405515D01*
X-64915000Y-8633682D01*
X-64915000Y-8866318D01*
X-64869614Y-9094485D01*
X-64780588Y-9309413D01*
X-64651342Y-9502843D01*
X-64486843Y-9667342D01*
X-64293413Y-9796588D01*
X-64078485Y-9885614D01*
X-63850318Y-9931000D01*
X-63617682Y-9931000D01*
X-63389515Y-9885614D01*
X-63174587Y-9796588D01*
X-63093942Y-9742702D01*
X-59547097Y-9742702D01*
X-59475514Y-9986671D01*
X-59220004Y-10107571D01*
X-58945816Y-10176300D01*
X-58663488Y-10190217D01*
X-58383870Y-10148787D01*
X-58117708Y-10053603D01*
X-58054841Y-10020000D01*
X-46467837Y-10020000D01*
X-46444542Y-10256515D01*
X-46375553Y-10483941D01*
X-46263521Y-10693538D01*
X-46112752Y-10877252D01*
X-45929038Y-11028021D01*
X-45719441Y-11140053D01*
X-45492015Y-11209042D01*
X-45314763Y-11226500D01*
X-43545237Y-11226500D01*
X-43367985Y-11209042D01*
X-43140559Y-11140053D01*
X-42930962Y-11028021D01*
X-42747248Y-10877252D01*
X-42596479Y-10693538D01*
X-42484447Y-10483941D01*
X-42470845Y-10439100D01*
X-41893072Y-10439100D01*
X-41880812Y-10563582D01*
X-41844502Y-10683280D01*
X-41785537Y-10793594D01*
X-41706185Y-10890285D01*
X-41609494Y-10969637D01*
X-41499180Y-11028602D01*
X-41379482Y-11064912D01*
X-41255000Y-11077172D01*
X-39000750Y-11074100D01*
X-38842000Y-10915350D01*
X-38842000Y-9359600D01*
X-41731250Y-9359600D01*
X-41890000Y-9518350D01*
X-41893072Y-10439100D01*
X-42470845Y-10439100D01*
X-42415458Y-10256515D01*
X-42392163Y-10020000D01*
X-42415458Y-9783485D01*
X-42484447Y-9556059D01*
X-42596479Y-9346462D01*
X-42747248Y-9162748D01*
X-42930962Y-9011979D01*
X-43140559Y-8899947D01*
X-43367985Y-8830958D01*
X-43545237Y-8813500D01*
X-45314763Y-8813500D01*
X-45492015Y-8830958D01*
X-45719441Y-8899947D01*
X-45929038Y-9011979D01*
X-46112752Y-9162748D01*
X-46263521Y-9346462D01*
X-46375553Y-9556059D01*
X-46444542Y-9783485D01*
X-46467837Y-10020000D01*
X-58054841Y-10020000D01*
X-57992486Y-9986671D01*
X-57920903Y-9742702D01*
X-58734000Y-8929605D01*
X-59547097Y-9742702D01*
X-63093942Y-9742702D01*
X-62981157Y-9667342D01*
X-62816658Y-9502843D01*
X-62687412Y-9309413D01*
X-62598386Y-9094485D01*
X-62553000Y-8866318D01*
X-62553000Y-8820512D01*
X-60174217Y-8820512D01*
X-60132787Y-9100130D01*
X-60037603Y-9366292D01*
X-59970671Y-9491514D01*
X-59726702Y-9563097D01*
X-58913605Y-8750000D01*
X-58554395Y-8750000D01*
X-57741298Y-9563097D01*
X-57497329Y-9491514D01*
X-57376429Y-9236004D01*
X-57307700Y-8961816D01*
X-57293783Y-8679488D01*
X-57335213Y-8399870D01*
X-57430397Y-8133708D01*
X-57487914Y-8026100D01*
X-41893072Y-8026100D01*
X-41890000Y-8946850D01*
X-41731250Y-9105600D01*
X-38842000Y-9105600D01*
X-38842000Y-7549850D01*
X-39000750Y-7391100D01*
X-41255000Y-7388028D01*
X-41379482Y-7400288D01*
X-41499180Y-7436598D01*
X-41609494Y-7495563D01*
X-41706185Y-7574915D01*
X-41785537Y-7671606D01*
X-41844502Y-7781920D01*
X-41880812Y-7901618D01*
X-41893072Y-8026100D01*
X-57487914Y-8026100D01*
X-57497329Y-8008486D01*
X-57741298Y-7936903D01*
X-58554395Y-8750000D01*
X-58913605Y-8750000D01*
X-59726702Y-7936903D01*
X-59970671Y-8008486D01*
X-60091571Y-8263996D01*
X-60160300Y-8538184D01*
X-60174217Y-8820512D01*
X-62553000Y-8820512D01*
X-62553000Y-8633682D01*
X-62598386Y-8405515D01*
X-62687412Y-8190587D01*
X-62816658Y-7997157D01*
X-62981157Y-7832658D01*
X-63035500Y-7796347D01*
X-63035500Y-7757298D01*
X-59547097Y-7757298D01*
X-58734000Y-8570395D01*
X-57920903Y-7757298D01*
X-57992486Y-7513329D01*
X-58247996Y-7392429D01*
X-58522184Y-7323700D01*
X-58804512Y-7309783D01*
X-59084130Y-7351213D01*
X-59350292Y-7446397D01*
X-59475514Y-7513329D01*
X-59547097Y-7757298D01*
X-63035500Y-7757298D01*
X-63035500Y-4115653D01*
X-62981157Y-4079342D01*
X-62816658Y-3914843D01*
X-62687412Y-3721413D01*
X-62598386Y-3506485D01*
X-62553000Y-3278318D01*
X-62553000Y-3045682D01*
X-59915000Y-3045682D01*
X-59915000Y-3278318D01*
X-59869614Y-3506485D01*
X-59780588Y-3721413D01*
X-59651342Y-3914843D01*
X-59486843Y-4079342D01*
X-59293413Y-4208588D01*
X-59078485Y-4297614D01*
X-58850318Y-4343000D01*
X-58617682Y-4343000D01*
X-58389515Y-4297614D01*
X-58174587Y-4208588D01*
X-57981157Y-4079342D01*
X-57816658Y-3914843D01*
X-57687412Y-3721413D01*
X-57598386Y-3506485D01*
X-57553000Y-3278318D01*
X-57553000Y-3045682D01*
X-57598386Y-2817515D01*
X-57687412Y-2602587D01*
X-57776336Y-2469502D01*
X-50975921Y-2469502D01*
X-50934194Y-2754154D01*
X-50837737Y-3025196D01*
X-50767481Y-3156633D01*
X-50520909Y-3231304D01*
X-49689605Y-2400000D01*
X-49330395Y-2400000D01*
X-48499091Y-3231304D01*
X-48252519Y-3156633D01*
X-48129069Y-2896772D01*
X-48058687Y-2617820D01*
X-48044079Y-2330498D01*
X-48085806Y-2045846D01*
X-48182263Y-1774804D01*
X-48252519Y-1643367D01*
X-48499091Y-1568696D01*
X-49330395Y-2400000D01*
X-49689605Y-2400000D01*
X-50520909Y-1568696D01*
X-50767481Y-1643367D01*
X-50890931Y-1903228D01*
X-50961313Y-2182180D01*
X-50975921Y-2469502D01*
X-57776336Y-2469502D01*
X-57816658Y-2409157D01*
X-57981157Y-2244658D01*
X-58035500Y-2208347D01*
X-58035500Y-1389091D01*
X-50341304Y-1389091D01*
X-49510000Y-2220395D01*
X-48678696Y-1389091D01*
X-48753367Y-1142519D01*
X-49013228Y-1019069D01*
X-49292180Y-948687D01*
X-49579502Y-934079D01*
X-49864154Y-975806D01*
X-50135196Y-1072263D01*
X-50266633Y-1142519D01*
X-50341304Y-1389091D01*
X-58035500Y-1389091D01*
X-58035500Y2819000D01*
X-58034606Y2819000D01*
X-57816100Y2862464D01*
X-57610271Y2947721D01*
X-57425030Y3071495D01*
X-57267495Y3229030D01*
X-57143721Y3414271D01*
X-57058464Y3620100D01*
X-57015000Y3838606D01*
X-57015000Y4061394D01*
X-57058464Y4279900D01*
X-57143721Y4485729D01*
X-57267495Y4670970D01*
X-57425030Y4828505D01*
X-57610271Y4952279D01*
X-57816100Y5037536D01*
X-58034606Y5081000D01*
X-58257394Y5081000D01*
X-58475900Y5037536D01*
X-58681729Y4952279D01*
X-58866970Y4828505D01*
X-59024505Y4670970D01*
X-59148279Y4485729D01*
X-59233536Y4279900D01*
X-59277000Y4061394D01*
X-59277000Y3838606D01*
X-59271043Y3808661D01*
X-59317591Y3751943D01*
X-59382451Y3630598D01*
X-59422392Y3498929D01*
X-59435878Y3362000D01*
X-59432499Y3327692D01*
X-59432500Y-2208347D01*
X-59486843Y-2244658D01*
X-59651342Y-2409157D01*
X-59780588Y-2602587D01*
X-59869614Y-2817515D01*
X-59915000Y-3045682D01*
X-62553000Y-3045682D01*
X-62598386Y-2817515D01*
X-62687412Y-2602587D01*
X-62816658Y-2409157D01*
X-62981157Y-2244658D01*
X-63174587Y-2115412D01*
X-63289500Y-2067814D01*
X-63289500Y3002481D01*
X-63267030Y3017495D01*
X-63109495Y3175030D01*
X-62985721Y3360271D01*
X-62900464Y3566100D01*
X-62857000Y3784606D01*
X-62857000Y4007394D01*
X-62900464Y4225900D01*
X-62985721Y4431729D01*
X-63109495Y4616970D01*
X-63267030Y4774505D01*
X-63452271Y4898279D01*
X-63658100Y4983536D01*
X-63876606Y5027000D01*
X-64099394Y5027000D01*
X-64317900Y4983536D01*
X-64523729Y4898279D01*
X-64708970Y4774505D01*
X-64866505Y4616970D01*
X-64990279Y4431729D01*
X-65075536Y4225900D01*
X-65119000Y4007394D01*
X-68699000Y4007394D01*
X-68742464Y4225900D01*
X-68827721Y4431729D01*
X-68951495Y4616970D01*
X-69109030Y4774505D01*
X-69294271Y4898279D01*
X-69500100Y4983536D01*
X-69718606Y5027000D01*
X-69941394Y5027000D01*
X-70159900Y4983536D01*
X-70365729Y4898279D01*
X-70550970Y4774505D01*
X-70708505Y4616970D01*
X-70832279Y4431729D01*
X-70917536Y4225900D01*
X-70961000Y4007394D01*
X-70961000Y3784606D01*
X-70917536Y3566100D01*
X-70862499Y3433229D01*
X-70862500Y-2208347D01*
X-70916843Y-2244658D01*
X-71081342Y-2409157D01*
X-71210588Y-2602587D01*
X-71299614Y-2817515D01*
X-71345000Y-3045682D01*
X-73983000Y-3045682D01*
X-74028386Y-2817515D01*
X-74117412Y-2602587D01*
X-74246658Y-2409157D01*
X-74411157Y-2244658D01*
X-74604587Y-2115412D01*
X-74819515Y-2026386D01*
X-74973500Y-1995756D01*
X-74973500Y3002481D01*
X-74951030Y3017495D01*
X-74793495Y3175030D01*
X-74669721Y3360271D01*
X-74584464Y3566100D01*
X-74541000Y3784606D01*
X-74541000Y4007394D01*
X-74584464Y4225900D01*
X-74669721Y4431729D01*
X-74793495Y4616970D01*
X-74951030Y4774505D01*
X-75136271Y4898279D01*
X-75342100Y4983536D01*
X-75560606Y5027000D01*
X-75783394Y5027000D01*
X-76001900Y4983536D01*
X-76207729Y4898279D01*
X-76392970Y4774505D01*
X-76550505Y4616970D01*
X-76674279Y4431729D01*
X-76759536Y4225900D01*
X-76803000Y4007394D01*
X-80383000Y4007394D01*
X-80383000Y4061394D01*
X-80426464Y4279900D01*
X-80511721Y4485729D01*
X-80635495Y4670970D01*
X-80793030Y4828505D01*
X-80978271Y4952279D01*
X-81184100Y5037536D01*
X-81402606Y5081000D01*
X-81625394Y5081000D01*
X-81843900Y5037536D01*
X-82049729Y4952279D01*
X-82234970Y4828505D01*
X-82392505Y4670970D01*
X-82516279Y4485729D01*
X-82576435Y4340500D01*
X-86315933Y4340500D01*
X-86353721Y4431729D01*
X-86477495Y4616970D01*
X-86635030Y4774505D01*
X-86820271Y4898279D01*
X-87026100Y4983536D01*
X-87244606Y5027000D01*
X-87467394Y5027000D01*
X-87685900Y4983536D01*
X-87891729Y4898279D01*
X-88076970Y4774505D01*
X-88234505Y4616970D01*
X-88358279Y4431729D01*
X-88443536Y4225900D01*
X-88487000Y4007394D01*
X-88487000Y3784606D01*
X-88443536Y3566100D01*
X-88358279Y3360271D01*
X-88234505Y3175030D01*
X-88076970Y3017495D01*
X-88054499Y3002480D01*
X-88054500Y-1018347D01*
X-88108843Y-1054658D01*
X-88273342Y-1219157D01*
X-88402588Y-1412587D01*
X-88491614Y-1627515D01*
X-88537000Y-1855682D01*
X-99611500Y-1855682D01*
X-99611500Y1725702D01*
X-99608122Y1760000D01*
X-99611500Y1794298D01*
X-99611500Y1794309D01*
X-99621607Y1896930D01*
X-99661548Y2028597D01*
X-99661549Y2028599D01*
X-99726409Y2149944D01*
X-99791826Y2229654D01*
X-99791829Y2229657D01*
X-99813697Y2256303D01*
X-99840343Y2278171D01*
X-102821172Y5259000D01*
X-93543072Y5259000D01*
X-93530812Y5134518D01*
X-93494502Y5014820D01*
X-93435537Y4904506D01*
X-93356185Y4807815D01*
X-93259494Y4728463D01*
X-93149180Y4669498D01*
X-93029482Y4633188D01*
X-92905000Y4620928D01*
X-92340750Y4624000D01*
X-92182000Y4782750D01*
X-92182000Y5982000D01*
X-91928000Y5982000D01*
X-91928000Y4782750D01*
X-91769250Y4624000D01*
X-91205000Y4620928D01*
X-91080518Y4633188D01*
X-90960820Y4669498D01*
X-90850506Y4728463D01*
X-90753815Y4807815D01*
X-90674463Y4904506D01*
X-90615498Y5014820D01*
X-90579188Y5134518D01*
X-90566928Y5259000D01*
X-54681072Y5259000D01*
X-54668812Y5134518D01*
X-54632502Y5014820D01*
X-54573537Y4904506D01*
X-54494185Y4807815D01*
X-54397494Y4728463D01*
X-54287180Y4669498D01*
X-54167482Y4633188D01*
X-54043000Y4620928D01*
X-53478750Y4624000D01*
X-53320000Y4782750D01*
X-53320000Y5982000D01*
X-53066000Y5982000D01*
X-53066000Y4782750D01*
X-52907250Y4624000D01*
X-52343000Y4620928D01*
X-52218518Y4633188D01*
X-52098820Y4669498D01*
X-51988506Y4728463D01*
X-51891815Y4807815D01*
X-51812463Y4904506D01*
X-51753498Y5014820D01*
X-51717188Y5134518D01*
X-51704928Y5259000D01*
X-51708000Y5823250D01*
X-51866750Y5982000D01*
X-53066000Y5982000D01*
X-53320000Y5982000D01*
X-54519250Y5982000D01*
X-54678000Y5823250D01*
X-54681072Y5259000D01*
X-90566928Y5259000D01*
X-90570000Y5823250D01*
X-90728750Y5982000D01*
X-91928000Y5982000D01*
X-92182000Y5982000D01*
X-93381250Y5982000D01*
X-93540000Y5823250D01*
X-93543072Y5259000D01*
X-102821172Y5259000D01*
X-104521172Y6959000D01*
X-93543072Y6959000D01*
X-93540000Y6394750D01*
X-93381250Y6236000D01*
X-92182000Y6236000D01*
X-92182000Y7435250D01*
X-91928000Y7435250D01*
X-91928000Y6236000D01*
X-90728750Y6236000D01*
X-90570000Y6394750D01*
X-90566928Y6959000D01*
X-54681072Y6959000D01*
X-54678000Y6394750D01*
X-54519250Y6236000D01*
X-53320000Y6236000D01*
X-53320000Y7435250D01*
X-53066000Y7435250D01*
X-53066000Y6236000D01*
X-51866750Y6236000D01*
X-51708000Y6394750D01*
X-51704928Y6959000D01*
X-51717188Y7083482D01*
X-51753498Y7203180D01*
X-51812463Y7313494D01*
X-51891815Y7410185D01*
X-51988506Y7489537D01*
X-52098820Y7548502D01*
X-52218518Y7584812D01*
X-52343000Y7597072D01*
X-52907250Y7594000D01*
X-53066000Y7435250D01*
X-53320000Y7435250D01*
X-53478750Y7594000D01*
X-54043000Y7597072D01*
X-54167482Y7584812D01*
X-54287180Y7548502D01*
X-54397494Y7489537D01*
X-54494185Y7410185D01*
X-54573537Y7313494D01*
X-54632502Y7203180D01*
X-54668812Y7083482D01*
X-54681072Y6959000D01*
X-90566928Y6959000D01*
X-90579188Y7083482D01*
X-90615498Y7203180D01*
X-90674463Y7313494D01*
X-90753815Y7410185D01*
X-90850506Y7489537D01*
X-90960820Y7548502D01*
X-91080518Y7584812D01*
X-91205000Y7597072D01*
X-91769250Y7594000D01*
X-91928000Y7435250D01*
X-92182000Y7435250D01*
X-92340750Y7594000D01*
X-92905000Y7597072D01*
X-93029482Y7584812D01*
X-93149180Y7548502D01*
X-93259494Y7489537D01*
X-93356185Y7410185D01*
X-93435537Y7313494D01*
X-93494502Y7203180D01*
X-93530812Y7083482D01*
X-93543072Y6959000D01*
X-104521172Y6959000D01*
X-105481519Y7919347D01*
X-103273048Y7919347D01*
X-103117038Y7603786D01*
X-102742255Y7412980D01*
X-102337449Y7298956D01*
X-101918176Y7266098D01*
X-101500549Y7315666D01*
X-101100617Y7445757D01*
X-100804962Y7603786D01*
X-100648952Y7919347D01*
X-101961000Y9231395D01*
X-103273048Y7919347D01*
X-105481519Y7919347D01*
X-106232018Y8669845D01*
X-106152286Y8862333D01*
X-106080000Y9225738D01*
X-106080000Y9368176D01*
X-104105902Y9368176D01*
X-104056334Y8950549D01*
X-103926243Y8550617D01*
X-103768214Y8254962D01*
X-103452653Y8098952D01*
X-102140605Y9411000D01*
X-101781395Y9411000D01*
X-100469347Y8098952D01*
X-100153786Y8254962D01*
X-99962980Y8629745D01*
X-99848956Y9034551D01*
X-99816098Y9453824D01*
X-99865666Y9871451D01*
X-99995757Y10271383D01*
X-100153786Y10567038D01*
X-100469347Y10723048D01*
X-101781395Y9411000D01*
X-102140605Y9411000D01*
X-103452653Y10723048D01*
X-103768214Y10567038D01*
X-103959020Y10192255D01*
X-104073044Y9787449D01*
X-104105902Y9368176D01*
X-106080000Y9368176D01*
X-106080000Y9596262D01*
X-106152286Y9959667D01*
X-106232017Y10152155D01*
X-105481519Y10902653D01*
X-103273048Y10902653D01*
X-101961000Y9590605D01*
X-100648952Y10902653D01*
X-100804962Y11218214D01*
X-101179745Y11409020D01*
X-101584551Y11523044D01*
X-102003824Y11555902D01*
X-102421451Y11506334D01*
X-102821383Y11376243D01*
X-103117038Y11218214D01*
X-103273048Y10902653D01*
X-105481519Y10902653D01*
X-101171671Y15212500D01*
X-99407651Y15212500D01*
X-99327920Y15020013D01*
X-99122068Y14711933D01*
X-98860067Y14449932D01*
X-98551987Y14244080D01*
X-98209667Y14102286D01*
X-97846262Y14030000D01*
X-97475738Y14030000D01*
X-97112333Y14102286D01*
X-96770013Y14244080D01*
X-96461933Y14449932D01*
X-96199932Y14711933D01*
X-95994080Y15020013D01*
X-95852286Y15362333D01*
X-95780000Y15725738D01*
X-95780000Y16096262D01*
X-95852286Y16459667D01*
X-95994080Y16801987D01*
X-96199932Y17110067D01*
X-96461933Y17372068D01*
X-96770013Y17577920D01*
X-97112333Y17719714D01*
X-97475738Y17792000D01*
X-97846262Y17792000D01*
X-98209667Y17719714D01*
X-98551987Y17577920D01*
X-98860067Y17372068D01*
X-99122068Y17110067D01*
X-99327920Y16801987D01*
X-99407651Y16609500D01*
X-101426703Y16609500D01*
X-101461001Y16612878D01*
X-101495299Y16609500D01*
X-101495309Y16609500D01*
X-101597930Y16599393D01*
X-101729597Y16559452D01*
X-101729599Y16559451D01*
X-101850944Y16494591D01*
X-101930655Y16429174D01*
X-101930663Y16429166D01*
X-101957303Y16407303D01*
X-101979166Y16380663D01*
X-107219845Y11139983D01*
X-107412333Y11219714D01*
X-107775738Y11292000D01*
X-108146262Y11292000D01*
X-108509667Y11219714D01*
X-108851987Y11077920D01*
X-109160067Y10872068D01*
X-109422068Y10610067D01*
X-109627920Y10301987D01*
X-109769714Y9959667D01*
X-109842000Y9596262D01*
X-109842000Y9225738D01*
X-109769714Y8862333D01*
X-109627920Y8520013D01*
X-109422068Y8211933D01*
X-109160067Y7949932D01*
X-108851987Y7744080D01*
X-108509667Y7602286D01*
X-108146262Y7530000D01*
X-107775738Y7530000D01*
X-107412333Y7602286D01*
X-107219845Y7682018D01*
X-101008499Y1470671D01*
X-101008500Y-4001501D01*
X-101054811Y-4032445D01*
X-101217555Y-4195189D01*
X-101248499Y-4241500D01*
X-108182157Y-4241500D01*
X-108182157Y-3746200D01*
X-108189513Y-3671511D01*
X-108211299Y-3599692D01*
X-108246678Y-3533504D01*
X-108294289Y-3475489D01*
X-108352304Y-3427878D01*
X-108418492Y-3392499D01*
X-108490311Y-3370713D01*
X-108565000Y-3363357D01*
X-113073500Y-3363357D01*
X-113073500Y-2414993D01*
X-111390750Y-2412700D01*
X-111232000Y-2253950D01*
X-111232000Y-698200D01*
X-110978000Y-698200D01*
X-110978000Y-2253950D01*
X-110819250Y-2412700D01*
X-108565000Y-2415772D01*
X-108440518Y-2403512D01*
X-108320820Y-2367202D01*
X-108210506Y-2308237D01*
X-108113815Y-2228885D01*
X-108034463Y-2132194D01*
X-107975498Y-2021880D01*
X-107939188Y-1902182D01*
X-107926928Y-1777700D01*
X-107930000Y-856950D01*
X-108088750Y-698200D01*
X-110978000Y-698200D01*
X-111232000Y-698200D01*
X-111252000Y-698200D01*
X-111252000Y-444200D01*
X-111232000Y-444200D01*
X-111232000Y1111550D01*
X-110978000Y1111550D01*
X-110978000Y-444200D01*
X-108088750Y-444200D01*
X-107930000Y-285450D01*
X-107928581Y140000D01*
X-107427837Y140000D01*
X-107404542Y-96515D01*
X-107335553Y-323941D01*
X-107223521Y-533538D01*
X-107072752Y-717252D01*
X-106889038Y-868021D01*
X-106679441Y-980053D01*
X-106452015Y-1049042D01*
X-106274763Y-1066500D01*
X-104505237Y-1066500D01*
X-104327985Y-1049042D01*
X-104100559Y-980053D01*
X-103890962Y-868021D01*
X-103707248Y-717252D01*
X-103556479Y-533538D01*
X-103444447Y-323941D01*
X-103375458Y-96515D01*
X-103352163Y140000D01*
X-103375458Y376515D01*
X-103444447Y603941D01*
X-103556479Y813538D01*
X-103707248Y997252D01*
X-103890962Y1148021D01*
X-104100559Y1260053D01*
X-104327985Y1329042D01*
X-104505237Y1346500D01*
X-106274763Y1346500D01*
X-106452015Y1329042D01*
X-106679441Y1260053D01*
X-106889038Y1148021D01*
X-107072752Y997252D01*
X-107223521Y813538D01*
X-107335553Y603941D01*
X-107404542Y376515D01*
X-107427837Y140000D01*
X-107928581Y140000D01*
X-107926928Y635300D01*
X-107939188Y759782D01*
X-107975498Y879480D01*
X-108034463Y989794D01*
X-108113815Y1086485D01*
X-108210506Y1165837D01*
X-108320820Y1224802D01*
X-108440518Y1261112D01*
X-108565000Y1273372D01*
X-110819250Y1270300D01*
X-110978000Y1111550D01*
X-111232000Y1111550D01*
X-111390750Y1270300D01*
X-113073500Y1272593D01*
X-113073500Y3286927D01*
X-113070735Y3315000D01*
X-113081769Y3427034D01*
X-113114448Y3534762D01*
X-113167516Y3634045D01*
X-113238933Y3721067D01*
X-113325955Y3792484D01*
X-113425238Y3845552D01*
X-113532966Y3878231D01*
X-113616926Y3886500D01*
X-113645000Y3889265D01*
X-113673074Y3886500D01*
X-114343500Y3886500D01*
X-114343500Y16096262D01*
X-114142000Y16096262D01*
X-114142000Y15725738D01*
X-114069714Y15362333D01*
X-113927920Y15020013D01*
X-113722068Y14711933D01*
X-113460067Y14449932D01*
X-113151987Y14244080D01*
X-112809667Y14102286D01*
X-112446262Y14030000D01*
X-112075738Y14030000D01*
X-111712333Y14102286D01*
X-111370013Y14244080D01*
X-111061933Y14449932D01*
X-110799932Y14711933D01*
X-110594080Y15020013D01*
X-110452286Y15362333D01*
X-110380000Y15725738D01*
X-110380000Y16096262D01*
X-110452286Y16459667D01*
X-110594080Y16801987D01*
X-110799932Y17110067D01*
X-111061933Y17372068D01*
X-111370013Y17577920D01*
X-111712333Y17719714D01*
X-112075738Y17792000D01*
X-112446262Y17792000D01*
X-112809667Y17719714D01*
X-113151987Y17577920D01*
X-113460067Y17372068D01*
X-113722068Y17110067D01*
X-113927920Y16801987D01*
X-114069714Y16459667D01*
X-114142000Y16096262D01*
X-114343500Y16096262D01*
X-114343500Y22596262D01*
X-109842000Y22596262D01*
X-109842000Y22225738D01*
X-109769714Y21862333D01*
X-109627920Y21520013D01*
X-109422068Y21211933D01*
X-109160067Y20949932D01*
X-108851987Y20744080D01*
X-108509667Y20602286D01*
X-108146262Y20530000D01*
X-107775738Y20530000D01*
X-107412333Y20602286D01*
X-107070013Y20744080D01*
X-106761933Y20949932D01*
X-106499932Y21211933D01*
X-106294080Y21520013D01*
X-106152286Y21862333D01*
X-106080000Y22225738D01*
X-106080000Y22596262D01*
X-103842000Y22596262D01*
X-103842000Y22225738D01*
X-103769714Y21862333D01*
X-103627920Y21520013D01*
X-103422068Y21211933D01*
X-103160067Y20949932D01*
X-102851987Y20744080D01*
X-102509667Y20602286D01*
X-102146262Y20530000D01*
X-101775738Y20530000D01*
X-101412333Y20602286D01*
X-101070013Y20744080D01*
X-100761933Y20949932D01*
X-100499932Y21211933D01*
X-100294080Y21520013D01*
X-100286008Y21539500D01*
X-93389653Y21539500D01*
X-93353342Y21485157D01*
X-93188843Y21320658D01*
X-93054499Y21230892D01*
X-93054500Y16587653D01*
X-93108843Y16551342D01*
X-93273342Y16386843D01*
X-93402588Y16193413D01*
X-93491614Y15978485D01*
X-93537000Y15750318D01*
X-93537000Y15517682D01*
X-93491614Y15289515D01*
X-93402588Y15074587D01*
X-93273342Y14881157D01*
X-93108843Y14716658D01*
X-92915413Y14587412D01*
X-92700485Y14498386D01*
X-92472318Y14453000D01*
X-92239682Y14453000D01*
X-92011515Y14498386D01*
X-91796587Y14587412D01*
X-91603157Y14716658D01*
X-91438658Y14881157D01*
X-91309412Y15074587D01*
X-91220386Y15289515D01*
X-91175000Y15517682D01*
X-91175000Y15750318D01*
X-88537000Y15750318D01*
X-88537000Y15517682D01*
X-88491614Y15289515D01*
X-88402588Y15074587D01*
X-88273342Y14881157D01*
X-88108843Y14716658D01*
X-88054500Y14680347D01*
X-88054499Y9669520D01*
X-88076970Y9654505D01*
X-88234505Y9496970D01*
X-88358279Y9311729D01*
X-88443536Y9105900D01*
X-88487000Y8887394D01*
X-88487000Y8664606D01*
X-88443536Y8446100D01*
X-88358279Y8240271D01*
X-88234505Y8055030D01*
X-88076970Y7897495D01*
X-87891729Y7773721D01*
X-87685900Y7688464D01*
X-87467394Y7645000D01*
X-87244606Y7645000D01*
X-87026100Y7688464D01*
X-86820271Y7773721D01*
X-86635030Y7897495D01*
X-86477495Y8055030D01*
X-86353721Y8240271D01*
X-86268464Y8446100D01*
X-86225000Y8664606D01*
X-86225000Y8887394D01*
X-86235741Y8941394D01*
X-82645000Y8941394D01*
X-82645000Y8718606D01*
X-82601536Y8500100D01*
X-82516279Y8294271D01*
X-82392505Y8109030D01*
X-82234970Y7951495D01*
X-82049729Y7827721D01*
X-81843900Y7742464D01*
X-81625394Y7699000D01*
X-81402606Y7699000D01*
X-81184100Y7742464D01*
X-80978271Y7827721D01*
X-80793030Y7951495D01*
X-80635495Y8109030D01*
X-80620481Y8131500D01*
X-76601601Y8131500D01*
X-76550505Y8055030D01*
X-76392970Y7897495D01*
X-76207729Y7773721D01*
X-76001900Y7688464D01*
X-75783394Y7645000D01*
X-75560606Y7645000D01*
X-75342100Y7688464D01*
X-75136271Y7773721D01*
X-74951030Y7897495D01*
X-74793495Y8055030D01*
X-74669721Y8240271D01*
X-74584464Y8446100D01*
X-74541000Y8664606D01*
X-74541000Y8887394D01*
X-70961000Y8887394D01*
X-70961000Y8664606D01*
X-70917536Y8446100D01*
X-70832279Y8240271D01*
X-70708505Y8055030D01*
X-70550970Y7897495D01*
X-70365729Y7773721D01*
X-70159900Y7688464D01*
X-69941394Y7645000D01*
X-69718606Y7645000D01*
X-69500100Y7688464D01*
X-69294271Y7773721D01*
X-69109030Y7897495D01*
X-68951495Y8055030D01*
X-68827721Y8240271D01*
X-68742464Y8446100D01*
X-68699000Y8664606D01*
X-68699000Y8887394D01*
X-68742464Y9105900D01*
X-68827721Y9311729D01*
X-68951495Y9496970D01*
X-69109030Y9654505D01*
X-69131500Y9669519D01*
X-69131500Y14539814D01*
X-69016587Y14587412D01*
X-68823157Y14716658D01*
X-68658658Y14881157D01*
X-68529412Y15074587D01*
X-68440386Y15289515D01*
X-68395000Y15517682D01*
X-68395000Y15750318D01*
X-65757000Y15750318D01*
X-65757000Y15517682D01*
X-65711614Y15289515D01*
X-65622588Y15074587D01*
X-65493342Y14881157D01*
X-65328843Y14716658D01*
X-65135413Y14587412D01*
X-64920485Y14498386D01*
X-64692318Y14453000D01*
X-64686499Y14453000D01*
X-64686500Y9669519D01*
X-64708970Y9654505D01*
X-64866505Y9496970D01*
X-64990279Y9311729D01*
X-65075536Y9105900D01*
X-65119000Y8887394D01*
X-65119000Y8664606D01*
X-65075536Y8446100D01*
X-64990279Y8240271D01*
X-64866505Y8055030D01*
X-64708970Y7897495D01*
X-64523729Y7773721D01*
X-64317900Y7688464D01*
X-64099394Y7645000D01*
X-63876606Y7645000D01*
X-63658100Y7688464D01*
X-63452271Y7773721D01*
X-63267030Y7897495D01*
X-63109495Y8055030D01*
X-62985721Y8240271D01*
X-62900464Y8446100D01*
X-62857000Y8664606D01*
X-62857000Y8887394D01*
X-62900464Y9105900D01*
X-62985721Y9311729D01*
X-63109495Y9496970D01*
X-63267030Y9654505D01*
X-63289500Y9669519D01*
X-63289500Y15011702D01*
X-63286122Y15046000D01*
X-63289500Y15080298D01*
X-63289500Y15080309D01*
X-63299607Y15182930D01*
X-63339548Y15314597D01*
X-63404409Y15435943D01*
X-63409923Y15442661D01*
X-63399250Y15496318D01*
X-59327000Y15496318D01*
X-59327000Y15263682D01*
X-59281614Y15035515D01*
X-59192588Y14820587D01*
X-59063342Y14627157D01*
X-58898843Y14462658D01*
X-58844499Y14426347D01*
X-58844500Y9723519D01*
X-58866970Y9708505D01*
X-59024505Y9550970D01*
X-59148279Y9365729D01*
X-59233536Y9159900D01*
X-59277000Y8941394D01*
X-59277000Y8718606D01*
X-59233536Y8500100D01*
X-59148279Y8294271D01*
X-59024505Y8109030D01*
X-58866970Y7951495D01*
X-58681729Y7827721D01*
X-58475900Y7742464D01*
X-58257394Y7699000D01*
X-58034606Y7699000D01*
X-57816100Y7742464D01*
X-57610271Y7827721D01*
X-57425030Y7951495D01*
X-57267495Y8109030D01*
X-57143721Y8294271D01*
X-57058464Y8500100D01*
X-57015000Y8718606D01*
X-57015000Y8941394D01*
X-57058464Y9159900D01*
X-57143721Y9365729D01*
X-57267495Y9550970D01*
X-57425030Y9708505D01*
X-57447500Y9723519D01*
X-57447500Y14426347D01*
X-57393157Y14462658D01*
X-57228658Y14627157D01*
X-57192347Y14681500D01*
X-52593327Y14681500D01*
X-52254983Y14343155D01*
X-52334714Y14150667D01*
X-52407000Y13787262D01*
X-52407000Y13416738D01*
X-52334714Y13053333D01*
X-52192920Y12711013D01*
X-51987068Y12402933D01*
X-51725067Y12140932D01*
X-51416987Y11935080D01*
X-51074667Y11793286D01*
X-50711262Y11721000D01*
X-50340738Y11721000D01*
X-49977333Y11793286D01*
X-49635013Y11935080D01*
X-49326933Y12140932D01*
X-49064932Y12402933D01*
X-48859080Y12711013D01*
X-48717286Y13053333D01*
X-48645000Y13416738D01*
X-48645000Y13787262D01*
X-48717286Y14150667D01*
X-48859080Y14492987D01*
X-49064932Y14801067D01*
X-49326933Y15063068D01*
X-49635013Y15268920D01*
X-49977333Y15410714D01*
X-50340738Y15483000D01*
X-50711262Y15483000D01*
X-51074667Y15410714D01*
X-51267155Y15330983D01*
X-51785826Y15849653D01*
X-51807697Y15876303D01*
X-51914057Y15963591D01*
X-52035403Y16028452D01*
X-52167070Y16068393D01*
X-52269691Y16078500D01*
X-52269702Y16078500D01*
X-52304000Y16081878D01*
X-52338298Y16078500D01*
X-57192347Y16078500D01*
X-57228658Y16132843D01*
X-57393157Y16297342D01*
X-57586587Y16426588D01*
X-57801515Y16515614D01*
X-58029682Y16561000D01*
X-58262318Y16561000D01*
X-58490485Y16515614D01*
X-58705413Y16426588D01*
X-58898843Y16297342D01*
X-59063342Y16132843D01*
X-59192588Y15939413D01*
X-59281614Y15724485D01*
X-59327000Y15496318D01*
X-63399250Y15496318D01*
X-63395000Y15517682D01*
X-63395000Y15750318D01*
X-63440386Y15978485D01*
X-63529412Y16193413D01*
X-63658658Y16386843D01*
X-63823157Y16551342D01*
X-63877500Y16587653D01*
X-63877500Y19387298D01*
X-58959097Y19387298D01*
X-58887514Y19143329D01*
X-58632004Y19022429D01*
X-58357816Y18953700D01*
X-58075488Y18939783D01*
X-57795870Y18981213D01*
X-57529708Y19076397D01*
X-57404486Y19143329D01*
X-57332903Y19387298D01*
X-58146000Y20200395D01*
X-58959097Y19387298D01*
X-63877500Y19387298D01*
X-63877500Y20214893D01*
X-63743157Y20304658D01*
X-63738327Y20309488D01*
X-59586217Y20309488D01*
X-59544787Y20029870D01*
X-59449603Y19763708D01*
X-59382671Y19638486D01*
X-59138702Y19566903D01*
X-58325605Y20380000D01*
X-57966395Y20380000D01*
X-57153298Y19566903D01*
X-56909329Y19638486D01*
X-56788429Y19893996D01*
X-56719700Y20168184D01*
X-56705783Y20450512D01*
X-56747213Y20730130D01*
X-56842397Y20996292D01*
X-56909329Y21121514D01*
X-57153298Y21193097D01*
X-57966395Y20380000D01*
X-58325605Y20380000D01*
X-59138702Y21193097D01*
X-59382671Y21121514D01*
X-59503571Y20866004D01*
X-59572300Y20591816D01*
X-59586217Y20309488D01*
X-63738327Y20309488D01*
X-63578658Y20469157D01*
X-63449412Y20662587D01*
X-63360386Y20877515D01*
X-63315000Y21105682D01*
X-63315000Y21338318D01*
X-63321839Y21372702D01*
X-58959097Y21372702D01*
X-58146000Y20559605D01*
X-57332903Y21372702D01*
X-57404486Y21616671D01*
X-57659996Y21737571D01*
X-57934184Y21806300D01*
X-58216512Y21820217D01*
X-58496130Y21778787D01*
X-58762292Y21683603D01*
X-58887514Y21616671D01*
X-58959097Y21372702D01*
X-63321839Y21372702D01*
X-63360386Y21566485D01*
X-63449412Y21781413D01*
X-63578658Y21974843D01*
X-63743157Y22139342D01*
X-63936587Y22268588D01*
X-64151515Y22357614D01*
X-64379682Y22403000D01*
X-64612318Y22403000D01*
X-64840485Y22357614D01*
X-65055413Y22268588D01*
X-65248843Y22139342D01*
X-65413342Y21974843D01*
X-65542588Y21781413D01*
X-65631614Y21566485D01*
X-65677000Y21338318D01*
X-65677000Y21105682D01*
X-65631614Y20877515D01*
X-65542588Y20662587D01*
X-65413342Y20469157D01*
X-65274499Y20330314D01*
X-65274500Y16587653D01*
X-65328843Y16551342D01*
X-65493342Y16386843D01*
X-65622588Y16193413D01*
X-65711614Y15978485D01*
X-65757000Y15750318D01*
X-68395000Y15750318D01*
X-68440386Y15978485D01*
X-68529412Y16193413D01*
X-68658658Y16386843D01*
X-68823157Y16551342D01*
X-69016587Y16680588D01*
X-69231515Y16769614D01*
X-69459682Y16815000D01*
X-69692318Y16815000D01*
X-69920485Y16769614D01*
X-70135413Y16680588D01*
X-70328843Y16551342D01*
X-70493342Y16386843D01*
X-70622588Y16193413D01*
X-70711614Y15978485D01*
X-70757000Y15750318D01*
X-70757000Y15517682D01*
X-70711614Y15289515D01*
X-70622588Y15074587D01*
X-70528499Y14933773D01*
X-70528500Y9669519D01*
X-70550970Y9654505D01*
X-70708505Y9496970D01*
X-70832279Y9311729D01*
X-70917536Y9105900D01*
X-70961000Y8887394D01*
X-74541000Y8887394D01*
X-74584464Y9105900D01*
X-74669721Y9311729D01*
X-74793495Y9496970D01*
X-74951030Y9654505D01*
X-74973500Y9669519D01*
X-74973500Y13664347D01*
X-74919157Y13700658D01*
X-74754658Y13865157D01*
X-74625412Y14058587D01*
X-74536386Y14273515D01*
X-74491000Y14501682D01*
X-74491000Y14734318D01*
X-74536386Y14962485D01*
X-74625412Y15177413D01*
X-74754658Y15370843D01*
X-74919157Y15535342D01*
X-75112587Y15664588D01*
X-75327515Y15753614D01*
X-75555682Y15799000D01*
X-75788318Y15799000D01*
X-76016485Y15753614D01*
X-76231413Y15664588D01*
X-76424843Y15535342D01*
X-76589342Y15370843D01*
X-76718588Y15177413D01*
X-76807614Y14962485D01*
X-76853000Y14734318D01*
X-76853000Y14501682D01*
X-76807614Y14273515D01*
X-76718588Y14058587D01*
X-76589342Y13865157D01*
X-76424843Y13700658D01*
X-76370500Y13664347D01*
X-76370499Y9669520D01*
X-76392970Y9654505D01*
X-76518975Y9528500D01*
X-80620481Y9528500D01*
X-80635495Y9550970D01*
X-80793030Y9708505D01*
X-80978271Y9832279D01*
X-81184100Y9917536D01*
X-81402606Y9961000D01*
X-81625394Y9961000D01*
X-81843900Y9917536D01*
X-82049729Y9832279D01*
X-82234970Y9708505D01*
X-82392505Y9550970D01*
X-82516279Y9365729D01*
X-82601536Y9159900D01*
X-82645000Y8941394D01*
X-86235741Y8941394D01*
X-86268464Y9105900D01*
X-86353721Y9311729D01*
X-86477495Y9496970D01*
X-86635030Y9654505D01*
X-86657500Y9669519D01*
X-86657500Y14680347D01*
X-86603157Y14716658D01*
X-86438658Y14881157D01*
X-86309412Y15074587D01*
X-86220386Y15289515D01*
X-86175000Y15517682D01*
X-86175000Y15750318D01*
X-86220386Y15978485D01*
X-86309412Y16193413D01*
X-86438658Y16386843D01*
X-86603157Y16551342D01*
X-86796587Y16680588D01*
X-87011515Y16769614D01*
X-87239682Y16815000D01*
X-87472318Y16815000D01*
X-87700485Y16769614D01*
X-87915413Y16680588D01*
X-88108843Y16551342D01*
X-88273342Y16386843D01*
X-88402588Y16193413D01*
X-88491614Y15978485D01*
X-88537000Y15750318D01*
X-91175000Y15750318D01*
X-91220386Y15978485D01*
X-91309412Y16193413D01*
X-91438658Y16386843D01*
X-91603157Y16551342D01*
X-91657500Y16587653D01*
X-91657500Y18625298D01*
X-76485097Y18625298D01*
X-76413514Y18381329D01*
X-76158004Y18260429D01*
X-75883816Y18191700D01*
X-75601488Y18177783D01*
X-75321870Y18219213D01*
X-75055708Y18314397D01*
X-74930486Y18381329D01*
X-74858903Y18625298D01*
X-75672000Y19438395D01*
X-76485097Y18625298D01*
X-91657500Y18625298D01*
X-91657500Y19547488D01*
X-77112217Y19547488D01*
X-77070787Y19267870D01*
X-76975603Y19001708D01*
X-76908671Y18876486D01*
X-76664702Y18804903D01*
X-75851605Y19618000D01*
X-75492395Y19618000D01*
X-74679298Y18804903D01*
X-74435329Y18876486D01*
X-74314429Y19131996D01*
X-74245700Y19406184D01*
X-74231783Y19688512D01*
X-74273213Y19968130D01*
X-74366611Y20229298D01*
X-70309097Y20229298D01*
X-70237514Y19985329D01*
X-69982004Y19864429D01*
X-69707816Y19795700D01*
X-69425488Y19781783D01*
X-69145870Y19823213D01*
X-68879708Y19918397D01*
X-68754486Y19985329D01*
X-68682903Y20229298D01*
X-69496000Y21042395D01*
X-70309097Y20229298D01*
X-74366611Y20229298D01*
X-74368397Y20234292D01*
X-74435329Y20359514D01*
X-74679298Y20431097D01*
X-75492395Y19618000D01*
X-75851605Y19618000D01*
X-76664702Y20431097D01*
X-76908671Y20359514D01*
X-77029571Y20104004D01*
X-77098300Y19829816D01*
X-77112217Y19547488D01*
X-91657500Y19547488D01*
X-91657500Y20610702D01*
X-76485097Y20610702D01*
X-75672000Y19797605D01*
X-74858903Y20610702D01*
X-74930486Y20854671D01*
X-75185996Y20975571D01*
X-75460184Y21044300D01*
X-75742512Y21058217D01*
X-76022130Y21016787D01*
X-76288292Y20921603D01*
X-76413514Y20854671D01*
X-76485097Y20610702D01*
X-91657500Y20610702D01*
X-91657500Y21245298D01*
X-88249097Y21245298D01*
X-88177514Y21001329D01*
X-87922004Y20880429D01*
X-87647816Y20811700D01*
X-87365488Y20797783D01*
X-87085870Y20839213D01*
X-86819708Y20934397D01*
X-86694486Y21001329D01*
X-86650428Y21151488D01*
X-70936217Y21151488D01*
X-70894787Y20871870D01*
X-70799603Y20605708D01*
X-70732671Y20480486D01*
X-70488702Y20408903D01*
X-69675605Y21222000D01*
X-69316395Y21222000D01*
X-68503298Y20408903D01*
X-68259329Y20480486D01*
X-68138429Y20735996D01*
X-68069700Y21010184D01*
X-68055783Y21292512D01*
X-68097213Y21572130D01*
X-68192397Y21838292D01*
X-68259329Y21963514D01*
X-68503298Y22035097D01*
X-69316395Y21222000D01*
X-69675605Y21222000D01*
X-70488702Y22035097D01*
X-70732671Y21963514D01*
X-70853571Y21708004D01*
X-70922300Y21433816D01*
X-70936217Y21151488D01*
X-86650428Y21151488D01*
X-86622903Y21245298D01*
X-87436000Y22058395D01*
X-88249097Y21245298D01*
X-91657500Y21245298D01*
X-91657500Y21346315D01*
X-91518658Y21485157D01*
X-91389412Y21678587D01*
X-91300386Y21893515D01*
X-91255000Y22121682D01*
X-91255000Y22167488D01*
X-88876217Y22167488D01*
X-88834787Y21887870D01*
X-88739603Y21621708D01*
X-88672671Y21496486D01*
X-88428702Y21424903D01*
X-87615605Y22238000D01*
X-87256395Y22238000D01*
X-86443298Y21424903D01*
X-86199329Y21496486D01*
X-86078429Y21751996D01*
X-86009700Y22026184D01*
X-86000408Y22214702D01*
X-70309097Y22214702D01*
X-69496000Y21401605D01*
X-68682903Y22214702D01*
X-68754486Y22458671D01*
X-69009996Y22579571D01*
X-69284184Y22648300D01*
X-69566512Y22662217D01*
X-69846130Y22620787D01*
X-70112292Y22525603D01*
X-70237514Y22458671D01*
X-70309097Y22214702D01*
X-86000408Y22214702D01*
X-85995783Y22308512D01*
X-86037213Y22588130D01*
X-86132397Y22854292D01*
X-86199329Y22979514D01*
X-86443298Y23051097D01*
X-87256395Y22238000D01*
X-87615605Y22238000D01*
X-88428702Y23051097D01*
X-88672671Y22979514D01*
X-88793571Y22724004D01*
X-88862300Y22449816D01*
X-88876217Y22167488D01*
X-91255000Y22167488D01*
X-91255000Y22354318D01*
X-91300386Y22582485D01*
X-91389412Y22797413D01*
X-91518658Y22990843D01*
X-91683157Y23155342D01*
X-91795941Y23230702D01*
X-88249097Y23230702D01*
X-87436000Y22417605D01*
X-86622903Y23230702D01*
X-86694486Y23474671D01*
X-86949996Y23595571D01*
X-87224184Y23664300D01*
X-87506512Y23678217D01*
X-87786130Y23636787D01*
X-88052292Y23541603D01*
X-88177514Y23474671D01*
X-88249097Y23230702D01*
X-91795941Y23230702D01*
X-91876587Y23284588D01*
X-92091515Y23373614D01*
X-92319682Y23419000D01*
X-92552318Y23419000D01*
X-92780485Y23373614D01*
X-92995413Y23284588D01*
X-93188843Y23155342D01*
X-93353342Y22990843D01*
X-93389653Y22936500D01*
X-100147678Y22936500D01*
X-100152286Y22959667D01*
X-100294080Y23301987D01*
X-100499932Y23610067D01*
X-100761933Y23872068D01*
X-101070013Y24077920D01*
X-101092566Y24087262D01*
X-45907000Y24087262D01*
X-45907000Y23716738D01*
X-45834714Y23353333D01*
X-45692920Y23011013D01*
X-45487068Y22702933D01*
X-45225067Y22440932D01*
X-44916987Y22235080D01*
X-44574667Y22093286D01*
X-44211262Y22021000D01*
X-43840738Y22021000D01*
X-43477333Y22093286D01*
X-43135013Y22235080D01*
X-42826933Y22440932D01*
X-42564932Y22702933D01*
X-42359080Y23011013D01*
X-42217286Y23353333D01*
X-42145000Y23716738D01*
X-42145000Y24087262D01*
X-42217286Y24450667D01*
X-42359080Y24792987D01*
X-42564932Y25101067D01*
X-42826933Y25363068D01*
X-43135013Y25568920D01*
X-43477333Y25710714D01*
X-43840738Y25783000D01*
X-44211262Y25783000D01*
X-44574667Y25710714D01*
X-44916987Y25568920D01*
X-45225067Y25363068D01*
X-45487068Y25101067D01*
X-45692920Y24792987D01*
X-45834714Y24450667D01*
X-45907000Y24087262D01*
X-101092566Y24087262D01*
X-101412333Y24219714D01*
X-101775738Y24292000D01*
X-102146262Y24292000D01*
X-102509667Y24219714D01*
X-102851987Y24077920D01*
X-103160067Y23872068D01*
X-103422068Y23610067D01*
X-103627920Y23301987D01*
X-103769714Y22959667D01*
X-103842000Y22596262D01*
X-106080000Y22596262D01*
X-106152286Y22959667D01*
X-106294080Y23301987D01*
X-106499932Y23610067D01*
X-106761933Y23872068D01*
X-107070013Y24077920D01*
X-107412333Y24219714D01*
X-107775738Y24292000D01*
X-108146262Y24292000D01*
X-108509667Y24219714D01*
X-108851987Y24077920D01*
X-109160067Y23872068D01*
X-109422068Y23610067D01*
X-109627920Y23301987D01*
X-109769714Y22959667D01*
X-109842000Y22596262D01*
X-114343500Y22596262D01*
X-114343500Y27127500D01*
X-35451099Y27127500D01*
X-35451100Y14125269D01*
G04 #@! TA.AperFunction,Conductor*
D25*
G36*
X-35451100Y14125269D02*
G01*
X-35560757Y14462383D01*
X-35718786Y14758038D01*
X-36034347Y14914048D01*
X-37346395Y13602000D01*
X-36034347Y12289952D01*
X-35718786Y12445962D01*
X-35527980Y12820745D01*
X-35451100Y13093684D01*
X-35451100Y5766100D01*
X-36171972Y5766100D01*
X-36199681Y5768864D01*
X-36228112Y5766100D01*
X-36228474Y5766100D01*
X-36256208Y5763369D01*
X-36311728Y5757971D01*
X-36312074Y5757866D01*
X-36312434Y5757831D01*
X-36366049Y5741567D01*
X-36419496Y5725427D01*
X-36419814Y5725258D01*
X-36420162Y5725152D01*
X-36469842Y5698597D01*
X-36518846Y5672483D01*
X-36519123Y5672256D01*
X-36519445Y5672084D01*
X-36563151Y5636216D01*
X-36605957Y5601175D01*
X-36606184Y5600900D01*
X-36606467Y5600667D01*
X-36642204Y5557121D01*
X-36677483Y5514243D01*
X-36677652Y5513928D01*
X-36677884Y5513645D01*
X-36704485Y5463878D01*
X-36730676Y5415026D01*
X-36730781Y5414683D01*
X-36730952Y5414362D01*
X-36747274Y5360555D01*
X-36763490Y5307339D01*
X-36763526Y5306981D01*
X-36763631Y5306634D01*
X-36769142Y5250679D01*
X-36771864Y5223390D01*
X-36771864Y5223036D01*
X-36774665Y5194600D01*
X-36771935Y5166879D01*
X-36776847Y1247152D01*
X-38429250Y1244900D01*
X-38588000Y1086150D01*
X-38588000Y-469600D01*
X-38568000Y-469600D01*
X-38568000Y-723600D01*
X-38588000Y-723600D01*
X-38588000Y-2279350D01*
X-38429250Y-2438100D01*
X-36781468Y-2440346D01*
X-36782656Y-3388757D01*
X-41255000Y-3388757D01*
X-41329689Y-3396113D01*
X-41401508Y-3417899D01*
X-41467696Y-3453278D01*
X-41525711Y-3500889D01*
X-41573322Y-3558904D01*
X-41608701Y-3625092D01*
X-41630487Y-3696911D01*
X-41637843Y-3771600D01*
X-41637843Y-4241500D01*
X-46271500Y-4241500D01*
X-46271500Y-1803100D01*
X-41893072Y-1803100D01*
X-41880812Y-1927582D01*
X-41844502Y-2047280D01*
X-41785537Y-2157594D01*
X-41706185Y-2254285D01*
X-41609494Y-2333637D01*
X-41499180Y-2392602D01*
X-41379482Y-2428912D01*
X-41255000Y-2441172D01*
X-39000750Y-2438100D01*
X-38842000Y-2279350D01*
X-38842000Y-723600D01*
X-41731250Y-723600D01*
X-41890000Y-882350D01*
X-41893072Y-1803100D01*
X-46271500Y-1803100D01*
X-46271500Y-518610D01*
X-46263521Y-533538D01*
X-46112752Y-717252D01*
X-45929038Y-868021D01*
X-45719441Y-980053D01*
X-45492015Y-1049042D01*
X-45314763Y-1066500D01*
X-43545237Y-1066500D01*
X-43367985Y-1049042D01*
X-43140559Y-980053D01*
X-42930962Y-868021D01*
X-42747248Y-717252D01*
X-42596479Y-533538D01*
X-42484447Y-323941D01*
X-42415458Y-96515D01*
X-42392163Y140000D01*
X-42415458Y376515D01*
X-42484447Y603941D01*
X-42487632Y609900D01*
X-41893072Y609900D01*
X-41890000Y-310850D01*
X-41731250Y-469600D01*
X-38842000Y-469600D01*
X-38842000Y1086150D01*
X-39000750Y1244900D01*
X-41255000Y1247972D01*
X-41379482Y1235712D01*
X-41499180Y1199402D01*
X-41609494Y1140437D01*
X-41706185Y1061085D01*
X-41785537Y964394D01*
X-41844502Y854080D01*
X-41880812Y734382D01*
X-41893072Y609900D01*
X-42487632Y609900D01*
X-42596479Y813538D01*
X-42747248Y997252D01*
X-42930962Y1148021D01*
X-43140559Y1260053D01*
X-43367985Y1329042D01*
X-43545237Y1346500D01*
X-45314763Y1346500D01*
X-45492015Y1329042D01*
X-45719441Y1260053D01*
X-45929038Y1148021D01*
X-46112752Y997252D01*
X-46263521Y813538D01*
X-46271500Y798610D01*
X-46271500Y3025673D01*
X-43556343Y5740829D01*
X-43529697Y5762697D01*
X-43507829Y5789343D01*
X-43507826Y5789346D01*
X-43442409Y5869056D01*
X-43377549Y5990402D01*
X-43377548Y5990403D01*
X-43337607Y6122070D01*
X-43327500Y6224691D01*
X-43327500Y6224702D01*
X-43324122Y6259000D01*
X-43327500Y6293298D01*
X-43327500Y7555349D01*
X-43135013Y7635080D01*
X-42826933Y7840932D01*
X-42564932Y8102933D01*
X-42359080Y8411013D01*
X-42217286Y8753333D01*
X-42145000Y9116738D01*
X-42145000Y9487262D01*
X-42217286Y9850667D01*
X-42359080Y10192987D01*
X-42564932Y10501067D01*
X-42826933Y10763068D01*
X-43135013Y10968920D01*
X-43327500Y11048651D01*
X-43327500Y12110347D01*
X-38838048Y12110347D01*
X-38682038Y11794786D01*
X-38307255Y11603980D01*
X-37902449Y11489956D01*
X-37483176Y11457098D01*
X-37065549Y11506666D01*
X-36665617Y11636757D01*
X-36369962Y11794786D01*
X-36213952Y12110347D01*
X-37526000Y13422395D01*
X-38838048Y12110347D01*
X-43327500Y12110347D01*
X-43327500Y13067703D01*
X-43324122Y13102001D01*
X-43327500Y13136299D01*
X-43327500Y13136309D01*
X-43337607Y13238930D01*
X-43377548Y13370597D01*
X-43402211Y13416738D01*
X-43442409Y13491944D01*
X-43497584Y13559176D01*
X-39670902Y13559176D01*
X-39621334Y13141549D01*
X-39491243Y12741617D01*
X-39333214Y12445962D01*
X-39017653Y12289952D01*
X-37705605Y13602000D01*
X-39017653Y14914048D01*
X-39333214Y14758038D01*
X-39524020Y14383255D01*
X-39638044Y13978449D01*
X-39670902Y13559176D01*
X-43497584Y13559176D01*
X-43507826Y13571655D01*
X-43507834Y13571663D01*
X-43529697Y13598303D01*
X-43556337Y13620166D01*
X-45029824Y15093653D01*
X-38838048Y15093653D01*
X-37526000Y13781605D01*
X-36213952Y15093653D01*
X-36369962Y15409214D01*
X-36744745Y15600020D01*
X-37149551Y15714044D01*
X-37568824Y15746902D01*
X-37986451Y15697334D01*
X-38386383Y15567243D01*
X-38682038Y15409214D01*
X-38838048Y15093653D01*
X-45029824Y15093653D01*
X-48797017Y18860845D01*
X-48717286Y19053333D01*
X-48645000Y19416738D01*
X-48645000Y19787262D01*
X-39407000Y19787262D01*
X-39407000Y19416738D01*
X-39334714Y19053333D01*
X-39192920Y18711013D01*
X-38987068Y18402933D01*
X-38725067Y18140932D01*
X-38416987Y17935080D01*
X-38074667Y17793286D01*
X-37711262Y17721000D01*
X-37340738Y17721000D01*
X-36977333Y17793286D01*
X-36635013Y17935080D01*
X-36326933Y18140932D01*
X-36064932Y18402933D01*
X-35859080Y18711013D01*
X-35717286Y19053333D01*
X-35645000Y19416738D01*
X-35645000Y19787262D01*
X-35717286Y20150667D01*
X-35859080Y20492987D01*
X-36064932Y20801067D01*
X-36326933Y21063068D01*
X-36635013Y21268920D01*
X-36977333Y21410714D01*
X-37340738Y21483000D01*
X-37711262Y21483000D01*
X-38074667Y21410714D01*
X-38416987Y21268920D01*
X-38725067Y21063068D01*
X-38987068Y20801067D01*
X-39192920Y20492987D01*
X-39334714Y20150667D01*
X-39407000Y19787262D01*
X-48645000Y19787262D01*
X-48717286Y20150667D01*
X-48859080Y20492987D01*
X-49064932Y20801067D01*
X-49326933Y21063068D01*
X-49635013Y21268920D01*
X-49977333Y21410714D01*
X-50340738Y21483000D01*
X-50711262Y21483000D01*
X-51074667Y21410714D01*
X-51416987Y21268920D01*
X-51725067Y21063068D01*
X-51987068Y20801067D01*
X-52192920Y20492987D01*
X-52334714Y20150667D01*
X-52407000Y19787262D01*
X-52407000Y19416738D01*
X-52334714Y19053333D01*
X-52192920Y18711013D01*
X-51987068Y18402933D01*
X-51725067Y18140932D01*
X-51416987Y17935080D01*
X-51074667Y17793286D01*
X-50711262Y17721000D01*
X-50340738Y17721000D01*
X-49977333Y17793286D01*
X-49784845Y17873017D01*
X-44724499Y12812670D01*
X-44724500Y11048651D01*
X-44916987Y10968920D01*
X-45225067Y10763068D01*
X-45487068Y10501067D01*
X-45692920Y10192987D01*
X-45834714Y9850667D01*
X-45907000Y9487262D01*
X-45907000Y9116738D01*
X-45834714Y8753333D01*
X-45692920Y8411013D01*
X-45487068Y8102933D01*
X-45225067Y7840932D01*
X-44916987Y7635080D01*
X-44724499Y7555349D01*
X-44724499Y6548329D01*
X-47439656Y3833171D01*
X-47466303Y3811302D01*
X-47488171Y3784656D01*
X-47488174Y3784653D01*
X-47553591Y3704943D01*
X-47595038Y3627401D01*
X-47618452Y3583596D01*
X-47658393Y3451929D01*
X-47668500Y3349308D01*
X-47668500Y3349298D01*
X-47671878Y3315000D01*
X-47668500Y3280702D01*
X-47668499Y-4241500D01*
X-48571501Y-4241500D01*
X-48602445Y-4195189D01*
X-48765189Y-4032445D01*
X-48956555Y-3904578D01*
X-49153034Y-3823193D01*
X-48884804Y-3727737D01*
X-48753367Y-3657481D01*
X-48678696Y-3410909D01*
X-49510000Y-2579605D01*
X-50341304Y-3410909D01*
X-50266633Y-3657481D01*
X-50006772Y-3780931D01*
X-49856482Y-3818850D01*
X-50063445Y-3904578D01*
X-50254811Y-4032445D01*
X-50417555Y-4195189D01*
X-50545422Y-4386555D01*
X-50633499Y-4599190D01*
X-50678400Y-4824923D01*
X-50678400Y-5055077D01*
X-50633499Y-5280810D01*
X-50545422Y-5493445D01*
X-50417555Y-5684811D01*
X-50254811Y-5847555D01*
X-50063445Y-5975422D01*
X-49850810Y-6063499D01*
X-49625077Y-6108400D01*
X-49394923Y-6108400D01*
X-49169190Y-6063499D01*
X-48956555Y-5975422D01*
X-48765189Y-5847555D01*
X-48602445Y-5684811D01*
X-48571501Y-5638500D01*
X-47004308Y-5638500D01*
X-46970000Y-5641879D01*
X-46935691Y-5638500D01*
X-41637843Y-5638500D01*
X-41637843Y-6057600D01*
X-41630487Y-6132289D01*
X-41608701Y-6204108D01*
X-41573322Y-6270296D01*
X-41525711Y-6328311D01*
X-41467696Y-6375922D01*
X-41401508Y-6411301D01*
X-41329689Y-6433087D01*
X-41255000Y-6440443D01*
X-36786480Y-6440443D01*
X-36787669Y-7388863D01*
X-38429250Y-7391100D01*
X-38588000Y-7549850D01*
X-38588000Y-9105600D01*
X-38568000Y-9105600D01*
X-38568000Y-9359600D01*
X-38588000Y-9359600D01*
X-38588000Y-10915350D01*
X-38429250Y-11074100D01*
X-36792289Y-11076331D01*
X-36797264Y-15046161D01*
X-36800065Y-15074600D01*
X-36794514Y-15130966D01*
X-36789170Y-15185928D01*
X-36789067Y-15186269D01*
X-36789031Y-15186634D01*
X-36772545Y-15240981D01*
X-36756626Y-15293696D01*
X-36756459Y-15294010D01*
X-36756352Y-15294362D01*
X-36729635Y-15344347D01*
X-36703683Y-15393046D01*
X-36703456Y-15393323D01*
X-36703284Y-15393645D01*
X-36667416Y-15437351D01*
X-36632375Y-15480157D01*
X-36632100Y-15480384D01*
X-36631867Y-15480667D01*
X-36588117Y-15516571D01*
X-36545443Y-15551683D01*
X-36545128Y-15551852D01*
X-36544845Y-15552084D01*
X-36495078Y-15578685D01*
X-36446226Y-15604876D01*
X-36445883Y-15604981D01*
X-36445562Y-15605152D01*
X-36391755Y-15621474D01*
X-36338539Y-15637690D01*
X-36338181Y-15637726D01*
X-36337834Y-15637831D01*
X-36281860Y-15643344D01*
X-36226519Y-15648864D01*
X-36198091Y-15646100D01*
X-35478035Y-15646100D01*
X-35484968Y-18229372D01*
X-114343500Y-18211629D01*
X-114343500Y-13131500D01*
X-113673074Y-13131500D01*
X-113645000Y-13134265D01*
X-113616926Y-13131500D01*
X-113532966Y-13123231D01*
X-113425238Y-13090552D01*
X-113325955Y-13037484D01*
X-113238933Y-12966067D01*
X-113167516Y-12879045D01*
X-113114448Y-12779762D01*
X-113081769Y-12672034D01*
X-113070735Y-12560000D01*
X-113073500Y-12531926D01*
X-113073500Y-11050993D01*
X-111390750Y-11048700D01*
X-111232000Y-10889950D01*
X-111232000Y-9334200D01*
X-110978000Y-9334200D01*
X-110978000Y-10889950D01*
X-110819250Y-11048700D01*
X-108565000Y-11051772D01*
X-108440518Y-11039512D01*
X-108320820Y-11003202D01*
X-108210506Y-10944237D01*
X-108113815Y-10864885D01*
X-108034463Y-10768194D01*
X-107975498Y-10657880D01*
X-107939188Y-10538182D01*
X-107926928Y-10413700D01*
X-107928241Y-10020000D01*
X-107427837Y-10020000D01*
X-107404542Y-10256515D01*
X-107335553Y-10483941D01*
X-107223521Y-10693538D01*
X-107072752Y-10877252D01*
X-106889038Y-11028021D01*
X-106679441Y-11140053D01*
X-106452015Y-11209042D01*
X-106274763Y-11226500D01*
X-104505237Y-11226500D01*
X-104327985Y-11209042D01*
X-104100559Y-11140053D01*
X-103890962Y-11028021D01*
X-103783421Y-10939765D01*
X-97516000Y-10939765D01*
X-97516000Y-11640235D01*
X-97379345Y-12327247D01*
X-97111286Y-12974398D01*
X-96722126Y-13556818D01*
X-96226818Y-14052126D01*
X-95644398Y-14441286D01*
X-94997247Y-14709345D01*
X-94310235Y-14846000D01*
X-93609765Y-14846000D01*
X-92922753Y-14709345D01*
X-92275602Y-14441286D01*
X-91693182Y-14052126D01*
X-91197874Y-13556818D01*
X-90808714Y-12974398D01*
X-90540655Y-12327247D01*
X-90404000Y-11640235D01*
X-90404000Y-10939765D01*
X-90540655Y-10252753D01*
X-90808714Y-9605602D01*
X-90886823Y-9488702D01*
X-75977097Y-9488702D01*
X-75905514Y-9732671D01*
X-75650004Y-9853571D01*
X-75375816Y-9922300D01*
X-75093488Y-9936217D01*
X-74813870Y-9894787D01*
X-74547708Y-9799603D01*
X-74422486Y-9732671D01*
X-74350903Y-9488702D01*
X-75164000Y-8675605D01*
X-75977097Y-9488702D01*
X-90886823Y-9488702D01*
X-91197874Y-9023182D01*
X-91654544Y-8566512D01*
X-76604217Y-8566512D01*
X-76562787Y-8846130D01*
X-76467603Y-9112292D01*
X-76400671Y-9237514D01*
X-76156702Y-9309097D01*
X-75343605Y-8496000D01*
X-74984395Y-8496000D01*
X-74171298Y-9309097D01*
X-73927329Y-9237514D01*
X-73806429Y-8982004D01*
X-73737700Y-8707816D01*
X-73723783Y-8425488D01*
X-73765213Y-8145870D01*
X-73860397Y-7879708D01*
X-73927329Y-7754486D01*
X-74171298Y-7682903D01*
X-74984395Y-8496000D01*
X-75343605Y-8496000D01*
X-76156702Y-7682903D01*
X-76400671Y-7754486D01*
X-76521571Y-8009996D01*
X-76590300Y-8284184D01*
X-76604217Y-8566512D01*
X-91654544Y-8566512D01*
X-91693182Y-8527874D01*
X-92275602Y-8138714D01*
X-92695703Y-7964702D01*
X-88169097Y-7964702D01*
X-88097514Y-8208671D01*
X-87842004Y-8329571D01*
X-87567816Y-8398300D01*
X-87285488Y-8412217D01*
X-87005870Y-8370787D01*
X-86739708Y-8275603D01*
X-86614486Y-8208671D01*
X-86542903Y-7964702D01*
X-87356000Y-7151605D01*
X-88169097Y-7964702D01*
X-92695703Y-7964702D01*
X-92922753Y-7870655D01*
X-93609765Y-7734000D01*
X-94310235Y-7734000D01*
X-94997247Y-7870655D01*
X-95644398Y-8138714D01*
X-96226818Y-8527874D01*
X-96722126Y-9023182D01*
X-97111286Y-9605602D01*
X-97379345Y-10252753D01*
X-97516000Y-10939765D01*
X-103783421Y-10939765D01*
X-103707248Y-10877252D01*
X-103556479Y-10693538D01*
X-103444447Y-10483941D01*
X-103375458Y-10256515D01*
X-103352163Y-10020000D01*
X-103375458Y-9783485D01*
X-103444447Y-9556059D01*
X-103556479Y-9346462D01*
X-103707248Y-9162748D01*
X-103890962Y-9011979D01*
X-104100559Y-8899947D01*
X-104327985Y-8830958D01*
X-104505237Y-8813500D01*
X-106274763Y-8813500D01*
X-106452015Y-8830958D01*
X-106679441Y-8899947D01*
X-106889038Y-9011979D01*
X-107072752Y-9162748D01*
X-107223521Y-9346462D01*
X-107335553Y-9556059D01*
X-107404542Y-9783485D01*
X-107427837Y-10020000D01*
X-107928241Y-10020000D01*
X-107930000Y-9492950D01*
X-108088750Y-9334200D01*
X-110978000Y-9334200D01*
X-111232000Y-9334200D01*
X-111252000Y-9334200D01*
X-111252000Y-9080200D01*
X-111232000Y-9080200D01*
X-111232000Y-7524450D01*
X-110978000Y-7524450D01*
X-110978000Y-9080200D01*
X-108088750Y-9080200D01*
X-107930000Y-8921450D01*
X-107928564Y-8490909D01*
X-101141304Y-8490909D01*
X-101066633Y-8737481D01*
X-100806772Y-8860931D01*
X-100527820Y-8931313D01*
X-100240498Y-8945921D01*
X-99955846Y-8904194D01*
X-99684804Y-8807737D01*
X-99553367Y-8737481D01*
X-99478696Y-8490909D01*
X-100310000Y-7659605D01*
X-101141304Y-8490909D01*
X-107928564Y-8490909D01*
X-107926928Y-8000700D01*
X-107939188Y-7876218D01*
X-107975498Y-7756520D01*
X-108034463Y-7646206D01*
X-108113815Y-7549515D01*
X-108113830Y-7549502D01*
X-101775921Y-7549502D01*
X-101734194Y-7834154D01*
X-101637737Y-8105196D01*
X-101567481Y-8236633D01*
X-101320909Y-8311304D01*
X-100489605Y-7480000D01*
X-100130395Y-7480000D01*
X-99299091Y-8311304D01*
X-99052519Y-8236633D01*
X-98929069Y-7976772D01*
X-98858687Y-7697820D01*
X-98844079Y-7410498D01*
X-98885806Y-7125846D01*
X-98915462Y-7042512D01*
X-88796217Y-7042512D01*
X-88754787Y-7322130D01*
X-88659603Y-7588292D01*
X-88592671Y-7713514D01*
X-88348702Y-7785097D01*
X-87535605Y-6972000D01*
X-87176395Y-6972000D01*
X-86363298Y-7785097D01*
X-86119329Y-7713514D01*
X-86019861Y-7503298D01*
X-75977097Y-7503298D01*
X-75164000Y-8316395D01*
X-74350903Y-7503298D01*
X-74422486Y-7259329D01*
X-74677996Y-7138429D01*
X-74952184Y-7069700D01*
X-75234512Y-7055783D01*
X-75514130Y-7097213D01*
X-75780292Y-7192397D01*
X-75905514Y-7259329D01*
X-75977097Y-7503298D01*
X-86019861Y-7503298D01*
X-85998429Y-7458004D01*
X-85929700Y-7183816D01*
X-85915783Y-6901488D01*
X-85957213Y-6621870D01*
X-86052397Y-6355708D01*
X-86119329Y-6230486D01*
X-86363298Y-6158903D01*
X-87176395Y-6972000D01*
X-87535605Y-6972000D01*
X-88348702Y-6158903D01*
X-88592671Y-6230486D01*
X-88713571Y-6485996D01*
X-88782300Y-6760184D01*
X-88796217Y-7042512D01*
X-98915462Y-7042512D01*
X-98982263Y-6854804D01*
X-99052519Y-6723367D01*
X-99299091Y-6648696D01*
X-100130395Y-7480000D01*
X-100489605Y-7480000D01*
X-101320909Y-6648696D01*
X-101567481Y-6723367D01*
X-101690931Y-6983228D01*
X-101761313Y-7262180D01*
X-101775921Y-7549502D01*
X-108113830Y-7549502D01*
X-108210506Y-7470163D01*
X-108320820Y-7411198D01*
X-108440518Y-7374888D01*
X-108565000Y-7362628D01*
X-110819250Y-7365700D01*
X-110978000Y-7524450D01*
X-111232000Y-7524450D01*
X-111390750Y-7365700D01*
X-113073500Y-7363407D01*
X-113073500Y-6415043D01*
X-108565000Y-6415043D01*
X-108490311Y-6407687D01*
X-108418492Y-6385901D01*
X-108352304Y-6350522D01*
X-108294289Y-6302911D01*
X-108246678Y-6244896D01*
X-108211299Y-6178708D01*
X-108189513Y-6106889D01*
X-108182157Y-6032200D01*
X-108182157Y-5638500D01*
X-101248499Y-5638500D01*
X-101217555Y-5684811D01*
X-101054811Y-5847555D01*
X-100863445Y-5975422D01*
X-100666966Y-6056807D01*
X-100935196Y-6152263D01*
X-101066633Y-6222519D01*
X-101141304Y-6469091D01*
X-100310000Y-7300395D01*
X-99478696Y-6469091D01*
X-99553367Y-6222519D01*
X-99813228Y-6099069D01*
X-99963518Y-6061150D01*
X-99765913Y-5979298D01*
X-88169097Y-5979298D01*
X-87356000Y-6792395D01*
X-86542903Y-5979298D01*
X-86614486Y-5735329D01*
X-86869996Y-5614429D01*
X-87144184Y-5545700D01*
X-87426512Y-5531783D01*
X-87706130Y-5573213D01*
X-87972292Y-5668397D01*
X-88097514Y-5735329D01*
X-88169097Y-5979298D01*
X-99765913Y-5979298D01*
X-99756555Y-5975422D01*
X-99565189Y-5847555D01*
X-99402445Y-5684811D01*
X-99274578Y-5493445D01*
X-99186501Y-5280810D01*
X-99141600Y-5055077D01*
X-99141600Y-4824923D01*
X-99186501Y-4599190D01*
X-99274578Y-4386555D01*
X-99402445Y-4195189D01*
X-99565189Y-4032445D01*
X-99611500Y-4001501D01*
X-99611500Y-1855682D01*
X-88537000Y-1855682D01*
X-88537000Y-2088318D01*
X-88491614Y-2316485D01*
X-88402588Y-2531413D01*
X-88273342Y-2724843D01*
X-88108843Y-2889342D01*
X-87915413Y-3018588D01*
X-87700485Y-3107614D01*
X-87472318Y-3153000D01*
X-87239682Y-3153000D01*
X-87011515Y-3107614D01*
X-86796587Y-3018588D01*
X-86603157Y-2889342D01*
X-86438658Y-2724843D01*
X-86309412Y-2531413D01*
X-86220386Y-2316485D01*
X-86175000Y-2088318D01*
X-86175000Y-1855682D01*
X-86220386Y-1627515D01*
X-86309412Y-1412587D01*
X-86438658Y-1219157D01*
X-86603157Y-1054658D01*
X-86657500Y-1018347D01*
X-86657500Y2943500D01*
X-82039539Y2943500D01*
X-81843900Y2862464D01*
X-81625394Y2819000D01*
X-81402606Y2819000D01*
X-81184100Y2862464D01*
X-80978271Y2947721D01*
X-80793030Y3071495D01*
X-80635495Y3229030D01*
X-80511721Y3414271D01*
X-80426464Y3620100D01*
X-80383000Y3838606D01*
X-80383000Y4007394D01*
X-76803000Y4007394D01*
X-76803000Y3784606D01*
X-76759536Y3566100D01*
X-76674279Y3360271D01*
X-76550505Y3175030D01*
X-76392970Y3017495D01*
X-76370500Y3002481D01*
X-76370499Y-2619692D01*
X-76373878Y-2654000D01*
X-76360392Y-2790929D01*
X-76320491Y-2922467D01*
X-76345000Y-3045682D01*
X-76345000Y-3278318D01*
X-76299614Y-3506485D01*
X-76210588Y-3721413D01*
X-76081342Y-3914843D01*
X-75916843Y-4079342D01*
X-75723413Y-4208588D01*
X-75508485Y-4297614D01*
X-75280318Y-4343000D01*
X-75047682Y-4343000D01*
X-74819515Y-4297614D01*
X-74604587Y-4208588D01*
X-74411157Y-4079342D01*
X-74246658Y-3914843D01*
X-74117412Y-3721413D01*
X-74028386Y-3506485D01*
X-73983000Y-3278318D01*
X-73983000Y-3045682D01*
X-71345000Y-3045682D01*
X-71345000Y-3278318D01*
X-71299614Y-3506485D01*
X-71210588Y-3721413D01*
X-71081342Y-3914843D01*
X-70916843Y-4079342D01*
X-70862500Y-4115653D01*
X-70862499Y-7542347D01*
X-70916843Y-7578658D01*
X-71081342Y-7743157D01*
X-71210588Y-7936587D01*
X-71299614Y-8151515D01*
X-71345000Y-8379682D01*
X-71345000Y-8612318D01*
X-71299614Y-8840485D01*
X-71210588Y-9055413D01*
X-71081342Y-9248843D01*
X-70916843Y-9413342D01*
X-70723413Y-9542588D01*
X-70508485Y-9631614D01*
X-70280318Y-9677000D01*
X-70047682Y-9677000D01*
X-69819515Y-9631614D01*
X-69604587Y-9542588D01*
X-69411157Y-9413342D01*
X-69246658Y-9248843D01*
X-69117412Y-9055413D01*
X-69028386Y-8840485D01*
X-68983000Y-8612318D01*
X-68983000Y-8379682D01*
X-69028386Y-8151515D01*
X-69117412Y-7936587D01*
X-69246658Y-7743157D01*
X-69411157Y-7578658D01*
X-69465500Y-7542347D01*
X-69465500Y-4115653D01*
X-69411157Y-4079342D01*
X-69246658Y-3914843D01*
X-69117412Y-3721413D01*
X-69028386Y-3506485D01*
X-68983000Y-3278318D01*
X-68983000Y-3045682D01*
X-69028386Y-2817515D01*
X-69117412Y-2602587D01*
X-69246658Y-2409157D01*
X-69411157Y-2244658D01*
X-69465500Y-2208347D01*
X-69465500Y2822796D01*
X-69294271Y2893721D01*
X-69109030Y3017495D01*
X-68951495Y3175030D01*
X-68827721Y3360271D01*
X-68742464Y3566100D01*
X-68699000Y3784606D01*
X-68699000Y4007394D01*
X-65119000Y4007394D01*
X-65119000Y3784606D01*
X-65075536Y3566100D01*
X-64990279Y3360271D01*
X-64866505Y3175030D01*
X-64708970Y3017495D01*
X-64686500Y3002481D01*
X-64686499Y-2461773D01*
X-64780588Y-2602587D01*
X-64869614Y-2817515D01*
X-64915000Y-3045682D01*
X-64915000Y-3278318D01*
X-64869614Y-3506485D01*
X-64780588Y-3721413D01*
X-64651342Y-3914843D01*
X-64486843Y-4079342D01*
X-64432500Y-4115653D01*
X-64432499Y-7796347D01*
X-64486843Y-7832658D01*
X-64651342Y-7997157D01*
X-64780588Y-8190587D01*
X-64869614Y-8405515D01*
X-64915000Y-8633682D01*
X-64915000Y-8866318D01*
X-64869614Y-9094485D01*
X-64780588Y-9309413D01*
X-64651342Y-9502843D01*
X-64486843Y-9667342D01*
X-64293413Y-9796588D01*
X-64078485Y-9885614D01*
X-63850318Y-9931000D01*
X-63617682Y-9931000D01*
X-63389515Y-9885614D01*
X-63174587Y-9796588D01*
X-63093942Y-9742702D01*
X-59547097Y-9742702D01*
X-59475514Y-9986671D01*
X-59220004Y-10107571D01*
X-58945816Y-10176300D01*
X-58663488Y-10190217D01*
X-58383870Y-10148787D01*
X-58117708Y-10053603D01*
X-58054841Y-10020000D01*
X-46467837Y-10020000D01*
X-46444542Y-10256515D01*
X-46375553Y-10483941D01*
X-46263521Y-10693538D01*
X-46112752Y-10877252D01*
X-45929038Y-11028021D01*
X-45719441Y-11140053D01*
X-45492015Y-11209042D01*
X-45314763Y-11226500D01*
X-43545237Y-11226500D01*
X-43367985Y-11209042D01*
X-43140559Y-11140053D01*
X-42930962Y-11028021D01*
X-42747248Y-10877252D01*
X-42596479Y-10693538D01*
X-42484447Y-10483941D01*
X-42470845Y-10439100D01*
X-41893072Y-10439100D01*
X-41880812Y-10563582D01*
X-41844502Y-10683280D01*
X-41785537Y-10793594D01*
X-41706185Y-10890285D01*
X-41609494Y-10969637D01*
X-41499180Y-11028602D01*
X-41379482Y-11064912D01*
X-41255000Y-11077172D01*
X-39000750Y-11074100D01*
X-38842000Y-10915350D01*
X-38842000Y-9359600D01*
X-41731250Y-9359600D01*
X-41890000Y-9518350D01*
X-41893072Y-10439100D01*
X-42470845Y-10439100D01*
X-42415458Y-10256515D01*
X-42392163Y-10020000D01*
X-42415458Y-9783485D01*
X-42484447Y-9556059D01*
X-42596479Y-9346462D01*
X-42747248Y-9162748D01*
X-42930962Y-9011979D01*
X-43140559Y-8899947D01*
X-43367985Y-8830958D01*
X-43545237Y-8813500D01*
X-45314763Y-8813500D01*
X-45492015Y-8830958D01*
X-45719441Y-8899947D01*
X-45929038Y-9011979D01*
X-46112752Y-9162748D01*
X-46263521Y-9346462D01*
X-46375553Y-9556059D01*
X-46444542Y-9783485D01*
X-46467837Y-10020000D01*
X-58054841Y-10020000D01*
X-57992486Y-9986671D01*
X-57920903Y-9742702D01*
X-58734000Y-8929605D01*
X-59547097Y-9742702D01*
X-63093942Y-9742702D01*
X-62981157Y-9667342D01*
X-62816658Y-9502843D01*
X-62687412Y-9309413D01*
X-62598386Y-9094485D01*
X-62553000Y-8866318D01*
X-62553000Y-8820512D01*
X-60174217Y-8820512D01*
X-60132787Y-9100130D01*
X-60037603Y-9366292D01*
X-59970671Y-9491514D01*
X-59726702Y-9563097D01*
X-58913605Y-8750000D01*
X-58554395Y-8750000D01*
X-57741298Y-9563097D01*
X-57497329Y-9491514D01*
X-57376429Y-9236004D01*
X-57307700Y-8961816D01*
X-57293783Y-8679488D01*
X-57335213Y-8399870D01*
X-57430397Y-8133708D01*
X-57487914Y-8026100D01*
X-41893072Y-8026100D01*
X-41890000Y-8946850D01*
X-41731250Y-9105600D01*
X-38842000Y-9105600D01*
X-38842000Y-7549850D01*
X-39000750Y-7391100D01*
X-41255000Y-7388028D01*
X-41379482Y-7400288D01*
X-41499180Y-7436598D01*
X-41609494Y-7495563D01*
X-41706185Y-7574915D01*
X-41785537Y-7671606D01*
X-41844502Y-7781920D01*
X-41880812Y-7901618D01*
X-41893072Y-8026100D01*
X-57487914Y-8026100D01*
X-57497329Y-8008486D01*
X-57741298Y-7936903D01*
X-58554395Y-8750000D01*
X-58913605Y-8750000D01*
X-59726702Y-7936903D01*
X-59970671Y-8008486D01*
X-60091571Y-8263996D01*
X-60160300Y-8538184D01*
X-60174217Y-8820512D01*
X-62553000Y-8820512D01*
X-62553000Y-8633682D01*
X-62598386Y-8405515D01*
X-62687412Y-8190587D01*
X-62816658Y-7997157D01*
X-62981157Y-7832658D01*
X-63035500Y-7796347D01*
X-63035500Y-7757298D01*
X-59547097Y-7757298D01*
X-58734000Y-8570395D01*
X-57920903Y-7757298D01*
X-57992486Y-7513329D01*
X-58247996Y-7392429D01*
X-58522184Y-7323700D01*
X-58804512Y-7309783D01*
X-59084130Y-7351213D01*
X-59350292Y-7446397D01*
X-59475514Y-7513329D01*
X-59547097Y-7757298D01*
X-63035500Y-7757298D01*
X-63035500Y-4115653D01*
X-62981157Y-4079342D01*
X-62816658Y-3914843D01*
X-62687412Y-3721413D01*
X-62598386Y-3506485D01*
X-62553000Y-3278318D01*
X-62553000Y-3045682D01*
X-59915000Y-3045682D01*
X-59915000Y-3278318D01*
X-59869614Y-3506485D01*
X-59780588Y-3721413D01*
X-59651342Y-3914843D01*
X-59486843Y-4079342D01*
X-59293413Y-4208588D01*
X-59078485Y-4297614D01*
X-58850318Y-4343000D01*
X-58617682Y-4343000D01*
X-58389515Y-4297614D01*
X-58174587Y-4208588D01*
X-57981157Y-4079342D01*
X-57816658Y-3914843D01*
X-57687412Y-3721413D01*
X-57598386Y-3506485D01*
X-57553000Y-3278318D01*
X-57553000Y-3045682D01*
X-57598386Y-2817515D01*
X-57687412Y-2602587D01*
X-57776336Y-2469502D01*
X-50975921Y-2469502D01*
X-50934194Y-2754154D01*
X-50837737Y-3025196D01*
X-50767481Y-3156633D01*
X-50520909Y-3231304D01*
X-49689605Y-2400000D01*
X-49330395Y-2400000D01*
X-48499091Y-3231304D01*
X-48252519Y-3156633D01*
X-48129069Y-2896772D01*
X-48058687Y-2617820D01*
X-48044079Y-2330498D01*
X-48085806Y-2045846D01*
X-48182263Y-1774804D01*
X-48252519Y-1643367D01*
X-48499091Y-1568696D01*
X-49330395Y-2400000D01*
X-49689605Y-2400000D01*
X-50520909Y-1568696D01*
X-50767481Y-1643367D01*
X-50890931Y-1903228D01*
X-50961313Y-2182180D01*
X-50975921Y-2469502D01*
X-57776336Y-2469502D01*
X-57816658Y-2409157D01*
X-57981157Y-2244658D01*
X-58035500Y-2208347D01*
X-58035500Y-1389091D01*
X-50341304Y-1389091D01*
X-49510000Y-2220395D01*
X-48678696Y-1389091D01*
X-48753367Y-1142519D01*
X-49013228Y-1019069D01*
X-49292180Y-948687D01*
X-49579502Y-934079D01*
X-49864154Y-975806D01*
X-50135196Y-1072263D01*
X-50266633Y-1142519D01*
X-50341304Y-1389091D01*
X-58035500Y-1389091D01*
X-58035500Y2819000D01*
X-58034606Y2819000D01*
X-57816100Y2862464D01*
X-57610271Y2947721D01*
X-57425030Y3071495D01*
X-57267495Y3229030D01*
X-57143721Y3414271D01*
X-57058464Y3620100D01*
X-57015000Y3838606D01*
X-57015000Y4061394D01*
X-57058464Y4279900D01*
X-57143721Y4485729D01*
X-57267495Y4670970D01*
X-57425030Y4828505D01*
X-57610271Y4952279D01*
X-57816100Y5037536D01*
X-58034606Y5081000D01*
X-58257394Y5081000D01*
X-58475900Y5037536D01*
X-58681729Y4952279D01*
X-58866970Y4828505D01*
X-59024505Y4670970D01*
X-59148279Y4485729D01*
X-59233536Y4279900D01*
X-59277000Y4061394D01*
X-59277000Y3838606D01*
X-59271043Y3808661D01*
X-59317591Y3751943D01*
X-59382451Y3630598D01*
X-59422392Y3498929D01*
X-59435878Y3362000D01*
X-59432499Y3327692D01*
X-59432500Y-2208347D01*
X-59486843Y-2244658D01*
X-59651342Y-2409157D01*
X-59780588Y-2602587D01*
X-59869614Y-2817515D01*
X-59915000Y-3045682D01*
X-62553000Y-3045682D01*
X-62598386Y-2817515D01*
X-62687412Y-2602587D01*
X-62816658Y-2409157D01*
X-62981157Y-2244658D01*
X-63174587Y-2115412D01*
X-63289500Y-2067814D01*
X-63289500Y3002481D01*
X-63267030Y3017495D01*
X-63109495Y3175030D01*
X-62985721Y3360271D01*
X-62900464Y3566100D01*
X-62857000Y3784606D01*
X-62857000Y4007394D01*
X-62900464Y4225900D01*
X-62985721Y4431729D01*
X-63109495Y4616970D01*
X-63267030Y4774505D01*
X-63452271Y4898279D01*
X-63658100Y4983536D01*
X-63876606Y5027000D01*
X-64099394Y5027000D01*
X-64317900Y4983536D01*
X-64523729Y4898279D01*
X-64708970Y4774505D01*
X-64866505Y4616970D01*
X-64990279Y4431729D01*
X-65075536Y4225900D01*
X-65119000Y4007394D01*
X-68699000Y4007394D01*
X-68742464Y4225900D01*
X-68827721Y4431729D01*
X-68951495Y4616970D01*
X-69109030Y4774505D01*
X-69294271Y4898279D01*
X-69500100Y4983536D01*
X-69718606Y5027000D01*
X-69941394Y5027000D01*
X-70159900Y4983536D01*
X-70365729Y4898279D01*
X-70550970Y4774505D01*
X-70708505Y4616970D01*
X-70832279Y4431729D01*
X-70917536Y4225900D01*
X-70961000Y4007394D01*
X-70961000Y3784606D01*
X-70917536Y3566100D01*
X-70862499Y3433229D01*
X-70862500Y-2208347D01*
X-70916843Y-2244658D01*
X-71081342Y-2409157D01*
X-71210588Y-2602587D01*
X-71299614Y-2817515D01*
X-71345000Y-3045682D01*
X-73983000Y-3045682D01*
X-74028386Y-2817515D01*
X-74117412Y-2602587D01*
X-74246658Y-2409157D01*
X-74411157Y-2244658D01*
X-74604587Y-2115412D01*
X-74819515Y-2026386D01*
X-74973500Y-1995756D01*
X-74973500Y3002481D01*
X-74951030Y3017495D01*
X-74793495Y3175030D01*
X-74669721Y3360271D01*
X-74584464Y3566100D01*
X-74541000Y3784606D01*
X-74541000Y4007394D01*
X-74584464Y4225900D01*
X-74669721Y4431729D01*
X-74793495Y4616970D01*
X-74951030Y4774505D01*
X-75136271Y4898279D01*
X-75342100Y4983536D01*
X-75560606Y5027000D01*
X-75783394Y5027000D01*
X-76001900Y4983536D01*
X-76207729Y4898279D01*
X-76392970Y4774505D01*
X-76550505Y4616970D01*
X-76674279Y4431729D01*
X-76759536Y4225900D01*
X-76803000Y4007394D01*
X-80383000Y4007394D01*
X-80383000Y4061394D01*
X-80426464Y4279900D01*
X-80511721Y4485729D01*
X-80635495Y4670970D01*
X-80793030Y4828505D01*
X-80978271Y4952279D01*
X-81184100Y5037536D01*
X-81402606Y5081000D01*
X-81625394Y5081000D01*
X-81843900Y5037536D01*
X-82049729Y4952279D01*
X-82234970Y4828505D01*
X-82392505Y4670970D01*
X-82516279Y4485729D01*
X-82576435Y4340500D01*
X-86315933Y4340500D01*
X-86353721Y4431729D01*
X-86477495Y4616970D01*
X-86635030Y4774505D01*
X-86820271Y4898279D01*
X-87026100Y4983536D01*
X-87244606Y5027000D01*
X-87467394Y5027000D01*
X-87685900Y4983536D01*
X-87891729Y4898279D01*
X-88076970Y4774505D01*
X-88234505Y4616970D01*
X-88358279Y4431729D01*
X-88443536Y4225900D01*
X-88487000Y4007394D01*
X-88487000Y3784606D01*
X-88443536Y3566100D01*
X-88358279Y3360271D01*
X-88234505Y3175030D01*
X-88076970Y3017495D01*
X-88054499Y3002480D01*
X-88054500Y-1018347D01*
X-88108843Y-1054658D01*
X-88273342Y-1219157D01*
X-88402588Y-1412587D01*
X-88491614Y-1627515D01*
X-88537000Y-1855682D01*
X-99611500Y-1855682D01*
X-99611500Y1725702D01*
X-99608122Y1760000D01*
X-99611500Y1794298D01*
X-99611500Y1794309D01*
X-99621607Y1896930D01*
X-99661548Y2028597D01*
X-99661549Y2028599D01*
X-99726409Y2149944D01*
X-99791826Y2229654D01*
X-99791829Y2229657D01*
X-99813697Y2256303D01*
X-99840343Y2278171D01*
X-102821172Y5259000D01*
X-93543072Y5259000D01*
X-93530812Y5134518D01*
X-93494502Y5014820D01*
X-93435537Y4904506D01*
X-93356185Y4807815D01*
X-93259494Y4728463D01*
X-93149180Y4669498D01*
X-93029482Y4633188D01*
X-92905000Y4620928D01*
X-92340750Y4624000D01*
X-92182000Y4782750D01*
X-92182000Y5982000D01*
X-91928000Y5982000D01*
X-91928000Y4782750D01*
X-91769250Y4624000D01*
X-91205000Y4620928D01*
X-91080518Y4633188D01*
X-90960820Y4669498D01*
X-90850506Y4728463D01*
X-90753815Y4807815D01*
X-90674463Y4904506D01*
X-90615498Y5014820D01*
X-90579188Y5134518D01*
X-90566928Y5259000D01*
X-54681072Y5259000D01*
X-54668812Y5134518D01*
X-54632502Y5014820D01*
X-54573537Y4904506D01*
X-54494185Y4807815D01*
X-54397494Y4728463D01*
X-54287180Y4669498D01*
X-54167482Y4633188D01*
X-54043000Y4620928D01*
X-53478750Y4624000D01*
X-53320000Y4782750D01*
X-53320000Y5982000D01*
X-53066000Y5982000D01*
X-53066000Y4782750D01*
X-52907250Y4624000D01*
X-52343000Y4620928D01*
X-52218518Y4633188D01*
X-52098820Y4669498D01*
X-51988506Y4728463D01*
X-51891815Y4807815D01*
X-51812463Y4904506D01*
X-51753498Y5014820D01*
X-51717188Y5134518D01*
X-51704928Y5259000D01*
X-51708000Y5823250D01*
X-51866750Y5982000D01*
X-53066000Y5982000D01*
X-53320000Y5982000D01*
X-54519250Y5982000D01*
X-54678000Y5823250D01*
X-54681072Y5259000D01*
X-90566928Y5259000D01*
X-90570000Y5823250D01*
X-90728750Y5982000D01*
X-91928000Y5982000D01*
X-92182000Y5982000D01*
X-93381250Y5982000D01*
X-93540000Y5823250D01*
X-93543072Y5259000D01*
X-102821172Y5259000D01*
X-104521172Y6959000D01*
X-93543072Y6959000D01*
X-93540000Y6394750D01*
X-93381250Y6236000D01*
X-92182000Y6236000D01*
X-92182000Y7435250D01*
X-91928000Y7435250D01*
X-91928000Y6236000D01*
X-90728750Y6236000D01*
X-90570000Y6394750D01*
X-90566928Y6959000D01*
X-54681072Y6959000D01*
X-54678000Y6394750D01*
X-54519250Y6236000D01*
X-53320000Y6236000D01*
X-53320000Y7435250D01*
X-53066000Y7435250D01*
X-53066000Y6236000D01*
X-51866750Y6236000D01*
X-51708000Y6394750D01*
X-51704928Y6959000D01*
X-51717188Y7083482D01*
X-51753498Y7203180D01*
X-51812463Y7313494D01*
X-51891815Y7410185D01*
X-51988506Y7489537D01*
X-52098820Y7548502D01*
X-52218518Y7584812D01*
X-52343000Y7597072D01*
X-52907250Y7594000D01*
X-53066000Y7435250D01*
X-53320000Y7435250D01*
X-53478750Y7594000D01*
X-54043000Y7597072D01*
X-54167482Y7584812D01*
X-54287180Y7548502D01*
X-54397494Y7489537D01*
X-54494185Y7410185D01*
X-54573537Y7313494D01*
X-54632502Y7203180D01*
X-54668812Y7083482D01*
X-54681072Y6959000D01*
X-90566928Y6959000D01*
X-90579188Y7083482D01*
X-90615498Y7203180D01*
X-90674463Y7313494D01*
X-90753815Y7410185D01*
X-90850506Y7489537D01*
X-90960820Y7548502D01*
X-91080518Y7584812D01*
X-91205000Y7597072D01*
X-91769250Y7594000D01*
X-91928000Y7435250D01*
X-92182000Y7435250D01*
X-92340750Y7594000D01*
X-92905000Y7597072D01*
X-93029482Y7584812D01*
X-93149180Y7548502D01*
X-93259494Y7489537D01*
X-93356185Y7410185D01*
X-93435537Y7313494D01*
X-93494502Y7203180D01*
X-93530812Y7083482D01*
X-93543072Y6959000D01*
X-104521172Y6959000D01*
X-105481519Y7919347D01*
X-103273048Y7919347D01*
X-103117038Y7603786D01*
X-102742255Y7412980D01*
X-102337449Y7298956D01*
X-101918176Y7266098D01*
X-101500549Y7315666D01*
X-101100617Y7445757D01*
X-100804962Y7603786D01*
X-100648952Y7919347D01*
X-101961000Y9231395D01*
X-103273048Y7919347D01*
X-105481519Y7919347D01*
X-106232018Y8669845D01*
X-106152286Y8862333D01*
X-106080000Y9225738D01*
X-106080000Y9368176D01*
X-104105902Y9368176D01*
X-104056334Y8950549D01*
X-103926243Y8550617D01*
X-103768214Y8254962D01*
X-103452653Y8098952D01*
X-102140605Y9411000D01*
X-101781395Y9411000D01*
X-100469347Y8098952D01*
X-100153786Y8254962D01*
X-99962980Y8629745D01*
X-99848956Y9034551D01*
X-99816098Y9453824D01*
X-99865666Y9871451D01*
X-99995757Y10271383D01*
X-100153786Y10567038D01*
X-100469347Y10723048D01*
X-101781395Y9411000D01*
X-102140605Y9411000D01*
X-103452653Y10723048D01*
X-103768214Y10567038D01*
X-103959020Y10192255D01*
X-104073044Y9787449D01*
X-104105902Y9368176D01*
X-106080000Y9368176D01*
X-106080000Y9596262D01*
X-106152286Y9959667D01*
X-106232017Y10152155D01*
X-105481519Y10902653D01*
X-103273048Y10902653D01*
X-101961000Y9590605D01*
X-100648952Y10902653D01*
X-100804962Y11218214D01*
X-101179745Y11409020D01*
X-101584551Y11523044D01*
X-102003824Y11555902D01*
X-102421451Y11506334D01*
X-102821383Y11376243D01*
X-103117038Y11218214D01*
X-103273048Y10902653D01*
X-105481519Y10902653D01*
X-101171671Y15212500D01*
X-99407651Y15212500D01*
X-99327920Y15020013D01*
X-99122068Y14711933D01*
X-98860067Y14449932D01*
X-98551987Y14244080D01*
X-98209667Y14102286D01*
X-97846262Y14030000D01*
X-97475738Y14030000D01*
X-97112333Y14102286D01*
X-96770013Y14244080D01*
X-96461933Y14449932D01*
X-96199932Y14711933D01*
X-95994080Y15020013D01*
X-95852286Y15362333D01*
X-95780000Y15725738D01*
X-95780000Y16096262D01*
X-95852286Y16459667D01*
X-95994080Y16801987D01*
X-96199932Y17110067D01*
X-96461933Y17372068D01*
X-96770013Y17577920D01*
X-97112333Y17719714D01*
X-97475738Y17792000D01*
X-97846262Y17792000D01*
X-98209667Y17719714D01*
X-98551987Y17577920D01*
X-98860067Y17372068D01*
X-99122068Y17110067D01*
X-99327920Y16801987D01*
X-99407651Y16609500D01*
X-101426703Y16609500D01*
X-101461001Y16612878D01*
X-101495299Y16609500D01*
X-101495309Y16609500D01*
X-101597930Y16599393D01*
X-101729597Y16559452D01*
X-101729599Y16559451D01*
X-101850944Y16494591D01*
X-101930655Y16429174D01*
X-101930663Y16429166D01*
X-101957303Y16407303D01*
X-101979166Y16380663D01*
X-107219845Y11139983D01*
X-107412333Y11219714D01*
X-107775738Y11292000D01*
X-108146262Y11292000D01*
X-108509667Y11219714D01*
X-108851987Y11077920D01*
X-109160067Y10872068D01*
X-109422068Y10610067D01*
X-109627920Y10301987D01*
X-109769714Y9959667D01*
X-109842000Y9596262D01*
X-109842000Y9225738D01*
X-109769714Y8862333D01*
X-109627920Y8520013D01*
X-109422068Y8211933D01*
X-109160067Y7949932D01*
X-108851987Y7744080D01*
X-108509667Y7602286D01*
X-108146262Y7530000D01*
X-107775738Y7530000D01*
X-107412333Y7602286D01*
X-107219845Y7682018D01*
X-101008499Y1470671D01*
X-101008500Y-4001501D01*
X-101054811Y-4032445D01*
X-101217555Y-4195189D01*
X-101248499Y-4241500D01*
X-108182157Y-4241500D01*
X-108182157Y-3746200D01*
X-108189513Y-3671511D01*
X-108211299Y-3599692D01*
X-108246678Y-3533504D01*
X-108294289Y-3475489D01*
X-108352304Y-3427878D01*
X-108418492Y-3392499D01*
X-108490311Y-3370713D01*
X-108565000Y-3363357D01*
X-113073500Y-3363357D01*
X-113073500Y-2414993D01*
X-111390750Y-2412700D01*
X-111232000Y-2253950D01*
X-111232000Y-698200D01*
X-110978000Y-698200D01*
X-110978000Y-2253950D01*
X-110819250Y-2412700D01*
X-108565000Y-2415772D01*
X-108440518Y-2403512D01*
X-108320820Y-2367202D01*
X-108210506Y-2308237D01*
X-108113815Y-2228885D01*
X-108034463Y-2132194D01*
X-107975498Y-2021880D01*
X-107939188Y-1902182D01*
X-107926928Y-1777700D01*
X-107930000Y-856950D01*
X-108088750Y-698200D01*
X-110978000Y-698200D01*
X-111232000Y-698200D01*
X-111252000Y-698200D01*
X-111252000Y-444200D01*
X-111232000Y-444200D01*
X-111232000Y1111550D01*
X-110978000Y1111550D01*
X-110978000Y-444200D01*
X-108088750Y-444200D01*
X-107930000Y-285450D01*
X-107928581Y140000D01*
X-107427837Y140000D01*
X-107404542Y-96515D01*
X-107335553Y-323941D01*
X-107223521Y-533538D01*
X-107072752Y-717252D01*
X-106889038Y-868021D01*
X-106679441Y-980053D01*
X-106452015Y-1049042D01*
X-106274763Y-1066500D01*
X-104505237Y-1066500D01*
X-104327985Y-1049042D01*
X-104100559Y-980053D01*
X-103890962Y-868021D01*
X-103707248Y-717252D01*
X-103556479Y-533538D01*
X-103444447Y-323941D01*
X-103375458Y-96515D01*
X-103352163Y140000D01*
X-103375458Y376515D01*
X-103444447Y603941D01*
X-103556479Y813538D01*
X-103707248Y997252D01*
X-103890962Y1148021D01*
X-104100559Y1260053D01*
X-104327985Y1329042D01*
X-104505237Y1346500D01*
X-106274763Y1346500D01*
X-106452015Y1329042D01*
X-106679441Y1260053D01*
X-106889038Y1148021D01*
X-107072752Y997252D01*
X-107223521Y813538D01*
X-107335553Y603941D01*
X-107404542Y376515D01*
X-107427837Y140000D01*
X-107928581Y140000D01*
X-107926928Y635300D01*
X-107939188Y759782D01*
X-107975498Y879480D01*
X-108034463Y989794D01*
X-108113815Y1086485D01*
X-108210506Y1165837D01*
X-108320820Y1224802D01*
X-108440518Y1261112D01*
X-108565000Y1273372D01*
X-110819250Y1270300D01*
X-110978000Y1111550D01*
X-111232000Y1111550D01*
X-111390750Y1270300D01*
X-113073500Y1272593D01*
X-113073500Y3286927D01*
X-113070735Y3315000D01*
X-113081769Y3427034D01*
X-113114448Y3534762D01*
X-113167516Y3634045D01*
X-113238933Y3721067D01*
X-113325955Y3792484D01*
X-113425238Y3845552D01*
X-113532966Y3878231D01*
X-113616926Y3886500D01*
X-113645000Y3889265D01*
X-113673074Y3886500D01*
X-114343500Y3886500D01*
X-114343500Y16096262D01*
X-114142000Y16096262D01*
X-114142000Y15725738D01*
X-114069714Y15362333D01*
X-113927920Y15020013D01*
X-113722068Y14711933D01*
X-113460067Y14449932D01*
X-113151987Y14244080D01*
X-112809667Y14102286D01*
X-112446262Y14030000D01*
X-112075738Y14030000D01*
X-111712333Y14102286D01*
X-111370013Y14244080D01*
X-111061933Y14449932D01*
X-110799932Y14711933D01*
X-110594080Y15020013D01*
X-110452286Y15362333D01*
X-110380000Y15725738D01*
X-110380000Y16096262D01*
X-110452286Y16459667D01*
X-110594080Y16801987D01*
X-110799932Y17110067D01*
X-111061933Y17372068D01*
X-111370013Y17577920D01*
X-111712333Y17719714D01*
X-112075738Y17792000D01*
X-112446262Y17792000D01*
X-112809667Y17719714D01*
X-113151987Y17577920D01*
X-113460067Y17372068D01*
X-113722068Y17110067D01*
X-113927920Y16801987D01*
X-114069714Y16459667D01*
X-114142000Y16096262D01*
X-114343500Y16096262D01*
X-114343500Y22596262D01*
X-109842000Y22596262D01*
X-109842000Y22225738D01*
X-109769714Y21862333D01*
X-109627920Y21520013D01*
X-109422068Y21211933D01*
X-109160067Y20949932D01*
X-108851987Y20744080D01*
X-108509667Y20602286D01*
X-108146262Y20530000D01*
X-107775738Y20530000D01*
X-107412333Y20602286D01*
X-107070013Y20744080D01*
X-106761933Y20949932D01*
X-106499932Y21211933D01*
X-106294080Y21520013D01*
X-106152286Y21862333D01*
X-106080000Y22225738D01*
X-106080000Y22596262D01*
X-103842000Y22596262D01*
X-103842000Y22225738D01*
X-103769714Y21862333D01*
X-103627920Y21520013D01*
X-103422068Y21211933D01*
X-103160067Y20949932D01*
X-102851987Y20744080D01*
X-102509667Y20602286D01*
X-102146262Y20530000D01*
X-101775738Y20530000D01*
X-101412333Y20602286D01*
X-101070013Y20744080D01*
X-100761933Y20949932D01*
X-100499932Y21211933D01*
X-100294080Y21520013D01*
X-100286008Y21539500D01*
X-93389653Y21539500D01*
X-93353342Y21485157D01*
X-93188843Y21320658D01*
X-93054499Y21230892D01*
X-93054500Y16587653D01*
X-93108843Y16551342D01*
X-93273342Y16386843D01*
X-93402588Y16193413D01*
X-93491614Y15978485D01*
X-93537000Y15750318D01*
X-93537000Y15517682D01*
X-93491614Y15289515D01*
X-93402588Y15074587D01*
X-93273342Y14881157D01*
X-93108843Y14716658D01*
X-92915413Y14587412D01*
X-92700485Y14498386D01*
X-92472318Y14453000D01*
X-92239682Y14453000D01*
X-92011515Y14498386D01*
X-91796587Y14587412D01*
X-91603157Y14716658D01*
X-91438658Y14881157D01*
X-91309412Y15074587D01*
X-91220386Y15289515D01*
X-91175000Y15517682D01*
X-91175000Y15750318D01*
X-88537000Y15750318D01*
X-88537000Y15517682D01*
X-88491614Y15289515D01*
X-88402588Y15074587D01*
X-88273342Y14881157D01*
X-88108843Y14716658D01*
X-88054500Y14680347D01*
X-88054499Y9669520D01*
X-88076970Y9654505D01*
X-88234505Y9496970D01*
X-88358279Y9311729D01*
X-88443536Y9105900D01*
X-88487000Y8887394D01*
X-88487000Y8664606D01*
X-88443536Y8446100D01*
X-88358279Y8240271D01*
X-88234505Y8055030D01*
X-88076970Y7897495D01*
X-87891729Y7773721D01*
X-87685900Y7688464D01*
X-87467394Y7645000D01*
X-87244606Y7645000D01*
X-87026100Y7688464D01*
X-86820271Y7773721D01*
X-86635030Y7897495D01*
X-86477495Y8055030D01*
X-86353721Y8240271D01*
X-86268464Y8446100D01*
X-86225000Y8664606D01*
X-86225000Y8887394D01*
X-86235741Y8941394D01*
X-82645000Y8941394D01*
X-82645000Y8718606D01*
X-82601536Y8500100D01*
X-82516279Y8294271D01*
X-82392505Y8109030D01*
X-82234970Y7951495D01*
X-82049729Y7827721D01*
X-81843900Y7742464D01*
X-81625394Y7699000D01*
X-81402606Y7699000D01*
X-81184100Y7742464D01*
X-80978271Y7827721D01*
X-80793030Y7951495D01*
X-80635495Y8109030D01*
X-80620481Y8131500D01*
X-76601601Y8131500D01*
X-76550505Y8055030D01*
X-76392970Y7897495D01*
X-76207729Y7773721D01*
X-76001900Y7688464D01*
X-75783394Y7645000D01*
X-75560606Y7645000D01*
X-75342100Y7688464D01*
X-75136271Y7773721D01*
X-74951030Y7897495D01*
X-74793495Y8055030D01*
X-74669721Y8240271D01*
X-74584464Y8446100D01*
X-74541000Y8664606D01*
X-74541000Y8887394D01*
X-70961000Y8887394D01*
X-70961000Y8664606D01*
X-70917536Y8446100D01*
X-70832279Y8240271D01*
X-70708505Y8055030D01*
X-70550970Y7897495D01*
X-70365729Y7773721D01*
X-70159900Y7688464D01*
X-69941394Y7645000D01*
X-69718606Y7645000D01*
X-69500100Y7688464D01*
X-69294271Y7773721D01*
X-69109030Y7897495D01*
X-68951495Y8055030D01*
X-68827721Y8240271D01*
X-68742464Y8446100D01*
X-68699000Y8664606D01*
X-68699000Y8887394D01*
X-68742464Y9105900D01*
X-68827721Y9311729D01*
X-68951495Y9496970D01*
X-69109030Y9654505D01*
X-69131500Y9669519D01*
X-69131500Y14539814D01*
X-69016587Y14587412D01*
X-68823157Y14716658D01*
X-68658658Y14881157D01*
X-68529412Y15074587D01*
X-68440386Y15289515D01*
X-68395000Y15517682D01*
X-68395000Y15750318D01*
X-65757000Y15750318D01*
X-65757000Y15517682D01*
X-65711614Y15289515D01*
X-65622588Y15074587D01*
X-65493342Y14881157D01*
X-65328843Y14716658D01*
X-65135413Y14587412D01*
X-64920485Y14498386D01*
X-64692318Y14453000D01*
X-64686499Y14453000D01*
X-64686500Y9669519D01*
X-64708970Y9654505D01*
X-64866505Y9496970D01*
X-64990279Y9311729D01*
X-65075536Y9105900D01*
X-65119000Y8887394D01*
X-65119000Y8664606D01*
X-65075536Y8446100D01*
X-64990279Y8240271D01*
X-64866505Y8055030D01*
X-64708970Y7897495D01*
X-64523729Y7773721D01*
X-64317900Y7688464D01*
X-64099394Y7645000D01*
X-63876606Y7645000D01*
X-63658100Y7688464D01*
X-63452271Y7773721D01*
X-63267030Y7897495D01*
X-63109495Y8055030D01*
X-62985721Y8240271D01*
X-62900464Y8446100D01*
X-62857000Y8664606D01*
X-62857000Y8887394D01*
X-62900464Y9105900D01*
X-62985721Y9311729D01*
X-63109495Y9496970D01*
X-63267030Y9654505D01*
X-63289500Y9669519D01*
X-63289500Y15011702D01*
X-63286122Y15046000D01*
X-63289500Y15080298D01*
X-63289500Y15080309D01*
X-63299607Y15182930D01*
X-63339548Y15314597D01*
X-63404409Y15435943D01*
X-63409923Y15442661D01*
X-63399250Y15496318D01*
X-59327000Y15496318D01*
X-59327000Y15263682D01*
X-59281614Y15035515D01*
X-59192588Y14820587D01*
X-59063342Y14627157D01*
X-58898843Y14462658D01*
X-58844499Y14426347D01*
X-58844500Y9723519D01*
X-58866970Y9708505D01*
X-59024505Y9550970D01*
X-59148279Y9365729D01*
X-59233536Y9159900D01*
X-59277000Y8941394D01*
X-59277000Y8718606D01*
X-59233536Y8500100D01*
X-59148279Y8294271D01*
X-59024505Y8109030D01*
X-58866970Y7951495D01*
X-58681729Y7827721D01*
X-58475900Y7742464D01*
X-58257394Y7699000D01*
X-58034606Y7699000D01*
X-57816100Y7742464D01*
X-57610271Y7827721D01*
X-57425030Y7951495D01*
X-57267495Y8109030D01*
X-57143721Y8294271D01*
X-57058464Y8500100D01*
X-57015000Y8718606D01*
X-57015000Y8941394D01*
X-57058464Y9159900D01*
X-57143721Y9365729D01*
X-57267495Y9550970D01*
X-57425030Y9708505D01*
X-57447500Y9723519D01*
X-57447500Y14426347D01*
X-57393157Y14462658D01*
X-57228658Y14627157D01*
X-57192347Y14681500D01*
X-52593327Y14681500D01*
X-52254983Y14343155D01*
X-52334714Y14150667D01*
X-52407000Y13787262D01*
X-52407000Y13416738D01*
X-52334714Y13053333D01*
X-52192920Y12711013D01*
X-51987068Y12402933D01*
X-51725067Y12140932D01*
X-51416987Y11935080D01*
X-51074667Y11793286D01*
X-50711262Y11721000D01*
X-50340738Y11721000D01*
X-49977333Y11793286D01*
X-49635013Y11935080D01*
X-49326933Y12140932D01*
X-49064932Y12402933D01*
X-48859080Y12711013D01*
X-48717286Y13053333D01*
X-48645000Y13416738D01*
X-48645000Y13787262D01*
X-48717286Y14150667D01*
X-48859080Y14492987D01*
X-49064932Y14801067D01*
X-49326933Y15063068D01*
X-49635013Y15268920D01*
X-49977333Y15410714D01*
X-50340738Y15483000D01*
X-50711262Y15483000D01*
X-51074667Y15410714D01*
X-51267155Y15330983D01*
X-51785826Y15849653D01*
X-51807697Y15876303D01*
X-51914057Y15963591D01*
X-52035403Y16028452D01*
X-52167070Y16068393D01*
X-52269691Y16078500D01*
X-52269702Y16078500D01*
X-52304000Y16081878D01*
X-52338298Y16078500D01*
X-57192347Y16078500D01*
X-57228658Y16132843D01*
X-57393157Y16297342D01*
X-57586587Y16426588D01*
X-57801515Y16515614D01*
X-58029682Y16561000D01*
X-58262318Y16561000D01*
X-58490485Y16515614D01*
X-58705413Y16426588D01*
X-58898843Y16297342D01*
X-59063342Y16132843D01*
X-59192588Y15939413D01*
X-59281614Y15724485D01*
X-59327000Y15496318D01*
X-63399250Y15496318D01*
X-63395000Y15517682D01*
X-63395000Y15750318D01*
X-63440386Y15978485D01*
X-63529412Y16193413D01*
X-63658658Y16386843D01*
X-63823157Y16551342D01*
X-63877500Y16587653D01*
X-63877500Y19387298D01*
X-58959097Y19387298D01*
X-58887514Y19143329D01*
X-58632004Y19022429D01*
X-58357816Y18953700D01*
X-58075488Y18939783D01*
X-57795870Y18981213D01*
X-57529708Y19076397D01*
X-57404486Y19143329D01*
X-57332903Y19387298D01*
X-58146000Y20200395D01*
X-58959097Y19387298D01*
X-63877500Y19387298D01*
X-63877500Y20214893D01*
X-63743157Y20304658D01*
X-63738327Y20309488D01*
X-59586217Y20309488D01*
X-59544787Y20029870D01*
X-59449603Y19763708D01*
X-59382671Y19638486D01*
X-59138702Y19566903D01*
X-58325605Y20380000D01*
X-57966395Y20380000D01*
X-57153298Y19566903D01*
X-56909329Y19638486D01*
X-56788429Y19893996D01*
X-56719700Y20168184D01*
X-56705783Y20450512D01*
X-56747213Y20730130D01*
X-56842397Y20996292D01*
X-56909329Y21121514D01*
X-57153298Y21193097D01*
X-57966395Y20380000D01*
X-58325605Y20380000D01*
X-59138702Y21193097D01*
X-59382671Y21121514D01*
X-59503571Y20866004D01*
X-59572300Y20591816D01*
X-59586217Y20309488D01*
X-63738327Y20309488D01*
X-63578658Y20469157D01*
X-63449412Y20662587D01*
X-63360386Y20877515D01*
X-63315000Y21105682D01*
X-63315000Y21338318D01*
X-63321839Y21372702D01*
X-58959097Y21372702D01*
X-58146000Y20559605D01*
X-57332903Y21372702D01*
X-57404486Y21616671D01*
X-57659996Y21737571D01*
X-57934184Y21806300D01*
X-58216512Y21820217D01*
X-58496130Y21778787D01*
X-58762292Y21683603D01*
X-58887514Y21616671D01*
X-58959097Y21372702D01*
X-63321839Y21372702D01*
X-63360386Y21566485D01*
X-63449412Y21781413D01*
X-63578658Y21974843D01*
X-63743157Y22139342D01*
X-63936587Y22268588D01*
X-64151515Y22357614D01*
X-64379682Y22403000D01*
X-64612318Y22403000D01*
X-64840485Y22357614D01*
X-65055413Y22268588D01*
X-65248843Y22139342D01*
X-65413342Y21974843D01*
X-65542588Y21781413D01*
X-65631614Y21566485D01*
X-65677000Y21338318D01*
X-65677000Y21105682D01*
X-65631614Y20877515D01*
X-65542588Y20662587D01*
X-65413342Y20469157D01*
X-65274499Y20330314D01*
X-65274500Y16587653D01*
X-65328843Y16551342D01*
X-65493342Y16386843D01*
X-65622588Y16193413D01*
X-65711614Y15978485D01*
X-65757000Y15750318D01*
X-68395000Y15750318D01*
X-68440386Y15978485D01*
X-68529412Y16193413D01*
X-68658658Y16386843D01*
X-68823157Y16551342D01*
X-69016587Y16680588D01*
X-69231515Y16769614D01*
X-69459682Y16815000D01*
X-69692318Y16815000D01*
X-69920485Y16769614D01*
X-70135413Y16680588D01*
X-70328843Y16551342D01*
X-70493342Y16386843D01*
X-70622588Y16193413D01*
X-70711614Y15978485D01*
X-70757000Y15750318D01*
X-70757000Y15517682D01*
X-70711614Y15289515D01*
X-70622588Y15074587D01*
X-70528499Y14933773D01*
X-70528500Y9669519D01*
X-70550970Y9654505D01*
X-70708505Y9496970D01*
X-70832279Y9311729D01*
X-70917536Y9105900D01*
X-70961000Y8887394D01*
X-74541000Y8887394D01*
X-74584464Y9105900D01*
X-74669721Y9311729D01*
X-74793495Y9496970D01*
X-74951030Y9654505D01*
X-74973500Y9669519D01*
X-74973500Y13664347D01*
X-74919157Y13700658D01*
X-74754658Y13865157D01*
X-74625412Y14058587D01*
X-74536386Y14273515D01*
X-74491000Y14501682D01*
X-74491000Y14734318D01*
X-74536386Y14962485D01*
X-74625412Y15177413D01*
X-74754658Y15370843D01*
X-74919157Y15535342D01*
X-75112587Y15664588D01*
X-75327515Y15753614D01*
X-75555682Y15799000D01*
X-75788318Y15799000D01*
X-76016485Y15753614D01*
X-76231413Y15664588D01*
X-76424843Y15535342D01*
X-76589342Y15370843D01*
X-76718588Y15177413D01*
X-76807614Y14962485D01*
X-76853000Y14734318D01*
X-76853000Y14501682D01*
X-76807614Y14273515D01*
X-76718588Y14058587D01*
X-76589342Y13865157D01*
X-76424843Y13700658D01*
X-76370500Y13664347D01*
X-76370499Y9669520D01*
X-76392970Y9654505D01*
X-76518975Y9528500D01*
X-80620481Y9528500D01*
X-80635495Y9550970D01*
X-80793030Y9708505D01*
X-80978271Y9832279D01*
X-81184100Y9917536D01*
X-81402606Y9961000D01*
X-81625394Y9961000D01*
X-81843900Y9917536D01*
X-82049729Y9832279D01*
X-82234970Y9708505D01*
X-82392505Y9550970D01*
X-82516279Y9365729D01*
X-82601536Y9159900D01*
X-82645000Y8941394D01*
X-86235741Y8941394D01*
X-86268464Y9105900D01*
X-86353721Y9311729D01*
X-86477495Y9496970D01*
X-86635030Y9654505D01*
X-86657500Y9669519D01*
X-86657500Y14680347D01*
X-86603157Y14716658D01*
X-86438658Y14881157D01*
X-86309412Y15074587D01*
X-86220386Y15289515D01*
X-86175000Y15517682D01*
X-86175000Y15750318D01*
X-86220386Y15978485D01*
X-86309412Y16193413D01*
X-86438658Y16386843D01*
X-86603157Y16551342D01*
X-86796587Y16680588D01*
X-87011515Y16769614D01*
X-87239682Y16815000D01*
X-87472318Y16815000D01*
X-87700485Y16769614D01*
X-87915413Y16680588D01*
X-88108843Y16551342D01*
X-88273342Y16386843D01*
X-88402588Y16193413D01*
X-88491614Y15978485D01*
X-88537000Y15750318D01*
X-91175000Y15750318D01*
X-91220386Y15978485D01*
X-91309412Y16193413D01*
X-91438658Y16386843D01*
X-91603157Y16551342D01*
X-91657500Y16587653D01*
X-91657500Y18625298D01*
X-76485097Y18625298D01*
X-76413514Y18381329D01*
X-76158004Y18260429D01*
X-75883816Y18191700D01*
X-75601488Y18177783D01*
X-75321870Y18219213D01*
X-75055708Y18314397D01*
X-74930486Y18381329D01*
X-74858903Y18625298D01*
X-75672000Y19438395D01*
X-76485097Y18625298D01*
X-91657500Y18625298D01*
X-91657500Y19547488D01*
X-77112217Y19547488D01*
X-77070787Y19267870D01*
X-76975603Y19001708D01*
X-76908671Y18876486D01*
X-76664702Y18804903D01*
X-75851605Y19618000D01*
X-75492395Y19618000D01*
X-74679298Y18804903D01*
X-74435329Y18876486D01*
X-74314429Y19131996D01*
X-74245700Y19406184D01*
X-74231783Y19688512D01*
X-74273213Y19968130D01*
X-74366611Y20229298D01*
X-70309097Y20229298D01*
X-70237514Y19985329D01*
X-69982004Y19864429D01*
X-69707816Y19795700D01*
X-69425488Y19781783D01*
X-69145870Y19823213D01*
X-68879708Y19918397D01*
X-68754486Y19985329D01*
X-68682903Y20229298D01*
X-69496000Y21042395D01*
X-70309097Y20229298D01*
X-74366611Y20229298D01*
X-74368397Y20234292D01*
X-74435329Y20359514D01*
X-74679298Y20431097D01*
X-75492395Y19618000D01*
X-75851605Y19618000D01*
X-76664702Y20431097D01*
X-76908671Y20359514D01*
X-77029571Y20104004D01*
X-77098300Y19829816D01*
X-77112217Y19547488D01*
X-91657500Y19547488D01*
X-91657500Y20610702D01*
X-76485097Y20610702D01*
X-75672000Y19797605D01*
X-74858903Y20610702D01*
X-74930486Y20854671D01*
X-75185996Y20975571D01*
X-75460184Y21044300D01*
X-75742512Y21058217D01*
X-76022130Y21016787D01*
X-76288292Y20921603D01*
X-76413514Y20854671D01*
X-76485097Y20610702D01*
X-91657500Y20610702D01*
X-91657500Y21245298D01*
X-88249097Y21245298D01*
X-88177514Y21001329D01*
X-87922004Y20880429D01*
X-87647816Y20811700D01*
X-87365488Y20797783D01*
X-87085870Y20839213D01*
X-86819708Y20934397D01*
X-86694486Y21001329D01*
X-86650428Y21151488D01*
X-70936217Y21151488D01*
X-70894787Y20871870D01*
X-70799603Y20605708D01*
X-70732671Y20480486D01*
X-70488702Y20408903D01*
X-69675605Y21222000D01*
X-69316395Y21222000D01*
X-68503298Y20408903D01*
X-68259329Y20480486D01*
X-68138429Y20735996D01*
X-68069700Y21010184D01*
X-68055783Y21292512D01*
X-68097213Y21572130D01*
X-68192397Y21838292D01*
X-68259329Y21963514D01*
X-68503298Y22035097D01*
X-69316395Y21222000D01*
X-69675605Y21222000D01*
X-70488702Y22035097D01*
X-70732671Y21963514D01*
X-70853571Y21708004D01*
X-70922300Y21433816D01*
X-70936217Y21151488D01*
X-86650428Y21151488D01*
X-86622903Y21245298D01*
X-87436000Y22058395D01*
X-88249097Y21245298D01*
X-91657500Y21245298D01*
X-91657500Y21346315D01*
X-91518658Y21485157D01*
X-91389412Y21678587D01*
X-91300386Y21893515D01*
X-91255000Y22121682D01*
X-91255000Y22167488D01*
X-88876217Y22167488D01*
X-88834787Y21887870D01*
X-88739603Y21621708D01*
X-88672671Y21496486D01*
X-88428702Y21424903D01*
X-87615605Y22238000D01*
X-87256395Y22238000D01*
X-86443298Y21424903D01*
X-86199329Y21496486D01*
X-86078429Y21751996D01*
X-86009700Y22026184D01*
X-86000408Y22214702D01*
X-70309097Y22214702D01*
X-69496000Y21401605D01*
X-68682903Y22214702D01*
X-68754486Y22458671D01*
X-69009996Y22579571D01*
X-69284184Y22648300D01*
X-69566512Y22662217D01*
X-69846130Y22620787D01*
X-70112292Y22525603D01*
X-70237514Y22458671D01*
X-70309097Y22214702D01*
X-86000408Y22214702D01*
X-85995783Y22308512D01*
X-86037213Y22588130D01*
X-86132397Y22854292D01*
X-86199329Y22979514D01*
X-86443298Y23051097D01*
X-87256395Y22238000D01*
X-87615605Y22238000D01*
X-88428702Y23051097D01*
X-88672671Y22979514D01*
X-88793571Y22724004D01*
X-88862300Y22449816D01*
X-88876217Y22167488D01*
X-91255000Y22167488D01*
X-91255000Y22354318D01*
X-91300386Y22582485D01*
X-91389412Y22797413D01*
X-91518658Y22990843D01*
X-91683157Y23155342D01*
X-91795941Y23230702D01*
X-88249097Y23230702D01*
X-87436000Y22417605D01*
X-86622903Y23230702D01*
X-86694486Y23474671D01*
X-86949996Y23595571D01*
X-87224184Y23664300D01*
X-87506512Y23678217D01*
X-87786130Y23636787D01*
X-88052292Y23541603D01*
X-88177514Y23474671D01*
X-88249097Y23230702D01*
X-91795941Y23230702D01*
X-91876587Y23284588D01*
X-92091515Y23373614D01*
X-92319682Y23419000D01*
X-92552318Y23419000D01*
X-92780485Y23373614D01*
X-92995413Y23284588D01*
X-93188843Y23155342D01*
X-93353342Y22990843D01*
X-93389653Y22936500D01*
X-100147678Y22936500D01*
X-100152286Y22959667D01*
X-100294080Y23301987D01*
X-100499932Y23610067D01*
X-100761933Y23872068D01*
X-101070013Y24077920D01*
X-101092566Y24087262D01*
X-45907000Y24087262D01*
X-45907000Y23716738D01*
X-45834714Y23353333D01*
X-45692920Y23011013D01*
X-45487068Y22702933D01*
X-45225067Y22440932D01*
X-44916987Y22235080D01*
X-44574667Y22093286D01*
X-44211262Y22021000D01*
X-43840738Y22021000D01*
X-43477333Y22093286D01*
X-43135013Y22235080D01*
X-42826933Y22440932D01*
X-42564932Y22702933D01*
X-42359080Y23011013D01*
X-42217286Y23353333D01*
X-42145000Y23716738D01*
X-42145000Y24087262D01*
X-42217286Y24450667D01*
X-42359080Y24792987D01*
X-42564932Y25101067D01*
X-42826933Y25363068D01*
X-43135013Y25568920D01*
X-43477333Y25710714D01*
X-43840738Y25783000D01*
X-44211262Y25783000D01*
X-44574667Y25710714D01*
X-44916987Y25568920D01*
X-45225067Y25363068D01*
X-45487068Y25101067D01*
X-45692920Y24792987D01*
X-45834714Y24450667D01*
X-45907000Y24087262D01*
X-101092566Y24087262D01*
X-101412333Y24219714D01*
X-101775738Y24292000D01*
X-102146262Y24292000D01*
X-102509667Y24219714D01*
X-102851987Y24077920D01*
X-103160067Y23872068D01*
X-103422068Y23610067D01*
X-103627920Y23301987D01*
X-103769714Y22959667D01*
X-103842000Y22596262D01*
X-106080000Y22596262D01*
X-106152286Y22959667D01*
X-106294080Y23301987D01*
X-106499932Y23610067D01*
X-106761933Y23872068D01*
X-107070013Y24077920D01*
X-107412333Y24219714D01*
X-107775738Y24292000D01*
X-108146262Y24292000D01*
X-108509667Y24219714D01*
X-108851987Y24077920D01*
X-109160067Y23872068D01*
X-109422068Y23610067D01*
X-109627920Y23301987D01*
X-109769714Y22959667D01*
X-109842000Y22596262D01*
X-114343500Y22596262D01*
X-114343500Y27127500D01*
X-35451099Y27127500D01*
X-35451100Y14125269D01*
G37*
G04 #@! TD.AperFunction*
M02*
