M48
;DRILL file {Pcbnew (2013-05-31 BZR 4019)-stable} date 7/20/2013 3:51:16 PM
;FORMAT={-:-/ absolute / inch / decimal}
FMAT,2
INCH,TZ
T1C0.025
T2C0.040
T3C0.098
%
G90
G05
M72
T1
X1.22Y-1.9
X1.27Y-1.29
X1.27Y-1.77
X1.29Y-2.14
X1.4Y-1.62
X1.47Y-1.74
X1.485Y-1.91
X1.54Y-1.84
X1.58Y-1.755
X1.6Y-2.22
X1.635Y-1.035
X1.68Y-1.86
X1.69Y-1.22
X1.7Y-1.56
X1.74Y-1.51
X1.75Y-1.43
X1.805Y-1.875
X1.81Y-1.46
X1.8189Y-1.252
X1.852Y-1.584
X1.9Y-1.42
X1.9Y-1.75
X1.93Y-1.62
X1.96Y-1.76
X1.995Y-1.68
X2.Y-1.32
X2.Y-1.88
X2.01Y-1.475
X2.01Y-2.24
X2.1Y-1.84
X2.155Y-1.77
X2.19Y-1.69
X2.2Y-2.09
X2.2736Y-1.1811
X2.335Y-2.
X2.35Y-1.94
X2.36Y-1.77
X2.36Y-1.89
X2.3622Y-1.5354
X2.37Y-1.72
X2.37Y-2.07
X2.51Y-1.115
X2.53Y-1.8
X2.605Y-1.135
X2.61Y-1.53
X2.7165Y-1.5551
X2.8051Y-1.0965
X2.94Y-1.58
X2.98Y-2.06
X2.99Y-2.13
X3.Y-1.71
T2
X2.2638Y-1.3346
X2.2638Y-1.4346
X2.2638Y-1.5346
X2.2638Y-1.6346
X2.2638Y-1.7346
X2.2638Y-1.8346
X2.2736Y-2.0465
X2.2736Y-2.1465
X2.4106Y-1.3681
X2.5106Y-1.3681
X2.72Y-1.31
X2.72Y-1.41
T3
X1.8504Y-2.1949
T0
M30
