%MOIN*%
%OFA0B0*%
%FSLAX46Y46*%
%IPPOS*%
%LPD*%
%ADD10R,0.070866141732283464X0.070866141732283464*%
%ADD11C,0.070866141732283464*%
%ADD12C,0.25*%
%ADD13R,0.066929133858267723X0.066929133858267723*%
%ADD14O,0.066929133858267723X0.066929133858267723*%
%ADD15R,0.051181102362204731X0.059055118110236227*%
%ADD16R,0.059055118110236227X0.051181102362204731*%
%ADD27R,0.070866141732283464X0.070866141732283464*%
%ADD28C,0.070866141732283464*%
%ADD29C,0.25*%
%ADD30R,0.066929133858267723X0.066929133858267723*%
%ADD31O,0.066929133858267723X0.066929133858267723*%
%ADD32R,0.051181102362204731X0.059055118110236227*%
%ADD33R,0.059055118110236227X0.051181102362204731*%
%ADD34R,0.070866141732283464X0.070866141732283464*%
%ADD35C,0.070866141732283464*%
%ADD36C,0.25*%
%ADD37R,0.066929133858267723X0.066929133858267723*%
%ADD38O,0.066929133858267723X0.066929133858267723*%
%ADD39R,0.059055118110236227X0.051181102362204731*%
%ADD40R,0.051181102362204731X0.059055118110236227*%
G01*
D10*
X0000000000Y0001496062D02*
X0002180196Y0001016062D03*
D11*
X0002080196Y0001016062D03*
D10*
X0001920196Y0001016062D03*
D11*
X0001820196Y0001016062D03*
D10*
X0001640196Y0001016062D03*
D11*
X0001540196Y0001016062D03*
D10*
X0001370196Y0001016062D03*
D11*
X0001270196Y0001016062D03*
D10*
X0001090196Y0001016062D03*
D11*
X0000990196Y0001016062D03*
D10*
X0000820196Y0001016062D03*
D11*
X0000720196Y0001016062D03*
D10*
X0000540196Y0001016062D03*
D11*
X0000440196Y0001016062D03*
D12*
X0002165354Y0000157480D03*
X0002165354Y0001338582D03*
X0000157480Y0001338582D03*
X0000157480Y0000157480D03*
D13*
X0002130000Y0000436653D03*
D14*
X0002130000Y0000536653D03*
X0002130000Y0000636653D03*
D13*
X0001870000Y0000436653D03*
D14*
X0001870000Y0000536653D03*
X0001870000Y0000636653D03*
D13*
X0001590000Y0000436653D03*
D14*
X0001590000Y0000536653D03*
X0001590000Y0000636653D03*
D13*
X0001320000Y0000436653D03*
D14*
X0001320000Y0000536653D03*
X0001320000Y0000636653D03*
D13*
X0001040000Y0000436653D03*
D14*
X0001040000Y0000536653D03*
X0001040000Y0000636653D03*
D13*
X0000770000Y0000436653D03*
D14*
X0000770000Y0000536653D03*
X0000770000Y0000636653D03*
D13*
X0000490000Y0000436653D03*
D14*
X0000490000Y0000536653D03*
X0000490000Y0000636653D03*
D13*
X0000220000Y0000436653D03*
D14*
X0000220000Y0000536653D03*
X0000220000Y0000636653D03*
D10*
X0000270196Y0001016062D03*
D11*
X0000170196Y0001016062D03*
D15*
X0002244094Y0000643700D03*
X0002244094Y0000537401D03*
X0002007874Y0000643700D03*
X0002007874Y0000537401D03*
X0001732283Y0000643700D03*
X0001732283Y0000537401D03*
X0001456692Y0000643700D03*
X0001456692Y0000537401D03*
X0001181102Y0000643700D03*
X0001181102Y0000537401D03*
X0000905511Y0000643700D03*
X0000905511Y0000537401D03*
X0000629921Y0000643700D03*
X0000629921Y0000537401D03*
X0000354330Y0000643700D03*
X0000354330Y0000537401D03*
D16*
X0002112204Y0000816929D03*
X0002218503Y0000816929D03*
X0001836614Y0000816929D03*
X0001942913Y0000816929D03*
X0001561023Y0000816929D03*
X0001667322Y0000816929D03*
X0001285433Y0000826771D03*
X0001391732Y0000826771D03*
X0001009842Y0000826771D03*
X0001116141Y0000826771D03*
X0000734251Y0000826771D03*
X0000840551Y0000826771D03*
X0000458661Y0000826771D03*
X0000564960Y0000826771D03*
X0000183070Y0000826771D03*
X0000289370Y0000826771D03*
D13*
X0001614173Y0001259842D03*
D14*
X0001614173Y0001359842D03*
X0001514173Y0001259842D03*
X0001514173Y0001359842D03*
X0001414173Y0001259842D03*
X0001414173Y0001359842D03*
X0001314173Y0001259842D03*
X0001314173Y0001359842D03*
X0001214173Y0001259842D03*
X0001214173Y0001359842D03*
X0001114173Y0001259842D03*
X0001114173Y0001359842D03*
X0001014173Y0001259842D03*
X0001014173Y0001359842D03*
X0000914173Y0001259842D03*
X0000914173Y0001359842D03*
X0000814173Y0001259842D03*
X0000814173Y0001359842D03*
X0000714173Y0001259842D03*
X0000714173Y0001359842D03*
G04 next file*
G04 Gerber Fmt 4.6, Leading zero omitted, Abs format (unit mm)*
G04 Created by KiCad (PCBNEW (6.0.1)) date 2022-06-02 17:03:42*
G01*
G04 APERTURE LIST*
G04 APERTURE END LIST*
D27*
X0000000000Y0003070866D02*
X0002180196Y0002590866D03*
D28*
X0002080196Y0002590866D03*
D27*
X0001920196Y0002590866D03*
D28*
X0001820196Y0002590866D03*
D27*
X0001640196Y0002590866D03*
D28*
X0001540196Y0002590866D03*
D27*
X0001370196Y0002590866D03*
D28*
X0001270196Y0002590866D03*
D27*
X0001090196Y0002590866D03*
D28*
X0000990196Y0002590866D03*
D27*
X0000820196Y0002590866D03*
D28*
X0000720196Y0002590866D03*
D27*
X0000540196Y0002590866D03*
D28*
X0000440196Y0002590866D03*
D29*
X0002165354Y0001732283D03*
X0002165354Y0002913385D03*
X0000157480Y0002913385D03*
X0000157480Y0001732283D03*
D30*
X0002130000Y0002011456D03*
D31*
X0002130000Y0002111456D03*
X0002130000Y0002211456D03*
D30*
X0001870000Y0002011456D03*
D31*
X0001870000Y0002111456D03*
X0001870000Y0002211456D03*
D30*
X0001590000Y0002011456D03*
D31*
X0001590000Y0002111456D03*
X0001590000Y0002211456D03*
D30*
X0001320000Y0002011456D03*
D31*
X0001320000Y0002111456D03*
X0001320000Y0002211456D03*
D30*
X0001040000Y0002011456D03*
D31*
X0001040000Y0002111456D03*
X0001040000Y0002211456D03*
D30*
X0000770000Y0002011456D03*
D31*
X0000770000Y0002111456D03*
X0000770000Y0002211456D03*
D30*
X0000490000Y0002011456D03*
D31*
X0000490000Y0002111456D03*
X0000490000Y0002211456D03*
D30*
X0000220000Y0002011456D03*
D31*
X0000220000Y0002111456D03*
X0000220000Y0002211456D03*
D27*
X0000270196Y0002590866D03*
D28*
X0000170196Y0002590866D03*
D32*
X0002244094Y0002218503D03*
X0002244094Y0002112204D03*
X0002007874Y0002218503D03*
X0002007874Y0002112204D03*
X0001732283Y0002218503D03*
X0001732283Y0002112204D03*
X0001456692Y0002218503D03*
X0001456692Y0002112204D03*
X0001181102Y0002218503D03*
X0001181102Y0002112204D03*
X0000905511Y0002218503D03*
X0000905511Y0002112204D03*
X0000629921Y0002218503D03*
X0000629921Y0002112204D03*
X0000354330Y0002218503D03*
X0000354330Y0002112204D03*
D33*
X0002112204Y0002391732D03*
X0002218503Y0002391732D03*
X0001836614Y0002391732D03*
X0001942913Y0002391732D03*
X0001561023Y0002391732D03*
X0001667322Y0002391732D03*
X0001285433Y0002401574D03*
X0001391732Y0002401574D03*
X0001009842Y0002401574D03*
X0001116141Y0002401574D03*
X0000734251Y0002401574D03*
X0000840551Y0002401574D03*
X0000458661Y0002401574D03*
X0000564960Y0002401574D03*
X0000183070Y0002401574D03*
X0000289370Y0002401574D03*
D30*
X0001614173Y0002834645D03*
D31*
X0001614173Y0002934645D03*
X0001514173Y0002834645D03*
X0001514173Y0002934645D03*
X0001414173Y0002834645D03*
X0001414173Y0002934645D03*
X0001314173Y0002834645D03*
X0001314173Y0002934645D03*
X0001214173Y0002834645D03*
X0001214173Y0002934645D03*
X0001114173Y0002834645D03*
X0001114173Y0002934645D03*
X0001014173Y0002834645D03*
X0001014173Y0002934645D03*
X0000914173Y0002834645D03*
X0000914173Y0002934645D03*
X0000814173Y0002834645D03*
X0000814173Y0002934645D03*
X0000714173Y0002834645D03*
X0000714173Y0002934645D03*
G04 next file*
G04 Gerber Fmt 4.6, Leading zero omitted, Abs format (unit mm)*
G04 Created by KiCad (PCBNEW (6.0.1)) date 2022-06-02 17:03:42*
G01*
G04 APERTURE LIST*
G04 APERTURE END LIST*
D34*
X0002401574Y0000000000D02*
X0002881574Y0002180196D03*
D35*
X0002881574Y0002080196D03*
D34*
X0002881574Y0001920196D03*
D35*
X0002881574Y0001820196D03*
D34*
X0002881574Y0001640196D03*
D35*
X0002881574Y0001540196D03*
D34*
X0002881574Y0001370196D03*
D35*
X0002881574Y0001270196D03*
D34*
X0002881574Y0001090196D03*
D35*
X0002881574Y0000990196D03*
D34*
X0002881574Y0000820196D03*
D35*
X0002881574Y0000720196D03*
D34*
X0002881574Y0000540196D03*
D35*
X0002881574Y0000440196D03*
D36*
X0003740157Y0002165354D03*
X0002559055Y0002165354D03*
X0002559055Y0000157480D03*
X0003740157Y0000157480D03*
D37*
X0003460984Y0002130000D03*
D38*
X0003360984Y0002130000D03*
X0003260984Y0002130000D03*
D37*
X0003460984Y0001870000D03*
D38*
X0003360984Y0001870000D03*
X0003260984Y0001870000D03*
D37*
X0003460984Y0001590000D03*
D38*
X0003360984Y0001590000D03*
X0003260984Y0001590000D03*
D37*
X0003460984Y0001320000D03*
D38*
X0003360984Y0001320000D03*
X0003260984Y0001320000D03*
D37*
X0003460984Y0001040000D03*
D38*
X0003360984Y0001040000D03*
X0003260984Y0001040000D03*
D37*
X0003460984Y0000770000D03*
D38*
X0003360984Y0000770000D03*
X0003260984Y0000770000D03*
D37*
X0003460984Y0000489999D03*
D38*
X0003360984Y0000489999D03*
X0003260984Y0000489999D03*
D37*
X0003460984Y0000219999D03*
D38*
X0003360984Y0000219999D03*
X0003260984Y0000219999D03*
D34*
X0002881574Y0000270196D03*
D35*
X0002881574Y0000170196D03*
D39*
X0003253937Y0002244094D03*
X0003360236Y0002244094D03*
X0003253937Y0002007874D03*
X0003360236Y0002007874D03*
X0003253937Y0001732283D03*
X0003360236Y0001732283D03*
X0003253937Y0001456692D03*
X0003360236Y0001456692D03*
X0003253937Y0001181102D03*
X0003360236Y0001181102D03*
X0003253937Y0000905511D03*
X0003360236Y0000905511D03*
X0003253937Y0000629921D03*
X0003360236Y0000629921D03*
X0003253937Y0000354330D03*
X0003360236Y0000354330D03*
D40*
X0003080708Y0002112204D03*
X0003080708Y0002218503D03*
X0003080708Y0001836614D03*
X0003080708Y0001942913D03*
X0003080708Y0001561023D03*
X0003080708Y0001667322D03*
X0003070866Y0001285433D03*
X0003070866Y0001391732D03*
X0003070866Y0001009842D03*
X0003070866Y0001116141D03*
X0003070866Y0000734251D03*
X0003070866Y0000840551D03*
X0003070866Y0000458661D03*
X0003070866Y0000564960D03*
X0003070866Y0000183070D03*
X0003070866Y0000289370D03*
D37*
X0002637795Y0001614173D03*
D38*
X0002537795Y0001614173D03*
X0002637795Y0001514173D03*
X0002537795Y0001514173D03*
X0002637795Y0001414173D03*
X0002537795Y0001414173D03*
X0002637795Y0001314173D03*
X0002537795Y0001314173D03*
X0002637795Y0001214173D03*
X0002537795Y0001214173D03*
X0002637795Y0001114173D03*
X0002537795Y0001114173D03*
X0002637795Y0001014173D03*
X0002537795Y0001014173D03*
X0002637795Y0000914173D03*
X0002537795Y0000914173D03*
X0002637795Y0000814173D03*
X0002537795Y0000814173D03*
X0002637795Y0000714173D03*
X0002537795Y0000714173D03*
M02*