G04 #@! TF.GenerationSoftware,KiCad,Pcbnew,(6.0.1)*
G04 #@! TF.CreationDate,2022-08-21T08:22:37-04:00*
G04 #@! TF.ProjectId,JoyPad,4a6f7950-6164-42e6-9b69-6361645f7063,3*
G04 #@! TF.SameCoordinates,Original*
G04 #@! TF.FileFunction,Legend,Bot*
G04 #@! TF.FilePolarity,Positive*
%FSLAX46Y46*%
G04 Gerber Fmt 4.6, Leading zero omitted, Abs format (unit mm)*
G04 Created by KiCad (PCBNEW (6.0.1)) date 2022-08-21 08:22:37*
%MOMM*%
%LPD*%
G01*
G04 APERTURE LIST*
%ADD10C,0.381000*%
%ADD11C,0.304800*%
%ADD12C,0.150000*%
%ADD13C,0.650000*%
%ADD14C,0.120000*%
G04 APERTURE END LIST*
D10*
X17586778Y-42508260D02*
X17586778Y-40603260D01*
X16861064Y-40603260D01*
X16679635Y-40693975D01*
X16588921Y-40784689D01*
X16498207Y-40966117D01*
X16498207Y-41238260D01*
X16588921Y-41419689D01*
X16679635Y-41510403D01*
X16861064Y-41601117D01*
X17586778Y-41601117D01*
X15863207Y-40603260D02*
X15409635Y-42508260D01*
X15046778Y-41147546D01*
X14683921Y-42508260D01*
X14230350Y-40603260D01*
X12869635Y-41510403D02*
X12597492Y-41601117D01*
X12506778Y-41691832D01*
X12416064Y-41873260D01*
X12416064Y-42145403D01*
X12506778Y-42326832D01*
X12597492Y-42417546D01*
X12778921Y-42508260D01*
X13504635Y-42508260D01*
X13504635Y-40603260D01*
X12869635Y-40603260D01*
X12688207Y-40693975D01*
X12597492Y-40784689D01*
X12506778Y-40966117D01*
X12506778Y-41147546D01*
X12597492Y-41328975D01*
X12688207Y-41419689D01*
X12869635Y-41510403D01*
X13504635Y-41510403D01*
X16498207Y-45575310D02*
X17133207Y-44668167D01*
X17586778Y-45575310D02*
X17586778Y-43670310D01*
X16861064Y-43670310D01*
X16679635Y-43761025D01*
X16588921Y-43851739D01*
X16498207Y-44033167D01*
X16498207Y-44305310D01*
X16588921Y-44486739D01*
X16679635Y-44577453D01*
X16861064Y-44668167D01*
X17586778Y-44668167D01*
X14956064Y-45484596D02*
X15137492Y-45575310D01*
X15500350Y-45575310D01*
X15681778Y-45484596D01*
X15772492Y-45303167D01*
X15772492Y-44577453D01*
X15681778Y-44396025D01*
X15500350Y-44305310D01*
X15137492Y-44305310D01*
X14956064Y-44396025D01*
X14865350Y-44577453D01*
X14865350Y-44758882D01*
X15772492Y-44940310D01*
X14230350Y-44305310D02*
X13776778Y-45575310D01*
X13323207Y-44305310D01*
X11327492Y-43670310D02*
X10148207Y-43670310D01*
X10783207Y-44396025D01*
X10511064Y-44396025D01*
X10329635Y-44486739D01*
X10238921Y-44577453D01*
X10148207Y-44758882D01*
X10148207Y-45212453D01*
X10238921Y-45393882D01*
X10329635Y-45484596D01*
X10511064Y-45575310D01*
X11055350Y-45575310D01*
X11236778Y-45484596D01*
X11327492Y-45393882D01*
D11*
X45357142Y-27669435D02*
X44486285Y-27669435D01*
X44921714Y-29193435D02*
X44921714Y-27669435D01*
X43978285Y-28395149D02*
X43470285Y-28395149D01*
X43252571Y-29193435D02*
X43978285Y-29193435D01*
X43978285Y-27669435D01*
X43252571Y-27669435D01*
X42672000Y-29120864D02*
X42454285Y-29193435D01*
X42091428Y-29193435D01*
X41946285Y-29120864D01*
X41873714Y-29048292D01*
X41801142Y-28903149D01*
X41801142Y-28758007D01*
X41873714Y-28612864D01*
X41946285Y-28540292D01*
X42091428Y-28467721D01*
X42381714Y-28395149D01*
X42526857Y-28322578D01*
X42599428Y-28250007D01*
X42672000Y-28104864D01*
X42672000Y-27959721D01*
X42599428Y-27814578D01*
X42526857Y-27742007D01*
X42381714Y-27669435D01*
X42018857Y-27669435D01*
X41801142Y-27742007D01*
X41365714Y-27669435D02*
X40494857Y-27669435D01*
X40930285Y-29193435D02*
X40930285Y-27669435D01*
D12*
X33847066Y-33116780D02*
X34180400Y-32640590D01*
X34418495Y-33116780D02*
X34418495Y-32116780D01*
X34037542Y-32116780D01*
X33942304Y-32164400D01*
X33894685Y-32212019D01*
X33847066Y-32307257D01*
X33847066Y-32450114D01*
X33894685Y-32545352D01*
X33942304Y-32592971D01*
X34037542Y-32640590D01*
X34418495Y-32640590D01*
X33513733Y-32116780D02*
X32894685Y-32116780D01*
X33228019Y-32497733D01*
X33085161Y-32497733D01*
X32989923Y-32545352D01*
X32942304Y-32592971D01*
X32894685Y-32688209D01*
X32894685Y-32926304D01*
X32942304Y-33021542D01*
X32989923Y-33069161D01*
X33085161Y-33116780D01*
X33370876Y-33116780D01*
X33466114Y-33069161D01*
X33513733Y-33021542D01*
X24906266Y-42616380D02*
X25239600Y-42140190D01*
X25477695Y-42616380D02*
X25477695Y-41616380D01*
X25096742Y-41616380D01*
X25001504Y-41664000D01*
X24953885Y-41711619D01*
X24906266Y-41806857D01*
X24906266Y-41949714D01*
X24953885Y-42044952D01*
X25001504Y-42092571D01*
X25096742Y-42140190D01*
X25477695Y-42140190D01*
X24049123Y-41949714D02*
X24049123Y-42616380D01*
X24287219Y-41568761D02*
X24525314Y-42283047D01*
X23906266Y-42283047D01*
X15914666Y-33167580D02*
X16248000Y-32691390D01*
X16486095Y-33167580D02*
X16486095Y-32167580D01*
X16105142Y-32167580D01*
X16009904Y-32215200D01*
X15962285Y-32262819D01*
X15914666Y-32358057D01*
X15914666Y-32500914D01*
X15962285Y-32596152D01*
X16009904Y-32643771D01*
X16105142Y-32691390D01*
X16486095Y-32691390D01*
X14962285Y-33167580D02*
X15533714Y-33167580D01*
X15248000Y-33167580D02*
X15248000Y-32167580D01*
X15343238Y-32310438D01*
X15438476Y-32405676D01*
X15533714Y-32453295D01*
X24855466Y-33167580D02*
X25188800Y-32691390D01*
X25426895Y-33167580D02*
X25426895Y-32167580D01*
X25045942Y-32167580D01*
X24950704Y-32215200D01*
X24903085Y-32262819D01*
X24855466Y-32358057D01*
X24855466Y-32500914D01*
X24903085Y-32596152D01*
X24950704Y-32643771D01*
X25045942Y-32691390D01*
X25426895Y-32691390D01*
X24474514Y-32262819D02*
X24426895Y-32215200D01*
X24331657Y-32167580D01*
X24093561Y-32167580D01*
X23998323Y-32215200D01*
X23950704Y-32262819D01*
X23903085Y-32358057D01*
X23903085Y-32453295D01*
X23950704Y-32596152D01*
X24522133Y-33167580D01*
X23903085Y-33167580D01*
X25007866Y-23515580D02*
X25341200Y-23039390D01*
X25579295Y-23515580D02*
X25579295Y-22515580D01*
X25198342Y-22515580D01*
X25103104Y-22563200D01*
X25055485Y-22610819D01*
X25007866Y-22706057D01*
X25007866Y-22848914D01*
X25055485Y-22944152D01*
X25103104Y-22991771D01*
X25198342Y-23039390D01*
X25579295Y-23039390D01*
X24103104Y-22515580D02*
X24579295Y-22515580D01*
X24626914Y-22991771D01*
X24579295Y-22944152D01*
X24484057Y-22896533D01*
X24245961Y-22896533D01*
X24150723Y-22944152D01*
X24103104Y-22991771D01*
X24055485Y-23087009D01*
X24055485Y-23325104D01*
X24103104Y-23420342D01*
X24150723Y-23467961D01*
X24245961Y-23515580D01*
X24484057Y-23515580D01*
X24579295Y-23467961D01*
X24626914Y-23420342D01*
X43549866Y-16860780D02*
X43883200Y-16384590D01*
X44121295Y-16860780D02*
X44121295Y-15860780D01*
X43740342Y-15860780D01*
X43645104Y-15908400D01*
X43597485Y-15956019D01*
X43549866Y-16051257D01*
X43549866Y-16194114D01*
X43597485Y-16289352D01*
X43645104Y-16336971D01*
X43740342Y-16384590D01*
X44121295Y-16384590D01*
X42692723Y-15860780D02*
X42883200Y-15860780D01*
X42978438Y-15908400D01*
X43026057Y-15956019D01*
X43121295Y-16098876D01*
X43168914Y-16289352D01*
X43168914Y-16670304D01*
X43121295Y-16765542D01*
X43073676Y-16813161D01*
X42978438Y-16860780D01*
X42787961Y-16860780D01*
X42692723Y-16813161D01*
X42645104Y-16765542D01*
X42597485Y-16670304D01*
X42597485Y-16432209D01*
X42645104Y-16336971D01*
X42692723Y-16289352D01*
X42787961Y-16241733D01*
X42978438Y-16241733D01*
X43073676Y-16289352D01*
X43121295Y-16336971D01*
X43168914Y-16432209D01*
X34558266Y-17267180D02*
X34891600Y-16790990D01*
X35129695Y-17267180D02*
X35129695Y-16267180D01*
X34748742Y-16267180D01*
X34653504Y-16314800D01*
X34605885Y-16362419D01*
X34558266Y-16457657D01*
X34558266Y-16600514D01*
X34605885Y-16695752D01*
X34653504Y-16743371D01*
X34748742Y-16790990D01*
X35129695Y-16790990D01*
X34224933Y-16267180D02*
X33558266Y-16267180D01*
X33986838Y-17267180D01*
X15965466Y-16759180D02*
X16298800Y-16282990D01*
X16536895Y-16759180D02*
X16536895Y-15759180D01*
X16155942Y-15759180D01*
X16060704Y-15806800D01*
X16013085Y-15854419D01*
X15965466Y-15949657D01*
X15965466Y-16092514D01*
X16013085Y-16187752D01*
X16060704Y-16235371D01*
X16155942Y-16282990D01*
X16536895Y-16282990D01*
X15394038Y-16187752D02*
X15489276Y-16140133D01*
X15536895Y-16092514D01*
X15584514Y-15997276D01*
X15584514Y-15949657D01*
X15536895Y-15854419D01*
X15489276Y-15806800D01*
X15394038Y-15759180D01*
X15203561Y-15759180D01*
X15108323Y-15806800D01*
X15060704Y-15854419D01*
X15013085Y-15949657D01*
X15013085Y-15997276D01*
X15060704Y-16092514D01*
X15108323Y-16140133D01*
X15203561Y-16187752D01*
X15394038Y-16187752D01*
X15489276Y-16235371D01*
X15536895Y-16282990D01*
X15584514Y-16378228D01*
X15584514Y-16568704D01*
X15536895Y-16663942D01*
X15489276Y-16711561D01*
X15394038Y-16759180D01*
X15203561Y-16759180D01*
X15108323Y-16711561D01*
X15060704Y-16663942D01*
X15013085Y-16568704D01*
X15013085Y-16378228D01*
X15060704Y-16282990D01*
X15108323Y-16235371D01*
X15203561Y-16187752D01*
X41782380Y-11666666D02*
X42496666Y-11666666D01*
X42639523Y-11619047D01*
X42734761Y-11523809D01*
X42782380Y-11380952D01*
X42782380Y-11285714D01*
X42782380Y-12666666D02*
X42782380Y-12095238D01*
X42782380Y-12380952D02*
X41782380Y-12380952D01*
X41925238Y-12285714D01*
X42020476Y-12190476D01*
X42068095Y-12095238D01*
D13*
X40926000Y-30004000D02*
X44926000Y-30004000D01*
X44926000Y-30004000D02*
X44926000Y-34004000D01*
X44926000Y-34004000D02*
X40926000Y-34004000D01*
X40926000Y-34004000D02*
X40926000Y-30004000D01*
X40926000Y-30004000D02*
X40926000Y-30504000D01*
X40926000Y-30504000D02*
X44926000Y-30504000D01*
X44926000Y-30504000D02*
X44926000Y-31004000D01*
X44926000Y-31004000D02*
X40926000Y-31004000D01*
X40926000Y-31004000D02*
X40926000Y-31504000D01*
X40926000Y-31504000D02*
X44926000Y-31504000D01*
X44926000Y-31504000D02*
X44926000Y-32004000D01*
X44926000Y-32004000D02*
X40926000Y-32004000D01*
X40926000Y-32004000D02*
X40926000Y-32504000D01*
X40926000Y-32504000D02*
X44426000Y-32504000D01*
X44426000Y-32504000D02*
X44926000Y-32504000D01*
X44926000Y-32504000D02*
X44926000Y-33004000D01*
X44926000Y-33004000D02*
X40926000Y-33004000D01*
X40926000Y-33004000D02*
X40926000Y-33504000D01*
X40926000Y-33504000D02*
X44926000Y-33504000D01*
D14*
X33469948Y-35050800D02*
X33992452Y-35050800D01*
X33469948Y-33630800D02*
X33992452Y-33630800D01*
X24478348Y-44448800D02*
X25000852Y-44448800D01*
X24478348Y-43028800D02*
X25000852Y-43028800D01*
X15486748Y-35050800D02*
X16009252Y-35050800D01*
X15486748Y-33630800D02*
X16009252Y-33630800D01*
X24376748Y-35050800D02*
X24899252Y-35050800D01*
X24376748Y-33630800D02*
X24899252Y-33630800D01*
X24681548Y-23928000D02*
X25204052Y-23928000D01*
X24681548Y-25348000D02*
X25204052Y-25348000D01*
X43644452Y-18744000D02*
X43121948Y-18744000D01*
X43644452Y-17324000D02*
X43121948Y-17324000D01*
X34652852Y-17628800D02*
X34130348Y-17628800D01*
X34652852Y-19048800D02*
X34130348Y-19048800D01*
X15537548Y-17273200D02*
X16060052Y-17273200D01*
X15537548Y-18693200D02*
X16060052Y-18693200D01*
X10730000Y-13330000D02*
X10730000Y-10670000D01*
X41330000Y-13330000D02*
X41330000Y-12000000D01*
X40000000Y-13330000D02*
X41330000Y-13330000D01*
X38730000Y-13330000D02*
X38730000Y-10670000D01*
X38730000Y-10670000D02*
X10730000Y-10670000D01*
X38730000Y-13330000D02*
X10730000Y-13330000D01*
M02*
