G04 #@! TF.GenerationSoftware,KiCad,Pcbnew,(6.0.1)*
G04 #@! TF.CreationDate,2022-08-01T16:47:35-04:00*
G04 #@! TF.ProjectId,RS232_TTL_Male,52533233-325f-4545-944c-5f4d616c652e,1*
G04 #@! TF.SameCoordinates,Original*
G04 #@! TF.FileFunction,Copper,L1,Top*
G04 #@! TF.FilePolarity,Positive*
%FSLAX46Y46*%
G04 Gerber Fmt 4.6, Leading zero omitted, Abs format (unit mm)*
G04 Created by KiCad (PCBNEW (6.0.1)) date 2022-08-01 16:47:35*
%MOMM*%
%LPD*%
G01*
G04 APERTURE LIST*
G04 Aperture macros list*
%AMRoundRect*
0 Rectangle with rounded corners*
0 $1 Rounding radius*
0 $2 $3 $4 $5 $6 $7 $8 $9 X,Y pos of 4 corners*
0 Add a 4 corners polygon primitive as box body*
4,1,4,$2,$3,$4,$5,$6,$7,$8,$9,$2,$3,0*
0 Add four circle primitives for the rounded corners*
1,1,$1+$1,$2,$3*
1,1,$1+$1,$4,$5*
1,1,$1+$1,$6,$7*
1,1,$1+$1,$8,$9*
0 Add four rect primitives between the rounded corners*
20,1,$1+$1,$2,$3,$4,$5,0*
20,1,$1+$1,$4,$5,$6,$7,0*
20,1,$1+$1,$6,$7,$8,$9,0*
20,1,$1+$1,$8,$9,$2,$3,0*%
G04 Aperture macros list end*
G04 #@! TA.AperFunction,SMDPad,CuDef*
%ADD10RoundRect,0.250000X0.325000X0.450000X-0.325000X0.450000X-0.325000X-0.450000X0.325000X-0.450000X0*%
G04 #@! TD*
G04 #@! TA.AperFunction,SMDPad,CuDef*
%ADD11RoundRect,0.250000X-0.325000X-0.450000X0.325000X-0.450000X0.325000X0.450000X-0.325000X0.450000X0*%
G04 #@! TD*
G04 #@! TA.AperFunction,ComponentPad*
%ADD12R,1.600000X1.600000*%
G04 #@! TD*
G04 #@! TA.AperFunction,ComponentPad*
%ADD13C,1.600000*%
G04 #@! TD*
G04 #@! TA.AperFunction,ComponentPad*
%ADD14C,4.000000*%
G04 #@! TD*
G04 #@! TA.AperFunction,SMDPad,CuDef*
%ADD15R,1.500000X0.600000*%
G04 #@! TD*
G04 #@! TA.AperFunction,ComponentPad*
%ADD16R,1.700000X1.700000*%
G04 #@! TD*
G04 #@! TA.AperFunction,ComponentPad*
%ADD17O,1.700000X1.700000*%
G04 #@! TD*
G04 #@! TA.AperFunction,ComponentPad*
%ADD18C,6.350000*%
G04 #@! TD*
G04 #@! TA.AperFunction,SMDPad,CuDef*
%ADD19RoundRect,0.250001X0.462499X0.624999X-0.462499X0.624999X-0.462499X-0.624999X0.462499X-0.624999X0*%
G04 #@! TD*
G04 #@! TA.AperFunction,ViaPad*
%ADD20C,0.800000*%
G04 #@! TD*
G04 #@! TA.AperFunction,Conductor*
%ADD21C,0.250000*%
G04 #@! TD*
G04 APERTURE END LIST*
D10*
X164347000Y-83312000D03*
X162297000Y-83312000D03*
X162297000Y-86500000D03*
X164347000Y-86500000D03*
X171459000Y-78740000D03*
X169409000Y-78740000D03*
D11*
X164347000Y-89500000D03*
X162297000Y-89500000D03*
D12*
X156363200Y-81744700D03*
D13*
X156363200Y-84514700D03*
X156363200Y-87284700D03*
X156363200Y-90054700D03*
X156363200Y-92824700D03*
X153523200Y-83129700D03*
X153523200Y-85899700D03*
X153523200Y-88669700D03*
X153523200Y-91439700D03*
D14*
X154943200Y-74784700D03*
X154943200Y-99784700D03*
D15*
X167328400Y-83230600D03*
X167328400Y-84500600D03*
X167328400Y-85770600D03*
X167328400Y-87040600D03*
X167328400Y-88310600D03*
X167328400Y-89580600D03*
X167328400Y-90850600D03*
X167328400Y-92120600D03*
X172728400Y-92120600D03*
X172728400Y-90850600D03*
X172728400Y-89580600D03*
X172728400Y-88310600D03*
X172728400Y-87040600D03*
X172728400Y-85770600D03*
X172728400Y-84500600D03*
X172728400Y-83230600D03*
D16*
X183896000Y-80264000D03*
D17*
X183896000Y-82804000D03*
X183896000Y-85344000D03*
X183896000Y-87884000D03*
X183896000Y-90424000D03*
X183896000Y-92964000D03*
D18*
X150000000Y-67000000D03*
X191000000Y-67000000D03*
X150000000Y-108000000D03*
X191000000Y-108000000D03*
D19*
X170487500Y-96000000D03*
X167512500Y-96000000D03*
D16*
X178816000Y-98806000D03*
D17*
X178816000Y-101346000D03*
X176276000Y-98806000D03*
X176276000Y-101346000D03*
X173736000Y-98806000D03*
X173736000Y-101346000D03*
X171196000Y-98806000D03*
X171196000Y-101346000D03*
D20*
X174219400Y-84373600D03*
X161036000Y-88490600D03*
X166116000Y-96012000D03*
X178308000Y-92202000D03*
X179832000Y-89662000D03*
X169672000Y-86614000D03*
X171044400Y-85770600D03*
D21*
X167328400Y-83230600D02*
X164428400Y-83230600D01*
X162297000Y-84573000D02*
X162297000Y-83312000D01*
X162560000Y-84836000D02*
X162297000Y-84573000D01*
X167328400Y-85770600D02*
X166328400Y-85770600D01*
X165393800Y-84836000D02*
X162560000Y-84836000D01*
X166328400Y-85770600D02*
X165393800Y-84836000D01*
X166328400Y-88310600D02*
X166155800Y-88138000D01*
X167328400Y-88310600D02*
X166328400Y-88310600D01*
X166155800Y-88138000D02*
X162814000Y-88138000D01*
X162297000Y-87621000D02*
X162297000Y-86500000D01*
X162814000Y-88138000D02*
X162297000Y-87621000D01*
X167328400Y-87040600D02*
X165964400Y-87040600D01*
X165423800Y-86500000D02*
X165964400Y-87040600D01*
X164347000Y-86500000D02*
X165423800Y-86500000D01*
X174092400Y-84500600D02*
X174219400Y-84373600D01*
X172728400Y-84500600D02*
X174092400Y-84500600D01*
X162045400Y-89500000D02*
X161036000Y-88490600D01*
X167512500Y-96000000D02*
X166128000Y-96000000D01*
X166128000Y-96000000D02*
X166116000Y-96012000D01*
X167328400Y-84500600D02*
X168483400Y-84500600D01*
X169491000Y-83493000D02*
X169491000Y-79000000D01*
X168483400Y-84500600D02*
X169491000Y-83493000D01*
X167328400Y-89580600D02*
X164427600Y-89580600D01*
X178226600Y-92120600D02*
X178308000Y-92202000D01*
X172728400Y-92120600D02*
X178226600Y-92120600D01*
X179750600Y-89580600D02*
X179832000Y-89662000D01*
X172728400Y-89580600D02*
X179750600Y-89580600D01*
X181864000Y-90424000D02*
X183896000Y-90424000D01*
X172728400Y-88310600D02*
X179750600Y-88310600D01*
X179750600Y-88310600D02*
X181864000Y-90424000D01*
X181864000Y-92964000D02*
X183896000Y-92964000D01*
X172728400Y-90850600D02*
X179750600Y-90850600D01*
X179750600Y-90850600D02*
X181864000Y-92964000D01*
X172728400Y-87040600D02*
X170712400Y-87040600D01*
X169672000Y-86614000D02*
X170434000Y-86614000D01*
X170712400Y-87040600D02*
X170434000Y-86614000D01*
X172728400Y-85770600D02*
X171044400Y-85770600D01*
X155347200Y-88602700D02*
X157252200Y-88602700D01*
X154585200Y-87840700D02*
X155347200Y-88602700D01*
X154585200Y-86961700D02*
X154585200Y-87840700D01*
X153523200Y-85899700D02*
X154585200Y-86961700D01*
X159500100Y-90850600D02*
X157252200Y-88602700D01*
X159500100Y-90850600D02*
X167328400Y-90850600D01*
X154458200Y-89604700D02*
X153523200Y-88669700D01*
X158738100Y-92120600D02*
X158014200Y-91396700D01*
X154458200Y-90126700D02*
X154458200Y-89604700D01*
X158738100Y-92120600D02*
X167328400Y-92120600D01*
X158014200Y-91396700D02*
X155728200Y-91396700D01*
X155728200Y-91396700D02*
X154458200Y-90126700D01*
X172728400Y-83230600D02*
X174325400Y-83230600D01*
G04 #@! TA.AperFunction,Conductor*
G36*
X189283123Y-63528002D02*
G01*
X189329616Y-63581658D01*
X189339720Y-63651932D01*
X189310226Y-63716512D01*
X189272205Y-63746267D01*
X189155723Y-63805618D01*
X188831922Y-64015896D01*
X188531875Y-64258869D01*
X188258869Y-64531875D01*
X188015896Y-64831922D01*
X187805618Y-65155723D01*
X187630337Y-65499730D01*
X187491976Y-65860174D01*
X187392049Y-66233106D01*
X187391533Y-66236367D01*
X187332873Y-66606728D01*
X187331651Y-66614441D01*
X187311445Y-67000000D01*
X187331651Y-67385559D01*
X187392049Y-67766894D01*
X187491976Y-68139826D01*
X187630337Y-68500270D01*
X187631835Y-68503210D01*
X187804119Y-68841335D01*
X187805618Y-68844277D01*
X188015896Y-69168078D01*
X188258869Y-69468125D01*
X188531875Y-69741131D01*
X188831922Y-69984104D01*
X189155722Y-70194382D01*
X189158656Y-70195877D01*
X189158663Y-70195881D01*
X189496790Y-70368165D01*
X189499730Y-70369663D01*
X189860174Y-70508024D01*
X190233106Y-70607951D01*
X190435643Y-70640030D01*
X190611193Y-70667835D01*
X190611201Y-70667836D01*
X190614441Y-70668349D01*
X191000000Y-70688555D01*
X191385559Y-70668349D01*
X191388799Y-70667836D01*
X191388807Y-70667835D01*
X191564357Y-70640030D01*
X191766894Y-70607951D01*
X192139826Y-70508024D01*
X192500270Y-70369663D01*
X192503210Y-70368165D01*
X192841337Y-70195881D01*
X192841344Y-70195877D01*
X192844278Y-70194382D01*
X193168078Y-69984104D01*
X193468125Y-69741131D01*
X193741131Y-69468125D01*
X193984104Y-69168078D01*
X194194382Y-68844277D01*
X194253733Y-68727795D01*
X194302482Y-68676180D01*
X194371397Y-68659114D01*
X194438598Y-68682015D01*
X194482750Y-68737613D01*
X194492000Y-68784998D01*
X194492000Y-106215002D01*
X194471998Y-106283123D01*
X194418342Y-106329616D01*
X194348068Y-106339720D01*
X194283488Y-106310226D01*
X194253733Y-106272205D01*
X194195881Y-106158665D01*
X194194382Y-106155723D01*
X193984104Y-105831922D01*
X193741131Y-105531875D01*
X193468125Y-105258869D01*
X193168078Y-105015896D01*
X192844278Y-104805618D01*
X192841344Y-104804123D01*
X192841337Y-104804119D01*
X192503210Y-104631835D01*
X192500270Y-104630337D01*
X192139826Y-104491976D01*
X191766894Y-104392049D01*
X191564357Y-104359970D01*
X191388807Y-104332165D01*
X191388799Y-104332164D01*
X191385559Y-104331651D01*
X191000000Y-104311445D01*
X190614441Y-104331651D01*
X190611201Y-104332164D01*
X190611193Y-104332165D01*
X190435643Y-104359970D01*
X190233106Y-104392049D01*
X189860174Y-104491976D01*
X189499730Y-104630337D01*
X189496790Y-104631835D01*
X189158664Y-104804119D01*
X189158657Y-104804123D01*
X189155723Y-104805618D01*
X188831922Y-105015896D01*
X188531875Y-105258869D01*
X188258869Y-105531875D01*
X188015896Y-105831922D01*
X187805618Y-106155723D01*
X187804123Y-106158657D01*
X187804119Y-106158664D01*
X187746267Y-106272205D01*
X187630337Y-106499730D01*
X187491976Y-106860174D01*
X187392049Y-107233106D01*
X187331651Y-107614441D01*
X187311445Y-108000000D01*
X187331651Y-108385559D01*
X187332164Y-108388799D01*
X187332165Y-108388807D01*
X187359970Y-108564357D01*
X187392049Y-108766894D01*
X187491976Y-109139826D01*
X187630337Y-109500270D01*
X187805618Y-109844277D01*
X188015896Y-110168078D01*
X188258869Y-110468125D01*
X188531875Y-110741131D01*
X188831922Y-110984104D01*
X189155722Y-111194382D01*
X189158656Y-111195877D01*
X189158663Y-111195881D01*
X189272205Y-111253733D01*
X189323820Y-111302481D01*
X189340886Y-111371396D01*
X189317985Y-111438598D01*
X189262388Y-111482750D01*
X189215002Y-111492000D01*
X151784998Y-111492000D01*
X151716877Y-111471998D01*
X151670384Y-111418342D01*
X151660280Y-111348068D01*
X151689774Y-111283488D01*
X151727795Y-111253733D01*
X151841337Y-111195881D01*
X151841344Y-111195877D01*
X151844278Y-111194382D01*
X152168078Y-110984104D01*
X152468125Y-110741131D01*
X152741131Y-110468125D01*
X152984104Y-110168078D01*
X153194382Y-109844277D01*
X153369663Y-109500270D01*
X153508024Y-109139826D01*
X153607951Y-108766894D01*
X153640030Y-108564357D01*
X153667835Y-108388807D01*
X153667836Y-108388799D01*
X153668349Y-108385559D01*
X153688555Y-108000000D01*
X153668349Y-107614441D01*
X153607951Y-107233106D01*
X153508024Y-106860174D01*
X153369663Y-106499730D01*
X153253733Y-106272205D01*
X153195881Y-106158664D01*
X153195877Y-106158657D01*
X153194382Y-106155723D01*
X152984104Y-105831922D01*
X152741131Y-105531875D01*
X152468125Y-105258869D01*
X152168078Y-105015896D01*
X151844278Y-104805618D01*
X151841344Y-104804123D01*
X151841337Y-104804119D01*
X151503210Y-104631835D01*
X151500270Y-104630337D01*
X151139826Y-104491976D01*
X150766894Y-104392049D01*
X150564357Y-104359970D01*
X150388807Y-104332165D01*
X150388799Y-104332164D01*
X150385559Y-104331651D01*
X150000000Y-104311445D01*
X149614441Y-104331651D01*
X149611201Y-104332164D01*
X149611193Y-104332165D01*
X149435643Y-104359970D01*
X149233106Y-104392049D01*
X148860174Y-104491976D01*
X148499730Y-104630337D01*
X148496790Y-104631835D01*
X148158664Y-104804119D01*
X148158657Y-104804123D01*
X148155723Y-104805618D01*
X147831922Y-105015896D01*
X147531875Y-105258869D01*
X147258869Y-105531875D01*
X147015896Y-105831922D01*
X146805618Y-106155723D01*
X146804119Y-106158665D01*
X146746267Y-106272205D01*
X146697518Y-106323820D01*
X146628603Y-106340886D01*
X146561402Y-106317985D01*
X146517250Y-106262387D01*
X146508000Y-106215002D01*
X146508000Y-99784700D01*
X152429740Y-99784700D01*
X152449559Y-100099720D01*
X152508705Y-100409772D01*
X152535556Y-100492411D01*
X152595655Y-100677375D01*
X152606244Y-100709966D01*
X152607931Y-100713552D01*
X152607933Y-100713556D01*
X152738950Y-100991983D01*
X152738954Y-100991990D01*
X152740638Y-100995569D01*
X152909768Y-101262075D01*
X153110967Y-101505282D01*
X153341060Y-101721354D01*
X153344262Y-101723681D01*
X153344264Y-101723682D01*
X153385497Y-101753639D01*
X153596421Y-101906884D01*
X153599890Y-101908791D01*
X153599893Y-101908793D01*
X153869552Y-102057040D01*
X153873021Y-102058947D01*
X153876690Y-102060400D01*
X153876695Y-102060402D01*
X154105742Y-102151088D01*
X154166498Y-102175143D01*
X154472225Y-102253640D01*
X154785379Y-102293200D01*
X155101021Y-102293200D01*
X155414175Y-102253640D01*
X155719902Y-102175143D01*
X155780658Y-102151088D01*
X156009705Y-102060402D01*
X156009710Y-102060400D01*
X156013379Y-102058947D01*
X156016848Y-102057040D01*
X156286507Y-101908793D01*
X156286510Y-101908791D01*
X156289979Y-101906884D01*
X156500903Y-101753639D01*
X156542136Y-101723682D01*
X156542138Y-101723681D01*
X156545340Y-101721354D01*
X156775433Y-101505282D01*
X156934755Y-101312695D01*
X169833251Y-101312695D01*
X169833548Y-101317848D01*
X169833548Y-101317851D01*
X169839011Y-101412590D01*
X169846110Y-101535715D01*
X169847247Y-101540761D01*
X169847248Y-101540767D01*
X169867119Y-101628939D01*
X169895222Y-101753639D01*
X169979266Y-101960616D01*
X170030019Y-102043438D01*
X170093291Y-102146688D01*
X170095987Y-102151088D01*
X170242250Y-102319938D01*
X170414126Y-102462632D01*
X170607000Y-102575338D01*
X170815692Y-102655030D01*
X170820760Y-102656061D01*
X170820763Y-102656062D01*
X170928017Y-102677883D01*
X171034597Y-102699567D01*
X171039772Y-102699757D01*
X171039774Y-102699757D01*
X171252673Y-102707564D01*
X171252677Y-102707564D01*
X171257837Y-102707753D01*
X171262957Y-102707097D01*
X171262959Y-102707097D01*
X171474288Y-102680025D01*
X171474289Y-102680025D01*
X171479416Y-102679368D01*
X171484366Y-102677883D01*
X171688429Y-102616661D01*
X171688434Y-102616659D01*
X171693384Y-102615174D01*
X171893994Y-102516896D01*
X172075860Y-102387173D01*
X172234096Y-102229489D01*
X172272443Y-102176124D01*
X172364453Y-102048077D01*
X172365776Y-102049028D01*
X172412645Y-102005857D01*
X172482580Y-101993625D01*
X172548026Y-102021144D01*
X172575875Y-102052994D01*
X172579523Y-102058947D01*
X172635987Y-102151088D01*
X172782250Y-102319938D01*
X172954126Y-102462632D01*
X173147000Y-102575338D01*
X173355692Y-102655030D01*
X173360760Y-102656061D01*
X173360763Y-102656062D01*
X173468017Y-102677883D01*
X173574597Y-102699567D01*
X173579772Y-102699757D01*
X173579774Y-102699757D01*
X173792673Y-102707564D01*
X173792677Y-102707564D01*
X173797837Y-102707753D01*
X173802957Y-102707097D01*
X173802959Y-102707097D01*
X174014288Y-102680025D01*
X174014289Y-102680025D01*
X174019416Y-102679368D01*
X174024366Y-102677883D01*
X174228429Y-102616661D01*
X174228434Y-102616659D01*
X174233384Y-102615174D01*
X174433994Y-102516896D01*
X174615860Y-102387173D01*
X174774096Y-102229489D01*
X174812443Y-102176124D01*
X174904453Y-102048077D01*
X174905776Y-102049028D01*
X174952645Y-102005857D01*
X175022580Y-101993625D01*
X175088026Y-102021144D01*
X175115875Y-102052994D01*
X175119523Y-102058947D01*
X175175987Y-102151088D01*
X175322250Y-102319938D01*
X175494126Y-102462632D01*
X175687000Y-102575338D01*
X175895692Y-102655030D01*
X175900760Y-102656061D01*
X175900763Y-102656062D01*
X176008017Y-102677883D01*
X176114597Y-102699567D01*
X176119772Y-102699757D01*
X176119774Y-102699757D01*
X176332673Y-102707564D01*
X176332677Y-102707564D01*
X176337837Y-102707753D01*
X176342957Y-102707097D01*
X176342959Y-102707097D01*
X176554288Y-102680025D01*
X176554289Y-102680025D01*
X176559416Y-102679368D01*
X176564366Y-102677883D01*
X176768429Y-102616661D01*
X176768434Y-102616659D01*
X176773384Y-102615174D01*
X176973994Y-102516896D01*
X177155860Y-102387173D01*
X177314096Y-102229489D01*
X177352443Y-102176124D01*
X177444453Y-102048077D01*
X177445776Y-102049028D01*
X177492645Y-102005857D01*
X177562580Y-101993625D01*
X177628026Y-102021144D01*
X177655875Y-102052994D01*
X177659523Y-102058947D01*
X177715987Y-102151088D01*
X177862250Y-102319938D01*
X178034126Y-102462632D01*
X178227000Y-102575338D01*
X178435692Y-102655030D01*
X178440760Y-102656061D01*
X178440763Y-102656062D01*
X178548017Y-102677883D01*
X178654597Y-102699567D01*
X178659772Y-102699757D01*
X178659774Y-102699757D01*
X178872673Y-102707564D01*
X178872677Y-102707564D01*
X178877837Y-102707753D01*
X178882957Y-102707097D01*
X178882959Y-102707097D01*
X179094288Y-102680025D01*
X179094289Y-102680025D01*
X179099416Y-102679368D01*
X179104366Y-102677883D01*
X179308429Y-102616661D01*
X179308434Y-102616659D01*
X179313384Y-102615174D01*
X179513994Y-102516896D01*
X179695860Y-102387173D01*
X179854096Y-102229489D01*
X179892443Y-102176124D01*
X179981435Y-102052277D01*
X179984453Y-102048077D01*
X180005320Y-102005857D01*
X180081136Y-101852453D01*
X180081137Y-101852451D01*
X180083430Y-101847811D01*
X180148370Y-101634069D01*
X180177529Y-101412590D01*
X180179156Y-101346000D01*
X180160852Y-101123361D01*
X180106431Y-100906702D01*
X180017354Y-100701840D01*
X179896014Y-100514277D01*
X179892538Y-100510457D01*
X179892533Y-100510450D01*
X179748435Y-100352088D01*
X179717383Y-100288242D01*
X179725779Y-100217744D01*
X179770956Y-100162976D01*
X179797400Y-100149307D01*
X179904052Y-100109325D01*
X179919649Y-100100786D01*
X180021724Y-100024285D01*
X180034285Y-100011724D01*
X180110786Y-99909649D01*
X180119324Y-99894054D01*
X180164478Y-99773606D01*
X180168105Y-99758351D01*
X180173631Y-99707486D01*
X180174000Y-99700672D01*
X180174000Y-99078115D01*
X180169525Y-99062876D01*
X180168135Y-99061671D01*
X180160452Y-99060000D01*
X169879225Y-99060000D01*
X169865694Y-99063973D01*
X169864257Y-99073966D01*
X169894565Y-99208446D01*
X169897645Y-99218275D01*
X169977770Y-99415603D01*
X169982413Y-99424794D01*
X170093694Y-99606388D01*
X170099777Y-99614699D01*
X170239213Y-99775667D01*
X170246580Y-99782883D01*
X170410434Y-99918916D01*
X170418881Y-99924831D01*
X170487969Y-99965203D01*
X170536693Y-100016842D01*
X170549764Y-100086625D01*
X170523033Y-100152396D01*
X170482584Y-100185752D01*
X170469607Y-100192507D01*
X170465474Y-100195610D01*
X170465471Y-100195612D01*
X170295100Y-100323530D01*
X170290965Y-100326635D01*
X170136629Y-100488138D01*
X170010743Y-100672680D01*
X169916688Y-100875305D01*
X169856989Y-101090570D01*
X169833251Y-101312695D01*
X156934755Y-101312695D01*
X156976632Y-101262075D01*
X157145762Y-100995569D01*
X157147446Y-100991990D01*
X157147450Y-100991983D01*
X157278467Y-100713556D01*
X157278469Y-100713552D01*
X157280156Y-100709966D01*
X157290746Y-100677375D01*
X157350844Y-100492411D01*
X157377695Y-100409772D01*
X157436841Y-100099720D01*
X157456660Y-99784700D01*
X157436841Y-99469680D01*
X157377695Y-99159628D01*
X157280156Y-98859434D01*
X157278467Y-98855844D01*
X157147450Y-98577417D01*
X157147446Y-98577410D01*
X157145762Y-98573831D01*
X157124408Y-98540183D01*
X169860389Y-98540183D01*
X169861912Y-98548607D01*
X169874292Y-98552000D01*
X173463885Y-98552000D01*
X173479124Y-98547525D01*
X173480329Y-98546135D01*
X173482000Y-98538452D01*
X173482000Y-98533885D01*
X173990000Y-98533885D01*
X173994475Y-98549124D01*
X173995865Y-98550329D01*
X174003548Y-98552000D01*
X176003885Y-98552000D01*
X176019124Y-98547525D01*
X176020329Y-98546135D01*
X176022000Y-98538452D01*
X176022000Y-98533885D01*
X176530000Y-98533885D01*
X176534475Y-98549124D01*
X176535865Y-98550329D01*
X176543548Y-98552000D01*
X178543885Y-98552000D01*
X178559124Y-98547525D01*
X178560329Y-98546135D01*
X178562000Y-98538452D01*
X178562000Y-98533885D01*
X179070000Y-98533885D01*
X179074475Y-98549124D01*
X179075865Y-98550329D01*
X179083548Y-98552000D01*
X180155884Y-98552000D01*
X180171123Y-98547525D01*
X180172328Y-98546135D01*
X180173999Y-98538452D01*
X180173999Y-97911331D01*
X180173629Y-97904510D01*
X180168105Y-97853648D01*
X180164479Y-97838396D01*
X180119324Y-97717946D01*
X180110786Y-97702351D01*
X180034285Y-97600276D01*
X180021724Y-97587715D01*
X179919649Y-97511214D01*
X179904054Y-97502676D01*
X179783606Y-97457522D01*
X179768351Y-97453895D01*
X179717486Y-97448369D01*
X179710672Y-97448000D01*
X179088115Y-97448000D01*
X179072876Y-97452475D01*
X179071671Y-97453865D01*
X179070000Y-97461548D01*
X179070000Y-98533885D01*
X178562000Y-98533885D01*
X178562000Y-97466116D01*
X178557525Y-97450877D01*
X178556135Y-97449672D01*
X178548452Y-97448001D01*
X177921331Y-97448001D01*
X177914510Y-97448371D01*
X177863648Y-97453895D01*
X177848396Y-97457521D01*
X177727946Y-97502676D01*
X177712351Y-97511214D01*
X177610276Y-97587715D01*
X177597715Y-97600276D01*
X177521214Y-97702351D01*
X177512676Y-97717946D01*
X177471100Y-97828849D01*
X177428458Y-97885613D01*
X177361897Y-97910313D01*
X177292548Y-97895105D01*
X177259925Y-97869419D01*
X177208806Y-97813240D01*
X177201273Y-97806215D01*
X177034139Y-97674222D01*
X177025552Y-97668517D01*
X176839117Y-97565599D01*
X176829705Y-97561369D01*
X176628959Y-97490280D01*
X176618988Y-97487646D01*
X176547837Y-97474972D01*
X176534540Y-97476432D01*
X176530000Y-97490989D01*
X176530000Y-98533885D01*
X176022000Y-98533885D01*
X176022000Y-97489102D01*
X176018082Y-97475758D01*
X176003806Y-97473771D01*
X175965324Y-97479660D01*
X175955288Y-97482051D01*
X175752868Y-97548212D01*
X175743359Y-97552209D01*
X175554463Y-97650542D01*
X175545738Y-97656036D01*
X175375433Y-97783905D01*
X175367726Y-97790748D01*
X175220590Y-97944717D01*
X175214104Y-97952727D01*
X175109193Y-98106521D01*
X175054282Y-98151524D01*
X174983757Y-98159695D01*
X174920010Y-98128441D01*
X174899313Y-98103957D01*
X174818427Y-97978926D01*
X174812136Y-97970757D01*
X174668806Y-97813240D01*
X174661273Y-97806215D01*
X174494139Y-97674222D01*
X174485552Y-97668517D01*
X174299117Y-97565599D01*
X174289705Y-97561369D01*
X174088959Y-97490280D01*
X174078988Y-97487646D01*
X174007837Y-97474972D01*
X173994540Y-97476432D01*
X173990000Y-97490989D01*
X173990000Y-98533885D01*
X173482000Y-98533885D01*
X173482000Y-97489102D01*
X173478082Y-97475758D01*
X173463806Y-97473771D01*
X173425324Y-97479660D01*
X173415288Y-97482051D01*
X173212868Y-97548212D01*
X173203359Y-97552209D01*
X173014463Y-97650542D01*
X173005738Y-97656036D01*
X172835433Y-97783905D01*
X172827726Y-97790748D01*
X172680590Y-97944717D01*
X172674104Y-97952727D01*
X172569193Y-98106521D01*
X172514282Y-98151524D01*
X172443757Y-98159695D01*
X172380010Y-98128441D01*
X172359313Y-98103957D01*
X172278427Y-97978926D01*
X172272136Y-97970757D01*
X172128806Y-97813240D01*
X172121273Y-97806215D01*
X171954139Y-97674222D01*
X171945552Y-97668517D01*
X171759117Y-97565599D01*
X171749705Y-97561369D01*
X171548959Y-97490280D01*
X171538988Y-97487646D01*
X171442179Y-97470402D01*
X171378621Y-97438764D01*
X171342258Y-97377787D01*
X171344635Y-97306830D01*
X171384996Y-97248422D01*
X171397973Y-97239210D01*
X171417810Y-97226935D01*
X171429208Y-97217901D01*
X171543739Y-97103170D01*
X171552751Y-97091759D01*
X171637818Y-96953755D01*
X171643962Y-96940577D01*
X171695139Y-96786284D01*
X171698005Y-96772919D01*
X171707672Y-96678561D01*
X171708000Y-96672145D01*
X171708000Y-96272115D01*
X171703525Y-96256876D01*
X171702135Y-96255671D01*
X171694452Y-96254000D01*
X170759615Y-96254000D01*
X170744376Y-96258475D01*
X170743171Y-96259865D01*
X170741500Y-96267548D01*
X170741500Y-97364883D01*
X170750168Y-97394405D01*
X170750167Y-97465402D01*
X170711782Y-97525128D01*
X170677033Y-97544778D01*
X170677634Y-97546208D01*
X170663359Y-97552209D01*
X170474463Y-97650542D01*
X170465738Y-97656036D01*
X170295433Y-97783905D01*
X170287726Y-97790748D01*
X170140590Y-97944717D01*
X170134104Y-97952727D01*
X170014098Y-98128649D01*
X170009000Y-98137623D01*
X169919338Y-98330783D01*
X169915775Y-98340470D01*
X169860389Y-98540183D01*
X157124408Y-98540183D01*
X156976632Y-98307325D01*
X156775433Y-98064118D01*
X156545340Y-97848046D01*
X156497434Y-97813240D01*
X156344807Y-97702351D01*
X156289979Y-97662516D01*
X156268199Y-97650542D01*
X156016848Y-97512360D01*
X156016847Y-97512359D01*
X156013379Y-97510453D01*
X156009710Y-97509000D01*
X156009705Y-97508998D01*
X155723572Y-97395710D01*
X155723571Y-97395710D01*
X155719902Y-97394257D01*
X155414175Y-97315760D01*
X155101021Y-97276200D01*
X154785379Y-97276200D01*
X154472225Y-97315760D01*
X154166498Y-97394257D01*
X154162829Y-97395710D01*
X154162828Y-97395710D01*
X153876695Y-97508998D01*
X153876690Y-97509000D01*
X153873021Y-97510453D01*
X153869553Y-97512359D01*
X153869552Y-97512360D01*
X153618202Y-97650542D01*
X153596421Y-97662516D01*
X153541593Y-97702351D01*
X153388967Y-97813240D01*
X153341060Y-97848046D01*
X153110967Y-98064118D01*
X152909768Y-98307325D01*
X152740638Y-98573831D01*
X152738954Y-98577410D01*
X152738950Y-98577417D01*
X152607933Y-98855844D01*
X152606244Y-98859434D01*
X152508705Y-99159628D01*
X152449559Y-99469680D01*
X152429740Y-99784700D01*
X146508000Y-99784700D01*
X146508000Y-96012000D01*
X165202496Y-96012000D01*
X165222458Y-96201928D01*
X165281473Y-96383556D01*
X165376960Y-96548944D01*
X165381378Y-96553851D01*
X165381379Y-96553852D01*
X165500325Y-96685955D01*
X165504747Y-96690866D01*
X165603843Y-96762864D01*
X165636223Y-96786389D01*
X165659248Y-96803118D01*
X165665276Y-96805802D01*
X165665278Y-96805803D01*
X165827681Y-96878109D01*
X165833712Y-96880794D01*
X165927112Y-96900647D01*
X166014056Y-96919128D01*
X166014061Y-96919128D01*
X166020513Y-96920500D01*
X166211487Y-96920500D01*
X166217943Y-96919128D01*
X166217950Y-96919127D01*
X166239110Y-96914629D01*
X166309901Y-96920030D01*
X166366534Y-96962846D01*
X166372452Y-96971572D01*
X166451522Y-97099348D01*
X166576697Y-97224305D01*
X166582927Y-97228145D01*
X166582928Y-97228146D01*
X166720090Y-97312694D01*
X166727262Y-97317115D01*
X166807005Y-97343564D01*
X166888611Y-97370632D01*
X166888613Y-97370632D01*
X166895139Y-97372797D01*
X166901975Y-97373497D01*
X166901978Y-97373498D01*
X166943841Y-97377787D01*
X166999600Y-97383500D01*
X168025400Y-97383500D01*
X168028646Y-97383163D01*
X168028650Y-97383163D01*
X168124307Y-97373238D01*
X168124311Y-97373237D01*
X168131165Y-97372526D01*
X168137701Y-97370345D01*
X168137703Y-97370345D01*
X168269805Y-97326272D01*
X168298945Y-97316550D01*
X168449348Y-97223478D01*
X168574305Y-97098303D01*
X168578339Y-97091759D01*
X168663275Y-96953968D01*
X168663276Y-96953966D01*
X168667115Y-96947738D01*
X168693564Y-96867995D01*
X168720632Y-96786389D01*
X168720632Y-96786387D01*
X168722797Y-96779861D01*
X168723509Y-96772919D01*
X168727909Y-96729969D01*
X168733500Y-96675400D01*
X168733500Y-96672096D01*
X169267000Y-96672096D01*
X169267337Y-96678611D01*
X169277256Y-96774203D01*
X169280150Y-96787602D01*
X169331588Y-96941783D01*
X169337762Y-96954962D01*
X169423063Y-97092807D01*
X169432099Y-97104208D01*
X169546830Y-97218739D01*
X169558241Y-97227751D01*
X169696245Y-97312818D01*
X169709423Y-97318962D01*
X169863716Y-97370139D01*
X169877081Y-97373005D01*
X169971439Y-97382672D01*
X169977855Y-97383000D01*
X170215385Y-97383000D01*
X170230624Y-97378525D01*
X170231829Y-97377135D01*
X170233500Y-97369452D01*
X170233500Y-96272115D01*
X170229025Y-96256876D01*
X170227635Y-96255671D01*
X170219952Y-96254000D01*
X169285115Y-96254000D01*
X169269876Y-96258475D01*
X169268671Y-96259865D01*
X169267000Y-96267548D01*
X169267000Y-96672096D01*
X168733500Y-96672096D01*
X168733500Y-95727885D01*
X169267000Y-95727885D01*
X169271475Y-95743124D01*
X169272865Y-95744329D01*
X169280548Y-95746000D01*
X170215385Y-95746000D01*
X170230624Y-95741525D01*
X170231829Y-95740135D01*
X170233500Y-95732452D01*
X170233500Y-95727885D01*
X170741500Y-95727885D01*
X170745975Y-95743124D01*
X170747365Y-95744329D01*
X170755048Y-95746000D01*
X171689885Y-95746000D01*
X171705124Y-95741525D01*
X171706329Y-95740135D01*
X171708000Y-95732452D01*
X171708000Y-95327904D01*
X171707663Y-95321389D01*
X171697744Y-95225797D01*
X171694850Y-95212398D01*
X171643412Y-95058217D01*
X171637238Y-95045038D01*
X171551937Y-94907193D01*
X171542901Y-94895792D01*
X171428170Y-94781261D01*
X171416759Y-94772249D01*
X171278755Y-94687182D01*
X171265577Y-94681038D01*
X171111284Y-94629861D01*
X171097919Y-94626995D01*
X171003561Y-94617328D01*
X170997144Y-94617000D01*
X170759615Y-94617000D01*
X170744376Y-94621475D01*
X170743171Y-94622865D01*
X170741500Y-94630548D01*
X170741500Y-95727885D01*
X170233500Y-95727885D01*
X170233500Y-94635115D01*
X170229025Y-94619876D01*
X170227635Y-94618671D01*
X170219952Y-94617000D01*
X169977904Y-94617000D01*
X169971389Y-94617337D01*
X169875797Y-94627256D01*
X169862398Y-94630150D01*
X169708217Y-94681588D01*
X169695038Y-94687762D01*
X169557193Y-94773063D01*
X169545792Y-94782099D01*
X169431261Y-94896830D01*
X169422249Y-94908241D01*
X169337182Y-95046245D01*
X169331038Y-95059423D01*
X169279861Y-95213716D01*
X169276995Y-95227081D01*
X169267328Y-95321439D01*
X169267000Y-95327856D01*
X169267000Y-95727885D01*
X168733500Y-95727885D01*
X168733500Y-95324600D01*
X168723382Y-95227081D01*
X168723238Y-95225693D01*
X168723237Y-95225689D01*
X168722526Y-95218835D01*
X168666550Y-95051055D01*
X168573478Y-94900652D01*
X168448303Y-94775695D01*
X168305650Y-94687762D01*
X168303968Y-94686725D01*
X168303966Y-94686724D01*
X168297738Y-94682885D01*
X168217995Y-94656436D01*
X168136389Y-94629368D01*
X168136387Y-94629368D01*
X168129861Y-94627203D01*
X168123025Y-94626503D01*
X168123022Y-94626502D01*
X168079969Y-94622091D01*
X168025400Y-94616500D01*
X166999600Y-94616500D01*
X166996354Y-94616837D01*
X166996350Y-94616837D01*
X166900693Y-94626762D01*
X166900689Y-94626763D01*
X166893835Y-94627474D01*
X166887299Y-94629655D01*
X166887297Y-94629655D01*
X166870932Y-94635115D01*
X166726055Y-94683450D01*
X166575652Y-94776522D01*
X166450695Y-94901697D01*
X166359597Y-95049485D01*
X166306826Y-95096977D01*
X166236754Y-95108401D01*
X166226140Y-95106614D01*
X166217950Y-95104873D01*
X166217943Y-95104872D01*
X166211487Y-95103500D01*
X166020513Y-95103500D01*
X166014061Y-95104872D01*
X166014056Y-95104872D01*
X165927113Y-95123353D01*
X165833712Y-95143206D01*
X165827682Y-95145891D01*
X165827681Y-95145891D01*
X165665278Y-95218197D01*
X165665276Y-95218198D01*
X165659248Y-95220882D01*
X165504747Y-95333134D01*
X165376960Y-95475056D01*
X165281473Y-95640444D01*
X165222458Y-95822072D01*
X165202496Y-96012000D01*
X146508000Y-96012000D01*
X146508000Y-91439700D01*
X152209702Y-91439700D01*
X152229657Y-91667787D01*
X152267899Y-91810507D01*
X152284600Y-91872834D01*
X152288916Y-91888943D01*
X152291239Y-91893924D01*
X152291239Y-91893925D01*
X152383351Y-92091462D01*
X152383354Y-92091467D01*
X152385677Y-92096449D01*
X152517002Y-92284000D01*
X152678900Y-92445898D01*
X152683408Y-92449055D01*
X152683411Y-92449057D01*
X152706633Y-92465317D01*
X152866451Y-92577223D01*
X152871433Y-92579546D01*
X152871438Y-92579549D01*
X153065870Y-92670213D01*
X153073957Y-92673984D01*
X153079265Y-92675406D01*
X153079267Y-92675407D01*
X153289798Y-92731819D01*
X153289800Y-92731819D01*
X153295113Y-92733243D01*
X153523200Y-92753198D01*
X153751287Y-92733243D01*
X153756600Y-92731819D01*
X153756602Y-92731819D01*
X153967133Y-92675407D01*
X153967135Y-92675406D01*
X153972443Y-92673984D01*
X153980530Y-92670213D01*
X154174962Y-92579549D01*
X154174967Y-92579546D01*
X154179949Y-92577223D01*
X154339767Y-92465317D01*
X154362989Y-92449057D01*
X154362992Y-92449055D01*
X154367500Y-92445898D01*
X154529398Y-92284000D01*
X154660723Y-92096449D01*
X154663046Y-92091467D01*
X154663049Y-92091462D01*
X154755161Y-91893925D01*
X154755161Y-91893924D01*
X154757484Y-91888943D01*
X154760162Y-91878949D01*
X154815320Y-91673099D01*
X154815321Y-91673095D01*
X154816743Y-91667787D01*
X154817222Y-91662308D01*
X154817265Y-91662066D01*
X154848792Y-91598453D01*
X154909706Y-91561984D01*
X154980666Y-91564236D01*
X155030446Y-91594850D01*
X155224543Y-91788947D01*
X155232087Y-91797237D01*
X155236200Y-91803718D01*
X155241977Y-91809143D01*
X155285867Y-91850358D01*
X155288709Y-91853113D01*
X155306538Y-91870942D01*
X155340564Y-91933254D01*
X155335499Y-92004069D01*
X155320657Y-92032305D01*
X155225677Y-92167951D01*
X155223354Y-92172933D01*
X155223351Y-92172938D01*
X155131239Y-92370475D01*
X155128916Y-92375457D01*
X155127494Y-92380765D01*
X155127493Y-92380767D01*
X155074302Y-92579279D01*
X155069657Y-92596613D01*
X155049702Y-92824700D01*
X155069657Y-93052787D01*
X155071081Y-93058100D01*
X155071081Y-93058102D01*
X155084754Y-93109128D01*
X155128916Y-93273943D01*
X155131239Y-93278924D01*
X155131239Y-93278925D01*
X155223351Y-93476462D01*
X155223354Y-93476467D01*
X155225677Y-93481449D01*
X155293579Y-93578423D01*
X155320943Y-93617502D01*
X155357002Y-93669000D01*
X155518900Y-93830898D01*
X155523408Y-93834055D01*
X155523411Y-93834057D01*
X155536600Y-93843292D01*
X155706451Y-93962223D01*
X155711433Y-93964546D01*
X155711438Y-93964549D01*
X155804987Y-94008171D01*
X155913957Y-94058984D01*
X155919265Y-94060406D01*
X155919267Y-94060407D01*
X156129798Y-94116819D01*
X156129800Y-94116819D01*
X156135113Y-94118243D01*
X156363200Y-94138198D01*
X156591287Y-94118243D01*
X156596600Y-94116819D01*
X156596602Y-94116819D01*
X156807133Y-94060407D01*
X156807135Y-94060406D01*
X156812443Y-94058984D01*
X156921413Y-94008171D01*
X157014962Y-93964549D01*
X157014967Y-93964546D01*
X157019949Y-93962223D01*
X157189800Y-93843292D01*
X157202989Y-93834057D01*
X157202992Y-93834055D01*
X157207500Y-93830898D01*
X157369398Y-93669000D01*
X157405458Y-93617502D01*
X157432821Y-93578423D01*
X157500723Y-93481449D01*
X157503046Y-93476467D01*
X157503049Y-93476462D01*
X157595161Y-93278925D01*
X157595161Y-93278924D01*
X157597484Y-93273943D01*
X157641647Y-93109128D01*
X157655319Y-93058102D01*
X157655319Y-93058100D01*
X157656743Y-93052787D01*
X157676698Y-92824700D01*
X157656743Y-92596613D01*
X157652098Y-92579279D01*
X157598907Y-92380767D01*
X157598906Y-92380765D01*
X157597484Y-92375457D01*
X157573765Y-92324590D01*
X157520074Y-92209450D01*
X157509413Y-92139258D01*
X157538393Y-92074445D01*
X157597813Y-92035589D01*
X157634269Y-92030200D01*
X157699606Y-92030200D01*
X157767727Y-92050202D01*
X157788701Y-92067105D01*
X158234443Y-92512847D01*
X158241987Y-92521137D01*
X158246100Y-92527618D01*
X158251877Y-92533043D01*
X158295767Y-92574258D01*
X158298609Y-92577013D01*
X158318330Y-92596734D01*
X158321525Y-92599212D01*
X158330547Y-92606918D01*
X158362779Y-92637186D01*
X158369728Y-92641006D01*
X158380532Y-92646946D01*
X158397056Y-92657799D01*
X158413059Y-92670213D01*
X158453643Y-92687776D01*
X158464273Y-92692983D01*
X158503040Y-92714295D01*
X158510717Y-92716266D01*
X158510722Y-92716268D01*
X158522658Y-92719332D01*
X158541366Y-92725737D01*
X158559955Y-92733781D01*
X158567783Y-92735021D01*
X158567790Y-92735023D01*
X158603624Y-92740699D01*
X158615244Y-92743105D01*
X158650389Y-92752128D01*
X158658070Y-92754100D01*
X158678324Y-92754100D01*
X158698034Y-92755651D01*
X158718043Y-92758820D01*
X158725935Y-92758074D01*
X158762061Y-92754659D01*
X158773919Y-92754100D01*
X166134987Y-92754100D01*
X166203108Y-92774102D01*
X166215020Y-92783702D01*
X166215139Y-92783861D01*
X166216252Y-92784695D01*
X166216258Y-92784700D01*
X166262325Y-92819225D01*
X166331695Y-92871215D01*
X166468084Y-92922345D01*
X166530266Y-92929100D01*
X168126534Y-92929100D01*
X168188716Y-92922345D01*
X168325105Y-92871215D01*
X168441661Y-92783861D01*
X168529015Y-92667305D01*
X168580145Y-92530916D01*
X168586900Y-92468734D01*
X168586900Y-91772466D01*
X168580145Y-91710284D01*
X168529015Y-91573895D01*
X168519474Y-91561165D01*
X168494626Y-91494661D01*
X168509678Y-91425278D01*
X168519470Y-91410041D01*
X168529015Y-91397305D01*
X168580145Y-91260916D01*
X168586900Y-91198734D01*
X168586900Y-90502466D01*
X168580145Y-90440284D01*
X168529015Y-90303895D01*
X168519474Y-90291165D01*
X168494626Y-90224661D01*
X168509678Y-90155278D01*
X168519470Y-90140041D01*
X168529015Y-90127305D01*
X168580145Y-89990916D01*
X168586900Y-89928734D01*
X168586900Y-89232466D01*
X168580145Y-89170284D01*
X168529015Y-89033895D01*
X168519474Y-89021165D01*
X168494626Y-88954661D01*
X168509678Y-88885278D01*
X168519470Y-88870041D01*
X168529015Y-88857305D01*
X168580145Y-88720916D01*
X168586215Y-88665040D01*
X168586531Y-88662131D01*
X168586900Y-88658734D01*
X168586900Y-87962466D01*
X168580145Y-87900284D01*
X168529015Y-87763895D01*
X168519474Y-87751165D01*
X168494626Y-87684661D01*
X168509678Y-87615278D01*
X168519470Y-87600041D01*
X168529015Y-87587305D01*
X168580145Y-87450916D01*
X168586900Y-87388734D01*
X168586900Y-87009904D01*
X168606902Y-86941783D01*
X168660558Y-86895290D01*
X168730832Y-86885186D01*
X168795412Y-86914680D01*
X168832732Y-86970966D01*
X168837473Y-86985556D01*
X168840776Y-86991278D01*
X168840777Y-86991279D01*
X168860903Y-87026138D01*
X168932960Y-87150944D01*
X168937378Y-87155851D01*
X168937379Y-87155852D01*
X169049321Y-87280176D01*
X169060747Y-87292866D01*
X169215248Y-87405118D01*
X169221276Y-87407802D01*
X169221278Y-87407803D01*
X169367748Y-87473015D01*
X169389712Y-87482794D01*
X169483112Y-87502647D01*
X169570056Y-87521128D01*
X169570061Y-87521128D01*
X169576513Y-87522500D01*
X169767487Y-87522500D01*
X169773939Y-87521128D01*
X169773944Y-87521128D01*
X169860888Y-87502647D01*
X169954288Y-87482794D01*
X170083746Y-87425156D01*
X170154112Y-87415722D01*
X170221247Y-87448414D01*
X170247445Y-87473015D01*
X170257242Y-87483316D01*
X170281247Y-87511592D01*
X170287717Y-87516168D01*
X170287718Y-87516169D01*
X170303610Y-87527409D01*
X170317104Y-87538428D01*
X170337079Y-87557186D01*
X170344023Y-87561003D01*
X170344025Y-87561005D01*
X170369585Y-87575057D01*
X170381641Y-87582601D01*
X170400770Y-87596130D01*
X170411924Y-87604019D01*
X170428971Y-87610519D01*
X170437523Y-87613780D01*
X170453325Y-87621093D01*
X170477340Y-87634295D01*
X170485020Y-87636267D01*
X170513267Y-87643520D01*
X170526817Y-87647828D01*
X170554071Y-87658219D01*
X170554077Y-87658221D01*
X170561480Y-87661043D01*
X170579820Y-87663124D01*
X170588700Y-87664131D01*
X170605830Y-87667286D01*
X170611378Y-87668710D01*
X170632370Y-87674100D01*
X170669460Y-87674100D01*
X170683662Y-87674903D01*
X170720519Y-87679084D01*
X170747666Y-87675303D01*
X170765034Y-87674100D01*
X171379649Y-87674100D01*
X171447770Y-87694102D01*
X171494263Y-87747758D01*
X171504367Y-87818032D01*
X171497631Y-87844329D01*
X171479429Y-87892882D01*
X171479427Y-87892888D01*
X171476655Y-87900284D01*
X171469900Y-87962466D01*
X171469900Y-88658734D01*
X171470269Y-88662131D01*
X171470585Y-88665040D01*
X171476655Y-88720916D01*
X171527785Y-88857305D01*
X171537326Y-88870035D01*
X171562174Y-88936539D01*
X171547122Y-89005922D01*
X171537330Y-89021159D01*
X171527785Y-89033895D01*
X171476655Y-89170284D01*
X171469900Y-89232466D01*
X171469900Y-89928734D01*
X171476655Y-89990916D01*
X171527785Y-90127305D01*
X171537326Y-90140035D01*
X171562174Y-90206539D01*
X171547122Y-90275922D01*
X171537330Y-90291159D01*
X171527785Y-90303895D01*
X171476655Y-90440284D01*
X171469900Y-90502466D01*
X171469900Y-91198734D01*
X171476655Y-91260916D01*
X171527785Y-91397305D01*
X171537326Y-91410035D01*
X171562174Y-91476539D01*
X171547122Y-91545922D01*
X171537330Y-91561159D01*
X171527785Y-91573895D01*
X171476655Y-91710284D01*
X171469900Y-91772466D01*
X171469900Y-92468734D01*
X171476655Y-92530916D01*
X171527785Y-92667305D01*
X171615139Y-92783861D01*
X171731695Y-92871215D01*
X171868084Y-92922345D01*
X171930266Y-92929100D01*
X173526534Y-92929100D01*
X173588716Y-92922345D01*
X173725105Y-92871215D01*
X173841661Y-92783861D01*
X173842863Y-92785465D01*
X173895030Y-92756979D01*
X173921813Y-92754100D01*
X177526509Y-92754100D01*
X177594630Y-92774102D01*
X177620140Y-92795785D01*
X177696747Y-92880866D01*
X177851248Y-92993118D01*
X177857276Y-92995802D01*
X177857278Y-92995803D01*
X177942864Y-93033908D01*
X178025712Y-93070794D01*
X178119113Y-93090647D01*
X178206056Y-93109128D01*
X178206061Y-93109128D01*
X178212513Y-93110500D01*
X178403487Y-93110500D01*
X178409939Y-93109128D01*
X178409944Y-93109128D01*
X178496888Y-93090647D01*
X178590288Y-93070794D01*
X178673136Y-93033908D01*
X178758722Y-92995803D01*
X178758724Y-92995802D01*
X178764752Y-92993118D01*
X178919253Y-92880866D01*
X179001752Y-92789242D01*
X179042621Y-92743852D01*
X179042622Y-92743851D01*
X179047040Y-92738944D01*
X179142527Y-92573556D01*
X179201542Y-92391928D01*
X179208620Y-92324590D01*
X179220814Y-92208565D01*
X179221504Y-92202000D01*
X179220814Y-92195435D01*
X179202232Y-92018635D01*
X179202232Y-92018633D01*
X179201542Y-92012072D01*
X179142527Y-91830444D01*
X179051684Y-91673099D01*
X179034946Y-91604105D01*
X179058166Y-91537013D01*
X179113973Y-91493126D01*
X179160803Y-91484100D01*
X179436006Y-91484100D01*
X179504127Y-91504102D01*
X179525101Y-91521005D01*
X181360348Y-93356253D01*
X181367888Y-93364539D01*
X181372000Y-93371018D01*
X181377777Y-93376443D01*
X181421651Y-93417643D01*
X181424493Y-93420398D01*
X181444230Y-93440135D01*
X181447427Y-93442615D01*
X181456447Y-93450318D01*
X181488679Y-93480586D01*
X181495625Y-93484405D01*
X181495628Y-93484407D01*
X181506434Y-93490348D01*
X181522953Y-93501199D01*
X181538959Y-93513614D01*
X181546228Y-93516759D01*
X181546232Y-93516762D01*
X181579537Y-93531174D01*
X181590187Y-93536391D01*
X181628940Y-93557695D01*
X181636615Y-93559666D01*
X181636616Y-93559666D01*
X181648562Y-93562733D01*
X181667267Y-93569137D01*
X181685855Y-93577181D01*
X181693678Y-93578420D01*
X181693688Y-93578423D01*
X181729524Y-93584099D01*
X181741144Y-93586505D01*
X181776289Y-93595528D01*
X181783970Y-93597500D01*
X181804224Y-93597500D01*
X181823934Y-93599051D01*
X181843943Y-93602220D01*
X181851835Y-93601474D01*
X181887961Y-93598059D01*
X181899819Y-93597500D01*
X182620274Y-93597500D01*
X182688395Y-93617502D01*
X182727707Y-93657665D01*
X182795987Y-93769088D01*
X182942250Y-93937938D01*
X183114126Y-94080632D01*
X183307000Y-94193338D01*
X183515692Y-94273030D01*
X183520760Y-94274061D01*
X183520763Y-94274062D01*
X183628017Y-94295883D01*
X183734597Y-94317567D01*
X183739772Y-94317757D01*
X183739774Y-94317757D01*
X183952673Y-94325564D01*
X183952677Y-94325564D01*
X183957837Y-94325753D01*
X183962957Y-94325097D01*
X183962959Y-94325097D01*
X184174288Y-94298025D01*
X184174289Y-94298025D01*
X184179416Y-94297368D01*
X184184366Y-94295883D01*
X184388429Y-94234661D01*
X184388434Y-94234659D01*
X184393384Y-94233174D01*
X184593994Y-94134896D01*
X184775860Y-94005173D01*
X184822129Y-93959066D01*
X184930435Y-93851137D01*
X184934096Y-93847489D01*
X185064453Y-93666077D01*
X185068611Y-93657665D01*
X185161136Y-93470453D01*
X185161137Y-93470451D01*
X185163430Y-93465811D01*
X185196716Y-93356253D01*
X185226865Y-93257023D01*
X185226865Y-93257021D01*
X185228370Y-93252069D01*
X185257529Y-93030590D01*
X185258445Y-92993118D01*
X185259074Y-92967365D01*
X185259074Y-92967361D01*
X185259156Y-92964000D01*
X185240852Y-92741361D01*
X185186431Y-92524702D01*
X185097354Y-92319840D01*
X185057906Y-92258862D01*
X184978822Y-92136617D01*
X184978820Y-92136614D01*
X184976014Y-92132277D01*
X184825670Y-91967051D01*
X184821619Y-91963852D01*
X184821615Y-91963848D01*
X184654414Y-91831800D01*
X184654410Y-91831798D01*
X184650359Y-91828598D01*
X184609053Y-91805796D01*
X184559084Y-91755364D01*
X184544312Y-91685921D01*
X184569428Y-91619516D01*
X184596780Y-91592909D01*
X184662653Y-91545922D01*
X184775860Y-91465173D01*
X184836758Y-91404488D01*
X184908645Y-91332851D01*
X184934096Y-91307489D01*
X185064453Y-91126077D01*
X185068611Y-91117665D01*
X185161136Y-90930453D01*
X185161137Y-90930451D01*
X185163430Y-90925811D01*
X185213306Y-90761649D01*
X185226865Y-90717023D01*
X185226865Y-90717021D01*
X185228370Y-90712069D01*
X185257529Y-90490590D01*
X185259156Y-90424000D01*
X185240852Y-90201361D01*
X185186431Y-89984702D01*
X185097354Y-89779840D01*
X184976014Y-89592277D01*
X184825670Y-89427051D01*
X184821619Y-89423852D01*
X184821615Y-89423848D01*
X184654414Y-89291800D01*
X184654410Y-89291798D01*
X184650359Y-89288598D01*
X184609053Y-89265796D01*
X184559084Y-89215364D01*
X184544312Y-89145921D01*
X184569428Y-89079516D01*
X184596780Y-89052909D01*
X184641281Y-89021167D01*
X184775860Y-88925173D01*
X184836758Y-88864488D01*
X184908647Y-88792849D01*
X184934096Y-88767489D01*
X184993594Y-88684689D01*
X185061435Y-88590277D01*
X185064453Y-88586077D01*
X185111641Y-88490600D01*
X185161136Y-88390453D01*
X185161137Y-88390451D01*
X185163430Y-88385811D01*
X185228370Y-88172069D01*
X185257529Y-87950590D01*
X185257752Y-87941449D01*
X185259074Y-87887365D01*
X185259074Y-87887361D01*
X185259156Y-87884000D01*
X185240852Y-87661361D01*
X185186431Y-87444702D01*
X185097354Y-87239840D01*
X184976014Y-87052277D01*
X184825670Y-86887051D01*
X184821619Y-86883852D01*
X184821615Y-86883848D01*
X184654414Y-86751800D01*
X184654410Y-86751798D01*
X184650359Y-86748598D01*
X184608569Y-86725529D01*
X184558598Y-86675097D01*
X184543826Y-86605654D01*
X184568942Y-86539248D01*
X184596294Y-86512641D01*
X184771328Y-86387792D01*
X184779200Y-86381139D01*
X184930052Y-86230812D01*
X184936730Y-86222965D01*
X185061003Y-86050020D01*
X185066313Y-86041183D01*
X185160670Y-85850267D01*
X185164469Y-85840672D01*
X185226377Y-85636910D01*
X185228555Y-85626837D01*
X185229986Y-85615962D01*
X185227775Y-85601778D01*
X185214617Y-85598000D01*
X182579225Y-85598000D01*
X182565694Y-85601973D01*
X182564257Y-85611966D01*
X182594565Y-85746446D01*
X182597645Y-85756275D01*
X182677770Y-85953603D01*
X182682413Y-85962794D01*
X182793694Y-86144388D01*
X182799777Y-86152699D01*
X182939213Y-86313667D01*
X182946580Y-86320883D01*
X183110434Y-86456916D01*
X183118881Y-86462831D01*
X183187969Y-86503203D01*
X183236693Y-86554842D01*
X183249764Y-86624625D01*
X183223033Y-86690396D01*
X183182584Y-86723752D01*
X183169607Y-86730507D01*
X183165474Y-86733610D01*
X183165471Y-86733612D01*
X183022754Y-86840767D01*
X182990965Y-86864635D01*
X182987393Y-86868373D01*
X182852143Y-87009904D01*
X182836629Y-87026138D01*
X182833715Y-87030410D01*
X182833714Y-87030411D01*
X182821404Y-87048457D01*
X182710743Y-87210680D01*
X182695003Y-87244590D01*
X182622290Y-87401237D01*
X182616688Y-87413305D01*
X182556989Y-87628570D01*
X182533251Y-87850695D01*
X182533548Y-87855848D01*
X182533548Y-87855851D01*
X182542379Y-88009005D01*
X182546110Y-88073715D01*
X182547247Y-88078761D01*
X182547248Y-88078767D01*
X182555725Y-88116380D01*
X182595222Y-88291639D01*
X182679266Y-88498616D01*
X182681965Y-88503020D01*
X182786720Y-88673965D01*
X182795987Y-88689088D01*
X182942250Y-88857938D01*
X183114126Y-89000632D01*
X183158757Y-89026712D01*
X183187445Y-89043476D01*
X183236169Y-89095114D01*
X183249240Y-89164897D01*
X183222509Y-89230669D01*
X183182055Y-89264027D01*
X183169607Y-89270507D01*
X183165474Y-89273610D01*
X183165471Y-89273612D01*
X182995100Y-89401530D01*
X182990965Y-89404635D01*
X182987393Y-89408373D01*
X182873936Y-89527099D01*
X182836629Y-89566138D01*
X182833715Y-89570410D01*
X182833714Y-89570411D01*
X182721095Y-89735504D01*
X182666184Y-89780507D01*
X182617007Y-89790500D01*
X182178594Y-89790500D01*
X182110473Y-89770498D01*
X182089499Y-89753595D01*
X181184802Y-88848897D01*
X180254252Y-87918347D01*
X180246712Y-87910061D01*
X180242600Y-87903582D01*
X180192948Y-87856956D01*
X180190107Y-87854202D01*
X180170370Y-87834465D01*
X180167173Y-87831985D01*
X180158151Y-87824280D01*
X180131700Y-87799441D01*
X180125921Y-87794014D01*
X180118975Y-87790195D01*
X180118972Y-87790193D01*
X180108166Y-87784252D01*
X180091647Y-87773401D01*
X180090231Y-87772303D01*
X180075641Y-87760986D01*
X180068372Y-87757841D01*
X180068368Y-87757838D01*
X180035063Y-87743426D01*
X180024413Y-87738209D01*
X179985660Y-87716905D01*
X179966037Y-87711867D01*
X179947334Y-87705463D01*
X179936020Y-87700567D01*
X179936019Y-87700567D01*
X179928745Y-87697419D01*
X179920922Y-87696180D01*
X179920912Y-87696177D01*
X179885076Y-87690501D01*
X179873456Y-87688095D01*
X179838311Y-87679072D01*
X179838310Y-87679072D01*
X179830630Y-87677100D01*
X179810376Y-87677100D01*
X179790665Y-87675549D01*
X179786587Y-87674903D01*
X179770657Y-87672380D01*
X179762765Y-87673126D01*
X179726639Y-87676541D01*
X179714781Y-87677100D01*
X174077151Y-87677100D01*
X174009030Y-87657098D01*
X173962537Y-87603442D01*
X173952433Y-87533168D01*
X173959169Y-87506871D01*
X173977371Y-87458318D01*
X173977373Y-87458312D01*
X173980145Y-87450916D01*
X173986900Y-87388734D01*
X173986900Y-86692466D01*
X173980145Y-86630284D01*
X173929015Y-86493895D01*
X173919474Y-86481165D01*
X173894626Y-86414661D01*
X173909678Y-86345278D01*
X173919470Y-86330041D01*
X173929015Y-86317305D01*
X173980145Y-86180916D01*
X173986900Y-86118734D01*
X173986900Y-85422466D01*
X173986531Y-85419069D01*
X173986347Y-85415672D01*
X173987549Y-85415607D01*
X173999209Y-85350567D01*
X174047530Y-85298551D01*
X174116302Y-85280917D01*
X174119347Y-85281130D01*
X174123913Y-85282100D01*
X174314887Y-85282100D01*
X174321339Y-85280728D01*
X174321344Y-85280728D01*
X174408287Y-85262247D01*
X174501688Y-85242394D01*
X174508471Y-85239374D01*
X174670122Y-85167403D01*
X174670124Y-85167402D01*
X174676152Y-85164718D01*
X174830653Y-85052466D01*
X174847132Y-85034164D01*
X174954021Y-84915452D01*
X174954022Y-84915451D01*
X174958440Y-84910544D01*
X175034716Y-84778431D01*
X175050623Y-84750879D01*
X175050624Y-84750878D01*
X175053927Y-84745156D01*
X175112942Y-84563528D01*
X175118650Y-84509225D01*
X175132214Y-84380165D01*
X175132904Y-84373600D01*
X175131206Y-84357441D01*
X175113632Y-84190235D01*
X175113632Y-84190233D01*
X175112942Y-84183672D01*
X175053927Y-84002044D01*
X175046205Y-83988668D01*
X175005500Y-83918166D01*
X174958440Y-83836656D01*
X174947317Y-83824302D01*
X174835075Y-83699645D01*
X174835074Y-83699644D01*
X174830653Y-83694734D01*
X174722087Y-83615856D01*
X174681494Y-83586363D01*
X174681493Y-83586362D01*
X174676152Y-83582482D01*
X174670124Y-83579798D01*
X174670122Y-83579797D01*
X174507719Y-83507491D01*
X174507718Y-83507491D01*
X174501688Y-83504806D01*
X174406627Y-83484600D01*
X174321344Y-83466472D01*
X174321339Y-83466472D01*
X174314887Y-83465100D01*
X174123913Y-83465100D01*
X174117461Y-83466472D01*
X174117456Y-83466472D01*
X174028672Y-83485344D01*
X173975691Y-83485217D01*
X173972855Y-83484600D01*
X171488516Y-83484600D01*
X171473277Y-83489075D01*
X171472072Y-83490465D01*
X171470401Y-83498148D01*
X171470401Y-83575269D01*
X171470771Y-83582090D01*
X171476295Y-83632952D01*
X171479921Y-83648204D01*
X171525076Y-83768654D01*
X171533614Y-83784248D01*
X171537639Y-83789619D01*
X171562486Y-83856126D01*
X171547432Y-83925508D01*
X171537639Y-83940747D01*
X171533170Y-83946709D01*
X171533168Y-83946712D01*
X171527785Y-83953895D01*
X171476655Y-84090284D01*
X171469900Y-84152466D01*
X171469900Y-84776649D01*
X171449898Y-84844770D01*
X171396242Y-84891263D01*
X171325968Y-84901367D01*
X171317703Y-84899896D01*
X171146344Y-84863472D01*
X171146339Y-84863472D01*
X171139887Y-84862100D01*
X170948913Y-84862100D01*
X170942461Y-84863472D01*
X170942456Y-84863472D01*
X170861798Y-84880617D01*
X170762112Y-84901806D01*
X170756082Y-84904491D01*
X170756081Y-84904491D01*
X170593678Y-84976797D01*
X170593676Y-84976798D01*
X170587648Y-84979482D01*
X170433147Y-85091734D01*
X170428726Y-85096644D01*
X170428725Y-85096645D01*
X170318645Y-85218902D01*
X170305360Y-85233656D01*
X170266039Y-85301762D01*
X170230743Y-85362897D01*
X170209873Y-85399044D01*
X170150858Y-85580672D01*
X170150168Y-85587233D01*
X170150168Y-85587235D01*
X170143678Y-85648983D01*
X170116664Y-85714640D01*
X170058443Y-85755269D01*
X169987497Y-85757972D01*
X169967117Y-85750918D01*
X169965970Y-85750407D01*
X169954288Y-85745206D01*
X169840559Y-85721032D01*
X169773944Y-85706872D01*
X169773939Y-85706872D01*
X169767487Y-85705500D01*
X169576513Y-85705500D01*
X169570061Y-85706872D01*
X169570056Y-85706872D01*
X169503441Y-85721032D01*
X169389712Y-85745206D01*
X169383682Y-85747891D01*
X169383681Y-85747891D01*
X169221278Y-85820197D01*
X169221276Y-85820198D01*
X169215248Y-85822882D01*
X169060747Y-85935134D01*
X169056326Y-85940044D01*
X169056325Y-85940045D01*
X168983067Y-86021407D01*
X168932960Y-86077056D01*
X168837473Y-86242444D01*
X168778458Y-86424072D01*
X168777768Y-86430633D01*
X168777768Y-86430635D01*
X168773929Y-86467163D01*
X168746916Y-86532820D01*
X168688694Y-86573449D01*
X168617749Y-86576152D01*
X168556605Y-86540070D01*
X168537655Y-86509530D01*
X168536477Y-86510175D01*
X168532167Y-86502303D01*
X168529015Y-86493895D01*
X168519474Y-86481165D01*
X168494626Y-86414661D01*
X168509678Y-86345278D01*
X168519470Y-86330041D01*
X168529015Y-86317305D01*
X168580145Y-86180916D01*
X168586900Y-86118734D01*
X168586900Y-85422466D01*
X168580145Y-85360284D01*
X168552008Y-85285229D01*
X168546825Y-85214422D01*
X168580746Y-85152053D01*
X168637390Y-85119681D01*
X168642197Y-85119074D01*
X168649568Y-85116155D01*
X168649570Y-85116155D01*
X168683312Y-85102796D01*
X168694542Y-85098951D01*
X168729383Y-85088829D01*
X168729384Y-85088829D01*
X168736993Y-85086618D01*
X168743812Y-85082585D01*
X168743817Y-85082583D01*
X168754428Y-85076307D01*
X168772176Y-85067612D01*
X168791017Y-85060152D01*
X168810100Y-85046288D01*
X168826787Y-85034164D01*
X168836707Y-85027648D01*
X168867935Y-85009180D01*
X168867938Y-85009178D01*
X168874762Y-85005142D01*
X168889083Y-84990821D01*
X168904117Y-84977980D01*
X168914094Y-84970731D01*
X168920507Y-84966072D01*
X168948698Y-84931995D01*
X168956688Y-84923216D01*
X169883247Y-83996657D01*
X169891537Y-83989113D01*
X169898018Y-83985000D01*
X169944659Y-83935332D01*
X169947413Y-83932491D01*
X169967135Y-83912769D01*
X169969612Y-83909576D01*
X169977317Y-83900555D01*
X170002159Y-83874100D01*
X170007586Y-83868321D01*
X170015765Y-83853443D01*
X170017346Y-83850568D01*
X170028202Y-83834041D01*
X170035757Y-83824302D01*
X170035758Y-83824300D01*
X170040614Y-83818040D01*
X170058174Y-83777460D01*
X170063391Y-83766812D01*
X170080875Y-83735009D01*
X170080876Y-83735007D01*
X170084695Y-83728060D01*
X170089733Y-83708437D01*
X170096137Y-83689734D01*
X170101033Y-83678420D01*
X170101033Y-83678419D01*
X170104181Y-83671145D01*
X170105420Y-83663322D01*
X170105423Y-83663312D01*
X170111099Y-83627476D01*
X170113505Y-83615856D01*
X170122528Y-83580711D01*
X170122528Y-83580710D01*
X170124500Y-83573030D01*
X170124500Y-83552776D01*
X170126051Y-83533065D01*
X170127980Y-83520886D01*
X170129220Y-83513057D01*
X170125059Y-83469038D01*
X170124500Y-83457181D01*
X170124500Y-82958485D01*
X171470400Y-82958485D01*
X171474875Y-82973724D01*
X171476265Y-82974929D01*
X171483948Y-82976600D01*
X172456285Y-82976600D01*
X172471524Y-82972125D01*
X172472729Y-82970735D01*
X172474400Y-82963052D01*
X172474400Y-82958485D01*
X172982400Y-82958485D01*
X172986875Y-82973724D01*
X172988265Y-82974929D01*
X172995948Y-82976600D01*
X173968284Y-82976600D01*
X173983523Y-82972125D01*
X173984728Y-82970735D01*
X173986399Y-82963052D01*
X173986399Y-82885931D01*
X173986029Y-82879110D01*
X173980505Y-82828248D01*
X173976879Y-82812996D01*
X173961021Y-82770695D01*
X182533251Y-82770695D01*
X182533548Y-82775848D01*
X182533548Y-82775851D01*
X182541476Y-82913342D01*
X182546110Y-82993715D01*
X182547247Y-82998761D01*
X182547248Y-82998767D01*
X182561989Y-83064175D01*
X182595222Y-83211639D01*
X182679266Y-83418616D01*
X182681965Y-83423020D01*
X182779443Y-83582090D01*
X182795987Y-83609088D01*
X182942250Y-83777938D01*
X183114126Y-83920632D01*
X183136840Y-83933905D01*
X183187955Y-83963774D01*
X183236679Y-84015412D01*
X183249750Y-84085195D01*
X183223019Y-84150967D01*
X183182562Y-84184327D01*
X183174457Y-84188546D01*
X183165738Y-84194036D01*
X182995433Y-84321905D01*
X182987726Y-84328748D01*
X182840590Y-84482717D01*
X182834104Y-84490727D01*
X182714098Y-84666649D01*
X182709000Y-84675623D01*
X182619338Y-84868783D01*
X182615775Y-84878470D01*
X182560389Y-85078183D01*
X182561912Y-85086607D01*
X182574292Y-85090000D01*
X185214344Y-85090000D01*
X185227875Y-85086027D01*
X185229180Y-85076947D01*
X185187214Y-84909875D01*
X185183894Y-84900124D01*
X185098972Y-84704814D01*
X185094105Y-84695739D01*
X184978426Y-84516926D01*
X184972136Y-84508757D01*
X184828806Y-84351240D01*
X184821273Y-84344215D01*
X184654139Y-84212222D01*
X184645556Y-84206520D01*
X184608602Y-84186120D01*
X184558631Y-84135687D01*
X184543859Y-84066245D01*
X184568975Y-83999839D01*
X184596327Y-83973232D01*
X184646060Y-83937758D01*
X184775860Y-83845173D01*
X184783722Y-83837339D01*
X184901089Y-83720381D01*
X184934096Y-83687489D01*
X184977220Y-83627476D01*
X185061435Y-83510277D01*
X185064453Y-83506077D01*
X185066866Y-83501196D01*
X185161136Y-83310453D01*
X185161137Y-83310451D01*
X185163430Y-83305811D01*
X185228370Y-83092069D01*
X185257529Y-82870590D01*
X185258939Y-82812885D01*
X185259074Y-82807365D01*
X185259074Y-82807361D01*
X185259156Y-82804000D01*
X185240852Y-82581361D01*
X185186431Y-82364702D01*
X185097354Y-82159840D01*
X185057906Y-82098862D01*
X184978822Y-81976617D01*
X184978820Y-81976614D01*
X184976014Y-81972277D01*
X184972532Y-81968450D01*
X184828798Y-81810488D01*
X184797746Y-81746642D01*
X184806141Y-81676143D01*
X184851317Y-81621375D01*
X184877761Y-81607706D01*
X184984297Y-81567767D01*
X184992705Y-81564615D01*
X185109261Y-81477261D01*
X185196615Y-81360705D01*
X185247745Y-81224316D01*
X185254500Y-81162134D01*
X185254500Y-79365866D01*
X185247745Y-79303684D01*
X185196615Y-79167295D01*
X185109261Y-79050739D01*
X184992705Y-78963385D01*
X184856316Y-78912255D01*
X184794134Y-78905500D01*
X182997866Y-78905500D01*
X182935684Y-78912255D01*
X182799295Y-78963385D01*
X182682739Y-79050739D01*
X182595385Y-79167295D01*
X182544255Y-79303684D01*
X182537500Y-79365866D01*
X182537500Y-81162134D01*
X182544255Y-81224316D01*
X182595385Y-81360705D01*
X182682739Y-81477261D01*
X182799295Y-81564615D01*
X182807704Y-81567767D01*
X182807705Y-81567768D01*
X182916451Y-81608535D01*
X182973216Y-81651176D01*
X182997916Y-81717738D01*
X182982709Y-81787087D01*
X182963316Y-81813568D01*
X182836629Y-81946138D01*
X182710743Y-82130680D01*
X182690762Y-82173725D01*
X182638925Y-82285400D01*
X182616688Y-82333305D01*
X182556989Y-82548570D01*
X182533251Y-82770695D01*
X173961021Y-82770695D01*
X173931724Y-82692546D01*
X173923186Y-82676951D01*
X173846685Y-82574876D01*
X173834124Y-82562315D01*
X173732049Y-82485814D01*
X173716454Y-82477276D01*
X173596006Y-82432122D01*
X173580751Y-82428495D01*
X173529886Y-82422969D01*
X173523072Y-82422600D01*
X173000515Y-82422600D01*
X172985276Y-82427075D01*
X172984071Y-82428465D01*
X172982400Y-82436148D01*
X172982400Y-82958485D01*
X172474400Y-82958485D01*
X172474400Y-82440716D01*
X172469925Y-82425477D01*
X172468535Y-82424272D01*
X172460852Y-82422601D01*
X171933731Y-82422601D01*
X171926910Y-82422971D01*
X171876048Y-82428495D01*
X171860796Y-82432121D01*
X171740346Y-82477276D01*
X171724751Y-82485814D01*
X171622676Y-82562315D01*
X171610115Y-82574876D01*
X171533614Y-82676951D01*
X171525076Y-82692546D01*
X171479922Y-82812994D01*
X171476295Y-82828249D01*
X171470769Y-82879114D01*
X171470400Y-82885928D01*
X171470400Y-82958485D01*
X170124500Y-82958485D01*
X170124500Y-79910567D01*
X170144502Y-79842446D01*
X170184194Y-79803425D01*
X170208348Y-79788478D01*
X170333305Y-79663303D01*
X170336102Y-79658765D01*
X170393353Y-79618176D01*
X170464276Y-79614946D01*
X170525687Y-79650572D01*
X170533062Y-79659068D01*
X170541098Y-79669207D01*
X170655829Y-79783739D01*
X170667240Y-79792751D01*
X170805243Y-79877816D01*
X170818424Y-79883963D01*
X170972710Y-79935138D01*
X170986086Y-79938005D01*
X171080438Y-79947672D01*
X171086854Y-79948000D01*
X171186885Y-79948000D01*
X171202124Y-79943525D01*
X171203329Y-79942135D01*
X171205000Y-79934452D01*
X171205000Y-79929884D01*
X171713000Y-79929884D01*
X171717475Y-79945123D01*
X171718865Y-79946328D01*
X171726548Y-79947999D01*
X171831095Y-79947999D01*
X171837614Y-79947662D01*
X171933206Y-79937743D01*
X171946600Y-79934851D01*
X172100784Y-79883412D01*
X172113962Y-79877239D01*
X172251807Y-79791937D01*
X172263208Y-79782901D01*
X172377739Y-79668171D01*
X172386751Y-79656760D01*
X172471816Y-79518757D01*
X172477963Y-79505576D01*
X172529138Y-79351290D01*
X172532005Y-79337914D01*
X172541672Y-79243562D01*
X172542000Y-79237146D01*
X172542000Y-79012115D01*
X172537525Y-78996876D01*
X172536135Y-78995671D01*
X172528452Y-78994000D01*
X171731115Y-78994000D01*
X171715876Y-78998475D01*
X171714671Y-78999865D01*
X171713000Y-79007548D01*
X171713000Y-79929884D01*
X171205000Y-79929884D01*
X171205000Y-78467885D01*
X171713000Y-78467885D01*
X171717475Y-78483124D01*
X171718865Y-78484329D01*
X171726548Y-78486000D01*
X172523884Y-78486000D01*
X172539123Y-78481525D01*
X172540328Y-78480135D01*
X172541999Y-78472452D01*
X172541999Y-78242905D01*
X172541662Y-78236386D01*
X172531743Y-78140794D01*
X172528851Y-78127400D01*
X172477412Y-77973216D01*
X172471239Y-77960038D01*
X172385937Y-77822193D01*
X172376901Y-77810792D01*
X172262171Y-77696261D01*
X172250760Y-77687249D01*
X172112757Y-77602184D01*
X172099576Y-77596037D01*
X171945290Y-77544862D01*
X171931914Y-77541995D01*
X171837562Y-77532328D01*
X171831145Y-77532000D01*
X171731115Y-77532000D01*
X171715876Y-77536475D01*
X171714671Y-77537865D01*
X171713000Y-77545548D01*
X171713000Y-78467885D01*
X171205000Y-78467885D01*
X171205000Y-77550116D01*
X171200525Y-77534877D01*
X171199135Y-77533672D01*
X171191452Y-77532001D01*
X171086905Y-77532001D01*
X171080386Y-77532338D01*
X170984794Y-77542257D01*
X170971400Y-77545149D01*
X170817216Y-77596588D01*
X170804038Y-77602761D01*
X170666193Y-77688063D01*
X170654792Y-77697099D01*
X170540262Y-77811828D01*
X170533206Y-77820762D01*
X170475288Y-77861823D01*
X170404365Y-77865053D01*
X170342954Y-77829426D01*
X170336154Y-77821593D01*
X170332478Y-77815652D01*
X170207303Y-77690695D01*
X170201072Y-77686854D01*
X170062968Y-77601725D01*
X170062966Y-77601724D01*
X170056738Y-77597885D01*
X169976995Y-77571436D01*
X169895389Y-77544368D01*
X169895387Y-77544368D01*
X169888861Y-77542203D01*
X169882025Y-77541503D01*
X169882022Y-77541502D01*
X169838969Y-77537091D01*
X169784400Y-77531500D01*
X169033600Y-77531500D01*
X169030354Y-77531837D01*
X169030350Y-77531837D01*
X168934692Y-77541762D01*
X168934688Y-77541763D01*
X168927834Y-77542474D01*
X168921298Y-77544655D01*
X168921296Y-77544655D01*
X168904928Y-77550116D01*
X168760054Y-77598450D01*
X168609652Y-77691522D01*
X168484695Y-77816697D01*
X168391885Y-77967262D01*
X168336203Y-78135139D01*
X168325500Y-78239600D01*
X168325500Y-79240400D01*
X168325837Y-79243646D01*
X168325837Y-79243650D01*
X168335618Y-79337914D01*
X168336474Y-79346166D01*
X168392450Y-79513946D01*
X168485522Y-79664348D01*
X168610697Y-79789305D01*
X168761262Y-79882115D01*
X168768206Y-79884418D01*
X168768212Y-79884421D01*
X168771171Y-79885402D01*
X168772929Y-79886620D01*
X168774844Y-79887513D01*
X168774691Y-79887841D01*
X168829529Y-79925835D01*
X168856764Y-79991400D01*
X168857500Y-80004994D01*
X168857500Y-83178406D01*
X168837498Y-83246527D01*
X168820595Y-83267501D01*
X168801995Y-83286101D01*
X168739683Y-83320127D01*
X168668868Y-83315062D01*
X168612032Y-83272515D01*
X168587221Y-83205995D01*
X168586900Y-83197006D01*
X168586900Y-82882466D01*
X168580145Y-82820284D01*
X168529015Y-82683895D01*
X168441661Y-82567339D01*
X168325105Y-82479985D01*
X168188716Y-82428855D01*
X168126534Y-82422100D01*
X166530266Y-82422100D01*
X166468084Y-82428855D01*
X166331695Y-82479985D01*
X166215139Y-82567339D01*
X166213937Y-82565735D01*
X166161770Y-82594221D01*
X166134987Y-82597100D01*
X165470291Y-82597100D01*
X165402170Y-82577098D01*
X165363147Y-82537403D01*
X165295753Y-82428495D01*
X165270478Y-82387652D01*
X165145303Y-82262695D01*
X165139072Y-82258854D01*
X165000968Y-82173725D01*
X165000966Y-82173724D01*
X164994738Y-82169885D01*
X164834254Y-82116655D01*
X164833389Y-82116368D01*
X164833387Y-82116368D01*
X164826861Y-82114203D01*
X164820025Y-82113503D01*
X164820022Y-82113502D01*
X164776969Y-82109091D01*
X164722400Y-82103500D01*
X163971600Y-82103500D01*
X163968354Y-82103837D01*
X163968350Y-82103837D01*
X163872692Y-82113762D01*
X163872688Y-82113763D01*
X163865834Y-82114474D01*
X163859298Y-82116655D01*
X163859296Y-82116655D01*
X163803186Y-82135375D01*
X163698054Y-82170450D01*
X163547652Y-82263522D01*
X163422695Y-82388697D01*
X163420094Y-82392916D01*
X163362970Y-82433417D01*
X163292047Y-82436649D01*
X163230635Y-82401024D01*
X163224078Y-82393470D01*
X163220478Y-82387652D01*
X163095303Y-82262695D01*
X163089072Y-82258854D01*
X162950968Y-82173725D01*
X162950966Y-82173724D01*
X162944738Y-82169885D01*
X162784254Y-82116655D01*
X162783389Y-82116368D01*
X162783387Y-82116368D01*
X162776861Y-82114203D01*
X162770025Y-82113503D01*
X162770022Y-82113502D01*
X162726969Y-82109091D01*
X162672400Y-82103500D01*
X161921600Y-82103500D01*
X161918354Y-82103837D01*
X161918350Y-82103837D01*
X161822692Y-82113762D01*
X161822688Y-82113763D01*
X161815834Y-82114474D01*
X161809298Y-82116655D01*
X161809296Y-82116655D01*
X161753186Y-82135375D01*
X161648054Y-82170450D01*
X161497652Y-82263522D01*
X161372695Y-82388697D01*
X161368855Y-82394927D01*
X161368854Y-82394928D01*
X161323539Y-82468443D01*
X161279885Y-82539262D01*
X161262116Y-82592834D01*
X161231913Y-82683895D01*
X161224203Y-82707139D01*
X161213500Y-82811600D01*
X161213500Y-83812400D01*
X161213837Y-83815646D01*
X161213837Y-83815650D01*
X161223583Y-83909576D01*
X161224474Y-83918166D01*
X161226655Y-83924702D01*
X161226655Y-83924704D01*
X161263229Y-84034329D01*
X161280450Y-84085946D01*
X161373522Y-84236348D01*
X161498697Y-84361305D01*
X161504929Y-84365147D01*
X161504931Y-84365148D01*
X161601959Y-84424958D01*
X161649452Y-84477730D01*
X161661780Y-84528257D01*
X161663438Y-84580985D01*
X161663500Y-84584945D01*
X161663500Y-84612856D01*
X161663997Y-84616790D01*
X161663997Y-84616791D01*
X161664005Y-84616856D01*
X161664938Y-84628693D01*
X161666327Y-84672889D01*
X161671978Y-84692339D01*
X161675987Y-84711700D01*
X161678526Y-84731797D01*
X161681445Y-84739168D01*
X161681445Y-84739170D01*
X161694804Y-84772912D01*
X161698649Y-84784142D01*
X161710982Y-84826593D01*
X161715015Y-84833412D01*
X161715017Y-84833417D01*
X161721293Y-84844028D01*
X161729988Y-84861776D01*
X161737448Y-84880617D01*
X161742110Y-84887033D01*
X161742110Y-84887034D01*
X161763436Y-84916387D01*
X161769952Y-84926307D01*
X161792458Y-84964362D01*
X161806779Y-84978683D01*
X161819619Y-84993716D01*
X161831528Y-85010107D01*
X161856388Y-85030673D01*
X161865605Y-85038298D01*
X161874384Y-85046288D01*
X161913871Y-85085775D01*
X161947897Y-85148087D01*
X161942832Y-85218902D01*
X161900285Y-85275738D01*
X161837779Y-85300197D01*
X161822693Y-85301762D01*
X161822690Y-85301763D01*
X161815834Y-85302474D01*
X161809298Y-85304655D01*
X161809296Y-85304655D01*
X161677194Y-85348728D01*
X161648054Y-85358450D01*
X161497652Y-85451522D01*
X161372695Y-85576697D01*
X161368855Y-85582927D01*
X161368854Y-85582928D01*
X161292454Y-85706872D01*
X161279885Y-85727262D01*
X161273933Y-85745206D01*
X161235268Y-85861780D01*
X161224203Y-85895139D01*
X161223503Y-85901975D01*
X161223502Y-85901978D01*
X161221595Y-85920594D01*
X161213500Y-85999600D01*
X161213500Y-87000400D01*
X161213837Y-87003646D01*
X161213837Y-87003650D01*
X161219333Y-87056613D01*
X161224474Y-87106166D01*
X161226655Y-87112702D01*
X161226655Y-87112704D01*
X161241571Y-87157412D01*
X161280450Y-87273946D01*
X161361622Y-87405118D01*
X161367327Y-87414337D01*
X161386165Y-87482789D01*
X161365004Y-87550558D01*
X161310563Y-87596130D01*
X161233986Y-87603887D01*
X161137944Y-87583472D01*
X161137939Y-87583472D01*
X161131487Y-87582100D01*
X160940513Y-87582100D01*
X160934061Y-87583472D01*
X160934056Y-87583472D01*
X160874507Y-87596130D01*
X160753712Y-87621806D01*
X160747682Y-87624491D01*
X160747681Y-87624491D01*
X160585278Y-87696797D01*
X160585276Y-87696798D01*
X160579248Y-87699482D01*
X160573907Y-87703362D01*
X160573906Y-87703363D01*
X160557980Y-87714934D01*
X160424747Y-87811734D01*
X160420326Y-87816644D01*
X160420325Y-87816645D01*
X160356649Y-87887365D01*
X160296960Y-87953656D01*
X160265329Y-88008443D01*
X160230628Y-88068547D01*
X160201473Y-88119044D01*
X160142458Y-88300672D01*
X160122496Y-88490600D01*
X160123186Y-88497165D01*
X160140745Y-88664225D01*
X160142458Y-88680528D01*
X160201473Y-88862156D01*
X160204776Y-88867878D01*
X160204777Y-88867879D01*
X160218881Y-88892307D01*
X160296960Y-89027544D01*
X160301378Y-89032451D01*
X160301379Y-89032452D01*
X160410078Y-89153174D01*
X160424747Y-89169466D01*
X160487920Y-89215364D01*
X160554899Y-89264027D01*
X160579248Y-89281718D01*
X160585276Y-89284402D01*
X160585278Y-89284403D01*
X160689841Y-89330957D01*
X160753712Y-89359394D01*
X160847112Y-89379247D01*
X160934056Y-89397728D01*
X160934061Y-89397728D01*
X160940513Y-89399100D01*
X160996406Y-89399100D01*
X161064527Y-89419102D01*
X161085501Y-89436005D01*
X161176595Y-89527099D01*
X161210621Y-89589411D01*
X161213500Y-89616194D01*
X161213500Y-90000400D01*
X161213837Y-90003646D01*
X161213837Y-90003650D01*
X161221562Y-90078096D01*
X161208698Y-90147917D01*
X161160127Y-90199699D01*
X161096235Y-90217100D01*
X159814694Y-90217100D01*
X159746573Y-90197098D01*
X159725599Y-90180195D01*
X158749304Y-89203899D01*
X157755852Y-88210447D01*
X157748312Y-88202161D01*
X157744200Y-88195682D01*
X157694548Y-88149056D01*
X157691707Y-88146302D01*
X157671970Y-88126565D01*
X157668773Y-88124085D01*
X157659751Y-88116380D01*
X157627521Y-88086114D01*
X157620575Y-88082295D01*
X157620572Y-88082293D01*
X157609766Y-88076352D01*
X157593247Y-88065501D01*
X157583504Y-88057944D01*
X157583505Y-88057944D01*
X157577241Y-88053086D01*
X157573281Y-88051372D01*
X157525925Y-88000655D01*
X157513219Y-87930804D01*
X157524321Y-87890844D01*
X157595159Y-87738930D01*
X157595161Y-87738925D01*
X157597484Y-87733943D01*
X157602050Y-87716905D01*
X157655319Y-87518102D01*
X157655319Y-87518100D01*
X157656743Y-87512787D01*
X157676698Y-87284700D01*
X157656743Y-87056613D01*
X157652171Y-87039549D01*
X157598907Y-86840767D01*
X157598906Y-86840765D01*
X157597484Y-86835457D01*
X157582782Y-86803928D01*
X157503049Y-86632938D01*
X157503046Y-86632933D01*
X157500723Y-86627951D01*
X157418255Y-86510175D01*
X157372557Y-86444911D01*
X157372555Y-86444908D01*
X157369398Y-86440400D01*
X157207500Y-86278502D01*
X157202992Y-86275345D01*
X157202989Y-86275343D01*
X157124811Y-86220602D01*
X157019949Y-86147177D01*
X157014967Y-86144854D01*
X157014962Y-86144851D01*
X156817425Y-86052739D01*
X156817424Y-86052739D01*
X156812443Y-86050416D01*
X156807135Y-86048994D01*
X156807133Y-86048993D01*
X156704181Y-86021407D01*
X156643558Y-85984455D01*
X156612537Y-85920594D01*
X156620965Y-85850100D01*
X156666168Y-85795353D01*
X156704181Y-85777993D01*
X156807133Y-85750407D01*
X156807135Y-85750406D01*
X156812443Y-85748984D01*
X156820545Y-85745206D01*
X157014962Y-85654549D01*
X157014967Y-85654546D01*
X157019949Y-85652223D01*
X157135209Y-85571517D01*
X157202989Y-85524057D01*
X157202992Y-85524055D01*
X157207500Y-85520898D01*
X157369398Y-85359000D01*
X157410573Y-85300197D01*
X157450610Y-85243018D01*
X157500723Y-85171449D01*
X157503046Y-85166467D01*
X157503049Y-85166462D01*
X157595161Y-84968925D01*
X157595161Y-84968924D01*
X157597484Y-84963943D01*
X157613325Y-84904826D01*
X157655319Y-84748102D01*
X157655319Y-84748100D01*
X157656743Y-84742787D01*
X157676698Y-84514700D01*
X157656743Y-84286613D01*
X157651977Y-84268826D01*
X157598907Y-84070767D01*
X157598906Y-84070765D01*
X157597484Y-84065457D01*
X157570845Y-84008329D01*
X157503049Y-83862938D01*
X157503046Y-83862933D01*
X157500723Y-83857951D01*
X157389876Y-83699645D01*
X157372557Y-83674911D01*
X157372555Y-83674908D01*
X157369398Y-83670400D01*
X157207500Y-83508502D01*
X157202992Y-83505345D01*
X157202989Y-83505343D01*
X157072293Y-83413829D01*
X157019949Y-83377177D01*
X157014967Y-83374854D01*
X157014962Y-83374851D01*
X156840277Y-83293395D01*
X156786992Y-83246478D01*
X156767531Y-83178201D01*
X156788073Y-83110241D01*
X156842095Y-83064175D01*
X156893527Y-83053200D01*
X157211334Y-83053200D01*
X157273516Y-83046445D01*
X157409905Y-82995315D01*
X157526461Y-82907961D01*
X157613815Y-82791405D01*
X157664945Y-82655016D01*
X157671700Y-82592834D01*
X157671700Y-80896566D01*
X157664945Y-80834384D01*
X157613815Y-80697995D01*
X157526461Y-80581439D01*
X157409905Y-80494085D01*
X157273516Y-80442955D01*
X157211334Y-80436200D01*
X155515066Y-80436200D01*
X155452884Y-80442955D01*
X155316495Y-80494085D01*
X155199939Y-80581439D01*
X155112585Y-80697995D01*
X155061455Y-80834384D01*
X155054700Y-80896566D01*
X155054700Y-82592834D01*
X155061455Y-82655016D01*
X155112585Y-82791405D01*
X155199939Y-82907961D01*
X155316495Y-82995315D01*
X155452884Y-83046445D01*
X155515066Y-83053200D01*
X155832873Y-83053200D01*
X155900994Y-83073202D01*
X155947487Y-83126858D01*
X155957591Y-83197132D01*
X155928097Y-83261712D01*
X155886123Y-83293395D01*
X155711438Y-83374851D01*
X155711433Y-83374854D01*
X155706451Y-83377177D01*
X155654107Y-83413829D01*
X155523411Y-83505343D01*
X155523408Y-83505345D01*
X155518900Y-83508502D01*
X155357002Y-83670400D01*
X155353845Y-83674908D01*
X155353843Y-83674911D01*
X155336524Y-83699645D01*
X155225677Y-83857951D01*
X155223354Y-83862933D01*
X155223351Y-83862938D01*
X155155555Y-84008329D01*
X155128916Y-84065457D01*
X155127494Y-84070765D01*
X155127493Y-84070767D01*
X155074423Y-84268826D01*
X155069657Y-84286613D01*
X155049702Y-84514700D01*
X155069657Y-84742787D01*
X155071081Y-84748100D01*
X155071081Y-84748102D01*
X155113076Y-84904826D01*
X155128916Y-84963943D01*
X155131239Y-84968924D01*
X155131239Y-84968925D01*
X155223351Y-85166462D01*
X155223354Y-85166467D01*
X155225677Y-85171449D01*
X155275790Y-85243018D01*
X155315828Y-85300197D01*
X155357002Y-85359000D01*
X155518900Y-85520898D01*
X155523408Y-85524055D01*
X155523411Y-85524057D01*
X155591191Y-85571517D01*
X155706451Y-85652223D01*
X155711433Y-85654546D01*
X155711438Y-85654549D01*
X155905855Y-85745206D01*
X155913957Y-85748984D01*
X155919265Y-85750406D01*
X155919267Y-85750407D01*
X156022219Y-85777993D01*
X156082842Y-85814945D01*
X156113863Y-85878806D01*
X156105435Y-85949300D01*
X156060232Y-86004047D01*
X156022219Y-86021407D01*
X155919267Y-86048993D01*
X155919265Y-86048994D01*
X155913957Y-86050416D01*
X155908976Y-86052739D01*
X155908975Y-86052739D01*
X155711438Y-86144851D01*
X155711433Y-86144854D01*
X155706451Y-86147177D01*
X155601589Y-86220602D01*
X155523411Y-86275343D01*
X155523408Y-86275345D01*
X155518900Y-86278502D01*
X155357002Y-86440400D01*
X155353845Y-86444908D01*
X155353843Y-86444911D01*
X155279549Y-86551013D01*
X155224091Y-86595341D01*
X155153472Y-86602650D01*
X155087241Y-86567837D01*
X155075421Y-86556017D01*
X155062580Y-86540983D01*
X155061917Y-86540070D01*
X155050672Y-86524593D01*
X155016595Y-86496402D01*
X155007816Y-86488412D01*
X154832352Y-86312948D01*
X154798326Y-86250636D01*
X154799741Y-86191241D01*
X154815318Y-86133109D01*
X154815320Y-86133098D01*
X154816743Y-86127787D01*
X154836698Y-85899700D01*
X154816743Y-85671613D01*
X154812171Y-85654549D01*
X154758907Y-85455767D01*
X154758906Y-85455765D01*
X154757484Y-85450457D01*
X154719099Y-85368140D01*
X154663049Y-85247938D01*
X154663046Y-85247933D01*
X154660723Y-85242951D01*
X154585167Y-85135046D01*
X154532557Y-85059911D01*
X154532555Y-85059908D01*
X154529398Y-85055400D01*
X154367500Y-84893502D01*
X154362992Y-84890345D01*
X154362989Y-84890343D01*
X154195280Y-84772912D01*
X154179949Y-84762177D01*
X154174967Y-84759854D01*
X154174962Y-84759851D01*
X153977425Y-84667739D01*
X153977424Y-84667739D01*
X153972443Y-84665416D01*
X153967135Y-84663994D01*
X153967133Y-84663993D01*
X153864181Y-84636407D01*
X153803558Y-84599455D01*
X153772537Y-84535594D01*
X153780965Y-84465100D01*
X153826168Y-84410353D01*
X153864181Y-84392993D01*
X153967133Y-84365407D01*
X153967135Y-84365406D01*
X153972443Y-84363984D01*
X153978188Y-84361305D01*
X154174962Y-84269549D01*
X154174967Y-84269546D01*
X154179949Y-84267223D01*
X154295776Y-84186120D01*
X154362989Y-84139057D01*
X154362992Y-84139055D01*
X154367500Y-84135898D01*
X154529398Y-83974000D01*
X154536559Y-83963774D01*
X154608262Y-83861371D01*
X154660723Y-83786449D01*
X154663046Y-83781467D01*
X154663049Y-83781462D01*
X154755161Y-83583925D01*
X154755161Y-83583924D01*
X154757484Y-83578943D01*
X154759069Y-83573030D01*
X154815319Y-83363102D01*
X154815319Y-83363100D01*
X154816743Y-83357787D01*
X154836698Y-83129700D01*
X154816743Y-82901613D01*
X154811613Y-82882466D01*
X154758907Y-82685767D01*
X154758906Y-82685765D01*
X154757484Y-82680457D01*
X154745621Y-82655016D01*
X154663049Y-82477938D01*
X154663046Y-82477933D01*
X154660723Y-82472951D01*
X154529398Y-82285400D01*
X154367500Y-82123502D01*
X154362992Y-82120345D01*
X154362989Y-82120343D01*
X154284811Y-82065602D01*
X154179949Y-81992177D01*
X154174967Y-81989854D01*
X154174962Y-81989851D01*
X153977425Y-81897739D01*
X153977424Y-81897739D01*
X153972443Y-81895416D01*
X153967135Y-81893994D01*
X153967133Y-81893993D01*
X153756602Y-81837581D01*
X153756600Y-81837581D01*
X153751287Y-81836157D01*
X153523200Y-81816202D01*
X153295113Y-81836157D01*
X153289800Y-81837581D01*
X153289798Y-81837581D01*
X153079267Y-81893993D01*
X153079265Y-81893994D01*
X153073957Y-81895416D01*
X153068976Y-81897739D01*
X153068975Y-81897739D01*
X152871438Y-81989851D01*
X152871433Y-81989854D01*
X152866451Y-81992177D01*
X152761589Y-82065602D01*
X152683411Y-82120343D01*
X152683408Y-82120345D01*
X152678900Y-82123502D01*
X152517002Y-82285400D01*
X152385677Y-82472951D01*
X152383354Y-82477933D01*
X152383351Y-82477938D01*
X152300779Y-82655016D01*
X152288916Y-82680457D01*
X152287494Y-82685765D01*
X152287493Y-82685767D01*
X152234787Y-82882466D01*
X152229657Y-82901613D01*
X152209702Y-83129700D01*
X152229657Y-83357787D01*
X152231081Y-83363100D01*
X152231081Y-83363102D01*
X152287332Y-83573030D01*
X152288916Y-83578943D01*
X152291239Y-83583924D01*
X152291239Y-83583925D01*
X152383351Y-83781462D01*
X152383354Y-83781467D01*
X152385677Y-83786449D01*
X152438138Y-83861371D01*
X152509842Y-83963774D01*
X152517002Y-83974000D01*
X152678900Y-84135898D01*
X152683408Y-84139055D01*
X152683411Y-84139057D01*
X152750624Y-84186120D01*
X152866451Y-84267223D01*
X152871433Y-84269546D01*
X152871438Y-84269549D01*
X153068212Y-84361305D01*
X153073957Y-84363984D01*
X153079265Y-84365406D01*
X153079267Y-84365407D01*
X153182219Y-84392993D01*
X153242842Y-84429945D01*
X153273863Y-84493806D01*
X153265435Y-84564300D01*
X153220232Y-84619047D01*
X153182219Y-84636407D01*
X153079267Y-84663993D01*
X153079265Y-84663994D01*
X153073957Y-84665416D01*
X153068976Y-84667739D01*
X153068975Y-84667739D01*
X152871438Y-84759851D01*
X152871433Y-84759854D01*
X152866451Y-84762177D01*
X152851120Y-84772912D01*
X152683411Y-84890343D01*
X152683408Y-84890345D01*
X152678900Y-84893502D01*
X152517002Y-85055400D01*
X152513845Y-85059908D01*
X152513843Y-85059911D01*
X152461233Y-85135046D01*
X152385677Y-85242951D01*
X152383354Y-85247933D01*
X152383351Y-85247938D01*
X152327301Y-85368140D01*
X152288916Y-85450457D01*
X152287494Y-85455765D01*
X152287493Y-85455767D01*
X152234229Y-85654549D01*
X152229657Y-85671613D01*
X152209702Y-85899700D01*
X152229657Y-86127787D01*
X152231081Y-86133100D01*
X152231081Y-86133102D01*
X152280439Y-86317305D01*
X152288916Y-86348943D01*
X152291239Y-86353924D01*
X152291239Y-86353925D01*
X152383351Y-86551462D01*
X152383354Y-86551467D01*
X152385677Y-86556449D01*
X152437377Y-86630284D01*
X152502826Y-86723754D01*
X152517002Y-86744000D01*
X152678900Y-86905898D01*
X152683408Y-86909055D01*
X152683411Y-86909057D01*
X152691442Y-86914680D01*
X152866451Y-87037223D01*
X152871433Y-87039546D01*
X152871438Y-87039549D01*
X153068975Y-87131661D01*
X153073957Y-87133984D01*
X153079265Y-87135406D01*
X153079267Y-87135407D01*
X153182219Y-87162993D01*
X153242842Y-87199945D01*
X153273863Y-87263806D01*
X153265435Y-87334300D01*
X153220232Y-87389047D01*
X153182219Y-87406407D01*
X153079267Y-87433993D01*
X153079265Y-87433994D01*
X153073957Y-87435416D01*
X153068976Y-87437739D01*
X153068975Y-87437739D01*
X152871438Y-87529851D01*
X152871433Y-87529854D01*
X152866451Y-87532177D01*
X152787720Y-87587305D01*
X152683411Y-87660343D01*
X152683408Y-87660345D01*
X152678900Y-87663502D01*
X152517002Y-87825400D01*
X152513845Y-87829908D01*
X152513843Y-87829911D01*
X152462258Y-87903582D01*
X152385677Y-88012951D01*
X152383354Y-88017933D01*
X152383351Y-88017938D01*
X152309169Y-88177023D01*
X152288916Y-88220457D01*
X152287494Y-88225765D01*
X152287493Y-88225767D01*
X152244609Y-88385811D01*
X152229657Y-88441613D01*
X152209702Y-88669700D01*
X152229657Y-88897787D01*
X152231081Y-88903100D01*
X152231081Y-88903102D01*
X152272502Y-89057684D01*
X152288916Y-89118943D01*
X152291239Y-89123924D01*
X152291239Y-89123925D01*
X152383351Y-89321462D01*
X152383354Y-89321467D01*
X152385677Y-89326449D01*
X152440424Y-89404635D01*
X152510568Y-89504811D01*
X152517002Y-89514000D01*
X152678900Y-89675898D01*
X152683408Y-89679055D01*
X152683411Y-89679057D01*
X152761589Y-89733798D01*
X152866451Y-89807223D01*
X152871433Y-89809546D01*
X152871438Y-89809549D01*
X153068975Y-89901661D01*
X153073957Y-89903984D01*
X153079265Y-89905406D01*
X153079267Y-89905407D01*
X153182219Y-89932993D01*
X153242842Y-89969945D01*
X153273863Y-90033806D01*
X153265435Y-90104300D01*
X153220232Y-90159047D01*
X153182219Y-90176407D01*
X153079267Y-90203993D01*
X153079265Y-90203994D01*
X153073957Y-90205416D01*
X153068976Y-90207739D01*
X153068975Y-90207739D01*
X152871438Y-90299851D01*
X152871433Y-90299854D01*
X152866451Y-90302177D01*
X152811198Y-90340866D01*
X152683411Y-90430343D01*
X152683408Y-90430345D01*
X152678900Y-90433502D01*
X152517002Y-90595400D01*
X152385677Y-90782951D01*
X152383354Y-90787933D01*
X152383351Y-90787938D01*
X152312171Y-90940586D01*
X152288916Y-90990457D01*
X152287494Y-90995765D01*
X152287493Y-90995767D01*
X152233108Y-91198734D01*
X152229657Y-91211613D01*
X152209702Y-91439700D01*
X146508000Y-91439700D01*
X146508000Y-74784700D01*
X152429740Y-74784700D01*
X152449559Y-75099720D01*
X152508705Y-75409772D01*
X152606244Y-75709966D01*
X152607931Y-75713552D01*
X152607933Y-75713556D01*
X152738950Y-75991983D01*
X152738954Y-75991990D01*
X152740638Y-75995569D01*
X152909768Y-76262075D01*
X153110967Y-76505282D01*
X153341060Y-76721354D01*
X153596421Y-76906884D01*
X153873021Y-77058947D01*
X153876690Y-77060400D01*
X153876695Y-77060402D01*
X154162828Y-77173690D01*
X154166498Y-77175143D01*
X154472225Y-77253640D01*
X154785379Y-77293200D01*
X155101021Y-77293200D01*
X155414175Y-77253640D01*
X155719902Y-77175143D01*
X155723572Y-77173690D01*
X156009705Y-77060402D01*
X156009710Y-77060400D01*
X156013379Y-77058947D01*
X156289979Y-76906884D01*
X156545340Y-76721354D01*
X156775433Y-76505282D01*
X156976632Y-76262075D01*
X157145762Y-75995569D01*
X157147446Y-75991990D01*
X157147450Y-75991983D01*
X157278467Y-75713556D01*
X157278469Y-75713552D01*
X157280156Y-75709966D01*
X157377695Y-75409772D01*
X157436841Y-75099720D01*
X157456660Y-74784700D01*
X157436841Y-74469680D01*
X157377695Y-74159628D01*
X157280156Y-73859434D01*
X157278467Y-73855844D01*
X157147450Y-73577417D01*
X157147446Y-73577410D01*
X157145762Y-73573831D01*
X156976632Y-73307325D01*
X156775433Y-73064118D01*
X156545340Y-72848046D01*
X156289979Y-72662516D01*
X156013379Y-72510453D01*
X156009710Y-72509000D01*
X156009705Y-72508998D01*
X155723572Y-72395710D01*
X155723571Y-72395710D01*
X155719902Y-72394257D01*
X155414175Y-72315760D01*
X155101021Y-72276200D01*
X154785379Y-72276200D01*
X154472225Y-72315760D01*
X154166498Y-72394257D01*
X154162829Y-72395710D01*
X154162828Y-72395710D01*
X153876695Y-72508998D01*
X153876690Y-72509000D01*
X153873021Y-72510453D01*
X153596421Y-72662516D01*
X153341060Y-72848046D01*
X153110967Y-73064118D01*
X152909768Y-73307325D01*
X152740638Y-73573831D01*
X152738954Y-73577410D01*
X152738950Y-73577417D01*
X152607933Y-73855844D01*
X152606244Y-73859434D01*
X152508705Y-74159628D01*
X152449559Y-74469680D01*
X152429740Y-74784700D01*
X146508000Y-74784700D01*
X146508000Y-68784998D01*
X146528002Y-68716877D01*
X146581658Y-68670384D01*
X146651932Y-68660280D01*
X146716512Y-68689774D01*
X146746267Y-68727795D01*
X146805618Y-68844277D01*
X147015896Y-69168078D01*
X147258869Y-69468125D01*
X147531875Y-69741131D01*
X147831922Y-69984104D01*
X148155722Y-70194382D01*
X148158656Y-70195877D01*
X148158663Y-70195881D01*
X148496790Y-70368165D01*
X148499730Y-70369663D01*
X148860174Y-70508024D01*
X149233106Y-70607951D01*
X149435643Y-70640030D01*
X149611193Y-70667835D01*
X149611201Y-70667836D01*
X149614441Y-70668349D01*
X150000000Y-70688555D01*
X150385559Y-70668349D01*
X150388799Y-70667836D01*
X150388807Y-70667835D01*
X150564357Y-70640030D01*
X150766894Y-70607951D01*
X151139826Y-70508024D01*
X151500270Y-70369663D01*
X151503210Y-70368165D01*
X151841337Y-70195881D01*
X151841344Y-70195877D01*
X151844278Y-70194382D01*
X152168078Y-69984104D01*
X152468125Y-69741131D01*
X152741131Y-69468125D01*
X152984104Y-69168078D01*
X153194382Y-68844277D01*
X153195882Y-68841335D01*
X153368165Y-68503210D01*
X153369663Y-68500270D01*
X153508024Y-68139826D01*
X153607951Y-67766894D01*
X153668349Y-67385559D01*
X153688555Y-67000000D01*
X153668349Y-66614441D01*
X153667128Y-66606728D01*
X153608467Y-66236367D01*
X153607951Y-66233106D01*
X153508024Y-65860174D01*
X153369663Y-65499730D01*
X153194382Y-65155723D01*
X152984104Y-64831922D01*
X152741131Y-64531875D01*
X152468125Y-64258869D01*
X152168078Y-64015896D01*
X151844278Y-63805618D01*
X151841344Y-63804123D01*
X151841337Y-63804119D01*
X151727795Y-63746267D01*
X151676180Y-63697519D01*
X151659114Y-63628604D01*
X151682015Y-63561402D01*
X151737612Y-63517250D01*
X151784998Y-63508000D01*
X189215002Y-63508000D01*
X189283123Y-63528002D01*
G37*
G04 #@! TD.AperFunction*
M02*
