G04 #@! TF.FileFunction,Legend,Top*
%FSLAX46Y46*%
G04 Gerber Fmt 4.6, Leading zero omitted, Abs format (unit mm)*
G04 Created by KiCad (PCBNEW (after 2015-mar-04 BZR unknown)-product) date 2/8/2016 12:34:12 PM*
%MOMM*%
G01*
G04 APERTURE LIST*
%ADD10C,0.150000*%
%ADD11C,0.304800*%
%ADD12C,0.650000*%
G04 APERTURE END LIST*
D10*
D11*
X43506571Y-16909143D02*
X44667714Y-16909143D01*
X44087143Y-17683238D02*
X44087143Y-16135048D01*
X45466000Y-17683238D02*
X45756285Y-17683238D01*
X45901428Y-17586476D01*
X45974000Y-17489714D01*
X46119142Y-17199429D01*
X46191714Y-16812381D01*
X46191714Y-16038286D01*
X46119142Y-15844762D01*
X46046571Y-15748000D01*
X45901428Y-15651238D01*
X45611142Y-15651238D01*
X45466000Y-15748000D01*
X45393428Y-15844762D01*
X45320857Y-16038286D01*
X45320857Y-16522095D01*
X45393428Y-16715619D01*
X45466000Y-16812381D01*
X45611142Y-16909143D01*
X45901428Y-16909143D01*
X46046571Y-16812381D01*
X46119142Y-16715619D01*
X46191714Y-16522095D01*
X46627143Y-15651238D02*
X47135143Y-17683238D01*
X47643143Y-15651238D01*
X30095976Y-12064093D02*
X31305500Y-12064093D01*
X30700738Y-12668855D02*
X30700738Y-11459331D01*
X32061452Y-12668855D02*
X32061452Y-11081355D01*
X32590619Y-12215283D01*
X33119786Y-11081355D01*
X33119786Y-12668855D01*
X33875738Y-11837307D02*
X34404905Y-11837307D01*
X34631691Y-12668855D02*
X33875738Y-12668855D01*
X33875738Y-11081355D01*
X34631691Y-11081355D01*
X35236453Y-12215283D02*
X35992405Y-12215283D01*
X35085262Y-12668855D02*
X35614429Y-11081355D01*
X36143596Y-12668855D01*
X36597167Y-12593260D02*
X36823953Y-12668855D01*
X37201929Y-12668855D01*
X37353119Y-12593260D01*
X37428715Y-12517664D01*
X37504310Y-12366474D01*
X37504310Y-12215283D01*
X37428715Y-12064093D01*
X37353119Y-11988498D01*
X37201929Y-11912902D01*
X36899548Y-11837307D01*
X36748357Y-11761712D01*
X36672762Y-11686117D01*
X36597167Y-11534926D01*
X36597167Y-11383736D01*
X36672762Y-11232545D01*
X36748357Y-11156950D01*
X36899548Y-11081355D01*
X37277524Y-11081355D01*
X37504310Y-11156950D01*
X30095976Y-14591393D02*
X31305500Y-14591393D01*
X30700738Y-15196155D02*
X30700738Y-13986631D01*
X32817405Y-13608655D02*
X32061452Y-13608655D01*
X31985857Y-14364607D01*
X32061452Y-14289012D01*
X32212643Y-14213417D01*
X32590619Y-14213417D01*
X32741809Y-14289012D01*
X32817405Y-14364607D01*
X32893000Y-14515798D01*
X32893000Y-14893774D01*
X32817405Y-15044964D01*
X32741809Y-15120560D01*
X32590619Y-15196155D01*
X32212643Y-15196155D01*
X32061452Y-15120560D01*
X31985857Y-15044964D01*
X33346571Y-13608655D02*
X33875738Y-15196155D01*
X34404905Y-13608655D01*
X30927524Y-16211550D02*
X30776333Y-16135955D01*
X30549548Y-16135955D01*
X30322762Y-16211550D01*
X30171571Y-16362740D01*
X30095976Y-16513931D01*
X30020381Y-16816312D01*
X30020381Y-17043098D01*
X30095976Y-17345479D01*
X30171571Y-17496669D01*
X30322762Y-17647860D01*
X30549548Y-17723455D01*
X30700738Y-17723455D01*
X30927524Y-17647860D01*
X31003119Y-17572264D01*
X31003119Y-17043098D01*
X30700738Y-17043098D01*
X31683476Y-17723455D02*
X31683476Y-16135955D01*
X32590619Y-17723455D01*
X32590619Y-16135955D01*
X33346571Y-17723455D02*
X33346571Y-16135955D01*
X33724547Y-16135955D01*
X33951333Y-16211550D01*
X34102524Y-16362740D01*
X34178119Y-16513931D01*
X34253714Y-16816312D01*
X34253714Y-17043098D01*
X34178119Y-17345479D01*
X34102524Y-17496669D01*
X33951333Y-17647860D01*
X33724547Y-17723455D01*
X33346571Y-17723455D01*
X13425715Y-3154438D02*
X13280573Y-3057676D01*
X13208001Y-2864152D01*
X13208001Y-1122438D01*
X14659430Y-3154438D02*
X14659430Y-2090057D01*
X14586859Y-1896533D01*
X14441716Y-1799771D01*
X14151430Y-1799771D01*
X14006287Y-1896533D01*
X14659430Y-3057676D02*
X14514287Y-3154438D01*
X14151430Y-3154438D01*
X14006287Y-3057676D01*
X13933716Y-2864152D01*
X13933716Y-2670629D01*
X14006287Y-2477105D01*
X14151430Y-2380343D01*
X14514287Y-2380343D01*
X14659430Y-2283581D01*
X15385144Y-1799771D02*
X15385144Y-3154438D01*
X15385144Y-1993295D02*
X15457716Y-1896533D01*
X15602858Y-1799771D01*
X15820573Y-1799771D01*
X15965716Y-1896533D01*
X16038287Y-2090057D01*
X16038287Y-3154438D01*
X17417144Y-3154438D02*
X17417144Y-1122438D01*
X17417144Y-3057676D02*
X17272001Y-3154438D01*
X16981715Y-3154438D01*
X16836573Y-3057676D01*
X16764001Y-2960914D01*
X16691430Y-2767390D01*
X16691430Y-2186819D01*
X16764001Y-1993295D01*
X16836573Y-1896533D01*
X16981715Y-1799771D01*
X17272001Y-1799771D01*
X17417144Y-1896533D01*
X18142858Y-2380343D02*
X19304001Y-2380343D01*
X20029715Y-3154438D02*
X20029715Y-1122438D01*
X20029715Y-1896533D02*
X20174858Y-1799771D01*
X20465144Y-1799771D01*
X20610287Y-1896533D01*
X20682858Y-1993295D01*
X20755429Y-2186819D01*
X20755429Y-2767390D01*
X20682858Y-2960914D01*
X20610287Y-3057676D01*
X20465144Y-3154438D01*
X20174858Y-3154438D01*
X20029715Y-3057676D01*
X21626286Y-3154438D02*
X21481144Y-3057676D01*
X21408572Y-2960914D01*
X21336001Y-2767390D01*
X21336001Y-2186819D01*
X21408572Y-1993295D01*
X21481144Y-1896533D01*
X21626286Y-1799771D01*
X21844001Y-1799771D01*
X21989144Y-1896533D01*
X22061715Y-1993295D01*
X22134286Y-2186819D01*
X22134286Y-2767390D01*
X22061715Y-2960914D01*
X21989144Y-3057676D01*
X21844001Y-3154438D01*
X21626286Y-3154438D01*
X23440572Y-3154438D02*
X23440572Y-2090057D01*
X23368001Y-1896533D01*
X23222858Y-1799771D01*
X22932572Y-1799771D01*
X22787429Y-1896533D01*
X23440572Y-3057676D02*
X23295429Y-3154438D01*
X22932572Y-3154438D01*
X22787429Y-3057676D01*
X22714858Y-2864152D01*
X22714858Y-2670629D01*
X22787429Y-2477105D01*
X22932572Y-2380343D01*
X23295429Y-2380343D01*
X23440572Y-2283581D01*
X24166286Y-3154438D02*
X24166286Y-1799771D01*
X24166286Y-2186819D02*
X24238858Y-1993295D01*
X24311429Y-1896533D01*
X24456572Y-1799771D01*
X24601715Y-1799771D01*
X25762858Y-3154438D02*
X25762858Y-1122438D01*
X25762858Y-3057676D02*
X25617715Y-3154438D01*
X25327429Y-3154438D01*
X25182287Y-3057676D01*
X25109715Y-2960914D01*
X25037144Y-2767390D01*
X25037144Y-2186819D01*
X25109715Y-1993295D01*
X25182287Y-1896533D01*
X25327429Y-1799771D01*
X25617715Y-1799771D01*
X25762858Y-1896533D01*
X26416001Y-3057676D02*
X26561144Y-3154438D01*
X26851429Y-3154438D01*
X26996572Y-3057676D01*
X27069144Y-2864152D01*
X27069144Y-2767390D01*
X26996572Y-2573867D01*
X26851429Y-2477105D01*
X26633715Y-2477105D01*
X26488572Y-2380343D01*
X26416001Y-2186819D01*
X26416001Y-2090057D01*
X26488572Y-1896533D01*
X26633715Y-1799771D01*
X26851429Y-1799771D01*
X26996572Y-1896533D01*
X27722286Y-2960914D02*
X27794858Y-3057676D01*
X27722286Y-3154438D01*
X27649715Y-3057676D01*
X27722286Y-2960914D01*
X27722286Y-3154438D01*
X29101143Y-3057676D02*
X28956000Y-3154438D01*
X28665714Y-3154438D01*
X28520572Y-3057676D01*
X28448000Y-2960914D01*
X28375429Y-2767390D01*
X28375429Y-2186819D01*
X28448000Y-1993295D01*
X28520572Y-1896533D01*
X28665714Y-1799771D01*
X28956000Y-1799771D01*
X29101143Y-1896533D01*
X29972000Y-3154438D02*
X29826858Y-3057676D01*
X29754286Y-2960914D01*
X29681715Y-2767390D01*
X29681715Y-2186819D01*
X29754286Y-1993295D01*
X29826858Y-1896533D01*
X29972000Y-1799771D01*
X30189715Y-1799771D01*
X30334858Y-1896533D01*
X30407429Y-1993295D01*
X30480000Y-2186819D01*
X30480000Y-2767390D01*
X30407429Y-2960914D01*
X30334858Y-3057676D01*
X30189715Y-3154438D01*
X29972000Y-3154438D01*
X31133143Y-3154438D02*
X31133143Y-1799771D01*
X31133143Y-1993295D02*
X31205715Y-1896533D01*
X31350857Y-1799771D01*
X31568572Y-1799771D01*
X31713715Y-1896533D01*
X31786286Y-2090057D01*
X31786286Y-3154438D01*
X31786286Y-2090057D02*
X31858857Y-1896533D01*
X32004000Y-1799771D01*
X32221715Y-1799771D01*
X32366857Y-1896533D01*
X32439429Y-2090057D01*
X32439429Y-3154438D01*
X34253715Y-1025676D02*
X32947429Y-3638248D01*
X18106571Y-4272038D02*
X18614571Y-6304038D01*
X19122571Y-4272038D01*
X20501428Y-6304038D02*
X19993428Y-5336419D01*
X19630571Y-6304038D02*
X19630571Y-4272038D01*
X20211143Y-4272038D01*
X20356285Y-4368800D01*
X20428857Y-4465562D01*
X20501428Y-4659086D01*
X20501428Y-4949371D01*
X20428857Y-5142895D01*
X20356285Y-5239657D01*
X20211143Y-5336419D01*
X19630571Y-5336419D01*
X21154571Y-5239657D02*
X21662571Y-5239657D01*
X21880285Y-6304038D02*
X21154571Y-6304038D01*
X21154571Y-4272038D01*
X21880285Y-4272038D01*
X23041428Y-5239657D02*
X22533428Y-5239657D01*
X22533428Y-6304038D02*
X22533428Y-4272038D01*
X23259142Y-4272038D01*
X24492857Y-4949371D02*
X24492857Y-6304038D01*
X24130000Y-4175276D02*
X23767143Y-5626705D01*
X24710571Y-5626705D01*
X25581429Y-4272038D02*
X25726572Y-4272038D01*
X25871715Y-4368800D01*
X25944286Y-4465562D01*
X26016857Y-4659086D01*
X26089429Y-5046133D01*
X26089429Y-5529943D01*
X26016857Y-5916990D01*
X25944286Y-6110514D01*
X25871715Y-6207276D01*
X25726572Y-6304038D01*
X25581429Y-6304038D01*
X25436286Y-6207276D01*
X25363715Y-6110514D01*
X25291143Y-5916990D01*
X25218572Y-5529943D01*
X25218572Y-5046133D01*
X25291143Y-4659086D01*
X25363715Y-4465562D01*
X25436286Y-4368800D01*
X25581429Y-4272038D01*
X26815144Y-6304038D02*
X27105429Y-6304038D01*
X27250572Y-6207276D01*
X27323144Y-6110514D01*
X27468286Y-5820229D01*
X27540858Y-5433181D01*
X27540858Y-4659086D01*
X27468286Y-4465562D01*
X27395715Y-4368800D01*
X27250572Y-4272038D01*
X26960286Y-4272038D01*
X26815144Y-4368800D01*
X26742572Y-4465562D01*
X26670001Y-4659086D01*
X26670001Y-5142895D01*
X26742572Y-5336419D01*
X26815144Y-5433181D01*
X26960286Y-5529943D01*
X27250572Y-5529943D01*
X27395715Y-5433181D01*
X27468286Y-5336419D01*
X27540858Y-5142895D01*
X28847144Y-4272038D02*
X28556858Y-4272038D01*
X28411715Y-4368800D01*
X28339144Y-4465562D01*
X28194001Y-4755848D01*
X28121430Y-5142895D01*
X28121430Y-5916990D01*
X28194001Y-6110514D01*
X28266573Y-6207276D01*
X28411715Y-6304038D01*
X28702001Y-6304038D01*
X28847144Y-6207276D01*
X28919715Y-6110514D01*
X28992287Y-5916990D01*
X28992287Y-5433181D01*
X28919715Y-5239657D01*
X28847144Y-5142895D01*
X28702001Y-5046133D01*
X28411715Y-5046133D01*
X28266573Y-5142895D01*
X28194001Y-5239657D01*
X28121430Y-5433181D01*
D10*
X32854000Y-25900000D02*
X32854000Y-24900000D01*
X31154000Y-24900000D02*
X31154000Y-25900000D01*
X8630000Y-24028000D02*
X8630000Y-23028000D01*
X6930000Y-23028000D02*
X6930000Y-24028000D01*
D12*
X49285000Y-20265000D02*
X49285000Y-29265000D01*
X52585000Y-29265000D02*
X52585000Y-20265000D01*
X52585000Y-29265000D02*
X39085000Y-29265000D01*
X39085000Y-29265000D02*
X39085000Y-20265000D01*
X52585000Y-20265000D02*
X39085000Y-20265000D01*
D10*
X26924000Y-30226000D02*
X29972000Y-30226000D01*
X29972000Y-30226000D02*
X29972000Y-23114000D01*
X29972000Y-23114000D02*
X26924000Y-23114000D01*
X23876000Y-30226000D02*
X23114000Y-30226000D01*
X23114000Y-30226000D02*
X20828000Y-28702000D01*
X20828000Y-28702000D02*
X20828000Y-24638000D01*
X20828000Y-24638000D02*
X23114000Y-23114000D01*
X23114000Y-23114000D02*
X23876000Y-23114000D01*
X10592000Y-23514000D02*
G75*
G03X10592000Y-23514000I-100000J0D01*
G01*
X10742000Y-22864000D02*
X10742000Y-23364000D01*
X13642000Y-22864000D02*
X10742000Y-22864000D01*
X13642000Y-23364000D02*
X13642000Y-22864000D01*
X10742000Y-23364000D02*
X13642000Y-23364000D01*
X14351000Y-14605000D02*
G75*
G03X14351000Y-14605000I-6096000J0D01*
G01*
X14351000Y-33655000D02*
G75*
G03X14351000Y-33655000I-6096000J0D01*
G01*
X33323000Y-27416000D02*
X33323000Y-25416000D01*
X36273000Y-25416000D02*
X36273000Y-27416000D01*
X16592000Y-26306000D02*
X16592000Y-24306000D01*
X19542000Y-24306000D02*
X19542000Y-26306000D01*
X29210000Y-15748000D02*
X29210000Y-10668000D01*
X29210000Y-10668000D02*
X26670000Y-10668000D01*
X26670000Y-10668000D02*
X26670000Y-15748000D01*
X26390000Y-18568000D02*
X26390000Y-17018000D01*
X26670000Y-15748000D02*
X29210000Y-15748000D01*
X29490000Y-17018000D02*
X29490000Y-18568000D01*
X29490000Y-18568000D02*
X26390000Y-18568000D01*
X22903000Y-17307000D02*
X22903000Y-17162000D01*
X18753000Y-17307000D02*
X18753000Y-17162000D01*
X18753000Y-12157000D02*
X18753000Y-12302000D01*
X22903000Y-12157000D02*
X22903000Y-12302000D01*
X22903000Y-17307000D02*
X18753000Y-17307000D01*
X22903000Y-12157000D02*
X18753000Y-12157000D01*
X22903000Y-17162000D02*
X24303000Y-17162000D01*
X20228000Y-18175000D02*
X21428000Y-18175000D01*
X21428000Y-19925000D02*
X20228000Y-19925000D01*
X31837334Y-22963143D02*
X31789715Y-23010762D01*
X31646858Y-23058381D01*
X31551620Y-23058381D01*
X31408762Y-23010762D01*
X31313524Y-22915524D01*
X31265905Y-22820286D01*
X31218286Y-22629810D01*
X31218286Y-22486952D01*
X31265905Y-22296476D01*
X31313524Y-22201238D01*
X31408762Y-22106000D01*
X31551620Y-22058381D01*
X31646858Y-22058381D01*
X31789715Y-22106000D01*
X31837334Y-22153619D01*
X32789715Y-23058381D02*
X32218286Y-23058381D01*
X32504000Y-23058381D02*
X32504000Y-22058381D01*
X32408762Y-22201238D01*
X32313524Y-22296476D01*
X32218286Y-22344095D01*
X7707334Y-27027143D02*
X7659715Y-27074762D01*
X7516858Y-27122381D01*
X7421620Y-27122381D01*
X7278762Y-27074762D01*
X7183524Y-26979524D01*
X7135905Y-26884286D01*
X7088286Y-26693810D01*
X7088286Y-26550952D01*
X7135905Y-26360476D01*
X7183524Y-26265238D01*
X7278762Y-26170000D01*
X7421620Y-26122381D01*
X7516858Y-26122381D01*
X7659715Y-26170000D01*
X7707334Y-26217619D01*
X8564477Y-26455714D02*
X8564477Y-27122381D01*
X8326381Y-26074762D02*
X8088286Y-26789048D01*
X8707334Y-26789048D01*
X27686095Y-30440381D02*
X27686095Y-31249905D01*
X27733714Y-31345143D01*
X27781333Y-31392762D01*
X27876571Y-31440381D01*
X28067048Y-31440381D01*
X28162286Y-31392762D01*
X28209905Y-31345143D01*
X28257524Y-31249905D01*
X28257524Y-30440381D01*
X29257524Y-31440381D02*
X28686095Y-31440381D01*
X28971809Y-31440381D02*
X28971809Y-30440381D01*
X28876571Y-30583238D01*
X28781333Y-30678476D01*
X28686095Y-30726095D01*
X9906095Y-25360381D02*
X9906095Y-26169905D01*
X9953714Y-26265143D01*
X10001333Y-26312762D01*
X10096571Y-26360381D01*
X10287048Y-26360381D01*
X10382286Y-26312762D01*
X10429905Y-26265143D01*
X10477524Y-26169905D01*
X10477524Y-25360381D01*
X10906095Y-25455619D02*
X10953714Y-25408000D01*
X11048952Y-25360381D01*
X11287048Y-25360381D01*
X11382286Y-25408000D01*
X11429905Y-25455619D01*
X11477524Y-25550857D01*
X11477524Y-25646095D01*
X11429905Y-25788952D01*
X10858476Y-26360381D01*
X11477524Y-26360381D01*
X12723905Y-9596381D02*
X12723905Y-8596381D01*
X13104858Y-8596381D01*
X13200096Y-8644000D01*
X13247715Y-8691619D01*
X13295334Y-8786857D01*
X13295334Y-8929714D01*
X13247715Y-9024952D01*
X13200096Y-9072571D01*
X13104858Y-9120190D01*
X12723905Y-9120190D01*
X14247715Y-9596381D02*
X13676286Y-9596381D01*
X13962000Y-9596381D02*
X13962000Y-8596381D01*
X13866762Y-8739238D01*
X13771524Y-8834476D01*
X13676286Y-8882095D01*
X12977905Y-39314381D02*
X12977905Y-38314381D01*
X13358858Y-38314381D01*
X13454096Y-38362000D01*
X13501715Y-38409619D01*
X13549334Y-38504857D01*
X13549334Y-38647714D01*
X13501715Y-38742952D01*
X13454096Y-38790571D01*
X13358858Y-38838190D01*
X12977905Y-38838190D01*
X13930286Y-38409619D02*
X13977905Y-38362000D01*
X14073143Y-38314381D01*
X14311239Y-38314381D01*
X14406477Y-38362000D01*
X14454096Y-38409619D01*
X14501715Y-38504857D01*
X14501715Y-38600095D01*
X14454096Y-38742952D01*
X13882667Y-39314381D01*
X14501715Y-39314381D01*
X34631334Y-22963143D02*
X34583715Y-23010762D01*
X34440858Y-23058381D01*
X34345620Y-23058381D01*
X34202762Y-23010762D01*
X34107524Y-22915524D01*
X34059905Y-22820286D01*
X34012286Y-22629810D01*
X34012286Y-22486952D01*
X34059905Y-22296476D01*
X34107524Y-22201238D01*
X34202762Y-22106000D01*
X34345620Y-22058381D01*
X34440858Y-22058381D01*
X34583715Y-22106000D01*
X34631334Y-22153619D01*
X35012286Y-22153619D02*
X35059905Y-22106000D01*
X35155143Y-22058381D01*
X35393239Y-22058381D01*
X35488477Y-22106000D01*
X35536096Y-22153619D01*
X35583715Y-22248857D01*
X35583715Y-22344095D01*
X35536096Y-22486952D01*
X34964667Y-23058381D01*
X35583715Y-23058381D01*
X17867334Y-21693143D02*
X17819715Y-21740762D01*
X17676858Y-21788381D01*
X17581620Y-21788381D01*
X17438762Y-21740762D01*
X17343524Y-21645524D01*
X17295905Y-21550286D01*
X17248286Y-21359810D01*
X17248286Y-21216952D01*
X17295905Y-21026476D01*
X17343524Y-20931238D01*
X17438762Y-20836000D01*
X17581620Y-20788381D01*
X17676858Y-20788381D01*
X17819715Y-20836000D01*
X17867334Y-20883619D01*
X18200667Y-20788381D02*
X18819715Y-20788381D01*
X18486381Y-21169333D01*
X18629239Y-21169333D01*
X18724477Y-21216952D01*
X18772096Y-21264571D01*
X18819715Y-21359810D01*
X18819715Y-21597905D01*
X18772096Y-21693143D01*
X18724477Y-21740762D01*
X18629239Y-21788381D01*
X18343524Y-21788381D01*
X18248286Y-21740762D01*
X18200667Y-21693143D01*
X27201905Y-19756381D02*
X27201905Y-18756381D01*
X27582858Y-18756381D01*
X27678096Y-18804000D01*
X27725715Y-18851619D01*
X27773334Y-18946857D01*
X27773334Y-19089714D01*
X27725715Y-19184952D01*
X27678096Y-19232571D01*
X27582858Y-19280190D01*
X27201905Y-19280190D01*
X28106667Y-18756381D02*
X28725715Y-18756381D01*
X28392381Y-19137333D01*
X28535239Y-19137333D01*
X28630477Y-19184952D01*
X28678096Y-19232571D01*
X28725715Y-19327810D01*
X28725715Y-19565905D01*
X28678096Y-19661143D01*
X28630477Y-19708762D01*
X28535239Y-19756381D01*
X28249524Y-19756381D01*
X28154286Y-19708762D01*
X28106667Y-19661143D01*
X23622095Y-17486381D02*
X23622095Y-18295905D01*
X23669714Y-18391143D01*
X23717333Y-18438762D01*
X23812571Y-18486381D01*
X24003048Y-18486381D01*
X24098286Y-18438762D01*
X24145905Y-18391143D01*
X24193524Y-18295905D01*
X24193524Y-17486381D01*
X24574476Y-17486381D02*
X25193524Y-17486381D01*
X24860190Y-17867333D01*
X25003048Y-17867333D01*
X25098286Y-17914952D01*
X25145905Y-17962571D01*
X25193524Y-18057810D01*
X25193524Y-18295905D01*
X25145905Y-18391143D01*
X25098286Y-18438762D01*
X25003048Y-18486381D01*
X24717333Y-18486381D01*
X24622095Y-18438762D01*
X24574476Y-18391143D01*
X20661334Y-21280381D02*
X20328000Y-20804190D01*
X20089905Y-21280381D02*
X20089905Y-20280381D01*
X20470858Y-20280381D01*
X20566096Y-20328000D01*
X20613715Y-20375619D01*
X20661334Y-20470857D01*
X20661334Y-20613714D01*
X20613715Y-20708952D01*
X20566096Y-20756571D01*
X20470858Y-20804190D01*
X20089905Y-20804190D01*
X21613715Y-21280381D02*
X21042286Y-21280381D01*
X21328000Y-21280381D02*
X21328000Y-20280381D01*
X21232762Y-20423238D01*
X21137524Y-20518476D01*
X21042286Y-20566095D01*
M02*
