G04 (created by PCBNEW (2013-05-31 BZR 4019)-stable) date 7/7/2013 10:44:35 AM*
%MOIN*%
G04 Gerber Fmt 3.4, Leading zero omitted, Abs format*
%FSLAX34Y34*%
G01*
G70*
G90*
G04 APERTURE LIST*
%ADD10C,0.00590551*%
%ADD11C,0.012*%
G04 APERTURE END LIST*
G54D10*
G54D11*
X71273Y-35217D02*
X70473Y-35217D01*
X71235Y-35217D02*
X71273Y-35160D01*
X71273Y-35046D01*
X71235Y-34989D01*
X71197Y-34960D01*
X71121Y-34932D01*
X70892Y-34932D01*
X70816Y-34960D01*
X70778Y-34989D01*
X70740Y-35046D01*
X70740Y-35160D01*
X70778Y-35217D01*
X71273Y-35589D02*
X71235Y-35532D01*
X71197Y-35503D01*
X71121Y-35475D01*
X70892Y-35475D01*
X70816Y-35503D01*
X70778Y-35532D01*
X70740Y-35589D01*
X70740Y-35675D01*
X70778Y-35732D01*
X70816Y-35760D01*
X70892Y-35789D01*
X71121Y-35789D01*
X71197Y-35760D01*
X71235Y-35732D01*
X71273Y-35675D01*
X71273Y-35589D01*
X70740Y-36303D02*
X71273Y-36303D01*
X70740Y-36046D02*
X71159Y-36046D01*
X71235Y-36075D01*
X71273Y-36132D01*
X71273Y-36217D01*
X71235Y-36275D01*
X71197Y-36303D01*
X70740Y-36846D02*
X71388Y-36846D01*
X71464Y-36817D01*
X71502Y-36789D01*
X71540Y-36732D01*
X71540Y-36646D01*
X71502Y-36589D01*
X71235Y-36846D02*
X71273Y-36789D01*
X71273Y-36675D01*
X71235Y-36617D01*
X71197Y-36589D01*
X71121Y-36560D01*
X70892Y-36560D01*
X70816Y-36589D01*
X70778Y-36617D01*
X70740Y-36675D01*
X70740Y-36789D01*
X70778Y-36846D01*
X71235Y-37103D02*
X71273Y-37160D01*
X71273Y-37275D01*
X71235Y-37332D01*
X71159Y-37360D01*
X71121Y-37360D01*
X71045Y-37332D01*
X71007Y-37275D01*
X71007Y-37189D01*
X70969Y-37132D01*
X70892Y-37103D01*
X70854Y-37103D01*
X70778Y-37132D01*
X70740Y-37189D01*
X70740Y-37275D01*
X70778Y-37332D01*
X70740Y-37617D02*
X71540Y-37617D01*
X70778Y-37617D02*
X70740Y-37675D01*
X70740Y-37789D01*
X70778Y-37846D01*
X70816Y-37875D01*
X70892Y-37903D01*
X71121Y-37903D01*
X71197Y-37875D01*
X71235Y-37846D01*
X71273Y-37789D01*
X71273Y-37675D01*
X71235Y-37617D01*
X71235Y-38417D02*
X71273Y-38360D01*
X71273Y-38246D01*
X71235Y-38189D01*
X71197Y-38160D01*
X71121Y-38132D01*
X70892Y-38132D01*
X70816Y-38160D01*
X70778Y-38189D01*
X70740Y-38246D01*
X70740Y-38360D01*
X70778Y-38417D01*
X71273Y-38675D02*
X70473Y-38675D01*
X70778Y-38675D02*
X70740Y-38732D01*
X70740Y-38846D01*
X70778Y-38903D01*
X70816Y-38932D01*
X70892Y-38960D01*
X71121Y-38960D01*
X71197Y-38932D01*
X71235Y-38903D01*
X71273Y-38846D01*
X71273Y-38732D01*
X71235Y-38675D01*
X71273Y-39475D02*
X70473Y-39475D01*
X71235Y-39475D02*
X71273Y-39417D01*
X71273Y-39303D01*
X71235Y-39246D01*
X71197Y-39217D01*
X71121Y-39189D01*
X70892Y-39189D01*
X70816Y-39217D01*
X70778Y-39246D01*
X70740Y-39303D01*
X70740Y-39417D01*
X70778Y-39475D01*
X71235Y-39989D02*
X71273Y-39932D01*
X71273Y-39817D01*
X71235Y-39760D01*
X71159Y-39732D01*
X70854Y-39732D01*
X70778Y-39760D01*
X70740Y-39817D01*
X70740Y-39932D01*
X70778Y-39989D01*
X70854Y-40017D01*
X70930Y-40017D01*
X71007Y-39732D01*
X71235Y-40246D02*
X71273Y-40303D01*
X71273Y-40417D01*
X71235Y-40475D01*
X71159Y-40503D01*
X71121Y-40503D01*
X71045Y-40475D01*
X71007Y-40417D01*
X71007Y-40332D01*
X70969Y-40275D01*
X70892Y-40246D01*
X70854Y-40246D01*
X70778Y-40275D01*
X70740Y-40332D01*
X70740Y-40417D01*
X70778Y-40475D01*
X71273Y-40760D02*
X70740Y-40760D01*
X70473Y-40760D02*
X70511Y-40732D01*
X70550Y-40760D01*
X70511Y-40789D01*
X70473Y-40760D01*
X70550Y-40760D01*
X70740Y-41303D02*
X71388Y-41303D01*
X71464Y-41275D01*
X71502Y-41246D01*
X71540Y-41189D01*
X71540Y-41103D01*
X71502Y-41046D01*
X71235Y-41303D02*
X71273Y-41246D01*
X71273Y-41132D01*
X71235Y-41075D01*
X71197Y-41046D01*
X71121Y-41017D01*
X70892Y-41017D01*
X70816Y-41046D01*
X70778Y-41075D01*
X70740Y-41132D01*
X70740Y-41246D01*
X70778Y-41303D01*
X70740Y-41589D02*
X71273Y-41589D01*
X70816Y-41589D02*
X70778Y-41617D01*
X70740Y-41675D01*
X70740Y-41760D01*
X70778Y-41817D01*
X70854Y-41846D01*
X71273Y-41846D01*
X71235Y-42103D02*
X71273Y-42160D01*
X71273Y-42275D01*
X71235Y-42332D01*
X71159Y-42360D01*
X71121Y-42360D01*
X71045Y-42332D01*
X71007Y-42275D01*
X71007Y-42189D01*
X70969Y-42132D01*
X70892Y-42103D01*
X70854Y-42103D01*
X70778Y-42132D01*
X70740Y-42189D01*
X70740Y-42275D01*
X70778Y-42332D01*
X71197Y-42617D02*
X71235Y-42646D01*
X71273Y-42617D01*
X71235Y-42589D01*
X71197Y-42617D01*
X71273Y-42617D01*
X70740Y-42903D02*
X71540Y-42903D01*
X70778Y-42903D02*
X70740Y-42960D01*
X70740Y-43075D01*
X70778Y-43132D01*
X70816Y-43160D01*
X70892Y-43189D01*
X71121Y-43189D01*
X71197Y-43160D01*
X71235Y-43132D01*
X71273Y-43075D01*
X71273Y-42960D01*
X71235Y-42903D01*
X71273Y-43446D02*
X70473Y-43446D01*
X70778Y-43446D02*
X70740Y-43503D01*
X70740Y-43617D01*
X70778Y-43675D01*
X70816Y-43703D01*
X70892Y-43732D01*
X71121Y-43732D01*
X71197Y-43703D01*
X71235Y-43675D01*
X71273Y-43617D01*
X71273Y-43503D01*
X71235Y-43446D01*
X70740Y-43932D02*
X71273Y-44046D01*
X70892Y-44160D01*
X71273Y-44274D01*
X70740Y-44389D01*
X71273Y-44703D02*
X71235Y-44646D01*
X71197Y-44617D01*
X71121Y-44589D01*
X70892Y-44589D01*
X70816Y-44617D01*
X70778Y-44646D01*
X70740Y-44703D01*
X70740Y-44789D01*
X70778Y-44846D01*
X70816Y-44874D01*
X70892Y-44903D01*
X71121Y-44903D01*
X71197Y-44874D01*
X71235Y-44846D01*
X71273Y-44789D01*
X71273Y-44703D01*
X71273Y-45160D02*
X70740Y-45160D01*
X70892Y-45160D02*
X70816Y-45189D01*
X70778Y-45217D01*
X70740Y-45274D01*
X70740Y-45332D01*
X71273Y-45532D02*
X70473Y-45532D01*
X70969Y-45589D02*
X71273Y-45760D01*
X70740Y-45760D02*
X71045Y-45532D01*
X71235Y-45989D02*
X71273Y-46046D01*
X71273Y-46160D01*
X71235Y-46217D01*
X71159Y-46246D01*
X71121Y-46246D01*
X71045Y-46217D01*
X71007Y-46160D01*
X71007Y-46074D01*
X70969Y-46017D01*
X70892Y-45989D01*
X70854Y-45989D01*
X70778Y-46017D01*
X70740Y-46074D01*
X70740Y-46160D01*
X70778Y-46217D01*
X71197Y-46503D02*
X71235Y-46532D01*
X71273Y-46503D01*
X71235Y-46474D01*
X71197Y-46503D01*
X71273Y-46503D01*
X71235Y-47046D02*
X71273Y-46989D01*
X71273Y-46874D01*
X71235Y-46817D01*
X71197Y-46789D01*
X71121Y-46760D01*
X70892Y-46760D01*
X70816Y-46789D01*
X70778Y-46817D01*
X70740Y-46874D01*
X70740Y-46989D01*
X70778Y-47046D01*
X71273Y-47389D02*
X71235Y-47332D01*
X71197Y-47303D01*
X71121Y-47274D01*
X70892Y-47274D01*
X70816Y-47303D01*
X70778Y-47332D01*
X70740Y-47389D01*
X70740Y-47474D01*
X70778Y-47532D01*
X70816Y-47560D01*
X70892Y-47589D01*
X71121Y-47589D01*
X71197Y-47560D01*
X71235Y-47532D01*
X71273Y-47474D01*
X71273Y-47389D01*
X71273Y-47846D02*
X70740Y-47846D01*
X70816Y-47846D02*
X70778Y-47874D01*
X70740Y-47932D01*
X70740Y-48017D01*
X70778Y-48074D01*
X70854Y-48103D01*
X71273Y-48103D01*
X70854Y-48103D02*
X70778Y-48132D01*
X70740Y-48189D01*
X70740Y-48274D01*
X70778Y-48332D01*
X70854Y-48360D01*
X71273Y-48360D01*
X70435Y-49074D02*
X71464Y-48560D01*
X72513Y-40646D02*
X72513Y-40360D01*
X71713Y-40360D01*
X72094Y-40846D02*
X72094Y-41046D01*
X72513Y-41132D02*
X72513Y-40846D01*
X71713Y-40846D01*
X71713Y-41132D01*
X72513Y-41389D02*
X71713Y-41389D01*
X71713Y-41532D01*
X71751Y-41617D01*
X71828Y-41674D01*
X71904Y-41703D01*
X72056Y-41732D01*
X72170Y-41732D01*
X72323Y-41703D01*
X72399Y-41674D01*
X72475Y-41617D01*
X72513Y-41532D01*
X72513Y-41389D01*
X72209Y-41989D02*
X72209Y-42446D01*
X72513Y-43046D02*
X72513Y-42703D01*
X72513Y-42874D02*
X71713Y-42874D01*
X71828Y-42817D01*
X71904Y-42760D01*
X71942Y-42703D01*
X72056Y-43389D02*
X72018Y-43332D01*
X71980Y-43303D01*
X71904Y-43275D01*
X71866Y-43275D01*
X71790Y-43303D01*
X71751Y-43332D01*
X71713Y-43389D01*
X71713Y-43503D01*
X71751Y-43560D01*
X71790Y-43589D01*
X71866Y-43617D01*
X71904Y-43617D01*
X71980Y-43589D01*
X72018Y-43560D01*
X72056Y-43503D01*
X72056Y-43389D01*
X72094Y-43332D01*
X72132Y-43303D01*
X72209Y-43275D01*
X72361Y-43275D01*
X72437Y-43303D01*
X72475Y-43332D01*
X72513Y-43389D01*
X72513Y-43503D01*
X72475Y-43560D01*
X72437Y-43589D01*
X72361Y-43617D01*
X72209Y-43617D01*
X72132Y-43589D01*
X72094Y-43560D01*
X72056Y-43503D01*
M02*
