0
SECTION
2
HEADER
9
$ANGBASE
50
0.0
9
$ANGDIR
70
0
0
ENDSEC
0
SECTION
2
TABLES
0
TABLE
2
LTYPE
70
1
0
LTYPE
2
CONTINUOUS
70
0
3
Solid line
72
65
73
0
40
0.0
0
ENDTAB
0
TABLE
2
LAYER
70
24
0
LAYER
2
BLACK
70
0
62
1
6
CONTINUOUS
0
LAYER
2
BLUE
70
0
62
2
6
CONTINUOUS
0
LAYER
2
GREEN
70
0
62
3
6
CONTINUOUS
0
LAYER
2
CYAN
70
0
62
4
6
CONTINUOUS
0
LAYER
2
RED
70
0
62
5
6
CONTINUOUS
0
LAYER
2
MAGENTA
70
0
62
6
6
CONTINUOUS
0
LAYER
2
BROWN
70
0
62
7
6
CONTINUOUS
0
LAYER
2
GRAY
70
0
62
8
6
CONTINUOUS
0
LAYER
2
DARKGRAY
70
0
62
9
6
CONTINUOUS
0
LAYER
2
LIGHTBLUE
70
0
62
10
6
CONTINUOUS
0
LAYER
2
LIGHTGREEN
70
0
62
11
6
CONTINUOUS
0
LAYER
2
LIGHTCYAN
70
0
62
12
6
CONTINUOUS
0
LAYER
2
LIGHTRED
70
0
62
13
6
CONTINUOUS
0
LAYER
2
LIGHTMAGENTA
70
0
62
14
6
CONTINUOUS
0
LAYER
2
YELLOW
70
0
62
15
6
CONTINUOUS
0
LAYER
2
WHITE
70
0
62
16
6
CONTINUOUS
0
LAYER
2
DARKDARKGRAY
70
0
62
17
6
CONTINUOUS
0
LAYER
2
DARKBLUE
70
0
62
18
6
CONTINUOUS
0
LAYER
2
DARKGREEN
70
0
62
19
6
CONTINUOUS
0
LAYER
2
DARKCYAN
70
0
62
20
6
CONTINUOUS
0
LAYER
2
DARKRED
70
0
62
21
6
CONTINUOUS
0
LAYER
2
DARKMAGENTA
70
0
62
22
6
CONTINUOUS
0
LAYER
2
DARKBROWN
70
0
62
23
6
CONTINUOUS
0
LAYER
2
LIGHTYELLOW
70
0
62
24
6
CONTINUOUS
0
ENDTAB
0
ENDSEC
0
SECTION
2
ENTITIES
0
LINE
8
BLACK
10
64350.0
20
56645.0
11
82750.0
21
56645.0
0
LINE
8
BLACK
10
64350.0
20
56795.0
11
82750.0
21
56795.0
0
ARC
8
BLACK
10
82750.0
20
56720.0
40
75.0
50
270.0
51
450.0
0
ARC
8
BLACK
10
64350.0
20
56720.0
40
75.0
50
90.0
51
270.0
0
LINE
8
BLACK
10
84225.0
20
48220.0
11
84225.0
21
55270.0
0
LINE
8
BLACK
10
84075.0
20
48220.0
11
84075.0
21
55270.0
0
ARC
8
BLACK
10
84150.0
20
55270.0
40
75.0
50
360.0
51
540.0
0
ARC
8
BLACK
10
84150.0
20
48220.0
40
75.0
50
180.0
51
360.0
0
LINE
8
BLACK
10
63050.0
20
46645.0
11
82800.0
21
46645.0
0
LINE
8
BLACK
10
63050.0
20
46795.0
11
82800.0
21
46795.0
0
ARC
8
BLACK
10
82800.0
20
46720.0
40
75.0
50
270.0
51
450.0
0
ARC
8
BLACK
10
63050.0
20
46720.0
40
75.0
50
90.0
51
270.0
0
LINE
8
BLACK
10
62875.0
20
46970.0
11
62875.0
21
55420.0
0
LINE
8
BLACK
10
62725.0
20
46970.0
11
62725.0
21
55420.0
0
ARC
8
BLACK
10
62800.0
20
55420.0
40
75.0
50
360.0
51
540.0
0
ARC
8
BLACK
10
62800.0
20
46970.0
40
75.0
50
180.0
51
360.0
0
ARC
8
BLACK
10
82700.0
20
48170.0
40
1453.0
50
-86.0
51
3.0
0
ARC
8
BLACK
10
64250.0
20
55270.0
40
1453.0
50
86.0
51
176.0
0
ARC
8
BLACK
10
82700.0
20
55270.0
40
1450.0
50
0.0
51
90.0
0
ARC
8
BLACK
10
63050.0
20
46970.0
40
250.0
50
-180.0
51
-90.0
0
CIRCLE
8
BLACK
10
64250.0
20
50270.0
40
1250
0
CIRCLE
8
BLACK
10
64250.0
20
55270.0
40
1250
0
CIRCLE
8
BLACK
10
82700.0
20
55270.0
40
1250
0
CIRCLE
8
BLACK
10
82700.0
20
48170.0
40
1250
0
LINE
8
BLACK
10
77625.0
20
48745.0
11
77625.0
21
48195.0
0
LINE
8
BLACK
10
77625.0
20
48195.0
11
78175.0
21
48195.0
0
LINE
8
BLACK
10
78175.0
20
48195.0
11
78175.0
21
48745.0
0
LINE
8
BLACK
10
78175.0
20
48745.0
11
77625.0
21
48745.0
0
CIRCLE
8
BLACK
10
76900.0
20
48470.0
40
275
0
CIRCLE
8
BLACK
10
76900.0
20
47470.0
40
275
0
LINE
8
BLACK
10
77425.0
20
50395.0
11
77425.0
21
50945.0
0
LINE
8
BLACK
10
77425.0
20
50945.0
11
76875.0
21
50945.0
0
LINE
8
BLACK
10
76875.0
20
50945.0
11
76875.0
21
50395.0
0
LINE
8
BLACK
10
76875.0
20
50395.0
11
77425.0
21
50395.0
0
CIRCLE
8
BLACK
10
78150.0
20
50670.0
40
275
0
CIRCLE
8
BLACK
10
78150.0
20
51670.0
40
275
0
LINE
8
BLACK
10
77525.0
20
53195.0
11
77525.0
21
52645.0
0
LINE
8
BLACK
10
77525.0
20
52645.0
11
78075.0
21
52645.0
0
LINE
8
BLACK
10
78075.0
20
52645.0
11
78075.0
21
53195.0
0
LINE
8
BLACK
10
78075.0
20
53195.0
11
77525.0
21
53195.0
0
CIRCLE
8
BLACK
10
76800.0
20
52920.0
40
275
0
CIRCLE
8
BLACK
10
76800.0
20
51920.0
40
275
0
LINE
8
BLACK
10
77425.0
20
54695.0
11
77425.0
21
55245.0
0
LINE
8
BLACK
10
77425.0
20
55245.0
11
76875.0
21
55245.0
0
LINE
8
BLACK
10
76875.0
20
55245.0
11
76875.0
21
54695.0
0
LINE
8
BLACK
10
76875.0
20
54695.0
11
77425.0
21
54695.0
0
CIRCLE
8
BLACK
10
78150.0
20
54970.0
40
275
0
CIRCLE
8
BLACK
10
78150.0
20
55970.0
40
275
0
CIRCLE
8
BLACK
10
80400.0
20
48870.0
40
275
0
CIRCLE
8
BLACK
10
79400.0
20
48870.0
40
275
0
CIRCLE
8
BLACK
10
79800.0
20
54720.0
40
275
0
CIRCLE
8
BLACK
10
80800.0
20
54720.0
40
275
0
LINE
8
BLACK
10
83060.0
20
52820.0
11
83060.0
21
53720.0
0
LINE
8
BLACK
10
83060.0
20
53720.0
11
82440.0
21
53720.0
0
LINE
8
BLACK
10
82440.0
20
53720.0
11
82440.0
21
52820.0
0
LINE
8
BLACK
10
82440.0
20
52820.0
11
83060.0
21
52820.0
0
LINE
8
BLACK
10
82060.0
20
53130.0
11
82060.0
21
53410.0
0
LINE
8
BLACK
10
81440.0
20
53130.0
11
81440.0
21
53410.0
0
ARC
8
BLACK
10
81750.0
20
53410.0
40
310.0
50
360.0
51
540.0
0
ARC
8
BLACK
10
81750.0
20
53130.0
40
310.0
50
180.0
51
360.0
0
LINE
8
BLACK
10
81060.0
20
53130.0
11
81060.0
21
53410.0
0
LINE
8
BLACK
10
80440.0
20
53130.0
11
80440.0
21
53410.0
0
ARC
8
BLACK
10
80750.0
20
53410.0
40
310.0
50
360.0
51
540.0
0
ARC
8
BLACK
10
80750.0
20
53130.0
40
310.0
50
180.0
51
360.0
0
LINE
8
BLACK
10
80060.0
20
53130.0
11
80060.0
21
53410.0
0
LINE
8
BLACK
10
79440.0
20
53130.0
11
79440.0
21
53410.0
0
ARC
8
BLACK
10
79750.0
20
53410.0
40
310.0
50
360.0
51
540.0
0
ARC
8
BLACK
10
79750.0
20
53130.0
40
310.0
50
180.0
51
360.0
0
LINE
8
BLACK
10
80060.0
20
50130.0
11
80060.0
21
50410.0
0
LINE
8
BLACK
10
79440.0
20
50130.0
11
79440.0
21
50410.0
0
ARC
8
BLACK
10
79750.0
20
50410.0
40
310.0
50
360.0
51
540.0
0
ARC
8
BLACK
10
79750.0
20
50130.0
40
310.0
50
180.0
51
360.0
0
LINE
8
BLACK
10
81060.0
20
50130.0
11
81060.0
21
50410.0
0
LINE
8
BLACK
10
80440.0
20
50130.0
11
80440.0
21
50410.0
0
ARC
8
BLACK
10
80750.0
20
50410.0
40
310.0
50
360.0
51
540.0
0
ARC
8
BLACK
10
80750.0
20
50130.0
40
310.0
50
180.0
51
360.0
0
LINE
8
BLACK
10
82060.0
20
50130.0
11
82060.0
21
50410.0
0
LINE
8
BLACK
10
81440.0
20
50130.0
11
81440.0
21
50410.0
0
ARC
8
BLACK
10
81750.0
20
50410.0
40
310.0
50
360.0
51
540.0
0
ARC
8
BLACK
10
81750.0
20
50130.0
40
310.0
50
180.0
51
360.0
0
LINE
8
BLACK
10
83060.0
20
50130.0
11
83060.0
21
50410.0
0
LINE
8
BLACK
10
82440.0
20
50130.0
11
82440.0
21
50410.0
0
ARC
8
BLACK
10
82750.0
20
50410.0
40
310.0
50
360.0
51
540.0
0
ARC
8
BLACK
10
82750.0
20
50130.0
40
310.0
50
180.0
51
360.0
0
LINE
8
BLACK
10
79500.0
20
56270.0
11
79500.0
21
55670.0
0
LINE
8
BLACK
10
79500.0
20
55670.0
11
80100.0
21
55670.0
0
LINE
8
BLACK
10
80100.0
20
55670.0
11
80100.0
21
56270.0
0
LINE
8
BLACK
10
80100.0
20
56270.0
11
79500.0
21
56270.0
0
CIRCLE
8
BLACK
10
80800.0
20
55970.0
40
300
0
LINE
8
BLACK
10
78500.0
20
47720.0
11
78500.0
21
47120.0
0
LINE
8
BLACK
10
78500.0
20
47120.0
11
79100.0
21
47120.0
0
LINE
8
BLACK
10
79100.0
20
47120.0
11
79100.0
21
47720.0
0
LINE
8
BLACK
10
79100.0
20
47720.0
11
78500.0
21
47720.0
0
CIRCLE
8
BLACK
10
79800.0
20
47420.0
40
300
0
CIRCLE
8
BLACK
10
80800.0
20
47420.0
40
300
0
CIRCLE
8
BLACK
10
76150.0
20
54920.0
40
275
0
CIRCLE
8
BLACK
10
73150.0
20
54920.0
40
275
0
CIRCLE
8
BLACK
10
75300.0
20
52320.0
40
275
0
CIRCLE
8
BLACK
10
72300.0
20
52320.0
40
275
0
CIRCLE
8
BLACK
10
76250.0
20
49870.0
40
275
0
CIRCLE
8
BLACK
10
73250.0
20
49870.0
40
275
0
CIRCLE
8
BLACK
10
75450.0
20
47470.0
40
275
0
CIRCLE
8
BLACK
10
72450.0
20
47470.0
40
275
0
CIRCLE
8
BLACK
10
73200.0
20
55920.0
40
275
0
CIRCLE
8
BLACK
10
76200.0
20
55920.0
40
275
0
CIRCLE
8
BLACK
10
72250.0
20
53320.0
40
275
0
CIRCLE
8
BLACK
10
75250.0
20
53320.0
40
275
0
CIRCLE
8
BLACK
10
73250.0
20
50920.0
40
275
0
CIRCLE
8
BLACK
10
76250.0
20
50920.0
40
275
0
CIRCLE
8
BLACK
10
72450.0
20
48520.0
40
275
0
CIRCLE
8
BLACK
10
75450.0
20
48520.0
40
275
0
CIRCLE
8
BLACK
10
66400.0
20
50420.0
40
330
0
CIRCLE
8
BLACK
10
67400.0
20
50420.0
40
330
0
CIRCLE
8
BLACK
10
70300.0
20
47920.0
40
330
0
CIRCLE
8
BLACK
10
71300.0
20
47920.0
40
330
0
CIRCLE
8
BLACK
10
67900.0
20
47920.0
40
330
0
CIRCLE
8
BLACK
10
68900.0
20
47920.0
40
330
0
CIRCLE
8
BLACK
10
65500.0
20
47920.0
40
330
0
CIRCLE
8
BLACK
10
66500.0
20
47920.0
40
330
0
CIRCLE
8
BLACK
10
71200.0
20
50420.0
40
330
0
CIRCLE
8
BLACK
10
72200.0
20
50420.0
40
330
0
CIRCLE
8
BLACK
10
68800.0
20
50420.0
40
330
0
CIRCLE
8
BLACK
10
69800.0
20
50420.0
40
330
0
CIRCLE
8
BLACK
10
70050.0
20
52770.0
40
330
0
CIRCLE
8
BLACK
10
71050.0
20
52770.0
40
330
0
CIRCLE
8
BLACK
10
67650.0
20
52770.0
40
330
0
CIRCLE
8
BLACK
10
68650.0
20
52770.0
40
330
0
CIRCLE
8
BLACK
10
65250.0
20
52720.0
40
330
0
CIRCLE
8
BLACK
10
66250.0
20
52720.0
40
330
0
CIRCLE
8
BLACK
10
71100.0
20
55120.0
40
330
0
CIRCLE
8
BLACK
10
72100.0
20
55120.0
40
330
0
CIRCLE
8
BLACK
10
68700.0
20
55120.0
40
330
0
CIRCLE
8
BLACK
10
69700.0
20
55120.0
40
330
0
CIRCLE
8
BLACK
10
66300.0
20
55120.0
40
330
0
CIRCLE
8
BLACK
10
67300.0
20
55120.0
40
330
0
CIRCLE
8
BLACK
10
78450.0
20
53870.0
40
175
0
CIRCLE
8
BLACK
10
81050.0
20
51920.0
40
175
0
LINE
8
BLACK
10
73928.0
20
54199.0
11
73179.0
21
54948.0
0
LINE
8
BLACK
10
73871.0
20
54142.0
11
73122.0
21
54891.0
0
ARC
8
BLACK
10
73150.0
20
54920.0
40
40.0
50
405.0
51
585.0
0
ARC
8
BLACK
10
73900.0
20
54170.0
40
40.0
50
225.0
51
405.0
0
LINE
8
BLACK
10
73900.0
20
54130.0
11
78150.0
21
54130.0
0
LINE
8
BLACK
10
73900.0
20
54210.0
11
78150.0
21
54210.0
0
ARC
8
BLACK
10
78150.0
20
54170.0
40
40.0
50
270.0
51
450.0
0
ARC
8
BLACK
10
73900.0
20
54170.0
40
40.0
50
90.0
51
270.0
0
LINE
8
BLACK
10
78478.0
20
53898.0
11
78178.0
21
54198.0
0
LINE
8
BLACK
10
78422.0
20
53842.0
11
78122.0
21
54142.0
0
ARC
8
BLACK
10
78150.0
20
54170.0
40
40.0
50
405.0
51
585.0
0
ARC
8
BLACK
10
78450.0
20
53870.0
40
40.0
50
225.0
51
405.0
0
LINE
8
BLACK
10
81721.0
20
52648.0
11
81022.0
21
51949.0
0
LINE
8
BLACK
10
81778.0
20
52591.0
11
81079.0
21
51892.0
0
ARC
8
BLACK
10
81051.0
20
51921.0
40
40.0
50
135.0
51
315.0
0
ARC
8
BLACK
10
81749.0
20
52619.0
40
40.0
50
-45.0
51
135.0
0
LINE
8
BLACK
10
78840.0
20
47420.0
11
78840.0
21
49520.0
0
LINE
8
BLACK
10
78760.0
20
47420.0
11
78760.0
21
49520.0
0
ARC
8
BLACK
10
78800.0
20
49520.0
40
40.0
50
360.0
51
540.0
0
ARC
8
BLACK
10
78800.0
20
47420.0
40
40.0
50
180.0
51
360.0
0
LINE
8
BLACK
10
80790.0
20
49970.0
11
80790.0
21
50270.0
0
LINE
8
BLACK
10
80710.0
20
49970.0
11
80710.0
21
50270.0
0
ARC
8
BLACK
10
80750.0
20
50270.0
40
40.0
50
360.0
51
540.0
0
ARC
8
BLACK
10
80750.0
20
49970.0
40
40.0
50
180.0
51
360.0
0
LINE
8
BLACK
10
80328.0
20
49492.0
11
80778.0
21
49942.0
0
LINE
8
BLACK
10
80272.0
20
49548.0
11
80722.0
21
49998.0
0
ARC
8
BLACK
10
80750.0
20
49970.0
40
40.0
50
315.0
51
495.0
0
ARC
8
BLACK
10
80300.0
20
49520.0
40
40.0
50
135.0
51
315.0
0
LINE
8
BLACK
10
79800.0
20
49480.0
11
80300.0
21
49480.0
0
LINE
8
BLACK
10
79800.0
20
49560.0
11
80300.0
21
49560.0
0
ARC
8
BLACK
10
80300.0
20
49520.0
40
40.0
50
270.0
51
450.0
0
ARC
8
BLACK
10
79800.0
20
49520.0
40
40.0
50
90.0
51
270.0
0
LINE
8
BLACK
10
78800.0
20
49480.0
11
79800.0
21
49480.0
0
LINE
8
BLACK
10
78800.0
20
49560.0
11
79800.0
21
49560.0
0
ARC
8
BLACK
10
79800.0
20
49520.0
40
40.0
50
270.0
51
450.0
0
ARC
8
BLACK
10
78800.0
20
49520.0
40
40.0
50
90.0
51
270.0
0
LINE
8
BLACK
10
81790.0
20
53270.0
11
81790.0
21
53320.0
0
LINE
8
BLACK
10
81710.0
20
53270.0
11
81710.0
21
53320.0
0
ARC
8
BLACK
10
81750.0
20
53320.0
40
40.0
50
360.0
51
540.0
0
ARC
8
BLACK
10
81750.0
20
53270.0
40
40.0
50
180.0
51
360.0
0
LINE
8
BLACK
10
80428.0
20
54148.0
11
79828.0
21
54748.0
0
LINE
8
BLACK
10
80372.0
20
54092.0
11
79772.0
21
54692.0
0
ARC
8
BLACK
10
79800.0
20
54720.0
40
40.0
50
405.0
51
585.0
0
ARC
8
BLACK
10
80400.0
20
54120.0
40
40.0
50
225.0
51
405.0
0
LINE
8
BLACK
10
80400.0
20
54080.0
11
80950.0
21
54080.0
0
LINE
8
BLACK
10
80400.0
20
54160.0
11
80950.0
21
54160.0
0
ARC
8
BLACK
10
80950.0
20
54120.0
40
40.0
50
270.0
51
450.0
0
ARC
8
BLACK
10
80400.0
20
54120.0
40
40.0
50
90.0
51
270.0
0
LINE
8
BLACK
10
81778.0
20
53349.0
11
80979.0
21
54148.0
0
LINE
8
BLACK
10
81721.0
20
53292.0
11
80922.0
21
54091.0
0
ARC
8
BLACK
10
80950.0
20
54120.0
40
40.0
50
405.0
51
585.0
0
ARC
8
BLACK
10
81750.0
20
53320.0
40
40.0
50
225.0
51
405.0
0
LINE
8
BLACK
10
81790.0
20
52620.0
11
81790.0
21
53270.0
0
LINE
8
BLACK
10
81710.0
20
52620.0
11
81710.0
21
53270.0
0
ARC
8
BLACK
10
81750.0
20
53270.0
40
40.0
50
360.0
51
540.0
0
ARC
8
BLACK
10
81750.0
20
52620.0
40
40.0
50
180.0
51
360.0
0
LINE
8
BLACK
10
82790.0
20
50270.0
11
82790.0
21
50370.0
0
LINE
8
BLACK
10
82710.0
20
50270.0
11
82710.0
21
50370.0
0
ARC
8
BLACK
10
82750.0
20
50370.0
40
40.0
50
360.0
51
540.0
0
ARC
8
BLACK
10
82750.0
20
50270.0
40
40.0
50
180.0
51
360.0
0
LINE
8
BLACK
10
82721.0
20
50298.0
11
82222.0
21
49799.0
0
LINE
8
BLACK
10
82778.0
20
50241.0
11
82279.0
21
49742.0
0
ARC
8
BLACK
10
82250.0
20
49770.0
40
40.0
50
135.0
51
315.0
0
ARC
8
BLACK
10
82750.0
20
50270.0
40
40.0
50
-45.0
51
135.0
0
LINE
8
BLACK
10
82448.0
20
49670.0
11
82403.0
21
49670.0
0
LINE
8
BLACK
10
82403.0
20
49670.0
11
81852.0
21
49442.0
0
LINE
8
BLACK
10
81852.0
20
49442.0
11
81429.0
21
49021.0
0
LINE
8
BLACK
10
81429.0
20
49021.0
11
81201.0
21
48470.0
0
LINE
8
BLACK
10
81201.0
20
48470.0
11
81200.0
21
47873.0
0
LINE
8
BLACK
10
81200.0
20
47873.0
11
81271.0
21
47702.0
0
LINE
8
BLACK
10
81271.0
20
47702.0
11
81178.0
21
47728.0
0
LINE
8
BLACK
10
81178.0
20
47728.0
11
81108.0
21
47658.0
0
LINE
8
BLACK
10
81108.0
20
47658.0
11
81108.0
21
47798.0
0
LINE
8
BLACK
10
81108.0
20
47798.0
11
81081.0
21
47892.0
0
LINE
8
BLACK
10
81081.0
20
47892.0
11
80879.0
21
47963.0
0
LINE
8
BLACK
10
80879.0
20
47963.0
11
80666.0
21
47952.0
0
LINE
8
BLACK
10
80666.0
20
47952.0
11
80519.0
21
47892.0
0
LINE
8
BLACK
10
80519.0
20
47892.0
11
80492.0
21
47798.0
0
LINE
8
BLACK
10
80492.0
20
47798.0
11
80800.0
21
47491.0
0
LINE
8
BLACK
10
80800.0
20
47491.0
11
81108.0
21
47798.0
0
LINE
8
BLACK
10
81108.0
20
47798.0
11
81108.0
21
47658.0
0
LINE
8
BLACK
10
81108.0
20
47658.0
11
80871.0
21
47420.0
0
LINE
8
BLACK
10
80871.0
20
47420.0
11
80800.0
21
47349.0
0
LINE
8
BLACK
10
80800.0
20
47349.0
11
80729.0
21
47420.0
0
LINE
8
BLACK
10
80729.0
20
47420.0
11
80694.0
21
47455.0
0
LINE
8
BLACK
10
80694.0
20
47455.0
11
80422.0
21
47728.0
0
LINE
8
BLACK
10
80422.0
20
47728.0
11
80328.0
21
47701.0
0
LINE
8
BLACK
10
80328.0
20
47701.0
11
80304.0
21
47636.0
0
LINE
8
BLACK
10
80304.0
20
47636.0
11
80265.0
21
47731.0
0
LINE
8
BLACK
10
80265.0
20
47731.0
11
80111.0
21
47885.0
0
LINE
8
BLACK
10
80111.0
20
47885.0
11
79909.0
21
47969.0
0
LINE
8
BLACK
10
79909.0
20
47969.0
11
79691.0
21
47969.0
0
LINE
8
BLACK
10
79691.0
20
47969.0
11
79489.0
21
47885.0
0
LINE
8
BLACK
10
79489.0
20
47885.0
11
79349.0
21
47745.0
0
LINE
8
BLACK
10
79349.0
20
47745.0
11
79349.0
21
47769.0
0
LINE
8
BLACK
10
79349.0
20
47769.0
11
79311.0
21
47861.0
0
LINE
8
BLACK
10
79311.0
20
47861.0
11
79241.0
21
47931.0
0
LINE
8
BLACK
10
79241.0
20
47931.0
11
79150.0
21
47969.0
0
LINE
8
BLACK
10
79150.0
20
47969.0
11
79090.0
21
47969.0
0
LINE
8
BLACK
10
79090.0
20
47969.0
11
79090.0
21
48438.0
0
LINE
8
BLACK
10
79090.0
20
48438.0
11
79102.0
21
48425.0
0
LINE
8
BLACK
10
79102.0
20
48425.0
11
79295.0
21
48345.0
0
LINE
8
BLACK
10
79295.0
20
48345.0
11
79504.0
21
48345.0
0
LINE
8
BLACK
10
79504.0
20
48345.0
11
79697.0
21
48425.0
0
LINE
8
BLACK
10
79697.0
20
48425.0
11
79845.0
21
48572.0
0
LINE
8
BLACK
10
79845.0
20
48572.0
11
79900.0
21
48706.0
0
LINE
8
BLACK
10
79900.0
20
48706.0
11
79955.0
21
48573.0
0
LINE
8
BLACK
10
79955.0
20
48573.0
11
80102.0
21
48425.0
0
LINE
8
BLACK
10
80102.0
20
48425.0
11
80295.0
21
48345.0
0
LINE
8
BLACK
10
80295.0
20
48345.0
11
80504.0
21
48345.0
0
LINE
8
BLACK
10
80504.0
20
48345.0
11
80697.0
21
48425.0
0
LINE
8
BLACK
10
80697.0
20
48425.0
11
80845.0
21
48572.0
0
LINE
8
BLACK
10
80845.0
20
48572.0
11
80925.0
21
48765.0
0
LINE
8
BLACK
10
80925.0
20
48765.0
11
80925.0
21
48974.0
0
LINE
8
BLACK
10
80925.0
20
48974.0
11
80845.0
21
49167.0
0
LINE
8
BLACK
10
80845.0
20
49167.0
11
80698.0
21
49315.0
0
LINE
8
BLACK
10
80698.0
20
49315.0
11
80561.0
21
49372.0
0
LINE
8
BLACK
10
80561.0
20
49372.0
11
80758.0
21
49568.0
0
LINE
8
BLACK
10
80758.0
20
49568.0
11
80859.0
21
49568.0
0
LINE
8
BLACK
10
80859.0
20
49568.0
11
81061.0
21
49652.0
0
LINE
8
BLACK
10
81061.0
20
49652.0
11
81215.0
21
49806.0
0
LINE
8
BLACK
10
81215.0
20
49806.0
11
81250.0
21
49891.0
0
LINE
8
BLACK
10
81250.0
20
49891.0
11
81285.0
21
49806.0
0
LINE
8
BLACK
10
81285.0
20
49806.0
11
81439.0
21
49652.0
0
LINE
8
BLACK
10
81439.0
20
49652.0
11
81641.0
21
49568.0
0
LINE
8
BLACK
10
81641.0
20
49568.0
11
81859.0
21
49568.0
0
LINE
8
BLACK
10
81859.0
20
49568.0
11
82061.0
21
49652.0
0
LINE
8
BLACK
10
82061.0
20
49652.0
11
82215.0
21
49806.0
0
LINE
8
BLACK
10
82215.0
20
49806.0
11
82248.0
21
49886.0
0
LINE
8
BLACK
10
82248.0
20
49886.0
11
82368.0
21
49720.0
0
LINE
8
BLACK
10
82368.0
20
49720.0
11
82448.0
21
49670.0
0
LINE
8
BLACK
10
82448.0
20
49670.0
11
82403.0
21
49670.0
0
LINE
8
BLACK
10
82403.0
20
49670.0
11
81852.0
21
49442.0
0
LINE
8
BLACK
10
81852.0
20
49442.0
11
81429.0
21
49021.0
0
LINE
8
BLACK
10
81429.0
20
49021.0
11
81201.0
21
48470.0
0
LINE
8
BLACK
10
81201.0
20
48470.0
11
81200.0
21
47873.0
0
LINE
8
BLACK
10
81200.0
20
47873.0
11
81271.0
21
47702.0
0
LINE
8
BLACK
10
81271.0
20
47702.0
11
81178.0
21
47728.0
0
LINE
8
BLACK
10
81178.0
20
47728.0
11
81108.0
21
47658.0
0
LINE
8
BLACK
10
81108.0
20
47658.0
11
81108.0
21
47798.0
0
LINE
8
BLACK
10
81108.0
20
47798.0
11
81081.0
21
47892.0
0
LINE
8
BLACK
10
81081.0
20
47892.0
11
80879.0
21
47963.0
0
LINE
8
BLACK
10
80879.0
20
47963.0
11
80666.0
21
47952.0
0
LINE
8
BLACK
10
80666.0
20
47952.0
11
80519.0
21
47892.0
0
LINE
8
BLACK
10
80519.0
20
47892.0
11
80492.0
21
47798.0
0
LINE
8
BLACK
10
80492.0
20
47798.0
11
80800.0
21
47491.0
0
LINE
8
BLACK
10
80800.0
20
47491.0
11
81108.0
21
47798.0
0
LINE
8
BLACK
10
81108.0
20
47798.0
11
81108.0
21
47658.0
0
LINE
8
BLACK
10
81108.0
20
47658.0
11
80871.0
21
47420.0
0
LINE
8
BLACK
10
80871.0
20
47420.0
11
80800.0
21
47349.0
0
LINE
8
BLACK
10
80800.0
20
47349.0
11
80729.0
21
47420.0
0
LINE
8
BLACK
10
80729.0
20
47420.0
11
80694.0
21
47455.0
0
LINE
8
BLACK
10
80694.0
20
47455.0
11
80422.0
21
47728.0
0
LINE
8
BLACK
10
80422.0
20
47728.0
11
80328.0
21
47701.0
0
LINE
8
BLACK
10
80328.0
20
47701.0
11
80304.0
21
47636.0
0
LINE
8
BLACK
10
80304.0
20
47636.0
11
80265.0
21
47731.0
0
LINE
8
BLACK
10
80265.0
20
47731.0
11
80111.0
21
47885.0
0
LINE
8
BLACK
10
80111.0
20
47885.0
11
79909.0
21
47969.0
0
LINE
8
BLACK
10
79909.0
20
47969.0
11
79691.0
21
47969.0
0
LINE
8
BLACK
10
79691.0
20
47969.0
11
79489.0
21
47885.0
0
LINE
8
BLACK
10
79489.0
20
47885.0
11
79349.0
21
47745.0
0
LINE
8
BLACK
10
79349.0
20
47745.0
11
79349.0
21
47769.0
0
LINE
8
BLACK
10
79349.0
20
47769.0
11
79311.0
21
47861.0
0
LINE
8
BLACK
10
79311.0
20
47861.0
11
79241.0
21
47931.0
0
LINE
8
BLACK
10
79241.0
20
47931.0
11
79150.0
21
47969.0
0
LINE
8
BLACK
10
79150.0
20
47969.0
11
79090.0
21
47969.0
0
LINE
8
BLACK
10
79090.0
20
47969.0
11
79090.0
21
48438.0
0
LINE
8
BLACK
10
79090.0
20
48438.0
11
79102.0
21
48425.0
0
LINE
8
BLACK
10
79102.0
20
48425.0
11
79295.0
21
48345.0
0
LINE
8
BLACK
10
79295.0
20
48345.0
11
79504.0
21
48345.0
0
LINE
8
BLACK
10
79504.0
20
48345.0
11
79697.0
21
48425.0
0
LINE
8
BLACK
10
79697.0
20
48425.0
11
79845.0
21
48572.0
0
LINE
8
BLACK
10
79845.0
20
48572.0
11
79900.0
21
48706.0
0
LINE
8
BLACK
10
79900.0
20
48706.0
11
79955.0
21
48573.0
0
LINE
8
BLACK
10
79955.0
20
48573.0
11
80102.0
21
48425.0
0
LINE
8
BLACK
10
80102.0
20
48425.0
11
80295.0
21
48345.0
0
LINE
8
BLACK
10
80295.0
20
48345.0
11
80504.0
21
48345.0
0
LINE
8
BLACK
10
80504.0
20
48345.0
11
80697.0
21
48425.0
0
LINE
8
BLACK
10
80697.0
20
48425.0
11
80845.0
21
48572.0
0
LINE
8
BLACK
10
80845.0
20
48572.0
11
80925.0
21
48765.0
0
LINE
8
BLACK
10
80925.0
20
48765.0
11
80925.0
21
48974.0
0
LINE
8
BLACK
10
80925.0
20
48974.0
11
80845.0
21
49167.0
0
LINE
8
BLACK
10
80845.0
20
49167.0
11
80698.0
21
49315.0
0
LINE
8
BLACK
10
80698.0
20
49315.0
11
80561.0
21
49372.0
0
LINE
8
BLACK
10
80561.0
20
49372.0
11
80758.0
21
49568.0
0
LINE
8
BLACK
10
80758.0
20
49568.0
11
80859.0
21
49568.0
0
LINE
8
BLACK
10
80859.0
20
49568.0
11
81061.0
21
49652.0
0
LINE
8
BLACK
10
81061.0
20
49652.0
11
81215.0
21
49806.0
0
LINE
8
BLACK
10
81215.0
20
49806.0
11
81250.0
21
49891.0
0
LINE
8
BLACK
10
81250.0
20
49891.0
11
81285.0
21
49806.0
0
LINE
8
BLACK
10
81285.0
20
49806.0
11
81439.0
21
49652.0
0
LINE
8
BLACK
10
81439.0
20
49652.0
11
81641.0
21
49568.0
0
LINE
8
BLACK
10
81641.0
20
49568.0
11
81859.0
21
49568.0
0
LINE
8
BLACK
10
81859.0
20
49568.0
11
82061.0
21
49652.0
0
LINE
8
BLACK
10
82061.0
20
49652.0
11
82215.0
21
49806.0
0
LINE
8
BLACK
10
82215.0
20
49806.0
11
82248.0
21
49886.0
0
LINE
8
BLACK
10
82248.0
20
49886.0
11
82368.0
21
49720.0
0
LINE
8
BLACK
10
82368.0
20
49720.0
11
82448.0
21
49670.0
0
LINE
8
BLACK
10
83825.0
20
49166.0
11
83551.0
21
49441.0
0
LINE
8
BLACK
10
83551.0
20
49441.0
11
83029.0
21
49657.0
0
LINE
8
BLACK
10
83029.0
20
49657.0
11
83132.0
21
49720.0
0
LINE
8
BLACK
10
83132.0
20
49720.0
11
83260.0
21
49897.0
0
LINE
8
BLACK
10
83260.0
20
49897.0
11
83310.0
21
50110.0
0
LINE
8
BLACK
10
83310.0
20
50110.0
11
83310.0
21
50220.0
0
LINE
8
BLACK
10
83310.0
20
50220.0
11
83310.0
21
50320.0
0
LINE
8
BLACK
10
83310.0
20
50320.0
11
83310.0
21
50430.0
0
LINE
8
BLACK
10
83310.0
20
50430.0
11
83260.0
21
50643.0
0
LINE
8
BLACK
10
83260.0
20
50643.0
11
83132.0
21
50820.0
0
LINE
8
BLACK
10
83132.0
20
50820.0
11
82946.0
21
50935.0
0
LINE
8
BLACK
10
82946.0
20
50935.0
11
82887.0
21
50952.0
0
LINE
8
BLACK
10
82887.0
20
50952.0
11
82800.0
21
50905.0
0
LINE
8
BLACK
10
82800.0
20
50905.0
11
82800.0
21
50320.0
0
LINE
8
BLACK
10
82800.0
20
50320.0
11
83310.0
21
50320.0
0
LINE
8
BLACK
10
83310.0
20
50320.0
11
83310.0
21
50220.0
0
LINE
8
BLACK
10
83310.0
20
50220.0
11
82850.0
21
50220.0
0
LINE
8
BLACK
10
82850.0
20
50220.0
11
82800.0
21
50220.0
0
LINE
8
BLACK
10
82800.0
20
50220.0
11
82700.0
21
50220.0
0
LINE
8
BLACK
10
82700.0
20
50220.0
11
82700.0
21
50320.0
0
LINE
8
BLACK
10
82700.0
20
50320.0
11
82700.0
21
50370.0
0
LINE
8
BLACK
10
82700.0
20
50370.0
11
82700.0
21
50905.0
0
LINE
8
BLACK
10
82700.0
20
50905.0
11
82613.0
21
50952.0
0
LINE
8
BLACK
10
82613.0
20
50952.0
11
82554.0
21
50935.0
0
LINE
8
BLACK
10
82554.0
20
50935.0
11
82368.0
21
50820.0
0
LINE
8
BLACK
10
82368.0
20
50820.0
11
82248.0
21
50655.0
0
LINE
8
BLACK
10
82248.0
20
50655.0
11
82215.0
21
50734.0
0
LINE
8
BLACK
10
82215.0
20
50734.0
11
82061.0
21
50888.0
0
LINE
8
BLACK
10
82061.0
20
50888.0
11
81859.0
21
50972.0
0
LINE
8
BLACK
10
81859.0
20
50972.0
11
81641.0
21
50972.0
0
LINE
8
BLACK
10
81641.0
20
50972.0
11
81439.0
21
50888.0
0
LINE
8
BLACK
10
81439.0
20
50888.0
11
81285.0
21
50734.0
0
LINE
8
BLACK
10
81285.0
20
50734.0
11
81250.0
21
50650.0
0
LINE
8
BLACK
10
81250.0
20
50650.0
11
81215.0
21
50734.0
0
LINE
8
BLACK
10
81215.0
20
50734.0
11
81061.0
21
50888.0
0
LINE
8
BLACK
10
81061.0
20
50888.0
11
80859.0
21
50972.0
0
LINE
8
BLACK
10
80859.0
20
50972.0
11
80641.0
21
50972.0
0
LINE
8
BLACK
10
80641.0
20
50972.0
11
80439.0
21
50888.0
0
LINE
8
BLACK
10
80439.0
20
50888.0
11
80285.0
21
50734.0
0
LINE
8
BLACK
10
80285.0
20
50734.0
11
80250.0
21
50650.0
0
LINE
8
BLACK
10
80250.0
20
50650.0
11
80215.0
21
50734.0
0
LINE
8
BLACK
10
80215.0
20
50734.0
11
80061.0
21
50888.0
0
LINE
8
BLACK
10
80061.0
20
50888.0
11
79859.0
21
50972.0
0
LINE
8
BLACK
10
79859.0
20
50972.0
11
79700.0
21
50972.0
0
LINE
8
BLACK
10
79700.0
20
50972.0
11
79700.0
21
52635.0
0
LINE
8
BLACK
10
79700.0
20
52635.0
11
79700.0
21
53220.0
0
LINE
8
BLACK
10
79700.0
20
53220.0
11
79700.0
21
53320.0
0
LINE
8
BLACK
10
79700.0
20
53320.0
11
79700.0
21
53905.0
0
LINE
8
BLACK
10
79700.0
20
53905.0
11
79613.0
21
53952.0
0
LINE
8
BLACK
10
79613.0
20
53952.0
11
79554.0
21
53935.0
0
LINE
8
BLACK
10
79554.0
20
53935.0
11
79368.0
21
53820.0
0
LINE
8
BLACK
10
79368.0
20
53820.0
11
79240.0
21
53643.0
0
LINE
8
BLACK
10
79240.0
20
53643.0
11
79190.0
21
53430.0
0
LINE
8
BLACK
10
79190.0
20
53430.0
11
79190.0
21
53320.0
0
LINE
8
BLACK
10
79190.0
20
53320.0
11
79700.0
21
53320.0
0
LINE
8
BLACK
10
79700.0
20
53320.0
11
79700.0
21
53220.0
0
LINE
8
BLACK
10
79700.0
20
53220.0
11
79190.0
21
53220.0
0
LINE
8
BLACK
10
79190.0
20
53220.0
11
79190.0
21
53110.0
0
LINE
8
BLACK
10
79190.0
20
53110.0
11
79240.0
21
52897.0
0
LINE
8
BLACK
10
79240.0
20
52897.0
11
79368.0
21
52720.0
0
LINE
8
BLACK
10
79368.0
20
52720.0
11
79554.0
21
52605.0
0
LINE
8
BLACK
10
79554.0
20
52605.0
11
79613.0
21
52588.0
0
LINE
8
BLACK
10
79613.0
20
52588.0
11
79700.0
21
52635.0
0
LINE
8
BLACK
10
79700.0
20
52635.0
11
79700.0
21
50972.0
0
LINE
8
BLACK
10
79700.0
20
50972.0
11
79641.0
21
50972.0
0
LINE
8
BLACK
10
79641.0
20
50972.0
11
79439.0
21
50888.0
0
LINE
8
BLACK
10
79439.0
20
50888.0
11
79285.0
21
50734.0
0
LINE
8
BLACK
10
79285.0
20
50734.0
11
79201.0
21
50532.0
0
LINE
8
BLACK
10
79201.0
20
50532.0
11
79201.0
21
50314.0
0
LINE
8
BLACK
10
79201.0
20
50314.0
11
79201.0
21
50008.0
0
LINE
8
BLACK
10
79201.0
20
50008.0
11
79283.0
21
49810.0
0
LINE
8
BLACK
10
79283.0
20
49810.0
11
78800.0
21
49810.0
0
LINE
8
BLACK
10
78800.0
20
49810.0
11
78689.0
21
49788.0
0
LINE
8
BLACK
10
78689.0
20
49788.0
11
78675.0
21
49779.0
0
LINE
8
BLACK
10
78675.0
20
49779.0
11
78675.0
21
50565.0
0
LINE
8
BLACK
10
78675.0
20
50565.0
11
78675.0
21
50774.0
0
LINE
8
BLACK
10
78675.0
20
50774.0
11
78595.0
21
50967.0
0
LINE
8
BLACK
10
78595.0
20
50967.0
11
78448.0
21
51115.0
0
LINE
8
BLACK
10
78448.0
20
51115.0
11
78314.0
21
51171.0
0
LINE
8
BLACK
10
78314.0
20
51171.0
11
78447.0
21
51225.0
0
LINE
8
BLACK
10
78447.0
20
51225.0
11
78595.0
21
51372.0
0
LINE
8
BLACK
10
78595.0
20
51372.0
11
78675.0
21
51565.0
0
LINE
8
BLACK
10
78675.0
20
51565.0
11
78675.0
21
51774.0
0
LINE
8
BLACK
10
78675.0
20
51774.0
11
78595.0
21
51967.0
0
LINE
8
BLACK
10
78595.0
20
51967.0
11
78448.0
21
52115.0
0
LINE
8
BLACK
10
78448.0
20
52115.0
11
78324.0
21
52167.0
0
LINE
8
BLACK
10
78324.0
20
52167.0
11
78324.0
21
52595.0
0
LINE
8
BLACK
10
78324.0
20
52595.0
11
78324.0
21
52694.0
0
LINE
8
BLACK
10
78324.0
20
52694.0
11
78324.0
21
53244.0
0
LINE
8
BLACK
10
78324.0
20
53244.0
11
78286.0
21
53336.0
0
LINE
8
BLACK
10
78286.0
20
53336.0
11
78216.0
21
53406.0
0
LINE
8
BLACK
10
78216.0
20
53406.0
11
78125.0
21
53444.0
0
LINE
8
BLACK
10
78125.0
20
53444.0
11
78026.0
21
53444.0
0
LINE
8
BLACK
10
78026.0
20
53444.0
11
77476.0
21
53444.0
0
LINE
8
BLACK
10
77476.0
20
53444.0
11
77384.0
21
53406.0
0
LINE
8
BLACK
10
77384.0
20
53406.0
11
77314.0
21
53336.0
0
LINE
8
BLACK
10
77314.0
20
53336.0
11
77276.0
21
53245.0
0
LINE
8
BLACK
10
77276.0
20
53245.0
11
77276.0
21
53146.0
0
LINE
8
BLACK
10
77276.0
20
53146.0
11
77276.0
21
53143.0
0
LINE
8
BLACK
10
77276.0
20
53143.0
11
77245.0
21
53217.0
0
LINE
8
BLACK
10
77245.0
20
53217.0
11
77098.0
21
53365.0
0
LINE
8
BLACK
10
77098.0
20
53365.0
11
76905.0
21
53445.0
0
LINE
8
BLACK
10
76905.0
20
53445.0
11
76696.0
21
53445.0
0
LINE
8
BLACK
10
76696.0
20
53445.0
11
76503.0
21
53365.0
0
LINE
8
BLACK
10
76503.0
20
53365.0
11
76355.0
21
53218.0
0
LINE
8
BLACK
10
76355.0
20
53218.0
11
76275.0
21
53025.0
0
LINE
8
BLACK
10
76275.0
20
53025.0
11
76275.0
21
52816.0
0
LINE
8
BLACK
10
76275.0
20
52816.0
11
76355.0
21
52623.0
0
LINE
8
BLACK
10
76355.0
20
52623.0
11
76502.0
21
52475.0
0
LINE
8
BLACK
10
76502.0
20
52475.0
11
76635.0
21
52420.0
0
LINE
8
BLACK
10
76635.0
20
52420.0
11
76503.0
21
52365.0
0
LINE
8
BLACK
10
76503.0
20
52365.0
11
76355.0
21
52218.0
0
LINE
8
BLACK
10
76355.0
20
52218.0
11
76275.0
21
52025.0
0
LINE
8
BLACK
10
76275.0
20
52025.0
11
76275.0
21
51816.0
0
LINE
8
BLACK
10
76275.0
20
51816.0
11
76355.0
21
51623.0
0
LINE
8
BLACK
10
76355.0
20
51623.0
11
76502.0
21
51475.0
0
LINE
8
BLACK
10
76502.0
20
51475.0
11
76695.0
21
51395.0
0
LINE
8
BLACK
10
76695.0
20
51395.0
11
76904.0
21
51395.0
0
LINE
8
BLACK
10
76904.0
20
51395.0
11
77097.0
21
51475.0
0
LINE
8
BLACK
10
77097.0
20
51475.0
11
77245.0
21
51622.0
0
LINE
8
BLACK
10
77245.0
20
51622.0
11
77325.0
21
51815.0
0
LINE
8
BLACK
10
77325.0
20
51815.0
11
77325.0
21
52024.0
0
LINE
8
BLACK
10
77325.0
20
52024.0
11
77245.0
21
52217.0
0
LINE
8
BLACK
10
77245.0
20
52217.0
11
77098.0
21
52365.0
0
LINE
8
BLACK
10
77098.0
20
52365.0
11
76964.0
21
52421.0
0
LINE
8
BLACK
10
76964.0
20
52421.0
11
77097.0
21
52475.0
0
LINE
8
BLACK
10
77097.0
20
52475.0
11
77245.0
21
52622.0
0
LINE
8
BLACK
10
77245.0
20
52622.0
11
77276.0
21
52697.0
0
LINE
8
BLACK
10
77276.0
20
52697.0
11
77276.0
21
52596.0
0
LINE
8
BLACK
10
77276.0
20
52596.0
11
77314.0
21
52504.0
0
LINE
8
BLACK
10
77314.0
20
52504.0
11
77384.0
21
52434.0
0
LINE
8
BLACK
10
77384.0
20
52434.0
11
77475.0
21
52396.0
0
LINE
8
BLACK
10
77475.0
20
52396.0
11
77574.0
21
52396.0
0
LINE
8
BLACK
10
77574.0
20
52396.0
11
78124.0
21
52396.0
0
LINE
8
BLACK
10
78124.0
20
52396.0
11
78216.0
21
52434.0
0
LINE
8
BLACK
10
78216.0
20
52434.0
11
78286.0
21
52504.0
0
LINE
8
BLACK
10
78286.0
20
52504.0
11
78324.0
21
52595.0
0
LINE
8
BLACK
10
78324.0
20
52595.0
11
78324.0
21
52167.0
0
LINE
8
BLACK
10
78324.0
20
52167.0
11
78255.0
21
52195.0
0
LINE
8
BLACK
10
78255.0
20
52195.0
11
78046.0
21
52195.0
0
LINE
8
BLACK
10
78046.0
20
52195.0
11
77853.0
21
52115.0
0
LINE
8
BLACK
10
77853.0
20
52115.0
11
77705.0
21
51968.0
0
LINE
8
BLACK
10
77705.0
20
51968.0
11
77625.0
21
51775.0
0
LINE
8
BLACK
10
77625.0
20
51775.0
11
77625.0
21
51566.0
0
LINE
8
BLACK
10
77625.0
20
51566.0
11
77705.0
21
51373.0
0
LINE
8
BLACK
10
77705.0
20
51373.0
11
77852.0
21
51225.0
0
LINE
8
BLACK
10
77852.0
20
51225.0
11
77985.0
21
51170.0
0
LINE
8
BLACK
10
77985.0
20
51170.0
11
77853.0
21
51115.0
0
LINE
8
BLACK
10
77853.0
20
51115.0
11
77705.0
21
50968.0
0
LINE
8
BLACK
10
77705.0
20
50968.0
11
77674.0
21
50894.0
0
LINE
8
BLACK
10
77674.0
20
50894.0
11
77674.0
21
50994.0
0
LINE
8
BLACK
10
77674.0
20
50994.0
11
77636.0
21
51086.0
0
LINE
8
BLACK
10
77636.0
20
51086.0
11
77566.0
21
51156.0
0
LINE
8
BLACK
10
77566.0
20
51156.0
11
77475.0
21
51194.0
0
LINE
8
BLACK
10
77475.0
20
51194.0
11
77376.0
21
51194.0
0
LINE
8
BLACK
10
77376.0
20
51194.0
11
76826.0
21
51194.0
0
LINE
8
BLACK
10
76826.0
20
51194.0
11
76734.0
21
51156.0
0
LINE
8
BLACK
10
76734.0
20
51156.0
11
76724.0
21
51147.0
0
LINE
8
BLACK
10
76724.0
20
51147.0
11
76695.0
21
51217.0
0
LINE
8
BLACK
10
76695.0
20
51217.0
11
76548.0
21
51365.0
0
LINE
8
BLACK
10
76548.0
20
51365.0
11
76355.0
21
51445.0
0
LINE
8
BLACK
10
76355.0
20
51445.0
11
76146.0
21
51445.0
0
LINE
8
BLACK
10
76146.0
20
51445.0
11
75953.0
21
51365.0
0
LINE
8
BLACK
10
75953.0
20
51365.0
11
75825.0
21
51238.0
0
LINE
8
BLACK
10
75825.0
20
51238.0
11
75825.0
21
52215.0
0
LINE
8
BLACK
10
75825.0
20
52215.0
11
75825.0
21
52424.0
0
LINE
8
BLACK
10
75825.0
20
52424.0
11
75745.0
21
52617.0
0
LINE
8
BLACK
10
75745.0
20
52617.0
11
75598.0
21
52765.0
0
LINE
8
BLACK
10
75598.0
20
52765.0
11
75439.0
21
52831.0
0
LINE
8
BLACK
10
75439.0
20
52831.0
11
75547.0
21
52875.0
0
LINE
8
BLACK
10
75547.0
20
52875.0
11
75695.0
21
53022.0
0
LINE
8
BLACK
10
75695.0
20
53022.0
11
75775.0
21
53215.0
0
LINE
8
BLACK
10
75775.0
20
53215.0
11
75775.0
21
53424.0
0
LINE
8
BLACK
10
75775.0
20
53424.0
11
75695.0
21
53617.0
0
LINE
8
BLACK
10
75695.0
20
53617.0
11
75548.0
21
53765.0
0
LINE
8
BLACK
10
75548.0
20
53765.0
11
75355.0
21
53845.0
0
LINE
8
BLACK
10
75355.0
20
53845.0
11
75146.0
21
53845.0
0
LINE
8
BLACK
10
75146.0
20
53845.0
11
74953.0
21
53765.0
0
LINE
8
BLACK
10
74953.0
20
53765.0
11
74805.0
21
53618.0
0
LINE
8
BLACK
10
74805.0
20
53618.0
11
74725.0
21
53425.0
0
LINE
8
BLACK
10
74725.0
20
53425.0
11
74725.0
21
53216.0
0
LINE
8
BLACK
10
74725.0
20
53216.0
11
74805.0
21
53023.0
0
LINE
8
BLACK
10
74805.0
20
53023.0
11
74952.0
21
52875.0
0
LINE
8
BLACK
10
74952.0
20
52875.0
11
75110.0
21
52810.0
0
LINE
8
BLACK
10
75110.0
20
52810.0
11
75003.0
21
52765.0
0
LINE
8
BLACK
10
75003.0
20
52765.0
11
74855.0
21
52618.0
0
LINE
8
BLACK
10
74855.0
20
52618.0
11
74775.0
21
52425.0
0
LINE
8
BLACK
10
74775.0
20
52425.0
11
74775.0
21
52216.0
0
LINE
8
BLACK
10
74775.0
20
52216.0
11
74855.0
21
52023.0
0
LINE
8
BLACK
10
74855.0
20
52023.0
11
75002.0
21
51875.0
0
LINE
8
BLACK
10
75002.0
20
51875.0
11
75195.0
21
51795.0
0
LINE
8
BLACK
10
75195.0
20
51795.0
11
75404.0
21
51795.0
0
LINE
8
BLACK
10
75404.0
20
51795.0
11
75597.0
21
51875.0
0
LINE
8
BLACK
10
75597.0
20
51875.0
11
75745.0
21
52022.0
0
LINE
8
BLACK
10
75745.0
20
52022.0
11
75825.0
21
52215.0
0
LINE
8
BLACK
10
75825.0
20
52215.0
11
75825.0
21
51238.0
0
LINE
8
BLACK
10
75825.0
20
51238.0
11
75805.0
21
51218.0
0
LINE
8
BLACK
10
75805.0
20
51218.0
11
75725.0
21
51025.0
0
LINE
8
BLACK
10
75725.0
20
51025.0
11
75725.0
21
50816.0
0
LINE
8
BLACK
10
75725.0
20
50816.0
11
75805.0
21
50623.0
0
LINE
8
BLACK
10
75805.0
20
50623.0
11
75952.0
21
50475.0
0
LINE
8
BLACK
10
75952.0
20
50475.0
11
76145.0
21
50395.0
0
LINE
8
BLACK
10
76145.0
20
50395.0
11
75953.0
21
50315.0
0
LINE
8
BLACK
10
75953.0
20
50315.0
11
75805.0
21
50168.0
0
LINE
8
BLACK
10
75805.0
20
50168.0
11
75725.0
21
49975.0
0
LINE
8
BLACK
10
75725.0
20
49975.0
11
75725.0
21
49766.0
0
LINE
8
BLACK
10
75725.0
20
49766.0
11
75805.0
21
49573.0
0
LINE
8
BLACK
10
75805.0
20
49573.0
11
75952.0
21
49425.0
0
LINE
8
BLACK
10
75952.0
20
49425.0
11
76145.0
21
49345.0
0
LINE
8
BLACK
10
76145.0
20
49345.0
11
76354.0
21
49345.0
0
LINE
8
BLACK
10
76354.0
20
49345.0
11
76547.0
21
49425.0
0
LINE
8
BLACK
10
76547.0
20
49425.0
11
76695.0
21
49572.0
0
LINE
8
BLACK
10
76695.0
20
49572.0
11
76775.0
21
49765.0
0
LINE
8
BLACK
10
76775.0
20
49765.0
11
76775.0
21
49974.0
0
LINE
8
BLACK
10
76775.0
20
49974.0
11
76695.0
21
50167.0
0
LINE
8
BLACK
10
76695.0
20
50167.0
11
76548.0
21
50315.0
0
LINE
8
BLACK
10
76548.0
20
50315.0
11
76355.0
21
50395.0
0
LINE
8
BLACK
10
76355.0
20
50395.0
11
76354.0
21
50395.0
0
LINE
8
BLACK
10
76354.0
20
50395.0
11
76547.0
21
50475.0
0
LINE
8
BLACK
10
76547.0
20
50475.0
11
76626.0
21
50554.0
0
LINE
8
BLACK
10
76626.0
20
50554.0
11
76626.0
21
50346.0
0
LINE
8
BLACK
10
76626.0
20
50346.0
11
76664.0
21
50254.0
0
LINE
8
BLACK
10
76664.0
20
50254.0
11
76734.0
21
50184.0
0
LINE
8
BLACK
10
76734.0
20
50184.0
11
76825.0
21
50146.0
0
LINE
8
BLACK
10
76825.0
20
50146.0
11
76924.0
21
50146.0
0
LINE
8
BLACK
10
76924.0
20
50146.0
11
77474.0
21
50146.0
0
LINE
8
BLACK
10
77474.0
20
50146.0
11
77566.0
21
50184.0
0
LINE
8
BLACK
10
77566.0
20
50184.0
11
77636.0
21
50254.0
0
LINE
8
BLACK
10
77636.0
20
50254.0
11
77674.0
21
50345.0
0
LINE
8
BLACK
10
77674.0
20
50345.0
11
77674.0
21
50444.0
0
LINE
8
BLACK
10
77674.0
20
50444.0
11
77674.0
21
50448.0
0
LINE
8
BLACK
10
77674.0
20
50448.0
11
77705.0
21
50373.0
0
LINE
8
BLACK
10
77705.0
20
50373.0
11
77852.0
21
50225.0
0
LINE
8
BLACK
10
77852.0
20
50225.0
11
78045.0
21
50145.0
0
LINE
8
BLACK
10
78045.0
20
50145.0
11
78254.0
21
50145.0
0
LINE
8
BLACK
10
78254.0
20
50145.0
11
78447.0
21
50225.0
0
LINE
8
BLACK
10
78447.0
20
50225.0
11
78595.0
21
50372.0
0
LINE
8
BLACK
10
78595.0
20
50372.0
11
78675.0
21
50565.0
0
LINE
8
BLACK
10
78675.0
20
50565.0
11
78675.0
21
49779.0
0
LINE
8
BLACK
10
78675.0
20
49779.0
11
78595.0
21
49725.0
0
LINE
8
BLACK
10
78595.0
20
49725.0
11
78532.0
21
49631.0
0
LINE
8
BLACK
10
78532.0
20
49631.0
11
78510.0
21
49520.0
0
LINE
8
BLACK
10
78510.0
20
49520.0
11
78510.0
21
47969.0
0
LINE
8
BLACK
10
78510.0
20
47969.0
11
78451.0
21
47969.0
0
LINE
8
BLACK
10
78451.0
20
47969.0
11
78359.0
21
47931.0
0
LINE
8
BLACK
10
78359.0
20
47931.0
11
78289.0
21
47861.0
0
LINE
8
BLACK
10
78289.0
20
47861.0
11
78251.0
21
47770.0
0
LINE
8
BLACK
10
78251.0
20
47770.0
11
78251.0
21
47671.0
0
LINE
8
BLACK
10
78251.0
20
47671.0
11
78251.0
21
47071.0
0
LINE
8
BLACK
10
78251.0
20
47071.0
11
78261.0
21
47045.0
0
LINE
8
BLACK
10
78261.0
20
47045.0
11
77217.0
21
47045.0
0
LINE
8
BLACK
10
77217.0
20
47045.0
11
77345.0
21
47172.0
0
LINE
8
BLACK
10
77345.0
20
47172.0
11
77425.0
21
47365.0
0
LINE
8
BLACK
10
77425.0
20
47365.0
11
77425.0
21
47574.0
0
LINE
8
BLACK
10
77425.0
20
47574.0
11
77345.0
21
47767.0
0
LINE
8
BLACK
10
77345.0
20
47767.0
11
77198.0
21
47915.0
0
LINE
8
BLACK
10
77198.0
20
47915.0
11
77064.0
21
47971.0
0
LINE
8
BLACK
10
77064.0
20
47971.0
11
77197.0
21
48025.0
0
LINE
8
BLACK
10
77197.0
20
48025.0
11
77345.0
21
48172.0
0
LINE
8
BLACK
10
77345.0
20
48172.0
11
77376.0
21
48247.0
0
LINE
8
BLACK
10
77376.0
20
48247.0
11
77376.0
21
48146.0
0
LINE
8
BLACK
10
77376.0
20
48146.0
11
77414.0
21
48054.0
0
LINE
8
BLACK
10
77414.0
20
48054.0
11
77484.0
21
47984.0
0
LINE
8
BLACK
10
77484.0
20
47984.0
11
77575.0
21
47946.0
0
LINE
8
BLACK
10
77575.0
20
47946.0
11
77674.0
21
47946.0
0
LINE
8
BLACK
10
77674.0
20
47946.0
11
78224.0
21
47946.0
0
LINE
8
BLACK
10
78224.0
20
47946.0
11
78316.0
21
47984.0
0
LINE
8
BLACK
10
78316.0
20
47984.0
11
78386.0
21
48054.0
0
LINE
8
BLACK
10
78386.0
20
48054.0
11
78424.0
21
48145.0
0
LINE
8
BLACK
10
78424.0
20
48145.0
11
78424.0
21
48244.0
0
LINE
8
BLACK
10
78424.0
20
48244.0
11
78424.0
21
48794.0
0
LINE
8
BLACK
10
78424.0
20
48794.0
11
78386.0
21
48886.0
0
LINE
8
BLACK
10
78386.0
20
48886.0
11
78316.0
21
48956.0
0
LINE
8
BLACK
10
78316.0
20
48956.0
11
78225.0
21
48994.0
0
LINE
8
BLACK
10
78225.0
20
48994.0
11
78126.0
21
48994.0
0
LINE
8
BLACK
10
78126.0
20
48994.0
11
77576.0
21
48994.0
0
LINE
8
BLACK
10
77576.0
20
48994.0
11
77484.0
21
48956.0
0
LINE
8
BLACK
10
77484.0
20
48956.0
11
77414.0
21
48886.0
0
LINE
8
BLACK
10
77414.0
20
48886.0
11
77376.0
21
48795.0
0
LINE
8
BLACK
10
77376.0
20
48795.0
11
77376.0
21
48696.0
0
LINE
8
BLACK
10
77376.0
20
48696.0
11
77376.0
21
48693.0
0
LINE
8
BLACK
10
77376.0
20
48693.0
11
77345.0
21
48767.0
0
LINE
8
BLACK
10
77345.0
20
48767.0
11
77198.0
21
48915.0
0
LINE
8
BLACK
10
77198.0
20
48915.0
11
77005.0
21
48995.0
0
LINE
8
BLACK
10
77005.0
20
48995.0
11
76796.0
21
48995.0
0
LINE
8
BLACK
10
76796.0
20
48995.0
11
76603.0
21
48915.0
0
LINE
8
BLACK
10
76603.0
20
48915.0
11
76455.0
21
48768.0
0
LINE
8
BLACK
10
76455.0
20
48768.0
11
76375.0
21
48575.0
0
LINE
8
BLACK
10
76375.0
20
48575.0
11
76375.0
21
48366.0
0
LINE
8
BLACK
10
76375.0
20
48366.0
11
76455.0
21
48173.0
0
LINE
8
BLACK
10
76455.0
20
48173.0
11
76602.0
21
48025.0
0
LINE
8
BLACK
10
76602.0
20
48025.0
11
76735.0
21
47970.0
0
LINE
8
BLACK
10
76735.0
20
47970.0
11
76603.0
21
47915.0
0
LINE
8
BLACK
10
76603.0
20
47915.0
11
76455.0
21
47768.0
0
LINE
8
BLACK
10
76455.0
20
47768.0
11
76375.0
21
47575.0
0
LINE
8
BLACK
10
76375.0
20
47575.0
11
76375.0
21
47366.0
0
LINE
8
BLACK
10
76375.0
20
47366.0
11
76455.0
21
47173.0
0
LINE
8
BLACK
10
76455.0
20
47173.0
11
76582.0
21
47045.0
0
LINE
8
BLACK
10
76582.0
20
47045.0
11
75767.0
21
47045.0
0
LINE
8
BLACK
10
75767.0
20
47045.0
11
75895.0
21
47172.0
0
LINE
8
BLACK
10
75895.0
20
47172.0
11
75975.0
21
47365.0
0
LINE
8
BLACK
10
75975.0
20
47365.0
11
75975.0
21
47574.0
0
LINE
8
BLACK
10
75975.0
20
47574.0
11
75895.0
21
47767.0
0
LINE
8
BLACK
10
75895.0
20
47767.0
11
75748.0
21
47915.0
0
LINE
8
BLACK
10
75748.0
20
47915.0
11
75555.0
21
47995.0
0
LINE
8
BLACK
10
75555.0
20
47995.0
11
75554.0
21
47995.0
0
LINE
8
BLACK
10
75554.0
20
47995.0
11
75747.0
21
48075.0
0
LINE
8
BLACK
10
75747.0
20
48075.0
11
75895.0
21
48222.0
0
LINE
8
BLACK
10
75895.0
20
48222.0
11
75975.0
21
48415.0
0
LINE
8
BLACK
10
75975.0
20
48415.0
11
75975.0
21
48624.0
0
LINE
8
BLACK
10
75975.0
20
48624.0
11
75895.0
21
48817.0
0
LINE
8
BLACK
10
75895.0
20
48817.0
11
75748.0
21
48965.0
0
LINE
8
BLACK
10
75748.0
20
48965.0
11
75555.0
21
49045.0
0
LINE
8
BLACK
10
75555.0
20
49045.0
11
75346.0
21
49045.0
0
LINE
8
BLACK
10
75346.0
20
49045.0
11
75153.0
21
48965.0
0
LINE
8
BLACK
10
75153.0
20
48965.0
11
75005.0
21
48818.0
0
LINE
8
BLACK
10
75005.0
20
48818.0
11
74925.0
21
48625.0
0
LINE
8
BLACK
10
74925.0
20
48625.0
11
74925.0
21
48416.0
0
LINE
8
BLACK
10
74925.0
20
48416.0
11
75005.0
21
48223.0
0
LINE
8
BLACK
10
75005.0
20
48223.0
11
75152.0
21
48075.0
0
LINE
8
BLACK
10
75152.0
20
48075.0
11
75345.0
21
47995.0
0
LINE
8
BLACK
10
75345.0
20
47995.0
11
75153.0
21
47915.0
0
LINE
8
BLACK
10
75153.0
20
47915.0
11
75005.0
21
47768.0
0
LINE
8
BLACK
10
75005.0
20
47768.0
11
74925.0
21
47575.0
0
LINE
8
BLACK
10
74925.0
20
47575.0
11
74925.0
21
47366.0
0
LINE
8
BLACK
10
74925.0
20
47366.0
11
75005.0
21
47173.0
0
LINE
8
BLACK
10
75005.0
20
47173.0
11
75132.0
21
47045.0
0
LINE
8
BLACK
10
75132.0
20
47045.0
11
73775.0
21
47045.0
0
LINE
8
BLACK
10
73775.0
20
47045.0
11
73775.0
21
49765.0
0
LINE
8
BLACK
10
73775.0
20
49765.0
11
73775.0
21
49974.0
0
LINE
8
BLACK
10
73775.0
20
49974.0
11
73695.0
21
50167.0
0
LINE
8
BLACK
10
73695.0
20
50167.0
11
73548.0
21
50315.0
0
LINE
8
BLACK
10
73548.0
20
50315.0
11
73355.0
21
50395.0
0
LINE
8
BLACK
10
73355.0
20
50395.0
11
73354.0
21
50395.0
0
LINE
8
BLACK
10
73354.0
20
50395.0
11
73547.0
21
50475.0
0
LINE
8
BLACK
10
73547.0
20
50475.0
11
73695.0
21
50622.0
0
LINE
8
BLACK
10
73695.0
20
50622.0
11
73775.0
21
50815.0
0
LINE
8
BLACK
10
73775.0
20
50815.0
11
73775.0
21
51024.0
0
LINE
8
BLACK
10
73775.0
20
51024.0
11
73695.0
21
51217.0
0
LINE
8
BLACK
10
73695.0
20
51217.0
11
73548.0
21
51365.0
0
LINE
8
BLACK
10
73548.0
20
51365.0
11
73355.0
21
51445.0
0
LINE
8
BLACK
10
73355.0
20
51445.0
11
73146.0
21
51445.0
0
LINE
8
BLACK
10
73146.0
20
51445.0
11
72953.0
21
51365.0
0
LINE
8
BLACK
10
72953.0
20
51365.0
11
72825.0
21
51238.0
0
LINE
8
BLACK
10
72825.0
20
51238.0
11
72825.0
21
52215.0
0
LINE
8
BLACK
10
72825.0
20
52215.0
11
72825.0
21
52424.0
0
LINE
8
BLACK
10
72825.0
20
52424.0
11
72745.0
21
52617.0
0
LINE
8
BLACK
10
72745.0
20
52617.0
11
72598.0
21
52765.0
0
LINE
8
BLACK
10
72598.0
20
52765.0
11
72439.0
21
52831.0
0
LINE
8
BLACK
10
72439.0
20
52831.0
11
72547.0
21
52875.0
0
LINE
8
BLACK
10
72547.0
20
52875.0
11
72695.0
21
53022.0
0
LINE
8
BLACK
10
72695.0
20
53022.0
11
72775.0
21
53215.0
0
LINE
8
BLACK
10
72775.0
20
53215.0
11
72775.0
21
53424.0
0
LINE
8
BLACK
10
72775.0
20
53424.0
11
72695.0
21
53617.0
0
LINE
8
BLACK
10
72695.0
20
53617.0
11
72548.0
21
53765.0
0
LINE
8
BLACK
10
72548.0
20
53765.0
11
72355.0
21
53845.0
0
LINE
8
BLACK
10
72355.0
20
53845.0
11
72146.0
21
53845.0
0
LINE
8
BLACK
10
72146.0
20
53845.0
11
71953.0
21
53765.0
0
LINE
8
BLACK
10
71953.0
20
53765.0
11
71805.0
21
53618.0
0
LINE
8
BLACK
10
71805.0
20
53618.0
11
71725.0
21
53425.0
0
LINE
8
BLACK
10
71725.0
20
53425.0
11
71725.0
21
53216.0
0
LINE
8
BLACK
10
71725.0
20
53216.0
11
71805.0
21
53023.0
0
LINE
8
BLACK
10
71805.0
20
53023.0
11
71952.0
21
52875.0
0
LINE
8
BLACK
10
71952.0
20
52875.0
11
72110.0
21
52810.0
0
LINE
8
BLACK
10
72110.0
20
52810.0
11
72003.0
21
52765.0
0
LINE
8
BLACK
10
72003.0
20
52765.0
11
71855.0
21
52618.0
0
LINE
8
BLACK
10
71855.0
20
52618.0
11
71775.0
21
52425.0
0
LINE
8
BLACK
10
71775.0
20
52425.0
11
71775.0
21
52216.0
0
LINE
8
BLACK
10
71775.0
20
52216.0
11
71855.0
21
52023.0
0
LINE
8
BLACK
10
71855.0
20
52023.0
11
72002.0
21
51875.0
0
LINE
8
BLACK
10
72002.0
20
51875.0
11
72195.0
21
51795.0
0
LINE
8
BLACK
10
72195.0
20
51795.0
11
72404.0
21
51795.0
0
LINE
8
BLACK
10
72404.0
20
51795.0
11
72597.0
21
51875.0
0
LINE
8
BLACK
10
72597.0
20
51875.0
11
72745.0
21
52022.0
0
LINE
8
BLACK
10
72745.0
20
52022.0
11
72825.0
21
52215.0
0
LINE
8
BLACK
10
72825.0
20
52215.0
11
72825.0
21
51238.0
0
LINE
8
BLACK
10
72825.0
20
51238.0
11
72805.0
21
51218.0
0
LINE
8
BLACK
10
72805.0
20
51218.0
11
72725.0
21
51025.0
0
LINE
8
BLACK
10
72725.0
20
51025.0
11
72725.0
21
50816.0
0
LINE
8
BLACK
10
72725.0
20
50816.0
11
72805.0
21
50623.0
0
LINE
8
BLACK
10
72805.0
20
50623.0
11
72952.0
21
50475.0
0
LINE
8
BLACK
10
72952.0
20
50475.0
11
73145.0
21
50395.0
0
LINE
8
BLACK
10
73145.0
20
50395.0
11
72953.0
21
50315.0
0
LINE
8
BLACK
10
72953.0
20
50315.0
11
72805.0
21
50168.0
0
LINE
8
BLACK
10
72805.0
20
50168.0
11
72780.0
21
50108.0
0
LINE
8
BLACK
10
72780.0
20
50108.0
11
72780.0
21
50304.0
0
LINE
8
BLACK
10
72780.0
20
50304.0
11
72780.0
21
50535.0
0
LINE
8
BLACK
10
72780.0
20
50535.0
11
72692.0
21
50748.0
0
LINE
8
BLACK
10
72692.0
20
50748.0
11
72529.0
21
50911.0
0
LINE
8
BLACK
10
72529.0
20
50911.0
11
72316.0
21
51000.0
0
LINE
8
BLACK
10
72316.0
20
51000.0
11
72085.0
21
51000.0
0
LINE
8
BLACK
10
72085.0
20
51000.0
11
71872.0
21
50912.0
0
LINE
8
BLACK
10
71872.0
20
50912.0
11
71709.0
21
50749.0
0
LINE
8
BLACK
10
71709.0
20
50749.0
11
71700.0
21
50729.0
0
LINE
8
BLACK
10
71700.0
20
50729.0
11
71692.0
21
50748.0
0
LINE
8
BLACK
10
71692.0
20
50748.0
11
71630.0
21
50810.0
0
LINE
8
BLACK
10
71630.0
20
50810.0
11
71630.0
21
52654.0
0
LINE
8
BLACK
10
71630.0
20
52654.0
11
71630.0
21
52885.0
0
LINE
8
BLACK
10
71630.0
20
52885.0
11
71542.0
21
53098.0
0
LINE
8
BLACK
10
71542.0
20
53098.0
11
71379.0
21
53261.0
0
LINE
8
BLACK
10
71379.0
20
53261.0
11
71166.0
21
53350.0
0
LINE
8
BLACK
10
71166.0
20
53350.0
11
70935.0
21
53350.0
0
LINE
8
BLACK
10
70935.0
20
53350.0
11
70722.0
21
53262.0
0
LINE
8
BLACK
10
70722.0
20
53262.0
11
70559.0
21
53099.0
0
LINE
8
BLACK
10
70559.0
20
53099.0
11
70550.0
21
53079.0
0
LINE
8
BLACK
10
70550.0
20
53079.0
11
70542.0
21
53098.0
0
LINE
8
BLACK
10
70542.0
20
53098.0
11
70379.0
21
53261.0
0
LINE
8
BLACK
10
70379.0
20
53261.0
11
70280.0
21
53303.0
0
LINE
8
BLACK
10
70280.0
20
53303.0
11
70280.0
21
55004.0
0
LINE
8
BLACK
10
70280.0
20
55004.0
11
70280.0
21
55235.0
0
LINE
8
BLACK
10
70280.0
20
55235.0
11
70192.0
21
55448.0
0
LINE
8
BLACK
10
70192.0
20
55448.0
11
70029.0
21
55611.0
0
LINE
8
BLACK
10
70029.0
20
55611.0
11
69816.0
21
55700.0
0
LINE
8
BLACK
10
69816.0
20
55700.0
11
69585.0
21
55700.0
0
LINE
8
BLACK
10
69585.0
20
55700.0
11
69372.0
21
55612.0
0
LINE
8
BLACK
10
69372.0
20
55612.0
11
69209.0
21
55449.0
0
LINE
8
BLACK
10
69209.0
20
55449.0
11
69200.0
21
55429.0
0
LINE
8
BLACK
10
69200.0
20
55429.0
11
69192.0
21
55448.0
0
LINE
8
BLACK
10
69192.0
20
55448.0
11
69029.0
21
55611.0
0
LINE
8
BLACK
10
69029.0
20
55611.0
11
68816.0
21
55700.0
0
LINE
8
BLACK
10
68816.0
20
55700.0
11
68585.0
21
55700.0
0
LINE
8
BLACK
10
68585.0
20
55700.0
11
68372.0
21
55612.0
0
LINE
8
BLACK
10
68372.0
20
55612.0
11
68209.0
21
55449.0
0
LINE
8
BLACK
10
68209.0
20
55449.0
11
68120.0
21
55236.0
0
LINE
8
BLACK
10
68120.0
20
55236.0
11
68120.0
21
55005.0
0
LINE
8
BLACK
10
68120.0
20
55005.0
11
68208.0
21
54792.0
0
LINE
8
BLACK
10
68208.0
20
54792.0
11
68371.0
21
54629.0
0
LINE
8
BLACK
10
68371.0
20
54629.0
11
68584.0
21
54540.0
0
LINE
8
BLACK
10
68584.0
20
54540.0
11
68815.0
21
54540.0
0
LINE
8
BLACK
10
68815.0
20
54540.0
11
69028.0
21
54628.0
0
LINE
8
BLACK
10
69028.0
20
54628.0
11
69191.0
21
54791.0
0
LINE
8
BLACK
10
69191.0
20
54791.0
11
69199.0
21
54812.0
0
LINE
8
BLACK
10
69199.0
20
54812.0
11
69208.0
21
54792.0
0
LINE
8
BLACK
10
69208.0
20
54792.0
11
69371.0
21
54629.0
0
LINE
8
BLACK
10
69371.0
20
54629.0
11
69584.0
21
54540.0
0
LINE
8
BLACK
10
69584.0
20
54540.0
11
69815.0
21
54540.0
0
LINE
8
BLACK
10
69815.0
20
54540.0
11
70028.0
21
54628.0
0
LINE
8
BLACK
10
70028.0
20
54628.0
11
70191.0
21
54791.0
0
LINE
8
BLACK
10
70191.0
20
54791.0
11
70280.0
21
55004.0
0
LINE
8
BLACK
10
70280.0
20
55004.0
11
70280.0
21
53303.0
0
LINE
8
BLACK
10
70280.0
20
53303.0
11
70166.0
21
53350.0
0
LINE
8
BLACK
10
70166.0
20
53350.0
11
69935.0
21
53350.0
0
LINE
8
BLACK
10
69935.0
20
53350.0
11
69722.0
21
53262.0
0
LINE
8
BLACK
10
69722.0
20
53262.0
11
69559.0
21
53099.0
0
LINE
8
BLACK
10
69559.0
20
53099.0
11
69470.0
21
52886.0
0
LINE
8
BLACK
10
69470.0
20
52886.0
11
69470.0
21
52655.0
0
LINE
8
BLACK
10
69470.0
20
52655.0
11
69558.0
21
52442.0
0
LINE
8
BLACK
10
69558.0
20
52442.0
11
69721.0
21
52279.0
0
LINE
8
BLACK
10
69721.0
20
52279.0
11
69934.0
21
52190.0
0
LINE
8
BLACK
10
69934.0
20
52190.0
11
70165.0
21
52190.0
0
LINE
8
BLACK
10
70165.0
20
52190.0
11
70378.0
21
52278.0
0
LINE
8
BLACK
10
70378.0
20
52278.0
11
70541.0
21
52441.0
0
LINE
8
BLACK
10
70541.0
20
52441.0
11
70549.0
21
52462.0
0
LINE
8
BLACK
10
70549.0
20
52462.0
11
70558.0
21
52442.0
0
LINE
8
BLACK
10
70558.0
20
52442.0
11
70721.0
21
52279.0
0
LINE
8
BLACK
10
70721.0
20
52279.0
11
70934.0
21
52190.0
0
LINE
8
BLACK
10
70934.0
20
52190.0
11
71165.0
21
52190.0
0
LINE
8
BLACK
10
71165.0
20
52190.0
11
71378.0
21
52278.0
0
LINE
8
BLACK
10
71378.0
20
52278.0
11
71541.0
21
52441.0
0
LINE
8
BLACK
10
71541.0
20
52441.0
11
71630.0
21
52654.0
0
LINE
8
BLACK
10
71630.0
20
52654.0
11
71630.0
21
50810.0
0
LINE
8
BLACK
10
71630.0
20
50810.0
11
71529.0
21
50911.0
0
LINE
8
BLACK
10
71529.0
20
50911.0
11
71316.0
21
51000.0
0
LINE
8
BLACK
10
71316.0
20
51000.0
11
71085.0
21
51000.0
0
LINE
8
BLACK
10
71085.0
20
51000.0
11
70872.0
21
50912.0
0
LINE
8
BLACK
10
70872.0
20
50912.0
11
70709.0
21
50749.0
0
LINE
8
BLACK
10
70709.0
20
50749.0
11
70620.0
21
50536.0
0
LINE
8
BLACK
10
70620.0
20
50536.0
11
70620.0
21
50305.0
0
LINE
8
BLACK
10
70620.0
20
50305.0
11
70708.0
21
50092.0
0
LINE
8
BLACK
10
70708.0
20
50092.0
11
70871.0
21
49929.0
0
LINE
8
BLACK
10
70871.0
20
49929.0
11
71084.0
21
49840.0
0
LINE
8
BLACK
10
71084.0
20
49840.0
11
71315.0
21
49840.0
0
LINE
8
BLACK
10
71315.0
20
49840.0
11
71528.0
21
49928.0
0
LINE
8
BLACK
10
71528.0
20
49928.0
11
71691.0
21
50091.0
0
LINE
8
BLACK
10
71691.0
20
50091.0
11
71699.0
21
50112.0
0
LINE
8
BLACK
10
71699.0
20
50112.0
11
71708.0
21
50092.0
0
LINE
8
BLACK
10
71708.0
20
50092.0
11
71871.0
21
49929.0
0
LINE
8
BLACK
10
71871.0
20
49929.0
11
72084.0
21
49840.0
0
LINE
8
BLACK
10
72084.0
20
49840.0
11
72315.0
21
49840.0
0
LINE
8
BLACK
10
72315.0
20
49840.0
11
72528.0
21
49928.0
0
LINE
8
BLACK
10
72528.0
20
49928.0
11
72691.0
21
50091.0
0
LINE
8
BLACK
10
72691.0
20
50091.0
11
72780.0
21
50304.0
0
LINE
8
BLACK
10
72780.0
20
50304.0
11
72780.0
21
50108.0
0
LINE
8
BLACK
10
72780.0
20
50108.0
11
72725.0
21
49975.0
0
LINE
8
BLACK
10
72725.0
20
49975.0
11
72725.0
21
49766.0
0
LINE
8
BLACK
10
72725.0
20
49766.0
11
72805.0
21
49573.0
0
LINE
8
BLACK
10
72805.0
20
49573.0
11
72952.0
21
49425.0
0
LINE
8
BLACK
10
72952.0
20
49425.0
11
73145.0
21
49345.0
0
LINE
8
BLACK
10
73145.0
20
49345.0
11
73354.0
21
49345.0
0
LINE
8
BLACK
10
73354.0
20
49345.0
11
73547.0
21
49425.0
0
LINE
8
BLACK
10
73547.0
20
49425.0
11
73695.0
21
49572.0
0
LINE
8
BLACK
10
73695.0
20
49572.0
11
73775.0
21
49765.0
0
LINE
8
BLACK
10
73775.0
20
49765.0
11
73775.0
21
47045.0
0
LINE
8
BLACK
10
73775.0
20
47045.0
11
72767.0
21
47045.0
0
LINE
8
BLACK
10
72767.0
20
47045.0
11
72895.0
21
47172.0
0
LINE
8
BLACK
10
72895.0
20
47172.0
11
72975.0
21
47365.0
0
LINE
8
BLACK
10
72975.0
20
47365.0
11
72975.0
21
47574.0
0
LINE
8
BLACK
10
72975.0
20
47574.0
11
72895.0
21
47767.0
0
LINE
8
BLACK
10
72895.0
20
47767.0
11
72748.0
21
47915.0
0
LINE
8
BLACK
10
72748.0
20
47915.0
11
72555.0
21
47995.0
0
LINE
8
BLACK
10
72555.0
20
47995.0
11
72554.0
21
47995.0
0
LINE
8
BLACK
10
72554.0
20
47995.0
11
72747.0
21
48075.0
0
LINE
8
BLACK
10
72747.0
20
48075.0
11
72895.0
21
48222.0
0
LINE
8
BLACK
10
72895.0
20
48222.0
11
72975.0
21
48415.0
0
LINE
8
BLACK
10
72975.0
20
48415.0
11
72975.0
21
48624.0
0
LINE
8
BLACK
10
72975.0
20
48624.0
11
72895.0
21
48817.0
0
LINE
8
BLACK
10
72895.0
20
48817.0
11
72748.0
21
48965.0
0
LINE
8
BLACK
10
72748.0
20
48965.0
11
72555.0
21
49045.0
0
LINE
8
BLACK
10
72555.0
20
49045.0
11
72346.0
21
49045.0
0
LINE
8
BLACK
10
72346.0
20
49045.0
11
72153.0
21
48965.0
0
LINE
8
BLACK
10
72153.0
20
48965.0
11
72005.0
21
48818.0
0
LINE
8
BLACK
10
72005.0
20
48818.0
11
71925.0
21
48625.0
0
LINE
8
BLACK
10
71925.0
20
48625.0
11
71925.0
21
48416.0
0
LINE
8
BLACK
10
71925.0
20
48416.0
11
72005.0
21
48223.0
0
LINE
8
BLACK
10
72005.0
20
48223.0
11
72152.0
21
48075.0
0
LINE
8
BLACK
10
72152.0
20
48075.0
11
72345.0
21
47995.0
0
LINE
8
BLACK
10
72345.0
20
47995.0
11
72153.0
21
47915.0
0
LINE
8
BLACK
10
72153.0
20
47915.0
11
72005.0
21
47768.0
0
LINE
8
BLACK
10
72005.0
20
47768.0
11
71925.0
21
47575.0
0
LINE
8
BLACK
10
71925.0
20
47575.0
11
71925.0
21
47366.0
0
LINE
8
BLACK
10
71925.0
20
47366.0
11
72005.0
21
47173.0
0
LINE
8
BLACK
10
72005.0
20
47173.0
11
72132.0
21
47045.0
0
LINE
8
BLACK
10
72132.0
20
47045.0
11
71880.0
21
47045.0
0
LINE
8
BLACK
10
71880.0
20
47045.0
11
71880.0
21
47804.0
0
LINE
8
BLACK
10
71880.0
20
47804.0
11
71880.0
21
48035.0
0
LINE
8
BLACK
10
71880.0
20
48035.0
11
71792.0
21
48248.0
0
LINE
8
BLACK
10
71792.0
20
48248.0
11
71629.0
21
48411.0
0
LINE
8
BLACK
10
71629.0
20
48411.0
11
71416.0
21
48500.0
0
LINE
8
BLACK
10
71416.0
20
48500.0
11
71185.0
21
48500.0
0
LINE
8
BLACK
10
71185.0
20
48500.0
11
70972.0
21
48412.0
0
LINE
8
BLACK
10
70972.0
20
48412.0
11
70809.0
21
48249.0
0
LINE
8
BLACK
10
70809.0
20
48249.0
11
70800.0
21
48229.0
0
LINE
8
BLACK
10
70800.0
20
48229.0
11
70792.0
21
48248.0
0
LINE
8
BLACK
10
70792.0
20
48248.0
11
70629.0
21
48411.0
0
LINE
8
BLACK
10
70629.0
20
48411.0
11
70416.0
21
48500.0
0
LINE
8
BLACK
10
70416.0
20
48500.0
11
70380.0
21
48500.0
0
LINE
8
BLACK
10
70380.0
20
48500.0
11
70380.0
21
50304.0
0
LINE
8
BLACK
10
70380.0
20
50304.0
11
70380.0
21
50535.0
0
LINE
8
BLACK
10
70380.0
20
50535.0
11
70292.0
21
50748.0
0
LINE
8
BLACK
10
70292.0
20
50748.0
11
70129.0
21
50911.0
0
LINE
8
BLACK
10
70129.0
20
50911.0
11
69916.0
21
51000.0
0
LINE
8
BLACK
10
69916.0
20
51000.0
11
69685.0
21
51000.0
0
LINE
8
BLACK
10
69685.0
20
51000.0
11
69472.0
21
50912.0
0
LINE
8
BLACK
10
69472.0
20
50912.0
11
69309.0
21
50749.0
0
LINE
8
BLACK
10
69309.0
20
50749.0
11
69300.0
21
50729.0
0
LINE
8
BLACK
10
69300.0
20
50729.0
11
69292.0
21
50748.0
0
LINE
8
BLACK
10
69292.0
20
50748.0
11
69230.0
21
50810.0
0
LINE
8
BLACK
10
69230.0
20
50810.0
11
69230.0
21
52654.0
0
LINE
8
BLACK
10
69230.0
20
52654.0
11
69230.0
21
52885.0
0
LINE
8
BLACK
10
69230.0
20
52885.0
11
69142.0
21
53098.0
0
LINE
8
BLACK
10
69142.0
20
53098.0
11
68979.0
21
53261.0
0
LINE
8
BLACK
10
68979.0
20
53261.0
11
68766.0
21
53350.0
0
LINE
8
BLACK
10
68766.0
20
53350.0
11
68535.0
21
53350.0
0
LINE
8
BLACK
10
68535.0
20
53350.0
11
68322.0
21
53262.0
0
LINE
8
BLACK
10
68322.0
20
53262.0
11
68159.0
21
53099.0
0
LINE
8
BLACK
10
68159.0
20
53099.0
11
68150.0
21
53079.0
0
LINE
8
BLACK
10
68150.0
20
53079.0
11
68142.0
21
53098.0
0
LINE
8
BLACK
10
68142.0
20
53098.0
11
67979.0
21
53261.0
0
LINE
8
BLACK
10
67979.0
20
53261.0
11
67880.0
21
53303.0
0
LINE
8
BLACK
10
67880.0
20
53303.0
11
67880.0
21
55004.0
0
LINE
8
BLACK
10
67880.0
20
55004.0
11
67880.0
21
55235.0
0
LINE
8
BLACK
10
67880.0
20
55235.0
11
67792.0
21
55448.0
0
LINE
8
BLACK
10
67792.0
20
55448.0
11
67629.0
21
55611.0
0
LINE
8
BLACK
10
67629.0
20
55611.0
11
67416.0
21
55700.0
0
LINE
8
BLACK
10
67416.0
20
55700.0
11
67185.0
21
55700.0
0
LINE
8
BLACK
10
67185.0
20
55700.0
11
66972.0
21
55612.0
0
LINE
8
BLACK
10
66972.0
20
55612.0
11
66809.0
21
55449.0
0
LINE
8
BLACK
10
66809.0
20
55449.0
11
66796.0
21
55418.0
0
LINE
8
BLACK
10
66796.0
20
55418.0
11
66700.0
21
55449.0
0
LINE
8
BLACK
10
66700.0
20
55449.0
11
66629.0
21
55378.0
0
LINE
8
BLACK
10
66629.0
20
55378.0
11
66629.0
21
55520.0
0
LINE
8
BLACK
10
66629.0
20
55520.0
11
66598.0
21
55616.0
0
LINE
8
BLACK
10
66598.0
20
55616.0
11
66386.0
21
55693.0
0
LINE
8
BLACK
10
66386.0
20
55693.0
11
66161.0
21
55682.0
0
LINE
8
BLACK
10
66161.0
20
55682.0
11
66002.0
21
55616.0
0
LINE
8
BLACK
10
66002.0
20
55616.0
11
65971.0
21
55520.0
0
LINE
8
BLACK
10
65971.0
20
55520.0
11
66300.0
21
55191.0
0
LINE
8
BLACK
10
66300.0
20
55191.0
11
66629.0
21
55520.0
0
LINE
8
BLACK
10
66629.0
20
55520.0
11
66629.0
21
55378.0
0
LINE
8
BLACK
10
66629.0
20
55378.0
11
66371.0
21
55120.0
0
LINE
8
BLACK
10
66371.0
20
55120.0
11
66700.0
21
54791.0
0
LINE
8
BLACK
10
66700.0
20
54791.0
11
66795.0
21
54822.0
0
LINE
8
BLACK
10
66795.0
20
54822.0
11
66796.0
21
54822.0
0
LINE
8
BLACK
10
66796.0
20
54822.0
11
66808.0
21
54792.0
0
LINE
8
BLACK
10
66808.0
20
54792.0
11
66971.0
21
54629.0
0
LINE
8
BLACK
10
66971.0
20
54629.0
11
67184.0
21
54540.0
0
LINE
8
BLACK
10
67184.0
20
54540.0
11
67415.0
21
54540.0
0
LINE
8
BLACK
10
67415.0
20
54540.0
11
67628.0
21
54628.0
0
LINE
8
BLACK
10
67628.0
20
54628.0
11
67791.0
21
54791.0
0
LINE
8
BLACK
10
67791.0
20
54791.0
11
67880.0
21
55004.0
0
LINE
8
BLACK
10
67880.0
20
55004.0
11
67880.0
21
53303.0
0
LINE
8
BLACK
10
67880.0
20
53303.0
11
67766.0
21
53350.0
0
LINE
8
BLACK
10
67766.0
20
53350.0
11
67535.0
21
53350.0
0
LINE
8
BLACK
10
67535.0
20
53350.0
11
67322.0
21
53262.0
0
LINE
8
BLACK
10
67322.0
20
53262.0
11
67159.0
21
53099.0
0
LINE
8
BLACK
10
67159.0
20
53099.0
11
67070.0
21
52886.0
0
LINE
8
BLACK
10
67070.0
20
52886.0
11
67070.0
21
52655.0
0
LINE
8
BLACK
10
67070.0
20
52655.0
11
67158.0
21
52442.0
0
LINE
8
BLACK
10
67158.0
20
52442.0
11
67321.0
21
52279.0
0
LINE
8
BLACK
10
67321.0
20
52279.0
11
67534.0
21
52190.0
0
LINE
8
BLACK
10
67534.0
20
52190.0
11
67765.0
21
52190.0
0
LINE
8
BLACK
10
67765.0
20
52190.0
11
67978.0
21
52278.0
0
LINE
8
BLACK
10
67978.0
20
52278.0
11
68141.0
21
52441.0
0
LINE
8
BLACK
10
68141.0
20
52441.0
11
68149.0
21
52462.0
0
LINE
8
BLACK
10
68149.0
20
52462.0
11
68158.0
21
52442.0
0
LINE
8
BLACK
10
68158.0
20
52442.0
11
68321.0
21
52279.0
0
LINE
8
BLACK
10
68321.0
20
52279.0
11
68534.0
21
52190.0
0
LINE
8
BLACK
10
68534.0
20
52190.0
11
68765.0
21
52190.0
0
LINE
8
BLACK
10
68765.0
20
52190.0
11
68978.0
21
52278.0
0
LINE
8
BLACK
10
68978.0
20
52278.0
11
69141.0
21
52441.0
0
LINE
8
BLACK
10
69141.0
20
52441.0
11
69230.0
21
52654.0
0
LINE
8
BLACK
10
69230.0
20
52654.0
11
69230.0
21
50810.0
0
LINE
8
BLACK
10
69230.0
20
50810.0
11
69129.0
21
50911.0
0
LINE
8
BLACK
10
69129.0
20
50911.0
11
68916.0
21
51000.0
0
LINE
8
BLACK
10
68916.0
20
51000.0
11
68685.0
21
51000.0
0
LINE
8
BLACK
10
68685.0
20
51000.0
11
68472.0
21
50912.0
0
LINE
8
BLACK
10
68472.0
20
50912.0
11
68309.0
21
50749.0
0
LINE
8
BLACK
10
68309.0
20
50749.0
11
68220.0
21
50536.0
0
LINE
8
BLACK
10
68220.0
20
50536.0
11
68220.0
21
50305.0
0
LINE
8
BLACK
10
68220.0
20
50305.0
11
68308.0
21
50092.0
0
LINE
8
BLACK
10
68308.0
20
50092.0
11
68471.0
21
49929.0
0
LINE
8
BLACK
10
68471.0
20
49929.0
11
68684.0
21
49840.0
0
LINE
8
BLACK
10
68684.0
20
49840.0
11
68915.0
21
49840.0
0
LINE
8
BLACK
10
68915.0
20
49840.0
11
69128.0
21
49928.0
0
LINE
8
BLACK
10
69128.0
20
49928.0
11
69291.0
21
50091.0
0
LINE
8
BLACK
10
69291.0
20
50091.0
11
69299.0
21
50112.0
0
LINE
8
BLACK
10
69299.0
20
50112.0
11
69308.0
21
50092.0
0
LINE
8
BLACK
10
69308.0
20
50092.0
11
69471.0
21
49929.0
0
LINE
8
BLACK
10
69471.0
20
49929.0
11
69684.0
21
49840.0
0
LINE
8
BLACK
10
69684.0
20
49840.0
11
69915.0
21
49840.0
0
LINE
8
BLACK
10
69915.0
20
49840.0
11
70128.0
21
49928.0
0
LINE
8
BLACK
10
70128.0
20
49928.0
11
70291.0
21
50091.0
0
LINE
8
BLACK
10
70291.0
20
50091.0
11
70380.0
21
50304.0
0
LINE
8
BLACK
10
70380.0
20
50304.0
11
70380.0
21
48500.0
0
LINE
8
BLACK
10
70380.0
20
48500.0
11
70185.0
21
48500.0
0
LINE
8
BLACK
10
70185.0
20
48500.0
11
69972.0
21
48412.0
0
LINE
8
BLACK
10
69972.0
20
48412.0
11
69809.0
21
48249.0
0
LINE
8
BLACK
10
69809.0
20
48249.0
11
69720.0
21
48036.0
0
LINE
8
BLACK
10
69720.0
20
48036.0
11
69720.0
21
47805.0
0
LINE
8
BLACK
10
69720.0
20
47805.0
11
69808.0
21
47592.0
0
LINE
8
BLACK
10
69808.0
20
47592.0
11
69971.0
21
47429.0
0
LINE
8
BLACK
10
69971.0
20
47429.0
11
70184.0
21
47340.0
0
LINE
8
BLACK
10
70184.0
20
47340.0
11
70415.0
21
47340.0
0
LINE
8
BLACK
10
70415.0
20
47340.0
11
70628.0
21
47428.0
0
LINE
8
BLACK
10
70628.0
20
47428.0
11
70791.0
21
47591.0
0
LINE
8
BLACK
10
70791.0
20
47591.0
11
70799.0
21
47612.0
0
LINE
8
BLACK
10
70799.0
20
47612.0
11
70808.0
21
47592.0
0
LINE
8
BLACK
10
70808.0
20
47592.0
11
70971.0
21
47429.0
0
LINE
8
BLACK
10
70971.0
20
47429.0
11
71184.0
21
47340.0
0
LINE
8
BLACK
10
71184.0
20
47340.0
11
71415.0
21
47340.0
0
LINE
8
BLACK
10
71415.0
20
47340.0
11
71628.0
21
47428.0
0
LINE
8
BLACK
10
71628.0
20
47428.0
11
71791.0
21
47591.0
0
LINE
8
BLACK
10
71791.0
20
47591.0
11
71880.0
21
47804.0
0
LINE
8
BLACK
10
71880.0
20
47804.0
11
71880.0
21
47045.0
0
LINE
8
BLACK
10
71880.0
20
47045.0
11
69480.0
21
47045.0
0
LINE
8
BLACK
10
69480.0
20
47045.0
11
69480.0
21
47804.0
0
LINE
8
BLACK
10
69480.0
20
47804.0
11
69480.0
21
48035.0
0
LINE
8
BLACK
10
69480.0
20
48035.0
11
69392.0
21
48248.0
0
LINE
8
BLACK
10
69392.0
20
48248.0
11
69229.0
21
48411.0
0
LINE
8
BLACK
10
69229.0
20
48411.0
11
69016.0
21
48500.0
0
LINE
8
BLACK
10
69016.0
20
48500.0
11
68785.0
21
48500.0
0
LINE
8
BLACK
10
68785.0
20
48500.0
11
68572.0
21
48412.0
0
LINE
8
BLACK
10
68572.0
20
48412.0
11
68409.0
21
48249.0
0
LINE
8
BLACK
10
68409.0
20
48249.0
11
68400.0
21
48229.0
0
LINE
8
BLACK
10
68400.0
20
48229.0
11
68392.0
21
48248.0
0
LINE
8
BLACK
10
68392.0
20
48248.0
11
68229.0
21
48411.0
0
LINE
8
BLACK
10
68229.0
20
48411.0
11
68016.0
21
48500.0
0
LINE
8
BLACK
10
68016.0
20
48500.0
11
67980.0
21
48500.0
0
LINE
8
BLACK
10
67980.0
20
48500.0
11
67980.0
21
50304.0
0
LINE
8
BLACK
10
67980.0
20
50304.0
11
67980.0
21
50535.0
0
LINE
8
BLACK
10
67980.0
20
50535.0
11
67892.0
21
50748.0
0
LINE
8
BLACK
10
67892.0
20
50748.0
11
67729.0
21
50911.0
0
LINE
8
BLACK
10
67729.0
20
50911.0
11
67516.0
21
51000.0
0
LINE
8
BLACK
10
67516.0
20
51000.0
11
67285.0
21
51000.0
0
LINE
8
BLACK
10
67285.0
20
51000.0
11
67072.0
21
50912.0
0
LINE
8
BLACK
10
67072.0
20
50912.0
11
66909.0
21
50749.0
0
LINE
8
BLACK
10
66909.0
20
50749.0
11
66896.0
21
50718.0
0
LINE
8
BLACK
10
66896.0
20
50718.0
11
66830.0
21
50740.0
0
LINE
8
BLACK
10
66830.0
20
50740.0
11
66830.0
21
52604.0
0
LINE
8
BLACK
10
66830.0
20
52604.0
11
66830.0
21
52835.0
0
LINE
8
BLACK
10
66830.0
20
52835.0
11
66742.0
21
53048.0
0
LINE
8
BLACK
10
66742.0
20
53048.0
11
66629.0
21
53161.0
0
LINE
8
BLACK
10
66629.0
20
53161.0
11
66629.0
21
54720.0
0
LINE
8
BLACK
10
66629.0
20
54720.0
11
66300.0
21
55049.0
0
LINE
8
BLACK
10
66300.0
20
55049.0
11
65971.0
21
54720.0
0
LINE
8
BLACK
10
65971.0
20
54720.0
11
66002.0
21
54624.0
0
LINE
8
BLACK
10
66002.0
20
54624.0
11
66214.0
21
54547.0
0
LINE
8
BLACK
10
66214.0
20
54547.0
11
66439.0
21
54558.0
0
LINE
8
BLACK
10
66439.0
20
54558.0
11
66598.0
21
54624.0
0
LINE
8
BLACK
10
66598.0
20
54624.0
11
66629.0
21
54720.0
0
LINE
8
BLACK
10
66629.0
20
54720.0
11
66629.0
21
53161.0
0
LINE
8
BLACK
10
66629.0
20
53161.0
11
66579.0
21
53211.0
0
LINE
8
BLACK
10
66579.0
20
53211.0
11
66366.0
21
53300.0
0
LINE
8
BLACK
10
66366.0
20
53300.0
11
66135.0
21
53300.0
0
LINE
8
BLACK
10
66135.0
20
53300.0
11
65922.0
21
53212.0
0
LINE
8
BLACK
10
65922.0
20
53212.0
11
65759.0
21
53049.0
0
LINE
8
BLACK
10
65759.0
20
53049.0
11
65746.0
21
53018.0
0
LINE
8
BLACK
10
65746.0
20
53018.0
11
65650.0
21
53049.0
0
LINE
8
BLACK
10
65650.0
20
53049.0
11
65579.0
21
52978.0
0
LINE
8
BLACK
10
65579.0
20
52978.0
11
65579.0
21
53120.0
0
LINE
8
BLACK
10
65579.0
20
53120.0
11
65548.0
21
53216.0
0
LINE
8
BLACK
10
65548.0
20
53216.0
11
65336.0
21
53293.0
0
LINE
8
BLACK
10
65336.0
20
53293.0
11
65111.0
21
53282.0
0
LINE
8
BLACK
10
65111.0
20
53282.0
11
64952.0
21
53216.0
0
LINE
8
BLACK
10
64952.0
20
53216.0
11
64921.0
21
53120.0
0
LINE
8
BLACK
10
64921.0
20
53120.0
11
65250.0
21
52791.0
0
LINE
8
BLACK
10
65250.0
20
52791.0
11
65579.0
21
53120.0
0
LINE
8
BLACK
10
65579.0
20
53120.0
11
65579.0
21
52978.0
0
LINE
8
BLACK
10
65579.0
20
52978.0
11
65321.0
21
52720.0
0
LINE
8
BLACK
10
65321.0
20
52720.0
11
65650.0
21
52391.0
0
LINE
8
BLACK
10
65650.0
20
52391.0
11
65745.0
21
52422.0
0
LINE
8
BLACK
10
65745.0
20
52422.0
11
65746.0
21
52422.0
0
LINE
8
BLACK
10
65746.0
20
52422.0
11
65758.0
21
52392.0
0
LINE
8
BLACK
10
65758.0
20
52392.0
11
65921.0
21
52229.0
0
LINE
8
BLACK
10
65921.0
20
52229.0
11
66134.0
21
52140.0
0
LINE
8
BLACK
10
66134.0
20
52140.0
11
66365.0
21
52140.0
0
LINE
8
BLACK
10
66365.0
20
52140.0
11
66578.0
21
52228.0
0
LINE
8
BLACK
10
66578.0
20
52228.0
11
66741.0
21
52391.0
0
LINE
8
BLACK
10
66741.0
20
52391.0
11
66830.0
21
52604.0
0
LINE
8
BLACK
10
66830.0
20
52604.0
11
66830.0
21
50740.0
0
LINE
8
BLACK
10
66830.0
20
50740.0
11
66800.0
21
50749.0
0
LINE
8
BLACK
10
66800.0
20
50749.0
11
66729.0
21
50678.0
0
LINE
8
BLACK
10
66729.0
20
50678.0
11
66729.0
21
50820.0
0
LINE
8
BLACK
10
66729.0
20
50820.0
11
66698.0
21
50916.0
0
LINE
8
BLACK
10
66698.0
20
50916.0
11
66486.0
21
50993.0
0
LINE
8
BLACK
10
66486.0
20
50993.0
11
66261.0
21
50982.0
0
LINE
8
BLACK
10
66261.0
20
50982.0
11
66102.0
21
50916.0
0
LINE
8
BLACK
10
66102.0
20
50916.0
11
66071.0
21
50820.0
0
LINE
8
BLACK
10
66071.0
20
50820.0
11
66400.0
21
50491.0
0
LINE
8
BLACK
10
66400.0
20
50491.0
11
66729.0
21
50820.0
0
LINE
8
BLACK
10
66729.0
20
50820.0
11
66729.0
21
50678.0
0
LINE
8
BLACK
10
66729.0
20
50678.0
11
66471.0
21
50420.0
0
LINE
8
BLACK
10
66471.0
20
50420.0
11
66800.0
21
50091.0
0
LINE
8
BLACK
10
66800.0
20
50091.0
11
66895.0
21
50122.0
0
LINE
8
BLACK
10
66895.0
20
50122.0
11
66896.0
21
50122.0
0
LINE
8
BLACK
10
66896.0
20
50122.0
11
66908.0
21
50092.0
0
LINE
8
BLACK
10
66908.0
20
50092.0
11
67071.0
21
49929.0
0
LINE
8
BLACK
10
67071.0
20
49929.0
11
67284.0
21
49840.0
0
LINE
8
BLACK
10
67284.0
20
49840.0
11
67515.0
21
49840.0
0
LINE
8
BLACK
10
67515.0
20
49840.0
11
67728.0
21
49928.0
0
LINE
8
BLACK
10
67728.0
20
49928.0
11
67891.0
21
50091.0
0
LINE
8
BLACK
10
67891.0
20
50091.0
11
67980.0
21
50304.0
0
LINE
8
BLACK
10
67980.0
20
50304.0
11
67980.0
21
48500.0
0
LINE
8
BLACK
10
67980.0
20
48500.0
11
67785.0
21
48500.0
0
LINE
8
BLACK
10
67785.0
20
48500.0
11
67572.0
21
48412.0
0
LINE
8
BLACK
10
67572.0
20
48412.0
11
67409.0
21
48249.0
0
LINE
8
BLACK
10
67409.0
20
48249.0
11
67320.0
21
48036.0
0
LINE
8
BLACK
10
67320.0
20
48036.0
11
67320.0
21
47805.0
0
LINE
8
BLACK
10
67320.0
20
47805.0
11
67408.0
21
47592.0
0
LINE
8
BLACK
10
67408.0
20
47592.0
11
67571.0
21
47429.0
0
LINE
8
BLACK
10
67571.0
20
47429.0
11
67784.0
21
47340.0
0
LINE
8
BLACK
10
67784.0
20
47340.0
11
68015.0
21
47340.0
0
LINE
8
BLACK
10
68015.0
20
47340.0
11
68228.0
21
47428.0
0
LINE
8
BLACK
10
68228.0
20
47428.0
11
68391.0
21
47591.0
0
LINE
8
BLACK
10
68391.0
20
47591.0
11
68399.0
21
47612.0
0
LINE
8
BLACK
10
68399.0
20
47612.0
11
68408.0
21
47592.0
0
LINE
8
BLACK
10
68408.0
20
47592.0
11
68571.0
21
47429.0
0
LINE
8
BLACK
10
68571.0
20
47429.0
11
68784.0
21
47340.0
0
LINE
8
BLACK
10
68784.0
20
47340.0
11
69015.0
21
47340.0
0
LINE
8
BLACK
10
69015.0
20
47340.0
11
69228.0
21
47428.0
0
LINE
8
BLACK
10
69228.0
20
47428.0
11
69391.0
21
47591.0
0
LINE
8
BLACK
10
69391.0
20
47591.0
11
69480.0
21
47804.0
0
LINE
8
BLACK
10
69480.0
20
47804.0
11
69480.0
21
47045.0
0
LINE
8
BLACK
10
69480.0
20
47045.0
11
67080.0
21
47045.0
0
LINE
8
BLACK
10
67080.0
20
47045.0
11
67080.0
21
47804.0
0
LINE
8
BLACK
10
67080.0
20
47804.0
11
67080.0
21
48035.0
0
LINE
8
BLACK
10
67080.0
20
48035.0
11
66992.0
21
48248.0
0
LINE
8
BLACK
10
66992.0
20
48248.0
11
66829.0
21
48411.0
0
LINE
8
BLACK
10
66829.0
20
48411.0
11
66729.0
21
48453.0
0
LINE
8
BLACK
10
66729.0
20
48453.0
11
66729.0
21
50020.0
0
LINE
8
BLACK
10
66729.0
20
50020.0
11
66400.0
21
50349.0
0
LINE
8
BLACK
10
66400.0
20
50349.0
11
66329.0
21
50278.0
0
LINE
8
BLACK
10
66329.0
20
50278.0
11
66329.0
21
50420.0
0
LINE
8
BLACK
10
66329.0
20
50420.0
11
66000.0
21
50749.0
0
LINE
8
BLACK
10
66000.0
20
50749.0
11
65904.0
21
50718.0
0
LINE
8
BLACK
10
65904.0
20
50718.0
11
65827.0
21
50506.0
0
LINE
8
BLACK
10
65827.0
20
50506.0
11
65838.0
21
50281.0
0
LINE
8
BLACK
10
65838.0
20
50281.0
11
65904.0
21
50122.0
0
LINE
8
BLACK
10
65904.0
20
50122.0
11
66000.0
21
50091.0
0
LINE
8
BLACK
10
66000.0
20
50091.0
11
66329.0
21
50420.0
0
LINE
8
BLACK
10
66329.0
20
50420.0
11
66329.0
21
50278.0
0
LINE
8
BLACK
10
66329.0
20
50278.0
11
66071.0
21
50020.0
0
LINE
8
BLACK
10
66071.0
20
50020.0
11
66102.0
21
49924.0
0
LINE
8
BLACK
10
66102.0
20
49924.0
11
66314.0
21
49847.0
0
LINE
8
BLACK
10
66314.0
20
49847.0
11
66539.0
21
49858.0
0
LINE
8
BLACK
10
66539.0
20
49858.0
11
66698.0
21
49924.0
0
LINE
8
BLACK
10
66698.0
20
49924.0
11
66729.0
21
50020.0
0
LINE
8
BLACK
10
66729.0
20
50020.0
11
66729.0
21
48453.0
0
LINE
8
BLACK
10
66729.0
20
48453.0
11
66616.0
21
48500.0
0
LINE
8
BLACK
10
66616.0
20
48500.0
11
66385.0
21
48500.0
0
LINE
8
BLACK
10
66385.0
20
48500.0
11
66172.0
21
48412.0
0
LINE
8
BLACK
10
66172.0
20
48412.0
11
66009.0
21
48249.0
0
LINE
8
BLACK
10
66009.0
20
48249.0
11
65996.0
21
48218.0
0
LINE
8
BLACK
10
65996.0
20
48218.0
11
65900.0
21
48249.0
0
LINE
8
BLACK
10
65900.0
20
48249.0
11
65829.0
21
48178.0
0
LINE
8
BLACK
10
65829.0
20
48178.0
11
65829.0
21
48320.0
0
LINE
8
BLACK
10
65829.0
20
48320.0
11
65798.0
21
48416.0
0
LINE
8
BLACK
10
65798.0
20
48416.0
11
65586.0
21
48493.0
0
LINE
8
BLACK
10
65586.0
20
48493.0
11
65361.0
21
48482.0
0
LINE
8
BLACK
10
65361.0
20
48482.0
11
65202.0
21
48416.0
0
LINE
8
BLACK
10
65202.0
20
48416.0
11
65171.0
21
48320.0
0
LINE
8
BLACK
10
65171.0
20
48320.0
11
65500.0
21
47991.0
0
LINE
8
BLACK
10
65500.0
20
47991.0
11
65829.0
21
48320.0
0
LINE
8
BLACK
10
65829.0
20
48320.0
11
65829.0
21
48178.0
0
LINE
8
BLACK
10
65829.0
20
48178.0
11
65571.0
21
47920.0
0
LINE
8
BLACK
10
65571.0
20
47920.0
11
65900.0
21
47591.0
0
LINE
8
BLACK
10
65900.0
20
47591.0
11
65995.0
21
47622.0
0
LINE
8
BLACK
10
65995.0
20
47622.0
11
65996.0
21
47622.0
0
LINE
8
BLACK
10
65996.0
20
47622.0
11
66008.0
21
47592.0
0
LINE
8
BLACK
10
66008.0
20
47592.0
11
66171.0
21
47429.0
0
LINE
8
BLACK
10
66171.0
20
47429.0
11
66384.0
21
47340.0
0
LINE
8
BLACK
10
66384.0
20
47340.0
11
66615.0
21
47340.0
0
LINE
8
BLACK
10
66615.0
20
47340.0
11
66828.0
21
47428.0
0
LINE
8
BLACK
10
66828.0
20
47428.0
11
66991.0
21
47591.0
0
LINE
8
BLACK
10
66991.0
20
47591.0
11
67080.0
21
47804.0
0
LINE
8
BLACK
10
67080.0
20
47804.0
11
67080.0
21
47045.0
0
LINE
8
BLACK
10
67080.0
20
47045.0
11
65829.0
21
47045.0
0
LINE
8
BLACK
10
65829.0
20
47045.0
11
65829.0
21
47520.0
0
LINE
8
BLACK
10
65829.0
20
47520.0
11
65500.0
21
47849.0
0
LINE
8
BLACK
10
65500.0
20
47849.0
11
65429.0
21
47778.0
0
LINE
8
BLACK
10
65429.0
20
47778.0
11
65429.0
21
47920.0
0
LINE
8
BLACK
10
65429.0
20
47920.0
11
65100.0
21
48249.0
0
LINE
8
BLACK
10
65100.0
20
48249.0
11
65004.0
21
48218.0
0
LINE
8
BLACK
10
65004.0
20
48218.0
11
64927.0
21
48006.0
0
LINE
8
BLACK
10
64927.0
20
48006.0
11
64938.0
21
47781.0
0
LINE
8
BLACK
10
64938.0
20
47781.0
11
65004.0
21
47622.0
0
LINE
8
BLACK
10
65004.0
20
47622.0
11
65100.0
21
47591.0
0
LINE
8
BLACK
10
65100.0
20
47591.0
11
65429.0
21
47920.0
0
LINE
8
BLACK
10
65429.0
20
47920.0
11
65429.0
21
47778.0
0
LINE
8
BLACK
10
65429.0
20
47778.0
11
65171.0
21
47520.0
0
LINE
8
BLACK
10
65171.0
20
47520.0
11
65202.0
21
47424.0
0
LINE
8
BLACK
10
65202.0
20
47424.0
11
65414.0
21
47347.0
0
LINE
8
BLACK
10
65414.0
20
47347.0
11
65639.0
21
47358.0
0
LINE
8
BLACK
10
65639.0
20
47358.0
11
65798.0
21
47424.0
0
LINE
8
BLACK
10
65798.0
20
47424.0
11
65829.0
21
47520.0
0
LINE
8
BLACK
10
65829.0
20
47520.0
11
65829.0
21
47045.0
0
LINE
8
BLACK
10
65829.0
20
47045.0
11
64642.0
21
47045.0
0
LINE
8
BLACK
10
64642.0
20
47045.0
11
64601.0
21
48720.0
0
LINE
8
BLACK
10
64601.0
20
48720.0
11
65801.0
21
48720.0
0
LINE
8
BLACK
10
65801.0
20
48720.0
11
65749.0
21
51870.0
0
LINE
8
BLACK
10
65749.0
20
51870.0
11
65579.0
21
51870.0
0
LINE
8
BLACK
10
65579.0
20
51870.0
11
65579.0
21
52320.0
0
LINE
8
BLACK
10
65579.0
20
52320.0
11
65250.0
21
52649.0
0
LINE
8
BLACK
10
65250.0
20
52649.0
11
65179.0
21
52578.0
0
LINE
8
BLACK
10
65179.0
20
52578.0
11
65179.0
21
52720.0
0
LINE
8
BLACK
10
65179.0
20
52720.0
11
64850.0
21
53049.0
0
LINE
8
BLACK
10
64850.0
20
53049.0
11
64754.0
21
53018.0
0
LINE
8
BLACK
10
64754.0
20
53018.0
11
64677.0
21
52806.0
0
LINE
8
BLACK
10
64677.0
20
52806.0
11
64688.0
21
52581.0
0
LINE
8
BLACK
10
64688.0
20
52581.0
11
64754.0
21
52422.0
0
LINE
8
BLACK
10
64754.0
20
52422.0
11
64850.0
21
52391.0
0
LINE
8
BLACK
10
64850.0
20
52391.0
11
65179.0
21
52720.0
0
LINE
8
BLACK
10
65179.0
20
52720.0
11
65179.0
21
52578.0
0
LINE
8
BLACK
10
65179.0
20
52578.0
11
64921.0
21
52320.0
0
LINE
8
BLACK
10
64921.0
20
52320.0
11
64952.0
21
52224.0
0
LINE
8
BLACK
10
64952.0
20
52224.0
11
65164.0
21
52147.0
0
LINE
8
BLACK
10
65164.0
20
52147.0
11
65389.0
21
52158.0
0
LINE
8
BLACK
10
65389.0
20
52158.0
11
65548.0
21
52224.0
0
LINE
8
BLACK
10
65548.0
20
52224.0
11
65579.0
21
52320.0
0
LINE
8
BLACK
10
65579.0
20
52320.0
11
65579.0
21
51870.0
0
LINE
8
BLACK
10
65579.0
20
51870.0
11
63400.0
21
51870.0
0
LINE
8
BLACK
10
63400.0
20
51870.0
11
63400.0
21
53621.0
0
LINE
8
BLACK
10
63400.0
20
53621.0
11
65550.0
21
53671.0
0
LINE
8
BLACK
10
65550.0
20
53671.0
11
65550.0
21
54490.0
0
LINE
8
BLACK
10
65550.0
20
54490.0
11
65745.0
21
54963.0
0
LINE
8
BLACK
10
65745.0
20
54963.0
11
65804.0
21
54822.0
0
LINE
8
BLACK
10
65804.0
20
54822.0
11
65900.0
21
54791.0
0
LINE
8
BLACK
10
65900.0
20
54791.0
11
66229.0
21
55120.0
0
LINE
8
BLACK
10
66229.0
20
55120.0
11
65900.0
21
55449.0
0
LINE
8
BLACK
10
65900.0
20
55449.0
11
65804.0
21
55418.0
0
LINE
8
BLACK
10
65804.0
20
55418.0
11
65749.0
21
55268.0
0
LINE
8
BLACK
10
65749.0
20
55268.0
11
65750.0
21
55567.0
0
LINE
8
BLACK
10
65750.0
20
55567.0
11
65550.0
21
56051.0
0
LINE
8
BLACK
10
65550.0
20
56051.0
11
65550.0
21
56395.0
0
LINE
8
BLACK
10
65550.0
20
56395.0
11
72975.0
21
56395.0
0
LINE
8
BLACK
10
72975.0
20
56395.0
11
72903.0
21
56365.0
0
LINE
8
BLACK
10
72903.0
20
56365.0
11
72755.0
21
56218.0
0
LINE
8
BLACK
10
72755.0
20
56218.0
11
72675.0
21
56025.0
0
LINE
8
BLACK
10
72675.0
20
56025.0
11
72675.0
21
55816.0
0
LINE
8
BLACK
10
72675.0
20
55816.0
11
72755.0
21
55623.0
0
LINE
8
BLACK
10
72755.0
20
55623.0
11
72902.0
21
55475.0
0
LINE
8
BLACK
10
72902.0
20
55475.0
11
73010.0
21
55431.0
0
LINE
8
BLACK
10
73010.0
20
55431.0
11
72853.0
21
55365.0
0
LINE
8
BLACK
10
72853.0
20
55365.0
11
72705.0
21
55218.0
0
LINE
8
BLACK
10
72705.0
20
55218.0
11
72680.0
21
55158.0
0
LINE
8
BLACK
10
72680.0
20
55158.0
11
72680.0
21
55235.0
0
LINE
8
BLACK
10
72680.0
20
55235.0
11
72592.0
21
55448.0
0
LINE
8
BLACK
10
72592.0
20
55448.0
11
72429.0
21
55611.0
0
LINE
8
BLACK
10
72429.0
20
55611.0
11
72216.0
21
55700.0
0
LINE
8
BLACK
10
72216.0
20
55700.0
11
71985.0
21
55700.0
0
LINE
8
BLACK
10
71985.0
20
55700.0
11
71772.0
21
55612.0
0
LINE
8
BLACK
10
71772.0
20
55612.0
11
71609.0
21
55449.0
0
LINE
8
BLACK
10
71609.0
20
55449.0
11
71600.0
21
55429.0
0
LINE
8
BLACK
10
71600.0
20
55429.0
11
71592.0
21
55448.0
0
LINE
8
BLACK
10
71592.0
20
55448.0
11
71429.0
21
55611.0
0
LINE
8
BLACK
10
71429.0
20
55611.0
11
71216.0
21
55700.0
0
LINE
8
BLACK
10
71216.0
20
55700.0
11
70985.0
21
55700.0
0
LINE
8
BLACK
10
70985.0
20
55700.0
11
70772.0
21
55612.0
0
LINE
8
BLACK
10
70772.0
20
55612.0
11
70609.0
21
55449.0
0
LINE
8
BLACK
10
70609.0
20
55449.0
11
70520.0
21
55236.0
0
LINE
8
BLACK
10
70520.0
20
55236.0
11
70520.0
21
55005.0
0
LINE
8
BLACK
10
70520.0
20
55005.0
11
70608.0
21
54792.0
0
LINE
8
BLACK
10
70608.0
20
54792.0
11
70771.0
21
54629.0
0
LINE
8
BLACK
10
70771.0
20
54629.0
11
70984.0
21
54540.0
0
LINE
8
BLACK
10
70984.0
20
54540.0
11
71215.0
21
54540.0
0
LINE
8
BLACK
10
71215.0
20
54540.0
11
71428.0
21
54628.0
0
LINE
8
BLACK
10
71428.0
20
54628.0
11
71591.0
21
54791.0
0
LINE
8
BLACK
10
71591.0
20
54791.0
11
71599.0
21
54812.0
0
LINE
8
BLACK
10
71599.0
20
54812.0
11
71608.0
21
54792.0
0
LINE
8
BLACK
10
71608.0
20
54792.0
11
71771.0
21
54629.0
0
LINE
8
BLACK
10
71771.0
20
54629.0
11
71984.0
21
54540.0
0
LINE
8
BLACK
10
71984.0
20
54540.0
11
72215.0
21
54540.0
0
LINE
8
BLACK
10
72215.0
20
54540.0
11
72428.0
21
54628.0
0
LINE
8
BLACK
10
72428.0
20
54628.0
11
72591.0
21
54791.0
0
LINE
8
BLACK
10
72591.0
20
54791.0
11
72625.0
21
54873.0
0
LINE
8
BLACK
10
72625.0
20
54873.0
11
72625.0
21
54816.0
0
LINE
8
BLACK
10
72625.0
20
54816.0
11
72705.0
21
54623.0
0
LINE
8
BLACK
10
72705.0
20
54623.0
11
72852.0
21
54475.0
0
LINE
8
BLACK
10
72852.0
20
54475.0
11
73045.0
21
54395.0
0
LINE
8
BLACK
10
73045.0
20
54395.0
11
73254.0
21
54395.0
0
LINE
8
BLACK
10
73254.0
20
54395.0
11
73261.0
21
54399.0
0
LINE
8
BLACK
10
73261.0
20
54399.0
11
73694.0
21
53965.0
0
LINE
8
BLACK
10
73694.0
20
53965.0
11
73695.0
21
53965.0
0
LINE
8
BLACK
10
73695.0
20
53965.0
11
73789.0
21
53902.0
0
LINE
8
BLACK
10
73789.0
20
53902.0
11
73900.0
21
53880.0
0
LINE
8
BLACK
10
73900.0
20
53880.0
11
78025.0
21
53880.0
0
LINE
8
BLACK
10
78025.0
20
53880.0
11
78025.0
21
53786.0
0
LINE
8
BLACK
10
78025.0
20
53786.0
11
78089.0
21
53630.0
0
LINE
8
BLACK
10
78089.0
20
53630.0
11
78209.0
21
53510.0
0
LINE
8
BLACK
10
78209.0
20
53510.0
11
78365.0
21
53445.0
0
LINE
8
BLACK
10
78365.0
20
53445.0
11
78534.0
21
53445.0
0
LINE
8
BLACK
10
78534.0
20
53445.0
11
78690.0
21
53509.0
0
LINE
8
BLACK
10
78690.0
20
53509.0
11
78810.0
21
53629.0
0
LINE
8
BLACK
10
78810.0
20
53629.0
11
78875.0
21
53785.0
0
LINE
8
BLACK
10
78875.0
20
53785.0
11
78875.0
21
53954.0
0
LINE
8
BLACK
10
78875.0
20
53954.0
11
78811.0
21
54110.0
0
LINE
8
BLACK
10
78811.0
20
54110.0
11
78691.0
21
54230.0
0
LINE
8
BLACK
10
78691.0
20
54230.0
11
78535.0
21
54295.0
0
LINE
8
BLACK
10
78535.0
20
54295.0
11
78435.0
21
54295.0
0
LINE
8
BLACK
10
78435.0
20
54295.0
11
78355.0
21
54375.0
0
LINE
8
BLACK
10
78355.0
20
54375.0
11
78261.0
21
54438.0
0
LINE
8
BLACK
10
78261.0
20
54438.0
11
78225.0
21
54445.0
0
LINE
8
BLACK
10
78225.0
20
54445.0
11
78254.0
21
54445.0
0
LINE
8
BLACK
10
78254.0
20
54445.0
11
78447.0
21
54525.0
0
LINE
8
BLACK
10
78447.0
20
54525.0
11
78595.0
21
54672.0
0
LINE
8
BLACK
10
78595.0
20
54672.0
11
78675.0
21
54865.0
0
LINE
8
BLACK
10
78675.0
20
54865.0
11
78675.0
21
55074.0
0
LINE
8
BLACK
10
78675.0
20
55074.0
11
78595.0
21
55267.0
0
LINE
8
BLACK
10
78595.0
20
55267.0
11
78448.0
21
55415.0
0
LINE
8
BLACK
10
78448.0
20
55415.0
11
78314.0
21
55471.0
0
LINE
8
BLACK
10
78314.0
20
55471.0
11
78447.0
21
55525.0
0
LINE
8
BLACK
10
78447.0
20
55525.0
11
78595.0
21
55672.0
0
LINE
8
BLACK
10
78595.0
20
55672.0
11
78675.0
21
55865.0
0
LINE
8
BLACK
10
78675.0
20
55865.0
11
78675.0
21
56074.0
0
LINE
8
BLACK
10
78675.0
20
56074.0
11
78595.0
21
56267.0
0
LINE
8
BLACK
10
78595.0
20
56267.0
11
78467.0
21
56395.0
0
LINE
8
BLACK
10
78467.0
20
56395.0
11
79282.0
21
56395.0
0
LINE
8
BLACK
10
79282.0
20
56395.0
11
79251.0
21
56320.0
0
LINE
8
BLACK
10
79251.0
20
56320.0
11
79251.0
21
56221.0
0
LINE
8
BLACK
10
79251.0
20
56221.0
11
79250.0
21
56082.0
0
LINE
8
BLACK
10
79250.0
20
56082.0
11
79312.0
21
56020.0
0
LINE
8
BLACK
10
79312.0
20
56020.0
11
79700.0
21
56020.0
0
LINE
8
BLACK
10
79700.0
20
56020.0
11
79750.0
21
56020.0
0
LINE
8
BLACK
10
79750.0
20
56020.0
11
79850.0
21
56020.0
0
LINE
8
BLACK
10
79850.0
20
56020.0
11
79850.0
21
55920.0
0
LINE
8
BLACK
10
79850.0
20
55920.0
11
79850.0
21
55870.0
0
LINE
8
BLACK
10
79850.0
20
55870.0
11
79850.0
21
55482.0
0
LINE
8
BLACK
10
79850.0
20
55482.0
11
79912.0
21
55420.0
0
LINE
8
BLACK
10
79912.0
20
55420.0
11
80149.0
21
55421.0
0
LINE
8
BLACK
10
80149.0
20
55421.0
11
80241.0
21
55459.0
0
LINE
8
BLACK
10
80241.0
20
55459.0
11
80311.0
21
55529.0
0
LINE
8
BLACK
10
80311.0
20
55529.0
11
80349.0
21
55620.0
0
LINE
8
BLACK
10
80349.0
20
55620.0
11
80349.0
21
55645.0
0
LINE
8
BLACK
10
80349.0
20
55645.0
11
80489.0
21
55505.0
0
LINE
8
BLACK
10
80489.0
20
55505.0
11
80691.0
21
55421.0
0
LINE
8
BLACK
10
80691.0
20
55421.0
11
80909.0
21
55421.0
0
LINE
8
BLACK
10
80909.0
20
55421.0
11
81111.0
21
55505.0
0
LINE
8
BLACK
10
81111.0
20
55505.0
11
81218.0
21
55613.0
0
LINE
8
BLACK
10
81218.0
20
55613.0
11
81201.0
21
55570.0
0
LINE
8
BLACK
10
81201.0
20
55570.0
11
81200.0
21
55063.0
0
LINE
8
BLACK
10
81200.0
20
55063.0
11
81098.0
21
55165.0
0
LINE
8
BLACK
10
81098.0
20
55165.0
11
80905.0
21
55245.0
0
LINE
8
BLACK
10
80905.0
20
55245.0
11
80696.0
21
55245.0
0
LINE
8
BLACK
10
80696.0
20
55245.0
11
80503.0
21
55165.0
0
LINE
8
BLACK
10
80503.0
20
55165.0
11
80355.0
21
55018.0
0
LINE
8
BLACK
10
80355.0
20
55018.0
11
80299.0
21
54885.0
0
LINE
8
BLACK
10
80299.0
20
54885.0
11
80245.0
21
55017.0
0
LINE
8
BLACK
10
80245.0
20
55017.0
11
80098.0
21
55165.0
0
LINE
8
BLACK
10
80098.0
20
55165.0
11
79905.0
21
55245.0
0
LINE
8
BLACK
10
79905.0
20
55245.0
11
79750.0
21
55245.0
0
LINE
8
BLACK
10
79750.0
20
55245.0
11
79750.0
21
55482.0
0
LINE
8
BLACK
10
79750.0
20
55482.0
11
79750.0
21
55920.0
0
LINE
8
BLACK
10
79750.0
20
55920.0
11
79312.0
21
55920.0
0
LINE
8
BLACK
10
79312.0
20
55920.0
11
79250.0
21
55858.0
0
LINE
8
BLACK
10
79250.0
20
55858.0
11
79251.0
21
55719.0
0
LINE
8
BLACK
10
79251.0
20
55719.0
11
79251.0
21
55620.0
0
LINE
8
BLACK
10
79251.0
20
55620.0
11
79289.0
21
55529.0
0
LINE
8
BLACK
10
79289.0
20
55529.0
11
79359.0
21
55459.0
0
LINE
8
BLACK
10
79359.0
20
55459.0
11
79451.0
21
55421.0
0
LINE
8
BLACK
10
79451.0
20
55421.0
11
79688.0
21
55420.0
0
LINE
8
BLACK
10
79688.0
20
55420.0
11
79750.0
21
55482.0
0
LINE
8
BLACK
10
79750.0
20
55482.0
11
79750.0
21
55245.0
0
LINE
8
BLACK
10
79750.0
20
55245.0
11
79696.0
21
55245.0
0
LINE
8
BLACK
10
79696.0
20
55245.0
11
79503.0
21
55165.0
0
LINE
8
BLACK
10
79503.0
20
55165.0
11
79355.0
21
55018.0
0
LINE
8
BLACK
10
79355.0
20
55018.0
11
79275.0
21
54825.0
0
LINE
8
BLACK
10
79275.0
20
54825.0
11
79275.0
21
54616.0
0
LINE
8
BLACK
10
79275.0
20
54616.0
11
79355.0
21
54423.0
0
LINE
8
BLACK
10
79355.0
20
54423.0
11
79502.0
21
54275.0
0
LINE
8
BLACK
10
79502.0
20
54275.0
11
79695.0
21
54195.0
0
LINE
8
BLACK
10
79695.0
20
54195.0
11
79904.0
21
54195.0
0
LINE
8
BLACK
10
79904.0
20
54195.0
11
79911.0
21
54199.0
0
LINE
8
BLACK
10
79911.0
20
54199.0
11
80195.0
21
53915.0
0
LINE
8
BLACK
10
80195.0
20
53915.0
11
80289.0
21
53852.0
0
LINE
8
BLACK
10
80289.0
20
53852.0
11
80384.0
21
53834.0
0
LINE
8
BLACK
10
80384.0
20
53834.0
11
80285.0
21
53734.0
0
LINE
8
BLACK
10
80285.0
20
53734.0
11
80251.0
21
53655.0
0
LINE
8
BLACK
10
80251.0
20
53655.0
11
80132.0
21
53820.0
0
LINE
8
BLACK
10
80132.0
20
53820.0
11
79946.0
21
53935.0
0
LINE
8
BLACK
10
79946.0
20
53935.0
11
79887.0
21
53952.0
0
LINE
8
BLACK
10
79887.0
20
53952.0
11
79800.0
21
53905.0
0
LINE
8
BLACK
10
79800.0
20
53905.0
11
79800.0
21
53370.0
0
LINE
8
BLACK
10
79800.0
20
53370.0
11
79800.0
21
53320.0
0
LINE
8
BLACK
10
79800.0
20
53320.0
11
79800.0
21
53220.0
0
LINE
8
BLACK
10
79800.0
20
53220.0
11
79800.0
21
53170.0
0
LINE
8
BLACK
10
79800.0
20
53170.0
11
79800.0
21
52635.0
0
LINE
8
BLACK
10
79800.0
20
52635.0
11
79887.0
21
52588.0
0
LINE
8
BLACK
10
79887.0
20
52588.0
11
79946.0
21
52605.0
0
LINE
8
BLACK
10
79946.0
20
52605.0
11
80132.0
21
52720.0
0
LINE
8
BLACK
10
80132.0
20
52720.0
11
80251.0
21
52886.0
0
LINE
8
BLACK
10
80251.0
20
52886.0
11
80285.0
21
52806.0
0
LINE
8
BLACK
10
80285.0
20
52806.0
11
80439.0
21
52652.0
0
LINE
8
BLACK
10
80439.0
20
52652.0
11
80641.0
21
52568.0
0
LINE
8
BLACK
10
80641.0
20
52568.0
11
80859.0
21
52568.0
0
LINE
8
BLACK
10
80859.0
20
52568.0
11
81061.0
21
52652.0
0
LINE
8
BLACK
10
81061.0
20
52652.0
11
81215.0
21
52806.0
0
LINE
8
BLACK
10
81215.0
20
52806.0
11
81250.0
21
52891.0
0
LINE
8
BLACK
10
81250.0
20
52891.0
11
81285.0
21
52806.0
0
LINE
8
BLACK
10
81285.0
20
52806.0
11
81405.0
21
52686.0
0
LINE
8
BLACK
10
81405.0
20
52686.0
11
81065.0
21
52345.0
0
LINE
8
BLACK
10
81065.0
20
52345.0
11
80966.0
21
52345.0
0
LINE
8
BLACK
10
80966.0
20
52345.0
11
80810.0
21
52281.0
0
LINE
8
BLACK
10
80810.0
20
52281.0
11
80690.0
21
52161.0
0
LINE
8
BLACK
10
80690.0
20
52161.0
11
80625.0
21
52005.0
0
LINE
8
BLACK
10
80625.0
20
52005.0
11
80625.0
21
51836.0
0
LINE
8
BLACK
10
80625.0
20
51836.0
11
80689.0
21
51680.0
0
LINE
8
BLACK
10
80689.0
20
51680.0
11
80809.0
21
51560.0
0
LINE
8
BLACK
10
80809.0
20
51560.0
11
80965.0
21
51495.0
0
LINE
8
BLACK
10
80965.0
20
51495.0
11
81134.0
21
51495.0
0
LINE
8
BLACK
10
81134.0
20
51495.0
11
81290.0
21
51559.0
0
LINE
8
BLACK
10
81290.0
20
51559.0
11
81410.0
21
51679.0
0
LINE
8
BLACK
10
81410.0
20
51679.0
11
81475.0
21
51835.0
0
LINE
8
BLACK
10
81475.0
20
51835.0
11
81475.0
21
51935.0
0
LINE
8
BLACK
10
81475.0
20
51935.0
11
81954.0
21
52414.0
0
LINE
8
BLACK
10
81954.0
20
52414.0
11
81954.0
21
52415.0
0
LINE
8
BLACK
10
81954.0
20
52415.0
11
81955.0
21
52415.0
0
LINE
8
BLACK
10
81955.0
20
52415.0
11
82017.0
21
52508.0
0
LINE
8
BLACK
10
82017.0
20
52508.0
11
82018.0
21
52509.0
0
LINE
8
BLACK
10
82018.0
20
52509.0
11
82039.0
21
52619.0
0
LINE
8
BLACK
10
82039.0
20
52619.0
11
82040.0
21
52620.0
0
LINE
8
BLACK
10
82040.0
20
52620.0
11
82040.0
21
52644.0
0
LINE
8
BLACK
10
82040.0
20
52644.0
11
82061.0
21
52652.0
0
LINE
8
BLACK
10
82061.0
20
52652.0
11
82191.0
21
52782.0
0
LINE
8
BLACK
10
82191.0
20
52782.0
11
82191.0
21
52771.0
0
LINE
8
BLACK
10
82191.0
20
52771.0
11
82229.0
21
52679.0
0
LINE
8
BLACK
10
82229.0
20
52679.0
11
82299.0
21
52609.0
0
LINE
8
BLACK
10
82299.0
20
52609.0
11
82390.0
21
52571.0
0
LINE
8
BLACK
10
82390.0
20
52571.0
11
82489.0
21
52571.0
0
LINE
8
BLACK
10
82489.0
20
52571.0
11
83109.0
21
52571.0
0
LINE
8
BLACK
10
83109.0
20
52571.0
11
83201.0
21
52609.0
0
LINE
8
BLACK
10
83201.0
20
52609.0
11
83271.0
21
52679.0
0
LINE
8
BLACK
10
83271.0
20
52679.0
11
83309.0
21
52770.0
0
LINE
8
BLACK
10
83309.0
20
52770.0
11
83309.0
21
52869.0
0
LINE
8
BLACK
10
83309.0
20
52869.0
11
83309.0
21
53769.0
0
LINE
8
BLACK
10
83309.0
20
53769.0
11
83271.0
21
53861.0
0
LINE
8
BLACK
10
83271.0
20
53861.0
11
83255.0
21
53877.0
0
LINE
8
BLACK
10
83255.0
20
53877.0
11
83269.0
21
53883.0
0
LINE
8
BLACK
10
83269.0
20
53883.0
11
83825.0
21
53872.0
0
LINE
8
BLACK
10
83825.0
20
53872.0
11
83825.0
21
49166.0
0
LINE
8
BLACK
10
83825.0
20
49166.0
11
83551.0
21
49441.0
0
LINE
8
BLACK
10
83551.0
20
49441.0
11
83029.0
21
49657.0
0
LINE
8
BLACK
10
83029.0
20
49657.0
11
83132.0
21
49720.0
0
LINE
8
BLACK
10
83132.0
20
49720.0
11
83260.0
21
49897.0
0
LINE
8
BLACK
10
83260.0
20
49897.0
11
83310.0
21
50110.0
0
LINE
8
BLACK
10
83310.0
20
50110.0
11
83310.0
21
50220.0
0
LINE
8
BLACK
10
83310.0
20
50220.0
11
83310.0
21
50320.0
0
LINE
8
BLACK
10
83310.0
20
50320.0
11
83310.0
21
50430.0
0
LINE
8
BLACK
10
83310.0
20
50430.0
11
83260.0
21
50643.0
0
LINE
8
BLACK
10
83260.0
20
50643.0
11
83132.0
21
50820.0
0
LINE
8
BLACK
10
83132.0
20
50820.0
11
82946.0
21
50935.0
0
LINE
8
BLACK
10
82946.0
20
50935.0
11
82887.0
21
50952.0
0
LINE
8
BLACK
10
82887.0
20
50952.0
11
82800.0
21
50905.0
0
LINE
8
BLACK
10
82800.0
20
50905.0
11
82800.0
21
50320.0
0
LINE
8
BLACK
10
82800.0
20
50320.0
11
83310.0
21
50320.0
0
LINE
8
BLACK
10
83310.0
20
50320.0
11
83310.0
21
50220.0
0
LINE
8
BLACK
10
83310.0
20
50220.0
11
82850.0
21
50220.0
0
LINE
8
BLACK
10
82850.0
20
50220.0
11
82800.0
21
50220.0
0
LINE
8
BLACK
10
82800.0
20
50220.0
11
82700.0
21
50220.0
0
LINE
8
BLACK
10
82700.0
20
50220.0
11
82700.0
21
50320.0
0
LINE
8
BLACK
10
82700.0
20
50320.0
11
82700.0
21
50370.0
0
LINE
8
BLACK
10
82700.0
20
50370.0
11
82700.0
21
50905.0
0
LINE
8
BLACK
10
82700.0
20
50905.0
11
82613.0
21
50952.0
0
LINE
8
BLACK
10
82613.0
20
50952.0
11
82554.0
21
50935.0
0
LINE
8
BLACK
10
82554.0
20
50935.0
11
82368.0
21
50820.0
0
LINE
8
BLACK
10
82368.0
20
50820.0
11
82248.0
21
50655.0
0
LINE
8
BLACK
10
82248.0
20
50655.0
11
82215.0
21
50734.0
0
LINE
8
BLACK
10
82215.0
20
50734.0
11
82061.0
21
50888.0
0
LINE
8
BLACK
10
82061.0
20
50888.0
11
81859.0
21
50972.0
0
LINE
8
BLACK
10
81859.0
20
50972.0
11
81641.0
21
50972.0
0
LINE
8
BLACK
10
81641.0
20
50972.0
11
81439.0
21
50888.0
0
LINE
8
BLACK
10
81439.0
20
50888.0
11
81285.0
21
50734.0
0
LINE
8
BLACK
10
81285.0
20
50734.0
11
81250.0
21
50650.0
0
LINE
8
BLACK
10
81250.0
20
50650.0
11
81215.0
21
50734.0
0
LINE
8
BLACK
10
81215.0
20
50734.0
11
81061.0
21
50888.0
0
LINE
8
BLACK
10
81061.0
20
50888.0
11
80859.0
21
50972.0
0
LINE
8
BLACK
10
80859.0
20
50972.0
11
80641.0
21
50972.0
0
LINE
8
BLACK
10
80641.0
20
50972.0
11
80439.0
21
50888.0
0
LINE
8
BLACK
10
80439.0
20
50888.0
11
80285.0
21
50734.0
0
LINE
8
BLACK
10
80285.0
20
50734.0
11
80250.0
21
50650.0
0
LINE
8
BLACK
10
80250.0
20
50650.0
11
80215.0
21
50734.0
0
LINE
8
BLACK
10
80215.0
20
50734.0
11
80061.0
21
50888.0
0
LINE
8
BLACK
10
80061.0
20
50888.0
11
79859.0
21
50972.0
0
LINE
8
BLACK
10
79859.0
20
50972.0
11
79700.0
21
50972.0
0
LINE
8
BLACK
10
79700.0
20
50972.0
11
79700.0
21
52635.0
0
LINE
8
BLACK
10
79700.0
20
52635.0
11
79700.0
21
53220.0
0
LINE
8
BLACK
10
79700.0
20
53220.0
11
79700.0
21
53320.0
0
LINE
8
BLACK
10
79700.0
20
53320.0
11
79700.0
21
53905.0
0
LINE
8
BLACK
10
79700.0
20
53905.0
11
79613.0
21
53952.0
0
LINE
8
BLACK
10
79613.0
20
53952.0
11
79554.0
21
53935.0
0
LINE
8
BLACK
10
79554.0
20
53935.0
11
79368.0
21
53820.0
0
LINE
8
BLACK
10
79368.0
20
53820.0
11
79240.0
21
53643.0
0
LINE
8
BLACK
10
79240.0
20
53643.0
11
79190.0
21
53430.0
0
LINE
8
BLACK
10
79190.0
20
53430.0
11
79190.0
21
53320.0
0
LINE
8
BLACK
10
79190.0
20
53320.0
11
79700.0
21
53320.0
0
LINE
8
BLACK
10
79700.0
20
53320.0
11
79700.0
21
53220.0
0
LINE
8
BLACK
10
79700.0
20
53220.0
11
79190.0
21
53220.0
0
LINE
8
BLACK
10
79190.0
20
53220.0
11
79190.0
21
53110.0
0
LINE
8
BLACK
10
79190.0
20
53110.0
11
79240.0
21
52897.0
0
LINE
8
BLACK
10
79240.0
20
52897.0
11
79368.0
21
52720.0
0
LINE
8
BLACK
10
79368.0
20
52720.0
11
79554.0
21
52605.0
0
LINE
8
BLACK
10
79554.0
20
52605.0
11
79613.0
21
52588.0
0
LINE
8
BLACK
10
79613.0
20
52588.0
11
79700.0
21
52635.0
0
LINE
8
BLACK
10
79700.0
20
52635.0
11
79700.0
21
50972.0
0
LINE
8
BLACK
10
79700.0
20
50972.0
11
79641.0
21
50972.0
0
LINE
8
BLACK
10
79641.0
20
50972.0
11
79439.0
21
50888.0
0
LINE
8
BLACK
10
79439.0
20
50888.0
11
79285.0
21
50734.0
0
LINE
8
BLACK
10
79285.0
20
50734.0
11
79201.0
21
50532.0
0
LINE
8
BLACK
10
79201.0
20
50532.0
11
79201.0
21
50314.0
0
LINE
8
BLACK
10
79201.0
20
50314.0
11
79201.0
21
50008.0
0
LINE
8
BLACK
10
79201.0
20
50008.0
11
79283.0
21
49810.0
0
LINE
8
BLACK
10
79283.0
20
49810.0
11
78800.0
21
49810.0
0
LINE
8
BLACK
10
78800.0
20
49810.0
11
78689.0
21
49788.0
0
LINE
8
BLACK
10
78689.0
20
49788.0
11
78675.0
21
49779.0
0
LINE
8
BLACK
10
78675.0
20
49779.0
11
78675.0
21
50565.0
0
LINE
8
BLACK
10
78675.0
20
50565.0
11
78675.0
21
50774.0
0
LINE
8
BLACK
10
78675.0
20
50774.0
11
78595.0
21
50967.0
0
LINE
8
BLACK
10
78595.0
20
50967.0
11
78448.0
21
51115.0
0
LINE
8
BLACK
10
78448.0
20
51115.0
11
78314.0
21
51171.0
0
LINE
8
BLACK
10
78314.0
20
51171.0
11
78447.0
21
51225.0
0
LINE
8
BLACK
10
78447.0
20
51225.0
11
78595.0
21
51372.0
0
LINE
8
BLACK
10
78595.0
20
51372.0
11
78675.0
21
51565.0
0
LINE
8
BLACK
10
78675.0
20
51565.0
11
78675.0
21
51774.0
0
LINE
8
BLACK
10
78675.0
20
51774.0
11
78595.0
21
51967.0
0
LINE
8
BLACK
10
78595.0
20
51967.0
11
78448.0
21
52115.0
0
LINE
8
BLACK
10
78448.0
20
52115.0
11
78324.0
21
52167.0
0
LINE
8
BLACK
10
78324.0
20
52167.0
11
78324.0
21
52595.0
0
LINE
8
BLACK
10
78324.0
20
52595.0
11
78324.0
21
52694.0
0
LINE
8
BLACK
10
78324.0
20
52694.0
11
78324.0
21
53244.0
0
LINE
8
BLACK
10
78324.0
20
53244.0
11
78286.0
21
53336.0
0
LINE
8
BLACK
10
78286.0
20
53336.0
11
78216.0
21
53406.0
0
LINE
8
BLACK
10
78216.0
20
53406.0
11
78125.0
21
53444.0
0
LINE
8
BLACK
10
78125.0
20
53444.0
11
78026.0
21
53444.0
0
LINE
8
BLACK
10
78026.0
20
53444.0
11
77476.0
21
53444.0
0
LINE
8
BLACK
10
77476.0
20
53444.0
11
77384.0
21
53406.0
0
LINE
8
BLACK
10
77384.0
20
53406.0
11
77314.0
21
53336.0
0
LINE
8
BLACK
10
77314.0
20
53336.0
11
77276.0
21
53245.0
0
LINE
8
BLACK
10
77276.0
20
53245.0
11
77276.0
21
53146.0
0
LINE
8
BLACK
10
77276.0
20
53146.0
11
77276.0
21
53143.0
0
LINE
8
BLACK
10
77276.0
20
53143.0
11
77245.0
21
53217.0
0
LINE
8
BLACK
10
77245.0
20
53217.0
11
77098.0
21
53365.0
0
LINE
8
BLACK
10
77098.0
20
53365.0
11
76905.0
21
53445.0
0
LINE
8
BLACK
10
76905.0
20
53445.0
11
76696.0
21
53445.0
0
LINE
8
BLACK
10
76696.0
20
53445.0
11
76503.0
21
53365.0
0
LINE
8
BLACK
10
76503.0
20
53365.0
11
76355.0
21
53218.0
0
LINE
8
BLACK
10
76355.0
20
53218.0
11
76275.0
21
53025.0
0
LINE
8
BLACK
10
76275.0
20
53025.0
11
76275.0
21
52816.0
0
LINE
8
BLACK
10
76275.0
20
52816.0
11
76355.0
21
52623.0
0
LINE
8
BLACK
10
76355.0
20
52623.0
11
76502.0
21
52475.0
0
LINE
8
BLACK
10
76502.0
20
52475.0
11
76635.0
21
52420.0
0
LINE
8
BLACK
10
76635.0
20
52420.0
11
76503.0
21
52365.0
0
LINE
8
BLACK
10
76503.0
20
52365.0
11
76355.0
21
52218.0
0
LINE
8
BLACK
10
76355.0
20
52218.0
11
76275.0
21
52025.0
0
LINE
8
BLACK
10
76275.0
20
52025.0
11
76275.0
21
51816.0
0
LINE
8
BLACK
10
76275.0
20
51816.0
11
76355.0
21
51623.0
0
LINE
8
BLACK
10
76355.0
20
51623.0
11
76502.0
21
51475.0
0
LINE
8
BLACK
10
76502.0
20
51475.0
11
76695.0
21
51395.0
0
LINE
8
BLACK
10
76695.0
20
51395.0
11
76904.0
21
51395.0
0
LINE
8
BLACK
10
76904.0
20
51395.0
11
77097.0
21
51475.0
0
LINE
8
BLACK
10
77097.0
20
51475.0
11
77245.0
21
51622.0
0
LINE
8
BLACK
10
77245.0
20
51622.0
11
77325.0
21
51815.0
0
LINE
8
BLACK
10
77325.0
20
51815.0
11
77325.0
21
52024.0
0
LINE
8
BLACK
10
77325.0
20
52024.0
11
77245.0
21
52217.0
0
LINE
8
BLACK
10
77245.0
20
52217.0
11
77098.0
21
52365.0
0
LINE
8
BLACK
10
77098.0
20
52365.0
11
76964.0
21
52421.0
0
LINE
8
BLACK
10
76964.0
20
52421.0
11
77097.0
21
52475.0
0
LINE
8
BLACK
10
77097.0
20
52475.0
11
77245.0
21
52622.0
0
LINE
8
BLACK
10
77245.0
20
52622.0
11
77276.0
21
52697.0
0
LINE
8
BLACK
10
77276.0
20
52697.0
11
77276.0
21
52596.0
0
LINE
8
BLACK
10
77276.0
20
52596.0
11
77314.0
21
52504.0
0
LINE
8
BLACK
10
77314.0
20
52504.0
11
77384.0
21
52434.0
0
LINE
8
BLACK
10
77384.0
20
52434.0
11
77475.0
21
52396.0
0
LINE
8
BLACK
10
77475.0
20
52396.0
11
77574.0
21
52396.0
0
LINE
8
BLACK
10
77574.0
20
52396.0
11
78124.0
21
52396.0
0
LINE
8
BLACK
10
78124.0
20
52396.0
11
78216.0
21
52434.0
0
LINE
8
BLACK
10
78216.0
20
52434.0
11
78286.0
21
52504.0
0
LINE
8
BLACK
10
78286.0
20
52504.0
11
78324.0
21
52595.0
0
LINE
8
BLACK
10
78324.0
20
52595.0
11
78324.0
21
52167.0
0
LINE
8
BLACK
10
78324.0
20
52167.0
11
78255.0
21
52195.0
0
LINE
8
BLACK
10
78255.0
20
52195.0
11
78046.0
21
52195.0
0
LINE
8
BLACK
10
78046.0
20
52195.0
11
77853.0
21
52115.0
0
LINE
8
BLACK
10
77853.0
20
52115.0
11
77705.0
21
51968.0
0
LINE
8
BLACK
10
77705.0
20
51968.0
11
77625.0
21
51775.0
0
LINE
8
BLACK
10
77625.0
20
51775.0
11
77625.0
21
51566.0
0
LINE
8
BLACK
10
77625.0
20
51566.0
11
77705.0
21
51373.0
0
LINE
8
BLACK
10
77705.0
20
51373.0
11
77852.0
21
51225.0
0
LINE
8
BLACK
10
77852.0
20
51225.0
11
77985.0
21
51170.0
0
LINE
8
BLACK
10
77985.0
20
51170.0
11
77853.0
21
51115.0
0
LINE
8
BLACK
10
77853.0
20
51115.0
11
77705.0
21
50968.0
0
LINE
8
BLACK
10
77705.0
20
50968.0
11
77674.0
21
50894.0
0
LINE
8
BLACK
10
77674.0
20
50894.0
11
77674.0
21
50994.0
0
LINE
8
BLACK
10
77674.0
20
50994.0
11
77636.0
21
51086.0
0
LINE
8
BLACK
10
77636.0
20
51086.0
11
77566.0
21
51156.0
0
LINE
8
BLACK
10
77566.0
20
51156.0
11
77475.0
21
51194.0
0
LINE
8
BLACK
10
77475.0
20
51194.0
11
77376.0
21
51194.0
0
LINE
8
BLACK
10
77376.0
20
51194.0
11
76826.0
21
51194.0
0
LINE
8
BLACK
10
76826.0
20
51194.0
11
76734.0
21
51156.0
0
LINE
8
BLACK
10
76734.0
20
51156.0
11
76724.0
21
51147.0
0
LINE
8
BLACK
10
76724.0
20
51147.0
11
76695.0
21
51217.0
0
LINE
8
BLACK
10
76695.0
20
51217.0
11
76548.0
21
51365.0
0
LINE
8
BLACK
10
76548.0
20
51365.0
11
76355.0
21
51445.0
0
LINE
8
BLACK
10
76355.0
20
51445.0
11
76146.0
21
51445.0
0
LINE
8
BLACK
10
76146.0
20
51445.0
11
75953.0
21
51365.0
0
LINE
8
BLACK
10
75953.0
20
51365.0
11
75825.0
21
51238.0
0
LINE
8
BLACK
10
75825.0
20
51238.0
11
75825.0
21
52215.0
0
LINE
8
BLACK
10
75825.0
20
52215.0
11
75825.0
21
52424.0
0
LINE
8
BLACK
10
75825.0
20
52424.0
11
75745.0
21
52617.0
0
LINE
8
BLACK
10
75745.0
20
52617.0
11
75598.0
21
52765.0
0
LINE
8
BLACK
10
75598.0
20
52765.0
11
75439.0
21
52831.0
0
LINE
8
BLACK
10
75439.0
20
52831.0
11
75547.0
21
52875.0
0
LINE
8
BLACK
10
75547.0
20
52875.0
11
75695.0
21
53022.0
0
LINE
8
BLACK
10
75695.0
20
53022.0
11
75775.0
21
53215.0
0
LINE
8
BLACK
10
75775.0
20
53215.0
11
75775.0
21
53424.0
0
LINE
8
BLACK
10
75775.0
20
53424.0
11
75695.0
21
53617.0
0
LINE
8
BLACK
10
75695.0
20
53617.0
11
75548.0
21
53765.0
0
LINE
8
BLACK
10
75548.0
20
53765.0
11
75355.0
21
53845.0
0
LINE
8
BLACK
10
75355.0
20
53845.0
11
75146.0
21
53845.0
0
LINE
8
BLACK
10
75146.0
20
53845.0
11
74953.0
21
53765.0
0
LINE
8
BLACK
10
74953.0
20
53765.0
11
74805.0
21
53618.0
0
LINE
8
BLACK
10
74805.0
20
53618.0
11
74725.0
21
53425.0
0
LINE
8
BLACK
10
74725.0
20
53425.0
11
74725.0
21
53216.0
0
LINE
8
BLACK
10
74725.0
20
53216.0
11
74805.0
21
53023.0
0
LINE
8
BLACK
10
74805.0
20
53023.0
11
74952.0
21
52875.0
0
LINE
8
BLACK
10
74952.0
20
52875.0
11
75110.0
21
52810.0
0
LINE
8
BLACK
10
75110.0
20
52810.0
11
75003.0
21
52765.0
0
LINE
8
BLACK
10
75003.0
20
52765.0
11
74855.0
21
52618.0
0
LINE
8
BLACK
10
74855.0
20
52618.0
11
74775.0
21
52425.0
0
LINE
8
BLACK
10
74775.0
20
52425.0
11
74775.0
21
52216.0
0
LINE
8
BLACK
10
74775.0
20
52216.0
11
74855.0
21
52023.0
0
LINE
8
BLACK
10
74855.0
20
52023.0
11
75002.0
21
51875.0
0
LINE
8
BLACK
10
75002.0
20
51875.0
11
75195.0
21
51795.0
0
LINE
8
BLACK
10
75195.0
20
51795.0
11
75404.0
21
51795.0
0
LINE
8
BLACK
10
75404.0
20
51795.0
11
75597.0
21
51875.0
0
LINE
8
BLACK
10
75597.0
20
51875.0
11
75745.0
21
52022.0
0
LINE
8
BLACK
10
75745.0
20
52022.0
11
75825.0
21
52215.0
0
LINE
8
BLACK
10
75825.0
20
52215.0
11
75825.0
21
51238.0
0
LINE
8
BLACK
10
75825.0
20
51238.0
11
75805.0
21
51218.0
0
LINE
8
BLACK
10
75805.0
20
51218.0
11
75725.0
21
51025.0
0
LINE
8
BLACK
10
75725.0
20
51025.0
11
75725.0
21
50816.0
0
LINE
8
BLACK
10
75725.0
20
50816.0
11
75805.0
21
50623.0
0
LINE
8
BLACK
10
75805.0
20
50623.0
11
75952.0
21
50475.0
0
LINE
8
BLACK
10
75952.0
20
50475.0
11
76145.0
21
50395.0
0
LINE
8
BLACK
10
76145.0
20
50395.0
11
75953.0
21
50315.0
0
LINE
8
BLACK
10
75953.0
20
50315.0
11
75805.0
21
50168.0
0
LINE
8
BLACK
10
75805.0
20
50168.0
11
75725.0
21
49975.0
0
LINE
8
BLACK
10
75725.0
20
49975.0
11
75725.0
21
49766.0
0
LINE
8
BLACK
10
75725.0
20
49766.0
11
75805.0
21
49573.0
0
LINE
8
BLACK
10
75805.0
20
49573.0
11
75952.0
21
49425.0
0
LINE
8
BLACK
10
75952.0
20
49425.0
11
76145.0
21
49345.0
0
LINE
8
BLACK
10
76145.0
20
49345.0
11
76354.0
21
49345.0
0
LINE
8
BLACK
10
76354.0
20
49345.0
11
76547.0
21
49425.0
0
LINE
8
BLACK
10
76547.0
20
49425.0
11
76695.0
21
49572.0
0
LINE
8
BLACK
10
76695.0
20
49572.0
11
76775.0
21
49765.0
0
LINE
8
BLACK
10
76775.0
20
49765.0
11
76775.0
21
49974.0
0
LINE
8
BLACK
10
76775.0
20
49974.0
11
76695.0
21
50167.0
0
LINE
8
BLACK
10
76695.0
20
50167.0
11
76548.0
21
50315.0
0
LINE
8
BLACK
10
76548.0
20
50315.0
11
76355.0
21
50395.0
0
LINE
8
BLACK
10
76355.0
20
50395.0
11
76354.0
21
50395.0
0
LINE
8
BLACK
10
76354.0
20
50395.0
11
76547.0
21
50475.0
0
LINE
8
BLACK
10
76547.0
20
50475.0
11
76626.0
21
50554.0
0
LINE
8
BLACK
10
76626.0
20
50554.0
11
76626.0
21
50346.0
0
LINE
8
BLACK
10
76626.0
20
50346.0
11
76664.0
21
50254.0
0
LINE
8
BLACK
10
76664.0
20
50254.0
11
76734.0
21
50184.0
0
LINE
8
BLACK
10
76734.0
20
50184.0
11
76825.0
21
50146.0
0
LINE
8
BLACK
10
76825.0
20
50146.0
11
76924.0
21
50146.0
0
LINE
8
BLACK
10
76924.0
20
50146.0
11
77474.0
21
50146.0
0
LINE
8
BLACK
10
77474.0
20
50146.0
11
77566.0
21
50184.0
0
LINE
8
BLACK
10
77566.0
20
50184.0
11
77636.0
21
50254.0
0
LINE
8
BLACK
10
77636.0
20
50254.0
11
77674.0
21
50345.0
0
LINE
8
BLACK
10
77674.0
20
50345.0
11
77674.0
21
50444.0
0
LINE
8
BLACK
10
77674.0
20
50444.0
11
77674.0
21
50448.0
0
LINE
8
BLACK
10
77674.0
20
50448.0
11
77705.0
21
50373.0
0
LINE
8
BLACK
10
77705.0
20
50373.0
11
77852.0
21
50225.0
0
LINE
8
BLACK
10
77852.0
20
50225.0
11
78045.0
21
50145.0
0
LINE
8
BLACK
10
78045.0
20
50145.0
11
78254.0
21
50145.0
0
LINE
8
BLACK
10
78254.0
20
50145.0
11
78447.0
21
50225.0
0
LINE
8
BLACK
10
78447.0
20
50225.0
11
78595.0
21
50372.0
0
LINE
8
BLACK
10
78595.0
20
50372.0
11
78675.0
21
50565.0
0
LINE
8
BLACK
10
78675.0
20
50565.0
11
78675.0
21
49779.0
0
LINE
8
BLACK
10
78675.0
20
49779.0
11
78595.0
21
49725.0
0
LINE
8
BLACK
10
78595.0
20
49725.0
11
78532.0
21
49631.0
0
LINE
8
BLACK
10
78532.0
20
49631.0
11
78510.0
21
49520.0
0
LINE
8
BLACK
10
78510.0
20
49520.0
11
78510.0
21
47969.0
0
LINE
8
BLACK
10
78510.0
20
47969.0
11
78451.0
21
47969.0
0
LINE
8
BLACK
10
78451.0
20
47969.0
11
78359.0
21
47931.0
0
LINE
8
BLACK
10
78359.0
20
47931.0
11
78289.0
21
47861.0
0
LINE
8
BLACK
10
78289.0
20
47861.0
11
78251.0
21
47770.0
0
LINE
8
BLACK
10
78251.0
20
47770.0
11
78251.0
21
47671.0
0
LINE
8
BLACK
10
78251.0
20
47671.0
11
78251.0
21
47071.0
0
LINE
8
BLACK
10
78251.0
20
47071.0
11
78261.0
21
47045.0
0
LINE
8
BLACK
10
78261.0
20
47045.0
11
77217.0
21
47045.0
0
LINE
8
BLACK
10
77217.0
20
47045.0
11
77345.0
21
47172.0
0
LINE
8
BLACK
10
77345.0
20
47172.0
11
77425.0
21
47365.0
0
LINE
8
BLACK
10
77425.0
20
47365.0
11
77425.0
21
47574.0
0
LINE
8
BLACK
10
77425.0
20
47574.0
11
77345.0
21
47767.0
0
LINE
8
BLACK
10
77345.0
20
47767.0
11
77198.0
21
47915.0
0
LINE
8
BLACK
10
77198.0
20
47915.0
11
77064.0
21
47971.0
0
LINE
8
BLACK
10
77064.0
20
47971.0
11
77197.0
21
48025.0
0
LINE
8
BLACK
10
77197.0
20
48025.0
11
77345.0
21
48172.0
0
LINE
8
BLACK
10
77345.0
20
48172.0
11
77376.0
21
48247.0
0
LINE
8
BLACK
10
77376.0
20
48247.0
11
77376.0
21
48146.0
0
LINE
8
BLACK
10
77376.0
20
48146.0
11
77414.0
21
48054.0
0
LINE
8
BLACK
10
77414.0
20
48054.0
11
77484.0
21
47984.0
0
LINE
8
BLACK
10
77484.0
20
47984.0
11
77575.0
21
47946.0
0
LINE
8
BLACK
10
77575.0
20
47946.0
11
77674.0
21
47946.0
0
LINE
8
BLACK
10
77674.0
20
47946.0
11
78224.0
21
47946.0
0
LINE
8
BLACK
10
78224.0
20
47946.0
11
78316.0
21
47984.0
0
LINE
8
BLACK
10
78316.0
20
47984.0
11
78386.0
21
48054.0
0
LINE
8
BLACK
10
78386.0
20
48054.0
11
78424.0
21
48145.0
0
LINE
8
BLACK
10
78424.0
20
48145.0
11
78424.0
21
48244.0
0
LINE
8
BLACK
10
78424.0
20
48244.0
11
78424.0
21
48794.0
0
LINE
8
BLACK
10
78424.0
20
48794.0
11
78386.0
21
48886.0
0
LINE
8
BLACK
10
78386.0
20
48886.0
11
78316.0
21
48956.0
0
LINE
8
BLACK
10
78316.0
20
48956.0
11
78225.0
21
48994.0
0
LINE
8
BLACK
10
78225.0
20
48994.0
11
78126.0
21
48994.0
0
LINE
8
BLACK
10
78126.0
20
48994.0
11
77576.0
21
48994.0
0
LINE
8
BLACK
10
77576.0
20
48994.0
11
77484.0
21
48956.0
0
LINE
8
BLACK
10
77484.0
20
48956.0
11
77414.0
21
48886.0
0
LINE
8
BLACK
10
77414.0
20
48886.0
11
77376.0
21
48795.0
0
LINE
8
BLACK
10
77376.0
20
48795.0
11
77376.0
21
48696.0
0
LINE
8
BLACK
10
77376.0
20
48696.0
11
77376.0
21
48693.0
0
LINE
8
BLACK
10
77376.0
20
48693.0
11
77345.0
21
48767.0
0
LINE
8
BLACK
10
77345.0
20
48767.0
11
77198.0
21
48915.0
0
LINE
8
BLACK
10
77198.0
20
48915.0
11
77005.0
21
48995.0
0
LINE
8
BLACK
10
77005.0
20
48995.0
11
76796.0
21
48995.0
0
LINE
8
BLACK
10
76796.0
20
48995.0
11
76603.0
21
48915.0
0
LINE
8
BLACK
10
76603.0
20
48915.0
11
76455.0
21
48768.0
0
LINE
8
BLACK
10
76455.0
20
48768.0
11
76375.0
21
48575.0
0
LINE
8
BLACK
10
76375.0
20
48575.0
11
76375.0
21
48366.0
0
LINE
8
BLACK
10
76375.0
20
48366.0
11
76455.0
21
48173.0
0
LINE
8
BLACK
10
76455.0
20
48173.0
11
76602.0
21
48025.0
0
LINE
8
BLACK
10
76602.0
20
48025.0
11
76735.0
21
47970.0
0
LINE
8
BLACK
10
76735.0
20
47970.0
11
76603.0
21
47915.0
0
LINE
8
BLACK
10
76603.0
20
47915.0
11
76455.0
21
47768.0
0
LINE
8
BLACK
10
76455.0
20
47768.0
11
76375.0
21
47575.0
0
LINE
8
BLACK
10
76375.0
20
47575.0
11
76375.0
21
47366.0
0
LINE
8
BLACK
10
76375.0
20
47366.0
11
76455.0
21
47173.0
0
LINE
8
BLACK
10
76455.0
20
47173.0
11
76582.0
21
47045.0
0
LINE
8
BLACK
10
76582.0
20
47045.0
11
75767.0
21
47045.0
0
LINE
8
BLACK
10
75767.0
20
47045.0
11
75895.0
21
47172.0
0
LINE
8
BLACK
10
75895.0
20
47172.0
11
75975.0
21
47365.0
0
LINE
8
BLACK
10
75975.0
20
47365.0
11
75975.0
21
47574.0
0
LINE
8
BLACK
10
75975.0
20
47574.0
11
75895.0
21
47767.0
0
LINE
8
BLACK
10
75895.0
20
47767.0
11
75748.0
21
47915.0
0
LINE
8
BLACK
10
75748.0
20
47915.0
11
75555.0
21
47995.0
0
LINE
8
BLACK
10
75555.0
20
47995.0
11
75554.0
21
47995.0
0
LINE
8
BLACK
10
75554.0
20
47995.0
11
75747.0
21
48075.0
0
LINE
8
BLACK
10
75747.0
20
48075.0
11
75895.0
21
48222.0
0
LINE
8
BLACK
10
75895.0
20
48222.0
11
75975.0
21
48415.0
0
LINE
8
BLACK
10
75975.0
20
48415.0
11
75975.0
21
48624.0
0
LINE
8
BLACK
10
75975.0
20
48624.0
11
75895.0
21
48817.0
0
LINE
8
BLACK
10
75895.0
20
48817.0
11
75748.0
21
48965.0
0
LINE
8
BLACK
10
75748.0
20
48965.0
11
75555.0
21
49045.0
0
LINE
8
BLACK
10
75555.0
20
49045.0
11
75346.0
21
49045.0
0
LINE
8
BLACK
10
75346.0
20
49045.0
11
75153.0
21
48965.0
0
LINE
8
BLACK
10
75153.0
20
48965.0
11
75005.0
21
48818.0
0
LINE
8
BLACK
10
75005.0
20
48818.0
11
74925.0
21
48625.0
0
LINE
8
BLACK
10
74925.0
20
48625.0
11
74925.0
21
48416.0
0
LINE
8
BLACK
10
74925.0
20
48416.0
11
75005.0
21
48223.0
0
LINE
8
BLACK
10
75005.0
20
48223.0
11
75152.0
21
48075.0
0
LINE
8
BLACK
10
75152.0
20
48075.0
11
75345.0
21
47995.0
0
LINE
8
BLACK
10
75345.0
20
47995.0
11
75153.0
21
47915.0
0
LINE
8
BLACK
10
75153.0
20
47915.0
11
75005.0
21
47768.0
0
LINE
8
BLACK
10
75005.0
20
47768.0
11
74925.0
21
47575.0
0
LINE
8
BLACK
10
74925.0
20
47575.0
11
74925.0
21
47366.0
0
LINE
8
BLACK
10
74925.0
20
47366.0
11
75005.0
21
47173.0
0
LINE
8
BLACK
10
75005.0
20
47173.0
11
75132.0
21
47045.0
0
LINE
8
BLACK
10
75132.0
20
47045.0
11
73775.0
21
47045.0
0
LINE
8
BLACK
10
73775.0
20
47045.0
11
73775.0
21
49765.0
0
LINE
8
BLACK
10
73775.0
20
49765.0
11
73775.0
21
49974.0
0
LINE
8
BLACK
10
73775.0
20
49974.0
11
73695.0
21
50167.0
0
LINE
8
BLACK
10
73695.0
20
50167.0
11
73548.0
21
50315.0
0
LINE
8
BLACK
10
73548.0
20
50315.0
11
73355.0
21
50395.0
0
LINE
8
BLACK
10
73355.0
20
50395.0
11
73354.0
21
50395.0
0
LINE
8
BLACK
10
73354.0
20
50395.0
11
73547.0
21
50475.0
0
LINE
8
BLACK
10
73547.0
20
50475.0
11
73695.0
21
50622.0
0
LINE
8
BLACK
10
73695.0
20
50622.0
11
73775.0
21
50815.0
0
LINE
8
BLACK
10
73775.0
20
50815.0
11
73775.0
21
51024.0
0
LINE
8
BLACK
10
73775.0
20
51024.0
11
73695.0
21
51217.0
0
LINE
8
BLACK
10
73695.0
20
51217.0
11
73548.0
21
51365.0
0
LINE
8
BLACK
10
73548.0
20
51365.0
11
73355.0
21
51445.0
0
LINE
8
BLACK
10
73355.0
20
51445.0
11
73146.0
21
51445.0
0
LINE
8
BLACK
10
73146.0
20
51445.0
11
72953.0
21
51365.0
0
LINE
8
BLACK
10
72953.0
20
51365.0
11
72825.0
21
51238.0
0
LINE
8
BLACK
10
72825.0
20
51238.0
11
72825.0
21
52215.0
0
LINE
8
BLACK
10
72825.0
20
52215.0
11
72825.0
21
52424.0
0
LINE
8
BLACK
10
72825.0
20
52424.0
11
72745.0
21
52617.0
0
LINE
8
BLACK
10
72745.0
20
52617.0
11
72598.0
21
52765.0
0
LINE
8
BLACK
10
72598.0
20
52765.0
11
72439.0
21
52831.0
0
LINE
8
BLACK
10
72439.0
20
52831.0
11
72547.0
21
52875.0
0
LINE
8
BLACK
10
72547.0
20
52875.0
11
72695.0
21
53022.0
0
LINE
8
BLACK
10
72695.0
20
53022.0
11
72775.0
21
53215.0
0
LINE
8
BLACK
10
72775.0
20
53215.0
11
72775.0
21
53424.0
0
LINE
8
BLACK
10
72775.0
20
53424.0
11
72695.0
21
53617.0
0
LINE
8
BLACK
10
72695.0
20
53617.0
11
72548.0
21
53765.0
0
LINE
8
BLACK
10
72548.0
20
53765.0
11
72355.0
21
53845.0
0
LINE
8
BLACK
10
72355.0
20
53845.0
11
72146.0
21
53845.0
0
LINE
8
BLACK
10
72146.0
20
53845.0
11
71953.0
21
53765.0
0
LINE
8
BLACK
10
71953.0
20
53765.0
11
71805.0
21
53618.0
0
LINE
8
BLACK
10
71805.0
20
53618.0
11
71725.0
21
53425.0
0
LINE
8
BLACK
10
71725.0
20
53425.0
11
71725.0
21
53216.0
0
LINE
8
BLACK
10
71725.0
20
53216.0
11
71805.0
21
53023.0
0
LINE
8
BLACK
10
71805.0
20
53023.0
11
71952.0
21
52875.0
0
LINE
8
BLACK
10
71952.0
20
52875.0
11
72110.0
21
52810.0
0
LINE
8
BLACK
10
72110.0
20
52810.0
11
72003.0
21
52765.0
0
LINE
8
BLACK
10
72003.0
20
52765.0
11
71855.0
21
52618.0
0
LINE
8
BLACK
10
71855.0
20
52618.0
11
71775.0
21
52425.0
0
LINE
8
BLACK
10
71775.0
20
52425.0
11
71775.0
21
52216.0
0
LINE
8
BLACK
10
71775.0
20
52216.0
11
71855.0
21
52023.0
0
LINE
8
BLACK
10
71855.0
20
52023.0
11
72002.0
21
51875.0
0
LINE
8
BLACK
10
72002.0
20
51875.0
11
72195.0
21
51795.0
0
LINE
8
BLACK
10
72195.0
20
51795.0
11
72404.0
21
51795.0
0
LINE
8
BLACK
10
72404.0
20
51795.0
11
72597.0
21
51875.0
0
LINE
8
BLACK
10
72597.0
20
51875.0
11
72745.0
21
52022.0
0
LINE
8
BLACK
10
72745.0
20
52022.0
11
72825.0
21
52215.0
0
LINE
8
BLACK
10
72825.0
20
52215.0
11
72825.0
21
51238.0
0
LINE
8
BLACK
10
72825.0
20
51238.0
11
72805.0
21
51218.0
0
LINE
8
BLACK
10
72805.0
20
51218.0
11
72725.0
21
51025.0
0
LINE
8
BLACK
10
72725.0
20
51025.0
11
72725.0
21
50816.0
0
LINE
8
BLACK
10
72725.0
20
50816.0
11
72805.0
21
50623.0
0
LINE
8
BLACK
10
72805.0
20
50623.0
11
72952.0
21
50475.0
0
LINE
8
BLACK
10
72952.0
20
50475.0
11
73145.0
21
50395.0
0
LINE
8
BLACK
10
73145.0
20
50395.0
11
72953.0
21
50315.0
0
LINE
8
BLACK
10
72953.0
20
50315.0
11
72805.0
21
50168.0
0
LINE
8
BLACK
10
72805.0
20
50168.0
11
72780.0
21
50108.0
0
LINE
8
BLACK
10
72780.0
20
50108.0
11
72780.0
21
50304.0
0
LINE
8
BLACK
10
72780.0
20
50304.0
11
72780.0
21
50535.0
0
LINE
8
BLACK
10
72780.0
20
50535.0
11
72692.0
21
50748.0
0
LINE
8
BLACK
10
72692.0
20
50748.0
11
72529.0
21
50911.0
0
LINE
8
BLACK
10
72529.0
20
50911.0
11
72316.0
21
51000.0
0
LINE
8
BLACK
10
72316.0
20
51000.0
11
72085.0
21
51000.0
0
LINE
8
BLACK
10
72085.0
20
51000.0
11
71872.0
21
50912.0
0
LINE
8
BLACK
10
71872.0
20
50912.0
11
71709.0
21
50749.0
0
LINE
8
BLACK
10
71709.0
20
50749.0
11
71700.0
21
50729.0
0
LINE
8
BLACK
10
71700.0
20
50729.0
11
71692.0
21
50748.0
0
LINE
8
BLACK
10
71692.0
20
50748.0
11
71630.0
21
50810.0
0
LINE
8
BLACK
10
71630.0
20
50810.0
11
71630.0
21
52654.0
0
LINE
8
BLACK
10
71630.0
20
52654.0
11
71630.0
21
52885.0
0
LINE
8
BLACK
10
71630.0
20
52885.0
11
71542.0
21
53098.0
0
LINE
8
BLACK
10
71542.0
20
53098.0
11
71379.0
21
53261.0
0
LINE
8
BLACK
10
71379.0
20
53261.0
11
71166.0
21
53350.0
0
LINE
8
BLACK
10
71166.0
20
53350.0
11
70935.0
21
53350.0
0
LINE
8
BLACK
10
70935.0
20
53350.0
11
70722.0
21
53262.0
0
LINE
8
BLACK
10
70722.0
20
53262.0
11
70559.0
21
53099.0
0
LINE
8
BLACK
10
70559.0
20
53099.0
11
70550.0
21
53079.0
0
LINE
8
BLACK
10
70550.0
20
53079.0
11
70542.0
21
53098.0
0
LINE
8
BLACK
10
70542.0
20
53098.0
11
70379.0
21
53261.0
0
LINE
8
BLACK
10
70379.0
20
53261.0
11
70280.0
21
53303.0
0
LINE
8
BLACK
10
70280.0
20
53303.0
11
70280.0
21
55004.0
0
LINE
8
BLACK
10
70280.0
20
55004.0
11
70280.0
21
55235.0
0
LINE
8
BLACK
10
70280.0
20
55235.0
11
70192.0
21
55448.0
0
LINE
8
BLACK
10
70192.0
20
55448.0
11
70029.0
21
55611.0
0
LINE
8
BLACK
10
70029.0
20
55611.0
11
69816.0
21
55700.0
0
LINE
8
BLACK
10
69816.0
20
55700.0
11
69585.0
21
55700.0
0
LINE
8
BLACK
10
69585.0
20
55700.0
11
69372.0
21
55612.0
0
LINE
8
BLACK
10
69372.0
20
55612.0
11
69209.0
21
55449.0
0
LINE
8
BLACK
10
69209.0
20
55449.0
11
69200.0
21
55429.0
0
LINE
8
BLACK
10
69200.0
20
55429.0
11
69192.0
21
55448.0
0
LINE
8
BLACK
10
69192.0
20
55448.0
11
69029.0
21
55611.0
0
LINE
8
BLACK
10
69029.0
20
55611.0
11
68816.0
21
55700.0
0
LINE
8
BLACK
10
68816.0
20
55700.0
11
68585.0
21
55700.0
0
LINE
8
BLACK
10
68585.0
20
55700.0
11
68372.0
21
55612.0
0
LINE
8
BLACK
10
68372.0
20
55612.0
11
68209.0
21
55449.0
0
LINE
8
BLACK
10
68209.0
20
55449.0
11
68120.0
21
55236.0
0
LINE
8
BLACK
10
68120.0
20
55236.0
11
68120.0
21
55005.0
0
LINE
8
BLACK
10
68120.0
20
55005.0
11
68208.0
21
54792.0
0
LINE
8
BLACK
10
68208.0
20
54792.0
11
68371.0
21
54629.0
0
LINE
8
BLACK
10
68371.0
20
54629.0
11
68584.0
21
54540.0
0
LINE
8
BLACK
10
68584.0
20
54540.0
11
68815.0
21
54540.0
0
LINE
8
BLACK
10
68815.0
20
54540.0
11
69028.0
21
54628.0
0
LINE
8
BLACK
10
69028.0
20
54628.0
11
69191.0
21
54791.0
0
LINE
8
BLACK
10
69191.0
20
54791.0
11
69199.0
21
54812.0
0
LINE
8
BLACK
10
69199.0
20
54812.0
11
69208.0
21
54792.0
0
LINE
8
BLACK
10
69208.0
20
54792.0
11
69371.0
21
54629.0
0
LINE
8
BLACK
10
69371.0
20
54629.0
11
69584.0
21
54540.0
0
LINE
8
BLACK
10
69584.0
20
54540.0
11
69815.0
21
54540.0
0
LINE
8
BLACK
10
69815.0
20
54540.0
11
70028.0
21
54628.0
0
LINE
8
BLACK
10
70028.0
20
54628.0
11
70191.0
21
54791.0
0
LINE
8
BLACK
10
70191.0
20
54791.0
11
70280.0
21
55004.0
0
LINE
8
BLACK
10
70280.0
20
55004.0
11
70280.0
21
53303.0
0
LINE
8
BLACK
10
70280.0
20
53303.0
11
70166.0
21
53350.0
0
LINE
8
BLACK
10
70166.0
20
53350.0
11
69935.0
21
53350.0
0
LINE
8
BLACK
10
69935.0
20
53350.0
11
69722.0
21
53262.0
0
LINE
8
BLACK
10
69722.0
20
53262.0
11
69559.0
21
53099.0
0
LINE
8
BLACK
10
69559.0
20
53099.0
11
69470.0
21
52886.0
0
LINE
8
BLACK
10
69470.0
20
52886.0
11
69470.0
21
52655.0
0
LINE
8
BLACK
10
69470.0
20
52655.0
11
69558.0
21
52442.0
0
LINE
8
BLACK
10
69558.0
20
52442.0
11
69721.0
21
52279.0
0
LINE
8
BLACK
10
69721.0
20
52279.0
11
69934.0
21
52190.0
0
LINE
8
BLACK
10
69934.0
20
52190.0
11
70165.0
21
52190.0
0
LINE
8
BLACK
10
70165.0
20
52190.0
11
70378.0
21
52278.0
0
LINE
8
BLACK
10
70378.0
20
52278.0
11
70541.0
21
52441.0
0
LINE
8
BLACK
10
70541.0
20
52441.0
11
70549.0
21
52462.0
0
LINE
8
BLACK
10
70549.0
20
52462.0
11
70558.0
21
52442.0
0
LINE
8
BLACK
10
70558.0
20
52442.0
11
70721.0
21
52279.0
0
LINE
8
BLACK
10
70721.0
20
52279.0
11
70934.0
21
52190.0
0
LINE
8
BLACK
10
70934.0
20
52190.0
11
71165.0
21
52190.0
0
LINE
8
BLACK
10
71165.0
20
52190.0
11
71378.0
21
52278.0
0
LINE
8
BLACK
10
71378.0
20
52278.0
11
71541.0
21
52441.0
0
LINE
8
BLACK
10
71541.0
20
52441.0
11
71630.0
21
52654.0
0
LINE
8
BLACK
10
71630.0
20
52654.0
11
71630.0
21
50810.0
0
LINE
8
BLACK
10
71630.0
20
50810.0
11
71529.0
21
50911.0
0
LINE
8
BLACK
10
71529.0
20
50911.0
11
71316.0
21
51000.0
0
LINE
8
BLACK
10
71316.0
20
51000.0
11
71085.0
21
51000.0
0
LINE
8
BLACK
10
71085.0
20
51000.0
11
70872.0
21
50912.0
0
LINE
8
BLACK
10
70872.0
20
50912.0
11
70709.0
21
50749.0
0
LINE
8
BLACK
10
70709.0
20
50749.0
11
70620.0
21
50536.0
0
LINE
8
BLACK
10
70620.0
20
50536.0
11
70620.0
21
50305.0
0
LINE
8
BLACK
10
70620.0
20
50305.0
11
70708.0
21
50092.0
0
LINE
8
BLACK
10
70708.0
20
50092.0
11
70871.0
21
49929.0
0
LINE
8
BLACK
10
70871.0
20
49929.0
11
71084.0
21
49840.0
0
LINE
8
BLACK
10
71084.0
20
49840.0
11
71315.0
21
49840.0
0
LINE
8
BLACK
10
71315.0
20
49840.0
11
71528.0
21
49928.0
0
LINE
8
BLACK
10
71528.0
20
49928.0
11
71691.0
21
50091.0
0
LINE
8
BLACK
10
71691.0
20
50091.0
11
71699.0
21
50112.0
0
LINE
8
BLACK
10
71699.0
20
50112.0
11
71708.0
21
50092.0
0
LINE
8
BLACK
10
71708.0
20
50092.0
11
71871.0
21
49929.0
0
LINE
8
BLACK
10
71871.0
20
49929.0
11
72084.0
21
49840.0
0
LINE
8
BLACK
10
72084.0
20
49840.0
11
72315.0
21
49840.0
0
LINE
8
BLACK
10
72315.0
20
49840.0
11
72528.0
21
49928.0
0
LINE
8
BLACK
10
72528.0
20
49928.0
11
72691.0
21
50091.0
0
LINE
8
BLACK
10
72691.0
20
50091.0
11
72780.0
21
50304.0
0
LINE
8
BLACK
10
72780.0
20
50304.0
11
72780.0
21
50108.0
0
LINE
8
BLACK
10
72780.0
20
50108.0
11
72725.0
21
49975.0
0
LINE
8
BLACK
10
72725.0
20
49975.0
11
72725.0
21
49766.0
0
LINE
8
BLACK
10
72725.0
20
49766.0
11
72805.0
21
49573.0
0
LINE
8
BLACK
10
72805.0
20
49573.0
11
72952.0
21
49425.0
0
LINE
8
BLACK
10
72952.0
20
49425.0
11
73145.0
21
49345.0
0
LINE
8
BLACK
10
73145.0
20
49345.0
11
73354.0
21
49345.0
0
LINE
8
BLACK
10
73354.0
20
49345.0
11
73547.0
21
49425.0
0
LINE
8
BLACK
10
73547.0
20
49425.0
11
73695.0
21
49572.0
0
LINE
8
BLACK
10
73695.0
20
49572.0
11
73775.0
21
49765.0
0
LINE
8
BLACK
10
73775.0
20
49765.0
11
73775.0
21
47045.0
0
LINE
8
BLACK
10
73775.0
20
47045.0
11
72767.0
21
47045.0
0
LINE
8
BLACK
10
72767.0
20
47045.0
11
72895.0
21
47172.0
0
LINE
8
BLACK
10
72895.0
20
47172.0
11
72975.0
21
47365.0
0
LINE
8
BLACK
10
72975.0
20
47365.0
11
72975.0
21
47574.0
0
LINE
8
BLACK
10
72975.0
20
47574.0
11
72895.0
21
47767.0
0
LINE
8
BLACK
10
72895.0
20
47767.0
11
72748.0
21
47915.0
0
LINE
8
BLACK
10
72748.0
20
47915.0
11
72555.0
21
47995.0
0
LINE
8
BLACK
10
72555.0
20
47995.0
11
72554.0
21
47995.0
0
LINE
8
BLACK
10
72554.0
20
47995.0
11
72747.0
21
48075.0
0
LINE
8
BLACK
10
72747.0
20
48075.0
11
72895.0
21
48222.0
0
LINE
8
BLACK
10
72895.0
20
48222.0
11
72975.0
21
48415.0
0
LINE
8
BLACK
10
72975.0
20
48415.0
11
72975.0
21
48624.0
0
LINE
8
BLACK
10
72975.0
20
48624.0
11
72895.0
21
48817.0
0
LINE
8
BLACK
10
72895.0
20
48817.0
11
72748.0
21
48965.0
0
LINE
8
BLACK
10
72748.0
20
48965.0
11
72555.0
21
49045.0
0
LINE
8
BLACK
10
72555.0
20
49045.0
11
72346.0
21
49045.0
0
LINE
8
BLACK
10
72346.0
20
49045.0
11
72153.0
21
48965.0
0
LINE
8
BLACK
10
72153.0
20
48965.0
11
72005.0
21
48818.0
0
LINE
8
BLACK
10
72005.0
20
48818.0
11
71925.0
21
48625.0
0
LINE
8
BLACK
10
71925.0
20
48625.0
11
71925.0
21
48416.0
0
LINE
8
BLACK
10
71925.0
20
48416.0
11
72005.0
21
48223.0
0
LINE
8
BLACK
10
72005.0
20
48223.0
11
72152.0
21
48075.0
0
LINE
8
BLACK
10
72152.0
20
48075.0
11
72345.0
21
47995.0
0
LINE
8
BLACK
10
72345.0
20
47995.0
11
72153.0
21
47915.0
0
LINE
8
BLACK
10
72153.0
20
47915.0
11
72005.0
21
47768.0
0
LINE
8
BLACK
10
72005.0
20
47768.0
11
71925.0
21
47575.0
0
LINE
8
BLACK
10
71925.0
20
47575.0
11
71925.0
21
47366.0
0
LINE
8
BLACK
10
71925.0
20
47366.0
11
72005.0
21
47173.0
0
LINE
8
BLACK
10
72005.0
20
47173.0
11
72132.0
21
47045.0
0
LINE
8
BLACK
10
72132.0
20
47045.0
11
71880.0
21
47045.0
0
LINE
8
BLACK
10
71880.0
20
47045.0
11
71880.0
21
47804.0
0
LINE
8
BLACK
10
71880.0
20
47804.0
11
71880.0
21
48035.0
0
LINE
8
BLACK
10
71880.0
20
48035.0
11
71792.0
21
48248.0
0
LINE
8
BLACK
10
71792.0
20
48248.0
11
71629.0
21
48411.0
0
LINE
8
BLACK
10
71629.0
20
48411.0
11
71416.0
21
48500.0
0
LINE
8
BLACK
10
71416.0
20
48500.0
11
71185.0
21
48500.0
0
LINE
8
BLACK
10
71185.0
20
48500.0
11
70972.0
21
48412.0
0
LINE
8
BLACK
10
70972.0
20
48412.0
11
70809.0
21
48249.0
0
LINE
8
BLACK
10
70809.0
20
48249.0
11
70800.0
21
48229.0
0
LINE
8
BLACK
10
70800.0
20
48229.0
11
70792.0
21
48248.0
0
LINE
8
BLACK
10
70792.0
20
48248.0
11
70629.0
21
48411.0
0
LINE
8
BLACK
10
70629.0
20
48411.0
11
70416.0
21
48500.0
0
LINE
8
BLACK
10
70416.0
20
48500.0
11
70380.0
21
48500.0
0
LINE
8
BLACK
10
70380.0
20
48500.0
11
70380.0
21
50304.0
0
LINE
8
BLACK
10
70380.0
20
50304.0
11
70380.0
21
50535.0
0
LINE
8
BLACK
10
70380.0
20
50535.0
11
70292.0
21
50748.0
0
LINE
8
BLACK
10
70292.0
20
50748.0
11
70129.0
21
50911.0
0
LINE
8
BLACK
10
70129.0
20
50911.0
11
69916.0
21
51000.0
0
LINE
8
BLACK
10
69916.0
20
51000.0
11
69685.0
21
51000.0
0
LINE
8
BLACK
10
69685.0
20
51000.0
11
69472.0
21
50912.0
0
LINE
8
BLACK
10
69472.0
20
50912.0
11
69309.0
21
50749.0
0
LINE
8
BLACK
10
69309.0
20
50749.0
11
69300.0
21
50729.0
0
LINE
8
BLACK
10
69300.0
20
50729.0
11
69292.0
21
50748.0
0
LINE
8
BLACK
10
69292.0
20
50748.0
11
69230.0
21
50810.0
0
LINE
8
BLACK
10
69230.0
20
50810.0
11
69230.0
21
52654.0
0
LINE
8
BLACK
10
69230.0
20
52654.0
11
69230.0
21
52885.0
0
LINE
8
BLACK
10
69230.0
20
52885.0
11
69142.0
21
53098.0
0
LINE
8
BLACK
10
69142.0
20
53098.0
11
68979.0
21
53261.0
0
LINE
8
BLACK
10
68979.0
20
53261.0
11
68766.0
21
53350.0
0
LINE
8
BLACK
10
68766.0
20
53350.0
11
68535.0
21
53350.0
0
LINE
8
BLACK
10
68535.0
20
53350.0
11
68322.0
21
53262.0
0
LINE
8
BLACK
10
68322.0
20
53262.0
11
68159.0
21
53099.0
0
LINE
8
BLACK
10
68159.0
20
53099.0
11
68150.0
21
53079.0
0
LINE
8
BLACK
10
68150.0
20
53079.0
11
68142.0
21
53098.0
0
LINE
8
BLACK
10
68142.0
20
53098.0
11
67979.0
21
53261.0
0
LINE
8
BLACK
10
67979.0
20
53261.0
11
67880.0
21
53303.0
0
LINE
8
BLACK
10
67880.0
20
53303.0
11
67880.0
21
55004.0
0
LINE
8
BLACK
10
67880.0
20
55004.0
11
67880.0
21
55235.0
0
LINE
8
BLACK
10
67880.0
20
55235.0
11
67792.0
21
55448.0
0
LINE
8
BLACK
10
67792.0
20
55448.0
11
67629.0
21
55611.0
0
LINE
8
BLACK
10
67629.0
20
55611.0
11
67416.0
21
55700.0
0
LINE
8
BLACK
10
67416.0
20
55700.0
11
67185.0
21
55700.0
0
LINE
8
BLACK
10
67185.0
20
55700.0
11
66972.0
21
55612.0
0
LINE
8
BLACK
10
66972.0
20
55612.0
11
66809.0
21
55449.0
0
LINE
8
BLACK
10
66809.0
20
55449.0
11
66796.0
21
55418.0
0
LINE
8
BLACK
10
66796.0
20
55418.0
11
66700.0
21
55449.0
0
LINE
8
BLACK
10
66700.0
20
55449.0
11
66629.0
21
55378.0
0
LINE
8
BLACK
10
66629.0
20
55378.0
11
66629.0
21
55520.0
0
LINE
8
BLACK
10
66629.0
20
55520.0
11
66598.0
21
55616.0
0
LINE
8
BLACK
10
66598.0
20
55616.0
11
66386.0
21
55693.0
0
LINE
8
BLACK
10
66386.0
20
55693.0
11
66161.0
21
55682.0
0
LINE
8
BLACK
10
66161.0
20
55682.0
11
66002.0
21
55616.0
0
LINE
8
BLACK
10
66002.0
20
55616.0
11
65971.0
21
55520.0
0
LINE
8
BLACK
10
65971.0
20
55520.0
11
66300.0
21
55191.0
0
LINE
8
BLACK
10
66300.0
20
55191.0
11
66629.0
21
55520.0
0
LINE
8
BLACK
10
66629.0
20
55520.0
11
66629.0
21
55378.0
0
LINE
8
BLACK
10
66629.0
20
55378.0
11
66371.0
21
55120.0
0
LINE
8
BLACK
10
66371.0
20
55120.0
11
66700.0
21
54791.0
0
LINE
8
BLACK
10
66700.0
20
54791.0
11
66795.0
21
54822.0
0
LINE
8
BLACK
10
66795.0
20
54822.0
11
66796.0
21
54822.0
0
LINE
8
BLACK
10
66796.0
20
54822.0
11
66808.0
21
54792.0
0
LINE
8
BLACK
10
66808.0
20
54792.0
11
66971.0
21
54629.0
0
LINE
8
BLACK
10
66971.0
20
54629.0
11
67184.0
21
54540.0
0
LINE
8
BLACK
10
67184.0
20
54540.0
11
67415.0
21
54540.0
0
LINE
8
BLACK
10
67415.0
20
54540.0
11
67628.0
21
54628.0
0
LINE
8
BLACK
10
67628.0
20
54628.0
11
67791.0
21
54791.0
0
LINE
8
BLACK
10
67791.0
20
54791.0
11
67880.0
21
55004.0
0
LINE
8
BLACK
10
67880.0
20
55004.0
11
67880.0
21
53303.0
0
LINE
8
BLACK
10
67880.0
20
53303.0
11
67766.0
21
53350.0
0
LINE
8
BLACK
10
67766.0
20
53350.0
11
67535.0
21
53350.0
0
LINE
8
BLACK
10
67535.0
20
53350.0
11
67322.0
21
53262.0
0
LINE
8
BLACK
10
67322.0
20
53262.0
11
67159.0
21
53099.0
0
LINE
8
BLACK
10
67159.0
20
53099.0
11
67070.0
21
52886.0
0
LINE
8
BLACK
10
67070.0
20
52886.0
11
67070.0
21
52655.0
0
LINE
8
BLACK
10
67070.0
20
52655.0
11
67158.0
21
52442.0
0
LINE
8
BLACK
10
67158.0
20
52442.0
11
67321.0
21
52279.0
0
LINE
8
BLACK
10
67321.0
20
52279.0
11
67534.0
21
52190.0
0
LINE
8
BLACK
10
67534.0
20
52190.0
11
67765.0
21
52190.0
0
LINE
8
BLACK
10
67765.0
20
52190.0
11
67978.0
21
52278.0
0
LINE
8
BLACK
10
67978.0
20
52278.0
11
68141.0
21
52441.0
0
LINE
8
BLACK
10
68141.0
20
52441.0
11
68149.0
21
52462.0
0
LINE
8
BLACK
10
68149.0
20
52462.0
11
68158.0
21
52442.0
0
LINE
8
BLACK
10
68158.0
20
52442.0
11
68321.0
21
52279.0
0
LINE
8
BLACK
10
68321.0
20
52279.0
11
68534.0
21
52190.0
0
LINE
8
BLACK
10
68534.0
20
52190.0
11
68765.0
21
52190.0
0
LINE
8
BLACK
10
68765.0
20
52190.0
11
68978.0
21
52278.0
0
LINE
8
BLACK
10
68978.0
20
52278.0
11
69141.0
21
52441.0
0
LINE
8
BLACK
10
69141.0
20
52441.0
11
69230.0
21
52654.0
0
LINE
8
BLACK
10
69230.0
20
52654.0
11
69230.0
21
50810.0
0
LINE
8
BLACK
10
69230.0
20
50810.0
11
69129.0
21
50911.0
0
LINE
8
BLACK
10
69129.0
20
50911.0
11
68916.0
21
51000.0
0
LINE
8
BLACK
10
68916.0
20
51000.0
11
68685.0
21
51000.0
0
LINE
8
BLACK
10
68685.0
20
51000.0
11
68472.0
21
50912.0
0
LINE
8
BLACK
10
68472.0
20
50912.0
11
68309.0
21
50749.0
0
LINE
8
BLACK
10
68309.0
20
50749.0
11
68220.0
21
50536.0
0
LINE
8
BLACK
10
68220.0
20
50536.0
11
68220.0
21
50305.0
0
LINE
8
BLACK
10
68220.0
20
50305.0
11
68308.0
21
50092.0
0
LINE
8
BLACK
10
68308.0
20
50092.0
11
68471.0
21
49929.0
0
LINE
8
BLACK
10
68471.0
20
49929.0
11
68684.0
21
49840.0
0
LINE
8
BLACK
10
68684.0
20
49840.0
11
68915.0
21
49840.0
0
LINE
8
BLACK
10
68915.0
20
49840.0
11
69128.0
21
49928.0
0
LINE
8
BLACK
10
69128.0
20
49928.0
11
69291.0
21
50091.0
0
LINE
8
BLACK
10
69291.0
20
50091.0
11
69299.0
21
50112.0
0
LINE
8
BLACK
10
69299.0
20
50112.0
11
69308.0
21
50092.0
0
LINE
8
BLACK
10
69308.0
20
50092.0
11
69471.0
21
49929.0
0
LINE
8
BLACK
10
69471.0
20
49929.0
11
69684.0
21
49840.0
0
LINE
8
BLACK
10
69684.0
20
49840.0
11
69915.0
21
49840.0
0
LINE
8
BLACK
10
69915.0
20
49840.0
11
70128.0
21
49928.0
0
LINE
8
BLACK
10
70128.0
20
49928.0
11
70291.0
21
50091.0
0
LINE
8
BLACK
10
70291.0
20
50091.0
11
70380.0
21
50304.0
0
LINE
8
BLACK
10
70380.0
20
50304.0
11
70380.0
21
48500.0
0
LINE
8
BLACK
10
70380.0
20
48500.0
11
70185.0
21
48500.0
0
LINE
8
BLACK
10
70185.0
20
48500.0
11
69972.0
21
48412.0
0
LINE
8
BLACK
10
69972.0
20
48412.0
11
69809.0
21
48249.0
0
LINE
8
BLACK
10
69809.0
20
48249.0
11
69720.0
21
48036.0
0
LINE
8
BLACK
10
69720.0
20
48036.0
11
69720.0
21
47805.0
0
LINE
8
BLACK
10
69720.0
20
47805.0
11
69808.0
21
47592.0
0
LINE
8
BLACK
10
69808.0
20
47592.0
11
69971.0
21
47429.0
0
LINE
8
BLACK
10
69971.0
20
47429.0
11
70184.0
21
47340.0
0
LINE
8
BLACK
10
70184.0
20
47340.0
11
70415.0
21
47340.0
0
LINE
8
BLACK
10
70415.0
20
47340.0
11
70628.0
21
47428.0
0
LINE
8
BLACK
10
70628.0
20
47428.0
11
70791.0
21
47591.0
0
LINE
8
BLACK
10
70791.0
20
47591.0
11
70799.0
21
47612.0
0
LINE
8
BLACK
10
70799.0
20
47612.0
11
70808.0
21
47592.0
0
LINE
8
BLACK
10
70808.0
20
47592.0
11
70971.0
21
47429.0
0
LINE
8
BLACK
10
70971.0
20
47429.0
11
71184.0
21
47340.0
0
LINE
8
BLACK
10
71184.0
20
47340.0
11
71415.0
21
47340.0
0
LINE
8
BLACK
10
71415.0
20
47340.0
11
71628.0
21
47428.0
0
LINE
8
BLACK
10
71628.0
20
47428.0
11
71791.0
21
47591.0
0
LINE
8
BLACK
10
71791.0
20
47591.0
11
71880.0
21
47804.0
0
LINE
8
BLACK
10
71880.0
20
47804.0
11
71880.0
21
47045.0
0
LINE
8
BLACK
10
71880.0
20
47045.0
11
69480.0
21
47045.0
0
LINE
8
BLACK
10
69480.0
20
47045.0
11
69480.0
21
47804.0
0
LINE
8
BLACK
10
69480.0
20
47804.0
11
69480.0
21
48035.0
0
LINE
8
BLACK
10
69480.0
20
48035.0
11
69392.0
21
48248.0
0
LINE
8
BLACK
10
69392.0
20
48248.0
11
69229.0
21
48411.0
0
LINE
8
BLACK
10
69229.0
20
48411.0
11
69016.0
21
48500.0
0
LINE
8
BLACK
10
69016.0
20
48500.0
11
68785.0
21
48500.0
0
LINE
8
BLACK
10
68785.0
20
48500.0
11
68572.0
21
48412.0
0
LINE
8
BLACK
10
68572.0
20
48412.0
11
68409.0
21
48249.0
0
LINE
8
BLACK
10
68409.0
20
48249.0
11
68400.0
21
48229.0
0
LINE
8
BLACK
10
68400.0
20
48229.0
11
68392.0
21
48248.0
0
LINE
8
BLACK
10
68392.0
20
48248.0
11
68229.0
21
48411.0
0
LINE
8
BLACK
10
68229.0
20
48411.0
11
68016.0
21
48500.0
0
LINE
8
BLACK
10
68016.0
20
48500.0
11
67980.0
21
48500.0
0
LINE
8
BLACK
10
67980.0
20
48500.0
11
67980.0
21
50304.0
0
LINE
8
BLACK
10
67980.0
20
50304.0
11
67980.0
21
50535.0
0
LINE
8
BLACK
10
67980.0
20
50535.0
11
67892.0
21
50748.0
0
LINE
8
BLACK
10
67892.0
20
50748.0
11
67729.0
21
50911.0
0
LINE
8
BLACK
10
67729.0
20
50911.0
11
67516.0
21
51000.0
0
LINE
8
BLACK
10
67516.0
20
51000.0
11
67285.0
21
51000.0
0
LINE
8
BLACK
10
67285.0
20
51000.0
11
67072.0
21
50912.0
0
LINE
8
BLACK
10
67072.0
20
50912.0
11
66909.0
21
50749.0
0
LINE
8
BLACK
10
66909.0
20
50749.0
11
66896.0
21
50718.0
0
LINE
8
BLACK
10
66896.0
20
50718.0
11
66830.0
21
50740.0
0
LINE
8
BLACK
10
66830.0
20
50740.0
11
66830.0
21
52604.0
0
LINE
8
BLACK
10
66830.0
20
52604.0
11
66830.0
21
52835.0
0
LINE
8
BLACK
10
66830.0
20
52835.0
11
66742.0
21
53048.0
0
LINE
8
BLACK
10
66742.0
20
53048.0
11
66629.0
21
53161.0
0
LINE
8
BLACK
10
66629.0
20
53161.0
11
66629.0
21
54720.0
0
LINE
8
BLACK
10
66629.0
20
54720.0
11
66300.0
21
55049.0
0
LINE
8
BLACK
10
66300.0
20
55049.0
11
65971.0
21
54720.0
0
LINE
8
BLACK
10
65971.0
20
54720.0
11
66002.0
21
54624.0
0
LINE
8
BLACK
10
66002.0
20
54624.0
11
66214.0
21
54547.0
0
LINE
8
BLACK
10
66214.0
20
54547.0
11
66439.0
21
54558.0
0
LINE
8
BLACK
10
66439.0
20
54558.0
11
66598.0
21
54624.0
0
LINE
8
BLACK
10
66598.0
20
54624.0
11
66629.0
21
54720.0
0
LINE
8
BLACK
10
66629.0
20
54720.0
11
66629.0
21
53161.0
0
LINE
8
BLACK
10
66629.0
20
53161.0
11
66579.0
21
53211.0
0
LINE
8
BLACK
10
66579.0
20
53211.0
11
66366.0
21
53300.0
0
LINE
8
BLACK
10
66366.0
20
53300.0
11
66135.0
21
53300.0
0
LINE
8
BLACK
10
66135.0
20
53300.0
11
65922.0
21
53212.0
0
LINE
8
BLACK
10
65922.0
20
53212.0
11
65759.0
21
53049.0
0
LINE
8
BLACK
10
65759.0
20
53049.0
11
65746.0
21
53018.0
0
LINE
8
BLACK
10
65746.0
20
53018.0
11
65650.0
21
53049.0
0
LINE
8
BLACK
10
65650.0
20
53049.0
11
65579.0
21
52978.0
0
LINE
8
BLACK
10
65579.0
20
52978.0
11
65579.0
21
53120.0
0
LINE
8
BLACK
10
65579.0
20
53120.0
11
65548.0
21
53216.0
0
LINE
8
BLACK
10
65548.0
20
53216.0
11
65336.0
21
53293.0
0
LINE
8
BLACK
10
65336.0
20
53293.0
11
65111.0
21
53282.0
0
LINE
8
BLACK
10
65111.0
20
53282.0
11
64952.0
21
53216.0
0
LINE
8
BLACK
10
64952.0
20
53216.0
11
64921.0
21
53120.0
0
LINE
8
BLACK
10
64921.0
20
53120.0
11
65250.0
21
52791.0
0
LINE
8
BLACK
10
65250.0
20
52791.0
11
65579.0
21
53120.0
0
LINE
8
BLACK
10
65579.0
20
53120.0
11
65579.0
21
52978.0
0
LINE
8
BLACK
10
65579.0
20
52978.0
11
65321.0
21
52720.0
0
LINE
8
BLACK
10
65321.0
20
52720.0
11
65650.0
21
52391.0
0
LINE
8
BLACK
10
65650.0
20
52391.0
11
65745.0
21
52422.0
0
LINE
8
BLACK
10
65745.0
20
52422.0
11
65746.0
21
52422.0
0
LINE
8
BLACK
10
65746.0
20
52422.0
11
65758.0
21
52392.0
0
LINE
8
BLACK
10
65758.0
20
52392.0
11
65921.0
21
52229.0
0
LINE
8
BLACK
10
65921.0
20
52229.0
11
66134.0
21
52140.0
0
LINE
8
BLACK
10
66134.0
20
52140.0
11
66365.0
21
52140.0
0
LINE
8
BLACK
10
66365.0
20
52140.0
11
66578.0
21
52228.0
0
LINE
8
BLACK
10
66578.0
20
52228.0
11
66741.0
21
52391.0
0
LINE
8
BLACK
10
66741.0
20
52391.0
11
66830.0
21
52604.0
0
LINE
8
BLACK
10
66830.0
20
52604.0
11
66830.0
21
50740.0
0
LINE
8
BLACK
10
66830.0
20
50740.0
11
66800.0
21
50749.0
0
LINE
8
BLACK
10
66800.0
20
50749.0
11
66729.0
21
50678.0
0
LINE
8
BLACK
10
66729.0
20
50678.0
11
66729.0
21
50820.0
0
LINE
8
BLACK
10
66729.0
20
50820.0
11
66698.0
21
50916.0
0
LINE
8
BLACK
10
66698.0
20
50916.0
11
66486.0
21
50993.0
0
LINE
8
BLACK
10
66486.0
20
50993.0
11
66261.0
21
50982.0
0
LINE
8
BLACK
10
66261.0
20
50982.0
11
66102.0
21
50916.0
0
LINE
8
BLACK
10
66102.0
20
50916.0
11
66071.0
21
50820.0
0
LINE
8
BLACK
10
66071.0
20
50820.0
11
66400.0
21
50491.0
0
LINE
8
BLACK
10
66400.0
20
50491.0
11
66729.0
21
50820.0
0
LINE
8
BLACK
10
66729.0
20
50820.0
11
66729.0
21
50678.0
0
LINE
8
BLACK
10
66729.0
20
50678.0
11
66471.0
21
50420.0
0
LINE
8
BLACK
10
66471.0
20
50420.0
11
66800.0
21
50091.0
0
LINE
8
BLACK
10
66800.0
20
50091.0
11
66895.0
21
50122.0
0
LINE
8
BLACK
10
66895.0
20
50122.0
11
66896.0
21
50122.0
0
LINE
8
BLACK
10
66896.0
20
50122.0
11
66908.0
21
50092.0
0
LINE
8
BLACK
10
66908.0
20
50092.0
11
67071.0
21
49929.0
0
LINE
8
BLACK
10
67071.0
20
49929.0
11
67284.0
21
49840.0
0
LINE
8
BLACK
10
67284.0
20
49840.0
11
67515.0
21
49840.0
0
LINE
8
BLACK
10
67515.0
20
49840.0
11
67728.0
21
49928.0
0
LINE
8
BLACK
10
67728.0
20
49928.0
11
67891.0
21
50091.0
0
LINE
8
BLACK
10
67891.0
20
50091.0
11
67980.0
21
50304.0
0
LINE
8
BLACK
10
67980.0
20
50304.0
11
67980.0
21
48500.0
0
LINE
8
BLACK
10
67980.0
20
48500.0
11
67785.0
21
48500.0
0
LINE
8
BLACK
10
67785.0
20
48500.0
11
67572.0
21
48412.0
0
LINE
8
BLACK
10
67572.0
20
48412.0
11
67409.0
21
48249.0
0
LINE
8
BLACK
10
67409.0
20
48249.0
11
67320.0
21
48036.0
0
LINE
8
BLACK
10
67320.0
20
48036.0
11
67320.0
21
47805.0
0
LINE
8
BLACK
10
67320.0
20
47805.0
11
67408.0
21
47592.0
0
LINE
8
BLACK
10
67408.0
20
47592.0
11
67571.0
21
47429.0
0
LINE
8
BLACK
10
67571.0
20
47429.0
11
67784.0
21
47340.0
0
LINE
8
BLACK
10
67784.0
20
47340.0
11
68015.0
21
47340.0
0
LINE
8
BLACK
10
68015.0
20
47340.0
11
68228.0
21
47428.0
0
LINE
8
BLACK
10
68228.0
20
47428.0
11
68391.0
21
47591.0
0
LINE
8
BLACK
10
68391.0
20
47591.0
11
68399.0
21
47612.0
0
LINE
8
BLACK
10
68399.0
20
47612.0
11
68408.0
21
47592.0
0
LINE
8
BLACK
10
68408.0
20
47592.0
11
68571.0
21
47429.0
0
LINE
8
BLACK
10
68571.0
20
47429.0
11
68784.0
21
47340.0
0
LINE
8
BLACK
10
68784.0
20
47340.0
11
69015.0
21
47340.0
0
LINE
8
BLACK
10
69015.0
20
47340.0
11
69228.0
21
47428.0
0
LINE
8
BLACK
10
69228.0
20
47428.0
11
69391.0
21
47591.0
0
LINE
8
BLACK
10
69391.0
20
47591.0
11
69480.0
21
47804.0
0
LINE
8
BLACK
10
69480.0
20
47804.0
11
69480.0
21
47045.0
0
LINE
8
BLACK
10
69480.0
20
47045.0
11
67080.0
21
47045.0
0
LINE
8
BLACK
10
67080.0
20
47045.0
11
67080.0
21
47804.0
0
LINE
8
BLACK
10
67080.0
20
47804.0
11
67080.0
21
48035.0
0
LINE
8
BLACK
10
67080.0
20
48035.0
11
66992.0
21
48248.0
0
LINE
8
BLACK
10
66992.0
20
48248.0
11
66829.0
21
48411.0
0
LINE
8
BLACK
10
66829.0
20
48411.0
11
66729.0
21
48453.0
0
LINE
8
BLACK
10
66729.0
20
48453.0
11
66729.0
21
50020.0
0
LINE
8
BLACK
10
66729.0
20
50020.0
11
66400.0
21
50349.0
0
LINE
8
BLACK
10
66400.0
20
50349.0
11
66329.0
21
50278.0
0
LINE
8
BLACK
10
66329.0
20
50278.0
11
66329.0
21
50420.0
0
LINE
8
BLACK
10
66329.0
20
50420.0
11
66000.0
21
50749.0
0
LINE
8
BLACK
10
66000.0
20
50749.0
11
65904.0
21
50718.0
0
LINE
8
BLACK
10
65904.0
20
50718.0
11
65827.0
21
50506.0
0
LINE
8
BLACK
10
65827.0
20
50506.0
11
65838.0
21
50281.0
0
LINE
8
BLACK
10
65838.0
20
50281.0
11
65904.0
21
50122.0
0
LINE
8
BLACK
10
65904.0
20
50122.0
11
66000.0
21
50091.0
0
LINE
8
BLACK
10
66000.0
20
50091.0
11
66329.0
21
50420.0
0
LINE
8
BLACK
10
66329.0
20
50420.0
11
66329.0
21
50278.0
0
LINE
8
BLACK
10
66329.0
20
50278.0
11
66071.0
21
50020.0
0
LINE
8
BLACK
10
66071.0
20
50020.0
11
66102.0
21
49924.0
0
LINE
8
BLACK
10
66102.0
20
49924.0
11
66314.0
21
49847.0
0
LINE
8
BLACK
10
66314.0
20
49847.0
11
66539.0
21
49858.0
0
LINE
8
BLACK
10
66539.0
20
49858.0
11
66698.0
21
49924.0
0
LINE
8
BLACK
10
66698.0
20
49924.0
11
66729.0
21
50020.0
0
LINE
8
BLACK
10
66729.0
20
50020.0
11
66729.0
21
48453.0
0
LINE
8
BLACK
10
66729.0
20
48453.0
11
66616.0
21
48500.0
0
LINE
8
BLACK
10
66616.0
20
48500.0
11
66385.0
21
48500.0
0
LINE
8
BLACK
10
66385.0
20
48500.0
11
66172.0
21
48412.0
0
LINE
8
BLACK
10
66172.0
20
48412.0
11
66009.0
21
48249.0
0
LINE
8
BLACK
10
66009.0
20
48249.0
11
65996.0
21
48218.0
0
LINE
8
BLACK
10
65996.0
20
48218.0
11
65900.0
21
48249.0
0
LINE
8
BLACK
10
65900.0
20
48249.0
11
65829.0
21
48178.0
0
LINE
8
BLACK
10
65829.0
20
48178.0
11
65829.0
21
48320.0
0
LINE
8
BLACK
10
65829.0
20
48320.0
11
65798.0
21
48416.0
0
LINE
8
BLACK
10
65798.0
20
48416.0
11
65586.0
21
48493.0
0
LINE
8
BLACK
10
65586.0
20
48493.0
11
65361.0
21
48482.0
0
LINE
8
BLACK
10
65361.0
20
48482.0
11
65202.0
21
48416.0
0
LINE
8
BLACK
10
65202.0
20
48416.0
11
65171.0
21
48320.0
0
LINE
8
BLACK
10
65171.0
20
48320.0
11
65500.0
21
47991.0
0
LINE
8
BLACK
10
65500.0
20
47991.0
11
65829.0
21
48320.0
0
LINE
8
BLACK
10
65829.0
20
48320.0
11
65829.0
21
48178.0
0
LINE
8
BLACK
10
65829.0
20
48178.0
11
65571.0
21
47920.0
0
LINE
8
BLACK
10
65571.0
20
47920.0
11
65900.0
21
47591.0
0
LINE
8
BLACK
10
65900.0
20
47591.0
11
65995.0
21
47622.0
0
LINE
8
BLACK
10
65995.0
20
47622.0
11
65996.0
21
47622.0
0
LINE
8
BLACK
10
65996.0
20
47622.0
11
66008.0
21
47592.0
0
LINE
8
BLACK
10
66008.0
20
47592.0
11
66171.0
21
47429.0
0
LINE
8
BLACK
10
66171.0
20
47429.0
11
66384.0
21
47340.0
0
LINE
8
BLACK
10
66384.0
20
47340.0
11
66615.0
21
47340.0
0
LINE
8
BLACK
10
66615.0
20
47340.0
11
66828.0
21
47428.0
0
LINE
8
BLACK
10
66828.0
20
47428.0
11
66991.0
21
47591.0
0
LINE
8
BLACK
10
66991.0
20
47591.0
11
67080.0
21
47804.0
0
LINE
8
BLACK
10
67080.0
20
47804.0
11
67080.0
21
47045.0
0
LINE
8
BLACK
10
67080.0
20
47045.0
11
65829.0
21
47045.0
0
LINE
8
BLACK
10
65829.0
20
47045.0
11
65829.0
21
47520.0
0
LINE
8
BLACK
10
65829.0
20
47520.0
11
65500.0
21
47849.0
0
LINE
8
BLACK
10
65500.0
20
47849.0
11
65429.0
21
47778.0
0
LINE
8
BLACK
10
65429.0
20
47778.0
11
65429.0
21
47920.0
0
LINE
8
BLACK
10
65429.0
20
47920.0
11
65100.0
21
48249.0
0
LINE
8
BLACK
10
65100.0
20
48249.0
11
65004.0
21
48218.0
0
LINE
8
BLACK
10
65004.0
20
48218.0
11
64927.0
21
48006.0
0
LINE
8
BLACK
10
64927.0
20
48006.0
11
64938.0
21
47781.0
0
LINE
8
BLACK
10
64938.0
20
47781.0
11
65004.0
21
47622.0
0
LINE
8
BLACK
10
65004.0
20
47622.0
11
65100.0
21
47591.0
0
LINE
8
BLACK
10
65100.0
20
47591.0
11
65429.0
21
47920.0
0
LINE
8
BLACK
10
65429.0
20
47920.0
11
65429.0
21
47778.0
0
LINE
8
BLACK
10
65429.0
20
47778.0
11
65171.0
21
47520.0
0
LINE
8
BLACK
10
65171.0
20
47520.0
11
65202.0
21
47424.0
0
LINE
8
BLACK
10
65202.0
20
47424.0
11
65414.0
21
47347.0
0
LINE
8
BLACK
10
65414.0
20
47347.0
11
65639.0
21
47358.0
0
LINE
8
BLACK
10
65639.0
20
47358.0
11
65798.0
21
47424.0
0
LINE
8
BLACK
10
65798.0
20
47424.0
11
65829.0
21
47520.0
0
LINE
8
BLACK
10
65829.0
20
47520.0
11
65829.0
21
47045.0
0
LINE
8
BLACK
10
65829.0
20
47045.0
11
64642.0
21
47045.0
0
LINE
8
BLACK
10
64642.0
20
47045.0
11
64601.0
21
48720.0
0
LINE
8
BLACK
10
64601.0
20
48720.0
11
65801.0
21
48720.0
0
LINE
8
BLACK
10
65801.0
20
48720.0
11
65749.0
21
51870.0
0
LINE
8
BLACK
10
65749.0
20
51870.0
11
65579.0
21
51870.0
0
LINE
8
BLACK
10
65579.0
20
51870.0
11
65579.0
21
52320.0
0
LINE
8
BLACK
10
65579.0
20
52320.0
11
65250.0
21
52649.0
0
LINE
8
BLACK
10
65250.0
20
52649.0
11
65179.0
21
52578.0
0
LINE
8
BLACK
10
65179.0
20
52578.0
11
65179.0
21
52720.0
0
LINE
8
BLACK
10
65179.0
20
52720.0
11
64850.0
21
53049.0
0
LINE
8
BLACK
10
64850.0
20
53049.0
11
64754.0
21
53018.0
0
LINE
8
BLACK
10
64754.0
20
53018.0
11
64677.0
21
52806.0
0
LINE
8
BLACK
10
64677.0
20
52806.0
11
64688.0
21
52581.0
0
LINE
8
BLACK
10
64688.0
20
52581.0
11
64754.0
21
52422.0
0
LINE
8
BLACK
10
64754.0
20
52422.0
11
64850.0
21
52391.0
0
LINE
8
BLACK
10
64850.0
20
52391.0
11
65179.0
21
52720.0
0
LINE
8
BLACK
10
65179.0
20
52720.0
11
65179.0
21
52578.0
0
LINE
8
BLACK
10
65179.0
20
52578.0
11
64921.0
21
52320.0
0
LINE
8
BLACK
10
64921.0
20
52320.0
11
64952.0
21
52224.0
0
LINE
8
BLACK
10
64952.0
20
52224.0
11
65164.0
21
52147.0
0
LINE
8
BLACK
10
65164.0
20
52147.0
11
65389.0
21
52158.0
0
LINE
8
BLACK
10
65389.0
20
52158.0
11
65548.0
21
52224.0
0
LINE
8
BLACK
10
65548.0
20
52224.0
11
65579.0
21
52320.0
0
LINE
8
BLACK
10
65579.0
20
52320.0
11
65579.0
21
51870.0
0
LINE
8
BLACK
10
65579.0
20
51870.0
11
63400.0
21
51870.0
0
LINE
8
BLACK
10
63400.0
20
51870.0
11
63400.0
21
53621.0
0
LINE
8
BLACK
10
63400.0
20
53621.0
11
65550.0
21
53671.0
0
LINE
8
BLACK
10
65550.0
20
53671.0
11
65550.0
21
54490.0
0
LINE
8
BLACK
10
65550.0
20
54490.0
11
65745.0
21
54963.0
0
LINE
8
BLACK
10
65745.0
20
54963.0
11
65804.0
21
54822.0
0
LINE
8
BLACK
10
65804.0
20
54822.0
11
65900.0
21
54791.0
0
LINE
8
BLACK
10
65900.0
20
54791.0
11
66229.0
21
55120.0
0
LINE
8
BLACK
10
66229.0
20
55120.0
11
65900.0
21
55449.0
0
LINE
8
BLACK
10
65900.0
20
55449.0
11
65804.0
21
55418.0
0
LINE
8
BLACK
10
65804.0
20
55418.0
11
65749.0
21
55268.0
0
LINE
8
BLACK
10
65749.0
20
55268.0
11
65750.0
21
55567.0
0
LINE
8
BLACK
10
65750.0
20
55567.0
11
65550.0
21
56051.0
0
LINE
8
BLACK
10
65550.0
20
56051.0
11
65550.0
21
56395.0
0
LINE
8
BLACK
10
65550.0
20
56395.0
11
72975.0
21
56395.0
0
LINE
8
BLACK
10
72975.0
20
56395.0
11
72903.0
21
56365.0
0
LINE
8
BLACK
10
72903.0
20
56365.0
11
72755.0
21
56218.0
0
LINE
8
BLACK
10
72755.0
20
56218.0
11
72675.0
21
56025.0
0
LINE
8
BLACK
10
72675.0
20
56025.0
11
72675.0
21
55816.0
0
LINE
8
BLACK
10
72675.0
20
55816.0
11
72755.0
21
55623.0
0
LINE
8
BLACK
10
72755.0
20
55623.0
11
72902.0
21
55475.0
0
LINE
8
BLACK
10
72902.0
20
55475.0
11
73010.0
21
55431.0
0
LINE
8
BLACK
10
73010.0
20
55431.0
11
72853.0
21
55365.0
0
LINE
8
BLACK
10
72853.0
20
55365.0
11
72705.0
21
55218.0
0
LINE
8
BLACK
10
72705.0
20
55218.0
11
72680.0
21
55158.0
0
LINE
8
BLACK
10
72680.0
20
55158.0
11
72680.0
21
55235.0
0
LINE
8
BLACK
10
72680.0
20
55235.0
11
72592.0
21
55448.0
0
LINE
8
BLACK
10
72592.0
20
55448.0
11
72429.0
21
55611.0
0
LINE
8
BLACK
10
72429.0
20
55611.0
11
72216.0
21
55700.0
0
LINE
8
BLACK
10
72216.0
20
55700.0
11
71985.0
21
55700.0
0
LINE
8
BLACK
10
71985.0
20
55700.0
11
71772.0
21
55612.0
0
LINE
8
BLACK
10
71772.0
20
55612.0
11
71609.0
21
55449.0
0
LINE
8
BLACK
10
71609.0
20
55449.0
11
71600.0
21
55429.0
0
LINE
8
BLACK
10
71600.0
20
55429.0
11
71592.0
21
55448.0
0
LINE
8
BLACK
10
71592.0
20
55448.0
11
71429.0
21
55611.0
0
LINE
8
BLACK
10
71429.0
20
55611.0
11
71216.0
21
55700.0
0
LINE
8
BLACK
10
71216.0
20
55700.0
11
70985.0
21
55700.0
0
LINE
8
BLACK
10
70985.0
20
55700.0
11
70772.0
21
55612.0
0
LINE
8
BLACK
10
70772.0
20
55612.0
11
70609.0
21
55449.0
0
LINE
8
BLACK
10
70609.0
20
55449.0
11
70520.0
21
55236.0
0
LINE
8
BLACK
10
70520.0
20
55236.0
11
70520.0
21
55005.0
0
LINE
8
BLACK
10
70520.0
20
55005.0
11
70608.0
21
54792.0
0
LINE
8
BLACK
10
70608.0
20
54792.0
11
70771.0
21
54629.0
0
LINE
8
BLACK
10
70771.0
20
54629.0
11
70984.0
21
54540.0
0
LINE
8
BLACK
10
70984.0
20
54540.0
11
71215.0
21
54540.0
0
LINE
8
BLACK
10
71215.0
20
54540.0
11
71428.0
21
54628.0
0
LINE
8
BLACK
10
71428.0
20
54628.0
11
71591.0
21
54791.0
0
LINE
8
BLACK
10
71591.0
20
54791.0
11
71599.0
21
54812.0
0
LINE
8
BLACK
10
71599.0
20
54812.0
11
71608.0
21
54792.0
0
LINE
8
BLACK
10
71608.0
20
54792.0
11
71771.0
21
54629.0
0
LINE
8
BLACK
10
71771.0
20
54629.0
11
71984.0
21
54540.0
0
LINE
8
BLACK
10
71984.0
20
54540.0
11
72215.0
21
54540.0
0
LINE
8
BLACK
10
72215.0
20
54540.0
11
72428.0
21
54628.0
0
LINE
8
BLACK
10
72428.0
20
54628.0
11
72591.0
21
54791.0
0
LINE
8
BLACK
10
72591.0
20
54791.0
11
72625.0
21
54873.0
0
LINE
8
BLACK
10
72625.0
20
54873.0
11
72625.0
21
54816.0
0
LINE
8
BLACK
10
72625.0
20
54816.0
11
72705.0
21
54623.0
0
LINE
8
BLACK
10
72705.0
20
54623.0
11
72852.0
21
54475.0
0
LINE
8
BLACK
10
72852.0
20
54475.0
11
73045.0
21
54395.0
0
LINE
8
BLACK
10
73045.0
20
54395.0
11
73254.0
21
54395.0
0
LINE
8
BLACK
10
73254.0
20
54395.0
11
73261.0
21
54399.0
0
LINE
8
BLACK
10
73261.0
20
54399.0
11
73694.0
21
53965.0
0
LINE
8
BLACK
10
73694.0
20
53965.0
11
73695.0
21
53965.0
0
LINE
8
BLACK
10
73695.0
20
53965.0
11
73789.0
21
53902.0
0
LINE
8
BLACK
10
73789.0
20
53902.0
11
73900.0
21
53880.0
0
LINE
8
BLACK
10
73900.0
20
53880.0
11
78025.0
21
53880.0
0
LINE
8
BLACK
10
78025.0
20
53880.0
11
78025.0
21
53786.0
0
LINE
8
BLACK
10
78025.0
20
53786.0
11
78089.0
21
53630.0
0
LINE
8
BLACK
10
78089.0
20
53630.0
11
78209.0
21
53510.0
0
LINE
8
BLACK
10
78209.0
20
53510.0
11
78365.0
21
53445.0
0
LINE
8
BLACK
10
78365.0
20
53445.0
11
78534.0
21
53445.0
0
LINE
8
BLACK
10
78534.0
20
53445.0
11
78690.0
21
53509.0
0
LINE
8
BLACK
10
78690.0
20
53509.0
11
78810.0
21
53629.0
0
LINE
8
BLACK
10
78810.0
20
53629.0
11
78875.0
21
53785.0
0
LINE
8
BLACK
10
78875.0
20
53785.0
11
78875.0
21
53954.0
0
LINE
8
BLACK
10
78875.0
20
53954.0
11
78811.0
21
54110.0
0
LINE
8
BLACK
10
78811.0
20
54110.0
11
78691.0
21
54230.0
0
LINE
8
BLACK
10
78691.0
20
54230.0
11
78535.0
21
54295.0
0
LINE
8
BLACK
10
78535.0
20
54295.0
11
78435.0
21
54295.0
0
LINE
8
BLACK
10
78435.0
20
54295.0
11
78355.0
21
54375.0
0
LINE
8
BLACK
10
78355.0
20
54375.0
11
78261.0
21
54438.0
0
LINE
8
BLACK
10
78261.0
20
54438.0
11
78225.0
21
54445.0
0
LINE
8
BLACK
10
78225.0
20
54445.0
11
78254.0
21
54445.0
0
LINE
8
BLACK
10
78254.0
20
54445.0
11
78447.0
21
54525.0
0
LINE
8
BLACK
10
78447.0
20
54525.0
11
78595.0
21
54672.0
0
LINE
8
BLACK
10
78595.0
20
54672.0
11
78675.0
21
54865.0
0
LINE
8
BLACK
10
78675.0
20
54865.0
11
78675.0
21
55074.0
0
LINE
8
BLACK
10
78675.0
20
55074.0
11
78595.0
21
55267.0
0
LINE
8
BLACK
10
78595.0
20
55267.0
11
78448.0
21
55415.0
0
LINE
8
BLACK
10
78448.0
20
55415.0
11
78314.0
21
55471.0
0
LINE
8
BLACK
10
78314.0
20
55471.0
11
78447.0
21
55525.0
0
LINE
8
BLACK
10
78447.0
20
55525.0
11
78595.0
21
55672.0
0
LINE
8
BLACK
10
78595.0
20
55672.0
11
78675.0
21
55865.0
0
LINE
8
BLACK
10
78675.0
20
55865.0
11
78675.0
21
56074.0
0
LINE
8
BLACK
10
78675.0
20
56074.0
11
78595.0
21
56267.0
0
LINE
8
BLACK
10
78595.0
20
56267.0
11
78467.0
21
56395.0
0
LINE
8
BLACK
10
78467.0
20
56395.0
11
79282.0
21
56395.0
0
LINE
8
BLACK
10
79282.0
20
56395.0
11
79251.0
21
56320.0
0
LINE
8
BLACK
10
79251.0
20
56320.0
11
79251.0
21
56221.0
0
LINE
8
BLACK
10
79251.0
20
56221.0
11
79250.0
21
56082.0
0
LINE
8
BLACK
10
79250.0
20
56082.0
11
79312.0
21
56020.0
0
LINE
8
BLACK
10
79312.0
20
56020.0
11
79700.0
21
56020.0
0
LINE
8
BLACK
10
79700.0
20
56020.0
11
79750.0
21
56020.0
0
LINE
8
BLACK
10
79750.0
20
56020.0
11
79850.0
21
56020.0
0
LINE
8
BLACK
10
79850.0
20
56020.0
11
79850.0
21
55920.0
0
LINE
8
BLACK
10
79850.0
20
55920.0
11
79850.0
21
55870.0
0
LINE
8
BLACK
10
79850.0
20
55870.0
11
79850.0
21
55482.0
0
LINE
8
BLACK
10
79850.0
20
55482.0
11
79912.0
21
55420.0
0
LINE
8
BLACK
10
79912.0
20
55420.0
11
80149.0
21
55421.0
0
LINE
8
BLACK
10
80149.0
20
55421.0
11
80241.0
21
55459.0
0
LINE
8
BLACK
10
80241.0
20
55459.0
11
80311.0
21
55529.0
0
LINE
8
BLACK
10
80311.0
20
55529.0
11
80349.0
21
55620.0
0
LINE
8
BLACK
10
80349.0
20
55620.0
11
80349.0
21
55645.0
0
LINE
8
BLACK
10
80349.0
20
55645.0
11
80489.0
21
55505.0
0
LINE
8
BLACK
10
80489.0
20
55505.0
11
80691.0
21
55421.0
0
LINE
8
BLACK
10
80691.0
20
55421.0
11
80909.0
21
55421.0
0
LINE
8
BLACK
10
80909.0
20
55421.0
11
81111.0
21
55505.0
0
LINE
8
BLACK
10
81111.0
20
55505.0
11
81218.0
21
55613.0
0
LINE
8
BLACK
10
81218.0
20
55613.0
11
81201.0
21
55570.0
0
LINE
8
BLACK
10
81201.0
20
55570.0
11
81200.0
21
55063.0
0
LINE
8
BLACK
10
81200.0
20
55063.0
11
81098.0
21
55165.0
0
LINE
8
BLACK
10
81098.0
20
55165.0
11
80905.0
21
55245.0
0
LINE
8
BLACK
10
80905.0
20
55245.0
11
80696.0
21
55245.0
0
LINE
8
BLACK
10
80696.0
20
55245.0
11
80503.0
21
55165.0
0
LINE
8
BLACK
10
80503.0
20
55165.0
11
80355.0
21
55018.0
0
LINE
8
BLACK
10
80355.0
20
55018.0
11
80299.0
21
54885.0
0
LINE
8
BLACK
10
80299.0
20
54885.0
11
80245.0
21
55017.0
0
LINE
8
BLACK
10
80245.0
20
55017.0
11
80098.0
21
55165.0
0
LINE
8
BLACK
10
80098.0
20
55165.0
11
79905.0
21
55245.0
0
LINE
8
BLACK
10
79905.0
20
55245.0
11
79750.0
21
55245.0
0
LINE
8
BLACK
10
79750.0
20
55245.0
11
79750.0
21
55482.0
0
LINE
8
BLACK
10
79750.0
20
55482.0
11
79750.0
21
55920.0
0
LINE
8
BLACK
10
79750.0
20
55920.0
11
79312.0
21
55920.0
0
LINE
8
BLACK
10
79312.0
20
55920.0
11
79250.0
21
55858.0
0
LINE
8
BLACK
10
79250.0
20
55858.0
11
79251.0
21
55719.0
0
LINE
8
BLACK
10
79251.0
20
55719.0
11
79251.0
21
55620.0
0
LINE
8
BLACK
10
79251.0
20
55620.0
11
79289.0
21
55529.0
0
LINE
8
BLACK
10
79289.0
20
55529.0
11
79359.0
21
55459.0
0
LINE
8
BLACK
10
79359.0
20
55459.0
11
79451.0
21
55421.0
0
LINE
8
BLACK
10
79451.0
20
55421.0
11
79688.0
21
55420.0
0
LINE
8
BLACK
10
79688.0
20
55420.0
11
79750.0
21
55482.0
0
LINE
8
BLACK
10
79750.0
20
55482.0
11
79750.0
21
55245.0
0
LINE
8
BLACK
10
79750.0
20
55245.0
11
79696.0
21
55245.0
0
LINE
8
BLACK
10
79696.0
20
55245.0
11
79503.0
21
55165.0
0
LINE
8
BLACK
10
79503.0
20
55165.0
11
79355.0
21
55018.0
0
LINE
8
BLACK
10
79355.0
20
55018.0
11
79275.0
21
54825.0
0
LINE
8
BLACK
10
79275.0
20
54825.0
11
79275.0
21
54616.0
0
LINE
8
BLACK
10
79275.0
20
54616.0
11
79355.0
21
54423.0
0
LINE
8
BLACK
10
79355.0
20
54423.0
11
79502.0
21
54275.0
0
LINE
8
BLACK
10
79502.0
20
54275.0
11
79695.0
21
54195.0
0
LINE
8
BLACK
10
79695.0
20
54195.0
11
79904.0
21
54195.0
0
LINE
8
BLACK
10
79904.0
20
54195.0
11
79911.0
21
54199.0
0
LINE
8
BLACK
10
79911.0
20
54199.0
11
80195.0
21
53915.0
0
LINE
8
BLACK
10
80195.0
20
53915.0
11
80289.0
21
53852.0
0
LINE
8
BLACK
10
80289.0
20
53852.0
11
80384.0
21
53834.0
0
LINE
8
BLACK
10
80384.0
20
53834.0
11
80285.0
21
53734.0
0
LINE
8
BLACK
10
80285.0
20
53734.0
11
80251.0
21
53655.0
0
LINE
8
BLACK
10
80251.0
20
53655.0
11
80132.0
21
53820.0
0
LINE
8
BLACK
10
80132.0
20
53820.0
11
79946.0
21
53935.0
0
LINE
8
BLACK
10
79946.0
20
53935.0
11
79887.0
21
53952.0
0
LINE
8
BLACK
10
79887.0
20
53952.0
11
79800.0
21
53905.0
0
LINE
8
BLACK
10
79800.0
20
53905.0
11
79800.0
21
53370.0
0
LINE
8
BLACK
10
79800.0
20
53370.0
11
79800.0
21
53320.0
0
LINE
8
BLACK
10
79800.0
20
53320.0
11
79800.0
21
53220.0
0
LINE
8
BLACK
10
79800.0
20
53220.0
11
79800.0
21
53170.0
0
LINE
8
BLACK
10
79800.0
20
53170.0
11
79800.0
21
52635.0
0
LINE
8
BLACK
10
79800.0
20
52635.0
11
79887.0
21
52588.0
0
LINE
8
BLACK
10
79887.0
20
52588.0
11
79946.0
21
52605.0
0
LINE
8
BLACK
10
79946.0
20
52605.0
11
80132.0
21
52720.0
0
LINE
8
BLACK
10
80132.0
20
52720.0
11
80251.0
21
52886.0
0
LINE
8
BLACK
10
80251.0
20
52886.0
11
80285.0
21
52806.0
0
LINE
8
BLACK
10
80285.0
20
52806.0
11
80439.0
21
52652.0
0
LINE
8
BLACK
10
80439.0
20
52652.0
11
80641.0
21
52568.0
0
LINE
8
BLACK
10
80641.0
20
52568.0
11
80859.0
21
52568.0
0
LINE
8
BLACK
10
80859.0
20
52568.0
11
81061.0
21
52652.0
0
LINE
8
BLACK
10
81061.0
20
52652.0
11
81215.0
21
52806.0
0
LINE
8
BLACK
10
81215.0
20
52806.0
11
81250.0
21
52891.0
0
LINE
8
BLACK
10
81250.0
20
52891.0
11
81285.0
21
52806.0
0
LINE
8
BLACK
10
81285.0
20
52806.0
11
81405.0
21
52686.0
0
LINE
8
BLACK
10
81405.0
20
52686.0
11
81065.0
21
52345.0
0
LINE
8
BLACK
10
81065.0
20
52345.0
11
80966.0
21
52345.0
0
LINE
8
BLACK
10
80966.0
20
52345.0
11
80810.0
21
52281.0
0
LINE
8
BLACK
10
80810.0
20
52281.0
11
80690.0
21
52161.0
0
LINE
8
BLACK
10
80690.0
20
52161.0
11
80625.0
21
52005.0
0
LINE
8
BLACK
10
80625.0
20
52005.0
11
80625.0
21
51836.0
0
LINE
8
BLACK
10
80625.0
20
51836.0
11
80689.0
21
51680.0
0
LINE
8
BLACK
10
80689.0
20
51680.0
11
80809.0
21
51560.0
0
LINE
8
BLACK
10
80809.0
20
51560.0
11
80965.0
21
51495.0
0
LINE
8
BLACK
10
80965.0
20
51495.0
11
81134.0
21
51495.0
0
LINE
8
BLACK
10
81134.0
20
51495.0
11
81290.0
21
51559.0
0
LINE
8
BLACK
10
81290.0
20
51559.0
11
81410.0
21
51679.0
0
LINE
8
BLACK
10
81410.0
20
51679.0
11
81475.0
21
51835.0
0
LINE
8
BLACK
10
81475.0
20
51835.0
11
81475.0
21
51935.0
0
LINE
8
BLACK
10
81475.0
20
51935.0
11
81954.0
21
52414.0
0
LINE
8
BLACK
10
81954.0
20
52414.0
11
81954.0
21
52415.0
0
LINE
8
BLACK
10
81954.0
20
52415.0
11
81955.0
21
52415.0
0
LINE
8
BLACK
10
81955.0
20
52415.0
11
82017.0
21
52508.0
0
LINE
8
BLACK
10
82017.0
20
52508.0
11
82018.0
21
52509.0
0
LINE
8
BLACK
10
82018.0
20
52509.0
11
82039.0
21
52619.0
0
LINE
8
BLACK
10
82039.0
20
52619.0
11
82040.0
21
52620.0
0
LINE
8
BLACK
10
82040.0
20
52620.0
11
82040.0
21
52644.0
0
LINE
8
BLACK
10
82040.0
20
52644.0
11
82061.0
21
52652.0
0
LINE
8
BLACK
10
82061.0
20
52652.0
11
82191.0
21
52782.0
0
LINE
8
BLACK
10
82191.0
20
52782.0
11
82191.0
21
52771.0
0
LINE
8
BLACK
10
82191.0
20
52771.0
11
82229.0
21
52679.0
0
LINE
8
BLACK
10
82229.0
20
52679.0
11
82299.0
21
52609.0
0
LINE
8
BLACK
10
82299.0
20
52609.0
11
82390.0
21
52571.0
0
LINE
8
BLACK
10
82390.0
20
52571.0
11
82489.0
21
52571.0
0
LINE
8
BLACK
10
82489.0
20
52571.0
11
83109.0
21
52571.0
0
LINE
8
BLACK
10
83109.0
20
52571.0
11
83201.0
21
52609.0
0
LINE
8
BLACK
10
83201.0
20
52609.0
11
83271.0
21
52679.0
0
LINE
8
BLACK
10
83271.0
20
52679.0
11
83309.0
21
52770.0
0
LINE
8
BLACK
10
83309.0
20
52770.0
11
83309.0
21
52869.0
0
LINE
8
BLACK
10
83309.0
20
52869.0
11
83309.0
21
53769.0
0
LINE
8
BLACK
10
83309.0
20
53769.0
11
83271.0
21
53861.0
0
LINE
8
BLACK
10
83271.0
20
53861.0
11
83255.0
21
53877.0
0
LINE
8
BLACK
10
83255.0
20
53877.0
11
83269.0
21
53883.0
0
LINE
8
BLACK
10
83269.0
20
53883.0
11
83825.0
21
53872.0
0
LINE
8
BLACK
10
83825.0
20
53872.0
11
83825.0
21
49166.0
0
ENDSEC
0
EOF
