0
SECTION
2
HEADER
9
$ANGBASE
50
0.0
9
$ANGDIR
70
0
0
ENDSEC
0
SECTION
2
TABLES
0
TABLE
2
LTYPE
70
1
0
LTYPE
2
CONTINUOUS
70
0
3
Solid line
72
65
73
0
40
0.0
0
ENDTAB
0
TABLE
2
LAYER
70
24
0
LAYER
2
BLACK
70
0
62
1
6
CONTINUOUS
0
LAYER
2
BLUE
70
0
62
2
6
CONTINUOUS
0
LAYER
2
GREEN
70
0
62
3
6
CONTINUOUS
0
LAYER
2
CYAN
70
0
62
4
6
CONTINUOUS
0
LAYER
2
RED
70
0
62
5
6
CONTINUOUS
0
LAYER
2
MAGENTA
70
0
62
6
6
CONTINUOUS
0
LAYER
2
BROWN
70
0
62
7
6
CONTINUOUS
0
LAYER
2
GRAY
70
0
62
8
6
CONTINUOUS
0
LAYER
2
DARKGRAY
70
0
62
9
6
CONTINUOUS
0
LAYER
2
LIGHTBLUE
70
0
62
10
6
CONTINUOUS
0
LAYER
2
LIGHTGREEN
70
0
62
11
6
CONTINUOUS
0
LAYER
2
LIGHTCYAN
70
0
62
12
6
CONTINUOUS
0
LAYER
2
LIGHTRED
70
0
62
13
6
CONTINUOUS
0
LAYER
2
LIGHTMAGENTA
70
0
62
14
6
CONTINUOUS
0
LAYER
2
YELLOW
70
0
62
15
6
CONTINUOUS
0
LAYER
2
WHITE
70
0
62
16
6
CONTINUOUS
0
LAYER
2
DARKDARKGRAY
70
0
62
17
6
CONTINUOUS
0
LAYER
2
DARKBLUE
70
0
62
18
6
CONTINUOUS
0
LAYER
2
DARKGREEN
70
0
62
19
6
CONTINUOUS
0
LAYER
2
DARKCYAN
70
0
62
20
6
CONTINUOUS
0
LAYER
2
DARKRED
70
0
62
21
6
CONTINUOUS
0
LAYER
2
DARKMAGENTA
70
0
62
22
6
CONTINUOUS
0
LAYER
2
DARKBROWN
70
0
62
23
6
CONTINUOUS
0
LAYER
2
LIGHTYELLOW
70
0
62
24
6
CONTINUOUS
0
ENDTAB
0
ENDSEC
0
SECTION
2
ENTITIES
0
LINE
8
BLACK
10
64350.0
20
56645.0
11
82750.0
21
56645.0
0
LINE
8
BLACK
10
64350.0
20
56795.0
11
82750.0
21
56795.0
0
ARC
8
BLACK
10
82750.0
20
56720.0
40
75.0
50
270.0
51
450.0
0
ARC
8
BLACK
10
64350.0
20
56720.0
40
75.0
50
90.0
51
270.0
0
LINE
8
BLACK
10
84225.0
20
48220.0
11
84225.0
21
55270.0
0
LINE
8
BLACK
10
84075.0
20
48220.0
11
84075.0
21
55270.0
0
ARC
8
BLACK
10
84150.0
20
55270.0
40
75.0
50
360.0
51
540.0
0
ARC
8
BLACK
10
84150.0
20
48220.0
40
75.0
50
180.0
51
360.0
0
LINE
8
BLACK
10
63050.0
20
46645.0
11
82800.0
21
46645.0
0
LINE
8
BLACK
10
63050.0
20
46795.0
11
82800.0
21
46795.0
0
ARC
8
BLACK
10
82800.0
20
46720.0
40
75.0
50
270.0
51
450.0
0
ARC
8
BLACK
10
63050.0
20
46720.0
40
75.0
50
90.0
51
270.0
0
LINE
8
BLACK
10
62875.0
20
46970.0
11
62875.0
21
55420.0
0
LINE
8
BLACK
10
62725.0
20
46970.0
11
62725.0
21
55420.0
0
ARC
8
BLACK
10
62800.0
20
55420.0
40
75.0
50
360.0
51
540.0
0
ARC
8
BLACK
10
62800.0
20
46970.0
40
75.0
50
180.0
51
360.0
0
ARC
8
BLACK
10
82700.0
20
48170.0
40
1453.0
50
-86.0
51
3.0
0
ARC
8
BLACK
10
64250.0
20
55270.0
40
1453.0
50
86.0
51
176.0
0
ARC
8
BLACK
10
82700.0
20
55270.0
40
1450.0
50
0.0
51
90.0
0
ARC
8
BLACK
10
63050.0
20
46970.0
40
250.0
50
-180.0
51
-90.0
0
LINE
8
BLACK
10
81122.0
20
56451.0
11
81579.0
21
56451.0
0
LINE
8
BLACK
10
78822.0
20
56251.0
11
79279.0
21
56251.0
0
LINE
8
BLACK
10
79050.0
20
55946.0
11
79050.0
21
56556.0
0
LINE
8
BLACK
10
63898.0
20
52449.0
11
63898.0
21
52211.0
0
LINE
8
BLACK
10
63898.0
20
52211.0
11
64398.0
21
52211.0
0
LINE
8
BLACK
10
64160.0
20
52616.0
11
64160.0
21
52783.0
0
LINE
8
BLACK
10
63898.0
20
52854.0
11
63898.0
21
52616.0
0
LINE
8
BLACK
10
63898.0
20
52616.0
11
64398.0
21
52616.0
0
LINE
8
BLACK
10
64398.0
20
52616.0
11
64398.0
21
52854.0
0
LINE
8
BLACK
10
63898.0
20
53068.0
11
64398.0
21
53068.0
0
LINE
8
BLACK
10
64398.0
20
53068.0
11
64398.0
21
53187.0
0
LINE
8
BLACK
10
64398.0
20
53187.0
11
64374.0
21
53259.0
0
LINE
8
BLACK
10
64374.0
20
53259.0
11
64326.0
21
53306.0
0
LINE
8
BLACK
10
64326.0
20
53306.0
11
64279.0
21
53330.0
0
LINE
8
BLACK
10
64279.0
20
53330.0
11
64183.0
21
53354.0
0
LINE
8
BLACK
10
64183.0
20
53354.0
11
64112.0
21
53354.0
0
LINE
8
BLACK
10
64112.0
20
53354.0
11
64017.0
21
53330.0
0
LINE
8
BLACK
10
64017.0
20
53330.0
11
63969.0
21
53306.0
0
LINE
8
BLACK
10
63969.0
20
53306.0
11
63921.0
21
53259.0
0
LINE
8
BLACK
10
63921.0
20
53259.0
11
63898.0
21
53187.0
0
LINE
8
BLACK
10
63898.0
20
53187.0
11
63898.0
21
53068.0
0
LINE
8
BLACK
10
63220.0
20
51698.0
11
63220.0
21
51936.0
0
LINE
8
BLACK
10
63078.0
20
51651.0
11
63578.0
21
51817.0
0
LINE
8
BLACK
10
63578.0
20
51817.0
11
63078.0
21
51984.0
0
LINE
8
BLACK
10
63220.0
20
52127.0
11
63220.0
21
52365.0
0
LINE
8
BLACK
10
63078.0
20
52080.0
11
63578.0
21
52246.0
0
LINE
8
BLACK
10
63578.0
20
52246.0
11
63078.0
21
52413.0
0
LINE
8
BLACK
10
63578.0
20
52794.0
11
63578.0
21
52699.0
0
LINE
8
BLACK
10
63578.0
20
52699.0
11
63554.0
21
52651.0
0
LINE
8
BLACK
10
63554.0
20
52651.0
11
63530.0
21
52628.0
0
LINE
8
BLACK
10
63530.0
20
52628.0
11
63459.0
21
52580.0
0
LINE
8
BLACK
10
63459.0
20
52580.0
11
63363.0
21
52556.0
0
LINE
8
BLACK
10
63363.0
20
52556.0
11
63173.0
21
52556.0
0
LINE
8
BLACK
10
63173.0
20
52556.0
11
63125.0
21
52580.0
0
LINE
8
BLACK
10
63125.0
20
52580.0
11
63101.0
21
52604.0
0
LINE
8
BLACK
10
63101.0
20
52604.0
11
63078.0
21
52651.0
0
LINE
8
BLACK
10
63078.0
20
52651.0
11
63078.0
21
52747.0
0
LINE
8
BLACK
10
63078.0
20
52747.0
11
63101.0
21
52794.0
0
LINE
8
BLACK
10
63101.0
20
52794.0
11
63125.0
21
52818.0
0
LINE
8
BLACK
10
63125.0
20
52818.0
11
63173.0
21
52842.0
0
LINE
8
BLACK
10
63173.0
20
52842.0
11
63292.0
21
52842.0
0
LINE
8
BLACK
10
63292.0
20
52842.0
11
63340.0
21
52818.0
0
LINE
8
BLACK
10
63340.0
20
52818.0
11
63363.0
21
52794.0
0
LINE
8
BLACK
10
63363.0
20
52794.0
11
63387.0
21
52747.0
0
LINE
8
BLACK
10
63387.0
20
52747.0
11
63387.0
21
52651.0
0
LINE
8
BLACK
10
63387.0
20
52651.0
11
63363.0
21
52604.0
0
LINE
8
BLACK
10
63363.0
20
52604.0
11
63340.0
21
52580.0
0
LINE
8
BLACK
10
63340.0
20
52580.0
11
63292.0
21
52556.0
0
LINE
8
BLACK
10
63078.0
20
53056.0
11
63578.0
21
53056.0
0
LINE
8
BLACK
10
63578.0
20
53056.0
11
63578.0
21
53247.0
0
LINE
8
BLACK
10
63578.0
20
53247.0
11
63554.0
21
53294.0
0
LINE
8
BLACK
10
63554.0
20
53294.0
11
63530.0
21
53318.0
0
LINE
8
BLACK
10
63530.0
20
53318.0
11
63482.0
21
53342.0
0
LINE
8
BLACK
10
63482.0
20
53342.0
11
63411.0
21
53342.0
0
LINE
8
BLACK
10
63411.0
20
53342.0
11
63363.0
21
53318.0
0
LINE
8
BLACK
10
63363.0
20
53318.0
11
63340.0
21
53294.0
0
LINE
8
BLACK
10
63340.0
20
53294.0
11
63316.0
21
53247.0
0
LINE
8
BLACK
10
63316.0
20
53247.0
11
63316.0
21
53056.0
0
LINE
8
BLACK
10
63078.0
20
53842.0
11
63316.0
21
53675.0
0
LINE
8
BLACK
10
63078.0
20
53556.0
11
63578.0
21
53556.0
0
LINE
8
BLACK
10
63578.0
20
53556.0
11
63578.0
21
53747.0
0
LINE
8
BLACK
10
63578.0
20
53747.0
11
63554.0
21
53794.0
0
LINE
8
BLACK
10
63554.0
20
53794.0
11
63530.0
21
53818.0
0
LINE
8
BLACK
10
63530.0
20
53818.0
11
63482.0
21
53842.0
0
LINE
8
BLACK
10
63482.0
20
53842.0
11
63411.0
21
53842.0
0
LINE
8
BLACK
10
63411.0
20
53842.0
11
63363.0
21
53818.0
0
LINE
8
BLACK
10
63363.0
20
53818.0
11
63340.0
21
53794.0
0
LINE
8
BLACK
10
63340.0
20
53794.0
11
63316.0
21
53747.0
0
LINE
8
BLACK
10
63316.0
20
53747.0
11
63316.0
21
53556.0
0
ENDSEC
0
EOF
