M48
; DRILL file {KiCad (6.0.1)} date Fri Sep  9 19:25:31 2022
; FORMAT={-:-/ absolute / inch / decimal}
; #@! TF.CreationDate,2022-09-09T19:25:31-04:00
; #@! TF.GenerationSoftware,Kicad,Pcbnew,(6.0.1)
; #@! TF.FileFunction,MixedPlating,1,2
FMAT,2
INCH
; #@! TA.AperFunction,Plated,PTH,ViaDrill
T1C0.0157
; #@! TA.AperFunction,Plated,PTH,ComponentDrill
T2C0.0276
; #@! TA.AperFunction,Plated,PTH,ComponentDrill
T3C0.0315
; #@! TA.AperFunction,Plated,PTH,ComponentDrill
T4C0.0394
; #@! TA.AperFunction,Plated,PTH,ComponentDrill
T5C0.0433
%
G90
G05
T1
X5.42Y-2.8
X5.42Y-3.0
X5.45Y-2.96
X5.45Y-3.1
X5.49Y-3.05
X5.49Y-3.2
X5.52Y-2.9
X5.52Y-3.15
X5.53Y-4.4
X5.5343Y-3.4
X5.56Y-3.35
X5.56Y-4.32
X5.69Y-3.6
X5.75Y-3.58
X5.75Y-4.05
X5.78Y-3.24
X5.78Y-4.14
X5.97Y-3.45
X5.98Y-3.9
X5.98Y-4.05
X6.0Y-2.55
X6.0Y-2.9
X6.025Y-3.45
X6.025Y-3.8
X6.04Y-3.93
X6.05Y-4.09
X6.0598Y-2.8502
X6.06Y-2.6
X6.1268Y-2.6502
X6.127Y-3.0
X6.18Y-3.4
X6.1802Y-3.6502
X6.1902Y-4.1502
X6.206Y-3.299
X6.206Y-3.8
X6.254Y-4.05
X6.255Y-3.101
X6.29Y-3.35
X6.3Y-3.86
X6.35Y-2.8
X6.35Y-4.0
X6.38Y-3.61
X6.45Y-4.8
X6.5Y-4.75
X6.51Y-3.6759
X6.5257Y-4.65
X6.53Y-3.35
X6.53Y-3.45
X6.55Y-2.7515
X6.55Y-2.9
X6.55Y-3.05
X6.55Y-3.5507
X6.5515Y-4.55
X6.5772Y-4.45
X6.6029Y-4.35
X6.63Y-4.25
X6.6557Y-4.15
X6.69Y-3.68
X6.69Y-3.9
X6.72Y-3.35
X6.725Y-2.7
X6.725Y-2.95
X6.73Y-3.85
X6.7543Y-3.31
X6.76Y-3.8
X6.78Y-3.16
X6.78Y-3.75
X6.8Y-2.8
X6.8Y-2.9
X6.81Y-3.4257
X6.81Y-3.6
X6.84Y-3.35
X6.84Y-3.5
X6.875Y-2.6
X6.875Y-2.8
X6.88Y-3.3
X6.88Y-3.4
X6.92Y-3.7
T2
X5.32Y-3.94
X5.62Y-3.94
X5.69Y-4.2
X5.69Y-4.5
X6.19Y-4.69
X6.19Y-4.99
X6.28Y-4.69
X6.28Y-4.99
X6.37Y-4.69
X6.37Y-4.99
T3
X5.3304Y-2.9002
X5.3304Y-3.0002
X5.3304Y-3.1002
X5.3304Y-3.2002
X5.3304Y-3.3002
X5.3304Y-3.4002
X5.3304Y-3.5002
X5.3304Y-3.6002
X5.3304Y-3.7002
X5.3304Y-3.8002
X5.3808Y-4.64
X5.4792Y-4.64
X5.6304Y-2.9002
X5.6304Y-3.0002
X5.6304Y-3.1002
X5.6304Y-3.2002
X5.6304Y-3.3002
X5.6304Y-3.4002
X5.6304Y-3.5002
X5.6304Y-3.6002
X5.6304Y-3.7002
X5.6304Y-3.8002
X5.85Y-2.6
X5.85Y-2.7
X5.85Y-2.8
X5.85Y-2.9
X5.85Y-3.0
X5.85Y-3.1
X5.85Y-3.2
X5.85Y-3.3
X5.85Y-3.4
X5.85Y-3.5
X5.85Y-3.6
X5.85Y-3.7
X5.85Y-3.8
X5.85Y-3.9
X5.85Y-4.0
X5.85Y-4.1
X5.85Y-4.2
X5.85Y-4.3
X5.85Y-4.4
X5.85Y-4.5
X6.45Y-2.6
X6.45Y-2.7
X6.45Y-2.8
X6.45Y-2.9
X6.45Y-3.0
X6.45Y-3.1
X6.45Y-3.2
X6.45Y-3.3
X6.45Y-3.4
X6.45Y-3.5
X6.45Y-3.6
X6.45Y-3.7
X6.45Y-3.8
X6.45Y-3.9
X6.45Y-4.0
X6.45Y-4.1
X6.45Y-4.2
X6.45Y-4.3
X6.45Y-4.4
X6.45Y-4.5
X6.7708Y-4.05
X6.775Y-2.1508
X6.775Y-2.2492
X6.8692Y-4.05
T4
X5.38Y-4.8485
X5.38Y-5.1485
X5.98Y-4.8485
X5.98Y-5.1485
X6.9823Y-2.1502
X6.9823Y-2.2502
X6.9823Y-2.3502
X6.9823Y-2.4502
X6.9823Y-2.5502
X6.9823Y-2.6502
X6.9823Y-2.7502
X6.9823Y-2.8502
X6.9823Y-2.9502
X6.9823Y-3.0502
X6.9823Y-3.1502
X6.9823Y-3.2502
X6.9823Y-3.3502
X6.9823Y-3.4502
X6.9823Y-3.5502
X6.9823Y-3.6502
X6.9823Y-3.7502
X6.9823Y-3.8502
X6.9823Y-3.9502
X6.9823Y-4.0502
X6.9823Y-4.1502
X6.9823Y-4.2502
X6.9823Y-4.3502
X6.9823Y-4.4502
X6.9823Y-4.5502
X6.9823Y-4.6502
X6.9823Y-4.7502
X6.9823Y-4.8502
X6.9823Y-4.9502
X6.9823Y-5.0502
X6.9823Y-5.1502
X6.9823Y-5.2502
X7.0823Y-2.1502
X7.0823Y-2.2502
X7.0823Y-2.3502
X7.0823Y-2.4502
X7.0823Y-2.5502
X7.0823Y-2.6502
X7.0823Y-2.7502
X7.0823Y-2.8502
X7.0823Y-2.9502
X7.0823Y-3.0502
X7.0823Y-3.1502
X7.0823Y-3.2502
X7.0823Y-3.3502
X7.0823Y-3.4502
X7.0823Y-3.5502
X7.0823Y-3.6502
X7.0823Y-3.7502
X7.0823Y-3.8502
X7.0823Y-3.9502
X7.0823Y-4.0502
X7.0823Y-4.1502
X7.0823Y-4.2502
X7.0823Y-4.3502
X7.0823Y-4.4502
X7.0823Y-4.5502
X7.0823Y-4.6502
X7.0823Y-4.7502
X7.0823Y-4.8502
X7.0823Y-4.9502
X7.0823Y-5.0502
X7.0823Y-5.1502
X7.0823Y-5.2502
T5
X5.3641Y-5.4828
X5.3641Y-5.66
X5.62Y-5.4828
X5.62Y-5.66
T0
M30
