G04 #@! TF.GenerationSoftware,KiCad,Pcbnew,(5.0.2)-1*
G04 #@! TF.CreationDate,2019-02-27T20:45:44-05:00*
G04 #@! TF.ProjectId,Blue-Pill-Board,426c7565-2d50-4696-9c6c-2d426f617264,X1*
G04 #@! TF.SameCoordinates,Original*
G04 #@! TF.FileFunction,Legend,Bot*
G04 #@! TF.FilePolarity,Positive*
%FSLAX46Y46*%
G04 Gerber Fmt 4.6, Leading zero omitted, Abs format (unit mm)*
G04 Created by KiCad (PCBNEW (5.0.2)-1) date 2/27/2019 8:45:44 PM*
%MOMM*%
%LPD*%
G01*
G04 APERTURE LIST*
%ADD10C,0.381000*%
%ADD11C,0.650000*%
%ADD12C,0.317500*%
G04 APERTURE END LIST*
D10*
X100937785Y-38172571D02*
X100030642Y-37537571D01*
X100937785Y-37084000D02*
X99032785Y-37084000D01*
X99032785Y-37809714D01*
X99123500Y-37991142D01*
X99214214Y-38081857D01*
X99395642Y-38172571D01*
X99667785Y-38172571D01*
X99849214Y-38081857D01*
X99939928Y-37991142D01*
X100030642Y-37809714D01*
X100030642Y-37084000D01*
X99939928Y-38989000D02*
X99939928Y-39624000D01*
X100937785Y-39896142D02*
X100937785Y-38989000D01*
X99032785Y-38989000D01*
X99032785Y-39896142D01*
X99032785Y-40440428D02*
X100937785Y-41075428D01*
X99032785Y-41710428D01*
X100937785Y-44794714D02*
X100937785Y-43706142D01*
X100937785Y-44250428D02*
X99032785Y-44250428D01*
X99304928Y-44069000D01*
X99486357Y-43887571D01*
X99577071Y-43706142D01*
D11*
G04 #@! TO.C,TEST1*
X99600000Y-85376000D02*
X103600000Y-85376000D01*
X103600000Y-85376000D02*
X103600000Y-89376000D01*
X103600000Y-89376000D02*
X99600000Y-89376000D01*
X99600000Y-89376000D02*
X99600000Y-85376000D01*
X99600000Y-85376000D02*
X99600000Y-85876000D01*
X99600000Y-85876000D02*
X103600000Y-85876000D01*
X103600000Y-85876000D02*
X103600000Y-86376000D01*
X103600000Y-86376000D02*
X99600000Y-86376000D01*
X99600000Y-86376000D02*
X99600000Y-86876000D01*
X99600000Y-86876000D02*
X103600000Y-86876000D01*
X103600000Y-86876000D02*
X103600000Y-87376000D01*
X103600000Y-87376000D02*
X99600000Y-87376000D01*
X99600000Y-87376000D02*
X99600000Y-87876000D01*
X99600000Y-87876000D02*
X103100000Y-87876000D01*
X103100000Y-87876000D02*
X103600000Y-87876000D01*
X103600000Y-87876000D02*
X103600000Y-88376000D01*
X103600000Y-88376000D02*
X99600000Y-88376000D01*
X99600000Y-88376000D02*
X99600000Y-88876000D01*
X99600000Y-88876000D02*
X103600000Y-88876000D01*
D12*
X104230714Y-83180523D02*
X103505000Y-83180523D01*
X103867857Y-84450523D02*
X103867857Y-83180523D01*
X103081666Y-83785285D02*
X102658333Y-83785285D01*
X102476904Y-84450523D02*
X103081666Y-84450523D01*
X103081666Y-83180523D01*
X102476904Y-83180523D01*
X101993095Y-84390047D02*
X101811666Y-84450523D01*
X101509285Y-84450523D01*
X101388333Y-84390047D01*
X101327857Y-84329571D01*
X101267380Y-84208619D01*
X101267380Y-84087666D01*
X101327857Y-83966714D01*
X101388333Y-83906238D01*
X101509285Y-83845761D01*
X101751190Y-83785285D01*
X101872142Y-83724809D01*
X101932619Y-83664333D01*
X101993095Y-83543380D01*
X101993095Y-83422428D01*
X101932619Y-83301476D01*
X101872142Y-83241000D01*
X101751190Y-83180523D01*
X101448809Y-83180523D01*
X101267380Y-83241000D01*
X100904523Y-83180523D02*
X100178809Y-83180523D01*
X100541666Y-84450523D02*
X100541666Y-83180523D01*
X99090238Y-84450523D02*
X99815952Y-84450523D01*
X99453095Y-84450523D02*
X99453095Y-83180523D01*
X99574047Y-83361952D01*
X99695000Y-83482904D01*
X99815952Y-83543380D01*
G04 #@! TD*
M02*
