M48
;DRILL file {Pcbnew (2013-05-31 BZR 4019)-stable} date 9/30/2014 6:57:20 PM
;FORMAT={-:-/ absolute / inch / decimal}
FMAT,2
INCH,TZ
T1C0.025
T2C0.040
T3C0.108
%
G90
G05
M72
T1
X3.15Y-2.165
X3.1934Y-3.9067
X3.3534Y-3.2667
X3.4252Y-2.1063
X3.5609Y-3.4317
X3.885Y-2.15
X4.042Y-2.158
X4.394Y-2.258
X4.46Y-2.66
X4.52Y-2.94
X4.5525Y-2.8675
X5.17Y-2.8
X5.17Y-3.02
X5.18Y-2.91
T2
X3.0854Y-1.8594
X3.0854Y-1.9594
X3.1854Y-1.8594
X3.1854Y-1.9594
X3.1854Y-2.5594
X3.1854Y-2.6594
X3.1854Y-2.7594
X3.1854Y-2.8594
X3.2854Y-1.8594
X3.2854Y-1.9594
X3.2854Y-2.5594
X3.2854Y-2.6594
X3.2854Y-2.7594
X3.2854Y-2.8594
X3.3809Y-3.0217
X3.3854Y-1.8594
X3.3854Y-1.9594
X3.3854Y-2.6594
X3.3854Y-2.7594
X3.3854Y-2.8594
X3.4059Y-3.6717
X3.4059Y-3.7717
X3.4059Y-3.8717
X3.4809Y-3.0217
X3.4854Y-1.8594
X3.4854Y-1.9594
X3.4854Y-2.6594
X3.4854Y-2.7594
X3.4854Y-2.8594
X3.5059Y-3.6717
X3.5059Y-3.7717
X3.5059Y-3.8717
X3.5809Y-3.0217
X3.5854Y-1.8594
X3.5854Y-1.9594
X3.5854Y-2.6594
X3.5854Y-2.7594
X3.5854Y-2.8594
X3.6059Y-3.6717
X3.6059Y-3.7717
X3.6059Y-3.8717
X3.6809Y-3.0217
X3.6854Y-1.8594
X3.6854Y-1.9594
X3.6854Y-2.6594
X3.6854Y-2.7594
X3.6854Y-2.8594
X3.7059Y-3.6717
X3.7059Y-3.7717
X3.7059Y-3.8717
X3.7809Y-3.0217
X3.7854Y-1.8594
X3.7854Y-1.9594
X3.7854Y-2.6594
X3.7854Y-2.7594
X3.7854Y-2.8594
X3.8059Y-3.6717
X3.8059Y-3.7717
X3.8059Y-3.8717
X3.8809Y-3.0217
X3.8854Y-1.8594
X3.8854Y-1.9594
X3.8854Y-2.6594
X3.8854Y-2.7594
X3.8854Y-2.8594
X3.9059Y-3.6717
X3.9059Y-3.7717
X3.9059Y-3.8717
X3.9809Y-3.0217
X3.9854Y-1.8594
X3.9854Y-1.9594
X3.9854Y-2.6594
X3.9854Y-2.7594
X3.9854Y-2.8594
X4.0059Y-3.6717
X4.0059Y-3.7717
X4.0059Y-3.8717
X4.0809Y-3.0217
X4.0854Y-1.8594
X4.0854Y-1.9594
X4.0854Y-2.6594
X4.0854Y-2.7594
X4.0854Y-2.8594
X4.1059Y-3.6717
X4.1059Y-3.7717
X4.1059Y-3.8717
X4.1854Y-1.8594
X4.1854Y-1.9594
X4.1854Y-2.3594
X4.1854Y-2.4594
X4.1854Y-2.5594
X4.1854Y-2.6594
X4.1854Y-2.7594
X4.1854Y-2.8594
X4.2854Y-1.8594
X4.2854Y-1.9594
X4.2854Y-2.3594
X4.2854Y-2.4594
X4.2854Y-2.5594
X4.2854Y-2.6594
X4.2854Y-2.7594
X4.2854Y-2.8594
X4.3854Y-1.8594
X4.3854Y-1.9594
X4.4309Y-2.3467
X4.4309Y-2.4467
X4.4309Y-2.5467
X4.4854Y-1.8594
X4.4854Y-1.9594
X4.5309Y-2.3467
X4.5309Y-2.4467
X4.5309Y-2.5467
X4.5854Y-1.8594
X4.5854Y-1.9594
X4.6309Y-2.3467
X4.6309Y-2.4467
X4.6309Y-2.5467
X4.6854Y-1.8594
X4.6854Y-1.9594
X4.7309Y-2.3467
X4.7309Y-2.4467
X4.7309Y-2.5467
X4.7854Y-1.8594
X4.7854Y-1.9594
X4.8309Y-2.3467
X4.8309Y-2.4467
X4.8309Y-2.5467
X4.8854Y-1.8594
X4.8854Y-1.9594
X4.91Y-3.27
X4.9309Y-2.3467
X4.9309Y-2.4467
X4.9309Y-2.5467
X4.9854Y-1.8594
X4.9854Y-1.9594
X5.01Y-3.27
X5.0309Y-2.3467
X5.0309Y-2.4467
X5.0309Y-2.5467
X5.1309Y-2.3467
X5.1309Y-2.4467
X5.1309Y-2.5467
X5.2309Y-2.3467
X5.2309Y-2.4467
X5.2309Y-2.5467
T3
X2.8937Y-1.9094
X2.8937Y-3.8386
X5.1772Y-1.9094
X5.1772Y-3.8386
T0
M30
