M48
; DRILL file {KiCad (5.1.5)-3} date 11/13/2020 8:06:50 AM
; FORMAT={-:-/ absolute / inch / decimal}
; #@! TF.CreationDate,2020-11-13T08:06:50-05:00
; #@! TF.GenerationSoftware,Kicad,Pcbnew,(5.1.5)-3
; #@! TF.FileFunction,Plated,1,2,PTH
FMAT,2
INCH
T1C0.0394
T2C0.1250
%
G90
G05
T1
X4.92Y-2.87
X5.02Y-2.87
X5.32Y-2.87
X5.42Y-2.87
X4.92Y-2.99
X4.92Y-3.09
X5.02Y-2.99
X5.02Y-3.09
X5.12Y-2.99
X5.12Y-3.09
X5.22Y-2.99
X5.22Y-3.09
X5.32Y-2.99
X5.32Y-3.09
X5.42Y-2.99
X5.42Y-3.09
X4.92Y-2.64
X4.92Y-2.74
X5.02Y-2.64
X5.02Y-2.74
X5.12Y-2.64
X5.12Y-2.74
X5.22Y-2.64
X5.22Y-2.74
X5.32Y-2.64
X5.32Y-2.74
X5.42Y-2.64
X5.42Y-2.74
T2
X4.725Y-2.725
X5.625Y-3.025
X5.625Y-2.725
X4.725Y-3.025
T0
M30
