M48
;DRILL file {kicad (after 2015-mar-04 BZR unknown)-product} date 8/7/2018 12:50:00 PM
;FORMAT={-:-/ absolute / metric / decimal}
FMAT,2
METRIC,TZ
T1C0.635
T2C0.650
T3C0.813
T4C1.016
%
G90
G05
M71
T1
X3.79Y-18.96
X3.937Y-13.208
X4.623Y-29.083
X5.969Y-25.654
X7.62Y-25.24
X7.65Y-22.74
X9.398Y-24.892
X9.652Y-22.86
X10.858Y-24.257
X11.938Y-15.748
X12.383Y-19.05
X12.954Y-14.732
X13.335Y-21.717
X14.908Y-27.584
T3
X5.842Y-13.716
X5.842Y-16.256
X5.88Y-8.38
X5.88Y-10.92
T4
X1.905Y-1.905
X1.905Y-4.445
X4.445Y-1.905
X4.445Y-4.445
X6.985Y-1.905
X6.985Y-4.445
X9.525Y-1.905
X9.525Y-4.445
X12.065Y-1.905
X12.065Y-4.445
X14.605Y-1.905
X14.605Y-4.445
X17.018Y-15.24
X17.018Y-17.78
X17.145Y-1.905
X17.145Y-4.445
X19.685Y-1.905
X19.685Y-4.445
X22.225Y-1.905
X22.225Y-4.445
X24.765Y-1.905
X24.765Y-4.445
X27.305Y-1.905
X27.305Y-4.445
X29.845Y-1.905
X29.845Y-4.445
X32.385Y-1.905
X32.385Y-4.445
T2
X0.972Y-20.149G85X1.822Y-20.149
G05
X0.972Y-27.349G85X1.822Y-27.349
G05
X4.197Y-21.324G85X4.397Y-21.324
G05
X4.197Y-26.174G85X4.397Y-26.174
G05
T0
M30
