G04 #@! TF.FileFunction,Profile,NP*
%FSLAX46Y46*%
G04 Gerber Fmt 4.6, Leading zero omitted, Abs format (unit mm)*
G04 Created by KiCad (PCBNEW (after 2015-mar-04 BZR unknown)-product) date 8/7/2018 12:49:58 PM*
%MOMM*%
G01*
G04 APERTURE LIST*
%ADD10C,0.150000*%
%ADD11C,0.100000*%
G04 APERTURE END LIST*
D10*
D11*
X635000Y-27305000D02*
X889000Y-27051000D01*
X635000Y-27432000D02*
X635000Y-27305000D01*
X762000Y-27559000D02*
X635000Y-27432000D01*
X889000Y-27686000D02*
X762000Y-27559000D01*
X1905000Y-27686000D02*
X889000Y-27686000D01*
X2159000Y-27432000D02*
X1905000Y-27686000D01*
X2159000Y-27305000D02*
X2159000Y-27432000D01*
X1905000Y-27051000D02*
X2159000Y-27305000D01*
X889000Y-27051000D02*
X1905000Y-27051000D01*
X635000Y-20066000D02*
X889000Y-19812000D01*
X635000Y-20193000D02*
X635000Y-20066000D01*
X889000Y-20447000D02*
X635000Y-20193000D01*
X1905000Y-20447000D02*
X889000Y-20447000D01*
X2159000Y-20193000D02*
X1905000Y-20447000D01*
X2159000Y-20066000D02*
X2159000Y-20193000D01*
X1905000Y-19812000D02*
X2159000Y-20066000D01*
X889000Y-19812000D02*
X1905000Y-19812000D01*
X0Y0D02*
X33655000Y0D01*
X0Y-30480000D02*
X0Y0D01*
X33655000Y-30480000D02*
X0Y-30480000D01*
X33655000Y0D02*
X33655000Y-30480000D01*
M02*
