G04 #@! TF.GenerationSoftware,KiCad,Pcbnew,(6.0.1)*
G04 #@! TF.CreationDate,2022-08-01T18:48:13-04:00*
G04 #@! TF.ProjectId,TinyPS2,54696e79-5053-4322-9e6b-696361645f70,X1*
G04 #@! TF.SameCoordinates,Original*
G04 #@! TF.FileFunction,Legend,Bot*
G04 #@! TF.FilePolarity,Positive*
%FSLAX46Y46*%
G04 Gerber Fmt 4.6, Leading zero omitted, Abs format (unit mm)*
G04 Created by KiCad (PCBNEW (6.0.1)) date 2022-08-01 18:48:13*
%MOMM*%
%LPD*%
G01*
G04 APERTURE LIST*
%ADD10C,0.304800*%
%ADD11C,0.508000*%
%ADD12C,0.650000*%
G04 APERTURE END LIST*
D10*
X43760571Y-47788285D02*
X43833142Y-47860857D01*
X44050857Y-47933428D01*
X44196000Y-47933428D01*
X44413714Y-47860857D01*
X44558857Y-47715714D01*
X44631428Y-47570571D01*
X44704000Y-47280285D01*
X44704000Y-47062571D01*
X44631428Y-46772285D01*
X44558857Y-46627142D01*
X44413714Y-46482000D01*
X44196000Y-46409428D01*
X44050857Y-46409428D01*
X43833142Y-46482000D01*
X43760571Y-46554571D01*
X42381714Y-47933428D02*
X43107428Y-47933428D01*
X43107428Y-46409428D01*
X41873714Y-47933428D02*
X41873714Y-46409428D01*
X41002857Y-47933428D02*
X41656000Y-47062571D01*
X41002857Y-46409428D02*
X41873714Y-47280285D01*
X40349714Y-46917428D02*
X39188571Y-47352857D01*
X40349714Y-47788285D01*
D11*
X37301714Y-57815238D02*
X37979047Y-56847619D01*
X38462857Y-57815238D02*
X38462857Y-55783238D01*
X37688761Y-55783238D01*
X37495238Y-55880000D01*
X37398476Y-55976761D01*
X37301714Y-56170285D01*
X37301714Y-56460571D01*
X37398476Y-56654095D01*
X37495238Y-56750857D01*
X37688761Y-56847619D01*
X38462857Y-56847619D01*
X35656761Y-57718476D02*
X35850285Y-57815238D01*
X36237333Y-57815238D01*
X36430857Y-57718476D01*
X36527619Y-57524952D01*
X36527619Y-56750857D01*
X36430857Y-56557333D01*
X36237333Y-56460571D01*
X35850285Y-56460571D01*
X35656761Y-56557333D01*
X35560000Y-56750857D01*
X35560000Y-56944380D01*
X36527619Y-57137904D01*
X34882666Y-56460571D02*
X34398857Y-57815238D01*
X33915047Y-56460571D01*
X30721904Y-56460571D02*
X30721904Y-57815238D01*
X31205714Y-55686476D02*
X31689523Y-57137904D01*
X30431619Y-57137904D01*
X15194521Y-48901047D02*
X15291283Y-49094571D01*
X15484807Y-49191333D01*
X17226521Y-49191333D01*
X15194521Y-47256095D02*
X16258902Y-47256095D01*
X16452426Y-47352857D01*
X16549188Y-47546380D01*
X16549188Y-47933428D01*
X16452426Y-48126952D01*
X15291283Y-47256095D02*
X15194521Y-47449619D01*
X15194521Y-47933428D01*
X15291283Y-48126952D01*
X15484807Y-48223714D01*
X15678331Y-48223714D01*
X15871855Y-48126952D01*
X15968617Y-47933428D01*
X15968617Y-47449619D01*
X16065379Y-47256095D01*
X16549188Y-46288476D02*
X15194521Y-46288476D01*
X16355664Y-46288476D02*
X16452426Y-46191714D01*
X16549188Y-45998190D01*
X16549188Y-45707904D01*
X16452426Y-45514380D01*
X16258902Y-45417619D01*
X15194521Y-45417619D01*
X15194521Y-43579142D02*
X17226521Y-43579142D01*
X15291283Y-43579142D02*
X15194521Y-43772666D01*
X15194521Y-44159714D01*
X15291283Y-44353238D01*
X15388045Y-44450000D01*
X15581569Y-44546761D01*
X16162140Y-44546761D01*
X16355664Y-44450000D01*
X16452426Y-44353238D01*
X16549188Y-44159714D01*
X16549188Y-43772666D01*
X16452426Y-43579142D01*
X15968617Y-42611523D02*
X15968617Y-41063333D01*
X15194521Y-40095714D02*
X17226521Y-40095714D01*
X16452426Y-40095714D02*
X16549188Y-39902190D01*
X16549188Y-39515142D01*
X16452426Y-39321619D01*
X16355664Y-39224857D01*
X16162140Y-39128095D01*
X15581569Y-39128095D01*
X15388045Y-39224857D01*
X15291283Y-39321619D01*
X15194521Y-39515142D01*
X15194521Y-39902190D01*
X15291283Y-40095714D01*
X15194521Y-37966952D02*
X15291283Y-38160476D01*
X15388045Y-38257238D01*
X15581569Y-38354000D01*
X16162140Y-38354000D01*
X16355664Y-38257238D01*
X16452426Y-38160476D01*
X16549188Y-37966952D01*
X16549188Y-37676666D01*
X16452426Y-37483142D01*
X16355664Y-37386380D01*
X16162140Y-37289619D01*
X15581569Y-37289619D01*
X15388045Y-37386380D01*
X15291283Y-37483142D01*
X15194521Y-37676666D01*
X15194521Y-37966952D01*
X15194521Y-35547904D02*
X16258902Y-35547904D01*
X16452426Y-35644666D01*
X16549188Y-35838190D01*
X16549188Y-36225238D01*
X16452426Y-36418761D01*
X15291283Y-35547904D02*
X15194521Y-35741428D01*
X15194521Y-36225238D01*
X15291283Y-36418761D01*
X15484807Y-36515523D01*
X15678331Y-36515523D01*
X15871855Y-36418761D01*
X15968617Y-36225238D01*
X15968617Y-35741428D01*
X16065379Y-35547904D01*
X15194521Y-34580285D02*
X16549188Y-34580285D01*
X16162140Y-34580285D02*
X16355664Y-34483523D01*
X16452426Y-34386761D01*
X16549188Y-34193238D01*
X16549188Y-33999714D01*
X15194521Y-32451523D02*
X17226521Y-32451523D01*
X15291283Y-32451523D02*
X15194521Y-32645047D01*
X15194521Y-33032095D01*
X15291283Y-33225619D01*
X15388045Y-33322380D01*
X15581569Y-33419142D01*
X16162140Y-33419142D01*
X16355664Y-33322380D01*
X16452426Y-33225619D01*
X16549188Y-33032095D01*
X16549188Y-32645047D01*
X16452426Y-32451523D01*
X15291283Y-31580666D02*
X15194521Y-31387142D01*
X15194521Y-31000095D01*
X15291283Y-30806571D01*
X15484807Y-30709809D01*
X15581569Y-30709809D01*
X15775093Y-30806571D01*
X15871855Y-31000095D01*
X15871855Y-31290380D01*
X15968617Y-31483904D01*
X16162140Y-31580666D01*
X16258902Y-31580666D01*
X16452426Y-31483904D01*
X16549188Y-31290380D01*
X16549188Y-31000095D01*
X16452426Y-30806571D01*
X15388045Y-29838952D02*
X15291283Y-29742190D01*
X15194521Y-29838952D01*
X15291283Y-29935714D01*
X15388045Y-29838952D01*
X15194521Y-29838952D01*
X15291283Y-28000476D02*
X15194521Y-28194000D01*
X15194521Y-28581047D01*
X15291283Y-28774571D01*
X15388045Y-28871333D01*
X15581569Y-28968095D01*
X16162140Y-28968095D01*
X16355664Y-28871333D01*
X16452426Y-28774571D01*
X16549188Y-28581047D01*
X16549188Y-28194000D01*
X16452426Y-28000476D01*
X15194521Y-26839333D02*
X15291283Y-27032857D01*
X15388045Y-27129619D01*
X15581569Y-27226380D01*
X16162140Y-27226380D01*
X16355664Y-27129619D01*
X16452426Y-27032857D01*
X16549188Y-26839333D01*
X16549188Y-26549047D01*
X16452426Y-26355523D01*
X16355664Y-26258761D01*
X16162140Y-26162000D01*
X15581569Y-26162000D01*
X15388045Y-26258761D01*
X15291283Y-26355523D01*
X15194521Y-26549047D01*
X15194521Y-26839333D01*
X15194521Y-25291142D02*
X16549188Y-25291142D01*
X16355664Y-25291142D02*
X16452426Y-25194380D01*
X16549188Y-25000857D01*
X16549188Y-24710571D01*
X16452426Y-24517047D01*
X16258902Y-24420285D01*
X15194521Y-24420285D01*
X16258902Y-24420285D02*
X16452426Y-24323523D01*
X16549188Y-24130000D01*
X16549188Y-23839714D01*
X16452426Y-23646190D01*
X16258902Y-23549428D01*
X15194521Y-23549428D01*
X17323283Y-21130380D02*
X14710712Y-22872095D01*
X13955001Y-41014952D02*
X13955001Y-39853809D01*
X11923001Y-40434380D02*
X13955001Y-40434380D01*
X11923001Y-39176476D02*
X13277668Y-39176476D01*
X13955001Y-39176476D02*
X13858240Y-39273238D01*
X13761478Y-39176476D01*
X13858240Y-39079714D01*
X13955001Y-39176476D01*
X13761478Y-39176476D01*
X13277668Y-38208857D02*
X11923001Y-38208857D01*
X13084144Y-38208857D02*
X13180906Y-38112095D01*
X13277668Y-37918571D01*
X13277668Y-37628285D01*
X13180906Y-37434761D01*
X12987382Y-37338000D01*
X11923001Y-37338000D01*
X13277668Y-36563904D02*
X11923001Y-36080095D01*
X13277668Y-35596285D02*
X11923001Y-36080095D01*
X11439192Y-36273619D01*
X11342430Y-36370380D01*
X11245668Y-36563904D01*
X11923001Y-34822190D02*
X13955001Y-34822190D01*
X13955001Y-34048095D01*
X13858240Y-33854571D01*
X13761478Y-33757809D01*
X13567954Y-33661047D01*
X13277668Y-33661047D01*
X13084144Y-33757809D01*
X12987382Y-33854571D01*
X12890620Y-34048095D01*
X12890620Y-34822190D01*
X12019763Y-32886952D02*
X11923001Y-32596666D01*
X11923001Y-32112857D01*
X12019763Y-31919333D01*
X12116525Y-31822571D01*
X12310049Y-31725809D01*
X12503573Y-31725809D01*
X12697097Y-31822571D01*
X12793859Y-31919333D01*
X12890620Y-32112857D01*
X12987382Y-32499904D01*
X13084144Y-32693428D01*
X13180906Y-32790190D01*
X13374430Y-32886952D01*
X13567954Y-32886952D01*
X13761478Y-32790190D01*
X13858240Y-32693428D01*
X13955001Y-32499904D01*
X13955001Y-32016095D01*
X13858240Y-31725809D01*
X13761478Y-30951714D02*
X13858240Y-30854952D01*
X13955001Y-30661428D01*
X13955001Y-30177619D01*
X13858240Y-29984095D01*
X13761478Y-29887333D01*
X13567954Y-29790571D01*
X13374430Y-29790571D01*
X13084144Y-29887333D01*
X11923001Y-31048476D01*
X11923001Y-29790571D01*
D10*
X36503428Y-43143714D02*
X34979428Y-43143714D01*
X34979428Y-43506571D01*
X35052000Y-43724285D01*
X35197142Y-43869428D01*
X35342285Y-43942000D01*
X35632571Y-44014571D01*
X35850285Y-44014571D01*
X36140571Y-43942000D01*
X36285714Y-43869428D01*
X36430857Y-43724285D01*
X36503428Y-43506571D01*
X36503428Y-43143714D01*
X36068000Y-44595142D02*
X36068000Y-45320857D01*
X36503428Y-44450000D02*
X34979428Y-44958000D01*
X36503428Y-45466000D01*
X34979428Y-45756285D02*
X34979428Y-46627142D01*
X36503428Y-46191714D02*
X34979428Y-46191714D01*
X35487428Y-47135142D02*
X35922857Y-48296285D01*
X36358285Y-47135142D01*
X28821343Y-13046165D02*
X28821343Y-14207308D01*
X29421267Y-13626737D02*
X28221419Y-13626737D01*
X27846467Y-15658737D02*
X27846467Y-14933022D01*
X28596372Y-14860451D01*
X28521381Y-14933022D01*
X28446391Y-15078165D01*
X28446391Y-15441022D01*
X28521381Y-15586165D01*
X28596372Y-15658737D01*
X28746353Y-15731308D01*
X29121305Y-15731308D01*
X29271286Y-15658737D01*
X29346277Y-15586165D01*
X29421267Y-15441022D01*
X29421267Y-15078165D01*
X29346277Y-14933022D01*
X29271286Y-14860451D01*
X27846467Y-16166737D02*
X29421267Y-16674737D01*
X27846467Y-17182737D01*
X31881705Y-10651308D02*
X31956695Y-10869022D01*
X31956695Y-11231880D01*
X31881705Y-11377022D01*
X31806714Y-11449594D01*
X31656733Y-11522165D01*
X31506752Y-11522165D01*
X31356771Y-11449594D01*
X31281781Y-11377022D01*
X31206790Y-11231880D01*
X31131800Y-10941594D01*
X31056809Y-10796451D01*
X30981819Y-10723880D01*
X30831838Y-10651308D01*
X30681857Y-10651308D01*
X30531876Y-10723880D01*
X30456886Y-10796451D01*
X30381895Y-10941594D01*
X30381895Y-11304451D01*
X30456886Y-11522165D01*
X31131800Y-12175308D02*
X31131800Y-12683308D01*
X31956695Y-12901022D02*
X31956695Y-12175308D01*
X30381895Y-12175308D01*
X30381895Y-12901022D01*
X31956695Y-14425022D02*
X31206790Y-13917022D01*
X31956695Y-13554165D02*
X30381895Y-13554165D01*
X30381895Y-14134737D01*
X30456886Y-14279880D01*
X30531876Y-14352451D01*
X30681857Y-14425022D01*
X30906828Y-14425022D01*
X31056809Y-14352451D01*
X31131800Y-14279880D01*
X31206790Y-14134737D01*
X31206790Y-13554165D01*
X30381895Y-14860451D02*
X30381895Y-15731308D01*
X31956695Y-15295880D02*
X30381895Y-15295880D01*
X30381895Y-16094165D02*
X31956695Y-17110165D01*
X30381895Y-17110165D02*
X31956695Y-16094165D01*
X34492123Y-14715308D02*
X32917323Y-14715308D01*
X32917323Y-15078165D01*
X32992314Y-15295880D01*
X33142294Y-15441022D01*
X33292275Y-15513594D01*
X33592237Y-15586165D01*
X33817209Y-15586165D01*
X34117171Y-15513594D01*
X34267152Y-15441022D01*
X34417133Y-15295880D01*
X34492123Y-15078165D01*
X34492123Y-14715308D01*
X33067304Y-16166737D02*
X32992314Y-16239308D01*
X32917323Y-16384451D01*
X32917323Y-16747308D01*
X32992314Y-16892451D01*
X33067304Y-16965022D01*
X33217285Y-17037594D01*
X33367266Y-17037594D01*
X33592237Y-16965022D01*
X34492123Y-16094165D01*
X34492123Y-17037594D01*
X35527742Y-13844451D02*
X35452751Y-13699308D01*
X35452751Y-13481594D01*
X35527742Y-13263880D01*
X35677722Y-13118737D01*
X35827703Y-13046165D01*
X36127665Y-12973594D01*
X36352637Y-12973594D01*
X36652599Y-13046165D01*
X36802580Y-13118737D01*
X36952561Y-13263880D01*
X37027551Y-13481594D01*
X37027551Y-13626737D01*
X36952561Y-13844451D01*
X36877570Y-13917022D01*
X36352637Y-13917022D01*
X36352637Y-13626737D01*
X37027551Y-14570165D02*
X35452751Y-14570165D01*
X37027551Y-15441022D01*
X35452751Y-15441022D01*
X37027551Y-16166737D02*
X35452751Y-16166737D01*
X35452751Y-16529594D01*
X35527742Y-16747308D01*
X35677722Y-16892451D01*
X35827703Y-16965022D01*
X36127665Y-17037594D01*
X36352637Y-17037594D01*
X36652599Y-16965022D01*
X36802580Y-16892451D01*
X36952561Y-16747308D01*
X37027551Y-16529594D01*
X37027551Y-16166737D01*
X55771142Y-42909428D02*
X54900285Y-42909428D01*
X55335714Y-44433428D02*
X55335714Y-42909428D01*
X54392285Y-43635142D02*
X53884285Y-43635142D01*
X53666571Y-44433428D02*
X54392285Y-44433428D01*
X54392285Y-42909428D01*
X53666571Y-42909428D01*
X53086000Y-44360857D02*
X52868285Y-44433428D01*
X52505428Y-44433428D01*
X52360285Y-44360857D01*
X52287714Y-44288285D01*
X52215142Y-44143142D01*
X52215142Y-43998000D01*
X52287714Y-43852857D01*
X52360285Y-43780285D01*
X52505428Y-43707714D01*
X52795714Y-43635142D01*
X52940857Y-43562571D01*
X53013428Y-43490000D01*
X53086000Y-43344857D01*
X53086000Y-43199714D01*
X53013428Y-43054571D01*
X52940857Y-42982000D01*
X52795714Y-42909428D01*
X52432857Y-42909428D01*
X52215142Y-42982000D01*
X51779714Y-42909428D02*
X50908857Y-42909428D01*
X51344285Y-44433428D02*
X51344285Y-42909428D01*
D12*
X55340000Y-47244000D02*
X51340000Y-47244000D01*
X51340000Y-46744000D02*
X55340000Y-46744000D01*
X51340000Y-45244000D02*
X51340000Y-45744000D01*
X51340000Y-47744000D02*
X54840000Y-47744000D01*
X55340000Y-47744000D02*
X55340000Y-48244000D01*
X55340000Y-49244000D02*
X51340000Y-49244000D01*
X51340000Y-47244000D02*
X51340000Y-47744000D01*
X55340000Y-46744000D02*
X55340000Y-47244000D01*
X51340000Y-45244000D02*
X55340000Y-45244000D01*
X51340000Y-49244000D02*
X51340000Y-45244000D01*
X51340000Y-45744000D02*
X55340000Y-45744000D01*
X55340000Y-48244000D02*
X51340000Y-48244000D01*
X51340000Y-46244000D02*
X51340000Y-46744000D01*
X55340000Y-46244000D02*
X51340000Y-46244000D01*
X54840000Y-47744000D02*
X55340000Y-47744000D01*
X55340000Y-45244000D02*
X55340000Y-49244000D01*
X51340000Y-48244000D02*
X51340000Y-48744000D01*
X51340000Y-48744000D02*
X55340000Y-48744000D01*
X55340000Y-45744000D02*
X55340000Y-46244000D01*
M02*
