M48
; DRILL file {KiCad (6.0.1)} date Mon Aug  1 18:48:16 2022
; FORMAT={-:-/ absolute / inch / decimal}
; #@! TF.CreationDate,2022-08-01T18:48:16-04:00
; #@! TF.GenerationSoftware,Kicad,Pcbnew,(6.0.1)
; #@! TF.FileFunction,MixedPlating,1,2
FMAT,2
INCH
; #@! TA.AperFunction,Plated,PTH,ViaDrill
T1C0.0250
; #@! TA.AperFunction,Plated,PTH,ComponentDrill
T2C0.0315
; #@! TA.AperFunction,Plated,PTH,ComponentDrill
T3C0.0394
; #@! TA.AperFunction,Plated,PTH,ComponentDrill
T4C0.0433
; #@! TA.AperFunction,Plated,PTH,ComponentDrill
T5C0.1250
%
G90
G05
T1
X0.97Y-1.25
X1.12Y-1.52
X1.17Y-1.52
T2
X0.84Y-1.2616
X0.84Y-1.4584
X0.89Y-1.83
X0.89Y-2.23
X1.2248Y-1.8593
X1.2248Y-1.9695
X1.3075Y-1.9695
X1.4098Y-1.9695
X1.4925Y-1.8593
X1.4925Y-1.9695
X1.63Y-0.89
X1.63Y-1.49
X1.73Y-0.89
X1.73Y-1.49
X1.83Y-0.89
X1.83Y-1.49
X1.84Y-1.84
X1.84Y-2.24
X1.93Y-0.89
X1.93Y-1.49
X2.03Y-0.89
X2.03Y-1.49
X2.13Y-0.89
X2.13Y-1.49
X2.23Y-0.89
X2.23Y-1.49
T3
X1.1304Y-0.8222
X1.2304Y-0.8222
X1.3304Y-0.8222
X1.4304Y-0.8222
T4
X0.87Y-0.68
X0.87Y-1.08
T5
X0.5512Y-0.5512
X0.5512Y-2.1654
X2.1654Y-0.5512
X2.1654Y-2.1654
T3
G00X1.089Y-2.0522
M15
G01X1.089Y-2.1112
M16
G05
G00X1.3193Y-2.1132
M15
G01X1.398Y-2.1132
M16
G05
G00X1.6283Y-2.0522
M15
G01X1.6283Y-2.1112
M16
G05
T0
M30
