  0
SECTION
  2
HEADER
  9
$ANGBASE
  50
0.0
  9
$ANGDIR
  70
  1
  9
$MEASUREMENT
  70
0
  0
ENDSEC
  0
SECTION
  2
TABLES
  0
TABLE
  2
LTYPE
  70
1
  0
LTYPE
  2
CONTINUOUS
  70
0
  3
Solid line
  72
65
  73
0
  40
0.0
  0
ENDTAB
  0
TABLE
  2
STYLE
  70
4
  0
STYLE
  2
KICAD
  70
0
  40
0
  41
1
  42
1
  50
0
  71
0
  3
isocp.shx
  0
STYLE
  2
KICADB
  70
0
  40
0
  41
1
  42
1
  50
0
  71
0
  3
isocp.shx
  0
STYLE
  2
KICADI
  70
0
  40
0
  41
1
  42
1
  50
15
  71
0
  3
isocp.shx
  0
STYLE
  2
KICADBI
  70
0
  40
0
  41
1
  42
1
  50
15
  71
0
  3
isocp.shx
  0
ENDTAB
  0
TABLE
  2
LAYER
  70
30
  0
LAYER
  2
BLACK
  70
0
  62
7
  6
CONTINUOUS
  0
LAYER
  2
GRAY1
  70
0
  62
251
  6
CONTINUOUS
  0
LAYER
  2
GRAY2
  70
0
  62
8
  6
CONTINUOUS
  0
LAYER
  2
GRAY3
  70
0
  62
9
  6
CONTINUOUS
  0
LAYER
  2
WHITE
  70
0
  62
7
  6
CONTINUOUS
  0
LAYER
  2
LYELLOW
  70
0
  62
51
  6
CONTINUOUS
  0
LAYER
  2
BLUE1
  70
0
  62
178
  6
CONTINUOUS
  0
LAYER
  2
GREEN1
  70
0
  62
98
  6
CONTINUOUS
  0
LAYER
  2
CYAN1
  70
0
  62
138
  6
CONTINUOUS
  0
LAYER
  2
RED1
  70
0
  62
18
  6
CONTINUOUS
  0
LAYER
  2
MAGENTA1
  70
0
  62
228
  6
CONTINUOUS
  0
LAYER
  2
BROWN1
  70
0
  62
58
  6
CONTINUOUS
  0
LAYER
  2
BLUE2
  70
0
  62
5
  6
CONTINUOUS
  0
LAYER
  2
GREEN2
  70
0
  62
3
  6
CONTINUOUS
  0
LAYER
  2
CYAN2
  70
0
  62
4
  6
CONTINUOUS
  0
LAYER
  2
RED2
  70
0
  62
1
  6
CONTINUOUS
  0
LAYER
  2
MAGENTA2
  70
0
  62
6
  6
CONTINUOUS
  0
LAYER
  2
BROWN2
  70
0
  62
54
  6
CONTINUOUS
  0
LAYER
  2
BLUE3
  70
0
  62
171
  6
CONTINUOUS
  0
LAYER
  2
GREEN3
  70
0
  62
91
  6
CONTINUOUS
  0
LAYER
  2
CYAN3
  70
0
  62
131
  6
CONTINUOUS
  0
LAYER
  2
RED3
  70
0
  62
11
  6
CONTINUOUS
  0
LAYER
  2
MAGENTA3
  70
0
  62
221
  6
CONTINUOUS
  0
LAYER
  2
YELLOW3
  70
0
  62
2
  6
CONTINUOUS
  0
LAYER
  2
BLUE4
  70
0
  62
5
  6
CONTINUOUS
  0
LAYER
  2
GREEN4
  70
0
  62
3
  6
CONTINUOUS
  0
LAYER
  2
CYAN4
  70
0
  62
4
  6
CONTINUOUS
  0
LAYER
  2
RED4
  70
0
  62
1
  6
CONTINUOUS
  0
LAYER
  2
MAGENTA4
  70
0
  62
6
  6
CONTINUOUS
  0
LAYER
  2
YELLOW4
  70
0
  62
2
  6
CONTINUOUS
  0
ENDTAB
  0
ENDSEC
  0
SECTION
  2
ENTITIES
0
LINE
8
Black
10
204.191
20
-125
11
204.191
21
-84
0
LINE
8
Black
10
203.81
20
-125
11
203.81
21
-84
0
ARC
8
Black
10
204
20
-84
40
0.1905
50
360
51
540
0
ARC
8
Black
10
204
20
-125
40
0.1905
50
180
51
360
0
LINE
8
Black
10
159
20
-129.191
11
200
21
-129.191
0
LINE
8
Black
10
159
20
-128.81
11
200
21
-128.81
0
ARC
8
Black
10
200
20
-129
40
0.1905
50
270
51
450
0
ARC
8
Black
10
159
20
-129
40
0.1905
50
90
51
270
0
LINE
8
Black
10
155.191
20
-125
11
155.191
21
-84
0
LINE
8
Black
10
154.81
20
-125
11
154.81
21
-84
0
ARC
8
Black
10
155
20
-84
40
0.1905
50
360
51
540
0
ARC
8
Black
10
155
20
-125
40
0.1905
50
180
51
360
0
LINE
8
Black
10
159
20
-80.1905
11
200
21
-80.1905
0
LINE
8
Black
10
159
20
-79.8095
11
200
21
-79.8095
0
ARC
8
Black
10
200
20
-80
40
0.1905
50
270
51
450
0
ARC
8
Black
10
159
20
-80
40
0.1905
50
90
51
270
0
ARC
8
Black
10
159
20
-125
40
4
50
-180
51
-90
0
ARC
8
Black
10
200
20
-125
40
4
50
-90
51
-0
0
ARC
8
Black
10
200
20
-84
40
4
50
-0
51
90
0
ARC
8
Black
10
159
20
-84
40
4
50
90
51
180
0
LINE
8
Black
10
163.005
20
-111.316
11
163.64
21
-111.951
0
LINE
8
Black
10
163.64
20
-111.316
11
163.005
21
-111.951
0
LINE
8
Black
10
164.783
20
-105.728
11
165.418
21
-106.363
0
LINE
8
Black
10
165.418
20
-105.728
11
164.783
21
-106.363
0
LINE
8
Black
10
165.545
20
-94.0435
11
166.18
21
-94.6785
0
LINE
8
Black
10
166.18
20
-94.0435
11
165.545
21
-94.6785
0
LINE
8
Black
10
167.196
20
-105.728
11
167.831
21
-106.363
0
LINE
8
Black
10
167.831
20
-105.728
11
167.196
21
-106.363
0
LINE
8
Black
10
167.831
20
-94.2975
11
168.466
21
-94.9325
0
LINE
8
Black
10
168.466
20
-94.2975
11
167.831
21
-94.9325
0
LINE
8
Black
10
169.482
20
-105.982
11
170.117
21
-106.617
0
LINE
8
Black
10
170.117
20
-105.982
11
169.482
21
-106.617
0
LINE
8
Black
10
170.371
20
-94.5515
11
171.006
21
-95.1865
0
LINE
8
Black
10
171.006
20
-94.5515
11
170.371
21
-95.1865
0
LINE
8
Black
10
174.435
20
-108.903
11
175.07
21
-109.538
0
LINE
8
Black
10
175.07
20
-108.903
11
174.435
21
-109.538
0
LINE
8
Black
10
178.753
20
-115.253
11
179.388
21
-115.888
0
LINE
8
Black
10
179.388
20
-115.253
11
178.753
21
-115.888
0
LINE
8
Black
10
180.023
20
-111.443
11
180.658
21
-112.078
0
LINE
8
Black
10
180.658
20
-111.443
11
180.023
21
-112.078
0
LINE
8
Black
10
181.801
20
-92.9005
11
182.436
21
-93.5355
0
LINE
8
Black
10
182.436
20
-92.9005
11
181.801
21
-93.5355
0
LINE
8
Black
10
184.595
20
-98.4885
11
185.23
21
-99.1235
0
LINE
8
Black
10
185.23
20
-98.4885
11
184.595
21
-99.1235
0
LINE
8
Black
10
184.838
20
-104.066
11
185.473
21
-104.701
0
LINE
8
Black
10
185.473
20
-104.066
11
184.838
21
-104.701
0
LINE
8
Black
10
187.436
20
-98.8225
11
188.071
21
-99.4575
0
LINE
8
Black
10
188.071
20
-98.8225
11
187.436
21
-99.4575
0
LINE
8
Black
10
188.405
20
-110.427
11
189.04
21
-111.062
0
LINE
8
Black
10
189.04
20
-110.427
11
188.405
21
-111.062
0
LINE
8
Black
10
190.818
20
-110.3
11
191.453
21
-110.935
0
LINE
8
Black
10
191.453
20
-110.3
11
190.818
21
-110.935
0
LINE
8
Black
10
190.945
20
-100.013
11
191.58
21
-100.648
0
LINE
8
Black
10
191.58
20
-100.013
11
190.945
21
-100.648
0
LINE
8
Black
10
193.231
20
-110.427
11
193.866
21
-111.062
0
LINE
8
Black
10
193.866
20
-110.427
11
193.231
21
-111.062
0
CIRCLE
8
Black
10
159.385
20
-107.315
40
0.508
0
CIRCLE
8
Black
10
159.385
20
-109.855
40
0.508
0
CIRCLE
8
Black
10
159.385
20
-112.395
40
0.508
0
CIRCLE
8
Black
10
159.385
20
-114.935
40
0.508
0
CIRCLE
8
Black
10
159.385
20
-117.475
40
0.508
0
CIRCLE
8
Black
10
159.512
20
-90.17
40
0.508
0
CIRCLE
8
Black
10
159.512
20
-92.71
40
0.508
0
CIRCLE
8
Black
10
159.512
20
-95.25
40
0.508
0
CIRCLE
8
Black
10
159.512
20
-97.79
40
0.508
0
CIRCLE
8
Black
10
159.512
20
-100.33
40
0.508
0
CIRCLE
8
Black
10
161.925
20
-114.935
40
0.508
0
CIRCLE
8
Black
10
161.925
20
-117.475
40
0.508
0
CIRCLE
8
Black
10
162.052
20
-97.79
40
0.508
0
CIRCLE
8
Black
10
162.052
20
-100.33
40
0.508
0
CIRCLE
8
Black
10
175.26
20
-123.19
40
0.508
0
CIRCLE
8
Black
10
177.8
20
-123.19
40
0.508
0
CIRCLE
8
Black
10
180.34
20
-123.19
40
0.508
0
CIRCLE
8
Black
10
182.88
20
-123.19
40
0.508
0
CIRCLE
8
Black
10
185.42
20
-123.19
40
0.508
0
CIRCLE
8
Black
10
197.485
20
-91.44
40
0.508
0
CIRCLE
8
Black
10
197.485
20
-93.98
40
0.508
0
CIRCLE
8
Black
10
197.485
20
-106.68
40
0.508
0
CIRCLE
8
Black
10
197.485
20
-109.22
40
0.508
0
CIRCLE
8
Black
10
200.025
20
-91.44
40
0.508
0
CIRCLE
8
Black
10
200.025
20
-93.98
40
0.508
0
CIRCLE
8
Black
10
200.025
20
-96.52
40
0.508
0
CIRCLE
8
Black
10
200.025
20
-99.06
40
0.508
0
CIRCLE
8
Black
10
200.025
20
-101.6
40
0.508
0
CIRCLE
8
Black
10
200.025
20
-106.68
40
0.508
0
CIRCLE
8
Black
10
200.025
20
-109.22
40
0.508
0
CIRCLE
8
Black
10
200.025
20
-111.76
40
0.508
0
CIRCLE
8
Black
10
200.025
20
-114.3
40
0.508
0
CIRCLE
8
Black
10
200.025
20
-116.84
40
0.508
0
LINE
8
Black
10
159
20
-82.4125
11
159
21
-85.5875
0
LINE
8
Black
10
157.413
20
-84
11
160.588
21
-84
0
LINE
8
Black
10
159
20
-123.413
11
159
21
-126.588
0
LINE
8
Black
10
157.413
20
-125
11
160.588
21
-125
0
LINE
8
Black
10
200
20
-82.4125
11
200
21
-85.5875
0
LINE
8
Black
10
198.413
20
-84
11
201.588
21
-84
0
LINE
8
Black
10
200
20
-123.413
11
200
21
-126.588
0
LINE
8
Black
10
198.413
20
-125
11
201.588
21
-125
0
LINE
8
Black
10
157.524
20
-133.848
11
157.524
21
-130.848
0
LINE
8
Black
10
157.524
20
-130.848
11
158.238
21
-130.848
0
LINE
8
Black
10
158.238
20
-130.848
11
158.667
21
-130.991
0
LINE
8
Black
10
158.667
20
-130.991
11
158.952
21
-131.276
0
LINE
8
Black
10
158.952
20
-131.276
11
159.095
21
-131.562
0
LINE
8
Black
10
159.095
20
-131.562
11
159.238
21
-132.133
0
LINE
8
Black
10
159.238
20
-132.133
11
159.238
21
-132.562
0
LINE
8
Black
10
159.238
20
-132.562
11
159.095
21
-133.133
0
LINE
8
Black
10
159.095
20
-133.133
11
158.952
21
-133.419
0
LINE
8
Black
10
158.952
20
-133.419
11
158.667
21
-133.705
0
LINE
8
Black
10
158.667
20
-133.705
11
158.238
21
-133.848
0
LINE
8
Black
10
158.238
20
-133.848
11
157.524
21
-133.848
0
LINE
8
Black
10
160.524
20
-133.848
11
160.524
21
-131.848
0
LINE
8
Black
10
160.524
20
-132.419
11
160.667
21
-132.133
0
LINE
8
Black
10
160.667
20
-132.133
11
160.809
21
-131.991
0
LINE
8
Black
10
160.809
20
-131.991
11
161.095
21
-131.848
0
LINE
8
Black
10
161.095
20
-131.848
11
161.381
21
-131.848
0
LINE
8
Black
10
162.381
20
-133.848
11
162.381
21
-131.848
0
LINE
8
Black
10
162.381
20
-130.848
11
162.238
21
-130.991
0
LINE
8
Black
10
162.238
20
-130.991
11
162.381
21
-131.133
0
LINE
8
Black
10
162.381
20
-131.133
11
162.524
21
-130.991
0
LINE
8
Black
10
162.524
20
-130.991
11
162.381
21
-130.848
0
LINE
8
Black
10
162.381
20
-130.848
11
162.381
21
-131.133
0
LINE
8
Black
10
164.238
20
-133.848
11
163.952
21
-133.705
0
LINE
8
Black
10
163.952
20
-133.705
11
163.809
21
-133.419
0
LINE
8
Black
10
163.809
20
-133.419
11
163.809
21
-130.848
0
LINE
8
Black
10
165.809
20
-133.848
11
165.524
21
-133.705
0
LINE
8
Black
10
165.524
20
-133.705
11
165.381
21
-133.419
0
LINE
8
Black
10
165.381
20
-133.419
11
165.381
21
-130.848
0
LINE
8
Black
10
169.238
20
-133.848
11
169.238
21
-130.848
0
LINE
8
Black
10
169.238
20
-130.848
11
170.238
21
-132.991
0
LINE
8
Black
10
170.238
20
-132.991
11
171.238
21
-130.848
0
LINE
8
Black
10
171.238
20
-130.848
11
171.238
21
-133.848
0
LINE
8
Black
10
173.952
20
-133.848
11
173.952
21
-132.276
0
LINE
8
Black
10
173.952
20
-132.276
11
173.809
21
-131.991
0
LINE
8
Black
10
173.809
20
-131.991
11
173.524
21
-131.848
0
LINE
8
Black
10
173.524
20
-131.848
11
172.952
21
-131.848
0
LINE
8
Black
10
172.952
20
-131.848
11
172.667
21
-131.991
0
LINE
8
Black
10
173.952
20
-133.705
11
173.667
21
-133.848
0
LINE
8
Black
10
173.667
20
-133.848
11
172.952
21
-133.848
0
LINE
8
Black
10
172.952
20
-133.848
11
172.667
21
-133.705
0
LINE
8
Black
10
172.667
20
-133.705
11
172.524
21
-133.419
0
LINE
8
Black
10
172.524
20
-133.419
11
172.524
21
-133.133
0
LINE
8
Black
10
172.524
20
-133.133
11
172.667
21
-132.848
0
LINE
8
Black
10
172.667
20
-132.848
11
172.952
21
-132.705
0
LINE
8
Black
10
172.952
20
-132.705
11
173.667
21
-132.705
0
LINE
8
Black
10
173.667
20
-132.705
11
173.952
21
-132.562
0
LINE
8
Black
10
175.381
20
-131.848
11
175.381
21
-134.848
0
LINE
8
Black
10
175.381
20
-131.991
11
175.667
21
-131.848
0
LINE
8
Black
10
175.667
20
-131.848
11
176.238
21
-131.848
0
LINE
8
Black
10
176.238
20
-131.848
11
176.524
21
-131.991
0
LINE
8
Black
10
176.524
20
-131.991
11
176.667
21
-132.133
0
LINE
8
Black
10
176.667
20
-132.133
11
176.809
21
-132.419
0
LINE
8
Black
10
176.809
20
-132.419
11
176.809
21
-133.276
0
LINE
8
Black
10
176.809
20
-133.276
11
176.667
21
-133.562
0
LINE
8
Black
10
176.667
20
-133.562
11
176.524
21
-133.705
0
LINE
8
Black
10
176.524
20
-133.705
11
176.238
21
-133.848
0
LINE
8
Black
10
176.238
20
-133.848
11
175.667
21
-133.848
0
LINE
8
Black
10
175.667
20
-133.848
11
175.381
21
-133.705
0
LINE
8
Black
10
178.095
20
-133.562
11
178.238
21
-133.705
0
LINE
8
Black
10
178.238
20
-133.705
11
178.095
21
-133.848
0
LINE
8
Black
10
178.095
20
-133.848
11
177.952
21
-133.705
0
LINE
8
Black
10
177.952
20
-133.705
11
178.095
21
-133.562
0
LINE
8
Black
10
178.095
20
-133.562
11
178.095
21
-133.848
0
LINE
8
Black
10
178.095
20
-131.991
11
178.238
21
-132.133
0
LINE
8
Black
10
178.238
20
-132.133
11
178.095
21
-132.276
0
LINE
8
Black
10
178.095
20
-132.276
11
177.952
21
-132.133
0
LINE
8
Black
10
177.952
20
-132.133
11
178.095
21
-131.991
0
LINE
8
Black
10
178.095
20
-131.991
11
178.095
21
-132.276
0
LINE
8
Black
10
154.174
20
-138.473
11
154.809
21
-139.108
0
LINE
8
Black
10
154.809
20
-138.473
11
154.174
21
-139.108
0
LINE
8
Black
10
158.095
20
-137.148
11
158.381
21
-137.148
0
LINE
8
Black
10
158.381
20
-137.148
11
158.667
21
-137.291
0
LINE
8
Black
10
158.667
20
-137.291
11
158.809
21
-137.433
0
LINE
8
Black
10
158.809
20
-137.433
11
158.952
21
-137.719
0
LINE
8
Black
10
158.952
20
-137.719
11
159.095
21
-138.291
0
LINE
8
Black
10
159.095
20
-138.291
11
159.095
21
-139.005
0
LINE
8
Black
10
159.095
20
-139.005
11
158.952
21
-139.576
0
LINE
8
Black
10
158.952
20
-139.576
11
158.809
21
-139.862
0
LINE
8
Black
10
158.809
20
-139.862
11
158.667
21
-140.005
0
LINE
8
Black
10
158.667
20
-140.005
11
158.381
21
-140.148
0
LINE
8
Black
10
158.381
20
-140.148
11
158.095
21
-140.148
0
LINE
8
Black
10
158.095
20
-140.148
11
157.809
21
-140.005
0
LINE
8
Black
10
157.809
20
-140.005
11
157.667
21
-139.862
0
LINE
8
Black
10
157.667
20
-139.862
11
157.524
21
-139.576
0
LINE
8
Black
10
157.524
20
-139.576
11
157.381
21
-139.005
0
LINE
8
Black
10
157.381
20
-139.005
11
157.381
21
-138.291
0
LINE
8
Black
10
157.381
20
-138.291
11
157.524
21
-137.719
0
LINE
8
Black
10
157.524
20
-137.719
11
157.667
21
-137.433
0
LINE
8
Black
10
157.667
20
-137.433
11
157.809
21
-137.291
0
LINE
8
Black
10
157.809
20
-137.291
11
158.095
21
-137.148
0
LINE
8
Black
10
160.381
20
-139.862
11
160.524
21
-140.005
0
LINE
8
Black
10
160.524
20
-140.005
11
160.381
21
-140.148
0
LINE
8
Black
10
160.381
20
-140.148
11
160.238
21
-140.005
0
LINE
8
Black
10
160.238
20
-140.005
11
160.381
21
-139.862
0
LINE
8
Black
10
160.381
20
-139.862
11
160.381
21
-140.148
0
LINE
8
Black
10
163.095
20
-137.148
11
162.524
21
-137.148
0
LINE
8
Black
10
162.524
20
-137.148
11
162.238
21
-137.291
0
LINE
8
Black
10
162.238
20
-137.291
11
162.095
21
-137.433
0
LINE
8
Black
10
162.095
20
-137.433
11
161.809
21
-137.862
0
LINE
8
Black
10
161.809
20
-137.862
11
161.667
21
-138.433
0
LINE
8
Black
10
161.667
20
-138.433
11
161.667
21
-139.576
0
LINE
8
Black
10
161.667
20
-139.576
11
161.809
21
-139.862
0
LINE
8
Black
10
161.809
20
-139.862
11
161.952
21
-140.005
0
LINE
8
Black
10
161.952
20
-140.005
11
162.238
21
-140.148
0
LINE
8
Black
10
162.238
20
-140.148
11
162.809
21
-140.148
0
LINE
8
Black
10
162.809
20
-140.148
11
163.095
21
-140.005
0
LINE
8
Black
10
163.095
20
-140.005
11
163.238
21
-139.862
0
LINE
8
Black
10
163.238
20
-139.862
11
163.381
21
-139.576
0
LINE
8
Black
10
163.381
20
-139.576
11
163.381
21
-138.862
0
LINE
8
Black
10
163.381
20
-138.862
11
163.238
21
-138.576
0
LINE
8
Black
10
163.238
20
-138.576
11
163.095
21
-138.433
0
LINE
8
Black
10
163.095
20
-138.433
11
162.809
21
-138.291
0
LINE
8
Black
10
162.809
20
-138.291
11
162.238
21
-138.291
0
LINE
8
Black
10
162.238
20
-138.291
11
161.952
21
-138.433
0
LINE
8
Black
10
161.952
20
-138.433
11
161.809
21
-138.576
0
LINE
8
Black
10
161.809
20
-138.576
11
161.667
21
-138.862
0
LINE
8
Black
10
165.952
20
-138.148
11
165.952
21
-140.148
0
LINE
8
Black
10
165.238
20
-137.005
11
164.524
21
-139.148
0
LINE
8
Black
10
164.524
20
-139.148
11
166.381
21
-139.148
0
LINE
8
Black
10
167.524
20
-140.148
11
167.524
21
-138.148
0
LINE
8
Black
10
167.524
20
-138.433
11
167.667
21
-138.291
0
LINE
8
Black
10
167.667
20
-138.291
11
167.952
21
-138.148
0
LINE
8
Black
10
167.952
20
-138.148
11
168.381
21
-138.148
0
LINE
8
Black
10
168.381
20
-138.148
11
168.667
21
-138.291
0
LINE
8
Black
10
168.667
20
-138.291
11
168.809
21
-138.576
0
LINE
8
Black
10
168.809
20
-138.576
11
168.809
21
-140.148
0
LINE
8
Black
10
168.809
20
-138.576
11
168.952
21
-138.291
0
LINE
8
Black
10
168.952
20
-138.291
11
169.238
21
-138.148
0
LINE
8
Black
10
169.238
20
-138.148
11
169.667
21
-138.148
0
LINE
8
Black
10
169.667
20
-138.148
11
169.952
21
-138.291
0
LINE
8
Black
10
169.952
20
-138.291
11
170.095
21
-138.576
0
LINE
8
Black
10
170.095
20
-138.576
11
170.095
21
-140.148
0
LINE
8
Black
10
171.524
20
-140.148
11
171.524
21
-138.148
0
LINE
8
Black
10
171.524
20
-138.433
11
171.667
21
-138.291
0
LINE
8
Black
10
171.667
20
-138.291
11
171.952
21
-138.148
0
LINE
8
Black
10
171.952
20
-138.148
11
172.381
21
-138.148
0
LINE
8
Black
10
172.381
20
-138.148
11
172.667
21
-138.291
0
LINE
8
Black
10
172.667
20
-138.291
11
172.809
21
-138.576
0
LINE
8
Black
10
172.809
20
-138.576
11
172.809
21
-140.148
0
LINE
8
Black
10
172.809
20
-138.576
11
172.952
21
-138.291
0
LINE
8
Black
10
172.952
20
-138.291
11
173.238
21
-138.148
0
LINE
8
Black
10
173.238
20
-138.148
11
173.667
21
-138.148
0
LINE
8
Black
10
173.667
20
-138.148
11
173.952
21
-138.291
0
LINE
8
Black
10
173.952
20
-138.291
11
174.095
21
-138.576
0
LINE
8
Black
10
174.095
20
-138.576
11
174.095
21
-140.148
0
LINE
8
Black
10
179.952
20
-137.005
11
177.381
21
-140.862
0
LINE
8
Black
10
183.809
20
-137.148
11
184.095
21
-137.148
0
LINE
8
Black
10
184.095
20
-137.148
11
184.381
21
-137.291
0
LINE
8
Black
10
184.381
20
-137.291
11
184.524
21
-137.433
0
LINE
8
Black
10
184.524
20
-137.433
11
184.667
21
-137.719
0
LINE
8
Black
10
184.667
20
-137.719
11
184.809
21
-138.291
0
LINE
8
Black
10
184.809
20
-138.291
11
184.809
21
-139.005
0
LINE
8
Black
10
184.809
20
-139.005
11
184.667
21
-139.576
0
LINE
8
Black
10
184.667
20
-139.576
11
184.524
21
-139.862
0
LINE
8
Black
10
184.524
20
-139.862
11
184.381
21
-140.005
0
LINE
8
Black
10
184.381
20
-140.005
11
184.095
21
-140.148
0
LINE
8
Black
10
184.095
20
-140.148
11
183.809
21
-140.148
0
LINE
8
Black
10
183.809
20
-140.148
11
183.524
21
-140.005
0
LINE
8
Black
10
183.524
20
-140.005
11
183.381
21
-139.862
0
LINE
8
Black
10
183.381
20
-139.862
11
183.238
21
-139.576
0
LINE
8
Black
10
183.238
20
-139.576
11
183.095
21
-139.005
0
LINE
8
Black
10
183.095
20
-139.005
11
183.095
21
-138.291
0
LINE
8
Black
10
183.095
20
-138.291
11
183.238
21
-137.719
0
LINE
8
Black
10
183.238
20
-137.719
11
183.381
21
-137.433
0
LINE
8
Black
10
183.381
20
-137.433
11
183.524
21
-137.291
0
LINE
8
Black
10
183.524
20
-137.291
11
183.809
21
-137.148
0
LINE
8
Black
10
186.095
20
-139.862
11
186.238
21
-140.005
0
LINE
8
Black
10
186.238
20
-140.005
11
186.095
21
-140.148
0
LINE
8
Black
10
186.095
20
-140.148
11
185.952
21
-140.005
0
LINE
8
Black
10
185.952
20
-140.005
11
186.095
21
-139.862
0
LINE
8
Black
10
186.095
20
-139.862
11
186.095
21
-140.148
0
LINE
8
Black
10
188.095
20
-137.148
11
188.381
21
-137.148
0
LINE
8
Black
10
188.381
20
-137.148
11
188.667
21
-137.291
0
LINE
8
Black
10
188.667
20
-137.291
11
188.809
21
-137.433
0
LINE
8
Black
10
188.809
20
-137.433
11
188.952
21
-137.719
0
LINE
8
Black
10
188.952
20
-137.719
11
189.095
21
-138.291
0
LINE
8
Black
10
189.095
20
-138.291
11
189.095
21
-139.005
0
LINE
8
Black
10
189.095
20
-139.005
11
188.952
21
-139.576
0
LINE
8
Black
10
188.952
20
-139.576
11
188.809
21
-139.862
0
LINE
8
Black
10
188.809
20
-139.862
11
188.667
21
-140.005
0
LINE
8
Black
10
188.667
20
-140.005
11
188.381
21
-140.148
0
LINE
8
Black
10
188.381
20
-140.148
11
188.095
21
-140.148
0
LINE
8
Black
10
188.095
20
-140.148
11
187.809
21
-140.005
0
LINE
8
Black
10
187.809
20
-140.005
11
187.667
21
-139.862
0
LINE
8
Black
10
187.667
20
-139.862
11
187.524
21
-139.576
0
LINE
8
Black
10
187.524
20
-139.576
11
187.381
21
-139.005
0
LINE
8
Black
10
187.381
20
-139.005
11
187.381
21
-138.291
0
LINE
8
Black
10
187.381
20
-138.291
11
187.524
21
-137.719
0
LINE
8
Black
10
187.524
20
-137.719
11
187.667
21
-137.433
0
LINE
8
Black
10
187.667
20
-137.433
11
187.809
21
-137.291
0
LINE
8
Black
10
187.809
20
-137.291
11
188.095
21
-137.148
0
LINE
8
Black
10
190.238
20
-137.433
11
190.381
21
-137.291
0
LINE
8
Black
10
190.381
20
-137.291
11
190.667
21
-137.148
0
LINE
8
Black
10
190.667
20
-137.148
11
191.381
21
-137.148
0
LINE
8
Black
10
191.381
20
-137.148
11
191.667
21
-137.291
0
LINE
8
Black
10
191.667
20
-137.291
11
191.809
21
-137.433
0
LINE
8
Black
10
191.809
20
-137.433
11
191.952
21
-137.719
0
LINE
8
Black
10
191.952
20
-137.719
11
191.952
21
-138.005
0
LINE
8
Black
10
191.952
20
-138.005
11
191.809
21
-138.433
0
LINE
8
Black
10
191.809
20
-138.433
11
190.095
21
-140.148
0
LINE
8
Black
10
190.095
20
-140.148
11
191.952
21
-140.148
0
LINE
8
Black
10
194.667
20
-137.148
11
193.238
21
-137.148
0
LINE
8
Black
10
193.238
20
-137.148
11
193.095
21
-138.576
0
LINE
8
Black
10
193.095
20
-138.576
11
193.238
21
-138.433
0
LINE
8
Black
10
193.238
20
-138.433
11
193.524
21
-138.291
0
LINE
8
Black
10
193.524
20
-138.291
11
194.238
21
-138.291
0
LINE
8
Black
10
194.238
20
-138.291
11
194.524
21
-138.433
0
LINE
8
Black
10
194.524
20
-138.433
11
194.667
21
-138.576
0
LINE
8
Black
10
194.667
20
-138.576
11
194.809
21
-138.862
0
LINE
8
Black
10
194.809
20
-138.862
11
194.809
21
-139.576
0
LINE
8
Black
10
194.809
20
-139.576
11
194.667
21
-139.862
0
LINE
8
Black
10
194.667
20
-139.862
11
194.524
21
-140.005
0
LINE
8
Black
10
194.524
20
-140.005
11
194.238
21
-140.148
0
LINE
8
Black
10
194.238
20
-140.148
11
193.524
21
-140.148
0
LINE
8
Black
10
193.524
20
-140.148
11
193.238
21
-140.005
0
LINE
8
Black
10
193.238
20
-140.005
11
193.095
21
-139.862
0
LINE
8
Black
10
195.952
20
-137.148
11
195.952
21
-137.719
0
LINE
8
Black
10
197.095
20
-137.148
11
197.095
21
-137.719
0
LINE
8
Black
10
201.524
20
-141.291
11
201.381
21
-141.148
0
LINE
8
Black
10
201.381
20
-141.148
11
201.095
21
-140.719
0
LINE
8
Black
10
201.095
20
-140.719
11
200.952
21
-140.433
0
LINE
8
Black
10
200.952
20
-140.433
11
200.809
21
-140.005
0
LINE
8
Black
10
200.809
20
-140.005
11
200.667
21
-139.291
0
LINE
8
Black
10
200.667
20
-139.291
11
200.667
21
-138.719
0
LINE
8
Black
10
200.667
20
-138.719
11
200.809
21
-138.005
0
LINE
8
Black
10
200.809
20
-138.005
11
200.952
21
-137.576
0
LINE
8
Black
10
200.952
20
-137.576
11
201.095
21
-137.291
0
LINE
8
Black
10
201.095
20
-137.291
11
201.381
21
-136.862
0
LINE
8
Black
10
201.381
20
-136.862
11
201.524
21
-136.719
0
LINE
8
Black
10
204.238
20
-140.148
11
202.524
21
-140.148
0
LINE
8
Black
10
203.381
20
-140.148
11
203.381
21
-137.148
0
LINE
8
Black
10
203.381
20
-137.148
11
203.095
21
-137.576
0
LINE
8
Black
10
203.095
20
-137.576
11
202.809
21
-137.862
0
LINE
8
Black
10
202.809
20
-137.862
11
202.524
21
-138.005
0
LINE
8
Black
10
205.952
20
-138.433
11
205.667
21
-138.291
0
LINE
8
Black
10
205.667
20
-138.291
11
205.524
21
-138.148
0
LINE
8
Black
10
205.524
20
-138.148
11
205.381
21
-137.862
0
LINE
8
Black
10
205.381
20
-137.862
11
205.381
21
-137.719
0
LINE
8
Black
10
205.381
20
-137.719
11
205.524
21
-137.433
0
LINE
8
Black
10
205.524
20
-137.433
11
205.667
21
-137.291
0
LINE
8
Black
10
205.667
20
-137.291
11
205.952
21
-137.148
0
LINE
8
Black
10
205.952
20
-137.148
11
206.524
21
-137.148
0
LINE
8
Black
10
206.524
20
-137.148
11
206.809
21
-137.291
0
LINE
8
Black
10
206.809
20
-137.291
11
206.952
21
-137.433
0
LINE
8
Black
10
206.952
20
-137.433
11
207.095
21
-137.719
0
LINE
8
Black
10
207.095
20
-137.719
11
207.095
21
-137.862
0
LINE
8
Black
10
207.095
20
-137.862
11
206.952
21
-138.148
0
LINE
8
Black
10
206.952
20
-138.148
11
206.809
21
-138.291
0
LINE
8
Black
10
206.809
20
-138.291
11
206.524
21
-138.433
0
LINE
8
Black
10
206.524
20
-138.433
11
205.952
21
-138.433
0
LINE
8
Black
10
205.952
20
-138.433
11
205.667
21
-138.576
0
LINE
8
Black
10
205.667
20
-138.576
11
205.524
21
-138.719
0
LINE
8
Black
10
205.524
20
-138.719
11
205.381
21
-139.005
0
LINE
8
Black
10
205.381
20
-139.005
11
205.381
21
-139.576
0
LINE
8
Black
10
205.381
20
-139.576
11
205.524
21
-139.862
0
LINE
8
Black
10
205.524
20
-139.862
11
205.667
21
-140.005
0
LINE
8
Black
10
205.667
20
-140.005
11
205.952
21
-140.148
0
LINE
8
Black
10
205.952
20
-140.148
11
206.524
21
-140.148
0
LINE
8
Black
10
206.524
20
-140.148
11
206.809
21
-140.005
0
LINE
8
Black
10
206.809
20
-140.005
11
206.952
21
-139.862
0
LINE
8
Black
10
206.952
20
-139.862
11
207.095
21
-139.576
0
LINE
8
Black
10
207.095
20
-139.576
11
207.095
21
-139.005
0
LINE
8
Black
10
207.095
20
-139.005
11
206.952
21
-138.719
0
LINE
8
Black
10
206.952
20
-138.719
11
206.809
21
-138.576
0
LINE
8
Black
10
206.809
20
-138.576
11
206.524
21
-138.433
0
LINE
8
Black
10
210.667
20
-140.148
11
210.667
21
-137.148
0
LINE
8
Black
10
211.952
20
-140.148
11
211.952
21
-138.576
0
LINE
8
Black
10
211.952
20
-138.576
11
211.809
21
-138.291
0
LINE
8
Black
10
211.809
20
-138.291
11
211.524
21
-138.148
0
LINE
8
Black
10
211.524
20
-138.148
11
211.095
21
-138.148
0
LINE
8
Black
10
211.095
20
-138.148
11
210.809
21
-138.291
0
LINE
8
Black
10
210.809
20
-138.291
11
210.667
21
-138.433
0
LINE
8
Black
10
213.809
20
-140.148
11
213.524
21
-140.005
0
LINE
8
Black
10
213.524
20
-140.005
11
213.381
21
-139.862
0
LINE
8
Black
10
213.381
20
-139.862
11
213.238
21
-139.576
0
LINE
8
Black
10
213.238
20
-139.576
11
213.238
21
-138.719
0
LINE
8
Black
10
213.238
20
-138.719
11
213.381
21
-138.433
0
LINE
8
Black
10
213.381
20
-138.433
11
213.524
21
-138.291
0
LINE
8
Black
10
213.524
20
-138.291
11
213.809
21
-138.148
0
LINE
8
Black
10
213.809
20
-138.148
11
214.238
21
-138.148
0
LINE
8
Black
10
214.238
20
-138.148
11
214.524
21
-138.291
0
LINE
8
Black
10
214.524
20
-138.291
11
214.667
21
-138.433
0
LINE
8
Black
10
214.667
20
-138.433
11
214.809
21
-138.719
0
LINE
8
Black
10
214.809
20
-138.719
11
214.809
21
-139.576
0
LINE
8
Black
10
214.809
20
-139.576
11
214.667
21
-139.862
0
LINE
8
Black
10
214.667
20
-139.862
11
214.524
21
-140.005
0
LINE
8
Black
10
214.524
20
-140.005
11
214.238
21
-140.148
0
LINE
8
Black
10
214.238
20
-140.148
11
213.809
21
-140.148
0
LINE
8
Black
10
216.524
20
-140.148
11
216.238
21
-140.005
0
LINE
8
Black
10
216.238
20
-140.005
11
216.095
21
-139.719
0
LINE
8
Black
10
216.095
20
-139.719
11
216.095
21
-137.148
0
LINE
8
Black
10
218.809
20
-140.005
11
218.524
21
-140.148
0
LINE
8
Black
10
218.524
20
-140.148
11
217.952
21
-140.148
0
LINE
8
Black
10
217.952
20
-140.148
11
217.667
21
-140.005
0
LINE
8
Black
10
217.667
20
-140.005
11
217.524
21
-139.719
0
LINE
8
Black
10
217.524
20
-139.719
11
217.524
21
-138.576
0
LINE
8
Black
10
217.524
20
-138.576
11
217.667
21
-138.291
0
LINE
8
Black
10
217.667
20
-138.291
11
217.952
21
-138.148
0
LINE
8
Black
10
217.952
20
-138.148
11
218.524
21
-138.148
0
LINE
8
Black
10
218.524
20
-138.148
11
218.809
21
-138.291
0
LINE
8
Black
10
218.809
20
-138.291
11
218.952
21
-138.576
0
LINE
8
Black
10
218.952
20
-138.576
11
218.952
21
-138.862
0
LINE
8
Black
10
218.952
20
-138.862
11
217.524
21
-139.148
0
LINE
8
Black
10
220.095
20
-140.005
11
220.381
21
-140.148
0
LINE
8
Black
10
220.381
20
-140.148
11
220.952
21
-140.148
0
LINE
8
Black
10
220.952
20
-140.148
11
221.238
21
-140.005
0
LINE
8
Black
10
221.238
20
-140.005
11
221.381
21
-139.719
0
LINE
8
Black
10
221.381
20
-139.719
11
221.381
21
-139.576
0
LINE
8
Black
10
221.381
20
-139.576
11
221.238
21
-139.291
0
LINE
8
Black
10
221.238
20
-139.291
11
220.952
21
-139.148
0
LINE
8
Black
10
220.952
20
-139.148
11
220.524
21
-139.148
0
LINE
8
Black
10
220.524
20
-139.148
11
220.238
21
-139.005
0
LINE
8
Black
10
220.238
20
-139.005
11
220.095
21
-138.719
0
LINE
8
Black
10
220.095
20
-138.719
11
220.095
21
-138.576
0
LINE
8
Black
10
220.095
20
-138.576
11
220.238
21
-138.291
0
LINE
8
Black
10
220.238
20
-138.291
11
220.524
21
-138.148
0
LINE
8
Black
10
220.524
20
-138.148
11
220.952
21
-138.148
0
LINE
8
Black
10
220.952
20
-138.148
11
221.238
21
-138.291
0
LINE
8
Black
10
222.381
20
-141.291
11
222.524
21
-141.148
0
LINE
8
Black
10
222.524
20
-141.148
11
222.809
21
-140.719
0
LINE
8
Black
10
222.809
20
-140.719
11
222.952
21
-140.433
0
LINE
8
Black
10
222.952
20
-140.433
11
223.095
21
-140.005
0
LINE
8
Black
10
223.095
20
-140.005
11
223.238
21
-139.291
0
LINE
8
Black
10
223.238
20
-139.291
11
223.238
21
-138.719
0
LINE
8
Black
10
223.238
20
-138.719
11
223.095
21
-138.005
0
LINE
8
Black
10
223.095
20
-138.005
11
222.952
21
-137.576
0
LINE
8
Black
10
222.952
20
-137.576
11
222.809
21
-137.291
0
LINE
8
Black
10
222.809
20
-137.291
11
222.524
21
-136.862
0
LINE
8
Black
10
222.524
20
-136.862
11
222.381
21
-136.719
0
CIRCLE
8
Black
10
154.301
20
-142.751
40
0.508
0
LINE
8
Black
10
159.095
20
-144.108
11
157.381
21
-144.108
0
LINE
8
Black
10
158.238
20
-144.108
11
158.238
21
-141.108
0
LINE
8
Black
10
158.238
20
-141.108
11
157.952
21
-141.536
0
LINE
8
Black
10
157.952
20
-141.536
11
157.667
21
-141.822
0
LINE
8
Black
10
157.667
20
-141.822
11
157.381
21
-141.965
0
LINE
8
Black
10
160.381
20
-143.822
11
160.524
21
-143.965
0
LINE
8
Black
10
160.524
20
-143.965
11
160.381
21
-144.108
0
LINE
8
Black
10
160.381
20
-144.108
11
160.238
21
-143.965
0
LINE
8
Black
10
160.238
20
-143.965
11
160.381
21
-143.822
0
LINE
8
Black
10
160.381
20
-143.822
11
160.381
21
-144.108
0
LINE
8
Black
10
162.381
20
-141.108
11
162.667
21
-141.108
0
LINE
8
Black
10
162.667
20
-141.108
11
162.952
21
-141.251
0
LINE
8
Black
10
162.952
20
-141.251
11
163.095
21
-141.393
0
LINE
8
Black
10
163.095
20
-141.393
11
163.238
21
-141.679
0
LINE
8
Black
10
163.238
20
-141.679
11
163.381
21
-142.251
0
LINE
8
Black
10
163.381
20
-142.251
11
163.381
21
-142.965
0
LINE
8
Black
10
163.381
20
-142.965
11
163.238
21
-143.536
0
LINE
8
Black
10
163.238
20
-143.536
11
163.095
21
-143.822
0
LINE
8
Black
10
163.095
20
-143.822
11
162.952
21
-143.965
0
LINE
8
Black
10
162.952
20
-143.965
11
162.667
21
-144.108
0
LINE
8
Black
10
162.667
20
-144.108
11
162.381
21
-144.108
0
LINE
8
Black
10
162.381
20
-144.108
11
162.095
21
-143.965
0
LINE
8
Black
10
162.095
20
-143.965
11
161.952
21
-143.822
0
LINE
8
Black
10
161.952
20
-143.822
11
161.809
21
-143.536
0
LINE
8
Black
10
161.809
20
-143.536
11
161.667
21
-142.965
0
LINE
8
Black
10
161.667
20
-142.965
11
161.667
21
-142.251
0
LINE
8
Black
10
161.667
20
-142.251
11
161.809
21
-141.679
0
LINE
8
Black
10
161.809
20
-141.679
11
161.952
21
-141.393
0
LINE
8
Black
10
161.952
20
-141.393
11
162.095
21
-141.251
0
LINE
8
Black
10
162.095
20
-141.251
11
162.381
21
-141.108
0
LINE
8
Black
10
164.524
20
-141.393
11
164.667
21
-141.251
0
LINE
8
Black
10
164.667
20
-141.251
11
164.952
21
-141.108
0
LINE
8
Black
10
164.952
20
-141.108
11
165.667
21
-141.108
0
LINE
8
Black
10
165.667
20
-141.108
11
165.952
21
-141.251
0
LINE
8
Black
10
165.952
20
-141.251
11
166.095
21
-141.393
0
LINE
8
Black
10
166.095
20
-141.393
11
166.238
21
-141.679
0
LINE
8
Black
10
166.238
20
-141.679
11
166.238
21
-141.965
0
LINE
8
Black
10
166.238
20
-141.965
11
166.095
21
-142.393
0
LINE
8
Black
10
166.095
20
-142.393
11
164.381
21
-144.108
0
LINE
8
Black
10
164.381
20
-144.108
11
166.238
21
-144.108
0
LINE
8
Black
10
167.524
20
-144.108
11
167.524
21
-142.108
0
LINE
8
Black
10
167.524
20
-142.393
11
167.667
21
-142.251
0
LINE
8
Black
10
167.667
20
-142.251
11
167.952
21
-142.108
0
LINE
8
Black
10
167.952
20
-142.108
11
168.381
21
-142.108
0
LINE
8
Black
10
168.381
20
-142.108
11
168.667
21
-142.251
0
LINE
8
Black
10
168.667
20
-142.251
11
168.809
21
-142.536
0
LINE
8
Black
10
168.809
20
-142.536
11
168.809
21
-144.108
0
LINE
8
Black
10
168.809
20
-142.536
11
168.952
21
-142.251
0
LINE
8
Black
10
168.952
20
-142.251
11
169.238
21
-142.108
0
LINE
8
Black
10
169.238
20
-142.108
11
169.667
21
-142.108
0
LINE
8
Black
10
169.667
20
-142.108
11
169.952
21
-142.251
0
LINE
8
Black
10
169.952
20
-142.251
11
170.095
21
-142.536
0
LINE
8
Black
10
170.095
20
-142.536
11
170.095
21
-144.108
0
LINE
8
Black
10
171.524
20
-144.108
11
171.524
21
-142.108
0
LINE
8
Black
10
171.524
20
-142.393
11
171.667
21
-142.251
0
LINE
8
Black
10
171.667
20
-142.251
11
171.952
21
-142.108
0
LINE
8
Black
10
171.952
20
-142.108
11
172.381
21
-142.108
0
LINE
8
Black
10
172.381
20
-142.108
11
172.667
21
-142.251
0
LINE
8
Black
10
172.667
20
-142.251
11
172.809
21
-142.536
0
LINE
8
Black
10
172.809
20
-142.536
11
172.809
21
-144.108
0
LINE
8
Black
10
172.809
20
-142.536
11
172.952
21
-142.251
0
LINE
8
Black
10
172.952
20
-142.251
11
173.238
21
-142.108
0
LINE
8
Black
10
173.238
20
-142.108
11
173.667
21
-142.108
0
LINE
8
Black
10
173.667
20
-142.108
11
173.952
21
-142.251
0
LINE
8
Black
10
173.952
20
-142.251
11
174.095
21
-142.536
0
LINE
8
Black
10
174.095
20
-142.536
11
174.095
21
-144.108
0
LINE
8
Black
10
179.952
20
-140.965
11
177.381
21
-144.822
0
LINE
8
Black
10
183.809
20
-141.108
11
184.095
21
-141.108
0
LINE
8
Black
10
184.095
20
-141.108
11
184.381
21
-141.251
0
LINE
8
Black
10
184.381
20
-141.251
11
184.524
21
-141.393
0
LINE
8
Black
10
184.524
20
-141.393
11
184.667
21
-141.679
0
LINE
8
Black
10
184.667
20
-141.679
11
184.809
21
-142.251
0
LINE
8
Black
10
184.809
20
-142.251
11
184.809
21
-142.965
0
LINE
8
Black
10
184.809
20
-142.965
11
184.667
21
-143.536
0
LINE
8
Black
10
184.667
20
-143.536
11
184.524
21
-143.822
0
LINE
8
Black
10
184.524
20
-143.822
11
184.381
21
-143.965
0
LINE
8
Black
10
184.381
20
-143.965
11
184.095
21
-144.108
0
LINE
8
Black
10
184.095
20
-144.108
11
183.809
21
-144.108
0
LINE
8
Black
10
183.809
20
-144.108
11
183.524
21
-143.965
0
LINE
8
Black
10
183.524
20
-143.965
11
183.381
21
-143.822
0
LINE
8
Black
10
183.381
20
-143.822
11
183.238
21
-143.536
0
LINE
8
Black
10
183.238
20
-143.536
11
183.095
21
-142.965
0
LINE
8
Black
10
183.095
20
-142.965
11
183.095
21
-142.251
0
LINE
8
Black
10
183.095
20
-142.251
11
183.238
21
-141.679
0
LINE
8
Black
10
183.238
20
-141.679
11
183.381
21
-141.393
0
LINE
8
Black
10
183.381
20
-141.393
11
183.524
21
-141.251
0
LINE
8
Black
10
183.524
20
-141.251
11
183.809
21
-141.108
0
LINE
8
Black
10
186.095
20
-143.822
11
186.238
21
-143.965
0
LINE
8
Black
10
186.238
20
-143.965
11
186.095
21
-144.108
0
LINE
8
Black
10
186.095
20
-144.108
11
185.952
21
-143.965
0
LINE
8
Black
10
185.952
20
-143.965
11
186.095
21
-143.822
0
LINE
8
Black
10
186.095
20
-143.822
11
186.095
21
-144.108
0
LINE
8
Black
10
188.095
20
-141.108
11
188.381
21
-141.108
0
LINE
8
Black
10
188.381
20
-141.108
11
188.667
21
-141.251
0
LINE
8
Black
10
188.667
20
-141.251
11
188.809
21
-141.393
0
LINE
8
Black
10
188.809
20
-141.393
11
188.952
21
-141.679
0
LINE
8
Black
10
188.952
20
-141.679
11
189.095
21
-142.251
0
LINE
8
Black
10
189.095
20
-142.251
11
189.095
21
-142.965
0
LINE
8
Black
10
189.095
20
-142.965
11
188.952
21
-143.536
0
LINE
8
Black
10
188.952
20
-143.536
11
188.809
21
-143.822
0
LINE
8
Black
10
188.809
20
-143.822
11
188.667
21
-143.965
0
LINE
8
Black
10
188.667
20
-143.965
11
188.381
21
-144.108
0
LINE
8
Black
10
188.381
20
-144.108
11
188.095
21
-144.108
0
LINE
8
Black
10
188.095
20
-144.108
11
187.809
21
-143.965
0
LINE
8
Black
10
187.809
20
-143.965
11
187.667
21
-143.822
0
LINE
8
Black
10
187.667
20
-143.822
11
187.524
21
-143.536
0
LINE
8
Black
10
187.524
20
-143.536
11
187.381
21
-142.965
0
LINE
8
Black
10
187.381
20
-142.965
11
187.381
21
-142.251
0
LINE
8
Black
10
187.381
20
-142.251
11
187.524
21
-141.679
0
LINE
8
Black
10
187.524
20
-141.679
11
187.667
21
-141.393
0
LINE
8
Black
10
187.667
20
-141.393
11
187.809
21
-141.251
0
LINE
8
Black
10
187.809
20
-141.251
11
188.095
21
-141.108
0
LINE
8
Black
10
191.667
20
-142.108
11
191.667
21
-144.108
0
LINE
8
Black
10
190.952
20
-140.965
11
190.238
21
-143.108
0
LINE
8
Black
10
190.238
20
-143.108
11
192.095
21
-143.108
0
LINE
8
Black
10
193.809
20
-141.108
11
194.095
21
-141.108
0
LINE
8
Black
10
194.095
20
-141.108
11
194.381
21
-141.251
0
LINE
8
Black
10
194.381
20
-141.251
11
194.524
21
-141.393
0
LINE
8
Black
10
194.524
20
-141.393
11
194.667
21
-141.679
0
LINE
8
Black
10
194.667
20
-141.679
11
194.809
21
-142.251
0
LINE
8
Black
10
194.809
20
-142.251
11
194.809
21
-142.965
0
LINE
8
Black
10
194.809
20
-142.965
11
194.667
21
-143.536
0
LINE
8
Black
10
194.667
20
-143.536
11
194.524
21
-143.822
0
LINE
8
Black
10
194.524
20
-143.822
11
194.381
21
-143.965
0
LINE
8
Black
10
194.381
20
-143.965
11
194.095
21
-144.108
0
LINE
8
Black
10
194.095
20
-144.108
11
193.809
21
-144.108
0
LINE
8
Black
10
193.809
20
-144.108
11
193.524
21
-143.965
0
LINE
8
Black
10
193.524
20
-143.965
11
193.381
21
-143.822
0
LINE
8
Black
10
193.381
20
-143.822
11
193.238
21
-143.536
0
LINE
8
Black
10
193.238
20
-143.536
11
193.095
21
-142.965
0
LINE
8
Black
10
193.095
20
-142.965
11
193.095
21
-142.251
0
LINE
8
Black
10
193.095
20
-142.251
11
193.238
21
-141.679
0
LINE
8
Black
10
193.238
20
-141.679
11
193.381
21
-141.393
0
LINE
8
Black
10
193.381
20
-141.393
11
193.524
21
-141.251
0
LINE
8
Black
10
193.524
20
-141.251
11
193.809
21
-141.108
0
LINE
8
Black
10
195.952
20
-141.108
11
195.952
21
-141.679
0
LINE
8
Black
10
197.095
20
-141.108
11
197.095
21
-141.679
0
LINE
8
Black
10
201.524
20
-145.251
11
201.381
21
-145.108
0
LINE
8
Black
10
201.381
20
-145.108
11
201.095
21
-144.679
0
LINE
8
Black
10
201.095
20
-144.679
11
200.952
21
-144.393
0
LINE
8
Black
10
200.952
20
-144.393
11
200.809
21
-143.965
0
LINE
8
Black
10
200.809
20
-143.965
11
200.667
21
-143.251
0
LINE
8
Black
10
200.667
20
-143.251
11
200.667
21
-142.679
0
LINE
8
Black
10
200.667
20
-142.679
11
200.809
21
-141.965
0
LINE
8
Black
10
200.809
20
-141.965
11
200.952
21
-141.536
0
LINE
8
Black
10
200.952
20
-141.536
11
201.095
21
-141.251
0
LINE
8
Black
10
201.095
20
-141.251
11
201.381
21
-140.822
0
LINE
8
Black
10
201.381
20
-140.822
11
201.524
21
-140.679
0
LINE
8
Black
10
202.381
20
-141.108
11
204.238
21
-141.108
0
LINE
8
Black
10
204.238
20
-141.108
11
203.238
21
-142.251
0
LINE
8
Black
10
203.238
20
-142.251
11
203.667
21
-142.251
0
LINE
8
Black
10
203.667
20
-142.251
11
203.952
21
-142.393
0
LINE
8
Black
10
203.952
20
-142.393
11
204.095
21
-142.536
0
LINE
8
Black
10
204.095
20
-142.536
11
204.238
21
-142.822
0
LINE
8
Black
10
204.238
20
-142.822
11
204.238
21
-143.536
0
LINE
8
Black
10
204.238
20
-143.536
11
204.095
21
-143.822
0
LINE
8
Black
10
204.095
20
-143.822
11
203.952
21
-143.965
0
LINE
8
Black
10
203.952
20
-143.965
11
203.667
21
-144.108
0
LINE
8
Black
10
203.667
20
-144.108
11
202.809
21
-144.108
0
LINE
8
Black
10
202.809
20
-144.108
11
202.524
21
-143.965
0
LINE
8
Black
10
202.524
20
-143.965
11
202.381
21
-143.822
0
LINE
8
Black
10
205.238
20
-141.108
11
207.095
21
-141.108
0
LINE
8
Black
10
207.095
20
-141.108
11
206.095
21
-142.251
0
LINE
8
Black
10
206.095
20
-142.251
11
206.524
21
-142.251
0
LINE
8
Black
10
206.524
20
-142.251
11
206.809
21
-142.393
0
LINE
8
Black
10
206.809
20
-142.393
11
206.952
21
-142.536
0
LINE
8
Black
10
206.952
20
-142.536
11
207.095
21
-142.822
0
LINE
8
Black
10
207.095
20
-142.822
11
207.095
21
-143.536
0
LINE
8
Black
10
207.095
20
-143.536
11
206.952
21
-143.822
0
LINE
8
Black
10
206.952
20
-143.822
11
206.809
21
-143.965
0
LINE
8
Black
10
206.809
20
-143.965
11
206.524
21
-144.108
0
LINE
8
Black
10
206.524
20
-144.108
11
205.667
21
-144.108
0
LINE
8
Black
10
205.667
20
-144.108
11
205.381
21
-143.965
0
LINE
8
Black
10
205.381
20
-143.965
11
205.238
21
-143.822
0
LINE
8
Black
10
210.667
20
-144.108
11
210.667
21
-141.108
0
LINE
8
Black
10
211.952
20
-144.108
11
211.952
21
-142.536
0
LINE
8
Black
10
211.952
20
-142.536
11
211.809
21
-142.251
0
LINE
8
Black
10
211.809
20
-142.251
11
211.524
21
-142.108
0
LINE
8
Black
10
211.524
20
-142.108
11
211.095
21
-142.108
0
LINE
8
Black
10
211.095
20
-142.108
11
210.809
21
-142.251
0
LINE
8
Black
10
210.809
20
-142.251
11
210.667
21
-142.393
0
LINE
8
Black
10
213.809
20
-144.108
11
213.524
21
-143.965
0
LINE
8
Black
10
213.524
20
-143.965
11
213.381
21
-143.822
0
LINE
8
Black
10
213.381
20
-143.822
11
213.238
21
-143.536
0
LINE
8
Black
10
213.238
20
-143.536
11
213.238
21
-142.679
0
LINE
8
Black
10
213.238
20
-142.679
11
213.381
21
-142.393
0
LINE
8
Black
10
213.381
20
-142.393
11
213.524
21
-142.251
0
LINE
8
Black
10
213.524
20
-142.251
11
213.809
21
-142.108
0
LINE
8
Black
10
213.809
20
-142.108
11
214.238
21
-142.108
0
LINE
8
Black
10
214.238
20
-142.108
11
214.524
21
-142.251
0
LINE
8
Black
10
214.524
20
-142.251
11
214.667
21
-142.393
0
LINE
8
Black
10
214.667
20
-142.393
11
214.809
21
-142.679
0
LINE
8
Black
10
214.809
20
-142.679
11
214.809
21
-143.536
0
LINE
8
Black
10
214.809
20
-143.536
11
214.667
21
-143.822
0
LINE
8
Black
10
214.667
20
-143.822
11
214.524
21
-143.965
0
LINE
8
Black
10
214.524
20
-143.965
11
214.238
21
-144.108
0
LINE
8
Black
10
214.238
20
-144.108
11
213.809
21
-144.108
0
LINE
8
Black
10
216.524
20
-144.108
11
216.238
21
-143.965
0
LINE
8
Black
10
216.238
20
-143.965
11
216.095
21
-143.679
0
LINE
8
Black
10
216.095
20
-143.679
11
216.095
21
-141.108
0
LINE
8
Black
10
218.809
20
-143.965
11
218.524
21
-144.108
0
LINE
8
Black
10
218.524
20
-144.108
11
217.952
21
-144.108
0
LINE
8
Black
10
217.952
20
-144.108
11
217.667
21
-143.965
0
LINE
8
Black
10
217.667
20
-143.965
11
217.524
21
-143.679
0
LINE
8
Black
10
217.524
20
-143.679
11
217.524
21
-142.536
0
LINE
8
Black
10
217.524
20
-142.536
11
217.667
21
-142.251
0
LINE
8
Black
10
217.667
20
-142.251
11
217.952
21
-142.108
0
LINE
8
Black
10
217.952
20
-142.108
11
218.524
21
-142.108
0
LINE
8
Black
10
218.524
20
-142.108
11
218.809
21
-142.251
0
LINE
8
Black
10
218.809
20
-142.251
11
218.952
21
-142.536
0
LINE
8
Black
10
218.952
20
-142.536
11
218.952
21
-142.822
0
LINE
8
Black
10
218.952
20
-142.822
11
217.524
21
-143.108
0
LINE
8
Black
10
220.095
20
-143.965
11
220.381
21
-144.108
0
LINE
8
Black
10
220.381
20
-144.108
11
220.952
21
-144.108
0
LINE
8
Black
10
220.952
20
-144.108
11
221.238
21
-143.965
0
LINE
8
Black
10
221.238
20
-143.965
11
221.381
21
-143.679
0
LINE
8
Black
10
221.381
20
-143.679
11
221.381
21
-143.536
0
LINE
8
Black
10
221.381
20
-143.536
11
221.238
21
-143.251
0
LINE
8
Black
10
221.238
20
-143.251
11
220.952
21
-143.108
0
LINE
8
Black
10
220.952
20
-143.108
11
220.524
21
-143.108
0
LINE
8
Black
10
220.524
20
-143.108
11
220.238
21
-142.965
0
LINE
8
Black
10
220.238
20
-142.965
11
220.095
21
-142.679
0
LINE
8
Black
10
220.095
20
-142.679
11
220.095
21
-142.536
0
LINE
8
Black
10
220.095
20
-142.536
11
220.238
21
-142.251
0
LINE
8
Black
10
220.238
20
-142.251
11
220.524
21
-142.108
0
LINE
8
Black
10
220.524
20
-142.108
11
220.952
21
-142.108
0
LINE
8
Black
10
220.952
20
-142.108
11
221.238
21
-142.251
0
LINE
8
Black
10
222.381
20
-145.251
11
222.524
21
-145.108
0
LINE
8
Black
10
222.524
20
-145.108
11
222.809
21
-144.679
0
LINE
8
Black
10
222.809
20
-144.679
11
222.952
21
-144.393
0
LINE
8
Black
10
222.952
20
-144.393
11
223.095
21
-143.965
0
LINE
8
Black
10
223.095
20
-143.965
11
223.238
21
-143.251
0
LINE
8
Black
10
223.238
20
-143.251
11
223.238
21
-142.679
0
LINE
8
Black
10
223.238
20
-142.679
11
223.095
21
-141.965
0
LINE
8
Black
10
223.095
20
-141.965
11
222.952
21
-141.536
0
LINE
8
Black
10
222.952
20
-141.536
11
222.809
21
-141.251
0
LINE
8
Black
10
222.809
20
-141.251
11
222.524
21
-140.822
0
LINE
8
Black
10
222.524
20
-140.822
11
222.381
21
-140.679
0
LINE
8
Black
10
153.222
20
-145.123
11
153.222
21
-148.298
0
LINE
8
Black
10
151.634
20
-146.711
11
154.809
21
-146.711
0
LINE
8
Black
10
157.238
20
-145.068
11
159.095
21
-145.068
0
LINE
8
Black
10
159.095
20
-145.068
11
158.095
21
-146.211
0
LINE
8
Black
10
158.095
20
-146.211
11
158.524
21
-146.211
0
LINE
8
Black
10
158.524
20
-146.211
11
158.809
21
-146.353
0
LINE
8
Black
10
158.809
20
-146.353
11
158.952
21
-146.496
0
LINE
8
Black
10
158.952
20
-146.496
11
159.095
21
-146.782
0
LINE
8
Black
10
159.095
20
-146.782
11
159.095
21
-147.496
0
LINE
8
Black
10
159.095
20
-147.496
11
158.952
21
-147.782
0
LINE
8
Black
10
158.952
20
-147.782
11
158.809
21
-147.925
0
LINE
8
Black
10
158.809
20
-147.925
11
158.524
21
-148.068
0
LINE
8
Black
10
158.524
20
-148.068
11
157.667
21
-148.068
0
LINE
8
Black
10
157.667
20
-148.068
11
157.381
21
-147.925
0
LINE
8
Black
10
157.381
20
-147.925
11
157.238
21
-147.782
0
LINE
8
Black
10
160.381
20
-147.782
11
160.524
21
-147.925
0
LINE
8
Black
10
160.524
20
-147.925
11
160.381
21
-148.068
0
LINE
8
Black
10
160.381
20
-148.068
11
160.238
21
-147.925
0
LINE
8
Black
10
160.238
20
-147.925
11
160.381
21
-147.782
0
LINE
8
Black
10
160.381
20
-147.782
11
160.381
21
-148.068
0
LINE
8
Black
10
163.381
20
-148.068
11
161.667
21
-148.068
0
LINE
8
Black
10
162.524
20
-148.068
11
162.524
21
-145.068
0
LINE
8
Black
10
162.524
20
-145.068
11
162.238
21
-145.496
0
LINE
8
Black
10
162.238
20
-145.496
11
161.952
21
-145.782
0
LINE
8
Black
10
161.952
20
-145.782
11
161.667
21
-145.925
0
LINE
8
Black
10
164.381
20
-145.068
11
166.381
21
-145.068
0
LINE
8
Black
10
166.381
20
-145.068
11
165.095
21
-148.068
0
LINE
8
Black
10
167.524
20
-148.068
11
167.524
21
-146.068
0
LINE
8
Black
10
167.524
20
-146.353
11
167.667
21
-146.211
0
LINE
8
Black
10
167.667
20
-146.211
11
167.952
21
-146.068
0
LINE
8
Black
10
167.952
20
-146.068
11
168.381
21
-146.068
0
LINE
8
Black
10
168.381
20
-146.068
11
168.667
21
-146.211
0
LINE
8
Black
10
168.667
20
-146.211
11
168.809
21
-146.496
0
LINE
8
Black
10
168.809
20
-146.496
11
168.809
21
-148.068
0
LINE
8
Black
10
168.809
20
-146.496
11
168.952
21
-146.211
0
LINE
8
Black
10
168.952
20
-146.211
11
169.238
21
-146.068
0
LINE
8
Black
10
169.238
20
-146.068
11
169.667
21
-146.068
0
LINE
8
Black
10
169.667
20
-146.068
11
169.952
21
-146.211
0
LINE
8
Black
10
169.952
20
-146.211
11
170.095
21
-146.496
0
LINE
8
Black
10
170.095
20
-146.496
11
170.095
21
-148.068
0
LINE
8
Black
10
171.524
20
-148.068
11
171.524
21
-146.068
0
LINE
8
Black
10
171.524
20
-146.353
11
171.667
21
-146.211
0
LINE
8
Black
10
171.667
20
-146.211
11
171.952
21
-146.068
0
LINE
8
Black
10
171.952
20
-146.068
11
172.381
21
-146.068
0
LINE
8
Black
10
172.381
20
-146.068
11
172.667
21
-146.211
0
LINE
8
Black
10
172.667
20
-146.211
11
172.809
21
-146.496
0
LINE
8
Black
10
172.809
20
-146.496
11
172.809
21
-148.068
0
LINE
8
Black
10
172.809
20
-146.496
11
172.952
21
-146.211
0
LINE
8
Black
10
172.952
20
-146.211
11
173.238
21
-146.068
0
LINE
8
Black
10
173.238
20
-146.068
11
173.667
21
-146.068
0
LINE
8
Black
10
173.667
20
-146.068
11
173.952
21
-146.211
0
LINE
8
Black
10
173.952
20
-146.211
11
174.095
21
-146.496
0
LINE
8
Black
10
174.095
20
-146.496
11
174.095
21
-148.068
0
LINE
8
Black
10
179.952
20
-144.925
11
177.381
21
-148.782
0
LINE
8
Black
10
183.809
20
-145.068
11
184.095
21
-145.068
0
LINE
8
Black
10
184.095
20
-145.068
11
184.381
21
-145.211
0
LINE
8
Black
10
184.381
20
-145.211
11
184.524
21
-145.353
0
LINE
8
Black
10
184.524
20
-145.353
11
184.667
21
-145.639
0
LINE
8
Black
10
184.667
20
-145.639
11
184.809
21
-146.211
0
LINE
8
Black
10
184.809
20
-146.211
11
184.809
21
-146.925
0
LINE
8
Black
10
184.809
20
-146.925
11
184.667
21
-147.496
0
LINE
8
Black
10
184.667
20
-147.496
11
184.524
21
-147.782
0
LINE
8
Black
10
184.524
20
-147.782
11
184.381
21
-147.925
0
LINE
8
Black
10
184.381
20
-147.925
11
184.095
21
-148.068
0
LINE
8
Black
10
184.095
20
-148.068
11
183.809
21
-148.068
0
LINE
8
Black
10
183.809
20
-148.068
11
183.524
21
-147.925
0
LINE
8
Black
10
183.524
20
-147.925
11
183.381
21
-147.782
0
LINE
8
Black
10
183.381
20
-147.782
11
183.238
21
-147.496
0
LINE
8
Black
10
183.238
20
-147.496
11
183.095
21
-146.925
0
LINE
8
Black
10
183.095
20
-146.925
11
183.095
21
-146.211
0
LINE
8
Black
10
183.095
20
-146.211
11
183.238
21
-145.639
0
LINE
8
Black
10
183.238
20
-145.639
11
183.381
21
-145.353
0
LINE
8
Black
10
183.381
20
-145.353
11
183.524
21
-145.211
0
LINE
8
Black
10
183.524
20
-145.211
11
183.809
21
-145.068
0
LINE
8
Black
10
186.095
20
-147.782
11
186.238
21
-147.925
0
LINE
8
Black
10
186.238
20
-147.925
11
186.095
21
-148.068
0
LINE
8
Black
10
186.095
20
-148.068
11
185.952
21
-147.925
0
LINE
8
Black
10
185.952
20
-147.925
11
186.095
21
-147.782
0
LINE
8
Black
10
186.095
20
-147.782
11
186.095
21
-148.068
0
LINE
8
Black
10
189.095
20
-148.068
11
187.381
21
-148.068
0
LINE
8
Black
10
188.238
20
-148.068
11
188.238
21
-145.068
0
LINE
8
Black
10
188.238
20
-145.068
11
187.952
21
-145.496
0
LINE
8
Black
10
187.952
20
-145.496
11
187.667
21
-145.782
0
LINE
8
Black
10
187.667
20
-145.782
11
187.381
21
-145.925
0
LINE
8
Black
10
190.238
20
-145.353
11
190.381
21
-145.211
0
LINE
8
Black
10
190.381
20
-145.211
11
190.667
21
-145.068
0
LINE
8
Black
10
190.667
20
-145.068
11
191.381
21
-145.068
0
LINE
8
Black
10
191.381
20
-145.068
11
191.667
21
-145.211
0
LINE
8
Black
10
191.667
20
-145.211
11
191.809
21
-145.353
0
LINE
8
Black
10
191.809
20
-145.353
11
191.952
21
-145.639
0
LINE
8
Black
10
191.952
20
-145.639
11
191.952
21
-145.925
0
LINE
8
Black
10
191.952
20
-145.925
11
191.809
21
-146.353
0
LINE
8
Black
10
191.809
20
-146.353
11
190.095
21
-148.068
0
LINE
8
Black
10
190.095
20
-148.068
11
191.952
21
-148.068
0
LINE
8
Black
10
194.667
20
-145.068
11
193.238
21
-145.068
0
LINE
8
Black
10
193.238
20
-145.068
11
193.095
21
-146.496
0
LINE
8
Black
10
193.095
20
-146.496
11
193.238
21
-146.353
0
LINE
8
Black
10
193.238
20
-146.353
11
193.524
21
-146.211
0
LINE
8
Black
10
193.524
20
-146.211
11
194.238
21
-146.211
0
LINE
8
Black
10
194.238
20
-146.211
11
194.524
21
-146.353
0
LINE
8
Black
10
194.524
20
-146.353
11
194.667
21
-146.496
0
LINE
8
Black
10
194.667
20
-146.496
11
194.809
21
-146.782
0
LINE
8
Black
10
194.809
20
-146.782
11
194.809
21
-147.496
0
LINE
8
Black
10
194.809
20
-147.496
11
194.667
21
-147.782
0
LINE
8
Black
10
194.667
20
-147.782
11
194.524
21
-147.925
0
LINE
8
Black
10
194.524
20
-147.925
11
194.238
21
-148.068
0
LINE
8
Black
10
194.238
20
-148.068
11
193.524
21
-148.068
0
LINE
8
Black
10
193.524
20
-148.068
11
193.238
21
-147.925
0
LINE
8
Black
10
193.238
20
-147.925
11
193.095
21
-147.782
0
LINE
8
Black
10
195.952
20
-145.068
11
195.952
21
-145.639
0
LINE
8
Black
10
197.095
20
-145.068
11
197.095
21
-145.639
0
LINE
8
Black
10
201.524
20
-149.211
11
201.381
21
-149.068
0
LINE
8
Black
10
201.381
20
-149.068
11
201.095
21
-148.639
0
LINE
8
Black
10
201.095
20
-148.639
11
200.952
21
-148.353
0
LINE
8
Black
10
200.952
20
-148.353
11
200.809
21
-147.925
0
LINE
8
Black
10
200.809
20
-147.925
11
200.667
21
-147.211
0
LINE
8
Black
10
200.667
20
-147.211
11
200.667
21
-146.639
0
LINE
8
Black
10
200.667
20
-146.639
11
200.809
21
-145.925
0
LINE
8
Black
10
200.809
20
-145.925
11
200.952
21
-145.496
0
LINE
8
Black
10
200.952
20
-145.496
11
201.095
21
-145.211
0
LINE
8
Black
10
201.095
20
-145.211
11
201.381
21
-144.782
0
LINE
8
Black
10
201.381
20
-144.782
11
201.524
21
-144.639
0
LINE
8
Black
10
203.952
20
-146.068
11
203.952
21
-148.068
0
LINE
8
Black
10
203.238
20
-144.925
11
202.524
21
-147.068
0
LINE
8
Black
10
202.524
20
-147.068
11
204.381
21
-147.068
0
LINE
8
Black
10
207.809
20
-148.068
11
207.809
21
-145.068
0
LINE
8
Black
10
209.095
20
-148.068
11
209.095
21
-146.496
0
LINE
8
Black
10
209.095
20
-146.496
11
208.952
21
-146.211
0
LINE
8
Black
10
208.952
20
-146.211
11
208.667
21
-146.068
0
LINE
8
Black
10
208.667
20
-146.068
11
208.238
21
-146.068
0
LINE
8
Black
10
208.238
20
-146.068
11
207.952
21
-146.211
0
LINE
8
Black
10
207.952
20
-146.211
11
207.809
21
-146.353
0
LINE
8
Black
10
210.952
20
-148.068
11
210.667
21
-147.925
0
LINE
8
Black
10
210.667
20
-147.925
11
210.524
21
-147.782
0
LINE
8
Black
10
210.524
20
-147.782
11
210.381
21
-147.496
0
LINE
8
Black
10
210.381
20
-147.496
11
210.381
21
-146.639
0
LINE
8
Black
10
210.381
20
-146.639
11
210.524
21
-146.353
0
LINE
8
Black
10
210.524
20
-146.353
11
210.667
21
-146.211
0
LINE
8
Black
10
210.667
20
-146.211
11
210.952
21
-146.068
0
LINE
8
Black
10
210.952
20
-146.068
11
211.381
21
-146.068
0
LINE
8
Black
10
211.381
20
-146.068
11
211.667
21
-146.211
0
LINE
8
Black
10
211.667
20
-146.211
11
211.809
21
-146.353
0
LINE
8
Black
10
211.809
20
-146.353
11
211.952
21
-146.639
0
LINE
8
Black
10
211.952
20
-146.639
11
211.952
21
-147.496
0
LINE
8
Black
10
211.952
20
-147.496
11
211.809
21
-147.782
0
LINE
8
Black
10
211.809
20
-147.782
11
211.667
21
-147.925
0
LINE
8
Black
10
211.667
20
-147.925
11
211.381
21
-148.068
0
LINE
8
Black
10
211.381
20
-148.068
11
210.952
21
-148.068
0
LINE
8
Black
10
213.667
20
-148.068
11
213.381
21
-147.925
0
LINE
8
Black
10
213.381
20
-147.925
11
213.238
21
-147.639
0
LINE
8
Black
10
213.238
20
-147.639
11
213.238
21
-145.068
0
LINE
8
Black
10
215.952
20
-147.925
11
215.667
21
-148.068
0
LINE
8
Black
10
215.667
20
-148.068
11
215.095
21
-148.068
0
LINE
8
Black
10
215.095
20
-148.068
11
214.809
21
-147.925
0
LINE
8
Black
10
214.809
20
-147.925
11
214.667
21
-147.639
0
LINE
8
Black
10
214.667
20
-147.639
11
214.667
21
-146.496
0
LINE
8
Black
10
214.667
20
-146.496
11
214.809
21
-146.211
0
LINE
8
Black
10
214.809
20
-146.211
11
215.095
21
-146.068
0
LINE
8
Black
10
215.095
20
-146.068
11
215.667
21
-146.068
0
LINE
8
Black
10
215.667
20
-146.068
11
215.952
21
-146.211
0
LINE
8
Black
10
215.952
20
-146.211
11
216.095
21
-146.496
0
LINE
8
Black
10
216.095
20
-146.496
11
216.095
21
-146.782
0
LINE
8
Black
10
216.095
20
-146.782
11
214.667
21
-147.068
0
LINE
8
Black
10
217.238
20
-147.925
11
217.524
21
-148.068
0
LINE
8
Black
10
217.524
20
-148.068
11
218.095
21
-148.068
0
LINE
8
Black
10
218.095
20
-148.068
11
218.381
21
-147.925
0
LINE
8
Black
10
218.381
20
-147.925
11
218.524
21
-147.639
0
LINE
8
Black
10
218.524
20
-147.639
11
218.524
21
-147.496
0
LINE
8
Black
10
218.524
20
-147.496
11
218.381
21
-147.211
0
LINE
8
Black
10
218.381
20
-147.211
11
218.095
21
-147.068
0
LINE
8
Black
10
218.095
20
-147.068
11
217.667
21
-147.068
0
LINE
8
Black
10
217.667
20
-147.068
11
217.381
21
-146.925
0
LINE
8
Black
10
217.381
20
-146.925
11
217.238
21
-146.639
0
LINE
8
Black
10
217.238
20
-146.639
11
217.238
21
-146.496
0
LINE
8
Black
10
217.238
20
-146.496
11
217.381
21
-146.211
0
LINE
8
Black
10
217.381
20
-146.211
11
217.667
21
-146.068
0
LINE
8
Black
10
217.667
20
-146.068
11
218.095
21
-146.068
0
LINE
8
Black
10
218.095
20
-146.068
11
218.381
21
-146.211
0
LINE
8
Black
10
219.524
20
-149.211
11
219.667
21
-149.068
0
LINE
8
Black
10
219.667
20
-149.068
11
219.952
21
-148.639
0
LINE
8
Black
10
219.952
20
-148.639
11
220.095
21
-148.353
0
LINE
8
Black
10
220.095
20
-148.353
11
220.238
21
-147.925
0
LINE
8
Black
10
220.238
20
-147.925
11
220.381
21
-147.211
0
LINE
8
Black
10
220.381
20
-147.211
11
220.381
21
-146.639
0
LINE
8
Black
10
220.381
20
-146.639
11
220.238
21
-145.925
0
LINE
8
Black
10
220.238
20
-145.925
11
220.095
21
-145.496
0
LINE
8
Black
10
220.095
20
-145.496
11
219.952
21
-145.211
0
LINE
8
Black
10
219.952
20
-145.211
11
219.667
21
-144.782
0
LINE
8
Black
10
219.667
20
-144.782
11
219.524
21
-144.639
  0
ENDSEC
  0
EOF
