G04 #@! TF.GenerationSoftware,KiCad,Pcbnew,(5.1.5)-3*
G04 #@! TF.CreationDate,2020-04-19T11:52:18-04:00*
G04 #@! TF.ProjectId,RS232_TTL_Male,52533233-325f-4545-944c-5f4d616c652e,1*
G04 #@! TF.SameCoordinates,Original*
G04 #@! TF.FileFunction,Legend,Bot*
G04 #@! TF.FilePolarity,Positive*
%FSLAX46Y46*%
G04 Gerber Fmt 4.6, Leading zero omitted, Abs format (unit mm)*
G04 Created by KiCad (PCBNEW (5.1.5)-3) date 2020-04-19 11:52:18*
%MOMM*%
%LPD*%
G04 APERTURE LIST*
%ADD10C,5.000000*%
%ADD11C,0.476250*%
G04 APERTURE END LIST*
D10*
X183900000Y-70000000D02*
X177400000Y-70000000D01*
X184000000Y-77300000D02*
X177500000Y-77300000D01*
D11*
X172648294Y-68802940D02*
X173676389Y-68802940D01*
X173779199Y-69831035D01*
X173676389Y-69728226D01*
X173470770Y-69625416D01*
X172956723Y-69625416D01*
X172751104Y-69728226D01*
X172648294Y-69831035D01*
X172545485Y-70036654D01*
X172545485Y-70550702D01*
X172648294Y-70756321D01*
X172751104Y-70859130D01*
X172956723Y-70961940D01*
X173470770Y-70961940D01*
X173676389Y-70859130D01*
X173779199Y-70756321D01*
X171928627Y-68802940D02*
X171208961Y-70961940D01*
X170489294Y-68802940D01*
X173882008Y-76232440D02*
X172545485Y-76232440D01*
X173265151Y-77054916D01*
X172956723Y-77054916D01*
X172751104Y-77157726D01*
X172648294Y-77260535D01*
X172545485Y-77466154D01*
X172545485Y-77980202D01*
X172648294Y-78185821D01*
X172751104Y-78288630D01*
X172956723Y-78391440D01*
X173573580Y-78391440D01*
X173779199Y-78288630D01*
X173882008Y-78185821D01*
X171620199Y-78185821D02*
X171517389Y-78288630D01*
X171620199Y-78391440D01*
X171723008Y-78288630D01*
X171620199Y-78185821D01*
X171620199Y-78391440D01*
X170797723Y-76232440D02*
X169461199Y-76232440D01*
X170180866Y-77054916D01*
X169872437Y-77054916D01*
X169666818Y-77157726D01*
X169564008Y-77260535D01*
X169461199Y-77466154D01*
X169461199Y-77980202D01*
X169564008Y-78185821D01*
X169666818Y-78288630D01*
X169872437Y-78391440D01*
X170489294Y-78391440D01*
X170694913Y-78288630D01*
X170797723Y-78185821D01*
X168844342Y-76232440D02*
X168124675Y-78391440D01*
X167405008Y-76232440D01*
X165143199Y-76129630D02*
X166993770Y-78905488D01*
X163395437Y-76232440D02*
X164423532Y-76232440D01*
X164526342Y-77260535D01*
X164423532Y-77157726D01*
X164217913Y-77054916D01*
X163703866Y-77054916D01*
X163498247Y-77157726D01*
X163395437Y-77260535D01*
X163292627Y-77466154D01*
X163292627Y-77980202D01*
X163395437Y-78185821D01*
X163498247Y-78288630D01*
X163703866Y-78391440D01*
X164217913Y-78391440D01*
X164423532Y-78288630D01*
X164526342Y-78185821D01*
X162675770Y-76232440D02*
X161956104Y-78391440D01*
X161236437Y-76232440D01*
M02*
