G04 (created by PCBNEW (2013-05-31 BZR 4019)-stable) date 7/6/2014 3:12:14 PM*
%MOIN*%
G04 Gerber Fmt 3.4, Leading zero omitted, Abs format*
%FSLAX34Y34*%
G01*
G70*
G90*
G04 APERTURE LIST*
%ADD10C,0.00590551*%
%ADD11C,0.061*%
%ADD12C,0.055*%
%ADD13R,0.06X0.06*%
%ADD14C,0.06*%
%ADD15C,0.01*%
G04 APERTURE END LIST*
G54D10*
G54D11*
X16580Y-12514D03*
X16580Y-14286D03*
X14020Y-12514D03*
X14020Y-14286D03*
G54D12*
X13450Y-11600D03*
X16950Y-11600D03*
G54D13*
X14200Y-10400D03*
G54D14*
X15200Y-10400D03*
X16200Y-10400D03*
G54D15*
X14020Y-12514D02*
X16580Y-12514D01*
X14020Y-12514D02*
X14020Y-12170D01*
X14020Y-12170D02*
X13450Y-11600D01*
G54D10*
G36*
X17250Y-14650D02*
X17247Y-14650D01*
X16859Y-14650D01*
X16965Y-14544D01*
X17034Y-14376D01*
X17035Y-14195D01*
X16965Y-14028D01*
X16838Y-13900D01*
X16670Y-13831D01*
X16489Y-13830D01*
X16322Y-13900D01*
X16194Y-14027D01*
X16125Y-14195D01*
X16124Y-14376D01*
X16194Y-14543D01*
X16300Y-14650D01*
X14299Y-14650D01*
X14405Y-14544D01*
X14474Y-14376D01*
X14475Y-14195D01*
X14405Y-14028D01*
X14278Y-13900D01*
X14110Y-13831D01*
X13929Y-13830D01*
X13762Y-13900D01*
X13634Y-14027D01*
X13565Y-14195D01*
X13564Y-14376D01*
X13634Y-14543D01*
X13740Y-14650D01*
X13149Y-14650D01*
X13149Y-11900D01*
X13208Y-11960D01*
X13365Y-12024D01*
X13534Y-12025D01*
X13575Y-12008D01*
X13728Y-12161D01*
X13634Y-12255D01*
X13565Y-12423D01*
X13564Y-12604D01*
X13634Y-12771D01*
X13761Y-12899D01*
X13929Y-12968D01*
X14110Y-12969D01*
X14277Y-12899D01*
X14405Y-12772D01*
X14429Y-12714D01*
X16170Y-12714D01*
X16194Y-12771D01*
X16321Y-12899D01*
X16489Y-12968D01*
X16670Y-12969D01*
X16837Y-12899D01*
X16965Y-12772D01*
X17034Y-12604D01*
X17035Y-12423D01*
X16965Y-12256D01*
X16838Y-12128D01*
X16670Y-12059D01*
X16489Y-12058D01*
X16322Y-12128D01*
X16194Y-12255D01*
X16170Y-12314D01*
X15515Y-12314D01*
X15515Y-10785D01*
X15200Y-10470D01*
X15129Y-10541D01*
X15129Y-10400D01*
X14814Y-10084D01*
X14718Y-10112D01*
X14650Y-10304D01*
X14650Y-10070D01*
X14627Y-10015D01*
X14585Y-9972D01*
X14529Y-9950D01*
X14470Y-9949D01*
X13870Y-9949D01*
X13815Y-9972D01*
X13772Y-10014D01*
X13750Y-10070D01*
X13749Y-10129D01*
X13749Y-10729D01*
X13772Y-10784D01*
X13814Y-10827D01*
X13870Y-10849D01*
X13929Y-10850D01*
X14529Y-10850D01*
X14584Y-10827D01*
X14627Y-10785D01*
X14649Y-10729D01*
X14650Y-10670D01*
X14650Y-10414D01*
X14656Y-10536D01*
X14718Y-10687D01*
X14814Y-10715D01*
X15129Y-10400D01*
X15129Y-10541D01*
X14884Y-10785D01*
X14912Y-10881D01*
X15118Y-10954D01*
X15336Y-10943D01*
X15487Y-10881D01*
X15515Y-10785D01*
X15515Y-12314D01*
X14429Y-12314D01*
X14405Y-12256D01*
X14278Y-12128D01*
X14205Y-12098D01*
X14204Y-12093D01*
X14204Y-12093D01*
X14161Y-12028D01*
X14161Y-12028D01*
X13858Y-11725D01*
X13874Y-11684D01*
X13875Y-11515D01*
X13810Y-11359D01*
X13691Y-11239D01*
X13534Y-11175D01*
X13365Y-11174D01*
X13209Y-11239D01*
X13149Y-11299D01*
X13149Y-9849D01*
X15192Y-9849D01*
X15063Y-9856D01*
X14912Y-9918D01*
X14884Y-10014D01*
X15200Y-10329D01*
X15515Y-10014D01*
X15487Y-9918D01*
X15294Y-9849D01*
X17250Y-9849D01*
X17250Y-11228D01*
X17247Y-11232D01*
X17222Y-11139D01*
X17025Y-11070D01*
X16817Y-11081D01*
X16677Y-11139D01*
X16652Y-11232D01*
X16950Y-11529D01*
X16955Y-11523D01*
X17026Y-11594D01*
X17020Y-11600D01*
X17026Y-11605D01*
X16955Y-11676D01*
X16950Y-11670D01*
X16879Y-11741D01*
X16879Y-11600D01*
X16650Y-11370D01*
X16650Y-10310D01*
X16581Y-10145D01*
X16455Y-10018D01*
X16289Y-9950D01*
X16110Y-9949D01*
X15945Y-10018D01*
X15818Y-10144D01*
X15750Y-10310D01*
X15750Y-10386D01*
X15743Y-10263D01*
X15681Y-10112D01*
X15585Y-10084D01*
X15270Y-10400D01*
X15585Y-10715D01*
X15681Y-10687D01*
X15751Y-10492D01*
X15818Y-10654D01*
X15944Y-10781D01*
X16110Y-10849D01*
X16289Y-10850D01*
X16454Y-10781D01*
X16581Y-10655D01*
X16649Y-10489D01*
X16650Y-10310D01*
X16650Y-11370D01*
X16582Y-11302D01*
X16489Y-11327D01*
X16420Y-11524D01*
X16431Y-11732D01*
X16489Y-11872D01*
X16582Y-11897D01*
X16879Y-11600D01*
X16879Y-11741D01*
X16652Y-11967D01*
X16677Y-12060D01*
X16874Y-12129D01*
X17082Y-12118D01*
X17222Y-12060D01*
X17247Y-11967D01*
X17247Y-11967D01*
X17250Y-11971D01*
X17250Y-14650D01*
X17250Y-14650D01*
G37*
G54D15*
X17250Y-14650D02*
X17247Y-14650D01*
X16859Y-14650D01*
X16965Y-14544D01*
X17034Y-14376D01*
X17035Y-14195D01*
X16965Y-14028D01*
X16838Y-13900D01*
X16670Y-13831D01*
X16489Y-13830D01*
X16322Y-13900D01*
X16194Y-14027D01*
X16125Y-14195D01*
X16124Y-14376D01*
X16194Y-14543D01*
X16300Y-14650D01*
X14299Y-14650D01*
X14405Y-14544D01*
X14474Y-14376D01*
X14475Y-14195D01*
X14405Y-14028D01*
X14278Y-13900D01*
X14110Y-13831D01*
X13929Y-13830D01*
X13762Y-13900D01*
X13634Y-14027D01*
X13565Y-14195D01*
X13564Y-14376D01*
X13634Y-14543D01*
X13740Y-14650D01*
X13149Y-14650D01*
X13149Y-11900D01*
X13208Y-11960D01*
X13365Y-12024D01*
X13534Y-12025D01*
X13575Y-12008D01*
X13728Y-12161D01*
X13634Y-12255D01*
X13565Y-12423D01*
X13564Y-12604D01*
X13634Y-12771D01*
X13761Y-12899D01*
X13929Y-12968D01*
X14110Y-12969D01*
X14277Y-12899D01*
X14405Y-12772D01*
X14429Y-12714D01*
X16170Y-12714D01*
X16194Y-12771D01*
X16321Y-12899D01*
X16489Y-12968D01*
X16670Y-12969D01*
X16837Y-12899D01*
X16965Y-12772D01*
X17034Y-12604D01*
X17035Y-12423D01*
X16965Y-12256D01*
X16838Y-12128D01*
X16670Y-12059D01*
X16489Y-12058D01*
X16322Y-12128D01*
X16194Y-12255D01*
X16170Y-12314D01*
X15515Y-12314D01*
X15515Y-10785D01*
X15200Y-10470D01*
X15129Y-10541D01*
X15129Y-10400D01*
X14814Y-10084D01*
X14718Y-10112D01*
X14650Y-10304D01*
X14650Y-10070D01*
X14627Y-10015D01*
X14585Y-9972D01*
X14529Y-9950D01*
X14470Y-9949D01*
X13870Y-9949D01*
X13815Y-9972D01*
X13772Y-10014D01*
X13750Y-10070D01*
X13749Y-10129D01*
X13749Y-10729D01*
X13772Y-10784D01*
X13814Y-10827D01*
X13870Y-10849D01*
X13929Y-10850D01*
X14529Y-10850D01*
X14584Y-10827D01*
X14627Y-10785D01*
X14649Y-10729D01*
X14650Y-10670D01*
X14650Y-10414D01*
X14656Y-10536D01*
X14718Y-10687D01*
X14814Y-10715D01*
X15129Y-10400D01*
X15129Y-10541D01*
X14884Y-10785D01*
X14912Y-10881D01*
X15118Y-10954D01*
X15336Y-10943D01*
X15487Y-10881D01*
X15515Y-10785D01*
X15515Y-12314D01*
X14429Y-12314D01*
X14405Y-12256D01*
X14278Y-12128D01*
X14205Y-12098D01*
X14204Y-12093D01*
X14204Y-12093D01*
X14161Y-12028D01*
X14161Y-12028D01*
X13858Y-11725D01*
X13874Y-11684D01*
X13875Y-11515D01*
X13810Y-11359D01*
X13691Y-11239D01*
X13534Y-11175D01*
X13365Y-11174D01*
X13209Y-11239D01*
X13149Y-11299D01*
X13149Y-9849D01*
X15192Y-9849D01*
X15063Y-9856D01*
X14912Y-9918D01*
X14884Y-10014D01*
X15200Y-10329D01*
X15515Y-10014D01*
X15487Y-9918D01*
X15294Y-9849D01*
X17250Y-9849D01*
X17250Y-11228D01*
X17247Y-11232D01*
X17222Y-11139D01*
X17025Y-11070D01*
X16817Y-11081D01*
X16677Y-11139D01*
X16652Y-11232D01*
X16950Y-11529D01*
X16955Y-11523D01*
X17026Y-11594D01*
X17020Y-11600D01*
X17026Y-11605D01*
X16955Y-11676D01*
X16950Y-11670D01*
X16879Y-11741D01*
X16879Y-11600D01*
X16650Y-11370D01*
X16650Y-10310D01*
X16581Y-10145D01*
X16455Y-10018D01*
X16289Y-9950D01*
X16110Y-9949D01*
X15945Y-10018D01*
X15818Y-10144D01*
X15750Y-10310D01*
X15750Y-10386D01*
X15743Y-10263D01*
X15681Y-10112D01*
X15585Y-10084D01*
X15270Y-10400D01*
X15585Y-10715D01*
X15681Y-10687D01*
X15751Y-10492D01*
X15818Y-10654D01*
X15944Y-10781D01*
X16110Y-10849D01*
X16289Y-10850D01*
X16454Y-10781D01*
X16581Y-10655D01*
X16649Y-10489D01*
X16650Y-10310D01*
X16650Y-11370D01*
X16582Y-11302D01*
X16489Y-11327D01*
X16420Y-11524D01*
X16431Y-11732D01*
X16489Y-11872D01*
X16582Y-11897D01*
X16879Y-11600D01*
X16879Y-11741D01*
X16652Y-11967D01*
X16677Y-12060D01*
X16874Y-12129D01*
X17082Y-12118D01*
X17222Y-12060D01*
X17247Y-11967D01*
X17247Y-11967D01*
X17250Y-11971D01*
X17250Y-14650D01*
M02*
