G04 #@! TF.FileFunction,Legend,Top*
%FSLAX46Y46*%
G04 Gerber Fmt 4.6, Leading zero omitted, Abs format (unit mm)*
G04 Created by KiCad (PCBNEW (after 2015-mar-04 BZR unknown)-product) date 12/16/2015 7:13:12 PM*
%MOMM*%
G01*
G04 APERTURE LIST*
%ADD10C,0.150000*%
%ADD11C,0.300000*%
%ADD12C,0.317500*%
%ADD13C,0.250000*%
%ADD14C,0.203200*%
%ADD15C,0.254000*%
G04 APERTURE END LIST*
D10*
D11*
X33912024Y-46236845D02*
X33912024Y-47824345D01*
X33156072Y-46236845D02*
X33156072Y-47824345D01*
X32248929Y-46236845D01*
X32248929Y-47824345D01*
X31719763Y-47824345D02*
X30812620Y-47824345D01*
X31266191Y-46236845D02*
X31266191Y-47824345D01*
X33987619Y-43789940D02*
X33760833Y-43714345D01*
X33382857Y-43714345D01*
X33231667Y-43789940D01*
X33156071Y-43865536D01*
X33080476Y-44016726D01*
X33080476Y-44167917D01*
X33156071Y-44319107D01*
X33231667Y-44394702D01*
X33382857Y-44470298D01*
X33685238Y-44545893D01*
X33836429Y-44621488D01*
X33912024Y-44697083D01*
X33987619Y-44848274D01*
X33987619Y-44999464D01*
X33912024Y-45150655D01*
X33836429Y-45226250D01*
X33685238Y-45301845D01*
X33307262Y-45301845D01*
X33080476Y-45226250D01*
X31492976Y-43865536D02*
X31568571Y-43789940D01*
X31795357Y-43714345D01*
X31946547Y-43714345D01*
X32173333Y-43789940D01*
X32324524Y-43941131D01*
X32400119Y-44092321D01*
X32475714Y-44394702D01*
X32475714Y-44621488D01*
X32400119Y-44923869D01*
X32324524Y-45075060D01*
X32173333Y-45226250D01*
X31946547Y-45301845D01*
X31795357Y-45301845D01*
X31568571Y-45226250D01*
X31492976Y-45150655D01*
X30056666Y-43714345D02*
X30812619Y-43714345D01*
X30812619Y-45301845D01*
X33080476Y-37658750D02*
X33231667Y-37734345D01*
X33458452Y-37734345D01*
X33685238Y-37658750D01*
X33836429Y-37507560D01*
X33912024Y-37356369D01*
X33987619Y-37053988D01*
X33987619Y-36827202D01*
X33912024Y-36524821D01*
X33836429Y-36373631D01*
X33685238Y-36222440D01*
X33458452Y-36146845D01*
X33307262Y-36146845D01*
X33080476Y-36222440D01*
X33004881Y-36298036D01*
X33004881Y-36827202D01*
X33307262Y-36827202D01*
X32324524Y-36146845D02*
X32324524Y-37734345D01*
X31417381Y-36146845D01*
X31417381Y-37734345D01*
X30661429Y-36146845D02*
X30661429Y-37734345D01*
X30283453Y-37734345D01*
X30056667Y-37658750D01*
X29905476Y-37507560D01*
X29829881Y-37356369D01*
X29754286Y-37053988D01*
X29754286Y-36827202D01*
X29829881Y-36524821D01*
X29905476Y-36373631D01*
X30056667Y-36222440D01*
X30283453Y-36146845D01*
X30661429Y-36146845D01*
X15617976Y-32485655D02*
X15617976Y-30898155D01*
X16373928Y-32485655D02*
X16373928Y-30898155D01*
X17281071Y-32485655D01*
X17281071Y-30898155D01*
X17810237Y-30898155D02*
X18717380Y-30898155D01*
X18263809Y-32485655D02*
X18263809Y-30898155D01*
X15542381Y-34932560D02*
X15769167Y-35008155D01*
X16147143Y-35008155D01*
X16298333Y-34932560D01*
X16373929Y-34856964D01*
X16449524Y-34705774D01*
X16449524Y-34554583D01*
X16373929Y-34403393D01*
X16298333Y-34327798D01*
X16147143Y-34252202D01*
X15844762Y-34176607D01*
X15693571Y-34101012D01*
X15617976Y-34025417D01*
X15542381Y-33874226D01*
X15542381Y-33723036D01*
X15617976Y-33571845D01*
X15693571Y-33496250D01*
X15844762Y-33420655D01*
X16222738Y-33420655D01*
X16449524Y-33496250D01*
X18037024Y-34856964D02*
X17961429Y-34932560D01*
X17734643Y-35008155D01*
X17583453Y-35008155D01*
X17356667Y-34932560D01*
X17205476Y-34781369D01*
X17129881Y-34630179D01*
X17054286Y-34327798D01*
X17054286Y-34101012D01*
X17129881Y-33798631D01*
X17205476Y-33647440D01*
X17356667Y-33496250D01*
X17583453Y-33420655D01*
X17734643Y-33420655D01*
X17961429Y-33496250D01*
X18037024Y-33571845D01*
X19473334Y-35008155D02*
X18717381Y-35008155D01*
X18717381Y-33420655D01*
X15542381Y-37455060D02*
X15769167Y-37530655D01*
X16147143Y-37530655D01*
X16298333Y-37455060D01*
X16373929Y-37379464D01*
X16449524Y-37228274D01*
X16449524Y-37077083D01*
X16373929Y-36925893D01*
X16298333Y-36850298D01*
X16147143Y-36774702D01*
X15844762Y-36699107D01*
X15693571Y-36623512D01*
X15617976Y-36547917D01*
X15542381Y-36396726D01*
X15542381Y-36245536D01*
X15617976Y-36094345D01*
X15693571Y-36018750D01*
X15844762Y-35943155D01*
X16222738Y-35943155D01*
X16449524Y-36018750D01*
X17129881Y-37530655D02*
X17129881Y-35943155D01*
X17507857Y-35943155D01*
X17734643Y-36018750D01*
X17885834Y-36169940D01*
X17961429Y-36321131D01*
X18037024Y-36623512D01*
X18037024Y-36850298D01*
X17961429Y-37152679D01*
X17885834Y-37303869D01*
X17734643Y-37455060D01*
X17507857Y-37530655D01*
X17129881Y-37530655D01*
X18641786Y-37077083D02*
X19397738Y-37077083D01*
X18490595Y-37530655D02*
X19019762Y-35943155D01*
X19548929Y-37530655D01*
X33912024Y-24392845D02*
X33912024Y-25980345D01*
X33156072Y-24392845D02*
X33156072Y-25980345D01*
X32248929Y-24392845D01*
X32248929Y-25980345D01*
X31719763Y-25980345D02*
X30812620Y-25980345D01*
X31266191Y-24392845D02*
X31266191Y-25980345D01*
X33987619Y-21945940D02*
X33760833Y-21870345D01*
X33382857Y-21870345D01*
X33231667Y-21945940D01*
X33156071Y-22021536D01*
X33080476Y-22172726D01*
X33080476Y-22323917D01*
X33156071Y-22475107D01*
X33231667Y-22550702D01*
X33382857Y-22626298D01*
X33685238Y-22701893D01*
X33836429Y-22777488D01*
X33912024Y-22853083D01*
X33987619Y-23004274D01*
X33987619Y-23155464D01*
X33912024Y-23306655D01*
X33836429Y-23382250D01*
X33685238Y-23457845D01*
X33307262Y-23457845D01*
X33080476Y-23382250D01*
X31492976Y-22021536D02*
X31568571Y-21945940D01*
X31795357Y-21870345D01*
X31946547Y-21870345D01*
X32173333Y-21945940D01*
X32324524Y-22097131D01*
X32400119Y-22248321D01*
X32475714Y-22550702D01*
X32475714Y-22777488D01*
X32400119Y-23079869D01*
X32324524Y-23231060D01*
X32173333Y-23382250D01*
X31946547Y-23457845D01*
X31795357Y-23457845D01*
X31568571Y-23382250D01*
X31492976Y-23306655D01*
X30056666Y-21870345D02*
X30812619Y-21870345D01*
X30812619Y-23457845D01*
X33987619Y-19423440D02*
X33760833Y-19347845D01*
X33382857Y-19347845D01*
X33231667Y-19423440D01*
X33156071Y-19499036D01*
X33080476Y-19650226D01*
X33080476Y-19801417D01*
X33156071Y-19952607D01*
X33231667Y-20028202D01*
X33382857Y-20103798D01*
X33685238Y-20179393D01*
X33836429Y-20254988D01*
X33912024Y-20330583D01*
X33987619Y-20481774D01*
X33987619Y-20632964D01*
X33912024Y-20784155D01*
X33836429Y-20859750D01*
X33685238Y-20935345D01*
X33307262Y-20935345D01*
X33080476Y-20859750D01*
X32400119Y-19347845D02*
X32400119Y-20935345D01*
X32022143Y-20935345D01*
X31795357Y-20859750D01*
X31644166Y-20708560D01*
X31568571Y-20557369D01*
X31492976Y-20254988D01*
X31492976Y-20028202D01*
X31568571Y-19725821D01*
X31644166Y-19574631D01*
X31795357Y-19423440D01*
X32022143Y-19347845D01*
X32400119Y-19347845D01*
X30888214Y-19801417D02*
X30132262Y-19801417D01*
X31039405Y-19347845D02*
X30510238Y-20935345D01*
X29981071Y-19347845D01*
X33912024Y-17430107D02*
X32702500Y-17430107D01*
X33307262Y-16825345D02*
X33307262Y-18034869D01*
X32173334Y-18412845D02*
X31644167Y-16825345D01*
X31115000Y-18412845D01*
X33080476Y-15814750D02*
X33231667Y-15890345D01*
X33458452Y-15890345D01*
X33685238Y-15814750D01*
X33836429Y-15663560D01*
X33912024Y-15512369D01*
X33987619Y-15209988D01*
X33987619Y-14983202D01*
X33912024Y-14680821D01*
X33836429Y-14529631D01*
X33685238Y-14378440D01*
X33458452Y-14302845D01*
X33307262Y-14302845D01*
X33080476Y-14378440D01*
X33004881Y-14454036D01*
X33004881Y-14983202D01*
X33307262Y-14983202D01*
X32324524Y-14302845D02*
X32324524Y-15890345D01*
X31417381Y-14302845D01*
X31417381Y-15890345D01*
X30661429Y-14302845D02*
X30661429Y-15890345D01*
X30283453Y-15890345D01*
X30056667Y-15814750D01*
X29905476Y-15663560D01*
X29829881Y-15512369D01*
X29754286Y-15209988D01*
X29754286Y-14983202D01*
X29829881Y-14680821D01*
X29905476Y-14529631D01*
X30056667Y-14378440D01*
X30283453Y-14302845D01*
X30661429Y-14302845D01*
X15871976Y-12183155D02*
X15871976Y-10595655D01*
X16627928Y-12183155D02*
X16627928Y-10595655D01*
X17535071Y-12183155D01*
X17535071Y-10595655D01*
X18064237Y-10595655D02*
X18971380Y-10595655D01*
X18517809Y-12183155D02*
X18517809Y-10595655D01*
X15796381Y-14630060D02*
X16023167Y-14705655D01*
X16401143Y-14705655D01*
X16552333Y-14630060D01*
X16627929Y-14554464D01*
X16703524Y-14403274D01*
X16703524Y-14252083D01*
X16627929Y-14100893D01*
X16552333Y-14025298D01*
X16401143Y-13949702D01*
X16098762Y-13874107D01*
X15947571Y-13798512D01*
X15871976Y-13722917D01*
X15796381Y-13571726D01*
X15796381Y-13420536D01*
X15871976Y-13269345D01*
X15947571Y-13193750D01*
X16098762Y-13118155D01*
X16476738Y-13118155D01*
X16703524Y-13193750D01*
X18291024Y-14554464D02*
X18215429Y-14630060D01*
X17988643Y-14705655D01*
X17837453Y-14705655D01*
X17610667Y-14630060D01*
X17459476Y-14478869D01*
X17383881Y-14327679D01*
X17308286Y-14025298D01*
X17308286Y-13798512D01*
X17383881Y-13496131D01*
X17459476Y-13344940D01*
X17610667Y-13193750D01*
X17837453Y-13118155D01*
X17988643Y-13118155D01*
X18215429Y-13193750D01*
X18291024Y-13269345D01*
X19727334Y-14705655D02*
X18971381Y-14705655D01*
X18971381Y-13118155D01*
X15796381Y-17152560D02*
X16023167Y-17228155D01*
X16401143Y-17228155D01*
X16552333Y-17152560D01*
X16627929Y-17076964D01*
X16703524Y-16925774D01*
X16703524Y-16774583D01*
X16627929Y-16623393D01*
X16552333Y-16547798D01*
X16401143Y-16472202D01*
X16098762Y-16396607D01*
X15947571Y-16321012D01*
X15871976Y-16245417D01*
X15796381Y-16094226D01*
X15796381Y-15943036D01*
X15871976Y-15791845D01*
X15947571Y-15716250D01*
X16098762Y-15640655D01*
X16476738Y-15640655D01*
X16703524Y-15716250D01*
X17383881Y-17228155D02*
X17383881Y-15640655D01*
X17761857Y-15640655D01*
X17988643Y-15716250D01*
X18139834Y-15867440D01*
X18215429Y-16018631D01*
X18291024Y-16321012D01*
X18291024Y-16547798D01*
X18215429Y-16850179D01*
X18139834Y-17001369D01*
X17988643Y-17152560D01*
X17761857Y-17228155D01*
X17383881Y-17228155D01*
X18895786Y-16774583D02*
X19651738Y-16774583D01*
X18744595Y-17228155D02*
X19273762Y-15640655D01*
X19802929Y-17228155D01*
X15871976Y-19145893D02*
X17081500Y-19145893D01*
X16476738Y-19750655D02*
X16476738Y-18541131D01*
X17610666Y-18163155D02*
X18139833Y-19750655D01*
X18669000Y-18163155D01*
X16703524Y-20761250D02*
X16552333Y-20685655D01*
X16325548Y-20685655D01*
X16098762Y-20761250D01*
X15947571Y-20912440D01*
X15871976Y-21063631D01*
X15796381Y-21366012D01*
X15796381Y-21592798D01*
X15871976Y-21895179D01*
X15947571Y-22046369D01*
X16098762Y-22197560D01*
X16325548Y-22273155D01*
X16476738Y-22273155D01*
X16703524Y-22197560D01*
X16779119Y-22121964D01*
X16779119Y-21592798D01*
X16476738Y-21592798D01*
X17459476Y-22273155D02*
X17459476Y-20685655D01*
X18366619Y-22273155D01*
X18366619Y-20685655D01*
X19122571Y-22273155D02*
X19122571Y-20685655D01*
X19500547Y-20685655D01*
X19727333Y-20761250D01*
X19878524Y-20912440D01*
X19954119Y-21063631D01*
X20029714Y-21366012D01*
X20029714Y-21592798D01*
X19954119Y-21895179D01*
X19878524Y-22046369D01*
X19727333Y-22197560D01*
X19500547Y-22273155D01*
X19122571Y-22273155D01*
X16379286Y-45325571D02*
X16379286Y-43825571D01*
X16950714Y-43825571D01*
X17093572Y-43897000D01*
X17165000Y-43968429D01*
X17236429Y-44111286D01*
X17236429Y-44325571D01*
X17165000Y-44468429D01*
X17093572Y-44539857D01*
X16950714Y-44611286D01*
X16379286Y-44611286D01*
X18165000Y-43825571D02*
X18307857Y-43825571D01*
X18450714Y-43897000D01*
X18522143Y-43968429D01*
X18593572Y-44111286D01*
X18665000Y-44397000D01*
X18665000Y-44754143D01*
X18593572Y-45039857D01*
X18522143Y-45182714D01*
X18450714Y-45254143D01*
X18307857Y-45325571D01*
X18165000Y-45325571D01*
X18022143Y-45254143D01*
X17950714Y-45182714D01*
X17879286Y-45039857D01*
X17807857Y-44754143D01*
X17807857Y-44397000D01*
X17879286Y-44111286D01*
X17950714Y-43968429D01*
X18022143Y-43897000D01*
X18165000Y-43825571D01*
X19307857Y-44539857D02*
X20450714Y-44539857D01*
X20450714Y-44968429D02*
X19307857Y-44968429D01*
X16200715Y-46225571D02*
X17129286Y-46225571D01*
X16629286Y-46797000D01*
X16843572Y-46797000D01*
X16986429Y-46868429D01*
X17057858Y-46939857D01*
X17129286Y-47082714D01*
X17129286Y-47439857D01*
X17057858Y-47582714D01*
X16986429Y-47654143D01*
X16843572Y-47725571D01*
X16415000Y-47725571D01*
X16272143Y-47654143D01*
X16200715Y-47582714D01*
X17772143Y-47582714D02*
X17843571Y-47654143D01*
X17772143Y-47725571D01*
X17700714Y-47654143D01*
X17772143Y-47582714D01*
X17772143Y-47725571D01*
X18343572Y-46225571D02*
X19272143Y-46225571D01*
X18772143Y-46797000D01*
X18986429Y-46797000D01*
X19129286Y-46868429D01*
X19200715Y-46939857D01*
X19272143Y-47082714D01*
X19272143Y-47439857D01*
X19200715Y-47582714D01*
X19129286Y-47654143D01*
X18986429Y-47725571D01*
X18557857Y-47725571D01*
X18415000Y-47654143D01*
X18343572Y-47582714D01*
X19700714Y-46225571D02*
X20200714Y-47725571D01*
X20700714Y-46225571D01*
X21332286Y-11924571D02*
X21332286Y-10424571D01*
X21903714Y-10424571D01*
X22046572Y-10496000D01*
X22118000Y-10567429D01*
X22189429Y-10710286D01*
X22189429Y-10924571D01*
X22118000Y-11067429D01*
X22046572Y-11138857D01*
X21903714Y-11210286D01*
X21332286Y-11210286D01*
X22760857Y-10567429D02*
X22832286Y-10496000D01*
X22975143Y-10424571D01*
X23332286Y-10424571D01*
X23475143Y-10496000D01*
X23546572Y-10567429D01*
X23618000Y-10710286D01*
X23618000Y-10853143D01*
X23546572Y-11067429D01*
X22689429Y-11924571D01*
X23618000Y-11924571D01*
X24260857Y-11138857D02*
X25403714Y-11138857D01*
X25403714Y-11567429D02*
X24260857Y-11567429D01*
X21153715Y-12824571D02*
X22082286Y-12824571D01*
X21582286Y-13396000D01*
X21796572Y-13396000D01*
X21939429Y-13467429D01*
X22010858Y-13538857D01*
X22082286Y-13681714D01*
X22082286Y-14038857D01*
X22010858Y-14181714D01*
X21939429Y-14253143D01*
X21796572Y-14324571D01*
X21368000Y-14324571D01*
X21225143Y-14253143D01*
X21153715Y-14181714D01*
X22725143Y-14181714D02*
X22796571Y-14253143D01*
X22725143Y-14324571D01*
X22653714Y-14253143D01*
X22725143Y-14181714D01*
X22725143Y-14324571D01*
X23296572Y-12824571D02*
X24225143Y-12824571D01*
X23725143Y-13396000D01*
X23939429Y-13396000D01*
X24082286Y-13467429D01*
X24153715Y-13538857D01*
X24225143Y-13681714D01*
X24225143Y-14038857D01*
X24153715Y-14181714D01*
X24082286Y-14253143D01*
X23939429Y-14324571D01*
X23510857Y-14324571D01*
X23368000Y-14253143D01*
X23296572Y-14181714D01*
X24653714Y-12824571D02*
X25153714Y-14324571D01*
X25653714Y-12824571D01*
X37191715Y-29888571D02*
X37191715Y-28388571D01*
X37763143Y-28388571D01*
X37906001Y-28460000D01*
X37977429Y-28531429D01*
X38048858Y-28674286D01*
X38048858Y-28888571D01*
X37977429Y-29031429D01*
X37906001Y-29102857D01*
X37763143Y-29174286D01*
X37191715Y-29174286D01*
X39477429Y-29888571D02*
X38620286Y-29888571D01*
X39048858Y-29888571D02*
X39048858Y-28388571D01*
X38906001Y-28602857D01*
X38763143Y-28745714D01*
X38620286Y-28817143D01*
X40120286Y-29102857D02*
X41263143Y-29102857D01*
X41263143Y-29531429D02*
X40120286Y-29531429D01*
X41834572Y-28388571D02*
X42763143Y-28388571D01*
X42263143Y-28960000D01*
X42477429Y-28960000D01*
X42620286Y-29031429D01*
X42691715Y-29102857D01*
X42763143Y-29245714D01*
X42763143Y-29602857D01*
X42691715Y-29745714D01*
X42620286Y-29817143D01*
X42477429Y-29888571D01*
X42048857Y-29888571D01*
X41906000Y-29817143D01*
X41834572Y-29745714D01*
X43406000Y-29745714D02*
X43477428Y-29817143D01*
X43406000Y-29888571D01*
X43334571Y-29817143D01*
X43406000Y-29745714D01*
X43406000Y-29888571D01*
X43977429Y-28388571D02*
X44906000Y-28388571D01*
X44406000Y-28960000D01*
X44620286Y-28960000D01*
X44763143Y-29031429D01*
X44834572Y-29102857D01*
X44906000Y-29245714D01*
X44906000Y-29602857D01*
X44834572Y-29745714D01*
X44763143Y-29817143D01*
X44620286Y-29888571D01*
X44191714Y-29888571D01*
X44048857Y-29817143D01*
X43977429Y-29745714D01*
X45334571Y-28388571D02*
X45834571Y-29888571D01*
X46334571Y-28388571D01*
X2266715Y-29507571D02*
X2266715Y-28007571D01*
X2838143Y-28007571D01*
X2981001Y-28079000D01*
X3052429Y-28150429D01*
X3123858Y-28293286D01*
X3123858Y-28507571D01*
X3052429Y-28650429D01*
X2981001Y-28721857D01*
X2838143Y-28793286D01*
X2266715Y-28793286D01*
X3623858Y-28007571D02*
X4552429Y-28007571D01*
X4052429Y-28579000D01*
X4266715Y-28579000D01*
X4409572Y-28650429D01*
X4481001Y-28721857D01*
X4552429Y-28864714D01*
X4552429Y-29221857D01*
X4481001Y-29364714D01*
X4409572Y-29436143D01*
X4266715Y-29507571D01*
X3838143Y-29507571D01*
X3695286Y-29436143D01*
X3623858Y-29364714D01*
X5195286Y-28721857D02*
X6338143Y-28721857D01*
X6338143Y-29150429D02*
X5195286Y-29150429D01*
X6909572Y-28007571D02*
X7838143Y-28007571D01*
X7338143Y-28579000D01*
X7552429Y-28579000D01*
X7695286Y-28650429D01*
X7766715Y-28721857D01*
X7838143Y-28864714D01*
X7838143Y-29221857D01*
X7766715Y-29364714D01*
X7695286Y-29436143D01*
X7552429Y-29507571D01*
X7123857Y-29507571D01*
X6981000Y-29436143D01*
X6909572Y-29364714D01*
X8481000Y-29364714D02*
X8552428Y-29436143D01*
X8481000Y-29507571D01*
X8409571Y-29436143D01*
X8481000Y-29364714D01*
X8481000Y-29507571D01*
X9052429Y-28007571D02*
X9981000Y-28007571D01*
X9481000Y-28579000D01*
X9695286Y-28579000D01*
X9838143Y-28650429D01*
X9909572Y-28721857D01*
X9981000Y-28864714D01*
X9981000Y-29221857D01*
X9909572Y-29364714D01*
X9838143Y-29436143D01*
X9695286Y-29507571D01*
X9266714Y-29507571D01*
X9123857Y-29436143D01*
X9052429Y-29364714D01*
X10409571Y-28007571D02*
X10909571Y-29507571D01*
X11409571Y-28007571D01*
X1226429Y-12482286D02*
X2726429Y-12482286D01*
X2726429Y-13053714D01*
X2655000Y-13196572D01*
X2583571Y-13268000D01*
X2440714Y-13339429D01*
X2226429Y-13339429D01*
X2083571Y-13268000D01*
X2012143Y-13196572D01*
X1940714Y-13053714D01*
X1940714Y-12482286D01*
X2726429Y-14268000D02*
X2726429Y-14553714D01*
X2655000Y-14696572D01*
X2512143Y-14839429D01*
X2226429Y-14910857D01*
X1726429Y-14910857D01*
X1440714Y-14839429D01*
X1297857Y-14696572D01*
X1226429Y-14553714D01*
X1226429Y-14268000D01*
X1297857Y-14125143D01*
X1440714Y-13982286D01*
X1726429Y-13910857D01*
X2226429Y-13910857D01*
X2512143Y-13982286D01*
X2655000Y-14125143D01*
X2726429Y-14268000D01*
X1226429Y-16410858D02*
X1940714Y-15910858D01*
X1226429Y-15553715D02*
X2726429Y-15553715D01*
X2726429Y-16125143D01*
X2655000Y-16268001D01*
X2583571Y-16339429D01*
X2440714Y-16410858D01*
X2226429Y-16410858D01*
X2083571Y-16339429D01*
X2012143Y-16268001D01*
X1940714Y-16125143D01*
X1940714Y-15553715D01*
X2726429Y-16839429D02*
X2726429Y-17696572D01*
X1226429Y-17268001D02*
X2726429Y-17268001D01*
X2226429Y-19268000D02*
X2226429Y-20339429D01*
X2869286Y-19696572D02*
X940714Y-19268000D01*
X1583571Y-20196572D02*
X1583571Y-19125143D01*
X940714Y-19768000D02*
X2869286Y-20196572D01*
X2726429Y-20696572D02*
X2726429Y-21625143D01*
X2155000Y-21125143D01*
X2155000Y-21339429D01*
X2083571Y-21482286D01*
X2012143Y-21553715D01*
X1869286Y-21625143D01*
X1512143Y-21625143D01*
X1369286Y-21553715D01*
X1297857Y-21482286D01*
X1226429Y-21339429D01*
X1226429Y-20910857D01*
X1297857Y-20768000D01*
X1369286Y-20696572D01*
X1226429Y-32294286D02*
X2726429Y-32294286D01*
X2726429Y-32865714D01*
X2655000Y-33008572D01*
X2583571Y-33080000D01*
X2440714Y-33151429D01*
X2226429Y-33151429D01*
X2083571Y-33080000D01*
X2012143Y-33008572D01*
X1940714Y-32865714D01*
X1940714Y-32294286D01*
X2726429Y-34080000D02*
X2726429Y-34365714D01*
X2655000Y-34508572D01*
X2512143Y-34651429D01*
X2226429Y-34722857D01*
X1726429Y-34722857D01*
X1440714Y-34651429D01*
X1297857Y-34508572D01*
X1226429Y-34365714D01*
X1226429Y-34080000D01*
X1297857Y-33937143D01*
X1440714Y-33794286D01*
X1726429Y-33722857D01*
X2226429Y-33722857D01*
X2512143Y-33794286D01*
X2655000Y-33937143D01*
X2726429Y-34080000D01*
X1226429Y-36222858D02*
X1940714Y-35722858D01*
X1226429Y-35365715D02*
X2726429Y-35365715D01*
X2726429Y-35937143D01*
X2655000Y-36080001D01*
X2583571Y-36151429D01*
X2440714Y-36222858D01*
X2226429Y-36222858D01*
X2083571Y-36151429D01*
X2012143Y-36080001D01*
X1940714Y-35937143D01*
X1940714Y-35365715D01*
X2726429Y-36651429D02*
X2726429Y-37508572D01*
X1226429Y-37080001D02*
X2726429Y-37080001D01*
X2226429Y-39080000D02*
X2226429Y-40151429D01*
X2869286Y-39508572D02*
X940714Y-39080000D01*
X1583571Y-40008572D02*
X1583571Y-38937143D01*
X940714Y-39580000D02*
X2869286Y-40008572D01*
X2726429Y-40937143D02*
X2726429Y-41080000D01*
X2655000Y-41222857D01*
X2583571Y-41294286D01*
X2440714Y-41365715D01*
X2155000Y-41437143D01*
X1797857Y-41437143D01*
X1512143Y-41365715D01*
X1369286Y-41294286D01*
X1297857Y-41222857D01*
X1226429Y-41080000D01*
X1226429Y-40937143D01*
X1297857Y-40794286D01*
X1369286Y-40722857D01*
X1512143Y-40651429D01*
X1797857Y-40580000D01*
X2155000Y-40580000D01*
X2440714Y-40651429D01*
X2583571Y-40722857D01*
X2655000Y-40794286D01*
X2726429Y-40937143D01*
X47795571Y-24474714D02*
X46295571Y-24474714D01*
X46295571Y-23903286D01*
X46367000Y-23760428D01*
X46438429Y-23689000D01*
X46581286Y-23617571D01*
X46795571Y-23617571D01*
X46938429Y-23689000D01*
X47009857Y-23760428D01*
X47081286Y-23903286D01*
X47081286Y-24474714D01*
X46295571Y-22689000D02*
X46295571Y-22403286D01*
X46367000Y-22260428D01*
X46509857Y-22117571D01*
X46795571Y-22046143D01*
X47295571Y-22046143D01*
X47581286Y-22117571D01*
X47724143Y-22260428D01*
X47795571Y-22403286D01*
X47795571Y-22689000D01*
X47724143Y-22831857D01*
X47581286Y-22974714D01*
X47295571Y-23046143D01*
X46795571Y-23046143D01*
X46509857Y-22974714D01*
X46367000Y-22831857D01*
X46295571Y-22689000D01*
X47795571Y-20546142D02*
X47081286Y-21046142D01*
X47795571Y-21403285D02*
X46295571Y-21403285D01*
X46295571Y-20831857D01*
X46367000Y-20688999D01*
X46438429Y-20617571D01*
X46581286Y-20546142D01*
X46795571Y-20546142D01*
X46938429Y-20617571D01*
X47009857Y-20688999D01*
X47081286Y-20831857D01*
X47081286Y-21403285D01*
X46295571Y-20117571D02*
X46295571Y-19260428D01*
X47795571Y-19688999D02*
X46295571Y-19688999D01*
X46795571Y-17689000D02*
X46795571Y-16617571D01*
X46152714Y-17260428D02*
X48081286Y-17689000D01*
X47438429Y-16760428D02*
X47438429Y-17831857D01*
X48081286Y-17189000D02*
X46152714Y-16760428D01*
X46438429Y-16189000D02*
X46367000Y-16117571D01*
X46295571Y-15974714D01*
X46295571Y-15617571D01*
X46367000Y-15474714D01*
X46438429Y-15403285D01*
X46581286Y-15331857D01*
X46724143Y-15331857D01*
X46938429Y-15403285D01*
X47795571Y-16260428D01*
X47795571Y-15331857D01*
X48049571Y-46318714D02*
X46549571Y-46318714D01*
X46549571Y-45747286D01*
X46621000Y-45604428D01*
X46692429Y-45533000D01*
X46835286Y-45461571D01*
X47049571Y-45461571D01*
X47192429Y-45533000D01*
X47263857Y-45604428D01*
X47335286Y-45747286D01*
X47335286Y-46318714D01*
X46549571Y-44533000D02*
X46549571Y-44247286D01*
X46621000Y-44104428D01*
X46763857Y-43961571D01*
X47049571Y-43890143D01*
X47549571Y-43890143D01*
X47835286Y-43961571D01*
X47978143Y-44104428D01*
X48049571Y-44247286D01*
X48049571Y-44533000D01*
X47978143Y-44675857D01*
X47835286Y-44818714D01*
X47549571Y-44890143D01*
X47049571Y-44890143D01*
X46763857Y-44818714D01*
X46621000Y-44675857D01*
X46549571Y-44533000D01*
X48049571Y-42390142D02*
X47335286Y-42890142D01*
X48049571Y-43247285D02*
X46549571Y-43247285D01*
X46549571Y-42675857D01*
X46621000Y-42532999D01*
X46692429Y-42461571D01*
X46835286Y-42390142D01*
X47049571Y-42390142D01*
X47192429Y-42461571D01*
X47263857Y-42532999D01*
X47335286Y-42675857D01*
X47335286Y-43247285D01*
X46549571Y-41961571D02*
X46549571Y-41104428D01*
X48049571Y-41532999D02*
X46549571Y-41532999D01*
X47049571Y-39533000D02*
X47049571Y-38461571D01*
X46406714Y-39104428D02*
X48335286Y-39533000D01*
X47692429Y-38604428D02*
X47692429Y-39675857D01*
X48335286Y-39033000D02*
X46406714Y-38604428D01*
X48049571Y-37175857D02*
X48049571Y-38033000D01*
X48049571Y-37604428D02*
X46549571Y-37604428D01*
X46763857Y-37747285D01*
X46906714Y-37890143D01*
X46978143Y-38033000D01*
X18122143Y-42588571D02*
X17622143Y-41874286D01*
X17265000Y-42588571D02*
X17265000Y-41088571D01*
X17836428Y-41088571D01*
X17979286Y-41160000D01*
X18050714Y-41231429D01*
X18122143Y-41374286D01*
X18122143Y-41588571D01*
X18050714Y-41731429D01*
X17979286Y-41802857D01*
X17836428Y-41874286D01*
X17265000Y-41874286D01*
X18765000Y-42588571D02*
X18765000Y-41088571D01*
X19336428Y-41088571D01*
X19479286Y-41160000D01*
X19550714Y-41231429D01*
X19622143Y-41374286D01*
X19622143Y-41588571D01*
X19550714Y-41731429D01*
X19479286Y-41802857D01*
X19336428Y-41874286D01*
X18765000Y-41874286D01*
X20265000Y-42588571D02*
X20265000Y-41088571D01*
X20979286Y-42017143D02*
X22122143Y-42017143D01*
X22836429Y-42588571D02*
X22836429Y-41088571D01*
X23479286Y-41231429D02*
X23550715Y-41160000D01*
X23693572Y-41088571D01*
X24050715Y-41088571D01*
X24193572Y-41160000D01*
X24265001Y-41231429D01*
X24336429Y-41374286D01*
X24336429Y-41517143D01*
X24265001Y-41731429D01*
X23407858Y-42588571D01*
X24336429Y-42588571D01*
X25836429Y-42445714D02*
X25765000Y-42517143D01*
X25550714Y-42588571D01*
X25407857Y-42588571D01*
X25193572Y-42517143D01*
X25050714Y-42374286D01*
X24979286Y-42231429D01*
X24907857Y-41945714D01*
X24907857Y-41731429D01*
X24979286Y-41445714D01*
X25050714Y-41302857D01*
X25193572Y-41160000D01*
X25407857Y-41088571D01*
X25550714Y-41088571D01*
X25765000Y-41160000D01*
X25836429Y-41231429D01*
X26479286Y-42017143D02*
X27622143Y-42017143D01*
X28336429Y-42588571D02*
X28336429Y-41088571D01*
X28336429Y-41802857D02*
X29193572Y-41802857D01*
X29193572Y-42588571D02*
X29193572Y-41088571D01*
X29907858Y-41088571D02*
X29907858Y-42302857D01*
X29979286Y-42445714D01*
X30050715Y-42517143D01*
X30193572Y-42588571D01*
X30479286Y-42588571D01*
X30622144Y-42517143D01*
X30693572Y-42445714D01*
X30765001Y-42302857D01*
X30765001Y-41088571D01*
X31979287Y-41802857D02*
X32193573Y-41874286D01*
X32265001Y-41945714D01*
X32336430Y-42088571D01*
X32336430Y-42302857D01*
X32265001Y-42445714D01*
X32193573Y-42517143D01*
X32050715Y-42588571D01*
X31479287Y-42588571D01*
X31479287Y-41088571D01*
X31979287Y-41088571D01*
X32122144Y-41160000D01*
X32193573Y-41231429D01*
X32265001Y-41374286D01*
X32265001Y-41517143D01*
X32193573Y-41660000D01*
X32122144Y-41731429D01*
X31979287Y-41802857D01*
X31479287Y-41802857D01*
D12*
X2630714Y-8575524D02*
X2630714Y-7305524D01*
X3114523Y-7305524D01*
X3235476Y-7366000D01*
X3295952Y-7426476D01*
X3356428Y-7547429D01*
X3356428Y-7728857D01*
X3295952Y-7849810D01*
X3235476Y-7910286D01*
X3114523Y-7970762D01*
X2630714Y-7970762D01*
X3779762Y-7305524D02*
X4082143Y-8575524D01*
X4324047Y-7668381D01*
X4565952Y-8575524D01*
X4868333Y-7305524D01*
X5775476Y-7910286D02*
X5956905Y-7970762D01*
X6017381Y-8031238D01*
X6077857Y-8152190D01*
X6077857Y-8333619D01*
X6017381Y-8454571D01*
X5956905Y-8515048D01*
X5835952Y-8575524D01*
X5352143Y-8575524D01*
X5352143Y-7305524D01*
X5775476Y-7305524D01*
X5896429Y-7366000D01*
X5956905Y-7426476D01*
X6017381Y-7547429D01*
X6017381Y-7668381D01*
X5956905Y-7789333D01*
X5896429Y-7849810D01*
X5775476Y-7910286D01*
X5352143Y-7910286D01*
X8315476Y-8575524D02*
X7892143Y-7970762D01*
X7589762Y-8575524D02*
X7589762Y-7305524D01*
X8073571Y-7305524D01*
X8194524Y-7366000D01*
X8255000Y-7426476D01*
X8315476Y-7547429D01*
X8315476Y-7728857D01*
X8255000Y-7849810D01*
X8194524Y-7910286D01*
X8073571Y-7970762D01*
X7589762Y-7970762D01*
X8859762Y-7910286D02*
X9283095Y-7910286D01*
X9464524Y-8575524D02*
X8859762Y-8575524D01*
X8859762Y-7305524D01*
X9464524Y-7305524D01*
X9827381Y-7305524D02*
X10250715Y-8575524D01*
X10674048Y-7305524D01*
X11944048Y-7305524D02*
X12790714Y-8575524D01*
X12790714Y-7305524D02*
X11944048Y-8575524D01*
X13153572Y-7305524D02*
X13939762Y-7305524D01*
X13516429Y-7789333D01*
X13697857Y-7789333D01*
X13818810Y-7849810D01*
X13879286Y-7910286D01*
X13939762Y-8031238D01*
X13939762Y-8333619D01*
X13879286Y-8454571D01*
X13818810Y-8515048D01*
X13697857Y-8575524D01*
X13335000Y-8575524D01*
X13214048Y-8515048D01*
X13153572Y-8454571D01*
D13*
X16522095Y-40198524D02*
X16401142Y-40138048D01*
X16340666Y-40017095D01*
X16340666Y-38928524D01*
X17550190Y-40198524D02*
X17550190Y-39533286D01*
X17489713Y-39412333D01*
X17368761Y-39351857D01*
X17126856Y-39351857D01*
X17005904Y-39412333D01*
X17550190Y-40138048D02*
X17429237Y-40198524D01*
X17126856Y-40198524D01*
X17005904Y-40138048D01*
X16945428Y-40017095D01*
X16945428Y-39896143D01*
X17005904Y-39775190D01*
X17126856Y-39714714D01*
X17429237Y-39714714D01*
X17550190Y-39654238D01*
X18154952Y-39351857D02*
X18154952Y-40198524D01*
X18154952Y-39472810D02*
X18215428Y-39412333D01*
X18336381Y-39351857D01*
X18517809Y-39351857D01*
X18638761Y-39412333D01*
X18699238Y-39533286D01*
X18699238Y-40198524D01*
X19848286Y-40198524D02*
X19848286Y-38928524D01*
X19848286Y-40138048D02*
X19727333Y-40198524D01*
X19485429Y-40198524D01*
X19364476Y-40138048D01*
X19304000Y-40077571D01*
X19243524Y-39956619D01*
X19243524Y-39593762D01*
X19304000Y-39472810D01*
X19364476Y-39412333D01*
X19485429Y-39351857D01*
X19727333Y-39351857D01*
X19848286Y-39412333D01*
X20453048Y-39714714D02*
X21420667Y-39714714D01*
X22025429Y-40198524D02*
X22025429Y-38928524D01*
X22025429Y-39412333D02*
X22146381Y-39351857D01*
X22388286Y-39351857D01*
X22509238Y-39412333D01*
X22569715Y-39472810D01*
X22630191Y-39593762D01*
X22630191Y-39956619D01*
X22569715Y-40077571D01*
X22509238Y-40138048D01*
X22388286Y-40198524D01*
X22146381Y-40198524D01*
X22025429Y-40138048D01*
X23355906Y-40198524D02*
X23234953Y-40138048D01*
X23174477Y-40077571D01*
X23114001Y-39956619D01*
X23114001Y-39593762D01*
X23174477Y-39472810D01*
X23234953Y-39412333D01*
X23355906Y-39351857D01*
X23537334Y-39351857D01*
X23658286Y-39412333D01*
X23718763Y-39472810D01*
X23779239Y-39593762D01*
X23779239Y-39956619D01*
X23718763Y-40077571D01*
X23658286Y-40138048D01*
X23537334Y-40198524D01*
X23355906Y-40198524D01*
X24867811Y-40198524D02*
X24867811Y-39533286D01*
X24807334Y-39412333D01*
X24686382Y-39351857D01*
X24444477Y-39351857D01*
X24323525Y-39412333D01*
X24867811Y-40138048D02*
X24746858Y-40198524D01*
X24444477Y-40198524D01*
X24323525Y-40138048D01*
X24263049Y-40017095D01*
X24263049Y-39896143D01*
X24323525Y-39775190D01*
X24444477Y-39714714D01*
X24746858Y-39714714D01*
X24867811Y-39654238D01*
X25472573Y-40198524D02*
X25472573Y-39351857D01*
X25472573Y-39593762D02*
X25533049Y-39472810D01*
X25593525Y-39412333D01*
X25714478Y-39351857D01*
X25835430Y-39351857D01*
X26803049Y-40198524D02*
X26803049Y-38928524D01*
X26803049Y-40138048D02*
X26682096Y-40198524D01*
X26440192Y-40198524D01*
X26319239Y-40138048D01*
X26258763Y-40077571D01*
X26198287Y-39956619D01*
X26198287Y-39593762D01*
X26258763Y-39472810D01*
X26319239Y-39412333D01*
X26440192Y-39351857D01*
X26682096Y-39351857D01*
X26803049Y-39412333D01*
X27347335Y-40138048D02*
X27468287Y-40198524D01*
X27710192Y-40198524D01*
X27831144Y-40138048D01*
X27891620Y-40017095D01*
X27891620Y-39956619D01*
X27831144Y-39835667D01*
X27710192Y-39775190D01*
X27528763Y-39775190D01*
X27407811Y-39714714D01*
X27347335Y-39593762D01*
X27347335Y-39533286D01*
X27407811Y-39412333D01*
X27528763Y-39351857D01*
X27710192Y-39351857D01*
X27831144Y-39412333D01*
X28435906Y-40077571D02*
X28496382Y-40138048D01*
X28435906Y-40198524D01*
X28375430Y-40138048D01*
X28435906Y-40077571D01*
X28435906Y-40198524D01*
X29584954Y-40138048D02*
X29464001Y-40198524D01*
X29222097Y-40198524D01*
X29101144Y-40138048D01*
X29040668Y-40077571D01*
X28980192Y-39956619D01*
X28980192Y-39593762D01*
X29040668Y-39472810D01*
X29101144Y-39412333D01*
X29222097Y-39351857D01*
X29464001Y-39351857D01*
X29584954Y-39412333D01*
X30310668Y-40198524D02*
X30189715Y-40138048D01*
X30129239Y-40077571D01*
X30068763Y-39956619D01*
X30068763Y-39593762D01*
X30129239Y-39472810D01*
X30189715Y-39412333D01*
X30310668Y-39351857D01*
X30492096Y-39351857D01*
X30613048Y-39412333D01*
X30673525Y-39472810D01*
X30734001Y-39593762D01*
X30734001Y-39956619D01*
X30673525Y-40077571D01*
X30613048Y-40138048D01*
X30492096Y-40198524D01*
X30310668Y-40198524D01*
X31278287Y-40198524D02*
X31278287Y-39351857D01*
X31278287Y-39472810D02*
X31338763Y-39412333D01*
X31459716Y-39351857D01*
X31641144Y-39351857D01*
X31762096Y-39412333D01*
X31822573Y-39533286D01*
X31822573Y-40198524D01*
X31822573Y-39533286D02*
X31883049Y-39412333D01*
X32004001Y-39351857D01*
X32185430Y-39351857D01*
X32306382Y-39412333D01*
X32366858Y-39533286D01*
X32366858Y-40198524D01*
X33878763Y-38868048D02*
X32790191Y-40500905D01*
D14*
X490000Y-5540000D02*
X33510000Y-5540000D01*
X33510000Y-460000D02*
X490000Y-460000D01*
X490000Y-460000D02*
X490000Y-5540000D01*
X33510000Y-5540000D02*
X33510000Y-460000D01*
D10*
X30045000Y-33975000D02*
X30045000Y-29525000D01*
X23295000Y-35500000D02*
X23295000Y-29525000D01*
X15270000Y-43460000D02*
X15270000Y-41910000D01*
X13970000Y-43460000D02*
X15270000Y-43460000D01*
X9779000Y-42037000D02*
X3937000Y-42037000D01*
X3937000Y-42037000D02*
X3937000Y-41783000D01*
X3937000Y-41783000D02*
X9779000Y-41783000D01*
X9779000Y-41783000D02*
X9779000Y-41910000D01*
X9779000Y-41910000D02*
X3937000Y-41910000D01*
X12446000Y-42164000D02*
X12827000Y-42164000D01*
X12446000Y-41656000D02*
X12827000Y-41656000D01*
X12446000Y-39624000D02*
X12827000Y-39624000D01*
X12446000Y-39116000D02*
X12827000Y-39116000D01*
X12446000Y-37084000D02*
X12827000Y-37084000D01*
X12446000Y-36576000D02*
X12827000Y-36576000D01*
X12446000Y-34544000D02*
X12827000Y-34544000D01*
X12446000Y-34036000D02*
X12827000Y-34036000D01*
X12446000Y-31496000D02*
X12827000Y-31496000D01*
X12446000Y-32004000D02*
X12827000Y-32004000D01*
X9906000Y-40640000D02*
X9906000Y-43180000D01*
X3810000Y-41656000D02*
X9906000Y-41656000D01*
X3810000Y-42164000D02*
X3810000Y-41656000D01*
X9906000Y-42164000D02*
X3810000Y-42164000D01*
X12446000Y-40640000D02*
X9906000Y-40640000D01*
X12446000Y-43180000D02*
X12446000Y-40640000D01*
X12446000Y-43180000D02*
X9906000Y-43180000D01*
X12446000Y-38100000D02*
X9906000Y-38100000D01*
X12446000Y-38100000D02*
X12446000Y-35560000D01*
X12446000Y-35560000D02*
X9906000Y-35560000D01*
X9906000Y-37084000D02*
X3810000Y-37084000D01*
X3810000Y-37084000D02*
X3810000Y-36576000D01*
X3810000Y-36576000D02*
X9906000Y-36576000D01*
X9906000Y-35560000D02*
X9906000Y-38100000D01*
X9906000Y-38100000D02*
X9906000Y-40640000D01*
X3810000Y-39116000D02*
X9906000Y-39116000D01*
X3810000Y-39624000D02*
X3810000Y-39116000D01*
X9906000Y-39624000D02*
X3810000Y-39624000D01*
X12446000Y-38100000D02*
X9906000Y-38100000D01*
X12446000Y-40640000D02*
X12446000Y-38100000D01*
X12446000Y-40640000D02*
X9906000Y-40640000D01*
X12446000Y-33020000D02*
X9906000Y-33020000D01*
X12446000Y-33020000D02*
X12446000Y-30480000D01*
X12446000Y-30480000D02*
X9906000Y-30480000D01*
X9906000Y-32004000D02*
X3810000Y-32004000D01*
X3810000Y-32004000D02*
X3810000Y-31496000D01*
X3810000Y-31496000D02*
X9906000Y-31496000D01*
X9906000Y-30480000D02*
X9906000Y-33020000D01*
X9906000Y-33020000D02*
X9906000Y-35560000D01*
X3810000Y-34036000D02*
X9906000Y-34036000D01*
X3810000Y-34544000D02*
X3810000Y-34036000D01*
X9906000Y-34544000D02*
X3810000Y-34544000D01*
X12446000Y-33020000D02*
X9906000Y-33020000D01*
X12446000Y-35560000D02*
X12446000Y-33020000D01*
X12446000Y-35560000D02*
X9906000Y-35560000D01*
X34260000Y-35280000D02*
X34260000Y-36830000D01*
X35560000Y-35280000D02*
X34260000Y-35280000D01*
X39751000Y-36703000D02*
X45593000Y-36703000D01*
X45593000Y-36703000D02*
X45593000Y-36957000D01*
X45593000Y-36957000D02*
X39751000Y-36957000D01*
X39751000Y-36957000D02*
X39751000Y-36830000D01*
X39751000Y-36830000D02*
X45593000Y-36830000D01*
X37084000Y-36576000D02*
X36703000Y-36576000D01*
X37084000Y-37084000D02*
X36703000Y-37084000D01*
X37084000Y-39116000D02*
X36703000Y-39116000D01*
X37084000Y-39624000D02*
X36703000Y-39624000D01*
X37084000Y-41656000D02*
X36703000Y-41656000D01*
X37084000Y-42164000D02*
X36703000Y-42164000D01*
X37084000Y-44196000D02*
X36703000Y-44196000D01*
X37084000Y-44704000D02*
X36703000Y-44704000D01*
X37084000Y-47244000D02*
X36703000Y-47244000D01*
X37084000Y-46736000D02*
X36703000Y-46736000D01*
X39624000Y-38100000D02*
X39624000Y-35560000D01*
X45720000Y-37084000D02*
X39624000Y-37084000D01*
X45720000Y-36576000D02*
X45720000Y-37084000D01*
X39624000Y-36576000D02*
X45720000Y-36576000D01*
X37084000Y-38100000D02*
X39624000Y-38100000D01*
X37084000Y-35560000D02*
X37084000Y-38100000D01*
X37084000Y-35560000D02*
X39624000Y-35560000D01*
X37084000Y-40640000D02*
X39624000Y-40640000D01*
X37084000Y-40640000D02*
X37084000Y-43180000D01*
X37084000Y-43180000D02*
X39624000Y-43180000D01*
X39624000Y-41656000D02*
X45720000Y-41656000D01*
X45720000Y-41656000D02*
X45720000Y-42164000D01*
X45720000Y-42164000D02*
X39624000Y-42164000D01*
X39624000Y-43180000D02*
X39624000Y-40640000D01*
X39624000Y-40640000D02*
X39624000Y-38100000D01*
X45720000Y-39624000D02*
X39624000Y-39624000D01*
X45720000Y-39116000D02*
X45720000Y-39624000D01*
X39624000Y-39116000D02*
X45720000Y-39116000D01*
X37084000Y-40640000D02*
X39624000Y-40640000D01*
X37084000Y-38100000D02*
X37084000Y-40640000D01*
X37084000Y-38100000D02*
X39624000Y-38100000D01*
X37084000Y-45720000D02*
X39624000Y-45720000D01*
X37084000Y-45720000D02*
X37084000Y-48260000D01*
X37084000Y-48260000D02*
X39624000Y-48260000D01*
X39624000Y-46736000D02*
X45720000Y-46736000D01*
X45720000Y-46736000D02*
X45720000Y-47244000D01*
X45720000Y-47244000D02*
X39624000Y-47244000D01*
X39624000Y-48260000D02*
X39624000Y-45720000D01*
X39624000Y-45720000D02*
X39624000Y-43180000D01*
X45720000Y-44704000D02*
X39624000Y-44704000D01*
X45720000Y-44196000D02*
X45720000Y-44704000D01*
X39624000Y-44196000D02*
X45720000Y-44196000D01*
X37084000Y-45720000D02*
X39624000Y-45720000D01*
X37084000Y-43180000D02*
X37084000Y-45720000D01*
X37084000Y-43180000D02*
X39624000Y-43180000D01*
X34260000Y-13690000D02*
X34260000Y-15240000D01*
X35560000Y-13690000D02*
X34260000Y-13690000D01*
X39751000Y-15113000D02*
X45593000Y-15113000D01*
X45593000Y-15113000D02*
X45593000Y-15367000D01*
X45593000Y-15367000D02*
X39751000Y-15367000D01*
X39751000Y-15367000D02*
X39751000Y-15240000D01*
X39751000Y-15240000D02*
X45593000Y-15240000D01*
X37084000Y-14986000D02*
X36703000Y-14986000D01*
X37084000Y-15494000D02*
X36703000Y-15494000D01*
X37084000Y-17526000D02*
X36703000Y-17526000D01*
X37084000Y-18034000D02*
X36703000Y-18034000D01*
X37084000Y-20066000D02*
X36703000Y-20066000D01*
X37084000Y-20574000D02*
X36703000Y-20574000D01*
X37084000Y-22606000D02*
X36703000Y-22606000D01*
X37084000Y-23114000D02*
X36703000Y-23114000D01*
X37084000Y-25654000D02*
X36703000Y-25654000D01*
X37084000Y-25146000D02*
X36703000Y-25146000D01*
X39624000Y-16510000D02*
X39624000Y-13970000D01*
X45720000Y-15494000D02*
X39624000Y-15494000D01*
X45720000Y-14986000D02*
X45720000Y-15494000D01*
X39624000Y-14986000D02*
X45720000Y-14986000D01*
X37084000Y-16510000D02*
X39624000Y-16510000D01*
X37084000Y-13970000D02*
X37084000Y-16510000D01*
X37084000Y-13970000D02*
X39624000Y-13970000D01*
X37084000Y-19050000D02*
X39624000Y-19050000D01*
X37084000Y-19050000D02*
X37084000Y-21590000D01*
X37084000Y-21590000D02*
X39624000Y-21590000D01*
X39624000Y-20066000D02*
X45720000Y-20066000D01*
X45720000Y-20066000D02*
X45720000Y-20574000D01*
X45720000Y-20574000D02*
X39624000Y-20574000D01*
X39624000Y-21590000D02*
X39624000Y-19050000D01*
X39624000Y-19050000D02*
X39624000Y-16510000D01*
X45720000Y-18034000D02*
X39624000Y-18034000D01*
X45720000Y-17526000D02*
X45720000Y-18034000D01*
X39624000Y-17526000D02*
X45720000Y-17526000D01*
X37084000Y-19050000D02*
X39624000Y-19050000D01*
X37084000Y-16510000D02*
X37084000Y-19050000D01*
X37084000Y-16510000D02*
X39624000Y-16510000D01*
X37084000Y-24130000D02*
X39624000Y-24130000D01*
X37084000Y-24130000D02*
X37084000Y-26670000D01*
X37084000Y-26670000D02*
X39624000Y-26670000D01*
X39624000Y-25146000D02*
X45720000Y-25146000D01*
X45720000Y-25146000D02*
X45720000Y-25654000D01*
X45720000Y-25654000D02*
X39624000Y-25654000D01*
X39624000Y-26670000D02*
X39624000Y-24130000D01*
X39624000Y-24130000D02*
X39624000Y-21590000D01*
X45720000Y-23114000D02*
X39624000Y-23114000D01*
X45720000Y-22606000D02*
X45720000Y-23114000D01*
X39624000Y-22606000D02*
X45720000Y-22606000D01*
X37084000Y-24130000D02*
X39624000Y-24130000D01*
X37084000Y-21590000D02*
X37084000Y-24130000D01*
X37084000Y-21590000D02*
X39624000Y-21590000D01*
X15270000Y-23140000D02*
X15270000Y-21590000D01*
X13970000Y-23140000D02*
X15270000Y-23140000D01*
X9779000Y-21717000D02*
X3937000Y-21717000D01*
X3937000Y-21717000D02*
X3937000Y-21463000D01*
X3937000Y-21463000D02*
X9779000Y-21463000D01*
X9779000Y-21463000D02*
X9779000Y-21590000D01*
X9779000Y-21590000D02*
X3937000Y-21590000D01*
X12446000Y-21844000D02*
X12827000Y-21844000D01*
X12446000Y-21336000D02*
X12827000Y-21336000D01*
X12446000Y-19304000D02*
X12827000Y-19304000D01*
X12446000Y-18796000D02*
X12827000Y-18796000D01*
X12446000Y-16764000D02*
X12827000Y-16764000D01*
X12446000Y-16256000D02*
X12827000Y-16256000D01*
X12446000Y-14224000D02*
X12827000Y-14224000D01*
X12446000Y-13716000D02*
X12827000Y-13716000D01*
X12446000Y-11176000D02*
X12827000Y-11176000D01*
X12446000Y-11684000D02*
X12827000Y-11684000D01*
X9906000Y-20320000D02*
X9906000Y-22860000D01*
X3810000Y-21336000D02*
X9906000Y-21336000D01*
X3810000Y-21844000D02*
X3810000Y-21336000D01*
X9906000Y-21844000D02*
X3810000Y-21844000D01*
X12446000Y-20320000D02*
X9906000Y-20320000D01*
X12446000Y-22860000D02*
X12446000Y-20320000D01*
X12446000Y-22860000D02*
X9906000Y-22860000D01*
X12446000Y-17780000D02*
X9906000Y-17780000D01*
X12446000Y-17780000D02*
X12446000Y-15240000D01*
X12446000Y-15240000D02*
X9906000Y-15240000D01*
X9906000Y-16764000D02*
X3810000Y-16764000D01*
X3810000Y-16764000D02*
X3810000Y-16256000D01*
X3810000Y-16256000D02*
X9906000Y-16256000D01*
X9906000Y-15240000D02*
X9906000Y-17780000D01*
X9906000Y-17780000D02*
X9906000Y-20320000D01*
X3810000Y-18796000D02*
X9906000Y-18796000D01*
X3810000Y-19304000D02*
X3810000Y-18796000D01*
X9906000Y-19304000D02*
X3810000Y-19304000D01*
X12446000Y-17780000D02*
X9906000Y-17780000D01*
X12446000Y-20320000D02*
X12446000Y-17780000D01*
X12446000Y-20320000D02*
X9906000Y-20320000D01*
X12446000Y-12700000D02*
X9906000Y-12700000D01*
X12446000Y-12700000D02*
X12446000Y-10160000D01*
X12446000Y-10160000D02*
X9906000Y-10160000D01*
X9906000Y-11684000D02*
X3810000Y-11684000D01*
X3810000Y-11684000D02*
X3810000Y-11176000D01*
X3810000Y-11176000D02*
X9906000Y-11176000D01*
X9906000Y-10160000D02*
X9906000Y-12700000D01*
X9906000Y-12700000D02*
X9906000Y-15240000D01*
X3810000Y-13716000D02*
X9906000Y-13716000D01*
X3810000Y-14224000D02*
X3810000Y-13716000D01*
X9906000Y-14224000D02*
X3810000Y-14224000D01*
X12446000Y-12700000D02*
X9906000Y-12700000D01*
X12446000Y-15240000D02*
X12446000Y-12700000D01*
X12446000Y-15240000D02*
X9906000Y-15240000D01*
X20971000Y-8518000D02*
X22971000Y-8518000D01*
X22971000Y-6468000D02*
X20971000Y-6468000D01*
X17534000Y-28663000D02*
X18534000Y-28663000D01*
X18534000Y-26963000D02*
X17534000Y-26963000D01*
X13365000Y-48540000D02*
X13365000Y-46990000D01*
X12065000Y-48540000D02*
X13365000Y-48540000D01*
X7874000Y-47117000D02*
X2032000Y-47117000D01*
X2032000Y-47117000D02*
X2032000Y-46863000D01*
X2032000Y-46863000D02*
X7874000Y-46863000D01*
X7874000Y-46863000D02*
X7874000Y-46990000D01*
X7874000Y-46990000D02*
X2032000Y-46990000D01*
X10541000Y-47244000D02*
X10922000Y-47244000D01*
X10541000Y-46736000D02*
X10922000Y-46736000D01*
X10541000Y-44704000D02*
X10922000Y-44704000D01*
X10541000Y-44196000D02*
X10922000Y-44196000D01*
X10541000Y-48260000D02*
X8001000Y-48260000D01*
X10541000Y-45720000D02*
X8001000Y-45720000D01*
X10541000Y-45720000D02*
X10541000Y-43180000D01*
X10541000Y-43180000D02*
X8001000Y-43180000D01*
X8001000Y-44704000D02*
X1905000Y-44704000D01*
X1905000Y-44704000D02*
X1905000Y-44196000D01*
X1905000Y-44196000D02*
X8001000Y-44196000D01*
X8001000Y-43180000D02*
X8001000Y-45720000D01*
X8001000Y-45720000D02*
X8001000Y-48260000D01*
X1905000Y-46736000D02*
X8001000Y-46736000D01*
X1905000Y-47244000D02*
X1905000Y-46736000D01*
X8001000Y-47244000D02*
X1905000Y-47244000D01*
X10541000Y-45720000D02*
X8001000Y-45720000D01*
X10541000Y-48260000D02*
X10541000Y-45720000D01*
X36165000Y-30200000D02*
X36165000Y-31750000D01*
X37465000Y-30200000D02*
X36165000Y-30200000D01*
X41656000Y-31623000D02*
X47498000Y-31623000D01*
X47498000Y-31623000D02*
X47498000Y-31877000D01*
X47498000Y-31877000D02*
X41656000Y-31877000D01*
X41656000Y-31877000D02*
X41656000Y-31750000D01*
X41656000Y-31750000D02*
X47498000Y-31750000D01*
X38989000Y-31496000D02*
X38608000Y-31496000D01*
X38989000Y-32004000D02*
X38608000Y-32004000D01*
X38989000Y-34036000D02*
X38608000Y-34036000D01*
X38989000Y-34544000D02*
X38608000Y-34544000D01*
X38989000Y-30480000D02*
X41529000Y-30480000D01*
X38989000Y-33020000D02*
X41529000Y-33020000D01*
X38989000Y-33020000D02*
X38989000Y-35560000D01*
X38989000Y-35560000D02*
X41529000Y-35560000D01*
X41529000Y-34036000D02*
X47625000Y-34036000D01*
X47625000Y-34036000D02*
X47625000Y-34544000D01*
X47625000Y-34544000D02*
X41529000Y-34544000D01*
X41529000Y-35560000D02*
X41529000Y-33020000D01*
X41529000Y-33020000D02*
X41529000Y-30480000D01*
X47625000Y-32004000D02*
X41529000Y-32004000D01*
X47625000Y-31496000D02*
X47625000Y-32004000D01*
X41529000Y-31496000D02*
X47625000Y-31496000D01*
X38989000Y-33020000D02*
X41529000Y-33020000D01*
X38989000Y-30480000D02*
X38989000Y-33020000D01*
X25700000Y-7450000D02*
X25700000Y-9000000D01*
X27000000Y-7450000D02*
X25700000Y-7450000D01*
X31191000Y-8873000D02*
X37033000Y-8873000D01*
X37033000Y-8873000D02*
X37033000Y-9127000D01*
X37033000Y-9127000D02*
X31191000Y-9127000D01*
X31191000Y-9127000D02*
X31191000Y-9000000D01*
X31191000Y-9000000D02*
X37033000Y-9000000D01*
X28524000Y-8746000D02*
X28143000Y-8746000D01*
X28524000Y-9254000D02*
X28143000Y-9254000D01*
X28524000Y-11286000D02*
X28143000Y-11286000D01*
X28524000Y-11794000D02*
X28143000Y-11794000D01*
X28524000Y-7730000D02*
X31064000Y-7730000D01*
X28524000Y-10270000D02*
X31064000Y-10270000D01*
X28524000Y-10270000D02*
X28524000Y-12810000D01*
X28524000Y-12810000D02*
X31064000Y-12810000D01*
X31064000Y-11286000D02*
X37160000Y-11286000D01*
X37160000Y-11286000D02*
X37160000Y-11794000D01*
X37160000Y-11794000D02*
X31064000Y-11794000D01*
X31064000Y-12810000D02*
X31064000Y-10270000D01*
X31064000Y-10270000D02*
X31064000Y-7730000D01*
X37160000Y-9254000D02*
X31064000Y-9254000D01*
X37160000Y-8746000D02*
X37160000Y-9254000D01*
X31064000Y-8746000D02*
X37160000Y-8746000D01*
X28524000Y-10270000D02*
X31064000Y-10270000D01*
X28524000Y-7730000D02*
X28524000Y-10270000D01*
X13365000Y-28220000D02*
X13365000Y-26670000D01*
X12065000Y-28220000D02*
X13365000Y-28220000D01*
X7874000Y-26797000D02*
X2032000Y-26797000D01*
X2032000Y-26797000D02*
X2032000Y-26543000D01*
X2032000Y-26543000D02*
X7874000Y-26543000D01*
X7874000Y-26543000D02*
X7874000Y-26670000D01*
X7874000Y-26670000D02*
X2032000Y-26670000D01*
X10541000Y-26924000D02*
X10922000Y-26924000D01*
X10541000Y-26416000D02*
X10922000Y-26416000D01*
X10541000Y-24384000D02*
X10922000Y-24384000D01*
X10541000Y-23876000D02*
X10922000Y-23876000D01*
X10541000Y-27940000D02*
X8001000Y-27940000D01*
X10541000Y-25400000D02*
X8001000Y-25400000D01*
X10541000Y-25400000D02*
X10541000Y-22860000D01*
X10541000Y-22860000D02*
X8001000Y-22860000D01*
X8001000Y-24384000D02*
X1905000Y-24384000D01*
X1905000Y-24384000D02*
X1905000Y-23876000D01*
X1905000Y-23876000D02*
X8001000Y-23876000D01*
X8001000Y-22860000D02*
X8001000Y-25400000D01*
X8001000Y-25400000D02*
X8001000Y-27940000D01*
X1905000Y-26416000D02*
X8001000Y-26416000D01*
X1905000Y-26924000D02*
X1905000Y-26416000D01*
X8001000Y-26924000D02*
X1905000Y-26924000D01*
X10541000Y-25400000D02*
X8001000Y-25400000D01*
X10541000Y-27940000D02*
X10541000Y-25400000D01*
D15*
X21974524Y-34717619D02*
X23002619Y-34717619D01*
X23123571Y-34657143D01*
X23184048Y-34596667D01*
X23244524Y-34475714D01*
X23244524Y-34233810D01*
X23184048Y-34112857D01*
X23123571Y-34052381D01*
X23002619Y-33991905D01*
X21974524Y-33991905D01*
X23244524Y-32721905D02*
X23244524Y-33447619D01*
X23244524Y-33084762D02*
X21974524Y-33084762D01*
X22155952Y-33205714D01*
X22276905Y-33326667D01*
X22337381Y-33447619D01*
X14308667Y-43754524D02*
X14308667Y-44661667D01*
X14248191Y-44843095D01*
X14127239Y-44964048D01*
X13945810Y-45024524D01*
X13824858Y-45024524D01*
X15578667Y-45024524D02*
X14852953Y-45024524D01*
X15215810Y-45024524D02*
X15215810Y-43754524D01*
X15094858Y-43935952D01*
X14973905Y-44056905D01*
X14852953Y-44117381D01*
X33739667Y-33594524D02*
X33739667Y-34501667D01*
X33679191Y-34683095D01*
X33558239Y-34804048D01*
X33376810Y-34864524D01*
X33255858Y-34864524D01*
X34283953Y-33715476D02*
X34344429Y-33655000D01*
X34465381Y-33594524D01*
X34767762Y-33594524D01*
X34888715Y-33655000D01*
X34949191Y-33715476D01*
X35009667Y-33836429D01*
X35009667Y-33957381D01*
X34949191Y-34138810D01*
X34223477Y-34864524D01*
X35009667Y-34864524D01*
X33612667Y-12512524D02*
X33612667Y-13419667D01*
X33552191Y-13601095D01*
X33431239Y-13722048D01*
X33249810Y-13782524D01*
X33128858Y-13782524D01*
X34096477Y-12512524D02*
X34882667Y-12512524D01*
X34459334Y-12996333D01*
X34640762Y-12996333D01*
X34761715Y-13056810D01*
X34822191Y-13117286D01*
X34882667Y-13238238D01*
X34882667Y-13540619D01*
X34822191Y-13661571D01*
X34761715Y-13722048D01*
X34640762Y-13782524D01*
X34277905Y-13782524D01*
X34156953Y-13722048D01*
X34096477Y-13661571D01*
X15578667Y-22926524D02*
X15578667Y-23833667D01*
X15518191Y-24015095D01*
X15397239Y-24136048D01*
X15215810Y-24196524D01*
X15094858Y-24196524D01*
X16727715Y-23349857D02*
X16727715Y-24196524D01*
X16425334Y-22866048D02*
X16122953Y-23773190D01*
X16909143Y-23773190D01*
X21759333Y-9851571D02*
X21698857Y-9912048D01*
X21517428Y-9972524D01*
X21396476Y-9972524D01*
X21215048Y-9912048D01*
X21094095Y-9791095D01*
X21033619Y-9670143D01*
X20973143Y-9428238D01*
X20973143Y-9246810D01*
X21033619Y-9004905D01*
X21094095Y-8883952D01*
X21215048Y-8763000D01*
X21396476Y-8702524D01*
X21517428Y-8702524D01*
X21698857Y-8763000D01*
X21759333Y-8823476D01*
X22847905Y-8702524D02*
X22606000Y-8702524D01*
X22485048Y-8763000D01*
X22424571Y-8823476D01*
X22303619Y-9004905D01*
X22243143Y-9246810D01*
X22243143Y-9730619D01*
X22303619Y-9851571D01*
X22364095Y-9912048D01*
X22485048Y-9972524D01*
X22726952Y-9972524D01*
X22847905Y-9912048D01*
X22908381Y-9851571D01*
X22968857Y-9730619D01*
X22968857Y-9428238D01*
X22908381Y-9307286D01*
X22847905Y-9246810D01*
X22726952Y-9186333D01*
X22485048Y-9186333D01*
X22364095Y-9246810D01*
X22303619Y-9307286D01*
X22243143Y-9428238D01*
X18203333Y-26361571D02*
X18142857Y-26422048D01*
X17961428Y-26482524D01*
X17840476Y-26482524D01*
X17659048Y-26422048D01*
X17538095Y-26301095D01*
X17477619Y-26180143D01*
X17417143Y-25938238D01*
X17417143Y-25756810D01*
X17477619Y-25514905D01*
X17538095Y-25393952D01*
X17659048Y-25273000D01*
X17840476Y-25212524D01*
X17961428Y-25212524D01*
X18142857Y-25273000D01*
X18203333Y-25333476D01*
X19352381Y-25212524D02*
X18747619Y-25212524D01*
X18687143Y-25817286D01*
X18747619Y-25756810D01*
X18868571Y-25696333D01*
X19170952Y-25696333D01*
X19291905Y-25756810D01*
X19352381Y-25817286D01*
X19412857Y-25938238D01*
X19412857Y-26240619D01*
X19352381Y-26361571D01*
X19291905Y-26422048D01*
X19170952Y-26482524D01*
X18868571Y-26482524D01*
X18747619Y-26422048D01*
X18687143Y-26361571D01*
X13891381Y-47691524D02*
X13891381Y-46421524D01*
X13891381Y-47026286D02*
X14617095Y-47026286D01*
X14617095Y-47691524D02*
X14617095Y-46421524D01*
X15887095Y-47691524D02*
X15161381Y-47691524D01*
X15524238Y-47691524D02*
X15524238Y-46421524D01*
X15403286Y-46602952D01*
X15282333Y-46723905D01*
X15161381Y-46784381D01*
X33576381Y-31816524D02*
X33576381Y-30546524D01*
X33576381Y-31151286D02*
X34302095Y-31151286D01*
X34302095Y-31816524D02*
X34302095Y-30546524D01*
X34846381Y-30667476D02*
X34906857Y-30607000D01*
X35027809Y-30546524D01*
X35330190Y-30546524D01*
X35451143Y-30607000D01*
X35511619Y-30667476D01*
X35572095Y-30788429D01*
X35572095Y-30909381D01*
X35511619Y-31090810D01*
X34785905Y-31816524D01*
X35572095Y-31816524D01*
X26083381Y-7051524D02*
X26083381Y-5781524D01*
X26083381Y-6386286D02*
X26809095Y-6386286D01*
X26809095Y-7051524D02*
X26809095Y-5781524D01*
X27292905Y-5781524D02*
X28079095Y-5781524D01*
X27655762Y-6265333D01*
X27837190Y-6265333D01*
X27958143Y-6325810D01*
X28018619Y-6386286D01*
X28079095Y-6507238D01*
X28079095Y-6809619D01*
X28018619Y-6930571D01*
X27958143Y-6991048D01*
X27837190Y-7051524D01*
X27474333Y-7051524D01*
X27353381Y-6991048D01*
X27292905Y-6930571D01*
X13764381Y-27498524D02*
X13764381Y-26228524D01*
X13764381Y-26833286D02*
X14490095Y-26833286D01*
X14490095Y-27498524D02*
X14490095Y-26228524D01*
X15639143Y-26651857D02*
X15639143Y-27498524D01*
X15336762Y-26168048D02*
X15034381Y-27075190D01*
X15820571Y-27075190D01*
M02*
