solid USB-GPS-lid
facet normal 0.965925826289067 -0.258819045102525 0.0
outer loop
vertex 76.0918144984678 2.3532495317995 1.27
vertex 75.9583175157233 1.95998010224084 3.175
vertex 75.9583175157233 1.95998010224084 1.27
endloop
endfacet
facet normal 0.923879532511283 -0.382683432365098 0.0
outer loop
vertex 75.9583175157233 1.95998010224084 3.175
vertex 76.0918144984678 2.3532495317995 1.27
vertex 76.0918144984678 2.3532495317995 3.175
endloop
endfacet
facet normal 0.500000000000005 -0.866025403784436 0.0
outer loop
vertex 74.6125 0.425369342984407 3.175
vertex 74.2400198977592 0.241682484276664 1.27
vertex 74.6125 0.425369342984407 1.27
endloop
endfacet
facet normal 0.38268343236509 -0.923879532511287 0.0
outer loop
vertex 74.2400198977592 0.241682484276664 1.27
vertex 74.6125 0.425369342984407 3.175
vertex 74.2400198977592 0.241682484276664 3.175
endloop
endfacet
facet normal 0.130526192220048 0.991444861373811 0.0
outer loop
vertex 73.4394206602987 50.7728374348618 3.175
vertex 73.8467504682005 50.6918144984678 1.27
vertex 73.4394206602987 50.7728374348618 1.27
endloop
endfacet
facet normal 0.258819045102517 0.965925826289069 0.0
outer loop
vertex 73.8467504682005 50.6918144984678 1.27
vertex 73.4394206602987 50.7728374348618 3.175
vertex 73.8467504682005 50.6918144984678 3.175
endloop
endfacet
facet normal 0.0 0.0 1.0
outer loop
vertex 73.025 0.0 3.175
vertex 3.175 3.175 3.175
vertex 3.175 0.0 3.175
endloop
endfacet
facet normal 0.0 0.0 1.0
outer loop
vertex 3.175 3.175 3.175
vertex 73.025 0.0 3.175
vertex 73.025 3.175 3.175
endloop
endfacet
facet normal 0.0 0.0 1.0
outer loop
vertex 73.025 3.175 3.175
vertex 73.025 0.0 3.175
vertex 73.4394206602987 0.027162565138152 3.175
endloop
endfacet
facet normal 0.0 0.0 1.0
outer loop
vertex 73.025 3.175 3.175
vertex 73.4394206602987 0.027162565138152 3.175
vertex 73.025 47.625 3.175
endloop
endfacet
facet normal 0.0 0.0 1.0
outer loop
vertex 73.025 47.625 3.175
vertex 73.4394206602987 0.027162565138152 3.175
vertex 73.025 50.8 3.175
endloop
endfacet
facet normal 0.0 0.0 1.0
outer loop
vertex 73.025 50.8 3.175
vertex 73.4394206602987 0.027162565138152 3.175
vertex 73.4394206602987 50.7728374348618 3.175
endloop
endfacet
facet normal 0.0 0.0 1.0
outer loop
vertex 73.4394206602987 50.7728374348618 3.175
vertex 73.4394206602987 0.027162565138152 3.175
vertex 73.8467504682005 0.108185501532208 3.175
endloop
endfacet
facet normal 0.0 0.0 1.0
outer loop
vertex 73.4394206602987 50.7728374348618 3.175
vertex 73.8467504682005 0.108185501532208 3.175
vertex 73.8467504682005 50.6918144984678 3.175
endloop
endfacet
facet normal 0.0 0.0 1.0
outer loop
vertex 73.8467504682005 50.6918144984678 3.175
vertex 73.8467504682005 0.108185501532208 3.175
vertex 74.2400198977592 0.241682484276664 3.175
endloop
endfacet
facet normal 0.0 0.0 1.0
outer loop
vertex 73.8467504682005 50.6918144984678 3.175
vertex 74.2400198977592 0.241682484276664 3.175
vertex 74.2400198977592 50.5583175157233 3.175
endloop
endfacet
facet normal 0.0 0.0 1.0
outer loop
vertex 74.2400198977592 50.5583175157233 3.175
vertex 74.2400198977592 0.241682484276664 3.175
vertex 74.6125 0.425369342984407 3.175
endloop
endfacet
facet normal 0.0 0.0 1.0
outer loop
vertex 74.2400198977592 50.5583175157233 3.175
vertex 74.6125 0.425369342984407 3.175
vertex 74.6125 50.3746306570156 3.175
endloop
endfacet
facet normal 0.0 0.0 1.0
outer loop
vertex 74.6125 50.3746306570156 3.175
vertex 74.6125 0.425369342984407 3.175
vertex 74.9578175371027 0.656103144575328 3.175
endloop
endfacet
facet normal 0.0 0.0 1.0
outer loop
vertex 74.6125 50.3746306570156 3.175
vertex 74.9578175371027 0.656103144575328 3.175
vertex 74.9578175371027 50.1438968554247 3.175
endloop
endfacet
facet normal 0.0 0.0 1.0
outer loop
vertex 74.9578175371027 50.1438968554247 3.175
vertex 74.9578175371027 0.656103144575328 3.175
vertex 75.2700640302673 0.929935969732711 3.175
endloop
endfacet
facet normal 0.0 0.0 1.0
outer loop
vertex 74.9578175371027 50.1438968554247 3.175
vertex 75.2700640302673 0.929935969732711 3.175
vertex 75.2700640302673 49.8700640302673 3.175
endloop
endfacet
facet normal 0.0 0.0 1.0
outer loop
vertex 75.2700640302673 49.8700640302673 3.175
vertex 75.2700640302673 0.929935969732711 3.175
vertex 75.5438968554247 1.24218246289731 3.175
endloop
endfacet
facet normal 0.0 0.0 1.0
outer loop
vertex 75.2700640302673 49.8700640302673 3.175
vertex 75.5438968554247 1.24218246289731 3.175
vertex 75.5438968554247 49.5578175371027 3.175
endloop
endfacet
facet normal 0.0 0.0 1.0
outer loop
vertex 75.5438968554247 49.5578175371027 3.175
vertex 75.5438968554247 1.24218246289731 3.175
vertex 75.7746306570156 1.5875 3.175
endloop
endfacet
facet normal 0.0 0.0 1.0
outer loop
vertex 75.5438968554247 49.5578175371027 3.175
vertex 75.7746306570156 1.5875 3.175
vertex 75.7746306570156 49.2125 3.175
endloop
endfacet
facet normal 0.0 0.0 1.0
outer loop
vertex 75.7746306570156 49.2125 3.175
vertex 75.7746306570156 1.5875 3.175
vertex 75.9583175157233 1.95998010224084 3.175
endloop
endfacet
facet normal 0.0 0.0 1.0
outer loop
vertex 75.7746306570156 49.2125 3.175
vertex 75.9583175157233 1.95998010224084 3.175
vertex 75.9583175157233 48.8400198977592 3.175
endloop
endfacet
facet normal 0.0 0.0 1.0
outer loop
vertex 75.9583175157233 48.8400198977592 3.175
vertex 75.9583175157233 1.95998010224084 3.175
vertex 76.0918144984678 2.3532495317995 3.175
endloop
endfacet
facet normal 0.0 0.0 1.0
outer loop
vertex 75.9583175157233 48.8400198977592 3.175
vertex 76.0918144984678 2.3532495317995 3.175
vertex 76.0918144984678 48.4467504682005 3.175
endloop
endfacet
facet normal 0.0 0.0 1.0
outer loop
vertex 76.0918144984678 48.4467504682005 3.175
vertex 76.0918144984678 2.3532495317995 3.175
vertex 76.1728374348618 2.76057933970133 3.175
endloop
endfacet
facet normal 0.0 0.0 1.0
outer loop
vertex 76.0918144984678 48.4467504682005 3.175
vertex 76.1728374348618 2.76057933970133 3.175
vertex 76.1728374348618 48.0394206602987 3.175
endloop
endfacet
facet normal 0.0 0.0 1.0
outer loop
vertex 76.1728374348618 48.0394206602987 3.175
vertex 76.1728374348618 2.76057933970133 3.175
vertex 76.2 3.175 3.175
endloop
endfacet
facet normal 0.0 0.0 1.0
outer loop
vertex 76.1728374348618 48.0394206602987 3.175
vertex 76.2 3.175 3.175
vertex 76.2 47.625 3.175
endloop
endfacet
facet normal 0.0 0.0 1.0
outer loop
vertex 0.0271625651381524 2.76057933970134 3.175
vertex 0.0 47.625 3.175
vertex 0.0 3.175 3.175
endloop
endfacet
facet normal 0.0 0.0 1.0
outer loop
vertex 0.0 47.625 3.175
vertex 0.0271625651381524 2.76057933970134 3.175
vertex 0.027162565138152 48.0394206602987 3.175
endloop
endfacet
facet normal 0.0 0.0 1.0
outer loop
vertex 0.027162565138152 48.0394206602987 3.175
vertex 0.0271625651381524 2.76057933970134 3.175
vertex 0.108185501532208 48.4467504682005 3.175
endloop
endfacet
facet normal 0.0 0.0 1.0
outer loop
vertex 0.108185501532208 48.4467504682005 3.175
vertex 0.0271625651381524 2.76057933970134 3.175
vertex 0.108185501532208 2.3532495317995 3.175
endloop
endfacet
facet normal 0.0 0.0 1.0
outer loop
vertex 0.108185501532208 48.4467504682005 3.175
vertex 0.108185501532208 2.3532495317995 3.175
vertex 0.241682484276665 1.95998010224084 3.175
endloop
endfacet
facet normal 0.0 0.0 1.0
outer loop
vertex 0.108185501532208 48.4467504682005 3.175
vertex 0.241682484276665 1.95998010224084 3.175
vertex 0.241682484276665 48.8400198977592 3.175
endloop
endfacet
facet normal 0.0 0.0 1.0
outer loop
vertex 0.241682484276665 48.8400198977592 3.175
vertex 0.241682484276665 1.95998010224084 3.175
vertex 0.425369342984407 49.2125 3.175
endloop
endfacet
facet normal 0.0 0.0 1.0
outer loop
vertex 0.425369342984407 49.2125 3.175
vertex 0.241682484276665 1.95998010224084 3.175
vertex 0.425369342984408 1.5875 3.175
endloop
endfacet
facet normal 0.0 0.0 1.0
outer loop
vertex 0.425369342984407 49.2125 3.175
vertex 0.425369342984408 1.5875 3.175
vertex 0.656103144575329 49.5578175371027 3.175
endloop
endfacet
facet normal 0.0 0.0 1.0
outer loop
vertex 0.656103144575329 49.5578175371027 3.175
vertex 0.425369342984408 1.5875 3.175
vertex 0.656103144575329 1.24218246289731 3.175
endloop
endfacet
facet normal 0.0 0.0 1.0
outer loop
vertex 0.656103144575329 49.5578175371027 3.175
vertex 0.656103144575329 1.24218246289731 3.175
vertex 0.929935969732712 0.929935969732712 3.175
endloop
endfacet
facet normal 0.0 0.0 1.0
outer loop
vertex 0.656103144575329 49.5578175371027 3.175
vertex 0.929935969732712 0.929935969732712 3.175
vertex 0.929935969732711 49.8700640302673 3.175
endloop
endfacet
facet normal 0.0 0.0 1.0
outer loop
vertex 0.929935969732711 49.8700640302673 3.175
vertex 0.929935969732712 0.929935969732712 3.175
vertex 1.24218246289731 50.1438968554247 3.175
endloop
endfacet
facet normal 0.0 0.0 1.0
outer loop
vertex 1.24218246289731 50.1438968554247 3.175
vertex 0.929935969732712 0.929935969732712 3.175
vertex 1.24218246289731 0.656103144575329 3.175
endloop
endfacet
facet normal 0.0 0.0 1.0
outer loop
vertex 1.24218246289731 50.1438968554247 3.175
vertex 1.24218246289731 0.656103144575329 3.175
vertex 1.5875 50.3746306570156 3.175
endloop
endfacet
facet normal 0.0 0.0 1.0
outer loop
vertex 1.5875 50.3746306570156 3.175
vertex 1.24218246289731 0.656103144575329 3.175
vertex 1.5875 0.425369342984408 3.175
endloop
endfacet
facet normal 0.0 0.0 1.0
outer loop
vertex 1.5875 50.3746306570156 3.175
vertex 1.5875 0.425369342984408 3.175
vertex 1.95998010224084 0.241682484276665 3.175
endloop
endfacet
facet normal 0.0 0.0 1.0
outer loop
vertex 1.5875 50.3746306570156 3.175
vertex 1.95998010224084 0.241682484276665 3.175
vertex 1.95998010224084 50.5583175157233 3.175
endloop
endfacet
facet normal 0.0 0.0 1.0
outer loop
vertex 1.95998010224084 50.5583175157233 3.175
vertex 1.95998010224084 0.241682484276665 3.175
vertex 2.3532495317995 0.108185501532208 3.175
endloop
endfacet
facet normal 0.0 0.0 1.0
outer loop
vertex 1.95998010224084 50.5583175157233 3.175
vertex 2.3532495317995 0.108185501532208 3.175
vertex 2.3532495317995 50.6918144984678 3.175
endloop
endfacet
facet normal 0.0 0.0 1.0
outer loop
vertex 2.3532495317995 50.6918144984678 3.175
vertex 2.3532495317995 0.108185501532208 3.175
vertex 2.76057933970134 0.027162565138152 3.175
endloop
endfacet
facet normal 0.0 0.0 1.0
outer loop
vertex 2.3532495317995 50.6918144984678 3.175
vertex 2.76057933970134 0.027162565138152 3.175
vertex 2.76057933970134 50.7728374348618 3.175
endloop
endfacet
facet normal 0.0 0.0 1.0
outer loop
vertex 2.76057933970134 50.7728374348618 3.175
vertex 2.76057933970134 0.027162565138152 3.175
vertex 3.175 0.0 3.175
endloop
endfacet
facet normal 0.0 0.0 1.0
outer loop
vertex 2.76057933970134 50.7728374348618 3.175
vertex 3.175 0.0 3.175
vertex 3.175 50.8 3.175
endloop
endfacet
facet normal 0.0 0.0 1.0
outer loop
vertex 3.175 50.8 3.175
vertex 3.175 0.0 3.175
vertex 3.175 3.175 3.175
endloop
endfacet
facet normal 0.0 0.0 1.0
outer loop
vertex 3.175 50.8 3.175
vertex 3.175 3.175 3.175
vertex 3.175 47.625 3.175
endloop
endfacet
facet normal 0.0 0.0 1.0
outer loop
vertex 3.175 50.8 3.175
vertex 3.175 47.625 3.175
vertex 73.025 47.625 3.175
endloop
endfacet
facet normal 0.0 0.0 1.0
outer loop
vertex 3.175 50.8 3.175
vertex 73.025 47.625 3.175
vertex 73.025 50.8 3.175
endloop
endfacet
facet normal 0.793353340291235 -0.608761429008721 0.0
outer loop
vertex 75.5438968554247 1.24218246289731 1.27
vertex 75.2700640302673 0.929935969732711 3.175
vertex 75.2700640302673 0.929935969732711 1.27
endloop
endfacet
facet normal 0.707106781186542 -0.707106781186553 0.0
outer loop
vertex 75.2700640302673 0.929935969732711 3.175
vertex 75.5438968554247 1.24218246289731 1.27
vertex 75.5438968554247 1.24218246289731 3.175
endloop
endfacet
facet normal 0.923879532511283 -0.382683432365098 0.0
outer loop
vertex 75.9583175157233 1.95998010224084 1.27
vertex 75.7746306570156 1.5875 3.175
vertex 75.7746306570156 1.5875 1.27
endloop
endfacet
facet normal 0.866025403784442 -0.499999999999994 0.0
outer loop
vertex 75.7746306570156 1.5875 3.175
vertex 75.9583175157233 1.95998010224084 1.27
vertex 75.9583175157233 1.95998010224084 3.175
endloop
endfacet
facet normal 0.130526192220053 -0.99144486137381 0.0
outer loop
vertex 73.4394206602987 0.027162565138152 3.175
vertex 73.025 0.0 1.27
vertex 73.4394206602987 0.027162565138152 1.27
endloop
endfacet
facet normal 0.0654031292301426 -0.997858923238604 0.0
outer loop
vertex 73.025 0.0 1.27
vertex 73.4394206602987 0.027162565138152 3.175
vertex 73.025 0.0 3.175
endloop
endfacet
facet normal 0.608761429008723 -0.793353340291234 0.0
outer loop
vertex 74.9578175371027 0.656103144575328 3.175
vertex 74.6125 0.425369342984407 1.27
vertex 74.9578175371027 0.656103144575328 1.27
endloop
endfacet
facet normal 0.500000000000005 -0.866025403784436 0.0
outer loop
vertex 74.6125 0.425369342984407 1.27
vertex 74.9578175371027 0.656103144575328 3.175
vertex 74.6125 0.425369342984407 3.175
endloop
endfacet
facet normal 0.38268343236509 -0.923879532511287 0.0
outer loop
vertex 74.2400198977592 0.241682484276664 3.175
vertex 73.8467504682005 0.108185501532208 1.27
vertex 74.2400198977592 0.241682484276664 1.27
endloop
endfacet
facet normal 0.258819045102519 -0.965925826289069 0.0
outer loop
vertex 73.8467504682005 0.108185501532208 1.27
vertex 74.2400198977592 0.241682484276664 3.175
vertex 73.8467504682005 0.108185501532208 3.175
endloop
endfacet
facet normal 0.866025403784442 -0.499999999999994 0.0
outer loop
vertex 75.7746306570156 1.5875 1.27
vertex 75.5438968554247 1.24218246289731 3.175
vertex 75.5438968554247 1.24218246289731 1.27
endloop
endfacet
facet normal 0.793353340291235 -0.608761429008721 0.0
outer loop
vertex 75.5438968554247 1.24218246289731 3.175
vertex 75.7746306570156 1.5875 1.27
vertex 75.7746306570156 1.5875 3.175
endloop
endfacet
facet normal 0.608761429008724 0.793353340291233 0.0
outer loop
vertex 74.9578175371027 50.1438968554247 3.175
vertex 75.2700640302673 49.8700640302673 1.27
vertex 74.9578175371027 50.1438968554247 1.27
endloop
endfacet
facet normal 0.70710678118654 0.707106781186555 0.0
outer loop
vertex 75.2700640302673 49.8700640302673 1.27
vertex 74.9578175371027 50.1438968554247 3.175
vertex 75.2700640302673 49.8700640302673 3.175
endloop
endfacet
facet normal 0.0 0.0 1.0
outer loop
vertex 3.175 3.175 7.62
vertex 6.35 6.35 7.62
vertex 3.175 47.625 7.62
endloop
endfacet
facet normal 0.0 0.0 1.0
outer loop
vertex 6.35 6.35 7.62
vertex 3.175 3.175 7.62
vertex 73.025 3.175 7.62
endloop
endfacet
facet normal 0.0 0.0 1.0
outer loop
vertex 6.35 6.35 7.62
vertex 73.025 3.175 7.62
vertex 69.85 6.35 7.62
endloop
endfacet
facet normal 0.0 0.0 1.0
outer loop
vertex 69.85 6.35 7.62
vertex 73.025 3.175 7.62
vertex 69.85 44.45 7.62
endloop
endfacet
facet normal 0.0 0.0 1.0
outer loop
vertex 3.175 47.625 7.62
vertex 6.35 44.45 7.62
vertex 73.025 47.625 7.62
endloop
endfacet
facet normal 0.0 0.0 1.0
outer loop
vertex 6.35 44.45 7.62
vertex 3.175 47.625 7.62
vertex 6.35 6.35 7.62
endloop
endfacet
facet normal 0.0 0.0 1.0
outer loop
vertex 73.025 47.625 7.62
vertex 6.35 44.45 7.62
vertex 69.85 44.45 7.62
endloop
endfacet
facet normal 0.0 0.0 1.0
outer loop
vertex 73.025 47.625 7.62
vertex 69.85 44.45 7.62
vertex 73.025 3.175 7.62
endloop
endfacet
facet normal 0.0 -1.0 0.0
outer loop
vertex 73.025 3.175 7.62
vertex 3.175 3.175 3.175
vertex 73.025 3.175 3.175
endloop
endfacet
facet normal 0.0 -1.0 0.0
outer loop
vertex 3.175 3.175 3.175
vertex 73.025 3.175 7.62
vertex 3.175 3.175 7.62
endloop
endfacet
facet normal 0.258819045102519 -0.965925826289069 0.0
outer loop
vertex 73.8467504682005 0.108185501532208 3.175
vertex 73.4394206602987 0.027162565138152 1.27
vertex 73.8467504682005 0.108185501532208 1.27
endloop
endfacet
facet normal 0.130526192220053 -0.99144486137381 0.0
outer loop
vertex 73.4394206602987 0.027162565138152 1.27
vertex 73.8467504682005 0.108185501532208 3.175
vertex 73.4394206602987 0.027162565138152 3.175
endloop
endfacet
facet normal 0.0 0.0 1.0
outer loop
vertex 69.85 6.35 3.2004
vertex 6.35 44.45 3.2004
vertex 6.35 6.35 3.2004
endloop
endfacet
facet normal 0.0 0.0 1.0
outer loop
vertex 6.35 44.45 3.2004
vertex 69.85 6.35 3.2004
vertex 69.85 44.45 3.2004
endloop
endfacet
facet normal -1.0 0.0 0.0
outer loop
vertex 69.85 44.45 7.62
vertex 69.85 6.35 3.2004
vertex 69.85 6.35 7.62
endloop
endfacet
facet normal -1.0 0.0 0.0
outer loop
vertex 69.85 6.35 3.2004
vertex 69.85 44.45 7.62
vertex 69.85 44.45 3.2004
endloop
endfacet
facet normal 1.0 0.0 0.0
outer loop
vertex 76.2 47.625 1.27
vertex 76.2 3.175 3.175
vertex 76.2 3.175 1.27
endloop
endfacet
facet normal 1.0 0.0 0.0
outer loop
vertex 76.2 3.175 3.175
vertex 76.2 47.625 1.27
vertex 76.2 47.625 3.175
endloop
endfacet
facet normal 0.0 0.0 -1.0
outer loop
vertex 0.027162565138152 48.0394206602987 1.27
vertex 0.0 3.175 1.27
vertex 0.0 47.625 1.27
endloop
endfacet
facet normal 0.0 0.0 -1.0
outer loop
vertex 0.0 3.175 1.27
vertex 0.027162565138152 48.0394206602987 1.27
vertex 0.0271625651381524 2.76057933970134 1.27
endloop
endfacet
facet normal 0.0 0.0 -1.0
outer loop
vertex 0.0271625651381524 2.76057933970134 1.27
vertex 0.027162565138152 48.0394206602987 1.27
vertex 0.108185501532208 48.4467504682005 1.27
endloop
endfacet
facet normal 0.0 0.0 -1.0
outer loop
vertex 0.0271625651381524 2.76057933970134 1.27
vertex 0.108185501532208 48.4467504682005 1.27
vertex 0.108185501532208 2.3532495317995 1.27
endloop
endfacet
facet normal 0.0 0.0 -1.0
outer loop
vertex 0.108185501532208 2.3532495317995 1.27
vertex 0.108185501532208 48.4467504682005 1.27
vertex 0.241682484276665 48.8400198977592 1.27
endloop
endfacet
facet normal 0.0 0.0 -1.0
outer loop
vertex 0.108185501532208 2.3532495317995 1.27
vertex 0.241682484276665 48.8400198977592 1.27
vertex 0.241682484276665 1.95998010224084 1.27
endloop
endfacet
facet normal 0.0 0.0 -1.0
outer loop
vertex 0.241682484276665 1.95998010224084 1.27
vertex 0.241682484276665 48.8400198977592 1.27
vertex 0.425369342984407 49.2125 1.27
endloop
endfacet
facet normal 0.0 0.0 -1.0
outer loop
vertex 0.241682484276665 1.95998010224084 1.27
vertex 0.425369342984407 49.2125 1.27
vertex 0.425369342984408 1.5875 1.27
endloop
endfacet
facet normal 0.0 0.0 -1.0
outer loop
vertex 0.425369342984408 1.5875 1.27
vertex 0.425369342984407 49.2125 1.27
vertex 0.656103144575329 49.5578175371027 1.27
endloop
endfacet
facet normal 0.0 0.0 -1.0
outer loop
vertex 0.425369342984408 1.5875 1.27
vertex 0.656103144575329 49.5578175371027 1.27
vertex 0.656103144575329 1.24218246289731 1.27
endloop
endfacet
facet normal 0.0 0.0 -1.0
outer loop
vertex 0.656103144575329 1.24218246289731 1.27
vertex 0.656103144575329 49.5578175371027 1.27
vertex 0.929935969732711 49.8700640302673 1.27
endloop
endfacet
facet normal 0.0 0.0 -1.0
outer loop
vertex 0.656103144575329 1.24218246289731 1.27
vertex 0.929935969732711 49.8700640302673 1.27
vertex 0.929935969732712 0.929935969732712 1.27
endloop
endfacet
facet normal 0.0 0.0 -1.0
outer loop
vertex 0.929935969732712 0.929935969732712 1.27
vertex 0.929935969732711 49.8700640302673 1.27
vertex 1.24218246289731 50.1438968554247 1.27
endloop
endfacet
facet normal 0.0 0.0 -1.0
outer loop
vertex 0.929935969732712 0.929935969732712 1.27
vertex 1.24218246289731 50.1438968554247 1.27
vertex 1.24218246289731 0.656103144575329 1.27
endloop
endfacet
facet normal 0.0 0.0 -1.0
outer loop
vertex 1.24218246289731 0.656103144575329 1.27
vertex 1.24218246289731 50.1438968554247 1.27
vertex 1.5875 50.3746306570156 1.27
endloop
endfacet
facet normal 0.0 0.0 -1.0
outer loop
vertex 1.24218246289731 0.656103144575329 1.27
vertex 1.5875 50.3746306570156 1.27
vertex 1.5875 0.425369342984408 1.27
endloop
endfacet
facet normal 0.0 0.0 -1.0
outer loop
vertex 1.5875 0.425369342984408 1.27
vertex 1.5875 50.3746306570156 1.27
vertex 1.95998010224084 50.5583175157233 1.27
endloop
endfacet
facet normal 0.0 0.0 -1.0
outer loop
vertex 1.5875 0.425369342984408 1.27
vertex 1.95998010224084 50.5583175157233 1.27
vertex 1.95998010224084 0.241682484276665 1.27
endloop
endfacet
facet normal 0.0 0.0 -1.0
outer loop
vertex 1.95998010224084 0.241682484276665 1.27
vertex 1.95998010224084 50.5583175157233 1.27
vertex 2.3532495317995 50.6918144984678 1.27
endloop
endfacet
facet normal 0.0 0.0 -1.0
outer loop
vertex 1.95998010224084 0.241682484276665 1.27
vertex 2.3532495317995 50.6918144984678 1.27
vertex 2.3532495317995 0.108185501532208 1.27
endloop
endfacet
facet normal 0.0 0.0 -1.0
outer loop
vertex 2.3532495317995 0.108185501532208 1.27
vertex 2.3532495317995 50.6918144984678 1.27
vertex 2.76057933970134 50.7728374348618 1.27
endloop
endfacet
facet normal 0.0 0.0 -1.0
outer loop
vertex 2.3532495317995 0.108185501532208 1.27
vertex 2.76057933970134 50.7728374348618 1.27
vertex 2.76057933970134 0.027162565138152 1.27
endloop
endfacet
facet normal 0.0 0.0 -1.0
outer loop
vertex 2.76057933970134 0.027162565138152 1.27
vertex 2.76057933970134 50.7728374348618 1.27
vertex 3.175 0.0 1.27
endloop
endfacet
facet normal 0.0 0.0 -1.0
outer loop
vertex 3.175 0.0 1.27
vertex 2.76057933970134 50.7728374348618 1.27
vertex 3.175 50.8 1.27
endloop
endfacet
facet normal 0.0 0.0 -1.0
outer loop
vertex 3.175 0.0 1.27
vertex 3.175 50.8 1.27
vertex 73.025 0.0 1.27
endloop
endfacet
facet normal 0.0 0.0 -1.0
outer loop
vertex 73.025 0.0 1.27
vertex 3.175 50.8 1.27
vertex 73.025 50.8 1.27
endloop
endfacet
facet normal 0.0 0.0 -1.0
outer loop
vertex 73.025 0.0 1.27
vertex 73.025 50.8 1.27
vertex 73.4394206602987 50.7728374348618 1.27
endloop
endfacet
facet normal 0.0 0.0 -1.0
outer loop
vertex 73.025 0.0 1.27
vertex 73.4394206602987 50.7728374348618 1.27
vertex 73.4394206602987 0.027162565138152 1.27
endloop
endfacet
facet normal 0.0 0.0 -1.0
outer loop
vertex 73.4394206602987 0.027162565138152 1.27
vertex 73.4394206602987 50.7728374348618 1.27
vertex 73.8467504682005 50.6918144984678 1.27
endloop
endfacet
facet normal 0.0 0.0 -1.0
outer loop
vertex 73.4394206602987 0.027162565138152 1.27
vertex 73.8467504682005 50.6918144984678 1.27
vertex 73.8467504682005 0.108185501532208 1.27
endloop
endfacet
facet normal 0.0 0.0 -1.0
outer loop
vertex 73.8467504682005 0.108185501532208 1.27
vertex 73.8467504682005 50.6918144984678 1.27
vertex 74.2400198977592 50.5583175157233 1.27
endloop
endfacet
facet normal 0.0 0.0 -1.0
outer loop
vertex 73.8467504682005 0.108185501532208 1.27
vertex 74.2400198977592 50.5583175157233 1.27
vertex 74.2400198977592 0.241682484276664 1.27
endloop
endfacet
facet normal 0.0 0.0 -1.0
outer loop
vertex 74.2400198977592 0.241682484276664 1.27
vertex 74.2400198977592 50.5583175157233 1.27
vertex 74.6125 50.3746306570156 1.27
endloop
endfacet
facet normal 0.0 0.0 -1.0
outer loop
vertex 74.2400198977592 0.241682484276664 1.27
vertex 74.6125 50.3746306570156 1.27
vertex 74.6125 0.425369342984407 1.27
endloop
endfacet
facet normal 0.0 0.0 -1.0
outer loop
vertex 74.6125 0.425369342984407 1.27
vertex 74.6125 50.3746306570156 1.27
vertex 74.9578175371027 50.1438968554247 1.27
endloop
endfacet
facet normal 0.0 0.0 -1.0
outer loop
vertex 74.6125 0.425369342984407 1.27
vertex 74.9578175371027 50.1438968554247 1.27
vertex 74.9578175371027 0.656103144575328 1.27
endloop
endfacet
facet normal 0.0 0.0 -1.0
outer loop
vertex 74.9578175371027 0.656103144575328 1.27
vertex 74.9578175371027 50.1438968554247 1.27
vertex 75.2700640302673 49.8700640302673 1.27
endloop
endfacet
facet normal 0.0 0.0 -1.0
outer loop
vertex 74.9578175371027 0.656103144575328 1.27
vertex 75.2700640302673 49.8700640302673 1.27
vertex 75.2700640302673 0.929935969732711 1.27
endloop
endfacet
facet normal 0.0 0.0 -1.0
outer loop
vertex 75.2700640302673 0.929935969732711 1.27
vertex 75.2700640302673 49.8700640302673 1.27
vertex 75.5438968554247 49.5578175371027 1.27
endloop
endfacet
facet normal 0.0 0.0 -1.0
outer loop
vertex 75.2700640302673 0.929935969732711 1.27
vertex 75.5438968554247 49.5578175371027 1.27
vertex 75.5438968554247 1.24218246289731 1.27
endloop
endfacet
facet normal 0.0 0.0 -1.0
outer loop
vertex 75.5438968554247 1.24218246289731 1.27
vertex 75.5438968554247 49.5578175371027 1.27
vertex 75.7746306570156 49.2125 1.27
endloop
endfacet
facet normal 0.0 0.0 -1.0
outer loop
vertex 75.5438968554247 1.24218246289731 1.27
vertex 75.7746306570156 49.2125 1.27
vertex 75.7746306570156 1.5875 1.27
endloop
endfacet
facet normal 0.0 0.0 -1.0
outer loop
vertex 75.7746306570156 1.5875 1.27
vertex 75.7746306570156 49.2125 1.27
vertex 75.9583175157233 48.8400198977592 1.27
endloop
endfacet
facet normal 0.0 0.0 -1.0
outer loop
vertex 75.7746306570156 1.5875 1.27
vertex 75.9583175157233 48.8400198977592 1.27
vertex 75.9583175157233 1.95998010224084 1.27
endloop
endfacet
facet normal 0.0 0.0 -1.0
outer loop
vertex 75.9583175157233 1.95998010224084 1.27
vertex 75.9583175157233 48.8400198977592 1.27
vertex 76.0918144984678 48.4467504682005 1.27
endloop
endfacet
facet normal 0.0 0.0 -1.0
outer loop
vertex 75.9583175157233 1.95998010224084 1.27
vertex 76.0918144984678 48.4467504682005 1.27
vertex 76.0918144984678 2.3532495317995 1.27
endloop
endfacet
facet normal 0.0 0.0 -1.0
outer loop
vertex 76.0918144984678 2.3532495317995 1.27
vertex 76.0918144984678 48.4467504682005 1.27
vertex 76.1728374348618 48.0394206602987 1.27
endloop
endfacet
facet normal 0.0 0.0 -1.0
outer loop
vertex 76.0918144984678 2.3532495317995 1.27
vertex 76.1728374348618 48.0394206602987 1.27
vertex 76.1728374348618 2.76057933970133 1.27
endloop
endfacet
facet normal 0.0 0.0 -1.0
outer loop
vertex 76.1728374348618 2.76057933970133 1.27
vertex 76.1728374348618 48.0394206602987 1.27
vertex 76.2 47.625 1.27
endloop
endfacet
facet normal 0.0 0.0 -1.0
outer loop
vertex 76.1728374348618 2.76057933970133 1.27
vertex 76.2 47.625 1.27
vertex 76.2 3.175 1.27
endloop
endfacet
facet normal 0.0 1.0 0.0
outer loop
vertex 3.175 47.625 7.62
vertex 73.025 47.625 3.175
vertex 3.175 47.625 3.175
endloop
endfacet
facet normal 0.0 1.0 0.0
outer loop
vertex 73.025 47.625 3.175
vertex 3.175 47.625 7.62
vertex 73.025 47.625 7.62
endloop
endfacet
facet normal -1.0 -0.0 -0.0
outer loop
vertex 3.175 47.625 7.62
vertex 3.175 3.175 3.175
vertex 3.175 3.175 7.62
endloop
endfacet
facet normal -1.0 -0.0 -0.0
outer loop
vertex 3.175 3.175 3.175
vertex 3.175 47.625 7.62
vertex 3.175 47.625 3.175
endloop
endfacet
facet normal 0.0 1.0 0.0
outer loop
vertex 6.35 6.35 7.62
vertex 69.85 6.35 3.2004
vertex 6.35 6.35 3.2004
endloop
endfacet
facet normal 0.0 1.0 0.0
outer loop
vertex 69.85 6.35 3.2004
vertex 6.35 6.35 7.62
vertex 69.85 6.35 7.62
endloop
endfacet
facet normal -0.500000000000004 0.866025403784436 0.0
outer loop
vertex 1.5875 50.3746306570156 3.175
vertex 1.95998010224084 50.5583175157233 1.27
vertex 1.5875 50.3746306570156 1.27
endloop
endfacet
facet normal -0.382683432365092 0.923879532511286 0.0
outer loop
vertex 1.95998010224084 50.5583175157233 1.27
vertex 1.5875 50.3746306570156 3.175
vertex 1.95998010224084 50.5583175157233 3.175
endloop
endfacet
facet normal -0.965925826289068 0.258819045102521 0.0
outer loop
vertex 0.108185501532208 48.4467504682005 3.175
vertex 0.027162565138152 48.0394206602987 1.27
vertex 0.027162565138152 48.0394206602987 3.175
endloop
endfacet
facet normal -0.99144486137381 0.130526192220051 0.0
outer loop
vertex 0.027162565138152 48.0394206602987 1.27
vertex 0.108185501532208 48.4467504682005 3.175
vertex 0.108185501532208 48.4467504682005 1.27
endloop
endfacet
facet normal 1.0 0.0 0.0
outer loop
vertex 73.025 47.625 3.175
vertex 73.025 3.175 7.62
vertex 73.025 3.175 3.175
endloop
endfacet
facet normal 1.0 0.0 0.0
outer loop
vertex 73.025 3.175 7.62
vertex 73.025 47.625 3.175
vertex 73.025 47.625 7.62
endloop
endfacet
facet normal 1.0 0.0 0.0
outer loop
vertex 6.35 44.45 3.2004
vertex 6.35 6.35 7.62
vertex 6.35 6.35 3.2004
endloop
endfacet
facet normal 1.0 0.0 0.0
outer loop
vertex 6.35 6.35 7.62
vertex 6.35 44.45 3.2004
vertex 6.35 44.45 7.62
endloop
endfacet
facet normal 0.0 -1.0 0.0
outer loop
vertex 73.025 0.0 3.175
vertex 3.175 0.0 1.27
vertex 73.025 0.0 1.27
endloop
endfacet
facet normal 0.0 -1.0 0.0
outer loop
vertex 3.175 0.0 1.27
vertex 73.025 0.0 3.175
vertex 3.175 0.0 3.175
endloop
endfacet
facet normal 0.707106781186542 -0.707106781186553 0.0
outer loop
vertex 75.2700640302673 0.929935969732711 3.175
vertex 74.9578175371027 0.656103144575328 1.27
vertex 75.2700640302673 0.929935969732711 1.27
endloop
endfacet
facet normal 0.608761429008723 -0.793353340291234 0.0
outer loop
vertex 74.9578175371027 0.656103144575328 1.27
vertex 75.2700640302673 0.929935969732711 3.175
vertex 74.9578175371027 0.656103144575328 3.175
endloop
endfacet
facet normal 0.500000000000008 0.866025403784434 0.0
outer loop
vertex 74.6125 50.3746306570156 3.175
vertex 74.9578175371027 50.1438968554247 1.27
vertex 74.6125 50.3746306570156 1.27
endloop
endfacet
facet normal 0.608761429008724 0.793353340291233 0.0
outer loop
vertex 74.9578175371027 50.1438968554247 1.27
vertex 74.6125 50.3746306570156 3.175
vertex 74.9578175371027 50.1438968554247 3.175
endloop
endfacet
facet normal -0.866025403784439 0.499999999999999 0.0
outer loop
vertex 0.425369342984407 49.2125 3.175
vertex 0.241682484276665 48.8400198977592 1.27
vertex 0.241682484276665 48.8400198977592 3.175
endloop
endfacet
facet normal -0.923879532511286 0.382683432365091 0.0
outer loop
vertex 0.241682484276665 48.8400198977592 1.27
vertex 0.425369342984407 49.2125 3.175
vertex 0.425369342984407 49.2125 1.27
endloop
endfacet
facet normal -0.382683432365092 0.923879532511286 0.0
outer loop
vertex 1.95998010224084 50.5583175157233 3.175
vertex 2.3532495317995 50.6918144984678 1.27
vertex 1.95998010224084 50.5583175157233 1.27
endloop
endfacet
facet normal -0.258819045102519 0.965925826289069 0.0
outer loop
vertex 2.3532495317995 50.6918144984678 1.27
vertex 1.95998010224084 50.5583175157233 3.175
vertex 2.3532495317995 50.6918144984678 3.175
endloop
endfacet
facet normal -1.0 0.0 0.0
outer loop
vertex 0.0 47.625 3.175
vertex 0.0 3.175 1.27
vertex 0.0 3.175 3.175
endloop
endfacet
facet normal -1.0 0.0 0.0
outer loop
vertex 0.0 3.175 1.27
vertex 0.0 47.625 3.175
vertex 0.0 47.625 1.27
endloop
endfacet
facet normal 0.0 1.0 0.0
outer loop
vertex 3.175 50.8 3.175
vertex 73.025 50.8 1.27
vertex 3.175 50.8 1.27
endloop
endfacet
facet normal 0.0 1.0 0.0
outer loop
vertex 73.025 50.8 1.27
vertex 3.175 50.8 3.175
vertex 73.025 50.8 3.175
endloop
endfacet
facet normal -0.0 -1.0 -0.0
outer loop
vertex 69.85 44.45 7.62
vertex 6.35 44.45 3.2004
vertex 69.85 44.45 3.2004
endloop
endfacet
facet normal -0.0 -1.0 -0.0
outer loop
vertex 6.35 44.45 3.2004
vertex 69.85 44.45 7.62
vertex 6.35 44.45 7.62
endloop
endfacet
facet normal 0.991444861373811 -0.130526192220047 0.0
outer loop
vertex 76.1728374348618 2.76057933970133 1.27
vertex 76.0918144984678 2.3532495317995 3.175
vertex 76.0918144984678 2.3532495317995 1.27
endloop
endfacet
facet normal 0.965925826289067 -0.258819045102525 0.0
outer loop
vertex 76.0918144984678 2.3532495317995 3.175
vertex 76.1728374348618 2.76057933970133 1.27
vertex 76.1728374348618 2.76057933970133 3.175
endloop
endfacet
facet normal 0.258819045102517 0.965925826289069 0.0
outer loop
vertex 73.8467504682005 50.6918144984678 3.175
vertex 74.2400198977592 50.5583175157233 1.27
vertex 73.8467504682005 50.6918144984678 1.27
endloop
endfacet
facet normal 0.382683432365092 0.923879532511286 0.0
outer loop
vertex 74.2400198977592 50.5583175157233 1.27
vertex 73.8467504682005 50.6918144984678 3.175
vertex 74.2400198977592 50.5583175157233 3.175
endloop
endfacet
facet normal 0.997858923238604 -0.0654031292301391 0.0
outer loop
vertex 76.2 3.175 1.27
vertex 76.1728374348618 2.76057933970133 3.175
vertex 76.1728374348618 2.76057933970133 1.27
endloop
endfacet
facet normal 0.991444861373811 -0.130526192220047 0.0
outer loop
vertex 76.1728374348618 2.76057933970133 3.175
vertex 76.2 3.175 1.27
vertex 76.2 3.175 3.175
endloop
endfacet
facet normal -0.866025403784439 -0.5 0.0
outer loop
vertex 0.425369342984408 1.5875 3.175
vertex 0.656103144575329 1.24218246289731 1.27
vertex 0.656103144575329 1.24218246289731 3.175
endloop
endfacet
facet normal -0.793353340291235 -0.608761429008721 0.0
outer loop
vertex 0.656103144575329 1.24218246289731 1.27
vertex 0.425369342984408 1.5875 3.175
vertex 0.425369342984408 1.5875 1.27
endloop
endfacet
facet normal -0.793353340291236 0.60876142900872 0.0
outer loop
vertex 0.656103144575329 49.5578175371027 3.175
vertex 0.425369342984407 49.2125 1.27
vertex 0.425369342984407 49.2125 3.175
endloop
endfacet
facet normal -0.866025403784439 0.499999999999999 0.0
outer loop
vertex 0.425369342984407 49.2125 1.27
vertex 0.656103144575329 49.5578175371027 3.175
vertex 0.656103144575329 49.5578175371027 1.27
endloop
endfacet
facet normal -0.99144486137381 0.130526192220051 0.0
outer loop
vertex 0.027162565138152 48.0394206602987 3.175
vertex 0.0 47.625 1.27
vertex 0.0 47.625 3.175
endloop
endfacet
facet normal -0.997858923238604 0.0654031292301435 0.0
outer loop
vertex 0.0 47.625 1.27
vertex 0.027162565138152 48.0394206602987 3.175
vertex 0.027162565138152 48.0394206602987 1.27
endloop
endfacet
facet normal 0.382683432365092 0.923879532511286 0.0
outer loop
vertex 74.2400198977592 50.5583175157233 3.175
vertex 74.6125 50.3746306570156 1.27
vertex 74.2400198977592 50.5583175157233 1.27
endloop
endfacet
facet normal 0.500000000000008 0.866025403784434 0.0
outer loop
vertex 74.6125 50.3746306570156 1.27
vertex 74.2400198977592 50.5583175157233 3.175
vertex 74.6125 50.3746306570156 3.175
endloop
endfacet
facet normal -0.258819045102519 0.965925826289069 0.0
outer loop
vertex 2.3532495317995 50.6918144984678 3.175
vertex 2.76057933970134 50.7728374348618 1.27
vertex 2.3532495317995 50.6918144984678 1.27
endloop
endfacet
facet normal -0.130526192220047 0.991444861373811 0.0
outer loop
vertex 2.76057933970134 50.7728374348618 1.27
vertex 2.3532495317995 50.6918144984678 3.175
vertex 2.76057933970134 50.7728374348618 3.175
endloop
endfacet
facet normal -0.0654031292301434 -0.997858923238604 0.0
outer loop
vertex 3.175 0.0 3.175
vertex 2.76057933970134 0.027162565138152 1.27
vertex 3.175 0.0 1.27
endloop
endfacet
facet normal -0.130526192220052 -0.99144486137381 0.0
outer loop
vertex 2.76057933970134 0.027162565138152 1.27
vertex 3.175 0.0 3.175
vertex 2.76057933970134 0.027162565138152 3.175
endloop
endfacet
facet normal -0.258819045102521 -0.965925826289068 0.0
outer loop
vertex 2.3532495317995 0.108185501532208 3.175
vertex 1.95998010224084 0.241682484276665 1.27
vertex 2.3532495317995 0.108185501532208 1.27
endloop
endfacet
facet normal -0.38268343236509 -0.923879532511287 0.0
outer loop
vertex 1.95998010224084 0.241682484276665 1.27
vertex 2.3532495317995 0.108185501532208 3.175
vertex 1.95998010224084 0.241682484276665 3.175
endloop
endfacet
facet normal -0.500000000000001 -0.866025403784438 0.0
outer loop
vertex 1.5875 0.425369342984408 3.175
vertex 1.24218246289731 0.656103144575329 1.27
vertex 1.5875 0.425369342984408 1.27
endloop
endfacet
facet normal -0.60876142900872 -0.793353340291235 0.0
outer loop
vertex 1.24218246289731 0.656103144575329 1.27
vertex 1.5875 0.425369342984408 3.175
vertex 1.24218246289731 0.656103144575329 3.175
endloop
endfacet
facet normal -0.60876142900872 -0.793353340291235 0.0
outer loop
vertex 1.24218246289731 0.656103144575329 3.175
vertex 0.929935969732712 0.929935969732712 1.27
vertex 1.24218246289731 0.656103144575329 1.27
endloop
endfacet
facet normal -0.707106781186547 -0.707106781186548 0.0
outer loop
vertex 0.929935969732712 0.929935969732712 1.27
vertex 1.24218246289731 0.656103144575329 3.175
vertex 0.929935969732712 0.929935969732712 3.175
endloop
endfacet
facet normal 0.793353340291236 0.60876142900872 0.0
outer loop
vertex 75.5438968554247 49.5578175371027 1.27
vertex 75.7746306570156 49.2125 3.175
vertex 75.7746306570156 49.2125 1.27
endloop
endfacet
facet normal 0.866025403784443 0.499999999999993 0.0
outer loop
vertex 75.7746306570156 49.2125 3.175
vertex 75.5438968554247 49.5578175371027 1.27
vertex 75.5438968554247 49.5578175371027 3.175
endloop
endfacet
facet normal 0.0654031292301384 0.997858923238604 0.0
outer loop
vertex 73.025 50.8 3.175
vertex 73.4394206602987 50.7728374348618 1.27
vertex 73.025 50.8 1.27
endloop
endfacet
facet normal 0.130526192220048 0.991444861373811 0.0
outer loop
vertex 73.4394206602987 50.7728374348618 1.27
vertex 73.025 50.8 3.175
vertex 73.4394206602987 50.7728374348618 3.175
endloop
endfacet
facet normal -0.38268343236509 -0.923879532511287 0.0
outer loop
vertex 1.95998010224084 0.241682484276665 3.175
vertex 1.5875 0.425369342984408 1.27
vertex 1.95998010224084 0.241682484276665 1.27
endloop
endfacet
facet normal -0.500000000000001 -0.866025403784438 0.0
outer loop
vertex 1.5875 0.425369342984408 1.27
vertex 1.95998010224084 0.241682484276665 3.175
vertex 1.5875 0.425369342984408 3.175
endloop
endfacet
facet normal -0.923879532511286 0.382683432365091 0.0
outer loop
vertex 0.241682484276665 48.8400198977592 3.175
vertex 0.108185501532208 48.4467504682005 1.27
vertex 0.108185501532208 48.4467504682005 3.175
endloop
endfacet
facet normal -0.965925826289068 0.258819045102521 0.0
outer loop
vertex 0.108185501532208 48.4467504682005 1.27
vertex 0.241682484276665 48.8400198977592 3.175
vertex 0.241682484276665 48.8400198977592 1.27
endloop
endfacet
facet normal -0.793353340291235 -0.608761429008721 0.0
outer loop
vertex 0.656103144575329 1.24218246289731 3.175
vertex 0.929935969732712 0.929935969732712 1.27
vertex 0.929935969732712 0.929935969732712 3.175
endloop
endfacet
facet normal -0.707106781186547 -0.707106781186548 0.0
outer loop
vertex 0.929935969732712 0.929935969732712 1.27
vertex 0.656103144575329 1.24218246289731 3.175
vertex 0.656103144575329 1.24218246289731 1.27
endloop
endfacet
facet normal -0.99144486137381 -0.130526192220052 0.0
outer loop
vertex 0.0271625651381524 2.76057933970134 3.175
vertex 0.108185501532208 2.3532495317995 1.27
vertex 0.108185501532208 2.3532495317995 3.175
endloop
endfacet
facet normal -0.965925826289068 -0.258819045102521 0.0
outer loop
vertex 0.108185501532208 2.3532495317995 1.27
vertex 0.0271625651381524 2.76057933970134 3.175
vertex 0.0271625651381524 2.76057933970134 1.27
endloop
endfacet
facet normal 0.70710678118654 0.707106781186555 0.0
outer loop
vertex 75.2700640302673 49.8700640302673 1.27
vertex 75.5438968554247 49.5578175371027 3.175
vertex 75.5438968554247 49.5578175371027 1.27
endloop
endfacet
facet normal 0.793353340291236 0.60876142900872 0.0
outer loop
vertex 75.5438968554247 49.5578175371027 3.175
vertex 75.2700640302673 49.8700640302673 1.27
vertex 75.2700640302673 49.8700640302673 3.175
endloop
endfacet
facet normal 0.866025403784443 0.499999999999993 0.0
outer loop
vertex 75.7746306570156 49.2125 1.27
vertex 75.9583175157233 48.8400198977592 3.175
vertex 75.9583175157233 48.8400198977592 1.27
endloop
endfacet
facet normal 0.923879532511283 0.382683432365099 0.0
outer loop
vertex 75.9583175157233 48.8400198977592 3.175
vertex 75.7746306570156 49.2125 1.27
vertex 75.7746306570156 49.2125 3.175
endloop
endfacet
facet normal 0.923879532511283 0.382683432365099 0.0
outer loop
vertex 75.9583175157233 48.8400198977592 1.27
vertex 76.0918144984678 48.4467504682005 3.175
vertex 76.0918144984678 48.4467504682005 1.27
endloop
endfacet
facet normal 0.965925826289067 0.258819045102525 0.0
outer loop
vertex 76.0918144984678 48.4467504682005 3.175
vertex 75.9583175157233 48.8400198977592 1.27
vertex 75.9583175157233 48.8400198977592 3.175
endloop
endfacet
facet normal 0.965925826289067 0.258819045102525 0.0
outer loop
vertex 76.0918144984678 48.4467504682005 1.27
vertex 76.1728374348618 48.0394206602987 3.175
vertex 76.1728374348618 48.0394206602987 1.27
endloop
endfacet
facet normal 0.991444861373811 0.130526192220046 0.0
outer loop
vertex 76.1728374348618 48.0394206602987 3.175
vertex 76.0918144984678 48.4467504682005 1.27
vertex 76.0918144984678 48.4467504682005 3.175
endloop
endfacet
facet normal 0.991444861373811 0.130526192220046 0.0
outer loop
vertex 76.1728374348618 48.0394206602987 1.27
vertex 76.2 47.625 3.175
vertex 76.2 47.625 1.27
endloop
endfacet
facet normal 0.997858923238604 0.0654031292301393 0.0
outer loop
vertex 76.2 47.625 3.175
vertex 76.1728374348618 48.0394206602987 1.27
vertex 76.1728374348618 48.0394206602987 3.175
endloop
endfacet
facet normal -0.608761429008721 0.793353340291235 0.0
outer loop
vertex 1.24218246289731 50.1438968554247 3.175
vertex 1.5875 50.3746306570156 1.27
vertex 1.24218246289731 50.1438968554247 1.27
endloop
endfacet
facet normal -0.500000000000004 0.866025403784436 0.0
outer loop
vertex 1.5875 50.3746306570156 1.27
vertex 1.24218246289731 50.1438968554247 3.175
vertex 1.5875 50.3746306570156 3.175
endloop
endfacet
facet normal -0.707106781186546 0.707106781186549 0.0
outer loop
vertex 0.929935969732711 49.8700640302673 3.175
vertex 1.24218246289731 50.1438968554247 1.27
vertex 0.929935969732711 49.8700640302673 1.27
endloop
endfacet
facet normal -0.608761429008721 0.793353340291235 0.0
outer loop
vertex 1.24218246289731 50.1438968554247 1.27
vertex 0.929935969732711 49.8700640302673 3.175
vertex 1.24218246289731 50.1438968554247 3.175
endloop
endfacet
facet normal -0.707106781186546 0.707106781186549 0.0
outer loop
vertex 0.929935969732711 49.8700640302673 3.175
vertex 0.656103144575329 49.5578175371027 1.27
vertex 0.656103144575329 49.5578175371027 3.175
endloop
endfacet
facet normal -0.793353340291236 0.60876142900872 0.0
outer loop
vertex 0.656103144575329 49.5578175371027 1.27
vertex 0.929935969732711 49.8700640302673 3.175
vertex 0.929935969732711 49.8700640302673 1.27
endloop
endfacet
facet normal -0.130526192220047 0.991444861373811 0.0
outer loop
vertex 2.76057933970134 50.7728374348618 3.175
vertex 3.175 50.8 1.27
vertex 2.76057933970134 50.7728374348618 1.27
endloop
endfacet
facet normal -0.0654031292301391 0.997858923238604 0.0
outer loop
vertex 3.175 50.8 1.27
vertex 2.76057933970134 50.7728374348618 3.175
vertex 3.175 50.8 3.175
endloop
endfacet
facet normal -0.923879532511287 -0.38268343236509 0.0
outer loop
vertex 0.241682484276665 1.95998010224084 3.175
vertex 0.425369342984408 1.5875 1.27
vertex 0.425369342984408 1.5875 3.175
endloop
endfacet
facet normal -0.866025403784439 -0.5 0.0
outer loop
vertex 0.425369342984408 1.5875 1.27
vertex 0.241682484276665 1.95998010224084 3.175
vertex 0.241682484276665 1.95998010224084 1.27
endloop
endfacet
facet normal -0.997858923238604 -0.0654031292301442 0.0
outer loop
vertex 0.0 3.175 3.175
vertex 0.0271625651381524 2.76057933970134 1.27
vertex 0.0271625651381524 2.76057933970134 3.175
endloop
endfacet
facet normal -0.99144486137381 -0.130526192220052 0.0
outer loop
vertex 0.0271625651381524 2.76057933970134 1.27
vertex 0.0 3.175 3.175
vertex 0.0 3.175 1.27
endloop
endfacet
facet normal -0.965925826289068 -0.258819045102521 0.0
outer loop
vertex 0.108185501532208 2.3532495317995 3.175
vertex 0.241682484276665 1.95998010224084 1.27
vertex 0.241682484276665 1.95998010224084 3.175
endloop
endfacet
facet normal -0.923879532511287 -0.38268343236509 0.0
outer loop
vertex 0.241682484276665 1.95998010224084 1.27
vertex 0.108185501532208 2.3532495317995 3.175
vertex 0.108185501532208 2.3532495317995 1.27
endloop
endfacet
facet normal -0.130526192220052 -0.99144486137381 0.0
outer loop
vertex 2.76057933970134 0.027162565138152 3.175
vertex 2.3532495317995 0.108185501532208 1.27
vertex 2.76057933970134 0.027162565138152 1.27
endloop
endfacet
facet normal -0.258819045102521 -0.965925826289068 0.0
outer loop
vertex 2.3532495317995 0.108185501532208 1.27
vertex 2.76057933970134 0.027162565138152 3.175
vertex 2.3532495317995 0.108185501532208 3.175
endloop
endfacet
endsolid USB-GPS-lid
